<svg width="18" height="19" viewBox="0 0 18 19" fill="none" xmlns="http://www.w3.org/2000/svg">
<path fill-rule="evenodd" clip-rule="evenodd" d="M2.25 4.4375C2.25 4.12684 2.50184 3.875 2.8125 3.875H15.1875C15.4982 3.875 15.75 4.12684 15.75 4.4375C15.75 4.74816 15.4982 5 15.1875 5H2.8125C2.50184 5 2.25 4.74816 2.25 4.4375Z" fill="#5F5F5F"/>
<path fill-rule="evenodd" clip-rule="evenodd" d="M5.625 2.1875C5.625 1.87684 5.87684 1.625 6.1875 1.625H11.8125C12.1232 1.625 12.375 1.87684 12.375 2.1875C12.375 2.49816 12.1232 2.75 11.8125 2.75H6.1875C5.87684 2.75 5.625 2.49816 5.625 2.1875Z" fill="#5F5F5F"/>
<path fill-rule="evenodd" clip-rule="evenodd" d="M3.9375 3.875C4.24816 3.875 4.5 4.12684 4.5 4.4375V15.125H13.5V4.4375C13.5 4.12684 13.7518 3.875 14.0625 3.875C14.3732 3.875 14.625 4.12684 14.625 4.4375V15.125C14.625 15.4234 14.5065 15.7095 14.2955 15.9205C14.0845 16.1315 13.7984 16.25 13.5 16.25H4.5C4.20163 16.25 3.91548 16.1315 3.7045 15.9205C3.49353 15.7095 3.375 15.4234 3.375 15.125V4.4375C3.375 4.12684 3.62684 3.875 3.9375 3.875Z" fill="#5F5F5F"/>
</svg>
