<svg width="20" height="20" viewBox="0 0 20 20" fill="none" xmlns="http://www.w3.org/2000/svg">
<path d="M15.0624 1.295L18.5399 4.92V18.705H5.54932V18.75H18.5843V4.96562L15.0624 1.295Z" fill="#909090"/>
<path d="M15.0193 1.25H5.50488V18.705H18.5399V4.92063L15.0186 1.25" fill="#F4F4F4"/>
<path d="M5.40928 2.1875H1.41553V6.45437H13.978V2.1875H5.40928Z" fill="#7A7B7C"/>
<path d="M14.045 6.38188H1.49683V2.11188H14.045V6.38188Z" fill="#DD2025"/>
<path d="M5.65745 2.83374H4.84058V5.83374H5.48308V4.82187L5.62495 4.82999C5.76281 4.82762 5.89937 4.80293 6.02933 4.75687C6.14327 4.71768 6.24808 4.65581 6.33745 4.57499C6.42839 4.49801 6.50008 4.40084 6.54683 4.29124C6.60951 4.10905 6.6319 3.91543 6.61245 3.72374C6.60855 3.58681 6.58454 3.4512 6.5412 3.32124C6.50175 3.22744 6.4432 3.14287 6.36927 3.07293C6.29535 3.00298 6.20767 2.9492 6.11183 2.91499C6.02896 2.88499 5.94334 2.86322 5.8562 2.84999C5.79022 2.83981 5.72359 2.83438 5.65683 2.83374M5.5387 4.26749H5.48308V3.34249H5.6037C5.65694 3.33865 5.71036 3.34683 5.76001 3.36641C5.80967 3.38599 5.85429 3.41648 5.89058 3.45562C5.96578 3.55625 6.00595 3.67875 6.00495 3.80437C6.00495 3.95812 6.00495 4.09749 5.8662 4.19562C5.76624 4.2506 5.65247 4.27535 5.5387 4.26687M7.83308 2.82562C7.7637 2.82562 7.6962 2.83062 7.6487 2.83249L7.49995 2.83624H7.01245V5.83624H7.5862C7.80547 5.84225 8.02377 5.80509 8.2287 5.72687C8.39365 5.66144 8.53971 5.55598 8.6537 5.41999C8.76455 5.28278 8.84411 5.12302 8.88683 4.95187C8.93593 4.75804 8.95987 4.55869 8.95808 4.35874C8.9702 4.12259 8.95192 3.88586 8.9037 3.65437C8.85794 3.48397 8.77224 3.32693 8.6537 3.19624C8.5607 3.09072 8.44685 3.0056 8.31933 2.94624C8.20981 2.89557 8.09461 2.85822 7.9762 2.83499C7.92911 2.82721 7.88142 2.82366 7.8337 2.82437M7.71995 5.28499H7.65745V3.36999H7.66558C7.79443 3.35517 7.92479 3.37842 8.04058 3.43687C8.12537 3.50457 8.19445 3.58987 8.24308 3.68687C8.29555 3.78895 8.3258 3.901 8.33183 4.01562C8.33745 4.15312 8.33183 4.26562 8.33183 4.35874C8.33437 4.46602 8.32747 4.57331 8.3112 4.67937C8.29194 4.78826 8.25633 4.89362 8.20558 4.99187C8.14813 5.08322 8.07052 5.16019 7.9787 5.21687C7.90159 5.26674 7.81028 5.29001 7.7187 5.28312M10.8937 2.83624H9.37495V5.83624H10.0175V4.64624H10.83V4.08874H10.0175V3.39374H10.8925V2.83624" fill="#464648"/>
<path d="M13.6132 12.6594C13.6132 12.6594 15.6057 12.2981 15.6057 12.9788C15.6057 13.6594 14.3713 13.3825 13.6132 12.6594ZM12.1401 12.7113C11.8235 12.7812 11.515 12.8836 11.2194 13.0169L11.4694 12.4544C11.7194 11.8919 11.9788 11.125 11.9788 11.125C12.2771 11.6271 12.6242 12.0985 13.0151 12.5325C12.7203 12.5765 12.4282 12.6365 12.1401 12.7125V12.7113ZM11.3513 8.64876C11.3513 8.05563 11.5432 7.89376 11.6926 7.89376C11.8419 7.89376 12.0101 7.96563 12.0157 8.48063C11.967 8.99848 11.8586 9.50896 11.6926 10.0019C11.4651 9.58803 11.3474 9.12285 11.3507 8.65063L11.3513 8.64876ZM8.44568 15.2213C7.83443 14.8556 9.72755 13.73 10.0707 13.6938C10.0688 13.6944 9.08568 15.6038 8.44568 15.2213ZM16.1876 13.0594C16.1813 12.9969 16.1251 12.305 14.8938 12.3344C14.3806 12.3261 13.8676 12.3623 13.3607 12.4425C12.8696 11.9478 12.4467 11.3897 12.1032 10.7831C12.3196 10.1578 12.4506 9.50605 12.4926 8.84563C12.4744 8.09563 12.2951 7.66563 11.7201 7.67188C11.1451 7.67813 11.0613 8.18126 11.1369 8.93001C11.211 9.43316 11.3507 9.92443 11.5526 10.3913C11.5526 10.3913 11.2869 11.2181 10.9357 12.0406C10.5844 12.8631 10.3444 13.2944 10.3444 13.2944C9.73363 13.4932 9.15864 13.7886 8.6413 14.1694C8.1263 14.6488 7.91693 15.0169 8.18818 15.385C8.42193 15.7025 9.24005 15.7744 9.9713 14.8163C10.3598 14.3214 10.7148 13.8011 11.0338 13.2588C11.0338 13.2588 12.1488 12.9531 12.4957 12.8694C12.8426 12.7856 13.2619 12.7194 13.2619 12.7194C13.2619 12.7194 14.2801 13.7438 15.2619 13.7075C16.2438 13.6713 16.1963 13.1206 16.1901 13.0606" fill="#DD2025"/>
<path d="M14.9712 1.29813V4.96875H18.4918L14.9712 1.29813Z" fill="#909090"/>
<path d="M15.0193 1.25V4.92063H18.5399L15.0193 1.25Z" fill="#F4F4F4"/>
<path d="M5.60936 2.78563H4.79248V5.78563H5.43748V4.77438L5.57998 4.78251C5.71784 4.78014 5.8544 4.75544 5.98436 4.70938C6.09829 4.67018 6.2031 4.60831 6.29248 4.52751C6.38273 4.45031 6.45378 4.35317 6.49998 4.24376C6.56266 4.06157 6.58505 3.86794 6.56561 3.67626C6.5617 3.53932 6.5377 3.40371 6.49436 3.27376C6.4549 3.17995 6.39635 3.09538 6.32243 3.02544C6.2485 2.9555 6.16083 2.90171 6.06498 2.86751C5.98173 2.83721 5.89569 2.81523 5.80811 2.80188C5.74212 2.7917 5.67549 2.78627 5.60873 2.78563M5.49061 4.21938H5.43498V3.29438H5.55623C5.60947 3.29054 5.66289 3.29872 5.71254 3.3183C5.7622 3.33788 5.80682 3.36837 5.84311 3.40751C5.9183 3.50814 5.95848 3.63063 5.95748 3.75626C5.95748 3.91001 5.95748 4.04938 5.81873 4.14751C5.71877 4.20249 5.60499 4.22724 5.49123 4.21876M7.78498 2.77751C7.71561 2.77751 7.64811 2.78251 7.60061 2.78438L7.45373 2.78813H6.96623V5.78813H7.53998C7.75925 5.79414 7.97755 5.75698 8.18248 5.67876C8.34743 5.61333 8.49349 5.50787 8.60748 5.37188C8.71833 5.23467 8.79789 5.07491 8.84061 4.90376C8.88971 4.70993 8.91365 4.51058 8.91185 4.31063C8.92398 4.07448 8.9057 3.83775 8.85748 3.60626C8.81172 3.43586 8.72602 3.27882 8.60748 3.14813C8.51448 3.04261 8.40063 2.95749 8.27311 2.89813C8.16359 2.84746 8.04839 2.81011 7.92998 2.78688C7.88289 2.7791 7.8352 2.77555 7.78748 2.77626M7.67373 5.23688H7.61123V3.32188H7.61935C7.7482 3.30706 7.87857 3.33031 7.99436 3.38876C8.07914 3.45646 8.14823 3.54176 8.19685 3.63876C8.24933 3.74084 8.27957 3.85289 8.2856 3.96751C8.29123 4.10501 8.2856 4.21751 8.2856 4.31063C8.28815 4.41791 8.28125 4.52519 8.26498 4.63126C8.24572 4.74015 8.21011 4.84551 8.15936 4.94376C8.10191 5.0351 8.0243 5.11207 7.93248 5.16876C7.85537 5.21863 7.76406 5.2419 7.67248 5.23501M10.8456 2.78813H9.32686V5.78813H9.96936V4.59813H10.7819V4.04063H9.96936V3.34563H10.8444V2.78813" fill="white"/>
</svg>
