<svg width="18" height="18" viewBox="0 0 18 18" fill="none" xmlns="http://www.w3.org/2000/svg">
<g clip-path="url(#clip0_4639_128787)">
<path fill-rule="evenodd" clip-rule="evenodd" d="M9 7.50012C8.17157 7.50012 7.5 8.17169 7.5 9.00012C7.5 9.82855 8.17157 10.5001 9 10.5001C9.82843 10.5001 10.5 9.82855 10.5 9.00012C10.5 8.17169 9.82843 7.50012 9 7.50012ZM6 9.00012C6 7.34327 7.34315 6.00012 9 6.00012C10.6569 6.00012 12 7.34327 12 9.00012C12 10.657 10.6569 12.0001 9 12.0001C7.34315 12.0001 6 10.657 6 9.00012Z" fill="black"/>
<path fill-rule="evenodd" clip-rule="evenodd" d="M9 1.50012C8.80109 1.50012 8.61032 1.57914 8.46967 1.71979C8.32902 1.86044 8.25 2.05121 8.25 2.25012V2.38061C8.24845 2.76822 8.1336 3.14692 7.91958 3.47008C7.70556 3.79325 7.40172 4.04679 7.04545 4.19948C6.98203 4.22666 6.91531 4.24489 6.84721 4.2538C6.52348 4.36716 6.17499 4.3951 5.83575 4.33359C5.445 4.26274 5.08444 4.07646 4.80055 3.79877L4.79464 3.79298L4.74967 3.74795C4.68002 3.67822 4.597 3.62261 4.50596 3.58486C4.41491 3.54712 4.31731 3.52769 4.21875 3.52769C4.12019 3.52769 4.02259 3.54712 3.93154 3.58486C3.8405 3.62261 3.75778 3.67792 3.68813 3.74766L3.68754 3.74825C3.6178 3.8179 3.56248 3.90062 3.52474 3.99167C3.487 4.08272 3.46757 4.18031 3.46757 4.27887C3.46757 4.37743 3.487 4.47503 3.52474 4.56608C3.56248 4.65713 3.6178 4.73984 3.68754 4.8095L3.73868 4.86064C4.01637 5.14453 4.20262 5.50513 4.27347 5.89587C4.34291 6.27884 4.29835 6.6736 4.14559 7.0312C4.00642 7.39612 3.76273 7.71213 3.44479 7.93953C3.12041 8.17154 2.73374 8.30059 2.33504 8.30992L2.3175 8.31012H2.25C2.05109 8.31012 1.86032 8.38914 1.71967 8.52979C1.57902 8.67044 1.5 8.86121 1.5 9.06012C1.5 9.25903 1.57902 9.4498 1.71967 9.59045C1.86032 9.7311 2.05109 9.81012 2.25 9.81012H2.38049C2.7681 9.81167 3.14679 9.92653 3.46996 10.1405C3.79201 10.3538 4.0449 10.6563 4.19776 11.011C4.35681 11.3733 4.40408 11.7749 4.33347 12.1644C4.26262 12.5551 4.07634 12.9157 3.79865 13.1996L3.79286 13.2055L3.74783 13.2505C3.6781 13.3201 3.62248 13.4031 3.58474 13.4942C3.547 13.5852 3.52757 13.6828 3.52757 13.7814C3.52757 13.8799 3.547 13.9775 3.58474 14.0686C3.62248 14.1596 3.6778 14.2423 3.74754 14.312L3.74813 14.3126C3.81778 14.3823 3.90049 14.4376 3.99154 14.4754C4.08259 14.5131 4.18019 14.5326 4.27875 14.5326C4.37731 14.5326 4.47491 14.5131 4.56596 14.4754C4.65701 14.4376 4.73972 14.3823 4.80937 14.3126L4.86052 14.2614C5.14441 13.9837 5.505 13.7975 5.89575 13.7267C6.27872 13.6572 6.67347 13.7018 7.03108 13.8545C7.39599 13.9937 7.712 14.2374 7.93941 14.5553C8.17142 14.8797 8.30047 15.2664 8.30979 15.6651L8.31 15.6826V15.7501C8.31 15.949 8.38902 16.1398 8.52967 16.2805C8.67032 16.4211 8.86109 16.5001 9.06 16.5001C9.25891 16.5001 9.44968 16.4211 9.59033 16.2805C9.73098 16.1398 9.81 15.949 9.81 15.7501V15.6226L9.81001 15.6196C9.81155 15.232 9.9264 14.8533 10.1404 14.5302C10.3537 14.2081 10.6562 13.9552 11.0109 13.8023C11.3733 13.6433 11.7748 13.596 12.1642 13.6667C12.555 13.7375 12.9156 13.9238 13.1994 14.2015L13.2054 14.2073L13.2503 14.2523C13.32 14.322 13.403 14.3776 13.494 14.4154C13.5851 14.4531 13.6827 14.4726 13.7812 14.4726C13.8798 14.4726 13.9774 14.4531 14.0685 14.4154C14.1595 14.3776 14.2422 14.3223 14.3119 14.2526L14.3125 14.252C14.3822 14.1823 14.4375 14.0996 14.4753 14.0086C14.513 13.9175 14.5324 13.8199 14.5324 13.7214C14.5324 13.6228 14.513 13.5252 14.4753 13.4342C14.4375 13.3431 14.3822 13.2604 14.3125 13.1907L14.2613 13.1396C13.9836 12.8557 13.7974 12.4951 13.7265 12.1044C13.6559 11.715 13.7032 11.3134 13.8622 10.951C14.0151 10.5963 14.268 10.2938 14.59 10.0805C14.9132 9.86653 15.2919 9.75167 15.6795 9.75013L15.6825 9.75012L15.75 9.75012C15.9489 9.75012 16.1397 9.6711 16.2803 9.53045C16.421 9.3898 16.5 9.19903 16.5 9.00012C16.5 8.80121 16.421 8.61045 16.2803 8.46979C16.1397 8.32914 15.9489 8.25012 15.75 8.25012H15.6225L15.6195 8.25012C15.2319 8.24857 14.8532 8.13372 14.53 7.9197C14.2069 7.70568 13.9533 7.40184 13.8006 7.04557C13.7735 6.98215 13.7552 6.91544 13.7463 6.84733C13.633 6.5236 13.605 6.17512 13.6665 5.83587C13.7374 5.44513 13.9237 5.08456 14.2014 4.80067L14.2071 4.79476L14.2522 4.74979C14.3219 4.68014 14.3775 4.59712 14.4153 4.50608C14.453 4.41503 14.4724 4.31743 14.4724 4.21887C14.4724 4.12031 14.453 4.02272 14.4153 3.93167C14.3775 3.84062 14.3222 3.7579 14.2525 3.68825L14.2519 3.68766C14.1822 3.61792 14.0995 3.56261 14.0085 3.52486C13.9174 3.48712 13.8198 3.46769 13.7213 3.46769C13.6227 3.46769 13.5251 3.48712 13.434 3.52486C13.343 3.56261 13.2603 3.61793 13.1906 3.68766L13.1395 3.7388C12.8556 4.01649 12.495 4.20274 12.1042 4.27359C11.7148 4.3442 11.3132 4.29693 10.9508 4.13788C10.5962 3.98502 10.2937 3.73213 10.0804 3.41008C9.8664 3.08692 9.75155 2.70822 9.75001 2.32061L9.75 2.31762V2.25012C9.75 2.05121 9.67098 1.86044 9.53033 1.71979C9.38968 1.57914 9.19891 1.50012 9 1.50012ZM14.55 11.2501L15.2361 11.5529C15.1968 11.6421 15.1851 11.7409 15.2025 11.8368C15.2197 11.9315 15.2645 12.0191 15.3314 12.0884L15.3725 12.1295C15.3726 12.1296 15.3724 12.1294 15.3725 12.1295C15.5816 12.3384 15.7477 12.5867 15.8609 12.8598C15.9741 13.1329 16.0324 13.4257 16.0324 13.7214C16.0324 14.0171 15.9741 14.3098 15.8609 14.583C15.7477 14.8561 15.5817 15.1043 15.3725 15.3132L14.8425 14.7826L15.3731 15.3127C15.1642 15.5219 14.916 15.6878 14.6429 15.801C14.3697 15.9143 14.0769 15.9726 13.7812 15.9726C13.4856 15.9726 13.1928 15.9143 12.9196 15.801C12.6466 15.6879 12.3986 15.522 12.1897 15.313C12.1896 15.3129 12.1898 15.3131 12.1897 15.313L12.1482 15.2715C12.079 15.2047 11.9914 15.1598 11.8966 15.1426C11.8008 15.1252 11.7019 15.1369 11.6128 15.1763L11.6055 15.1795C11.5181 15.217 11.4435 15.2791 11.391 15.3584C11.3387 15.4373 11.3106 15.5298 11.31 15.6245V15.7501C11.31 16.3469 11.0729 16.9192 10.651 17.3411C10.229 17.7631 9.65674 18.0001 9.06 18.0001C8.46326 18.0001 7.89097 17.7631 7.46901 17.3411C7.04705 16.9192 6.81 16.3469 6.81 15.7501V15.6934C6.80644 15.598 6.77495 15.5057 6.71936 15.428C6.66245 15.3484 6.58292 15.2878 6.49111 15.254C6.47628 15.2486 6.46163 15.2426 6.44718 15.2363C6.35806 15.1969 6.25921 15.1852 6.16337 15.2026C6.06856 15.2198 5.981 15.2647 5.91172 15.3316L5.87063 15.3727C5.87053 15.3728 5.87072 15.3726 5.87063 15.3727C5.66172 15.5817 5.41338 15.7479 5.14037 15.861C4.86722 15.9743 4.57444 16.0326 4.27875 16.0326C3.98306 16.0326 3.69028 15.9743 3.41713 15.861C3.14425 15.7479 2.89631 15.5822 2.68746 15.3732C2.47827 15.1643 2.31231 14.9161 2.19908 14.643C2.08585 14.3698 2.02757 14.0771 2.02757 13.7814C2.02757 13.4857 2.08585 13.1929 2.19908 12.9198C2.31231 12.6466 2.47827 12.3985 2.68746 12.1895L2.72858 12.1484C2.79546 12.0791 2.84035 11.9916 2.85754 11.8968C2.87491 11.8009 2.86318 11.7021 2.82385 11.6129L2.82061 11.6056C2.78315 11.5182 2.721 11.4437 2.64174 11.3912C2.56278 11.3389 2.47031 11.3107 2.37562 11.3101H2.25C1.65326 11.3101 1.08097 11.0731 0.65901 10.6511C0.237053 10.2292 0 9.65686 0 9.06012C0 8.46338 0.237053 7.89109 0.65901 7.46913C1.08097 7.04718 1.65326 6.81012 2.25 6.81012H2.30673C2.40213 6.80657 2.49444 6.77507 2.57216 6.71948C2.65173 6.66257 2.71233 6.58305 2.7461 6.49124C2.75155 6.47641 2.75747 6.46175 2.76385 6.4473C2.80318 6.35818 2.81491 6.25933 2.79754 6.16349C2.78035 6.06869 2.73546 5.98113 2.66857 5.91185L2.62747 5.87075C2.41827 5.66178 2.25231 5.41363 2.13908 5.14049C2.02585 4.86734 1.96757 4.57456 1.96757 4.27887C1.96757 3.98319 2.02585 3.6904 2.13908 3.41726C2.25226 3.14424 2.41811 2.89619 2.62717 2.68729C2.83607 2.47823 3.08412 2.31238 3.35713 2.1992C3.63028 2.08597 3.92307 2.02769 4.21875 2.02769C4.51443 2.02769 4.80722 2.08597 5.08037 2.1992C5.35351 2.31243 5.60166 2.47839 5.81063 2.68759L5.85173 2.72869C5.92101 2.79558 6.00857 2.84047 6.10337 2.85766C6.19921 2.87504 6.29806 2.8633 6.38718 2.82398C6.43521 2.80278 6.48519 2.78674 6.5363 2.77604C6.58859 2.74054 6.63374 2.69505 6.66896 2.64186C6.72125 2.5629 6.74941 2.47043 6.75 2.37575V2.25012C6.75 1.65338 6.98705 1.08109 7.40901 0.659132C7.83097 0.237175 8.40326 0.00012207 9 0.00012207C9.59674 0.00012207 10.169 0.237175 10.591 0.659132C11.0129 1.08109 11.25 1.65338 11.25 2.25012V2.31575C11.2506 2.41043 11.2787 2.5029 11.331 2.58186C11.3835 2.66113 11.4581 2.72331 11.5454 2.76077L11.5528 2.76394C11.642 2.80327 11.7408 2.81504 11.8366 2.79766C11.9314 2.78047 12.019 2.73559 12.0883 2.6687L12.1294 2.62759C12.3383 2.41839 12.5865 2.25243 12.8596 2.1392C13.1328 2.02597 13.4256 1.96769 13.7213 1.96769C14.0169 1.96769 14.3097 2.02597 14.5829 2.1392C14.856 2.25243 15.1042 2.41839 15.3131 2.62759C15.522 2.83643 15.6878 3.08437 15.8009 3.35726C15.9141 3.6304 15.9724 3.92319 15.9724 4.21887C15.9724 4.51456 15.9141 4.80734 15.8009 5.08049C15.6877 5.35351 15.5219 5.60155 15.3128 5.81045C15.3127 5.81055 15.3129 5.81035 15.3128 5.81045L15.2714 5.85185C15.2045 5.92113 15.1597 6.00869 15.1425 6.10349C15.1251 6.19933 15.1368 6.29819 15.1761 6.3873C15.1973 6.43533 15.2134 6.48531 15.2241 6.53642C15.2596 6.58872 15.3051 6.63386 15.3583 6.66908C15.4372 6.72137 15.5297 6.74953 15.6244 6.75012H15.75C16.3467 6.75012 16.919 6.98718 17.341 7.40913C17.7629 7.83109 18 8.40338 18 9.00012C18 9.59686 17.7629 10.1692 17.341 10.5911C16.919 11.0131 16.3467 11.2501 15.75 11.2501H15.6844C15.5897 11.2507 15.4972 11.2789 15.4183 11.3312C15.339 11.3837 15.2768 11.4582 15.2394 11.5456L14.55 11.2501Z" fill="black"/>
</g>
<defs>
<clipPath id="clip0_4639_128787">
<rect width="18" height="18" fill="white"/>
</clipPath>
</defs>
</svg>
