<svg width="18" height="18" viewBox="0 0 18 18" fill="none" xmlns="http://www.w3.org/2000/svg">
<path fill-rule="evenodd" clip-rule="evenodd" d="M8.60225 2.41475C8.82192 2.19508 9.17808 2.19508 9.39775 2.41475L12.3509 5.36788C12.5705 5.58755 12.5705 5.9437 12.3509 6.16337C12.1312 6.38304 11.775 6.38304 11.5554 6.16337L9 3.608L6.44462 6.16337C6.22495 6.38304 5.8688 6.38304 5.64913 6.16337C5.42946 5.9437 5.42946 5.58755 5.64913 5.36788L8.60225 2.41475Z" fill="white"/>
<path fill-rule="evenodd" clip-rule="evenodd" d="M9 2.25C9.31066 2.25 9.5625 2.50184 9.5625 2.8125V10.6875C9.5625 10.9982 9.31066 11.25 9 11.25C8.68934 11.25 8.4375 10.9982 8.4375 10.6875V2.8125C8.4375 2.50184 8.68934 2.25 9 2.25Z" fill="white"/>
<path fill-rule="evenodd" clip-rule="evenodd" d="M2.8125 10.125C3.12316 10.125 3.375 10.3768 3.375 10.6875V14.625H14.625V10.6875C14.625 10.3768 14.8768 10.125 15.1875 10.125C15.4982 10.125 15.75 10.3768 15.75 10.6875V14.625C15.75 14.9234 15.6315 15.2095 15.4205 15.4205C15.2095 15.6315 14.9234 15.75 14.625 15.75H3.375C3.07663 15.75 2.79048 15.6315 2.5795 15.4205C2.36853 15.2095 2.25 14.9234 2.25 14.625V10.6875C2.25 10.3768 2.50184 10.125 2.8125 10.125Z" fill="white"/>
</svg>
