<svg width="20" height="20" viewBox="0 0 20 20" fill="none" xmlns="http://www.w3.org/2000/svg">
<path fill-rule="evenodd" clip-rule="evenodd" d="M10 3.125C7.58375 3.125 5.625 5.08375 5.625 7.5C5.625 9.91625 7.58375 11.875 10 11.875C12.4162 11.875 14.375 9.91625 14.375 7.5C14.375 5.08375 12.4162 3.125 10 3.125ZM4.375 7.5C4.375 4.3934 6.8934 1.875 10 1.875C13.1066 1.875 15.625 4.3934 15.625 7.5C15.625 10.6066 13.1066 13.125 10 13.125C6.8934 13.125 4.375 10.6066 4.375 7.5Z" fill="black"/>
<path fill-rule="evenodd" clip-rule="evenodd" d="M10.0001 13.1243C8.57374 13.1243 7.17251 13.4998 5.93728 14.213C4.70205 14.9263 3.67634 15.9521 2.96327 17.1874C2.79071 17.4864 2.40848 17.5889 2.10953 17.4163C1.81058 17.2437 1.70812 16.8615 1.88068 16.5625C2.70345 15.1372 3.88696 13.9535 5.31223 13.1305C6.7375 12.3076 8.3543 11.8743 10.0001 11.8743C11.6459 11.8743 13.2627 12.3076 14.688 13.1305C16.1132 13.9535 17.2968 15.1372 18.1195 16.5625C18.2921 16.8615 18.1896 17.2437 17.8907 17.4163C17.5917 17.5889 17.2095 17.4864 17.0369 17.1874C16.3239 15.9521 15.2982 14.9263 14.0629 14.213C12.8277 13.4998 11.4265 13.1243 10.0001 13.1243Z" fill="black"/>
</svg>
