<svg width="20" height="20" viewBox="0 0 20 20" fill="none" xmlns="http://www.w3.org/2000/svg">
<path fill-rule="evenodd" clip-rule="evenodd" d="M10 5.625C10.3452 5.625 10.625 5.90482 10.625 6.25V10C10.625 10.3452 10.3452 10.625 10 10.625C9.65482 10.625 9.375 10.3452 9.375 10V6.25C9.375 5.90482 9.65482 5.625 10 5.625Z" fill="black"/>
<path fill-rule="evenodd" clip-rule="evenodd" d="M9.45874 9.68769C9.63123 9.3887 10.0134 9.28615 10.3124 9.45865L13.5624 11.3336C13.8614 11.5061 13.964 11.8884 13.7915 12.1873C13.619 12.4863 13.2368 12.5889 12.9378 12.4164L9.68778 10.5414C9.38879 10.3689 9.28625 9.98667 9.45874 9.68769Z" fill="black"/>
<path fill-rule="evenodd" clip-rule="evenodd" d="M2.48437 4.03906C2.82955 4.03906 3.10937 4.31888 3.10937 4.66406V7.16406H5.60938C5.95455 7.16406 6.23438 7.44388 6.23438 7.78906C6.23438 8.13424 5.95455 8.41406 5.60938 8.41406H2.48437C2.1392 8.41406 1.85938 8.13424 1.85938 7.78906V4.66406C1.85938 4.31888 2.1392 4.03906 2.48437 4.03906Z" fill="black"/>
<path fill-rule="evenodd" clip-rule="evenodd" d="M8.53854 2.64456C9.99356 2.35468 11.5019 2.50284 12.8727 3.07032C14.2435 3.6378 15.4152 4.59909 16.2396 5.83259C17.0639 7.06609 17.504 8.51638 17.504 10C17.504 11.4836 17.0639 12.9339 16.2396 14.1674C15.4152 15.4009 14.2435 16.3622 12.8727 16.9297C11.5019 17.4972 9.99356 17.6453 8.53854 17.3554C7.08351 17.0656 5.74715 16.3506 4.6985 15.3011C4.45452 15.057 4.45469 14.6612 4.69886 14.4173C4.94304 14.1733 5.33877 14.1734 5.58275 14.4176C6.45662 15.2922 7.57026 15.888 8.78278 16.1295C9.9953 16.3711 11.2522 16.2476 12.3946 15.7747C13.5369 15.3018 14.5133 14.5008 15.2003 13.4728C15.8873 12.4449 16.254 11.2364 16.254 10C16.254 8.76365 15.8873 7.55508 15.2003 6.52716C14.5133 5.49924 13.5369 4.69817 12.3946 4.22527C11.2522 3.75237 9.9953 3.6289 8.78278 3.87047C7.57026 4.11204 6.45662 4.7078 5.58275 5.58239L5.58192 5.58322L2.92567 8.23166C2.68123 8.47538 2.2855 8.47479 2.04178 8.23036C1.79806 7.98592 1.79865 7.59019 2.04308 7.34647L4.6985 4.69887C4.69864 4.69873 4.69878 4.69859 4.69893 4.69845C5.74751 3.64917 7.08371 2.93441 8.53854 2.64456Z" fill="black"/>
</svg>
