<svg width="54" height="54" viewBox="0 0 54 54" fill="none" xmlns="http://www.w3.org/2000/svg">
<rect x="3" y="3" width="48" height="48" rx="24" fill="#FECDCA"/>
<path fill-rule="evenodd" clip-rule="evenodd" d="M27 23.75C27.4487 23.75 27.8125 24.1138 27.8125 24.5625V28.625C27.8125 29.0737 27.4487 29.4375 27 29.4375C26.5513 29.4375 26.1875 29.0737 26.1875 28.625V24.5625C26.1875 24.1138 26.5513 23.75 27 23.75Z" fill="#F04438" stroke="#F04438" stroke-width="0.5" stroke-linecap="round" stroke-linejoin="round"/>
<path fill-rule="evenodd" clip-rule="evenodd" d="M25.7805 16.7648C26.1505 16.5502 26.5705 16.4373 26.9982 16.4373C27.4258 16.4373 27.8459 16.5502 28.2159 16.7648C28.5852 16.9789 28.8915 17.2867 29.1039 17.6571C29.1042 17.6577 29.1046 17.6583 29.1049 17.6589L38.0409 33.0938C38.2545 33.4637 38.3671 33.8832 38.3675 34.3104C38.3678 34.7375 38.256 35.1573 38.043 35.5275C37.8301 35.8978 37.5236 36.2057 37.1543 36.4202C36.7849 36.6348 36.3657 36.7485 35.9385 36.75L35.9357 36.75H18.0607L18.0578 36.75C17.6307 36.7485 17.2114 36.6348 16.8421 36.4202C16.4727 36.2057 16.1662 35.8978 15.9533 35.5275C15.7404 35.1573 15.6285 34.7375 15.6289 34.3104C15.6293 33.8832 15.7419 33.4637 15.9555 33.0938L24.8914 17.6589C24.8918 17.6583 24.8922 17.6577 24.8925 17.6571C25.1049 17.2867 25.4112 16.9789 25.7805 16.7648ZM25.5966 18.0625L26.2998 18.4696L17.3628 33.9063C17.3627 33.9064 17.3628 33.9062 17.3628 33.9063C17.2917 34.0295 17.254 34.1695 17.2539 34.3118C17.2538 34.4542 17.2911 34.5941 17.362 34.7175C17.433 34.841 17.5352 34.9436 17.6583 35.0151C17.7811 35.0864 17.9204 35.1243 18.0624 35.125H35.9339C36.0759 35.1243 36.2153 35.0864 36.3381 35.0151C36.4612 34.9436 36.5633 34.841 36.6343 34.7175C36.7053 34.5941 36.7426 34.4542 36.7425 34.3118C36.7423 34.1696 36.7049 34.0299 36.6339 33.9067C36.6338 33.9066 36.634 33.9069 36.6339 33.9067L27.6945 18.4661C27.6243 18.3434 27.523 18.2414 27.4007 18.1705C27.2784 18.0996 27.1395 18.0623 26.9982 18.0623C26.8568 18.0623 26.718 18.0996 26.5957 18.1705C26.4734 18.2414 26.372 18.3434 26.3018 18.4661L25.5966 18.0625Z" fill="#F04438"/>
<path d="M17.3628 33.9063L26.2998 18.4696L25.5966 18.0625L26.3018 18.4661C26.372 18.3434 26.4734 18.2414 26.5957 18.1705C26.718 18.0996 26.8568 18.0623 26.9982 18.0623C27.1395 18.0623 27.2784 18.0996 27.4007 18.1705C27.523 18.2414 27.6243 18.3434 27.6945 18.4661L36.6339 33.9067M17.3628 33.9063C17.3628 33.9062 17.3627 33.9064 17.3628 33.9063ZM17.3628 33.9063C17.2917 34.0295 17.254 34.1695 17.2539 34.3118C17.2538 34.4542 17.2911 34.5941 17.362 34.7175C17.433 34.841 17.5352 34.9436 17.6583 35.0151C17.7811 35.0864 17.9204 35.1243 18.0624 35.125H35.9339C36.0759 35.1243 36.2153 35.0864 36.3381 35.0151C36.4612 34.9436 36.5633 34.841 36.6343 34.7175C36.7053 34.5941 36.7426 34.4542 36.7425 34.3118C36.7423 34.1696 36.7049 34.0299 36.6339 33.9067M36.6339 33.9067C36.634 33.9069 36.6338 33.9066 36.6339 33.9067ZM26.9982 16.4373C26.5705 16.4373 26.1505 16.5502 25.7805 16.7648C25.4112 16.9789 25.1049 17.2867 24.8925 17.6571C24.8922 17.6577 24.8918 17.6583 24.8914 17.6589L15.9555 33.0938C15.7419 33.4637 15.6293 33.8832 15.6289 34.3104C15.6285 34.7375 15.7404 35.1573 15.9533 35.5275C16.1662 35.8978 16.4727 36.2057 16.8421 36.4202C17.2114 36.6348 17.6307 36.7485 18.0578 36.75L18.0607 36.75H35.9357L35.9385 36.75C36.3657 36.7485 36.7849 36.6348 37.1543 36.4202C37.5236 36.2057 37.8301 35.8978 38.043 35.5275C38.256 35.1573 38.3678 34.7375 38.3675 34.3104C38.3671 33.8832 38.2545 33.4637 38.0409 33.0938L29.1049 17.6589C29.1046 17.6583 29.1042 17.6577 29.1039 17.6571C28.8915 17.2867 28.5852 16.9789 28.2159 16.7648C27.8459 16.5502 27.4258 16.4373 26.9982 16.4373Z" stroke="#F04438" stroke-width="0.5" stroke-linecap="round" stroke-linejoin="round"/>
<path d="M27.9688 32.2812C27.9688 32.8163 27.535 33.25 27 33.25C26.465 33.25 26.0312 32.8163 26.0312 32.2812C26.0312 31.7462 26.465 31.3125 27 31.3125C27.535 31.3125 27.9688 31.7462 27.9688 32.2812Z" fill="#F04438" stroke="#F04438" stroke-width="0.5"/>
<rect x="3" y="3" width="48" height="48" rx="24" stroke="#FEF3F2" stroke-width="6"/>
</svg>
