<svg width="18" height="18" viewBox="0 0 18 18" fill="none" xmlns="http://www.w3.org/2000/svg">
<path fill-rule="evenodd" clip-rule="evenodd" d="M2.25 2.8125C2.56066 2.8125 2.8125 3.06434 2.8125 3.375V14.0625H15.75C16.0607 14.0625 16.3125 14.3143 16.3125 14.625C16.3125 14.9357 16.0607 15.1875 15.75 15.1875H2.25C1.93934 15.1875 1.6875 14.9357 1.6875 14.625V3.375C1.6875 3.06434 1.93934 2.8125 2.25 2.8125Z" fill="white"/>
<path fill-rule="evenodd" clip-rule="evenodd" d="M16.1733 6.3796C16.3779 6.61339 16.3542 6.96876 16.1204 7.17333L11.6204 11.1108C11.4204 11.2859 11.1251 11.297 10.9125 11.1375L6.77727 8.03608L2.62042 11.6733C2.38662 11.8779 2.03125 11.8542 1.82668 11.6204C1.62211 11.3866 1.6458 11.0313 1.8796 10.8267L6.3796 6.88918C6.57963 6.71416 6.87487 6.70303 7.08751 6.86251L11.2227 9.96393L15.3796 6.32668C15.6134 6.12211 15.9688 6.1458 16.1733 6.3796Z" fill="white"/>
</svg>
