   <svg width="18" height="18"
                                        viewBox="0
                                                                                                                                                                                0
                                                                                                                                                                                18
                                                                                                                                                                                18"
                                        fill="none" xmlns="http://www.w3.org/2000/svg">
                                        <path fill-rule="evenodd" clip-rule="evenodd"
                                            d="M4.75259
                                                                                                                                                                                    4.45005C5.04553
                                                                                                                                                                                    4.7429
                                                                                                                                                                                    5.04561
                                                                                                                                                                                    5.21777
                                                                                                                                                                                    4.75276
                                                                                                                                                                                    5.51071C3.91384
                                                                                                                                                                                    6.34991
                                                                                                                                                                                    3.34259
                                                                                                                                                                                    7.41901
                                                                                                                                                                                    3.11124
                                                                                                                                                                                    8.58284C2.87989
                                                                                                                                                                                    9.74667
                                                                                                                                                                                    2.99882
                                                                                                                                                                                    10.953
                                                                                                                                                                                    3.45301
                                                                                                                                                                                    12.0492C3.90719
                                                                                                                                                                                    13.1455
                                                                                                                                                                                    4.67623
                                                                                                                                                                                    14.0824
                                                                                                                                                                                    5.66288
                                                                                                                                                                                    14.7416C6.64953
                                                                                                                                                                                    15.4008
                                                                                                                                                                                    7.80949
                                                                                                                                                                                    15.7527
                                                                                                                                                                                    8.9961
                                                                                                                                                                                    15.7527C10.1827
                                                                                                                                                                                    15.7527
                                                                                                                                                                                    11.3427
                                                                                                                                                                                    15.4008
                                                                                                                                                                                    12.3293
                                                                                                                                                                                    14.7416C13.316
                                                                                                                                                                                    14.0824
                                                                                                                                                                                    14.085
                                                                                                                                                                                    13.1455
                                                                                                                                                                                    14.5392
                                                                                                                                                                                    12.0492C14.9934
                                                                                                                                                                                    10.953
                                                                                                                                                                                    15.1123
                                                                                                                                                                                    9.74667
                                                                                                                                                                                    14.881
                                                                                                                                                                                    8.58284C14.6496
                                                                                                                                                                                    7.41901
                                                                                                                                                                                    14.0784
                                                                                                                                                                                    6.34991
                                                                                                                                                                                    13.2394
                                                                                                                                                                                    5.51071C12.9466
                                                                                                                                                                                    5.21777
                                                                                                                                                                                    12.9467
                                                                                                                                                                                    4.7429
                                                                                                                                                                                    13.2396
                                                                                                                                                                                    4.45005C13.5325
                                                                                                                                                                                    4.15721
                                                                                                                                                                                    14.0074
                                                                                                                                                                                    4.15728
                                                                                                                                                                                    14.3003
                                                                                                                                                                                    4.45023C15.3489
                                                                                                                                                                                    5.49922
                                                                                                                                                                                    16.063
                                                                                                                                                                                    6.83559
                                                                                                                                                                                    16.3522
                                                                                                                                                                                    8.29038C16.6414
                                                                                                                                                                                    9.74517
                                                                                                                                                                                    16.4927
                                                                                                                                                                                    11.253
                                                                                                                                                                                    15.925
                                                                                                                                                                                    12.6234C15.3572
                                                                                                                                                                                    13.9937
                                                                                                                                                                                    14.3959
                                                                                                                                                                                    15.1649
                                                                                                                                                                                    13.1626
                                                                                                                                                                                    15.9889C11.9293
                                                                                                                                                                                    16.8129
                                                                                                                                                                                    10.4794
                                                                                                                                                                                    17.2527
                                                                                                                                                                                    8.9961
                                                                                                                                                                                    17.2527C7.51284
                                                                                                                                                                                    17.2527
                                                                                                                                                                                    6.06289
                                                                                                                                                                                    16.8129
                                                                                                                                                                                    4.82958
                                                                                                                                                                                    15.9889C3.59626
                                                                                                                                                                                    15.1649
                                                                                                                                                                                    2.63496
                                                                                                                                                                                    13.9937
                                                                                                                                                                                    2.06723
                                                                                                                                                                                    12.6234C1.49951
                                                                                                                                                                                    11.253
                                                                                                                                                                                    1.35084
                                                                                                                                                                                    9.74517
                                                                                                                                                                                    1.64003
                                                                                                                                                                                    8.29038C1.92922
                                                                                                                                                                                    6.83559
                                                                                                                                                                                    2.64328
                                                                                                                                                                                    5.49922
                                                                                                                                                                                    3.69193
                                                                                                                                                                                    4.45023C3.98478
                                                                                                                                                                                    4.15728
                                                                                                                                                                                    4.45965
                                                                                                                                                                                    4.15721
                                                                                                                                                                                    4.75259
                                                                                                                                                                                    4.45005Z"
                                            fill="black" />
                                        <path fill-rule="evenodd" clip-rule="evenodd"
                                            d="M9
                                                                                                                                                                                        0.75C9.41421
                                                                                                                                                                                        0.75
                                                                                                                                                                                        9.75
                                                                                                                                                                                        1.08579
                                                                                                                                                                                        9.75
                                                                                                                                                                                        1.5V9C9.75
                                                                                                                                                                                        9.41421
                                                                                                                                                                                        9.41421
                                                                                                                                                                                        9.75
                                                                                                                                                                                        9
                                                                                                                                                                                        9.75C8.58579
                                                                                                                                                                                        9.75
                                                                                                                                                                                        8.25
                                                                                                                                                                                        9.41421
                                                                                                                                                                                        8.25
                                                                                                                                                                                        9V1.5C8.25
                                                                                                                                                                                        1.08579
                                                                                                                                                                                        8.58579
                                                                                                                                                                                        0.75
                                                                                                                                                                                        9
                                                                                                                                                                                        0.75Z"
                                            fill="black" />
                                    </svg>