<svg width="20" height="20" viewBox="0 0 20 20" fill="none" xmlns="http://www.w3.org/2000/svg">
<path d="M18 18H2V2H18V18Z" fill="#E40046"/>
<path d="M14.7858 14.9774C14.7446 14.9933 14.7007 15.0009 14.6565 14.9999C14.6123 14.9989 14.5688 14.9893 14.5284 14.9717C14.488 14.954 14.4515 14.9287 14.421 14.897C14.3905 14.8654 14.3666 14.8281 14.3507 14.7874L10.7906 6.20232L9.19756 9.9924H10.2427C10.3319 9.99419 10.4167 10.031 10.4785 10.0946C10.5403 10.1583 10.574 10.2436 10.5722 10.3319C10.5704 10.4201 10.5332 10.504 10.4689 10.5652C10.4045 10.6263 10.3182 10.6596 10.229 10.6578H6.32963C6.24041 10.656 6.15556 10.6193 6.09376 10.5556C6.03196 10.4919 5.99826 10.4066 6.00007 10.3183C6.00188 10.2301 6.03907 10.1462 6.10344 10.0851C6.16781 10.0239 6.25409 9.9906 6.34331 9.9924H8.46832V9.98507L10.4827 5.20475C10.5079 5.14518 10.55 5.09413 10.604 5.05779C10.6579 5.02145 10.7214 5.00139 10.7866 5.00005C10.8544 4.99894 10.9209 5.01803 10.9776 5.05484C11.0342 5.09165 11.0783 5.14448 11.1042 5.20644L14.9728 14.537L14.9779 14.5488C15.0096 14.6309 15.0071 14.722 14.9711 14.8023C14.9351 14.8826 14.8685 14.9455 14.7858 14.9774Z" fill="white"/>
<path d="M8.71319 12.0001H5.30054C5.26187 11.9993 5.22342 12.006 5.18739 12.02C5.15136 12.0339 5.11845 12.0547 5.09055 12.0812C5.06265 12.1077 5.0403 12.1394 5.02477 12.1745C5.00924 12.2095 5.00085 12.2473 5.00006 12.2855C4.99927 12.3238 5.00611 12.3618 5.02019 12.3975C5.03426 12.4331 5.05529 12.4657 5.08208 12.4933C5.13619 12.5491 5.21046 12.5813 5.28857 12.5829H6.9582L6.11415 14.594C6.08344 14.6651 6.08251 14.7453 6.11158 14.817C6.14064 14.8888 6.19732 14.9461 6.26913 14.9765C6.34095 15.0069 6.42202 15.0078 6.49452 14.9791C6.56702 14.9503 6.62501 14.8942 6.65572 14.8232V14.8177L7.59161 12.5908L7.59411 12.5829H8.69971C8.77781 12.5844 8.85332 12.5551 8.90963 12.5015C8.96593 12.4479 8.99842 12.3744 8.99994 12.2971C9.00147 12.2199 8.9719 12.1451 8.91775 12.0894C8.8636 12.0337 8.78929 12.0016 8.71119 12.0001H8.71319Z" fill="white"/>
</svg>
