<svg width="20" height="20" viewBox="0 0 20 20" fill="none" xmlns="http://www.w3.org/2000/svg">
<path fill-rule="evenodd" clip-rule="evenodd" d="M4.16602 3.33268C3.70578 3.33268 3.33268 3.70578 3.33268 4.16602V15.8327C3.33268 16.2929 3.70578 16.666 4.16602 16.666H15.8327C16.2929 16.666 16.666 16.2929 16.666 15.8327V4.16602C16.666 3.70578 16.2929 3.33268 15.8327 3.33268H4.16602ZM1.66602 4.16602C1.66602 2.7853 2.7853 1.66602 4.16602 1.66602H15.8327C17.2134 1.66602 18.3327 2.7853 18.3327 4.16602V15.8327C18.3327 17.2134 17.2134 18.3327 15.8327 18.3327H4.16602C2.7853 18.3327 1.66602 17.2134 1.66602 15.8327V4.16602Z" fill="white"/>
<path fill-rule="evenodd" clip-rule="evenodd" d="M9.99935 5.83398C10.4596 5.83398 10.8327 6.20708 10.8327 6.66732V13.334C10.8327 13.7942 10.4596 14.1673 9.99935 14.1673C9.53911 14.1673 9.16602 13.7942 9.16602 13.334V6.66732C9.16602 6.20708 9.53911 5.83398 9.99935 5.83398Z" fill="white"/>
<path fill-rule="evenodd" clip-rule="evenodd" d="M5.83398 9.99935C5.83398 9.53911 6.20708 9.16602 6.66732 9.16602H13.334C13.7942 9.16602 14.1673 9.53911 14.1673 9.99935C14.1673 10.4596 13.7942 10.8327 13.334 10.8327H6.66732C6.20708 10.8327 5.83398 10.4596 5.83398 9.99935Z" fill="white"/>
</svg>
