<svg width="18" height="18" viewBox="0 0 18 18" fill="none" xmlns="http://www.w3.org/2000/svg">
<path fill-rule="evenodd" clip-rule="evenodd" d="M9 2.8125C5.58274 2.8125 2.8125 5.58274 2.8125 9C2.8125 12.4173 5.58274 15.1875 9 15.1875C12.4173 15.1875 15.1875 12.4173 15.1875 9C15.1875 5.58274 12.4173 2.8125 9 2.8125ZM1.6875 9C1.6875 4.96142 4.96142 1.6875 9 1.6875C13.0386 1.6875 16.3125 4.96142 16.3125 9C16.3125 13.0386 13.0386 16.3125 9 16.3125C4.96142 16.3125 1.6875 13.0386 1.6875 9Z" fill="#5F5F5F"/>
<path fill-rule="evenodd" clip-rule="evenodd" d="M5.625 9C5.625 8.68934 5.87684 8.4375 6.1875 8.4375H11.8125C12.1232 8.4375 12.375 8.68934 12.375 9C12.375 9.31066 12.1232 9.5625 11.8125 9.5625H6.1875C5.87684 9.5625 5.625 9.31066 5.625 9Z" fill="#5F5F5F"/>
<path fill-rule="evenodd" clip-rule="evenodd" d="M9 5.625C9.31066 5.625 9.5625 5.87684 9.5625 6.1875V11.8125C9.5625 12.1232 9.31066 12.375 9 12.375C8.68934 12.375 8.4375 12.1232 8.4375 11.8125V6.1875C8.4375 5.87684 8.68934 5.625 9 5.625Z" fill="#5F5F5F"/>
</svg>
