<svg width="20" height="20" viewBox="0 0 20 20" fill="none" xmlns="http://www.w3.org/2000/svg">
<path fill-rule="evenodd" clip-rule="evenodd" d="M4.1665 3.33268C3.70627 3.33268 3.33317 3.70578 3.33317 4.16602V15.8327C3.33317 16.2929 3.70627 16.666 4.1665 16.666H15.8332C16.2934 16.666 16.6665 16.2929 16.6665 15.8327V4.16602C16.6665 3.70578 16.2934 3.33268 15.8332 3.33268H4.1665ZM1.6665 4.16602C1.6665 2.7853 2.78579 1.66602 4.1665 1.66602H15.8332C17.2139 1.66602 18.3332 2.7853 18.3332 4.16602V15.8327C18.3332 17.2134 17.2139 18.3327 15.8332 18.3327H4.1665C2.78579 18.3327 1.6665 17.2134 1.6665 15.8327V4.16602Z" fill="white"/>
<path fill-rule="evenodd" clip-rule="evenodd" d="M9.99984 5.83398C10.4601 5.83398 10.8332 6.20708 10.8332 6.66732V13.334C10.8332 13.7942 10.4601 14.1673 9.99984 14.1673C9.5396 14.1673 9.1665 13.7942 9.1665 13.334V6.66732C9.1665 6.20708 9.5396 5.83398 9.99984 5.83398Z" fill="white"/>
<path fill-rule="evenodd" clip-rule="evenodd" d="M5.8335 9.99935C5.8335 9.53911 6.20659 9.16602 6.66683 9.16602H13.3335C13.7937 9.16602 14.1668 9.53911 14.1668 9.99935C14.1668 10.4596 13.7937 10.8327 13.3335 10.8327H6.66683C6.20659 10.8327 5.8335 10.4596 5.8335 9.99935Z" fill="white"/>
</svg>
