<svg width="24" height="25" viewBox="0 0 24 25" fill="none" xmlns="http://www.w3.org/2000/svg">
<path fill-rule="evenodd" clip-rule="evenodd" d="M12 4.25C7.44365 4.25 3.75 7.94365 3.75 12.5C3.75 17.0563 7.44365 20.75 12 20.75C16.5563 20.75 20.25 17.0563 20.25 12.5C20.25 7.94365 16.5563 4.25 12 4.25ZM2.25 12.5C2.25 7.11522 6.61522 2.75 12 2.75C17.3848 2.75 21.75 7.11522 21.75 12.5C21.75 17.8848 17.3848 22.25 12 22.25C6.61522 22.25 2.25 17.8848 2.25 12.5Z" fill="#095AA5"/>
<path fill-rule="evenodd" clip-rule="evenodd" d="M7.5 12.5C7.5 12.0858 7.83579 11.75 8.25 11.75H15.75C16.1642 11.75 16.5 12.0858 16.5 12.5C16.5 12.9142 16.1642 13.25 15.75 13.25H8.25C7.83579 13.25 7.5 12.9142 7.5 12.5Z" fill="#095AA5"/>
<path fill-rule="evenodd" clip-rule="evenodd" d="M12 8C12.4142 8 12.75 8.33579 12.75 8.75V16.25C12.75 16.6642 12.4142 17 12 17C11.5858 17 11.25 16.6642 11.25 16.25V8.75C11.25 8.33579 11.5858 8 12 8Z" fill="#095AA5"/>
</svg>
