<svg width="89" height="31" viewBox="0 0 89 31" fill="none" xmlns="http://www.w3.org/2000/svg">
<path d="M3.12 9.38C2.17333 9.38 1.7 10.26 1.7 12.02V12.16C1.7 12.3333 1.66 12.42 1.58 12.42C1.38 12.42 1.22667 12.18 1.12 11.7C1.02667 11.22 0.98 10.8133 0.98 10.48C0.98 9.93333 1.1 9.44667 1.34 9.02C1.59333 8.59333 1.98 8.38 2.5 8.38C3.52667 8.38 4.51333 8.98 5.46 10.18C6.26 9.24667 7.11333 8.30667 8.02 7.36C8.94 6.4 9.65333 5.68 10.16 5.2L10.92 4.46C11.7467 3.22 12.4267 2.6 12.96 2.6C13.0933 2.6 13.16 2.66 13.16 2.78C13.16 2.86 13.1333 2.95333 13.08 3.06C11.9067 5.36667 10.8333 7.96667 9.86 10.86C8.63333 14.54 8.02 17.36 8.02 19.32C8.02 19.9333 8.09333 20.38 8.24 20.66C8.29333 20.7267 8.32 20.7933 8.32 20.86C8.32 20.9533 8.24 21 8.08 21C7.72 21 7.42 20.9067 7.18 20.72C6.94 20.5467 6.76667 20.3133 6.66 20.02C6.56667 19.7267 6.5 19.46 6.46 19.22C6.42 18.9933 6.4 18.76 6.4 18.52C6.4 18.12 6.47333 17.5267 6.62 16.74C6.76667 15.9533 6.84 15.38 6.84 15.02C6.84 14.4867 6.72 13.86 6.48 13.14C6.25333 12.4067 5.94667 11.74 5.56 11.14C5.13333 11.7267 4.74 12.3133 4.38 12.9C4.03333 13.4867 3.78667 13.92 3.64 14.2L3.44 14.64C2.96 15.6267 2.48667 16.5267 2.02 17.34C1.55333 18.1533 1.20667 18.72 0.98 19.04L0.64 19.5C0.493333 19.6733 0.36 19.76 0.24 19.76C0.0933333 19.76 0.02 19.6067 0.02 19.3C0.06 17.42 1.76667 14.5067 5.14 10.56C4.48667 9.77333 3.81333 9.38 3.12 9.38ZM9.98 6.24C8.51333 7.52 7.14 9.02 5.86 10.74C6.42 11.5933 6.85333 12.5667 7.16 13.66C7.2 13.78 7.23333 13.84 7.26 13.84L7.36 13.66C7.69333 12.5267 8.09333 11.3533 8.56 10.14C9.04 8.91333 9.43333 7.97333 9.74 7.32L10.2 6.36C10.24 6.28 10.26 6.22667 10.26 6.2C10.26 6.17333 10.24 6.16 10.2 6.16L9.98 6.24ZM20.323 15.98C20.883 15.42 21.623 14.6133 22.543 13.56C22.583 13.52 22.6163 13.5 22.643 13.5C22.6696 13.5 22.683 13.5267 22.683 13.58C22.683 13.8333 22.583 14.08 22.383 14.32C21.3963 15.4133 20.523 16.3267 19.763 17.06C18.1896 18.5267 17.1563 19.26 16.663 19.26C16.4496 19.26 16.343 19.1333 16.343 18.88C16.343 18.6267 16.4763 18.2067 16.743 17.62C17.023 17.0333 17.2963 16.5 17.563 16.02C17.843 15.54 18.1896 14.9533 18.603 14.26C19.0296 13.5667 19.2563 13.1933 19.283 13.14C19.523 12.7533 19.643 12.5067 19.643 12.4C19.643 12.3333 19.6096 12.3 19.543 12.3L19.263 12.4C18.6496 12.84 17.9163 13.5267 17.063 14.46C16.2096 15.38 15.5096 16.1867 14.963 16.88L14.143 17.94C13.5296 18.82 12.9296 19.26 12.343 19.26C12.1696 19.26 12.083 19.2067 12.083 19.1C12.083 18.98 12.2096 18.6667 12.463 18.16C12.7163 17.64 12.9696 17.1533 13.223 16.7L13.603 16.02C13.6963 15.8333 13.923 15.4333 14.283 14.82C14.6563 14.1933 14.963 13.66 15.203 13.22C15.4563 12.7667 15.583 12.4867 15.583 12.38C15.583 12.3133 15.5563 12.28 15.503 12.28L15.223 12.4C14.5963 12.84 13.8563 13.5267 13.003 14.46C12.1496 15.38 11.4563 16.1867 10.923 16.88L10.103 17.94C9.4763 18.8067 8.8763 19.24 8.30297 19.24C8.12964 19.24 8.04297 19.1933 8.04297 19.1C8.04297 18.98 8.16964 18.6667 8.42297 18.16C8.6763 17.64 8.92964 17.1533 9.18297 16.7L9.56297 16.02L11.503 12.58C11.823 11.98 12.2096 11.4467 12.663 10.98C13.1163 10.5 13.5896 10.26 14.083 10.26C14.1896 10.26 14.243 10.3067 14.243 10.4C14.243 10.48 14.163 10.6533 14.003 10.92C13.8563 11.1733 13.6363 11.5333 13.343 12C13.063 12.4533 12.823 12.8733 12.623 13.26C12.503 13.4867 12.3563 13.7467 12.183 14.04C12.023 14.32 11.8896 14.56 11.783 14.76C11.6763 14.9467 11.603 15.08 11.563 15.16C11.523 15.24 11.503 15.3 11.503 15.34C11.503 15.3667 11.5163 15.38 11.543 15.38C11.583 15.38 11.6496 15.3333 11.743 15.24C11.9963 14.9467 12.323 14.58 12.723 14.14C13.1363 13.7 13.8296 13.04 14.803 12.16C15.7763 11.2667 16.5763 10.6667 17.203 10.36C17.3363 10.2933 17.4696 10.26 17.603 10.26C17.7896 10.26 17.883 10.3533 17.883 10.54C17.883 10.8867 17.4896 11.7867 16.703 13.24C16.6363 13.36 16.4963 13.5933 16.283 13.94C16.083 14.2867 15.9096 14.5867 15.763 14.84C15.6296 15.0933 15.563 15.2533 15.563 15.32C15.563 15.36 15.5763 15.38 15.603 15.38C15.643 15.38 15.7096 15.3333 15.803 15.24C16.0563 14.9467 16.383 14.58 16.783 14.14C17.1963 13.7 17.883 13.04 18.843 12.16C19.8163 11.2667 20.6163 10.6667 21.243 10.36C21.403 10.2933 21.543 10.26 21.663 10.26C21.863 10.26 21.963 10.3533 21.963 10.54C21.963 10.5933 21.9363 10.7133 21.883 10.9C21.8296 11.0733 21.6763 11.44 21.423 12C21.1696 12.5467 20.8363 13.1533 20.423 13.82C19.4096 15.38 18.903 16.36 18.903 16.76C18.903 16.88 18.943 16.94 19.023 16.94C19.2496 16.94 19.683 16.62 20.323 15.98ZM31.9245 15.98C32.4845 15.42 33.2245 14.6133 34.1445 13.56C34.1845 13.52 34.2179 13.5 34.2445 13.5C34.2712 13.5 34.2845 13.5267 34.2845 13.58C34.2845 13.8333 34.1845 14.08 33.9845 14.32C32.9979 15.4133 32.1245 16.3267 31.3645 17.06C29.7912 18.5267 28.7579 19.26 28.2645 19.26C28.0512 19.26 27.9445 19.1333 27.9445 18.88C27.9445 18.6267 28.0779 18.2067 28.3445 17.62C28.6245 17.0333 28.8979 16.5 29.1645 16.02C29.4445 15.54 29.7912 14.9533 30.2045 14.26C30.6312 13.5667 30.8579 13.1933 30.8845 13.14C31.1245 12.7533 31.2445 12.5067 31.2445 12.4C31.2445 12.3333 31.2112 12.3 31.1445 12.3L30.8645 12.4C30.2512 12.84 29.5179 13.5267 28.6645 14.46C27.8112 15.38 27.1112 16.1867 26.5645 16.88L25.7445 17.94C25.1312 18.82 24.5312 19.26 23.9445 19.26C23.7712 19.26 23.6845 19.2067 23.6845 19.1C23.6845 18.98 23.8112 18.6667 24.0645 18.16C24.3179 17.64 24.5712 17.1533 24.8245 16.7L25.2045 16.02C25.2979 15.8333 25.5245 15.4333 25.8845 14.82C26.2579 14.1933 26.5645 13.66 26.8045 13.22C27.0579 12.7667 27.1845 12.4867 27.1845 12.38C27.1845 12.3133 27.1579 12.28 27.1045 12.28L26.8245 12.4C26.1979 12.84 25.4579 13.5267 24.6045 14.46C23.7512 15.38 23.0579 16.1867 22.5245 16.88L21.7045 17.94C21.0779 18.8067 20.4779 19.24 19.9045 19.24C19.7312 19.24 19.6445 19.1933 19.6445 19.1C19.6445 18.98 19.7712 18.6667 20.0245 18.16C20.2779 17.64 20.5312 17.1533 20.7845 16.7L21.1645 16.02L23.1045 12.58C23.4245 11.98 23.8112 11.4467 24.2645 10.98C24.7179 10.5 25.1912 10.26 25.6845 10.26C25.7912 10.26 25.8445 10.3067 25.8445 10.4C25.8445 10.48 25.7645 10.6533 25.6045 10.92C25.4579 11.1733 25.2379 11.5333 24.9445 12C24.6645 12.4533 24.4245 12.8733 24.2245 13.26C24.1045 13.4867 23.9579 13.7467 23.7845 14.04C23.6245 14.32 23.4912 14.56 23.3845 14.76C23.2779 14.9467 23.2045 15.08 23.1645 15.16C23.1245 15.24 23.1045 15.3 23.1045 15.34C23.1045 15.3667 23.1179 15.38 23.1445 15.38C23.1845 15.38 23.2512 15.3333 23.3445 15.24C23.5979 14.9467 23.9245 14.58 24.3245 14.14C24.7379 13.7 25.4312 13.04 26.4045 12.16C27.3779 11.2667 28.1779 10.6667 28.8045 10.36C28.9379 10.2933 29.0712 10.26 29.2045 10.26C29.3912 10.26 29.4845 10.3533 29.4845 10.54C29.4845 10.8867 29.0912 11.7867 28.3045 13.24C28.2379 13.36 28.0979 13.5933 27.8845 13.94C27.6845 14.2867 27.5112 14.5867 27.3645 14.84C27.2312 15.0933 27.1645 15.2533 27.1645 15.32C27.1645 15.36 27.1779 15.38 27.2045 15.38C27.2445 15.38 27.3112 15.3333 27.4045 15.24C27.6579 14.9467 27.9845 14.58 28.3845 14.14C28.7979 13.7 29.4845 13.04 30.4445 12.16C31.4179 11.2667 32.2179 10.6667 32.8445 10.36C33.0045 10.2933 33.1445 10.26 33.2645 10.26C33.4645 10.26 33.5645 10.3533 33.5645 10.54C33.5645 10.5933 33.5379 10.7133 33.4845 10.9C33.4312 11.0733 33.2779 11.44 33.0245 12C32.7712 12.5467 32.4379 13.1533 32.0245 13.82C31.0112 15.38 30.5045 16.36 30.5045 16.76C30.5045 16.88 30.5445 16.94 30.6245 16.94C30.8512 16.94 31.2845 16.62 31.9245 15.98ZM36.5461 16.16L37.3861 14.52C37.3861 14.48 37.3728 14.46 37.3461 14.46C37.3194 14.46 37.2861 14.48 37.2461 14.52C36.7528 15.0933 36.2328 15.66 35.6861 16.22C35.1394 16.7667 34.7194 17.1733 34.4261 17.44L33.9861 17.84C32.9861 18.7867 32.2794 19.26 31.8661 19.26C31.6794 19.26 31.5861 19.14 31.5861 18.9C31.5861 18.6333 31.6928 18.2333 31.9061 17.7C32.1194 17.1533 32.3328 16.68 32.5461 16.28L32.8661 15.66C33.9861 13.5667 34.8128 12.1667 35.3461 11.46C35.6128 11.1133 35.9394 10.8267 36.3261 10.6C36.7128 10.36 37.0128 10.24 37.2261 10.24C37.3594 10.24 37.4261 10.2867 37.4261 10.38C37.4261 10.4333 37.3994 10.5067 37.3461 10.6C37.3194 10.6533 37.0461 11.1 36.5261 11.94C36.0061 12.7667 35.5861 13.48 35.2661 14.08C34.3861 15.6933 33.9461 16.62 33.9461 16.86C33.9461 16.9533 33.9861 17 34.0661 17C34.1861 17 34.3928 16.88 34.6861 16.64C35.5528 15.8933 36.5061 14.8867 37.5461 13.62C38.1194 13.0067 38.7194 12.2067 39.3461 11.22C39.5194 10.9533 39.7728 10.7267 40.1061 10.54C40.4528 10.34 40.7661 10.24 41.0461 10.24C41.1661 10.24 41.2261 10.2933 41.2261 10.4L41.0661 10.78C40.8794 11.1133 40.4594 11.8467 39.8061 12.98C39.1661 14.1 38.8061 14.7333 38.7261 14.88C38.6194 15.08 38.3728 15.5133 37.9861 16.18C37.6128 16.8333 37.3461 17.3 37.1861 17.58C38.0261 16.9 38.7194 16.3133 39.2661 15.82C39.8528 15.2067 40.5394 14.4533 41.3261 13.56C41.3661 13.52 41.3994 13.5 41.4261 13.5C41.4528 13.5 41.4661 13.5267 41.4661 13.58C41.4661 13.8333 41.3661 14.08 41.1661 14.32C40.5794 14.96 40.0728 15.5067 39.6461 15.96C39.0861 16.5467 38.0861 17.4 36.6461 18.52L36.1261 19.48C33.5528 24.2133 31.7794 27.2933 30.8061 28.72C30.7128 28.8667 30.5928 29.04 30.4461 29.24C30.2994 29.4533 30.0594 29.7333 29.7261 30.08C29.3928 30.44 29.1261 30.62 28.9261 30.62C28.6061 30.62 28.4461 30.16 28.4461 29.24C28.4461 27.88 28.9328 26.4 29.9061 24.8C30.9594 23.08 32.5861 21.3133 34.7861 19.5C35.2261 18.7 35.8128 17.5867 36.5461 16.16ZM30.4061 24.76C30.2994 24.92 30.1728 25.1267 30.0261 25.38C29.8794 25.6467 29.6794 26.0933 29.4261 26.72C29.1728 27.36 29.0461 27.8933 29.0461 28.32C29.0461 28.5467 29.0861 28.66 29.1661 28.66C29.2328 28.66 29.3328 28.5933 29.4661 28.46C29.5994 28.34 29.7128 28.2133 29.8061 28.08L29.9461 27.88C31.2661 25.8133 32.6994 23.3467 34.2461 20.48C32.5128 22 31.2328 23.4267 30.4061 24.76ZM50.6073 12.02C50.6207 11.9933 50.6273 11.9533 50.6273 11.9C50.6273 11.86 50.6073 11.84 50.5673 11.84L50.3873 11.92C49.134 13.48 48.454 14.3267 48.3473 14.46C47.494 15.4867 46.674 16.4267 45.8873 17.28C45.1007 18.12 44.5273 18.7067 44.1673 19.04L43.6273 19.56C43.4673 19.6667 43.3407 19.72 43.2473 19.72C43.114 19.72 43.0473 19.5933 43.0473 19.34C43.1407 18.2067 43.4807 16.5133 44.0673 14.26C44.494 12.6733 44.994 11.1067 45.5673 9.56C46.1407 8 46.614 6.84 46.9873 6.08L47.5273 4.92C47.7273 4.53333 47.9673 4.23333 48.2473 4.02C48.5407 3.79333 48.774 3.66667 48.9473 3.64L49.2273 3.6C49.374 3.6 49.4473 3.66 49.4473 3.78C49.4473 3.84667 49.4207 3.94667 49.3673 4.08C48.7673 5.38667 47.974 7.56667 46.9873 10.62C46.0007 13.66 45.5073 15.56 45.5073 16.32C45.5073 16.5067 45.554 16.6 45.6473 16.6C45.714 16.6 45.8073 16.54 45.9273 16.42C47.5007 14.6733 49.0473 12.78 50.5673 10.74C50.7673 10.4733 50.9673 10.16 51.1673 9.8C51.3673 9.44 51.5207 9.14667 51.6273 8.92L51.7873 8.58C52.0407 7.91333 52.3007 7.27333 52.5673 6.66C52.834 6.04667 53.034 5.6 53.1673 5.32L53.3673 4.92C53.5673 4.53333 53.8073 4.23333 54.0873 4.02C54.3673 3.79333 54.6007 3.66667 54.7873 3.64L55.0673 3.6C55.2007 3.6 55.2673 3.66 55.2673 3.78L55.2273 3.96C55.0007 4.49333 54.714 5.20667 54.3673 6.1C54.0207 6.99333 53.494 8.53333 52.7873 10.72C52.094 12.9067 51.614 14.76 51.3473 16.28C51.3607 16.48 51.4207 16.58 51.5273 16.58C51.6073 16.58 51.7007 16.52 51.8073 16.4C52.674 15.5333 53.9207 14.06 55.5473 11.98C56.574 10.6467 57.5273 9.22667 58.4073 7.72C59.2873 6.21333 59.7273 5.19333 59.7273 4.66C59.7273 4.35333 59.934 4.1 60.3473 3.9C60.7473 3.7 61.1873 3.6 61.6673 3.6C62.0007 3.6 62.1673 3.72 62.1673 3.96C62.1673 4.26667 62.0007 4.70667 61.6673 5.28C61.3473 5.84 60.8473 6.55333 60.1673 7.42C59.4873 8.28667 58.8607 9.06 58.2873 9.74C57.7273 10.42 56.9673 11.3267 56.0073 12.46C55.0473 13.58 54.3673 14.38 53.9673 14.86C53.114 15.8867 52.3073 16.7933 51.5473 17.58C50.8007 18.3533 50.2673 18.88 49.9473 19.16L49.4473 19.56C49.3007 19.6667 49.1807 19.72 49.0873 19.72C48.9407 19.72 48.8673 19.5933 48.8673 19.34C49.014 17.66 49.594 15.22 50.6073 12.02ZM60.6833 17.74C59.5766 18.7533 58.8166 19.26 58.4033 19.26C58.2166 19.26 58.1233 19.1533 58.1233 18.94C58.1233 18.6733 58.2366 18.2667 58.4633 17.72C58.7033 17.1733 58.9433 16.6933 59.1833 16.28L59.5433 15.66C59.5966 15.5667 59.6233 15.5067 59.6233 15.48C59.6233 15.4533 59.6099 15.44 59.5833 15.44C59.5299 15.44 59.4299 15.5133 59.2833 15.66C58.8833 16.1 58.4233 16.5733 57.9033 17.08C57.3966 17.5733 56.9833 17.96 56.6633 18.24L56.2033 18.64C55.6833 19.04 55.2833 19.24 55.0033 19.24C54.7099 19.24 54.5633 19.0133 54.5633 18.56C54.5633 18.3333 54.6299 17.9867 54.7633 17.52C54.8833 17.0533 54.9766 16.74 55.0433 16.58C55.3499 15.8333 55.7299 15.1067 56.1833 14.4C56.6499 13.6933 57.1966 13.02 57.8233 12.38C58.4499 11.7267 59.1766 11.2 60.0033 10.8C60.8433 10.4 61.7099 10.2 62.6033 10.2C63.3499 10.2 63.7233 10.3133 63.7233 10.54C63.7233 10.6733 63.5566 10.74 63.2233 10.74C61.9966 10.74 60.8433 11.2667 59.7633 12.32C58.6966 13.36 57.8299 14.56 57.1633 15.92C56.9766 16.2933 56.8833 16.6067 56.8833 16.86C56.8833 17.0067 56.9299 17.08 57.0233 17.08C57.1833 17.08 57.3899 16.9667 57.6433 16.74C57.8033 16.5933 58.0166 16.4 58.2833 16.16C58.5633 15.92 59.0099 15.46 59.6233 14.78C60.2366 14.1 60.7233 13.4667 61.0833 12.88C61.1366 12.7733 61.2166 12.6467 61.3233 12.5C61.4433 12.3533 61.6633 12.16 61.9833 11.92C62.3033 11.6667 62.6233 11.54 62.9433 11.54C63.1166 11.54 63.2033 11.5867 63.2033 11.68C63.2033 11.7067 63.1833 11.7533 63.1433 11.82C63.0899 11.9267 62.9366 12.1933 62.6833 12.62C62.4433 13.0467 62.2166 13.4533 62.0033 13.84C61.7899 14.2133 61.5633 14.6267 61.3233 15.08C61.0833 15.52 60.8899 15.9 60.7433 16.22C60.6099 16.54 60.5433 16.7533 60.5433 16.86C60.5433 16.94 60.5766 16.98 60.6433 16.98C60.8433 16.98 61.3299 16.5933 62.1033 15.82C62.6899 15.2067 63.3766 14.4533 64.1633 13.56C64.2033 13.52 64.2366 13.5 64.2633 13.5C64.2899 13.5 64.3033 13.5267 64.3033 13.58C64.3033 13.8333 64.2033 14.08 64.0033 14.32C62.6966 15.7733 61.5899 16.9133 60.6833 17.74ZM68.0856 9.26C69.0323 8.59333 69.879 7.84 70.6256 7C71.3856 6.14667 71.959 5.36667 72.3456 4.66C72.7456 3.94 73.0456 3.32 73.2456 2.8C73.4456 2.28 73.5456 1.90667 73.5456 1.68C73.5456 1.54667 73.499 1.48 73.4056 1.48C73.219 1.48 72.9923 1.61333 72.7256 1.88C72.219 2.38667 71.6456 3.12 71.0056 4.08C70.3656 5.04 69.8456 5.86667 69.4456 6.56C69.059 7.24 68.5523 8.15333 67.9256 9.3C67.979 9.3 68.0323 9.28667 68.0856 9.26ZM65.9456 15.98C66.5056 15.42 67.2456 14.6133 68.1656 13.56C68.2056 13.52 68.239 13.5 68.2656 13.5C68.2923 13.5 68.3056 13.5267 68.3056 13.58C68.3056 13.8333 68.2056 14.08 68.0056 14.32C67.019 15.4133 66.1456 16.3267 65.3856 17.06C63.719 18.6333 62.659 19.42 62.2056 19.42C62.0056 19.42 61.9056 19.28 61.9056 19C61.9056 18.8533 61.9256 18.6933 61.9656 18.52C61.9923 18.3467 62.0456 18.16 62.1256 17.96C62.2056 17.7467 62.2723 17.5733 62.3256 17.44C62.3923 17.2933 62.479 17.0933 62.5856 16.84C62.7056 16.5733 62.7856 16.3933 62.8256 16.3C63.199 15.46 64.3456 13.2467 66.2656 9.66C68.8923 4.87333 71.3056 1.93333 73.5056 0.839999C73.8256 0.679999 74.1456 0.6 74.4656 0.6C74.839 0.6 75.0256 0.773333 75.0256 1.12C75.0256 1.92 74.7523 2.8 74.2056 3.76C73.659 4.70667 72.9923 5.58 72.2056 6.38C71.419 7.18 70.6456 7.88 69.8856 8.48C69.139 9.08 68.4923 9.53333 67.9456 9.84C67.8656 9.86667 67.7923 9.92667 67.7256 10.02C67.139 10.9667 66.5656 11.9867 66.0056 13.08C65.4456 14.16 65.0256 15.0133 64.7456 15.64L64.3456 16.56C64.279 16.76 64.2456 16.8933 64.2456 16.96C64.2456 17.08 64.2923 17.14 64.3856 17.14C64.6523 17.14 65.1723 16.7533 65.9456 15.98ZM73.7945 15.98C74.3545 15.42 75.0945 14.6133 76.0145 13.56C76.0545 13.52 76.0879 13.5 76.1145 13.5C76.1412 13.5 76.1545 13.5267 76.1545 13.58C76.1545 13.8333 76.0545 14.08 75.8545 14.32C74.8679 15.4133 73.9945 16.3267 73.2345 17.06C73.1679 17.1267 73.0412 17.2533 72.8545 17.44C72.6812 17.6133 72.5412 17.7533 72.4345 17.86C72.3279 17.9533 72.1879 18.0867 72.0145 18.26C71.8412 18.42 71.6945 18.5467 71.5745 18.64C71.4545 18.7333 71.3212 18.8333 71.1745 18.94C71.0412 19.0333 70.9145 19.1 70.7945 19.14C70.6879 19.1933 70.5945 19.22 70.5145 19.22C70.2745 19.22 70.1545 19 70.1545 18.56C70.1545 18.08 70.2545 17.4667 70.4545 16.72C70.6679 15.9733 70.8812 15.3467 71.0945 14.84L71.3945 14.08C71.4079 14.0533 71.4145 14.0267 71.4145 14C71.4145 13.9733 71.4012 13.96 71.3745 13.96L71.2545 14C70.7479 14.5067 70.2212 15.08 69.6745 15.72C69.1412 16.3467 68.7345 16.8467 68.4545 17.22L68.0345 17.78C67.7679 18.1933 67.4545 18.5533 67.0945 18.86C66.7479 19.1667 66.4812 19.32 66.2945 19.32C66.1612 19.32 66.0945 19.2333 66.0945 19.06C66.0945 18.8067 66.2145 18.4067 66.4545 17.86C66.6945 17.3133 66.9345 16.8267 67.1745 16.4L67.5345 15.76L70.4545 10.54C73.0812 5.87333 74.9945 2.78 76.1945 1.26C76.5945 0.739999 76.8745 0.479999 77.0345 0.479999C77.1012 0.479999 77.1345 0.533332 77.1345 0.639999C77.1345 0.933333 76.9212 1.50667 76.4945 2.36C74.4012 6.14667 72.9479 8.76667 72.1345 10.22C70.5479 13.06 69.5945 14.7467 69.2745 15.28V15.36C69.2745 15.4 69.2879 15.42 69.3145 15.42C69.3412 15.42 69.3812 15.3933 69.4345 15.34L70.3745 14.32C71.0145 13.64 71.5945 13.04 72.1145 12.52C72.6345 12 73.2145 11.4933 73.8545 11C74.4945 10.4933 74.9679 10.24 75.2745 10.24C75.4879 10.24 75.5945 10.4 75.5945 10.72C75.5945 10.9067 75.5279 11.1933 75.3945 11.58C75.2612 11.9667 75.1279 12.16 74.9945 12.16C74.9412 12.16 74.8945 12.0933 74.8545 11.96C74.7879 11.6267 74.5945 11.46 74.2745 11.46C73.8212 11.46 73.4012 11.8933 73.0145 12.76C72.6279 13.6133 72.3545 14.4467 72.1945 15.26C72.0345 16.06 71.9545 16.6 71.9545 16.88C71.9545 17.1733 72.0279 17.32 72.1745 17.32C72.2945 17.32 72.4479 17.2467 72.6345 17.1C72.8345 16.94 73.0612 16.7267 73.3145 16.46C73.5812 16.1933 73.7412 16.0333 73.7945 15.98ZM79.6211 12.22C79.7811 11.8867 79.8611 11.5933 79.8611 11.34C79.8611 11.1267 79.7944 11.02 79.6611 11.02C79.5811 11.02 79.4878 11.0467 79.3811 11.1C79.2878 11.14 79.2144 11.1867 79.1611 11.24L79.0611 11.32C78.6478 11.68 78.1278 12.34 77.5011 13.3C76.8878 14.2467 76.5811 14.8533 76.5811 15.12C76.5811 15.1733 76.5944 15.2 76.6211 15.2C76.7011 15.2 76.8744 15.1333 77.1411 15C77.4211 14.8667 77.8144 14.5533 78.3211 14.06C78.8411 13.5667 79.2744 12.9533 79.6211 12.22ZM78.7211 16.8C79.4278 16.1467 80.4411 15.0667 81.7611 13.56C81.8011 13.52 81.8344 13.5 81.8611 13.5C81.8878 13.5 81.9011 13.5267 81.9011 13.58C81.9011 13.8333 81.8011 14.08 81.6011 14.32C80.6144 15.4133 79.7411 16.3267 78.9811 17.06C78.4211 17.62 77.7544 18.16 76.9811 18.68C76.2078 19.1867 75.5678 19.44 75.0611 19.44C74.4478 19.44 74.1411 19.0133 74.1411 18.16C74.1411 16.7467 74.6611 15.2667 75.7011 13.72C76.7544 12.1733 77.9678 11.1267 79.3411 10.58C79.9144 10.34 80.4344 10.22 80.9011 10.22C81.4211 10.22 81.6811 10.4267 81.6811 10.84C81.6811 11.6133 81.1344 12.5 80.0411 13.5C78.9478 14.5 77.7211 15.26 76.3611 15.78C76.3078 15.7933 76.2611 15.84 76.2211 15.92C76.0211 16.4667 75.9211 16.9533 75.9211 17.38C75.9211 17.86 76.1011 18.1 76.4611 18.1C77.0344 18.1 77.7878 17.6667 78.7211 16.8ZM84.8833 14.86C84.7766 14.86 84.7233 14.82 84.7233 14.74C84.7233 14.7 84.7433 14.6467 84.7833 14.58C85.5699 13.3533 85.9633 12.5133 85.9633 12.06C85.9633 11.94 85.9166 11.88 85.8233 11.88C85.4233 11.88 84.4833 12.7867 83.0033 14.6C82.5633 15.16 82.1499 15.74 81.7633 16.34C81.3899 16.94 81.1299 17.4 80.9833 17.72L80.7433 18.18C80.5833 18.5 80.3366 18.7933 80.0033 19.06C79.6699 19.34 79.3233 19.48 78.9633 19.48C78.7766 19.48 78.6833 19.4333 78.6833 19.34C78.6833 19.26 78.7433 19.0933 78.8633 18.84C78.9699 18.5867 79.1033 18.3067 79.2633 18C79.4233 17.6933 79.5833 17.3933 79.7433 17.1C79.9033 16.8067 80.0366 16.56 80.1433 16.36L80.3233 16.06L82.4233 12.4C83.2366 10.8667 84.0899 10.1 84.9833 10.1C85.1033 10.1 85.1633 10.1467 85.1633 10.24C85.1633 10.36 84.8699 10.86 84.2833 11.74C83.7099 12.6067 83.3766 13.16 83.2833 13.4C83.2566 13.48 83.2433 13.5267 83.2433 13.54C83.2433 13.5667 83.2566 13.58 83.2833 13.58C83.3099 13.58 83.3566 13.5467 83.4233 13.48C84.4233 12.3467 85.4833 11.34 86.6033 10.46C86.6699 10.3933 86.8166 10.3 87.0433 10.18C87.2699 10.0467 87.4699 9.98 87.6433 9.98C87.8966 9.98 88.0233 10.2 88.0233 10.64C88.0233 11.12 87.8633 11.6933 87.5433 12.36C87.2233 13.0267 86.7899 13.6133 86.2433 14.12L86.1633 14.2C86.1099 14.24 86.0499 14.2867 85.9833 14.34C85.9299 14.38 85.8566 14.4333 85.7633 14.5C85.6699 14.5667 85.5766 14.6267 85.4833 14.68C85.3899 14.72 85.2899 14.76 85.1833 14.8C85.0766 14.84 84.9766 14.86 84.8833 14.86Z" fill="black"/>
</svg>
