<svg width="15" height="14" viewBox="0 0 15 14" fill="none" xmlns="http://www.w3.org/2000/svg">
<path fill-rule="evenodd" clip-rule="evenodd" d="M10.6769 5.38551C10.8437 5.56034 10.8372 5.83727 10.6623 6.00405L7.45219 9.06655C7.28305 9.22792 7.01694 9.2278 6.84793 9.0663L5.24559 7.53505C5.0709 7.36811 5.06462 7.09117 5.23156 6.91649C5.39849 6.7418 5.67543 6.73552 5.85012 6.90245L7.15045 8.1451L10.0584 5.37095C10.2332 5.20416 10.5101 5.21068 10.6769 5.38551Z" fill="#5F5F5F"/>
<path fill-rule="evenodd" clip-rule="evenodd" d="M7.9541 2.1875C5.29623 2.1875 3.1416 4.34213 3.1416 7C3.1416 9.65787 5.29623 11.8125 7.9541 11.8125C10.612 11.8125 12.7666 9.65787 12.7666 7C12.7666 4.34213 10.612 2.1875 7.9541 2.1875ZM2.2666 7C2.2666 3.85888 4.81298 1.3125 7.9541 1.3125C11.0952 1.3125 13.6416 3.85888 13.6416 7C13.6416 10.1411 11.0952 12.6875 7.9541 12.6875C4.81298 12.6875 2.2666 10.1411 2.2666 7Z" fill="#5F5F5F"/>
</svg>
