<svg width="20" height="21" viewBox="0 0 20 21" fill="none" xmlns="http://www.w3.org/2000/svg">
<path fill-rule="evenodd" clip-rule="evenodd" d="M13.8897 8.19358C14.128 8.44334 14.1187 8.83895 13.8689 9.07722L9.28298 13.4522C9.04135 13.6827 8.66119 13.6826 8.41976 13.4519L6.1307 11.2644C5.88115 11.0259 5.87217 10.6302 6.11065 10.3807C6.34913 10.1311 6.74475 10.1222 6.9943 10.3606L8.85193 12.1359L13.0061 8.17278C13.2558 7.93452 13.6515 7.94383 13.8897 8.19358Z" fill="#78C059"/>
<path fill-rule="evenodd" clip-rule="evenodd" d="M10 3.625C6.20304 3.625 3.125 6.70304 3.125 10.5C3.125 14.297 6.20304 17.375 10 17.375C13.797 17.375 16.875 14.297 16.875 10.5C16.875 6.70304 13.797 3.625 10 3.625ZM1.875 10.5C1.875 6.01269 5.51269 2.375 10 2.375C14.4873 2.375 18.125 6.01269 18.125 10.5C18.125 14.9873 14.4873 18.625 10 18.625C5.51269 18.625 1.875 14.9873 1.875 10.5Z" fill="#78C059"/>
</svg>
