<svg width="24" height="23" viewBox="0 0 24 23" fill="none" xmlns="http://www.w3.org/2000/svg">
<path fill-rule="evenodd" clip-rule="evenodd" d="M4 11.4993C4 10.9701 4.44772 10.541 5 10.541H19C19.5523 10.541 20 10.9701 20 11.4993C20 12.0286 19.5523 12.4577 19 12.4577H5C4.44772 12.4577 4 12.0286 4 11.4993Z" fill="#78C059"/>
<path fill-rule="evenodd" clip-rule="evenodd" d="M11.2929 4.11467C11.6834 3.74042 12.3166 3.74042 12.7071 4.11467L19.7071 10.823C20.0976 11.1973 20.0976 11.804 19.7071 12.1783L12.7071 18.8866C12.3166 19.2609 11.6834 19.2609 11.2929 18.8866C10.9024 18.5124 10.9024 17.9056 11.2929 17.5313L17.5858 11.5007L11.2929 5.46996C10.9024 5.09571 10.9024 4.48893 11.2929 4.11467Z" fill="#C4C4C4"/>
</svg>
