<svg width="15" height="18" viewBox="0 0 15 18" fill="none" xmlns="http://www.w3.org/2000/svg">
<path fill-rule="evenodd" clip-rule="evenodd" d="M9.56457 1.77016C10.159 1.23154 10.9378 0.942141 11.7398 0.961885C12.5417 0.98163 13.3053 1.309 13.8726 1.87623C14.4398 2.44345 14.7672 3.20709 14.7869 4.00902C14.8067 4.81096 14.5173 5.58977 13.9786 6.18422C13.9727 6.19074 13.9667 6.19714 13.9605 6.2034L6.20269 14.0706C6.19446 14.0789 6.186 14.087 6.17732 14.0949C5.82065 14.4181 5.35336 14.5917 4.8722 14.5799C4.39104 14.568 3.93286 14.3716 3.59252 14.0313C3.25219 13.6909 3.05576 13.2328 3.04392 12.7516C3.03207 12.2704 3.20571 11.8031 3.52888 11.4465C3.5346 11.4402 3.54045 11.434 3.54643 11.4279L10.0542 4.8107C10.2963 4.5646 10.692 4.5613 10.9381 4.80333C11.1842 5.04537 11.1875 5.44108 10.9455 5.68719L4.44815 12.2937C4.34495 12.4115 4.28968 12.564 4.29354 12.7208C4.29749 12.8812 4.36296 13.0339 4.47641 13.1474C4.58985 13.2608 4.74258 13.3263 4.90297 13.3303C5.0585 13.3341 5.20968 13.2798 5.32711 13.1782L13.0605 5.3358C13.3784 4.9803 13.549 4.51686 13.5373 4.03979C13.5254 3.55863 13.329 3.10045 12.9887 2.76011C12.6483 2.41978 12.1902 2.22335 11.709 2.21151C11.2333 2.19979 10.7711 2.3694 10.416 2.68557L2.66837 10.5425C2.08317 11.1277 1.75439 11.9213 1.75439 12.7489C1.75439 13.5765 2.08316 14.3702 2.66836 14.9554C3.25355 15.5406 4.04725 15.8694 4.87485 15.8694C5.70245 15.8694 6.49615 15.5406 7.08135 14.9554L13.4959 8.55646C13.7403 8.31268 14.1361 8.31316 14.3798 8.55754C14.6236 8.80191 14.6231 9.19764 14.3788 9.44142L7.96523 15.8393C7.14561 16.6589 6.03397 17.1194 4.87485 17.1194C3.71573 17.1194 2.60409 16.6589 1.78447 15.8393C0.964852 15.0197 0.504395 13.9081 0.504395 12.7489C0.504395 11.5906 0.964247 10.4796 1.78286 9.66018L9.5392 1.79448C9.54743 1.78614 9.55589 1.77803 9.56457 1.77016Z" fill="#5F5F5F"/>
</svg>
