<svg width="24" height="24" viewBox="0 0 24 24" fill="none" xmlns="http://www.w3.org/2000/svg">
<path fill-rule="evenodd" clip-rule="evenodd" d="M12.8692 8.43334C13.4065 8.12236 14.0422 8.02812 14.6467 8.16984C15.2511 8.31156 15.7786 8.67856 16.1217 9.19597C16.1304 9.20904 16.1386 9.22237 16.1465 9.23596L17.7435 12.0073C18.7154 13.7285 18.9685 15.7638 18.4478 17.6706C17.9271 19.5775 16.6747 21.2017 14.9629 22.19C13.2511 23.1784 11.2183 23.4511 9.30652 22.9487C7.39477 22.4463 5.75864 21.2095 4.75389 19.5073L4.75018 19.501L1.28146 13.4916C1.12144 13.2143 1.01753 12.9079 0.975838 12.5904C0.934142 12.2729 0.95539 11.9503 1.03837 11.6411C1.12135 11.3318 1.26443 11.0419 1.45945 10.7879C1.65447 10.5339 1.8976 10.3208 2.17497 10.1608C2.45234 10.0008 2.75852 9.89695 3.07601 9.85526C3.3935 9.81356 3.7161 9.83481 4.02538 9.91779C4.33467 10.0008 4.62458 10.1438 4.87856 10.3389C5.13255 10.5339 5.34563 10.777 5.50565 11.0544C5.71265 11.4132 5.58959 11.8718 5.23081 12.0788C4.87202 12.2858 4.41337 12.1628 4.20638 11.804C4.14479 11.6972 4.06278 11.6037 3.96504 11.5286C3.86729 11.4536 3.75572 11.3985 3.63669 11.3666C3.51766 11.3346 3.39351 11.3264 3.27132 11.3425C3.14914 11.3585 3.0313 11.3985 2.92456 11.4601C2.81781 11.5217 2.72424 11.6037 2.64919 11.7014C2.57413 11.7992 2.51907 11.9107 2.48713 12.0298C2.4552 12.1488 2.44702 12.2729 2.46307 12.3951C2.47911 12.5173 2.51903 12.635 2.58057 12.7417C2.5806 12.7418 2.58054 12.7417 2.58057 12.7417L6.04745 18.7479C6.85141 20.1081 8.1595 21.0963 9.68775 21.4979C11.2172 21.8998 12.8434 21.6817 14.2128 20.891C15.5823 20.1003 16.5842 18.801 17.0008 17.2755C17.417 15.7511 17.2151 14.124 16.4389 12.7476L14.8603 10.0083C14.7282 9.81803 14.5302 9.68321 14.3042 9.63023C14.0718 9.57572 13.8273 9.61197 13.6206 9.73158C13.4139 9.85119 13.2607 10.0451 13.1922 10.2739C13.1236 10.5026 13.1449 10.7489 13.2518 10.9624C13.4371 11.3328 13.287 11.7834 12.9166 11.9687C12.5461 12.154 12.0956 12.0039 11.9103 11.6335C11.6325 11.0783 11.5771 10.438 11.7553 9.84329C11.9335 9.2486 12.3319 8.74432 12.8692 8.43334Z" fill="#095AA5"/>
<path fill-rule="evenodd" clip-rule="evenodd" d="M4.6888 5.89967C5.0063 5.85797 5.3289 5.87922 5.63818 5.9622C5.94746 6.04517 6.23737 6.18826 6.49135 6.38328C6.74525 6.57823 6.95828 6.82126 7.11828 7.09852C7.11834 7.09861 7.11823 7.09842 7.11828 7.09852L10.6808 13.2673C10.8879 13.626 10.7651 14.0847 10.4064 14.2918C10.0477 14.499 9.58898 14.3761 9.38183 14.0174L5.81933 7.84867C5.75775 7.74192 5.67558 7.64807 5.57783 7.57301C5.48008 7.49796 5.36851 7.4429 5.24948 7.41096C5.13046 7.37903 5.0063 7.37085 4.88412 7.3869C4.76193 7.40294 4.6441 7.4429 4.53735 7.50448C4.4306 7.56607 4.33703 7.64807 4.26198 7.74582C4.18693 7.84357 4.13186 7.95514 4.09993 8.07417C4.06799 8.1932 4.05981 8.31735 4.07586 8.43954C4.09189 8.56161 4.13179 8.67934 4.19328 8.78602L7.75578 14.9548C7.96293 15.3135 7.84008 15.7722 7.48139 15.9793C7.12269 16.1865 6.66398 16.0636 6.45683 15.7049L2.89433 9.53617C2.73431 9.2588 2.63033 8.95234 2.58863 8.63485C2.54694 8.31735 2.56818 7.99476 2.65116 7.68547C2.73414 7.37619 2.87722 7.08628 3.07224 6.8323C3.26726 6.57831 3.5104 6.36523 3.78777 6.2052C4.06514 6.04518 4.37131 5.94136 4.6888 5.89967Z" fill="#095AA5"/>
<path fill-rule="evenodd" clip-rule="evenodd" d="M7.46258 5.81068C8.02275 5.4875 8.68836 5.40009 9.31299 5.56767C9.93761 5.73525 10.4701 6.1441 10.7933 6.70428L14.7308 13.5293C14.9377 13.8881 14.8147 14.3467 14.4559 14.5537C14.0971 14.7607 13.6385 14.6376 13.4315 14.2789L9.49398 7.45386C9.3696 7.23828 9.16468 7.08093 8.9243 7.01644C8.68391 6.95194 8.42775 6.98558 8.21216 7.10996C7.99658 7.23433 7.83923 7.43926 7.77474 7.67964C7.71024 7.92003 7.74388 8.17619 7.86826 8.39178C8.07525 8.75056 7.9522 9.20922 7.59341 9.41621C7.23463 9.6232 6.77597 9.50015 6.56898 9.14136C6.2458 8.58119 6.15839 7.91557 6.32597 7.29095C6.49355 6.66633 6.9024 6.13386 7.46258 5.81068Z" fill="#095AA5"/>
<path fill-rule="evenodd" clip-rule="evenodd" d="M5.63446 3.40052C6.19463 3.07735 6.86024 2.98993 7.48487 3.15751C8.10949 3.3251 8.64196 3.73395 8.96514 4.29412L8.96556 4.29485L9.93118 5.97298C10.1378 6.332 10.0142 6.79051 9.65518 6.9971C9.29616 7.20368 8.83765 7.08011 8.63106 6.72109L7.66586 5.0437C7.6658 5.0436 7.66592 5.04381 7.66586 5.0437C7.54146 4.82828 7.33645 4.67074 7.09617 4.60628C6.85579 4.54178 6.59962 4.57543 6.38404 4.6998C6.16846 4.82418 6.01111 5.0291 5.94661 5.26949C5.8823 5.50922 5.91558 5.76465 6.03913 5.97987L6.26276 6.3619C6.47201 6.71937 6.35185 7.17879 5.99438 7.38805C5.63691 7.5973 5.17749 7.47714 4.96824 7.11967L4.74085 6.73121C4.41767 6.17104 4.33027 5.50542 4.49785 4.88079C4.66543 4.25617 5.07428 3.7237 5.63446 3.40052Z" fill="#095AA5"/>
<path fill-rule="evenodd" clip-rule="evenodd" d="M15.5731 5.24342C15.8906 5.20172 16.2132 5.22297 16.5225 5.30595C16.8317 5.38892 17.1216 5.53201 17.3756 5.72703C17.6295 5.92197 17.8425 6.16499 18.0025 6.44222C18.0026 6.44233 18.0025 6.44211 18.0025 6.44222L19.5969 9.19958C20.4521 10.686 20.7728 12.4204 20.5056 14.1143C20.2384 15.8083 19.3995 17.3597 18.1284 18.5108C17.8213 18.7888 17.347 18.7653 17.069 18.4583C16.791 18.1512 16.8145 17.6769 17.1215 17.3989C18.1388 16.4778 18.8101 15.2362 19.0239 13.8806C19.2377 12.5253 18.9812 11.1377 18.2971 9.9483C18.297 9.94807 18.2969 9.94784 18.2968 9.94761L16.7038 7.19277C16.6422 7.08603 16.5599 6.99182 16.4621 6.91676C16.3644 6.84171 16.2528 6.78665 16.1338 6.75471C16.0147 6.72278 15.8906 6.7146 15.7684 6.73065C15.6462 6.74669 15.5284 6.78665 15.4216 6.84823C15.3149 6.90982 15.2213 6.99182 15.1463 7.08957C15.0712 7.18732 15.0161 7.29889 14.9842 7.41792C14.9523 7.53695 14.9441 7.6611 14.9601 7.78329C14.9762 7.90547 15.0161 8.02331 15.0777 8.13005C15.2847 8.48884 15.1617 8.94749 14.8029 9.15448C14.4441 9.36147 13.9854 9.23842 13.7784 8.87964C13.6184 8.60226 13.5146 8.29609 13.4729 7.9786C13.4312 7.6611 13.4525 7.33851 13.5354 7.02923C13.6184 6.71994 13.7615 6.43003 13.9565 6.17605C14.1515 5.92206 14.3947 5.70898 14.672 5.54895C14.9494 5.38893 15.2556 5.28511 15.5731 5.24342Z" fill="#095AA5"/>
<path fill-rule="evenodd" clip-rule="evenodd" d="M9.30975 3.01771C9.86992 2.69453 10.5355 2.60712 11.1602 2.7747C11.7847 2.94225 12.3171 3.35099 12.6403 3.911L15.2934 8.50475C15.5005 8.86344 15.3777 9.32215 15.019 9.52931C14.6603 9.73647 14.2016 9.61364 13.9944 9.25495L11.3413 4.6612C11.2169 4.44561 11.0119 4.28796 10.7715 4.22347C10.5311 4.15897 10.2749 4.19261 10.0593 4.31699C9.84375 4.44136 9.6864 4.64629 9.6219 4.88667C9.55741 5.12706 9.59105 5.38322 9.71543 5.59881C9.92242 5.95759 9.79936 6.41625 9.44058 6.62324C9.08179 6.83023 8.62314 6.70718 8.41615 6.34839C8.09297 5.78822 8.00556 5.1226 8.17314 4.49798C8.34072 3.87336 8.74957 3.34089 9.30975 3.01771Z" fill="#095AA5"/>
<path fill-rule="evenodd" clip-rule="evenodd" d="M16.7679 0.334025C17.1682 0.440591 17.4063 0.851463 17.2997 1.25173L16.9154 2.69548C16.8088 3.09575 16.3979 3.33385 15.9977 3.22728C15.5974 3.12072 15.3593 2.70985 15.4659 2.30957L15.8502 0.865825C15.9568 0.465554 16.3677 0.227459 16.7679 0.334025Z" fill="#095AA5"/>
<path fill-rule="evenodd" clip-rule="evenodd" d="M19.8468 1.76911C20.1858 2.00717 20.2676 2.47494 20.0296 2.81392L19.167 4.04204C18.929 4.38101 18.4612 4.46282 18.1222 4.22476C17.7833 3.98671 17.7015 3.51893 17.9395 3.17996L18.802 1.95184C19.0401 1.61286 19.5079 1.53106 19.8468 1.76911Z" fill="#095AA5"/>
<path fill-rule="evenodd" clip-rule="evenodd" d="M22.2326 4.15496C22.4706 4.49393 22.3888 4.96171 22.0499 5.19976L20.8217 6.06226C20.4828 6.30032 20.015 6.21851 19.7769 5.87954C19.5389 5.54057 19.6207 5.07279 19.9596 4.83474L21.1878 3.97224C21.5267 3.73418 21.9945 3.81599 22.2326 4.15496Z" fill="#095AA5"/>
</svg>
