<svg width="24" height="24" viewBox="0 0 24 24" fill="none" xmlns="http://www.w3.org/2000/svg">
<path fill-rule="evenodd" clip-rule="evenodd" d="M12.5056 3.78568C10.5022 3.66012 8.52178 4.27016 6.93625 5.50126C5.35072 6.73236 4.26907 8.49986 3.89437 10.4719C3.51967 12.444 3.87768 14.4851 4.9012 16.2119C5.00601 16.3887 5.03365 16.6008 4.97765 16.7986L4.09924 19.9011L7.2017 19.0227L7.40602 19.7443L7.78843 19.0991C9.51525 20.1226 11.5563 20.4807 13.5284 20.106C15.5005 19.7313 17.268 18.6496 18.4991 17.0641C19.7302 15.4785 20.3402 13.4982 20.2146 11.4947C20.0891 9.4913 19.2366 7.60259 17.8172 6.18317C16.3977 4.76374 14.509 3.91123 12.5056 3.78568ZM7.30785 20.5516C9.28674 21.6364 11.5846 22.0021 13.8084 21.5796C16.1394 21.1367 18.2287 19.8582 19.6839 17.984C21.139 16.1099 21.8601 13.769 21.7117 11.4009C21.5633 9.03281 20.5556 6.8003 18.8778 5.12251C17.2 3.44471 14.9675 2.43702 12.5994 2.28861C10.2313 2.14021 7.89045 2.86128 6.01631 4.31648C4.14218 5.77167 2.86364 7.8609 2.42074 10.192C1.99822 12.4157 2.36388 14.7136 3.44874 16.6925L2.65386 19.4999C2.57982 19.7555 2.57553 20.0263 2.64149 20.2841C2.70775 20.5432 2.84249 20.7797 3.03158 20.9687C3.22067 21.1578 3.45714 21.2926 3.71621 21.3588C3.97405 21.4248 4.24484 21.4205 4.50044 21.3465L7.30785 20.5516Z" fill="#5F5F5F"/>
<path d="M12 13.125C12.6213 13.125 13.125 12.6213 13.125 12C13.125 11.3787 12.6213 10.875 12 10.875C11.3787 10.875 10.875 11.3787 10.875 12C10.875 12.6213 11.3787 13.125 12 13.125Z" fill="#5F5F5F"/>
<path d="M7.5 13.125C8.12132 13.125 8.625 12.6213 8.625 12C8.625 11.3787 8.12132 10.875 7.5 10.875C6.87868 10.875 6.375 11.3787 6.375 12C6.375 12.6213 6.87868 13.125 7.5 13.125Z" fill="#5F5F5F"/>
<path d="M16.5 13.125C17.1213 13.125 17.625 12.6213 17.625 12C17.625 11.3787 17.1213 10.875 16.5 10.875C15.8787 10.875 15.375 11.3787 15.375 12C15.375 12.6213 15.8787 13.125 16.5 13.125Z" fill="#5F5F5F"/>
</svg>
