<svg width="24" height="24" viewBox="0 0 24 24" fill="none" xmlns="http://www.w3.org/2000/svg">
<path fill-rule="evenodd" clip-rule="evenodd" d="M4.93934 4.18934C5.22064 3.90804 5.60217 3.75 6 3.75H18C18.3978 3.75 18.7794 3.90804 19.0607 4.18934C19.342 4.47065 19.5 4.85218 19.5 5.25V10.5C19.5 11.4893 19.3043 12.4688 18.9242 13.3822C18.544 14.2955 17.9869 15.1247 17.2849 15.8218C16.583 16.5189 15.75 17.0703 14.834 17.4441C13.9181 17.8179 12.9372 18.0069 11.9479 18L11.9475 18C7.80212 17.9687 4.5 14.5379 4.5 10.4156V5.25C4.5 4.85217 4.65804 4.47064 4.93934 4.18934ZM18 5.25L6 5.25L6 10.4156C6 13.7371 8.66038 16.4751 11.9588 16.5C12.7501 16.5055 13.5346 16.3543 14.2672 16.0553C15 15.7562 15.6664 15.3152 16.2279 14.7575C16.7895 14.1998 17.2352 13.5365 17.5393 12.8058C17.8435 12.0751 18 11.2915 18 10.5V5.25Z" fill="#BA9514"/>
<path fill-rule="evenodd" clip-rule="evenodd" d="M8.25 21C8.25 20.5858 8.58579 20.25 9 20.25H15C15.4142 20.25 15.75 20.5858 15.75 21C15.75 21.4142 15.4142 21.75 15 21.75H9C8.58579 21.75 8.25 21.4142 8.25 21Z" fill="#BA9514"/>
<path fill-rule="evenodd" clip-rule="evenodd" d="M12 16.5C12.4142 16.5 12.75 16.8358 12.75 17.25V21C12.75 21.4142 12.4142 21.75 12 21.75C11.5858 21.75 11.25 21.4142 11.25 21V17.25C11.25 16.8358 11.5858 16.5 12 16.5Z" fill="#BA9514"/>
<path fill-rule="evenodd" clip-rule="evenodd" d="M18 6.75C18 6.33579 18.3358 6 18.75 6H21.75C22.1479 6 22.5294 6.15804 22.8107 6.43934C23.092 6.72065 23.25 7.10218 23.25 7.5V9C23.25 9.99456 22.855 10.9484 22.1517 11.6517C21.4484 12.3549 20.4946 12.75 19.5 12.75H18.5813C18.1671 12.75 17.8313 12.4142 17.8313 12C17.8313 11.5858 18.1671 11.25 18.5813 11.25H19.5C20.0968 11.25 20.6691 11.0129 21.091 10.591C21.513 10.169 21.75 9.59674 21.75 9L21.7501 7.5L18.75 7.5C18.3358 7.5 18 7.16421 18 6.75Z" fill="#BA9514"/>
<path fill-rule="evenodd" clip-rule="evenodd" d="M1.18006 6.43934C1.46137 6.15804 1.8429 6 2.24072 6H5.24072C5.65494 6 5.99072 6.33579 5.99072 6.75C5.99072 7.16421 5.65494 7.5 5.24072 7.5L2.24072 7.5V9C2.24072 9.59674 2.47778 10.169 2.89973 10.591C3.32169 11.0129 3.89399 11.25 4.49072 11.25H5.4376C5.85181 11.25 6.1876 11.5858 6.1876 12C6.1876 12.4142 5.85181 12.75 5.4376 12.75H4.49072C3.49616 12.75 2.54233 12.3549 1.83907 11.6517C1.13581 10.9484 0.740723 9.99456 0.740723 9V7.5C0.740723 7.10218 0.898758 6.72064 1.18006 6.43934Z" fill="#BA9514"/>
</svg>
