<svg width="20" height="20" viewBox="0 0 20 20" fill="none" xmlns="http://www.w3.org/2000/svg">
<path fill-rule="evenodd" clip-rule="evenodd" d="M4.16602 3.33366C3.70578 3.33366 3.33268 3.70675 3.33268 4.16699V15.8337C3.33268 16.2939 3.70578 16.667 4.16602 16.667H15.8327C16.2929 16.667 16.666 16.2939 16.666 15.8337V4.16699C16.666 3.70675 16.2929 3.33366 15.8327 3.33366H4.16602ZM1.66602 4.16699C1.66602 2.78628 2.7853 1.66699 4.16602 1.66699H15.8327C17.2134 1.66699 18.3327 2.78628 18.3327 4.16699V15.8337C18.3327 17.2144 17.2134 18.3337 15.8327 18.3337H4.16602C2.7853 18.3337 1.66602 17.2144 1.66602 15.8337V4.16699Z" fill="#5F5F5F"/>
<path fill-rule="evenodd" clip-rule="evenodd" d="M1.66602 7.50033C1.66602 7.04009 2.03911 6.66699 2.49935 6.66699H17.4993C17.9596 6.66699 18.3327 7.04009 18.3327 7.50033C18.3327 7.96056 17.9596 8.33366 17.4993 8.33366H2.49935C2.03911 8.33366 1.66602 7.96056 1.66602 7.50033Z" fill="#5F5F5F"/>
<path fill-rule="evenodd" clip-rule="evenodd" d="M7.49935 6.66699C7.95959 6.66699 8.33268 7.04009 8.33268 7.50033V17.5003C8.33268 17.9606 7.95959 18.3337 7.49935 18.3337C7.03911 18.3337 6.66602 17.9606 6.66602 17.5003V7.50033C6.66602 7.04009 7.03911 6.66699 7.49935 6.66699Z" fill="#5F5F5F"/>
</svg>
