<svg width="25" height="24" viewBox="0 0 25 24" fill="none" xmlns="http://www.w3.org/2000/svg">
<path fill-rule="evenodd" clip-rule="evenodd" d="M3.5 4.5C3.5 3.67157 4.17157 3 5 3H20C20.8284 3 21.5 3.67157 21.5 4.5V19.5C21.5 20.3284 20.8284 21 20 21H5C4.17157 21 3.5 20.3284 3.5 19.5V4.5ZM20 4.5H5V19.5H20V4.5Z" fill="#5F5F5F"/>
<path fill-rule="evenodd" clip-rule="evenodd" d="M17 1.5C17.4142 1.5 17.75 1.83579 17.75 2.25V5.25C17.75 5.66421 17.4142 6 17 6C16.5858 6 16.25 5.66421 16.25 5.25V2.25C16.25 1.83579 16.5858 1.5 17 1.5Z" fill="#5F5F5F"/>
<path fill-rule="evenodd" clip-rule="evenodd" d="M8 1.5C8.41421 1.5 8.75 1.83579 8.75 2.25V5.25C8.75 5.66421 8.41421 6 8 6C7.58579 6 7.25 5.66421 7.25 5.25V2.25C7.25 1.83579 7.58579 1.5 8 1.5Z" fill="#5F5F5F"/>
<path fill-rule="evenodd" clip-rule="evenodd" d="M3.5 8.25C3.5 7.83579 3.83579 7.5 4.25 7.5H20.75C21.1642 7.5 21.5 7.83579 21.5 8.25C21.5 8.66421 21.1642 9 20.75 9H4.25C3.83579 9 3.5 8.66421 3.5 8.25Z" fill="#5F5F5F"/>
</svg>
