<svg width="24" height="24" viewBox="0 0 24 24" fill="none" xmlns="http://www.w3.org/2000/svg">
<path opacity="0.1" fill-rule="evenodd" clip-rule="evenodd" d="M0 12C0 5.37258 5.37258 0 12 0C18.6274 0 24 5.37258 24 12C24 18.6274 18.6274 24 12 24C5.37258 24 0 18.6274 0 12Z" fill="#5F5F5F"/>
<path fill-rule="evenodd" clip-rule="evenodd" d="M18.4001 11.9927C18.4001 12.4255 18.356 12.8577 18.2695 13.279C18.1851 13.6903 18.0601 14.0941 17.8963 14.4802C17.7363 14.8594 17.5379 15.2248 17.306 15.5655C17.0776 15.9041 16.8144 16.2218 16.5253 16.5114C16.2356 16.7997 15.9169 17.0622 15.5784 17.2916C15.2365 17.5219 14.8706 17.72 14.4912 17.8808C14.1046 18.0436 13.6999 18.1685 13.2889 18.2527C12.867 18.3395 12.4333 18.3838 11.9998 18.3838C11.566 18.3838 11.1323 18.3395 10.711 18.2527C10.2994 18.1685 9.89471 18.0436 9.50844 17.8808C9.12905 17.72 8.76277 17.5219 8.42088 17.2916C8.08243 17.0622 7.76366 16.7997 7.47458 16.5114C7.1852 16.2218 6.92205 15.9041 6.69329 15.5655C6.46265 15.2248 6.26388 14.8593 6.10326 14.4802C5.93948 14.0941 5.81418 13.6903 5.72948 13.279C5.64386 12.8577 5.6001 12.4255 5.6001 11.9927C5.6001 11.5595 5.64384 11.1264 5.72951 10.706C5.8142 10.2947 5.9395 9.89028 6.10328 9.50489C6.2639 9.12542 6.46268 8.75969 6.69332 8.4189C6.92207 8.08001 7.18523 7.76293 7.47461 7.47302C7.76369 7.18465 8.08245 6.92286 8.42091 6.6938C8.76279 6.46255 9.12908 6.26441 9.50846 6.10337C9.89474 5.94013 10.2994 5.81501 10.711 5.73139C11.1323 5.64526 11.5661 5.60156 11.9998 5.60156C12.4333 5.60156 12.8671 5.64526 13.2889 5.73139C13.6999 5.81503 14.1046 5.94015 14.4912 6.10337C14.8706 6.26439 15.2366 6.46255 15.5784 6.6938C15.9169 6.92286 16.2357 7.18465 16.5254 7.47302C16.8144 7.76293 17.0776 8.08001 17.306 8.4189C17.5379 8.75969 17.7363 9.12545 17.8963 9.50489C18.0601 9.89028 18.1851 10.2947 18.2695 10.706C18.356 11.1264 18.4001 11.5595 18.4001 11.9927ZM9.66779 7.0561C8.14363 7.7748 7.00607 9.17722 6.65136 10.8674C6.79545 10.8686 9.07307 10.8973 11.6973 10.2011C10.7513 8.5228 9.74061 7.15318 9.66779 7.0561ZM12.1501 11.0415C9.33589 11.8828 6.63543 11.8223 6.53856 11.8186C6.53698 11.8772 6.53417 11.934 6.53417 11.9927C6.53417 13.3948 7.06389 14.673 7.93456 15.6395C7.93268 15.6367 9.4284 12.9869 12.3779 12.0345C12.4492 12.0108 12.5217 11.9896 12.5936 11.969C12.4564 11.6588 12.3067 11.348 12.1501 11.0415ZM15.6094 7.8965C14.6471 7.04922 13.3836 6.53528 11.9998 6.53528C11.5557 6.53528 11.1247 6.58896 10.7119 6.6882C10.7938 6.79806 11.8204 8.15802 12.7551 9.87186C14.8174 9.09983 15.5959 7.91646 15.6094 7.8965ZM12.9661 12.8733C12.9539 12.8774 12.9418 12.8808 12.9299 12.8852C9.70507 14.0078 8.65196 16.2701 8.64057 16.2948C9.56845 17.0154 10.7323 17.4501 11.9998 17.4501C12.7567 17.4501 13.4777 17.2962 14.1337 17.0176C14.0527 16.5407 13.7352 14.8693 12.9661 12.8733ZM15.054 16.5189C16.2812 15.6919 17.1528 14.3788 17.396 12.8577C17.2835 12.8215 15.7543 12.3381 13.9902 12.6205C14.7071 14.5878 14.9984 16.19 15.054 16.5189ZM13.1758 10.6851C13.3027 10.9454 13.4255 11.2103 13.539 11.4765C13.5793 11.572 13.6187 11.6656 13.6571 11.7593C15.5347 11.5233 17.3845 11.9203 17.4635 11.9365C17.451 10.6427 16.9876 9.45525 16.2207 8.52563C16.2104 8.54026 15.3338 9.80507 13.1758 10.6851Z" fill="#5F5F5F"/>
</svg>
