<svg width="18" height="19" viewBox="0 0 18 19" fill="none" xmlns="http://www.w3.org/2000/svg">
<path fill-rule="evenodd" clip-rule="evenodd" d="M1.60556 9.5C1.68752 9.64165 1.79619 9.82216 1.93081 10.0306C2.27658 10.566 2.78862 11.2779 3.4534 11.987C4.79664 13.4198 6.67463 14.75 9 14.75C11.3254 14.75 13.2034 13.4198 14.5466 11.987C15.2114 11.2779 15.7234 10.566 16.0692 10.0306C16.2038 9.82216 16.3125 9.64165 16.3944 9.5C16.3125 9.35835 16.2038 9.17784 16.0692 8.96939C15.7234 8.43402 15.2114 7.72205 14.5466 7.01296C13.2034 5.58017 11.3254 4.25 9 4.25C6.67463 4.25 4.79664 5.58017 3.4534 7.01296C2.78862 7.72205 2.27658 8.43402 1.93081 8.96939C1.79619 9.17784 1.68752 9.35835 1.60556 9.5ZM17.25 9.5C17.9208 9.16459 17.9207 9.16434 17.9206 9.16406L17.9193 9.16165L17.9168 9.15653L17.9082 9.13987C17.9011 9.12596 17.891 9.10649 17.8779 9.08183C17.8518 9.03252 17.814 8.96242 17.7645 8.87449C17.6657 8.69873 17.5201 8.45114 17.3292 8.15561C16.9485 7.56598 16.3824 6.77795 15.6409 5.98704C14.1716 4.41983 11.9246 2.75 9 2.75C6.07537 2.75 3.82836 4.41983 2.3591 5.98704C1.61763 6.77795 1.05155 7.56598 0.670752 8.15561C0.479888 8.45114 0.334344 8.69873 0.235479 8.87449C0.186018 8.96242 0.148155 9.03252 0.122065 9.08183C0.109018 9.10649 0.0989064 9.12596 0.0917535 9.13987L0.0832425 9.15653L0.0806542 9.16165L0.0797776 9.1634C0.0796397 9.16367 0.0791796 9.16459 0.75 9.5L0.0791796 9.16459C-0.0263932 9.37574 -0.0263932 9.62426 0.0791796 9.83541L0.75 9.5C0.0791796 9.83541 0.0790418 9.83513 0.0791796 9.83541L0.0806542 9.83835L0.0832425 9.84347L0.0917535 9.86013C0.0989064 9.87405 0.109018 9.89352 0.122065 9.91817C0.148155 9.96748 0.186018 10.0376 0.235479 10.1255C0.334344 10.3013 0.479888 10.5489 0.670752 10.8444C1.05155 11.434 1.61763 12.2221 2.3591 13.013C3.82836 14.5802 6.07537 16.25 9 16.25C11.9246 16.25 14.1716 14.5802 15.6409 13.013C16.3824 12.2221 16.9485 11.434 17.3292 10.8444C17.5201 10.5489 17.6657 10.3013 17.7645 10.1255C17.814 10.0376 17.8518 9.96748 17.8779 9.91817C17.891 9.89352 17.9011 9.87405 17.9082 9.86013L17.9168 9.84347L17.9193 9.83835L17.9202 9.8366C17.9204 9.83633 17.9208 9.83541 17.25 9.5ZM17.25 9.5L17.9208 9.83541C18.0264 9.62426 18.0261 9.37521 17.9206 9.16406L17.25 9.5Z" fill="#5F5F5F"/>
<path fill-rule="evenodd" clip-rule="evenodd" d="M9 8C8.17157 8 7.5 8.67157 7.5 9.5C7.5 10.3284 8.17157 11 9 11C9.82843 11 10.5 10.3284 10.5 9.5C10.5 8.67157 9.82843 8 9 8ZM6 9.5C6 7.84315 7.34315 6.5 9 6.5C10.6569 6.5 12 7.84315 12 9.5C12 11.1569 10.6569 12.5 9 12.5C7.34315 12.5 6 11.1569 6 9.5Z" fill="#5F5F5F"/>
</svg>
