<svg width="16" height="16" viewBox="0 0 16 16" fill="none" xmlns="http://www.w3.org/2000/svg">
<path fill-rule="evenodd" clip-rule="evenodd" d="M2.58579 1.25376C2.96086 0.878682 3.46957 0.667969 4 0.667969H8.66667C8.84348 0.667969 9.01305 0.738207 9.13807 0.863231L13.8047 5.5299C13.9298 5.65492 14 5.82449 14 6.0013V13.3346C14 13.8651 13.7893 14.3738 13.4142 14.7488C13.0391 15.1239 12.5304 15.3346 12 15.3346H4C3.46957 15.3346 2.96086 15.1239 2.58579 14.7488C2.21071 14.3738 2 13.8651 2 13.3346V2.66797C2 2.13754 2.21071 1.62883 2.58579 1.25376ZM4 2.0013C3.82319 2.0013 3.65362 2.07154 3.5286 2.19656C3.40357 2.32159 3.33333 2.49116 3.33333 2.66797V13.3346C3.33333 13.5114 3.40357 13.681 3.5286 13.806C3.65362 13.9311 3.82319 14.0013 4 14.0013H12C12.1768 14.0013 12.3464 13.9311 12.4714 13.806C12.5964 13.681 12.6667 13.5114 12.6667 13.3346V6.27744L8.39052 2.0013H4Z" fill="#096BC0"/>
<path fill-rule="evenodd" clip-rule="evenodd" d="M8.66667 0.667969C9.03486 0.667969 9.33333 0.966446 9.33333 1.33464V5.33464H13.3333C13.7015 5.33464 14 5.63311 14 6.0013C14 6.36949 13.7015 6.66797 13.3333 6.66797H8.66667C8.29848 6.66797 8 6.36949 8 6.0013V1.33464C8 0.966446 8.29848 0.667969 8.66667 0.667969Z" fill="#096BC0"/>
</svg>
