<svg width="14" height="13" viewBox="0 0 14 13" fill="none" xmlns="http://www.w3.org/2000/svg">
<path fill-rule="evenodd" clip-rule="evenodd" d="M1.63119 0.5C1.63124 0.5 1.63114 0.5 1.63119 0.5H12.3687C12.5627 0.500062 12.7526 0.556535 12.915 0.66254C13.0775 0.768546 13.2056 0.919507 13.2837 1.09703C13.3619 1.27456 13.3868 1.47098 13.3553 1.66238C13.3238 1.85341 13.2376 2.0312 13.1071 2.17417C13.1069 2.17445 13.1066 2.17472 13.1063 2.175L8.99994 6.69393V10.2293C9.00102 10.3957 8.96033 10.5596 8.8816 10.7061C8.80299 10.8524 8.68898 10.9767 8.55001 11.0675L6.55199 12.3975L6.54996 12.3988C6.39992 12.4976 6.22602 12.5542 6.04655 12.5626C5.86708 12.571 5.68866 12.5308 5.53006 12.4464C5.37146 12.362 5.23854 12.2364 5.14526 12.0829C5.05197 11.9293 5.00178 11.7535 4.99996 11.5738L4.99991 11.5688L4.99994 6.69396L4.99861 6.69254L0.893531 2.175C0.893307 2.17476 0.893084 2.17451 0.892861 2.17427C0.762305 2.03128 0.676064 1.85345 0.64462 1.66238C0.613123 1.47098 0.63797 1.27456 0.716134 1.09703C0.794298 0.919507 0.922405 0.768546 1.08485 0.66254C1.24718 0.556605 1.43681 0.500136 1.63065 0.5M12.3685 1.5H1.63135L1.63248 1.50124L5.73681 6.01788C5.90753 6.20212 6.00163 6.44452 5.99994 6.69571V11.5637L7.99993 10.2324L7.99992 10.2312L7.99994 6.69571C7.99824 6.44451 8.09235 6.20212 8.26307 6.01788L12.3674 1.50124L12.3685 1.5Z" fill="#5F5F5F"/>
</svg>
