<svg width="18" height="18" viewBox="0 0 18 18" fill="none" xmlns="http://www.w3.org/2000/svg">
<path fill-rule="evenodd" clip-rule="evenodd" d="M9 1.6875C6.20406 1.6875 3.9375 3.95406 3.9375 6.75C3.9375 9.54594 6.20406 11.8125 9 11.8125C11.7959 11.8125 14.0625 9.54594 14.0625 6.75C14.0625 3.95406 11.7959 1.6875 9 1.6875ZM2.8125 6.75C2.8125 3.33274 5.58274 0.5625 9 0.5625C12.4173 0.5625 15.1875 3.33274 15.1875 6.75C15.1875 10.1673 12.4173 12.9375 9 12.9375C5.58274 12.9375 2.8125 10.1673 2.8125 6.75Z" fill="#FC7C00"/>
<path fill-rule="evenodd" clip-rule="evenodd" d="M9 3.9375C7.4467 3.9375 6.1875 5.1967 6.1875 6.75C6.1875 8.3033 7.4467 9.5625 9 9.5625C10.5533 9.5625 11.8125 8.3033 11.8125 6.75C11.8125 5.1967 10.5533 3.9375 9 3.9375ZM5.0625 6.75C5.0625 4.57538 6.82538 2.8125 9 2.8125C11.1746 2.8125 12.9375 4.57538 12.9375 6.75C12.9375 8.92462 11.1746 10.6875 9 10.6875C6.82538 10.6875 5.0625 8.92462 5.0625 6.75Z" fill="#FC7C00"/>
<path fill-rule="evenodd" clip-rule="evenodd" d="M5.625 10.6875C5.93566 10.6875 6.1875 10.9393 6.1875 11.25V15.9649L8.74844 14.6844C8.9068 14.6052 9.0932 14.6052 9.25156 14.6844L11.8125 15.9649V11.25C11.8125 10.9393 12.0643 10.6875 12.375 10.6875C12.6857 10.6875 12.9375 10.9393 12.9375 11.25V16.875C12.9375 17.0699 12.8366 17.251 12.6707 17.3535C12.5049 17.456 12.2978 17.4653 12.1234 17.3781L9 15.8164L5.87656 17.3781C5.70219 17.4653 5.49511 17.456 5.32928 17.3535C5.16344 17.251 5.0625 17.0699 5.0625 16.875V11.25C5.0625 10.9393 5.31434 10.6875 5.625 10.6875Z" fill="#FC7C00"/>
</svg>
