<svg width="21" height="20" viewBox="0 0 21 20" fill="none" xmlns="http://www.w3.org/2000/svg">
<path d="M3.18848 13V4.00003C4.68848 3.50003 6.18848 2.00003 9.68848 4.00003C12.4885 5.60003 15.8551 4.66669 17.1885 4.00003V13C16.6885 14.1667 14.7885 15.9 11.1885 13.5C7.58848 11.1 4.35514 12.1667 3.18848 13Z" fill="#E1726E"/>
<path fill-rule="evenodd" clip-rule="evenodd" d="M3.31348 3.125C3.65865 3.125 3.93848 3.40482 3.93848 3.75V16.875C3.93848 17.2202 3.65865 17.5 3.31348 17.5C2.9683 17.5 2.68848 17.2202 2.68848 16.875V3.75C2.68848 3.40482 2.9683 3.125 3.31348 3.125Z" fill="#E1726E"/>
<path fill-rule="evenodd" clip-rule="evenodd" d="M13.5731 4.18346C14.553 4.28483 15.5672 4.09142 16.6885 3.25046C16.8779 3.10842 17.1313 3.08557 17.343 3.19144C17.5548 3.29731 17.6885 3.51373 17.6885 3.75046V13.1255C17.6885 13.3222 17.5959 13.5074 17.4385 13.6255C16.0598 14.6595 14.7303 14.9348 13.4445 14.8018C12.2167 14.6748 11.0488 14.1742 9.98482 13.7181L9.94231 13.6999C8.8302 13.2233 7.82533 12.7981 6.80389 12.6925C5.82407 12.5911 4.8098 12.7845 3.68851 13.6255C3.41237 13.8326 3.02062 13.7766 2.81351 13.5005C2.60641 13.2243 2.66237 12.8326 2.93851 12.6255C4.31723 11.5914 5.64671 11.3161 6.93251 11.4491C8.16032 11.5761 9.32819 12.0767 10.3922 12.5328L10.4347 12.551C11.5468 13.0276 12.5517 13.4528 13.5731 13.5585C14.4796 13.6522 15.4156 13.4937 16.4385 12.8036V4.8767C15.4139 5.39451 14.4167 5.5274 13.4445 5.42683C12.2167 5.29981 11.0488 4.79922 9.98482 4.34314L9.94231 4.32493C8.8302 3.84831 7.82533 3.42312 6.80389 3.31745C5.82407 3.21609 4.8098 3.4095 3.68851 4.25046C3.41237 4.45757 3.02062 4.4016 2.81351 4.12546C2.60641 3.84932 2.66237 3.45757 2.93851 3.25046C4.31723 2.21642 5.64671 1.94108 6.93251 2.07409C8.16032 2.2011 9.32819 2.7017 10.3922 3.15777L10.4347 3.17599C11.5468 3.65261 12.5517 4.0778 13.5731 4.18346Z" fill="#E1726E"/>
</svg>
