<svg width="431" height="153" viewBox="0 0 431 153" fill="none" xmlns="http://www.w3.org/2000/svg">
<line opacity="0.6" x1="43" y1="34.75" x2="431" y2="34.75" stroke="#C4C4C4" stroke-width="0.5" stroke-dasharray="3 3"/>
<path opacity="0.6" d="M3.21023 39.0994C2.74148 39.0994 2.32363 39.0189 1.95668 38.858C1.59209 38.697 1.30208 38.4732 1.08665 38.1868C0.87358 37.898 0.757576 37.563 0.738636 37.1818H1.63352C1.65246 37.4162 1.73295 37.6186 1.875 37.7891C2.01705 37.9571 2.20289 38.0874 2.43253 38.1797C2.66217 38.272 2.91667 38.3182 3.19602 38.3182C3.50852 38.3182 3.78551 38.2637 4.02699 38.1548C4.26847 38.0459 4.45786 37.8944 4.59517 37.7003C4.73248 37.5062 4.80114 37.2812 4.80114 37.0256C4.80114 36.758 4.73485 36.5225 4.60227 36.3189C4.4697 36.1129 4.27557 35.9519 4.01989 35.8359C3.7642 35.7199 3.4517 35.6619 3.08239 35.6619H2.5V34.8807H3.08239C3.37121 34.8807 3.62453 34.8286 3.84233 34.7244C4.0625 34.6203 4.23414 34.4735 4.35724 34.2841C4.48272 34.0947 4.54545 33.8722 4.54545 33.6165C4.54545 33.3703 4.491 33.156 4.3821 32.9737C4.2732 32.7914 4.11932 32.6494 3.92045 32.5476C3.72396 32.4458 3.49195 32.3949 3.22443 32.3949C2.97348 32.3949 2.73674 32.4411 2.5142 32.5334C2.29403 32.6233 2.11411 32.7547 1.97443 32.9276C1.83475 33.098 1.759 33.304 1.74716 33.5455H0.894886C0.909091 33.1643 1.02391 32.8305 1.23935 32.544C1.45478 32.2552 1.73651 32.0303 2.08452 31.8693C2.4349 31.7083 2.8196 31.6278 3.23864 31.6278C3.68845 31.6278 4.07434 31.719 4.39631 31.9013C4.71828 32.0812 4.96567 32.3191 5.13849 32.6151C5.31132 32.911 5.39773 33.2306 5.39773 33.5739C5.39773 33.9834 5.29001 34.3326 5.07457 34.6214C4.86151 34.9103 4.5715 35.1103 4.20455 35.2216V35.2784C4.66383 35.3542 5.02249 35.5495 5.28054 35.8643C5.53859 36.1768 5.66761 36.5639 5.66761 37.0256C5.66761 37.4209 5.5599 37.776 5.34446 38.0909C5.13139 38.4034 4.8402 38.6496 4.47088 38.8295C4.10156 39.0095 3.68134 39.0994 3.21023 39.0994ZM9.49219 39.0994C8.95715 39.0994 8.50142 38.9538 8.125 38.6626C7.74858 38.3691 7.46094 37.9441 7.26207 37.3878C7.06321 36.8291 6.96378 36.1544 6.96378 35.3636C6.96378 34.5777 7.06321 33.9065 7.26207 33.3501C7.4633 32.7914 7.75213 32.3653 8.12855 32.0717C8.50734 31.7758 8.96188 31.6278 9.49219 31.6278C10.0225 31.6278 10.4759 31.7758 10.8523 32.0717C11.2311 32.3653 11.5199 32.7914 11.7188 33.3501C11.92 33.9065 12.0206 34.5777 12.0206 35.3636C12.0206 36.1544 11.9212 36.8291 11.7223 37.3878C11.5234 37.9441 11.2358 38.3691 10.8594 38.6626C10.483 38.9538 10.0272 39.0994 9.49219 39.0994ZM9.49219 38.3182C10.0225 38.3182 10.4344 38.0625 10.728 37.5511C11.0215 37.0398 11.1683 36.3106 11.1683 35.3636C11.1683 34.7339 11.1009 34.1977 10.9659 33.755C10.8333 33.3123 10.6416 32.9749 10.3906 32.7429C10.142 32.5109 9.84257 32.3949 9.49219 32.3949C8.96662 32.3949 8.55587 32.6541 8.25994 33.1726C7.96402 33.6887 7.81605 34.419 7.81605 35.3636C7.81605 35.9934 7.88234 36.5284 8.01491 36.9688C8.14749 37.4091 8.33807 37.7441 8.58665 37.9737C8.83759 38.2034 9.13944 38.3182 9.49219 38.3182Z" fill="#5F5F5F"/>
<line opacity="0.6" x1="43" y1="82.75" x2="431" y2="82.75" stroke="#C4C4C4" stroke-width="0.5" stroke-dasharray="3 3"/>
<path opacity="0.6" d="M3.30966 79.7273V87H2.42898V80.6506H2.38636L0.610795 81.8295V80.9347L2.42898 79.7273H3.30966ZM7.67401 87.0994C7.25734 87.0994 6.8821 87.0166 6.5483 86.8509C6.21449 86.6851 5.94697 86.4579 5.74574 86.169C5.54451 85.8802 5.43442 85.5511 5.41548 85.1818H6.26776C6.3009 85.5109 6.45005 85.7831 6.7152 85.9986C6.98272 86.2116 7.30232 86.3182 7.67401 86.3182C7.9723 86.3182 8.23745 86.2483 8.46946 86.1087C8.70384 85.969 8.88731 85.7772 9.01989 85.5334C9.15483 85.2872 9.2223 85.009 9.2223 84.6989C9.2223 84.3816 9.15246 84.0987 9.01278 83.8501C8.87547 83.5992 8.68608 83.4015 8.4446 83.2571C8.20313 83.1127 7.92732 83.0393 7.61719 83.0369C7.39465 83.0346 7.16619 83.0689 6.93182 83.1399C6.69744 83.2086 6.5045 83.2973 6.35298 83.4062L5.52912 83.3068L5.96946 79.7273H9.74787V80.5085H6.7081L6.45241 82.6534H6.49503C6.64418 82.535 6.8312 82.4368 7.05611 82.3587C7.28101 82.2805 7.51539 82.2415 7.75923 82.2415C8.20431 82.2415 8.60085 82.348 8.94886 82.5611C9.29924 82.7718 9.57386 83.0606 9.77273 83.4276C9.97396 83.7945 10.0746 84.2135 10.0746 84.6847C10.0746 85.1487 9.97041 85.563 9.76207 85.9276C9.55611 86.2898 9.27202 86.5762 8.9098 86.7869C8.54759 86.9953 8.13565 87.0994 7.67401 87.0994Z" fill="#5F5F5F"/>
<line opacity="0.6" x1="43" y1="130.75" x2="431" y2="130.75" stroke="#C4C4C4" stroke-width="0.5" stroke-dasharray="3 3"/>
<path opacity="0.6" d="M3.125 135.099C2.58996 135.099 2.13423 134.954 1.75781 134.663C1.38139 134.369 1.09375 133.944 0.894886 133.388C0.696023 132.829 0.596591 132.154 0.596591 131.364C0.596591 130.578 0.696023 129.906 0.894886 129.35C1.09612 128.791 1.38494 128.365 1.76136 128.072C2.14015 127.776 2.5947 127.628 3.125 127.628C3.6553 127.628 4.10866 127.776 4.48509 128.072C4.86387 128.365 5.1527 128.791 5.35156 129.35C5.55279 129.906 5.65341 130.578 5.65341 131.364C5.65341 132.154 5.55398 132.829 5.35511 133.388C5.15625 133.944 4.86861 134.369 4.49219 134.663C4.11577 134.954 3.66004 135.099 3.125 135.099ZM3.125 134.318C3.6553 134.318 4.06723 134.062 4.3608 133.551C4.65436 133.04 4.80114 132.311 4.80114 131.364C4.80114 130.734 4.73366 130.198 4.59872 129.755C4.46615 129.312 4.27438 128.975 4.02344 128.743C3.77486 128.511 3.47538 128.395 3.125 128.395C2.59943 128.395 2.18868 128.654 1.89276 129.173C1.59683 129.689 1.44886 130.419 1.44886 131.364C1.44886 131.993 1.51515 132.528 1.64773 132.969C1.7803 133.409 1.97088 133.744 2.21946 133.974C2.47041 134.203 2.77225 134.318 3.125 134.318Z" fill="#5F5F5F"/>
<path d="M9.33665 3.81818V14H7.92472L2.74929 6.53267H2.65483V14H1.11861V3.81818H2.54048L7.72088 11.2955H7.81534V3.81818H9.33665ZM14.7495 14.1541C13.9971 14.1541 13.3491 13.9934 12.8056 13.6719C12.2653 13.3471 11.8477 12.8913 11.5527 12.3047C11.2611 11.7147 11.1152 11.0237 11.1152 10.2315C11.1152 9.44934 11.2611 8.75994 11.5527 8.16335C11.8477 7.56676 12.2587 7.10109 12.7857 6.76633C13.316 6.43158 13.9358 6.2642 14.6451 6.2642C15.0759 6.2642 15.4935 6.33546 15.8979 6.47798C16.3023 6.6205 16.6652 6.84422 16.9867 7.14915C17.3082 7.45407 17.5617 7.85014 17.7473 8.33736C17.9329 8.82126 18.0257 9.40956 18.0257 10.1023V10.6293H11.9554V9.51562H16.5691C16.5691 9.12453 16.4895 8.77817 16.3304 8.47656C16.1713 8.17164 15.9476 7.93134 15.6593 7.75568C15.3742 7.58002 15.0395 7.49219 14.655 7.49219C14.2374 7.49219 13.8728 7.59493 13.5613 7.80043C13.253 8.0026 13.0144 8.26776 12.8453 8.59588C12.6796 8.92069 12.5968 9.27367 12.5968 9.65483V10.5249C12.5968 11.0353 12.6863 11.4695 12.8652 11.8274C13.0475 12.1854 13.3011 12.4588 13.6259 12.6477C13.9507 12.8333 14.3302 12.9261 14.7644 12.9261C15.0461 12.9261 15.303 12.8864 15.535 12.8068C15.767 12.724 15.9675 12.6013 16.1365 12.4389C16.3056 12.2765 16.4348 12.076 16.5243 11.8374L17.9313 12.0909C17.8186 12.5052 17.6164 12.8681 17.3248 13.1797C17.0364 13.4879 16.6735 13.7282 16.236 13.9006C15.8018 14.0696 15.3063 14.1541 14.7495 14.1541ZM21.3169 14L19.0698 6.36364H20.606L22.1025 11.9716H22.177L23.6784 6.36364H25.2147L26.7061 11.9467H26.7807L28.2672 6.36364H29.8034L27.5613 14H26.0449L24.4938 8.48651H24.3794L22.8283 14H21.3169ZM35.0385 14V3.81818H36.5748V8.2429H41.6507V3.81818H43.1919V14H41.6507V9.56037H36.5748V14H35.0385ZM45.3098 14V6.36364H46.7963V14H45.3098ZM46.0605 5.18537C45.802 5.18537 45.58 5.09919 45.3944 4.92685C45.2121 4.75118 45.1209 4.54238 45.1209 4.30043C45.1209 4.05516 45.2121 3.84635 45.3944 3.67401C45.58 3.49834 45.802 3.41051 46.0605 3.41051C46.3191 3.41051 46.5395 3.49834 46.7218 3.67401C46.9074 3.84635 47.0002 4.05516 47.0002 4.30043C47.0002 4.54238 46.9074 4.75118 46.7218 4.92685C46.5395 5.09919 46.3191 5.18537 46.0605 5.18537ZM48.7962 14V6.36364H50.233V7.5767H50.3125C50.4517 7.16572 50.697 6.84257 51.0483 6.60724C51.4029 6.36861 51.804 6.24929 52.2514 6.24929C52.3442 6.24929 52.4536 6.2526 52.5795 6.25923C52.7088 6.26586 52.8099 6.27415 52.8828 6.28409V7.70597C52.8232 7.68939 52.7171 7.67116 52.5646 7.65128C52.4122 7.62808 52.2597 7.61648 52.1072 7.61648C51.7559 7.61648 51.4427 7.69105 51.1676 7.8402C50.8958 7.98603 50.6804 8.18987 50.5213 8.4517C50.3622 8.71023 50.2827 9.00521 50.2827 9.33665V14H48.7962ZM57.187 14.1541C56.4346 14.1541 55.7866 13.9934 55.2431 13.6719C54.7028 13.3471 54.2852 12.8913 53.9902 12.3047C53.6986 11.7147 53.5527 11.0237 53.5527 10.2315C53.5527 9.44934 53.6986 8.75994 53.9902 8.16335C54.2852 7.56676 54.6962 7.10109 55.2232 6.76633C55.7535 6.43158 56.3733 6.2642 57.0826 6.2642C57.5134 6.2642 57.931 6.33546 58.3354 6.47798C58.7398 6.6205 59.1027 6.84422 59.4242 7.14915C59.7457 7.45407 59.9992 7.85014 60.1848 8.33736C60.3704 8.82126 60.4632 9.40956 60.4632 10.1023V10.6293H54.3929V9.51562H59.0066C59.0066 9.12453 58.927 8.77817 58.7679 8.47656C58.6088 8.17164 58.3851 7.93134 58.0968 7.75568C57.8117 7.58002 57.477 7.49219 57.0925 7.49219C56.6749 7.49219 56.3103 7.59493 55.9988 7.80043C55.6905 8.0026 55.4519 8.26776 55.2828 8.59588C55.1171 8.92069 55.0343 9.27367 55.0343 9.65483V10.5249C55.0343 11.0353 55.1238 11.4695 55.3027 11.8274C55.485 12.1854 55.7386 12.4588 56.0634 12.6477C56.3882 12.8333 56.7677 12.9261 57.2019 12.9261C57.4836 12.9261 57.7405 12.8864 57.9725 12.8068C58.2045 12.724 58.405 12.6013 58.574 12.4389C58.7431 12.2765 58.8723 12.076 58.9618 11.8374L60.3688 12.0909C60.2561 12.5052 60.0539 12.8681 59.7623 13.1797C59.4739 13.4879 59.111 13.7282 58.6735 13.9006C58.2393 14.0696 57.7438 14.1541 57.187 14.1541ZM67.8349 8.22798L66.4876 8.46662C66.4312 8.29427 66.3417 8.13021 66.2191 7.97443C66.0998 7.81865 65.9374 7.69105 65.7319 7.59162C65.5264 7.49219 65.2695 7.44247 64.9613 7.44247C64.5404 7.44247 64.189 7.53693 63.9073 7.72585C63.6256 7.91146 63.4847 8.15175 63.4847 8.44673C63.4847 8.70194 63.5792 8.90743 63.7681 9.06321C63.957 9.21899 64.262 9.34659 64.6829 9.44602L65.896 9.72443C66.5986 9.88684 67.1223 10.1371 67.467 10.4751C67.8117 10.8132 67.984 11.2524 67.984 11.7926C67.984 12.25 67.8514 12.6577 67.5863 13.0156C67.3245 13.3703 66.9582 13.6487 66.4876 13.8509C66.0202 14.053 65.4783 14.1541 64.8619 14.1541C64.0067 14.1541 63.3091 13.9718 62.7688 13.6072C62.2286 13.2393 61.8971 12.7173 61.7745 12.0412L63.2113 11.8224C63.3008 12.197 63.4847 12.4804 63.7631 12.6726C64.0415 12.8615 64.4045 12.956 64.8519 12.956C65.3391 12.956 65.7286 12.8549 66.0202 12.6527C66.3119 12.4472 66.4577 12.197 66.4577 11.902C66.4577 11.6634 66.3683 11.4628 66.1893 11.3004C66.0136 11.138 65.7435 11.0154 65.3789 10.9325L64.0863 10.6491C63.3737 10.4867 62.8467 10.2282 62.5053 9.87358C62.1673 9.51894 61.9982 9.06984 61.9982 8.52628C61.9982 8.07552 62.1242 7.68111 62.3761 7.34304C62.628 7.00497 62.976 6.74148 63.4201 6.55256C63.8642 6.36032 64.373 6.2642 64.9464 6.2642C65.7717 6.2642 66.4213 6.44318 66.8952 6.80114C67.3692 7.15578 67.6824 7.63139 67.8349 8.22798Z" fill="black"/>
<path d="M97.1335 95L100.943 87.4659V87.402H96.5369V86.2727H102.307V87.4403L98.5099 95H97.1335Z" fill="#14192E"/>
<path d="M87 107H111V131H87V107Z" fill="#4C9EFF"/>
<path d="M93.5492 144.111H92.2196C92.1685 143.827 92.0733 143.577 91.9341 143.361C91.7949 143.145 91.6245 142.962 91.4228 142.811C91.2211 142.661 90.9952 142.547 90.7452 142.47C90.498 142.393 90.2353 142.355 89.9569 142.355C89.454 142.355 89.0037 142.482 88.606 142.734C88.2111 142.987 87.8986 143.358 87.6685 143.847C87.4412 144.335 87.3276 144.932 87.3276 145.636C87.3276 146.347 87.4412 146.946 87.6685 147.435C87.8986 147.923 88.2125 148.293 88.6103 148.543C89.008 148.793 89.4554 148.918 89.9526 148.918C90.2282 148.918 90.4895 148.881 90.7367 148.807C90.9867 148.73 91.2125 148.618 91.4142 148.47C91.6159 148.322 91.7864 148.142 91.9256 147.929C92.0676 147.713 92.1657 147.466 92.2196 147.188L93.5492 147.192C93.4782 147.621 93.3404 148.016 93.1358 148.376C92.9341 148.734 92.6742 149.044 92.356 149.305C92.0407 149.564 91.6799 149.764 91.2736 149.906C90.8674 150.048 90.4242 150.119 89.9441 150.119C89.1884 150.119 88.5151 149.94 87.9242 149.582C87.3333 149.222 86.8674 148.706 86.5265 148.036C86.1884 147.365 86.0194 146.565 86.0194 145.636C86.0194 144.705 86.1898 143.905 86.5307 143.237C86.8716 142.567 87.3375 142.053 87.9284 141.695C88.5194 141.334 89.1912 141.153 89.9441 141.153C90.4071 141.153 90.839 141.22 91.2395 141.354C91.6429 141.484 92.0051 141.678 92.3262 141.933C92.6472 142.186 92.9128 142.496 93.123 142.862C93.3333 143.226 93.4753 143.642 93.5492 144.111ZM99.8848 143.565C99.8393 143.162 99.6518 142.849 99.3223 142.628C98.9927 142.403 98.5779 142.291 98.0779 142.291C97.72 142.291 97.4103 142.348 97.149 142.462C96.8876 142.572 96.6845 142.726 96.5396 142.922C96.3975 143.115 96.3265 143.335 96.3265 143.582C96.3265 143.79 96.3748 143.969 96.4714 144.119C96.5708 144.27 96.7001 144.396 96.8592 144.499C97.0211 144.598 97.1944 144.682 97.3791 144.75C97.5637 144.815 97.7413 144.869 97.9118 144.912L98.764 145.134C99.0424 145.202 99.3279 145.294 99.6206 145.411C99.9132 145.527 100.184 145.68 100.434 145.871C100.684 146.061 100.886 146.297 101.04 146.578C101.196 146.859 101.274 147.196 101.274 147.588C101.274 148.082 101.146 148.521 100.89 148.905C100.638 149.288 100.27 149.591 99.7868 149.812C99.3066 150.034 98.7257 150.145 98.0439 150.145C97.3904 150.145 96.8251 150.041 96.3478 149.834C95.8706 149.626 95.497 149.332 95.2271 148.952C94.9572 148.568 94.8081 148.114 94.7797 147.588H96.1007C96.1262 147.903 96.2285 148.166 96.4075 148.376C96.5893 148.584 96.8208 148.739 97.1021 148.841C97.3862 148.94 97.6973 148.99 98.0353 148.99C98.4075 148.99 98.7385 148.932 99.0282 148.815C99.3208 148.696 99.551 148.531 99.7186 148.321C99.8862 148.108 99.97 147.859 99.97 147.575C99.97 147.317 99.8961 147.105 99.7484 146.94C99.6035 146.776 99.4061 146.639 99.1561 146.531C98.9089 146.423 98.6291 146.328 98.3166 146.246L97.2853 145.964C96.5865 145.774 96.0325 145.494 95.6234 145.125C95.2172 144.756 95.014 144.267 95.014 143.659C95.014 143.156 95.1504 142.717 95.4231 142.342C95.6958 141.967 96.0652 141.676 96.5311 141.469C96.997 141.259 97.5225 141.153 98.1078 141.153C98.6987 141.153 99.22 141.257 99.6717 141.464C100.126 141.672 100.484 141.957 100.746 142.321C101.007 142.682 101.143 143.097 101.155 143.565H99.8848ZM102.847 141.273H104.445L107.224 148.057H107.326L110.105 141.273H111.703V150H110.45V143.685H110.369L107.795 149.987H106.755L104.181 143.68H104.1V150H102.847V141.273Z" fill="#5F5F5F"/>
<path d="M190.067 144.111H188.737C188.686 143.827 188.591 143.577 188.452 143.361C188.313 143.145 188.142 142.962 187.94 142.811C187.739 142.661 187.513 142.547 187.263 142.47C187.016 142.393 186.753 142.355 186.474 142.355C185.972 142.355 185.521 142.482 185.124 142.734C184.729 142.987 184.416 143.358 184.186 143.847C183.959 144.335 183.845 144.932 183.845 145.636C183.845 146.347 183.959 146.946 184.186 147.435C184.416 147.923 184.73 148.293 185.128 148.543C185.526 148.793 185.973 148.918 186.47 148.918C186.746 148.918 187.007 148.881 187.254 148.807C187.504 148.73 187.73 148.618 187.932 148.47C188.134 148.322 188.304 148.142 188.443 147.929C188.585 147.713 188.683 147.466 188.737 147.188L190.067 147.192C189.996 147.621 189.858 148.016 189.653 148.376C189.452 148.734 189.192 149.044 188.874 149.305C188.558 149.564 188.197 149.764 187.791 149.906C187.385 150.048 186.942 150.119 186.462 150.119C185.706 150.119 185.033 149.94 184.442 149.582C183.851 149.222 183.385 148.706 183.044 148.036C182.706 147.365 182.537 146.565 182.537 145.636C182.537 144.705 182.707 143.905 183.048 143.237C183.389 142.567 183.855 142.053 184.446 141.695C185.037 141.334 185.709 141.153 186.462 141.153C186.925 141.153 187.357 141.22 187.757 141.354C188.161 141.484 188.523 141.678 188.844 141.933C189.165 142.186 189.43 142.496 189.641 142.862C189.851 143.226 189.993 143.642 190.067 144.111ZM196.402 143.565C196.357 143.162 196.169 142.849 195.84 142.628C195.51 142.403 195.096 142.291 194.596 142.291C194.238 142.291 193.928 142.348 193.667 142.462C193.405 142.572 193.202 142.726 193.057 142.922C192.915 143.115 192.844 143.335 192.844 143.582C192.844 143.79 192.892 143.969 192.989 144.119C193.088 144.27 193.218 144.396 193.377 144.499C193.539 144.598 193.712 144.682 193.897 144.75C194.081 144.815 194.259 144.869 194.429 144.912L195.282 145.134C195.56 145.202 195.846 145.294 196.138 145.411C196.431 145.527 196.702 145.68 196.952 145.871C197.202 146.061 197.404 146.297 197.557 146.578C197.713 146.859 197.792 147.196 197.792 147.588C197.792 148.082 197.664 148.521 197.408 148.905C197.155 149.288 196.787 149.591 196.304 149.812C195.824 150.034 195.243 150.145 194.561 150.145C193.908 150.145 193.343 150.041 192.865 149.834C192.388 149.626 192.015 149.332 191.745 148.952C191.475 148.568 191.326 148.114 191.297 147.588H192.618C192.644 147.903 192.746 148.166 192.925 148.376C193.107 148.584 193.338 148.739 193.62 148.841C193.904 148.94 194.215 148.99 194.553 148.99C194.925 148.99 195.256 148.932 195.546 148.815C195.838 148.696 196.069 148.531 196.236 148.321C196.404 148.108 196.488 147.859 196.488 147.575C196.488 147.317 196.414 147.105 196.266 146.94C196.121 146.776 195.924 146.639 195.674 146.531C195.426 146.423 195.147 146.328 194.834 146.246L193.803 145.964C193.104 145.774 192.55 145.494 192.141 145.125C191.735 144.756 191.532 144.267 191.532 143.659C191.532 143.156 191.668 142.717 191.941 142.342C192.213 141.967 192.583 141.676 193.049 141.469C193.515 141.259 194.04 141.153 194.625 141.153C195.216 141.153 195.738 141.257 196.189 141.464C196.644 141.672 197.002 141.957 197.263 142.321C197.525 142.682 197.661 143.097 197.672 143.565H196.402ZM199.365 150V141.273H202.476C203.152 141.273 203.713 141.389 204.159 141.622C204.608 141.855 204.943 142.178 205.165 142.589C205.386 142.999 205.497 143.472 205.497 144.009C205.497 144.543 205.385 145.013 205.161 145.419C204.939 145.822 204.604 146.136 204.155 146.361C203.709 146.585 203.148 146.697 202.472 146.697H200.115V145.564H202.352C202.778 145.564 203.125 145.503 203.392 145.381C203.662 145.259 203.859 145.081 203.984 144.848C204.109 144.615 204.172 144.335 204.172 144.009C204.172 143.679 204.108 143.393 203.98 143.152C203.855 142.911 203.658 142.726 203.388 142.598C203.121 142.467 202.77 142.402 202.335 142.402H200.682V150H199.365ZM203.673 146.062L205.83 150H204.33L202.216 146.062H203.673Z" fill="#5F5F5F"/>
<path d="M269.274 141.273V150H267.957V141.273H269.274ZM271.191 141.273H272.789L275.568 148.057H275.67L278.448 141.273H280.046V150H278.794V143.685H278.713L276.139 149.987H275.099L272.525 143.68H272.444V150H271.191V141.273Z" fill="#5F5F5F"/>
<path d="M190.151 49.2727V58H188.83V50.5938H188.778L186.69 51.9574V50.696L188.868 49.2727H190.151ZM195.413 49.1534C195.803 49.1562 196.186 49.2273 196.564 49.3665C196.942 49.5057 197.283 49.733 197.587 50.0483C197.893 50.3636 198.138 50.7898 198.32 51.3267C198.504 51.8608 198.598 52.5256 198.601 53.321C198.601 54.0852 198.524 54.7656 198.371 55.3622C198.217 55.956 197.997 56.4574 197.71 56.8665C197.426 57.2756 197.081 57.5866 196.675 57.7997C196.268 58.0128 195.811 58.1193 195.303 58.1193C194.783 58.1193 194.321 58.017 193.918 57.8125C193.514 57.608 193.186 57.3253 192.933 56.9645C192.68 56.6009 192.523 56.1832 192.46 55.7116H193.76C193.845 56.0866 194.018 56.3906 194.28 56.6236C194.544 56.8537 194.885 56.9688 195.303 56.9688C195.942 56.9688 196.44 56.6903 196.798 56.1335C197.156 55.5739 197.337 54.7926 197.339 53.7898H197.271C197.124 54.0341 196.939 54.2443 196.717 54.4205C196.499 54.5966 196.253 54.733 195.98 54.8295C195.707 54.9261 195.416 54.9744 195.107 54.9744C194.604 54.9744 194.146 54.8509 193.734 54.6037C193.322 54.3565 192.994 54.017 192.75 53.5852C192.506 53.1534 192.384 52.6605 192.384 52.1065C192.384 51.5554 192.509 51.0554 192.759 50.6065C193.011 50.1577 193.364 49.8026 193.815 49.5412C194.27 49.277 194.803 49.1477 195.413 49.1534ZM195.418 50.2614C195.085 50.2614 194.786 50.3437 194.518 50.5085C194.254 50.6705 194.045 50.8906 193.892 51.169C193.739 51.4446 193.662 51.7514 193.662 52.0895C193.662 52.4276 193.736 52.7344 193.884 53.0099C194.034 53.2827 194.239 53.5 194.497 53.6619C194.759 53.821 195.057 53.9006 195.392 53.9006C195.642 53.9006 195.875 53.8523 196.091 53.7557C196.307 53.6591 196.496 53.5256 196.658 53.3551C196.82 53.1818 196.946 52.9858 197.037 52.767C197.128 52.5483 197.173 52.3182 197.173 52.0767C197.173 51.7557 197.097 51.4574 196.943 51.1818C196.793 50.9062 196.585 50.6847 196.321 50.517C196.057 50.3466 195.756 50.2614 195.418 50.2614Z" fill="#14192E"/>
<path d="M182 71H206V131H182V71Z" fill="#4C9EFF"/>
<path d="M271.151 75.2727V84H269.83V76.5938H269.778L267.69 77.9574V76.696L269.868 75.2727H271.151ZM273.511 84V83.0455L276.464 79.9858C276.78 79.6534 277.04 79.3622 277.244 79.1122C277.452 78.8594 277.607 78.6193 277.709 78.392C277.811 78.1648 277.862 77.9233 277.862 77.6676C277.862 77.3778 277.794 77.1278 277.658 76.9176C277.521 76.7045 277.335 76.5412 277.099 76.4276C276.864 76.3111 276.598 76.2528 276.303 76.2528C275.99 76.2528 275.717 76.3168 275.484 76.4446C275.251 76.5724 275.072 76.7528 274.947 76.9858C274.822 77.2187 274.76 77.4915 274.76 77.804H273.503C273.503 77.2727 273.625 76.8082 273.869 76.4105C274.114 76.0128 274.449 75.7045 274.875 75.4858C275.301 75.2642 275.786 75.1534 276.328 75.1534C276.876 75.1534 277.359 75.2628 277.777 75.4815C278.197 75.6974 278.526 75.9929 278.761 76.3679C278.997 76.7401 279.115 77.1605 279.115 77.6293C279.115 77.9531 279.054 78.2699 278.932 78.5795C278.813 78.8892 278.604 79.2344 278.305 79.6151C278.007 79.9929 277.592 80.4517 277.061 80.9915L275.327 82.8068V82.8707H279.256V84H273.511Z" fill="#14192E"/>
<path d="M262 93H286V131H262V93Z" fill="#4C9EFF"/>
<path d="M346.839 49V48.0455L349.793 44.9858C350.108 44.6534 350.368 44.3622 350.572 44.1122C350.78 43.8594 350.935 43.6193 351.037 43.392C351.139 43.1648 351.19 42.9233 351.19 42.6676C351.19 42.3778 351.122 42.1278 350.986 41.9176C350.849 41.7045 350.663 41.5412 350.428 41.4276C350.192 41.3111 349.926 41.2528 349.631 41.2528C349.318 41.2528 349.045 41.3168 348.812 41.4446C348.58 41.5724 348.401 41.7528 348.276 41.9858C348.151 42.2187 348.088 42.4915 348.088 42.804H346.831C346.831 42.2727 346.953 41.8082 347.197 41.4105C347.442 41.0128 347.777 40.7045 348.203 40.4858C348.629 40.2642 349.114 40.1534 349.656 40.1534C350.205 40.1534 350.688 40.2628 351.105 40.4815C351.526 40.6974 351.854 40.9929 352.089 41.3679C352.325 41.7401 352.443 42.1605 352.443 42.6293C352.443 42.9531 352.382 43.2699 352.26 43.5795C352.141 43.8892 351.932 44.2344 351.634 44.6151C351.335 44.9929 350.92 45.4517 350.389 45.9915L348.655 47.8068V47.8707H352.584V49H346.839ZM357.08 49.1193C356.545 49.1193 356.065 49.017 355.639 48.8125C355.216 48.6051 354.878 48.321 354.625 47.9602C354.372 47.5994 354.237 47.1875 354.22 46.7244H355.499C355.53 47.0994 355.696 47.4077 355.997 47.6491C356.298 47.8906 356.659 48.0114 357.08 48.0114C357.415 48.0114 357.712 47.9347 357.97 47.7812C358.232 47.625 358.436 47.4105 358.584 47.1378C358.734 46.8651 358.81 46.554 358.81 46.2045C358.81 45.8494 358.733 45.5327 358.58 45.2543C358.426 44.9759 358.214 44.7571 357.945 44.598C357.678 44.4389 357.371 44.358 357.024 44.3551C356.76 44.3551 356.494 44.4006 356.227 44.4915C355.96 44.5824 355.744 44.7017 355.58 44.8494L354.374 44.6705L354.864 40.2727H359.662V41.402H355.959L355.682 43.8438H355.733C355.903 43.679 356.129 43.5412 356.411 43.4304C356.695 43.3196 356.999 43.2642 357.322 43.2642C357.854 43.2642 358.327 43.3906 358.741 43.6435C359.159 43.8963 359.487 44.2415 359.726 44.679C359.967 45.1136 360.087 45.6136 360.084 46.179C360.087 46.7443 359.959 47.2486 359.7 47.6918C359.445 48.1349 359.089 48.4844 358.635 48.7401C358.183 48.9929 357.665 49.1193 357.08 49.1193Z" fill="#14192E"/>
<path d="M342 58H366V132H342V58Z" fill="#3671EF"/>
<path d="M328.573 150H327.175L330.316 141.273H331.837L334.978 150H333.58L331.113 142.858H331.045L328.573 150ZM328.807 146.582H333.341V147.69H328.807V146.582ZM338.787 150.132C338.154 150.132 337.608 149.989 337.151 149.702C336.697 149.412 336.347 149.013 336.103 148.504C335.858 147.996 335.736 147.413 335.736 146.757C335.736 146.092 335.861 145.506 336.111 144.997C336.361 144.486 336.714 144.087 337.168 143.8C337.623 143.513 338.158 143.369 338.775 143.369C339.272 143.369 339.715 143.462 340.104 143.646C340.493 143.828 340.807 144.084 341.046 144.413C341.287 144.743 341.431 145.128 341.476 145.568H340.236C340.168 145.261 340.012 144.997 339.768 144.776C339.526 144.554 339.202 144.443 338.796 144.443C338.441 144.443 338.13 144.537 337.863 144.724C337.599 144.909 337.393 145.173 337.245 145.517C337.097 145.858 337.023 146.261 337.023 146.727C337.023 147.205 337.096 147.616 337.241 147.963C337.385 148.31 337.59 148.578 337.854 148.768C338.121 148.959 338.435 149.054 338.796 149.054C339.037 149.054 339.256 149.01 339.452 148.922C339.651 148.831 339.817 148.702 339.951 148.534C340.087 148.366 340.182 148.165 340.236 147.929H341.476C341.431 148.352 341.293 148.73 341.063 149.062C340.833 149.395 340.525 149.656 340.138 149.847C339.755 150.037 339.305 150.132 338.787 150.132ZM345.596 150.132C344.963 150.132 344.417 149.989 343.96 149.702C343.505 149.412 343.156 149.013 342.911 148.504C342.667 147.996 342.545 147.413 342.545 146.757C342.545 146.092 342.67 145.506 342.92 144.997C343.17 144.486 343.522 144.087 343.977 143.8C344.431 143.513 344.967 143.369 345.583 143.369C346.08 143.369 346.524 143.462 346.913 143.646C347.302 143.828 347.616 144.084 347.855 144.413C348.096 144.743 348.24 145.128 348.285 145.568H347.045C346.977 145.261 346.82 144.997 346.576 144.776C346.335 144.554 346.011 144.443 345.605 144.443C345.249 144.443 344.938 144.537 344.671 144.724C344.407 144.909 344.201 145.173 344.053 145.517C343.906 145.858 343.832 146.261 343.832 146.727C343.832 147.205 343.904 147.616 344.049 147.963C344.194 148.31 344.399 148.578 344.663 148.768C344.93 148.959 345.244 149.054 345.605 149.054C345.846 149.054 346.065 149.01 346.261 148.922C346.46 148.831 346.626 148.702 346.759 148.534C346.896 148.366 346.991 148.165 347.045 147.929H348.285C348.24 148.352 348.102 148.73 347.872 149.062C347.642 149.395 347.333 149.656 346.947 149.847C346.563 150.037 346.113 150.132 345.596 150.132ZM352.405 150.132C351.791 150.132 351.256 149.991 350.798 149.71C350.341 149.429 349.986 149.036 349.733 148.53C349.48 148.024 349.354 147.433 349.354 146.757C349.354 146.078 349.48 145.484 349.733 144.976C349.986 144.467 350.341 144.072 350.798 143.791C351.256 143.51 351.791 143.369 352.405 143.369C353.018 143.369 353.554 143.51 354.011 143.791C354.469 144.072 354.824 144.467 355.077 144.976C355.329 145.484 355.456 146.078 355.456 146.757C355.456 147.433 355.329 148.024 355.077 148.53C354.824 149.036 354.469 149.429 354.011 149.71C353.554 149.991 353.018 150.132 352.405 150.132ZM352.409 149.062C352.807 149.062 353.136 148.957 353.398 148.747C353.659 148.537 353.852 148.257 353.977 147.908C354.105 147.558 354.169 147.173 354.169 146.753C354.169 146.335 354.105 145.952 353.977 145.602C353.852 145.25 353.659 144.967 353.398 144.754C353.136 144.541 352.807 144.435 352.409 144.435C352.008 144.435 351.676 144.541 351.412 144.754C351.15 144.967 350.956 145.25 350.828 145.602C350.703 145.952 350.64 146.335 350.64 146.753C350.64 147.173 350.703 147.558 350.828 147.908C350.956 148.257 351.15 148.537 351.412 148.747C351.676 148.957 352.008 149.062 352.409 149.062ZM361.024 147.286V143.455H362.303V150H361.05V148.866H360.982C360.831 149.216 360.59 149.507 360.257 149.74C359.928 149.97 359.517 150.085 359.026 150.085C358.605 150.085 358.233 149.993 357.909 149.808C357.588 149.621 357.335 149.344 357.151 148.977C356.969 148.611 356.878 148.158 356.878 147.618V143.455H358.152V147.464C358.152 147.911 358.276 148.266 358.523 148.53C358.77 148.794 359.091 148.926 359.486 148.926C359.725 148.926 359.962 148.866 360.198 148.747C360.436 148.628 360.634 148.447 360.79 148.206C360.949 147.964 361.027 147.658 361.024 147.286ZM365.289 146.114V150H364.015V143.455H365.238V144.52H365.319C365.469 144.173 365.705 143.895 366.026 143.685C366.35 143.474 366.758 143.369 367.249 143.369C367.695 143.369 368.086 143.463 368.421 143.651C368.756 143.835 369.016 144.111 369.201 144.477C369.385 144.844 369.478 145.297 369.478 145.837V150H368.204V145.99C368.204 145.516 368.08 145.145 367.833 144.878C367.586 144.608 367.246 144.473 366.814 144.473C366.519 144.473 366.256 144.537 366.026 144.665C365.799 144.793 365.618 144.98 365.485 145.227C365.354 145.472 365.289 145.767 365.289 146.114ZM374.242 143.455V144.477H370.667V143.455H374.242ZM371.626 141.886H372.9V148.078C372.9 148.325 372.937 148.511 373.01 148.636C373.084 148.759 373.18 148.842 373.296 148.888C373.415 148.93 373.545 148.952 373.684 148.952C373.786 148.952 373.876 148.945 373.952 148.93C374.029 148.916 374.089 148.905 374.131 148.896L374.361 149.949C374.287 149.977 374.182 150.006 374.046 150.034C373.91 150.065 373.739 150.082 373.535 150.085C373.199 150.091 372.887 150.031 372.597 149.906C372.307 149.781 372.073 149.588 371.894 149.327C371.715 149.065 371.626 148.737 371.626 148.342V141.886ZM380.451 145.053L379.296 145.257C379.248 145.109 379.171 144.969 379.066 144.835C378.964 144.702 378.824 144.592 378.648 144.507C378.472 144.422 378.252 144.379 377.988 144.379C377.627 144.379 377.326 144.46 377.084 144.622C376.843 144.781 376.722 144.987 376.722 145.24C376.722 145.459 376.803 145.635 376.965 145.768C377.127 145.902 377.388 146.011 377.749 146.097L378.789 146.335C379.391 146.474 379.84 146.689 380.135 146.979C380.431 147.268 380.579 147.645 380.579 148.108C380.579 148.5 380.465 148.849 380.238 149.156C380.013 149.46 379.699 149.699 379.296 149.872C378.895 150.045 378.431 150.132 377.903 150.132C377.17 150.132 376.572 149.976 376.108 149.663C375.645 149.348 375.361 148.901 375.256 148.321L376.488 148.134C376.564 148.455 376.722 148.697 376.961 148.862C377.199 149.024 377.51 149.105 377.894 149.105C378.312 149.105 378.645 149.018 378.895 148.845C379.145 148.669 379.27 148.455 379.27 148.202C379.27 147.997 379.194 147.825 379.04 147.686C378.89 147.547 378.658 147.442 378.346 147.371L377.238 147.128C376.627 146.989 376.175 146.767 375.883 146.463C375.593 146.159 375.448 145.774 375.448 145.308C375.448 144.922 375.556 144.584 375.772 144.294C375.988 144.004 376.286 143.778 376.667 143.616C377.047 143.452 377.483 143.369 377.975 143.369C378.682 143.369 379.239 143.523 379.645 143.83C380.052 144.134 380.32 144.541 380.451 145.053Z" fill="#5F5F5F"/>
</svg>
