<svg width="16" height="16" viewBox="0 0 16 16" fill="none" xmlns="http://www.w3.org/2000/svg">
<path d="M13.9196 1.59961H10.0796C9.81451 1.59961 9.59961 2.13687 9.59961 2.79961V5.19961C9.59961 5.86235 9.81451 6.39961 10.0796 6.39961H13.9196C14.1847 6.39961 14.3996 5.86235 14.3996 5.19961V2.79961C14.3996 2.13687 14.1847 1.59961 13.9196 1.59961Z" stroke="#5F5F5F" stroke-linecap="round" stroke-linejoin="round"/>
<path d="M5.91961 1.59961H2.07961C1.81451 1.59961 1.59961 2.13687 1.59961 2.79961V5.19961C1.59961 5.86235 1.81451 6.39961 2.07961 6.39961H5.91961C6.18471 6.39961 6.39961 5.86235 6.39961 5.19961V2.79961C6.39961 2.13687 6.18471 1.59961 5.91961 1.59961Z" stroke="#5F5F5F" stroke-linecap="round" stroke-linejoin="round"/>
<path d="M13.9196 9.59961H10.0796C9.81451 9.59961 9.59961 10.1369 9.59961 10.7996V13.1996C9.59961 13.8624 9.81451 14.3996 10.0796 14.3996H13.9196C14.1847 14.3996 14.3996 13.8624 14.3996 13.1996V10.7996C14.3996 10.1369 14.1847 9.59961 13.9196 9.59961Z" stroke="#5F5F5F" stroke-linecap="round" stroke-linejoin="round"/>
<path d="M5.91961 9.59961H2.07961C1.81451 9.59961 1.59961 10.1369 1.59961 10.7996V13.1996C1.59961 13.8624 1.81451 14.3996 2.07961 14.3996H5.91961C6.18471 14.3996 6.39961 13.8624 6.39961 13.1996V10.7996C6.39961 10.1369 6.18471 9.59961 5.91961 9.59961Z" stroke="#5F5F5F" stroke-linecap="round" stroke-linejoin="round"/>
</svg>
