<svg width="24" height="25" viewBox="0 0 24 25" fill="none" xmlns="http://www.w3.org/2000/svg">
<path fill-rule="evenodd" clip-rule="evenodd" d="M8.25 6.5C5.97183 6.5 4.125 8.34683 4.125 10.625C4.125 12.9032 5.97183 14.75 8.25 14.75C10.5282 14.75 12.375 12.9032 12.375 10.625C12.375 8.34683 10.5282 6.5 8.25 6.5ZM2.625 10.625C2.625 7.5184 5.1434 5 8.25 5C11.3566 5 13.875 7.5184 13.875 10.625C13.875 13.7316 11.3566 16.25 8.25 16.25C5.1434 16.25 2.625 13.7316 2.625 10.625Z" fill="#5F5F5F"/>
<path fill-rule="evenodd" clip-rule="evenodd" d="M15.8881 5.00001L15.8904 5C17.3823 5 18.813 5.59264 19.8679 6.64753C20.9228 7.70242 21.5154 9.13316 21.5154 10.625C21.5154 12.1168 20.9228 13.5476 19.8679 14.6025C18.813 15.6574 17.3823 16.25 15.8904 16.25C15.4762 16.25 15.1404 15.9142 15.1404 15.5C15.1404 15.0858 15.4762 14.75 15.8904 14.75C16.9844 14.75 18.0336 14.3154 18.8072 13.5418C19.5808 12.7682 20.0154 11.719 20.0154 10.625C20.0154 9.53099 19.5808 8.48178 18.8072 7.70819C18.0339 6.93487 16.9852 6.5003 15.8916 6.5C15.511 6.50126 15.1322 6.55235 14.7649 6.65198C14.3651 6.7604 13.9531 6.52422 13.8447 6.12445C13.7363 5.72468 13.9725 5.3127 14.3722 5.20428C14.8664 5.07024 15.3761 5.00157 15.8881 5.00001Z" fill="#5F5F5F"/>
<path fill-rule="evenodd" clip-rule="evenodd" d="M8.25006 16.25C7.0465 16.25 5.86061 16.5397 4.79257 17.0945C3.72453 17.6493 2.8057 18.4531 2.1137 19.4378C1.87554 19.7767 1.40775 19.8584 1.06884 19.6202C0.729942 19.3821 0.648271 18.9143 0.886427 18.5754C1.71683 17.3937 2.81942 16.4292 4.10107 15.7634C5.38272 15.0976 6.80579 14.75 8.25006 14.75C9.69434 14.75 11.1174 15.0976 12.3991 15.7634C13.6807 16.4292 14.7833 17.3937 15.6137 18.5754C15.8519 18.9143 15.7702 19.3821 15.4313 19.6202C15.0924 19.8584 14.6246 19.7767 14.3864 19.4378C13.6944 18.4531 12.7756 17.6493 11.7076 17.0945C10.6395 16.5397 9.45363 16.25 8.25006 16.25Z" fill="#5F5F5F"/>
<path fill-rule="evenodd" clip-rule="evenodd" d="M19.3486 17.0933C18.2806 16.5385 17.0946 16.2493 15.8911 16.25C15.4769 16.2503 15.1409 15.9147 15.1406 15.5005C15.1404 15.0863 15.4759 14.7503 15.8902 14.75C17.3347 14.7491 18.7582 15.0963 20.0401 15.7622C21.322 16.4281 22.4246 17.393 23.2545 18.5754C23.4925 18.9144 23.4105 19.3821 23.0715 19.6201C22.7325 19.8581 22.2647 19.7762 22.0268 19.4371C21.3353 18.4521 20.4167 17.6481 19.3486 17.0933Z" fill="#5F5F5F"/>
</svg>
