<svg width="469" height="214" viewBox="0 0 469 214" fill="none" xmlns="http://www.w3.org/2000/svg">
<line x1="28.5146" y1="74.4856" x2="469.001" y2="74.4856" stroke="#E9E9E9" stroke-width="0.630377"/>
<line x1="28.5146" y1="34.7727" x2="469.001" y2="34.7727" stroke="#E9E9E9" stroke-width="0.630377"/>
<line x1="28.5146" y1="114.2" x2="469.001" y2="114.2" stroke="#E9E9E9" stroke-width="0.630377"/>
<line x1="28.5146" y1="153.913" x2="469.001" y2="153.913" stroke="#E9E9E9" stroke-width="0.630377"/>
<line x1="28.5146" y1="193.628" x2="469.001" y2="193.628" stroke="#E9E9E9" stroke-width="0.630377"/>
<path d="M30.0557 128.494C52.4532 124.082 50.9601 150.29 80.4502 154.114C109.94 157.938 118.153 131.172 131.591 123.525C145.03 115.878 151.003 81.0303 173.4 83.3833C195.798 85.7363 206.997 109.313 225.661 112.254C244.326 115.195 248.059 134.702 265.604 149.114C283.148 163.526 299.2 165.291 321.224 162.349C343.248 159.408 349.221 129.67 359.673 128.494C370.126 127.317 379.458 141.498 388.417 144.734C397.376 147.969 399.989 162.349 419.027 162.349" stroke="#F5DFA5" stroke-width="2.52151" stroke-linecap="round" stroke-linejoin="round"/>
<path d="M0.465909 74.8888V74.3093L3.02273 70.2638H3.44318V71.1616H3.15909L1.22727 74.2184V74.2638H4.67045V74.8888H0.465909ZM3.20455 76.082V74.7127V74.4428V70.2638H3.875V76.082H3.20455ZM7.63281 76.1616C7.20478 76.1616 6.8402 76.0451 6.53906 75.8121C6.23793 75.5773 6.00781 75.2373 5.84872 74.7923C5.68963 74.3453 5.61009 73.8055 5.61009 73.1729C5.61009 72.5442 5.68963 72.0072 5.84872 71.5621C6.00971 71.1152 6.24077 70.7743 6.5419 70.5394C6.84493 70.3027 7.20857 70.1843 7.63281 70.1843C8.05705 70.1843 8.41974 70.3027 8.72088 70.5394C9.02391 70.7743 9.25497 71.1152 9.41406 71.5621C9.57505 72.0072 9.65554 72.5442 9.65554 73.1729C9.65554 73.8055 9.57599 74.3453 9.4169 74.7923C9.25781 75.2373 9.0277 75.5773 8.72656 75.8121C8.42543 76.0451 8.06084 76.1616 7.63281 76.1616ZM7.63281 75.5366C8.05705 75.5366 8.3866 75.332 8.62145 74.9229C8.8563 74.5138 8.97372 73.9305 8.97372 73.1729C8.97372 72.6692 8.91974 72.2402 8.81179 71.886C8.70573 71.5318 8.55232 71.262 8.35156 71.0763C8.1527 70.8907 7.91312 70.7979 7.63281 70.7979C7.21236 70.7979 6.88376 71.0053 6.64702 71.4201C6.41027 71.833 6.2919 72.4173 6.2919 73.1729C6.2919 73.6767 6.34493 74.1048 6.45099 74.457C6.55705 74.8093 6.70952 75.0773 6.90838 75.261C7.10914 75.4447 7.35062 75.5366 7.63281 75.5366Z" fill="#5F5F5F"/>
<path d="M2.42045 37.0795C2.08712 37.0795 1.78693 37.0133 1.51989 36.8807C1.25284 36.7481 1.03883 36.5663 0.877841 36.3352C0.716856 36.1042 0.628788 35.8409 0.613636 35.5455H1.29545C1.32197 35.8087 1.44129 36.0265 1.65341 36.1989C1.86742 36.3693 2.12311 36.4545 2.42045 36.4545C2.65909 36.4545 2.87121 36.3987 3.05682 36.2869C3.24432 36.1752 3.3911 36.0218 3.49716 35.8267C3.60511 35.6297 3.65909 35.4072 3.65909 35.1591C3.65909 34.9053 3.60322 34.679 3.49148 34.4801C3.38163 34.2794 3.23011 34.1212 3.03693 34.0057C2.84375 33.8902 2.62311 33.8314 2.375 33.8295C2.19697 33.8277 2.0142 33.8551 1.8267 33.9119C1.6392 33.9669 1.48485 34.0379 1.36364 34.125L0.704545 34.0455L1.05682 31.1818H4.07955V31.8068H1.64773L1.44318 33.5227H1.47727C1.59659 33.428 1.74621 33.3494 1.92614 33.2869C2.10606 33.2244 2.29356 33.1932 2.48864 33.1932C2.8447 33.1932 3.16193 33.2784 3.44034 33.4489C3.72064 33.6174 3.94034 33.8485 4.09943 34.142C4.26042 34.4356 4.34091 34.7708 4.34091 35.1477C4.34091 35.5189 4.25758 35.8504 4.09091 36.142C3.92614 36.4318 3.69886 36.661 3.40909 36.8295C3.11932 36.9962 2.78977 37.0795 2.42045 37.0795ZM7.36719 37.0795C6.93916 37.0795 6.57457 36.9631 6.27344 36.7301C5.9723 36.4953 5.74219 36.1553 5.5831 35.7102C5.42401 35.2633 5.34446 34.7235 5.34446 34.0909C5.34446 33.4621 5.42401 32.9252 5.5831 32.4801C5.74408 32.0331 5.97514 31.6922 6.27628 31.4574C6.57931 31.2206 6.94295 31.1023 7.36719 31.1023C7.79143 31.1023 8.15412 31.2206 8.45526 31.4574C8.75829 31.6922 8.98935 32.0331 9.14844 32.4801C9.30942 32.9252 9.38991 33.4621 9.38991 34.0909C9.38991 34.7235 9.31037 35.2633 9.15128 35.7102C8.99219 36.1553 8.76207 36.4953 8.46094 36.7301C8.1598 36.9631 7.79522 37.0795 7.36719 37.0795ZM7.36719 36.4545C7.79143 36.4545 8.12098 36.25 8.35582 35.8409C8.59067 35.4318 8.7081 34.8485 8.7081 34.0909C8.7081 33.5871 8.65412 33.1581 8.54616 32.804C8.4401 32.4498 8.2867 32.1799 8.08594 31.9943C7.88707 31.8087 7.64749 31.7159 7.36719 31.7159C6.94673 31.7159 6.61813 31.9233 6.38139 32.3381C6.14465 32.7509 6.02628 33.3352 6.02628 34.0909C6.02628 34.5947 6.07931 35.0227 6.18537 35.375C6.29143 35.7273 6.44389 35.9953 6.64276 36.179C6.84351 36.3627 7.08499 36.4545 7.36719 36.4545Z" fill="#5F5F5F"/>
<path d="M2.56818 115.876C2.19318 115.876 1.8589 115.812 1.56534 115.683C1.27367 115.554 1.04167 115.375 0.869318 115.146C0.698864 114.915 0.606061 114.647 0.590909 114.342H1.30682C1.32197 114.53 1.38636 114.692 1.5 114.828C1.61364 114.963 1.76231 115.067 1.94602 115.141C2.12973 115.214 2.33333 115.251 2.55682 115.251C2.80682 115.251 3.02841 115.208 3.22159 115.121C3.41477 115.034 3.56629 114.912 3.67614 114.757C3.78598 114.602 3.84091 114.422 3.84091 114.217C3.84091 114.003 3.78788 113.815 3.68182 113.652C3.57576 113.487 3.42045 113.358 3.21591 113.266C3.01136 113.173 2.76136 113.126 2.46591 113.126H2V112.501H2.46591C2.69697 112.501 2.89962 112.46 3.07386 112.376C3.25 112.293 3.38731 112.176 3.4858 112.024C3.58617 111.873 3.63636 111.695 3.63636 111.49C3.63636 111.293 3.5928 111.122 3.50568 110.976C3.41856 110.83 3.29545 110.716 3.13636 110.635C2.97917 110.554 2.79356 110.513 2.57955 110.513C2.37879 110.513 2.18939 110.55 2.01136 110.624C1.83523 110.696 1.69129 110.801 1.57955 110.939C1.4678 111.075 1.4072 111.24 1.39773 111.433H0.715909C0.727273 111.128 0.819129 110.861 0.991477 110.632C1.16383 110.401 1.3892 110.221 1.66761 110.092C1.94792 109.964 2.25568 109.899 2.59091 109.899C2.95076 109.899 3.25947 109.972 3.51705 110.118C3.77462 110.262 3.97254 110.452 4.1108 110.689C4.24905 110.926 4.31818 111.181 4.31818 111.456C4.31818 111.784 4.23201 112.063 4.05966 112.294C3.8892 112.525 3.6572 112.685 3.36364 112.774V112.82C3.73106 112.88 4.01799 113.036 4.22443 113.288C4.43087 113.538 4.53409 113.848 4.53409 114.217C4.53409 114.534 4.44792 114.818 4.27557 115.07C4.10511 115.32 3.87216 115.517 3.5767 115.661C3.28125 115.804 2.94508 115.876 2.56818 115.876ZM7.59375 115.876C7.16572 115.876 6.80114 115.76 6.5 115.527C6.19886 115.292 5.96875 114.952 5.80966 114.507C5.65057 114.06 5.57102 113.52 5.57102 112.888C5.57102 112.259 5.65057 111.722 5.80966 111.277C5.97064 110.83 6.2017 110.489 6.50284 110.254C6.80587 110.018 7.16951 109.899 7.59375 109.899C8.01799 109.899 8.38068 110.018 8.68182 110.254C8.98485 110.489 9.21591 110.83 9.375 111.277C9.53598 111.722 9.61648 112.259 9.61648 112.888C9.61648 113.52 9.53693 114.06 9.37784 114.507C9.21875 114.952 8.98864 115.292 8.6875 115.527C8.38636 115.76 8.02178 115.876 7.59375 115.876ZM7.59375 115.251C8.01799 115.251 8.34754 115.047 8.58239 114.638C8.81723 114.229 8.93466 113.645 8.93466 112.888C8.93466 112.384 8.88068 111.955 8.77273 111.601C8.66667 111.247 8.51326 110.977 8.3125 110.791C8.11364 110.606 7.87405 110.513 7.59375 110.513C7.1733 110.513 6.8447 110.72 6.60795 111.135C6.37121 111.548 6.25284 112.132 6.25284 112.888C6.25284 113.392 6.30587 113.82 6.41193 114.172C6.51799 114.524 6.67045 114.792 6.86932 114.976C7.07008 115.16 7.31155 115.251 7.59375 115.251Z" fill="#5F5F5F"/>
<path d="M0.602273 153.619V153.108L2.52273 151.006C2.74811 150.759 2.93371 150.545 3.07955 150.363C3.22538 150.18 3.33333 150.007 3.40341 149.846C3.47538 149.684 3.51136 149.513 3.51136 149.335C3.51136 149.131 3.46212 148.953 3.36364 148.804C3.26705 148.654 3.13447 148.539 2.96591 148.457C2.79735 148.376 2.60795 148.335 2.39773 148.335C2.17424 148.335 1.97917 148.381 1.8125 148.474C1.64773 148.565 1.51989 148.693 1.42898 148.858C1.33996 149.023 1.29545 149.216 1.29545 149.437H0.625C0.625 149.096 0.703598 148.797 0.860795 148.54C1.01799 148.282 1.23201 148.081 1.50284 147.937C1.77557 147.793 2.08144 147.721 2.42045 147.721C2.76136 147.721 3.06345 147.793 3.3267 147.937C3.58996 148.081 3.7964 148.275 3.94602 148.52C4.09564 148.764 4.17045 149.036 4.17045 149.335C4.17045 149.549 4.13163 149.758 4.05398 149.963C3.97822 150.166 3.84564 150.392 3.65625 150.642C3.46875 150.89 3.20833 151.193 2.875 151.551L1.56818 152.949V152.994H4.27273V153.619H0.602273ZM7.34375 153.699C6.91572 153.699 6.55114 153.582 6.25 153.349C5.94886 153.114 5.71875 152.774 5.55966 152.329C5.40057 151.882 5.32102 151.343 5.32102 150.71C5.32102 150.081 5.40057 149.544 5.55966 149.099C5.72064 148.652 5.9517 148.311 6.25284 148.077C6.55587 147.84 6.91951 147.721 7.34375 147.721C7.76799 147.721 8.13068 147.84 8.43182 148.077C8.73485 148.311 8.96591 148.652 9.125 149.099C9.28598 149.544 9.36648 150.081 9.36648 150.71C9.36648 151.343 9.28693 151.882 9.12784 152.329C8.96875 152.774 8.73864 153.114 8.4375 153.349C8.13636 153.582 7.77178 153.699 7.34375 153.699ZM7.34375 153.074C7.76799 153.074 8.09754 152.869 8.33239 152.46C8.56723 152.051 8.68466 151.468 8.68466 150.71C8.68466 150.206 8.63068 149.777 8.52273 149.423C8.41667 149.069 8.26326 148.799 8.0625 148.613C7.86364 148.428 7.62405 148.335 7.34375 148.335C6.9233 148.335 6.5947 148.542 6.35795 148.957C6.12121 149.37 6.00284 149.954 6.00284 150.71C6.00284 151.214 6.05587 151.642 6.16193 151.994C6.26799 152.346 6.42045 152.614 6.61932 152.798C6.82008 152.982 7.06155 153.074 7.34375 153.074Z" fill="#5F5F5F"/>
<path d="M2.64773 191.928V197.746H1.94318V192.667H1.90909L0.488636 193.61V192.894L1.94318 191.928H2.64773ZM6.21875 197.826C5.79072 197.826 5.42614 197.709 5.125 197.476C4.82386 197.241 4.59375 196.901 4.43466 196.456C4.27557 196.009 4.19602 195.47 4.19602 194.837C4.19602 194.208 4.27557 193.671 4.43466 193.226C4.59564 192.779 4.8267 192.438 5.12784 192.203C5.43087 191.967 5.79451 191.848 6.21875 191.848C6.64299 191.848 7.00568 191.967 7.30682 192.203C7.60985 192.438 7.84091 192.779 8 193.226C8.16098 193.671 8.24148 194.208 8.24148 194.837C8.24148 195.47 8.16193 196.009 8.00284 196.456C7.84375 196.901 7.61364 197.241 7.3125 197.476C7.01136 197.709 6.64678 197.826 6.21875 197.826ZM6.21875 197.201C6.64299 197.201 6.97254 196.996 7.20739 196.587C7.44223 196.178 7.55966 195.595 7.55966 194.837C7.55966 194.333 7.50568 193.904 7.39773 193.55C7.29167 193.196 7.13826 192.926 6.9375 192.74C6.73864 192.555 6.49905 192.462 6.21875 192.462C5.7983 192.462 5.4697 192.669 5.23295 193.084C4.99621 193.497 4.87784 194.081 4.87784 194.837C4.87784 195.341 4.93087 195.769 5.03693 196.121C5.14299 196.473 5.29545 196.741 5.49432 196.925C5.69508 197.109 5.93655 197.201 6.21875 197.201Z" fill="#5F5F5F"/>
<path d="M29.5176 154.671C46.6743 150.774 60.7825 127.009 81.2535 123.015C92.1643 120.886 100.905 125.029 110.657 131.468C120.41 137.906 118.501 140.687 140.434 145.65C158.533 149.746 163.268 105.584 181.003 107.281C198.739 108.977 206.942 55.8805 225.668 60.3128C244.393 64.7451 248.134 53.2855 265.736 75.0039C283.338 96.7223 299.6 46.0982 321.695 41.6659C343.791 37.2336 349.546 84.2774 360.032 82.5045C370.518 80.7316 379.96 114.253 388.948 119.129C397.936 124.004 400.485 106.293 419.584 106.293" stroke="#095AA5" stroke-width="2.52151" stroke-linecap="round" stroke-linejoin="round"/>
<path d="M81.2535 123.015C60.7825 127.009 46.6743 150.774 29.5176 154.671V164.283H419.584V106.293C400.485 106.293 397.936 124.005 388.948 119.129C379.96 114.253 370.518 80.7316 360.032 82.5045C349.546 84.2774 343.791 37.2336 321.695 41.6659C299.6 46.0982 283.338 96.7223 265.736 75.0039C248.134 53.2855 244.393 64.7451 225.668 60.3128C206.942 55.8805 198.739 108.977 181.003 107.281C163.268 105.584 158.533 149.746 140.434 145.65C118.501 140.687 120.41 137.906 110.657 131.468C100.905 125.029 92.1643 120.886 81.2535 123.015Z" fill="url(#paint0_linear_1686_11492)"/>
<path d="M34.5426 208H33.8381C33.7964 207.797 33.7235 207.619 33.6193 207.466C33.517 207.312 33.392 207.184 33.2443 207.08C33.0985 206.973 32.9366 206.894 32.7585 206.841C32.5805 206.788 32.3949 206.761 32.2017 206.761C31.8494 206.761 31.5303 206.85 31.2443 207.028C30.9602 207.206 30.7339 207.469 30.5653 207.815C30.3987 208.162 30.3153 208.587 30.3153 209.091C30.3153 209.595 30.3987 210.02 30.5653 210.366C30.7339 210.713 30.9602 210.975 31.2443 211.153C31.5303 211.331 31.8494 211.42 32.2017 211.42C32.3949 211.42 32.5805 211.394 32.7585 211.341C32.9366 211.288 33.0985 211.209 33.2443 211.105C33.392 210.999 33.517 210.869 33.6193 210.716C33.7235 210.561 33.7964 210.383 33.8381 210.182H34.5426C34.4896 210.479 34.393 210.745 34.2528 210.98C34.1127 211.215 33.9384 211.415 33.7301 211.58C33.5218 211.742 33.2879 211.866 33.0284 211.952C32.7708 212.037 32.4953 212.08 32.2017 212.08C31.7055 212.08 31.2642 211.958 30.8778 211.716C30.4915 211.473 30.1875 211.129 29.9659 210.682C29.7443 210.235 29.6335 209.705 29.6335 209.091C29.6335 208.477 29.7443 207.947 29.9659 207.5C30.1875 207.053 30.4915 206.708 30.8778 206.466C31.2642 206.223 31.7055 206.102 32.2017 206.102C32.4953 206.102 32.7708 206.145 33.0284 206.23C33.2879 206.315 33.5218 206.44 33.7301 206.605C33.9384 206.768 34.1127 206.967 34.2528 207.202C34.393 207.435 34.4896 207.701 34.5426 208ZM36.8743 212.102C36.5978 212.102 36.3468 212.05 36.1214 211.946C35.8961 211.84 35.7171 211.688 35.5845 211.489C35.4519 211.288 35.3857 211.045 35.3857 210.761C35.3857 210.511 35.4349 210.309 35.5334 210.153C35.6319 209.996 35.7635 209.873 35.9283 209.784C36.093 209.695 36.2749 209.629 36.4737 209.585C36.6745 209.54 36.8762 209.504 37.0788 209.477C37.344 209.443 37.5589 209.418 37.7237 209.401C37.8904 209.382 38.0116 209.35 38.0874 209.307C38.165 209.263 38.2038 209.187 38.2038 209.08V209.057C38.2038 208.777 38.1271 208.559 37.9737 208.403C37.8222 208.248 37.5921 208.17 37.2834 208.17C36.9633 208.17 36.7124 208.241 36.5305 208.381C36.3487 208.521 36.2209 208.67 36.147 208.83L35.5107 208.602C35.6243 208.337 35.7758 208.131 35.9652 207.983C36.1565 207.833 36.3648 207.729 36.5902 207.67C36.8175 207.61 37.041 207.58 37.2607 207.58C37.4008 207.58 37.5618 207.597 37.7436 207.631C37.9273 207.663 38.1044 207.73 38.2749 207.832C38.4472 207.935 38.5902 208.089 38.7038 208.295C38.8175 208.502 38.8743 208.778 38.8743 209.125V212H38.2038V211.409H38.1697C38.1243 211.504 38.0485 211.605 37.9425 211.713C37.8364 211.821 37.6953 211.913 37.5192 211.989C37.343 212.064 37.1281 212.102 36.8743 212.102ZM36.9766 211.5C37.2417 211.5 37.4652 211.448 37.647 211.344C37.8307 211.24 37.969 211.105 38.0618 210.94C38.1565 210.776 38.2038 210.602 38.2038 210.42V209.807C38.1754 209.841 38.1129 209.872 38.0163 209.901C37.9216 209.927 37.8118 209.951 37.6868 209.972C37.5637 209.991 37.4434 210.008 37.326 210.023C37.2105 210.036 37.1167 210.047 37.0447 210.057C36.8705 210.08 36.7076 210.116 36.5561 210.168C36.4065 210.217 36.2853 210.292 36.1925 210.392C36.1016 210.491 36.0561 210.625 36.0561 210.795C36.0561 211.028 36.1423 211.205 36.3146 211.324C36.4889 211.441 36.7095 211.5 36.9766 211.5ZM42.0412 207.636V208.205H39.6889V207.636H42.0412ZM40.3935 212V207.034C40.3935 206.784 40.4522 206.576 40.5696 206.409C40.687 206.242 40.8395 206.117 41.027 206.034C41.2145 205.951 41.4124 205.909 41.6207 205.909C41.7855 205.909 41.92 205.922 42.0241 205.949C42.1283 205.975 42.206 206 42.2571 206.023L42.0639 206.602C42.0298 206.591 41.9825 206.577 41.9219 206.56C41.8632 206.543 41.7855 206.534 41.6889 206.534C41.4673 206.534 41.3073 206.59 41.2088 206.702C41.1122 206.813 41.0639 206.977 41.0639 207.193V212H40.3935ZM44.6307 212.091C44.2102 212.091 43.8475 211.998 43.5426 211.812C43.2396 211.625 43.0057 211.364 42.8409 211.028C42.678 210.691 42.5966 210.299 42.5966 209.852C42.5966 209.405 42.678 209.011 42.8409 208.67C43.0057 208.328 43.2348 208.061 43.5284 207.869C43.8239 207.676 44.1686 207.58 44.5625 207.58C44.7898 207.58 45.0142 207.617 45.2358 207.693C45.4574 207.769 45.6591 207.892 45.8409 208.062C46.0227 208.231 46.1676 208.455 46.2756 208.733C46.3835 209.011 46.4375 209.354 46.4375 209.761V210.045H43.0739V209.466H45.7557C45.7557 209.22 45.7064 209 45.608 208.807C45.5114 208.614 45.3731 208.461 45.1932 208.349C45.0152 208.238 44.8049 208.182 44.5625 208.182C44.2955 208.182 44.0644 208.248 43.8693 208.381C43.6761 208.511 43.5275 208.682 43.4233 208.892C43.3191 209.102 43.267 209.328 43.267 209.568V209.955C43.267 210.284 43.3239 210.563 43.4375 210.793C43.553 211.02 43.7131 211.193 43.9176 211.312C44.1222 211.43 44.3598 211.489 44.6307 211.489C44.8068 211.489 44.9659 211.464 45.108 211.415C45.2519 211.364 45.3759 211.288 45.4801 211.188C45.5843 211.085 45.6648 210.958 45.7216 210.807L46.3693 210.989C46.3011 211.208 46.1866 211.402 46.0256 211.568C45.8646 211.733 45.6657 211.862 45.429 211.955C45.1922 212.045 44.9261 212.091 44.6307 212.091Z" fill="#7B7B7B"/>
<path d="M111.931 212V206.182H115.42V206.807H112.636V208.773H115.158V209.398H112.636V212H111.931ZM116.626 212V206.182H117.331V211.375H120.036V212H116.626ZM122.702 206.182V212H121.998V206.92H121.964L120.543 207.864V207.148L121.998 206.182H122.702Z" fill="#7B7B7B"/>
<path d="M189.197 212V206.182H189.901V208.773H193.004V206.182H193.708V212H193.004V209.398H189.901V212H189.197ZM197.232 210.182H198.005L198.653 211.034L198.823 211.261L199.789 212.545H199.016L198.38 211.693L198.221 211.477L197.232 210.182ZM200.028 209.091C200.028 209.705 199.917 210.235 199.695 210.682C199.474 211.129 199.17 211.473 198.783 211.716C198.397 211.958 197.956 212.08 197.46 212.08C196.963 212.08 196.522 211.958 196.136 211.716C195.749 211.473 195.445 211.129 195.224 210.682C195.002 210.235 194.891 209.705 194.891 209.091C194.891 208.477 195.002 207.947 195.224 207.5C195.445 207.053 195.749 206.708 196.136 206.466C196.522 206.223 196.963 206.102 197.46 206.102C197.956 206.102 198.397 206.223 198.783 206.466C199.17 206.708 199.474 207.053 199.695 207.5C199.917 207.947 200.028 208.477 200.028 209.091ZM199.346 209.091C199.346 208.587 199.262 208.162 199.093 207.815C198.926 207.469 198.7 207.206 198.414 207.028C198.13 206.85 197.812 206.761 197.46 206.761C197.107 206.761 196.788 206.85 196.502 207.028C196.218 207.206 195.992 207.469 195.823 207.815C195.656 208.162 195.573 208.587 195.573 209.091C195.573 209.595 195.656 210.02 195.823 210.366C195.992 210.713 196.218 210.975 196.502 211.153C196.788 211.331 197.107 211.42 197.46 211.42C197.812 211.42 198.13 211.331 198.414 211.153C198.7 210.975 198.926 210.713 199.093 210.366C199.262 210.02 199.346 209.595 199.346 209.091Z" fill="#7B7B7B"/>
<path d="M268.933 207.636C268.899 207.348 268.761 207.125 268.518 206.966C268.276 206.807 267.979 206.727 267.626 206.727C267.369 206.727 267.143 206.769 266.95 206.852C266.759 206.936 266.609 207.05 266.501 207.196C266.395 207.342 266.342 207.508 266.342 207.693C266.342 207.848 266.379 207.982 266.453 208.094C266.529 208.204 266.625 208.295 266.743 208.369C266.86 208.441 266.983 208.501 267.112 208.548C267.241 208.594 267.359 208.631 267.467 208.659L268.058 208.818C268.21 208.858 268.378 208.913 268.564 208.983C268.751 209.053 268.93 209.149 269.101 209.27C269.273 209.389 269.415 209.543 269.527 209.73C269.639 209.918 269.695 210.148 269.695 210.42C269.695 210.735 269.612 211.019 269.447 211.273C269.285 211.527 269.046 211.728 268.732 211.878C268.419 212.027 268.039 212.102 267.592 212.102C267.176 212.102 266.815 212.035 266.51 211.901C266.207 211.766 265.968 211.579 265.794 211.338C265.622 211.098 265.524 210.818 265.501 210.5H266.229C266.248 210.72 266.321 210.902 266.45 211.045C266.581 211.187 266.746 211.294 266.945 211.364C267.145 211.432 267.361 211.466 267.592 211.466C267.861 211.466 268.103 211.422 268.317 211.335C268.531 211.246 268.7 211.123 268.825 210.966C268.95 210.807 269.013 210.621 269.013 210.409C269.013 210.216 268.959 210.059 268.851 209.938C268.743 209.816 268.601 209.718 268.425 209.642C268.249 209.566 268.058 209.5 267.854 209.443L267.138 209.239C266.683 209.108 266.323 208.921 266.058 208.679C265.793 208.437 265.661 208.119 265.661 207.727C265.661 207.402 265.749 207.117 265.925 206.875C266.103 206.631 266.341 206.441 266.641 206.307C266.942 206.17 267.278 206.102 267.649 206.102C268.024 206.102 268.357 206.17 268.649 206.304C268.941 206.437 269.172 206.618 269.342 206.849C269.515 207.08 269.606 207.343 269.615 207.636H268.933ZM270.535 206.807V206.182H274.898V206.807H273.069V212H272.364V206.807H270.535ZM277.929 206.182V212H277.224V206.92H277.19L275.77 207.864V207.148L277.224 206.182H277.929Z" fill="#7B7B7B"/>
<path d="M344.099 212H343.361L345.497 206.182H346.224L348.361 212H347.622L345.884 207.102H345.838L344.099 212ZM344.372 209.727H347.349V210.352H344.372V209.727ZM349.267 212V206.182H349.938V208.33H349.994C350.044 208.254 350.112 208.157 350.199 208.04C350.288 207.92 350.415 207.814 350.58 207.722C350.746 207.627 350.972 207.58 351.256 207.58C351.623 207.58 351.947 207.671 352.227 207.855C352.508 208.039 352.726 208.299 352.884 208.636C353.041 208.973 353.119 209.371 353.119 209.83C353.119 210.292 353.041 210.692 352.884 211.031C352.726 211.368 352.509 211.63 352.23 211.815C351.952 211.999 351.631 212.091 351.267 212.091C350.987 212.091 350.762 212.045 350.594 211.952C350.425 211.857 350.295 211.75 350.205 211.631C350.114 211.509 350.044 211.409 349.994 211.33H349.915V212H349.267ZM349.926 209.818C349.926 210.148 349.974 210.438 350.071 210.69C350.168 210.94 350.309 211.136 350.494 211.278C350.68 211.419 350.907 211.489 351.176 211.489C351.456 211.489 351.69 211.415 351.878 211.267C352.067 211.117 352.209 210.917 352.304 210.665C352.401 210.411 352.449 210.129 352.449 209.818C352.449 209.511 352.402 209.235 352.307 208.989C352.214 208.741 352.073 208.545 351.884 208.401C351.696 208.255 351.46 208.182 351.176 208.182C350.903 208.182 350.674 208.251 350.489 208.389C350.303 208.526 350.163 208.717 350.068 208.963C349.973 209.207 349.926 209.492 349.926 209.818ZM355.918 212.091C355.509 212.091 355.156 211.994 354.861 211.801C354.565 211.608 354.338 211.342 354.179 211.003C354.02 210.664 353.94 210.277 353.94 209.841C353.94 209.398 354.022 209.007 354.185 208.668C354.349 208.327 354.579 208.061 354.872 207.869C355.168 207.676 355.512 207.58 355.906 207.58C356.213 207.58 356.49 207.636 356.736 207.75C356.982 207.864 357.184 208.023 357.341 208.227C357.498 208.432 357.596 208.67 357.634 208.943H356.963C356.912 208.744 356.798 208.568 356.622 208.415C356.448 208.259 356.213 208.182 355.918 208.182C355.656 208.182 355.427 208.25 355.23 208.386C355.035 208.521 354.883 208.711 354.773 208.957C354.665 209.202 354.611 209.489 354.611 209.818C354.611 210.155 354.664 210.449 354.77 210.699C354.878 210.949 355.029 211.143 355.224 211.281C355.421 211.42 355.652 211.489 355.918 211.489C356.092 211.489 356.25 211.458 356.392 211.398C356.534 211.337 356.654 211.25 356.753 211.136C356.851 211.023 356.921 210.886 356.963 210.727H357.634C357.596 210.985 357.502 211.217 357.352 211.423C357.205 211.628 357.009 211.791 356.764 211.912C356.522 212.031 356.24 212.091 355.918 212.091Z" fill="#7B7B7B"/>
<path d="M423.131 206.182L424.631 208.602H424.677L426.177 206.182H427.006L425.177 209.091L427.006 212H426.177L424.677 209.625H424.631L423.131 212H422.302L424.177 209.091L422.302 206.182H423.131ZM428.264 213.636C428.151 213.636 428.049 213.627 427.96 213.608C427.871 213.591 427.81 213.574 427.776 213.557L427.946 212.966C428.109 213.008 428.253 213.023 428.378 213.011C428.503 213 428.614 212.944 428.71 212.844C428.809 212.745 428.899 212.585 428.98 212.364L429.105 212.023L427.491 207.636H428.219L429.423 211.114H429.469L430.673 207.636H431.401L429.548 212.636C429.465 212.862 429.362 213.048 429.239 213.196C429.116 213.346 428.973 213.456 428.81 213.528C428.649 213.6 428.467 213.636 428.264 213.636ZM432.161 212V211.489L434.638 208.307V208.261H432.24V207.636H435.501V208.17L433.092 211.33V211.375H435.581V212H432.161Z" fill="#7B7B7B"/>
<line x1="163.315" y1="92.4531" x2="163.315" y2="191.422" stroke="#262626" stroke-width="0.630377" stroke-dasharray="2.77 2.77"/>
<g filter="url(#filter0_dd_1686_11492)">
<path fill-rule="evenodd" clip-rule="evenodd" d="M164.508 57.9991C163.534 59.3337 161.956 59.3337 160.983 57.9991L159.118 55.5663C158.563 54.842 158.285 54.4798 157.935 54.2187C157.626 53.9875 157.277 53.8152 156.905 53.7103C156.485 53.5918 156.029 53.5918 155.116 53.5918H130.789C127.385 53.5918 126.151 53.2153 124.907 52.5083C123.662 51.8013 122.685 50.7638 122.02 49.4418C121.354 48.1198 121 46.8085 121 43.1924V16.3994C121 12.7833 121.354 11.472 122.02 10.15C122.685 8.82804 123.662 7.79053 124.907 7.08352C126.151 6.37651 127.385 6 130.789 6H195.211C198.615 6 199.849 6.37651 201.093 7.08352C202.338 7.79053 203.315 8.82804 203.98 10.15C204.646 11.472 205 12.7833 205 16.3994V43.1924C205 46.8085 204.646 48.1198 203.98 49.4418C203.315 50.7638 202.338 51.8013 201.093 52.5083C199.849 53.2153 198.615 53.5918 195.211 53.5918H172.863C171.038 53.5918 170.125 53.5918 169.285 53.8287C168.542 54.0385 167.843 54.3832 167.224 54.8456C166.525 55.3677 165.97 56.0921 164.859 57.5408L164.508 57.9991Z" fill="white"/>
</g>
<path d="M132.639 35V29.1818H136.287V29.9375H133.517V31.7102H136.097V32.4631H133.517V34.2443H136.321V35H132.639ZM137.391 35V30.6364H138.207V31.3466H138.261C138.352 31.1061 138.5 30.9186 138.707 30.7841C138.913 30.6477 139.16 30.5795 139.448 30.5795C139.74 30.5795 139.984 30.6477 140.181 30.7841C140.38 30.9205 140.527 31.108 140.621 31.3466H140.667C140.771 31.1136 140.937 30.928 141.164 30.7898C141.391 30.6496 141.662 30.5795 141.977 30.5795C142.372 30.5795 142.695 30.7036 142.945 30.9517C143.197 31.1998 143.323 31.5739 143.323 32.0739V35H142.474V32.1534C142.474 31.858 142.393 31.6439 142.232 31.5114C142.071 31.3788 141.879 31.3125 141.656 31.3125C141.379 31.3125 141.164 31.3977 141.011 31.5682C140.857 31.7367 140.781 31.9536 140.781 32.2188V35H139.934V32.0994C139.934 31.8627 139.86 31.6723 139.712 31.5284C139.565 31.3845 139.372 31.3125 139.136 31.3125C138.975 31.3125 138.826 31.3551 138.69 31.4403C138.555 31.5237 138.446 31.6402 138.363 31.7898C138.281 31.9394 138.241 32.1127 138.241 32.3097V35H137.391ZM144.462 36.6364V30.6364H145.291V31.3438H145.362C145.411 31.2528 145.482 31.1477 145.575 31.0284C145.668 30.9091 145.797 30.8049 145.962 30.7159C146.126 30.625 146.344 30.5795 146.615 30.5795C146.967 30.5795 147.282 30.6686 147.558 30.8466C147.835 31.0246 148.052 31.2812 148.209 31.6165C148.368 31.9517 148.447 32.3551 148.447 32.8267C148.447 33.2983 148.369 33.7027 148.212 34.0398C148.054 34.375 147.839 34.6335 147.564 34.8153C147.289 34.9953 146.976 35.0852 146.624 35.0852C146.358 35.0852 146.142 35.0407 145.973 34.9517C145.806 34.8627 145.676 34.7585 145.581 34.6392C145.486 34.5199 145.413 34.4138 145.362 34.321H145.311V36.6364H144.462ZM145.294 32.8182C145.294 33.125 145.339 33.3939 145.428 33.625C145.517 33.8561 145.645 34.0369 145.814 34.1676C145.982 34.2964 146.189 34.3608 146.433 34.3608C146.687 34.3608 146.899 34.2936 147.07 34.1591C147.24 34.0227 147.369 33.8381 147.456 33.6051C147.545 33.3722 147.589 33.1098 147.589 32.8182C147.589 32.5303 147.546 32.2718 147.459 32.0426C147.374 31.8134 147.245 31.6326 147.072 31.5C146.902 31.3674 146.689 31.3011 146.433 31.3011C146.187 31.3011 145.979 31.3646 145.808 31.4915C145.64 31.6184 145.512 31.7955 145.425 32.0227C145.338 32.25 145.294 32.5152 145.294 32.8182ZM150.249 29.1818V35H149.399V29.1818H150.249ZM153.229 35.0881C152.82 35.0881 152.463 34.9943 152.158 34.8068C151.853 34.6193 151.617 34.357 151.448 34.0199C151.28 33.6828 151.195 33.2888 151.195 32.8381C151.195 32.3854 151.28 31.9896 151.448 31.6506C151.617 31.3116 151.853 31.0483 152.158 30.8608C152.463 30.6733 152.82 30.5795 153.229 30.5795C153.638 30.5795 153.996 30.6733 154.3 30.8608C154.605 31.0483 154.842 31.3116 155.011 31.6506C155.179 31.9896 155.263 32.3854 155.263 32.8381C155.263 33.2888 155.179 33.6828 155.011 34.0199C154.842 34.357 154.605 34.6193 154.3 34.8068C153.996 34.9943 153.638 35.0881 153.229 35.0881ZM153.232 34.375C153.497 34.375 153.717 34.3049 153.891 34.1648C154.066 34.0246 154.194 33.8381 154.278 33.6051C154.363 33.3722 154.406 33.1155 154.406 32.8352C154.406 32.5568 154.363 32.3011 154.278 32.0682C154.194 31.8333 154.066 31.6449 153.891 31.5028C153.717 31.3608 153.497 31.2898 153.232 31.2898C152.965 31.2898 152.744 31.3608 152.567 31.5028C152.393 31.6449 152.263 31.8333 152.178 32.0682C152.095 32.3011 152.053 32.5568 152.053 32.8352C152.053 33.1155 152.095 33.3722 152.178 33.6051C152.263 33.8381 152.393 34.0246 152.567 34.1648C152.744 34.3049 152.965 34.375 153.232 34.375ZM156.6 36.6364C156.473 36.6364 156.358 36.6259 156.254 36.6051C156.149 36.5862 156.072 36.5653 156.021 36.5426L156.225 35.8466C156.38 35.8883 156.519 35.9063 156.64 35.9006C156.761 35.8949 156.868 35.8494 156.961 35.7642C157.056 35.679 157.139 35.5398 157.211 35.3466L157.316 35.0568L155.719 30.6364H156.629L157.734 34.0227H157.779L158.884 30.6364H159.796L157.998 35.5824C157.915 35.8097 157.808 36.0019 157.68 36.1591C157.551 36.3182 157.397 36.4375 157.219 36.517C157.041 36.5966 156.835 36.6364 156.6 36.6364ZM162.327 35.0881C161.897 35.0881 161.527 34.9962 161.216 34.8125C160.907 34.6269 160.669 34.3665 160.5 34.0312C160.333 33.6941 160.25 33.2992 160.25 32.8466C160.25 32.3996 160.333 32.0057 160.5 31.6648C160.669 31.3239 160.903 31.0578 161.205 30.8665C161.508 30.6752 161.862 30.5795 162.267 30.5795C162.513 30.5795 162.752 30.6203 162.983 30.7017C163.214 30.7831 163.421 30.911 163.605 31.0852C163.789 31.2595 163.934 31.4858 164.04 31.7642C164.146 32.0407 164.199 32.3769 164.199 32.7727V33.0739H160.73V32.4375H163.366C163.366 32.214 163.321 32.0161 163.23 31.8438C163.139 31.6695 163.011 31.5322 162.847 31.4318C162.684 31.3314 162.492 31.2812 162.273 31.2812C162.034 31.2812 161.826 31.34 161.648 31.4574C161.472 31.5729 161.335 31.7244 161.239 31.9119C161.144 32.0975 161.097 32.2992 161.097 32.517V33.0142C161.097 33.3059 161.148 33.554 161.25 33.7585C161.354 33.9631 161.499 34.1193 161.685 34.2273C161.87 34.3333 162.087 34.3864 162.335 34.3864C162.496 34.3864 162.643 34.3636 162.776 34.3182C162.908 34.2708 163.023 34.2008 163.119 34.108C163.216 34.0152 163.29 33.9006 163.341 33.7642L164.145 33.9091C164.08 34.1458 163.965 34.3532 163.798 34.5312C163.634 34.7074 163.426 34.8447 163.176 34.9432C162.928 35.0398 162.645 35.0881 162.327 35.0881ZM167.022 35.0881C166.592 35.0881 166.222 34.9962 165.911 34.8125C165.603 34.6269 165.364 34.3665 165.195 34.0312C165.029 33.6941 164.945 33.2992 164.945 32.8466C164.945 32.3996 165.029 32.0057 165.195 31.6648C165.364 31.3239 165.599 31.0578 165.9 30.8665C166.203 30.6752 166.557 30.5795 166.962 30.5795C167.209 30.5795 167.447 30.6203 167.678 30.7017C167.909 30.7831 168.117 30.911 168.3 31.0852C168.484 31.2595 168.629 31.4858 168.735 31.7642C168.841 32.0407 168.894 32.3769 168.894 32.7727V33.0739H165.425V32.4375H168.062C168.062 32.214 168.016 32.0161 167.925 31.8438C167.835 31.6695 167.707 31.5322 167.542 31.4318C167.379 31.3314 167.188 31.2812 166.968 31.2812C166.729 31.2812 166.521 31.34 166.343 31.4574C166.167 31.5729 166.031 31.7244 165.934 31.9119C165.839 32.0975 165.792 32.2992 165.792 32.517V33.0142C165.792 33.3059 165.843 33.554 165.945 33.7585C166.049 33.9631 166.194 34.1193 166.38 34.2273C166.566 34.3333 166.782 34.3864 167.031 34.3864C167.192 34.3864 167.338 34.3636 167.471 34.3182C167.603 34.2708 167.718 34.2008 167.815 34.108C167.911 34.0152 167.985 33.9006 168.036 33.7642L168.84 33.9091C168.776 34.1458 168.66 34.3532 168.494 34.5312C168.329 34.7074 168.121 34.8447 167.871 34.9432C167.623 35.0398 167.34 35.0881 167.022 35.0881ZM137.335 39.1818V45H136.528L133.571 40.733H133.517V45H132.639V39.1818H133.452L136.412 43.4545H136.466V39.1818H137.335ZM141.312 43.1903V40.6364H142.164V45H141.329V44.2443H141.283C141.183 44.4773 141.022 44.6714 140.8 44.8267C140.581 44.9801 140.307 45.0568 139.979 45.0568C139.699 45.0568 139.451 44.9953 139.235 44.8722C139.021 44.7472 138.853 44.5625 138.729 44.3182C138.608 44.0739 138.548 43.7718 138.548 43.4119V40.6364H139.397V43.3097C139.397 43.607 139.479 43.8437 139.644 44.0199C139.809 44.196 140.023 44.2841 140.286 44.2841C140.445 44.2841 140.603 44.2443 140.761 44.1648C140.92 44.0852 141.051 43.965 141.156 43.804C141.262 43.643 141.314 43.4384 141.312 43.1903ZM143.305 45V40.6364H144.121V41.3466H144.175C144.266 41.1061 144.414 40.9186 144.621 40.7841C144.827 40.6477 145.074 40.5795 145.362 40.5795C145.654 40.5795 145.898 40.6477 146.095 40.7841C146.294 40.9205 146.441 41.108 146.536 41.3466H146.581C146.685 41.1136 146.851 40.928 147.078 40.7898C147.305 40.6496 147.576 40.5795 147.891 40.5795C148.286 40.5795 148.609 40.7036 148.859 40.9517C149.111 41.1998 149.237 41.5739 149.237 42.0739V45H148.388V42.1534C148.388 41.858 148.307 41.6439 148.146 41.5114C147.985 41.3788 147.793 41.3125 147.57 41.3125C147.293 41.3125 147.078 41.3977 146.925 41.5682C146.771 41.7367 146.695 41.9536 146.695 42.2188V45H145.848V42.0994C145.848 41.8627 145.774 41.6723 145.626 41.5284C145.479 41.3845 145.286 41.3125 145.05 41.3125C144.889 41.3125 144.74 41.3551 144.604 41.4403C144.469 41.5237 144.36 41.6402 144.277 41.7898C144.196 41.9394 144.155 42.1127 144.155 42.3097V45H143.305ZM150.444 45V39.1818H151.293V41.3438H151.344C151.394 41.2528 151.465 41.1477 151.558 41.0284C151.65 40.9091 151.779 40.8049 151.944 40.7159C152.109 40.625 152.326 40.5795 152.597 40.5795C152.95 40.5795 153.264 40.6686 153.54 40.8466C153.817 41.0246 154.034 41.2812 154.191 41.6165C154.35 41.9517 154.43 42.3551 154.43 42.8267C154.43 43.2983 154.351 43.7027 154.194 44.0398C154.037 44.375 153.821 44.6335 153.546 44.8153C153.272 44.9953 152.958 45.0852 152.606 45.0852C152.341 45.0852 152.124 45.0407 151.955 44.9517C151.789 44.8627 151.658 44.7585 151.563 44.6392C151.469 44.5199 151.396 44.4138 151.344 44.321H151.273V45H150.444ZM151.276 42.8182C151.276 43.125 151.321 43.3939 151.41 43.625C151.499 43.8561 151.628 44.0369 151.796 44.1676C151.965 44.2964 152.171 44.3608 152.415 44.3608C152.669 44.3608 152.881 44.2936 153.052 44.1591C153.222 44.0227 153.351 43.8381 153.438 43.6051C153.527 43.3722 153.572 43.1098 153.572 42.8182C153.572 42.5303 153.528 42.2718 153.441 42.0426C153.356 41.8134 153.227 41.6326 153.055 41.5C152.884 41.3674 152.671 41.3011 152.415 41.3011C152.169 41.3011 151.961 41.3646 151.79 41.4915C151.622 41.6184 151.494 41.7955 151.407 42.0227C151.32 42.25 151.276 42.5152 151.276 42.8182ZM157.264 45.0881C156.834 45.0881 156.464 44.9962 156.153 44.8125C155.845 44.6269 155.606 44.3665 155.438 44.0312C155.271 43.6941 155.188 43.2992 155.188 42.8466C155.188 42.3996 155.271 42.0057 155.438 41.6648C155.606 41.3239 155.841 41.0578 156.142 40.8665C156.445 40.6752 156.799 40.5795 157.205 40.5795C157.451 40.5795 157.689 40.6203 157.92 40.7017C158.152 40.7831 158.359 40.911 158.543 41.0852C158.726 41.2595 158.871 41.4858 158.977 41.7642C159.083 42.0407 159.136 42.3769 159.136 42.7727V43.0739H155.668V42.4375H158.304C158.304 42.214 158.259 42.0161 158.168 41.8438C158.077 41.6695 157.949 41.5322 157.784 41.4318C157.621 41.3314 157.43 41.2812 157.21 41.2812C156.972 41.2812 156.763 41.34 156.585 41.4574C156.409 41.5729 156.273 41.7244 156.176 41.9119C156.081 42.0975 156.034 42.2992 156.034 42.517V43.0142C156.034 43.3059 156.085 43.554 156.188 43.7585C156.292 43.9631 156.437 44.1193 156.622 44.2273C156.808 44.3333 157.025 44.3864 157.273 44.3864C157.434 44.3864 157.58 44.3636 157.713 44.3182C157.846 44.2708 157.96 44.2008 158.057 44.108C158.153 44.0152 158.227 43.9006 158.278 43.7642L159.082 43.9091C159.018 44.1458 158.902 44.3532 158.736 44.5312C158.571 44.7074 158.364 44.8447 158.114 44.9432C157.866 45.0398 157.582 45.0881 157.264 45.0881ZM160.079 45V40.6364H160.9V41.3295H160.945C161.025 41.0947 161.165 40.91 161.366 40.7756C161.568 40.6392 161.798 40.571 162.053 40.571C162.106 40.571 162.169 40.5729 162.241 40.5767C162.315 40.5805 162.372 40.5852 162.414 40.5909V41.4034C162.38 41.3939 162.319 41.3835 162.232 41.3722C162.145 41.3589 162.058 41.3523 161.971 41.3523C161.77 41.3523 161.591 41.3949 161.434 41.4801C161.279 41.5634 161.156 41.6799 161.065 41.8295C160.974 41.9773 160.928 42.1458 160.928 42.3352V45H160.079Z" fill="black"/>
<path d="M181.878 44.1193C181.293 44.1193 180.77 44.0185 180.31 43.8168C179.852 43.6151 179.49 43.3352 179.223 42.9773C178.959 42.6165 178.817 42.1989 178.797 41.7244H180.135C180.152 41.983 180.239 42.2074 180.395 42.3977C180.554 42.5852 180.761 42.7301 181.017 42.8324C181.273 42.9347 181.557 42.9858 181.869 42.9858C182.213 42.9858 182.517 42.9261 182.781 42.8068C183.048 42.6875 183.257 42.5213 183.408 42.3082C183.558 42.0923 183.634 41.8438 183.634 41.5625C183.634 41.2699 183.558 41.0128 183.408 40.7912C183.26 40.5668 183.043 40.3906 182.756 40.2628C182.472 40.1349 182.128 40.071 181.724 40.071H180.987V38.9972H181.724C182.048 38.9972 182.332 38.9389 182.577 38.8224C182.824 38.706 183.017 38.544 183.156 38.3366C183.295 38.1264 183.365 37.8807 183.365 37.5994C183.365 37.3295 183.304 37.0952 183.182 36.8963C183.063 36.6946 182.892 36.5369 182.67 36.4233C182.452 36.3097 182.193 36.2528 181.895 36.2528C181.611 36.2528 181.345 36.3054 181.098 36.4105C180.854 36.5128 180.655 36.6605 180.501 36.8537C180.348 37.044 180.266 37.2727 180.254 37.5398H178.98C178.994 37.0682 179.134 36.6534 179.398 36.2955C179.665 35.9375 180.017 35.6577 180.455 35.456C180.892 35.2543 181.378 35.1534 181.912 35.1534C182.472 35.1534 182.955 35.2628 183.361 35.4815C183.77 35.6974 184.085 35.9858 184.307 36.3466C184.531 36.7074 184.642 37.1023 184.639 37.5312C184.642 38.0199 184.506 38.4347 184.23 38.7756C183.957 39.1165 183.594 39.3452 183.139 39.4616V39.5298C183.719 39.6179 184.168 39.848 184.486 40.2202C184.807 40.5923 184.966 41.054 184.963 41.6051C184.966 42.0852 184.832 42.5156 184.562 42.8963C184.295 43.277 183.93 43.5767 183.467 43.7955C183.004 44.0114 182.474 44.1193 181.878 44.1193ZM189.523 44.1193C188.912 44.1193 188.372 44.0142 187.903 43.804C187.438 43.5937 187.072 43.304 186.808 42.9347C186.544 42.5653 186.413 42.1449 186.416 41.6733C186.413 41.304 186.489 40.9645 186.642 40.6548C186.798 40.3423 187.01 40.0824 187.277 39.875C187.544 39.6648 187.842 39.5312 188.172 39.4744V39.4233C187.737 39.3182 187.389 39.0852 187.128 38.7244C186.866 38.3636 186.737 37.9489 186.74 37.4801C186.737 37.0341 186.855 36.6364 187.094 36.2869C187.335 35.9347 187.666 35.6577 188.087 35.456C188.507 35.2543 188.986 35.1534 189.523 35.1534C190.054 35.1534 190.528 35.2557 190.946 35.4602C191.366 35.6619 191.697 35.9389 191.939 36.2912C192.18 36.6406 192.303 37.0369 192.305 37.4801C192.303 37.9489 192.169 38.3636 191.905 38.7244C191.641 39.0852 191.297 39.3182 190.874 39.4233V39.4744C191.2 39.5312 191.494 39.6648 191.756 39.875C192.02 40.0824 192.23 40.3423 192.386 40.6548C192.545 40.9645 192.626 41.304 192.629 41.6733C192.626 42.1449 192.493 42.5653 192.229 42.9347C191.964 43.304 191.598 43.5937 191.129 43.804C190.663 44.0142 190.128 44.1193 189.523 44.1193ZM189.523 43.0412C189.884 43.0412 190.196 42.9815 190.46 42.8622C190.724 42.7401 190.929 42.571 191.074 42.3551C191.219 42.1364 191.293 41.8807 191.295 41.5881C191.293 41.2841 191.213 41.0156 191.057 40.7827C190.903 40.5497 190.695 40.3665 190.43 40.233C190.166 40.0994 189.864 40.0327 189.523 40.0327C189.179 40.0327 188.874 40.0994 188.607 40.233C188.339 40.3665 188.129 40.5497 187.976 40.7827C187.822 41.0156 187.747 41.2841 187.75 41.5881C187.747 41.8807 187.817 42.1364 187.959 42.3551C188.104 42.571 188.31 42.7401 188.577 42.8622C188.844 42.9815 189.159 43.0412 189.523 43.0412ZM189.523 38.9801C189.813 38.9801 190.07 38.9219 190.294 38.8054C190.518 38.6889 190.695 38.527 190.822 38.3196C190.953 38.1122 191.02 37.8693 191.023 37.5909C191.02 37.3182 190.955 37.0795 190.827 36.875C190.702 36.6705 190.527 36.5128 190.303 36.402C190.078 36.2884 189.818 36.2315 189.523 36.2315C189.222 36.2315 188.957 36.2884 188.73 36.402C188.506 36.5128 188.331 36.6705 188.206 36.875C188.081 37.0795 188.02 37.3182 188.023 37.5909C188.02 37.8693 188.082 38.1122 188.21 38.3196C188.338 38.527 188.514 38.6889 188.739 38.8054C188.966 38.9219 189.227 38.9801 189.523 38.9801Z" fill="black"/>
<g filter="url(#filter1_dd_1686_11492)">
<rect x="158" y="68.498" width="10.6062" height="10.6062" rx="5.30311" fill="#262626"/>
<rect x="159.261" y="69.7588" width="8.08471" height="8.08473" rx="4.04235" stroke="white" stroke-width="2.52151"/>
</g>
<defs>
<filter id="filter0_dd_1686_11492" x="110.914" y="0.956983" width="104.172" height="73.1721" filterUnits="userSpaceOnUse" color-interpolation-filters="sRGB">
<feFlood flood-opacity="0" result="BackgroundImageFix"/>
<feColorMatrix in="SourceAlpha" type="matrix" values="0 0 0 0 0 0 0 0 0 0 0 0 0 0 0 0 0 0 127 0" result="hardAlpha"/>
<feOffset dy="5.04302"/>
<feGaussianBlur stdDeviation="5.04302"/>
<feColorMatrix type="matrix" values="0 0 0 0 0.196487 0 0 0 0 0.196487 0 0 0 0 0.279476 0 0 0 0.06 0"/>
<feBlend mode="multiply" in2="BackgroundImageFix" result="effect1_dropShadow_1686_11492"/>
<feColorMatrix in="SourceAlpha" type="matrix" values="0 0 0 0 0 0 0 0 0 0 0 0 0 0 0 0 0 0 127 0" result="hardAlpha"/>
<feOffset dy="5.04302"/>
<feGaussianBlur stdDeviation="2.52151"/>
<feColorMatrix type="matrix" values="0 0 0 0 0.196487 0 0 0 0 0.196487 0 0 0 0 0.279476 0 0 0 0.08 0"/>
<feBlend mode="multiply" in2="effect1_dropShadow_1686_11492" result="effect2_dropShadow_1686_11492"/>
<feBlend mode="normal" in="SourceGraphic" in2="effect2_dropShadow_1686_11492" result="shape"/>
</filter>
<filter id="filter1_dd_1686_11492" x="154.638" y="66.817" width="17.3305" height="17.3295" filterUnits="userSpaceOnUse" color-interpolation-filters="sRGB">
<feFlood flood-opacity="0" result="BackgroundImageFix"/>
<feColorMatrix in="SourceAlpha" type="matrix" values="0 0 0 0 0 0 0 0 0 0 0 0 0 0 0 0 0 0 127 0" result="hardAlpha"/>
<feOffset dy="1.68101"/>
<feGaussianBlur stdDeviation="1.68101"/>
<feColorMatrix type="matrix" values="0 0 0 0 0.196487 0 0 0 0 0.196487 0 0 0 0 0.279476 0 0 0 0.06 0"/>
<feBlend mode="multiply" in2="BackgroundImageFix" result="effect1_dropShadow_1686_11492"/>
<feColorMatrix in="SourceAlpha" type="matrix" values="0 0 0 0 0 0 0 0 0 0 0 0 0 0 0 0 0 0 127 0" result="hardAlpha"/>
<feOffset dy="1.68101"/>
<feGaussianBlur stdDeviation="0.840503"/>
<feColorMatrix type="matrix" values="0 0 0 0 0.196487 0 0 0 0 0.196487 0 0 0 0 0.279476 0 0 0 0.06 0"/>
<feBlend mode="multiply" in2="effect1_dropShadow_1686_11492" result="effect2_dropShadow_1686_11492"/>
<feBlend mode="normal" in="SourceGraphic" in2="effect2_dropShadow_1686_11492" result="shape"/>
</filter>
<linearGradient id="paint0_linear_1686_11492" x1="224.551" y1="41.3711" x2="224.551" y2="215.697" gradientUnits="userSpaceOnUse">
<stop stop-color="#095AA5" stop-opacity="0.2"/>
<stop offset="0.998978" stop-color="white" stop-opacity="0"/>
</linearGradient>
</defs>
</svg>
