<svg width="16" height="17" viewBox="0 0 16 17" fill="none" xmlns="http://www.w3.org/2000/svg">
<path fill-rule="evenodd" clip-rule="evenodd" d="M7.15717 1.42064C7.38748 1.21035 7.6881 1.09375 8 1.09375C8.3119 1.09375 8.61252 1.21035 8.84283 1.42064C8.84314 1.42092 8.84344 1.4212 8.84375 1.42148L15.0922 7.09976L15.101 7.10791C15.2245 7.22456 15.3234 7.36474 15.392 7.52021C15.4605 7.67566 15.4972 7.84326 15.4999 8.01313L15.5 8.02324V15.2498C15.5 15.5813 15.3683 15.8993 15.1339 16.1337C14.8995 16.3681 14.5815 16.4998 14.25 16.4998H10.5C10.1685 16.4998 9.85054 16.3681 9.61612 16.1337C9.38169 15.8993 9.25 15.5813 9.25 15.2498V11.4998H6.75V15.2498C6.75 15.5813 6.6183 15.8993 6.38388 16.1337C6.14946 16.3681 5.83152 16.4998 5.5 16.4998H1.75C1.41848 16.4998 1.10054 16.3681 0.866117 16.1337C0.631696 15.8993 0.5 15.5813 0.5 15.2498V8.02324L0.500082 8.01313C0.50283 7.84326 0.539539 7.67567 0.608047 7.52021C0.676556 7.36474 0.775478 7.22456 0.89899 7.10791L0.907791 7.09976L7.15625 1.42148C7.15656 1.4212 7.15686 1.42092 7.15717 1.42064ZM1.75592 8.01806L7.99846 2.34516L8 2.34375L8.00154 2.34516L14.2441 8.01806C14.2457 8.0199 14.2471 8.022 14.2481 8.02428C14.2491 8.02665 14.2498 8.02917 14.25 8.03173V15.2498H10.5V11.4998C10.5 11.1683 10.3683 10.8503 10.1339 10.6159C9.89946 10.3815 9.58152 10.2498 9.25 10.2498H6.75C6.41848 10.2498 6.10054 10.3815 5.86612 10.6159C5.6317 10.8503 5.5 11.1683 5.5 11.4998V15.2498H1.75V8.03174C1.75022 8.02917 1.75086 8.02665 1.75191 8.02428C1.75291 8.022 1.75427 8.0199 1.75592 8.01806Z" fill="#095AA5" stroke="#095AA5" stroke-width="0.5" stroke-linecap="round" stroke-linejoin="round"/>
</svg>
