<svg width="24" height="24" viewBox="0 0 24 24" fill="none" xmlns="http://www.w3.org/2000/svg">
<path opacity="0.1" fill-rule="evenodd" clip-rule="evenodd" d="M0 12C0 5.37258 5.37258 0 12 0C18.6274 0 24 5.37258 24 12C24 18.6274 18.6274 24 12 24C5.37258 24 0 18.6274 0 12Z" fill="#5F5F5F"/>
<path fill-rule="evenodd" clip-rule="evenodd" d="M12.0007 5.60156C10.2625 5.60156 10.0444 5.60916 9.36174 5.64023C8.6804 5.67143 8.21533 5.7793 7.80839 5.93757C7.38745 6.10103 7.03038 6.3197 6.67464 6.67557C6.31864 7.03131 6.09997 7.38838 5.93597 7.80919C5.7773 8.21626 5.6693 8.68146 5.63863 9.36253C5.6081 10.0452 5.6001 10.2635 5.6001 12.0016C5.6001 13.7398 5.60783 13.9572 5.63876 14.6399C5.6701 15.3213 5.77797 15.7863 5.9361 16.1933C6.0997 16.6142 6.31837 16.9713 6.67424 17.327C7.02985 17.683 7.38692 17.9022 7.80759 18.0657C8.21479 18.224 8.68 18.3318 9.3612 18.363C10.0439 18.3941 10.2619 18.4017 11.9999 18.4017C13.7382 18.4017 13.9557 18.3941 14.6383 18.363C15.3197 18.3318 15.7853 18.224 16.1925 18.0657C16.6133 17.9022 16.9698 17.683 17.3254 17.327C17.6814 16.9713 17.9001 16.6142 18.0641 16.1934C18.2214 15.7863 18.3294 15.3211 18.3614 14.6401C18.3921 13.9574 18.4001 13.7398 18.4001 12.0016C18.4001 10.2635 18.3921 10.0453 18.3614 9.36267C18.3294 8.68133 18.2214 8.21626 18.0641 7.80932C17.9001 7.38838 17.6814 7.03131 17.3254 6.67557C16.9694 6.31957 16.6134 6.1009 16.1921 5.93757C15.7841 5.7793 15.3187 5.67143 14.6374 5.64023C13.9547 5.60916 13.7374 5.60156 11.9987 5.60156H12.0007ZM11.4265 6.75489C11.5969 6.75462 11.7871 6.75489 12.0007 6.75489C13.7095 6.75489 13.912 6.76102 14.5868 6.79169C15.2108 6.82022 15.5495 6.92449 15.7751 7.01209C16.0738 7.12809 16.2867 7.26676 16.5106 7.49076C16.7346 7.71477 16.8733 7.9281 16.9895 8.22677C17.0771 8.45211 17.1815 8.79078 17.2099 9.41478C17.2406 10.0895 17.2473 10.2921 17.2473 12.0001C17.2473 13.7082 17.2406 13.9108 17.2099 14.5855C17.1814 15.2095 17.0771 15.5482 16.9895 15.7735C16.8735 16.0722 16.7346 16.2849 16.5106 16.5087C16.2866 16.7327 16.0739 16.8714 15.7751 16.9874C15.5498 17.0754 15.2108 17.1794 14.5868 17.2079C13.9122 17.2386 13.7095 17.2453 12.0007 17.2453C10.2917 17.2453 10.0892 17.2386 9.41451 17.2079C8.7905 17.1791 8.45183 17.0749 8.2261 16.9873C7.92743 16.8713 7.71409 16.7326 7.49009 16.5086C7.26609 16.2846 7.12742 16.0718 7.01115 15.773C6.92355 15.5476 6.81915 15.209 6.79075 14.585C6.76008 13.9103 6.75395 13.7076 6.75395 11.9985C6.75395 10.2895 6.76008 10.0879 6.79075 9.41318C6.81928 8.78918 6.92355 8.45051 7.01115 8.22491C7.12715 7.92624 7.26609 7.7129 7.49009 7.4889C7.71409 7.2649 7.92743 7.12623 8.2261 7.00996C8.4517 6.92196 8.7905 6.81796 9.41451 6.78929C10.0049 6.76262 10.2337 6.75462 11.4265 6.75329V6.75489ZM15.417 7.81757C14.993 7.81757 14.649 8.16117 14.649 8.58531C14.649 9.00932 14.993 9.35332 15.417 9.35332C15.841 9.35332 16.185 9.00932 16.185 8.58531C16.185 8.16131 15.841 7.81757 15.417 7.81757ZM12.0007 8.71491C10.1856 8.71491 8.71401 10.1865 8.71401 12.0016C8.71401 13.8167 10.1856 15.2876 12.0007 15.2876C13.8158 15.2876 15.2869 13.8167 15.2869 12.0016C15.2869 10.1865 13.8158 8.71491 12.0007 8.71491ZM12.0007 9.86826C13.1788 9.86826 14.134 10.8233 14.134 12.0016C14.134 13.1798 13.1788 14.135 12.0007 14.135C10.8224 14.135 9.86733 13.1798 9.86733 12.0016C9.86733 10.8233 10.8224 9.86826 12.0007 9.86826Z" fill="#5F5F5F"/>
</svg>
