<svg width="19" height="19" viewBox="0 0 19 19" fill="none" xmlns="http://www.w3.org/2000/svg">
<path d="M5.24997 17.9999H2.69999C2.24912 17.9999 1.81673 17.8208 1.49792 17.502C1.17911 17.1832 1 16.7508 1 16.2999V10.3499C1 9.89907 1.17911 9.46668 1.49792 9.14787C1.81673 8.82906 2.24912 8.64995 2.69999 8.64995H5.24997M11.1999 6.94996V3.54998C11.1999 2.87369 10.9313 2.22509 10.4531 1.74687C9.97485 1.26866 9.32625 1 8.64995 1L5.24997 8.64995V17.9999H14.8379C15.2479 18.0045 15.6457 17.8608 15.9581 17.5953C16.2705 17.3298 16.4764 16.9603 16.5379 16.5549L17.7109 8.90495C17.7479 8.6613 17.7314 8.41253 17.6627 8.17587C17.594 7.9392 17.4747 7.72031 17.313 7.53435C17.1513 7.34838 16.9511 7.1998 16.7262 7.0989C16.5014 6.99799 16.2573 6.94717 16.0109 6.94996H11.1999Z" stroke="#5F5F5F" stroke-width="1.5" stroke-linecap="round" stroke-linejoin="round"/>
</svg>
