<svg width="16" height="16" viewBox="0 0 16 16" fill="none" xmlns="http://www.w3.org/2000/svg">
<path d="M13.333 1.33398H2.66634C1.92996 1.33398 1.33301 1.93094 1.33301 2.66732V5.33398C1.33301 6.07036 1.92996 6.66732 2.66634 6.66732H13.333C14.0694 6.66732 14.6663 6.07036 14.6663 5.33398V2.66732C14.6663 1.93094 14.0694 1.33398 13.333 1.33398Z" stroke="#5F5F5F" stroke-linecap="round" stroke-linejoin="round"/>
<path d="M13.333 9.33398H2.66634C1.92996 9.33398 1.33301 9.93094 1.33301 10.6673V13.334C1.33301 14.0704 1.92996 14.6673 2.66634 14.6673H13.333C14.0694 14.6673 14.6663 14.0704 14.6663 13.334V10.6673C14.6663 9.93094 14.0694 9.33398 13.333 9.33398Z" stroke="#5F5F5F" stroke-linecap="round" stroke-linejoin="round"/>
</svg>
