<svg width="24" height="25" viewBox="0 0 24 25" fill="none" xmlns="http://www.w3.org/2000/svg">
<path fill-rule="evenodd" clip-rule="evenodd" d="M12 8C10.7574 8 9.75 9.00736 9.75 10.25C9.75 11.4926 10.7574 12.5 12 12.5C13.2426 12.5 14.25 11.4926 14.25 10.25C14.25 9.00736 13.2426 8 12 8ZM8.25 10.25C8.25 8.17893 9.92893 6.5 12 6.5C14.0711 6.5 15.75 8.17893 15.75 10.25C15.75 12.3211 14.0711 14 12 14C9.92893 14 8.25 12.3211 8.25 10.25Z" fill="#5F5F5F"/>
<path fill-rule="evenodd" clip-rule="evenodd" d="M12 3.5C10.2098 3.5 8.4929 4.21116 7.22703 5.47703C5.96116 6.7429 5.25 8.45979 5.25 10.25C5.25 13.355 6.98389 16.1822 8.81595 18.2891C9.72283 19.332 10.6316 20.1729 11.3139 20.7528C11.5837 20.9821 11.8172 21.1699 12 21.3125C12.1828 21.1699 12.4163 20.9821 12.6861 20.7528C13.3684 20.1729 14.2772 19.332 15.184 18.2891C17.0161 16.1822 18.75 13.355 18.75 10.25C18.75 8.45979 18.0388 6.7429 16.773 5.47703C15.5071 4.21116 13.7902 3.5 12 3.5ZM12 22.25C11.5699 22.8644 11.5697 22.8643 11.5695 22.8641L11.5688 22.8637L11.5671 22.8624L11.5615 22.8585L11.5425 22.845C11.5263 22.8334 11.5031 22.8167 11.4736 22.7952C11.4144 22.752 11.3294 22.689 11.2223 22.6071C11.0081 22.4434 10.7049 22.2038 10.3424 21.8957C9.61838 21.2803 8.65217 20.3867 7.68405 19.2734C5.76611 17.0678 3.75 13.895 3.75 10.25C3.75 8.06196 4.61919 5.96354 6.16637 4.41637C7.71354 2.86919 9.81196 2 12 2C14.188 2 16.2865 2.86919 17.8336 4.41637C19.3808 5.96354 20.25 8.06196 20.25 10.25C20.25 13.895 18.2339 17.0678 16.316 19.2734C15.3478 20.3867 14.3816 21.2803 13.6576 21.8957C13.2951 22.2038 12.9919 22.4434 12.7777 22.6071C12.6706 22.689 12.5856 22.752 12.5264 22.7952C12.4969 22.8167 12.4737 22.8334 12.4575 22.845L12.4385 22.8585L12.4329 22.8624L12.4312 22.8637L12.4305 22.8641C12.4303 22.8643 12.4301 22.8644 12 22.25ZM12 22.25L12.4301 22.8644C12.1719 23.0452 11.8281 23.0452 11.5699 22.8644L12 22.25Z" fill="#5F5F5F"/>
</svg>
