<svg width="16" height="16" viewBox="0 0 16 16" fill="none" xmlns="http://www.w3.org/2000/svg">
<path fill-rule="evenodd" clip-rule="evenodd" d="M7.25 2.5C4.62665 2.5 2.5 4.62665 2.5 7.25C2.5 9.87335 4.62665 12 7.25 12C9.87335 12 12 9.87335 12 7.25C12 4.62665 9.87335 2.5 7.25 2.5ZM1.5 7.25C1.5 4.07436 4.07436 1.5 7.25 1.5C10.4256 1.5 13 4.07436 13 7.25C13 10.4256 10.4256 13 7.25 13C4.07436 13 1.5 10.4256 1.5 7.25Z" fill="#5F5F5F" stroke="#5F5F5F" stroke-width="0.5" stroke-linecap="round" stroke-linejoin="round"/>
<path fill-rule="evenodd" clip-rule="evenodd" d="M10.6093 10.6093C10.8046 10.4141 11.1212 10.4141 11.3164 10.6093L14.3539 13.6468C14.5492 13.8421 14.5492 14.1587 14.3539 14.3539C14.1587 14.5492 13.8421 14.5492 13.6468 14.3539L10.6093 11.3164C10.4141 11.1212 10.4141 10.8046 10.6093 10.6093Z" fill="#5F5F5F" stroke="#5F5F5F" stroke-width="0.5" stroke-linecap="round" stroke-linejoin="round"/>
</svg>
