<svg width="16" height="16" viewBox="0 0 16 16" fill="none" xmlns="http://www.w3.org/2000/svg">
<path fill-rule="evenodd" clip-rule="evenodd" d="M2.66602 3.33333C2.30087 3.33333 1.99935 3.63486 1.99935 4V12C1.99935 12.3651 2.30087 12.6667 2.66602 12.6667H13.3327C13.6978 12.6667 13.9993 12.3651 13.9993 12V4C13.9993 3.63486 13.6978 3.33333 13.3327 3.33333H2.66602ZM0.666016 4C0.666016 2.89848 1.56449 2 2.66602 2H13.3327C14.4342 2 15.3327 2.89848 15.3327 4V12C15.3327 13.1015 14.4342 14 13.3327 14H2.66602C1.56449 14 0.666016 13.1015 0.666016 12V4Z" fill="#5F5F5F"/>
<path fill-rule="evenodd" clip-rule="evenodd" d="M0.786585 3.6184C0.997728 3.31677 1.41341 3.24341 1.71505 3.45455L7.99941 7.8536L14.2838 3.45455C14.5854 3.24341 15.0011 3.31677 15.2122 3.6184C15.4234 3.92003 15.35 4.33572 15.0484 4.54686L8.38171 9.21353C8.15217 9.37421 7.84664 9.37421 7.6171 9.21353L0.950431 4.54686C0.648798 4.33572 0.575442 3.92003 0.786585 3.6184Z" fill="#5F5F5F"/>
</svg>
