<svg width="24" height="24" viewBox="0 0 24 24" fill="none" xmlns="http://www.w3.org/2000/svg">
<path fill-rule="evenodd" clip-rule="evenodd" d="M9.75 12C9.75 11.5858 10.0858 11.25 10.5 11.25H20.25C20.6642 11.25 21 11.5858 21 12C21 12.4142 20.6642 12.75 20.25 12.75H10.5C10.0858 12.75 9.75 12.4142 9.75 12Z" fill="#C4C4C4"/>
<path fill-rule="evenodd" clip-rule="evenodd" d="M9.75 6C9.75 5.58579 10.0858 5.25 10.5 5.25H20.25C20.6642 5.25 21 5.58579 21 6C21 6.41421 20.6642 6.75 20.25 6.75H10.5C10.0858 6.75 9.75 6.41421 9.75 6Z" fill="#C4C4C4"/>
<path fill-rule="evenodd" clip-rule="evenodd" d="M3 18C3 17.5858 3.33579 17.25 3.75 17.25H20.25C20.6642 17.25 21 17.5858 21 18C21 18.4142 20.6642 18.75 20.25 18.75H3.75C3.33579 18.75 3 18.4142 3 18Z" fill="#C4C4C4"/>
<path fill-rule="evenodd" clip-rule="evenodd" d="M7.28033 4.71967C7.57322 5.01256 7.57322 5.48744 7.28033 5.78033L4.06066 9L7.28033 12.2197C7.57322 12.5126 7.57322 12.9874 7.28033 13.2803C6.98744 13.5732 6.51256 13.5732 6.21967 13.2803L2.46967 9.53033C2.17678 9.23744 2.17678 8.76256 2.46967 8.46967L6.21967 4.71967C6.51256 4.42678 6.98744 4.42678 7.28033 4.71967Z" fill="#C4C4C4"/>
</svg>
