<svg width="24" height="24" viewBox="0 0 24 24" fill="none" xmlns="http://www.w3.org/2000/svg">
<path fill-rule="evenodd" clip-rule="evenodd" d="M2.68934 4.18934C2.97064 3.90804 3.35217 3.75 3.75 3.75H20.25C20.6478 3.75 21.0294 3.90804 21.3107 4.18934C21.592 4.47065 21.75 4.85218 21.75 5.25V20.25C21.75 20.5099 21.6154 20.7513 21.3943 20.888C21.1732 21.0246 20.8971 21.0371 20.6646 20.9208L18 19.5885L15.3354 20.9208C15.1243 21.0264 14.8757 21.0264 14.6646 20.9208L12 19.5885L9.33541 20.9208C9.12426 21.0264 8.87574 21.0264 8.66459 20.9208L6 19.5885L3.33541 20.9208C3.10292 21.0371 2.82681 21.0246 2.6057 20.888C2.38459 20.7513 2.25 20.5099 2.25 20.25V5.25C2.25 4.85217 2.40804 4.47064 2.68934 4.18934ZM20.25 5.25L3.75 5.25L3.75 19.0365L5.66459 18.0792C5.87574 17.9736 6.12426 17.9736 6.33541 18.0792L9 19.4115L11.6646 18.0792C11.8757 17.9736 12.1243 17.9736 12.3354 18.0792L15 19.4115L17.6646 18.0792C17.8757 17.9736 18.1243 17.9736 18.3354 18.0792L20.25 19.0365V5.25Z" fill="#095AA5"/>
<path fill-rule="evenodd" clip-rule="evenodd" d="M12.75 10.5C12.75 10.0858 13.0858 9.75 13.5 9.75H18C18.4142 9.75 18.75 10.0858 18.75 10.5C18.75 10.9142 18.4142 11.25 18 11.25H13.5C13.0858 11.25 12.75 10.9142 12.75 10.5Z" fill="#095AA5"/>
<path fill-rule="evenodd" clip-rule="evenodd" d="M12.75 13.5C12.75 13.0858 13.0858 12.75 13.5 12.75H18C18.4142 12.75 18.75 13.0858 18.75 13.5C18.75 13.9142 18.4142 14.25 18 14.25H13.5C13.0858 14.25 12.75 13.9142 12.75 13.5Z" fill="#095AA5"/>
<path fill-rule="evenodd" clip-rule="evenodd" d="M5.25 9C5.25 8.58579 5.58579 8.25 6 8.25H10.5C10.9142 8.25 11.25 8.58579 11.25 9V15C11.25 15.4142 10.9142 15.75 10.5 15.75H6C5.58579 15.75 5.25 15.4142 5.25 15V9ZM6.75 9.75V14.25H9.75V9.75H6.75Z" fill="#095AA5"/>
</svg>
