<svg width="16" height="16" viewBox="0 0 16 16" fill="none" xmlns="http://www.w3.org/2000/svg">
<path fill-rule="evenodd" clip-rule="evenodd" d="M0.976311 10.3093C1.60143 9.6842 2.44928 9.33301 3.33333 9.33301H8.66667C9.55072 9.33301 10.3986 9.6842 11.0237 10.3093C11.6488 10.9344 12 11.7823 12 12.6663V13.9997C12 14.3679 11.7015 14.6663 11.3333 14.6663C10.9651 14.6663 10.6667 14.3679 10.6667 13.9997V12.6663C10.6667 12.1359 10.456 11.6272 10.0809 11.2521C9.70581 10.8771 9.1971 10.6663 8.66667 10.6663H3.33333C2.8029 10.6663 2.29419 10.8771 1.91912 11.2521C1.54405 11.6272 1.33333 12.1359 1.33333 12.6663V13.9997C1.33333 14.3679 1.03486 14.6663 0.666667 14.6663C0.298477 14.6663 0 14.3679 0 13.9997V12.6663C0 11.7823 0.35119 10.9344 0.976311 10.3093Z" fill="#5F5F5F"/>
<path fill-rule="evenodd" clip-rule="evenodd" d="M5.99935 2.66634C4.89478 2.66634 3.99935 3.56177 3.99935 4.66634C3.99935 5.77091 4.89478 6.66634 5.99935 6.66634C7.10392 6.66634 7.99935 5.77091 7.99935 4.66634C7.99935 3.56177 7.10392 2.66634 5.99935 2.66634ZM2.66602 4.66634C2.66602 2.82539 4.1584 1.33301 5.99935 1.33301C7.8403 1.33301 9.33268 2.82539 9.33268 4.66634C9.33268 6.50729 7.8403 7.99967 5.99935 7.99967C4.1584 7.99967 2.66602 6.50729 2.66602 4.66634Z" fill="#5F5F5F"/>
<path fill-rule="evenodd" clip-rule="evenodd" d="M12.6873 9.92008C12.7794 9.56359 13.143 9.34921 13.4995 9.44125C14.2146 9.62589 14.8482 10.0428 15.3006 10.6265C15.7531 11.2102 15.999 11.9277 15.9995 12.6663L15.9995 14.0001C15.9995 14.3683 15.701 14.6668 15.3328 14.6668C14.9647 14.6668 14.6662 14.3683 14.6662 14.0001L14.6662 12.6672C14.6662 12.6672 14.6662 12.6673 14.6662 12.6672C14.6658 12.2242 14.5183 11.7936 14.2469 11.4434C13.9754 11.0932 13.5952 10.843 13.1662 10.7322C12.8097 10.6402 12.5953 10.2766 12.6873 9.92008Z" fill="#5F5F5F"/>
<path fill-rule="evenodd" clip-rule="evenodd" d="M10.021 1.92139C10.1123 1.56471 10.4755 1.34959 10.8322 1.44092C11.5492 1.6245 12.1847 2.0415 12.6386 2.62617C13.0924 3.21085 13.3387 3.92994 13.3387 4.67008C13.3387 5.41022 13.0924 6.12932 12.6386 6.71399C12.1847 7.29866 11.5492 7.71566 10.8322 7.89925C10.4755 7.99057 10.1123 7.77546 10.021 7.41877C9.92967 7.06209 10.1448 6.69891 10.5015 6.60758C10.9317 6.49743 11.313 6.24723 11.5853 5.89643C11.8576 5.54562 12.0054 5.11417 12.0054 4.67008C12.0054 4.226 11.8576 3.79454 11.5853 3.44374C11.313 3.09293 10.9317 2.84273 10.5015 2.73258C10.1448 2.64126 9.92967 2.27807 10.021 1.92139Z" fill="#5F5F5F"/>
</svg>
