<svg width="20" height="20" viewBox="0 0 20 20" fill="none" xmlns="http://www.w3.org/2000/svg">
<path fill-rule="evenodd" clip-rule="evenodd" d="M3.23223 1.56524C3.70107 1.0964 4.33696 0.833008 5 0.833008H10.8333C11.0543 0.833008 11.2663 0.920805 11.4226 1.07709L17.2559 6.91042C17.4122 7.0667 17.5 7.27866 17.5 7.49967V16.6663C17.5 17.3294 17.2366 17.9653 16.7678 18.4341C16.2989 18.9029 15.663 19.1663 15 19.1663H5C4.33696 19.1663 3.70107 18.9029 3.23223 18.4341C2.76339 17.9653 2.5 17.3294 2.5 16.6663V3.33301C2.5 2.66997 2.76339 2.03408 3.23223 1.56524ZM5 2.49967C4.77899 2.49967 4.56702 2.58747 4.41074 2.74375C4.25446 2.90003 4.16667 3.11199 4.16667 3.33301V16.6663C4.16667 16.8874 4.25446 17.0993 4.41074 17.2556C4.56702 17.4119 4.77899 17.4997 5 17.4997H15C15.221 17.4997 15.433 17.4119 15.5893 17.2556C15.7455 17.0993 15.8333 16.8874 15.8333 16.6663V7.84485L10.4882 2.49967H5Z" fill="#5F5F5F"/>
<path fill-rule="evenodd" clip-rule="evenodd" d="M10.8333 0.833008C11.2936 0.833008 11.6667 1.2061 11.6667 1.66634V6.66634H16.6667C17.1269 6.66634 17.5 7.03944 17.5 7.49967C17.5 7.95991 17.1269 8.33301 16.6667 8.33301H10.8333C10.3731 8.33301 10 7.95991 10 7.49967V1.66634C10 1.2061 10.3731 0.833008 10.8333 0.833008Z" fill="#5F5F5F"/>
</svg>
