<svg width="16" height="17" viewBox="0 0 16 17" fill="none" xmlns="http://www.w3.org/2000/svg">
<g clip-path="url(#clip0_2356_79119)">
<path fill-rule="evenodd" clip-rule="evenodd" d="M0.976311 10.9763C1.60143 10.3512 2.44928 10 3.33333 10H8.66667C9.55072 10 10.3986 10.3512 11.0237 10.9763C11.6488 11.6014 12 12.4493 12 13.3333V14.6667C12 15.0349 11.7015 15.3333 11.3333 15.3333C10.9651 15.3333 10.6667 15.0349 10.6667 14.6667V13.3333C10.6667 12.8029 10.456 12.2942 10.0809 11.9191C9.70581 11.544 9.1971 11.3333 8.66667 11.3333H3.33333C2.8029 11.3333 2.29419 11.544 1.91912 11.9191C1.54405 12.2942 1.33333 12.8029 1.33333 13.3333V14.6667C1.33333 15.0349 1.03486 15.3333 0.666667 15.3333C0.298477 15.3333 0 15.0349 0 14.6667V13.3333C0 12.4493 0.35119 11.6014 0.976311 10.9763Z" fill="#095AA5" stroke="#095AA5" stroke-width="0.2" stroke-linecap="round" stroke-linejoin="round"/>
<path fill-rule="evenodd" clip-rule="evenodd" d="M5.99935 3.33333C4.89478 3.33333 3.99935 4.22876 3.99935 5.33333C3.99935 6.4379 4.89478 7.33333 5.99935 7.33333C7.10392 7.33333 7.99935 6.4379 7.99935 5.33333C7.99935 4.22876 7.10392 3.33333 5.99935 3.33333ZM2.66602 5.33333C2.66602 3.49238 4.1584 2 5.99935 2C7.8403 2 9.33268 3.49238 9.33268 5.33333C9.33268 7.17428 7.8403 8.66667 5.99935 8.66667C4.1584 8.66667 2.66602 7.17428 2.66602 5.33333Z" fill="#095AA5" stroke="#095AA5" stroke-width="0.2" stroke-linecap="round" stroke-linejoin="round"/>
<path fill-rule="evenodd" clip-rule="evenodd" d="M12.6873 10.5861C12.7794 10.2296 13.143 10.0152 13.4995 10.1073C14.2146 10.2919 14.8482 10.7088 15.3006 11.2925C15.7531 11.8762 15.999 12.5937 15.9995 13.3323L15.9995 14.6661C15.9995 15.0343 15.701 15.3328 15.3328 15.3328C14.9647 15.3328 14.6662 15.0343 14.6662 14.6661L14.6662 13.3333C14.6662 13.3332 14.6662 13.3333 14.6662 13.3333C14.6658 12.8902 14.5183 12.4596 14.2469 12.1094C13.9754 11.7592 13.5952 11.509 13.1662 11.3983C12.8097 11.3062 12.5953 10.9426 12.6873 10.5861Z" fill="#095AA5"/>
<path d="M14.6662 13.3333L14.6662 14.6661C14.6662 15.0343 14.9647 15.3328 15.3328 15.3328C15.701 15.3328 15.9995 15.0343 15.9995 14.6661L15.9995 13.3323C15.999 12.5937 15.7531 11.8762 15.3006 11.2925C14.8482 10.7088 14.2146 10.2919 13.4995 10.1073C13.143 10.0152 12.7794 10.2296 12.6873 10.5861C12.5953 10.9426 12.8097 11.3062 13.1662 11.3983C13.5952 11.509 13.9754 11.7592 14.2469 12.1094C14.5183 12.4596 14.6658 12.8902 14.6662 13.3333ZM14.6662 13.3333C14.6662 13.3333 14.6662 13.3332 14.6662 13.3333Z" stroke="#095AA5" stroke-width="0.2" stroke-linecap="round" stroke-linejoin="round"/>
<path fill-rule="evenodd" clip-rule="evenodd" d="M10.021 2.58741C10.1123 2.23072 10.4755 2.01561 10.8322 2.10693C11.5492 2.29052 12.1847 2.70752 12.6386 3.29219C13.0924 3.87686 13.3387 4.59596 13.3387 5.3361C13.3387 6.07624 13.0924 6.79533 12.6386 7.38001C12.1847 7.96468 11.5492 8.38168 10.8322 8.56526C10.4755 8.65659 10.1123 8.44147 10.021 8.08479C9.92967 7.72811 10.1448 7.36492 10.5015 7.2736C10.9317 7.16345 11.313 6.91325 11.5853 6.56244C11.8576 6.21164 12.0054 5.78018 12.0054 5.3361C12.0054 4.89201 11.8576 4.46056 11.5853 4.10975C11.313 3.75895 10.9317 3.50875 10.5015 3.3986C10.1448 3.30727 9.92967 2.94409 10.021 2.58741Z" fill="#095AA5" stroke="#095AA5" stroke-width="0.2" stroke-linecap="round" stroke-linejoin="round"/>
</g>
<defs>
<clipPath id="clip0_2356_79119">
<rect width="16" height="16" fill="white" transform="translate(0 0.667969)"/>
</clipPath>
</defs>
</svg>
