<svg width="16" height="17" viewBox="0 0 16 17" fill="none" xmlns="http://www.w3.org/2000/svg">
<path fill-rule="evenodd" clip-rule="evenodd" d="M2.58579 1.58579C2.96086 1.21071 3.46957 1 4 1H9.33333C9.51014 1 9.67971 1.07024 9.80474 1.19526L13.8047 5.19526C13.9298 5.32029 14 5.48986 14 5.66667V13.6667C14 14.1971 13.7893 14.7058 13.4142 15.0809C13.0391 15.456 12.5304 15.6667 12 15.6667H4C3.46957 15.6667 2.96086 15.456 2.58579 15.0809C2.21071 14.7058 2 14.1971 2 13.6667V3C2 2.46957 2.21071 1.96086 2.58579 1.58579ZM4 2.33333C3.82319 2.33333 3.65362 2.40357 3.5286 2.5286C3.40357 2.65362 3.33333 2.82319 3.33333 3V13.6667C3.33333 13.8435 3.40357 14.013 3.5286 14.1381C3.65362 14.2631 3.82319 14.3333 4 14.3333H12C12.1768 14.3333 12.3464 14.2631 12.4714 14.1381C12.5964 14.013 12.6667 13.8435 12.6667 13.6667V5.94281L9.05719 2.33333H4Z" fill="#095AA5"/>
<path fill-rule="evenodd" clip-rule="evenodd" d="M9.33268 1C9.70087 1 9.99935 1.29848 9.99935 1.66667V5H13.3327C13.7009 5 13.9993 5.29848 13.9993 5.66667C13.9993 6.03486 13.7009 6.33333 13.3327 6.33333H9.33268C8.96449 6.33333 8.66602 6.03486 8.66602 5.66667V1.66667C8.66602 1.29848 8.96449 1 9.33268 1Z" fill="#095AA5"/>
<path fill-rule="evenodd" clip-rule="evenodd" d="M4.66602 8.9987C4.66602 8.63051 4.96449 8.33203 5.33268 8.33203H10.666C11.0342 8.33203 11.3327 8.63051 11.3327 8.9987C11.3327 9.36689 11.0342 9.66536 10.666 9.66536H5.33268C4.96449 9.66536 4.66602 9.36689 4.66602 8.9987Z" fill="#095AA5"/>
<path fill-rule="evenodd" clip-rule="evenodd" d="M4.66602 11.6667C4.66602 11.2985 4.96449 11 5.33268 11H10.666C11.0342 11 11.3327 11.2985 11.3327 11.6667C11.3327 12.0349 11.0342 12.3333 10.666 12.3333H5.33268C4.96449 12.3333 4.66602 12.0349 4.66602 11.6667Z" fill="#095AA5"/>
<path fill-rule="evenodd" clip-rule="evenodd" d="M4.66602 6.33073C4.66602 5.96254 4.96449 5.66406 5.33268 5.66406H6.66602C7.03421 5.66406 7.33268 5.96254 7.33268 6.33073C7.33268 6.69892 7.03421 6.9974 6.66602 6.9974H5.33268C4.96449 6.9974 4.66602 6.69892 4.66602 6.33073Z" fill="#095AA5"/>
</svg>
