<svg width="22" height="22" viewBox="0 0 22 22" fill="none" xmlns="http://www.w3.org/2000/svg">
<path fill-rule="evenodd" clip-rule="evenodd" d="M6.95091 2.10291C7.24806 2.06479 7.5495 2.12538 7.80884 2.27536C8.06702 2.42467 8.26922 2.65433 8.38465 2.92925L10.1095 6.95392C10.1097 6.95449 10.11 6.95507 10.1102 6.95564C10.1995 7.16202 10.2369 7.38716 10.2189 7.61133C10.201 7.83613 10.128 8.05305 10.0064 8.24298L10.0018 8.25005L8.56938 10.4287C9.20867 11.7472 10.2749 12.8109 11.595 13.4471L11.5978 13.4452L13.7446 12.0112C13.9351 11.8825 14.155 11.804 14.3839 11.7829C14.6128 11.7618 14.8434 11.7989 15.0542 11.8905C15.055 11.8909 15.0559 11.8913 15.0567 11.8917L19.0715 13.6159C19.3463 13.7314 19.5758 13.9335 19.7251 14.1916C19.8751 14.451 19.9357 14.7524 19.8976 15.0495C19.7488 16.2103 19.1823 17.2771 18.3039 18.0503C17.4254 18.8235 16.2954 19.2502 15.1252 19.2505C11.8431 19.2505 8.69532 17.9467 6.37455 15.6259C4.05379 13.3051 2.75 10.1575 2.75 6.87546C2.75026 5.70521 3.17692 4.57501 3.95014 3.6966C4.72331 2.81825 5.79024 2.25167 6.95091 2.10291ZM7.94922 10.7255L7.32908 11.0222C7.22755 10.8101 7.18213 10.5754 7.19718 10.3407C7.21222 10.106 7.28723 9.87907 7.41501 9.68161L7.41771 9.67744L8.84829 7.50162L8.84699 7.49862L7.11965 3.46815C6.29296 3.57561 5.53316 3.97925 4.98224 4.60511C4.42998 5.23251 4.12523 6.03962 4.125 6.87546M7.94922 10.7255L7.33045 11.0251C8.1056 12.6258 9.4 13.9169 11.0027 14.688L11.0066 14.6898C11.2224 14.792 11.461 14.8362 11.6991 14.8181C11.9366 14.8001 12.1653 14.7207 12.3629 14.5877C12.3634 14.5873 12.3639 14.587 12.3644 14.5867L14.51 13.1534L18.5318 14.8806L18.5329 14.8811C18.4254 15.7078 18.0212 16.4673 17.3953 17.0182C16.768 17.5705 15.9608 17.8752 15.125 17.8755M4.125 6.87546C4.12504 9.79278 5.28396 12.5908 7.34683 14.6536C9.40969 16.7165 12.2077 17.8754 15.125 17.8755" fill="#5F5F5F"/>
</svg>
