<svg width="18" height="18" viewBox="0 0 18 18" fill="none" xmlns="http://www.w3.org/2000/svg">
<path fill-rule="evenodd" clip-rule="evenodd" d="M5.68711 1.72003C5.93023 1.68884 6.17686 1.73841 6.38905 1.86112C6.60029 1.98329 6.76573 2.17119 6.86017 2.39613L8.27141 5.68904C8.27161 5.68951 8.27182 5.68998 8.27202 5.69045C8.34508 5.8593 8.37562 6.04351 8.36095 6.22692C8.34623 6.41084 8.28651 6.58833 8.18703 6.74373L8.18333 6.74951L7.01131 8.53203C7.53437 9.61084 8.40677 10.4811 9.48683 11.0016L9.48911 11.0001L11.2455 9.82677C11.4014 9.72152 11.5813 9.65729 11.7686 9.64004C11.9559 9.62279 12.1446 9.65307 12.317 9.72808C12.3177 9.72839 12.3184 9.7287 12.3191 9.72901L15.604 11.1398C15.8288 11.2342 16.0166 11.3996 16.1387 11.6108C16.2614 11.823 16.311 12.0696 16.2798 12.3127C16.1581 13.2624 15.6946 14.1353 14.9759 14.7679C14.2572 15.4005 13.3326 15.7496 12.3751 15.7498C9.68981 15.7498 7.11435 14.6831 5.21554 12.7843C3.31674 10.8855 2.25 8.31016 2.25 5.62484C2.25022 4.66737 2.5993 3.74266 3.23194 3.02396C3.86453 2.30531 4.73747 1.84174 5.68711 1.72003ZM6.50391 8.77484L5.99652 9.01766C5.91345 8.84408 5.87629 8.65209 5.8886 8.46005C5.90091 8.26801 5.96228 8.08234 6.06683 7.92079L6.06904 7.91737L7.23951 6.13716L7.23844 6.1347L5.82517 2.83705C5.14879 2.92496 4.52713 3.25522 4.07638 3.76729C3.62453 4.28061 3.37518 4.94098 3.375 5.62484M6.50391 8.77484L5.99764 9.02C6.63186 10.3297 7.69091 11.386 9.00224 12.0169L9.00537 12.0184C9.18193 12.102 9.37722 12.1382 9.57202 12.1234C9.76631 12.1086 9.95343 12.0437 10.1151 11.9348C10.1155 11.9346 10.1159 11.9343 10.1163 11.934L11.8718 10.7613L15.1624 12.1745L15.1633 12.1749C15.0753 12.8513 14.7446 13.4727 14.2326 13.9235C13.7192 14.3753 13.0589 14.6247 12.375 14.6248M3.375 5.62484C3.37503 8.01174 4.32324 10.301 6.01104 11.9888C7.69884 13.6766 9.9881 14.6248 12.375 14.6248" fill="#095AA5"/>
</svg>
