<svg width="16" height="16" viewBox="0 0 16 16" fill="none" xmlns="http://www.w3.org/2000/svg">
<path fill-rule="evenodd" clip-rule="evenodd" d="M12.2385 11.5C11.7414 11.5 11.3385 11.9477 11.3385 12.5C11.3385 13.0523 11.7414 13.5 12.2385 13.5C12.7355 13.5 13.1385 13.0523 13.1385 12.5C13.1385 11.9477 12.7355 11.5 12.2385 11.5ZM10.4385 12.5C10.4385 11.3954 11.2444 10.5 12.2385 10.5C13.2326 10.5 14.0385 11.3954 14.0385 12.5C14.0385 13.6046 13.2326 14.5 12.2385 14.5C11.2444 14.5 10.4385 13.6046 10.4385 12.5Z" fill="#8598AD"/>
<path fill-rule="evenodd" clip-rule="evenodd" d="M4.58789 3.5C4.58789 3.22386 4.78936 3 5.03789 3H10.4379C11.0346 3 11.6069 3.26339 12.0289 3.73223C12.4508 4.20107 12.6879 4.83696 12.6879 5.5C12.6879 6.16304 12.4508 6.79893 12.0289 7.26777C11.6069 7.73661 11.0346 8 10.4379 8H5.03789C4.5605 8 4.10266 8.21071 3.7651 8.58579C3.42753 8.96086 3.23789 9.46957 3.23789 10C3.23789 10.5304 3.42753 11.0391 3.7651 11.4142C4.10266 11.7893 4.5605 12 5.03789 12H10.8879C11.1364 12 11.3379 12.2239 11.3379 12.5C11.3379 12.7761 11.1364 13 10.8879 13H5.03789C4.32181 13 3.63505 12.6839 3.1287 12.1213C2.62235 11.5587 2.33789 10.7956 2.33789 10C2.33789 9.20435 2.62235 8.44129 3.1287 7.87868C3.63505 7.31607 4.32181 7 5.03789 7H10.4379C10.7959 7 11.1393 6.84196 11.3925 6.56066C11.6457 6.27936 11.7879 5.89782 11.7879 5.5C11.7879 5.10218 11.6457 4.72064 11.3925 4.43934C11.1393 4.15804 10.7959 4 10.4379 4H5.03789C4.78936 4 4.58789 3.77614 4.58789 3.5Z" fill="#8598AD"/>
</svg>
