<svg width="20" height="20" viewBox="0 0 20 20" fill="none" xmlns="http://www.w3.org/2000/svg">
<path fill-rule="evenodd" clip-rule="evenodd" d="M2.5 3.75C2.5 3.05964 3.05964 2.5 3.75 2.5H16.25C16.9404 2.5 17.5 3.05964 17.5 3.75V16.25C17.5 16.9404 16.9404 17.5 16.25 17.5H3.75C3.05964 17.5 2.5 16.9404 2.5 16.25V3.75ZM16.25 3.75H3.75V16.25H16.25V3.75Z" fill="#5F5F5F"/>
<path fill-rule="evenodd" clip-rule="evenodd" d="M12.6422 8.4798C12.7951 8.41578 12.9592 8.38281 13.125 8.38281C13.2908 8.38281 13.4549 8.41578 13.6078 8.4798C13.7598 8.54345 13.8977 8.63652 14.0136 8.75366L17.3169 12.057C17.561 12.3011 17.561 12.6968 17.3169 12.9409C17.0729 13.185 16.6771 13.185 16.4331 12.9409L13.125 9.63283L13.1216 9.63622L9.63865 13.1192C9.52275 13.2364 9.38481 13.3294 9.23277 13.3931C9.07987 13.4571 8.91577 13.4901 8.75 13.4901C8.58423 13.4901 8.42013 13.4571 8.26723 13.3931C8.11518 13.3294 7.97723 13.2363 7.86132 13.1192L6.24999 11.5078L6.24664 11.5112L3.56694 14.1909C3.32286 14.435 2.92714 14.435 2.68306 14.1909C2.43898 13.9468 2.43898 13.5511 2.68306 13.307L5.36135 10.6287C5.47725 10.5116 5.61519 10.4185 5.76723 10.3548C5.92013 10.2908 6.08423 10.2578 6.25 10.2578C6.41577 10.2578 6.57987 10.2908 6.73277 10.3548C6.88482 10.4185 7.02276 10.5116 7.13867 10.6287L8.75001 12.2401L8.75336 12.2367L12.2364 8.75372C12.3523 8.63655 12.4902 8.54346 12.6422 8.4798Z" fill="#5F5F5F"/>
<path d="M7.8125 8.125C8.33027 8.125 8.75 7.70527 8.75 7.1875C8.75 6.66973 8.33027 6.25 7.8125 6.25C7.29473 6.25 6.875 6.66973 6.875 7.1875C6.875 7.70527 7.29473 8.125 7.8125 8.125Z" fill="#5F5F5F"/>
</svg>
