<svg width="306" height="144" viewBox="0 0 306 144" fill="none" xmlns="http://www.w3.org/2000/svg">
<path d="M52.6223 53.4545V68H49.5471V56.3736H49.4618L46.1309 58.4616V55.7344L49.7317 53.4545H52.6223ZM61.4558 68.1989C60.3952 68.1989 59.4506 68.0166 58.622 67.652C57.7981 67.2827 57.1471 66.776 56.6689 66.1321C56.1954 65.4834 55.9515 64.7353 55.9373 63.8878H59.0339C59.0529 64.2429 59.1689 64.5554 59.3819 64.8253C59.5997 65.0904 59.8886 65.2964 60.2484 65.4432C60.6083 65.59 61.0131 65.6634 61.4629 65.6634C61.9316 65.6634 62.3459 65.5805 62.7058 65.4148C63.0656 65.2491 63.3474 65.0194 63.551 64.7259C63.7546 64.4323 63.8564 64.0937 63.8564 63.7102C63.8564 63.322 63.7475 62.9787 63.5297 62.6804C63.3166 62.3774 63.0088 62.1406 62.6064 61.9702C62.2086 61.7997 61.7351 61.7145 61.1859 61.7145H59.8294V59.456H61.1859C61.6499 59.456 62.0595 59.3755 62.4146 59.2145C62.7744 59.0535 63.0538 58.831 63.2527 58.5469C63.4515 58.258 63.551 57.9219 63.551 57.5384C63.551 57.1738 63.4634 56.8542 63.2882 56.5795C63.1177 56.3002 62.8762 56.0824 62.5637 55.9261C62.256 55.7699 61.8961 55.6918 61.4842 55.6918C61.0675 55.6918 60.6864 55.7675 60.3407 55.919C59.9951 56.0658 59.7181 56.2765 59.5098 56.5511C59.3014 56.8258 59.1902 57.1477 59.176 57.517H56.2285C56.2427 56.679 56.4818 55.9403 56.9458 55.3011C57.4099 54.6619 58.0349 54.1624 58.8208 53.8026C59.6116 53.438 60.5041 53.2557 61.4984 53.2557C62.5022 53.2557 63.3805 53.438 64.1333 53.8026C64.8862 54.1671 65.4709 54.6596 65.8876 55.2798C66.309 55.8954 66.5173 56.5866 66.5126 57.3537C66.5173 58.1681 66.264 58.8475 65.7527 59.392C65.246 59.9366 64.5855 60.2822 63.7711 60.429V60.5426C64.8412 60.6799 65.6556 61.0516 66.2143 61.6577C66.7778 62.259 67.0571 63.0118 67.0524 63.9162C67.0571 64.7448 66.818 65.4811 66.3351 66.125C65.8568 66.7689 65.1963 67.2756 64.3535 67.6449C63.5107 68.0142 62.5448 68.1989 61.4558 68.1989ZM74.8453 68.1989C74.0972 68.1941 73.3752 68.0687 72.6792 67.8224C71.9879 67.5762 71.3676 67.1761 70.8184 66.6222C70.2691 66.0682 69.8335 65.3343 69.5115 64.4205C69.1943 63.5066 69.0357 62.3845 69.0357 61.054C69.0404 59.8324 69.1801 58.741 69.4547 57.7798C69.7341 56.8139 70.1318 55.9948 70.6479 55.3224C71.1687 54.6501 71.7914 54.1387 72.5158 53.7884C73.2402 53.4332 74.0523 53.2557 74.9519 53.2557C75.9225 53.2557 76.7795 53.4451 77.5229 53.8239C78.2663 54.1979 78.8629 54.7069 79.3127 55.3509C79.7672 55.9948 80.0418 56.7169 80.1365 57.517H77.1039C76.9855 57.0104 76.7369 56.6127 76.3581 56.3239C75.9793 56.035 75.5106 55.8906 74.9519 55.8906C74.0049 55.8906 73.2852 56.3026 72.7928 57.1264C72.3051 57.9503 72.0565 59.0701 72.0471 60.4858H72.1465C72.3643 60.0549 72.6578 59.688 73.0272 59.3849C73.4012 59.0772 73.825 58.8428 74.2985 58.6818C74.7767 58.5161 75.281 58.4332 75.8113 58.4332C76.673 58.4332 77.44 58.6368 78.1124 59.044C78.7847 59.4465 79.315 60.0005 79.7033 60.706C80.0916 61.4115 80.2857 62.2187 80.2857 63.1278C80.2857 64.1127 80.056 64.9886 79.5968 65.7557C79.1422 66.5227 78.5054 67.1241 77.6863 67.5597C76.8719 67.9905 75.9249 68.2036 74.8453 68.1989ZM74.8311 65.7841C75.3046 65.7841 75.7284 65.6705 76.1025 65.4432C76.4765 65.2159 76.7701 64.9081 76.9831 64.5199C77.1962 64.1316 77.3027 63.696 77.3027 63.2131C77.3027 62.7301 77.1962 62.2969 76.9831 61.9134C76.7748 61.5298 76.486 61.2244 76.1167 60.9972C75.7473 60.7699 75.3259 60.6562 74.8525 60.6562C74.4973 60.6562 74.1683 60.7225 73.8652 60.8551C73.5669 60.9877 73.3042 61.1723 73.0769 61.4091C72.8543 61.6458 72.6792 61.9205 72.5513 62.233C72.4235 62.5407 72.3596 62.8698 72.3596 63.2202C72.3596 63.6889 72.4661 64.1174 72.6792 64.5057C72.897 64.8939 73.1905 65.2041 73.5598 65.4361C73.9339 65.6681 74.3577 65.7841 74.8311 65.7841ZM82.4661 68V65.7841L87.6436 60.9901C88.084 60.5639 88.4533 60.1804 88.7516 59.8395C89.0546 59.4986 89.2843 59.1648 89.4405 58.8381C89.5968 58.5066 89.6749 58.1491 89.6749 57.7656C89.6749 57.3395 89.5778 56.9725 89.3837 56.6648C89.1896 56.3523 88.9244 56.1132 88.5882 55.9474C88.2521 55.777 87.8709 55.6918 87.4448 55.6918C86.9997 55.6918 86.6114 55.7817 86.28 55.9616C85.9486 56.1416 85.6929 56.3996 85.513 56.7358C85.333 57.072 85.2431 57.4721 85.2431 57.9361H82.324C82.324 56.9844 82.5395 56.1581 82.9703 55.4574C83.4012 54.7566 84.0049 54.2145 84.7814 53.831C85.5579 53.4474 86.4528 53.2557 87.4661 53.2557C88.5078 53.2557 89.4145 53.4403 90.1863 53.8097C90.9628 54.1742 91.5665 54.6809 91.9973 55.3295C92.4282 55.9782 92.6436 56.7216 92.6436 57.5597C92.6436 58.1089 92.5347 58.651 92.3169 59.1861C92.1039 59.7211 91.7227 60.3153 91.1735 60.9688C90.6242 61.6174 89.8501 62.3963 88.851 63.3054L86.7275 65.3864V65.4858H92.8354V68H82.4661Z" fill="#14192E"/>
<path d="M53.6761 82.9119V81.8182H61.3125V82.9119H58.1108V92H56.8778V82.9119H53.6761ZM65.0511 92.1591C64.3617 92.1591 63.7569 91.995 63.2365 91.6669C62.7195 91.3388 62.3151 90.8797 62.0234 90.2898C61.7351 89.6998 61.5909 89.0104 61.5909 88.2216C61.5909 87.4261 61.7351 86.7318 62.0234 86.1385C62.3151 85.5452 62.7195 85.0845 63.2365 84.7564C63.7569 84.4283 64.3617 84.2642 65.0511 84.2642C65.7405 84.2642 66.3438 84.4283 66.8608 84.7564C67.3812 85.0845 67.7855 85.5452 68.0739 86.1385C68.3655 86.7318 68.5114 87.4261 68.5114 88.2216C68.5114 89.0104 68.3655 89.6998 68.0739 90.2898C67.7855 90.8797 67.3812 91.3388 66.8608 91.6669C66.3438 91.995 65.7405 92.1591 65.0511 92.1591ZM65.0511 91.1051C65.5748 91.1051 66.0057 90.9709 66.3438 90.7024C66.6818 90.4339 66.9321 90.081 67.0945 89.6435C67.2569 89.206 67.3381 88.732 67.3381 88.2216C67.3381 87.7112 67.2569 87.2356 67.0945 86.7947C66.9321 86.3539 66.6818 85.9976 66.3438 85.7259C66.0057 85.4541 65.5748 85.3182 65.0511 85.3182C64.5275 85.3182 64.0966 85.4541 63.7585 85.7259C63.4205 85.9976 63.1702 86.3539 63.0078 86.7947C62.8454 87.2356 62.7642 87.7112 62.7642 88.2216C62.7642 88.732 62.8454 89.206 63.0078 89.6435C63.1702 90.081 63.4205 90.4339 63.7585 90.7024C64.0966 90.9709 64.5275 91.1051 65.0511 91.1051ZM73.6234 84.3636V85.358H69.666V84.3636H73.6234ZM70.8194 82.5341H71.9927V89.8125C71.9927 90.1439 72.0408 90.3925 72.1369 90.5582C72.2363 90.7206 72.3623 90.83 72.5147 90.8864C72.6705 90.9394 72.8346 90.9659 73.0069 90.9659C73.1362 90.9659 73.2422 90.9593 73.3251 90.946C73.408 90.9295 73.4743 90.9162 73.524 90.9062L73.7626 91.9602C73.6831 91.9901 73.572 92.0199 73.4295 92.0497C73.287 92.0829 73.1064 92.0994 72.8876 92.0994C72.5562 92.0994 72.2314 92.0282 71.9132 91.8857C71.5983 91.7431 71.3365 91.526 71.1277 91.2344C70.9222 90.9427 70.8194 90.5748 70.8194 90.1307V82.5341ZM77.6355 92.179C77.1516 92.179 76.7124 92.0878 76.318 91.9055C75.9236 91.7199 75.6104 91.4531 75.3784 91.1051C75.1464 90.7538 75.0304 90.3295 75.0304 89.8324C75.0304 89.3949 75.1165 89.0402 75.2889 88.7685C75.4612 88.4934 75.6916 88.2779 75.9799 88.1222C76.2683 87.9664 76.5865 87.8504 76.9345 87.7741C77.2858 87.6946 77.6388 87.6316 77.9934 87.5852C78.4574 87.5256 78.8336 87.4808 79.122 87.451C79.4136 87.4179 79.6258 87.3632 79.7583 87.2869C79.8942 87.2107 79.9622 87.0781 79.9622 86.8892V86.8494C79.9622 86.3589 79.8279 85.9777 79.5595 85.706C79.2943 85.4342 78.8916 85.2983 78.3514 85.2983C77.7913 85.2983 77.3521 85.4209 77.0339 85.6662C76.7157 85.9115 76.492 86.1733 76.3627 86.4517L75.2491 86.054C75.448 85.59 75.7131 85.2287 76.0446 84.9702C76.3793 84.7083 76.7439 84.526 77.1383 84.4233C77.536 84.3172 77.9271 84.2642 78.3116 84.2642C78.5569 84.2642 78.8386 84.294 79.1568 84.3537C79.4783 84.41 79.7882 84.5277 80.0865 84.7067C80.3881 84.8857 80.6383 85.1558 80.8372 85.517C81.036 85.8783 81.1355 86.3622 81.1355 86.9688V92H79.9622V90.9659H79.9025C79.823 91.1316 79.6904 91.3089 79.5048 91.4979C79.3192 91.6868 79.0723 91.8475 78.764 91.9801C78.4558 92.1127 78.0796 92.179 77.6355 92.179ZM77.8145 91.125C78.2785 91.125 78.6696 91.0339 78.9877 90.8516C79.3092 90.6693 79.5512 90.4339 79.7136 90.1456C79.8793 89.8572 79.9622 89.554 79.9622 89.2358V88.1619C79.9125 88.2216 79.8031 88.2763 79.6341 88.326C79.4683 88.3724 79.2761 88.4138 79.0574 88.4503C78.8419 88.4834 78.6315 88.5133 78.426 88.5398C78.2238 88.563 78.0597 88.5829 77.9338 88.5994C77.6288 88.6392 77.3438 88.7038 77.0787 88.7933C76.8168 88.8795 76.6047 89.0104 76.4423 89.1861C76.2832 89.3584 76.2037 89.5937 76.2037 89.892C76.2037 90.2997 76.3545 90.608 76.6561 90.8168C76.961 91.0223 77.3471 91.125 77.8145 91.125ZM84.4503 81.8182V92H83.277V81.8182H84.4503Z" fill="#5F5F5F"/>
<path d="M3.52393 94.2492C-1.05727 80.1498 -1.17445 64.9799 3.18839 50.8113C7.55121 36.6428 16.1813 24.1664 27.9001 15.086C39.6189 6.00571 53.855 0.764192 68.6641 0.0773204C83.4732 -0.609551 98.1334 3.29172 110.642 11.2483C123.151 19.2049 132.899 30.8289 138.555 44.5328C144.21 58.2367 145.498 73.3523 142.242 87.8153C138.985 102.278 131.344 115.383 120.36 125.341C109.377 135.299 95.5882 141.623 80.8763 143.451L79.101 129.161C90.8706 127.698 101.902 122.639 110.688 114.673C119.475 106.707 125.588 96.2226 128.193 84.6522C130.798 73.0818 129.768 60.9893 125.244 50.0262C120.719 39.0631 112.921 29.7639 102.914 23.3986C92.9067 17.0334 81.1786 13.9124 69.3313 14.4619C57.484 15.0114 46.0951 19.2046 36.7201 26.4688C27.3451 33.7331 20.441 43.7142 16.9507 55.049C13.4604 66.3839 13.5542 78.5198 17.2191 89.7994L3.52393 94.2492Z" fill="#D0EABE"/>
<path d="M3.52393 94.2492C-0.876556 80.7059 -1.16216 66.1619 2.70322 52.4563C6.5686 38.7507 14.4114 26.4991 25.2397 17.2508C36.0681 8.00247 49.3958 2.17284 63.5373 0.499072C77.6788 -1.17469 91.9991 1.38259 104.687 7.84753L98.1498 20.678C87.9993 15.5061 76.5431 13.4602 65.2298 14.7993C53.9166 16.1383 43.2545 20.802 34.5918 28.2006C25.9291 35.5993 19.6549 45.4005 16.5626 56.365C13.4703 67.3295 13.6988 78.9648 17.2191 89.7994L3.52393 94.2492Z" fill="#EDA5A5"/>
<path d="M84.3422 142.934C66.7475 145.996 48.643 142.409 33.5447 132.87C18.4463 123.332 7.43173 108.522 2.64001 91.3182L16.512 87.4546C20.3454 101.218 29.157 113.065 41.2357 120.696C53.3144 128.327 67.798 131.197 81.8737 128.747L84.3422 142.934Z" fill="#F7DEA5"/>
<rect x="181" y="37.999" width="8" height="8" rx="4" fill="#EDA5A5"/>
<path d="M198.253 47.4997L198.321 37.3181H201.761C202.56 37.3181 203.212 37.4623 203.717 37.7506C204.226 38.0356 204.601 38.4218 204.843 38.909C205.085 39.3962 205.204 39.9397 205.2 40.5396C205.196 41.1395 205.07 41.6847 204.821 42.1752C204.576 42.6658 204.199 43.0568 203.69 43.3485C203.181 43.6368 202.53 43.781 201.738 43.781H199.272L199.279 42.6873H201.705C202.252 42.6873 202.692 42.5928 203.025 42.4039C203.357 42.215 203.599 41.9598 203.751 41.6383C203.905 41.3135 203.984 40.9473 203.987 40.5396C203.989 40.132 203.916 39.7674 203.765 39.4459C203.618 39.1244 203.378 38.8725 203.045 38.6902C202.711 38.5046 202.268 38.4118 201.714 38.4118H199.546L199.486 47.4997H198.253ZM209.226 47.6787C208.743 47.6787 208.304 47.5875 207.911 47.4052C207.518 47.2196 207.206 46.9528 206.977 46.6048C206.747 46.2535 206.634 45.8293 206.637 45.3321C206.64 44.8946 206.728 44.54 206.903 44.2682C207.077 43.9931 207.309 43.7777 207.598 43.6219C207.887 43.4662 208.206 43.3502 208.555 43.2739C208.907 43.1944 209.26 43.1314 209.615 43.085C210.079 43.0254 210.456 42.9806 210.744 42.9508C211.036 42.9176 211.249 42.863 211.382 42.7867C211.518 42.7105 211.587 42.5779 211.588 42.389L211.589 42.3492C211.592 41.8587 211.46 41.4776 211.194 41.2058C210.93 40.934 210.528 40.7981 209.988 40.7981C209.428 40.7981 208.988 40.9208 208.668 41.166C208.349 41.4113 208.123 41.6731 207.992 41.9515L206.881 41.5538C207.083 41.0898 207.35 40.7285 207.684 40.47C208.02 40.2082 208.386 40.0259 208.781 39.9232C209.179 39.8171 209.571 39.7641 209.955 39.7641C210.201 39.7641 210.482 39.7939 210.8 39.8536C211.121 39.9099 211.43 40.0276 211.727 40.2065C212.028 40.3855 212.276 40.6556 212.473 41.0169C212.669 41.3781 212.765 41.862 212.761 42.4686L212.728 47.4997H211.554L211.561 46.4656H211.502C211.421 46.6313 211.287 46.8087 211.1 46.9976C210.913 47.1865 210.665 47.3472 210.356 47.4798C210.047 47.6124 209.671 47.6787 209.226 47.6787ZM209.412 46.6247C209.876 46.6247 210.268 46.5336 210.588 46.3513C210.91 46.169 211.154 45.9337 211.318 45.6453C211.486 45.357 211.571 45.0537 211.573 44.7355L211.58 43.6617C211.53 43.7214 211.42 43.776 211.251 43.8258C211.085 43.8722 210.892 43.9136 210.673 43.9501C210.458 43.9832 210.247 44.013 210.041 44.0395C209.839 44.0627 209.675 44.0826 209.549 44.0992C209.243 44.139 208.958 44.2036 208.692 44.2931C208.43 44.3793 208.217 44.5102 208.053 44.6858C207.893 44.8582 207.812 45.0935 207.81 45.3918C207.807 45.7994 207.956 46.1077 208.256 46.3165C208.56 46.522 208.945 46.6247 209.412 46.6247ZM220.318 41.5737L219.262 41.872C219.197 41.6963 219.1 41.5256 218.972 41.3599C218.847 41.1909 218.676 41.0517 218.458 40.9423C218.24 40.8329 217.96 40.7782 217.619 40.7782C217.151 40.7782 216.761 40.886 216.448 41.1014C216.138 41.3135 215.982 41.5836 215.98 41.9117C215.978 42.2034 216.083 42.4337 216.294 42.6028C216.505 42.7718 216.835 42.9127 217.285 43.0254L218.417 43.3038C219.099 43.4695 219.606 43.723 219.938 44.0644C220.271 44.4025 220.435 44.8383 220.432 45.3719C220.429 45.8094 220.3 46.2005 220.046 46.5452C219.795 46.8899 219.445 47.1616 218.997 47.3605C218.548 47.5593 218.027 47.6588 217.433 47.6588C216.655 47.6588 216.011 47.4897 215.503 47.1517C214.995 46.8136 214.675 46.3198 214.543 45.6702L215.659 45.3918C215.762 45.8028 215.961 46.111 216.254 46.3165C216.551 46.522 216.94 46.6247 217.42 46.6247C217.967 46.6247 218.402 46.5087 218.725 46.2767C219.052 46.0414 219.216 45.7597 219.218 45.4316C219.22 45.1664 219.129 44.9443 218.944 44.7654C218.76 44.5831 218.476 44.4472 218.092 44.3577L216.821 44.0594C216.123 43.8937 215.611 43.6368 215.285 43.2888C214.963 42.9375 214.803 42.4984 214.807 41.9714C214.809 41.5405 214.933 41.1594 215.177 40.828C215.425 40.4965 215.759 40.2364 216.182 40.0474C216.607 39.8585 217.088 39.7641 217.625 39.7641C218.381 39.7641 218.973 39.9298 219.402 40.2612C219.834 40.5926 220.139 41.0301 220.318 41.5737ZM225.556 39.8635L225.549 40.8578H221.592L221.598 39.8635H225.556ZM222.764 38.034H223.937L223.889 45.3122C223.886 45.6437 223.933 45.8922 224.028 46.058C224.126 46.2204 224.251 46.3297 224.403 46.3861C224.559 46.4391 224.723 46.4656 224.895 46.4656C225.024 46.4656 225.13 46.459 225.213 46.4457C225.296 46.4292 225.363 46.4159 225.412 46.406L225.644 47.4599C225.564 47.4897 225.453 47.5196 225.31 47.5494C225.168 47.5825 224.987 47.5991 224.768 47.5991C224.437 47.5991 224.112 47.5279 223.795 47.3853C223.481 47.2428 223.221 47.0257 223.014 46.7341C222.81 46.4424 222.71 46.0745 222.713 45.6304L222.764 38.034ZM234.508 47.4997H231.366L231.434 37.3181H234.715C235.703 37.3181 236.547 37.5219 237.247 37.9296C237.947 38.3339 238.481 38.9156 238.851 39.6746C239.22 40.4302 239.402 41.3351 239.395 42.389C239.387 43.4496 239.192 44.3627 238.81 45.1283C238.427 45.8906 237.872 46.4772 237.147 46.8882C236.422 47.2959 235.542 47.4997 234.508 47.4997ZM232.606 46.406H234.436C235.278 46.406 235.977 46.2436 236.532 45.9188C237.088 45.594 237.504 45.1316 237.779 44.5317C238.055 43.9318 238.196 43.2176 238.201 42.389C238.207 41.5671 238.077 40.8594 237.813 40.2662C237.548 39.6696 237.15 39.2122 236.619 38.8941C236.087 38.5726 235.424 38.4118 234.628 38.4118H232.66L232.606 46.406ZM246.103 44.3776L246.133 39.8635H247.306L247.255 47.4997H246.082L246.091 46.2071H246.011C245.83 46.5949 245.549 46.9247 245.169 47.1964C244.79 47.4649 244.311 47.5991 243.735 47.5991C243.258 47.5991 242.834 47.4947 242.464 47.2859C242.094 47.0738 241.805 46.7556 241.596 46.3314C241.386 45.9038 241.284 45.3653 241.288 44.7157L241.32 39.8635H242.494L242.462 44.6361C242.458 45.1929 242.611 45.637 242.92 45.9685C243.233 46.2999 243.633 46.4656 244.12 46.4656C244.412 46.4656 244.709 46.391 245.012 46.2419C245.318 46.0928 245.574 45.8641 245.782 45.5558C245.993 45.2476 246.1 44.8549 246.103 44.3776ZM252.605 47.6588C251.869 47.6588 251.236 47.4964 250.704 47.1716C250.176 46.8435 249.77 46.3861 249.485 45.7994C249.204 45.2095 249.066 44.5234 249.071 43.7412C249.077 42.9591 249.224 42.2697 249.513 41.6731C249.805 41.0732 250.209 40.6059 250.725 40.2712C251.245 39.9331 251.849 39.7641 252.538 39.7641C252.936 39.7641 253.328 39.8304 253.715 39.9629C254.102 40.0955 254.454 40.3109 254.77 40.6092C255.086 40.9042 255.337 41.2953 255.523 41.7825C255.708 42.2697 255.799 42.8696 255.794 43.5822L255.791 44.0793H249.904L249.911 43.0651H254.604C254.607 42.6343 254.524 42.2498 254.354 41.9117C254.187 41.5737 253.947 41.3069 253.633 41.1113C253.323 40.9158 252.956 40.818 252.531 40.818C252.064 40.818 251.659 40.934 251.316 41.166C250.976 41.3947 250.714 41.693 250.529 42.0609C250.345 42.4288 250.251 42.8232 250.248 43.2441L250.244 43.9202C250.24 44.4969 250.336 44.9858 250.532 45.3868C250.732 45.7845 251.01 46.0878 251.366 46.2966C251.723 46.5021 252.138 46.6048 252.612 46.6048C252.92 46.6048 253.199 46.5617 253.448 46.4756C253.701 46.3861 253.919 46.2535 254.102 46.0778C254.285 45.8989 254.428 45.6768 254.529 45.4117L255.66 45.7298C255.539 46.1143 255.336 46.4524 255.052 46.744C254.768 47.0324 254.419 47.2577 254.004 47.4201C253.588 47.5792 253.122 47.6588 252.605 47.6588Z" fill="#5F5F5F"/>
<path d="M269.726 47.1383C269.01 47.1383 268.375 47.0156 267.821 46.7704C267.27 46.5251 266.836 46.1838 266.52 45.7463C266.203 45.3088 266.038 44.8034 266.025 44.2301H267.894C267.907 44.5051 267.996 44.7454 268.159 44.9509C268.323 45.1531 268.541 45.3105 268.815 45.4232C269.089 45.5359 269.397 45.5922 269.738 45.5922C270.103 45.5922 270.427 45.5292 270.71 45.4033C270.993 45.274 271.215 45.0951 271.377 44.8664C271.538 44.6377 271.619 44.3742 271.619 44.076C271.626 43.7677 271.549 43.496 271.39 43.2607C271.23 43.0254 270.997 42.8414 270.69 42.7089C270.386 42.5763 270.019 42.51 269.588 42.51H268.688L268.704 41.0882H269.604C269.959 41.0882 270.269 41.0269 270.536 40.9043C270.806 40.7817 271.018 40.6093 271.173 40.3873C271.328 40.1619 271.405 39.9017 271.405 39.6068C271.412 39.3184 271.35 39.0682 271.22 38.8561C271.093 38.6407 270.911 38.4733 270.674 38.354C270.44 38.2347 270.163 38.175 269.845 38.175C269.534 38.175 269.245 38.2314 268.978 38.3441C268.712 38.4568 268.496 38.6175 268.332 38.8263C268.167 39.0318 268.078 39.277 268.065 39.562H266.29C266.31 38.992 266.479 38.4916 266.799 38.0607C267.122 37.6265 267.55 37.2885 268.083 37.0466C268.616 36.8013 269.212 36.6787 269.872 36.6787C270.551 36.6787 271.14 36.8063 271.637 37.0615C272.138 37.3134 272.524 37.6531 272.794 38.0806C273.065 38.5081 273.197 38.9804 273.191 39.4974C273.188 40.0708 273.014 40.5513 272.668 40.9391C272.326 41.3268 271.879 41.5804 271.327 41.6997L271.327 41.7792C272.041 41.8787 272.587 42.1438 272.963 42.5746C273.343 43.0022 273.528 43.5341 273.517 44.1704C273.511 44.7405 273.343 45.2508 273.013 45.7016C272.687 46.149 272.239 46.5003 271.669 46.7555C271.103 47.0107 270.455 47.1383 269.726 47.1383ZM275.029 45.11L275.046 43.6435L279.442 36.8179H280.665L280.642 38.9058H279.896L276.936 43.5142L276.936 43.5937H282.966L282.949 45.11H275.029ZM279.866 46.9991L279.892 44.6626L279.919 44.0064L279.999 36.8179H281.739L281.626 46.9991H279.866ZM284.517 46.9991L284.531 45.6668L288.105 42.2018C288.447 41.8604 288.732 41.5572 288.96 41.292C289.188 41.0269 289.36 40.7701 289.476 40.5215C289.591 40.2729 289.65 40.0078 289.654 39.7261C289.657 39.4046 289.587 39.1295 289.444 38.9009C289.301 38.6689 289.102 38.4899 288.848 38.364C288.595 38.238 288.305 38.175 287.98 38.175C287.646 38.175 287.352 38.2446 287.098 38.3838C286.845 38.5197 286.647 38.7136 286.505 38.9655C286.366 39.2174 286.295 39.5173 286.291 39.8653H284.536C284.543 39.219 284.697 38.6573 284.997 38.18C285.298 37.7028 285.708 37.3332 286.228 37.0714C286.751 36.8096 287.349 36.6787 288.022 36.6787C288.705 36.6787 289.303 36.8063 289.817 37.0615C290.332 37.3167 290.729 37.6663 291.009 38.1104C291.292 38.5545 291.431 39.0616 291.424 39.6316C291.42 40.0128 291.343 40.3873 291.193 40.7551C291.043 41.123 290.782 41.5307 290.409 41.9781C290.04 42.4255 289.521 42.9674 288.855 43.6037L287.08 45.3884L287.079 45.458H291.514L291.497 46.9991H284.517Z" fill="#14192E"/>
<rect x="181" y="69.998" width="8" height="8" rx="4" fill="#D0EABE"/>
<path d="M206.493 72.4989H205.26C205.189 72.1442 205.064 71.8327 204.883 71.5642C204.706 71.2958 204.489 71.0704 204.231 70.8881C203.977 70.7025 203.695 70.5633 203.384 70.4705C203.073 70.3777 202.749 70.3313 202.411 70.3313C201.794 70.3313 201.235 70.4871 200.732 70.7986C200.233 71.1102 199.834 71.5692 199.535 72.1757C199.239 72.7822 199.088 73.5263 199.082 74.4079C199.076 75.2895 199.217 76.0336 199.505 76.6401C199.796 77.2466 200.189 77.7057 200.684 78.0172C201.182 78.3288 201.74 78.4845 202.356 78.4845C202.694 78.4845 203.019 78.4381 203.332 78.3453C203.644 78.2525 203.928 78.115 204.184 77.9327C204.444 77.7471 204.664 77.5201 204.845 77.2516C205.029 76.9798 205.159 76.6683 205.234 76.317H206.467C206.371 76.8373 206.199 77.303 205.951 77.7139C205.703 78.1249 205.396 78.4746 205.029 78.7629C204.663 79.048 204.252 79.2651 203.797 79.4142C203.345 79.5633 202.862 79.6379 202.349 79.6379C201.48 79.6379 200.709 79.4258 200.036 79.0016C199.363 78.5773 198.835 77.9741 198.452 77.1919C198.07 76.4098 197.882 75.4818 197.889 74.4079C197.896 73.3341 198.096 72.4061 198.489 71.6239C198.882 70.8417 199.418 70.2385 200.097 69.8143C200.776 69.39 201.55 69.1779 202.418 69.1779C202.932 69.1779 203.414 69.2525 203.864 69.4016C204.317 69.5508 204.724 69.7695 205.087 70.0579C205.45 70.3429 205.752 70.6909 205.995 71.1019C206.237 71.5095 206.403 71.9752 206.493 72.4989ZM211.381 79.6578C210.691 79.6578 210.087 79.4937 209.569 79.1656C209.054 78.8375 208.653 78.3785 208.365 77.7885C208.081 77.1986 207.941 76.5092 207.947 75.7204C207.952 74.9249 208.101 74.2306 208.393 73.6373C208.689 73.0441 209.096 72.5834 209.615 72.2553C210.138 71.9271 210.744 71.7631 211.433 71.7631C212.123 71.7631 212.725 71.9271 213.24 72.2553C213.758 72.5834 214.159 73.0441 214.443 73.6373C214.731 74.2306 214.872 74.9249 214.867 75.7204C214.862 76.5092 214.711 77.1986 214.416 77.7885C214.123 78.3785 213.716 78.8375 213.193 79.1656C212.674 79.4937 212.07 79.6578 211.381 79.6578ZM211.388 78.6038C211.911 78.6038 212.343 78.4696 212.683 78.2012C213.023 77.9327 213.275 77.5797 213.441 77.1422C213.606 76.7047 213.69 76.2308 213.694 75.7204C213.697 75.21 213.619 74.7344 213.46 74.2936C213.3 73.8528 213.052 73.4965 212.716 73.2247C212.38 72.9529 211.95 72.817 211.426 72.817C210.902 72.817 210.471 72.9529 210.131 73.2247C209.791 73.4965 209.538 73.8528 209.373 74.2936C209.208 74.7344 209.123 75.21 209.12 75.7204C209.116 76.2308 209.194 76.7047 209.354 77.1422C209.513 77.5797 209.761 77.9327 210.098 78.2012C210.434 78.4696 210.864 78.6038 211.388 78.6038ZM216.633 79.4987L216.684 71.8625H217.817L217.809 73.0557H217.909C218.071 72.648 218.33 72.3315 218.686 72.1061C219.042 71.8774 219.469 71.7631 219.966 71.7631C220.469 71.7631 220.888 71.8774 221.221 72.1061C221.558 72.3315 221.819 72.648 222.005 73.0557H222.085C222.283 72.6613 222.578 72.3481 222.971 72.1161C223.364 71.8807 223.834 71.7631 224.38 71.7631C225.063 71.7631 225.62 71.9769 226.052 72.4044C226.483 72.8286 226.696 73.4898 226.69 74.388L226.656 79.4987H225.482L225.516 74.388C225.52 73.8246 225.369 73.4219 225.062 73.18C224.755 72.938 224.393 72.817 223.976 72.817C223.439 72.817 223.022 72.9794 222.725 73.3042C222.427 73.6257 222.277 74.0334 222.274 74.5272L222.241 79.4987H221.048L221.082 74.2687C221.085 73.8345 220.947 73.4849 220.667 73.2197C220.387 72.9513 220.025 72.817 219.581 72.817C219.276 72.817 218.99 72.8982 218.724 73.0606C218.461 73.223 218.248 73.4484 218.083 73.7368C217.922 74.0218 217.84 74.3516 217.838 74.7261L217.806 79.4987H216.633ZM228.782 82.3623L228.852 71.8625H229.985L229.977 73.0756H230.116C230.203 72.943 230.324 72.774 230.478 72.5685C230.635 72.3597 230.858 72.1741 231.148 72.0117C231.44 71.8459 231.835 71.7631 232.333 71.7631C232.975 71.7631 233.541 71.9238 234.03 72.2453C234.518 72.5668 234.898 73.0225 235.169 73.6125C235.44 74.2024 235.573 74.8984 235.568 75.7005C235.562 76.5092 235.42 77.2102 235.141 77.8034C234.862 78.3934 234.478 78.8508 233.988 79.1756C233.499 79.4971 232.936 79.6578 232.3 79.6578C231.809 79.6578 231.417 79.5766 231.123 79.4142C230.829 79.2485 230.603 79.0612 230.446 78.8524C230.288 78.6403 230.167 78.4646 230.081 78.3254H229.982L229.955 82.3623H228.782ZM229.98 75.6806C229.976 76.2573 230.057 76.7661 230.223 77.2069C230.389 77.6443 230.634 77.9874 230.957 78.236C231.28 78.4812 231.677 78.6038 232.148 78.6038C232.638 78.6038 233.048 78.4746 233.378 78.2161C233.711 77.9542 233.962 77.6029 234.131 77.1621C234.303 76.718 234.391 76.2242 234.394 75.6806C234.398 75.1437 234.318 74.6598 234.156 74.2289C233.996 73.7948 233.751 73.4517 233.422 73.1998C233.095 72.9446 232.683 72.817 232.186 72.817C231.709 72.817 231.307 72.938 230.981 73.18C230.654 73.4186 230.407 73.7533 230.238 74.1842C230.07 74.6117 229.983 75.1106 229.98 75.6806ZM238.573 69.3171L238.505 79.4987H237.332L237.4 69.3171H238.573ZM243.855 79.6578C243.119 79.6578 242.486 79.4954 241.954 79.1706C241.426 78.8425 241.02 78.3851 240.735 77.7985C240.454 77.2085 240.316 76.5225 240.321 75.7403C240.327 74.9581 240.474 74.2687 240.763 73.6721C241.055 73.0722 241.459 72.6049 241.975 72.2702C242.495 71.9321 243.099 71.7631 243.788 71.7631C244.186 71.7631 244.578 71.8294 244.965 71.9619C245.352 72.0945 245.704 72.31 246.02 72.6082C246.336 72.9032 246.587 73.2943 246.773 73.7815C246.958 74.2687 247.049 74.8686 247.044 75.5812L247.041 76.0783H241.154L241.161 75.0642H245.854C245.857 74.6333 245.774 74.2488 245.604 73.9108C245.437 73.5727 245.197 73.3059 244.883 73.1104C244.573 72.9148 244.206 72.817 243.781 72.817C243.314 72.817 242.909 72.933 242.566 73.165C242.226 73.3937 241.964 73.692 241.779 74.0599C241.595 74.4278 241.501 74.8222 241.498 75.2431L241.494 75.9192C241.49 76.4959 241.586 76.9848 241.782 77.3858C241.982 77.7836 242.26 78.0868 242.616 78.2956C242.973 78.5011 243.388 78.6038 243.862 78.6038C244.17 78.6038 244.449 78.5608 244.698 78.4746C244.951 78.3851 245.169 78.2525 245.352 78.0769C245.535 77.8979 245.678 77.6758 245.779 77.4107L246.91 77.7289C246.789 78.1133 246.586 78.4514 246.302 78.743C246.018 79.0314 245.669 79.2568 245.254 79.4192C244.838 79.5783 244.372 79.6578 243.855 79.6578ZM252.175 71.8625L252.168 72.8568H248.211L248.217 71.8625H252.175ZM249.383 70.033H250.556L250.508 77.3113C250.505 77.6427 250.552 77.8913 250.647 78.057C250.745 78.2194 250.87 78.3288 251.023 78.3851C251.178 78.4381 251.342 78.4646 251.514 78.4646C251.643 78.4646 251.75 78.458 251.833 78.4448C251.915 78.4282 251.982 78.4149 252.032 78.405L252.263 79.4589C252.183 79.4888 252.072 79.5186 251.93 79.5484C251.787 79.5816 251.606 79.5981 251.387 79.5981C251.056 79.5981 250.732 79.5269 250.414 79.3844C250.1 79.2419 249.84 79.0248 249.633 78.7331C249.43 78.4414 249.329 78.0736 249.332 77.6294L249.383 70.033ZM257.007 79.6578C256.271 79.6578 255.638 79.4954 255.106 79.1706C254.578 78.8425 254.172 78.3851 253.888 77.7985C253.606 77.2085 253.469 76.5225 253.474 75.7403C253.479 74.9581 253.626 74.2687 253.915 73.6721C254.207 73.0722 254.612 72.6049 255.128 72.2702C255.647 71.9321 256.251 71.7631 256.941 71.7631C257.338 71.7631 257.731 71.8294 258.118 71.9619C258.504 72.0945 258.856 72.31 259.172 72.6082C259.488 72.9032 259.739 73.2943 259.925 73.7815C260.111 74.2687 260.201 74.8686 260.196 75.5812L260.193 76.0783H254.307L254.314 75.0642H259.007C259.01 74.6333 258.926 74.2488 258.756 73.9108C258.589 73.5727 258.349 73.3059 258.035 73.1104C257.725 72.9148 257.358 72.817 256.934 72.817C256.466 72.817 256.061 72.933 255.718 73.165C255.379 73.3937 255.116 73.692 254.932 74.0599C254.747 74.4278 254.653 74.8222 254.65 75.2431L254.646 75.9192C254.642 76.4959 254.738 76.9848 254.934 77.3858C255.134 77.7836 255.412 78.0868 255.769 78.2956C256.125 78.5011 256.54 78.6038 257.014 78.6038C257.323 78.6038 257.601 78.5608 257.85 78.4746C258.103 78.3851 258.321 78.2525 258.504 78.0769C258.688 77.8979 258.83 77.6758 258.931 77.4107L260.063 77.7289C259.941 78.1133 259.738 78.4514 259.454 78.743C259.171 79.0314 258.821 79.2568 258.406 79.4192C257.991 79.5783 257.524 79.6578 257.007 79.6578ZM264.838 79.6578C264.201 79.6578 263.64 79.4971 263.155 79.1756C262.67 78.8508 262.292 78.3934 262.021 77.8034C261.75 77.2102 261.617 76.5092 261.622 75.7005C261.628 74.8984 261.77 74.2024 262.049 73.6125C262.328 73.0225 262.714 72.5668 263.207 72.2453C263.699 71.9238 264.267 71.7631 264.91 71.7631C265.407 71.7631 265.799 71.8459 266.087 72.0117C266.377 72.1741 266.598 72.3597 266.749 72.5685C266.904 72.774 267.023 72.943 267.109 73.0756H267.208L267.233 69.3171H268.407L268.339 79.4987H267.205L267.213 78.3254H267.074C266.987 78.4646 266.863 78.6403 266.702 78.8524C266.542 79.0612 266.314 79.2485 266.017 79.4142C265.721 79.5766 265.328 79.6578 264.838 79.6578ZM265.004 78.6038C265.474 78.6038 265.873 78.4812 266.199 78.236C266.526 77.9874 266.775 77.6443 266.947 77.2069C267.119 76.7661 267.207 76.2573 267.211 75.6806C267.214 75.1106 267.135 74.6117 266.972 74.1842C266.809 73.7533 266.566 73.4186 266.243 73.18C265.92 72.938 265.52 72.817 265.042 72.817C264.545 72.817 264.13 72.9446 263.797 73.1998C263.467 73.4517 263.218 73.7948 263.049 74.2289C262.884 74.6598 262.799 75.1437 262.796 75.6806C262.792 76.2242 262.872 76.718 263.035 77.1621C263.201 77.6029 263.447 77.9542 263.773 78.2161C264.103 78.4746 264.513 78.6038 265.004 78.6038Z" fill="#5F5F5F"/>
<path d="M282.8 79.1373C282.313 79.134 281.839 79.0495 281.376 78.8838C280.914 78.7147 280.5 78.4413 280.133 78.0635C279.766 77.6824 279.476 77.177 279.265 76.5473C279.053 75.9142 278.954 75.1304 278.968 74.1958C278.977 73.3242 279.079 72.547 279.272 71.8643C279.465 71.1816 279.738 70.6049 280.091 70.1343C280.445 69.6604 280.868 69.2991 281.361 69.0506C281.858 68.802 282.411 68.6777 283.021 68.6777C283.661 68.6777 284.226 68.8037 284.717 69.0555C285.211 69.3074 285.609 69.6521 285.909 70.0896C286.209 70.5237 286.392 71.0142 286.459 71.5611H284.644C284.556 71.17 284.369 70.8584 284.083 70.6265C283.801 70.3911 283.441 70.2735 283.003 70.2735C282.297 70.2735 281.75 70.5801 281.362 71.1932C280.978 71.8063 280.778 72.6481 280.763 73.7186H280.832C280.998 73.4269 281.211 73.1767 281.472 72.9679C281.733 72.7591 282.026 72.5984 282.352 72.4857C282.682 72.3697 283.029 72.3117 283.393 72.3117C283.99 72.3117 284.524 72.4542 284.994 72.7393C285.468 73.0243 285.842 73.417 286.115 73.9174C286.388 74.4146 286.519 74.9846 286.508 75.6276C286.504 76.297 286.345 76.8986 286.031 77.4321C285.717 77.9624 285.283 78.38 284.729 78.6849C284.176 78.9898 283.533 79.1406 282.8 79.1373ZM282.807 77.6459C283.168 77.6459 283.492 77.5581 283.779 77.3824C284.066 77.2068 284.294 76.9698 284.463 76.6715C284.633 76.3733 284.717 76.0385 284.718 75.6673C284.726 75.3028 284.65 74.973 284.491 74.6781C284.335 74.3831 284.117 74.1494 283.837 73.9771C283.557 73.8048 283.237 73.7186 282.876 73.7186C282.607 73.7186 282.356 73.77 282.123 73.8727C281.89 73.9754 281.686 74.118 281.512 74.3002C281.337 74.4792 281.199 74.688 281.097 74.9266C280.998 75.1619 280.946 75.4138 280.94 75.6823C280.939 76.0369 281.018 76.3633 281.177 76.6616C281.336 76.9599 281.558 77.1985 281.841 77.3775C282.124 77.5564 282.446 77.6459 282.807 77.6459ZM288.524 78.9981L292.95 70.4276L292.95 70.358H287.924L287.941 68.8169H294.877L294.859 70.3928L290.438 78.9981H288.524ZM299.781 79.1373C299.042 79.1373 298.387 79.013 297.816 78.7644C297.249 78.5159 296.805 78.1762 296.485 77.7453C296.169 77.3112 296.015 76.819 296.024 76.2689C296.026 75.8413 296.123 75.4486 296.316 75.0907C296.509 74.7327 296.767 74.4345 297.091 74.1958C297.419 73.9539 297.782 73.7998 298.18 73.7335L298.181 73.6639C297.659 73.5479 297.238 73.2811 296.917 72.8635C296.601 72.4426 296.447 71.9571 296.456 71.4069C296.459 70.8833 296.61 70.416 296.909 70.005C297.209 69.5941 297.617 69.271 298.133 69.0356C298.649 68.797 299.237 68.6777 299.897 68.6777C300.55 68.6777 301.13 68.797 301.638 69.0356C302.149 69.271 302.55 69.5941 302.84 70.005C303.134 70.416 303.278 70.8833 303.272 71.4069C303.266 71.9571 303.097 72.4426 302.764 72.8635C302.434 73.2811 302.012 73.5479 301.497 73.6639L301.496 73.7335C301.893 73.7998 302.25 73.9539 302.565 74.1958C302.884 74.4345 303.136 74.7327 303.321 75.0907C303.509 75.4486 303.601 75.8413 303.596 76.2689C303.59 76.819 303.422 77.3112 303.093 77.7453C302.763 78.1762 302.312 78.5159 301.739 78.7644C301.169 79.013 300.517 79.1373 299.781 79.1373ZM299.797 77.7155C300.178 77.7155 300.51 77.6509 300.793 77.5216C301.076 77.3891 301.297 77.2035 301.456 76.9648C301.614 76.7262 301.697 76.4511 301.703 76.1396C301.704 75.8148 301.622 75.5281 301.459 75.2796C301.3 75.0277 301.078 74.8305 300.795 74.688C300.515 74.5455 300.194 74.4742 299.833 74.4742C299.468 74.4742 299.143 74.5455 298.856 74.688C298.569 74.8305 298.342 75.0277 298.173 75.2796C298.008 75.5281 297.925 75.8148 297.925 76.1396C297.918 76.4511 297.991 76.7262 298.145 76.9648C298.298 77.2002 298.514 77.3841 298.795 77.5167C299.078 77.6492 299.412 77.7155 299.797 77.7155ZM299.848 73.0773C300.16 73.0773 300.436 73.0143 300.676 72.8884C300.919 72.7625 301.111 72.5868 301.253 72.3614C301.395 72.1361 301.469 71.8759 301.476 71.5809C301.476 71.2893 301.409 71.0341 301.275 70.8154C301.142 70.5933 300.955 70.4226 300.714 70.3033C300.474 70.1807 300.196 70.1194 299.881 70.1194C299.56 70.1194 299.275 70.1807 299.029 70.3033C298.786 70.4226 298.595 70.5933 298.456 70.8154C298.321 71.0341 298.254 71.2893 298.254 71.5809C298.247 71.8759 298.311 72.1361 298.444 72.3614C298.581 72.5835 298.77 72.7591 299.01 72.8884C299.254 73.0143 299.533 73.0773 299.848 73.0773Z" fill="#14192E"/>
<rect x="181" y="101.996" width="8" height="8" rx="4" fill="#F6DEA5"/>
<path d="M198.253 111.497L198.321 101.315H201.761C202.56 101.315 203.212 101.459 203.717 101.748C204.226 102.033 204.601 102.419 204.843 102.906C205.085 103.393 205.204 103.937 205.2 104.537C205.196 105.137 205.07 105.682 204.821 106.172C204.576 106.663 204.199 107.054 203.69 107.346C203.181 107.634 202.53 107.778 201.738 107.778H199.272L199.279 106.684H201.705C202.252 106.684 202.692 106.59 203.025 106.401C203.357 106.212 203.599 105.957 203.751 105.635C203.905 105.311 203.984 104.944 203.987 104.537C203.989 104.129 203.916 103.764 203.765 103.443C203.618 103.121 203.378 102.87 203.045 102.687C202.711 102.502 202.268 102.409 201.714 102.409H199.546L199.486 111.497H198.253ZM210.099 111.656C209.363 111.656 208.73 111.493 208.198 111.169C207.67 110.841 207.264 110.383 206.979 109.797C206.698 109.207 206.56 108.52 206.566 107.738C206.571 106.956 206.718 106.267 207.007 105.67C207.299 105.07 207.703 104.603 208.219 104.268C208.739 103.93 209.343 103.761 210.032 103.761C210.43 103.761 210.822 103.827 211.209 103.96C211.596 104.093 211.948 104.308 212.264 104.606C212.58 104.901 212.831 105.292 213.017 105.78C213.203 106.267 213.293 106.867 213.288 107.579L213.285 108.076H207.399L207.405 107.062H212.098C212.101 106.631 212.018 106.247 211.848 105.909C211.681 105.571 211.441 105.304 211.127 105.108C210.817 104.913 210.45 104.815 210.025 104.815C209.558 104.815 209.153 104.931 208.81 105.163C208.47 105.392 208.208 105.69 208.024 106.058C207.839 106.426 207.745 106.82 207.742 107.241L207.738 107.917C207.734 108.494 207.83 108.983 208.026 109.384C208.226 109.782 208.504 110.085 208.86 110.294C209.217 110.499 209.632 110.602 210.106 110.602C210.414 110.602 210.693 110.559 210.942 110.473C211.195 110.383 211.413 110.251 211.596 110.075C211.78 109.896 211.922 109.674 212.023 109.409L213.155 109.727C213.033 110.111 212.83 110.449 212.546 110.741C212.263 111.029 211.913 111.255 211.498 111.417C211.082 111.576 210.616 111.656 210.099 111.656ZM216.251 106.903L216.22 111.497H215.047L215.098 103.861H216.231L216.223 105.054H216.323C216.504 104.666 216.778 104.354 217.144 104.119C217.511 103.88 217.982 103.761 218.559 103.761C219.076 103.761 219.527 103.867 219.914 104.079C220.3 104.288 220.6 104.606 220.812 105.034C221.025 105.458 221.129 105.995 221.125 106.645L221.092 111.497H219.919L219.951 106.724C219.955 106.124 219.802 105.657 219.493 105.322C219.184 104.984 218.757 104.815 218.214 104.815C217.839 104.815 217.504 104.896 217.208 105.059C216.915 105.221 216.683 105.458 216.512 105.77C216.341 106.081 216.254 106.459 216.251 106.903ZM226.119 111.656C225.482 111.656 224.922 111.495 224.437 111.174C223.952 110.849 223.573 110.391 223.302 109.801C223.031 109.208 222.898 108.507 222.904 107.699C222.909 106.896 223.051 106.2 223.33 105.611C223.609 105.021 223.995 104.565 224.488 104.243C224.981 103.922 225.548 103.761 226.191 103.761C226.689 103.761 227.081 103.844 227.368 104.01C227.659 104.172 227.879 104.358 228.03 104.567C228.185 104.772 228.305 104.941 228.39 105.074H228.489L228.514 101.315H229.688L229.62 111.497H228.486L228.494 110.323H228.355C228.268 110.463 228.144 110.638 227.984 110.85C227.823 111.059 227.595 111.247 227.299 111.412C227.003 111.575 226.609 111.656 226.119 111.656ZM226.285 110.602C226.756 110.602 227.154 110.479 227.481 110.234C227.807 109.985 228.056 109.642 228.228 109.205C228.4 108.764 228.488 108.255 228.492 107.679C228.496 107.109 228.416 106.61 228.253 106.182C228.09 105.751 227.847 105.417 227.524 105.178C227.201 104.936 226.801 104.815 226.324 104.815C225.826 104.815 225.411 104.943 225.078 105.198C224.748 105.45 224.499 105.793 224.33 106.227C224.165 106.658 224.081 107.142 224.077 107.679C224.074 108.222 224.153 108.716 224.316 109.16C224.482 109.601 224.728 109.952 225.055 110.214C225.384 110.473 225.794 110.602 226.285 110.602ZM231.932 111.497L231.983 103.861H233.156L233.105 111.497H231.932ZM232.588 102.588C232.359 102.588 232.162 102.51 231.998 102.354C231.836 102.198 231.756 102.011 231.758 101.792C231.759 101.574 231.842 101.386 232.005 101.231C232.172 101.075 232.37 100.997 232.598 100.997C232.827 100.997 233.022 101.075 233.183 101.231C233.348 101.386 233.43 101.574 233.428 101.792C233.427 102.011 233.343 102.198 233.176 102.354C233.012 102.51 232.816 102.588 232.588 102.588ZM236.458 106.903L236.427 111.497H235.254L235.305 103.861H236.438L236.43 105.054H236.53C236.711 104.666 236.985 104.354 237.351 104.119C237.718 103.88 238.189 103.761 238.766 103.761C239.283 103.761 239.734 103.867 240.121 104.079C240.507 104.288 240.807 104.606 241.019 105.034C241.232 105.458 241.336 105.995 241.332 106.645L241.299 111.497H240.126L240.158 106.724C240.162 106.124 240.009 105.657 239.7 105.322C239.391 104.984 238.964 104.815 238.421 104.815C238.046 104.815 237.711 104.896 237.415 105.059C237.122 105.221 236.89 105.458 236.719 105.77C236.548 106.081 236.461 106.459 236.458 106.903ZM246.506 114.519C245.939 114.519 245.452 114.447 245.045 114.301C244.639 114.158 244.3 113.969 244.03 113.734C243.763 113.502 243.551 113.253 243.394 112.988L244.333 112.332C244.438 112.471 244.571 112.63 244.732 112.809C244.893 112.992 245.114 113.149 245.395 113.282C245.679 113.417 246.052 113.485 246.512 113.485C247.129 113.485 247.639 113.336 248.042 113.038C248.445 112.74 248.648 112.272 248.653 111.636L248.663 110.085H248.564C248.476 110.224 248.353 110.396 248.192 110.602C248.035 110.804 247.809 110.985 247.512 111.144C247.22 111.3 246.825 111.377 246.328 111.377C245.711 111.377 245.159 111.232 244.67 110.94C244.185 110.648 243.802 110.224 243.52 109.667C243.242 109.11 243.106 108.434 243.111 107.639C243.116 106.857 243.258 106.176 243.537 105.596C243.816 105.012 244.202 104.562 244.695 104.243C245.188 103.922 245.755 103.761 246.398 103.761C246.896 103.761 247.289 103.844 247.58 104.01C247.874 104.172 248.098 104.358 248.252 104.567C248.41 104.772 248.532 104.941 248.617 105.074H248.736L248.744 103.861H249.878L249.825 111.716C249.821 112.372 249.668 112.905 249.367 113.316C249.07 113.731 248.67 114.034 248.168 114.226C247.67 114.422 247.115 114.519 246.506 114.519ZM246.494 110.323C246.964 110.323 247.363 110.216 247.689 110C248.015 109.785 248.264 109.475 248.436 109.071C248.608 108.666 248.696 108.182 248.699 107.619C248.703 107.069 248.623 106.583 248.46 106.162C248.298 105.741 248.055 105.412 247.731 105.173C247.408 104.934 247.008 104.815 246.531 104.815C246.033 104.815 245.618 104.941 245.285 105.193C244.955 105.445 244.706 105.783 244.538 106.207C244.372 106.631 244.288 107.102 244.285 107.619C244.281 108.149 244.361 108.618 244.524 109.026C244.69 109.43 244.937 109.748 245.263 109.98C245.593 110.209 246.003 110.323 246.494 110.323Z" fill="#5F5F5F"/>
<path d="M263.726 111.135C263.01 111.135 262.375 111.013 261.821 110.767C261.27 110.522 260.836 110.181 260.52 109.743C260.203 109.306 260.038 108.8 260.025 108.227H261.894C261.907 108.502 261.996 108.742 262.159 108.948C262.323 109.15 262.541 109.308 262.815 109.42C263.089 109.533 263.397 109.589 263.738 109.589C264.103 109.589 264.427 109.526 264.71 109.4C264.993 109.271 265.215 109.092 265.377 108.863C265.538 108.635 265.619 108.371 265.619 108.073C265.626 107.765 265.549 107.493 265.39 107.258C265.23 107.022 264.997 106.838 264.69 106.706C264.386 106.573 264.019 106.507 263.588 106.507H262.688L262.704 105.085H263.604C263.959 105.085 264.269 105.024 264.536 104.901C264.806 104.779 265.018 104.606 265.173 104.384C265.328 104.159 265.405 103.899 265.405 103.604C265.412 103.316 265.35 103.065 265.22 102.853C265.093 102.638 264.911 102.47 264.674 102.351C264.44 102.232 264.163 102.172 263.845 102.172C263.534 102.172 263.245 102.228 262.978 102.341C262.712 102.454 262.496 102.615 262.332 102.823C262.167 103.029 262.078 103.274 262.065 103.559H260.29C260.31 102.989 260.479 102.489 260.799 102.058C261.122 101.624 261.55 101.286 262.083 101.044C262.616 100.798 263.212 100.676 263.872 100.676C264.551 100.676 265.14 100.803 265.637 101.059C266.138 101.31 266.524 101.65 266.794 102.078C267.065 102.505 267.197 102.977 267.191 103.494C267.188 104.068 267.014 104.548 266.668 104.936C266.326 105.324 265.879 105.577 265.327 105.697L265.327 105.776C266.041 105.876 266.587 106.141 266.963 106.572C267.343 106.999 267.528 107.531 267.517 108.167C267.511 108.738 267.343 109.248 267.013 109.699C266.687 110.146 266.239 110.497 265.669 110.753C265.103 111.008 264.455 111.135 263.726 111.135ZM269.029 109.107L269.046 107.641L273.442 100.815H274.665L274.642 102.903H273.896L270.936 107.511L270.936 107.591H276.966L276.949 109.107H269.029ZM273.866 110.996L273.892 108.66L273.919 108.003L273.999 100.815H275.739L275.626 110.996H273.866ZM278.517 110.996L278.531 109.664L282.105 106.199C282.447 105.857 282.732 105.554 282.96 105.289C283.188 105.024 283.36 104.767 283.476 104.519C283.591 104.27 283.65 104.005 283.654 103.723C283.657 103.402 283.587 103.127 283.444 102.898C283.301 102.666 283.102 102.487 282.848 102.361C282.595 102.235 282.305 102.172 281.98 102.172C281.646 102.172 281.352 102.242 281.098 102.381C280.845 102.517 280.647 102.711 280.505 102.963C280.366 103.214 280.295 103.514 280.291 103.862H278.536C278.543 103.216 278.697 102.654 278.997 102.177C279.298 101.7 279.708 101.33 280.228 101.068C280.751 100.807 281.349 100.676 282.022 100.676C282.705 100.676 283.303 100.803 283.817 101.059C284.332 101.314 284.729 101.663 285.009 102.107C285.292 102.552 285.431 103.059 285.424 103.629C285.42 104.01 285.343 104.384 285.193 104.752C285.043 105.12 284.782 105.528 284.409 105.975C284.04 106.423 283.521 106.964 282.855 107.601L281.08 109.385L281.079 109.455H285.514L285.497 110.996H278.517Z" fill="#14192E"/>
</svg>
