<svg width="16" height="16" viewBox="0 0 16 16" fill="none" xmlns="http://www.w3.org/2000/svg">
<path fill-rule="evenodd" clip-rule="evenodd" d="M8.00033 1.99935C4.68662 1.99935 2.00033 4.68564 2.00033 7.99935C2.00033 11.3131 4.68662 13.9993 8.00033 13.9993C11.314 13.9993 14.0003 11.3131 14.0003 7.99935C14.0003 4.68564 11.314 1.99935 8.00033 1.99935ZM0.666992 7.99935C0.666992 3.94926 3.95024 0.666016 8.00033 0.666016C12.0504 0.666016 15.3337 3.94926 15.3337 7.99935C15.3337 12.0494 12.0504 15.3327 8.00033 15.3327C3.95024 15.3327 0.666992 12.0494 0.666992 7.99935Z" fill="#C4C4C4"/>
<path fill-rule="evenodd" clip-rule="evenodd" d="M10.4711 5.52925C10.7314 5.7896 10.7314 6.21171 10.4711 6.47206L6.47108 10.4721C6.21073 10.7324 5.78862 10.7324 5.52827 10.4721C5.26792 10.2117 5.26792 9.7896 5.52827 9.52925L9.52827 5.52925C9.78862 5.2689 10.2107 5.2689 10.4711 5.52925Z" fill="#C4C4C4"/>
<path fill-rule="evenodd" clip-rule="evenodd" d="M5.52827 5.52925C5.78862 5.2689 6.21073 5.2689 6.47108 5.52925L10.4711 9.52925C10.7314 9.7896 10.7314 10.2117 10.4711 10.4721C10.2107 10.7324 9.78862 10.7324 9.52827 10.4721L5.52827 6.47206C5.26792 6.21171 5.26792 5.7896 5.52827 5.52925Z" fill="#C4C4C4"/>
</svg>
