<svg width="18" height="18" viewBox="0 0 18 18" fill="none" xmlns="http://www.w3.org/2000/svg">
<g clip-path="url(#clip0_3293_56421)">
<path d="M15.75 12.375C15.75 12.5242 15.6907 12.6673 15.5852 12.7727C15.4798 12.8782 15.3367 12.9375 15.1875 12.9375H9.5625V16.875C9.5625 17.0242 9.50324 17.1673 9.39775 17.2727C9.29226 17.3782 9.14918 17.4375 9 17.4375C8.85082 17.4375 8.70774 17.3782 8.60225 17.2727C8.49676 17.1673 8.4375 17.0242 8.4375 16.875V12.9375H2.8125C2.66332 12.9375 2.52024 12.8782 2.41475 12.7727C2.30926 12.6673 2.25 12.5242 2.25 12.375C2.25 12.2258 2.30926 12.0827 2.41475 11.9773C2.52024 11.8718 2.66332 11.8125 2.8125 11.8125H3.46641L4.95703 3.375H4.5C4.35082 3.375 4.20774 3.31574 4.10225 3.21025C3.99676 3.10476 3.9375 2.96168 3.9375 2.8125C3.9375 2.66332 3.99676 2.52024 4.10225 2.41475C4.20774 2.30926 4.35082 2.25 4.5 2.25H13.5C13.6492 2.25 13.7923 2.30926 13.8977 2.41475C14.0032 2.52024 14.0625 2.66332 14.0625 2.8125C14.0625 2.96168 14.0032 3.10476 13.8977 3.21025C13.7923 3.31574 13.6492 3.375 13.5 3.375H13.043L14.5336 11.8125H15.1875C15.3367 11.8125 15.4798 11.8718 15.5852 11.9773C15.6907 12.0827 15.75 12.2258 15.75 12.375Z" fill="#F3C316"/>
</g>
<defs>
<clipPath id="clip0_3293_56421">
<rect width="18" height="18" fill="white"/>
</clipPath>
</defs>
</svg>
