<svg width="20" height="20" viewBox="0 0 20 20" fill="none" xmlns="http://www.w3.org/2000/svg">
<path fill-rule="evenodd" clip-rule="evenodd" d="M2.8125 10.625C2.8125 10.2798 3.09232 10 3.4375 10H7.8125C8.15768 10 8.4375 10.2798 8.4375 10.625C8.4375 10.9702 8.15768 11.25 7.8125 11.25H4.0625V16.25C4.0625 16.5952 3.78268 16.875 3.4375 16.875C3.09232 16.875 2.8125 16.5952 2.8125 16.25V10.625Z" fill="#5F5F5F"/>
<path fill-rule="evenodd" clip-rule="evenodd" d="M1.5625 16.25C1.5625 15.9048 1.84232 15.625 2.1875 15.625H17.8125C18.1577 15.625 18.4375 15.9048 18.4375 16.25C18.4375 16.5952 18.1577 16.875 17.8125 16.875H2.1875C1.84232 16.875 1.5625 16.5952 1.5625 16.25Z" fill="#5F5F5F"/>
<path fill-rule="evenodd" clip-rule="evenodd" d="M7.1875 6.875C7.1875 6.52982 7.46732 6.25 7.8125 6.25H12.1875C12.5327 6.25 12.8125 6.52982 12.8125 6.875C12.8125 7.22018 12.5327 7.5 12.1875 7.5H8.4375V16.25C8.4375 16.5952 8.15768 16.875 7.8125 16.875C7.46732 16.875 7.1875 16.5952 7.1875 16.25V6.875Z" fill="#5F5F5F"/>
<path fill-rule="evenodd" clip-rule="evenodd" d="M11.5625 3.125C11.5625 2.77982 11.8423 2.5 12.1875 2.5H16.5625C16.9077 2.5 17.1875 2.77982 17.1875 3.125V16.25C17.1875 16.5952 16.9077 16.875 16.5625 16.875H12.1875C11.8423 16.875 11.5625 16.5952 11.5625 16.25V3.125ZM12.8125 3.75V15.625H15.9375V3.75H12.8125Z" fill="#5F5F5F"/>
</svg>
