<svg width="24" height="24" viewBox="0 0 24 24" fill="none" xmlns="http://www.w3.org/2000/svg">
<path fill-rule="evenodd" clip-rule="evenodd" d="M7.5 21.75C7.5 21.3358 7.83579 21 8.25 21H15.75C16.1642 21 16.5 21.3358 16.5 21.75C16.5 22.1642 16.1642 22.5 15.75 22.5H8.25C7.83579 22.5 7.5 22.1642 7.5 21.75Z" fill="#569488"/>
<path fill-rule="evenodd" clip-rule="evenodd" d="M12 12.75C12.4142 12.75 12.75 13.0858 12.75 13.5V18.75C12.75 19.1642 12.4142 19.5 12 19.5C11.5858 19.5 11.25 19.1642 11.25 18.75V13.5C11.25 13.0858 11.5858 12.75 12 12.75Z" fill="#569488"/>
<path fill-rule="evenodd" clip-rule="evenodd" d="M8.46967 9.96967C8.76256 9.67678 9.23744 9.67678 9.53033 9.96967L12 12.4393L14.4697 9.96967C14.7626 9.67678 15.2374 9.67678 15.5303 9.96967C15.8232 10.2626 15.8232 10.7374 15.5303 11.0303L12.5303 14.0303C12.2374 14.3232 11.7626 14.3232 11.4697 14.0303L8.46967 11.0303C8.17678 10.7374 8.17678 10.2626 8.46967 9.96967Z" fill="#569488"/>
<path fill-rule="evenodd" clip-rule="evenodd" d="M15.8178 4.17971C14.6488 3.37785 13.2569 2.96439 11.8397 2.99799C8.18229 3.08226 5.23319 6.12909 5.25007 9.79162L5.25008 9.79262C5.25341 10.8098 5.4882 11.8129 5.93668 12.726C6.38515 13.639 7.03555 14.438 7.83858 15.0624L7.3782 15.6545L7.84233 15.0653C8.20042 15.3474 8.49043 15.7065 8.69085 16.1159C8.89126 16.5254 8.99695 16.9747 9.00006 17.4306L9.0001 17.4357L9.00008 17.9982H15.0001L15.0001 17.4342C15.001 16.974 15.1071 16.5201 15.3103 16.1071C15.5131 15.6951 15.8071 15.3348 16.1701 15.0536C17.2841 14.1783 18.0945 12.9746 18.4863 11.6131C18.8785 10.2508 18.8317 8.79965 18.3527 7.4654C17.8737 6.13116 16.9868 4.98158 15.8178 4.17971ZM6.91574 16.2449C5.93397 15.481 5.13878 14.5038 4.59033 13.3873C4.0415 12.27 3.75416 11.0424 3.75008 9.79753L4.50008 9.79507L3.75009 9.79853C3.75009 9.79819 3.75009 9.79786 3.75008 9.79753C3.73 5.32307 7.32484 1.60172 11.8045 1.4984C11.8046 1.4984 11.8044 1.4984 11.8045 1.4984C13.5365 1.45745 15.2376 1.96277 16.6663 2.94274C18.0951 3.9228 19.1791 5.32784 19.7645 6.95858C20.3499 8.58933 20.4071 10.363 19.9278 12.028C19.4486 13.6931 18.4573 15.165 17.0945 16.235L17.09 16.2385C16.9068 16.3801 16.7584 16.5617 16.6562 16.7695C16.554 16.977 16.5006 17.2052 16.5001 17.4365C16.5001 17.4367 16.5001 17.4363 16.5001 17.4365V17.9982C16.5001 18.396 16.342 18.7776 16.0607 19.0589C15.7794 19.3402 15.3979 19.4982 15.0001 19.4982H9.00008C8.60226 19.4982 8.22073 19.3402 7.93942 19.0589C7.65812 18.7776 7.50008 18.396 7.50008 17.9982V17.4385C7.49816 17.2086 7.44469 16.982 7.34358 16.7754C7.24244 16.5688 7.09624 16.3875 6.91574 16.2449Z" fill="#569488"/>
</svg>
