<svg width="20" height="20" viewBox="0 0 20 20" fill="none" xmlns="http://www.w3.org/2000/svg">
<g clip-path="url(#clip0_4420_18621)">
<path fill-rule="evenodd" clip-rule="evenodd" d="M19.1668 2.5C19.6271 2.5 20.0002 2.8731 20.0002 3.33333V8.33333C20.0002 8.79357 19.6271 9.16667 19.1668 9.16667H14.1668C13.7066 9.16667 13.3335 8.79357 13.3335 8.33333C13.3335 7.8731 13.7066 7.5 14.1668 7.5H18.3335V3.33333C18.3335 2.8731 18.7066 2.5 19.1668 2.5Z" fill="black"/>
<path fill-rule="evenodd" clip-rule="evenodd" d="M10.9395 3.40462C9.50837 3.20163 8.05003 3.46927 6.78424 4.16721C5.51845 4.86515 4.51379 5.95559 3.92165 7.2742C3.32952 8.5928 3.18198 10.0681 3.50129 11.4779C3.82059 12.8876 4.58943 14.1554 5.69194 15.0902C6.79446 16.025 8.17093 16.5761 9.61392 16.6605C11.0569 16.7449 12.4882 16.3581 13.6922 15.5582C14.8962 14.7584 15.8077 13.5889 16.2892 12.226C16.4425 11.792 16.9186 11.5645 17.3525 11.7179C17.7865 11.8712 18.014 12.3472 17.8606 12.7812C17.2588 14.4848 16.1195 15.9467 14.6145 16.9465C13.1095 17.9463 11.3203 18.4299 9.51658 18.3243C7.71285 18.2188 5.99226 17.5299 4.61412 16.3614C3.23597 15.193 2.27492 13.6082 1.87579 11.8461C1.47666 10.0839 1.66108 8.2397 2.40125 6.59144C3.14142 4.94318 4.39725 3.58014 5.97948 2.70771C7.56172 1.83528 9.38465 1.50073 11.1736 1.75447C12.9582 2.00761 14.6125 2.83255 15.8885 4.10537L19.7379 7.73025C20.0729 8.04577 20.0888 8.57317 19.7733 8.90823C19.4577 9.24329 18.9303 9.25913 18.5953 8.94361L14.7369 5.31027C14.7308 5.3045 14.7248 5.29862 14.7188 5.29266C13.697 4.27025 12.3706 3.60762 10.9395 3.40462Z" fill="black"/>
</g>
<defs>
<clipPath id="clip0_4420_18621">
<rect width="20" height="20" fill="white"/>
</clipPath>
</defs>
</svg>
