<svg width="20" height="21" viewBox="0 0 20 21" fill="none" xmlns="http://www.w3.org/2000/svg">
<path fill-rule="evenodd" clip-rule="evenodd" d="M10 3.625C6.20304 3.625 3.125 6.70304 3.125 10.5C3.125 14.297 6.20304 17.375 10 17.375C13.797 17.375 16.875 14.297 16.875 10.5C16.875 6.70304 13.797 3.625 10 3.625ZM1.875 10.5C1.875 6.01269 5.51269 2.375 10 2.375C14.4873 2.375 18.125 6.01269 18.125 10.5C18.125 14.9873 14.4873 18.625 10 18.625C5.51269 18.625 1.875 14.9873 1.875 10.5Z" fill="#DF5E5E"/>
<path fill-rule="evenodd" clip-rule="evenodd" d="M12.9419 7.55806C13.186 7.80214 13.186 8.19786 12.9419 8.44194L7.94194 13.4419C7.69786 13.686 7.30214 13.686 7.05806 13.4419C6.81398 13.1979 6.81398 12.8021 7.05806 12.5581L12.0581 7.55806C12.3021 7.31398 12.6979 7.31398 12.9419 7.55806Z" fill="#DF5E5E"/>
<path fill-rule="evenodd" clip-rule="evenodd" d="M7.05806 7.55806C7.30214 7.31398 7.69786 7.31398 7.94194 7.55806L12.9419 12.5581C13.186 12.8021 13.186 13.1979 12.9419 13.4419C12.6979 13.686 12.3021 13.686 12.0581 13.4419L7.05806 8.44194C6.81398 8.19786 6.81398 7.80214 7.05806 7.55806Z" fill="#DF5E5E"/>
</svg>
