<svg width="16" height="16" viewBox="0 0 16 16" fill="none" xmlns="http://www.w3.org/2000/svg">
<path fill-rule="evenodd" clip-rule="evenodd" d="M5.5 9.5C5.5 9.22386 5.72386 9 6 9H10C10.2761 9 10.5 9.22386 10.5 9.5C10.5 9.77614 10.2761 10 10 10H6C5.72386 10 5.5 9.77614 5.5 9.5Z" fill="#5F5F5F"/>
<path fill-rule="evenodd" clip-rule="evenodd" d="M5.5 7.5C5.5 7.22386 5.72386 7 6 7H10C10.2761 7 10.5 7.22386 10.5 7.5C10.5 7.77614 10.2761 8 10 8H6C5.72386 8 5.5 7.77614 5.5 7.5Z" fill="#5F5F5F"/>
<path fill-rule="evenodd" clip-rule="evenodd" d="M2.79289 2.29289C2.98043 2.10536 3.23478 2 3.5 2H6C6.27614 2 6.5 2.22386 6.5 2.5C6.5 2.77614 6.27614 3 6 3L3.5 3L3.5 13.5H12.5V3H10C9.72386 3 9.5 2.77614 9.5 2.5C9.5 2.22386 9.72386 2 10 2H12.5C12.7652 2 13.0196 2.10536 13.2071 2.29289C13.3946 2.48043 13.5 2.73478 13.5 3V13.5C13.5 13.7652 13.3946 14.0196 13.2071 14.2071C13.0196 14.3946 12.7652 14.5 12.5 14.5H3.5C3.23478 14.5 2.98043 14.3946 2.79289 14.2071C2.60536 14.0196 2.5 13.7652 2.5 13.5V3C2.5 2.73478 2.60536 2.48043 2.79289 2.29289Z" fill="#5F5F5F"/>
<path fill-rule="evenodd" clip-rule="evenodd" d="M8 2C7.46957 2 6.96086 2.21071 6.58579 2.58579C6.21071 2.96086 6 3.46957 6 4H10C10 3.46957 9.78929 2.96086 9.41421 2.58579C9.03914 2.21071 8.53043 2 8 2ZM5.87868 1.87868C6.44129 1.31607 7.20435 1 8 1C8.79565 1 9.55871 1.31607 10.1213 1.87868C10.6839 2.44129 11 3.20435 11 4V4.5C11 4.77614 10.7761 5 10.5 5H5.5C5.22386 5 5 4.77614 5 4.5V4C5 3.20435 5.31607 2.44129 5.87868 1.87868Z" fill="#5F5F5F"/>
</svg>
