<svg width="18" height="18" viewBox="0 0 18 18" fill="none" xmlns="http://www.w3.org/2000/svg">
<path fill-rule="evenodd" clip-rule="evenodd" d="M3.7045 3.142C3.91548 2.93103 4.20163 2.8125 4.5 2.8125H13.5C13.7984 2.8125 14.0845 2.93103 14.2955 3.142C14.5065 3.35298 14.625 3.63913 14.625 3.9375V7.875C14.625 8.61697 14.4782 9.35163 14.1931 10.0366C13.908 10.7217 13.4902 11.3435 12.9637 11.8663C12.4372 12.3892 11.8125 12.8027 11.1255 13.0831C10.4386 13.3634 9.7029 13.5051 8.96094 13.5L8.96059 13.5C5.85159 13.4765 3.375 10.9035 3.375 7.81172V3.9375C3.375 3.63913 3.49353 3.35298 3.7045 3.142ZM13.5 3.9375L4.5 3.9375L4.5 7.81172C4.5 10.3028 6.49529 12.3563 8.96909 12.375C9.56255 12.3791 10.151 12.2657 10.7004 12.0415C11.25 11.8172 11.7498 11.4864 12.171 11.0681C12.5921 10.6498 12.9264 10.1523 13.1545 9.60434C13.3826 9.05633 13.5 8.4686 13.5 7.875V3.9375Z" fill="#095AA5"/>
<path fill-rule="evenodd" clip-rule="evenodd" d="M6.1875 15.75C6.1875 15.4393 6.43934 15.1875 6.75 15.1875H11.25C11.5607 15.1875 11.8125 15.4393 11.8125 15.75C11.8125 16.0607 11.5607 16.3125 11.25 16.3125H6.75C6.43934 16.3125 6.1875 16.0607 6.1875 15.75Z" fill="#095AA5"/>
<path fill-rule="evenodd" clip-rule="evenodd" d="M9 12.375C9.31066 12.375 9.5625 12.6268 9.5625 12.9375V15.75C9.5625 16.0607 9.31066 16.3125 9 16.3125C8.68934 16.3125 8.4375 16.0607 8.4375 15.75V12.9375C8.4375 12.6268 8.68934 12.375 9 12.375Z" fill="#095AA5"/>
<path fill-rule="evenodd" clip-rule="evenodd" d="M13.4996 5.0625C13.4996 4.75184 13.7514 4.5 14.0621 4.5H16.3121C16.6105 4.5 16.8966 4.61853 17.1076 4.8295C17.3186 5.04048 17.4371 5.32663 17.4371 5.625V6.75C17.4371 7.49592 17.1408 8.21129 16.6133 8.73874C16.0859 9.26618 15.3705 9.5625 14.6246 9.5625H13.9355C13.6249 9.5625 13.373 9.31066 13.373 9C13.373 8.68934 13.6249 8.4375 13.9355 8.4375H14.6246C15.0722 8.4375 15.5014 8.25971 15.8179 7.94324C16.1343 7.62678 16.3121 7.19755 16.3121 6.75L16.3121 5.625L14.0621 5.625C13.7514 5.625 13.4996 5.37316 13.4996 5.0625Z" fill="#095AA5"/>
<path fill-rule="evenodd" clip-rule="evenodd" d="M0.885169 4.8295C1.09615 4.61853 1.3823 4.5 1.68066 4.5H3.93066C4.24132 4.5 4.49316 4.75184 4.49316 5.0625C4.49316 5.37316 4.24132 5.625 3.93066 5.625L1.68066 5.625V6.75C1.68066 7.19755 1.85845 7.62678 2.17492 7.94324C2.49139 8.25971 2.92061 8.4375 3.36816 8.4375H4.07832C4.38898 8.4375 4.64082 8.68934 4.64082 9C4.64082 9.31066 4.38898 9.5625 4.07832 9.5625H3.36816C2.62224 9.5625 1.90687 9.26618 1.37943 8.73874C0.85198 8.21129 0.555664 7.49592 0.555664 6.75V5.625C0.555664 5.32663 0.674191 5.04048 0.885169 4.8295Z" fill="#095AA5"/>
</svg>
