<svg width="12" height="12" viewBox="0 0 12 12" fill="none" xmlns="http://www.w3.org/2000/svg">
<path fill-rule="evenodd" clip-rule="evenodd" d="M1.74796 0.63308C1.74834 0.633214 1.74872 0.633348 1.74911 0.633483L11.0044 3.83702C11.0046 3.8371 11.0048 3.83717 11.0051 3.83725C11.8132 4.11464 11.7753 5.25157 10.9761 5.49996L10.9752 5.50023L6.79161 6.79085C6.7908 6.7911 6.78999 6.79135 6.78917 6.7916L5.50028 10.975L5.49996 10.9761C5.25157 11.7753 4.11464 11.8132 3.83725 11.0051C3.83717 11.0048 3.8371 11.0046 3.83702 11.0044L0.633483 1.74911C0.633348 1.74872 0.633214 1.74834 0.63308 1.74796C0.578757 1.5927 0.569294 1.42527 0.60579 1.26486C0.642375 1.10406 0.723657 0.956875 0.840266 0.840266C0.956875 0.723657 1.10406 0.642375 1.26486 0.60579C1.42527 0.569294 1.5927 0.578757 1.74796 0.63308ZM1.04623 1.60405L1.45967 1.46094L4.66384 10.718C4.66398 10.7176 4.66413 10.7172 4.66429 10.7167C4.66432 10.7166 4.66425 10.7168 4.66429 10.7167L5.95354 6.53209C5.99418 6.39269 6.06997 6.26604 6.17366 6.16431C6.27616 6.06374 6.40248 5.99091 6.54074 5.95256L10.7164 4.66438C10.7165 4.66436 10.7163 4.66441 10.7164 4.66438C10.7169 4.66422 10.7176 4.66399 10.718 4.66384L1.45898 1.45899L1.04623 1.60405Z" fill="#095AA5"/>
</svg>
