<svg width="20" height="20" viewBox="0 0 20 20" fill="none" xmlns="http://www.w3.org/2000/svg">
<path fill-rule="evenodd" clip-rule="evenodd" d="M13.3081 3.93306C13.5521 3.68898 13.9479 3.68898 14.1919 3.93306L17.9419 7.68306C18.186 7.92714 18.186 8.32286 17.9419 8.56694L14.1919 12.3169C13.9479 12.561 13.5521 12.561 13.3081 12.3169C13.064 12.0729 13.064 11.6771 13.3081 11.4331L16.6161 8.125L13.3081 4.81694C13.064 4.57286 13.064 4.17714 13.3081 3.93306Z" fill="#5F5F5F"/>
<path fill-rule="evenodd" clip-rule="evenodd" d="M2.5 6.25C2.84518 6.25 3.125 6.52982 3.125 6.875V16.25H15C15.3452 16.25 15.625 16.5298 15.625 16.875C15.625 17.2202 15.3452 17.5 15 17.5H3.125C2.79348 17.5 2.47554 17.3683 2.24112 17.1339C2.0067 16.8995 1.875 16.5815 1.875 16.25V6.875C1.875 6.52982 2.15482 6.25 2.5 6.25Z" fill="#5F5F5F"/>
<path fill-rule="evenodd" clip-rule="evenodd" d="M13.1252 7.5H17.5002C17.8453 7.5 18.1252 7.77982 18.1252 8.125C18.1252 8.47018 17.8453 8.75 17.5002 8.75H13.1253C13.1253 8.75 13.1254 8.75 13.1253 8.75C11.6008 8.7505 10.1194 9.25714 8.91395 10.1904C7.70842 11.1237 6.84689 12.4309 6.46455 13.9067C6.37799 14.2409 6.03694 14.4416 5.70279 14.355C5.36864 14.2685 5.16794 13.9274 5.2545 13.5933C5.70627 11.8494 6.72427 10.3048 8.14873 9.202C9.57319 8.09919 11.3237 7.50054 13.1252 7.5Z" fill="#5F5F5F"/>
</svg>
