<svg width="20" height="20" viewBox="0 0 20 20" fill="none" xmlns="http://www.w3.org/2000/svg">
<path fill-rule="evenodd" clip-rule="evenodd" d="M1.22039 12.8874C2.00179 12.106 3.0616 11.667 4.16667 11.667H10.8333C11.9384 11.667 12.9982 12.106 13.7796 12.8874C14.561 13.6688 15 14.7286 15 15.8337V17.5003C15 17.9606 14.6269 18.3337 14.1667 18.3337C13.7064 18.3337 13.3333 17.9606 13.3333 17.5003V15.8337C13.3333 15.1706 13.0699 14.5347 12.6011 14.0659C12.1323 13.5971 11.4964 13.3337 10.8333 13.3337H4.16667C3.50363 13.3337 2.86774 13.5971 2.3989 14.0659C1.93006 14.5347 1.66667 15.1706 1.66667 15.8337V17.5003C1.66667 17.9606 1.29357 18.3337 0.833333 18.3337C0.373096 18.3337 0 17.9606 0 17.5003V15.8337C0 14.7286 0.438987 13.6688 1.22039 12.8874Z" fill="#5F5F5F"/>
<path fill-rule="evenodd" clip-rule="evenodd" d="M7.50065 3.33366C6.11994 3.33366 5.00065 4.45295 5.00065 5.83366C5.00065 7.21437 6.11994 8.33366 7.50065 8.33366C8.88136 8.33366 10.0006 7.21437 10.0006 5.83366C10.0006 4.45295 8.88136 3.33366 7.50065 3.33366ZM3.33398 5.83366C3.33398 3.53247 5.19946 1.66699 7.50065 1.66699C9.80184 1.66699 11.6673 3.53247 11.6673 5.83366C11.6673 8.13485 9.80184 10.0003 7.50065 10.0003C5.19946 10.0003 3.33398 8.13485 3.33398 5.83366Z" fill="#5F5F5F"/>
<path fill-rule="evenodd" clip-rule="evenodd" d="M15.8606 12.3996C15.9757 11.954 16.4302 11.686 16.8759 11.8011C17.7697 12.0319 18.5617 12.553 19.1273 13.2827C19.6929 14.0123 20.0002 14.9091 20.0009 15.8323L20.0009 17.4996C20.0009 17.9599 19.6278 18.333 19.1675 18.333C18.7073 18.333 18.3342 17.9599 18.3342 17.4996L18.3342 15.8336C18.3342 15.8335 18.3342 15.8337 18.3342 15.8336C18.3337 15.2797 18.1494 14.7415 17.81 14.3038C17.4707 13.866 16.9955 13.5533 16.4592 13.4148C16.0136 13.2998 15.7456 12.8452 15.8606 12.3996Z" fill="#5F5F5F"/>
<path fill-rule="evenodd" clip-rule="evenodd" d="M12.5262 2.40125C12.6404 1.95539 13.0944 1.6865 13.5402 1.80066C14.4365 2.03014 15.2309 2.55139 15.7982 3.28223C16.3655 4.01307 16.6734 4.91194 16.6734 5.83711C16.6734 6.76229 16.3655 7.66116 15.7982 8.392C15.2309 9.12284 14.4365 9.64409 13.5402 9.87357C13.0944 9.98773 12.6404 9.71883 12.5262 9.27298C12.4121 8.82712 12.681 8.37315 13.1268 8.25899C13.6646 8.1213 14.1412 7.80855 14.4816 7.37004C14.822 6.93154 15.0067 6.39222 15.0067 5.83711C15.0067 5.28201 14.822 4.74269 14.4816 4.30418C14.1412 3.86568 13.6646 3.55293 13.1268 3.41524C12.681 3.30108 12.4121 2.8471 12.5262 2.40125Z" fill="#5F5F5F"/>
</svg>
