<svg width="18" height="18" viewBox="0 0 18 18" fill="none" xmlns="http://www.w3.org/2000/svg">
<path fill-rule="evenodd" clip-rule="evenodd" d="M6.1875 6.75C6.37557 6.75 6.5512 6.84399 6.65553 7.00048L8.4375 9.67344L9.09447 8.68798C9.1988 8.53149 9.37443 8.4375 9.5625 8.4375H11.25C11.5607 8.4375 11.8125 8.68934 11.8125 9C11.8125 9.31066 11.5607 9.5625 11.25 9.5625H9.86354L8.90553 10.9995C8.8012 11.156 8.62557 11.25 8.4375 11.25C8.24943 11.25 8.0738 11.156 7.96947 10.9995L6.1875 8.32656L5.53053 9.31202C5.4262 9.46851 5.25057 9.5625 5.0625 9.5625H2.25C1.93934 9.5625 1.6875 9.31066 1.6875 9C1.6875 8.68934 1.93934 8.4375 2.25 8.4375H4.76146L5.71947 7.00048C5.8238 6.84399 5.99943 6.75 6.1875 6.75Z" fill="#DF5E5E"/>
<path fill-rule="evenodd" clip-rule="evenodd" d="M7.0791 3.73803C6.44782 3.40188 5.71958 3.29482 5.01827 3.43509C4.31696 3.57535 3.6859 3.95426 3.23247 4.50735C2.77905 5.06045 2.53125 5.75356 2.53125 6.46876C2.53125 6.56454 2.53155 6.64083 2.53663 6.70686C2.56045 7.01661 2.32867 7.28702 2.01892 7.31085C1.70918 7.33468 1.43877 7.10289 1.41494 6.79315C1.40623 6.67993 1.40624 6.56314 1.40625 6.47681L1.40625 6.46876C1.40625 5.49348 1.74415 4.54834 2.36246 3.79412C2.98078 3.0399 3.8413 2.5232 4.79764 2.33193C5.75397 2.14067 6.74703 2.28665 7.60787 2.74504C8.15745 3.03769 8.63146 3.44613 9 3.9375C9.36854 3.44613 9.84255 3.03769 10.3921 2.74504C11.253 2.28665 12.246 2.14067 13.2024 2.33193C14.1587 2.5232 15.0192 3.0399 15.6375 3.79412C16.2558 4.54834 16.5938 5.49348 16.5938 6.46876C16.5938 9.11828 14.6655 11.443 12.8919 13.0392C11.9881 13.8526 11.0869 14.5103 10.4128 14.9642C10.0752 15.1915 9.79322 15.3686 9.59455 15.4895C9.49518 15.55 9.41657 15.5964 9.36215 15.6281C9.33494 15.644 9.31377 15.6562 9.29908 15.6645L9.28195 15.6743L9.27712 15.677L9.27566 15.6778L9.27517 15.6781C9.27499 15.6782 9.27484 15.6783 9 15.1875C8.72464 15.678 8.72455 15.6779 8.72445 15.6779L8.7242 15.6777L8.7235 15.6774L8.72134 15.6761L8.71399 15.672L8.68747 15.6568C8.66465 15.6437 8.63167 15.6245 8.58941 15.5996C8.5049 15.5497 8.38318 15.4765 8.23122 15.3815C7.92747 15.1917 7.502 14.9143 7.01081 14.5616C6.03177 13.8587 4.77634 12.8459 3.70402 11.6204C3.49945 11.3866 3.52314 11.0313 3.75694 10.8267C3.99073 10.6221 4.3461 10.6458 4.55067 10.8796C5.54554 12.0166 6.72644 12.9725 7.66692 13.6478C8.13551 13.9842 8.5406 14.2482 8.82747 14.4275C8.89116 14.4673 8.94898 14.5029 9.00032 14.5342C9.00342 14.5323 9.00655 14.5304 9.0097 14.5285C9.19555 14.4154 9.46288 14.2475 9.78446 14.031C10.4287 13.5972 11.2853 12.9716 12.1393 12.203C13.8814 10.6351 15.4688 8.60048 15.4688 6.46876C15.4688 5.75356 15.221 5.06045 14.7675 4.50735C14.3141 3.95426 13.683 3.57535 12.9817 3.43509C12.2804 3.29482 11.5522 3.40188 10.9209 3.73803C10.2896 4.07418 9.79431 4.61867 9.51923 5.27885L9 5.06251L8.48077 5.27885C8.20569 4.61867 7.71038 4.07418 7.0791 3.73803ZM9 15.1875L8.72464 15.678C8.89547 15.7739 9.1039 15.774 9.27484 15.6783L9 15.1875Z" fill="#DF5E5E"/>
</svg>
