<svg width="16" height="16" viewBox="0 0 16 16" fill="none" xmlns="http://www.w3.org/2000/svg">
<path d="M6.06065 6.0026C6.21739 5.55705 6.52675 5.18134 6.93395 4.94203C7.34116 4.70271 7.81991 4.61523 8.28544 4.69508C8.75096 4.77493 9.1732 5.01695 9.47737 5.37829C9.78154 5.73963 9.94802 6.19695 9.94732 6.66927C9.94732 8.0026 7.94732 8.66927 7.94732 8.66927M8.00065 11.3359H8.00732M14.6673 8.0026C14.6673 11.6845 11.6826 14.6693 8.00065 14.6693C4.31875 14.6693 1.33398 11.6845 1.33398 8.0026C1.33398 4.32071 4.31875 1.33594 8.00065 1.33594C11.6826 1.33594 14.6673 4.32071 14.6673 8.0026Z" stroke="#5F5F5F" stroke-width="1.33333" stroke-linecap="round" stroke-linejoin="round"/>
</svg>
