<svg width="20" height="20" viewBox="0 0 20 20" fill="none" xmlns="http://www.w3.org/2000/svg">
<path fill-rule="evenodd" clip-rule="evenodd" d="M13.1555 4.37523C11.7862 4.35656 10.625 5.50404 10.625 6.87529V8.12529C10.625 8.30901 10.5441 8.48342 10.4039 8.60217C10.2638 8.72092 10.0784 8.77199 9.89721 8.74178C7.89405 8.40792 6.08754 7.41466 4.80213 6.53094C4.32662 6.20403 3.91665 5.88808 3.58779 5.61877C3.3635 8.25665 4.15674 10.0791 5.03437 11.2702C5.53904 11.9551 6.07966 12.4413 6.49169 12.7548C6.69736 12.9113 6.86975 13.0238 6.98768 13.0957C7.04659 13.1315 7.09175 13.1572 7.12049 13.173C7.13485 13.1809 7.14509 13.1863 7.15087 13.1894L7.15555 13.1918L7.15507 13.1916C7.3151 13.2718 7.43306 13.4168 7.47902 13.5899C7.52503 13.7631 7.49443 13.9478 7.39499 14.097C6.69652 15.1447 5.67001 15.9052 4.85277 16.3956C4.70681 16.4832 4.56603 16.563 4.43308 16.6351C4.83375 16.7648 5.41867 16.8753 6.24996 16.8753H6.25027C8.63144 16.8765 10.9237 15.9708 12.661 14.3423C14.3982 12.7139 15.4501 10.4849 15.6028 8.10865C15.6125 7.95706 15.6772 7.8142 15.7846 7.70678L17.2411 6.25029H15.9921C15.7436 6.25029 15.5187 6.10303 15.4193 5.87524C15.2267 5.43387 14.9107 5.05751 14.5094 4.79142C14.108 4.52532 13.6383 4.3808 13.1568 4.37524L13.1555 4.37523ZM3.12496 16.5628C2.60493 16.9095 2.60524 16.9099 2.60556 16.9104L2.60621 16.9114L2.60756 16.9134L2.61047 16.9177L2.61713 16.9272C2.62195 16.934 2.62754 16.9416 2.63392 16.9501C2.64669 16.967 2.66266 16.9871 2.68216 17.0098C2.72119 17.0553 2.77416 17.1114 2.84357 17.1738C2.98286 17.2992 3.1857 17.4482 3.47045 17.5906C4.04112 17.8759 4.92132 18.1252 6.24965 18.1253M2.90551 15.9776C2.90535 15.9776 2.90519 15.9777 2.90503 15.9778C2.72667 16.0448 2.58863 16.1896 2.53013 16.3709C2.47158 16.5524 2.49913 16.7508 2.60493 16.9095L3.12496 16.5628M2.90551 15.9776L2.90812 15.9766L2.92451 15.9702C2.93988 15.9641 2.96396 15.9545 2.99585 15.9413C3.05966 15.9149 3.15451 15.8743 3.2732 15.8195C3.51107 15.7097 3.84208 15.5443 4.20965 15.3237C4.7938 14.9732 5.44137 14.5008 5.95965 13.9145C6.10733 14.0187 6.2356 14.1012 6.33743 14.1632C6.4128 14.2091 6.47384 14.2439 6.51774 14.2681C6.53969 14.2802 6.55737 14.2896 6.57044 14.2964L6.58653 14.3048L6.5919 14.3075L6.59391 14.3085L6.59474 14.3089M3.12496 4.37529C3.5669 3.93334 3.5668 3.93325 3.56672 3.93316L3.56743 3.93387L3.57244 3.93882L3.59565 3.96145C3.61692 3.98204 3.64965 4.01337 3.69322 4.05407C3.7804 4.13552 3.91083 4.25435 4.07966 4.39973C4.4177 4.69082 4.90751 5.08647 5.51029 5.50088C6.55443 6.21873 7.9063 6.97109 9.37496 7.35309V6.87529C9.37496 4.80925 11.1039 3.0975 13.1719 3.12533C13.894 3.1338 14.5982 3.35056 15.2001 3.74959C15.6849 4.07104 16.0867 4.49975 16.3757 5.00029H18.75C19.0027 5.00029 19.2306 5.15256 19.3274 5.38611C19.4241 5.61965 19.3706 5.88848 19.1919 6.06723L16.8323 8.42688C16.6061 11.0307 15.4268 13.463 13.5158 15.2543C11.5468 17.1 8.94877 18.1265 6.24996 18.1253M3.12496 4.37529L3.5669 3.93334C3.5668 3.93325 3.5667 3.93315 3.56661 3.93305C3.40223 3.7689 3.16036 3.70944 2.9386 3.77871C2.71671 3.84803 2.55162 4.03477 2.51004 4.26348C1.85238 7.88062 2.83853 10.3973 4.02805 12.0117C4.61712 12.8111 5.24838 13.3795 5.73479 13.7496C5.81368 13.8097 5.88889 13.8646 5.95965 13.9145" fill="#5F5F5F"/>
</svg>
