<svg width="24" height="25" viewBox="0 0 24 25" fill="none" xmlns="http://www.w3.org/2000/svg">
<path fill-rule="evenodd" clip-rule="evenodd" d="M1.93934 12.1893C2.22065 11.908 2.60218 11.75 3 11.75H7.5C7.91421 11.75 8.25 12.0858 8.25 12.5C8.25 12.9142 7.91421 13.25 7.5 13.25L3 13.25V19.25H21V13.25H16.5C16.0858 13.25 15.75 12.9142 15.75 12.5C15.75 12.0858 16.0858 11.75 16.5 11.75H21C21.3978 11.75 21.7794 11.908 22.0607 12.1893C22.342 12.4706 22.5 12.8522 22.5 13.25V19.25C22.5 19.6478 22.342 20.0294 22.0607 20.3107C21.7794 20.592 21.3978 20.75 21 20.75H3C2.60218 20.75 2.22065 20.592 1.93934 20.3107C1.65803 20.0294 1.5 19.6478 1.5 19.25V13.25C1.5 12.8522 1.65803 12.4706 1.93934 12.1893Z" fill="#5F5F5F"/>
<path fill-rule="evenodd" clip-rule="evenodd" d="M12 2C12.4142 2 12.75 2.33579 12.75 2.75V12.5C12.75 12.9142 12.4142 13.25 12 13.25C11.5858 13.25 11.25 12.9142 11.25 12.5V2.75C11.25 2.33579 11.5858 2 12 2Z" fill="#5F5F5F"/>
<path fill-rule="evenodd" clip-rule="evenodd" d="M11.4697 2.21967C11.7626 1.92678 12.2374 1.92678 12.5303 2.21967L17.0303 6.71967C17.3232 7.01256 17.3232 7.48744 17.0303 7.78033C16.7374 8.07322 16.2626 8.07322 15.9697 7.78033L12 3.81066L8.03033 7.78033C7.73744 8.07322 7.26256 8.07322 6.96967 7.78033C6.67678 7.48744 6.67678 7.01256 6.96967 6.71967L11.4697 2.21967Z" fill="#5F5F5F"/>
<path d="M17.625 17.375C18.2463 17.375 18.75 16.8713 18.75 16.25C18.75 15.6287 18.2463 15.125 17.625 15.125C17.0037 15.125 16.5 15.6287 16.5 16.25C16.5 16.8713 17.0037 17.375 17.625 17.375Z" fill="#5F5F5F"/>
</svg>
