<svg width="24" height="24" viewBox="0 0 24 24" fill="none" xmlns="http://www.w3.org/2000/svg">
<rect x="0.5" y="0.5" width="23" height="23" rx="11.5" fill="white" stroke="#DADADA" stroke-dasharray="4 2"/>
<path fill-rule="evenodd" clip-rule="evenodd" d="M12 5.8125C8.58274 5.8125 5.8125 8.58274 5.8125 12C5.8125 15.4173 8.58274 18.1875 12 18.1875C15.4173 18.1875 18.1875 15.4173 18.1875 12C18.1875 8.58274 15.4173 5.8125 12 5.8125ZM4.6875 12C4.6875 7.96142 7.96142 4.6875 12 4.6875C16.0386 4.6875 19.3125 7.96142 19.3125 12C19.3125 16.0386 16.0386 19.3125 12 19.3125C7.96142 19.3125 4.6875 16.0386 4.6875 12Z" fill="#5F5F5F"/>
<path fill-rule="evenodd" clip-rule="evenodd" d="M12 9.1875C10.7574 9.1875 9.75 10.1949 9.75 11.4375C9.75 12.6801 10.7574 13.6875 12 13.6875C13.2426 13.6875 14.25 12.6801 14.25 11.4375C14.25 10.1949 13.2426 9.1875 12 9.1875ZM8.625 11.4375C8.625 9.57354 10.136 8.0625 12 8.0625C13.864 8.0625 15.375 9.57354 15.375 11.4375C15.375 13.3015 13.864 14.8125 12 14.8125C10.136 14.8125 8.625 13.3015 8.625 11.4375Z" fill="#5F5F5F"/>
<path fill-rule="evenodd" clip-rule="evenodd" d="M11.9995 14.8125C11.1685 14.8125 10.3537 15.0426 9.6455 15.4773C8.93726 15.9121 8.36323 16.5344 7.98703 17.2754C7.8464 17.5524 7.50784 17.6629 7.23083 17.5223C6.95383 17.3817 6.84328 17.0431 6.98391 16.7661C7.45415 15.8399 8.17169 15.0619 9.05699 14.5185C9.94229 13.9751 10.9608 13.6875 11.9995 13.6875C13.0383 13.6875 14.0568 13.9751 14.9421 14.5185C15.8274 15.0619 16.5449 15.8399 17.0152 16.7661C17.1558 17.0431 17.0452 17.3817 16.7682 17.5223C16.4912 17.6629 16.1527 17.5524 16.012 17.2754C15.6358 16.5344 15.0618 15.9121 14.3536 15.4773C13.6453 15.0426 12.8305 14.8125 11.9995 14.8125Z" fill="#5F5F5F"/>
</svg>
