<svg width="12" height="13" viewBox="0 0 12 13" fill="none" xmlns="http://www.w3.org/2000/svg">
<path fill-rule="evenodd" clip-rule="evenodd" d="M0.732233 8.23223C1.20107 7.76339 1.83696 7.5 2.5 7.5H6.5C7.16304 7.5 7.79893 7.76339 8.26777 8.23223C8.73661 8.70107 9 9.33696 9 10V11C9 11.2761 8.77614 11.5 8.5 11.5C8.22386 11.5 8 11.2761 8 11V10C8 9.60218 7.84196 9.22064 7.56066 8.93934C7.27936 8.65804 6.89782 8.5 6.5 8.5H2.5C2.10218 8.5 1.72064 8.65804 1.43934 8.93934C1.15804 9.22064 1 9.60218 1 10V11C1 11.2761 0.776142 11.5 0.5 11.5C0.223858 11.5 0 11.2761 0 11V10C0 9.33696 0.263392 8.70107 0.732233 8.23223Z" fill="#5F5F5F"/>
<path fill-rule="evenodd" clip-rule="evenodd" d="M4.5 2.5C3.67157 2.5 3 3.17157 3 4C3 4.82843 3.67157 5.5 4.5 5.5C5.32843 5.5 6 4.82843 6 4C6 3.17157 5.32843 2.5 4.5 2.5ZM2 4C2 2.61929 3.11929 1.5 4.5 1.5C5.88071 1.5 7 2.61929 7 4C7 5.38071 5.88071 6.5 4.5 6.5C3.11929 6.5 2 5.38071 2 4Z" fill="#5F5F5F"/>
<path fill-rule="evenodd" clip-rule="evenodd" d="M9.516 7.94153C9.58503 7.67415 9.85775 7.51337 10.1251 7.5824C10.6615 7.72088 11.1366 8.03357 11.476 8.47135C11.8153 8.90914 11.9997 9.44723 12.0001 10.0012L12.0001 11.0015C12.0001 11.2777 11.7763 11.5015 11.5001 11.5015C11.224 11.5015 11.0001 11.2777 11.0001 11.0015L11.0001 10.0019C11.0001 10.0019 11.0001 10.002 11.0001 10.0019C10.9998 9.6696 10.8892 9.34665 10.6856 9.08402C10.482 8.82135 10.1969 8.63374 9.87512 8.55065C9.60775 8.48161 9.44696 8.2089 9.516 7.94153Z" fill="#5F5F5F"/>
<path fill-rule="evenodd" clip-rule="evenodd" d="M7.51575 1.94251C7.58424 1.67499 7.85663 1.51366 8.12414 1.58215C8.6619 1.71984 9.13854 2.03259 9.47891 2.4711C9.81929 2.9096 10.004 3.44892 10.004 4.00403C10.004 4.55913 9.81929 5.09845 9.47891 5.53696C9.13854 5.97546 8.6619 6.28821 8.12414 6.4259C7.85663 6.4944 7.58424 6.33306 7.51575 6.06555C7.44725 5.79803 7.60859 5.52565 7.8761 5.45715C8.19876 5.37454 8.48474 5.18689 8.68897 4.92379C8.89319 4.66068 9.00404 4.33709 9.00404 4.00403C9.00404 3.67096 8.89319 3.34737 8.68897 3.08427C8.48474 2.82116 8.19876 2.63351 7.8761 2.5509C7.60859 2.48241 7.44725 2.21002 7.51575 1.94251Z" fill="#5F5F5F"/>
</svg>
