<svg width="20" height="20" viewBox="0 0 20 20" fill="none" xmlns="http://www.w3.org/2000/svg">
<path fill-rule="evenodd" clip-rule="evenodd" d="M5.64143 2.03315C5.83568 1.92488 6.0553 1.87039 6.27764 1.87531C6.4995 1.88021 6.71605 1.9441 6.90505 2.06038C6.90545 2.06063 6.90585 2.06088 6.90625 2.06112L18.1431 8.93285C18.3268 9.04257 18.4791 9.19791 18.5851 9.38384C18.6921 9.57134 18.7483 9.78346 18.7483 9.99931C18.7483 10.2152 18.6921 10.4273 18.5851 10.6148C18.4791 10.8007 18.3268 10.9561 18.1431 11.0658L6.90625 17.9375C6.90578 17.9378 6.90532 17.9381 6.90485 17.9384C6.7159 18.0546 6.49943 18.1184 6.27764 18.1233C6.0553 18.1282 5.83568 18.0737 5.64143 17.9655C5.44717 17.8572 5.28532 17.6991 5.17257 17.5074C5.05982 17.3157 5.00025 17.0974 5 16.875V3.12362C5.00025 2.90123 5.05982 2.68293 5.17257 2.49125C5.28532 2.29956 5.44717 2.14142 5.64143 2.03315ZM17.8203 9.46806L17.498 9.99509L17.5021 9.99265C17.501 9.99333 17.5 9.9943 17.4994 9.99544C17.4987 9.99662 17.4983 9.99796 17.4983 9.99931C17.4983 10.0007 17.4987 10.002 17.4994 10.0032C17.5 10.0044 17.501 10.0053 17.5022 10.006L17.8203 9.46806ZM17.4911 9.99931L6.25 3.12501L6.25 16.8736L6.25205 16.8724L17.4911 9.99931Z" fill="#5F5F5F"/>
</svg>
