<svg width="19" height="18" viewBox="0 0 19 18" fill="none" xmlns="http://www.w3.org/2000/svg">
<g clip-path="url(#clip0_3936_2934)">
<path fill-rule="evenodd" clip-rule="evenodd" d="M2.00595 9C2.08792 9.14165 2.19658 9.32216 2.3312 9.53061C2.67697 10.066 3.18901 10.7779 3.85379 11.487C5.19703 12.9198 7.07502 14.25 9.40039 14.25C11.7258 14.25 13.6038 12.9198 14.947 11.487C15.6118 10.7779 16.1238 10.066 16.4696 9.53061C16.6042 9.32216 16.7129 9.14165 16.7948 9C16.7129 8.85835 16.6042 8.67784 16.4696 8.46939C16.1238 7.93402 15.6118 7.22205 14.947 6.51296C13.6038 5.08017 11.7258 3.75 9.40039 3.75C7.07502 3.75 5.19703 5.08017 3.85379 6.51296C3.18901 7.22205 2.67697 7.93402 2.3312 8.46939C2.19658 8.67784 2.08792 8.85835 2.00595 9ZM17.6504 9C18.3212 8.66459 18.3211 8.66434 18.3209 8.66406L18.3197 8.66165L18.3171 8.65653L18.3086 8.63987C18.3015 8.62596 18.2914 8.60649 18.2783 8.58183C18.2522 8.53252 18.2144 8.46242 18.1649 8.37449C18.066 8.19873 17.9205 7.95114 17.7296 7.65561C17.3488 7.06598 16.7828 6.27795 16.0413 5.48704C14.572 3.91983 12.325 2.25 9.40039 2.25C6.47576 2.25 4.22875 3.91983 2.75949 5.48704C2.01802 6.27795 1.45194 7.06598 1.07114 7.65561C0.880278 7.95114 0.734735 8.19873 0.635869 8.37449C0.586408 8.46242 0.548546 8.53252 0.522456 8.58183C0.509408 8.60649 0.499297 8.62596 0.492144 8.63987L0.483633 8.65653L0.481045 8.66165L0.480168 8.6634C0.48003 8.66367 0.47957 8.66459 1.15039 9L0.47957 8.66459C0.373997 8.87574 0.373997 9.12426 0.47957 9.33541L1.15039 9C0.47957 9.33541 0.479432 9.33513 0.47957 9.33541L0.481045 9.33835L0.483633 9.34347L0.492144 9.36013C0.499297 9.37405 0.509408 9.39352 0.522456 9.41817C0.548546 9.46748 0.586408 9.53758 0.635869 9.62551C0.734735 9.80127 0.880278 10.0489 1.07114 10.3444C1.45194 10.934 2.01802 11.7221 2.75949 12.513C4.22875 14.0802 6.47576 15.75 9.40039 15.75C12.325 15.75 14.572 14.0802 16.0413 12.513C16.7828 11.7221 17.3488 10.934 17.7296 10.3444C17.9205 10.0489 18.066 9.80127 18.1649 9.62551C18.2144 9.53758 18.2522 9.46748 18.2783 9.41817C18.2914 9.39352 18.3015 9.37405 18.3086 9.36013L18.3171 9.34347L18.3197 9.33835L18.3206 9.3366C18.3207 9.33633 18.3212 9.33541 17.6504 9ZM17.6504 9L18.3212 9.33541C18.4268 9.12426 18.4265 8.87521 18.3209 8.66406L17.6504 9Z" fill="#5F5F5F"/>
<path fill-rule="evenodd" clip-rule="evenodd" d="M9.40039 7.5C8.57196 7.5 7.90039 8.17157 7.90039 9C7.90039 9.82843 8.57196 10.5 9.40039 10.5C10.2288 10.5 10.9004 9.82843 10.9004 9C10.9004 8.17157 10.2288 7.5 9.40039 7.5ZM6.40039 9C6.40039 7.34315 7.74354 6 9.40039 6C11.0572 6 12.4004 7.34315 12.4004 9C12.4004 10.6569 11.0572 12 9.40039 12C7.74354 12 6.40039 10.6569 6.40039 9Z" fill="#5F5F5F"/>
</g>
<defs>
<clipPath id="clip0_3936_2934">
<rect width="18" height="18" fill="white" transform="translate(0.400391)"/>
</clipPath>
</defs>
</svg>
