<svg width="24" height="24" viewBox="0 0 24 24" fill="none" xmlns="http://www.w3.org/2000/svg">
<rect width="24" height="24" rx="12" fill="#BCDDFB"/>
<g clip-path="url(#clip0_2373_96519)">
<path d="M14.0007 13.9988L12.0007 11.9988M12.0007 11.9988L10.0007 13.9988M12.0007 11.9988V16.4988M16.1957 15.1938C16.6834 14.9279 17.0686 14.5072 17.2906 13.9981C17.5127 13.489 17.5588 12.9204 17.4218 12.3821C17.2848 11.8438 16.9725 11.3665 16.534 11.0255C16.0956 10.6845 15.5561 10.4991 15.0007 10.4988H14.3707C14.2194 9.91339 13.9373 9.36994 13.5457 8.90927C13.1541 8.4486 12.6631 8.0827 12.1098 7.83907C11.5564 7.59545 10.955 7.48045 10.3508 7.50271C9.74655 7.52497 9.15525 7.68392 8.6213 7.9676C8.08736 8.25129 7.62467 8.65232 7.26802 9.14056C6.91138 9.6288 6.67006 10.1915 6.5622 10.7865C6.45435 11.3814 6.48277 11.993 6.64532 12.5754C6.80787 13.1578 7.10033 13.6957 7.50071 14.1488" stroke="#2C6588" stroke-linecap="round" stroke-linejoin="round"/>
</g>
<defs>
<clipPath id="clip0_2373_96519">
<rect width="12" height="12" fill="white" transform="translate(6 6)"/>
</clipPath>
</defs>
</svg>
