<svg width="18" height="18" viewBox="0 0 18 18" fill="none" xmlns="http://www.w3.org/2000/svg">
<path fill-rule="evenodd" clip-rule="evenodd" d="M9 3.375C5.8934 3.375 3.375 5.8934 3.375 9C3.375 12.1066 5.8934 14.625 9 14.625C12.1066 14.625 14.625 12.1066 14.625 9C14.625 5.8934 12.1066 3.375 9 3.375ZM2.25 9C2.25 5.27208 5.27208 2.25 9 2.25C12.7279 2.25 15.75 5.27208 15.75 9C15.75 12.7279 12.7279 15.75 9 15.75C5.27208 15.75 2.25 12.7279 2.25 9Z" fill="#095AA5"/>
<path fill-rule="evenodd" clip-rule="evenodd" d="M12.1821 5.821C12.4018 6.04067 12.4018 6.39683 12.1821 6.6165L9.39775 9.40087C9.17808 9.62054 8.82192 9.62054 8.60225 9.40087C8.38258 9.1812 8.38258 8.82505 8.60225 8.60538L11.3866 5.821C11.6063 5.60133 11.9625 5.60133 12.1821 5.821Z" fill="#095AA5"/>
<path fill-rule="evenodd" clip-rule="evenodd" d="M6.75 0.5625C6.75 0.25184 7.00184 0 7.3125 0H10.6875C10.9982 0 11.25 0.25184 11.25 0.5625C11.25 0.87316 10.9982 1.125 10.6875 1.125H7.3125C7.00184 1.125 6.75 0.87316 6.75 0.5625Z" fill="#095AA5"/>
</svg>
