<svg width="126" height="88" viewBox="0 0 126 88" fill="none" xmlns="http://www.w3.org/2000/svg">
<g clip-path="url(#clip0_2328_86672)">
<path d="M50.1026 62.5208V25.504L82.7731 44.0133L50.1026 62.5208ZM122.774 13.8566C121.337 8.46574 117.101 4.2207 111.723 2.77998C101.975 0.161667 62.8867 0.161667 62.8867 0.161667C62.8867 0.161667 23.7982 0.161667 14.05 2.77998C8.67194 4.2207 4.43612 8.46574 2.99874 13.8566C0.386719 23.627 0.386719 44.0125 0.386719 44.0125C0.386719 44.0125 0.386719 64.3977 2.99874 74.1685C4.43612 79.5592 8.67194 83.8042 14.05 85.2456C23.7982 87.8633 62.8867 87.8633 62.8867 87.8633C62.8867 87.8633 101.975 87.8633 111.723 85.2456C117.101 83.8042 121.337 79.5592 122.774 74.1685C125.387 64.3977 125.387 44.0125 125.387 44.0125C125.387 44.0125 125.387 23.627 122.774 13.8566Z" fill="#095AA5"/>
</g>
<defs>
<clipPath id="clip0_2328_86672">
<rect width="125" height="87.7016" fill="white" transform="translate(0.386719 0.160156)"/>
</clipPath>
</defs>
</svg>
