<svg width="24" height="24" viewBox="0 0 24 24" fill="none" xmlns="http://www.w3.org/2000/svg">
<path opacity="0.1" fill-rule="evenodd" clip-rule="evenodd" d="M0 12C0 5.37258 5.37258 0 12 0C18.6274 0 24 5.37258 24 12C24 18.6274 18.6274 24 12 24C5.37258 24 0 18.6274 0 12Z" fill="#5F5F5F"/>
<path fill-rule="evenodd" clip-rule="evenodd" d="M17.0009 7.87623C17.5517 8.02736 17.9854 8.47267 18.1326 9.03817C18.4001 10.0631 18.4001 12.2016 18.4001 12.2016C18.4001 12.2016 18.4001 14.34 18.1326 15.365C17.9854 15.9305 17.5517 16.3758 17.0009 16.527C16.0028 16.8016 12.0001 16.8016 12.0001 16.8016C12.0001 16.8016 7.99741 16.8016 6.99923 16.527C6.44846 16.3758 6.01472 15.9305 5.86752 15.365C5.6001 14.34 5.6001 12.2016 5.6001 12.2016C5.6001 12.2016 5.6001 10.0631 5.86752 9.03817C6.01472 8.47267 6.44846 8.02736 6.99923 7.87623C7.99741 7.60156 12.0001 7.60156 12.0001 7.60156C12.0001 7.60156 16.0028 7.60156 17.0009 7.87623ZM10.8001 10.4015V14.4015L14.0001 12.4016L10.8001 10.4015Z" fill="#5F5F5F"/>
</svg>
