<?xml version="1.0" standalone="no"?>
<!DOCTYPE svg PUBLIC "-//W3C//DTD SVG 1.1//EN" "http://www.w3.org/Graphics/SVG/1.1/DTD/svg11.dtd" >
<svg xmlns="http://www.w3.org/2000/svg">
<metadata>Generated by IcoMoon</metadata>
<defs>
<font id="pg-icons" horiz-adv-x="1024">
<font-face units-per-em="1024" ascent="960" descent="-64" />
<missing-glyph horiz-adv-x="1024" />
<glyph unicode="&#x20;" horiz-adv-x="512" d="" />
<glyph unicode="&#xe900;" glyph-name="absent-exception" d="M512 960c-282.77 0-512-229.23-512-512s229.23-512 512-512c282.77 0 512 229.23 512 512s-229.23 512-512 512zM422.129 735.605h180.563l16.524-41.549 197.013-487.263 7.612-20.397h-161.513l-9.384 25.685-22.363 59.68-6.353 17.375-4.365 7.539-6.402 0.77h-213.694l-9.939-27.951-17.965-48.349-12.681-34.75h-158.2l7.612 20.397 49.191 121.627 33.52 83.099 114.302 282.537 16.524 41.549zM510.754 591.314l-8.854-22.663-19.307-51.37-29.271-77.811-15.456-41.549h145.776l-48.587 129.181-19.29 51.37-5.011 12.843z" />
<glyph unicode="&#xe901;" glyph-name="callback-exception" d="M512 960c-282.77 0-512-229.23-512-512s229.23-512 512-512c282.77 0 512 229.23 512 512s-229.23 512-512 512zM356.479 735.715h25.135l4.937-0.697c24.798-1.749 51.154-11.032 74.057-26.579l15.26-10.967c6.342-4.71 6.724-3.796 6.733-11.112v-122.66h-6.733c-5.166 0.021-6.89 4.537-10.772 9.581l-17.504 21.142c-12.199 13.296-23.721 23.189-37.702 30.73-6.427 3.462-16.611 7.367-23.339 7.497-7.769 0.146-14.717 0.276-22.442-1.647-20.494-5.117-37.621-19.792-51.539-44.803-12.37-22.224-20.023-55.618-22.707-84.918-0.714-7.788-1.598-18.377-1.607-26.129-0.023-24.583-0.39-41.363 2.603-66.047 4.601-37.93 17.343-74.119 37.343-95.994 8.631-9.435 17.334-14.908 27.379-18.951 27.572-11.097 55.359-3.302 79.892 19.444 8.438 7.824 15.602 15.467 23.339 25.011l9.426 12.244c1.36 1.836 3.793 5.472 5.386 6.307 1.284 0.675 7.226 0.407 8.977 0.407v-120.483c-0.009-7.425-0.727-6.764-7.181-11.308l-20.646-14.385c-10.453-6.822-23.541-12.789-34.56-16.875-10.382-3.854-17.213-5.756-27.828-7.483h-4.488l-4.937-0.755h-26.93l-5.386 0.661c-8.003 0.893-15.889 2.308-23.788 4.703-28.119 8.513-55.314 26.593-76.75 57.904-14.601 21.324-26.18 47.772-34.174 76.811-8.721 31.681-12.769 62.215-14.825 96.531l-0.821 18.145v39.193l0.408 7.258c0.61 14.443 1.602 28.596 3.362 42.822 6.436 52.032 20.862 101.967 45.153 138.562 12.442 18.747 27.029 33.263 42.639 44.027 18.739 12.934 38.986 19.902 59.246 22.152l5.386 0.66zM544.54 724.828h152.155l5.386-0.697h5.386l4.488-0.69c10.058-1.11 19.803-2.337 29.623-6.51 12.662-5.385 27.554-15.387 37.702-28.843 12.074-16.004 19.502-38.685 22.029-63.42l0.862-12.339v-18.871c-0.005-5.603-0.601-11.199-1.257-16.693-3.012-25.221-10.48-45.609-22.083-63.079-4.268-6.431-10.126-13.137-15.26-17.651l-7.949-6.866c-0.655-0.915-0.66-1.285-1.028-2.402 8.061-1.756 21.077-8.956 28.277-15.082 8.263-7.033 17.051-17.107 23.209-28.466 9.524-17.564 14.812-37.197 16.795-60.241 0.413-4.79 0.835-9.675 0.839-14.516v-21.774c-0.148-20.177-5.247-45.725-11.414-63.144-7.711-21.789-17.85-37.611-30.776-51.285-19.726-20.859-39.672-29.286-62.837-33.031l-7.63-1.328h-4.040l-5.386-0.726h-157.092v527.655zM628.921 628.268v-111.744h10.772l7.63 0.726h19.749l9.426 0.726c8.555 0.167 18.685 3.978 26.032 11.112 3.658 3.556 6.566 7.57 8.766 13.565 3.932 10.72 4.264 23.494 4.25 35.564-0.013 15.010-4.515 30.927-12.567 38.859-10.588 10.423-24.798 10.495-36.804 10.495h-25.135l-5.386 0.697h-6.732zM628.921 425.799v-132.095h11.221l7.63 0.726h39.049c10.314 0.029 23.909 5.69 32.765 14.226 3.267 3.15 5.92 6.532 8.447 11.177 4.677 8.601 7.68 24.169 7.711 35.564v13.79c-0.121 16.766-4.264 32.349-13.016 41.835-9.12 9.885-20.314 12.208-30.969 13.391l-4.488 0.661h-36.804l-6.284 0.726h-15.26z" />
<glyph unicode="&#xe902;" glyph-name="early-in-exception" d="M512 960c-282.77 0-512-229.23-512-512s229.23-512 512-512c282.77 0 512 229.23 512 512s-229.23 512-512 512zM200.254 735.745h304.392v-106.409h-196.54v-94.78h182.279v-106.409h-182.279v-135.483h196.54v-106.41h-304.392v549.491zM576.845 735.745h246.901v-97.687h-69.079v-354.116h69.079v-97.687h-246.901v97.687h69.079v354.116h-69.079v97.687z" />
<glyph unicode="&#xe903;" glyph-name="early-lunch-in-exception" d="M512 960c-282.77 0-512-229.23-512-512s229.23-512 512-512c282.77 0 512 229.23 512 512s-229.23 512-512 512zM200.262 735.738h191.447v-106.569h-123.021v-94.476h114.286v-106.57h-114.286v-135.29h123.021v-106.569h-191.447v549.476zM448.852 735.738h68.426v-442.906h122.293v-106.569h-190.719v549.476zM668.688 735.738h155.050v-97.5h-43.312v-354.476h43.312v-97.5h-155.050v97.5h43.312v354.476h-43.312v97.5z" />
<glyph unicode="&#xe904;" glyph-name="early-lunch-out-exception" d="M512 960c-282.77 0-512-229.23-512-512s229.23-512 512-512c282.77 0 512 229.23 512 512s-229.23 512-512 512zM697.903 735.764h18.455l3.691-0.508 13.841-3.638c24.385-9.527 45.621-33.257 62.387-77.028 16.034-41.854 24.477-96.865 26.76-152.487 0.84-20.484 0.769-41.128 0.667-61.721l-0.28-7.261-1.175-27.593c-3.1-50.793-11.254-99.552-25.972-137.964-16.819-43.902-38.448-68.387-63.002-77.391-4.119-1.503-12.919-3.921-16.917-3.936h-16.61l-3.076 0.661-11.688 2.774c-26.341 8.968-49.684 35.515-66.921 84.427-13.324 37.817-20.642 83.113-23.591 131.429l-1.175 27.593-0.28 8.714v39.937l0.28 7.261 1.175 27.593c2.593 42.478 8.16 80.666 18.544 116.18 13.491 46.124 33.493 77.558 56.282 92.11 6.155 3.928 12.435 6.753 18.762 8.619l6.459 1.59 3.384 0.639zM200.236 725.024h161.788v-102.384h-103.962v-90.766h96.58v-102.384h-96.58v-129.977h103.962v-102.384h-161.788v527.896zM410.314 725.024h57.825v-425.511h103.347v-102.384h-161.173v527.896zM712.027 635.638c-0.095 0.001-0.189 0.001-0.283-0.001h-8.92c-7.496-2.687-13.601-5.708-20.3-14.762-16.136-21.806-23.69-61.489-27.19-102.798-0.901-10.63-1.437-21.152-1.75-31.95l-0.28-8.713v-35.58l0.28-7.261c0.455-15.641 1.353-31.354 3.193-46.472 4.063-33.402 11.064-65.083 23.902-84.064 3.906-5.78 8.191-10.028 12.611-13.027 2.839-1.924 8.175-4.488 11.073-4.567 8.056-0.218 13.74-0.101 21.531 6.31 3.835 3.159 8.366 8.329 11.688 13.818 15.533 25.669 22.786 70.514 24.96 113.479l0.877 23.962v36.307l-0.28 7.261c-0.418 14.138-1.19 28.348-2.682 42.116-2.821 26.024-7.708 51.366-15.521 71.161-6.416 16.258-14.287 26.17-23.348 31.492-2.822 1.66-6.611 3.245-9.56 3.29z" />
<glyph unicode="&#xe905;" glyph-name="early-out-exception" d="M512 960c-282.77 0-512-229.23-512-512s229.23-512 512-512c282.77 0 512 229.23 512 512s-229.23 512-512 512zM642.64 735.781h23.345l6.579-0.48 3.163-0.508c7.908-0.932 15.69-2.678 23.471-5.184 34.353-11.099 64.897-36.823 87.54-80.8 20.435-39.663 31.632-87.451 35.428-138.386l1.266-20.646v-5.022l0.348-6.696v-34.039l-0.348-10.602-0.31-5.58c-0.506-11.227-1.265-22.393-2.531-33.481-5.694-50.996-18.6-96.223-40.869-133.922l-5.694-8.979c-22.649-33.91-51.182-53.491-81.479-61.096-7.212-1.808-14.488-3.091-21.763-3.605l-4.428-0.536h-21.763l-3.796 0.536-17.967 2.74c-32.012 7.198-61.367 26.109-85.275 61.961l-5.694 8.979c-24.737 41.8-38.339 94.192-42.514 151.22l-1.265 20.088v5.022l-0.348 6.696v34.597l0.348 10.602 0.31 5.58c0.582 12.706 1.898 25.44 3.163 37.945 4.429 36.739 11.957 68.853 25.18 99.884 20.814 48.848 51.624 80.549 86.996 94.655 8.098 3.225 18.284 6.026 26.571 7.366l7.908 1.161 4.429 0.53zM200.22 724.7h235.808v-102.116h-152.254v-90.955h141.208v-102.116h-141.208v-130.016h152.254v-102.116h-235.808v527.319zM648.232 635.92l-7.592-1.758h0.468c-8.288-2.333-16.512-6.914-23.851-13.816-7.908-7.477-15.943-19.324-21.32-31.243-11.767-25.897-18.094-63.713-19.992-95.42l-0.437-10.602-0.342-6.696v-32.923l0.342-5.58c0.633-14.865 1.898-29.575 3.796-44.083 5.061-34.318 16.006-69.070 34.796-88.896 6.643-6.997 14.045-12.009 21.763-15.1 3.796-1.54 10.629-3.627 14.488-3.7 12.4-0.234 20.182 0.201 32.076 7.081 5.694 3.365 11.135 7.644 16.196 13.409 22.143 25.088 32.645 68.797 36.124 110.642l1.265 21.204 0.335 6.696v31.807l-0.367 6.696v4.464c-0.633 14.229-1.898 28.57-4.429 42.409-3.796 25.641-11.704 52.219-23.092 71.425-10.502 17.711-24.483 28.564-39.351 32.504-2.531 0.675-6.453 1.529-8.984 1.479h-11.894z" />
<glyph unicode="&#xe906;" glyph-name="generated-scd-hours-exception" d="M512 960c-282.77 0-512-229.23-512-512s229.23-512 512-512c282.77 0 512 229.23 512 512s-229.23 512-512 512zM354.791 735.726h24.441l7.871-0.726 4.143-0.66 15.327-2.765c20.327-4.645 36.053-11.969 55.096-25.317l15.327-11.599c5.713-4.362 6.205-4.21 6.214-11.192v-118.31h-6.214c-0.907 0-2.038-0.080-2.9 0.406-1.603 0.9-8.861 10.662-10.771 13.080-9.047 11.439-18.285 22.537-28.169 31.675-10.58 9.777-24.292 18.443-36.040 22.486-11.496 3.949-17.983 3.513-29.412 3.484-13.525-0.037-31.781-8.891-43.497-20.635-6.645-6.663-13.182-14.93-18.604-24.431-14.959-26.21-22.896-62.363-25.369-98.647l-0.766-15.242v-29.033l1.127-20.323c3.024-40.654 11.616-76.793 29.528-104.309 13.177-20.25 30.154-31.058 47.225-36.074l17.813-3.331h19.47l9.114 0.726v103.794h-60.481v99.438h139.189v-255.491c0-1.561 0.095-4.144-0.422-5.436-0.708-1.778-4.892-3.956-6.206-4.725l-17.813-9.951c-23.497-11.838-48.074-21.964-72.495-24.954l-10.356-1.386h-24.441l-4.971 0.661-21.955 3.999c-31.583 8.594-61.662 31.762-84.437 71.675-7.059 12.368-13.281 26.442-18.579 41.249-6.607 18.451-11.578 38.679-15.162 59.518-3.998 23.248-6.019 46.99-6.964 71.131l-0.377 8.71v37.743l0.377 7.258 1.164 21.049c4.184 56.223 17.722 109.106 40.75 149.455 15.402 26.994 34.524 46.889 55.058 59.336 13.579 8.224 27.983 13.109 42.254 15.613l9.942 1.393 4.971 0.66zM554.047 724.839h77.879v-193.070h113.92v193.070h77.879v-527.677h-77.879v232.265h-113.92v-232.265h-77.879v527.677z" />
<glyph unicode="&#xe907;" glyph-name="generated-scd-in-exception" d="M512 960c-282.77 0-512-229.23-512-512s229.23-512 512-512c282.77 0 512 229.23 512 512s-229.23 512-512 512zM386.77 735.699h29.495l9.498-0.726 4.999-0.66 18.497-2.765c24.531-4.645 43.508-11.968 66.489-25.314l18.497-11.598c6.894-4.362 7.489-4.209 7.499-11.191v-118.298h-7.499c-1.095 0-2.46-0.080-3.5 0.406-1.935 0.9-10.693 10.661-12.998 13.078-10.918 11.438-22.066 22.535-33.994 31.672-12.768 9.776-29.315 18.441-43.493 22.484-13.873 3.948-21.701 3.513-35.494 3.484-16.322-0.037-38.354-8.89-52.491-20.633-8.019-6.662-15.907-14.929-22.451-24.429-18.052-26.207-27.63-62.357-30.615-98.638l-0.925-15.241v-29.031l1.36-20.321c3.649-40.65 14.018-76.785 35.634-104.299 15.902-20.248 36.389-31.055 56.991-36.070l21.497-3.331h23.496l10.998 0.726v103.783h-72.988v99.429h167.972v-255.466c0-1.56 0.115-4.144-0.51-5.436-0.855-1.778-5.904-3.955-7.489-4.725l-21.496-9.95c-28.355-11.837-58.015-21.961-87.486-24.951l-12.498-1.386h-29.495l-5.999 0.661-26.496 3.999c-38.114 8.593-74.413 31.759-101.898 71.668-8.519 12.367-16.027 26.439-22.421 41.245-7.974 18.449-13.973 38.675-18.297 59.512-4.824 23.246-7.264 46.986-8.404 71.124l-0.455 8.709v37.739l0.455 7.258 1.405 21.047c5.049 56.217 21.387 109.096 49.177 149.44 18.587 26.991 41.663 46.884 66.444 59.33 16.387 8.223 33.77 13.107 50.992 15.611l11.998 1.393 5.999 0.66zM610.734 724.813h212.965v-93.622h-59.49v-340.38h59.49v-93.623h-212.965v93.623h59.49v340.38h-59.49v93.622z" />
<glyph unicode="&#xe908;" glyph-name="generated-scd-out-exception" d="M512 960c-282.77 0-512-229.23-512-512s229.23-512 512-512c282.77 0 512 229.23 512 512s-229.23 512-512 512zM349.226 735.731h23.562l7.588-0.726 3.994-0.66 14.776-2.765c19.596-4.645 34.755-11.969 53.114-25.317l14.776-11.599c5.507-4.362 5.982-4.21 5.99-11.193v-118.312h-5.99c-0.875 0-1.965-0.080-2.795 0.406-1.545 0.9-8.542 10.663-10.383 13.080-8.722 11.439-17.627 22.537-27.156 31.676-10.199 9.777-23.418 18.443-34.743 22.486-11.082 3.949-17.336 3.513-28.354 3.484-13.039-0.037-30.638-8.891-41.932-20.635-6.406-6.663-12.707-14.931-17.935-24.432-14.421-26.21-22.072-62.364-24.456-98.649l-0.739-15.242v-29.034l1.086-20.324c2.915-40.654 11.198-76.794 28.466-104.311 12.703-20.251 29.068-31.059 45.526-36.074l17.172-3.332h18.769l8.786 0.726v103.795h-58.305v99.44h134.181v-255.496c0-1.561 0.092-4.145-0.407-5.437-0.683-1.778-4.716-3.956-5.982-4.725l-17.172-9.951c-22.651-11.838-46.345-21.964-69.886-24.954l-9.984-1.386h-23.562l-4.792 0.661-21.165 3.999c-30.446 8.594-59.443 31.763-81.399 71.677-6.805 12.368-12.803 26.442-17.911 41.25-6.37 18.451-11.162 38.68-14.616 59.519-3.854 23.249-5.803 46.991-6.713 71.133l-0.364 8.71v37.744l0.364 7.258 1.122 21.049c4.033 56.224 17.084 109.108 39.284 149.458 14.848 26.994 33.282 46.889 53.078 59.337 13.091 8.224 26.976 13.109 40.733 15.613l9.584 1.393 4.792 0.66zM660.32 735.578h23.961l4.792-0.508 17.971-3.636c31.66-9.523 59.231-33.243 81-76.997 20.818-41.838 31.78-96.827 34.743-152.427 1.090-20.476 0.998-41.112 0.867-61.696l-0.363-7.258-1.525-27.582c-4.025-50.773-14.612-99.513-33.721-137.91-21.836-43.884-49.919-68.36-81.799-77.36-5.347-1.503-16.773-3.92-21.964-3.934h-21.565l-3.994 0.661-15.175 2.773c-34.2 8.964-64.507 35.501-86.886 84.394-17.3 37.802-26.8 83.080-30.63 131.377l-1.525 27.582-0.363 8.71v39.921l0.363 7.258 1.525 27.582c3.366 42.462 10.595 80.633 24.077 116.134 17.515 46.106 43.485 77.527 73.073 92.073 7.991 3.927 16.146 6.75 24.361 8.616l8.386 1.59 4.393 0.638zM678.658 635.493c-0.124 0.001-0.246 0.001-0.367-0.001h-11.581c-9.732-2.686-17.659-5.705-26.357-14.756-20.95-21.797-30.758-61.464-35.302-102.757-1.17-10.626-1.865-21.144-2.272-31.937l-0.364-8.71v-35.566l0.364-7.258c0.591-15.635 1.757-31.342 4.145-46.454 5.275-33.389 14.365-65.057 31.034-84.031 5.072-5.778 10.635-10.024 16.373-13.021 3.686-1.924 10.615-4.486 14.377-4.566 10.459-0.218 17.839-0.101 27.954 6.307 4.98 3.157 10.862 8.325 15.175 13.813 20.167 25.659 29.584 70.486 32.407 113.434l1.138 23.953v36.292l-0.363 7.258c-0.543 14.132-1.546 28.337-3.482 42.099-3.662 26.014-10.008 51.346-20.151 71.132-8.33 16.252-18.55 26.159-30.314 31.48-3.664 1.659-8.583 3.244-12.412 3.289z" />
<glyph unicode="&#xe909;" glyph-name="late-in-exception" d="M512 960c-282.77 0-512-229.23-512-512s229.23-512 512-512c282.77 0 512 229.23 512 512s-229.23 512-512 512zM200.26 735.74h113.614v-443.072h203.481v-106.407h-317.095v549.48zM565.78 735.74h257.959v-97.685h-72.173v-354.109h72.173v-97.686h-257.959v97.686h72.173v354.109h-72.173v97.685z" />
<glyph unicode="&#xe90a;" glyph-name="late-lunch-in-exception" d="M512 960c-282.77 0-512-229.23-512-512s229.23-512 512-512c282.77 0 512 229.23 512 512s-229.23 512-512 512zM200.266 735.734h70.313v-442.9h125.666v-106.568h-195.979v549.468zM438.508 735.734h70.313v-442.9h125.666v-106.568h-195.979v549.468zM664.408 735.734h159.327v-97.498h-44.507v-354.471h44.507v-97.498h-159.327v97.498h44.507v354.471h-44.507v97.498z" />
<glyph unicode="&#xe90b;" glyph-name="late-lunch-out-exception" d="M512 960c-282.77 0-512-229.23-512-512s229.23-512 512-512c282.77 0 512 229.23 512 512s-229.23 512-512 512zM694.98 735.761h18.883l3.777-0.508 14.162-3.638c24.951-9.527 46.679-33.256 63.835-77.027 16.406-41.853 25.045-96.864 27.381-152.486 0.859-20.484 0.787-41.128 0.683-61.72l-0.286-7.261-1.202-27.593c-3.172-50.792-11.516-99.551-26.575-137.963-17.209-43.901-39.34-68.386-64.464-77.39-4.214-1.503-13.218-3.921-17.31-3.936h-16.995l-3.147 0.661-11.959 2.774c-26.953 8.968-50.837 35.515-68.474 84.426-13.634 37.816-21.121 83.112-24.139 131.428l-1.202 27.593-0.287 8.713v39.937l0.287 7.261 1.202 27.593c2.653 42.478 8.349 80.665 18.974 116.179 13.804 46.123 34.27 77.557 57.588 92.109 6.298 3.928 12.724 6.753 19.198 8.619l6.609 1.59 3.462 0.639zM200.239 725.022h59.167v-425.507h105.746v-102.383h-164.913v527.891zM400.716 725.022h59.167v-425.507h105.746v-102.383h-164.913v527.891zM709.431 635.637c-0.097 0.001-0.194 0.001-0.289-0.001h-9.127c-7.67-2.687-13.917-5.707-20.771-14.762-16.51-21.805-24.24-61.488-27.821-102.797-0.922-10.63-1.47-21.152-1.791-31.949l-0.286-8.713v-35.58l0.286-7.261c0.466-15.641 1.385-31.354 3.267-46.472 4.157-33.402 11.321-65.082 24.457-84.063 3.997-5.78 8.381-10.028 12.904-13.027 2.905-1.924 8.365-4.488 11.33-4.567 8.243-0.218 14.059-0.101 22.031 6.31 3.924 3.159 8.56 8.329 11.959 13.818 15.893 25.668 23.314 70.514 25.54 113.478l0.897 23.962v36.306l-0.286 7.261c-0.428 14.138-1.218 28.348-2.745 42.115-2.886 26.024-7.887 51.366-15.881 71.16-6.565 16.258-14.619 26.17-23.891 31.492-2.887 1.66-6.764 3.245-9.782 3.29z" />
<glyph unicode="&#xe90c;" glyph-name="late-out-exception" d="M512 960c-282.77 0-512-229.23-512-512s229.23-512 512-512c282.77 0 512 229.23 512 512s-229.23 512-512 512zM636.032 735.777h24.271l6.782-0.48 3.569-0.508c8.149-0.932 16.254-2.678 24.271-5.184 35.496-11.099 67.095-36.823 90.506-80.799 21.112-39.663 32.723-87.45 36.614-138.385l1.374-20.646v-5.022l0.357-6.696v-34.038l-0.357-10.602-0.325-5.58c-0.525-11.227-1.456-22.393-2.738-33.48-5.882-50.996-19.213-96.222-42.282-133.92l-6.053-8.978c-23.4-33.91-52.904-53.49-84.235-61.096-7.449-1.808-14.966-3.091-22.486-3.605l-4.64-0.536h-22.486l-3.926 0.536-18.56 2.74c-33.087 7.198-63.422 26.109-88.161 61.961l-6.054 8.978c-25.574 41.8-39.612 94.191-43.97 151.218l-1.374 20.088v5.022l-0.357 6.696v34.596l0.357 10.602 0.325 5.58c0.596 12.706 1.645 25.439 3.244 37.944 4.701 36.739 12.386 68.852 26.063 99.882 21.537 48.848 53.393 80.548 89.939 94.654 8.363 3.225 18.91 6.026 27.484 7.366l8.209 1.161 4.64 0.53zM200.223 724.695h87.091v-425.197h155.978v-102.114h-243.068v527.312zM642.457 635.917l-7.852-1.758c-8.595-2.332-17.086-6.914-24.628-13.816-8.174-7.477-16.483-19.324-22.076-31.243-12.146-25.897-18.731-63.713-20.695-95.418l-0.45-10.602-0.353-6.696v-32.922l0.353-5.58c0.65-14.865 1.685-29.574 4.005-44.082 5.486-34.317 16.533-69.069 36.003-88.895 6.874-6.997 14.534-12.008 22.486-15.099 3.948-1.54 11.007-3.627 14.991-3.7 12.828-0.234 20.838 0.201 33.194 7.081 6.039 3.365 11.522 7.645 16.776 13.409 22.861 25.088 33.769 68.796 37.378 110.641l1.203 21.204 0.346 6.696v31.806l-0.378 6.696v4.464c-0.653 14.229-2.106 28.57-4.33 42.408-4.119 25.64-12.128 52.218-23.882 71.424-10.836 17.711-25.296 28.564-40.676 32.503-2.656 0.675-6.639 1.529-9.28 1.479h-12.136z" />
<glyph unicode="&#xe90d;" glyph-name="long-break-exception" d="M512 960c-282.77 0-512-229.23-512-512s229.23-512 512-512c282.77 0 512 229.23 512 512s-229.23 512-512 512zM200.306 735.694h93.087v-442.836h166.369v-106.552h-259.456v549.388zM515.713 735.694h167.854l5.942-0.726h5.942l4.952-0.718c11.096-1.156 21.846-2.433 32.679-6.778 13.968-5.607 30.397-16.021 41.592-30.031 13.319-16.663 21.514-40.278 24.302-66.032l0.951-12.847v-19.648c0-5.834-0.664-11.66-1.386-17.381-3.322-26.261-11.561-47.488-24.361-65.677-4.709-6.695-11.17-13.678-16.835-18.378l-8.769-7.149c-0.723-0.952-0.728-1.337-1.134-2.501 8.893-1.829 23.252-9.325 31.194-15.703 9.116-7.323 18.811-17.812 25.604-29.639 10.507-18.288 16.34-38.729 18.528-62.722 0.455-4.987 0.921-10.073 0.926-15.114v-22.671c-0.163-21.008-5.788-47.609-12.591-65.745-8.507-22.686-19.692-39.16-33.952-53.397-21.762-21.719-43.766-30.492-69.321-34.392l-8.417-1.383h-4.456l-5.942-0.756h-173.301v549.388zM608.801 635.157v-116.346h11.883l8.418 0.756h21.786l10.398 0.756c9.438 0.173 20.613 4.141 28.719 11.57 4.035 3.703 7.244 7.882 9.67 14.124 4.337 11.162 4.704 24.462 4.689 37.029-0.016 15.628-4.981 32.2-13.864 40.46-11.68 10.852-27.357 10.928-40.602 10.928h-27.728l-5.941 0.725h-7.427zM608.801 424.349v-137.536h12.379l8.417 0.756h43.078c11.378 0.030 26.376 5.925 36.146 14.811 3.605 3.28 6.531 6.801 9.319 11.638 5.159 8.955 8.472 25.165 8.507 37.029v14.358c-0.133 17.456-4.704 33.681-14.359 43.558-10.061 10.293-22.41 12.711-34.165 13.943l-4.951 0.688h-40.602l-6.932 0.756h-16.835z" />
<glyph unicode="&#xe90e;" glyph-name="long-day-exception" d="M512 960c-282.77 0-512-229.23-512-512s229.23-512 512-512c282.77 0 512 229.23 512 512s-229.23 512-512 512zM200.298 735.702h88.519v-442.848h158.205v-106.555h-246.724v549.403zM500.229 735.702h141.255l8.946-0.756 4.708-0.688 22.13-3.643c21.8-5.041 43.454-14.358 63.094-30.629 10.232-8.472 22.026-22.142 30.605-34.445 27.267-39.078 44.151-90.618 50.178-148.241 0.998-9.567 2.547-29.949 2.557-39.297v-34.763l-0.428-7.557c-0.97-22.301-3.527-44.466-7.892-65.747-11.352-55.326-35.064-106.215-65.603-137.774-26.815-27.712-58.414-40.129-89.932-43.665l-13.184-1.443-7.533-0.756h-138.901v549.403zM588.748 632.925v-343.094h19.305l8.004 0.756c27.738 0.069 51.28 1.088 75.336 26.835 4.6 4.927 11.324 13.52 14.987 20.019 14.285 25.332 20.788 52.696 23.684 86.151l1.351 22.671v30.984l-1.351 21.16c-3.527 40.718-13.702 75.685-34.433 101.084-12.374 15.167-27.535 25.203-42.847 29.329l-13.654 2.592h-4.238l-5.65 0.756h-14.596l-7.063 0.756h-18.834z" />
<glyph unicode="&#xe90f;" glyph-name="long-lunch-exception" d="M512 960c-282.77 0-512-229.23-512-512s229.23-512 512-512c282.77 0 512 229.23 512 512s-229.23 512-512 512zM200.319 735.682h100.941v-442.816h180.405v-106.548h-281.346v549.363zM542.336 735.682h100.941v-442.816h180.405v-106.548h-281.346v549.363z" />
<glyph unicode="&#xe910;" glyph-name="minor-exception" d="M512 960c-282.77 0-512-229.23-512-512s229.23-512 512-512c282.77 0 512 229.23 512 512s-229.23 512-512 512zM678.559 735.733c25.844-0.033 51.555-1.535 74.389-29.802 10.271-12.72 19.351-29.732 25.211-51.075 4.544-16.551 7.663-40.041 7.678-58.95v-25.696l-0.348-7.558c-0.847-21.177-3.761-43.994-8.842-62.729-5.648-20.829-14.309-38.612-23.699-52.806-4.219-6.379-9.008-12.463-13.609-17.693-2.268-2.577-5.073-5.925-7.561-7.346l21.328-54.415 59.729-153.422 10.426-27.964h-83.923c-0.953 0-2.136-0.15-2.99 0.771-1.331 1.436-5.508 13.437-6.699 16.612l-20.504 55.172-44.335 119.412c-2.4 6.575-2.631 9.81-6.748 9.825h-28.352v-201.791h-71.070v549.446h111.897c2.673 0 5.348 0.012 8.022 0.009zM200.267 735.724h79.764l2.76-0.748 3.554-14.367 11.129-49.881 40.661-182.141 6.162-27.207 5.345 24.94 10.797 48.369 30.62 137.551 10.751 48.369 3.587 14.367 2.786 0.748h80.142v-549.446h-71.070v352.189l-0.378 13.604-3.932-19.65-9.141-43.079-25.381-119.412-8.642-40.811-3.070-12.856-2.76-0.748h-43.473l-2.76 0.748-3.070 12.856-8.971 42.323-26.84 126.214-11.662 54.416v-365.793h-66.911v549.446zM629.71 634.451v-146.619h18.901l5.67 0.756h8.695l4.536 0.688c9.311 1.277 19.023 2.66 27.218 12.621 4.744 5.774 9.727 14.828 12.524 24.479 4.763 16.453 4.529 29.468 4.487 47.614-0.031 12.674-2.813 28.56-7.247 37.72-1.508 3.121-4.464 7.293-6.362 9.553-11.685 13.891-27.335 12.13-40.449 12.433l-5.67 0.756h-22.304z" />
<glyph unicode="&#xe911;" glyph-name="missing-in-exception" d="M512 960c-282.77 0-512-229.23-512-512s229.23-512 512-512c282.77 0 512 229.23 512 512s-229.23 512-512 512zM200.296 735.704h98.090l3.394-0.748 4.37-14.366 13.686-49.877 50.003-182.128 7.578-27.206 6.574 24.939 13.277 48.366 37.656 137.541 13.221 48.366 4.412 14.366 3.426 0.748h98.555v-549.407h-87.398v352.165l-0.465 13.603-4.835-19.649-11.241-43.076-31.212-119.404-10.627-40.809-3.775-12.855-3.394-0.748h-53.462l-3.394 0.748-3.775 12.855-11.032 42.32-33.007 126.205-14.342 54.411v-365.768h-82.284v549.407zM625.664 735.704h198.040v-97.488h-55.321v-354.432h55.321v-97.488h-198.040v97.488h55.321v354.432h-55.321v97.488z" />
<glyph unicode="&#xe912;" glyph-name="missing-out-exception" d="M512 960c-282.77 0-512-229.23-512-512s229.23-512 512-512c282.77 0 512 229.23 512 512s-229.23 512-512 512zM669.604 735.738h22.601l4.52-0.508 16.95-3.638c29.863-9.526 55.869-33.254 76.402-77.021 19.636-41.85 29.976-96.857 32.771-152.473 1.028-20.482 0.942-41.124 0.818-61.715l-0.343-7.261-1.439-27.591c-3.797-50.788-13.783-99.543-31.807-137.952-20.597-43.898-47.085-68.381-77.155-77.384-5.044-1.503-15.821-3.921-20.718-3.935h-20.341l-3.767 0.661-14.314 2.773c-32.259 8.967-60.845 35.512-81.954 84.419-16.318 37.813-25.279 83.105-28.891 131.417l-1.439 27.591-0.343 8.713v39.934l0.343 7.261 1.439 27.59c3.175 42.475 9.993 80.658 22.71 116.17 16.521 46.119 41.016 77.551 68.925 92.101 7.537 3.928 15.229 6.752 22.977 8.619l7.91 1.59 4.143 0.639zM200.261 725h79.479l2.75-0.719 3.541-13.803 11.089-47.92 40.516-174.981 6.14-26.138 5.326 23.96 10.758 46.468 30.511 132.143 10.713 46.468 3.575 13.803 2.776 0.719h79.856v-527.847h-70.816v338.345l-0.377 13.069-3.917-18.878-9.108-41.386-25.29-114.718-8.611-39.207-3.059-12.35-2.75-0.719h-43.318l-2.75 0.719-3.058 12.35-8.939 40.659-26.744 121.253-11.62 52.277v-351.414h-66.672v527.847zM686.901 635.622c-0.117 0.001-0.232 0.001-0.346-0.001h-10.924c-9.18-2.686-16.657-5.707-24.861-14.761-19.761-21.804-29.012-61.483-33.298-102.789-1.104-10.629-1.759-21.15-2.143-31.947l-0.343-8.713v-35.577l0.343-7.261c0.558-15.639 1.658-31.351 3.91-46.468 4.976-33.399 13.549-65.077 29.272-84.056 4.784-5.779 10.031-10.027 15.444-13.026 3.477-1.924 10.012-4.487 13.561-4.567 9.865-0.218 16.826-0.101 26.367 6.309 4.697 3.158 10.246 8.328 14.314 13.817 19.022 25.666 27.904 70.508 30.568 113.469l1.074 23.96v36.303l-0.343 7.261c-0.512 14.136-1.458 28.345-3.285 42.112-3.454 26.022-9.44 51.362-19.007 71.154-7.858 16.257-17.497 26.167-28.594 31.489-3.456 1.66-8.096 3.245-11.708 3.29z" />
<glyph unicode="&#xe913;" glyph-name="short-break-exception" d="M512 960c-282.77 0-512-229.23-512-512s229.23-512 512-512c282.77 0 512 229.23 512 512s-229.23 512-512 512zM337.518 735.712h25.9l5.453-0.73h4.090l12.723-2.072c20.134-3.458 40.063-9.894 59.525-18.876l17.721-9.274c6.225-3.772 6.353-3.313 6.362-9.909v-116.744h-6.362c-0.991 0-2.245-0.081-3.181 0.409-1.481 0.766-6.898 7.559-8.633 9.493-6.057 6.749-12.5 12.36-19.084 17.643-19.461 15.629-40.113 26.493-61.797 30.215l-9.997 1.343h-16.358c-4.085-0.081-14.572-2.255-18.63-3.736-11.219-4.093-22.642-10.529-30.076-25.45-3.072-6.166-4.889-12.462-4.912-20.43v-4.378c0.127-17.205 7.52-28.486 16.812-34.914 15.445-10.682 31.903-14.382 48.165-20.284l27.717-9.653c17.353-6.618 38.491-17.504 54.072-31.244 13.391-11.798 25.641-27.216 33.711-48.376 3.54-9.289 5.884-18.124 7.938-28.456 1.808-9.106 3.717-26.246 3.789-35.753 0.173-24.224 0.1-39.992-4.775-63.479-3.058-14.717-7.475-27.705-13.232-40.131-22.887-49.383-61.388-73.461-98.316-81.195l-18.63-2.78-5.453-0.664h-29.535l-6.816 0.729-11.814 1.335c-24.301 3.78-44.962 10.813-68.158 23.232l-18.63 10.602c-1.431 0.905-5.943 3.233-6.557 5.261-0.323 1.080-0.259 3.568-0.259 4.808v121.851h6.362c0.972 0 2.254 0.066 3.181-0.372 1.886-0.89 7.093-7.8 9.088-10.047 6.298-7.1 14.081-15.118 20.902-20.766 18.703-15.498 37.051-26.245 57.707-32.878 6.87-2.211 19.066-5.239 25.9-5.253h14.54l10.451 1.335c10.892 1.751 21.797 4.553 31.353 13.695 5.439 5.21 10.542 11.799 12.973 21.452 1.74 6.932 1.618 11.725 1.568 18.971-0.114 15.213-7.725 27.398-15.449 34.498-8.22 7.559-16.344 10.777-25.446 14.133l-27.717 9.449c-26.268 8.435-51.609 17.278-75.428 38.008-11.737 10.215-22.824 23.108-30.944 40.357-6.507 13.827-9.787 25.326-13.132 41.59-1.854 9.026-4.021 27.792-4.089 37.212-0.159 22.276-0.245 37.446 4.249 59.102 10.678 51.425 41.449 86.31 72.088 103.836 9.301 5.319 18.934 8.982 28.626 11.893 8.297 2.495 16.59 3.802 24.991 4.728l5.453 0.664zM541.084 726.227h154.037l5.453-0.7h5.453l4.544-0.693c10.183-1.116 20.047-2.35 29.989-6.545 12.818-5.414 27.895-15.469 38.169-28.996 12.223-16.089 19.743-38.89 22.301-63.757l0.872-12.404v-18.971c-0.005-5.633-0.609-11.258-1.272-16.782-3.049-25.355-10.61-45.851-22.356-63.413-4.321-6.465-10.251-13.207-15.449-17.745l-8.047-6.902c-0.663-0.919-0.668-1.292-1.041-2.415 8.161-1.766 21.338-9.004 28.626-15.162 8.365-7.070 17.262-17.198 23.497-28.617 9.642-17.657 14.995-37.394 17.003-60.561 0.418-4.816 0.845-9.726 0.85-14.593v-21.889c-0.15-20.284-5.312-45.968-11.555-63.479-7.806-21.904-18.071-37.81-31.157-51.557-19.97-20.97-40.163-29.441-63.614-33.206l-7.725-1.335h-4.090l-5.453-0.73h-159.035v530.453zM626.508 629.155v-112.337h10.905l7.725 0.73h19.993l9.542 0.73c8.661 0.167 18.916 3.998 26.354 11.171 3.703 3.575 6.648 7.61 8.874 13.637 3.98 10.777 4.317 23.619 4.303 35.753-0.013 15.089-4.571 31.090-12.723 39.065-10.719 10.478-25.105 10.551-37.26 10.551h-25.445l-5.453 0.7h-6.816zM626.508 425.612v-132.796h11.36l7.725 0.73h39.532c10.442 0.029 24.205 5.72 33.17 14.301 3.308 3.167 5.993 6.567 8.551 11.237 4.735 8.646 7.775 24.297 7.806 35.753v13.863c-0.123 16.855-4.317 32.52-13.177 42.057-9.233 9.938-20.565 12.273-31.353 13.462l-4.544 0.664h-37.26l-6.361 0.73h-15.449z" />
<glyph unicode="&#xe914;" glyph-name="short-day-exception" d="M512 960c-282.77 0-512-229.23-512-512s229.23-512 512-512c282.77 0 512 229.23 512 512s-229.23 512-512 512zM331.307 735.719h24.729l5.206-0.73h3.904l12.148-2.072c19.224-3.458 38.252-9.894 56.833-18.876l16.92-9.274c5.944-3.772 6.065-3.313 6.074-9.909v-116.746h-6.074c-0.946 0-2.143-0.081-3.037 0.409-1.414 0.766-6.586 7.559-8.243 9.493-5.783 6.749-11.935 12.361-18.221 17.643-18.581 15.629-38.3 26.494-59.003 30.215l-9.545 1.343h-15.618c-3.9-0.081-13.913-2.255-17.788-3.736-10.712-4.093-21.618-10.529-28.716-25.451-2.933-6.166-4.668-12.463-4.69-20.431v-4.378c0.122-17.206 7.18-28.486 16.052-34.914 14.746-10.682 30.46-14.382 45.987-20.285l26.465-9.653c16.568-6.618 36.751-17.505 51.627-31.244 12.785-11.799 24.482-27.216 32.187-48.377 3.38-9.289 5.618-18.125 7.579-28.457 1.727-9.106 3.549-26.246 3.618-35.754 0.165-24.225 0.095-39.993-4.56-63.481-2.92-14.718-7.137-27.705-12.634-40.132-21.853-49.384-58.612-73.463-93.87-81.197l-17.788-2.78-5.206-0.664h-28.2l-6.508 0.73-11.28 1.335c-23.202 3.78-42.929 10.814-65.076 23.233l-17.788 10.602c-1.367 0.905-5.675 3.232-6.26 5.261-0.308 1.080-0.247 3.568-0.247 4.808v121.854h6.074c0.928 0 2.152 0.066 3.037-0.372 1.8-0.89 6.772-7.8 8.677-10.047 6.013-7.1 13.445-15.119 19.957-20.766 17.857-15.498 35.376-26.246 55.098-32.879 6.56-2.211 18.204-5.239 24.729-5.253h13.883l9.978 1.335c10.399 1.751 20.811 4.553 29.935 13.696 5.193 5.21 10.065 11.799 12.386 21.452 1.662 6.932 1.545 11.726 1.497 18.971-0.108 15.214-7.375 27.399-14.751 34.499-7.848 7.559-15.605 10.777-24.295 14.134l-26.465 9.449c-25.080 8.435-49.276 17.279-72.018 38.008-11.206 10.215-21.792 23.108-29.545 40.358-6.213 13.827-9.345 25.327-12.538 41.591-1.77 9.026-3.84 27.793-3.905 37.213-0.152 22.277-0.234 37.446 4.057 59.103 10.195 51.427 39.575 86.312 68.829 103.838 8.881 5.319 18.078 8.982 27.332 11.894 7.922 2.495 15.84 3.802 23.862 4.728l5.206 0.664zM525.669 726.233h130.153l8.243-0.73 4.338-0.664 20.39-3.517c20.087-4.867 40.039-13.864 58.135-29.573 9.427-8.18 20.295-21.379 28.2-33.258 25.124-37.731 40.681-87.494 46.234-143.131 0.92-9.238 2.347-28.917 2.356-37.942v-33.565l-0.395-7.297c-0.894-21.532-3.249-42.934-7.271-63.481-10.46-53.419-32.308-102.554-60.447-133.025-24.707-26.757-53.822-38.745-82.864-42.16l-12.148-1.394-6.941-0.729h-127.984v530.466zM607.231 626.999v-331.268h17.788l7.375 0.73c25.558 0.066 47.25 1.051 69.415 25.91 4.239 4.757 10.434 13.054 13.809 19.329 13.163 24.458 19.154 50.88 21.822 83.182l1.245 21.89v29.917l-1.245 20.431c-3.249 39.314-12.625 73.076-31.727 97.6-11.401 14.644-25.371 24.334-39.48 28.318l-12.581 2.503h-3.905l-5.206 0.73h-13.449l-6.508 0.73h-17.354z" />
<glyph unicode="&#xe915;" glyph-name="short-lunch-exception" d="M512 960c-282.77 0-512-229.23-512-512s229.23-512 512-512c282.77 0 512 229.23 512 512s-229.23 512-512 512zM348.080 735.701h27.891l5.872-0.73h4.404l13.701-2.072c21.682-3.458 43.144-9.893 64.101-18.875l19.084-9.273c6.704-3.772 6.841-3.312 6.85-9.908v-116.739h-6.85c-1.067 0-2.417-0.081-3.425 0.409-1.595 0.766-7.428 7.559-9.297 9.492-6.523 6.749-13.461 12.36-20.551 17.642-20.958 15.628-43.197 26.492-66.548 30.213l-10.765 1.343h-17.615c-4.399-0.081-15.693-2.255-20.062-3.736-12.081-4.093-24.383-10.528-32.388-25.449-3.308-6.165-5.265-12.462-5.29-20.429v-4.378c0.137-17.204 8.098-28.485 18.105-34.912 16.632-10.682 34.355-14.381 51.868-20.283l29.849-9.653c18.687-6.618 41.45-17.504 58.229-31.242 14.42-11.798 27.613-27.215 36.303-48.374 3.812-9.288 6.337-18.124 8.548-28.455 1.948-9.106 4.003-26.244 4.081-35.751 0.186-24.223 0.108-39.99-5.143-63.477-3.293-14.717-8.049-27.704-14.249-40.129-24.647-49.381-66.107-73.458-105.875-81.192l-20.062-2.78-5.872-0.664h-31.806l-7.34 0.729-12.722 1.335c-26.169 3.779-48.418 10.813-73.398 23.231l-20.062 10.601c-1.541 0.905-6.4 3.232-7.061 5.26-0.347 1.080-0.279 3.568-0.279 4.808v121.846h6.85c1.047 0 2.427 0.066 3.425-0.372 2.031-0.89 7.638-7.8 9.786-10.047 6.782-7.099 15.164-15.118 22.509-20.765 20.141-15.497 39.899-26.244 62.144-32.877 7.399-2.211 20.532-5.239 27.891-5.253h15.658l11.254 1.335c11.729 1.751 23.473 4.553 33.763 13.695 5.857 5.209 11.352 11.798 13.97 21.451 1.874 6.931 1.742 11.725 1.688 18.97-0.122 15.213-8.318 27.397-16.637 34.496-8.852 7.559-17.601 10.776-27.402 14.133l-29.849 9.449c-28.288 8.434-55.577 17.277-81.228 38.006-12.639 10.215-24.579 23.107-33.323 40.355-7.007 13.826-10.54 25.325-14.141 41.588-1.996 9.025-4.331 27.791-4.404 37.21-0.171 22.275-0.264 37.444 4.575 59.099 11.499 51.423 44.636 86.307 77.631 103.832 10.016 5.319 20.39 8.982 30.827 11.893 8.935 2.495 17.865 3.802 26.913 4.728l5.872 0.664zM567.296 726.216h91.993v-427.557h164.412v-102.876h-256.405v530.432z" />
<glyph unicode="&#xe916;" glyph-name="split-in-exception" d="M512 960c-282.77 0-512-229.23-512-512s229.23-512 512-512c282.77 0 512 229.23 512 512s-229.23 512-512 512zM365.025 735.685h31.086l6.545-0.73h4.908l15.27-2.072c24.166-3.458 48.086-9.893 71.444-18.874l21.27-9.273c7.472-3.772 7.624-3.312 7.635-9.908v-116.732h-7.635c-1.189 0-2.694-0.081-3.818 0.409-1.778 0.766-8.279 7.558-10.362 9.492-7.27 6.749-15.003 12.359-22.906 17.641-23.358 15.627-48.146 26.491-74.171 30.212l-11.998 1.343h-19.633c-4.903-0.081-17.49-2.254-22.36-3.735-13.465-4.093-27.176-10.528-36.099-25.448-3.687-6.165-5.868-12.461-5.895-20.428v-4.378c0.153-17.203 9.026-28.483 20.179-34.91 18.537-10.681 38.291-14.38 57.81-20.282l33.268-9.652c20.828-6.617 46.198-17.502 64.899-31.24 16.072-11.797 30.776-27.213 40.461-48.371 4.248-9.288 7.063-18.123 9.528-28.453 2.171-9.105 4.461-26.243 4.549-35.749 0.207-24.222 0.121-39.988-5.732-63.473-3.67-14.716-8.971-27.702-15.881-40.127-27.471-49.378-73.68-73.454-118.003-81.187l-22.36-2.78-6.545-0.664h-35.449l-8.181 0.729-14.18 1.335c-29.167 3.779-53.965 10.812-81.806 23.23l-22.36 10.601c-1.718 0.905-7.134 3.232-7.87 5.26-0.387 1.080-0.311 3.568-0.311 4.808v121.839h7.635c1.167 0 2.705 0.066 3.818-0.372 2.263-0.89 8.513-7.799 10.907-10.046 7.559-7.099 16.901-15.117 25.087-20.764 22.448-15.496 44.47-26.243 69.262-32.874 8.246-2.211 22.884-5.238 31.086-5.253h17.452l12.543 1.335c13.073 1.751 26.162 4.553 37.631 13.694 6.528 5.209 12.653 11.797 15.571 21.449 2.089 6.931 1.942 11.724 1.882 18.969-0.136 15.212-9.271 27.396-18.543 34.495-9.866 7.558-19.617 10.776-30.541 14.132l-33.268 9.448c-31.528 8.434-61.944 17.276-90.532 38.004-14.087 10.214-27.394 23.105-37.14 40.353-7.81 13.825-11.747 25.324-15.761 41.586-2.225 9.025-4.827 27.789-4.908 37.208-0.191 22.274-0.294 37.442 5.099 59.096 12.816 51.42 49.749 86.301 86.523 103.826 11.164 5.319 22.726 8.981 34.359 11.892 9.959 2.495 19.912 3.801 29.996 4.728l6.545 0.664zM591.355 726.2h232.329v-94.115h-64.899v-342.17h64.899v-94.115h-232.329v94.115h64.899v342.17h-64.899v94.115z" />
<glyph unicode="&#xe917;" glyph-name="split-out-exception" d="M512 960c-282.77 0-512-229.23-512-512s229.23-512 512-512c282.77 0 512 229.23 512 512s-229.23 512-512 512zM648.654 735.721h25.67l5.134-0.508 19.253-3.637c33.919-9.526 63.456-33.252 86.778-77.016 22.303-41.848 34.047-96.851 37.222-152.464 1.168-20.481 1.070-41.122 0.928-61.711l-0.389-7.26-1.634-27.589c-4.313-50.785-15.654-99.537-36.126-137.943-23.394-43.895-53.479-68.376-87.633-77.379-5.729-1.503-17.969-3.921-23.531-3.935h-23.103l-4.278 0.661-16.258 2.773c-36.64 8.966-69.108 35.509-93.084 84.414-18.534 37.811-28.712 83.1-32.815 131.409l-1.635 27.589-0.389 8.712v39.931l0.389 7.26 1.635 27.589c3.607 42.472 11.35 80.653 25.794 116.163 18.765 46.117 46.587 77.546 78.285 92.095 8.561 3.928 17.297 6.752 26.098 8.618l8.985 1.59 4.706 0.639zM329.49 734.422h24.387l5.134-0.726h3.85l11.979-2.062c18.957-3.441 37.722-9.845 56.046-18.782l16.686-9.228c5.861-3.753 5.981-3.296 5.99-9.859v-116.163h-5.99c-0.933 0-2.114-0.080-2.995 0.406-1.395 0.762-6.495 7.522-8.129 9.445-5.703 6.716-11.77 12.299-17.969 17.555-18.324 15.551-37.769 26.362-58.186 30.064l-9.412 1.336h-15.402c-3.846-0.080-13.721-2.243-17.541-3.717-10.563-4.073-21.319-10.476-28.318-25.324-2.892-6.135-4.603-12.4-4.625-20.328v-4.356c0.12-17.12 7.081-28.344 15.83-34.74 14.542-10.629 30.038-14.31 45.35-20.183l26.098-9.605c16.339-6.585 36.242-17.417 50.912-31.088 12.608-11.74 24.143-27.080 31.741-48.135 3.333-9.242 5.541-18.034 7.474-28.315 1.703-9.061 3.5-26.115 3.568-35.575 0.163-24.104 0.094-39.793-4.497-63.163-2.879-14.644-7.038-27.567-12.458-39.931-21.55-49.137-57.8-73.095-92.571-80.791l-17.541-2.766-5.134-0.661h-27.809l-6.417 0.726-11.124 1.329c-22.881 3.761-42.334 10.76-64.175 23.117l-17.541 10.549c-1.348 0.9-5.596 3.216-6.174 5.235-0.304 1.075-0.244 3.55-0.244 4.784v121.245h5.99c0.916 0 2.122 0.066 2.995-0.37 1.776-0.886 6.678-7.761 8.557-9.997 5.93-7.064 13.259-15.043 19.68-20.663 17.61-15.42 34.886-26.115 54.335-32.714 6.469-2.2 17.952-5.213 24.387-5.227h13.691l9.84 1.329c10.255 1.743 20.523 4.53 29.521 13.627 5.121 5.184 9.926 11.74 12.215 21.345 1.639 6.897 1.523 11.667 1.476 18.876-0.107 15.137-7.273 27.262-14.546 34.326-7.74 7.522-15.389 10.723-23.959 14.063l-26.098 9.402c-24.733 8.393-48.593 17.192-71.020 37.818-11.051 10.164-21.49 22.993-29.136 40.156-6.127 13.758-9.215 25.2-12.364 41.383-1.746 8.981-3.786 27.654-3.85 37.027-0.15 22.165-0.231 37.259 4 58.807 10.054 51.17 39.027 85.881 67.876 103.32 8.758 5.293 17.828 8.937 26.953 11.834 7.812 2.483 15.62 3.783 23.531 4.705l5.134 0.661zM668.3 635.612c-0.132 0.001-0.263 0.001-0.393-0.001h-12.407c-10.426-2.686-18.919-5.707-28.237-14.76-22.444-21.802-32.952-61.479-37.82-102.782-1.254-10.629-1.998-21.149-2.434-31.945l-0.389-8.712v-35.575l0.389-7.26c0.633-15.638 1.883-31.349 4.441-46.465 5.652-33.397 15.389-65.073 33.247-84.051 5.433-5.779 11.393-10.027 17.541-13.025 3.949-1.924 11.372-4.487 15.402-4.567 11.205-0.218 19.111-0.101 29.948 6.309 5.335 3.158 11.637 8.327 16.258 13.816 21.606 25.665 31.694 70.504 34.719 113.462l1.219 23.958v36.301l-0.389 7.26c-0.582 14.136-1.656 28.344-3.731 42.109-3.923 26.020-10.722 51.358-21.589 71.15-8.925 16.256-19.873 26.166-32.477 31.487-3.925 1.66-9.195 3.245-13.298 3.289z" />
<glyph unicode="&#xe918;" glyph-name="transfer-exception" d="M512 960c-282.77 0-512-229.23-512-512s229.23-512 512-512c282.77 0 512 229.23 512 512s-229.23 512-512 512zM659.659 735.716c29.289-0.033 58.429-1.535 84.307-29.799 11.641-12.719 21.932-29.73 28.572-51.072 5.15-16.55 8.684-40.038 8.701-58.947v-25.695l-0.394-7.557c-0.96-21.175-4.263-43.991-10.021-62.725-6.401-20.828-16.216-38.61-26.859-52.802-4.781-6.378-10.21-12.462-15.424-17.692-2.571-2.577-5.75-5.925-8.569-7.346l24.172-54.412 67.693-153.412 11.816-27.962h-95.112c-1.080 0-2.421-0.15-3.389 0.771-1.508 1.436-6.242 13.436-7.592 16.611l-23.238 55.168-50.247 119.404c-2.721 6.575-2.982 9.809-7.648 9.824h-32.132v-201.778h-80.545v549.411h126.816c3.030 0 6.061 0.012 9.091 0.009zM200.284 735.707h275.054v-106.557h-97.254v-442.854h-80.545v442.854h-97.255v106.557zM604.297 634.44v-146.61h21.422l6.426 0.756h9.854l5.141 0.688c10.552 1.277 21.559 2.66 30.847 12.62 5.377 5.774 11.024 14.827 14.194 24.478 5.398 16.452 5.133 29.466 5.085 47.611-0.034 12.673-3.187 28.559-8.213 37.718-1.709 3.121-5.060 7.293-7.211 9.552-13.243 13.89-30.98 12.129-45.842 12.432l-6.426 0.756h-25.278z" />
<glyph unicode="&#xe919;" glyph-name="unscheduled-breaks-exception" d="M512 960c-282.77 0-512-229.23-512-512s229.23-512 512-512c282.77 0 512 229.23 512 512s-229.23 512-512 512zM200.283 735.717h81.167v-329.513l0.432-11.107v-7.405c0.022-23.266 4.948-54.551 14.286-71.826 9.261-17.135 24.501-25.88 37.954-25.917h12.089c12.508 0.252 27.195 8.775 36.227 23.821 11.847 19.726 15.124 53.462 15.15 80.586l0.431 12.588v328.772h81.167v-359.132l-1.61-27.398c-2.893-34.388-11.268-70.619-25.196-96.262-4.568-8.412-9.619-16.668-15.072-23.377-19.182-23.621-42.371-35.654-65.625-40.415l-14.679-2.177-5.181-0.674h-25.473l-4.317 0.674-14.247 2.177c-28.020 5.739-56.917 22.222-77.277 57.135-12.982 22.273-21.945 51.715-26.284 82.186-1.913 13.432-3.929 34.44-3.942 48.131v359.132zM555.174 735.717h146.36l5.181-0.711h5.181l4.317-0.704c9.675-1.133 19.048-2.384 28.495-6.642 12.179-5.494 26.505-15.698 36.266-29.427 11.614-16.327 18.759-39.467 21.19-64.703l0.829-12.588v-19.252c-0.005-5.716-0.578-11.426-1.209-17.031-2.897-25.732-10.081-46.532-21.242-64.355-4.106-6.561-9.74-13.403-14.679-18.008l-7.646-7.005c-0.63-0.933-0.635-1.311-0.989-2.451 7.754-1.792 20.275-9.138 27.2-15.387 7.948-7.175 16.402-17.453 22.325-29.042 9.162-17.92 14.248-37.949 16.156-61.46 0.397-4.887 0.803-9.87 0.807-14.809v-22.214c-0.143-20.585-5.047-46.65-10.979-64.422-7.417-22.229-17.17-38.372-29.604-52.322-18.975-21.281-38.162-29.878-60.444-33.699l-7.34-1.355h-3.886l-5.181-0.74h-151.109v538.327zM636.342 637.204v-114.004h10.362l7.34 0.741h18.997l9.067 0.741c8.229 0.17 17.973 4.058 25.041 11.337 3.519 3.628 6.316 7.723 8.432 13.839 3.782 10.937 4.102 23.969 4.089 36.284-0.013 15.313-4.343 31.552-12.089 39.645-10.185 10.633-23.854 10.707-35.403 10.707h-24.178l-5.181 0.711h-6.476zM636.342 430.641v-134.767h10.794l7.339 0.741h37.562c9.921 0.029 22.999 5.805 31.517 14.513 3.143 3.214 5.695 6.664 8.125 11.403 4.499 8.775 7.387 24.658 7.417 36.284v14.069c-0.117 17.105-4.101 33.003-12.52 42.681-8.773 10.085-19.541 12.455-29.79 13.662l-4.318 0.674h-35.403l-6.044 0.741h-14.679z" />
<glyph unicode="&#xe91a;" glyph-name="unscheduled-in-exception" d="M512 960c-282.77 0-512-229.23-512-512s229.23-512 512-512c282.77 0 512 229.23 512 512s-229.23 512-512 512zM200.308 735.692h96.458v-329.482l0.513-11.106v-7.404c0.026-23.264 5.88-54.546 16.978-71.82 11.005-17.133 29.117-25.877 45.104-25.914h14.366c14.864 0.252 32.318 8.774 43.052 23.819 14.079 19.724 17.973 53.457 18.004 80.579l0.513 12.587v328.742h96.458v-359.099l-1.914-27.395c-3.438-34.385-13.391-70.613-29.943-96.253-5.428-8.411-11.431-16.667-17.911-23.375-22.796-23.619-50.353-35.651-77.987-40.411l-17.444-2.177-6.157-0.674h-30.271l-5.131 0.674-16.931 2.177c-33.298 5.738-67.638 22.219-91.835 57.13-15.428 22.271-26.080 51.71-31.236 82.178-2.273 13.431-4.669 34.436-4.684 48.127v359.099zM605.123 735.692h218.569v-95.513h-61.056v-347.252h61.056v-95.513h-218.569v95.513h61.056v347.252h-61.056v95.513z" />
<glyph unicode="&#xe91b;" glyph-name="unscheduled-lunches-exception" d="M512 960c-282.77 0-512-229.23-512-512s229.23-512 512-512c282.77 0 512 229.23 512 512s-229.23 512-512 512zM200.293 735.707h87.074v-329.501l0.463-11.107v-7.405c0.023-23.265 5.308-54.549 15.326-71.824 9.935-17.134 26.284-25.879 40.716-25.916h12.969c13.418 0.252 29.174 8.774 38.864 23.821 12.709 19.725 16.224 53.461 16.252 80.583l0.463 12.588v328.76h87.074v-359.119l-1.728-27.397c-3.103-34.387-12.089-70.617-27.030-96.258-4.9-8.412-10.319-16.668-16.169-23.376-20.578-23.62-45.455-35.653-70.401-40.414l-15.747-2.177-5.558-0.674h-27.326l-4.632 0.674-15.284 2.177c-30.059 5.738-61.058 22.221-82.901 57.133-13.927 22.273-23.542 51.713-28.197 82.182-2.052 13.432-4.215 34.439-4.229 48.129v359.119zM581.011 735.707h87.074v-433.904h155.622v-104.403h-242.696v538.307z" />
<glyph unicode="&#xe91c;" glyph-name="unscheduled-out-exception" d="M512 960c-282.77 0-512-229.23-512-512s229.23-512 512-512c282.77 0 512 229.23 512 512s-229.23 512-512 512zM656.899 735.728h24.462l4.892-0.508 18.347-3.638c32.323-9.526 60.47-33.252 82.694-77.018 21.253-41.848 32.445-96.853 35.47-152.467 1.113-20.481 1.019-41.123 0.885-61.713l-0.371-7.261-1.558-27.589c-4.11-50.786-14.918-99.539-34.426-137.947-22.293-43.896-50.963-68.378-83.51-77.381-5.459-1.503-17.124-3.921-22.424-3.935h-22.016l-4.077 0.661-15.493 2.773c-34.916 8.967-65.856 35.51-88.704 84.416-17.662 37.812-27.361 83.102-31.271 131.412l-1.558 27.589-0.371 8.712v39.932l0.371 7.26 1.558 27.59c3.437 42.473 10.816 80.655 24.58 116.166 17.882 46.118 44.395 77.548 74.601 92.097 8.158 3.928 16.484 6.752 24.87 8.618l8.562 1.59 4.485 0.639zM200.272 724.99h76.648v-323.085l0.408-10.891v-7.261c0.020-22.812 4.672-53.487 13.491-70.425 8.745-16.8 23.137-25.375 35.841-25.411h11.416c11.811 0.247 25.681 8.604 34.21 23.357 11.187 19.342 14.282 52.419 14.306 79.014l0.408 12.343v322.359h76.648v-352.127l-1.521-26.863c-2.732-33.717-10.641-69.242-23.793-94.384-4.314-8.248-9.084-16.343-14.233-22.921-18.114-23.161-40.012-34.959-61.971-39.627l-13.862-2.134-4.892-0.661h-24.055l-4.077 0.661-13.454 2.134c-26.46 5.627-53.747 21.788-72.975 56.021-12.26 21.839-20.724 50.707-24.821 80.583-1.806 13.17-3.71 33.768-3.722 47.192v352.127zM675.62 635.616c-0.126 0.001-0.251 0.001-0.375-0.001h-11.823c-9.936-2.686-18.028-5.707-26.908-14.76-21.388-21.803-31.401-61.481-36.041-102.785-1.195-10.629-1.904-21.149-2.32-31.946l-0.371-8.712v-35.576l0.371-7.26c0.603-15.639 1.794-31.35 4.232-46.466 5.386-33.398 14.665-65.074 31.683-84.053 5.178-5.779 10.857-10.027 16.716-13.025 3.763-1.924 10.837-4.487 14.677-4.567 10.678-0.218 18.212-0.101 28.539 6.309 5.084 3.158 11.090 8.328 15.493 13.817 20.589 25.665 30.203 70.505 33.085 113.465l1.162 23.959v36.302l-0.371 7.261c-0.555 14.136-1.578 28.344-3.555 42.11-3.739 26.021-10.217 51.36-20.573 71.151-8.505 16.256-18.938 26.166-30.949 31.488-3.74 1.66-8.762 3.245-12.672 3.289z" />
</font>
</defs>
</svg>
