<svg id="bac0c15d-31f8-4e8c-8342-4ebd5af0107f" data-name="Layer 1" xmlns="http://www.w3.org/2000/svg" width="865.76" height="682.89" viewBox="0 0 865.76 682.89"><path d="M273.23,38.79H712.66v460H264.2v-451a9,9,0,0,1,9-9Z" fill="#ccc"/><path d="M287.5,22.71H724.28A8.72,8.72,0,0,1,733,31.43h0V484.94H278.78V31.43A8.73,8.73,0,0,1,287.5,22.71Z" fill="#fff" stroke="#939598" stroke-miterlimit="10"/><path d="M287.5,22.71H387.66a8.72,8.72,0,0,1,8.72,8.72h0V484.94H278.78V31.43A8.73,8.73,0,0,1,287.5,22.71Z" fill="#ccc"/><path d="M287.5,22.71H387.66a8.72,8.72,0,0,1,8.72,8.72h0V484.94H278.78V31.43A8.73,8.73,0,0,1,287.5,22.71Z" opacity="0.1"/><path d="M287.5,22.71H724.28A8.72,8.72,0,0,1,733,31.43h0V55.08H278.78V31.43A8.73,8.73,0,0,1,287.5,22.71Z" fill="#939598"/><path d="M671.94,39.88A6.91,6.91,0,1,0,665,46.79h0A6.93,6.93,0,0,0,671.94,39.88Z" fill="#fff"/><path d="M698.44,39.88a6.91,6.91,0,1,0-6.91,6.91h0A6.93,6.93,0,0,0,698.44,39.88Z" fill="#fff"/><path d="M725,39.88A6.93,6.93,0,1,0,718,46.79h0A6.93,6.93,0,0,0,725,39.88Z" fill="#fff"/><path d="M707.44,399.81H419.79V114.32H707.44Zm-287-.66H706.78V115H420.45Z" fill="#939598"/><rect x="580.81" y="185.86" width="38.64" height="0.99" fill="#ccc"/><rect x="580.81" y="214.26" width="38.64" height="0.99" fill="#ccc"/><rect x="580.81" y="242.65" width="38.64" height="0.99" fill="#ccc"/><rect x="506.67" y="305.17" width="18.85" height="0.99" fill="#ccc"/><rect x="462.65" y="305.17" width="39.72" height="0.99" fill="#ccc"/><rect x="443.85" y="305.17" width="13.43" height="0.99" fill="#ccc"/><rect x="476.08" y="313.9" width="49.44" height="0.99" fill="#ccc"/><rect x="443.85" y="313.9" width="27.93" height="0.99" fill="#ccc"/><rect x="505.07" y="322.62" width="20.45" height="0.99" fill="#ccc"/><rect x="466.95" y="322.62" width="32.75" height="0.99" fill="#ccc"/><rect x="443.85" y="322.62" width="18.26" height="0.99" fill="#ccc"/><rect x="443.85" y="331.34" width="81.66" height="0.99" fill="#ccc"/><rect x="477.68" y="340.05" width="47.84" height="0.99" fill="#ccc"/><rect x="443.85" y="340.05" width="27.93" height="0.99" fill="#ccc"/><rect x="511.5" y="348.79" width="14.01" height="0.99" fill="#ccc"/><rect x="443.85" y="348.79" width="63.35" height="0.99" fill="#ccc"/><rect x="513.66" y="357.5" width="11.86" height="0.99" fill="#ccc"/><rect x="465.33" y="357.5" width="45.11" height="0.99" fill="#ccc"/><rect x="443.85" y="357.5" width="18.26" height="0.99" fill="#ccc"/><rect x="515.8" y="366.22" width="9.72" height="0.99" fill="#ccc"/><rect x="483.59" y="366.22" width="26.31" height="0.99" fill="#ccc"/><rect x="443.85" y="366.22" width="35.98" height="0.99" fill="#ccc"/><rect x="677" y="178.03" width="14.19" height="0.99" fill="#ccc"/><rect x="643.84" y="178.03" width="29.93" height="0.99" fill="#ccc"/><rect x="629.68" y="178.03" width="10.11" height="0.99" fill="#ccc"/><rect x="653.95" y="188.3" width="37.23" height="0.99" fill="#ccc"/><rect x="629.68" y="188.3" width="21.03" height="0.99" fill="#ccc"/><rect x="675.77" y="198.57" width="15.41" height="0.99" fill="#ccc"/><rect x="647.07" y="198.57" width="24.66" height="0.99" fill="#ccc"/><rect x="629.68" y="198.57" width="13.74" height="0.99" fill="#ccc"/><rect x="629.68" y="208.84" width="61.5" height="0.99" fill="#ccc"/><rect x="655.15" y="219.1" width="36.03" height="0.99" fill="#ccc"/><rect x="629.68" y="219.1" width="21.03" height="0.99" fill="#ccc"/><rect x="680.62" y="229.37" width="10.56" height="0.99" fill="#ccc"/><rect x="629.68" y="229.37" width="47.71" height="0.99" fill="#ccc"/><rect x="682.24" y="239.64" width="8.94" height="0.99" fill="#ccc"/><rect x="645.85" y="239.64" width="33.97" height="0.99" fill="#ccc"/><rect x="629.68" y="239.64" width="13.74" height="0.99" fill="#ccc"/><rect x="683.87" y="249.91" width="7.31" height="0.99" fill="#ccc"/><rect x="659.61" y="249.91" width="19.81" height="0.99" fill="#ccc"/><rect x="629.68" y="249.91" width="27.09" height="0.99" fill="#ccc"/><path d="M485.38,261.07a44.88,44.88,0,0,1-21.67-5.58l5.9-10.66A32.58,32.58,0,0,0,513.2,199.4l10.39-6.34a44.74,44.74,0,0,1-38.21,68Z" fill="#bcbec0"/><path d="M463.7,255.49a44.75,44.75,0,0,1,12.68-83l2.41,11.95a32.58,32.58,0,0,0-9.26,60.41Z" fill="#939598"/><path d="M513.18,199.4a32.38,32.38,0,0,0-27.8-15.63,33.22,33.22,0,0,0-6.52.65l-2.4-11.95a45.2,45.2,0,0,1,8.92-.89,44.45,44.45,0,0,1,38.21,21.48Z" fill="#ccc"/><rect x="559.51" y="179.25" width="13.41" height="13.41" fill="#bcbec0"/><rect x="559.51" y="208.05" width="13.41" height="13.41" fill="#939598"/><rect x="559.51" y="236.84" width="13.41" height="13.41" fill="#ccc"/><rect x="555.64" y="315.98" width="19.83" height="53.11" fill="#ccc"/><rect x="581.81" y="292.19" width="19.83" height="76.91" fill="#ccc"/><rect x="607.98" y="327.87" width="19.83" height="41.23" fill="#ccc"/><rect x="634.14" y="303.28" width="19.83" height="65.81" fill="#ccc"/><rect x="660.3" y="281.88" width="19.83" height="87.21" fill="#ccc"/><rect x="522.61" y="135.16" width="101.41" height="9.72" fill="#939598"/><rect x="291.73" y="102.52" width="91.71" height="98.18" fill="#fff"/><path d="M337.57,168.28a25.46,25.46,0,0,1-12.3-3.17l3.36-6.08a18.51,18.51,0,0,0,24.75-25.78l5.91-3.59a25.35,25.35,0,0,1-21.72,38.62Z" fill="#bcbec0"/><path d="M325.29,165.1A25.36,25.36,0,0,1,332.53,118l1.37,6.78A18.51,18.51,0,0,0,328.63,159Z" fill="#939598"/><path d="M353.38,133.25a18.37,18.37,0,0,0-15.85-8.87,19.17,19.17,0,0,0-3.7.36L332.47,118a25.4,25.4,0,0,1,26.77,11.7Z" fill="#ccc"/><rect x="354.14" y="176.61" width="14.19" height="1" fill="#ccc"/><rect x="320.98" y="176.61" width="29.93" height="1" fill="#ccc"/><rect x="306.82" y="176.61" width="10.11" height="1" fill="#ccc"/><rect x="331.09" y="181.45" width="37.23" height="1" fill="#ccc"/><rect x="306.82" y="181.45" width="21.03" height="1" fill="#ccc"/><rect x="352.93" y="186.3" width="15.39" height="1" fill="#ccc"/><rect x="324.21" y="186.3" width="24.68" height="1" fill="#ccc"/><rect x="306.82" y="186.3" width="13.76" height="1" fill="#ccc"/><rect x="291.73" y="235.49" width="91.71" height="98.18" fill="#fff"/><rect x="355.91" y="246.14" width="17.13" height="0.33" fill="#263238"/><rect x="315.86" y="245.81" width="18.23" height="0.99" fill="#ccc"/><rect x="298.77" y="245.81" width="12.2" height="0.99" fill="#ccc"/><rect x="328.08" y="256.08" width="5.72" height="0.99" fill="#ccc"/><rect x="298.77" y="256.08" width="25.39" height="0.99" fill="#ccc"/><rect x="319.77" y="266.35" width="14.03" height="0.99" fill="#ccc"/><rect x="298.77" y="266.35" width="16.6" height="0.99" fill="#ccc"/><rect x="298.77" y="276.62" width="35.03" height="0.99" fill="#ccc"/><rect x="329.54" y="286.89" width="43.51" height="0.99" fill="#ccc"/><rect x="298.77" y="286.89" width="25.39" height="0.99" fill="#ccc"/><rect x="360.3" y="297.16" width="12.74" height="0.99" fill="#ccc"/><rect x="298.77" y="297.16" width="57.63" height="0.99" fill="#ccc"/><rect x="362.27" y="307.42" width="10.78" height="0.99" fill="#ccc"/><rect x="318.3" y="307.42" width="41.04" height="0.99" fill="#ccc"/><rect x="298.77" y="307.42" width="16.6" height="0.99" fill="#ccc"/><rect x="364.22" y="317.69" width="8.83" height="0.99" fill="#ccc"/><rect x="334.91" y="317.69" width="23.93" height="0.99" fill="#ccc"/><rect x="298.77" y="317.69" width="32.72" height="0.99" fill="#ccc"/><path d="M373.56,282.82H336.62V245.89h36.94Zm-35.95-1h35v-35h-35Z" fill="#ccc"/><polygon points="337.48 282.64 336.75 281.98 350.79 266.37 357.66 270.96 367.58 259.52 372.51 262 372.06 262.88 367.83 260.75 357.84 272.26 350.95 267.66 337.48 282.64" fill="#ccc"/><path d="M347.81,262.17a5.85,5.85,0,1,1,5.85-5.85A5.86,5.86,0,0,1,347.81,262.17Zm0-10.72a4.87,4.87,0,1,0,4.87,4.87A4.87,4.87,0,0,0,347.81,251.45Z" fill="#ccc"/><rect x="291.73" y="361.99" width="91.71" height="98.18" fill="#fff"/><rect x="331.8" y="417.7" width="36.03" height="0.99" fill="#ccc"/><rect x="306.33" y="417.7" width="21.02" height="0.99" fill="#ccc"/><rect x="357.28" y="427.98" width="10.56" height="0.99" fill="#ccc"/><rect x="306.33" y="427.98" width="47.71" height="0.99" fill="#ccc"/><rect x="358.89" y="438.25" width="8.94" height="0.99" fill="#ccc"/><rect x="322.5" y="438.25" width="33.97" height="0.99" fill="#ccc"/><rect x="306.33" y="438.25" width="13.74" height="0.99" fill="#ccc"/><rect x="360.51" y="448.52" width="7.32" height="0.99" fill="#ccc"/><rect x="336.26" y="448.52" width="19.81" height="0.99" fill="#ccc"/><rect x="306.33" y="448.52" width="27.09" height="0.99" fill="#ccc"/><rect x="306.79" y="388.32" width="9.72" height="23.52" fill="#ccc"/><rect x="319.62" y="377.8" width="9.72" height="34.05" fill="#ccc"/><rect x="332.44" y="393.6" width="9.72" height="18.26" fill="#ccc"/><rect x="345.25" y="382.71" width="9.72" height="29.13" fill="#ccc"/><rect x="358.07" y="373.23" width="9.72" height="38.61" fill="#ccc"/><path d="M732.51,607.75a21.11,21.11,0,0,0-17-11.68s-23.86,2.45-59.76,3.62-39.86-1.62-39.86-1.62a92.43,92.43,0,0,0-4.88,12.1c-1.42,1.17-6.65,5.5-9,7.58-2.76,2.42-14.07,6.37-11.16,20s20.46,17.67,41.73,20.63c20.28,2.8,55.44,1.39,72.44-3.8,6.5-1.25,11.95-3.07,15.56-5.61C734,639.56,738.23,619,732.51,607.75Z" fill="#f48225" data-secondary="true"/><g opacity="0.2"><path d="M732.51,607.75a21.11,21.11,0,0,0-17-11.68s-23.86,2.45-59.76,3.62-39.86-1.62-39.86-1.62a92.43,92.43,0,0,0-4.88,12.1c-1.42,1.17-6.65,5.5-9,7.58-2.76,2.42-14.07,6.37-11.16,20s20.46,17.67,41.73,20.63c20.28,2.8,55.44,1.39,72.44-3.8,6.5-1.25,11.95-3.07,15.56-5.61C734,639.56,738.23,619,732.51,607.75Z"/></g><path d="M703.85,564.13c-3.25-6.87-8.12-20.44-8.12-20.44l7.55-32.9s7-14.62,4.7-26.44-5.3-12-15.41-15.59-16.68-3.76-19.49-7.25a30,30,0,0,1-5.54-12.41c-.35-2.92-.5-6.09-.5-6.09s-10.25,8.12-26.27,3.91a53,53,0,0,1,.56,12.64c-.65,5.68-2.37,7.34-12.34,11.85s-24.52,8.12-27.33,15.95-3.5,20.28-4.14,39.9c-.66,20.73-1.93,23.82-1.93,23.82l-52,22.31-.21-.52s-2.55-1.22-4.71-2.45-3.44,0-5.46-2.44-2.81-7-3.88-5.18a5.85,5.85,0,0,0,.86,6.07l-.65,2.52,3.25,12.49a12.41,12.41,0,0,0,7.44-.72c2.09-1.12,4-2.2,5.1-2.82,13.07-2.08,64.67-16.87,66.2-17.52,1.79-.77,8.64-44.66,8.64-44.66s7.11,22.07,7.5,25.9-13.28,56-13.28,56,5.89,5.39,31.19,4.87,57.92-4.19,63.93-6.49l6-2.32S707.1,570.9,703.85,564.13Z" fill="#f9b499"/><g opacity="0.05"><path d="M654.5,467.63c5.3,0,13.69-5.72,16.4-9.31a29.74,29.74,0,0,1-3.45-9.3c-.36-2.92-.51-6.09-.51-6.09s-10.24,8.12-26.27,3.91a54.69,54.69,0,0,1,.66,11.71C645.52,462,649.14,467.63,654.5,467.63Z" fill="#231f20"/></g><path d="M705.39,399.51c0,1.75-1.62,3.39-1.88,5.1s1,3.75.62,5.44-2.44,2.82-3.06,4.43.1,3.9-.69,5.42-3,2.11-4,3.54-.76,3.8-1.88,5.1-3.41,1.37-4.65,2.55-1.52,3.53-2.87,4.56-3.59.62-5,1.52-2.16,3.16-3.67,3.91-3.66-.12-5.23.49-2.67,2.69-4.29,3.15-3.57-.8-5.23-.51-3.08,2.16-4.76,2.32-3.37-1.42-5.06-1.42-3.41,1.62-5.07,1.44-3.13-2-4.76-2.29-3.62,1-5.23.52-2.74-2.53-4.3-3.12-3.73.26-5.23-.47-2.25-3-3.68-3.9-3.72-.45-5.05-1.47-1.63-3.41-2.89-4.57-3.56-1.23-4.66-2.51-1-3.69-1.9-5.1-3.25-2-4-3.53-.1-3.79-.74-5.4-2.64-2.75-3.06-4.44.79-3.68.58-5.42-1.92-3.34-1.92-5.1,1.63-3.39,1.89-5.1-1-3.75-.62-5.44,2.45-2.82,3.07-4.43-.1-3.9.7-5.42,3-2.11,4-3.54.77-3.8,1.89-5.1,3.39-1.37,4.64-2.55,1.51-3.53,2.86-4.56,3.6-.62,5-1.51,2.14-3.15,3.67-3.92,3.64.12,5.23-.49,2.66-2.69,4.28-3.13,3.56.78,5.23.49,3.07-2.16,4.74-2.32,3.4,1.42,5.09,1.42,3.41-1.62,5-1.44,3.21,2,4.84,2.29,3.62-1,5.21-.52,2.76,2.53,4.32,3.12,3.72-.26,5.23.47,2.25,3,3.68,3.9,3.7.45,5,1.47,1.63,3.41,2.89,4.57,3.54,1.23,4.65,2.51.94,3.69,1.91,5.1,3.25,2,4,3.53.1,3.8.72,5.4,2.66,2.75,3.08,4.44-.81,3.68-.58,5.42S705.39,397.75,705.39,399.51Z" fill="#f48225" data-secondary="true"/><path d="M678.55,414.48s3.15-7,5.86-6.11,3.87,10.15.49,14.23-6.09,2.73-6.77,1.82S678.55,414.48,678.55,414.48Z" fill="#f9b499"/><path d="M627.5,410.76a5.29,5.29,0,0,0-5.63,4.94c0,.17,0,.33,0,.5-.43,5.86,6.35,8.33,7.25,8.79S627.5,410.76,627.5,410.76Z" fill="#f9b499"/><path d="M625.66,399.48s1.42,24.16,5.51,35.9,17.67,23.67,23.54,23,11.06-4.1,16.24-12A57.29,57.29,0,0,0,679.43,415L679,399.62s-7.73-16.48-26.69-16C638.49,383.89,631.28,391.1,625.66,399.48Z" fill="#f9b499"/><path d="M679,399.57s-7.73-16.48-26.69-16c-13.79.36-21,7.51-26.62,15.89,0,0,.12,2,.38,5.14a39.28,39.28,0,0,1,27.16-9.51c13.81.61,21.88,5.58,25.9,9.09Z" fill="#686175" data-primary="true"/><path d="M709.49,598.4l6-2.33s-8.38-25.17-11.63-32-8.12-20.44-8.12-20.44l6.37-27.69c-7.59-1.62-15.4-14.92-16.4-24.08-.78-7.19-.1-18.59.44-25.19l-3.43-.92a259.43,259.43,0,0,0-.54,28.3c-24.35,7-50.12,1.37-50.12,1.37V469.87c-.95.45-2,.94-3.14,1.46-.13,4.25-.52,12.55-1.62,20.66-1.51,11.59-7.2,26.09-7.2,26.09s7.12,22.07,7.51,25.9-13.29,56-13.29,56,5.9,5.39,31.2,4.87S703.48,600.7,709.49,598.4Z" fill="#686175" data-primary="true"/><polygon points="618.41 594.6 652.16 566.16 566.61 559.18 533.02 586.48 618.41 594.6" fill="#f48225" data-secondary="true"/><path d="M618.41,594.81h0L533,586.69a.23.23,0,0,1-.18-.15.23.23,0,0,1,.07-.23L566.47,559a.2.2,0,0,1,.15,0l85.56,7a.23.23,0,0,1,.19.15.21.21,0,0,1-.07.22l-33.76,28.44A.21.21,0,0,1,618.41,594.81Zm-84.85-8.5,84.78,8.07,33.29-28-85-6.93Z" fill="#f48225" data-secondary="true"/><polygon points="533.02 586.48 618.41 594.6 605.02 533.47 518.41 527.95 533.02 586.48" fill="#f48225" data-secondary="true"/><path d="M618.41,594.81h0L533,586.69a.2.2,0,0,1-.18-.16L518.2,528a.2.2,0,0,1,0-.18.18.18,0,0,1,.17-.08L605,533.26a.22.22,0,0,1,.19.17l13.38,61.12a.19.19,0,0,1-.05.19A.21.21,0,0,1,618.41,594.81Zm-85.22-8.53,84.95,8.08-13.29-60.68-86.16-5.5Z" fill="#f48225" data-secondary="true"/><g opacity="0.2"><path d="M606.68,541.06c-16.74,2.73-23.51,19.08-42.46,34.59a57.89,57.89,0,0,1-22,11.7l76.16,7.25Z"/><path d="M618.41,594.81h0l-76.16-7.25a.21.21,0,0,1-.19-.19.21.21,0,0,1,.15-.22,58,58,0,0,0,21.89-11.67,159.72,159.72,0,0,0,17-16.63c8.33-9.08,14.91-16.26,25.6-18a.21.21,0,0,1,.24.16l11.72,53.54a.19.19,0,0,1-.05.19A.21.21,0,0,1,618.41,594.81Zm-75-7.56,74.76,7.11L606.52,541.3c-10.43,1.78-16.93,8.87-25.15,17.84a159.71,159.71,0,0,1-17,16.67A58.52,58.52,0,0,1,543.38,587.25Z"/></g><path d="M529.35,579.75a7.76,7.76,0,0,0,2.16,4.29c1.82,1.62,5.87,1.48,6.68.13s-.94-1.62-3.25-2.58A40.18,40.18,0,0,0,529.35,579.75Z" fill="#f9b499"/><path d="M535.24,585.43a6,6,0,0,1-3.87-1.23,8,8,0,0,1-2.23-4.41.22.22,0,0,1,.07-.19.21.21,0,0,1,.2-.05,40,40,0,0,1,5.61,1.84c.43.18.85.34,1.23.48,1.21.46,2.09.79,2.3,1.41a1.12,1.12,0,0,1-.18,1,2.9,2.9,0,0,1-2.12,1.08A8.14,8.14,0,0,1,535.24,585.43ZM529.62,580a7.47,7.47,0,0,0,2,3.85,6,6,0,0,0,4.51,1.05,2.6,2.6,0,0,0,1.83-.88.79.79,0,0,0,.14-.64c-.15-.43-1-.75-2-1.15-.39-.15-.8-.3-1.24-.49A40.22,40.22,0,0,0,529.62,580Z" fill="#f4a58c"/><path d="M528.84,578.15s-1,1.78,3.42,3.11,6.77-.19,7.24-1.85a2.14,2.14,0,0,0-1.26-2.75,2.11,2.11,0,0,0-.51-.12c-1,0-7.4.88-8.12.91S528.61,576.85,528.84,578.15Z" fill="#f9b499"/><path d="M535.37,582a11.27,11.27,0,0,1-3.17-.52c-2-.6-3.19-1.37-3.56-2.29a1.46,1.46,0,0,1,0-1.06c-.09-.57-.1-.8.06-.93s.31-.08.47,0a1.48,1.48,0,0,0,.47.08c.28,0,1.5-.17,2.92-.34,2.16-.27,4.61-.57,5.2-.57a2.06,2.06,0,0,1,.58.13,2.36,2.36,0,0,1,1.39,3,3.13,3.13,0,0,1-1.6,1.87A5.53,5.53,0,0,1,535.37,582ZM529,578.25a.93.93,0,0,0,0,.78c.23.54,1,1.34,3.28,2,2.91.87,4.64.45,5.58-.07a2.79,2.79,0,0,0,1.4-1.64,2,2,0,0,0,0-1.49,1.92,1.92,0,0,0-1.09-1,1.74,1.74,0,0,0-.45-.11c-.54,0-3.08.31-5.13.57-1.43.17-2.66.33-3,.34a1.9,1.9,0,0,1-.6-.09l0,0a4.14,4.14,0,0,0,.07.56A.22.22,0,0,1,529,578.25Z" fill="#f4a58c"/><path d="M527,573s0,3.83.65,4.79,6.5,1.9,9.21.24,2-4.69.23-4.61S527,573,527,573Z" fill="#f9b499"/><path d="M532.59,579.13c-2.37,0-4.68-.58-5.13-1.25-.68-1-.69-4.75-.69-4.91a.24.24,0,0,1,.07-.16.23.23,0,0,1,.16-.06c.08,0,8.35.5,10.06.43a1.67,1.67,0,0,1,1.67,1.29,3.32,3.32,0,0,1-1.78,3.71A8.75,8.75,0,0,1,532.59,579.13Zm-5.39-5.94c0,1.19.14,3.75.61,4.45s6.26,1.81,8.92.18a2.93,2.93,0,0,0,1.6-3.23,1.26,1.26,0,0,0-1.25-1C535.49,573.67,528.57,573.27,527.2,573.19Z" fill="#f4a58c"/><path d="M527.7,564.94s-3.46,6.84-1,8.79,9.48,1.33,10.53-1.36-1.62-2.28-4.54-2.73l-3.71-.59Z" fill="#f9b499"/><path d="M531.06,575.08a7.58,7.58,0,0,1-4.52-1.18c-2.54-2,.82-8.77,1-9a.22.22,0,0,1,.21-.12.22.22,0,0,1,.18.15l1.23,4,3.57.57c.57.09,1.12.14,1.66.19,1.48.15,2.66.26,3.12,1a2,2,0,0,1-.07,1.81c-.39,1-1.54,1.79-3.26,2.25A12.16,12.16,0,0,1,531.06,575.08Zm-3.4-9.55c-.72,1.58-2.76,6.5-.85,8,1.39,1.12,4.57,1.43,7.23.72,1.58-.42,2.64-1.13,3-2a1.68,1.68,0,0,0,.09-1.44c-.34-.56-1.48-.68-2.79-.8-.55-.06-1.1-.11-1.69-.2l-3.7-.59a.22.22,0,0,1-.17-.14Z" fill="#f4a58c"/><path d="M690,648.57s-51-12.66-71.59-28-33.33-27.75-49.21-31.16-28,5.46-28,17.23,8.12,19.62,28.39,30.37S620.45,654.5,642,657.86s45.65,2.08,50.18,2.08a198.26,198.26,0,0,0,22.93-.62,19,19,0,0,0,17.86-19.1c.11-4.07-7.41-10.27-14-7.12S700.26,647.56,690,648.57Z" fill="#f9b499"/><path d="M665.87,641.64c-16.08-5.17-36.24-12.72-47.46-21.11-20.64-15.3-33.33-27.75-49.16-31.16s-28,5.45-28,17.23,8.12,19.61,28.38,30.36S620.5,654.43,642,657.79c6,1,12.23,1.53,18.17,1.87,0-.84,0-1.72.08-2.68C660.48,651.64,663.53,645.55,665.87,641.64Z" fill="#f48225" data-secondary="true"/><path d="M660.38,659.89l-.22,0c-6.55-.37-12.67-1-18.19-1.87-14.1-2.2-49.38-8.64-72.4-20.85C548.6,626,541.14,618,541.08,606.6a16.75,16.75,0,0,1,6.42-13.26c5.49-4.46,13.44-6,21.8-4.18,12.31,2.65,22.92,10.91,36.36,21.36,4,3.14,8.22,6.39,12.87,9.84,11.33,8.47,32,16.14,47.41,21.08l.25.08-.14.23c-2.42,4.06-5.36,10-5.59,15.24-.08,1-.08,1.83-.08,2.67Zm-97.85-71a23.17,23.17,0,0,0-14.76,4.83,16.3,16.3,0,0,0-6.27,12.92c.06,11.25,7.46,19.14,28.27,30.18C592.73,649,628,655.38,642,657.58c5.44.86,11.47,1.48,17.93,1.86,0-.78,0-1.59.08-2.47.22-5.23,3.09-11.12,5.51-15.21-15.38-5-36-12.6-47.27-21.06-4.66-3.45-8.84-6.7-12.88-9.85-13.4-10.42-24-18.64-36.19-21.28A31.83,31.83,0,0,0,562.53,588.84Z" fill="#f48225" data-secondary="true"/><path d="M719,633.05c-4.87,2.34-12.75,9.14-20.69,13a4,4,0,0,0-.08,3.94,15,15,0,0,0,5.6,5.49s-3.24,3.74-11.67,4.44c4.54-.13,12,.4,22.93-.62a19,19,0,0,0,17.86-19.1C733.06,636.1,725.55,629.9,719,633.05Z" fill="#686175" data-primary="true"/><path d="M700.63,660.15c-1.42,0-2.73,0-3.92,0-1.76,0-3.29,0-4.58,0a.2.2,0,0,1-.21-.2.21.21,0,0,1,.19-.23c7.16-.59,10.56-3.41,11.35-4.17a15.14,15.14,0,0,1-5.44-5.43,4.28,4.28,0,0,1,.08-4.16.18.18,0,0,1,.09-.08,98,98,0,0,0,12.69-7.9,66.36,66.36,0,0,1,8-5.09h0a10,10,0,0,1,10,1c2.64,1.74,4.37,4.28,4.3,6.32a19.26,19.26,0,0,1-18.06,19.3C709.33,660,704.53,660.15,700.63,660.15Zm-5.3-.47h1.39a164.89,164.89,0,0,0,18.32-.61,18.84,18.84,0,0,0,17.67-18.89c.06-1.88-1.63-4.32-4.12-6-1.47-1-5.36-3-9.53-1a66.36,66.36,0,0,0-7.93,5.06,99.68,99.68,0,0,1-12.7,7.9,3.87,3.87,0,0,0,0,3.68,14.7,14.7,0,0,0,5.52,5.41.21.21,0,0,1,.1.15.18.18,0,0,1,0,.17C703.85,655.75,701.4,658.48,695.33,659.68Z" fill="#686175" data-primary="true"/><path d="M728.86,642.47c.44,9.92-8.62,13.62-13.8,16.8a19,19,0,0,0,17.86-19.09c.11-4.08-7.41-10.28-14-7.13C719,633.05,728.34,632.53,728.86,642.47Z" fill="#fff"/><path d="M715.06,659.48a.21.21,0,0,1-.21-.14.22.22,0,0,1,.09-.25c.67-.41,1.39-.82,2.15-1.26,5.32-3,11.93-6.83,11.56-15.35-.5-9.5-9.33-9.24-9.7-9.22a.21.21,0,0,1-.22-.16.2.2,0,0,1,.12-.24,10,10,0,0,1,9.92,1c2.67,1.73,4.42,4.27,4.36,6.32a19.24,19.24,0,0,1-18.06,19.3Zm4.88-26.62c2.48.2,8.71,1.5,9.13,9.59h0c.39,8.78-6.64,12.81-11.77,15.74L716,659a18.82,18.82,0,0,0,16.76-18.8c0-1.89-1.67-4.33-4.17-6C727.17,633.33,723.74,631.54,719.94,632.86Z" fill="#fff"/><path d="M584.87,647.89s51.27-11.37,72.31-26.11,34.1-26.86,50-29.85,27.86,6.21,27.51,18S726,629.3,705.43,639.49s-51.28,16.11-72.86,18.91-45.63.92-50.16.68q-11.48,0-22.9-1.22a19,19,0,0,1-17.39-19.57c0-4.07,7.68-10.07,14.16-6.74S574.63,646.54,584.87,647.89Z" fill="#f9b499"/><path d="M707.23,591.93c-15.91,3-28.94,15.1-50,29.85-11.74,8.2-32.85,15.42-49.21,20.1a37.16,37.16,0,0,0-.26,14.1c.27,1.44.53,2.74.81,3.93a209.39,209.39,0,0,0,24-1.51c21.58-2.8,52.3-8.71,72.86-18.91s28.82-17.86,29.23-29.58S723.08,589,707.23,591.93Z" fill="#f48225" data-secondary="true"/><path d="M608.43,660.12l0-.17c-.3-1.29-.58-2.71-.81-3.93a37.37,37.37,0,0,1,.26-14.18l0-.13.13,0c12.9-3.69,36.44-11.2,49.15-20.08,4.72-3.31,9-6.44,13.08-9.46,13.74-10.11,24.58-18.09,37-20.42h0c8.39-1.57,16.28.18,21.66,4.81a16.66,16.66,0,0,1,6,13.39c-.4,11.42-8.07,19.21-29.35,29.76-23.34,11.59-58.77,17.09-72.92,18.93a209.91,209.91,0,0,1-24,1.51Zm-.2-18.07a36.67,36.67,0,0,0-.23,13.89c.22,1.16.48,2.51.77,3.75a205.94,205.94,0,0,0,23.8-1.51c14.13-1.82,49.51-7.32,72.79-18.88,21.11-10.46,28.73-18.16,29.12-29.4a16.28,16.28,0,0,0-5.9-13c-5.29-4.54-13.05-6.26-21.31-4.71h0c-12.29,2.31-23.1,10.27-36.79,20.34-4.12,3-8.37,6.16-13.09,9.47C644.67,630.84,621.18,638.34,608.23,642.05Z" fill="#f48225" data-secondary="true"/><path d="M569.2,656.19a26.58,26.58,0,0,0,5.88-5.62c1.63-2.55-.36-6.25-.65-6.79-7-4.11-13.74-10-18-12.23-6.5-3.24-14.16,2.67-14.16,6.74a19,19,0,0,0,17.39,19.57A161.35,161.35,0,0,0,576.92,659,72.72,72.72,0,0,1,569.2,656.19Z" fill="#686175" data-primary="true"/><path d="M576.92,659.16h0a162,162,0,0,1-17.33-1.09A19.27,19.27,0,0,1,542,638.29c0-2,1.79-4.47,4.45-6.11a10.15,10.15,0,0,1,10-.82,66.51,66.51,0,0,1,7.84,5.28c3.12,2.28,6.65,4.86,10.23,7a.3.3,0,0,1,.08.08c.55,1,2.23,4.51.64,7a26.68,26.68,0,0,1-5.62,5.46,74.67,74.67,0,0,0,7.34,2.6.21.21,0,0,1-.06.42Zm-24.54-28.34a11.23,11.23,0,0,0-5.71,1.72c-2.54,1.57-4.24,3.88-4.24,5.75a18.85,18.85,0,0,0,17.2,19.36c5.23.61,10.54,1,15.81,1.07-3.69-1.19-6.29-2.33-6.32-2.34a.21.21,0,0,1,0-.37,26.34,26.34,0,0,0,5.83-5.57c1.43-2.24-.09-5.48-.64-6.51A120.67,120.67,0,0,1,564.06,637a68.49,68.49,0,0,0-7.78-5.24A8.67,8.67,0,0,0,552.38,630.82Z" fill="#686175" data-primary="true"/><path d="M560,657.91c-1.62-.86-3.25-1.79-4.69-2.62-4.21-2.58-10.23-6.49-10.52-13-.21-4.46,3.24-9.09,5.36-11.54-4.37,1-8,4.67-8,7.47a19,19,0,0,0,17.39,19.56Z" fill="#fff"/><path d="M560,658.12h0l-.47-.11a19.26,19.26,0,0,1-17.55-19.78c0-3.07,3.89-6.73,8.17-7.67a.21.21,0,0,1,.23.1.21.21,0,0,1,0,.25c-2.53,2.93-5.5,7.29-5.31,11.39.27,6.1,5.52,9.82,10.42,12.82,1.49.85,3.08,1.76,4.68,2.61a.2.2,0,0,1,.1.26A.2.2,0,0,1,560,658.12Zm-10.44-27c-4.11,1.16-7.21,4.66-7.21,7.1a18.84,18.84,0,0,0,16.45,19.27c-1.23-.67-2.44-1.36-3.6-2-3.61-2.22-10.32-6.34-10.63-13.17C544.4,638.31,547.09,634.1,549.57,631.13Z" fill="#fff"/><path d="M697,502.62s26,65.08,30.41,67.6,15,1.63,12.29-13.22-14.45-59.27-19.18-68.78a32.74,32.74,0,0,0-17-16.24,27.33,27.33,0,0,0-8.91-2.08" fill="#f9b499"/><path d="M727.49,551.89a145.72,145.72,0,0,1-35,5.44c-18.51.39-18.3.37-25.17-1.8s-19.11-6.5-23.66-7.18-7.18-2-8.7-.23c-13.42,15.83-15.4,16.35-15.12,17.68s6.25-1.62,6.25-1.62-3.36,5.59-2,5.75a15.88,15.88,0,0,0,4.71-1.12s.1,2.26,1.89,2a14.93,14.93,0,0,0,4.64-2.47s-2,5.52.39,3.6,8.91-7.86,9.58-8.11,6.64,1.73,9.74,1.81a35.65,35.65,0,0,0,7.63-1s20.92,7.42,39.58,9.74,33.64-.84,37.09-4.62.21-10.41-1.63-15.53" fill="#f9b499"/><path d="M626,564.34a.2.2,0,0,1-.13,0,.22.22,0,0,1,0-.3c.06-.08,6.66-8.69,9.21-11.71a.21.21,0,1,1,.33.27c-2.55,3-9.14,11.61-9.2,11.7A.21.21,0,0,1,626,564.34Z" fill="#f4a58c"/><path d="M628.78,569a.24.24,0,0,1-.13,0,.22.22,0,0,1,0-.3L641,552.28a.21.21,0,0,1,.29,0,.21.21,0,0,1,.05.3L629,568.92A.2.2,0,0,1,628.78,569Z" fill="#f4a58c"/><path d="M635.31,568.49a.21.21,0,0,1-.13,0,.22.22,0,0,1,0-.3c.79-1,7.78-10.14,9.39-10.44a.21.21,0,0,1,.24.17.2.2,0,0,1-.17.25c-1.09.21-6.05,6.26-9.12,10.28A.21.21,0,0,1,635.31,568.49Z" fill="#f4a58c"/><polygon points="195.82 633.48 195.82 659.43 198.75 659.43 200.11 642.52 195.82 633.48" fill="#8ecb64"/><path d="M235.81,377.89S254.44,415.72,255,441.8s-21.19,85.79-21.19,85.79-1.69,10.52-3.14,15.14-1.76,12.2-2,17.66-6.06,31.11-8.17,46.25-5.47,35.19-4.62,37.71,2.1,4.62,5.48,8.41,6.72,6.31,3,7.14-20.18-.41-21.45-1.26,0-7.57-1.26-11.34-5.86-8-6.74-12.22,2.1-5.88,4.21-9.26a18.81,18.81,0,0,0,2.94-9.11c0-2.1-2.87-43.73-3.35-52.58s-8.24-75.68-9.66-92.08-6.41-79.87-6.41-79.87Z" fill="#f9b499"/><path d="M198.71,564.15c-.48-8.83-8.24-75.68-9.66-92.07s-6.41-79.9-6.41-79.9l53.15-14.24s18.62,37.84,19.23,63.91-21.17,85.74-21.17,85.74-1.69,10.52-3.14,15.14-1.76,12.2-2,17.66-6.06,31.11-8.17,46.25c-.13,1-.27,2-.41,3a23.12,23.12,0,0,1-18.69-.07C200.25,596.72,199.07,570.89,198.71,564.15Z" fill="#f48225" data-secondary="true"/><path d="M199.67,624.89c-.09,1,.08,3.43,1.79,9.27,2.72,9.27,3.17,16.5,6.33,18.54s10.27,1.44,13.61,0c3.36,3.78,6.72,6.31,2.94,7.14s-20.17-.42-21.44-1.26,0-7.57-1.26-11.35-5.85-7.9-6.73-12.15,2.1-5.88,4.21-9.26C199.31,625.51,199.5,625.2,199.67,624.89Z" fill="#8ecb64"/><polygon points="172.77 632.35 172.77 659.25 175.71 659.25 177.06 644.33 172.77 632.35" fill="#8ecb64"/><path d="M222.65,432.12,214,438.43s-.39,29.85-1.71,51.72S207,525.88,207,525.88s-.82,9.68-1.75,11.78l-.92,2.1s.19,16-2.33,26.08-6.67,55.87-6.67,55.87-.43,8.82-.43,14.24-.42,11.36,2.1,15.14,5.89,8.41,3,8.41-16.43,1.67-18.5-.84-2.11-9.58-5.89-15-2.94-13.45-1.69-16,6.79-4.11,6.31-13.45c-.27-5-11.1-45.83-10.44-61.81s6.89-34.48,7.06-38.69-18.15-39.1-18.93-61S162,394.29,162,394.29l64-2.52" fill="#f9b499"/><path d="M225.76,430.29,214,438.43s-.39,29.85-1.71,51.72S207,525.88,207,525.88s-.82,9.68-1.75,11.78l-.92,2.1s.19,16-2.33,26.08c-1.73,6.93-4.92,30.67-5.93,44.91-3,.84-9,1.69-16.74-1.43-2.82-12.5-10.13-43.53-9.58-57,.67-16,6.89-34.48,7.06-38.69s-18.15-39.1-18.93-61S162,394.25,162,394.25l64-2.52" fill="#f48225" data-secondary="true"/><path d="M181.46,658.75c-2.11-2.52-2.11-9.67-5.89-15.14s-2.94-13.45-1.69-16a13.2,13.2,0,0,1,2.55-2.78A20.71,20.71,0,0,0,178,635.52c2.94,7,7.67,15.59,9.72,16.27,1.83.61,7.5.48,9.93.29,2.4,3.58,5.07,7.52,2.35,7.52C197,659.6,183.56,661.24,181.46,658.75Z" fill="#8ecb64"/><path d="M195.15,232s5.48-9.25,12.47-11.77,12.78.84,10.45,1.46a37.45,37.45,0,0,0-3.84,1.26s9.86.64,18.53,9.68,8.21,20,6.67,21.65-4.25,1.1-4.25,1.1,6,12.6,6.47,21.36-5.6,18.71-7.29,19.14a1.2,1.2,0,0,1-1.56-.66,1.37,1.37,0,0,1-.08-.6s-6.21,7.78-13.87,10.3-17.69.41-22.85-1.9-12.19-10.3-15.81-29.43S195.15,232,195.15,232Z" fill="#f48225" data-secondary="true"/><path d="M196.62,300.12l11.89.69S226.37,346,230,358.87s6.13,29.12,4.69,30.5-18.22,8.48-33.36,8.48-25,.46-25,.46l-12.4-88.52s10.2-8.25,14.66-11S196.62,300.12,196.62,300.12Z" fill="#fff"/><path d="M178.56,298.75c4.47-2.76,18.06,1.37,18.06,1.37l11.89.69s1.57,4,3.87,9.86c-2.55,9.86-8.76,25.81-22.23,24.1-11.71-1.52-20.45-11.9-25.54-19.89l-.71-5.11S174.1,301.5,178.56,298.75Z" fill="#f9b499"/><path d="M228.41,302.19s5.83,14.44,10.64,20.18,10.3,17.31,10.3,17.31l3,.46,1.1,1.38s8.76-11.7,14.56-19.26,13.42-18.14,14.14-19.08,3.69-11.7,5.87-14.45,11.1-13.3,11.84-14.91,4-1.37,3.9,0-6.11,9.41-6.11,9.41l1.35.46s6-6.66,7.23-8.49,3.51-1.83,3.44,0-6.39,10.32-7.33,11a2.33,2.33,0,0,0-1,1.6s8.4-9.17,8.9-9.86,2.24,1.09.51,4.13a71.49,71.49,0,0,1-6.57,8.26,62.47,62.47,0,0,1,5.22-4.39c.94-.46,1.32,1.37-1.31,3.9s-3.61,4.39-5.81,7.56a24.46,24.46,0,0,1-7.11,6.71,12.57,12.57,0,0,0-2.84,2.3s-6.18,20.22-13.84,33.52-20,29.58-23.3,31.19-6.73,1.83-8.5.46-11.49-16.43-12.15-17.09S221.59,306.08,221,305.21,223.17,300.12,228.41,302.19Z" fill="#f9b499"/><path d="M221,305.21c-.65-.92,2.27-5,7.46-3,0,0,5.83,14.44,10.64,20.18s10.31,17.31,10.31,17.31l3,.46,1.1,1.38s5.24-7,10.3-13.68l15.06,11.56-.3.51c-7.66,13.3-20,29.58-23.3,31.19s-6.72,1.83-8.5.46-11.49-16.43-12.15-17.09S221.59,306.08,221,305.21Z" fill="#8ecb64"/><path d="M283.49,303s-.83-7.57.69-11,3.29-8.25,3.48-12.38,2-3.21,3.69-.46-.6,8.94-.6,8.94,2.28,6,1,9.86" fill="#f9b499"/><path d="M203.73,422.57S195,440.68,189.49,451s-17.63,21.56-17.63,21.56-23.45-20.64-27.67-24.1-5.06-5-5.06-5,7.36-55.24,7.36-57.31S148.42,328,148.94,321s16.59-13.07,16.59-13.07,5.68,23.39,8.85,35.77,19.85,63.53,22.41,68.1S203.73,422.57,203.73,422.57Z" fill="#8ecb64"/><path d="M173.88,301.27s27,113,28.25,115.79a21,21,0,0,1,1.6,5.48l-29.85-21.76-11.62-91Z" fill="#8ecb64"/><path d="M173.88,301.27s27,113,28.25,115.79a21,21,0,0,1,1.6,5.48l-29.85-21.76-11.62-91Z" opacity="0.2"/><path d="M231.57,319.84s8.69,45.4,9.38,50.9,18.8,50,20.41,61.23-5.65,25.68-5.65,25.68l-26.38-44.26L228.58,387l-17.46-10.78s.16-3.89-.71-16.05S201,299.66,201,299.66a164.55,164.55,0,0,1,18.31.69c8.45.92,9.8,1.61,11.06,4.38s2,12.38,2,12.38" fill="#8ecb64"/><polygon points="228.58 387.02 238.31 395.74 229.33 413.39 228.58 387.02" opacity="0.2"/><path d="M157.12,313s-21.74,4.38-22.92,5.28-2.71,9.86-3.07,18.8-6.08,30.67-5.56,34.85,1.09,7.11,1.09,8-1.65,17.89-1.73,19.72,2.72.92,8.45.92,49.75-5.48,49.75-5.48.18,1.37,2.92,1.83,5.22,1.1,5.22,1.1-2.19,2.06-1,2.29a19,19,0,0,0,4.39.46A7.79,7.79,0,0,0,199,399.6c1.17-.68,10.82-6.65,10.43-8.25s-9.68-10.09-11-10.09S181.54,387,178.14,387s-28.94-4.38-28.94-4.38,2.19-3.9,1.59-5.48a11.5,11.5,0,0,1-.75-3.9c0-.68,4.65-29.34,4.65-29.34" fill="#8ecb64"/><path d="M157.44,394.59A10.75,10.75,0,0,1,159,384.3c7.59,1.23,17.17,2.72,19.19,2.72,3.44,0,18.81-5.73,20.19-5.73s10.65,8.48,11,10.09S200.13,399,199,399.63a7.76,7.76,0,0,1-4.38,1.15,19,19,0,0,1-4.38-.46c-1.1-.23,1-2.29,1-2.29a49,49,0,0,0-5.23-1.09c-2.73-.41-2.91-1.9-2.91-1.9S171,396.54,158.73,398A25.7,25.7,0,0,1,157.44,394.59Z" fill="#f9b499"/><path d="M198,384.5s8.62,7.8,8.55,9.4" fill="none" stroke="#f7a78d" stroke-miterlimit="10"/><path d="M195.79,387.48s7.66,8,7.66,8.77" fill="none" stroke="#f7a78d" stroke-miterlimit="10"/><path d="M192,390s7.5,6.88,7.88,8.95" fill="none" stroke="#f7a78d" stroke-miterlimit="10"/><path d="M207.9,288s3.68,10.78,2.19,13.3-8.76,2.29-9.1-1.61,4.38-13.07,5.14-13.53S207.9,288,207.9,288Z" fill="#f48225" data-secondary="true"/><path d="M207.9,288s3.68,10.78,2.19,13.3-8.76,2.29-9.1-1.61,4.38-13.07,5.14-13.53S207.9,288,207.9,288Z" opacity="0.2"/><polyline points="199.72 313.88 204.9 293.93 182.65 282.92 183.2 286.36 178.01 306.77" fill="#f9b499"/><path d="M186,289.24s10.33,12.41,16.53,13.29l2.07-7.08Z" fill="#f7a78d"/><path d="M213.55,264.53a64.71,64.71,0,0,1,0,27.67l0,.17c-.58,2.64-4.58,4.39-6.78,4.39a17.38,17.38,0,0,1-3.94-.45s-13.15-.88-18.49-10.56,0-32.57,5.47-36.09,14.11-2.11,16.25-.32c0,0,6.39,8.86,6.57,10.84a1.6,1.6,0,0,0,0,.23Z" fill="#f9b499"/><path d="M187,288.89s3.69,10.77,2.19,13.3-8.76,2.29-9.11-1.61,4.38-13.07,5.15-13.53S187,288.89,187,288.89Z" fill="#f48225" data-secondary="true"/><path d="M187,288.89s3.69,10.77,2.19,13.3-8.76,2.29-9.11-1.61,4.38-13.07,5.15-13.53S187,288.89,187,288.89Z" opacity="0.2"/><path d="M206.13,246.29S191.4,282,185.93,292.75s-22.63,23.54-29.49,21.91-18.06-15.78-17.73-23.76c0,0-4.74,2.73-6.4-2.95S136.63,270,136.63,270s-4.79,4-4.21,0,7.88-12.61,7.88-12.61-8.28,2.1-4.31-7.57,14.46-14.76,20.7-18.3,10.23-3.15,10.23-3.15-6.1,0-2.9-2.07,15.78-5.69,22.82-3,9.2,7.33,9.2,7.33,10.29-4.84,13.37,2.09S206.13,246.29,206.13,246.29Z" fill="#f48225" data-secondary="true"/></svg>