<svg id="ba6de569-a6bf-4c93-94b7-5cb782ed10ca" data-name="Layer 1" xmlns="http://www.w3.org/2000/svg" width="865.76" height="682.89" viewBox="0 0 865.76 682.89"><path d="M420.37,531.19A10.22,10.22,0,0,1,424,520.61a29.32,29.32,0,0,1,7,12.81S427.71,528.6,420.37,531.19Z" fill="#f48225" data-secondary="true"/><path d="M420.37,531.19A10.22,10.22,0,0,1,424,520.61a29.32,29.32,0,0,1,7,12.81S427.71,528.6,420.37,531.19Z" fill="#f48225" data-secondary="true"/><path d="M401.15,607.64s4.1,5.84,3.67,8.21c0,0-3.59,17.1,13,17.75,0,0-.13-7.25-8.42-16.6Z" fill="#686175" data-primary="true"/><path d="M401.15,607.64s4.1,5.84,3.67,8.21c0,0-3.59,17.1,13,17.75,0,0-.13-7.25-8.42-16.6Z" opacity="0.2"/><polygon points="368.05 576.31 387.05 588.69 401.16 555.29 396.84 545.79 379.85 546.37 368.05 576.31" fill="#f9b499"/><polygon points="373.94 529.68 382.14 532.92 390.45 546.84 363.7 547.45 371.35 530.11 373.94 529.68" fill="#f9b499"/><path d="M369.2,537.73l4.09-5.93a3,3,0,0,0-.72-4.17c-7.91-5.64-35.61-24.2-85.43-45.76L277.06,481l-1.73,14.4Z" fill="#f48225" data-secondary="true"/><path d="M369.2,537.73l4.09-5.93a3,3,0,0,0-.72-4.17c-7.91-5.64-35.61-24.2-85.43-45.76L277.06,481l-1.73,14.4Z" opacity="0.19"/><polygon points="528.03 181.67 544.4 197.16 539.16 221.24 516.97 222.38 528.03 181.67" fill="#f4a58c"/><ellipse cx="578.63" cy="195.54" rx="47.1" ry="32.62" transform="translate(-12.96 347.42) rotate(-33.07)" fill="#f9b499"/><path d="M621,152.49c6,2.66,16.5,12.82,9.7,51.62,0,0-13.06,86.41-10.69,114.91l-20.78,1.19L572.53,287S585,273.29,589.75,262.9c0,0-34.44-19.89-44.83-29.1l2.67-4.75s11,6.85,29.13,2.37a55.29,55.29,0,0,0,33-23.38c4-6.22,7.31-14,6.89-22.4a25,25,0,0,0-11-19.76c-4.83-3.14-11.79-5.16-20.59-1.24a38.79,38.79,0,0,1-4.43,1.56c-5.67,1.75-19.69,7.36-34,23.11a9.91,9.91,0,0,1-13.27,1.39c-5.85-4.36-14-9.16-19.57-7.08-.92.34,1-1.71,1.45-2.51A32.36,32.36,0,0,1,531,168.28c.66-.26,1.3-.54,1.92-.82a39.14,39.14,0,0,0,11.55-8.2c15.59-16,39.37-21.67,39.37-21.67,17.46-5.68,27,3.69,31.12,9.64A14.78,14.78,0,0,0,621,152.49Z" fill="#f48225" data-secondary="true"/><path d="M365.3,238.5s-21.84,20.72-30.08,28.07c0,0-5.57-1.34,27,18.94,0,0,14.93,10,25.17,13.81,0,0-15.15-33.2-20.49-55.7l-.83-3.91Z" fill="#f9b499"/><path d="M340.69,261.16l-.11,0c-.63-.1-3.67-.53-5.21.89,0,0,5.32-6.34,4.17-12.24l-6.33-.43S330,267.78,321.4,271.24c0,0,.29-3-2.3-2.74l-4.9.15s5.47,2.16,4.47,9.21c0,0-.15,5-1.44,6.05,0,0-12,13.87-25.77,37.86l-35.33,53.75s-33.2,47.32-45.59,84.18c0,0-12.09,25.62-5.75,37.14l117.47-207,13-23.24Z" fill="#f48225" data-secondary="true"/><path d="M340.69,261.16l-.11,0c-.63-.1-3.67-.53-5.21.89,0,0,5.32-6.34,4.17-12.24l-6.33-.43S330,267.78,321.4,271.24c0,0,.29-3-2.3-2.74l-4.9.15s5.47,2.16,4.47,9.21c0,0-.15,5-1.44,6.05,0,0-12,13.87-25.77,37.86l-35.33,53.75s-33.2,47.32-45.59,84.18c0,0-12.09,25.62-5.75,37.14l117.47-207,13-23.24Z" opacity="0.19"/><path d="M400.58,344.23c-6.62-34.55-13.23-44.91-13.23-44.91-19.56-7.76-52.13-32.75-52.13-32.75l-14.39,16.62C301,311.12,244.23,411.9,244.23,411.9c-23.32,30.81-38.58,78-38.58,78C195.57,511.81,212,519.3,212,519.3c40.89,28.51,154.92,60.47,154.92,60.47,5.47-3.46,17.56-36.28,17.56-36.28l-87.25-47.8c-5.47-1.44-13.82-3.46-13.82-3.46-.29-5.75,3.75-10.36,3.75-10.36,10.94-1.73,13.24-12.38,13.24-12.38,11.23-3.17,20.45-11.23,20.45-11.23a38.86,38.86,0,0,0,13.82-14.4l6.33-8.93a7.48,7.48,0,0,0,1.32-1.11c6.82-7,16.23-9.69,24.91-14.24,23.24-12.18,45.12-19.58,33.37-75.35" fill="#f48225" data-secondary="true"/><path d="M409.83,536.22c3.23-3.3,9-4.93,13-5.69a8.5,8.5,0,0,1,8.79,3.59c4.09,6.38,5.76,17.47,6.44,25a44.22,44.22,0,0,1-.73,11.3c-1,5.83,2.48,10.93,2.48,10.93,11.46,22,4.54,48.3-.09,61a11.08,11.08,0,0,1-11,7.26h0a11.12,11.12,0,0,1-10.52-10.11l-.3-3.33A32.68,32.68,0,0,0,409.44,617l-24-26.14a6.51,6.51,0,0,1,.26-9.07,32.23,32.23,0,0,0,8.87-15.14,20.86,20.86,0,0,0-8.31-23l-.22-.15,15-2.39A16,16,0,0,0,409.83,536.22Z" fill="#686175" data-primary="true"/><path d="M382.14,537.46a10.83,10.83,0,0,1-1.39-4.26,3.71,3.71,0,0,1,4.19-3.86c.53.08,1.16.15,1.86.22a29.35,29.35,0,0,0,17.84-4.36c3.31-2,9.5-4.59,19.4-4.59,0,0-5.18,4.1-3.67,10.58a29.25,29.25,0,0,0-10.54,5s-4.21,4.86-8.82,4.89l-14.76,2.54Z" fill="#686175" data-primary="true"/><path d="M382.14,537.46a10.83,10.83,0,0,1-1.39-4.26,3.71,3.71,0,0,1,4.19-3.86c.53.08,1.16.15,1.86.22a29.35,29.35,0,0,0,17.84-4.36c3.31-2,9.5-4.59,19.4-4.59,0,0-5.18,4.1-3.67,10.58a29.25,29.25,0,0,0-10.54,5s-4.21,4.86-8.82,4.89l-14.76,2.54Z" opacity="0.2"/><path d="M546.71,137.9a1.82,1.82,0,0,0,.88,2.93c2,.47,5,.11,7.77-4.17l3,1.5s-2.57,9.62-2.14,11.33A115.32,115.32,0,0,1,589.57,136s-4.74,1-10.17-4.8A20.24,20.24,0,0,0,570,127.8a35.05,35.05,0,0,1-11.71-.19s-7.29-2.4-8.73,2.4C549.55,130,550.34,133.41,546.71,137.9Z" fill="#f9b499"/><path d="M590.22,254.81s-5.28-5.09-11.16-.69a2.38,2.38,0,0,0-.5,3.31c1.16,1.52,4.64,3.61,9.22,4h0a3.91,3.91,0,0,1,1.05-4.95Z" fill="#f9b499"/><path d="M629.36,236l-.15-7.74S627,221.39,631,221c0,0,4.45-1.56,4.23,14.92A25.94,25.94,0,0,0,629.36,236Z" fill="#f9b499"/><path d="M459.42,130.77a69,69,0,0,0,4.26-11,35.64,35.64,0,0,0,1.6-8.86c.34-8.46,4.89-21,4.89-21,1.92-3.27,6.53-20.74,6.53-20.74,1.92-15.35,12.09-20.34,12.09-20.34,5.18-5.19,20-12.48,20-12.48,4.32-3.26,9-1.5,12.11.38a86.4,86.4,0,0,0,11,5.88l28.81,12.5a24.14,24.14,0,0,1,13.36,14.73,172.08,172.08,0,0,1,4.89,21,5.42,5.42,0,0,0,1.32,2.73c7.7,8.52,11.16,13.31,12.71,15.77a7.32,7.32,0,0,1,1,5.45c-.79,3.57-3.45,2.94-3.45,2.94-2.11.19-1.15,3.45-1.15,3.45,1.73,6.53.19,14.79.19,14.79-4.42,1.24-10.17-4.8-10.17-4.8-5.57-3.36-9.41-3.36-9.41-3.36a43.6,43.6,0,0,1-11.71-.19c-8.35-2.12-8.73,2.4-8.73,2.4a42.87,42.87,0,0,1,1.63-8.45s-8.45-2.11-4.71-11.9c0,0,.58-1.35,1.92-3.84,0,0-3.55.29-5.37-1.92,0,0-3.84.48-5.76-.39a10.3,10.3,0,0,1-4.13,4.8s4.61,17.76-2.11,28a11.27,11.27,0,0,1-2.4,6.91l.29,5.86a8.53,8.53,0,0,1,3,2.3s3.64-1.54,5.47,4.7c0,0,3.16,4.7,2.73,6.72,0,0-18,30.09-16,45.93,0,0,9,7.41,13.42,11.09a24.24,24.24,0,0,1,2.77,2.78c1.7,2,5,5.6,7.29,6.42,0,0,7.22,13.37,42.16,33.85,0,0-4.43,14.78-11.18,20.55a4.48,4.48,0,0,0-.28,6.53c5.19,5.37,13.55,14.31,15.5,18.12a12.69,12.69,0,0,1,4.49,4.53,10.41,10.41,0,0,0,8,5.49c1.75.17,3.22.56,3.48,1.35,0,0,1.88-4.32,5-3.74,0,0,2,.28.43-1.59,0,0-6.19-4,.29-5.9h0A3.23,3.23,0,0,0,618.1,305a36.72,36.72,0,0,1,.46-7.38l-3.75-5.76s-3,.86-5.32-5.76c0,0-11.67-4-7.35-11.37h0a3.83,3.83,0,0,0-1.11-5.83l-5.51-3s-11.95-4-8.35-8.06c0,0,5.47-7.2,23.76-14.25,0,0,25.19-14.69,26.05-4.9l4,11.52s7.77.43,8.35,8.64A199.27,199.27,0,0,0,659.64,287s10.55,25.72,4.22,49.91c0,0,0,12.28-2.88,16.7,0,0-6.14,15.36-9.22,20,0,0-2.11,8.07-6.71,12.1,0,0-8.17,10.37-20.65,6.95a15.23,15.23,0,0,0-5.11-.54c-8.26.6-35.08.95-77.49-13.68a23.49,23.49,0,0,0-19.47,1.87,115.37,115.37,0,0,1-20.1,8.85s-21.11,9.66-34.88,10.35a21.35,21.35,0,0,0-5.55,1l-12.59,4a36.46,36.46,0,0,1-14.07,1.63h0s-5.33-1.21-16.64,3.47a4.43,4.43,0,0,1-6.13-4.45c0-.06,0-.11,0-.17s-4.89-9.22-3.74-15.26c0,0-4.61-10.08-3.17-16.42,0,0-3.17-15-3.74-23.32,0,0-1.73-22.46-17.28-57,0,0-15.26-34.84-18.43-53.27,0,0-3.41-6-1.24-8.74a7,7,0,0,0,1.52-3.35,4.14,4.14,0,0,1,.28-1,3,3,0,0,0-.21-2.93l0,0a4.58,4.58,0,0,1,1.42-6.62l14.38-8.41s3.16-4,6-4.89c0,0,9.22-3.17,29.09-24.48S442.53,159.18,459.42,130.77Z" fill="#686175" data-primary="true"/></svg>