<svg xmlns="http://www.w3.org/2000/svg" width="865.76" height="682.89" viewBox="0 0 865.76 682.89"><g style="isolation:isolate"><g id="f4eee885-eb0d-4ac9-9e84-13dc1e5d3b46" data-name="Layer 1"><path d="M599.32,204.57c-.44-2.1-.9-3.84-1.17-4.74-1.91-6.32-7.27-11.93-15.81-17-.91-.53-1.85-1.06-2.82-1.58a88.42,88.42,0,0,1-14.7-9.58,48.78,48.78,0,0,1-6.91-6.88l-1-1.24c-.69-.94-1.31-1.87-1.86-2.78l-.1-.17h0l-.24-.4-.13-.23-.18-.32h0l-.21-.4a31.67,31.67,0,0,1-1.87-4.21c0-.08-.06-.16-.08-.23a36.76,36.76,0,0,1-1.29-4.56l-.06-.23c-.38-1.74-.65-3.39-.93-5-.71-4-1.47-7.47-4.22-10.21h0l-.49-.48-.47-.49-.46-.49-.45-.49c-.15-.16-.29-.32-.43-.49l-.43-.48h0l-.5-.61-.25-.3c-.32-.41-.63-.81-.91-1.22A23,23,0,0,1,540,127.7l-.33-.6h0l0,0c-1.92-3.74-2.24-7.43-.12-11.2a47.37,47.37,0,0,0,3.3-7.08,40.6,40.6,0,0,0,1.43-4.72c4.28-18-6.08-31.38-11.17-36.63-.75-.77-1.38-1.36-1.84-1.77q-1.65-1.47-3.47-2.9C506,45.61,467.68,34.2,433.42,36.36c-1.87.11-3.71.27-5.54.48a109.14,109.14,0,0,0-12.32,2,84.31,84.31,0,0,0-8.25,2.26c-1.69.55-3.36,1.14-5,1.78a75.65,75.65,0,0,0-7.08,3.21c-.59.3-1.16.62-1.75,1A61.79,61.79,0,0,0,383,54.45a53.71,53.71,0,0,1-17.2,10.24c-32.37,11.43-64.14-16.45-93.24,8.74-25.32,21.94,8.53,34.94-23.31,54.65-33.33,20.59-44.23,44.86-45.49,66.39v.09a79.49,79.49,0,0,0,.88,16.78,99.18,99.18,0,0,0,8.48,26.93,38,38,0,0,0,72.78,13.18c17.27,0,37,.06,57.81.07l18.34,0h25.79l57.11,0c69.37,0,130.24,0,139.66,0a7,7,0,0,1,.49-.55h0a59.25,59.25,0,0,0,14.19-27,54.28,54.28,0,0,0,1.22-9.06v-.11A45.29,45.29,0,0,0,599.32,204.57Z" fill="#ffefb0"/><path d="M445.2,92.72a2,2,0,0,0,2-2v-17a2,2,0,1,0-4.05,0v17A2,2,0,0,0,445.2,92.72Z" fill="#f8cb76"/><path d="M425.8,93.51A2,2,0,0,0,427.75,95a2.41,2.41,0,0,0,.53-.07,2,2,0,0,0,1.43-2.48l-4.39-16.4a2,2,0,0,0-3.91,1Z" fill="#f8cb76"/><path d="M409.74,100.74a2,2,0,0,0,1.76,1,2.07,2.07,0,0,0,1-.27,2,2,0,0,0,.74-2.77L404.76,84a2,2,0,0,0-3.51,2Z" fill="#f8cb76"/><path d="M396.1,111.87A2,2,0,0,0,399,109L387,97a2,2,0,1,0-2.86,2.86Z" fill="#f8cb76"/><path d="M371.11,117.67l14.7,8.48a2,2,0,0,0,1,.28,2,2,0,0,0,1-3.78l-14.7-8.49a2,2,0,1,0-2,3.51Z" fill="#f8cb76"/><path d="M363.16,138.22l16.4,4.4a2.41,2.41,0,0,0,.53.07,2,2,0,0,0,.52-4l-16.4-4.39a2,2,0,0,0-1,3.91Z" fill="#f8cb76"/><path d="M379.81,158.11a2,2,0,0,0-2-2h-17a2,2,0,0,0,0,4h17A2,2,0,0,0,379.81,158.11Z" fill="#f8cb76"/><path d="M382,175a2,2,0,0,0-2.48-1.43l-16.4,4.4a2,2,0,0,0,.53,4,2.32,2.32,0,0,0,.52-.07l16.4-4.4A2,2,0,0,0,382,175Z" fill="#f8cb76"/><path d="M388.58,190.8a2,2,0,0,0-2.77-.74l-14.7,8.49a2,2,0,0,0,1,3.78,2.07,2.07,0,0,0,1-.27l14.7-8.49A2,2,0,0,0,388.58,190.8Z" fill="#f8cb76"/><path d="M396.1,204.35l-12,12a2,2,0,0,0,0,2.86,2,2,0,0,0,2.86,0l12-12a2,2,0,0,0-2.87-2.86Z" fill="#f8cb76"/><path d="M412.51,214.74a2,2,0,0,0-2.77.74l-8.49,14.7A2,2,0,0,0,402,233a2,2,0,0,0,2.76-.74l8.49-14.71A2,2,0,0,0,412.51,214.74Z" fill="#f8cb76"/><path d="M428.28,221.27a2,2,0,0,0-2.48,1.43l-4.39,16.4a2,2,0,0,0,1.43,2.48,1.86,1.86,0,0,0,.52.07,2,2,0,0,0,2-1.5l4.39-16.4A2,2,0,0,0,428.28,221.27Z" fill="#f8cb76"/><path d="M445.2,223.5a2,2,0,0,0-2,2v17a2,2,0,1,0,4.05,0v-17A2,2,0,0,0,445.2,223.5Z" fill="#f8cb76"/><path d="M464.61,222.7a2,2,0,1,0-3.91,1.05l4.39,16.4a2,2,0,0,0,2,1.5,1.86,1.86,0,0,0,.52-.07A2,2,0,0,0,469,239.1Z" fill="#f8cb76"/><path d="M480.67,215.48a2,2,0,0,0-3.51,2l8.49,14.71a2,2,0,0,0,1.75,1,2,2,0,0,0,1.75-3Z" fill="#f8cb76"/><path d="M494.3,204.35a2,2,0,0,0-2.86,2.86l12,12a2,2,0,0,0,2.86,0,2,2,0,0,0,0-2.86Z" fill="#f8cb76"/><path d="M519.3,198.55l-14.7-8.49a2,2,0,1,0-2,3.51l14.71,8.49a2.07,2.07,0,0,0,1,.27,2,2,0,0,0,1.75-1A2,2,0,0,0,519.3,198.55Z" fill="#f8cb76"/><path d="M527.25,178l-16.4-4.4a2,2,0,0,0-1.05,3.91l16.4,4.4a2.32,2.32,0,0,0,.52.07,2,2,0,0,0,2-1.51A2,2,0,0,0,527.25,178Z" fill="#f8cb76"/><path d="M529.6,156.08h-17a2,2,0,1,0,0,4h17a2,2,0,0,0,0-4Z" fill="#f8cb76"/><path d="M508.37,141.18a2,2,0,0,0,1.95,1.51,2.49,2.49,0,0,0,.53-.07l16.4-4.4a2,2,0,1,0-1-3.91l-16.4,4.39A2,2,0,0,0,508.37,141.18Z" fill="#f8cb76"/><path d="M501.83,125.41a2,2,0,0,0,1.76,1,2,2,0,0,0,1-.28l14.7-8.48a2,2,0,0,0-2-3.51l-14.71,8.49A2,2,0,0,0,501.83,125.41Z" fill="#f8cb76"/><path d="M492.87,112.46a2,2,0,0,0,1.43-.59l12-12A2,2,0,0,0,503.45,97l-12,12a2,2,0,0,0,1.43,3.45Z" fill="#f8cb76"/><path d="M477.9,101.48a2.07,2.07,0,0,0,1,.27,2,2,0,0,0,1.76-1L489.15,86a2,2,0,0,0-3.5-2l-8.49,14.7A2,2,0,0,0,477.9,101.48Z" fill="#f8cb76"/><path d="M462.13,95a2.32,2.32,0,0,0,.52.07,2,2,0,0,0,2-1.51L469,77.11a2,2,0,0,0-3.91-1l-4.39,16.4A2,2,0,0,0,462.13,95Z" fill="#f8cb76"/><circle cx="445.2" cy="158.11" r="59.63" transform="translate(18.6 361.12) rotate(-45)" fill="#f8cb76"/><path d="M832.69,554.58c0-25.67-179-46.48-399.81-46.48S33.07,528.91,33.07,554.58c0,11.9,38.51,22.76,101.81,31-10.48,4.64-16.17,9.6-16.17,14.75,0,25.67,140.66,46.48,314.17,46.48S747.05,626,747.05,600.31c0-5.15-5.69-10.11-16.17-14.75C794.18,577.34,832.69,566.48,832.69,554.58Z" fill="#47ba75" style="mix-blend-mode:multiply"/><path d="M832.69,543.82c0-25.68-179-46.48-399.81-46.48S33.07,518.14,33.07,543.82c0,11.9,38.51,22.75,101.81,31-10.48,4.63-16.17,9.59-16.17,14.75,0,25.67,140.66,46.48,314.17,46.48s314.17-20.81,314.17-46.48c0-5.16-5.69-10.12-16.17-14.75C794.18,566.57,832.69,555.72,832.69,543.82Z" fill="#6bc891"/><path d="M832.69,543.82c0-25.68-179-46.48-399.81-46.48S33.07,518.14,33.07,543.82c0,11.9,38.51,22.75,101.81,31-10.48,4.63-16.17,9.59-16.17,14.75,0,25.67,140.66,46.48,314.17,46.48s314.17-20.81,314.17-46.48c0-5.16-5.69-10.12-16.17-14.75C794.18,566.57,832.69,555.72,832.69,543.82ZM687.2,568.54c8.93,3.94,13.77,8.17,13.77,12.57C701,603,581.14,620.7,433.32,620.7S165.66,603,165.66,581.11c0-4.4,4.84-8.63,13.77-12.57-53.93-7-86.73-16.26-86.73-26.4,0-21.87,152.5-39.6,340.62-39.6s340.62,17.73,340.62,39.6C773.94,552.28,741.13,561.53,687.2,568.54Z" fill="#8ad2a9" style="mix-blend-mode:multiply"/><path d="M635.32,569.18c0,11.13-107.91,20.15-241,20.15s-241-9-241-20.15S261.17,549,394.29,549,635.32,558.06,635.32,569.18Z" fill="#80c465" opacity="0.4" style="mix-blend-mode:multiply"/><path d="M368.79,188.49s-13.61-23.33-46.12-17.55-23.85,43.33-41.84,61-33.67,33.38-25.95,58.32-33.28,30.27-33.16,67.92S230.6,418,281,421s131.06-10.39,142-25.58,9.09-48.54-18.33-91.09-2.37-46.37-20.69-71S378.54,198.63,368.79,188.49Z" fill="#6bc891"/><polygon points="183.77 502.35 174.2 502.35 176.26 166.6 181.11 166.6 183.77 502.35" fill="#ff4910"/><polygon points="178.09 168.04 108.52 227.62 81.48 250.77 79.44 248.7 103.38 222.15 142.59 178.66 173.59 162.43 178.09 168.04" fill="#ff4910"/><polygon points="108.52 227.62 81.48 250.77 79.44 248.7 103.38 222.15 108.52 227.62" fill="#d03b10"/><polygon points="182.81 164.03 176.02 166.44 141.92 79.48 129.59 48.04 132.21 46.79 148.76 76.88 177.65 129.43 182.81 164.03" fill="#ff4910"/><polygon points="148.76 76.88 141.92 79.48 129.59 48.04 132.21 46.79 148.76 76.88" fill="#d03b10"/><polygon points="305.82 168.74 260.42 171.88 211.74 175.24 178.16 165.39 178.82 158.22 258.35 162.98 305.78 165.83 305.82 168.74" fill="#ff4910"/><polygon points="305.82 168.74 258.8 171.99 258.35 162.98 305.78 165.83 305.82 168.74" fill="#d03b10"/><path d="M178.53,157.31a6.24,6.24,0,1,0,5.86,6.6A6.24,6.24,0,0,0,178.53,157.31Z" fill="#8c0101"/><rect x="270.37" y="292.84" width="195.36" height="273.92" fill="#ffa158"/><path d="M617.51,300.13V566.74H465.72V292.81H610.9C613.17,295.22,615.38,297.64,617.51,300.13Z" fill="#ffb36f"/><path d="M503.54,203.37l-15.42,31.78-6.83,14-.21.57-.29.5-.21.43-.35.71-.15.35-6.75,13.87-.36.71-.85,1.85-12,24.67-2.78,5.76-3.91,8-2.06,4.26H256.92l13.43-17.41.43-.57,87.45-113.19.07-.07H366l118.58-.42C488.76,187.16,495.37,195.27,503.54,203.37Z" fill="#cc3127"/><polygon points="465.73 309.5 465.73 332.28 270.37 340.54 270.37 310.83 264.58 310.83 365.97 179.52 465.73 309.5" fill="#ffa158"/><path d="M360.79,244.93h9.67A21.56,21.56,0,0,1,392,266.5v67.4a0,0,0,0,1,0,0H338.51a0,0,0,0,1,0,0V267.22a22.29,22.29,0,0,1,22.29-22.29Z" fill="#e06c49"/><polygon points="635.32 318.12 462.13 318.12 453.39 306.53 443.08 292.81 361.96 184.67 358.19 179.62 357.76 179.06 530.95 179.06 531.38 179.62 535.15 184.67 616.27 292.81 626.58 306.53 635.32 318.12" fill="#e06c49"/><polygon points="344.77 347.63 299.2 441.45 160.75 441.45 232.93 347.98 344.77 347.63" fill="#cc3127"/><polygon points="348.92 347.63 303.35 441.45 164.9 441.45 237.08 347.98 348.92 347.63" fill="#ffa158"/><polygon points="303.05 441.45 303.05 566.5 164.9 566.77 164.9 441.45 303.05 441.45" fill="#ffa158"/><rect x="303.05" y="441.45" width="116.98" height="125.05" fill="#ffb36f"/><polygon points="432.88 447 307.21 447 232.93 347.97 270.37 347.98 356.44 348 432.88 447" fill="#e06c49"/><path d="M226.4,400.06a6.53,6.53,0,1,1,6.53,6.53A6.53,6.53,0,0,1,226.4,400.06Z" fill="#e06c49"/><polygon points="432.88 447 409.03 447 270.37 347.98 356.44 348 432.88 447" fill="#fff" opacity="0.05"/><polygon points="495.36 296.68 590.44 296.68 540.28 235.17 445.2 235.17 495.36 296.68" fill="#a93127"/><polygon points="458.15 251.37 553.23 251.37 552.64 250.65 457.56 250.65 458.15 251.37" fill="#d75e3f"/><polygon points="517.93 235.17 568.09 296.68 568.81 296.68 518.66 235.17 517.93 235.17" fill="#d75e3f"/><polygon points="492.74 235.17 542.9 296.68 543.62 296.68 493.47 235.17 492.74 235.17" fill="#d75e3f"/><polygon points="468.5 235.17 518.66 296.68 519.38 296.68 469.23 235.17 468.5 235.17" fill="#d75e3f"/><polygon points="470.58 266.29 565.66 266.29 565.07 265.57 469.99 265.57 470.58 266.29" fill="#d75e3f"/><polygon points="483.7 282.38 578.77 282.38 578.18 281.66 483.11 281.66 483.7 282.38" fill="#d75e3f"/><polygon points="533.76 254.03 534.31 251.06 528.93 248.1 528.38 251.06 533.76 254.03" fill="#d75e3f"/><polygon points="508.84 254.03 509.39 251.06 504.01 248.1 503.46 251.06 508.84 254.03" fill="#d75e3f"/><polygon points="484.24 254.03 484.78 251.06 479.41 248.1 478.86 251.06 484.24 254.03" fill="#d75e3f"/><polygon points="545.88 268.89 546.43 265.93 541.05 262.97 540.5 265.93 545.88 268.89" fill="#d75e3f"/><polygon points="520.96 268.89 521.51 265.93 516.13 262.97 515.58 265.93 520.96 268.89" fill="#d75e3f"/><polygon points="496.36 268.89 496.9 265.93 491.53 262.97 490.98 265.93 496.36 268.89" fill="#d75e3f"/><polygon points="559 284.98 559.55 282.02 554.17 279.06 553.62 282.02 559 284.98" fill="#d75e3f"/><polygon points="534.08 284.98 534.63 282.02 529.25 279.06 528.7 282.02 534.08 284.98" fill="#d75e3f"/><polygon points="509.48 284.98 510.02 282.02 504.65 279.06 504.1 282.02 509.48 284.98" fill="#d75e3f"/><polygon points="315.89 427.93 402.05 427.93 356.6 372.19 270.45 372.19 315.89 427.93" fill="#a93127"/><polygon points="282.18 386.87 368.33 386.87 367.8 386.22 281.65 386.22 282.18 386.87" fill="#d75e3f"/><polygon points="336.35 372.19 381.8 427.93 382.45 427.93 337 372.19 336.35 372.19" fill="#d75e3f"/><polygon points="313.52 372.19 358.97 427.93 359.63 427.93 314.18 372.19 313.52 372.19" fill="#d75e3f"/><polygon points="291.56 372.19 337 427.93 337.66 427.93 292.21 372.19 291.56 372.19" fill="#d75e3f"/><polygon points="293.44 400.39 379.59 400.39 379.06 399.73 292.9 399.73 293.44 400.39" fill="#d75e3f"/><polygon points="305.32 414.97 391.48 414.97 390.94 414.31 304.79 414.31 305.32 414.97" fill="#d75e3f"/><polygon points="350.69 389.28 351.18 386.59 346.31 383.91 345.81 386.59 350.69 389.28" fill="#d75e3f"/><polygon points="328.11 389.28 328.6 386.59 323.73 383.91 323.23 386.59 328.11 389.28" fill="#d75e3f"/><polygon points="305.82 389.28 306.31 386.59 301.44 383.91 300.94 386.59 305.82 389.28" fill="#d75e3f"/><polygon points="361.67 402.75 362.17 400.06 357.29 397.38 356.8 400.06 361.67 402.75" fill="#d75e3f"/><polygon points="339.09 402.75 339.59 400.06 334.71 397.38 334.22 400.06 339.09 402.75" fill="#d75e3f"/><polygon points="316.8 402.75 317.3 400.06 312.42 397.38 311.93 400.06 316.8 402.75" fill="#d75e3f"/><polygon points="373.56 417.32 374.05 414.64 369.18 411.96 368.69 414.64 373.56 417.32" fill="#d75e3f"/><polygon points="350.98 417.32 351.47 414.64 346.6 411.96 346.11 414.64 350.98 417.32" fill="#d75e3f"/><polygon points="328.69 417.32 329.18 414.64 324.31 411.96 323.81 414.64 328.69 417.32" fill="#d75e3f"/><path d="M660.65,354s-7.3,25.12,3.05,64.95c0,0,5.4,24.08,5.4,30.83,0,0,1.12,11,3.38,18,0,0,.9,34.89,22,71.79,0,0,8.55,2.25,12.15-1.8,0,0-2.25-57.83-9.23-91.81L687,364S671.13,361.37,660.65,354Z" fill="#f48225" data-secondary="true"/><path d="M660.65,354s-7.3,25.12,3.05,64.95c0,0,5.4,24.08,5.4,30.83,0,0,1.12,11,3.38,18,0,0,.9,34.89,22,71.79,0,0,8.55,2.25,12.15-1.8,0,0-2.25-57.83-9.23-91.81L687,364S671.13,361.37,660.65,354Z" opacity="0.2"/><path d="M720.23,358.49s9.73,13,0,38.18l-22.55,55.59s-13.73,74.48-23.4,92c0,0-7.21,4.72-12.83,0,0,0,2.92-60.76,9.22-87.54,0,0,10.81-65.26,12.38-75.39l3.84-18.43S705.43,368,720.23,358.49Z" fill="#f48225" data-secondary="true"/><path d="M650.53,323.88s8,8.64,10.92,3.92Z" fill="#686175" data-primary="true"/><path d="M725.12,285.53v62.74s.23,7.59-5.92,10.85c0,0-18.09,12.66-49.2,0,0,0-14.75-4.3-12.31-13.75,0,0,3-15.19,5.66-25.32V285.71a25.87,25.87,0,0,1,6.19-17.06c.25-.29.51-.57.77-.84l18.14-10,12.65-4.49,21,8.15Z" fill="#686175" data-primary="true"/><path d="M688.45,257.77v2.85s-.49,3.93,3.23,4.48c0,0,15,1.38,11.88-7.17,0,0-.94-2.27-2.27-5C701.29,252.94,696,260,688.45,257.77Z" fill="#fea054"/><path d="M688.45,257.77v2.35s11.25-.89,12.47-7.42C700.92,252.7,696.83,257.94,688.45,257.77Z" fill="#fe7142"/><ellipse cx="691.68" cy="239.1" rx="13.97" ry="19.2" fill="#fea054"/><path d="M712,287.58s-3.28-.32-3.09,7a22.55,22.55,0,0,0,.29,2.85c.53,3.52,1.66,14.83-5.84,15.52,0,0,9.87,1,8.1-9.74C711.42,303.25,709.39,291.62,712,287.58Z" opacity="0.2"/><path d="M700.81,330.14s14,4.33,24.31,2.72C725.12,332.86,716.53,338.34,700.81,330.14Z" opacity="0.2"/><path d="M673.74,287.24a4.24,4.24,0,0,1,1.18,3.36s.23-1.24,6.09-1.69c0,0,6.88-.48,22.31,1.69a10.53,10.53,0,0,0-10.89-6.69S681.61,283.19,673.74,287.24Z" fill="#fff"/><path d="M667.06,288.84l-.68,41.3s-.68,1.72,3.12,2.26c0,0,5.42,1.48,5.42-1.09V288.84s0,2.16-3.93,2.31C671,291.15,667.33,291.15,667.06,288.84Z" fill="#3a020e"/><path d="M667.06,288.84S647,276.9,644.67,282.19c0,0-3.66,39.08,1.63,40.3,0,0,17,5.39,20.08,7.65Z" fill="#4d010e"/><path d="M671,286.53s-16-23.74-26.32-4.34c0,0,1.35-2.41,5.85-.89a72.55,72.55,0,0,1,16.54,7.54S667.4,286.53,671,286.53Z" fill="#fff"/><path d="M663,545.34s-7.55,8.16-12.43,11.23c0,0-3.8,3.26.54,5.16,0,0,3.08,1.74,9.5-2.09.52-.31,1-.62,1.58-.89,3.06-1.54,14.65-7.9,12.11-14.45C674.28,544.3,668.44,548.21,663,545.34Z" fill="#fea054"/><path d="M650.55,556.57s-14.11,7.42-9.5,11.58c0,0,2.83,3.89,12.44.53a25.55,25.55,0,0,0,6.27-3.24,132.36,132.36,0,0,1,12.83-8.13,6.49,6.49,0,0,0,3.63-5.78,10.55,10.55,0,0,0-1.58-5.13s.35,5.65-11.94,12.09c-.48.26-1.21.53-1.69.82-1.94,1.17-7.92,4.46-11.21,1.63C649.8,560.94,647.81,559.38,650.55,556.57Z" fill="#686175" data-primary="true"/><path d="M705.1,545.45s0,0-.06.07c-3.54,5.09-10.51,8.84-10.51,8.84-6.58,4.75-9.7,3.12-9.7,3.12-4.16-1.69-.83-4.89-.55-5.14v0c10.18-8.58,10.24-12.65,10.24-12.75,9.16,2.31,12.15-1.8,12.15-1.8a.73.73,0,0,1,0,.08,4.34,4.34,0,0,1,.14.48C707.45,540.83,706.59,543.26,705.1,545.45Z" fill="#fea054"/><path d="M706.68,551.37C703,553.68,693,561.54,693,561.54c-10,7.88-16.78,3.67-16.78,3.67-6.76-3.62,7.69-12.66,8.06-12.87-.28.25-3.61,3.45.55,5.14,0,0,3.12,1.63,9.7-3.12,0,0,7-3.75,10.51-8.84,0,0,.06,0,.06-.07a7.75,7.75,0,0,0,1.74-7.12,2.7,2.7,0,0,0-.14-.48.73.73,0,0,0,0-.08C712.79,548.87,706.68,551.37,706.68,551.37Z" fill="#686175" data-primary="true"/><ellipse cx="670.99" cy="288.84" rx="3.93" ry="2.31" fill="#fff"/><path d="M674.92,290.6v40.71l29.72-1.17s3.74-36-1.32-39.54C703.32,290.6,677.5,286.53,674.92,290.6Z" fill="#4d010e"/><path d="M689.92,316s-5.69-1.86-7.13-1.73c0,0-3.14-1.1-6-1.87,0,0-3.13-.62-.37,2.26,0,0,4.84,2.1,3.15,3.35,0,0-2.93.93-8.23-.15a2.9,2.9,0,0,0-3.11,1.43c-.77,1.41-.93,3.51,2.41,5.69,0,0,5.42,4.05,19.85-1C690.45,324,688.85,319.5,689.92,316Z" fill="#fea054"/><path d="M690.12,314.21s-3.12-.95-2.85,2.85c0,0-1.93,9.63,4.06,9.9,0,0,30.4,12.35,41.94,2.45,0,0,19.41-18.43,6.11-52a5.79,5.79,0,0,0-4.14-3.53c-5.94-1.29-18.93-2.13-23.28,13.71,0,0-2.17,2.4-.54,15.67,0,0,2,10.28-8.1,9.74Z" fill="#686175" data-primary="true"/><path d="M734.57,263.13s-3.61-3.05-.63-6c0,0,5.82-9.5-.28-16.82,0,0-8.94-6.24-10.16-15.2,0,0-2.58-21.3-27-15.6,0,0-21.71-4.21-25.1,20.08a22.43,22.43,0,0,1-5.43,7.87s-6.24,6.1.54,13.84c0,0,4.89,4.39,2,8,0,0-3,6.15,1.76,8.59,0,0,9.82,7.19,18.14-7.19v-2.85s-8.47-2-10.52-15.33c0,0-1.09-6.9,1.61-12.85,0,0,2.51-3.3,5.63-3.57a8.63,8.63,0,0,0,4.56-2.78.11.11,0,0,1,.2.07c-.15,1.45,0,6.39,8.06,8,0,0,8.68,1.22,4.61,9.5a15.65,15.65,0,0,0-1.5,12.47s5,8.41,1.1,11.88c0,0-11.94,7.26-4.62,16.08,0,0,5.93,7.38,19.32,6.22a28.32,28.32,0,0,0,11.69-3.73,27.47,27.47,0,0,0,7.45-6,10.53,10.53,0,0,0-1.47-14.58l-.08-.07"/><path d="M208.62,135.93s5.47-9.47,18.54-8.42c0,0,19-15.79,39.2-2.11,0,0,21.5-3.39,37.43,2.94,10.62,4.22,14.12,8.64,14.12,8.64Z" fill="#f6fbff"/><path d="M301.83,153.78s2.64-5.68,9-5.05c0,0,9.17-9.46,18.95-1.26,0,0,10.4-2,18.1,1.76,5.13,2.53,6.83,5.18,6.83,5.18Z" fill="#f6fbff"/></g></g></svg>