<svg xmlns="http://www.w3.org/2000/svg" xmlns:xlink="http://www.w3.org/1999/xlink" width="865.76" height="682.89" viewBox="0 0 865.76 682.89"><defs><radialGradient id="a4352546-8671-4795-b178-eb8b7d119858" cx="-13747.39" cy="-958.59" r="25.4" gradientTransform="matrix(-0.89, 0.45, 0.45, 0.89, -11398.34, 7331.39)" gradientUnits="userSpaceOnUse"><stop offset="0" stop-color="#056e83"/><stop offset="1" stop-color="#005875"/></radialGradient><radialGradient id="acf52380-4206-4ddc-a069-16e2a8db1984" cx="-13774.3" cy="-956.4" r="26.42" gradientTransform="matrix(-0.89, 0.45, 0.45, 0.89, -11398.34, 7331.39)" gradientUnits="userSpaceOnUse"><stop offset="0" stop-color="#00353a" stop-opacity="0"/><stop offset="1" stop-color="#001c2e" stop-opacity="0.2"/></radialGradient><radialGradient id="b13b0d2b-593e-4480-a09e-9b194acc7a8e" cx="-13775.97" cy="-963.94" r="34" xlink:href="#acf52380-4206-4ddc-a069-16e2a8db1984"/><radialGradient id="a1b341dd-8073-4b37-a8ce-ecb6b3dd921e" cx="-13774.5" cy="-950.85" r="62.24" xlink:href="#a4352546-8671-4795-b178-eb8b7d119858"/><radialGradient id="a9eae3a0-e21a-4faa-9537-08c2d7293002" cx="-13764.96" cy="-1052.34" r="179.87" xlink:href="#acf52380-4206-4ddc-a069-16e2a8db1984"/><radialGradient id="bd0d75c9-fd29-4cac-a0f9-48b1a2e12e4e" cx="-13794.13" cy="-948.52" r="28.65" xlink:href="#a4352546-8671-4795-b178-eb8b7d119858"/><radialGradient id="fd449775-f588-41da-b2ce-01835281df13" cx="-13786.88" cy="-986.38" r="18.19" gradientTransform="matrix(-0.89, 0.45, 0.45, 0.89, -11398.34, 7331.39)" gradientUnits="userSpaceOnUse"><stop offset="0" stop-color="#fe313e"/><stop offset="0.97" stop-color="#a32a28"/></radialGradient><radialGradient id="a95c1af3-98ad-4c9e-8b59-7d9ac69f8bf6" cx="-13785.22" cy="-987.65" r="43.69" gradientTransform="matrix(-0.89, 0.45, 0.45, 0.89, -11398.34, 7331.39)" gradientUnits="userSpaceOnUse"><stop offset="0" stop-color="#3a0000" stop-opacity="0"/><stop offset="1" stop-color="#350000" stop-opacity="0.2"/></radialGradient><radialGradient id="b77f3746-3e6e-426f-a398-c5575f8870e6" cx="-13777.28" cy="-994.04" r="22.77" xlink:href="#fd449775-f588-41da-b2ce-01835281df13"/><radialGradient id="a10088e5-33f5-475e-afae-b3efbc497b4e" cx="-13777.28" cy="-994.04" r="22.77" xlink:href="#a95c1af3-98ad-4c9e-8b59-7d9ac69f8bf6"/><radialGradient id="b90ee7a7-74a3-49f5-8d14-84e141b11ea0" cx="-13806.62" cy="-981.74" r="18.3" xlink:href="#fd449775-f588-41da-b2ce-01835281df13"/><radialGradient id="bf955569-477b-48a8-af17-59a6b3ef098e" cx="-13796.06" cy="-982.09" r="22.5" xlink:href="#a95c1af3-98ad-4c9e-8b59-7d9ac69f8bf6"/><radialGradient id="b2182f0e-5fcf-4f6a-942f-cb26d7517bd0" cx="-13787.44" cy="-985.32" r="14.95" xlink:href="#fd449775-f588-41da-b2ce-01835281df13"/><radialGradient id="b0c25b32-42ad-46e1-a305-9d0925586ceb" cx="-13789.96" cy="-984.64" r="7.82" xlink:href="#fd449775-f588-41da-b2ce-01835281df13"/><radialGradient id="e1d330aa-f767-4257-865d-88c39095210b" cx="-13789.96" cy="-984.64" r="7.82" xlink:href="#a95c1af3-98ad-4c9e-8b59-7d9ac69f8bf6"/><radialGradient id="b61f2af4-7b19-4ffd-b3c2-761830f1a21e" cx="-13794.03" cy="-976.32" r="9.5" xlink:href="#fd449775-f588-41da-b2ce-01835281df13"/><radialGradient id="b2acfe23-e2b1-43ad-99fb-d95017896c0b" cx="-13798.1" cy="-988.42" r="26.08" xlink:href="#fd449775-f588-41da-b2ce-01835281df13"/><radialGradient id="ac0223f6-397d-4623-9393-b1902f042570" cx="-13787.93" cy="-971.18" r="23.25" xlink:href="#a95c1af3-98ad-4c9e-8b59-7d9ac69f8bf6"/><radialGradient id="b9b32941-3eef-494a-824c-a16823e53ed5" cx="-13787.93" cy="-970.41" r="23.25" xlink:href="#fd449775-f588-41da-b2ce-01835281df13"/><radialGradient id="a6b03ba2-ba99-4476-af0b-75c92913440f" cx="-13786.51" cy="-969.96" r="27.55" xlink:href="#a95c1af3-98ad-4c9e-8b59-7d9ac69f8bf6"/><radialGradient id="b5c5b6ce-44f5-44fe-8654-b8a45516c7f1" cx="-13783.18" cy="-962.8" r="22.64" xlink:href="#a4352546-8671-4795-b178-eb8b7d119858"/><radialGradient id="bc90b21a-b17e-47b6-85e0-5aec907a4861" cx="-13784.76" cy="-951.49" r="39.52" xlink:href="#acf52380-4206-4ddc-a069-16e2a8db1984"/><radialGradient id="e0ede482-2ad1-4873-833f-908d755ec2f8" cx="-13783.8" cy="-966.41" r="14.33" xlink:href="#acf52380-4206-4ddc-a069-16e2a8db1984"/><radialGradient id="a09e6973-46de-4cda-a15e-fdc7bfaa0b28" cx="-13803.42" cy="-988.41" r="24.05" gradientTransform="matrix(-0.89, 0.45, 0.45, 0.89, -11398.34, 7331.39)" gradientUnits="userSpaceOnUse"><stop offset="0" stop-color="#fff" stop-opacity="0.2"/><stop offset="1" stop-color="#fff" stop-opacity="0"/></radialGradient><radialGradient id="a08db094-cb44-4ab2-935f-deec2607aacc" cx="-13786.38" cy="-972.8" r="14.39" xlink:href="#a09e6973-46de-4cda-a15e-fdc7bfaa0b28"/><radialGradient id="aa2be58b-fc21-413f-80db-e24a8d913cc0" cx="-13784.31" cy="-984.16" r="17.36" xlink:href="#a09e6973-46de-4cda-a15e-fdc7bfaa0b28"/><clipPath id="e1b47e1d-f582-4837-b652-7f070f1e561a"><path id="e612693c-1c9e-444a-a5bb-dd24f5b0134d" data-name="SVGID" d="M508.37,410.05s6.83-17.57,28.3-22c0,0,56.61-16,85.53-17.08L542,462.76s-32.16,101.7-44,123.4a6.9,6.9,0,0,1-5.26,3.59c-5.26.63-15.65.6-23.94-7.31a5.42,5.42,0,0,1-1.7-4.55C469.24,559.36,483.23,442.37,508.37,410.05Z" fill="#2c2e63"/></clipPath><clipPath id="abb43e60-56e2-4b53-8840-e28ab45067a4"><path id="f21b750f-8c8f-4c1b-b947-e2f71f4d1c64" data-name="SVGID" d="M293.89,435.43s32.58-1.83,35.87,6.58l19,73.57,13.18,45s1.83,6.22,0,10.61c0,0,14.3,1.8,21.09-1.16,0,0-3-11.4-1.33-38.73,0,0-1.22-61.24-3.9-84.43,0,0-5.37-43.43-21.72-52.21l-27.57-13.91s-9.1,1.06-18.21,13.63a109.91,109.91,0,0,0-15.8,26.49,12.64,12.64,0,0,0-.86,2.87A28.35,28.35,0,0,0,293.89,435.43Z" fill="#ffc596"/></clipPath><clipPath id="b8fb41f9-083e-48a3-ba05-ee9f1e467807"><path id="a81fb4c1-1b98-4536-9ff2-6b067f52c48c" data-name="SVGID" d="M713.1,388.6s10,39.78-22.32,45.79c0,0-39.67,10.55-109.21,8.36,0,0,27.09,121.14,25.62,139.44,0,0-4.39,10.62-27.45,9.89,0,0-1.83,1.09-3.66-4.4,0,0-39.16-93.69-45-125.53-3.51-19.11-5.44-36-3-49.1,2.1-11.42,10.48-20.67,21.32-24.84,14.53-5.59,42.54-15.06,66.38-15.49,0,0,4,12.69,48.8,16.83C664.53,389.55,703.35,396.68,713.1,388.6Z" fill="#2c2e63"/></clipPath></defs><g style="isolation:isolate"><g id="b57b5448-38b8-4724-80a2-431d43cf0df9" data-name="Layer 1"><path d="M397.57,101.08C350.46,133.14,160.62,68.59,153,293.59s284,272.7,353.1,279.22S713.42,412.3,728.61,280.17,640.22-64,397.57,101.08Z" fill="#e4e1f5"/><path d="M236.88,99.57c-1.22.83-6.14-.85-6.34,5s7.36,7.06,9.15,7.23,5.37-4.15,5.76-7.58S243.16,95.29,236.88,99.57Z" fill="#e4e1f5"/><path d="M269.37,114.27c-1.41.42-5.57-2.69-7.56,2.79s4.81,9,6.46,9.7,6.39-2.29,7.82-5.43S276.67,112.15,269.37,114.27Z" fill="#e4e1f5"/><path d="M222.34,499c-1.22.83-6.14-.84-6.33,5s7.35,7.06,9.14,7.23,5.37-4.16,5.76-7.58S228.63,494.7,222.34,499Z" fill="#e4e1f5"/><path d="M728.92,393.21c-1.22.83-6.14-.85-6.33,5s7.35,7.06,9.14,7.23,5.37-4.15,5.76-7.58S735.2,388.93,728.92,393.21Z" fill="#e4e1f5"/><path d="M693.06,393.44c-1.45.27-5.28-3.23-7.8,2s3.89,9.42,5.46,10.29,6.59-1.65,8.33-4.62S700.53,392.05,693.06,393.44Z" fill="#e4e1f5"/><path d="M529.94,528.91c-1.22.83-6.14-.84-6.34,5s7.36,7.06,9.15,7.23,5.37-4.16,5.76-7.58S536.22,524.64,529.94,528.91Z" fill="#fff"/><path d="M231.33,434c-1.46.2-5.14-3.46-7.88,1.68s3.48,9.58,5,10.52,6.65-1.36,8.51-4.26S238.85,432.9,231.33,434Z" fill="#fff"/><path d="M304.42,129.71c-1.46.21-5.14-3.46-7.88,1.69s3.49,9.58,5,10.52,6.65-1.36,8.51-4.26S312,128.65,304.42,129.71Z" fill="#fff"/><path d="M347.27,89.31c-1.95.33-7-4.44-10.51,2.57s5.07,12.72,7.17,13.92,8.86-2.11,11.24-6.07S357.32,87.57,347.27,89.31Z" fill="#e4e1f5"/><path d="M675.76,468.05c-1.86.32-6.71-4.23-10,2.46s4.84,12.12,6.83,13.27,8.46-2,10.73-5.79S685.35,466.39,675.76,468.05Z" fill="#e4e1f5"/><path d="M168.2,451.07c-1.37,1.19-7.61-.17-7,7s10,7.61,12.17,7.57,6-5.82,6-10.06S175.28,445,168.2,451.07Z" fill="#e4e1f5"/><path d="M204.89,416.48c-1.37,1.18-7.61-.18-7,7s10,7.61,12.17,7.57,6-5.82,6-10.06S212,410.38,204.89,416.48Z" fill="#fff"/><path d="M660.53,80.8c-1.68.69-7.17-2.57-8.89,4.39s7.05,10.36,9.16,11,7.52-3.64,8.86-7.65S669.17,77.26,660.53,80.8Z" fill="#fff"/><path d="M647.64,114.31c-1.38,1.18-7.61-.18-7,7s10,7.61,12.17,7.57,6-5.82,6-10S654.72,108.22,647.64,114.31Z" fill="#fff"/><ellipse cx="437.14" cy="620.1" rx="172.68" ry="14.62" fill="#e4e1f5"/><path d="M705.81,234l-7,.28h-.72c-4.42-.13-8.85-.24-13.27-.28-1.8,0-3.6,0-5.4,0,0-2.89-.05-5.79,0-8.67,0-3.12.17-6.23.27-9.35l6.23.24,7,.18,13.92.22c4.64.07,9.29.07,13.92,0,1.82,0,3.63,0,5.44-.08,0-.89-.05-1.78-.11-2.67-1.77,0-3.55-.07-5.33-.09-4.63-.06-9.28-.06-13.92,0l-13.92.22-7,.19-7,.26h-.06a.74.74,0,0,0-.7.75c.11,3.39.25,6.76.3,10.14q.08,4.32,0,8.66c-2.54,0-5.08,0-7.61,0l-13.92.22-7,.19-7,.26H643a.73.73,0,0,0-.7.75c.1,3.37.26,6.75.29,10.13s.06,6.75,0,10.13v0a.45.45,0,0,0,.45.45h0c4.66.09,9.37.36,14.11.51s9.5.22,14.2.14,9.38-.18,14-.37h0c.11,3.13.24,6.25.28,9.38.05,3.38.05,6.76,0,10.13a.46.46,0,0,0,.46.47h0c4.66.09,9.36.36,14.11.51s9.5.22,14.19.14l1.33,0c.15-.72.32-1.44.48-2.16-.91,0-1.83,0-2.73-.06-4.59-.08-9.12-.08-13.65.14s-8.81.39-13.27.49c-.06-3.21-.06-6.43,0-9.64s.17-6.24.27-9.35l6.23.25,7,.17,13.92.22c2.16,0,4.35.06,6.52.06.24-1,.47-2,.71-3.06-2.77,0-5.51.05-8.27.17l-12.88.2-.75,0c0-1.89,0-3.78,0-5.68.05-1,.11-2,.16-3,.15-3,.31-6.13.41-9.24,2.49,0,5,0,7.45,0,3.48-.06,7-.15,10.38-.25l7.08.11c.14-.93.28-1.86.41-2.79l-12.41.19Zm-7.43,20.54-5.3.13-7,.28h-.06a1,1,0,0,0-.24,0l-1.49,0c-4.69-.18-9.3-.3-13.87-.37s-9.12-.08-13.65.14-8.82.39-13.27.5q-.1-4.83,0-9.65c0-3.12.16-6.23.26-9.35l6.24.24,7,.18,13.92.22q7,.1,13.92,0c4.28,0,8.56-.14,12.85-.27.09,2.87.26,5.75.4,8.7l.32,5.69C698.41,252.17,698.4,253.37,698.38,254.55Z" fill="#dad7f2"/><path d="M172.38,332.54,160,332.35q.19,1.39.42,2.79l7.07-.11c3.43.1,6.9.19,10.38.25,2.47,0,5,.05,7.45,0,.1,3.11.27,6.21.41,9.24.05,1,.11,2,.17,3,0,1.89,0,3.79,0,5.68l-.74,0-12.89-.2c-2.75-.12-5.5-.17-8.27-.17.24,1,.48,2,.71,3.05,2.18,0,4.36,0,6.52-.05l13.93-.22,7-.17,6.23-.25c.1,3.11.24,6.23.28,9.34s0,6.44,0,9.65c-4.47-.1-8.89-.35-13.28-.49s-9.06-.22-13.64-.14c-.91,0-1.83,0-2.74.06.16.72.33,1.43.48,2.16l1.33,0c4.69.08,9.45.08,14.19-.14s9.45-.42,14.11-.51h0a.47.47,0,0,0,.46-.47c-.07-3.37-.07-6.75,0-10.14,0-3.12.17-6.24.28-9.37h0c4.6.18,9.27.29,14,.37s9.45.07,14.2-.14,9.45-.42,14.11-.51h0a.45.45,0,0,0,.45-.45v0c-.07-3.38-.07-6.75,0-10.13s.19-6.76.29-10.13a.72.72,0,0,0-.69-.75h-.06l-7-.27-7-.18-13.91-.22q-3.81,0-7.62,0-.06-4.33,0-8.66c.05-3.38.19-6.76.3-10.14a.74.74,0,0,0-.7-.75h-.06l-6.95-.26-7-.19-13.93-.22q-7-.09-13.92,0c-1.78,0-3.56,0-5.33.09-.06.89-.09,1.78-.11,2.67,1.81,0,3.63.07,5.44.08q7,.12,13.92,0l13.93-.22,7-.18,6.23-.24c.1,3.12.24,6.23.27,9.35.05,2.88,0,5.78,0,8.67-1.8,0-3.6,0-5.4,0-4.42,0-8.84.15-13.27.28h-.72l-7-.28Zm14.34,17.16L187,344c.15-2.95.31-5.84.4-8.7,4.29.12,8.57.23,12.85.27q7,.1,13.93,0l13.91-.22,7-.18,6.24-.24c.1,3.12.23,6.23.26,9.35s.06,6.43,0,9.64c-4.45-.1-8.87-.35-13.26-.49-4.54-.22-9.07-.22-13.66-.14s-9.18.19-13.87.37l-1.49.05a1,1,0,0,0-.24-.05H199l-6.95-.28-5.3-.13C186.74,352.07,186.73,350.88,186.72,349.7Z" fill="#dad7f2"/><path d="M568.16,87.66a1.37,1.37,0,0,1-1.38-1.37V47.1a1.38,1.38,0,0,1,2.75,0V86.29A1.37,1.37,0,0,1,568.16,87.66Z" fill="#d4d3ef"/><path d="M638.74,381c-3.71.23-7.54.42-11.43.56s-7.85.25-11.83.31-8,.06-12-.12-8-.35-11.94-.43h0a.39.39,0,0,1-.38-.4h0q.09-4.29,0-8.57c0-2.86-.16-5.72-.25-8.58a.61.61,0,0,1,.59-.63h0l5.89-.23,5.89-.16,11.78-.18c3.93,0,7.86-.06,11.78,0s7.86.13,11.79.25h.05a.92.92,0,0,1,.9.94c-.07,3-.25,5.92-.39,8.81-.06,1.45-.15,2.87-.24,4.27Zm-.17-.16-.48-8.73c-.14-2.82-.31-5.59-.38-8.34l.95.95c-3.93.12-7.86.22-11.79.26s-7.85.05-11.78,0l-11.78-.19-5.89-.15-5.89-.23.63-.64c-.09,2.86-.21,5.72-.25,8.58s0,5.71,0,8.57l-.39-.4c3.9-.07,7.78-.31,11.62-.43s7.67-.19,11.55-.12,7.77.16,11.74.31S634.43,380.63,638.57,380.86Z" fill="#dad7f2"/><path d="M660.69,398.17c-3.72.22-7.54.42-11.43.56s-7.85.25-11.83.3-8,.07-12-.11-8-.36-11.95-.43h0a.38.38,0,0,1-.38-.39h0q.07-4.29,0-8.58c0-2.85-.16-5.71-.25-8.57a.61.61,0,0,1,.59-.63h0l5.9-.23,5.89-.15,11.78-.18c3.93-.06,7.85-.06,11.78,0s7.86.13,11.79.25h0a.92.92,0,0,1,.89.95c-.07,3-.24,5.92-.38,8.81-.07,1.45-.15,2.87-.24,4.27Zm-.17-.16-.48-8.73c-.14-2.83-.31-5.6-.38-8.34l1,.95q-5.9.18-11.79.25c-3.93.06-7.85.06-11.78,0L625.26,382l-5.89-.15-5.9-.23.64-.64c-.09,2.86-.22,5.72-.25,8.57s-.05,5.72,0,8.58l-.4-.4c3.91-.08,7.79-.31,11.63-.43s7.67-.19,11.55-.12,7.77.16,11.74.31S656.38,397.78,660.52,398Z" fill="#dad7f2"/><path d="M619.45,415.32c-3.71.22-7.53.41-11.43.55s-7.85.25-11.82.31-8,.07-12-.11-8-.36-11.94-.44h0a.39.39,0,0,1-.38-.4h0q.09-4.28,0-8.57c0-2.86-.16-5.71-.25-8.57a.63.63,0,0,1,.59-.64h0l5.89-.23,5.89-.15,11.78-.19q5.9-.08,11.79,0c3.92,0,7.85.13,11.78.25h0a.93.93,0,0,1,.9.95c-.07,3-.25,5.92-.39,8.81-.06,1.44-.15,2.87-.24,4.27Zm-.16-.17-.49-8.72c-.13-2.83-.31-5.6-.38-8.34l1,1q-5.89.18-11.78.25t-11.79,0L584,399.11l-5.89-.16-5.89-.23.64-.63c-.09,2.86-.22,5.71-.26,8.57s0,5.72,0,8.57l-.4-.39c3.91-.08,7.78-.31,11.62-.44s7.67-.18,11.55-.11,7.77.15,11.74.31S615.15,414.93,619.29,415.15Z" fill="#dad7f2"/><path d="M613.56,398.17c-3.72.22-7.54.42-11.43.56s-7.85.25-11.83.3-8,.07-12-.11-8-.36-11.94-.43h0a.38.38,0,0,1-.38-.39h0q.07-4.29,0-8.58c0-2.85-.16-5.71-.25-8.57a.61.61,0,0,1,.59-.63h0l5.89-.23,5.9-.15,11.78-.18c3.93-.06,7.85-.06,11.78,0s7.86.13,11.78.25h.06a.92.92,0,0,1,.89.95c-.07,3-.24,5.92-.38,8.81-.07,1.45-.15,2.87-.24,4.27Zm-.17-.16-.48-8.73c-.14-2.83-.31-5.6-.39-8.34l1,.95q-5.88.18-11.78.25c-3.93.06-7.85.06-11.78,0L578.13,382l-5.9-.15-5.89-.23.64-.64c-.09,2.86-.22,5.72-.25,8.57s-.05,5.72,0,8.58l-.4-.4c3.91-.08,7.78-.31,11.63-.43s7.66-.19,11.55-.12,7.77.16,11.74.31S609.25,397.78,613.39,398Z" fill="#dad7f2"/><path d="M587.09,127.53H549.23a2.26,2.26,0,0,1-2.26-2.26l5.64-37.85a2.26,2.26,0,0,1,2.25-2.26h26.59a2.25,2.25,0,0,1,2.25,2.26l5.64,37.85A2.26,2.26,0,0,1,587.09,127.53Z" fill="#dad7f2"/><path d="M556.64,127.53a11.45,11.45,0,0,0-.12,1.56,11.64,11.64,0,0,0,23.27,0,11.45,11.45,0,0,0-.12-1.56Z" fill="#d4d3ef"/><path d="M212.1,193.19a1.37,1.37,0,0,1-1.37-1.37V152.63a1.38,1.38,0,0,1,2.75,0v39.19A1.37,1.37,0,0,1,212.1,193.19Z" fill="#d4d3ef"/><path d="M231,233.06H193.17a2.26,2.26,0,0,1-2.25-2.26l5.63-37.86a2.26,2.26,0,0,1,2.26-2.25H225.4a2.25,2.25,0,0,1,2.25,2.25l5.64,37.86A2.26,2.26,0,0,1,231,233.06Z" fill="#dad7f2"/><path d="M200.58,233.06a13.15,13.15,0,0,0-.11,1.55,11.64,11.64,0,1,0,23.27,0,11.31,11.31,0,0,0-.12-1.55Z" fill="#d4d3ef"/><path d="M454.6,252.22s-2.77.21-4.11-1.41l.06-.24a5.15,5.15,0,0,1-3.18-.46l.66-1.28a5.22,5.22,0,0,1-4.84-2.68c-1.67-3-1.51-3.86-1.51-3.86l2-.21-1.19-.63a14.22,14.22,0,0,0,.3-5.91s1.79,1.49,3,1.36l.53.74v-.86l.59,1.15.13-.87s3.77.87,5.74,2.89l-.14.85.61-.38S458.07,243.65,454.6,252.22Z" fill="url(#a4352546-8671-4795-b178-eb8b7d119858)"/><path d="M450.8,248.29c4.78-1,3.83-5,2.7-7.6,1,.93,4,4.36,1.1,11.53,0,0-2.77.21-4.11-1.41l.06-.24a5.15,5.15,0,0,1-3.18-.46l.66-1.28a5.22,5.22,0,0,1-4.84-2.68c-1.67-3-1.51-3.86-1.51-3.86S443.7,249.73,450.8,248.29Z" fill="url(#acf52380-4206-4ddc-a069-16e2a8db1984)"/><path d="M445.72,236.9l.53.74v-.86l.59,1.15.13-.87s3.77.87,5.74,2.89l-.14.85.61-.38s4.71,3.11,1.62,11.32c-2.94-6.1-12-16.2-12-16.2S444.55,237,445.72,236.9Z" fill="url(#b13b0d2b-593e-4480-a09e-9b194acc7a8e)"/><path d="M453.52,232s6.29,62.24,7.5,75.15c0,0-.89,1.66-1.81,1.84,0,0-5.88-73.93-6.59-77C452.62,231.94,452.91,230.5,453.52,232Z" fill="url(#a1b341dd-8073-4b37-a8ce-ecb6b3dd921e)"/><path d="M461,307.14s-.89,1.66-1.81,1.84l-.86-10.74c.38,3.78.4,5.07,1.22,4.91,1.21-.24-4.8-53.19-6.54-67.78-.19-1.88-.33-3.09-.41-3.43l1,.62C454.2,238.77,459.88,295,461,307.14Z" fill="url(#a9eae3a0-e21a-4faa-9537-08c2d7293002)"/><path d="M456.23,266s6.45-2.13,10.43-6.83l-1.15-.28s2.55-1.39,3.31-3.18l-1.29-.23s5-2.7,2.82-9.6l-.9.47s1.73-2.52-.57-9.75l-1.57,3.77-.38-1.33a12.66,12.66,0,0,0-4.34,3.15l-.1,1.36-.33-1.21-.13,1.87-.42-1.38a13.48,13.48,0,0,0-3.28,5.66l.32,2-.87-2S451.51,251.84,456.23,266Z" fill="url(#bd0d75c9-fd29-4cac-a0f9-48b1a2e12e4e)"/><path d="M449.84,228.32a24.08,24.08,0,0,1-6.76-8.36c-2.51-5.29-3.72-7.27-6.32-6.75,0,0,11-13.68,21.84-4.54S452.75,229.1,449.84,228.32Z" fill="url(#fd449775-f588-41da-b2ce-01835281df13)"/><path d="M449.84,228.32a24.08,24.08,0,0,1-6.76-8.36c-2.51-5.29-3.72-7.27-6.32-6.75,0,0,.3-.37.85-1l1.19.78a4.46,4.46,0,0,0,5.66.3c2.93-2.21,3.51-4,6.73-4.87,2.86-.81,1.05-4.84-7.13-1.19,4.05-2.11,9.32-3,14.54,1.39C469.41,217.82,452.75,229.1,449.84,228.32Z" fill="url(#a95c1af3-98ad-4c9e-8b59-7d9ac69f8bf6)"/><path d="M443.37,217.52a10,10,0,0,1,3.62-6.11l.39.34.26-.78s8.07-1,11,1.34S457.19,227.8,443.37,217.52Z" fill="url(#b77f3746-3e6e-426f-a398-c5575f8870e6)"/><path d="M443.37,217.52a10,10,0,0,1,3.62-6.11l.39.34.26-.78s8.07-1,11,1.34S457.19,227.8,443.37,217.52Z" fill="url(#a10088e5-33f5-475e-afae-b3efbc497b4e)"/><path d="M460.36,216.12c.38.17,3.27-3.61,3.69-5.78s-3.61-2.4-3.61-2.4l-.76,1-.8-1.09s-5.54,2.18-7.69.61c0,0-3.63,4.06-1.09,8.42S460.36,216.12,460.36,216.12Z" fill="url(#b90ee7a7-74a3-49f5-8d14-84e141b11ea0)"/><path d="M460.36,216.12c.38.17,3.27-3.61,3.69-5.78s-3.61-2.4-3.61-2.4l-.76,1-.8-1.09s-5.54,2.18-7.69.61c0,0-3.63,4.06-1.09,8.42S460.36,216.12,460.36,216.12Z" fill="url(#bf955569-477b-48a8-af17-59a6b3ef098e)"/><path d="M459.53,212.49s1.34-1.63,1.19-2.63c0,0-1.22-1.85-4.59-.35,0,0-4.25-.11-5.65,1.43s1.25,4.58,4.73,3.89S459.53,212.49,459.53,212.49Z" fill="url(#b2182f0e-5fcf-4f6a-942f-cb26d7517bd0)"/><path d="M453.43,211.46l-.47-1.1s.46-.92,2.79-1.31l.38.46.2-.46a1.57,1.57,0,0,1,.67,2.45C455.87,213.12,453.9,213,453.43,211.46Z" fill="url(#b0c25b32-42ad-46e1-a305-9d0925586ceb)"/><path d="M453.43,211.46l-.47-1.1s.46-.92,2.79-1.31l.38.46.2-.46a1.57,1.57,0,0,1,.67,2.45C455.87,213.12,453.9,213,453.43,211.46Z" fill="url(#e1d330aa-f767-4257-865d-88c39095210b)"/><path d="M453,213.44l-1-1.87a6.38,6.38,0,0,0,2.15-.58c.62-.43,1.62-2.32,4.09-1.73a5.84,5.84,0,0,1-1.23,4.29A2.42,2.42,0,0,1,453,213.44Z" fill="url(#b61f2af4-7b19-4ffd-b3c2-761830f1a21e)"/><path d="M449.92,217.09s-2.52-2.2-1.76-4.86c0,0,4.19,1.52,7.27.32l.18.49.19-.9s3.91-.37,5.37-1.74c0,0,1.9,4.35-1,7.4S452.16,220.8,449.92,217.09Z" fill="url(#b2acfe23-e2b1-43ad-99fb-d95017896c0b)"/><path d="M452.23,229.23s-8.88.17-9.71-13.07c0,0,7-2.09,13.08-1.29l.34.89.43-1.08a12,12,0,0,1,5.88-4.33,6.72,6.72,0,0,1,4.35,0,5.65,5.65,0,0,0-2.83,4C463.49,216.92,463.34,227.32,452.23,229.23Z" fill="url(#ac0223f6-397d-4623-9393-b1902f042570)"/><path d="M452.58,229.92s-8.88.17-9.71-13.07c0,0,7-2.09,13.08-1.28l.34.88.43-1.08A12,12,0,0,1,462.6,211a6.74,6.74,0,0,1,4.36,0,5.68,5.68,0,0,0-2.84,4C463.84,217.61,463.69,228,452.58,229.92Z" fill="url(#b9b32941-3eef-494a-824c-a16823e53ed5)"/><path d="M456.1,225.68c9.44-3.36,7.43-10.73,7.83-11.37,0-.05.13,0,.28.13a4.51,4.51,0,0,0-.09.53c-.28,2.64-.43,13-11.54,14.95,0,0-8.88.17-9.71-13.07C442.87,216.85,446.65,229,456.1,225.68Z" fill="url(#a6b03ba2-ba99-4476-af0b-75c92913440f)"/><path d="M452.93,233.31a24.13,24.13,0,0,0-6.45-5.62,5.42,5.42,0,0,1,3.12.73l-1.09-1.72s2.77.68,3.91,2.06l-.76-1.64a11.49,11.49,0,0,1,1.49,1.38,8.54,8.54,0,0,1,2-3s-1,2.69-.66,3.6a11.23,11.23,0,0,1,1.54-2.09,10.32,10.32,0,0,0-.52,2.14s2.73-2.29,4.85-2.39A60.73,60.73,0,0,0,452.93,233.31Z" fill="url(#b5c5b6ce-44f5-44fe-8654-b8a45516c7f1)"/><path d="M469.45,246.31l.9-.47c2.14,6.9-2.82,9.6-2.82,9.6l1.29.23c-.76,1.79-3.31,3.18-3.31,3.18l1.15.28c-4,4.7-10.43,6.83-10.43,6.83,11.5-20,12.65-29.4,12.65-29.4C471.18,243.79,469.45,246.31,469.45,246.31Z" fill="url(#bc90b21a-b17e-47b6-85e0-5aec907a4861)"/><path d="M469.45,246.31l.9-.47c2.14,6.9-2.82,9.6-2.82,9.6l1.29.23c-.76,1.79-3.31,3.18-3.31,3.18l1.15.28c-4,4.7-10.43,6.83-10.43,6.83-3.64-10.89-.74-15.37.78-16.84l.11.08s-3.26,4.27.34,10.91,15.46-11.19,11.42-23.55C471.18,243.79,469.45,246.31,469.45,246.31Z" fill="url(#bc90b21a-b17e-47b6-85e0-5aec907a4861)"/><path d="M448.87,229.29c1.72,1.08,3.85,2.26,4.58,2,1.3-.44,6-3.94,6-3.94a.45.45,0,0,0,0,.08,53.29,53.29,0,0,0-6.57,5.87A26.62,26.62,0,0,0,448.87,229.29Z" fill="url(#e0ede482-2ad1-4873-833f-908d755ec2f8)"/><path d="M465,211.47s-5-.95-8.17,4.73c0,0,1.15-1.73,4.72-3S466.17,212.16,465,211.47Z" fill="url(#a09e6973-46de-4cda-a15e-fdc7bfaa0b28)"/><path d="M444,216.75s11.07-2.44,11.73,0-.85,11-4,10S443.77,222.24,444,216.75Z" fill="url(#a08db094-cb44-4ab2-935f-deec2607aacc)" style="mix-blend-mode:overlay"/><path d="M449.38,206.21s3.29.5,0,1.44a18.86,18.86,0,0,0-8.22,5.78,1.14,1.14,0,1,1-1.74-1.44C440.69,210.77,443.38,207.23,449.38,206.21Z" fill="url(#aa2be58b-fc21-413f-80db-e24a8d913cc0)" style="mix-blend-mode:overlay"/><path d="M193.73,621.54V626s-.37,5.62,45,5.62c0,0,17.24,1.13,32.69-4.48a2.37,2.37,0,0,0,1.53-2.47l-.31-3.12Z" fill="#bcbec0"/><rect x="227.28" y="442.75" width="11.22" height="178.12" fill="#d1d3d4"/><ellipse cx="233.2" cy="621.54" rx="39.47" ry="6.65" fill="#d1d3d4"/><rect x="227.28" y="442.75" width="11.22" height="178.12" fill="#d1d3d4"/><path d="M628,621.54V626s-.37,5.62,45,5.62c0,0,17.24,1.13,32.69-4.48a2.37,2.37,0,0,0,1.53-2.47l-.31-3.12Z" fill="#bcbec0"/><path d="M359.48,621.54V626s-.75,5.62,92.89,5.62c0,0,35.57,1.13,67.45-4.48,2.09-.36,3.39-1.4,3.17-2.47l-.64-3.12Z" fill="#bcbec0"/><path d="M494,592.32s7.08,7.81,5.62,17.81l-.49,7.57H424.68s-1.22-10.25,14.88-10c0,0,9.52.25,23.91-13.66Z" fill="#2761d3"/><path d="M468.86,582.44,463.47,594s18.3,8.78,30.5-1.71l-.48-5.61Z" fill="#ffc596"/><path d="M539.36,618.43h74.18s1.46-20.5-7.08-27.82l-29,4.39s-15.37,14.89-28.55,14.16C548.87,609.16,537.89,608.91,539.36,618.43Z" fill="#2761d3"/><path id="b538f290-38dd-40fd-a42c-742f4e7027ba" data-name="SVGID" d="M508.37,410.05s6.83-17.57,28.3-22c0,0,56.61-16,85.53-17.08L542,462.76s-32.16,101.7-44,123.4a6.9,6.9,0,0,1-5.26,3.59c-5.26.63-15.65.6-23.94-7.31a5.42,5.42,0,0,1-1.7-4.55C469.24,559.36,483.23,442.37,508.37,410.05Z" fill="#2c2e63"/><g clip-path="url(#e1b47e1d-f582-4837-b652-7f070f1e561a)"><path d="M484,589.64s16.59-16.6,30.26-92.24c0,0,7.8-40,8.78-70.76,0,0-2-32.21,25.86-41.48,0,0,13.18-4.39,36.61-8.78l-47.34,70.76,3.9,15.62s-26.48,86.25-44,123.4C498.06,586.16,497.15,591.59,484,589.64Z" opacity="0.2"/></g><path d="M384.92,571.73s9.48,26,17.49,32.06l-8.7,6.34-8.79.88-19.65-25.8-3.22-12Z" fill="#ffc596"/><path d="M332.93,379.47s4.15,2.76.73,8.62l-8.05-6.34S329.76,379.64,332.93,379.47Z" fill="#2c2e63"/><path d="M332.93,379.47s4.15,2.76.73,8.62l-8.05-6.34S329.76,379.64,332.93,379.47Z" opacity="0.2"/><path d="M306.43,293.87l4.65,12.82s29.74-21.11,53.4-47c0,0,1-4.48,6.07-14.07,0,0,3.2-11.83,6.08-8.64l-1.92,11.2s1.6,3.51,5.44-3.2c0,0,10.55-23.34,13.11-11.83l-.64,16s.32,6.72-14.07,21.43c0,0-32.93,51.79-58.51,71.3l-26.39-3.79s-2.93,0-12.57-26.72c0,0,9.92-11.1,11.81-21.63,0,0,6.67-.6,9.69-4.17l2,2.52Z" fill="#ffc596"/><path d="M283.36,308.3l9.2,25.08s12.27-6.85,24.37,4.34c0,0,37.36-37.73,53.6-59l6.68-9s11.68-12.74,15.41-20.54c0,0,.8,6.25-14.07,21.43,0,0-31.94,50.35-58.51,71.3l-26.39-3.79s-3.29-.2-12.57-26.72Z" fill="#ffa072"/><path d="M229.06,231.29S214.93,218,226.61,208.2c0,0,12.5-7.34,9.24-21.74,0,0-6.52-22.82,10.59-32.05,0,0,5.44,0,10.6-10.33,0,0,3.26-9,16.3-4.62a26.17,26.17,0,0,0,11.68-.81s9-3.26,16.58,8.42a38.52,38.52,0,0,1,7.6,39.12s-3.53,10.87,3,18.48a25.16,25.16,0,0,1,7.4,19.34A21.66,21.66,0,0,1,314,236.85c-3.8,4.28-9.42,12.32-6.43,20,0,0,11.41,25.81-3,31.24l-45.91-55.69-26.62-3Z" fill="#2c2e63"/><path d="M219,244.87l-11.5,19.75s.38,12,15.26,11c0,0,20.85-.92,24.76-20.08,0,0,2.32-17.42-11.71-20.47C235.82,235.1,228.06,232.69,219,244.87Z" fill="#ffc596"/><path d="M599.3,165.45c-1.49-14.64-6.37-13.6-6.37-13.6-7.32.73-4.28,10.54-4.28,10.54s4,5.93,0,6.93-3.83-2.1-3.83-2.1c-.77-7.33-3.8-18.86-3.8-18.86-2.31-10.41-14.73.53-14.73.53-6.56,6.17-10.8,6.56-10.8,6.56s3.17,27.38,9.52,38a9.67,9.67,0,0,0,7.23,4.64c2.89.32,7.39.17,13.71-1.81,0,0,6.17,17,6.55,23.91A201.59,201.59,0,0,0,616,194.09a1.15,1.15,0,0,1,.14-.17c.39-.45,2.16-2.73,2.27-7.46a1.9,1.9,0,0,0-1.36-1.92,10.25,10.25,0,0,1-6.39-5.19S600.52,177.4,599.3,165.45Z" fill="#ffc596"/><path d="M556.44,162.39s-13.32-.39-15-14.68a21.76,21.76,0,0,1,1.29-10c2.28-6.26,7.45-16.28,15.94-10.91,0,0,3.18,3.91,5.86.73,0,0,9.27-12.93,28.06-4.39,0,0,2.93,2.2,5.86,1.22,0,0,7.56-2.19,10.25,6.1,0,0,5.38,13.67,2,48.93,0,0-10.49-1.83-11.71-14,0,0-.49-13.18-5.86-13.18,0,0-5.07-.18-4.92,6.47a12.16,12.16,0,0,0,1.5,5.32c.9,1.71,1.72,4.35-1,5.39a2.87,2.87,0,0,1-4.24-1.92s-2-14-3.86-18.89c0,0-1-10.19-14.26.38,0,0-4.68,5.23-10.8,6.56Z" fill="#2c2e63"/><path d="M585.94,196.31s9.78-3.67,14.66-11.72c0,0,.49,7.32-12.44,18.06Z" fill="#ffa072"/><path d="M582.79,237.3s-11.47,22,2.44,49.28l18.06,40.75,16.35,30.75s2.44,3.41-.74,5.85c0,0-6.34,2.69-3.17,8.79,0,0,5.13,12.69,48.8,16.83,0,0,53.44,9.52,49.29-5.61,0,0-.49-8.29-8.3-23.91,0,0-11.22-15.62-17.56-48.31l-14.4-58.81s-10.25-40.5-23.42-48.07c0,0-12.45-10.49-20.74-8.29l-32.94,27.08s-8.3-.49-8.54.25S582.79,237.3,582.79,237.3Z" fill="#2761d3"/><path d="M598.41,316.84,600.6,322l37.34-12.45-8.06-41s3.66,37.7-3.66,39.53Z" opacity="0.2"/><path d="M580.11,244.62l-25.92,62.66a2.45,2.45,0,0,1-3.18,1.34l-60.21-24s-1.95,18.06-7.81,23.43c0,0,44.44,33.44,62.39,38.87a3.65,3.65,0,0,0,1.23.16c4.67-.17,34.74-2.61,51-35.9l-12.43-24.61S576.55,271,580.11,244.62Z" fill="#2761d3"/><path d="M485.92,303.67l42.85,27.16c20,12.68,46.82,4.79,56.29-16.92l.42-1a96.6,96.6,0,0,0,1.95-21.23L596,311.23s-14.54,34.14-49.36,35.86c0,0,.07.5-8-2.68A439,439,0,0,1,483,308.06Z" opacity="0.2"/><path d="M483,308.06l-10.36-8.13s8.51-8.16,8.51-20.07l9.66,4.77S489.66,301.54,483,308.06Z" fill="#2c2e63"/><path d="M481.14,279.86s-11.57-10.21-15.32-9.87c0,0-30.78.05-16.33,5.78,0,0-3.06,4.09.68,4.77,0,0-2,3.74,0,5.1,0,0-.34,3.75,2,3.75,0,0-1.7,5.44,3.75,6.12l18,2.72S480.46,292.79,481.14,279.86Z" fill="#ffc596"/><line x1="449.49" y1="275.77" x2="457.98" y2="275.42" fill="none" stroke="#ffa072" stroke-miterlimit="10" stroke-width="0.25"/><line x1="450.17" y1="280.54" x2="457.13" y2="280.8" fill="none" stroke="#ffa072" stroke-miterlimit="10" stroke-width="0.25"/><line x1="450.17" y1="285.64" x2="457.41" y2="285.05" fill="none" stroke="#ffa072" stroke-miterlimit="10" stroke-width="0.25"/><line x1="452.21" y1="289.39" x2="457.98" y2="289.58" fill="none" stroke="#ffa072" stroke-miterlimit="10" stroke-width="0.25"/><path d="M563.53,334.17s-13.57-7-17-3.63l-21.08,13.81s-2.67,1.69.24,2.66l39,.21Z" fill="#ffc596"/><line x1="525.49" y1="344.35" x2="540.51" y2="342.65" fill="none" stroke="#ffa072" stroke-miterlimit="10" stroke-width="0.25"/><line x1="531.79" y1="340.23" x2="541" y2="338.53" fill="none" stroke="#ffa072" stroke-miterlimit="10" stroke-width="0.25"/><path d="M577.91,591.1l-.24,5.12s21.47,8.06,28.55-4.63l-1-10.49Z" fill="#ffc596"/><ellipse cx="260.71" cy="183.88" rx="5.03" ry="6.66" fill="#ffc596"/><path d="M256,185.92l9.78-2s12,2.31,29.35-15.62c0,0,1.63-3.26,4.07.27,0,0,3.53,1.36,2.45,15.76,0,0-4.62,34.23-20.11,31l-7.06-1.08-1.63,17.11s12.49.82,17.38,16.3l7.07,18.48a20.25,20.25,0,0,1-4.89,6.79l-35.05-9.78-13.58-27.17-11.68-6.52,13.26-18.71a11.92,11.92,0,0,1,4.41-3.81c2.78-1.38,6.84-3.49,7.91-7.8,0,0,.5-1.47-1.4-5.54,0,0-1.09-2.18-.28-7.61" fill="#ffc596"/><path d="M267.64,181.85s-3.26,12,.54,15.48c0,0,4.89,3.26.27,7.34,0,0-2.17,3.26,1.36,4.89a8,8,0,0,1-.54,7.06s4.34-2.72,1.63-8.69c0,0-1.09-2.18,1.9-3a7.24,7.24,0,0,0-1.63-8.15s-2.72-5.44,1.63-15.76Z" fill="#2c2e63"/><path d="M250.08,206.7s-6.08,11,2.61,25.13l13.86,26.9-17.93-22.82s-7.88-10-16.57-6.52l13.43-18.95a11,11,0,0,1,4.6-3.74Z" fill="#ffa072"/><path d="M219,244.87a26.4,26.4,0,0,1,13-15.48s8.69-6.52,21.46,12.77c0,0,14.13,19.29,21.19,23.91,0,0,9.51,5.16,9.78-8.7,0,0-2.25-21.24-8.22-25.31,0,0,5.33-2.15,8.85,10.3a247.33,247.33,0,0,1,8.25,28.31,42.5,42.5,0,0,1-5,30.59,72.06,72.06,0,0,1-7.28,10.09s-14.64,23.06-20.86,37.7l-56-2.2,32.21-66.61s-11.93,12.82-30,8.42c0,0-9.44-2-7.32-11.63a17.4,17.4,0,0,1,4.33-8l4.08-4.42s.49,13.67,19.77,10c0,0,17.08-2.93,19.76-19,0,0,3.42-16.6-11.22-20.5C235.82,235.1,228.3,232.69,219,244.87Z" fill="#ff2045"/><path d="M297.25,266.07s9.49,2.53,7.95,14.5a9,9,0,0,1-4.57,6.73,24.1,24.1,0,0,1-7.74,2.42s2.43-6.34.63-18.09C293.52,271.63,294.72,270.67,297.25,266.07Z" fill="#ff2045"/><path d="M297.25,266.07s9.49,2.53,7.95,14.5a9,9,0,0,1-4.57,6.73,24.1,24.1,0,0,1-7.74,2.42s2.43-6.34.63-18.09C293.52,271.63,294.72,270.67,297.25,266.07Z" opacity="0.2"/><path d="M199.2,357.83S169,405,202.11,426.16c0,0,21.64,16,92.89,9.48,0,0-9.24-9.48,16.29-40.85,0,0,8.51-12.89,21.64-15.32l-59.81-21.39Z" fill="#2c2e63"/><rect x="182.38" y="431.58" width="101.99" height="14.58" rx="7.13" fill="#d1d3d4"/><rect x="616.65" y="431.58" width="101.99" height="14.58" rx="2.13" fill="#d1d3d4"/><rect x="661.55" y="442.75" width="11.22" height="178.12" fill="#d1d3d4"/><ellipse cx="667.47" cy="621.54" rx="39.47" ry="6.65" fill="#d1d3d4"/><ellipse cx="440.92" cy="621.54" rx="81.43" ry="6.65" fill="#d1d3d4"/><path id="a67db6c8-9340-4fba-b238-ff604ea6ce3f" data-name="SVGID" d="M293.89,435.43s32.58-1.83,35.87,6.58l19,73.57,13.18,45s1.83,6.22,0,10.61c0,0,14.3,1.8,21.09-1.16,0,0-3-11.4-1.33-38.73,0,0-1.22-61.24-3.9-84.43,0,0-5.37-43.43-21.72-52.21l-27.57-13.91s-9.1,1.06-18.21,13.63a109.91,109.91,0,0,0-15.8,26.49,12.64,12.64,0,0,0-.86,2.87A28.35,28.35,0,0,0,293.89,435.43Z" fill="#ffc596"/><g clip-path="url(#abb43e60-56e2-4b53-8840-e28ab45067a4)"><path d="M297.63,414.57S315.8,420,332.88,420c0,0,5.82-5.45,9.09,29.81,0,0,3.27,44.34,16.72,88.69,0,0,6.18,25.44,13.45,27.26,0,0,15.27.72,2.91,11.27,0,0-7.27,11.26,16.35,32.35,0,0-4.06,1.59-6.19-2.13,0,0-9.09-6.41-20.68-32.94l-2.07-4.09-24.4-68.44-15.38-54.91L292.91,436l-6.83-10.12Z" fill="#ffa072"/></g><path id="ef7cfe1d-40ac-4c80-91fe-3e000b25a24f" data-name="SVGID" d="M267.28,565.18s5.91-38.71,15-76.43l14.87-54.53s30.95-.23,32.57,7.79l4.83,18.39-45.37,99.11s-2.22,4.69-1.48,7.64C287.74,567.15,272.7,569.13,267.28,565.18Z" fill="#ffc596"/><path d="M288.23,569.13s6.41,29.09,12.58,36.73a24.7,24.7,0,0,0-13.87,4.88s-1.28,2.75-7.14-7.87c0,0-6.77-7.68-8.6-16.47l-4.76-18.48Z" fill="#ffc596"/><path d="M262.23,584.57l-.9-.54a1.68,1.68,0,0,1-.81-1.64c.48-4.07,2.46-18.14,6.76-17.21,0,0,2.85,3.45,19.45,2.06a2.32,2.32,0,0,1,2.19,1c.35.59.35,1.29-.95,1.87a5.64,5.64,0,0,1-2.9.39l-14.31-1.61a1.77,1.77,0,0,0-1.93,2.17c.68,2.86,2,8,3.93,14.67a52,52,0,0,0,6.12,13.36l5.59,8.67a2.39,2.39,0,0,0,3.07.86c3.35-1.66,10.25-4.65,13.27-2.8,0,0,14.68,9.64,10.1,11.29,0,0-23.42,3.84-31.48-9.52,0,0-12.44-26-14.27-19.21l-3.61,21a1.33,1.33,0,0,1-1.59,1.07h0a1.33,1.33,0,0,1-1-1.48Z" fill="#ff2045"/><path d="M361.15,571.09l-1.47,17a1.65,1.65,0,0,0,.85,1.58l1.07.59.52,23.25a1.4,1.4,0,0,0,1.48,1.36h0a1.4,1.4,0,0,0,1.3-1.39v-21s2.56-2.74,9.7,8.42c0,0,10.24,17.39,24.33,16.47,0,0,20.13-.18,16.11-4.76l-12.63-8.78s-3.66-2.38-9.51,4c0,0-3.85,4.76-7.69-.54,0,0-8.78-8.42-12.81-17.39,0,0-4.76-9.52-7.87-15.55,0,0,19.22.54,21.59-3.85,0,0,1.1-4.21-4.57-1.1a42.84,42.84,0,0,1-19.36.93A.88.88,0,0,0,361.15,571.09Z" fill="#ff2045"/><rect x="435.66" y="356.86" width="12.2" height="262.55" fill="#d1d3d4"/><path d="M199.46,283.41s-19.27,41.48-19,50.76c0,0-3.42,6.83,12.69,12.2l4.88.73,85.4.24,42-.22a1.14,1.14,0,0,0,.54-2.14L317,340a37.4,37.4,0,0,1-5.31-3.62c-3.13-2.52-10.11-6.25-18,1.65l-76.28-18.56,19.06-39.27a32.1,32.1,0,0,1-30,8.42S202.63,288.29,199.46,283.41Z" fill="#ffc596"/><path d="M591.82,226.8c-5.61,3.42-8.3,18.3-8.3,18.3s-6.59-21.47,6.59-35.38a43.63,43.63,0,0,1,2.38,10.5s14.4-13.46,23.46-26.13c0,0,2.35-2.34,2.41-7.63,0,0,.54-3.58,8.35,2.52,0,0,5.61,4.88,1.22,14.89a156.6,156.6,0,0,1-27.33,41.48,69.23,69.23,0,0,1-8.78-18.55Z" fill="#2761d3"/><path d="M591.82,226.8c-5.61,3.42-8.3,18.3-8.3,18.3s-6.59-21.47,6.59-35.38a43.63,43.63,0,0,1,2.38,10.5s14.4-13.46,23.46-26.13c0,0,2.35-2.34,2.41-7.63,0,0,.54-3.58,8.35,2.52,0,0,5.61,4.88,1.22,14.89a156.6,156.6,0,0,1-27.33,41.48,69.23,69.23,0,0,1-8.78-18.55Z" fill="#fff" opacity="0.2"/><path d="M666.85,252.42c8.17,37.68,7.8,63.78,6.95,75.45a16.81,16.81,0,0,1-10.66,14.57c-24.21,9.21-82.07,4.88-83.38,4.78,0,0,0,0,0-.05a65.16,65.16,0,0,0-1.45-19.67,0,0,0,0,1,0-.05c8.26-1.81,16.93-4,25.94-6.58,12.17-3.52,23.41-7.38,33.68-11.35q-4.22-22.32-8.42-44.65" fill="#2761d3"/><path d="M562.9,330.75l15.42-3.3a59.23,59.23,0,0,1,1.44,8.86,60.11,60.11,0,0,1,0,10.86l-15,.05Z" fill="#2c2e63"/><path id="b6a7dc8a-8a55-4fe9-b09b-4b4f37372533" data-name="SVGID" d="M713.1,388.6s10,39.78-22.32,45.79c0,0-39.67,10.55-109.21,8.36,0,0,27.09,121.14,25.62,139.44,0,0-4.39,10.62-27.45,9.89,0,0-1.83,1.09-3.66-4.4,0,0-39.16-93.69-45-125.53-3.51-19.11-5.44-36-3-49.1,2.1-11.42,10.48-20.67,21.32-24.84,14.53-5.59,42.54-15.06,66.38-15.49,0,0,4,12.69,48.8,16.83C664.53,389.55,703.35,396.68,713.1,388.6Z" fill="#2c2e63"/><g clip-path="url(#b8fb41f9-083e-48a3-ba05-ee9f1e467807)"><path d="M596.21,590.12s-.42-35.44-11.07-88.28a198.11,198.11,0,0,0-5-19.66c-3.81-12.26-10.37-36.78-6.82-50.66,0,0,39.05,6.83,93.21-.49,0,0,41-7.32,35.14-39,0,0,7.34-.44,11.48-3.39,0,0,10,39.62-22.32,45.79a376.64,376.64,0,0,1-72.36,8.36H581.57l11.71,53.92L603,550.35s4.15,19,3.91,32.7C607,583.05,605,586.46,596.21,590.12Z" opacity="0.2"/></g><rect x="164.33" y="347.1" width="553.4" height="10.74" rx="1.57" fill="#d1d3d4"/><path d="M298.47,194.59l.83,4.86A1.33,1.33,0,0,1,298,201h-1.78" fill="none" stroke="#ffa072" stroke-miterlimit="10"/><path d="M293.36,187.3a1.69,1.69,0,0,0,1.58-2.51c1.37-.27,1.28-1.11,1.28-1.11-.19.38-1.82.3-2.5.25h-.3a1.7,1.7,0,0,0-.06,3.39Z" fill="#2c2e63"/><path d="M290.36,180.79h0a.78.78,0,0,0,.83.81c1.54-.08,4.79,0,6.49,1.47,0,0-.75-2.81-6.5-3A.79.79,0,0,0,290.36,180.79Z" fill="#2c2e63"/><path d="M285.25,202.63a5.37,5.37,0,0,0,3.5,4.59,3.34,3.34,0,0,0,4-.95S288.66,208.36,285.25,202.63Z" fill="#f88968"/><path d="M560.3,178.46l.19,4.92a1.32,1.32,0,0,0,1.59,1.25l1.74-.35" fill="none" stroke="#ffa072" stroke-miterlimit="10"/><path d="M565.37,163.28h0a.79.79,0,0,1-.64,1c-1.53.24-4.7.94-6.05,2.78,0,0,.15-2.91,5.72-4.33A.8.8,0,0,1,565.37,163.28Z" fill="#2c2e63"/><path d="M574.21,184.65a5.38,5.38,0,0,1-3.41,4.65,3.35,3.35,0,0,1-4-.87S570.91,190.44,574.21,184.65Z" fill="#ffa072"/><ellipse cx="562.86" cy="168.53" rx="1.15" ry="1.67" transform="translate(-23.49 131.05) rotate(-13.01)" fill="#2c2e63"/><path d="M260.71,183.44a1.42,1.42,0,0,0-.44,1,1,1,0,0,0,.3.75,5.43,5.43,0,0,1,.8,1.05,1.48,1.48,0,0,1,.13.78.73.73,0,0,1-.42.62.73.73,0,0,0-.08-.56,1.62,1.62,0,0,0-.32-.41,7.52,7.52,0,0,1-.91-.83,1.66,1.66,0,0,1-.38-.76,1.56,1.56,0,0,1,.1-.86A1.22,1.22,0,0,1,260.71,183.44Z" fill="#ffa072"/><path d="M259,183.62a2.18,2.18,0,0,1-.2-2,2.21,2.21,0,0,1,1.72-1.38,2,2,0,0,1,1.18.17,1.49,1.49,0,0,1,.8,1,2.11,2.11,0,0,1-.06,1.07,8.83,8.83,0,0,1-.35.9,8.31,8.31,0,0,0-.36-1.7.66.66,0,0,0-.42-.34,1.22,1.22,0,0,0-.63-.05,1.77,1.77,0,0,0-1.16.73A3.14,3.14,0,0,0,259,183.62Z" fill="#ffa072"/><path d="M593.34,158.93a1.48,1.48,0,0,0-.44,1,1,1,0,0,0,.3.75,5.35,5.35,0,0,1,.8,1.05,1.6,1.6,0,0,1,.14.78.77.77,0,0,1-.42.63.75.75,0,0,0-.09-.57,1.53,1.53,0,0,0-.31-.4,8.42,8.42,0,0,1-.92-.83,1.79,1.79,0,0,1-.37-.77,1.43,1.43,0,0,1,.09-.85A1.22,1.22,0,0,1,593.34,158.93Z" fill="#ffa072"/><path d="M591.62,159.12a2.22,2.22,0,0,1,1.52-3.37,2,2,0,0,1,1.19.18,1.45,1.45,0,0,1,.79,1,2,2,0,0,1,0,1.07c-.11.32-.23.59-.36.89a7.72,7.72,0,0,0-.36-1.69.69.69,0,0,0-.42-.35,1.47,1.47,0,0,0-.63,0,1.79,1.79,0,0,0-1.15.73A3.24,3.24,0,0,0,591.62,159.12Z" fill="#ffa072"/></g></g></svg>