<svg xmlns="http://www.w3.org/2000/svg" width="865.76" height="682.89" viewBox="0 0 865.76 682.89"><path d="M144.44,599.14S9.05,519.89,43.38,356.76c0,0,36.27-186.89,161.53-258.24a189.71,189.71,0,0,1,107.7-23.94c37.29,2.7,110.64,4,166-20.14,0,0,168.86-90.58,276.15,44.41,0,0,133.68,151,14.07,417.39,0,0-72.29,193.18-445.74,149.79C323.08,666,203.64,655.67,144.44,599.14Z" fill="#f48225" data-secondary="true"/><path d="M144.44,599.14S9.05,519.89,43.38,356.76c0,0,36.27-186.89,161.53-258.24a189.71,189.71,0,0,1,107.7-23.94c37.29,2.7,110.64,4,166-20.14,0,0,168.86-90.58,276.15,44.41,0,0,133.68,151,14.07,417.39,0,0-72.29,193.18-445.74,149.79C323.08,666,203.64,655.67,144.44,599.14Z" fill="#fff" opacity="0.7"/><path d="M703.55,218.21A12.39,12.39,0,0,1,701,212.1c-.22-3.27-1.42-.22-2.9-1.78s-.75-5.07-1.12-6.71-.75-2.9.44-2.53-1.1-.52-.81-3.21-.45-7.45,2.23-10.05,3-2.83,3.13-3.36.82-.14,2.16-.52,4.1-2.68,6.4-2.9a18.64,18.64,0,0,1,9.47,2.53c2.23,1.56,3.53,4.4,4.41,6.56s2.29,8.16,1.77,9.48a13.21,13.21,0,0,0-.3,5.27c.15,2.08-.59,2.6-.81,4.47s-2.17.82-2.69.59.15,5.74-2.9,7.9l.07,4.55s-.15-2,8.27,6c0,0,13.41.6,15,2.32,0,0,2.16-1.2,2.6,1a4.76,4.76,0,0,0,1.86,3.42c1.05,1,.38,1.27.3,1.94s1.64.89,1.64,2.61,1.27,5,2.31,8.19,3.88,8.35,4.18,15.87-.9,23-3.36,23.39-5.07,1.72-10.06,1.72a57.58,57.58,0,0,0,.82,7.74c.9,6.34,3.21,14.46,3.06,14.91s-.9,1-4.47,1.56c0,0-1.34.45.22,2.61s2.24.82,2.54,4-.38,5.21,2.16,11.47,1.34,16.91,3.13,24.66.44,18.77,2,24.81-1,9.31-.23,12.07,2.83.89,2.09,8.34c0,0-.45,1.12,1.64,4.4s-.6,2.38-.3,5.28.48,4.4,1.1,8.13a97.25,97.25,0,0,1,1,16.39c-.3,4.17,1.71,23,1.56,27s-1,25.26-1,25.26.3,10.87,1.34,13.26,1.57,6.18-2.08,6.93-13,1-13-4.62,1-6.86.6-8.87-2.76-7.15-3.21-11.92-3.72-22.5-3.13-28.31.37-17.28-.15-19.22.75-2.31.75-3.13-1.49-1.12-1.42-2.61-1-5.44-.52-8.34-3.95-7.75-3.5-13.49-1.86-6.25-1.94-8.42-1.27-9.23-2-13.26-6.41-19.37-7.45-21.82-7.9-15.5-8.64-15.5-2.83,12.14-4,19.52-2.24,9.31-.74,14.75-1.42,9.54-1.2,18.85-1,8.34-.74,17.36S705,423,707.73,428.9s1.93,25.41,3,30.1,1.41,24.21,1.27,28.16-1.79,7.45-.08,13.64-5.36,7.15-9.09,6.7-8.12.52-6.63-9.24-2.76-15.34-2.38-21.08-2.76-15.5-3.21-21.31-2.16-19-2.23-24.44-1-14-1.57-27.19-1.19-25.33-2.3-28.53-.45-16.91-1.87-19.3-4-15.42-1.12-26.89,6-16.77,5.52-17.36-1.49-.45-.38-4,1.87-12.59,1.87-12.59-7.9,2.16-10.36-8.35-3.73-29.2-2.31-34.27.45-10,.74-11.77.68-6.11,3.73-5.73a30,30,0,0,0,12.07-4.4c6.11-3.87,6-6,7.82-7.08a4.82,4.82,0,0,1,3.43-.59Z" fill="#f48225" data-secondary="true" opacity="0.22"/><path d="M704.86,238.79h15.89s-4.14,26.1-3.21,29.59,0,.32,0,.32a36.06,36.06,0,0,1-2.87-9.81C713.83,253.17,704.86,238.79,704.86,238.79Z" fill="#fff"/><path d="M716.33,297.94s3,2.4,3.8,4.18,1.27,2.79,1.27,2.79l-9.63-1.27S713.92,295.7,716.33,297.94Z" fill="#fff"/><path d="M331.22,206.83s-5.42-7.05-4.16-14.26,11.88-38.68,21.38-34.08c0,0,5.65-5,13.29-.07s21,20.35,17.38,34.53-4.61,8.31-7.58,11.43-2.82,8.46,2.16,9.58,5.24,1.71,6,1,.28,1-1,1.33c0,0,.38,2.6,7.65,3s7.43,9.2,6.16,14.85-1.48,16.85-4.38,23.31-6.45,19.31-8.76,20.34-.22,5.5.82,8.25,9.06,19,9.8,27.47l-3.12.52s4.9,10.61,4.9,20.86,1,26.58-1.48,38.68a148.67,148.67,0,0,0-3,33.41c.3,9.66.37,23.91.07,29.18s.6,84.79,1.34,88.13c0,0-10.17,1.56-14,1s-2.6,4.75-5.57,6.24-16.78,5.57-16.11-5.5c0,0-4.24-1.33-2.9-7.42s6.46-21.38,7.35-27.47-.52-28,0-35.64.45-42.77-.22-49.45-4.09-28.51-3.27-31.33-1.11-8.09-1.93-5.42-5.27,23-7.13,28.06-3.41,9.95-4.9,27.18-3,28.21-4.3,42-6.83,57.17-6.83,57.17-24.43,3.2-31.86.82-21.6,1.48-15.81-6.09,10.84-.59,13.81-10.84,5.12-29,5.64-35.79,1.34-32.89,2.08-40.76-1.56-23,2.3-32.81,3.05-29.85,4.09-34.53,11.58-43.29,12-44.92-10.84,1.71-9.2-3.56,7.42-22.05,7.42-22.05-20.79-2.38-19.82-9.81-.82-22.86,1.11-26.65,6.54-21.16,6.76-23.91,2.23-12.69,6.09-11.73,13.81-4.23,14.62-4.75,5.05-5.42,3.27-9.21" fill="#f48225" data-secondary="true" opacity="0.22"/><path d="M339.69,212.44l3.51,5.22.89,10L352,214.8l8-.79s-.16,8.32-3.32,12.3-16.79,23.63-16.6,28.72c0,0-7.23-13.11-5.35-22.12s-.56-6.8,1.47-10.19A30.66,30.66,0,0,0,339.69,212.44Z" fill="#fff"/><path d="M275.47,222s-18.87-8-20.83-8.72-4.8-6.77-6.76-7.84-5.7-.89-4.45-2.67,1.6-8,1.6-8c5.7-1.42,5-11.57,3.38-18.87s-3-5-8.9-9.79-10-1.07-10-1.07c-10.68-2.49-12.28,14.07-13,19.76s2.67,7.66,2,10,6.41,12.46,6.41,12.46l-2,1.61a65.77,65.77,0,0,1-13.34,7.3c-4.1,1.42-8.73,2.67-10.69,2.13s-2.67,7.84-6.58,13.53-13.18,19.76-20.47,28.49.71,12.28,2.31,21.72,22.07,28.3,22.07,28.3,0-2,1.43-1.78-.18,6.05-.18,6.05c-5.7,13.35,2.32,44.69,1.78,52.16s1.25,38.1,2.85,43.09,4.27,44.15,5.52,49.84,1.6,13.71,3.74,14.06,2.84.36,2.31,9.62,7.83,8,12.11,6.23,2.13-6.94,1.6-9.61-.71-6.41.18-7.48-.18-14.06-2.14-20.65,1.6-28.49-.36-37.92,1.25-7.83,1.43-16.38,2-34.71,1.6-42,1.42-16.56,2.67-14.6,10.68,29,9.44,42.37-2.14,46.46-2.14,46.46c-6.05,16-2,27.77-3.38,32.94a23.47,23.47,0,0,0,.89,13.7c1.06,2.32-.54,4.1-.54,15.49s12.82,8.9,14.78,8.19,1.78-6.94,1.24-8.72-2.67-10.51-2.49-11.93,2.67-2.14,2.67-2.14C249.3,471,253,460,253,460c6.77-19.23,6.06-31.69,6.41-44.69S263,403,263.9,397.86s-3-14.78.89-39.17-2.13-26.17,1.25-27.59,3.74-5.52,3.2-6.59-5.34.18,3-31.69S275.47,222,275.47,222Zm-65.69,57.15c-.89,3.56-2.31,4.62-3,7.47a8.32,8.32,0,0,1-2.14,4.1c-8,1.42-12.11-8.72-13.53-10.68s-4.45-5.52-3.56-13.53,13-14.42,13-14.42S208,263.81,208.72,267,210.67,275.56,209.78,279.12Z" fill="#f48225" data-secondary="true" opacity="0.22"/><path d="M224.92,207.19a.48.48,0,0,1-.34.28c-5.92,1.53-14.17,11.71-16.71,12.39,0,0,9.24.35,11.75-4,0,0,2.31,5.78,1.93,9.72,0,0,.38,16.75,14.72,37.79,0,0,10.53-29.7,10.81-34.45s.28-6.89,1.77-8,3.53-2.88,3.53-2.88,5.5,6,10.25,5c0,0-5.15-6.93-7.07-9.42-7.66-9.91-11.57-10.46-12.26-9.88s-.13,4.22.42,4.78-.18,2.14.94,2.88,4.56,1.12,3.72,3.36-11.83,22.9-11.27,26.35-4-4.66-5.12-6.43-6.8-7.54-6-11.73-2.42-3-1.58-7.17A35,35,0,0,0,224.92,207.19Z" fill="#fff"/><path d="M589.12,193.17V183s-2.53,1.33-2.77-5.24-1.49-8.94,0-8.55.24-3.48.24-6.17-.9-8.71,2.56-12.43,9.87-8.86,17.55-7.12,13.69,4.43,14.09,19.08,0,.23,0,.23a59.56,59.56,0,0,0-1,10.37c.08,4.67.79,8.31-.55,9.5s.08,6.17-1.27,7.83-2.37,2.14-2.61,3.25-2.06,6.57-1.11,10,4.39,8.39,6.74,10,13.6,6.88,14.71,11.63,1.34,14.56,1.42,21.61-1,28.65.32,31.74,6.25,6.49,4,10,.08,2.29.59,5.62,4.24,5.7,5.9,11.08,7.28,9.34,7.68,17.33-3.41,22.56-4,23.35-3.09-11.48-3.8-12.66-.55.16-.71,2.53-1.43-.55-.87,3.17,2.29,8.07,1.42,14.32-2.61,20.34-3.72,27.86-3.72,23.91-4.9,32.69-5.23,68.7-14.88,80.26c0,0,.47,1.58-3.09,2.29s-8.23,1.19-2.14,3.17,8.08,10.45,9.1,11.79,4.36,2.77,8.16,3.72,13,1.43,13.69,4.59,1.58,5.86-7.2,5.94-18.52,1.66-26.28-2.85c0,0-3.17-2.45-2.45,2.61l-8.39-.47s-2.06,2.45-.08,6.25.39,6.41,1.26,7.84a3.37,3.37,0,0,1-.87,4.27c-1.19.87-14.64,7.76-23.19-2.45a17.2,17.2,0,0,1,1.11-6.49c1.27-3.09,2-4.28,1.82-5.23s-.63.16-.87-2.06-3.56-12.58-3.72-15.67,4-9.73,3.72-13.37-6.89-29.13-5.94-37S572.83,448.51,577,418a233.23,233.23,0,0,0,.08-58.41s-12.67.47-12.27-5.07,1.58-17.65-.79-22.95-8.94-24.93-8.87-28.18-6.49-10.45-4.19-25-.16-29.13,1.34-34-4.19-30.23,3.8-33.71,24.44-9.34,26.9-12S585.34,192.92,589.12,193.17Z" fill="#f48225" data-secondary="true" fill-rule="evenodd" opacity="0.22"/><path d="M443.7,588.69l-5,4.13a17.23,17.23,0,0,1-7.68,2.47H417.52c-2.8,0-1.64-2.9-1.64-2.9a1.37,1.37,0,0,0,1.31,1h12.06c5.63.67,12.64-5.58,14.32-7.18a2.18,2.18,0,0,0,.59-.9c0-.17.11-.35.16-.55A4,4,0,0,1,443.7,588.69Z" fill="#272727"/><path d="M431.53,554.44v10s-1.73,2.44-1.29,4.6c0,0,7-1.87,11.35,2h2.88s.29-13.55,1.73-16.19Z" fill="#ffb8ca"/><path d="M496.66,554.42v10s1.72,2.44,1.29,4.6c0,0-7-1.87-11.35,2h-2.88s-.29-13.54-1.73-16.19Z" fill="#ffb8ca"/><path d="M434.56,313.11s-10.07,12.56-15.12,45.72A139.35,139.35,0,0,0,418,384.32l5.67,169.89,28.84.83,10.77-107.41,10,108.13h30L508,440.21l1.3-66.72s-.68-39.57-17.51-61.82L480.21,301l-35.68,9.51Z" fill="#272727"/><path d="M436.65,209.1s-5.06-2.33-5.25-13.8c0,0-.58-1.75,1.17-13.8,0,0,1.94-9.92,3.11-16.72,0,0,1.94-15.35,16.71-19.05,0,0,11.81-3.93,23.83,1a18.05,18.05,0,0,1,6.7,4.74c3.31,3.75,7.88,11.1,8.73,23.61v24.69s1.17,7.19-4.66,10.11a17.38,17.38,0,0,0,.39-4.86s-2.53,7-7.58,4.08c0,0-2.92,1.55-5.25.78l-22.65-.78a26.23,26.23,0,0,0-11-.31,2.68,2.68,0,0,1-2.54-.84,10.13,10.13,0,0,1-2.44-4.57A17.82,17.82,0,0,0,436.65,209.1Z" fill="#686175" data-primary="true"/><path d="M434.59,186.49c0,1.19.08,2.38.1,3.56s.05,2.35.11,3.53.12,2.34.25,3.5a19.68,19.68,0,0,0,.64,3.46,10.26,10.26,0,0,1-1.23-3.37,21.37,21.37,0,0,1-.43-3.56A28.83,28.83,0,0,1,434.59,186.49Z" opacity="0.2"/><path d="M479,207.81c.18-.9.26-1.79.35-2.68l.25-2.68c.09-.89.17-1.79.27-2.68s.21-1.8.39-2.7a23.67,23.67,0,0,1,.11,5.45,22.76,22.76,0,0,1-.42,2.71A8.91,8.91,0,0,1,479,207.81Z" opacity="0.2"/><rect x="442.74" y="186.49" width="1.04" height="10.58" fill="#f48225" data-secondary="true"/><ellipse cx="443.15" cy="199.01" rx="1.86" ry="3.43" fill="#f48225" data-secondary="true"/><path d="M474.77,204v8.67l-11.4,7.64-10.69-7.92v-7.72a15.83,15.83,0,0,0,10.69,4.46A16.12,16.12,0,0,0,474.77,204Z" fill="#ffb8ca"/><path d="M480.21,218.37h0l-11.84,11.46-5-8.32-5.24,8.32-11.47-12.14,2.86-4.1a2.24,2.24,0,0,1,3.15-1.23l10.69,7.92,11.4-7.64C476.51,211.46,480.21,218.37,480.21,218.37Z" fill="#272727"/><path d="M532,313.16c-3.86,4-7.05,10.35-7.05,10.35-1.76,4.51-8.92,5.06-8.92,5.06l-3,2.11a1,1,0,0,1-1.45-.3L503,316a1.89,1.89,0,0,1,.18-2.18l.79-1a74,74,0,0,1,1.94-9.26,9.54,9.54,0,0,0,.34-3.23,5.71,5.71,0,0,1,.94-3.31,9.21,9.21,0,0,0-.2-2.8.74.74,0,0,0-1.43.07,42.79,42.79,0,0,1-6.13,14.1,7.36,7.36,0,0,1-6.12,3.35,32.79,32.79,0,0,1-8.59-1.46,7.18,7.18,0,0,0-2.88-.26c-18.18,1.92-48.31,3.13-48.31,3.13l-1.1.37c.36,2.19-1.1,2.75-1.1,2.75l-9.18,5.12a11,11,0,0,1-12.08,0l-7.69-3.48c-4.4-2-4.59-11-4.59-11-1.64-18,9.53-58.27,9.53-58.27a24.94,24.94,0,0,1,17.23-21.81l22.11-9.15,11.47,12.14,5.24-8.32,5,8.32,11.84-11.46h0l25.31,11.46c13.44,5.09,18.06,25.41,18.06,25.41,9.14,16.85,11.56,42.5,11.56,42.5A23.34,23.34,0,0,1,532,313.16Z" fill="#f48225" data-secondary="true"/><path d="M418,240.89c1.32,2.45,2.55,4.94,3.74,7.45s2.32,5,3.36,7.63,2,5.18,2.84,7.85a37.88,37.88,0,0,1,1,4.07,12.26,12.26,0,0,1,.17,4.28v0c-.51,3.59-1,7.19-1.6,10.77s-1.13,7.18-1.74,10.76q.57-5.42,1.24-10.82c.43-3.61.91-7.21,1.39-10.81v0a11.53,11.53,0,0,0-.23-4c-.26-1.34-.61-2.67-1-4-.78-2.65-1.72-5.25-2.73-7.83C422.54,251,420.32,246,418,240.89Z" opacity="0.2"/><path d="M464.13,249.3c-.13-2.07-.19-4.14-.24-6.2s-.07-4.13-.1-6.19v-6.19c0-1,0-2.07,0-3.1s0-2.06,0-3.1a49.43,49.43,0,0,1,.65,6.18c.13,2.07.17,4.13.19,6.2s0,4.14-.08,6.2S464.32,247.23,464.13,249.3Z" opacity="0.2"/><path d="M491.75,309c.95-1.26,1.85-2.54,2.74-3.82s1.74-2.58,2.55-3.91,1.58-2.68,2.32-4.06,1.38-2.79,2-4.22a24.66,24.66,0,0,1-1.5,4.49,34.88,34.88,0,0,1-2.21,4.19A34.39,34.39,0,0,1,491.75,309Z" opacity="0.2"/><path d="M503.93,282.37a30.24,30.24,0,0,1,.17-10.52,31.19,31.19,0,0,1,1.41-5.11l1.76-5c1.23-3.28,2.42-6.58,3.68-9.86l1.89-4.9c.66-1.63,1.3-3.26,2-4.88-.52,1.68-1.08,3.34-1.62,5l-1.7,5c-1.14,3.31-2.34,6.61-3.51,9.91a80.28,80.28,0,0,0-3.31,9.93,34.31,34.31,0,0,0-.75,5.16A31.61,31.61,0,0,0,503.93,282.37Z" opacity="0.2"/><path d="M507.17,295.16a16,16,0,0,1,2.31-1.35,24.37,24.37,0,0,1,2.48-1,26.69,26.69,0,0,1,5.22-1.27,28.37,28.37,0,0,1,5.37-.22c.89,0,1.78.16,2.67.26s1.75.33,2.62.53c-1.78-.11-3.54-.24-5.3-.2a43.84,43.84,0,0,0-5.25.39,40.93,40.93,0,0,0-5.15,1.07A32.83,32.83,0,0,0,507.17,295.16Z" opacity="0.2"/><path d="M505.68,313.47a84.53,84.53,0,0,1,5.55,6.57,83.06,83.06,0,0,1,4.95,7,84.66,84.66,0,0,1-5.56-6.57C508.88,318.23,507.19,315.92,505.68,313.47Z" opacity="0.2"/><polygon points="511.57 330.38 508.24 333.75 507.65 334.35 506.54 335.47 505.99 336.03 505 337.03 504.8 337.24 504.62 337.7 500.27 348.72 490.32 330.87 496.19 327.32 496.58 327.08 496.78 326.79 498.27 324.71 498.86 323.89 503.7 317.12 511.57 330.38" fill="#ffb8ca"/><path d="M498.85,330.65l-.64.43a28.81,28.81,0,0,1-2-3.76l.39-.24.2-.29A31,31,0,0,0,498.85,330.65Z" fill="#686175" data-primary="true"/><path d="M505,337l-.2.21-.18.46a19.06,19.06,0,0,1-3.51-3.19l.59-.48A18.14,18.14,0,0,0,505,337Z" fill="#686175" data-primary="true"/><circle cx="499.06" cy="331.52" r="1.07" fill="#686175" data-primary="true"/><circle cx="501.2" cy="333.83" r="1.07" fill="#686175" data-primary="true"/><path d="M502.1,330.37a17.2,17.2,0,0,0,4.44,5.1L506,336c-3.61-2.23-7.1-9.9-7.72-11.32l.59-.82c3.48,7.46,8.59,9.57,9.38,9.86l-.59.6A14.72,14.72,0,0,1,502.1,330.37Z" fill="#686175" data-primary="true"/><path d="M432,317.12a64.5,64.5,0,0,0,7.81,1.27c1.31.17,2.63.26,3.94.4l4,.26c5.27.29,10.55.32,15.82.16s10.54-.49,15.81-.88c2.63-.22,5.26-.5,7.89-.75l7.88-.88c-2.61.44-5.22.84-7.84,1.26s-5.24.67-7.87,1l-4,.37c-1.31.12-2.63.23-4,.3l-4,.24c-1.32.07-2.65.1-4,.15-5.29.1-10.6.08-15.88-.34l-4-.37c-1.31-.17-2.63-.3-3.94-.51A56.93,56.93,0,0,1,432,317.12Z"/><circle cx="462.26" cy="315.51" r="2.04"/><path d="M486.81,324.35c1.42,2.22,2.78,4.49,4.12,6.77s2.65,4.58,3.94,6.88,2.56,4.62,3.79,7l1.84,3.51c.59,1.19,1.2,2.36,1.77,3.55-.73-1.11-1.4-2.24-2.1-3.37l-2-3.4c-1.35-2.28-2.65-4.58-3.94-6.88s-2.56-4.62-3.79-7S488,326.73,486.81,324.35Z"/><path d="M435,323.38a43.18,43.18,0,0,1-1.94,7.3,67.51,67.51,0,0,1-2.9,7,68.8,68.8,0,0,1-3.67,6.62c-.65,1.08-1.38,2.1-2.08,3.15s-1.49,2-2.26,3c1.29-2.16,2.62-4.28,3.83-6.47l.92-1.64.87-1.67c.6-1.09,1.13-2.22,1.69-3.34,1.1-2.25,2.1-4.54,3.05-6.86.48-1.16.91-2.33,1.32-3.51S434.65,324.59,435,323.38Z"/><path d="M462.26,364.57c.19,6.53.3,13.05.4,19.57l.2,19.57,0,19.57-.05,9.79-.14,9.79-.24-9.79-.16-9.78-.2-19.57,0-19.57C462.1,377.62,462.13,371.1,462.26,364.57Z"/><path d="M444.32,584.71c-.05.2-.11.38-.16.55a2.18,2.18,0,0,1-.59.9c-1.68,1.6-8.69,7.85-14.32,7.18H417.19a1.37,1.37,0,0,1-1.31-1c-.49-1.57-.75-4.91,3.72-8.54A109.92,109.92,0,0,0,430.24,569s6.9-2.16,11.35,2h2.88S445.49,580.21,444.32,584.71Z" fill="#f48225" data-secondary="true"/><path d="M428.39,573.86a11.13,11.13,0,0,1,2.57-.35,14.08,14.08,0,0,1,2.59.15,10.52,10.52,0,0,1,2.52.72,5.6,5.6,0,0,1,2.11,1.54,10.38,10.38,0,0,0-2.32-1,19.83,19.83,0,0,0-2.43-.53C431.78,574.15,430.11,574,428.39,573.86Z" opacity="0.2"/><path d="M425.36,577.75a11.12,11.12,0,0,1,2.56-.35,14.13,14.13,0,0,1,2.6.15,10.79,10.79,0,0,1,2.52.72,5.68,5.68,0,0,1,2.11,1.54,11.31,11.31,0,0,0-2.32-1,19.83,19.83,0,0,0-2.43-.53C428.75,578,427.07,577.93,425.36,577.75Z" opacity="0.2"/><path d="M483.87,584.7c.05.19.11.37.16.55a2.21,2.21,0,0,0,.59.89c1.68,1.6,8.69,7.85,14.32,7.18H511a1.37,1.37,0,0,0,1.31-1c.49-1.57.75-4.9-3.72-8.54A109.92,109.92,0,0,1,498,569s-6.9-2.16-11.35,2h-2.88S482.7,580.19,483.87,584.7Z" fill="#f48225" data-secondary="true"/><path d="M484.49,588.67l4.95,4.13a17.27,17.27,0,0,0,7.68,2.47h13.55c2.8,0,1.64-2.9,1.64-2.9a1.37,1.37,0,0,1-1.31,1H498.94c-5.63.67-12.64-5.58-14.32-7.18a2.21,2.21,0,0,1-.59-.89c0-.18-.11-.36-.16-.55A3.94,3.94,0,0,0,484.49,588.67Z" fill="#272727"/><path d="M499.8,573.84c-1.72.18-3.4.29-5,.57a18.59,18.59,0,0,0-2.44.52,11,11,0,0,0-2.31,1,5.6,5.6,0,0,1,2.11-1.54,10.52,10.52,0,0,1,2.52-.72,14.08,14.08,0,0,1,2.59-.15A11.2,11.2,0,0,1,499.8,573.84Z" opacity="0.2"/><path d="M502.83,577.73c-1.72.18-3.39.3-5,.57a18.1,18.1,0,0,0-2.43.52,11.31,11.31,0,0,0-2.32,1,5.66,5.66,0,0,1,2.11-1.53,9.68,9.68,0,0,1,2.52-.72,13.31,13.31,0,0,1,2.6-.16A11.12,11.12,0,0,1,502.83,577.73Z" opacity="0.2"/><rect x="437.55" y="252.49" width="46.19" height="58.61" rx="2.9" transform="translate(-44.33 90.47) rotate(-10.71)" fill="#fff"/><rect x="434.63" y="255.02" width="41.96" height="0.77" transform="translate(-39.8 89.94) rotate(-10.81)" fill="#f48225" data-secondary="true"/><ellipse cx="456.41" cy="261.89" rx="5.8" ry="2.77" transform="translate(-53.9 133.51) rotate(-15.73)" fill="#f48225" data-secondary="true"/><path d="M472.88,205.65c-6.07,11.36-20.2,6.71-20.2,6.71v-9.58Z" fill="#f9aac0"/><path d="M483.49,179.94c0,10-3.45,18.78-8.72,24a16.12,16.12,0,0,1-11.4,5.13,15.83,15.83,0,0,1-10.69-4.46c-5.66-5.16-9.42-14.29-9.42-24.7,0-16.1,9-29.15,20.11-29.15S483.49,163.84,483.49,179.94Z" fill="#ffb8ca"/><ellipse cx="444.19" cy="181.5" rx="4.66" ry="6.41" fill="#ffb8ca"/><path d="M440.75,177.17s11.36-5.68,18.31-14.83c0,0-2.21,6.47-5.84,8.84,0,0,10.89-2.21,13.1-15.32,0,0,10.1.16,12,14.69l1.74,25.69,8.68-7.38-10.42-38.07-18.47-3.45-20.33,18Z" fill="#686175" data-primary="true"/><path d="M442.64,171.79q2.48-1.78,4.81-3.72c1.55-1.29,3.09-2.6,4.56-4s2.94-2.78,4.34-4.23,2.75-3,4.13-4.47c-.57.84-1.15,1.69-1.76,2.5s-1.26,1.6-1.93,2.37a53.48,53.48,0,0,1-4.25,4.4,54.77,54.77,0,0,1-4.73,3.88c-.83.6-1.67,1.17-2.52,1.73S443.55,171.34,442.64,171.79Z" opacity="0.2"/><path d="M463.37,156.34a8.84,8.84,0,0,1-1.12,2.57,9.07,9.07,0,0,1-1.77,2.16,9,9,0,0,1,1.12-2.57A9.07,9.07,0,0,1,463.37,156.34Z" opacity="0.2"/><path d="M469.32,154.29a11.13,11.13,0,0,1,2.64.9,13.68,13.68,0,0,1,2.36,1.51A14.88,14.88,0,0,1,478,161a18.23,18.23,0,0,1,1.89,5.28c.19.91.24,1.85.36,2.77s0,1.86,0,2.78c-.14-.92-.22-1.83-.35-2.74s-.3-1.81-.56-2.68a22.22,22.22,0,0,0-.84-2.58,18.17,18.17,0,0,0-1.14-2.45,17.05,17.05,0,0,0-3.38-4.19A14.86,14.86,0,0,0,469.32,154.29Z" opacity="0.2"/><path d="M466.32,155.86a32.39,32.39,0,0,1-.38-5.29,31.27,31.27,0,0,1,.38-5.28,31.27,31.27,0,0,1,.38,5.28A32.39,32.39,0,0,1,466.32,155.86Z" opacity="0.2"/><path d="M427.94,296.11l13.52-2.18a2.77,2.77,0,0,0,2.09-1.61A20.81,20.81,0,0,1,450,283.8s10-6.76,11.83-4.16c0,0,.91.91-3.77,4l-4,3.91s7.28-.79,10.92-2.87c0,0,6.63-5.33,8.84-4,0,0,1.82,1-3.25,4.55l-5,4a.17.17,0,0,0,.17.3l7.13-2.71a33.25,33.25,0,0,0,3.29-1.46c1.64-.84,4.14-1.63,4.95-.26,0,0,.91,1.31-1.56,2.48,0,0,2.86,1.16.26,3.24,0,0-5.08,3.74-6.38,4.34,0,0,3.25.08,1.95,2.55,0,0-2.6,2.6-12.48,4.55l-15.27,3a7.31,7.31,0,0,0-1.64.53l-13.9,6.39Z" fill="#ffb8ca"/><polygon points="432.44 295.38 435.71 310.51 440.37 308.37 437.63 294.55 432.44 295.38" fill="#272727"/><path d="M432.44,313.52l-4.9-19L420,293l1.17,19.28s2.2,3.52,2.34,3.91,5,1.66,5,1.66Z" fill="#f48225" data-secondary="true"/><path d="M427.54,316.7c-.5-1.61-.91-3.23-1.3-4.85s-.75-3.26-1.1-4.89-.65-3.28-.92-4.93l-.4-2.48c-.11-.83-.24-1.65-.32-2.49.25.8.46,1.61.69,2.42l.61,2.43c.4,1.62.75,3.26,1.09,4.89s.66,3.28.93,4.93S427.36,315,427.54,316.7Z" opacity="0.2"/><path d="M426.89,295.24a14.83,14.83,0,0,1-6.16,1.13,13.18,13.18,0,0,1-3.11-.6,19.43,19.43,0,0,0-3-.6,38.14,38.14,0,0,0-6.14-.24,22.39,22.39,0,0,0-3.06.35,15.72,15.72,0,0,0-3,.83,15.23,15.23,0,0,1,6-1.77,28.76,28.76,0,0,1,6.29.07,18.87,18.87,0,0,1,3.09.66c.51.14,1,.32,1.48.44a12.42,12.42,0,0,0,1.48.27,14.91,14.91,0,0,0,3.06,0A20,20,0,0,0,426.89,295.24Z" opacity="0.2"/><path d="M404.44,290.82a29.18,29.18,0,0,1,6.47,1.27,23.22,23.22,0,0,1,3.09,1.2,8.68,8.68,0,0,1,2.73,1.87,15.46,15.46,0,0,0-3-1.32c-1-.36-2-.7-3.08-1C408.61,292.17,406.52,291.57,404.44,290.82Z" opacity="0.2"/><circle cx="436.86" cy="301.81" r="4.42" fill="#fff"/><path d="M479.55,287.58a27.45,27.45,0,0,1-12,5.41,93.67,93.67,0,0,1,12-5.41Z" fill="#f9aac0"/><path d="M473.43,295.16a9,9,0,0,1-6.34,2.08,14.5,14.5,0,0,1,6.34-2.08Z" fill="#f9aac0"/><path d="M462.42,182.09a48.77,48.77,0,0,1-1.39,8.14l-.1-.31a37.6,37.6,0,0,1,2.71,2.93,37.28,37.28,0,0,1-3.3-2.56,49.52,49.52,0,0,1,2.08-8.2Z" fill="#f9aac0"/><ellipse cx="452.93" cy="180.1" rx="1.3" ry="1.99" fill="#272727"/><ellipse cx="473.73" cy="180.1" rx="1.3" ry="1.99" fill="#272727"/><path d="M446.94,175.17s6.41-.59,8.82-.15a.8.8,0,0,0,.89-.54c.31-.94.24-2.46-3.72-2.09C452.93,172.39,448.85,172.91,446.94,175.17Z" fill="#272727"/><path d="M479.94,175.17s-6.41-.59-8.82-.15a.79.79,0,0,1-.88-.54c-.32-.94-.25-2.46,3.71-2.09C474,172.39,478,172.91,479.94,175.17Z" fill="#272727"/><path d="M456.76,196h13.36a6.77,6.77,0,0,1-4.88,4.48,7.45,7.45,0,0,1-8.48-4.48Z" fill="#fff"/><polygon points="315.85 469.55 361.4 404.18 401.79 426.1 353.91 487.73 301.86 520.8 301.86 487.73 315.85 469.55" fill="#686175" data-primary="true"/><polygon points="315.85 469.55 361.4 404.18 401.79 426.1 353.91 487.73 301.86 520.8 301.86 487.73 315.85 469.55" opacity="0.2"/><path d="M146.88,600.05l45.72-60.74s20.9-28.74,43.1-35.27c0,0,43.76-22.85,60.09-37.88,0,0,17.63-14.36,18.94-6.53,0,0,5.87,17-9.15,42.45,0,0,58.13-45.06,72.5-20.89,0,0,20.24,20.24-24.17,63.35,0,0,16.33,29.38,1.31,47,0,0-7,7-2,21.42a68.87,68.87,0,0,1,4.08,19.89c.29,7.42-.59,16-4.95,22a30.75,30.75,0,0,0-4.75,8.75,17,17,0,0,0-.91,5S216.11,664.05,146.88,600.05Z" fill="#ffb8ca"/><path d="M289.61,481.81c7.64-8.52,16.29-16.53,24.5-24.52-4.74,10.34-14.45,19.38-24.5,24.52Z" fill="#f9aac0"/><path d="M206.08,563s82.47-54.61,99.5-60.88l2.71-4.92S250.7,507.83,206.08,563Z" fill="#f9aac0"/><path d="M367.19,478.29a22.58,22.58,0,0,1,10.44,13.15,14.94,14.94,0,0,1,.61,5.72c-1-1.66-1.86-3.25-2.78-4.8-2.62-4.6-5.84-9.32-8.27-14.07Z" fill="#f9aac0"/><path d="M328.18,667.21l18.55,1.41a24.52,24.52,0,0,1,5.66-13.79s9.62-11.68,2.37-37.15c0,0-7.89-16.75.46-26.12,0,0,14.75-12.88-1.31-47L331.29,563S343,646.27,328.18,667.21Z" fill="#f9aac0"/><path d="M456.59,76.24A182.82,182.82,0,1,0,639.41,259.06,182.82,182.82,0,0,0,456.59,76.24Zm0,332.32a149.5,149.5,0,1,1,149.5-149.5A149.5,149.5,0,0,1,456.59,408.56Z" fill="#686175" data-primary="true"/><circle cx="456.59" cy="259.06" r="149.5" transform="translate(-49.45 398.73) rotate(-45)" fill="#fff" opacity="0.22"/><path d="M606.09,259.06a149.5,149.5,0,0,1-149.5,149.5c137.06-45.84,129.68-146,128.11-159.12-.21-1.74-.37-3.46-.55-5.2C572.6,137,456.59,109.56,456.59,109.56A149.5,149.5,0,0,1,606.09,259.06Z" fill="#686175" data-primary="true" opacity="0.13"/><path d="M324.72,221.28a75.7,75.7,0,0,1,2-8.22c.8-2.71,1.68-5.4,2.67-8.05a125.67,125.67,0,0,1,7-15.46,124.21,124.21,0,0,1,9-14.41,128.54,128.54,0,0,1,10.94-13,120.85,120.85,0,0,1,12.7-11.34l3.42-2.54c1.16-.83,2.36-1.59,3.53-2.39l1.77-1.18,1.83-1.09,3.67-2.16a122.42,122.42,0,0,1,31.63-12,146.75,146.75,0,0,0-30.83,13.4,127.12,127.12,0,0,0-26.23,20.73,135.2,135.2,0,0,0-20.05,26.81,143.42,143.42,0,0,0-7.49,15A116.55,116.55,0,0,0,324.72,221.28Z" fill="#686175" data-primary="true" opacity="0.13"/><path d="M346.44,314a93.47,93.47,0,0,1-11.29-23.74,112.5,112.5,0,0,1-3.31-12.81,115.68,115.68,0,0,1-1.71-13.12,108.31,108.31,0,0,1-.07-13.24l.23-3.3.36-3.29c.21-2.2.65-4.37,1-6.54a105.45,105.45,0,0,1,8.12-25,138.12,138.12,0,0,0-6.52,25.3,120,120,0,0,0-1,26,123.2,123.2,0,0,0,4.49,25.6,126.42,126.42,0,0,0,4.2,12.35A96,96,0,0,0,346.44,314Z" fill="#686175" data-primary="true" opacity="0.13"/><path d="M353.91,544.54a101.29,101.29,0,0,1-14.74,13.87,96.3,96.3,0,0,1-17,11,167.72,167.72,0,0,1,31.75-24.85Z" fill="#f9aac0"/><path d="M443.15,185.22c-2.09-1.46-2.72-5-.51-6.69-1.17,2.2-.62,4.59.51,6.69Z" fill="#f9aac0"/></svg>