<svg id="f3d1b660-3c5e-4eb3-a4c7-ea4e179309e7" data-name="Layer 1" xmlns="http://www.w3.org/2000/svg" width="865.76" height="682.89" viewBox="0 0 865.76 682.89"><path d="M258.23,597.76l2.13,27s14.87,8.41,27.75-.94V597.76Z" fill="#fed0bc"/><path d="M349,645H258.18V618.87a2.3,2.3,0,0,1,1.95-2.29c1.73-.24,4.25-.18,6,1.69a6.49,6.49,0,0,0,5.5,2.27c2.82-.35,6.31-1.9,8.12-7,0,0,5.6-12.87,14.61-1.93L317.7,632.9a14.79,14.79,0,0,0,12.15,3.77C335.84,635.77,344.6,636.23,349,645Z" fill="#f48225" data-secondary="true"/><rect x="254.43" y="645.03" width="99.07" height="9.33" rx="2.6" transform="translate(607.94 1299.4) rotate(180)" fill="#373660"/><polygon points="252.13 606.6 296.2 601.74 274.69 294.93 226.65 394.58 252.13 606.6" fill="#373660"/><polygon points="252.13 606.6 296.2 601.74 274.69 294.93 226.65 394.58 252.13 606.6" opacity="0.2"/><g id="b0558228-e1d6-4713-bd0e-0bf85eef1f79" data-name="freepik--background-complete--inject-55"><path d="M754.53,370.39H514V24.26H754.53ZM520.3,364H748.19V30.6H520.3Z" fill="#ebebeb"/><rect x="628.6" y="32.27" width="6.34" height="334.95" fill="#ebebeb"/><rect x="508.21" y="37.09" width="252.07" height="8.83" fill="#ebebeb"/><rect x="508.21" y="47.01" width="252.07" height="8.83" fill="#ebebeb"/><rect x="508.21" y="56.96" width="252.07" height="8.83" fill="#ebebeb"/><rect x="508.21" y="66.9" width="252.07" height="8.83" fill="#ebebeb"/><rect x="508.21" y="76.83" width="252.07" height="8.83" fill="#ebebeb"/><rect x="508.21" y="86.77" width="252.07" height="8.83" fill="#ebebeb"/><rect x="508.21" y="96.72" width="252.07" height="8.83" fill="#ebebeb"/><rect x="508.21" y="106.64" width="252.07" height="8.83" fill="#ebebeb"/><rect x="508.21" y="116.59" width="252.07" height="8.83" fill="#ebebeb"/><rect x="607.85" y="71.3" width="1.59" height="171.89" fill="#263238"/><polygon points="611.46 250.56 605.83 250.56 607.24 242.47 610.05 242.47 611.46 250.56" fill="#263238"/><rect x="613.57" y="71.3" width="1.59" height="262.82" fill="#263238"/><polygon points="617.17 340.07 611.54 340.07 612.95 331.98 615.76 331.98 617.17 340.07" fill="#263238"/><rect x="498.37" y="23.02" width="271.75" height="18.48" fill="#dbdbdb"/><polygon points="125.89 344.94 123.52 344.94 123.52 343.35 124.31 343.35 124.31 342.56 125.89 342.56 125.89 344.94" fill="#ebebeb"/><path d="M120.31,344.94h-3.17v-1.59h3.17Zm-6.42,0h-3.17v-1.59h3.17Zm-6.34,0h-3.18v-1.59h3.18Zm-6.35,0H98v-1.59h3.17Zm-6.42,0H91.61v-1.59h3.17Zm-6.34,0H85.26v-1.59h3.18Zm-6.35,0H78.92v-1.59h3.17Zm-6.34,0H72.58v-1.59h3.17Zm-6.34,0H66.23v-1.59h3.18Zm-6.35,0H59.89v-1.59h3.17Zm-6.34,0H53.55v-1.59h3.17Zm-6.34,0H47.2v-1.59h3.18Zm-6.35,0H40.86v-1.59H44Z" fill="#ebebeb"/><polygon points="36.88 344.94 34.5 344.94 34.5 342.56 36.09 342.56 36.09 343.35 36.88 343.35 36.88 344.94" fill="#ebebeb"/><path d="M36.09,339.36H34.5v-3.18h1.59Zm0-6.43H34.5v-3.17h1.59Zm0-6.34H34.5v-3.17h1.59Zm0-6.34H34.5v-3.18h1.59Zm0-6.43H34.5v-3.17h1.59Zm0-6.42H34.5v-3.17h1.59Zm0-6.34H34.5v-3.17h1.59Zm0-6.35H34.5v-3.17h1.59Zm0-6.34H34.5V285.2h1.59Zm0-6.42H34.5v-3.17h1.59Zm0-6.35H34.5v-3.17h1.59Zm0-6.42H34.5V266h1.59Zm0-6.34H34.5v-3.17h1.59Z" fill="#ebebeb"/><polygon points="36.09 255.92 34.5 255.92 34.5 253.54 36.88 253.54 36.88 255.13 36.09 255.13 36.09 255.92" fill="#ebebeb"/><path d="M120.31,255.13h-3.17v-1.58h3.17Zm-6.42,0h-3.17v-1.58h3.17Zm-6.34,0h-3.18v-1.58h3.18Zm-6.35,0H98v-1.58h3.17Zm-6.42,0H91.61v-1.58h3.17Zm-6.34,0H85.26v-1.58h3.18Zm-6.35,0H78.92v-1.58h3.17Zm-6.34,0H72.58v-1.58h3.17Zm-6.34,0H66.23v-1.58h3.18Zm-6.35,0H59.89v-1.58h3.17Zm-6.34,0H53.55v-1.58h3.17Zm-6.34,0H47.2v-1.58h3.18Zm-6.35,0H40.86v-1.58H44Z" fill="#ebebeb"/><polygon points="125.89 255.92 124.31 255.92 124.31 255.13 123.52 255.13 123.52 253.54 125.89 253.54 125.89 255.92" fill="#ebebeb"/><path d="M125.89,339.36h-1.58v-3.18h1.58Zm0-6.43h-1.58v-3.17h1.58Zm0-6.34h-1.58v-3.17h1.58Zm0-6.34h-1.58v-3.18h1.58Zm0-6.43h-1.58v-3.17h1.58Zm0-6.42h-1.58v-3.17h1.58Zm0-6.34h-1.58v-3.17h1.58Zm0-6.35h-1.58v-3.17h1.58Zm0-6.34h-1.58V285.2h1.58Zm0-6.42h-1.58v-3.17h1.58Zm0-6.35h-1.58v-3.17h1.58Zm0-6.42h-1.58V266h1.58Zm0-6.34h-1.58v-3.17h1.58Z" fill="#ebebeb"/><rect x="29.7" y="338.55" width="11.2" height="11.2" fill="#fff"/><path d="M41.69,350.54H28.9V337.75H41.69ZM30.49,349H40.1v-9.61H30.49Z" fill="#ebebeb"/><rect x="29.7" y="293.64" width="11.2" height="11.2" fill="#fff"/><path d="M41.69,305.66H28.9V292.87H41.69Zm-11.2-1.59H40.1v-9.61H30.49Z" fill="#ebebeb"/><rect x="29.7" y="248.74" width="11.2" height="11.2" fill="#fff"/><path d="M41.69,260.71H28.9V248H41.69Zm-11.2-1.58H40.1v-9.52H30.49Z" fill="#ebebeb"/><rect x="119.52" y="338.55" width="11.2" height="11.2" fill="#fff"/><path d="M131.49,350.54H118.73V337.75h12.76ZM120.31,349h9.6v-9.61h-9.6Z" fill="#ebebeb"/><rect x="119.52" y="293.64" width="11.2" height="11.2" fill="#fff"/><path d="M131.49,305.66H118.73V292.87h12.76Zm-11.18-1.59h9.6v-9.61h-9.6Z" fill="#ebebeb"/><rect x="119.52" y="248.74" width="11.2" height="11.2" fill="#fff"/><path d="M131.49,260.71H118.73V248h12.76Zm-11.18-1.58h9.6v-9.52h-9.6Z" fill="#ebebeb"/><rect x="74.61" y="248.74" width="11.2" height="11.2" fill="#fff"/><path d="M86.6,260.71H73.81V248H86.6Zm-11.2-1.58H85v-9.52H75.4Z" fill="#ebebeb"/><rect x="74.61" y="338.55" width="11.2" height="11.2" fill="#fff"/><path d="M86.6,350.54H73.81V337.75H86.6ZM75.4,349H85v-9.61H75.4Z" fill="#ebebeb"/><path d="M81.28,309.92H63.36l-7,19.52h6.79v1.72H49.34v-1.72H53.6l23.07-62.18h7.42l22.81,62.18h4.17v1.72H81.47v-1.72h6.35Zm-17.09-2H80.57l-7.93-23.78Z" fill="#dbdbdb"/><rect x="622.23" y="318.34" width="11.2" height="11.2" fill="#fff"/><path d="M634.22,330.33H621.44V317.55h12.78ZM623,328.74h9.61v-9.61H623Z" fill="#ebebeb"/><rect x="622.23" y="263.9" width="11.2" height="11.2" fill="#fff"/><path d="M634.22,275.87H621.44V263.11h12.78ZM623,274.29h9.61v-9.6H623Z" fill="#ebebeb"/><rect x="82.62" y="428.4" width="41.99" height="17.75" fill="#ebebeb"/><rect x="59.2" y="450.78" width="41.99" height="17.75" fill="#ebebeb"/><rect x="687.3" y="104.31" width="41.99" height="17.75" fill="#ebebeb"/><rect x="710.72" y="126.69" width="41.99" height="17.75" fill="#ebebeb"/><rect x="82.62" y="104.31" width="41.99" height="17.75" fill="#ebebeb"/><path d="M772.38,557.86s26.83-6.08,41.55-19.64,22.93-37.85,22.93-37.85a230.26,230.26,0,0,0-30.13,7.93,50.36,50.36,0,0,0-9.1,12.88,60.12,60.12,0,0,1-.08-9.2,40.85,40.85,0,0,0-9.52,5.8C775.82,528.44,772.38,557.86,772.38,557.86Z" fill="#dbdbdb"/><path d="M820.1,512.19c3.66-2.54,7.39-5,11.1-7.54a.21.21,0,1,0-.22-.36h0c-6.92,4.14-13.74,8.55-20.33,13.18-2.32,1.58-4.57,3.29-6.81,5l.48-.79c.81-1.35,1.58-2.67,2.5-4a56.34,56.34,0,0,1,5.7-7.59c.08-.1,0-.23-.13-.13-2.09,2.41-4.19,4.76-6.09,7.36-.9,1.2-1.74,2.47-2.55,3.76-.41.66-.83,1.33-1.21,2l-.39.68c-3.48,2.73-6.85,5.56-10.09,8.58q-3,2.77-5.76,5.75c1-3.25,1.94-6.53,3.18-9.73,0-.1-.15-.15-.18,0-1.17,3.34-2.44,6.72-3.35,10.16-2.06,2.22-4,4.52-5.88,6.93l.1-.44c.3-1.27.61-2.52,1-3.79.65-2.43,1.37-4.84,2.19-7.22a42.07,42.07,0,0,1,7.2-13.62c.08-.08,0-.21-.13-.13a52.15,52.15,0,0,0-10.27,21.48c-.29,1.14-.57,2.28-.83,3.44-.14.6-.3,1.22-.39,1.85-.81,1.1-1.59,2.21-2.38,3.33a117.17,117.17,0,0,0-11.36,22.28,255.31,255.31,0,0,0-8.73,26.79c0,.19.22.24.28,0,5.25-15.72,10.61-31.72,19.6-45.69q2.85-4.44,6.12-8.58a50.2,50.2,0,0,0,13.06-2.6,58.33,58.33,0,0,0,13.08-6.34,78.76,78.76,0,0,0,6.71-5.08c.11-.08,0-.22-.11-.12a53.75,53.75,0,0,1-12.31,7.43A66.14,66.14,0,0,1,789.32,543c-2,.44-4,.76-6,1a113.65,113.65,0,0,1,7.93-8.77c.91-.9,1.84-1.78,2.78-2.65a63.29,63.29,0,0,1,9.92-5.68c4.4-2.12,8.73-4.37,13.09-6.59,2.44-1.26,4.88-2.53,7.36-3.75.11,0,0-.2-.1-.14-4.41,2.13-8.88,4.12-13.34,6.15-4.2,1.92-8.43,3.86-12.46,6.11L798,529c3.65-3.17,7.41-6.19,11.26-9.11C812.82,517.35,816.43,514.72,820.1,512.19Z" fill="#a6a6a6"/><path d="M818.58,526c-2.19,1-4.41,1.79-6.57,2.81s-4.33,2.25-6.44,3.5c-.09,0,0,.19.08.14,2.14-1,4.31-2,6.44-3s4.31-2.27,6.53-3.17C818.73,526.16,818.69,526,818.58,526Z" fill="#a6a6a6"/><path d="M685.17,422.66a38.3,38.3,0,0,1,8,22.21c.1,2.39-.28,5.75-.57,9.7a63.39,63.39,0,0,1,17.52,15,31.49,31.49,0,0,0-17.69-4.23,52.68,52.68,0,0,0,1,8,30.27,30.27,0,0,1,11.39,2.25,25.44,25.44,0,0,0-10.26,2c4.75,15.23,19,30.86,58.29,37.51a82.48,82.48,0,0,0-7-55.27C734.22,436.71,685.17,422.66,685.17,422.66Z" fill="#dbdbdb"/><path d="M766.46,580.28q-1-9.75-2.55-19.46A387,387,0,0,0,756,522.38a149.74,149.74,0,0,0-5.68-17.52,25.79,25.79,0,0,0,.16-3.17v-3.78c0-2.52-.14-5-.36-7.53a90.5,90.5,0,0,0-2.41-14.73c-.72-2.79-1.59-5.55-2.38-8.33,0-.11-.21,0-.18,0A108.25,108.25,0,0,1,748,482a137.26,137.26,0,0,1,1.31,14.73c0,1.35.08,2.7.08,4.05v1.74a126.9,126.9,0,0,0-6.61-13.7,167.31,167.31,0,0,0-13.45-20.11,8.67,8.67,0,0,0-.32-2.2l-.57-2.63c-.41-1.8-.85-3.57-1.35-5.35-1-3.55-2.26-7-3.37-10.51a.1.1,0,0,0-.13-.05.08.08,0,0,0,0,.05c1,3.49,1.73,7.09,2.52,10.62.4,1.76.78,3.51,1.18,5.27.19.87.36,1.74.55,2.63v.19c-1.58-2-3.17-4-4.87-5.92-7.5-8.8-15.71-16.9-24-25-1-1-2.06-2-3.09-2.93-.08-.08-.21,0-.13.13,7.93,8.24,15.7,16.6,23.07,25.37,1.77,2.08,3.48,4.17,5.17,6.34L721.31,463c-2.28-1.49-4.59-2.95-7-4.28s-4.76-2.64-7.23-3.86-5.22-2.27-7.65-3.68c-.11,0-.19.11-.09.16a56.25,56.25,0,0,1,7.16,4c2.4,1.41,4.76,2.84,7.14,4.33s4.63,2.9,6.92,4.39c1.91,1.24,3.79,2.6,5.77,3.75A187.43,187.43,0,0,1,739,486.18a132.89,132.89,0,0,1,6.5,12.33l-1.41-.61-3.6-1.59c-2.3-1-4.63-2-6.94-3-4.41-1.91-8.88-3.67-13.2-5.78a60,60,0,0,1-7.06-3.91c-.09,0-.17.09,0,.15,8,5.56,17.08,9.52,26,13.42l3.87,1.71c1,.46,2.12,1,3.17,1.4a137,137,0,0,1,6.64,18.2,364.65,364.65,0,0,1,8.55,38.07c2.25,12.83,3.77,25.73,5,38.71.15,1.58.29,3.17.48,4.85a.51.51,0,0,0,1,0C767.83,593.41,767.15,586.83,766.46,580.28Z" fill="#a6a6a6"/><path d="M742.57,471.82c-.72-4-1.8-7.92-2.86-11.81,0-.11-.21,0-.17,0,1,3.84,1.69,7.74,2.42,11.64s1.38,7.93,1.94,12H744A104,104,0,0,0,742.57,471.82Z" fill="#a6a6a6"/><path d="M725.64,482.64a71.24,71.24,0,0,0-8.54-4.76c-1.43-.74-2.89-1.44-4.33-2.15s-3-1.32-4.54-2.07a.11.11,0,0,0-.12.07.08.08,0,0,0,0,.09c1.44.72,2.8,1.59,4.21,2.37l4.37,2.37c2.87,1.59,5.69,3.18,8.7,4.51a.25.25,0,0,0,.33-.1A.25.25,0,0,0,725.64,482.64Z" fill="#a6a6a6"/><path d="M772.86,511.36s24.85-5.93,36.25-22.6c10.89-15.86,14.41-43,14.7-45.42-.46,2.19-5.58,25.9-22.49,36.94C788.37,488.75,775.85,495.69,772.86,511.36Z" fill="#a6a6a6" opacity="0.1" style="isolation:isolate"/><path d="M795.79,468.45a31.48,31.48,0,0,0-9.15,15.08m.08,0a36.9,36.9,0,0,1,9.19-15c.16-.05,0-.17-.12-.09Z" fill="#a6a6a6"/><path d="M772.86,511.36s24.85-5.93,36.25-22.6c10.89-15.86,14.41-43,14.7-45.42v-.17s-11.91,16.94-24.44,21.25S769.27,483.69,772.86,511.36Z" fill="#dbdbdb"/><path d="M819.43,452.51a101.48,101.48,0,0,1-7.69,13.13,51.9,51.9,0,0,1-10.21,10.51c-3.38,2.68-6.95,5.11-10.36,7.74v-.12c.64-1,1.32-1.87,2-2.78,1.43-1.82,3-3.54,4.54-5.23,3.09-3.35,6.25-6.63,9-10.26a37,37,0,0,0,4-6.35c0-.11-.12-.17-.16,0-4,8.39-12.09,13.77-17.83,20.86a36.06,36.06,0,0,0-2.3,3.17A12.26,12.26,0,0,0,789,485.7a52.35,52.35,0,0,0-8.47,8.56,32.35,32.35,0,0,1,1-4.75,22.92,22.92,0,0,1,2.63-6.35c0-.11-.1-.2-.16-.11a30.84,30.84,0,0,0-2.9,6.25,22.28,22.28,0,0,0-.91,5.38h0a49,49,0,0,0-3.34,5.21c.09-.53.2-1.06.3-1.58.49-2.48,1.05-4.93,1.68-7.38a44.3,44.3,0,0,1,6-14c0-.09-.08-.19-.16-.09a53.53,53.53,0,0,0-6.61,13.68c-.8,2.44-1.43,4.92-2,7.42-.27,1.23-.52,2.45-.76,3.68-.11.64-.25,1.29-.35,1.94a90.88,90.88,0,0,0-5.74,16.84,249.15,249.15,0,0,0-5.29,31.42,262.69,262.69,0,0,0-1.72,33.3c0,1.39.12,2.79.19,4.19a.29.29,0,0,0,.58,0c.23-5.52.38-11,.71-16.54s.81-11,1.39-16.5a295.59,295.59,0,0,1,5.17-32.13c2-9.07,4.64-18.22,9.6-26.16a49.32,49.32,0,0,1,9-10.68c3.49-3.17,7.29-5.85,11-8.75a60.58,60.58,0,0,0,10.06-9.67,79.75,79.75,0,0,0,7.93-12.82l1.77-3.38C819.64,452.51,819.48,452.4,819.43,452.51Z" fill="#a6a6a6"/><path d="M815.1,456.16a82.64,82.64,0,0,1-5.53,9.67s0,.14.12,0a66.79,66.79,0,0,0,5.59-9.71C815.36,456.11,815.18,456.05,815.1,456.16Z" fill="#a6a6a6"/><path d="M681.7,500.37s-.4,35.3,20.71,45.5,32.43,1.7,46.77,5.12h0c-.56-.84-10.8-15.54-27.07-19.6C705.33,527.19,686.77,515.09,681.7,500.37Z" fill="#dbdbdb"/><path d="M681.7,500.37s-.4,35.3,20.71,45.5,32.43,1.7,46.77,5.12h0a80.23,80.23,0,0,0-24-7.07C711.85,542.28,686.43,533.67,681.7,500.37Z" fill="#a6a6a6" opacity="0.1" style="isolation:isolate"/><path d="M750.57,551.61a35.73,35.73,0,0,0-8.39-5.68c-.46-.22-.92-.39-1.37-.58a8,8,0,0,0-.72-.81,27,27,0,0,0-2-1.89,29.87,29.87,0,0,0-4.25-3.08c-3.51-2-7.33-3.49-10.91-5.39-.1,0-.19.1-.08.16,1.76.92,3.47,1.92,5.2,2.93s3.38,1.91,5,3a36.91,36.91,0,0,1,4.17,3.17c.37.32.73.67,1.08,1a54.77,54.77,0,0,0-7.14-1.89c-3.85-.79-7.77-1.35-11.62-2.16a57.49,57.49,0,0,1-5.6-1.58c-1.74-1.42-3.5-2.81-5.15-4.33a41.83,41.83,0,0,1-5.46-6.06c-.08-.1-.24,0-.16.09a63.59,63.59,0,0,0,8.66,9.52c-.92-.35-1.82-.71-2.71-1.11a43.7,43.7,0,0,1-18-15c0-.1-.22,0-.16.09a49.23,49.23,0,0,0,14.56,14,43.76,43.76,0,0,0,9.2,4.35,84.11,84.11,0,0,0,11.41,2.71,79.66,79.66,0,0,1,11.2,2.67,33,33,0,0,1,9.37,4.93,43.65,43.65,0,0,1,12.69,15.68,78.76,78.76,0,0,1,7,25.8c0,.38.64.38.6,0C765.94,577.36,762,561.92,750.57,551.61Z" fill="#a6a6a6"/><path d="M726.07,540.1a12,12,0,0,0-4.33-3.94,15.88,15.88,0,0,1-5.17-4.26c0-.1-.22,0-.14.09a17.56,17.56,0,0,0,4.55,4.09,15.9,15.9,0,0,1,5,4.11s.07,0,.11,0a.08.08,0,0,0,0-.11Z" fill="#a6a6a6"/><polygon points="737.28 577.66 738.24 597.08 741.19 656.39 785.46 656.39 788.41 597.08 789.36 577.66 737.28 577.66" fill="#ebebeb"/><polygon points="737.28 577.66 738.24 597.08 788.41 597.08 789.36 577.66 737.28 577.66" fill="#dbdbdb"/><rect x="734.18" y="569.56" width="58.3" height="18.52" fill="#ebebeb"/></g><circle cx="466.07" cy="203.56" r="7.01" fill="#686175" data-primary="true"/><circle cx="408.5" cy="168.51" r="47.1" fill="#686175" data-primary="true"/><circle cx="408.5" cy="168.51" r="47.1" opacity="0.2"/><circle cx="406.15" cy="168.51" r="47.1" fill="#686175" data-primary="true"/><rect x="527.16" y="474.23" width="9.85" height="151.07" fill="#f48225" data-secondary="true"/><path d="M507.4,615.86h50.23a23.71,23.71,0,0,1,23.71,23.71v10.36a0,0,0,0,1,0,0H483.69a0,0,0,0,1,0,0V639.57A23.71,23.71,0,0,1,507.4,615.86Z" fill="#f48225" data-secondary="true"/><path d="M507.4,615.86h50.23a23.71,23.71,0,0,1,23.71,23.71v10.36a0,0,0,0,1,0,0H483.69a0,0,0,0,1,0,0V639.57A23.71,23.71,0,0,1,507.4,615.86Z" opacity="0.4"/><path d="M505,465.81h53.57a0,0,0,0,1,0,0v9.29a3.64,3.64,0,0,1-3.64,3.64H508.63A3.64,3.64,0,0,1,505,475.1v-9.29A0,0,0,0,1,505,465.81Z" fill="#f48225" data-secondary="true"/><path d="M505,465.81h53.57a0,0,0,0,1,0,0v9.29a3.64,3.64,0,0,1-3.64,3.64H508.63A3.64,3.64,0,0,1,505,475.1v-9.29A0,0,0,0,1,505,465.81Z" opacity="0.4"/><path d="M173.4,601.74l-.91,27.07s13.85,10,27.68,2.17l2.22-22.52Z" fill="#fed0bc"/><path d="M191.46,288s-41.05,48.83-19.18,110.71c0,0-2.11,181.13-4.57,210.68h41S227.06,482,233.63,459l41.06-164.11-49.71-.4S201,293.05,191.46,288Z" fill="#373660"/><path d="M262.28,650.54H171.45V624.38a2.31,2.31,0,0,1,2-2.29c1.73-.24,4.25-.18,6,1.69a6.47,6.47,0,0,0,5.49,2.27c2.82-.35,6.31-1.9,8.13-7,0,0,5.6-12.87,14.6-1.93L231,638.41a14.79,14.79,0,0,0,12.15,3.77C249.11,641.27,257.87,641.74,262.28,650.54Z" fill="#f48225" data-secondary="true"/><rect x="167.71" y="650.54" width="99.07" height="9.33" rx="2.6" transform="translate(434.49 1310.42) rotate(180)" fill="#373660"/><path d="M396.26,589.39,388,615.19s-16.4,4.79-26.8-7.24l5.94-25.37Z" fill="#fed0bc"/><path d="M297.1,614.71l88.43,20.72,6-25.47a2.31,2.31,0,0,0-1.38-2.68c-1.63-.63-4.09-1.15-6.19.29a6.49,6.49,0,0,1-5.87.95c-2.67-1-5.71-3.29-6.31-8.69,0,0-2.51-13.81-13.78-5.22L330.35,610a14.81,14.81,0,0,1-12.69.9C312,608.69,303.4,607.15,297.1,614.71Z" fill="#686175" data-primary="true"/><rect x="290.35" y="624.86" width="99.07" height="9.33" rx="2.6" transform="translate(152.54 -60.93) rotate(13.18)" fill="#373660"/><path d="M360.56,592l39,5.73L438,465l6.69-66.32H402.77s-1.31,2.16-3.38,6.23a171.22,171.22,0,0,0-16.31,50Z" fill="#373660"/><path d="M360.56,592l39,5.73L438,465l6.69-66.32H402.77s-1.31,2.16-3.38,6.23a171.22,171.22,0,0,0-16.31,50Z" opacity="0.2"/><path d="M511.07,551.17l9.18,25.48s-10.09,13.79-25.67,10.58l-10.73-23.75Z" fill="#fed0bc"/><path d="M447.83,631.64l82.76-37.42-10.78-23.83a2.31,2.31,0,0,0-2.72-1.29c-1.68.49-3.94,1.58-4.74,4a6.44,6.44,0,0,1-4.07,4.33c-2.71.85-6.53.87-10.3-3.06,0,0-10.4-9.41-14.1,4.26l-12.52,29.06a14.79,14.79,0,0,1-9.52,8.44C456,617.77,448.22,621.8,447.83,631.64Z" fill="#686175" data-primary="true"/><rect x="441.25" y="612.68" width="99.07" height="9.33" rx="2.6" transform="translate(-210.74 257.01) rotate(-24.33)" fill="#373660"/><path d="M579.16,248.54H628.5a13.18,13.18,0,0,1,13.19,13.19V455.34a14.16,14.16,0,0,1-14.16,14.16H483.69l-17.5-52.95,45.31-24.91,20.64-141.22Z" fill="#f48225" data-secondary="true"/><path d="M618.29,433.17H472.49l-6.3-16.62,45.31-24.91,20.64-141.22,75.91-1.66a10,10,0,0,1,10.24,10Z" fill="#f48225" data-secondary="true"/><path d="M618.29,433.17H472.49l-6.3-16.62,45.31-24.91,20.64-141.22,75.91-1.66a10,10,0,0,1,10.24,10Z" opacity="0.4"/><path d="M480.93,568.36l36.78-11.47L481.83,436.25S611.14,455.14,591.18,378l-143.46,3.56s-32,8.56-19.7,45.51Z" fill="#373660"/><path d="M575.19,343.68,501.5,354.75l.85,15.25,10.85-.46c35.08,9.06,73.27,8.31,98.29-8.47s-21.59-82.71-21.59-82.71C576.36,256.87,546,248.93,546,248.93c-10-.28-26.48,4.43-26.48,4.43A68.27,68.27,0,0,0,491,260.69a29.55,29.55,0,0,0-11.64,10.87l-22.17,36.23L468,355.17l25-27.09s.82,13.55-24.22,29.56L475,381.51H592.84Z" fill="#686175" data-primary="true"/><g opacity="0.2"><path d="M504,333.06c-4,0-7-1.19-9-3.56-8.72-10.36,4.94-39.35,5.52-40.58l.68.32c-.14.3-14,29.79-5.62,39.78,3,3.58,8.62,4.24,16.68,2l.2.72A31.4,31.4,0,0,1,504,333.06Z"/></g><polygon points="501.5 354.75 566.98 338.75 560.35 306.59 575.19 343.68 501.5 354.75" opacity="0.2"/><path d="M506.6,254.88s28.86,22.35,41.94-5c0,0-3.8-6.86-34,2.35C514.53,252.2,512.25,253.91,506.6,254.88Z" fill="#fff"/><path d="M515.55,236.37s2.39,5.39,2.17,17.09c0,0,12,6.68,24.52-4.43,0,0-7.64-7.93-6.14-32.11Z" fill="#fed0bc"/><path d="M516.78,240.44l-1.08-3.68s12.63-2.47,16.45-10C532.15,226.78,528,238.25,516.78,240.44Z" fill="#f4a57f"/><path d="M251,152.07s38.48-5.24,54.49,37.87l53.27,105H325.85L279.61,225c-1.85,13.55-9.54,18.78-9.54,18.78l11.39,51.11H236.2c-37.56-.31-50.5-9.85-50.5-9.85,6.16-14.47,9.55-111.77,9.55-111.77,5.23-26.48,30.79-24.94,30.79-24.94Z" fill="#f48225" data-secondary="true"/><path d="M234.21,117.93s-.47,21.21-8.17,30.44c0,0,12,16,24.94,3.7,0,0-2.57-9.94.56-15.29,0,0-9.62-2.35-14.6-18.85Z" fill="#fed0bc"/><ellipse cx="517.94" cy="208.32" rx="18.95" ry="28.76" fill="#fed0bc"/><path d="M512.93,181.21s8.64,19.79,22.18,19.11c0,0,3.57,8.22,1,16.6,0,0-4,33.49,14.58,37.06,0,0,24.51-1.38,41.74,28.13,0,0,11.09-14.25-8.58-31.73a64.57,64.57,0,0,0-11-7.73c-7.27-4.13-26.8-18.37-19.89-49.44,0,0,3.78-23.5-27.53-28.71a32,32,0,0,0-21.22,3.64c-7.45,4.3-14.78,12.63-12.65,28.65,0,0,8.58,30.53-4.77,40.29,0,0-19.39,14.79-9.14,37.19,0,0,6.46-17.95,40.05-20.81,0,0,1.27-10.12-2-16.57,0,0-19.22-2.93-16.07-36.3C499.68,200.59,510.42,195.75,512.93,181.21Z"/><polygon points="320.49 381.51 296.86 282.87 451.75 282.87 475.02 381.51 320.49 381.51" fill="#d1d3d4"/><polygon points="475.02 381.51 532.54 381.51 521.56 369.5 472.49 370.77 475.02 381.51" fill="#bcbec0"/><rect x="241.12" y="381.51" width="510.18" height="20.26" fill="#f48225" data-secondary="true"/><rect x="651.42" y="381.51" width="99.88" height="20.26" opacity="0.1"/><rect x="370.96" y="401.77" width="4.31" height="258.1" fill="#f48225" data-secondary="true"/><rect x="274.89" y="401.77" width="4.31" height="258.1" fill="#f48225" data-secondary="true"/><g opacity="0.4"><rect x="370.96" y="401.77" width="4.31" height="258.1"/><rect x="274.89" y="401.77" width="4.31" height="258.1"/></g><rect x="633.69" y="401.77" width="4.31" height="258.1" fill="#f48225" data-secondary="true"/><rect x="730.98" y="401.77" width="4.31" height="258.1" fill="#f48225" data-secondary="true"/><g opacity="0.4"><rect x="633.69" y="401.77" width="4.31" height="258.1"/><rect x="730.98" y="401.77" width="4.31" height="258.1"/></g><path d="M274.52,108.4c-2.07,17-11.82,30.2-23,28.38C241,135.06,234,120.67,236.07,103.7s12.36-29.68,23-28.39S276.59,91.42,274.52,108.4Z" fill="#fed0bc"/><path d="M318.27,126.62a37.73,37.73,0,0,0-19.94-24.49L298,102s-15.28-5-13.89-24c0,0,0-19.33-20-15.06,0,0-26.44-14.44-42.36,9.27,0,0-12.51,19.74-33,29.82,0,0-38.66,12.08-22.46,41.93,0,0,1.71-7.39,6.83-8,0,0-1.71,8,.56,14.5,0,0,9.1-8.81,17.92-10.23l-.18.22A13.3,13.3,0,0,0,193.91,159l4,3.11a15,15,0,0,1,11.66-12L226,148.37s1.6-.73,3-4.66l1.38-3A69.94,69.94,0,0,0,235,120.2l1.1-16.5s4.44.34,6.9-8.9c0,0,17.93-6,21-16.72.1-.17.19-.34.29-.5.28,1.92,1.82,9.57,8.43,11.13,0,0,6.29,16.22-3.23,35.94a25.79,25.79,0,0,1-1.35,2.31c-.19.18-.6,1-.8,1.21,0,0-6.79,11.36-18.8,7.83a23.53,23.53,0,0,0,2,15.29s19.33,2.55,23.6,10.8c0,0,6.53,0,7.67-10.24h0a6.89,6.89,0,0,1,2.36,4.42c.39,3.26.78,8.56-.37,10.65,0,0,11.37.29,21.61-19.33,0,0,5.69,7.11-1.71,17.34C303.67,164.93,325.9,156.87,318.27,126.62Z"/><ellipse cx="234.87" cy="111.06" rx="8.17" ry="4.85" transform="translate(96.16 330.74) rotate(-83.04)" fill="#fed0bc"/><path d="M248.06,139.1a14.07,14.07,0,0,1,.42-3.1s-8.38-4.53-10.51-12.68C238,123.32,236.27,132,248.06,139.1Z" fill="#f4a57f"/><ellipse cx="537.78" cy="206.72" rx="5.63" ry="9.49" fill="#fed0bc"/><path d="M270.07,243.82a28.54,28.54,0,0,0,5.83-8.23,32,32,0,0,0,2.8-9.61,33.67,33.67,0,0,0,.19-5c-.05-.83,0-1.68-.12-2.51l-.32-2.51a17.89,17.89,0,0,0-.47-2.49l-.57-2.47c-.45-1.63-1-3.23-1.49-4.88.68,1.56,1.34,3.14,2,4.74l.71,2.47a16.28,16.28,0,0,1,.61,2.5l.44,2.54c.15.85.13,1.72.2,2.58a35.72,35.72,0,0,1-.14,5.17,28.82,28.82,0,0,1-3.12,9.84,29.37,29.37,0,0,1-2.83,4.31A23,23,0,0,1,270.07,243.82Z" fill="#f48225" data-secondary="true"/><path d="M270.07,243.82a28.54,28.54,0,0,0,5.83-8.23,32,32,0,0,0,2.8-9.61,33.67,33.67,0,0,0,.19-5c-.05-.83,0-1.68-.12-2.51l-.32-2.51a17.89,17.89,0,0,0-.47-2.49l-.57-2.47c-.45-1.63-1-3.23-1.49-4.88.68,1.56,1.34,3.14,2,4.74l.71,2.47a16.28,16.28,0,0,1,.61,2.5l.44,2.54c.15.85.13,1.72.2,2.58a35.72,35.72,0,0,1-.14,5.17,28.82,28.82,0,0,1-3.12,9.84,29.37,29.37,0,0,1-2.83,4.31A23,23,0,0,1,270.07,243.82Z" opacity="0.4"/><path d="M226.64,270.91s3.88.35,5.61.27c1.88-.08,3.87-.27,5.18-.44a22.93,22.93,0,0,0,4.53-1c2-.87,1.15-2.75-1-2.38a37.08,37.08,0,0,1-3.93.46,45.28,45.28,0,0,1-4.61.06,18.07,18.07,0,0,1-4.91-.56C226.78,268,226.64,270.91,226.64,270.91Z" fill="#fed0bc"/><path d="M227,268.74a41.89,41.89,0,0,1,6.56-1.09c2.28-.24,4.27-.45,5.74-.62a45,45,0,0,0,4.51-.83c2.48-.6,2.21-3.07-.49-2.86l-4.55.35c-1.72.1-4.11.39-5.47.51a60.52,60.52,0,0,0-6.27.7C225.69,265.78,227,268.74,227,268.74Z" fill="#fed0bc"/><path d="M224.87,261.69a43.73,43.73,0,0,1,6.51-1.4c2.27-.33,4.25-.64,5.71-.88a39.93,39.93,0,0,0,4.47-1.05c2.44-.7,2.05-3.15-.64-2.83-.71.1-2.72.36-4.51.57s-4.09.57-5.45.76a60,60,0,0,0-6.22,1C223.47,258.8,224.87,261.69,224.87,261.69Z" fill="#fed0bc"/><path d="M227.85,264.45c1.78-.1,4.19-.34,6.33-.55a57.07,57.07,0,0,0,5.9-.95c1.53-.33,2.78-.62,3.95-.84,2.45-.41,1.86-3.23-.68-3-.88.08-2.93.4-4.62.62-1.9.27-3.59.42-4.89.54-2.34.16-6.07.58-6.08.61C226.63,261.75,227.85,264.45,227.85,264.45Z" fill="#fed0bc"/><path d="M223.68,259s-13.38,4.12-10.85.75c3.07-4.08,7.89-6.13,12.33-7.81,3.33-1.25,5.42-2.39,6.1-.65.57,1.46-1.57,2.94-4.68,4.08C223.08,256.69,223.68,259,223.68,259Z" fill="#fed0bc"/><path d="M214,270.05c3.51,1.12,11.28,1.49,15.55,1.07a7,7,0,0,0,1.11-4.1c-.07-3.54-1-8.75-2.47-9.81-2.72.48-9,.7-13,1.41C209,259.76,211.08,269.1,214,270.05Z" fill="#fed0bc"/><path d="M214.34,253.36v21L175,275.79a22.82,22.82,0,0,1-20.42-10.67c-3-5-4.67-12-2.23-21.61l20.53-54.6s13-41,49.61-40.41l-26.21,102Z" fill="#f48225" data-secondary="true"/><path d="M207.7,252.05l-6.85-2.89L203.54,222l-7.25,28.2c-1.87-.26-3.74-.51-5.62-.72l-4-.44c-1.33-.11-2.65-.25-4-.33,1.31.3,2.62.54,3.92.82l3.94.71c2.62.48,5.25.87,7.89,1.27s5.28.74,7.92,1,5.3.59,8,.77C212.13,252.87,209.92,252.45,207.7,252.05Z" fill="#f48225" data-secondary="true"/><path d="M207.7,252.05l-6.85-2.89L203.54,222l-7.25,28.2c-1.87-.26-3.74-.51-5.62-.72l-4-.44c-1.33-.11-2.65-.25-4-.33,1.31.3,2.62.54,3.92.82l3.94.71c2.62.48,5.25.87,7.89,1.27s5.28.74,7.92,1,5.3.59,8,.77C212.13,252.87,209.92,252.45,207.7,252.05Z" opacity="0.4"/><path d="M506.58,361.23c1.77-.14-4.27-3.25-8.44-4.25s-10.21-1.84-11.23-2-2.55,2.46.94,3.75S505.62,361.3,506.58,361.23Z" fill="#f4a57f"/><path d="M496.06,358c-2-.46-8.85-.35-10.22-.32a11.93,11.93,0,0,0-6.15,2.26c-1.4.89-2,2.5-2.68,3.44-1.6,2.09-.05,2.48,2.54,1.71.7-.21,1.66-2.75,3.51-3s2.93-.89,4.35-.7c1,.12,5.5,1.45,7.58,2C496.46,362.74,496.06,358,496.06,358Z" fill="#fed0bc"/><path d="M496.11,359c0,1.44-.09,3.89-1.12,4.3-2.08-.53-6.58-1.86-7.58-2-1.42-.19-2.57.46-4.35.7s-2.81,2.79-3.51,3c-2.59.77-4.14.38-2.54-1.71a10.54,10.54,0,0,0,.7-1.1C483.36,358.36,489.55,359.24,496.11,359Z" fill="#f4a57f"/><path d="M494,359.78a47.6,47.6,0,0,0-7.43,0,45.06,45.06,0,0,0-6.75,1.65c-1.68.6-3.3,4.1-4.28,5.37-1.57,2,1.11,3.54,2.39,1.7.42-.59,1.88-2.88,3.67-3.39a23.52,23.52,0,0,1,5.39-.83c1,0,4.46.19,6.59.42C495,363.86,494,359.78,494,359.78Z" fill="#fed0bc"/><path d="M494.32,362c.06,1.09-.05,2.25-.72,2.63-2.13-.23-5.58-.44-6.59-.42a23.52,23.52,0,0,0-5.39.83c-1.79.51-3.25,2.8-3.67,3.39a1.71,1.71,0,0,1-1.74.8C479.48,362.72,486.93,361.3,494.32,362Z" fill="#f4a57f"/><path d="M494.84,362.42a38.28,38.28,0,0,0-7.1.52,37.12,37.12,0,0,0-5.72,1.14c-1.65.59-3.49,3.25-4.33,4-1.81,1.7,0,3.2,2,1.94.62-.38,1.14-1.84,2.9-2.35a23.75,23.75,0,0,1,5.32-.86c1,0,4.4.16,6.51.38C495.8,366.44,494.84,362.42,494.84,362.42Z" fill="#fed0bc"/><path d="M495.17,365.38a2.17,2.17,0,0,1-.71,1.85c-2.11-.22-5.51-.4-6.51-.38a23.74,23.74,0,0,0-5.26.84C486.4,364.77,491,365.55,495.17,365.38Z" fill="#f4a57f"/><path d="M495.09,365.79a1.8,1.8,0,0,1-.58,1.53c-1.77-.17-4.61-.33-5.44-.31a19.62,19.62,0,0,0-4.39.7C487.77,365.27,491.63,365.92,495.09,365.79Z" fill="#f69a6f"/><path d="M494.73,366.13a36.25,36.25,0,0,0-7.71.07,22.51,22.51,0,0,0-5.1,2c-.61.31-1.33,1.81-2,2.7-1.83,2.53.62,3.62,2.36,2.1.52-.45,2.29-2.14,2.29-2.14a23.41,23.41,0,0,1,5.08-.92,18.09,18.09,0,0,1,3.81.12C494.8,369.41,494.73,366.13,494.73,366.13Z" fill="#fed0bc"/><path d="M509.17,360.85c-1.35-.51-10.35-2.91-15.24-3.13-.74,1.63-2.06,11.18-.45,12.36,7.54.19,13.51.16,14.1-.13C513.18,366.35,510.59,362,509.17,360.85Z" fill="#fed0bc"/><path d="M501.5,354.75l5.1,17.85s58.87,5.79,76.68,0l-7.53-28.55Z" fill="#686175" data-primary="true"/><path d="M512.45,222.3h-.36l0-.32c.55-5-3-13.72-3.07-13.81l.56-.23c.15.36,3.53,8.59,3.14,13.77a6.67,6.67,0,0,0,3.72-1.09l.37.48A7.41,7.41,0,0,1,512.45,222.3Z" fill="#f4a57f"/><ellipse cx="521.59" cy="210.31" rx="2.71" ry="1.84" transform="translate(292.05 723.72) rotate(-87.87)"/><ellipse cx="506.24" cy="212.45" rx="1.84" ry="2.71" transform="translate(-35.2 121.56) rotate(-13.24)"/><path d="M526,201.63a10.73,10.73,0,0,0-6.58-2c-1.67.06-3.2.5-3.25,1.9,0,0-.6,1.76,10.2.38Z"/><path d="M497.84,207.16a10.84,10.84,0,0,1,5.36-4.34c1.57-.56,3.16-.71,3.72.57,0,0,1.21,1.4-9.32,4.14Z"/><path d="M518.46,226c-.43.09-.9.18-1.41.24s-1,.08-1.49.11c-1.37.06-2.66.11-3,1.16a2.34,2.34,0,0,0,.44,1.81,4,4,0,0,0,3.08,1.79,5.44,5.44,0,0,0,1.33,0,4.55,4.55,0,0,0,3.21-2.05,3,3,0,0,0,.51-2.39,1.13,1.13,0,0,0-1-.82A6.45,6.45,0,0,0,518.46,226Z" fill="#f4a57f"/><path d="M517.09,226.62c-1.91.24-3.79-.07-4.15,1-.26.77,1,3.51,4.4,3,2.39-.34,3.77-2.6,3.38-3.93C520.43,225.72,519,226.4,517.09,226.62Z"/><path d="M512.94,227.62a.8.8,0,0,0,0,.28c2.92,1.36,6.54.6,7-1.71-.65,0-1.65.29-2.85.43C515.18,226.86,513.3,226.55,512.94,227.62Z" fill="#fff"/><path d="M260.2,119.92h0l.34,0-.05-.34c-.79-5.31,2.69-14.77,2.73-14.87l-.61-.22c-.14.38-3.44,9.31-2.81,14.83a7.15,7.15,0,0,1-4-1l-.38.53A8,8,0,0,0,260.2,119.92Z" fill="#f4a57f"/><ellipse cx="249.96" cy="107.47" rx="1.97" ry="2.9" transform="translate(-7.29 18.85) rotate(-4.26)"/><ellipse cx="266.44" cy="109.15" rx="2.9" ry="1.97" transform="translate(108.01 349.57) rotate(-78.89)"/><path d="M244.93,98.37a11.59,11.59,0,0,1,6.95-2.43c1.79,0,3.44.41,3.55,1.91,0,0,.71,1.85-10.88.81Z"/><path d="M275.2,103.16a11.55,11.55,0,0,0-5.9-4.42c-1.7-.53-3.4-.64-3.95.76,0,0-1.24,1.54,10.12,4Z"/><path d="M253.92,124.09c.46.07,1,.15,1.51.19s1.09,0,1.61.06c1.46,0,2.84,0,3.26,1.13a2.53,2.53,0,0,1-.41,1.94,4.29,4.29,0,0,1-3.21,2,6.19,6.19,0,0,1-1.43,0,4.88,4.88,0,0,1-3.5-2.06,3.23,3.23,0,0,1-.64-2.54,1.18,1.18,0,0,1,1.07-.91A6.2,6.2,0,0,1,253.92,124.09Z" fill="#f4a57f"/><path d="M255.41,124.72c2,.17,4-.24,4.48.9.31.81-.91,3.79-4.59,3.41-2.57-.27-4.13-2.63-3.76-4.07C251.81,123.88,253.35,124.55,255.41,124.72Z"/><path d="M259.89,125.62a.86.86,0,0,1,0,.29c-3.06,1.57-7,.9-7.58-1.54.7-.05,1.78.25,3.07.35C257.46,124.89,259.46,124.48,259.89,125.62Z" fill="#fff"/><path d="M465.27,196a7.72,7.72,0,0,0-1.57.72,7.57,7.57,0,0,0-3.08,3.4,7.11,7.11,0,0,0-.71,3.1,6.37,6.37,0,0,0,1.07,3.43,6.92,6.92,0,0,0,12.75-2.36,6.27,6.27,0,0,0-.24-3.59,7.23,7.23,0,0,0-1.76-2.67,7.69,7.69,0,0,0-4.11-2.07c-1.09-.16-1.72,0-1.73-.11l.45-.09a2.53,2.53,0,0,1,.55,0,4.82,4.82,0,0,1,.76,0,7.76,7.76,0,0,1,6.26,4.75,6.7,6.7,0,0,1,.3,3.86,7.79,7.79,0,0,1-2,3.77,7,7,0,0,1-8.5,1.58,8.1,8.1,0,0,1-3.2-2.83,6.66,6.66,0,0,1-1.08-3.7,7.71,7.71,0,0,1,4.14-6.68,4.28,4.28,0,0,1,.69-.31,3.24,3.24,0,0,1,.53-.16C465.11,196,465.27,196,465.27,196Z" fill="#686175" data-primary="true"/><path d="M465.27,196a7.72,7.72,0,0,0-1.57.72,7.57,7.57,0,0,0-3.08,3.4,7.11,7.11,0,0,0-.71,3.1,6.37,6.37,0,0,0,1.07,3.43,6.92,6.92,0,0,0,12.75-2.36,6.27,6.27,0,0,0-.24-3.59,7.23,7.23,0,0,0-1.76-2.67,7.69,7.69,0,0,0-4.11-2.07c-1.09-.16-1.72,0-1.73-.11l.45-.09a2.53,2.53,0,0,1,.55,0,4.82,4.82,0,0,1,.76,0,7.76,7.76,0,0,1,6.26,4.75,6.7,6.7,0,0,1,.3,3.86,7.79,7.79,0,0,1-2,3.77,7,7,0,0,1-8.5,1.58,8.1,8.1,0,0,1-3.2-2.83,6.66,6.66,0,0,1-1.08-3.7,7.71,7.71,0,0,1,4.14-6.68,4.28,4.28,0,0,1,.69-.31,3.24,3.24,0,0,1,.53-.16C465.11,196,465.27,196,465.27,196Z" opacity="0.2"/><path d="M427.38,160.82A21.23,21.23,0,1,0,397.12,180v5.34h18.6s.1-3,.14-5.69A21.2,21.2,0,0,0,427.38,160.82Z" fill="#fff"/><path d="M409,185.31V185a2.42,2.42,0,0,1,.1-.76c.08-.68.2-1.67.38-2.94s.44-2.82.84-4.61a30.42,30.42,0,0,1,1.94-5.9,19.18,19.18,0,0,1,1.73-3.18,4,4,0,0,1,1.46-1.33,2.16,2.16,0,0,1,2,0,1.37,1.37,0,0,1,.67.84,1.45,1.45,0,0,1-.08,1.08,3,3,0,0,1-1.64,1.41,5.8,5.8,0,0,1-4.42-.3,5.87,5.87,0,0,1-3-3.54,4.44,4.44,0,0,1-.13-2.45,1.89,1.89,0,0,1,1.93-1.47,1.3,1.3,0,0,1,1.08.75,1.91,1.91,0,0,1,.18,1.33,4.25,4.25,0,0,1-1.5,2.11,6.3,6.3,0,0,1-4.95,1.43,5.52,5.52,0,0,1-4.09-3.06,3.18,3.18,0,0,1-.15-2.58,1.55,1.55,0,0,1,2-.92l.25.11a2.26,2.26,0,0,1,.91.93,4.06,4.06,0,0,1,.32,1.23,6.62,6.62,0,0,1-.32,2.42,6.31,6.31,0,0,1-7.38,4.16,3.49,3.49,0,0,1-1.93-1,1.63,1.63,0,0,1-.1-2,1.34,1.34,0,0,1,.94-.47,2.12,2.12,0,0,1,1,.2,3,3,0,0,1,1.33,1.45c.54,1.15,1,2.27,1.34,3.34,1.69,4.28,2.89,7.81,3.71,10.25.4,1.21.69,2.17.89,2.81.09.32.18.56.23.74a.32.32,0,0,1,0,.25,1.17,1.17,0,0,1-.09-.24,3.65,3.65,0,0,0-.26-.73c-.21-.66-.53-1.59-.95-2.81-.82-2.42-2.05-5.93-3.77-10.2-.44-1.06-.88-2.19-1.4-3.31a2.94,2.94,0,0,0-1.22-1.34,1.34,1.34,0,0,0-1.59,2,3.16,3.16,0,0,0,1.79.92,6.15,6.15,0,0,0,4.23-.59,6,6,0,0,0,2.87-3.43,5.88,5.88,0,0,0,.31-2.32,2.34,2.34,0,0,0-1.08-1.95,1.43,1.43,0,0,0-1.11-.1,1.3,1.3,0,0,0-.77.8,2.9,2.9,0,0,0,.13,2.36,5.27,5.27,0,0,0,3.91,2.91,6.07,6.07,0,0,0,4.74-1.34,4,4,0,0,0,1.58-2,1.72,1.72,0,0,0-.14-1.14,1.09,1.09,0,0,0-.88-.61,1.51,1.51,0,0,0-1.06.33,1.75,1.75,0,0,0-.6,1,4.13,4.13,0,0,0,.12,2.31,5.68,5.68,0,0,0,2.86,3.4,5.55,5.55,0,0,0,4.23.31,2.81,2.81,0,0,0,1.52-1.34,1.25,1.25,0,0,0-.49-1.64,2,2,0,0,0-1.82-.06,3.6,3.6,0,0,0-1.33,1.24,20.22,20.22,0,0,0-1.74,3.12,32.86,32.86,0,0,0-2,5.87c-.41,1.78-.68,3.32-.89,4.59s-.33,2.24-.43,2.92l-.12.76Z" fill="#373660"/><path d="M414.28,188.8h-16a1.18,1.18,0,0,1-1.2-1.17h0a1.2,1.2,0,0,1,1.2-1.2h16a1.2,1.2,0,0,1,1.2,1.2h0a1.18,1.18,0,0,1-1.19,1.18Z" fill="#373660"/><path d="M414.28,189.86h-16a1.2,1.2,0,0,0-.25,2.39h2l2.32,4.43a1.57,1.57,0,0,0,1.34.82h5.7a1.52,1.52,0,0,0,1.33-.84l2.26-4.41h1.18a1.2,1.2,0,0,0,.26-2.39,1.13,1.13,0,0,0-.26,0Z" fill="#373660"/><path d="M751.58,243.53c.34,1.61.68,3.19,1,4.74l4.64-1c-.32-1.54-.65-3.11-1-4.72Z" fill="#f5f5f5"/><path d="M741.71,245.59c.34,1.65.67,3.25,1,4.82l4.54-1c-.33-1.55-.66-3.14-1-4.77Z" fill="#f5f5f5"/><path d="M797.4,243.87l1.7-.35-.88-4.45-1.73.37C796.8,241,797.11,242.43,797.4,243.87Z" fill="#f5f5f5"/><path d="M791.68,240.46c.31,1.5.61,3,.91,4.4l4.47-.92c-.3-1.43-.61-2.91-.93-4.42Z" fill="#f5f5f5"/><path d="M761.45,241.49c.33,1.6.66,3.17,1,4.71l4.75-1c-.33-1.53-.65-3.1-1-4.69Z" fill="#f5f5f5"/><path d="M776.53,238.35c.33,1.6.65,3.17,1,4.7l4.3-.89c-.32-1.53-.65-3.1-1-4.7Z" fill="#f5f5f5"/><path d="M756.59,242.5c.33,1.6.66,3.18,1,4.72l4.5-.95c-.32-1.53-.65-3.1-1-4.7Z" fill="#f5f5f5"/><path d="M771.32,239.44c.33,1.6.65,3.16,1,4.69h.17l4.68-1c-.32-1.54-.65-3.1-1-4.7Z" fill="#f5f5f5"/><path d="M787,241.44c.31,1.49.62,3,.91,4.37l4.31-.88c-.31-1.43-.61-2.89-.93-4.4Z" fill="#f5f5f5"/><path d="M766.56,240.43c.33,1.6.66,3.17,1,4.7l4.4-.92c-.32-1.53-.64-3.09-1-4.69Z" fill="#f5f5f5"/><path d="M742.76,250.59l.93,4.47,4.55-1-.93-4.43Z" fill="#f5f5f5"/><path d="M747.66,249.59c.32,1.51.62,3,.92,4.43l4.62-1c-.3-1.42-.61-2.89-.92-4.4Z" fill="#f5f5f5"/><path d="M781.18,237.38c.33,1.6.66,3.17,1,4.71l4.44-.92c-.32-1.54-.65-3.12-1-4.72Z" fill="#f5f5f5"/><path d="M798.46,249l1.66-.34-1-4.87-1.7.36C797.81,245.84,798.14,247.46,798.46,249Z" fill="#f5f5f5"/><path d="M792.66,245.18c.34,1.67.67,3.28,1,4.82l4.49-.92c-.32-1.55-.66-3.17-1-4.84Z" fill="#f5f5f5"/><path d="M752.63,248.59l.91,4.4,4.66-1c-.3-1.42-.6-2.88-.92-4.38Z" fill="#f5f5f5"/><path d="M767.61,245.49c.31,1.49.61,2.95.9,4.36l4.42-.92c-.3-1.41-.61-2.86-.92-4.35Z" fill="#f5f5f5"/><path d="M772.54,244.47h-.17c.31,1.49.61,3,.9,4.36l4.87-1c-.3-1.41-.61-2.86-.92-4.35Z" fill="#f5f5f5"/><path d="M777.58,243.42l.9,4.35,4.31-.89c-.29-1.41-.6-2.87-.91-4.36Z" fill="#f5f5f5"/><path d="M762.5,246.59c.31,1.49.61,2.95.9,4.37l4.77-1c-.3-1.41-.6-2.86-.92-4.35Z" fill="#f5f5f5"/><path d="M757.64,247.59l.9,4.38,4.52-.95c-.29-1.41-.6-2.87-.91-4.36Z" fill="#f5f5f5"/><path d="M782.23,242.44c.31,1.5.61,3,.9,4.37l4.47-.92c-.3-1.42-.61-2.88-.92-4.38Z" fill="#f5f5f5"/><path d="M746.61,244.59c.34,1.62.68,3.21,1,4.77l4.61-1c-.32-1.54-.66-3.12-1-4.74Z" fill="#f5f5f5"/><path d="M785,231.59c.32,1.51.63,3,.93,4.46l4.28-.88c-.3-1.47-.62-3-.93-4.48Z" fill="#f5f5f5"/><path d="M754.18,232.79l-4.64,1c.26,1.24.52,2.49.79,3.75.06.31.12.61.19.91l4.63-1c-.06-.25-.11-.5-.16-.75C754.72,235.36,754.45,234.07,754.18,232.79Z" fill="#f5f5f5"/><path d="M744.21,234.84l-4.54.92c.26,1.25.53,2.51.79,3.79.07.32.13.63.2.95l4.52-1-.18-.87C744.73,237.37,744.47,236.09,744.21,234.84Z" fill="#f5f5f5"/><path d="M795.37,234.08l1.79-.36-.89-4.53-1.83.39C794.75,231.1,795.07,232.59,795.37,234.08Z" fill="#f5f5f5"/><path d="M759,231.78l-4.49.93c.27,1.28.54,2.58.81,3.89a3.35,3.35,0,0,0,.16.75l4.49-.94c-.06-.3-.13-.6-.19-.9C759.56,234.25,759.3,233,759,231.78Z" fill="#f5f5f5"/><path d="M789.63,230.59c.31,1.52.62,3,.93,4.48l4.45-.91-.94-4.51Z" fill="#f5f5f5"/><path d="M749.17,233.82l-4.6.94c.27,1.26.53,2.53.8,3.82l.18.87,4.6-1-.19-.91C749.69,236.3,749.43,235.05,749.17,233.82Z" fill="#f5f5f5"/><path d="M788,246.16c.34,1.66.68,3.26,1,4.8l4.33-.89c-.33-1.55-.67-3.15-1-4.82Z" fill="#f5f5f5"/><path d="M778.77,227.67l-4.28.9c.28,1.34.56,2.7.85,4.08a2.59,2.59,0,0,0,.11.54l4.29-.89c-.07-.3-.13-.6-.19-.9C779.29,230.14,779,228.9,778.77,227.67Z" fill="#f5f5f5"/><path d="M768.88,229.73l-4.39.92.83,4a3.46,3.46,0,0,0,.13.64l4.39-.91c-.06-.3-.12-.6-.19-.89C769.42,232.2,769.16,231,768.88,229.73Z" fill="#f5f5f5"/><path d="M774.12,228.65l-4.84,1q.39,1.83.78,3.72l.18.89h.17l4.67-1-.11-.54C774.68,231.35,774.4,230,774.12,228.65Z" fill="#f5f5f5"/><path d="M764.15,230.72l-4.74,1c.26,1.23.52,2.48.78,3.74.06.3.13.59.19.89l4.73-1a3.83,3.83,0,0,0-.13-.64C764.7,233.36,764.42,232,764.15,230.72Z" fill="#f5f5f5"/><path d="M765.56,235.59l.92,4.43,4.39-.91c-.3-1.46-.61-2.93-.92-4.43Z" fill="#f5f5f5"/><path d="M750.58,238.72l.94,4.48,4.63-1c-.31-1.46-.62-2.95-.93-4.46Z" fill="#f5f5f5"/><path d="M780.18,232.59q.47,2.25.93,4.44l4.43-.92c-.3-1.46-.61-2.94-.93-4.45Z" fill="#f5f5f5"/><path d="M740.71,240.74l.95,4.55,4.53-1-1-4.51Z" fill="#f5f5f5"/><path d="M796.43,239.15l1.74-.36-1-4.79-1.78.38C795.75,236,796.1,237.59,796.43,239.15Z" fill="#f5f5f5"/><path d="M790.63,235.39c.33,1.62.66,3.2,1,4.74l4.46-.91c-.33-1.55-.66-3.14-1-4.77Z" fill="#f5f5f5"/><path d="M745.61,239.74c.32,1.53.64,3,.94,4.51l4.6-1-.94-4.48Z" fill="#f5f5f5"/><path d="M755.59,237.69c.31,1.51.62,3,.93,4.46l4.49-.94c-.3-1.46-.61-2.94-.93-4.45Z" fill="#f5f5f5"/><path d="M770.48,234.59h-.16l.92,4.43,4.84-1-.92-4.43Z" fill="#f5f5f5"/><path d="M775.53,233.59l.92,4.44,4.29-.89c-.31-1.46-.61-2.94-.93-4.44Z" fill="#f5f5f5"/><path d="M786,236.37c.34,1.61.66,3.18,1,4.72l4.29-.88c-.32-1.56-.65-3.14-1-4.74Z" fill="#f5f5f5"/><path d="M760.45,236.69c.32,1.5.62,3,.93,4.44l4.74-1c-.31-1.46-.62-2.93-.93-4.43Z" fill="#f5f5f5"/><path d="M754.67,258.46c.31,1.51.61,3,.89,4.32l4.71-1c-.29-1.36-.59-2.8-.91-4.3Z" fill="#f5f5f5"/><path d="M745.75,265.12l1,5,4.65-1-1-4.93Z" fill="#f5f5f5"/><path d="M750.65,264.12c.37,1.79.71,3.44,1,4.94l4.72-1c-.32-1.49-.66-3.13-1-4.9Z" fill="#f5f5f5"/><path d="M801.5,263.94l1.58-.32-.94-4.78-1.6.34C800.88,261,801.23,262.59,801.5,263.94Z" fill="#f5f5f5"/><path d="M791.09,261.18l1,4.71,4.47-.93c-.29-1.33-.63-2.92-1-4.71Z" fill="#f5f5f5"/><path d="M795.74,260.2l1,4.73,4.63-1-1-4.75Z" fill="#f5f5f5"/><path d="M775,259.09l-4.42.92c.36,1.75.7,3.37,1,4.86l4.52-.94c-.32-1.48-.66-3.1-1-4.85Z" fill="#f5f5f5"/><path d="M786.29,262.19c.36,1.81.68,3.38.94,4.69l4.63-1c-.29-1.32-.63-2.9-1-4.69Z" fill="#f5f5f5"/><path d="M775.36,259c.36,1.75.69,3.38,1,4.86h.22l4.75-1c-.32-1.48-.67-3.1-1-4.85Z" fill="#f5f5f5"/><path d="M755.62,263.1c.37,1.78.7,3.42,1,4.91l4.76-1c-.32-1.49-.66-3.12-1-4.88Z" fill="#f5f5f5"/><path d="M783.21,247.17c.34,1.65.67,3.25,1,4.78l4.49-.92c-.32-1.54-.66-3.14-1-4.8Z" fill="#f5f5f5"/><path d="M760.63,262.07l1,4.89,4.62-1c-.31-1.48-.66-3.11-1-4.86Z" fill="#f5f5f5"/><path d="M766.56,266.29c.36,1.82.68,3.39.94,4.7l4.93-1c-.28-1.32-.62-2.89-1-4.68Z" fill="#f5f5f5"/><path d="M693.45,229.19c.37,1.86.7,3.47,1,4.81l4.73-1c-.29-1.32-.63-2.92-1-4.75Z" fill="#f5f5f5"/><path d="M698.35,228.19l1,4.77,4.79-1c-.29-1.32-.63-2.9-1-4.72Z" fill="#f5f5f5"/><path d="M729.65,204.91a3.68,3.68,0,0,1,.14-1.92l-2.6.52.92,4.64,3.42-.74A3.66,3.66,0,0,1,729.65,204.91Z" fill="#f5f5f5"/><path d="M781.63,263.16c.37,1.79.68,3.36,1,4.69l4.48-.93-1-4.69Z" fill="#f5f5f5"/><path d="M783.57,226.66l-4.43.93c.26,1.23.52,2.47.78,3.73.06.3.12.6.19.9l4.43-.92-.09-.45C784.15,229.44,783.88,228,783.57,226.66Z" fill="#f5f5f5"/><path d="M771.66,265.24c.37,1.79.68,3.36,1,4.68l4.59-1c-.29-1.31-.63-2.87-1-4.68Z" fill="#f5f5f5"/><path d="M756.69,268.33c.37,1.83.69,3.41.95,4.74l4.83-1c-.29-1.32-.63-2.89-1-4.7Z" fill="#f5f5f5"/><path d="M776.65,264.2h-.23c.37,1.8.68,3.37.94,4.68l.63-.13,4.41-.92c-.28-1.32-.62-2.89-1-4.67Z" fill="#f5f5f5"/><path d="M780.57,257.93c.36,1.75.69,3.38,1,4.86l4.41-.91c-.31-1.48-.66-3.11-1-4.86Z" fill="#f5f5f5"/><path d="M761.69,267.3c.37,1.81.69,3.39.95,4.71l4.69-1-1-4.69Z" fill="#f5f5f5"/><path d="M765.49,261.07c.36,1.76.69,3.38,1,4.87l4.87-1c-.32-1.48-.66-3.1-1-4.85Z" fill="#f5f5f5"/><path d="M748.64,254.33c.35,1.68.68,3.31,1,4.86l4.65-1c-.33-1.54-.67-3.15-1-4.82Z" fill="#f5f5f5"/><path d="M743.74,255.33c.35,1.7.69,3.33,1,4.9l4.57-1c-.32-1.55-.67-3.17-1-4.85Z" fill="#f5f5f5"/><path d="M753.61,253.31c.34,1.67.68,3.29,1,4.83l4.69-1c-.33-1.53-.67-3.14-1-4.8Z" fill="#f5f5f5"/><path d="M793.72,250.33c.31,1.5.6,2.95.88,4.32l4.53-.93c-.3-1.38-.6-2.83-.92-4.34Z" fill="#f5f5f5"/><path d="M799.42,253.66l1.62-.33-.86-4.37-1.65.35C798.88,250.83,799.14,252.28,799.42,253.66Z" fill="#f5f5f5"/><path d="M789.07,251.31c.31,1.5.6,2.93.88,4.29l4.36-.89-.91-4.32Z" fill="#f5f5f5"/><path d="M773.34,249.23c.35,1.65.67,3.25,1,4.77h.19l4.7-1c-.32-1.53-.66-3.13-1-4.78Z" fill="#f5f5f5"/><path d="M758.62,252.28c.34,1.66.67,3.27,1,4.8l4.55-1c-.33-1.53-.66-3.13-1-4.78Z" fill="#f5f5f5"/><path d="M778.55,248.14c.35,1.65.67,3.25,1,4.78l4.34-.9c-.33-1.53-.66-3.13-1-4.78Z" fill="#f5f5f5"/><path d="M768.59,250.22c.34,1.65.67,3.24,1,4.78l4.44-.93c-.32-1.53-.66-3.12-1-4.77Z" fill="#f5f5f5"/><path d="M763.48,251.28c.34,1.65.67,3.25,1,4.78l4.78-1c-.32-1.53-.66-3.12-1-4.77Z" fill="#f5f5f5"/><path d="M785.22,257c.36,1.76.69,3.38,1,4.87l4.57-1c-.32-1.49-.67-3.12-1-4.87Z" fill="#f5f5f5"/><path d="M800.48,258.89l1.6-.33-1-4.95-1.62.34C799.88,255.73,800.18,257.38,800.48,258.89Z" fill="#f5f5f5"/><path d="M749.7,259.48c.31,1.52.61,3,.89,4.35l4.68-1c-.29-1.37-.6-2.81-.91-4.32Z" fill="#f5f5f5"/><path d="M744.8,260.48c.31,1.53.62,3,.9,4.39l4.61-1-.92-4.35Z" fill="#f5f5f5"/><path d="M790,256c.36,1.76.7,3.39,1,4.88l4.4-.91c-.32-1.49-.67-3.13-1-4.89Z" fill="#f5f5f5"/><path d="M794.67,255c.36,1.76.69,3.4,1,4.9l4.57-.93-1-4.93Z" fill="#f5f5f5"/><path d="M774.59,254.33h-.19l.88,4.28,4.92-1c-.28-1.35-.59-2.78-.9-4.27Z" fill="#f5f5f5"/><path d="M759.68,257.43c.3,1.5.6,2.93.88,4.3l4.57-1c-.29-1.36-.59-2.79-.91-4.28Z" fill="#f5f5f5"/><path d="M779.61,253.29c.31,1.49.6,2.92.88,4.27l4.37-.9c-.29-1.36-.59-2.79-.91-4.28Z" fill="#f5f5f5"/><path d="M784.27,252.31c.31,1.5.6,2.93.88,4.29l4.51-.94-.91-4.29Z" fill="#f5f5f5"/><path d="M764.54,256.42c.31,1.5.6,2.93.88,4.29l4.82-1c-.29-1.36-.59-2.78-.91-4.27Z" fill="#f5f5f5"/><path d="M769.65,255.36c.3,1.5.6,2.92.87,4.28l4.42-.92h0c-.28-1.35-.58-2.78-.9-4.27Z" fill="#f5f5f5"/><path d="M734.48,211.16c.32,1.48.66,3.09,1,4.79l4.6-1c-.35-1.69-.67-3.28-1-4.75Z" fill="#f5f5f5"/><path d="M758.76,203.37l.39-.12a4.55,4.55,0,0,1,1.21-.14,5.7,5.7,0,0,1,3-.33c-.09-.41-.17-.81-.25-1.2a3.74,3.74,0,0,1-.72-.29l-3.9.81C758.57,202.51,758.67,202.94,758.76,203.37Z" fill="#f5f5f5"/><path d="M761.42,215.91c.31,1.47.64,3,1,4.59l4.41-.92c-.32-1.59-.64-3.12-1-4.6Z" fill="#f5f5f5"/><path d="M766.48,204.18l2.49-.52c-.27-1.3-.51-2.5-.73-3.59l-1.29.27a3.66,3.66,0,0,1-3.59,1.32c.08.37.17.76.25,1.15A6.09,6.09,0,0,1,766.48,204.18Z" fill="#f5f5f5"/><path d="M761.93,201a3.61,3.61,0,0,1-1.26-4.12l-3.18.63.92,4.23Z" fill="#f5f5f5"/><path d="M756.32,217c.31,1.49.63,3,1,4.6l4.75-1c-.32-1.58-.64-3.12-.94-4.6Z" fill="#f5f5f5"/><path d="M741.48,220c.32,1.5.64,3.06,1,4.67l4.62-1-1-4.64Z" fill="#f5f5f5"/><path d="M754.81,204.36a2.71,2.71,0,0,1,1.92.2h.16a4.68,4.68,0,0,1,1.65-1.13c-.09-.45-.18-.89-.27-1.31l-1.72.35a3.58,3.58,0,0,1-2,1.2,3.35,3.35,0,0,1-1,0c.08.37.16.75.24,1.15A2.84,2.84,0,0,1,754.81,204.36Z" fill="#f5f5f5"/><path d="M746.45,219c.31,1.49.64,3,1,4.64l4.65-1c-.33-1.59-.65-3.14-1-4.62Z" fill="#f5f5f5"/><path d="M751.45,218c.32,1.49.64,3,1,4.61l4.52-.94c-.33-1.59-.65-3.12-1-4.61Z" fill="#f5f5f5"/><path d="M769.22,203.59l4.4-.92c-.24-1.17-.46-2.28-.67-3.29l-.41-.23-4.09.86C768.69,201.12,768.94,202.31,769.22,203.59Z" fill="#f5f5f5"/><path d="M776.05,212.86c.31,1.48.63,3,1,4.59l4.45-.92c-.33-1.59-.64-3.13-1-4.61Z" fill="#f5f5f5"/><path d="M778.43,201.7c-.27-1.31-.51-2.51-.73-3.61l-.34.07a3.67,3.67,0,0,1-2.26,1.47,3.62,3.62,0,0,1-1.9-.15l.68,3.16Z" fill="#f5f5f5"/><path d="M767.34,195.59l-.52.1a3.57,3.57,0,0,1,.43,4.23l.92-.19C767.88,198.05,767.56,196.66,767.34,195.59Z" fill="#f5f5f5"/><path d="M736.58,221c.32,1.5.66,3.07,1,4.71l4.55-1c-.34-1.61-.66-3.17-1-4.67Z" fill="#f5f5f5"/><path d="M766.37,214.88h-.19c.31,1.47.64,3,1,4.58h0l4.83-1c-.32-1.58-.64-3.12-1-4.59Z" fill="#f5f5f5"/><path d="M772.12,198.88a3.62,3.62,0,0,1-1.16-4l-3.48.69c.24,1.09.54,2.48.89,4.13Z" fill="#f5f5f5"/><path d="M771.39,213.83c.31,1.48.64,3,1,4.59l4.31-.89c-.33-1.59-.65-3.12-1-4.61Z" fill="#f5f5f5"/><path d="M772.44,218.79c.31,1.47.62,3,.95,4.53l4.29-.89c-.32-1.55-.63-3.07-.94-4.54Z" fill="#f5f5f5"/><path d="M739.07,209.93c-.27-1.33-.52-2.55-.74-3.67l-2.53.52a3.72,3.72,0,0,1-1.87,1h-.17c.21,1,.44,2,.67,3.13Z" fill="#f5f5f5"/><path d="M767.26,219.87h0c.31,1.48.62,3,1,4.54h.17l4.68-1c-.32-1.55-.64-3.07-.94-4.54Z" fill="#f5f5f5"/><path d="M737.37,201.49l-1.43.29a3.48,3.48,0,0,1,.86,1.71,3.65,3.65,0,0,1-.72,2.95l2.19-.47C737.88,204.17,737.6,202.66,737.37,201.49Z" fill="#f5f5f5"/><path d="M762.47,220.86c.31,1.47.63,3,1,4.54l4.4-.92c-.32-1.55-.64-3.06-.94-4.53Z" fill="#f5f5f5"/><path d="M757.36,221.92c.31,1.48.63,3,1,4.55l4.74-1c-.32-1.54-.64-3.06-.94-4.53Z" fill="#f5f5f5"/><path d="M693.21,229.24l-5.91,1.19,1,4.91,6-1.3C694,232.7,693.61,231.09,693.21,229.24Z" fill="#f5f5f5"/><path d="M741.62,205.26a3.65,3.65,0,0,1-1.68-2.39,3.79,3.79,0,0,1,.14-1.92l-2.57.51c.26,1.17.58,2.67,1,4.47Z" fill="#f5f5f5"/><path d="M749,207.82c-.26-1.3-.51-2.51-.73-3.61l-2.13.44a3.67,3.67,0,0,1-2,1.09,2.81,2.81,0,0,1-.58,0c.2,1,.42,2,.65,3Z" fill="#f5f5f5"/><path d="M777.09,217.81c.31,1.48.63,3,1,4.55l4.45-.92c-.32-1.56-.64-3.08-.95-4.56Z" fill="#f5f5f5"/><path d="M751.75,203.13a3.62,3.62,0,0,1-1.51-2.3,3.55,3.55,0,0,1,.14-1.91l-2.88.57c.25,1.13.57,2.59.94,4.33Z" fill="#f5f5f5"/><path d="M781.88,216.81c.31,1.47.63,3,1,4.55l4.29-.88c-.33-1.57-.64-3.09-.95-4.58Z" fill="#f5f5f5"/><path d="M749.29,207.77l3.41-.72a2.87,2.87,0,0,1,.84-2c-.09-.47-.19-.92-.27-1.36a4.48,4.48,0,0,1-1-.32l-3.71.77C748.75,205.27,749,206.47,749.29,207.77Z" fill="#f5f5f5"/><path d="M786.54,215.83l1,4.58,4.45-.92c-.32-1.57-.64-3.11-1-4.61Z" fill="#f5f5f5"/><path d="M739.33,209.87l4.7-1c-.22-1.1-.43-2.12-.62-3.08a4,4,0,0,1-1.36-.3l-3.51.72C738.78,207.33,739,208.59,739.33,209.87Z" fill="#f5f5f5"/><path d="M792.31,219.42l1.94-.4-.91-4.63-2,.42C791.66,216.31,792,217.84,792.31,219.42Z" fill="#f5f5f5"/><path d="M747.36,199.51l-1.13.23a3.61,3.61,0,0,1,.28,4.49l1.72-.36Z" fill="#f5f5f5"/><path d="M719.31,229.13c.07.35.14.68.2,1l4.62-.92-.22-1Z" fill="#f5f5f5"/><path d="M792.11,266.23c.08.43.16.83.23,1.2l4.51-.9c-.08-.38-.17-.79-.27-1.24Z" fill="#f5f5f5"/><path d="M752.77,207.78c0-.12,0-.24,0-.36l-3.36.69c.31,1.46.65,3,1,4.7l4.56-1-.43-2.14A2.85,2.85,0,0,1,752.77,207.78Z" fill="#f5f5f5"/><path d="M787.3,267.24c.08.41.16.79.23,1.14l4.67-.92-.26-1.19Z" fill="#f5f5f5"/><path d="M796.75,265.25c.09.45.18.87.25,1.26l4.68-.93c-.09-.4-.19-.84-.29-1.3Z" fill="#f5f5f5"/><path d="M782.65,268.21l.22,1.09,4.52-.89c-.08-.35-.16-.73-.25-1.13Z" fill="#f5f5f5"/><path d="M724.69,228l-.62.13c.07.37.14.71.2,1l5.08-1c-.07-.33-.15-.7-.24-1.08Z" fill="#f5f5f5"/><path d="M745.43,214.18l1,4.5,4.67-1c-.32-1.57-.62-3.06-.92-4.49Z" fill="#f5f5f5"/><path d="M768.41,209l1.59-.33L769,204l-2.22.46a4.23,4.23,0,0,1,.44.51A6,6,0,0,1,768.41,209Z" fill="#f5f5f5"/><path d="M750.43,213.15c.31,1.42.62,2.92,1,4.48l4.53-1c-.32-1.55-.62-3-.91-4.46Z" fill="#f5f5f5"/><path d="M739.39,210.16c.31,1.47.65,3.06,1,4.75l4.66-1c-.34-1.68-.66-3.26-1-4.72Z" fill="#f5f5f5"/><path d="M788.88,204.8c-.34-1.7-.67-3.28-1-4.75l-4.55,1c.31,1.46.64,3,1,4.71Z" fill="#f5f5f5"/><path d="M744.36,209.14c.31,1.46.64,3,1,4.72l4.7-1c-.34-1.68-.66-3.25-1-4.7Z" fill="#f5f5f5"/><path d="M783.08,200.74c-.27-1.31-.52-2.53-.74-3.63l-4.43.94c.23,1.09.49,2.29.77,3.6Z" fill="#f5f5f5"/><path d="M801.56,264.24c.1.47.18.91.26,1.31l1.58-.31-.26-1.34Z" fill="#f5f5f5"/><path d="M752.5,222.93c.31,1.48.63,3,1,4.56l4.5-1c-.32-1.55-.63-3.07-.94-4.55Z" fill="#f5f5f5"/><path d="M774.65,207.74l-1-4.69-4.39.92c.31,1.45.64,3,1,4.67Z" fill="#f5f5f5"/><path d="M779.46,206.74c-.35-1.67-.67-3.24-1-4.7l-4.54,1c.3,1.45.64,3,1,4.67Z" fill="#f5f5f5"/><path d="M784.11,205.78c-.35-1.68-.67-3.26-1-4.71l-4.39.92c.31,1.45.65,3,1,4.69Z" fill="#f5f5f5"/><path d="M735.56,216.2c.3,1.45.63,3,1,4.57l4.57-1c-.32-1.58-.63-3.1-.93-4.54Z" fill="#f5f5f5"/><path d="M714.2,230.19c.07.33.13.65.19.94l5-1-.22-1Z" fill="#f5f5f5"/><path d="M785.49,210.87c.32,1.49.64,3,1,4.63l4.47-.91c-.33-1.61-.66-3.17-1-4.67Z" fill="#f5f5f5"/><path d="M784.47,206.05l1,4.49,4.41-.95c-.32-1.57-.63-3.09-.93-4.53Z" fill="#f5f5f5"/><path d="M779.88,207l.94,4.47,4.33-.89q-.48-2.37-.93-4.5Z" fill="#f5f5f5"/><path d="M790.24,209.59l2.06-.42-.9-4.56-2.12.45Z" fill="#f5f5f5"/><path d="M780.88,211.85c.31,1.48.63,3,1,4.61l4.3-.89c-.33-1.59-.65-3.14-.95-4.63Z" fill="#f5f5f5"/><path d="M790.34,199.25l-.73-3.68-1.85.4q-.15.21-.33.42c.22,1,.46,2.12.71,3.31Z" fill="#f5f5f5"/><path d="M789.22,204.74l2.12-.44-.94-4.77-2.19.47C788.52,201.46,788.88,203,789.22,204.74Z" fill="#f5f5f5"/><path d="M775,208l.94,4.47,4.48-.93-.92-4.48Z" fill="#f5f5f5"/><path d="M760.23,214a7.17,7.17,0,0,1-2.8-2.29l-2.13.44.94,4.47,4.78-1-.3-1.46Z" fill="#f5f5f5"/><path d="M756.1,209.88h-.18a2.65,2.65,0,0,1-1.12-.06l.42,2,2-.41-.13-.18A4.66,4.66,0,0,1,756.1,209.88Z" fill="#f5f5f5"/><path d="M740.46,215.2c.3,1.44.64,3,1,4.53l4.63-1c-.32-1.57-.63-3.07-.92-4.51Z" fill="#f5f5f5"/><path d="M761.08,214.27l.27,1.27,4.43-.93-.21-1A6.22,6.22,0,0,1,761.08,214.27Z" fill="#f5f5f5"/><path d="M791.28,214.52l2-.41-.93-4.69-2.05.43C790.62,211.35,791,212.91,791.28,214.52Z" fill="#f5f5f5"/><path d="M770.37,209c.3,1.41.62,2.9.94,4.45l4.33-.9c-.32-1.55-.62-3-.91-4.46Z" fill="#f5f5f5"/><path d="M783.33,200.69l4.56-.94c-.23-1.13-.44-2.18-.64-3.15a3.55,3.55,0,0,1-1.85,1,3.64,3.64,0,0,1-2.74-.55h-.11Z" fill="#f5f5f5"/><path d="M768.37,209.43a5.8,5.8,0,0,1-1.15,2.78,5.62,5.62,0,0,1-1.35,1.22c.08.37.16.74.23,1.12h.2l4.69-1c-.32-1.55-.63-3-.92-4.46Z" fill="#f5f5f5"/><path d="M757.35,197.59l-.83.16a3.61,3.61,0,0,1,.37,4.35l1.31-.27C757.88,200.08,757.57,198.66,757.35,197.59Z" fill="#f5f5f5"/><path d="M699.37,233.24c0,.29.11.57.16.83l4.83-.95c-.06-.27-.12-.56-.19-.86Z" fill="#f5f5f5"/><path d="M738.65,230.88c.32,1.51.64,3.06,1,4.63l4.53-1c-.33-1.56-.65-3.09-1-4.6Z" fill="#f5f5f5"/><path d="M709.34,231.19c.06.32.12.62.18.91l4.73-.94c-.07-.29-.14-.61-.21-.94Z" fill="#f5f5f5"/><path d="M793.33,224.3l1.89-.39-.91-4.61-1.94.41Q792.88,222,793.33,224.3Z" fill="#f5f5f5"/><path d="M782.88,221.71l1,4.53,4.28-.88c-.32-1.55-.64-3.07-.94-4.55Z" fill="#f5f5f5"/><path d="M736.25,221.08l-5.37,1.08,1,4.8,5.38-1.16C736.88,224.18,736.56,222.59,736.25,221.08Z" fill="#f5f5f5"/><path d="M733.53,207.81a3.72,3.72,0,0,1-1.65-.22l-3.71.74.75,3.79,5.27-1.14C734,209.85,733.73,208.79,733.53,207.81Z" fill="#f5f5f5"/><path d="M794.29,228.9l.09.38,1.83-.37-.93-4.72-1.88.4C793.69,226,794,227.44,794.29,228.9Z" fill="#f5f5f5"/><path d="M737.62,226c.32,1.51.64,3.06,1,4.65l4.53-1c-.32-1.58-.64-3.12-.95-4.62Z" fill="#f5f5f5"/><path d="M778.12,222.72l1,4.52,4.43-.92-.94-4.54Z" fill="#f5f5f5"/><path d="M787.57,220.73c.31,1.49.63,3,.95,4.56l4.45-.92c-.33-1.55-.64-3.08-1-4.58Z" fill="#f5f5f5"/><path d="M744.48,260.59l-5.77,1.16.89,4.48,5.81-1.25C745.12,263.59,744.81,262.08,744.48,260.59Z" fill="#f5f5f5"/><path d="M743.4,255.4l-5.71,1.19,1,5,5.75-1.24C744.1,258.73,743.75,257.1,743.4,255.4Z" fill="#f5f5f5"/><path d="M748.52,228.86c.32,1.48.65,3,1,4.56l4.63-1c-.32-1.54-.64-3-.94-4.53Z" fill="#f5f5f5"/><path d="M694.51,234.24c.06.28.11.55.16.8l4.76-.94c-.06-.26-.12-.53-.18-.82Z" fill="#f5f5f5"/><path d="M753.53,227.83c.31,1.48.62,3,1,4.54l4.49-1c-.32-1.53-.63-3-.94-4.52Z" fill="#f5f5f5"/><path d="M743.55,229.88c.32,1.5.66,3,1,4.59l4.6-1c-.32-1.55-.64-3.07-1-4.56Z" fill="#f5f5f5"/><path d="M688.3,235.48l.15.79,6-1.2a4.25,4.25,0,0,0-.17-.8Z" fill="#f5f5f5"/><path d="M745.47,265.18l-5.84,1.18,1,5.06,5.9-1.27C746.21,268.64,745.85,267,745.47,265.18Z" fill="#f5f5f5"/><path d="M793,224.67l-4.44.94c.3,1.43.6,2.87.9,4.34l.07.32,4.44-.91a1.8,1.8,0,0,0-.08-.39Z" fill="#f5f5f5"/><path d="M763.5,225.77c.31,1.47.62,3,.94,4.51l4.39-.92c-.32-1.53-.63-3-.93-4.51Z" fill="#f5f5f5"/><path d="M773.47,223.69c.3,1.47.62,3,.94,4.51l4.29-.89c-.32-1.53-.63-3-.94-4.52Z" fill="#f5f5f5"/><path d="M740.09,239.59c-.26-1.28-.53-2.55-.79-3.8l-5.49,1.11,1,4.83,5.53-1.2C740.22,240.26,740.16,239.94,740.09,239.59Z" fill="#f5f5f5"/><path d="M740.34,240.82l-5.54,1.11.92,4.64,5.57-1.2Z" fill="#f5f5f5"/><path d="M758.39,226.83l1,4.52,4.73-1c-.31-1.53-.63-3-.93-4.51Z" fill="#f5f5f5"/><path d="M737.27,226.05l-5.4,1.08.94,4.75,5.43-1.17C737.88,229.12,737.58,227.59,737.27,226.05Z" fill="#f5f5f5"/><path d="M768.43,224.74h-.17c.31,1.47.62,3,.94,4.51l4.84-1c-.32-1.53-.63-3-.94-4.52Z" fill="#f5f5f5"/><path d="M747.49,224c.32,1.49.64,3,1,4.58l4.64-1c-.32-1.55-.63-3.08-.94-4.56Z" fill="#f5f5f5"/><path d="M788.22,225.69l-4.28.9c.29,1.37.58,2.77.88,4.18l.09.46,4.28-.89-.07-.31C788.82,228.59,788.52,227.11,788.22,225.69Z" fill="#f5f5f5"/><path d="M738.29,231l-5.45,1.1.94,4.72,5.47-1.18C738.88,234,738.6,232.47,738.29,231Z" fill="#f5f5f5"/><path d="M742.52,225c.32,1.49.64,3,1,4.61l4.6-1c-.32-1.57-.64-3.1-1-4.59Z" fill="#f5f5f5"/><path d="M735.26,216.26l-5.33,1.07.92,4.66,5.35-1.15C735.88,219.24,735.55,217.72,735.26,216.26Z" fill="#f5f5f5"/><path d="M704.33,232.22c.06.31.12.6.17.87l4.87-1c-.06-.29-.13-.59-.2-.9Z" fill="#f5f5f5"/><path d="M741.34,245.59l-5.59,1.13,1,4.9,5.63-1.21C742,248.87,741.69,247.26,741.34,245.59Z" fill="#f5f5f5"/><path d="M742.41,250.68l-5.66,1.14.91,4.56,5.69-1.23C743,253.71,742.73,252.21,742.41,250.68Z" fill="#f5f5f5"/><path d="M734.22,211.21l-5.29,1.07,1,4.88,5.32-1.15C734.88,214.31,734.53,212.7,734.22,211.21Z" fill="#f5f5f5"/><path d="M739.67,235.76l-.37.07c.26,1.25.53,2.52.79,3.8.07.31.13.63.2.94l.37-.07c-.07-.32-.13-.63-.2-.95C740.2,238.27,739.93,237,739.67,235.76Z" fill="#e0e0e0"/><path d="M745.47,265.18c.38,1.8.74,3.46,1.06,5l.24-.05-1-5Z" fill="#e0e0e0"/><path d="M734.22,211.21c.31,1.49.64,3.1,1,4.8l.29-.06c-.36-1.7-.7-3.31-1-4.79Z" fill="#e0e0e0"/><path d="M738.29,231c.31,1.52.63,3.06,1,4.64l.37-.08c-.33-1.57-.65-3.12-1-4.63Z" fill="#e0e0e0"/><path d="M735.26,216.26c.29,1.46.61,3,.94,4.58l.32-.07c-.33-1.59-.66-3.12-1-4.57Z" fill="#e0e0e0"/><path d="M742.41,250.68l.94,4.47.34-.07-.93-4.47Z" fill="#e0e0e0"/><path d="M743.4,255.4c.35,1.7.7,3.33,1,4.9l.32-.07c-.32-1.57-.66-3.2-1-4.9Z" fill="#e0e0e0"/><path d="M693.21,229.24c.4,1.85.74,3.46,1,4.79h.16c-.26-1.34-.59-2.95-1-4.81Z" fill="#e0e0e0"/><path d="M741.34,245.59c.35,1.64.68,3.25,1,4.82l.36-.08c-.33-1.57-.66-3.17-1-4.82Z" fill="#e0e0e0"/><path d="M694.51,234.24h-.16c.06.28.12.55.17.8h.15A2.15,2.15,0,0,1,694.51,234.24Z" fill="#e0e0e0"/><path d="M737.27,226.05c.31,1.51.64,3.07,1,4.66l.36-.08c-.34-1.59-.66-3.14-1-4.65Z" fill="#e0e0e0"/><path d="M740.34,240.82l1,4.55.37-.08-1-4.55Z" fill="#e0e0e0"/><path d="M744.48,260.59c.33,1.54.64,3,.93,4.39l.29-.06c-.28-1.39-.59-2.86-.9-4.39Z" fill="#e0e0e0"/><path d="M736.25,221.08c.31,1.52.64,3.1,1,4.72l.35-.07c-.34-1.63-.67-3.2-1-4.71Z" fill="#e0e0e0"/><path d="M734.43,210.92c-.23-1.12-.46-2.16-.67-3.13h-.23c.2,1,.42,2,.64,3.16Z" fill="#e0e0e0"/><path d="M741.15,220.09c.31,1.5.63,3.06,1,4.67l.34-.07c-.34-1.61-.66-3.17-1-4.67Z" fill="#e0e0e0"/><path d="M739.13,210.22c.3,1.47.62,3.06,1,4.75l.3-.06c-.36-1.69-.7-3.28-1-4.75Z" fill="#e0e0e0"/><path d="M746.25,244.59c.34,1.63.67,3.22,1,4.77l.35-.07c-.32-1.56-.65-3.15-1-4.77Z" fill="#e0e0e0"/><path d="M748.3,254.4c.35,1.68.7,3.3,1,4.85l.32-.06c-.32-1.55-.65-3.18-1-4.86Z" fill="#e0e0e0"/><path d="M738.27,206h.21c-.39-1.8-.71-3.3-1-4.47h-.14C737.6,202.66,737.88,204.17,738.27,206Z" fill="#e0e0e0"/><path d="M742.18,225.05c.31,1.5.63,3,1,4.62l.36-.08c-.33-1.57-.65-3.12-1-4.61Z" fill="#e0e0e0"/><path d="M747.31,249.68l.93,4.43.34-.07c-.3-1.44-.6-2.92-.92-4.43Z" fill="#e0e0e0"/><path d="M744.57,234.76l-.36.08c.26,1.25.52,2.53.79,3.82l.18.87.37-.08-.18-.87C745.1,237.29,744.88,236,744.57,234.76Z" fill="#e0e0e0"/><path d="M738.33,206.26c.22,1.12.47,2.34.74,3.67l.26-.06c-.29-1.32-.55-2.54-.79-3.65Z" fill="#e0e0e0"/><path d="M743.19,230c.31,1.51.63,3,1,4.6l.36-.08c-.32-1.56-.65-3.09-1-4.59Z" fill="#e0e0e0"/><path d="M750.37,264.18l1,4.93.24-.05c-.3-1.5-.64-3.15-1-4.94Z" fill="#e0e0e0"/><path d="M745.24,239.82c.32,1.53.64,3,1,4.51l.36-.08c-.3-1.48-.62-3-.94-4.51Z" fill="#e0e0e0"/><path d="M698.11,228.24c.4,1.83.74,3.43,1,4.75h.17l-1-4.77Z" fill="#e0e0e0"/><path d="M699.37,233.24h-.17c.06.29.12.56.18.82h.15C699.51,233.81,699.42,233.53,699.37,233.24Z" fill="#e0e0e0"/><path d="M749.39,259.59l.92,4.35.28-.06c-.28-1.38-.58-2.83-.89-4.35Z" fill="#e0e0e0"/><path d="M740.16,215.26c.3,1.44.61,3,.93,4.54l.33-.07c-.34-1.58-.67-3.09-1-4.53Z" fill="#e0e0e0"/><path d="M761.46,267.35c.38,1.81.72,3.38,1,4.7h.17c-.26-1.32-.58-2.9-1-4.71Z" fill="#e0e0e0"/><path d="M750.13,213.21c.3,1.43.6,2.92.92,4.49l.33-.07c-.33-1.56-.64-3.06-1-4.48Z" fill="#e0e0e0"/><path d="M753.17,227.91c.3,1.48.62,3,.94,4.53l.37-.07c-.33-1.54-.64-3.06-1-4.54Z" fill="#e0e0e0"/><path d="M755.22,237.77c.31,1.51.62,3,.93,4.46l.37-.08c-.31-1.46-.62-3-.93-4.46Z" fill="#e0e0e0"/><path d="M751.13,218c.3,1.48.62,3,1,4.62l.34-.08c-.33-1.59-.65-3.12-1-4.61Z" fill="#e0e0e0"/><path d="M759.36,257.49c.32,1.5.62,2.94.91,4.3l.29-.06c-.28-1.37-.58-2.8-.88-4.3Z" fill="#e0e0e0"/><path d="M749.1,208.17c.3,1.45.62,3,1,4.7l.3-.06c-.35-1.68-.69-3.24-1-4.7Z" fill="#e0e0e0"/><path d="M760.34,262.13c.38,1.76.72,3.39,1,4.88h.24l-1-4.89Z" fill="#e0e0e0"/><path d="M754.55,232.71l-.37.08c.27,1.28.54,2.57.81,3.89,0,.25.1.5.16.75l.37-.08c-.06-.25-.11-.5-.16-.75C755.09,235.29,754.82,234,754.55,232.71Z" fill="#e0e0e0"/><path d="M709.34,231.19h-.17c.07.31.14.61.2.9h.15A6.81,6.81,0,0,0,709.34,231.19Z" fill="#e0e0e0"/><path d="M758.27,252.35c.35,1.66.69,3.27,1,4.8l.31-.07c-.31-1.53-.64-3.14-1-4.8Z" fill="#e0e0e0"/><path d="M757.28,247.59c.32,1.5.62,3,.92,4.38l.34-.07-.9-4.38Z" fill="#e0e0e0"/><path d="M748.23,203.87l.21-.05c-.37-1.74-.69-3.2-.94-4.33h-.14Z" fill="#e0e0e0"/><path d="M752.15,223c.31,1.48.62,3,.94,4.56l.36-.07c-.32-1.56-.64-3.08-1-4.56Z" fill="#e0e0e0"/><path d="M748.3,204.21c.22,1.1.47,2.31.73,3.61h.26c-.28-1.3-.54-2.5-.77-3.6Z" fill="#e0e0e0"/><path d="M756.22,242.59c.34,1.61.67,3.18,1,4.72l.36-.07c-.32-1.54-.65-3.12-1-4.72Z" fill="#e0e0e0"/><path d="M771.43,265.28c.38,1.79.72,3.36,1,4.68h.18c-.27-1.32-.58-2.89-1-4.68Z" fill="#e0e0e0"/><path d="M758.2,201.78h.21l-.92-4.23h-.14C757.57,198.66,757.88,200.08,758.2,201.78Z" fill="#e0e0e0"/><path d="M766.19,240.51c.34,1.59.66,3.16,1,4.69l.35-.07c-.31-1.53-.64-3.1-1-4.7Z" fill="#e0e0e0"/><path d="M769.33,255.43c.32,1.49.62,2.91.91,4.27l.28-.06c-.27-1.36-.57-2.78-.87-4.28Z" fill="#e0e0e0"/><path d="M765.19,235.71c.31,1.5.62,3,.93,4.43l.36-.08-.92-4.43Z" fill="#e0e0e0"/><path d="M763.14,225.84c.3,1.48.62,3,.93,4.51l.37-.07c-.32-1.53-.63-3-.94-4.51Z" fill="#e0e0e0"/><path d="M761.1,216c.3,1.48.62,3,.94,4.6l.35-.07c-.33-1.58-.66-3.12-1-4.59Z" fill="#e0e0e0"/><path d="M768.25,250.29c.34,1.65.68,3.24,1,4.77l.32-.06c-.31-1.54-.64-3.13-1-4.78Z" fill="#e0e0e0"/><path d="M770.31,260.07c.38,1.75.72,3.37,1,4.85l.24-.05c-.3-1.5-.63-3.12-1-4.86Z" fill="#e0e0e0"/><path d="M760.72,214.15l.3,1.46.33-.07-.27-1.27Z" fill="#e0e0e0"/><path d="M758.49,202.1l-.22.05c.09.42.18.86.27,1.31l.22-.09C758.67,202.94,758.57,202.51,758.49,202.1Z" fill="#e0e0e0"/><path d="M767.25,245.59c.32,1.49.62,2.94.92,4.35l.34-.07c-.29-1.41-.59-2.87-.9-4.36Z" fill="#e0e0e0"/><path d="M764.52,230.65l-.37.07c.27,1.31.55,2.64.83,4a3.46,3.46,0,0,0,.13.64l.37-.08a3.83,3.83,0,0,0-.13-.64Z" fill="#e0e0e0"/><path d="M719.31,229.13h-.17l.22,1h.15C719.45,229.81,719.38,229.48,719.31,229.13Z" fill="#e0e0e0"/><path d="M762.12,220.94c.3,1.47.62,3,.94,4.53l.36-.07c-.32-1.55-.64-3.07-1-4.54Z" fill="#e0e0e0"/><path d="M770.07,209.07c.29,1.42.6,2.91.92,4.46l.32-.07c-.32-1.55-.64-3-.94-4.45Z" fill="#e0e0e0"/><path d="M779.3,253.35c.31,1.49.62,2.92.9,4.27l.29-.06c-.28-1.35-.57-2.78-.88-4.27Z" fill="#e0e0e0"/><path d="M771.06,213.9c.31,1.47.63,3,1,4.59l.35-.07c-.33-1.58-.66-3.11-1-4.59Z" fill="#e0e0e0"/><path d="M729.28,227.05h-.17c.09.38.17.75.24,1.08h.15Z" fill="#e0e0e0"/><path d="M768.17,199.7h.2c-.35-1.65-.65-3-.89-4.13h-.14C767.56,196.66,767.88,198.05,768.17,199.7Z" fill="#e0e0e0"/><path d="M772.09,218.86c.3,1.47.62,3,.94,4.54l.36-.08c-.33-1.55-.64-3.06-.95-4.53Z" fill="#e0e0e0"/><path d="M777.22,243.49c.31,1.49.62,2.94.92,4.35l.34-.07-.9-4.35Z" fill="#e0e0e0"/><path d="M773.1,223.76c.31,1.48.62,3,.94,4.52l.37-.08c-.32-1.53-.64-3-.94-4.51Z" fill="#e0e0e0"/><path d="M768.45,200h-.21c.22,1.09.46,2.29.73,3.59h.25C768.94,202.31,768.69,201.12,768.45,200Z" fill="#e0e0e0"/><path d="M778.21,248.21c.35,1.65.69,3.25,1,4.78l.32-.07c-.32-1.53-.64-3.13-1-4.78Z" fill="#e0e0e0"/><path d="M770.29,208.64c-.35-1.66-.68-3.22-1-4.67L769,204l1,4.67Z" fill="#e0e0e0"/><path d="M776.16,238.43c.33,1.6.66,3.16,1,4.7l.36-.08c-.32-1.53-.64-3.1-1-4.7Z" fill="#e0e0e0"/><path d="M781.39,263.21c.39,1.78.73,3.35,1,4.67h.18c-.27-1.33-.58-2.9-1-4.69Z" fill="#e0e0e0"/><path d="M780.28,258c.37,1.75.72,3.37,1,4.85l.24,0c-.3-1.48-.63-3.11-1-4.86Z" fill="#e0e0e0"/><path d="M774.49,228.59l-.37.08c.28,1.34.56,2.7.85,4.07l.11.54.37-.07a2.59,2.59,0,0,0-.11-.54C775.05,231.27,774.77,229.91,774.49,228.59Z" fill="#e0e0e0"/><path d="M775.16,233.59l.92,4.43.37-.07c-.3-1.46-.61-2.94-.92-4.44Z" fill="#e0e0e0"/><path d="M790.88,261.23l1,4.69h.18l-1-4.71Z" fill="#e0e0e0"/><path d="M788.75,251.37l.91,4.29.29-.06c-.28-1.36-.57-2.79-.88-4.29Z" fill="#e0e0e0"/><path d="M782.56,221.78l.94,4.54.37-.08c-.32-1.54-.64-3.05-1-4.53Z" fill="#e0e0e0"/><path d="M783.94,226.59l-.37.07c.29,1.38.58,2.78.88,4.19l.09.45.37-.07-.09-.46C784.52,229.36,784.23,228,783.94,226.59Z" fill="#e0e0e0"/><path d="M780.52,211.92c.31,1.48.62,3,1,4.61l.35-.07c-.34-1.59-.66-3.13-1-4.61Z" fill="#e0e0e0"/><path d="M792.11,266.23h-.17l.26,1.19h.14C792.27,267.06,792.19,266.66,792.11,266.23Z" fill="#e0e0e0"/><path d="M779.53,207.09l.92,4.48.32-.07-.94-4.47Z" fill="#e0e0e0"/><path d="M784.61,231.65c.32,1.51.63,3,.93,4.45l.37-.07c-.3-1.46-.61-2.95-.93-4.46Z" fill="#e0e0e0"/><path d="M785.62,236.45c.33,1.6.66,3.18,1,4.72l.36-.08c-.32-1.54-.64-3.11-1-4.72Z" fill="#e0e0e0"/><path d="M777.88,198.05h-.21c.22,1.1.46,2.3.73,3.61l.25,0C778.4,200.34,778.14,199.14,777.88,198.05Z" fill="#e0e0e0"/><path d="M789.74,256c.37,1.75.72,3.38,1,4.87H791c-.3-1.49-.64-3.12-1-4.88Z" fill="#e0e0e0"/><path d="M779.75,206.68c-.35-1.67-.69-3.24-1-4.69h-.25c.29,1.46.61,3,1,4.7Z" fill="#e0e0e0"/><path d="M787.67,246.23c.35,1.66.69,3.26,1,4.8L789,251c-.32-1.54-.65-3.14-1-4.8Z" fill="#e0e0e0"/><path d="M786.68,241.51c.31,1.5.62,3,.92,4.38l.34-.08c-.29-1.42-.6-2.88-.91-4.37Z" fill="#e0e0e0"/><path d="M781.54,216.88c.31,1.48.63,3,1,4.56l.36-.08c-.33-1.55-.65-3.08-1-4.55Z" fill="#e0e0e0"/><path d="M795.07,234.45c.34,1.63.67,3.22,1,4.77l.36-.07c-.32-1.56-.66-3.15-1-4.77Z" fill="#e0e0e0"/><path d="M794.07,229.65l.94,4.51.36-.08c-.3-1.48-.62-3-.93-4.5Z" fill="#e0e0e0"/><path d="M791,214.88c.31,1.5.63,3,1,4.61l.36-.07c-.33-1.58-.65-3.11-1-4.61Z" fill="#e0e0e0"/><path d="M800.3,259.23l1,4.75h.18c-.27-1.35-.59-3-1-4.76Z" fill="#e0e0e0"/><path d="M788.14,199.7c-.25-1.19-.49-2.3-.71-3.31a1.68,1.68,0,0,1-.18.21c.2,1,.41,2,.64,3.15Z" fill="#e0e0e0"/><path d="M801.56,264.24h-.17c.1.46.2.9.29,1.3h.14C801.74,265.15,801.66,264.71,801.56,264.24Z" fill="#e0e0e0"/><path d="M796.13,239.52c.32,1.51.63,3,.93,4.42l.34-.07c-.29-1.44-.6-2.91-.91-4.43Z" fill="#e0e0e0"/><path d="M799.19,254l1,4.93h.24c-.3-1.51-.64-3.16-1-4.94Z" fill="#e0e0e0"/><path d="M792,219.79c.32,1.5.63,3,1,4.58l.36-.07c-.32-1.56-.65-3.09-1-4.59Z" fill="#e0e0e0"/><path d="M798.21,249.38c.32,1.51.62,3,.92,4.34l.29-.06c-.28-1.38-.58-2.83-.89-4.35Z" fill="#e0e0e0"/><path d="M797.12,244.24c.36,1.67.7,3.29,1,4.84l.32-.07c-.32-1.55-.65-3.17-1-4.85Z" fill="#e0e0e0"/><path d="M789.22,204.74c-.36-1.7-.7-3.28-1-4.74l-.26.05c.3,1.47.63,3,1,4.75Z" fill="#e0e0e0"/><path d="M789,205.09c.3,1.44.61,3,.93,4.53l.33-.06c-.34-1.58-.67-3.09-1-4.53Z" fill="#e0e0e0"/><path d="M790,209.92c.3,1.5.63,3.06,1,4.67l.34-.07c-.33-1.61-.66-3.17-1-4.67Z" fill="#e0e0e0"/><path d="M793.4,224.59l-.37.08.89,4.3a2.7,2.7,0,0,0,.08.39l.38-.08-.09-.38C794,227.44,793.69,226,793.4,224.59Z" fill="#e0e0e0"/><path d="M744.1,209.2c.3,1.46.62,3,1,4.72l.3-.06c-.36-1.68-.69-3.26-1-4.72Z" fill="#e0e0e0"/><path d="M703.08,227.22c.39,1.82.73,3.4,1,4.72h.17c-.26-1.33-.58-2.91-1-4.74Z" fill="#e0e0e0"/><path d="M754.36,258.52c.31,1.51.62,3,.91,4.32l.29-.06c-.28-1.37-.58-2.81-.89-4.32Z" fill="#e0e0e0"/><path d="M751.22,243.59c.33,1.62.67,3.2,1,4.74l.36-.07c-.32-1.56-.65-3.14-1-4.74Z" fill="#e0e0e0"/><path d="M746.12,219.07l1,4.64.35-.07c-.34-1.6-.67-3.15-1-4.64Z" fill="#e0e0e0"/><path d="M753.27,253.38c.35,1.67.69,3.28,1,4.82l.31-.06c-.31-1.54-.65-3.16-1-4.83Z" fill="#e0e0e0"/><path d="M745.13,214.24c.29,1.44.6,2.94.92,4.51l.33-.07-1-4.5Z" fill="#e0e0e0"/><path d="M704.33,232.22h-.16c.07.3.13.59.19.86h.14Z" fill="#e0e0e0"/><path d="M749.54,233.74l-.37.08c.26,1.23.52,2.48.79,3.75l.19.91.37-.08c-.07-.3-.13-.6-.19-.91C750.06,236.23,749.8,235,749.54,233.74Z" fill="#e0e0e0"/><path d="M752.28,248.66c.31,1.51.62,3,.92,4.4l.34-.07c-.29-1.42-.6-2.9-.91-4.4Z" fill="#e0e0e0"/><path d="M748.16,228.94c.31,1.49.63,3,1,4.56l.37-.08c-.33-1.56-.66-3.08-1-4.56Z" fill="#e0e0e0"/><path d="M750.21,238.8l.94,4.48.37-.08-.94-4.48Z" fill="#e0e0e0"/><path d="M747.14,224c.31,1.49.63,3,1,4.59l.36-.08c-.32-1.56-.64-3.09-1-4.58Z" fill="#e0e0e0"/><path d="M744.29,208.82l-.65-3h-.23c.19,1,.4,2,.62,3.08Z" fill="#e0e0e0"/><path d="M755.34,263.16c.38,1.77.72,3.41,1,4.9l.24-.05c-.3-1.49-.63-3.13-1-4.91Z" fill="#e0e0e0"/><path d="M757,222c.31,1.48.62,3,.94,4.55l.37-.07c-.33-1.55-.65-3.07-1-4.55Z" fill="#e0e0e0"/><path d="M763.14,251.35c.35,1.65.68,3.25,1,4.78l.32-.07c-.32-1.53-.65-3.13-1-4.78Z" fill="#e0e0e0"/><path d="M765.21,261.13c.37,1.75.72,3.38,1,4.86l.24-.05c-.3-1.49-.63-3.11-1-4.87Z" fill="#e0e0e0"/><path d="M714.2,230.19H714c.07.33.14.65.21.94h.14C714.33,230.84,714.27,230.52,714.2,230.19Z" fill="#e0e0e0"/><path d="M755,212.21c.29,1.42.59,2.91.91,4.46l.33-.06-.94-4.47Z" fill="#e0e0e0"/><path d="M761.09,241.59c.33,1.6.66,3.17,1,4.7l.36-.07c-.32-1.54-.65-3.11-1-4.71Z" fill="#e0e0e0"/><path d="M760.08,236.76c.32,1.51.63,3,.93,4.45l.37-.08c-.31-1.46-.61-2.94-.93-4.44Z" fill="#e0e0e0"/><path d="M756,217c.3,1.49.62,3,1,4.61l.35-.08c-.34-1.58-.66-3.11-1-4.6Z" fill="#e0e0e0"/><path d="M766.32,266.34l1,4.69h.17c-.26-1.31-.58-2.88-.94-4.7Z" fill="#e0e0e0"/><path d="M759.41,231.7l-.37.08c.26,1.23.52,2.47.78,3.73.06.3.13.6.19.9l.37-.08c-.06-.3-.13-.59-.19-.89C759.93,234.18,759.67,232.93,759.41,231.7Z" fill="#e0e0e0"/><path d="M762.15,246.59c.31,1.49.62,3,.91,4.36l.34-.07c-.29-1.42-.59-2.88-.9-4.37Z" fill="#e0e0e0"/><path d="M753.75,204.89c-.08-.4-.16-.78-.24-1.15h-.24c.08.44.18.89.27,1.36Z" fill="#e0e0e0"/><path d="M758,226.9c.31,1.48.62,3,.94,4.52l.37-.07c-.32-1.54-.64-3-1-4.52Z" fill="#e0e0e0"/><path d="M764.22,256.49c.32,1.49.62,2.92.91,4.28l.29-.06c-.28-1.36-.57-2.79-.88-4.29Z" fill="#e0e0e0"/><path d="M754.49,209.71l.43,2.14.3-.07-.42-2Z" fill="#e0e0e0"/><path d="M724.07,228.14h-.16l.22,1h.14C724.21,228.85,724.14,228.51,724.07,228.14Z" fill="#e0e0e0"/><path d="M772,244.59c.31,1.49.62,2.94.92,4.35h.34c-.29-1.41-.59-2.87-.9-4.36Z" fill="#e0e0e0"/><path d="M766.88,220c.3,1.47.62,3,.94,4.53l.36-.07c-.33-1.55-.64-3.06-.95-4.54Z" fill="#e0e0e0"/><path d="M770,234.72c.31,1.5.62,3,.92,4.43h.37l-.92-4.43Z" fill="#e0e0e0"/><path d="M765.57,213.59l.21,1,.32-.06c-.07-.38-.15-.75-.23-1.12Z" fill="#e0e0e0"/><path d="M767.88,224.85c.3,1.48.61,3,.93,4.51l.29-.06h.08c-.32-1.54-.63-3-.94-4.51Z" fill="#e0e0e0"/><path d="M763.61,202.81c-.08-.39-.17-.78-.25-1.15l-.25-.08c.08.39.16.79.25,1.2Z" fill="#e0e0e0"/><path d="M765.88,215c.31,1.48.63,3,1,4.6l.35-.08c-.33-1.58-.66-3.11-1-4.58Z" fill="#e0e0e0"/><path d="M771.14,239.48H771c.34,1.6.66,3.16,1,4.69l.36-.08c-.32-1.53-.64-3.09-1-4.69Z" fill="#e0e0e0"/><path d="M773.08,249.28H773c.35,1.65.69,3.24,1,4.77l.32-.07c-.32-1.52-.64-3.12-1-4.77Z" fill="#e0e0e0"/><path d="M769.28,229.66h-.08l-.29.06c.25,1.23.51,2.47.77,3.73.07.29.13.59.19.89l.37-.08-.18-.89C769.8,232.11,769.54,230.88,769.28,229.66Z" fill="#e0e0e0"/><path d="M776.19,264.29c.38,1.81.72,3.37,1,4.68h.16c-.26-1.31-.57-2.88-.94-4.68Z" fill="#e0e0e0"/><path d="M775.07,259.08c.38,1.75.72,3.37,1,4.85l.24-.05c-.3-1.48-.63-3.11-1-4.86Z" fill="#e0e0e0"/><path d="M774.09,254.44c.32,1.49.62,2.92.9,4.27l.29-.06-.88-4.28Z" fill="#e0e0e0"/><path d="M779.14,227.59l-.37.08c.26,1.23.52,2.47.78,3.73.06.3.12.6.19.9l.37-.08c-.07-.3-.13-.6-.19-.9C779.66,230.06,779.4,228.82,779.14,227.59Z" fill="#e0e0e0"/><path d="M774.73,208.1c.29,1.42.59,2.91.91,4.46l.33-.06L775,208Z" fill="#e0e0e0"/><path d="M775.72,212.92c.3,1.49.62,3,1,4.61l.35-.08c-.34-1.58-.66-3.11-1-4.59Z" fill="#e0e0e0"/><path d="M780.81,237.46c.34,1.6.67,3.17,1,4.7l.36-.07c-.32-1.54-.65-3.11-1-4.71Z" fill="#e0e0e0"/><path d="M779.81,232.66c.32,1.5.62,3,.93,4.44l.37-.08q-.47-2.19-.93-4.44Z" fill="#e0e0e0"/><path d="M782.88,247.24c.35,1.65.68,3.25,1,4.78l.31-.07c-.31-1.53-.64-3.13-1-4.78Z" fill="#e0e0e0"/><path d="M776.74,217.89c.31,1.47.62,3,.94,4.54l.36-.07c-.32-1.55-.64-3.07-1-4.55Z" fill="#e0e0e0"/><path d="M787.3,267.24h-.16c.09.4.17.78.25,1.13h.14C787.46,268,787.38,267.65,787.3,267.24Z" fill="#e0e0e0"/><path d="M786.05,262.23l1,4.69h.17c-.26-1.31-.58-2.88-.94-4.69Z" fill="#e0e0e0"/><path d="M784,252.38c.32,1.49.62,2.92.91,4.28l.29-.06c-.28-1.36-.57-2.79-.88-4.29Z" fill="#e0e0e0"/><path d="M777.76,222.79c.31,1.48.62,3,.94,4.52l.37-.07c-.32-1.54-.64-3.05-1-4.52Z" fill="#e0e0e0"/><path d="M781.88,242.52c.31,1.49.62,2.95.91,4.36l.34-.07c-.29-1.42-.59-2.87-.9-4.37Z" fill="#e0e0e0"/><path d="M775,207.67c-.35-1.66-.69-3.22-1-4.67l-.27.05,1,4.69Z" fill="#e0e0e0"/><path d="M773.88,202.64l-.68-3.16-.25-.08c.21,1,.43,2.12.67,3.29Z" fill="#e0e0e0"/><path d="M784.94,257c.37,1.75.72,3.38,1,4.86h.24c-.3-1.49-.63-3.11-1-4.87Z" fill="#e0e0e0"/><path d="M795.49,260.25c.39,1.79.73,3.38,1,4.71h.18l-.95-4.73Z" fill="#e0e0e0"/><path d="M789.26,230.67c.31,1.52.63,3,.93,4.48l.37-.08c-.31-1.47-.62-3-.93-4.48Z" fill="#e0e0e0"/><path d="M794.38,255c.37,1.76.72,3.4,1,4.89l.25-.05c-.31-1.5-.64-3.14-1-4.9Z" fill="#e0e0e0"/><path d="M785.17,210.94c.3,1.49.62,3,1,4.63l.35-.07c-.34-1.59-.66-3.14-1-4.63Z" fill="#e0e0e0"/><path d="M784.17,206.11q.45,2.13.93,4.5l.32-.07-1-4.49Z" fill="#e0e0e0"/><path d="M788.59,225.59l-.37.08c.3,1.42.6,2.87.9,4.34l.07.31.37-.07-.07-.32C789.19,228.48,788.88,227,788.59,225.59Z" fill="#e0e0e0"/><path d="M792.31,245.25c.35,1.67.69,3.27,1,4.82l.32-.07c-.32-1.54-.65-3.15-1-4.82Z" fill="#e0e0e0"/><path d="M786.19,215.9c.31,1.49.62,3,.95,4.58l.36-.07-1-4.58Z" fill="#e0e0e0"/><path d="M787.21,220.81c.3,1.48.62,3,.94,4.55l.37-.07c-.32-1.55-.64-3.07-.95-4.56Z" fill="#e0e0e0"/><path d="M791.32,240.53c.32,1.51.62,3,.93,4.4l.34-.07c-.3-1.43-.6-2.9-.91-4.4Z" fill="#e0e0e0"/><path d="M796.58,265.29c.1.45.19.86.27,1.24H797c-.07-.39-.16-.81-.25-1.26Z" fill="#e0e0e0"/><path d="M784.4,205.72c-.36-1.68-.69-3.25-1-4.71l-.26.06c.3,1.45.62,3,1,4.71Z" fill="#e0e0e0"/><path d="M783.33,200.69c-.28-1.31-.54-2.52-.78-3.62h-.21c.22,1.1.47,2.32.74,3.63Z" fill="#e0e0e0"/><path d="M790.26,235.47c.34,1.61.68,3.19,1,4.74l.36-.08c-.32-1.54-.65-3.12-1-4.74Z" fill="#e0e0e0"/><path d="M793.4,250.39l.91,4.32.29-.06c-.28-1.37-.57-2.82-.88-4.32Z" fill="#e0e0e0"/><path d="M746.82,270.35l4.66-1,.24,0,4.73-1h.24l4.77-1h.23l4.63-1,.24-.05,4.87-1h.23l4.53-1h.46l4.74-1,.24-.05,4.42-.93h.24l4.56-1h.24l4.4-.93h.25l4.56-1h.24l1.6-.34-.06-.28-1.6.33h-.24l-4.57.93-.25.05L791,261h-.24l-4.57,1H786l-4.41.91-.24.05-4.75,1h-.22l-.24.05-4.52.94-.24.05-4.87,1-.24.05-4.62,1h-.24l-4.76,1-.24,0-4.72,1-.24.05-4.65,1-.24.05-5.9,1.27v.16l5.91-1.18Z" fill="#e0e0e0"/><path d="M747.67,275.43h.16l4.74-1h.17l4.8-1h.16l4.84-1h.17l4.7-1h.16l4.94-1h.17l4.6-1h.16l.62-.13,4.42-.92h.17l4.49-.93h.16l4.64-1h.17l4.47-.94h.17l4.64-1h.17l1.58-.34-.06-.28-1.58.32h-.18l-4.63,1h-.18l-4.47.93h-.18l-4.63,1h-.17l-4.48.93h-.18L778,269l-.63.13h-.16l-4.59,1h-.18l-4.93,1h-.17l-4.69,1h-.17l-4.83,1h-.17l-4.79,1h-.17l-4.73,1h-.16l-6,1.3v.15Z" fill="#e0e0e0"/><path d="M744.8,260.48l4.59-.94.31-.06,4.66-1,.31-.06,4.69-1,.32-.06,4.54-.94.32-.07,4.79-1,.32-.07,4.44-.92.31-.07h.19l4.71-1,.31-.06,4.34-.91.32-.07,4.48-.94.32-.06,4.33-.92.32-.06,4.49-1,.32-.07,1.65-.35-.06-.29-1.66.34-.32.07-4.49.92-.32.07-4.33.89-.32.07-4.49.92-.31.07-4.34.9-.32.07-4.7,1h-.19L774,254l-4.44.93-.32.06-4.78,1-.32.07-4.55,1-.31.07-4.69,1-.31.06-4.65,1-.32.06-4.57,1-.32.07-5.75,1.32v.16l5.8-1.16Z" fill="#e0e0e0"/><path d="M742.76,250.59l4.55-.93.35-.07,4.62-1,.35-.07,4.65-1,.36-.07,4.51-.93.35-.08,4.75-1,.36-.08,4.4-.91.36-.08h.17l4.68-1,.36-.07,4.3-.9.35-.08,4.45-.93.35-.07,4.29-.91.36-.07,4.45-.94.36-.08,1.73-.37v-.28l-1.74.36-.36.07-4.46.91-.36.08L787,241l-.36.08-4.44.92-.36.07-4.3.89-.36.08-4.68,1h-.17l-.36.08-4.4.92-.35.07-4.75,1-.36.07-4.5.95-.36.07-4.64,1-.36.07-4.61,1-.35.07-4.54,1-.36.08-5.63,1.21v.17l5.66-1.14Z" fill="#e0e0e0"/><path d="M740.71,240.74l4.53-.92.37-.08,4.6-.94.37-.08,4.64-.95.37-.08,4.49-.93.37-.07,4.74-1,.37-.08,4.39-.91.37-.08h.16l4.68-1,.37-.08,4.28-.89.37-.08,4.43-.93.37-.08,4.28-.9.37-.08,4.44-.94.37-.07,1.83-.39-.06-.28-1.83.37-.38.08-4.44.91-.37.07-4.28.89-.37.07-4.43.92-.37.08-4.29.89-.37.07-4.67,1h-.17l-.37.08-4.39.91-.37.08-4.73,1-.37.08-4.49.94-.37.08-4.63,1-.37.08-4.6,1-.37.08-4.52,1-.37.07-5.53,1.2V242l5.54-1.11Z" fill="#e0e0e0"/><path d="M738.65,230.88l4.54-.93.36-.07,4.61-.94.36-.08,4.65-1,.36-.08,4.5-.93.36-.07,4.75-1,.36-.07,4.4-.92.36-.07h.17l4.67-1,.37-.07,4.29-.9.36-.07,4.44-.94.36-.07,4.29-.9.36-.08,4.44-.94.36-.08,1.94-.41-.06-.28-1.94.4-.36.07-4.45.92-.36.07-4.29.88-.36.08-4.45.92-.36.07-4.29.89-.36.08-4.68,1h-.17l-.36.07-4.4.92-.36.07-4.74,1-.37.07-4.5,1-.36.07-4.64,1-.36.08-4.6,1-.36.08-4.53,1-.36.08L732.81,232v.17l5.45-1.1Z" fill="#e0e0e0"/><path d="M736.58,221l4.57-.93.33-.07,4.64-1,.33-.07,4.68-1,.32-.07,4.54-.94.33-.07,4.78-1,.32-.06,4.43-.93.33-.06h.19l4.69-1,.33-.07,4.33-.91.33-.06,4.47-.94.33-.07,4.32-.91.32-.07,4.49-.95.32-.07,2.05-.43-.05-.28-2.06.42-.36.11-4.49.92-.32.07-4.33.89-.32.07-4.48.93-.33.06-4.33.9-.32.07-4.69,1h-.2l-.32.06-4.43.93-.33.07-4.78,1-.33.06-4.53,1-.33.07-4.67,1-.33.07-4.63,1-.33.07-4.57,1-.32.07L730.88,222v.17l5.36-1.08Z" fill="#e0e0e0"/><path d="M734.48,211.16l4.65-.94.26-.06,4.71-1,.26-.06,4.74-1,.26-.06,3.36-.69a2.28,2.28,0,0,1,0-.37l-3.41.72h-.26l-4.74,1-.26.06-4.7,1-.26.06-4.64,1h-.26l-5.31,1.29v.17l5.29-1.07Z" fill="#e0e0e0"/><path d="M787.88,199.75l-4.56.94-.25.05-4.4.91-.25,0-4.55.94h-.26l-4.4.92H769l-2.49.52.34.31,2.22-.46.26-.06,4.39-.92.27,0,4.54-1h.25l4.39-.92.26-.06,4.55-1,.26,0,2.19-.47-.06-.28-2.2.45Z" fill="#e0e0e0"/><path d="M731.53,207.41l-3.42.74v.17l3.77-.73Z" fill="#e0e0e0"/><path d="M738.54,206.22l3.51-.72a3.62,3.62,0,0,1-.43-.24l-3.14.67h-.21l-2.19.47a4.19,4.19,0,0,1-.28.34l2.53-.52Z" fill="#e0e0e0"/><path d="M748.52,204.17l3.71-.77q-.24-.12-.48-.27l-3.31.69-.21.05-1.72.36a2.72,2.72,0,0,1-.34.42l2.13-.44Z" fill="#e0e0e0"/><path d="M758.49,202.1l3.9-.81c-.16-.09-.31-.19-.46-.29l-3.52.74h-.21l-1.31.27a3,3,0,0,1-.34.45l1.72-.35Z" fill="#e0e0e0"/><path d="M768.45,200l4.09-.86a3.13,3.13,0,0,1-.42-.29l-3.75.78h-.2l-.92.19q-.13.22-.3.45l1.29-.27Z" fill="#e0e0e0"/><path d="M735.56,216.2l4.6-.94.3-.06,4.67-1,.3-.06,4.7-1,.3-.06,4.57-.94.3-.07,2.13-.44-.24-.33-2,.41-.3.07-4.56,1-.3.06-4.7,1-.3.06-4.66,1-.3.06-4.6,1-.29.06-5.3,1.14v.17l5.33-1.07Z" fill="#e0e0e0"/><path d="M788.88,204.8l-4.52.92-.29.06-4.36.9-.29.06-4.51.93-.3.07-4.36.9-.29.06-1.59.33v.4l1.7-.36.3-.06,4.36-.91.3-.07,4.5-.94.3-.06,4.34-.92.3-.06,4.51-1,.3-.06,2.12-.45-.06-.28-2.12.44Z" fill="#e0e0e0"/><path d="M737.62,226l4.56-.93.34-.07,4.62-.95.35-.07,4.66-1,.35-.07L757,222l.35-.07,4.76-1,.35-.08,4.41-.91.35-.08h0l4.83-1,.35-.07,4.3-.9.35-.08,4.45-.93.35-.07,4.3-.91.35-.07,4.46-1,.34-.07,2-.42-.06-.28-2,.41-.34.07-4.47.91-.35.07-4.3.89-.35.07-4.45.92-.35.08-4.31.89-.35.07-4.83,1h0l-.35.08-4.41.92-.35.07-4.75,1-.35.08-4.52.94-.34.08-4.65,1-.35.07-4.62,1-.34.07-4.55,1-.35.07L731.88,227v.17l5.4-1.08Z" fill="#e0e0e0"/><path d="M739.67,235.76l4.54-.92.36-.08,4.6-.94.37-.08,4.64-1,.37-.08,4.49-.93.37-.08,4.74-1,.37-.07,4.39-.92.29-.06h.08l4.84-1,.37-.08,4.28-.9.37-.08,4.43-.93.37-.07,4.28-.9.37-.08,4.44-.94.37-.08,1.88-.4-.06-.28-1.89.39-.36.07-4.45.92-.37.07-4.28.88-.37.08-4.43.92-.37.07-4.29.89-.37.08-4.84,1h-.08l-.29.06-4.39.92-.37.07-4.73,1-.37.07-4.49,1-.37.07-4.63,1-.37.08-4.6,1-.36.08-4.53,1-.37.08-5.47,1.18V237l5.49-1.11Z" fill="#e0e0e0"/><path d="M741.71,245.59l4.54-.92.36-.07,4.61-1,.36-.07,4.64-1,.37-.07,4.5-.93.36-.08,4.74-1,.37-.08,4.39-.91h.37l4.84-1,.37-.08,4.28-.89.37-.08,4.44-.93.36-.08,4.28-.9.37-.08,4.44-.94.37-.07,1.78-.38-.06-.28-1.79.36-.36.08-4.45.91-.37.08-4.28.88-.37.07-4.43.92-.37.08-4.29.89-.37.07-4.84,1h-.37l-4.39.91-.36.08-4.74,1-.37.08-4.49.94-.37.08-4.63,1-.37.08-4.6,1-.36.08-4.53,1-.37.08-5.57,1.2v.18l5.59-1.13Z" fill="#e0e0e0"/><path d="M743.74,255.33l4.56-.93.34-.07,4.63-1,.34-.07,4.66-1,.35-.07,4.52-.93.34-.07,4.77-1,.34-.07,4.41-.92h.08l.26,0,4.87-1,.34-.07,4.32-.9.34-.07,4.46-.94.34-.07,4.3-.91.35-.07,4.46-.94.34-.08,1.7-.36-.06-.28-1.7.35-.34.07-4.47.92-.34.07-4.31.88-.34.08-4.47.92-.34.07-4.31.89-.34.07-4.87,1h-.34l-4.42.92-.34.07-4.77,1-.34.07-4.52.95-.34.07-4.66,1-.34.07-4.62,1-.34.07-4.55,1-.34.07-5.69,1.23v.17l5.71-1.15Z" fill="#e0e0e0"/><path d="M745.75,265.12l4.62-.94.28-.06,4.69-1,.28-.06,4.72-1,.29-.06,4.58-.94.28-.06,4.82-1,.29-.06L775,259h.05l.29-.06,4.92-1,.29-.06,4.37-.91.28-.06,4.52-1,.28-.06,4.36-.92.29-.06,4.52-1,.29-.06,1.62-.34-.06-.28-1.62.33-.29.06-4.53.93-.29.06-4.36.89-.29.06-4.51.94-.29.06-4.37.9-.29.06-4.92,1-.29.06h0l-4.42.92-.28.06-4.82,1-.29.06-4.57,1-.29.06-4.71,1-.29.06-4.68,1-.28.06-4.61,1-.29.06-5.81,1.25v.18l5.84-1.18Z" fill="#e0e0e0"/><path d="M760.23,214l.49.16.36.12a6.22,6.22,0,0,0,4.49-.66l.3-.18a5.62,5.62,0,0,0,1.35-1.22,5.8,5.8,0,0,0,1.15-2.78V209a6,6,0,0,0-1.15-4,4.23,4.23,0,0,0-.44-.51l-.34-.31a6.09,6.09,0,0,0-2.87-1.37h-.25a5.7,5.7,0,0,0-3,.33,4.7,4.7,0,1,1-.07,9.4,4.76,4.76,0,0,1-3.23-1.32l.13.18.24.33A7.21,7.21,0,0,0,760.23,214Z" fill="#e0e0e0"/><path d="M757.52,204.93a3.46,3.46,0,0,0,1.39-.25c.81-.37,1.2-1.06,1.29-1s0,.22-.16.5a2.27,2.27,0,0,1-2.21,1,2.91,2.91,0,0,1,.79,2.39,2.79,2.79,0,0,1-1.54,2.06,2.52,2.52,0,0,1,1.19.4,2.62,2.62,0,0,1,1,1.16c.16.36.16.61.12.62a4.28,4.28,0,0,0-1.33-1.46,3.7,3.7,0,0,0-1.68-.51h-.29a4.56,4.56,0,0,0,1,1.31,4.69,4.69,0,1,0,6.48-6.78,4.64,4.64,0,0,0-3.18-1.3,4.55,4.55,0,0,0-1.21.14l-.39.12-.22.09a4.72,4.72,0,0,0-1.69,1.17A2,2,0,0,1,757.52,204.93Z" fill="#ebebeb"/><path d="M754.49,209.71a1.81,1.81,0,0,0,.31.09,2.65,2.65,0,0,0,1.12.06h-.07c0-.07.43-.06,1-.36a2.71,2.71,0,0,0,1.4-1.93,2.85,2.85,0,0,0-.74-2.28c-.44-.49-.84-.64-.81-.7h0a2.78,2.78,0,0,0-3,.33l-.21.19a2.87,2.87,0,0,0-.84,2,6,6,0,0,0,.07.73A2.87,2.87,0,0,0,754.49,209.71Z" fill="#ebebeb"/><path d="M757.51,205.26a2.85,2.85,0,0,1,.74,2.28,2.71,2.71,0,0,1-1.4,1.93c-.57.3-1,.29-1,.36h.54c-.13,0-.21,0-.21-.05s.21-.15.61-.17h.29a2.79,2.79,0,0,0,1.54-2.06,2.91,2.91,0,0,0-.79-2.39h0c-.33-.06-.51-.17-.49-.22s.09,0,.22,0a1.91,1.91,0,0,0-.68-.35h-.16A4.74,4.74,0,0,1,757.51,205.26Z" fill="#e0e0e0"/><path d="M759.06,205a2.28,2.28,0,0,0,1-.84c.17-.28.2-.49.16-.5a4.45,4.45,0,0,1-1.29,1,3.46,3.46,0,0,1-1.39.25h-.22a.91.91,0,0,0,.49.22h0A2.31,2.31,0,0,0,759.06,205Z" fill="#e0e0e0"/><path d="M759.4,211.83a2.17,2.17,0,0,0-.12-.62,2.62,2.62,0,0,0-1-1.16,2.52,2.52,0,0,0-1.19-.4h-.29c-.4,0-.62.12-.61.17s.08,0,.21.05a3.7,3.7,0,0,1,1.68.51C759,211,759.29,211.87,759.4,211.83Z" fill="#e0e0e0"/><path d="M701.4,214.11l-12.25,39.78c3.38,4.15,7,8.11,13.28,10.07l30.28,8.33,11.75-47Z" fill="#e0e0e0"/><polygon points="699.88 211.44 687.64 251.22 700.91 261.29 731.19 269.62 744.62 224.7 699.88 211.44" fill="#686175" data-primary="true"/><path d="M693.58,249.59l-5.94,1.62a18,18,0,0,0,4.6,5.69,25.69,25.69,0,0,0,8.64,4.39A17.25,17.25,0,0,1,693.58,249.59Z" fill="#686175" data-primary="true"/><path d="M693.58,249.59l-5.94,1.62a18,18,0,0,0,4.6,5.69,25.69,25.69,0,0,0,8.64,4.39A17.25,17.25,0,0,1,693.58,249.59Z" opacity="0.2"/><polygon points="694.38 219.71 716.04 215.17 715.12 210.62 693.14 214.81 694.38 219.71" fill="#f48225" data-secondary="true"/><polygon points="747.22 235.99 735.22 217.39 731.3 219.89 743.09 238.9 747.22 235.99" fill="#f48225" data-secondary="true"/><path d="M735.42,237.42c0,.08-7.65-2.11-17-4.89s-17-5.09-17-5.17,7.65,2.12,17.05,4.9S735.44,237.35,735.42,237.42Z"/><path d="M733.46,243.51c0,.08-7.66-2.11-17.05-4.89s-17-5.09-17-5.17,7.66,2.12,17.05,4.9S733.48,243.44,733.46,243.51Z"/><path d="M732,249c0,.07-7.65-2.12-17-4.9S698,239,698,239s7.65,2.12,17,4.89S732.06,248.93,732,249Z"/><path d="M730.46,254.23c0,.08-7.66-2.11-17.05-4.89s-17-5.09-17-5.17,7.65,2.12,17.05,4.9S730.48,254.16,730.46,254.23Z"/></svg>