<svg id="bb4824a5-d85e-4acd-8d16-b4a36100ead9" data-name="Layer 1" xmlns="http://www.w3.org/2000/svg" xmlns:xlink="http://www.w3.org/1999/xlink" width="865.76" height="682.89" viewBox="0 0 865.76 682.89"><defs><clipPath id="eddd19ad-59f3-44e3-831b-48afb00fab01"><path d="M435.63,141.48v-8.41s6.59-1.88,13.37-11.73c0,0,4.68,3.56,8.63,2.15l.95,17.27s4.45,1.92,6.85,3.24c0,0-7.21,12.5-22.11,12.62,0,0-12.13.12-14.54-13.34A31.19,31.19,0,0,1,435.63,141.48Z" fill="#ffc596"/></clipPath><clipPath id="eb0400fa-6c31-4b1c-929d-d0bf6afa8f63"><path d="M411,597.74h0a5.9,5.9,0,0,0-3.63,4.2l-3.25,14.28a8.22,8.22,0,0,1-2.23,4c-1.47,1.5-3.48,4.58-4,10.47a5.2,5.2,0,0,0,2.64,5c3.72,2.09,10.72,5,17.84,2.3a27.63,27.63,0,0,1,9.86-.92s16.19,3.68,14.16-6.24c0,0-3.58-13.83-5.29-20.46,0,0-1.41-9.5-3.79-13.37C433.34,597,424.45,587.84,411,597.74Z" fill="#f48225" data-secondary="true"/></clipPath><clipPath id="e0eb6d16-dada-4086-adb3-28c664c94306"><path d="M457.58,596.48s-4.35,11.93-5.33,20.62c0,0-.14,3.42-2.86,10.07,0,0-8.42,10.15,7.24,10.47,0,0,9.28-2.32,17.29.76,0,0,9,2,16.12-2.37a6.63,6.63,0,0,0,3-6.47,15.83,15.83,0,0,0-4-8.83,13.16,13.16,0,0,1-3-5.31l-3.71-13a10,10,0,0,0-3.34-5C475.36,594.44,467.87,590.67,457.58,596.48Z" fill="#f48225" data-secondary="true"/></clipPath><clipPath id="bf126724-e8ac-4a68-befd-8ec42374c109"><path d="M448.7,236s14.27,11.58,28.38,7.7c0,0,33.65-19.34,69.21-36.88,0,0,16.34-9.61,24-2.64,0,0,10.09,7.2,15.86,24.27,0,0,13.39,34.77,50.29,95a2.71,2.71,0,0,1,.32,2.08c-.75,2.86-4,9.76-18.29,9.95a2.68,2.68,0,0,1-2.29-1.22c-2.71-4.12-12-17.8-21.38-26.9,0,0-26-24-27-48.3l-120.69,29.2-14.3-10.56Z" fill="#2c2e63"/></clipPath><clipPath id="ab50367a-324c-4e8c-96ce-f09f585c96bf"><path d="M414.61,299.59s-5.49,27.87,29.44,43.39c0,0,27.16,11.33,66.77-21.69,0,0,58.8-56.3,77.18-71.82,0,0,19.19,21.64,49.41,31l30,13.05a1.52,1.52,0,0,0,1.3,0,24.32,24.32,0,0,0,12.12-16.41,1.52,1.52,0,0,0-.52-1.51L635.92,239.4,604.2,217.05s-14.78-12.25-26.67-2.88c0,0-31,11-89.72,50.79A50.59,50.59,0,0,1,467.73,273c-9.74,1.61-24.16,2.17-30.71-7C437,266,435.51,278,414.61,299.59Z" fill="#2c2e63"/></clipPath></defs><path d="M395.47,124.63c-47.11,32.06-236.95-32.49-244.54,192.51s284,272.7,353.1,279.23S711.32,435.85,726.5,303.72,638.12-40.49,395.47,124.63Z" fill="#e4e1f5"/><path d="M234.77,123.12c-1.22.83-6.13-.84-6.33,5s7.36,7.06,9.15,7.23,5.36-4.16,5.76-7.58S241.06,118.84,234.77,123.12Z" fill="#e4e1f5"/><path d="M267.27,137.83c-1.42.41-5.58-2.7-7.56,2.78s4.81,9,6.46,9.71,6.39-2.3,7.82-5.43S274.57,135.7,267.27,137.83Z" fill="#e4e1f5"/><path d="M220.24,522.54c-1.22.83-6.14-.85-6.34,5s7.36,7.06,9.15,7.23,5.37-4.15,5.76-7.58S226.52,518.26,220.24,522.54Z" fill="#e4e1f5"/><path d="M726.82,416.76c-1.22.83-6.14-.84-6.34,5s7.36,7.06,9.15,7.23,5.37-4.16,5.76-7.58S733.1,412.48,726.82,416.76Z" fill="#e4e1f5"/><path d="M691,417c-1.45.27-5.29-3.24-7.81,2s3.9,9.42,5.47,10.3,6.59-1.65,8.32-4.63S698.43,415.61,691,417Z" fill="#e4e1f5"/><path d="M527.83,552.47c-1.22.83-6.13-.84-6.33,5s7.36,7.07,9.15,7.23,5.36-4.15,5.76-7.57S534.12,548.19,527.83,552.47Z" fill="#fff"/><path d="M229.23,457.52c-1.47.21-5.14-3.46-7.89,1.68s3.49,9.59,5,10.53,6.66-1.37,8.52-4.27S236.75,456.45,229.23,457.52Z" fill="#fff"/><path d="M302.32,153.27c-1.46.21-5.14-3.46-7.88,1.68s3.48,9.59,5,10.53,6.65-1.37,8.51-4.27S309.84,152.2,302.32,153.27Z" fill="#fff"/><path d="M345.17,112.86c-2,.34-7-4.43-10.51,2.58s5.07,12.71,7.16,13.91,8.87-2.1,11.25-6.06S355.22,111.12,345.17,112.86Z" fill="#e4e1f5"/><path d="M673.66,491.61c-1.86.32-6.71-4.23-10,2.45s4.83,12.13,6.83,13.27,8.45-2,10.72-5.78S683.24,490,673.66,491.61Z" fill="#e4e1f5"/><path d="M166.1,474.63c-1.38,1.18-7.61-.18-7,7s10,7.6,12.17,7.56,6-5.82,6-10.05S173.18,468.54,166.1,474.63Z" fill="#e4e1f5"/><path d="M202.79,440c-1.38,1.18-7.61-.18-7,7s10,7.6,12.17,7.56,6-5.82,6-10.05S209.87,433.94,202.79,440Z" fill="#fff"/><path d="M658.42,104.36c-1.67.68-7.16-2.58-8.88,4.38s7.05,10.37,9.16,11,7.51-3.63,8.86-7.65S667.07,100.81,658.42,104.36Z" fill="#fff"/><path d="M645.54,137.86c-1.38,1.19-7.62-.17-7,7s10,7.61,12.17,7.57,6-5.82,6-10.06S652.62,131.77,645.54,137.86Z" fill="#fff"/><ellipse cx="460.75" cy="636.72" rx="185.34" ry="15.69" fill="#e4e1f5"/><path d="M633.52,372.65s2.22,7.33,10.51,4.62c0,0,2.17-.72,7.75-5.4,0,0,5.23-5.59,8.83-5.59s12.62-2,16-5.95c0,0,11.63-7,6.45-15.65Z" fill="#2c2e63"/><path d="M699.18,317.82s5.58,5.25,11.43-1.22c0,0,1.51-1.7,4-8.54,0,0,1.75-7.45,4.88-9.24s10-8,11-13.14c0,0,6.61-11.83-2.2-16.78Z" fill="#2c2e63"/><path d="M618.69,334.47l5.49,10.65s15.11,1,18.71-9.65a70.12,70.12,0,0,1-6-10.17S634.78,334.3,618.69,334.47Z" fill="#ffc596"/><path d="M492.83,156.05s5.9-1.43,11.13,13l19.26,63-25.61,9.4-1.84-64.37S496.79,164,492.83,156.05Z" fill="#f48225" data-secondary="true"/><path d="M492.83,156.05s5.9-1.43,11.13,13l19.26,63-25.61,9.4-1.84-64.37S496.79,164,492.83,156.05Z" opacity="0.2"/><path d="M350.75,192.63s29.85-52.27,43.05-51.9l71.63-6.79v16.73l-73.88,25.39-8.66,28.14s-6.1,1-15.71-4c0,0-12.25-5.59-16.65-5.12Z" fill="#686175" data-primary="true"/><path d="M350.75,192.63s29.85-52.27,43.05-51.9l71.63-6.79v16.73l-73.88,25.39-8.66,28.14s-6.1,1-15.71-4c0,0-12.25-5.59-16.65-5.12Z" opacity="0.2"/><path d="M349.13,212.72s-5.55,16.42-20.67,14.25l.62-1.63a3.77,3.77,0,0,0-.8-3.61l-16.14-19.54a3.81,3.81,0,0,0-.14-2.37s14.78,7.62,26.67,4.62l2,2s1.83,1.48,4.41-1.69l.28-.35S350.33,207.68,349.13,212.72Z" fill="#ffc596"/><polygon points="340.71 206.48 339.61 205.52 311.82 193.96 312.14 202.19 321.68 213.84 340.71 206.48" fill="#ffa072"/><path d="M402.09,156.05s-14.7,4-23.07,54.59L354.1,299.59l18.5,16.87s16.63-7.58,20.44-19.84l1.81-107.41.47-24.24S395.87,161.29,402.09,156.05Z" fill="#f48225" data-secondary="true"/><path d="M402.09,156.05s-14.7,4-23.07,54.59L354.1,299.59l18.5,16.87s16.63-7.58,20.44-19.84l1.81-107.41.47-24.24S395.87,161.29,402.09,156.05Z" opacity="0.2"/><path d="M409.92,342.85s11.2,11.89,59.13,0L474.75,146l-9.32-2-36.65-.72a71.53,71.53,0,0,1-10.53,4.42Z" fill="#fff"/><path d="M435.63,141.48v-8.41s6.59-1.88,13.37-11.73c0,0,4.68,3.56,8.63,2.15l.95,17.27s4.45,1.92,6.85,3.24c0,0-7.21,12.5-22.11,12.62,0,0-12.13.12-14.54-13.34A31.19,31.19,0,0,1,435.63,141.48Z" fill="#ffc596"/><g clip-path="url(#eddd19ad-59f3-44e3-831b-48afb00fab01)"><path d="M435.63,137.68v-4.61A41.41,41.41,0,0,0,449,121.34a11.69,11.69,0,0,0,8.63,2.15l.69,12.46Z" fill="#ffa072"/></g><path d="M457.74,585.48l-.16,11s10.62-4.78,21.25.43a47.36,47.36,0,0,0-1.65-11.63A42.31,42.31,0,0,1,457.74,585.48Z" fill="#ffc596"/><path d="M411.56,586,411,597.74s11.16-8,22.32-.79l-.66-12S421.28,587.68,411.56,586Z" fill="#ffc596"/><path d="M402.42,326.74S390.84,343,395.79,395c0,0,7.34,81.15,6.63,104.93,0,0,.83,74.66,6.77,85.51,0,0,9.74,4.23,28.73-1.89,0,0,2.53,2.91,1.74-27.09,0,0-2.55-48.24-1.1-82.94L442,392.25s6.83,75,7.74,100.73l1.47,71.23s-2.45,21.36,6.56,21.27c0,0,21.95,4.21,23.41-4.34l5.79-90.52s-.24-44.6,4.53-82.24c0,0,7.92-64.73-7.28-84.08Z" fill="#2c2e63"/><path d="M456.08,93.5c0,22.33-11.53,40.44-25.76,40.44s-25.58-18.11-25.75-40.44c-.19-24,11.53-40.43,25.75-40.43S456.08,71.17,456.08,93.5Z" fill="#ffc596"/><ellipse cx="454.06" cy="100.45" rx="9.53" ry="6.44" transform="translate(290.17 535.66) rotate(-81.84)" fill="#ffc596"/><path d="M409.82,69s7.19,8.76,23.53,1.55c0,0,10.57-6.4,13,.65A45.78,45.78,0,0,1,448,82.84s-.56,9.22.8,12.9c0,0,2.24-5.43,6.61-4.72,0,0,5.91.76,5,10.35,0,0-1.11,7.45-6.69,8.54,0,0-2.07,7.58-4.75,11.43,0,0,6.87,5.69,11.53,0,0,0,25.71-38.74,8.52-63.49,0,0-11.91-23.79-40.27-11.77,0,0-5.52,1-9.37-2.17-3.27-2.65-14.17-6.14-21.5,3a19.26,19.26,0,0,0-4.1,12.4,25.77,25.77,0,0,0,12,21.73A31.71,31.71,0,0,1,409.82,69Z" fill="#2c2e63"/><path d="M421.06,146.72s-22.55,7-25.74,18.25c0,0-2.88,21.3-1.62,40.74l-7.57,165.8s4,10.51,27,12.19c2.92-30.81,5.23-62.95,6.72-96.35C422.11,237.6,422.32,191.17,421.06,146.72Z" fill="#f48225" data-secondary="true"/><path d="M489.22,152.71c6.31,3.06,6.49,13.7,6.49,13.7l.72,10.45,1.08,42.71c-1.08,15.14,3.24,87.59,3.24,87.59C504,331.68,504,378.54,504,378.54c-28,6.8-41,.9-41,.9l-4-175c-.9-35,11.71-59.29,11.71-59.29,1.84.43,3.78,1,5.79,1.66A66.65,66.65,0,0,1,489.22,152.71Z" fill="#f48225" data-secondary="true"/><path d="M411,597.74h0a5.9,5.9,0,0,0-3.63,4.2l-3.25,14.28a8.22,8.22,0,0,1-2.23,4c-1.47,1.5-3.48,4.58-4,10.47a5.2,5.2,0,0,0,2.64,5c3.72,2.09,10.72,5,17.84,2.3a27.63,27.63,0,0,1,9.86-.92s16.19,3.68,14.16-6.24c0,0-3.58-13.83-5.29-20.46,0,0-1.41-9.5-3.79-13.37C433.34,597,424.45,587.84,411,597.74Z" fill="#f48225" data-secondary="true"/><g clip-path="url(#eb0400fa-6c31-4b1c-929d-d0bf6afa8f63)"><path d="M405,609.11a5.45,5.45,0,0,1,4,2.39,7.49,7.49,0,0,1,.95,2.26c.08.37.15.89.22,1.08a1,1,0,0,0,.49.56.88.88,0,0,0,.67.06,4.65,4.65,0,0,0,.82-.51,21.49,21.49,0,0,0,1.79-1.35,16.66,16.66,0,0,0,3-3.22,10.47,10.47,0,0,0,1.75-3.85,27.69,27.69,0,0,0,.45-4.42,21.78,21.78,0,0,0-1.41-8.67l1.13.54a34.48,34.48,0,0,0-3.55,1.2,36.41,36.41,0,0,0-3.4,1.6,13.92,13.92,0,0,0-3,2.12,5.26,5.26,0,0,0-1.76,2.94v.06h0Zm0,0c.37-2.3.73-4.83,1.19-7.42v.06a6.3,6.3,0,0,1,1.78-3.77,14.74,14.74,0,0,1,3.14-2.56,26.18,26.18,0,0,1,3.51-1.86,36.12,36.12,0,0,1,3.72-1.42l.8-.26.34.79a22.11,22.11,0,0,1,1.63,9.49,29.43,29.43,0,0,1-.55,4.8,12.62,12.62,0,0,1-2.22,4.46,16.77,16.77,0,0,1-3.49,3.35,19.62,19.62,0,0,1-2,1.31l-.52.29a2.82,2.82,0,0,1-.71.29,2,2,0,0,1-1.55-.29,2.13,2.13,0,0,1-.9-1.23,8,8,0,0,1-.13-1.21,6.63,6.63,0,0,0-.62-2.09A5.38,5.38,0,0,0,405,609.11Z" fill="#fff"/><path d="M428.72,593.35a3.76,3.76,0,0,0-1.65,1.87,7,7,0,0,0-.53,2.43,14,14,0,0,0,.12,2.5,23.16,23.16,0,0,0,.5,2.48v0a31,31,0,0,0,1.42,5,10.56,10.56,0,0,0,2.49,4.15l.39.28c.16.1.39.2.58.3l1.19.6,2.39,1.2.3.15.15.07.07,0h0l-.09,0a.71.71,0,0,0-.72.2.7.7,0,0,0-.19.37l0-.2a7.09,7.09,0,0,1,.46-1.46,9.06,9.06,0,0,1,1.58-2.53l-.23.74c-.15-1.26-.31-2.55-.5-3.82s-.42-2.53-.64-3.79-.53-2.5-.87-3.73a12.41,12.41,0,0,0-1.39-3.43l.06.06a24.59,24.59,0,0,0-2.32-2A14.22,14.22,0,0,0,428.72,593.35Zm0,0a11.69,11.69,0,0,1,2.92,1.13,18.68,18.68,0,0,1,2.65,1.71l0,0,0,0a12.71,12.71,0,0,1,1.91,3.59,39.32,39.32,0,0,1,1.18,3.78c.33,1.28.6,2.56.86,3.85s.48,2.57.64,3.89l.05.41-.27.33a7.3,7.3,0,0,0-1.23,2,5.75,5.75,0,0,0-.33,1.1l0,.14a1.32,1.32,0,0,1-.33.67,1.3,1.3,0,0,1-1.34.34,1.15,1.15,0,0,1-.17-.06l-.06,0-.07,0-.15-.08-.3-.15-2.4-1.24-1.2-.63c-.2-.11-.39-.19-.61-.32l-.69-.51a11.93,11.93,0,0,1-2.85-5,30.32,30.32,0,0,1-1.13-5.4v0a23.67,23.67,0,0,1-.27-2.67c0-.44,0-.9,0-1.34s.08-.91.17-1.35a6.85,6.85,0,0,1,.94-2.54A3.72,3.72,0,0,1,428.72,593.35Z" fill="#fff"/></g><path d="M457.58,596.48s-4.35,11.93-5.33,20.62c0,0-.14,3.42-2.86,10.07,0,0-8.42,10.15,7.24,10.47,0,0,9.28-2.32,17.29.76,0,0,9,2,16.12-2.37a6.63,6.63,0,0,0,3-6.47,15.83,15.83,0,0,0-4-8.83,13.16,13.16,0,0,1-3-5.31l-3.71-13a10,10,0,0,0-3.34-5C475.36,594.44,467.87,590.67,457.58,596.48Z" fill="#f48225" data-secondary="true"/><g clip-path="url(#e0eb6d16-dada-4086-adb3-28c664c94306)"><path d="M486.52,610a5.59,5.59,0,0,0-3.55,2.83,6.89,6.89,0,0,0-.65,2.17,8.59,8.59,0,0,1-.14,1.26,2.14,2.14,0,0,1-2.52,1.56,2.44,2.44,0,0,1-.72-.3l-.55-.3a23,23,0,0,1-2.07-1.36,17.54,17.54,0,0,1-3.62-3.48,13.07,13.07,0,0,1-2.3-4.63,30.38,30.38,0,0,1-.56-5,22.79,22.79,0,0,1,1.69-9.84l.34-.79.79.25a40.66,40.66,0,0,1,3.87,1.47,29,29,0,0,1,3.65,1.93,15.84,15.84,0,0,1,3.26,2.65,6.55,6.55,0,0,1,1.84,3.91v-.07C485.75,605,486.13,607.6,486.52,610Zm0,0-2.2-7.49h0v-.06a5.51,5.51,0,0,0-1.81-3.08,15.42,15.42,0,0,0-3.12-2.21,32.6,32.6,0,0,0-3.54-1.66,36.67,36.67,0,0,0-3.7-1.26l1.14-.54a22.31,22.31,0,0,0-1.47,9,28.8,28.8,0,0,0,.46,4.6,11.07,11.07,0,0,0,1.83,4,17.64,17.64,0,0,0,3.13,3.34c.6.5,1.23,1,1.87,1.4a5.45,5.45,0,0,0,.86.53.93.93,0,0,0,.71-.06,1.06,1.06,0,0,0,.52-.6c.08-.21.15-.74.23-1.12a7.81,7.81,0,0,1,1-2.35A5.68,5.68,0,0,1,486.52,610Z" fill="#fff"/><path d="M461.83,593.62a3.87,3.87,0,0,1,2.11,1.74,7.09,7.09,0,0,1,1,2.63c.09.46.12.93.17,1.4s0,.93,0,1.4a23.43,23.43,0,0,1-.29,2.77v0a31.52,31.52,0,0,1-1.18,5.6,12.3,12.3,0,0,1-2.95,5.23l-.72.52c-.22.14-.42.22-.63.34l-1.24.64-2.49,1.3-.32.16-.15.08-.08,0-.06,0-.17.07a1.3,1.3,0,0,1-1.35-.35,1.29,1.29,0,0,1-.33-.67l0-.15a5.31,5.31,0,0,0-.34-1.14,7.84,7.84,0,0,0-1.28-2.12l-.27-.33.05-.41c.17-1.37.41-2.7.66-4s.54-2.67.89-4,.74-2.64,1.22-3.93a13,13,0,0,1,2-3.73l0,0,0,0a20.78,20.78,0,0,1,2.75-1.78A12.41,12.41,0,0,1,461.83,593.62Zm0,0a14.43,14.43,0,0,0-2.74,1.62,23.93,23.93,0,0,0-2.42,2l.06-.06a13,13,0,0,0-1.46,3.57c-.34,1.27-.65,2.56-.9,3.87s-.48,2.62-.67,4-.37,2.65-.53,4l-.22-.74a9.94,9.94,0,0,1,1.63,2.62,7.49,7.49,0,0,1,.48,1.52l0,.2a.68.68,0,0,0-.18-.37.69.69,0,0,0-.71-.19l-.09,0h0l.08,0,.15-.08.31-.16,2.48-1.24,1.24-.62c.2-.11.44-.21.61-.32l.41-.3a11,11,0,0,0,2.6-4.33,33.38,33.38,0,0,0,1.46-5.22v-.05a25.61,25.61,0,0,0,.52-2.58c.07-.44.07-.87.13-1.31s0-.87,0-1.3a7.23,7.23,0,0,0-.57-2.52A3.85,3.85,0,0,0,461.83,593.62Z" fill="#fff"/></g><path d="M439.6,230.87l9.1,5.15c-.83,6.33-3.51,12.51-6.33,20.61A106.2,106.2,0,0,1,419.91,294c-3.12,3.35-5.3,5.58-5.3,5.58-3.37-3.12-10.64-7.2-10.64-7.2s14.69-5.7,24.92-25.56a72.37,72.37,0,0,0,4.7-10.88,121.55,121.55,0,0,0,3.87-13.14C438.52,238.08,439.18,234,439.6,230.87Z" fill="#ffc596"/><path d="M448.7,236s14.27,11.58,28.38,7.7c0,0,33.65-19.34,69.21-36.88,0,0,16.34-9.61,24-2.64,0,0,10.09,7.2,15.86,24.27,0,0,13.39,34.77,50.29,95a2.71,2.71,0,0,1,.32,2.08c-.75,2.86-4,9.76-18.29,9.95a2.68,2.68,0,0,1-2.29-1.22c-2.71-4.12-12-17.8-21.38-26.9,0,0-26-24-27-48.3l-120.69,29.2-14.3-10.56Z" fill="#2c2e63"/><g clip-path="url(#bf126724-e8ac-4a68-befd-8ec42374c109)"><path d="M439.78,259.38,437,266s7.81,15.74,44.09,3l6.7-4,68.52-29.61s13.34,41.81,23.07,53.34c0,0,8.29,13.34,13.7,16.59s1.73,2.06,1.73,2.06-25.16-35.95-29.49-69.83L561,215.16s-38.56,36.77-65.6,33.88C495.41,249,455.52,282,439.78,259.38Z" opacity="0.2"/></g><path d="M624.18,345.12s1.17,18.15,9.34,27.53A18.58,18.58,0,0,0,647,367.12c5.76-6,10.33-6.49,16.58-7,0,0,6,0,15.38-8.65l3.83-4.43a2.18,2.18,0,0,0,.33-2.39c-.94-1.94-3.31-5.12-8.73-4.35,0,0-25.43,5.31-31.48-4.86C642.89,335.47,641.09,344.68,624.18,345.12Z" fill="#686175" data-primary="true"/><path d="M668.6,292.5l8.79,6.08s13.6-6.65,11.43-17.67a69.48,69.48,0,0,1-10.31-5.82S682.47,284.35,668.6,292.5Z" fill="#ffc596"/><path d="M677.39,298.58s10.05,15.17,21.79,19.24a18.6,18.6,0,0,0,8.93-11.49c2-8.08,5.74-10.77,10.92-14.29,0,0,5.21-3,9-15.16l1.12-5.75a2.19,2.19,0,0,0-.91-2.23c-1.77-1.22-5.41-2.8-9.73.56,0,0-19.42,17.26-29.73,11.45C688.82,280.91,691.85,289.79,677.39,298.58Z" fill="#686175" data-primary="true"/><path d="M481.88,136.71,465.43,136V144l10.39,2.54,13.4,6.17,3.61,3.34s3.48-1.12,7.08,5.13a28.88,28.88,0,0,0-2.68-14.75A18.12,18.12,0,0,0,481.88,136.71Z" fill="#ffc596"/><path d="M350.53,195.26a13.09,13.09,0,0,1-2.41,5.72,12.09,12.09,0,0,1-2.58,2.57c-8.44,6.26-25.3,3.2-40.08-7.86-16.49-12.36-24.14-30-17.07-39.45s26.17-7.06,42.66,5.29C344.62,171.69,352.2,185.45,350.53,195.26Z" fill="#ffc596"/><path d="M310.91,151.66a62.59,62.59,0,0,1,22.69,11.85s-5.68-14.5-17.4-17.61l-16.93,4.55-12.81,46.06L276,314.91l-27,6.89s-.7,17.44,12.63,20.33c0,0,5.23,20.54,20.55,20.18,0,0,10.63,2.35,20.54-10.27,0,0,11.54,6.67,24.88-17.66,0,0,9.84-15.68,1.08-42.17a100.57,100.57,0,0,1-4-27.41l-1.44-27.74,5.23-10.1s1.62-2-.18-5.22l-16.14-19.55a16.84,16.84,0,0,0-.14-2.37s-1.48-2.36-6.66-5c0,0,.3-1.25-2.83-1.73,0,0-3.82-3.09,2.59-5.35a1,1,0,0,1,.41,0,2,2,0,0,0,2.29-1.7c0-.11,0-.22,0-.34Z" fill="#1b1c3d"/><path d="M333.69,163.47c-1.15-3.38-9.74-26.61-25.78-17.57,0,0-18-10-36.28,17.54,0,0-14.18,21.05-8.65,53.73,0,0,11.09,66.33-2.28,80.61-.21.22-.43.43-.65.63-2.82,2.64-25.32,24.87,2.44,38.19,0,0,16.1,27.16,39.89,7.45,0,0,19.23,4.33,19.23-29.8,0,0-.72-22.34-1.44-36l-.48-20.67s1.16-10.2-3.14-24.35a68.29,68.29,0,0,0-11.18-21.52c-3.79-5-8.83-12.83-8.2-18.92a6.84,6.84,0,0,1,.45-1.78c1.29-3.39,6.9-18.34,13.66-40.84,0,0,16.11,3,22.33,13.37C333.64,163.55,333.71,163.52,333.69,163.47Z" fill="#2c2e63"/><path d="M439.59,230.87c-7,51.67-35.62,61.52-35.62,61.52-13.52-7.22-33.34-10.34-33.34-10.34-18.62-2.16-51.9-27.85-51.9-27.85-2.28-7.56,9.73-27.23,9.73-27.23,15.12,2.17,20.67-14.25,20.67-14.25,1.2-5-3.73-8.28-3.73-8.28h0a4.13,4.13,0,0,1,.14-1.06,12.82,12.82,0,0,0,2.58-2.57,13.14,13.14,0,0,0,2.41-5.72c4.41-.47,16.5,4.74,16.5,4.74a33.69,33.69,0,0,0,15.86,4.37c18.26.24,21.08,4.57,21.08,4.57Z" fill="#686175" data-primary="true"/><ellipse cx="306.99" cy="195.94" rx="4.86" ry="7.86" transform="translate(-43.91 293.43) rotate(-48.08)" fill="#ffc596"/><path d="M414.61,299.59s-5.49,27.87,29.44,43.39c0,0,27.16,11.33,66.77-21.69,0,0,58.8-56.3,77.18-71.82,0,0,19.19,21.64,49.41,31l30,13.05a1.52,1.52,0,0,0,1.3,0,24.32,24.32,0,0,0,12.12-16.41,1.52,1.52,0,0,0-.52-1.51L635.92,239.4,604.2,217.05s-14.78-12.25-26.67-2.88c0,0-31,11-89.72,50.79A50.59,50.59,0,0,1,467.73,273c-9.74,1.61-24.16,2.17-30.71-7C437,266,435.51,278,414.61,299.59Z" fill="#2c2e63"/><g clip-path="url(#ab50367a-324c-4e8c-96ce-f09f585c96bf)"><path d="M419.91,294s6.88,29.43,41.82,33.53c0,0,15.23,1.79,51.46-24.16l73.23-57.67,89.08,42.22a21.94,21.94,0,0,1-7.5,5.9L637.41,280.5s-29.58-8.34-49.41-31l-77.18,71.82s-32.29,29.32-62.09,22.91c0,0-36.29-8.92-34.12-44.61Z" opacity="0.2"/></g><path d="M535.79,298.05s4-2.9,0-7.59c0,0-2-3,.9-4.8,0,0,1.91-2.51,10.32,6.19,0,0,.37-1.77-3.12-5.83,0,0-8-5.89-6.13-9.25,0,0,1.76-2.49,7.25,1,0,0-4.85-3.51-2.2-6.15,0,0,1.93-2.61,7.68,2.4,0,0-4.08-3.54-.84-5.44,0,0,2.65-1.89,10.1,2.68,0,0,7.81,2.64,6.73,10.57,0,0-.12,4.53-6.38,10.17a14.07,14.07,0,0,0-1,1A14.08,14.08,0,0,1,553,296.9a6.49,6.49,0,0,0-1.65.86C548.8,299.6,540.36,305,535.79,298.05Z" fill="#ffc596"/><path d="M411.56,207.53s-18.21-1.95-22.06,16.79a29.9,29.9,0,0,0,4.2,22c3.08,4.81,8.08,10.67,16.22,16.68,0,0,16.58,14,33.82,22.63l5.88-3.68Z" fill="#e0b8b9"/><path d="M437.67,217.89S424.4,196.44,405,211.37a22.18,22.18,0,0,0-8,23.39c1.41,5.12,4.63,11.11,11,17.74,0,0,17.3,21,41.64,29.48,0,0,20.25-20.83,29.87-48.71,0,0,5.12-14.06-6.2-23.55a23.06,23.06,0,0,0-23.55-3.95C445.31,207.59,440.72,211.14,437.67,217.89Z" fill="#fce8e9"/><path d="M437.67,217.89a24.06,24.06,0,0,0-4.18-5s7.67-8.1,19.08-8A22.5,22.5,0,0,0,437.67,217.89Z" fill="#e0b8b9"/><path d="M389.31,234.91l6.91-3.31,21.51,1.65s40.52,1.66,62.91-9.4a21.11,21.11,0,0,1-1.45,10.27l-2.38,6.14s-34.6,7.87-59.72,5.45l-16.06-2-6,4.59A31.61,31.61,0,0,1,389.31,234.91Z" fill="#d398a0"/><path d="M464.18,222s-5.57-2.74-15.11,12.14c0,0,0,1.92,0,6.11,0,0,15,4.42,17.89.81,0,0,2.2-2-.06-5.24a5.26,5.26,0,0,0-.58-.67,3.56,3.56,0,0,1-.67-2.49,9,9,0,0,1,.39-2.52C466.61,228.12,467.74,222.94,464.18,222Z" fill="#686175" data-primary="true"/><path d="M467.74,237.46s-1.5,5.09-10.24,2.48c0,0-8.63-1.22-6.47-3.35a2.35,2.35,0,0,1,1.24-.61,52.12,52.12,0,0,1,7-.8.24.24,0,0,0,.11-.44c-.7-.39-3-.86-10.3-.64,0,0,0,2.19,0,6.11,0,0,12.47,3.91,17,1.5A3.6,3.6,0,0,0,467.74,237.46Z" opacity="0.2"/><path d="M440.08,235s-19.89-15-22.41-5.93a10.18,10.18,0,0,0,1.6,6.66,7.17,7.17,0,0,1,0,4.78s-1.88,6.54,3,7.16a5.14,5.14,0,0,0,1.24,0c2.24-.24,10.78-1.42,16.93-6.35,0,0-.67-.42-.68-2.34A13.07,13.07,0,0,1,440.08,235Z" fill="#686175" data-primary="true"/><path d="M419.42,245.71s13.11,1,16.56-4.48a.89.89,0,0,0-.77-1.35c-2.28,0-6.49-.19-5.83-1.61,0,0-.63-1,6.49-.58a4.28,4.28,0,0,0,3.23-3.43l1,.71s-.69,4,.39,6.32a31.18,31.18,0,0,1-18.17,6.35S419.88,247.36,419.42,245.71Z" opacity="0.2"/><path d="M441.35,241.5l-7.91,24.3a6.76,6.76,0,0,1,7.91,2.17l2.18-26.23Z" fill="#686175" data-primary="true"/><path d="M442.84,250s-.58-1.73-3.5-2.34l2-6.18s2.2,0,2.18.24Z" opacity="0.2"/><path d="M449.62,257.65l-4.51-15.91a12.11,12.11,0,0,0,3-1l6.2,15.05-.3,0a5.08,5.08,0,0,0-4.38,1.83Z" fill="#686175" data-primary="true"/><path d="M450.49,246.58s-2.05,0-3.26,2.64l-2.12-7.48a12.3,12.3,0,0,0,3-1Z" opacity="0.2"/><path d="M445.92,275.08l3.78-4.2s.25-6.05,3.61-10.09c0,0,3.9-9.31,7-10a1,1,0,0,1,1.1,1.24l-1.89,5.59s1.33.14,3.49-1.64a12.44,12.44,0,0,0,4-6.06c.52-1.76,1.41-4,2.61-5a1.35,1.35,0,0,1,2.15,1.26,29.5,29.5,0,0,1-1.41,5.41,18.55,18.55,0,0,0,2.52-5.09s1.1-3.76,2.35-1.86c0,0,1.37-.13-1.63,8,0,0-2.28,5.36-4,6.88a19.13,19.13,0,0,0,3-2.83,12.67,12.67,0,0,0,2.53-5c.47-1.79,1.38-4.37,2.55-3.91a.86.86,0,0,1,.51.81,20,20,0,0,1-1,6s2.41-.08-1,9.05c0,0-.45,5.89-7.19,10.21l-16.79,13Z" fill="#ffc596"/><path d="M326.47,244.45s-13,.72-5.58,18.2c0,0,1.62,11,26.31,38,0,0,15.11,17.1,26.61,24.27a17.25,17.25,0,0,0,11.58,2.42,38.73,38.73,0,0,0,6.69-1.64s19.64-4.27,60.49-38.15l-7-13.22s-22.22,15.86-60,28.12L359.34,272.2S339.51,241.68,326.47,244.45Z" fill="#686175" data-primary="true"/><path d="M326.47,244.45s-13,.72-5.58,18.2c0,0,1.62,11,26.31,38,0,0,15.11,17.1,26.61,24.27a17.25,17.25,0,0,0,11.58,2.42,38.73,38.73,0,0,0,6.69-1.64s19.64-4.27,60.49-38.15l-7-13.22s-22.22,15.86-60,28.12L359.34,272.2S339.51,241.68,326.47,244.45Z" opacity="0.2"/><path d="M343.85,296.71c2.28-1.44,6.82-3.71,10.79-2.16a2.42,2.42,0,0,1,.8,4,8.59,8.59,0,0,1-1.34,1s7.48-5.64,8.74-2.33c0,0,1.42,1.89-2,5.35,0,0,6-3.62,6.62,0,0,0,1.85,2-3.38,6,0,0-3.91,2.83-4.44,4.77l-.89,2.7a.09.09,0,0,0,.15.1c1.39-1.34,7.85-7.36,9.81-5.25,0,0,2.55,2.18-2.42,8.39l3.32,2.64s-3.73,7.86-10.81,3.76a44.73,44.73,0,0,0-9.93-5.42,8.89,8.89,0,0,1-3.18-2.09,30.8,30.8,0,0,1-4.21-5.71s-5.36-6.66-.72-13A11.29,11.29,0,0,1,343.85,296.71Z" fill="#ffc596"/><path d="M355,299c-1.61,1.19-3.25,2.23-4.82,3.36-.78.55-1.56,1.12-2.3,1.73a23.5,23.5,0,0,0-2.14,2,7.68,7.68,0,0,1,1.6-2.56,14.2,14.2,0,0,1,2.26-2,17.67,17.67,0,0,1,2.59-1.51A13.13,13.13,0,0,1,355,299Z" fill="#ffa072"/><path d="M360.79,302.61a22,22,0,0,0-2.92,1.76c-.92.66-1.83,1.32-2.71,2s-1.76,1.42-2.66,2.13-1.76,1.46-2.71,2.14A21.91,21.91,0,0,1,352,308a24.86,24.86,0,0,1,2.57-2.35,18.89,18.89,0,0,1,2.93-1.91A9,9,0,0,1,360.79,302.61Z" fill="#ffa072"/><path d="M439.92,235.41c-.17,1.44-.42,4.7.55,5.88,0,0,4.86,1.53,8.6-1.08V234.1a13.87,13.87,0,0,0-8.37.37A1.15,1.15,0,0,0,439.92,235.41Z" fill="#2c2e63"/><ellipse cx="412.61" cy="90.94" rx="1.54" ry="2.96" fill="#2c2e63"/><ellipse cx="435.23" cy="91.07" rx="1.54" ry="2.96" fill="#2c2e63"/><path d="M422.63,97.75,421.48,106a2.32,2.32,0,0,0,2.41,2.63l2.09-.11" fill="none" stroke="#ffa072" stroke-miterlimit="10"/><path d="M332.1,179.14l5.95,1.84a1.68,1.68,0,0,1,1,2.35l-1,2" fill="none" stroke="#ffa072" stroke-miterlimit="10"/><path d="M323.07,184.8a2.13,2.13,0,0,1-2.88.88,2.1,2.1,0,0,1-.85-.82c-1.19,1.29-2,.63-2,.63.52,0,1.51-1.75,1.9-2.51h0l.11-.23h0a.35.35,0,0,1,0-.08,2.13,2.13,0,0,1,3.67,2.14Z" fill="#2c2e63"/><path d="M318.06,177.33h0a1,1,0,0,1,.33,1.42c-1.1,1.6-3.19,5.1-2.68,7.91,0,0-2.52-2.65,1-8.95A1,1,0,0,1,318.06,177.33Z" fill="#2c2e63"/><path d="M323.85,169h0a1,1,0,0,0,1.45-.16c1.15-1.57,3.75-4.71,6.58-5.15,0,0-3.33-1.5-8.11,3.9A1,1,0,0,0,323.85,169Z" fill="#2c2e63"/><path d="M332.85,172.7a2.12,2.12,0,0,0-1.08-3.56c.86-1.53,0-2.13,0-2.13.2.49-1.21,2-1.81,2.58h0l-.18.18h0l-.06.08a2.13,2.13,0,0,0,3.16,2.84Z" fill="#2c2e63"/><path d="M343.85,184.45a6.87,6.87,0,0,1,.83.88,6.78,6.78,0,0,1-8.86,10,6,6,0,0,1-1-.72l0,0,9-10.15Z" fill="#920e08"/><path d="M343.85,184.45a6.87,6.87,0,0,1,.83.88l-8.86,10a6,6,0,0,1-1-.72l0,0,9-10.15Z" fill="#fff"/><path d="M346.09,188.85a6.78,6.78,0,0,1-6.61,7.46,7.44,7.44,0,0,1,6.61-7.46Z" fill="#f85c66"/><path d="M434.8,113a15.57,15.57,0,0,1-.74,2.25,14.86,14.86,0,0,1-3.67,5.48c-.22.19-.44.37-.68.54a8,8,0,0,1-4.81,1.57,8.32,8.32,0,0,1-4.42-1.22c-.21-.13-.41-.27-.61-.41a12.56,12.56,0,0,1-3.78-5,14.38,14.38,0,0,1-.89-2.52s.29.22.78.53a16.77,16.77,0,0,0,8.75,2.45h.37a17.14,17.14,0,0,0,8.77-3C434.44,113.31,434.77,113,434.8,113Z" fill="#920e08"/><path d="M429.71,121.28a8,8,0,0,1-4.81,1.57,8.32,8.32,0,0,1-4.42-1.22,7.87,7.87,0,0,1,4.73-1.37A10,10,0,0,1,429.71,121.28Z" fill="#f85c66"/><path d="M434.8,113a15.57,15.57,0,0,1-.74,2.25,13.79,13.79,0,0,1-8.85,3.15,19.06,19.06,0,0,1-9.12-2.15,14.38,14.38,0,0,1-.89-2.52s.29.22.78.53a16.77,16.77,0,0,0,8.75,2.45h.37a17.14,17.14,0,0,0,8.77-3C434.44,113.31,434.77,113,434.8,113Z" fill="#fff"/><path d="M408.18,88.74a6.2,6.2,0,0,1,3.09-3.38,5.77,5.77,0,0,1,4.35-.09.75.75,0,0,1,.44.88h0a.75.75,0,0,1-1,.53A6.29,6.29,0,0,0,408.18,88.74Z" fill="#2c2e63"/><path d="M440.37,89.15a6.17,6.17,0,0,0-3.08-3.39,5.85,5.85,0,0,0-4.36-.09.76.76,0,0,0-.43.88h0a.74.74,0,0,0,1,.53A6.3,6.3,0,0,1,440.37,89.15Z" fill="#2c2e63"/><path d="M454.46,99.72a1.82,1.82,0,0,0-.54,1.3,1.3,1.3,0,0,0,.4,1,6.71,6.71,0,0,1,1.05,1.32,1.91,1.91,0,0,1,.19,1,.94.94,0,0,1-.52.81,1,1,0,0,0-.12-.72,2.09,2.09,0,0,0-.41-.51,11.13,11.13,0,0,1-1.2-1,2.35,2.35,0,0,1-.5-1,1.94,1.94,0,0,1,.11-1.1A1.54,1.54,0,0,1,454.46,99.72Z" fill="#ffa072"/><path d="M452.26,100a2.82,2.82,0,0,1,1.87-4.33,2.44,2.44,0,0,1,1.52.19,1.85,1.85,0,0,1,1,1.22,2.62,2.62,0,0,1,0,1.37c-.12.41-.28.77-.43,1.15a10.84,10.84,0,0,0-.5-2.16.89.89,0,0,0-.55-.43,1.54,1.54,0,0,0-.8,0,2.22,2.22,0,0,0-1.46,1A4.13,4.13,0,0,0,452.26,100Z" fill="#ffa072"/><path d="M305.91,195.73a1.59,1.59,0,0,0,.55,1,1.12,1.12,0,0,0,.82.25,5.18,5.18,0,0,1,1.41,0,1.64,1.64,0,0,1,.74.41.81.81,0,0,1,.25.76.83.83,0,0,0-.53-.3,1.69,1.69,0,0,0-.55,0,9.82,9.82,0,0,1-1.3.22,1.82,1.82,0,0,1-.88-.2,1.53,1.53,0,0,1-.66-.65A1.3,1.3,0,0,1,305.91,195.73Z" fill="#ffa072"/><path d="M304.92,197.29a2.36,2.36,0,0,1-1.8-3.5,2.2,2.2,0,0,1,.93-.88,1.57,1.57,0,0,1,1.34,0,2.12,2.12,0,0,1,.86.75c.2.3.34.58.51.89-.65-.28-1.17-.77-1.65-.83a.73.73,0,0,0-.57.13,1.28,1.28,0,0,0-.46.49,1.9,1.9,0,0,0-.16,1.45A3.53,3.53,0,0,0,304.92,197.29Z" fill="#ffa072"/><g opacity="0.3"><path d="M611.3,449.74l-2.47,2.47-25.12,25.12L558.6,452.21l-2.47-2.47A17.74,17.74,0,0,1,553.5,428a16.65,16.65,0,0,0,4.24,16.46l2.33,2.33,23.64,23.66,23.65-23.66,2.33-2.33A16.65,16.65,0,0,0,613.93,428,17.75,17.75,0,0,1,611.3,449.74Z" fill="none" stroke="#fff" stroke-miterlimit="10"/><path d="M609.69,444.43l-2.33,2.33-23.65,23.66-23.64-23.66-2.33-2.33a16.72,16.72,0,0,1,23.65-23.65l2.32,2.33,2.33-2.33a16.72,16.72,0,0,1,23.65,23.65Z" fill="none" stroke="#fff" stroke-miterlimit="10"/></g><g opacity="0.3"><path d="M585.59,145.14,584,146.69l-15.75,15.76-15.76-15.76L551,145.14a11.12,11.12,0,0,1-1.65-13.65A10.49,10.49,0,0,0,552,141.82l1.46,1.46,14.84,14.84,14.83-14.84,1.46-1.46a10.47,10.47,0,0,0,2.66-10.33A11.12,11.12,0,0,1,585.59,145.14Z" fill="none" stroke="#fff" stroke-miterlimit="10"/><path d="M584.58,141.82l-1.46,1.46-14.83,14.84-14.84-14.84L552,141.82A10.49,10.49,0,0,1,566.83,127l1.46,1.46,1.46-1.46a10.49,10.49,0,0,1,14.83,14.84Z" fill="none" stroke="#fff" stroke-miterlimit="10"/></g><g opacity="0.3"><path d="M331.33,494.46l-1.23,1.23-12.53,12.53L305,495.69l-1.23-1.23a8.85,8.85,0,0,1-1.31-10.86,8.32,8.32,0,0,0,2.11,8.21l1.16,1.16,11.8,11.8,11.8-11.8,1.16-1.16a8.3,8.3,0,0,0,2.11-8.21A8.85,8.85,0,0,1,331.33,494.46Z" fill="none" stroke="#fff" stroke-miterlimit="10"/><path d="M330.53,491.81,329.37,493l-11.8,11.8L305.77,493l-1.16-1.16a8.34,8.34,0,0,1,11.8-11.8l1.16,1.16,1.16-1.16a8.34,8.34,0,0,1,11.8,11.8Z" fill="none" stroke="#fff" stroke-miterlimit="10"/></g><g opacity="0.3"><path d="M215.28,348.43l-1.66,1.66L196.71,367l-16.9-16.91-1.66-1.66a11.94,11.94,0,0,1-1.77-14.65,11.24,11.24,0,0,0,2.85,11.08l1.57,1.57,15.91,15.92,15.92-15.92,1.57-1.57a11.24,11.24,0,0,0,2.85-11.08A11.94,11.94,0,0,1,215.28,348.43Z" fill="none" stroke="#fff" stroke-miterlimit="10"/><path d="M214.2,344.86l-1.57,1.57-15.92,15.92L180.8,346.43l-1.57-1.57a11.26,11.26,0,0,1,15.92-15.92l1.56,1.57,1.57-1.57a11.26,11.26,0,0,1,15.92,15.92Z" fill="none" stroke="#fff" stroke-miterlimit="10"/></g></svg>