<svg id="e1fdfc30-0ec1-4f82-bd5c-f0e7e6bcb78a" data-name="Layer 1" xmlns="http://www.w3.org/2000/svg" xmlns:xlink="http://www.w3.org/1999/xlink" width="865.76" height="682.89" viewBox="0 0 865.76 682.89"><defs><clipPath id="b7951c81-6f38-4eb1-bd3a-4a7bc5167474"><path d="M346.88,403.28s-6-50.52,31.35-53.83c0,0,15.66-2,19.47,11.51a19.63,19.63,0,0,1,.58,7.16c-.51,5.5-2.63,18-11.45,34.73L349,467.72l-21.44-18.47,15.85-28.36Z" fill="#fed194"/></clipPath></defs><g id="bbf5aa8a-c2de-4de5-9260-b0e764a0d875" data-name="freepik--background-simple--inject-6"><path d="M664.57,70.75S584.61.44,476.33,26.33,319.81,143,256,204.2c-33.42,32.08-81.42,42.6-120.6,66.79-125.24,77.38-113.83,262-22,334.83,79.44,63,181.22,73.06,315.58,33.59S659.24,576.8,746.2,452.83,762.75,165.86,664.57,70.75Z" fill="#d1d3d4"/><path d="M664.57,70.75S584.61.44,476.33,26.33,319.81,143,256,204.2c-33.42,32.08-81.42,42.6-120.6,66.79-125.24,77.38-113.83,262-22,334.83,79.44,63,181.22,73.06,315.58,33.59S659.24,576.8,746.2,452.83,762.75,165.86,664.57,70.75Z" fill="#fff" opacity="0.4" style="isolation:isolate"/></g><g id="b94a8ff4-0cf4-4e5b-948c-de2480ddcd48" data-name="freepik--Audience--inject-6"><line x1="39.84" y1="550.84" x2="819.62" y2="550.84" fill="none" stroke="#263238" stroke-linecap="round" stroke-linejoin="round"/></g><g id="ac611066-25c5-4484-a0af-5c6607f4442d" data-name="freepik--Goal--inject-6"><path d="M161.07,533.72c-1.61-83.61-1.61-168.06,0-252" fill="none" stroke="#ccc" stroke-miterlimit="10"/><path d="M183.34,533.72c-.85-83.61-.85-168.06,0-252" fill="none" stroke="#ccc" stroke-miterlimit="10"/><path d="M205.62,533.72v-252" fill="none" stroke="#ccc" stroke-miterlimit="10"/><path d="M227.89,533.72c.67-83.61.67-168.06,0-252" fill="none" stroke="#ccc" stroke-miterlimit="10"/><path d="M250.17,533.72c1.42-83.61,1.42-168.06,0-252" fill="none" stroke="#ccc" stroke-miterlimit="10"/><path d="M272.44,533.72c-1.71-83.61-1.71-168.06,0-252" fill="none" stroke="#ccc" stroke-miterlimit="10"/><path d="M294.73,533.72c-.92-83.61-.92-168.06,0-252" fill="none" stroke="#ccc" stroke-miterlimit="10"/><path d="M317,533.72c-.16-83.61-.16-168.06,0-252" fill="none" stroke="#ccc" stroke-miterlimit="10"/><path d="M339.28,533.72c.6-83.61.6-168.06,0-252" fill="none" stroke="#ccc" stroke-miterlimit="10"/><path d="M361.56,533.72c1.35-83.61,1.35-168.06,0-252" fill="none" stroke="#ccc" stroke-miterlimit="10"/><path d="M383.83,533.72c-1.71-83.61-1.71-168.06,0-252" fill="none" stroke="#ccc" stroke-miterlimit="10"/><path d="M406.11,533.72c-1-83.61-1-168.06,0-252" fill="none" stroke="#ccc" stroke-miterlimit="10"/><path d="M428.4,533.72c-.23-83.61-.23-168.06,0-252" fill="none" stroke="#ccc" stroke-miterlimit="10"/><path d="M450.67,533.72c.53-83.61.53-168.06,0-252" fill="none" stroke="#ccc" stroke-miterlimit="10"/><path d="M473,533.72c1.28-83.61,1.28-168.06,0-252" fill="none" stroke="#ccc" stroke-miterlimit="10"/><path d="M495.25,533.72c-1.79-83.61-1.79-168.06,0-252" fill="none" stroke="#ccc" stroke-miterlimit="10"/><path d="M517.46,533.72c-1-83.61-1-168.06,0-252" fill="none" stroke="#ccc" stroke-miterlimit="10"/><path d="M539.77,533.72c-.28-83.61-.28-168.06,0-252" fill="none" stroke="#ccc" stroke-miterlimit="10"/><path d="M562,533.72c.48-83.61.48-168.06,0-252" fill="none" stroke="#ccc" stroke-miterlimit="10"/><path d="M584.33,533.72c1.23-83.61,1.23-168.06,0-252" fill="none" stroke="#ccc" stroke-miterlimit="10"/><path d="M606.61,533.72c-1.86-83.61-1.86-168.06,0-252" fill="none" stroke="#ccc" stroke-miterlimit="10"/><path d="M628.88,533.72c-1.09-83.61-1.09-168.06,0-252" fill="none" stroke="#ccc" stroke-miterlimit="10"/><path d="M651.16,533.72c-.34-83.61-.34-168.06,0-252" fill="none" stroke="#ccc" stroke-miterlimit="10"/><path d="M673.43,533.72c.41-83.61.41-168.06,0-252" fill="none" stroke="#ccc" stroke-miterlimit="10"/><path d="M695.71,533.72c1.17-83.61,1.17-168.06,0-252" fill="none" stroke="#ccc" stroke-miterlimit="10"/><path d="M718,533.72c-1.93-83.61-1.93-168.06,0-252" fill="none" stroke="#ccc" stroke-miterlimit="10"/><path d="M740.27,533.72c-1.16-83.61-1.16-168.06,0-252" fill="none" stroke="#ccc" stroke-miterlimit="10"/><path d="M161.07,549.46c-1.61-83.7-1.61-188.89,0-272.8" fill="none" stroke="#ccc" stroke-miterlimit="10"/><path d="M183.34,549.46c-.85-83.7-.85-188.89,0-272.8" fill="none" stroke="#ccc" stroke-miterlimit="10"/><path d="M205.62,549.46V276.66" fill="none" stroke="#ccc" stroke-miterlimit="10"/><path d="M227.89,549.46c.67-83.7.67-188.89,0-272.8" fill="none" stroke="#ccc" stroke-miterlimit="10"/><path d="M250.17,549.46c1.42-83.7,1.42-188.89,0-272.8" fill="none" stroke="#ccc" stroke-miterlimit="10"/><path d="M272.44,549.46c-1.71-83.7-1.71-188.89,0-272.8" fill="none" stroke="#ccc" stroke-miterlimit="10"/><path d="M294.73,549.46c-.92-83.7-.92-188.89,0-272.8" fill="none" stroke="#ccc" stroke-miterlimit="10"/><path d="M317,549.46c-.16-83.7-.16-188.89,0-272.8" fill="none" stroke="#ccc" stroke-miterlimit="10"/><path d="M339.28,549.46c.6-83.7.6-188.89,0-272.8" fill="none" stroke="#ccc" stroke-miterlimit="10"/><path d="M361.56,549.46c1.35-83.7,1.35-188.89,0-272.8" fill="none" stroke="#ccc" stroke-miterlimit="10"/><path d="M383.83,549.46c-1.71-83.7-1.71-188.89,0-272.8" fill="none" stroke="#ccc" stroke-miterlimit="10"/><path d="M406.11,549.46c-1-83.7-1-188.89,0-272.8" fill="none" stroke="#ccc" stroke-miterlimit="10"/><path d="M428.4,549.46c-.23-83.7-.23-188.89,0-272.8" fill="none" stroke="#ccc" stroke-miterlimit="10"/><path d="M450.67,549.46c.53-83.7.53-188.89,0-272.8" fill="none" stroke="#ccc" stroke-miterlimit="10"/><path d="M473,549.46c1.28-83.7,1.28-188.89,0-272.8" fill="none" stroke="#ccc" stroke-miterlimit="10"/><path d="M495.25,549.46c-1.79-83.7-1.79-188.89,0-272.8" fill="none" stroke="#ccc" stroke-miterlimit="10"/><path d="M517.46,549.46c-1-83.7-1-188.89,0-272.8" fill="none" stroke="#ccc" stroke-miterlimit="10"/><path d="M539.77,549.46c-.28-83.7-.28-188.89,0-272.8" fill="none" stroke="#ccc" stroke-miterlimit="10"/><path d="M562,549.46c.48-83.7.48-188.89,0-272.8" fill="none" stroke="#ccc" stroke-miterlimit="10"/><path d="M584.33,549.46c1.23-83.7,1.23-188.89,0-272.8" fill="none" stroke="#ccc" stroke-miterlimit="10"/><path d="M606.61,549.46c-1.86-83.7-1.86-188.89,0-272.8" fill="none" stroke="#ccc" stroke-miterlimit="10"/><path d="M628.88,549.46c-1.09-83.7-1.09-188.89,0-272.8" fill="none" stroke="#ccc" stroke-miterlimit="10"/><path d="M651.16,549.46c-.34-83.7-.34-188.89,0-272.8" fill="none" stroke="#ccc" stroke-miterlimit="10"/><path d="M673.43,549.46c.41-83.7.41-188.89,0-272.8" fill="none" stroke="#ccc" stroke-miterlimit="10"/><path d="M695.71,549.46c1.17-83.7,1.17-188.89,0-272.8" fill="none" stroke="#ccc" stroke-miterlimit="10"/><path d="M718,549.46c-1.93-83.7-1.93-188.89,0-272.8" fill="none" stroke="#ccc" stroke-miterlimit="10"/><path d="M740.27,549.46c-1.16-83.7-1.16-188.89,0-272.8" fill="none" stroke="#ccc" stroke-miterlimit="10"/><line x1="142.69" y1="300.34" x2="764.75" y2="300.34" fill="none" stroke="#ccc" stroke-miterlimit="10"/><line x1="142.69" y1="320.17" x2="764.75" y2="320.17" fill="none" stroke="#ccc" stroke-miterlimit="10"/><line x1="142.69" y1="339.98" x2="764.75" y2="339.98" fill="none" stroke="#ccc" stroke-miterlimit="10"/><line x1="142.69" y1="359.82" x2="764.75" y2="359.82" fill="none" stroke="#ccc" stroke-miterlimit="10"/><line x1="142.69" y1="379.65" x2="764.75" y2="379.65" fill="none" stroke="#ccc" stroke-miterlimit="10"/><line x1="142.69" y1="399.46" x2="764.75" y2="399.46" fill="none" stroke="#ccc" stroke-miterlimit="10"/><line x1="142.69" y1="419.29" x2="764.75" y2="419.29" fill="none" stroke="#ccc" stroke-miterlimit="10"/><line x1="142.69" y1="439.13" x2="764.75" y2="439.13" fill="none" stroke="#ccc" stroke-miterlimit="10"/><line x1="142.69" y1="458.96" x2="764.75" y2="458.96" fill="none" stroke="#ccc" stroke-miterlimit="10"/><line x1="142.69" y1="478.77" x2="764.75" y2="478.77" fill="none" stroke="#ccc" stroke-miterlimit="10"/><line x1="142.69" y1="498.6" x2="764.75" y2="498.6" fill="none" stroke="#ccc" stroke-miterlimit="10"/><line x1="142.69" y1="518.44" x2="764.75" y2="518.44" fill="none" stroke="#ccc" stroke-miterlimit="10"/><line x1="142.69" y1="539.24" x2="764.75" y2="539.24" fill="none" stroke="#ccc" stroke-miterlimit="10"/><path d="M761,277.4H148.89a13.05,13.05,0,0,0-13,13V550.65h6.23V296.94l27.44,18.19A16.57,16.57,0,0,1,177,329V550.6h6.22V329a22.81,22.81,0,0,0-10.25-19L142.2,289.53a6.83,6.83,0,0,1,6.69-5.81H761a6.82,6.82,0,0,1,6.61,5.24L735.86,310a22.8,22.8,0,0,0-10.24,19.05V550.6h6.21V329a16.61,16.61,0,0,1,7.45-13.85l28.53-18.91V550.74H774V290.43A13.05,13.05,0,0,0,761,277.4Z" fill="#fff" stroke="#263238" stroke-miterlimit="10"/></g><path d="M581.67,453l-3.75,7s14.27,8.56,18.18,13l3.34-11.29V444.36S591,454.21,581.67,453Z" fill="#fed194"/><path d="M577.92,459.94l3.75-7s7.26.39,14.74-5.68l-9.24,18S578.18,460,577.92,459.94Z" fill="#fbc27c"/><path d="M393.56,586.32,265.2,608.22s-1.77,9.52,2.66,16.52l133.79-3.64s-.38-10.87-4.48-19A31.2,31.2,0,0,1,393.56,586.32Z" fill="#fed194"/><path d="M265.2,608.22l85.5-14.59s4.34,15.89,3,28.78l-85.8,2.33S263.65,620.37,265.2,608.22Z" fill="#686175" data-primary="true"/><path d="M266.37,608a45,45,0,0,1,2.46-12.33s6.61-14-2.12-19.28c0,0-5.86-3.77-14.5,12,0,0-18.84,31.59-7.31,40.4,0,0,3.76,2.49,9.53,0,0,0,7.89-3,12.82-3.09a1.18,1.18,0,0,0,1.1-1.55C267.61,621.84,264.16,615.68,266.37,608Z" fill="#f48225" data-secondary="true"/><path d="M293.94,335.57a523.52,523.52,0,0,0-26.67,105.08,4.12,4.12,0,0,0,1.41,3.71c5.32,4.55,22.52,17,43.83,9.18l30.93-32.65,3.44-17.61s-5.16-38.67,21.48-51.55c0,0,20.78-8.52,28.06,6.61A18.78,18.78,0,0,1,398,369.2a106.06,106.06,0,0,1-11.13,33.65s31.93-36.27,16.76-64.44c0,0-3.76-8.64-18.85-6.25Z" fill="#686175" data-primary="true"/><g opacity="0.2"><path d="M358.44,344.55a98.56,98.56,0,0,0-8.51,7.82,100.34,100.34,0,0,0-7.6,8.64,69.75,69.75,0,0,0-11.2,19.8,43.85,43.85,0,0,0-2,22.36,18.48,18.48,0,0,0,4.86,9.9,16.93,16.93,0,0,0,4.5,3.41,18.34,18.34,0,0,0,5.45,1.77,16.93,16.93,0,0,1-10.63-4.48,19,19,0,0,1-5.71-10.3,40.44,40.44,0,0,1-.82-11.77,46.82,46.82,0,0,1,2.44-11.54A64.24,64.24,0,0,1,341.13,360,82.69,82.69,0,0,1,358.44,344.55Z"/></g><path d="M271.26,446.41S270,536,285,591.45l17.62-1.72s9.88-108.69,9.88-136.19C312.51,453.54,294,462.48,271.26,446.41Z" fill="#fed194"/><path d="M346.88,403.28s-6-50.52,31.35-53.83c0,0,15.66-2,19.47,11.51a19.63,19.63,0,0,1,.58,7.16c-.51,5.5-2.63,18-11.45,34.73L349,467.72l-21.44-18.47,15.85-28.36Z" fill="#fed194"/><g clip-path="url(#b7951c81-6f38-4eb1-bd3a-4a7bc5167474)"><path d="M355,381.4s29.63-3.32,36.08,12.5q-2.53,5.93-5.59,12.1a241.33,241.33,0,0,1-19.69,32.86,31.75,31.75,0,0,0-4.82-6.1,44.63,44.63,0,0,0-18-10.24l3.86-19.24S349.88,387,355,381.4Z" fill="#f48225" data-secondary="true"/></g><path d="M272.46,497.37s13.55-5.58,37.75,0q-1.66,22.73-3.56,45.77-1.92,23.48-4,46.59c-5.87.57-11.5,2.27-17.37,2.85C285.26,592.58,271.93,542.48,272.46,497.37Z" fill="#f48225" data-secondary="true"/><path d="M302.53,586.32c2.48,2.47,5.18,6.78,7.68,14.15,0,0,21.63,42.1,2.3,47.69,0,0-12.47,7-20.64-27.5l-6.43-18.47v3.43l-3-1.71s0-7.51,3.07-13.44l-.3-4.9a2.16,2.16,0,0,1,1.85-2.28l12.42-1.76a2.16,2.16,0,0,1,2.42,1.71Z" fill="#686175" data-primary="true"/><path d="M302.53,586.32c2.48,2.47,5.18,6.78,7.68,14.15,0,0,21.63,42.1,2.3,47.69,0,0-12.47,7-20.64-27.5l-6.43-18.47v3.43l-3-1.71s0-7.51,3.07-13.44l-.3-4.9a2.16,2.16,0,0,1,1.85-2.28l12.42-1.76a2.16,2.16,0,0,1,2.42,1.71Z" fill="#fff" opacity="0.2"/><path d="M288.45,591.45s8.84,40,19.33,34.8c0,0,7.74-1.72-5.15-36.52Z" fill="#fff"/><path d="M316.12,488.11s-8.48,27.49,2.72,27.83c0,0,18.32,1.69,20.7-24.1Z" fill="#686175" data-primary="true"/><path d="M316.12,488.11s-8.48,27.49,2.72,27.83c0,0,18.32,1.69,20.7-24.1Z" fill="#fff" opacity="0.2"/><path d="M322.23,491.84s-5.09,10.86,0,11.88c0,0,6.79,3,9.84-8.83Z" fill="#fff"/><path d="M355,381.4a44.65,44.65,0,0,1,2.57-9.75,31.85,31.85,0,0,1,2.16-4.58,12.07,12.07,0,0,1,3.24-3.89,18.24,18.24,0,0,0-2.55,4.25c-.69,1.51-1.34,3-1.92,4.58C357.33,375.11,356.26,378.26,355,381.4Z" fill="#fbc27c"/><ellipse cx="591.97" cy="431.77" rx="24.08" ry="13.72" transform="translate(-97.79 678.92) rotate(-55.82)" fill="#fed194"/><path d="M586.87,416.83s-4.62-4.44-5.16-9.76a7.83,7.83,0,0,1,8.16-8.49c8.93.33,28.77,3.3,39.6,22.31,0,0,6.26,15.65-12.87,28.17,0,0-13.91,7.65-14.78,14.26l-9.85-7,5.2-8.09,3.08-10.34a15,15,0,0,1-.48-5,9.11,9.11,0,0,1,1.72-4.42c.86-1.24,1.37-3.6-4.71-5.54A59.34,59.34,0,0,1,586.87,416.83Z"/><path d="M498.1,463.32l29.74,13.12-28.49,26.47a20.26,20.26,0,0,1-10.05,5c-5.65,1.07-16.13,5.83-18.15,11.88,0,0,49.38,27.56,53,66.43,0,0,13.57-1.83,27.91-17.48,0,0,22.69-22.69,37.82-45.12l16.15,17.47s19.32-13.56,20.1-25.56c0,0-10.43-26.08-30-43,0,0-25.56-26.08-84.77-34.17C511.4,438.36,500.45,453.32,498.1,463.32Z" fill="#686175" data-primary="true"/><path d="M498.81,460.88s-23.22-5.54-25.48-22V388.74s-11.71-33.63-4.16-37.79c0,0,1.51-4.53,4.16,14.74,0,0,2.53,15.5,9.39,14,0,0,1.62.25,3.48-2.2a9.68,9.68,0,0,0,1.61-3.6c.4-1.68,1.5-4.32,4.4-3.27h0c.14.08,1.67,1.25-2.66,10.79a37.83,37.83,0,0,0-2,22.08l10,31.14a6.91,6.91,0,0,0,5,4.61l7,1.59A102.17,102.17,0,0,0,498.81,460.88Z" fill="#fed194"/><path d="M343.79,556.11l37-45.22s18.73-31,41.23-17.49c0,0-9.72,5.52-14,36.19,0,0-2.61-1.78-7.37,4.31,0,0-11.66,12.14-25.2,19.2a30.41,30.41,0,0,0-3.47,2.09c-4,2.82-13.82,9.95-18.29,14.35a3.44,3.44,0,0,1-4.36.39C346.17,567.78,341.66,563.28,343.79,556.11Z" fill="#fed194"/><path d="M343.79,556.11l-19-18.25s-6.12-3.33-8.82,1.15a6,6,0,0,0-.61,4.54c1.67,6.94,8.69,32.87,22.14,39.64,0,0,5.34,2.48,9.21-5.13,0,0,4.13-5.92,7-8.52Z" fill="#f48225" data-secondary="true"/><path d="M376,516.7s18.85,14.37,20,21.56c0,0-5.18,6.07-20.63,14.84,0,0-13,7.95-21.76,16.44,0,0-2.92,4.22-8.57-3.77,0,0-3-3.38-1.3-9.66Z" fill="#686175" data-primary="true"/><path d="M368,526.51s16.18,12.5,18.26,19.81c0,0,6.64-4.49,7.29-5.65,0,0-9.52-14.42-20.08-20.85Z" fill="#fff"/><path d="M334.3,596.43s3.37,15.6,3.81,26.46l10.2-.34s0-21-3.32-27.94Z" fill="#fff"/><path d="M609.83,538.22s12.55,13.54,22.93,8c0,0,5.86-.54,4-19,0,0-3.37-45.48.35-52.73,0,0,12.28-18.28,9.12-30.13,0,0-2.7-2.82-3.6,6.2,0,0-4.78,19.54-16.94,17.78a5.13,5.13,0,0,1-3.49-2.3c-1.75-2.64-5.41-7.33-8.58-6a1.51,1.51,0,0,0-.77,2c1.09,2.74,4.06,9.87,7,14.06a11.16,11.16,0,0,1,1.94,5.78c.29,5.18.2,14.3-3.53,18.17,0,0,4.93,8.57,7.89,15.55C626.16,515.56,626.94,523.82,609.83,538.22Z" fill="#fed194"/><path d="M428.11,257v0a37.91,37.91,0,0,1-.69,4c-5.6,3-37.64,9.92-37.64,9.92-7.9,4.31-.73,43.11-.73,43.11,3,14.22-4.31,18.1-4.31,18.1-26.29,19.83-79.32,9.92-79.32,9.92-19.4-4.31-13.8-21.55-13.8-21.55,9.91-19.83,0-46.56,0-46.56l-35.34,8.62C245.49,274.39,241.19,248,241.19,248l44.4-14.09c20.69-6.89,67.25-4.3,67.25-4.3,19.4-.87,68.54,0,68.54,0a27.63,27.63,0,0,1,2.95,4.3C429,242.25,428.75,251.76,428.11,257Z" fill="#f48225" data-secondary="true"/><path d="M242.1,252.55s-46.61,9.77-38.42,29.17c0,0,0,12.07,30.61,15.52H276.1a69.53,69.53,0,0,0,18.11,0l13.72-1.15a1.69,1.69,0,0,0,1.39-2.43c-1.08-2.18-4.72-5-16.52-4.3a1.29,1.29,0,0,1-1.33-1.62C292.22,285,295,280,305,280c0,0,12.93,0,18.1-3,0,0,3.8-5.65-20.74-2.46a47.34,47.34,0,0,0-9.82,2.36c-2.55.92-6.14,2.28-10.95,4.26a19.47,19.47,0,0,1-5.87,1.42,59.54,59.54,0,0,1-29.35-5.14l3.82-2.23S244.31,263.9,242.1,252.55Z" fill="#fed194"/><path d="M543.82,266.19s-19.41-6.45-25,3.89c0,0-4.74,3.44,0,12.93,0,0,4.27,7.75-.44,9.66a.81.81,0,0,1-1.07-.53c-.7-2.35-3.28-9.45-9.7-13,0,0-11.56-9.48-20-10.77l-37.32-11.22s-12.45-2.15-22.17,0a1.09,1.09,0,0,1,0-.12v0c.64-5.24.88-14.75-3.78-23.14.55-.07,18.1-2.52,27.2-.6a12.06,12.06,0,0,1,3.35,1.24l45.4,24.8A31.18,31.18,0,0,0,517.52,261s14.23-6.46,32.76,2.59C550.28,263.61,553.73,267.92,543.82,266.19Z" fill="#fed194"/><path d="M214.6,272.23a21.46,21.46,0,0,1,8.11-1.32,39.78,39.78,0,0,1,8.21.9,56.87,56.87,0,0,1,7.92,2.27l3.82,1.53c1.24.6,2.48,1.17,3.7,1.8-1.31-.42-2.59-.9-3.88-1.34l-3.88-1.26c-2.62-.74-5.22-1.51-7.88-2a54.42,54.42,0,0,0-8-1.11c-.68-.05-1.35-.05-2-.08s-1.36,0-2,.07A17.71,17.71,0,0,0,214.6,272.23Z" fill="#fbc27c"/><g opacity="0.2"><path d="M291.62,274a13.22,13.22,0,0,1-2.29-5.33,16.88,16.88,0,0,1-.18-5.89,18,18,0,0,1,3.37-8.06,18.89,18.89,0,0,1,2-2.13c-.33.92-.77,1.75-1.11,2.62s-.72,1.71-1,2.59a29.52,29.52,0,0,0-1.27,5.27,27.74,27.74,0,0,0-.26,5.4A32.6,32.6,0,0,0,291.62,274Z"/></g><g opacity="0.2"><path d="M386.94,252.55a10.86,10.86,0,0,1,2.55,4.13,20.3,20.3,0,0,1,1.13,4.72,25.05,25.05,0,0,1,.09,4.82c-.07.79-.19,1.59-.31,2.38a23.71,23.71,0,0,1-.62,2.34c-.18-.8-.27-1.59-.37-2.37s-.19-1.56-.26-2.34l-.52-4.59c-.18-1.52-.37-3-.64-4.54A38.21,38.21,0,0,0,386.94,252.55Z"/></g><path d="M350.65,248a10.14,10.14,0,0,1-20,1.1A16.62,16.62,0,0,0,339.9,252,17,17,0,0,0,350.65,248Z" fill="#fbc27c"/><path d="M361.46,221.8c0,11.18-4.35,20.94-10.81,26.15a17,17,0,0,1-10.75,4,16.62,16.62,0,0,1-9.27-2.92c-7.27-4.86-12.28-15.24-12.28-27.25,0-16.67,9.65-30.18,21.55-30.18S361.46,205.13,361.46,221.8Z" fill="#fed194"/><ellipse cx="362.75" cy="226.54" rx="4.31" ry="7.33" fill="#fed194"/><ellipse cx="316.2" cy="224.81" rx="4.31" ry="7.33" fill="#fed194"/><path d="M312.87,220.15s-7.62-8.61-3.08-32.78a.23.23,0,0,1,.45,0c.6,2,2.36,6.4,6,6.2,0,0,3.06-10.79,2.28-19.49a1,1,0,0,1,1.15-1.07c2.39.45,7.78,2,13.3,7.73,0,0,2.26-2.49-2.33-9A.43.43,0,0,1,331,171c3.51.74,14.86,3.78,21.88,12.87,0,0,2.89-.66.45-8.95a.43.43,0,0,1,.69-.46c4.63,4.11,21.39,21.22,10.81,45.65,0,0-2.65-2.56-4.21,0L358.44,212s-8,.25-12.93-5.92c0,0-1.48,3,2.22,5.67,0,0-14.31,1.48-23-7.4A23.73,23.73,0,0,0,319,219.21S316.5,214.68,312.87,220.15Z"/><circle cx="337.78" cy="460.88" r="39.48" transform="translate(-173.16 716.7) rotate(-80.36)" fill="#e6e7e8"/><path d="M308.84,467.93s-5.14-3.64-7.88-7.79l.67-.44c2.65,4,7.67,7.57,7.68,7.58Z" fill="#f48225" data-secondary="true" fill-rule="evenodd"/><path d="M318.36,459.23s2.23-12.66,3-15.4l.76.22c-.77,2.68-3,15.28-3,15.32Z" fill="#f48225" data-secondary="true" fill-rule="evenodd"/><path d="M315.16,437.23A107,107,0,0,0,304,444.74l-.5-.62a107.06,107.06,0,0,1,11.29-7.59Z" fill="#f48225" data-secondary="true" fill-rule="evenodd"/><path d="M324.76,426.86a25.22,25.22,0,0,1-.2-3.18l.79-.27a29.11,29.11,0,0,0,.21,3.35Z" fill="#f48225" data-secondary="true" fill-rule="evenodd"/><path d="M338.89,427.87s7.37-2.42,13.75-.82l-.19.77c-6.16-1.54-13.29.8-13.31.81Z" fill="#f48225" data-secondary="true" fill-rule="evenodd"/><path d="M349,448.68s-8.9-8.15-12.61-9.46l.27-.76c3.87,1.37,12.85,9.6,12.88,9.63Z" fill="#f48225" data-secondary="true" fill-rule="evenodd"/><path d="M365.36,436.75a25.78,25.78,0,0,1-1.59,10.86l-.75-.28a24.9,24.9,0,0,0,1.55-10.51Z" fill="#f48225" data-secondary="true" fill-rule="evenodd"/><path d="M368.11,461.35a24.87,24.87,0,0,1,6.73,4l-.53.6a24.22,24.22,0,0,0-6.48-3.82Z" fill="#f48225" data-secondary="true" fill-rule="evenodd"/><path d="M321.76,443.94l-6.8-7.06a37.35,37.35,0,0,1,10.2-10.07A38.11,38.11,0,0,1,339,428.25l-2.49,10.59A63.8,63.8,0,0,0,321.76,443.94Z" fill="#686175" data-primary="true" fill-rule="evenodd"/><path d="M318.75,459.3s-8.37,6.6-9,7.45l-.65.85s2.61,8.5,4.18,11.64l1.57,3.14s4.77.91,7.78,1.11a29.33,29.33,0,0,0,5.82-.27s1-6.14,1.43-8.56a39.87,39.87,0,0,1,1.7-5.62S320.26,461.46,318.75,459.3Z" fill="#686175" data-primary="true" fill-rule="evenodd"/><path d="M349.28,448.38a63.49,63.49,0,0,1-.79,9.16c-.65,2.74-1.3,6-1.3,6s5,3.66,7.19,5.49,3.92,3.53,3.92,3.53,7.58-6.93,8.63-8.89l1-2s-1-6.93-2.09-9.68a19,19,0,0,0-2.48-4.57S353.85,447.08,349.28,448.38Z" fill="#686175" data-primary="true" fill-rule="evenodd"/><path d="M367.51,437.3a47.88,47.88,0,0,1,4.13,2.56,39.66,39.66,0,0,0-19-16.19,10.41,10.41,0,0,1-.1,3.76,25.34,25.34,0,0,1,5.55,2.36c2.49,1.5,6.87,7,6.87,7A6.05,6.05,0,0,1,367.51,437.3Z" fill="#686175" data-primary="true" fill-rule="evenodd"/><path d="M337.78,500.36c10.36,0,19.09-3.43,27.24-10.95a12.63,12.63,0,0,1-5.28-.46c-3.8-1.25-4.32-2.55-4.32-2.55s-5.36,3.13-8.63,3.79-6.47,1-6.47,1c-1.63,3.17-6.15,6.67-10,8.48A46.25,46.25,0,0,0,337.78,500.36Z" fill="#686175" data-primary="true" fill-rule="evenodd"/><path d="M309.39,488.27a56.32,56.32,0,0,0,6,5.11,25.15,25.15,0,0,1-2.14-3.39c-.33-.85-.72-1.76-.72-1.76Z" fill="#686175" data-primary="true" fill-rule="evenodd"/><path d="M303,441.61a39.71,39.71,0,0,0-4.43,23.15,13.42,13.42,0,0,1,2.69-4.84,73.5,73.5,0,0,1,.52-8.82,35.49,35.49,0,0,1,1.9-6.67,10.78,10.78,0,0,1-.4-1.44C303.25,442.67,303.15,442.17,303,441.61Z" fill="#686175" data-primary="true" fill-rule="evenodd"/><path d="M375,473.63a39.19,39.19,0,0,0,2.25-11.13c-.75,1.2-1.68,2.69-1.9,3a.47.47,0,0,1-.79.1,19.54,19.54,0,0,1,.43,4.21C375,470.84,375,472.28,375,473.63Z" fill="#686175" data-primary="true" fill-rule="evenodd"/><path d="M312.14,488.18s.55-4.37,2.42-6.1l.54.59c-1.65,1.53-2.16,5.59-2.16,5.6Z" fill="#f48225" data-secondary="true" fill-rule="evenodd"/><path d="M328.73,483s5.53,6.75,11.66,7.8l-.14.79c-6.42-1.1-12.11-8.06-12.13-8.08Z" fill="#f48225" data-secondary="true" fill-rule="evenodd"/><path d="M358.69,472.63s-1.51,10.17-2.89,13.91l-.75-.28c1.36-3.66,2.85-13.72,2.85-13.75Z" fill="#f48225" data-secondary="true" fill-rule="evenodd"/><path d="M331.44,468.66s13.85-4.7,15.58-5.47l.33.72c-1.79.8-15.62,5.49-15.66,5.51Z" fill="#f48225" data-secondary="true" fill-rule="evenodd"/><ellipse cx="601.82" cy="443.09" rx="6.96" ry="5.04" transform="translate(-129.9 595.08) rotate(-48.1)" fill="#fed194"/><path d="M438.64,567.87s-34.55-21.16-31.25-35.52c0,0,3.68-41.19,20.3-40.81L473,517.65s49.8,28.3,52.63,68.29c0,0-32.49,33.17-87,36.3l-35.57,2.5a1.45,1.45,0,0,1-1.55-1.37c-.21-3.83-1.07-14.3-4.64-21.22,0,0-9.91-21.64,3.13-23.73C400,578.42,429.8,573.76,438.64,567.87Z" fill="#f48225" data-secondary="true"/><g opacity="0.2"><path d="M438.93,567.87c4,2.26,7.82,4.68,11.62,7.15a65.12,65.12,0,0,1,5.67,3.91,43.17,43.17,0,0,1,5.07,4.77,44.3,44.3,0,0,1,4.21,5.53,31.27,31.27,0,0,0,3.94,5.33,21.56,21.56,0,0,0,5.13,4.13,19.39,19.39,0,0,0,6.32,2.2,16.56,16.56,0,0,1-6.76-1.32,20.29,20.29,0,0,1-5.8-3.91,29.1,29.1,0,0,1-4.42-5.39A45.13,45.13,0,0,0,459.8,585a47.51,47.51,0,0,0-4.77-4.64c-1.68-1.47-3.53-2.69-5.35-4.09C446,573.58,442.41,570.8,438.93,567.87Z"/></g><path d="M626.16,515.56a18.31,18.31,0,0,1,1.76,2.86,28.71,28.71,0,0,1,1.35,3.06,17.63,17.63,0,0,1,1.18,6.59c-.67-2.14-1.37-4.19-2.12-6.25S626.81,517.71,626.16,515.56Z" fill="#fbc27c"/></svg>