<svg id="e430a757-32c4-41b9-bc33-adb216cbaa98" data-name="Layer 1" xmlns="http://www.w3.org/2000/svg" xmlns:xlink="http://www.w3.org/1999/xlink" width="865.76" height="682.89" viewBox="0 0 865.76 682.89"><defs><clipPath id="fe924f5b-4f51-4acd-bf55-ef1c9f05696e"><path id="a01e3886-659f-46f3-8352-a9a06362fbff" data-name="SVGID" d="M668.58,633.7c-46.53,3.23-123.83,2.14-123.83,2.14-39.9-2.91-47.41-16.07-41.18-31.05,9.7-23.06,52.3-50.42,60.07-51.06,12.81-1,26.29,4,26.29,4l8.33-1.75c-2.56-6.91,23.77-22.29,35.8-15.65s36.9-2.47,44.4,2.2a17.65,17.65,0,0,1,5,4.91A29.55,29.55,0,0,1,687.87,558H688a26.69,26.69,0,0,1,5.76-.9c4.13-.22,9.62.41,13.93,4.16a41.88,41.88,0,0,1,3.14,3.11c7.76,8.48,17.76,24.51,20.06,33.86C733.56,608.82,715.09,630.46,668.58,633.7Z" fill="none"/></clipPath><clipPath id="a72d1bb2-d934-4f6b-933c-74fd1501df6d"><path id="f52ac5a7-c902-40a7-9cd8-f0ed9e9f9ba4" data-name="SVGID" d="M122.32,564.37s-.62,27.82,45.46,48.34,171.28,30.48,194.09-41.8l-70.95-20.37H195.74l-21,9.51Z" fill="none"/></clipPath><clipPath id="b43dd331-a46a-4672-9aa4-27476f2e2a07"><path id="b9b87486-c1b2-4b94-a21f-6fa3aaa03063" data-name="SVGID" d="M302.5,570.67v4.63a3.08,3.08,0,0,1-.09.75,3.14,3.14,0,0,1-3,2.35H189.46A3.16,3.16,0,0,1,186.4,576a3.82,3.82,0,0,1-.08-.75v-4.63Z" fill="none"/></clipPath><clipPath id="b2224f86-e39f-45d7-a20a-50f2b2610fef"><path id="a288ac13-4c3c-4c77-88ea-48592210042b" data-name="SVGID" d="M333.26,638.15c-7.48,7.8-31.45,9.36-41.46,7.08-2.73-.63-12.68-1-20.09-3.64-4-1.41-7.25-3.5-8.25-6.65-2.87-9,22.44-26.11,22.44-26.11s16.14,3.11,19.49,3.91a63.5,63.5,0,0,0,11.88,1.64c7.68.34,12.87-.69,18.49,1.73C342.14,618.86,342.22,628.8,333.26,638.15Z" fill="none"/></clipPath><clipPath id="a1335575-5a76-4a8d-9430-2df6b7aeb87a"><path id="a5a2af75-bb3d-49e9-975f-f5589c2f93c1" data-name="SVGID" d="M287.81,604.7c-2.41,16.31-27.56,34-27.56,34s-7-6.53-9.27-6.26-11.88-.41-11.88-.41-75.75-28.36-84.84-28.51c-5.68-.08-22-5.06-30.15-18-4.82-7.66-6.71-18.14-1.73-32,8.21-22.93,48.67-6,88.34,15.87,13.17,7.29,24.83,13.13,34.3,17.58,15.71,7.4,25.27,11,25.27,11l5.25-1.88Z" fill="none"/></clipPath><clipPath id="a9448ca0-ee44-4644-8873-4f8bdb69dbe8"><circle id="bae34061-5ba7-45d9-a60c-fa663a9520c9" data-name="SVGID" cx="366.83" cy="199.71" r="58.6" fill="#fff"/></clipPath></defs><rect x="280.89" y="83.1" width="370.18" height="512.03" rx="33.36" fill="#ccc"/><rect x="383.62" y="69.45" width="175.08" height="54.58" rx="23.22" fill="#ccc"/><rect x="383.62" y="69.45" width="175.08" height="54.58" rx="23.22" opacity="0.2"/><path d="M466.11,24.22H475a25.41,25.41,0,0,1,25.41,25.41V98.35a7.23,7.23,0,0,1-7.23,7.23H447.93a7.23,7.23,0,0,1-7.23-7.23V49.64A25.41,25.41,0,0,1,466.11,24.22Z" fill="#ccc"/><circle cx="470.48" cy="52.29" r="11.84" fill="#fff"/><rect x="447.65" y="158.02" width="179.98" height="19.31" rx="8.22" opacity="0.2"/><rect x="447.65" y="194.16" width="179.98" height="19.31" rx="8.22" opacity="0.2"/><rect x="447.65" y="233.29" width="179.98" height="19.31" rx="8.22" opacity="0.2"/><rect x="311.7" y="289.98" width="129" height="14.8" rx="6.3" opacity="0.2"/><path d="M609,359.11l-230.14,1.2a7.4,7.4,0,0,1-7.41-7.4h0a7.4,7.4,0,0,1,7.41-7.4L609,344.31a7.4,7.4,0,0,1,7.4,7.4h0A7.4,7.4,0,0,1,609,359.11Z" opacity="0.2"/><path d="M619.88,395.82,379.18,397a7.59,7.59,0,0,1-7.75-7.4h0a7.59,7.59,0,0,1,7.75-7.41l240.7-1.2a7.58,7.58,0,0,1,7.74,7.4h0A7.58,7.58,0,0,1,619.88,395.82Z" opacity="0.2"/><path d="M619.88,435.57l-240.7,1.2a7.59,7.59,0,0,1-7.75-7.4h0a7.59,7.59,0,0,1,7.75-7.41l240.7-1.2a7.58,7.58,0,0,1,7.74,7.41h0A7.58,7.58,0,0,1,619.88,435.57Z" opacity="0.2"/><path d="M619.88,473.19l-240.7,1.21a7.59,7.59,0,0,1-7.75-7.41h0a7.59,7.59,0,0,1,7.75-7.4l240.7-1.2a7.57,7.57,0,0,1,7.74,7.4h0A7.57,7.57,0,0,1,619.88,473.19Z" opacity="0.2"/><path d="M619.88,514.94l-240.7,1.2a7.58,7.58,0,0,1-7.75-7.4h0a7.58,7.58,0,0,1,7.75-7.4l240.7-1.2a7.57,7.57,0,0,1,7.74,7.4h0A7.57,7.57,0,0,1,619.88,514.94Z" opacity="0.2"/><path d="M619.88,552.65l-240.7,1.21a7.59,7.59,0,0,1-7.75-7.41h0a7.58,7.58,0,0,1,7.75-7.4l240.7-1.2a7.57,7.57,0,0,1,7.74,7.4h0A7.57,7.57,0,0,1,619.88,552.65Z" opacity="0.2"/><circle cx="337.1" cy="352.63" r="9.53" opacity="0.2"/><circle cx="337.1" cy="389.01" r="9.53" opacity="0.2"/><circle cx="337.1" cy="428.77" r="9.53" opacity="0.2"/><circle cx="337.71" cy="466.39" r="9.53" opacity="0.2"/><circle cx="337.71" cy="508.14" r="9.53" opacity="0.2"/><circle cx="337.71" cy="545.85" r="9.53" opacity="0.2"/><path d="M549.77,629.05s-8.25,11.67.3,15.59,84.22-5.12,119.63-5.46,54.77-13.71,54-17.76-9.39-11.76-9.39-11.76l-6,7s6.4,1.92,6.22,4.89-23.64,12.65-53.14,8.57-92.4,8.56-97.38,8-.22-11.71-.22-11.71Z" fill="#2f2e41"/><path d="M668.58,633.7c-46.53,3.23-123.83,2.14-123.83,2.14-39.9-2.91-47.41-16.07-41.18-31.05,9.7-23.06,52.3-50.42,60.07-51.06,12.81-1,26.29,4,26.29,4l8.33-1.75c-2.56-6.91,23.77-22.29,35.8-15.65s36.9-2.47,44.4,2.2a17.65,17.65,0,0,1,5,4.91A29.55,29.55,0,0,1,687.87,558H688a26.69,26.69,0,0,1,5.76-.9c4.13-.22,9.62.41,13.93,4.16a41.88,41.88,0,0,1,3.14,3.11c7.76,8.48,17.76,24.51,20.06,33.86C733.56,608.82,715.09,630.46,668.58,633.7Z" fill="#2f2e41"/><g clip-path="url(#fe924f5b-4f51-4acd-bf55-ef1c9f05696e)"><path d="M628.69,547.65c-2.27-4,26.37-2.11,29.41,0s3,8.68,6.34,6.9c2.62-1.41,12.63-6.83,19-7.06A29.55,29.55,0,0,1,687.87,558s-39.4,11.13-41.93,8.17,7.09-5.42,10.13-11.91-9.12-4.72-11.65-4.67S631,551.62,628.69,547.65Z" opacity="0.2" style="isolation:isolate"/><path d="M668.58,633.7c-46.53,3.23-123.83,2.14-123.83,2.14-39.9-2.91-47.41-16.07-41.18-31.05,1.54,1.21,4.18,1.74,8.51.91,14.23-2.74,22.33-3.5,31.47,5.13s19.52,13.86,24.34,12.17c0,0,.67-19,19.22-32.71s22.92-9.79,26.63-13.42,5.89-10.25-4.74-14-15.82-5.12-15.82-5.12,11.72-.91,21.86,3.63,19,15.38,14.7,17.83,6.33,6.8,13.68,5.63c6.51-1.05,28.12-1.16,32.45-1.34-3.85.82-21,6.19-21,10.31,0,0,5.3,8.72,5.26,18.57s11.54,11.11,16.55,7.42,6.06-8.75,4.16-18.39-7.2-10.35-14.09-8.85c0,0,8.86-5.34,11.66-3.58s10.63,1,12.16,9.38-3.85,15.21-1.29,17.49,17.24-.25,19.77-5.12.86-32.77-1.58-33.32-14.69,3.17-15,3.27a9.89,9.89,0,0,1,7.49-6.41c4.51-.79,10.07-5.22,11-10.07,7.76,8.49,17.76,24.51,20.06,33.87C733.56,608.82,715.09,630.46,668.58,633.7Z" opacity="0.2" style="isolation:isolate"/></g><path d="M615,543s16.19,6.83,25.33,6.7,19.78-.81,15.72,4.6a84,84,0,0,0-5.06,7.21" fill="none" stroke="#263238" stroke-linecap="round" stroke-linejoin="round"/><path d="M565.71,573.13l-.52-5.83a1.33,1.33,0,0,1,1-1.42l13.61-3a1.27,1.27,0,0,1,1.57.9,1.09,1.09,0,0,1,0,.26l.55,5.51a1.37,1.37,0,0,1-1,1.44l-13.65,3.29a1.28,1.28,0,0,1-1.59-.87A1.54,1.54,0,0,1,565.71,573.13Z" opacity="0.2" style="isolation:isolate"/><polygon points="570.66 566.72 578.01 567.99 576.37 568.97 568.51 567.84 570.66 566.72" fill="#263238"/><path d="M585.74,559.61a15.37,15.37,0,0,1,9-3.62c4.93,0,8.74,1.52,8.23,1.82s-8.36,1.83-9.82,3.6Z" fill="#263238"/><path d="M512.63,621.45s-16,5.21-7.36,11.3,20.29,4.82,29.78-1.28l1-5.7a38.77,38.77,0,0,0-10.76,3.3c-4.94,2.57-16.48,0-15.72-1.41a3.43,3.43,0,0,1,2.79-1.39Z" fill="#2f2e41"/><path d="M122.32,564.37s-.62,27.82,45.46,48.34,171.28,30.48,194.09-41.8l-70.95-20.37H195.74l-21,9.51Z" fill="#2f2e41"/><g clip-path="url(#a72d1bb2-d934-4f6b-933c-74fd1501df6d)"><path d="M122.32,564.37s-.62,27.82,45.46,48.34,171.28,30.48,194.09-41.8l-70.95-20.37H195.74l-21,9.51Z" opacity="0.2" style="isolation:isolate"/></g><path d="M176.4,442.19c-8.35,7.46-37.34,91.78-33.59,101s52.91,17.6,52.91,17.6-4.86-95.2-5.11-96.79S176.4,442.19,176.4,442.19Z" fill="#686175" data-primary="true"/><path d="M306.61,442.19C315,449.65,344,534,340.2,543.17s-52.91,17.6-52.91,17.6,4.86-95.2,5.11-96.79S306.61,442.19,306.61,442.19Z" fill="#686175" data-primary="true"/><path d="M176.4,442.19s19.29-21.79,64.9-23.08c36.64-1.08,61.73,17.11,65.31,23.08s-16.3,85.56-16.3,85.56l11.13,42.85s-59.7,19.89-113,0l7.16-45.24S176.8,453.34,176.4,442.19Z" fill="#686175" data-primary="true"/><path d="M302.5,570.67v4.63a3.08,3.08,0,0,1-.09.75,3.14,3.14,0,0,1-3,2.35H189.46A3.16,3.16,0,0,1,186.4,576a3.82,3.82,0,0,1-.08-.75v-4.63Z" fill="#686175" data-primary="true"/><g clip-path="url(#b43dd331-a46a-4672-9aa4-27476f2e2a07)"><path d="M302.5,570.67v4.63a3.08,3.08,0,0,1-.09.75h-116a3.67,3.67,0,0,1-.08-.75v-4.63Z" opacity="0.2" style="isolation:isolate"/></g><path d="M302.5,570.67v4.63a3.08,3.08,0,0,1-.09.75,3.14,3.14,0,0,1-3,2.35H189.46A3.16,3.16,0,0,1,186.4,576a3.82,3.82,0,0,1-.08-.75v-4.63Z" fill="#ccc"/><path d="M301.41,573.76h-114a2.3,2.3,0,0,1-2.31-1.78l-9.9-79.9a2.16,2.16,0,0,1,1.85-2.43,1.08,1.08,0,0,1,.31,0H311.47a2.15,2.15,0,0,1,2.18,2.14c0,.1,0,.2,0,.31l-9.9,79.9A2.27,2.27,0,0,1,301.41,573.76Z" fill="#ccc"/><path d="M187.86,571.48l-9.72-76.59a1.57,1.57,0,0,1,1.41-1.73H309.12a1.59,1.59,0,0,1,1.56,1.61.57.57,0,0,1,0,.13L301,571.48" fill="#fff" opacity="0.2" style="isolation:isolate"/><polygon points="245.7 538.66 233.99 538.66 247.59 524.4 241.28 535.72 245.7 538.66" fill="#ccc"/><polygon points="241.11 546.13 255.56 532.19 244.12 532.19 248.22 535.21 241.11 546.13" fill="#ccc"/><path d="M339.2,619.23l3.45,3.93s3.24,7.36-5.71,16.38-32.15,10.8-41.18,9.23l-5.69.77-19.36-4.19s-9.81-4.8-5.8-13.21S339.2,619.23,339.2,619.23Z" fill="#2f2e41"/><path d="M333.26,638.15c-7.48,7.8-31.45,9.36-41.46,7.08-2.73-.63-12.68-1-20.09-3.64-4-1.41-7.25-3.5-8.25-6.65-2.87-9,22.44-26.11,22.44-26.11s16.14,3.11,19.49,3.91a63.5,63.5,0,0,0,11.88,1.64c7.68.34,12.87-.69,18.49,1.73C342.14,618.86,342.22,628.8,333.26,638.15Z" fill="#686175" data-primary="true"/><g clip-path="url(#b2224f86-e39f-45d7-a20a-50f2b2610fef)"><path d="M317.23,614.38c-5.77,9.42-20.16,27.49-45.52,27.21-4-1.41-7.25-3.5-8.25-6.65-2.87-9,22.44-26.11,22.44-26.11s16.14,3.11,19.49,3.91A63.09,63.09,0,0,0,317.23,614.38Z" opacity="0.2" style="isolation:isolate"/></g><path d="M287.81,604.7c-2.41,16.31-27.56,34-27.56,34s-7-6.53-9.27-6.26-11.88-.41-11.88-.41-75.75-28.36-84.84-28.51c-5.68-.08-22-5.06-30.15-18-4.82-7.66-6.71-18.14-1.73-32,8.21-22.93,48.67-6,88.34,15.87,13.17,7.29,24.83,13.13,34.3,17.58,15.71,7.4,25.27,11,25.27,11l5.25-1.88Z" fill="#2f2e41"/><g clip-path="url(#a1335575-5a76-4a8d-9430-2df6b7aeb87a)"><g opacity="0.1"><path d="M287.81,604.7c-2.41,16.31-27.56,34-27.56,34s-7-6.53-9.27-6.26-11.88-.41-11.88-.41-75.75-28.36-84.84-28.51c-5.68-.08-22-5.06-30.15-18,9.51.71,25.72,2.29,33.47,5.19,0,0-8.64,2.16-6.26,4.23s37.06,6.15,49.26,3.08c11-2.78,33.06-10.28,44.46-11.08,15.71,7.4,25.27,11,25.27,11l5.25-1.88Z" fill="#fff" opacity="0.2" style="isolation:isolate"/></g></g><path d="M220.73,588.93c2.69-.46,5.4-1,8-1.7" fill="none" stroke="#263238" stroke-linecap="round" stroke-linejoin="round"/><path d="M147.4,620.74l-3.49,3.93s-3.24,7.37,5.7,16.38,32.16,10.8,41.19,9.23l3.68.5a11.5,11.5,0,0,0,4-.16l17.36-3.73s9.84-4.78,5.81-13.2S147.4,620.74,147.4,620.74Z" fill="#2f2e41"/><path d="M200.71,610.34s-16.14,3.11-19.5,3.9c-15,3.54-22.23-.1-30.32,3.38-6.42,2.75-6.48,12.69,2.45,22,7.48,7.81,31.45,9.36,41.46,7.08,4.2-1,25.48-1.33,28.35-10.3S200.71,610.34,200.71,610.34Z" fill="#686175" data-primary="true"/><path d="M362.64,553.4c-8.26-22.92-48.68-5.95-88.29,16-35,19.44-59.53,28.65-59.53,28.65l-5.25-1.86-12.26,8.64c2.44,16.3,27.64,34,27.64,34s6.94-6.56,9.25-6.29,11.88-.43,11.88-.43,75.76-28.49,84.79-28.65S376.06,590.7,362.64,553.4Z" fill="#2f2e41"/><path d="M252.73,612.25c2.16.16,4.39.24,6.58.25" fill="none" stroke="#263238" stroke-linecap="round" stroke-linejoin="round"/><path d="M304,583.22c15.49,2.95,32.72,5.65,48.32,2" fill="none" stroke="#263238" stroke-linecap="round" stroke-linejoin="round"/><path d="M292.09,580.63c2.16.55,4.38,1.08,6.6,1.52" fill="none" stroke="#263238" stroke-linecap="round" stroke-linejoin="round"/><path d="M573.07,299.6a59.66,59.66,0,0,0,4.3,13.73,170.44,170.44,0,0,0,29.4,44.75c11,12.07,22.29,24,32.09,30.44a23,23,0,0,0,25.4,0c10.36-6.9,22.36-19.42,34.08-32.3a211.85,211.85,0,0,0,26.49-35.78,73.56,73.56,0,0,0,8.71-23.93c5-27.83,9.17-55.66,14.34-83.48a6,6,0,0,0-3.41-6.53,463.56,463.56,0,0,1-49.9-26.57c-14-8.66-25.25-20.46-36.34-29a7.61,7.61,0,0,0-10,.68c-25.68,25.48-73.76,53.29-87.14,60.9a5.86,5.86,0,0,0-2.87,6.12Z" fill="#f48225" data-secondary="true"/><path d="M588.08,295.08a48.61,48.61,0,0,0,3.52,11.18,138.76,138.76,0,0,0,24,36.45c9,9.83,18.24,19.52,26.25,24.79a18.88,18.88,0,0,0,20.78,0c8.47-5.63,18.28-15.82,27.87-26.31A171.89,171.89,0,0,0,712.2,312a59.62,59.62,0,0,0,7.13-19.49c4.07-22.66,7.49-45.32,11.72-68a4.89,4.89,0,0,0-2.78-5.31,379,379,0,0,1-40.82-21.64c-11.4-7.05-20.64-16.66-29.72-23.6a6.26,6.26,0,0,0-8.17.56c-21,20.75-60.32,43.4-71.27,49.6a4.77,4.77,0,0,0-2.35,5Z" fill="#fff" opacity="0.2"/><circle cx="655.73" cy="258.31" r="31.67" fill="#f48225" data-secondary="true"/><polygon points="639.47 251.4 655.73 282.3 672.08 235.95 651.68 262.73 639.47 251.4" fill="#fff"/><ellipse cx="269.04" cy="385.8" rx="8.84" ry="5.3" transform="translate(-182.12 518.77) rotate(-71.53)" fill="#f9b499"/><ellipse cx="216.15" cy="385.8" rx="5.3" ry="8.84" transform="translate(-110.89 88.13) rotate(-18.43)" fill="#f9b499"/><path d="M264.74,426.21s-10.26,10.1-22.68,10.1-24.27-11.7-24.27-11.7,6.4-3.18,8.12-9.56a9.56,9.56,0,0,0,.26-1.18c.46-2.8-.28-7.56-1.36-12.26-1.7-7.39-4.21-14.8-4.21-14.8h40.11s-1.9,9.25-3.15,17.78c-.23,1.57-.44,3.1-.61,4.56s-.33,3-.41,4.32C256.05,422.51,264.74,426.21,264.74,426.21Z" fill="#f9b499"/><path d="M257.61,404.56c-.23,1.57-.44,3.1-.6,4.56-4,4.13-10.8,9.82-17.28,10C235,419.28,230,417.25,226,415a9.4,9.4,0,0,0,.26-1.17c.47-2.8-.28-7.56-1.36-12.26Z" fill="#f4a58c"/><ellipse cx="242.12" cy="380.32" rx="25.56" ry="33.95" fill="#f9b499"/><path d="M256.27,357.24a39.08,39.08,0,0,0,4.49,11.93c3.24,5.17,7.07,5.7,8.16,12,0,0,9.94-16.77,1.53-31.5,0,0-2.65-16.72-28.6-16.72S203.87,351,214,378.81a15,15,0,0,0,9-12.22,14.85,14.85,0,0,1-2.67,10.72s13.37-2,16.84-13.12c0,0-1.35,7.41-5.81,10.55,0,0,5,6.37,10.79-3.59S251.3,355.24,256.27,357.24Z" fill="#2f2e41"/><path d="M257.12,353.59a48.71,48.71,0,0,1-29.55,0s-5.17-.31-7.21,2.3,0,10.62.54,13.89-4.49,5.53-3.81,13.79l-.68,3.12s-5.57-14.19-4.21-25.62,7.48-15.25,7.48-15.25S223,336,242.26,336c20.78.09,22.88,11.34,22.88,11.34s12.95,9.71,2.5,40.39l-1.08-4.18A17.2,17.2,0,0,0,263.93,372c-1.82-2.64,1.08-10.61.41-14.69S257.12,353.59,257.12,353.59Z" fill="#2f2e41"/><circle id="f730f894-4efb-46ee-bf8a-1b1878dcdd96" data-name="SVGID" cx="366.83" cy="199.71" r="58.6" fill="#fff"/><g clip-path="url(#a9448ca0-ee44-4644-8873-4f8bdb69dbe8)"><ellipse cx="397.67" cy="212.76" rx="10.31" ry="6.18" transform="translate(69.9 522.55) rotate(-71.53)" fill="#f9b499"/><ellipse cx="335.98" cy="212.76" rx="6.18" ry="10.31" transform="translate(-50.03 117.13) rotate(-18.43)" fill="#f9b499"/><path d="M392.66,259.9s-12,11.78-26.45,11.78S337.89,258,337.89,258s7.47-3.72,9.47-11.16a10.8,10.8,0,0,0,.3-1.37c.55-3.27-.32-8.82-1.58-14.3-2-8.63-4.91-17.27-4.91-17.27H388s-2.22,10.8-3.68,20.75c-.26,1.82-.51,3.61-.7,5.31s-.39,3.53-.48,5C382.52,255.58,392.66,259.9,392.66,259.9Z" fill="#f9b499"/><path d="M384.35,234.65c-.27,1.83-.52,3.61-.71,5.31-4.71,4.83-12.6,11.47-20.15,11.69-5.53.17-11.34-2.2-16.05-4.81a10.8,10.8,0,0,0,.3-1.37c.54-3.26-.33-8.82-1.59-14.3Z" fill="#f4a58c"/><path d="M358.89,182c-1.89,2.71-4.55,6.89-8.39,6.49" fill="none" stroke="#fff" stroke-linecap="round" stroke-linejoin="round" opacity="0.2" style="isolation:isolate"/><path d="M338.72,173a11.55,11.55,0,0,1-4.34,2.45" fill="none" stroke="#fff" stroke-linecap="round" stroke-linejoin="round" opacity="0.2" style="isolation:isolate"/><ellipse cx="366.27" cy="206.36" rx="29.82" ry="39.61" fill="#f9b499"/><path d="M382.78,179.44A45.47,45.47,0,0,0,388,193.36c3.78,6,8.24,6.65,9.51,14,0,0,11.61-19.57,1.79-36.75,0,0-3.08-19.5-33.36-19.5s-44.31,21.1-32.54,53.5a17.55,17.55,0,0,0,10.45-14.26,17.24,17.24,0,0,1-3.11,12.5s15.6-2.3,19.64-15.3c0,0-1.57,8.64-6.78,12.31,0,0,5.89,7.43,12.6-4.19S377,177.11,382.78,179.44Z" fill="#2f2e41"/><path d="M383.77,175.18a56.66,56.66,0,0,1-34.47,0s-6-.35-8.41,2.68,0,12.4.63,16.21-5.24,6.45-4.45,16.09l-.79,3.64s-6.5-16.55-4.92-29.89,8.73-17.79,8.73-17.79,3.85-11.51,26.34-11.43c24.25.1,26.7,13.22,26.7,13.22s15.11,11.34,2.92,47.13l-1.26-4.88a20.09,20.09,0,0,0-3.07-13.55c-2.12-3.09,1.25-12.39.47-17.15S383.77,175.18,383.77,175.18Z" fill="#2f2e41"/><g opacity="0.2" style="isolation:isolate"><path d="M361.67,178.43a.31.31,0,0,1-.2-.07.34.34,0,0,1-.08-.49c.88-1.23,8.84-12,15.25-11.44,2.14.18,3.86,1.57,5.12,4.14a.34.34,0,0,1-.16.47.36.36,0,0,1-.47-.16c-1.14-2.33-2.67-3.6-4.55-3.75-6-.51-13.76,10-14.62,11.15A.35.35,0,0,1,361.67,178.43Z" fill="#3f3d56"/></g><g opacity="0.2" style="isolation:isolate"><path d="M342.21,170.3a.35.35,0,0,1-.23-.61c7.41-6.52,22.83-20.08,33.51-8.9a.35.35,0,1,1-.5.49c-10.22-10.7-24.75,2.07-32.55,8.94A.38.38,0,0,1,342.21,170.3Z" fill="#3f3d56"/></g><g opacity="0.2" style="isolation:isolate"><path d="M399.32,182.8a.35.35,0,0,1-.34-.31,22.23,22.23,0,0,0-3.25-9,.35.35,0,0,1,.11-.49.35.35,0,0,1,.48.11,22.85,22.85,0,0,1,3.35,9.3.35.35,0,0,1-.3.4Z" fill="#3f3d56"/></g><g opacity="0.2" style="isolation:isolate"><path d="M392.66,170.38a.37.37,0,0,1-.18,0,8,8,0,0,0-4.45-1.21.37.37,0,0,1-.36-.34.35.35,0,0,1,.35-.36,8.73,8.73,0,0,1,4.82,1.31.35.35,0,0,1,.12.48A.35.35,0,0,1,392.66,170.38Z" fill="#3f3d56"/></g><g opacity="0.2" style="isolation:isolate"><path d="M384.9,163.7l-.12,0a.35.35,0,0,1-.21-.45c.05-.12,1.09-2.83,3.26-3.32,1.27-.29,2.63.25,4,1.6a.35.35,0,1,1-.49.51c-1.22-1.18-2.36-1.66-3.38-1.43-1.8.4-2.75,2.86-2.76,2.89A.35.35,0,0,1,384.9,163.7Z" fill="#3f3d56"/></g></g></svg>