<svg id="f4202fb5-b0b2-4221-b452-f08c49f987bb" data-name="Layer 1" xmlns="http://www.w3.org/2000/svg" width="865.76" height="682.89" viewBox="0 0 865.76 682.89"><polygon points="676.38 552.26 676.97 536.53 660.82 533 661.77 551.85 676.38 552.26" fill="#f9b499"/><path d="M659.64,547.77l.45,19.54s-14.64-1.21-17.23,5.72l-.36,4.11,36.29,3.18.36-4.11.35-26.69Z" fill="#f48225" data-secondary="true"/><line x1="660.09" y1="567.31" x2="661.82" y2="571.55" fill="none" stroke="#000" stroke-miterlimit="10" stroke-width="0.5" opacity="0.2"/><line x1="656.95" y1="567.34" x2="658.62" y2="571.27" fill="none" stroke="#000" stroke-miterlimit="10" stroke-width="0.5" opacity="0.2"/><path d="M653.93,567.4s1.27,3.14,1.42,3.58" fill="none" stroke="#000" stroke-miterlimit="10" stroke-width="0.5" opacity="0.2"/><polygon points="731.75 546.62 727.46 531.48 711.01 533.09 719.09 551.54 731.75 546.62" fill="#f9b499"/><path d="M741.75,568.56l-7.89-25.51-19.43,4.46L720.88,566s-14.31,3.36-14.63,10.74l.92,4,35.5-8.14Z" fill="#f48225" data-secondary="true"/><line x1="720.88" y1="565.96" x2="723.83" y2="569.46" fill="none" stroke="#000" stroke-miterlimit="10" stroke-width="0.5" opacity="0.2"/><line x1="717.9" y1="566.95" x2="720.7" y2="570.18" fill="none" stroke="#000" stroke-miterlimit="10" stroke-width="0.5" opacity="0.2"/><path d="M715,567.94s2.18,2.59,2.46,3" fill="none" stroke="#000" stroke-miterlimit="10" stroke-width="0.5" opacity="0.2"/><polygon points="147.29 646.95 147.35 633.34 161.43 630.88 159.92 647.13 147.29 646.95" fill="#f9b499"/><polygon points="111.47 644.34 115.71 631.41 129.86 633.39 123.43 648.39 111.47 644.34" fill="#f9b499"/><rect x="151.45" y="14.48" width="640.92" height="487.48" fill="#ccc"/><path d="M110.22,638.31,128.8,640l50.66-99.61a29,29,0,0,0,3-8.91l8.29-50.65-26.22,5Z" fill="#2f2e41"/><path d="M110.22,638.31,128.8,640l50.66-99.61a29,29,0,0,0,3-8.91l8.29-50.65-26.22,5Z" opacity="0.2"/><path d="M80.11,499.38l-5.75,8.81a5.92,5.92,0,0,0,2,8.36h0a5.92,5.92,0,0,0,8.51-3.08l.3-.82v3.21A1.75,1.75,0,0,0,87,517.61h0a1.75,1.75,0,0,0,1.66-1.75V504.62Z" fill="#f9b499"/><path d="M233,236.38l10.21,10.79s-48.37,21.62-48,53.14c0,0,.41,14.69,17.27,20.06a34.45,34.45,0,0,0,21.73-.46c10.53-3.66,28.9-12.07,41.65-29.12l6.8,8.16s-25.46,30.8-59.9,40.39C208,343.44,192,339,182.24,327.21c-6-7.25-10.27-17.86-8.66-33.25C173.58,294,177.89,251.14,233,236.38Z" fill="#a7a9ac"/><path d="M237.64,236.33l2.51-.31a.23.23,0,0,1,.22.1L250.83,249a1.85,1.85,0,0,1-.92,2.94c-8,2.34-31.93,10.47-42.07,27.36-.4.67-.79,1.34-1.21,2-2.29,3.5-11.86,20.31,3.77,35.12,0,0-17.79-5.19-10.2-28.91,0,0,4.27-20.92,46.73-38.8l-9.45-12A.25.25,0,0,1,237.64,236.33Z" fill="#a7a9ac"/><path d="M277.84,289.48l7.64,9.81s-33.32,39.4-69.2,43.52c0,0,30.93,3.75,72.07-40.78a2.24,2.24,0,0,0,.13-2.85l-8.68-11.46Z" fill="#a7a9ac"/><path d="M180.87,309.83s-1.32-11.32-6.42-11.36a2,2,0,0,0-2,2.24c.49,4.54,2.38,17.44,8.71,25l11.63,1.9s-1.22-35.69-11.91-19.59" fill="#f9b499"/><rect x="151.45" y="14.81" width="640.92" height="43.55" opacity="0.2"/><circle cx="175.64" cy="35.72" r="5.03" fill="#ccc"/><circle cx="190.23" cy="35.72" r="5.03" fill="#ccc"/><circle cx="204.82" cy="35.72" r="5.03" fill="#ccc"/><g opacity="0.2"><path id="be6ee739-de6a-45ed-911f-06e17d790264" data-name="path2998" d="M226,98.25H211.59v4.29h10.25c-.51,6-5.51,8.58-10.23,8.58a11.46,11.46,0,0,1,0-22.91,11.14,11.14,0,0,1,7.73,3.1l3-3.11a15.3,15.3,0,0,0-10.88-4.28,15.75,15.75,0,1,0,.23,31.49c8.43,0,14.6-5.77,14.6-14.32a12.9,12.9,0,0,0-.26-2.84Z"/><path id="b1530378-1d7f-4620-95d4-be1aa017a06e" data-name="path3000" d="M237.87,95.15A10.12,10.12,0,1,0,248,105.31a10,10,0,0,0-10.16-10.16Zm.06,4a6.16,6.16,0,1,1-5.79,6.13,5.82,5.82,0,0,1,5.79-6.13Z"/><path id="a7bee591-581b-48e0-91cb-776c21dbeec9" data-name="path3005" d="M260,95.15a10.12,10.12,0,1,0,10.16,10.16A10,10,0,0,0,260,95.15Zm.06,4a6.16,6.16,0,1,1-5.8,6.13,5.82,5.82,0,0,1,5.8-6.13Z"/><path id="a469e722-8332-4f3f-8076-e7bdee5fc2ff" data-name="path3007" d="M281.72,95.16a10.14,10.14,0,0,0-.1,20.25,6.72,6.72,0,0,0,5.56-2.46v2c0,3.5-2.12,5.59-5.33,5.59a5.61,5.61,0,0,1-5.18-3.61l-3.89,1.63a9.74,9.74,0,0,0,9.11,6c5.41,0,9.53-3.4,9.53-10.55V95.77h-4.24v1.71a7.19,7.19,0,0,0-5.46-2.32Zm.39,4c2.67,0,5.41,2.27,5.41,6.17s-2.73,6.13-5.47,6.13a5.76,5.76,0,0,1-5.6-6.1,5.84,5.84,0,0,1,5.66-6.2Z"/><path id="a95afbde-9af4-490a-971b-6aec10c00b1d" data-name="path3011" d="M310.29,95.13c-5.13,0-9.44,4.09-9.44,10.11a9.79,9.79,0,0,0,9.94,10.16,10.27,10.27,0,0,0,8.48-4.44l-3.5-2.33a5.67,5.67,0,0,1-5,2.79,5.21,5.21,0,0,1-5-3.07l13.58-5.63-.71-1.65a9.16,9.16,0,0,0-8.42-5.94Zm.18,3.9a4,4,0,0,1,3.75,2.16L305.15,105a5.63,5.63,0,0,1,5.32-6Z"/><path id="a0e50db9-0d7e-4f0c-8eb3-5ed4dc605817" data-name="path3015" d="M294.38,114.8h4.46V85h-4.46Z"/></g><rect x="263.03" y="145.11" width="479.98" height="36.01" rx="16.4" opacity="0.2"/><path d="M717.68,167.8a9.53,9.53,0,0,1-3.74-3.8,1.3,1.3,0,0,1,.22-1.51h0a1.25,1.25,0,0,1,1.91.15c1.44,2.07,4.86,5.38,10,.32a1.17,1.17,0,0,1,1.53-.11h0a1.16,1.16,0,0,1,.27,1.61,10.16,10.16,0,0,1-4.73,3.78A6.41,6.41,0,0,1,717.68,167.8Z" fill="#ccc"/><rect x="718.66" y="152.75" width="4.53" height="10.47" rx="2.06" fill="#ccc"/><rect x="719.78" y="168.48" width="2.3" height="3.23" fill="#ccc"/><circle cx="299.72" cy="242.68" r="13.04" fill="#a7a9ac"/><circle cx="299.78" cy="323.63" r="12.98" fill="#a7a9ac"/><path d="M298.39,328.62a.72.72,0,0,1-.51-.22L292.7,323a.7.7,0,0,1,0-1,.69.69,0,0,1,1,0l4.68,4.85,7.28-7.83a.69.69,0,0,1,1,0,.7.7,0,0,1,0,1l-7.78,8.37a.66.66,0,0,1-.51.23Z" fill="#ccc"/><circle cx="299.78" cy="406.18" r="12.98" fill="#a7a9ac"/><path d="M298.39,411.17a.72.72,0,0,1-.51-.22l-5.18-5.38a.7.7,0,0,1,0-1,.69.69,0,0,1,1,0l4.68,4.85,7.28-7.83a.69.69,0,0,1,1,0,.7.7,0,0,1,0,1L298.9,411a.69.69,0,0,1-.51.22Z" fill="#ccc"/><path d="M294.12,248.08a.74.74,0,0,1-.5-.2.72.72,0,0,1,0-1l10.68-10.67a.71.71,0,0,1,1,0,.72.72,0,0,1,0,1l-10.67,10.67A.74.74,0,0,1,294.12,248.08Z" fill="#ccc"/><path d="M305.45,248.74a.7.7,0,0,1-.5-.21l-11.33-11.32a.71.71,0,0,1,1-1l11.32,11.33a.69.69,0,0,1,0,1A.67.67,0,0,1,305.45,248.74Z" fill="#ccc"/><rect x="323.39" y="220.07" width="146.08" height="9.57" rx="2.67" fill="#a7a9ac"/><rect x="323.39" y="233.99" width="246.78" height="4.79" rx="2.18" opacity="0.2"/><rect x="323.39" y="245.59" width="268.06" height="3.14" rx="1.43" opacity="0.2"/><rect x="323.39" y="254.68" width="148.52" height="3.14" rx="1.43" opacity="0.2"/><rect x="476.87" y="254.68" width="79.51" height="3.14" rx="1.43" opacity="0.2"/><polygon points="483.6 218.46 485.09 221.49 488.43 221.97 486.02 224.32 486.59 227.65 483.6 226.08 480.62 227.65 481.19 224.32 478.77 221.97 482.11 221.49 483.6 218.46" fill="#a7a9ac"/><rect x="323.39" y="302.53" width="146.08" height="9.57" rx="2.67" fill="#a7a9ac"/><rect x="323.39" y="316.45" width="246.78" height="4.79" rx="2.18" opacity="0.2"/><rect x="323.39" y="328.06" width="268.06" height="3.14" rx="1.43" opacity="0.2"/><rect x="323.39" y="337.14" width="148.52" height="3.14" rx="1.43" opacity="0.2"/><rect x="476.87" y="337.14" width="79.51" height="3.14" rx="1.43" opacity="0.2"/><polygon points="483.6 302.72 485.09 305.74 488.43 306.23 486.02 308.58 486.59 311.91 483.6 310.34 480.62 311.91 481.19 308.58 478.77 306.23 482.11 305.74 483.6 302.72" fill="#a7a9ac"/><polygon points="499.05 302.72 500.54 305.74 503.88 306.23 501.46 308.58 502.04 311.91 499.05 310.34 496.07 311.91 496.64 308.58 494.22 306.23 497.56 305.74 499.05 302.72" fill="#a7a9ac"/><polygon points="513.39 302.72 514.88 305.74 518.22 306.23 515.81 308.58 516.38 311.91 513.39 310.34 510.41 311.91 510.98 308.58 508.56 306.23 511.9 305.74 513.39 302.72" fill="#a7a9ac"/><polygon points="528.49 302.72 529.98 305.74 533.32 306.23 530.9 308.58 531.47 311.91 528.49 310.34 525.5 311.91 526.07 308.58 523.66 306.23 527 305.74 528.49 302.72" fill="#a7a9ac"/><polygon points="542.62 302.72 544.11 305.74 547.45 306.23 545.03 308.58 545.6 311.91 542.62 310.34 539.64 311.91 540.21 308.58 537.79 306.23 541.13 305.74 542.62 302.72" fill="#a7a9ac"/><rect x="323.39" y="381.63" width="146.08" height="9.57" rx="2.67" fill="#a7a9ac"/><rect x="323.39" y="395.56" width="246.78" height="4.79" rx="2.18" opacity="0.2"/><rect x="323.39" y="407.16" width="268.06" height="3.14" rx="1.43" opacity="0.2"/><rect x="323.39" y="416.24" width="148.52" height="3.14" rx="1.43" opacity="0.2"/><rect x="476.87" y="416.24" width="79.51" height="3.14" rx="1.43" opacity="0.2"/><polygon points="483.6 381.83 485.09 384.85 488.43 385.33 486.02 387.69 486.59 391.01 483.6 389.44 480.62 391.01 481.19 387.69 478.77 385.33 482.11 384.85 483.6 381.83" fill="#a7a9ac"/><polygon points="499.05 381.83 500.54 384.85 503.88 385.33 501.46 387.69 502.04 391.01 499.05 389.44 496.07 391.01 496.64 387.69 494.22 385.33 497.56 384.85 499.05 381.83" fill="#a7a9ac"/><polygon points="513.39 381.83 514.88 384.85 518.22 385.33 515.81 387.69 516.38 391.01 513.39 389.44 510.41 391.01 510.98 387.69 508.56 385.33 511.9 384.85 513.39 381.83" fill="#a7a9ac"/><polygon points="528.49 381.83 529.98 384.85 533.32 385.33 530.9 387.69 531.47 391.01 528.49 389.44 525.5 391.01 526.07 387.69 523.66 385.33 527 384.85 528.49 381.83" fill="#a7a9ac"/><polygon points="542.62 381.83 544.11 384.85 547.45 385.33 545.03 387.69 545.6 391.01 542.62 389.44 539.64 391.01 540.21 387.69 537.79 385.33 541.13 384.85 542.62 381.83" fill="#a7a9ac"/><path d="M190.73,480.81c12.84-35.48-6-76.75-6-76.75,5.14-16.76,8.1-64.68,8.7-75.18a2.38,2.38,0,0,0-1.9-2.47L181,324.22a2.38,2.38,0,0,0-2.86,2.28c-1.05,49.38-22.53,64.7-22.53,64.7l-15.11,10.19c-13.54,4.29-28.1,25.82-35,37.17a96.81,96.81,0,0,0-6.4,12.55L79,498.67l10.71,6.54s24.49-50.37,37.87-59.95a4.17,4.17,0,0,1,6.25,1.74c3,6.89,9.4,23.84,6.63,39.59C140.48,486.59,177.15,487.1,190.73,480.81Z" fill="#686175" data-primary="true"/><path d="M718,342.79,596.08,366a3.76,3.76,0,0,0-3,4.46L598,394.38a3.76,3.76,0,0,0,4.33,2.94l114.76-20" fill="#fff"/><path d="M731.5,341.26l21.92-4.72a2.66,2.66,0,0,1,3.15,2l6.48,27.3a2.67,2.67,0,0,1-2.07,3.23l-26.77,5.31" fill="#fff"/><path d="M623.3,368.15l67.34-12.37a2,2,0,0,1,2.35,1.57h0a2,2,0,0,1-1.62,2.43L624,372a2,2,0,0,1-2.28-1.5h0A2,2,0,0,1,623.3,368.15Z" fill="#ccc"/><polygon points="625 376.64 715.06 359.25 715.35 361.8 625.88 378.91 625 376.64" fill="#ccc"/><polygon points="627.21 381.3 715.06 364.79 715.35 367.32 628.09 383.56 627.21 381.3" fill="#ccc"/><path d="M699.52,371.91l16.35-3,.29,2.54-16.22,2.77a1.21,1.21,0,0,1-1.32-.75h0A1.2,1.2,0,0,1,699.52,371.91Z" fill="#ccc"/><circle cx="609.8" cy="381.81" r="8.32" fill="#ccc"/><rect x="609.08" y="378.44" width="0.66" height="8.44" transform="translate(-107.48 320.41) rotate(-27.16)" fill="#fff"/><rect x="605.62" y="381.99" width="7.39" height="0.66" transform="matrix(0.94, -0.34, 0.34, 0.94, -92.98, 226.72)" fill="#fff"/><path d="M727.41,411.87c-2.87,1.58-5.71,5-8.31,9.07a66.89,66.89,0,0,0-8.47,50.54c6.64,29.74,20.87,68.33,20.87,68.33l-17,5.9L639.57,406.65" fill="#2f2e41"/><path d="M727.41,411.87c-2.87,1.58-5.71,5-8.31,9.07a66.89,66.89,0,0,0-8.47,50.54c6.64,29.74,20.87,68.33,20.87,68.33l-17,5.9L639.57,406.65" opacity="0.2"/><circle cx="284.51" cy="161.26" r="5.83" fill="#ccc"/><line x1="294.38" y1="170.8" x2="288.73" y2="165.28" fill="#ccc"/><path d="M137.27,402.48v-17.7l19.57,2,1.43,12.56a3.41,3.41,0,0,1-.38,2c-1.44,2.69-6.53,9-20.46,1.5A.32.32,0,0,1,137.27,402.48Z" fill="#f9b499"/><path d="M140.48,486.59l4.16,153.23h19.07L181.6,483.56c-8.22,1.46-17.14,1.4-26.7,2.18C149.46,486.19,145.51,486.46,140.48,486.59Z" fill="#2f2e41"/><path d="M639.57,406.65s0,67.87,21.16,138.06h18.49l-4.15-78.12L677,409.16Z" fill="#2f2e41"/><path d="M727.41,411.87l-109-6.65a2.3,2.3,0,0,1-2.15-2.38l.86-28.43a2.32,2.32,0,0,1,2.43-2.24l115.29,5.73" fill="#fff"/><path d="M727.41,411.87l14.85,1.46a2.74,2.74,0,0,0,3-2.72v-30a2.74,2.74,0,0,0-2.74-2.74h-8.27" fill="#fff"/><polygon points="641.42 381.08 694.09 383.56 694.09 386.88 641.42 384.42 641.42 381.08" fill="#ccc"/><polyline points="719.09 394.84 641.42 390.53 641.42 387.98 718.88 392.97" fill="#ccc"/><polyline points="719.61 399.44 641.42 394.84 641.42 392.02 719.09 397.38" fill="#ccc"/><polygon points="641.42 397.38 641.42 399.44 694.09 402.62 694.09 400.34 641.42 397.38" fill="#ccc"/><polygon points="695.79 400.34 695.79 402.41 729.67 404.98 729.67 402.7 695.79 400.34" fill="#ccc"/><circle cx="629.77" cy="389.25" r="8.32" fill="#ccc"/><rect x="629.05" y="385.88" width="0.66" height="8.44" transform="translate(-108.68 330.35) rotate(-27.16)" fill="#fff"/><rect x="625.59" y="389.43" width="7.39" height="0.66" transform="matrix(0.94, -0.34, 0.34, 0.94, -94.32, 233.85)" fill="#fff"/><path d="M727.91,400.57s5,18.65-9.64,19.23a1.58,1.58,0,0,1-1.19-.48l-2.91-2.93a1.62,1.62,0,0,1,.14-2.41c1.81-1.39,4.4-3.94,2.73-6.26a13.66,13.66,0,0,1-4.56,2.47,1.68,1.68,0,0,1-1.78-.87h0a1.74,1.74,0,0,1,.69-2.37c2.15-1.21,5.8-3.8,6.18-7.68" fill="#f9b499"/><path d="M704.74,304.42c-3.06,17,3,31.46,6.55,38.15a26.66,26.66,0,0,1,3,9.45l1.1,48.32,15.35,1.4c10.76-44.69-6.31-86.56-6.31-86.56-18-46.09-45.37-36.73-45.37-36.73l-20,.56s-42.89-8.55-46.64,83.86l100-19.08" fill="#f48225" data-secondary="true"/><path d="M122.08,658.47l3.48-14.06-14.65-1.94-4,19.38-.4,3,26.77,3.53.4-3C132.88,660,122.08,658.47,122.08,658.47Z" fill="#686175" data-primary="true"/><line x1="122.08" y1="658.47" x2="120.15" y2="661.26" fill="none" stroke="#000" stroke-miterlimit="10" stroke-width="0.5" opacity="0.2"/><line x1="124.35" y1="659" x2="122.51" y2="661.57" fill="none" stroke="#000" stroke-miterlimit="10" stroke-width="0.5" opacity="0.2"/><path d="M126.53,659.53s-1.43,2.06-1.61,2.36" fill="none" stroke="#000" stroke-miterlimit="10" stroke-width="0.5" opacity="0.2"/><path d="M172.82,663.42c-1.56-5.25-12.46-5.1-12.46-5.1l1.33-14.42-14.78.29L145.83,664l.06,3.06,27-.53Z" fill="#686175" data-primary="true"/><line x1="160.36" y1="658.32" x2="158.87" y2="661.37" fill="none" stroke="#000" stroke-miterlimit="10" stroke-width="0.5" opacity="0.2"/><line x1="162.69" y1="658.5" x2="161.26" y2="661.33" fill="none" stroke="#000" stroke-miterlimit="10" stroke-width="0.5" opacity="0.2"/><path d="M164.92,658.7s-1.1,2.26-1.23,2.58" fill="none" stroke="#000" stroke-miterlimit="10" stroke-width="0.5" opacity="0.2"/><polygon points="251.25 241.5 259.61 235.21 259.61 230.9 270.45 226.47 263.64 232.82 264.26 237.6 251.25 241.5" opacity="0.2"/><polygon points="286.29 288.25 294.65 281.95 294.65 277.65 305.49 273.22 298.68 279.56 299.3 284.35 286.29 288.25" opacity="0.2"/><path d="M156.84,386.73l.3,2.65s-7,3-16.06-2.67C141.08,386.71,151.61,391,156.84,386.73Z" fill="#f7a48b"/><ellipse cx="144.01" cy="372.58" rx="14.49" ry="19.34" transform="translate(-239.27 260.13) rotate(-52.52)" fill="#f9b499"/><path d="M137.37,389.3s-33.12-1.44-22-20.53c0,0-5.06-11.53,10-14.32,0,0,8.91-4,11.57-11.23a2,2,0,0,1,3.26-.64c1.83,1.94,4.51,4.83,5.47,7.93a2.15,2.15,0,0,0,1.49,1.41c2.26.63,6.51,2.71,5.65,9.16,0,0-11.33-8-21.62-.11-4.44,3.42-5.52,10-2.81,14.89.27.5,2.45,3.75,2.82,4.23,0,0-1,2.63-.29,2.68,0,0,.29,1.69,6.3,3Z" fill="#2f2e41"/><ellipse cx="133.89" cy="382.42" rx="3.42" ry="5.23" transform="translate(-264.24 307.17) rotate(-60)" fill="#f9b499"/><path d="M668.64,292.93a9.76,9.76,0,0,1-9.76-9.77l0-4.24L678,266.09c.08,2.25.15,4.55.18,6.89,0,2.92.06,7.54,0,10.32C677.12,288.85,673,292.93,668.64,292.93Z" fill="#f9b499"/><path d="M658.88,283.16v-2.45s11,.23,15.49-6.85C674.37,273.86,671.71,284.11,658.88,283.16Z" fill="#f7a48b"/><ellipse cx="661.26" cy="257.3" rx="17.91" ry="24.3" fill="#f9b499"/><path d="M674.08,235.06c-24.59-9-29.45,13.24-29.45,13.24,7,.71,12.74-3.69,12.74-3.69s3.88,13.45,19.39,12.69c0,0-2.38,7.6,1.2,8.79l.18,6.77v5.61a3.38,3.38,0,0,0,.7,0,6.39,6.39,0,0,0,.86-.18c3.67-.81,3.5-.35,6.83-.55,5.78.46,7.89,1.9,8.55,1.86,3.27,1.46,2.56,1.27,5.11,2.55a9.29,9.29,0,0,1,1,.55c5.9,3.83,9.19,7.89,13.29,13.32,0,0,16-10.21-3.08-23.05,0,0,7.76-6.86,4.48-11.93,0,0-1.41-7.88-14.88-6.69a21.19,21.19,0,0,1-7.8-.78,15.93,15.93,0,0,1-10.1-8.05S679.13,236.91,674.08,235.06Z" fill="#2f2e41"/><path d="M130.2,379s-8.45-25.26,22.63-17.9l-7.54-7.56-21.12,2.92-1.37,11.67Z" fill="#2f2e41"/></svg>