<svg id="baa36164-44b0-4800-812c-787913d6cbe0" data-name="Layer 1" xmlns="http://www.w3.org/2000/svg" width="865.76" height="682.89" viewBox="0 0 865.76 682.89"><rect x="245.22" y="91.45" width="376.15" height="492.26" fill="#d1d3d4"/><rect x="262.15" y="108.98" width="342.28" height="457.18" fill="#fff"/><path d="M358.92,78.72h0a2.55,2.55,0,0,0-2.55-2.55H345.93a6.7,6.7,0,0,0-6.69,6.69v28.53a7.28,7.28,0,0,0,7.28,7.28H515.33a5.31,5.31,0,0,0,5.31-5.31V83.55A6.68,6.68,0,0,0,514,76.86h-9.63a2.55,2.55,0,0,0-2.56,2.56h0A2.56,2.56,0,0,0,504.32,82h10v25.38a5.22,5.22,0,0,1-5.22,5.21H350.36a5.22,5.22,0,0,1-5.22-5.21V85.58a4.37,4.37,0,0,1,4.4-4.36l6.81,0A2.55,2.55,0,0,0,358.92,78.72Z" fill="#bcbec0"/><rect x="317.6" y="173.76" width="32.46" height="32.46" fill="#ccc"/><rect x="317.6" y="233.97" width="32.46" height="32.46" fill="#ccc"/><rect x="317.6" y="291.22" width="32.46" height="32.46" fill="#ccc"/><rect x="317.6" y="350.83" width="32.46" height="32.46" fill="#ccc"/><rect x="317.6" y="410.45" width="32.46" height="32.46" fill="#ccc"/><rect x="317.6" y="467.7" width="32.46" height="32.46" fill="#ccc"/><rect x="384.89" y="185.27" width="171.76" height="9.44" fill="#ccc"/><rect x="384.89" y="245.48" width="171.76" height="9.44" fill="#ccc"/><rect x="384.89" y="302.73" width="171.76" height="9.44" fill="#ccc"/><rect x="384.89" y="362.34" width="171.76" height="9.44" fill="#ccc"/><rect x="384.89" y="421.96" width="171.76" height="9.44" fill="#ccc"/><rect x="384.89" y="479.21" width="171.76" height="9.44" fill="#ccc"/><polygon points="223.11 538.75 250.9 543.25 293.99 254.92 264.48 250.2 223.11 538.75" fill="#bcbec0"/><polygon points="280.71 218.91 289.21 220.65 293.99 254.92 264.48 250.2 280.71 218.91" fill="#3f3d56"/><path d="M280.71,218.91l4.86-6.8a.84.84,0,0,1,1.49.27l2.15,8.27Z" fill="#2f2e41"/><polygon points="223.11 538.75 219.22 563.72 247.95 568.04 250.9 543.25 223.11 538.75" fill="#3f3d56"/><polygon points="244.9 589.69 247.95 568.04 219.22 563.72 216.47 584.18 244.9 589.69" fill="#ccc"/><polygon points="232.21 540.23 274.16 251.75 286.94 253.79 243.3 542.02 232.21 540.23" fill="#fff"/><path d="M189.73,608s12.74,9.18,16.21,11.32,9.09,1.95,6.43,6.57-16.24,3.92-24.16,4.2-16.48-2.83-25-3.11-1.09-15.22-1.09-15.22S181.1,603.21,189.73,608Z" fill="#686175" data-primary="true"/><path d="M212.37,625.89a4.17,4.17,0,0,0,.68-2c-11.45,4.34-30.2-.48-34.86-.32l-18.77.63a3.62,3.62,0,0,0,3.84,2.83c8.51.28,17,3.37,25,3.11S209.7,630.5,212.37,625.89Z" fill="#2f2e41"/><path d="M210.1,370.59s2.53,63.76-.74,84.21-8.21,57.91-12.35,69.31-12.29,54.09-12,61.42-.1,14.13-.1,14.13,3.39-.12,4,1.56a34.85,34.85,0,0,1,.79,6.75s-10.09,2-12.88,3.26-16.76,4-16.76,4-.75-5.05-.83-7.88S161.64,596,161.64,596s-3.31-31-4.52-50.13,4.14-61.15,3.92-67.93,6.5-109.24,6.5-109.24l39.48-1.9Z" fill="#2f2e41"/><path d="M210.1,370.59s2.53,63.76-.74,84.21-8.21,57.91-12.35,69.31-12.29,54.09-12,61.42-.1,14.13-.1,14.13,3.39-.12,4,1.56a34.85,34.85,0,0,1,.79,6.75s-10.09,2-12.88,3.26-16.76,4-16.76,4-.75-5.05-.83-7.88S161.64,596,161.64,596s-3.31-31-4.52-50.13,4.14-61.15,3.92-67.93,6.5-109.24,6.5-109.24l39.48-1.9Z" opacity="0.2"/><path d="M156,613.1s19.59,11.21,23,13.37,7.46,3.14,6.45,6.56-9.94,7.12-24,7.6-27.2-2.43-32.4-5.69.11-13.56.11-13.56S144,607.3,156,613.1Z" fill="#686175" data-primary="true"/><path d="M185.5,633a3.23,3.23,0,0,0,.07-1.69c-4.15,1.68-13.1,4.43-26,3.83a188.4,188.4,0,0,1-32.73-4.74,5.15,5.15,0,0,0,2.27,4.51c5.2,3.23,18.24,6.17,32.4,5.69S184.48,636.43,185.5,633Z" fill="#2f2e41"/><path d="M173.39,458.85s-6.22,66.88-11.29,84-9,50-8.86,55.11a36.43,36.43,0,0,0,1.43,9,6.34,6.34,0,0,1,2.35,2.75,25.34,25.34,0,0,1,.75,5.62s-2.68,4.05-12.73,7.78a65.19,65.19,0,0,1-18.51,4s.71-29.4-2.23-49.63-1.61-47.43.36-55.94,6-23.93,4.51-33.49-4-19.06-4-19.06l-4.59-18.5Z" fill="#2f2e41"/><path d="M176.88,244.42s-12.67,4.2-16.69,8.09,7.42,119.17,7.42,119.17,18.57,3.13,25.72,2.89,16.77-4,16.77-4-2.57-64.69-6.08-78.5a209.19,209.19,0,0,0-8.4-25.71l-15-19.08Z" fill="#fff" stroke="#263238" stroke-linecap="round" stroke-linejoin="round"/><path d="M192.44,263.57l4.73,12.63L189,272.09S191.72,264.67,192.44,263.57Z" fill="#2f2e41"/><path d="M188.29,276l4.15-12.33-3.9-7.49S185.78,272,188.29,276Z" fill="#2f2e41"/><path d="M229.55,193s-21.68,9.33-36.16,13.08-26.22,10-26.14,14.59c0,0,3.19,10.54,3.9,13.81s-3.15,10-3.15,10,8.88,11.08,14.06,15.81l5.31,22.59,2-24.25a100.06,100.06,0,0,0,6-8.75s7.81,3,10.2,2.43C205.54,252.37,235.67,250.66,229.55,193Z" fill="#f9b499"/><polygon points="195.28 249.96 188.22 245.76 191.65 255.56 195.28 249.96" fill="#f7a88f"/><path d="M182.48,216.54s12.16-4.18,28.37-10.15,26.1-10.6,24.69-17.15S224,173.32,208.78,170.37s-31.61.87-38.46,6.71-10.81,13.55-9.4,20.1,3,23,6.62,26.92S182.48,216.54,182.48,216.54Z" fill="#2f2e41"/><path d="M186.4,218.8s-2.77-10-7.54-9-7.07,12.16-3.45,17.26,9,1.49,9,1.49" fill="#f9b499"/><path d="M161.63,200.76S151.4,188,144.7,187.25s-14.15,9.59-15.92,20.25,8.52,14.71,15.62,13.17,17.87-12.57,17.85-14.13S161.63,200.76,161.63,200.76Z" fill="#2f2e41"/><path d="M185.17,262.41l-9,15.74s-7.66-18.95-9.33-23.17a56.39,56.39,0,0,1-2.5-10.89l3.89-2.27Z" fill="#2f2e41"/><path d="M229.2,381.61s-4.92,2.18-7.92,2.27-1.21-7.29-.09-12.65S227.12,377.68,229.2,381.61Z" fill="#686175" data-primary="true"/><path d="M229.2,381.61s-4.92,2.18-7.92,2.27-1.21-7.29-.09-12.65S227.12,377.68,229.2,381.61Z" opacity="0.2"/><path d="M225.15,370.08l-1.56,23.11-9.72-13-1.05-1.3-1.21-17.3S223,364.16,225.15,370.08Z" fill="#f9b499"/><path d="M210,344.61s9.89,6.32,14.22,16.18a70.16,70.16,0,0,1,5,20.82s-5-10.15-9.44-13A28,28,0,0,0,211,365Z" fill="#686175" data-primary="true"/><path d="M164.34,244.09s6.85,23.59,12.6,35.51,8.7,48.85,10.94,56.12c0,0-1.15,66.14-.49,85.9s1.85,71.12,1.85,71.12-16.25,3.94-44.68-1.31-47.37-13.62-47.37-13.62,19.64-121,20.15-122.72S127,322.56,128,302.19s.69-29.4,9.39-39.87S164.34,244.09,164.34,244.09Z" fill="#686175" data-primary="true"/><path d="M214,376.47s9.72,12.33,10.7,20.67-3.29,31.1-3.29,31.1Z" fill="#686175" data-primary="true"/><path d="M214,376.47s9.72,12.33,10.7,20.67-3.29,31.1-3.29,31.1Z" opacity="0.2"/><path d="M188.49,263.62s13.65,26.46,16,46.15,3.4,83.5,2.91,102.73-1.35,76.88-1.35,76.88,19-6.85,19.92-12.55-4.62-52.94-6.75-65.87-6.86-52.28-7.1-59.58,4-31.2-.33-42.92A155.77,155.77,0,0,1,205.36,285s1-7.5-4.87-15.81S187.16,258,188.49,263.62Z" fill="#686175" data-primary="true"/><path d="M205.55,307.23a1,1,0,0,1-1-.85c-1.28-8.68-4.9-26.4-4.94-26.58a1,1,0,1,1,2-.4c0,.18,3.67,18,5,26.68a1,1,0,0,1-.84,1.14Z" fill="#2f2e41"/><path d="M211,342.4l-.17,0c-.65-.11-3.92-.75-5.12-1.87a17.68,17.68,0,0,1-2.2-4.83,21.39,21.39,0,0,1-6,4.84c-2.37,1.09-4.23,1.38-5.55.86a2.35,2.35,0,0,1-1.35-1.19,1,1,0,1,1,1.85-.77c.14.19,1.3.63,4.21-.72a21,21,0,0,0,6.11-5.21c-1.52-4.77-3-10.9-3.15-14.94-.2-5.78,1.31-11.75,3.59-14.19a3.22,3.22,0,0,1,2.24-1.17,2.46,2.46,0,0,1,1.92.89c2.45,2.53,3.85,10.59,3.28,18.75-.21,3.11-2.64,7.43-5.61,11.08a28.91,28.91,0,0,0,2.06,5.17,12.48,12.48,0,0,0,4.08,1.33,1,1,0,0,1-.18,2Zm-5.48-37.21h0a1.49,1.49,0,0,0-.85.53c-1.66,1.78-3.25,7-3,12.76a58.07,58.07,0,0,0,2.68,13.13c2.35-3.09,4.19-6.51,4.36-8.92.56-8-1-15.39-2.72-17.23A.78.78,0,0,0,205.55,305.19Z" fill="#2f2e41"/><path d="M192,339.26a2,2,0,1,1-2.09-2A2,2,0,0,1,192,339.26Z" fill="#2f2e41"/><path d="M214.83,341.26a2,2,0,1,1-4.06.17,2,2,0,0,1,1.94-2.11h0A2,2,0,0,1,214.83,341.26Z" fill="#2f2e41"/><path d="M197.1,282.91s.25-.87,2.81-.38,8.68,5.92,8.68,5.92-1-13.81-5.75-19.59-13.09-11.15-13.09-11.15a2.88,2.88,0,0,0-.71,4C190.53,264.21,197.1,282.91,197.1,282.91Z" fill="#686175" data-primary="true"/><path d="M197.1,282.91s.25-.87,2.81-.38,8.68,5.92,8.68,5.92-1-13.81-5.75-19.59-13.09-11.15-13.09-11.15a2.88,2.88,0,0,0-.71,4C190.53,264.21,197.1,282.91,197.1,282.91Z" opacity="0.2"/><path d="M170,326.08a1,1,0,0,1-1-1c-.66-19.64-7.48-58.62-7.55-59a1,1,0,0,1,2-.34c.07.39,6.92,39.51,7.58,59.3a1,1,0,0,1-1,1Z" fill="#2f2e41"/><path d="M176.32,323.86a6.32,6.32,0,1,0-6.12,6.52h0A6.32,6.32,0,0,0,176.32,323.86Z" fill="#fff" stroke="#2f2e41" stroke-miterlimit="10"/><path d="M164.34,244.09s-4.71,0-6.62,2.29a35.91,35.91,0,0,0-2.43,3.2s1.22,28,1.49,35.26.39,11.58.39,11.58,10.74-7.71,14.36-9.54a68.46,68.46,0,0,1,7.29-3.06L167.29,252Z" fill="#686175" data-primary="true"/><path d="M164.34,244.09s-4.71,0-6.62,2.29a35.91,35.91,0,0,0-2.43,3.2s1.22,28,1.49,35.26.39,11.58.39,11.58,10.74-7.71,14.36-9.54a68.46,68.46,0,0,1,7.29-3.06L167.29,252Z" opacity="0.2"/><polygon points="121.01 415.27 203.75 407.8 198.94 353.97 116.66 365.43 121.01 415.27" fill="#2f2e41"/><path d="M158.34,389.36s5.27,3.39,6.85,3.34a41.87,41.87,0,0,1,6.37,1.22c1,.15,4.93,5,6,6.53s5.75,6.15,5.78,6.94-1.53,1.43-2.72,1.47a8.43,8.43,0,0,1-3.2-1.08,46.19,46.19,0,0,1,1.76,5.29,2.79,2.79,0,0,1-2.5,2.27,26.53,26.53,0,0,1-5.2-1.21s-.74,1.41-3.86,2.7-3.31,1.7-5.89,1.59a9.45,9.45,0,0,1-7.29-3.72c-1.88-2.51-7.3-10.45-7.71-11a8.72,8.72,0,0,0-1-1.16l11.64-13.07Z" fill="#f9b499"/><path d="M145.65,254.89s-19,7.42-23.55,16.24S90.18,352.06,91.85,356.9s20.92,22.28,26.42,28.87S142,408.5,142,408.5l18.24-18.69-31.72-38.32,14.59-49.08" fill="#686175" data-primary="true"/><path d="M632.85,608.18s-1.5,7.15-4.52,10.54-9.41,9-6.77,13.92,17.31,10.17,26,7.15,7.91-10.94,12.42-14.67,6.08-6.4,4.14-13.18S652,598.39,645.27,596.88,632.85,608.18,632.85,608.18Z" fill="#f48225" data-secondary="true"/><path d="M662.21,622.1c-1.89,1.89-5.64,3.77-7.53,6.41s-3.39,8.28-7.53,8.28-9.41-3.39-12-5.65-6,0-8.28,1.5a30.25,30.25,0,0,1-3.55,2c4.87,4.17,16.78,7.75,24.26,5.14,8.66-3,7.91-10.94,12.42-14.67,2.27-1.9,3.78-3.5,4.48-5.5C663.61,620.61,662.79,621.52,662.21,622.1Z" fill="#2f2e41"/><path d="M727,598.89s1.56,7.43,4.68,10.94,9.73,9.39,7,14.47-18,10.56-27,7.42-8.2-11.33-13-15.2-6.25-6.65-4.29-13.68S707,588.77,714,587.2,727,598.89,727,598.89Z" fill="#f48225" data-secondary="true"/><path d="M696.48,613.36c1.95,1.94,5.86,3.9,7.81,6.64s3.53,8.6,7.82,8.6,9.73-3.52,12.52-5.87,6.25,0,8.59,1.57a32.08,32.08,0,0,0,3.65,2.08c-5,4.33-17.42,8-25.18,5.34-9-3.12-8.21-11.33-12.9-15.24-2.36-2-3.93-3.64-4.65-5.7C695,611.79,695.87,612.75,696.48,613.36Z" fill="#2f2e41"/><path d="M632,399.94s-2,28.14-2,40.26-1.95,32.83-1.95,35.57-3.52,54.33-3.13,71.14,11.33,45.73,11.33,45.73-7.43.39-7,4.69S633.11,611,633.11,611s4.69-1.57,14.46-1.57,19.59,7.08,19.59,7.08-.39-4.69,2-12.9-2-10.2-1.56-17.23,1.21-45.35,3.12-55.12S682,474.59,682,474.59s11.33,49.26,14.07,53.94a13.66,13.66,0,0,1,1.56,9.39s-1.56,2.74-4.69,12.5-2.35,18.37-1.57,25.8a86.8,86.8,0,0,1,.79,10.56c0,1.55-2,2.34-2.34,5.86s3.9,12.51,3.9,12.51,10.94-3.52,18.76-3.52a63.11,63.11,0,0,1,16.42,2.73,18.82,18.82,0,0,0,1.57-8.21c-.39-3.9-1.22-10.16-1.22-14.84s8.21-45,8.21-54.33,4.69-52.78,4.69-55.13,2.35-39.47,2.35-51.2A241.05,241.05,0,0,0,743,396L633.9,388.21Z" fill="#2f2e41"/><path d="M662.67,280.66s-23.31-3.06-31.34,4.95a38.22,38.22,0,0,0-11.21,26.06c0,7.71-4.53,34.65-8.85,48.53s-3.09,26.83-2.78,33a111.66,111.66,0,0,0,2.43,15.42v3.09s-6.17,8.63-6.47,11.71,4,11.1,4.32,12.65,1.54,1.84,4.93,3.64,7.4.32,9.56.32,2.43-1.85,5.24-3.39,5.86-6.17,5.86-9.88-3.09-10.17-4.93-12.95a19.71,19.71,0,0,1-2.44-4.93l3.09-6.47s7.4,21,29.3,27.14,58-1.22,66.87-4,13-7.71,13-7.71l6.49-5.56a6.41,6.41,0,0,1-.62,6.18c-2.17,3.07-4.94,5.24-4.94,8.93a50.23,50.23,0,0,0,1.54,10.49c.62,2.77,3.65,3.08,4.32.62s2.77,3.64,7.39,4.93,8-2.78,11.42-8,4.62-7.4,3.08-12S763,416,763.56,411.65s10.18-28.37,11.1-50.89S764.18,297.53,762,291.38s-11.42-17.27-20.67-17.27-18.24,3.09-22.51,3.09a62.72,62.72,0,0,1-8.33-.62l-43.78,4.32Z" fill="#f48225" data-secondary="true"/><g opacity="0.2"><path d="M630.08,402.85l-.11,0a.34.34,0,0,1-.21-.44c0-.16,5.58-15.91,9.55-32.35s4-29,4-39.94V330c0-11.06,4-26.46,4-26.61a.35.35,0,0,1,.42-.25.36.36,0,0,1,.25.42c0,.16-4,15.47-4,26.44v.1c0,11,0,23.47-4,40.11-4,16.47-9.51,32.25-9.56,32.41A.36.36,0,0,1,630.08,402.85Z"/></g><path d="M767.91,423.41c-1-2.89-2.65-5.07-3.64-7.36a15.66,15.66,0,0,0-7.77-2.2c-7.41,0-10.18,3.39-10.18,3.39l-.63.19a8.37,8.37,0,0,1-.6,1.05c-2.16,3.08-4.94,5.25-4.94,8.94a50.15,50.15,0,0,0,1.55,10.48c.62,2.78,3.65,3.09,4.31.62s2.78,3.65,7.4,4.94,8-2.78,11.42-8S769.46,428,767.91,423.41Z" fill="#f9b499"/><g opacity="0.2"><path d="M745.72,412.65h0a.34.34,0,0,1-.32-.36c0-.17.86-17.38-4-32.24-.75-2.3-1.47-4.42-2.15-6.43-3.8-11.24-6.32-18.67-5.27-29.49,1-10.38,4.56-35.8,6.07-46.66.35-2.5.61-4.32.72-5.17a.34.34,0,1,1,.68.1c-.11.84-.37,2.67-.72,5.17-1.51,10.85-5.06,36.27-6.06,46.63-1,10.67,1.46,18,5.24,29.2.68,2,1.4,4.14,2.15,6.43,4.9,15,4,32.32,4,32.5A.34.34,0,0,1,745.72,412.65Z"/></g><path d="M676,308.69l14.8,28.07L707.18,305s-5.26-8.64-14.19-10.18S673.24,301,676,308.69Z" fill="#fff"/><path d="M689.59,307.16a15.6,15.6,0,0,0-7.09,2.15c-3.71,2.17-10.79,7.41-10.79,7.41s-1.55-14.19-1.22-21.28,16.34-20.36,26.52-24.05,17.27,0,19.12,5.86,1.54,20.35-1.55,27.44a84.87,84.87,0,0,1-7.71,13.57s-9.56-7.4-11.4-8.95S689.59,307.16,689.59,307.16Z" fill="#2f2e41"/><path d="M677,291.62a6.26,6.26,0,0,0,6.21,0,47.48,47.48,0,0,0,7.29-4.79" fill="none" stroke="#263238" stroke-linecap="round" stroke-linejoin="round"/><rect x="619.56" y="455.67" width="129.82" height="8.55" fill="#ccc"/><path d="M751.79,636.26h0a4,4,0,0,1-4-4V427.63a4,4,0,0,1,4-4h0a4,4,0,0,1,4,4V632.24a4,4,0,0,1-4,4Z" fill="#ccc"/><path d="M689.57,305.89s21.7-4.8,23.5-32.84a8,8,0,0,0-2.64-1.85,7.73,7.73,0,0,0-2.4-.59c-1.09,3-4.2,8.12-9.48,13.35-6.11,6.06-15,10.9-25.93,6C672.62,289.94,683.68,302.47,689.57,305.89Z" fill="#f9b499"/><path d="M676.94,294.62a43.7,43.7,0,0,1-4.83-5.59s32.19-8.15,35.85-19.12c0,0,4.16,1.32,5.11,3.14C713.07,273.05,694.06,298.93,676.94,294.62Z" fill="#f7a88f"/><path d="M673.69,228.06a9.9,9.9,0,0,1-11.75-7.16c-.06-.23-.1-.47-.14-.71-1.67-7.62,12.52-9.81,18.54-13.81s18.77-4.49,28-2.89,21.35,5.67,24.37,12.24,8.71,19.87,7.83,28.14a39.33,39.33,0,0,1-5.2,16.5c-1.89,3.21-.67,6.08-.22,7.73s-.49,1.82-3,5.26-3,4.64-11.26,3.75-11.26-4.93-13.37-8-6.73-15.3-10.46-21-4.57-12.28-10.61-16.64C681.52,228,678.37,227.1,673.69,228.06Z" fill="#2f2e41"/><ellipse cx="684.85" cy="253.99" rx="38.37" ry="27.21" transform="translate(310.73 881.33) rotate(-79.54)" fill="#f9b499"/><ellipse cx="712.03" cy="262" rx="9.88" ry="6.41" transform="translate(212.08 832.68) rotate(-68.98)" fill="#f9b499"/><path d="M720.41,249.89s-2.36.22-5.52,4.52c-5.32,7.24-6.9,4.87-7,0-.07-2.5-5-3-8-6.53a211.22,211.22,0,0,1-16.05-22.58c-4-7-10-5.11-10-5.11s-10.61-6.43,10.95-9.43C684.77,210.76,726.4,222.15,720.41,249.89Z" fill="#2f2e41"/><path d="M629.46,413.85a20,20,0,0,1-2.43-4.79c-5.95-3.11-12.71-.28-16.09,1.59v1.05s-6.16,8.63-6.47,11.71,4,11.1,4.32,12.65,1.54,1.84,4.94,3.64,7.39.32,9.55.32,2.44-1.85,5.25-3.39,5.86-6.17,5.86-9.88S631.31,416.62,629.46,413.85Z" fill="#f9b499"/><path d="M619.3,636.26h0a4,4,0,0,1-4-4V427.63a4,4,0,0,1,4-4h0a4,4,0,0,1,4,4V632.24a4,4,0,0,1-4,4Z" fill="#ccc"/><path d="M498.21,64.18H464.3a13.27,13.27,0,0,0,.33-2.89c0-11.71-15.41-21.21-34.41-21.21s-34.41,9.5-34.41,21.21a13.27,13.27,0,0,0,.33,2.89H362.23a7.51,7.51,0,0,0-7.51,7.51V91.45h151V71.69A7.51,7.51,0,0,0,498.21,64.18Z" fill="#d1d3d4"/><circle cx="428.59" cy="60.6" r="12.12" fill="#fff"/></svg>