<svg id="ba9db3be-c9b3-4103-8b88-58aaa92f934d" data-name="Layer 1" xmlns="http://www.w3.org/2000/svg" xmlns:xlink="http://www.w3.org/1999/xlink" width="865.76" height="682.89" viewBox="0 0 865.76 682.89"><defs><clipPath id="e8008bff-2d97-4ddc-b793-7a603c8f3ad1"><path d="M234.09,556.86c-12.36,27.85,4.35,60.37,34.35,65.71,11.88,2.11,26.24.87,43.33-6.43a85.31,85.31,0,0,1,24.29-6.55c14.84-1.6,37.53-2.15,55.84,5.63,0,0,56.61,16.25,86,9.06,0,0,45.27-10.07,66.43-3.6,0,0,47.62,18.7,79.95-13.66,0,0,22.34-15.82,52.91-7.19,0,0,107,26.6,151.66-40.27,0,0,35.86-43.15-21.16-50.34L684,483.36l-449.86,73.5Z" fill="none"/></clipPath><clipPath id="efc78d79-080f-42e1-9a45-2479be935a6f"><path d="M426.05,439.69l15.35-12.45s20-19.37,32.27-21.12c0,0,16.74-4.42,22,5.28,0,0,5.85,1.75,13.79,60.66l10.18,80.14s1.75,20.23,10.49,27l13.48,10.49a4.77,4.77,0,0,0-5.88,2,6.06,6.06,0,0,1-5.36,2.69h0s-29.88-21.65-42.91-49.78c0,0-5.7-16.51-9.72-32.73a82,82,0,0,0-2.44-8.2c-3-8.51-9.61-29.38-7.85-42.63l-11.74,11.48s-50.44,40.21-67.42,20.23Z" fill="none"/></clipPath><clipPath id="efc8ebb1-7515-4611-aff7-8510ec82c7ad"><path d="M287.25,491.73l12.19-13c-12.19,9.22-14.18,6.34-14.18,6.34-1.42-2.59,3.12-3.75,3.12-3.75,6.24-2.88,15.32-9.21,15.32-9.21,12.76-5.76,17-26.21,17-26.21,5.95,5.76,15.31,8.93,15.31,8.93l-4.25,11.23a25.89,25.89,0,0,0-1.16,9.17,49.23,49.23,0,0,1-2.6,18.18c-3.15,9-5.86,7.54-5.86,7.54-4.83.57-1.71-8.93-1.71-8.93.38-2.08.75-4.52,1-6a.39.39,0,0,0-.33-.44.36.36,0,0,0-.3.08,19.14,19.14,0,0,1-2.44,1.67,11.6,11.6,0,0,0-4,4c-1.54,2.52-3,5.29-3,5.29-3.12,8.92-7.09,6.33-7.09,6.33-3.63,0,3.68-13.63,5.91-17.63a.16.16,0,0,0,0-.22.16.16,0,0,0-.23,0h0L296,499.51c-4.61,5.51-7.37,3.16-7.37,3.16-3.44-2.73,4.21-8.22,4.21-8.22s-3.43,2.94-5.54.13A2.82,2.82,0,0,1,287.25,491.73Z" fill="none"/></clipPath><clipPath id="ec86c618-0ae8-4a13-a1d9-13496871e345"><path d="M534.11,405.05s25.31-15.54,51.68-23.12c0,0,30.5-13.1,39.81,10.34,0,0,4.31,8.27,2.41,33.43,0,0-2.45,37.57-7.65,69a74.78,74.78,0,0,0-1,16.37c.26,4.74,1,9.46,2.75,10.43,0,0,9.6,12.07,35.53,14.11,0,0,5.27.29,9.1-1.57a1.82,1.82,0,0,1,2.39.7c1.65,2.86,4,9-3.76,11.58,0,0-45.85-1.38-62.74-1,0,0-13.78,3.45-8.61-13.44a280.41,280.41,0,0,0-.84-46,69.47,69.47,0,0,0-2.13-11.62c-2.26-8.17-6-28.39,3-52.65,0,0-4.14,2.76-17.58,15.51,0,0-18.54,19.21-33.79,26a1.72,1.72,0,0,1-1.14.09c-1.75-.45-6.88-2.33-12.31-9.59A35.49,35.49,0,0,1,524,421.48S526.3,409.09,534.11,405.05Z" fill="none"/></clipPath><clipPath id="ac98d228-0693-4724-b067-27860625b09e"><path d="M518.57,612s12.24-6.55,16.72-15.34c0,0-32.26-22.64-45.85-52,0,0-18.61-30-25.59-62.56L458.52,465A77.32,77.32,0,0,1,456,454.84c-.51-3-2.57-7.91-10.46-9.49l-19.45-5.66s-13.82-1.4-20.37-5c0,0-25.14-6.69-40.07-8.8a22.61,22.61,0,0,0-12.54,1.81,10.42,10.42,0,0,0-2.28,1.28s-2.2,3.55-4.56,4.5c0,0-2.74,1.29-4.31,12.41a33.28,33.28,0,0,1-3.44,9.25s-2.49,22.57,8.28,30c0,0,4.89,5.73,21.86,7.92a87.52,87.52,0,0,0,26-.65C403,491,416.84,489.1,428,489.9c0,0,4.11,39.55,22,56.09,0,0,23.7,29.27,36.87,47.62a40.57,40.57,0,0,1,6.08,12.4c.26.92.49,1.84.65,2.71C493.58,608.73,510.48,605.78,518.57,612Z" fill="none"/></clipPath></defs><g id="ee0bd78b-283b-4b8b-a1ba-673b47e14eef" data-name="b0d486aa-02ba-4834-a316-9c11df1553c9"><path id="aa52b72e-ee33-4be9-b63a-d3a1e3d5ddc8" data-name="a114b22c-00a4-4e93-a2f3-1888aaea775c" d="M234.09,556.86c-12.36,27.85,4.35,60.37,34.35,65.71,11.88,2.11,26.24.87,43.33-6.43a85.31,85.31,0,0,1,24.29-6.55c14.84-1.6,37.53-2.15,55.84,5.63,0,0,56.61,16.25,86,9.06,0,0,45.27-10.07,66.43-3.6,0,0,47.62,18.7,79.95-13.66,0,0,22.34-15.82,52.91-7.19,0,0,107,26.6,151.66-40.27,0,0,35.86-43.15-21.16-50.34L684,483.36l-449.86,73.5Z" fill="#eec8ad"/><g clip-path="url(#e8008bff-2d97-4ddc-b793-7a603c8f3ad1)"><path d="M257.87,619.37s-11-27,15.16-32.89c0,0,25.51-.84,44.13-6.74,0,0,15.85-2.53,23.44,3.37,0,0,17.23,8.43,31.71.84,0,0,21.37-5.9,2.07-11.8,0,0,15.16-15.18,29.64-11,0,0,53.09,6.75,58.6-11,0,0,40-6.75,69.63-13.49a105.22,105.22,0,0,0,46.19-11s22.76-7.59,35.85-5.06c0,0,31.53,2.95,53.09-14.33,0,0,33.09-.85,40-14.34l-6.9-27.83L299.23,530l-91,27.83L221.6,585S204,622.61,257.87,619.37Z" fill="#e0b08f"/></g><ellipse cx="450.88" cy="591.66" rx="15.22" ry="1.28" fill="#e0b08f"/><ellipse cx="608.34" cy="556.71" rx="16.27" ry="3.06" fill="#e0b08f"/><ellipse cx="656.52" cy="565.39" rx="5.63" ry="3.06" fill="#e0b08f"/><ellipse cx="700.52" cy="590.39" rx="15.02" ry="1.53" fill="#e0b08f"/><ellipse cx="798.75" cy="547.02" rx="7.3" ry="2.55" fill="#e0b08f"/><ellipse cx="723.05" cy="509.26" rx="6.26" ry="3.06" fill="#e0b08f"/><path d="M28.64,401.8c.18.41.35.81.54,1.21,13.75,29.53,45.07,50.9,78.61,63.29,97,35.82,205,5.63,308.91,3.59,72.24-1.42,146.52,11,215.94-4.82,44.84-10.23,85-32.93,115.2-63.27Z" fill="#75bfef"/><path d="M28.64,401.8h719.2s-104.79-49.23-133.77-43.61-267.78,41-267.78,41-153-46.59-189.23-42.6c-26.6,2.93-96.1,25.89-131.28,37.93A75.14,75.14,0,0,0,28.64,401.8Z" fill="#98ddff" opacity="0.62" style="isolation:isolate"/><polygon points="424.03 457.99 553.55 451.48 420.13 446.75 424.03 457.99" fill="#fff"/><circle cx="215.19" cy="183.87" r="127.09" fill="#ffcc4c"/><path d="M88.1,440.21h243S149.23,454.34,88.1,440.21Z" fill="#fff"/><path d="M99.4,287.75h249l-36.18-14s-4.66-27.24-16.84-27.24S275,263.31,275,263.31s.36-56.47-30.81-56.47-38,55.27-38,55.27-7.52-27.64-24.36-27.64-23.29,35.25-23.29,35.25Z" fill="#fff"/><path d="M559.25,217.16H751.32l-27.91-10.82s-3.59-21-13-21-15.75,13-15.75,13,.28-43.56-23.77-43.56-29.29,42.63-29.29,42.63-5.8-21.32-18.79-21.32-18,27.19-18,27.19Z" fill="#fff"/><path d="M207.83,415.05H36a101.35,101.35,0,0,0,7.77,10Z" fill="#fff"/><path d="M609,409.84s79.47,6.29,129.72.54c.91-.82,1.83-1.63,2.73-2.46Z" fill="#fff"/><path d="M233.3,484.44s5.93-3.8,26.63-3.56l162.39-16L655.93,441l12-2s19.73-6.05,22.66,3.91c0,0,8.4,18.17-.58,40.05,0,0-1.17,2.34-9.18,3.52L614,497.56,481.16,520.21,250.5,556.75Z" fill="#8c4826"/><path d="M238,483.73a10.27,10.27,0,0,0-8.27,3c-5.4,5.49-13.84,19-7.61,46.49,0,0,3.25,21.22,22.86,24a14.66,14.66,0,0,0,12-3.7c5.52-5.14,12.19-16.44,8.48-40.12C265.39,513.38,263.56,486,238,483.73Z" fill="#cf8046"/><path d="M238.9,494.69a25.87,25.87,0,0,0-7.55,8.17,22.88,22.88,0,0,0-3,10.49v2.78a18.91,18.91,0,0,0,.37,2.69,34,34,0,0,0,1.57,5.33,53.26,53.26,0,0,0,5.25,10,36.17,36.17,0,0,1-6.33-9.52,28.7,28.7,0,0,1-1.88-5.49,17.06,17.06,0,0,1-.46-2.92c0-1-.07-1.93-.07-2.9a21.88,21.88,0,0,1,3.47-11.06A21.47,21.47,0,0,1,238.9,494.69Z" fill="#8c4826"/><path d="M240.26,506.48a32.33,32.33,0,0,0-2.29,5.7,21.43,21.43,0,0,0-.86,5.9,17,17,0,0,0,1,5.83,25.55,25.55,0,0,0,2.88,5.38,14.67,14.67,0,0,1-4-4.92,16.07,16.07,0,0,1-1.09-3,15.48,15.48,0,0,1,.9-9.52A16.24,16.24,0,0,1,240.26,506.48Z" fill="#8c4826"/><path d="M244.51,529.1a19.4,19.4,0,0,0,2.79-6.1,16,16,0,0,0,.3-6.47l-.32-1.55c-.16-.46-.41-1-.63-1.48a26.37,26.37,0,0,0-1.62-2.89,27.43,27.43,0,0,0-2-2.68,32.22,32.22,0,0,0-2.38-2.44,16.34,16.34,0,0,1,5.34,4.43,18.45,18.45,0,0,1,1.94,2.94,13.71,13.71,0,0,1,.76,1.65c.15.62.29,1.18.41,1.78a14.37,14.37,0,0,1-.67,7.06A13.43,13.43,0,0,1,244.51,529.1Z" fill="#8c4826"/><path d="M250.7,508.41a28,28,0,0,1,5.75,10.18,20.84,20.84,0,0,1,.28,11.84c-.16.48-.35,1-.52,1.43a14.4,14.4,0,0,1-.58,1.41c-.47.89-1,1.74-1.52,2.57a31.62,31.62,0,0,1-3.7,4.62,23.8,23.8,0,0,1-4.57,3.74,19,19,0,0,1-5.39,2.3,23.57,23.57,0,0,0,5-2.91,26.88,26.88,0,0,0,4.12-3.93,36.81,36.81,0,0,0,3.37-4.59c.49-.81,1-1.63,1.4-2.47a9.44,9.44,0,0,0,.5-1.28c.16-.44.33-.87.47-1.31a18.71,18.71,0,0,0,.74-5.52v-1.4l-.12-1.41c-.19-.92-.28-1.87-.55-2.78a29.49,29.49,0,0,0-1.87-5.4A36.54,36.54,0,0,0,250.7,508.41Z" fill="#8c4826"/><path d="M259,508.61a13.7,13.7,0,0,1,2.43,4.16,24.78,24.78,0,0,1,1.32,4.69,27.28,27.28,0,0,1,.44,4.86,31.84,31.84,0,0,1-.44,4.88,30.29,30.29,0,0,1-3.27,9.17A31.62,31.62,0,0,1,253.6,544a53.61,53.61,0,0,0,4.84-8.16,36.24,36.24,0,0,0,1.7-4.37,30.61,30.61,0,0,0,1.13-4.53,32.22,32.22,0,0,0,.33-9.3,31.58,31.58,0,0,0-.86-4.62A17.62,17.62,0,0,0,259,508.61Z" fill="#8c4826"/><path d="M263,494.89s20.6,38.57-3.43,60.49L320,545.87l250.83-40.74,99.77-17,10.24-1.7s8.3-1,9.18-3.52l1.46-3.67L657.87,485s-22,3.29-29.78,1.35c0,0-21.27-.38-38.67,6,0,0-17.27,8.12-41.24,7.34l-53.36,6.45s-76.69,9.41-118.45,20.23c0,0-72.31,15.86-80.82,9.67a33.09,33.09,0,0,1-12.89-17.53S277.59,502.45,263,494.89Z" fill="#cf8046"/><path d="M344.93,494l-11.31,2.32-11.31,2.27L311,500.8l-5.66,1.1c-1.08-.06-1,1.13,0,1l2.87.35,2.86.36,1.43.18.36,0H313a.92.92,0,0,1,.27.08.68.68,0,0,1,.24.93l-.05.07a.72.72,0,0,1-.22.17l-.17.08-.33.16-.67.3c-.44.19-.9.36-1.36.52-.91.33-1.85.59-2.79.83a38.2,38.2,0,0,1-11.53.82,24.82,24.82,0,0,0-2.86-.19,8.2,8.2,0,0,0-2.72.65,13.85,13.85,0,0,0-1.27.66c-.43.22-.86.44-1.3.64-.87.42-1.76.79-2.67,1.13a44.34,44.34,0,0,1-11.26,2.44,43.33,43.33,0,0,0,11.16-2.7c.9-.35,1.78-.73,2.64-1.15.42-.21.85-.43,1.27-.66s.83-.49,1.28-.69a8.53,8.53,0,0,1,2.85-.71,9,9,0,0,1,1.47,0l1.44.11a38.53,38.53,0,0,0,11.38-.89c.92-.23,1.84-.49,2.74-.81.44-.17.89-.34,1.32-.53l.65-.29.32-.15.16-.08a.06.06,0,0,0,.06-.05,1.33,1.33,0,0,0,0-.2h-.61l-1.43-.18-2.86-.35-2.87-.36H305a1.18,1.18,0,0,1-.45-.14,1,1,0,0,1,0-1.68,2.73,2.73,0,0,1,.79-.22l5.66-1.08,11.34-2.15L333.57,496Z" fill="#cf8046"/><polygon points="288.1 523.24 315.79 519 343.49 514.85 398.89 506.56 454.32 498.45 482.04 494.4 509.77 490.43 482.08 494.67 454.38 498.82 398.97 507.12 343.54 515.23 315.83 519.28 288.1 523.24" fill="#cf8046"/><path d="M317.3,530.68c7-2.42,14-4.69,21.09-6.73,3.55-1,7.12-2,10.72-2.82l2.71-.59c.9-.19,1.81-.34,2.72-.51s1.84-.27,2.75-.41,1.86-.13,2.79-.2l2.34-.18-2.26.7a27,27,0,0,0-3.59,1.4,12.88,12.88,0,0,0-1.67.92,6.52,6.52,0,0,0-1.44,1.18l-.28-.46c4.1-1.05,8.24-1.9,12.41-2.64s8.35-1.34,12.56-1.78,8.43-.7,12.65-.82a121.54,121.54,0,0,1,12.66.46,121.31,121.31,0,0,0-12.65-.18c-4.22.17-8.43.45-12.62,1s-8.36,1.1-12.51,1.86-8.28,1.62-12.36,2.67l-.88.23.59-.68a7.5,7.5,0,0,1,1.57-1.29,14.6,14.6,0,0,1,1.74-.94,26.71,26.71,0,0,1,3.67-1.41l.07.53a19.27,19.27,0,0,0-2.73.19c-.91.19-1.82.2-2.72.39s-1.81.31-2.71.5l-2.7.57q-5.39,1.25-10.72,2.71Q327.84,527.29,317.3,530.68Z" fill="#cf8046"/><path d="M340.77,504.83l20.12-3.11,20.13-3,40.27-6,20.15-2.93,10.08-1.47q5-.72,10.06-1.56l20.11-3.15,20.13-3.08-20.09,3.35-20.1,3.26c-3.35.53-6.69,1.1-10.05,1.6l-10.07,1.51-20.13,3-40.3,5.86L360.93,502Z" fill="#cf8046"/><polygon points="295.31 493.54 309.77 491.47 324.25 489.49 353.21 485.53 382.19 481.76 396.69 479.88 411.19 478.09 396.72 480.16 382.24 482.14 353.29 486.09 324.3 489.86 309.81 491.74 295.31 493.54" fill="#cf8046"/><path d="M385.64,483.73l20.55-3.42L426.75,477l20.59-3.23,10.3-1.57,10.3-1.51-10.26,1.79-10.27,1.72-20.57,3.36-20.58,3.21C399.39,481.78,392.52,482.83,385.64,483.73Z" fill="#cf8046"/><path d="M275.7,486.41c4-.63,8.07-1.37,12.12-2s8.09-1.3,12.15-1.86,8.11-1.12,12.19-1.57,8.16-.84,12.26-1l2-.08-2,.53c-4.08,1.09-8.15,2.29-12.15,3.66-2,.69-4,1.43-5.91,2.27a29.58,29.58,0,0,0-2.83,1.38,8,8,0,0,0-2.41,1.83l-.33-.4c5.21-2,10.51-3.74,15.85-5.34s10.72-3.06,16.14-4.34S343.71,477,349.2,476s11-1.72,16.53-2.4c-5.52.76-11,1.59-16.49,2.66s-10.91,2.2-16.32,3.51-10.77,2.8-16.09,4.42-10.61,3.39-15.77,5.41l-.93.36.6-.77a8.38,8.38,0,0,1,2.58-2,30.69,30.69,0,0,1,2.89-1.39c2-.84,4-1.56,6-2.25,4-1.35,8.09-2.54,12.2-3.61l.06.44c-4.08.15-8.16.52-12.23.95s-8.13.94-12.19,1.49-8.11,1.15-12.16,1.74S279.75,485.84,275.7,486.41Z" fill="#cf8046"/><path d="M560.15,481.33l8.19-1.55,8.2-1.49L593,475.4l16.43-2.77c2.73-.5,5.45-1.05,8.15-1.67a49.5,49.5,0,0,0,8-2.33,51.19,51.19,0,0,1-7.91,2.6c-2.7.68-5.42,1.28-8.14,1.83-5.47,1-10.94,1.93-16.42,2.9l-16.43,2.76-8.23,1.33Z" fill="#cf8046"/><polygon points="596.38 483.2 606.21 481.71 616.05 480.27 635.75 477.5 655.46 474.86 665.32 473.58 675.19 472.37 665.36 473.86 655.51 475.29 635.82 478.06 616.11 480.7 606.25 481.98 596.38 483.2" fill="#cf8046"/><path d="M594.14,455.56l15.83-3.9,15.86-3.81.85-.21-.62.62-4.84,4.87-.23-.45c9.8-1.32,19.62-2.41,29.46-3.33q7.38-.68,14.78-1.08a146.31,146.31,0,0,1,14.81-.18c-4.94-.14-9.87.17-14.79.49s-9.85.76-14.76,1.25-9.82,1-14.72,1.58-9.81,1.15-14.7,1.79l-.77.1.54-.54,4.87-4.85.23.42L610.05,452Z" fill="#cf8046"/><path d="M499.71,476.9l15.84-3.9,15.85-3.82.85-.21-.62.63-4.84,4.86-.22-.44c9.79-1.33,19.61-2.42,29.45-3.34q7.38-.68,14.78-1.08c4.93-.25,9.88-.41,14.82-.18-4.94-.13-9.88.17-14.8.49s-9.84.77-14.76,1.26-9.82,1-14.72,1.57-9.81,1.15-14.7,1.8l-.77.1.55-.55,4.86-4.84.24.41-15.9,3.66Z" fill="#cf8046"/><path d="M238.23,529c-11.14,1.66-10.25,37.43,19,40.2,36.23,3.42,143.51-39.81,143.51-39.81S274.38,523.57,238.23,529Z" fill="#686175" data-primary="true"/><path d="M238.23,529c-11.14,1.66-10.25,37.43,19,40.2,36.23,3.42,143.51-39.81,143.51-39.81S274.38,523.57,238.23,529Z" opacity="0.2" style="isolation:isolate"/><path d="M273.3,556.72c-12.67.85-21.3.65-26-9.45-5-10.65,2.25-19.9,2.25-19.9l-7.1,1s-10.8,10.14.3,26.85c7.4,11.13,28.49,9.19,43.47,5.87A229,229,0,0,0,315.87,552l-5.79-3S286.28,555.86,273.3,556.72Z" opacity="0.2" style="isolation:isolate"/><path d="M286.08,544.56c-12.67.84-23.07.45-25.79-7.24a16.38,16.38,0,0,1,.91-11.52l-6.11.77c-2.15,3.4-4.56,11.12-.23,17.65,7.4,11.13,29.31,7.11,44.28,3.79,1.67-.36,3.33-.76,5-1.18l-4.8-4.83A72.08,72.08,0,0,1,286.08,544.56Z" opacity="0.2" style="isolation:isolate"/><path d="M298.75,533.26c-12.67.84-23.07.45-25.79-7.24a12.42,12.42,0,0,1-.38-1.36l-7.93,1.91a14.14,14.14,0,0,0,2.32,8.71c5.43,7.58,29.36,3.55,44.34.23,1.66-.37.7-4.79.7-4.79A72,72,0,0,1,298.75,533.26Z" opacity="0.2" style="isolation:isolate"/><path d="M316.19,527.59c-18.47,0-31.25-5.15-31.25-5.15l-47.15,6.5s20.27-1.82,38.81,6.51c35.45,15.93,53.1,39,96.44,36.46,26.95-1.59,27.71-42.57,27.71-42.57l-54-6.9S334.66,527.59,316.19,527.59Z" fill="#686175" data-primary="true"/><path d="M315.85,489.92c-17.07,0-30.91,14.56-30.91,32.52a93.1,93.1,0,0,0,31.25,5.72,86.76,86.76,0,0,0,30.56-5.72C346.75,504.48,332.92,489.92,315.85,489.92Z" fill="#686175" data-primary="true"/><path d="M363.8,557.57c-33.8,2.71-58.94-17.88-88.69-27.94A75.54,75.54,0,0,0,258.84,526l-8.18,1.13s14.14,1.48,22.3,4.38c31.09,11,58.26,34.84,91.74,34.84,27.38,0,29.15-37.93,29.15-37.93l-9-1.29S380.14,556.26,363.8,557.57Z" opacity="0.2" style="isolation:isolate"/><path d="M354.32,540.74c-11.56,2.35-29.1,1.6-58.62-9.72-18-6.9-23-6.9-23-6.9L266,525a81.58,81.58,0,0,1,24.05,7.16c31.06,14.36,51.17,19.37,68.93,15.8,13.5-2.71,16.07-21.94,16.07-21.94l-9.51-1.21S363.93,538.79,354.32,540.74Z" opacity="0.2" style="isolation:isolate"/><path d="M314.59,528.16a86.9,86.9,0,0,1-29.65-5.72l-3.61.5a275.33,275.33,0,0,0,33.6,9.4C353.5,540,357,523.75,357,523.75l-10.26-1.31S330.43,528.16,314.59,528.16Z" opacity="0.2" style="isolation:isolate"/><path d="M314.58,510.21c-9.83,0-19.71-2.68-25.21-4.47a33.1,33.1,0,0,0-3.71,9.79c3.28.92,17.35,4.63,28.6,4.63S342,516,345.91,515a33.1,33.1,0,0,0-3.44-9C336.38,507.58,324.83,510.21,314.58,510.21Z" opacity="0.2" style="isolation:isolate"/><path d="M315.19,491.65a58.16,58.16,0,0,1-7.58-.53,30.43,30.43,0,0,0-12.95,7.69c5.65,1.32,13.47,2.8,20.23,2.8s15.39-1.63,21.85-3.09a30.34,30.34,0,0,0-12.86-7.45A72.06,72.06,0,0,1,315.19,491.65Z" opacity="0.2" style="isolation:isolate"/><path d="M350.56,545.93c-14.15-11.34-14.73-19.39-14.73-19.46a1.07,1.07,0,0,0-1.09-1.05h0a1.1,1.1,0,0,0-1,1.13c0,.36.49,9,15.54,21.07,10.14,8.13,11.6,18.24,11.61,18.35a1.1,1.1,0,0,0,1.08.94H362a1.08,1.08,0,0,0,.94-1.22C362.91,565.24,361.41,554.63,350.56,545.93Z" fill="#fff"/><path d="M355.88,538.56c-16.19-4.33-19.43-12.75-19.48-12.88A1.09,1.09,0,0,0,335,525h0a1.11,1.11,0,0,0-.67,1.39c.14.39,3.51,9.59,21,14.26,11.89,3.19,14,6.06,14,6.06a1.08,1.08,0,0,0,1.48.39,1.09,1.09,0,0,0,.39-1.49C371,545.26,368.76,542,355.88,538.56Z" fill="#fff"/><path d="M370.26,544.18a2,2,0,1,0,2,2A2,2,0,0,0,370.26,544.18Z" fill="#fff"/><circle cx="361.89" cy="565.82" r="2.04" fill="#fff"/><path d="M323.14,496.74c-4.88,2.4-6.16,9.79-2.87,16.51s9.93,10.23,14.81,7.84,6.17-9.79,2.87-16.51S328,494.35,323.14,496.74Z" fill="#fff" opacity="0.2"/><path d="M262.74,530.92s10.22.63,30.86,13.26,28.66,16.64,28.66,16.64l3.11-32.4-35.21-4.3Z" fill="#fff" opacity="0.2"/><path d="M343.12,524.66l52.29,29.48s3.45-10.78,4.21-14.54a93,93,0,0,0,1.13-10.26l-54-6.9Z" fill="#fff" opacity="0.2"/><path d="M346.41,521.41c-.17.05-17.28,5.66-31.82,5.66s-29.11-5.59-29.25-5.64a1.09,1.09,0,0,0-1.41.62,1.07,1.07,0,0,0,.6,1.39h0c.61.24,15.11,5.79,30,5.79s32.33-5.71,32.5-5.77a1.08,1.08,0,0,0-.68-2.06h0Z" fill="#fff"/><path d="M723.33,262.43,730,252.14a5.13,5.13,0,0,0-1.08-6.7l-3.57-2.94s-19.7,5.7-15.86,14.09c.4,1,2.25,3.17,8.31,3.43C717.75,260,721.38,260.28,723.33,262.43Z" fill="#f29981"/><path d="M451.45,394l6.82-6.63s1.43,1.27,6.09-2.41l9.7-5.88s3.53,2.9,5.82-1.42a8,8,0,0,0,5-1.37s11,.78,12.94,15.5c0,0,1.76,13.28-2.19,19.65,0,0-3.86-8.89-22-5.28,0,0-8.72.25-32.27,21.12l1.53-18.59Z" fill="#f29981"/><path d="M541.51,463.14s5.88-2.33,8-3.83C549.53,459.31,547.43,465.18,541.51,463.14Z" fill="#f48225" data-secondary="true"/><path d="M541.51,463.14s5.88-2.33,8-3.83C549.53,459.31,547.43,465.18,541.51,463.14Z" opacity="0.2" style="isolation:isolate"/><path id="ea75e8db-e779-4ade-adeb-15465c6d05aa" data-name="a0438502-c92a-4af3-bc86-65c0dc1ba3bc" d="M426.05,439.69l15.35-12.45s20-19.37,32.27-21.12c0,0,16.74-4.42,22,5.28,0,0,5.85,1.75,13.79,60.66l10.18,80.14s1.75,20.23,10.49,27l13.48,10.49a4.77,4.77,0,0,0-5.88,2,6.06,6.06,0,0,1-5.36,2.69h0s-29.88-21.65-42.91-49.78c0,0-5.7-16.51-9.72-32.73a82,82,0,0,0-2.44-8.2c-3-8.51-9.61-29.38-7.85-42.63l-11.74,11.48s-50.44,40.21-67.42,20.23Z" fill="#f9ad9b"/><g clip-path="url(#efc78d79-080f-42e1-9a45-2479be935a6f)"><path d="M479,509.08s13.09,45.46,31.34,55.44c0,0,0-69.21-1.73-97.44,0,0,9,66.8,11,86.77l29.61,21s13.43,27.89,12.4,28.58-44.81,9.58-45.82,5.48S490,559.36,490,559.36L474.86,520.1Z" fill="#f29981"/></g><path d="M428.77,437.51s21.55,9.78,40.39,9a2.09,2.09,0,0,1,2.21,2,2.05,2.05,0,0,1-.21,1c-1.53,3.31-3.3,8.39-1.73,11.61L457.69,472.6,421.61,444Z" fill="#f29981"/><path d="M350.05,430.13l3.24-5.63,1.9-3.2s8.08-3.65,21,2.28c1,.44,1.88,1,2.85,1.39l18.25,7.61-23-5.2S356.16,425.06,350.05,430.13Z" fill="#f48225" data-secondary="true"/><path d="M355.19,421.3l10.64-20.94s5.05,1.81,18.47-2.25c0,0,12.1-3.25,33.13-17.63.7-.48,2.21.37,1.87,1.14l-8.51,20.16s-3.41,5.77-6.17,8.17c0,0-13.83,17.46.85,24.71,0,0-4.4.18-24.53-8.47C380.94,426.19,367,418.07,355.19,421.3Z" fill="#f29981"/><path id="bc3dbe69-7b0d-4b08-89fc-e94be3136e8e" data-name="e0de4497-d808-478f-a411-75d1beff17ff" d="M287.25,491.73l12.19-13c-12.19,9.22-14.18,6.34-14.18,6.34-1.42-2.59,3.12-3.75,3.12-3.75,6.24-2.88,15.32-9.21,15.32-9.21,12.76-5.76,17-26.21,17-26.21,5.95,5.76,15.31,8.93,15.31,8.93l-4.25,11.23a25.89,25.89,0,0,0-1.16,9.17,49.23,49.23,0,0,1-2.6,18.18c-3.15,9-5.86,7.54-5.86,7.54-4.83.57-1.71-8.93-1.71-8.93.38-2.08.75-4.52,1-6a.39.39,0,0,0-.33-.44.36.36,0,0,0-.3.08,19.14,19.14,0,0,1-2.44,1.67,11.6,11.6,0,0,0-4,4c-1.54,2.52-3,5.29-3,5.29-3.12,8.92-7.09,6.33-7.09,6.33-3.63,0,3.68-13.63,5.91-17.63a.16.16,0,0,0,0-.22.16.16,0,0,0-.23,0h0L296,499.51c-4.61,5.51-7.37,3.16-7.37,3.16-3.44-2.73,4.21-8.22,4.21-8.22s-3.43,2.94-5.54.13A2.82,2.82,0,0,1,287.25,491.73Z" fill="#f9ad9b"/><g clip-path="url(#efc8ebb1-7515-4611-aff7-8510ec82c7ad)"><path d="M314.33,491.34s2-5.92,9.14-10.7a61.67,61.67,0,0,1-2.07,20.28l-4.9,1.34-1.13-8Z" fill="#f29981"/></g><path d="M292.5,494.88a57.57,57.57,0,0,1,4.89-6.61,59.43,59.43,0,0,1,5.66-6,69.06,69.06,0,0,1-10.55,12.61Z" fill="#f29981"/><path d="M328.1,409.06s27.1-84.37,38.46-101.76c0,0-.65,13,11.72,44.47-.89,5.24-2,10.85-3.52,16.76s-3.08,11.2-4.75,16.16a55.21,55.21,0,0,0-5.52,1.58,113.52,113.52,0,0,0-11.85,5.21,69.71,69.71,0,0,0-12.3,7.85Z" fill="#f48225" data-secondary="true"/><path d="M328.1,409.06s27.1-84.37,38.46-101.76c0,0-.65,13,11.72,44.47-.89,5.24-2,10.85-3.52,16.76s-3.08,11.2-4.75,16.16a55.21,55.21,0,0,0-5.52,1.58,113.52,113.52,0,0,0-11.85,5.21,69.71,69.71,0,0,0-12.3,7.85Z" opacity="0.2" style="isolation:isolate"/><path d="M477,355.46s5.17,2.72,5.23,6.91l1.81,7.95,7.1-7.44s-3.42-15.7-3-27.14C488.15,335.74,481.46,349.48,477,355.46Z" fill="#f29981"/><path d="M503.79,273.05s4.3,5.95.3,10.47c0,0-9.86,5.82-6.63,8.53,0,0-10.08,5.17-10.86,12.93l.13,16.93a32.8,32.8,0,0,0-14-10.21s.66-15.58,0-21.2h0a2.5,2.5,0,0,0,2.37-2.63,2.35,2.35,0,0,0-.05-.37,12.38,12.38,0,0,0-4.39-7.36s9.95.39,6.34-7.37c0,0-1.14-6.76.92-11.93C478,260.86,488.2,272.75,503.79,273.05Z" fill="#f29981"/><path d="M511.94,211.2s16.91,20.24,1.39,56.82c-.87,2-3,3.41-4.87,4.32-3,1.4-14.86,2-28.3-8.71a13.9,13.9,0,0,1-4.37-6c-1.47-3.92-3.69-10.23-4.1-13.91l4.83-3.79,4.13-.69s-.25-13.79,8.28-15.51l-10.08-7.93s7-8.53,8.27-8.53S510.39,206.87,511.94,211.2Z" fill="#f9ad9b"/><path d="M533.68,328.85s-5.41,37.68-12.49,46.45a8.65,8.65,0,0,0-1.89,5.9l1,18.27s0,2.33,4.19,2.92c0,0-4,3.15-27.42,6.25,0,0,6.63-28.82-11.85-32.18L484,370l5.69-5.69a3.72,3.72,0,0,0,1-3.34c-.91-4.75-3.1-17.19-2.59-25.22,0,0-7.62,17.06-11.11,20.68L457,294.2l.08-5.77s7.33-7.67,13.66-8.27c0,0,4,2.51,4.59,8.94a1.23,1.23,0,0,1-1.12,1.33h-.3a1,1,0,0,0-.91,1.08v0a66.34,66.34,0,0,1-.19,20.14s9.44,3,14,10.21L486.6,305s.46-7,9.29-12.09a1.86,1.86,0,0,0,.9-1.83c-.26-1.21,0-3.59,5.7-8.12,0,0,3.86-3,1.15-10,0,0,8.55,1.25,11-8.45,0,0,12.34.25,16.28,2.61,0,0,3.36,2.77,14,3.56,0,0,13.22-.4,18.94,3.35,0,0-8.28.59-9.47,19.33v13a18.73,18.73,0,0,1-7.86,2.31,7.6,7.6,0,0,0-4.09,1.53,9,9,0,0,0-3.67,6.89,18.29,18.29,0,0,1-.79,4.08c-.88,2.77-2.43,6.69-4.5,8.28" fill="#686175" data-primary="true"/><path d="M525.5,402.05c2.47-.28,7.69-.44,8.61,3,0,0-7,2.9-10.13,16.43l-.13.41a35.85,35.85,0,0,0,6,32.47c3.21,4.06,9.64,9.81,15.14,9.11,0,0-29.89,3.77-35.57,8.59,0,0-6-48.55-13.79-60.66a15.81,15.81,0,0,0,1.38-2.76s18.63-2.13,26.35-6A6.38,6.38,0,0,1,525.5,402.05Z" fill="#f48225" data-secondary="true"/><path id="ebae3304-e74f-4aeb-b76e-5fc44e1f09f6" data-name="eb36aa96-c03a-4e95-805a-8a550a67b274" d="M534.11,405.05s25.31-15.54,51.68-23.12c0,0,30.5-13.1,39.81,10.34,0,0,4.31,8.27,2.41,33.43,0,0-2.45,37.57-7.65,69a74.78,74.78,0,0,0-1,16.37c.26,4.74,1,9.46,2.75,10.43,0,0,9.6,12.07,35.53,14.11,0,0,5.27.29,9.1-1.57a1.82,1.82,0,0,1,2.39.7c1.65,2.86,4,9-3.76,11.58,0,0-45.85-1.38-62.74-1,0,0-13.78,3.45-8.61-13.44a280.41,280.41,0,0,0-.84-46,69.47,69.47,0,0,0-2.13-11.62c-2.26-8.17-6-28.39,3-52.65,0,0-4.14,2.76-17.58,15.51,0,0-18.54,19.21-33.79,26a1.72,1.72,0,0,1-1.14.09c-1.75-.45-6.88-2.33-12.31-9.59A35.49,35.49,0,0,1,524,421.48S526.3,409.09,534.11,405.05Z" fill="#f9ad9b"/><g clip-path="url(#ec86c618-0ae8-4a13-a1d9-13496871e345)"><path d="M594.06,531.87s8.27,12.69,27.78,13.5l-19.17-.06s-10.53,2.91-9.65-8.17A18.6,18.6,0,0,1,594.06,531.87Z" fill="#f29981"/><path d="M537.9,403s-16.33,26.07-7.16,41.55c0,0,4.48,10.95,12.51,13.6a3.81,3.81,0,0,0,3.14-.35c4.66-2.79,20.54-12.49,30.09-20.72l-35.43,38.13-29.22-39.83,6.59-27.22Z" fill="#f29981"/></g><path d="M563.86,274s8.71-1.15,14.46-4a68.3,68.3,0,0,1,10.22-2.87s7.67-1.92,12.14-4.79a71.17,71.17,0,0,1,23-7.67s41.52-6.7,52.7-9.9a11.89,11.89,0,0,1,9.9-1.59c1.6.63,23.32-6.07,23.32-6.07s6.39-4.16,8.94-.64L748,229.91a1.13,1.13,0,0,1,1.32.72c.47,1.38.3,4.05-6.57,6L725.3,242.5s-19.41,5.84-15.31,13.84c0,0,.21,3.07,7.79,3.48,0,0,6.35,0,6.76,4.3,0,0,1.44,3.28-5.94,3.28,0,0-2.41,1-6.29-.68a7.24,7.24,0,0,0-2.23-.65c-3.48-.38-14-1.93-19.24-7.24a4.39,4.39,0,0,0-3.09-1.42,26.94,26.94,0,0,0-8.19,1.55,20.69,20.69,0,0,0-4.45,2c-8.32,5-42.18,24.89-59.34,27.9,0,0-9.65.35-16.89,5.17,0,0-6.55,4.14-12.75,4.14,0,0-4.48,0-10.34,3.45,0,0-8.33,6-21.4,4.73C554.39,306.35,551.59,276,563.86,274Z" fill="#f9ad9b"/><path d="M720.37,247.5l3,2.1a1.84,1.84,0,0,1,.52,2.47l-4.42,7.28" fill="none" stroke="#ef846c" stroke-miterlimit="10" stroke-width="0.75"/><path d="M717.62,249.56l1.15,2.3a1.59,1.59,0,0,1-.06,1.54l-3.5,5.77" fill="none" stroke="#ef846c" stroke-miterlimit="10" stroke-width="0.75"/><path d="M457,294.2s4.56,5.64,5.42,10.92a30.4,30.4,0,0,0,10.39,6.58s20.35,5.71,15.38,24c0,0-5.48,13.68-10.93,21.05-4.93,15.4-12.05,24-17.67,29.52C456,389.79,452,392.7,448.43,399a49.89,49.89,0,0,0-6.15,18.44c-.23,2.83-.53,6.17-.88,9.76l-15.35,12.45s-22.52-2.21-25.93-9.72c0,0-5.2-8.07,3.93-20.29,0,0,5.11-4.44,8.52-14l6.27-14.1a.85.85,0,0,0-.53-1.08.87.87,0,0,0-.72.08,170,170,0,0,1-23.44,13.6s-14.66,7.2-25,6.67a4.73,4.73,0,0,0-4.57,2.68c-2.49,5.27-7.63,15.82-11.3,21,0,0-2.21,5-5.1,7.64a17.2,17.2,0,0,0-5.11,8.07,49.37,49.37,0,0,0-1.16,5.66s-2.24,11.55-7.41,13.1a38.49,38.49,0,0,0-13.1-9.83s-8.62-6-7.76-13.1l-5.72-7.41a3.14,3.14,0,0,1,.48-4.35c5.58-4.62,20-16.48,31.08-24.71a99.35,99.35,0,0,1,13.26-8.38c4.56-2.39,10.35-5.15,14.46-6.13a5.42,5.42,0,0,0,3.9-3.58A231.09,231.09,0,0,0,377.85,354a8,8,0,0,0-.4-4.36c-3-7.68-13.1-34.45-10.9-42.39,0,0,3.68-9.09,10.23-10.81,0,0,9.34,17.34,28.12,27.85,0,0,2.5,8.47,8.36,12.09,0,0,14.47,6,20.16,13.44l6.38-4.13,1-21.63,6-6.85-.11-.15a2.22,2.22,0,0,1,.17-2.92L458,302.78S459.11,300,457,294.2Z" fill="#f48225" data-secondary="true"/><path d="M404.91,324.34S407.15,334,412.5,337c0,0,15.91,6.16,20.93,12.88l7.64-4.51a20.58,20.58,0,0,0-5.66-3.16A352.2,352.2,0,0,1,404.91,324.34Z" fill="#f29981"/><path d="M313.65,436s9-21.45,26.65-31.23c0,0-23.9,25.9-19.41,43.64C320.89,448.45,312.93,443.31,313.65,436Z" opacity="0.2" style="isolation:isolate"/><path d="M379.38,300.8l2.25,17.43s1,8.7,16.88,14.92c0,0,26.8,11.19,34.92,16.72,0,0-6.87-8.21-20.16-13.44,0,0-4.16-1.82-8.36-12.09C404.91,324.34,387.45,313.76,379.38,300.8Z" fill="#f48225" data-secondary="true"/><path d="M379.38,300.8l2.25,17.43s1,8.7,16.88,14.92c0,0,26.8,11.19,34.92,16.72,0,0-6.87-8.21-20.16-13.44,0,0-4.16-1.82-8.36-12.09C404.91,324.34,387.45,313.76,379.38,300.8Z" opacity="0.2" style="isolation:isolate"/><path d="M394.26,278.51s7.44-1.55,25.9,21.17c0,0,9.27-8.56,10.73-14.61,0,0-1.22-1.51-2.44-5.92,0,0-2.58-6.16-9.29-4.94,0,0-11.41.8-14.93,1A13.75,13.75,0,0,0,394.26,278.51Z" fill="#7a383a"/><path d="M394.26,278.51s7.44-1.55,25.9,21.17c0,0,9.27-8.56,10.73-14.61,0,0-1.22-1.51-2.44-5.92,0,0-2.58-6.16-9.29-4.94,0,0-11.41.8-14.93,1A13.75,13.75,0,0,0,394.26,278.51Z" opacity="0.2" style="isolation:isolate"/><path d="M496.3,282.3c5.35-6-.41-6.3-.41-6.3-6.32,1.17-10.16-.78-11.85-2a1.23,1.23,0,0,0-1.71.26l-.09.15a14.19,14.19,0,0,0-1.54,5.67,11.3,11.3,0,0,0,1.38,5.8,6.88,6.88,0,0,1,.44,5,14.52,14.52,0,0,0-.27,4.31,9.48,9.48,0,0,0,1.85,5.14s1.62-7.87,7-12.48a20.14,20.14,0,0,0,2.24-2.19Z" fill="#f9ad9b"/><path d="M512.58,212.1a14.86,14.86,0,0,1-8.09.51,21.23,21.23,0,0,0-10.59-.21,27.92,27.92,0,0,0-7.09,2.9,2.5,2.5,0,0,0-1.23,1.64c-.15.74.05,1.66,1.45,2.42l2.19,1.87a2,2,0,0,1,.19,2.82,1.79,1.79,0,0,1-.28.27,19,19,0,0,0-7.66,14.42,1.13,1.13,0,0,1-1.19,1.07h0l-2.71-.15-2.86,2.05-1.71-27,30.38-8.22,6.75,2.17Z" fill="#f29981"/><path d="M484.1,219.23s-5.17-3.79,4.48-6.54c0,0,7.24-3.45,14.13-2.42,1,.35,12.41,3.79,11-4.13,0,0-4.13-21.37-27.92-11,0,0-25.85,6.2-28.26,26.54,0,0-1.72,12.41,14.13,22.06l4.83-3.79,3.25-.55a1.15,1.15,0,0,0,1-1c.25-2.85,1.45-11.74,6.6-14.56a1.18,1.18,0,0,0,.48-1.61,1.13,1.13,0,0,0-.33-.39Z" fill="#7a383a"/><ellipse cx="474.73" cy="243.92" rx="4.78" ry="7.76" transform="translate(-50.88 151.2) rotate(-17.19)" fill="#f9ad9b"/><path d="M488.26,269c-5.42-2-10.45-7.55-10.45-7.55l-8.16-18.07.67-1.5,1.1-.12,2.33,5.13a1.82,1.82,0,0,0,1,.93c1.5.63,5,2.31,5,4.27a8.5,8.5,0,0,1-1.72,4.26s1.13,2.75.32,4.9A45.38,45.38,0,0,0,488.26,269Z" fill="#f29981"/><path d="M431,259.86l9.31-6.85s1.23-.86,3.69.9a.18.18,0,0,0,.25,0l0,0c.5-1.07,2.53-6.12-1.32-10.43a1.54,1.54,0,0,1,.15-2.17,1.24,1.24,0,0,1,.23-.17c2.61-1.56,6.6-5,2.59-9.89a1.34,1.34,0,0,1-.11-1.57c1.25-2,5.17-6.54,16.89-3.47,0,0,8.49,12.39,10.82,21.71.25,1,9.05,1.76,4,8.3,0,0,1.15,3.46.24,5.27a21.93,21.93,0,0,0-1.06,8.12,15.65,15.65,0,0,0,1,4.64c.72,2.05.85,5.7-7,6,0,0-3.64-.68-12.72,7.42a2.84,2.84,0,0,0-1,2.08l-.06,3.8a3.38,3.38,0,0,0,.26,1.37c.63,1.52,2,5.48.8,7.95l-12.53,12.8,1.29,1.68-6,6.85L420,299.7s2.32-2.12,5-5.09a30.61,30.61,0,0,0,7.67-19.9A49.93,49.93,0,0,0,431,259.86Z" fill="#f9ad9b"/><path d="M449.84,359.59l11.3,9.5a20.19,20.19,0,0,0,1.16,6.2s-3.1,3.49-3.75,4c-2.71,3.62-.26,4.91-.26,4.91-1.24,3,0,3.68,1.17,3.72a3.94,3.94,0,0,0,2.25-.7L474.06,379c4,3,5.82-1.42,5.82-1.42a7.27,7.27,0,0,0,4.5-.58,1.49,1.49,0,0,0,.91-1.36l-3.08-13.31c.25-2.59-3-6.2-3-6.2L457,344.43l-16.15-20.32-20.68-24.43L410.6,289c-17.84-19.13-28.7-9.05-28.7-9.05s-13.44,9.57-2.58,20.68c0,0,4.73,15.57,56.09,41.62,0,0,5.43,1,9,11.38,0,0,.87,3.8,3.7,5A8.37,8.37,0,0,1,449.84,359.59Z" fill="#f9ad9b"/><path d="M420.16,299.68l20.68,24.43,6-6.85h0a2.45,2.45,0,0,1,.19-3.2l11-11.28a11,11,0,0,0-1-8.58c.21,12.89-17.93,21.5-17.93,21.5-6.07-2.45-11.63-12.79-11.63-12.79-.62-2,.85-4.5,2.13-6.16a29,29,0,0,0,4.31-7.59c5-13.75.54-27.1.54-27.1l-3.36-2.2S438.89,283,420.16,299.68Z" fill="#f29981"/><path d="M470.7,280.16s-2.37-.17-6.07,2.24c0,0-5.09-.69-9.83-7.58C454.8,274.82,460.32,279.21,470.7,280.16Z" fill="#f29981"/><path d="M462.57,228a16.72,16.72,0,0,1-6,11s-8,7.23-6.66,15.12c0,0-4.2-4.52-.56-12.49a18.36,18.36,0,0,1,2.64-4,9.61,9.61,0,0,0,1.59-9.35s-1.05,5.87-4.4,9.83a12.31,12.31,0,0,0-2.47,5.13c-.85,3.66-1.88,9.12-1.15,11.36a15.79,15.79,0,0,1-9.86-4.21l2.49,2.86A23.62,23.62,0,0,1,436.4,263a38.58,38.58,0,0,0-3.47,11.09,5.31,5.31,0,0,1-.1.68,13.75,13.75,0,0,0,3.72,11.58,7.42,7.42,0,0,0,4.81,2.47s-11.41,2-12.79-9.38a.59.59,0,0,0-.12-.29,8.63,8.63,0,0,0-9.23-4.95,117.48,117.48,0,0,1-15,1,17.29,17.29,0,0,0-10,3.29,13.67,13.67,0,0,0-3.69,4.07,10.38,10.38,0,0,0,.12,10.16c1.85,3.37,4,10-3.92,14.74a8.45,8.45,0,0,0,1.06-7,4.87,4.87,0,0,0-1.94-2.4c-.89-.62-2.09-2.31-1.65-6.86,0,0-3.56.51-4.09,6a17.84,17.84,0,0,1-3.7,9.53c-3.33,4.11-9.26,7.54-19.08,2.19l-6-3.94h0s26.88-.88,27.8-23.88l-2.29-14h0c-.16-.5-6.86-21.32,15.25-28.16l1.06-.32s16.07-2.9,24.35-13.72h0a23.09,23.09,0,0,1,2.24-2.6,35.47,35.47,0,0,1,20.6-9.86,35.09,35.09,0,0,1,12.74,1,2.71,2.71,0,0,1,.41.09h0C455.57,214.07,464,216.86,462.57,228Z" fill="#7a383a"/><ellipse cx="434.4" cy="255.09" rx="5.93" ry="8.66" transform="translate(-53.14 381.88) rotate(-45)" fill="#f9ad9b"/><path id="f57a53cd-4743-4a9c-9315-2aa9cad2d7f0" data-name="e5a64d1c-b5e7-42a3-81b0-e60214b2b18d" d="M518.57,612s12.24-6.55,16.72-15.34c0,0-32.26-22.64-45.85-52,0,0-18.61-30-25.59-62.56L458.52,465A77.32,77.32,0,0,1,456,454.84c-.51-3-2.57-7.91-10.46-9.49l-19.45-5.66s-13.82-1.4-20.37-5c0,0-25.14-6.69-40.07-8.8a22.61,22.61,0,0,0-12.54,1.81,10.42,10.42,0,0,0-2.28,1.28s-2.2,3.55-4.56,4.5c0,0-2.74,1.29-4.31,12.41a33.28,33.28,0,0,1-3.44,9.25s-2.49,22.57,8.28,30c0,0,4.89,5.73,21.86,7.92a87.52,87.52,0,0,0,26-.65C403,491,416.84,489.1,428,489.9c0,0,4.11,39.55,22,56.09,0,0,23.7,29.27,36.87,47.62a40.57,40.57,0,0,1,6.08,12.4c.26.92.49,1.84.65,2.71C493.58,608.73,510.48,605.78,518.57,612Z" fill="#f9ad9b"/><g clip-path="url(#ac98d228-0693-4724-b067-27860625b09e)"><path d="M365.57,425.86s-25.76,32.15-9,53.69a28.73,28.73,0,0,0,23.29,10.8A80.55,80.55,0,0,0,399,487.42a37.72,37.72,0,0,1,4.47-.93c5.35-.76,17.12-1.68,24.5,3.42l-61.2,12.48L340.09,484.3,335,459.56s.38-11.62,1.14-13.52,9.52-23.6,10.09-23.6,18.08.95,18.08.95Z" fill="#f29981"/></g><path d="M475.55,207.74a7.94,7.94,0,0,0,3.54,1.13,9,9,0,0,0,3.65-.43,14.81,14.81,0,0,0,1.7-.7,9.84,9.84,0,0,0,1.56-1c.25-.18.49-.37.73-.56s.51-.41.78-.59a17.24,17.24,0,0,1,1.65-1,12.91,12.91,0,0,1,3.67-1.28,11.64,11.64,0,0,1,7.51,1.3c.57.29,1.07.7,1.61,1a7.74,7.74,0,0,1,1.44,1.24,14.73,14.73,0,0,0-6.76-3,12.06,12.06,0,0,0-7.12,1.39,14.49,14.49,0,0,0-1.58,1c-.25.17-.49.36-.74.55s-.51.4-.77.58A11,11,0,0,1,482.9,209a9.27,9.27,0,0,1-3.85.25A7.43,7.43,0,0,1,475.55,207.74Z" fill="#5b282c"/><path d="M483.22,201.92a30.66,30.66,0,0,1,8.92-3.08,18,18,0,0,1,4.75-.25,7.33,7.33,0,0,1,4.37,1.76,8.73,8.73,0,0,0-4.4-1.17,23.7,23.7,0,0,0-4.6.4c-1.52.25-3,.63-4.54,1S484.72,201.44,483.22,201.92Z" fill="#5b282c"/><path d="M503.82,198.08l-2.49-.78c-.82-.25-1.64-.51-2.47-.72s-1.65-.42-2.48-.56a15.82,15.82,0,0,0-2.57-.21,6.67,6.67,0,0,1,2.62-.37,12.31,12.31,0,0,1,2.63.41,15.68,15.68,0,0,1,2.48.91A12.64,12.64,0,0,1,503.82,198.08Z" fill="#5b282c"/><path d="M384.76,258.41a12.09,12.09,0,0,1,.37-2.31,15,15,0,0,1,.73-2.24,13.77,13.77,0,0,1,2.51-4,13.52,13.52,0,0,1,1.75-1.63,13.78,13.78,0,0,1,2.06-1.22,14.85,14.85,0,0,1,4.56-1.33h0a17.07,17.07,0,0,0,2.25-.39,22.2,22.2,0,0,0,2.25-.65,14.08,14.08,0,0,0,2.14-.95,3.63,3.63,0,0,0,1.62-1.62,3.46,3.46,0,0,1-1.48,1.84,10.56,10.56,0,0,1-2.12,1.14,20.22,20.22,0,0,1-2.26.8,12.21,12.21,0,0,1-2.4.51h.05l-1.12.24a7,7,0,0,0-1.1.26,14.3,14.3,0,0,0-4.05,2,14.16,14.16,0,0,0-1.69,1.5,14.6,14.6,0,0,0-2.61,3.72A18,18,0,0,0,384.76,258.41Z" opacity="0.2" style="isolation:isolate"/><path d="M388,258.77a16.36,16.36,0,0,1,5.58-7,17.8,17.8,0,0,1,4-2.17,21,21,0,0,1,2.16-.71l1.1-.26.55-.12.5-.16a17,17,0,0,0,7.33-4.66,8.28,8.28,0,0,0,.71-.84,7.9,7.9,0,0,0,.64-.88,16.22,16.22,0,0,0,1-2,10.13,10.13,0,0,1,2.79-3.51,10.56,10.56,0,0,0-2.45,3.67,17.44,17.44,0,0,1-1,2.06,8.69,8.69,0,0,1-.63.95,6.78,6.78,0,0,1-.7.9,17.06,17.06,0,0,1-7.52,5c-.19.06-.36.11-.58.16l-.54.12-1.09.23c-.71.19-1.41.4-2.1.66a21.2,21.2,0,0,0-3.91,2,18.28,18.28,0,0,0-3.33,2.88A16.17,16.17,0,0,0,388,258.77Z" opacity="0.2" style="isolation:isolate"/><path d="M424.06,247.1a5.64,5.64,0,0,1-.23-3.69,10,10,0,0,1,1.65-3.4,16.74,16.74,0,0,1,2.54-2.78c1-.82,1.91-1.57,2.81-2.41a51.07,51.07,0,0,0,5.12-5.28,20,20,0,0,0,2.07-3,8.54,8.54,0,0,0,1.12-3.47,7.85,7.85,0,0,1-.79,3.63,19.44,19.44,0,0,1-1.94,3.21,38.79,38.79,0,0,1-5.07,5.49c-.92.83-1.91,1.62-2.85,2.38-.47.4-.91.82-1.35,1.24a10.34,10.34,0,0,0-1.2,1.36,10,10,0,0,0-1.76,3.15A5.74,5.74,0,0,0,424.06,247.1Z" opacity="0.2" style="isolation:isolate"/><path d="M386.19,270.25s-.53-8.07,10.05-11.66c0,0,15.08-3.59,14.72-14.72,0,0-5.26,6.65-10.47,7.75a18.42,18.42,0,0,0-4.85,1.6C391.6,255.33,385.72,260.16,386.19,270.25Z" opacity="0.2" style="isolation:isolate"/><path d="M401.45,262s8.79.71,12.92-13.82c0,0,3.59-15.8,15.26-17.23,0,0-8.75,4.37-9.52,11.73a27.06,27.06,0,0,1-1.6,7.22C416.17,255.89,411,264.66,401.45,262Z" opacity="0.2" style="isolation:isolate"/><path d="M387.45,275.64a10.62,10.62,0,0,1,.69-2.48,11.53,11.53,0,0,1,5.05-5.76,13.79,13.79,0,0,1,5-1.58c1.7-.18,3.37-.38,5.05-.69a46.78,46.78,0,0,0,9.8-2.61,20.22,20.22,0,0,0,4.45-2.37,12.51,12.51,0,0,0,1.92-1.64,10.38,10.38,0,0,0,1.46-2.08,10,10,0,0,1-3.15,4,20.76,20.76,0,0,1-4.46,2.61,44.26,44.26,0,0,1-9.9,2.82c-1.68.28-3.41.47-5.1.62a14.38,14.38,0,0,0-4.76,1.41A12,12,0,0,0,387.45,275.64Z" opacity="0.2" style="isolation:isolate"/><path d="M462.57,228a16.72,16.72,0,0,1-6,11,15.65,15.65,0,0,0,3-4.38,16,16,0,0,0,0-12.75,20.67,20.67,0,0,0-6-8.19C455.57,214.07,464,216.86,462.57,228Z" opacity="0.2" style="isolation:isolate"/><path d="M440.41,212.48c-12.69,2.61-22.26,11.87-22.84,12.45a23.09,23.09,0,0,1,2.24-2.6,35.47,35.47,0,0,1,20.6-9.86Z" fill="#9e1e2b"/><path d="M376.89,267.17h0c-.16-.5-6.86-21.32,15.25-28.16C376.68,247.44,376.89,267.17,376.89,267.17Z" opacity="0.2" style="isolation:isolate"/><path d="M379.81,299.45s-3.61,19.36-22.45,9.57l-6-3.94C352,305.37,369.66,313.32,379.81,299.45Z" opacity="0.2" style="isolation:isolate"/><path d="M458.29,384.21c.66-.64,1.35-1.24,2-1.85s1.4-1.18,2.1-1.76c1.43-1.14,2.87-2.27,4.35-3.33l-.19.44a75.2,75.2,0,0,1-.45-8.22,73.91,73.91,0,0,1,1.41,8.11v.27l-.23.18c-1.44,1.12-2.93,2.18-4.42,3.22l-2.28,1.52C459.81,383.31,459.1,383.76,458.29,384.21Z" fill="#f29981"/><path d="M474.06,379a24.16,24.16,0,0,1-1-5.05,23.34,23.34,0,0,1,0-5.15,24.16,24.16,0,0,1,1,5.05A23.34,23.34,0,0,1,474.06,379Z" fill="#f29981"/><path d="M479.88,377.62a20.88,20.88,0,0,1-.74-4.77,20,20,0,0,1,.26-4.82,23.33,23.33,0,0,1,.48,9.59Z" fill="#f29981"/><path d="M485.7,592.19s6.42,7.57,7.88,16.54a40.61,40.61,0,0,1-5.27.92,27.83,27.83,0,0,1-11.42-1.28,8,8,0,0,0-7.89,1.77,13,13,0,0,1,4.57-8,11.48,11.48,0,0,1,5.7-2.3C482,599.48,487.34,598,485.7,592.19Z" fill="#e0b08f"/><path d="M525.92,574.14a17.25,17.25,0,0,0,4.84,5.53l12.83,10,16-6.49s-10.73,2.68-16.42-4.75a16.87,16.87,0,0,0-2.91-3C536.88,572.73,530.34,568.78,525.92,574.14Z" fill="#e0b08f"/></g></svg>