<svg id="ae6dd07b-3783-416e-becf-ede9269144aa" data-name="Layer 1" xmlns="http://www.w3.org/2000/svg" xmlns:xlink="http://www.w3.org/1999/xlink" width="865.76" height="682.89" viewBox="0 0 865.76 682.89"><defs><clipPath id="e3c0c219-54a9-43f3-a040-429696d49a55"><rect id="fa68a3e1-88ae-49ff-a223-8c918958709d" data-name="SVGID" x="218.52" y="41.1" width="463.95" height="337.46" fill="none"/></clipPath></defs><polygon points="230.31 103.16 229.51 150.82 240.5 150.82 240.05 103.16 230.31 103.16" fill="none" stroke="#000" stroke-miterlimit="10"/><polygon points="227.56 103.16 243.13 103.16 242.57 82.52 228.12 82.52 227.56 103.16"/><line x1="235.35" y1="103.16" x2="235.35" y2="30.7" fill="none" stroke="#000" stroke-miterlimit="10"/><rect x="601.1" y="397.8" width="16.53" height="79.59" fill="#926ef6"/><rect x="601.1" y="397.8" width="16.53" height="23.62" fill="#926ef6"/><rect x="283.35" y="397.8" width="16.53" height="79.59" fill="#926ef6"/><rect x="283.35" y="397.8" width="16.53" height="23.62" fill="#926ef6"/><rect x="207.96" y="30.55" width="485.06" height="358.56" fill="#e6dffe"/><rect x="218.52" y="41.1" width="463.95" height="337.46" fill="#e6e7e8"/><g clip-path="url(#e3c0c219-54a9-43f3-a040-429696d49a55)"><path d="M593.58,230.77,597.9,237a2,2,0,0,1-.5,2.72l-4,2.74Z" fill="#ffada5"/><path d="M539.25,277.74s-31.65,13.44-47.62,35.48-27.27,144.15-27.27,144.15,19.2,1.88,53.13,20.73,58.08,25,95.19,16.81S647,427.36,673,419.53c0,0-19.81-37.91-42.42-68.43s-61.85-54.28-61.85-54.28Z" fill="#f48225" data-secondary="true"/><path d="M623.86,428.13l-65.6,11.25s13.15,35.14,42.66,38.72,107.52-2.64,107.52-2.64l31.09-30C733.07,434.74,623.86,428.13,623.86,428.13Z" fill="#ffcfb6"/><path d="M739.53,445.5l-39.35,17.78s-12.87,26-13.08,53.55S683,602.91,683,602.91l22.86,2.81S742.12,458.43,739.53,445.5Z" fill="#ffcfb6"/><path d="M547.94,242.93l-11,44.14,32.22,18.84s-2.54-38.29,2.54-46.86Z" fill="#fccdc3"/><path d="M548.05,243.9l-5.62,25.58c9.52,4.19,20.47,4,26.75,2.21.47-5.12,1.28-9.43,2.61-11.68Z" fill="#fc9189"/><path d="M538,282.91s-31.57,23.25-16.3,59.14,38.61,103.08,38.61,103.08l63.59-17s-5.59-25.86-9-49.67c-1.13-7.94,10.18-28,.85-36.19-28.66-25.22-46.88-41.8-46.88-41.8Z" fill="#ffcfb6"/><path d="M558.26,439.38s13.15,35.14,42.66,38.72,107.52-2.64,107.52-2.64-3.4,28.83,5.65,54.83,26,82.23,26,82.23l21.48-4.78s-15.26-150.93-22-162.24c-6.46-10.76-115.67-17.37-115.67-17.37Z" fill="#ffcfb6"/><path d="M747.72,488.71l-39.66,8.84a121.72,121.72,0,0,0,6,32.74c1.81,5.21,3.94,11.63,6.19,18.57,13.93-5.44,25.39-10.65,33.24-14.42C751.67,518.82,749.68,502.8,747.72,488.71Z" fill="#ffada5"/><path d="M623.86,428.13s103.37,7.2,115.8,12.85,25.43,87.62,25.43,87.62-43.22,9.61-86.31,9.61V481.62s-74,.77-88-2.41-30.54-34.08-30.54-34.08Z" fill="#f48225" data-secondary="true"/><path d="M590.81,479.21c14,3.18,88,2.41,88,2.41v56.59a393.21,393.21,0,0,0,46.9-3.12c-5.38-16.75-15.38-49.47-13.69-55.88,2.3-8.69,11.71-12.76,11.71-12.76s-109,12.4-129.32,5.62-34.11-26.94-34.11-26.94S576.85,476,590.81,479.21Z" fill="#c87946"/><ellipse cx="560.43" cy="229.63" rx="32.57" ry="43.43" transform="translate(-45.17 221.62) rotate(-21.52)" fill="#fccdc3"/><path d="M761.57,607.74s7.95,9.79,15.68,18.09,27.23,19.78,24.68,23.17-58.32-11-65.38-17.24c-3-2.68,2.09-24,2.09-24Z" fill="#ffcfb6"/><path d="M737.52,612.86l24.05,10.42s-2.92-10.21,4-10.76c0,0,18.77,16.13,28.67,21.22s7.95,16.65,7.95,16.65S761.7,645.05,734,632.61C734,632.61,732.87,625.54,737.52,612.86Z" fill="#21224f"/><path d="M705.72,605.72s6.69,10.7,13.34,19.88,24.6,23,21.66,26-56.53-18.09-62.78-25.12c-2.69-3,5-23.59,5-23.59Z" fill="#ffcfb6"/><path d="M681.23,607.86l22.59,13.29s-1.66-10.5,5.26-10.19c0,0,16.65,18.31,25.84,24.57s5.86,17.5,5.86,17.5-39.5-10.26-65.47-26C675.31,627,675.06,619.88,681.23,607.86Z" fill="#21224f"/><rect x="646.42" y="307.77" width="73.1" height="5.8" rx="2.9" transform="translate(-19.64 573.92) rotate(-45)" fill="#5f2e9b"/><path d="M699.73,298.56s-.44-1.27-3.29-.3-20.9,21.28-20.9,21.28l-9.38,5.38s8.63-10.81,10.38-15.47a8.8,8.8,0,0,0-.65-8l-7.84,8s-10.65,9.34-12,12.47-3.85,20.3-3.85,20.3l13.46,9s25.94-15.16,26.76-18.45,4.14-12.56,4.14-12.56,1.76-5.21,2.38-7.54-.74-9.9-.74-9.9Z" fill="#fccdc3"/><path d="M539,305.7s18.25,8.13,32.68,36.52,25.68,48.72,25.68,48.72l54.79-48.72L671,348s-48.7,80.41-79.08,85.62c0,0-31.09-20.79-61.44-75.45C530.47,358.16,530,326.57,539,305.7Z" fill="#fccdc3"/><path d="M591.91,433.61C622.29,428.4,671,348,671,348s-66.32,73.75-79.08,74.33-61.44-64.16-61.44-64.16C560.82,412.82,591.91,433.61,591.91,433.61Z" fill="#ffada5"/><path d="M551.13,245.71c.5,6.73,5.8,58.57,34.42,81.91,0,0-20.57-3.37-28.2-13.55s-11-75.73-11-75.73Z" fill="#1d0031"/><path d="M620.27,602.53C607.55,579.3,608.4,480.76,608.4,480.76H586.33s.85,98.54-11.87,121.77S516,642.19,516,653.06H678.78C678.78,642.19,633,625.76,620.27,602.53Z" fill="#d1d3d4"/><path d="M620.27,602.53C607.55,579.3,608.4,480.76,608.4,480.76h-5.51c-.49,30.21-.85,110,8.73,128.51,6.71,12.94,17.74,30.74,26.07,43.79h41.09C678.78,642.19,633,625.76,620.27,602.53Z" fill="#bcbec0"/><path d="M501.33,308.89c-38.16,30.53-14.7,202.87,43.95,202.87H673.4c36.09,0,45.13-70.56,34.3-84.32s-98.76,6.2-116.81-15C571.89,390.1,541.72,276.57,501.33,308.89Z" fill="#5f2e9b"/><path d="M700.6,493.19c-12.77,7.71-91.52,12.64-123.75-6.59s-62.74-173.27-76.91-173.27l-3.4.55c-31.17,40.78-7.26,197.88,48.74,197.88H673.4C685.34,511.76,694.32,504,700.6,493.19Z" opacity="0.43"/><path d="M591.91,498.08c28.66-3.34,17.13-51.74,23.92-78.89s19.47-62,19.47-62c-1.64-2-3.23-4.06-4.74-6.1-22.62-30.53-61.85-54.28-61.85-54.28l-29.46-19.08s-31.65,13.44-47.62,35.48-27.27,144.15-27.27,144.15,18.69,2.83,53.13,20.73C560.27,500.33,591.91,498.08,591.91,498.08Z" fill="#f48225" data-secondary="true"/><path d="M590.81,197c2.12,8.33-28.92,23.78-28.92,23.78s-3.75,19.15-11.4,27.6c0,0,5.86,25.5-3.85,33.07s-20.74,6.24-33,19-17.5,33.1-17.5,33.1S475,313.68,476.72,293.31s21.12-33.8,29.93-48.84c8.56-14.6,2-46.55,14.66-58.21S588.69,188.7,590.81,197Z" fill="#1d0031"/><path d="M550.49,248.41c7.65-8.45,11.4-27.6,11.4-27.6A161.89,161.89,0,0,0,580.22,210c-16.75,2.4-38-5.41-38-5.41s-21.93,24.65-31.33,25.7c-.78,5.47-2,10.44-4.2,14.23-8.81,15-28.23,28.48-29.93,48.84s19.39,40.26,19.39,40.26,5.2-20.35,17.5-33.1,23.31-11.41,33-19S550.49,248.41,550.49,248.41Z" fill="#10011c"/><ellipse cx="584.9" cy="227.17" rx="2.27" ry="3.66" transform="translate(-15.25 44.06) rotate(-4.26)"/><path d="M578.61,242.91S581.07,253.53,590,250" fill="none" stroke="#fc9189" stroke-linecap="round" stroke-linejoin="round"/><ellipse cx="584.98" cy="227.23" rx="0.63" ry="0.84" fill="#fff"/><path d="M579.06,223.14a7.24,7.24,0,0,1,3.17-4.32,6.76,6.76,0,0,1,5.06-.65.89.89,0,0,1,.62,1h0a.89.89,0,0,1-1.07.74C585.24,219.52,581.86,219.36,579.06,223.14Z"/></g><rect x="185.8" y="389.11" width="529.38" height="20.06" fill="#5f2e9b"/><g opacity="0.5"><polygon points="419.85 41.1 359.78 378.56 368.65 378.56 428.72 41.1 419.85 41.1" fill="#fff"/><polygon points="436.92 41.1 376.85 378.56 396.94 378.56 457.01 41.1 436.92 41.1" fill="#fff"/><polygon points="571.84 41.1 511.76 378.56 531.85 378.56 591.92 41.1 571.84 41.1" fill="#fff"/></g><polygon points="185.8 389.11 715.18 409.17 715.18 389.11 185.8 389.11" opacity="0.43"/><path d="M509.83,230.06l4.32,6.25a2,2,0,0,1-.5,2.72l-4,2.75Z" fill="#ffada5"/><path d="M351.28,147.88s-5.5,16.55,4.65,27.81-3.34,17.21,7,26.26,8.78,19-24.08,19.55S317,198.25,318.1,169s10-36.34,23.88-31.4S351.28,147.88,351.28,147.88Z" fill="#1d0031"/><path d="M343.68,201.16s12.64,4,24.84,25.64,24.35,52.87,24.35,52.87,2,38.59-10.14,39-48.27-67.58-48.27-67.58S327.64,216.87,343.68,201.16Z" fill="#fc9189"/><path d="M336.38,195.29s19.18,4.17,49.78,51.11c0,0-17.16,39.67-38.43,48.84,0,0-18-30.21-17.09-56.59S336.38,195.29,336.38,195.29Z" fill="#686175" data-primary="true"/><path d="M303.38,320.47S299,335.37,304.91,377s23.69,81.47,19.86,96.73S313.68,531.79,333,620.19h23s4.76-105.26,8.79-163.6-2.64-135.17-2.64-135.17Z" fill="#fccdc3"/><path d="M362.24,321.42l-58.86-.95S299,335.37,304.91,377s23.69,81.47,19.86,96.73c-3.33,13.28-9.25,47.4,2,114.2-4.78-87.27,7.61-106.57,7.5-114.48s-5.76-51.06,2.37-64.44c5.08-8.36,19.24-16.48,29.16-21.41C364.82,351.11,362.24,321.42,362.24,321.42Z" fill="#fc9189"/><path d="M283.58,320.47s-10.53,14.9-11.95,56.51,10.24,81.47,3.74,96.73-15,58.08-11.09,146.48h23.31S307,514.93,321.26,456.59s21-135.17,21-135.17Z" fill="#fccdc3"/><path d="M333.91,390c5.63-37.55,8.36-68.53,8.36-68.53l-58.69-.95s-10.53,14.9-11.95,56.51,10.24,81.47,3.74,96.73c-4,9.34-8.69,29-10.86,63.1,8.45-31,21.25-63.88,21.25-66.48,0-3.66-12.54-55.17-2.26-63.62C293.23,398.72,329.94,390.79,333.91,390Z" fill="#fc9189"/><path d="M376.27,458.19s-28.48,7.56-79.59.73c0,0-4.41-92,3.08-127.63.08-.37.15-.74.24-1.09a34.37,34.37,0,0,1,3.38-9.73l59.48.95s.16,1.76.44,4.9c0,.39.08.81.12,1.24C365.45,349.81,372.52,426.55,376.27,458.19Z" fill="#21224f"/><path d="M343.68,332.11,347,321.17l-43.64-.7c-12.34,20.59-11,138.16-11,138.16,25.17,3.37,46.79,3.85,60.28,2.86Z" opacity="0.2"/><path d="M343.68,324.73c-.24,2.67-.56,6-.93,10,0,.36-.06.73-.1,1.1-3.59,38.38-12,125.67-12,125.67a269,269,0,0,1-74-10.86c9.92-86.81,19.28-115.94,23.9-125.55.15-.33.3-.63.45-.91,1.62-3.15,2.55-3.7,2.55-3.7Z" fill="#21224f"/><path d="M424.07,227.87s7-18.42,9.18-20.62,18.36-3.74,18.36-3.74,2.92,3.61.24,6.21a4.9,4.9,0,0,1-.54,6.67s0,4.49-2.94,6.21c0,0-.62,4.4-2.13,5.55s-2.12,7.23-9.52,9.32Z" fill="#fc9189"/><rect x="405.42" y="199.18" width="71.93" height="2.67" rx="1.33" transform="translate(221 632.32) rotate(-87.39)" fill="#fc87b1"/><path d="M443.2,197.45l0-.74,7.88.36a.44.44,0,0,0,.45-.42h0a.42.42,0,0,0-.41-.45l-7.88-.36,0-.74,7.89.36a.43.43,0,0,0,.45-.41h0a.43.43,0,0,0-.41-.45l-7.89-.36,0-.74,7.89.36a.44.44,0,0,0,.45-.42h0a.43.43,0,0,0-.41-.45l-7.89-.36,0-.74,7.88.36a.43.43,0,0,0,.45-.41h0a.43.43,0,0,0-.41-.45L443.5,191l0-.74,7.89.36a.44.44,0,0,0,.45-.41h0a.44.44,0,0,0-.42-.45l-7.88-.36,0-.74,7.89.36a.43.43,0,0,0,.45-.41h0a.43.43,0,0,0-.41-.45l-7.89-.36,0-.74,7.88.36A.43.43,0,0,0,452,187h0a.44.44,0,0,0-.41-.46l-7.88-.36,0-.73,7.88.35a.43.43,0,0,0,.46-.41h0a.44.44,0,0,0-.42-.45l-7.88-.36,0-.74,7.89.36a.43.43,0,0,0,.45-.41h0a.44.44,0,0,0-.41-.46l-7.89-.35,0-.74,7.88.36a.44.44,0,0,0,.45-.42h0a.43.43,0,0,0-.41-.45l-7.89-.36,0-.74,7.88.36a.44.44,0,0,0,.46-.41h0a.44.44,0,0,0-.42-.45L444,179.8l0-.74,7.89.36a.44.44,0,0,0,.45-.42h0a.43.43,0,0,0-.41-.45l-7.89-.36,0-.74,7.89.36a.43.43,0,0,0,.45-.41h0A.43.43,0,0,0,452,177l-7.89-.36,0-.74,7.88.36a.44.44,0,0,0,.45-.42h0a.42.42,0,0,0-.41-.45l-7.88-.36,0-.74,7.89.36a.43.43,0,0,0,.45-.41h0a.43.43,0,0,0-.41-.45l-7.89-.36,0-.74,7.89.36a.43.43,0,0,0,.45-.41h0a.43.43,0,0,0-.41-.45l-7.89-.36,0-.74,7.88.36a.43.43,0,0,0,.45-.41h0a.43.43,0,0,0-.41-.45l-7.88-.36,0-.74,7.89.36a.43.43,0,0,0,.45-.41h0a.44.44,0,0,0-.42-.45l-7.88-.36,0-.73,7.89.35a.42.42,0,0,0,.45-.41h0a.43.43,0,0,0-.41-.45l-7.89-.36,0-.74,7.88.36a.43.43,0,0,0,.45-.41h0a.44.44,0,0,0-.41-.46l-7.88-.35,0-.74,7.88.36a.44.44,0,0,0,.46-.42h0a.44.44,0,0,0-.42-.45l-7.88-.36,0-.74,7.89.36a.43.43,0,0,0,.45-.41h0a.43.43,0,0,0-.41-.45l-7.89-.36,0-.74,7.88.36a.44.44,0,0,0,.45-.42h0a.43.43,0,0,0-.41-.45l-7.89-.36,0-.74,7.88.36a.44.44,0,0,0,.46-.41h0a.44.44,0,0,0-.42-.45l-7.88-.36,0-.74,7.89.36a.44.44,0,0,0,.45-.42h0a.43.43,0,0,0-.41-.45l-7.89-.36,0-.74L453,157a.43.43,0,0,0,.45-.41h0a.43.43,0,0,0-.41-.45l-7.89-.36,0-.74,7.88.36a.43.43,0,0,0,.45-.41h0a.43.43,0,0,0-.41-.45l-7.88-.36,0-.74,7.89.36a.43.43,0,0,0,.45-.41h0a1.26,1.26,0,0,0-1.2-1.31l-6.77-.31a3.31,3.31,0,0,0-3.45,3.15l-2,44.14,10.07.46a1.26,1.26,0,0,0,1.31-1.2h0a.43.43,0,0,0-.41-.45Z" fill="#fc87b1"/><path d="M448.37,222.6c3.91-1.4,2.94-6.21,2.94-6.21,4.66-3.3.54-6.67.54-6.67,3.76-2.51-.24-6.21-.24-6.21l-11.78,1.86a3.69,3.69,0,0,0,2.2,4.84s-5.32,2.1-1.39,5.65c0,0-4.85,2.55-1.4,5.08,0,0-4.65,1.92-1.85,5.5l8.85,1.71.53-.4C448.3,226.27,448.37,222.6,448.37,222.6Z" fill="#ffcfb6"/><path d="M424.07,227.87s3.66-10.82,5.53-13.64c.95-1.45,13.69-7.76,13.69-7.76a4.17,4.17,0,0,1,1.16,4.69c-1,3-7.73,8.09-7.73,8.09s3.14,10.05-3.2,15.79Z" fill="#ffcfb6"/><path d="M293.67,189.42s-29.38,7.28-30.53,31.34,14.12,59.89,20.44,99.71c0,0,56.63,19.76,79.28.95,0,0,1.68-32.77,6.93-56.17s-7.34-28.19-15.93-46.39-12-21.42-22.61-26Z" fill="#686175" data-primary="true"/><path d="M293.67,301.84c4.23-14.34,28.56-48.59,28.56-48.59L274.51,283a281.92,281.92,0,0,1,9.07,37.43s6,2.09,14.84,4.26C294.66,317,291.77,308.28,293.67,301.84Z" opacity="0.2"/><path d="M386,211.6h0a3.44,3.44,0,0,1-1.49,3.84L358.94,230a2.25,2.25,0,0,1-2.32-.07,2.24,2.24,0,0,0-1.95-.45,34.46,34.46,0,0,1-3.53,1.41L350,228.4Z" fill="#dae1e7"/><path d="M358.62,230.09h0l3.52-7.35L350,228.4l1.14,2.45a34.46,34.46,0,0,0,3.53-1.41,2.24,2.24,0,0,1,1.95.45A2.28,2.28,0,0,0,358.62,230.09Z" fill="#b0bac1"/><path d="M371.58,197.14h0a3.44,3.44,0,0,0-3.84,1.49l-14.53,25.61a2.25,2.25,0,0,0,.08,2.32,2.22,2.22,0,0,1,.44,1.94c-.9,2-1.41,3.53-1.41,3.53l2.45,1.15Z" fill="#dae1e7"/><path d="M356.43,226.75a1,1,0,1,0,0,1.47A1,1,0,0,0,356.43,226.75Z" fill="#926ef6"/><path d="M354.57,239.35l0,0a3.88,3.88,0,0,1-.61-.79,2.33,2.33,0,0,1-.08-2.12l1.44-3.23-3.41-1.59-2,4.46a2.31,2.31,0,0,1-1.66,1.36h0a8,8,0,0,0-4.32,2.25,7.72,7.72,0,0,0-1.33,9.41,2.64,2.64,0,0,1,0,2.7,10.56,10.56,0,0,0-1.46,5.23,2.39,2.39,0,0,0,2.31-1.84,9.89,9.89,0,0,1,.53-1.51,2.57,2.57,0,0,1,3-1.44,7.88,7.88,0,0,0,7.33-2.18A7.57,7.57,0,0,0,354.57,239.35ZM345,248.89a5.72,5.72,0,1,1,7.75-.32A5.5,5.5,0,0,1,345,248.89Z" fill="#926ef6"/><path d="M339.49,240.39s2,1.85,2.76,1.43c1-.56.61-3.17.61-3.17A9.47,9.47,0,0,1,339.49,240.39Z" fill="#926ef6"/><path d="M349.9,227.79l-3.08,1.37a2.62,2.62,0,0,1-2.67-.28,3.7,3.7,0,0,1-.42-.37l0,0a7.8,7.8,0,1,0-.33,10.69,8.1,8.1,0,0,0,2.24-4.2h0a2.55,2.55,0,0,1,1.5-1.79l4.37-2ZM334.17,238a5.72,5.72,0,1,1,7.74-.32A5.49,5.49,0,0,1,334.17,238Z" fill="#926ef6"/><path d="M338.56,196.61a45.8,45.8,0,0,0-7.31-3.78l-37.58-3.41a53.8,53.8,0,0,0-10.75,4.27c8,6.77,24.63,19.07,39.51,17.91C331.8,210.87,336.36,203.92,338.56,196.61Z" opacity="0.2"/><path d="M230.37,244.31s26.56,63.34,41.83,40.52c0,0,3.15-19.06-6.06-30.26S230.37,244.31,230.37,244.31Z" fill="#686175" data-primary="true"/><path d="M230.37,244.31s26.56,63.34,41.83,40.52c0,0,3.15-19.06-6.06-30.26S230.37,244.31,230.37,244.31Z" opacity="0.2"/><path d="M269.63,205.25s12.76,10.64,11.36,33.4-36.51,72-42.16,73.94-19-17.14-8.07-42.64S256.32,211.8,269.63,205.25Z" fill="#fccdc3"/><path d="M424.07,227.87s-38.49,35.54-43.46,51.8,2.12,39,2.12,39S393,320.47,405,299.82c8.12-14,31.76-62.35,31.76-62.35Z" fill="#fccdc3"/><path d="M356.09,620.19s9.05,7.33,18.42,13.7,30.94,13.25,29.21,17.13c0,0-59.31,2.18-67.58-2.31-3.56-1.94-3.1-28.52-3.1-28.52Z" fill="#fccdc3"/><path d="M332.9,630.06l25.76,4.83s-5.12-9.31,1.49-11.38c0,0,21.88,11.57,32.65,14.34s11.45,14.47,11.45,14.47-38.78-2.22-70.4-2.22C333.85,650.1,331.18,643.46,332.9,630.06Z" fill="#21224f"/><path d="M287.59,620.19s.44,5.25,1.57,7.56c2.43,5,9.61,8.3,9.61,23.8H258.06s-3.39-14.9,6.22-31.36Z" fill="#fccdc3"/><path d="M290.85,636.2s-4.24-12.69-12.72-12.69-14.83,12-14.83,12l-4.11-3.18c-3,11-1.13,19.26-1.13,19.26h40.71c0-12.73-4.84-17.22-7.92-21.2Z" fill="#21224f"/><path d="M269.63,205.25c-12.61,6.21-26.42,35.83-37.12,60.62,13.14-2.87,24.46,4,32.55,11.71,8.24-13.92,15.32-29,15.93-38.93C282.39,215.89,269.63,205.25,269.63,205.25Z" fill="#fc9189"/><path d="M277.42,197a91.78,91.78,0,0,0-26.24,19.74,221.93,221.93,0,0,0-20.81,27.56s30.45,4.88,41.83,40.52c0,0,10.08-26,13.24-46.18S277.42,197,277.42,197Z" fill="#686175" data-primary="true"/><path d="M311.54,244.14s13.57-8.57,16.65-10.56,25.07,6,25.07,6,2.35,4.62-2.26,5.46c0,0,1.79,4.75-3.25,5.42,0,0,.65,5.53-4.43,5.18,0,0-.83,2.85-5.17,3.6s-19.25-.11-19.25-.11Z" fill="#ffcfb6"/><path d="M311.54,244.14s-58.56,22.8-68.17,32.21-4.54,36.24-4.54,36.24,11.32-2.59,27.71-10.19,52.36-43.29,52.36-43.29Z" fill="#fccdc3"/><path d="M307.41,143.71s-5,37.69-13.74,45.71c0,0,30.82,28.42,37.58,3.41,0,0-2.14-15.49,0-29.81Z" fill="#fccdc3"/><path d="M302.25,169.9a71.19,71.19,0,0,0,28.05,6.35,94.93,94.93,0,0,1,.95-13.23l-23.84-19.31A244.8,244.8,0,0,1,302.25,169.9Z" fill="#fc9189"/><ellipse cx="332.68" cy="133.35" rx="29.71" ry="42.14" fill="#fccdc3"/><path d="M368.86,130.45c-16.35,5.19-18.21-9.5-24.35-19.38-11.31-18.2-19.93-5.86-19.93-5.86h0c-5.72-5.54-5.1,4.53-6,14s-6.93,11.4-6.93,11.4l-4,8.79s5.86,15.48-1.06,55.47-40.27,42.92-55.39,21.93c-14.56-20.23,7.83-33.15,10-43.54a7,7,0,0,0,.17-1.17c0-.54,0-1.1,0-1.68,0-1,0-2-.09-3-.08-1.48-.2-3-.29-4.66,0-.19,0-.38,0-.57-.05-1-.1-2-.13-3,0-.12,0-.24,0-.35a49.89,49.89,0,0,1,.08-5,.37.37,0,0,0,0-.11,31.41,31.41,0,0,1,1.41-7.65,22.86,22.86,0,0,1,1.38-3.4c.22-.44.46-.89.71-1.33a19,19,0,0,1,1.26-1.95,23.21,23.21,0,0,1,2.66-3.14l.62-.6a30.23,30.23,0,0,1,4.72-3.63c17.89-11.27,14-10.42,20-27.24s21.58-13.44,21.58-13.44,24.52-14.85,46.21-13.23,13.26,29,21.42,34.61S385.21,125.25,368.86,130.45Z" fill="#1d0031"/><path d="M261.21,173.21c0,.18-.09.36-.14.54C261.12,173.57,261.17,173.39,261.21,173.21Z" fill="#1d0031"/><path d="M324.57,105.2c-5.72-5.54-5.1,4.53-6,14s-6.93,11.4-6.93,11.4l-4,8.79s5.86,15.48-1.06,55.47-40.27,42.92-55.39,21.93c-14.56-20.23,7.83-33.15,10-43.54a7,7,0,0,0,.17-1.17c0-.54,0-1.1,0-1.68,0-1,0-2-.09-3-.08-1.48-.19-3-.29-4.66,0-.19,0-.38,0-.57-.05-1-.1-2-.13-3,0-.12,0-.24,0-.35,0-1.65,0-3.34.08-5a.37.37,0,0,0,0-.11,32.48,32.48,0,0,1,1.41-7.65,27.22,27.22,0,0,1,1.38-3.4c.22-.44.46-.89.71-1.33.39-.66.8-1.31,1.26-1.95a25.47,25.47,0,0,1,2.66-3.14l.62-.6c-2.89,8.85,3.44,15.4,16.89,8.85,17.26-8.41,21.6-18,26.46-34.73C317.1,93.25,324.31,104.76,324.57,105.2Z" opacity="0.2"/><path d="M344.51,111.07c6.14,9.88,8,24.57,24.35,19.38s22.17-12.17,14-17.78c-6.59-4.53-2.38-23.23-11.91-31.13,1.67,5.12,3.18,12.84.74,20.44-4.19,13,4.47,11.44,4.47,11.44-12.73,11-14.44-4.57-28.45-14.54s-23.15,6.33-23.15,6.33S333.2,92.87,344.51,111.07Z" opacity="0.2"/><path d="M363.42,327.56c-5.54,4.79-12.82,7.28-20.77,8.26a68.82,68.82,0,0,1-8.92.54c-11.77,0-24.1-2.45-34-5.07a189.88,189.88,0,0,1-19.18-6.21c.15-.33.3-.63.45-.91a186.51,186.51,0,0,0,19,6c12.4,3.27,28.72,6.27,42.75,4.52,8-1,15.19-3.52,20.55-8.4C363.34,326.71,363.38,327.13,363.42,327.56Z" fill="#686175" data-primary="true"/><path d="M455.5,277s-31.66,13.43-47.62,35.48-27.27,144.14-27.27,144.14,19.2,1.88,53.13,20.73,58.08,25,95.18,16.81,34.29-67.55,60.31-75.38c0,0-19.81-37.91-42.42-68.43S485,296.11,485,296.11Z" fill="#f48225" data-secondary="true"/><path d="M540.11,427.42l-65.6,11.26s13.15,35.13,42.66,38.71,107.52-2.64,107.52-2.64l31.09-30C649.32,434,540.11,427.42,540.11,427.42Z" fill="#fccdc3"/><path d="M655.78,444.79l-39.35,17.78s-12.87,26-13.08,53.55-4.14,86.08-4.14,86.08L622.07,605S658.37,457.72,655.78,444.79Z" fill="#fccdc3"/><path d="M464.19,242.22l-11,44.14,32.22,18.84s-2.54-38.29,2.54-46.86Z" fill="#fccdc3"/><path d="M464.3,243.19l-5.62,25.59c9.52,4.18,20.47,4,26.75,2.2.47-5.12,1.27-9.42,2.61-11.68Z" fill="#fc9189"/><path d="M454.21,282.2s-31.57,23.25-16.3,59.14,38.61,103.08,38.61,103.08l63.59-17s-5.59-25.86-9-49.67c-1.13-7.94,10.18-28,.85-36.19-28.66-25.22-46.88-41.8-46.88-41.8Z" fill="#ffcfb6"/><path d="M474.51,438.68s13.15,35.13,42.66,38.71,107.52-2.64,107.52-2.64-3.4,28.83,5.65,54.84,26,82.22,26,82.22L677.82,607s-15.26-150.93-22-162.24c-6.46-10.76-115.67-17.37-115.67-17.37Z" fill="#fccdc3"/><path d="M664,488l-39.67,8.84a122.29,122.29,0,0,0,6,32.75c1.81,5.2,3.94,11.62,6.19,18.56,13.93-5.44,25.39-10.65,33.24-14.42C667.92,518.11,665.93,502.09,664,488Z" fill="#ffada5"/><path d="M540.11,427.42s103.37,7.2,115.8,12.85,25.43,87.62,25.43,87.62S638.12,537.5,595,537.5V480.91s-74,.77-88-2.41-30.54-34.08-30.54-34.08Z" fill="#21224f"/><path d="M507.06,478.5c13.95,3.18,88,2.41,88,2.41V537.5a393.21,393.21,0,0,0,46.9-3.12c-5.38-16.75-15.38-49.47-13.69-55.88,2.3-8.69,11.71-12.76,11.71-12.76s-109,12.4-129.32,5.62-34.11-26.94-34.11-26.94S493.1,475.32,507.06,478.5Z" opacity="0.2"/><ellipse cx="476.68" cy="228.92" rx="32.57" ry="43.43" transform="translate(-50.75 190.84) rotate(-21.52)" fill="#fccdc3"/><path d="M677.82,607s7.95,9.79,15.68,18.09,27.23,19.78,24.68,23.18-58.32-11-65.38-17.25c-3-2.67,2.09-24,2.09-24Z" fill="#fccdc3"/><path d="M653.77,612.15l24.05,10.42s-2.93-10.21,4-10.76c0,0,18.77,16.13,28.67,21.22s7.95,16.65,7.95,16.65S678,644.34,650.25,631.9C650.25,631.9,649.12,624.84,653.77,612.15Z" fill="#21224f"/><path d="M622,605s6.69,10.7,13.34,19.88,24.6,23,21.66,26-56.53-18.09-62.78-25.12c-2.69-3,5-23.59,5-23.59Z" fill="#fccdc3"/><path d="M597.48,607.15l22.59,13.29s-1.66-10.5,5.26-10.19c0,0,16.65,18.31,25.84,24.57s5.86,17.5,5.86,17.5-39.5-10.26-65.47-26C591.56,626.32,591.31,619.17,597.48,607.15Z" fill="#21224f"/><rect x="562.67" y="307.06" width="73.1" height="5.8" rx="2.9" transform="translate(-43.67 514.49) rotate(-45)" fill="#5f2e9b"/><path d="M616,297.85s-.44-1.27-3.29-.29-20.9,21.28-20.9,21.28l-9.38,5.37s8.63-10.81,10.38-15.47a8.8,8.8,0,0,0-.65-8l-7.84,8s-10.65,9.34-12,12.47-3.86,20.3-3.86,20.3l13.47,9S607.8,335.33,608.62,332s4.14-12.56,4.14-12.56,1.76-5.21,2.38-7.54-.74-9.9-.74-9.9Z" fill="#fccdc3"/><path d="M455.25,305s18.25,8.14,32.68,36.52,25.68,48.72,25.68,48.72l54.78-48.72,18.85,5.77s-48.7,80.41-79.08,85.62c0,0-31.09-20.79-61.44-75.44C446.72,357.46,446.22,325.86,455.25,305Z" fill="#fccdc3"/><path d="M508.16,432.9c30.38-5.21,79.08-85.62,79.08-85.62S520.92,421,508.16,421.62s-61.44-64.16-61.44-64.16C477.07,412.11,508.16,432.9,508.16,432.9Z" fill="#fc9189"/><path d="M467.38,245c.5,6.73,5.8,58.57,34.41,81.91,0,0-20.56-3.37-28.19-13.55s-11-75.73-11-75.73Z" fill="#1d0031"/><path d="M536.52,601.82c-12.72-23.23-11.87-121.77-11.87-121.77H502.58s.85,98.54-11.87,121.77-58.51,39.67-58.51,50.53H595C595,641.49,549.24,625.05,536.52,601.82Z" fill="#d1d3d4"/><path d="M536.52,601.82c-12.72-23.23-11.87-121.77-11.87-121.77h-5.51c-.49,30.21-.85,110.05,8.73,128.51,6.7,12.94,17.74,30.74,26.07,43.79H595C595,641.49,549.24,625.05,536.52,601.82Z" fill="#bcbec0"/><path d="M417.58,308.18c-38.16,30.53-14.7,202.87,43.95,202.87H589.65c36.09,0,45.13-70.56,34.3-84.31s-98.76,6.19-116.81-15C488.13,389.39,458,275.86,417.58,308.18Z" fill="#5f2e9b"/><path d="M616.85,492.48c-12.77,7.71-91.53,12.64-123.75-6.59s-62.74-173.26-76.91-173.26l-3.4.54c-31.17,40.79-7.26,197.88,48.74,197.88H589.65C601.59,511.05,610.57,503.32,616.85,492.48Z" opacity="0.43"/><path d="M508.16,497.37c28.65-3.34,17.13-51.74,23.92-78.89s19.47-62,19.47-62c-1.64-2-3.23-4.06-4.74-6.1C524.19,319.86,485,296.11,485,296.11L455.5,277s-31.66,13.43-47.62,35.48-27.27,144.14-27.27,144.14,18.69,2.83,53.13,20.73C476.52,499.62,508.16,497.37,508.16,497.37Z" fill="#f48225" data-secondary="true"/><path d="M549,353.33c-13,15.73-34.47,43.52-40.88,62.07-9.37,27.13-10.5,62-10.5,62C468.75,455.72,476.52,373,476.52,373,462.07,403,458.34,473.62,458.34,473.62c-8.87-4.52-42.56-91.57-38.18-132.28,3.27-30.35,25.25-53.78,36.21-63.74l-.87-.56s-31.66,13.43-47.62,35.48-27.27,144.14-27.27,144.14,18.69,2.83,53.13,20.73c42.78,22.23,74.42,20,74.42,20,28.66-3.34,17.13-51.74,23.92-78.89s19.47-62,19.47-62C550.7,355.44,549.86,354.39,549,353.33Z" fill="#fff" opacity="0.43"/><path d="M507.06,196.32c2.12,8.33-28.92,23.79-28.92,23.79s-3.75,19.14-11.4,27.59c0,0,5.86,25.5-3.85,33.07s-20.74,6.24-33,19-17.5,33.11-17.5,33.11S391.27,313,393,292.6s21.12-33.8,29.93-48.84c8.56-14.6,1.94-46.54,14.66-58.21S504.94,188,507.06,196.32Z" fill="#1d0031"/><path d="M466.74,247.7c7.65-8.45,11.4-27.59,11.4-27.59a162.87,162.87,0,0,0,18.33-10.86c-16.75,2.39-38-5.42-38-5.42s-21.93,24.65-31.33,25.7c-.78,5.47-2,10.44-4.2,14.23-8.81,15-28.23,28.48-29.93,48.84s19.39,40.27,19.39,40.27,5.2-20.35,17.49-33.11,23.32-11.41,33-19S466.74,247.7,466.74,247.7Z" opacity="0.2"/><ellipse cx="307.83" cy="134.06" rx="6" ry="8.57" fill="#fccdc3"/><ellipse cx="501.15" cy="226.47" rx="2.27" ry="3.66" transform="translate(-15.43 37.84) rotate(-4.26)"/><ellipse cx="356.11" cy="132.78" rx="3.66" ry="2.27" transform="translate(147.4 450.4) rotate(-77.14)"/><ellipse cx="334.75" cy="127.98" rx="3.66" ry="2.27" transform="translate(135.47 425.84) rotate(-77.14)"/><path d="M333.71,148.35s3.13,13.47,15.15,5.07" fill="none" stroke="#fc9189" stroke-linecap="round" stroke-linejoin="round"/><path d="M494.86,242.2s2.46,10.63,11.42,7.13" fill="none" stroke="#fc9189" stroke-linecap="round" stroke-linejoin="round"/><path d="M346.37,136.6l1.51,5.72a1.23,1.23,0,0,1-1.36,1.54l-3.41-.47,1.71-6.78A.8.8,0,0,1,346.37,136.6Z" fill="#fc9189"/><polygon points="227.14 113.53 226.33 161.19 237.32 161.19 236.87 113.53 227.14 113.53" fill="none" stroke="#e6dffe" stroke-miterlimit="10"/><polygon points="224.38 113.53 239.95 113.53 239.39 92.89 224.94 92.89 224.38 113.53" fill="#e6dffe"/><line x1="232.17" y1="113.53" x2="232.17" y2="41.07" fill="none" stroke="#e6dffe" stroke-miterlimit="10"/><polygon points="617.96 82.59 617.15 130.25 628.14 130.25 627.7 82.59 617.96 82.59" fill="none" stroke="#e6dffe" stroke-miterlimit="10"/><polygon points="615.2 82.59 630.77 82.59 630.21 61.95 615.76 61.95 615.2 82.59" fill="#e6dffe"/><line x1="622.99" y1="82.59" x2="622.99" y2="31.2" fill="none" stroke="#e6dffe" stroke-miterlimit="10"/><polygon points="648.82 126.02 648.01 173.68 659 173.68 658.55 126.02 648.82 126.02" fill="none" stroke="#e6dffe" stroke-miterlimit="10"/><polygon points="646.06 126.02 661.63 126.02 661.07 105.38 646.62 105.38 646.06 126.02" fill="#e6dffe"/><line x1="653.85" y1="126.02" x2="653.85" y2="36.92" fill="none" stroke="#e6dffe" stroke-miterlimit="10"/><path d="M153.27,518.62c2.86,1.24,9.86,1.08,9.87,1.08s-1.5-4.58-1.64-4.85c-1.53-3.22-6.39-8.52-10.34-8a4.73,4.73,0,0,0-3.9,5.42c0,.17.07.33.11.49C148,515.51,150.84,517.55,153.27,518.62Z" fill="#e6dffe"/><path d="M155.7,538.87c3,.43,9.21-1.37,9.7-1.52a84.32,84.32,0,0,0,3.78,10.47c.87,2,1.8,4,2.74,5.94-.57-.83-1.09-1.58-1.18-1.68-2.32-2.74-8.4-6.52-12.07-5a4.71,4.71,0,0,0-2.34,6.24,4,4,0,0,0,.24.46c1.37,2.46,4.6,3.68,7.23,4.11s8-1,9.45-1.37l1.11,2.26c1.81,3.6,3.63,7.17,5.31,10.74.59,1.26,1.12,2.52,1.67,3.78-.51-.74-.94-1.37-1-1.45-2.32-2.74-8.4-6.52-12.07-4.95a4.71,4.71,0,0,0-2.34,6.23l.24.46c1.37,2.47,4.6,3.68,7.25,4.11s7.5-.91,9.17-1.37c.52,1.3,1,2.61,1.48,3.9.29.89.61,1.73.85,2.63l.74,2.66c.41,1.69.83,3.45,1.19,5.12.26,1.16.48,2.27.71,3.39-.57-1.26-1.75-3.69-1.88-3.89-1.89-3-7.32-7.72-11.18-6.75a4.74,4.74,0,0,0-3.25,5.84,4.59,4.59,0,0,0,.17.48c1,2.64,4,4.34,6.53,5.12,2.74.85,9,.07,9.77,0,.37,1.85.72,3.65,1,5.36.15.91.29,1.76.44,2.61h2.46l-.59-3c-.37-1.88-.79-3.89-1.26-5.95a46.24,46.24,0,0,0,5.48-2.56c2,2.21,7.27,4.8,7.94,5.12-.71,1.76-1.37,3.45-2.11,5l-.61,1.37H203l.21-.46c.72-1.78,1.46-3.69,2.22-5.66.75.17,6.84,1.37,9.75.77,2.58-.59,5.72-2.06,6.84-4.63a4.7,4.7,0,0,0-2.12-6.31l-.48-.21c-3.78-1.27-9.58,3-11.67,5.89-.12.17-1.27,2.15-2,3.42.3-.8.61-1.58.91-2.42.6-1.64,1.15-3.3,1.75-5.08.26-.88.53-1.75.79-2.64s.47-1.84.72-2.74c.5-2.15.93-4.37,1.3-6.6,1.43.52,6.58,2.31,9.24,2.12s6-1.16,7.52-3.52a4.74,4.74,0,0,0-1.16-6.58l-.43-.26c-3.55-1.82-9.89,1.54-12.42,4.1-.15.16-1.77,2.15-2.63,3.28.22-1.37.44-2.74.6-4.11.49-4,.86-8,1.26-12,.11-1.23.25-2.45.38-3.67.51.19,6.58,2.45,9.59,2.25,2.66-.2,6-1.17,7.52-3.52a4.71,4.71,0,0,0-1.14-6.57c-.14-.1-.3-.19-.45-.28-3.55-1.82-9.9,1.55-12.42,4.11-.19.19-2.49,3.08-3.05,3.85.28-2.74.6-5.39,1-8A83.67,83.67,0,0,1,217,536.83c.24.09,6.57,2.47,9.58,2.26,2.66-.18,6-1.15,7.52-3.52a4.74,4.74,0,0,0-1.16-6.58,3.87,3.87,0,0,0-.43-.27c-3.55-1.83-9.9,1.53-12.42,4.11-.21.19-2.74,3.3-3.09,3.9a2,2,0,0,1,.16-.62,60.88,60.88,0,0,1,4.11-10c.91-1.77,1.87-3.41,2.85-5,1.13.57,6.33,3.09,9.1,3.2s6.08-.49,7.86-2.67a4.71,4.71,0,0,0-.41-6.65l-.41-.32c-3.33-2.2-10,.44-12.79,2.66-.15.12-1.55,1.52-2.56,2.56.45-.71.9-1.45,1.37-2.12,1.67-2.51,3.35-4.7,4.86-6.64.86-1.1,1.67-2.06,2.44-3,1.37,0,7-.21,9.5-1.37s5.16-3.24,5.74-6a4.71,4.71,0,0,0-3.44-5.7,3.06,3.06,0,0,0-.51-.1c-4-.43-8.66,5-10.12,8.21-.12.29-1.57,4.9-1.5,4.9h.19c-.75.85-1.55,1.78-2.4,2.74-1.54,1.92-3.28,4.11-5,6.56a84.57,84.57,0,0,0-5.19,8.29,62.44,62.44,0,0,0-4.45,10v.12c0-1.16,0-4.43-.07-4.68-.45-3.53-3.42-10.08-7.33-10.8a4.71,4.71,0,0,0-5.42,3.87,5.62,5.62,0,0,0-.06.56c-.23,2.81,1.79,5.62,3.78,7.38,2.24,2,8.45,3.93,8.94,4.11a82,82,0,0,0-2.62,10.82c-.38,2.13-.69,4.3-1,6.46v-2c-.46-3.54-3.42-10.1-7.33-10.82a4.73,4.73,0,0,0-5.43,3.9c0,.18,0,.36,0,.53-.22,2.74,1.81,5.62,3.79,7.4s7.27,3.54,8.67,4c-.1.82-.22,1.65-.32,2.49-.48,4-.93,8-1.5,11.9-.21,1.37-.45,2.74-.7,4.1v-1.76c-.47-3.53-3.42-10.09-7.34-10.82a4.72,4.72,0,0,0-5.42,3.91,4.52,4.52,0,0,0-.06.53c-.23,2.8,1.8,5.61,3.78,7.39s6.77,3.37,8.42,3.92c-.28,1.37-.57,2.74-.91,4.11-.26.88-.44,1.76-.76,2.65s-.56,1.75-.85,2.63c-.59,1.64-1.2,3.34-1.82,4.93-.42,1.11-.86,2.16-1.28,3.22.21-1.37.58-4.11.58-4.27a18.25,18.25,0,0,0-2.45-8.92,5.2,5.2,0,0,0-.07-1,4.72,4.72,0,0,0-5.27-4.1,4.21,4.21,0,0,0-.49.09c-3.86,1-6.3,7.79-6.48,11.35,0,.21.13,2.49.24,3.94-.2-.85-.37-1.65-.59-2.52-.4-1.69-.85-3.39-1.37-5.21-.28-.87-.54-1.74-.81-2.63s-.62-1.8-.93-2.74c-.75-2.08-1.63-4.11-2.56-6.23,1.49-.36,6.78-1.7,8.89-3.33s4.35-4.27,4.32-7.08a4.72,4.72,0,0,0-4.6-4.84,4,4,0,0,0-.49,0c-4,.44-7.41,6.75-8.12,10.23,0,.22-.27,2.74-.38,4.19-.57-1.23-1.13-2.48-1.74-3.71-1.77-3.58-3.67-7.14-5.56-10.68L173.91,555c.53-.13,6.84-1.59,9.21-3.41,2.11-1.62,4.36-4.28,4.33-7.08a4.72,4.72,0,0,0-4.57-4.85h-.53c-3.95.44-7.4,6.75-8.11,10.23,0,.26-.39,4-.43,4.89-1.25-2.4-2.48-4.81-3.59-7.23a83.81,83.81,0,0,1-3.89-10c.25,0,6.85-1.55,9.27-3.41,2.11-1.63,4.36-4.27,4.33-7.09a4.7,4.7,0,0,0-4.55-4.84,4.87,4.87,0,0,0-.54,0c-4,.42-7.41,6.74-8.12,10.23,0,.27-.41,4.23-.43,5,0-.19-.15-.39-.2-.6a60.77,60.77,0,0,1-2-10.61c-.22-2-.31-3.87-.37-5.74,1.25-.15,7-.91,9.35-2.35s4.8-3.77,5.08-6.56a4.7,4.7,0,0,0-4-5.31,2.92,2.92,0,0,0-.51,0c-4,0-8.1,5.88-9.2,9.27,0,.19-.45,2.12-.73,3.54v-2.5c0-3,.2-5.78.39-8.22.12-1.37.26-2.64.4-3.81,1.15-.79,5.76-4.1,7.17-6.38s2.52-5.54,1.49-8.21a4.74,4.74,0,0,0-6.06-2.86l-.44.19c-3.53,1.83-4.47,9-3.89,12.47a50.67,50.67,0,0,0,1.45,4.92h.07c-.15,1.12-.3,2.33-.45,3.65-.23,2.44-.49,5.21-.56,8.22a81.68,81.68,0,0,0,.23,9.77A62.35,62.35,0,0,0,165.27,537v.13c-.62-1-2.47-3.69-2.63-3.88-2.33-2.74-8.42-6.51-12.09-5a4.73,4.73,0,0,0-2.32,6.27,3.75,3.75,0,0,0,.24.44C149.82,537.28,153.07,538.5,155.7,538.87Z" fill="#e6dffe"/><path d="M224.06,520.15s1.27-4.66,1.37-5c.49-3.52-.64-10.62-4.23-12.32a4.72,4.72,0,0,0-6.24,2.38,3.8,3.8,0,0,0-.18.47c-1,2.64.26,5.89,1.71,8.12C218.13,516.42,224.05,520.15,224.06,520.15Z" fill="#e6dffe"/><path d="M170.83,600.39h51.93v28a23.27,23.27,0,0,1-23.28,23.27h-5.32a23.27,23.27,0,0,1-23.28-23.27h0v-28Z" fill="#fff"/><path d="M199.46,652.35h-5.34a24,24,0,0,1-24-24V599.7h53.29v28.66A24,24,0,0,1,199.46,652.35Zm-28-51.28v27.29A22.66,22.66,0,0,0,194.12,651h5.34a22.64,22.64,0,0,0,22.6-22.62V601.07Z" fill="#e6dffe"/><path d="M222.75,626.5v-6.32c-4.11,3.25-9.49,2.52-13.41,0-7.13-4.49-15.43-1-15.79-.82a2.74,2.74,0,0,0,2.11,5.06l.07,0c.07,0,6.05-2.49,10.68.44a18.71,18.71,0,0,0,9.9,3A16.23,16.23,0,0,0,222.75,626.5Z" fill="#e6dffe"/><path d="M170.83,625.66a40.43,40.43,0,0,0,11.46-3.79c9.09-4.38,24.9-10.64,28.49-3.45a2.74,2.74,0,0,0,4.9-2.45c-4.34-8.68-16.43-8.37-35.76,1a36.35,36.35,0,0,1-9.09,3.17Z" fill="#e6dffe"/><circle cx="177.63" cy="612.93" r="1.93" fill="#e6dffe"/><path d="M190.65,609.08a1.93,1.93,0,1,1-1.93-1.93h0a1.92,1.92,0,0,1,1.91,1.92Z" fill="#e6dffe"/><path d="M203.69,606.18a1.93,1.93,0,1,1-1.93-1.93,1.94,1.94,0,0,1,1.93,1.93Z" fill="#e6dffe"/><path d="M216.46,607.86a1.93,1.93,0,1,1-1.94-1.92h0A1.94,1.94,0,0,1,216.46,607.86Z" fill="#e6dffe"/><circle cx="198.62" cy="628.13" r="1.93" fill="#e6dffe"/><path d="M210.16,632a1.93,1.93,0,1,1-1.93-1.93,1.92,1.92,0,0,1,1.93,1.93Z" fill="#e6dffe"/><path d="M219.84,632a1.93,1.93,0,1,1-1.93-1.93,1.92,1.92,0,0,1,1.93,1.93Z" fill="#e6dffe"/><ellipse cx="334.25" cy="129.87" rx="0.41" ry="0.66" fill="#fff"/><ellipse cx="355.3" cy="134.65" rx="0.41" ry="0.56" fill="#fff"/><ellipse cx="501.18" cy="226.55" rx="0.3" ry="0.4" fill="#fff"/><path d="M307.53,137.59a.53.53,0,0,1-.15-.7c2.16-3.8.47-5.85.4-5.94a.54.54,0,0,1,.81-.71c.1.11,2.28,2.69-.27,7.18a.55.55,0,0,1-.74.21Z" fill="#fc9189"/><path d="M306.26,134a.48.48,0,0,1-.21-.32.54.54,0,0,1,.41-.64,3.07,3.07,0,0,1,2.82,1,.55.55,0,0,1,0,.76.53.53,0,0,1-.76-.05,1.93,1.93,0,0,0-1.78-.68A.54.54,0,0,1,306.26,134Z" fill="#fc9189"/><path d="M330.31,122.34a7.25,7.25,0,0,1,4-3.55,6.79,6.79,0,0,1,5.08.46.88.88,0,0,1,.39,1.08h0a.88.88,0,0,1-1.2.49C337.13,120.13,333.86,119.24,330.31,122.34Z"/><path d="M495.58,222.19a7.24,7.24,0,0,1,4-3.54,6.75,6.75,0,0,1,5.08.45.88.88,0,0,1,.39,1.08h0a.87.87,0,0,1-1.2.49C502.4,220,499.13,219.1,495.58,222.19Z"/><path d="M362.36,128.25a7.24,7.24,0,0,0-4-3.54,6.75,6.75,0,0,0-5.08.45.88.88,0,0,0-.39,1.08h0a.89.89,0,0,0,1.2.5C355.54,126,358.81,125.16,362.36,128.25Z"/></svg>