<svg id="bb6a16d2-e4ad-4162-aef0-4f43721879ba" data-name="Layer 1" xmlns="http://www.w3.org/2000/svg" width="865.76" height="682.89" viewBox="0 0 865.76 682.89"><path d="M588.07,100.38l.8,1.16a73.59,73.59,0,0,1,12.6,41.51V567.48H331.33a94.83,94.83,0,0,1-32.84,58.07,26.27,26.27,0,0,1-31.2,2.15c-7.15-4.69-12-12.22-15.28-19.53a72.19,72.19,0,0,1-6.11-29.42v-449c-3-45.43-23.23-43.42-23.23-43.42L559.72,86A34.66,34.66,0,0,1,588.07,100.38Z" fill="#ccc"/><path d="M246.38,123.76H196.24s8.42-42.42,31.37-36.87C227.61,86.89,245.75,94.64,246.38,123.76Z" fill="#ccc"/><path d="M246.38,123.76H196.24s8.42-42.42,31.37-36.87C227.61,86.89,245.75,94.64,246.38,123.76Z" opacity="0.2"/><path d="M331.33,567.48H651.49s-5.39,57.89-42.06,64.33l-321-1S322.91,617.22,331.33,567.48Z" fill="#ccc"/><path d="M331.33,567.48H651.49s-5.39,57.89-42.06,64.33l-321-1S322.91,617.22,331.33,567.48Z" opacity="0.2"/><path d="M255.53,615s50.55,4.57,61.26-47.47c0,0,3.83-42.09,53.57-33.67l85.71,17.6s99.48,26,104.07-48.21a105,105,0,0,1,10-48.05,151.5,151.5,0,0,0,14.11-44.45c2.13-14.77,2.91-32-1.19-46-9.18-31.37,1.53-81.88,18.37-91.06V567.48H331.33s-4.69,42.51-42.9,63.34C288.43,630.82,270,636.4,255.53,615Z" opacity="0.05"/><rect x="360.41" y="349.95" width="189.02" height="16.26" rx="8.13" opacity="0.2"/><rect x="360.41" y="386.11" width="189.02" height="16.26" rx="8.13" opacity="0.2"/><rect x="360.41" y="422.27" width="189.02" height="16.26" rx="8.13" opacity="0.2"/><rect x="360.41" y="458.72" width="189.02" height="16.26" rx="8.13" opacity="0.2"/><rect x="314.88" y="349.95" width="23.53" height="16.26" opacity="0.2"/><rect x="314.88" y="386.11" width="23.53" height="16.26" opacity="0.2"/><rect x="314.88" y="422.27" width="23.53" height="16.26" opacity="0.2"/><rect x="314.88" y="458.72" width="23.53" height="16.26" opacity="0.2"/><path d="M369.76,127.11a40.34,40.34,0,0,0,2.91,9.3,115.52,115.52,0,0,0,19.91,30.31c7.45,8.17,15.1,16.23,21.73,20.61a15.56,15.56,0,0,0,17.21,0c7-4.68,15.14-13.15,23.08-21.87a144.31,144.31,0,0,0,17.94-24.24,49.85,49.85,0,0,0,5.9-16.2c3.37-18.85,6.2-37.7,9.7-56.54a4.07,4.07,0,0,0-2.3-4.42,313.77,313.77,0,0,1-33.8-18c-9.44-5.86-17.1-13.85-24.61-19.62a5.14,5.14,0,0,0-6.76.47c-17.39,17.25-50,36.08-59,41.24a4,4,0,0,0-1.94,4.14Z" fill="#d1d3d4" stroke="#fff" stroke-miterlimit="10"/><path d="M379.93,124.05a33.18,33.18,0,0,0,2.37,7.58,94.12,94.12,0,0,0,16.29,24.68c6.09,6.66,12.35,13.22,17.77,16.79a12.79,12.79,0,0,0,14.08,0c5.73-3.81,12.38-10.71,18.87-17.82A115.92,115.92,0,0,0,464,135.54a40.35,40.35,0,0,0,4.83-13.2c2.76-15.35,5.08-30.7,7.94-46a3.32,3.32,0,0,0-1.89-3.6A255.31,255.31,0,0,1,447.22,58c-7.72-4.77-14-11.28-20.13-16a4.22,4.22,0,0,0-5.53.38C407.34,56.49,380.71,71.83,373.29,76a3.23,3.23,0,0,0-1.59,3.37Z" fill="#fff" opacity="0.2"/><circle cx="425.74" cy="99.15" r="21.45" fill="#ccc"/><polygon points="414.73 94.47 425.74 115.39 436.81 84.01 422.99 102.14 414.73 94.47" fill="#fff"/><g opacity="0.2"><path d="M322.33,253h-4.46V230.24h5.41a29.73,29.73,0,0,1,3.84.18,8,8,0,0,1,2.15.59,6.76,6.76,0,0,1,3,2.53,7.65,7.65,0,0,1-.43,8.3,6.54,6.54,0,0,1-4,2.34l5.69,8.83h-5.31l-5.88-10.57Zm0-11.7h1a7.19,7.19,0,0,0,4.11-1,3.28,3.28,0,0,0,1.4-2.86,3.09,3.09,0,0,0-1.18-2.67A6.25,6.25,0,0,0,324,234h-1.65Z"/><path d="M350.94,253H338.65V230.24h12.29v4h-7.88v5.19h7.88v3.94h-7.88V249h7.88Z"/><path d="M379.62,240.91c0,.08,0,.21,0,.38s0,.3,0,.38a13,13,0,0,1-.26,2.73,10.35,10.35,0,0,1-.81,2.37,12.12,12.12,0,0,1-4.39,4.95,12.16,12.16,0,0,1-11.05.76,11.83,11.83,0,0,1-3.94-2.93,11.37,11.37,0,0,1-2.22-3.69,12.43,12.43,0,0,1-.76-4.37,11.3,11.3,0,0,1,.92-4.51,12.27,12.27,0,0,1,2.71-3.89,11.12,11.12,0,0,1,3.76-2.49,12.48,12.48,0,0,1,4.58-.81,11.1,11.1,0,0,1,6.35,1.8,11.52,11.52,0,0,1,4.13,5.25h-5.41a6.41,6.41,0,0,0-2.32-1.85,7.09,7.09,0,0,0-3-.62,6.62,6.62,0,0,0-4.95,2.11,7.52,7.52,0,0,0,0,10.3,6.81,6.81,0,0,0,5.06,2.1,6.75,6.75,0,0,0,6.28-4.16h-8.94v-3.81Z"/><path d="M385,253V230.24h4.46V253Z"/><path d="M394.46,245.94h4.06v.32a3.41,3.41,0,0,0,.75,2.31,2.51,2.51,0,0,0,2,.87,2.82,2.82,0,0,0,2.13-.81,3,3,0,0,0,.78-2.18q0-2.2-3.16-3.16l-.64-.2a8.25,8.25,0,0,1-3.94-2.35,5.82,5.82,0,0,1-1.28-3.86,7.33,7.33,0,0,1,1.77-5.14,6.12,6.12,0,0,1,4.73-1.94,5.79,5.79,0,0,1,4.41,1.73,7.36,7.36,0,0,1,1.83,4.84h-4v-.19a2.42,2.42,0,0,0-.66-1.77,2.33,2.33,0,0,0-1.72-.67,2.24,2.24,0,0,0-1.73.69,3.1,3.1,0,0,0-.5,2.76,2,2,0,0,0,.42.69,6,6,0,0,0,2.75,1.3q.93.26,1.44.42a7,7,0,0,1,3.46,2.29,6.1,6.1,0,0,1,1.12,3.8,8,8,0,0,1-2,5.65,6.7,6.7,0,0,1-5.19,2.13,6.35,6.35,0,0,1-4.92-2.06A8,8,0,0,1,394.46,245.94Z"/><path d="M425.05,230.24v4h-4.28V253h-4.44V234.25H412v-4Z"/><path d="M434.16,253h-4.45V230.24h5.41a29.55,29.55,0,0,1,3.83.18,7.86,7.86,0,0,1,2.15.59,6.79,6.79,0,0,1,3,2.53,7.63,7.63,0,0,1-.44,8.3,6.54,6.54,0,0,1-3.95,2.34l5.69,8.83H440l-5.88-10.57Zm0-11.7h1a7.16,7.16,0,0,0,4.1-1,3.28,3.28,0,0,0,1.4-2.86,3.09,3.09,0,0,0-1.17-2.67,6.25,6.25,0,0,0-3.66-.86h-1.66Z"/><path d="M453.78,248.24,452,253H447.4l8.84-22.77h3.84L468.79,253H464l-1.8-4.77Zm7-4.22-2.68-7.33L455.31,244Z"/><path d="M482.34,230.24v4h-4.28V253h-4.44V234.25h-4.28v-4Z"/><path d="M487,253V230.24h4.46V253Z"/><path d="M496.85,241.58a12,12,0,0,1,.5-3.54,11.45,11.45,0,0,1,1.48-3.12,11.66,11.66,0,0,1,4.24-3.79,11.81,11.81,0,0,1,5.57-1.34,11.19,11.19,0,0,1,4.37.88,11.75,11.75,0,0,1,3.76,2.51,12,12,0,0,1,2.59,3.83,11.37,11.37,0,0,1,.89,4.48,12.66,12.66,0,0,1-.83,4.58,11.18,11.18,0,0,1-2.47,3.8,11.51,11.51,0,0,1-8.38,3.59,12,12,0,0,1-4.69-.9,11.23,11.23,0,0,1-3.8-2.69,11.8,11.8,0,0,1-2.41-3.79A12.27,12.27,0,0,1,496.85,241.58Zm4.67-.16a7.45,7.45,0,0,0,.49,2.74,7.1,7.1,0,0,0,1.44,2.31,7.44,7.44,0,0,0,2.37,1.76,6.49,6.49,0,0,0,2.75.62,6.64,6.64,0,0,0,5-2.13,7.37,7.37,0,0,0,2-5.3,6.78,6.78,0,0,0-2-5,6.67,6.67,0,0,0-4.9-2.06,7,7,0,0,0-5.07,2A6.71,6.71,0,0,0,501.52,241.42Z"/><path d="M530,253h-4.38V230.24h4.22l9.42,14.55V230.24h4.36V253h-4.13L530,238Z"/><path d="M390.49,283.72V261h12.29v4H394.9v5.19h7.88v3.94H394.9v9.63Z"/><path d="M407.45,272.29a12.36,12.36,0,0,1,.5-3.54,11.64,11.64,0,0,1,5.73-6.91,11.77,11.77,0,0,1,5.56-1.34,11.15,11.15,0,0,1,4.37.88,11.64,11.64,0,0,1,3.76,2.51,12,12,0,0,1,2.6,3.83,11.55,11.55,0,0,1,.89,4.48,12.46,12.46,0,0,1-.84,4.58,11.91,11.91,0,0,1-6.28,6.46,11.55,11.55,0,0,1-4.56.93,11.82,11.82,0,0,1-4.69-.91,11,11,0,0,1-3.8-2.68,11.76,11.76,0,0,1-2.42-3.8A12.39,12.39,0,0,1,407.45,272.29Zm4.68-.16a7.7,7.7,0,0,0,.48,2.74,7.58,7.58,0,0,0,1.44,2.31,7.48,7.48,0,0,0,2.38,1.76,6.46,6.46,0,0,0,2.75.62,6.64,6.64,0,0,0,5-2.13,7.36,7.36,0,0,0,2-5.3,6.78,6.78,0,0,0-2-5,6.66,6.66,0,0,0-4.9-2.06,7,7,0,0,0-5.06,2.05A6.71,6.71,0,0,0,412.13,272.13Z"/><path d="M440.67,283.72h-4.45V261h5.41a29.73,29.73,0,0,1,3.84.18,8,8,0,0,1,2.15.59,6.75,6.75,0,0,1,2.95,2.53,7.63,7.63,0,0,1-.44,8.3,6.45,6.45,0,0,1-3.95,2.33l5.69,8.84h-5.32l-5.88-10.57Zm0-11.7h1a7.16,7.16,0,0,0,4.1-1,3.27,3.27,0,0,0,1.4-2.86,3.09,3.09,0,0,0-1.17-2.67,6.25,6.25,0,0,0-3.66-.86h-1.66Z"/><path d="M461.4,283.72H457V261h5.9l5.78,16.56L474.44,261h5.9v22.77h-4.4l.16-16.53-5.75,16.53H467l-5.77-16.53Z"/></g><g opacity="0.2"><path d="M363.18,210.14H356.9V197.76h2.4V208h3.88Z"/><path d="M366,210.14V197.76h2.42v12.38Z"/><path d="M371.85,210.14V197.76h6.68v2.18h-4.28v2.82h4.28v2.14h-4.28v5.24Z"/><path d="M388.3,210.14h-6.68V197.76h6.68v2.18H384v2.82h4.29v2.14H384V208h4.29Z"/><path d="M398.19,210.14V197.76h2.42v12.38Z"/><path d="M406.45,210.14h-2.38V197.76h2.3l5.11,7.91v-7.91h2.37v12.38h-2.24L406.45,202Z"/><path d="M416.57,206.3h2.21v.18a1.84,1.84,0,0,0,.41,1.25,1.35,1.35,0,0,0,1.09.47,1.55,1.55,0,0,0,1.16-.43,1.66,1.66,0,0,0,.42-1.19c0-.8-.57-1.37-1.72-1.72l-.35-.11a4.42,4.42,0,0,1-2.14-1.28,3.15,3.15,0,0,1-.69-2.09,4,4,0,0,1,1-2.8,3.32,3.32,0,0,1,2.57-1,3.14,3.14,0,0,1,2.4.94,4,4,0,0,1,1,2.63h-2.19V201a1.34,1.34,0,0,0-.36-1,1.24,1.24,0,0,0-.93-.36,1.21,1.21,0,0,0-.94.37,1.45,1.45,0,0,0-.34,1,1.43,1.43,0,0,0,.07.48,1.11,1.11,0,0,0,.22.38,3.39,3.39,0,0,0,1.5.71c.34.09.6.16.78.23a3.77,3.77,0,0,1,1.88,1.24,3.32,3.32,0,0,1,.61,2.06,4.38,4.38,0,0,1-1.06,3.08,3.66,3.66,0,0,1-2.82,1.16,3.47,3.47,0,0,1-2.68-1.12A4.36,4.36,0,0,1,416.57,206.3Z"/><path d="M427.05,197.76h2.43v7.14a5.28,5.28,0,0,0,.35,2.33,1.45,1.45,0,0,0,2.42,0,5.28,5.28,0,0,0,.35-2.33v-7.14H435v7.86a9.43,9.43,0,0,1-.15,2,3,3,0,0,1-.48,1.15A3.61,3.61,0,0,1,433,210a4.89,4.89,0,0,1-3.92,0,3.61,3.61,0,0,1-1.4-1.25,3.25,3.25,0,0,1-.48-1.11,9.28,9.28,0,0,1-.15-2Z"/><path d="M440.9,210.14h-2.42V197.76h2.94a17.23,17.23,0,0,1,2.09.1,4.32,4.32,0,0,1,1.16.32,3.66,3.66,0,0,1,1.61,1.38,4.17,4.17,0,0,1-.24,4.51,3.51,3.51,0,0,1-2.15,1.27l3.1,4.8H444.1l-3.2-5.75Zm0-6.36h.54a3.93,3.93,0,0,0,2.23-.53,1.78,1.78,0,0,0,.76-1.55,1.66,1.66,0,0,0-.64-1.45,3.32,3.32,0,0,0-2-.47h-.9Z"/><path d="M451.57,207.55l-1,2.59H448.1l4.8-12.38H455l4.74,12.38h-2.59l-1-2.59Zm3.79-2.3-1.46-4-1.5,4Z"/><path d="M464,210.14h-2.38V197.76h2.29l5.12,7.91v-7.91h2.37v12.38h-2.24L464,202Z"/><path d="M486.53,201.44h-3a3.46,3.46,0,0,0-1.25-1.08,3.85,3.85,0,0,0-1.66-.35,3.6,3.6,0,0,0-1.42.28,3.81,3.81,0,0,0-1.19.81,4,4,0,0,0-.85,1.3,4.16,4.16,0,0,0,.79,4.36,3.54,3.54,0,0,0,2.67,1.15,3.79,3.79,0,0,0,1.64-.34,2.89,2.89,0,0,0,1.18-1h3a6.59,6.59,0,0,1-2.31,2.85,6.15,6.15,0,0,1-3.45.95,6.07,6.07,0,0,1-2.57-.54,6.29,6.29,0,0,1-2.11-1.59,6,6,0,0,1-1.2-2,7,7,0,0,1-.41-2.39,6.21,6.21,0,0,1,.49-2.46,6.7,6.7,0,0,1,1.45-2.11,6,6,0,0,1,4.37-1.79,6,6,0,0,1,3.47,1A6.92,6.92,0,0,1,486.53,201.44Z"/><path d="M496.06,210.14h-6.68V197.76h6.68v2.18h-4.28v2.82h4.28v2.14h-4.28V208h4.28Z"/></g><path d="M778.63,390.66l4.61,11.17s-1.07,10.76,0,13a48.86,48.86,0,0,1,2.89,7.21c.36,1.44,1.43,3.6,2.53,2.52s.72-5.39.72-5.39l-.72-5.77,5.39,9.72s3.6,7.42,4.61,7.42,3.25-.71,2.17-2.52a30.87,30.87,0,0,1-3.23-7.43,25.46,25.46,0,0,0-1.8-5l1.43-1.44,6.15,11.17s2.68,5.38,4.61,4-4.32-12.62-4.61-13.7a26.8,26.8,0,0,0-1.09-2.87l.72-1.45a66.05,66.05,0,0,0,4.34,6.49c1.07,1.08,2.52,4.32,3.59,4.32s2.88-.72,1.8-2.52-3.59-5.77-3.59-5.77l-4-7.21,3.6,1.8a20.72,20.72,0,0,0,4.09,1.65,1.64,1.64,0,0,0,1.6-.37l.12-.1a1.74,1.74,0,0,0-.47-2.8,30.16,30.16,0,0,0-2.82-1.25c-1.09-.35-3.95-2.52-5-2.89s-3.25-4-5.77-5.77-4.61-3.59-5.76-4.32a55.83,55.83,0,0,1-4.32-4l-4-3.6Z" fill="#f9b499"/><path d="M648.68,467.16s4.81,29.3,11.53,44.18,18.26,87.44,20.18,95.12,4.27,21.62,4.27,21.62a45,45,0,0,1-12,11c-7.21,4.32-14.9,9.13-17.77,9.61s-6.26,4.79-2.89,6.24,16.34.47,22.58-.48,13.45-1,17.29-1.92,12,3.84,13.93-4.32-2.4-24-2.4-24-3.84-59.56-3.84-74.46S691.87,508,691.87,508l-3.79-51.85-38,2.4Z" fill="#f9b499"/><path d="M705.85,648.29c1.92-8.18-2.4-24-2.4-24s-3.84-59.56-3.84-74.46a95.74,95.74,0,0,0-1.54-15.2c-9.72,3.21-23.06,2.17-31.14,1,5.91,27,12.15,65.38,13.52,70.85,1.92,7.69,4.32,21.62,4.32,21.62a45,45,0,0,1-12,11c-7.21,4.32-14.9,9.13-17.77,9.61s-6.26,4.79-2.89,6.24,16.34.47,22.58-.48,13.45-1,17.29-1.92S703.93,656.42,705.85,648.29Z" fill="#f48225" data-secondary="true"/><path d="M662.62,461.4s-9.13,41.78-9.13,50.91,0,34.11,1,41.3,2.42,72.54,2.42,72.54-4.81-.47-4.81,1v3.35a117.18,117.18,0,0,1-17.77,4.34c-11.06,1.92-18.74.48-18.74,3.84s16.34,10.56,28.34,13.93,30.27,6.72,33.14,3.84,2.4-13.93,2.4-16.82.49-9.6.49-13.45-.49-6.71.48-10.08,9.13-41.32,9.13-50-.49-33.63-1.92-39.4-4.33-20.64-4.33-20.64,17.78-26.9,23.55-36.51A179.11,179.11,0,0,0,717.38,448l-55.25,5.76Z" fill="#f9b499"/><path d="M653.55,528.79c.09,9.84.32,20.52.89,24.82,1,7.21,2.42,72.54,2.42,72.54s-4.81-.47-4.81,1v3.35a117.18,117.18,0,0,1-17.77,4.34c-11.06,1.92-18.74.48-18.74,3.84s16.34,10.56,28.34,13.93,30.27,6.72,33.14,3.84,2.4-13.93,2.4-16.82.49-9.6.49-13.45-.49-6.71.48-10.08,9.13-41.32,9.13-50c0-7.59-.37-27.79-1.44-36.49A206.37,206.37,0,0,1,653.55,528.79Z" fill="#f48225" data-secondary="true"/><path d="M642,453.22l.48,17.79s18.26.95,41.32.95,51.88-13,51.88-13l-3.85-13.92-63.4-21.2Z" fill="#2f2e41"/><path d="M645.62,187s-25.52,20.16-21.24,30.62,14.4,22.71,14.75,28.1-15.12,20.91-8.64,29.9,54,13,58,20.54-5.76,20.54-2.52,29.54,22.34,13.33,44,9,35.67-18.37,31.7-37.46S734,278.47,731.36,267.3s.73-16.21-7.56-19.1-19.09,1.45-17.29-5,13-15.12,6.15-25.22-15.87-11.89-14-14.05,12.29,0,7.19-8.29-31-16.15-42.52-15.85A25.81,25.81,0,0,0,645.62,187Z" fill="#2f2e41"/><path d="M595.12,267.73l-.21-7.23s3.39-10.76,3.83-12.76-2.77-12.11-3.62-13.39-9.77-8.08-12.13-11.91-7.85-4-9.77-3.61-2.34,2.55-1.06,3.2a14.16,14.16,0,0,1,3.61,1.69c.86.86,4.47,4.9,4.89,5.53s-8.07,11.48-8.07,14.47A20.85,20.85,0,0,0,576,253.91a109,109,0,0,0,7.23,9.36l-1.06,6Z" fill="#f9b499"/><path d="M581.3,229.47s-6.15-4.62-7.44-2.12-3.61,3.61-2.13,5.3,7.24,8.93,8.93,7.87,2.33-1.28,1.54-3.4a47.91,47.91,0,0,0-2.77-5.32" fill="#f9b499"/><path d="M572.16,233.92s-3.62,3.62-3.4,5.11,6,7.87,8.93,7.22.63-3.39,0-4.61S576,238,576,238Z" fill="#f9b499"/><path d="M569.18,240.73A4.85,4.85,0,0,0,567.9,245c.43,2.75,6,5.95,7,5.31s.43-3.62-.43-4.62a14.21,14.21,0,0,0-1.9-1.9Z" fill="#f9b499"/><path d="M586,251.16a20.3,20.3,0,0,1,2.76-7.69,28.7,28.7,0,0,0,3.83-8.72c0-.64-2.12-8.71-1.71-11.06s4.89-6.58,5.11-3.83a61.16,61.16,0,0,0,.84,9.15c.86,4.61,3.42,9.22,2.77,16.15s-7.22,12.3-7.22,12.3" fill="#f9b499"/><path d="M658.29,261.67s-31.7,10.76-33.82,14.42-22.69,35.35-22.69,35.35l-6.49-45.76-15.14.37s-2.87,30.25-2.87,44.67,4.68,32.07,7.56,37.46,5.41,4.62,9,1.82S627,323.7,627,323.7l6.49,35.66s2.89,44.67,3.61,45.75-3.61,53-3.61,53,15.49,4,18.44,4,7.57.36,7.57.36l8.63-24.51,2.17,24.86s26.66,1.81,46.12-4.32,21.26-11.53,21.26-11.53-1.45-29.54-6.49-45.74-20.54-43.6-23.78-49.73-2.89-9.73-2.52-12.61,3.6-34.94,3.6-34.94l33.81,35.36,33.51,56.21s7.94-3.24,9.73-4.33,4.32-6.15,4.32-6.15S775.8,350,770.76,341s-12.6-21.26-12.6-21.26S730.49,274.37,730,273.28s-3.95-9.72-7.19-11.16-37.11-4-39.28-4-6.84.35-7.93.35S658.29,261.67,658.29,261.67Z" fill="#f48225" data-secondary="true"/><path d="M653.92,235s2.17,23,2.52,26.3-3.24,9.36-1.44,14.77,5.76,10.76,12.62,5.39,13.68-19.09,13.68-22V232.13S659.73,239.4,653.92,235Z" fill="#f9b499"/><path d="M124.9,634.47a61.53,61.53,0,0,1-5.72,7.9c-2.18,2.18-8.72,6.79-11.16,8.93s-2.16,3.81-1.09,5.45,44.09,0,44.09,0,1.62,1.09,1.62-5.45a22.23,22.23,0,0,0-2.44-10.61S127.88,634.21,124.9,634.47Z" fill="#686175" data-primary="true"/><path d="M106.27,654.07a3.63,3.63,0,0,0,.73,2.72c1.09,1.62,44.09,0,44.09,0s1.11.73,1.5-2.72Z" fill="#2f2e41"/><path d="M209.19,634.47a61.4,61.4,0,0,0,5.89,7.9c2.25,2.18,8.94,6.79,11.53,8.93s2.23,3.81,1.12,5.45-45.5,0-45.5,0-1.79,1.09-1.79-5.45a21.68,21.68,0,0,1,2.65-10.57S206.1,634.21,209.19,634.47Z" fill="#686175" data-primary="true"/><path d="M228.48,654.07a3.56,3.56,0,0,1-.75,2.72c-1.12,1.62-45.5,0-45.5,0s-1.16.73-1.55-2.72Z" fill="#2f2e41"/><path d="M119.63,420.43s3.57,146.5,4.18,154.2,3.25,29.65,3.25,29.65-.8,8.7-1.36,11.42,2,10.61,2,10.61a24.43,24.43,0,0,0-2.17,4.63c-.27,1.36-.54,3.57-.54,3.57a111.21,111.21,0,0,1,14.68,4.07,27.67,27.67,0,0,0,10.62,2.18s1.09-7.14,2.44-12,3-11.14,2.72-16.31-3.27-14.43-3-17.15,3.8-9.25,3.8-13.88-.55-14.68-.55-14.68l14.06-113.4,9.61,152.84s-4.63,16.6-1.89,19.33a64.16,64.16,0,0,1,4.53,5.22,39.81,39.81,0,0,0-1.37,6c0,1.36.28,2.18.28,3.27a20.71,20.71,0,0,0,.27,2.72S188,640,194,638.1a77.86,77.86,0,0,1,15.24-2.45s.27-7.89.27-10.88,2.45-7.89,1.89-10.88-2.71-8.43-3.25-10.61a43.45,43.45,0,0,1-.55-7.89c0-1.09,5.07-159.36,5.07-159.36s-2.79-21.32-2.79-22.14-3-9.79-3-9.79l-87,11.42Z" fill="#2f2e41"/><polygon points="147.93 269.43 132.96 279.76 146.28 415.8 196.34 408.73 179.21 266.97 147.93 269.43" fill="#fff"/><path d="M139.21,249.84,143,283.57s5.17,6.53,17.87,4.62,14.42-10.88,14.42-10.88L172.6,246s-3,3.27-12.79,5.72S139.21,249.84,139.21,249.84Z" fill="#f9b499"/><path d="M86.44,332.27S84,318.4,82.36,313.51,74.47,306.15,72,304s-3.27-7.9-6-7.15-1.91,4.34-.82,6.79a37.47,37.47,0,0,0,3.58,5.71s-6-3.26-9.8-4.89a31.38,31.38,0,0,1-7.61-4.63c-1.37-1.09-.55,5.72.54,9.79s3.81,11.17,9.52,14.15,10.06,5.18,10.06,5.18l3.82,7.88Z" fill="#f9b499"/><path d="M75.9,323.57s-2.18-6.81-5.72-8.44-4.63,0-6.79-3-4.09-9.79-6.27-12.77-3.25.8-2.45,4.34S58.48,317,59,319.21s4.9,4.09,6.81,5.45" fill="#f9b499"/><path d="M138.94,262.9a45.13,45.13,0,0,1,4.84,9.52,38.54,38.54,0,0,1,2.74,10.34,12.83,12.83,0,0,1,.26,4.9,49.55,49.55,0,0,0-.55,8.43c.34,2.71,8.27,130,8.27,132.79s.82,9.24-.27,9.79,3,2.18-15-1.09a122.65,122.65,0,0,1-29.15-8.7V387s-4.63,3.57-13.33.82c-12.92-4-15.24-15.77-20.13-29.92s-7.9-21-7.9-21L86.44,328l6.8,11.59s7.35-29.38,7.35-33.47S99.5,296,100,294.66,134,273.22,134,273.22,136.49,262.36,138.94,262.9Z" fill="#686175" data-primary="true"/><polygon points="117.45 406.55 118.27 413.07 141.39 401.1 140.59 393.22 117.45 406.55" opacity="0.2"/><path d="M271.45,314.54l6.52-6s4.63-8.43,6.27-11.69,5.7-.55,8.7-2.17,7.61-5.72,8.43-3.81a3.56,3.56,0,0,1-1.35,4.34,41,41,0,0,1-4.63,2.45,90.06,90.06,0,0,0,8.93-2.72c1.64-.82,10.08-6.25,10.08-2.71s-5.45,10.61-8.94,14.15-8.93,8.43-14.95,10.32-7.34,2.45-7.34,2.45l-5.72,6.27Z" fill="#f9b499"/><path d="M281.77,315.4s3-8.43,6-9.52,11.43-1.36,11.43-1.36,5.17-8.43,8.44-11.15,3.27,1.09,1.91,4.08a56.34,56.34,0,0,1-6.81,10.34,44.08,44.08,0,0,1-3.8,3.81" fill="#f9b499"/><path d="M295.39,297.71s-4.63.29-6,1.65" fill="#f9b499"/><path d="M173.78,263.43s7.34,58.78,7.34,69.68,4.63,103.94,4.63,103.94a45.52,45.52,0,0,0,23.12-3.27c12.79-5.18,14.68-9.26,15-11.44S218.48,366,218.48,366s4.63,2.72,14.15-.55,49.23-33.2,49.23-33.2L271.54,314.6,237,329.3s-9.81-25.85-14.15-34.28-3.27-11.7-6-14.42-32.39-8.93-32.39-8.93-5.16-10.33-6.79-12.51S173.49,257.37,173.78,263.43Z" fill="#686175" data-primary="true"/><polygon points="195.81 388.6 195.27 394.03 215.41 402.46 215.94 397.03 195.81 388.6" opacity="0.2"/><path d="M655.77,254.51l-.83-5.54s18.9.69,26.36-5.73C681.3,243.24,674.5,257.7,655.77,254.51Z" fill="#f7a78d"/><path d="M683.48,239.35c1.88-4.31,6-19.63,6-19.63s-15.59-10.42-24.44-26c0,0-20.83,14.82-20.83,17.63s-.72,13.1,1,22.42c.11.64.22,1.29.31,1.94.43,3.26,3.17,17.35,19.15,15.83C664.65,251.5,677.83,252.29,683.48,239.35Z" fill="#f9b499"/><path d="M689.49,219.72l1.92,3.67a5,5,0,0,1-.28,5.13,15.32,15.32,0,0,1-1.55,1.88c-2.39,2.65-3.92,2.65-3.92,2.65L688.38,222Z" fill="#f9b499"/><path d="M644.07,220s-4.49,1.44-4,4.86,4.78,6.75,4.78,6.75Z" fill="#f9b499"/><path d="M140.13,258l-.92-8.11L172.6,246l.68,7.86S159.06,268.35,140.13,258Z" fill="#f7a78d"/><path d="M175,225.34s4.2-4.62,4.81.82S175.24,237,175.24,237Z" fill="#f9b499"/><path d="M175.14,239.21c1-4.57-.29-18.78-.29-18.78s6-12.51,3.57-18-6.78-14.41-20.13-16.59-22.33,1.93-24.78,6c0,0-7.63,5.18-10.08,11.7s-1.08,8.93-.26,12.51,5.71,12.5,5.71,12.5,4.9,15,6.52,18.51a16.18,16.18,0,0,0,1.37,2.53c9.16,14.18,30.62,11.59,36.57-4.21A43.65,43.65,0,0,0,175.14,239.21Z" fill="#f9b499"/><path d="M178.39,202.49c-2.45-5.36-6.79-14.41-20.14-16.59s-22.29,1.91-24.74,6c0,0-7.63,5.18-10.08,11.7s-1.08,8.94-.26,12.51,5.71,12.5,5.71,12.5l1,3.17.32-.16s-1.91-13.35-1.36-16.08,5.36-6.26,6.52-8.94a32.11,32.11,0,0,0,1.36-3.82s6.27,9.52,17.42,9.52,16.33-.53,16.33-.53l2.72,5.36,1.62,3.25S180.84,207.94,178.39,202.49Z" fill="#2f2e41"/><path d="M129.92,231.77s-4.31-3.16-4.84,1.47,1.36,6.81,3.8,7.61,4.9,1.91,4.9,1.91Z" fill="#f9b499"/></svg>