<svg id="f045c98a-126e-4718-a6d0-998c0816e900" data-name="Layer 1" xmlns="http://www.w3.org/2000/svg" xmlns:xlink="http://www.w3.org/1999/xlink" width="865.76" height="682.89" viewBox="0 0 865.76 682.89"><defs><clipPath id="ab39a234-8046-46b1-aeb1-03e0c567b6d4"><path id="fef57288-abab-4b58-abb4-5b0ea785bd67" data-name="SVGID" d="M384.63,35.18h81.58A17.62,17.62,0,0,1,483.84,52.8V630.09a17.62,17.62,0,0,1-17.63,17.62H179.39a17.62,17.62,0,0,1-17.62-17.62V52.8a17.62,17.62,0,0,1,17.62-17.62h83.14a4.22,4.22,0,0,1,3.83,2.43l4.85,10.27A5.37,5.37,0,0,0,276.05,51H370.8a5.36,5.36,0,0,0,4.79-3l5.25-10.47A4.24,4.24,0,0,1,384.63,35.18Z" fill="#fff" stroke="#1c2f4f" stroke-miterlimit="10" stroke-width="2" opacity="0.56"/></clipPath><clipPath id="a6c099f0-1a89-4d88-80f1-85a52a3c71b1"><circle id="b07f0308-8a83-4211-ae48-250b568795dd" data-name="SVGID" cx="324.56" cy="274" r="102.72" fill="#cee5ff"/></clipPath></defs><path d="M614.41,584.53a19.48,19.48,0,0,1-.12,4.12c-1,7.49-6.51,8-6.51,8l-51.57,13.63a10.37,10.37,0,0,1-5.22-1.41c-3.43-2.34.06-6.7.06-6.7l33.16-23.57c6.63-4,10.68-17,10.68-17l19.89,3Z" fill="#686175" data-primary="true"/><path d="M614.29,588.65c-1,7.49-6.51,8-6.51,8l-51.57,13.63a10.37,10.37,0,0,1-5.22-1.41l.06-.07S601.93,595.66,614.29,588.65Z" opacity="0.2"/><polygon points="387.21 530.73 443.27 546.75 509.05 523.87 446.13 509.57 387.21 530.73" fill="#ddeef8"/><polygon points="443.27 546.75 442.12 613.11 388.92 601.1 387.21 530.73 443.27 546.75" fill="#d5ebf7"/><polygon points="509.05 523.87 512.49 599.95 442.12 613.11 443.27 546.75 509.05 523.87" fill="#c2e2ef"/><path d="M473.7,519c.1,2.82-1.44,6.07-8.1,7.73,0,0-40.41,7.41-54.32,8.38a3.24,3.24,0,0,1-3.46-3.43c.25-4.48,2.89-12.12,16.88-16.37,0,0,28.36-7,26.89-24.31l17.32,1.84s.74,12.53,2.95,21A10.66,10.66,0,0,1,473.7,519Z" fill="#686175" data-primary="true"/><path d="M473.7,519c.1,2.82-1.44,6.07-8.1,7.73,0,0-40.41,7.41-54.32,8.38a3.24,3.24,0,0,1-3.46-3.43S468.91,524.48,473.7,519Z" opacity="0.2"/><path d="M623.4,556.19c0,1.1-.06,2.2-.09,3.31h0v.19a8.64,8.64,0,0,1-.87,3.71l0,0c0,.09-.07.17-.12.26a11.27,11.27,0,0,1-.68,1.13.91.91,0,0,1-.11.16c-5.84,8.44-19.61,3.83-26.68.68a1.36,1.36,0,0,1-.25-.11,8.67,8.67,0,0,1-5-6.4c-.15-.83-.31-1.76-.49-2.78C582.83,518.84,560.26,355,560.26,355c-22.47,11-80.66,26.52-80.66,26.52l-1.81,106.73a7,7,0,0,1-2.17,5c-8.7,8.07-23.66,6.51-23.66,6.51-9.57-1.85-8.1-10.32-8.1-10.32,0-25.42-11.42-99.46-11.42-99.46-3.32-36.53,28.49-52.27,40.08-56.76a80.65,80.65,0,0,0,12.16-6c18.86-11.28,38-26.78,38-26.78L618.46,302l5.9,140.72c.31,6.55.44,15.58.45,25.73C624.86,499.7,623.79,541.74,623.4,556.19Z" fill="#f48225" data-secondary="true"/><path d="M560.26,355l-.21-19.91s-38.29,34.23-84.23,40.09l2.26,95.48,1.51-89.14S532.57,368.08,560.26,355Z" opacity="0.2"/><path d="M580.84,314.49c-16.47,14.77-49.13-.85-49.13-.85-9.38-5.4-21.24-3.72-21.24-3.72l11.82-9.11a8.35,8.35,0,0,0,3.61,4.05,19.68,19.68,0,0,1,6.6,3.1,29.55,29.55,0,0,0,13,5.53,121.33,121.33,0,0,0,14,1.21,100.85,100.85,0,0,0,21.15-.27Z" opacity="0.2"/><path d="M635.92,234.19s5.82,4.47,13.42-13.86l1.79-23.71-20.57,24.15Z" fill="#686175" data-primary="true"/><path d="M635.92,234.19s5.82,4.47,13.42-13.86l1.79-23.71-20.57,24.15Z" opacity="0.2"/><path d="M648.45,206.91c-14.31,17-12.53,27.28-12.53,27.28-13.23-15.1-16.83-42.87-17.67-51.81a.31.31,0,0,0-.62,0c-3,25.37,5,68.54,5,68.54,5.2,27.75-20.82,22.25-20.82,22.25-22.53,0-13.28,18.5-13.28,18.5,4.62,8.1,1.73,11.56,1.73,11.56-19.65,21.38-53.47-14.74-53.47-14.74-15-12.71-14.16-67.34-14.16-67.34.86-24.28-4.91-28.9-4.91-28.9a29.7,29.7,0,0,1-11.56,17.92c-10.68,6-19.49-1.64-21.11-3.19l8.18-21.08c7.16-14.76,15.65-15.21,15.65-15.21l17.44-8.5,70.23-2.24c16.1,1.8,31.75,13.42,31.75,13.42l23.26,16.56c9.39-1.35,14.75,6.7,14.75,6.7C658.74,196.62,648.45,206.91,648.45,206.91Z" fill="#686175" data-primary="true"/><path d="M624.84,468.3q0,14.32-.18,28.86-.36,29.9-1.26,59c0,1.1-.06,2.2-.09,3.31h0a10.07,10.07,0,0,1-.9,3.93c0,.09-.07.17-.12.26a8.56,8.56,0,0,1-.53.93l-.15.2a.91.91,0,0,1-.11.16c-.27.36-.56.66-.79,1-2.68,3.35-9.6,6.78-25.89-.27a1.36,1.36,0,0,1-.25-.11,8.67,8.67,0,0,1-5-6.4c-.15-.83-.31-1.76-.49-2.78,0-.09,0-.17,0-.26s20.16-1.8,26.42-34.58l9.29-53.1Z" opacity="0.2"/><path d="M635.92,234.19l-4-2.23c-6.26-2.69-5.8,4.92-5.8,4.92v39.81c-.46,30.85-30.42,34.43-30.42,34.43a76,76,0,0,1-15.08,3.31,100.85,100.85,0,0,1-21.15.27,121.33,121.33,0,0,1-14-1.21,29.55,29.55,0,0,1-13-5.53,19.68,19.68,0,0,0-6.6-3.1,8.35,8.35,0,0,1-3.61-4.05c-3.58-7.3-3.66-21.75-3.27-31.2a52.59,52.59,0,0,0-1.92-16.37c-3.55-12.82-4.17-28-4.17-28-4,7.61-7.16,9.85-7.16,9.85,0-11.18-24.15-19.24-24.15-19.24l3.45-8.88c1.62,1.55,10.43,9.18,21.11,3.19a29.7,29.7,0,0,0,11.56-17.92s5.77,4.62,4.91,28.9c0,0-.87,54.63,14.16,67.34,0,0,33.82,36.12,53.47,14.74,0,0,2.89-3.46-1.73-11.56,0,0-9.25-18.5,13.28-18.5,0,0,26,5.5,20.82-22.25,0,0-8-43.17-5-68.54a.31.31,0,0,1,.62,0C619.09,191.32,622.69,219.09,635.92,234.19Z" fill="#686175" data-primary="true"/><path d="M635.92,234.19l-4-2.23c-6.26-2.69-5.8,4.92-5.8,4.92v39.81c-.46,30.85-30.42,34.43-30.42,34.43a76,76,0,0,1-15.08,3.31,100.85,100.85,0,0,1-21.15.27,121.33,121.33,0,0,1-14-1.21,29.55,29.55,0,0,1-13-5.53,19.68,19.68,0,0,0-6.6-3.1,8.35,8.35,0,0,1-3.61-4.05c-3.58-7.3-3.66-21.75-3.27-31.2a52.59,52.59,0,0,0-1.92-16.37c-3.55-12.82-4.17-28-4.17-28-4,7.61-7.16,9.85-7.16,9.85,0-11.18-24.15-19.24-24.15-19.24l3.45-8.88c1.62,1.55,10.43,9.18,21.11,3.19a29.7,29.7,0,0,0,11.56-17.92s5.77,4.62,4.91,28.9c0,0-.87,54.63,14.16,67.34,0,0,33.82,36.12,53.47,14.74,0,0,2.89-3.46-1.73-11.56,0,0-9.25-18.5,13.28-18.5,0,0,26,5.5,20.82-22.25,0,0-8-43.17-5-68.54a.31.31,0,0,1,.62,0C619.09,191.32,622.69,219.09,635.92,234.19Z" opacity="0.2"/><path d="M535.29,166.21l1.79,13.42s0,17,24.6,5.81l13.86-35.78-18.78-7.16Z" fill="#ffcdc6"/><path d="M535,164.23l1.54,11.53s14.76-7.37,20.87-23.06Z" fill="#f7a79e"/><ellipse cx="537.77" cy="126.42" rx="26.4" ry="39.99" fill="#ffcdc6"/><path d="M600.22,153.3c-.44.94-.91,1.86-1.29,2.81-7.34,18.21-17.68,25.52-26.84,28.06a34,34,0,0,1-20.7-1c10.44-17.4,10.13-37.94,9.06-48.47a69.41,69.41,0,0,0-1-7c-.25-4.86-4.44-7.87-8.22-9.61a28,28,0,0,0-8.55-2.18c-18-2-16.77-20.86-16.77-20.86-14.35,9.9-14.44,27.69-14.44,28.09-11.17-20.57,8.18-34.8,8.18-34.8,7.15-13.86,28.62-10.29,28.62-10.29,14.07-7.44,22.31-1.47,26.68,4.6a27.15,27.15,0,0,1,4.61,11.06c2.44,13.8,8.73,27.9,12.93,36.25,2.37,4.69,4.08,7.58,4.08,7.58C601.93,147,601,151.59,600.22,153.3Z" fill="#273956"/><path d="M535.29,166.21c-5,9.2-13.8,8.86-20.68,6.75h0a41.14,41.14,0,0,1-9.72-4.51,33,33,0,0,0,9.81-22.64c3,8.14,7,13,10.79,16C530.71,165.89,535.29,166.21,535.29,166.21Z" fill="#273956"/><path d="M641.13,217.14s37.28,14.82,31,23.31l-33.1,45.62s-5.13,6.85-10,4.37a11.57,11.57,0,0,0-7.84-.77c-5.38,1.24-13.26,4.12-17.93,10.72,0,0-5.36,2.68-6.26,7.6,0,0-5.81,7.15,3.13,5.37,0,0,7.16,0,18.34-6.71,0,0,21,5.36,30.86-4,0,0,16.46-12.44,40.25-44.57a91.1,91.1,0,0,1,6.93-8.27c4.1-4.34,10.58-13.2,5.77-22.05a16.06,16.06,0,0,0-3.93-4.64l-32-26.47S653.51,196.06,641.13,217.14Z" fill="#ffcdc6"/><path d="M597,308a40.08,40.08,0,0,1,6.09-2.76,39.17,39.17,0,0,1,6.44-1.82A44.61,44.61,0,0,1,597,308Z" fill="#f7a79e"/><path d="M603.27,300.39a15.27,15.27,0,0,1,7.4-2.38,13.31,13.31,0,0,1-3.54,1.67A13.73,13.73,0,0,1,603.27,300.39Z" fill="#f7a79e"/><path d="M505.77,235.09s-5.92,47.38-25.44,53.27c0,0-9.21,1.84-10.32-13.63,0,0-.73-39,7.37-69.25,0,0-11.42-9.58-9.21-15.1,0,0-1.84-4.79.37-7.74,0,0-1.1-5.52,2.95-5.89,0,0,1.47-6.63,6.63-1.84,0,0-2.95-6.63,1.47-4.79l3.69,4.42s12.52,4.05,10.68,21.73L491,220.22S503.59,223.44,505.77,235.09Z" fill="#ffcdc6"/><path d="M478.47,164.33h4.95a0,0,0,0,1,0,0V204.9a2.07,2.07,0,0,1-2.07,2.07h-.81a2.07,2.07,0,0,1-2.07-2.07V164.33a0,0,0,0,1,0,0Z" fill="#273956"/><ellipse cx="480.17" cy="146.91" rx="20.44" ry="22.02" fill="#273956"/><path d="M468.17,190.38a30.26,30.26,0,0,0,14.44,2,5.35,5.35,0,0,1,2.88.45,2.77,2.77,0,0,1,1.69,3.07,4.29,4.29,0,0,1-4.18,3.49c-3.07.08-8.42,0-12.62-1.23C470.38,198.11,466.7,194.8,468.17,190.38Z" fill="#f7a79e"/><path d="M468.54,182.64,485.12,186s5.16,2.6.37,6.82c0,0-11.79.91-17.32-2.4A8.85,8.85,0,0,1,468.54,182.64Z" fill="#f7a79e"/><path d="M485.12,186s4.79-1.48.73-4.42l-7.73-6.63s-5.16-4.79-6.63,1.84c0,0-4.05,0-2.95,5.89Z" fill="#f7a79e"/><path d="M497.6,146.91c0,10.38-7.8,18.77-17.42,18.77a16.21,16.21,0,0,1-3.9-.47,16,16,0,0,1-3.39-1.25,17.7,17.7,0,0,1-6.75-5.92,19.2,19.2,0,0,1-3-7.3,20.06,20.06,0,0,1-.37-3.83c0-10.37,7.81-18.77,17.44-18.77.39,0,.76,0,1.14,0a16.37,16.37,0,0,1,7.23,2.26,18.14,18.14,0,0,1,6.33,6.4,18.92,18.92,0,0,1,1.61,3.47A20,20,0,0,1,497.6,146.91Z" fill="#e6e7e8"/><path d="M491.75,249.68c-.27-2.45-.43-4.9-.57-7.35s-.23-4.91-.3-7.37-.1-4.91-.07-7.37l.05-3.69c.05-1.23.07-2.45.15-3.68.15,1.22.22,2.45.34,3.67l.23,3.68c.15,2.46.23,4.91.3,7.37s.1,4.91.07,7.37S491.89,247.22,491.75,249.68Z" fill="#f7a79e"/><g opacity="0.2"><path d="M557.42,86.43A35.87,35.87,0,0,1,563,90.51a50.38,50.38,0,0,1,4.78,5,46.81,46.81,0,0,1,4,5.7l1.67,3,1.4,3.18.34.81.27.82.53,1.66.52,1.66c.19.55.26,1.13.4,1.69l.73,3.4c.15,1.14.25,2.3.37,3.45l.17,1.72c0,.58,0,1.16,0,1.74v3.46a11,11,0,0,1-.13,1.72l-.19,1.72c-.12,1.15-.26,2.29-.4,3.43,0-2.31.27-4.59.23-6.88l-.14-3.42c0-.57,0-1.15-.09-1.71l-.24-1.7-.46-3.38-.76-3.33c-.14-.55-.22-1.12-.41-1.66L575,111l-.54-1.62-.27-.8-.35-.78A47.1,47.1,0,0,0,567.17,96,46.37,46.37,0,0,0,557.42,86.43Z"/></g><g opacity="0.2"><path d="M528.75,94.49a18.81,18.81,0,0,0,.4,3.36,19.31,19.31,0,0,0,.9,3.21,18.71,18.71,0,0,0,3.34,5.69,12.75,12.75,0,0,0,1.13,1.2l.58.59.65.52c.43.34.84.71,1.3,1s.94.6,1.4.9c.24.15.46.32.71.45l.75.38,1.5.75c1,.46,2.1.82,3.14,1.29-1.1-.25-2.22-.52-3.32-.83l-1.59-.64-.8-.32c-.27-.12-.51-.27-.77-.41-.51-.27-1-.55-1.51-.84s-.94-.69-1.41-1l-.69-.53-.62-.61c-.4-.42-.86-.79-1.22-1.25a16.49,16.49,0,0,1-3.29-6.09A16,16,0,0,1,528.75,94.49Z"/></g><path d="M600.22,153.3c-.44.94-.91,1.86-1.29,2.81-7.34,18.21-17.68,25.52-26.84,28.06,21.9-15.82,20.44-53.11,20.39-54.16,2.37,4.69,4.08,7.58,4.08,7.58C601.93,147,601,151.59,600.22,153.3Z" opacity="0.2"/><path d="M560.45,134.73a69.41,69.41,0,0,0-1-7c-.25-4.86-4.44-7.87-8.22-9.61C551.22,118.14,565.35,113.49,560.45,134.73Z" opacity="0.2"/><path d="M535.29,166.21c-5,9.2-13.8,8.86-20.68,6.75h0s9.06-3.17,10.66-11.17h.22C530.71,165.89,535.29,166.21,535.29,166.21Z" opacity="0.2"/><path d="M488.55,130.44,466.14,158a19.2,19.2,0,0,1-3-7.3l18.21-22.56A16.37,16.37,0,0,1,488.55,130.44Z" fill="#fff" opacity="0.2"/><path d="M496.49,140.31l-20.21,24.9a16,16,0,0,1-3.39-1.25l22-27.12A18.92,18.92,0,0,1,496.49,140.31Z" fill="#fff" opacity="0.2"/><path id="b904c916-d1f6-4014-8d1a-fbbe6c2b4828" data-name="SVGID" d="M384.63,35.18h81.58A17.62,17.62,0,0,1,483.84,52.8V630.09a17.62,17.62,0,0,1-17.63,17.62H179.39a17.62,17.62,0,0,1-17.62-17.62V52.8a17.62,17.62,0,0,1,17.62-17.62h83.14a4.22,4.22,0,0,1,3.83,2.43l4.85,10.27A5.37,5.37,0,0,0,276.05,51H370.8a5.36,5.36,0,0,0,4.79-3l5.25-10.47A4.24,4.24,0,0,1,384.63,35.18Z" fill="#fff" opacity="0.56"/><g clip-path="url(#ab39a234-8046-46b1-aeb1-03e0c567b6d4)"><rect x="158.25" y="435.62" width="328.59" height="47.76" fill="#4b83a8"/></g><path id="fe43ebbb-d996-4dde-a145-a1eb06cd84e9" data-name="SVGID" d="M384.63,35.18h81.58A17.62,17.62,0,0,1,483.84,52.8V630.09a17.62,17.62,0,0,1-17.63,17.62H179.39a17.62,17.62,0,0,1-17.62-17.62V52.8a17.62,17.62,0,0,1,17.62-17.62h83.14a4.22,4.22,0,0,1,3.83,2.43l4.85,10.27A5.37,5.37,0,0,0,276.05,51H370.8a5.36,5.36,0,0,0,4.79-3l5.25-10.47A4.24,4.24,0,0,1,384.63,35.18Z" fill="none" stroke="#1c2f4f" stroke-miterlimit="10" stroke-width="2" opacity="0.56"/><rect x="300.58" y="37.45" width="58.17" height="7.45" rx="2.18" fill="#273956"/><circle cx="291.97" cy="40.94" r="3.49" fill="#273956"/><rect x="240.34" y="99.46" width="166.49" height="36.02" rx="10.57" fill="#686175" data-primary="true"/><circle id="b9cff8c0-e720-4f9d-ba24-9fcbe5829f3e" data-name="SVGID" cx="324.56" cy="274" r="102.72" fill="#cee5ff"/><g clip-path="url(#a6c099f0-1a89-4d88-80f1-85a52a3c71b1)"><path d="M409.33,224.69a6.88,6.88,0,0,0-10.88-4.85,10.72,10.72,0,0,0-19.79-3.79,7.34,7.34,0,0,0-.82-.08,7.44,7.44,0,0,0-7.44,7.44,7.71,7.71,0,0,0,.13,1.28Z" fill="#fff"/><path d="M231.86,230.4a4.06,4.06,0,0,1-.52-2,4.11,4.11,0,0,1,4.11-4.11h9.11a9.83,9.83,0,0,1,17.91-5.59,8.12,8.12,0,0,1,12,5.76,4.05,4.05,0,0,1,2.49,5.9Z" fill="#fff"/><polygon points="430.4 242.47 421.48 242.47 421.48 260.14 417.42 260.14 417.42 249.44 404.57 249.44 404.57 260.48 398.43 260.48 398.43 272 393.59 272 393.59 251.8 390.19 251.8 390.19 265.96 385.38 265.96 385.38 355.47 430.4 355.47 430.4 242.47" fill="#b5c7e0"/><rect x="405.97" y="269.42" width="9.06" height="15.83" fill="#cee5ff"/><rect x="405.97" y="294.57" width="9.06" height="15.83" fill="#cee5ff"/><rect x="391.49" y="294.57" width="9.06" height="15.83" fill="#cee5ff"/><rect x="391.49" y="319.72" width="9.06" height="15.83" fill="#cee5ff"/><polygon points="260.03 270.23 260.03 255.89 252.84 255.89 252.84 260.56 242.85 260.56 242.85 240.76 239.72 240.76 239.72 260.56 233.22 260.56 233.22 253.83 222.97 253.83 222.97 258.74 218.29 258.74 218.29 355.43 265.31 355.43 265.31 270.23 260.03 270.23" fill="#b5c7e0"/><polygon points="258.19 244.27 258.19 294.57 387.15 294.57 387.15 246.87 258.19 244.27" fill="#ddeef8"/><polygon points="387.15 242.42 258.19 242.42 258.19 244.27 387.15 246.87 387.15 242.42" fill="#ddeef8"/><polygon points="258.19 355.43 387.15 355.43 387.15 300.36 258.19 298.97 258.19 355.43" fill="#ddeef8"/><polygon points="258.19 294.57 258.19 298.97 387.15 300.36 387.15 294.57 258.19 294.57" fill="#c2e2ef"/><path d="M395.47,240.39a2,2,0,0,0-2-2H251.9a2,2,0,0,0-2,2h0a2,2,0,0,0,2,2H393.44a2,2,0,0,0,2-2Z" fill="#4b83a8"/><path d="M395.47,294.57a2,2,0,0,0-2-2H251.9a2,2,0,0,0-2,2h0a2,2,0,0,0,2,2H393.44a2,2,0,0,0,2-2Z" fill="#4b83a8"/><rect x="270.25" y="253.25" width="23.33" height="27" fill="#fff"/><rect x="271.85" y="254.84" width="20.14" height="23.81" fill="#d3e9f4"/><rect x="320.7" y="306.78" width="58.32" height="48.65" fill="#fff"/><rect x="323.06" y="309.15" width="53.59" height="46.29" fill="#273956"/><g opacity="0.2"><rect x="323.06" y="312.17" width="53.59" height="1.19"/><rect x="323.06" y="315.99" width="53.59" height="1.19"/><rect x="323.06" y="319.82" width="53.59" height="1.19"/><rect x="323.06" y="323.64" width="53.59" height="1.19"/><rect x="323.06" y="327.47" width="53.59" height="1.19"/><rect x="323.06" y="331.29" width="53.59" height="1.19"/><rect x="323.06" y="335.12" width="53.59" height="1.19"/><rect x="323.06" y="338.94" width="53.59" height="1.19"/><rect x="323.06" y="342.77" width="53.59" height="1.19"/><rect x="323.06" y="346.59" width="53.59" height="1.19"/><rect x="323.06" y="350.42" width="53.59" height="1.19"/><rect x="323.06" y="354.24" width="53.59" height="1.19"/></g><polygon points="323.06 309.15 376.65 309.15 376.65 355.43 374.02 355.43 372.58 312.76 323.06 310.33 323.06 309.15" fill="#231f20" opacity="0.2"/><rect x="379.01" y="341.82" width="9.36" height="13.62" fill="#4b83a8"/><rect x="256.47" y="341.82" width="64.23" height="13.62" fill="#4b83a8"/><polygon points="391.48 238.36 375.67 206.54 273.94 215.37 264.29 238.36 322.67 238.36 391.48 238.36" fill="#273956"/><polygon points="375.67 206.54 375.52 206.25 322.67 206.25 269.82 206.25 253.86 238.36 264.29 238.36 273.94 215.37 375.67 206.54" fill="#1c2f4f"/><path d="M281.11,231.92a5.61,5.61,0,0,0-10,0Z" fill="#4b83a8"/><path d="M297.66,231.92a5.61,5.61,0,0,0-10,0Z" fill="#4b83a8"/><path d="M314.21,231.92a5.61,5.61,0,0,0-10,0Z" fill="#4b83a8"/><path d="M330.76,231.92a5.61,5.61,0,0,0-10,0Z" fill="#4b83a8"/><path d="M347.31,231.92a5.61,5.61,0,0,0-10,0Z" fill="#4b83a8"/><path d="M363.86,231.92a5.61,5.61,0,0,0-10,0Z" fill="#4b83a8"/><path d="M380.4,231.92a5.61,5.61,0,0,0-10,0Z" fill="#4b83a8"/><path d="M289.39,222.45a5.61,5.61,0,0,0-10,0Z" fill="#4b83a8"/><path d="M305.93,222.45a5.61,5.61,0,0,0-10,0Z" fill="#4b83a8"/><path d="M322.48,222.45a5.61,5.61,0,0,0-10,0Z" fill="#4b83a8"/><path d="M339,222.45a5.61,5.61,0,0,0-10,0Z" fill="#4b83a8"/><path d="M355.58,222.45a5.61,5.61,0,0,0-10,0Z" fill="#4b83a8"/><path d="M372.13,222.45a5.61,5.61,0,0,0-10,0Z" fill="#4b83a8"/><rect x="280.27" y="254.31" width="1.6" height="24.76" fill="#fff"/><rect x="270.73" y="265.94" width="22.02" height="1.6" fill="#fff"/><polygon points="281.87 254.84 281.87 255.24 290.89 256 291.28 265.94 291.99 265.94 291.99 254.84 281.87 254.84" fill="#c2e2ef"/><polygon points="271.85 254.84 271.85 255.39 279.17 256 279.55 265.94 280.27 265.94 280.27 254.84 271.85 254.84" fill="#c2e2ef"/><polygon points="271.85 267.55 271.85 268.09 279.17 268.71 279.55 278.65 280.27 278.65 280.27 267.55 271.85 267.55" fill="#c2e2ef"/><polygon points="281.87 267.55 281.87 267.95 290.89 268.71 291.28 278.65 291.99 278.65 291.99 267.55 281.87 267.55" fill="#c2e2ef"/><polygon points="293.59 253.25 293.59 280.24 270.25 280.24 270.25 281.11 294.45 281.11 294.45 281.04 294.45 280.24 294.45 253.25 293.59 253.25" fill="#c2e2ef"/><rect x="270.25" y="306.64" width="23.33" height="27" fill="#fff"/><rect x="271.85" y="308.23" width="20.14" height="23.81" fill="#d3e9f4"/><rect x="280.27" y="307.7" width="1.6" height="24.76" fill="#fff"/><rect x="270.73" y="319.34" width="22.02" height="1.6" fill="#fff"/><polygon points="281.87 308.23 281.87 308.63 290.89 309.4 291.28 319.34 291.99 319.34 291.99 308.23 281.87 308.23" fill="#c2e2ef"/><polygon points="271.85 308.23 271.85 308.78 279.17 309.4 279.55 319.34 280.27 319.34 280.27 308.23 271.85 308.23" fill="#c2e2ef"/><polygon points="271.85 320.94 271.85 321.48 279.17 322.1 279.55 332.04 280.27 332.04 280.27 320.94 271.85 320.94" fill="#c2e2ef"/><polygon points="281.87 320.94 281.87 321.34 290.89 322.1 291.28 332.04 291.99 332.04 291.99 320.94 281.87 320.94" fill="#c2e2ef"/><polygon points="293.59 306.64 293.59 333.63 270.25 333.63 270.25 334.5 294.45 334.5 294.45 334.43 294.45 333.63 294.45 306.64 293.59 306.64" fill="#c2e2ef"/><rect x="310.38" y="253.25" width="23.33" height="27" fill="#fff"/><rect x="311.98" y="254.84" width="20.14" height="23.81" fill="#d3e9f4"/><rect x="320.4" y="254.31" width="1.6" height="24.76" fill="#fff"/><rect x="310.86" y="265.94" width="22.02" height="1.6" fill="#fff"/><polygon points="322 254.84 322 255.24 331.03 256 331.41 265.94 332.12 265.94 332.12 254.84 322 254.84" fill="#c2e2ef"/><polygon points="311.98 254.84 311.98 255.39 319.3 256 319.69 265.94 320.4 265.94 320.4 254.84 311.98 254.84" fill="#c2e2ef"/><polygon points="311.98 267.55 311.98 268.09 319.3 268.71 319.69 278.65 320.4 278.65 320.4 267.55 311.98 267.55" fill="#c2e2ef"/><polygon points="322 267.55 322 267.95 331.03 268.71 331.41 278.65 332.12 278.65 332.12 267.55 322 267.55" fill="#c2e2ef"/><polygon points="333.72 253.25 333.72 280.24 310.38 280.24 310.38 281.11 334.58 281.11 334.58 281.04 334.58 280.24 334.58 253.25 333.72 253.25" fill="#c2e2ef"/><rect x="350.51" y="253.25" width="23.33" height="27" fill="#fff"/><rect x="352.11" y="254.84" width="20.14" height="23.81" fill="#d3e9f4"/><rect x="360.53" y="254.31" width="1.6" height="24.76" fill="#fff"/><rect x="350.99" y="265.94" width="22.02" height="1.6" fill="#fff"/><polygon points="362.13 254.84 362.13 255.24 371.16 256 371.54 265.94 372.25 265.94 372.25 254.84 362.13 254.84" fill="#c2e2ef"/><polygon points="352.11 254.84 352.11 255.39 359.44 256 359.82 265.94 360.53 265.94 360.53 254.84 352.11 254.84" fill="#c2e2ef"/><polygon points="352.11 267.55 352.11 268.09 359.44 268.71 359.82 278.65 360.53 278.65 360.53 267.55 352.11 267.55" fill="#c2e2ef"/><polygon points="362.13 267.55 362.13 267.95 371.16 268.71 371.54 278.65 372.25 278.65 372.25 267.55 362.13 267.55" fill="#c2e2ef"/><polygon points="373.85 253.25 373.85 280.24 350.51 280.24 350.51 281.11 374.72 281.11 374.72 281.04 374.72 280.24 374.72 253.25 373.85 253.25" fill="#c2e2ef"/><rect x="379.01" y="306.78" width="1.05" height="35.03" fill="#c2e2ef"/><rect x="379.01" y="341.82" width="0.53" height="13.62" opacity="0.2"/><polygon points="218.29 358.16 218.29 362.88 429.51 362.44 429.51 358.16 218.29 358.16" fill="#929496"/><polygon points="218.29 362.88 218.29 379.46 429.51 379.46 429.51 362.44 218.29 362.88" fill="#a7a9ac"/><polygon points="218.29 355.43 218.29 357.02 429.51 358.11 429.51 355.43 218.29 355.43" fill="#545257"/><polygon points="218.29 357.02 218.29 360.89 429.51 360.89 429.51 358.11 218.29 357.02" fill="#414042"/><path d="M259.09,370.09a2.8,2.8,0,0,1-2.79,2.8H225.21a2.8,2.8,0,0,1-2.8-2.8h0a2.8,2.8,0,0,1,2.8-2.8H256.3a2.79,2.79,0,0,1,2.79,2.8Z" fill="#929496"/><path d="M281.28,370.09a2.8,2.8,0,0,1-2.8,2.8h-10a2.8,2.8,0,0,1-2.79-2.8h0a2.79,2.79,0,0,1,2.79-2.8h10a2.8,2.8,0,0,1,2.8,2.8Z" fill="#929496"/><path d="M384.07,370.09a2.81,2.81,0,0,0,2.8,2.8h28.87a2.8,2.8,0,0,0,2.8-2.8h0a2.8,2.8,0,0,0-2.8-2.8H386.87a2.8,2.8,0,0,0-2.8,2.8Z" fill="#929496"/><path d="M367.24,370.09a2.8,2.8,0,0,0,2.8,2.8h3.6a2.8,2.8,0,0,0,2.8-2.8h0a2.8,2.8,0,0,0-2.8-2.8H370a2.8,2.8,0,0,0-2.8,2.8Z" fill="#929496"/><rect x="225.51" y="269.42" width="9.06" height="15.83" fill="#cee5ff"/><rect x="241.8" y="269.42" width="9.06" height="15.83" fill="#cee5ff"/><rect x="225.51" y="319.72" width="9.06" height="15.83" fill="#cee5ff"/><rect x="241.8" y="294.57" width="9.06" height="15.83" fill="#cee5ff"/><path d="M400.37,334.34c-6.24-1.95-10.89-11.72-11.08-12.13l1.61-.76c0,.09,4.51,9.47,10,11.19Z" fill="#ad5105"/><path d="M402.21,331.16l-1.07-1.43c5.65-4.23,8.29-11.55,8.32-11.62l1.68.6C411,319,408.3,326.59,402.21,331.16Z" fill="#994507"/><rect x="398.87" y="317.78" width="2.43" height="37.65" fill="#ad5105"/><rect x="401.31" y="317.78" width="1.56" height="37.65" fill="#994507"/><path d="M412.89,277.56l-.27,0a21.76,21.76,0,0,1,13.24,20c0,.43,0,.85-.06,1.28a18.42,18.42,0,0,0-10.43-3.22,18.86,18.86,0,0,0-4,.44,18.47,18.47,0,0,1,12,27.32,24.12,24.12,0,0,0-10.47-45.87Z" fill="#009444"/><path d="M411.37,296.11a18.86,18.86,0,0,1,4-.44,18.42,18.42,0,0,1,10.43,3.22c0-.43.06-.85.06-1.28a21.76,21.76,0,0,0-13.24-20A24.12,24.12,0,0,0,390,294.18a15.14,15.14,0,0,0,1.83,30c.35,0,.69,0,1,0a15,15,0,0,0,6.2-1.36,12.72,12.72,0,0,0,1.23-.6,24,24,0,0,0,23.09,1.18,18.5,18.5,0,0,0-12-27.32Z" fill="#39b54a"/><path d="M253.19,351.49a13.85,13.85,0,0,1-.57,3.94h7.3c0-.43.07-.86.07-1.29a14.14,14.14,0,0,0-12.77-14.08A13.91,13.91,0,0,1,253.19,351.49Z" fill="#009444"/><path d="M252.62,355.43a13.92,13.92,0,0,0-5.4-15.37c-.45,0-.91-.07-1.38-.07a14.12,14.12,0,0,0-11.69,6.19,6.7,6.7,0,0,0-1.86-.3,6.76,6.76,0,0,0-6.18,9.55Z" fill="#39b54a"/><path d="M277.48,201.79c0-.12,0-.23,0-.35a3.78,3.78,0,0,1,3.78-3.78h4.71a6.22,6.22,0,0,1-.08-1,6.85,6.85,0,0,1,12.77-3.44,5.42,5.42,0,0,1,4.18-2c.22,0,.43,0,.65,0a8.16,8.16,0,0,1,14-1.75,5.41,5.41,0,0,1,7.57,4.95v0q.3,0,.6,0a6,6,0,0,1,5.29,3.15,3.77,3.77,0,0,1,3.61,3.76c0,.12,0,.23,0,.35Z" fill="#fff"/><path d="M346.5,201.79a3.94,3.94,0,0,1,6.23-2.78,6.14,6.14,0,0,1,11.33-2.17,3.56,3.56,0,0,1,.47-.05,4.26,4.26,0,0,1,4.26,4.26,3.65,3.65,0,0,1-.08.74Z" fill="#fff"/></g><path d="M194.12,274l13.06-8a.83.83,0,0,1,1.28.71v14.58a.84.84,0,0,1-1.21.75l-13.07-6.53A.84.84,0,0,1,194.12,274Z" fill="#273956"/><path d="M454.64,273.64l-13.07,8a.84.84,0,0,1-1.28-.72V266.39a.84.84,0,0,1,1.22-.75l13.06,6.53A.84.84,0,0,1,454.64,273.64Z" fill="#273956"/><circle cx="250.08" cy="516.17" r="16.55" fill="#1c2f4f"/><ellipse cx="397.04" cy="515.74" rx="16.49" ry="16.98" fill="#1c2f4f"/><polygon points="249.59 506.79 252.6 512.88 259.33 513.86 254.46 518.61 255.61 525.3 249.59 522.14 243.58 525.3 244.73 518.61 239.86 513.86 246.58 512.88 249.59 506.79" fill="#fff"/><path d="M397,526.21c-.77-1.12-1.53-2.19-2.26-3.28a49.4,49.4,0,0,1-3.67-6.35,11.34,11.34,0,0,1-1.1-3.2,6.92,6.92,0,0,1,1.17-4.89,7,7,0,0,1,7.42-3,7.28,7.28,0,0,1,5.52,6.05,7.19,7.19,0,0,1-.56,3.81,32.05,32.05,0,0,1-2.91,5.57c-1.11,1.71-2.27,3.39-3.41,5.08Zm0-17.13a3.55,3.55,0,1,0,3.43,3.57A3.49,3.49,0,0,0,397.05,509.08Z" fill="#fff"/><line x1="191.11" y1="556.12" x2="308.18" y2="556.12" fill="#fff" stroke="#1c2f4f" stroke-miterlimit="10"/><line x1="191.11" y1="575.09" x2="308.18" y2="575.09" fill="#fff" stroke="#1c2f4f" stroke-miterlimit="10"/><line x1="191.11" y1="593.52" x2="308.18" y2="593.52" fill="#fff" stroke="#1c2f4f" stroke-miterlimit="10"/><line x1="339.08" y1="556.12" x2="456.15" y2="556.12" fill="#fff" stroke="#1c2f4f" stroke-miterlimit="10"/><line x1="339.08" y1="575.09" x2="456.15" y2="575.09" fill="#fff" stroke="#1c2f4f" stroke-miterlimit="10"/><line x1="339.08" y1="593.52" x2="456.15" y2="593.52" fill="#fff" stroke="#1c2f4f" stroke-miterlimit="10"/><rect x="271.87" y="615.2" width="101.36" height="21.14" rx="6.2" fill="#686175" data-primary="true"/><path d="M271.41,109.21v2.39h-7.58v5.26h5.91v2.39h-5.91v7.81H260.9V109.21Z" fill="#fff"/><path d="M279.75,126.07a8.53,8.53,0,0,1-3.32-3.26,9.68,9.68,0,0,1,0-9.41,8.64,8.64,0,0,1,3.32-3.25,9.61,9.61,0,0,1,9.19,0,8.52,8.52,0,0,1,3.3,3.25,9.75,9.75,0,0,1,0,9.41,8.41,8.41,0,0,1-3.3,3.26,9.61,9.61,0,0,1-9.19,0Zm7.74-2.18a5.57,5.57,0,0,0,2.17-2.31,8,8,0,0,0,0-7,5.52,5.52,0,0,0-2.17-2.29,6.71,6.71,0,0,0-6.32,0,5.58,5.58,0,0,0-2.17,2.29,8.13,8.13,0,0,0,0,7,5.63,5.63,0,0,0,2.17,2.31,6.57,6.57,0,0,0,6.32,0Z" fill="#fff"/><path d="M307.66,127.06l-4.11-7.14h-2.24v7.14h-2.93V109.21h6.17a7.65,7.65,0,0,1,3.48.72,5,5,0,0,1,2.13,1.92,5.19,5.19,0,0,1,.71,2.7,5.36,5.36,0,0,1-1,3.17,5.11,5.11,0,0,1-3.13,1.94l4.42,7.4Zm-6.35-9.48h3.24a3.39,3.39,0,0,0,2.48-.82,2.94,2.94,0,0,0,.83-2.21,2.85,2.85,0,0,0-.82-2.17,3.51,3.51,0,0,0-2.49-.78h-3.24Z" fill="#fff"/><path d="M328.06,126.61a5.25,5.25,0,0,1-2.26-1.78,4.53,4.53,0,0,1-.83-2.7h3.14A2.82,2.82,0,0,0,329,124a3.22,3.22,0,0,0,2.27.75,3.5,3.5,0,0,0,2.37-.74,2.37,2.37,0,0,0,.85-1.88,2.09,2.09,0,0,0-.53-1.47,3.54,3.54,0,0,0-1.31-.87,18.94,18.94,0,0,0-2.17-.67,20,20,0,0,1-2.84-.94,4.63,4.63,0,0,1-1.86-1.47,4.25,4.25,0,0,1-.77-2.68,4.69,4.69,0,0,1,.77-2.69,4.92,4.92,0,0,1,2.15-1.78,7.91,7.91,0,0,1,3.22-.61,6.72,6.72,0,0,1,4.25,1.29,4.86,4.86,0,0,1,1.84,3.56H334a2.33,2.33,0,0,0-.93-1.67,3.42,3.42,0,0,0-2.23-.69,3.17,3.17,0,0,0-2.06.64A2.25,2.25,0,0,0,328,114a1.85,1.85,0,0,0,.5,1.35,3.46,3.46,0,0,0,1.27.83,18,18,0,0,0,2.11.67,22.28,22.28,0,0,1,2.89,1,4.9,4.9,0,0,1,1.9,1.5,4.34,4.34,0,0,1,.78,2.71,4.84,4.84,0,0,1-.73,2.57,5.29,5.29,0,0,1-2.13,1.94,7.06,7.06,0,0,1-3.31.73A8,8,0,0,1,328.06,126.61Z" fill="#fff"/><path d="M353.75,123.42h-7.48L345,127.06h-3.06l6.4-17.88h3.39l6.4,17.88H355Zm-.82-2.39-2.91-8.3-2.93,8.3Z" fill="#fff"/><path d="M365.87,124.7h6v2.36h-9V109.21h2.92Z" fill="#fff"/><path d="M379.34,111.57v5.24h6.16v2.39h-6.16v5.47h6.93v2.39h-9.86V109.18h9.86v2.39Z" fill="#fff"/><path d="M241.45,464.51a5.41,5.41,0,0,1-1.85,1.9,6.45,6.45,0,0,1-2.89.92v2.08H235v-2.08a6.79,6.79,0,0,1-3.9-1.51,4.25,4.25,0,0,1-1.49-3.39h3.13a2.8,2.8,0,0,0,.64,1.65,2.65,2.65,0,0,0,1.62.84v-5.65a21.87,21.87,0,0,1-2.8-.89A4.54,4.54,0,0,1,230.4,457a4.28,4.28,0,0,1-.75-2.67,4.61,4.61,0,0,1,1.49-3.53,6.38,6.38,0,0,1,3.9-1.63V447h1.67v2.08a6.21,6.21,0,0,1,3.64,1.42,4.89,4.89,0,0,1,1.55,3.36h-3.13a2.6,2.6,0,0,0-.62-1.43,2.71,2.71,0,0,0-1.44-.86v5.55a18.29,18.29,0,0,1,2.8.86,4.39,4.39,0,0,1,1.82,1.41,4.25,4.25,0,0,1,.75,2.66A4.91,4.91,0,0,1,241.45,464.51Zm-8.2-8.74a4.51,4.51,0,0,0,1.79,1v-5.19a2.84,2.84,0,0,0-1.76.8,2.43,2.43,0,0,0-.65,1.8A2.16,2.16,0,0,0,233.25,455.77Zm5.23,8.24a2.59,2.59,0,0,0,.65-1.76,2.08,2.08,0,0,0-.63-1.61,4.77,4.77,0,0,0-1.79-.94v5.22A2.91,2.91,0,0,0,238.48,464Z" fill="#fff"/><path d="M258.7,463.2c1.65-1.42,2.94-2.59,3.89-3.51a15.91,15.91,0,0,0,2.38-2.86,5.56,5.56,0,0,0,.95-3,3.64,3.64,0,0,0-.73-2.42,2.85,2.85,0,0,0-2.3-.87,3,3,0,0,0-2.35,1,4,4,0,0,0-.89,2.58h-2.82a6.28,6.28,0,0,1,10.41-4.49,5.43,5.43,0,0,1,1.58,4.11,7.3,7.3,0,0,1-.93,3.55,14.35,14.35,0,0,1-2.24,3.06q-1.29,1.35-3.3,3.12l-1.16,1h8.15v2.44H256.85v-2.13Z" fill="#fff"/><path d="M277.53,463.66l-3.1,7.09h-1.91l1.83-7.09Z" fill="#fff"/><path d="M283.25,450.62q1.5-2.5,5.18-2.5t5.17,2.5a13.45,13.45,0,0,1,1.51,6.95,13.72,13.72,0,0,1-1.51,7c-1,1.68-2.72,2.53-5.17,2.53s-4.18-.85-5.18-2.53a13.83,13.83,0,0,1-1.5-7A13.56,13.56,0,0,1,283.25,450.62Zm8.71,3.43a4.71,4.71,0,0,0-1.09-2.35,3.73,3.73,0,0,0-4.88,0,4.72,4.72,0,0,0-1.1,2.35,19.45,19.45,0,0,0-.27,3.52,21.45,21.45,0,0,0,.26,3.62,4.58,4.58,0,0,0,1.09,2.37,3.8,3.8,0,0,0,4.91,0,4.51,4.51,0,0,0,1.09-2.37,21.45,21.45,0,0,0,.26-3.62A19.45,19.45,0,0,0,292,454.05Z" fill="#fff"/><path d="M301.75,450.62q1.5-2.5,5.17-2.5t5.18,2.5a13.56,13.56,0,0,1,1.5,6.95,13.83,13.83,0,0,1-1.5,7c-1,1.68-2.73,2.53-5.18,2.53s-4.17-.85-5.17-2.53a13.83,13.83,0,0,1-1.51-7A13.55,13.55,0,0,1,301.75,450.62Zm8.71,3.43a4.8,4.8,0,0,0-1.09-2.35,3.74,3.74,0,0,0-4.89,0,4.8,4.8,0,0,0-1.09,2.35,19.45,19.45,0,0,0-.27,3.52,21.45,21.45,0,0,0,.26,3.62,4.51,4.51,0,0,0,1.09,2.37,3.8,3.8,0,0,0,4.91,0,4.58,4.58,0,0,0,1.09-2.37,21.45,21.45,0,0,0,.26-3.62A19.45,19.45,0,0,0,310.46,454.05Z" fill="#fff"/><path d="M320.25,450.62q1.5-2.5,5.17-2.5t5.18,2.5a13.56,13.56,0,0,1,1.5,6.95,13.83,13.83,0,0,1-1.5,7c-1,1.68-2.73,2.53-5.18,2.53s-4.17-.85-5.17-2.53a13.72,13.72,0,0,1-1.51-7A13.45,13.45,0,0,1,320.25,450.62Zm8.7,3.43a4.71,4.71,0,0,0-1.09-2.35,3.73,3.73,0,0,0-4.88,0,4.71,4.71,0,0,0-1.09,2.35,19.45,19.45,0,0,0-.27,3.52,21.45,21.45,0,0,0,.26,3.62,4.51,4.51,0,0,0,1.09,2.37,3.8,3.8,0,0,0,4.91,0,4.58,4.58,0,0,0,1.09-2.37,21.57,21.57,0,0,0,.25-3.62A19.45,19.45,0,0,0,329,454.05Z" fill="#fff"/><path d="M338.74,450.62c1-1.67,2.73-2.5,5.18-2.5s4.17.83,5.18,2.5a13.56,13.56,0,0,1,1.5,6.95,13.83,13.83,0,0,1-1.5,7c-1,1.68-2.73,2.53-5.18,2.53s-4.17-.85-5.18-2.53a13.83,13.83,0,0,1-1.5-7A13.56,13.56,0,0,1,338.74,450.62Zm8.71,3.43a4.71,4.71,0,0,0-1.09-2.35,3.73,3.73,0,0,0-4.88,0,4.71,4.71,0,0,0-1.09,2.35,19.45,19.45,0,0,0-.27,3.52,21.57,21.57,0,0,0,.25,3.62,4.59,4.59,0,0,0,1.1,2.37,3.78,3.78,0,0,0,4.9,0,4.59,4.59,0,0,0,1.1-2.37,21.57,21.57,0,0,0,.25-3.62A19.45,19.45,0,0,0,347.45,454.05Z" fill="#fff"/><path d="M359.33,463.66l-3.1,7.09h-1.91l1.83-7.09Z" fill="#fff"/><path d="M365.05,450.62q1.5-2.5,5.18-2.5t5.17,2.5a13.45,13.45,0,0,1,1.51,6.95,13.72,13.72,0,0,1-1.51,7c-1,1.68-2.72,2.53-5.17,2.53s-4.18-.85-5.18-2.53a13.83,13.83,0,0,1-1.5-7A13.56,13.56,0,0,1,365.05,450.62Zm8.71,3.43a4.71,4.71,0,0,0-1.09-2.35,3.73,3.73,0,0,0-4.88,0,4.63,4.63,0,0,0-1.09,2.35,19.45,19.45,0,0,0-.27,3.52,21.57,21.57,0,0,0,.25,3.62,4.58,4.58,0,0,0,1.09,2.37,3.8,3.8,0,0,0,4.91,0,4.51,4.51,0,0,0,1.09-2.37,21.45,21.45,0,0,0,.26-3.62A19.45,19.45,0,0,0,373.76,454.05Z" fill="#fff"/><path d="M383.55,450.62q1.5-2.5,5.18-2.5c2.44,0,4.17.83,5.17,2.5a13.55,13.55,0,0,1,1.51,6.95,13.83,13.83,0,0,1-1.51,7c-1,1.68-2.73,2.53-5.17,2.53s-4.18-.85-5.18-2.53a13.83,13.83,0,0,1-1.5-7A13.56,13.56,0,0,1,383.55,450.62Zm8.71,3.43a4.8,4.8,0,0,0-1.09-2.35,3.74,3.74,0,0,0-4.89,0,4.8,4.8,0,0,0-1.09,2.35,19.45,19.45,0,0,0-.27,3.52,21.45,21.45,0,0,0,.26,3.62,4.58,4.58,0,0,0,1.09,2.37,3.8,3.8,0,0,0,4.91,0,4.51,4.51,0,0,0,1.09-2.37,21.45,21.45,0,0,0,.26-3.62A19.45,19.45,0,0,0,392.26,454.05Z" fill="#fff"/><path d="M402.05,450.62q1.5-2.5,5.17-2.5t5.18,2.5a13.56,13.56,0,0,1,1.5,6.95,13.83,13.83,0,0,1-1.5,7c-1,1.68-2.73,2.53-5.18,2.53s-4.17-.85-5.17-2.53a13.72,13.72,0,0,1-1.51-7A13.45,13.45,0,0,1,402.05,450.62Zm8.71,3.43a4.72,4.72,0,0,0-1.1-2.35,3.73,3.73,0,0,0-4.88,0,4.71,4.71,0,0,0-1.09,2.35,19.45,19.45,0,0,0-.27,3.52,21.45,21.45,0,0,0,.26,3.62,4.51,4.51,0,0,0,1.09,2.37,3.8,3.8,0,0,0,4.91,0,4.58,4.58,0,0,0,1.09-2.37,21.45,21.45,0,0,0,.26-3.62A19.45,19.45,0,0,0,410.76,454.05Z" fill="#fff"/><path d="M516.66,129.75a2.15,2.15,0,0,0,2,2.24,2,2,0,0,0,2.26-1.79s0,0,0-.08a2.15,2.15,0,0,0-2-2.24,2,2,0,0,0-2.27,1.78A.28.28,0,0,1,516.66,129.75Z" fill="#273956"/><path d="M515.09,121.85c.25.28,1.92-.87,4.25-.8s4,1.27,4.22,1-.13-.63-.85-1.2a6,6,0,0,0-3.34-1.15,5.61,5.61,0,0,0-3.34,1C515.21,121.22,515,121.72,515.09,121.85Z" fill="#273956"/><path d="M537.79,130.08a2.14,2.14,0,0,0,2,2.24,2.06,2.06,0,0,0,2.26-1.85v0a2.15,2.15,0,0,0-2-2.23A2,2,0,0,0,537.8,130S537.79,130.06,537.79,130.08Z" fill="#273956"/><path d="M537.84,122.92c.25.3,1.92-.87,4.23-.8s4,1.28,4.24,1-.12-.64-.85-1.19a5.86,5.86,0,0,0-3.34-1.15,5.67,5.67,0,0,0-3.34,1C538,122.3,537.64,122.8,537.84,122.92Z" fill="#273956"/><path d="M528.94,139.86a15.49,15.49,0,0,0-3.74-.79c-.59-.08-1.14-.22-1.24-.62a3.17,3.17,0,0,1,.45-1.67l1.87-4.46a76.76,76.76,0,0,0,4.28-11.69c-.27-.1-2.59,5-5.19,11.29l-1.81,4.48a3.35,3.35,0,0,0-.37,2.32,1.45,1.45,0,0,0,.94.88,3.09,3.09,0,0,0,1,.17A14.73,14.73,0,0,0,528.94,139.86Z" fill="#f7a79e"/><path d="M536.62,146.57a32.23,32.23,0,0,0-8.31.6c-.53,1.08.57,4.15,1.61,4.92a4.2,4.2,0,0,0,3.74.62,5.11,5.11,0,0,0,2.6-2.58A7.7,7.7,0,0,0,536.62,146.57Z" fill="#fff"/></svg>