<svg id="edaa0918-ab60-4256-a798-ab7f1a0e9302" data-name="Layer 1" xmlns="http://www.w3.org/2000/svg" xmlns:xlink="http://www.w3.org/1999/xlink" width="865.76" height="682.89" viewBox="0 0 865.76 682.89"><defs><clipPath id="bda99cdd-01d2-4c02-8c76-d638999c1d37"><path id="a76af661-c8c7-461a-a61d-effc968f9d08" data-name="SVGID" d="M411.06,587.41h0a6.2,6.2,0,0,0-3.84,4.43L403.8,606.9a8.74,8.74,0,0,1-2.36,4.19c-1.55,1.57-3.67,4.82-4.21,11A5.52,5.52,0,0,0,400,627.4c3.93,2.2,11.31,5.23,18.82,2.42a29.26,29.26,0,0,1,10.41-1s17.07,3.88,14.93-6.59l-5.58-21.58s-1.48-10-4-14.11C434.6,586.57,425.23,577,411.06,587.41Z" fill="#2761d3"/></clipPath><clipPath id="f8f235fb-0ab2-4309-9d5c-df41b3b2918d"><path id="b9c5f2d3-8722-496b-9f3a-a0e874887630" data-name="SVGID" d="M460.18,586.08s-4.59,12.58-5.62,21.75c0,0-.15,3.61-3,10.63,0,0-8.88,10.71,7.64,11,0,0,9.79-2.44,18.24.81,0,0,9.53,2.1,17-2.51a7,7,0,0,0,3.22-6.82,16.74,16.74,0,0,0-4.21-9.32,13.83,13.83,0,0,1-3.14-5.6l-3.92-13.68a10.59,10.59,0,0,0-3.52-5.32C478.94,583.93,471,580,460.18,586.08Z" fill="#2761d3"/></clipPath></defs><path d="M397,106.89c-47.11,32.05-236.95-32.5-244.55,192.51s284,272.7,353.1,279.22S712.84,418.11,728,286,639.65-58.24,397,106.89Z" fill="#e4e1f5"/><path d="M236.3,105.37c-1.22.83-6.14-.84-6.33,5s7.35,7.06,9.14,7.23,5.37-4.16,5.76-7.58S242.59,101.1,236.3,105.37Z" fill="#e4e1f5"/><path d="M268.8,120.08c-1.42.41-5.58-2.7-7.57,2.79s4.82,9,6.47,9.7,6.39-2.3,7.82-5.43S276.09,118,268.8,120.08Z" fill="#e4e1f5"/><path d="M221.76,504.79c-1.22.83-6.13-.84-6.33,5s7.36,7.07,9.15,7.24,5.36-4.16,5.76-7.58S228.05,500.51,221.76,504.79Z" fill="#e4e1f5"/><path d="M728.34,399c-1.22.83-6.13-.84-6.33,5s7.36,7.06,9.15,7.23,5.36-4.16,5.76-7.58S734.63,394.74,728.34,399Z" fill="#e4e1f5"/><path d="M692.48,399.25c-1.45.27-5.28-3.23-7.8,2s3.9,9.43,5.47,10.3,6.58-1.65,8.32-4.63S700,397.86,692.48,399.25Z" fill="#e4e1f5"/><path d="M529.36,534.72c-1.22.83-6.14-.84-6.33,5s7.35,7.06,9.14,7.23,5.37-4.16,5.76-7.58S535.65,530.44,529.36,534.72Z" fill="#fff"/><path d="M230.75,439.77c-1.46.21-5.13-3.46-7.88,1.69s3.49,9.58,5,10.52,6.65-1.37,8.51-4.26S238.28,438.71,230.75,439.77Z" fill="#fff"/><path d="M303.85,135.52c-1.47.21-5.14-3.46-7.89,1.69s3.49,9.58,5,10.52,6.65-1.37,8.52-4.26S311.37,134.45,303.85,135.52Z" fill="#fff"/><path d="M346.69,95.11c-1.95.34-7-4.43-10.5,2.58s5.07,12.71,7.16,13.91,8.87-2.1,11.25-6.06S356.75,93.37,346.69,95.11Z" fill="#e4e1f5"/><path d="M675.18,473.86c-1.86.32-6.7-4.23-10,2.46S670,488.44,672,489.58s8.46-2,10.73-5.78S684.77,472.2,675.18,473.86Z" fill="#e4e1f5"/><path d="M167.62,456.88c-1.37,1.18-7.61-.18-7,7s10,7.61,12.17,7.56,6-5.82,6-10.05S174.71,450.79,167.62,456.88Z" fill="#e4e1f5"/><path d="M204.31,422.28c-1.37,1.19-7.61-.17-7,7s10,7.61,12.17,7.57,6-5.82,6-10.06S211.4,416.19,204.31,422.28Z" fill="#fff"/><path d="M660,86.61c-1.68.69-7.17-2.57-8.88,4.38s7,10.37,9.16,11,7.51-3.64,8.85-7.65S668.59,83.06,660,86.61Z" fill="#fff"/><path d="M647.06,120.12c-1.37,1.18-7.61-.18-7,7s10,7.61,12.17,7.57,6-5.82,6-10.06S654.14,114,647.06,120.12Z" fill="#fff"/><ellipse cx="436.56" cy="625.91" rx="172.68" ry="14.62" fill="#e4e1f5"/><path d="M705.23,239.82l-7,.28h-.73c-4.42-.12-8.85-.23-13.26-.27-1.81,0-3.6,0-5.41-.05,0-2.88,0-5.78,0-8.66,0-3.12.18-6.24.28-9.35l6.23.24,7,.18,13.93.22c4.63.07,9.28.07,13.92,0,1.81,0,3.62,0,5.44-.08,0-.89-.06-1.78-.11-2.68l-5.33-.08c-4.64-.06-9.29-.06-13.92,0l-13.93.22-7,.18-7,.27h0a.74.74,0,0,0-.71.75c.11,3.38.26,6.75.3,10.14,0,2.88,0,5.77,0,8.65q-3.8,0-7.61.05l-13.92.22-7,.18-7,.27h0a.73.73,0,0,0-.7.75c.1,3.37.26,6.75.3,10.12s.05,6.76,0,10.14v0a.45.45,0,0,0,.45.45h0c4.67.09,9.38.36,14.11.51s9.51.22,14.21.14,9.37-.19,14-.37h0c.11,3.12.24,6.25.27,9.37.06,3.38.06,6.76,0,10.14a.47.47,0,0,0,.46.46h0c4.66.1,9.36.37,14.11.52s9.5.22,14.19.13h1.33c.16-.73.32-1.44.49-2.17l-2.74,0c-4.58-.08-9.12-.08-13.64.14s-8.82.39-13.28.49q-.09-4.82,0-9.65c0-3.11.17-6.23.27-9.34l6.24.24,7,.18,13.93.22c2.16,0,4.34.05,6.51.05l.72-3.05c-2.77,0-5.52.05-8.28.17l-12.88.2-.74,0c0-1.89,0-3.79,0-5.68,0-1,.12-2,.16-3,.15-3,.32-6.13.42-9.25q3.74,0,7.45,0c3.48-.06,6.94-.15,10.38-.25l7.07.11c.15-.93.28-1.86.41-2.79l-12.4.19Zm-7.43,20.53-5.29.14-7,.28h0a.6.6,0,0,0-.24.05l-1.5-.05c-4.69-.19-9.3-.31-13.87-.37s-9.12-.08-13.65.14-8.82.39-13.27.49q-.09-4.81,0-9.65c0-3.11.17-6.23.27-9.34l6.24.24,7,.18,13.92.22c4.65.06,9.28.06,13.93,0,4.28-.05,8.55-.15,12.84-.28.09,2.87.26,5.76.41,8.71l.32,5.69C697.84,258,697.83,259.17,697.8,260.35Z" fill="#dad7f2"/><path d="M171.8,338.35l-12.4-.2c.12.94.26,1.86.41,2.8l7.07-.11c3.44.1,6.9.19,10.38.25q3.72.06,7.45,0c.1,3.12.27,6.22.42,9.25,0,1,.11,2,.16,3,0,1.89,0,3.79,0,5.68l-.74,0-12.88-.2c-2.76-.12-5.51-.17-8.28-.17l.72,3.05c2.17,0,4.35,0,6.51-.05l13.93-.22,7-.18,6.23-.24c.11,3.11.24,6.23.28,9.34s0,6.43,0,9.65c-4.46-.1-8.89-.36-13.28-.49s-9.06-.22-13.64-.14l-2.74.05c.17.73.33,1.44.49,2.17h1.33c4.69.09,9.44.09,14.19-.13s9.44-.43,14.11-.52h0a.47.47,0,0,0,.46-.46c-.08-3.38-.08-6.76,0-10.14,0-3.12.16-6.25.27-9.37h0c4.6.18,9.27.29,14,.37s9.45.07,14.2-.14,9.45-.42,14.11-.52h0a.45.45,0,0,0,.45-.44v0q-.09-5.07,0-10.14c0-3.37.2-6.75.3-10.12a.73.73,0,0,0-.7-.75h-.06l-7-.27-7-.18-13.92-.22q-3.81,0-7.61-.05-.08-4.32,0-8.66c0-3.38.19-6.75.3-10.13a.74.74,0,0,0-.71-.75h-.05l-7-.27-7-.18-13.93-.22c-4.63-.06-9.28-.06-13.92,0l-5.33.08c-.05.9-.09,1.79-.11,2.68,1.82,0,3.63.06,5.44.08,4.64.07,9.29.07,13.92,0l13.93-.22,7-.18,6.23-.24c.1,3.11.24,6.23.28,9.34,0,2.89,0,5.79,0,8.67-1.81,0-3.6,0-5.41.05-4.41,0-8.84.14-13.27.27h-.72l-7-.27Zm14.34,17.16.32-5.69c.15-2.95.31-5.84.41-8.71q6.42.19,12.84.28c4.65.06,9.28.06,13.93,0l13.92-.22,7-.18,6.24-.24c.1,3.11.23,6.23.27,9.34s.05,6.44,0,9.65c-4.46-.1-8.88-.36-13.27-.49-4.54-.22-9.06-.22-13.65-.14s-9.18.18-13.87.37c-.5,0-1,0-1.5,0a.6.6,0,0,0-.24,0h-.05l-7-.28-5.29-.14C186.16,357.88,186.15,356.69,186.14,355.51Z" fill="#dad7f2"/><path d="M567.58,93.47a1.37,1.37,0,0,1-1.37-1.37V52.91a1.37,1.37,0,0,1,2.74,0V92.1A1.37,1.37,0,0,1,567.58,93.47Z" fill="#d4d3ef"/><path d="M638.16,386.83c-3.71.22-7.53.42-11.43.56s-7.84.25-11.82.3-8,.07-12-.11-8-.36-11.94-.43h0a.4.4,0,0,1-.38-.4h0c.06-2.86.06-5.72,0-8.58s-.17-5.71-.26-8.57a.61.61,0,0,1,.59-.63H591l5.89-.23,5.89-.15,11.79-.18q5.88-.09,11.78,0t11.78.25h0a.93.93,0,0,1,.9,1c-.07,3-.25,5.92-.38,8.81-.07,1.45-.16,2.87-.25,4.27Zm-.16-.16-.48-8.73c-.14-2.83-.32-5.6-.39-8.34l1,.95c-3.93.12-7.85.22-11.78.25s-7.86.06-11.78,0l-11.79-.19-5.89-.15-5.89-.23.64-.64c-.09,2.86-.22,5.72-.26,8.57s0,5.72,0,8.58l-.4-.4c3.91-.08,7.78-.31,11.62-.43s7.67-.19,11.55-.12,7.78.16,11.74.31S633.86,386.44,638,386.67Z" fill="#dad7f2"/><path d="M660.11,404c-3.71.22-7.54.41-11.43.55s-7.85.25-11.82.31-8,.07-12-.11-8-.36-11.94-.44h0a.39.39,0,0,1-.38-.39h0q.09-4.29,0-8.58c0-2.86-.16-5.71-.25-8.57a.62.62,0,0,1,.59-.64h0l5.89-.23,5.89-.15,11.78-.19q5.89-.07,11.79,0c3.92,0,7.85.13,11.78.25h.05a.93.93,0,0,1,.9.95c-.07,3-.25,5.92-.39,8.81-.06,1.44-.15,2.87-.24,4.27Zm-.16-.17-.49-8.72c-.13-2.83-.31-5.6-.38-8.34l.95.95q-5.89.18-11.78.25t-11.79,0l-11.78-.18-5.89-.15-5.89-.24.63-.63c-.08,2.86-.21,5.71-.25,8.57s0,5.72,0,8.58l-.4-.4c3.9-.08,7.78-.31,11.62-.44s7.67-.18,11.55-.11,7.77.16,11.74.31S655.81,403.59,660,403.81Z" fill="#dad7f2"/><path d="M618.88,421.12c-3.72.23-7.54.42-11.44.56s-7.84.25-11.82.31-8,.07-12-.12-8-.35-11.94-.43h0a.39.39,0,0,1-.39-.4h0c.06-2.86.06-5.71,0-8.57s-.17-5.72-.25-8.57a.61.61,0,0,1,.59-.64h0l5.89-.23,5.89-.15,11.79-.19c3.93-.05,7.85-.06,11.78,0s7.86.13,11.78.26h.06a.92.92,0,0,1,.89.95c-.07,3-.24,5.91-.38,8.8-.07,1.45-.15,2.87-.24,4.28Zm-.17-.16-.48-8.73c-.14-2.82-.31-5.59-.39-8.33l.95.94q-5.88.2-11.78.26c-3.93.06-7.85,0-11.78,0l-11.79-.19-5.89-.15-5.89-.23.64-.63c-.09,2.85-.22,5.71-.25,8.57s0,5.71,0,8.57l-.4-.4c3.91-.07,7.78-.3,11.63-.43s7.66-.19,11.55-.11,7.77.15,11.74.3S614.57,420.74,618.71,421Z" fill="#dad7f2"/><path d="M613,404c-3.71.22-7.54.41-11.43.55s-7.85.25-11.83.31-8,.07-12-.11-8-.36-11.94-.44h0a.38.38,0,0,1-.38-.39h0q.09-4.29,0-8.58c0-2.86-.16-5.71-.25-8.57a.62.62,0,0,1,.59-.64h0l5.89-.23,5.89-.15,11.78-.19q5.89-.07,11.78,0c3.93,0,7.86.13,11.79.25H613a.93.93,0,0,1,.9.95c-.07,3-.25,5.92-.39,8.81-.06,1.44-.15,2.87-.24,4.27Zm-.16-.17-.49-8.72c-.14-2.83-.31-5.6-.38-8.34l.95.95q-5.89.18-11.79.25t-11.78,0l-11.78-.18-5.89-.15-5.89-.24.63-.63c-.09,2.86-.21,5.71-.25,8.57s0,5.72,0,8.58l-.39-.4c3.9-.08,7.78-.31,11.62-.44s7.67-.18,11.55-.11,7.77.16,11.74.31S608.67,403.59,612.82,403.81Z" fill="#dad7f2"/><path d="M586.51,133.34H548.65a2.26,2.26,0,0,1-2.25-2.26L552,93.22A2.26,2.26,0,0,1,554.29,91h26.58a2.26,2.26,0,0,1,2.26,2.25l5.63,37.86A2.26,2.26,0,0,1,586.51,133.34Z" fill="#dad7f2"/><path d="M556.06,133.34a11.31,11.31,0,0,0-.11,1.55,11.63,11.63,0,1,0,23.26,0,11.31,11.31,0,0,0-.11-1.55Z" fill="#d4d3ef"/><path d="M211.53,199a1.38,1.38,0,0,1-1.38-1.38V158.44a1.38,1.38,0,1,1,2.75,0v39.18A1.37,1.37,0,0,1,211.53,199Z" fill="#d4d3ef"/><path d="M230.46,238.86H192.6a2.25,2.25,0,0,1-2.26-2.25L196,198.75a2.25,2.25,0,0,1,2.25-2.25h26.59a2.25,2.25,0,0,1,2.25,2.25l5.64,37.86A2.25,2.25,0,0,1,230.46,238.86Z" fill="#dad7f2"/><path d="M200,238.86a11.45,11.45,0,0,0-.12,1.56,11.64,11.64,0,0,0,23.27,0,11.45,11.45,0,0,0-.12-1.56Z" fill="#d4d3ef"/><path d="M606.92,117.84l6.68-5.11S620.28,103.31,625,97l6.68-8.64s1.18-8.64,6.67-7.46c0,0,11,6.68,3.15,18.46,0,0-14.93,20-9.43,25.13,0,0-7.46-2.35-9.82,2.36l-7.85,6.28Z" fill="#ffc596"/><path d="M631.67,88.38s-1.18-6.68-2.75-14.92c0,0-5.11-13,3.53-7.07,0,0,11.62,8.1,16.7,18a13,13,0,0,1,.63,10.44l-5.15,13.93s-.79,8.64,5.5,8.64l12.56-5.1,1.18,1.57s-22.78,19.24-31.81,10.6c0,0-4.32-3.14,3.14-15.31,0,0,12.18-14.93,8.64-21.6C643.84,87.6,637.56,75,631.67,88.38Z" fill="#ff2045"/><path d="M586.86,331.12a20.41,20.41,0,0,1,12.06,3.69s7.87,4.92,11.07,5.66c0,0-3-2,1-6.4l-10.58-10.82-16.23.24Z" fill="#2c2e63"/><path d="M413.73,117.34,439,160.17l48.22,165.56s-3.37-5.73-20.23-1c0,0-25.29,11.8-44.17,3.71l-39.79-99.81-15.51-62.38L379.34,142l6.41-5.73" fill="#fff"/><path d="M460.35,574.47l-.17,11.61s11.21-5.05,22.42.45a49.93,49.93,0,0,0-1.74-12.27A44.68,44.68,0,0,1,460.35,574.47Z" fill="#ffc596"/><path d="M411.62,575l-.56,12.41s11.77-8.42,23.54-.84L433.9,574S421.88,576.78,411.62,575Z" fill="#ffc596"/><path d="M402,301.47s-12.23,17.2-7,72c0,0,7.75,85.63,7,110.72,0,0,.87,78.77,7.13,90.22,0,0,10.28,4.46,30.32-2,0,0,2.66,3.06,1.84-28.59,0,0-2.7-50.9-1.17-87.51l3.6-85.76s7.2,79.18,8.17,106.28L453.43,552s-2.59,22.53,6.92,22.44c0,0,23.16,4.44,24.7-4.58l6.11-95.5s-.25-47.06,4.78-86.78c0,0,8.36-68.3-7.68-88.72Z" fill="#2c2e63"/><path id="b726e515-ed5f-451a-91e4-18fe30e97b4d" data-name="SVGID" d="M411.06,587.41h0a6.2,6.2,0,0,0-3.84,4.43L403.8,606.9a8.74,8.74,0,0,1-2.36,4.19c-1.55,1.57-3.67,4.82-4.21,11A5.52,5.52,0,0,0,400,627.4c3.93,2.2,11.31,5.23,18.82,2.42a29.26,29.26,0,0,1,10.41-1s17.07,3.88,14.93-6.59l-5.58-21.58s-1.48-10-4-14.11C434.6,586.57,425.23,577,411.06,587.41Z" fill="#2761d3"/><g clip-path="url(#bda99cdd-01d2-4c02-8c76-d638999c1d37)"><path d="M404.66,599.4a5.76,5.76,0,0,1,4.19,2.54,8.1,8.1,0,0,1,1,2.37c.08.39.15.93.23,1.14a1.07,1.07,0,0,0,.53.61.9.9,0,0,0,.73.07,5.77,5.77,0,0,0,.87-.53,22.45,22.45,0,0,0,1.9-1.43,18,18,0,0,0,3.19-3.4,11.33,11.33,0,0,0,1.86-4.08,29.8,29.8,0,0,0,.47-4.67,22.87,22.87,0,0,0-1.49-9.18l1.13.54a38.58,38.58,0,0,0-3.75,1.28,38.13,38.13,0,0,0-3.6,1.69,15.61,15.61,0,0,0-3.17,2.24,5.69,5.69,0,0,0-1.84,3.14v.06h0Zm0,0c.4-2.44.79-5.1,1.28-7.82v.06a6.58,6.58,0,0,1,1.87-4,15.63,15.63,0,0,1,3.31-2.68,27.44,27.44,0,0,1,3.71-2,39.17,39.17,0,0,1,3.92-1.5l.8-.25.34.79a23.3,23.3,0,0,1,1.71,10,31.5,31.5,0,0,1-.57,5,13.11,13.11,0,0,1-2.33,4.68,17.57,17.57,0,0,1-3.67,3.54,22.58,22.58,0,0,1-2.11,1.39l-.55.3a2.63,2.63,0,0,1-.73.3A2.09,2.09,0,0,1,410,607a2.15,2.15,0,0,1-.93-1.28,10.89,10.89,0,0,1-.15-1.27,7.12,7.12,0,0,0-.65-2.21A5.69,5.69,0,0,0,404.66,599.4Z" fill="#fff"/><path d="M429.73,582.77a4,4,0,0,0-1.75,2,7.5,7.5,0,0,0-.57,2.56c0,.44,0,.89,0,1.33s.06.88.13,1.32a23.51,23.51,0,0,0,.52,2.63v0a33.55,33.55,0,0,0,1.48,5.32,11.25,11.25,0,0,0,2.64,4.4l.43.31c.17.1.41.21.61.31l1.26.63,2.52,1.27.31.16.16.08.08,0h0l-.09,0a.71.71,0,0,0-.71.19.77.77,0,0,0-.18.36l0-.2a7.88,7.88,0,0,1,.48-1.54,10,10,0,0,1,1.66-2.65l-.23.74c-.16-1.33-.33-2.69-.53-4s-.44-2.67-.69-4-.56-2.64-.92-3.94a13.19,13.19,0,0,0-1.48-3.62l.06.06a23.29,23.29,0,0,0-2.45-2.07A14.77,14.77,0,0,0,429.73,582.77Zm0,0a12.63,12.63,0,0,1,3.07,1.2,20.85,20.85,0,0,1,2.79,1.82l0,0,0,0a13.76,13.76,0,0,1,2,3.78,40.77,40.77,0,0,1,1.23,4c.36,1.35.64,2.7.9,4.06s.51,2.71.68,4.1l.05.41-.27.33a8.11,8.11,0,0,0-1.31,2.15,5.6,5.6,0,0,0-.35,1.17l0,.15a1.41,1.41,0,0,1-.33.67,1.3,1.3,0,0,1-1.36.35l-.17-.06-.06,0-.08,0-.16-.08-.32-.17-2.52-1.31-1.27-.66c-.21-.11-.41-.2-.64-.34l-.72-.53a12.51,12.51,0,0,1-3-5.29,31.83,31.83,0,0,1-1.2-5.69v.05a26.69,26.69,0,0,1-.3-2.82c0-.47,0-.94,0-1.42a13.23,13.23,0,0,1,.17-1.41,7,7,0,0,1,1-2.68A3.88,3.88,0,0,1,429.73,582.77Z" fill="#fff"/></g><path id="e6f69034-ccc9-4d56-95f6-884175d261e6" data-name="SVGID" d="M460.18,586.08s-4.59,12.58-5.62,21.75c0,0-.15,3.61-3,10.63,0,0-8.88,10.71,7.64,11,0,0,9.79-2.44,18.24.81,0,0,9.53,2.1,17-2.51a7,7,0,0,0,3.22-6.82,16.74,16.74,0,0,0-4.21-9.32,13.83,13.83,0,0,1-3.14-5.6l-3.92-13.68a10.59,10.59,0,0,0-3.52-5.32C478.94,583.93,471,580,460.18,586.08Z" fill="#2761d3"/><g clip-path="url(#f8f235fb-0ab2-4309-9d5c-df41b3b2918d)"><path d="M490.72,600.34a6,6,0,0,0-3.78,3,7.17,7.17,0,0,0-.68,2.3,9.79,9.79,0,0,1-.15,1.33,2.25,2.25,0,0,1-2.63,1.62,3.32,3.32,0,0,1-.75-.31l-.57-.32a22.18,22.18,0,0,1-2.18-1.44,18.38,18.38,0,0,1-3.81-3.67,13.76,13.76,0,0,1-2.41-4.86,32.59,32.59,0,0,1-.59-5.24,24.07,24.07,0,0,1,1.77-10.36l.34-.79.8.25a42.19,42.19,0,0,1,4.07,1.55,28.89,28.89,0,0,1,3.85,2,16.27,16.27,0,0,1,3.44,2.78,6.87,6.87,0,0,1,1.94,4.1v-.06Zm0,0-2.3-7.91h0v-.06a5.82,5.82,0,0,0-1.92-3.28,15.91,15.91,0,0,0-3.29-2.34,35.39,35.39,0,0,0-3.74-1.75,38.23,38.23,0,0,0-3.9-1.34l1.13-.54a23.8,23.8,0,0,0-1.55,9.55,29.76,29.76,0,0,0,.49,4.86,11.65,11.65,0,0,0,1.94,4.26,18.78,18.78,0,0,0,3.32,3.53c.63.53,1.3,1,2,1.48a5.63,5.63,0,0,0,.91.56,1,1,0,0,0,.78-.08,1.18,1.18,0,0,0,.56-.64c.08-.23.16-.78.25-1.19a7.84,7.84,0,0,1,1-2.46A5.92,5.92,0,0,1,490.72,600.34Z" fill="#fff"/><path d="M464.67,583.06a4.13,4.13,0,0,1,2.21,1.83,7.57,7.57,0,0,1,1,2.78c.1.49.12,1,.18,1.47s0,1,0,1.48a26.07,26.07,0,0,1-.32,2.92v0a33.13,33.13,0,0,1-1.25,5.9,13,13,0,0,1-3.11,5.49l-.74.54c-.24.15-.44.24-.67.36l-1.31.68-2.63,1.36-.33.17-.16.08-.08,0-.07,0-.16.06a1.31,1.31,0,0,1-1.71-1l0-.16a6.26,6.26,0,0,0-.36-1.22,8.38,8.38,0,0,0-1.37-2.24l-.27-.33.05-.41c.18-1.44.44-2.85.7-4.26s.57-2.82.93-4.22a41.16,41.16,0,0,1,1.28-4.14,13.75,13.75,0,0,1,2.07-3.93l0,0v0a21.84,21.84,0,0,1,2.9-1.89A12.78,12.78,0,0,1,464.67,583.06Zm0,0a15.07,15.07,0,0,0-2.91,1.7,23.87,23.87,0,0,0-2.55,2.14l.05-.06a13.72,13.72,0,0,0-1.55,3.77c-.37,1.34-.7,2.71-1,4.09s-.51,2.77-.72,4.16-.38,2.8-.55,4.18l-.22-.73a10.44,10.44,0,0,1,1.71,2.74,8.49,8.49,0,0,1,.49,1.6l0,.2a.72.72,0,0,0-.17-.35.7.7,0,0,0-.7-.19l-.08,0h0l.08-.05.16-.08.33-.16,2.62-1.32,1.31-.66c.21-.11.45-.21.63-.32l.45-.33a11.71,11.71,0,0,0,2.75-4.59,36.25,36.25,0,0,0,1.54-5.53v0a25.82,25.82,0,0,0,.54-2.73c.07-.46.08-.92.13-1.38s0-.92,0-1.38a7.48,7.48,0,0,0-.61-2.67A4.1,4.1,0,0,0,464.67,583.06Z" fill="#fff"/></g><path d="M369,129s5.69-1.34,8,5a8,8,0,0,0,2.63,4,10.27,10.27,0,0,1,3.37,4.54l3.71,9.87s5.35,5,11.71-1.34c0,0,18.4-20.74,14.05-34.46l-5.76-4a17.45,17.45,0,0,1-6-7.07h0l-11-4.35Z" fill="#ffc596"/><path d="M412.49,116.62l39.29,11.3a16.26,16.26,0,0,1,11.14,11.13c9,31.2,40,137.85,50.62,168.9a8.6,8.6,0,0,1-.38,6.53c-2.84,5.86-10.23,18.41-26,30.76L455,263.79a57.85,57.85,0,0,0-5.5-10.52c-4.82-7.29-13.79-22.74-15.78-39.21l-12.57-59.7-3.92-20.81S415.61,122.86,412.49,116.62Z" fill="#2761d3"/><path d="M451.78,127.92l19.65,5.23s13.74,2,23.17,20.43c0,0,18.06,24.74,24.74,48.31l1.18,20.42-33.78-.39-23.82-82.87S460.41,129.75,451.78,127.92Z" fill="#2761d3"/><path d="M451.78,127.92l19.65,5.23s13.74,2,23.17,20.43c0,0,18.06,24.74,24.74,48.31l1.18,20.42-33.78-.39-23.82-82.87S460.41,129.75,451.78,127.92Z" fill="#2761d3"/><path d="M509.13,240.77l-2.16,2s9.23,6.87,15.71-4.32C522.68,238.41,519,242.34,509.13,240.77Z" fill="none" stroke="#ed1c24" stroke-miterlimit="10" stroke-width="0.25"/><path d="M504.84,245.56s4.44.68,8.06.86a4.14,4.14,0,0,1,2.68,1.15l3.67,3.54a.83.83,0,0,0,1.27-.14c1.21-1.83,4-7,5.5-18.06l-17.89,7.91L507,242.73Z" fill="#2761d3"/><path d="M346.63,161.43s18.85-7.66,27.69-16.49l5.33-6.93a7.8,7.8,0,0,1,3.51,5.45s-3,10,.88,19.45l-4.42,33.57s1.47,28,14.73,36.82L427.06,278a21.79,21.79,0,0,1,4.06,15.29c-1.61,14.34-5,43.31-7.81,57.91A1.89,1.89,0,0,1,421,352.7c-6.1-1.55-25.22-6.62-38.12-12.4a3.25,3.25,0,0,1-1.93-3.14c.47-8.39,2.21-39.22,3.68-64.18A26.92,26.92,0,0,0,383,262.27Z" fill="#2761d3"/><path d="M332.2,245.68,329,251.57s-.67,6.44-2,9.68a4.71,4.71,0,0,0-.18,3c.78,3,2.33,9.13,3.06,13.66a5.79,5.79,0,0,0,2,3.56,25,25,0,0,1,6.07,7.15,3.28,3.28,0,0,0,4.19,1.49,19.62,19.62,0,0,1,3.52-1.15,5.78,5.78,0,0,0,3.65-2.6l2.38-3.85s2.94,12.37,6.77,6.48L362,277.19l-6.48-6.77S344.57,262.76,332.2,245.68Z" fill="#2761d3"/><path d="M442.76,317.35s33,8.25,45.55-27.49l14.14-41.24-40.06,26.71Z" fill="#2c2e63"/><path d="M442.76,317.35s33,8.25,45.55-27.49l14.14-41.24-40.06,26.71Z" opacity="0.2"/><path d="M460.17,219.48l29.44-36.29A53.86,53.86,0,0,1,511.22,167c21.85-9,66.89-29,94.92-51.52,0,0,8.25,15.32,9,20.42a44.56,44.56,0,0,0-14.92,12.57s-39.28,37.71-53,44.38-59.7,40.85-59.7,40.85Z" fill="#2c2e63"/><path d="M460.17,219.48l29.44-36.29A53.86,53.86,0,0,1,511.22,167c21.85-9,66.89-29,94.92-51.52,0,0,8.25,15.32,9,20.42a44.56,44.56,0,0,0-14.92,12.57s-39.28,37.71-53,44.38-59.7,40.85-59.7,40.85Z" opacity="0.2"/><path d="M306.36,279.23s14.57-7.91,5.12-27.28a33.56,33.56,0,0,1-6.08,15.28S309.55,270.92,306.36,279.23Z" fill="#2c2e63"/><path d="M573.85,295.36s12,9,7.11,17.21a.18.18,0,0,0,.16.28,23.08,23.08,0,0,1,17.07,4.48,39.75,39.75,0,0,0,7.22,4.27h0a17.39,17.39,0,0,0,6,1.51l7.18.48L606.5,311.7A70.11,70.11,0,0,1,594,295l-4.64-8.62S581.08,287.1,573.85,295.36Z" fill="#ffc596"/><path d="M587.85,347.35l-8.37-19.92s-4.34-8,1.64-14.58c0,0,10-1.93,17.07,4.48,0,0,6,5.3,13.23,5.78.78.87,7.18.48,7.18.48s23.12-3,23.86,1.62l-27.55,8.12a15,15,0,0,1-11.81-1.72s-16.73-11.56-16.48-2.21l3.69,17.22Z" fill="#ff2045"/><path d="M642.46,325.21s-12.06,16-32.47,15.26c0,0-3.2-1.73,1-6.4l3.94-.74Z" fill="#2c2e63"/><path d="M413.78,146.84l13-17s2.13-6.14,6.14-1l7.31,4.48s.24,15.81-6.13,25.72Z" fill="#ffc596"/><path d="M410,115.23s3.54-3.31,7.31-1.18l15.58-.24s9.44-3.78,11.56.94l9.67,9A43.9,43.9,0,0,1,460,132s-2,4.51-5.89-2.36l.39,9.62s-4,.53-4.15-6.65a5.61,5.61,0,0,0-.78-2.76l-1.75-3s2.75,7.46,0,9.62c0,0-3.53,5.7-5.3,3.14,0,0-1.18,2.36-2.95,2.16l.59-6.08s-3.53-.4-7.66-4.52c0,0-1.57-2.16-5.1-1.18,0,0-2.95,1.18-7.27-5.5,0,0-1.81-6-7.68-7.89Z" fill="#ffc596"/><path d="M430.58,120.39a14.72,14.72,0,0,0,7.14,6.42,15.68,15.68,0,0,1,5,3.16c1.85,1.83,3.29,4.22.2,5.54a7,7,0,0,1-2.75.2" fill="none" stroke="#ffa072" stroke-miterlimit="10" stroke-width="0.75"/><path d="M441.63,118.57s1.17,7.51,4.41,12.08c0,0,3.34,4.71-3.48,9" fill="none" stroke="#ffa072" stroke-miterlimit="10" stroke-width="0.75"/><path d="M444.87,115.48s.83,8.35,3,11.39" fill="none" stroke="#ffa072" stroke-miterlimit="10" stroke-width="0.75"/><path d="M446.49,117.69l6.19,8.26a7.15,7.15,0,0,1,1.23,2.58l.38,1.53" fill="none" stroke="#ffa072" stroke-miterlimit="10" stroke-width="0.75"/><path d="M389.89,296.13S431,324,449,315.78c0,0,18,1.5,34.92-39a31.46,31.46,0,0,1,3.24-5.88l27.62-39.52,10.41-7.46s1.57,22,16.11,37.7l31.41,34.56s9.43-10.21,19.25-9.81l-41.63-85.62s-7.86-34.17-31.42-25.53l-85.62,63.23s-2-2.75-7.07,2.75c0,0-23.17,3.53-25.33-8.44,0,0,.39,1.37-3.34,4.91,0,0-10.41,6.67-13.16,30,0,0-1.43,12.33,6.26,27.37C390.69,295,391.41,295.92,389.89,296.13Z" fill="#2c2e63"/><path d="M400.76,230c-.54-1.67-1.87-3.1-4.88-3a6.44,6.44,0,0,1-4.59-1.56,6.65,6.65,0,0,1-2.1-4.82s6.34-15-5.15-22.39L349.58,162s-10.31-2.65-20.33,2.06a24.11,24.11,0,0,1-6.18,1.18S287.42,174.1,306,205.32c0,0,15.61,30.34,18.85,30.34a23.07,23.07,0,0,0,7.37,10s10.31,15,29.75,31.51c0,0,7.36,12.08,12.37,9.43,0,0,8,8,15.57,9.51a.75.75,0,0,0,.8-1.09c-2.52-4.8-10.43-22.24-3.41-40.53,0,0,2.78-11.13,11.4-18.15A5.93,5.93,0,0,0,400.76,230Z" fill="#ff2045"/><path d="M349.58,162s-20.74,4.11-16.25,26.14c0,0,2.45,22.44,33.05,14.28,0,0,13.87-4.89,25.71-5.3a52.78,52.78,0,0,0,16.72-6.53s30.6-11,28.56-22c0,0-.33-5.7-8.29-18a11.18,11.18,0,0,0-17-2.1l-.26.25a29.45,29.45,0,0,1-17,8.51c-1.1.14-2.27.25-3.53.32,0,0-3,.91-5.9,2.15a50.63,50.63,0,0,1-19.28,4.18C360.53,164,354.35,163.55,349.58,162Z" fill="#ff2045"/><path d="M375,130.7A7.91,7.91,0,0,1,377,134s13.88-7.54,11.24-28.35C388.26,105.67,381.28,126.74,375,130.7Z" fill="#ffa072"/><ellipse cx="365.81" cy="99.38" rx="23.92" ry="35.3" fill="#ffc596"/><path d="M395.38,52.74c-.44,4.27.3,6,.3,6a14,14,0,0,1,.91,5.18,3.79,3.79,0,0,0,.72,2.39c1.81,2.57,4.7,7,4.7,7,3.39,8.25,1,11.34,1,11.34a38.08,38.08,0,0,0-.59,5.89l.15,10.16c.14,8.69-9.43,4.13-9.43,4.13-10.75-3.1-10.6-7.22-10.6-7.22.44-4.34-.56-7-1.66-8.49a4,4,0,0,0-6.37-.3c-1.92,2.35-1.87,6.33-1.87,6.33l-3.06,1.28c-2.8-.59-2.95-4.42-2.95-4.42,0-2.38-.74-3.34-1.36-3.72A9.23,9.23,0,0,1,362.62,86c-5.11-6.92-2.88-15.89-2.88-15.89l-9.87,3.09-1.49,1.22a34.17,34.17,0,0,1-4.54,3.08,7.14,7.14,0,0,0-3.63,8.32c-4.68-7,1.68-9.7,1.68-9.7-11.71-5.69-2.68-16.06-2.68-16.06s5.51-7.48,13.46-7.18c0,0-2,3.59.77,4.32a2.93,2.93,0,0,0,2.58-.64c2-1.65,7.2-5.41,12.41-4.71,0,0,5.15-2.21,8.54-.89,0,0,7.36-2.35,9.28,2.06,0,0,5.15-.88,5.45,7.07,0,0,3.09-2.79-2.21-7.66,0,0,3.53.45,4.12,5.45C393.61,57.89,395.51,51.46,395.38,52.74Z" fill="#2c2e63"/><ellipse cx="377.69" cy="95.2" rx="5.02" ry="8.03" fill="#ffc596"/><path d="M508.13,240.82l6.69-9.48s-7.65-.78-10.4-7.85c0,0-3.82-3.5-5.3-6.49a8.84,8.84,0,0,0-1.64-2.25l-3.79-3.88a15,15,0,0,1-4.36-10.16c0-2.36.5-4.41,2.52-4.32,0,0-1.57-5.5,2.94-5.11,0,0-.58-4.12,3.74-3.34,0,0,1-3.34,4.12-2.16l14.53,9.62s2.55-1.76-2.75-4.12c0,0-10.11-4.12-7.36-10,0,0,.49-1.58,3.83,1.27a14.45,14.45,0,0,0,5.2,1.18,8.6,8.6,0,0,1,4.42,3.24l4.52,4.12s2.65,1.67,2.06,7.07c0,0,1.08,10.8,4,15.52,0,0,3.34,6.67-4.32,18.06l-4.12,6.68S518.15,242.59,508.13,240.82Z" fill="#ffc596"/><line x1="491.85" y1="196.39" x2="504.17" y2="212.04" fill="none" stroke="#ffa072" stroke-miterlimit="10" stroke-width="0.75"/><line x1="494.79" y1="191.28" x2="508.66" y2="207.89" fill="none" stroke="#ffa072" stroke-miterlimit="10" stroke-width="0.75"/><line x1="498.53" y1="187.94" x2="512.88" y2="202.88" fill="none" stroke="#ffa072" stroke-miterlimit="10" stroke-width="0.75"/><path d="M343.1,144.94a8.34,8.34,0,0,1-3.54,6.48s-2.06,5.89,1.47,10l-16.42,6.72-4.49-7.9-2.06-13.84-6.19-2.65,2.95-4.09,11.19,0Z" fill="#ffc596"/><ellipse cx="321.51" cy="139.67" rx="6.69" ry="3.57" fill="#ffc596"/><path d="M271.47,120.74s-11.44,11.83-2.9,23.31c0,0,8.51,6.92,3.05,14.43a27.45,27.45,0,0,0-2.61,4.14c-2.19,4.47-5.38,13.13-1.35,19.66a11,11,0,0,0,6.3,4.63c2.9.88,7.24,3.45,2.86,10.75,0,0-6.83,10.78,1.84,17.18a9.46,9.46,0,0,0,2.42,1.31,8.91,8.91,0,0,1,3.26,2l.59-1.18,1-1.77s-4.64-.59-5.41-8.85a17.08,17.08,0,0,1,.78-6.81c1.15-3.56,2.62-10.45-1.86-13.54,0,0-9.28-4.86-5.45-16.06,0,0-1.3-4.67,1.78-14,0,0,1.34-5.31.17-9.73,0,0-10.83-6.91-4.35-13.83A24.16,24.16,0,0,1,271.47,120.74Z" fill="#2c2e63"/><path d="M292.1,236s-3.69,9.58,3.15,16.16a13.63,13.63,0,0,1,4.43,9.14,14.3,14.3,0,0,1-1,5.79,13,13,0,0,0-1.13,5.66,15.19,15.19,0,0,0,4,9.65,5.78,5.78,0,0,1,1.57,5.16c-.33,1.48-1.33,2.8-3.85,2.73,0,0,7.78,1.77,5.95-8.79a21.61,21.61,0,0,0-1.16-3.93,15.17,15.17,0,0,1-.15-9.37s2.4-5.76-2.72-13.6c0,0-7.65-7.75-4.12-13.68C297.12,240.91,293.38,237.11,292.1,236Z" fill="#2c2e63"/><path d="M307.65,253.73a16,16,0,0,1,5.11-14.14s12.17-10.61,5.1-24a52.32,52.32,0,0,1-4.32,8.64s1.43,7-1.29,12.69a12.62,12.62,0,0,1-1.61,2.49C309.11,241.36,305.07,247.28,307.65,253.73Z" fill="#2c2e63"/><path d="M339,255.1s-1.86.24-4.13,2.68a13.44,13.44,0,0,0-3.1,12.12c.94,4.09,2.41,9.18,4,9.36,0,0,7.07,6.77,15.91,3.24,0,0,7.66-2.07,3.83-12.08L364,266s4.53-1.91,6.08-4.65a5.34,5.34,0,0,1,1.43-1.7l4.15-3A27.11,27.11,0,0,0,382,250a8.41,8.41,0,0,1,1.48-1.7s3.68-5.89.44-7.66c0,0-4.71.15-6,6.33,0,0-2.94,1.47-6.33,7.51,0,0-.74-.44,6-11a27.9,27.9,0,0,0,2.5-7.66s4.86-8.69-1-8.84c0,0,2.8-4.86-1.62-5.89,0,0-2.65.44-2.94,2.36,0,0,.41-2.76-1.84-3.09a3.21,3.21,0,0,0-2.46.76c-2.59,2.1-11.14,9.17-16.47,15,0,0-2.8,3.83-5,3.83l.06-1.91a3.84,3.84,0,0,1,1.94-3.24c1-.54,2.17-1.73,3.16-4.27,0,0,1.76-4.27-1.18-3.83,0,0-9,3.09-9.13,5.74a49,49,0,0,1-3.28,5.55,8.58,8.58,0,0,0-1.64,5.58C338.86,247.43,339.16,253.29,339,255.1Z" fill="#ffc596"/><line x1="374.47" y1="223.44" x2="356.75" y2="240.63" fill="none" stroke="#ffa072" stroke-miterlimit="10" stroke-width="0.75"/><line x1="379.03" y1="226.97" x2="362.55" y2="243.53" fill="none" stroke="#ffa072" stroke-miterlimit="10" stroke-width="0.75"/><path d="M342.77,147s-1,3.16-3.21,4.44c0,0-15.23-1.06-19.73-11.79Z" fill="#ffa072"/><ellipse cx="331.32" cy="124.14" rx="20.64" ry="27.47" transform="translate(9.26 270.64) rotate(-45)" fill="#ffc596"/><path d="M330.07,102.07s.81-9.79-12.65-12.24c0,0-9-2-20,9.79,0,0-32.64,6.53-26.12,34.28,0,0,5.72,11.83,4.49,22,0,0-6.17,15.08,2.86,23.88a15.37,15.37,0,0,1,4.92,11.52,17.38,17.38,0,0,1-1.25,5.81s-2.21,6.12,1.88,9.51a6.07,6.07,0,0,1,2,2.71,7.53,7.53,0,0,1-.64,6.44,11.26,11.26,0,0,0-1.54,3.45c-.75,3.1-1,8.23,4.61,9.64,0,0-.29,5.59,9.72,13.25S298,266,298,266s-5.32,8.94.32,14.88a10.67,10.67,0,0,0,6,3.07c3.21.55,9.48,2,9.92,5.32,0,0,1.08-4.12-7-5.69,0,0-7.66-.2-5.3-9.82,0,0,.19-2.36,5.69-9.62,0,0,6.87-11,3.14-20.82,0,0-5.1-8.25,3.73-20.32,0,0,9.43-13-2.65-23.27,0,0-12.37-6.78,1.48-21.21,0,0,11.12-6,1.86-31.71a5.37,5.37,0,0,1,4.43-7.16l.19,0s9.13-5.3-.3-16.79c0,0,3.54-6.48.59-18.85,0,0,2.95,2.06,4.71,8.84C324.83,112.83,328.23,109.87,330.07,102.07Z" fill="#2c2e63"/><path d="M315.79,176.42s4.38,5.8-1.22,12c0,0-6.24,5.76.16,13.13,0,0-3.68-5.93,4.8-11.53,0,0,14.57-13,7.53-24,0,0-2.56-2.72-.32-8.48,1.93-5,3.87-9.35-1.42-13-1.41-1-2.78-4.29-4.48-4.57-1.06-.18-1.95-1.62-3.57-2.4a40.45,40.45,0,0,0-3.63,8.5C309.7,159.35,313.64,171.19,315.79,176.42Z" fill="#2c2e63"/><path d="M343.47,97.65h0a.91.91,0,0,0,1.35-.08c1.13-1.4,3.68-4.19,6.32-4.47,0,0-3-1.54-7.69,3.25A.93.93,0,0,0,343.47,97.65Z" fill="#2c2e63"/><path d="M361.47,116.85a6.23,6.23,0,0,1-2.23,6.32,3.89,3.89,0,0,1-4.8.4S359.74,124.4,361.47,116.85Z" fill="#ffa072"/><ellipse cx="347.51" cy="98.95" rx="1.12" ry="1.84" transform="translate(-13.05 122.5) rotate(-19.63)" fill="#2c2e63"/><path d="M340.46,114.82a1.61,1.61,0,0,0,.06-2.28,1.71,1.71,0,0,0-.77-.46c.7-1.13.05-1.61.05-1.61.14.38-1,1.47-1.45,1.91h0l-.15.13h0l-.05.06a1.61,1.61,0,0,0,2.31,2.25Z" fill="#2c2e63"/><path d="M339.36,107.75h0a.76.76,0,0,1-.08,1.11c-1.16.91-3.47,3-3.73,5.13,0,0-1.23-2.49,2.74-6.26A.76.76,0,0,1,339.36,107.75Z" fill="#2c2e63"/><path d="M345.4,130.22a5.13,5.13,0,0,0,5.43.89,3.19,3.19,0,0,0,2.18-3.29S351.52,132,345.4,130.22Z" fill="#ffa072"/><path d="M378.32,93.4a1.52,1.52,0,0,0-.3,1.11,1.11,1.11,0,0,0,.43.73,5.73,5.73,0,0,1,1,1,1.49,1.49,0,0,1,.26.79.77.77,0,0,1-.33.71.77.77,0,0,0-.18-.57,1.52,1.52,0,0,0-.39-.37,9.5,9.5,0,0,1-1.08-.72,1.73,1.73,0,0,1-.5-.73,1.54,1.54,0,0,1,0-.9A1.26,1.26,0,0,1,378.32,93.4Z" fill="#ffa072"/><path d="M376.57,93.86a2.31,2.31,0,0,1,1.05-3.72,2.05,2.05,0,0,1,1.25,0,1.55,1.55,0,0,1,1,.88,2.1,2.1,0,0,1,.11,1.12,7.77,7.77,0,0,1-.23,1,7.94,7.94,0,0,0-.63-1.7.74.74,0,0,0-.49-.29,1.49,1.49,0,0,0-.66,0,1.88,1.88,0,0,0-1.08.93A3.28,3.28,0,0,0,376.57,93.86Z" fill="#ffa072"/></svg>