<svg xmlns="http://www.w3.org/2000/svg" xmlns:xlink="http://www.w3.org/1999/xlink" width="865.76" height="682.89" viewBox="0 0 865.76 682.89"><defs><clipPath id="b8da0c96-e647-4d6e-8c2b-6a16a92d347c"><path id="fef426ec-7892-4f8c-86ab-8c61d5010981" data-name="SVGID" d="M604.37,297.08S591.76,301.3,585,305.2a3.81,3.81,0,0,0-1.87,2.88c-1,8.32-5.59,42.24-17.08,49.33l-20.92,15.84a4.14,4.14,0,0,0-1.37,4.77l5.89,15.42a4.13,4.13,0,0,0,6.68,1.55l30.28-28.18s-13.34,75.44-8.53,91.4c0,0,25.15,5.69,48.76-1.09l4.81,4.37s19.9,1.75,27.77-1.75c0,0-2-2.4-1.75-13.56,0,0,4.38-29.52-4.37-52.47,0,0-10.06-41.33-5.47-67.13l1.53-21.43s-7.83-8.47-24.8-10.58Z" fill="#686175" data-primary="true"/></clipPath><clipPath id="b4920309-063a-4bbf-9f63-7f5d1276c551"><path id="bf7354cc-d32e-4517-af2b-df9e0e141095" data-name="SVGID" d="M638.4,297.9a9.13,9.13,0,0,0,5.15,2,9,9,0,0,1,3.4.76c2.94,1.36,1.94,3.09,1.94,3.09L643.44,341c.5,5.08-3.84,2.11-3.84,2.11-5.94,5.2-9.91-1.24-9.91-1.24-5,5.08-5.94-1.49-5.94-1.49-.87-10.28,6.73-44.71,6.73-44.71S633.87,294.22,638.4,297.9Z" fill="#f48225" data-secondary="true"/></clipPath><clipPath id="ae76ca5c-9b71-4994-8a52-610bed3596ef"><path id="bf20f5cc-da2b-4113-9895-4282e674046a" data-name="SVGID" d="M626.73,546.66s-2.67,5.22-2.86,16.41a9.33,9.33,0,0,0,5.78.74,6.08,6.08,0,0,1,5.25,2.43,1.75,1.75,0,0,0,1.17.7c3.26.55,15.28,2.21,19.18-2a2.15,2.15,0,0,0,.14-2.67c-1.43-2.07-5.59-6.77-17.53-15.64Z" fill="#686175" data-primary="true"/></clipPath><clipPath id="b21c2180-b901-4113-94a7-f9aaba6f79b1"><path id="a6c7b9fa-6f9b-4c58-8792-b4cf3d983d69" data-name="SVGID" d="M496.45,509.16l21.82-7.33a5.13,5.13,0,0,1,4.29.47l20.55,12.4a1,1,0,0,1,.47,1l-5.48,31.7a10.62,10.62,0,0,1-.29,1.24c-1.11,3.5-6.89,18.64-24.85,20.49a2.11,2.11,0,0,1-1.05-.16c-3.29-1.43-21.06-10.13-18.28-30l2.13-28.92A1,1,0,0,1,496.45,509.16Z" fill="#e56a46"/></clipPath><linearGradient id="a974ff00-5004-4313-9b50-8e4a4254061c" x1="236.05" y1="304.23" x2="236.05" y2="276.7" gradientUnits="userSpaceOnUse"><stop offset="0" stop-color="#b7ac99"/><stop offset="0.53" stop-color="#877d72"/><stop offset="1" stop-color="#59504c"/></linearGradient></defs><g style="isolation:isolate"><g id="f3db1908-c03b-47da-91e0-84f5579383dd" data-name="Layer 1"><path d="M62.5,525.05c14.71,7.09,33.29,8.94,51.88,8.76-4,3.65-7.77,7.45-11.3,11.35H820.65c12.54-19.16,14.16-40.62-4.25-59.27-6.53-6.62-16.3-11-27.44-14,26.22-14,47-32.4,56-57.1,3.56-9.79,4.29-24.11-1.27-33.84-7.93-13.9-14.05-16.4-30.13-25.23-15.43-8.46-39.61-9.38-59.79-9.47-4.24-.19-8.46-.33-12.72-.47,3.81-1.18,7.6-2.38,11.41-3.65,37.14-12.37,68.57-33.75,79.09-63.43,7.46-21-1.88-44-29.87-54.08-17.3-6.19-33.73-6.68-52.13-6.89-54.17-1.33-108.61.75-162.91,4.15A185.19,185.19,0,0,0,604.9,208c14.37-12.47,26.65-31.8,24.37-48.48-3.08-22.31-21.41-34.11-50.23-38.88l8,2c-12-2.75-19.87-3.54-35.21-3.88-5.87-.13-11.68.19-17.53.36-12.2.35-24.09,1.6-36.14,3-9.33,1.07-18.71,2-28.09,2.89,30.91-10.72,61.64-21.57,93.51-30.71,10.34-3,27.15-19.79,7.3-22.52-16-2.2-34.11-5.6-50.38-4.55-19.27,1.23-37.38.93-56.52,3.89-34.81,5.38-69.24,11.84-103.18,19.65-21.6,5-43,10.61-64.18,16.44-13.22,3.66-26.12,8-39,12.26-4.73,1.58-9.37,3.29-14,5.07l-2.2.89q30.1-9.54-4.37,1.55c.76-.31-2.31,1.3-6.31,3.38l.67-.35c-22.76,11.66-40.41,23.25-54.63,41-9.72,12.13-15.29,31.86-6.33,45.13,7.55,11.19,18.91,18.26,32.3,22.69-16.56,4.62-33.11,9.93-50.08,13.48-20.88,4.38-43.2,13.27-59.85,23.32-23.23,14-48.09,38.38-43.58,61.88,3.86,20.19,17.09,33.5,45.59,38.06,23.2,3.7,46.56-1,69.71-1.76,3.25-.09,6.5-.24,9.75-.43A615.69,615.69,0,0,0,109.5,400l2-1C84.7,411.26,55,427.21,42.51,449.4,26.59,477.8,24,506.52,62.5,525.05Z" fill="#cce9f7"/><path d="M469,168.22a20.35,20.35,0,0,0-5.32-.71c0-.16.13-.3.19-.45a15.25,15.25,0,0,0,.72-9.17,24.93,24.93,0,0,0-4.1-8.21c-3.57-4.5-9.09-7.14-14.65-8.12a29.63,29.63,0,0,0-8.82-.06,28.18,28.18,0,0,0-.6-6.67c-1.22-5.83-5.59-11-10.21-14.56-4.88-3.72-11-4.49-16.94-3.43-.62.1-1.24.26-1.85.41-1.92-4.84-7.22-7.85-12.12-9a21,21,0,0,0-18.45,4.37,24.46,24.46,0,0,0-5.94,7.36c-1.67,3-2.06,6.52-2.09,9.87a14.89,14.89,0,0,0,2.14,7.54,9.84,9.84,0,0,0-2,1.25,13.42,13.42,0,0,0-4.35,6.18,19.13,19.13,0,0,0-2.32-1,26.92,26.92,0,0,0-9.27-1.3,22.75,22.75,0,0,0-8.86,2.35c-5.62,2.57-11,5.59-14.09,11.22a17.43,17.43,0,0,0-1.7,4.82c-.53-.16-1-.29-1.55-.43a20.54,20.54,0,0,0-11.82.58c-6.86,2.42-11.56,9.83-12.22,16.89-.77,8.17,4.9,15.62,12.52,17.94a21.41,21.41,0,0,0,12.13-.31,31.42,31.42,0,0,0,7.08-3,23.12,23.12,0,0,0,3.85,4.3c4.69,4.09,10.88,6.06,16.95,6.82a24.33,24.33,0,0,0,8.55-.51c1.43-.33,2.85-.48,4.27-.89a35,35,0,0,0,4.36-1.68,26.33,26.33,0,0,0,6.7-4,21.77,21.77,0,0,0,2.23,2.06,25.89,25.89,0,0,0,14.95,5.85A38.5,38.5,0,0,0,413,201.62a30.5,30.5,0,0,0,10.07-6.86,38.83,38.83,0,0,0,15.58,7.35,48.68,48.68,0,0,0,13.17,1.41,37,37,0,0,0,12.57-2.7c6.75-2.79,14.22-8.3,15.57-15.9S476.36,170.29,469,168.22Z" fill="#fff"/><path d="M476.28,188.56c-1.85,3.48-5.55,6-8.8,8-7.59,4.64-16.9,5.24-25.46,3.71a45.61,45.61,0,0,1-13.34-4.41,30.84,30.84,0,0,1-4.18-2.61c.39-.42.77-.85,1.14-1.27-.48.39-1,.72-1.44,1-1.86,1.22-3.75,2.44-5.67,3.54-.22.13-.47.25-.7.39a34.75,34.75,0,0,1-4.37,2.38,36.81,36.81,0,0,1-7.4,2.2,40,40,0,0,1-8.08,1,26.33,26.33,0,0,1-6.75-.89,24.52,24.52,0,0,1-8.9-3.4,16.78,16.78,0,0,1-4.37-3.9c-.77-1.06-1.35-2.48-2.36-3.35a15.94,15.94,0,0,0,.82,1.8,14.93,14.93,0,0,0,2,2.9,34.22,34.22,0,0,1-6.79,3.27,33.47,33.47,0,0,1-16.22,2.55,37,37,0,0,1-16-5.82,19.8,19.8,0,0,1-4.12-3.64s0,0,0,0a20.85,20.85,0,0,1-3.44-4.94,22.52,22.52,0,0,0,2.1,4.5,47.36,47.36,0,0,1-6.17,2.11,22.22,22.22,0,0,1-11.39.16,16.36,16.36,0,0,1-11.8-15.77,18,18,0,0,1,10.61-16.41,19.7,19.7,0,0,1,11.54-.8c.53.12,1.08.27,1.58.43a18.76,18.76,0,0,0-.27,2.27,15.23,15.23,0,0,0,.21,2.43,22.54,22.54,0,0,0,1,3.18,19.67,19.67,0,0,1,1.16-8.8A12.52,12.52,0,0,1,331,159a17.42,17.42,0,0,1,1-2.1c2.73-5,7.76-7.62,12.66-10.11a24.62,24.62,0,0,1,16.76-2.05,17.78,17.78,0,0,1,3,1,9.46,9.46,0,0,0,1.13,7.18,11.8,11.8,0,0,1,1.17-9.27,15.86,15.86,0,0,1,3.69-4.5,5.55,5.55,0,0,1,1.19-.81s0,.06,0,.07l.06,0c.28-.17.59-.3.88-.44,0,0,0,0,0-.08a23,23,0,0,1,5.34-1.34,12.76,12.76,0,0,1,3.9-.18c.29,0,.58.1.88.16a1.71,1.71,0,0,0,.25,0,8.51,8.51,0,0,0-2.86-.61,32.59,32.59,0,0,0-4.32.16,18.26,18.26,0,0,0-3.68.87,16.84,16.84,0,0,1-1.67-7.35,19.18,19.18,0,0,1,1.84-9.11,23.51,23.51,0,0,1,5.7-7.07,20.88,20.88,0,0,1,16.79-4.72c5,.75,10.56,3.84,12.65,8.62a24,24,0,0,0-4.62,1.86,13.29,13.29,0,0,0-2.66,2.14,18.28,18.28,0,0,1,12.77-3.47,20.78,20.78,0,0,1,13.07,4.44c4.2,3.31,8.16,7.74,9.74,12.91a21.19,21.19,0,0,1,.84,4.7,22.49,22.49,0,0,1,.13,5c0,.43,0,.85-.07,1.29a29.73,29.73,0,0,0,.51-4.08l.37,0a28.34,28.34,0,0,1,8.17.56,24.18,24.18,0,0,1,13.59,8,23.65,23.65,0,0,1,3.54,6.86,13.93,13.93,0,0,1-.12,8.93,8.74,8.74,0,0,1-.37,1.09h-.06a22.07,22.07,0,0,0-4.1.75,2.21,2.21,0,0,0-1.42.73.23.23,0,0,1,.11,0l.13,0c1.06-.72,2.73-.68,3.91-.68a17.25,17.25,0,0,1,2.59,0h0a19.4,19.4,0,0,1,5,1.11,14.55,14.55,0,0,1,8.57,8.26A13.18,13.18,0,0,1,476.28,188.56Z" fill="#fff"/><path d="M393.61,128.83a5.81,5.81,0,0,0,.28,2.5c.05-3,2.08-6.57,4.1-8.57a16.69,16.69,0,0,1,2.84-2.23,15.44,15.44,0,0,1,1.88-1.39,24,24,0,0,1,4.62-1.86,11.63,11.63,0,0,0-1.91-3C400.18,115,394.32,121.36,393.61,128.83Z" fill="#bce8e5" opacity="0.3"/><path d="M372,136.91a18.26,18.26,0,0,1,3.68-.87,32.59,32.59,0,0,1,4.32-.16,8.57,8.57,0,0,1,2.32.42,27.37,27.37,0,0,1,7.57,2.21,28.75,28.75,0,0,1,7.49,4.58c-4.64-7.72-15.06-12.5-23.52-9.21-.26.1-.63.09-.74-.23A23.75,23.75,0,0,1,372,120.89a19.85,19.85,0,0,0-1.64,8.67A16.84,16.84,0,0,0,372,136.91Z" fill="#bce8e5" opacity="0.3"/><path d="M477,177.68a14.55,14.55,0,0,0-8.57-8.26,19.4,19.4,0,0,0-5-1.11h0a17.25,17.25,0,0,0-2.59,0c-1.18,0-2.85,0-3.91.68l-.13,0a.23.23,0,0,0-.11,0,2.21,2.21,0,0,1,1.42-.73,22.07,22.07,0,0,1,4.1-.75h0a6.46,6.46,0,0,0,.39-1.09,13.93,13.93,0,0,0,.12-8.93A21,21,0,0,0,448,143.28c4.65,3.24,8.39,7.43,8.31,13.67a27.9,27.9,0,0,1-3.75,13.82c.88-.11,1.75-.2,2.65-.28,3.76-.29,7.78-.73,11.34.78a5.2,5.2,0,0,1,2.86,6.87,15.58,15.58,0,0,1-8.92,9.14c-8.16,3.4-17.62,2.61-25.77-.41-5.51-2-10.91-5.24-14.41-9.9-4.3,8.06-12.1,13.7-22,13.51-11.31-.2-23.78-7.77-27-18.95a24.81,24.81,0,0,0,2.24,10.33.54.54,0,0,1-.23.73c-8.28,4.83-25.14,9.61-34.66,5.18-5.21-2.42-7.49-7.19-9.46-13-.6,4,.14,8.39,1.49,12.68.12.38-1.25.55-1.57.57-6.83.54-15.05-.51-19.85-6a15,15,0,0,1-3.66-9.82,16.71,16.71,0,0,0,10.8,21.67,22.22,22.22,0,0,0,11.39-.16,47.36,47.36,0,0,0,6.17-2.11,22.52,22.52,0,0,1-2.1-4.5,20.85,20.85,0,0,0,3.44,4.94v0a19.73,19.73,0,0,0,4.11,3.63,37,37,0,0,0,16,5.82A33.47,33.47,0,0,0,371.59,199a34.22,34.22,0,0,0,6.79-3.27,14.93,14.93,0,0,1-2-2.9,15.94,15.94,0,0,1-.82-1.8c1,.87,1.59,2.29,2.36,3.35a16.78,16.78,0,0,0,4.37,3.9,24.52,24.52,0,0,0,8.9,3.4,26.33,26.33,0,0,0,6.75.89,40,40,0,0,0,8.08-1,36.81,36.81,0,0,0,7.4-2.2,34.75,34.75,0,0,0,4.37-2.38c.23-.14.48-.26.7-.39,1.92-1.1,3.81-2.32,5.67-3.54.45-.32,1-.65,1.44-1-.37.42-.75.85-1.14,1.27a30.84,30.84,0,0,0,4.18,2.61A45.61,45.61,0,0,0,442,200.3c8.56,1.53,17.87.93,25.46-3.71,3.25-2,6.95-4.55,8.8-8A13.18,13.18,0,0,0,477,177.68Z" fill="#cce9f7"/><path d="M371.57,138.29l-.14.07.16,0Z" fill="#fff"/><path d="M605.28,270.58a12.15,12.15,0,0,0-3.29-.45l.12-.28a9.47,9.47,0,0,0,.45-5.66,15.11,15.11,0,0,0-2.54-5.07,14.73,14.73,0,0,0-9-5,18.11,18.11,0,0,0-5.45,0,17.76,17.76,0,0,0-.37-4.12c-.75-3.6-3.44-6.82-6.31-9a13.19,13.19,0,0,0-10.48-2.12c-.38.07-.75.17-1.13.27-1.18-3-4.46-4.87-7.49-5.61a13.65,13.65,0,0,0-6.26.05,13.3,13.3,0,0,0-5.14,2.66,14.59,14.59,0,0,0-3.67,4.55,12.67,12.67,0,0,0-1.3,6.09,9.31,9.31,0,0,0,1.33,4.66,5.77,5.77,0,0,0-1.25.77,8.3,8.3,0,0,0-2.69,3.82,13,13,0,0,0-1.43-.59,16.81,16.81,0,0,0-5.73-.81,14,14,0,0,0-5.47,1.46c-3.47,1.59-6.82,3.45-8.72,6.93a10.62,10.62,0,0,0-1,3c-.33-.1-.64-.19-1-.26a12.57,12.57,0,0,0-7.31.35c-4.24,1.5-7.15,6.07-7.55,10.43a10.82,10.82,0,0,0,7.73,11.09,13.21,13.21,0,0,0,7.5-.19,19.59,19.59,0,0,0,4.37-1.85,14.75,14.75,0,0,0,2.38,2.65A19.5,19.5,0,0,0,535,292.48a14.66,14.66,0,0,0,5.28-.31c.88-.2,1.76-.3,2.64-.55a24.62,24.62,0,0,0,2.7-1,16,16,0,0,0,4.13-2.46,11.89,11.89,0,0,0,1.38,1.28,15.88,15.88,0,0,0,9.24,3.61,23.66,23.66,0,0,0,10.27-1.79,19.32,19.32,0,0,0,6.22-4.24,24,24,0,0,0,9.63,4.53,29.33,29.33,0,0,0,8.14.87,22.52,22.52,0,0,0,7.76-1.66c4.18-1.72,8.79-5.13,9.63-9.83A9.14,9.14,0,0,0,605.28,270.58Z" fill="#fff"/><path d="M609.76,283.14c-1.14,2.15-3.43,3.73-5.46,5-4.67,2.86-10.43,3.22-15.71,2.29a28.29,28.29,0,0,1-8.25-2.73,19.89,19.89,0,0,1-2.58-1.6l.72-.79c-.31.23-.63.44-.92.64-1.14.75-2.3,1.51-3.49,2.19a4.63,4.63,0,0,0-.43.24,22,22,0,0,1-2.7,1.47,23.43,23.43,0,0,1-4.58,1.36,24.58,24.58,0,0,1-5,.61,16.18,16.18,0,0,1-4.17-.55,15.38,15.38,0,0,1-5.5-2.09,10.59,10.59,0,0,1-2.7-2.42,12,12,0,0,0-1.45-2.07,9.16,9.16,0,0,0,.5,1.12,10.23,10.23,0,0,0,1.21,1.79,21.93,21.93,0,0,1-4.2,2,20.78,20.78,0,0,1-10,1.57,23,23,0,0,1-9.89-3.59,12.52,12.52,0,0,1-2.54-2.25h0a13.32,13.32,0,0,1-2.13-3,14.59,14.59,0,0,0,1.3,2.77,27.33,27.33,0,0,1-3.82,1.3,13.73,13.73,0,0,1-7,.11,10.13,10.13,0,0,1-7.29-9.75,11.14,11.14,0,0,1,6.56-10.14,12,12,0,0,1,7.12-.5c.34.07.68.17,1,.26-.08.46-.13.93-.17,1.41a9.4,9.4,0,0,0,.14,1.5,12.46,12.46,0,0,0,.61,2,11.93,11.93,0,0,1,.7-5.44,8,8,0,0,1,.4-.89,10.86,10.86,0,0,1,.61-1.3c1.69-3.12,4.79-4.71,7.81-6.24a15.16,15.16,0,0,1,10.38-1.27,12.48,12.48,0,0,1,1.82.59,5.89,5.89,0,0,0,.69,4.43,7.3,7.3,0,0,1,.74-5.72,9.43,9.43,0,0,1,2.28-2.78,3.37,3.37,0,0,1,.73-.5l0,0a.08.08,0,0,0,0,0l.55-.26s0,0,0-.05a14.21,14.21,0,0,1,3.29-.84,8.12,8.12,0,0,1,2.41-.1l.55.09.15,0a5.38,5.38,0,0,0-1.76-.37,18.18,18.18,0,0,0-2.67.1,11.47,11.47,0,0,0-2.28.53,10.34,10.34,0,0,1-1-4.54,11.78,11.78,0,0,1,1.13-5.63,14.86,14.86,0,0,1,3.52-4.36,12.91,12.91,0,0,1,10.38-2.92c3.09.46,6.52,2.37,7.82,5.33a15,15,0,0,0-2.86,1.15,8.26,8.26,0,0,0-1.64,1.32,11.26,11.26,0,0,1,7.9-2.15,12.94,12.94,0,0,1,8.06,2.73c2.6,2.06,5,4.8,6,8a12.52,12.52,0,0,1,.51,2.9,13.6,13.6,0,0,1,.09,3.12c0,.26,0,.53,0,.79a17.72,17.72,0,0,0,.32-2.52l.22,0a17.12,17.12,0,0,1,5,.35,14.83,14.83,0,0,1,8.4,5,14.66,14.66,0,0,1,2.19,4.23,8.59,8.59,0,0,1-.07,5.53c-.07.21-.14.44-.23.66h0a14.42,14.42,0,0,0-2.53.45,1.45,1.45,0,0,0-.88.46h.07l.08,0a4.57,4.57,0,0,1,2.41-.43,14.2,14.2,0,0,1,1.6,0h0a11.71,11.71,0,0,1,3.09.68,9,9,0,0,1,5.31,5.11A8.17,8.17,0,0,1,609.76,283.14Z" fill="#fff"/><path d="M558.67,246.23a3.47,3.47,0,0,0,.18,1.55,8.56,8.56,0,0,1,2.53-5.3,10.41,10.41,0,0,1,1.75-1.38,10.11,10.11,0,0,1,1.16-.85,15,15,0,0,1,2.86-1.15,6.88,6.88,0,0,0-1.18-1.84C562.73,237.66,559.11,241.62,558.67,246.23Z" fill="#bce8e5" opacity="0.3"/><path d="M545.33,251.22a11.47,11.47,0,0,1,2.28-.53,18.18,18.18,0,0,1,2.67-.1,5.17,5.17,0,0,1,1.42.26,17,17,0,0,1,4.68,1.36A17.93,17.93,0,0,1,561,255c-2.88-4.77-9.31-7.72-14.54-5.69-.16.06-.39.06-.46-.14a14.83,14.83,0,0,1-.71-7.89,12.08,12.08,0,0,0-1,5.36A10.34,10.34,0,0,0,545.33,251.22Z" fill="#bce8e5" opacity="0.3"/><path d="M610.19,276.42a9,9,0,0,0-5.31-5.11,11.71,11.71,0,0,0-3.09-.68h0a14.2,14.2,0,0,0-1.6,0,4.57,4.57,0,0,0-2.41.43l-.08,0h-.07a1.45,1.45,0,0,1,.88-.46,14.42,14.42,0,0,1,2.53-.45h0a6.64,6.64,0,0,0,.24-.66,8.59,8.59,0,0,0,.07-5.53,13,13,0,0,0-9.08-8.81c2.87,2,5.19,4.6,5.14,8.45a17.06,17.06,0,0,1-2.33,8.54l1.64-.18c2.34-.18,4.81-.45,7,.48a3.24,3.24,0,0,1,1.77,4.26,9.71,9.71,0,0,1-5.52,5.64c-5,2.1-10.89,1.61-15.92-.25a19.57,19.57,0,0,1-8.91-6.13c-2.65,5-7.48,8.48-13.61,8.36-7-.13-14.7-4.8-16.7-11.71a15.14,15.14,0,0,0,1.38,6.38.35.35,0,0,1-.13.45c-5.13,3-15.55,5.94-21.44,3.2-3.21-1.49-4.63-4.44-5.84-8a17.86,17.86,0,0,0,.93,7.84c.07.23-.77.34-1,.35-4.22.33-9.3-.32-12.28-3.69a9.26,9.26,0,0,1-2.25-6.07,10,10,0,0,0-.62,3.65,10.13,10.13,0,0,0,7.29,9.75,13.73,13.73,0,0,0,7-.11,27.33,27.33,0,0,0,3.82-1.3,14.59,14.59,0,0,1-1.3-2.77,13.32,13.32,0,0,0,2.13,3h0a12.2,12.2,0,0,0,2.53,2.25,23,23,0,0,0,9.89,3.59,20.78,20.78,0,0,0,10-1.57,21.93,21.93,0,0,0,4.2-2,10.23,10.23,0,0,1-1.21-1.79,9.16,9.16,0,0,1-.5-1.12,12,12,0,0,1,1.45,2.07,10.59,10.59,0,0,0,2.7,2.42,15.38,15.38,0,0,0,5.5,2.09,16.18,16.18,0,0,0,4.17.55,24.58,24.58,0,0,0,5-.61,23.43,23.43,0,0,0,4.58-1.36,22,22,0,0,0,2.7-1.47,4.63,4.63,0,0,1,.43-.24c1.19-.68,2.35-1.44,3.49-2.19.29-.2.61-.41.92-.64l-.72.79a19.89,19.89,0,0,0,2.58,1.6,28.29,28.29,0,0,0,8.25,2.73c5.28.93,11,.57,15.71-2.29,2-1.24,4.32-2.82,5.46-5A8.17,8.17,0,0,0,610.19,276.42Z" fill="#cce9f7"/><path d="M545.05,252.08l-.09,0,.1,0Z" fill="#fff"/><path d="M390.94,335.43a10.34,10.34,0,0,0-2.87-.38,1.89,1.89,0,0,1,.11-.25,8.27,8.27,0,0,0,.38-4.94,13.07,13.07,0,0,0-2.21-4.41,12.85,12.85,0,0,0-7.88-4.37,15.77,15.77,0,0,0-4.75,0,15.44,15.44,0,0,0-.33-3.59c-.65-3.14-3-5.94-5.5-7.85a11.52,11.52,0,0,0-9.13-1.84c-.32.06-.65.14-1,.23-1-2.61-3.89-4.24-6.53-4.88a11.85,11.85,0,0,0-5.46,0,11.64,11.64,0,0,0-4.47,2.31,13.09,13.09,0,0,0-3.2,4,11.06,11.06,0,0,0-1.13,5.31,8.11,8.11,0,0,0,1.16,4.06,5.07,5.07,0,0,0-1.09.67,7.26,7.26,0,0,0-2.35,3.33,9.8,9.8,0,0,0-1.24-.52,14.83,14.83,0,0,0-5-.7,12.31,12.31,0,0,0-4.77,1.27c-3,1.39-5.93,3-7.59,6a9.81,9.81,0,0,0-.91,2.59l-.83-.23a11,11,0,0,0-6.36.32c-3.7,1.3-6.23,5.29-6.58,9.09a9.4,9.4,0,0,0,6.73,9.65,11.56,11.56,0,0,0,6.54-.16,16.79,16.79,0,0,0,3.8-1.62,12.53,12.53,0,0,0,2.08,2.31,17,17,0,0,0,9.13,3.68,12.94,12.94,0,0,0,4.6-.28c.77-.17,1.53-.25,2.3-.47a21.54,21.54,0,0,0,2.35-.91,14.22,14.22,0,0,0,3.61-2.14,11.33,11.33,0,0,0,1.19,1.11,13.87,13.87,0,0,0,8.06,3.15,20.81,20.81,0,0,0,8.95-1.56,16.61,16.61,0,0,0,5.41-3.7,20.85,20.85,0,0,0,8.4,3.95,25.65,25.65,0,0,0,7.09.75,19.4,19.4,0,0,0,6.76-1.44c3.64-1.5,7.66-4.47,8.39-8.57A8,8,0,0,0,390.94,335.43Z" fill="#fff"/><path d="M394.83,346.38c-1,1.87-3,3.24-4.74,4.32-4.08,2.5-9.1,2.82-13.7,2a24.43,24.43,0,0,1-7.19-2.38,18.36,18.36,0,0,1-2.25-1.39l.62-.69a9.58,9.58,0,0,1-.79.56c-1,.65-2,1.31-3,1.9l-.37.21A19.27,19.27,0,0,1,361,352.2a20.55,20.55,0,0,1-4,1.18,21.83,21.83,0,0,1-4.35.53,14.1,14.1,0,0,1-3.62-.47,13.2,13.2,0,0,1-4.81-1.83,8.93,8.93,0,0,1-2.35-2.11,9.45,9.45,0,0,0-1.26-1.79c.13.32.26.64.43,1a9,9,0,0,0,1.06,1.55,18.71,18.71,0,0,1-3.66,1.77,18.17,18.17,0,0,1-8.73,1.36,19.88,19.88,0,0,1-8.61-3.13,10.23,10.23,0,0,1-2.22-2h0a11.67,11.67,0,0,1-1.86-2.66,12.45,12.45,0,0,0,1.14,2.42,25.15,25.15,0,0,1-3.33,1.13,11.91,11.91,0,0,1-6.13.09,8.79,8.79,0,0,1-6.35-8.48,9.72,9.72,0,0,1,5.71-8.84,10.57,10.57,0,0,1,6.22-.44l.84.23A12,12,0,0,0,315,333a8.15,8.15,0,0,0,.11,1.3,11.32,11.32,0,0,0,.54,1.71,10.4,10.4,0,0,1,.61-4.74c.1-.27.22-.52.34-.78a10.5,10.5,0,0,1,.54-1.13c1.47-2.72,4.18-4.1,6.81-5.44a13.21,13.21,0,0,1,9-1.09,9.67,9.67,0,0,1,1.58.5,5.15,5.15,0,0,0,.61,3.87,6.29,6.29,0,0,1,.64-5,8.34,8.34,0,0,1,2-2.42,3.16,3.16,0,0,1,.64-.44s0,0,0,0h0a2.92,2.92,0,0,1,.47-.23s0,0,0-.05a12.2,12.2,0,0,1,2.87-.72,6.8,6.8,0,0,1,2.11-.1l.47.08a.27.27,0,0,0,.13,0A4.28,4.28,0,0,0,343,318a16.4,16.4,0,0,0-2.33.08,9.43,9.43,0,0,0-2,.47,9,9,0,0,1-.9-4,10.17,10.17,0,0,1,1-4.91,12.63,12.63,0,0,1,3.06-3.8,11.22,11.22,0,0,1,9-2.54c2.69.4,5.68,2.06,6.81,4.64a13.09,13.09,0,0,0-2.49,1,7.2,7.2,0,0,0-1.43,1.16,9.8,9.8,0,0,1,6.88-1.88,11.22,11.22,0,0,1,7,2.39,14.92,14.92,0,0,1,5.24,7,11.05,11.05,0,0,1,.46,2.52,11.88,11.88,0,0,1,.07,2.73c0,.23,0,.46,0,.69a16.52,16.52,0,0,0,.27-2.2l.2,0a15.1,15.1,0,0,1,4.4.3,13.09,13.09,0,0,1,7.32,4.33,12.67,12.67,0,0,1,1.9,3.69,7.44,7.44,0,0,1-.06,4.82c-.06.19-.12.39-.2.58h0a13.93,13.93,0,0,0-2.2.4,1.23,1.23,0,0,0-.76.4h.05l.08,0a4.11,4.11,0,0,1,2.1-.37,12.84,12.84,0,0,1,1.39,0h0a10.52,10.52,0,0,1,2.7.59,7.92,7.92,0,0,1,4.62,4.45A7.14,7.14,0,0,1,394.83,346.38Z" fill="#fff"/><path d="M350.32,314.22a3.14,3.14,0,0,0,.15,1.34,7.52,7.52,0,0,1,2.21-4.61,9.25,9.25,0,0,1,1.53-1.21,9,9,0,0,1,1-.74,13.09,13.09,0,0,1,2.49-1,6.11,6.11,0,0,0-1-1.6C353.86,306.74,350.7,310.2,350.32,314.22Z" fill="#bce8e5" opacity="0.3"/><path d="M338.7,318.57a9.43,9.43,0,0,1,2-.47A16.4,16.4,0,0,1,343,318a4.38,4.38,0,0,1,1.25.22,14.73,14.73,0,0,1,4.08,1.19,15.55,15.55,0,0,1,4,2.47c-2.51-4.16-8.12-6.74-12.68-5a.29.29,0,0,1-.39-.13,12.88,12.88,0,0,1-.63-6.87,10.7,10.7,0,0,0-.87,4.67A9,9,0,0,0,338.7,318.57Z" fill="#bce8e5" opacity="0.3"/><path d="M395.21,340.52a7.92,7.92,0,0,0-4.62-4.45,10.52,10.52,0,0,0-2.7-.59h0a12.84,12.84,0,0,0-1.39,0,4.11,4.11,0,0,0-2.1.37l-.08,0h-.05a1.23,1.23,0,0,1,.76-.4,13.93,13.93,0,0,1,2.2-.4h0a4.5,4.5,0,0,0,.21-.58,7.44,7.44,0,0,0,.06-4.82,12.67,12.67,0,0,0-1.9-3.69,12.82,12.82,0,0,0-6-4c2.5,1.75,4.52,4,4.48,7.37a14.93,14.93,0,0,1-2,7.44c.47-.06.95-.11,1.42-.15,2-.16,4.19-.4,6.12.42a2.8,2.8,0,0,1,1.54,3.7,8.45,8.45,0,0,1-4.81,4.92c-4.4,1.83-9.48,1.4-13.87-.22a17,17,0,0,1-7.76-5.34,13,13,0,0,1-11.86,7.28c-6.1-.11-12.81-4.17-14.55-10.2a13.16,13.16,0,0,0,1.2,5.56.29.29,0,0,1-.12.39c-4.46,2.6-13.54,5.18-18.67,2.79-2.8-1.3-4-3.87-5.09-7a15.44,15.44,0,0,0,.8,6.83c.06.2-.67.3-.84.3-3.68.3-8.11-.27-10.7-3.21a8,8,0,0,1-2-5.29,9,9,0,0,0,5.81,11.67,11.91,11.91,0,0,0,6.13-.09,25.15,25.15,0,0,0,3.33-1.13,12.45,12.45,0,0,1-1.14-2.42,11.67,11.67,0,0,0,1.86,2.66h0a10,10,0,0,0,2.21,2,19.88,19.88,0,0,0,8.61,3.13,18.17,18.17,0,0,0,8.73-1.36,18.71,18.71,0,0,0,3.66-1.77,9,9,0,0,1-1.06-1.55c-.17-.33-.3-.65-.43-1a9.45,9.45,0,0,1,1.26,1.79,8.93,8.93,0,0,0,2.35,2.11,13.2,13.2,0,0,0,4.81,1.83,14.1,14.1,0,0,0,3.62.47,21.83,21.83,0,0,0,4.35-.53,20.55,20.55,0,0,0,4-1.18,19.27,19.27,0,0,0,2.36-1.29l.37-.21c1-.59,2.05-1.25,3-1.9a9.58,9.58,0,0,0,.79-.56l-.62.69a18.36,18.36,0,0,0,2.25,1.39,24.43,24.43,0,0,0,7.19,2.38c4.6.82,9.62.5,13.7-2,1.75-1.08,3.75-2.45,4.74-4.32A7.14,7.14,0,0,0,395.21,340.52Z" fill="#cce9f7"/><path d="M338.45,319.31l-.07,0,.08,0Z" fill="#fff"/><path d="M710.79,377.4a9.94,9.94,0,0,0-2.61-.34l.09-.23a7.48,7.48,0,0,0,.36-4.48,12.17,12.17,0,0,0-2-4,11.71,11.71,0,0,0-7.17-4,14.55,14.55,0,0,0-4.32,0,13.78,13.78,0,0,0-.29-3.27c-.59-2.84-2.73-5.38-5-7.12a10.43,10.43,0,0,0-8.28-1.68l-.91.21c-.93-2.37-3.53-3.84-5.93-4.43a10.27,10.27,0,0,0-9,2.14,12.2,12.2,0,0,0-2.91,3.59,10.09,10.09,0,0,0-1,4.84,7.2,7.2,0,0,0,1,3.68,4.77,4.77,0,0,0-1,.62,6.48,6.48,0,0,0-2.13,3,8.26,8.26,0,0,0-1.14-.47,13.33,13.33,0,0,0-4.53-.65,11.34,11.34,0,0,0-4.33,1.16c-2.74,1.26-5.38,2.74-6.89,5.49a8.8,8.8,0,0,0-.84,2.36l-.74-.21a10,10,0,0,0-5.79.28c-3.36,1.18-5.65,4.8-6,8.25a8.54,8.54,0,0,0,6.11,8.77,10.28,10.28,0,0,0,5.94-.15A15.33,15.33,0,0,0,645,389.3a12.06,12.06,0,0,0,1.88,2.12,15.57,15.57,0,0,0,8.3,3.32,11.78,11.78,0,0,0,4.18-.25c.69-.16,1.39-.23,2.08-.44a16.64,16.64,0,0,0,2.13-.81,13.31,13.31,0,0,0,3.28-1.94,12.68,12.68,0,0,0,8.4,3.87,18.91,18.91,0,0,0,8.13-1.44,15,15,0,0,0,4.92-3.35,19,19,0,0,0,7.62,3.6,24.08,24.08,0,0,0,6.44.68,17.68,17.68,0,0,0,6.14-1.32c3.3-1.35,7-4,7.61-7.78A7.24,7.24,0,0,0,710.79,377.4Z" fill="#97d4eb" style="mix-blend-mode:multiply"/><path d="M707.78,374.48a9.53,9.53,0,0,0-2.6-.35,2,2,0,0,1,.09-.22,7.48,7.48,0,0,0,.35-4.48,12,12,0,0,0-2-4,11.68,11.68,0,0,0-7.16-4,14.89,14.89,0,0,0-4.32,0,14.23,14.23,0,0,0-.29-3.26,13,13,0,0,0-5-7.12,10.47,10.47,0,0,0-8.3-1.68c-.29,0-.59.13-.89.21-.93-2.37-3.53-3.85-5.93-4.43a10.62,10.62,0,0,0-5,0,10.48,10.48,0,0,0-4.07,2.1,11.81,11.81,0,0,0-2.91,3.6,10,10,0,0,0-1,4.82,7.42,7.42,0,0,0,1.05,3.69,4.34,4.34,0,0,0-1,.61,6.53,6.53,0,0,0-2.14,3,7.65,7.65,0,0,0-1.13-.47,13.11,13.11,0,0,0-4.53-.63,11.09,11.09,0,0,0-4.33,1.14c-2.75,1.26-5.4,2.74-6.9,5.5a8.72,8.72,0,0,0-.83,2.35l-.75-.21a10,10,0,0,0-5.78.28c-3.36,1.19-5.66,4.81-6,8.26a8.56,8.56,0,0,0,6.12,8.76,10.36,10.36,0,0,0,5.94-.14,14.81,14.81,0,0,0,3.45-1.47,11.26,11.26,0,0,0,1.89,2.1,15.41,15.41,0,0,0,8.29,3.34,12,12,0,0,0,4.18-.25c.7-.16,1.39-.24,2.09-.43a16.82,16.82,0,0,0,2.13-.84,12.68,12.68,0,0,0,3.28-1.93,9.27,9.27,0,0,0,1.08,1,12.54,12.54,0,0,0,7.32,2.86,18.91,18.91,0,0,0,8.13-1.41,15.29,15.29,0,0,0,4.91-3.36,19,19,0,0,0,7.63,3.58,22.85,22.85,0,0,0,6.44.69,17.77,17.77,0,0,0,6.14-1.31c3.3-1.36,7-4.06,7.61-7.78A7.23,7.23,0,0,0,707.78,374.48Z" fill="#fff"/><path d="M711.32,384.43a11.54,11.54,0,0,1-4.31,3.92c-3.7,2.27-8.26,2.56-12.44,1.82a22.43,22.43,0,0,1-6.52-2.16,17.62,17.62,0,0,1-2-1.27c.19-.22.38-.42.57-.62-.24.18-.49.34-.73.5-.9.6-1.82,1.19-2.76,1.73l-.34.19a16.37,16.37,0,0,1-2.14,1.17,17.51,17.51,0,0,1-3.62,1.07,20.13,20.13,0,0,1-4,.49,12.49,12.49,0,0,1-3.29-.44,11.62,11.62,0,0,1-4.36-1.66,8,8,0,0,1-2.14-1.91,8.42,8.42,0,0,0-1.15-1.63,8.56,8.56,0,0,0,.4.88,7.16,7.16,0,0,0,1,1.41,17.24,17.24,0,0,1-3.32,1.61,16.49,16.49,0,0,1-7.93,1.24,18,18,0,0,1-7.82-2.85,9.62,9.62,0,0,1-2-1.77h0a10.36,10.36,0,0,1-1.69-2.41,11.25,11.25,0,0,0,1,2.19,20.22,20.22,0,0,1-3,1,10.85,10.85,0,0,1-5.57.08,8,8,0,0,1-5.77-7.7,8.82,8.82,0,0,1,5.19-8,9.53,9.53,0,0,1,5.64-.39l.77.2a8.31,8.31,0,0,0-.13,1.13,7.83,7.83,0,0,0,.1,1.18,9.3,9.3,0,0,0,.49,1.55,9.44,9.44,0,0,1,.55-4.3c.1-.25.2-.48.31-.71a9.61,9.61,0,0,1,.49-1c1.34-2.46,3.79-3.72,6.18-4.93a11.92,11.92,0,0,1,8.21-1,8.64,8.64,0,0,1,1.44.46,4.69,4.69,0,0,0,.55,3.51,5.8,5.8,0,0,1,.58-4.53,7.92,7.92,0,0,1,1.8-2.2,3.4,3.4,0,0,1,.59-.4.08.08,0,0,0,0,0h0a2.14,2.14,0,0,1,.43-.21l0-.05a11.36,11.36,0,0,1,2.61-.66,6.44,6.44,0,0,1,1.91-.08l.43.07.12,0a4,4,0,0,0-1.4-.29,16.41,16.41,0,0,0-2.11.07,8.29,8.29,0,0,0-1.8.43,8,8,0,0,1-.81-3.59,9.25,9.25,0,0,1,.89-4.46,11.37,11.37,0,0,1,2.79-3.45,10.19,10.19,0,0,1,8.21-2.32c2.44.37,5.16,1.88,6.19,4.22a12.09,12.09,0,0,0-2.27.91,6.51,6.51,0,0,0-1.3,1,8.91,8.91,0,0,1,6.25-1.7,10.2,10.2,0,0,1,6.39,2.16,13.66,13.66,0,0,1,4.76,6.33,9.5,9.5,0,0,1,.41,2.29,10.77,10.77,0,0,1,.07,2.47c0,.21,0,.42,0,.63a13.5,13.5,0,0,0,.25-2l.18,0a14.11,14.11,0,0,1,4,.28A11.82,11.82,0,0,1,703,365.9a11.59,11.59,0,0,1,1.73,3.35,6.84,6.84,0,0,1,0,4.38c-.06.17-.11.35-.18.52h0a12.33,12.33,0,0,0-2,.36,1.06,1.06,0,0,0-.69.36h0s0,0,.07,0a3.55,3.55,0,0,1,1.9-.34,10.73,10.73,0,0,1,1.27,0h0a9.38,9.38,0,0,1,2.44.55,7.11,7.11,0,0,1,4.2,4A6.49,6.49,0,0,1,711.32,384.43Z" fill="#fff"/><path d="M670.89,355.22a3,3,0,0,0,.14,1.22,6.78,6.78,0,0,1,2-4.19,8.43,8.43,0,0,1,1.38-1.1,9.8,9.8,0,0,1,.92-.67,12.09,12.09,0,0,1,2.27-.91,6,6,0,0,0-.94-1.46C674.11,348.43,671.24,351.56,670.89,355.22Z" fill="#bce8e5" opacity="0.3"/><path d="M660.34,359.17a8.29,8.29,0,0,1,1.8-.43,16.41,16.41,0,0,1,2.11-.07,4.25,4.25,0,0,1,1.13.2,13.2,13.2,0,0,1,3.71,1.08,14.06,14.06,0,0,1,3.66,2.24c-2.27-3.78-7.36-6.11-11.5-4.5-.13,0-.31,0-.37-.11a11.8,11.8,0,0,1-.56-6.25,9.55,9.55,0,0,0-.79,4.25A8,8,0,0,0,660.34,359.17Z" fill="#bce8e5" opacity="0.3"/><path d="M711.66,379.1a7.11,7.11,0,0,0-4.2-4,9.38,9.38,0,0,0-2.44-.55h0a10.73,10.73,0,0,0-1.27,0,3.55,3.55,0,0,0-1.9.34s-.05,0-.07,0h0a1.06,1.06,0,0,1,.69-.36,12.33,12.33,0,0,1,2-.36h0a5.44,5.44,0,0,0,.19-.52,6.84,6.84,0,0,0,0-4.38,10.29,10.29,0,0,0-7.18-7c2.27,1.58,4.1,3.64,4.06,6.69a13.44,13.44,0,0,1-1.83,6.75l1.29-.13c1.85-.15,3.8-.36,5.55.38a2.54,2.54,0,0,1,1.4,3.36,7.65,7.65,0,0,1-4.36,4.47c-4,1.66-8.62,1.27-12.6-.21a15.32,15.32,0,0,1-7-4.84,11.82,11.82,0,0,1-10.77,6.61c-5.53-.1-11.63-3.79-13.21-9.26a12.07,12.07,0,0,0,1.08,5,.27.27,0,0,1-.1.36c-4.05,2.36-12.3,4.71-17,2.53-2.55-1.17-3.67-3.51-4.63-6.35a14.21,14.21,0,0,0,.73,6.2c.06.19-.61.27-.76.28-3.35.27-7.37-.25-9.72-2.92a7.33,7.33,0,0,1-1.79-4.81,8.2,8.2,0,0,0,5.29,10.6,10.85,10.85,0,0,0,5.57-.08,20.22,20.22,0,0,0,3-1,11.25,11.25,0,0,1-1-2.19,10.36,10.36,0,0,0,1.69,2.41h0a9.31,9.31,0,0,0,2,1.77,18,18,0,0,0,7.82,2.85,16.49,16.49,0,0,0,7.93-1.24,17.24,17.24,0,0,0,3.32-1.61,7.16,7.16,0,0,1-1-1.41,8.56,8.56,0,0,1-.4-.88,8.42,8.42,0,0,1,1.15,1.63,8,8,0,0,0,2.14,1.91,11.62,11.62,0,0,0,4.36,1.66,12.49,12.49,0,0,0,3.29.44,20.13,20.13,0,0,0,4-.49,17.51,17.51,0,0,0,3.62-1.07,16.37,16.37,0,0,0,2.14-1.17l.34-.19c.94-.54,1.86-1.13,2.76-1.73.24-.16.49-.32.73-.5-.19.2-.38.4-.57.62a17.62,17.62,0,0,0,2,1.27,22.43,22.43,0,0,0,6.52,2.16c4.18.74,8.74.45,12.44-1.82a11.54,11.54,0,0,0,4.31-3.92A6.49,6.49,0,0,0,711.66,379.1Z" fill="#bce8e5" opacity="0.5"/><path d="M660.12,359.84l-.07,0,.08,0A0,0,0,0,1,660.12,359.84Z" fill="#fff"/><path d="M830.57,269.51a18.86,18.86,0,0,0-5.18-.69c.06-.15.13-.3.2-.44a14.8,14.8,0,0,0,.69-8.91,23.87,23.87,0,0,0-4-8c-3.47-4.38-8.84-6.94-14.23-7.9a29.37,29.37,0,0,0-8.58-.06,27.07,27.07,0,0,0-.59-6.48c-1.18-5.66-5.41-10.71-9.91-14.15-4.75-3.61-10.72-4.36-16.48-3.34-.59.11-1.17.26-1.77.41-1.86-4.7-7-7.63-11.78-8.8a21.42,21.42,0,0,0-9.85.08,21,21,0,0,0-8.09,4.17,23.69,23.69,0,0,0-5.77,7.16c-1.61,2.89-2,6.34-2,9.59a14.56,14.56,0,0,0,2.08,7.32,8.9,8.9,0,0,0-2,1.22,12.94,12.94,0,0,0-4.23,6,19.68,19.68,0,0,0-2.25-.94,26.7,26.7,0,0,0-9-1.26,22.17,22.17,0,0,0-8.61,2.28c-5.46,2.51-10.71,5.44-13.7,10.91a17.19,17.19,0,0,0-1.65,4.68c-.51-.15-1-.29-1.5-.41a19.81,19.81,0,0,0-11.48.56c-6.67,2.36-11.24,9.55-11.87,16.41-.76,7.94,4.76,15.17,12.15,17.42a20.71,20.71,0,0,0,11.8-.29,31.07,31.07,0,0,0,6.87-2.92,22.92,22.92,0,0,0,3.75,4.18c4.55,4,10.57,5.88,16.47,6.62a23.46,23.46,0,0,0,8.31-.49c1.38-.32,2.76-.47,4.15-.86a34.6,34.6,0,0,0,4.23-1.65,25.28,25.28,0,0,0,6.51-3.85,19.46,19.46,0,0,0,2.16,2A25.11,25.11,0,0,0,760,304.8,37.75,37.75,0,0,0,776.13,302a30.3,30.3,0,0,0,9.77-6.68,37.44,37.44,0,0,0,15.15,7.12,46,46,0,0,0,12.8,1.38,35.5,35.5,0,0,0,12.2-2.61c6.57-2.7,13.82-8.07,15.14-15.47S837.68,271.51,830.57,269.51Z" fill="#fff"/><path d="M837.6,289.28c-1.79,3.37-5.39,5.85-8.57,7.8-7.35,4.5-16.4,5.08-24.71,3.61a44.67,44.67,0,0,1-13-4.29,32.91,32.91,0,0,1-4.06-2.53l1.12-1.23c-.48.36-1,.68-1.43,1-1.79,1.19-3.63,2.38-5.49,3.45-.22.11-.46.24-.67.37a35.08,35.08,0,0,1-4.26,2.33,36.37,36.37,0,0,1-7.2,2.13,39,39,0,0,1-7.85,1A25.14,25.14,0,0,1,755,302a23.9,23.9,0,0,1-8.66-3.29,16.45,16.45,0,0,1-4.25-3.81,17.5,17.5,0,0,0-2.28-3.24c.23.58.48,1.16.78,1.75a16.16,16.16,0,0,0,1.92,2.8,33.54,33.54,0,0,1-6.61,3.19,32.64,32.64,0,0,1-15.75,2.47,35.93,35.93,0,0,1-15.55-5.66,18.88,18.88,0,0,1-4-3.52l0,0a20.34,20.34,0,0,1-3.35-4.79,22,22,0,0,0,2,4.36,43.8,43.8,0,0,1-6,2,21.39,21.39,0,0,1-11.06.17,15.89,15.89,0,0,1-11.46-15.31,17.52,17.52,0,0,1,10.31-16,19,19,0,0,1,11.21-.78c.51.12,1.05.26,1.53.41a17.88,17.88,0,0,0-.26,2.23,15.42,15.42,0,0,0,.2,2.35,20.89,20.89,0,0,0,1,3.09,18.83,18.83,0,0,1,1.1-8.55,13.76,13.76,0,0,1,.62-1.4,19,19,0,0,1,1-2.05c2.67-4.9,7.54-7.4,12.3-9.81a23.8,23.8,0,0,1,16.31-2,18.82,18.82,0,0,1,2.87.92,9.22,9.22,0,0,0,1.09,7,11.4,11.4,0,0,1,1.15-9,15.1,15.1,0,0,1,3.58-4.36,5.6,5.6,0,0,1,1.15-.79s0,0,0,.06l.07,0a5.57,5.57,0,0,1,.85-.41s0-.05,0-.09a22.09,22.09,0,0,1,5.19-1.31,12.36,12.36,0,0,1,3.79-.16,7,7,0,0,1,.86.14.86.86,0,0,0,.24,0,8.62,8.62,0,0,0-2.78-.57,30.82,30.82,0,0,0-4.2.14,16.55,16.55,0,0,0-3.58.86,16.5,16.5,0,0,1-1.61-7.14,18.49,18.49,0,0,1,1.78-8.87,22.91,22.91,0,0,1,5.53-6.85,20.25,20.25,0,0,1,16.32-4.6c4.86.73,10.26,3.73,12.3,8.39a23,23,0,0,0-4.5,1.8,13.15,13.15,0,0,0-2.58,2.08A17.76,17.76,0,0,1,776,220.52a20.29,20.29,0,0,1,12.69,4.31c4.07,3.22,7.93,7.53,9.46,12.56a19.44,19.44,0,0,1,.82,4.56,22.36,22.36,0,0,1,.14,4.9c0,.43-.06.84-.08,1.26a28.18,28.18,0,0,0,.49-4l.36,0a27.2,27.2,0,0,1,7.95.54,23.53,23.53,0,0,1,13.2,7.81,23,23,0,0,1,3.43,6.66,13.44,13.44,0,0,1-.11,8.7c-.11.33-.21.7-.35,1h-.08a23.31,23.31,0,0,0-4,.73,2.16,2.16,0,0,0-1.38.71h.1a.29.29,0,0,1,.14,0,7.17,7.17,0,0,1,3.79-.68,21.2,21.2,0,0,1,2.52.05h0a18.48,18.48,0,0,1,4.86,1.08,14.23,14.23,0,0,1,8.35,8A12.87,12.87,0,0,1,837.6,289.28Z" fill="#fff"/><path d="M757.27,231.24a5.32,5.32,0,0,0,.28,2.42c0-2.95,2-6.37,4-8.33a91.21,91.21,0,0,1,4.58-3.51,23,23,0,0,1,4.5-1.8,10.9,10.9,0,0,0-1.87-2.9C763.66,217.74,758,224,757.27,231.24Z" fill="#bce8e5" opacity="0.3"/><path d="M736.29,239.09a16.55,16.55,0,0,1,3.58-.86,30.82,30.82,0,0,1,4.2-.14,8.5,8.5,0,0,1,2.25.4,26.31,26.31,0,0,1,7.36,2.15,28.24,28.24,0,0,1,7.29,4.45c-4.53-7.5-14.64-12.16-22.87-9a.54.54,0,0,1-.72-.22,23.26,23.26,0,0,1-1.12-12.41,19.12,19.12,0,0,0-1.58,8.44A16.5,16.5,0,0,0,736.29,239.09Z" fill="#bce8e5" opacity="0.3"/><path d="M838.29,278.7a14.23,14.23,0,0,0-8.35-8,18.48,18.48,0,0,0-4.86-1.08h0a21.2,21.2,0,0,0-2.52-.05,7.17,7.17,0,0,0-3.79.68.29.29,0,0,0-.14,0h-.1a2.16,2.16,0,0,1,1.38-.71,23.31,23.31,0,0,1,4-.73h0a7.73,7.73,0,0,0,.38-1,13.44,13.44,0,0,0,.11-8.7,20.38,20.38,0,0,0-14.27-13.85c4.51,3.14,8.15,7.23,8.08,13.29A27,27,0,0,1,814.57,272c.85-.1,1.71-.2,2.57-.26,3.67-.3,7.56-.73,11,.74a5.09,5.09,0,0,1,2.79,6.7,15.22,15.22,0,0,1-8.68,8.86c-7.94,3.31-17.12,2.53-25-.39-5.35-2-10.6-5.11-14-9.63-4.18,7.84-11.77,13.32-21.41,13.14-11-.21-23.11-7.54-26.26-18.41a24,24,0,0,0,2.17,10,.54.54,0,0,1-.21.71c-8.06,4.7-24.44,9.36-33.7,5-5-2.34-7.28-7-9.19-12.64a28.22,28.22,0,0,0,1.46,12.33c.11.37-1.21.54-1.52.55-6.65.54-14.64-.49-19.31-5.79a14.57,14.57,0,0,1-3.55-9.56,15.67,15.67,0,0,0-1,5.76,15.89,15.89,0,0,0,11.46,15.31,21.39,21.39,0,0,0,11.06-.17,43.8,43.8,0,0,0,6-2,22,22,0,0,1-2-4.36,20.34,20.34,0,0,0,3.35,4.79v0a18.58,18.58,0,0,0,4,3.52,35.93,35.93,0,0,0,15.55,5.66,32.64,32.64,0,0,0,15.75-2.47,33.54,33.54,0,0,0,6.61-3.19,16.16,16.16,0,0,1-1.92-2.8c-.3-.59-.55-1.17-.78-1.75a17.5,17.5,0,0,1,2.28,3.24,16.45,16.45,0,0,0,4.25,3.81A23.9,23.9,0,0,0,755,302a25.14,25.14,0,0,0,6.54.86,39,39,0,0,0,7.85-1,36.37,36.37,0,0,0,7.2-2.13,35.08,35.08,0,0,0,4.26-2.33c.21-.13.45-.26.67-.37,1.86-1.07,3.7-2.26,5.49-3.45.46-.31.95-.63,1.43-1l-1.12,1.23a32.91,32.91,0,0,0,4.06,2.53,44.67,44.67,0,0,0,13,4.29c8.31,1.47,17.36.89,24.71-3.61,3.18-1.95,6.78-4.43,8.57-7.8A12.87,12.87,0,0,0,838.29,278.7Z" fill="#cce9f7"/><path d="M735.85,240.43l-.13.06.15,0Z" fill="#fff"/><path d="M208.89,314a15.16,15.16,0,0,0-4-.54l.16-.35a11.41,11.41,0,0,0,.53-6.9,18.46,18.46,0,0,0-3.09-6.19,18,18,0,0,0-11-6.13,22.46,22.46,0,0,0-6.65,0,22.41,22.41,0,0,0-.45-5c-.93-4.38-4.22-8.3-7.7-11-3.67-2.81-8.32-3.38-12.78-2.59-.46.08-.93.2-1.39.32-1.45-3.66-5.45-5.93-9.14-6.83a16.44,16.44,0,0,0-7.64.06,16.15,16.15,0,0,0-6.26,3.24,18.12,18.12,0,0,0-4.49,5.54,15.68,15.68,0,0,0-1.58,7.45,11,11,0,0,0,1.63,5.67,7.81,7.81,0,0,0-1.53.95,10,10,0,0,0-3.28,4.66,14.94,14.94,0,0,0-1.75-.72,20.41,20.41,0,0,0-7-1,17.47,17.47,0,0,0-6.69,1.78c-4.23,1.94-8.3,4.21-10.62,8.46a13.3,13.3,0,0,0-1.28,3.64c-.4-.12-.78-.23-1.16-.32a15.42,15.42,0,0,0-8.92.43C87.59,310.4,84,316,83.55,321.32c-.57,6.15,3.7,11.77,9.44,13.51a16.11,16.11,0,0,0,9.15-.22,24.85,24.85,0,0,0,5.33-2.27,17.61,17.61,0,0,0,2.9,3.24c3.55,3.09,8.21,4.56,12.79,5.13a18.12,18.12,0,0,0,6.44-.37c1.08-.25,2.15-.36,3.23-.68a26.75,26.75,0,0,0,3.28-1.27,19.4,19.4,0,0,0,5-3,16.52,16.52,0,0,0,1.69,1.56,19.49,19.49,0,0,0,11.28,4.41,29,29,0,0,0,12.53-2.19,23.15,23.15,0,0,0,7.58-5.18A29.35,29.35,0,0,0,186,339.54a36.92,36.92,0,0,0,9.93,1,27.79,27.79,0,0,0,9.48-2c5.09-2.1,10.72-6.26,11.74-12A11.15,11.15,0,0,0,208.89,314Z" fill="#fff"/><path d="M214.35,329.32c-1.39,2.62-4.18,4.54-6.64,6.06-5.73,3.49-12.74,3.95-19.19,2.8a34.61,34.61,0,0,1-10.06-3.33,25.21,25.21,0,0,1-3.15-2l.86-1c-.36.29-.75.54-1.1.78-1.4.91-2.82,1.83-4.26,2.66-.17.1-.36.19-.53.31a26.14,26.14,0,0,1-3.3,1.78,28,28,0,0,1-5.58,1.66,30.2,30.2,0,0,1-6.09.76,19.63,19.63,0,0,1-5.08-.68,18.3,18.3,0,0,1-6.72-2.55,12.7,12.7,0,0,1-3.29-2.95,14.57,14.57,0,0,0-1.78-2.53,11.11,11.11,0,0,0,.62,1.37,11.64,11.64,0,0,0,1.48,2.18,26.62,26.62,0,0,1-5.13,2.47,25.42,25.42,0,0,1-12.23,1.92,28.1,28.1,0,0,1-12.05-4.39A15.24,15.24,0,0,1,108,332s0,0,0,0a16.1,16.1,0,0,1-2.6-3.73,17.79,17.79,0,0,0,1.59,3.39,33.2,33.2,0,0,1-4.65,1.59,16.57,16.57,0,0,1-8.59.12,12.31,12.31,0,0,1-8.89-11.88,13.6,13.6,0,0,1,8-12.38,14.86,14.86,0,0,1,8.7-.6c.4.09.81.21,1.19.33a15.67,15.67,0,0,0-.2,1.71,14.11,14.11,0,0,0,.15,1.83,18,18,0,0,0,.75,2.4,14.82,14.82,0,0,1,.87-6.64,9.51,9.51,0,0,1,.47-1.08,15.29,15.29,0,0,1,.76-1.58c2.06-3.81,5.84-5.76,9.53-7.63a18.61,18.61,0,0,1,12.66-1.54A15.24,15.24,0,0,1,130,297a7.18,7.18,0,0,0,.85,5.43,8.83,8.83,0,0,1,.89-7A11.88,11.88,0,0,1,134.5,292a4.74,4.74,0,0,1,.9-.61l0,.06a.08.08,0,0,0,0,0c.21-.12.45-.22.67-.32,0,0,0,0,0-.07a18.2,18.2,0,0,1,4-1,10,10,0,0,1,2.94-.12l.66.11.18,0a6.32,6.32,0,0,0-2.15-.46,25.18,25.18,0,0,0-3.26.12,13.64,13.64,0,0,0-2.77.66,12.66,12.66,0,0,1-1.25-5.54,14.24,14.24,0,0,1,1.38-6.87,17.61,17.61,0,0,1,4.3-5.33,15.75,15.75,0,0,1,12.65-3.57c3.77.57,8,2.9,9.53,6.51a18.26,18.26,0,0,0-3.47,1.4,10.06,10.06,0,0,0-2,1.62A13.84,13.84,0,0,1,166.5,276a15.74,15.74,0,0,1,9.85,3.35c3.17,2.5,6.16,5.84,7.35,9.75a15.31,15.31,0,0,1,.63,3.53,17.39,17.39,0,0,1,.11,3.81l-.06,1a21.11,21.11,0,0,0,.38-3.07l.28,0a21.23,21.23,0,0,1,6.16.43,16.07,16.07,0,0,1,12.92,11.23,10.58,10.58,0,0,1-.09,6.74,7,7,0,0,1-.28.81h-.05a16.87,16.87,0,0,0-3.08.56,1.69,1.69,0,0,0-1.08.55h.08s.06,0,.1,0a5.46,5.46,0,0,1,2.95-.53,14.14,14.14,0,0,1,2,0h0a14.45,14.45,0,0,1,3.78.83,11.06,11.06,0,0,1,6.48,6.23A10,10,0,0,1,214.35,329.32Z" fill="#fff"/><path d="M152,284.29a4.47,4.47,0,0,0,.2,1.88,10.55,10.55,0,0,1,3.1-6.46,13.14,13.14,0,0,1,2.14-1.69,11.73,11.73,0,0,1,1.42-1,18.26,18.26,0,0,1,3.47-1.4,7.73,7.73,0,0,0-1.44-2.24C157,273.82,152.56,278.65,152,284.29Z" fill="#bce8e5" opacity="0.3"/><path d="M135.74,290.38a13.64,13.64,0,0,1,2.77-.66,25.18,25.18,0,0,1,3.26-.12,6.43,6.43,0,0,1,1.75.31,21.2,21.2,0,0,1,5.71,1.67,22,22,0,0,1,5.65,3.46c-3.51-5.82-11.36-9.43-17.74-7-.19.07-.47.07-.56-.17a18.1,18.1,0,0,1-.86-9.62,14.69,14.69,0,0,0-1.23,6.54A12.66,12.66,0,0,0,135.74,290.38Z" fill="#bce8e5" opacity="0.3"/><path d="M214.88,321.12a11.06,11.06,0,0,0-6.48-6.23,14.45,14.45,0,0,0-3.78-.83h0a14.14,14.14,0,0,0-2,0,5.46,5.46,0,0,0-2.95.53s-.07,0-.1,0h-.08a1.69,1.69,0,0,1,1.08-.55,16.87,16.87,0,0,1,3.08-.56h0a5.57,5.57,0,0,0,.29-.81,10.58,10.58,0,0,0,.09-6.74,18.32,18.32,0,0,0-2.67-5.18,18,18,0,0,0-8.41-5.57c3.51,2.45,6.32,5.6,6.27,10.31a21,21,0,0,1-2.83,10.41l2-.2c2.85-.22,5.87-.56,8.56.58a4,4,0,0,1,2.16,5.19,11.82,11.82,0,0,1-6.73,6.88c-6.15,2.57-13.28,2-19.43-.31-4.16-1.53-8.23-4-10.87-7.46-3.24,6.08-9.13,10.33-16.61,10.19-8.53-.16-17.92-5.85-20.37-14.28a18.46,18.46,0,0,0,1.68,7.77.42.42,0,0,1-.17.56c-6.24,3.64-19,7.25-26.14,3.9-3.92-1.81-5.65-5.41-7.13-9.79a21.84,21.84,0,0,0,1.13,9.56c.08.28-.94.4-1.18.42-5.16.41-11.35-.39-15-4.49A11.29,11.29,0,0,1,85.64,317a12.6,12.6,0,0,0,8.14,16.33,16.57,16.57,0,0,0,8.59-.12,33.2,33.2,0,0,0,4.65-1.59,17.79,17.79,0,0,1-1.59-3.39A16.1,16.1,0,0,0,108,332v0a15.17,15.17,0,0,0,3.1,2.73,28.1,28.1,0,0,0,12.05,4.39,25.42,25.42,0,0,0,12.23-1.92,26.62,26.62,0,0,0,5.13-2.47,11.64,11.64,0,0,1-1.48-2.18,11.11,11.11,0,0,1-.62-1.37,14.57,14.57,0,0,1,1.78,2.53,12.7,12.7,0,0,0,3.29,2.95,18.3,18.3,0,0,0,6.72,2.55,19.63,19.63,0,0,0,5.08.68,30.2,30.2,0,0,0,6.09-.76,28,28,0,0,0,5.58-1.66,26.14,26.14,0,0,0,3.3-1.78c.17-.12.36-.21.53-.31,1.44-.83,2.86-1.75,4.26-2.66.35-.24.74-.49,1.1-.78l-.86,1a25.21,25.21,0,0,0,3.15,2,34.61,34.61,0,0,0,10.06,3.33c6.45,1.15,13.46.69,19.19-2.8,2.46-1.52,5.25-3.44,6.64-6.06A10,10,0,0,0,214.88,321.12Z" fill="#cce9f7"/><path d="M135.4,291.42l-.11.06.12,0Z" fill="#fff"/><path d="M440,471.69c-2.53-6.74-8.14-11.35-14.42-14.41a28.16,28.16,0,0,0-6.16-2.14c.24-.59.45-1.19.64-1.76A40.41,40.41,0,0,0,421.75,440a31.58,31.58,0,0,0-3-13c-1.91-3.82-5-6.95-8.16-9.78-6-5.4-14.76-7-22.53-6.14a35.57,35.57,0,0,0-8.29,1.91,25,25,0,0,0-.31-3.1,31.59,31.59,0,0,0-12.4-20,28.35,28.35,0,0,0-11.26-5.09c-4.61-.9-9.46-.29-14,.77-7.6,1.79-14.22,6.92-19.15,12.81a51.81,51.81,0,0,0-10.34,21,50.48,50.48,0,0,0-1.14,15.11c.17,2.68.5,5.37.81,8,0,.17,0,.34,0,.52a19.73,19.73,0,0,0-3-1.78,11,11,0,0,0-6.47-.89l-1.28.2a18.35,18.35,0,0,0-1.37-6.58c-3.44-8.16-13.09-8.6-20.62-6.85a20.52,20.52,0,0,0-3.22-5.45,21.25,21.25,0,0,0-9.73-6.67c-3.89-1.21-8.53,0-12.25,1.26-.21.07-.41.16-.61.24C252.66,403.68,245,391,234,384.53c-13.59-8-31.64-6.24-45.81-.77s-27.62,14.49-35.68,27.52a40,40,0,0,0-5.72,22.06c0,.23,0,.46,0,.7a28.21,28.21,0,0,0-11.4,1.33c-.59.19-1.16.41-1.74.63a20,20,0,0,0-2.15-2.84c-2.87-3-7.69-4.61-11.58-5.63-8.91-2.33-18.45-.09-26.82,3.25-16.51,6.59-29.89,20-38.75,35.18-7.8,13.38-12.57,29.21-11.15,44.78,1.16,12.82,8,29.83,21.74,32.8l-.4.32a10.74,10.74,0,0,0-1.68,1.38c-1.7,2.38,4.5,2.46,5.68,2.47,5.1,0,10.33-.9,15.37-1.66,5.36-.81,10.7-1.69,16.08-2.36,21.85-2.72,43.63-6.08,65.53-8.36,21.55-2.23,43.18-3.62,64.8-4.94,21.87-1.35,43.75-2.71,65.62-4.27,8.63-.62,17.24-1.31,25.88-1.59,8.45-.26,16.91-.26,25.36-.26h25.45c2.5,0,5.06.18,7.58.4.71.5,1.43,1,2.12,1.52,2.13,1.6,3.7,3.67,5.55,5.57a22.54,22.54,0,0,0,2.21,2,7.15,7.15,0,0,1,1.37,2.71c.48,1.36,2.51,1.81,3.71,2.12,3.95,1,7.29-.78,10.76-2.47a49.42,49.42,0,0,0,10.89-7.58,113.38,113.38,0,0,0,9.88-9.85,63.6,63.6,0,0,0,13.77-23.93A36.58,36.58,0,0,0,440,471.69Z" fill="#fff"/><path d="M68.68,548h-.14c-2,0-5.51-.21-6.18-1.53a1.33,1.33,0,0,1,.23-1.46,4.25,4.25,0,0,1,1.12-1c.18-.12.35-.24.5-.36C58.2,542.18,53,537.8,49.07,531a51.55,51.55,0,0,1-6.21-20.23c-1.31-14.38,2.67-30.35,11.2-45,9.7-16.63,23.52-29.17,38.91-35.32,7.14-2.84,13.42-4.23,19.18-4.23a31.21,31.21,0,0,1,7.85,1c3.59.94,8.71,2.56,11.74,5.72a19.17,19.17,0,0,1,2,2.66c.56-.21,1-.39,1.5-.54a29,29,0,0,1,11.15-1.38c0-.11,0-.21,0-.32a40.36,40.36,0,0,1,5.77-22.25c9.28-15,24.62-23.32,35.84-27.65a67.86,67.86,0,0,1,24.11-4.69c8.4,0,15.8,1.84,22,5.48a41.53,41.53,0,0,1,19.67,31.87L254,416c5.3-1.86,9.3-2.24,12.46-1.25a21.56,21.56,0,0,1,9.88,6.76,20.73,20.73,0,0,1,3.18,5.28,30.7,30.7,0,0,1,6.72-.78c4.87,0,11.25,1.37,14,7.9a18.6,18.6,0,0,1,1.39,6.31l.91-.14a11.25,11.25,0,0,1,6.66.92,20.4,20.4,0,0,1,2.43,1.39c-.31-2.57-.62-5.22-.79-7.84A50.83,50.83,0,0,1,312,419.37a52.23,52.23,0,0,1,10.4-21.17c5.63-6.73,12.5-11.32,19.34-12.92a40.68,40.68,0,0,1,9.32-1.22,25.6,25.6,0,0,1,4.81.44,28.6,28.6,0,0,1,11.39,5.15,31.88,31.88,0,0,1,12.53,20.17c.14.87.23,1.77.29,2.7a35.41,35.41,0,0,1,7.95-1.78,36.82,36.82,0,0,1,3.93-.21c7.56,0,14.26,2.29,18.86,6.44,3.12,2.82,6.28,6,8.22,9.88A32,32,0,0,1,422.09,440a41.21,41.21,0,0,1-1.76,13.5c-.17.51-.33,1-.5,1.41a28.48,28.48,0,0,1,5.86,2.08c7.39,3.61,12.3,8.52,14.58,14.59a36.9,36.9,0,0,1,.52,23.33A63.5,63.5,0,0,1,427,519a114.12,114.12,0,0,1-9.91,9.88,49,49,0,0,1-11,7.63l-.5.24c-2.55,1.26-5.2,2.56-8.08,2.56h0a9.3,9.3,0,0,1-2.4-.31l-.18,0c-1.3-.33-3.25-.82-3.76-2.29a7.23,7.23,0,0,0-1.27-2.56,23.9,23.9,0,0,1-2.24-2.08c-.58-.59-1.13-1.21-1.67-1.8a27,27,0,0,0-3.84-3.73c-.62-.47-1.25-.92-1.89-1.37l-.14-.1c-2.23-.19-4.85-.39-7.47-.39H347.18c-8.27,0-16.81,0-25.34.27-7.28.23-14.65.77-21.78,1.28l-4.1.3c-21.48,1.54-42.43,2.84-65.62,4.27-22.94,1.41-43.64,2.75-64.78,4.94-13.84,1.44-27.86,3.34-41.42,5.18-7.9,1.07-16.06,2.18-24.11,3.18-3.94.5-7.93,1.11-11.8,1.71l-4.27.65-2,.3A88.7,88.7,0,0,1,68.68,548ZM112.15,426.9c-5.68,0-11.87,1.38-18.93,4.19-15.25,6.09-29,18.54-38.58,35-8.46,14.5-12.41,30.34-11.11,44.58C44.77,524.4,52,540.4,65,543.22l.68.14-.7.56-.23.19a6.94,6.94,0,0,1-.67.51,3.57,3.57,0,0,0-1,.82c-.34.46-.22.69-.18.77.36.7,2.55,1.16,5.59,1.17h.14A87.79,87.79,0,0,0,81.89,546l2-.3,4.27-.65c3.87-.59,7.87-1.21,11.82-1.71,8-1,16.21-2.11,24.1-3.18,13.57-1.84,27.59-3.74,41.44-5.18,21.15-2.19,41.86-3.54,64.81-5,23.19-1.42,44.13-2.73,65.62-4.26l4.09-.3c7.14-.52,14.52-1.06,21.8-1.29,8.54-.27,17.1-.27,25.37-.27h25.45c2.68,0,5.35.21,7.61.4h.09l.3.21c.64.45,1.28.91,1.9,1.38a29,29,0,0,1,3.93,3.81c.54.59,1.09,1.2,1.66,1.79a25,25,0,0,0,2.17,2,7,7,0,0,1,1.47,2.82c.41,1.17,2.15,1.61,3.31,1.9l.18.05a9,9,0,0,0,2.24.28c2.73,0,5.19-1.21,7.79-2.48l.5-.25a48.21,48.21,0,0,0,10.82-7.53,112.87,112.87,0,0,0,9.86-9.82,63.09,63.09,0,0,0,13.7-23.81,36.36,36.36,0,0,0-.51-22.91c-2.22-5.9-7-10.69-14.25-14.22a27.07,27.07,0,0,0-6.09-2.11l-.38-.09.14-.36c.21-.53.42-1.1.63-1.74A40.5,40.5,0,0,0,421.42,440a31.39,31.39,0,0,0-3-12.86c-1.89-3.81-5-6.9-8.08-9.68-4.47-4-11-6.27-18.41-6.27a35.66,35.66,0,0,0-3.86.21,34.76,34.76,0,0,0-8.22,1.9l-.42.15,0-.45a27,27,0,0,0-.31-3.07,31.2,31.2,0,0,0-12.27-19.75,27.82,27.82,0,0,0-11.12-5,25.05,25.05,0,0,0-4.68-.43,40.48,40.48,0,0,0-9.17,1.2c-6.7,1.58-13.44,6.09-19,12.71a51.35,51.35,0,0,0-10.26,20.9,50.48,50.48,0,0,0-1.14,15c.17,2.61.49,5.27.79,7.84l0,.18c0,.17,0,.35,0,.54l0,.7-.56-.43a20.64,20.64,0,0,0-2.91-1.75,10.68,10.68,0,0,0-6.27-.85l-1.27.2L301,441v-.38a18.19,18.19,0,0,0-1.35-6.46c-2.6-6.19-8.71-7.49-13.38-7.49a30.28,30.28,0,0,0-6.85.83l-.27.06-.11-.26a20.16,20.16,0,0,0-3.18-5.36,20.87,20.87,0,0,0-9.58-6.56c-3-.94-6.88-.56-12,1.25l-.37.14-.66.26,0-.45a40.81,40.81,0,0,0-19.38-31.79c-6.08-3.59-13.37-5.4-21.65-5.4a67.19,67.19,0,0,0-23.87,4.65c-11.13,4.29-26.33,12.53-35.52,27.38a39.76,39.76,0,0,0-5.67,21.88c0,.14,0,.3,0,.45l0,.62-.38,0a28.23,28.23,0,0,0-11.27,1.31c-.51.17-1.06.37-1.71.63l-.25.1-.16-.23a18.42,18.42,0,0,0-2.11-2.79c-2.91-3-7.91-4.62-11.43-5.54A30.32,30.32,0,0,0,112.15,426.9Z" fill="#cbebfb"/><path d="M440,471.69c-2.53-6.74-8.14-11.35-14.42-14.41a28.16,28.16,0,0,0-6.16-2.14c.24-.59.45-1.19.64-1.76A40.41,40.41,0,0,0,421.75,440a31.58,31.58,0,0,0-3-13,22.7,22.7,0,0,0-1.52-2.56,22.15,22.15,0,0,1-4.14,4.69,37,37,0,0,1-16.36,8.55c-6.83,1.48-14.92,1.07-20.55-3.55a16.17,16.17,0,0,1-2.53-2.57c-5.51,8.49-16.86,12.28-26.71,12.49-6.59.14-13.24-1.21-18.76-5-5.91-4-10.58-10.17-11.93-17.28-2.91-15.45,10.1-29.35,23.6-34.65a39.58,39.58,0,0,1,12.7-2.72,38.07,38.07,0,0,0-10.74,1.16c-7.6,1.79-14.22,6.92-19.15,12.81a51.81,51.81,0,0,0-10.34,21,50.48,50.48,0,0,0-1.14,15.11c.17,2.68.5,5.37.81,8,0,.17,0,.34,0,.52-.14-.1-.28-.21-.42-.3,2.18,7.92-.39,17.67-7.85,21.14-6,2.81-14.53,2.33-19.1-3a13.26,13.26,0,0,1-3-10c-9.08,4.21-21.1,2.5-26.77-6.43-5-7.87-6.2-21.1.14-28.42-.3.09-.59.19-.88.3s-.41.16-.61.24C252.66,403.68,245,391,234,384.53a35.54,35.54,0,0,0-3.94-2A59,59,0,0,1,246.21,412c1.33,6.67.75,13.46-.35,20.13-1.22,7.4-3.31,14.94-7.41,21.31a31.49,31.49,0,0,1-16.54,13,37.07,37.07,0,0,1-21.87.53,33.75,33.75,0,0,1-18.2-12.45,29.4,29.4,0,0,1-3.38-6.35,69.52,69.52,0,0,1-19.6,24.8,82.2,82.2,0,0,1-38.39,17.34c-5.7.94-12,1.4-17.48-.61a16.89,16.89,0,0,1-7.13-4.93,51.23,51.23,0,0,1-10.8,16c-5.64,5.79-14,11.81-22.54,10.13-6.06-1.19-10.68-6.13-13.36-11.49-2.54-5.08-3.07-10.72-2.54-16.29a69.18,69.18,0,0,0-3.42,27.62c1.16,12.82,8,29.83,21.74,32.8l-.4.32a10.74,10.74,0,0,0-1.68,1.38c-1.7,2.38,4.5,2.46,5.68,2.47,5.1,0,10.33-.9,15.37-1.66,5.36-.81,10.7-1.69,16.08-2.36,21.85-2.72,43.63-6.08,65.53-8.36,21.55-2.23,43.18-3.62,64.8-4.94,21.87-1.35,43.75-2.71,65.62-4.27,8.63-.62,17.24-1.31,25.88-1.59,8.45-.26,16.91-.26,25.36-.26h25.45c2.5,0,5.06.18,7.58.4.71.5,1.43,1,2.12,1.52,2.13,1.6,3.7,3.67,5.55,5.57a22.54,22.54,0,0,0,2.21,2,7.15,7.15,0,0,1,1.37,2.71c.48,1.36,2.51,1.81,3.71,2.12,3.95,1,7.29-.78,10.76-2.47a49.42,49.42,0,0,0,10.89-7.58,113.38,113.38,0,0,0,9.88-9.85,63.6,63.6,0,0,0,13.77-23.93A36.58,36.58,0,0,0,440,471.69Z" fill="#cce9f7"/><path d="M417,493.36c3.41,9.54,9.36,18,16.47,25.19a125,125,0,0,0,11.36,10.09,53.71,53.71,0,0,0,12.33,7.57c3.87,1.63,7.62,3.37,11.86,2,1.29-.41,3.47-1,3.9-2.54a7.65,7.65,0,0,1,1.33-3,26.78,26.78,0,0,0,2.27-2.37c1.9-2.18,3.48-4.53,5.69-6.4.72-.61,1.47-1.2,2.21-1.8,2.74-.39,5.5-.74,8.22-.9l27.69-1.59c9.2-.52,18.39-1.05,27.6-1.29,9.43-.24,18.84,0,28.26.12,23.89.34,47.78.45,71.67.55,23.6.1,47.21.26,70.8,1.35,24,1.11,47.87,3.41,71.82,5,5.89.39,11.75,1,17.64,1.56,5.53.5,11.26,1.18,16.82.84,1.29-.07,8-.55,6-3a11.11,11.11,0,0,0-1.92-1.4c-.14-.12-.3-.21-.46-.33,14.74-4.08,21.15-23,21.62-37,.58-17-5.6-34-14.92-48-10.59-16-26-29.72-44.35-35.86-9.31-3.11-19.84-5-29.38-1.86-4.17,1.35-9.31,3.4-12.25,6.84a21.89,21.89,0,0,0-2.17,3.22q-.95-.31-1.92-.57a30.89,30.89,0,0,0-12.49-.74c0-.26,0-.52,0-.77a43.58,43.58,0,0,0-7.6-23.64c-9.58-13.67-24.86-22.68-40.53-27.72s-35.51-5.85-49.79,3.69c-11.6,7.74-19.15,22-19.27,36.1l-.68-.23c-4.13-1.18-9.25-2.16-13.41-.6a23.13,23.13,0,0,0-10.16,7.86,22.32,22.32,0,0,0-3.18,6.13c-8.3-1.43-18.77-.35-22,8.74a20.21,20.21,0,0,0-1.08,7.24l-1.41-.13a12,12,0,0,0-7,1.36,21,21,0,0,0-3.11,2.13c0-.2,0-.38,0-.57.18-2.91.36-5.86.38-8.79a54.93,54.93,0,0,0-2.18-16.37,56.53,56.53,0,0,0-12.55-22.24C533.47,375,526,369.87,517.57,368.4c-5-.87-10.31-1.23-15.27,0a30.66,30.66,0,0,0-11.93,6.24,34.38,34.38,0,0,0-12.25,22.48,27.62,27.62,0,0,0-.14,3.4,39,39,0,0,0-9.14-1.57c-8.51-.41-18,1.85-24.14,8.09-3.22,3.27-6.42,6.87-8.25,11.15A34.42,34.42,0,0,0,434,432.56,44.21,44.21,0,0,0,436.69,447c.25.62.51,1.25.8,1.88a30.49,30.49,0,0,0-6.56,2.71c-6.64,3.73-12.46,9.08-14.8,16.57A40,40,0,0,0,417,493.36Z" fill="#fff"/><path d="M465.93,539h0c-2.89,0-5.65-1.16-8.32-2.29l-.56-.23a53.41,53.41,0,0,1-12.4-7.62,124.82,124.82,0,0,1-11.4-10.12c-7.77-7.83-13.34-16.34-16.55-25.3a40.32,40.32,0,0,1-.88-25.4c2.1-6.74,7.13-12.38,14.94-16.77a30.3,30.3,0,0,1,6.27-2.63c-.21-.47-.42-1-.64-1.54a44.79,44.79,0,0,1-2.75-14.56,35,35,0,0,1,2.5-14.48c1.87-4.36,5.11-8,8.33-11.25,5.17-5.23,13.33-8.24,22.4-8.24.66,0,1.32,0,2,.05a39,39,0,0,1,8.79,1.46,28.77,28.77,0,0,1,.15-3,34.67,34.67,0,0,1,12.36-22.71,31,31,0,0,1,12.07-6.3,28.49,28.49,0,0,1,7.12-.84,47.55,47.55,0,0,1,8.28.8c7.53,1.32,15.28,5.88,21.83,12.84a56.87,56.87,0,0,1,12.63,22.38,55.49,55.49,0,0,1,2.2,16.47c0,2.87-.2,5.78-.38,8.61v0a24.89,24.89,0,0,1,2.6-1.71,12.36,12.36,0,0,1,7.17-1.4l1,.1a20.34,20.34,0,0,1,1.11-7c2.17-6.12,8-9.49,16.4-9.49a36.22,36.22,0,0,1,5.69.48,22.49,22.49,0,0,1,3.13-5.95,23.53,23.53,0,0,1,10.32-8,14.3,14.3,0,0,1,5-.83,31.4,31.4,0,0,1,8.58,1.43l.26.08c.28-14.14,7.86-28.2,19.41-35.91,7.29-4.87,16.69-7.44,27.19-7.44a75.6,75.6,0,0,1,22.89,3.71c12.48,4,29.67,12.09,40.7,27.84a43.86,43.86,0,0,1,7.66,23.83,2.41,2.41,0,0,1,0,.38,31.42,31.42,0,0,1,12.25.81c.51.13,1,.29,1.68.49a20.63,20.63,0,0,1,2.07-3c3.09-3.61,8.56-5.69,12.4-6.94a35,35,0,0,1,10.74-1.61,59.48,59.48,0,0,1,18.85,3.48c17.12,5.72,32.93,18.5,44.51,36,10.19,15.37,15.51,32.5,15,48.22-.5,15-7.35,32.82-21.2,37.15a6.69,6.69,0,0,0,.62.4,5,5,0,0,1,1.27,1,1.45,1.45,0,0,1,.34,1.54c-.65,1.46-4.42,1.91-6.61,2-1,.06-2.05.09-3.15.09-3.85,0-7.77-.38-11.56-.74l-2.17-.2-4.68-.45c-4.24-.4-8.63-.83-12.95-1.11-8.81-.59-17.77-1.29-26.43-2-14.86-1.15-30.23-2.35-45.38-3.05-23.13-1.07-45.74-1.24-70.79-1.35-25.31-.1-48.18-.22-71.66-.55l-4.49-.07c-4.78-.07-9.72-.15-14.58-.15-3.33,0-6.34,0-9.18.11-9.29.24-18.59.77-27.59,1.28l-27.69,1.59c-2.86.16-5.7.54-8.11.89l-.21.17c-.64.52-1.29,1-1.92,1.56a30.48,30.48,0,0,0-3.94,4.3c-.55.68-1.12,1.38-1.71,2.07a28.13,28.13,0,0,1-2.3,2.4,7.39,7.39,0,0,0-1.22,2.82c-.47,1.66-2.56,2.32-3.94,2.75l-.19.06A10.26,10.26,0,0,1,465.93,539Zm.94-139.76c-8.89,0-16.88,2.93-21.93,8-3.17,3.22-6.36,6.79-8.19,11.05a34.29,34.29,0,0,0-2.45,14.19,44.23,44.23,0,0,0,2.7,14.34c.28.7.54,1.31.8,1.86l.16.35-.38.11a29.75,29.75,0,0,0-6.49,2.68c-7.67,4.3-12.59,9.82-14.64,16.39a39.62,39.62,0,0,0,.88,25c3.17,8.87,8.69,17.3,16.39,25.06a123.55,123.55,0,0,0,11.34,10.07,53,53,0,0,0,12.25,7.53l.55.23c2.74,1.15,5.31,2.24,8.07,2.24h0a9.91,9.91,0,0,0,3-.47l.19-.06c1.25-.39,3.13-1,3.49-2.25a7.89,7.89,0,0,1,1.42-3.19,24.47,24.47,0,0,0,2.25-2.34c.58-.67,1.15-1.37,1.7-2.05a30.68,30.68,0,0,1,4-4.39l1.93-1.57.36-.28h.09c2.44-.36,5.33-.74,8.25-.91l27.69-1.59c9-.51,18.31-1,27.61-1.29,2.85-.07,5.86-.11,9.2-.11,4.86,0,9.81.08,14.59.16l4.49.06c23.48.34,46.34.45,71.66.56,25,.1,47.67.28,70.81,1.35,15.16.7,30.53,1.89,45.4,3,8.66.68,17.62,1.37,26.42,2,4.34.29,8.73.71,13,1.12l4.69.44,2.17.21c3.77.36,7.67.73,11.49.73,1.08,0,2.13,0,3.11-.09,3.31-.19,5.68-.84,6-1.64,0-.09.16-.35-.25-.86a4.23,4.23,0,0,0-1.1-.83,9.13,9.13,0,0,1-.76-.51,2.61,2.61,0,0,0-.27-.19l-.74-.53.67-.19c14-3.87,20.86-21.75,21.37-36.72.52-15.59-4.76-32.57-14.87-47.83-11.51-17.37-27.19-30.05-44.17-35.73A58.72,58.72,0,0,0,772.22,399a34.34,34.34,0,0,0-10.54,1.57c-3.76,1.23-9.11,3.25-12.09,6.75a21.22,21.22,0,0,0-2.14,3.17l-.14.23-.25-.08c-.73-.24-1.34-.42-1.9-.57a30.85,30.85,0,0,0-12.36-.74l-.37.06v-.65a3.84,3.84,0,0,0,0-.48,43.27,43.27,0,0,0-7.54-23.47c-10.93-15.6-28-23.61-40.36-27.59a75,75,0,0,0-22.69-3.68c-10.37,0-19.65,2.54-26.82,7.33-11.5,7.68-19,21.74-19.12,35.82v.46l-.69-.23-.41-.14a30.85,30.85,0,0,0-8.4-1.4,13.72,13.72,0,0,0-4.8.79,22.79,22.79,0,0,0-10,7.75,21.82,21.82,0,0,0-3.12,6l-.1.28-.27-.06a35.09,35.09,0,0,0-5.86-.51c-10.39,0-14.31,4.92-15.77,9.05a19.78,19.78,0,0,0-1.07,7.12v.38l-.38-.05-1.39-.13a11.77,11.77,0,0,0-6.8,1.32,21.16,21.16,0,0,0-3.05,2.09l-.54.46v-.71c0-.2,0-.4,0-.59v-.19c.17-2.82.35-5.73.37-8.58a54.85,54.85,0,0,0-2.17-16.27A56.21,56.21,0,0,0,539,381.38c-6.45-6.86-14.07-11.35-21.46-12.65a47.18,47.18,0,0,0-8.17-.78,28.22,28.22,0,0,0-7,.81,30.35,30.35,0,0,0-11.8,6.17,34,34,0,0,0-12.13,22.27,28.22,28.22,0,0,0-.14,3.36V401l-.44-.13a38.64,38.64,0,0,0-9.06-1.55C468.18,399.29,467.52,399.28,466.87,399.28Z" fill="#cbebfb"/><path d="M835.31,437.93a102.62,102.62,0,0,0-10.49-13.31,25.49,25.49,0,0,1-.74,9.75c-4,14.6-19.37,24.7-34.35,20.9a34.79,34.79,0,0,1-18.65-12.53,36.87,36.87,0,0,1-4.64,12.79,32.69,32.69,0,0,1-13.1,12.76,34.44,34.44,0,0,1-19.73,3.19c-14.16-1.83-26.53-13.22-26.44-28.09.05-8.15,3.5-15.91,8.64-22.14a44.47,44.47,0,0,1,9.52-8.75,40.1,40.1,0,0,1,6.28-3.48c.38-.17.76-.31,1.14-.46v-.37a43.58,43.58,0,0,0-7.6-23.64c-9.58-13.67-24.86-22.68-40.53-27.72a75.44,75.44,0,0,0-23-3.68,46.17,46.17,0,0,1,17.81,4.91c10.56,5.41,19.28,15.23,20.46,27.41C701.43,400.75,692,415,678.76,422c-7.17,3.76-15.33,5.67-23.38,4-6.3-1.27-11.91-4.32-17.07-8a26.38,26.38,0,0,1,2.27,6.12c2.12,9.11.24,19.44-5.85,26.69-7.22,8.6-20.82,12.53-30.08,4.78-5-4.22-8.25-10.4-9.82-17-.48.88-1,1.72-1.53,2.53-4.17,6.27-10.45,11.41-18.12,12.48a19,19,0,0,1-19.41-9.4,21.56,21.56,0,0,1-1.92-15.31l-.3.25c0-.2,0-.38,0-.57.18-2.91.36-5.86.38-8.79a54.93,54.93,0,0,0-2.18-16.37c-.23-.74-.47-1.47-.72-2.2a38.71,38.71,0,0,1-3.89,20.49c-6.81,13.7-21.53,23.74-37.21,21.29a36.65,36.65,0,0,1-21.11-11.1,24.2,24.2,0,0,1-5.31-8.18,12.29,12.29,0,0,1-.84,1.24c-2.78,3.61-7.22,5.74-11.52,6.94a42.52,42.52,0,0,1-15.8,1.27c-4.58-.49-9.46-1.59-13.3-4.26a12,12,0,0,1-5.24-11.43c-.13.26-.26.52-.37.78A34.42,34.42,0,0,0,434,432.56,44.21,44.21,0,0,0,436.69,447c.25.62.51,1.25.8,1.88a30.49,30.49,0,0,0-6.56,2.71c-6.64,3.73-12.46,9.08-14.8,16.57a40,40,0,0,0,.89,25.19c3.41,9.54,9.36,18,16.47,25.19a125,125,0,0,0,11.36,10.09,53.71,53.71,0,0,0,12.33,7.57c3.87,1.63,7.62,3.37,11.86,2,1.29-.41,3.47-1,3.9-2.54a7.65,7.65,0,0,1,1.33-3,26.78,26.78,0,0,0,2.27-2.37c1.9-2.18,3.48-4.53,5.69-6.4.72-.61,1.47-1.2,2.21-1.8,2.74-.39,5.5-.74,8.22-.9l27.69-1.59c9.2-.52,18.39-1.05,27.6-1.29,9.43-.24,18.84,0,28.26.12,23.89.34,47.78.45,71.67.55,23.6.1,47.21.26,70.8,1.35,24,1.11,47.87,3.41,71.82,5,5.89.39,11.75,1,17.64,1.56,5.53.5,11.26,1.18,16.82.84,1.29-.07,8-.55,6-3a11.11,11.11,0,0,0-1.92-1.4c-.14-.12-.3-.21-.46-.33,14.74-4.08,21.15-23,21.62-37C850.81,468.92,844.63,452,835.31,437.93Z" fill="#cce9f7"/><path d="M47.56,524.9a.39.39,0,0,0,.38,0l.07,0c3.81.95,7.83,1.49,11.8,2.12.84-.43,1.66-.87,2.48-1.34a125.07,125.07,0,0,0,16.86-12c10.43-8.55,20-18.09,29.59-27.55,6.37-6.26,12.82-12.43,19.11-18.76s12.39-12.45,19.16-18a91.65,91.65,0,0,1,20.58-13.25,54.08,54.08,0,0,1,8.49-3.1c-1.67.12-3.33.28-5,.5-29.16,3.85-98.67,70.81-120.72,88.33l-1.3.95a4.37,4.37,0,0,0-.87.65l-.34-.23c-.43-.27-1.59.7-1.16,1Z" fill="#458c45" style="mix-blend-mode:screen"/><path d="M853.61,530.7c-4.75-10.11-64.35-13.3-76.51-14.31-28.32-2.37-56.68-6.8-85.17-4.78-12.84.92-25.67,2.39-38.49,3.65-39.76,3.9-79.53,7.78-119.35,11-18.62,1.53-157.54-2.81-207.73-10.93-20.45-3.31-40.84-5.87-61.49-7.5-22.32-1.75-44.4-2.81-66.8-2.46-19.4.3-39,3.13-58.29,5.42-22.75,2.71-45.51,5.55-68.3,7.85-11.18,1.14-22.38,2.57-33.25,5.48-6.36,1.7-25.45,5.9-26.25,14.42-1.09,11.72,28.6,13.5,36.29,15,15.27,3,30.91,4.53,46.41,5.69,7.59.57,15.17,1.13,22.77,1.42,3.85.15,7.69.15,11.54.21,1.9,0,3.79.19,5.69.37-1.44.35-2.87.72-4.32,1.05a92.9,92.9,0,0,0-13.11,4.27c-4.44,1.75-8.59,4.17-13,6.09-2.83,1.24-6,2.2-8.13,4.6-9.44,10.68,27.65,17.36,32.22,18.14a356.1,356.1,0,0,0,65.54,4.73c21.64-.31,43.32-.88,64.92-2.08,22-1.21,44-2.75,66-3.9,43.87-2.3,87.79-1.9,131.63-5.09l.68,0q-2.94.88-5.86,1.82c-5,1.62-10.58,3.55-14.89,6.64-3.64,2.62-5.24,6.7-1.68,10.08s10.33,4.65,15.19,5.38c9.26,1.38,18.71,1.49,28.06,1.53q15,.07,30-.24c64.42-1.26,134.34,5.61,198.33-2.06,31.24-3.75,126.4-.94,131.09-33.71,1-6.82-24.68-16.26-28.21-17.16-8.48-2.18-17.28-3-26-3.75-9.27-.76-18.53-1.66-27.81-2.37,6.35-1.06,12.67-2.24,19.05-3,9.44-1.15,18.7-3.33,28.1-4.62C811.79,546.31,857.13,538.19,853.61,530.7Z" fill="#48bb76"/><path d="M802.57,547.57c9.22-1.26,54.56-9.38,51-16.87-1.2-2.56-5.91-4.67-12.47-6.42a5.41,5.41,0,0,1,2.52,3.06c.32,1.82-1.26,3.1-2.7,3.88a59.1,59.1,0,0,1-10.91,4.07c-18.41,5.71-37.61,7.86-56.46,11.6-10,2-19.89,4.28-29.9,6.13a43.94,43.94,0,0,0-6,1.32c-1.51.51-3,1-4.55,1.45-.22.07-.46.13-.7.19,6.65.74,13.33,1.2,20,2.15a178.37,178.37,0,0,1,25.3,5.63c4.34,1.29,8.64,2.7,12.88,4.27,3.35,1.25,6.61,2.72,10,3.92,3,1.09,9.64,2.81,9.69,7,0,2.23-1.63,3.81-3.36,5a38.52,38.52,0,0,1-8.23,4c-2.62,1-5.29,1.81-8,2.58-4.28,1.23-8.45,2.75-12.78,3.84a217.08,217.08,0,0,1-28,5c-5,.6-10,1.18-15,2.11a108,108,0,0,1-11,1.62c-29.84,5-60.25,6.31-90.47,6.25-19.63-.05-39.25-.65-58.87-1.19-10-.28-20-.67-30-1.09l-4.5-.16q-19.33,1.59-38.75,1.67c-10.16,0-20.36-.06-30.5-.69a82.56,82.56,0,0,1-14.19-1.87c-2.85-.7-6.15-1.31-8.66-2.9-5.05-3.16,1.09-7.14,4.14-8.72,2.09-1.09,4.25-2,6.44-2.89a81.74,81.74,0,0,1,11.84-3.44c-3-.76-6.26-.13-9.28.18a.31.31,0,0,1-.16-.58c4.13-1.81,8.56-3.75,13.11-4.61-10.09-1.87-20.69-1.22-30.86-1.51-19-.54-38-1.13-57-.13-7.6.66-15.21,1.18-22.82,1.63-4,.31-8.06.61-12.09.86-8,.51-16.21,2.6-24.21,1.25-9.83.66-19.63,1.42-29.43,2.44-2.39.24-4.79.49-7.19.72a.28.28,0,0,1-.12,0l-.92.07c-7.31.7-14.63,1.28-22,1.39a.33.33,0,0,1-.14,0c-11,.56-22,1-33,1.31-20.38.64-40.76,1.36-61.15.45-10.05-.45-20-1.38-30-2.35-8.6-.84-17.61-1.55-25.75-4.62-2.07-.78-5.34-2.06-5.67-4.64-.28-2.26,1.34-4,3.08-5.26a35.23,35.23,0,0,1,7.62-3.74,114.17,114.17,0,0,1,10.91-3.9c12.56-3.5,25.52-3.81,38.47-4.07-9.17-1.58-18.42-3-27.72-1.86-.36,0-.4-.51-.08-.61,2.38-.78,4.9-1.87,7.46-2.69-1.7-.11-3.4-.23-5.09-.24a.31.31,0,0,1-.08-.61,96.6,96.6,0,0,0,12.16-3.52c-2.89-.27-5.85.46-8.73.64-3.81.23-7.62.4-11.44.49-7.69.19-15.38.1-23.06-.14-15-.48-30-1.81-44.9-3.66a228.43,228.43,0,0,1-28.58-5.13c-5.35-1.38-11.67-2.67-16.31-5.85-1.57-1.08-3.24-2.6-3.41-4.64-.22-2.74,1.93-5.15,3.8-6.91l.63-.55c-6.93,2.39-14,6-14.44,11-1.09,11.72,28.6,13.5,36.29,15,15.27,3,30.91,4.53,46.41,5.69,7.59.57,15.17,1.13,22.77,1.42,3.85.15,7.69.15,11.54.21,1.9,0,3.79.19,5.69.37-1.44.35-2.87.72-4.32,1.05a92.9,92.9,0,0,0-13.11,4.27c-4.44,1.75-8.59,4.17-13,6.09-2.83,1.24-6,2.2-8.13,4.6-9.44,10.68,27.65,17.36,32.22,18.14a356.1,356.1,0,0,0,65.54,4.73c21.64-.31,43.32-.88,64.92-2.08,22-1.21,44-2.75,66-3.9,43.87-2.3,87.79-1.9,131.63-5.09l.68,0q-2.94.88-5.86,1.82c-5,1.62-10.58,3.55-14.89,6.64-3.64,2.62-5.24,6.7-1.68,10.08s10.33,4.65,15.19,5.38c9.26,1.38,18.71,1.49,28.06,1.53q15,.07,30-.24c64.42-1.26,134.34,5.61,198.33-2.06,31.24-3.75,126.4-.94,131.09-33.71,1-6.82-24.68-16.26-28.21-17.16-8.48-2.18-17.28-3-26-3.75-9.27-.76-18.53-1.66-27.81-2.37,6.35-1.06,12.67-2.24,19.05-3C783.91,551,793.17,548.86,802.57,547.57Z" fill="#80c466" opacity="0.4" style="mix-blend-mode:multiply"/><path d="M39.76,523.78a16.06,16.06,0,0,0-4.25,3.9c-3.37,4.65.25,9,4.91,10.67,7.48,2.69,16,2.59,23.85,2.43,6.63-.12,13.23-.66,19.85-.83,14.82-.35,29.63-.93,44.44-1.47s29.62-1.07,44.44-1.3c6.19-.1,12.42.11,18.6-.21,4.25-.23,57.32,2.47,29.82,13.24-6.7,2.64-13.44,5-19.61,8.87-3.13,1.94-8.16,5.41-6.82,9.8,1.14,3.72,5,5.83,8.39,7.18,8.18,3.25,17.25,4.25,26,5,9.81.86,19.67,1.57,29.51,1.9,14.62.5,29.25.3,43.87-.24s29.21-1.17,43.77-2.41q21.58-1.83,43-5c10-1.46,20.2-2.51,29.81-5.75,4.56-1.54,9.33-3.56,12.83-7,2.05-2,3.77-4.83,2.05-7.61-1.58-2.55-4.43-4.18-7.06-5.46a71.88,71.88,0,0,0-10.44-4c-21-6.47-42.69-9.89-64.22-14.18-.4-.08-.23-.66.16-.6,31.47,5,62.56-1.09,93.67-6.17-44.46-1.89-94-5.07-119.94-9.26-20.45-3.31-40.84-5.87-61.49-7.5-22.32-1.75-44.4-2.81-66.8-2.46-19.4.3-39,3.13-58.29,5.42-22.75,2.71-45.51,5.55-68.3,7.85A217.61,217.61,0,0,0,39.76,523.78Z" fill="#96d6b2"/><path d="M504.41,534.35c6.68,1.44,13.25,3.29,20,4.57,7.47,1.42,15,2.66,22.2,5.21a.31.31,0,0,1-.09.61c-9-.2-17.91,2.58-26.19,5.94a215.5,215.5,0,0,0-20.62,9.61c-6.6,3.54-13.65,7.78-18.12,13.94-3.41,4.69-5.24,11.43-.87,16.13,3.57,3.84,9,5.58,14,6.74a112.83,112.83,0,0,0,18.77,2.46c5.29.31,10.58.4,15.87.56,8.53.26,17,1.07,25.57,1.45,23.26,1,46.55,1.07,69.82.62,22.37-.43,44.74-.62,67-2.35,11.29-.88,22.57-2.07,33.76-3.82,5.46-.85,10.91-1.81,16.32-2.92,4.51-.93,8.95-2.12,13.46-3.07a40.39,40.39,0,0,0,8.46-2.29c2.22-1,5.58-3.62,2.83-6-2.33-2-5.61-3-8.51-3.89-2.62-.8-5.28-1.43-7.94-2.11-4.88-1.25-9.72-2.67-14.64-3.8-5.55-1.26-11.13-2.39-16.73-3.45-11.14-2.13-22.33-4.07-33.38-6.66a.31.31,0,0,1,0-.6c10.21-3.16,21-3.66,31.48-5.78q17-3.45,33.82-7.7c15.27-3.88,30.56-8.09,45.45-13.29,6.09-2.13,12.26-4.48,17.76-7.89,2.25-1.4,5.28-3.46,7-6-17.78-2.44-37.35-3.58-43.76-4.11-28.32-2.37-56.68-6.8-85.17-4.78-12.84.92-25.67,2.39-38.49,3.65-39.76,3.9-79.53,7.78-119.35,11-7,.57-30.8.32-60.53-.64C483.06,530.44,494.19,532.16,504.41,534.35Z" fill="#96d6b2"/><path id="a2b06486-91fe-447a-9f4e-a5ffd0ded0e1" data-name="SVGID" d="M604.37,297.08S591.76,301.3,585,305.2a3.81,3.81,0,0,0-1.87,2.88c-1,8.32-5.59,42.24-17.08,49.33l-20.92,15.84a4.14,4.14,0,0,0-1.37,4.77l5.89,15.42a4.13,4.13,0,0,0,6.68,1.55l30.28-28.18s-13.34,75.44-8.53,91.4c0,0,25.15,5.69,48.76-1.09l4.81,4.37s19.9,1.75,27.77-1.75c0,0-2-2.4-1.75-13.56,0,0,4.38-29.52-4.37-52.47,0,0-10.06-41.33-5.47-67.13l1.53-21.43s-7.83-8.47-24.8-10.58Z" fill="#686175" data-primary="true"/><g clip-path="url(#b8da0c96-e647-4d6e-8c2b-6a16a92d347c)"><path d="M625.13,342.56s-1.61,4.82,10,4.79c0,0,9.08-1,7.36,8.1a11.67,11.67,0,0,1-.78,2.43,19.3,19.3,0,0,0-1.59,5.83,21.45,21.45,0,0,1-3.15,9.53c-1.32,2.15-1.71,4.33,1.44,5,0,0,10.5-3.35,7.43,8.9,0,0-5.68,24.27,5.47,18.8,0,0,3.36-1.26,3.36,5.85a22,22,0,0,1-2.87,10.7c-4.57,8.14-14.45,28-9.67,39.43,0,0,9.4.44,17.27-2.19l10.72-66.47-22.31-66.69,1.53-21.43-17,2Z" fill="#686175" data-primary="true"/></g><path d="M658.25,380s-14.18-10.32-16.15-13.6c0,0,26-17.27,21-26,0,0-7-9.84-15.31-13.77l1.53-21.43s36.74,25.58,34.55,36.51C683.86,341.66,680.55,359.42,658.25,380Z" fill="#686175" data-primary="true"/><path id="a60a6b4a-7c4b-42d0-93c1-c9212705096d" data-name="SVGID" d="M638.4,297.9a9.13,9.13,0,0,0,5.15,2,9,9,0,0,1,3.4.76c2.94,1.36,1.94,3.09,1.94,3.09L643.44,341c.5,5.08-3.84,2.11-3.84,2.11-5.94,5.2-9.91-1.24-9.91-1.24-5,5.08-5.94-1.49-5.94-1.49-.87-10.28,6.73-44.71,6.73-44.71S633.87,294.22,638.4,297.9Z" fill="#f48225" data-secondary="true"/><g clip-path="url(#b4920309-063a-4bbf-9f63-7f5d1276c551)"><path d="M636.79,322l4.12-22.92a12,12,0,0,1-2.51-1.16Z" opacity="0.2"/></g><path d="M627.76,343.37l5.7-32.76-3.77,31.23A7,7,0,0,1,627.76,343.37Z" opacity="0.2"/><path d="M639.6,343.08l3.59-39.38-6.4,41.1S637.58,344.71,639.6,343.08Z" opacity="0.2"/><path d="M587.21,550.26s0-1.2,3.72-1.52l-1.07,4.17A6.12,6.12,0,0,1,587.21,550.26Z" fill="#686175" data-primary="true"/><path d="M587.21,550.26s0-1.2,3.72-1.52l-1.07,4.17A6.12,6.12,0,0,1,587.21,550.26Z" opacity="0.2"/><path id="f81e2796-2e33-4d47-94e7-b02f0fead5e0" data-name="SVGID" d="M626.73,546.66s-2.67,5.22-2.86,16.41a9.33,9.33,0,0,0,5.78.74,6.08,6.08,0,0,1,5.25,2.43,1.75,1.75,0,0,0,1.17.7c3.26.55,15.28,2.21,19.18-2a2.15,2.15,0,0,0,.14-2.67c-1.43-2.07-5.59-6.77-17.53-15.64Z" fill="#686175" data-primary="true"/><g clip-path="url(#ae76ca5c-9b71-4994-8a52-610bed3596ef)"><path d="M638.31,547.28c-.08-.11.07-.24.18-.16,13.1,9.42,16.9,15.18,16.9,15.18,2.06,5.19-8.4,5.43-8.4,5.43-.37-8.39-8.58-8.76-8.58-8.76-8.39,0-6.78-3.74-6.78-3.74s5.14,1.46,8.2-1.41C639.83,553.82,642.15,552.71,638.31,547.28Z" opacity="0.2"/></g><path d="M587.21,550.26s-8.58,6.71-12.12,8c0,0-9.88,3.36-5.78,9.32,0,0,1.39,2.24,9.59,1.47a24.28,24.28,0,0,0,16.4-4.26s.88-1.2,5-.44c0,0,5.58,1.53,5.69-3.83,0,0,1.09-11.26-1.64-12.57,0,0,1.38,2.55-4.59,4.92C599.79,552.89,591.37,556.61,587.21,550.26Z" fill="#686175" data-primary="true"/><path d="M590.32,529.3s2.9,14.82-1.25,23.07c0,0,3.28,3.48,10.72.61,0,0,5.56-1.92,4.59-5,0,0-3.42-8.38-2.34-23.91C602,524.06,597.47,530.55,590.32,529.3Z" fill="#fea054"/><path d="M628.45,524s-.26,18.38-1.66,22.56c0,0-.18,6.36,4.9,8.57,0,0,4.84,1.77,8.2-1.41,0,0,2.51-1.55-2-7.16,0,0-.07-10.83,1.94-16.83C639.86,529.7,635.06,530.69,628.45,524Z" fill="#fea054"/><path d="M579.16,458.44s-2.22,29.95,1.71,40c0,0,3.06,15.09,3.06,22.53,0,0-.22,8.31,8.75,8.52,0,0,14,2,22.3-37.82,0,0,4.6,32.17,20.34,37.84,0,0,6.38,2,9.77-3.33a9,9,0,0,0,1.23-5.77c-.23-2.22,0-7.09,2.77-16.94,0,0,4.17-16.77,5.48-42.39a116.4,116.4,0,0,1-23,.41l-4.81-4.37S606,463.35,579.16,458.44Z" fill="#f48225" data-secondary="true"/><path d="M624.91,299.61c-3.31,9.81-7.31,14.07-7.31,14.07h-4.15c-7.87-11.37-6.84-20-6.84-20h0c2.53,3,5.78,4.83,9.33,4.83a11.84,11.84,0,0,0,8.56-4h0l.53,2.88A4.16,4.16,0,0,1,624.91,299.61Z" fill="#fea054"/><path d="M606.62,293.72s-5.11,6.18-7.78,17.33l5.87-3.06a31.08,31.08,0,0,0,8.74,5.69S606.36,304.81,606.62,293.72Z" fill="#686175" data-primary="true"/><path d="M606.62,293.72s-5.11,6.18-7.78,17.33l5.87-3.06a31.08,31.08,0,0,0,8.74,5.69S606.36,304.81,606.62,293.72Z" opacity="0.2"/><path d="M617.6,313.68s7-.88,7.53-5.47l7.13,2.73-4.74-13.45-3-2.92.62,4S622.85,307.26,617.6,313.68Z" fill="#686175" data-primary="true"/><path d="M617.6,313.68s7-.88,7.53-5.47l7.13,2.73-4.74-13.45-3-2.92.62,4S622.85,307.26,617.6,313.68Z" opacity="0.2"/><path d="M589,319.36l-2.4,47.45L563.69,388.1s-3.82-5.77,5.65-15.87c.77-.81,1.59-1.57,2.41-2.32a35.3,35.3,0,0,0,10.22-18Z" opacity="0.2"/><path d="M647.78,326.58l.65-9s13.13,8.14,14.66,22.79C663.09,340.35,657.19,331,647.78,326.58Z" opacity="0.2"/><polygon points="626.79 457.12 629.63 381.24 631.6 461.49 626.79 457.12" opacity="0.2"/><path d="M608.64,460.18s.44,19.24-13.34,24.93c0,0,10.5-4.38,16-9,0,0,3.28-1.09,0,9,0,0-5.25,10.93-12.47,11.59,0,0,4.36,3.94,11.47-1.53a.54.54,0,0,1,.84.21c.41,1.22-.5,4.7-2.47,7.44l-11.32,11.52a.41.41,0,0,0,.42.68l6.27-1.93s.82,6-5.91,14.57c0,0,11.85-7.13,16.88-36,0,0-2-22.78-4.15-31.73Z" opacity="0.2"/><path d="M642.1,461.93s2.84,26.89-15.31,33.89c0,0,9.62-1.31,18.81-10.71,0,0,4.81-2.85,1.31,10.71,0,0-10.06,15.09-16.4,13.56,0,0,4.15,5.68,14.21-1.1,0,0,5-.67-2.19,10.28l-8.75,10.29a8.79,8.79,0,0,0,11.31-2.67s1.13-1.43,1.23-5.77c0,0-.44-6.43,2.48-15.89,0,0,5.55-26.64,5.77-43.44C654.57,461.08,645.88,461.91,642.1,461.93Z" opacity="0.2"/><path d="M598.84,269.74s-10.32,20-11.88,34.38c0,0,3.33-1.95,13.24-5.57V284l1.23-7.5s-1.13-3.66-1.58-6C599.85,270.52,599.5,270.52,598.84,269.74Z" fill="#f48225" data-secondary="true"/><path d="M601.43,276.48l-4.14-3.57,1.55-3.17s.52.42,1,.78Z" opacity="0.2"/><path d="M588.9,303.14a152,152,0,0,1,5.29-18.47s-4.21,15.45-4.21,18Z" opacity="0.2"/><path d="M593.12,301.29s1.91-13.11,3.5-18.37c0,0-2.23,15.43-2.43,17.95Z" opacity="0.2"/><path d="M645.13,369.59s-11.56,4.44-7.41,7.61c0,0,2,.52,5.91-1.21,0,0,3.17-1.53,3.72,5.25l.87,19.13s0,3.17,2.3-.76c0,0,8.18-11.67,5.4-21.36C655.92,378.25,649.25,373.24,645.13,369.59Z" fill="#fea054"/><path d="M544.26,379.46s-6,5.72-9.4,6.91v17.57a19.65,19.65,0,0,0,4.75-4.75,30.1,30.1,0,0,1,6.48-6.75,16.35,16.35,0,0,1,2.53-1.57Z" fill="#fea054"/><path d="M530.54,387.12a7.66,7.66,0,0,0-3.53,1.41s-4.32,2.49-6.92,2.5a.55.55,0,0,0-.41.92c.8.81,2.63,1.57,6.75.3,0,0,2.47-1.17,3.42-.55Z" fill="#fe7142"/><polygon points="534.86 349.61 516.54 511.58 522.93 512.91 541.74 350.85 534.86 349.61" fill="#4d010e"/><path id="f97185a9-260e-42c4-b60e-af72e8a18636" data-name="SVGID" d="M496.45,509.16l21.82-7.33a5.13,5.13,0,0,1,4.29.47l20.55,12.4a1,1,0,0,1,.47,1l-5.48,31.7a10.62,10.62,0,0,1-.29,1.24c-1.11,3.5-6.89,18.64-24.85,20.49a2.11,2.11,0,0,1-1.05-.16c-3.29-1.43-21.06-10.13-18.28-30l2.13-28.92A1,1,0,0,1,496.45,509.16Z" fill="#e56a46"/><g clip-path="url(#b21c2180-b901-4113-94a7-f9aaba6f79b1)"><path d="M493.4,541.2l4.53-28.29s8-5.65,20.53-4.63l-4.21,46.36,6.85-46.48a35.42,35.42,0,0,1,19.39,9L538.35,546l5.23-30.27a1.17,1.17,0,0,0-.47-1l-20.55-12.4a5.13,5.13,0,0,0-4.29-.47l-21.82,7.33a.94.94,0,0,0-.69.89Z" opacity="0.2"/></g><path d="M606.62,293.72a31.88,31.88,0,0,0,.3,4.6s10.28,5.36,17.59-3.75Z" fill="#fe7142"/><path d="M630.48,277.87c0,6.86-2.34,12.95-6,16.7h0a11.84,11.84,0,0,1-8.56,4c-3.55,0-6.8-1.81-9.33-4.83-3.17-3.8-5.19-9.49-5.19-15.85,0-11.43,6.5-20.68,14.52-20.68S630.48,266.44,630.48,277.87Z" fill="#fea054"/><ellipse cx="600.51" cy="280.11" rx="2.8" ry="3.94" transform="translate(-24.55 60.16) rotate(-5.62)" fill="#fea054"/><ellipse cx="630.48" cy="280.02" rx="3.94" ry="2.8" transform="translate(164.19 788.43) rotate(-71.42)" fill="#fea054"/><path d="M601.43,276.48s-8.09-24.91,4.37-18.13c0,0-3.94-10.49,17.49-6.12,0,0,11.59-2.4,10.06,6.34,0,0,1.48,10.24-2.87,17.91,0,0-2.38-11.79-8.5-13.54l-14.87.88S603.83,272.09,601.43,276.48Z"/><path d="M598.29,264.4a1.87,1.87,0,0,1,0-2.55s11.3-5.9,35.94-3.86c0,0,1.58,1.13.21,3.26,0,0,.88,1.93-.16,3.15,0,0,1.09,2.75-.38,3.9a56.79,56.79,0,0,0-34,2.22,2,2,0,0,1-1-2.93S597.29,266.9,598.29,264.4Z" fill="#f48225" data-secondary="true"/><path d="M634.88,260.34l-17,.64,16.54.27A1.84,1.84,0,0,0,634.88,260.34Z" opacity="0.2"/><polygon points="634.62 263.82 620.96 264.4 634.42 264.82 634.28 264.4 634.62 263.82" opacity="0.2"/><path d="M609,267.8s10.86-4.42,25.58-.8a1.44,1.44,0,0,1-.72,1.3S621.43,264.83,609,267.8Z" opacity="0.2"/><path d="M597.93,263.82s7.72-2.55,12.32-2.19l-12,2.77Z" opacity="0.2"/><path d="M598.84,267.59a1.52,1.52,0,0,1-.76-.93s11.51-3.49,19.82-2.84C617.9,263.82,602.24,266,598.84,267.59Z" opacity="0.2"/><path d="M523.94,392a1.55,1.55,0,0,0-1.26,1.65,2,2,0,0,0,1.41,1.64s-2,1.45,0,3.42c0,0-2,1.9,0,3.35,0,0-1.6,2.63,2.48,2.63,0,0,8.53-.29,5.76-3.28,0,0,1.31-2.26-1.09-2.95,0,0,2.26-1.57.21-3,0,0,2.41-2.77-1.6-3.68C529.85,391.7,529.27,390.82,523.94,392Z" fill="#fea054"/><path d="M446.19,383.71c-4-1.82-8-3.69-11.91-5.6l-130.15.05c-4.24,2.51-8.47,5-12.77,7.48-.27,1.12-.56,2.23-.86,3.34l157-.11Q446.8,386.31,446.19,383.71Z" fill="#ffca81"/><path d="M447.52,388.87l-157,.11c-1,3.63-2.05,7.23-3.17,10.8l163.59-.14C449.68,396.08,448.53,392.5,447.52,388.87Z" fill="#ffca81"/><path d="M454.9,410.41l-171.13.18c-1.24,3.61-2.52,7.19-3.82,10.78l178.92-.17C457.6,417.58,456.24,414,454.9,410.41Z" fill="#ffca81"/><path d="M450.92,399.64l-163.59.14c-1.13,3.62-2.33,7.22-3.56,10.81l171.13-.18C453.53,406.83,452.19,403.25,450.92,399.64Z" fill="#ffca81"/><path d="M462.44,432l-186.29.18c-1.26,3.6-2.49,7.21-3.78,10.8l193.52-.19C464.72,439.18,463.58,435.58,462.44,432Z" fill="#ffca81"/><path d="M460.75,426.7c-.6-1.85-1.24-3.68-1.88-5.5L280,421.37c-.12.32-.23.65-.34,1-1.19,3.25-2.33,6.54-3.46,9.82L462.44,432Q461.6,429.32,460.75,426.7Z" fill="#ffca81"/><path d="M412.58,367.35l-88.18,0c-2.56,1.18-5.1,2.4-7.59,3.68-4.3,2.25-8.5,4.68-12.68,7.15l130.15-.05C427,374.58,419.82,370.94,412.58,367.35Z" fill="#ffca81"/><path d="M411.32,366.72c-7.77-3.87-14.81-6.93-22.64-10.15l-39.6,0-2.76,1.27c-7.24,3.27-14.68,6.22-21.92,9.53l88.18,0C412.16,367.14,411.74,366.92,411.32,366.72Z" fill="#ffca81"/><path d="M386.93,355.84a106.18,106.18,0,0,1-17.82-8.8q-9.94,4.89-20,9.49l39.6,0C388.11,356.32,387.52,356.08,386.93,355.84Z" fill="#ffca81"/><path d="M465.89,442.77,272.37,443c-1.3,3.63-2.64,7.22-4.07,10.79l201.29-.2C468.28,450,467.07,446.38,465.89,442.77Z" fill="#ffca81"/><polygon points="472.26 568.98 472.26 561.43 266.32 561.62 266.31 568.98 472.26 568.98" fill="#ffca81"/><path d="M469.59,453.55l-201.29.2c-.64,1.58-1.3,3.15-2,4.72v6.07l205.94-.2v-3.89C471.34,458.17,470.44,455.86,469.59,453.55Z" fill="#ffca81"/><rect x="266.33" y="529.17" width="205.94" height="10.78" transform="translate(-0.54 0.37) rotate(-0.06)" fill="#ffca81"/><rect x="266.32" y="539.95" width="205.94" height="10.79" fill="#ffca81"/><polygon points="472.27 550.64 266.32 550.84 266.32 561.62 472.26 561.43 472.27 550.64" fill="#ffca81"/><polygon points="472.27 518.27 266.33 518.49 266.33 529.27 472.27 529.07 472.27 518.27" fill="#ffca81"/><polygon points="472.27 464.34 266.33 464.54 266.33 475.33 472.27 475.12 472.27 464.34" fill="#ffca81"/><rect x="266.33" y="486.01" width="205.93" height="10.79" fill="#ffca81"/><rect x="266.33" y="475.23" width="205.94" height="10.79" transform="translate(-0.49 0.38) rotate(-0.06)" fill="#ffca81"/><rect x="266.33" y="496.8" width="205.93" height="10.78" fill="#ffca81"/><polygon points="472.27 507.49 266.33 507.69 266.33 518.49 472.27 518.27 472.27 507.49" fill="#ffca81"/><rect x="304.13" y="410.86" width="31.11" height="37.39" fill="#e56b47"/><rect x="403.18" y="410.86" width="31.11" height="37.39" fill="#e56b47"/><polygon points="273.01 570.12 273.24 464.96 301.87 388.07 371.05 356.07 440.12 388.37 464.7 463.21 464.64 463.21 464.41 570.12 470.33 570.12 470.54 470.88 475.43 467.87 446.25 385.85 376.67 351.8 373.13 348.07 371.07 349.06 369.04 348.06 365.47 351.77 295.75 385.53 267.92 462.7 263.64 462.69 263.4 570.12 273.01 570.12" fill="#b6b8ba" style="mix-blend-mode:multiply"/><polygon points="269.37 568.98 269.6 465.18 263.67 465.16 263.44 568.98 269.37 568.98" fill="#ffa26b"/><polygon points="474.81 568.98 475.04 464.84 469.13 464.82 468.89 568.98 474.81 568.98" fill="#ffa26b"/><path d="M452.69,384.43A3.84,3.84,0,0,0,452,383l-80.3-43.59a1.41,1.41,0,0,0-.94-.32,1.52,1.52,0,0,0-.95.31l-82.71,43.77a1.49,1.49,0,0,0-.7.41,1.4,1.4,0,0,0-.44.88l-27.73,90a.82.82,0,0,0,1,.89,1.59,1.59,0,0,0,1.22-1.32l.06-.2,5.24-3.41,27.35-85.36,2.69-1.36,3.86-1.92,1.43-.43v-.28l69.58-34.48,66.83,34.22v.4l1.73.53L445.5,385l28.4,85,3.78,3.8.1.33a1.56,1.56,0,0,0,1.21,1.32.81.81,0,0,0,1-.89Z" fill="#e56b47"/><polygon points="267.04 471.36 295.08 387.13 297.7 385.77 371.21 348.67 437.5 383.24 437.75 383.37 437.75 383.4 444.62 387.03 472.51 471.36 475.56 471.36 449.8 386.64 449.34 386.23 371.26 343.3 295.08 384.08 289.92 386.73 264.25 471.36 267.04 471.36" fill="#e55027"/><path d="M369.29,467.27h0a46.37,46.37,0,0,1,46.37,46.37v54.62a0,0,0,0,1,0,0H322.92a0,0,0,0,1,0,0V513.64A46.37,46.37,0,0,1,369.29,467.27Z" fill="#e56b47"/><polygon id="fb764fd1-c216-4163-8b1d-dfa7d886474f" data-name="SVGID" points="263.77 291.88 233.46 272.86 233.44 273.97 233.39 272.86 203.07 291.88 169.98 568.74 224.87 568.74 241.97 568.74 296.88 568.74 263.77 291.88" fill="#ff4910"/><polygon points="203.07 291.88 169.98 568.74 203.42 568.74 221.75 280.16 203.07 291.88" fill="#b26240" opacity="0.5" style="mix-blend-mode:screen"/><polygon points="263.77 291.88 245.09 280.16 263.41 568.74 296.88 568.74 263.77 291.88" fill="#b26240" opacity="0.5" style="mix-blend-mode:multiply"/><polygon points="202.32 297.8 202.85 292.98 233.34 274.22 263.96 292.85 264.66 299.6 233.04 279.32 202.32 297.8" fill="#6b3e28" opacity="0.4" style="mix-blend-mode:multiply"/><path d="M233.85,275l-.09.06c1.5,1,3,1.92,4.58,2.78C236.84,276.9,235.33,276,233.85,275Z" opacity="0.7" fill="url(#a974ff00-5004-4313-9b50-8e4a4254061c)" style="mix-blend-mode:multiply"/><polygon points="233.08 269.06 194.5 291.67 194.5 292.04 194.5 292.36 194.5 294.93 194.5 295.47 194.5 295.98 194.5 296.83 194.5 297.18 196.24 297.18 233.03 275.74 233.08 275.71 269.94 297.18 271.65 297.18 271.65 296.83 271.65 295.98 271.65 295.47 271.65 294.93 271.65 292.36 271.65 292.04 271.65 291.67 233.08 269.06" fill="#ff4910"/><polygon points="204.79 298.08 172.44 566.25 175.41 566.25 204.79 298.08" fill="#b26240" opacity="0.5" style="mix-blend-mode:screen"/><path d="M132,193.24l.32-.28a.83.83,0,0,0-1.08-1.27l-.33.27-5.88-6.89a.89.89,0,0,0-.19-.42.77.77,0,0,0-.38-.25l-20-23.4a.84.84,0,0,0-1.17-.1L72.77,187a.9.9,0,0,0-.3.62.82.82,0,0,0,.26.62l53.25,51,59.09,56.57a.86.86,0,0,0,1.14,0l18.74-16a.81.81,0,0,0,.08-1.18l-5.94-7a.83.83,0,0,0-.21-.64.76.76,0,0,0-.6-.28l-6-7a.82.82,0,0,0-.19-.55.77.77,0,0,0-.48-.27L185.75,256a.82.82,0,0,0-.09-1,.84.84,0,0,0-.93-.23L178.87,248a.76.76,0,0,0-.2-.54.75.75,0,0,0-.48-.28Zm-30.49-14.73,5.66,6.55-8.68,7.43-5.68-6.55Zm-9.79,6.16L86,177.94l8.68-7.43,5.81,6.74Zm74.37,86-5.67-6.55,8.7-7.43,5.66,6.55Zm9.79-6.16,5.68,6.56-8.7,7.42L167.23,272Zm-16.55-1.66-5.65-6.55,8.68-7.43,5.68,6.56ZM152.6,255,147,248.49l8.68-7.41,5.67,6.54Zm11.07-7.24,7.4-6.34,5.64,6.58-7.38,6.32Zm-1.1-1.27L156.91,240l7.39-6.32.06-.06,5.63,6.59Zm.73-14.2s-.07,0-.08,0l-7.43,6.34-5.64-6.55,7.48-6.42ZM149,230.89l-5.68-6.56,6.33-5.39a.83.83,0,0,0-1.08-1.27l-6.31,5.4-5.67-6.55,7.56-6.49,12.36,14.45Zm-5.92-22.13-7.58,6.49-5.69-6.55,7.63-6.53Zm-8.87,7.58-8.68,7.43-5.68-6.55,8.7-7.44ZM118.81,216l-5.68-6.56,8.69-7.43,5.67,6.56ZM112,208.12l-5.66-6.54,8.69-7.42,5.67,6.54Zm-6.74-7.8-5.68-6.57,8.69-7.42,5.67,6.55Zm4.29-15.09,7.74-6.62L123,185.2l-7.7,6.58Zm6.66-7.9L108.48,184l-5.67-6.55,7.79-6.66Zm-19,16.24L88.53,201l-6.29-6,9.34-8Zm1.1,1.27L104,201.4l-8,6.82-6.28-6Zm6.75,7.82,5.68,6.56-7.26,6.18-6.27-6Zm6.76,7.82,5.66,6.55L111,222.59l-6.27-6Zm.39,13.29,6.38-5.47,5.67,6.56-5.76,4.91Zm13.13,2.34,5.67,6.56L126,237l-6.28-6Zm1.27-1.07,8.69-7.43,5.66,6.54-8.66,7.44Zm15.47.39,5.65,6.54-8.68,7.44-5.7-6.56Zm6.75,7.81,5.67,6.55-8.7,7.44-5.66-6.56Zm-4.3,15.07-3.5,3-6.29-6,4.13-3.54Zm1.11,1.27,5.66,6.55-2.77,2.38-6.3-6Zm6.77,7.81L158.1,264l-2,1.75-6.29-6Zm6.77,7.83,5.64,6.56-1.3,1.09-6.28-6ZM166,273l5.68,6.56-.56.46-6.28-6Zm6.78,7.81,3.92,4.54-4.37-4.17Zm8,6.73,8.68-7.42,5.3,6.14-8.69,7.42Zm-1.12-1.27L174,279.78l8.68-7.45,5.67,6.56ZM184,271.25l7.29-6.24,5.63,6.6-7.24,6.19Zm6.21-7.49L182.87,270l-5.67-6.57,7.31-6.27Zm-14.09-1.6-5.65-6.55,7.38-6.3,5.62,6.59ZM136.4,200.9l-7.63,6.53-5.68-6.56,7.66-6.54ZM122,199.61l-5.65-6.56,7.71-6.59,5.63,6.59Zm-12.48-30.13-7.81,6.67-5.8-6.73,7.83-6.7ZM84.68,179l5.79,6.73L81,193.85l-6.44-6.18Zm47.48,54.91,5.65,6.55-4.25,3.65-6.3-6ZM196,285.2l-5.29-6.13,7.24-6.2,5.26,6.17Z" fill="#ffe77d"/><polygon points="233.28 309.65 230.53 311.98 101.68 161.33 104.41 159.01 233.28 309.65" fill="#ff5316"/><polygon points="233.3 309.61 231.93 310.78 103.09 160.13 104.45 158.97 233.3 309.61" fill="#ff5316"/><path d="M217,358.9l-16-18.73a.82.82,0,0,0-1.18-.11l-7,6a.86.86,0,0,0-.66.2.76.76,0,0,0-.27.61l-7,6a.88.88,0,0,0-.55.18,1,1,0,0,0-.29.5l-6.83,5.87a.88.88,0,0,0-1,.08.83.83,0,0,0-.24.94l-6.85,5.86a.9.9,0,0,0-.56.2.77.77,0,0,0-.26.5l-54,46.14-.26-.33a.87.87,0,0,0-1.2-.08.82.82,0,0,0-.08,1.18l.28.32-6.9,5.89a1,1,0,0,0-.43.18.93.93,0,0,0-.23.38l-23.41,20a.83.83,0,0,0-.09,1.17l26.09,30.52a.85.85,0,0,0,.62.29.82.82,0,0,0,.62-.25l51-53.27L216.93,360A.82.82,0,0,0,217,358.9Zm-16.76-17,6.15,7.21-6.12,5.31L194,347.15Zm-7.45,6.35,6.2,7.25-6.52,5.68-6.24-7.29ZM107.47,436.8l6.55-5.66,7.42,8.69-6.53,5.66Zm6.16,9.78-6.56,5.67-7.43-8.69,6.58-5.66ZM115.3,430l6.55-5.66,7.43,8.68-6.57,5.66Zm7.8-6.76,6.57-5.66,7.42,8.68L130.54,432Zm7.83-6.77,6.55-5.67,7.45,8.7-6.59,5.66Zm7.81-6.75,6.57-5.67,7.43,8.7-6.57,5.66Zm7.81-6.76,6.56-5.68,7.46,8.69L154,411.67Zm7.83-6.75,6.57-5.69,7.42,8.7-6.54,5.66Zm7.83-6.78,6.55-5.66,7.44,8.68-6.55,5.66Zm7.82-6.75,6.55-5.68,7.44,8.69-6.54,5.67Zm7.82-6.78,6.55-5.66,7.45,8.68-6.57,5.69Zm7.81-6.76,6.57-5.66,7.43,8.69-6.55,5.67ZM184.9,355l6.24,7.29-6.57,5.67-6.27-7.33ZM177,361.67,183.3,369l-6.52,5.68-6.31-7.35Zm-7.85,6.73,6.31,7.36-6.58,5.68L162.61,374Zm-7.85,6.71,6.33,7.41-6.54,5.68-6.34-7.39s0,0-.06,0Zm-7.86,6.71a.13.13,0,0,1,.06.08l6.33,7.38L153.29,395l-6.39-7.5Zm-7.85,6.74,6.41,7.5-6.56,5.66-5.39-6.29a.83.83,0,1,0-1.27,1.07l5.39,6.32-6.55,5.66-6.48-7.58ZM129.91,402l6.5,7.6-6.56,5.66-6.52-7.63Zm-7.84,6.72,6.5,7.63L122,422l-6.57-7.68Zm-7.87,6.72,6.57,7.68-6.57,5.66-6.59-7.71Zm-7.86,6.72,6.59,7.72-6.54,5.66-6.64-7.75Zm-7.84,6.72,6.61,7.77-6.54,5.65L91.9,434.5Zm-14.63,12.5,6.76-5.78,6.67,7.81-6.72,5.81Zm7.81,9.11,6.7-5.82,7.43,8.68-6.7,5.82Zm17.15,20.06-8.65-10.11,6.73-5.81,8.1,9.45Zm7.35-7.66-8-9.35,6.55-5.67,7.46,8.72Zm7.17-7.51L116,446.76l6.57-5.66,6.81,8Zm7.18-7.51L123.81,440l6.55-5.66,6.22,7.23Zm7.19-7.5-6.08-7.12,6.54-5.66,5.57,6.48Zm7.18-7.49-5.45-6.4,6.56-5.66,4.91,5.74Zm7.18-7.53-4.8-5.62,6.54-5.67,4.28,5Zm7.2-7.5-4.2-4.88,6.57-5.68,3.63,4.28Zm7.17-7.5-3.53-4.14,6.53-5.67,3.05,3.52Zm7.19-7.51-2.91-3.4,6.54-5.67,2.37,2.79Zm7.2-7.5-2.3-2.66,6.54-5.67,1.76,2Zm7.17-7.5-1.64-1.92,6.53-5.68,1.13,1.3Zm7.18-7.51-1-1.17,6.53-5.68.48.56Zm7.19-7.51-.36-.43,4.54-3.93Zm-1.46-1.69-7.42-8.69,6.54-5.68,7.45,8.69Zm7.81-6.78-7.43-8.67,6.14-5.32,7.44,8.7Z" fill="#ffe77d"/><polygon points="230.78 311.86 233.12 314.57 82.48 443.42 80.14 440.71 230.78 311.86" fill="#ff5316"/><polygon points="230.77 311.81 231.91 313.17 81.27 442.01 80.11 440.66 230.77 311.81" fill="#ff5316"/><path d="M334.38,431l-.31.26a.84.84,0,0,0-.09,1.19.83.83,0,0,0,1.17.08l.33-.27,5.88,6.89a.77.77,0,0,0,.19.42.66.66,0,0,0,.4.24l20,23.41a.82.82,0,0,0,1.17.09l30.53-26.09a.87.87,0,0,0,.29-.62.89.89,0,0,0-.26-.63l-53.24-51-59.1-56.56a.82.82,0,0,0-1.11,0l-18.77,16a.87.87,0,0,0-.1,1.19l6,7a.76.76,0,0,0,.2.65.79.79,0,0,0,.59.28l6,7a1,1,0,0,0,.19.54.9.9,0,0,0,.53.27l5.87,6.86a.81.81,0,0,0,.07.95.84.84,0,0,0,.94.23l5.84,6.86a.81.81,0,0,0,.22.54.79.79,0,0,0,.5.28Zm30.49,14.71-5.65-6.55,8.68-7.42,5.67,6.54Zm9.78-6.15,5.83,6.73-8.69,7.42L366,447Zm-74.36-86,5.66,6.55-8.7,7.43L291.58,361Zm-9.79,6.16-5.67-6.55,8.69-7.43,5.68,6.56ZM307,361.4l5.67,6.55-8.7,7.44-5.66-6.56Zm6.77,7.82,5.69,6.54-8.7,7.43-5.68-6.54Zm-11.05,7.25-7.42,6.33-5.63-6.58,7.37-6.3Zm1.09,1.27,5.68,6.55-7.42,6.33a.05.05,0,0,1,0,.05l-5.64-6.59Zm-.71,14.19.05-.05,7.41-6.32,5.69,6.55-7.51,6.41Zm14.23,1.45,5.68,6.55-6.32,5.39a.84.84,0,1,0,1.1,1.27l6.3-5.4,5.67,6.57-7.58,6.47L309.87,399.8Zm5.94,22.13,7.57-6.5,5.68,6.57-7.63,6.51Zm8.85-7.57,8.69-7.44,5.68,6.54-8.72,7.45Zm15.46.37,5.68,6.56-8.71,7.43-5.65-6.55Zm6.74,7.82,5.7,6.56-8.71,7.44-5.67-6.57Zm6.78,7.83,5.68,6.55L358.11,438l-5.66-6.57ZM356.86,439l-7.77,6.63-5.62-6.58,7.72-6.6Zm-6.67,7.91,7.75-6.65,5.67,6.56-7.8,6.67Zm19-16.24,8.72-7.46,6.28,6-9.35,8Zm-1.11-1.27-5.65-6.55,8-6.83,6.28,6Zm-6.76-7.82-5.67-6.55,7.26-6.19,6.28,6Zm-6.76-7.82-5.66-6.55,6.49-5.55,6.31,6Zm-.38-13.26L347.8,406l-5.68-6.56,5.76-4.92ZM341,398.15l-5.68-6.55,5-4.29,6.29,6Zm-1.28,1.07-8.68,7.44-5.67-6.55,8.68-7.44Zm-15.45-.37-5.66-6.56,8.69-7.44,5.67,6.56ZM317.54,391l-5.64-6.55,8.66-7.43,5.69,6.55ZM321.85,376l3.51-3,6.29,6-4.14,3.54Zm-1.1-1.26-5.66-6.56,2.78-2.37,6.27,6ZM314,366.87l-5.66-6.56,2-1.74,6.29,6Zm-6.76-7.82-5.67-6.57,1.3-1.1,6.29,6Zm-6.77-7.82-5.66-6.55.55-.48,6.28,6Zm-6.75-7.82-3.91-4.55,4.34,4.18Zm-8.05-6.72L277,344.11,271.66,338l8.7-7.44Zm1.1,1.25,5.68,6.55-8.68,7.43-5.68-6.55ZM282.46,353l-7.27,6.22-5.63-6.58,7.24-6.19Zm-6.19,7.48,7.31-6.22,5.67,6.56-7.34,6.26Zm14.05,1.59,5.68,6.56-7.38,6.3L283,368.37ZM330,423.36l7.61-6.53,5.68,6.55L335.66,430Zm14.39,1.29,5.66,6.56-7.7,6.59-5.63-6.58Zm12.48,30.13,7.79-6.68,5.83,6.74-7.83,6.7Zm24.86-9.55-5.83-6.73,9.47-8.09,6.46,6.18Zm-47.49-54.91-5.68-6.55,4.27-3.65,6.3,6Zm-63.88-51.25,5.31,6.12-7.23,6.19-5.29-6.17Z" fill="#ffe77d"/><rect x="297.16" y="289.65" width="3.58" height="198.24" transform="translate(-180.83 287.14) rotate(-40.48)" fill="#ff5316"/><polygon points="233.12 314.65 234.48 313.49 363.34 464.14 361.98 465.3 233.12 314.65" fill="#ff5316"/><path d="M352,211.19l.26.31a.83.83,0,0,0,1.18.1.82.82,0,0,0,.09-1.17l-.27-.33,6.9-5.89a1,1,0,0,0,.42-.18.85.85,0,0,0,.24-.38l23.41-20a.84.84,0,0,0,.08-1.2l-26.08-30.51a.93.93,0,0,0-.62-.29.78.78,0,0,0-.61.26l-51,53.24-56.56,59.09a.84.84,0,0,0,0,1.13l16,18.75a.85.85,0,0,0,1.18.1l7-6a.84.84,0,0,0,.63-.19.76.76,0,0,0,.3-.62l7-6a.82.82,0,0,0,.55-.19.8.8,0,0,0,.28-.51l6.87-5.86a.86.86,0,0,0,1-.09.87.87,0,0,0,.22-.93l6.84-5.86a.77.77,0,0,0,.55-.2.86.86,0,0,0,.28-.51Zm14.74-30.49-6.56,5.66-7.43-8.68,6.54-5.67Zm-6.17-9.8,6.73-5.8,7.41,8.68L368,179.61Zm-86,74.39,6.55-5.66,7.43,8.68L282,254Zm6.17,9.79-6.55,5.66-7.43-8.67,6.55-5.69Zm1.63-16.55,6.58-5.67,7.45,8.68-6.58,5.68Zm7.84-6.76,6.57-5.66,7.42,8.68-6.56,5.67Zm7.26,11,6.33,7.42-6.58,5.63-6.29-7.37Zm1.26-1.08,6.56-5.68,6.31,7.39.07.05-6.59,5.65Zm14.19.7-.06-.08L306.56,235l6.56-5.67,6.41,7.5Zm1.46-14.23,6.55-5.67,5.39,6.31a.83.83,0,0,0,1.18.08.82.82,0,0,0,.1-1.17l-5.4-6.32,6.53-5.65,6.48,7.57L320.79,235.7Zm22.11-6L330,214.67l6.56-5.67,6.51,7.64Zm-7.57-8.86-7.43-8.68,6.55-5.67,7.44,8.69Zm.39-15.44,6.55-5.67,7.44,8.69-6.56,5.66Zm7.83-6.76,6.54-5.66,7.44,8.68-6.56,5.67Zm7.81-6.75,6.56-5.68,7.43,8.69-6.57,5.67ZM360,188.74l6.62,7.74-6.58,5.63-6.59-7.71Zm7.91,6.65-6.63-7.76,6.52-5.67,6.69,7.8Zm-16.24-19-7.48-8.72,6-6.3,8,9.35Zm-1.28,1.09-6.56,5.67-6.82-8,6-6.3Zm-7.81,6.77-6.56,5.65-6.2-7.23,6-6.29ZM334.79,191l-6.56,5.67-5.55-6.49,6-6.28Zm-13.27.4,5.46,6.37-6.56,5.66-4.93-5.75Zm-2.37,13.13-6.57,5.66-4.27-5,6-6.31Zm1.1,1.27,7.41,8.68-6.55,5.67-7.43-8.68Zm-.39,15.45-6.58,5.67-7.41-8.7,6.55-5.66ZM312,228l-6.54,5.67L298,225l6.57-5.67Zm-15.08-4.28-3-3.52,6-6.29,3.54,4.14Zm-1.24,1.09-6.56,5.67-2.39-2.77,6-6.3Zm-7.82,6.76-6.56,5.67-1.76-2,6-6.3Zm-7.82,6.75L273.5,244l-1.11-1.3,6-6.29Zm-7.83,6.77-6.55,5.67-.47-.54,6-6.31Zm-7.81,6.77-4.55,3.92,4.17-4.36Zm-6.74,8,7.41,8.7-6.12,5.3-7.42-8.69Zm1.27-1.09,6.54-5.66,7.43,8.69-6.55,5.66ZM274,263.11l6.22,7.28L273.66,276l-6.2-7.25Zm7.48,6.2L275.29,262l6.54-5.68,6.28,7.34Zm1.58-14.06,6.57-5.67L296,257l-6.6,5.64Zm61.28-39.7-6.52-7.63,6.52-5.67,6.59,7.67Zm1.29-14.39,6.55-5.66,6.59,7.71-6.58,5.63Zm30.15-12.49-6.68-7.79,6.71-5.83,6.7,7.85Zm-9.58-24.84-6.72,5.82-8.1-9.47,6.18-6.45Zm-54.89,47.49L304.77,217l-3.66-4.27,6-6.29Zm-51.27,63.86,6.12-5.31,6.2,7.24-6.16,5.27Z" fill="#ffe77d"/><polygon points="235.62 312.4 233.29 309.69 383.92 180.83 386.26 183.57 235.62 312.4" fill="#ff5316"/><polygon points="235.67 312.46 234.5 311.1 385.13 182.25 386.32 183.6 235.67 312.46" fill="#ff5316"/><path d="M238.86,312.14a5.65,5.65,0,1,1-5.65-5.66A5.66,5.66,0,0,1,238.86,312.14Z" fill="#ff4910"/><path d="M238.86,312.14a5.65,5.65,0,1,1-5.65-5.66A5.66,5.66,0,0,1,238.86,312.14Z" fill="#b26240" opacity="0.5" style="mix-blend-mode:multiply"/><path d="M237.47,312.11a4.26,4.26,0,1,1-4.26-4.26A4.25,4.25,0,0,1,237.47,312.11Z" fill="#73422a"/><path d="M237.79,312.14a4.58,4.58,0,1,1-4.58-4.58A4.56,4.56,0,0,1,237.79,312.14Z" fill="#ffe77d"/><path d="M236.2,311.77a3,3,0,1,1-3-3A3,3,0,0,1,236.2,311.77Z" fill="#ff5316"/><path d="M235.42,311.73a2.21,2.21,0,0,1-2.21,2.23,2.23,2.23,0,1,1,0-4.45A2.2,2.2,0,0,1,235.42,311.73Z" fill="#b26240" opacity="0.5" style="mix-blend-mode:screen"/><path d="M237.45,347.25l-.07-8.33c-.37-3.94-3.27-4.29-4.44-4.27s-4.07.33-4.46,4.27l-.06,8.33Z" fill="#ffe77d"/><path d="M236.76,346.35l-.06-7.06c-.31-3.32-2.78-3.62-3.76-3.62s-3.46.3-3.78,3.62l0,7.06Z" fill="#4d000e"/><path d="M237.45,396.63l-.07-8.31c-.37-3.94-3.27-4.3-4.44-4.3s-4.07.36-4.46,4.3l-.06,8.31Z" fill="#ffe77d"/><path d="M236.76,395.74l-.06-7c-.31-3.34-2.78-3.65-3.76-3.64s-3.46.3-3.78,3.64l0,7Z" fill="#0f0600"/><path d="M230.83,510.53h0A18.43,18.43,0,0,1,249.27,529v39.78a0,0,0,0,1,0,0H212.4a0,0,0,0,1,0,0V529A18.43,18.43,0,0,1,230.83,510.53Z" fill="#fee57c"/><path d="M230.83,512.77h0A16.28,16.28,0,0,1,247.11,529v39.69a0,0,0,0,1,0,0H214.55a0,0,0,0,1,0,0V529A16.28,16.28,0,0,1,230.83,512.77Z" fill="#b82010"/><path d="M237.46,526.68h0a9.65,9.65,0,0,1,9.65,9.65v32.4a0,0,0,0,1,0,0h-19.3a0,0,0,0,1,0,0v-32.4A9.65,9.65,0,0,1,237.46,526.68Z" fill="#4d000e"/></g></g></svg>