<svg id="f693e3ba-553e-4a8c-b0c2-7cbeb7617e36" data-name="Layer 1" xmlns="http://www.w3.org/2000/svg" xmlns:xlink="http://www.w3.org/1999/xlink" width="865.76" height="682.89" viewBox="0 0 865.76 682.89"><defs><clipPath id="a16893c0-8cc1-46d8-9750-70d7c84e08ad"><path id="af83f336-43af-4cef-955b-5b6f3d4076f6" data-name="SVGID" d="M648.76,574.43c1,12.15,5.16,61,6.26,74H705.6c1.13-13.34,5.22-61.61,6.26-74Z" fill="#aac8f9" stroke="#6259b0" stroke-miterlimit="10"/></clipPath><clipPath id="a9f25c5f-780a-40d5-a3e8-8f28020e7bb5"><path id="bbf4396e-81c0-4fbe-92b7-a3a16db544b6" data-name="SVGID" d="M515.17,377.28l5.53,66.31s1.49,10.93,6.31,19.94a101.73,101.73,0,0,1,7.65,17.88c5.94,19.11,16.67,56.9,19.56,88.9l-.74,14.36,28.37-4.42s2.21-77-9.21-105.72L566,427l-4.79-48.26-8.84-16.94-15.47.74Z" fill="#f9c7a5" stroke="#351d66" stroke-miterlimit="10"/></clipPath><clipPath id="af4799e6-a9fc-49b0-98fc-eeceb0a51907"><path id="b185d648-78d7-4896-ace7-4fc1fc0ccee7" data-name="SVGID" d="M546.36,617.58s4.42-21-16.58-21c0,0,25.42-8.84,26.9-30.2,0,0-.74-3,6.63-1.11l5.52-.37s5.16-1.84,2.95,6.27l-4,9.94a23.72,23.72,0,0,0,3.21-3.56,6,6,0,0,1,3.77-2.36c3-.57,8.12-1.81,11.44-4.19a.49.49,0,0,1,.78.38c.23,3.71,1.31,17.35,5.11,23.36C592,594.74,575.09,610.58,546.36,617.58Z" fill="#686175" data-primary="true" stroke="#351d66" stroke-miterlimit="10"/></clipPath><clipPath id="fbfacddc-46fd-4095-83e0-fe537f1d3cf1"><path id="a862a637-5421-43a4-9d15-e7d29b916b56" data-name="SVGID" d="M592,602.62v-7.48a.17.17,0,0,0-.29-.13c-2.31,2.1-18.51,16.11-45.39,22.57,0,0,4-20.63-16.58-21,0,0-24.31,3.69-22.47,19.53,0,0,1.8,17.26,39.15,10.21a27.07,27.07,0,0,0,2.95-.74c5.36-1.64,23.37-7.54,39.22-17A7,7,0,0,0,592,602.62Z" fill="#e6e7e8" stroke="#351d66" stroke-miterlimit="10"/></clipPath><clipPath id="e9a010e7-6b9c-4ecf-9568-eddbe786c131"><path id="bf536101-ccdb-4965-93c6-c1b7f5840b66" data-name="SVGID" d="M507.8,284.08,506.37,373a3.07,3.07,0,0,0,2.4,3c7.5,1.66,30.42,6,43.24.53v2.95s50.86-2.84,65.69-.63a2.66,2.66,0,0,0,3-2.47c.86-13.72,3.14-69.49-14.22-97.46Z" fill="#f48225" data-secondary="true" stroke="#351d66" stroke-miterlimit="10"/></clipPath><clipPath id="b9287485-7ebd-4a9e-864e-2cc431243f9f"><path id="a0e1a94f-0363-4b15-aa20-b7361513a796" data-name="SVGID" d="M649.88,208c-5,1.71-17.82,7.65-20.68,23.91a.73.73,0,0,1-1.2.43l-13-11.29s.73,59.68-11.79,59.31c0,0-40.52,11.05-85.46,7.36,0,0-14.36,3.32-14.36-19.52l-.2-12.78L503,244.67s-3.32-20.26,2.57-29.84c0,0,9.21-17.32-4.41-29.84,0,0,2.73-9.22,8.57-16.23,2.27-.62,5.86-2.16,7-5.89a15.49,15.49,0,0,1,6.89-1.83s13.27-2.57,20.63-.73c0,0,49.37-8.84,71.83,11.05L650.37,206A1.25,1.25,0,0,1,649.88,208Z" fill="#686175" data-primary="true" stroke="#351d66" stroke-miterlimit="10"/></clipPath><clipPath id="ec0d87cd-2905-41f3-9456-2dec2a16ae80"><path id="a6af18ce-e81b-4ca9-87fc-0e406d402480" data-name="SVGID" d="M587.38,159.94c-13.72,18.95-35,17.33-39.62,16.72a4.07,4.07,0,0,1-3-2c-1.77-3.12-1.26-9-.82-12.19a2.57,2.57,0,0,1,2.15-2.21c8.28-1.14,7-14.87,6.72-17,4.92,5.22,11.16,8.5,18.09,8.87a26.43,26.43,0,0,0,17.78-5.88C586.56,150.76,587.38,159.94,587.38,159.94Z" fill="#f9c7a5" stroke="#351d66" stroke-miterlimit="10"/></clipPath><clipPath id="af3ce78d-8cd1-4a3c-821e-783d9c80afc7"><path id="a1d88fa3-6994-417b-aea9-1b8e1c22c9ec" data-name="SVGID" d="M557.81,76.58s-.64-20.89,12.62-16.83c0,0,4.42,1.84,12.52-4.79,0,0,14-9.58,29.47.36,0,0,8.37,4.19,14.28,20.68a40.81,40.81,0,0,1,1.36,4.62c.59,2.51,3.1,9.1,13.46,11.17,0,0-13.26,1.85-17.31-15.1,0,0-8.1-33.89-40.15-18.79,0,0,30.2-10.68,37.2,16.95,0,0,2.1,20.63,27.77,23.05a18,18,0,0,1,7.34,2.29c4.18,2.47,8,7.31-.6,15.7-.1.09-.26,0-.19-.14,1.59-2.92,6.48-13.72-7-15.79-.06,0-.09.07,0,.09,2.2.93,12.64,5.94,4,14.21,0,0-4.64,5,1.11,8.62a11.63,11.63,0,0,0,2.61,1.2c3.08,1,13.64,5.37-.4,13,0,0-3.77,2.06-1.06,7.49a7.23,7.23,0,0,1,.67,1.91c.53,2.84.26,9.2-13.61,7.18,0,0,.74,9.95-18.42,11.79,0,0-3.68,11.05-22.84,5.15,0,0-9.2-2.57-13.25-10.68,0,0-.77-8.19,1.27-13.67,0,0,7.07-5.36,10.27-12.73l6.23-16s-6.87-1-8.94,9.23a31.91,31.91,0,0,1,.28-10.17A9.2,9.2,0,0,0,588,105.8h-.26s-7.75,2-8.43-7.8A11.62,11.62,0,0,0,578,93.22a7.12,7.12,0,0,0-2.67-2.91,5.49,5.49,0,0,1-2.9-3.64,10.5,10.5,0,0,1,.31-4.78,4.8,4.8,0,0,0-1-4.34C569.63,75,565.41,72.42,557.81,76.58Z" fill="#f48225" data-secondary="true" stroke="#351d66" stroke-miterlimit="10"/></clipPath><clipPath id="e5dcff6a-3114-4768-8b25-7562363f2e44"><path id="fa9b8e57-3c5e-4467-8717-9f5bde91bd29" data-name="SVGID" d="M563.43,60.11s-20.41-10.37-23,10A33.16,33.16,0,0,1,537,81.62c-3,5.67-8.49,12.41-17.77,13.86,0,0-19.15,2.58-12.89,18.42,0,0,3.32,8.84,14,6.63,0,0-5.89,14,6.63,18.78,0,0-10.68,14.37,4.42,16.95l19.16,1.1s4.11-6.81,2.24-14.08a59.26,59.26,0,0,1-4.53-6.41,32.63,32.63,0,0,1-3.49-27.3,19,19,0,0,1,1-2.38,38.54,38.54,0,0,0,2.47-6.08C549.4,97,551,90.94,551.27,87.74c0,0,.74-7,6.27-11.07C557.54,76.67,556.06,66.74,563.43,60.11Z" fill="#f48225" data-secondary="true" stroke="#351d66" stroke-miterlimit="10"/></clipPath><clipPath id="a6d798f4-bd9f-4171-8697-c2e24dc0e270"><path id="e82cc877-3fe8-4cf8-ae61-3171456ded9e" data-name="SVGID" d="M629.62,230.32l11.51,9.76a1.41,1.41,0,0,1-.18,2.29C635,246,615.12,258.2,607.63,263.82c0,0-6.26,2.95-4.42,12.16,0,0,2.52,17.61,2.44,23.86a2.28,2.28,0,0,0,2.47,2.31c1.6-.14,3.53-1,4.67-4.07a13.71,13.71,0,0,1,3.64,8,2.29,2.29,0,0,0,3.73,1.49c3.07-2.58,7-7.63,7.37-16.76a10.63,10.63,0,0,0-1.1-5.17c-2.36-4.73-7.55-15.61-5.54-15.89,0,0,54.28-7.42,59.44-22.4,0,0,3-12-8.42-20.47-.6-.45-1.2-.89-1.76-1.37l-20.27-17.43S634.47,211.81,629.62,230.32Z" fill="#f9c7a5" stroke="#351d66" stroke-miterlimit="10"/></clipPath><clipPath id="b2346502-f09e-4517-9590-7a92719fff25"><path id="f923f586-b1c8-42cb-b262-3d4b1f7a6acf" data-name="SVGID" d="M515.21,155.23a8.6,8.6,0,0,1,1.8,6.55,8.29,8.29,0,0,1-.26,1.09c-1.14,3.73-4.73,5.27-7,5.89a13.5,13.5,0,0,1-1.6.34.32.32,0,0,1-.37-.3l-.26-3.26a.33.33,0,0,0-.62-.13c-4.13,7.87-8.38,8.05-9.72,7.88a.34.34,0,0,0-.38.37l1.7,13.85a.33.33,0,0,0,.59.17l1.86-2.4a.34.34,0,0,1,.5,0c13.23,12.5,4.14,29.59,4.14,29.59-5.78,9.4-2.7,29.08-2.58,29.82v0l.16,10.57a.32.32,0,0,1-.17.3c-6,3.28-14.09,2.1-14.69,2l-.07,0c-18.57-7-7.91-75.32-7.71-76.59a.08.08,0,0,0,0,0c-.35-6.12,3.14-13.62,3.3-14l0,0,10.16-16a42.64,42.64,0,0,0,2.61-5c2.12-4.59,7.09-4,7.11-4h0c10.74,2.35,24.84-2.34,27.26-3.19a.32.32,0,0,1,.42.26c.74,7.06-17.74,9.19-17.74,9.19C510.29,148.15,513.24,152.65,515.21,155.23Z" fill="#f9c7a5" stroke="#351d66" stroke-miterlimit="10"/></clipPath><clipPath id="a0a49576-397c-4349-b74b-4c13ed9cf92f"><path id="ee216bcc-22f3-4958-a726-7ed9ccdbae1d" data-name="SVGID" d="M564.53,627.41s4.42-21-16.57-21c0,0,25.41-8.84,26.89-30.21,0,0-.74-3,6.63-1.1l5.52-.37s5.16-1.84,3,6.26l-4.05,10a24.11,24.11,0,0,0,3.21-3.57,6,6,0,0,1,3.77-2.36c3-.56,8.12-1.81,11.44-4.19a.51.51,0,0,1,.79.38c.22,3.71,1.3,17.35,5.1,23.37C610.21,604.57,593.27,620.41,564.53,627.41Z" fill="#686175" data-primary="true" stroke="#351d66" stroke-miterlimit="10"/></clipPath><clipPath id="a252ac4a-73a1-4a92-9ed2-c03a8e193cb6"><path id="adf34679-432e-45ca-92b1-c7f8986646be" data-name="SVGID" d="M610.21,612.45V605a.17.17,0,0,0-.29-.13c-2.31,2.1-18.5,16.11-45.39,22.58,0,0,4.06-20.63-16.57-21,0,0-24.32,3.68-22.47,19.52,0,0,1.79,17.26,39.14,10.22a29.77,29.77,0,0,0,3-.74c5.35-1.65,23.36-7.54,39.22-17A7,7,0,0,0,610.21,612.45Z" fill="#e6e7e8" stroke="#351d66" stroke-miterlimit="10"/></clipPath><clipPath id="ad1cf29e-c46a-4635-8e60-f84f6bb501c4"><path id="f6ae145b-3606-4362-afc8-66c3fe3543c8" data-name="SVGID" d="M445.75,445.78c5,.57,14.44-6.37,17.08-13.73.17-.5-1.31-5.29-2.84-11.18-.92-3.58-1.85-7.59-2.44-11.32-.12-.76-22.44,9.37-22.44,9.37s3.53,7.43,4.51,13.93a8.22,8.22,0,0,1,.08,1.55c0,.07,0,.16,0,.26C439.7,437.63,440.4,445.17,445.75,445.78Z" fill="#f9c7a5" stroke="#351d66" stroke-miterlimit="10"/></clipPath></defs><path d="M682.48,518c-43.06-51.31-104.16,23.68-61.82,45.82,27.53,8.76,27-38.9,38-45.94C666.78,512.71,677.47,515,682.48,518Z" fill="#aac8f9"/><path d="M614,527.19c4-2.82,8.34-5.56,13.2-6.65A37.47,37.47,0,0,1,641,509.79a29.55,29.55,0,0,0-14.76.85c4-2.24,11.51-2.67,16.69-1.62a39.72,39.72,0,0,1,8.73-2.31c-4.19-1.95-10.18-1.81-13.85-2.39,16.59,1.7,38,.2,48,16.41,10.19,21.12,5.48,50.43,2.89,73.18-.15.83-1.31.56-1.26-.23,1.11-17.65,2.1-35.37,1-53,.67-21.1-18.21-35.39-38.44-31.27.27,3.78-2.26,9.42-4.91,11,2.58-2.89,3.36-7,3.67-10.77a38.68,38.68,0,0,0-15.66,7.13c4,4.89,6.54,13.12,5.82,18.63-.35-6.49-3.19-12.56-6.71-17.92a40.48,40.48,0,0,0-9.41,10.9c4.69,6.45,7.08,16.63,7.29,23.68-.78-8.21-4.57-15.66-7.56-23.2A37.69,37.69,0,0,0,617.9,542c.13-6.28,4.2-14.6,8.27-20.23C621.94,522.65,617.06,525.71,614,527.19Z" fill="#251860"/><path d="M635.34,530.3c1.13,5.62,3.34,12.17,2.3,17.59C637.69,542.25,635.83,535,635.34,530.3Z" fill="#1a2e35"/><path d="M668,494.18c-6.13-62.93-74.55-56.82-46.86-16.16C633.37,489.89,653,484.53,668,494.18Z" fill="#aac8f9"/><path d="M625.89,455.31a84.33,84.33,0,0,1,20.2,11.24c-1.81-5.05-6.17-10.26-8.82-13.83,4.12,4.26,8.23,9,10.07,14.75a81.55,81.55,0,0,1,12.49,12.15c-1.05-5.48-4.24-11.87-6.15-16.15,3.56,5.69,6.81,11.63,8,18.32,19.78,24.66,25.61,62.89,19.22,91.57,2.55-29.75-1.3-61.31-18.32-86.58-4.35-1.3-11.09-2.14-14-4.64,4.05,2.39,8.81,2.63,13.31,3.61a96.13,96.13,0,0,0-5.94-7.81c-9.88,1-21.74-2.21-29.39-7,8.56,4.87,18.89,5.7,28.54,6A80.38,80.38,0,0,0,625.89,455.31Z" fill="#251860"/><path d="M646.7,455.42c2.21,2.89,4.71,6.57,5.28,10C650.75,462,647.93,457.94,646.7,455.42Z" fill="#1a2e35"/><path d="M622.93,466.87c3.11,1.93,7.54,2.65,10.55,3.77C630.12,470.19,624.77,468.87,622.93,466.87Z" fill="#1a2e35"/><path d="M686.48,489.11c.16,1.49,3.86-12.48,25.48-24.88C798.9,400.69,677.36,356.91,686.48,489.11Z" fill="#aac8f9"/><path d="M671.6,569.2c1-32.53,4.22-65.89,18-95.78A131.12,131.12,0,0,1,692,448.59a122.82,122.82,0,0,0-1.11,22.11c2-4.29,4.21-8.52,6.57-12.64-1.46-9,.44-18.33,2.27-27.09a156.85,156.85,0,0,0-1.06,25,190.37,190.37,0,0,1,10.55-16.05c-.67-9,3.36-19.83,7.51-26.7-4,7.7-5.11,16.49-6.23,25a166.18,166.18,0,0,1,15.13-17.61c-7.23,9.41-16.39,20.14-22.48,31.3,7.56-3.83,16.08-9.25,23.08-12.31C710.71,452,702.58,446.92,695,467.43c22.78-14.1,18.83-8.89-.58,1.23-20.3,45-21.67,95.73-20.81,144.32C670.85,600.22,671.76,583.34,671.6,569.2Z" fill="#251860"/><path d="M710.87,452.58c7.84-3.32,15.59-8.4,22.46-12.76C726.8,445,718.27,450.58,710.87,452.58Z" fill="#1a2e35"/><path d="M704.61,423.46c.32-1.26.71-2.49,1.14-3.72a9,9,0,0,1,1.12-2.85,104.1,104.1,0,0,0-3.53,15.79C702.66,430.56,704.12,426.22,704.61,423.46Z" fill="#1a2e35"/><path d="M682.59,526.35c7.53-23.4,24.56-37.3,46.44-34.08,35.94,7.17,30.11,72.56-27.59,28.68C692.52,517.69,682.59,526.35,682.59,526.35Z" fill="#aac8f9"/><path d="M680.59,586.08c-3.64-27.53-9.78-65.58,21.28-79.54,5.11-7.37,16.56-10.22,24.3-9.37-8,.18-16.33,2.81-22.12,8.51a29.5,29.5,0,0,1,17.52-.87c5.27-1.89,13.21-.65,17.16,2A29.63,29.63,0,0,0,723,505.18c5.89,1.85,13.18,6.5,15.29,11.76-4.42-7-12.52-11.13-20.73-11.47,2.07,8.31,6,16.48,12,22.68-6.07-4.72-11.47-14.35-12.94-22.73a29.08,29.08,0,0,0-7.48.91c1.26,5.08,4.48,11,6.8,14.67-3.29-4.35-6.42-9-7.58-14.47-22.45,6.16-30.51,31.77-28,52.79C681,563.7,685.31,612.55,680.59,586.08Z" fill="#251860"/><path d="M694.8,509.66c2.39-3.22,6.82-8,10.27-8.43-4.31,1.55-7,5.52-10,8.66A.19.19,0,0,1,694.8,509.66Z" fill="#1a2e35"/><path d="M729.92,512.75c3.88,3.54,8.41,7.93,10.34,12.52C737.41,520.94,732.63,516.21,729.92,512.75Z" fill="#1a2e35"/><path d="M706.7,513.85c.59,2.69,3,5.2,4.19,7.11C709.07,519.43,706.28,515.72,706.7,513.85Z" fill="#1a2e35"/><path id="bd081727-f416-4da7-9a16-4078792e5ef2" data-name="SVGID" d="M648.76,574.43c1,12.15,5.16,61,6.26,74H705.6c1.13-13.34,5.22-61.61,6.26-74Z" fill="#aac8f9"/><g clip-path="url(#a16893c0-8cc1-46d8-9750-70d7c84e08ad)"><polygon points="648.76 574.42 650.3 592.71 710.32 592.71 711.86 574.42 648.76 574.42" fill="#d2e1f9"/></g><path id="efd5c4ad-bf27-4aa3-93e5-1d2f9146398c" data-name="SVGID" d="M648.76,574.43c1,12.15,5.16,61,6.26,74H705.6c1.13-13.34,5.22-61.61,6.26-74Z" fill="none" stroke="#6259b0" stroke-miterlimit="10"/><rect x="643.8" y="567.09" width="73.03" height="17.54" fill="#aac8f9" stroke="#6259b0" stroke-miterlimit="10"/><path id="bf3e2f50-e374-4c04-ad68-c5c3a29b1cbb" data-name="SVGID" d="M515.17,377.28l5.53,66.31s1.49,10.93,6.31,19.94a101.73,101.73,0,0,1,7.65,17.88c5.94,19.11,16.67,56.9,19.56,88.9l-.74,14.36,28.37-4.42s2.21-77-9.21-105.72L566,427l-4.79-48.26-8.84-16.94-15.47.74Z" fill="#f9c7a5"/><g clip-path="url(#a9f25c5f-780a-40d5-a3e8-8f28020e7bb5)"><path d="M552,379.49s3.59,58.39,8.28,73.31c0,0,23.34,93.89,14.65,126.62l9.21-1.78L561.22,378.75Z" fill="#f7a091"/></g><path id="aed3c076-3927-4b80-b73e-4995ffbe6b36" data-name="SVGID" d="M515.17,377.28l5.53,66.31s1.49,10.93,6.31,19.94a101.73,101.73,0,0,1,7.65,17.88c5.94,19.11,16.67,56.9,19.56,88.9l-.74,14.36,28.37-4.42s2.21-77-9.21-105.72L566,427l-4.79-48.26-8.84-16.94-15.47.74Z" fill="none" stroke="#351d66" stroke-miterlimit="10"/><path id="b21325ab-34c1-4b47-b658-4cfe28c6f9be" data-name="SVGID" d="M546.36,617.58s4.42-21-16.58-21c0,0,25.42-8.84,26.9-30.2,0,0-.74-3,6.63-1.11l5.52-.37s5.16-1.84,2.95,6.27l-4,9.94a23.72,23.72,0,0,0,3.21-3.56,6,6,0,0,1,3.77-2.36c3-.57,8.12-1.81,11.44-4.19a.49.49,0,0,1,.78.38c.23,3.71,1.31,17.35,5.11,23.36C592,594.74,575.09,610.58,546.36,617.58Z" fill="#686175" data-primary="true"/><g clip-path="url(#af4799e6-a9fc-49b0-98fc-eeceb0a51907)"><path d="M529.78,596.58s6.27-1.1,12.9,4.43c0,0,16.94-9.58,25.05-19.9,0,0,9.57-18.05,1.1-16.21l-7.37.37s-5.89-3.31-5.15,3.69C556.31,569,555.2,586.27,529.78,596.58Z" opacity="0.2"/></g><path id="eb7fd41d-dbe3-4517-a06b-755089c5b0ce" data-name="SVGID" d="M546.36,617.58s4.42-21-16.58-21c0,0,25.42-8.84,26.9-30.2,0,0-.74-3,6.63-1.11l5.52-.37s5.16-1.84,2.95,6.27l-4,9.94a23.72,23.72,0,0,0,3.21-3.56,6,6,0,0,1,3.77-2.36c3-.57,8.12-1.81,11.44-4.19a.49.49,0,0,1,.78.38c.23,3.71,1.31,17.35,5.11,23.36C592,594.74,575.09,610.58,546.36,617.58Z" fill="none" stroke="#351d66" stroke-miterlimit="10"/><path id="b5907ae0-7a8e-440d-ac09-36d8859a41d2" data-name="SVGID" d="M592,602.62v-7.48a.17.17,0,0,0-.29-.13c-2.31,2.1-18.51,16.11-45.39,22.57,0,0,4-20.63-16.58-21,0,0-24.31,3.69-22.47,19.53,0,0,1.8,17.26,39.15,10.21a27.07,27.07,0,0,0,2.95-.74c5.36-1.64,23.37-7.54,39.22-17A7,7,0,0,0,592,602.62Z" fill="#e6e7e8"/><g clip-path="url(#fbfacddc-46fd-4095-83e0-fe537f1d3cf1)"><path d="M511,608s7.73,15.48,35.91,6.08l-.55,3.5S516.34,627.16,511,608Z" fill="#d1d3d4"/></g><path id="bd36bb7f-fc8f-4c22-892b-45919fa6716f" data-name="SVGID" d="M592,602.62v-7.48a.17.17,0,0,0-.29-.13c-2.31,2.1-18.51,16.11-45.39,22.57,0,0,4-20.63-16.58-21,0,0-24.31,3.69-22.47,19.53,0,0,1.8,17.26,39.15,10.21a27.07,27.07,0,0,0,2.95-.74c5.36-1.64,23.37-7.54,39.22-17A7,7,0,0,0,592,602.62Z" fill="none" stroke="#351d66" stroke-miterlimit="10"/><path d="M622.64,534.27c2.2-1.74,6.7-3.9,8.8-3.28C628.39,531.24,625,533.53,622.64,534.27Z" fill="#1a2e35"/><path d="M616.47,379.12s-6.63,56-7.36,76.62c0,0,.37,7,1.47,18.05,0,0,8.1,23.58-3.68,78.84l-7,35-20.63,5.53V580.62s1.84-78.09-9.58-110.51c0,0-5.89-18.42-5.16-26.89l-7-64.1S611.69,374.7,616.47,379.12Z" fill="#f9c7a5" stroke="#351d66" stroke-miterlimit="10"/><path id="ec3c85dc-6d1b-41b3-8147-b7a52d056450" data-name="SVGID" d="M507.8,284.08,506.37,373a3.07,3.07,0,0,0,2.4,3c7.5,1.66,30.42,6,43.24.53v2.95s50.86-2.84,65.69-.63a2.66,2.66,0,0,0,3-2.47c.86-13.72,3.14-69.49-14.22-97.46Z" fill="#f48225" data-secondary="true"/><g clip-path="url(#e9a010e7-6b9c-4ecf-9568-eddbe786c131)"><path d="M507.8,284.08v10.39s48.43,5.1,77.14-3.37a8.8,8.8,0,0,1,10,3.75c11.57,18.55,41.12,74.95-21.21,83.24,0,0,39.78-1.1,47.88,2.21,0,0,.74-72.56-11.41-101.67Z" opacity="0.2"/><path d="M506.33,375.44l.32-7.24s32.62,10.76,38.48-12.93a20.58,20.58,0,0,0,.49-3.21c.13-1.7.62-4.93,2.36-6.32a1.06,1.06,0,0,1,1.73.74l2.3,30.06S536.11,383.78,506.33,375.44Z" opacity="0.2"/></g><path id="b7128ad0-22c7-4218-962c-28a3e1f9b019" data-name="SVGID" d="M507.8,284.08,506.37,373a3.07,3.07,0,0,0,2.4,3c7.5,1.66,30.42,6,43.24.53v2.95s50.86-2.84,65.69-.63a2.66,2.66,0,0,0,3-2.47c.86-13.72,3.14-69.49-14.22-97.46Z" fill="none" stroke="#351d66" stroke-miterlimit="10"/><path id="a3788146-2581-4cda-8ce5-ea4a1f0e8869" data-name="SVGID" d="M649.88,208c-5,1.71-17.82,7.65-20.68,23.91a.73.73,0,0,1-1.2.43l-13-11.29s.73,59.68-11.79,59.31c0,0-40.52,11.05-85.46,7.36,0,0-14.36,3.32-14.36-19.52l-.2-12.78L503,244.67s-3.32-20.26,2.57-29.84c0,0,9.21-17.32-4.41-29.84,0,0,2.73-9.22,8.57-16.23,2.27-.62,5.86-2.16,7-5.89a15.49,15.49,0,0,1,6.89-1.83s13.27-2.57,20.63-.73c0,0,49.37-8.84,71.83,11.05L650.37,206A1.25,1.25,0,0,1,649.88,208Z" fill="#686175" data-primary="true"/><g clip-path="url(#b9287485-7ebd-4a9e-864e-2cc431243f9f)"><path d="M613.67,270.74,615,221.09s-9.07,28.74-21.56,45.83a2.48,2.48,0,0,1-2.53,1h0a50.84,50.84,0,0,1-19.38-9.16c-27.39-20.52-38.38,1.94-38.38,1.94-13.93,12.85-30.53-.54-30.53-.54-12.32,14.46,4.82,32.14,4.82,32.14,10.95,9,87-8.14,103.84-12.08l2.15.42,0-.93,1.1-.27Z" opacity="0.2"/></g><path id="b8a3b8c2-8934-44de-bb98-0c22c767ab75" data-name="SVGID" d="M649.88,208c-5,1.71-17.82,7.65-20.68,23.91a.73.73,0,0,1-1.2.43l-13-11.29s.73,59.68-11.79,59.31c0,0-40.52,11.05-85.46,7.36,0,0-14.36,3.32-14.36-19.52l-.2-12.78L503,244.67s-3.32-20.26,2.57-29.84c0,0,9.21-17.32-4.41-29.84,0,0,2.73-9.22,8.57-16.23,2.27-.62,5.86-2.16,7-5.89a15.49,15.49,0,0,1,6.89-1.83s13.27-2.57,20.63-.73c0,0,49.37-8.84,71.83,11.05L650.37,206A1.25,1.25,0,0,1,649.88,208Z" fill="none" stroke="#351d66" stroke-miterlimit="10"/><path d="M516.75,162.87c-1.14,3.73-4.73,5.27-7,5.89A23.53,23.53,0,0,1,516.75,162.87Z" fill="#686175" data-primary="true" stroke="#351d66" stroke-miterlimit="10"/><path d="M604.48,113.14c-.77,14.14-7,26.29-15.83,33.13a26.43,26.43,0,0,1-17.78,5.88c-6.93-.37-13.17-3.65-18.09-8.87-7.38-7.84-11.78-20.08-11-33.59,1.23-22.49,16.28-40,33.61-39S605.72,90.65,604.48,113.14Z" fill="#f9c7a5" stroke="#351d66" stroke-miterlimit="10"/><path id="a2205057-2ac6-4c28-89f4-957bd8f873e5" data-name="SVGID" d="M587.38,159.94c-13.72,18.95-35,17.33-39.62,16.72a4.07,4.07,0,0,1-3-2c-1.77-3.12-1.26-9-.82-12.19a2.57,2.57,0,0,1,2.15-2.21c8.28-1.14,7-14.87,6.72-17,4.92,5.22,11.16,8.5,18.09,8.87a26.43,26.43,0,0,0,17.78-5.88C586.56,150.76,587.38,159.94,587.38,159.94Z" fill="#f9c7a5"/><g clip-path="url(#ec0d87cd-2905-41f3-9456-2dec2a16ae80)"><path d="M552.78,143.28s2.3,8.11-2.24,14.08c0,0,23.78,12.12,38.11-11.09C588.65,146.27,562.75,158.34,552.78,143.28Z" fill="#f7a091"/></g><path id="a7e13e84-383a-4ed5-b126-e18644a06d35" data-name="SVGID" d="M587.38,159.94c-13.72,18.95-35,17.33-39.62,16.72a4.07,4.07,0,0,1-3-2c-1.77-3.12-1.26-9-.82-12.19a2.57,2.57,0,0,1,2.15-2.21c8.28-1.14,7-14.87,6.72-17,4.92,5.22,11.16,8.5,18.09,8.87a26.43,26.43,0,0,0,17.78-5.88C586.56,150.76,587.38,159.94,587.38,159.94Z" fill="none" stroke="#351d66" stroke-miterlimit="10"/><path id="b4d99a49-38e5-486d-bc9e-de3a57ae5790" data-name="SVGID" d="M557.81,76.58s-.64-20.89,12.62-16.83c0,0,4.42,1.84,12.52-4.79,0,0,14-9.58,29.47.36,0,0,8.37,4.19,14.28,20.68a40.81,40.81,0,0,1,1.36,4.62c.59,2.51,3.1,9.1,13.46,11.17,0,0-13.26,1.85-17.31-15.1,0,0-8.1-33.89-40.15-18.79,0,0,30.2-10.68,37.2,16.95,0,0,2.1,20.63,27.77,23.05a18,18,0,0,1,7.34,2.29c4.18,2.47,8,7.31-.6,15.7-.1.09-.26,0-.19-.14,1.59-2.92,6.48-13.72-7-15.79-.06,0-.09.07,0,.09,2.2.93,12.64,5.94,4,14.21,0,0-4.64,5,1.11,8.62a11.63,11.63,0,0,0,2.61,1.2c3.08,1,13.64,5.37-.4,13,0,0-3.77,2.06-1.06,7.49a7.23,7.23,0,0,1,.67,1.91c.53,2.84.26,9.2-13.61,7.18,0,0,.74,9.95-18.42,11.79,0,0-3.68,11.05-22.84,5.15,0,0-9.2-2.57-13.25-10.68,0,0-.77-8.19,1.27-13.67,0,0,7.07-5.36,10.27-12.73l6.23-16s-6.87-1-8.94,9.23a31.91,31.91,0,0,1,.28-10.17A9.2,9.2,0,0,0,588,105.8h-.26s-7.75,2-8.43-7.8A11.62,11.62,0,0,0,578,93.22a7.12,7.12,0,0,0-2.67-2.91,5.49,5.49,0,0,1-2.9-3.64,10.5,10.5,0,0,1,.31-4.78,4.8,4.8,0,0,0-1-4.34C569.63,75,565.41,72.42,557.81,76.58Z" fill="#f48225" data-secondary="true"/><g clip-path="url(#af3ce78d-8cd1-4a3c-821e-783d9c80afc7)"><path d="M591.42,65.64s27.26,14,24.69,36.84c0,0-.63,13.68,8.13,19.62a12.8,12.8,0,0,1,5.59,9.11c.46,4.14-1.2,8.84-9.67,11,0,0-16.95,2.21,3.31,23.21l3.32-.37s-12.89-15.84-1.48-18c0,0,15-5.58,12.42-15.69a10.66,10.66,0,0,0-3-5c-3.3-3.22-12.25-13.22-13.15-27.61C621.63,98.79,625.31,76,591.42,65.64Z" opacity="0.2"/><path d="M641.89,153.68s-11-9.58,0-11.05l11.42-1.11,1.11-3.68S620.89,139.31,641.89,153.68Z" opacity="0.2"/></g><path id="a1c57340-ff3b-4340-8615-f354451368cd" data-name="SVGID" d="M557.81,76.58s-.64-20.89,12.62-16.83c0,0,4.42,1.84,12.52-4.79,0,0,14-9.58,29.47.36,0,0,8.37,4.19,14.28,20.68a40.81,40.81,0,0,1,1.36,4.62c.59,2.51,3.1,9.1,13.46,11.17,0,0-13.26,1.85-17.31-15.1,0,0-8.1-33.89-40.15-18.79,0,0,30.2-10.68,37.2,16.95,0,0,2.1,20.63,27.77,23.05a18,18,0,0,1,7.34,2.29c4.18,2.47,8,7.31-.6,15.7-.1.09-.26,0-.19-.14,1.59-2.92,6.48-13.72-7-15.79-.06,0-.09.07,0,.09,2.2.93,12.64,5.94,4,14.21,0,0-4.64,5,1.11,8.62a11.63,11.63,0,0,0,2.61,1.2c3.08,1,13.64,5.37-.4,13,0,0-3.77,2.06-1.06,7.49a7.23,7.23,0,0,1,.67,1.91c.53,2.84.26,9.2-13.61,7.18,0,0,.74,9.95-18.42,11.79,0,0-3.68,11.05-22.84,5.15,0,0-9.2-2.57-13.25-10.68,0,0-.77-8.19,1.27-13.67,0,0,7.07-5.36,10.27-12.73l6.23-16s-6.87-1-8.94,9.23a31.91,31.91,0,0,1,.28-10.17A9.2,9.2,0,0,0,588,105.8h-.26s-7.75,2-8.43-7.8A11.62,11.62,0,0,0,578,93.22a7.12,7.12,0,0,0-2.67-2.91,5.49,5.49,0,0,1-2.9-3.64,10.5,10.5,0,0,1,.31-4.78,4.8,4.8,0,0,0-1-4.34C569.63,75,565.41,72.42,557.81,76.58Z" fill="none" stroke="#351d66" stroke-miterlimit="10"/><path id="f06ae759-c760-464f-a01c-f40d2f7445a2" data-name="SVGID" d="M563.43,60.11s-20.41-10.37-23,10A33.16,33.16,0,0,1,537,81.62c-3,5.67-8.49,12.41-17.77,13.86,0,0-19.15,2.58-12.89,18.42,0,0,3.32,8.84,14,6.63,0,0-5.89,14,6.63,18.78,0,0-10.68,14.37,4.42,16.95l19.16,1.1s4.11-6.81,2.24-14.08a59.26,59.26,0,0,1-4.53-6.41,32.63,32.63,0,0,1-3.49-27.3,19,19,0,0,1,1-2.38,38.54,38.54,0,0,0,2.47-6.08C549.4,97,551,90.94,551.27,87.74c0,0,.74-7,6.27-11.07C557.54,76.67,556.06,66.74,563.43,60.11Z" fill="#f48225" data-secondary="true"/><g clip-path="url(#e5dcff6a-3114-4768-8b25-7562363f2e44)"><path d="M513.33,120.16s5.36-10.23,14.11-15.15a41.81,41.81,0,0,0,10.28-8.09c3.12-3.4,6.23-7.59,6.92-11.39a33.52,33.52,0,0,1-8.86,17.91,30.88,30.88,0,0,1-7.21,5.43c-3.06,1.71-9.07,5.85-8.24,11.66Z" opacity="0.2"/></g><path id="b8998117-65ae-4bf2-ad4a-005c489d11e4" data-name="SVGID" d="M563.43,60.11s-20.41-10.37-23,10A33.16,33.16,0,0,1,537,81.62c-3,5.67-8.49,12.41-17.77,13.86,0,0-19.15,2.58-12.89,18.42,0,0,3.32,8.84,14,6.63,0,0-5.89,14,6.63,18.78,0,0-10.68,14.37,4.42,16.95l19.16,1.1s4.11-6.81,2.24-14.08a59.26,59.26,0,0,1-4.53-6.41,32.63,32.63,0,0,1-3.49-27.3,19,19,0,0,1,1-2.38,38.54,38.54,0,0,0,2.47-6.08C549.4,97,551,90.94,551.27,87.74c0,0,.74-7,6.27-11.07C557.54,76.67,556.06,66.74,563.43,60.11Z" fill="none" stroke="#351d66" stroke-miterlimit="10"/><path id="b343fbbf-f215-49ef-b83b-cb5a42f0bf47" data-name="SVGID" d="M629.62,230.32l11.51,9.76a1.41,1.41,0,0,1-.18,2.29C635,246,615.12,258.2,607.63,263.82c0,0-6.26,2.95-4.42,12.16,0,0,2.52,17.61,2.44,23.86a2.28,2.28,0,0,0,2.47,2.31c1.6-.14,3.53-1,4.67-4.07a13.71,13.71,0,0,1,3.64,8,2.29,2.29,0,0,0,3.73,1.49c3.07-2.58,7-7.63,7.37-16.76a10.63,10.63,0,0,0-1.1-5.17c-2.36-4.73-7.55-15.61-5.54-15.89,0,0,54.28-7.42,59.44-22.4,0,0,3-12-8.42-20.47-.6-.45-1.2-.89-1.76-1.37l-20.27-17.43S634.47,211.81,629.62,230.32Z" fill="#f9c7a5"/><g clip-path="url(#a6d798f4-bd9f-4171-8697-c2e24dc0e270)"><path d="M641,242.37s6.84,1.64,11.26-2.05" fill="none" stroke="#f7a091" stroke-miterlimit="10"/><path d="M635.88,235.53l-6.26-5.21s3.07-17.1,20.26-22.27C649.88,208.05,635.14,218.59,635.88,235.53Z" fill="#f7a091"/><path d="M612.79,298.08s-.24-3.85-2.7-5.57" fill="none" stroke="#f7a091" stroke-miterlimit="10"/><path d="M623.6,302.82s.49-4.66-3.93-10.07" fill="none" stroke="#f7a091" stroke-miterlimit="10"/></g><path id="aee140c5-fcfd-4f93-adb1-af5ceb73a780" data-name="SVGID" d="M629.62,230.32l11.51,9.76a1.41,1.41,0,0,1-.18,2.29C635,246,615.12,258.2,607.63,263.82c0,0-6.26,2.95-4.42,12.16,0,0,2.52,17.61,2.44,23.86a2.28,2.28,0,0,0,2.47,2.31c1.6-.14,3.53-1,4.67-4.07a13.71,13.71,0,0,1,3.64,8,2.29,2.29,0,0,0,3.73,1.49c3.07-2.58,7-7.63,7.37-16.76a10.63,10.63,0,0,0-1.1-5.17c-2.36-4.73-7.55-15.61-5.54-15.89,0,0,54.28-7.42,59.44-22.4,0,0,3-12-8.42-20.47-.6-.45-1.2-.89-1.76-1.37l-20.27-17.43S634.47,211.81,629.62,230.32Z" fill="none" stroke="#351d66" stroke-miterlimit="10"/><ellipse cx="602.79" cy="125.67" rx="8.84" ry="6.12" transform="translate(289.89 655.99) rotate(-71.24)" fill="#f9c7a5" stroke="#351d66" stroke-miterlimit="10"/><path id="f291e6c2-0339-470a-a08f-b4ef06a577a7" data-name="SVGID" d="M515.21,155.23a8.6,8.6,0,0,1,1.8,6.55,8.29,8.29,0,0,1-.26,1.09c-1.14,3.73-4.73,5.27-7,5.89a13.5,13.5,0,0,1-1.6.34.32.32,0,0,1-.37-.3l-.26-3.26a.33.33,0,0,0-.62-.13c-4.13,7.87-8.38,8.05-9.72,7.88a.34.34,0,0,0-.38.37l1.7,13.85a.33.33,0,0,0,.59.17l1.86-2.4a.34.34,0,0,1,.5,0c13.23,12.5,4.14,29.59,4.14,29.59-5.78,9.4-2.7,29.08-2.58,29.82v0l.16,10.57a.32.32,0,0,1-.17.3c-6,3.28-14.09,2.1-14.69,2l-.07,0c-18.57-7-7.91-75.32-7.71-76.59a.08.08,0,0,0,0,0c-.35-6.12,3.14-13.62,3.3-14l0,0,10.16-16a42.64,42.64,0,0,0,2.61-5c2.12-4.59,7.09-4,7.11-4h0c10.74,2.35,24.84-2.34,27.26-3.19a.32.32,0,0,1,.42.26c.74,7.06-17.74,9.19-17.74,9.19C510.29,148.15,513.24,152.65,515.21,155.23Z" fill="#f9c7a5"/><g clip-path="url(#b2346502-f09e-4517-9590-7a92719fff25)"><path d="M497.18,173.29s8.79-4.43,8.42-11.43c0,0,3.68-1.1,4,3.68,0,0,9.21.74,3.32-14.36,0,0,11.25,12.33-3.22,17.58l-2,0-.26-3.26S503.32,173.31,497.18,173.29Z" fill="#f7a091"/><path d="M479.81,244.38s2.61,5.7,6.3,7.68a4.69,4.69,0,0,0,6.67-2.9c.55-1.89,1.64-4.75,3.46-6.09a5.28,5.28,0,0,0,2.11-5.45c-1.36-5.76-2.81-15.12.62-19.77,0,0,8.75-12.1,2-32.57,0,0,13.48,7.75,4.64,29.55,0,0-4.78,5.23-3.31,16.28l.9,24.15s-4.65,4.41-14.93,2.29C488.25,257.55,480.55,254.32,479.81,244.38Z" fill="#f7a091"/></g><path id="a730ba98-9912-462f-919a-80d9d590bb6c" data-name="SVGID" d="M515.21,155.23a8.6,8.6,0,0,1,1.8,6.55,8.29,8.29,0,0,1-.26,1.09c-1.14,3.73-4.73,5.27-7,5.89a13.5,13.5,0,0,1-1.6.34.32.32,0,0,1-.37-.3l-.26-3.26a.33.33,0,0,0-.62-.13c-4.13,7.87-8.38,8.05-9.72,7.88a.34.34,0,0,0-.38.37l1.7,13.85a.33.33,0,0,0,.59.17l1.86-2.4a.34.34,0,0,1,.5,0c13.23,12.5,4.14,29.59,4.14,29.59-5.78,9.4-2.7,29.08-2.58,29.82v0l.16,10.57a.32.32,0,0,1-.17.3c-6,3.28-14.09,2.1-14.69,2l-.07,0c-18.57-7-7.91-75.32-7.71-76.59a.08.08,0,0,0,0,0c-.35-6.12,3.14-13.62,3.3-14l0,0,10.16-16a42.64,42.64,0,0,0,2.61-5c2.12-4.59,7.09-4,7.11-4h0c10.74,2.35,24.84-2.34,27.26-3.19a.32.32,0,0,1,.42.26c.74,7.06-17.74,9.19-17.74,9.19C510.29,148.15,513.24,152.65,515.21,155.23Z" fill="none" stroke="#351d66" stroke-miterlimit="10"/><path id="b1a5e10e-45fd-444f-8866-da6efaf9a7d8" data-name="SVGID" d="M564.53,627.41s4.42-21-16.57-21c0,0,25.41-8.84,26.89-30.21,0,0-.74-3,6.63-1.1l5.52-.37s5.16-1.84,3,6.26l-4.05,10a24.11,24.11,0,0,0,3.21-3.57,6,6,0,0,1,3.77-2.36c3-.56,8.12-1.81,11.44-4.19a.51.51,0,0,1,.79.38c.22,3.71,1.3,17.35,5.1,23.37C610.21,604.57,593.27,620.41,564.53,627.41Z" fill="#686175" data-primary="true"/><g clip-path="url(#a0a49576-397c-4349-b74b-4c13ed9cf92f)"><path d="M548,606.41s6.26-1.11,12.89,4.42c0,0,16.95-9.58,25-19.89,0,0,9.58-18.05,1.1-16.21l-7.36.37s-5.9-3.32-5.16,3.68C574.48,578.78,573.37,596.09,548,606.41Z" opacity="0.2"/></g><path id="bfbc7e59-b936-4d96-8bb6-8b25d3785a51" data-name="SVGID" d="M564.53,627.41s4.42-21-16.57-21c0,0,25.41-8.84,26.89-30.21,0,0-.74-3,6.63-1.1l5.52-.37s5.16-1.84,3,6.26l-4.05,10a24.11,24.11,0,0,0,3.21-3.57,6,6,0,0,1,3.77-2.36c3-.56,8.12-1.81,11.44-4.19a.51.51,0,0,1,.79.38c.22,3.71,1.3,17.35,5.1,23.37C610.21,604.57,593.27,620.41,564.53,627.41Z" fill="none" stroke="#351d66" stroke-miterlimit="10"/><path id="f1f72ce1-9ad6-4f7c-a27c-809d2f1a8781" data-name="SVGID" d="M610.21,612.45V605a.17.17,0,0,0-.29-.13c-2.31,2.1-18.5,16.11-45.39,22.58,0,0,4.06-20.63-16.57-21,0,0-24.32,3.68-22.47,19.52,0,0,1.79,17.26,39.14,10.22a29.77,29.77,0,0,0,3-.74c5.35-1.65,23.36-7.54,39.22-17A7,7,0,0,0,610.21,612.45Z" fill="#e6e7e8"/><g clip-path="url(#a252ac4a-73a1-4a92-9ed2-c03a8e193cb6)"><path d="M529.17,617.83s7.74,15.47,35.92,6.08l-.56,3.5S534.51,637,529.17,617.83Z" fill="#d1d3d4"/></g><path id="b6290f3d-0083-4d99-8374-6b564bae9103" data-name="SVGID" d="M610.21,612.45V605a.17.17,0,0,0-.29-.13c-2.31,2.1-18.5,16.11-45.39,22.58,0,0,4.06-20.63-16.57-21,0,0-24.32,3.68-22.47,19.52,0,0,1.79,17.26,39.14,10.22a29.77,29.77,0,0,0,3-.74c5.35-1.65,23.36-7.54,39.22-17A7,7,0,0,0,610.21,612.45Z" fill="none" stroke="#351d66" stroke-miterlimit="10"/><ellipse cx="555.15" cy="104" rx="2.72" ry="1.63" transform="translate(303.8 609.79) rotate(-74.18)" fill="#351d66"/><ellipse cx="578.11" cy="110.67" rx="2.72" ry="1.63" transform="translate(174.37 538.98) rotate(-57.53)" fill="#351d66"/><path d="M559.32,110.48s-2.86,9.39,1.95,9" fill="none" stroke="#351d66" stroke-miterlimit="10"/><path d="M553.7,129.09s9.88,5.35,18.88-1.57" fill="none" stroke="#351d66" stroke-miterlimit="10"/><path d="M425.68,21.23H142.89c-15.79,0-28.6,13-28.6,29.14V632.52c0,16.08,12.81,29.14,28.6,29.14H425.68c15.8,0,28.63-13.06,28.63-29.14V50.37A28.89,28.89,0,0,0,425.68,21.23Zm10.75,593.29c0,15.32-11.47,27.72-25.62,27.72h-253c-14.18,0-25.66-12.4-25.66-27.72V72.44c0-31.22,11.48-32.74,25.66-32.74h50.67c3,0,5.35,3.35,5.35,7.49V49c0,9.72,5.32,9.76,11.86,9.76h117.2c6.59,0,11.86,0,11.86-9.76V47.19c0-4.14,2.38-7.49,5.37-7.49h50.69c14.15,0,25.62,4.15,25.62,32.74Z" fill="#aac8f9" stroke="#6259b0" stroke-miterlimit="10"/><path d="M300.28,46.6h-32a2,2,0,0,1-2-2h0a2,2,0,0,1,2-2h32a2,2,0,0,1,2,2h0A2,2,0,0,1,300.28,46.6Z" fill="#fff"/><path d="M436.43,72.44V614.52c0,15.32-11.47,27.72-25.62,27.72h-253c-14.18,0-25.66-12.4-25.66-27.72V72.44c0-31.22,11.48-32.74,25.66-32.74h50.67c3,0,5.35,3.35,5.35,7.49V49c0,9.72,5.32,9.76,11.86,9.76h117.2c6.59,0,11.86,0,11.86-9.76V47.19c0-4.14,2.38-7.49,5.37-7.49h50.69C425,39.7,436.43,43.85,436.43,72.44Z" fill="#fff"/><path d="M427.9,44.41H355.13c.78-2.76,2.71-4.72,5-4.72h50.7C417.38,39.69,423.37,40.59,427.9,44.41Z" fill="#dcdcdc"/><path d="M132.16,587.81V595h25.2v-7.22ZM436.42,141.45l-81.89,86.8H316.89V156.56h15V149.3H309.63v78.95H268.8V58.74H254.3v50.79H132.16V124H254.3V228.25H136v28.48h-3.82V264H136V371.7l21.79,49.82H132.16V436h31.93l17,39a51.56,51.56,0,0,0,16.38,98.7h0L233,631.55l-10.68,10.69h34.23l-42.74-69.79a51.71,51.71,0,0,0,39.53-50.16A51.11,51.11,0,0,0,249.94,504l101.11-48.09h85.37V441.41H395.93L311.11,349.2H436.42V342h-132l-91.28-99.24H360.78l49.88-52.88,25.76,25.76V195.12l-15.8-15.8,15.8-16.77Zm-234.72,418a37.13,37.13,0,1,1,37.12-37.13A37.16,37.16,0,0,1,201.7,559.42Zm174.55-118H347.78L242.93,491.27A51.65,51.65,0,0,0,201.7,470.7a52.9,52.9,0,0,0-6.44.41l-44.8-102.47V242.72h43ZM387,642.24h10.26l39.13-39.16V592.82Z" fill="#ececec"/><rect x="162.87" y="253.71" width="21.05" height="21.05" fill="#d2e1f9"/><polygon points="381.64 334.44 381.64 293.78 366.85 293.78 366.85 276.8 340.81 276.8 340.81 334.44 381.64 334.44" fill="#d2e1f9"/><polygon points="309.43 58.74 309.43 99.63 287.38 99.63 287.38 74.72 275.46 74.72 275.46 58.74 309.43 58.74" fill="#d2e1f9"/><path d="M436.42,72.43v14.1H418V51.05h14.81C435.12,55.9,436.42,62.77,436.42,72.43Z" fill="#d2e1f9"/><polygon points="322.59 222.1 322.59 191.88 379.24 191.88 348.64 222.47 322.59 222.1" fill="#d2e1f9"/><rect x="275.46" y="194.02" width="28.46" height="28.46" fill="#d2e1f9"/><rect x="213.23" y="129.69" width="34.28" height="31.53" fill="#d2e1f9"/><polygon points="247.51 167.4 247.51 222.47 205.59 222.47 178.85 195.74 178.85 167.4 247.51 167.4" fill="#d2e1f9"/><polygon points="171.28 201.82 192.34 222.88 136.14 222.88 136.14 201.82 171.28 201.82" fill="#d2e1f9"/><polygon points="168.27 467.9 132.16 467.9 132.16 442.55 158.05 442.55 168.27 467.9" fill="#d2e1f9"/><path d="M158.44,565.65v12.18H132.16V523.65h7.18A78.26,78.26,0,0,0,158.44,565.65Z" fill="#d2e1f9"/><path d="M284.33,460.42l-22-47.58H235.46l-45.82,21.25,12,26.16h.1A62,62,0,0,1,245.24,478Z" fill="#d2e1f9"/><polygon points="436.43 401.15 436.43 432.75 401.97 432.75 372.89 401.15 436.43 401.15" fill="#d2e1f9"/><path d="M220,628.9l-12.61,13.34H157.81a23.47,23.47,0,0,1-5.47-.64v-15h21.44V593.4l16.15-13.58Z" fill="#d2e1f9"/><path d="M322,573.13l-43.47-45.32-16.67,13A63,63,0,0,1,231.05,578l36.36,59.41Z" fill="#d2e1f9"/><polygon points="274.68 507.81 351.05 470.06 389.13 470.06 389.13 536.46 329.76 565.79 274.68 507.81" fill="#d2e1f9"/><path d="M436.39,615.75c-.52,13.39-9.83,24.29-21.83,26.19H410.2Z" fill="#d2e1f9"/><polygon points="162.87 283.55 162.87 367 186.16 423.97 228.65 402.92 327.75 402.92 216.62 283.55 162.87 283.55" fill="#aac8f9"/><polygon points="404.58 164.18 322.59 164.18 322.59 184.73 385.2 184.73 404.58 164.18" fill="#d2e1f9"/><polygon points="146.8 414.68 132.16 414.68 132.16 380.76 146.8 414.68" fill="#d2e1f9"/><rect x="399.69" y="470.06" width="36.73" height="43.43" fill="#d2e1f9"/><rect x="399.69" y="520.26" width="36.73" height="15.24" fill="#d2e1f9"/><polygon points="390.56 627.54 375.86 642.24 279.32 642.24 330.41 579.82 390.56 627.54" fill="#d2e1f9"/><polygon points="395.82 620.36 420.63 596.56 390.55 570.37 390.55 546.81 337.51 573.82 395.82 620.36" fill="#aac8f9"/><polygon points="436.43 542.24 436.43 579.17 426.59 588.4 399.69 565.79 399.69 542.24 436.43 542.24" fill="#d2e1f9"/><path d="M141.6,603.31V636a28.54,28.54,0,0,1-9.44-21.49V603.31Z" fill="#d2e1f9"/><rect x="152.34" y="606.73" width="12.78" height="12.78" fill="#d2e1f9"/><path d="M245.31,58.74v42.1H164.24V52.66l14.11-13h30.14c2.93,0,5.34,3.36,5.34,7.5V49c0,9.72,5.33,9.76,11.86,9.76Z" fill="#d2e1f9"/><rect x="132.16" y="74.99" width="25.22" height="25.84" fill="#d2e1f9"/><path d="M157.38,53.87V68.31H132.23a60,60,0,0,1,2-14.44Z" fill="#d2e1f9"/><path d="M170.73,39.69l-8.91,8.36H136.71c4.63-7.78,12.35-8.36,21.1-8.36Z" fill="#d2e1f9"/><polygon points="332.43 357.97 366.85 394.13 399.69 394.13 399.69 357.97 332.43 357.97" fill="#d2e1f9"/><rect x="406.52" y="377.5" width="29.9" height="16.62" fill="#d2e1f9"/><rect x="406.52" y="357.97" width="17.59" height="15.1" fill="#d2e1f9"/><rect x="428.48" y="357.97" width="7.95" height="15.11" fill="#d2e1f9"/><polygon points="272.59 412.84 327.75 412.84 327.75 439.22 292.48 455.22 272.59 412.84" fill="#d2e1f9"/><circle cx="201.71" cy="522.5" r="24.76" fill="#aac8f9"/><rect x="132.16" y="129.68" width="13.24" height="19.03" fill="#d2e1f9"/><polygon points="170.68 194.95 170.68 129.7 150.46 129.7 150.46 182.16 136.15 182.16 136.15 194.95 170.68 194.95" fill="#d2e1f9"/><rect x="178.85" y="129.69" width="28.62" height="29.77" fill="#d2e1f9"/><rect x="132.16" y="152.36" width="13.24" height="24.05" fill="#d2e1f9"/><rect x="387.8" y="293.78" width="42.53" height="40.66" fill="#d2e1f9"/><polygon points="232.53 249.99 276.89 298.26 332.57 298.26 332.57 249.99 232.53 249.99" fill="#d2e1f9"/><polygon points="283.22 303.84 311.37 334.44 332.43 334.44 332.43 303.84 283.22 303.84" fill="#d2e1f9"/><rect x="340.81" y="249.99" width="26.03" height="20.16" fill="#d2e1f9"/><polygon points="430.33 269.31 430.33 223.97 409.75 201.82 373.9 240.29 373.9 284.27 416.41 284.27 416.41 269.31 430.33 269.31" fill="#aac8f9"/><polygon points="436.43 173.89 436.43 186.05 430.55 180.31 436.43 173.89" fill="#d2e1f9"/><polygon points="436.43 93.14 436.43 130.52 411.73 157.64 379.23 157.64 379.23 93.14 436.43 93.14" fill="#d2e1f9"/><rect x="340.06" y="116.76" width="31.62" height="40.88" fill="#aac8f9"/><path d="M411.73,51.05V86.53H371.68v25.09H340.06V58.74h2.83c6.08,0,11.05,0,11.77-7.69Z" fill="#d2e1f9"/><rect x="313.27" y="58.74" width="22.7" height="26.94" fill="#d2e1f9"/><rect x="275.46" y="104.04" width="60.51" height="29.75" fill="#d2e1f9"/><rect x="313.27" y="89.97" width="22.71" height="9.66" fill="#d2e1f9"/><polygon points="303.92 188.34 287.37 188.34 275.46 177.03 275.46 144.13 303.92 144.13 303.92 188.34" fill="#d2e1f9"/><g id="a92bdef3-a468-4948-b4ba-e8e983f7fd32" data-name="u5Zjqx"><path d="M199.74,51.88l-.49.48-.28.28a6.65,6.65,0,0,0-9.44,0l-.26-.28c-.16-.16-.33-.32-.49-.49h0v0l0,0c.21-.18.41-.37.62-.54a6.78,6.78,0,0,1,1.44-.92,7.37,7.37,0,0,1,1.89-.63c.32-.06.64-.09.95-.13.11,0,.81,0,.83,0l.65,0a7.61,7.61,0,0,1,4,1.76l.52.46Z" fill="#a8a8a8"/><path d="M191.08,54.18l-.77-.77a5.57,5.57,0,0,1,7.88,0c-.26.26-.51.52-.77.77a4.5,4.5,0,0,0-6.34,0Z" fill="#a8a8a8"/><path d="M196.64,55l-.77.77a2.25,2.25,0,0,0-1.62-.67,2.29,2.29,0,0,0-1.62.67l-.77-.76A3.35,3.35,0,0,1,196.64,55Z" fill="#a8a8a8"/><path d="M195,56.42a.7.7,0,1,1-.7-.7A.7.7,0,0,1,195,56.42Z" fill="#a8a8a8"/></g><path d="M152,53.36a2,2,0,1,1,2,2A2,2,0,0,1,152,53.36Z" fill="#a8a8a8"/><path d="M158.34,53.36a2,2,0,1,1,2,2A2,2,0,0,1,158.34,53.36Z" fill="#a8a8a8"/><path d="M164.69,53.36a2,2,0,1,1,2,2A2,2,0,0,1,164.69,53.36Z" fill="#a8a8a8"/><path d="M171.05,53.36a2,2,0,1,1,2,2A2,2,0,0,1,171.05,53.36Z" fill="#a8a8a8"/><path d="M177.4,53.36a2,2,0,1,1,2,2A2,2,0,0,1,177.4,53.36Z" fill="#a8a8a8"/><rect x="397.61" y="50.57" width="15.58" height="6.77" fill="#a8a8a8" stroke="#fff" stroke-miterlimit="10" stroke-width="0.5"/><rect x="398.55" y="51.44" width="10.58" height="5.02" fill="#a8a8a8"/><rect x="413.61" y="51.92" width="1.46" height="4.07" fill="#a8a8a8"/><polygon points="298.58 474.92 297.22 471.86 353.48 446.87 388.3 446.87 193.42 234.1 260.1 234.1 260.1 108.85 263.45 108.85 263.45 237.44 201.02 237.44 395.9 450.22 354.19 450.22 298.58 474.92" fill="#aac8f9"/><path d="M273.08,89.12c-.57-5.66-4.46-11.28-11.3-11.28s-10.73,5.62-11.3,11.28c-.85,8.71,5,16.63,11.3,23.84C268.06,105.75,274,97.83,273.08,89.12Zm-11.3,6.27A6.18,6.18,0,1,1,268,89.2,6.17,6.17,0,0,1,261.78,95.39Z" fill="#aac8f9"/><polygon points="290.2 495.14 290.06 477.8 276.09 467.5 310.25 467.94 290.2 495.14" fill="#251860"/><path d="M493.18,406.61a49.65,49.65,0,0,1-87,32.76h-96.5l-13.5,25-13.5-25H270.38V373.86H406.21v0a49.67,49.67,0,0,1,87,32.77Z" fill="#fff"/><path d="M493.18,406.61a55.83,55.83,0,0,1-2.2,14.82,53.64,53.64,0,0,1-6.57,13.48,50,50,0,0,1-23.34,18.3,34.75,34.75,0,0,1-3.56,1.22l-3.65.95c-1.23.25-2.48.4-3.72.61a26.28,26.28,0,0,1-3.75.35,47.46,47.46,0,0,1-15-1.31A50,50,0,0,1,406,439.58l.24.12-96.5.26.52-.31-13.43,25-.59,1.1-.59-1.1-13.57-24.94.66.4-12.33,0h-.78v-.78c0-10.92-.07-21.84,0-32.76l.09-32.75v-.71h.7l135.83.38-.33.33v-.14l.08-.1a50,50,0,0,1,25.46-15.41,47.78,47.78,0,0,1,15-1.31,24.8,24.8,0,0,1,3.75.36c1.24.2,2.49.35,3.72.6l3.65.95a34.81,34.81,0,0,1,3.56,1.23,49.88,49.88,0,0,1,23.34,18.29A53.74,53.74,0,0,1,491,391.8,55.81,55.81,0,0,1,493.18,406.61Zm0,0a55.69,55.69,0,0,0-2.28-14.79,53.66,53.66,0,0,0-6.63-13.4A49.66,49.66,0,0,0,461,360.35a34.28,34.28,0,0,0-3.54-1.2l-3.63-.92c-1.22-.24-2.46-.39-3.69-.58a24.49,24.49,0,0,0-3.72-.33,46.92,46.92,0,0,0-14.83,1.38,49.41,49.41,0,0,0-25.08,15.36l.09-.22v.35h-.34l-135.83.38.71-.71.09,32.75q.07,16.38,0,32.76l-.79-.79,12.33,0h.45l.21.39,13.43,25h-1.18l13.57-24.94.17-.31h.35l96.5.27h.15l.1.11a49.4,49.4,0,0,0,25.08,15.4,47.12,47.12,0,0,0,14.82,1.38,25.85,25.85,0,0,0,3.73-.33c1.23-.2,2.47-.34,3.69-.58l3.63-.93A34.22,34.22,0,0,0,461,452.9a49.67,49.67,0,0,0,23.33-18.09,53.46,53.46,0,0,0,6.62-13.4A55.7,55.7,0,0,0,493.18,406.61Z" fill="#1a2e35"/><circle cx="443.53" cy="406.62" r="43.32" transform="translate(-139.84 259.16) rotate(-28.33)" fill="#aac8f9"/><path d="M455.93,420.64s0,0,0,0" fill="#aac8f9"/><path d="M486.73,406.72a43.06,43.06,0,0,1-13.13,31l-.73.67a43.18,43.18,0,0,1-29.35,11.51,40.18,40.18,0,0,1-5.85-.42,35.43,35.43,0,0,1-3.84-.67,3.69,3.69,0,0,1-.45-.11,43.21,43.21,0,1,1,53.35-42Z" fill="none"/><path d="M307,400.34c-.57-5.66-4.47-11.28-11.31-11.28s-10.72,5.62-11.29,11.28c-.86,8.71,5,16.63,11.29,23.84C302,417,307.89,409.05,307,400.34Zm-11.31,6.27a6.18,6.18,0,1,1,6.2-6.19A6.17,6.17,0,0,1,295.71,406.61Z" fill="#aac8f9"/><rect x="319.34" y="394.25" width="68.45" height="2.05" fill="#a8a8a8"/><rect x="319.34" y="399.97" width="57.69" height="2.05" fill="#a8a8a8"/><rect x="319.34" y="405.69" width="65.07" height="2.05" fill="#a8a8a8"/><rect x="319.34" y="411.42" width="38.87" height="2.05" fill="#a8a8a8"/><path d="M237.38,626.33l-36.83-62,2.63-.25A53.45,53.45,0,0,0,237.49,544c13.55-17.86,1.55-43.25,1.43-43.5l-.75-1.54,54.31-24.82,1.39,3.05-51.25,23.41c2.56,6.1,10.46,28.38-2.47,45.42a56.41,56.41,0,0,1-34.1,21.11l34.21,57.54Z" fill="#251860"/><path d="M250.12,606.84c-.57-5.66-4.47-11.28-11.31-11.28s-10.72,5.62-11.29,11.28c-.85,8.71,5,16.62,11.29,23.83C245.1,623.46,251,615.55,250.12,606.84Zm-11.31,6.27a6.18,6.18,0,1,1,6.21-6.19A6.17,6.17,0,0,1,238.81,613.11Z" fill="#aac8f9"/><path d="M472.87,438.42a43.18,43.18,0,0,1-29.35,11.51,40.18,40.18,0,0,1-5.85-.42,35.43,35.43,0,0,1-3.84-.67,103.52,103.52,0,0,1,5.86-14.79l0,0c.2-.39.42-.78.62-1.12a14.46,14.46,0,0,1,1-1.45c1.65-2.07,5.85-3.08,10.42-3.17a39,39,0,0,1,5.93.31,28,28,0,0,1,4.68,1l.28.09a1.3,1.3,0,0,0,.17,0l1.09.4c.34.16.67.3.95.44a.17.17,0,0,1,.11.06,7.76,7.76,0,0,1,1.49.92c.31.26.64.54.95.84A40.6,40.6,0,0,1,472.87,438.42Z" fill="#ececec"/><path d="M473.6,437.75l-.73.67A42.88,42.88,0,0,1,461.56,446c1.23-8.37,2.18-14.84,2.32-15.9a.82.82,0,0,0,0-.17s.33.19.92.61a.17.17,0,0,1,.11.06c.59.39,1.43,1,2.44,1.76A58.86,58.86,0,0,1,473.6,437.75Z" fill="#686175" data-primary="true" stroke="#351d66" stroke-miterlimit="10"/><path d="M440.64,430.89s-.11.73-.31,2c-.08.51-.2,1.1-.28,1.74s-.17,1-.28,1.63c-.53,3.38-1.29,8.12-2.1,13.24a35.43,35.43,0,0,1-3.84-.67,3.69,3.69,0,0,1-.45-.11c2.33-7.26,4.46-13.08,6.19-16.22A14.22,14.22,0,0,1,440.64,430.89Z" fill="#686175" data-primary="true" stroke="#351d66" stroke-miterlimit="10"/><path id="ab10a5d3-e573-4382-a54e-b4d240041344" data-name="SVGID" d="M445.75,445.78c5,.57,14.44-6.37,17.08-13.73.17-.5-1.31-5.29-2.84-11.18-.92-3.58-1.85-7.59-2.44-11.32-.12-.76-22.44,9.37-22.44,9.37s3.53,7.43,4.51,13.93a8.22,8.22,0,0,1,.08,1.55c0,.07,0,.16,0,.26C439.7,437.63,440.4,445.17,445.75,445.78Z" fill="#f9c7a5"/><g clip-path="url(#ad1cf29e-c46a-4635-8e60-f84f6bb501c4)"><path d="M439.7,434.4c0,.08,0,.17,0,.26a15.38,15.38,0,0,0,2.41-.26c13.69-2.47,14.59-20.24,14.6-24.71-4.05,1.25-21.61,9.23-21.61,9.23s3.53,7.44,4.52,13.93A9.17,9.17,0,0,1,439.7,434.4Z" fill="#f7a091"/></g><path id="ea8bcdf3-a7bb-4ba5-b156-f71741a8cde8" data-name="SVGID" d="M445.75,445.78c5,.57,14.44-6.37,17.08-13.73.17-.5-1.31-5.29-2.84-11.18-.92-3.58-1.85-7.59-2.44-11.32-.12-.76-22.44,9.37-22.44,9.37s3.53,7.43,4.51,13.93a8.22,8.22,0,0,1,.08,1.55c0,.07,0,.16,0,.26C439.7,437.63,440.4,445.17,445.75,445.78Z" fill="none" stroke="#351d66" stroke-miterlimit="10"/><path d="M457.29,379.9c3.59,8,2.22,32.56-3,38.66-7.59,8.84-21.53,11.35-29.42,1.87-7.65-9.18-5.3-41.16.69-46.86C434.36,365.18,452,368.09,457.29,379.9Z" fill="#f9c7a5" stroke="#351d66" stroke-miterlimit="10"/><path d="M441.85,395.57c2.67-.07,2.61,5.28.13,5.34S439.61,395.63,441.85,395.57Z" fill="#351d66"/><path d="M428.69,395.63c-2.66-.23-2.93,5.11-.47,5.33S430.92,395.83,428.69,395.63Z" fill="#351d66"/><path d="M421.91,381.65c.93-2.09,2-4.2,3.27-4.6s3.86,3.34,6.74,3.56c3.88.31,6.49-4,11.93-4.36s8.71,6.23,8.78,17.32c.07,9.89,6,10.88,6,10.88s3.84-21.78-2.23-29.07-20.16-10.62-29.71-3.82C423.25,374,421.91,381.65,421.91,381.65Z" fill="#f48225" data-secondary="true" stroke="#351d66" stroke-miterlimit="10"/><path d="M453.72,400.51s4.62-8.36,8.36-6.79.83,13.28-3.15,15.26l-.12.06a3.94,3.94,0,0,1-5.55-4Z" fill="#f9c7a5" stroke="#351d66" stroke-miterlimit="10"/><path d="M434.32,400.2s-4.05,6.63-.37,7.92" fill="#f9c7a5" stroke="#351d66" stroke-miterlimit="10"/><path d="M429.53,414s5.71,5.34,12.34-1.29" fill="#f9c7a5" stroke="#351d66" stroke-miterlimit="10"/></svg>