<svg id="eeec6e65-92e3-4b6f-9e12-93aa259d0941" data-name="Layer 1" xmlns="http://www.w3.org/2000/svg" xmlns:xlink="http://www.w3.org/1999/xlink" width="865.76" height="682.89" viewBox="0 0 865.76 682.89"><defs><clipPath id="bef2e08d-34b3-4af1-88b5-26ba6dce6f46"><path d="M-768.69,427.15c-33.55-12.39-64.86-33.76-78.62-63.29-11.41-24.51-9.58-52.19-.82-76.95,21.35-60.3,85.25-106.2,157.28-113,57,3.9,109.65-22.75,153.72-53.21s84.71-66.17,136.48-85.66C-322.81,5.75-225,19.64-158.43,68.94s99,131.45,81.29,204.46-84.41,133.74-166.7,152.52c-69.43,15.84-143.7,3.4-215.95,4.82C-563.72,432.77-671.66,463-768.69,427.15Z" fill="#a9fdff"/></clipPath><clipPath id="aff38f5a-5758-4eb0-856c-c54f24b25013"><path id="b225381a-a29b-402c-8d91-486b092a9d9d" data-name="SVGID" d="M205.4,556.46c-12.79,28.83,4.5,62.49,35.56,68,12.3,2.18,27.16.9,44.85-6.66A88,88,0,0,1,311,611.05c15.36-1.66,38.85-2.24,57.8,5.83,0,0,58.6,16.81,89,9.37,0,0,46.85-10.42,68.76-3.73,0,0,49.29,19.36,82.76-14.14,0,0,23.12-16.37,54.76-7.44,0,0,110.75,27.54,157-41.69,0,0,37.11-44.66-21.91-52.1L671.07,480.39,205.4,556.46Z" fill="#eec8ad"/></clipPath></defs><path d="M-768.69,427.15c-33.55-12.39-64.86-33.76-78.62-63.29-11.41-24.51-9.58-52.19-.82-76.95,21.35-60.3,85.25-106.2,157.28-113,57,3.9,109.65-22.75,153.72-53.21s84.71-66.17,136.48-85.66C-322.81,5.75-225,19.64-158.43,68.94s99,131.45,81.29,204.46-84.41,133.74-166.7,152.52c-69.43,15.84-143.7,3.4-215.95,4.82C-563.72,432.77-671.66,463-768.69,427.15Z" fill="#a9fdff"/><g clip-path="url(#bef2e08d-34b3-4af1-88b5-26ba6dce6f46)"><path d="M-861.06,129.83c89.75,8.27,173.35,35.67,259.21,56s180.3,33.46,266,12.88c42.4-10.18,81.61-28.39,126.13-31.69,41.6-3.09,82.72,7.29,121.11,19.07s76.63,25.3,118.11,29.07,88.11-4.35,112.58-28.43q-7.65-60.46-15.28-120.94c-125.27,33.71-261,67.91-390.27,43-23-4.42-46.19-10.74-69.9-9-44.5,3.26-74.48,32.66-111.67,50.31-47.07,22.33-111,25.41-161.9,7.78-45.27-15.68-82.7-46.69-133-48.06-30.84-.83-60.27,10.07-91.13,10.39-25.26.27-49.54-6.55-74.57-9-27.88-2.74-56.3.11-82.92,6.28-24.7,5.72-60.44,15.23-78.82,28.8-21,15.49,27,2.08,34.71-.44,24.66-8.11,51.19-13.19,78.05-15.87A492.33,492.33,0,0,1-861.06,129.83Z" fill="#d6e4f6" fill-rule="evenodd" opacity="0.35"/><path d="M-855.38,192.93c57.34,3.21,112.11,17.44,167.75,27.77s115.31,16.71,170.1,4.28c27.59-6.27,53.28-17.17,82-20.06,45.15-4.54,88.73,11.33,130,25.16S-216.94,256.3-174.23,245c25-6.65,44.63-20.62,67.75-30.13C-53.43,193,12.89,196.47,72.63,206.25s118.57,25.27,179.88,25.47C161.38,226.22,68,220.85-20.2,238.08-84,250.55-145.79,274.85-211.81,271.26c-46.69-2.53-90.11-19-136.75-22-58.8-3.76-116.06,14.11-175,16.71-67.92,3-133.86-14.27-198.93-28.42s-135.59-25.32-200.32-10.41c-16.35,3.77-32.12,9.17-49.13,11-12.94,1.36-41.7,1.42-35.09-11.9,4.78-9.62,30.94-17.65,42.93-21.48C-930.33,193.94-892,190.88-855.38,192.93Z" fill="#d6e4f6" fill-rule="evenodd" opacity="0.35"/><path d="M-921.25,41.65C-869.89,57-820.6,76.26-767.08,87.31s113.6,13.12,162.89-5.34c31.39-11.76,57.79-31.47,92.63-36.31,60.55-8.4,121.45,31.42,180.34,18.39,19.94-4.42,36.38-14.43,55.24-20.8,63.08-21.32,136.25,1.16,205.38,8.33C10.49,60,95.83,45.68,163,12.4,111.32,42.74,37.63,45.18-28.89,38.93S-161.53,19.21-228.4,23.06C-290.65,26.64-353,45.13-413.72,34.82c-31.54-5.35-61.76-18.38-93.94-15.59C-532,21.34-552.74,32.2-575,39.51c-79.54,26.14-174.48,5.56-249.92-26.12C-875.77-8-931.31-35.43-988.47-24.79c-15.62,2.91-93.82,36-66.28,43.58,9,2.47,24.3.8,34.22,1.8,11.38,1.16,22.65,2.85,33.78,4.9A620.79,620.79,0,0,1-921.25,41.65Z" fill="#d6e4f6" fill-rule="evenodd" opacity="0.35"/></g><path d="M36.27,402.39c.19.43.38.87.58,1.3,14.84,31.86,48.62,54.92,84.81,68.28,104.68,38.64,221.13,6.07,333.25,3.87,77.94-1.53,158.07,11.89,233-5.2,48.37-11,91.72-35.52,124.27-68.25Z" fill="#75bfef"/><path d="M36.27,402.39H812.15s-113-53.12-144.31-47.05S379,399.54,379,399.54s-165-50.27-204.14-46c-28.69,3.16-103.67,27.93-141.62,40.92Q34.53,398.49,36.27,402.39Z" fill="#98ddff" opacity="0.62"/><polygon points="462.82 463 602.55 455.98 458.61 450.88 462.82 463" fill="#fff"/><circle cx="237.52" cy="167.28" r="137.11" fill="#ffcc4c"/><path d="M100.42,443.82h262.2S166.36,459.06,100.42,443.82Z" fill="#fff"/><path d="M112.61,279.35H381.25l-39-15.13s-5-29.38-18.17-29.38S302,253,302,253s.38-60.93-33.24-60.93-41,59.63-41,59.63-8.12-29.82-26.29-29.82-25.12,38-25.12,38Z" fill="#fff"/><path d="M608.7,203.19H815.91L785.8,191.53s-3.88-22.67-14-22.67-17,14-17,14,.3-47-25.64-47-31.6,46-31.6,46-6.26-23-20.28-23-19.37,29.33-19.37,29.33Z" fill="#fff"/><path d="M229.59,416.68H44.25a110,110,0,0,0,8.38,10.8Z" fill="#fff"/><path d="M662.41,411.06s85.73,6.78,140,.58c1-.88,2-1.75,2.94-2.65Z" fill="#fff"/><path d="M308.69,345.18a22.32,22.32,0,0,0,11.25,2.32s-1.65-21.18,2-30.12C321.93,317.38,317.63,322.68,308.69,345.18Z" fill="#686175" data-primary="true"/><path d="M308.69,345.18a22.32,22.32,0,0,0,11.25,2.32s-1.65-21.18,2-30.12C321.93,317.38,317.63,322.68,308.69,345.18Z" opacity="0.2"/><path d="M395,623.07s52.5,28.29,129.85,19.57c0,0,84.15,25.66,147.78-19.57,0,0,37.86,38.48,102.86,27.76,37.94-6.25,58.81-48.07,40.86-82.08-.33-.61-.66-1.24-1-1.86l-33-59.7Z" fill="#eec8ad"/><path id="ae9c580c-69a4-45de-ac21-12d49354115c" data-name="SVGID" d="M205.4,556.46c-12.79,28.83,4.5,62.49,35.56,68,12.3,2.18,27.16.9,44.85-6.66A88,88,0,0,1,311,611.05c15.36-1.66,38.85-2.24,57.8,5.83,0,0,58.6,16.81,89,9.37,0,0,46.85-10.42,68.76-3.73,0,0,49.29,19.36,82.76-14.14,0,0,23.12-16.37,54.76-7.44,0,0,110.75,27.54,157-41.69,0,0,37.11-44.66-21.91-52.1L671.07,480.39,205.4,556.46Z" fill="#eec8ad"/><g clip-path="url(#aff38f5a-5758-4eb0-856c-c54f24b25013)"><path d="M230,621.17s-11.42-27.93,15.7-34c0,0,26.41-.88,45.67-7,0,0,16.42-2.62,24.27,3.49,0,0,17.84,8.73,32.82.88,0,0,22.13-6.11,2.15-12.22,0,0,15.7-15.72,30.68-11.35,0,0,54.95,7,60.66-11.35,0,0,41.39-7,72.08-14a108.84,108.84,0,0,0,47.81-11.35S585.4,516.42,599,519c0,0,32.63,3.05,54.95-14.84,0,0,34.26-.87,41.39-14.84l-7.13-28.8L272.83,528.64l-94.2,28.81,13.84,28.15S174.21,624.52,230,621.17Z" fill="#e0b08f"/></g><ellipse cx="429.81" cy="592.49" rx="15.76" ry="1.32" fill="#e0b08f"/><ellipse cx="592.8" cy="556.31" rx="16.84" ry="3.17" fill="#e0b08f"/><ellipse cx="642.67" cy="565.29" rx="5.83" ry="3.17" fill="#e0b08f"/><ellipse cx="688.22" cy="591.17" rx="15.54" ry="1.58" fill="#e0b08f"/><ellipse cx="789.9" cy="546.28" rx="7.56" ry="2.64" fill="#e0b08f"/><ellipse cx="711.53" cy="507.19" rx="6.48" ry="3.17" fill="#e0b08f"/><path d="M204.58,481.5s6.14-3.94,27.57-3.68l168.09-16.58,241.82-24.77,12.46-2.08S675,428.13,678,438.44c0,0,8.7,18.81-.6,41.45,0,0-1.22,2.43-9.51,3.64l-69.16,11.53L461.14,518.52,222.39,556.35Z" fill="#8c4826"/><path d="M209.4,480.77a10.63,10.63,0,0,0-8.56,3.11c-5.58,5.69-14.32,19.65-7.87,48.12,0,0,3.36,22,23.66,24.81A15.13,15.13,0,0,0,229,553c5.72-5.33,12.62-17,8.78-41.54C237.8,511.45,235.9,483.11,209.4,480.77Z" fill="#cf8046"/><path d="M210.38,492.11a26.81,26.81,0,0,0-7.82,8.45,23.64,23.64,0,0,0-3.06,10.86c0,1,0,1.92,0,2.88a18.17,18.17,0,0,0,.39,2.79,34.11,34.11,0,0,0,1.62,5.52A55.64,55.64,0,0,0,207,532.93a37.28,37.28,0,0,1-6.55-9.85,30.48,30.48,0,0,1-2-5.68,18.64,18.64,0,0,1-.47-3c0-1-.07-2-.07-3a22.69,22.69,0,0,1,3.59-11.45A22.19,22.19,0,0,1,210.38,492.11Z" fill="#8c4826"/><path d="M211.78,504.31a33,33,0,0,0-2.36,5.91,21.66,21.66,0,0,0-.89,6.11,17.57,17.57,0,0,0,1.07,6,26.86,26.86,0,0,0,3,5.58,15.38,15.38,0,0,1-4.1-5.1,16,16,0,0,1-1.13-3.15,18,18,0,0,1-.39-3.35,17.55,17.55,0,0,1,1.31-6.51A17.27,17.27,0,0,1,211.78,504.31Z" fill="#8c4826"/><path d="M216.19,527.73a20.42,20.42,0,0,0,2.88-6.29,16.66,16.66,0,0,0,.31-6.7l-.33-1.61c-.17-.47-.42-1-.65-1.53a27.5,27.5,0,0,0-1.68-3,26.34,26.34,0,0,0-2.08-2.77,30.81,30.81,0,0,0-2.46-2.53,16.7,16.7,0,0,1,5.53,4.58,20.09,20.09,0,0,1,2,3.05,14.06,14.06,0,0,1,.78,1.7c.16.64.3,1.23.42,1.85a14.86,14.86,0,0,1-.68,7.31A14.12,14.12,0,0,1,216.19,527.73Z" fill="#8c4826"/><path d="M222.59,506.31a26.46,26.46,0,0,1,3.52,4.93,26.89,26.89,0,0,1,2.43,5.61,21.4,21.4,0,0,1,.29,12.26c-.16.5-.36,1-.54,1.47a11.49,11.49,0,0,1-.6,1.46,30.37,30.37,0,0,1-1.56,2.66,33.36,33.36,0,0,1-3.84,4.78,25.14,25.14,0,0,1-4.73,3.88,19.62,19.62,0,0,1-5.58,2.38,24.83,24.83,0,0,0,5.14-3,27.9,27.9,0,0,0,4.27-4.07,37.76,37.76,0,0,0,3.49-4.76c.51-.83,1-1.68,1.45-2.55a12.94,12.94,0,0,0,.52-1.32c.16-.46.34-.9.48-1.36a19.67,19.67,0,0,0,.77-5.71l0-.73c0-.24,0-.48-.06-.73l-.13-1.45c-.19-1-.29-1.93-.56-2.88a30.6,30.6,0,0,0-1.94-5.59A37.27,37.27,0,0,0,222.59,506.31Z" fill="#8c4826"/><path d="M231.2,506.52a14.3,14.3,0,0,1,2.51,4.31,24.79,24.79,0,0,1,1.36,4.85,27.28,27.28,0,0,1,.46,5,31.61,31.61,0,0,1-.46,5,30.93,30.93,0,0,1-3.38,9.49,32.87,32.87,0,0,1-6.1,7.89,54.89,54.89,0,0,0,5-8.44,37.72,37.72,0,0,0,1.76-4.52,34.52,34.52,0,0,0,1.5-14.33,31.38,31.38,0,0,0-.88-4.78A18.34,18.34,0,0,0,231.2,506.52Z" fill="#8c4826"/><path d="M235.31,492.32s21.32,39.92-3.56,62.61l62.61-9.84L554,502.91,657.27,485.3l10.6-1.77s8.6-1,9.51-3.64l1.51-3.79-34.83,6s-22.81,3.4-30.82,1.4c0,0-22-.4-40,6.2,0,0-17.88,8.41-42.7,7.61L475.29,504s-79.39,9.74-122.62,20.95c0,0-74.84,16.41-83.65,10a34.24,34.24,0,0,1-13.34-18.14S250.43,500.14,235.31,492.32Z" fill="#cf8046"/><path d="M320.13,491.36l-11.7,2.41-11.71,2.35L285,498.43l-5.86,1.15c-1.12-.07-1.08,1.16,0,1l3,.36,3,.38,1.48.18.37,0,.19,0a.85.85,0,0,1,.27.09.7.7,0,0,1,.2,1.07.76.76,0,0,1-.23.18l-.17.08-.34.16-.7.31c-.46.2-.93.38-1.4.55-1,.33-1.92.6-2.89.85a39.36,39.36,0,0,1-11.95.85,24.88,24.88,0,0,0-2.95-.19,8.08,8.08,0,0,0-2.82.67c-.44.19-.87.44-1.31.68l-1.34.67c-.91.43-1.83.81-2.77,1.16A44.82,44.82,0,0,1,247,511.26a44.48,44.48,0,0,0,11.56-2.79c.92-.36,1.83-.75,2.72-1.19.45-.22.89-.44,1.32-.68s.86-.5,1.33-.71a8.42,8.42,0,0,1,4.47-.7l1.48.11a40.55,40.55,0,0,0,11.79-.92c1-.24,1.91-.52,2.83-.85.47-.17.93-.34,1.38-.54l.67-.3.33-.16.16-.08a.14.14,0,0,0,.07-.05.15.15,0,0,0,0-.21l-.08,0-.19,0-.37,0-1.48-.19-3-.36-3-.38-.37,0a1.24,1.24,0,0,1-.46-.15,1,1,0,0,1-.48-.87,1,1,0,0,1,.47-.87A2.58,2.58,0,0,1,279,499l5.86-1.12,11.74-2.23,11.74-2.19Z" fill="#cf8046"/><polygon points="261.3 521.66 289.97 517.28 318.64 512.98 375.99 504.39 433.37 496 462.06 491.81 490.76 487.7 462.1 492.09 433.43 496.39 376.08 504.97 318.7 513.37 290.01 517.56 261.3 521.66" fill="#cf8046"/><path d="M291.53,529.36c7.21-2.5,14.49-4.85,21.83-7,3.68-1,7.37-2,11.1-2.91l2.8-.61c.94-.2,1.88-.35,2.82-.53s1.9-.28,2.85-.42,1.93-.14,2.89-.21l2.42-.19-2.34.73a28.76,28.76,0,0,0-3.71,1.44,17.11,17.11,0,0,0-1.74.95,7.35,7.35,0,0,0-1.48,1.22l-.3-.47c4.25-1.08,8.54-2,12.85-2.73s8.64-1.39,13-1.84,8.72-.73,13.1-.85a124.49,124.49,0,0,1,13.1.48,121.8,121.8,0,0,0-13.1-.19c-4.36.18-8.72.47-13.05,1s-8.66,1.14-13,1.92S333,520.86,328.82,522l-.91.23.61-.71a7.5,7.5,0,0,1,1.62-1.32,14.28,14.28,0,0,1,1.8-1,27.32,27.32,0,0,1,3.8-1.46l.08.54c-.94.07-1.89.06-2.83.2s-1.88.21-2.82.4-1.87.32-2.81.52l-2.79.6c-3.72.86-7.41,1.8-11.1,2.8Q302.45,525.87,291.53,529.36Z" fill="#cf8046"/><path d="M315.83,502.61l20.82-3.23,20.85-3.13L399.18,490,420,487l10.42-1.52c3.48-.5,7-1.07,10.42-1.61l20.82-3.27,20.83-3.18-20.79,3.47-20.8,3.37c-3.47.55-6.94,1.14-10.41,1.66l-10.42,1.56-20.84,3.13-41.72,6.07-20.85,3Z" fill="#cf8046"/><polygon points="268.77 490.92 283.74 488.78 298.73 486.73 328.71 482.63 358.71 478.73 373.71 476.78 388.72 474.92 373.75 477.06 358.76 479.12 328.78 483.21 298.78 487.11 283.78 489.06 268.77 490.92" fill="#cf8046"/><path d="M362.27,480.77l21.27-3.54,21.29-3.46,21.31-3.34,10.66-1.63,10.67-1.57-10.63,1.85-10.63,1.79-21.29,3.47-21.31,3.33C376.51,478.75,369.4,479.83,362.27,480.77Z" fill="#cf8046"/><path d="M248.47,483.54c4.19-.66,8.36-1.42,12.54-2.1s8.38-1.34,12.58-1.93,8.4-1.16,12.62-1.62,8.44-.87,12.69-1.05l2.11-.08-2,.54c-4.23,1.13-8.44,2.38-12.58,3.8-2.07.71-4.12,1.47-6.12,2.34-1,.44-2,.9-2.93,1.43a8.24,8.24,0,0,0-2.5,1.9l-.33-.42c5.39-2.08,10.87-3.87,16.4-5.53s11.09-3.17,16.71-4.49,11.25-2.55,16.93-3.53,11.39-1.79,17.11-2.49c-5.71.79-11.41,1.64-17.06,2.75s-11.3,2.28-16.89,3.64-11.15,2.9-16.66,4.57-11,3.51-16.33,5.6l-1,.38.62-.8a8.59,8.59,0,0,1,2.67-2.09c1-.54,2-1,3-1.44,2-.87,4.1-1.62,6.18-2.33,4.17-1.4,8.38-2.63,12.63-3.74l.07.46c-4.23.15-8.45.54-12.67,1s-8.42,1-12.62,1.54-8.39,1.19-12.58,1.81S252.67,483,248.47,483.54Z" fill="#cf8046"/><path d="M542.91,478.28l8.48-1.6,8.49-1.54,17-3,17-2.88q4.25-.76,8.44-1.72a52.81,52.81,0,0,0,8.26-2.42,51.29,51.29,0,0,1-8.19,2.69c-2.79.71-5.6,1.33-8.43,1.89-5.65,1.06-11.32,2-17,3l-17,2.86L551.44,477Z" fill="#cf8046"/><polygon points="580.42 480.21 590.59 478.67 600.78 477.19 621.16 474.31 641.57 471.58 651.78 470.26 661.99 469 651.82 470.54 641.63 472.03 621.24 474.89 600.84 477.63 590.63 478.95 580.42 480.21" fill="#cf8046"/><path d="M578.1,451.6l16.39-4,16.41-3.95.88-.21-.64.64-5,5-.22-.46c10.13-1.38,20.3-2.51,30.48-3.45q7.65-.71,15.3-1.12c5.11-.27,10.23-.43,15.34-.19-5.11-.14-10.22.17-15.32.51s-10.19.79-15.27,1.3-10.17,1-15.24,1.62S611,448.5,606,449.16l-.8.11.57-.57,5-5,.24.43-16.45,3.78Z" fill="#cf8046"/><path d="M480.35,473.69l16.39-4,16.42-4,.88-.21-.64.64-5,5-.23-.46c10.14-1.37,20.3-2.5,30.49-3.45q7.64-.7,15.3-1.12c5.11-.26,10.23-.43,15.34-.19-5.12-.14-10.22.18-15.32.51s-10.19.79-15.27,1.3-10.17,1-15.25,1.63-10.15,1.19-15.21,1.86l-.8.1.57-.56,5-5,.24.43L496.82,470Z" fill="#cf8046"/><path d="M465.85,593s6.64,7.84,8.16,17.13a43.74,43.74,0,0,1-5.46,1,29.1,29.1,0,0,1-11.82-1.32,8.3,8.3,0,0,0-8.17,1.82,13.46,13.46,0,0,1,4.73-8.27,11.93,11.93,0,0,1,5.9-2.38C462.05,600.58,467.54,599.07,465.85,593Z" fill="#e0b08f"/><path d="M507.48,574.35a17.83,17.83,0,0,0,5,5.73l13.28,10.33,16.53-6.71s-11.12,2.77-17-4.92a18.32,18.32,0,0,0-3-3.14C518.83,572.89,512.06,568.8,507.48,574.35Z" fill="#e0b08f"/><polygon points="455.52 598.02 477.75 598.43 492.16 585.67 495.87 562.61 483.11 558.49 455.52 598.02" fill="#686175" data-primary="true"/><path d="M546.43,490.23s20.85-19.74,46.91-30.53c0,0,15.27-8.19,29,5.58a192.25,192.25,0,0,1,29.12,29.4s51.87,52.29,84.81,83.16l23.05,18.94,14.41,11.94s13.18,10.71,24.71,1.65c0,0,8.64-.82,4.11,9.06,0,0,6.18,3.7.42,6.58a15.2,15.2,0,0,1-8.65,1.65s-9.47,7.41-28.41-.82a87.61,87.61,0,0,0-26.39-5.6,27.54,27.54,0,0,0-8.71.91c-6.71,1.76-20.74,3.51-17.87-13.85,1.19-7.2-2.45-14.48-9.29-17-.62-.24-1.27-.46-2-.66l-29.65-15.24s-35-8.83-49.92-35.9A42,42,0,0,1,619,532c-2.21-6.89-8.81-24.5-16.5-17.15,0,0-22.36,17-29.84,27.39a76.47,76.47,0,0,1-5.38,6.8c-10.65,11.64-42.5,42.1-89.53,49.39,0,0,15.65-24.29,18.12-35.82,0,0,3.82-5.77,6.86-19.23Z" fill="#f9ad9b"/><path d="M511.63,582.32s2.49,13.7,41.58-19.76c0,0-4.43-21.34,6.22-41.12a68.54,68.54,0,0,0,6.71-17.4c2.28-10.15,3.71-23.54-3.41-26.94,0,0-36.23,27.81-46.34,41.69l-1,39.7Z" fill="#f29981"/><path d="M279.3,477.49l10.2-3.71c11.73-4.32,19.76-2.78,19.76-2.78l6.49,27.79c-.93,16.68,3.08,13,3.08,13,5.25.62,3.71-24.08,3.71-24.08,1.85,7.1.92,22.54.92,22.54-1.28,5.49-1.07,8.56-.4,10.26a2.55,2.55,0,0,0,4.7.06c3.27-7.22,2.8-31,2.8-31,.93,6.17.63,26.87.63,26.87-2.48,10.19,3.7,7.71,3.7,7.71,3.7-2.47,3.7-26.55,3.7-26.55-1.85-7.72-.61-9-.61-9,2.16,2.17,3.39,21,3.39,21,0,10.49,5.56,7.4,5.56,7.4,2.47-1.54.62-12,.62-12,.31-6.79-3.09-15.75-3.09-15.75-1.24-8-2.78-9.88-2.78-9.88l-14.51-21.62c-4-8.64-17-6.17-17-6.17l-19.76-.31,7.1-8.65,8.39-8.09,9.41-9.07h0c3.43-2.16,5.77-1,7.1.34a7,7,0,0,1,1.62,2.65,86.43,86.43,0,0,0,4.49,10c3.05,5.86,6.16,10.84,6.35,11.15h0l.87-1.64.13-.23a5.87,5.87,0,0,0,.39-4.52c-1.12-3.47,2.35-6,4.81-7.35a3.35,3.35,0,0,0,.36-.21c.07,0,.15-.08.21-.13a3.17,3.17,0,0,0,.4-.29,3.94,3.94,0,0,0,.45-.36l.34-.32c.08-.08.15-.17.22-.25s.31-.37.44-.54l.2-.31a6.09,6.09,0,0,0,.57-1.07,8,8,0,0,1,.34-.73c.16-.3.3-.58.46-.86s.32-.6.5-.9l.07-.12a39.53,39.53,0,0,1,4.5-6.14l.06-.06.05-.06a67.59,67.59,0,0,1,13.86-11.58c14.61-13.35,41-10.91,49.29-9.75a9.92,9.92,0,0,0,4.41-.52c6.33-2,15,5.45,15,5.45,1.5-18.09-8.14-32.55-8.14-32.55-3.31-6.93-21.4-3.92-21.4-3.92-9.95.6-10.24-3.92-10.24-3.92l-1.21-20.49c-.79-8.26,2.2-10.92,2.2-10.92-25.34-.2-34.79-15.08-35.08-15.54,4.33,8.33-2,12.57-2,12.57,6.69,4.84-2,19.19-2,19.19-2.1,10.77-12.25,12.9-12.25,12.9-2,6.7-12.58,6-12.58,6a12.81,12.81,0,0,0-14.22,1c-3.73,3.4-11.42,15-11.65,15.37h0c-10.5,8.33-22.54,28.41-22.54,28.41-6.18,6.79-10.5,11.11-10.5,11.11L245.65,454c-9.49,10.06-10.35,18.13-9.6,22.87a8.27,8.27,0,0,0,5.78,6.57C247.49,485.19,259.23,486.24,279.3,477.49Z" fill="#f9ad9b"/><path d="M394.08,335.25s-2.36,2.62-2.23,8.08l.38,8.11s-11.18-10.82-17.92-6.45a6.4,6.4,0,0,0-2.11,2.39c-1.38,2.57-6.59,10.33-18.62,8.92l-2.53-24.07L359,319.7S368.58,335.22,394.08,335.25Z" fill="#f29981"/><path d="M359,319.7s9.59,15.55,35.08,15.55c0,0,19.85.33,16.54-10.26a87.77,87.77,0,0,0,0-22.5S409.3,276.67,394.08,272c0,0-33.43-8.6-31.77,4.3,0,0,7.28,9.93,0,14.56,0,0,4.3,6.29-.67,10.26,0,0,2.65,5-.66,8.61A9.52,9.52,0,0,1,359,319.7Z" fill="#f9ad9b"/><ellipse cx="387.71" cy="294.29" rx="9.2" ry="10.14" fill="#fff" opacity="0.35"/><path d="M387.71,304.8c-5.28,0-9.57-4.71-9.57-10.51s4.29-10.51,9.57-10.51,9.58,4.72,9.58,10.51S393,304.8,387.71,304.8Zm0-20.28c-4.87,0-8.83,4.39-8.83,9.77s4,9.77,8.83,9.77,8.84-4.38,8.84-9.77S392.58,284.52,387.71,284.52Z" fill="#f48225" data-secondary="true"/><ellipse cx="408.46" cy="292.11" rx="9.05" ry="10.14" fill="#fff" opacity="0.35"/><path d="M408.46,302.62c-5.19,0-9.42-4.71-9.42-10.51s4.23-10.51,9.42-10.51,9.42,4.71,9.42,10.51S413.65,302.62,408.46,302.62Zm0-20.28c-4.78,0-8.68,4.38-8.68,9.77s3.9,9.77,8.68,9.77,8.68-4.38,8.68-9.77S413.25,282.34,408.46,282.34Z" fill="#f48225" data-secondary="true"/><polygon points="400.32 288.4 395.01 288.16 394.54 287.07 400.38 287.4 400.32 288.4" fill="#f48225" data-secondary="true"/><rect x="363.39" y="293.79" width="15.89" height="1" transform="translate(-76.98 140.95) rotate(-19.51)" fill="#f48225" data-secondary="true"/><path d="M317.63,347.3c-1.18-.13-2.08-.27-2.74-.4a1.94,1.94,0,0,0-2.23,1.34c-1.53,5.3,1.44,10,2.9,11.93a2,2,0,0,1,.26,1.94,12.35,12.35,0,0,0-.53,6.87,2,2,0,0,0,2.66,1.41c2.67-1.1,7.61-2.5,11.89-.26a1.89,1.89,0,0,0,.81.23c1.74.08,8.14.09,11.09-3.95a8.55,8.55,0,0,1,3.51-2.88,15.77,15.77,0,0,0,9.62-11.2,6,6,0,0,1,.7-1.76c1.69-2.91,6.57-12.22,2.76-17.05a1.94,1.94,0,0,1,.08-2.51c1.71-1.84,4.07-5.54,1.35-10.17a1.91,1.91,0,0,1,.13-2.11,9.18,9.18,0,0,0,1.35-8.07,1.93,1.93,0,0,1,.27-1.55,6.88,6.88,0,0,0,.71-6.81,1.92,1.92,0,0,1,.38-2c1.11-1.26,2.57-3.9.54-8a2,2,0,0,1,.42-2.33,7.05,7.05,0,0,0,1.92-6,5,5,0,0,1,3.33-5.26c8.15-2.79,26.18-7.32,35.84,3a1.92,1.92,0,0,0,1.83.56,9.08,9.08,0,0,1,5.47.39s3.64-21.51-12.91-28.46c0,0-14.56-7.28-34.09,7.61,0,0-23.69,16.3-43.73,56.36,0,0-2.84,3-1.42,27.09A2,2,0,0,1,317.63,347.3Z" fill="#7a383a"/><path d="M449.27,423.58s25.89,12.66,31.58,15.36l-11.91,18.95s-18.41-4.33-28.15-8.12Z" fill="#f29981"/><path d="M580.46,605.34c-1.31,1.8-4.14,3.43-10.05,3.6A36,36,0,0,1,558,607c-6.15-2.05-17.89-5.61-26.55-6.09a23.27,23.27,0,0,0-7.28.84,66.24,66.24,0,0,1-8.93,1.73c-8.53,1-19.06.22-21-9.24,0,0-1.14-2.5,1.66-7.1a31.76,31.76,0,0,0,3.48-8.75c.77-3.07,1.65-7,2.39-11.47,1.2-7.34,2-15.89,1-23.51A54.7,54.7,0,0,1,501.4,549c-4.43,15.32-14.91,28.6-22.51,36.73-7.07,7.53-16.65,12.59-27,12.6-13.22,0-27.37-3.55-27.37-3.55l-25.84-57.74,47-49.4,6.19-11.07s27.49-41.22,44.78-56.87c0,0,21-23.46,34.28-22.54,0,0,17.29-3.08,25,14.21,0,0,7,9.08,1.51,28.19a176.31,176.31,0,0,0-3.86,17.3c-2.71,15-7.85,41-13.7,58,0,0-11,29.09-4.06,53.55a29.54,29.54,0,0,0,15.47,18.32c.86.42,1.78.86,2.78,1.31l24.61,11.19A4,4,0,0,1,580.46,605.34Z" fill="#f9ad9b"/><path d="M367.5,509.82a85.29,85.29,0,0,0,8.11,25.95,24.61,24.61,0,0,1,1.08,2.47l12.93,34.64s2.1,3.74,5.35,9.64c3.13,5.68,9.15,7.6,15.64,7.81s13.94,4.49,13.94,4.49-4.66-18.83-2.14-48.72c0,0,.78-18.63,7.38-29.5l15.93-28.92L434.45,470,404.75,472,371.37,483.8Z" fill="#686175" data-primary="true"/><path d="M451.91,476.62c-2.91,4.87-6.19,11.06-6.19,11.06-22.91-9.88-54.36,4.27-54.36,4.27-17.87,8.15-23.86,17.87-23.86,17.87-5-12.42-18.07-35.71-18.07-35.71l0-.09a3.11,3.11,0,0,0,3-.89,15.49,15.49,0,0,1,4.26-4c2.63-1.47,7-3.31,14.13-5a15.64,15.64,0,0,1,1.67-.25c5.16-.47,33.14-3.72,46.11-18.94,0,0,2.13-4.47,6.94-.89,0,0,12,5.53,14.13,10.72C441.31,462.15,451.91,476.62,451.91,476.62Z" fill="#f9ad9b"/><path d="M309.75,310.15s-2.05-47.38,34-61.28c0,0,15.23-5.62,18.2,1L316.3,307.78Z" fill="#686175" data-primary="true"/><path d="M309.75,310.15s-2.05-47.38,34-61.28c0,0,15.23-5.62,18.2,1L316.3,307.78Z" opacity="0.2"/><path d="M393.86,253c.95.3-20.63,1.79-18.32,10.4a11.19,11.19,0,0,0,4,5.62s-17.93-1.47-16.54,6.43a5.63,5.63,0,0,0,.49,1.43c1.05,2.18,4.71,10.81-1.15,14,0,0-17.54-1.32-18.87,8l-.33,4.3s-9.27-2.32-7.94,5.29c0,0-8.28,1.33-6,9.6,0,0-5.29,5-2.32,9.6l-8.62,9.45a56.72,56.72,0,0,1,3.66-19.71s17.21-33.76,38.06-52C360,265.42,380.49,248.74,393.86,253Z" opacity="0.2"/><path d="M316.3,361.07s19.68.38,30.92-16c0,0-3.89,19.3-17,25.23,0,0-6.64-4.63-14.23,1A11.63,11.63,0,0,1,316.3,361.07Z" opacity="0.2"/><path d="M312.66,303.15s-22.5,36.4-4,42c0,0,25.79-67,63.61-87.91a35.23,35.23,0,0,1,17.64-4.57c10.17.2,23.46,5.11,22,29.93,0,0,5.29,3.31,5.29,8.61,0,0,9.6-21.85-.66-37.73,0,0-18.53-34.09-59.24-4C357.34,249.54,330.87,268.73,312.66,303.15Z" fill="#686175" data-primary="true"/><path d="M424.55,594.82c-26.41-2.24-36.66-14.49-44.53-22.63a48.59,48.59,0,0,1-8.5-11.92c-14.17-28.13-4-50.45-4-50.45L395,514.67l20.27,60.49Z" fill="#686175" data-primary="true"/><path d="M350.31,423.45l-.07.06-.06.06a27,27,0,0,0-4.5,6.14l-.07.12c-.17.29-.34.59-.5.9s-.24.45-.37.69l-.5,1a6.54,6.54,0,0,1-.7,1.27c-.13.17-.28.36-.44.54s-.14.17-.22.25l-.34.32a3.94,3.94,0,0,1-.45.36,3.17,3.17,0,0,1-.4.29c-.06.05-.14.08-.21.13l-.42.23s-6.28,2.89-4.79,7.29a5.06,5.06,0,0,1,0,4.81,16.93,16.93,0,0,1-.6,2.26l-.79-.65c-.19-.31-3.3-5.29-6.35-11.15a86.43,86.43,0,0,1-4.49-10,7,7,0,0,0-1.62-2.65c-1.33-1.3-3.67-2.5-7.1-.34.45-.3,7.6-5.15,7.4-10.58,0,0,13.4,10.6,27.54,8.61Z" fill="#f29981"/><path d="M349.4,474s11.32,19.28,18.1,35.8a57.8,57.8,0,0,1,24.82-18.29s-8.66-12.51,3-17.31a22.94,22.94,0,0,0,8.26-5.55,21.14,21.14,0,0,0,5.74-15.6c-.65-14.18-6.88-6.87-6.88-6.87l-30.29,5.15Z" fill="#f29981"/><path d="M448.63,440.36a24.61,24.61,0,0,1-9,14.47c-2.16-5.19-14.13-10.72-14.13-10.72-4.81-3.58-6.94.89-6.94.89-13,15.22-40.95,18.47-46.11,18.94a15.64,15.64,0,0,0-1.67.25c-7.12,1.65-11.5,3.49-14.13,5a15.49,15.49,0,0,0-4.26,4,3.11,3.11,0,0,1-3,.89,8.65,8.65,0,0,1-2-.63,12.85,12.85,0,0,1-4.75-3.63c-3.49-4.24-3.92-7.67-3.92-7.67a5.52,5.52,0,0,1-1.56-6.2l1.42-7.86,23.4-27.84,34.12-8,38.56,3.4a32.49,32.49,0,0,1,11.13,10.78A19.06,19.06,0,0,1,448.63,440.36Z" fill="#686175" data-primary="true"/><path d="M448.78,434.36s-1.13-9.77-12.87-18.06c0,0,5.31-4.26,8.42.7,0,0,6.15,2.13,4.94,6.58C449.27,423.58,455.06,427.48,448.78,434.36Z" fill="#f48225" data-secondary="true"/><path d="M448.78,434.36s-1.13-9.77-12.87-18.06c0,0,5.31-4.26,8.42.7,0,0,6.15,2.13,4.94,6.58C449.27,423.58,455.06,427.48,448.78,434.36Z" opacity="0.2"/><path d="M335.42,452.6a8.33,8.33,0,0,0,1.7,3.28s4-11.07,13.66-10.84c0,0,5,.71,4.72-4,0,0,.94-5.42,3.3-1.89,0,0,3.06,2.36,3.53-4.48,0,0,6.36-21.2,16.5-13.66,0,0,3.29,7.54,5.42,1.17,0,0,1.17-5.42,3.29.71,0,0,1.89,2.83,3.07-2.83,0,0,.23-3.77,2.83,0,0,0,3.29,1.42,5.42-2.35,0,0,2.35-4.24,5.42,1.41,0,0,1.64,2.83,6.12,0,0,0,1.89-2.36,6.6.24,0,0,4,4.71,5.66.23,0,0,1.41-4.24,4.71.24,0,0,1.88,7.77,6.6-1.42,0,0,6.12-7.54,10.36-1.41,0,0,4.25-7.78-5.18-7.78,0,0-3.14-2.94-6.28-2.17a31.56,31.56,0,0,0-8.64-5.62,9.77,9.77,0,0,0-7.3.32,6.6,6.6,0,0,1-3.52.36s-20.47-3.82-38.23,3.12c0,0-7.54,2.62-11,6.64,0,0-14.67,8.86-19.85,20.43a7.32,7.32,0,0,1-3.24,3.51c-2.48,1.32-5.94,3.85-4.79,7.3a5.64,5.64,0,0,1-.29,4.45h0A6.71,6.71,0,0,0,335.42,452.6Z" fill="#f48225" data-secondary="true"/><path d="M342.73,447.92c4.23,2.48,4.59,5.65,4.21,7.77a4.68,4.68,0,0,1-3.22,3.73c-3.84,1.1-6.6-3.54-6.6-3.54h0a14.28,14.28,0,0,1,5.61-8Z" fill="#f48225" data-secondary="true"/><path d="M342.73,447.92c4.23,2.48,4.59,5.65,4.21,7.77a4.68,4.68,0,0,1-3.22,3.73c-3.84,1.1-6.6-3.54-6.6-3.54h0a14.28,14.28,0,0,1,5.61-8Z" opacity="0.2"/><path d="M513.55,474.07a139,139,0,0,0-10.32,36.53,96,96,0,0,0-.46,23.22,48.17,48.17,0,0,1,0,9.56c-3.45,20.06-16.24,34.33-23.85,42.45-7.06,7.54-16.64,12.59-27,12.6-13.22,0-27.37-3.55-27.37-3.55s52.92-6.35,53.2-40c0,0-4.41-37.23,13-57.33,0,0,32.4-60.28,31.82-79.2C522.57,418.31,525.43,450.63,513.55,474.07Z" fill="#f29981"/><path d="M515.24,603.44h0c-8.53,1-19.06.22-21-9.24,0,0-1.14-2.5,1.66-7.1a31.76,31.76,0,0,0,3.48-8.75c.77-3.07,1.65-7,2.39-11.47,3.72,9.14.49,22.53.49,22.53C497.59,600.82,515.24,603.44,515.24,603.44Z" fill="#f29981"/><path d="M432.87,407.05c-2.69-30.62-29.54-36.47-29.54-36.47s18.09-3,21.4,3.92C424.73,374.5,434.37,389,432.87,407.05Z" fill="#f29981"/></svg>