<svg id="b3b8ccc6-63d1-4f76-8306-1ccde8967a07" data-name="Layer 1" xmlns="http://www.w3.org/2000/svg" xmlns:xlink="http://www.w3.org/1999/xlink" width="865.76" height="682.89" viewBox="0 0 865.76 682.89"><defs><clipPath id="a34aaf3b-ed99-4328-83e9-09fea0c0cc29"><path id="e2d912ab-4361-46dc-9bc7-1412dbc4988c" data-name="SVGID" d="M536.86,205.45V581.24c0,10.62-8,19.22-17.76,19.22H343.69c-9.83,0-17.78-8.59-17.78-19.22V205.45c0-21.62,7.95-22.69,17.78-22.69h35.14c2,0,3.71,2.32,3.71,5.19v1.2c0,6.73,3.69,6.75,8.21,6.75H472c4.57,0,8.23,0,8.23-6.75v-1.24c0-2.87,1.65-5.19,3.73-5.19H519.1C528.91,182.76,536.86,185.63,536.86,205.45Z" fill="#fff"/></clipPath></defs><polygon points="450.05 393.5 268.68 97.19 270.38 96.15 450.47 390.35 669.17 183.16 670.55 184.61 450.05 393.5" fill="#ccc"/><polygon points="174.56 406.35 174.47 404.36 445.84 391.14 249.19 307.74 249.97 305.9 454.67 392.71 174.56 406.35" fill="#ccc"/><polygon points="704.96 449.79 452.39 399.68 493.53 61.58 495.51 61.82 454.6 398.07 705.35 447.83 704.96 449.79" fill="#ccc"/><polygon points="254.5 602.74 253.04 601.37 450.14 390.58 450.86 391.13 654.69 545.58 653.48 547.17 450.37 393.26 254.5 602.74" fill="#ccc"/><path d="M168.38,368a35.05,35.05,0,1,0,35.05,35.05h0A35.09,35.09,0,0,0,168.38,368Z" fill="#f48225" data-secondary="true"/><path d="M189.84,402.16a20.11,20.11,0,0,0-40.09-.35v.87A19.75,19.75,0,0,0,152.62,413L149,423.64l11.12-3.53a20.11,20.11,0,0,0,29.75-17.43C189.86,402.51,189.86,402.34,189.84,402.16ZM169.73,419.4a16.82,16.82,0,0,1-9.28-2.77L154,418.7l2.11-6.22a16.56,16.56,0,0,1-3.22-9.81A14.84,14.84,0,0,1,153,401a16.88,16.88,0,0,1,33.66.31v1.3a16.84,16.84,0,0,1-16.82,16.77Z" fill="#fff" fill-rule="evenodd"/><path d="M179,406.69c-.51-.24-2.88-1.44-3.38-1.58s-.78-.24-1.11.24-1.27,1.58-1.55,1.91-.57.36-1.07.12a13.26,13.26,0,0,1-4-2.43,14.52,14.52,0,0,1-2.73-3.36c-.28-.49,0-.76.22-1s.49-.56.73-.84l.19-.23a4.68,4.68,0,0,0,.3-.59.86.86,0,0,0,0-.85c-.13-.24-1.1-2.66-1.52-3.63s-.82-.81-1.11-.81h-.95a1.79,1.79,0,0,0-1.3.6,5.49,5.49,0,0,0-1.73,4.08,6.26,6.26,0,0,0,.26,1.67,11.1,11.1,0,0,0,1.75,3.38c.25.31,3.41,5.41,8.41,7.37s5,1.3,5.9,1.22a4.94,4.94,0,0,0,3.32-2.33,4.25,4.25,0,0,0,.29-2.31A3.3,3.3,0,0,0,179,406.69Z" fill="#fff" fill-rule="evenodd"/><path d="M261.31,56a35.07,35.07,0,0,0,0,70.12h0A35.07,35.07,0,1,0,262.73,56Z" fill="#2f2e41"/><path d="M283.55,79.86a5.75,5.75,0,0,0-4.09-4.14c-3.64-1-18.16-1-18.16-1s-14.52,0-18.14,1a5.85,5.85,0,0,0-4.11,4.14,65.89,65.89,0,0,0,0,22.5,5.86,5.86,0,0,0,4.11,4.14c3.62,1,18.14,1,18.14,1s14.52,0,18.16-1a5.85,5.85,0,0,0,4.09-4.14A64.9,64.9,0,0,0,283.55,79.86Z" fill="#fff"/><polygon points="256.56 98.02 256.56 84.2 268.7 91.11 256.56 98.02" fill="#2f2e41"/><path d="M256.33,557.94a46,46,0,1,0,46,46A46,46,0,0,0,256.33,557.94Z" fill="#2f2e41"/><path d="M248.59,633.39h11.89V603.61h8.29l.89-10h-9.18v-5.75c0-2.36.46-3.28,2.75-3.28h6.43V574.26h-8.23c-8.85,0-12.84,3.9-12.84,11.36v7.94h-6.2v10.06h6.2Z" fill="#fff"/><path d="M655.32,512.12a35.07,35.07,0,1,0,35,35.09v0A35.1,35.1,0,0,0,655.32,512.12Z" fill="#f48225" data-secondary="true"/><path d="M655.32,530.44c5.46,0,6.11,0,8.26.11a11.37,11.37,0,0,1,3.79.71,6.48,6.48,0,0,1,2.34,1.52,6.25,6.25,0,0,1,1.53,2.36,10.88,10.88,0,0,1,.7,3.79c.1,2.16.13,2.87.13,8.25s0,6.1-.13,8.26a10.92,10.92,0,0,1-.7,3.79,6,6,0,0,1-1.53,2.34,6.24,6.24,0,0,1-2.34,1.54,11.11,11.11,0,0,1-3.79.7c-2.15.1-2.8.12-8.26.12s-6.11,0-8.26-.12a11.36,11.36,0,0,1-3.79-.7,6.24,6.24,0,0,1-2.34-1.54,6,6,0,0,1-1.53-2.34,11.16,11.16,0,0,1-.7-3.79c-.1-2.16-.13-2.8-.13-8.26s0-6.09.13-8.25a11.11,11.11,0,0,1,.7-3.79,6.25,6.25,0,0,1,1.53-2.36,6.48,6.48,0,0,1,2.34-1.52,11.37,11.37,0,0,1,3.79-.71c2.15-.1,2.8-.11,8.26-.11m0-3.68c-5.55,0-6.25,0-8.42.12a14.78,14.78,0,0,0-4.88.89,10.43,10.43,0,0,0-6,6,15.31,15.31,0,0,0-.95,5c-.1,2.18-.13,2.87-.13,8.42s0,6.25.13,8.43a15.26,15.26,0,0,0,.95,5,10.46,10.46,0,0,0,6,6,14.93,14.93,0,0,0,5,.94c2.17.11,2.88.12,8.42.12s6.25,0,8.42-.12a15,15,0,0,0,5-.94,10.43,10.43,0,0,0,6-6,15.26,15.26,0,0,0,1-5c.1-2.18.13-2.87.13-8.43s0-6.23-.13-8.42a15.2,15.2,0,0,0-1-4.95,10.43,10.43,0,0,0-6-6,15.31,15.31,0,0,0-5-1c-2.17-.1-2.87-.11-8.42-.11" fill="#fff"/><path d="M655.32,536.69a10.5,10.5,0,1,0,10.49,10.52v0a10.49,10.49,0,0,0-10.49-10.49m0,17.24a6.81,6.81,0,1,1,6.81-6.81h0a6.81,6.81,0,0,1-6.81,6.81" fill="#fff"/><path d="M668.68,536.27a2.46,2.46,0,1,1-2.47-2.44h0a2.45,2.45,0,0,1,2.46,2.44" fill="#fff"/><path d="M668.13,232.74h0A53.15,53.15,0,0,1,615,179.59h0a53.15,53.15,0,0,1,53.15-53.15h0a53.15,53.15,0,0,1,53.16,53.15h0A53.15,53.15,0,0,1,668.13,232.74Z" fill="#2f2e41"/><path d="M639.83,197.42a32.85,32.85,0,0,0,17.8,5.21c21.55,0,33.75-18.21,33-34.55a23.9,23.9,0,0,0,5.74-6,23,23,0,0,1-6.66,1.82,11.66,11.66,0,0,0,5.1-6.42,23.37,23.37,0,0,1-7.37,2.87,11.63,11.63,0,0,0-19.8,10.59,32.92,32.92,0,0,1-23.93-12.12,11.61,11.61,0,0,0,3.59,15.5,11.67,11.67,0,0,1-5.26-1.44,11.63,11.63,0,0,0,9.31,11.49,11.42,11.42,0,0,1-5.23.19A11.59,11.59,0,0,0,657,192.63,23.46,23.46,0,0,1,639.83,197.42Z" fill="#fff"/><path d="M251.47,277.41a27.69,27.69,0,1,0,27.69,27.68A27.68,27.68,0,0,0,251.47,277.41Z" fill="#ccc"/><rect x="237.31" y="297.84" width="6.09" height="19.67" fill="#fff"/><path d="M240.33,295.27a3.64,3.64,0,1,0-3.61-3.67v0a3.63,3.63,0,0,0,3.61,3.64Z" fill="#fff"/><path d="M253.14,307.19c0-2.77,1.26-4.41,3.71-4.41s3.3,1.58,3.3,4.41v10.32h6.06V305.09c0-5.26-3-7.81-7.18-7.81a6.83,6.83,0,0,0-5.92,3.26v-2.63h-5.85v19.67h5.85Z" fill="#fff"/><path d="M703.71,473.66h0A28.73,28.73,0,0,1,675,444.93h0a28.73,28.73,0,0,1,28.74-28.73h0a28.73,28.73,0,0,1,28.73,28.73h0A28.73,28.73,0,0,1,703.71,473.66Z" fill="#ccc"/><path d="M699.48,455.82a5.54,5.54,0,0,0,2.29-1,5.76,5.76,0,0,0,1.43-1.6,5.86,5.86,0,0,0,.91-3.2,5.51,5.51,0,0,0-.79-3,4.48,4.48,0,0,0-2.33-1.78,4.79,4.79,0,0,0,1.54-1.14,4.54,4.54,0,0,0,.93-3,5.13,5.13,0,0,0-.93-3.08,6.18,6.18,0,0,0-5.22-2.14h-9.74v20.12h9A13.8,13.8,0,0,0,699.48,455.82Zm-7.9-16.38H696a7.75,7.75,0,0,1,2.39.32,1.79,1.79,0,0,1,1.07,1.85,1.93,1.93,0,0,1-.81,1.79,4.07,4.07,0,0,1-2.13.48h-4.9Zm0,13.16v-5.37h5a4.94,4.94,0,0,1,2,.33,2.19,2.19,0,0,1,1.29,2.17,2.55,2.55,0,0,1-1.34,2.52,4.88,4.88,0,0,1-2,.35Z" fill="#fff"/><path d="M707.43,454.77a8.07,8.07,0,0,0,5.24,1.83,7.22,7.22,0,0,0,5.62-2.17,4.77,4.77,0,0,0,1.43-2.69h-4a3.15,3.15,0,0,1-.79,1,3.24,3.24,0,0,1-2.17.69,4,4,0,0,1-2.15-.56,3.57,3.57,0,0,1-1.55-3.14h10.84a18.28,18.28,0,0,0-.11-3,7.63,7.63,0,0,0-1.19-3.09,6.22,6.22,0,0,0-2.57-2.2,8.47,8.47,0,0,0-3.51-.7,7.18,7.18,0,0,0-5.33,2.06,8.11,8.11,0,0,0-2,5.89A7.18,7.18,0,0,0,707.43,454.77Zm2.78-9.91a3.14,3.14,0,0,1,2.33-.85,3.47,3.47,0,0,1,2.31.81,3.24,3.24,0,0,1,1,2.35h-6.71A4.07,4.07,0,0,1,710.21,444.86Z" fill="#fff"/><rect x="707.9" y="437.1" width="8.76" height="2.04" fill="#fff"/><path d="M494.52,90.48h0a28.73,28.73,0,0,1-28.73-28.74h0A28.73,28.73,0,0,1,494.52,33h0a28.73,28.73,0,0,1,28.73,28.73h0A28.73,28.73,0,0,1,494.52,90.48Z" fill="#f48225" data-secondary="true"/><path d="M511.2,70.15h0a4.1,4.1,0,0,0-1.08-.39h0a9.26,9.26,0,0,1-4.44-3.23,10,10,0,0,1-1.58-2.69h0a1.32,1.32,0,0,1,0-1.13h0a3.12,3.12,0,0,1,1.52-1h0a5.77,5.77,0,0,0,2.06-1.06h0a1,1,0,0,0,.3-.39.28.28,0,0,0,0-.13.72.72,0,0,0,0-.54h0a1.6,1.6,0,0,0-.72-.69h0a1.44,1.44,0,0,0-1.23-.12h0a6.16,6.16,0,0,1-1.09.32h0a2.64,2.64,0,0,1-1.25,0v-.27h0V56.52h0a22.24,22.24,0,0,0-.09-3.74h0a8.36,8.36,0,0,0-3.51-5.2,8.75,8.75,0,0,0-4.31-1.52h-1.53a9,9,0,0,0-8.71,5.57h0a10.28,10.28,0,0,0-.46,4.54h0a22.93,22.93,0,0,1,.07,3h0a4.29,4.29,0,0,1-1.43,0h0a4.84,4.84,0,0,1-1.14-.32h0a1.43,1.43,0,0,0-1.1.26h0a1.14,1.14,0,0,0-.61.91v.08h0a1,1,0,0,0,.38.61l.38.28h0A11.4,11.4,0,0,0,484,62h0a1.64,1.64,0,0,1,1,1,2.88,2.88,0,0,1-.42,1.78h0a10.82,10.82,0,0,1-3.44,4,8.8,8.8,0,0,1-2.59,1.18h0a1.47,1.47,0,0,0-.92.53v.1a.78.78,0,0,0,.14.72,1.27,1.27,0,0,0,.39.3h0a9.54,9.54,0,0,0,2.37.83h0a8,8,0,0,1,1.44.37l.16.41c.14.43.2.92.36,1.43a.43.43,0,0,0,.33.29.68.68,0,0,0,.56,0h0a9.29,9.29,0,0,1,3.75-.13h0a14.84,14.84,0,0,1,3.59,1.94h0a5.94,5.94,0,0,0,2.87,1h0a19.06,19.06,0,0,0,2.39,0h0a4.53,4.53,0,0,0,1.88-.64h0c1.28-.73,2.4-1.59,3.65-2.15h0a6.27,6.27,0,0,1,1.43-.16h0a18.71,18.71,0,0,1,3.09.14.09.09,0,0,0,.1,0,.54.54,0,0,0,.36-.18.49.49,0,0,0,.1-.22h0a.11.11,0,0,0,0-.08,4.18,4.18,0,0,1,.61-1.44.8.8,0,0,1,.63-.2h0a10.8,10.8,0,0,0,2.44-.69h0a2.13,2.13,0,0,0,1-.68h0a.7.7,0,0,0-.16-1l0,0Z" fill="#fff" fill-rule="evenodd"/><path d="M529.41,169.63h-196a20,20,0,0,0-19.83,20.19V593.38a20,20,0,0,0,19.83,20.2h196a20,20,0,0,0,19.85-20.2V189.82A20,20,0,0,0,529.41,169.63Zm7.44,411.28c0,10.62-8,19.23-17.76,19.23H343.69c-9.83,0-17.78-8.6-17.78-19.23V205.12c0-21.63,7.95-22.7,17.78-22.7h35.14c2,0,3.71,2.32,3.71,5.2v1.2c0,6.75,3.69,6.77,8.21,6.77H472c4.57,0,8.23,0,8.23-6.77v-1.2c0-2.88,1.65-5.2,3.73-5.2H519.1c9.81,0,17.76,2.88,17.76,22.7Z" fill="#2f2e41"/><path d="M442.47,187.2H420.31a1.37,1.37,0,0,1-1.37-1.37h0a1.37,1.37,0,0,1,1.37-1.37h22.16a1.37,1.37,0,0,1,1.37,1.37h0a1.37,1.37,0,0,1-1.37,1.37Z" fill="#fff"/><path id="b5a5ee04-86c4-4d7e-8463-64ab993a8961" data-name="SVGID" d="M536.86,205.45V581.24c0,10.62-8,19.22-17.76,19.22H343.69c-9.83,0-17.78-8.59-17.78-19.22V205.45c0-21.62,7.95-22.69,17.78-22.69h35.14c2,0,3.71,2.32,3.71,5.19v1.2c0,6.73,3.69,6.75,8.21,6.75H472c4.57,0,8.23,0,8.23-6.75v-1.24c0-2.87,1.65-5.19,3.73-5.19H519.1C528.91,182.76,536.86,185.63,536.86,205.45Z" fill="#fff"/><g clip-path="url(#a34aaf3b-ed99-4328-83e9-09fea0c0cc29)"><rect x="320.39" y="182.72" width="222.08" height="47.05" fill="#ccc"/><rect x="317.44" y="230.05" width="227.89" height="98.55" fill="#686175" data-primary="true"/><rect x="322.1" y="354.13" width="218.56" height="123.16" fill="#686175" data-primary="true"/><rect x="322.1" y="354.13" width="218.56" height="123.16" fill="#fff" opacity="0.09"/></g><rect x="337.19" y="204.54" width="156.96" height="15.5" fill="#fff"/><rect x="341.56" y="208.66" width="116.97" height="7.26" fill="#ccc"/><rect x="341.56" y="493.51" width="116.97" height="7.26" fill="#ccc"/><rect x="341.56" y="508.59" width="153.85" height="3.63" fill="#ccc"/><rect x="341.56" y="518.3" width="116.97" height="3.63" fill="#ccc"/><rect x="341.56" y="557.12" width="116.97" height="7.26" fill="#ccc"/><rect x="341.56" y="572.2" width="153.85" height="3.63" fill="#ccc"/><rect x="341.56" y="581.91" width="116.97" height="3.63" fill="#ccc"/><rect x="341.56" y="528.01" width="127.66" height="3.63" fill="#ccc"/><rect x="341.56" y="537.71" width="116.97" height="3.63" fill="#ccc"/><rect x="341.56" y="547.42" width="100.42" height="3.63" fill="#ccc"/><line x1="508.61" y1="218.07" x2="519.39" y2="207.29" fill="none" stroke="#fff" stroke-miterlimit="10" stroke-width="2"/><line x1="508.61" y1="207.29" x2="519.39" y2="218.07" fill="none" stroke="#fff" stroke-miterlimit="10" stroke-width="2"/><rect x="360.01" y="251.08" width="142.77" height="15.5" fill="#fff"/><rect x="360.01" y="281.73" width="107.26" height="14.79" fill="#686175" data-primary="true"/><rect x="360.01" y="281.73" width="107.26" height="14.79" fill="#fff" opacity="0.2"/><rect x="471.2" y="281.73" width="31.58" height="14.79" fill="#686175" data-primary="true"/><rect x="471.2" y="281.73" width="31.58" height="14.79" fill="#fff" opacity="0.42"/><rect x="325.91" y="328.6" width="50.49" height="25.69" fill="#686175" data-primary="true"/><rect x="379.39" y="328.6" width="50.49" height="25.69" fill="#686175" data-primary="true"/><rect x="432.88" y="328.6" width="50.49" height="25.69" fill="#686175" data-primary="true"/><rect x="486.37" y="328.6" width="50.49" height="25.69" fill="#686175" data-primary="true"/><g opacity="0.2"><rect x="325.91" y="328.6" width="50.49" height="25.69" fill="#fff"/><rect x="379.39" y="328.6" width="50.49" height="25.69" fill="#fff"/><rect x="432.88" y="328.6" width="50.49" height="25.69" fill="#fff"/><rect x="486.37" y="328.6" width="50.49" height="25.69" fill="#fff"/></g><rect x="379.07" y="371.68" width="104.62" height="87.56" transform="translate(862.77 830.92) rotate(-180)" fill="#fff"/><polygon points="483.69 460.19 457.57 419.76 423.52 460.19 483.69 460.19" fill="#2f2e41"/><polygon points="439.25 460.19 409.16 405.18 379.07 460.19 439.25 460.19" fill="#2f2e41"/><circle cx="436.8" cy="403.9" r="8.4" transform="translate(-157.66 427.17) rotate(-45)" fill="#2f2e41"/></svg>