<svg id="e057aeaa-be3a-42bb-8a4b-132ed67c724b" data-name="Layer 1" xmlns="http://www.w3.org/2000/svg" width="865.76" height="682.89" viewBox="0 0 865.76 682.89"><g id="b74c104c-8288-4e35-b9a6-cc60b60ff577" data-name="freepik--Shadow--inject-6"><rect x="48.85" y="571.1" width="790.66" height="32.44" fill="#ccc"/><rect x="48.85" y="571.1" width="790.66" height="32.44" fill="#e6e7e8" style="isolation:isolate"/></g><path d="M258.06,489,245.59,249.85a11.84,11.84,0,0,1,11.82-12.45H660.69a11.83,11.83,0,0,1,11.81,11.22L685,489Z" fill="#ccc"/><polygon points="271.17 476.7 670.28 476.7 657.17 250.51 261.33 250.51 271.17 476.7" fill="#fff"/><path d="M258.06,489l2.61,46.31a12.57,12.57,0,0,0,12.56,11.87h405A10.83,10.83,0,0,0,689,535.43L685,489Z" fill="#ccc"/><g opacity="0.2"><path d="M258.06,489l2.61,46.31a12.57,12.57,0,0,0,12.56,11.87h405A10.83,10.83,0,0,0,689,535.43L685,489Z"/></g><path d="M460.48,591.44s-53.27-12.29-54.91-44.26H533.42s3.28,36.06,53.27,44.26Z" fill="#ccc"/><path d="M392.46,547.18s3.28,36.88,46.71,44.26h21.31s-50-10.65-54.91-44.26Z" fill="#ccc"/><g opacity="0.2"><path d="M392.46,547.18s3.28,36.88,46.71,44.26h21.31s-50-10.65-54.91-44.26Z"/></g><rect x="86.19" y="218.12" width="257.4" height="54.33" rx="8" fill="#ccc"/><g opacity="0.2"><rect x="86.19" y="218.12" width="257.4" height="54.33" rx="8"/></g><rect x="145.86" y="241.28" width="162.1" height="4.01" rx="1.29" fill="#fff"/><path d="M112.82,248.49a6.38,6.38,0,1,1,6.37-6.37A6.37,6.37,0,0,1,112.82,248.49Zm0-11.19a4.82,4.82,0,1,0,4.81,4.82A4.82,4.82,0,0,0,112.82,237.3Z" fill="#fff"/><path d="M121.29,250.82a.78.78,0,0,1-.55-.23l-4.25-4.25a.77.77,0,0,1,0-1.1.78.78,0,0,1,1.1,0l4.25,4.25a.78.78,0,0,1-.55,1.33Z" fill="#fff"/><rect x="617.08" y="254.41" width="208.26" height="42.6" rx="3.8" fill="#ccc"/><g opacity="0.2"><rect x="617.08" y="254.41" width="208.26" height="42.6" rx="3.8"/></g><rect x="637.2" y="272.45" width="33.08" height="8.23" rx="2.64" fill="#fff"/><rect x="677.66" y="272.45" width="33.08" height="8.23" rx="2.64" fill="#fff"/><rect x="715.7" y="272.45" width="33.08" height="8.23" rx="2.64" fill="#fff"/><rect x="782.73" y="260.15" width="32.61" height="28.99" rx="1.94" fill="#fff"/><path d="M586,354.54H357.82a6.63,6.63,0,0,1-6.62-6.62v-28a6.63,6.63,0,0,1,6.62-6.61H586a6.63,6.63,0,0,1,6.62,6.61v28A6.63,6.63,0,0,1,586,354.54ZM357.82,314.86a5.06,5.06,0,0,0-5.06,5.05v28a5.07,5.07,0,0,0,5.06,5.06H586a5.07,5.07,0,0,0,5.06-5.06v-28a5.06,5.06,0,0,0-5.06-5.05Z" fill="#ccc"/><rect x="444.18" y="286.65" width="64.19" height="12.84" fill="#ccc"/><rect x="367.16" y="372.43" width="81.11" height="6.59" fill="#ccc"/><rect x="367.16" y="384.47" width="66.52" height="5.81" fill="#ccc"/><rect x="367.16" y="394.44" width="98.15" height="5.81" fill="#ccc"/><rect x="367.16" y="405.97" width="89.28" height="5.81" fill="#ccc"/><rect x="405.57" y="427.87" width="38.61" height="5.25" fill="#ccc"/><rect x="518.78" y="427.87" width="26.78" height="5.25" fill="#ccc"/><rect x="558.19" y="427.87" width="63.52" height="5.25" fill="#ccc"/><path d="M598.62,476.19a9.09,9.09,0,0,0,5,5c1.76.72,4.12.56,6.83,2.09,6.13,3.44,21.42.37,32.5,1.56s26-11.08,26-11.08l44,2.41V432.55s-45.89,1.92-55.83-1.92-21-11.84-26-11.47-45.88,5-45.88,5l13.38,52.06Z" fill="#f9b499" stroke="#f7a48b" stroke-miterlimit="10" stroke-width="0.75"/><path d="M587.24,300.22a46.19,46.19,0,1,0,51,40.82h0a46.15,46.15,0,0,0-50.92-40.83ZM596.41,383A37,37,0,1,1,629.14,342,37,37,0,0,1,596.41,383Z" fill="#f48225" data-secondary="true"/><g opacity="0.2"><path d="M587.24,300.22a46.19,46.19,0,1,0,51,40.82h0a46.15,46.15,0,0,0-50.92-40.83ZM596.41,383A37,37,0,1,1,629.14,342,37,37,0,0,1,596.41,383Z"/></g><path d="M587,297.59a46.18,46.18,0,1,0,51,40.82h0A46.2,46.2,0,0,0,587,297.59Zm9.17,82.73a37.05,37.05,0,1,1,32.73-40.92,37.06,37.06,0,0,1-32.73,40.92Z" fill="#f48225" data-secondary="true"/><rect x="594.26" y="390.24" width="11.18" height="41.18" rx="4.49" transform="translate(-41.58 68.53) rotate(-6.32)" fill="#2f2e41"/><path d="M598,417l4.68-.5a7.69,7.69,0,0,1,8.45,6.74l7,63.29a9.83,9.83,0,0,1-8.68,10.84h-.32a9.81,9.81,0,0,1-10.83-8.66v0l-7-63.29a7.67,7.67,0,0,1,6.77-8.47h0Z" fill="#2f2e41"/><path d="M604.76,469.71s-11.08.4-12.64,2.32-1.28,8.59,1.73,9.35c7.67,2,24,.84,24.61-.53s1.95-9.35-1.42-10.21A81.39,81.39,0,0,0,604.76,469.71Z" fill="#f9b499" stroke="#f7a48b" stroke-miterlimit="10" stroke-width="0.75"/><path d="M601.57,454.25s-12.89-.49-14.91,1.84-2.4,11,1,12.31c8.67,3.32,28.17,2,29.06.31s2.82-10.61-1-12S601.57,454.25,601.57,454.25Z" fill="#f9b499" stroke="#f7a48b" stroke-miterlimit="10" stroke-width="0.75"/><path d="M599.71,436.79s-13.78-.53-15.93,2-2.57,11.76,1.06,13.16c9.35,3.55,29.62,3.55,30.57,1.71s3.5-12.72-.58-14.26S599.71,436.79,599.71,436.79Z" fill="#f9b499" stroke="#f7a48b" stroke-miterlimit="10" stroke-width="0.75"/><path d="M591.76,420.45s-13.78-.51-15.93,2-2.66,12,1.06,13.15,29.62,3.56,30.57,1.73,3.5-12.73-.58-14.27S591.76,420.45,591.76,420.45Z" fill="#f9b499" stroke="#f7a48b" stroke-miterlimit="10" stroke-width="0.75"/><path d="M636.88,466.29a23.15,23.15,0,0,1-6.93-3.21c-11.08-7.65-10.71-25.23-10.71-25.23l-2.66-.76a24.33,24.33,0,0,1-3.74-1.81,1.17,1.17,0,0,0-1.76,1.24,56.4,56.4,0,0,1,.93,8.2,8.27,8.27,0,0,1-7.62,8.09c-3.45.39-5,.77-6.13-3.82s-6.87-22.94-7.26-25.62c-.35-2.43,3.74-6.77,10.24-7.79,10,.81,19.84,3.6,29.91,3.6a20.28,20.28,0,0,1,9.74,3.58" fill="#f9b499" stroke="#f7a48b" stroke-miterlimit="10" stroke-width="0.75"/><polyline points="809.43 495.75 677.64 495.75 677.64 430.98 809.43 430.98" fill="#686175" data-primary="true"/><circle cx="687.31" cy="488.46" r="2.96" fill="#fff"/><path d="M522.93,288.54a9.09,9.09,0,0,0,5-5c.71-1.76.54-4.1,2.08-6.83,3.43-6.11.38-21.4,1.56-32.5s-11.1-26-11.1-26l2.39-44H479.24s1.9,45.88-1.92,55.81-11.85,21-11.47,26,5,45.86,5,45.86l52-13.39Z" fill="#f9b499" stroke="#f7a48b" stroke-miterlimit="10" stroke-width="0.75"/><path d="M347.06,299.89a46.19,46.19,0,1,0,40.86-50.95h-.11A46.18,46.18,0,0,0,347.06,299.89Zm82.61-9.18A37.06,37.06,0,1,1,388.73,258h0A37.07,37.07,0,0,1,429.67,290.71Z" fill="#2f2e41"/><g opacity="0.2"><path d="M347.06,299.89a46.19,46.19,0,1,0,40.86-50.95h-.11A46.18,46.18,0,0,0,347.06,299.89Zm82.61-9.18A37.06,37.06,0,1,1,388.73,258h0A37.07,37.07,0,0,1,429.67,290.71Z"/></g><path d="M344.37,300.17a46.17,46.17,0,1,0,40.82-51,46.17,46.17,0,0,0-40.82,51ZM427.1,291a37,37,0,1,1-40.91-32.73A37,37,0,0,1,427.1,291Z" fill="#2f2e41"/><rect x="437.04" y="281.75" width="41.18" height="11.18" rx="4.49" transform="translate(-28.85 52.12) rotate(-6.32)" fill="#2f2e41"/><path d="M463.74,289.21l-.51-4.67a7.69,7.69,0,0,1,6.8-8.48l63.28-7a9.83,9.83,0,0,1,10.9,8.63v.05h0v.31A9.85,9.85,0,0,1,535.58,289h0l-63.29,7A7.7,7.7,0,0,1,463.74,289.21Z" fill="#2f2e41"/><path d="M516.47,282.42s.42,11.06,2.33,12.62,8.6,1.28,9.35-1.73c2-7.65.84-24-.53-24.59s-9.35-2-10.2,1.41A82.87,82.87,0,0,0,516.47,282.42Z" fill="#f9b499" stroke="#f7a48b" stroke-miterlimit="10" stroke-width="0.75"/><path d="M501,285.6s-.5,12.89,1.82,14.9,11,2.41,12.31-1c3.34-8.67,2-28.17.32-29s-10.62-2.82-12.05,1S501,285.6,501,285.6Z" fill="#f9b499" stroke="#f7a48b" stroke-miterlimit="10" stroke-width="0.75"/><path d="M483.57,287.48s-.53,13.78,1.95,15.93,11.77,2.57,13.17-1.07c3.55-9.26,3.55-29.62,1.71-30.55s-12.73-3.51-14.26.57S483.57,287.48,483.57,287.48Z" fill="#f9b499" stroke="#f7a48b" stroke-miterlimit="10" stroke-width="0.75"/><path d="M467.24,295.41s-.53,13.78,2,15.93,12,2.67,13.15-1.07,3.56-29.62,1.72-30.57-12.72-3.49-14.26.6S467.24,295.41,467.24,295.41Z" fill="#f9b499" stroke="#f7a48b" stroke-miterlimit="10" stroke-width="0.75"/><path d="M514,239.71a27.2,27.2,0,0,1-4.18,17.5c-7.64,11.1-25.24,10.71-25.24,10.71l-.76,2.68a23.15,23.15,0,0,1-3.44,6.11,56,56,0,0,1,11.09-1.56,8.3,8.3,0,0,1,8,7.66c.39,3.44.76,5-3.82,6.11s-22.94,6.88-25.62,7.27c-2.43.35-6.77-3.74-7.8-10.24.83-10,3.62-19.85,3.62-29.91a20.19,20.19,0,0,1,3.59-9.75" fill="#f9b499" stroke="#f7a48b" stroke-miterlimit="10" stroke-width="0.75"/><polyline points="542.53 77.73 542.53 209.52 477.74 209.52 477.74 77.73" fill="#f48225" data-secondary="true"/><circle cx="535.22" cy="199.85" r="2.96" fill="#fff"/><path d="M408.44,583.21a9,9,0,0,1-5,5c-1.76.73-4.1.56-6.83,2.09-6.11,3.44-21.4.39-32.49,1.55s-26-11.08-26-11.08l-44,2.42V539.57s45.89,1.91,55.83-1.91,21-11.86,26-11.47,45.89,5,45.89,5Z" fill="#f9b499" stroke="#f7a48b" stroke-miterlimit="10" stroke-width="0.75"/><path d="M419.75,407.33a46.19,46.19,0,1,1-51,40.82h0a46.17,46.17,0,0,1,51-40.8Zm-9.17,82.73a37.06,37.06,0,1,0-32.73-40.94h0A37.07,37.07,0,0,0,410.58,490.06Z" fill="#2f2e41"/><g opacity="0.2"><path d="M419.75,407.33a46.19,46.19,0,1,1-51,40.82h0a46.17,46.17,0,0,1,51-40.8Zm-9.17,82.73a37.06,37.06,0,1,0-32.73-40.94h0A37.07,37.07,0,0,0,410.58,490.06Z"/></g><path d="M420,404.7a46.17,46.17,0,1,1-51,40.8,46.15,46.15,0,0,1,51-40.8Zm-9.17,82.73a37.06,37.06,0,1,0-32.73-40.95h0a37.07,37.07,0,0,0,32.73,40.92Z" fill="#2f2e41"/><rect x="386.57" y="512.36" width="41.18" height="11.18" rx="4.49" transform="translate(-152.46 865.61) rotate(-83.68)" fill="#2f2e41"/><path d="M398,604.5h-.32A9.82,9.82,0,0,1,389,593.67v-.08l7-63.28a7.67,7.67,0,0,1,8.45-6.8h0l4.68.52a7.68,7.68,0,0,1,6.79,8.48l-7,63.35A9.85,9.85,0,0,1,398,604.55h0Z" fill="#2f2e41"/><path d="M402.21,576.8s11.07.42,12.63,2.33,1.27,8.58-1.73,9.35c-7.66,2-24,.84-24.6-.53s-2-9.35,1.42-10.21A81.4,81.4,0,0,1,402.21,576.8Z" fill="#f9b499" stroke="#f7a48b" stroke-miterlimit="10" stroke-width="0.75"/><path d="M405.45,561.39s12.89-.5,14.9,1.82,2.42,11-1,12.31c-8.67,3.32-28.17,2-29,.32s-2.82-10.62,1-12.05S405.45,561.39,405.45,561.39Z" fill="#f9b499" stroke="#f7a48b" stroke-miterlimit="10" stroke-width="0.75"/><path d="M407.34,543.88s13.78-.51,15.93,2,2.57,11.77-1.06,13.15c-9.35,3.57-29.62,3.56-30.57,1.73s-3.5-12.73.58-14.27S407.34,543.88,407.34,543.88Z" fill="#f9b499" stroke="#f7a48b" stroke-miterlimit="10" stroke-width="0.75"/><path d="M415.27,527.56s13.78-.53,15.93,2,2.67,12-1.07,13.17-29.62,3.54-30.57,1.72-3.49-12.74.59-14.26S415.27,527.56,415.27,527.56Z" fill="#f9b499" stroke="#f7a48b" stroke-miterlimit="10" stroke-width="0.75"/><path d="M361.69,574.43A26.1,26.1,0,0,0,377,570.18c11.1-7.65,10.71-25.24,10.71-25.24l2.68-.76a23.15,23.15,0,0,0,6.11-3.44A54.49,54.49,0,0,0,395,551.82a8.3,8.3,0,0,0,7.65,8c3.45.37,5,.76,6.13-3.83s6.87-22.95,7.26-25.61-3.74-6.78-10.24-7.8c-10,.83-19.86,3.62-29.91,3.62a20.44,20.44,0,0,0-9.76,3.57" fill="#f9b499" stroke="#f7a48b" stroke-miterlimit="10" stroke-width="0.75"/><polyline points="197.59 602.86 329.38 602.86 329.38 538.07 197.59 538.07" fill="#686175" data-primary="true"/><path d="M305,589.56a3,3,0,1,0,3-3h0A3,3,0,0,0,305,589.56Z" fill="#fff"/><path d="M797.84,279.63a6.38,6.38,0,1,1,6.37-6.38A6.38,6.38,0,0,1,797.84,279.63Zm0-11.19a4.82,4.82,0,1,0,4.82,4.81A4.82,4.82,0,0,0,797.84,268.44Z" fill="#ccc"/><path d="M806.31,282a.78.78,0,0,1-.55-.23l-4.25-4.25a.78.78,0,1,1,1.1-1.1l4.25,4.25a.77.77,0,0,1,0,1.1A.78.78,0,0,1,806.31,282Z" fill="#ccc"/><path d="M80.26,502.84S70.37,480.77,68,478.51,46.71,469.38,41.46,452s-15.21-63.9,9.91-60.86,19,51.74,28.13,50.21-7.6-79.1,8.37-89.84,41.83-.75,38.79,40.33-9.12,64.63-3.79,62.37S143.4,443.51,143.4,461,129,490.67,120.58,491.43,108.33,493,108.33,493v11.39Z" fill="#bcbec0"/><path d="M72.21,460.46a.4.4,0,0,1-.27-.11c-5.45-5.16-11-10.63-13.51-15.64-4.79-9.61-8.34-35.77-8.49-36.88a.39.39,0,0,1,.33-.44.41.41,0,0,1,.44.34c0,.27,3.68,27.14,8.42,36.63,2.46,4.9,7.94,10.31,13.35,15.43a.38.38,0,0,1,0,.55A.38.38,0,0,1,72.21,460.46Z" fill="#fff"/><path d="M94.45,508.32h0l-9.07-.61a.39.39,0,0,1-.36-.35,239.32,239.32,0,0,0-3.65-24.11c-1-3.52-6.32-7.07-12-10.82-4.58-3-9.31-6.15-12.07-9.53-9.37-11.34-11.51-21.49-14-33.23-.58-2.75-1.17-5.58-1.89-8.56a.39.39,0,0,1,.29-.47.4.4,0,0,1,.47.29c.72,3,1.31,5.83,1.89,8.58,2.46,11.64,4.58,21.7,13.83,32.89,2.69,3.3,7.37,6.39,11.9,9.38,5.8,3.84,11.28,7.46,12.33,11.29A238.73,238.73,0,0,1,85.73,507l8.37.56c.23-2.43,1.29-16.31-3.36-26.35a.4.4,0,0,1,.19-.52.41.41,0,0,1,.52.19c5.17,11.18,3.4,27,3.38,27.14A.39.39,0,0,1,94.45,508.32Z" fill="#fff"/><path d="M39.93,414.05a.39.39,0,0,1-.38-.32c-2.43-12.9,4.23-18.19,4.51-18.41a.4.4,0,0,1,.55.08.38.38,0,0,1-.07.54c-.07.05-6.56,5.24-4.22,17.65A.39.39,0,0,1,40,414Z" fill="#fff"/><path d="M84.13,448.54a.36.36,0,0,1-.2-.06.4.4,0,0,1-.13-.54l3.6-5.82a.39.39,0,0,1,.66.41l-3.59,5.82A.42.42,0,0,1,84.13,448.54Z" fill="#fff"/><path d="M87.73,442.72a.42.42,0,0,1-.21-.06.39.39,0,0,1-.12-.54l1.24-2a.4.4,0,0,1,.54-.13.4.4,0,0,1,.13.54l-1.25,2A.39.39,0,0,1,87.73,442.72Z" fill="#fff"/><path d="M89.85,433.41h0a.39.39,0,0,1-.38-.41c.46-10.81-.69-29.76-1.62-45-.58-9.49-1.07-17.69-1.07-22,0-3.92,1.19-7.05,3.53-9.29,4.18-4,10.49-3.79,10.76-3.78a.39.39,0,0,1,.37.41.42.42,0,0,1-.41.37c-.06,0-6.25-.21-10.19,3.56-2.18,2.1-3.28,5-3.28,8.73,0,4.26.49,12.44,1.07,21.92.92,15.24,2.08,34.21,1.62,45.06A.4.4,0,0,1,89.85,433.41Z" fill="#fff"/><path d="M104.74,501.66h0a.39.39,0,0,1-.36-.42,55.6,55.6,0,0,1,1.83-10.93c.76-1.94,2.88-1.8,5.56-1.61a23.25,23.25,0,0,0,8-.48,29.72,29.72,0,0,0,20.83-22.63c1.49-7.14.26-10.4-1-11.88a4.36,4.36,0,0,0-3.38-1.54c-3.94.29-10.46,7.31-15.71,12.94-4.87,5.23-7.47,7.94-8.78,7.41-.44-.17-.67-.65-.67-1.43,0-1.11.17-3.9.53-9a.38.38,0,0,1,.42-.36.39.39,0,0,1,.36.42c-.37,5.11-.53,7.88-.53,9,0,.51.11.68.17.71.88.35,4.79-3.85,7.93-7.22,5.34-5.73,12-12.87,16.23-13.19a5.14,5.14,0,0,1,4,1.79c2.06,2.35,2.48,6.57,1.23,12.56A30.51,30.51,0,0,1,120,489a24.16,24.16,0,0,1-8.26.51c-2.78-.2-4.26-.23-4.78,1.07a56.93,56.93,0,0,0-1.79,10.75A.38.38,0,0,1,104.74,501.66Z" fill="#fff"/><path d="M112.84,449.68h0a.41.41,0,0,1-.36-.42l.16-2c1.83-22.89,4.33-54.24,4.33-68a53,53,0,0,0-1.46-13.28.39.39,0,1,1,.76-.18,53.56,53.56,0,0,1,1.48,13.47c0,13.73-2.5,45.1-4.33,68l-.16,2A.4.4,0,0,1,112.84,449.68Z" fill="#fff"/><path d="M113.11,359.44a.38.38,0,0,1-.35-.22,10.32,10.32,0,0,0-4.07-4.29.39.39,0,1,1,.38-.67,11,11,0,0,1,4.38,4.61.38.38,0,0,1-.17.52A.34.34,0,0,1,113.11,359.44Z" fill="#fff"/><path d="M98.63,467.26h0a.4.4,0,0,1-.37-.41l.43-8.45a.37.37,0,0,1,.41-.37.39.39,0,0,1,.37.41L99,466.89A.39.39,0,0,1,98.63,467.26Z" fill="#fff"/><path d="M99.37,450.35h0A.38.38,0,0,1,99,450c.55-19,1.43-64.12.47-74.21-1.22-12.84,2.51-14.23,2.67-14.29a.38.38,0,0,1,.49.25.39.39,0,0,1-.23.49c-.07,0-3.3,1.49-2.16,13.48,1.06,11.12-.12,62.24-.46,74.3A.4.4,0,0,1,99.37,450.35Z" fill="#fff"/><path d="M99.22,506.46h0a.4.4,0,0,1-.37-.41c0-.12.62-12.19.62-18.7,0-4.62.4-4.86,5.68-6.5,2.45-.76,6.14-1.91,11.46-4.07a48.69,48.69,0,0,0,23.35-21.57.39.39,0,1,1,.68.37A49.48,49.48,0,0,1,116.9,477.5c-5.36,2.17-9.08,3.33-11.53,4.09-5.14,1.6-5.14,1.6-5.14,5.76,0,6.53-.61,18.62-.62,18.74A.39.39,0,0,1,99.22,506.46Z" fill="#fff"/><polygon points="117.64 591.86 64.88 591.86 53.59 515.44 128.93 515.44 117.64 591.86" fill="#bcbec0"/><rect x="47.11" y="503.39" width="87.52" height="20.46" rx="4.46" fill="#a7a9ac"/></svg>