<svg id="f71c322c-53d2-45fc-b887-0480cfeec7ec" data-name="Layer 1" xmlns="http://www.w3.org/2000/svg" width="865.76" height="682.89" viewBox="0 0 865.76 682.89"><path d="M150.43,79.27H689.79a15,15,0,0,1,15,15V441.48a0,0,0,0,1,0,0h-568a0,0,0,0,1,0,0V92.92a13.65,13.65,0,0,1,13.65-13.65Z" fill="#ccc"/><path d="M704.79,346.46H456.2a16,16,0,0,1-16-16V126.51H704.79Z" opacity="0.1"/><path d="M149.59,79.27H690.2a14.59,14.59,0,0,1,14.59,14.59v8.82a0,0,0,0,1,0,0h-568a0,0,0,0,1,0,0V92.08A12.8,12.8,0,0,1,149.59,79.27Z" opacity="0.1"/><rect x="136.78" y="102.68" width="568" height="23.82" fill="#fff" opacity="0.2"/><rect x="155.36" y="108.15" width="270.82" height="11.08" rx="5.54" opacity="0.1"/><rect x="459.63" y="109.05" width="228.28" height="11.08" rx="5.54" opacity="0.1"/><circle cx="655.5" cy="165.77" r="5.41" fill="#ccc"/><path d="M642,182.51h0a2.36,2.36,0,0,1,.78-1.76c2.91-2.62,13.58-10.79,24.13-.93a3,3,0,0,1,.94,2.16h0a2.93,2.93,0,0,1-.82,2c-2.73,2.81-12,10.46-24.15.35A2.43,2.43,0,0,1,642,182.51Z" fill="#ccc"/><rect x="470" y="233.65" width="67.74" height="7.08" rx="3.54" fill="#ccc"/><rect x="470" y="246.32" width="67.74" height="7.08" rx="3.54" fill="#ccc"/><path d="M688.08,286.47c-8.52,11.56-24.67-.37-24.67-.37-36.54-30.58-59.28,8.57-59.28,8.57-30.21,37.66-58.55,11.19-58.55,11.19-10.49-12.37-20-16.07-27-16.7a22.43,22.43,0,0,0-13.45,3.31c-30.34,18.17-42.75-26.14-42.75-26.14v78.84H688.08Z" fill="#ccc"/><path d="M688.08,345.17V255.52c-20.2.33-27.08,21-28.48,26.08a25.25,25.25,0,0,1-.84,2.59C644,321.58,612.42,304.78,602,297.87a61.38,61.38,0,0,0-15.65-7.58c-37.12-11.48-67.21,15.57-67.21,15.57-38.78,35.05-56.68-10.44-56.68-10.44v49.75Z" fill="#fff" opacity="0.25"/><circle cx="490.38" cy="318.66" r="5.22" fill="#ccc"/><circle cx="517.97" cy="289.85" r="5.22" fill="#ccc"/><circle cx="564.52" cy="287.24" r="5.22" fill="#ccc"/><circle cx="568.29" cy="314.31" r="5.22" fill="#ccc"/><circle cx="632.14" cy="274.41" r="5.22" fill="#ccc"/><circle cx="632.14" cy="307.35" r="5.22" fill="#ccc"/><circle cx="676.07" cy="259.25" r="5.22" fill="#ccc"/><path d="M205.94,186H390.29a0,0,0,0,1,0,0v36.92a0,0,0,0,1,0,0H205.94a18.46,18.46,0,0,1-18.46-18.46v0A18.46,18.46,0,0,1,205.94,186Z" opacity="0.1"/><circle cx="388.33" cy="204.46" r="18.24" fill="#808285"/><path d="M386.69,195.13a7.63,7.63,0,1,0,7.63,7.63A7.62,7.62,0,0,0,386.69,195.13Zm0,11.23a3.61,3.61,0,1,1,3.6-3.6A3.61,3.61,0,0,1,386.69,206.36Z" fill="#ccc"/><rect x="394.45" y="207" width="0.87" height="7.98" transform="translate(-33.54 340.99) rotate(-45)" fill="#ccc"/><rect x="177.54" y="366.39" width="123.05" height="8.2" opacity="0.1"/><rect x="177.54" y="390.01" width="224.72" height="7.46" opacity="0.1"/><rect x="177.54" y="407.41" width="224.72" height="7.46" opacity="0.1"/><rect x="177.54" y="293.55" width="123.05" height="8.2" opacity="0.1"/><rect x="177.54" y="317.17" width="224.72" height="7.46" opacity="0.1"/><rect x="177.54" y="334.57" width="224.72" height="7.46" opacity="0.1"/><rect x="178.2" y="236.14" width="123.05" height="8.2" opacity="0.2"/><rect x="178.2" y="259.76" width="224.72" height="7.46" opacity="0.1"/><rect x="178.2" y="277.16" width="224.72" height="7.46" opacity="0.1"/><path d="M180.44,579.25s13.35.79,16.5,0,9.43-5.89,10.22-2-3.53,9.44-6.24,12.57-13.73,5.91-16.9,7.49-7.87,5.51-11.8,5.51-6.24-13-6.24-13,11.78-7.07,15-12.19" fill="#686175" data-primary="true"/><path d="M206.46,576.11c-8,14.78-21.22,17.29-21.22,17.29L168.52,599c1,2.16,2.19,3.87,3.6,3.87,3.93,0,8.65-3.93,11.8-5.5s14.15-4.33,16.9-7.49,7.08-8.64,6.24-12.57A1.78,1.78,0,0,0,206.46,576.11Z" fill="#2f2e41"/><path d="M38.72,569.28s-10.24,11.6-11.11,15,7,8,9,9.39a70.63,70.63,0,0,0,17.25,8.66c2.17.75,12.83,3.26,11.44-2-1-3.91-9.23-8.42-10.26-10.71s-2.75-6.78-2.75-6.78Z" fill="#686175" data-primary="true"/><path d="M36.63,593.71a70.28,70.28,0,0,0,17.25,8.66c1.89.65,10.18,2.62,11.41-.32-3.74-.22-10.93-1.4-20.13-6.66a123.47,123.47,0,0,1-17.34-11.67q-.12.3-.21.6C26.8,587.55,34.61,592.27,36.63,593.71Z" fill="#2f2e41"/><path d="M66.44,423.74l4.26,31.42,3.6,66.29s-11,10.61-17.28,17.69-20.61,31.75-20.61,31.75,1.13,6.18,8.17,10.39,10.86,3.55,10.86,3.55L60.52,576l1.83-4s41.05-39.53,41.83-44.65S109,466.91,109,466.91L141.13,514s3.94,31,7.06,38.53,16.13,31.84,16.13,31.84l1.57,5.49a10.31,10.31,0,0,0,9.83-2,44.1,44.1,0,0,0,7.1-8.49l-4.36-5.26-.78-3.55s-10.61-63.28-13-70.75-31.12-72.14-31.12-72.14l-6.24-17.29s-5.89,3.92-24,9.43S66.44,423.74,66.44,423.74Z" fill="#2f2e41"/><path d="M106.47,430.43c13.18-6,19.41-12,22.32-15.95l-1.49-4.09s-5.89,3.92-24,9.42c-16.22,4.92-32.94,4.2-36.32,4l-.61.09,1.16,8.4A50.51,50.51,0,0,0,106.47,430.43Z" opacity="0.2"/><path d="M59.5,331.87l-31,23L63.62,420.6a9.8,9.8,0,0,0,3.54,6.24c3.25,2.66,24.47,2.07,32.13-.29A131.58,131.58,0,0,0,122,416.23c3.24-2.06,7.66-6.49,6.47-10.32a32.26,32.26,0,0,0-3.23-7.07l-6.24-18s24.46,1.47,27.71,1.47S161.15,354,161.15,354s-3.24-.3-4.42-2.36a19.8,19.8,0,0,1-1.67-4.48,95.55,95.55,0,0,1-10.61,5.32c-6.24,2.65-12.68,3.23-15.33,2.06s-18.28-15.33-21.82-19.76-4.13-6.24-5.3-6.24-23,1.49-25.65,1.49S59.5,331.87,59.5,331.87Z" fill="#686175" data-primary="true"/><path d="M156.78,351.62a19.51,19.51,0,0,1-1.72-4.3l-.92,1.06s-4.72,3.53-3.54,8.55c.74,3.13,4.36,4.19,7.56,4.47,1.79-4.23,3.05-7.42,3.05-7.42S158,353.68,156.78,351.62Z" opacity="0.2"/><g opacity="0.2"><rect x="105.55" y="340.87" width="0.87" height="4.82" transform="translate(-106.94 53.91) rotate(-19.19)"/></g><g opacity="0.2"><polygon points="118.64 380.95 107.75 349.69 108.58 349.41 119.46 380.66 118.64 380.95"/></g><path d="M59.79,444.59h0a16.62,16.62,0,0,1-2.21-23.41c.1-.13.21-.26.32-.38L178.78,282.11l18.47,15.29L83.51,442a16.63,16.63,0,0,1-23.35,2.9Z" fill="#2f2e41"/><path d="M146.62,319,57.9,420.8A16.63,16.63,0,0,0,83.51,442l83.91-106.68Z" fill="#f48225" data-secondary="true"/><path d="M30.85,422.6C45,421.54,91,415.29,91,415.29l1.47-10-36.58-7.38a3.68,3.68,0,0,1-3-3.57L52.71,369c-.21-19.72-18.6-17.8-18.6-17.8s-7,1.86-7,4.8c0,2.56,0,49.16-.19,62.72C26.88,418.76,26.64,422.91,30.85,422.6Z" fill="#686175" data-primary="true"/><path d="M30.85,422.6C45,421.54,91,415.29,91,415.29l1.47-10-36.58-7.38a3.68,3.68,0,0,1-3-3.57L52.71,369c-.21-19.72-18.6-17.8-18.6-17.8s-7,1.86-7,4.8c0,2.56,0,49.16-.19,62.72C26.88,418.76,26.64,422.91,30.85,422.6Z" opacity="0.2"/><polygon points="85.6 351.21 86.36 331.89 78.83 329.38 80.08 337.16 85.6 351.21" fill="#686175" data-primary="true"/><polygon points="85.6 351.21 86.36 331.89 78.83 329.38 80.08 337.16 85.6 351.21" opacity="0.2"/><polygon points="86.36 331.89 91.88 343.19 85.94 342.66 86.36 331.89" fill="#686175" data-primary="true"/><polygon points="86.36 331.89 91.88 343.19 85.94 342.66 86.36 331.89" fill="#fff" opacity="0.2"/><polygon points="59.51 324.36 54.34 335.34 74.56 346.94 77.98 331.77 59.51 324.36" fill="#686175" data-primary="true"/><polygon points="59.51 324.36 54.34 335.34 74.56 346.94 77.98 331.77 59.51 324.36" opacity="0.2"/><path d="M676.43,392.8h139.8a22.65,22.65,0,0,1,22.66,22.66h0V582.79a5.51,5.51,0,0,1-5.51,5.5H659.28a5.51,5.51,0,0,1-5.51-5.5h0V415.46a22.66,22.66,0,0,1,22.66-22.66Z" fill="#808285"/><path d="M661.57,391.5H801.35A22.66,22.66,0,0,1,824,414.16V581.49A5.51,5.51,0,0,1,818.5,587H644.41a5.51,5.51,0,0,1-5.5-5.51h0V414.16a22.66,22.66,0,0,1,22.66-22.66Z" fill="#ccc"/><rect x="625.88" y="478.23" width="152.09" height="38.18" fill="#c4c4c4"/><rect x="625.88" y="478.23" width="152.09" height="38.18" fill="#fff" opacity="0.2"/><rect x="625.88" y="488.58" width="152.09" height="38.18" fill="#ccc"/><rect x="626.13" y="488.58" width="152.09" height="38.18" opacity="0.2"/><rect x="601.29" y="435.51" width="39.48" height="152.74" rx="5.51" fill="#ccc"/><rect x="601.29" y="435.76" width="39.48" height="152.74" rx="5.51" opacity="0.2"/><path d="M646.21,524.18H818.56a5.48,5.48,0,0,1,5.45,5.51v53a5.48,5.48,0,0,1-5.45,5.51H646.21a5.48,5.48,0,0,1-5.45-5.51v-53A5.48,5.48,0,0,1,646.21,524.18Z" fill="#ccc"/><path d="M727.74,261.73a23.6,23.6,0,0,0-13.41,1.49c-6.57,3-29.28,25.1-30.68,30.41s6,14,8.65,21.49,5.66,14.9,3.87,23-6.56,10.43-6.56,10.43-.3.31,8.95,3,19.69-1.49,25.66-9.85S732,319,731.08,304.38,727.74,261.73,727.74,261.73Z" fill="#2f2e41"/><path d="M761.15,459.17A135.75,135.75,0,0,1,743,456.79c-10.74-2.09-45.94-21.18-53.4-22.31-4.67-.75-11.22-2-15.6-.49a48.27,48.27,0,0,0-14.68-4.6s-18.13-.35-20.57,11.5,2.44,62.05,4.18,84,10.11,52.29,7.67,62.4-8.36,14-7.67,15.34,12.21,0,17.09-2.44,5.92-10.11,5.92-13.94-1-8.72,1.74-11.51,5.93-4.88,4.19-10.11-10.46-9.76-10.46-9.76a158,158,0,0,1,2.09-41.48,214,214,0,0,0,3.84-45.32c0-10.11-.35-19.17-.35-19.17s13.59,25.74,25.45,34.46S730,489.64,730,489.64l-.11-.17c11.55-.35,30.46-1.39,33.31-10C766.52,469.62,761.15,459.17,761.15,459.17Z" fill="#2f2e41"/><path d="M661.37,554.83a155.19,155.19,0,0,1,1.31-36.73,37.22,37.22,0,0,1-20,4.31c.07.84.14,1.66.19,2.44,1.75,22,10.11,52.29,7.67,62.4s-8.36,13.94-7.67,15.34,12.21,0,17.09-2.44S665.9,590,665.9,586.2s-1-8.71,1.74-11.5,5.93-4.88,4.19-10.11S661.37,554.83,661.37,554.83Z" fill="#f9b499"/><path d="M660,600.15c4.88-2.44,5.92-10.11,5.92-13.95s-1-8.71,1.74-11.5,5.93-4.88,4.19-10.11-10.46-9.76-10.46-9.76-.22-2-.38-5.58c-2.39,1.56-8.36,5-13.94,4.34,2.54,14.35,4.92,27.58,3.47,33.62-2.44,10.11-8.36,13.94-7.67,15.33S655.1,602.59,660,600.15Z" fill="#f48225" data-secondary="true"/><path d="M714,335.39a23.12,23.12,0,0,1-1.49,8.95c-1.78,4.77-27.43,9.25-28.63,12.23s-4.47,17.89-6.26,32.21-4.47,29.29-4.47,29.29-1.2,8.64-.3,13.72,52.2,26.49,67.7,28,20.58,1.78,22.07-1.2a11.49,11.49,0,0,0,1.5-4.48,10.05,10.05,0,0,0-.9-6c-3.48-6.27-8.36-18.13-8.36-24.46s16.73-60.55,16.1-64.14S740.31,345,740.31,345s-9.85-2.4-11.34-5.07-1.49-14.62-1.49-14.62Z" fill="#f48225" data-secondary="true"/><path d="M740.28,345s-9.85-2.4-11.34-5.07-1.49-14.62-1.49-14.62L714,335.42a23.15,23.15,0,0,1-1.49,8.95c-.7,1.88-5.16,3.74-10.36,5.45.35,4.75,2.08,15,10.67,19.3,10.57,5.29,22.2-5.27,30-23.2Z" opacity="0.2"/><path d="M718.21,364c9,.7,14.78-13.94,16.94-20.62-2.65-.94-5.47-2.19-6.21-3.53-1.49-2.69-1.49-14.61-1.49-14.61L714,335.39a23.12,23.12,0,0,1-1.49,8.95,6.53,6.53,0,0,1-3.4,2.72C708.82,350.1,707.93,363.24,718.21,364Z" fill="#f9b499"/><path d="M643.3,399.35l13.22,25.93a2.06,2.06,0,0,0,1.73,1.12l11,.65a2.07,2.07,0,0,0,2.17-2,2.13,2.13,0,0,0-.13-.83l-11-27.25a2.08,2.08,0,0,0-2-1.3l-13.23.67a2.07,2.07,0,0,0-2,2.15A2,2,0,0,0,643.3,399.35Z" fill="#2f2e41"/><path d="M658.58,427.59c.17-.33,0-.85-.39-1.49-.69-4.46-8-11.76-8-11.76l-.69-4.18s-3.24,3.83-3.22,6.62c-1.4,1.44-3.46,4.11-2,6.28a4.72,4.72,0,0,0,.65.74,5.57,5.57,0,0,0,1.44,4.14c2.44,2.44,8.74,4.18,11.5,1.74.7-.61.71-1.18.31-1.72A.93.93,0,0,0,658.58,427.59Z" fill="#f9b499"/><g opacity="0.2"><path d="M691.66,422.92a.43.43,0,0,1-.41-.29c-.06-.16-5.39-15.58-6.57-20.33-.67-2.64.34-10.47,1.3-16.58a.44.44,0,0,1,.5-.36.42.42,0,0,1,.36.49c-1.34,8.52-1.81,14.29-1.32,16.24,1.17,4.71,6.49,20.1,6.55,20.25a.44.44,0,0,1-.27.56Z"/></g><g opacity="0.2"><path d="M687.67,378.72h-.08a.43.43,0,0,1-.35-.5c.42-2.32.71-3.83.71-3.83a.44.44,0,0,1,.86.17s-.3,1.5-.71,3.81A.44.44,0,0,1,687.67,378.72Z"/></g><path d="M745.94,473.26S722.68,447,705.08,434.78s-44.16-20.14-46.83-8.28-5.07,54.82-11.33,79-22.67,60-27.74,66.82S600.09,592.56,596.87,595s-7.16,4.78-4.77,6.26,11.63,3.89,17.59,1.2,12.83-7.16,16.74-7.76,6.86-1.49,7.44-7.46-.58-14.61,1.2-19.09,20.29-35.48,28.63-44.73,12.55-18.2,15.81-31.62,2.39-30.12,2.39-30.12,9.84,23.26,34,26.49,31-1.2,31-1.2" fill="#2f2e41"/><path d="M654.51,535.59l-15.21-6.85c-7.32,19.4-16.54,38.64-20.12,43.48-5.07,6.86-19.09,20.27-22.31,22.66s-7.16,4.78-4.77,6.26,11.63,3.89,17.59,1.2,12.83-7.16,16.74-7.76,6.86-1.49,7.44-7.46-.58-14.61,1.2-19.09C636.26,564.85,646,548.23,654.51,535.59Z" fill="#f9b499"/><path d="M635.5,566.93l-11-4.18a78,78,0,0,1-5.35,9.47c-5.07,6.86-19.09,20.27-22.31,22.66s-7.16,4.78-4.77,6.26,11.63,3.89,17.59,1.2,12.83-7.16,16.74-7.76,6.86-1.49,7.44-7.46-.58-14.61,1.2-19.09A3,3,0,0,1,635.5,566.93Z" fill="#f48225" data-secondary="true"/><path d="M685.1,419.21a26.15,26.15,0,0,1-7.76-6.86c-3.28-4.48-9.83-4.78-10.74-4.78h-2.09L666,410l-15.44,2.68s-2.07.89.6,3.88,4.77,8.36,9.55,10.74,17,2.69,17,2.69l4.77,1.18Z" fill="#f9b499"/><path d="M763.24,354.26a38,38,0,0,1,7.76,5.37c3.57,3.27,2.38,8.64.29,15.21s-15.49,52.78-15.8,54-3,12.52-7.46,15.5-37.58-4.15-48.91-7.44-17.91-5.68-17.91-5.68l2.09-13.72a95.54,95.54,0,0,0,18.49,4.41c9.51,1.2,34.61-1.19,34.61-1.19l15.8-52.5S755.05,354.05,763.24,354.26Z" fill="#f48225" data-secondary="true"/><path d="M763.24,354.26a38,38,0,0,1,7.76,5.37c3.57,3.27,2.38,8.64.29,15.21s-15.49,52.78-15.8,54-3,12.52-7.46,15.5-37.58-4.15-48.91-7.44-17.91-5.68-17.91-5.68l2.09-13.72a95.54,95.54,0,0,0,18.49,4.41c9.51,1.2,34.61-1.19,34.61-1.19l15.8-52.5S755.05,354.05,763.24,354.26Z" opacity="0.2"/><rect x="785.74" y="435.51" width="39.48" height="152.74" rx="5.51" fill="#808285"/><rect x="756.86" y="435.51" width="39.48" height="152.74" rx="5.51" fill="#ccc"/><rect x="756.86" y="435.51" width="39.48" height="152.74" rx="5.51" opacity="0.2"/><circle cx="493.86" cy="165.77" r="5.72" fill="#ccc"/><path d="M480.93,182.8h0a2.36,2.36,0,0,1,.78-1.76c2.92-2.63,13.58-10.79,24.14-.93a3,3,0,0,1,.94,2.16h0a2.94,2.94,0,0,1-.83,2c-2.72,2.81-12,10.45-24.14.35A2.44,2.44,0,0,1,480.93,182.8Z" fill="#ccc"/><path d="M494.15,198v11.63s30.61.51,34.6-33.2H517S516,197,494.15,198Z" fill="#ccc"/><path d="M470.81,200l7.85-8.67A23.65,23.65,0,0,0,492.87,198v11.56S480,209.38,470.81,200Z" fill="#ccc"/><path d="M460.3,177H472a25.21,25.21,0,0,0,5.6,13.3l-8.12,8.45A34.12,34.12,0,0,1,460.3,177Z" fill="#ccc"/><path d="M485.25,154.94l-5.35-10.5s-19.6,8.11-19.64,31H472S470.94,162,485.25,154.94Z" fill="#ccc"/><path d="M481.78,143.62l5.13,10.64a21.75,21.75,0,0,1,4.14-1,28.64,28.64,0,0,1,4.71-.26q1.55-5.74,3.1-11.5A35.74,35.74,0,0,0,481.78,143.62Z" fill="#ccc"/><circle cx="574.71" cy="165.59" r="5.41" fill="#ccc"/><path d="M561.23,182.34h0a2.37,2.37,0,0,1,.78-1.77c2.91-2.62,13.58-10.79,24.13-.93a3,3,0,0,1,.94,2.16h0a2.9,2.9,0,0,1-.82,2c-2.73,2.81-12,10.46-24.15.35A2.41,2.41,0,0,1,561.23,182.34Z" fill="#ccc"/><path d="M576.44,153V141.3s27,0,32.69,29.07l-12,.63S595,155,576.44,153Z" fill="#ccc"/><path d="M553.15,171.35l-11.59-2s4-25.9,32.16-28.1v11.59S557.23,153.9,553.15,171.35Z" fill="#ccc"/><path d="M553.61,181.5a22.94,22.94,0,0,1-.72-8.32L541.4,171.5c-.12.43-1.46,6.05,1.25,14.43Z" fill="#ccc"/><path d="M572.78,197.77v11.82a34.65,34.65,0,0,1-29.18-21.07l10.8-4.7S559,196.16,572.78,197.77Z" fill="#ccc"/><path d="M638.27,159.11l-8.83-7.81s9.43-10.46,23.12-10.23v11.59A21.91,21.91,0,0,0,638.27,159.11Z" fill="#ccc"/><path d="M656.19,152.71V140.9s12.28.37,21.29,9.19l-7.6,9A22.25,22.25,0,0,0,656.19,152.71Z" fill="#ccc"/><path d="M671.39,160.75l7.88-8.86s14.8,15,6.48,36.23L675,183.43S680.38,172.34,671.39,160.75Z" fill="#ccc"/><path d="M668.62,192.26s3.9-3.56,5.57-7.15l10.32,5.67A33.62,33.62,0,0,1,676,201.36Z" fill="#ccc"/><path d="M638.82,191.59l-8.33,8.32s19.85,19.37,43.82,2.79L667,193.49S652.4,203.87,638.82,191.59Z" fill="#ccc"/><circle cx="231.44" cy="238.19" r="64.77" fill="#fff" opacity="0.18"/><path d="M59.47,314l0,10.39,19.79,7.93L78,323.23s-9.2-2.26-15.28-8.46A8.23,8.23,0,0,1,59.47,314Z" fill="#f9b499"/><ellipse cx="72.94" cy="295.69" rx="20.12" ry="30.24" transform="translate(-144.57 82.52) rotate(-31.72)" fill="#f9b499"/><path d="M70.87,262.17c-5-2.51-12.52-1.51-15.55.75s5,2,5,2a50.79,50.79,0,0,0-13.55,10.28C40.49,282,37,295.78,40.24,299.29c2.92,3.18,7.71,3.88,8.58,4,.39.71.78,1.39,1.16,2a26.1,26.1,0,0,0,7.12,7.39c1.36.14,2.16.14,2.16.14l-1.76-7,2.27-2.26s6-5,5.76-6.76S63,291,64.28,288.5s9.54-8,7.28-10.28c-1.66-1.66-3.31-3.59-3.46-5.07l5.78-4,0-.1A5.34,5.34,0,0,0,70.87,262.17Z" fill="#2f2e41"/><ellipse cx="59.47" cy="310.52" rx="3.71" ry="5.35" transform="translate(-176.09 99.64) rotate(-37.32)" fill="#f9b499"/><path d="M78.42,326.22l-.43-3a27.23,27.23,0,0,1-13.54-7.06S67.46,323.1,78.42,326.22Z" fill="#f7a48b"/><polygon points="77.98 331.77 74.56 346.94 85.6 351.21 80.08 337.16 79.3 332.29 77.98 331.77" fill="#f9b499"/><path d="M91.08,405.72c4-1.25,8-2.87,9.92-3.13a1.82,1.82,0,0,1,1.82,2.64c-.72,1.42-.95,1.93-.95,1.93,5.19,0,8.27-3.77,10.41.37S108.71,419.7,98.66,418c-6.55-1.1-8-3.27-8-3.27S89.21,409.77,91.08,405.72Z" fill="#f9b499"/><path d="M154.36,351.94c.51-4.16-1-10-.44-11.86a1.81,1.81,0,0,1,3.15-.57c1,1.24,1.36,1.67,1.36,1.67,2.2-4.71,0-9.09,4.66-9.33s9.6,8.29,3.92,16.74c-3.71,5.52-6.3,6-6.3,6A6.89,6.89,0,0,1,154.36,351.94Z" fill="#f9b499"/><path d="M86,404l-.28,11.92.2.12,5.1-.71,1.47-10Z" fill="#686175" data-primary="true"/><path d="M279.6,179.16a76.25,76.25,0,1,0,10.08,107.37l0,0A76.25,76.25,0,0,0,279.6,179.16Zm-90.25,109a65.25,65.25,0,1,1,91.88-8.65,65.25,65.25,0,0,1-91.88,8.65Z" fill="#f48225" data-secondary="true"/><path d="M713.63,340.38l.4-4.18a73.71,73.71,0,0,0,8-5.06S718.72,338,713.63,340.38Z" fill="#f7a48b"/><path d="M712.84,283.49l-20.29,14.07s1.49,21.17,3.58,26.24,6.86,14.91,14.32,14,16.11-11.34,16.11-11.34S729.24,299.9,712.84,283.49Z" fill="#f9b499"/><path d="M710.15,280.83a170.39,170.39,0,0,1,11,30.68c3.88,16.1,3.57,25.64,3,30.12A6.56,6.56,0,0,1,719.1,347a43.57,43.57,0,0,0,16.73,2.69c8.37-.59,22.07-6.26,23.26-16.73s-6.86-32.81-11-45.33-10.44-24.46-17-26.26-17,7.76-20,14" fill="#2f2e41"/></svg>