<svg xmlns="http://www.w3.org/2000/svg" xmlns:xlink="http://www.w3.org/1999/xlink" width="865.76" height="682.89" viewBox="0 0 865.76 682.89"><defs><clipPath id="aa048e97-cb94-419f-a22c-c20dfef41898"><path d="M61.77,113.52h14s12.09,18.54,0,37.57h-14Z" fill="#686175" data-primary="true"/></clipPath><clipPath id="ac65ba48-f74b-4ac3-912a-86825401d583"><path d="M61.77,167.43h14S87.88,186,75.79,205h-14Z" fill="#686175" data-primary="true"/></clipPath><clipPath id="e1caf3fd-abfd-47d7-ba52-e5ebb5122631"><path d="M686.62,639.15,690.84,606l56.77-26.34,5,59.48s3.8,8.29-13.1,7.29H690.84S686,644.41,686.62,639.15Z" fill="#7a6640"/></clipPath><clipPath id="b6ddc84e-9d0c-44b8-b8b0-07765f56d8eb"><path d="M714.76,433.56v16.66l-9,42.79-5.05,24-20.94-5.64c-3.51-8.33-18.4-21.22-18.4-21.22l14.25-39.93s.07-8.4,44.47-30.05a13.87,13.87,0,0,1-2.54,4.09C715.45,426.84,714.76,430.26,714.76,433.56Z" fill="#f48225" data-secondary="true"/></clipPath><clipPath id="ab82183f-a9c3-447a-a7b6-9c3822739175"><path d="M534.69,579.67,508,634.32c-.18.38-.39.75-.59,1.11-.75,1.31-2.67,5.43.45,8.77a7.37,7.37,0,0,0,5.42,2.24h54.1s7.5.28,9.18-14.57l5.68-32,4.93-20.53Z" fill="#7a6640"/></clipPath><clipPath id="a79217fc-b293-4877-a31e-c414ff7ef210"><path d="M531.59,544.52l-9.51-24s-14-26.73,12.23-31.26l90.81-6.37a70.46,70.46,0,0,1,15.22.59c7,1,16.15,3,21,6.68,0,0,18.15,11.4,37.63,54.37l11.82,18.63,62.81-179.72s5.37-16.12,23.17-6.2L731.87,553.29l-4.7,15.86s-5.84,23.57-31.55,19.72l-165-9.43-247.86-5.57s0-30.86,42.28-24.58Z" fill="#7a6640"/></clipPath></defs><g style="isolation:isolate"><g id="aff3983f-f1eb-4712-896c-0328b763fcd8" data-name="Layer 1"><g id="a285338e-d117-485e-b72b-6f2e0736e8e2" data-name="freepik--background-complete--inject-90"><path d="M740.12,405.94s-13.65-9.52-19.91-7.79-14.3,10.53-14.3,10.53,15.9-4.58,20.69-3.62A88.66,88.66,0,0,0,740.12,405.94Z" fill="#e0e0e0"/><path d="M744.71,409.38c-2,4.49-5.41,8.24-7.33,12.72a21.54,21.54,0,0,0-.1,16.39,29.4,29.4,0,0,0,7-13.95,76.24,76.24,0,0,0,1.6-14.6Z" fill="#e0e0e0"/><path d="M742.62,408.23c.62-1.84-14.82-1-19.8,4.92s-9.89,12.43-5.65,27.46c0,0,9.32-16.29,9.32-16.05S741.38,411.82,742.62,408.23Z" fill="#e0e0e0"/><path d="M742.74,408c-1.42.55,12.59,4.82,19.07,5.35a19.73,19.73,0,0,0,10.39-1.65S762.8,400.23,742.74,408Z" fill="#e0e0e0"/><path d="M813.62,467.14s6.76-2.83,8.67-.85,9.7,12.25,17.1,12.89c0,0-6.76-14.37-12.88-16.69C822.48,461,813.62,467.14,813.62,467.14Z" fill="#e0e0e0"/><path d="M815.36,466.37s-.27-5.08-2.83-7.75-11.73-4.49-11.73-4.49a35.77,35.77,0,0,0,6.73,7.84A38.64,38.64,0,0,0,815.36,466.37Z" fill="#e0e0e0"/><path d="M815.36,466.07s-4.71,0-8,5.81a48.4,48.4,0,0,0-4.86,12.73c.28-.5,8.88-4.25,11.14-9A19.8,19.8,0,0,0,815.36,466.07Z" fill="#e0e0e0"/><path d="M816.42,466.07s.85,11.2,2.75,13.11,4.65,8.86,4.65,8.86,4.24-10.14,1.89-15S816.42,466.07,816.42,466.07Z" fill="#e0e0e0"/><path d="M775.39,487.7c-.54.81-11.32,9.21-13,13.28s-.27,10.3,0,12.19,9.74-2.45,11.31-9.76A84.57,84.57,0,0,0,775.39,487.7Z" fill="#e0e0e0"/><path d="M777.51,481.41c0,1.34.15,14.62,3.65,19.26a62.12,62.12,0,0,0,9.89,9.56s2.3-16.79-2.54-22A26.27,26.27,0,0,0,777.51,481.41Z" fill="#e0e0e0"/><path d="M775.91,483.69c-.79-.19-10.59-1.12-15.26,4.47a51.71,51.71,0,0,0-7.27,11.92s14.82-7.36,17.54-10.61S775.91,483.69,775.91,483.69Z" fill="#e0e0e0"/><path d="M782.65,477.61a7.73,7.73,0,0,1,8.4-.22c4.4,2.75,11.73,13.41,11.73,13.41s-9-.55-13.63-5.08A30.72,30.72,0,0,1,782.65,477.61Z" fill="#e0e0e0"/><path d="M776.28,479.26s-5.66-4.83-10-5.91-17.07,2.09-17.07,2.09A22.81,22.81,0,0,0,764,479.26C772.76,478.5,776.28,479.26,776.28,479.26Z" fill="#e0e0e0"/><path d="M757.41,528.43s-4.07,7.86,0,12.2,6.25,13,6.25,13,7.07-6.79,3.51-14.36A24.54,24.54,0,0,0,757.41,528.43Z" fill="#e0e0e0"/><path d="M751,528.63c-1.09.55-8.14,10-8.67,16.8s-1.09,18.38,0,17.62,8.93-8.14,11.1-15.18S751,528.63,751,528.63Z" fill="#e0e0e0"/><path d="M748.24,527.89c-1.08.27-11.32-1.62-17.07,5.66a90.51,90.51,0,0,0-10,17.89s14.91-7.63,18.39-11.81S748.24,527.89,748.24,527.89Z" fill="#e0e0e0"/><path d="M806.4,514.88s-3.1,9.22,0,17.35A79.34,79.34,0,0,0,813,545.78s4.59-16.26,1.62-20.6S806.4,514.88,806.4,514.88Z" fill="#e0e0e0"/><path d="M808.09,513.91c1.09,1,13.81,19.26,22.45,20.88s1.34-.69,1.34-.69-2.72-12.29-6.59-17.38S808.09,513.91,808.09,513.91Z" fill="#e0e0e0"/><path d="M806.11,513.58s9.38-6.5,13-8.16S835,506,835,506s-14.69,7.66-18.23,6.92-10.56,2.32-10.56,2.32" fill="#e0e0e0"/><path d="M838.75,424.88s-8.12,8.61-7.07,15.34a79.22,79.22,0,0,0,3.48,13.18l3.56-11.84Z" fill="#e0e0e0"/><path d="M839.85,423.15s-1.88,13.19,1.88,18.57,8.89,15.55,9.42,14.8,8.35-7.8,2.7-17.76A51.14,51.14,0,0,0,839.85,423.15Z" fill="#e0e0e0"/><path d="M837.13,425.48s-13-3.76-14.85,2.44-3.44,11.56-3.44,11.56a50.69,50.69,0,0,1,9.16-7.56A92.1,92.1,0,0,0,837.13,425.48Z" fill="#e0e0e0"/><path d="M778.91,429l1.06-.92c3.07-2.62,12-9.82,16.54-8.71a95.35,95.35,0,0,1,13.1,4.76S790,434.29,778.91,429Z" fill="#e0e0e0"/><path d="M781.54,429.06c0-1-5.9-2.54-11.12,2.83s-6,8.7-6,8.7S781.17,438.35,781.54,429.06Z" fill="#e0e0e0"/><path d="M780.66,430.15s-6,6.86-1.41,13.59,8.48,13.19,8.48,13.19a21.72,21.72,0,0,0,0-13.39A47.89,47.89,0,0,0,780.66,430.15Z" fill="#e0e0e0"/><path d="M802.92,447.23c-.27-1.64,1.89-15.07-15.88-13.74h-1.63s8.49,13.71,10.45,18a18.71,18.71,0,0,0,5.5,7.53C803.46,460.93,803.19,448.87,802.92,447.23Z" fill="#e0e0e0"/><path d="M806.35,514.29a15.42,15.42,0,0,0-4.24-11.47c-.27-.3-.66-.59-1-.42a1,1,0,0,0-.43.63,9.85,9.85,0,0,0,1,7.38,24.89,24.89,0,0,0,4.8,5.91" fill="#e0e0e0"/><path d="M756.27,526.72a30.44,30.44,0,0,0-14.41-13.18,2,2,0,0,0-1.2-.24,1.54,1.54,0,0,0-1.09,1.41A5.08,5.08,0,0,0,741,518.3a25.26,25.26,0,0,0,16,9.58" fill="#e0e0e0"/><path d="M827.48,506.88a18.82,18.82,0,0,0-2.54.25,28.82,28.82,0,0,0-6.71,1.74,38.69,38.69,0,0,0-9,5,95,95,0,0,0-9.44,8.38c-6.47,6.29-12.17,12.12-16.11,16.5-2,2.2-3.54,4-4.61,5.25l-1.26,1.41c-.28.33-.44.5-.47.49a2.79,2.79,0,0,1,.37-.57c.27-.34.65-.86,1.16-1.5,1-1.3,2.53-3.15,4.47-5.39,3.87-4.47,9.53-10.38,16-16.65a87.68,87.68,0,0,1,9.55-8.42,38.14,38.14,0,0,1,9.15-5,25.9,25.9,0,0,1,6.84-1.54,15.06,15.06,0,0,1,1.9,0A2.43,2.43,0,0,1,827.48,506.88Z" fill="#e0e0e0"/><path d="M777.05,542.05c-.09.07-1.15-1.77-3.46-4.25A29.39,29.39,0,0,0,750,528.53c-3.37.22-5.39.85-5.42.73a5.8,5.8,0,0,1,1.42-.48,24.27,24.27,0,0,1,4-.7,28.29,28.29,0,0,1,24,9.41,24,24,0,0,1,2.43,3.24A5.82,5.82,0,0,1,777.05,542.05Z" fill="#e0e0e0"/><path d="M780.55,428.88a2.54,2.54,0,0,1,0,.39,5,5,0,0,1-.1,1.13c-.1,1-.24,2.49-.43,4.35-.38,3.76-.93,9.22-1.54,16-1.18,13.48-2.6,32.16-2.57,52.82s1.51,39.34,2.56,52.83c.55,6.71,1,12.17,1.3,16,.14,1.85.25,3.31.34,4.34a5.17,5.17,0,0,0,.07,1.13,1.34,1.34,0,0,1,0,.4,1.69,1.69,0,0,1-.07-.38,3.86,3.86,0,0,0-.13-1.13c-.11-1-.27-2.49-.45-4.35-.38-3.76-.92-9.22-1.51-16-1.16-13.49-2.69-32.17-2.83-52.87A475.73,475.73,0,0,1,778,450.67c.66-6.75,1.28-12.19,1.74-15.95.23-1.89.42-3.33.55-4.33l.17-1.13A1,1,0,0,1,780.55,428.88Z" fill="#e0e0e0"/><path d="M821.08,465.25a9.39,9.39,0,0,1-1.9.29c-1.22.13-3,.37-5.15.71a95.83,95.83,0,0,0-32.14,11.31c-1.91,1.08-3.42,2-4.47,2.66a8.72,8.72,0,0,1-1.65.95A10.26,10.26,0,0,1,777.3,480c1-.72,2.48-1.7,4.36-2.83A86,86,0,0,1,814,465.87c2.19-.28,4-.45,5.19-.51A11.3,11.3,0,0,1,821.08,465.25Z" fill="#e0e0e0"/><path d="M777.2,459.25a4.43,4.43,0,0,1-.17-.72c-.1-.55-.22-1.24-.37-2.09a30.19,30.19,0,0,0-.65-3.28,43,43,0,0,0-1.12-4.24l-.78-2.45c-.27-.85-.65-1.7-1-2.6-.66-1.81-1.59-3.65-2.53-5.66a72.65,72.65,0,0,0-7.73-11.75,91.51,91.51,0,0,0-19-17.14c-1.31-1-2.6-1.71-3.69-2.45s-2.06-1.28-2.82-1.75L735.55,404a4.07,4.07,0,0,1-.61-.41,2.76,2.76,0,0,1,.68.3l1.87,1a33.23,33.23,0,0,1,2.91,1.67c1.1.71,2.42,1.41,3.78,2.36A87.12,87.12,0,0,1,763.35,426a70.87,70.87,0,0,1,7.77,11.89,59.15,59.15,0,0,1,2.5,5.65c.32.92.72,1.77,1,2.65s.51,1.68.75,2.47a43.41,43.41,0,0,1,1,4.34,24.84,24.84,0,0,1,.55,3.31c.1.87.19,1.56.24,2.11A2.63,2.63,0,0,1,777.2,459.25Z" fill="#e0e0e0"/><path d="M840.79,424.25a3,3,0,0,1-.68.31l-2,.75c-1.73.63-4.24,1.57-7.29,2.83a217.81,217.81,0,0,0-23.29,11,214.89,214.89,0,0,0-21.75,13.78c-2.69,1.93-4.82,3.52-6.28,4.66l-1.7,1.28a3.17,3.17,0,0,1-.62.41,5.46,5.46,0,0,1,.54-.52l1.63-1.42c1.41-1.18,3.5-2.82,6.16-4.83a187.2,187.2,0,0,1,45.14-24.83c3.08-1.18,5.65-2.07,7.37-2.62l2-.63A3.74,3.74,0,0,1,840.79,424.25Z" fill="#e0e0e0"/><polygon points="803.26 638.84 752.21 638.84 746.88 576.48 809.24 576.48 803.26 638.84" fill="#e0e0e0"/><rect x="742.93" y="576.48" width="70.45" height="9.59" fill="#e0e0e0"/><path d="M812.93,586.1c0,.17-15.77.32-35.18.32s-35.2-.15-35.2-.32,15.75-.33,35.2-.33S812.93,585.91,812.93,586.1Z" fill="#ebebeb"/><rect x="503.15" y="46.06" width="222.01" height="367.48" fill="#e0e0e0"/><rect x="495.77" y="46.06" width="222.01" height="367.48" fill="#ebebeb"/><rect x="505.23" y="53.52" width="203.09" height="352.57" fill="#fafafa"/><rect x="543.88" y="99.32" width="124.89" height="260.95" fill="#ebebeb"/><path d="M543.88,267.93c-.28-24.36,21.64-48.16,45.77-51.57,11.5-1.67,23.75.66,34.5-3.75,19.2-7.87,25.3-33.38,44.62-40.94l.87,188.6H543.86Z" fill="#e0e0e0"/></g><circle cx="336.69" cy="312.3" r="17.22" fill="#dcdcf9"/><path d="M332.19,306.81l9.27,4.92a.68.68,0,0,1,0,1.2l-9.3,5.5" fill="none" stroke="#fff" stroke-linecap="round" stroke-linejoin="round"/><path d="M75.76,36.64h67.78a0,0,0,0,1,0,0V595.12a0,0,0,0,1,0,0H76.16a15.4,15.4,0,0,1-15.4-15.4V51.64A15,15,0,0,1,75.76,36.64Z" fill="#686175" data-primary="true"/><path d="M75.76,36.64h67.78a0,0,0,0,1,0,0V595.12a0,0,0,0,1,0,0H76.16a15.4,15.4,0,0,1-15.4-15.4V51.64A15,15,0,0,1,75.76,36.64Z" opacity="0.2"/><rect x="87.39" y="36.37" width="306.52" height="558.75" rx="14.9" fill="#686175" data-primary="true"/><rect x="95.94" y="44.06" width="290.22" height="543.37" rx="9.83" fill="#f0f0ff"/><path d="M95.94,100.59H386.16V52.33a8.27,8.27,0,0,0-8.27-8.27H104.21a8.27,8.27,0,0,0-8.27,8.27Z" fill="#686175" data-primary="true"/><path d="M97.37,100.59H384.73a1.43,1.43,0,0,0,1.43-1.43V52.33a8.27,8.27,0,0,0-8.27-8.27H104.21a8.27,8.27,0,0,0-8.27,8.27V99.16A1.43,1.43,0,0,0,97.37,100.59Z" opacity="0.2"/><rect x="143.54" y="44.06" width="49.64" height="56.53" fill="#f3e4cd"/><rect x="240.65" y="44.06" width="49.61" height="56.53" fill="#f3e4cd"/><path d="M337.7,44.06h41.12a7.34,7.34,0,0,1,7.34,7.34v49.19a0,0,0,0,1,0,0H337.7a0,0,0,0,1,0,0V44.06A0,0,0,0,1,337.7,44.06Z" fill="#f3e4cd"/><g opacity="0.2"><rect x="143.54" y="44.06" width="49.64" height="56.53"/><rect x="240.65" y="44.06" width="49.61" height="56.53"/><path d="M337.7,44.06h41.12a7.34,7.34,0,0,1,7.34,7.34v49.19a0,0,0,0,1,0,0H337.7a0,0,0,0,1,0,0V44.06A0,0,0,0,1,337.7,44.06Z"/></g><polygon points="95.94 100.59 188.22 162.37 476.15 162.37 386.16 100.59 95.94 100.59" fill="#686175" data-primary="true"/><polygon points="143.54 100.59 236.21 162.37 286.04 162.37 193.19 100.59 143.54 100.59" fill="#f3e4cd"/><polygon points="332.19 162.37 240.65 100.59 290.26 100.59 380.73 162.37 332.19 162.37" fill="#f3e4cd"/><polygon points="337.7 100.59 429.26 162.37 476.15 162.37 386.16 100.59 337.7 100.59" fill="#f3e4cd"/><path d="M188.22,162.37h48a0,0,0,0,1,0,0v18.8a18.71,18.71,0,0,1-18.71,18.71H206.93a18.71,18.71,0,0,1-18.71-18.71v-18.8A0,0,0,0,1,188.22,162.37Z" fill="#686175" data-primary="true"/><path d="M188.22,162.37h48a0,0,0,0,1,0,0v18.8a18.71,18.71,0,0,1-18.71,18.71H206.93a18.71,18.71,0,0,1-18.71-18.71v-18.8A0,0,0,0,1,188.22,162.37Z" opacity="0.2"/><path d="M284.2,162.37h48a0,0,0,0,1,0,0v18.8a18.71,18.71,0,0,1-18.71,18.71H302.91a18.71,18.71,0,0,1-18.71-18.71v-18.8a0,0,0,0,1,0,0Z" fill="#686175" data-primary="true"/><path d="M284.2,162.37h48a0,0,0,0,1,0,0v18.8a18.71,18.71,0,0,1-18.71,18.71H302.91a18.71,18.71,0,0,1-18.71-18.71v-18.8a0,0,0,0,1,0,0Z" opacity="0.2"/><path d="M380.17,162.37h48a0,0,0,0,1,0,0v18.8a18.71,18.71,0,0,1-18.71,18.71H398.88a18.71,18.71,0,0,1-18.71-18.71v-18.8A0,0,0,0,1,380.17,162.37Z" fill="#686175" data-primary="true"/><path d="M380.17,162.37h48a0,0,0,0,1,0,0v18.8a18.71,18.71,0,0,1-18.71,18.71H398.88a18.71,18.71,0,0,1-18.71-18.71v-18.8A0,0,0,0,1,380.17,162.37Z" opacity="0.2"/><path d="M236.21,162.37h48a0,0,0,0,1,0,0v18.8a18.71,18.71,0,0,1-18.71,18.71H254.92a18.71,18.71,0,0,1-18.71-18.71v-18.8a0,0,0,0,1,0,0Z" fill="#f3e4cd"/><path d="M332.19,162.37h48a0,0,0,0,1,0,0v18.8a18.71,18.71,0,0,1-18.71,18.71H350.89a18.71,18.71,0,0,1-18.71-18.71v-18.8a0,0,0,0,1,0,0Z" fill="#f3e4cd"/><path d="M428.16,162.37h48a0,0,0,0,1,0,0v18.8a18.71,18.71,0,0,1-18.71,18.71H446.87a18.71,18.71,0,0,1-18.71-18.71v-18.8A0,0,0,0,1,428.16,162.37Z" fill="#f3e4cd"/><g opacity="0.2"><path d="M236.21,162.37h48a0,0,0,0,1,0,0v18.8a18.71,18.71,0,0,1-18.71,18.71H254.92a18.71,18.71,0,0,1-18.71-18.71v-18.8a0,0,0,0,1,0,0Z"/><path d="M332.19,162.37h48a0,0,0,0,1,0,0v18.8a18.71,18.71,0,0,1-18.71,18.71H350.89a18.71,18.71,0,0,1-18.71-18.71v-18.8a0,0,0,0,1,0,0Z"/><path d="M428.16,162.37h48a0,0,0,0,1,0,0v18.8a18.71,18.71,0,0,1-18.71,18.71H446.87a18.71,18.71,0,0,1-18.71-18.71v-18.8A0,0,0,0,1,428.16,162.37Z"/></g><circle cx="336.69" cy="312.3" r="17.22" fill="#dcdcf9"/><path d="M332.19,306.81l9.27,4.92a.68.68,0,0,1,0,1.2l-9.3,5.5" fill="none" stroke="#fff" stroke-linecap="round" stroke-linejoin="round"/><circle cx="142.86" cy="312.3" r="17.22" fill="#dcdcf9"/><path d="M147.37,317.8l-9.28-4.92a.69.69,0,0,1,0-1.2l9.31-5.5" fill="none" stroke="#fff" stroke-linecap="round" stroke-linejoin="round"/><rect x="115.73" y="425.9" width="136.32" height="28.58" fill="#686175" data-primary="true"/><rect x="115.73" y="523.37" width="136.32" height="21.99" rx="3.43" fill="#686175" data-primary="true"/><rect x="115.73" y="463.28" width="163.43" height="10.26" rx="4" fill="#f48225" data-secondary="true"/><rect x="115.73" y="482.33" width="144.48" height="10.26" rx="4" fill="#f48225" data-secondary="true"/><rect x="115.73" y="501.39" width="112.86" height="10.26" rx="4" fill="#f48225" data-secondary="true"/><path d="M61.77,113.52h14s12.09,18.54,0,37.57h-14Z" fill="#686175" data-primary="true"/><g clip-path="url(#aa048e97-cb94-419f-a22c-c20dfef41898)"><g opacity="0.2"><rect x="65.86" y="122.27" width="14.8" height="1.28"/></g><g opacity="0.2"><rect x="66.66" y="127.71" width="15.28" height="1.28"/></g></g><path d="M61.77,167.43h14S87.88,186,75.79,205h-14Z" fill="#686175" data-primary="true"/><g clip-path="url(#ac65ba48-f74b-4ac3-912a-86825401d583)"><g opacity="0.2"><rect x="65.12" y="176.18" width="14.76" height="1.28"/></g><g opacity="0.2"><rect x="65.92" y="181.62" width="15.24" height="1.28"/></g></g><ellipse cx="61.77" cy="132.31" rx="6.11" ry="18.79" fill="#686175" data-primary="true"/><ellipse cx="61.77" cy="186.21" rx="6.11" ry="18.79" fill="#686175" data-primary="true"/><g opacity="0.2"><ellipse cx="61.77" cy="132.31" rx="6.11" ry="18.79"/><ellipse cx="61.77" cy="186.21" rx="6.11" ry="18.79"/></g><path d="M250.53,366.18l5.73-129.3a7.08,7.08,0,0,0-7.07-7.08H207a7.08,7.08,0,0,0-7.08,7.08l5.74,129.3Z" fill="#d0d2d3"/><polygon points="202.31 242.48 207.52 366.18 248.69 366.18 253.89 242.48 202.31 242.48" fill="#f48225" data-secondary="true"/><path d="M250.89,233.07a.85.85,0,0,1,.85-.84h0a.85.85,0,0,1,.84.84v6a.85.85,0,0,1-.84.84h0a.85.85,0,0,1-.85-.84Z" fill="#d0d2d3" style="mix-blend-mode:multiply"/><path d="M247.75,233.07a.85.85,0,0,1,.84-.84h0a.84.84,0,0,1,.84.84v6a.84.84,0,0,1-.84.84h0a.85.85,0,0,1-.84-.84Z" fill="#d0d2d3" style="mix-blend-mode:multiply"/><path d="M244.61,233.07a.85.85,0,0,1,.84-.84h0a.84.84,0,0,1,.84.84v6a.84.84,0,0,1-.84.84h0a.85.85,0,0,1-.84-.84Z" fill="#d0d2d3" style="mix-blend-mode:multiply"/><path d="M241.47,233.07a.85.85,0,0,1,.85-.84h0a.84.84,0,0,1,.83.84v6a.84.84,0,0,1-.83.84h0a.85.85,0,0,1-.85-.84Z" fill="#d0d2d3" style="mix-blend-mode:multiply"/><path d="M238.33,233.07a.85.85,0,0,1,.84-.84h0a.84.84,0,0,1,.84.84v6a.84.84,0,0,1-.84.84h0a.85.85,0,0,1-.84-.84Z" fill="#d0d2d3" style="mix-blend-mode:multiply"/><path d="M235.19,233.07a.85.85,0,0,1,.84-.84h0a.85.85,0,0,1,.84.84v6a.85.85,0,0,1-.84.84h0a.85.85,0,0,1-.84-.84Z" fill="#d0d2d3" style="mix-blend-mode:multiply"/><path d="M232.05,233.07a.84.84,0,0,1,.84-.84h0a.85.85,0,0,1,.84.84v6a.85.85,0,0,1-.84.84h0a.84.84,0,0,1-.84-.84Z" fill="#d0d2d3" style="mix-blend-mode:multiply"/><path d="M228.91,233.07a.84.84,0,0,1,.84-.84h0a.85.85,0,0,1,.84.84v6a.85.85,0,0,1-.84.84h0a.84.84,0,0,1-.84-.84Z" fill="#d0d2d3" style="mix-blend-mode:multiply"/><path d="M225.76,233.07a.85.85,0,0,1,.85-.84h0a.85.85,0,0,1,.84.84v6a.85.85,0,0,1-.84.84h0a.85.85,0,0,1-.85-.84Z" fill="#d0d2d3" style="mix-blend-mode:multiply"/><path d="M222.62,233.07a.85.85,0,0,1,.84-.84h0a.85.85,0,0,1,.85.84v6a.85.85,0,0,1-.85.84h0a.85.85,0,0,1-.84-.84Z" fill="#d0d2d3" style="mix-blend-mode:multiply"/><path d="M219.48,233.07a.85.85,0,0,1,.84-.84h0a.85.85,0,0,1,.85.84v6a.85.85,0,0,1-.85.84h0a.85.85,0,0,1-.84-.84Z" fill="#d0d2d3" style="mix-blend-mode:multiply"/><path d="M216.34,233.07a.85.85,0,0,1,.84-.84h0a.85.85,0,0,1,.85.84v6a.85.85,0,0,1-.85.84h0a.85.85,0,0,1-.84-.84Z" fill="#d0d2d3" style="mix-blend-mode:multiply"/><path d="M213.2,233.07a.85.85,0,0,1,.84-.84h0a.85.85,0,0,1,.84.84v6a.85.85,0,0,1-.84.84h0a.85.85,0,0,1-.84-.84Z" fill="#d0d2d3" style="mix-blend-mode:multiply"/><path d="M210.06,233.07a.85.85,0,0,1,.84-.84h0a.85.85,0,0,1,.84.84v6a.85.85,0,0,1-.84.84h0a.85.85,0,0,1-.84-.84Z" fill="#d0d2d3" style="mix-blend-mode:multiply"/><path d="M206.92,233.07a.84.84,0,0,1,.84-.84h0a.85.85,0,0,1,.84.84v6a.85.85,0,0,1-.84.84h0a.84.84,0,0,1-.84-.84Z" fill="#d0d2d3" style="mix-blend-mode:multiply"/><path d="M203.78,233.07a.84.84,0,0,1,.84-.84h0a.84.84,0,0,1,.84.84v6a.84.84,0,0,1-.84.84h0a.84.84,0,0,1-.84-.84Z" fill="#d0d2d3" style="mix-blend-mode:multiply"/><path d="M205.73,366.18V387.7a5.61,5.61,0,0,0,5.61,5.61H244.9a5.61,5.61,0,0,0,5.61-5.61V366.18Z" fill="#323031"/><rect x="235.77" y="366.18" width="7.67" height="27.13" fill="#404041"/><polygon points="241.62 229.8 249.29 229.8 243.44 366.18 235.77 366.18 241.62 229.8" fill="#fff" opacity="0.2"/><rect x="268.65" y="330.46" width="21.39" height="11.46" fill="#d0d2d3"/><rect x="267.72" y="338.65" width="23.24" height="0.97" fill="#d0d2d3"/><rect x="267.72" y="336.89" width="23.24" height="0.96" fill="#d0d2d3"/><rect x="267.72" y="335.12" width="23.24" height="0.97" fill="#d0d2d3"/><rect x="267.72" y="333.35" width="23.24" height="0.97" fill="#d0d2d3"/><rect x="267.72" y="331.59" width="23.24" height="0.96" fill="#d0d2d3"/><path d="M304,388.14a3.55,3.55,0,0,1-3.55,3.55H258.24a3.55,3.55,0,0,1-3.55-3.55L260.6,344a3.55,3.55,0,0,1,3.55-3.55h30.38a3.55,3.55,0,0,1,3.55,3.55Z" fill="#d0d2d3"/><path d="M302.1,386.44a3.28,3.28,0,0,1-3.28,3.28h-39a3.28,3.28,0,0,1-3.28-3.28l5.47-40.78a3.26,3.26,0,0,1,3.27-3.27h28a3.27,3.27,0,0,1,3.28,3.27Z" fill="#ec008c"/><path d="M256.6,386.27l0,.17a3.28,3.28,0,0,0,3.28,3.28h39a3.28,3.28,0,0,0,3.28-3.28l0-.17c-3.73-2.23-12.51-3.8-22.74-3.8S260.34,384,256.6,386.27Z" fill="#bbbdbf" style="mix-blend-mode:multiply"/><rect x="277.48" y="340.41" width="2.73" height="24.31" fill="#404041" style="mix-blend-mode:multiply"/><path d="M291.74,340.36l-3-50.42a1.72,1.72,0,0,0-1.71-1.71H270.61a1.71,1.71,0,0,0-1.7,1.71l-3,50.42Z" fill="#323031"/><path d="M279.68,364.72H278V368h1.69Z" fill="#323031" style="mix-blend-mode:multiply"/><path d="M282.44,380.32a.68.68,0,0,1-.68.67h-5.84a.68.68,0,0,1-.68-.67l2.08-11.64A.67.67,0,0,1,278,368h1.69a.68.68,0,0,1,.68.67Z" fill="#58595b" style="mix-blend-mode:multiply"/><path d="M686.62,639.15,690.84,606l56.77-26.34,5,59.48s3.8,8.29-13.1,7.29H690.84S686,644.41,686.62,639.15Z" fill="#7a6640"/><g clip-path="url(#e1caf3fd-abfd-47d7-ba52-e5ebb5122631)"><path d="M688.28,626.14s57.5,4.33,62.85-4.69l1.49,17.7s3.24,7.29-8,7.29H690.84s-5.1-.4-4.22-7.29Z" fill="#a98c5d"/></g><path d="M369.75,446.46,356.39,445a12.1,12.1,0,0,1-7.19-3.43c-5.8-5.74-18.59-18.34-25.3-24.41l-16.57-18.57s-15.14,3.14,2.57,33.14a222.72,222.72,0,0,1,14,34s2,11.72,16.29,11.43c0,0,24.32,1.31,26.73,4.8,0,0,.71-14.45-.44-22.48C366.48,459.46,364.75,451.2,369.75,446.46Z" fill="#f48225" data-secondary="true"/><path d="M357,511.74l36.88-12.56,103.43-1.74s13.65-4.92,22.09,2.23c0,0-2.57,7.47,3.82,23.59a186.62,186.62,0,0,1-22-13.74S408,552.32,371.28,559.28a10.09,10.09,0,0,1-12-10,39.62,39.62,0,0,1,.51-6.21,35,35,0,0,0-.5-13.75A33.66,33.66,0,0,0,357,522S353.15,513,357,511.74Z" fill="#686175" data-primary="true"/><path d="M357,511.74l36.88-12.56,103.43-1.74s13.65-4.92,22.09,2.23c0,0-2.57,7.47,3.82,23.59a186.62,186.62,0,0,1-22-13.74S408,552.32,371.28,559.28a10.09,10.09,0,0,1-12-10,39.62,39.62,0,0,1,.51-6.21,35,35,0,0,0-.5-13.75A33.66,33.66,0,0,0,357,522S353.15,513,357,511.74Z" opacity="0.2"/><path d="M360.35,534.34l110.2-34.67s32.81-11.44,47.91,3.9" fill="none" stroke="#fff" stroke-miterlimit="10"/><ellipse cx="726.11" cy="380.81" rx="28.55" ry="21.24" transform="translate(33.26 819.24) rotate(-60)" fill="#ffad95"/><ellipse cx="752.62" cy="381.31" rx="8.29" ry="7.27" transform="translate(80 890.64) rotate(-64)" fill="#ffad95"/><path d="M723.54,407.45s-1.84,11-4.46,14.33c0,0-4,4.94-4.32,7.23,0,0,25.2-3.12,34.22-40.25l-2.26-1.83S740.49,403.88,723.54,407.45Z" fill="#e37961"/><path d="M723.05,410s6-1.27,6,2.73c0,0,0,6-8.88,7.37A54,54,0,0,0,723.05,410Z" fill="#ffad95"/><path d="M711.15,343.1a20,20,0,0,0-3.25,5.18,16.6,16.6,0,0,0-1.4,6,14.18,14.18,0,0,0,1,6.07,16.64,16.64,0,0,0,1.4,2.8c.53.89,1.22,1.69,1.83,2.54-.64-.82-1.36-1.6-1.94-2.47a17.34,17.34,0,0,1-1.52-2.77,14.55,14.55,0,0,1-1.32-6.18,17.4,17.4,0,0,1,1.2-6.25,21.07,21.07,0,0,1,3.21-5.56Z" fill="#123a53"/><path d="M727.33,337.29s-1.4-16.33,27-4.72a38.63,38.63,0,0,1,21.14,20.91c1.81,4.4,3.36,12,4.16,18.43" fill="none" stroke="#123a53" stroke-miterlimit="10"/><path d="M735,398.39a33.7,33.7,0,0,0,2.85-7.83,57.08,57.08,0,0,0,1.37-8.22,74.56,74.56,0,0,0,.31-8.32c0-1.39-.12-2.78-.17-4.16l-.38-4.15,1-.1.26,4.2c0,1.4.08,2.8.05,4.21a73.39,73.39,0,0,1-.56,8.38,59.27,59.27,0,0,1-1.62,8.23A34.75,34.75,0,0,1,735,398.39Z" fill="#123a53"/><path d="M643.26,381.92l22.36,52.8,4.85-2.28-21-53.08a3.37,3.37,0,0,0-4.37-1.9h0A3.36,3.36,0,0,0,643.26,381.92Z" fill="#686175" data-primary="true"/><path d="M714.76,433.56v16.66l-9,42.79-5.05,24-20.94-5.64c-3.51-8.33-18.4-21.22-18.4-21.22l14.25-39.93s.07-8.4,44.47-30.05a13.87,13.87,0,0,1-2.54,4.09C715.45,426.84,714.76,430.26,714.76,433.56Z" fill="#f48225" data-secondary="true"/><g clip-path="url(#b6ddc84e-9d0c-44b8-b8b0-07765f56d8eb)"><path d="M669,468.55s22,6.94,31.47,2.69a6.42,6.42,0,0,0,3.34-7.89c-2.65-8.15-10.83-31,16.2-43.18A111.1,111.1,0,0,1,715,430.83l-.22,19.39L700.67,517l-20.94-5.64s-4.4-8.93-18.4-21.22Z" opacity="0.2"/></g><path d="M534.69,579.67,508,634.32c-.18.38-.39.75-.59,1.11-.75,1.31-2.67,5.43.45,8.77a7.37,7.37,0,0,0,5.42,2.24h54.1s7.5.28,9.18-14.57l5.68-32,4.93-20.53Z" fill="#7a6640"/><g clip-path="url(#ab82183f-a9c3-447a-a7b6-9c3822739175)"><path d="M504.57,633.83l75.51-2.7s-1.18,15.3-10.11,16H510.39s-7.14-.09-7.83-6.48C502.56,640.7,501.85,637.66,504.57,633.83Z" fill="#a98c5d"/></g><path d="M580.09,582.26s-.72,23.39,12.52,23.74h133.5s13.95.58,18.25-16.71l64.4-190.9s7.28-18.52-12-21.16L731.87,553.29l-4.7,15.86s-5.41,23.57-31.55,19.72Z" fill="#a98c5d"/><path d="M366.78,461.32s-4.5-20,13.11-16.35c0,0,32.78,2.89,60.23,2.47H511.4s24.17-1.31,50,13.88l34.81,23.59-76.84,14.76s-9.15-5.59-18.05-2.91a15.06,15.06,0,0,1-4,.68l-129.55,2.18a2.71,2.71,0,0,1-2.71-3.2C366.17,490.22,368.32,476,366.78,461.32Z" fill="#686175" data-primary="true"/><path d="M286.51,505.28s-4.33-3.88-1.82-11.41c0,0,.91-6.84,6.38-2.28l47.46,23.62a8.56,8.56,0,0,0,4.31.88l12.43-.76S355,516.41,357,522c0,0,5,10.6,2.86,21.12l-.39,3.22s-26.15,9.35-33,1.83C326.42,548.16,297,515.08,286.51,505.28Z" fill="#f48225" data-secondary="true"/><path d="M729.05,462.14S718.14,437.15,749,429c0,0-25.94,6.64-14.36,36.86Z" opacity="0.2"/><path d="M705.72,493l6.93-34.86s2.43-30.21,23.47-30.43c0,0,25.22-7.52,18,11.36L715.38,550.9a7,7,0,0,1-4.72,4.58c-4.42,1.18-12.19-1.36-22.19-23.33L655,452.72s-12-15.5-9.42-21.89c0,0-1.43-8.11,1.71-8.68,0,0-1.14-9.14,3.14-10.71,0,0-2.85-11.95,1.43-13.05,0,0,5.87,4,5.91,14.35a11.72,11.72,0,0,0,2.09,6.79c3,4.2,7.89,10.31,8.29,5.76,0,0-2.54-8.51-.21-10.15a.52.52,0,0,1,.72.19,37.22,37.22,0,0,0,3.24,4.89,18,18,0,0,1,3.85,13.61,31.35,31.35,0,0,1-2.47,8.31,5.73,5.73,0,0,0,.54,5.64Z" fill="#ffad95"/><path d="M727.33,337.29s-10.57-8.57-18.29,6.86c0,0-7.87,23.72,17.07,22.57,0,0-1.06-5.71,2.94-7.43,0,0,.57,9.72,6.57,10.29,0,0-.29-3.43,1.42-5.14,0,0-.28,3.71,5.15,5.14,0,0,.57,16.57-1.43,22,0,0,5.59-6.09,8.22-16.9,0,0,4.65-3.4,8.65.47a8.07,8.07,0,0,1,2.35,6.5,8.36,8.36,0,0,1-4.86,6.92,7.68,7.68,0,0,1-5.12.54,6.47,6.47,0,0,1-1-.35s-7.72,35.32-35.15,40.25c0,0-9,2.36-15.43-3.22,0,0-3.71,22.29,16.36,24.43,0,0,1.64-20.14,21.36-22.5,0,0-30.22,22.29-1.5,38.15,0,0-12.41-27,14.36-36.86l5.14,10.07,18.21-52.15s2.36-9.35,8.57-11.49c0,0-5.78-40.29-39.43-44.36C741.47,331.08,728,329.37,727.33,337.29Z" fill="#123a53"/><path d="M700.67,441.37s8.66.28,17.23-7.22A87.62,87.62,0,0,1,734,424.51s8.17-3.43,15-13.07c0,0-4.29,11.57-12.86,16.28,0,0-18.08,0-21.36,22.5A17.68,17.68,0,0,1,700.67,441.37Z" opacity="0.2"/><path d="M712.65,363.47h9.82s-3.42-11.6,6.58-16.18c0,0-2.26,4.57,0,12,0,0-3.75,1.22-2.94,7.43C726.11,366.72,718.34,367.66,712.65,363.47Z" opacity="0.2"/><path d="M367.32,472.09H520.69s29.67,1.7,41.69,15.19" fill="none" stroke="#fff" stroke-miterlimit="10"/><path d="M531.59,544.52l-9.51-24s-14-26.73,12.23-31.26l90.81-6.37a70.46,70.46,0,0,1,15.22.59c7,1,16.15,3,21,6.68,0,0,18.15,11.4,37.63,54.37l11.82,18.63,62.81-179.72s5.37-16.12,23.17-6.2L731.87,553.29l-4.7,15.86s-5.84,23.57-31.55,19.72l-165-9.43-247.86-5.57s0-30.86,42.28-24.58Z" fill="#7a6640"/><g clip-path="url(#a79217fc-b293-4877-a31e-c414ff7ef210)"><polygon points="325.05 549.29 546.43 565.35 531.59 544.52 325.05 549.29" opacity="0.2"/><polygon points="534.69 579.67 727.17 569.15 727.32 586.48 686.51 596.2 534.69 579.67" opacity="0.2"/><polygon points="625.12 482.88 686.55 520.66 676.82 487.28 640.77 472.09 625.12 482.88" opacity="0.2"/></g></g></g></svg>