<svg id="b67146fe-eba4-4cf1-8277-62bbea1cb17a" data-name="a9a2233c-8b85-4eb2-b8c5-fc8d150d0811" xmlns="http://www.w3.org/2000/svg" width="865.76" height="682.89" viewBox="0 0 865.76 682.89"><path d="M856,400.59q-.3,3.56-.65,7.14-1.4,14.19-3.61,28.64c-.36,2.32-.73,4.64-1.12,7q-2.8,16.74-6.74,33.75-2.55,11-5.59,22-4.69,17.14-10.61,34.43c-.51,1.49-1,3-1.56,4.49Q818.77,559,809.6,580q-8,18.21-17.32,36.44-4.11,8-8.51,16-4.14,7.51-8.51,15L774,649.7v.06H756.07l-588.46-1.29h-5.67s-1.58-1-4.43-3.07c-1.54-1.11-3.48-2.51-5.73-4.2-1-.72-2-1.5-3.08-2.33-6.27-4.79-14.4-11.32-23.59-19.41h0l-.72-.64c-2-1.74-4-3.54-6-5.42l-.92-.85-.46-.42L115.78,611l-.28-.25-2.17-2q-6.28-5.94-12.89-12.66c-1.49-1.52-3-3.06-4.48-4.64l-.15-.16q-4.26-4.49-8.56-9.27l-1.84-2-.77-.88q-4.77-5.4-9.5-11.18c-.72-.87-1.43-1.74-2.14-2.63q-4.44-5.5-8.77-11.32l-.76-1h0c-.8-1.09-1.61-2.18-2.4-3.29s-1.71-2.37-2.55-3.57c-4.71-6.69-9.27-13.66-13.59-20.88q-4.09-6.84-7.88-14h0c-1-2-2.08-4-3.07-6C3.14,443.6-7.81,366.13,44.23,280.9a221,221,0,0,1,56.11-62.15q8.32-6.25,17-11.59A236,236,0,0,1,148.62,191c96-41,207.22-17.43,232.08-5.55,0,0,64.37-172.23,258-150.42,44.12,5,84,24.55,117.26,55.26a254.71,254.71,0,0,1,19.22,19.8q4.35,5,8.51,10.28,4.37,5.53,8.51,11.38c37.35,52.59,60.93,122.93,64.91,202.4A494.39,494.39,0,0,1,856,400.59Z" fill="#f7dfc8"/><path d="M783.72,120.4V632.45q-4.76,8.63-9.82,17.24l-55.8-.12-32.2-.07-105.44-.22-35.6-.07-383-.8s-5-3.31-13.24-9.6A458.31,458.31,0,0,1,100.34,596V218.75A231.37,231.37,0,0,1,148.62,191c96-41,207.22-17.43,232.08-5.55,0,0,8.77-23.46,29.57-52A266.42,266.42,0,0,1,443.44,96c40.61-37.91,103.39-71.25,195.29-60.9,44.12,5,84,24.55,117.26,55.26a248.25,248.25,0,0,1,17.93,18.34Q778.95,114.35,783.72,120.4Z" fill="#fbecdb"/><path d="M783.72,120.4v43.79l-445,65.59,435.2-121.12Q778.95,114.35,783.72,120.4Z" fill="#fff4e9"/><path d="M502.89,607h42v42.17l-383-.8s-5-3.31-13.24-9.6A457.13,457.13,0,0,1,100.34,596V309.63l.15-.18h1.6v73.67h38.59V264.55l1.46-1.41h9.37v-.06H206v.06h.05v17.77H206v12.22h.05V310.9H206v12.27h.05v17.77H206V341l5.78-.06V248H273v11.77h0v17.77h0v15.62h0V310.9h0v12.27h0v17.77h0v11.35h0v17.78h0v11.35h0v17.77h0v10.69h0v11.28h0v1.24h69V524.11h25.77v25.62h27.78V505.61h50V385.72h7.82V373.78h1.11v11.94h38.9V373.78h1.12v11.93H503Z" fill="#f8e7d4"/><polygon points="685.9 229.78 685.9 649.5 580.46 649.28 580.46 229.78 685.9 229.78" fill="#f8e7d4"/><path d="M783.72,290.36V632.45q-4.76,8.63-9.82,17.24l-55.8-.12V290.36Z" fill="#f8e7d4"/><path d="M117.37,207.16V612.49c-5.46-5-11.18-10.54-17-16.51V218.75Q108.67,212.5,117.37,207.16Z" fill="#e5bd9e"/><path d="M631.1,60.65,410.27,133.5A266.82,266.82,0,0,1,443.44,96Z" fill="#fff4e9"/><path d="M514.11,137.63a13.19,13.19,0,1,1,13.19,13.19,13.2,13.2,0,0,1-13.19-13.19Z" fill="#fff4e9"/><path d="M792.23,131.78V616.45q-4.11,8-8.51,16-4.14,7.51-8.51,15V110.12q4.35,5,8.51,10.28Q788.09,125.94,792.23,131.78Z" fill="#e5bd9e"/><path d="M838.24,499.14q-4.69,17.14-10.61,34.43c-.51,1.49-1,3-1.56,4.49q-7.35,20.91-16.52,42a71.42,71.42,0,0,1-11.34,2.8c-15.46,2.32-10.68-4-5.36-13.45s22.18-13.64,26-18-4.11-4.35-13.42-.1-10.59,15.6-25.53,22.76-37.42-17.64-37.42-17.64c11.91-.61,28.91-13.54,28.3-17.49s-28.87,6.82-33.7,7.34-15.81-5.49-17.51-24.94,30.18-24.88,30.18-24.88,31.64,23.52,37.81,22.1-23.12-25.4-23.12-25.4c11-5.3,45.28-2,45.28-2s11.41,36.8,17,33.9S815,493,815,493C823.34,492.49,832.92,496.5,838.24,499.14Z" fill="#599dad"/><path d="M827.63,533.57c-.51,1.49-1,3-1.56,4.49-13.47-7.38-39.75-14.55-90.81-16.23C735.26,521.83,796.85,519.46,827.63,533.57Z" fill="#599dad"/><path d="M61.05,549.61q-1.29-1.77-2.55-3.57c-4.71-6.69-9.27-13.66-13.59-20.88.36-13.47-.32-26.71-.32-26.71s45.11-21.69,62.81-20c0,0-28,47.39-18.84,46.25s40.54-49.1,40.54-49.1,46.26-8.57,53.68,18.84-4.57,41.11-11.42,42.83-50.82,1.14-49.68,6.85,30.83,14.85,47.4,9.71c0,0-18.28,45.11-42.26,42.82-21.69-2.06-29.84-14.41-42.18-17.59q-4.77-5.4-9.5-11.18c-.72-.87-1.43-1.74-2.14-2.63q-4.44-5.5-8.77-11.32Z" fill="#6bb7bf"/><path d="M64.23,554c18.86-14.28,49.15-31.4,97.4-50.92-1.31.43-61.06,19.93-100.58,46.58Z" fill="#599dad"/><path d="M850.57,443.35q-2.8,16.74-6.74,33.75c-15.34-.1-32.28-3.65-43.91-8.36-22.66-9.18-11.16-13.93,3.51-22.37C817,438.55,840.33,444.6,850.57,443.35Z" fill="#86d1cd"/><path d="M856,400.59q-.3,3.56-.65,7.14-1.4,14.19-3.61,28.64c-3.78-1.87-9.82-3.54-16.9-4.29-15.92-1.69-26.67,12.56-52.48,10.3S746,388.84,746,388.84c16.51,8.67,49.7,4.8,52-1S753.71,374,746.8,370.9s-16.93-20-3.73-47.53,60.45-9.46,60.45-9.46,23.86,56.86,33.3,59.86-10.9-52.6-10.9-52.6c7.85.68,19.84,6.46,31.23,13A495.77,495.77,0,0,1,856,400.59Z" fill="#86d1cd"/><path d="M763.75,336.54c.87.47,55.32,30,92.2,64q-.3,3.56-.65,7.14C838,389.2,809.59,365.72,763.75,336.54Z" fill="#6bb7bf"/><rect x="148.14" y="642.38" width="636.86" height="6" fill="#954e20"/><polygon points="462.56 550.5 309.92 544.96 309.92 535.53 462.56 539.61 462.56 550.5" fill="#f48225" data-secondary="true"/><polygon points="462.56 550.5 309.92 544.96 309.92 535.53 462.56 539.61 462.56 550.5" opacity="0.2" style="isolation:isolate"/><polygon points="288.05 356.67 327.46 623.41 316.16 623.41 275.24 370.11 288.05 356.67" fill="#f48225" data-secondary="true"/><polygon points="288.05 356.67 327.46 623.41 316.16 623.41 275.24 370.11 288.05 356.67" opacity="0.2" style="isolation:isolate"/><polygon points="443.54 356.67 482.96 623.41 471.65 623.41 430.74 370.11 443.54 356.67" fill="#f48225" data-secondary="true"/><polygon points="446.35 343.18 264.96 349.56 226.82 569.37 382.66 574.57 446.35 343.18" fill="#f48225" data-secondary="true"/><polygon points="446.35 343.18 264.96 349.56 226.82 569.37 382.66 574.57 446.35 343.18" fill="#fff" opacity="0.4" style="isolation:isolate"/><polygon points="436.65 350.85 377.13 567.06 235.48 562.33 271.16 356.67 436.65 350.85"/><polygon points="436.65 350.85 271.16 356.67 235.48 562.33 241.55 562.54 275.85 362.07 435.25 355.91 436.65 350.85" fill="#f48225" data-secondary="true"/><polygon points="446.35 343.18 382.66 574.57 386.85 577.22 453.68 346.7 446.35 343.18" fill="#f48225" data-secondary="true"/><polygon points="386.85 577.22 231.4 572.3 226.82 569.37 382.66 574.57 386.85 577.22" fill="#f48225" data-secondary="true"/><polygon points="435.25 355.91 275.85 362.07 241.55 562.54 247.19 562.54 285.83 369.96 432.98 364.17 435.25 355.91" fill="#fff" opacity="0.2" style="isolation:isolate"/><polygon points="379.41 576.99 368.51 623.41 363.21 623.41 372.29 582.45 365.72 581.65 366.64 576.49 379.41 576.99" fill="#f48225" data-secondary="true"/><polygon points="372.29 582.45 363.21 623.41 359.16 623.41 365.72 581.65 372.29 582.45" fill="#f48225" data-secondary="true"/><polygon points="372.29 582.45 363.21 623.41 359.16 623.41 365.72 581.65 372.29 582.45" fill="#fff" opacity="0.4" style="isolation:isolate"/><polygon points="251.67 572.23 240.3 622.94 235 622.94 244.55 578.25 237.98 577.37 238.9 571.68 251.67 572.23" fill="#f48225" data-secondary="true"/><polygon points="244.55 578.25 235 622.94 230.95 622.94 237.98 577.37 244.55 578.25" fill="#f48225" data-secondary="true"/><polygon points="244.55 578.25 235 622.94 230.95 622.94 237.98 577.37 244.55 578.25" fill="#fff" opacity="0.4" style="isolation:isolate"/><polygon points="471.65 623.41 477.37 623.41 453.68 475.5 447.76 475.5 471.65 623.41" fill="#fff" opacity="0.4" style="isolation:isolate"/><path d="M292.54,528.09h2.32l23.27.24,23.27-.09h1.54l.41-1.46,17-59.84h.15c.82.16,1.63.34,2.44.47l2.48.16,1.24.07,1.23-.09,2.47-.21c.82-.13,1.62-.36,2.43-.54a12.18,12.18,0,0,0,2.37-.7A24.75,24.75,0,0,0,389.25,453a26.33,26.33,0,0,0,.85-19.26,25.19,25.19,0,0,0-5-8.57,24.32,24.32,0,0,0-8-5.92,26.62,26.62,0,0,0-19.63-1.07,25.61,25.61,0,0,0-14.66,13.38,19.92,19.92,0,0,0-.89,2.13h-3.14L325,433.35l1.54-31.77L296,385.79v6.56l26.33,12.4-.86,28.51-11.87-.3h-1.16l-.2,1.19L293,525.84Zm31.72-125.22v.42L298.09,391v-1.63Zm37,61.11,8-28.17.48-1.71H368l-21.32-.28c.05-.12.09-.24.15-.36a21.54,21.54,0,0,1,12-11.56,23.27,23.27,0,0,1,17,.51,21.35,21.35,0,0,1,11.71,12.35,24.81,24.81,0,0,1,1.54,8.7,21.71,21.71,0,0,1-1.89,8.62,22.13,22.13,0,0,1-12.85,11.49,23.08,23.08,0,0,1-13.07.43Zm-15.52-27.75,20.44.5L358.27,463c-.39-.15-.79-.29-1.17-.46a21.47,21.47,0,0,1-11.37-12.44,21,21,0,0,1,0-13.87Zm-4.08,82.18-43.32-1.81,12.36-80.9,10.63.14-1,33.53h-12l-5.87,41.24,37.17,2.32,12.62-43.56h-29l1.63-33.49,13.95.18,2.47.06a25.54,25.54,0,0,0,.95,15.27,25,25,0,0,0,13.6,14.13c.52.17,1,.37,1.55.56Zm-36.72-9.82,5.27-37h10l-1.15,37.93Zm18.18-37h26.24L338,510.65l-16.76-1Z" fill="#fff"/><path d="M338.49,481.5a3.51,3.51,0,0,1-1,1.1,2.41,2.41,0,0,1-.79.46,2.92,2.92,0,0,1-.56.21,3.18,3.18,0,0,1-1.62,0,3.31,3.31,0,0,1-1.4-.93,3.19,3.19,0,0,1-.88-.95,3.47,3.47,0,0,1-.45-1.66,3.93,3.93,0,0,1,.46-1.71.79.79,0,0,0,.08-.11.41.41,0,0,1,.05-.09l.5-.64a3.73,3.73,0,0,1,.73-.58,3.66,3.66,0,0,1,3.64-.05,3.33,3.33,0,0,1,1.46,1.64A3.71,3.71,0,0,1,338.49,481.5Z" fill="#fff"/><path d="M313.41,488.84a2.63,2.63,0,0,1,.69-.64,2,2,0,0,1,.62-.28,2.48,2.48,0,0,1,1.9.26,2.14,2.14,0,0,1,.72.65,3.71,3.71,0,0,1,.28.41c.08.18.16.37.23.56a1.28,1.28,0,0,1,.07.34,1.91,1.91,0,0,1,0,.89,2.31,2.31,0,0,1-.28.54.8.8,0,0,1-.08.16l-.07.09a3.47,3.47,0,0,1-.29.38,2.47,2.47,0,0,1-2.42.64,4.39,4.39,0,0,1-.63-.26,5.34,5.34,0,0,1-.53-.41,2.48,2.48,0,0,1-.51-.8,1.3,1.3,0,0,1-.17-.64,2.11,2.11,0,0,1,.05-1A2,2,0,0,1,313.41,488.84Z" fill="#fff"/><path d="M326.8,504.14l-.07.08-.38.3a1.48,1.48,0,0,1-.71.22.85.85,0,0,1-.5,0,1.44,1.44,0,0,1-.7-.22l-.08-.06a1.5,1.5,0,0,1-.57-.52,1.48,1.48,0,0,1-.36-.69,3.23,3.23,0,0,0-.08-.53,2.06,2.06,0,0,1,.28-1h0a2.07,2.07,0,0,1,.72-.72,1.42,1.42,0,0,1,.75-.24,1.51,1.51,0,0,1,.79,0,2,2,0,0,1,.89.51h0a2.2,2.2,0,0,1,.59,1.43,1.39,1.39,0,0,1-.07.53A1.9,1.9,0,0,1,326.8,504.14Z" fill="#fff"/><path d="M387.09,447.12l-18-4.73,5.65,18.43Zm-14.77-1.64,10.78,2.83-7.4,8.22Z" fill="#fff"/><path d="M370.32,438.54l16.37,2-5-14.35Zm13.19-.56-8.73-1.07,6.08-6.58Z" fill="#fff"/><path d="M367.08,432.78l2.32-11.46L358.79,425Zm-.56-8.16-.79,3.93-2.84-2.65Z" fill="#fff"/><path d="M436.65,350.85l-8,26.87c-2.63,9-5.39,17.9-7.75,26.94l-14.88,54L376.25,566.82l.91-.67-70.82-2.37c-11.81-.34-23.61-.93-35.43-1l-35.43-.48,35.39,1.89c11.79.75,23.6.95,35.4,1.39L377.1,568h.72l.2-.7,29.75-108.1,14.88-54.05c2.59-9,4.8-18.07,7.12-27.12Z" fill="#fff" opacity="0.32" style="isolation:isolate"/><polygon points="453.68 346.7 446.42 343.05 446.39 343.04 446.35 343.04 400.97 343.85 355.62 345.46 264.93 348.64 264.18 348.67 264.06 349.4 244.99 459.31 235.44 514.26 226.82 569.37 237.28 514.58 246.79 459.62 265.86 349.71 264.99 350.47 355.69 347.29 401.04 345.7 446.36 343.33 446.29 343.31 453.68 346.7" fill="#fff" opacity="0.32" style="isolation:isolate"/><path d="M629.58,623c-4.76.7-12.24-2-12.24-2A33,33,0,0,0,589,625.4c2.38-7.31,6.52-16.39,6.52-16.39,7.7-6.57,25-2.44,25-2.44Z" fill="#f48225" data-secondary="true"/><path d="M630.26,625.4c0,5.14-9.3,6.3-13.06,6.56a10.15,10.15,0,0,1-2.4-.11c-4-.67-11.71.21-14.46.57a15,15,0,0,1-2.32.12,48.26,48.26,0,0,1-10.22-1.46.38.38,0,0,1-.27-.42,42.45,42.45,0,0,1,1.43-5.31h0a33,33,0,0,1,28.37-4.4s7.48,2.73,12.24,2a4.17,4.17,0,0,1,.33.67A5.43,5.43,0,0,1,630.26,625.4Z" fill="#f48225" data-secondary="true"/><path d="M630.26,625.4c0,5.14-9.3,6.3-13.06,6.56a10.15,10.15,0,0,1-2.4-.11c-4-.67-11.71.21-14.46.57a15,15,0,0,1-2.32.12,48.26,48.26,0,0,1-10.22-1.46.38.38,0,0,1-.27-.42,42.45,42.45,0,0,1,1.43-5.31h0a33,33,0,0,1,28.37-4.4s7.48,2.73,12.24,2a4.17,4.17,0,0,1,.33.67A5.43,5.43,0,0,1,630.26,625.4Z" opacity="0.2" style="isolation:isolate"/><path d="M528.08,596l25.29,9.56S567.69,544,565.44,495.4l-29.78-31.14L516.54,486.8S527.24,584.79,528.08,596Z"/><path d="M595.5,609,569.93,495.81l10.68-117.49L602.24,375s13.48,55.62,18,110.68c0,0,7.58,89,0,121.91Z"/><path d="M548.6,203l16.4-9.49,3.19.94s4.44,4.83,5,14.35c0,0-13.78,13-22.66,28.16C550.49,237,546.18,223.64,548.6,203Z" fill="#686175" data-primary="true"/><path d="M533.76,187.39s13.58,1.21,19.6-.13c0,0-10.19,16.84-2.87,49.7,0,0-5,2-5.21,10.32l-9.52,69.65-20.29-1.51s-5.82-5-4-46.85L514.22,237S515.47,205.43,533.76,187.39Z" fill="#686175" data-primary="true"/><path d="M541.48,187.84s.78,33.87-1.74,54.48l-9.8,74.18,5.82.43,9.52-69.65s-.38-8.39,5.21-10.32c0,0-7.4-28.32,2.87-49.7a54.91,54.91,0,0,1-6,.6A49.86,49.86,0,0,1,541.48,187.84Z" opacity="0.2" style="isolation:isolate"/><path d="M535.76,316.93s34.33,3.18,48.36,2.09l16.63-47.49,10.14-65.46-20.62-8.28s-3.28,0-17.37,10.85c0,0-9.52,9.85-13.07,14.82L550.49,237s-5.54,1.75-5.37,11.54Z" fill="#686175" data-primary="true"/><path d="M578.66,274.72c-1.91-10.14-6.94-47.6,16.24-75.07l-4.63-1.86s-18.79,5.56-39.78,39.17c0,0-5.54,1-5.37,11.54l-6.92,50.63s9-15.13,38.37-21.27A2.69,2.69,0,0,0,578.66,274.72Z" opacity="0.2" style="isolation:isolate"/><path d="M561.87,162.29s-1,20.39-3.21,27c0,0,7.27,10.41,24.63,2.7V180L565,160.88S564.57,162.55,561.87,162.29Z" fill="#feb0a3"/><path d="M569.73,194.74S564,181.31,565,170.39c0,0,7.85,12.15,18.34,12.18V180L565,160.88s-.53.94-3.1.94c0,0-1.22,23.22-3.19,27.51C558.66,189.33,561.66,193.72,569.73,194.74Z" fill="#fd8571"/><path d="M587.27,182c-9.63.68-18.47-8.18-22.32-21.08a48.35,48.35,0,0,1-1.91-10.6v-.73c-1-18,7.66-33.19,19.59-34,12.09-.85,22.93,13.33,24.23,31.67S599.36,181.1,587.27,182Z" fill="#feb0a3"/><path d="M561.25,171.47s-13.26-17.7-12.56-35.06c0,0-2.81-22.09,23.49-24.9,0,0,24.63-2.59,34.79,12.94a3.76,3.76,0,0,1-.42,4.66c-2.09,2.16-6.91,5.06-18.06,6.6,0,0-17.67.17-17.51,4,0,0-3,11.77,0,21.14L564.45,159a33.05,33.05,0,0,1-1.46-9.52l-1.12,12.74Z"/><path d="M606.32,129.34a60,60,0,0,1,.49,17.85s-1.56-11.33-3.73-15.57A14.68,14.68,0,0,0,606.32,129.34Z"/><path d="M548.6,203a43.11,43.11,0,0,1,4.76-15.7l6.2-1.33a19.68,19.68,0,0,1-.49,2.15c-.13.44-.26.86-.41,1.25a16.36,16.36,0,0,0,1.82,1.71,13,13,0,0,0,4.47,2.47S554.7,200.29,548.6,203Z" fill="#686175" data-primary="true"/><path d="M548.6,203a43.11,43.11,0,0,1,4.76-15.7l6.2-1.33a19.68,19.68,0,0,1-.49,2.15c-.13.44-.26.86-.41,1.25a16.36,16.36,0,0,0,1.82,1.71,13,13,0,0,0,4.47,2.47S554.7,200.29,548.6,203Z" fill="#fff" opacity="0.4" style="isolation:isolate"/><path d="M568.14,194.45s3.59,3.5,4.76,14.19c0,0,10.39-7.94,17.37-10.85l-7-5.76S574.75,196,568.14,194.45Z" fill="#686175" data-primary="true"/><path d="M568.14,194.45s3.59,3.5,4.76,14.19c0,0,10.39-7.94,17.37-10.85l-7-5.76S574.75,196,568.14,194.45Z" fill="#fff" opacity="0.4" style="isolation:isolate"/><path d="M557.92,197.92l.74,7.25L547.72,216.4s.14,12.34,2.77,20.56c0,0,6.56-9.84,9.34-13.5l1.38-15.89,10-7.23s-1.23-4.08-3.05-5.89l-3.19-.94Z"/><path d="M600.75,271.53l24.23-58s-.43-2.84-14.09-7.47c0,0-22,5.73-17.63,42.76C593.26,248.83,595,269.33,600.75,271.53Z" fill="#f48225" data-secondary="true"/><path d="M600.75,271.53l24.23-58s-.43-2.84-14.09-7.47c0,0-22,5.73-17.63,42.76C593.26,248.83,595,269.33,600.75,271.53Z" opacity="0.2" style="isolation:isolate"/><path d="M514.22,237s-5.52-36.46,8-51l11.53,1.46S517.72,200.59,514.22,237Z" fill="#f48225" data-secondary="true"/><path d="M514.22,237s-5.52-36.46,8-51l11.53,1.46S517.72,200.59,514.22,237Z" opacity="0.2" style="isolation:isolate"/><circle cx="550.54" cy="247.59" r="2.82" fill="#686175" data-primary="true"/><circle cx="546.38" cy="271.53" r="2.82" fill="#686175" data-primary="true"/><path d="M457.81,238.8s5.34-6.78,24.05-20.14a118.73,118.73,0,0,0,11.87-12.59s14.54-24.67,28.5-20.14c0,0-12.47,10.25-8,51,0,0-40.68,27.76-53.74,31.75,0,0-14.85,14.15-22.86-2.81,0,0-8.61-11.19-10.1-68.11a44.5,44.5,0,0,0,21.38-3s0,5.19,4.16,20.49C453.06,215.23,457.81,228.07,457.81,238.8Z" fill="#f48225" data-secondary="true"/><path d="M426.33,182l1.19,15.8s11.35,2.09,21.38-3a33.61,33.61,0,0,1-2.67-14.68S435.24,185.11,426.33,182Z" fill="#f48225" data-secondary="true"/><path d="M426.33,182l1.19,15.8s11.35,2.09,21.38-3a33.61,33.61,0,0,1-2.67-14.68S435.24,185.11,426.33,182Z" fill="#fff" opacity="0.4" style="isolation:isolate"/><path d="M515.47,315.42l-3,11.21a2,2,0,0,0,1.39,2.46l.1,0c5.43,1.26,25.81,5.39,42.86,4.95l26.39-.88.9-14.17S548,317.93,515.47,315.42Z"/><path d="M579.24,495.76c-3.39.1-6.9,0-10.45-.14-23.62-1.16-48.52-7.45-48.52-7.45-14.11-3.8-13-16.64-13-16.64l-2.53-33.65C500,376.16,506.1,348,510.4,336.32h0c2-5.35,3.57-7.2,3.57-7.2,25.18,6.29,63.09,4.06,63.09,4.06,13.52,23.74,26.41,143.29,26.41,143.29C606.61,494.56,579.24,495.76,579.24,495.76Z" fill="#f48225" data-secondary="true"/><path d="M568.79,495.62c-23.62-1.16-48.52-7.45-48.52-7.45-14.11-3.8-13-16.64-13-16.64l-2.53-33.65C500,376.16,506.1,348,510.4,336.32h0c.49.27,36.05,19.93,55.81,90.35C566.22,426.67,575.58,468.53,568.79,495.62Z" fill="#fff" opacity="0.4" style="isolation:isolate"/><path d="M561.3,314.34s-.51,47.21-2,55.35c0,0,2.28-3.21,4-2a7.81,7.81,0,0,0,1.56.9c1.56.56,4.29,1.26,5-.45V353.23s-.26-13.19-.18-15.82c0,0,1.22-20.54,1.51-25.14Z" fill="#e6e7e8"/><path d="M491,619s20.8-7,37.08-23l25.29,9.56,2.9,13.37Z" fill="#f48225" data-secondary="true"/><path d="M495.67,626.73s-6.51-.18-4.7-7.78h65.3l.54,3.26a4.6,4.6,0,0,1-3.78,5.28,5.55,5.55,0,0,1-.82.06Z"/><path d="M614.57,641.92l-27.32-1.36a1.35,1.35,0,0,1-1.28-1.43,1,1,0,0,1,0-.24l1.8-7.81a48.17,48.17,0,0,0,10.2,1.46,15,15,0,0,0,2.32-.12c2.75-.36,10.44-1.24,14.46-.57a10.15,10.15,0,0,0,2.4.11c3.76-.26,13.11-1.42,13.06-6.56C637.14,642,614.57,641.92,614.57,641.92Z"/><path d="M386.09,168.42s4.51,5.12,36.86,5.63a1.38,1.38,0,0,1,1.3,1l2.08,7a27.06,27.06,0,0,0,19.9-1.93s4.48-8.51,0-11.64Z" fill="#feb0a3"/><path d="M565,160.88a3,3,0,0,1-1.59,1.28c-2.31.74-5.2-1.88-6.46-5.84s-.41-7.77,1.9-8.5c1.35-.43,2.89.28,4.19,1.73v.73A48.92,48.92,0,0,0,565,160.88Z" fill="#feb0a3"/><path d="M605.82,258.09s-10.58-29.32,5.51-40.33c0,0,14.55-14.77,20.94,6.61,0,0,13.06,50.8,11.63,86a5.92,5.92,0,0,1-3.38,5.14c-5.21,2.44-17.31,5.8-40,1.17,0,0-30.41-4.19-37.91-2.42,0,0,3.31-10.8-1.32-20.5l51.57,2.87S610.67,270.65,605.82,258.09Z" fill="#f48225" data-secondary="true"/><path d="M562.62,314.29s-.71,1.79-17.48,2.64c0,0-8,1.62-11.86,3.29a2.07,2.07,0,0,1-2.66-.86c-.48-.89-.28-2.22,2.4-3.94,0,0,8.72-5.23,16.8-5.53a.1.1,0,0,0,.06-.13.09.09,0,0,0-.06-.06,20.06,20.06,0,0,0-11.64,1s-13.36,5.21-14.91,1.55c0,0-2.4-2.4,1.55-2.4a61.18,61.18,0,0,0,9.16-3.52s3.55-3.15,13-3a.13.13,0,0,0,.09-.16.14.14,0,0,0-.09-.09c-2-.4-6.79-.85-14.76,1.55,0,0-6.83,4.93-12.18,2.11,0,0-2.68-2,2.18-3.38,0,0,14-7.54,24-6.5h0c-1-.25-7.15-1.61-15.54,1a17.05,17.05,0,0,1-4.65.8c-1.76,0-3.87-.15-5-1a1.72,1.72,0,0,1-.27-2.43,1.64,1.64,0,0,1,.64-.5c2.64-1.21,9.68-3.85,22.16-4.6,0,0-2.39-8.2,3-7.8a1.41,1.41,0,0,1,1.3,1.16c.33,1.84,1.31,5.79,3.75,7.49,0,0,7.81,1.22,9.68,2.79C561.3,293.79,565.88,299.24,562.62,314.29Z" fill="#feb0a3"/><path d="M568.56,381.63s-.89-25.5.65-36.87a62.34,62.34,0,0,0,.54-7.35c.2-10.71.58-36.2-.09-43.15l-8.36-.47s.42-7.12,5.25-6.9h11.9s3.21,1.08,3.86-1.49c0,0,1.07-1.72,6.86-1.5H599s4.58.14,6.51,1.71l6.72,5,.62,6.12s4.35,13,2.73,47c0,0-.36,25.87,1.81,34.73a118.24,118.24,0,0,1-19-.72s-.25,8-25.08,2.89A7.71,7.71,0,0,1,568.56,381.63Z" fill="#e6e7e8"/><path d="M570,310.18s17-15.64,25.84-4.16c0,0,3.62,3.93,5.79,0,0,0,3.52-10.66,13.25,2a185.75,185.75,0,0,1,1,23.7l-.37,18.09S608,368.06,598.77,357c0,0-6.14,13.72-15,10.67a9,9,0,0,1-4.49-3.57l-8-12.17s-1,2.35-2.77,2.53l.72-9.73s.58-9.26.63-12.7Z" fill="#d1d3d4"/><path d="M568.49,354.49a3.66,3.66,0,0,0,2.77-2.53l8,12.17s9.18,12.61,19.49-7.1c0,0,8.31,11.11,16.81-7.24,0,0,.2,21.71,1.83,28.58,0,0-10.86.54-19-.72,0,0,.25,8-25.08,2.89-.15.11-.36.25-.63.41a5.79,5.79,0,0,1-2,.8,4.84,4.84,0,0,1-2.14-.12q-.18-5.91-.21-12Q568.32,361.88,568.49,354.49Z" fill="#bcbec0"/><ellipse cx="425.57" cy="99.29" rx="7.06" ry="7.11"/><path d="M427.2,99.62h0a57.25,57.25,0,0,1,57.25,57.25v5.41H370v-5.41A57.25,57.25,0,0,1,427.2,99.62Z" fill="#f48225" data-secondary="true"/><path d="M367,158.77H485.42a4.82,4.82,0,0,1,4.82,4.82h0a4.82,4.82,0,0,1-4.82,4.82H367a4.82,4.82,0,0,1-4.82-4.82h0A4.82,4.82,0,0,1,367,158.77Z"/><path d="M588.38,150.93c0,1.52-.67,2.75-1.5,2.75s-1.51-1.23-1.51-2.75.68-2.74,1.51-2.74S588.38,149.42,588.38,150.93Z"/><path d="M603.81,150.93c0,1.52-.68,2.75-1.51,2.75s-1.51-1.23-1.51-2.75.68-2.74,1.51-2.74S603.81,149.42,603.81,150.93Z"/><path d="M580.35,147.13s1.45-3,4.23-3.72a7.08,7.08,0,0,1,5.34.48.92.92,0,0,1,.42,1.13h0a.94.94,0,0,1-1.2.55l-.06,0C587.51,144.81,584.08,143.88,580.35,147.13Z"/><path d="M606.41,144.37c0,.39.18.86.17,1.26a8.1,8.1,0,0,0-6.76-.09.94.94,0,0,1-1.24-.44l0-.08a.92.92,0,0,1,.42-1.13,7.13,7.13,0,0,1,5.34-.48A6,6,0,0,1,606.41,144.37Z"/><path d="M561.94,159.17a.66.66,0,0,1-.53-.67c.28-5.13-2.57-6.42-2.7-6.47a.63.63,0,0,1-.33-.83h0a.63.63,0,0,1,.81-.35h0c.16.06,3.81,1.63,3.48,7.71a.64.64,0,0,1-.67.6Z" fill="#fd8571"/><path d="M558.49,155.29a.68.68,0,0,1-.39-.23.63.63,0,0,1,.09-.89h0a3.59,3.59,0,0,1,3.51-.4.65.65,0,0,1,.35.83.64.64,0,0,1-.82.36h0a2.28,2.28,0,0,0-2.24.22A.63.63,0,0,1,558.49,155.29Z" fill="#fd8571"/><path d="M595.65,159.75a.8.8,0,0,1-.49-1.44l2.13-1.62-1.84-.48a.79.79,0,0,1-.59-.65l-.82-5.08a.8.8,0,0,1,.65-.93.79.79,0,0,1,.92.65v0l.73,4.56,2.93.76a.83.83,0,0,1,.59.62.8.8,0,0,1-.3.79l-3.44,2.62A.78.78,0,0,1,595.65,159.75Z" fill="#fd8571"/><path d="M587.27,165.63l13.52.35s-.44,5.2-6.39,5.22C587.14,171.23,587.27,165.63,587.27,165.63Z" fill="#fff"/></svg>