<svg id="aaddc3db-062f-4d05-832d-985572dde0a2" data-name="Layer 1" xmlns="http://www.w3.org/2000/svg" xmlns:xlink="http://www.w3.org/1999/xlink" width="865.76" height="682.89" viewBox="0 0 865.76 682.89"><defs><clipPath id="bb7153bf-ec94-4c2b-9ab6-97345c42e56a"><rect id="e37a2d03-3779-4ce9-9be4-58a6e9f69757" data-name="SVGID" width="865.76" height="682.89" fill="none"/></clipPath></defs><g clip-path="url(#bb7153bf-ec94-4c2b-9ab6-97345c42e56a)"><rect x="745.57" y="-0.2" width="243.19" height="297.12" fill="#ccc"/><rect x="745.57" y="-0.2" width="243.14" height="27.36" fill="#231f20" opacity="0.2"/><rect x="759.93" y="44.35" width="84.1" height="77.33" fill="#fff"/><rect x="745.55" y="146.84" width="243.25" height="12.05" fill="#fff" opacity="0.2"/><rect x="760.85" y="195.04" width="87.35" height="101.98" fill="#231f20" opacity="0.2"/><rect x="-184.03" y="413.34" width="1172.62" height="270.65" fill="#58595b"/><polygon points="755.59 448.67 531.65 448.67 543.7 415.19 743.54 415.19 755.59 448.67" fill="#fff"/><polygon points="771.99 491.18 515.25 491.18 529.06 459.04 758.18 459.04 771.99 491.18" fill="#fff"/><polygon points="785.16 532.69 501.08 532.69 512.55 500.55 774.47 500.55 785.16 532.69" fill="#fff"/><polygon points="802.23 577.99 485.46 577.99 498.25 543.85 790.31 543.85 802.23 577.99" fill="#fff"/><polygon points="818.52 624.85 468.05 624.85 482.2 588.92 805.33 588.92 818.52 624.85" fill="#fff"/><polygon points="839.95 683.32 447.63 683.32 464.97 636.46 822.67 636.46 839.95 683.32" fill="#fff"/><rect x="-184.03" y="390.42" width="1172.78" height="23.1" fill="#ccc"/><rect x="-184.03" y="296.92" width="1172.78" height="93.31" fill="#ccc"/><rect x="-184.03" y="296.92" width="1172.78" height="93.31" fill="#fff" opacity="0.2"/><rect x="766.37" y="50.15" width="20.5" height="19.33" fill="#ccc"/><rect x="791.63" y="50.15" width="20.5" height="19.33" fill="#ccc"/><rect x="816.3" y="50.15" width="20.5" height="19.33" fill="#ccc"/><rect x="766.37" y="73.27" width="20.5" height="19.33" fill="#ccc"/><rect x="791.63" y="73.27" width="20.5" height="19.33" fill="#ccc"/><rect x="816.3" y="73.27" width="20.5" height="19.33" fill="#ccc"/><rect x="766.37" y="96.77" width="20.5" height="19.33" fill="#ccc"/><rect x="791.63" y="96.77" width="20.5" height="19.33" fill="#ccc"/><rect x="816.3" y="96.77" width="20.5" height="19.33" fill="#ccc"/><rect x="539.04" y="-0.89" width="206.53" height="297.81" fill="#ccc"/><rect x="539.04" y="-0.89" width="206.53" height="297.81" fill="#231f20" opacity="0.1"/><rect x="561.44" y="-1.1" width="20.75" height="33.01" fill="#fff"/><rect x="589.1" y="-1.1" width="20.75" height="33.01" fill="#fff"/><rect x="616.92" y="-1.1" width="20.75" height="33.01" fill="#fff"/><rect x="644.73" y="-1.1" width="20.75" height="33.01" fill="#fff"/><rect x="671.93" y="-1.1" width="20.75" height="33.01" fill="#fff"/><rect x="700.68" y="-0.79" width="20.75" height="33.01" fill="#fff"/><rect x="561.44" y="44.22" width="20.75" height="35.03" fill="#fff"/><rect x="589.1" y="44.22" width="20.75" height="35.03" fill="#fff"/><rect x="616.92" y="44.22" width="20.75" height="35.03" fill="#fff"/><rect x="644.73" y="44.22" width="20.75" height="35.03" fill="#fff"/><rect x="671.93" y="44.22" width="20.75" height="35.03" fill="#fff"/><rect x="700.68" y="44.54" width="20.75" height="35.03" fill="#fff"/><rect x="561.44" y="92.74" width="20.75" height="35.03" fill="#fff"/><rect x="589.1" y="92.74" width="20.75" height="35.03" fill="#fff"/><rect x="616.92" y="92.74" width="20.75" height="35.03" fill="#fff"/><rect x="644.73" y="92.74" width="20.75" height="35.03" fill="#fff"/><rect x="671.93" y="92.74" width="20.75" height="35.03" fill="#fff"/><rect x="700.68" y="93.07" width="20.75" height="35.03" fill="#fff"/><rect x="561.44" y="139.74" width="20.75" height="35.03" fill="#fff"/><rect x="589.1" y="139.74" width="20.75" height="35.03" fill="#fff"/><rect x="616.92" y="139.74" width="20.75" height="35.03" fill="#fff"/><rect x="644.73" y="139.74" width="20.75" height="35.03" fill="#fff"/><rect x="671.93" y="139.74" width="20.75" height="35.03" fill="#fff"/><rect x="700.68" y="140.07" width="20.75" height="35.03" fill="#fff"/><rect x="539.04" y="188.69" width="206.78" height="12.36" fill="#231f20" opacity="0.2"/><rect x="557.28" y="223.3" width="167.84" height="73.56" fill="#fff" opacity="0.2"/><rect x="-185.03" y="-0.89" width="724.07" height="299.15" fill="#ccc"/><rect x="265.27" y="129.16" width="20.26" height="228.04" fill="#2f2e41"/><rect x="270.5" y="112.44" width="11.11" height="19.6" fill="#2f2e41"/><rect x="-140.7" y="105.9" width="431.26" height="11.11" fill="#2f2e41"/><polygon points="-155.08 94.8 304.27 95.45 290.55 105.9 -140.7 105.9 -155.08 94.8" fill="#2f2e41"/><polygon points="-155.08 94.8 304.27 95.45 290.55 105.9 -140.7 105.9 -155.08 94.8" opacity="0.2"/><rect x="-110.65" y="135.31" width="371.14" height="158.78" fill="#2f2e41"/><rect x="-92.35" y="150.34" width="330.63" height="130.68" fill="#fff" opacity="0.2"/><rect x="26.97" y="326.49" width="7.92" height="30.8" fill="#2f2e41"/><rect x="123.71" y="326.37" width="7.92" height="30.8" fill="#2f2e41"/><rect x="214.76" y="326.71" width="7.92" height="30.8" fill="#2f2e41"/><path d="M391.11,278.92s78.11-14.08,49.5-90.37c0,0-3.18-10,3.63-23.16,0,0,32.24-49.49,1.36-75.83,0,0-43.83-49.61-113.12.26,0,0-25.32,17.13-20.81,48a52.55,52.55,0,0,0,7.7,20.44c6.23,9.88,19.63,33.9,13.11,48.76,0,0-1.63,3.73-5.27,10.78a50,50,0,0,0-5.67,20.54c-.84,17.24,7,42.33,59.48,42.33A60.39,60.39,0,0,0,391.11,278.92Z" fill="#a7a9ac"/><polygon points="378.82 357.46 382.25 237.88 339.62 191.81 381.76 229.06 385.2 119.77 388.14 184.95 439.11 151.13 387.16 193.28 393.04 357.26 378.82 357.46" fill="#bcbec0"/><rect x="-73.23" y="320.46" width="302.94" height="9.04" fill="#2f2e41"/><rect x="-73.23" y="320.46" width="302.94" height="9.04" opacity="0.2"/><polygon points="228.37 321.13 -71.22 321.8 -69.48 311.73 225.87 311.73 228.37 321.13" fill="#2f2e41"/><path d="M645,254.85l-.09.13a6.71,6.71,0,0,0-1.24,4.19l7.89.38-1.09-1.8Z" fill="#f48225" data-secondary="true"/><path d="M645,253.5v3.84s.76,2.31,5.7,1.32c0,0,4.73-1.43,6.7-2.86l-1.32-3.51-6-1.1Z" fill="#f9b499"/><path d="M644.05,364.14a5.84,5.84,0,0,0-2.35-.31l-5.41-.21-.33,3.47s-2.15,1.82-2.15,4c0,0-4.3.33-3.47,3.3,0,0-.66,2.48,6.61,1.49,0,0,3,.38,4.65-.94a2,2,0,0,1,1.72-.38c.92.19,2.16.22,2.66-.85a1.83,1.83,0,0,0,0-1.45c0-.15-.12-.33-.18-.52a4.69,4.69,0,0,1,.44-3.81c.27-.48.52-1.55.44-3.95A3.35,3.35,0,0,1,644.05,364.14Z" fill="#f48225" data-secondary="true"/><path d="M594.32,355.57s1.09,6.28,2.21,8.23a1.63,1.63,0,0,1-.77,2.32,6.75,6.75,0,0,1-3.16.28s-.05-5-1.74-7.79l-.24-.48A9.75,9.75,0,0,0,594.32,355.57Z" fill="#686175" data-primary="true"/><path d="M612.63,286.22s12.4,6.69,21.85-.77c0,0,.43,13.72,2.3,17.23l.55,5.82a44.44,44.44,0,0,0,19.65-.11s4.17-1.42,5.16.77a131.59,131.59,0,0,0,2.2-15.37L670.49,271a14.56,14.56,0,0,0-12-11l-16.8-1.21s-8.12,2.08-11.86,9.33c0,0-1.86,6-3.84,6.92,0,0-2.08,2.19-1.86,4l-7.91-1.76Z" fill="#f48225" data-secondary="true"/><path d="M563.36,243.22s-5.62,25,.65,42.3l3.63,16.6s1.81,6.69,1.39,11.29a83.21,83.21,0,0,0,.42,14.92l.56,7.4s1.11,10.73,2.51,13.52c0,0,1.11,5.72,2.09,7.25,0,0,.28,8.51,4.18,9.9a9.58,9.58,0,0,0,1.82,2.51s-.42-6,6.13-5.71c0,0,4.6,0,5.86,3.2,0,0-.14-6.13-1.67-7.81s1.39-12-4.33-25c0,0-.69-8.22-1.11-9.06,0,0,.47-5-.67-6.32a1.61,1.61,0,0,1-.44-1,1.7,1.7,0,0,1,.27-1.15,4,4,0,0,0,.81-1.72,11.67,11.67,0,0,0,0-3.51s-1.4-23.84.14-28.17a78.5,78.5,0,0,1,1.53,17.3s-.34,3.11-.36,5.09a8.17,8.17,0,0,1-.33,2.25,2.76,2.76,0,0,0,.27,2.28l.08,1a2.75,2.75,0,0,1-.19,1.17,1.32,1.32,0,0,0,0,1,5.61,5.61,0,0,1,.25,2.95l-1.35,6.54-.06,2.27s1,6.42,1.11,9.06a41.62,41.62,0,0,1,3.76,20.3,13.57,13.57,0,0,0,.33,4.21,8.77,8.77,0,0,0,3.95-3l-.19-3.75a5,5,0,0,1,1.3-3.64c.94-1,2.07-3.16,2.52-7.57,0,0,2.9-11.94,3.6-18.31a5.91,5.91,0,0,1,.73-2.24,2.35,2.35,0,0,0,0-2.62,1.39,1.39,0,0,1,0-1.58,1.79,1.79,0,0,1,.27-.29,2.37,2.37,0,0,0,.52-.66,5.37,5.37,0,0,0,.53-2.66,5,5,0,0,0-.5-1.93,1.47,1.47,0,0,1,.24-1.58,1.87,1.87,0,0,1,.46-.37c.25-.14.71-1.06.52-6a7,7,0,0,1,.23-2.72c.14-.39.28-.77.38-1.16,1-3.93,5.22-22.54,3.57-38.3l-2.36-13.39a5,5,0,0,1-.12-3.84s-1.49,1.69-4.4.63c0,0-2.67-1.37-13.57.24,0,0-12.24,1.86-17.34-1.67,0,0-2.77-2.12-6.66,1.11A1.4,1.4,0,0,1,563.36,243.22Z" fill="#2f2e41"/><path d="M615.8,208.44s.76-13.17-5.5-15.76l-3-1.86v0a19.92,19.92,0,0,0-5.27-2.39l-26-2.68a3.91,3.91,0,0,0-3.84.82s-14-.24-14.88,10c0,0-3.22,14.38-3.22,25.79,0,0-.73,7.12-1.64,11.33a30.52,30.52,0,0,0-.74,6.93,16.19,16.19,0,0,0,.15,2.2.44.44,0,0,0,.63.32,8.51,8.51,0,0,1,7.71,0,1.08,1.08,0,0,0,1.57-1c-.2-2.26-.28-5.65.75-7.23,0,0-2.11,8.56,1.11,8.56a1.5,1.5,0,0,0,.92-.44,6.84,6.84,0,0,1,3.6-1.74h.06a4.41,4.41,0,0,1,3,.64c2.08,1.29,6.93,3,17.34,1.67,0,0,9.83-1.52,13.57-.24a5.69,5.69,0,0,0,2,.3,3.76,3.76,0,0,0,2.44-.93s.07-.47.15-1.31h0c-.09.83-.16,1.31-.16,1.31-.74,1.12.12,3.85.12,3.85s1.6-2.56,6.45-2.78c0,0,3,.32,3.89,1.73C617,245.56,617.31,225.38,615.8,208.44ZM565.13,217v0Zm43.57-25.29.81.51Z" fill="#686175" data-primary="true"/><path d="M585.93,174.05s-1.67,10.4-10.17,11.46a.46.46,0,0,0-.39.55c.39,1.79,2.32,7.9,10.79,9.86a12.39,12.39,0,0,0,9.3-1.41,6.44,6.44,0,0,0,3.32-5S591,189,591.33,177c0,0-2.46.63-2.79-4.79C588.54,172.25,586.92,174.14,585.93,174.05Z" fill="#f9b499"/><path d="M580.61,368.91a6.13,6.13,0,0,0-.73,2.26.77.77,0,0,0,.58.72c1.63.11,6.87.69,10.49,0a1.11,1.11,0,0,0,.88-.79,37.93,37.93,0,0,0,.77-4.66s-.91-3.2-6.53-3.25C586.07,363.15,580.63,362.86,580.61,368.91Z" fill="#686175" data-primary="true"/><path d="M579.88,371.17a3.66,3.66,0,0,0-.78,3.08,1.45,1.45,0,0,0,1.23,1.05,45.24,45.24,0,0,0,11.14-.08.61.61,0,0,0,.41-.23c.33-.44.9-1.63,0-3.93a1.16,1.16,0,0,1-.88.79s-2.63.59-10.53-.11C580.42,371.74,580.06,371.82,579.88,371.17Z" fill="#2f2e41"/><path d="M596.73,364.13a6.22,6.22,0,0,1,.5,3.08,2.06,2.06,0,0,1-1.64,1.72,5,5,0,0,1-3.28-.29l.29-2.24S597.17,367,596.73,364.13Z" fill="#2f2e41"/><path d="M552.22,242.94s1.92,14.66,1.7,19.71a6.18,6.18,0,0,0,.18,2.13,6.49,6.49,0,0,1,.25,2.7c-.28,2.9-.61,8.23.54,10.22,0,0,7,9.14,8.06,6.46h0a1.07,1.07,0,0,0,.8-1.74c-1-1.26-3-4.16-2.32-7.3a6.73,6.73,0,0,0,.32-3.22s.75.11.75,4.3a4.89,4.89,0,0,0,.78,2.46,1.32,1.32,0,0,0,2.35-.68,9.26,9.26,0,0,0-.54-3.61,9.1,9.1,0,0,1-.46-2.49,9.68,9.68,0,0,0-.68-3.41c-.71-1.68-1.78-3.91-2.84-4.85,0,0-1.19-13.44-.22-20.76a.79.79,0,0,1-1,.09A8.51,8.51,0,0,0,552.22,242.94Z" fill="#f9b499"/><path d="M607.36,245.33s1,6.68,2,12.88c0,0,.68,5.65-.67,7.9a15.75,15.75,0,0,0-2.83,8s-.9,5.3-1.69,6.32c0,0,1.36,1.35,2.37-.79,0,0,.34-4.63,1-6,0,0,2.93,2.59,2.14,8,0,0-1.47,1.57-3,1.2a1,1,0,0,0-1.14.53c-.21.51,0,1.21,1.89,1.88a2.31,2.31,0,0,0,2.83.57s2.14.34,2.93-.11l.72-.87a4.72,4.72,0,0,1,1.93-1.36,2,2,0,0,0,1.3-1.5,14.93,14.93,0,0,0-1.24-5.76l-.34-13.2,1.14-17.8S613.15,241.49,607.36,245.33Z" fill="#f9b499"/><path d="M645,254.85s-3.25,1.72-4.13,4.58c0,0,2.09-.11,2.42,1.1a2.33,2.33,0,0,0,.56,1.39,4.37,4.37,0,0,1,.87,1.58,2.87,2.87,0,0,0,1.42,1.75,6.15,6.15,0,0,0,0-1,6.33,6.33,0,0,0-1.27-3.1A5.19,5.19,0,0,1,645,254.85Z" fill="#f48225" data-secondary="true"/><path d="M645,254.85s-3.25,1.72-4.13,4.58c0,0,2.09-.11,2.42,1.1a2.33,2.33,0,0,0,.56,1.39,4.37,4.37,0,0,1,.87,1.58,2.87,2.87,0,0,0,1.42,1.75,6.15,6.15,0,0,0,0-1,6.33,6.33,0,0,0-1.27-3.1A5.19,5.19,0,0,1,645,254.85Z" fill="#fff" opacity="0.1"/><path d="M646.11,265.25s1.65-5.27,5.6-5.6l1.54,2.63A14,14,0,0,0,646.11,265.25Z" fill="#f48225" data-secondary="true"/><path d="M646.11,265.25s1.65-5.27,5.6-5.6l1.54,2.63A14,14,0,0,0,646.11,265.25Z" fill="#fff" opacity="0.1"/><path d="M657.09,262.28s-.33,1.21-3.84,0l-2.53-3.62a36.06,36.06,0,0,0,5.85-2.42,1.55,1.55,0,0,0,1.18.55,1.66,1.66,0,0,1,1,1.87A14.62,14.62,0,0,1,657.09,262.28Z" fill="#f48225" data-secondary="true"/><path d="M657.09,262.28s-.33,1.21-3.84,0l-2.53-3.62a36.06,36.06,0,0,0,5.85-2.42,1.55,1.55,0,0,0,1.18.55,1.66,1.66,0,0,1,1,1.87A14.62,14.62,0,0,1,657.09,262.28Z" fill="#231f20" opacity="0.2"/><path d="M637.33,308.5s.77,1.08-.38,3.56h0a13.23,13.23,0,0,0-.19,4.82,42.8,42.8,0,0,1,.43,4.37,62,62,0,0,0,.81,8.94,7.6,7.6,0,0,1-.31,4.57,5.24,5.24,0,0,1-.58,1.1s-.66,1-.33,5.61h0l.14,13a5.25,5.25,0,0,1-.87,3,4.47,4.47,0,0,0-.76,2.82l.17,3.47H641a14.73,14.73,0,0,1,3.1.35,3.93,3.93,0,0,0,2.65-.19h0l.86-2.27a1.64,1.64,0,0,0-.68-2l-.06,0a1.77,1.77,0,0,1-.8-2,19.54,19.54,0,0,0,.57-2.8,4.63,4.63,0,0,1,.7-1.94c.83-1.29,2.17-4.21,1.23-8.82h0s.16-3.14.82-3.64h0a30.18,30.18,0,0,0,1.49-13.71h0s0-2.15,1.16-2.15h0a13.79,13.79,0,0,0,.33,3.57,26.44,26.44,0,0,1,.91,6.74l0,2.32a13.18,13.18,0,0,1-.52,4.05,8.24,8.24,0,0,0,.57,5.46h0s.19,2.19.54,4.36a12.58,12.58,0,0,1-1,7.08,2.31,2.31,0,0,0-.22,1.12l.82,2.69h0l9.42,2.6h0s3.64-3.8,1-8.26h0a2.65,2.65,0,0,1,.21-1.6,8,8,0,0,0,1-2.66,56.54,56.54,0,0,0,.23-18.55h0a18.07,18.07,0,0,0-.24-5.53,8.45,8.45,0,0,1,1.15-5.92,3.71,3.71,0,0,0,.58-1.93s.65-5.8-4.72-11h0s-1-2.45-5.16-.77h0a45.46,45.46,0,0,1-19.65.11Z" fill="#2f2e41"/><path d="M653.67,366.13s-1.63-2.75.07-4.39c0,0-1.57-4.39,3.73-3.14,0,0,4.58.95,5.39,5.48a4.94,4.94,0,0,1-.24,2.47,2.24,2.24,0,0,0-.1,1.16,15.67,15.67,0,0,1,.73,3.79,3.33,3.33,0,0,1-2.37,3.34,9.58,9.58,0,0,1-7.8-.78s-2.17-1.43-.36-3a2.1,2.1,0,0,0,.71-1.65A14.9,14.9,0,0,1,653.67,366.13Z" fill="#f48225" data-secondary="true"/><path d="M661.9,311.4s-.7.62-.49,3.82a2.78,2.78,0,0,1-.57,1.91h0a.59.59,0,0,0,.32.94c.82.19,2-.23,1.68-4.25,0,0,1.33.89,1,5.23,0,0-.67,2.11.78,2.11,0,0,1.45.67,1.22-5.23,0,0,.12,2.78,1.56,2.34,0,0,1.23.11.78-1.89,0,0,1.3,1.66,1.37-4.51A14.84,14.84,0,0,1,661.9,311.4Z" fill="#f9b499"/><path d="M610.21,278.44H610l.12.49h.66a.83.83,0,0,1,.83.83h0a.82.82,0,0,1-.85.82h-.17a.87.87,0,0,0-.86,1.12h0a3.38,3.38,0,0,1-3,1.2s-.63-1.12.12-1.74c0,0-.56-1.17-.07-1.73,0,0-.31-2.05.44-2.17a3,3,0,0,1,0-2.23l1.23,0a1.33,1.33,0,0,1,1.31,1.46h0l.62,0a1,1,0,0,1,.87,1h0A1,1,0,0,1,610.21,278.44Z" fill="#f7aa92"/><path d="M587.83,173s1.33,16.46,10.85,17.22l.06-2.84-9.08-14.63-1.14-.17Z" fill="#f7aa92"/><ellipse cx="601.62" cy="174.76" rx="15.08" ry="9.91" transform="matrix(0.26, -0.97, 0.97, 0.26, 277.37, 710.81)" fill="#f9b499"/><path d="M602.9,171.46s5.88.1,10-2.13a3.43,3.43,0,0,0,1.48-4.31,13.48,13.48,0,0,0-6.05-6.85,3.7,3.7,0,0,1-1.24-1c-1.19-1.59-4.62-5.39-9.67-4.43a3.59,3.59,0,0,1-3.4-1.24c-.78-1-2.12-1.67-4.26-.59a3.82,3.82,0,0,1-2.32.38c-1.51-.25-4.16.19-5.64,5.54,0,0-2.21,5.18-1.79,8.69a4.14,4.14,0,0,1-.69,2.73c-1,1.58-2.16,4.18.32,5.7v0a1.74,1.74,0,0,1,2.27-2.22,7,7,0,0,1,2.74,1.75,1.88,1.88,0,0,0,2.58.2l1.34-1.06s.19-5,3-4.39a3.24,3.24,0,0,1,1.15,1.58S596.14,173,602.9,171.46Z" fill="#2f2e41"/><path d="M603.69,169.16a8.74,8.74,0,0,1-.94,4,7,7,0,0,1-1.23,1.69,6.26,6.26,0,0,1-1.72,1.2,7.33,7.33,0,0,1-2,.6,7.2,7.2,0,0,1-1,.11,4.67,4.67,0,0,0-1,.18,3.2,3.2,0,0,0-.9.42,2.34,2.34,0,0,0-.71.69,1.49,1.49,0,0,0-.19.45,1.67,1.67,0,0,0,0,.5,2.46,2.46,0,0,0,.36.95,2.37,2.37,0,0,1-.43-.94,1.89,1.89,0,0,1,0-.53,1.66,1.66,0,0,1,.18-.5,2.34,2.34,0,0,1,.73-.77,3.5,3.5,0,0,1,.94-.49,4,4,0,0,1,1-.2c.34,0,.68-.06,1-.13a7,7,0,0,0,1.92-.6,6,6,0,0,0,1.65-1.13,7.12,7.12,0,0,0,1.22-1.61,8.35,8.35,0,0,0,.77-1.88A9.13,9.13,0,0,0,603.69,169.16Z" fill="#2f2e41"/><ellipse cx="590.96" cy="172.54" rx="2.45" ry="4.53" fill="#f9b499"/><path d="M600.5,171.6a6.79,6.79,0,0,0-2.47,4.81c0,.23,0,.46,0,.69l.05.69c.08.46.17.9.27,1.38a6.61,6.61,0,0,1-.12,2.83,6.2,6.2,0,0,1-1.32,2.51,5.77,5.77,0,0,1-2.35,1.6,4.75,4.75,0,0,0-.64.24,2.26,2.26,0,0,0-1.15,1.52,2.07,2.07,0,0,0,.19,1.29,3.36,3.36,0,0,0,.83,1.05h0a5.51,5.51,0,0,1,1.5,1.86,3.54,3.54,0,0,1,.29,2.35,4.56,4.56,0,0,1-1.18,2,9.28,9.28,0,0,1-1.83,1.48,10.41,10.41,0,0,0,1.77-1.54,4.66,4.66,0,0,0,1.09-2,3.37,3.37,0,0,0-.32-2.23,5.39,5.39,0,0,0-1.47-1.75h0a3.66,3.66,0,0,1-.9-1.13,2.39,2.39,0,0,1-.23-1.44,2.43,2.43,0,0,1,.69-1.29,2.53,2.53,0,0,1,.6-.43,5.22,5.22,0,0,1,.67-.27,5.63,5.63,0,0,0,2.24-1.51,6.13,6.13,0,0,0,1.28-2.4,6.61,6.61,0,0,0,.14-2.73c-.08-.44-.17-.92-.24-1.38l0-.71c0-.24,0-.47,0-.71a6.74,6.74,0,0,1,2.65-4.8Z" fill="#2f2e41"/><path d="M615.93,209.36c0-.25,0-.5,0-.74.12-14.55-5.61-15.94-5.61-15.94-3.12,2.88-3.88,19.59-3.88,19.59l.25,30.35a2.22,2.22,0,0,0-.41,1.57,7.52,7.52,0,0,0,.39,2.42l.09-.11c6.42-4.79,10.25-.94,10.25-.94C617.64,238.63,616.14,212.73,615.93,209.36Z" opacity="0.2"/><path d="M551.94,236.86a28.17,28.17,0,0,0-.07,6s0,.52.63.32a8.36,8.36,0,0,1,4.78-.88,9,9,0,0,1,3.06,1,1.15,1.15,0,0,0,1.44-1.16,22.11,22.11,0,0,1,.25-6.08,22.43,22.43,0,0,0,.74-3.89c.9-9.79,4.29-42.49,9.43-45.6,0,0-13.73-.47-14.88,10,0,0-3.18,14.45-3.23,24.77a18.36,18.36,0,0,1-.13,2.22c-.31,2.63-1.06,8.71-1.5,10.13Z" fill="#686175" data-primary="true"/><path d="M551.94,236.86a28.17,28.17,0,0,0-.07,6s0,.52.63.32a8.36,8.36,0,0,1,4.78-.88,9,9,0,0,1,3.06,1,1.15,1.15,0,0,0,1.44-1.16,22.11,22.11,0,0,1,.25-6.08,22.43,22.43,0,0,0,.74-3.89c.9-9.79,4.29-42.49,9.43-45.6,0,0-13.73-.47-14.88,10,0,0-3.18,14.45-3.23,24.77a18.36,18.36,0,0,1-.13,2.22c-.31,2.63-1.06,8.71-1.5,10.13Z" opacity="0.2"/><path d="M586.71,333.88s3.47,6.16,4,24.26a9.6,9.6,0,0,0,2.09-1.21S591.47,338.78,586.71,333.88Z" fill="#2f2e41"/><path d="M586.71,333.88s3.47,6.16,4,24.26a9.6,9.6,0,0,0,2.09-1.21S591.47,338.78,586.71,333.88Z" fill="#231f20" opacity="0.1"/><path d="M672.43,273.33c-1.2-1.74-2.23-4.23-4.34-4.07a7.36,7.36,0,0,0-6.35,8.59c1.32,9.09,3.14,13,3.14,13l-2.81,19-.17,1.49a11.77,11.77,0,0,0,7.65.47,1.63,1.63,0,0,0,1.24-1.39l.44-3.63a12.51,12.51,0,0,1,.25-1.36,51.23,51.23,0,0,0,1-5.11,13.53,13.53,0,0,1,.58-2.42,28.15,28.15,0,0,0,1.07-10C673.85,281.34,675.78,278.18,672.43,273.33Z" fill="#f48225" data-secondary="true"/><path d="M672.43,273.33c-1.2-1.74-2.23-4.23-4.34-4.07a7.36,7.36,0,0,0-6.35,8.59c1.32,9.09,3.14,13,3.14,13l-2.81,19-.17,1.49a11.77,11.77,0,0,0,7.65.47,1.63,1.63,0,0,0,1.24-1.39l.44-3.63a12.51,12.51,0,0,1,.25-1.36,51.23,51.23,0,0,0,1-5.11,13.53,13.53,0,0,1,.58-2.42,28.15,28.15,0,0,0,1.07-10C673.85,281.34,675.78,278.18,672.43,273.33Z" fill="#231f20" opacity="0.1"/><path d="M645,255.32l0-1.46s6.84-.81,8.29-1.79C653.33,252.07,651,255.82,645,255.32Z" fill="#f7aa92"/><ellipse cx="649.72" cy="244.42" rx="11.24" ry="7.97" transform="translate(72.64 630.24) rotate(-54.38)" fill="#f9b499"/><path d="M646.11,234.84s-1,2.85,2,3.07a2.48,2.48,0,0,1,1.1-2.09s1.64-.33,1.42,1.76c0,0,2.2,4.06,4.4,4.83a1.24,1.24,0,0,1-.55,1.76s-1.32,1.86-.77,3.07c0,0-2.31,3.29-.66,5a14.46,14.46,0,0,0,3.73-4.17l2.2,3.07s.77,2.2-2.86,3.08c0,0-1.09,2.08,1.65,2.52a1.77,1.77,0,0,1,1,1.87c.11.55-.11,1.76,3.18,1,0,0,6.37-4.61,8-11.53a10.7,10.7,0,0,0-3.3-10.76S660,228.25,650,231.43A7,7,0,0,0,646.11,234.84Z" fill="#2f2e41"/><ellipse cx="656.86" cy="251.03" rx="3.88" ry="2.69" transform="matrix(0.8, -0.6, 0.6, 0.8, -20.34, 440.46)" fill="#f9b499"/></g><rect x="787.77" y="160.05" width="5.67" height="164.23" fill="#bcbec0"/><path d="M809.53,336.51H771.25v-.76a4.28,4.28,0,0,1,.17-1.19h-4.59l1.41,3.62,41.34,0h1.55l1.36-3.54h-3.12a4.37,4.37,0,0,1,.16,1.15Z" fill="#e6e7e8"/><polygon points="768.91 63.93 767.56 63.96 760.51 64.09 765.69 72.63 770.1 79.9 768.91 63.93" fill="#2f2e41"/><polygon points="810.85 63.98 808.01 63.93 807.13 81.88 812.73 72.66 817.9 64.12 810.85 63.98" fill="#2f2e41"/><g opacity="0.2"><polygon points="768.91 63.93 767.56 63.96 760.51 64.09 765.69 72.63 770.1 79.9 768.91 63.93"/><polygon points="810.85 63.98 808.01 63.93 807.13 81.88 812.73 72.66 817.9 64.12 810.85 63.98"/></g><polygon points="771.03 92.3 769.24 92.33 762.19 92.47 767.37 101 772.28 109.11 771.03 92.3" fill="#2f2e41"/><polygon points="809.18 92.35 806.62 92.3 805.76 109.75 811.05 101.02 816.23 92.49 809.18 92.35" fill="#2f2e41"/><g opacity="0.2"><polygon points="771.03 92.3 769.24 92.33 762.19 92.47 767.37 101 772.28 109.11 771.03 92.3"/><polygon points="809.18 92.35 806.62 92.3 805.76 109.75 811.05 101.02 816.23 92.49 809.18 92.35"/></g><polygon points="773.14 120.67 770.91 120.71 763.86 120.85 769.04 129.38 774.46 138.31 773.14 120.67" fill="#2f2e41"/><polygon points="807.5 120.71 805.22 120.67 804.38 137.61 809.38 129.38 814.55 120.85 807.5 120.71" fill="#2f2e41"/><g opacity="0.2"><polygon points="773.14 120.67 770.91 120.71 763.86 120.85 769.04 129.38 774.46 138.31 773.14 120.67"/><polygon points="807.5 120.71 805.22 120.67 804.38 137.61 809.38 129.38 814.55 120.85 807.5 120.71"/></g><path d="M782.62,152v2.44a2.43,2.43,0,0,0,.22,1,2.53,2.53,0,0,0,1.43,1.31v1.58a1.65,1.65,0,0,0,.49,1.18,1.76,1.76,0,0,0,1.27.53h7.91a1.75,1.75,0,0,0,1.77-1.71v-1.62a2.52,2.52,0,0,0,1.52-2.27v-2.64Z" fill="#2f2e41"/><path d="M806.61,92.3l.52-10.42L808,63.93l.3-6-.09.06-39.73.72.42,5.7,1.19,16L771,92.72l1.25,16.81.86,11.55,1.32,17.64.62,8.26,28.9-1.21.4-8.16.84-16.94.54-10.93Zm-6.42,42.51a10.52,10.52,0,0,1-.85,1.87A10.83,10.83,0,0,1,790,142a10.61,10.61,0,0,1-10.78-10.43A10.4,10.4,0,0,1,785,122.3a11.09,11.09,0,0,1,5-1.18,11.26,11.26,0,0,1,3.25.48,10.49,10.49,0,0,1,7.53,9.94A10.15,10.15,0,0,1,800.19,134.81Zm.69-26.25a11.53,11.53,0,0,1-.94,2,11.85,11.85,0,0,1-10.25,5.78A11.6,11.6,0,0,1,777.9,105a11.37,11.37,0,0,1,6.33-10.1,12.13,12.13,0,0,1,5.46-1.29,11.92,11.92,0,0,1,3.55.53A11.44,11.44,0,0,1,801.47,105,11.09,11.09,0,0,1,800.88,108.56Zm.83-27.69a12.4,12.4,0,0,1-1,2.25,13,13,0,0,1-11.3,6.38,12.79,12.79,0,0,1-13-12.57,12.52,12.52,0,0,1,7-11.13,13.28,13.28,0,0,1,6-1.43,13.66,13.66,0,0,1,3.92.58,12.63,12.63,0,0,1,9.07,12A12.24,12.24,0,0,1,801.71,80.87Z" fill="#2f2e41"/><path d="M793.29,65a13.66,13.66,0,0,0-3.92-.58,13.28,13.28,0,0,0-6,1.43,12.52,12.52,0,0,0-7,11.13,12.79,12.79,0,0,0,13,12.57,13,13,0,0,0,11.3-6.38,12.4,12.4,0,0,0,1-2.25,12.24,12.24,0,0,0,.65-3.94A12.63,12.63,0,0,0,793.29,65Zm6.6,15.18a10.69,10.69,0,0,1-1.35,2.73,11.12,11.12,0,0,1-9.17,4.74,10.85,10.85,0,0,1-11-10.67A10.53,10.53,0,0,1,783,68.22a11.27,11.27,0,0,1,9.49-1.5,10.72,10.72,0,0,1,7.87,10.21A10.26,10.26,0,0,1,799.89,80.13Z" fill="#2f2e41"/><path d="M793.29,65a13.66,13.66,0,0,0-3.92-.58,13.28,13.28,0,0,0-6,1.43,12.52,12.52,0,0,0-7,11.13,12.79,12.79,0,0,0,13,12.57,13,13,0,0,0,11.3-6.38,12.4,12.4,0,0,0,1-2.25,12.24,12.24,0,0,0,.65-3.94A12.63,12.63,0,0,0,793.29,65Zm6.6,15.18a10.69,10.69,0,0,1-1.35,2.73,11.12,11.12,0,0,1-9.17,4.74,10.85,10.85,0,0,1-11-10.67A10.53,10.53,0,0,1,783,68.22a11.27,11.27,0,0,1,9.49-1.5,10.72,10.72,0,0,1,7.87,10.21A10.26,10.26,0,0,1,799.89,80.13Z" opacity="0.2"/><path d="M792.52,66.72a11.27,11.27,0,0,0-9.49,1.5,10.53,10.53,0,0,0-4.68,8.71,10.85,10.85,0,0,0,11,10.67,11.12,11.12,0,0,0,9.17-4.74,10.69,10.69,0,0,0,1.35-2.73,10.26,10.26,0,0,0,.5-3.2A10.72,10.72,0,0,0,792.52,66.72Z" fill="#fe4f4a"/><path d="M793.24,94.13a11.92,11.92,0,0,0-3.55-.53,12.13,12.13,0,0,0-5.46,1.29A11.37,11.37,0,0,0,777.9,105a11.6,11.6,0,0,0,11.79,11.4,11.85,11.85,0,0,0,10.25-5.78,11.53,11.53,0,0,0,.94-2,11.09,11.09,0,0,0,.59-3.57A11.44,11.44,0,0,0,793.24,94.13Zm6,13.77a9.83,9.83,0,0,1-1.23,2.47,10.08,10.08,0,0,1-8.31,4.3,9.84,9.84,0,0,1-10-9.68,9.6,9.6,0,0,1,4.24-7.91,10.26,10.26,0,0,1,5.76-1.76,10,10,0,0,1,2.86.41,9.55,9.55,0,0,1,6.68,12.17Z" fill="#2f2e41"/><path d="M793.24,94.13a11.92,11.92,0,0,0-3.55-.53,12.13,12.13,0,0,0-5.46,1.29A11.37,11.37,0,0,0,777.9,105a11.6,11.6,0,0,0,11.79,11.4,11.85,11.85,0,0,0,10.25-5.78,11.53,11.53,0,0,0,.94-2,11.09,11.09,0,0,0,.59-3.57A11.44,11.44,0,0,0,793.24,94.13Zm6,13.77a9.83,9.83,0,0,1-1.23,2.47,10.08,10.08,0,0,1-8.31,4.3,9.84,9.84,0,0,1-10-9.68,9.6,9.6,0,0,1,4.24-7.91,10.26,10.26,0,0,1,5.76-1.76,10,10,0,0,1,2.86.41,9.55,9.55,0,0,1,6.68,12.17Z" opacity="0.2"/><path d="M792.54,95.73a9.92,9.92,0,0,0-2.85-.41,10.26,10.26,0,0,0-5.76,1.76,9.6,9.6,0,0,0-4.24,7.91,9.84,9.84,0,0,0,10,9.68,10.08,10.08,0,0,0,8.31-4.3,9.83,9.83,0,0,0,1.23-2.47,9.55,9.55,0,0,0-6.69-12.17Z" fill="#f9e014"/><path d="M793.21,121.6a11.26,11.26,0,0,0-3.25-.48,11.09,11.09,0,0,0-5,1.18,10.4,10.4,0,0,0-5.79,9.24A10.61,10.61,0,0,0,790,142a10.83,10.83,0,0,0,9.38-5.29,10.52,10.52,0,0,0,.85-1.87,10.15,10.15,0,0,0,.55-3.27A10.49,10.49,0,0,0,793.21,121.6Zm5.48,12.6a8.86,8.86,0,0,1-1.13,2.26,9.21,9.21,0,0,1-7.6,3.93,9,9,0,0,1-9.15-8.85,8.75,8.75,0,0,1,3.89-7.23A9.24,9.24,0,0,1,790,122.7a9.35,9.35,0,0,1,2.61.37,8.89,8.89,0,0,1,6.54,8.47A8.66,8.66,0,0,1,798.69,134.2Z" fill="#2f2e41"/><path d="M793.21,121.6a11.26,11.26,0,0,0-3.25-.48,11.09,11.09,0,0,0-5,1.18,10.4,10.4,0,0,0-5.79,9.24A10.61,10.61,0,0,0,790,142a10.83,10.83,0,0,0,9.38-5.29,10.52,10.52,0,0,0,.85-1.87,10.15,10.15,0,0,0,.55-3.27A10.49,10.49,0,0,0,793.21,121.6Zm5.48,12.6a8.86,8.86,0,0,1-1.13,2.26,9.21,9.21,0,0,1-7.6,3.93,9,9,0,0,1-9.15-8.85,8.75,8.75,0,0,1,3.89-7.23A9.24,9.24,0,0,1,790,122.7a9.35,9.35,0,0,1,2.61.37,8.89,8.89,0,0,1,6.54,8.47A8.66,8.66,0,0,1,798.69,134.2Z" opacity="0.2"/><path d="M792.57,123.06a9.73,9.73,0,0,0-2.61-.36,9.24,9.24,0,0,0-5.26,1.61,8.75,8.75,0,0,0-3.89,7.23,9,9,0,0,0,9.15,8.85,9.21,9.21,0,0,0,7.6-3.93,8.86,8.86,0,0,0,1.13-2.26,8.66,8.66,0,0,0,.42-2.66A8.91,8.91,0,0,0,792.57,123.06Z" fill="#a3dc7e"/><polygon points="808.31 57.88 811.6 55.51 764.79 56.57 768.48 58.66 768.49 58.66 808.22 57.94 808.31 57.88" fill="#2f2e41"/><polygon points="808.31 57.88 811.6 55.51 764.79 56.57 768.48 58.66 768.49 58.66 808.22 57.94 808.31 57.88" opacity="0.2"/><polygon points="775.08 146.99 772.56 149.42 806.18 148.2 803.98 145.77 775.08 146.99" fill="#2f2e41"/><polygon points="775.08 146.99 772.56 149.42 806.18 148.2 803.98 145.77 775.08 146.99" opacity="0.2"/><polygon points="772.56 149.42 772.72 152.15 782.62 152.01 797.23 151.81 805.55 151.69 806.18 148.2 772.56 149.42" fill="#2f2e41"/><polygon points="810.89 52.88 765.44 53.89 764.63 56.57 811.52 55.51 810.89 52.88" fill="#2f2e41"/><path d="M794.07,322.32h-7.36a2.46,2.46,0,0,0-2.06,1.11,2.31,2.31,0,0,0-.39,1.26v2.08h12.26v-2.08A2.42,2.42,0,0,0,794.07,322.32Z" fill="#2f2e41"/><path d="M779.47,328.34A3.19,3.19,0,0,0,779,330v1.48h-3.48a4.26,4.26,0,0,0-4.26,4.26v.76h38.28v-.76a4.37,4.37,0,0,0-.16-1.15,4.26,4.26,0,0,0-4.1-3.11h-3.48V330a3.29,3.29,0,0,0-3.34-3.24H782.33a3.37,3.37,0,0,0-2.86,1.57" fill="#2f2e41"/><path d="M811,338.15h-1.38l-41.34,0-1.57,3.11,45.64.16-1.18-3.3Z" fill="#d1d3d4"/><g opacity="0.2"><path d="M774.55,75.77s11.63-8.51,28.7-2.53c-4.19-7.5-5-10.64-15.82-10.44S774.55,75.77,774.55,75.77Z" fill="#2f2e41"/></g><path d="M804.73,76.68h-1.49a14,14,0,0,0-27.94,0h-1.49a15.47,15.47,0,0,1,30.92,0Z" fill="#fff"/><g opacity="0.2"><path d="M776.44,103.74s10.51-7.69,25.94-2.29c-3.79-6.78-4.55-9.61-14.3-9.43S776.44,103.74,776.44,103.74Z" fill="#2f2e41"/></g><path d="M803.71,104.56h-1.34a12.64,12.64,0,0,0-25.26,0h-1.35a14,14,0,0,1,28,0Z" fill="#fff"/><g opacity="0.2"><path d="M777.59,130.72s9.8-7.18,24.2-2.14c-3.53-6.32-4.24-9-13.34-8.8S777.59,130.72,777.59,130.72Z" fill="#2f2e41"/></g><path d="M803,131.49h-1.26a11.79,11.79,0,0,0-23.56,0H777a13,13,0,0,1,26.08,0Z" fill="#fff"/></svg>