<svg id="b81ea4c9-e495-4afc-bac1-3a66839e7b5e" data-name="Layer 1" xmlns="http://www.w3.org/2000/svg" width="865.76" height="682.89" viewBox="0 0 865.76 682.89"><path d="M515.3,604.5H499.85l2.21-350.64H453.62v345a16.15,16.15,0,0,0,.46,3.77l-73.37,31v10.49l88,6.84,50.11-22-3.5-24.47" fill="#f48225" data-secondary="true"/><path d="M585.6,81.18V239a9.86,9.86,0,0,1-7.64,9.62,269.47,269.47,0,0,1-28.8,4.94,268.71,268.71,0,0,1-43.09,1.49,14,14,0,0,0,14-14V52.29a14,14,0,0,0-8.44-12.88A170.07,170.07,0,0,1,581.93,73.5,9.9,9.9,0,0,1,585.6,81.18Z" fill="#f48225" data-secondary="true"/><path d="M585.6,81.18V239a9.86,9.86,0,0,1-7.64,9.62,269.47,269.47,0,0,1-28.8,4.94,268.71,268.71,0,0,1-43.09,1.49,14,14,0,0,0,14-14V52.29a14,14,0,0,0-8.44-12.88A170.07,170.07,0,0,1,581.93,73.5,9.9,9.9,0,0,1,585.6,81.18Z" opacity="0.2"/><polygon points="515.3 604.5 462.86 640.04 380.71 633.63 380.71 644.12 468.69 650.96 518.8 628.97 515.3 604.5" opacity="0.2"/><path d="M531.33,226.05V77.9s-2.18-8.3,8.3-6.55c0,0,21.08,6.14,29.93,13.89a11,11,0,0,1,3.72,8.3v126s2.63,15.3-9.61,14.86C563.67,234.35,531.33,235.66,531.33,226.05Z" fill="#fff" opacity="0.1"/><rect x="274.76" y="79.24" width="1.02" height="11.08" transform="translate(14.74 207.58) rotate(-42.35)" fill="#fff"/><path d="M267.59,82.53a7.07,7.07,0,1,1,7.07-7.07A7.08,7.08,0,0,1,267.59,82.53Zm0-13.12a6.05,6.05,0,1,0,6.05,6A6.06,6.06,0,0,0,267.59,69.41Z" fill="#fff"/><circle cx="762.07" cy="150.04" r="54.87" transform="translate(491.87 878.22) rotate(-80.78)" fill="#e0e0e0"/><path d="M762.19,206.11a56.11,56.11,0,0,1,0-112.21v2.47a53.64,53.64,0,0,0,0,107.27Z" fill="#fff"/><path d="M762.19,206.11v-2.47a53.64,53.64,0,0,0,2-107.27q-1,0-2,0V93.9a56.11,56.11,0,1,1,2,112.21Z" fill="#fff"/><path d="M790.87,150H788.4c0-18.18-9.15-42.52-26.87-53.83l1.34-2.09C781.24,106,790.87,131.17,790.87,150Z" fill="#fff"/><path d="M762.87,204.26l-1.34-2.08c17.64-11.31,26.87-35.65,26.87-53.83h2.47C790.87,167.2,781.24,192.46,762.87,204.26Z" fill="#fff"/><path d="M736,150h-2.47c0-18.87,9.61-44.13,28-55.92l1.34,2.07C745.22,107.5,736,131.82,736,150Z" fill="#fff"/><path d="M761.53,204.25c-18.39-11.81-28-37.07-28-55.92H736c0,18.2,9.15,42.52,26.87,53.83Z" fill="#fff"/><rect x="760.96" y="95.13" width="2.47" height="109.74" fill="#fff"/><rect x="715.76" y="119.54" width="92.9" height="2.47" fill="#fff"/><rect x="707.36" y="149.71" width="109.7" height="2.47" fill="#fff"/><rect x="716.98" y="179.85" width="90.43" height="2.47" fill="#fff"/><g id="bdd87b19-6d5a-456d-a851-4bb61b6a80c9" data-name="freepik--Number--inject-12"><path d="M159.38,54.9h10.49v8.78H158.34l-1.61,12.81h-9.15l1.61-12.81H137.35l-1.62,12.81h-9l1.61-12.81H117.82V54.9h11.6l1.68-13H120.56V33.06h11.61l1.61-12.81h9l-1.61,12.81H153l1.61-12.81h9L162,33.06H172.5v8.79H160.9Zm-9.15,0,1.68-13H140.2l-1.83,13Z" fill="#ccc"/><path d="M199.1,20.16V76.57h-13V30.65H174.77V20.16Z" fill="#ccc"/></g><path d="M91.62,207.79a38.92,38.92,0,1,0,38.91,38.91,38.91,38.91,0,0,0-38.91-38.91Zm0,62.38A23.41,23.41,0,1,1,115,246.76v0a23.37,23.37,0,0,1-23.37,23.38Z" fill="none" stroke="#ccc" stroke-miterlimit="10" stroke-width="3"/><path d="M113.11,279.3l-9.22-12.63a23.15,23.15,0,0,1-12.27,3.5,23.4,23.4,0,0,1,0-46.78,23,23,0,0,1,12,3.26l8.14-13.29a38.91,38.91,0,1,0,1.5,65.85Z" fill="#ccc"/><path d="M91.62,314.26a38.92,38.92,0,1,0,38.91,38.92,38.92,38.92,0,0,0-38.91-38.92Zm0,62.35a16.69,16.69,0,1,1,.12.09h-.12Z" fill="none" stroke="#ccc" stroke-miterlimit="10" stroke-width="3"/><path d="M115,353.33A23.38,23.38,0,0,1,79.85,373.5L73.3,387.72a38.91,38.91,0,0,0,57.29-34.39,38,38,0,0,0-.66-7l-15.62.84A24,24,0,0,1,115,353.33Z" fill="#ccc"/><rect x="46.45" y="443.43" width="13.98" height="36.49" fill="#ccc"/><rect x="73.39" y="445.97" width="13.98" height="33.91" fill="#ccc"/><rect x="100.33" y="429.12" width="13.98" height="50.77" fill="#ccc"/><rect x="127.27" y="410.74" width="13.98" height="69.15" fill="#ccc"/><polygon points="585.6 288.37 585.6 282.22 559.1 282.22 559.1 288.37 559.1 292.52 559.1 325.38 614.88 325.38 614.88 288.37 585.6 288.37" fill="none" stroke="#ccc" stroke-miterlimit="10" stroke-width="3"/><polygon points="654.58 288.37 654.58 282.22 628.09 282.22 628.09 288.37 628.09 292.52 628.09 325.38 683.89 325.38 683.89 288.37 654.58 288.37" fill="none" stroke="#ccc" stroke-miterlimit="10" stroke-width="3"/><polygon points="585.6 350.03 585.6 343.85 559.1 343.85 559.1 350.03 559.1 354.17 559.1 387.03 614.88 387.03 614.88 350.03 585.6 350.03" fill="none" stroke="#ccc" stroke-miterlimit="10" stroke-width="3"/><polygon points="654.58 350.03 654.58 343.85 628.09 343.85 628.09 350.03 628.09 354.17 628.09 387.03 683.89 387.03 683.89 350.03 654.58 350.03" fill="none" stroke="#ccc" stroke-miterlimit="10" stroke-width="3"/><polygon points="585.6 411.69 585.6 405.51 559.1 405.51 559.1 411.69 559.1 415.83 559.1 448.69 614.88 448.69 614.88 411.69 585.6 411.69" fill="none" stroke="#ccc" stroke-miterlimit="10" stroke-width="3"/><polygon points="654.58 411.69 654.58 405.51 628.09 405.51 628.09 411.69 628.09 415.83 628.09 448.69 683.89 448.69 683.89 411.69 654.58 411.69" fill="#ccc"/><polygon points="585.6 473.34 585.6 467.17 559.1 467.17 559.1 473.34 559.1 477.49 559.1 510.35 614.88 510.35 614.88 473.34 585.6 473.34" fill="none" stroke="#ccc" stroke-miterlimit="10" stroke-width="3"/><polygon points="654.58 473.34 654.58 467.17 628.09 467.17 628.09 473.34 628.09 477.49 628.09 510.35 683.89 510.35 683.89 473.34 654.58 473.34" fill="none" stroke="#ccc" stroke-miterlimit="10" stroke-width="3"/><polygon points="585.6 535 585.6 528.82 559.1 528.82 559.1 535 559.1 539.14 559.1 571.98 614.88 571.98 614.88 535 585.6 535" fill="none" stroke="#ccc" stroke-miterlimit="10" stroke-width="3"/><polygon points="654.58 535 654.58 528.82 628.09 528.82 628.09 535 628.09 539.14 628.09 571.98 683.89 571.98 683.89 535 654.58 535" fill="none" stroke="#ccc" stroke-miterlimit="10" stroke-width="3"/><polygon points="218.15 621.56 216.78 630.01 235.59 630.01 234.23 618.83 218.15 621.56" fill="#f9b499"/><polygon points="295.29 621.56 293.93 630.01 312.74 630.01 311.38 618.83 295.29 621.56" fill="#f9b499"/><rect x="250.43" y="227.45" width="43.21" height="147.3" fill="#e4e4e4"/><path d="M212.51,367.58s56.33,6.57,98.85-2.33l14.19,105s3.82,35.71,0,58.34l-9.81,95.14H290.66s-4.09-115.86-1.36-127.58l-21.81-87.78L257.67,500l-18,123.77H214.06l2.18-121.59L213,388.57Z" fill="#2f2e41"/><path d="M244.59,216.73s12.81,15.54,13.08,34.35c0,0-1.11,91.53-2,114.21-.09,2.38-.14,4.76-.13,7.15,0,9-.74,33.5-9.6,39.48,0,0-23.72,11.18-36.26-3.27,0,0-2.48-38.35,1-59a81.32,81.32,0,0,0,1.14-14.11l-.47-56.08L188.16,305.6,208,365.21l-18,6.77s-28.49-59-26.85-69.92c0,0,12.37-41.41,44.85-70.55.31-.28.62-.58.92-.89C210,229.46,216.18,224.71,244.59,216.73Z" fill="#686175" data-primary="true"/><path d="M241.81,184s-6.09-12.15-2.38-23.68c0,0,.77-1.54.49-5.3a10.65,10.65,0,0,1,4.45-9.55,10.85,10.85,0,0,1,6.8-1.83l13.79.62c7.41,1.24,15.24-8,15.24-8,9.88-7.62,17.08,2.06,17.08,2.06,6.39,13.18-4.06,20.18-4.06,20.18,4.18,11.32-.26,16.88-.26,16.88-1-8.26-2.26-15.44-2.26-15.44-3.93,5.31-15.18,5.1-21.14,4.81a35.05,35.05,0,0,1-5.29-.73,35.55,35.55,0,0,0-8.57-.37c1.17,13.36-4.33,18.11-4.33,18.11S242.89,175.93,241.81,184Z" fill="#2f2e41"/><path d="M251.77,196.56s-2.27,2.59-4.35-.48a14.42,14.42,0,0,0-.89-1.17,21.19,21.19,0,0,1-4.72-11s1-7.87,9.56-2.27a27.05,27.05,0,0,0,4.33-18.11s4.69-1.69,7.94-.75a19.14,19.14,0,0,0,2.38.56c4.79.76,18.73,2.35,24.68-3.52,0,0,4,18.34,2.69,30.34,0,0-2.55,21.08-19.27,18.72C274.12,208.92,260.49,207.83,251.77,196.56Z" fill="#f9b499"/><path d="M251.77,195.1s-.73,13.45-3.64,20.18c0,0,14.28,12.17,19.59,12.17,0,0,5.13-4.18,9.67-8.54a15.18,15.18,0,0,1-2.54-12Z" fill="#f9b499"/><path d="M267.72,227.45l-10.67,16.83s-6.8-20-12.46-27.55l3.54-1.45S260.87,226.45,267.72,227.45Z" fill="#686175" data-primary="true"/><path d="M267.72,227.45l-10.67,16.83s-6.8-20-12.46-27.55l3.54-1.45S260.87,226.45,267.72,227.45Z" opacity="0.2"/><path d="M277.39,218.91l1.82.37a26.4,26.4,0,0,1,1.7,11.21L275.26,239l-7.54-11.5Z" fill="#686175" data-primary="true"/><path d="M277.39,218.91l1.82.37a26.4,26.4,0,0,1,1.7,11.21L275.26,239l-7.54-11.5Z" opacity="0.2"/><path d="M264.9,239.9l-3.31-2.78,6.13-9.67,6.59,10.06L272,239.9s6.49,78.61,6.31,95.87L271,344.31,264.49,335S266.94,260.35,264.9,239.9Z" fill="#686175" data-primary="true"/><path d="M521.23,53V241.75c0,7.75-5.76,14-12.87,14H390.07c-7.09,0-12.85-6.28-12.85-14V53c0-7.75,5.76-14,12.85-14H508.36c1.64.34,3.34.72,5.13,1.15A14.13,14.13,0,0,1,521.23,53Z" fill="#f48225" data-secondary="true"/><rect x="394.84" y="107.83" width="107.04" height="25.42" opacity="0.2"/><rect x="394.84" y="142.81" width="23.18" height="21.55" opacity="0.2"/><rect x="422.79" y="143.26" width="23.18" height="21.55" opacity="0.2"/><rect x="450.75" y="143.26" width="23.18" height="21.55" opacity="0.2"/><rect x="478.7" y="142.81" width="23.18" height="21.55" opacity="0.2"/><rect x="388.07" y="169.14" width="23.18" height="21.55" opacity="0.2"/><rect x="388.27" y="197.72" width="23.18" height="21.55" opacity="0.2"/><rect x="418.71" y="197.72" width="23.18" height="21.55" opacity="0.2"/><rect x="418.58" y="169.58" width="23.18" height="21.55" opacity="0.2"/><rect x="449.1" y="169.58" width="23.18" height="21.55" opacity="0.2"/><rect x="479.61" y="169.14" width="23.18" height="21.55" opacity="0.2"/><rect x="449.16" y="197.72" width="23.18" height="21.55" opacity="0.2"/><rect x="479.61" y="197.72" width="23.18" height="21.55" opacity="0.2"/><path d="M390.58,169.77c2.73-3.55,3.47-2,3.47-2,1.79,2.72.17,4.94-1.31,6.23-1,.9-3.95,4.4-4,6.21l.06.86c1.6-3.72,4.57-3.23,4.57-3.23,5.09.53,8.39,7.41,9.52,10.19a5.6,5.6,0,0,1,.43,2.88c-.47,3.3-3.61,1.83-3.61,1.83-2.06-.15-1.87,2.87-1.87,2.87-.39,14.68-7,12.87-7,12.87l-8.85-5.39c-1.25-2.19-1.76-8.48-2-12.71a23.76,23.76,0,0,1,.51-6.3,13.59,13.59,0,0,1,2.9-5.8Z" fill="#f9b499"/><polygon points="377.35 204.74 378.62 200.56 396.98 206.55 395.7 211.28 377.35 204.74" fill="#2f2e41"/><path d="M310.87,263.63S318.51,372.44,326.46,401a5.76,5.76,0,0,1-1.76,5.89c-5,4.36-15.67,11.36-23.8.28a114.5,114.5,0,0,1-9.63-39.54s-8.63-82.69-8.3-101.29c0,0-1.4-40.65-3.76-47,0,0,51.07,10.9,79.42,31.62,0,0,14.9-31.72,17.9-48.62L397,209.1s-11.72,67.61-28.08,70.33C368.9,279.43,350.43,285.18,310.87,263.63Z" fill="#686175" data-primary="true"/><g opacity="0.2"><path d="M418.18,96.43c-1.48-1.64-2.21-4.29-2.21-8V84.92h7.18v4.54c0,1.82.58,2.72,1.74,2.72a1.51,1.51,0,0,0,1.36-.57,3.59,3.59,0,0,0,.38-1.93,8.85,8.85,0,0,0-.42-3,6.26,6.26,0,0,0-1.08-2c-.44-.53-1.23-1.34-2.36-2.45l-3.15-3.14A10.88,10.88,0,0,1,416,71.27c0-3.11.71-5.49,2.14-7.12a7.89,7.89,0,0,1,6.27-2.44q4.94,0,7.1,2.61c1.44,1.75,2.17,4.47,2.17,8.19h-7.44l0-2.51a1.6,1.6,0,0,0-.41-1.15,1.48,1.48,0,0,0-1.12-.42,1.66,1.66,0,0,0-1.28.46,1.85,1.85,0,0,0-.42,1.28,5.32,5.32,0,0,0,2,3.7L429.23,78a23.39,23.39,0,0,1,2.46,2.74,10.77,10.77,0,0,1,1.58,3.06,13.29,13.29,0,0,1,.59,4.18q0,5.4-2,8.18c-1.31,1.86-3.49,2.79-6.52,2.79Q420.38,98.9,418.18,96.43Z"/><path d="M441.81,98.56V62.05h14.62v7.06h-7.18V76.2h6.88v6.89h-6.88v8.37h7.65v7.1Z"/><path d="M466.84,96.2q-2.29-2.7-2.3-7.59V71.23q0-4.73,2.3-7.12t6.72-2.4q4.41,0,6.71,2.4t2.29,7.12V88.61q0,4.94-2.29,7.61a8.37,8.37,0,0,1-6.71,2.68Q469.14,98.9,466.84,96.2Zm8-4.87a6.52,6.52,0,0,0,.34-2.38V71.1a4.8,4.8,0,0,0-.32-1.93,1.25,1.25,0,0,0-1.29-.74q-1.83,0-1.83,2.76V89a5.89,5.89,0,0,0,.38,2.38,1.42,1.42,0,0,0,1.41.8A1.27,1.27,0,0,0,474.87,91.33Z"/></g><path d="M235.76,649.14l2.58-23.28h-23.9l-2.36,31.92v4.94l43.66,0v-4.94C253.37,649.23,235.76,649.14,235.76,649.14Z" fill="#686175" data-primary="true"/><line x1="235.76" y1="649.14" x2="233.25" y2="654.03" fill="none" stroke="#000" stroke-miterlimit="10" stroke-width="0.5" opacity="0.2"/><line x1="239.5" y1="649.5" x2="237.11" y2="654.02" fill="none" stroke="#000" stroke-miterlimit="10" stroke-width="0.5" opacity="0.2"/><path d="M243.11,649.89s-1.85,3.62-2.07,4.13" fill="none" stroke="#000" stroke-miterlimit="10" stroke-width="0.5" opacity="0.2"/><path d="M312.49,649.14l2.59-23.28h-23.9l-2.36,31.92v4.94l43.66,0v-4.94C330.11,649.23,312.49,649.14,312.49,649.14Z" fill="#686175" data-primary="true"/><line x1="312.49" y1="649.14" x2="309.99" y2="654.03" fill="none" stroke="#000" stroke-miterlimit="10" stroke-width="0.5" opacity="0.2"/><line x1="316.24" y1="649.5" x2="313.85" y2="654.02" fill="none" stroke="#000" stroke-miterlimit="10" stroke-width="0.5" opacity="0.2"/><path d="M319.85,649.89s-1.85,3.62-2.07,4.13" fill="none" stroke="#000" stroke-miterlimit="10" stroke-width="0.5" opacity="0.2"/><path d="M205.41,367.93c4.18,4,8.78,7.73,10.38,9.87a2.5,2.5,0,0,1-2,3.95c-2.19.08-3,.13-3,.13,3.39,6.3,10,7.47,6.47,12.8s-17,3.79-21.69-9.43c-3-8.63-1.41-11.85-1.41-11.85S199.29,368.38,205.41,367.93Z" fill="#f9b499"/><polygon points="191.43 374.75 209.04 367.92 207.98 365.21 189.93 371.98 191.43 374.75" fill="#2f2e41"/></svg>