<svg xmlns="http://www.w3.org/2000/svg" xmlns:xlink="http://www.w3.org/1999/xlink" width="865.76" height="682.89" viewBox="0 0 865.76 682.89"><defs><clipPath id="a"><path d="M147.57,438.11S-6.86,360,73.64,171.54c0,0,55.78-144.26,254.88-144.09,0,0,37.14-2.47,87.66,3,0,0,47.11,3,90.67-8.92,0,0,175.29-43.58,249.58,52.5,0,0,43.58,42.76,57.45,144.2,0,0,22.91,117.44-110.87,202.56,0,0-141.37,97-365.4,78.17C337.61,498.94,231.09,487.22,147.57,438.11Z" fill="none"/></clipPath></defs><ellipse cx="442.46" cy="620.41" rx="300.72" ry="50.83" fill="#f48225" data-secondary="true"/><ellipse cx="442.46" cy="620.41" rx="300.72" ry="50.83" fill="#fff" opacity="0.7"/><path d="M805.57,297.57a207.91,207.91,0,0,1-37.73,67.16,246.68,246.68,0,0,1-25,25.95q-4.8,4.33-10,8.6c-2,1.66-4.08,3.3-6.2,4.93-1.54,1.19-3.1,2.38-4.69,3.55s-3.07,2.26-4.64,3.37q-1.12.83-2.28,1.62-5.79,4.06-12,8s-5.45,3.74-15.9,9.6c-3.16,1.78-6.78,3.75-10.85,5.87h0l-3.62,1.87h0c-1.57.8-3.19,1.62-4.88,2.45h0a551.34,551.34,0,0,1-74.83,30.17h0c-3.28,1.06-6.6,2.12-10,3.15s-7,2.09-10.54,3.1q-6.55,1.88-13.41,3.66-5.32,1.39-10.82,2.72c-9.29,2.24-19,4.36-29,6.29q-10.86,2.09-22.29,3.88-13.59,2.13-28,3.74l-2.58.29q-3.48.38-7,.72h0l-3.13.29q-13.19,1.23-27,1.93l-2.59.13q-4.85.22-9.75.39c-2.33.07-4.67.14-7,.19h0c-17.27.38-35.17.1-53.68-1h0l-2.16-.13h0q-5.28-.31-10.62-.72c-1.8-.13-3.6-.28-5.41-.43h0l-.25,0s-4.1-.45-11.31-1.54h0c-7.15-1.09-17.35-2.81-29.65-5.34h0l-2.74-.56q-4.84-1-10.09-2.21c-7.09-1.62-14.68-3.47-22.61-5.6-3.06-.81-6.18-1.67-9.34-2.57-4.79-1.37-9.7-2.83-14.68-4.39l-2.58-.82h0a475.46,475.46,0,0,1-56.87-22c-1.3-.6-2.59-1.21-3.88-1.84-2.26-1.08-4.52-2.19-6.76-3.32s-4.35-2.22-6.51-3.37q-6.57-3.48-13-7.25s-2.68-1.36-7.15-4.14c-3.8-2.37-8.91-5.78-14.76-10.27-15.44-11.85-36.09-31.23-51.85-59a177.68,177.68,0,0,1-22.06-67.16c-2.5-20.85-1.73-44.2,3.83-70.19a302.83,302.83,0,0,1,18-55.84,139.54,139.54,0,0,1,8.9-17.63,242.06,242.06,0,0,1,65-72A255.24,255.24,0,0,1,186.68,58h0c36.16-17.88,82.67-30.59,141.84-30.54,0,0,27.34-1.83,67,1.1,6.57.48,13.48,1.1,20.66,1.87,0,0,47.11,3,90.66-8.91,0,0,47.83-11.89,104.11-9.55,51.46,2.13,110,16.15,145.47,62a86.61,86.61,0,0,1,6.76,7.93c8.65,11.16,23.95,34.45,36.19,72a367.46,367.46,0,0,1,14.5,64.31,87.44,87.44,0,0,1,1.08,9.16C816,240.49,815.94,266.48,805.57,297.57Z" fill="#f48225" data-secondary="true"/><path d="M805.57,297.57a207.91,207.91,0,0,1-37.73,67.16,246.68,246.68,0,0,1-25,25.95q-4.8,4.33-10,8.6c-2,1.66-4.08,3.3-6.2,4.93-1.54,1.19-3.1,2.38-4.69,3.55s-3.07,2.26-4.64,3.37q-1.12.83-2.28,1.62-5.79,4.06-12,8s-5.45,3.74-15.9,9.6c-3.16,1.78-6.78,3.75-10.85,5.87h0l-3.62,1.87h0c-1.57.8-3.19,1.62-4.88,2.45h0a551.34,551.34,0,0,1-74.83,30.17h0c-3.28,1.06-6.6,2.12-10,3.15s-7,2.09-10.54,3.1q-6.55,1.88-13.41,3.66-5.32,1.39-10.82,2.72c-9.29,2.24-19,4.36-29,6.29q-10.86,2.09-22.29,3.88-13.59,2.13-28,3.74l-2.58.29q-3.48.38-7,.72h0l-3.13.29q-13.19,1.23-27,1.93l-2.59.13q-4.85.22-9.75.39c-2.33.07-4.67.14-7,.19h0c-17.27.38-35.17.1-53.68-1h0l-2.16-.13h0q-5.28-.31-10.62-.72c-1.8-.13-3.6-.28-5.41-.43h0l-.25,0s-4.1-.45-11.31-1.54h0c-7.15-1.09-17.35-2.81-29.65-5.34h0l-2.74-.56q-4.84-1-10.09-2.21c-7.09-1.62-14.68-3.47-22.61-5.6-3.06-.81-6.18-1.67-9.34-2.57-4.79-1.37-9.7-2.83-14.68-4.39l-2.58-.82h0a475.46,475.46,0,0,1-56.87-22c-1.3-.6-2.59-1.21-3.88-1.84-2.26-1.08-4.52-2.19-6.76-3.32s-4.35-2.22-6.51-3.37q-6.57-3.48-13-7.25s-2.68-1.36-7.15-4.14c-3.8-2.37-8.91-5.78-14.76-10.27-15.44-11.85-36.09-31.23-51.85-59a177.68,177.68,0,0,1-22.06-67.16c-2.5-20.85-1.73-44.2,3.83-70.19a302.83,302.83,0,0,1,18-55.84,139.54,139.54,0,0,1,8.9-17.63,242.06,242.06,0,0,1,65-72A255.24,255.24,0,0,1,186.68,58h0c36.16-17.88,82.67-30.59,141.84-30.54,0,0,27.34-1.83,67,1.1,6.57.48,13.48,1.1,20.66,1.87,0,0,47.11,3,90.66-8.91,0,0,47.83-11.89,104.11-9.55,51.46,2.13,110,16.15,145.47,62a86.61,86.61,0,0,1,6.76,7.93c8.65,11.16,23.95,34.45,36.19,72a367.46,367.46,0,0,1,14.5,64.31,87.44,87.44,0,0,1,1.08,9.16C816,240.49,815.94,266.48,805.57,297.57Z" fill="#fff" opacity="0.7"/><polyline points="186.68 58 186.68 81.93 252.27 81.93 763.54 81.93" fill="none" stroke="#fff" stroke-miterlimit="10" stroke-width="2"/><line x1="186.68" y1="81.93" x2="147.49" y2="81.93" fill="none" stroke="#fff" stroke-miterlimit="10" stroke-width="2"/><line x1="82.53" y1="153.91" x2="799.38" y2="153.91" fill="none" stroke="#fff" stroke-miterlimit="10" stroke-width="2"/><line x1="55.13" y1="227.37" x2="814.96" y2="227.37" fill="none" stroke="#fff" stroke-miterlimit="10" stroke-width="2"/><line x1="51.75" y1="297.57" x2="805.57" y2="297.57" fill="none" stroke="#fff" stroke-miterlimit="10" stroke-width="2"/><line x1="73.81" y1="364.73" x2="767.83" y2="364.73" fill="none" stroke="#fff" stroke-miterlimit="10" stroke-width="2"/><line x1="147.57" y1="438.11" x2="672.62" y2="438.11" fill="none" stroke="#fff" stroke-miterlimit="10" stroke-width="2"/><line x1="252.51" y1="153.91" x2="252.51" y2="81.93" fill="none" stroke="#fff" stroke-miterlimit="10" stroke-width="2"/><line x1="469.69" y1="81.93" x2="469.69" y2="153.91" fill="none" stroke="#fff" stroke-miterlimit="10" stroke-width="2"/><line x1="726.71" y1="81.93" x2="726.71" y2="153.91" fill="none" stroke="#fff" stroke-miterlimit="10" stroke-width="2"/><line x1="186.68" y1="153.91" x2="186.68" y2="227.37" fill="none" stroke="#fff" stroke-miterlimit="10" stroke-width="2"/><line x1="308.77" y1="227.37" x2="308.77" y2="153.91" fill="none" stroke="#fff" stroke-miterlimit="10" stroke-width="2"/><line x1="543.22" y1="227.37" x2="543.22" y2="153.91" fill="none" stroke="#fff" stroke-miterlimit="10" stroke-width="2"/><line x1="661.82" y1="153.91" x2="661.82" y2="227.37" fill="none" stroke="#fff" stroke-miterlimit="10" stroke-width="2"/><line x1="780.66" y1="153.91" x2="780.66" y2="227.37" fill="none" stroke="#fff" stroke-miterlimit="10" stroke-width="2"/><line x1="156.79" y1="227.37" x2="156.79" y2="297.57" fill="none" stroke="#fff" stroke-miterlimit="10" stroke-width="2"/><line x1="371.11" y1="227.37" x2="371.11" y2="297.57" fill="none" stroke="#fff" stroke-miterlimit="10" stroke-width="2"/><line x1="491.95" y1="227.37" x2="491.95" y2="297.57" fill="none" stroke="#fff" stroke-miterlimit="10" stroke-width="2"/><line x1="726.71" y1="227.37" x2="726.71" y2="297.57" fill="none" stroke="#fff" stroke-miterlimit="10" stroke-width="2"/><line x1="127.13" y1="297.57" x2="127.13" y2="364.73" fill="none" stroke="#fff" stroke-miterlimit="10" stroke-width="2"/><line x1="306.79" y1="297.57" x2="306.79" y2="362.61" fill="none" stroke="#fff" stroke-miterlimit="10" stroke-width="2"/><line x1="780.66" y1="346.78" x2="780.66" y2="297.57" fill="none" stroke="#fff" stroke-miterlimit="10" stroke-width="2"/><line x1="182.81" y1="364.73" x2="182.81" y2="438.11" fill="none" stroke="#fff" stroke-miterlimit="10" stroke-width="2"/><line x1="342.45" y1="365.46" x2="342.45" y2="438.11" fill="none" stroke="#fff" stroke-miterlimit="10" stroke-width="2"/><line x1="506.85" y1="365.46" x2="506.85" y2="438.11" fill="none" stroke="#fff" stroke-miterlimit="10" stroke-width="2"/><line x1="630.14" y1="438.11" x2="630.14" y2="365.46" fill="none" stroke="#fff" stroke-miterlimit="10" stroke-width="2"/><line x1="395.52" y1="81.93" x2="395.52" y2="28.35" fill="none" stroke="#fff" stroke-miterlimit="10" stroke-width="2"/><line x1="610.95" y1="81.93" x2="610.95" y2="11.65" fill="none" stroke="#fff" stroke-miterlimit="10" stroke-width="2"/><line x1="296.63" y1="438.11" x2="296.63" y2="492.06" fill="none" stroke="#fff" stroke-miterlimit="10" stroke-width="2"/><line x1="465.07" y1="438.11" x2="465.07" y2="496.63" fill="none" stroke="#fff" stroke-miterlimit="10" stroke-width="2"/><g clip-path="url(#a)"><rect x="177.44" y="116.68" width="508.13" height="262.36" fill="#fddfd2"/><rect x="192.45" y="130.91" width="477.31" height="234.7" fill="#f9e4de"/><path d="M637.8,256.78s5.77-15.37,17.3-8.45l-8.65,10.37,6.73,11.92s-10,6.53-15.38-7.69c0,0-22.29,13.93-44.19-3.6C593.61,259.33,612.82,240.64,637.8,256.78Z" fill="#fff" opacity="0.31"/><path d="M605.53,171.55s5.1-13.62,15.32-7.49l-7.66,9.19,6,10.56s-8.86,5.79-13.62-6.81c0,0-19.76,12.34-39.17-3.2C566.36,173.8,583.39,157.25,605.53,171.55Z" fill="#fff" opacity="0.31"/><path d="M253.5,186.28s-5.87-15.67-17.62-8.62l8.81,10.58-6.85,12.14S248,207,253.5,192.54c0,0,22.71,14.2,45-3.67C298.54,188.87,279,169.83,253.5,186.28Z" fill="#fff" opacity="0.31"/><path d="M458.88,235s-4.32-11.52-13-6.34l6.48,7.78-5,8.93s7.49,4.9,11.52-5.76c0,0,16.71,10.44,33.13-2.7C492,236.93,477.61,222.92,458.88,235Z" fill="#fff" opacity="0.31"/><path d="M254.24,276.78s4.33-11.53,13-6.34l-6.48,7.78,5,8.93s-7.49,4.89-11.53-5.77c0,0-16.7,10.44-33.12-2.7C221.12,278.68,235.52,264.68,254.24,276.78Z" fill="#fff" opacity="0.31"/><path d="M354.28,234.1s6.4-17.06,19.2-9.38l-9.6,11.52,7.47,13.22s-11.09,7.25-17.07-8.53c0,0-24.74,15.46-49.06-4C305.22,236.93,326.55,216.19,354.28,234.1Z" fill="#fff" opacity="0.31"/><path d="M487.19,173.2c-2.38-1.11-5.93-4-1.44-10.73,0,0,14.72-17.32,31.45-8a17.93,17.93,0,0,1,7.74,8.07c1.3,2.88,1.9,6.51-1,9.49a5.21,5.21,0,0,0-1.14,5.05c1.09,3.82,2.26,10.16-.06,14.77a1.42,1.42,0,0,1-1.23.75c-1.5,0-4.26-.78-3-7.49,0,0,.7-9.71-4.19-9.71,0,0-4.88-1.4-2.44,5.58,0,0,1.75,3.72,1.05,11.62a13.88,13.88,0,0,0,1,7.56s3.83,8.37-3.84,8c0,0-3.41-.31-2.05-8.82a6.08,6.08,0,0,0-.33-3.13c-.86-2.26-2.15-6.65-.64-9.77a8.9,8.9,0,0,0,1.06-4c0-2.63-.56-6.29-3.4-6.07,0,0-6.85-3.48-5.45,2.1,0,0,4.88,5.93.69,12.2,0,0-2.79,2.1-.34,5.24,0,0,3.13,7-2.45,7,0,0-4.88,2.79-3.14-8a8.66,8.66,0,0,1,.7-8.37s2.44-5.93-.7-10.12c0,0-3.13-2.76-3.83,3.51a6.38,6.38,0,0,1-2.09,5.16s-1.95,8.38-6.09,6a2.82,2.82,0,0,1-1.16-3.76,7.77,7.77,0,0,1,4-3.3s3.19-3.18.49-6.12c0,0-.43-3.3,1.76-4A.37.37,0,0,0,487.19,173.2Z" fill="#fcd6ca"/><path d="M552.64,233.27h3.62a2.53,2.53,0,0,1,2.53,2.53v108a0,0,0,0,1,0,0h-8.68a0,0,0,0,1,0,0v-108A2.53,2.53,0,0,1,552.64,233.27Z" fill="#fddfd2"/><path d="M564.56,224.17h5.73a2.53,2.53,0,0,1,2.53,2.53V343.77a0,0,0,0,1,0,0H562a0,0,0,0,1,0,0V226.7A2.53,2.53,0,0,1,564.56,224.17Z" fill="#fddfd2"/><path d="M579.45,224.17h3.62a2.53,2.53,0,0,1,2.53,2.53V343.77a0,0,0,0,1,0,0h-8.68a0,0,0,0,1,0,0V226.7A2.53,2.53,0,0,1,579.45,224.17Z" fill="#fddfd2"/><circle cx="279.26" cy="151.55" r="5.13" fill="#fff" opacity="0.31"/><circle cx="300.09" cy="170.7" r="5.13" fill="#fff" opacity="0.31"/><circle cx="319.77" cy="196.77" r="3.63" fill="#fff" opacity="0.31"/><circle cx="589.23" cy="193.14" r="3.63" fill="#fff" opacity="0.31"/><circle cx="492.01" cy="213.45" r="3.63" fill="#fff" opacity="0.31"/><circle cx="593.61" cy="233.27" r="3.63" fill="#fff" opacity="0.31"/><circle cx="480.63" cy="224.17" r="3.63" fill="#fff" opacity="0.31"/><circle cx="339.35" cy="208.22" r="5.23" fill="#fff" opacity="0.31"/><circle cx="410.54" cy="256.31" r="5.23" fill="#fff" opacity="0.31"/><circle cx="576.92" cy="217.01" r="5.23" fill="#fff" opacity="0.31"/><circle cx="320.99" cy="220.65" r="3.63" fill="#fff" opacity="0.31"/><circle cx="228.9" cy="248.26" r="3.63" fill="#fff" opacity="0.31"/><circle cx="247.79" cy="238.95" r="3.63" fill="#fff" opacity="0.31"/><circle cx="240.53" cy="262.96" r="3.63" fill="#fff" opacity="0.31"/><path d="M669.76,342.71c-9.69-6.78-20.56-5.61-27.53-3.7a94.79,94.79,0,0,1-21.74,3.46c-1.9.07-3.68.12-5.34.16A90.34,90.34,0,0,1,582,337.19c-37.11-13.62-56.87-4.77-56.87-4.77a156.9,156.9,0,0,1-49.79-3.95c-24.2-10.45-42.28-9.14-51-7.37a81.12,81.12,0,0,1-28.22.92c-15-2.28-20.32-7.77-20.32-7.77-26.87-23.71-51.37,0-51.37,0-59.26,42.67-132,22.91-132,22.91v28.45H669.76Z" fill="#fcd6ca"/><rect x="161.39" y="6.04" width="132.42" height="88.12" rx="3.2" fill="#fddfd2"/><rect x="168.85" y="11.74" width="117.5" height="76.73" rx="3.2" fill="#f9e4de"/><path d="M253,24.87H201.29a.85.85,0,1,1,0-1.7H253a.85.85,0,0,1,0,1.7Z" fill="#fff"/><path d="M277.14,38.46H178.05a.85.85,0,1,1,0-1.7h99.09a.85.85,0,1,1,0,1.7Z" fill="#fff"/><path d="M276.7,47.67H177.62a.85.85,0,1,1,0-1.7H276.7a.85.85,0,1,1,0,1.7Z" fill="#fff"/><path d="M277.37,58.63H178.28a.85.85,0,1,1,0-1.7h99.09a.85.85,0,1,1,0,1.7Z" fill="#fff"/><path d="M276.93,67.84H177.84a.86.86,0,0,1,0-1.71h99.09a.86.86,0,0,1,0,1.71Z" fill="#fff"/><path d="M197.34,79.68H178.28a.86.86,0,0,1-.85-.86.85.85,0,0,1,.85-.85h19.06a.86.86,0,1,1,0,1.71Z" fill="#fff"/><rect x="569.19" y="6.04" width="132.42" height="88.12" rx="3.2" fill="#fddfd2"/><rect x="576.65" y="11.74" width="117.5" height="76.73" rx="3.2" fill="#f9e4de"/><path d="M660.82,24.87H609.09a.85.85,0,0,1,0-1.7h51.73a.85.85,0,1,1,0,1.7Z" fill="#fff"/><path d="M684.94,38.46H585.85a.85.85,0,0,1,0-1.7h99.09a.85.85,0,1,1,0,1.7Z" fill="#fff"/><path d="M684.5,47.67H585.41a.85.85,0,0,1,0-1.7H684.5a.85.85,0,1,1,0,1.7Z" fill="#fff"/><path d="M685.16,58.63H586.08a.85.85,0,0,1,0-1.7h99.08a.85.85,0,1,1,0,1.7Z" fill="#fff"/><path d="M684.73,67.84H585.64a.86.86,0,0,1,0-1.71h99.09a.86.86,0,0,1,0,1.71Z" fill="#fff"/><path d="M605.14,79.68H586.08a.86.86,0,0,1-.85-.86.85.85,0,0,1,.85-.85h19.06a.86.86,0,1,1,0,1.71Z" fill="#fff"/><rect x="366.89" y="6.04" width="132.42" height="88.12" rx="3.2" fill="#fddfd2"/><rect x="374.35" y="11.74" width="117.5" height="76.73" rx="3.2" fill="#f9e4de"/><path d="M458.52,24.87H406.79a.85.85,0,1,1,0-1.7h51.73a.85.85,0,1,1,0,1.7Z" fill="#fff"/><path d="M482.64,38.46H383.55a.85.85,0,0,1,0-1.7h99.09a.85.85,0,1,1,0,1.7Z" fill="#fff"/><path d="M482.2,47.67H383.11a.85.85,0,0,1,0-1.7H482.2a.85.85,0,1,1,0,1.7Z" fill="#fff"/><path d="M482.86,58.63H383.78a.85.85,0,0,1,0-1.7h99.08a.85.85,0,1,1,0,1.7Z" fill="#fff"/><path d="M482.42,67.84H383.34a.86.86,0,0,1,0-1.71h99.08a.86.86,0,1,1,0,1.71Z" fill="#fff"/><path d="M402.84,79.68H383.78a.86.86,0,0,1-.85-.86.85.85,0,0,1,.85-.85h19.06a.85.85,0,0,1,.85.85A.86.86,0,0,1,402.84,79.68Z" fill="#fff"/></g><path d="M250.09,506.69h96.85a9.72,9.72,0,0,0,9.61-8.31l16.76-114.69A14.58,14.58,0,0,0,358.88,367H238a15.05,15.05,0,0,0-14.88,17.32l17.4,114.11A9.71,9.71,0,0,0,250.09,506.69Z" fill="#a5b9c5"/><path d="M252.55,485.24l-17.29-102a4.81,4.81,0,0,1,4.74-5.61H358.74a4.81,4.81,0,0,1,4.75,5.51l-15.09,102a7.51,7.51,0,0,1-7.43,6.4H260A7.51,7.51,0,0,1,252.55,485.24Z" fill="#d6dfe4"/><polygon points="249.67 610.07 259 610.07 264.88 498.7 255.13 498.7 249.67 610.07" fill="#a5b9c5"/><polygon points="346.82 500.92 352.67 605.19 342.7 605.19 336.25 500.92 346.82 500.92" fill="#a5b9c5"/><path d="M261.94,610.82s-18.73,15-24,16.11c0,0-9.53,1.91-8.39,7.57a5.27,5.27,0,0,0,2.89,3.6,28.86,28.86,0,0,0,27.33-.94l11.38-6.89V633a1.1,1.1,0,0,0,1.36,1.08l8.9-2.11a2.23,2.23,0,0,0,1.66-1.66,41.54,41.54,0,0,0-.36-19.47S267.5,613.61,261.94,610.82Z" fill="#f48225" data-secondary="true"/><path d="M252.67,447.86l4-.7,39.62,2.75,7.13-2.75,15,16.06s-19.46,9.45-20,10.72-49.12-19.58-49.12-19.58Z" fill="#231f20"/><path d="M273.86,323.31s-20.22,2-19.68,10.75c0,0-5.76,2.16-4.66,6.29,0,0-4.12,2.49-5.49,6.61l-26.36,39.53s-11.25,16.75,0,25c0,0,15.65,10.16,31-17.57l18.95,11.81-3,25.53-8,15.92s6.24-.27,17,6.31c0,0,15.86,13.46,22.64-3.56l2.16.27s1.6,2.47,3.52,2.2c0,0-6,11.53,12.94,11,0,0,23.3-2.47,38.4,13.45,0,0,2.19-3.08-1.38-15.13,0,0-8-18.91-7.13-26.6l15.1-30.75,1.64-4.27s1.1,13.06,11.81,13.88c0,0,13.72-.55,9.61-23.61A63,63,0,0,0,374.43,373s-8.79-15.65-8.24-22c0,0-1.37-4.12-4.67-4.12a9.68,9.68,0,0,0-4.94-8.79s.55-10-8.51-12.68l-11.25-2.18Z" fill="#f48225" data-secondary="true"/><polygon points="411.7 604.88 421.03 604.88 426.91 493.51 417.16 493.51 411.7 604.88" fill="#a5b9c5"/><polygon points="508.85 495.73 514.7 600 504.73 600 498.29 495.73 508.85 495.73" fill="#a5b9c5"/><path d="M412.12,501.5H509a9.72,9.72,0,0,0,9.61-8.31l16.76-114.68a14.59,14.59,0,0,0-14.43-16.69H400a15.06,15.06,0,0,0-14.88,17.32l17.4,114.11A9.72,9.72,0,0,0,412.12,501.5Z" fill="#a5b9c5"/><path d="M413.6,474.71l-17.3-102a4.81,4.81,0,0,1,4.74-5.61H519.78a4.81,4.81,0,0,1,4.76,5.51l-15.1,102A7.5,7.5,0,0,1,502,481H421A7.5,7.5,0,0,1,413.6,474.71Z" fill="#d6dfe4"/><path d="M427.84,417.61s-17.68,36.52,4.3,63.35H499s16.09-25.06,1.76-60.39l-19.23-9.72-53.7,1.34Z" fill="#272727"/><path d="M423.32,313.63s-15.17,1.1-19,29.95l-6,46.81V402.3a10,10,0,0,0,3.58,7.69c3.1,2.58,8.47,5.83,17.11,7.62,0,0-5.53-11.8,3.28-16.88a.88.88,0,0,0,.17-1.38l-5.63-5.7s4.56-19.91,4.85-29.91c0,0,2.57,14,6.57,23.14,0,0,2,13.14,0,23.71l62-5.14s3.16,8.89-.84,16c0,0,21.41,3.69,22.55-16.89V385.45l-6.28-34.57s-1.45-25.47-11.87-32.59l-41.28-10Z" fill="#686175" data-primary="true"/><ellipse cx="456.19" cy="314.83" rx="18.7" ry="16.8" fill="#686175" data-primary="true"/><ellipse cx="456.19" cy="314.83" rx="18.7" ry="16.8" fill="#fff" opacity="0.2"/><path d="M571,505h96.85a9.72,9.72,0,0,0,9.61-8.31L694.18,382a14.59,14.59,0,0,0-14.43-16.69H558.85A15.06,15.06,0,0,0,544,382.62l17.4,114.11A9.73,9.73,0,0,0,571,505Z" fill="#a5b9c5"/><polygon points="570.54 608.36 579.88 608.36 585.75 496.99 576 496.99 570.54 608.36" fill="#a5b9c5"/><polygon points="667.69 499.21 673.54 603.48 663.57 603.48 657.13 499.21 667.69 499.21" fill="#a5b9c5"/><path d="M626.56,596.22l-.64,3.41s4.29,7.11,25.5,12.72c0,0,20.05,4.09,18.89-3.41Z" fill="#272727"/><path d="M629.49,584.49l-2.93,11.73s16.8,17.16,42.23,14.09a1.77,1.77,0,0,0,1.39-2.53c-1.18-2.44-4.45-6.17-13.49-7.54a2.83,2.83,0,0,1-2.32-2.09l-2-7.61Z" fill="#f48225" data-secondary="true"/><path d="M575.86,609.16s-1.35,8.24,11.23,7.15a30.38,30.38,0,0,0,16.5-6.87l7.92-6.48a8.05,8.05,0,0,0,2.85-7.57l-2.18-8.06Z" fill="#272727"/><path d="M573.43,483.53l-17.3-102a4.81,4.81,0,0,1,4.74-5.62H679.61a4.81,4.81,0,0,1,4.76,5.52l-15.1,102a7.5,7.5,0,0,1-7.43,6.41h-81A7.51,7.51,0,0,1,573.43,483.53Z" fill="#d6dfe4"/><path d="M687.09,488.08,656.37,588.24a5.75,5.75,0,0,1-5.26,4.07,39,39,0,0,1-16.62-3h0a29.75,29.75,0,0,1-3.54-1.76,3.06,3.06,0,0,1-1.46-3.08l16-106.65c-15.61-9.37-54.81.69-54.81.69,5.64,17.52,16.9,82.12,19.06,94.67a5.4,5.4,0,0,1-1.67,5c-4.71,4.14-15.25,5.16-20.79,5.4a4.85,4.85,0,0,1-4.76-3.15L561,523.29c-14.07-37.12-14.73-49.61-14.73-49.61C541.78,441.41,586.53,431,586.53,431l4.17-7,65.91,5.26c17.63,13.89,27,38.49,30.43,49.06A16.38,16.38,0,0,1,687.09,488.08Z" fill="#272727"/><path d="M660.55,493.3a4.48,4.48,0,0,1-3.4,2.64c-3,.53-9.72,2.3-10.26,7.48l-12.4,85.91a29.75,29.75,0,0,1-3.54-1.76,3.06,3.06,0,0,1-1.46-3.08l16-106.65c-15.61-9.37-54.81.69-54.81.69,5.64,17.52,16.9,82.12,19.06,94.67a5.4,5.4,0,0,1-1.67,5c-4.71,4.14-15.25,5.16-20.79,5.4a4.85,4.85,0,0,1-4.76-3.15s23.07.8,18.91-16.55c0,0-3.12-73.54-27.41-79.44,0,0,27.76-5.9-9.36-22.2,0,0,7.15-2.87,18.63,6.24,0,0,9.13,5.9,21.79-1.38,0,0,16.82-7.29,28.61,1.73,0,0,8.33,7.29,18.74,2.78,0,0,9-8.33,20.81-.7,0,0-24.28,5.55-16.65,13.88C656.61,484.78,662.22,489.15,660.55,493.3Z" fill="#231f20"/><path d="M584,431.69s8.06,11.81,30.26,9.72a180.55,180.55,0,0,1,23.24-2.08s18.27.47,24.23-5.49l-5.15-4.57L590.7,424l-4.17,7Z" fill="#231f20"/><path d="M599.78,305.74l-18,6.74s-22.59,4.65-23.86,23.42c0,0-11.77,64.64-3.18,75,0,0,.95,8.71,19.09,5.22l10.5-2.76v13.76s-.64,5.23,8.58,4.59h59.18s6,.93,6-7.65v-9.54s20.46,10.72,30.26.4a13.13,13.13,0,0,0,3.46-9.08V367.06s.28-27.67-15.15-44a21.39,21.39,0,0,0-6.45-4.57c-7.43-3.48-25.67-12.17-29.52-15.14Z" fill="#f48225" data-secondary="true"/><path d="M474.89,263.6c0,11.76-4.34,22-10.73,27.19a15.25,15.25,0,0,1-9.65,3.66,14.3,14.3,0,0,1-6.86-1.79c-7.88-4.26-13.52-15.66-13.52-29.06,0-17,9.13-30.84,20.38-30.84S474.89,246.57,474.89,263.6Z" fill="#ffb8ca"/><path d="M450.37,323.59c-11.4-11.29-2.72-20.09-2.72-20.09V292.66a14.3,14.3,0,0,0,6.86,1.79,15.25,15.25,0,0,0,9.65-3.66v12.06c6.63,12.23.81,18.75-4.23,21.86A7.79,7.79,0,0,1,450.37,323.59Z" fill="#ffb8ca"/><path d="M447.65,292.66v7.6s6.81,3.56,16.51,0v-9.47A15.67,15.67,0,0,1,447.65,292.66Z" fill="#f9aac0"/><path d="M496,311.06a31.41,31.41,0,0,1-7.41,15.57,42.35,42.35,0,0,0-9.42,20.25c-4.57-7.15-2.86-15.72-2.86-15.72-5.42.29-4.57,15.72-4.57,15.72-3-2.88-3.92-6.85-4-10.29a24.33,24.33,0,0,1,1.68-9.43,59.74,59.74,0,0,0,3.5-13.43A9.63,9.63,0,0,0,466,303.15a7.67,7.67,0,0,0-1.84-.3V290.79c11.75-11.77,10.73-27.19,10.73-27.19a20.13,20.13,0,0,1-5.56-8.34c-3.88-9.38-11.27-11.32-11.27-11.32-14.51-5.4-14.06,5.5-14.06,5.5-4.85-.93-7.44,1.48-8.71,5.15-2.61,7.47.21,20.14.21,20.14,3.07,13.64,12.15,17.93,12.15,17.93V303.5c-16.51,7.77,4.91,37.09,4.91,37.09-9.2,3.94-20-12-20-12-.55,4.17,1.45,9.69,1.56,10-19.28-8-7.27-42.27-7.27-42.27,3.71-7.42-.86-24.86-.86-24.86-8-31.72,8.7-35.14,8.7-35.14,3.19-4.11,8.09-6.68,12.22-8.22a27.8,27.8,0,0,1,18.86-.52c19.31,6.78,20.22,33,20.22,33-.86,14.86,3.14,22.74,5.17,25.72a26.63,26.63,0,0,1,2.93,5.4A37.41,37.41,0,0,1,496,311.06Z" fill="#272727"/><path d="M423.16,344s-6.6,48.57-17.17,57.72a19,19,0,0,1,12.1,3.35,9.56,9.56,0,0,1,4.18-4.36.89.89,0,0,0,.2-1.4l-5.61-5.68S423,367.22,423.16,344Z" opacity="0.2"/><path d="M451.05,394.75s7.18-4.56,18.92,2.24a24.73,24.73,0,0,1,4,2.89c2.42,2.16,8.77,6.93,16.3,5.57,0,0,5,8.63-.84,16l-7.25-.85s-7.72-11.09-27.61-9.93a7.16,7.16,0,0,0,1.23-1.46s3.94.93,5.1-1.87c0,0,1-1.56-1-3.06l-4.09-2.57s2.44-.84-.37-4A11,11,0,0,0,451.05,394.75Z" fill="#ffb8ca"/><path d="M482.19,420.63s6.94-1.18,6.94-6.32l1.15-8.86s5.22,8.44-.84,16Z" fill="#f9aac0"/><path d="M471.66,362.59l-8.27,31.53a30.67,30.67,0,0,1,9.45,4.81s7.89,8.23,17.44,6.52l10.93,1.71,18.85-44.57Z" fill="#fff"/><path d="M458.07,393.25l9.07-33.08h51.21l1.71,2.42h-48.4l-8.27,31.53A23.21,23.21,0,0,0,458.07,393.25Z" fill="#e6e7e8"/><path d="M511.7,589.17s-12.28-.86-16.57,4.85c0,0-3,3.58-9.05,1.1a14.78,14.78,0,0,1-6.63-5.61A46.37,46.37,0,0,1,474,578.59l-9.14-95.71s-16,44-20.86,57.14c0,0-2.08,7.64-1.88,13.75a28.31,28.31,0,0,1-.27,5.52c-.83,5.22-3.11,14.37-8.8,14.39a3.61,3.61,0,0,1-2.43-1c-2.6-2.39-10.95-9.29-17.54-6.06a7.61,7.61,0,0,0-1.35.82,53.46,53.46,0,0,0,5.21-7.06,57.2,57.2,0,0,0,8.77-24.93l3.15-32s1.71-21.4,5.42-34.25c0,0,2.68-8.33,2.36-13.59,0,0-4.13-39,16.12-44.25,0,0,18-4.75,29.44,9.3l4.66,6.61s7.66,4.93,9.61,46.07c0,0,2.39,35.14-4.74,72.86,0,0-3.59,16.71,5,27.42l8.57,10.72Z" fill="#ffb8ca"/><path d="M441.59,577.17a15.22,15.22,0,0,1-9.29,8.12c-10.1,3-20.6-3.27-20.6-3.27-10.28-5.71,0-14.57,0-14.57l1.37-.83c6.59-3.23,14.94,3.67,17.54,6.06a3.61,3.61,0,0,0,2.43,1c5.69,0,8-9.17,8.8-14.39a28.31,28.31,0,0,0,.27-5.52A28.24,28.24,0,0,1,441.59,577.17Z" fill="#272727"/><path d="M515.14,603.35a92.68,92.68,0,0,1-10.32,4.25c-10.3,4.89-16.54-1.08-16.54-1.08v7.32h-4.34c-8.41-10.58-9.95-35.25-9.95-35.25a47,47,0,0,0,5.46,10.93,14.87,14.87,0,0,0,6.63,5.6c6,2.49,8.75-1.32,8.75-1.32,4.29-5.71,16.87-4.63,16.87-4.63,4.89-.32,6.52,3.81,7,7.18A6.76,6.76,0,0,1,515.14,603.35Z" fill="#272727"/><path d="M441.84,559.29c-.83,5.22-3.11,14.37-8.8,14.39a3.61,3.61,0,0,1-2.43-1c-2.6-2.39-10.95-9.29-17.54-6.06a7.61,7.61,0,0,0-1.35.82,53.46,53.46,0,0,0,5.21-7.06c5.94.14,14.34,6.5,14.34,6.5,7.86,6,10.84-13.11,10.84-13.11A28.31,28.31,0,0,1,441.84,559.29Z" fill="#f9aac0"/><path d="M511.7,589.17,506.24,585a27,27,0,0,0-11.07,5.34,5.21,5.21,0,0,1-3.32,1.19c-2.86,0-7.77-1.44-12.14-10,0,0-2.43-3-4.46-24.33l-8.4-78.7a56.87,56.87,0,0,1,8.76-29.16,13.57,13.57,0,0,1,8-6.12c3.33-.86,7.41-.44,10.4,4.71,0,0-1.75-15.4-7.17-20.78,0,0-24.06-4.93-23.46,37.93,0,0-.68,15.14-5.32,26.57l-13,45.35,19.78-54.21L474,578.59a47.53,47.53,0,0,0,5.29,11,15.41,15.41,0,0,0,5.38,4.9c2.77,1.46,6.87,2.59,10.47-.51C495.13,594,498,588.6,511.7,589.17Z" fill="#f9aac0"/><path d="M474.89,263.6c-5.79,0-11.61-9.16-14-13.36a8.31,8.31,0,0,0-5.76-4.21c-6.73-1.16-10.68,6.9-10.68,6.9a8.06,8.06,0,0,0-9.19,1.66c1.27-3.67,3.86-6.08,8.71-5.15,0,0-.45-10.9,14.06-5.5,0,0,7.39,1.94,11.27,11.32A20.13,20.13,0,0,0,474.89,263.6Z" fill="#f9aac0"/><path d="M434.13,338.59s-10.05-6-4.74-31.68c0,0,5-16.78,3.48-26.57,0,0,1.12,2.08,5.12.53,0,0,.82,6.58,9.66,11.79V303.5s-17.33,4.68,4.91,37.09c0,0-7.79,4.94-20-12C432.56,328.59,432,334.62,434.13,338.59Z" fill="#231f20"/><path d="M464.16,302.85V290.79s3.53-2.41,7.54-10.87c0,0,3.11,1.38,6.35-1.83,0,0-1.22,8.74,4.4,14.11a17.13,17.13,0,0,1,4.42,6.42c1.61,4.37,3,11.5.45,20.73a23.29,23.29,0,0,1-5.11,9.35c-2.35,2.62-5.4,6.68-5.92,10.46a25.4,25.4,0,0,1,0-8s-5.43,0-4.57,15.71c0,0-4.73-3-3.87-13.06a24.75,24.75,0,0,1,1.69-6.93C472,320.61,477.65,303.41,464.16,302.85Z" fill="#231f20"/><polygon points="606.85 286.67 606.85 302.1 617.78 313.88 631.28 302.1 631.28 285.38 606.85 286.67" fill="#ffb8ca"/><path d="M604.06,326.09l13.72-8.57,12.64,7.5,10.29-21.64-9.43-2.79v1.5l-13.5,11.79-10.93-11.79-7.07,3.65S604.71,316.24,604.06,326.09Z" fill="#272727"/><path d="M566.89,392.42a17.46,17.46,0,0,1,1.14-4.86,15.56,15.56,0,0,1,2.57-4.35c.29-.32.55-.66.87-.95l1-.85c.34-.26.71-.48,1.06-.73a6.88,6.88,0,0,1,1.13-.62,14.45,14.45,0,0,1,4.94-1.37l-.18.94a12.47,12.47,0,0,0-5.14-1,13.45,13.45,0,0,0-5.18,1.07,16.6,16.6,0,0,0-4.45,3c-.68.6-1.26,1.31-1.91,2L561,386.8c.48-.78,1-1.57,1.47-2.35s1.11-1.48,1.76-2.15a17.25,17.25,0,0,1,4.48-3.36,13.42,13.42,0,0,1,5.5-1.31,13.08,13.08,0,0,1,5.59,1.11l1.56.71-1.74.23a14.34,14.34,0,0,0-4.62,1.21,11.88,11.88,0,0,0-3.87,2.81,15.94,15.94,0,0,0-2.7,4A20.12,20.12,0,0,0,566.89,392.42Z" opacity="0.2"/><path d="M679.58,397.8a28.06,28.06,0,0,0-1.53-4.53,23.61,23.61,0,0,0-2.26-4.17,17.5,17.5,0,0,0-3.14-3.45,14,14,0,0,0-4-2.29l-1.15-.45,1.09-.47a10.39,10.39,0,0,1,5-.78,11.38,11.38,0,0,1,4.73,1.5,15.63,15.63,0,0,1,3.75,3.16c.51.63,1,1.29,1.46,1.94s.83,1.39,1.22,2.09c-.49-.65-1-1.29-1.44-1.93s-1-1.21-1.6-1.77a15.52,15.52,0,0,0-3.76-2.81,11.35,11.35,0,0,0-4.42-1.24,9.66,9.66,0,0,0-4.45.74l-.06-.92a14.52,14.52,0,0,1,4.28,2.51,16.44,16.44,0,0,1,3.17,3.75,23,23,0,0,1,2.07,4.41A22.64,22.64,0,0,1,679.58,397.8Z" opacity="0.2"/><path d="M579.6,345s-2-12,7.82-15.64c0,0,7.82-4.89,10.27-8.8,0,0,18.08,18.08,43,0,0,0,22.74,7.33,24.2,19.8v43.26l-6.8,30.85V424s1.15,7.65-6,7.65H592.89s-8.58.72-8.58-4.59l-.8-52Z" fill="#fff" opacity="0.2"/><path d="M581.92,348.55v-8.44s57.77,13.2,80.89,2.2l-3.28,50.11-5.2,22.25Z" fill="#e6e7e8"/><path d="M590,583.41v7.44a9.19,9.19,0,0,1-3.08,6.89,59.66,59.66,0,0,1-8,5.89,6.2,6.2,0,0,0-2.92,4.18,3.53,3.53,0,0,0,1.63,3.89,4.9,4.9,0,0,0,2.38.64c3.74.11,17.18-.41,30.58-12.07a6.77,6.77,0,0,0,2.26-4c.56-3.58-.54-9.68-3.13-20.67C609.66,575.55,609.53,581.5,590,583.41Z" fill="#f48225" data-secondary="true"/><ellipse cx="298.43" cy="278.15" rx="23.7" ry="37.32" transform="translate(-34.68 42.64) rotate(-7.73)" fill="#ffb8ca"/><path d="M324.86,271.7c3.09-15.79-9.44-25.32-9.44-25.32-.66-11-9-12.28-9-12.28-6.87-4.12-8.42,1.55-8.42,1.55-11.86-4.3-14.76,1.71-14.76,1.71-14.17,2.58-11.69,10.73-11.69,10.73-4.39,5.16.53,8.16.53,8.16-8.16,6.3,2.55,21.9,2.55,21.9s-1.66-19.47,9.68-22.78c0,0,18.21,6.62,24.48-8,0,0,9.24,7.86,12.38,25.61Z" fill="#272727"/><ellipse cx="276.23" cy="282.02" rx="5.22" ry="7.3" transform="translate(-61.13 77.02) rotate(-14.31)" fill="#ffb8ca"/><ellipse cx="321.6" cy="277.32" rx="7.3" ry="5.22" transform="translate(-38.56 502.3) rotate(-72.76)" fill="#ffb8ca"/><path d="M276.57,289.17s6.16,14.14,11.66,17.16c0,0-2.2-6.19,3.29-7.41,0,0,12.05-2.15,17.67-.17a3.58,3.58,0,0,1,2.23,2.39l1,3.27s8.86-13.64,10.06-20.69c0,0,3,27.64-13.72,31.58,0,0-20.13,6.86-27.82-11.44C280.9,303.86,278.64,300.11,276.57,289.17Z" fill="#272727"/><path d="M298.43,364.62s-18.75-37.29-6.88-49.67c0,0,17.87,5.59,25.85-5.5,0,0,8.07,3.57,5.58,16.06a27.58,27.58,0,0,1-3,7.81C316.25,340.24,306.37,357.53,298.43,364.62Z" fill="#fff"/><path d="M288,322.85l5.58,2.44a2.36,2.36,0,0,0,2.77-.67l6.74-8.3a42.46,42.46,0,0,1-11.5-1.37A14.23,14.23,0,0,0,288,322.85Z" fill="#f48225" data-secondary="true"/><path d="M298.43,322a8.32,8.32,0,0,0,3.89,6.2s-7.44,10.34-5.82,32.26l1.93,4.16a68.83,68.83,0,0,0,10.93-13.55l-1.55-23.6s2.61-2.56,2.86-7.78l-5.13-3.6-2.49.23Z" fill="#f48225" data-secondary="true"/><g opacity="0.2"><path d="M256.11,337c.51,4.64.34,9.33,1.19,13.92a89.4,89.4,0,0,0,2.45,10.16,9.27,9.27,0,0,1,.47,3.5c-.23-2.36-1.49-4.4-2.16-6.65a45.52,45.52,0,0,1-1.74-6.85c-.83-4.66-.47-9.4-.21-14.08Z"/></g><g opacity="0.2"><path d="M354.66,340.35a86.06,86.06,0,0,1-3.84,21.43,174.89,174.89,0,0,1,3.84-21.43Z"/></g><path d="M231.61,378.62s.39,15.7,4,20.89a3,3,0,0,0,4.57.48c1.47-1.37,3.38-4.22,3-9.66l-4.65-12.85Z" fill="#f48225" data-secondary="true"/><path d="M231.61,378.62s.39,15.7,4,20.89a3,3,0,0,0,4.57.48c1.47-1.37,3.38-4.22,3-9.66l-4.65-12.85Z" opacity="0.2"/><g opacity="0.2"><path d="M218.6,390.33a36.38,36.38,0,0,1,5.55-6.94c2.13-2,4.52-4.13,7.46-4.77-5.11,2.95-8.69,7.75-13,11.71Z"/></g><path d="M361.52,400.06s6.29,7.93,11.77,7.56a3.51,3.51,0,0,0,3.17-3.16c.53-4.65,1.09-16-5.35-20.18Z" fill="#f48225" data-secondary="true"/><path d="M361.52,400.06s6.29,7.93,11.77,7.56a3.51,3.51,0,0,0,3.17-3.16c.53-4.65,1.09-16-5.35-20.18Z" opacity="0.2"/><g opacity="0.2"><path d="M368.21,382c1.8-2.66,5.88-2.48,8.55-1.35-2.9.32-5.92-.1-8.55,1.35Z"/></g><g opacity="0.2"><path d="M371.11,384.28c2.91-2,7.15-.5,8.95,2.33-2.72-1.65-5.72-2.85-8.95-2.33Z"/></g><path d="M238.54,465.8S257.26,486.23,303.4,506" fill="none" stroke="#ed1c24" stroke-miterlimit="10" stroke-width="0.25"/><path d="M277,497.7s-8.32,33-11.63,42.38c0,0-15.51,56.22-13,63.85,0,0,4.94,9.67,24.6,8.65,1.09.51,10.76.76,11.27-8.9,0,0,8.65-55.2,18.57-80.13L311.88,506l25.76-15.44s12.33-.06,9.69-18.91c0,0-10.66-8.75-28.9-8.46L296.26,474Z" fill="#272727"/><path d="M332.6,513.45l8,3.23s-6.87-9.92,3.56-13c0,0-.74-7.07-3.68-8.5C340.51,495.21,334.5,501.81,332.6,513.45Z" fill="#ffb8ca"/><path d="M375,534.12c-1.08,1.77-3,3.66-5.82,1.66l0,0,0,0c-.46-.56-7.91-9.71-17.27-12.19,0,0-9.25-2.41-11.19-6.87,0,0-7.1-10.12,3.56-13a17,17,0,0,0-1.51-5.89s8.78-1.56,13.78,4.69a11.89,11.89,0,0,1,1.44,2.23,5.91,5.91,0,0,0,1.48,2c3.38,2.8,14.56,12.69,16.37,23.27A5.9,5.9,0,0,1,375,534.12Z" fill="#f48225" data-secondary="true"/><path d="M378.27,533.17c-3.69,8.64-8.77,3-9.13,2.61,2.8,2,4.74.11,5.82-1.66a5.9,5.9,0,0,0,.79-4.15c-1.81-10.58-13-20.47-16.37-23.27a5.91,5.91,0,0,1-1.48-2,11.89,11.89,0,0,0-1.44-2.23c8.51,3.74,18,12.91,18,12.91A17,17,0,0,1,378.27,533.17Z" fill="#272727"/><path d="M347.7,504.63a24.54,24.54,0,0,0-3.73,5.81,15.14,15.14,0,0,0-1,3.23,19.65,19.65,0,0,0-.3,3.47,8.93,8.93,0,0,1-.47-3.56,10.06,10.06,0,0,1,.87-3.54A12.52,12.52,0,0,1,345,507,10.61,10.61,0,0,1,347.7,504.63Z" opacity="0.2"/><path d="M346.24,518.9a10.54,10.54,0,0,1,.17-3.07,15.28,15.28,0,0,1,.85-3,14.19,14.19,0,0,1,3.37-5.12c-.41.95-.87,1.83-1.28,2.75s-.8,1.81-1.16,2.73-.7,1.86-1,2.8S346.54,517.92,346.24,518.9Z" opacity="0.2"/><path d="M265.37,611.78s.32,9.7,11.59.8C277,612.58,267.67,612.37,265.37,611.78Z" fill="#ffb8ca"/><path d="M606.85,295.89v-9.22l24.43-1.29v9.07S621.71,302.18,606.85,295.89Z" fill="#f9aac0"/><ellipse cx="617.78" cy="258.95" rx="22.93" ry="35.5" fill="#ffb8ca"/><ellipse cx="639.99" cy="273.61" rx="6.8" ry="4.93" transform="matrix(0.34, -0.94, 0.94, 0.34, 167.09, 784.31)" fill="#ffb8ca"/><ellipse cx="596.18" cy="273.09" rx="4.93" ry="6.8" transform="translate(-49.22 389.14) rotate(-34.8)" fill="#ffb8ca"/><path d="M649.49,241.26a34.28,34.28,0,0,1-5.41,8.08h0c-4.21,4.56-10.58,8.06-18.06,1a15.7,15.7,0,0,1-1.38-1.56c-6.89-8.5-17.37-6.89-17.37-6.89-14.14.86-12.37,19.51-12.37,19.51l0,0c-.51-.41-10.85-9.14-4.73-25a24.86,24.86,0,0,1,12-13.58c6.24-3.07,15.74-4.31,28.41,3.53a40.47,40.47,0,0,1,9.17,8C642.25,237.27,646,240.78,649.49,241.26Z" fill="#272727"/><path d="M644.08,249.34h0c-4.21,4.56-10.58,8.06-18.06,1a15.7,15.7,0,0,1-1.38-1.56c-6.89-8.5-17.37-6.89-17.37-6.89-14.14.86-12.37,19.51-12.37,19.51l0,0c-.28-.34-4.47-5.58-2.35-14.94a19.66,19.66,0,0,1,9.66-13.17c4.88-2.63,12.26-4,22.23.91C624.42,234.17,639.31,243.31,644.08,249.34Z" fill="#231f20"/><path d="M576.31,346.22s9.22,51.83,10.62,68.45c0,0,39.47,15.64,67.4,0,0,0,5.24-49.62,4.24-66.49C658.57,348.18,603.09,359.67,576.31,346.22Z" fill="#fff"/><path d="M604.56,379.18c-.21-2-6.28-1.16-6.28-1.16-12.72-.71-17.16,3.69-17.16,3.69s-6.36,3.18-4.45,15.9c0,0,1.91,13.05,10.18,11.46,0,0,4.45.63,5.09-7.64,0,0,15.36-1.77,7.84-6,0,0,5.32.47,5.2-2.2,0,0,1.68-3.91-10.13-3.91,0,0,10.93,0,10.22-4.46,0,0,0-1.86-9.08-2C596,382.88,605,383.2,604.56,379.18Z" fill="#ffb8ca"/><path d="M668.8,395.15c-.29,8.38-4.08,13.35-6,15.33a5.24,5.24,0,0,1-2.77,1.58c-4,.81-5.32-3.56-5.71-6.13a2.45,2.45,0,0,0-2.06-2c-12-1.9-6.67-6.34-6.67-6.34-5.45-.72-5.53-1.58-5.53-1.64-3.58-3.59,11.64-5.94,11.64-5.94-11.73-.49-11.14-2-11.14-2-1-3.38,8.22-4,9.63-4.06-10.67.35-9.5-2.54-9.5-2.54-.36-4,18.1,0,18.1,0a11.63,11.63,0,0,1,2.41.83A13.65,13.65,0,0,1,668.8,395.15Z" fill="#ffb8ca"/><path d="M662.81,410.48a5.24,5.24,0,0,1-2.77,1.58c-4,.81-5.32-3.56-5.71-6.13A9.72,9.72,0,0,0,662.81,410.48Z" fill="#f9aac0"/><path d="M599.78,395.45a20.16,20.16,0,0,1-9.07.47,20.44,20.44,0,0,1,9.07-.47Z" fill="#f9aac0"/><path d="M596,389.36a7.12,7.12,0,0,1-5.31,0,7.07,7.07,0,0,1,5.31,0Z" fill="#f9aac0"/><path d="M597.2,382.87a13.63,13.63,0,0,1-7.44,0,13.72,13.72,0,0,1,7.44,0Z" fill="#f9aac0"/><path d="M645.6,397.56a12.82,12.82,0,0,1,7.17-.65,12.81,12.81,0,0,1-7.17.65Z" fill="#f9aac0"/><path d="M649.19,384a5.34,5.34,0,0,1,4.57-.1,5.34,5.34,0,0,1-4.57.1Z" fill="#f9aac0"/><path d="M651.71,390a3.59,3.59,0,0,1,3.7,0,3.59,3.59,0,0,1-3.7,0Z" fill="#f9aac0"/><ellipse cx="434.69" cy="275.71" rx="4.58" ry="6.12" transform="translate(-80.06 277.51) rotate(-32.59)" fill="#ffb8ca"/><ellipse cx="474.89" cy="274.73" rx="6.12" ry="4.58" transform="translate(-34.37 478.83) rotate(-51.89)" fill="#ffb8ca"/><path d="M451.05,394.75s8.45,2.15,7.51,7.43c0,0,6.17,1.61,3.94,6.22,0,0-.4,2.74-7.92,2.3Z" fill="#f9aac0"/><path d="M419,417.61h18.38s6.12,1.82,7.29-3.33c0,0-4.1-2.29-1.86-3.69,0,0,2-1.71,5.14,2,0,0,5.28.72,7.82-3.35,0,0,4.46.91,5.34-1.81a2.77,2.77,0,0,0-1.25-3.12l-4.09-2.57s2.95-.88-1.24-4.85a9.59,9.59,0,0,0-3.52-2.14c-3.09-1-9.26-2.33-14,1.67a10.07,10.07,0,0,0-2,2.47,7.38,7.38,0,0,1-5.89,3.26l-7.38-1.1S413.58,404.76,419,417.61Z" fill="#ffb8ca"/><path d="M444.49,414.31a5.55,5.55,0,0,0,3.5-1.72s-2.43-3.92-5.14-2C442.85,410.59,440.48,411.52,444.49,414.31Z" fill="#f9aac0"/><path d="M443.71,402.18a11.31,11.31,0,0,1,12.1-.44,25.05,25.05,0,0,0-12.1.44Z" fill="#f9aac0"/><path d="M455.81,409.24a25,25,0,0,0-11.39-3.43,11,11,0,0,1,11.39,3.43Z" fill="#f9aac0"/><path d="M272.06,256.25c2.43-3.52,7.23-4.81,11.29-4,.59.13,1.16.3,1.72.48-.6,0-1.18,0-1.76,0a18.65,18.65,0,0,0-11.25,3.54Z" fill="#231f20"/><path d="M271.53,248.09c4-2.34,9.24-1.5,13.29.4,3.85,2.26,8.19,3.76,12.72,3a13.42,13.42,0,0,1-3.35.64,18,18,0,0,1-9.8-2.74c-3.95-1.86-8.64-2.87-12.86-1.31Z" fill="#231f20"/><path d="M283.22,237.36c6.3.94,12.95,5,14.69,11.49-3.05-5.75-8.81-9.16-14.69-11.49Z" fill="#231f20"/><path d="M298,235.65c4.14,1.83,8.55,6.54,6.78,11.36.23-4.84-3.52-8.31-6.78-11.36Z" fill="#231f20"/><path d="M291.55,315l-17.69,8.36s-1.58,16.17,3.6,15.05l7.21-4.29s1,1.7-2.85,5.4a3.44,3.44,0,0,0-1,2.72,22.38,22.38,0,0,0,1.81,7s5.69,19.83,11.1,25.24c0,0,3-8.09,4.74-9.79C298.43,364.62,279.5,328.51,291.55,315Z" fill="#f48225" data-secondary="true"/><path d="M291.55,315l-17.69,8.36s-1.58,16.17,3.6,15.05l7.21-4.29s1,1.7-2.85,5.4a3.44,3.44,0,0,0-1,2.72,22.38,22.38,0,0,0,1.81,7s5.69,19.83,11.1,25.24c0,0,3-8.09,4.74-9.79C298.43,364.62,279.5,328.51,291.55,315Z" fill="#fff" opacity="0.2"/><path d="M293.17,390.33s-2.37-18.21,5.26-25.71c0,0,8.24-6.5,21.6-31.3,0,0,6.87-12.42,1.81-19.23,0,0,16.9,2.46,15,9.22,0,0-1.1,12.39-11.26,11.71,0,0,10.8,2.51-.27,14C325.29,349,301.4,370.84,293.17,390.33Z" fill="#f48225" data-secondary="true"/><path d="M293.17,390.33s-2.37-18.21,5.26-25.71c0,0,8.24-6.5,21.6-31.3,0,0,6.87-12.42,1.81-19.23,0,0,16.9,2.46,15,9.22,0,0-1.1,12.39-11.26,11.71,0,0,10.8,2.51-.27,14C325.29,349,301.4,370.84,293.17,390.33Z" fill="#fff" opacity="0.2"/><path d="M305.32,316.11l10,6.82a2.08,2.08,0,0,0,2.59-.15l5.62-4.73a12.32,12.32,0,0,0-6.09-8.6S313.84,314.52,305.32,316.11Z" fill="#f48225" data-secondary="true"/><path d="M238.54,355.19s14.82,44.48,13.72,63.15c0,0,12.18,17.41,44,31.57l2.16.27-4.88-21a54.06,54.06,0,0,0-1.67-5.71c-2.38-6.65-8.28-24.35-5.85-30.1,0,0-10.86-7-18.1-15.33a47.87,47.87,0,0,0-4.64-4.59C257,367.84,243.13,356,238.54,355.19Z" fill="#fff"/><path d="M352.74,370.57s4.94,28.27,10.16,44.75c0,0,3.84,12.07,3,18.66,0,0-15.1-3.57-26.91,3.57L302,452.38s-1.54.27-3.52-2.2l-4.85-20.89a54.23,54.23,0,0,0-1.76-6c-2.47-6.79-8.42-24.47-5.79-30l29.83-10.61S341.67,371.21,352.74,370.57Z" fill="#fff"/><path d="M286,393.35s50.33-28,64.79-29.46v6.88a117.57,117.57,0,0,0-14.95,4S298,389.92,286,393.35Z" fill="#e6e7e8"/><path d="M244.66,355.19c9,3.26,16.9,9.1,23.91,15.54a100,100,0,0,1,13.75,16.5c1.3,2,2.5,4.07,3.71,6.12-1.4-1.93-2.68-3.93-4.11-5.84-9.82-13.27-22.18-25.24-37.26-32.32Z" fill="#e6e7e8"/><path d="M350.28,384.89a1.78,1.78,0,0,1,1.33-.61l3.88.67s-19.44,11.6-15.16,13.94a9,9,0,0,0,4.29-1s-2.27,3.79,8.12-.83l5.9-3.73s0,.15-.13.39a15.83,15.83,0,0,1-7.28,8.31c-1.32.73-2.52,1.71-2.06,2.68,0,0,.82,4.18,12.35-4.67,0,0,9.2,4.65,12.51-4.1,0,0,2.7-9.55-8-15.29,0,0-16.15-6.53-19.27,0,0,0-9,7.88-5.45,10.61C341.31,391.28,343.1,393,350.28,384.89Z" fill="#ffb8ca"/><path d="M344.62,397.91a52.34,52.34,0,0,1,11.74-8.75,52,52,0,0,1-11.74,8.75Z" fill="#f9acc2"/><path d="M231.61,379.94c0-1.13,3.71-3.47,6.94-9.83a5.67,5.67,0,0,1,6.08-3.05,21,21,0,0,1,8.44,3.51s6.15,3.44,3.4,6.31c0,0-2.06.78-4.66-1.73a4.48,4.48,0,0,0-4-1.19l-2.24.45s8.59,4.76,12.58,5c0,0,5.08,1,3.44,3.76,0,0-1.4,3-5.51,0,0,0,3.58,3.56-7.12,3,0,0-1.92.73,1,1.55s8.33.18,8.88,2.56c0,0,.59,5.19-14.73.31a1.74,1.74,0,0,0-1.63.29c-1.16.93-3.6,2.62-5.77,2.48a.47.47,0,0,0-.51.4c-.09.91-.46,2.9-1.83,3.27C234.38,397.08,232.08,393.6,231.61,379.94Z" fill="#ffb8ca"/><path d="M242.54,381.38c2.15-1.51,5.11-1.31,7.48-.44.79.37,2.13.82,3,1.13,1,.36,2.06.71,3.09,1.13-4.75.07-8.75-3.24-13.55-1.82Z" fill="#f9aac0"/><path d="M243.23,385.44a19.77,19.77,0,0,0,5.74.78,4,4,0,0,1-5.74-.78Z" fill="#f9aac0"/><path d="M342.66,493l-24.16-11.7L264.94,455a83.79,83.79,0,0,1-12.27-7.13c-3.11-2.25-9.2-4.86-18.62-1.39,0,0-13.44,3.19-9.82,16.22a20.47,20.47,0,0,0,6,9.49,115.2,115.2,0,0,0,50.33,26.44l51.63,16.79S334.52,499.89,342.66,493Z" fill="#272727"/><g opacity="0.2"><path d="M491.73,360.17c-3.17-4.56-1.82-11.28,0-16.15-.45,5.35-1.84,11,0,16.15Z"/></g><path d="M298.43,322a8.32,8.32,0,0,0,3.89,6.2s-7.44,10.34-5.82,32.26l1.93,4.16a60.49,60.49,0,0,0,10.93-13.55l-1.55-23.6s2.61-2.56,2.86-7.78l-5.13-3.6-2.49.23Z" opacity="0.2"/><path d="M452.85,267.78a48.6,48.6,0,0,1-1.39,8.14l-.1-.31a36,36,0,0,1,2.71,2.94,41.3,41.3,0,0,1-3.29-2.56,48.39,48.39,0,0,1,2.07-8.21Z" fill="#f9aac0"/><ellipse cx="443.36" cy="265.8" rx="1.3" ry="1.99" fill="#272727"/><ellipse cx="464.16" cy="265.8" rx="1.3" ry="1.99" fill="#272727"/><path d="M437.37,260.86s6.41-.58,8.82-.15a.8.8,0,0,0,.89-.54c.31-.94.24-2.46-3.72-2.09C443.36,258.08,439.28,258.6,437.37,260.86Z" fill="#272727"/><path d="M470.37,260.86s-6.4-.58-8.81-.15a.8.8,0,0,1-.89-.54c-.31-.94-.25-2.46,3.71-2.09C464.38,258.08,468.46,258.6,470.37,260.86Z" fill="#272727"/><path d="M447.19,281.68h13.36a6.75,6.75,0,0,1-4.88,4.48,7.06,7.06,0,0,1-3.2,0A7,7,0,0,1,447.19,281.68Z" fill="#fff"/><path d="M615.49,265.83a60.28,60.28,0,0,1-1.56,8.95l-.1-.31c1,1,2,2.08,3,3.21-1.25-.89-2.44-1.84-3.59-2.84a59.65,59.65,0,0,1,2.25-9Z" fill="#f9aac0"/><path d="M606.47,263.64c0,2.84-2.89,2.84-2.86,0S606.5,260.8,606.47,263.64Z" fill="#272727"/><path d="M629.37,263.64c0,2.84-2.89,2.84-2.86,0S629.4,260.8,629.37,263.64Z" fill="#272727"/><path d="M598.45,258.2s7-.64,9.71-.16a.86.86,0,0,0,1-.6C610.1,253.9,602.13,254.38,598.45,258.2Z" fill="#272727"/><path d="M634.78,258.2s-7-.64-9.71-.16a.87.87,0,0,1-1-.6C623.13,253.9,631.1,254.38,634.78,258.2Z" fill="#272727"/><path d="M609.26,281.13H624C623.21,286.33,612.15,289.14,609.26,281.13Z" fill="#fff"/><path d="M297.31,281.47a58.5,58.5,0,0,1-1.56,8.91l-.1-.32c1,1,2.05,2.07,3,3.19a44.4,44.4,0,0,1-3.59-2.81,58.86,58.86,0,0,1,2.25-9Z" fill="#f9aac0"/><ellipse cx="286.86" cy="279.29" rx="1.43" ry="2.18" fill="#272727"/><ellipse cx="309.76" cy="279.29" rx="1.43" ry="2.18" fill="#272727"/><path d="M280.27,273.88s7.05-.63,9.71-.16a.86.86,0,0,0,1-.59c.35-1,.27-2.69-4.09-2.29C286.86,270.84,282.37,271.41,280.27,273.88Z" fill="#272727"/><path d="M316.6,273.88s-7.05-.63-9.71-.16a.87.87,0,0,1-1-.59c-.34-1-.26-2.69,4.1-2.29C310,270.84,314.5,271.41,316.6,273.88Z" fill="#272727"/><path d="M432.88,273.17a7.62,7.62,0,0,0,2.41,5.38c-2.48-.17-3.77-3.41-2.41-5.38Z" fill="#f9aac0"/><path d="M594.24,270.4a11,11,0,0,0,.65,3,5,5,0,0,0,.71,1.24c.29.4.66.74,1,1.18a3,3,0,0,1-1.6-.63,3.26,3.26,0,0,1-1.08-1.4,3.88,3.88,0,0,1-.27-1.74A3.19,3.19,0,0,1,594.24,270.4Z" fill="#f9aac0"/><path d="M641.83,270.92a3.29,3.29,0,0,1,.54,1.62,3.86,3.86,0,0,1-.27,1.73,3.29,3.29,0,0,1-1.09,1.41,3,3,0,0,1-1.59.62,15.17,15.17,0,0,0,1.05-1.18,4.91,4.91,0,0,0,.71-1.23A11.1,11.1,0,0,0,641.83,270.92Z" fill="#f9aac0"/><path d="M473.23,276.91a10.42,10.42,0,0,0,3.21-4.77,3.64,3.64,0,0,1-3.21,4.77Z" fill="#f9aac0"/><path d="M292.82,301.69a16.67,16.67,0,0,0,3.54.88,14.55,14.55,0,0,0,3.55.07,15.56,15.56,0,0,0,3.48-.75c.58-.16,1.12-.43,1.7-.64s1.09-.54,1.68-.77a17.11,17.11,0,0,1-1.45,1.2,11.8,11.8,0,0,1-5.31,2,10.62,10.62,0,0,1-3.81-.31A8.66,8.66,0,0,1,292.82,301.69Z" fill="#fff"/><path d="M323.05,274.2a3.19,3.19,0,0,1,.92,1.44,3.65,3.65,0,0,1,.17,1.74,3.28,3.28,0,0,1-.7,1.63,3,3,0,0,1-1.39,1c.26-.51.54-.94.72-1.4a4.83,4.83,0,0,0,.38-1.37A10.9,10.9,0,0,0,323.05,274.2Z" fill="#f9aac0"/><path d="M273.45,278.61a11.22,11.22,0,0,0-.1,3,4.85,4.85,0,0,0,.39,1.37,13.51,13.51,0,0,0,.72,1.41,3.07,3.07,0,0,1-1.39-1,3.27,3.27,0,0,1-.7-1.63,3.82,3.82,0,0,1,.16-1.75A3.19,3.19,0,0,1,273.45,278.61Z" fill="#f9aac0"/><path d="M134,331.41c-.08.07-2.8-6.73-2.92-7.17-1.41-5.2-1.09-16.06,4-19.35a7.14,7.14,0,0,1,9.82,2.36c.12.21.24.42.35.64,2,3.78.74,8.88-1,12.51C142.15,324.68,134,331.41,134,331.41Z" fill="#008fa3"/><path d="M241.15,315c-4,2.42-14.57,3.53-14.57,3.53s1.37-7.16,1.52-7.6c1.68-5.11,7.94-14,14-13.95A7.13,7.13,0,0,1,249,304.3a6.48,6.48,0,0,1-.06.77C248.42,309.3,244.65,312.88,241.15,315Z" fill="#008fa3"/><path d="M250.43,338.26c-.08.25-.17.49-.27.73-1.6,3.87-6.23,6.32-10.1,7.4-4.36,1.2-14.07-.31-14.85-.43a124.89,124.89,0,0,1-3.66,16.43c-.91,3.16-1.92,6.3-3,9.44.69-1.37,1.32-2.58,1.43-2.75,3-4.47,11.36-11.38,17.16-9.75a7.14,7.14,0,0,1,4.71,8.93,5.89,5.89,0,0,1-.26.7c-1.42,3.59-5.36,5.94-9,7.16-.37.13-.74.24-1.1.34-3.81,1.06-11.94,0-14.3-.34a.53.53,0,0,1-.12,0s0,0,0,0c-.41,1.18-.81,2.39-1.23,3.57-2,5.75-4.06,11.46-5.89,17.14-.65,2-1.21,4-1.78,6,.62-1.19,1.15-2.2,1.24-2.35,3-4.48,11.36-11.4,17.16-9.77a7.14,7.14,0,0,1,4.69,8.92c-.08.24-.17.49-.27.73-1.56,4-6.19,6.41-10.06,7.48s-11.42.08-14-.29a3.18,3.18,0,0,0-.08.33c-.49,1.95-.94,3.89-1.38,5.8-.25,1.39-.59,2.7-.76,4.1s-.41,2.77-.61,4.11c-.28,2.64-.59,5.36-.81,7.94-.16,1.79-.28,3.49-.41,5.2.62-2,1.92-5.88,2.06-6.19a21.75,21.75,0,0,1,1.91-3.22c3.2-4.55,8.79-9.62,13.57-9a7.13,7.13,0,0,1,6,8.1,7,7,0,0,1-.16.77c-.94,4.15-5.14,7.27-8.81,8.93-2.51,1.13-7.17,1.57-10.59,1.73-2,.09-3.62.09-4.06.09-.2,2.86-.37,5.62-.49,8.25-.08,1.74-.15,3.42-.2,5-.12,3.65-.27,10.73-.34,15.77-1.3-.59-2.59-1.2-3.88-1.83.14-4.82.33-10.71.5-13.94.1-1.68.2-3.44.33-5.25.19-2.89.45-6,.75-9.16a79.34,79.34,0,0,1-8.66-2.78c-2.63,3.7-10,8.58-10.93,9.2,1.4,2.49,2.79,4.89,4.14,7.13.17.3.34.57.51.86,2.37,4,4.6,7.52,6.6,10.62-2.18-1.1-4.35-2.23-6.51-3.37q-1.75-3-3.65-6.3c-.18-.31-.36-.63-.53-.95-1.27-2.25-2.58-4.64-3.88-7.11-.93.32-7.42,2.54-12.08,3a12.06,12.06,0,0,1-2.39,0c-4-.37-9-2-11.22-5.59a7.16,7.16,0,0,1,2-9.91c.21-.13.43-.26.65-.37,5.42-2.63,14.9,2.69,18.61,6.59.22.22,2.32,3,3.62,4.75-.6-1.15-1.2-2.27-1.81-3.47-1.22-2.33-2.37-4.71-3.61-7.27l-1.69-3.8c-.59-1.26-1.06-2.68-1.6-4-1.18-3.13-2.23-6.37-3.21-9.65-2.06,1.06-9.43,4.72-13.46,5s-9.19-.59-11.94-3.84a7.12,7.12,0,0,1,.46-10.06,5.68,5.68,0,0,1,.6-.5c5-3.41,15.13.42,19.4,3.69.26.21,3.06,2.91,4.57,4.42-.58-2-1.16-3.95-1.68-6-1.49-5.83-2.82-11.79-4.18-17.71-.41-1.81-.85-3.62-1.27-5.43-.73.39-9.4,4.94-13.91,5.2-4,.23-9.19-.6-11.94-3.85a7.08,7.08,0,0,1-1.33-7.47,6.91,6.91,0,0,1,1.79-2.59,7,7,0,0,1,.6-.48c4.69-3.22,13.88,0,18.53,3.07.31.21.6.41.87.62s4.34,4.13,5.31,5.16c-.46-1.94-.92-3.88-1.41-5.78s-1-4-1.59-6c-.63-2.22-1.32-4.4-2.07-6.56-1-3-2.16-5.91-3.4-8.79-.34.18-9.36,5-14,5.24-4,.23-9.19-.6-11.94-3.85a7.12,7.12,0,0,1,.46-10.06,7,7,0,0,1,.6-.48c5-3.42,15.13.41,19.4,3.69.28.21,3.34,3.16,4.76,4.6l.29-.19a92.67,92.67,0,0,0-8.19-14.19c-1.7-2.47-3.46-4.75-5.23-6.94-1.59,1.06-8.9,5.85-13,6.55s-9.2.42-12.29-2.5a7.14,7.14,0,0,1-.79-10.06c.19-.21.38-.42.59-.61,4.56-3.94,15.09-1.25,19.69,1.55.25.16,2.62,2,4.33,3.32-.82-1-1.64-2-2.43-2.89-3-3.45-5.93-6.42-8.55-9-1.51-1.48-2.9-2.77-4.22-4-2.1.24-10.59,1.06-14.51-.2-3.19-1-6.71-2.94-8.68-5.78a9,9,0,0,1-1.07-2.1,7.13,7.13,0,0,1,4-9.23,5.15,5.15,0,0,1,.76-.24c5.86-1.4,14,5.84,16.75,10.44.06.09.27.51.56,1.13.94,2,2.72,5.92,2.64,5.93h-.13c1.29,1.13,2.66,2.37,4.13,3.74,2.69,2.56,5.7,5.46,8.77,8.87A125.59,125.59,0,0,1,139.91,339a92.88,92.88,0,0,1,8.58,14.13l.07.18c-.25-1.74-.8-6.64-.8-7a28,28,0,0,1,3.43-12.38c1.42-2.5,3.27-4.51,5.5-5.22a7.13,7.13,0,0,1,8.83,4.86c.07.24.12.49.17.74.88,4.16-1.63,8.75-4.27,11.8-2.12,2.42-7.2,5.17-10.23,6.69-1.26.63-2.18,1.05-2.38,1.14q1.26,2.75,2.38,5.52,2,5,3.62,10.22c.68,2.13,1.31,4.3,1.91,6.48l.81,3c-.16-1.43-.3-2.7-.32-3v-.05c0-5.38,3.19-15.77,8.93-17.61a7.14,7.14,0,0,1,8.83,4.88,6,6,0,0,1,.17.73c.88,4.16-1.63,8.76-4.26,11.8a2.8,2.8,0,0,0-.22.25c-2.81,3-10,6.5-12,7.4.31,1.23.64,2.46,1,3.69,1.48,5.91,2.94,11.81,4.54,17.55.57,2,1.2,4,1.82,6-.15-1.34-.26-2.49-.26-2.67,0-5.38,3.18-15.76,8.92-17.6a7.12,7.12,0,0,1,8.83,4.87c.07.23.12.48.17.73.88,4.17-1.63,8.77-4.26,11.8s-9.49,6.37-11.87,7.5c.7,2,1.4,4,2.16,5.92.56,1.28,1,2.58,1.63,3.83l1.77,3.78c1.22,2.35,2.45,4.79,3.69,7,.86,1.6,1.7,3.09,2.54,4.59-.59-2-1.65-6-1.7-6.3a27.59,27.59,0,0,1,2-13.83,8.44,8.44,0,0,1-.1-1.59,7.13,7.13,0,0,1,7.13-7.14,6.28,6.28,0,0,1,.75,0c6,.79,10.93,10.47,11.89,15.77.06.31.29,3.77.4,5.95.13-1.3.24-2.56.39-3.88.28-2.63.63-5.25,1-8.07.22-1.36.46-2.73.69-4.11s.59-2.81.88-4.21c.74-3.28,1.65-6.55,2.64-9.84-2.3-.25-10.47-1.25-14-3.28s-7.34-5.56-7.85-9.79a7.14,7.14,0,0,1,6-8.14,4.76,4.76,0,0,1,.75-.07c6-.11,12.39,8.69,14.14,13.77.1.32,1,4.12,1.37,6.2.39-1.27.78-2.53,1.19-3.78.23-.7.46-1.41.71-2.11,2-5.69,4.14-11.39,6.28-17.08.37-1,.73-2,1.09-2.94.28-.76.56-1.54.84-2.29-.82-.08-10.55-1.07-14.46-3.34-3.47-2-7.34-5.56-7.85-9.79a7.13,7.13,0,0,1,6-8.14,6.31,6.31,0,0,1,.76-.07c6-.12,12.39,8.69,14.14,13.78.13.37,1.33,5.84,1.57,7.24,1.41-3.84,2.78-7.68,4-11.53a126.23,126.23,0,0,0,3.9-15.81c-.38,0-10.54-1-14.55-3.34-3.47-2-7.33-5.57-7.84-9.8a7.12,7.12,0,0,1,6-8.14,4.77,4.77,0,0,1,.76-.07c6-.11,12.39,8.69,14.14,13.77.11.34,1,4.5,1.43,6.49H224a92.5,92.5,0,0,0,1-16.37c0-3-.26-5.88-.53-8.66-1.91,0-10.65,0-14.48-1.74-3.68-1.62-7.91-4.73-8.88-8.86,0-.17-.08-.32-.11-.49a7.15,7.15,0,0,1,5.14-8.27l.74-.16c4.62-.58,10,4.05,13.26,8.43a22.66,22.66,0,0,1,2.31,3.73c.13.26,1.1,3.08,1.77,5.15-.14-1.25-.26-2.56-.42-3.76-.23-1.77-.49-3.49-.78-5.12-.43-2.54-.91-4.93-1.37-7.13s-.89-3.9-1.32-5.63c-1.88-1-9.42-5-12-8.18s-4.84-7.83-3.79-12a7.14,7.14,0,0,1,8.5-5.44c.24.05.48.12.72.19,5.66,2.07,8.43,12.59,8.22,18,0,.48-1.12,7.66-1.23,7.66l-.11-.05c.45,1.64.91,3.43,1.38,5.39.51,2.22,1.05,4.62,1.55,7.19.31,1.61.61,3.3.88,5A126.9,126.9,0,0,1,226,328.7a93,93,0,0,1-.64,16.51v.21c.75-1.6,3-6,3.21-6.31,3-4.49,11.36-11.4,17.16-9.78A7.14,7.14,0,0,1,250.43,338.26Z" fill="#008fa3"/><path d="M759.64,330.59s1.64-3.92,1.71-4.18c.82-3,.63-9.36-2.31-11.28a4.15,4.15,0,0,0-5.72,1.38,2.42,2.42,0,0,0-.21.39c-1.14,2.2-.43,5.18.58,7.29C754.88,326.67,759.64,330.59,759.64,330.59Z" fill="#008fa3"/><path d="M717,335.86c2.36,1.42,8.49,2.06,8.5,2.06s-.81-4.17-.89-4.43c-1-3-4.63-8.15-8.15-8.13a4.17,4.17,0,0,0-4,4.28c0,.15,0,.31,0,.46C712.8,332.53,715,334.62,717,335.86Z" fill="#008fa3"/><path d="M783.64,316.2c-.82,2.35-3.41,3.86-5.69,4.6s-7.23.25-8.46.12c-.76.7-1.57,1.46-2.45,2.32-1.54,1.52-3.26,3.26-5,5.26-.41.53-.94,1.13-1.41,1.69,1-.78,2.38-1.85,2.52-1.94,2.68-1.62,8.82-3.19,11.48-.9a2.13,2.13,0,0,1,.3.3,4.17,4.17,0,0,1-.36,5.89c-1.81,1.7-4.76,1.87-7.17,1.46s-6.67-3.2-7.6-3.82c-1,1.27-2,2.6-3,4.05A54.29,54.29,0,0,0,752,343.5l.17.12c.83-.85,2.61-2.57,2.77-2.7,2.49-1.91,8.42-4.15,11.31-2.15a2.16,2.16,0,0,1,.33.27,4.16,4.16,0,0,1,.29,5.89c-1.64,1.89-4.66,2.37-7,2.23-2.7-.15-7.95-2.94-8.15-3.05a73.63,73.63,0,0,0-3.19,8.94c-.65,2.26-1.22,4.57-1.77,6.89.57-.59,2.91-2.85,3.1-3,2.48-1.91,8.41-4.15,11.3-2.15a2.39,2.39,0,0,1,.35.28,4.15,4.15,0,0,1,.27,5.87,5.13,5.13,0,0,1-.72.68,9.74,9.74,0,0,1-6.28,1.56,17,17,0,0,1-5.11-1.56c-1.54-.67-2.8-1.33-3-1.44-.11.48-.23,1-.34,1.44s-.27,1.15-.4,1.73c-.79,3.45-1.56,6.92-2.44,10.32-.33,1.18-.67,2.33-1,3.48.88-.88,2.51-2.45,2.66-2.57,2.49-1.91,8.41-4.16,11.31-2.16a2.16,2.16,0,0,1,.33.27,4.16,4.16,0,0,1,.29,5.89c-1.65,1.89-4.65,2.36-7,2.23s-6.65-2.27-7.85-2.89c-.57,1.92-1.18,3.8-1.87,5.63-.32.78-.59,1.6-.93,2.33s-.66,1.48-1,2.22c-.72,1.49-1.39,2.88-2.1,4.25l-1.06,2c.76-1,2-2.63,2.11-2.76,2.08-2.17,7.22-5.11,10.42-4a3.25,3.25,0,0,1,.43.18,3.38,3.38,0,0,1,.41.24,4.15,4.15,0,0,1,1.13,5.76c-1.3,2.11-4.21,3-6.54,3.26a17.82,17.82,0,0,1-5.46-.84c-1.47-.4-2.68-.81-3-.91-.87,1.63-1.74,3.22-2.57,4.69l-.66,1.15c-1.54,1.19-3.1,2.38-4.69,3.55,1.1-1.71,2.29-3.64,3.55-5.75.78-1.31,1.59-2.71,2.41-4.16-.56-.37-4.84-3.21-6.37-5.37a48.23,48.23,0,0,1-5,1.67c.17,1.85.33,3.65.44,5.34.18,2.67.28,7.62.34,11.64q-1.12.83-2.28,1.62c0-4.18,0-10.14-.18-13.14-.07-1.53-.17-3.15-.28-4.81-.69,0-6.2,0-8.55-1.06-2.13-1-4.59-2.79-5.13-5.21a3.58,3.58,0,0,1-.09-.45,4.15,4.15,0,0,1,3.48-4.72c3.46-.42,7.68,4.3,9,7.14.09.19.84,2.45,1.2,3.62-.07-1-.14-2-.24-3-.12-1.51-.31-3.09-.47-4.62-.12-.79-.25-1.58-.35-2.4s-.3-1.59-.45-2.4c-.24-1.17-.55-2.37-.85-3.57-1.52.22-5.92.79-8.18.17s-5-2.05-5.86-4.36l-.15-.4a4.17,4.17,0,0,1,2.72-5.23c3.37-.95,8.26,3.08,10,5.7,0,.08.36.67.72,1.38-.29-1.17-.62-2.33-1-3.49-.76-2.38-1.59-4.77-2.44-7.17-.32-.94-.66-1.89-1-2.83-.25-.7-.48-1.4-.72-2.1-1.28.21-6.15.84-8.41.21s-5-2.06-5.87-4.36a3.12,3.12,0,0,1-.15-.43,4.15,4.15,0,0,1,2.73-5.2c3.38-1,8.27,3.08,10,5.7.06.09.43.8.84,1.59-.62-1.83-1.21-3.66-1.74-5.5a75.2,75.2,0,0,1-2.13-9.58c-.45.07-6.11,1-8.66.25-2.26-.68-5-2.11-5.62-4.6a3.12,3.12,0,0,1-.15-.43,4.13,4.13,0,0,1,2.72-5.19c3.37-.95,8.26,3.08,10,5.69.12.19,1.43,2.75,1.87,3.68v-.11a54.43,54.43,0,0,1-.38-9.63,74.28,74.28,0,0,1,.89-8.57c.42-2.64.93-5,1.42-7.14.27-1.14.54-2.14.8-3.14h-.07c-.06,0-.71-4.18-.71-4.46-.12-3.13,1.49-9.26,4.79-10.46a3.81,3.81,0,0,1,.45-.13,4.15,4.15,0,0,1,4.93,3.19c.61,2.43-.7,5.13-2.21,7s-5.91,4.2-7,4.77c-.26,1-.51,2.08-.77,3.28-.44,2.14-.92,4.51-1.26,7.14-.09.7-.16,1.46-.24,2.2.36-1.2.93-2.85,1-3,1.34-2.84,5.59-7.54,9.07-7.08a3.43,3.43,0,0,1,.44.09,4.16,4.16,0,0,1,2.93,5.1c-.57,2.41-2.93,4.17-5.17,5.17s-7.33,1-8.45,1c-.16,1.62-.31,3.3-.31,5.05a54.4,54.4,0,0,0,.58,9.54h.21c.22-1.16.76-3.58.83-3.78,1-2.93,4.73-8.07,8.24-8a3.42,3.42,0,0,1,.46,0,4.15,4.15,0,0,1,3.45,4.75c-.29,2.46-2.57,4.53-4.57,5.71-2.33,1.35-8.26,1.95-8.48,1.95a73.28,73.28,0,0,0,2.28,9.21c.69,2.24,1.49,4.48,2.31,6.72.14-.81.85-4,.92-4.22,1-2.94,4.73-8.07,8.25-8a3.27,3.27,0,0,1,.44,0,4.15,4.15,0,0,1,3.47,4.75c-.3,2.46-2.57,4.52-4.57,5.7-2.28,1.33-8,1.95-8.44,1.95l1.13,3.05,1.29,3.42c.81,2.18,1.61,4.36,2.37,6.53.4,1.15.75,2.3,1.11,3.45.24-1.22.74-3.43.8-3.62a16.31,16.31,0,0,1,4.46-6.36,5.94,5.94,0,0,1,3.78-1.64,3.42,3.42,0,0,1,.45,0,4.17,4.17,0,0,1,3.47,4.75c-.3,2.46-2.55,4.51-4.58,5.7s-6.79,1.77-8.14,1.92c.55,1.91,1.11,3.82,1.55,5.73.16.82.38,1.66.51,2.46s.27,1.6.4,2.39c.22,1.64.42,3.17.59,4.7.08.78.15,1.51.22,2.27.07-1.28.24-3.29.24-3.47.56-3.09,3.45-8.73,6.93-9.19a3.44,3.44,0,0,1,.46,0,4.15,4.15,0,0,1,4.13,4.17,4.79,4.79,0,0,1-.06.92,16,16,0,0,1,1.15,8.06c0,.2-.66,2.51-1,3.68.48-.88,1-1.75,1.48-2.67.72-1.32,1.44-2.74,2.15-4.11.31-.73.63-1.46,1-2.2s.63-1.49,1-2.24c.45-1.11.86-2.29,1.27-3.45-1.39-.66-5.43-2.6-6.92-4.37s-3-4.45-2.49-6.88a3.15,3.15,0,0,1,.11-.44,4.14,4.14,0,0,1,5.14-2.82c3.35,1.07,5.21,7.12,5.21,10.26,0,.1-.07.77-.16,1.55.36-1.15.73-2.3,1.06-3.48.94-3.35,1.79-6.79,2.65-10.23l.36-1.38c.06-.26.13-.51.2-.77-1.18-.55-5.59-2.7-7.13-4.47s-3-4.45-2.49-6.87c0-.15.06-.29.1-.43a4.16,4.16,0,0,1,5.15-2.84c3.35,1.07,5.21,7.13,5.21,10.27,0,.11-.09.9-.19,1.78.5-1.86,1-3.71,1.59-5.53a76.43,76.43,0,0,1,3.5-9.18c-.41-.18-5.62-2.57-7.35-4.57-1.49-1.77-3-4.45-2.49-6.87,0-.15.06-.29.1-.42a4.16,4.16,0,0,1,5.16-2.85c3.34,1.07,5.2,7.13,5.2,10.26,0,.22-.29,2.85-.45,4a53.82,53.82,0,0,1,5-8.2,72.77,72.77,0,0,1,5.47-6.66c1.78-2,3.54-3.67,5.11-5.17.86-.8,1.65-1.51,2.4-2.17h-.07c0-.14,1.72-3.89,1.86-4.12,1.63-2.68,6.36-6.9,9.77-6.08a2.16,2.16,0,0,1,.43.14A4.14,4.14,0,0,1,783.64,316.2Z" fill="#008fa3"/></svg>