<svg id="e95123e1-76bb-4dcc-a9e9-1268a25817d8" data-name="Layer 1" xmlns="http://www.w3.org/2000/svg" width="865.76" height="682.89" viewBox="0 0 865.76 682.89"><path d="M516.05,300.48V556.19c0,16.89-14.4,30.58-32.15,30.58H124.76c-17.75,0-32.14-13.69-32.14-30.58V300.48s8.14,18.43,30,18.86H489.5a28.55,28.55,0,0,0,16-4.69A26.46,26.46,0,0,0,516.05,300.48Z" fill="#686175" data-primary="true"/><path d="M516.05,285.91a30.86,30.86,0,0,1-30.86,30.86H123.47a30.86,30.86,0,0,1,0-61.72H485.19A30.86,30.86,0,0,1,516.05,285.91Z" fill="#686175" data-primary="true"/><rect x="92.62" y="211.77" width="423.43" height="3.86" fill="#ccc"/><rect x="92.62" y="211.77" width="213.85" height="3.86" fill="#2f2e41"/><rect x="199.55" y="159.05" width="212.36" height="33" fill="#ccc"/><rect x="133.76" y="279.05" width="60.86" height="14.57" fill="#fff"/><rect x="133.76" y="339.05" width="102" height="14.57" fill="#fff"/><rect x="133.76" y="388.77" width="148.29" height="14.57" fill="#fff"/><rect x="133.76" y="438.48" width="99.71" height="14.57" fill="#fff"/><rect x="133.76" y="491.05" width="88.29" height="14.57" fill="#fff"/><rect x="133.76" y="542.62" width="128.57" height="14.57" fill="#fff"/><rect x="573.9" y="96.12" width="199.24" height="151.19" rx="5.77" fill="#f48225" data-secondary="true"/><rect x="607.86" y="115.98" width="133.25" height="14.09" fill="#fff"/><rect x="606.9" y="159.05" width="53.58" height="7.71" fill="#fff"/><rect x="606.9" y="187.2" width="25.51" height="7.71" fill="#fff"/><rect x="606.9" y="214.7" width="37.73" height="7.71" fill="#fff"/><polyline points="676.12 160.77 681.48 165.7 686.84 160.77" fill="#fff"/><polyline points="645.62 188.59 650.98 193.52 656.34 188.59" fill="#fff"/><polyline points="658.99 216.09 664.35 221.02 669.7 216.09" fill="#fff"/><rect x="538.47" y="283.41" width="72.96" height="8" fill="#f48225" data-secondary="true"/><rect x="561.39" y="305.24" width="50.04" height="8" fill="#2f2e41"/><rect x="536.37" y="323.93" width="75.06" height="8" fill="#686175" data-primary="true"/></svg>