<svg id="bf34152a-94cb-47ee-8759-be29aec97cbe" data-name="Layer 1" xmlns="http://www.w3.org/2000/svg" width="865.76" height="682.89" viewBox="0 0 865.76 682.89"><g id="a54c1661-1b25-40a3-adfd-cce9c07a1ff9" data-name="f5b86049-67eb-4f8c-bb85-b854f2c429fb"><path d="M856,398.09q-.3,3.57-.65,7.14-1.4,14.2-3.61,28.64-.54,3.48-1.12,7-2.8,16.75-6.74,33.75-2.55,11-5.59,22Q833.6,513.75,827.68,531c-.51,1.5-1,3-1.56,4.49q-7.35,20.91-16.52,42-8,18.18-17.37,36.47-4.11,8-8.51,16-4.14,7.5-8.51,15l-1.31,2.22v.06H756L167.56,646h-5.67s-1.58-1-4.43-3.07c-1.54-1.11-3.48-2.51-5.73-4.19l-3.08-2.34c-6.27-4.79-14.4-11.31-23.59-19.4h0c-.24-.22-.47-.43-.72-.64q-2.94-2.61-6-5.42l-.92-.85-.46-.43-1.23-1.14-.28-.25-2.17-2q-6.28-5.92-12.89-12.65c-1.49-1.52-3-3.07-4.48-4.64l-.15-.17c-2.84-3-5.7-6.08-8.56-9.27l-1.74-1.95c-.26-.29-.52-.58-.77-.88q-4.77-5.4-9.5-11.17c-.72-.87-1.43-1.75-2.14-2.63q-4.44-5.5-8.77-11.33l-.76-1h0c-.8-1.08-1.61-2.18-2.4-3.28s-1.71-2.37-2.55-3.57C53.86,537,49.3,530.07,45,522.84q-4.09-6.83-7.88-14h0c-1.05-2-2.08-4-3.07-6C3.14,441.11-7.81,363.63,44.23,278.4a221,221,0,0,1,56.11-62.15q8.32-6.25,17-11.59a237.88,237.88,0,0,1,31.25-16.13c96-41,207.22-17.42,232.08-5.55,0,0,64.37-172.22,258-150.42,44.12,5,84,24.55,117.26,55.26a253.08,253.08,0,0,1,19.22,19.81q4.35,5,8.51,10.27,4.37,5.53,8.51,11.38c37.35,52.59,60.93,122.93,64.91,202.41A497.12,497.12,0,0,1,856,398.09Z" fill="#f7dfc8"/><path d="M783.72,117.9V630q-4.76,8.61-9.82,17.23l-55.8-.11L685.9,647l-105.44-.22-35.6-.08-383-.8s-5-3.31-13.24-9.6a457.41,457.41,0,0,1-48.28-42.82V216.25a231.25,231.25,0,0,1,48.28-27.72c96-41,207.22-17.42,232.08-5.55,0,0,8.77-23.46,29.57-52a266,266,0,0,1,33.17-37.55c40.61-37.9,103.39-71.24,195.29-60.9,44.12,5,84,24.55,117.26,55.26a250.36,250.36,0,0,1,17.93,18.35Q778.95,111.84,783.72,117.9Z" fill="#fbecdb"/><path d="M783.72,117.9v43.79l-445,65.6,435.2-121.12Q778.95,111.84,783.72,117.9Z" fill="#fff4e9"/><path d="M502.89,604.55h42v42.16l-383-.8s-5-3.31-13.24-9.6a457.41,457.41,0,0,1-48.28-42.82V307.13l.15-.18h1.6v73.67h38.59V262.06l1.46-1.42h9.37v-.06H206v.06h.05v17.77H206v12.23h.05v17.77H206v12.26h.05v17.78H206v.06l5.78-.06v-93H273v11.78h0V275h0v15.62h0v17.77h0v12.26h0v17.78h0V349.8h0v17.77h0v11.35h0v17.77h0v10.7h0v11.28h0v1.23h69V521.61h25.77v25.63h27.78V503.11h50V383.23h7.82V371.29h1.11v11.94h38.9V371.29h1.12v11.92H503Z" fill="#f8e7d4"/><polygon points="685.9 227.29 685.9 647.01 580.46 646.79 580.46 227.29 685.9 227.29" fill="#f8e7d4"/><path d="M783.72,287.86V630q-4.76,8.61-9.82,17.23l-55.8-.11V287.86Z" fill="#f8e7d4"/><path d="M117.37,204.66V610c-5.46-5-11.18-10.54-17-16.51V216.25Q108.67,210,117.37,204.66Z" fill="#e5bd9e"/><path d="M631.1,58.15,410.27,131a266,266,0,0,1,33.17-37.55Z" fill="#fff4e9"/><path d="M514.11,135.14a13.19,13.19,0,1,1,13.19,13.19A13.2,13.2,0,0,1,514.11,135.14Z" fill="#fff4e9"/><path d="M792.23,129.28V614q-4.11,8-8.51,16-4.14,7.5-8.51,15V107.63q4.35,5,8.51,10.27Q788.09,123.44,792.23,129.28Z" fill="#e5bd9e"/><path d="M838.24,496.65q-4.69,17.13-10.61,34.42c-.51,1.5-1,3-1.56,4.49q-7.35,20.91-16.52,42a71.39,71.39,0,0,1-11.34,2.79c-15.46,2.33-10.68-4-5.36-13.45s22.19-13.64,26-18-4.11-4.35-13.42-.1-10.59,15.6-25.53,22.75-37.42-17.63-37.42-17.63c11.91-.61,28.91-13.54,28.3-17.5s-28.87,6.83-33.7,7.35-15.81-5.49-17.51-25,30.18-24.87,30.18-24.87,31.64,23.52,37.81,22.09-23.12-25.39-23.12-25.39c11-5.3,45.28-2,45.28-2s11.41,36.8,17,33.9-11.72-32-11.72-32C823.34,490,832.92,494,838.24,496.65Z" fill="#599dad"/><path d="M827.63,531.07c-.51,1.5-1,3-1.56,4.49-13.47-7.37-39.75-14.55-90.81-16.22C735.26,519.34,796.85,517,827.63,531.07Z" fill="#599dad"/><path d="M61.05,547.12q-1.29-1.77-2.55-3.57c-4.71-6.69-9.27-13.66-13.59-20.89.36-13.47-.32-26.7-.32-26.7s45.11-21.7,62.81-20c0,0-28,47.4-18.84,46.26s40.54-49.11,40.54-49.11,46.26-8.56,53.68,18.84-4.57,41.12-11.42,42.83-50.82,1.14-49.68,6.86,30.83,14.84,47.4,9.7c0,0-18.28,45.11-42.26,42.83-21.69-2.07-29.84-14.41-42.18-17.6q-4.77-5.4-9.5-11.17c-.72-.87-1.43-1.75-2.14-2.63q-4.44-5.5-8.77-11.33Z" fill="#6bb7bf"/><path d="M64.23,551.45c18.86-14.28,49.15-31.39,97.4-50.91-1.31.42-61.06,19.93-100.58,46.58Z" fill="#599dad"/><path d="M850.57,440.85q-2.8,16.75-6.74,33.75c-15.34-.1-32.28-3.65-43.91-8.36-22.66-9.18-11.16-13.93,3.51-22.37C817,436.06,840.33,442.11,850.57,440.85Z" fill="#86d1cd"/><path d="M856,398.09q-.3,3.57-.65,7.14-1.4,14.2-3.61,28.64c-3.78-1.87-9.82-3.53-16.9-4.29-15.92-1.69-26.67,12.57-52.48,10.3S746,386.34,746,386.34c16.51,8.67,49.7,4.8,52-1s-44.29-13.79-51.2-16.94-16.93-20-3.73-47.52,60.45-9.46,60.45-9.46,23.86,56.86,33.3,59.85-10.9-52.6-10.9-52.6c7.85.68,19.84,6.47,31.23,13A495.77,495.77,0,0,1,856,398.09Z" fill="#86d1cd"/><path d="M763.75,334.05c.87.47,55.32,30,92.2,64q-.3,3.57-.65,7.14C838,386.7,809.59,363.22,763.75,334.05Z" fill="#6bb7bf"/><path d="M361.79,368.85H392.7a24,24,0,0,1,24,24V436.7H337.82V392.83A24,24,0,0,1,361.79,368.85Z" fill="#954e20"/><path d="M397.78,352.29c-2.84-5.76-9.87-9-16.28-9-20.35,0-22.94,26.15-35.89,36.25-3.89,3-8.22,5.51-11.92,8.75a17.77,17.77,0,0,0,1,6.3,27,27,0,0,0,3.15,5.9l5.48-3.18-2.38,6.93c4.89,5.09,11.4,8.83,17.75,12.33a64.29,64.29,0,0,0,27.89,7.22c3.58-7.22,6.1-15.23,8.85-22.69,3.3-9,6.06-18.26,6.46-27.81A42.5,42.5,0,0,0,397.78,352.29Z" fill="#686175" data-primary="true"/><path d="M730.35,401.17h14.74a8.36,8.36,0,0,1,8.24,9.77l-9.84,57.65-15.67-32.2Z" fill="#954e20"/><path d="M494.38,352.66h46.31a23.93,23.93,0,0,1,23.93,23.93v60.27H470.45V376.59A23.93,23.93,0,0,1,494.38,352.66Z" fill="#954e20"/><path d="M263.28,615H246.35c-5.78-2-2.94-11.06-2.94-11.06h0v1.22s-1.52,4.37,9.81,0c0,0,3.73-1.28,9.85.89,0,0,4.4,2.69,3-1.26C269.73,614.08,263.28,615,263.28,615Z"/><path d="M287.32,607.06s-1.34,6.68,5.48,6.68h21.84a4.53,4.53,0,0,0,4-6.75c-.92-1.56-2.71-3.13-6-4.37l-16.26-3.75Z"/><polygon points="182.96 401.22 210.79 401.22 226.73 463.68 221.91 489.47 203.26 490.69 182.96 401.22" fill="#954e20"/><rect x="327.37" y="543.33" width="20.12" height="101.81" fill="#954e20"/><polygon points="352.71 617.25 357.14 578.65 395.59 578.65 395.59 572.36 357.14 575.32 359.73 550.92 347.49 556.43 347.49 617.25 352.71 617.25" fill="#954e20"/><path d="M412.22,617.25s12.57.16,11.46,0-3.32-39.71-3.32-39.71l-10.72,4Z" fill="#954e20"/><g opacity="0.2"><polygon points="352.71 617.25 357.14 578.65 395.59 578.65 395.59 572.36 357.14 575.32 359.73 550.92 347.49 556.43 347.49 617.25 352.71 617.25"/><path d="M412.22,617.25s12.57.16,11.46,0-3.32-39.71-3.32-39.71l-10.72,4Z"/></g><polygon points="612.69 617.25 617.86 552.89 627.3 552.89 617.42 617.32 612.69 617.25" fill="#954e20"/><polygon points="701.79 617.32 689.88 519.31 699.24 516.02 705.69 617.32 701.79 617.32" fill="#954e20"/><polygon points="714.73 514.11 724.99 514.11 736.34 617.32 740.92 617.32 733.53 514.11 738.63 514.11 738.63 495.44 719.64 497.4 712.43 511.3 714.73 514.11" fill="#954e20"/><path d="M198.67,417.84h21l3.93,19h51.52l-2.19-23.3h13.54s-.86-39.87-27.64-41.5l-28.21.4s-30.6-1.34-31.91,24Z" fill="#f48225" data-secondary="true"/><path d="M258.79,372.06c-.22,8.71-10.55,8.13-10.55,8.13-10.75.18-17.66-7.73-17.66-7.73,3.24-2.85,2.41-10.61,2.41-10.61a15.46,15.46,0,0,0,11.49,5.47,15.18,15.18,0,0,0,10.91-4.86C254.42,370.93,258.79,372.06,258.79,372.06Z" fill="#feb0a3"/><path d="M233,361.85s.6,6.16-.91,8.38c0,0,10.85,2.28,19.53-4.83L241.16,360Z" fill="#fd8571"/><path d="M489.35,597s-11.36,18.36,2.2,22.85a11.36,11.36,0,0,0,8.31-.27c3.44-1.6,7.14-5.58,4.42-15.5-.32-1.14-1.6-2.06-1.52-3.25v-5.16Z" fill="#686175" data-primary="true"/><path d="M516.91,623.6s-14.1,0-9.35-14.6l4.75-14.57,11.57-2.22.7,13.78s4.61,8.41,0,13.41C524.58,619.4,522.66,622.8,516.91,623.6Z" fill="#686175" data-primary="true"/><path d="M576.22,603.83s-4.86,6.4-16.64,7.94c0,0-16.38-2.31-10.75,7.17,0,0,9,11.26,35.07,1.53a7.78,7.78,0,0,0,7.68,2.31l-1.25-13.89Z" fill="#f48225" data-secondary="true"/><path d="M576.22,603.83s6.47-3.76,4.07-18.44l11.29-2.81-1.25,26.31h-6.81a6.12,6.12,0,0,1-4.5-2Z" fill="#feb0a3"/><path d="M658.19,604.91c5.47,9.59-1.53,11.78-1.53,11.78-2.4,2.17-3.22,0-3.22,0-1,6.1-12.94,12.46-12.94,12.46-10.8,4.47-18.11-1.31-18.11-1.31-6.77-6.11,2-8.73,2-8.73,5.89-2.19,14.84-14.41,14.84-14.41,1.31-2.4,3-1.32,3-1.32l3.07-4.79Z" fill="#f48225" data-secondary="true"/><path d="M666.39,530.77l-3.24,58a2.75,2.75,0,0,1-1.53,2.35,21.07,21.07,0,0,1-3.43,1.35,23.62,23.62,0,0,1-5.47.92,23.22,23.22,0,0,1-10.48-2.11s-.09,0-.12-.06a2.84,2.84,0,0,1-1.62-2.57V530.77Z"/><path d="M577.76,572.08v12s8.19,4.9,16.9,4l5.88-32.41H579.47Z"/><path d="M491.47,358.51s14.74,15.18,27.35,23.42c0,0,21.28-17.67,22.35-25.83l-1.62.13s-8,1.94-10.16-10.57l-2.07-16.37-20.82,15.3S508.67,355.2,491.47,358.51Z" fill="#feb0a3"/><path d="M461.62,404.44l7.26-22.51s7.25-25.7,22.59-23.42c0,0,14.5,14.92,27.35,23.42,0,0,18.38-14.36,22.35-25.83,0,0,9.15-3.6,20.34,17.75,0,0,11.84,25.56,14.32,39.3L538.3,436.83l-53.92-1.49L466.52,405.9Z" fill="#686175" data-primary="true"/><path d="M506.5,344.59s1.22,4.25-3.09,8.57c0,0,14,.91,18.88-12.82Z" fill="#fd8571"/><ellipse cx="511.57" cy="325.15" rx="15.96" ry="20.52" fill="#feb0a3"/><path d="M497.38,356.83s-14.2-51.37,8.39-62.77c0,0,21.34-11.61,30.87,9.33,0,0,4.77,10.36,6.64,28.8,0,0,.62,8.08,4.14,13.47,0,0,6.59,7.67,6,16.17a14.92,14.92,0,0,0-13.84-5.6s-8.29,1.87-10.16-10.57l-2.07-16.37.21-4.14s-5.81-2.91-8.29-6.84c0,0-16-.12-19.26-7.25A24.68,24.68,0,0,0,497,333.28a19.6,19.6,0,0,0,9.58,11.31S508.25,352.71,497.38,356.83Z" fill="#f48225" data-secondary="true"/><ellipse cx="527.32" cy="324.63" rx="3.32" ry="4.66" fill="#feb0a3"/><path d="M640.5,389.24l18.78,2.18-2.19,46.5,70.73-1.53,1.31-20.52-17.24-20.95,23.57,1.31s8.52-32.53,0-40.39c0,0-17-14-29.47-15.72l-29.47,4.15s-28.38,1.75-31.87,26.2Z" fill="#f48225" data-secondary="true"/><path d="M642.54,389.48s-3,16.88-4.87,29.62l-41.26,8.56-1.09,9.17,61.9-1.49,2.06-43.92Z" fill="#feb0a3"/><path d="M644.71,411.73v20.62a2.52,2.52,0,0,0,2.51,2.52h7.37a2.51,2.51,0,0,0,2.51-2.51h0V411.73Z" fill="#eee"/><path d="M645.41,411.73v19.32a2.53,2.53,0,0,0,2.51,2.51h6a2.53,2.53,0,0,0,2.51-2.51V411.73Z" fill="#fff"/><path d="M645.41,415.89v15.16a2.53,2.53,0,0,0,2.51,2.51h6a2.53,2.53,0,0,0,2.51-2.51V415.89Z" fill="#686175" data-primary="true"/><path d="M508.78,388.78v24.39a3,3,0,0,0,3,3h8.71a3,3,0,0,0,3-3V388.78Z" fill="#eee"/><path d="M509.6,388.78v22.85a3,3,0,0,0,3,3h7.06a3,3,0,0,0,3-3V388.78Z" fill="#fff"/><path d="M509.6,393.71v17.92a3,3,0,0,0,3,3h7.06a3,3,0,0,0,3-3V393.71Z" fill="#f48225" data-secondary="true"/><path d="M391.73,387.66C390,394,372,386.74,372,386.74c1.4-2.63,1.65-10.27,1.65-10.27,8.13,7.4,16.26,1,16.26,1-1.56,5.32-.25,7.31.85,8A2,2,0,0,1,391.73,387.66Z" fill="#feb0a3"/><path d="M401.56,411.78v.05l-.65,18-.25,6.93v.76H362.24l.91-25.94C365.33,397,361,389.24,361,389.24c3.29-2.47,11-2.62,11-2.62s18,7.27,19.74.91a2,2,0,0,0-1-2.14,18.58,18.58,0,0,1,8.87,2.28,5.44,5.44,0,0,1,2.24,2.59Z"/><path d="M418.61,431.48c-2.65,1.92-8,4.63-17.93,5.26l.25-6.93,7.62-4.48-7-13.5v-.05l.3-21.52s3-.31,8.54,13.17c0,0,7.76,15.94,9.86,23.16A4.47,4.47,0,0,1,418.61,431.48Z" fill="#feb0a3"/><path d="M400.93,429.81l-.25,6.93c-2.07.12-4.36.17-6.85.08,0,0,4.65-2.41,5-5.75Z" fill="#feb0a3"/><path d="M262.24,344.31c0,7.4-2.69,13.94-6.85,18.15a15.18,15.18,0,0,1-10.91,4.86A15.49,15.49,0,0,1,233,361.85a26.12,26.12,0,0,1-6.26-17.54c0-12.68,7.94-23,17.75-23S262.24,331.63,262.24,344.31Z" fill="#feb0a3"/><path d="M228.15,335.26c2.23,9.16,17.24,3.51,17.24,3.51,13.2-5.08,18.68,4.1,18.68,4.1,3-19.65-10.56-26.84-11.57-26.84a26.28,26.28,0,0,0-28.62,8.53c-9.34,13.8,4.46,23.79,4.46,23.79S227.18,340.08,228.15,335.26Z"/><path d="M330.09,436.82c-2.4-11.36-15.94-9.82-15.94-9.82H293.41c-7.2,0-8.51-13.44-8.51-13.44h-12l2.19,23.3Z" fill="#feb0a3"/><rect x="586.62" y="539.51" width="20.12" height="105.63" fill="#954e20"/><path d="M658.19,592.5v12.41c-2,3.51-5.25,4.15-6.57,3.94-3.27-4.58-9.38-5.47-9.38-5.47V591.31a23.22,23.22,0,0,0,10.48,2.11A23.62,23.62,0,0,0,658.19,592.5Z" fill="#feb0a3"/><path d="M489.35,597s-5.21,11.43,4.4,11.94c0,0,7.86,1.44,9-6v-7.3Z" fill="#feb0a3"/><path d="M512.31,594.43l-2.95,12.36s-1.6,4.4,7.21,5.2c0,0,8.21.4,8-6l-.7-13.78Z" fill="#feb0a3"/><rect x="239.49" y="516.02" width="13.75" height="7.35" fill="#686175" data-primary="true"/><path d="M244.53,523.37s-.25,55.08,1.83,66.54c0,0,6.18-7.53,13.71-4.09l5.07-58L256.3,523Z" fill="#feb0a3"/><path d="M263.07,606c-6.12-2.17-9.85-.89-9.85-.89-11.33,4.37-9.81,0-9.81,0V603.9a42.31,42.31,0,0,1,2.94-14c6.23-7.58,13.72-4.09,13.72-4.09,4,3.6,3.21,6.45,3.21,6.45-.43,4.79,1.86,10.48,1.86,10.48.22.43.43.82.58,1.16s.25.58.34.85C267.47,608.7,263.07,606,263.07,606Z" fill="#f48225" data-secondary="true"/><path d="M288,593.13s-4.48,13.5.32,14.41h11S301,603,305.21,603l7.42-.33s-7.42-6.53-10.8-15.17c0,0-2.4-5-8-1.63a9.89,9.89,0,0,0-3.27,7.42Z" fill="#f48225" data-secondary="true"/><path d="M281.61,535.85S285.88,584,288,593.13l2.62.11L300.73,586V531.35Z" fill="#feb0a3"/><polygon points="217.01 617.25 224.54 514.11 234.69 514.11 222.9 617.25 217.01 617.25" fill="#954e20"/><path d="M190.29,516,183,619.12h5.23L198.67,516h59.54l12.5,103.15h4.91L269,490.39,188.44,492a3,3,0,0,0-3,2.92l-.87,21Z" fill="#954e20"/><path d="M187.1,492.35l-15.42-75.92s-6.15-16.13,9.22-15c0,0,8.6-3,11.88,12.1l12.06,78.79Z" fill="#954e20"/><path d="M187.1,492.35l-15.42-75.92s-6.15-16.13,9.22-15c0,0,8.6-3,11.88,12.1l12.06,78.79Z" opacity="0.2" style="isolation:isolate"/><polygon points="305.02 619.12 310.19 619.12 305.02 535.04 293.19 518.53 305.02 619.12" fill="#954e20"/><path d="M668.12,435.3l49.63-.38s12.55-.6,12.53-19.79l2.33-19.06-20.72-1.15L708,418.71l-35.57,6a7,7,0,0,1-5.44-1.4" fill="#feb0a3"/><path d="M699.33,317.53S699,337.29,706,340.12c0,0-27.94,17.68-29.47,4.15,0,0,2.19-1.47,0-9.58L698,318.51Z" fill="#feb0a3"/><path d="M676.52,334.69s2.16,7,0,9.58c0,0,10.8-.52,16.59-15.43Z" fill="#fd8571"/><ellipse cx="681.28" cy="307.73" rx="18.06" ry="27.96" fill="#feb0a3"/><path d="M697.66,319.46c19-21.1,6.15-32.6,6.15-32.6-7-14.19-26.71-6.32-26.71-6.32-10.31-.92-12.15,8.94-12.15,8.94a4.73,4.73,0,0,1-3.27,4.15c-2.62,1.74,2.32,6,2.32,6l1-4.06s.58,4.62,13,4.41c0,0,12.23-.66,11.79,6.55l.44,7a5.21,5.21,0,0,0,2.83-4.58l6.22,1.31A38.86,38.86,0,0,1,697.66,319.46Z"/><ellipse cx="696.22" cy="310.65" rx="3.11" ry="5.24" fill="#feb0a3"/><path d="M511.57,413.48l-23.43,21.44-21.62-9v-20l16.6,5-.81,6.75,21.82-9.21" fill="#feb0a3"/><path d="M389.36,383.37s-.57-2,.54-5.86l-15.58-.33S376.86,385.91,389.36,383.37Z" fill="#fd8571"/><path d="M396.62,363.26a19.52,19.52,0,0,1-.61,4.87c-1.77,6.9-7.2,11.92-13.62,11.92-7.86,0-14.24-7.52-14.24-16.79s6.38-16.79,14.24-16.79c7.3,0,13.32,6.49,14.13,14.84h0A17.93,17.93,0,0,1,396.62,363.26Z" fill="#feb0a3"/><path d="M210,436.86c-5,0-6.76,5.82-6.76,5.82l-12.83,51.06a4.42,4.42,0,0,0,2.86,5.29c3.43,1.11,9.28,2.34,18,2,0,0,.07.05,0,.07-1.08.61-7.61,4.76,9.33,7.79,0,0,6.31,1.31,6.09,5.24,0,0-1.21,5.56,12.22,2.94,0,0,6.22-.33,8.51,4.26,0,0-1,2.62,8.84,1.64v3.51a6.72,6.72,0,0,0,5.34,6.6,201.91,201.91,0,0,0,37.84,3.64v7.53s-.61,5.24,15.76,11.79a105.74,105.74,0,0,0,16.25,4.85,42.47,42.47,0,0,0,20-1.17c2.09-.58,4.35-.45,5,2.4,0,0,.16,10.13,12.77,13.89,0,0,10.16,4.26,24.56,3.28,0,0,8.19-1,9.82,4.58,0,0,.33,7.1,15.07,7.53l39,5.57s9.82-11.79,25.54,0c0,0,38.64-1,51.74-8.84a6.74,6.74,0,0,0,4.36-4.66,3.55,3.55,0,0,1,2.85-2.79,16.57,16.57,0,0,1,3.59-.08s39.08-1.42,40.83-16.7c0,0-2-6.12,5-4.37,0,0,12.22,9,44.09-8.29,0,0,8.52-2.62,7.64-9.61,0,0-3.27-4.58,4.8-4.15,0,0,39.08-.43,37.44-12.55,0,0-1.23-3.6,4.3-2,0,0,6.84,1.31,6.84-4.26,0,0,1.31-2.62,8-1,0,0,10.64,1,10-3.6,0,0,.33-4.43,6.72-4.92,0,0,10.46-.88,11.14-7.34a1,1,0,0,1,1-1,37.27,37.27,0,0,0,18.64-4.44l-13-49.33s-.33-12.45-11.25-12.21Z" fill="#ab6f4e"/><path d="M727,507.84l-4.27-53.56,10.8,46.12a.33.33,0,0,1-.25.38h0c-.3,0-.66.37-.75,1.63C732.49,502.41,732.71,505.35,727,507.84Z" opacity="0.2" style="isolation:isolate"/><path d="M701.79,455,711,517.45s3.69.09,3.69-3.34a4.69,4.69,0,0,1,1.08-2.41Z" opacity="0.2" style="isolation:isolate"/><path d="M679.39,532.47l-11.32-78.19L689.88,523s-5.46-2-4.3,2C685.58,524.91,687.46,529,679.39,532.47Z" opacity="0.2" style="isolation:isolate"/><path d="M619.66,450.52l19.55,99s4.7-2.51,4.13-7.87c0,0-1.8-4.06,3.46-4.17s1.34,0,1.34,0Z" opacity="0.2" style="isolation:isolate"/><path d="M580.83,572.08,568.6,450.52l21.73,108.75s-4.57-1.63-3.74,4.61C586.59,563.88,585.69,569.48,580.83,572.08Z" opacity="0.2" style="isolation:isolate"/><path d="M535,588.11,521,450.52l24.73,130.06a12.36,12.36,0,0,0-2-.29,4.3,4.3,0,0,0-4.43,3.05A7.45,7.45,0,0,1,535,588.11Z" opacity="0.2" style="isolation:isolate"/><path d="M457.68,597l11.19-143.3L483.22,597S471.7,585.17,457.68,597Z" opacity="0.2" style="isolation:isolate"/><path d="M391.6,579.38l15.54-128.86-4.85,131S400.16,578.72,391.6,579.38Z" opacity="0.2" style="isolation:isolate"/><path d="M345.87,561l17.62-107.3-7,108.4s-1-3.36-5-2.4C351.5,559.7,351.11,560.39,345.87,561Z" opacity="0.2" style="isolation:isolate"/><polygon points="290.66 536.44 308.42 454.92 299.48 536.7 290.66 536.44" opacity="0.2" style="isolation:isolate"/><path d="M247.46,521.31S269.23,452.47,269,453.7,256.3,523,256.3,523,251.07,524.62,247.46,521.31Z" opacity="0.2" style="isolation:isolate"/><polygon points="205.43 501.01 220.03 453.68 211.27 501.01 205.43 501.01" opacity="0.2" style="isolation:isolate"/><path d="M220.64,508.87c-2.67-.59,18.85-53.95,18.85-53.95l-12.76,59.19A7.77,7.77,0,0,0,220.64,508.87Z" opacity="0.2" style="isolation:isolate"/><path d="M607.53,420.61a7.49,7.49,0,0,0,4.81-2c1-.91,3.43-2.55,5.62-2,4,1,4.91,5.38,2.1,9-2.47,3.15-12.08,7.65-15.93,1C601.44,422,604.47,420.74,607.53,420.61Z" fill="#efe1bf"/><path d="M619.69,422.46a6.26,6.26,0,0,1-2.38-1.18,10.26,10.26,0,0,1-2.22-1.83c-.17-.2.09-.42.29-.31.82.45,1.6,1,2.38,1.52a9.55,9.55,0,0,1,2.12,1.44.21.21,0,0,1,0,.31A.18.18,0,0,1,619.69,422.46Z" fill="#ead6a9"/><path d="M617.87,424.41c-1.37.19-3.87-2.11-4.82-3.13-.23-.25.16-.68.41-.44a17.27,17.27,0,0,0,2.32,1.76c.68.45,1.76.81,2.22,1.48a.2.2,0,0,1,0,.29l-.08,0Z" fill="#ead6a9"/><path d="M609.46,427.5s-1.21,5.62-9.23,6.63c-7.4.94-9.51-6.63-6-8.25s7.53-2.32,9.39-3.81C607,419.33,610.74,424.59,609.46,427.5Z" fill="#ead6a9"/><path d="M597.33,421.5a5.35,5.35,0,0,1,1.08,2.14,6,6,0,0,1-1.19,5.25c-3,3.72-12.34,4.71-12.25-.38s5.39-2.69,7.33-4.7c.87-.9,1.18-2.15,2.28-2.78A2.44,2.44,0,0,1,597.33,421.5Z" fill="#efe1bf"/><path d="M595.26,423.34a4.79,4.79,0,0,1,1.27,1.27c.32.45.73.94.61,1.51a.28.28,0,0,1-.34.2h0c-.49-.2-.66-.67-.93-1.09s-.67-1-1-1.53c-.12-.22.14-.51.36-.36Z" fill="#ead6a9"/><path d="M594.18,424.58a8.48,8.48,0,0,1,1.73,3.1.31.31,0,0,1-.53.21,4.59,4.59,0,0,1-.8-1.41c-.27-.53-.57-1-.81-1.58-.12-.25.2-.56.41-.32Z" fill="#ead6a9"/><path d="M592.4,425.48a14,14,0,0,1,1.2,3.25c0,.24-.35.41-.5.2a9,9,0,0,1-1.17-3.26C591.87,425.4,592.27,425.21,592.4,425.48Z" fill="#ead6a9"/><path d="M590.78,426.36a4,4,0,0,1,.44,1.16c.25.94.44,1.44.06,1.61a.43.43,0,0,1-.59-.15.61.61,0,0,1-.05-.12,10,10,0,0,1-.41-2.36.29.29,0,0,1,.32-.27A.26.26,0,0,1,590.78,426.36Z" fill="#ead6a9"/><path d="M588.9,427.14c.54.51.81,1.47.36,1.7a.39.39,0,0,1-.5,0c-.35-.31,0-.78-.27-1.34a.25.25,0,0,1,0-.36.27.27,0,0,1,.37,0h0Z" fill="#ead6a9"/><path d="M601.66,421.14c1.25-1.76,3.64-1.55,6.42-.71a85.9,85.9,0,0,0,8.56,1.73c2.9.22,5.82.29,8.73.22s5.28.14,6.1,2.13,1.32,6.81-14.35,5.56l-2.71-.3C598.85,427.49,600.42,422.89,601.66,421.14Z" fill="#efe1bf"/><path d="M598.06,420.08c1.2-.85,2.24-.79,6.39,1.24a25.88,25.88,0,0,0,3.82,1.45,43.1,43.1,0,0,0,16,1.81,26.93,26.93,0,0,0,4-.56c4.5-1.06,5.52-.88,6.51.21s.9,4.61-4.31,5.2-14.81,1.53-14.92,1.32a7.75,7.75,0,0,1,0-1.18,7.58,7.58,0,0,1-.24,1.15c-.16.18-9.3-2.88-14.25-4.61S596.85,420.92,598.06,420.08Z" fill="#ddb56f"/><path d="M601.1,426.11c1.25-1.76,3.64-1.55,6.42-.72s5.68,1.3,8.56,1.74c2.9.22,5.82.29,8.73.22s5.28.14,6.1,2.13,1.32,6.81-14.35,5.56l-2.71-.31C598.29,432.45,599.86,427.86,601.1,426.11Z" fill="#efe1bf"/><path d="M610.47,428a4.3,4.3,0,0,0,3.6-1.32,5.08,5.08,0,0,0,.47-.57c.07-.09.14-.17.2-.26a3.49,3.49,0,0,1,2-1.29,2.07,2.07,0,0,1,1.9.59,2.82,2.82,0,0,1,.34.67,4.4,4.4,0,0,0,3.92,3.09c2.47.21,3.55-2.55,3.9-3.45,0-.09.07-.16.09-.22.18-.42,1-.6,1.57-.35a5.81,5.81,0,0,1,2.06,1.85,1,1,0,0,0,1.56-1.26h0A7.42,7.42,0,0,0,629.2,423a3.22,3.22,0,0,0-4.15,1.41l-.12.29c-.41,1.06-1,2.26-1.87,2.19-1.46-.12-1.82-.94-2.24-1.9a4.55,4.55,0,0,0-.65-1.16,4.06,4.06,0,0,0-3.79-1.26,5.47,5.47,0,0,0-3.19,2l-.24.31a4.87,4.87,0,0,1-.35.42,2.28,2.28,0,0,1-3.22.07,2.15,2.15,0,0,1-.49-.67,8.2,8.2,0,0,1-.32-1.07,5.14,5.14,0,0,0-.88-2.13,4.06,4.06,0,0,0-4.9-.8,1,1,0,0,0-.46,1.34h0a1,1,0,0,0,1.34.45,2.1,2.1,0,0,1,2.44.25,3.49,3.49,0,0,1,.5,1.36,7.1,7.1,0,0,0,.45,1.42,4.34,4.34,0,0,0,3.2,2.44Z" fill="#ab6f4e"/><path d="M632.62,435.36H589c-1.47,0-2.67-1.81-2.67-4.05h48.95C635.29,433.55,634.09,435.36,632.62,435.36Z" fill="#c9c9c9"/><path d="M561.63,409.27s-.39,9.06-12.6,12.77c-11.25,3.43-16.54-7.79-11.55-11.24s11.1-5.6,13.6-8.42C555.68,397.21,562.85,404.41,561.63,409.27Z" fill="#ead6a9"/><path d="M541.78,403.16a8.63,8.63,0,0,1,2.25,3,9.37,9.37,0,0,1-.46,8.48c-3.68,6.6-18,10.6-19.16,2.67s7.68-5.63,10.16-9.26c1.12-1.63,1.27-3.66,2.8-4.94A3.85,3.85,0,0,1,541.78,403.16Z" fill="#efe1bf"/><path d="M558.79,402.78a11.73,11.73,0,0,0,7.59-3.15c1.52-1.44,5.42-4,8.88-3.19,6.29,1.51,7.75,8.49,3.31,14.17-3.89,5-19.06,12.07-25.13,1.62C549.19,404.92,554,403,558.79,402.78Z" fill="#efe1bf"/><path d="M578,405.71a10,10,0,0,1-3.75-1.87,15.67,15.67,0,0,1-3.5-2.89c-.28-.31.14-.66.46-.49,1.29.71,2.52,1.58,3.75,2.4a15.56,15.56,0,0,1,3.35,2.27.37.37,0,0,1-.06.51.37.37,0,0,1-.25.07Z" fill="#ead6a9"/><path d="M575.12,408.78c-2.16.3-6.12-3.33-7.61-4.94-.37-.4.24-1.07.65-.7a28.19,28.19,0,0,0,3.65,2.79c1.08.7,2.78,1.27,3.5,2.33a.32.32,0,0,1-.07.46.23.23,0,0,1-.12.06Z" fill="#ead6a9"/><path d="M569.43,411a7.83,7.83,0,0,1-1.86-1.95c-.63-.77-1.36-1.46-2-2.24a.78.78,0,0,1,.09-1.1.8.8,0,0,1,1,0c1.4,1.07,3.31,3,3.52,4.87a.48.48,0,0,1-.4.53.54.54,0,0,1-.33-.08Z" fill="#ead6a9"/><path d="M565.12,412.16a6,6,0,0,1-1.67-3.5c0-.9,1.94,0,2.33,3.2a.37.37,0,0,1-.33.42.37.37,0,0,1-.33-.12Z" fill="#ead6a9"/><path d="M562,409.53c.89,2.65-.68,2.7-.92,2.06a3.49,3.49,0,0,1,.08-2,.46.46,0,0,1,.61-.23.47.47,0,0,1,.23.23Z" fill="#ead6a9"/><path d="M539.05,406.58a7.76,7.76,0,0,1,2.3,1.63c.62.61,1.4,1.26,1.36,2.19a.47.47,0,0,1-.5.41c-.81-.19-1.2-.88-1.73-1.46s-1.3-1.37-1.9-2.12c-.24-.31.08-.83.47-.65Z" fill="#ead6a9"/><path d="M537.7,408.79c.93.75,3.21,3.13,3.51,4.35a.51.51,0,0,1-.43.56.57.57,0,0,1-.34-.08,7.62,7.62,0,0,1-1.62-2c-.56-.75-1.16-1.46-1.68-2.24-.25-.37.17-.92.56-.61Z" fill="#ead6a9"/><path d="M535.17,410.66c.59.82,2.51,3.65,2.73,4.74.08.37-.43.72-.73.45-1.26-1.16-2-3.23-2.68-4.77C534.32,410.68,534.9,410.28,535.17,410.66Z" fill="#ead6a9"/><path d="M532.89,412.46a6.55,6.55,0,0,1,1,1.69c.65,1.39,1.06,2.12.53,2.49a.69.69,0,0,1-1-.09.86.86,0,0,1-.1-.16,15.58,15.58,0,0,1-1.27-3.56.48.48,0,0,1,.43-.52.46.46,0,0,1,.4.15Z" fill="#ead6a9"/><path d="M546.08,435.59h21.44a22.38,22.38,0,0,0,22.39-22.39H523.69A22.38,22.38,0,0,0,546.08,435.59Z" fill="#c9c9c9"/><path d="M581.35,413.2h8.56a22.38,22.38,0,0,1-22.39,22.39H559A22.4,22.4,0,0,0,581.35,413.2Z" opacity="0.2" style="isolation:isolate"/><path d="M476.8,415.2c-1.28-.55-1.85-1.5-.84-2.48a3.58,3.58,0,0,1,5,.48l.07.09a3.8,3.8,0,0,1-.09,4.12,4.32,4.32,0,0,1-1.58,1.51,4.81,4.81,0,0,1-2.06.63l.16.7a6.84,6.84,0,0,0,1.17-.35,5.69,5.69,0,0,0,2.78-2.27s1.62-2.55.17-4.69c-1.51-2.29-5.44-2.44-6.86-.22-.88,1.35,0,2.78,1.56,3.47Z" fill="#3c8f7c"/><path d="M416.68,425.32h67.71v9.41a2.1,2.1,0,0,1-2.1,2.1H418.77a2.1,2.1,0,0,1-2.1-2.1h0v-9.41Z" fill="#c9c9c9"/><path d="M452,421.5s5.79-14.62,5.53-17.1-2.5-3.73-3.81-.89-1.78,6-2.77,4.85,2.51-12.9-1.46-13.67-1.41,15.09-3,14.74-2.4-17.28-6.63-15.92,2.77,17.16,1.15,17.16-4.24-15-8.94-12.67,5.93,13.82,4.23,15.75-8.46-12.19-12.79-8.17,10.69,12.18,10.13,12.82-12.85-9.51-15.57-5.66,9.53,5.84,8.78,7.1-7-.83-6.63,1.66S434,423.93,434,423.93Z" fill="#cbd71f"/><path d="M474.17,419.81s-9.31-.71-10.2-1-.66-2.2-4.14-2.85-5.58.41-6,2.11,2,3.08,2.94,1.94,1.16-2.45,3.17-2.21a6.54,6.54,0,0,1,3.55,1.85Z" fill="#466eb6"/><path d="M442,417.49s1.1,6.54,10,5.56c9.11-1,12,2,19.77,1.65,6.23-.29,14.33-8.5,11.21-18.64S443.49,392.47,442,417.49Z" fill="#ead6a9"/><path d="M442,417.05a3.2,3.2,0,0,0,.19,1.47c.66,1.77,2.92,5.68,9.86,4.92,9.11-1,12,1.67,19.73,1.27,6.23-.33,14.4-7.81,11.4-16.92S444.4,395.18,442,417.05Z" fill="#efe1bf"/><path d="M483.18,407.79c-3.14-8.31-35-11.59-40.48,6.2a21.2,21.2,0,0,0-.7,3.06c.49-6.46,4.14-11.64,11.18-14.53,10.36-4.18,23.51-1.68,28.24,2.66A5.92,5.92,0,0,1,483.18,407.79Z" fill="#e5cd9c"/><path d="M475.76,421.23s5.74-2.73,6-7.5-4.13-8.83-7.84-9.64.73,1,2.28,7S472.73,421.34,475.76,421.23Z" fill="#ead6a9"/><path d="M446.25,417.27a2.74,2.74,0,0,1-2.74-2.76,2.17,2.17,0,0,1,0-.36c.21-1.32,1-3,3.26-4.88,5.37-4.57,21.39-8.38,22.76-5s-7.14,4.25-8.32,9.15C460.31,417.2,450.59,417.38,446.25,417.27Z" fill="#ead6a9"/><path d="M446.72,419.22a1.33,1.33,0,0,0-1.08,1.54,1.47,1.47,0,0,0,.24.56c.72.93,2.08,1.84,4.59,1.57a69.1,69.1,0,0,1,14.73.38c4.41.51,7.9.57,7.74-.85s-8.45-3.59-10.2-4.79S450.78,418.41,446.72,419.22Z" fill="#f48c7f"/><path d="M417.29,417.84s0,5.36,6.17,6.7,16.31-1.63,17.32-2.74a3.36,3.36,0,0,0,.71-3c-.12-.93-.41-.38-4.31-1.53s-4.37-.16-8.14-1.91S417.45,414.23,417.29,417.84Z" fill="#ddb56f"/><path d="M439.36,420.66a3.12,3.12,0,0,0,1.9-1.35h0c.52-.84.4-1.92-3.5-3.07s-4.68-.72-8.45-2.47-11.92.39-12.08,4a1.71,1.71,0,0,0,.09.55,9,9,0,0,0,6.19,3.83C428.08,423,434.61,422,439.36,420.66Z" fill="#ead6a9"/><path d="M418.6,419a1.91,1.91,0,0,1-.15-2.51c1.78-2.38,7.68-3.65,10.56-2.32a19.79,19.79,0,0,0,5.23,1.71c1.56.32,7.88,1.37,6.46,3.49-.76,1.14-3.39,1.27-4.78,1.56s-2.74.53-4.13.7a19.33,19.33,0,0,1-4.49.31C426.31,421.84,421.48,422.23,418.6,419Z" fill="#efe1bf"/><path d="M429.61,415c2.79.38,4.8,1.94,4.47,3.49s-2.85,2.5-5.64,2.12-4.8-1.94-4.48-3.49S426.81,414.63,429.61,415Z" fill="#ddb56f"/><path d="M470.39,413c-1.27-.55-1.84-1.5-.83-2.47a3.58,3.58,0,0,1,5,.48l.07.09a3.82,3.82,0,0,1-.09,4.12,4.37,4.37,0,0,1-1.58,1.5,4.55,4.55,0,0,1-2.06.63l.16.7a6.84,6.84,0,0,0,1.17-.35,5.67,5.67,0,0,0,2.78-2.26s1.62-2.56.17-4.69c-1.51-2.29-5.44-2.45-6.86-.23-.88,1.35,0,2.79,1.56,3.47Z" fill="#d8a452"/><path d="M443.79,417.31c0-3.24,3.66-5.86,8.18-5.86,3.29,0,6.12,1.39,7.42,3.39,6.75.27,12,2,12,4.15,0,1-1.06,1.69-1.9,2.12a17.54,17.54,0,0,1-5,1.52,58.87,58.87,0,0,1-6.49.75,45.83,45.83,0,0,1-6.31.07,12.44,12.44,0,0,1-4.79-1.27,5.54,5.54,0,0,1-2.68-2.84A5.43,5.43,0,0,1,443.79,417.31Z" fill="#ddb56f"/><path d="M467.76,417.66s-9.3-.71-10.19-1-.67-2.19-4.14-2.85-5.58.42-6,2.11,2,3.08,2.94,1.94,1.16-2.45,3.17-2.21a6.61,6.61,0,0,1,3.55,1.85Z" fill="#ead6a9"/><path d="M467,417.29l1,.47-.78.64,1.07.33-1,.67h0l1.16.61-.94.74,1.16.49-.15.7c3.19-.39,3.81-2.7,3.81-2.7a2.89,2.89,0,0,0,0-.83c-.31-2.89-5.34-2.79-5.34-2.79l.77.46-.5.15.61.47Z" fill="#d8a452"/><rect x="413.67" y="419.87" width="73.72" height="5.45" fill="#eee"/><path d="M288.17,432.43s-.41,2.73-4.77,2.73H246.24c-4.36,0-4.76-2.73-4.76-2.73Z" fill="#eee"/><rect x="246.35" y="435.16" width="36.95" height="1.49" fill="#c9c9c9"/><path d="M280.8,428.91a24.62,24.62,0,0,1-1.46,3.52H256.47c-.41-.84-.69-1.77,0-1.8,1.3-.07,1.92,1.3,2.48.87s.37-4.1,1.86-4.1,1.24,1.12,3,1.18,4.23-3.66,5.62-3.17a14.73,14.73,0,0,0,1.84.62c.49.13.3-3.48,2.11-2.73s.56,5.84,1.61,6.15,1.93-4.91,3.29-4.66S281.18,427.44,280.8,428.91Z" fill="#bcc11d"/><path d="M267.4,432.43H244.94c-.65-1.12-2.18-4.14-.36-4.85,2.22-.86,2.22,1.35,3.4,1.33s1.07-4.49,3.05-4.37,2.49.87,3.22,1.12,1.56-3.19,3.74-2.46,1.3,4.11,2.23,4.78,1.5-3,3.11-2.88,1.43,3.29,2.61,3.48,2.32.62,2.52,1.74C268.55,430.83,268,431.67,267.4,432.43Z" fill="#a5a51f"/><path d="M264,432.43H243.3c-.62-1.05-2.21-4.07-.63-4.72,1.93-.81,2.79,2.79,3.42,2.54s-1.32-6.74,1-6.51,3.79,4.75,5.21,5.17.43-2.69,2.61-2.07,4.47,4.45,5.83,4.3,1.43-2.57,2.92-1.94C264.62,429.62,264.3,431.32,264,432.43Z" fill="#cbd71f"/><path d="M285.53,432.43H269.45c0-1.1.08-3,1-2.49,1.3.69,2.3,2.09,3.35,1.2s2.47-5,3.82-4.24,1.28-.68,3.44-.49.94,2.46,1.19,3.38,1.37-1.79,2.79-.88C285.92,429.46,285.83,431.19,285.53,432.43Z" fill="#cbd71f"/><path d="M251.75,398.17v21.21a2.59,2.59,0,0,0,2.58,2.59h7.58a2.59,2.59,0,0,0,2.58-2.58h0V398.17Z" fill="#fff"/><path d="M252.47,398.17V418a2.59,2.59,0,0,0,2.58,2.58h6.14a2.57,2.57,0,0,0,2.58-2.56V398.17Z" fill="#fff"/><path d="M252.47,402.45V418a2.59,2.59,0,0,0,2.58,2.58h6.14a2.57,2.57,0,0,0,2.58-2.56V402.45Z" fill="#686175" data-primary="true"/><path d="M371.89,400.8v16.53a2,2,0,0,0,2,2h5.9a2,2,0,0,0,2-2V400.8Z" fill="#eee"/><path d="M372.45,400.8v15.48a2,2,0,0,0,2,2h4.78a2,2,0,0,0,2-2V400.8Z" fill="#fff"/><path d="M372.45,404.13v12.15a2,2,0,0,0,2,2h4.78a2,2,0,0,0,2-2V404.13Z" fill="#686175" data-primary="true"/><path d="M241.82,414.49l-20.26,12.66-1.93-9.31H203.26s2.62,13.82,6.76,19h24.23L246,421.55" fill="#feb0a3"/><path d="M367.31,412.3c-1.95,1.2-5.63,8.66-6.29,7.36,0,0-.91-9.86,2.36-10.51,0,0,1.76-10.73-2.36-19.91,0,0-9.76,4.63-11.4,21.53,0,0-2.31,19.48-2.14,25.88a150.81,150.81,0,0,1,17.66-.26c.6,0,1.72-12,4.48-18.62" fill="#feb0a3"/><path d="M403.54,431.57s-.46,3.12-5.45,3.12H355.61c-5,0-5.45-3.12-5.45-3.12Z" fill="#eee"/><rect x="355.73" y="434.69" width="42.24" height="1.7" fill="#c9c9c9"/><path d="M398.36,427.55a29.07,29.07,0,0,1-1.66,4H370.55c-.47-1-.79-2,0-2.06,1.49-.08,2.2,1.49,2.84,1s.42-4.68,2.13-4.68,1.42,1.28,3.41,1.35,4.82-4.19,6.41-3.62a19.31,19.31,0,0,0,2.11.7c.56.15.35-4,2.42-3.12s.63,6.68,1.84,7,2.2-5.61,3.76-5.33S398.8,425.86,398.36,427.55Z" fill="#a5a51f"/><path d="M381.43,431.57H355.76c-.75-1.29-2.5-4.74-.42-5.55,2.54-1,2.54,1.55,3.89,1.53s1.22-5.14,3.49-5,2.84,1,3.68,1.28,1.78-3.65,4.27-2.82,1.49,4.71,2.55,5.47,1.71-3.43,3.55-3.3,1.64,3.78,3,4,2.65.71,2.89,2C382.75,429.74,382.14,430.7,381.43,431.57Z" fill="#bcc11d"/><path d="M373.43,431.57h-21.3c-.65-1.09-2.28-4.19-.66-4.86,2-.83,2.88,2.87,3.52,2.62s-1.35-6.95,1-6.7,3.9,4.89,5.36,5.32.45-2.78,2.69-2.13,4.61,4.57,6,4.42,1.47-2.64,3-2C374.09,428.67,373.76,430.42,373.43,431.57Z" fill="#cbd71f"/><path d="M399.05,431.57H380.67c0-1.26.09-3.4,1.17-2.84,1.49.78,2.62,2.38,3.83,1.36s2.83-5.69,4.36-4.84,1.47-.78,3.94-.57,1.07,2.82,1.36,3.87,1.56-2.05,3.19-1C399.51,428.17,399.4,430.15,399.05,431.57Z" fill="#cbd71f"/><path d="M327.08,373.51a4.41,4.41,0,0,0,5.23-1.87S328.78,371,327.08,373.51Z" fill="#006838"/><path d="M320.36,434l-.63.73a.16.16,0,0,1-.23,0,.14.14,0,0,1-.05-.11,264.36,264.36,0,0,1,4.86-49.81A159.08,159.08,0,0,1,329.17,366h0c0,.07-2.22,7.17-4.61,18.94-2.21,10.84-4.73,25-4.09,48.83A.39.39,0,0,1,320.36,434Z" fill="#006838"/><path d="M329.13,363.12c-.78.63-3.77,3.31-.87,5.37,0,0,2.23.71,3-1a11,11,0,0,0,.75-3.39.3.3,0,0,0-.27-.31,1.92,1.92,0,0,1-.63-.14c-.27-.11-.41-.52-.79-.61a2.31,2.31,0,0,0-.74-.09A.83.83,0,0,0,329.13,363.12Z" fill="#686175" data-primary="true"/><path d="M327.47,367.74a1.8,1.8,0,0,1,.56,1.85V370a2,2,0,0,1,1.32-1.37A2.37,2.37,0,0,1,327.47,367.74Z" fill="#006838"/><path d="M322,371.68a4.43,4.43,0,0,1-5.2-2S320.38,369.17,322,371.68Z" fill="#006838"/><path d="M327.53,432.26l.62.75a.16.16,0,0,0,.23,0,.14.14,0,0,0,.05-.11,264,264,0,0,0-3.86-49.9,156.19,156.19,0,0,0-4.49-18.95h0c0,.07,2.08,7.21,4.24,19,2,10.88,4.22,25.09,3.11,48.89A.36.36,0,0,0,327.53,432.26Z" fill="#006838"/><path d="M320.18,361.25c.77.64,3.71,3.38.77,5.39,0,0-2.24.66-2.95-1.07a11.31,11.31,0,0,1-.69-3.4.3.3,0,0,1,.28-.31,2.71,2.71,0,0,0,.63-.13c.28-.1.43-.52.8-.6a2.36,2.36,0,0,1,.75-.07A.81.81,0,0,1,320.18,361.25Z" fill="#686175" data-primary="true"/><path d="M321.75,365.9a1.83,1.83,0,0,0-.59,1.84v.42a2,2,0,0,0-1.3-1.4A2.34,2.34,0,0,0,321.75,365.9Z" fill="#006838"/><path d="M323.34,368.07a4.43,4.43,0,0,0,4.69-3S324.46,365.28,323.34,368.07Z" fill="#006838"/><path d="M330,428.54l-.46.84a.15.15,0,0,1-.18.11.15.15,0,0,1-.11-.11,263.52,263.52,0,0,1-6.12-49.66,158.16,158.16,0,0,1,.63-19.47h0c0,.07-.61,7.48-.38,19.49.22,11.06.84,25.43,6.66,48.54A.39.39,0,0,1,330,428.54Z" fill="#006838"/><path d="M323.08,357.47c-.63.79-3,4,.32,5.44,0,0,2.32.2,2.67-1.64a11.22,11.22,0,0,0,0-3.47.29.29,0,0,0-.33-.24,2.36,2.36,0,0,1-.65,0c-.29-.05-.52-.42-.9-.43a2.06,2.06,0,0,0-.74.08A.76.76,0,0,0,323.08,357.47Z" fill="#686175" data-primary="true"/><path d="M322.46,362.35a1.82,1.82,0,0,1,1,1.68l.08.41a2,2,0,0,1,1-1.63A2.39,2.39,0,0,1,322.46,362.35Z" fill="#006838"/><path d="M326,364.44a3.73,3.73,0,0,1,2.22-3.39S328.73,363.2,326,364.44Z" fill="#034f29"/><path d="M320.81,360.3a2.64,2.64,0,0,0-1.76-2.54A2.19,2.19,0,0,0,320.81,360.3Z" fill="#686175" data-primary="true"/><path d="M326.78,372.13a2.86,2.86,0,0,0-.85-3.49A3.34,3.34,0,0,0,326.78,372.13Z" fill="#686175" data-primary="true"/><path d="M328,372a1.06,1.06,0,0,1,.92-1.12S329.11,371.68,328,372Z" fill="#034f29"/><path d="M318.73,368.64s-.79-1.64-3.31-1.35C315.42,367.29,315.8,369,318.73,368.64Z" fill="#034f29"/><path d="M334.38,434.4l-7.7-51.85a1.06,1.06,0,0,0-1-.89h-2.41a1,1,0,0,0-1,.84l-7.52,51.85a1.79,1.79,0,0,0,1.55,2h16.37a1.74,1.74,0,0,0,1.72-1.76A1.21,1.21,0,0,0,334.38,434.4Z" fill="#686175" data-primary="true"/><g opacity="0.2"><path d="M320.08,434.82l4-53.15a1,1,0,0,0-.85.83l-7.52,51.85a1.79,1.79,0,0,0,1.55,2h3.44A1.89,1.89,0,0,1,320.08,434.82Z"/></g><path d="M301.37,386.72v7.68a.92.92,0,0,1-.77,1h-2.11a.92.92,0,0,1-.78-1v-7.65H298Z" fill="#f48225" data-secondary="true"/><path d="M300.33,392.26H299a5.47,5.47,0,0,0-5.45,5.44v36.84a2,2,0,0,0,2,2h8.27a1.78,1.78,0,0,0,1.78-1.78V397.49a5.25,5.25,0,0,0-5.25-5.23Z" fill="#f48225" data-secondary="true"/><path d="M301.37,383.53v3.86c0,.21-.35.38-.77.38h-2.11c-.43,0-.78-.17-.78-.38v-3.86c0-.21.35-.39.78-.39h2.11C301,383.14,301.37,383.32,301.37,383.53Z"/><rect x="293.52" y="400.13" width="12.04" height="23.15"/><path d="M326.79,374c-4.9-1.05-5-5.06-5-5.06C327.58,370.71,326.79,374,326.79,374Z" fill="#034f29"/><path d="M326.79,374c-4.9-1.05-5-5.06-5-5.06S325.69,371,326.79,374Z" fill="#006838"/><path d="M383.8,346.47s-7.71,15.1-12.26,17.95-2.64,9.87-2.64,9.87-3-15.69-.53-21.52C372.45,343.26,383.8,346.47,383.8,346.47Z" fill="#686175" data-primary="true"/><ellipse cx="367.75" cy="368.09" rx="3.14" ry="3.5" transform="matrix(0.82, -0.57, 0.57, 0.82, -144.21, 275.18)" fill="#feb0a3"/><path d="M397.22,368.28a2.77,2.77,0,0,1-1.21-.15,19.52,19.52,0,0,0,.61-4.87q0-1-.09-1.95a3.52,3.52,0,0,1,.69,7Z" fill="#feb0a3"/><ellipse cx="226.72" cy="347.15" rx="3.55" ry="5.53" transform="translate(-135.85 146) rotate(-27.83)" fill="#feb0a3"/><rect x="151.47" y="646.24" width="636.86" height="6" fill="#954e20"/><path d="M502.53,408.86a29.1,29.1,0,0,1,2.83-5.56,7.1,7.1,0,0,1,2.42-2s2.11-1,2.52-.61a1.15,1.15,0,0,1,0,1.46c-.3.34-1.2.65-1.5,1a3.31,3.31,0,0,0,0,2.24c.22.48,6.34-2.75,6.34-2.75s1.71-1,2.25-1.39,1.76-1.41,1.76-1.41,1.93-1.43,2.37-.81c.26.37-1.07,2.11-2.65,3.58s-3.64,2.87-3.52,3.07c.27.49,3.68-1.21,3.68-1.21A12.68,12.68,0,0,1,521.2,403c.73-.86,2.33-1.88,2.82-1.09a15.11,15.11,0,0,1-1.66,2.16s-1.36,1.06-2,1.61q-1.87,1.32-3.87,2.45c-.65.5-.28.55-.28.64a16.63,16.63,0,0,0,2.32-1.14,14.74,14.74,0,0,0,2.25-1.12,19,19,0,0,1,2.31-1.34c1.76-.87,2,.38.55,1.46l-1.83,1.3c-2.47,1.74-5.1,2.78-5,3.09s4.81-1.79,4.81-1.79,2.89-.47.67,1.12a22.13,22.13,0,0,1-5,2.75c-.72.22-3,1.75-5.64,2.12-1.95.28-4.75.6-6.1.75Z" fill="#feb0a3"/><path d="M367.31,412.3a21.1,21.1,0,0,1,2.17-4.26,5.52,5.52,0,0,1,1.85-1.51s1.62-.78,1.93-.46a.88.88,0,0,1,0,1.12c-.23.25-.92.49-1.15.74a2.54,2.54,0,0,0,0,1.72c.17.37,4.86-2.11,4.86-2.11s1.31-.77,1.73-1.07S380,405.4,380,405.4s1.48-1.1,1.82-.62c.2.28-.82,1.62-2,2.74s-2.79,2.2-2.7,2.36c.21.37,2.82-.93,2.82-.93a8.79,8.79,0,0,1,1.66-1.12c.57-.66,1.79-1.44,2.16-.84a11.25,11.25,0,0,1-1.26,1.65L381,409.88a33.43,33.43,0,0,1-3,1.88c-.5.38-.21.42-.21.49a14.65,14.65,0,0,0,1.78-.87,12,12,0,0,0,1.72-.86,13.4,13.4,0,0,1,1.77-1c1.35-.67,1.57.29.42,1.12l-1.4,1c-1.89,1.33-3.91,2.13-3.83,2.37S382,412.6,382,412.6s2.21-.36.52.86a16.84,16.84,0,0,1-3.86,2.11,16.34,16.34,0,0,1-4.32,1.62c-1.49.22-3.65.46-4.68.58Z" fill="#feb0a3"/><path d="M241.82,414.49a30,30,0,0,1,3.27-5.19,6.89,6.89,0,0,1,2.53-1.7s2.17-.82,2.53-.38a1.12,1.12,0,0,1-.12,1.43c-.33.3-1.23.53-1.56.83a3.19,3.19,0,0,0-.19,2.19c.17.49,6.45-2.14,6.45-2.14s1.76-.84,2.32-1.16,1.84-1.22,1.84-1.22,2-1.23,2.4-.58c.23.38-1.24,2-2.91,3.26s-3.82,2.49-3.72,2.7c.23.5,3.71-.86,3.71-.86a12,12,0,0,1,2.25-1.24c.8-.77,2.45-1.63,2.86-.81a14.93,14.93,0,0,1-1.81,2s-1.43.92-2.09,1.41a43.05,43.05,0,0,1-4,2.05c-.69.43-.33.52-.34.61a18.57,18.57,0,0,0,2.38-.92,13.61,13.61,0,0,0,2.29-.9,19,19,0,0,1,2.38-1.1c1.81-.7,2,.55.42,1.47l-1.91,1.11c-2.57,1.49-5.24,2.28-5.17,2.59s4.86-1.33,4.86-1.33,2.87-.21.57,1.16A22.94,22.94,0,0,1,255.9,420c-.73.15-3.09,1.44-5.71,1.57-1.93.1-4.71.17-6,.2Z" fill="#feb0a3"/><path d="M672.47,424.69c-.65-.36-3.65-2.25-8.57-5.25a9.08,9.08,0,0,0-3.83-.86s-3,0-3.2.72a1.42,1.42,0,0,0,.8,1.66c.53.21,1.72.06,2.25.27a4.17,4.17,0,0,1,1.26,2.54c0,.67-8.74.44-8.74.44s-2.5-.19-3.33-.32-2.77-.6-2.77-.6-3-.54-3.15.42c-.09.56,2.4,1.79,5,2.56,2.8.83,5.74,1.21,5.72,1.51,0,.7-4.85.69-4.85.69a15.06,15.06,0,0,0-3.28-.44c-1.31-.56-3.7-.82-3.8.35a18.7,18.7,0,0,0,3.08,1.51s2.15.45,3.15.72c1.78.49,4.53.37,5.76.61,1,.19.63.46.68.57a25.49,25.49,0,0,1-3.27,0,18.76,18.76,0,0,1-3.18,0,23.74,23.74,0,0,0-3.37-.22c-2.49,0-2.11,1.58.19,2l2.81.44c3.77.59,7.34.29,7.4.7s-6.45.67-6.45.67-3.54,1.08-.14,1.65a28.85,28.85,0,0,0,7.25.29c.94-.16,4.38.29,7.58-.76,2.36-.79,5.77-1.07,7.38-1.65Z" fill="#feb0a3"/><path d="M525.29,421.94s-3,13.82-6.81,13.82H485.66c-3.84,0-6.8-13.82-6.8-13.82Z" fill="#eee"/><path d="M484.38,435.18a2.18,2.18,0,0,0,1.39.58h32.81c3.85,0,6.81-13.82,6.81-13.82H513.61s-3,13.24-6.81,13.24Z" fill="#c9c9c9"/><path d="M510.45,421.94h-30c-1-1-3.3-3.66-1.85-4.92,1.8-1.55-.1-5.11,1.17-4.82s1.65,5.26,3,5.41-.15-5,2.48-4.68,2,6.67,3.41,7.06-.73-4.09.48-4.58,2.44,2.15,3.55,2.2-3.06-6.77-.33-6.77,2.14,1.94,3.06,2.09,2.68-.63,3.46.35-.49,4.57.92,4.91.88-4.38,2.29-4.13,2.53,1.68,3.59,1.83-.49-3.61,1.88-3.25C509.09,412.87,510,418.24,510.45,421.94Z" fill="#a5a51f"/><path d="M523.57,421.94H492.45c-1-1.88-2.2-4.91-.41-6,2.68-1.61,3.51,4.19,4.43,4.48s0-4.41,2-4.76,2.72,3.26,4.28,3.92,1-4.12,3.46-3.69,0,3.55,1.26,4.18.06-7.29,2.15-7.15,1.36,5.65,2.19,6.19.93-2.39,3.11-2.05,1.27,3.22,2.58,3.36,3.16-4.72,5-4.09C524.08,416.9,524.3,419.63,523.57,421.94Z" fill="#bcc11d"/><path d="M499.88,421.94H484.07c-.95-2.33-1.41-6.32.82-5.55,2.69.92,1.94,4.14,4.48,3.94s.14-3.21,1.41-3.21,1.85-3.41,4.43-3-.25,5.79.53,6.28,1.93-3,3.62-2.15C500.34,418.8,500.19,420.55,499.88,421.94Z" fill="#cbd71f"/><path d="M524.38,421.94H510.11c-.4-.77-1-2.08-.25-2.39,1-.43,1.89.54,2.58,0s-.39-4.23,1.36-4.23,1.46.58,2.44.58,1.26-3.55,3.62-3,0,6.87.76,7,2.59-5.19,4.19-4.68C525.9,415.57,525.23,419.29,524.38,421.94Z" fill="#cbd71f"/><path d="M681.28,323.29l-9.87.26a4.34,4.34,0,0,0,4.67,3.81C681.37,327.38,681.28,323.29,681.28,323.29Z" fill="#fff"/><path d="M672.18,311.13c0,1.44-.64,2.61-1.43,2.61s-1.43-1.17-1.43-2.61.64-2.61,1.43-2.61S672.18,309.69,672.18,311.13Z"/><path d="M681.28,311.54c0,1.44.64,2.61,1.43,2.61s1.43-1.17,1.43-2.61-.64-2.61-1.43-2.61S681.28,310.1,681.28,311.54Z"/><path d="M686.47,307.73a4.76,4.76,0,0,0-2.63-2.32,4.43,4.43,0,0,0-3.33.3.56.56,0,0,0-.26.7h0a.56.56,0,0,0,.72.35l.06,0A4.81,4.81,0,0,1,686.47,307.73Z"/><path d="M667.62,307.45a4.73,4.73,0,0,1,2.64-2.33,4.43,4.43,0,0,1,3.33.3.58.58,0,0,1,.26.71h0a.58.58,0,0,1-.75.34l0,0A4.83,4.83,0,0,0,667.62,307.45Z"/><path d="M676.86,319.12a.4.4,0,0,0,.31-.19.4.4,0,0,0-.13-.56h0l-1.17-.73.92-.34a.4.4,0,0,0,.27-.36l.16-2.66a.41.41,0,0,0-.39-.43h0a.4.4,0,0,0-.43.37h0l-.15,2.39-1.46.54a.42.42,0,0,0-.24.54.45.45,0,0,0,.16.2l1.9,1.17A.4.4,0,0,0,676.86,319.12Z" fill="#fd8571"/><path d="M509.59,335.81l-7.6.2a3.34,3.34,0,0,0,3.6,2.94C509.67,339,509.59,335.81,509.59,335.81Z" fill="#fff"/><path d="M380,372.72l7.61.2a3.36,3.36,0,0,1-3.6,2.94C379.92,375.87,380,372.72,380,372.72Z" fill="#fff"/><path d="M501.25,324.55c0,1.44-.64,2.61-1.43,2.61s-1.43-1.17-1.43-2.61.64-2.6,1.43-2.6S501.25,323.11,501.25,324.55Z"/><path d="M379.66,364.44c0,1-.44,1.78-1,1.78s-1-.79-1-1.78.44-1.78,1-1.78S379.66,363.46,379.66,364.44Z"/><path d="M390.87,364.44c0,1-.43,1.78-1,1.78s-1-.79-1-1.78.43-1.78,1-1.78S390.87,363.46,390.87,364.44Z"/><path d="M510.14,324.63c0,1.44.64,2.6,1.43,2.61s1.43-1.17,1.43-2.61-.64-2.61-1.43-2.61S510.14,323.19,510.14,324.63Z"/><path d="M515.27,320.87a4.78,4.78,0,0,0-2.64-2.32,4.43,4.43,0,0,0-3.33.3.57.57,0,0,0-.26.7h0a.58.58,0,0,0,.74.35l.05,0A4.83,4.83,0,0,1,515.27,320.87Z"/><path d="M496.69,320.87a4.76,4.76,0,0,1,2.63-2.32,4.43,4.43,0,0,1,3.33.3.57.57,0,0,1,.26.7h0a.56.56,0,0,1-.73.35l-.05,0A4.83,4.83,0,0,0,496.69,320.87Z"/><path d="M376.53,362.39a3.18,3.18,0,0,1,1.78-1.56,3,3,0,0,1,2.24.2.37.37,0,0,1,.17.47h0a.36.36,0,0,1-.46.24l-.06,0A3.27,3.27,0,0,0,376.53,362.39Z"/><path d="M392,362.39a3.16,3.16,0,0,0-1.77-1.56,3,3,0,0,0-2.24.2.39.39,0,0,0-.18.47h0a.38.38,0,0,0,.5.23h0A3.26,3.26,0,0,1,392,362.39Z"/><path d="M505.42,332.52a.4.4,0,0,0,.31-.19.4.4,0,0,0-.13-.56h0l-1.17-.73.92-.34a.42.42,0,0,0,.27-.36l.16-2.66a.41.41,0,0,0-.39-.43h0a.4.4,0,0,0-.43.37h0L504.8,330l-1.46.54a.4.4,0,0,0-.27.35.42.42,0,0,0,.19.39l1.9,1.17A.41.41,0,0,0,505.42,332.52Z" fill="#fd8571"/><path d="M383.32,370.39c-1.17-.44.65-1.24,1-1.49-.27-.16-1.22-.27-1.2-.71s-.58-4.42.67-2.7l.14,2.38C387.28,368.73,385,369.52,383.32,370.39Z" fill="#fd8571"/><path d="M241.44,358.36l9.95.26a4.38,4.38,0,0,1-4.71,3.84C241.34,362.48,241.44,358.36,241.44,358.36Z" fill="#fff"/><path d="M241,347.53c0,1.29-.58,2.33-1.28,2.33s-1.28-1-1.28-2.33.57-2.33,1.28-2.33S241,346.24,241,347.53Z"/><path d="M255.67,347.53c0,1.29-.58,2.33-1.28,2.33s-1.29-1-1.29-2.33.58-2.33,1.28-2.33S255.66,346.24,255.67,347.53Z"/><path d="M236.91,344.85a4.19,4.19,0,0,1,2.32-2,3.88,3.88,0,0,1,2.93.26.5.5,0,0,1,.23.62h0a.51.51,0,0,1-.65.3h0A4.26,4.26,0,0,0,236.91,344.85Z"/><path d="M257.14,344.85a4.16,4.16,0,0,0-2.32-2,3.88,3.88,0,0,0-2.93.26.5.5,0,0,0-.23.62h0a.51.51,0,0,0,.65.3h0A4.26,4.26,0,0,1,257.14,344.85Z"/><path d="M245.79,355.3c-1.54-.56.85-1.61,1.31-1.94-.35-.21-1.59-.35-1.56-.92s-.77-5.78.87-3.54l.19,3.12C251,353.14,247.92,354.17,245.79,355.3Z" fill="#fd8571"/><path d="M696.78,313.31a.38.38,0,0,1-.24-.44c.66-3-.9-4.05-1-4.09a.41.41,0,0,1-.12-.53.39.39,0,0,1,.52-.12c.09.05,2.1,1.34,1.31,4.9a.36.36,0,0,1-.43.29h0Z" fill="#fd8571"/><path d="M695.19,311.18A.41.41,0,0,1,695,311a.39.39,0,0,1,.14-.52,2.19,2.19,0,0,1,2.12.11.38.38,0,0,1,.13.52.39.39,0,0,1-.53.13,1.39,1.39,0,0,0-1.34-.1A.35.35,0,0,1,695.19,311.18Z" fill="#fd8571"/><path d="M527.91,327.24a.4.4,0,0,1-.25-.45c.67-3-.9-4.05-1-4.09a.39.39,0,0,1-.12-.52.39.39,0,0,1,.53-.13c.08.06,2.09,1.34,1.3,4.91a.39.39,0,0,1-.45.29Z" fill="#fd8571"/><path d="M526.31,325.11a.37.37,0,0,1-.21-.18.38.38,0,0,1,.15-.52h0a2.17,2.17,0,0,1,2.11.11.39.39,0,0,1,.13.53.41.41,0,0,1-.53.12,1.34,1.34,0,0,0-1.34-.09A.42.42,0,0,1,526.31,325.11Z" fill="#fd8571"/><path d="M397.51,366.37a.21.21,0,0,1-.09-.26c.69-1.52,0-2.24-.05-2.27a.21.21,0,0,1,0-.29.19.19,0,0,1,.27,0h0a2.32,2.32,0,0,1,.15,2.74.21.21,0,0,1-.27.1Z" fill="#fd8571"/><path d="M396.9,365.06a.17.17,0,0,1-.09-.11.21.21,0,0,1,.12-.26h0a1.18,1.18,0,0,1,1.11.29.23.23,0,0,1,0,.29.2.2,0,0,1-.28,0h0a.75.75,0,0,0-.7-.2A.18.18,0,0,1,396.9,365.06Z" fill="#fd8571"/><path d="M227.17,349.57a.34.34,0,0,0-.06-.44c-2-1.74-1.47-3.27-1.45-3.33a.35.35,0,0,0-.18-.43.34.34,0,0,0-.43.19c0,.08-.76,2,1.63,4.07a.33.33,0,0,0,.47,0h0Z" fill="#fd8571"/><path d="M227.18,347.26a.28.28,0,0,0,0-.22.34.34,0,0,0-.37-.29,1.89,1.89,0,0,0-1.41,1.17.33.33,0,0,0,.61.25,1.19,1.19,0,0,1,.89-.76A.36.36,0,0,0,227.18,347.26Z" fill="#fd8571"/><g id="be18daa2-a98d-441a-8882-e93b77582b1c" data-name="e484297f-18e2-4e66-86f8-af3d3a3c4a3d"><circle cx="645.41" cy="181.24" r="21.67" fill="#fff"/><path d="M645.41,203.41a22.17,22.17,0,1,1,22.17-22.17h0A22.2,22.2,0,0,1,645.41,203.41Zm0-43.34a21.17,21.17,0,1,0,21.17,21.17h0A21.19,21.19,0,0,0,645.41,160.07Z" fill="#686175" data-primary="true"/><path d="M625.6,172.5h39.64a21.66,21.66,0,0,0-39.64,0Z" fill="#686175" data-primary="true"/><line x1="645.61" y1="155.52" x2="645.61" y2="33.44" fill="none" stroke="#000" stroke-miterlimit="10"/><rect x="643.13" y="153.5" width="4.56" height="7.6" fill="#686175" data-primary="true"/></g><g id="b8707bab-7766-4e74-84e9-e59d04f567e1" data-name="e8bba8f3-a638-4215-9f8b-9f1187d5c6d3"><circle cx="247.05" cy="251.96" r="21.67" fill="#fff"/><path d="M247.05,274.13A22.17,22.17,0,1,1,269.22,252v0A22.21,22.21,0,0,1,247.05,274.13Zm0-43.34A21.17,21.17,0,1,0,268.22,252a21.17,21.17,0,0,0-21.17-21.21Z" fill="#686175" data-primary="true"/><path d="M227.24,243.22h39.64a21.65,21.65,0,0,0-39.64,0Z" fill="#686175" data-primary="true"/><line x1="247.25" y1="226.24" x2="247.25" y2="165.2" fill="none" stroke="#000" stroke-miterlimit="10"/><rect x="244.77" y="224.22" width="4.56" height="7.6" fill="#686175" data-primary="true"/></g></g></svg>