<svg xmlns="http://www.w3.org/2000/svg" width="865.76" height="682.89" viewBox="0 0 865.76 682.89"><path d="M856,400.59q-.3,3.56-.65,7.14-1.4,14.19-3.61,28.64c-.36,2.32-.73,4.64-1.12,7q-2.8,16.74-6.74,33.75-2.55,11-5.59,22-4.69,17.14-10.61,34.43c-.51,1.49-1,3-1.56,4.49Q818.77,559,809.6,580q-8,18.21-17.32,36.44-4.11,8-8.51,16-4.14,7.51-8.51,15L774,649.7v.06H756.07l-588.46-1.29h-5.67s-1.58-1-4.42-3.07c-1.55-1.11-3.49-2.51-5.74-4.2-1-.72-2-1.5-3.08-2.33-6.27-4.79-14.4-11.32-23.59-19.41h0l-.72-.64c-2-1.74-4-3.54-6-5.42l-.92-.85-.46-.42L115.78,611l-.28-.25-2.17-2q-6.28-5.94-12.89-12.66c-1.49-1.52-3-3.06-4.48-4.64l-.15-.16q-4.26-4.49-8.56-9.27l-1.84-2-.77-.88q-4.77-5.4-9.5-11.18c-.72-.87-1.43-1.74-2.14-2.63q-4.44-5.5-8.77-11.32l-.76-1h0c-.8-1.09-1.61-2.18-2.4-3.29s-1.71-2.37-2.55-3.57c-4.71-6.69-9.27-13.66-13.59-20.88q-4.09-6.84-7.88-14h0c-1-2-2.08-4-3.07-6C3.14,443.6-7.81,366.13,44.23,280.9a221,221,0,0,1,56.11-62.15q8.32-6.25,17-11.59A236,236,0,0,1,148.62,191c96-41,207.22-17.43,232.08-5.55,0,0,64.37-172.23,258-150.42,44.12,5,84,24.55,117.26,55.26a254.71,254.71,0,0,1,19.22,19.8q4.35,5,8.51,10.28,4.37,5.53,8.51,11.38c37.35,52.59,60.93,122.93,64.91,202.4A494.39,494.39,0,0,1,856,400.59Z" fill="#f7dfc8"/><path d="M783.72,120.4V632.45q-4.76,8.63-9.82,17.24l-55.8-.12-32.2-.07-105.44-.22-35.6-.07-383-.8s-5-3.31-13.24-9.6A458.31,458.31,0,0,1,100.34,596V218.75A231.37,231.37,0,0,1,148.62,191c96-41,207.22-17.43,232.08-5.55,0,0,8.77-23.46,29.57-52A266.42,266.42,0,0,1,443.44,96c40.61-37.91,103.39-71.25,195.29-60.9,44.12,5,84,24.55,117.26,55.26a248.25,248.25,0,0,1,17.93,18.34Q778.95,114.35,783.72,120.4Z" fill="#fbecdb"/><path d="M783.72,120.4v43.79l-445,65.59,435.2-121.12Q778.95,114.35,783.72,120.4Z" fill="#fff4e9"/><path d="M502.89,607h42v42.17l-383-.8s-5-3.31-13.24-9.6A457.13,457.13,0,0,1,100.34,596V309.63l.15-.18h1.6v73.67h38.59V264.55l1.46-1.41h9.37v-.06H206v.06h.05v17.77H206v12.22h.05V310.9H206v12.27h.05v17.77H206V341l5.78-.06V248H273v11.77h0v17.77h0v15.62h0V310.9h0v12.27h0v17.77h0v11.35h0v17.78h0v11.35h0v17.77h0v10.69h0v11.28h0v1.24h69V524.11h25.77v25.62h27.78V505.61h50V385.72h7.82V373.78h1.11v11.94h38.9V373.78h1.12v11.93H503Z" fill="#f8e7d4"/><polygon points="685.9 229.78 685.9 649.5 580.46 649.28 580.46 229.78 685.9 229.78" fill="#f8e7d4"/><path d="M783.72,290.36V632.45q-4.76,8.63-9.82,17.24l-55.8-.12V290.36Z" fill="#f8e7d4"/><path d="M117.37,207.16V612.49c-5.46-5-11.18-10.54-17-16.51V218.75Q108.67,212.5,117.37,207.16Z" fill="#e5bd9e"/><path d="M631.1,60.65,410.27,133.5A266.82,266.82,0,0,1,443.44,96Z" fill="#fff4e9"/><path d="M514.11,137.63a13.19,13.19,0,1,1,13.19,13.19,13.2,13.2,0,0,1-13.19-13.19Z" fill="#fff4e9"/><path d="M792.23,131.78V616.45q-4.11,8-8.51,16-4.14,7.51-8.51,15V110.12q4.35,5,8.51,10.28Q788.09,125.94,792.23,131.78Z" fill="#e5bd9e"/><path d="M838.24,499.14q-4.69,17.14-10.61,34.43c-.51,1.49-1,3-1.56,4.49q-7.35,20.91-16.52,42a71.42,71.42,0,0,1-11.34,2.8c-15.46,2.32-10.68-4-5.36-13.45s22.19-13.64,26-18-4.11-4.35-13.42-.1-10.59,15.6-25.53,22.76-37.42-17.64-37.42-17.64c11.91-.61,28.91-13.54,28.3-17.49s-28.87,6.82-33.7,7.34-15.81-5.49-17.51-24.94,30.18-24.88,30.18-24.88,31.64,23.52,37.81,22.1-23.12-25.4-23.12-25.4c11-5.3,45.28-2,45.28-2s11.41,36.8,17,33.9S815,493,815,493C823.34,492.49,832.92,496.5,838.24,499.14Z" fill="#599dad"/><path d="M827.63,533.57c-.51,1.49-1,3-1.56,4.49-13.47-7.38-39.75-14.55-90.81-16.23C735.26,521.83,796.85,519.46,827.63,533.57Z" fill="#599dad"/><path d="M61.05,549.61q-1.29-1.77-2.55-3.57c-4.71-6.69-9.27-13.66-13.59-20.88.36-13.47-.32-26.71-.32-26.71s45.11-21.69,62.81-20c0,0-28,47.39-18.84,46.25s40.54-49.1,40.54-49.1,46.26-8.57,53.68,18.84-4.57,41.11-11.42,42.83-50.82,1.14-49.68,6.85,30.83,14.85,47.4,9.71c0,0-18.28,45.11-42.26,42.82-21.69-2.06-29.84-14.41-42.18-17.59q-4.77-5.4-9.5-11.18c-.72-.87-1.43-1.74-2.14-2.63q-4.44-5.5-8.77-11.32Z" fill="#6bb7bf"/><path d="M64.23,554c18.86-14.28,49.15-31.4,97.4-50.92-1.31.43-61.06,19.93-100.58,46.58Z" fill="#599dad"/><path d="M850.57,443.35q-2.8,16.74-6.74,33.75c-15.34-.1-32.28-3.65-43.91-8.36-22.66-9.18-11.16-13.93,3.51-22.37C817,438.55,840.33,444.6,850.57,443.35Z" fill="#86d1cd"/><path d="M856,400.59q-.3,3.56-.65,7.14-1.4,14.19-3.61,28.64c-3.78-1.87-9.82-3.54-16.9-4.29-15.92-1.69-26.67,12.56-52.48,10.3S746,388.84,746,388.84c16.51,8.67,49.7,4.8,52-1S753.71,374,746.8,370.9s-16.93-20-3.73-47.53,60.45-9.46,60.45-9.46,23.86,56.86,33.3,59.86-10.9-52.6-10.9-52.6c7.85.68,19.84,6.46,31.23,13A495.77,495.77,0,0,1,856,400.59Z" fill="#86d1cd"/><path d="M763.75,336.54c.87.47,55.32,30,92.2,64q-.3,3.56-.65,7.14C838,389.2,809.59,365.72,763.75,336.54Z" fill="#6bb7bf"/><path d="M444.83,339.1l9.82-22.74a4,4,0,0,1,3.66-2.41h0L440.2,354.82s-2.27-.93-.37-5Z" fill="#686175" data-primary="true"/><path d="M444.83,339.1l9.82-22.74a4,4,0,0,1,3.66-2.41h0L440.2,354.82s-2.27-.93-.37-5Z" fill="#fff" opacity="0.2" style="isolation:isolate"/><path d="M466.79,341.71l8.58-20a2.18,2.18,0,0,0-1.15-2.86l-.21-.08L458.31,314,440.2,354.82l11.39,2.83,4.69-2.51s8.61-7.2,8.61-8A41.57,41.57,0,0,1,466.79,341.71Z" fill="#686175" data-primary="true"/><rect x="295.78" y="520.32" width="10.43" height="126" fill="#954e20"/><rect x="282" y="510.81" width="148.4" height="19.03" rx="9.51" fill="#ab6f4e"/><rect x="400.8" y="520.32" width="10.43" height="126" fill="#954e20"/><path d="M539.45,564.85s17.09-2.47,16.32,3.8a3.54,3.54,0,0,1-2.4,2.86l-42,12.11s-4.41,1.36-4-7.36l2.61-7.7L534,567Z" fill="#f48225" data-secondary="true"/><path d="M516.07,549.28l9.63,15.65,13.75-.08s-4.51,7.4-12.89,8.63a6.73,6.73,0,0,1-1,.07c-2.46,0-14,.34-18.3,2.71l-9.79-16Z" fill="#feb0a3"/><polygon points="170.6 648.76 222.06 476.98 233.19 476.98 183.12 648.76 170.6 648.76" fill="#954e20"/><polygon points="731.06 648.76 679.59 476.98 668.47 476.98 718.54 648.76 731.06 648.76" fill="#954e20"/><rect x="550.78" y="269.2" width="84.97" height="83.71" rx="4.9" fill="#efe1bf" stroke="#ab6f4e" stroke-miterlimit="10"/><rect x="441.14" y="196.1" width="84.97" height="83.71" rx="4.9" fill="#efe1bf" stroke="#ab6f4e" stroke-miterlimit="10"/><polygon points="605.96 331.63 580.69 331.63 575.36 280.16 610.82 280.16 605.96 331.63" fill="#8b5e3c"/><polygon points="606.46 326.3 579.97 326.3 576.72 293.36 609.58 293.36 606.46 326.3" opacity="0.16" style="isolation:isolate"/><path d="M587.22,338.72h0l-1.63.88-.24-1,2-1.1h1.09v9.37h-1.23Z" fill="#fff"/><path d="M597.44,338.61h-3.58l-.36,2.4a6.64,6.64,0,0,1,.77-.05,4,4,0,0,1,2,.5,2.69,2.69,0,0,1,1.34,2.41,3.26,3.26,0,0,1-3.29,3.21h-.2a4.54,4.54,0,0,1-2.34-.58l.32-1a4.11,4.11,0,0,0,2,.52,2.05,2.05,0,0,0,2.21-1.89.41.41,0,0,0,0-.11c0-1.21-.82-2.07-2.69-2.07a8,8,0,0,0-1.3.1l.61-4.5h4.48Z" fill="#fff"/><path d="M601.72,348.15v-1.46a4.2,4.2,0,0,1-2.21-.63l.35-1a3.84,3.84,0,0,0,2.08.62,1.52,1.52,0,0,0,1.71-1.41c0-.82-.56-1.28-1.63-1.71-1.47-.58-2.38-1.24-2.38-2.5a2.37,2.37,0,0,1,2.18-2.32v-1.45h.89v1.39a3.76,3.76,0,0,1,1.88.51l-.36.95a3.62,3.62,0,0,0-1.82-.49c-1.11,0-1.53.66-1.53,1.24,0,.75.54,1.12,1.79,1.64,1.48.61,2.23,1.36,2.23,2.64a2.51,2.51,0,0,1-2.27,2.45v1.5Z" fill="#fff"/><path d="M475.74,263.49h0l-1.63.88-.24-1,2.05-1.09H477v9.37h-1.23Z" fill="#fff"/><path d="M480.37,271.68v-.78l1-1c2.4-2.27,3.48-3.49,3.49-4.9a1.67,1.67,0,0,0-1.52-1.81,1.93,1.93,0,0,0-.34,0,3.16,3.16,0,0,0-2,.79l-.4-.89a4.11,4.11,0,0,1,2.65-1,2.63,2.63,0,0,1,2.86,2.38c0,.11,0,.23,0,.34,0,1.73-1.26,3.13-3.23,5l-.75.69h4.21v1.06Z" fill="#fff"/><path d="M490.24,272.91v-1.45a4.2,4.2,0,0,1-2.21-.63l.35-1a3.84,3.84,0,0,0,2.08.62,1.52,1.52,0,0,0,1.71-1.41c0-.82-.56-1.29-1.63-1.72-1.47-.57-2.38-1.24-2.38-2.49a2.36,2.36,0,0,1,2.18-2.32v-1.46h.89v1.4a3.76,3.76,0,0,1,1.88.51l-.36,1a3.43,3.43,0,0,0-1.82-.49c-1.11,0-1.53.66-1.53,1.24,0,.75.54,1.12,1.79,1.64,1.49.6,2.23,1.35,2.23,2.64a2.51,2.51,0,0,1-2.27,2.45v1.49Z" fill="#fff"/><rect x="469.75" y="224.46" width="27.59" height="8.69" fill="#a97c50"/><path d="M469.75,233.14l2.91,23.73a1.48,1.48,0,0,0,1.48,1.31h18.34A1.5,1.5,0,0,0,494,256.9l3.39-23.76Z" fill="#8b5e3c"/><path d="M488.15,233.14s.51,17.12-9.45,25h13.78s1.56,0,1.58-2.08l3.28-23Z" opacity="0.16" style="isolation:isolate"/><path d="M470.9,224.46s-5.74-4.33.7-8.33c0,0,1.91,0,2.08-3,0,0-1.73-3.13,3-5.21,0,0,6.33-4.18,7-7.48,0,0,3.62.7,5.88,7.48,0,0,3.65-.54,3.82,4.51,0,0,7.68,2.23,4,12Z" fill="#686175" data-primary="true"/><path d="M473.68,213.17s13.67.8,17.88-4.73c0,0,2.29,1.59,1.77,4,0,0,7.85,2.23,4,12H489.5s.15-5.26-1.49-8a55.45,55.45,0,0,1-16.42-.32S473.55,216.15,473.68,213.17Z" opacity="0.16" style="isolation:isolate"/><path d="M440.54,637s18.19,3.64,15.15,9.7a3.83,3.83,0,0,1-3.45,2H405.78s-5.42-3.06-1.9-11.75l5.41-6.86,24.9,7.09Z" fill="#f48225" data-secondary="true"/><rect x="323.21" y="274.12" width="29.68" height="43.44" fill="#feb0a3"/><path d="M375.94,410l1,8.15s-41.08,7.59-75.08,0l.86-5.65S359.88,414.23,375.94,410Z"/><ellipse cx="345.85" cy="274.11" rx="23.34" ry="28.15" fill="#feb0a3"/><path d="M352.9,301s-6.19,3-14.84-.3l14.84,11.58Z" fill="#fd8571"/><path d="M382,322.56s6.42-1.72,7.05-11.27c0,0,.94-4.86,6.89-7.68,0,0,10.5-7.05,4.54-19.26a25.74,25.74,0,0,1-.46-15s3.74-11.65-8.5-18.14a18,18,0,0,0-2.45-1c-1.38-.48-4.21-2.12-4.56-7.65,0,0-3.29-15.35-23.34-12.84,0,0-2.19.63-7.21-1.57,0,0-15.66-10.65-29.44,6.27,0,0-.32,1.72-3.29.94,0,0-15-5.33-18.8,13.94,0,0,.31,8.61-3.13,14.72,0,0-6.11,11.91,4.23,21.93,0,0,2.82,1.1,3.6,7.68,0,0,0,12.06,16.06,20.67v-45s2.59-.74,4.07,3.78c0,0,2.55,1.63,2.73-4.62a12.87,12.87,0,0,1,1-4.41c1.3-3.18,4.15-7.57,9.87-6.66,0,0,7.49-.12,11-3.83a6.14,6.14,0,0,1,4.51-2.09,8,8,0,0,1,5.56,2.2s8.82,8.2,7.12,23.82c0,0-.77,17.19-16.12,23.45v13S370.28,314,382,322.56Z"/><path d="M383.45,407.83l-2.2-16.09s10.41,34.38,26.81,30.6c0,0,6.94,2.84,19.56-18l24-33.12s-4.71,1.92-9.72-4.19L432,355.46l-16.84,17.23-16.68-30.08s-9.62-16.15-16.45-20.05c0,0-10.1-8.14-29.13-8.61a38.43,38.43,0,0,1-29.68.31s-36.58-.31-46.68,28.59c0,0-10.1,19.26-18.56,52.86,0,0-5.64,28,17.62,28,0,0,8.93-.47,35.24-13.16l25.38-11.27s-9.4-9.4-6.11-26.55l-40.18,14.56L304,361.88s-6.82,39.24-2.82,50.51C301.21,412.39,367,415,383.45,407.83Z" fill="#f48225" data-secondary="true"/><path d="M339.27,387.25s3.76,12.46-3,12a24.29,24.29,0,0,1-4.66-7.74Z" opacity="0.2" style="isolation:isolate"/><polygon points="415.16 372.69 402.34 385.37 410.36 364.03 415.16 372.69" opacity="0.2" style="isolation:isolate"/><path d="M447.66,362.82s6.64,7.29,3.81,8.59c0,0-4.54,1.43-8.49-3.13Z" fill="#f48225" data-secondary="true"/><path d="M447.66,362.82s6.64,7.29,3.81,8.59c0,0-4.54,1.43-8.49-3.13Z" opacity="0.2" style="isolation:isolate"/><path d="M432,355.46l4.23-4.39s2.6-10.43,7.95-12.66a.51.51,0,0,1,.65.69l-5,10.72s-2.6,4.67,1.8,5.35l10,2.48,4.69-2.51s-8.15-9.24-2.2-11.12c0,0-3.47-6.1,1.23-5a2.68,2.68,0,0,1,1-3.13s1.72-1.73,3.76,3.44l2.39,3.54a.85.85,0,0,0,1.18.23.69.69,0,0,0,.13-.11.84.84,0,0,0,.09-1.1c-1.21-1.66-4.45-6.4-3.17-8.2,0,0,1.73-2.81,5.48,6,0,0,3.14,8,0,13a12.61,12.61,0,0,1-.58,1.7,10.53,10.53,0,0,1-9.09,6.39c-3.07.18-7.61.69-8.81,2.09L443,368.28l-1.75-1.87C437.88,362.76,434.81,359.09,432,355.46Z" fill="#feb0a3"/><line x1="462.07" y1="347.16" x2="457.22" y2="340.11" fill="none" stroke="#fd8571" stroke-miterlimit="10"/><line x1="459.64" y1="352.64" x2="455.02" y2="345.43" fill="none" stroke="#fd8571" stroke-miterlimit="10"/><path d="M377,418.1l6,10.27a8.43,8.43,0,0,0,7.28,4.19h48.83s23.25.93,31.59,19l54.69,98.25-42.17,25L443,511.34l8.18,107.52h-50L385.39,510.42l-72.75.92s-34.76-.46-24.56-49.58L301.9,418.1S340.76,424.48,377,418.1Z" fill="#686175" data-primary="true"/><polygon points="462.07 541.5 440.2 484 442.98 511.34 462.07 541.5" opacity="0.2" style="isolation:isolate"/><polygon points="365.93 510.66 402.34 482.15 342.76 510.96 365.93 510.66" opacity="0.2" style="isolation:isolate"/><path d="M425,618.86V631.6l15.54,5.4s-7.24,5.87-16.16,4.11a8.73,8.73,0,0,1-1-.28c-2.5-.84-14.26-4.67-19.5-3.83l-2.73-18.15Z" fill="#feb0a3"/><circle cx="355.13" cy="376.85" r="7.62" fill="none" stroke="#fff" stroke-miterlimit="10"/><polygon points="387.3 357.65 359.72 357.65 364.4 391.5 381.81 391.5 387.3 357.65" fill="#fff"/><path d="M330.11,372.69,343,367s2-2,9.8,1.79c0,0,6.79,1.37,5.28,6.5a27.61,27.61,0,0,1-3.57,8.29s-3.57,6.86-5.64,2.85a2.48,2.48,0,0,0-1.95-1.32,10.24,10.24,0,0,0-7.62,2.12l-7.71,4.25S328,384.39,330.11,372.69Z" fill="#feb0a3"/><line x1="358.05" y1="375.31" x2="347.5" y2="370.64" fill="none" stroke="#fd8571" stroke-miterlimit="10"/><line x1="356.85" y1="379" x2="346.59" y2="374.7" fill="none" stroke="#fd8571" stroke-miterlimit="10"/><line x1="355.13" y1="382.51" x2="346.59" y2="379" fill="none" stroke="#fd8571" stroke-miterlimit="10"/><ellipse cx="323.22" cy="276.44" rx="4.62" ry="7.13" fill="#feb0a3"/><path d="M193.55,462h516a7.66,7.66,0,0,1,7.65,7.65h0a7.66,7.66,0,0,1-7.65,7.65h-516a7.66,7.66,0,0,1-7.65-7.65h0A7.66,7.66,0,0,1,193.55,462Z" fill="#ab6f4e"/><polygon points="586.02 425.95 602.26 462.02 586.02 462.02 579.49 447.94 586.02 425.95" fill="#f48225" data-secondary="true"/><path d="M569.46,462H494.1a4.91,4.91,0,0,1-4.91-4.93,5,5,0,0,1,.23-1.49L514.78,376a7.28,7.28,0,0,1,7-5.09l76.16.37a3.23,3.23,0,0,1,3.21,3.25,3.06,3.06,0,0,1-.13.9l-24,81A7.84,7.84,0,0,1,569.46,462Z" fill="#fff" stroke="#f48225" stroke-miterlimit="10" stroke-width="2"/><polygon points="522.64 396.44 516.65 414.11 534.63 414.11 540 396.44 522.64 396.44" fill="none" stroke="#000" stroke-miterlimit="10" stroke-width="2"/><polygon points="557.67 414.11 563.04 396.44 580.71 396.44 575.03 414.11 557.67 414.11" fill="none" stroke="#000" stroke-miterlimit="10" stroke-width="2"/><polygon points="510.33 435.88 504.97 453.24 522.33 453.24 527.06 435.88 510.33 435.88" fill="none" stroke="#000" stroke-miterlimit="10" stroke-width="2"/><polyline points="551.01 396.78 556.81 396.78 555.19 403.14" fill="none" stroke="#000" stroke-miterlimit="10" stroke-width="2"/><polyline points="549.86 401.52 544.23 401.52 540 416.48" fill="none" stroke="#000" stroke-miterlimit="10" stroke-width="2"/><line x1="544.23" y1="412.97" x2="540.99" y2="412.97" fill="none" stroke="#000" stroke-miterlimit="10" stroke-width="2"/><line x1="552.63" y1="410.04" x2="549.39" y2="410.04" fill="none" stroke="#000" stroke-miterlimit="10" stroke-width="2"/><line x1="545.75" y1="406.74" x2="549.1" y2="406.74" fill="none" stroke="#000" stroke-miterlimit="10" stroke-width="2"/><line x1="543.25" y1="418.73" x2="546.6" y2="418.73" fill="none" stroke="#000" stroke-miterlimit="10" stroke-width="2"/><line x1="517.23" y1="430.56" x2="520.58" y2="430.56" fill="none" stroke="#000" stroke-miterlimit="10" stroke-width="2"/><line x1="523" y1="430.56" x2="528.95" y2="430.56" fill="none" stroke="#000" stroke-miterlimit="10" stroke-width="2"/><line x1="544.08" y1="396.44" x2="547.43" y2="396.44" fill="none" stroke="#000" stroke-miterlimit="10" stroke-width="2"/><polyline points="553.91 406.74 549.86 419.43 559.36 419.43" fill="none" stroke="#000" stroke-miterlimit="10" stroke-width="2"/><polyline points="567.47 418.73 573.27 418.73 571.88 422.99" fill="none" stroke="#000" stroke-miterlimit="10" stroke-width="2"/><polyline points="515.08 418.73 522.73 418.73 521.34 422.99" fill="none" stroke="#000" stroke-miterlimit="10" stroke-width="2"/><line x1="511.89" y1="431.43" x2="513.98" y2="424.12" fill="none" stroke="#000" stroke-miterlimit="10" stroke-width="2"/><line x1="517.46" y1="427.77" x2="512.94" y2="427.77" fill="none" stroke="#000" stroke-miterlimit="10" stroke-width="2"/><polyline points="528.32 419.43 532.93 419.43 531.12 425 523 425" fill="none" stroke="#000" stroke-miterlimit="10" stroke-width="2"/><line x1="525.98" y1="424.99" x2="525.98" y2="430.56" fill="none" stroke="#000" stroke-miterlimit="10" stroke-width="2"/><polyline points="540 422.21 538.5 427.77 540.99 427.77 539.08 435.88 532.93 435.88 532.24 438.84 535.37 438.84 535.13 442.78 540 442.78" fill="none" stroke="#000" stroke-miterlimit="10" stroke-width="2"/><polyline points="539.08 435.88 544.23 435.88 545.16 432.5 547.43 432.5" fill="none" stroke="#000" stroke-miterlimit="10" stroke-width="2"/><polyline points="534.32 430.56 535.37 427.77 538.5 427.77" fill="none" stroke="#000" stroke-miterlimit="10" stroke-width="2"/><line x1="555.53" y1="419.43" x2="554.61" y2="422.21" fill="none" stroke="#000" stroke-miterlimit="10" stroke-width="2"/><polyline points="545.16 424.12 551.88 424.12 551.01 427.77 556.81 427.77" fill="none" stroke="#000" stroke-miterlimit="10" stroke-width="2"/><polyline points="530.85 444.56 527.97 453.24 532.24 453.24" fill="none" stroke="#000" stroke-miterlimit="10" stroke-width="2"/><line x1="546.6" y1="441.68" x2="542.61" y2="454.2" fill="none" stroke="#000" stroke-miterlimit="10" stroke-width="2"/><line x1="530.1" y1="446.8" x2="544.61" y2="446.8" fill="none" stroke="#000" stroke-miterlimit="10" stroke-width="2"/><polyline points="543.77 450.57 548.23 450.57 547.43 453.24 552.63 453.24" fill="none" stroke="#000" stroke-miterlimit="10" stroke-width="2"/><polyline points="548.23 450.57 549.86 446.8 556.81 446.8 559.24 438.55 556.81 438.55 557.67 432.5 561.1 432.5 563.18 422.99" fill="none" stroke="#000" stroke-miterlimit="10" stroke-width="2"/><line x1="554.61" y1="432.5" x2="557.67" y2="432.5" fill="none" stroke="#000" stroke-miterlimit="10" stroke-width="2"/><polyline points="562.13 427.77 570.37 427.77 569.19 430.56" fill="none" stroke="#000" stroke-miterlimit="10" stroke-width="2"/><line x1="559.24" y1="438.55" x2="566.86" y2="438.55" fill="none" stroke="#000" stroke-miterlimit="10" stroke-width="2"/><line x1="566.25" y1="441.68" x2="567.47" y2="435.88" fill="none" stroke="#000" stroke-miterlimit="10" stroke-width="2"/><polyline points="558.49 449.68 557.67 453.24 563.18 453.24" fill="none" stroke="#000" stroke-miterlimit="10" stroke-width="2"/><line x1="565.1" y1="445.68" x2="564.23" y2="448.9" fill="none" stroke="#000" stroke-miterlimit="10" stroke-width="2"/><line x1="551.45" y1="434.64" x2="550.99" y2="437.08" fill="none" stroke="#000" stroke-miterlimit="10" stroke-width="2"/><line x1="552.63" y1="440.64" x2="552.14" y2="442.78" fill="none" stroke="#000" stroke-miterlimit="10" stroke-width="2"/><line x1="535.8" y1="453.24" x2="538.5" y2="453.24" fill="none" stroke="#000" stroke-miterlimit="10" stroke-width="2"/><line x1="560.84" y1="422.99" x2="561.36" y2="420.86" fill="none" stroke="#000" stroke-miterlimit="10" stroke-width="2"/><path d="M545.38,384.07c.39-1.41.86-3.1,1.29-4.36h0c-.73,1.17-1.55,2.41-2.5,3.79l-3.35,4.83h-1v-4.87a31.89,31.89,0,0,1,.16-4h0c-.45,1.26-1.08,2.94-1.67,4.45l-1.69,4.32h-1.2l4-10.07,1.62.06.05,4.94a28.71,28.71,0,0,1-.13,3.44h0c.58-1,1.3-2.11,2.15-3.37l3.36-4.82,1.61.06-2.73,10.12-1.23,0Z"/><path d="M554,384.08l-3.8-.14-1.2,3.64,4.23.15-.36,1.09-5.5-.19,3.34-10.1,5.28.19-.36,1.1-4-.15-1.06,3.19,3.81.14Z"/><path d="M554.47,388.88l3.33-10.09h1.38l1.45,5.22a21,21,0,0,1,.67,3.34h0c.33-1.36.7-2.59,1.22-4.16L564,379h1.19l-3.34,10.1h-1.27l-1.42-5.23a23.87,23.87,0,0,1-.71-3.44h0c-.35,1.28-.72,2.49-1.28,4.17l-1.42,4.32Z"/><path d="M568.61,379.17l-2,6c-.75,2.26-.09,3.26,1.21,3.3,1.46,0,2.71-.9,3.45-3.13l2-6,1.28.05-1.95,5.88c-1,3.1-3,4.32-5.14,4.24s-3.12-1.3-2.09-4.44l2-5.94Z"/><rect x="571.85" y="278.35" width="42.49" height="3.61" rx="1.8" fill="#a97c50"/><path d="M344.4,289.85l13.52.35s-.45,5.21-6.4,5.23C344.27,295.45,344.4,289.85,344.4,289.85Z" fill="#fff"/><path d="M343.8,275.13c0,1.75-.78,3.17-1.74,3.17s-1.74-1.42-1.74-3.17.77-3.16,1.74-3.16S343.8,273.38,343.8,275.13Z"/><path d="M363.73,275.13c0,1.75-.77,3.17-1.74,3.17s-1.74-1.42-1.74-3.17S361,272,362,272,363.73,273.38,363.73,275.13Z"/><path d="M338.24,271.49a5.68,5.68,0,0,1,3.16-2.78,5.3,5.3,0,0,1,4,.36.68.68,0,0,1,.31.84h0a.69.69,0,0,1-.88.41l-.06,0A5.78,5.78,0,0,0,338.24,271.49Z"/><path d="M365.74,271.49a5.68,5.68,0,0,0-3.16-2.78,5.3,5.3,0,0,0-4,.36.68.68,0,0,0-.31.84h0a.69.69,0,0,0,.88.41l.06,0A5.78,5.78,0,0,1,365.74,271.49Z"/><path d="M350.31,285.7c-2.09-.77,1.15-2.19,1.78-2.65-.47-.28-2.16-.46-2.12-1.25s-1-7.85,1.18-4.8l.26,4.24C357.34,282.76,353.21,284.16,350.31,285.7Z" fill="#fd8571"/><path d="M323.48,279.56a.46.46,0,0,0,.22-.55c-1.26-3.41.39-4.87.46-4.93a.45.45,0,0,0-.57-.69c-.09.08-2.23,1.9-.73,5.93a.45.45,0,0,0,.58.26Z" fill="#fd8571"/><path d="M325,276.82a.45.45,0,0,0,.21-.24A.44.44,0,0,0,325,276a2.56,2.56,0,0,0-2.45.47.47.47,0,0,0-.06.63.45.45,0,0,0,.63.06,1.61,1.61,0,0,1,1.55-.32A.42.42,0,0,0,325,276.82Z" fill="#fd8571"/><rect x="146.94" y="649.24" width="636.86" height="6" fill="#954e20"/></svg>