<svg id="b9160250-9a15-458c-aeb9-78c1dfd87f65" data-name="Layer 1" xmlns="http://www.w3.org/2000/svg" xmlns:xlink="http://www.w3.org/1999/xlink" width="865.76" height="682.89" viewBox="0 0 865.76 682.89"><defs><clipPath id="f585087d-b1c0-4dfc-af2a-be3b7cd40505"><path id="e40af29c-cf85-4676-b27e-a3e3ad3f8081" data-name="SVGID" d="M315.44,636.74s6.52-28.92,10.1-25.8c0,0,5.83,9,19.07,3.14,0,0,1.57-3.41,8.75,4.69,0,0,12.75,12.12,23.19,16a4.88,4.88,0,0,1,2.18,1.53c1.43,1.85,2.23,5.79-5.85,12.82Z" fill="#f48225" data-secondary="true"/></clipPath></defs><path d="M856,398.09q-.3,3.57-.65,7.14-1.39,14.2-3.61,28.64-.54,3.48-1.12,7-2.8,16.75-6.74,33.75-2.55,11-5.59,22-4.69,17.13-10.61,34.42c-.51,1.5-1,3-1.56,4.49q-7.35,20.91-16.52,42Q801.6,595.71,792.23,614q-4.11,8-8.51,16-4.14,7.5-8.51,15l-1.31,2.22,0,.06-17.88,0-588.46-1.28-5.67,0s-1.58-1-4.43-3.07c-1.54-1.11-3.48-2.51-5.73-4.19l-3.08-2.34c-6.27-4.79-14.4-11.31-23.59-19.4h0c-.24-.22-.47-.43-.72-.64q-2.94-2.61-6-5.42l-.92-.85-.46-.43q-.61-.55-1.23-1.14l-.28-.25-2.17-2q-6.28-5.92-12.89-12.65-2.24-2.28-4.48-4.64l-.15-.17c-2.84-3-5.7-6.08-8.56-9.27l-1.74-1.95c-.26-.29-.52-.58-.77-.88q-4.77-5.4-9.5-11.17c-.72-.87-1.43-1.75-2.14-2.63q-4.44-5.5-8.77-11.33c-.26-.34-.51-.67-.76-1l0,0c-.8-1.08-1.61-2.18-2.4-3.28s-1.71-2.37-2.55-3.57c-4.71-6.69-9.27-13.66-13.59-20.89q-4.09-6.82-7.88-14h0q-1.58-3-3.07-6C3.14,441.11-7.81,363.63,44.23,278.4a221.14,221.14,0,0,1,56.11-62.15q8.32-6.25,17-11.59a237.2,237.2,0,0,1,31.25-16.13c96-41,207.22-17.42,232.08-5.55,0,0,64.37-172.22,258-150.42,44.12,5,84,24.55,117.26,55.26a254,254,0,0,1,19.22,19.81q4.35,5,8.51,10.27,4.37,5.53,8.51,11.38c37.35,52.59,60.93,122.93,64.91,202.41A495.69,495.69,0,0,1,856,398.09Z" fill="#f7dfc8"/><path d="M783.72,117.9V630q-4.76,8.61-9.82,17.23l-55.8-.11L685.9,647l-105.44-.22-35.6-.08-383-.8s-5-3.31-13.24-9.6a457.14,457.14,0,0,1-48.28-42.82V216.25a231.5,231.5,0,0,1,48.28-27.72c96-41,207.22-17.42,232.08-5.55,0,0,8.77-23.46,29.57-52a265.9,265.9,0,0,1,33.17-37.55c40.61-37.9,103.39-71.24,195.29-60.9,44.12,5,84,24.55,117.26,55.26a251,251,0,0,1,17.93,18.35Q778.95,111.84,783.72,117.9Z" fill="#fbecdb"/><path d="M783.72,117.9v43.79l-445,65.6L773.92,106.17Q778.95,111.84,783.72,117.9Z" fill="#fff4e9"/><path d="M502.89,604.55h42v42.16l-383-.8s-5-3.31-13.24-9.6a457.14,457.14,0,0,1-48.28-42.82V307.13l.15-.18h1.6v73.67h38.59V262.06l1.46-1.42h9.37v-.06H206v.06h.05v17.77H206v12.23h.05v17.77H206v12.26h.05v17.78H206v.06l5.78-.06v-93H273v11.78h0V275h0v15.62h0v17.77h0v12.26h0v17.78h0V349.8h0v17.77h0v11.35h0v17.77h0v10.7h0v11.28h0v1.23h69V521.61h25.77v25.63h27.78V503.11h50V383.23h7.82V371.29h1.11v11.94h6.49v0h32.41V371.29h1.12v11.92h8.45Z" fill="#f8e7d4"/><polygon points="685.9 227.29 685.9 647.01 580.46 646.79 580.46 227.29 685.9 227.29" fill="#f8e7d4"/><path d="M783.72,287.86V630q-4.76,8.61-9.82,17.23l-55.8-.11V287.86Z" fill="#f8e7d4"/><path d="M117.37,204.66V610c-5.46-5-11.18-10.54-17-16.51V216.25Q108.67,210,117.37,204.66Z" fill="#e5bd9e"/><path d="M631.1,58.15,410.27,131a265.9,265.9,0,0,1,33.17-37.55Z" fill="#fff4e9"/><path d="M514.11,135.14a13.19,13.19,0,1,1,13.19,13.19A13.2,13.2,0,0,1,514.11,135.14Z" fill="#fff4e9"/><path d="M792.23,129.28V614q-4.11,8-8.51,16-4.14,7.5-8.51,15V107.63q4.35,5,8.51,10.27Q788.09,123.44,792.23,129.28Z" fill="#e5bd9e"/><path d="M838.24,496.65q-4.69,17.13-10.61,34.42c-.51,1.5-1,3-1.56,4.49q-7.35,20.91-16.52,42a71.18,71.18,0,0,1-11.34,2.79c-15.46,2.33-10.68-4-5.36-13.45s22.19-13.64,26-18-4.11-4.35-13.42-.1-10.59,15.6-25.53,22.75-37.42-17.63-37.42-17.63c11.91-.61,28.91-13.54,28.3-17.5s-28.87,6.83-33.7,7.35-15.81-5.49-17.51-25,30.18-24.87,30.18-24.87,31.64,23.52,37.81,22.09-23.12-25.39-23.12-25.39c11-5.3,45.28-2,45.28-2s11.41,36.8,17,33.9S815,490.49,815,490.49C823.34,490,832.92,494,838.24,496.65Z" fill="#599dad"/><path d="M827.63,531.07c-.51,1.5-1,3-1.56,4.49-13.47-7.37-39.75-14.55-90.81-16.22C735.26,519.34,796.85,517,827.63,531.07Z" fill="#599dad"/><path d="M61.05,547.12q-1.29-1.77-2.55-3.57c-4.71-6.69-9.27-13.66-13.59-20.89.36-13.47-.32-26.7-.32-26.7s45.11-21.7,62.81-20c0,0-28,47.4-18.84,46.26s40.54-49.11,40.54-49.11,46.26-8.56,53.68,18.84-4.57,41.12-11.42,42.83-50.82,1.14-49.68,6.86,30.83,14.84,47.4,9.7c0,0-18.28,45.11-42.26,42.83-21.69-2.07-29.84-14.41-42.18-17.6q-4.77-5.4-9.5-11.17c-.72-.87-1.43-1.75-2.14-2.63q-4.44-5.5-8.77-11.33Z" fill="#6bb7bf"/><path d="M64.23,551.45c18.86-14.28,49.15-31.39,97.4-50.91-1.31.42-61.06,19.93-100.58,46.58Z" fill="#599dad"/><path d="M850.57,440.85q-2.8,16.75-6.74,33.75c-15.34-.1-32.28-3.65-43.91-8.36-22.66-9.18-11.16-13.93,3.51-22.37C817,436.06,840.33,442.11,850.57,440.85Z" fill="#86d1cd"/><path d="M856,398.09q-.3,3.57-.65,7.14-1.39,14.2-3.61,28.64c-3.78-1.87-9.82-3.53-16.9-4.29-15.92-1.69-26.67,12.57-52.48,10.3S746,386.34,746,386.34c16.51,8.67,49.7,4.8,52-1s-44.29-13.79-51.2-16.94-16.93-20-3.73-47.52,60.45-9.46,60.45-9.46,23.86,56.86,33.3,59.85-10.9-52.6-10.9-52.6c7.85.68,19.84,6.47,31.23,13A495.69,495.69,0,0,1,856,398.09Z" fill="#86d1cd"/><path d="M763.75,334.05c.87.47,55.32,30,92.2,64q-.3,3.57-.65,7.14C838,386.7,809.59,363.22,763.75,334.05Z" fill="#6bb7bf"/><rect x="151.47" y="646.24" width="636.86" height="6" fill="#954e20"/><polygon points="493.33 382.44 466.92 382.59 461.7 332.08 498.37 332.08 493.33 382.44" fill="#686175" data-primary="true"/><polygon points="494.77 368.04 465.42 368.04 462.6 340.76 497.68 340.76 494.77 368.04" fill="#fff" opacity="0.2"/><rect x="459.85" y="325.88" width="40.88" height="7.37" fill="#f48225" data-secondary="true"/><path d="M464.66,259.68s23.88,10.1,11.38,32.7c0,0-11.06,19.88,5.13,25.65,0,0-9.07-4.09-5.43-15.46a22.51,22.51,0,0,1,2.89-5.78C482.69,290.92,496.36,267.64,464.66,259.68Z" fill="#e6e7e8"/><path d="M489.35,284.69s5.29,2.56,2.4,11.22l-4,7.21s-6.89,8.34,3.69,14.91c0,0-6.09-6.41-1.28-12.66C490.15,305.37,504.74,290.46,489.35,284.69Z" fill="#e6e7e8"/><polygon points="407.88 384.27 381.47 384.42 376.25 333.91 412.93 333.91 407.88 384.27" fill="#686175" data-primary="true"/><polygon points="409.32 369.87 379.97 369.87 377.15 342.59 412.23 342.59 409.32 369.87" fill="#fff" opacity="0.2"/><rect x="374.4" y="327.71" width="40.88" height="7.37" fill="#f48225" data-secondary="true"/><path d="M379.21,261.51s23.89,10.1,11.38,32.7c0,0-11.06,19.88,5.13,25.65,0,0-9.07-4.09-5.42-15.46a22.32,22.32,0,0,1,2.88-5.78C397.24,292.75,410.91,269.47,379.21,261.51Z" fill="#e6e7e8"/><path d="M403.9,286.52s5.29,2.56,2.4,11.22l-4,7.21s-6.89,8.34,3.69,14.91c0,0-6.09-6.41-1.28-12.67C404.7,307.19,419.29,292.29,403.9,286.52Z" fill="#e6e7e8"/><polygon points="198.09 645.39 194.55 645.03 210.07 481.33 217.1 482.06 198.09 645.39" fill="#954e20"/><polygon points="307.13 645.39 310.68 645.03 295.15 481.33 288.12 482.06 307.13 645.39" fill="#954e20"/><path d="M158.28,309.85h0a15.31,15.31,0,0,1,14.49,10.35l42.23,123a26.57,26.57,0,0,0,25.13,17.94h66.76a14.28,14.28,0,0,1,14.28,14.26h0a14.28,14.28,0,0,1-14.28,14.3h-94A26.56,26.56,0,0,1,187.47,471L143.64,329.72A15.34,15.34,0,0,1,158.28,309.85Z" fill="#ab6f4e"/><path d="M386.91,604.17l3.51,11.66s2,.1,5.39,2.6a9.23,9.23,0,0,0,6.19,1.63,8,8,0,0,0,3.83-1.13s5.14-2.77,6.93-6c0,0-5.39-6-6.93-13.54Z" fill="#feb0a3"/><rect x="433.76" y="385.49" width="7.21" height="260.52" fill="#954e20"/><path d="M299.4,467.85s30.14,6,42,5.83c0,0-16,20.52-11.22,124.72l17,3.85,19.41-67.2s-11.26-47.48-15.24-74C351.33,461.09,308,467.47,299.4,467.85Z"/><rect x="295.87" y="382.47" width="302.2" height="6.03" fill="#ab6f4e"/><path d="M289.77,272.34s4.49-1.92,18.91,25.49l27.9,50s12-1.45,30.78,3.84c0,0,44.72,13.95,55.3,12.51v18.27s-66.85,16.35-106.76-4.81c0,0-20.45-12.31-24.16-18.9l-2-77.76Z" fill="#f48225" data-secondary="true"/><path d="M546.09,415.9l49-28.08s2.2,9.79,5.89,14.85Z"/><path d="M546.09,415.9l49-28.08s2.2,9.79,5.89,14.85Z" fill="#fff" opacity="0.2"/><path d="M482.48,610.38,437.24,631.7S432,633.85,435.67,642l75.12-.08a44.13,44.13,0,0,0-1.53-29.21S485.31,626.81,482.48,610.38Z" fill="#686175" data-primary="true"/><path d="M510.79,641.93h0l-75.12.08h0a4.84,4.84,0,0,0,4.71,4.31l63.33,1.3A7.07,7.07,0,0,0,510.79,641.93Z"/><path d="M476.35,585.42,538,592.75,513.08,476l-3.37-15.79a18.34,18.34,0,0,1-1.16-8.81S499.68,474.22,493.7,512Z"/><polygon points="524.47 591.14 509.71 460.22 538.04 592.75 524.47 591.14" fill="#fff" opacity="0.2"/><line x1="508.54" y1="589.33" x2="522.42" y2="518.11" fill="none" stroke="#fff" stroke-miterlimit="10"/><polygon points="673.52 646.44 677.06 646.08 661.54 482.38 654.51 483.11 673.52 646.44" fill="#954e20"/><polygon points="564.47 646.44 560.93 646.08 576.46 482.38 583.49 483.11 564.47 646.44" fill="#954e20"/><path d="M538.48,594.83s50.72-15.85,68.8-35.72l-7.16-6.64S538.89,578,538.48,594.83Z"/><path d="M538.48,594.83s50.72-15.85,68.8-35.72l-7.16-6.64S538.89,578,538.48,594.83Z" fill="#fff" opacity="0.2"/><path d="M558.76,310.09l8.85-25.24,10.07-13.59,12.58,2.05-24,40.87S562.85,313.94,558.76,310.09Z"/><path d="M584.28,283.47s-16.14,4.74-21.19,33.6l-7.94,18.75,12.5-45.2-10.09-9.38S534.47,319,526.3,350c0,0-4.81,11.59,7.69,21.42,0,0,9.51,5.27,26.88-8.19l15-14.67,16.11,35.1s33.42-1,47.61-21.16l-1.68-22.36-26.93-64.29Z" fill="#686175" data-primary="true"/><path d="M583.77,273.55l.9,17.38a8.21,8.21,0,0,0,1.1,3.78c1.22,2.05,3.72,4.17,8.65,1.92,3.74-1.71,5.4-5.58,7.87-8.87,4.76-6.37,3.73-17.55-5.68-28.92Z" fill="#feb0a3"/><path d="M254.18,254.07s-37.11-.19-50.6,96.11c0,0-12,71.57,6,101.17,0,0,7.12,7.87,47.58-4.12l26.61-9.75s-3-9.36-3-17.61c0,0,29.23,15.36,73.82,10.87l3-16.11s-45.72-28.48-70.82-27c0,0,6-100.52-6.93-117.9C279.84,269.75,269.93,253.89,254.18,254.07Z" fill="#f48225" data-secondary="true"/><path d="M289.77,272.34s19,38.08-2.32,100.68a269.39,269.39,0,0,0,.52-50.67c-.93-21.15-.47-44.72-10.52-55.12C277.45,267.23,283.22,271.57,289.77,272.34Z" fill="#e6e7e8"/><path d="M357.59,417.32s17.94-2.39,27.56,5.79c0,0,14.91,9.38,8.42,22.36L378.9,429.12s-8.42,6.49-24.31,1.62Z" fill="#feb0a3"/><path d="M217.61,453.74s8.5,19.85,92.26,13.42c1.69-.13,3.36-.31,5-.57l36.43-5.5a638,638,0,0,0,17,80.24s9.94,44.25,18.59,62.84l18.92-4.81s-2.09-111.25-12.26-153.89L378.9,429.12s-7.26,6.44-24.31,1.62c0,0-40.18,4.89-73.82-10.87,0,0,.2,6.42,3,17.61C283.77,437.48,238.43,456.87,217.61,453.74Z"/><path d="M299.4,467.85l47.12,2s7.74,82,12,92.93l8-27.72s-11.08-36.54-15.24-74C351.33,461.09,311.63,467.36,299.4,467.85Z" fill="#fff" opacity="0.2"/><path d="M390.42,615.83S393,646,393.52,646h59.53s7.83-12.72-4.08-15.09c0,0-25.11-6.44-31.48-14.27,0,0-.32-3.75-4.73-3.75,0,0-5.87,7.31-10.76,7.16a10,10,0,0,1-6.89-2.46S392.05,615.51,390.42,615.83Z" fill="#f48225" data-secondary="true"/><rect x="398.09" y="640.62" width="1.75" height="5.38" opacity="0.2"/><rect x="402.75" y="640.62" width="1.75" height="5.38" opacity="0.2"/><rect x="407.68" y="640.62" width="1.75" height="5.38" opacity="0.2"/><rect x="412.76" y="640.62" width="1.75" height="5.38" opacity="0.2"/><rect x="418.2" y="640.62" width="1.75" height="5.38" opacity="0.2"/><rect x="422.87" y="640.62" width="1.75" height="5.38" opacity="0.2"/><rect x="427.8" y="640.62" width="1.75" height="5.38" opacity="0.2"/><rect x="432.88" y="640.62" width="1.75" height="5.38" opacity="0.2"/><rect x="439.22" y="640.62" width="1.75" height="5.38" opacity="0.2"/><rect x="444.15" y="640.62" width="1.75" height="5.38" opacity="0.2"/><rect x="449.23" y="640.62" width="1.75" height="5.38" opacity="0.2"/><polygon points="395.31 646.01 393.56 646.01 392.75 640.63 395.31 640.63 395.31 646.01" opacity="0.2"/><path d="M390.42,615.83l.66,7.48s14,5.78,26.41-6.66a4.32,4.32,0,0,0-4.73-3.75s-8.52,12.17-17.65,4.7C395.11,617.6,392.26,615.57,390.42,615.83Z" opacity="0.2"/><path d="M330.17,598.4l-4.63,12.54s6.73,9.19,19.07,3.14l2.55-11.83Z" fill="#feb0a3"/><path id="f8233822-3d7f-4d2c-bce4-df4e59bc042b" data-name="SVGID" d="M315.44,636.74s6.52-28.92,10.1-25.8c0,0,5.83,9,19.07,3.14,0,0,1.57-3.41,8.75,4.69,0,0,12.75,12.12,23.19,16a4.88,4.88,0,0,1,2.18,1.53c1.43,1.85,2.23,5.79-5.85,12.82Z" fill="#f48225" data-secondary="true"/><g clip-path="url(#f585087d-b1c0-4dfc-af2a-be3b7cd40505)"><path d="M322.08,614.44s9.36,11.93,28.27,1.29l2.48-3.9L343,608.71l-21.82-2.42Z" opacity="0.2"/></g><polygon points="315.44 636.74 317.13 629.89 319.48 630.9 317.46 637.17 315.44 636.74" opacity="0.2"/><polygon points="322.05 630.95 323.97 631.42 323.01 638.36 321.15 637.96 322.05 630.95" opacity="0.2"/><polygon points="326.72 632.26 325.54 638.91 327.67 639.36 328.65 632.97 326.72 632.26" opacity="0.2"/><rect x="331.04" y="633.53" width="1.95" height="6.52" transform="translate(130.85 -52.61) rotate(11.27)" opacity="0.2"/><rect x="336.05" y="634.53" width="1.95" height="6.52" transform="translate(131.15 -53.57) rotate(11.27)" opacity="0.2"/><rect x="341.46" y="635.8" width="1.95" height="6.52" transform="translate(131.5 -54.6) rotate(11.27)" opacity="0.2"/><rect x="346.47" y="636.8" width="1.95" height="6.52" transform="translate(131.79 -55.56) rotate(11.27)" opacity="0.2"/><rect x="351.78" y="638.12" width="1.95" height="6.52" transform="translate(132.15 -56.57) rotate(11.27)" opacity="0.2"/><rect x="357.19" y="639.39" width="1.95" height="6.52" transform="translate(132.5 -57.61) rotate(11.27)" opacity="0.2"/><rect x="362.2" y="640.39" width="1.95" height="6.52" transform="translate(132.8 -58.57) rotate(11.27)" opacity="0.2"/><rect x="366.78" y="641.3" width="1.95" height="6.52" transform="translate(133.06 -59.44) rotate(11.27)" opacity="0.2"/><rect x="371.41" y="642.22" width="1.95" height="6.52" transform="translate(133.33 -60.33) rotate(11.27)" opacity="0.2"/><path d="M713.33,310.91h0a15.33,15.33,0,0,0-14.5,10.34l-42.22,123a26.58,26.58,0,0,1-25.13,17.94H564.72a14.28,14.28,0,0,0-14.28,14.27h0a14.29,14.29,0,0,0,14.28,14.3h94A26.56,26.56,0,0,0,684.14,472L728,330.77A15.32,15.32,0,0,0,713.33,310.91Z" fill="#ab6f4e"/><path d="M422.66,366.24s4.54-.71,14.14-4.62c0,0,17.1-5.88,29.5,8.16a11.57,11.57,0,0,1,3,8c-.07,2-.62,4-2.44,3.93a2.62,2.62,0,0,1-1.3-.41c-2.55-1.55-15.37-9.13-18.8-6.38a.83.83,0,0,0,.44,1.45c2.59.34,8.46,1.39,8.83,3.89,0,0,2.37,3.38-10,1.45l-23.31.79Z" fill="#feb0a3"/><path d="M576.31,301.92a31,31,0,0,0-3.19,5.29A38.7,38.7,0,0,0,569.26,325a46,46,0,0,0,1.94,12.08,68.54,68.54,0,0,0,4.63,11.46,49.45,49.45,0,0,1-5.46-11.2,40.63,40.63,0,0,1-2.23-12.32,36.11,36.11,0,0,1,1.92-12.38A30.15,30.15,0,0,1,576.31,301.92Z" fill="#fff" opacity="0.1"/><path d="M635.22,347.61s-16.88,29-38.13,33.85l33.54-39.23S633.06,343,635.22,347.61Z" fill="#fff" opacity="0.1"/><path d="M522.13,366.72s-29.61-9.14-43.09,1.82c0,0-14.2,9.84-8.81,12.92l14.56-5.73s-1.8,3.06,12.4,4a76.63,76.63,0,0,0,24.06,2.78Z" fill="#feb0a3"/><path d="M501.87,377s-11.87-6.11-17.08-1.26" fill="none" stroke="#fd8571" stroke-miterlimit="10"/><path d="M591.94,383.67s7.07,17,9.06,19L546.09,415.9s-45.31,9.92-36.38,44.32l28.77,134.61s36.06-26.12,68.8-35.72c0,0-4.27-58.36-38.37-98.89,0,0,103.2,24.48,101.54-39.69,0,0,5.6-32.42-30.9-58C639.55,362.51,628.86,381.55,591.94,383.67Z"/><path d="M593.85,388.5s29.34.62,53.3-20.06" fill="none" stroke="#fff" stroke-miterlimit="10"/><path d="M623.32,382.59s33.9,51.83-31.59,56.13L541.13,444s-19.84-.33-7.94,16.54c0,0,42.7,61,52.89,106.63" fill="none" stroke="#fff" stroke-miterlimit="10"/><path d="M595.07,591.91l1.27-2.68a4.37,4.37,0,0,0,0-3.77l-8.94-18.28s12.41-7,19.91-8.07c0,0,2.45,12.6,9.19,18.37C616.47,577.48,607.09,602.25,595.07,591.91Z" fill="#feb0a3"/><path d="M595.07,591.91l-20.92,43.28s-2.65,4.81,5.05,8.66l56-45.45a42.38,42.38,0,0,0-18.75-20.92S607.09,602.49,595.07,591.91Z" fill="#686175" data-primary="true"/><path d="M635.22,598.4h0l-56,45.45h0a4.64,4.64,0,0,0,6.11.38l48.05-37.29A6.8,6.8,0,0,0,635.22,598.4Z"/><path d="M488.62,586.91s1.18,17-6.14,23.47c0,0,.75,15.88,26.78,2.34l1.53-23.12Z" fill="#feb0a3"/><path d="M584.17,281.39l-.4-7.28,8.14-6.79S589.42,277.06,584.17,281.39Z" fill="#fd8571"/><path d="M561.06,252.1s-4.09,3.89-.19,10.63c0,0,4.75,9.13,0,11.78,0,0-3.55,5.29-3.31,6.73,0,0,5.05,6,10.09,9.38,0,0,11.55-5.24,9.86-14.76S561.06,252.1,561.06,252.1Z" fill="#feb0a3"/><path d="M561.68,256.18s-1.14,5.16,5.93,17.13c0,0,3.8,6.46,10.06,4.91l-.16-2.36Z" fill="#fd8571"/><ellipse cx="579.47" cy="248.05" rx="18.6" ry="27.81" fill="#feb0a3"/><path d="M521.25,382.47l1-17.07s23.86-4.33,57.26-1.68c0,0,13.37-9.38,24.46-36.31,0,0,23.79,4.14,26.7,14.82,0,0-19.69,42.89-46.86,42.41Z" fill="#686175" data-primary="true"/><path d="M521.25,382.47l1-17.07s23.86-4.33,57.26-1.68c0,0,13.37-9.38,24.46-36.31,0,0,23.79,4.14,26.7,14.82,0,0-19.69,42.89-46.86,42.41Z" opacity="0.2"/><path d="M557.56,281.24a17.52,17.52,0,0,1,3.31-6.73c5.44-2.68,0-11.78,0-11.78-3.67-7.1.19-10.63.19-10.63-2-22.85,13.33-26.65,13.33-26.65a13.25,13.25,0,0,0,7,9.14c7.45,3.61,4.57,17.31,4.57,17.31-1.44,8.18,7.92,15.42,7.92,15.42a11.25,11.25,0,0,1,1,13.92c12-7.93-1-19.24-1-19.24-7.87-5.15-4.79-13.95-4.79-13.95,1.68-8-.73-10.33-.73-10.33-5.77-4.57-7-9.38-7-9.38a11.9,11.9,0,0,0,8.42,6.49c7.45,3.85,5.05,9.62,5.05,9.62a22.54,22.54,0,0,0,4.66,23.74,21.62,21.62,0,0,1,4.8,8c3.82,11.91-3.21,21.4-3.21,21.4-9.62,16.6-3,30.06-3,30.06C600.82,344,617.91,339,617.91,339c10.25-.17,14.72,4.42,16.42,7a19.72,19.72,0,0,0,4.92,5.26c13.58,9.69,29.64-.22,29.64-.22,18.27-6.73,14.9-21.4,14.9-21.4,2.17-13.46-12-20.2-12-20.2-8.65-5.77-9.14-13.22-9.14-13.22C667,273.31,661,267.32,661,267.32c7.7,6.28,4.57,22.1,4.57,22.1-3.26,13.25,14.91,23.32,14.91,23.32,11.06,8.18,2.4,28.13,2.4,28.13,18.28-24.52-7.21-42.08-7.21-42.08-8.42-5.29-6.73-10.82-6.73-10.82,5.05-24.28-23.33-38-23.33-38-16.11-8.17-17.31-18.51-17.31-18.51a49.57,49.57,0,0,0-19.72-26c-24-11.79-33.42,8.17-33.42,8.17-32.94,7.22-18.6,47.61-18.6,47.61,4.24,10.1-1.84,16.94-1.84,16.94a18,18,0,0,0-5,9.51,9.25,9.25,0,0,0,0,8.18Z"/><path d="M254.18,254.07S268,244,273.44,230.42l19,22.86s-2.53,12.81-2.69,19.06c0,0-3.37.87-8-1.41a11.06,11.06,0,0,1-4.27-3.7C274.75,263.3,267.05,254.07,254.18,254.07Z" fill="#feb0a3"/><path d="M292.46,253.28,291,261.51s-11.74-3.55-14.11-20.4C276.9,241.11,281.2,251.68,292.46,253.28Z" fill="#fd8571"/><ellipse cx="295.87" cy="220.24" rx="33.21" ry="22.92" transform="translate(46.43 491.95) rotate(-84.11)" fill="#feb0a3"/><path d="M269.68,237.58a38.83,38.83,0,0,0,2-3.36,41.75,41.75,0,0,0,1.78-3.8c-.17-.93-.33-1.93-.44-3a36.56,36.56,0,0,1-.19-4.77L283.88,215s1.24-2.44,8.93-2.12c0,0,9.14-.32,9.46-8.66,0,0,22.45-.32,22.12-23.88,0,0-6.41,1.44-20.35-6.09,0,0-14.59-6.09-22.29,3.85,0,0-3-2.89-8.17-1a5.13,5.13,0,0,1,4.17,2.25S255,180.88,257.86,206a43.49,43.49,0,0,0,4.65,15C265,225.78,268.73,233.79,269.68,237.58Z"/><ellipse cx="277.75" cy="217.68" rx="6.57" ry="7.53" fill="#feb0a3"/><path d="M298.67,222.57c0,1.72-.76,3.11-1.7,3.11s-1.71-1.39-1.71-3.11.76-3.11,1.71-3.11S298.67,220.86,298.67,222.57Z"/><path d="M316.54,222.57c0,1.72-.76,3.11-1.7,3.11s-1.71-1.39-1.71-3.11.76-3.11,1.71-3.11S316.54,220.86,316.54,222.57Z"/><path d="M289.57,218.27s1.64-3.38,4.79-4.22a8.06,8.06,0,0,1,6.05.54,1,1,0,0,1,.47,1.29h0a1.05,1.05,0,0,1-1.43.58C297.69,215.64,293.8,214.58,289.57,218.27Z"/><path d="M319,215.2c0,.44,0,.89,0,1.35a8.41,8.41,0,0,0-7.33-.09,1,1,0,0,1-.44.1,1.05,1.05,0,0,1-.52-2,8.07,8.07,0,0,1,6-.54A6.35,6.35,0,0,1,319,215.2Z"/><path d="M579.3,252.79c0,1.55.69,2.82,1.55,2.82s1.54-1.27,1.54-2.82-.69-2.82-1.54-2.82S579.3,251.23,579.3,252.79Z"/><path d="M563.07,252.79c0,1.55.69,2.82,1.55,2.82s1.55-1.27,1.55-2.82-.7-2.82-1.55-2.82S563.07,251.23,563.07,252.79Z"/><path d="M587.56,248.88s-1.49-3.07-4.35-3.83a7.29,7.29,0,0,0-5.49.49.94.94,0,0,0-.43,1.17h0a1,1,0,0,0,1.3.53C580.19,246.49,583.72,245.53,587.56,248.88Z"/><path d="M560.86,246.09l0,1.23a7.62,7.62,0,0,1,6.65-.08,1,1,0,0,0,.87-1.7,7.32,7.32,0,0,0-5.5-.49A5.84,5.84,0,0,0,560.86,246.09Z"/><path d="M276.78,221.42a.58.58,0,0,1-.21-.74c2.06-4.18.14-6.26.05-6.35a.58.58,0,0,1,0-.81.56.56,0,0,1,.8,0c.11.1,2.6,2.71.16,7.66a.58.58,0,0,1-.77.26Z" fill="#fd8571"/><path d="M275.28,217a.56.56,0,0,1-.25-.33.58.58,0,0,1,.4-.7,3.26,3.26,0,0,1,3.07.91.58.58,0,0,1-.82.82,2.09,2.09,0,0,0-1.94-.62A.56.56,0,0,1,275.28,217Z" fill="#fd8571"/><path d="M305.47,236.35c-1.93-.93,1.29-2,1.94-2.39-.43-.31-2-.63-1.93-1.38s-.32-7.62,1.54-4.5l-.12,4.08C312.46,234.13,308.38,235.12,305.47,236.35Z" fill="#fd8571"/><path d="M297.13,238.3l12.15,3.25s-1.54,4.61-6.92,3.34C295.79,243.33,297.13,238.3,297.13,238.3Z" fill="#fff"/><path d="M573.91,261.59c1.49-.87-1.16-1.51-1.7-1.77.32-.27,1.57-.64,1.44-1.23s-.26-6.09-1.54-3.48l.38,3.25C568.2,260.31,571.52,260.81,573.91,261.59Z" fill="#fd8571"/><path d="M570.41,267.26l10-2a4.47,4.47,0,0,1-3.82,4.88C571.23,271.38,570.41,267.26,570.41,267.26Z" fill="#fff"/></svg>