<svg id="f5e545dd-2f17-4256-9a02-e5578a683931" data-name="Layer 1" xmlns="http://www.w3.org/2000/svg" xmlns:xlink="http://www.w3.org/1999/xlink" width="865.76" height="682.89" viewBox="0 0 865.76 682.89"><defs><clipPath id="f204f5e2-c004-4858-b3fd-6fb0dfce4b8b"><path d="M468.22,340.87s-10.73,10.93,0,30.89c0,0,13.94,32.73,8.34,51.09,0,0,58.66,3.52,86.56-16.54a2,2,0,0,0,.8-1.68c-.44-8.79-4.44-70-31.09-84.41h-45.9A29.31,29.31,0,0,0,468.22,340.87Z" fill="#f48225" data-secondary="true"/></clipPath><clipPath id="e857b7a6-6668-4cbf-8133-481216cd86a8"><path d="M497.14,171.57l-13.21-8.29s-11.81-8.55-6.33-16.78a5.26,5.26,0,0,1,3.94-2.29l11.21-1s3.23.47,2.19,3.08c0,0-3.32,6.58,1.79,10.28,0,0,11.37,6.82,13.08,11.93,0,0,7.95,24.16,8.81,49.17,0,0,1.42,8.65-8.53,12.42l-26.37,11,7.9-24.59,9.38-2.3L499.67,176A5.43,5.43,0,0,0,497.14,171.57Z" fill="#fed194"/></clipPath></defs><g id="b3ee86c1-f28a-4384-979f-6d1d01f621f6" data-name="freepik--background-complete--inject-4"><polygon points="275.72 377.74 297.52 291.06 331.7 371.59 321.68 368.79 346.43 416.88 332.29 412.41 354.26 461.54 273.72 439.42 279.25 414.65 272.76 423.03 286.94 372.3 275.72 377.74" fill="#ebebeb"/><path d="M193.93,345l28-111.28L265.8,337.09l-12.86-3.59,31.77,61.74-18.15-5.75,20,53a528.55,528.55,0,0,0-96.39-16.78l8.33-33.37-8.33,10.77L208.34,338Z" fill="#f5f5f5"/><path d="M142.46,364l21.8-86.68,34.13,80.53-10-2.8,24.79,48.09L199,398.59l17.08,30.15a300.87,300.87,0,0,0-76.61-1.52l6.49-26.4-6.49,8.49,14.18-50.78Z" fill="#e0e0e0"/><path d="M61.16,363l28-111.27L133,355.14l-12.86-3.58,31.77,61.73-18.16-5.74,15.8,18.92c-38,4.94-62,8.8-92.2,21.21l8.32-37.24L57.38,421.2l18.19-65.12Z" fill="#f5f5f5"/><path d="M779.67,428.42l10.65-42.37L807,425.41l-4.92-1.36,12.09,23.5-6.89-2.13,9,17.57c-13.22-1.06-25.79-1.54-38.37-2.06l3.38-14.41-3.17,4.09,6.93-24.82Z" fill="#e0e0e0"/><path d="M792,461.46h-2l-6-.22c-5.26-.34-13-.21-23,.18a350.05,350.05,0,0,0-36.11,4c-14,2.26-29.85,5.43-47.24,9.49s-36.38,8.75-56.94,13.08c-5.13,1.13-10.38,2.05-15.71,3.11s-10.79,1.84-16.32,2.73L580.26,495c-2.81.36-5.64.79-8.51,1-5.74.47-11.54,1.12-17.44,1.3-5.91.37-11.89.33-17.94.38l-9.13-.23c-3-.05-6.12-.31-9.22-.46-12.33-.78-24.9-2.11-37.61-4.06a702.77,702.77,0,0,1-77.77-17.17c-26.31-7.15-51.74-15-76.44-22.07-12.36-3.54-24.51-6.93-36.49-10s-23.75-5.81-35.32-8.2-22.91-4.28-34-5.85-21.89-2.54-32.37-3.11a323.08,323.08,0,0,0-58.25,2.1,253.17,253.17,0,0,0-46.93,10.59,208.31,208.31,0,0,0-33.34,14.39L43.36,457c-1,.52-1.88,1.12-2.75,1.67l-2.47,1.68-4.51,2.88a20.71,20.71,0,0,0-1.91,1.3l-1.63,1.23-4.82,3.55-1.66,1.18s.54-.43,1.62-1.23L30,465.64l1.67-1.25c.59-.45,1.21-.9,1.89-1.33l4.52-2.9,2.5-1.64c.87-.56,1.76-1.13,2.75-1.68l6.08-3.46a206.17,206.17,0,0,1,33.38-14.5,252.82,252.82,0,0,1,47-10.69A324.08,324.08,0,0,1,188.12,426c10.48.57,21.3,1.63,32.41,3.09s22.44,3.47,34,5.83,23.36,5.13,35.34,8.19,24.15,6.44,36.51,10c24.71,7.06,50.15,14.9,76.44,22.06a703.31,703.31,0,0,0,77.66,17.08c12.7,2,25.25,3.29,37.57,4.07,3.09.15,6.15.41,9.21.47l9.11.23c6,0,12,0,17.89-.37,5.9-.15,11.69-.82,17.43-1.29,2.86-.21,5.64-.64,8.5-1l8.38-1.12q8.28-1.32,16.29-2.72c5.34-.95,10.58-2,15.71-3.1,20.54-4.31,39.5-9,56.94-13s33.26-7.21,47.29-9.4A345.73,345.73,0,0,1,761,461.11c10-.36,17.75-.45,23-.08l6,.28Z" fill="#e0e0e0"/><path d="M731.45,416.39l19.39-77L781.23,411l-8.9-2.5,22,42.77-12.53-4,9.68,14.19c-17.37-.56-40.26-1.25-62.14,3l5.31-15.25-5.82,7.5,12.6-45.14Z" fill="#f5f5f5"/><path d="M646.16,194.52c1-6.86-8.73-12.49-16-13.08-3.46-.28-7.06.25-10.35-.89-7.11-2.49-9.95-11.68-16.92-14.6-5.2-2.19-11.18-.24-16.21,2.25s-10,5.72-15.62,6.08c-4.89.31-10.15-1.5-14.48.88-3.19,1.79-4.86,5.47-7.79,7.63s-6.63,2.56-10.16,2.77-7.26.22-10.51,1.71-5.93,4.92-5.25,8.43Z" fill="#f5f5f5"/><path d="M299.08,195.71c.57-4.11-5.24-7.5-9.6-7.9-2.09-.16-4.26.15-6.22-.54-4.28-1.49-6-7-10.16-8.77-3.12-1.32-6.77-.14-9.74,1.38s-6,3.39-9.39,3.65c-2.93.19-6.12-.91-8.68.54-1.92,1.06-2.93,3.27-4.69,4.51a11.3,11.3,0,0,1-6.1,1.81,17.16,17.16,0,0,0-6.31,1c-1.95.9-3.57,3-3.16,5.07Z" fill="#f5f5f5"/><path d="M816.36,291.33c.56-4.12-5.25-7.51-9.62-7.9-2.07-.17-4.24.15-6.21-.54-4.27-1.49-6-7-10.16-8.77-3.13-1.32-6.77-.15-9.74,1.38s-6,3.38-9.39,3.65c-2.93.18-6.13-.9-8.69.53-1.92,1.13-2.92,3.28-4.69,4.59a11.18,11.18,0,0,1-6.12,1.65,17.47,17.47,0,0,0-6.32,1c-1.94.89-3.56,3-3.16,5.07Z" fill="#f5f5f5"/><path d="M492,291.62c.8-5.79-7.38-10.56-13.54-11.06-2.93-.23-6,.22-8.76-.75-6-2.1-8.41-9.88-14.29-12.35-4.39-1.86-9.45-.2-13.7,1.93s-8.47,4.84-13.22,5.15c-4.14.27-8.63-1.27-12.25.75-2.7,1.5-4.11,4.61-6.59,6.45s-5.65,2.18-8.62,2.33-6.14.2-8.9,1.46-5,4.16-4.44,7.13Z" fill="#ebebeb"/><path d="M692.66,303.69a3,3,0,1,1,4,2.84V471.7h-1.9V306.53A3,3,0,0,1,692.66,303.69Z" fill="#e0e0e0"/><path d="M662.5,328.75c4.31.67,7.46-2.95,8.47-6.16.93-3,1.37-6.06,2.67-8.89,1.83-3.95,6.66-5.77,11-5.41a30.67,30.67,0,0,1,12.07,3.79v25s-8.94-9.28-13-9.44c-6.7-.27-6.33,10.74-12.84,12.36a15.09,15.09,0,0,1-15.27-5.48,22.45,22.45,0,0,1-4.26-11.2S654.38,327.5,662.5,328.75Z" fill="#ebebeb"/><path d="M667.83,336.85a.35.35,0,0,0,.19-.1c.18-.12.35-.25.52-.38a9.26,9.26,0,0,0,1.58-1.73,12.73,12.73,0,0,0,1.59-3.09,31.57,31.57,0,0,0,1.13-4.08,44.57,44.57,0,0,0,1.13-7.64c0-1,.07-1.78.07-2.33v-.63a.89.89,0,0,0,0-.23.89.89,0,0,0,0,.23v.63a15.52,15.52,0,0,1-.14,2.32,51.23,51.23,0,0,1-1.13,7.6,34,34,0,0,1-1.13,4.06,13.62,13.62,0,0,1-1.53,3.08,10.1,10.1,0,0,1-1.51,1.75A7.37,7.37,0,0,0,667.83,336.85Z" fill="#e0e0e0"/><path d="M412.69,420h0a5.8,5.8,0,0,1,7.38,3.59h0l5,14.81a5.77,5.77,0,0,1-2.94,7l-1.48.72Z" fill="#e0e0e0"/><path d="M408.55,420.45l5.72,17.95q1.5,4.77,3,9.52a6.27,6.27,0,0,0,.33,1c.28.66,0-.61,0-.37a17.61,17.61,0,0,0,0,3.84v11c0,3.63,5.64,3.64,5.64,0v-9.54c0-2.16.37-4.67-.3-6.77l-6.65-20.83c-.77-2.43-1.55-4.85-2.32-7.29-1.13-3.44-6.55-2-5.45,1.5Z" fill="#ebebeb"/><path d="M435.83,450.8h7a11.73,11.73,0,0,1,11.69,11.73v.76H424.08v-.76A11.73,11.73,0,0,1,435.8,450.8Z" fill="#e0e0e0"/><path d="M397.72,461.81h57.19a3,3,0,0,1,3,3h0V492.6a3,3,0,0,1-3,3h-47.4a3,3,0,0,1-2.85-2l-9.77-27.79a3,3,0,0,1,1.86-3.85A3.18,3.18,0,0,1,397.72,461.81Z" fill="#f5f5f5"/><path d="M357.5,421.2v5.42s19.6.81,19.6,0v-11h-6.22l-4.8,4.81Z" fill="#e0e0e0"/><polygon points="497.63 442.19 498.62 451.48 503.22 455.77 511.69 456.25 511.69 440.48 498.8 439.96 497.63 442.19" fill="#e0e0e0"/><path d="M498.92,355.3l6.22,16.17q4.37,11.29,8.71,22.66a14,14,0,0,0,.86,2.26c.26.42-.07-1.13,0,0,.18,2.35.38,4.68.57,7q1.07,13,2.12,26.08c.5,6.13.94,12.27,1.51,18.38v.31a2.88,2.88,0,0,0,2.82,2.82,2.84,2.84,0,0,0,2.82-2.82l-1.16-15.46q-1.14-13.46-2.19-26.91c-.24-2.84-.47-5.64-.7-8.52a11.22,11.22,0,0,0-.58-3.19l-8-20.74c-2.46-6.41-4.88-12.83-7.39-19.18l-.13-.34a2.9,2.9,0,0,0-3.47-2,2.83,2.83,0,0,0-2,3.47Z" fill="#ebebeb"/><path d="M383.62,360.79V448c0,4-.16,8.11,0,12.13v.18c0,3.63,5.65,3.64,5.65,0V373.1c0-4,.15-8.1,0-12.13a.48.48,0,0,1,0-.17c0-3.64-5.65-3.65-5.65,0Z" fill="#ebebeb"/><rect x="355.01" y="425.38" width="25.35" height="44.22" fill="#e0e0e0"/><rect x="509.14" y="464.67" width="40.34" height="35.48" fill="#e0e0e0"/><path d="M357.5,495.63V457.36s32.79-9.47,55,11.67a51.88,51.88,0,0,1,12.69,26.6Z" fill="#f5f5f5"/><path d="M506.24,433.72a5.43,5.43,0,0,0-1.24,4.64c.35,3.21,4.28,22.31,4.28,22.31l-6.06,35h7.31s1.85-20.15,20.17-25a28.17,28.17,0,0,1,17.86,1,3.5,3.5,0,0,0,4.55-2,3.66,3.66,0,0,0,.25-1.3V455a8,8,0,0,0-5.46-7.55Z" fill="#f5f5f5"/><rect x="461.41" y="424.01" width="26.88" height="3.16" rx="1.49" transform="translate(-144.85 575.87) rotate(-55.5)" fill="#e0e0e0"/><rect x="487.48" y="417.95" width="3.16" height="33.74" rx="1.49" transform="translate(-146.3 591.58) rotate(-55.5)" fill="#e0e0e0"/><path d="M379.6,360.79H510.5v-2.26a10.16,10.16,0,0,0-10.16-10.16H389.77a10.16,10.16,0,0,0-10.15,10.16Z" fill="#e0e0e0"/><path d="M515.84,495.53a23.69,23.69,0,1,0,21.44-20.84A23.68,23.68,0,0,0,515.84,495.53Z" fill="#e0e0e0"/><path d="M515.69,497.88h0a23.7,23.7,0,1,0,47.39.69h0Z" fill="#e0e0e0"/><path d="M522.9,495.89a16.64,16.64,0,1,0,14.53-14.12A16.63,16.63,0,0,0,522.9,495.89Z" fill="#f5f5f5"/><path d="M539.6,481.66A16.64,16.64,0,0,0,522.73,498l33.26.49a16.63,16.63,0,0,0-16.37-16.87Z" fill="#f5f5f5"/><path d="M529.4,496.43a10.14,10.14,0,1,0,8.38-8.16A10.16,10.16,0,0,0,529.4,496.43Z" fill="#e0e0e0"/><rect x="350" y="450.8" width="12.04" height="33.4" rx="5.65" fill="#e0e0e0"/><path d="M351.21,400.09s-3.52-.54-4.86,1.63-1.22,4.18,0,5.54,5,1.49,7.84,1.49h7.17a5.15,5.15,0,0,0-1.13-3.39C359.06,404,351.21,400.09,351.21,400.09Z" fill="#e0e0e0"/><polygon points="359.46 407.26 359.46 427.64 361.36 427.64 361.36 407.74 359.46 407.26" fill="#e0e0e0"/><path d="M356.62,383.19s-3.51-.55-4.86,1.62-1.22,4.19,0,5.54,5,1.49,7.84,1.49h7.16a5,5,0,0,0-1.12-3.38C364.46,387.1,356.62,383.19,356.62,383.19Z" fill="#e0e0e0"/><polygon points="364.87 390.35 364.87 421.97 366.78 421.97 366.78 390.84 364.87 390.35" fill="#e0e0e0"/><rect x="352.11" y="493.27" width="159.59" height="7.82" fill="#e0e0e0"/><path d="M367.8,492.82A23.69,23.69,0,1,0,389.24,472,23.71,23.71,0,0,0,367.8,492.82Z" fill="#e0e0e0"/><path d="M367.66,495.14h0a23.7,23.7,0,1,0,47.39.68h0Z" fill="#e0e0e0"/><path d="M374.87,493.14a16.63,16.63,0,1,0,18.85-14.06,16.44,16.44,0,0,0-4.32-.06A16.63,16.63,0,0,0,374.87,493.14Z" fill="#f5f5f5"/><path d="M391.57,478.91a16.64,16.64,0,0,0-16.87,16.38h0l33.25.49a16.63,16.63,0,0,0-16.37-16.88Z" fill="#f5f5f5"/><path d="M381.37,493.69a10.18,10.18,0,1,0,8.38-8.16A10.15,10.15,0,0,0,381.37,493.69Z" fill="#e0e0e0"/></g><g id="b6b6103c-1667-419b-9a20-589598f754cf" data-name="freepik--Floor--inject-4"><path d="M793.63,576.62H764c-19.07,0-46.66-.13-80.75-.42l-119.76-1.38c-45.07-.55-94.62-1.13-146.63-1.23H397.49c-6.41-.06-12.83.22-19.18-.59-12.66-1.45-24.61-5.75-35.68-11s-21.44-11.44-31.75-17.25c-5.12-2.9-10.22-5.73-15.33-8.42s-10.2-5.13-15.35-7.39a166.38,166.38,0,0,0-15.53-6l-1.94-.66-2-.6-3.9-1.13-3.9-1c-1.3-.34-2.6-.69-3.9-1a154.38,154.38,0,0,0-30.73-3.71c-.63,0-1.26-.06-1.88-.06H214.6a34.81,34.81,0,0,0-3.69.13c-2.45.24-4.88.38-7.25.81a96.56,96.56,0,0,0-13.83,3.19,148.93,148.93,0,0,0-24.56,10.4c-15.08,8-27.82,16.58-39.37,23.76s-21.59,13.06-30.37,16.82a78.76,78.76,0,0,1-21,6.24l-3.3.38-2.39.08-1.94.06,1.94-.12,2.39-.11,3.28-.42a79,79,0,0,0,20.93-6.33c8.74-3.78,18.85-9.63,30.3-16.87s24.25-15.86,39.33-23.86a147,147,0,0,1,24.63-10.45,94.24,94.24,0,0,1,13.89-3.23c2.38-.44,4.83-.59,7.29-.83,1.23-.09,2.47-.09,3.71-.13h3.76A154.45,154.45,0,0,1,249.17,518c1.32.26,2.62.61,3.91.95l3.93,1,3.9,1.12,2,.6,1.95.67c5.24,1.7,10.39,3.82,15.57,6s10.29,4.78,15.43,7.44,10.22,5.52,15.36,8.42c10.27,5.8,20.65,12,31.71,17.22s22.92,9.51,35.5,10.95c6.26.8,12.65.52,19.08.59h19.39c52,.14,101.56.68,146.7,1.27l119.74,1.5c34.09.35,61.68.51,80.75.61l22,.09h5.71Z" fill="#a7a9ac"/></g><g id="a46094b9-4b41-4d9f-b804-b01823b6aaf3" data-name="freepik--Hill--inject-4"><path d="M819.73,571.08c-35.33-17.64-71.43-49-108.87-71.1-39.16-23.09-86.39-34.75-131.51-29.25-30,3.65-57.83,16.93-84.3,31.42s-52.42,30.41-81,40.14-51.62,11.28-89.85,3.2l-22-5.91s45.46,31.52,78.18,33.55c30.31,1.87,461.72,4,461.72,4Z" fill="#bcbec0"/><g opacity="0.1"><path d="M736.39,514.85c0,.2-1,.32-2.91.36s-4.63.09-8.18.24a146.74,146.74,0,0,0-29.51,4.92c-12.25,3.22-26.45,8.54-42.31,14.49-7.9,3-16.33,6-25.24,8.77A170.13,170.13,0,0,1,600,550a122.22,122.22,0,0,1-14.82.94l-3.65-.12-1.82-.05-1.8-.16-3.6-.33-3.56-.49a136.44,136.44,0,0,1-26.1-7.2c-8-3-15.43-6.21-22.37-9.1S508.94,528,502.94,526a114.51,114.51,0,0,0-29.21-6.25c-7.05-.43-11,0-11.07-.48s3.83-1.53,11.12-1.8,17.9.84,30.33,4.57c6.23,1.79,12.91,4.2,19.95,6.93s14.49,5.74,22.39,8.52a137.35,137.35,0,0,0,25.13,6.6l3.39.44,3.38.27,1.71.15h1.71l3.44.09a120,120,0,0,0,14.06-.93,173,173,0,0,0,27.34-6.07c8.73-2.6,17.08-5.53,25.06-8.34s15.58-5.51,22.81-7.81,14-4.23,20.31-5.64a141.94,141.94,0,0,1,17.26-2.78l3.73-.3,3.45-.13,1.64.06h4.42a61,61,0,0,1,8.3.86C735.46,514.37,736.42,514.65,736.39,514.85Z" fill="#fff"/></g><g opacity="0.1"><path d="M763.75,537.67c-.07.29-4.64-1.07-13.11-2s-20.9-1.07-35.95,1.4a237.93,237.93,0,0,0-24.29,5.45c-8.67,2.32-17.85,5.19-27.57,8.09s-20,5.89-30.85,8.18a155.46,155.46,0,0,1-34.19,3.68,169.61,169.61,0,0,1-17.44-1.27c-5.7-.73-11.28-1.74-16.69-2.85-10.86-2.25-21.16-5-30.94-7.72s-19-5.24-27.8-7.25a245.51,245.51,0,0,0-24.53-4.52,134.77,134.77,0,0,0-36-.18c-2.12.25-4,.62-5.64.94l-2.26.42-1.83.43a15.5,15.5,0,0,1-3.38.63,15.06,15.06,0,0,1,3.24-1.21l1.82-.56,2.25-.57c1.6-.39,3.47-.87,5.64-1.21a126.51,126.51,0,0,1,36.4-.8,236.75,236.75,0,0,1,24.82,4.19c8.84,1.92,18.17,4.42,28,7s20.05,5.31,30.8,7.51c5.39,1.08,10.88,2.07,16.49,2.77a168.21,168.21,0,0,0,17.08,1.21,154.62,154.62,0,0,0,33.56-3.56c10.73-2.25,20.94-5.12,30.67-8s18.94-5.65,27.71-7.9a233.1,233.1,0,0,1,24.67-5.09c15.26-2.26,27.9-1.88,36.41-.48l3,.48,2.62.56,2.25.51c.68.16,1.29.36,1.83.51A14.91,14.91,0,0,1,763.75,537.67Z" fill="#fff"/></g><g opacity="0.1"><path d="M550.58,513.71a3.39,3.39,0,1,1-.11,0" fill="#fff"/></g><path d="M563.45,477.91c-.15.1-1.84-2.39-4.39-5.07s-4.94-4.51-4.83-4.66A25.72,25.72,0,0,1,563.45,477.91Z" fill="#a7a9ac"/><path d="M562.44,462.56c.18,0,.29,3,1.33,6.5s2.56,6.1,2.41,6.19a19.6,19.6,0,0,1-3.74-12.69Z" fill="#a7a9ac"/><path d="M571.66,456.92a16.47,16.47,0,0,1,.13,2.72c0,1.68.09,4,.27,6.53s.46,4.85.67,6.5a15.49,15.49,0,0,1,.29,2.71,10,10,0,0,1-.69-2.64,54.87,54.87,0,0,1-.86-6.52,57.8,57.8,0,0,1-.1-6.58A10.85,10.85,0,0,1,571.66,456.92Z" fill="#a7a9ac"/><path d="M710.91,558.27a27.59,27.59,0,0,1-3.32-4.71,28.14,28.14,0,0,1-2.83-5,27.59,27.59,0,0,1,3.32,4.71A28.14,28.14,0,0,1,710.91,558.27Z" fill="#a7a9ac"/><path d="M718.06,557.32a5.83,5.83,0,0,1-1.91-1,16.78,16.78,0,0,1-3.77-3.61,16.45,16.45,0,0,1-2.44-4.61,5.66,5.66,0,0,1-.45-2.11,22.45,22.45,0,0,0,8.57,11.29Z" fill="#a7a9ac"/><path d="M731.4,560.33a8.39,8.39,0,0,1-2.6-.72,22,22,0,0,1-5.64-3.3,21.59,21.59,0,0,1-4.38-4.82,8.45,8.45,0,0,1-1.25-2.4,35.16,35.16,0,0,0,6,6.77A34.6,34.6,0,0,0,731.4,560.33Z" fill="#a7a9ac"/><path d="M541.94,508.13c-.13-.12,1.83-2.26,3.79-5.25s3.21-5.58,3.38-5.5a18.79,18.79,0,0,1-2.88,5.83A19.23,19.23,0,0,1,541.94,508.13Z" fill="#a7a9ac"/><path d="M536.29,504.53a25.09,25.09,0,0,1,3.9-3.81,26,26,0,0,1,4.29-3.39,24.59,24.59,0,0,1-3.9,3.8A26.07,26.07,0,0,1,536.29,504.53Z" fill="#a7a9ac"/><path d="M524.51,505.57a16.61,16.61,0,0,1,2.47-1.21,57.23,57.23,0,0,0,11.21-6.87,16.19,16.19,0,0,1,2.2-1.65,11.6,11.6,0,0,1-1.93,2,39.72,39.72,0,0,1-5.36,3.94,41.44,41.44,0,0,1-6,3A10.94,10.94,0,0,1,524.51,505.57Z" fill="#a7a9ac"/></g><g id="b73cc0de-98d2-416c-96fb-53d91e4615c3" data-name="freepik--Plants--inject-4"><path d="M378.17,545.08a4.63,4.63,0,0,1,.68,1c.41.64.95,1.59,1.59,2.78a63.44,63.44,0,0,1,6.64,20c.2,1.34.32,2.43.38,3.18a3.57,3.57,0,0,1,0,1.13c-.09,0-.33-1.64-.82-4.29A77.85,77.85,0,0,0,380.07,549C378.94,546.59,378.09,545.12,378.17,545.08Z" fill="#a7a9ac"/><path d="M373.3,559.13a7.17,7.17,0,0,1,2.26,1.33A22,22,0,0,1,380,565a16.69,16.69,0,0,1,2.85,5.64,5.27,5.27,0,0,1,.22,2.61c-.1,0-.11-1-.61-2.48a19.92,19.92,0,0,0-2.93-5.4,29,29,0,0,0-4.21-4.51C374,559.74,373.2,559.21,373.3,559.13Z" fill="#a7a9ac"/><path d="M395.64,556c.21.08-1.26,3.84-2.54,8.6a39.32,39.32,0,0,0-1.13,6.2,20.58,20.58,0,0,1-.23,2.6,7.8,7.8,0,0,1-.18-2.64,27.51,27.51,0,0,1,.95-6.31,49.62,49.62,0,0,1,2-6A13.28,13.28,0,0,1,395.64,556Z" fill="#a7a9ac"/><path d="M120.36,619.38a29.41,29.41,0,0,1-1.21-3.11,77.92,77.92,0,0,0-3.22-7.31,77.05,77.05,0,0,0-4-6.93,26.59,26.59,0,0,1-1.78-2.81,14.55,14.55,0,0,1,2.13,2.57,53,53,0,0,1,7.28,14.35A13.88,13.88,0,0,1,120.36,619.38Z" fill="#a7a9ac"/><path d="M115.6,593.13a5.63,5.63,0,0,1,.74.67,26.42,26.42,0,0,1,1.76,2.07,39.93,39.93,0,0,1,4.62,7.65,38.65,38.65,0,0,1,2.76,8.51c.21,1.13.35,2,.4,2.67a3.42,3.42,0,0,1,0,1c-.1,0-.3-1.39-.84-3.59a48.22,48.22,0,0,0-2.89-8.35,45.86,45.86,0,0,0-4.43-7.65C116.45,594.27,115.53,593.25,115.6,593.13Z" fill="#a7a9ac"/><path d="M133.09,599.83c.18.06-1.13,3.46-1.52,7.9s0,8-.15,8a7.7,7.7,0,0,1-.45-2.32,27.63,27.63,0,0,1,0-5.75A27.91,27.91,0,0,1,132.1,602,7.88,7.88,0,0,1,133.09,599.83Z" fill="#a7a9ac"/><path d="M762.53,627.11a25.06,25.06,0,0,1-1.22-3.11,73.9,73.9,0,0,0-7.23-14.24A22.19,22.19,0,0,1,752.3,607a15.33,15.33,0,0,1,2.12,2.57,52.64,52.64,0,0,1,7.29,14.35A15,15,0,0,1,762.53,627.11Z" fill="#a7a9ac"/><path d="M757.77,600.89a3.62,3.62,0,0,1,.73.68,22.48,22.48,0,0,1,1.75,2.06,38.44,38.44,0,0,1,4.63,7.68,39,39,0,0,1,2.76,8.51c.22,1.12.35,2,.41,2.67a2.74,2.74,0,0,1,0,1c-.09,0-.31-1.37-.84-3.57a46.11,46.11,0,0,0-7.31-16C758.6,602,757.69,601,757.77,600.89Z" fill="#a7a9ac"/><path d="M775.26,607.59a65.16,65.16,0,0,0-1.52,7.9c-.4,4.44,0,8-.16,8a7.7,7.7,0,0,1-.45-2.33,27.44,27.44,0,0,1,0-5.73,26.57,26.57,0,0,1,1.13-5.65A7.37,7.37,0,0,1,775.26,607.59Z" fill="#a7a9ac"/><path d="M177.77,522.83a22.75,22.75,0,0,0-40.46-6.31,35.31,35.31,0,0,0-57.6,30.85c-12.73-2.32-26.2,8.57-26.58,21.51v7.76S78.77,580.92,105.4,565,177.77,522.83,177.77,522.83Z" fill="#bcbec0"/><path d="M139.38,482.66a16.1,16.1,0,0,0-3.84,22.45c.1.15.21.29.32.44C143.37,499.76,144.63,489,139.38,482.66Z" fill="#bcbec0"/><path d="M119.59,488A10.47,10.47,0,0,0,128,500.16l.39.06C129.22,494.1,124.9,488.53,119.59,488Z" fill="#bcbec0"/><path d="M207.82,569.88A26.92,26.92,0,0,0,200.54,552a9.68,9.68,0,0,1,2.15,2,22.71,22.71,0,0,1,3.7,6A22.19,22.19,0,0,1,208,567,9.24,9.24,0,0,1,207.82,569.88Z" fill="#a7a9ac"/><path d="M212.94,541.93c.09,0-.2,1.52-.52,4a62,62,0,0,0,.53,19.18c.44,2.42.83,3.91.74,3.93a3.61,3.61,0,0,1-.4-1c-.21-.67-.47-1.64-.74-2.85a50.3,50.3,0,0,1-.53-19.29,26.89,26.89,0,0,1,.6-2.88A3.52,3.52,0,0,1,212.94,541.93Z" fill="#a7a9ac"/><path d="M223.4,552.13c.07.08-.76.78-1.69,2.26a15.48,15.48,0,0,0-2.17,6.29,34.81,34.81,0,0,0-.07,6.77,16.83,16.83,0,0,1,.09,2.84,11.14,11.14,0,0,1-.51-2.8,28.21,28.21,0,0,1-.09-6.87,14.46,14.46,0,0,1,2.4-6.46,9.08,9.08,0,0,1,1.41-1.56C223.14,552.24,223.38,552.1,223.4,552.13Z" fill="#a7a9ac"/><path d="M450.71,634.2a26.73,26.73,0,0,0-7.28-17.85,8.89,8.89,0,0,1,2.15,2,21.76,21.76,0,0,1,5.27,12.93A9,9,0,0,1,450.71,634.2Z" fill="#a7a9ac"/><path d="M455.84,606.26c.09,0-.21,1.53-.52,4a61.16,61.16,0,0,0,.53,19.16c.44,2.43.82,3.91.73,3.94a3.34,3.34,0,0,1-.38-1,26,26,0,0,1-.76-2.85,50.3,50.3,0,0,1-.53-19.29c.21-1.22.42-2.26.6-2.88A3.76,3.76,0,0,1,455.84,606.26Z" fill="#a7a9ac"/><path d="M466.3,616.45c.06.08-.77.78-1.7,2.26a15.71,15.71,0,0,0-2.16,6.3,34.8,34.8,0,0,0-.08,6.77,16.71,16.71,0,0,1,.09,2.83,12,12,0,0,1-.51-2.79,28.28,28.28,0,0,1-.09-6.88,14.48,14.48,0,0,1,2.41-6.45,9.46,9.46,0,0,1,1.4-1.56C466,616.58,466.27,616.43,466.3,616.45Z" fill="#a7a9ac"/></g><g id="b7eda4e3-1772-450d-a8f8-f9fc030f2868" data-name="freepik--Birds--inject-4"><path d="M787.14,211.76s-.6-.16-1.66-.37a13.39,13.39,0,0,0-4.51-.11,12.38,12.38,0,0,0-6.11,2.66,12.63,12.63,0,0,0-4.29,6.85v.08l-.26,1-.39-1a13.76,13.76,0,0,0-5.16-6.25,13.34,13.34,0,0,0-6.3-2.13,17.78,17.78,0,0,0-6.19.78,5.4,5.4,0,0,1,1.58-.68,13.26,13.26,0,0,1,4.64-.59,13.49,13.49,0,0,1,6.61,2.09,14.1,14.1,0,0,1,5.45,6.52h-.65v-.07a13.11,13.11,0,0,1,4.57-7.19,12.65,12.65,0,0,1,11.11-2.33A5.46,5.46,0,0,1,787.14,211.76Z" fill="#a7a9ac"/><path d="M709.5,226.07c0,.08-.83-.21-2.33-.52a19.05,19.05,0,0,0-6.39-.17,17.26,17.26,0,0,0-8.55,3.75,17.8,17.8,0,0,0-6,9.59v.11l-.36,1.42-.55-1.35a19.2,19.2,0,0,0-7.23-8.75,18.7,18.7,0,0,0-8.83-3,23.42,23.42,0,0,0-8.66,1.13,7.74,7.74,0,0,1,2.19-.95,19,19,0,0,1,15.8,2.11,19.77,19.77,0,0,1,7.64,9.14l-.91.07v-.11a18.41,18.41,0,0,1,6.39-10.07,17.83,17.83,0,0,1,15.59-3.25A7.35,7.35,0,0,1,709.5,226.07Z" fill="#a7a9ac"/><path d="M129.32,174c0,.08-.83-.22-2.32-.52a18.54,18.54,0,0,0-6.39-.16,17.16,17.16,0,0,0-8.55,3.74,17.84,17.84,0,0,0-6,9.59v.12l-.36,1.42-.54-1.36a19.23,19.23,0,0,0-7.23-8.74,18.52,18.52,0,0,0-8.84-3,24.23,24.23,0,0,0-8.66,1.13,7.49,7.49,0,0,1,2.26-.95,18.35,18.35,0,0,1,6.5-.83,18.78,18.78,0,0,1,9.28,2.94,19.68,19.68,0,0,1,7.63,9.13l-.91.08v-.12a18.52,18.52,0,0,1,6.33-10.1,17.57,17.57,0,0,1,9-3.73,17.28,17.28,0,0,1,6.56.48A7.48,7.48,0,0,1,129.32,174Z" fill="#a7a9ac"/><path d="M158.47,199.55a13.78,13.78,0,0,1-1,1.13,27.88,27.88,0,0,0-2.54,3.38,25.12,25.12,0,0,0-3.76,13.41v.17h-.39a22.33,22.33,0,0,0-6.15-12.23,23.17,23.17,0,0,0-3.21-2.73c-.82-.57-1.3-.85-1.28-.88a1.22,1.22,0,0,1,.36.18,10,10,0,0,1,1,.57,20.26,20.26,0,0,1,3.38,2.67,22,22,0,0,1,6.33,12.41h-.38v-.16A24.44,24.44,0,0,1,154.71,204a21.89,21.89,0,0,1,2.67-3.39c.34-.38.64-.63.83-.82A2,2,0,0,1,158.47,199.55Z" fill="#a7a9ac"/><path d="M744.67,186c-.33.4-.68.77-1,1.13a25.32,25.32,0,0,0-6.3,16.76v.16h-.39a21.9,21.9,0,0,0-2.44-7.21,21.19,21.19,0,0,0-6.86-7.62c-.83-.56-1.3-.85-1.29-.88a1.24,1.24,0,0,1,.37.17,10.63,10.63,0,0,1,1,.59,19.7,19.7,0,0,1,3.38,2.66,22,22,0,0,1,6.34,12.41h-.39v-.28A24.46,24.46,0,0,1,741,190.46a22.25,22.25,0,0,1,2.65-3.39c.35-.37.64-.62.83-.81S744.66,186,744.67,186Z" fill="#a7a9ac"/></g><g id="b8deeda8-a79d-4a7d-88af-eea002f99a3f" data-name="freepik--Sun--inject-4"><circle cx="177.3" cy="91.93" r="19.64" fill="#686175" data-primary="true"/><path d="M177.3,111.59A19.65,19.65,0,1,1,185,110,19.34,19.34,0,0,1,177.3,111.59Z" fill="#686175" data-primary="true"/><path d="M174.5,135.84c-.2-2.69-.27-5.4-.2-8.1a80.85,80.85,0,0,1,.2-8.09,80.85,80.85,0,0,1,.21,8.09C174.77,130.44,174.71,133.15,174.5,135.84Z" fill="#686175" data-primary="true"/><path d="M174.5,135.86a8.52,8.52,0,0,1-.17-2.39c0-1.53-.05-3.56-.05-5.73s0-4.2.05-5.72c.07-2.4.14-2.4.17-2.4s.1,0,.17,2.4c0,1.52.06,3.56.06,5.72s0,4.2-.06,5.73C174.6,135.86,174.54,135.86,174.5,135.86Zm0-16.18c-.09.29-.18,3.39-.18,8.06s.09,7.76.18,8.07c.09-.31.19-3.39.19-8.07S174.59,120,174.5,119.68Z" fill="#686175" data-primary="true"/><path d="M163.18,115.08c.11,0-1.75,3.38-4.12,7.55a71,71,0,0,1-4.51,7.35,82.64,82.64,0,0,1,4.12-7.56C161.05,118.3,163.09,115,163.18,115.08Z" fill="#686175" data-primary="true"/><path d="M154.58,130h0a11.15,11.15,0,0,1,1.13-2.26c.78-1.42,1.84-3.31,3-5.3s2.26-3.85,3.1-5.24a11.06,11.06,0,0,1,1.39-2.12h0s.1,0-1.12,2.26c-.79,1.42-1.85,3.3-3,5.29a82.45,82.45,0,0,1-4.51,7.37Zm8.59-14.9c-.25.24-2,3-4.44,7.32s-4,7.19-4.13,7.52c.24-.24,2-3,4.44-7.32S163.08,115.44,163.17,115.11Z" fill="#686175" data-primary="true"/><path d="M151.55,107.84a43.09,43.09,0,0,1-4.51,3.92,45.94,45.94,0,0,1-4.85,3.58,40.62,40.62,0,0,1,4.54-3.86A43.79,43.79,0,0,1,151.55,107.84Z" fill="#686175" data-primary="true"/><path d="M142.15,115.36h0s-.07-.08,1.3-1.24c.87-.74,2-1.69,3.29-2.7a52.8,52.8,0,0,1,4.85-3.59h0a46.05,46.05,0,0,1-4.55,3.94c-1.27,1-2.46,1.93-3.39,2.61C142.45,115.25,142.22,115.36,142.15,115.36Zm9.4-7.49a54.35,54.35,0,0,0-4.81,3.61,51.17,51.17,0,0,0-4.57,3.88,53.4,53.4,0,0,0,4.87-3.62A55.41,55.41,0,0,0,151.55,107.87Z" fill="#686175" data-primary="true"/><path d="M194.09,127.86a12.39,12.39,0,0,1-.52-2c-.28-1.23-.67-2.94-1.18-4.81s-1-3.53-1.39-4.75a11.51,11.51,0,0,1-.55-2,8.69,8.69,0,0,1,.83,1.9,45.31,45.31,0,0,1,1.51,4.74c.51,1.87.86,3.6,1.08,4.85A9.4,9.4,0,0,1,194.09,127.86Z" fill="#686175" data-primary="true"/><path d="M194.09,127.89c-.07,0-.14-.31-.54-2-.26-1.13-.67-2.91-1.18-4.81s-1-3.65-1.38-4.75h0c-.5-1.62-.6-2-.53-2s0,0,.29.5.35.85.55,1.4a48.42,48.42,0,0,1,1.52,4.74c.6,2.25.93,4,1.07,4.86a10.27,10.27,0,0,1,.24,2.07Zm-3.63-13.55c0,.15.25.94.55,1.93h0c.35,1.13.86,2.81,1.39,4.75s.92,3.66,1.18,4.81a18.4,18.4,0,0,0,.49,2,11.6,11.6,0,0,0-.24-2,41.65,41.65,0,0,0-1.13-4.85c-.65-2.23-1.2-3.92-1.51-4.74a12,12,0,0,0-.73-1.83Z" fill="#686175" data-primary="true"/><path d="M214,113.73a68.37,68.37,0,0,1-5.8-4.8,67,67,0,0,1-5.54-5.12,72.3,72.3,0,0,1,5.81,4.81A68.56,68.56,0,0,1,214,113.73Z" fill="#686175" data-primary="true"/><path d="M214,113.73c-.2,0-3.14-2.48-5.81-4.8-1.52-1.33-2.93-2.59-4-3.56-1.64-1.51-1.6-1.56-1.57-1.59h0c.2,0,3.13,2.48,5.81,4.81,1.51,1.33,2.92,2.58,4,3.55,1.64,1.52,1.59,1.56,1.57,1.59Zm-11.29-9.9c.15.23,2.26,2.25,5.52,5.06s5.5,4.69,5.77,4.79a71.92,71.92,0,0,0-5.52-5.07c-3.26-2.81-5.52-4.66-5.78-4.76Z" fill="#686175" data-primary="true"/><path d="M221.64,94.3a13.54,13.54,0,0,1-2.37-.34c-1.46-.23-3.47-.55-5.7-.81s-4.27-.41-5.73-.5a14.52,14.52,0,0,1-2.38-.2,11.93,11.93,0,0,1,2.39-.09,55.17,55.17,0,0,1,5.76.38c2.25.26,4.27.63,5.71.94A13.23,13.23,0,0,1,221.64,94.3Z" fill="#686175" data-primary="true"/><path d="M221.57,94.34c-.18,0-.65-.08-1.84-.28l-.47-.07c-2-.33-3.91-.6-5.7-.82s-3.71-.37-5.73-.49h-.48c-1.61-.1-1.93-.13-1.93-.19h0a12.93,12.93,0,0,1,2.41-.1c1,0,3.12.1,5.76.39a53.61,53.61,0,0,1,5.71.94,11.81,11.81,0,0,1,2.33.63h-.06Zm-16.08-1.89c.14,0,.88.09,1.87.16h.48c2,.13,3.95.3,5.73.51s3.71.47,5.7.81l.47.07c.94.16,1.65.28,1.84.28h0a17.49,17.49,0,0,0-2.26-.6,57.58,57.58,0,0,0-5.71-.94q-2.87-.33-5.76-.38A18.55,18.55,0,0,0,205.49,92.45Z" fill="#686175" data-primary="true"/><path d="M221.66,75.21c0,.11-4.22,1.24-9.49,2.53s-9.57,2.25-9.59,2.12,4.22-1.24,9.49-2.53S221.64,75.1,221.66,75.21Z" fill="#686175" data-primary="true"/><path d="M202.62,79.88h-.06a12.08,12.08,0,0,1,2.77-.86c1.8-.47,4.19-1.07,6.77-1.69s5-1.13,6.77-1.59c2.84-.62,2.85-.55,2.86-.52h0a13.28,13.28,0,0,1-2.78.85c-1.79.47-4.18,1.12-6.77,1.7s-4.94,1.18-6.77,1.58A22.13,22.13,0,0,1,202.62,79.88Zm19-4.66c-.39,0-4,.79-9.54,2.13s-9.12,2.32-9.46,2.5c.39,0,4-.79,9.54-2.14S221.28,75.37,221.62,75.22Z" fill="#686175" data-primary="true"/><path d="M199.48,53c.09.07-1.95,3.31-4.52,7.25a84.65,84.65,0,0,1-4.89,7c-.09-.06,2-3.31,4.52-7.25A79.28,79.28,0,0,1,199.48,53Z" fill="#686175" data-primary="true"/><path d="M190,67.24h0c0-.18,2.31-3.87,4.51-7.25,1.27-1.91,2.46-3.68,3.39-5,1.42-2,1.5-2,1.54-2h0s.09.05-1.26,2.19c-.86,1.37-2,3.18-3.28,5.07s-2.46,3.69-3.39,5C190.28,67.07,190.09,67.24,190,67.24ZM199.45,53c-.25.21-2.12,2.87-4.85,7s-4.43,6.88-4.51,7.19c.26-.21,2.12-2.86,4.85-7s4.41-6.89,4.51-7.2Z" fill="#686175" data-primary="true"/><path d="M177.5,48.28a20.27,20.27,0,0,1,0,2.7c0,1.67-.05,4-.05,6.5s0,4.83.07,6.49a17.38,17.38,0,0,1,0,2.7,16.26,16.26,0,0,1-.28-2.69c-.1-1.66-.18-4-.18-6.5s.07-4.84.17-6.51A17.39,17.39,0,0,1,177.5,48.28Z" fill="#686175" data-primary="true"/><path d="M177.5,66.71s-.05,0-.13-.73c0-.5-.1-1.13-.15-2-.07-1.13-.19-3.45-.19-6.5s.1-5.38.17-6.51c.06-.79.1-1.47.16-2,.06-.71.1-.74.12-.74h0c.06,0,.08.25,0,2.71,0,1.57-.06,3.94-.06,6.5s0,4.74.07,6.39v2.82Zm0-18.36a26.12,26.12,0,0,0-.23,2.64c-.07,1.13-.18,3.47-.18,6.51s.12,5.39.19,6.5a23.13,23.13,0,0,0,.25,2.64V63.89c0-1.65-.06-3.9-.07-6.39s0-4.93,0-6.5C177.5,50,177.5,48.58,177.5,48.35Z" fill="#686175" data-primary="true"/><path d="M160.78,69.08c-.1,0-2.17-3.15-4.63-7.17s-4.35-7.32-4.26-7.38,2.16,3.15,4.62,7.17S160.87,69,160.78,69.08Z" fill="#686175" data-primary="true"/><path d="M160.78,69.1A12.81,12.81,0,0,1,159.34,67c-.87-1.36-2-3.17-3.2-5.11-2.11-3.45-4.32-7.2-4.28-7.4h0s.1-.06,1.46,2.06c.88,1.35,2,3.17,3.19,5.11s2.26,3.78,3.1,5.17c1.26,2.18,1.2,2.26,1.12,2.26h0Zm-8.87-14.53c.09.31,1.69,3.12,4.27,7.33s4.33,6.92,4.58,7.15c-.09-.32-1.7-3.13-4.27-7.34S152.16,54.79,151.91,54.57Z" fill="#686175" data-primary="true"/><path d="M150.82,77.54a9.78,9.78,0,0,1-2.09-.32c-1.28-.27-3-.7-4.94-1.27s-3.62-1.13-4.83-1.62a10.1,10.1,0,0,1-1.93-.85,11.18,11.18,0,0,1,2,.58c1.24.39,2.94.93,4.85,1.5s3.63,1,4.89,1.36A14.69,14.69,0,0,1,150.82,77.54Z" fill="#686175" data-primary="true"/><path d="M150.75,77.62a2.94,2.94,0,0,1-.51-.05c-.38-.07-.91-.16-1.51-.3-.87-.18-2.65-.57-4.94-1.25s-4-1.31-4.83-1.62c-.59-.23-1.08-.43-1.44-.59-.54-.24-.53-.27-.52-.29a8,8,0,0,1,2.06.56c1,.32,2.84.91,4.85,1.5,1.83.54,3.49,1,4.9,1.38,1.78.48,2,.57,2,.63h0S150.83,77.62,150.75,77.62Zm-13.69-4.08a14.08,14.08,0,0,0,1.91.82c.82.32,2.55,1,4.83,1.62s4.07,1.12,4.93,1.26a15.36,15.36,0,0,0,2,.34h0c-.15-.08-1.13-.36-2-.59-1.41-.38-3.07-.83-4.89-1.36-2-.6-3.86-1.13-4.86-1.51-.64-.24-1.3-.45-2-.63Z" fill="#686175" data-primary="true"/><path d="M146.46,92.63a47.23,47.23,0,0,1-6.26.81,49.39,49.39,0,0,1-6.31.4,96.36,96.36,0,0,1,12.57-1.21Z" fill="#686175" data-primary="true"/><path d="M134.25,93.9a1.09,1.09,0,0,1-.36,0h0a53,53,0,0,1,6.27-.82,51.43,51.43,0,0,1,6.32-.39h0a53.11,53.11,0,0,1-6.28.8C137.78,93.69,135.2,93.9,134.25,93.9Zm-.33-.06a60,60,0,0,0,6.28-.42,54.85,54.85,0,0,0,6.24-.79,60,60,0,0,0-6.28.42A54.85,54.85,0,0,0,133.92,93.84Z" fill="#686175" data-primary="true"/></g><polygon points="447.85 160.88 447.85 154.91 271.96 178.2 275.7 182.73 447.85 160.88" fill="#e6e7e8"/><path d="M526.54,594.57s-7.73,1.08-4.7,25c0,0,1.13,3.82,11.74,8,0,0,9,25.05,31.47,24.81a12.54,12.54,0,0,0,5.9-1.52c4.42-2.43,11.71-8.2,5.07-17.6a58.72,58.72,0,0,1-21.13-17.41,38,38,0,0,1-5.48-10.58,9.4,9.4,0,0,0-3.75-4.93Z" fill="#f48225" data-secondary="true"/><path d="M529.79,599.19s8.57,28.53,27.67,37.81c0,0,13.26,4.16,18.56-3.79,0,0-17.69-7.87-25.52-25.25,0,0-1.38-6.63-4.84-7.67,0,0,3.81,6.34-8,3.15A21,21,0,0,1,529.79,599.19Z" fill="#fff" opacity="0.2"/><path d="M520.56,420.8s-6.85,66.9,3.05,134.73l3.06,40.69a24.69,24.69,0,0,0,15.26,8.14s6.44.68,3.73-4.07c0,0-1.63-55.47-.81-92a197.09,197.09,0,0,1,5.29-41.18c4.27-18,10.59-46.78,10.53-59.11C560.67,408,548.23,417,520.56,420.8Z" fill="#fed194"/><path d="M536,417s-10.43,16.23-8.56,52.68a61.56,61.56,0,0,1-.49,11.43c-1.6,11.95-5,38.56-5.85,54.32a571.14,571.14,0,0,1-2.88-76.1l2.31-38.48S531.64,418.16,536,417Z" fill="#fbc27c"/><path d="M413.46,539.38s-14.74-5.57-19.13,20.37c0,0-1.85,16-7,22.47a27.81,27.81,0,0,0-2.29,3.51c-3.17,5.55-9.47,18.1-7.53,27.34a8.05,8.05,0,0,0,12.75,4.85c2.56-1.89,5.66-5.06,9.26-10.27,0,0,22.82-27.91,24-50.08Z" fill="#f48225" data-secondary="true"/><path d="M408.51,558.38s-20.57,38.89-9,49.27c0,0,24-30.31,24-50.08Z" fill="#fff" opacity="0.2"/><path d="M468.22,340.87s-10.73,10.93,0,30.89c0,0,13.94,32.73,8.34,51.09,0,0,58.66,3.52,86.56-16.54a2,2,0,0,0,.8-1.68c-.44-8.79-4.44-70-31.09-84.41h-45.9A29.31,29.31,0,0,0,468.22,340.87Z" fill="#f48225" data-secondary="true"/><g clip-path="url(#f204f5e2-c004-4858-b3fd-6fb0dfce4b8b)"><path d="M485.73,328.1s-2.39,24.1,7.59,39.67c0,0,7.58,12.37,9.18,36.32,0,0,.59,15.56,8.14,20.66l-41.27,6.88L452.6,363.78l3.6-31.13,30.33-9.58Z" opacity="0.2"/></g><path d="M414,245s9.73,37.76-29.52,47.6l12.84-53.62Z" fill="#231f20"/><path d="M391.64,188s-13.7-5.12-20.52,11.73c0,0-6.82,19.69,8.53,43,0,0,14.49,23.59-2.28,34.1,0,0-37.79,14.78-25.29,44.05,0,0,7.1,17.05,31.54,16.48,0,0-21.88-10.8-11.65-33,0,0,2.76-7,14-12.58a27.71,27.71,0,0,0,14.41-16.46c2.47-8,2.94-19.75-3-36.42Z" fill="#231f20"/><ellipse cx="390.33" cy="192.12" rx="4.97" ry="3.13" transform="translate(-21.52 332.27) rotate(-45)" fill="#686175" data-primary="true"/><path d="M391.64,230.56s9.32,23,32.07,11.22L402.1,215.16S394.82,216.41,391.64,230.56Z"/><path d="M423.71,241.78A23.9,23.9,0,0,1,426,253.53a34.55,34.55,0,0,1,19.61-7.68l-8-9.09Z" fill="#fbc27c"/><path d="M447.85,155.17v4.65a1.92,1.92,0,0,0,2.17,1.9L513.29,153a4,4,0,0,0,3.43-4.09h0a4,4,0,0,0-4.49-3.79l-62.71,8.15A1.92,1.92,0,0,0,447.85,155.17Z" fill="#f48225" data-secondary="true"/><path d="M439.53,238.94s27.36-17.62,43.28-17.24l-21.38,23.44-17.65,5.73Z" fill="#686175" data-primary="true"/><path d="M439.53,238.94s27.36-17.62,43.28-17.24l-21.38,23.44-17.65,5.73Z" opacity="0.2"/><path d="M426,253.53s-18,6.82,6,32.58a182,182,0,0,0,31.82,31.74,13,13,0,0,1,5,11.45,109.8,109.8,0,0,0-.54,11.57s7.58-14,19.51-12.7c0,0,38.28.38,45.1-7.95,0,0,3.78-3.41-4.93-8.34A90.28,90.28,0,0,1,513.08,296,28.88,28.88,0,0,1,508,280.31c-.19-6.44-1.81-17.82-10-26.78L476.56,235S442.26,239.13,426,253.53Z" fill="#686175" data-primary="true"/><ellipse cx="423.71" cy="214.28" rx="21.25" ry="29.93" transform="translate(-51.01 204.84) rotate(-25.69)" fill="#fed194"/><ellipse cx="406.03" cy="230.97" rx="4.12" ry="6.22" transform="translate(-50.56 329.64) rotate(-41.83)" fill="#fed194"/><path d="M398.12,218.86s7.19,12.4,19.84,5.41a22.2,22.2,0,0,0,7.29-6.68c2.21-3.12,6.61-8.27,12.09-9.25,0,0,15.91-1.14,12.5-7.39,0,0-1.23-3.32-9.95-4C439.89,197,414.6,202.66,398.12,218.86Z" fill="#f48225" data-secondary="true"/><path d="M383.62,219.42s-8.24-18.75,9.38-29.55c0,0,17.05-17.34,38.94-6Z"/><path d="M497.14,171.57l-13.21-8.29s-11.81-8.55-6.33-16.78a5.26,5.26,0,0,1,3.94-2.29l11.21-1s3.23.47,2.19,3.08c0,0-3.32,6.58,1.79,10.28,0,0,11.37,6.82,13.08,11.93,0,0,7.95,24.16,8.81,49.17,0,0,1.42,8.65-8.53,12.42l-26.37,11,7.9-24.59,9.38-2.3L499.67,176A5.43,5.43,0,0,0,497.14,171.57Z" fill="#fed194"/><g clip-path="url(#e857b7a6-6668-4cbf-8133-481216cd86a8)"><path d="M490.3,231.12s18.05-5.39,17.71-21.07l-2.8-34.15a5.82,5.82,0,0,0-3-4.62c-6.14-3.38-20.08-13.05-12.21-27.79l-10,1s-17.55,8,13.41,25.24a12.63,12.63,0,0,1,6.45,10.61L501,214.28l-9.38,2.3Z" fill="#fbc27c"/></g><ellipse cx="274.05" cy="194.85" rx="8.91" ry="17.77" transform="translate(-43.94 85.51) rotate(-16.44)" fill="#f48225" data-secondary="true"/><path d="M476.56,422.85s-8.25,44.7-13.11,46.7c0,0-27.45,20.9-36.69,45.58a52.4,52.4,0,0,1-3.81,8.18l-11.86,20.08s-10.77,15.64,4.4,21.15c0,0,6.14,2.73,8-7a17.65,17.65,0,0,1,2.28-5.85c5.1-8.28,20.42-31.11,46.84-53.43,0,0,28.68-20,33.87-38.32l14.07-39.17A223.81,223.81,0,0,1,476.56,422.85Z" fill="#fed194"/><path d="M430.81,506.42s18.66-18.49,28.86-26.52a74.05,74.05,0,0,0,9.16-8.45c9.78-10.78,29.52-34.22,30-48.36l-22.3-.24s-7.43,42-13.11,46.7C463.45,469.55,445.85,481.39,430.81,506.42Z" fill="#fbc27c"/><path d="M458.84,240.74l14.24-15.3a11.78,11.78,0,0,0,3.12-8.85c-.84-11.61-2.88-39.73-3.58-48.89,0,0-21.64-6.82-16.24-15.35,0,0,8-9.94,14.78-4.26,0,0,13.37,6.42,13.13,19a6.62,6.62,0,0,0,.32,2.26c2.49,7.16,16,47.76,7.58,58.88l-19.57,29.91S467.85,256.93,458.84,240.74Z" fill="#fed194"/><path d="M457.87,238.94s8.26,16,14.75,19.2c0,0-19.7,27-41.68,22.32a13.18,13.18,0,0,1-10.57-10.86c-.64-4.84,1.29-11,11.57-16.07C431.94,253.53,449.23,245.19,457.87,238.94Z" fill="#686175" data-primary="true"/><path d="M457.87,238.94s8.26,16,14.75,19.2c0,0-19.7,27-41.68,22.32a13.18,13.18,0,0,1-10.57-10.86c-.64-4.84,1.29-11,11.57-16.07C431.94,253.53,449.23,245.19,457.87,238.94Z" opacity="0.2"/><path d="M383.62,219.42s11.94-31.54,48.32-35.52c0,0,8.81,4.83,7.95,13.07a109,109,0,0,0-39,19.49,18.24,18.24,0,0,0-4.71,5.69,42.79,42.79,0,0,0-3.54,8,.7.7,0,0,1-1,.44C389.64,229.46,384.54,226,383.62,219.42Z" fill="#f48225" data-secondary="true"/><path d="M383.62,219.42s11.94-31.54,48.32-35.52c0,0,8.81,4.83,7.95,13.07a109,109,0,0,0-39,19.49,18.24,18.24,0,0,0-4.71,5.69,42.79,42.79,0,0,0-3.54,8,.7.7,0,0,1-1,.44C389.64,229.46,384.54,226,383.62,219.42Z" opacity="0.2"/></svg>