<svg id="fe903942-1c26-4dc2-99b5-59466e25293f" data-name="Layer 1" xmlns="http://www.w3.org/2000/svg" width="865.76" height="682.89" viewBox="0 0 865.76 682.89"><path d="M477,482.57c-9.47-6.35-17.22-1.36-17.22-1.36-20,10.54-31.14,2.84-31.14,2.84V470.66h52v13.39Z" fill="#ccc"/><path d="M477,482.57c-9.47-6.35-17.22-1.36-17.22-1.36-20,10.54-31.14,2.84-31.14,2.84V470.66h52v13.39Z" opacity="0.2"/><path d="M643.78,538.81V372.5H586.3a9,9,0,0,0-5.36,1.65c-2.2,1.62-4.25,4.77-2.55,10.77a21.53,21.53,0,0,0,1.84,4.41c2.72,5.06,12.15,25.47-6.14,36.86a27.8,27.8,0,0,1-20.19,2.42,25.21,25.21,0,0,1-16-36.55c.1-.18.2-.36.31-.54,0,0,8.38-12.08.29-17.49a9.8,9.8,0,0,0-5.44-1.53h-56.9v59.17s.43,6.78-5.4,8.05a8.26,8.26,0,0,1-5.65-.91c-5.59-3-23.56-11.43-35.49-3a19,19,0,0,0-7.52,12.46c-1.26,7.43-1.94,21.21,8.43,27.84,0,0,10.47,9.69,33.31-.87a12.73,12.73,0,0,1,5.87-1.28c3.26.16,7.22,1.78,7.46,8.64v56.24Z" fill="#ccc"/><rect x="534.3" y="429.33" width="166.31" height="52.66" transform="translate(1073.11 -161.8) rotate(90)" fill="#fff" opacity="0.2"/><g opacity="0.2"><polygon points="629.69 422.57 628.69 421.57 634.2 416.05 640.38 420.9 639.5 422.02 634.32 417.95 629.69 422.57"/></g><g opacity="0.2"><polygon points="601.4 508.28 600.4 507.27 605.91 501.76 612.09 506.61 611.21 507.73 606.03 503.65 601.4 508.28"/></g><g opacity="0.2"><rect x="633.86" y="437.21" width="1.42" height="60.02"/></g><g opacity="0.2"><rect x="628.18" y="502" width="12.78" height="1.42"/></g><rect x="598.06" y="410.23" width="16.43" height="87" opacity="0.2"/><rect x="477.16" y="538.81" width="166.62" height="5.87" fill="#ccc"/><rect x="477.16" y="538.81" width="166.62" height="5.87" opacity="0.2"/><path d="M638.14,635.51s-19.54-6.85-21.13,1.06,23.24,17.43,31.68,16.9S649.22,639.76,638.14,635.51Z" fill="#f48225" data-secondary="true"/><path d="M672.49,619.69s-31.13-19.55-39.57-23.75-18-3.16-21.65,5.28S644.49,644,653,655.58s29,14.78,39.57,14.78,29-11.61,31.13-21.63,1.06-43.82-1.58-52.77-9-14.77-16.36-6.33S679.82,620.21,672.49,619.69Z" fill="#2f2e41"/><g opacity="0.2"><path d="M661.22,653c-1.16-8.1,8.46-31.54,8.87-32.53l.66.27c-.1.24-10,24.25-8.83,32.16Z"/></g><g opacity="0.2"><path d="M722.79,637.15c-.36-9.76-8.67-19.69-8.75-19.79l.54-.46c.09.1,8.55,10.21,8.92,20.22Z"/></g><rect x="256.52" y="181.62" width="9.63" height="169.15" fill="#ccc"/><rect x="256.52" y="181.62" width="9.63" height="169.15" opacity="0.2"/><path d="M495.22,178.45s28.79,29.35-5,49.86h26.88l3.16-34.25-9.65-17.44Z" fill="#2f2e41"/><path d="M495.22,178.45s28.79,29.35-5,49.86h26.88l3.16-34.25-9.65-17.44Z" opacity="0.2"/><path d="M515.7,287a18.12,18.12,0,0,1,0,11.67s-24.7,36.5,16.56,42.38l-3.35-56.17Z" fill="#2f2e41"/><path d="M515.7,287a18.12,18.12,0,0,1,0,11.67s-24.7,36.5,16.56,42.38l-3.35-56.17Z" opacity="0.2"/><path d="M463.33,185.3c.11,0-.24,0-.36,0A13.48,13.48,0,0,1,451,171.72V119.39h5.49v57.3S455.74,182.77,463.33,185.3Z" fill="#2f2e41"/><path d="M463.33,185.3c.11,0-.24,0-.36,0A13.48,13.48,0,0,1,451,171.72V119.39h5.49v57.3S455.74,182.77,463.33,185.3Z" opacity="0.2"/><path d="M625.68,119.39H456.53v57.48a9,9,0,0,0,1.64,5.36c1.62,2.21,4.77,4.25,10.78,2.55a21.49,21.49,0,0,0,4.41-1.83c5.05-2.73,25.46-12.16,36.86,6.13a27.82,27.82,0,0,1,2.42,20.19,25.2,25.2,0,0,1-36.55,16l-.55-.3s-12.07-8.38-17.48-.3a9.74,9.74,0,0,0-1.53,5.44V287H515.7s6.78-.43,8,5.4a8.26,8.26,0,0,1-.91,5.65c-3,5.59-11.43,23.56-3,35.48a19,19,0,0,0,12.45,7.52c7.44,1.27,21.22,1.95,27.85-8.42,0,0,9.69-10.47-.88-33.31a12.75,12.75,0,0,1-1.27-5.87c.16-3.27,1.78-7.23,8.64-7.47h59.08Z" fill="#2f2e41"/><rect x="524.45" y="202.58" width="26.77" height="22.71" fill="#fff" opacity="0.2"/><rect x="475.17" y="233.4" width="134.04" height="41.77" fill="#fff" opacity="0.2"/><rect x="537.67" y="182.68" width="3.48" height="119.12" transform="translate(781.66 -297.17) rotate(90)" fill="#2f2e41"/><rect x="537.67" y="192.99" width="3.48" height="119.12" transform="translate(791.96 -286.86) rotate(90)" fill="#2f2e41"/><rect x="537.67" y="204.88" width="3.48" height="119.12" transform="translate(803.86 -274.97) rotate(90)" fill="#2f2e41"/><rect x="456.53" y="119.39" width="169.15" height="19.4" fill="#fff" opacity="0.2"/><rect x="475.17" y="154.11" width="38.33" height="6.69" fill="#fff" opacity="0.2"/><rect x="506.2" y="166.89" width="31.63" height="5.07" fill="#fff" opacity="0.2"/><rect x="558.52" y="160.81" width="53.54" height="35.28" fill="#fff" opacity="0.2"/><circle cx="575.66" cy="128.87" r="3.35" fill="#2f2e41"/><circle cx="591.13" cy="128.87" r="3.35" fill="#2f2e41"/><circle cx="605.87" cy="128.87" r="3.35" fill="#2f2e41"/><path d="M263.73,515.28H430.36V459.76a7.71,7.71,0,0,0-4.25-6.92c-2.7-1.34-6.83-2.15-12.79-.43,0,0-20,13.55-32.14-.13a21.83,21.83,0,0,1-3.66-5.9c-2.72-6.29-7.74-21.76,3.36-31.28,0,0,13.38-14.19,31.23-2,0,0,9.29,5,15.21-.36a9.72,9.72,0,0,0,3-7.25V350.77H374.93V292.62H320.65v58.15H263.73Z" fill="#f48225" data-secondary="true"/><rect x="256.77" y="350.77" width="6.96" height="164.51" fill="#f48225" data-secondary="true"/><rect x="256.77" y="350.77" width="6.96" height="164.51" opacity="0.2"/><path d="M263.73,181.62V350.77h57.49a9,9,0,0,0,5.35-1.64c2.21-1.62,4.25-4.77,2.56-10.78a22.1,22.1,0,0,0-1.84-4.41c-2.72-5.05-12.15-25.46,6.14-36.86a27.8,27.8,0,0,1,20.19-2.42,25.2,25.2,0,0,1,16,36.55l-.3.55s-8.38,12.07-.3,17.48a9.76,9.76,0,0,0,5.44,1.53h56.91V291.6s-.43-6.78,5.4-8.05a8.26,8.26,0,0,1,5.65.91c5.59,3,23.56,11.43,35.48,3A19,19,0,0,0,485.43,275c1.26-7.44,1.94-21.22-8.43-27.85,0,0-10.47-9.69-33.31.88a12.59,12.59,0,0,1-5.87,1.27c-3.26-.16-7.23-1.77-7.46-8.64V181.62Z" fill="#ccc"/><rect x="263.73" y="181.62" width="166.62" height="35.97" fill="#ccc"/><rect x="263.73" y="181.62" width="166.62" height="41.25" fill="#fff" opacity="0.2"/><rect x="276.85" y="360.35" width="131.41" height="20.08" fill="#fff" opacity="0.2"/><rect x="276.85" y="392.59" width="65.7" height="7.3" fill="#fff" opacity="0.2"/><rect x="276.85" y="405.98" width="91.86" height="3.04" fill="#fff" opacity="0.2"/><rect x="276.85" y="413.88" width="91.86" height="3.04" fill="#fff" opacity="0.2"/><rect x="276.85" y="421.79" width="91.86" height="3.04" fill="#fff" opacity="0.2"/><rect x="276.85" y="429.7" width="91.86" height="3.04" fill="#fff" opacity="0.2"/><rect x="276.85" y="437.61" width="91.86" height="3.04" fill="#fff" opacity="0.2"/><rect x="278.67" y="457.08" width="65.7" height="7.3" fill="#fff" opacity="0.2"/><rect x="278.67" y="470.46" width="91.86" height="3.04" fill="#fff" opacity="0.2"/><rect x="278.67" y="478.37" width="91.86" height="3.04" fill="#fff" opacity="0.2"/><rect x="278.67" y="486.28" width="91.86" height="3.04" fill="#fff" opacity="0.2"/><rect x="278.67" y="494.19" width="91.86" height="3.04" fill="#fff" opacity="0.2"/><rect x="278.67" y="502.1" width="91.86" height="3.04" fill="#fff" opacity="0.2"/><rect x="278.67" y="228.31" width="122.89" height="24.24" fill="#fff" opacity="0.2"/><path d="M312.9,118c5.65-1.39,9.16-3.78,11.33-6.82a22.47,22.47,0,0,0,6-17.59c-.81-8.56,4.41-15.6,22.26-17.36s18.38-3.51,18.38-3.51v-.2c6.14-2,12.82-5.69,16.23-10,6.42-8.16,5.76-26-2.84-29.62a13,13,0,0,0-3.35-.93c-.7-.55-1.39-1-2.09-1.48,1.07-13.93-11-17.92-23.35-16.88a23.53,23.53,0,0,0-14.07,7.26h-.55A227.78,227.78,0,0,1,318,38.66C306.1,46.79,290,49,280.72,60.44,261.11,84.44,280.24,125.88,312.9,118Z" fill="#2f2e41"/><path d="M290.64,55.79c8.23-4.59,17.34.43,34-6.35s23.16-18.81,32.64-21.1a26.26,26.26,0,0,1,17.15,1.76" fill="none" stroke="#fff" stroke-linecap="round" stroke-miterlimit="10" stroke-width="0.5"/><path d="M374.72,65.76s7.9-1.44,7.9-11.83a19,19,0,0,0-8.06-15.53" fill="none" stroke="#fff" stroke-linecap="round" stroke-miterlimit="10" stroke-width="0.5"/><path d="M382.07,62.63a12.5,12.5,0,0,0,7.32-10.39c1-8.05-12.21-15.46-12.21-15.46" fill="none" stroke="#fff" stroke-linecap="round" stroke-miterlimit="10" stroke-width="0.5"/><path d="M336.1,96.89c-7.32,2.89-16.55,30-20.07,40.93s-8.58,40.45-1.76,44.35,13.67-3,15.43-7.33,18.43-41.75,18.43-41.75L352.3,132s14.56,46.3,17.48,49.61,7.68,5.19,11.82,1.25,1.6-47.21-1.15-59.08-13.82-21.58-13.82-21.58C363,96.49,343.42,94,336.1,96.89Z" fill="#2f2e41"/><path d="M334.59,99.57c-.44,2.79,2.69,15.86,13.77,18.15s20-11.19,20-11.19S335,96.77,334.59,99.57Z" fill="#686175" data-primary="true"/><path d="M331.7,60.21c-6.82,2.9-8.4,2.64-15.61,15.83S298,119,298.5,123.06,314.2,173,314.2,173l7.32-2.87-9.88-50.72,14.59-31.48s-.47,6.73,2.83,11.31,6.12,5,15,6.33,21.77,3.37,26.51,2.39,7.7-9.11,7.7-9.11,6.54,27.87,7.4,29.74,22.64,45.83,22.64,45.83l7.35.56s-13.14-44.35-14.07-46.2S394,81.28,389.32,74.82,359.6,59.93,359.6,59.93,338.53,57.31,331.7,60.21Z" fill="#686175" data-primary="true"/><path d="M351.31,72.38s-1.93,16.28,3.43,14.82,6.79-14.38,6.79-14.38Z" fill="#f9b499"/><path d="M408.14,174.33a7.22,7.22,0,0,0,1.28,6.49,18.4,18.4,0,0,0,7.39,4s3.73,9.15,6.52,9.58-1.19-7-2.36-10.65a36.76,36.76,0,0,0-5.48-8.8Z" fill="#f9b499"/><path d="M314,172.92s.82,13.35,2.14,15.83,5.93,6.05,6.83,3.91.17-8.55.17-8.55a4.76,4.76,0,0,0,1.76,3.69c2,2,2.78.44,2.78.44s-.28-8.63-.67-10.39-5.66-7.74-5.66-7.74Z" fill="#f9b499"/><path d="M206.59,542.24s15.82,4,10.11,6.59-16.7,3.08-22.78,1.32-7-8.35-2.2-9.23S206.59,542.24,206.59,542.24Z" fill="#686175" data-primary="true"/><path d="M206.59,542.24s15.82,4,10.11,6.59-16.7,3.08-22.78,1.32-7-8.35-2.2-9.23S206.59,542.24,206.59,542.24Z" fill="#fff" opacity="0.2"/><path d="M157.82,593.21l-16.7,4,1.76,9.66,4,.88s-1.31,11.39.44,16.28,3.08,13.62,6.51,12.3,1.32-19.77,2.64-22a68.76,68.76,0,0,1,6.59-7.47L158.62,595Z" fill="#686175" data-primary="true"/><path d="M157.82,593.21l-16.7,4,1.76,9.66,4,.88s-1.31,11.39.44,16.28,3.08,13.62,6.51,12.3,1.32-19.77,2.64-22a68.76,68.76,0,0,1,6.59-7.47L158.62,595Z" fill="#fff" opacity="0.2"/><path d="M189,545.32s31.19,7.91,45.69,14.94,22.43,17.57,13.64,25.48-46.59,15.82-57.58,18.9-29.43,6.51-29.43,6.51l-4.42-19.43,39.57-8.26-28.12-11s-10.11-3.52-5.28-14.06S189,545.32,189,545.32Z" fill="#2f2e41"/><g opacity="0.2"><path d="M229.88,588.29c-9.15,0-33.21-4.35-33.46-4.4a.34.34,0,0,1-.28-.41.35.35,0,0,1,.41-.28c.24,0,24.24,4.39,33.33,4.39a.35.35,0,1,1,0,.7Z" fill="#231f20"/></g><path d="M195.61,541.36l10.54,4.4A63.41,63.41,0,0,1,224.61,533c11-4.88,23.74-8.79,21.54-21.53S233.84,497,223.73,497H206.15Z" fill="#2f2e41"/><path d="M241.27,431.11s9,2,9.77,1,9.76-4.65,11.54-5.5,2.78-2.85.84-3.25-10.67,2.26-10.67,2.26l5.59-7.9s8.53-4.49,7.07-6.18-5.62,0-7.81,0-10,.6-12.73,3.45-9.08,10.19-9.08,10.19Z" fill="#f9b499"/><path d="M224,450.25,244,433l-7.08-5.19-30.21,12.74h0c-9.14,2.49-19.65,5.73-22.49,8.14-5.27,4.4-5.27,18.46-5.27,19.77S171,482.47,160,493s-28.56,18.9-33,22.79,0,33,12.74,46.15a108.8,108.8,0,0,0,29,20.65s29-36.91,32.55-43.5,4.4-7.92,4.4-7.92,11-18.9,10.1-24.61-1.32-29.88-1.32-35.15,7.91-16.7,9.23-20.65A4.08,4.08,0,0,1,224,450.25Z" fill="#686175" data-primary="true"/><g opacity="0.2"><path d="M179.37,466.54a.5.5,0,0,1-.31-.1.51.51,0,0,1-.1-.72c.41-.55,10.21-13.6,18.71-18.05a.51.51,0,0,1,.69.22.5.5,0,0,1-.22.69c-8.29,4.34-18.26,17.62-18.36,17.76A.51.51,0,0,1,179.37,466.54Z" fill="#231f20"/></g><path d="M282.62,527.29s4-8.35,5.28-8.35,9.66-4.88,11.39-5.71,3.95-.44,3.08,1.31-8.35,7-8.35,7l9.66.44s8.79-4,9.23-1.75-3.51,4.39-4.88,6.15-6.51,7.48-10.55,7.91-13.62.89-13.62.89Z" fill="#f9b499"/><path d="M190.77,516.3s43.07,40.88,47.9,41.32,47.47-19.33,47.47-19.33l-3.52-13.2L240,534.85s-33.85-43.51-36.92-43.51-8.35,4.39-8.35,4.39" fill="#686175" data-primary="true"/><path d="M191.21,553.67s-25.92,16.27-32.07,18.45-9.26,3.52-9.26,3.52,4.18,5.25,6.51,6.39c5.42,2.72,12.41.64,12.41.64Z" fill="#686175" data-primary="true"/><path d="M191.21,553.67s-25.92,16.27-32.07,18.45-9.26,3.52-9.26,3.52,4.18,5.25,6.51,6.39c5.42,2.72,12.41.64,12.41.64Z" fill="#231f20" opacity="0.2"/><g opacity="0.2"><polygon points="292.16 207.34 286.65 201.83 291.5 195.65 292.62 196.53 288.54 201.71 293.17 206.34 292.16 207.34"/></g><g opacity="0.2"><rect x="316.39" y="200.76" width="72.6" height="1.42"/></g><g opacity="0.2"><rect x="409.37" y="194.06" width="1.42" height="12.78"/></g><path d="M351,77.08a20.34,20.34,0,0,1,.28-3.85l9.64,2.7a15.55,15.55,0,0,1-.8,3.66S354.35,80.28,351,77.08Z" fill="#f7a48b"/><ellipse cx="359.26" cy="58.84" rx="18.86" ry="13.28" transform="translate(220.52 395.41) rotate(-76.9)" fill="#f9b499"/><path d="M345,56.67s12-.5,20.39-9.42c0,0,2.8,6.51,8.21,8.79l2.89-2.59L369.05,36,362.5,34s-20.31,4.53-20.83,5S345,56.67,345,56.67Z" fill="#2f2e41"/><path d="M276.88,86.08c-1.16-5-1-14.09,11.35-22.87s33-2.4,51.91-7.68A69.87,69.87,0,0,0,371.24,36" fill="none" stroke="#fff" stroke-linecap="round" stroke-miterlimit="10" stroke-width="0.5"/><path d="M249.65,438.75a12.11,12.11,0,0,0-9.55.72,11.24,11.24,0,0,0-10.49,1.7c-5.27,3.95-9.23,12.3-9.23,12.3s-5.71,1.32-5.71,6.15.88,18,.88,18,6.59-3.52,9.23-3.52a17.64,17.64,0,0,1,3.6.62,11.47,11.47,0,0,0,5.81,5.06c7.78,2.93,17.54-3.88,21.81-15.22S257.43,441.68,249.65,438.75Z" fill="#f9b499"/><path d="M228.12,468s-6.59-2.64-11.39-12.3-7.47-22,4.4-31.2,22.42-4.4,27.66-2.64,13.62,6.15,10.55,15.38-17.14,10.11-16.7,12.3,4.88,6.51,2.2,7.47-5.29,2.64-5.29,4-.43,4.88-1.76,4.88-5.27-8.79-8.35-6.15S228.12,468,228.12,468Z" fill="#2f2e41"/><path d="M216.7,455.67l3.16,20.65,6.59,14.5H212.83a195,195,0,0,1-5.7-21.63A14.75,14.75,0,0,1,213,454.54Z" fill="#686175" data-primary="true"/><path d="M216.7,455.67l3.16,20.65,6.59,14.5H212.83a195,195,0,0,1-5.7-21.63A14.75,14.75,0,0,1,213,454.54Z" fill="#231f20" opacity="0.2"/><path d="M675.13,532.69s-3.17-3.17-6.86-14.25c-1.79-5.37-4.08-10-7.23-13.45-3.93-11.1-13.39-18-21.92-15.65-9.07,2.51-13.65,14.55-10.24,26.88s13.53,20.31,22.6,17.8a13.24,13.24,0,0,0,5.75-3.38l5.24,9.43Z" fill="#f9b499"/><path d="M603.82,553.21l-3.16-8.45c-1.59-4.22-5.28-5.86-9.5-5.86s-6.33-4.22-8.44-3.69,1,3.69,2.64,5.27a16,16,0,0,0,3.69,2.64A81.62,81.62,0,0,1,575.86,541c-5.86-1.58-4.75.53-.53,4.22s10.55,7.39,12.66,7.39a41.38,41.38,0,0,1,7.39,1.58l2.85,5.28Z" fill="#f9b499"/><path d="M661.29,484.32l-8.79-1.95c-4.42-1-6.51-4.4-7.09-8.58s-5.08-5.67-4.87-7.82,3.91.51,5.61,2a16.5,16.5,0,0,1,3.13,3.28,81.37,81.37,0,0,0-3.91-12.76c-2.41-5.53-.16-4.77,4.1-1.11s8.8,9.39,9.11,11.47a11.56,11.56,0,0,0,2.23,4.49l3.51,4.4Z" fill="#f9b499"/><path d="M598.55,599.11l-3.17-44.85a9.94,9.94,0,0,1,8.44-1l13.68,38.51S607,606.5,598.55,599.11Z" fill="#f48225" data-secondary="true"/><path d="M675.6,530S664,536.32,659.24,541.6s-52.76,48-57.53,50.65-5.27,13.19,3.17,14.25,49.61-21.11,49.61-21.11-3.69,9.5,0,12.66,13.19,5.87,14.25,10-.53,12.66,4.75,16.88,21.63,5.87,31.66-2.11,9.49-26.91,7.38-39.57,1.59-59.09-1-69.65-50.13-35.87-50.13-35.87l-2.11,7.91s31.66,23.22,32.19,25.4S675.6,530,675.6,530Z" fill="#f48225" data-secondary="true"/><g opacity="0.2"><path d="M654.49,586.1a.71.71,0,0,1-.67-.49.71.71,0,0,1,.45-.89l19.19-6.32a.71.71,0,0,1,.9.46.71.71,0,0,1-.45.89l-19.19,6.32A.91.91,0,0,1,654.49,586.1Z"/></g><path d="M650.8,477.23a15.06,15.06,0,0,0-18.47.53c-10,7.38-3.69,18.46-1.05,21.63l2.64,3.16s7.91,14.25,15.83,20.05S675.6,530,675.6,530s6.86,6.86,5.86,26.38-7.91,30.08,4.22,45.9,33.71,21.7,44.26,5.28,13.19-33.22.53-50.12-33.77-24.27-39.57-26.91-7.91-6.86-7.91-9,9.49-26.38,0-40.1S659.24,472.46,650.8,477.23Z" fill="#2f2e41"/><path d="M648.5,479.73s-7.7-2.7-9.25,8.07,5.22,29.41,20.79,35.8" fill="none" stroke="#fff" stroke-linecap="round" stroke-miterlimit="10" stroke-width="0.5"/><path d="M645,495.89a62,62,0,0,0,13.79,20.79,42.81,42.81,0,0,0,22,10.77" fill="none" stroke="#fff" stroke-linecap="round" stroke-miterlimit="10" stroke-width="0.5"/><path d="M685.06,535.54s14.22,15.77,8.85,36.56,6.92,41.94,22.71,40.41,15.77-23.45,15.77-23.45" fill="none" stroke="#fff" stroke-linecap="round" stroke-miterlimit="10" stroke-width="0.5"/><path d="M682.36,532.45s8.46.39,21.16,17.71,5,32.71,6.55,45.8,12.7,10.77,15.4,5.38" fill="none" stroke="#fff" stroke-linecap="round" stroke-miterlimit="10" stroke-width="0.5"/></svg>