<svg xmlns="http://www.w3.org/2000/svg" width="865.76" height="682.89" viewBox="0 0 865.76 682.89"><g style="isolation:isolate"><g id="b5a86865-1837-4691-ba73-031ba5f47dc5" data-name="Layer 1"><path d="M64.19,524.21c14.64,7.06,33.14,8.9,51.65,8.73a155.51,155.51,0,0,0-11.25,11.29H818.88c12.48-19.07,14.09-40.44-4.22-59-6.5-6.59-16.24-11-27.33-14,26.1-13.95,46.83-32.25,55.78-56.84,3.54-9.74,4.27-24-1.26-33.68-7.9-13.83-14-16.32-30-25.11-15.35-8.43-39.42-9.34-59.51-9.43-4.22-.19-8.43-.33-12.66-.47,3.78-1.17,7.56-2.37,11.35-3.64,37-12.31,68.25-33.59,78.73-63.14,7.43-20.94-1.87-43.83-29.73-53.82-17.22-6.17-33.58-6.65-51.9-6.87C694.21,217,640,219,586,222.42a186.34,186.34,0,0,0,18.15-13.78c14.3-12.41,26.53-31.66,24.25-48.26-3.06-22.2-21.3-33.95-50-38.71l8,2c-12-2.74-19.78-3.53-35-3.87-5.85-.13-11.63.2-17.46.37-12.14.35-24,1.59-36,3-9.28,1.06-18.63,2-28,2.88C500.71,115.29,531.3,104.5,563,95.39c10.29-2.94,27-19.7,7.26-22.41-16-2.19-34-5.57-50.15-4.53-19.18,1.22-37.21.93-56.26,3.87C429.23,77.68,395,84.11,361.17,91.89c-21.5,5-42.81,10.55-63.89,16.36-13.16,3.64-26,7.94-38.8,12.2-4.71,1.57-9.33,3.27-13.9,5-.73.29-1.46.6-2.19.88q30-9.5-4.34,1.55c.75-.31-2.3,1.3-6.28,3.36l.66-.35c-22.66,11.61-40.22,23.15-54.38,40.83-9.67,12.08-15.23,31.72-6.3,44.94,7.51,11.13,18.82,18.17,32.15,22.57-16.49,4.61-33,9.89-49.85,13.43a201.81,201.81,0,0,0-59.58,23.21c-23.12,13.95-47.87,38.2-43.39,61.59,3.86,20.11,17,33.35,45.39,37.89,23.1,3.69,46.35-1,69.4-1.75,3.23-.09,6.47-.24,9.7-.42A611,611,0,0,0,111,399.7l2-1c-26.63,12.25-56.23,28.13-68.63,50.21C28.44,477.18,25.85,505.76,64.19,524.21Z" fill="#cce9f7"/><path d="M468.88,169a19.79,19.79,0,0,0-5.3-.7,3.17,3.17,0,0,1,.19-.46,15.08,15.08,0,0,0,.71-9.12,24.59,24.59,0,0,0-4.08-8.17c-3.55-4.48-9-7.11-14.58-8.09a29.37,29.37,0,0,0-8.78-.06,27.93,27.93,0,0,0-.6-6.64c-1.21-5.8-5.56-11-10.16-14.49-4.86-3.71-11-4.47-16.86-3.42-.62.11-1.23.27-1.84.42-1.92-4.82-7.19-7.83-12.07-9a20.92,20.92,0,0,0-18.37,4.35,24.23,24.23,0,0,0-5.91,7.32c-1.66,3-2.05,6.49-2.08,9.83a14.78,14.78,0,0,0,2.14,7.5,9.89,9.89,0,0,0-2,1.24,13.41,13.41,0,0,0-4.34,6.15,21.5,21.5,0,0,0-2.31-.95,27.13,27.13,0,0,0-9.22-1.3,22.51,22.51,0,0,0-8.82,2.35c-5.6,2.56-11,5.56-14,11.17a17.06,17.06,0,0,0-1.69,4.8c-.53-.16-1-.3-1.54-.43a20.45,20.45,0,0,0-11.77.57c-6.83,2.41-11.51,9.79-12.16,16.82-.78,8.13,4.87,15.54,12.46,17.85a21.21,21.21,0,0,0,12.07-.31,31.79,31.79,0,0,0,7.05-3,22.88,22.88,0,0,0,3.83,4.27c4.67,4.08,10.83,6,16.87,6.8a24.11,24.11,0,0,0,8.51-.51c1.42-.33,2.84-.47,4.26-.88a36.2,36.2,0,0,0,4.33-1.68,26.09,26.09,0,0,0,6.67-4,22.65,22.65,0,0,0,2.22,2.05,25.88,25.88,0,0,0,14.88,5.83,38.4,38.4,0,0,0,16.56-2.91,30.68,30.68,0,0,0,10-6.83,38.53,38.53,0,0,0,15.51,7.31,48.35,48.35,0,0,0,13.12,1.41,36.83,36.83,0,0,0,12.5-2.68c6.73-2.78,14.16-8.27,15.5-15.84S476.16,171.07,468.88,169Z" fill="#fff"/><path d="M476.09,189.26c-1.85,3.46-5.54,6-8.77,8-7.55,4.61-16.82,5.21-25.34,3.69a45.49,45.49,0,0,1-13.28-4.39,31.58,31.58,0,0,1-4.16-2.6c.39-.42.76-.85,1.13-1.27-.48.39-1,.72-1.44,1-1.84,1.21-3.73,2.43-5.63,3.52-.23.13-.47.25-.7.39a33.22,33.22,0,0,1-4.35,2.37,36.48,36.48,0,0,1-7.37,2.18,39.49,39.49,0,0,1-8,1,27,27,0,0,1-6.72-.89,24.73,24.73,0,0,1-8.86-3.38,17,17,0,0,1-4.35-3.89c-.77-1-1.34-2.47-2.35-3.33a16.65,16.65,0,0,0,.82,1.79,15,15,0,0,0,1.95,2.88,40.77,40.77,0,0,1-22.9,5.79,36.67,36.67,0,0,1-15.93-5.79,19.62,19.62,0,0,1-4.11-3.62,0,0,0,0,0,0,0,20.84,20.84,0,0,1-3.43-4.91,23.07,23.07,0,0,0,2.09,4.47,46.91,46.91,0,0,1-6.14,2.1,22,22,0,0,1-11.34.16,16.28,16.28,0,0,1-11.75-15.69,18,18,0,0,1,10.57-16.34,19.42,19.42,0,0,1,11.48-.79,15,15,0,0,1,1.57.42,18.6,18.6,0,0,0-.26,2.26,16.23,16.23,0,0,0,.2,2.42,22.85,22.85,0,0,0,1,3.17,19.66,19.66,0,0,1,1.14-8.77,13.16,13.16,0,0,1,.63-1.43,17.16,17.16,0,0,1,1-2.08c2.72-5,7.72-7.59,12.6-10.07a24.48,24.48,0,0,1,16.69-2,16.94,16.94,0,0,1,2.95,1,9.39,9.39,0,0,0,1.13,7.15A11.7,11.7,0,0,1,367,144.5a15.8,15.8,0,0,1,3.66-4.48,6,6,0,0,1,1.19-.8s0,.05,0,.06H372a7.22,7.22,0,0,1,.88-.44l-.05-.08a23.46,23.46,0,0,1,5.32-1.34,13,13,0,0,1,3.89-.17c.28,0,.57.09.87.15a1.71,1.71,0,0,0,.25,0,8.75,8.75,0,0,0-2.85-.6,30.75,30.75,0,0,0-4.3.16,17.9,17.9,0,0,0-3.66.86,17,17,0,0,1-1.67-7.31,19.14,19.14,0,0,1,1.84-9.07,23.29,23.29,0,0,1,5.67-7,20.79,20.79,0,0,1,16.71-4.7c5,.75,10.51,3.82,12.6,8.59a23.5,23.5,0,0,0-4.61,1.85,13.41,13.41,0,0,0-2.64,2.13,18.22,18.22,0,0,1,12.71-3.46,20.72,20.72,0,0,1,13,4.41c4.18,3.3,8.13,7.72,9.69,12.86a20,20,0,0,1,.84,4.68,21.75,21.75,0,0,1,.14,5c0,.42,0,.85-.08,1.28A28,28,0,0,0,437,143l.37,0a28.07,28.07,0,0,1,8.13.56,21.24,21.24,0,0,1,17.05,14.83,13.88,13.88,0,0,1-.11,8.89,10.58,10.58,0,0,1-.37,1.08H462a22.71,22.71,0,0,0-4.08.75,2.19,2.19,0,0,0-1.4.72.18.18,0,0,1,.1,0l.13,0c1.06-.72,2.71-.69,3.9-.69a18.47,18.47,0,0,1,2.57.05h0a19.25,19.25,0,0,1,5,1.11,14.47,14.47,0,0,1,8.53,8.22A13.14,13.14,0,0,1,476.09,189.26Z" fill="#fff"/><path d="M393.79,129.8a5.62,5.62,0,0,0,.28,2.49c.05-3,2.07-6.54,4.08-8.54a17.18,17.18,0,0,1,2.83-2.22,15.86,15.86,0,0,1,1.86-1.37,23.5,23.5,0,0,1,4.61-1.85,11.63,11.63,0,0,0-1.91-3C400.33,116,394.5,122.36,393.79,129.8Z" fill="#bce8e5" opacity="0.3"/><path d="M372.3,137.84A17.9,17.9,0,0,1,376,137a30.75,30.75,0,0,1,4.3-.16,7.8,7.8,0,0,1,2.31.42,26.92,26.92,0,0,1,7.54,2.2,28.85,28.85,0,0,1,7.46,4.56c-4.63-7.69-15-12.45-23.42-9.17a.54.54,0,0,1-.74-.24,23.69,23.69,0,0,1-1.14-12.69,19.94,19.94,0,0,0-1.64,8.63A17,17,0,0,0,372.3,137.84Z" fill="#bce8e5" opacity="0.3"/><path d="M476.77,178.43a14.47,14.47,0,0,0-8.53-8.22,19.25,19.25,0,0,0-5-1.11h0a18.47,18.47,0,0,0-2.57-.05c-1.19,0-2.84,0-3.9.69l-.13,0a.18.18,0,0,0-.1,0,2.19,2.19,0,0,1,1.4-.72,22.71,22.71,0,0,1,4.08-.75h.05a7.36,7.36,0,0,0,.39-1.08,13.88,13.88,0,0,0,.11-8.89,23.81,23.81,0,0,0-3.52-6.83,23.46,23.46,0,0,0-11.1-7.36c4.63,3.22,8.35,7.39,8.27,13.6a27.68,27.68,0,0,1-3.73,13.76c.88-.11,1.74-.2,2.64-.28,3.74-.29,7.74-.73,11.28.77a5.19,5.19,0,0,1,2.85,6.85,15.49,15.49,0,0,1-8.88,9.09c-8.12,3.39-17.53,2.6-25.65-.41-5.48-2-10.86-5.21-14.35-9.85-4.27,8-12,13.63-21.93,13.45-11.25-.2-23.66-7.73-26.89-18.86a24.52,24.52,0,0,0,2.22,10.27.54.54,0,0,1-.23.73c-8.24,4.81-25,9.58-34.5,5.16-5.19-2.41-7.46-7.16-9.42-12.94-.6,3.95.14,8.35,1.49,12.63.11.37-1.25.54-1.56.56-6.8.54-15-.51-19.77-5.94a14.93,14.93,0,0,1-3.64-9.78,16.62,16.62,0,0,0,10.75,21.57,22,22,0,0,0,11.34-.16,46.91,46.91,0,0,0,6.14-2.1,23.07,23.07,0,0,1-2.09-4.47,20.84,20.84,0,0,0,3.43,4.91v0a19.25,19.25,0,0,0,4.09,3.61,36.67,36.67,0,0,0,15.93,5.79,40.77,40.77,0,0,0,22.9-5.79,15,15,0,0,1-1.95-2.88,16.65,16.65,0,0,1-.82-1.79c1,.86,1.58,2.28,2.35,3.33a17,17,0,0,0,4.35,3.89,24.73,24.73,0,0,0,8.86,3.38,27,27,0,0,0,6.72.89,39.49,39.49,0,0,0,8-1,36.48,36.48,0,0,0,7.37-2.18,33.22,33.22,0,0,0,4.35-2.37c.23-.14.47-.26.7-.39,1.9-1.09,3.79-2.31,5.63-3.52.45-.32,1-.65,1.44-1-.37.42-.74.85-1.13,1.27a31.58,31.58,0,0,0,4.16,2.6A45.49,45.49,0,0,0,442,201c8.52,1.52,17.79.92,25.34-3.69,3.23-2,6.92-4.54,8.77-8A13.14,13.14,0,0,0,476.77,178.43Z" fill="#cce9f7"/><path d="M371.85,139.22l-.14.07a.71.71,0,0,0,.16,0Z" fill="#fff"/><path d="M604.5,270.9a12.53,12.53,0,0,0-3.28-.44l.12-.28a9.29,9.29,0,0,0,.44-5.63,14.88,14.88,0,0,0-2.52-5.05,14.67,14.67,0,0,0-9-5,18.24,18.24,0,0,0-5.42,0,17.59,17.59,0,0,0-.38-4.1c-.74-3.58-3.42-6.79-6.28-9a13.09,13.09,0,0,0-10.42-2.11c-.38.07-.75.16-1.13.26-1.18-3-4.44-4.84-7.46-5.57a13.38,13.38,0,0,0-6.23.05,13.11,13.11,0,0,0-5.12,2.64,14.59,14.59,0,0,0-3.65,4.53,12.57,12.57,0,0,0-1.29,6.06,9.25,9.25,0,0,0,1.32,4.64,5.7,5.7,0,0,0-1.24.77,8.15,8.15,0,0,0-2.68,3.8,12.23,12.23,0,0,0-1.43-.59,16.4,16.4,0,0,0-5.7-.8,13.85,13.85,0,0,0-5.45,1.45c-3.45,1.58-6.78,3.43-8.67,6.9a10.49,10.49,0,0,0-1,3l-1-.26a12.6,12.6,0,0,0-7.27.35c-4.22,1.5-7.12,6-7.52,10.39a10.75,10.75,0,0,0,7.69,11,13.1,13.1,0,0,0,7.47-.18,19.43,19.43,0,0,0,4.35-1.85,14.67,14.67,0,0,0,2.37,2.64,19.35,19.35,0,0,0,10.43,4.19,14.54,14.54,0,0,0,5.26-.31c.88-.2,1.75-.29,2.63-.54a23.56,23.56,0,0,0,2.68-1,16.23,16.23,0,0,0,4.12-2.44,11.78,11.78,0,0,0,1.37,1.27,15.83,15.83,0,0,0,9.2,3.59A23.58,23.58,0,0,0,570,291.45a19.13,19.13,0,0,0,6.19-4.22,23.88,23.88,0,0,0,9.59,4.51,29.08,29.08,0,0,0,8.1.86,22.34,22.34,0,0,0,7.73-1.65c4.16-1.71,8.75-5.11,9.58-9.79A9.09,9.09,0,0,0,604.5,270.9Z" fill="#fff"/><path d="M609,283.41c-1.14,2.14-3.42,3.7-5.43,4.94-4.65,2.85-10.38,3.21-15.64,2.28a28.31,28.31,0,0,1-8.21-2.71,20.47,20.47,0,0,1-2.57-1.6c.24-.27.48-.52.71-.79-.3.24-.62.44-.91.64-1.13.75-2.29,1.5-3.48,2.18l-.42.24a21.83,21.83,0,0,1-2.69,1.47,23.91,23.91,0,0,1-4.56,1.35,25,25,0,0,1-5,.61,16,16,0,0,1-4.14-.55,15.19,15.19,0,0,1-5.48-2.08,10.51,10.51,0,0,1-2.69-2.41,11.41,11.41,0,0,0-1.45-2.06,10.84,10.84,0,0,0,.5,1.11,9.8,9.8,0,0,0,1.21,1.78,21.19,21.19,0,0,1-4.18,2,20.73,20.73,0,0,1-10,1.56,22.78,22.78,0,0,1-9.84-3.58,12.12,12.12,0,0,1-2.53-2.24h0a13,13,0,0,1-2.13-3,15,15,0,0,0,1.29,2.75,27,27,0,0,1-3.79,1.3,13.66,13.66,0,0,1-7,.11,10.07,10.07,0,0,1-7.25-9.7,11.08,11.08,0,0,1,6.52-10.1,12.05,12.05,0,0,1,7.1-.5l1,.26a12.93,12.93,0,0,0-.16,1.41,8.25,8.25,0,0,0,.13,1.49,12,12,0,0,0,.61,2,11.91,11.91,0,0,1,.69-5.41,8,8,0,0,1,.4-.89,10.06,10.06,0,0,1,.61-1.29c1.68-3.11,4.77-4.69,7.78-6.22a15.11,15.11,0,0,1,10.32-1.26,13.32,13.32,0,0,1,1.82.58,5.87,5.87,0,0,0,.69,4.42,7.24,7.24,0,0,1,.73-5.7,9.48,9.48,0,0,1,2.27-2.76,3.37,3.37,0,0,1,.73-.5l0,0,0,0c.17-.09.35-.18.54-.26,0,0,0,0,0-.05a13.74,13.74,0,0,1,3.28-.83,8.05,8.05,0,0,1,2.4-.11,5.12,5.12,0,0,1,.54.1h.16a5.36,5.36,0,0,0-1.76-.36,19.54,19.54,0,0,0-2.66.09,11.53,11.53,0,0,0-2.27.53,10.35,10.35,0,0,1-1-4.51,11.68,11.68,0,0,1,1.13-5.61,14.43,14.43,0,0,1,3.5-4.34,12.84,12.84,0,0,1,10.33-2.91c3.08.46,6.5,2.36,7.79,5.31a14.25,14.25,0,0,0-2.85,1.14,7.86,7.86,0,0,0-1.63,1.32,11.14,11.14,0,0,1,7.86-2.14,12.8,12.8,0,0,1,8,2.72c2.58,2,5,4.77,6,8a12.37,12.37,0,0,1,.52,2.88,13.51,13.51,0,0,1,.09,3.11c0,.26,0,.52,0,.79a17.74,17.74,0,0,0,.31-2.51l.23,0a17.26,17.26,0,0,1,5,.34,14.87,14.87,0,0,1,8.37,5,14.56,14.56,0,0,1,2.17,4.22,8.5,8.5,0,0,1-.07,5.5c-.07.21-.14.44-.23.66h0a14.5,14.5,0,0,0-2.52.46,1.41,1.41,0,0,0-.87.45h.07l.08,0a4.53,4.53,0,0,1,2.4-.43,12.06,12.06,0,0,1,1.59,0h0a11.7,11.7,0,0,1,3.08.67,9,9,0,0,1,5.28,5.09A8.11,8.11,0,0,1,609,283.41Z" fill="#fff"/><path d="M558.09,246.67a3.53,3.53,0,0,0,.18,1.53,8.62,8.62,0,0,1,2.52-5.27,10.35,10.35,0,0,1,1.75-1.37,9.21,9.21,0,0,1,1.15-.85,14.25,14.25,0,0,1,2.85-1.14,7,7,0,0,0-1.18-1.84C562.14,238.13,558.54,242.07,558.09,246.67Z" fill="#bce8e5" opacity="0.3"/><path d="M544.81,251.63a11.53,11.53,0,0,1,2.27-.53,19.54,19.54,0,0,1,2.66-.09,5.16,5.16,0,0,1,1.42.25,16.9,16.9,0,0,1,4.66,1.36,17.68,17.68,0,0,1,4.62,2.82c-2.87-4.75-9.27-7.69-14.48-5.67-.16.06-.39.06-.46-.14a14.78,14.78,0,0,1-.71-7.85,12.21,12.21,0,0,0-1,5.34A10.35,10.35,0,0,0,544.81,251.63Z" fill="#bce8e5" opacity="0.3"/><path d="M609.38,276.72a9,9,0,0,0-5.28-5.09A11.7,11.7,0,0,0,601,271h0a12.06,12.06,0,0,0-1.59,0,4.53,4.53,0,0,0-2.4.43l-.08,0h-.07a1.41,1.41,0,0,1,.87-.45,14.5,14.5,0,0,1,2.52-.46h0a6.64,6.64,0,0,0,.24-.66,8.5,8.5,0,0,0,.07-5.5,12.91,12.91,0,0,0-9-8.78c2.86,2,5.17,4.58,5.12,8.42a17,17,0,0,1-2.32,8.49l1.63-.17c2.33-.18,4.79-.45,7,.48a3.22,3.22,0,0,1,1.76,4.24,9.64,9.64,0,0,1-5.49,5.61c-5,2.09-10.84,1.6-15.85-.25a19.47,19.47,0,0,1-8.87-6.1c-2.64,5-7.45,8.44-13.55,8.32-7-.13-14.63-4.77-16.62-11.66a15.15,15.15,0,0,0,1.37,6.35.33.33,0,0,1-.13.45c-5.1,3-15.47,5.92-21.34,3.18-3.19-1.48-4.6-4.41-5.81-8a17.86,17.86,0,0,0,.92,7.81c.07.23-.77.33-1,.34-4.21.34-9.26-.31-12.22-3.66a9.23,9.23,0,0,1-2.25-6.05,10,10,0,0,0-.61,3.64,10.07,10.07,0,0,0,7.25,9.7,13.66,13.66,0,0,0,7-.11,27,27,0,0,0,3.79-1.3,15,15,0,0,1-1.29-2.75,13,13,0,0,0,2.13,3h0a11.82,11.82,0,0,0,2.52,2.24,22.78,22.78,0,0,0,9.84,3.58,20.73,20.73,0,0,0,10-1.56,21.19,21.19,0,0,0,4.18-2,9.8,9.8,0,0,1-1.21-1.78,10.84,10.84,0,0,1-.5-1.11,11.41,11.41,0,0,1,1.45,2.06,10.51,10.51,0,0,0,2.69,2.41,15.19,15.19,0,0,0,5.48,2.08,16,16,0,0,0,4.14.55,25,25,0,0,0,5-.61,23.91,23.91,0,0,0,4.56-1.35,21.83,21.83,0,0,0,2.69-1.47l.42-.24c1.19-.68,2.35-1.43,3.48-2.18.29-.2.61-.4.91-.64-.23.27-.47.52-.71.79a20.47,20.47,0,0,0,2.57,1.6,28.31,28.31,0,0,0,8.21,2.71c5.26.93,11,.57,15.64-2.28,2-1.24,4.29-2.8,5.43-4.94A8.11,8.11,0,0,0,609.38,276.72Z" fill="#cce9f7"/><path d="M544.54,252.49l-.09,0,.1,0Z" fill="#fff"/><path d="M391.13,335.46a10.28,10.28,0,0,0-2.86-.39,2.56,2.56,0,0,1,.11-.24,8.19,8.19,0,0,0,.38-4.91,13,13,0,0,0-2.2-4.4,12.77,12.77,0,0,0-7.84-4.35,15.63,15.63,0,0,0-4.73,0,15.22,15.22,0,0,0-.33-3.57c-.65-3.13-3-5.91-5.47-7.81a11.47,11.47,0,0,0-9.09-1.84c-.32.06-.65.15-1,.23-1-2.6-3.87-4.21-6.49-4.86a11.22,11.22,0,0,0-9.9,2.35,13,13,0,0,0-3.18,3.95,11,11,0,0,0-1.12,5.28,8,8,0,0,0,1.15,4,5,5,0,0,0-1.08.67,7.16,7.16,0,0,0-2.34,3.31,9.76,9.76,0,0,0-1.24-.51,14.66,14.66,0,0,0-5-.7,12.37,12.37,0,0,0-4.75,1.26c-3,1.38-5.9,3-7.55,6a9,9,0,0,0-.91,2.58l-.83-.23a10.93,10.93,0,0,0-6.33.31c-3.68,1.3-6.2,5.27-6.55,9.05a9.37,9.37,0,0,0,6.7,9.61,11.45,11.45,0,0,0,6.51-.16A16.88,16.88,0,0,0,319,348.5a12.69,12.69,0,0,0,2.06,2.3,16.92,16.92,0,0,0,9.09,3.66,12.82,12.82,0,0,0,4.58-.28c.77-.17,1.52-.25,2.29-.47a18.55,18.55,0,0,0,2.34-.91,13.75,13.75,0,0,0,3.59-2.12,11.33,11.33,0,0,0,1.19,1.11,13.86,13.86,0,0,0,8,3.13,20.81,20.81,0,0,0,8.91-1.56,16.57,16.57,0,0,0,5.39-3.68,20.61,20.61,0,0,0,8.35,3.93,25.52,25.52,0,0,0,7.07.76,19.51,19.51,0,0,0,6.73-1.44c3.62-1.49,7.62-4.45,8.34-8.53A7.91,7.91,0,0,0,391.13,335.46Z" fill="#fff"/><path d="M395,346.36c-1,1.86-3,3.23-4.72,4.3-4.06,2.48-9,2.81-13.64,2a24.46,24.46,0,0,1-7.15-2.37,17.79,17.79,0,0,1-2.24-1.39l.62-.68a9.41,9.41,0,0,1-.79.55c-1,.66-2,1.31-3,1.9l-.37.21a19.57,19.57,0,0,1-2.34,1.28,20.36,20.36,0,0,1-4,1.18,21.73,21.73,0,0,1-4.34.53,13.58,13.58,0,0,1-3.6-.48,13.2,13.2,0,0,1-4.78-1.81,9,9,0,0,1-2.34-2.1,9.92,9.92,0,0,0-1.26-1.79,10.11,10.11,0,0,0,.43,1,8.67,8.67,0,0,0,1.06,1.55,18.59,18.59,0,0,1-3.65,1.76,18,18,0,0,1-8.69,1.36,19.83,19.83,0,0,1-8.57-3.12,10.4,10.4,0,0,1-2.21-1.95h0a11.07,11.07,0,0,1-1.85-2.65,12.06,12.06,0,0,0,1.13,2.41,24.43,24.43,0,0,1-3.31,1.13,11.79,11.79,0,0,1-6.1.09,8.78,8.78,0,0,1-6.32-8.45,9.67,9.67,0,0,1,5.68-8.8,10.47,10.47,0,0,1,6.19-.43c.28.06.58.14.84.22a8.27,8.27,0,0,0-.14,1.23,8,8,0,0,0,.11,1.3,11.28,11.28,0,0,0,.53,1.71,10.44,10.44,0,0,1,.61-4.72c.11-.28.22-.52.34-.78a11.33,11.33,0,0,1,.53-1.12c1.47-2.71,4.16-4.09,6.79-5.42a13.13,13.13,0,0,1,9-1.09,11.63,11.63,0,0,1,1.58.5,5.09,5.09,0,0,0,.6,3.85,6.3,6.3,0,0,1,.64-5,8.43,8.43,0,0,1,2-2.41,3,3,0,0,1,.64-.43s0,0,0,0h0a4.09,4.09,0,0,1,.47-.23s0,0,0,0a12.12,12.12,0,0,1,2.86-.72,7,7,0,0,1,2.1-.09l.46.08H345a4.54,4.54,0,0,0-1.54-.31,16.31,16.31,0,0,0-2.32.08,8.63,8.63,0,0,0-2,.47,9.06,9.06,0,0,1-.9-3.94,10.07,10.07,0,0,1,1-4.89,12.4,12.4,0,0,1,3-3.78,11.15,11.15,0,0,1,9-2.54c2.68.4,5.66,2.06,6.79,4.63a13.05,13.05,0,0,0-2.49,1,7.09,7.09,0,0,0-1.42,1.15,9.76,9.76,0,0,1,6.85-1.87,11.16,11.16,0,0,1,7,2.38,14.88,14.88,0,0,1,5.23,6.93,11.52,11.52,0,0,1,.45,2.51,12.31,12.31,0,0,1,.08,2.71c0,.23,0,.46-.05.69a14.89,14.89,0,0,0,.27-2.19l.2,0a15,15,0,0,1,4.38.3,13,13,0,0,1,7.28,4.31,12.49,12.49,0,0,1,1.9,3.68,7.42,7.42,0,0,1-.06,4.79c-.06.19-.12.39-.2.58h0a13.6,13.6,0,0,0-2.19.4,1.27,1.27,0,0,0-.76.39h0l.08,0a4,4,0,0,1,2.09-.37,10.75,10.75,0,0,1,1.39,0h0a10,10,0,0,1,2.68.59,7.81,7.81,0,0,1,4.6,4.42A7.1,7.1,0,0,1,395,346.36Z" fill="#fff"/><path d="M350.7,314.35a2.83,2.83,0,0,0,.15,1.33,7.38,7.38,0,0,1,2.2-4.59,8.72,8.72,0,0,1,1.52-1.2,8.9,8.9,0,0,1,1-.74,13.05,13.05,0,0,1,2.49-1,6,6,0,0,0-1-1.6C354.22,306.9,351.08,310.34,350.7,314.35Z" fill="#bce8e5" opacity="0.3"/><path d="M339.13,318.68a8.63,8.63,0,0,1,2-.47,16.31,16.31,0,0,1,2.32-.08,4.6,4.6,0,0,1,1.24.21,14.84,14.84,0,0,1,4.06,1.19,15.08,15.08,0,0,1,4,2.46c-2.49-4.14-8.07-6.71-12.61-4.94a.3.3,0,0,1-.4-.13,13,13,0,0,1-.62-6.84,10.65,10.65,0,0,0-.87,4.66A9.06,9.06,0,0,0,339.13,318.68Z" fill="#bce8e5" opacity="0.3"/><path d="M395.38,340.52a7.81,7.81,0,0,0-4.6-4.42,10,10,0,0,0-2.68-.59h0a10.75,10.75,0,0,0-1.39,0,4,4,0,0,0-2.09.37l-.08,0h0a1.27,1.27,0,0,1,.76-.39,13.6,13.6,0,0,1,2.19-.4h0a4.5,4.5,0,0,0,.21-.58,7.42,7.42,0,0,0,.06-4.79,12.49,12.49,0,0,0-1.9-3.68,12.69,12.69,0,0,0-6-4c2.49,1.74,4.5,4,4.46,7.33a14.81,14.81,0,0,1-2,7.41c.47-.06.94-.11,1.42-.15,2-.16,4.17-.4,6.08.42a2.79,2.79,0,0,1,1.54,3.69,8.41,8.41,0,0,1-4.78,4.89c-4.38,1.82-9.45,1.39-13.82-.22a17,17,0,0,1-7.72-5.31,13,13,0,0,1-11.81,7.25c-6.06-.12-12.74-4.16-14.48-10.16a13.17,13.17,0,0,0,1.19,5.53.3.3,0,0,1-.11.39c-4.45,2.59-13.48,5.16-18.59,2.78-2.78-1.29-4-3.85-5.06-7a15.31,15.31,0,0,0,.8,6.8c.05.2-.67.3-.85.3-3.66.3-8.07-.27-10.64-3.19a8,8,0,0,1-2-5.27,8.66,8.66,0,0,0-.53,3.17,8.78,8.78,0,0,0,6.32,8.45,11.79,11.79,0,0,0,6.1-.09,24.43,24.43,0,0,0,3.31-1.13,12.06,12.06,0,0,1-1.13-2.41,11.07,11.07,0,0,0,1.85,2.65h0a10.11,10.11,0,0,0,2.2,1.95,19.83,19.83,0,0,0,8.57,3.12,18,18,0,0,0,8.69-1.36,18.59,18.59,0,0,0,3.65-1.76,8.67,8.67,0,0,1-1.06-1.55,10.11,10.11,0,0,1-.43-1,9.92,9.92,0,0,1,1.26,1.79,9,9,0,0,0,2.34,2.1,13.2,13.2,0,0,0,4.78,1.81,13.58,13.58,0,0,0,3.6.48,21.73,21.73,0,0,0,4.34-.53,20.36,20.36,0,0,0,4-1.18,19.57,19.57,0,0,0,2.34-1.28l.37-.21c1-.59,2.05-1.24,3-1.9a9.41,9.41,0,0,0,.79-.55l-.62.68a17.79,17.79,0,0,0,2.24,1.39,24.46,24.46,0,0,0,7.15,2.37c4.59.82,9.58.49,13.64-2,1.75-1.07,3.74-2.44,4.72-4.3A7.1,7.1,0,0,0,395.38,340.52Z" fill="#cce9f7"/><path d="M338.88,319.42l-.07,0,.08,0Z" fill="#fff"/><path d="M709.52,377.24a10.3,10.3,0,0,0-2.59-.35l.09-.22a7.42,7.42,0,0,0,.35-4.46,12,12,0,0,0-2-4,11.61,11.61,0,0,0-7.14-4,14,14,0,0,0-4.29,0,14.23,14.23,0,0,0-.29-3.26c-.59-2.83-2.72-5.36-5-7.09a10.4,10.4,0,0,0-8.25-1.67q-.45.09-.9.21c-.93-2.36-3.52-3.82-5.9-4.41a10.67,10.67,0,0,0-4.93,0,10.45,10.45,0,0,0-4.05,2.09,11.94,11.94,0,0,0-2.89,3.58,9.86,9.86,0,0,0-1,4.81,7.15,7.15,0,0,0,1,3.67,4.83,4.83,0,0,0-1,.61,6.55,6.55,0,0,0-2.12,3,7.07,7.07,0,0,0-1.13-.47,13.47,13.47,0,0,0-4.51-.65,11.33,11.33,0,0,0-4.3,1.16c-2.74,1.25-5.37,2.73-6.87,5.46a8.51,8.51,0,0,0-.83,2.35l-.74-.21a9.84,9.84,0,0,0-5.76.29c-3.35,1.17-5.63,4.77-5.95,8.21a8.52,8.52,0,0,0,6.09,8.73,10.35,10.35,0,0,0,5.91-.15,15.45,15.45,0,0,0,3.45-1.47,11.55,11.55,0,0,0,1.87,2.11,15.48,15.48,0,0,0,8.25,3.31,11.66,11.66,0,0,0,4.16-.26c.69-.15,1.39-.22,2.08-.43a17.09,17.09,0,0,0,2.12-.81,13.16,13.16,0,0,0,3.26-1.93,12.65,12.65,0,0,0,8.36,3.86,18.77,18.77,0,0,0,8.1-1.44,14.83,14.83,0,0,0,4.9-3.34,18.7,18.7,0,0,0,7.58,3.59,23.46,23.46,0,0,0,6.41.67,17.6,17.6,0,0,0,6.12-1.3c3.28-1.36,6.92-4,7.57-7.75A7.2,7.2,0,0,0,709.52,377.24Z" fill="#97d4eb" style="mix-blend-mode:multiply"/><path d="M706.53,374.33a9.5,9.5,0,0,0-2.59-.34,1.57,1.57,0,0,1,.09-.23,7.42,7.42,0,0,0,.35-4.46,12,12,0,0,0-2-4,11.58,11.58,0,0,0-7.12-4,14.75,14.75,0,0,0-4.3,0,13.62,13.62,0,0,0-.3-3.25,12.91,12.91,0,0,0-5-7.09,10.45,10.45,0,0,0-8.26-1.67l-.89.21c-.93-2.36-3.51-3.83-5.9-4.41a10.22,10.22,0,0,0-9,2.13,11.71,11.71,0,0,0-2.89,3.59,9.9,9.9,0,0,0-1,4.79,7.38,7.38,0,0,0,1,3.67,5.11,5.11,0,0,0-1,.61,6.6,6.6,0,0,0-2.13,3,8.9,8.9,0,0,0-1.13-.47,13.2,13.2,0,0,0-4.51-.63,10.89,10.89,0,0,0-4.31,1.15c-2.74,1.25-5.37,2.72-6.86,5.46a8.44,8.44,0,0,0-.83,2.34l-.75-.2a9.9,9.9,0,0,0-5.75.28c-3.34,1.18-5.63,4.78-5.95,8.21a8.51,8.51,0,0,0,6.09,8.73,10.43,10.43,0,0,0,5.91-.14,15.34,15.34,0,0,0,3.44-1.46,11.47,11.47,0,0,0,1.88,2.09,15.41,15.41,0,0,0,8.25,3.32,11.89,11.89,0,0,0,4.16-.25c.69-.16,1.38-.24,2.08-.43a16.62,16.62,0,0,0,2.12-.83,12.49,12.49,0,0,0,3.26-1.92,11.32,11.32,0,0,0,1.08,1,12.49,12.49,0,0,0,7.28,2.84,18.75,18.75,0,0,0,8.1-1.41,15.15,15.15,0,0,0,4.89-3.34,18.82,18.82,0,0,0,7.59,3.56,23.1,23.1,0,0,0,6.41.7,18.13,18.13,0,0,0,6.12-1.31c3.28-1.36,6.92-4.05,7.58-7.75A7.21,7.21,0,0,0,706.53,374.33Z" fill="#fff"/><path d="M710.05,384.23a11.43,11.43,0,0,1-4.29,3.9c-3.69,2.26-8.22,2.55-12.38,1.82a22.31,22.31,0,0,1-6.5-2.16,16.06,16.06,0,0,1-2-1.26c.19-.21.37-.42.56-.62-.24.19-.49.35-.72.5-.9.6-1.82,1.19-2.75,1.72l-.34.2a17.45,17.45,0,0,1-2.13,1.16,18.64,18.64,0,0,1-3.6,1.07,20,20,0,0,1-3.94.48,12.81,12.81,0,0,1-3.27-.43,11.92,11.92,0,0,1-4.34-1.65,8.1,8.1,0,0,1-2.13-1.91,8.75,8.75,0,0,0-1.14-1.62,8.31,8.31,0,0,0,.39.87,7.62,7.62,0,0,0,1,1.41,17.12,17.12,0,0,1-3.31,1.6,16.45,16.45,0,0,1-7.89,1.24,18.12,18.12,0,0,1-7.79-2.84,9.23,9.23,0,0,1-2-1.77h0a10.52,10.52,0,0,1-1.69-2.4,11.44,11.44,0,0,0,1,2.18,21.24,21.24,0,0,1-3,1,10.88,10.88,0,0,1-5.55.09,8,8,0,0,1-5.74-7.67,8.78,8.78,0,0,1,5.17-8,9.6,9.6,0,0,1,5.61-.39l.77.2a8.31,8.31,0,0,0-.13,1.13,7.59,7.59,0,0,0,.1,1.17,9.3,9.3,0,0,0,.49,1.55,9.36,9.36,0,0,1,.55-4.28,7.6,7.6,0,0,1,.31-.71,8.57,8.57,0,0,1,.48-1c1.34-2.46,3.78-3.71,6.16-4.92a12,12,0,0,1,8.17-1,8.83,8.83,0,0,1,1.43.46,4.64,4.64,0,0,0,.55,3.49,5.76,5.76,0,0,1,.58-4.51,7.81,7.81,0,0,1,1.79-2.19,3.68,3.68,0,0,1,.58-.39s0,0,0,0h0a2.33,2.33,0,0,1,.42-.2l0-.05a11.42,11.42,0,0,1,2.6-.66,6.37,6.37,0,0,1,1.9-.08l.43.07.12,0a4,4,0,0,0-1.39-.29,16.41,16.41,0,0,0-2.11.07,8.35,8.35,0,0,0-1.79.43,8.27,8.27,0,0,1-.81-3.58,9.11,9.11,0,0,1,.9-4.44,11.47,11.47,0,0,1,2.77-3.43,10.15,10.15,0,0,1,8.17-2.31c2.43.37,5.14,1.87,6.16,4.21a11.58,11.58,0,0,0-2.26.9,7.09,7.09,0,0,0-1.29,1,8.89,8.89,0,0,1,6.22-1.69,10.22,10.22,0,0,1,6.36,2.15,13.54,13.54,0,0,1,4.74,6.3,9.51,9.51,0,0,1,.41,2.28,10.7,10.7,0,0,1,.07,2.46c0,.21,0,.42,0,.63a14.83,14.83,0,0,0,.25-2l.18,0a14.36,14.36,0,0,1,4,.27,11.81,11.81,0,0,1,6.61,3.92,11.45,11.45,0,0,1,1.72,3.33,6.78,6.78,0,0,1-.05,4.36c-.06.17-.11.35-.18.52h0a12.41,12.41,0,0,0-2,.36,1.08,1.08,0,0,0-.69.36h0l.07,0a3.55,3.55,0,0,1,1.9-.34,10.6,10.6,0,0,1,1.26,0h0a9.69,9.69,0,0,1,2.44.54,7.14,7.14,0,0,1,4.18,4A6.42,6.42,0,0,1,710.05,384.23Z" fill="#fff"/><path d="M669.81,355.16a2.61,2.61,0,0,0,.14,1.21,6.74,6.74,0,0,1,2-4.17,8.3,8.3,0,0,1,1.37-1.09,9.22,9.22,0,0,1,.91-.67,11.58,11.58,0,0,1,2.26-.9,5.74,5.74,0,0,0-.93-1.46C673,348.4,670.16,351.52,669.81,355.16Z" fill="#bce8e5" opacity="0.3"/><path d="M659.3,359.09a8.35,8.35,0,0,1,1.79-.43,16.41,16.41,0,0,1,2.11-.07,4.25,4.25,0,0,1,1.12.2,13.07,13.07,0,0,1,3.69,1.08,14,14,0,0,1,3.65,2.23c-2.26-3.76-7.33-6.09-11.46-4.49a.27.27,0,0,1-.36-.11,11.65,11.65,0,0,1-.56-6.21,9.53,9.53,0,0,0-.79,4.22A8.27,8.27,0,0,0,659.3,359.09Z" fill="#bce8e5" opacity="0.3"/><path d="M710.39,378.93a7.14,7.14,0,0,0-4.18-4,9.69,9.69,0,0,0-2.44-.54h0a10.6,10.6,0,0,0-1.26,0,3.55,3.55,0,0,0-1.9.34l-.07,0h0a1.08,1.08,0,0,1,.69-.36,12.41,12.41,0,0,1,2-.36h0a5.44,5.44,0,0,0,.19-.52,6.78,6.78,0,0,0,.05-4.36,10.22,10.22,0,0,0-7.15-6.93c2.26,1.57,4.09,3.62,4.05,6.65a13.5,13.5,0,0,1-1.83,6.73l1.29-.14c1.84-.14,3.78-.36,5.52.38a2.54,2.54,0,0,1,1.4,3.35,7.6,7.6,0,0,1-4.34,4.44c-4,1.66-8.58,1.27-12.55-.2a15.29,15.29,0,0,1-7-4.82,11.76,11.76,0,0,1-10.73,6.58c-5.5-.1-11.57-3.77-13.15-9.22a12.1,12.1,0,0,0,1.08,5,.27.27,0,0,1-.1.36c-4,2.35-12.24,4.68-16.88,2.52-2.53-1.17-3.65-3.5-4.6-6.33a14,14,0,0,0,.73,6.18c.05.18-.61.27-.77.27-3.32.27-7.33-.24-9.66-2.9a7.24,7.24,0,0,1-1.78-4.79,7.81,7.81,0,0,0-.49,2.89,8,8,0,0,0,5.74,7.67,10.88,10.88,0,0,0,5.55-.09,21.24,21.24,0,0,0,3-1,11.44,11.44,0,0,1-1-2.18,10.52,10.52,0,0,0,1.69,2.4h0a9.23,9.23,0,0,0,2,1.77,18.12,18.12,0,0,0,7.79,2.84,16.45,16.45,0,0,0,7.89-1.24,17.12,17.12,0,0,0,3.31-1.6,7.62,7.62,0,0,1-1-1.41,8.31,8.31,0,0,1-.39-.87,8.75,8.75,0,0,1,1.14,1.62,8.1,8.1,0,0,0,2.13,1.91,11.92,11.92,0,0,0,4.34,1.65,12.81,12.81,0,0,0,3.27.43,20,20,0,0,0,3.94-.48,18.64,18.64,0,0,0,3.6-1.07,17.45,17.45,0,0,0,2.13-1.16l.34-.2c.93-.53,1.85-1.12,2.75-1.72.23-.15.48-.31.72-.5-.19.2-.37.41-.56.62a16.06,16.06,0,0,0,2,1.26,22.31,22.31,0,0,0,6.5,2.16c4.16.73,8.69.44,12.38-1.82a11.43,11.43,0,0,0,4.29-3.9A6.42,6.42,0,0,0,710.39,378.93Z" fill="#bce8e5" opacity="0.5"/><path d="M659.08,359.76l-.07,0,.08,0Z" fill="#fff"/><path d="M828.76,269.84a18.77,18.77,0,0,0-5.16-.69c.06-.15.13-.3.2-.44a14.79,14.79,0,0,0,.69-8.86,23.7,23.7,0,0,0-4-7.94c-3.45-4.36-8.79-6.9-14.16-7.86a28.76,28.76,0,0,0-8.54-.06,27.46,27.46,0,0,0-.58-6.46c-1.18-5.63-5.4-10.66-9.88-14.08-4.72-3.6-10.66-4.34-16.4-3.32-.58.11-1.17.26-1.76.41-1.86-4.69-7-7.6-11.73-8.76a21.25,21.25,0,0,0-9.81.07,20.81,20.81,0,0,0-8,4.16,23.35,23.35,0,0,0-5.75,7.12c-1.61,2.88-2,6.31-2,9.54a14.55,14.55,0,0,0,2.07,7.29,9.49,9.49,0,0,0-1.95,1.22,12.93,12.93,0,0,0-4.21,6,17.39,17.39,0,0,0-2.25-.93,26.13,26.13,0,0,0-9-1.25,21.84,21.84,0,0,0-8.57,2.27c-5.43,2.49-10.66,5.41-13.64,10.85a17.38,17.38,0,0,0-1.64,4.66l-1.49-.41a19.72,19.72,0,0,0-11.43.56c-6.64,2.35-11.19,9.51-11.82,16.33-.75,7.91,4.74,15.11,12.09,17.35a20.71,20.71,0,0,0,11.75-.29,30.61,30.61,0,0,0,6.84-2.91,23.06,23.06,0,0,0,3.73,4.16c4.54,4,10.53,5.85,16.4,6.6a23.47,23.47,0,0,0,8.27-.5c1.37-.31,2.75-.46,4.13-.85a35.94,35.94,0,0,0,4.21-1.64,25.68,25.68,0,0,0,6.49-3.83,19.34,19.34,0,0,0,2.15,2A24.92,24.92,0,0,0,758.48,305a37.4,37.4,0,0,0,16.08-2.8,30.16,30.16,0,0,0,9.73-6.65,37.37,37.37,0,0,0,15.08,7.09A46,46,0,0,0,812.12,304a35.49,35.49,0,0,0,12.14-2.6c6.54-2.69,13.76-8,15.07-15.39A14.32,14.32,0,0,0,828.76,269.84Z" fill="#fff"/><path d="M835.76,289.52c-1.78,3.35-5.37,5.82-8.53,7.76-7.33,4.48-16.33,5.06-24.61,3.59a44,44,0,0,1-12.9-4.27,30.78,30.78,0,0,1-4-2.52c.37-.42.74-.82,1.11-1.22-.47.36-1,.68-1.42,1-1.79,1.19-3.62,2.37-5.47,3.43-.22.11-.45.24-.67.37A34,34,0,0,1,775,300a36.85,36.85,0,0,1-7.16,2.12,38.72,38.72,0,0,1-7.82,1,25.21,25.21,0,0,1-6.5-.86,23.74,23.74,0,0,1-8.63-3.28,16.29,16.29,0,0,1-4.23-3.79,17.79,17.79,0,0,0-2.27-3.22c.23.57.48,1.16.78,1.74a15.49,15.49,0,0,0,1.91,2.79,33.49,33.49,0,0,1-6.58,3.17,32.49,32.49,0,0,1-15.68,2.46,35.73,35.73,0,0,1-15.48-5.63,19,19,0,0,1-4-3.51h0a20.54,20.54,0,0,1-3.34-4.78,22.45,22.45,0,0,0,2,4.35,44.74,44.74,0,0,1-6,2,21.45,21.45,0,0,1-11,.17,15.85,15.85,0,0,1-11.41-15.25,17.44,17.44,0,0,1,10.27-15.88,18.91,18.91,0,0,1,11.16-.78c.5.12,1,.26,1.52.41a17.51,17.51,0,0,0-.26,2.22,15.29,15.29,0,0,0,.2,2.34,18.54,18.54,0,0,0,1,3.07,18.59,18.59,0,0,1,1.09-8.5,13.94,13.94,0,0,1,.62-1.41,18.61,18.61,0,0,1,1-2c2.65-4.88,7.5-7.37,12.24-9.77a23.74,23.74,0,0,1,16.23-2,18.35,18.35,0,0,1,2.86.92,9.19,9.19,0,0,0,1.08,7,11.38,11.38,0,0,1,1.15-9,15.29,15.29,0,0,1,3.56-4.35,6,6,0,0,1,1.15-.78s0,.05,0,.06l.06,0a6.65,6.65,0,0,1,.85-.41l0-.08a22.06,22.06,0,0,1,5.17-1.31,12.6,12.6,0,0,1,3.78-.17c.27,0,.56.09.84.15a1,1,0,0,0,.25,0,8.56,8.56,0,0,0-2.77-.57,30.52,30.52,0,0,0-4.18.15,15.8,15.8,0,0,0-3.56.85,16.37,16.37,0,0,1-1.61-7.11,18.31,18.31,0,0,1,1.78-8.83,22.81,22.81,0,0,1,5.5-6.82,20.19,20.19,0,0,1,16.25-4.58c4.83.73,10.21,3.72,12.24,8.35a23.15,23.15,0,0,0-4.48,1.79,13.39,13.39,0,0,0-2.57,2.08,17.71,17.71,0,0,1,12.36-3.37A20.27,20.27,0,0,1,787,225.36c4.05,3.21,7.89,7.5,9.42,12.5a19.87,19.87,0,0,1,.81,4.54,22.27,22.27,0,0,1,.14,4.89c0,.42-.06.83-.08,1.24a27.54,27.54,0,0,0,.49-3.94l.35,0a27.7,27.7,0,0,1,7.92.54,23.42,23.42,0,0,1,13.14,7.78,22.81,22.81,0,0,1,3.42,6.63,13.42,13.42,0,0,1-.11,8.65c-.11.34-.22.7-.36,1h-.07a24.39,24.39,0,0,0-4,.72,2.25,2.25,0,0,0-1.37.71h.1a.46.46,0,0,1,.14-.05,7.19,7.19,0,0,1,3.77-.67,21,21,0,0,1,2.51.05h0a17.94,17.94,0,0,1,4.84,1.07,14.16,14.16,0,0,1,8.31,8A12.85,12.85,0,0,1,835.76,289.52Z" fill="#fff"/><path d="M755.79,231.74a5.3,5.3,0,0,0,.28,2.41c0-2.94,2-6.34,4-8.29a16.14,16.14,0,0,1,2.75-2.16,16.58,16.58,0,0,1,1.81-1.34,23.15,23.15,0,0,1,4.48-1.79,11.23,11.23,0,0,0-1.86-2.89C762.15,218.31,756.48,224.51,755.79,231.74Z" fill="#bce8e5" opacity="0.3"/><path d="M734.91,239.56a15.8,15.8,0,0,1,3.56-.85,30.52,30.52,0,0,1,4.18-.15,8.36,8.36,0,0,1,2.24.4,26.37,26.37,0,0,1,7.32,2.14,28,28,0,0,1,7.26,4.43c-4.5-7.47-14.57-12.1-22.76-8.91a.54.54,0,0,1-.72-.22,23.25,23.25,0,0,1-1.12-12.35,19,19,0,0,0-1.57,8.4A16.37,16.37,0,0,0,734.91,239.56Z" fill="#bce8e5" opacity="0.3"/><path d="M836.44,279a14.16,14.16,0,0,0-8.31-8,17.94,17.94,0,0,0-4.84-1.07h0a21,21,0,0,0-2.51-.05,7.19,7.19,0,0,0-3.77.67.46.46,0,0,0-.14.05h-.1a2.25,2.25,0,0,1,1.37-.71,24.39,24.39,0,0,1,4-.72h0a8.71,8.71,0,0,0,.38-1,13.42,13.42,0,0,0,.11-8.65,20.32,20.32,0,0,0-14.22-13.79c4.5,3.13,8.13,7.19,8.05,13.22a26.81,26.81,0,0,1-3.63,13.36c.85-.1,1.7-.19,2.56-.26,3.65-.29,7.52-.71,11,.75a5.06,5.06,0,0,1,2.77,6.66,15.17,15.17,0,0,1-8.63,8.83c-7.91,3.29-17,2.52-24.93-.4-5.33-2-10.56-5.08-13.94-9.58-4.15,7.8-11.71,13.26-21.31,13.08-10.94-.21-23-7.5-26.14-18.33a23.92,23.92,0,0,0,2.16,10,.54.54,0,0,1-.21.71c-8,4.67-24.33,9.31-33.55,5-5-2.33-7.24-6.95-9.14-12.58a28,28,0,0,0,1.45,12.28c.11.36-1.21.53-1.52.54-6.61.54-14.56-.49-19.21-5.76a14.45,14.45,0,0,1-3.54-9.51,16.2,16.2,0,0,0,10.45,21,21.45,21.45,0,0,0,11-.17,44.74,44.74,0,0,0,6-2,22.45,22.45,0,0,1-2-4.35,20.54,20.54,0,0,0,3.34,4.78h0a18.67,18.67,0,0,0,4,3.51,35.73,35.73,0,0,0,15.48,5.63,32.49,32.49,0,0,0,15.68-2.46,33.49,33.49,0,0,0,6.58-3.17,15.49,15.49,0,0,1-1.91-2.79c-.3-.58-.55-1.17-.78-1.74a17.79,17.79,0,0,1,2.27,3.22,16.29,16.29,0,0,0,4.23,3.79,23.74,23.74,0,0,0,8.63,3.28,25.21,25.21,0,0,0,6.5.86,38.72,38.72,0,0,0,7.82-1A36.85,36.85,0,0,0,775,300a34,34,0,0,0,4.24-2.32c.22-.13.45-.26.67-.37,1.85-1.06,3.68-2.24,5.47-3.43.46-.31,1-.63,1.42-1-.37.4-.74.8-1.11,1.22a30.78,30.78,0,0,0,4,2.52,44,44,0,0,0,12.9,4.27c8.28,1.47,17.28.89,24.61-3.59,3.16-1.94,6.75-4.41,8.53-7.76A12.85,12.85,0,0,0,836.44,279Z" fill="#cce9f7"/><path d="M734.47,240.89l-.13.06.15,0Z" fill="#fff"/><path d="M209.91,314.12a14.19,14.19,0,0,0-4-.54l.16-.35a11.46,11.46,0,0,0,.53-6.87,18.48,18.48,0,0,0-3.08-6.16,17.91,17.91,0,0,0-11-6.1,22.26,22.26,0,0,0-6.62,0,21.67,21.67,0,0,0-.45-5c-.92-4.36-4.2-8.26-7.66-10.92-3.66-2.8-8.29-3.37-12.72-2.58-.47.09-.92.2-1.38.32-1.45-3.64-5.43-5.9-9.1-6.79a15.66,15.66,0,0,0-13.85,3.28,18.09,18.09,0,0,0-4.46,5.52,15.48,15.48,0,0,0-1.57,7.4,11,11,0,0,0,1.61,5.65,8,8,0,0,0-1.52.95,10.08,10.08,0,0,0-3.26,4.64,14.79,14.79,0,0,0-1.74-.72,20.47,20.47,0,0,0-7-1,17,17,0,0,0-6.65,1.77c-4.22,1.93-8.27,4.19-10.58,8.42a13.05,13.05,0,0,0-1.28,3.62l-1.15-.32a15.36,15.36,0,0,0-8.88.43c-5.15,1.81-8.68,7.38-9.16,12.68a13.13,13.13,0,0,0,9.39,13.45,15.93,15.93,0,0,0,9.1-.22,24.25,24.25,0,0,0,5.32-2.26,17.39,17.39,0,0,0,2.88,3.23c3.53,3.07,8.18,4.54,12.73,5.11a18.24,18.24,0,0,0,6.42-.38c1.06-.24,2.14-.35,3.21-.67a25.81,25.81,0,0,0,3.26-1.26,19.53,19.53,0,0,0,5-3,17.42,17.42,0,0,0,1.68,1.55,19.49,19.49,0,0,0,11.23,4.39,28.9,28.9,0,0,0,12.48-2.18,23.19,23.19,0,0,0,7.54-5.16,29.18,29.18,0,0,0,11.7,5.52,36.15,36.15,0,0,0,9.88,1,27.32,27.32,0,0,0,9.44-2c5.06-2.09,10.66-6.23,11.68-11.95A11.08,11.08,0,0,0,209.91,314.12Z" fill="#fff"/><path d="M215.35,329.37c-1.39,2.61-4.17,4.53-6.61,6-5.7,3.48-12.69,3.93-19.11,2.78a34.36,34.36,0,0,1-10-3.31,27.06,27.06,0,0,1-3.14-1.95l.86-1c-.36.29-.75.54-1.09.78-1.39.91-2.81,1.82-4.25,2.65-.17.1-.35.19-.52.3a26.6,26.6,0,0,1-3.28,1.78,27.94,27.94,0,0,1-5.56,1.65,30.1,30.1,0,0,1-6.07.76,20,20,0,0,1-5.06-.68,18.33,18.33,0,0,1-6.68-2.54,12.55,12.55,0,0,1-3.27-2.93,14.12,14.12,0,0,0-1.78-2.52,11.7,11.7,0,0,0,.62,1.36,11.2,11.2,0,0,0,1.47,2.17,25.76,25.76,0,0,1-5.1,2.46,25.33,25.33,0,0,1-12.18,1.91,27.88,27.88,0,0,1-12-4.37,14.59,14.59,0,0,1-3.1-2.73h0a16.54,16.54,0,0,1-2.59-3.72,18.29,18.29,0,0,0,1.58,3.38,33.3,33.3,0,0,1-4.63,1.58,16.6,16.6,0,0,1-8.54.12,12.27,12.27,0,0,1-8.86-11.82,13.55,13.55,0,0,1,8-12.33,14.76,14.76,0,0,1,8.67-.6c.39.09.8.21,1.18.32a16,16,0,0,0-.2,1.71,12.66,12.66,0,0,0,.15,1.83,16.44,16.44,0,0,0,.75,2.38,14.57,14.57,0,0,1,.86-6.61,9.51,9.51,0,0,1,.47-1.08,16.09,16.09,0,0,1,.75-1.57c2-3.79,5.82-5.73,9.49-7.59a18.56,18.56,0,0,1,12.6-1.54,16.41,16.41,0,0,1,2.22.71,7.16,7.16,0,0,0,.84,5.41,8.84,8.84,0,0,1,.89-7,11.77,11.77,0,0,1,2.76-3.37,5.05,5.05,0,0,1,.89-.62s0,0,0,.06l0,0c.21-.12.44-.22.66-.32,0,0,0,0,0-.07a18.18,18.18,0,0,1,4-1,10.28,10.28,0,0,1,2.93-.11c.22,0,.43.07.66.11a.58.58,0,0,1,.18,0,6.55,6.55,0,0,0-2.14-.45,24.87,24.87,0,0,0-3.24.12,13.62,13.62,0,0,0-2.77.65,12.66,12.66,0,0,1-1.24-5.51,14.13,14.13,0,0,1,1.38-6.84,17.39,17.39,0,0,1,4.27-5.3,15.68,15.68,0,0,1,12.6-3.56c3.75.57,7.93,2.88,9.49,6.49a17.84,17.84,0,0,0-3.46,1.38,10.31,10.31,0,0,0-2,1.61,13.77,13.77,0,0,1,9.59-2.61,15.66,15.66,0,0,1,9.8,3.33c3.16,2.49,6.13,5.81,7.32,9.7a15.3,15.3,0,0,1,.62,3.52,16.72,16.72,0,0,1,.11,3.8l-.06,1a21,21,0,0,0,.38-3.06,2.4,2.4,0,0,0,.28,0,21,21,0,0,1,6.13.42,18.21,18.21,0,0,1,10.21,6,18,18,0,0,1,2.65,5.15,10.49,10.49,0,0,1-.09,6.71q-.12.42-.27.81h-.05a16.59,16.59,0,0,0-3.07.55,1.71,1.71,0,0,0-1.08.55h.08s.07,0,.11,0a5.48,5.48,0,0,1,2.93-.52,15.73,15.73,0,0,1,1.94,0h0a14.22,14.22,0,0,1,3.76.83,11,11,0,0,1,6.45,6.2A9.94,9.94,0,0,1,215.35,329.37Z" fill="#fff"/><path d="M153.3,284.55a4.44,4.44,0,0,0,.2,1.87,10.49,10.49,0,0,1,3.09-6.43,13.11,13.11,0,0,1,2.13-1.68,11.63,11.63,0,0,1,1.41-1,17.84,17.84,0,0,1,3.46-1.38,8,8,0,0,0-1.44-2.24C158.23,274.12,153.84,278.94,153.3,284.55Z" fill="#bce8e5" opacity="0.3"/><path d="M137.09,290.61a13.62,13.62,0,0,1,2.77-.65,24.87,24.87,0,0,1,3.24-.12,6.36,6.36,0,0,1,1.74.31,20.63,20.63,0,0,1,5.68,1.66,22.27,22.27,0,0,1,5.63,3.44c-3.5-5.79-11.31-9.38-17.66-6.92a.4.4,0,0,1-.56-.17,17.91,17.91,0,0,1-.86-9.57,14.67,14.67,0,0,0-1.22,6.51A12.66,12.66,0,0,0,137.09,290.61Z" fill="#bce8e5" opacity="0.3"/><path d="M215.87,321.21a11,11,0,0,0-6.45-6.2,14.22,14.22,0,0,0-3.76-.83h0a15.73,15.73,0,0,0-1.94,0,5.48,5.48,0,0,0-2.93.52s-.07,0-.11,0h-.08a1.71,1.71,0,0,1,1.08-.55,16.59,16.59,0,0,1,3.07-.55h0a5.57,5.57,0,0,0,.29-.81,10.49,10.49,0,0,0,.09-6.71,15.7,15.7,0,0,0-11-10.69c3.48,2.43,6.29,5.57,6.23,10.25A20.88,20.88,0,0,1,197.56,316c.65-.08,1.31-.15,2-.2,2.83-.22,5.84-.56,8.52.57a3.94,3.94,0,0,1,2.15,5.17,11.78,11.78,0,0,1-6.7,6.85c-6.12,2.56-13.22,2-19.34-.31-4.14-1.52-8.19-3.93-10.82-7.43-3.22,6.06-9.09,10.29-16.54,10.15-8.48-.16-17.83-5.83-20.28-14.22a18.63,18.63,0,0,0,1.68,7.74.43.43,0,0,1-.16.56c-6.22,3.61-18.88,7.21-26,3.88-3.91-1.81-5.62-5.39-7.1-9.75a21.8,21.8,0,0,0,1.13,9.52c.08.28-.93.4-1.18.42-5.14.4-11.3-.39-14.91-4.48a11.21,11.21,0,0,1-2.74-7.37,12.54,12.54,0,0,0,8.11,16.26,16.6,16.6,0,0,0,8.54-.12,33.3,33.3,0,0,0,4.63-1.58,18.29,18.29,0,0,1-1.58-3.38,16.54,16.54,0,0,0,2.59,3.72h0a14.53,14.53,0,0,0,3.09,2.72,27.88,27.88,0,0,0,12,4.37,25.33,25.33,0,0,0,12.18-1.91,25.76,25.76,0,0,0,5.1-2.46,11.2,11.2,0,0,1-1.47-2.17,11.7,11.7,0,0,1-.62-1.36,14.12,14.12,0,0,1,1.78,2.52,12.55,12.55,0,0,0,3.27,2.93,18.33,18.33,0,0,0,6.68,2.54,20,20,0,0,0,5.06.68,30.1,30.1,0,0,0,6.07-.76,27.94,27.94,0,0,0,5.56-1.65,26.6,26.6,0,0,0,3.28-1.78c.17-.11.35-.2.52-.3,1.44-.83,2.86-1.74,4.25-2.65.34-.24.73-.49,1.09-.78l-.86,1a27.06,27.06,0,0,0,3.14,1.95,34.36,34.36,0,0,0,10,3.31c6.42,1.15,13.41.7,19.11-2.78,2.44-1.51,5.22-3.43,6.61-6A9.94,9.94,0,0,0,215.87,321.21Z" fill="#cce9f7"/><path d="M136.75,291.64l-.1.07.12,0Z" fill="#fff"/><path d="M439.93,471.09c-2.52-6.71-8.1-11.29-14.36-14.34a27.53,27.53,0,0,0-6.13-2.13c.24-.59.45-1.18.64-1.75a40.31,40.31,0,0,0,1.72-13.32,31.3,31.3,0,0,0-3-12.95c-1.89-3.81-5-6.91-8.12-9.73-5.94-5.38-14.69-6.94-22.42-6.12a35.33,35.33,0,0,0-8.26,1.91,24.69,24.69,0,0,0-.31-3.09,31.4,31.4,0,0,0-12.34-19.87,28.24,28.24,0,0,0-11.21-5.07c-4.59-.9-9.41-.29-13.92.77-7.57,1.78-14.16,6.88-19.07,12.75a51.7,51.7,0,0,0-10.29,20.94,50.08,50.08,0,0,0-1.13,15.05c.17,2.66.49,5.34.81,8l0,.52a19.25,19.25,0,0,0-2.95-1.78,11,11,0,0,0-6.44-.88l-1.27.2a18.35,18.35,0,0,0-1.36-6.55c-3.43-8.13-13-8.57-20.53-6.83a20.06,20.06,0,0,0-3.21-5.42,21.1,21.1,0,0,0-9.68-6.63c-3.87-1.21-8.5-.05-12.2,1.25l-.61.24c-.84-12.86-8.48-25.46-19.45-31.92-13.53-8-31.49-6.21-45.6-.76S161.78,398,153.75,411a39.84,39.84,0,0,0-5.7,22c0,.23,0,.46,0,.69a28.35,28.35,0,0,0-11.35,1.33c-.58.19-1.15.4-1.72.63a19.37,19.37,0,0,0-2.15-2.83c-2.85-3-7.65-4.58-11.53-5.6-8.86-2.32-18.36-.09-26.69,3.24-16.43,6.55-29.75,19.89-38.57,35C48.31,478.71,43.56,494.47,45,510c1.17,12.76,8,29.69,21.65,32.65a4,4,0,0,0-.4.32,10.58,10.58,0,0,0-1.68,1.37c-1.69,2.37,4.49,2.45,5.66,2.46,5.08,0,10.28-.9,15.3-1.66,5.34-.8,10.65-1.67,16-2.34,21.75-2.71,43.43-6.06,65.23-8.32,21.45-2.23,43-3.6,64.5-4.93,21.78-1.34,43.56-2.69,65.33-4.24,8.58-.62,17.16-1.31,25.76-1.58,8.41-.26,16.83-.26,25.24-.26s16.89,0,25.33,0c2.49,0,5,.17,7.55.39.71.5,1.42,1,2.11,1.52,2.12,1.59,3.68,3.65,5.53,5.54a22.32,22.32,0,0,0,2.19,2.05,7.14,7.14,0,0,1,1.37,2.69c.47,1.36,2.5,1.81,3.69,2.11,3.93,1,7.26-.77,10.71-2.46a49.58,49.58,0,0,0,10.85-7.54,113.75,113.75,0,0,0,9.83-9.81,63.5,63.5,0,0,0,13.71-23.82A36.41,36.41,0,0,0,439.93,471.09Z" fill="#fff"/><path d="M70.34,547.1H70.2c-2,0-5.48-.22-6.15-1.53a1.32,1.32,0,0,1,.23-1.45,4.17,4.17,0,0,1,1.11-1c.18-.13.35-.24.5-.36-6-1.52-11.17-5.88-15.06-12.65A51.16,51.16,0,0,1,44.64,510c-1.3-14.31,2.66-30.22,11.15-44.77,9.66-16.56,23.41-29,38.73-35.16,7.11-2.84,13.35-4.22,19.1-4.22a31,31,0,0,1,7.81,1c3.57.94,8.67,2.55,11.68,5.69a19.7,19.7,0,0,1,2,2.65c.55-.21,1-.39,1.49-.53a28.71,28.71,0,0,1,11.09-1.38c0-.11,0-.21,0-.32a40.15,40.15,0,0,1,5.75-22.14c9.24-15,24.5-23.22,35.68-27.53a67.42,67.42,0,0,1,24-4.67c8.36,0,15.72,1.83,21.88,5.46,10.94,6.42,18.59,18.84,19.59,31.72l.2-.08c5.28-1.85,9.26-2.23,12.4-1.25a21.43,21.43,0,0,1,9.84,6.74,20.52,20.52,0,0,1,3.17,5.25,30.44,30.44,0,0,1,6.69-.78c4.85,0,11.2,1.37,13.93,7.86a18.77,18.77,0,0,1,1.38,6.29l.9-.14a11.3,11.3,0,0,1,6.63.91,20.37,20.37,0,0,1,2.42,1.39c-.3-2.55-.62-5.2-.78-7.8A50.77,50.77,0,0,1,312.54,419a51.82,51.82,0,0,1,10.36-21.07c5.6-6.7,12.44-11.26,19.24-12.86a40.43,40.43,0,0,1,9.28-1.22,24.5,24.5,0,0,1,4.79.45,28.33,28.33,0,0,1,11.34,5.12A31.68,31.68,0,0,1,380,409.51c.14.86.23,1.76.29,2.69a35.75,35.75,0,0,1,7.91-1.78,36.58,36.58,0,0,1,3.91-.21c7.53,0,14.2,2.28,18.78,6.41,3.11,2.81,6.25,5.95,8.19,9.84a32.06,32.06,0,0,1,3,13.08A41,41,0,0,1,420.39,453c-.17.51-.33,1-.5,1.41a28.19,28.19,0,0,1,5.83,2.07c7.36,3.6,12.25,8.48,14.52,14.53a36.83,36.83,0,0,1,.52,23.22A63.2,63.2,0,0,1,427,518.15a113,113,0,0,1-9.86,9.83,48.81,48.81,0,0,1-10.93,7.6l-.49.24c-2.55,1.25-5.18,2.54-8.05,2.54h0a9.66,9.66,0,0,1-2.39-.3l-.18,0c-1.29-.33-3.23-.82-3.74-2.28a7.34,7.34,0,0,0-1.26-2.55,23.69,23.69,0,0,1-2.23-2.07c-.58-.59-1.13-1.2-1.67-1.79a26.23,26.23,0,0,0-3.82-3.71c-.62-.47-1.25-.92-1.88-1.37l-.14-.1c-2.22-.19-4.83-.39-7.44-.39H347.57c-8.23,0-16.74,0-25.23.27-7.24.23-14.57.77-21.67,1.28l-4.08.3c-21.39,1.52-42.24,2.82-65.33,4.24-22.83,1.41-43.44,2.74-64.48,4.93-13.78,1.43-27.73,3.32-41.23,5.15-7.86,1.07-16,2.17-24,3.17-3.93.49-7.9,1.1-11.75,1.7l-4.25.64-2,.3A87.91,87.91,0,0,1,70.34,547.1Zm43.28-120.59c-5.66,0-11.83,1.37-18.85,4.17-15.19,6.06-28.83,18.45-38.41,34.88C47.94,480,44,495.76,45.3,509.94c1.24,13.62,8.46,29.55,21.39,32.36l.67.14-.69.56a2.11,2.11,0,0,0-.23.19c-.2.17-.44.34-.67.5a3.52,3.52,0,0,0-1,.81c-.34.47-.23.7-.19.77.36.7,2.55,1.16,5.57,1.17h.14a88.29,88.29,0,0,0,13.15-1.35l2-.3,4.25-.65c3.85-.59,7.83-1.21,11.77-1.7,8-1,16.13-2.1,24-3.16,13.5-1.83,27.47-3.73,41.25-5.16,21-2.18,41.67-3.52,64.51-4.93,23.09-1.42,43.93-2.71,65.32-4.24l4.08-.3c7.1-.52,14.45-1,21.7-1.28,8.5-.27,17-.27,25.25-.27H372.9c2.67,0,5.33.21,7.58.4h.09l.29.2c.64.46,1.28.91,1.9,1.38a28.11,28.11,0,0,1,3.91,3.79c.53.59,1.08,1.2,1.65,1.78a24.81,24.81,0,0,0,2.16,2,6.78,6.78,0,0,1,1.47,2.8c.41,1.16,2.14,1.6,3.29,1.89l.18,0a9,9,0,0,0,2.23.28c2.72,0,5.16-1.2,7.76-2.47l.49-.24a48.5,48.5,0,0,0,10.78-7.5,113.21,113.21,0,0,0,9.81-9.78A62.89,62.89,0,0,0,440.13,494a36.26,36.26,0,0,0-.51-22.81c-2.21-5.88-7-10.64-14.19-14.16a27.31,27.31,0,0,0-6.06-2.1l-.38-.09.15-.36c.21-.53.41-1.09.62-1.73a40.38,40.38,0,0,0,1.72-13.21,31.27,31.27,0,0,0-3-12.81c-1.88-3.79-5-6.87-8-9.64-4.45-4-11-6.24-18.33-6.24a35.43,35.43,0,0,0-3.84.21,35,35,0,0,0-8.18,1.89l-.42.15,0-.45a26.7,26.7,0,0,0-.3-3.05A31.09,31.09,0,0,0,367.15,390a27.61,27.61,0,0,0-11.07-5,23.94,23.94,0,0,0-4.66-.44,40.23,40.23,0,0,0-9.13,1.2c-6.67,1.57-13.37,6.06-18.88,12.64a51.17,51.17,0,0,0-10.22,20.81,49.72,49.72,0,0,0-1.13,14.94c.17,2.61.48,5.25.78,7.81l0,.17c0,.17,0,.36,0,.54l0,.7-.56-.42a19.47,19.47,0,0,0-2.89-1.74,10.62,10.62,0,0,0-6.25-.85l-1.26.2-.37.06,0-.38a18.2,18.2,0,0,0-1.34-6.43c-2.59-6.16-8.67-7.46-13.32-7.46a30,30,0,0,0-6.82.83l-.27.06-.11-.26a19.91,19.91,0,0,0-3.17-5.34,20.67,20.67,0,0,0-9.53-6.53c-3-.94-6.85-.55-12,1.25l-.36.14-.66.26,0-.45c-.84-12.83-8.41-25.26-19.29-31.65-6.06-3.57-13.31-5.37-21.55-5.37a67,67,0,0,0-23.77,4.62c-11.07,4.28-26.2,12.48-35.35,27.26a39.58,39.58,0,0,0-5.65,21.78c0,.15,0,.3,0,.45l0,.62-.38,0a28,28,0,0,0-11.22,1.31c-.51.17-1.05.37-1.7.63l-.25.09-.15-.22a18.33,18.33,0,0,0-2.11-2.78c-2.89-3-7.87-4.59-11.37-5.51A30.06,30.06,0,0,0,113.62,426.51Z" fill="#cbebfb"/><path d="M439.93,471.09c-2.52-6.71-8.1-11.29-14.36-14.34a27.53,27.53,0,0,0-6.13-2.13c.24-.59.45-1.18.64-1.75a40.31,40.31,0,0,0,1.72-13.32,31.3,31.3,0,0,0-3-12.95,22.49,22.49,0,0,0-1.51-2.55,22,22,0,0,1-4.12,4.67,36.7,36.7,0,0,1-16.29,8.51c-6.8,1.48-14.84,1.07-20.45-3.53a16.48,16.48,0,0,1-2.52-2.56c-5.49,8.45-16.78,12.22-26.59,12.43-6.55.14-13.18-1.2-18.67-4.93-5.88-4-10.54-10.11-11.88-17.19-2.89-15.39,10.06-29.22,23.49-34.5a39.87,39.87,0,0,1,12.65-2.71,38.42,38.42,0,0,0-10.69,1.16c-7.57,1.78-14.16,6.88-19.07,12.75a51.7,51.7,0,0,0-10.29,20.94,50.08,50.08,0,0,0-1.13,15.05c.17,2.66.49,5.34.81,8l0,.52-.42-.31c2.17,7.89-.39,17.6-7.81,21.05-6,2.8-14.47,2.33-19-3a13.21,13.21,0,0,1-3-10c-9,4.19-21,2.49-26.65-6.4-5-7.84-6.17-21,.14-28.29-.3.09-.59.19-.88.3l-.61.24c-.84-12.86-8.48-25.46-19.45-31.92a34.48,34.48,0,0,0-3.93-2,58.79,58.79,0,0,1,16.12,29.34c1.32,6.64.75,13.39-.35,20-1.21,7.37-3.29,14.88-7.38,21.22a31.29,31.29,0,0,1-16.46,12.91,36.9,36.9,0,0,1-21.77.53A33.61,33.61,0,0,1,183,454a30,30,0,0,1-3.36-6.32,69.21,69.21,0,0,1-19.51,24.69,81.82,81.82,0,0,1-38.22,17.26c-5.67.94-11.89,1.4-17.39-.61a16.73,16.73,0,0,1-7.1-4.9,51.21,51.21,0,0,1-10.76,16C81,505.81,72.76,511.8,64.21,510.12c-6-1.18-10.63-6.09-13.3-11.43a29.55,29.55,0,0,1-2.52-16.22A69,69,0,0,0,45,510c1.17,12.76,8,29.69,21.65,32.65a4,4,0,0,0-.4.32,10.58,10.58,0,0,0-1.68,1.37c-1.69,2.37,4.49,2.45,5.66,2.46,5.08,0,10.28-.9,15.3-1.66,5.34-.8,10.65-1.67,16-2.34,21.75-2.71,43.43-6.06,65.23-8.32,21.45-2.23,43-3.6,64.5-4.93,21.78-1.34,43.56-2.69,65.33-4.24,8.58-.62,17.16-1.31,25.76-1.58,8.41-.26,16.83-.26,25.24-.26s16.89,0,25.33,0c2.49,0,5,.17,7.55.39.71.5,1.42,1,2.11,1.52,2.12,1.59,3.68,3.65,5.53,5.54a22.32,22.32,0,0,0,2.19,2.05,7.14,7.14,0,0,1,1.37,2.69c.47,1.36,2.5,1.81,3.69,2.11,3.93,1,7.26-.77,10.71-2.46a49.58,49.58,0,0,0,10.85-7.54,113.75,113.75,0,0,0,9.83-9.81,63.5,63.5,0,0,0,13.71-23.82A36.41,36.41,0,0,0,439.93,471.09Z" fill="#cce9f7"/><path d="M417.09,492.67c3.4,9.5,9.32,17.94,16.4,25.07a125.47,125.47,0,0,0,11.31,10,53.53,53.53,0,0,0,12.27,7.53c3.85,1.62,7.59,3.35,11.8,2,1.28-.41,3.46-1,3.88-2.53a7.7,7.7,0,0,1,1.33-3,26.49,26.49,0,0,0,2.26-2.36c1.89-2.17,3.46-4.51,5.66-6.37.72-.61,1.46-1.2,2.2-1.79,2.73-.4,5.48-.74,8.19-.9L520,518.79c9.16-.52,18.31-1,27.48-1.28,9.38-.24,18.75,0,28.13.11,23.78.34,47.55.45,71.34.55,23.49.1,47,.26,70.47,1.35,23.86,1.1,47.66,3.39,71.49,5,5.87.39,11.71,1,17.57,1.55,5.5.51,11.21,1.18,16.74.84,1.28-.07,8-.55,6-3a11.88,11.88,0,0,0-1.9-1.39c-.15-.12-.3-.21-.46-.33,14.67-4.06,21.05-22.91,21.52-36.86.57-17-5.58-33.8-14.86-47.81-10.54-15.9-25.86-29.58-44.14-35.7-9.27-3.09-19.75-4.93-29.25-1.85-4.15,1.35-9.27,3.39-12.19,6.81a21,21,0,0,0-2.16,3.21c-.63-.21-1.27-.41-1.91-.58a30.78,30.78,0,0,0-12.43-.73c0-.26,0-.51,0-.76a43.34,43.34,0,0,0-7.56-23.53c-9.54-13.62-24.75-22.59-40.35-27.6s-35.34-5.82-49.56,3.67c-11.55,7.71-19.06,21.9-19.18,35.94l-.68-.23c-4.11-1.18-9.21-2.15-13.34-.6a23.11,23.11,0,0,0-10.13,7.83,22.22,22.22,0,0,0-3.16,6.1c-8.26-1.43-18.68-.35-21.9,8.7a20.24,20.24,0,0,0-1.08,7.21l-1.39-.14a12,12,0,0,0-6.95,1.36,21.6,21.6,0,0,0-3.1,2.12c0-.19,0-.38,0-.56.18-2.91.36-5.84.38-8.75a54.78,54.78,0,0,0-2.17-16.3A56.35,56.35,0,0,0,538.72,381c-5.71-6.08-13.2-11.23-21.54-12.69-5-.87-10.26-1.23-15.2,0a30.65,30.65,0,0,0-11.87,6.22,34.21,34.21,0,0,0-12.19,22.38,29.3,29.3,0,0,0-.15,3.38,38.53,38.53,0,0,0-9.1-1.56c-8.47-.41-17.88,1.84-24,8-3.21,3.26-6.4,6.84-8.22,11.1A34.26,34.26,0,0,0,434,432.15a43.58,43.58,0,0,0,2.71,14.38c.24.62.5,1.24.79,1.87a30.22,30.22,0,0,0-6.53,2.7c-6.61,3.71-12.4,9-14.73,16.5A39.7,39.7,0,0,0,417.09,492.67Z" fill="#fff"/><path d="M465.78,538.14h0c-2.88,0-5.63-1.16-8.28-2.28l-.56-.23a53.26,53.26,0,0,1-12.35-7.58A126.51,126.51,0,0,1,433.25,518c-7.73-7.79-13.28-16.26-16.47-25.19a40.16,40.16,0,0,1-.89-25.28c2.1-6.71,7.1-12.32,14.88-16.69a30.8,30.8,0,0,1,6.24-2.62c-.21-.47-.42-1-.64-1.53a44.64,44.64,0,0,1-2.74-14.5,34.67,34.67,0,0,1,2.5-14.41c1.86-4.34,5.08-7.95,8.29-11.2,5.14-5.21,13.27-8.2,22.3-8.2.65,0,1.31,0,2,0a38.74,38.74,0,0,1,8.75,1.45,28.57,28.57,0,0,1,.15-3,34.46,34.46,0,0,1,12.3-22.6,30.88,30.88,0,0,1,12-6.28,28.79,28.79,0,0,1,7.09-.83,47.23,47.23,0,0,1,8.25.8c7.49,1.31,15.21,5.85,21.72,12.78A56.63,56.63,0,0,1,551.53,403a55,55,0,0,1,2.19,16.39c0,2.86-.2,5.76-.37,8.57v0a26.52,26.52,0,0,1,2.58-1.7,12.38,12.38,0,0,1,7.15-1.39l1,.1a20.4,20.4,0,0,1,1.1-7c2.16-6.09,8-9.44,16.33-9.44a35.81,35.81,0,0,1,5.66.47,22.28,22.28,0,0,1,3.12-5.92,23.24,23.24,0,0,1,10.27-7.93,14.22,14.22,0,0,1,5-.83,31.09,31.09,0,0,1,8.54,1.42l.26.08c.28-14.08,7.82-28.07,19.32-35.75,7.25-4.84,16.61-7.4,27.06-7.4a75.25,75.25,0,0,1,22.79,3.69c12.42,4,29.53,12,40.52,27.71a43.82,43.82,0,0,1,7.63,23.72v.39a31.26,31.26,0,0,1,12.18.8c.51.13,1.05.29,1.68.49a21,21,0,0,1,2.06-3c3.07-3.6,8.51-5.66,12.34-6.9a34.47,34.47,0,0,1,10.7-1.61,59.08,59.08,0,0,1,18.75,3.46c17.05,5.7,32.79,18.42,44.32,35.83,10.14,15.31,15.43,32.35,14.91,48-.5,14.91-7.33,32.67-21.11,37a6.69,6.69,0,0,0,.62.4,4.54,4.54,0,0,1,1.26,1,1.45,1.45,0,0,1,.34,1.54c-.65,1.46-4.4,1.9-6.57,2-1,0-2.05.09-3.14.09-3.83,0-7.74-.38-11.51-.74l-2.16-.2-4.66-.44c-4.22-.41-8.59-.83-12.89-1.11-8.77-.59-17.69-1.28-26.31-2-14.8-1.15-30.1-2.34-45.17-3-23-1.06-45.54-1.23-70.47-1.34-25.2-.11-48-.22-71.34-.55l-4.46-.07c-4.76-.07-9.68-.15-14.52-.15-3.32,0-6.3,0-9.13.11-9.25.24-18.51.77-27.47,1.28l-27.56,1.58c-2.85.16-5.68.54-8.07.88l-.21.18c-.65.51-1.29,1-1.91,1.55a29.66,29.66,0,0,0-3.93,4.28c-.54.67-1.11,1.38-1.7,2.06A27.82,27.82,0,0,1,474.3,532a7.44,7.44,0,0,0-1.21,2.8c-.47,1.66-2.55,2.31-3.93,2.75l-.18.06A10.58,10.58,0,0,1,465.78,538.14ZM466.72,399c-8.85,0-16.81,2.92-21.83,8-3.16,3.21-6.34,6.75-8.15,11a33.84,33.84,0,0,0-2.44,14.13A43.5,43.5,0,0,0,437,446.41c.27.7.53,1.3.78,1.85l.17.35-.38.11a30,30,0,0,0-6.46,2.67c-7.63,4.28-12.53,9.77-14.57,16.31a39.42,39.42,0,0,0,.87,24.86c3.16,8.83,8.65,17.22,16.32,24.94a123.69,123.69,0,0,0,11.28,10A52.88,52.88,0,0,0,457.2,535l.55.23c2.72,1.15,5.29,2.23,8,2.23h0a9.77,9.77,0,0,0,3-.46l.2-.06c1.24-.4,3.11-1,3.47-2.24a7.66,7.66,0,0,1,1.42-3.18,25.39,25.39,0,0,0,2.23-2.33c.58-.67,1.15-1.37,1.69-2a31.06,31.06,0,0,1,4-4.37c.63-.53,1.28-1,1.92-1.56l.35-.29h.09c2.43-.35,5.31-.73,8.22-.9l27.56-1.58c9-.51,18.23-1,27.49-1.28,2.83-.08,5.83-.11,9.15-.11,4.84,0,9.77.08,14.53.15l4.46.07c23.38.33,46.14.45,71.34.55,24.93.11,47.45.28,70.49,1.34,15.08.7,30.39,1.89,45.19,3,8.62.68,17.54,1.37,26.3,2,4.32.28,8.69.7,12.91,1.11l4.67.44,2.15.2c3.76.36,7.65.74,11.45.74,1.07,0,2.11,0,3.1-.09,3.29-.2,5.65-.84,6-1.64,0-.09.16-.35-.24-.85a4.62,4.62,0,0,0-1.1-.84,8.32,8.32,0,0,1-.76-.5,2.48,2.48,0,0,0-.26-.19l-.74-.53.66-.18c13.9-3.86,20.77-21.65,21.28-36.56.52-15.51-4.74-32.42-14.8-47.61-11.46-17.29-27.07-29.92-44-35.57a58.47,58.47,0,0,0-18.55-3.42,34,34,0,0,0-10.5,1.56c-3.74,1.22-9.07,3.24-12,6.72a21.76,21.76,0,0,0-2.13,3.15l-.13.24-.25-.09c-.73-.24-1.33-.42-1.9-.56a30.54,30.54,0,0,0-12.3-.73l-.37,0v-.65c0-.16,0-.32,0-.48a43.08,43.08,0,0,0-7.5-23.35C712.67,369,695.69,361,683.37,357.08a74.61,74.61,0,0,0-22.59-3.66c-10.32,0-19.55,2.52-26.69,7.29-11.44,7.64-18.92,21.64-19,35.66v.45l-.68-.22-.41-.14a30.92,30.92,0,0,0-8.36-1.39,13.61,13.61,0,0,0-4.78.78,22.78,22.78,0,0,0-10,7.71,21.81,21.81,0,0,0-3.11,6l-.1.27-.27,0a34.74,34.74,0,0,0-5.83-.51c-10.34,0-14.25,4.9-15.7,9a19.9,19.9,0,0,0-1.07,7.09v.38l-.37,0-1.39-.14a11.71,11.71,0,0,0-6.76,1.32,21.4,21.4,0,0,0-3,2.08l-.53.45v-.7c0-.2,0-.39,0-.58v-.2c.17-2.8.35-5.7.37-8.54a54.64,54.64,0,0,0-2.16-16.19,55.91,55.91,0,0,0-12.42-22c-6.41-6.83-14-11.3-21.36-12.59a46.75,46.75,0,0,0-8.13-.78,28.39,28.39,0,0,0-6.92.8,30.28,30.28,0,0,0-11.76,6.15,33.83,33.83,0,0,0-12.06,22.16,30.26,30.26,0,0,0-.15,3.35v.45l-.43-.13a38.4,38.4,0,0,0-9-1.55C468,399,467.36,399,466.72,399Z" fill="#cbebfb"/><path d="M833.47,437.49A103.14,103.14,0,0,0,823,424.24a25.62,25.62,0,0,1-.74,9.7c-3.94,14.54-19.29,24.59-34.2,20.81a34.65,34.65,0,0,1-18.56-12.47A36.8,36.8,0,0,1,764.92,455a32.48,32.48,0,0,1-13,12.7,34.21,34.21,0,0,1-19.64,3.18c-14.09-1.82-26.4-13.16-26.31-28,0-8.11,3.49-15.85,8.6-22a44.13,44.13,0,0,1,9.48-8.72,40.07,40.07,0,0,1,6.25-3.46c.37-.17.75-.31,1.13-.45,0-.13,0-.25,0-.37a43.34,43.34,0,0,0-7.56-23.53c-9.54-13.62-24.75-22.59-40.35-27.6a75.38,75.38,0,0,0-22.84-3.67A46.07,46.07,0,0,1,678.35,358c10.52,5.38,19.2,15.16,20.38,27.29,1.47,15.21-7.88,29.38-21.09,36.31-7.13,3.74-15.27,5.64-23.27,4-6.28-1.27-11.86-4.31-17-8a25.6,25.6,0,0,1,2.26,6.1c2.11,9.06.24,19.34-5.82,26.56-7.19,8.56-20.73,12.48-29.95,4.76-5-4.2-8.21-10.35-9.77-16.91-.48.87-1,1.71-1.52,2.52-4.15,6.24-10.41,11.35-18,12.41a19,19,0,0,1-19.32-9.35,21.45,21.45,0,0,1-1.91-15.23l-.3.24c0-.19,0-.38,0-.56.18-2.91.36-5.84.38-8.75a54.78,54.78,0,0,0-2.17-16.3q-.35-1.1-.72-2.19a38.63,38.63,0,0,1-3.87,20.39c-6.78,13.64-21.43,23.63-37.05,21.2a36.43,36.43,0,0,1-21-11.05,24.17,24.17,0,0,1-5.29-8.15,12.29,12.29,0,0,1-.84,1.24c-2.77,3.59-7.19,5.71-11.46,6.9a42.16,42.16,0,0,1-15.73,1.27c-4.57-.48-9.42-1.58-13.24-4.24a11.91,11.91,0,0,1-5.22-11.38c-.12.26-.26.52-.37.78A34.26,34.26,0,0,0,434,432.15a43.58,43.58,0,0,0,2.71,14.38c.24.62.5,1.24.79,1.87a30.22,30.22,0,0,0-6.53,2.7c-6.61,3.71-12.4,9-14.73,16.5a39.7,39.7,0,0,0,.88,25.07c3.4,9.5,9.32,17.94,16.4,25.07a125.47,125.47,0,0,0,11.31,10,53.53,53.53,0,0,0,12.27,7.53c3.85,1.62,7.59,3.35,11.8,2,1.28-.41,3.46-1,3.88-2.53a7.7,7.7,0,0,1,1.33-3,26.49,26.49,0,0,0,2.26-2.36c1.89-2.17,3.46-4.51,5.66-6.37.72-.61,1.46-1.2,2.2-1.79,2.73-.4,5.48-.74,8.19-.9L520,518.79c9.16-.52,18.31-1,27.48-1.28,9.38-.24,18.75,0,28.13.11,23.78.34,47.55.45,71.34.55,23.49.1,47,.26,70.47,1.35,23.86,1.1,47.66,3.39,71.49,5,5.87.39,11.71,1,17.57,1.55,5.5.51,11.21,1.18,16.74.84,1.28-.07,8-.55,6-3a11.88,11.88,0,0,0-1.9-1.39c-.15-.12-.3-.21-.46-.33,14.67-4.06,21.05-22.91,21.52-36.86C848.9,468.34,842.75,451.5,833.47,437.49Z" fill="#cce9f7"/><path d="M49.32,524.06a.37.37,0,0,0,.37,0l.08,0c3.79.95,7.79,1.49,11.74,2.12.83-.43,1.66-.87,2.47-1.34A123.24,123.24,0,0,0,80.76,513c10.38-8.52,19.9-18,29.46-27.43,6.34-6.23,12.76-12.37,19-18.67s12.33-12.4,19.08-18A90.56,90.56,0,0,1,168.8,435.7a52.61,52.61,0,0,1,8.45-3.09c-1.66.12-3.32.29-5,.5-29,3.83-98.21,70.49-120.17,87.92l-1.29,1a4.37,4.37,0,0,0-.87.65l-.33-.22c-.43-.28-1.59.69-1.16,1Z" fill="#458c45" style="mix-blend-mode:screen"/><path d="M851.7,529.83c-4.74-10.06-64.07-13.23-76.17-14.24-28.19-2.36-56.42-6.77-84.78-4.75-12.78.91-25.56,2.37-38.31,3.63-39.58,3.88-79.17,7.74-118.81,11-18.54,1.52-156.82-2.81-206.79-10.89-20.35-3.29-40.65-5.84-61.21-7.46-22.21-1.74-44.19-2.79-66.49-2.45-19.31.3-38.87,3.11-58,5.4-22.65,2.7-45.31,5.52-68,7.82C62,519,50.85,520.44,40,523.33,33.7,525,14.7,529.21,13.9,537.7,12.82,549.35,42.37,551.13,50,552.62c15.2,3,30.77,4.51,46.2,5.67,7.55.57,15.1,1.12,22.66,1.41,3.83.15,7.65.15,11.49.21,1.89,0,3.77.19,5.66.37-1.43.34-2.86.71-4.3,1a93.39,93.39,0,0,0-13.05,4.26c-4.42,1.73-8.55,4.14-12.9,6-2.82,1.24-6,2.19-8.09,4.59-9.4,10.63,27.52,17.28,32.06,18A354.77,354.77,0,0,0,195,599c21.54-.31,43.12-.88,64.62-2.07,21.91-1.21,43.79-2.74,65.7-3.89,43.67-2.28,87.39-1.88,131-5.06l.68,0q-2.93.89-5.84,1.81c-5,1.61-10.52,3.54-14.81,6.62-3.63,2.6-5.22,6.66-1.68,10,3.69,3.5,10.28,4.64,15.12,5.36,9.22,1.38,18.63,1.48,27.93,1.53,10,0,19.94,0,29.9-.24,64.13-1.25,133.73,5.58,197.43-2.06,31.1-3.73,125.83-.93,130.49-33.55,1-6.79-24.56-16.18-28.07-17.08-8.45-2.17-17.21-3-25.88-3.74-9.23-.75-18.44-1.65-27.68-2.35,6.32-1.06,12.61-2.23,19-3,9.39-1.15,18.6-3.32,28-4.6C810.06,545.38,855.2,537.29,851.7,529.83Z" fill="#48bb76"/><path d="M800.88,546.63c9.18-1.25,54.32-9.34,50.82-16.8-1.2-2.54-5.89-4.64-12.42-6.38a5.34,5.34,0,0,1,2.5,3c.32,1.82-1.25,3.08-2.69,3.87a59.18,59.18,0,0,1-10.85,4c-18.33,5.68-37.44,7.82-56.2,11.54-9.94,2-19.81,4.27-29.76,6.11a41.91,41.91,0,0,0-6,1.31c-1.5.51-3,1-4.52,1.45l-.71.18c6.62.74,13.27,1.19,19.87,2.14a177.77,177.77,0,0,1,25.18,5.61c4.32,1.28,8.61,2.68,12.83,4.25,3.33,1.24,6.58,2.7,9.93,3.9,3,1.08,9.6,2.79,9.65,6.94,0,2.22-1.62,3.79-3.34,4.95a38.85,38.85,0,0,1-8.19,3.94c-2.62,1-5.27,1.8-8,2.56-4.26,1.23-8.42,2.74-12.73,3.83a216.64,216.64,0,0,1-27.82,5c-5,.59-10,1.17-14.93,2.09a101.93,101.93,0,0,1-11,1.61c-29.7,5-60,6.29-90.06,6.23-19.54,0-39.06-.65-58.6-1.19-9.95-.28-19.89-.66-29.84-1.08l-4.47-.16q-19.26,1.57-38.58,1.66c-10.12,0-20.27-.06-30.37-.69a80.91,80.91,0,0,1-14.12-1.86c-2.83-.69-6.12-1.3-8.62-2.88-5-3.14,1.09-7.11,4.12-8.69,2.08-1.08,4.24-2,6.41-2.87a81.07,81.07,0,0,1,11.79-3.43c-3-.76-6.23-.12-9.24.19-.3,0-.44-.46-.16-.58,4.11-1.81,8.53-3.74,13.05-4.59-10-1.86-20.6-1.22-30.72-1.5-18.93-.54-37.84-1.13-56.75-.13-7.56.65-15.14,1.17-22.71,1.62-4,.31-8,.61-12,.86-8,.5-16.13,2.59-24.1,1.24-9.78.65-19.54,1.42-29.29,2.43l-7.16.72-.12,0-.92.07c-7.27.7-14.56,1.28-21.87,1.38a.29.29,0,0,1-.14,0c-10.95.56-21.9,1-32.85,1.3-20.29.64-40.57,1.36-60.87.45-10-.45-20-1.37-29.91-2.34-8.56-.84-17.53-1.54-25.63-4.6-2.06-.78-5.31-2.05-5.64-4.62-.29-2.25,1.33-4,3.06-5.23a35.43,35.43,0,0,1,7.59-3.73c3.59-1.39,7.13-2.85,10.85-3.88,12.51-3.48,25.41-3.79,38.3-4-9.13-1.57-18.33-3-27.59-1.85-.37,0-.4-.51-.08-.61,2.37-.77,4.87-1.86,7.42-2.68-1.69-.1-3.39-.22-5.06-.23a.31.31,0,0,1-.09-.61,95.78,95.78,0,0,0,12.11-3.5c-2.88-.28-5.83.45-8.69.63-3.79.23-7.59.4-11.39.49-7.65.18-15.31.1-23-.14-14.93-.48-29.87-1.8-44.7-3.65a226.66,226.66,0,0,1-28.45-5.1c-5.32-1.37-11.61-2.65-16.23-5.82-1.56-1.08-3.23-2.59-3.39-4.62-.23-2.73,1.92-5.13,3.77-6.88l.63-.55c-6.89,2.38-13.89,5.92-14.37,11C12.82,549.35,42.37,551.13,50,552.62c15.2,3,30.77,4.51,46.2,5.67,7.55.57,15.1,1.12,22.66,1.41,3.83.15,7.65.15,11.49.21,1.89,0,3.77.19,5.66.37-1.43.34-2.86.71-4.3,1a93.39,93.39,0,0,0-13.05,4.26c-4.42,1.73-8.55,4.14-12.9,6-2.82,1.24-6,2.19-8.09,4.59-9.4,10.63,27.52,17.28,32.06,18A354.77,354.77,0,0,0,195,599c21.54-.31,43.12-.88,64.62-2.07,21.91-1.21,43.79-2.74,65.7-3.89,43.67-2.28,87.39-1.88,131-5.06l.68,0q-2.93.89-5.84,1.81c-5,1.61-10.52,3.54-14.81,6.62-3.63,2.6-5.22,6.66-1.68,10,3.69,3.5,10.28,4.64,15.12,5.36,9.22,1.38,18.63,1.48,27.93,1.53,10,0,19.94,0,29.9-.24,64.13-1.25,133.73,5.58,197.43-2.06,31.1-3.73,125.83-.93,130.49-33.55,1-6.79-24.56-16.18-28.07-17.08-8.45-2.17-17.21-3-25.88-3.74-9.23-.75-18.44-1.65-27.68-2.35,6.32-1.06,12.61-2.23,19-3C782.31,550.08,791.52,547.91,800.88,546.63Z" fill="#80c466" opacity="0.4" style="mix-blend-mode:multiply"/><path d="M41.55,523a16.19,16.19,0,0,0-4.22,3.88c-3.37,4.63.24,9,4.88,10.62,7.45,2.68,15.93,2.58,23.74,2.43,6.6-.13,13.17-.67,19.76-.83,14.76-.36,29.5-.93,44.24-1.47s29.48-1.07,44.23-1.3c6.16-.09,12.37.12,18.52-.21,4.23-.22,57.06,2.46,29.69,13.19-6.68,2.62-13.38,5-19.53,8.83-3.11,1.93-8.12,5.39-6.78,9.76,1.13,3.7,5,5.8,8.34,7.14,8.15,3.24,17.18,4.23,25.85,5,9.76.85,19.57,1.56,29.37,1.89,14.56.5,29.12.3,43.67-.24s29.08-1.17,43.58-2.4q21.48-1.82,42.8-4.92c9.94-1.46,20.12-2.5,29.68-5.73,4.54-1.54,9.29-3.54,12.77-7,2-2,3.76-4.82,2-7.59-1.57-2.54-4.41-4.16-7-5.43a72.48,72.48,0,0,0-10.4-4c-20.92-6.45-42.5-9.85-63.92-14.11-.4-.08-.23-.66.16-.6,31.32,5,62.27-1.09,93.24-6.14-44.25-1.88-93.6-5-119.4-9.23-20.35-3.29-40.65-5.84-61.21-7.46-22.21-1.74-44.19-2.79-66.49-2.45-19.31.3-38.87,3.11-58,5.4-22.65,2.7-45.31,5.52-68,7.82A216,216,0,0,0,41.55,523Z" fill="#96d6b2"/><path d="M504.09,533.47c6.64,1.43,13.18,3.27,19.87,4.55,7.43,1.42,14.93,2.65,22.09,5.18a.31.31,0,0,1-.09.61c-9-.2-17.82,2.57-26.06,5.92a209.08,209.08,0,0,0-20.53,9.57c-6.58,3.52-13.59,7.74-18.05,13.87-3.39,4.66-5.21,11.37-.86,16.05,3.55,3.83,9,5.56,14,6.71a111.89,111.89,0,0,0,18.68,2.45c5.27.32,10.53.4,15.8.56,8.49.26,17,1.07,25.45,1.44,23.16,1,46.34,1.07,69.51.62,22.26-.43,44.53-.62,66.74-2.34,11.24-.87,22.46-2.06,33.61-3.8,5.43-.85,10.85-1.8,16.24-2.91,4.49-.93,8.91-2.11,13.4-3.05a40.79,40.79,0,0,0,8.42-2.28c2.22-1,5.55-3.61,2.82-6-2.32-2-5.59-3-8.47-3.87-2.61-.79-5.26-1.42-7.9-2.09-4.87-1.26-9.68-2.67-14.58-3.79-5.53-1.26-11.08-2.38-16.65-3.44-11.1-2.11-22.23-4-33.23-6.62a.31.31,0,0,1,0-.6c10.17-3.15,20.94-3.65,31.34-5.76q16.92-3.42,33.66-7.66c15.2-3.86,30.42-8,45.24-13.23,6.07-2.12,12.21-4.46,17.69-7.85,2.23-1.39,5.25-3.45,6.91-6-17.7-2.42-37.18-3.56-43.56-4.09-28.19-2.36-56.42-6.77-84.78-4.75-12.78.91-25.56,2.37-38.31,3.63-39.58,3.88-79.17,7.74-118.81,11-6.94.57-30.66.32-60.25-.64C482.83,529.58,493.91,531.29,504.09,533.47Z" fill="#96d6b2"/><g id="a7fd83df-3037-4618-9bad-39475dd4965a" data-name="freepik--Plants--inject-1"><path d="M303.24,549.1c.81-6.27,1.19-17.83-5.08-24.12-9-9-22.42,5.59-25.79,5.59s-4.49-9-14.58-16.81-22.43,2.24-29.15,0,5.61-37-13.46-38.12S189.39,522.73,176,522.73s-15.7-9-29.15-1.12c-10.54,6.15-16.26,21.23-18.25,27.49Z" fill="#92e3a9"/><path d="M303.24,549.1c.81-6.27,1.19-17.83-5.08-24.12-9-9-22.42,5.59-25.79,5.59s-4.49-9-14.58-16.81-22.43,2.24-29.15,0,5.61-37-13.46-38.12S189.39,522.73,176,522.73s-15.7-9-29.15-1.12c-10.54,6.15-16.26,21.23-18.25,27.49Z" fill="#48bb76"/><line x1="165.11" y1="548.34" x2="153.71" y2="529.81" fill="none" stroke="#80c466" stroke-miterlimit="10" opacity="0.4" style="mix-blend-mode:multiply"/><line x1="208.87" y1="547.85" x2="214.89" y2="491.2" fill="none" stroke="#80c466" stroke-miterlimit="10" opacity="0.4" style="mix-blend-mode:multiply"/><line x1="243.61" y1="548.34" x2="249.48" y2="526.81" fill="none" stroke="#80c466" stroke-miterlimit="10" opacity="0.4" style="mix-blend-mode:multiply"/><line x1="286.29" y1="548.34" x2="292.1" y2="534.32" fill="none" stroke="#80c466" stroke-miterlimit="10" opacity="0.4" style="mix-blend-mode:multiply"/><polyline points="166.75 530.31 160.74 540.84 146.7 535.33" fill="none" stroke="#80c466" stroke-miterlimit="10" opacity="0.4" style="mix-blend-mode:multiply"/><polyline points="205.87 495.71 212.88 508.25 222.41 496.71" fill="none" stroke="#80c466" stroke-miterlimit="10" opacity="0.4" style="mix-blend-mode:multiply"/><polyline points="201.85 515.78 210.88 526.8 219.9 519.78" fill="none" stroke="#80c466" stroke-miterlimit="10" opacity="0.4" style="mix-blend-mode:multiply"/><line x1="246.98" y1="536.33" x2="259" y2="529.31" fill="none" stroke="#80c466" stroke-miterlimit="10" opacity="0.4" style="mix-blend-mode:multiply"/><line x1="245.98" y1="540.34" x2="239.95" y2="524.8" fill="none" stroke="#80c466" stroke-miterlimit="10" opacity="0.4" style="mix-blend-mode:multiply"/><line x1="289.1" y1="541.84" x2="286.08" y2="531.81" fill="none" stroke="#80c466" stroke-miterlimit="10" opacity="0.4" style="mix-blend-mode:multiply"/><line x1="288.09" y1="543.85" x2="296.61" y2="540.34" fill="none" stroke="#80c466" stroke-miterlimit="10" opacity="0.4" style="mix-blend-mode:multiply"/></g><rect x="352.52" y="481.74" width="384.66" height="11.57" fill="#f8cb76"/><rect x="729.77" y="427.68" width="14.82" height="131.26" fill="#f8b862"/><rect x="717.06" y="265.08" width="15.53" height="136.93" fill="#f8b862"/><rect x="330.28" y="253.06" width="427.72" height="16.62" fill="#f8cb76"/><rect x="330.28" y="282.57" width="427.72" height="16.62" fill="#f8cb76"/><rect x="330.28" y="312.73" width="427.72" height="16.62" fill="#f8cb76"/><rect x="330.28" y="342.24" width="427.72" height="16.62" fill="#f8cb76"/><rect x="330.28" y="370.2" width="427.72" height="16.62" fill="#f8cb76"/><rect x="308.4" y="399.16" width="470.77" height="32.47" fill="#fee67c"/><rect x="345.1" y="427.68" width="14.82" height="131.26" fill="#f8b862"/><rect x="359.93" y="265.06" width="15.53" height="136.93" fill="#f8b862"/><path d="M498.79,561.61s-6.78,7.92-4.24,10.18c0,0,20.58,14.94,28.22,19.74a3.15,3.15,0,0,0,3.77-.22c1.28-1.1,2.64-3.31,2.79-7.68l-16.4-17.21Z" fill="#f48225" data-secondary="true"/><path d="M473.17,294.77,532.5,249.2l71.3,45.57s9.58-19.54-3.34-36c0,0-3.22-7.7-8-10.59l-10.72-10.85L574.59,223l-14.82-18.89L542.69,190l-10.45-7.28L505,214l-8.74,16.91-9.53,12.79L473.17,256S457.25,276.81,473.17,294.77Z"/><path d="M526.09,220.48v10a4.59,4.59,0,0,1-3,4.31c-4.14,1.55-11.43,4.4-14.2,6.25a95,95,0,0,1,12,17.35,23.62,23.62,0,0,0,6,7.39c4.07,3.19,10.56,6.1,18.19,1.55a22.26,22.26,0,0,0,6.74-6.58c3.19-4.59,9.57-13.78,13.42-19.18,0,0-16.5-5.43-16.94-12.32l.6-8.77Z" fill="#fea054"/><path d="M508.91,241s-4-2.12-8.21,2.65c0,0,3.71,20.91-2.91,36.52,0,0-10.59,30.71,1.85,39.44,0,0-15.35,29.91-19.58,55.59,0,0-21.71,20.64-21.44,23.82h9.53s15.08,6.09,27.26,5.56l84.37,0a11.53,11.53,0,0,1,7.27,2.5c2.78,2.26,7.28,5.08,11.59,4.08,0,0,6.75,0,10-10.83a1.84,1.84,0,0,1,1.74-1.34h12.85s-3.5-6.06-14.65-14.47a22.43,22.43,0,0,1-4.38-4.27c-5.26-6.86-19.19-27.06-27-57.76,0,0,10.21-20.17,1.27-36.76a29.51,29.51,0,0,1-2.29-5.06,82.89,82.89,0,0,1-2.95-35.66s-1.59-5.36-8-3.51l-13.42,19.18s-4.64,7.74-13.21,8.84c0,0-9.55,2-16.79-9.64A103.8,103.8,0,0,0,508.91,241Z" fill="#686175" data-primary="true"/><path d="M480.06,375.24s14.49-26.5,34.28-22.83c0,0,9-1.13,21.49,12.72,0,0,7.63-21.16,35.9-20.19,0,0-4.41-8.2-25.18,1.07a31.31,31.31,0,0,1-10.66,2.66c-7.12.49-17.67-.66-25.52-9.59l-17.15-5.53S483.37,354.24,480.06,375.24Z" opacity="0.2"/><path d="M468.15,399.06s9,1.69,11.91-4.81c0,0,21-37.31,60.87-14.42,0,0,37.9,16.81,41.28,25.09l-86.8-.3A66.41,66.41,0,0,1,468.15,399.06Z" opacity="0.2"/><path d="M535.9,579.14s-4.31-6.22-6.57-22l3.1-14.42h13.29s6.5,7.07,11,8.76C556.75,551.43,536.54,561.05,535.9,579.14Z" fill="#686175" data-primary="true"/><path d="M535.9,579.14s-4.31-6.22-6.57-22l3.1-14.42h13.29s6.5,7.07,11,8.76C556.75,551.43,536.54,561.05,535.9,579.14Z" opacity="0.2"/><path d="M535.9,579.14s.49,7.07,5.3,9.61a95.25,95.25,0,0,1,3.53-14.13c2.14-6.23,6.3-12.26,12.34-14.9a20,20,0,0,1,8.44-1.72s.57-6-8.76-6.57C556.75,551.43,535.9,560.9,535.9,579.14Z" fill="#686175" data-primary="true"/><path d="M525.85,225.38l.24,5.1s-.08,3.06-2.34,4c0,0,15.24,6.41,22-4Z" fill="#fe7142"/><ellipse cx="537.49" cy="207.44" rx="17.19" ry="26.26" fill="#fea054"/><path d="M472.78,290.8c-9.5-13.45-2.52-27.43,3.23-35.3a37.08,37.08,0,0,1,9.17-8.4c9.35-6.42,15-20.22,15-20.22,4.37-11.51,19.32-16.67,19.32-16.67,12.18-6,20.39-19.06,20.39-19.06s.65,8.29,13.85,13.48a25.32,25.32,0,0,1,8.74,5.62c4.28,4.34,10.75,11.53,14.73,19a32.37,32.37,0,0,0,11.09,16.51,50.88,50.88,0,0,1,12.17,13c5.07,8.1,9.13,19.84,2.15,32.07l1.19,4s11.26-12.15.75-33.37A42.15,42.15,0,0,0,593,247.5c-5.43-4.39-14.22-14-20.15-33.19,0,0-18.1-44.2-34.26-40.23,0,0-14.58-10.33-30.06,24.21,0,0-11.3,33.55-23.72,44.07a67.83,67.83,0,0,0-11.37,11.54c-7.28,10-14.55,26.32-.25,40.87Z"/><ellipse cx="554.7" cy="209.05" rx="3.51" ry="4.94" fill="#fea054"/><ellipse cx="519.3" cy="210.77" rx="3.51" ry="4.94" fill="#fea054"/><path d="M500.7,243.69s-25.14,12.7-29.11,61.14c0,0-6.36,42.88,10.85,40l45.26-9.27L521.94,325s-15.68-.32-22.3-5.35c0,0-9.47-6-4.35-30.14a112.43,112.43,0,0,1,3.93-12.34,26.22,26.22,0,0,0,1.34-4.83C501.49,267,503.11,254.73,500.7,243.69Z" fill="#fea054"/><path d="M569.42,318.56s28.89,26.08,35.31,2.41c0,0,8-44.27-31.5-75.89,0,0-3.56,13.89,2.42,34.62a22.51,22.51,0,0,0,3.11,6.07c1.79,2.83,2.71,8.54,3.34,15.93h-4.9Z" fill="#fea054"/><path d="M501.85,285.4v32.18l32.7,8.43,3-24.65S512.92,288.22,501.85,285.4Z" fill="#f48225" data-secondary="true"/><polygon points="537.51 301.36 547.93 301.36 545.72 326 534.54 326 537.51 301.36" fill="#f48225" data-secondary="true"/><polygon points="537.51 301.36 547.93 301.36 545.72 326 534.54 326 537.51 301.36" opacity="0.2"/><path d="M501.85,285.4l3.35-2.83s28.14,9.11,35,15.43a2.08,2.08,0,0,0,2.55.23c5-3.13,21.64-13,34.46-14.93l5,4.69-34.28,13.37H537.51S517,290,501.85,285.4Z" fill="#fff"/><path d="M488.31,394.11c1.33,2.86,4.06,8.36,6.65,11.37a5.31,5.31,0,0,1,1.36,3.92c-.75,9.39-2.94,43.44,3.6,57.51,0,0,21.77,63.32,32.51,75.76h13.29s-5.65-8.48-8.48-40.14c0,0,3.39-61.07-4-75.77,0,0-2.26-11.75.85-21.84a172.33,172.33,0,0,0,2.79-19.35,5.69,5.69,0,0,0-2.34-5.05c-4.67-3.36-15.85-8.9-33.52-2.66,0,0-9.53,3.57-12.85,12A5.38,5.38,0,0,0,488.31,394.11Z" fill="#fea054"/><path d="M536.39,407.82s-4.12-18.44,4.71-23.62a5.22,5.22,0,0,1,4.32-.34c7.09,2.38,30.86,11.23,29.42,22.55,0,0,2.26,43.25-5.94,58.8l-27.14,56-6.33,22.9s-4.07-15.55-18.65-6.78l-2.44-1.13s9.61-5.66,11-26.86c0,0,5.87-62.51,11.06-78.21a7.72,7.72,0,0,0,.23-4.23A43.38,43.38,0,0,1,536.39,407.82Z" fill="#fea054"/><path d="M535.86,404.63s6.17-15,18.84-10.84c0,0,15.15,2.54,17,21,0,0,.49,34-10.38,56.88L545.72,513l23.18-47.81s5-9.23,5.6-27c0,0,1.36-21.18.34-31.77,0,0,1.91-4.37-8-12.35,0,0-10.59-6.87-21.43-10.2C545.42,383.86,533.63,380.1,535.86,404.63Z" fill="#fe7142"/><ellipse cx="515.56" cy="422.22" rx="14.19" ry="39.9" fill="#fe7142"/><path d="M513.34,537.8l-14.55,23.81s2.27,5.37,10.18,7.63c0,0,11,5.66,17.25,13.57,0,0,6.21,3.11,5.08-2.82,0,0-.09-20.63,4.13-35.91,0,0,5.24-18.89-19.31-8.68A6,6,0,0,0,513.34,537.8Z" fill="#686175" data-primary="true"/><path d="M541.2,588.75s6.5,4.24,14.13-8.2c0,0,10.26-13,10.18-22.55,0,0-12-1.57-19.79,13C545.72,571,542.89,577.44,541.2,588.75Z" fill="#f48225" data-secondary="true"/><path d="M493.64,301.36s-1.93,12.1-10.28,16.14c0,0-4.3.81-5.92,4.31,0,0,6.46-5.12,13.2-3.77l7.81.81A34.41,34.41,0,0,1,493.64,301.36Z" fill="#fe7142"/><path d="M580.48,291.28a48.37,48.37,0,0,1,1.6,10.39s7.81-1.35,13.19,1.61C595.27,303.28,584.52,298.56,580.48,291.28Z" fill="#fe7142"/><polygon points="547.93 301.36 582.21 287.99 577.2 317.58 545.72 326 547.93 301.36" fill="#f48225" data-secondary="true"/><path d="M519.49,327.79s4.2-18.86,11.82-15.25a14.27,14.27,0,0,1-3.61,7.4s-3.71,5.8,1.85,4.48c0,0,15.35-17.21,18-8.74,0,0,5.29-5,6.09,1.33,0,0,2.38,1.32,0,5a63.41,63.41,0,0,1-8,9.88,19.77,19.77,0,0,1-16.06,5.89C524.85,337.24,520,334.9,519.49,327.79Z" fill="#fea054"/></g></g></svg>