<svg id="b59a9811-290c-4230-b441-d07cc9a7eba3" data-name="Layer 1" xmlns="http://www.w3.org/2000/svg" xmlns:xlink="http://www.w3.org/1999/xlink" width="865.76" height="682.89" viewBox="0 0 865.76 682.89"><defs><clipPath id="ff555ee3-9665-4700-9acc-37a9cf669bc0"><path d="M424.73,278.54a6.55,6.55,0,0,1,3,1c2.67,1.7,7.63,6.09,8.19,15.46,0,0,1,12.32-3.66,16.94,0,0-29.26,17.32-50.24-6.36,0,0-15.38-17.22-4.8-51,0,0,5.12-22.38,17.19-26.81,0,0,17.64-.64,14.37,28l.34,13.67a2,2,0,0,0,1.68,1.92c1.53.27,3.19,1.33.3,5.16a.52.52,0,0,0,.37.83Z" fill="#f48225" data-secondary="true"/></clipPath></defs><g id="b13596fa-436a-4409-8951-255ef5bd92f7" data-name="freepik--background-complete--inject-90"><path d="M423.13,407.51s-13.65-9.52-19.91-7.8-14.3,10.54-14.3,10.54,15.9-4.58,20.69-3.62A91.29,91.29,0,0,0,423.13,407.51Z" fill="#e0e0e0"/><path d="M427.72,410.94c-2,4.5-5.41,8.25-7.33,12.73a21.54,21.54,0,0,0-.1,16.39,29.48,29.48,0,0,0,6.95-14,76.14,76.14,0,0,0,1.6-14.59Z" fill="#e0e0e0"/><path d="M425.63,409.8c.62-1.84-14.82-1-19.8,4.92s-9.89,12.43-5.65,27.46c0,0,9.32-16.29,9.32-16.05S424.39,413.39,425.63,409.8Z" fill="#e0e0e0"/><path d="M425.75,409.58c-1.42.56,12.59,4.83,19.07,5.35a19.73,19.73,0,0,0,10.39-1.64S445.81,401.79,425.75,409.58Z" fill="#e0e0e0"/><path d="M496.63,468.71s6.76-2.83,8.67-.85,9.7,12.24,17.1,12.88c0,0-6.76-14.37-12.88-16.69C505.49,462.53,496.63,468.71,496.63,468.71Z" fill="#e0e0e0"/><path d="M498.37,467.93s-.27-5.08-2.83-7.75-11.73-4.48-11.73-4.48a35.72,35.72,0,0,0,6.73,7.83A38.16,38.16,0,0,0,498.37,467.93Z" fill="#e0e0e0"/><path d="M498.37,467.63s-4.71,0-8,5.81a48.53,48.53,0,0,0-4.86,12.73c.28-.49,8.88-4.24,11.14-9A19.86,19.86,0,0,0,498.37,467.63Z" fill="#e0e0e0"/><path d="M499.43,467.63s.85,11.2,2.75,13.11,4.65,8.87,4.65,8.87,4.24-10.14,1.89-15S499.43,467.63,499.43,467.63Z" fill="#e0e0e0"/><path d="M458.4,489.27c-.54.8-11.32,9.2-13,13.28s-.27,10.29,0,12.19,9.74-2.45,11.31-9.76A84.57,84.57,0,0,0,458.4,489.27Z" fill="#e0e0e0"/><path d="M460.52,483c0,1.35.15,14.63,3.65,19.26a61.69,61.69,0,0,0,9.89,9.56s2.3-16.78-2.54-22A26.27,26.27,0,0,0,460.52,483Z" fill="#e0e0e0"/><path d="M458.92,485.25c-.79-.18-10.59-1.12-15.26,4.47a52.14,52.14,0,0,0-7.27,11.92s14.82-7.35,17.54-10.6S458.92,485.25,458.92,485.25Z" fill="#e0e0e0"/><path d="M465.66,479.17a7.73,7.73,0,0,1,8.4-.21c4.4,2.74,11.73,13.4,11.73,13.4s-9-.55-13.63-5.07A30.93,30.93,0,0,1,465.66,479.17Z" fill="#e0e0e0"/><path d="M459.29,480.83s-5.66-4.84-10-5.92-17.07,2.1-17.07,2.1A22.81,22.81,0,0,0,447,480.83C455.77,480.06,459.29,480.83,459.29,480.83Z" fill="#e0e0e0"/><path d="M440.42,530s-4.07,7.87,0,12.21,6.25,13,6.25,13,7.07-6.79,3.51-14.37A24.59,24.59,0,0,0,440.42,530Z" fill="#e0e0e0"/><path d="M434,530.19c-1.09.55-8.14,10-8.67,16.8s-1.09,18.38,0,17.62,8.93-8.13,11.1-15.17S434,530.19,434,530.19Z" fill="#e0e0e0"/><path d="M431.25,529.46c-1.08.26-11.32-1.63-17.07,5.65a91.08,91.08,0,0,0-10,17.89s14.91-7.62,18.39-11.81S431.25,529.46,431.25,529.46Z" fill="#e0e0e0"/><path d="M489.41,516.45s-3.1,9.22,0,17.35A79.25,79.25,0,0,0,496,547.34s4.59-16.26,1.62-20.6S489.41,516.45,489.41,516.45Z" fill="#e0e0e0"/><path d="M491.1,515.47c1.09,1,13.81,19.26,22.45,20.89s1.34-.7,1.34-.7-2.72-12.28-6.59-17.38S491.1,515.47,491.1,515.47Z" fill="#e0e0e0"/><path d="M489.12,515.15s9.38-6.51,13-8.16,15.8.52,15.8.52-14.69,7.66-18.23,6.93-10.56,2.32-10.56,2.32" fill="#e0e0e0"/><path d="M521.76,426.44s-8.12,8.61-7.07,15.34A78.71,78.71,0,0,0,518.17,455l3.56-11.83Z" fill="#e0e0e0"/><path d="M522.86,424.71s-1.88,13.2,1.88,18.57,8.89,15.56,9.42,14.81,8.35-7.81,2.7-17.76A51.17,51.17,0,0,0,522.86,424.71Z" fill="#e0e0e0"/><path d="M520.14,427.05s-13-3.76-14.85,2.43-3.44,11.57-3.44,11.57a51.16,51.16,0,0,1,9.16-7.57A93.69,93.69,0,0,0,520.14,427.05Z" fill="#e0e0e0"/><path d="M461.92,430.54l1.06-.92c3.07-2.61,12-9.81,16.54-8.71a95.39,95.39,0,0,1,13.1,4.77S473,435.86,461.92,430.54Z" fill="#e0e0e0"/><path d="M464.55,430.63c0-1-5.9-2.55-11.12,2.82s-6,8.7-6,8.7S464.18,439.92,464.55,430.63Z" fill="#e0e0e0"/><path d="M463.67,431.71s-6,6.86-1.41,13.59,8.48,13.2,8.48,13.2a21.72,21.72,0,0,0,0-13.39A48.09,48.09,0,0,0,463.67,431.71Z" fill="#e0e0e0"/><path d="M485.93,448.8c-.27-1.64,1.89-15.08-15.88-13.75h-1.63s8.49,13.72,10.45,18a18.74,18.74,0,0,0,5.5,7.54C486.47,462.5,486.2,450.44,485.93,448.8Z" fill="#e0e0e0"/><path d="M489.36,515.85a15.44,15.44,0,0,0-4.24-11.47c-.27-.29-.66-.59-1-.42a1,1,0,0,0-.43.64,9.86,9.86,0,0,0,1,7.38,25.29,25.29,0,0,0,4.8,5.91" fill="#e0e0e0"/><path d="M439.28,528.28a30.44,30.44,0,0,0-14.41-13.18,2.1,2.1,0,0,0-1.2-.24,1.55,1.55,0,0,0-1.09,1.42,5.12,5.12,0,0,0,1.41,3.59,25.24,25.24,0,0,0,16,9.57" fill="#e0e0e0"/><path d="M510.49,508.44a18.12,18.12,0,0,0-2.54.26,27.86,27.86,0,0,0-6.71,1.74,38.65,38.65,0,0,0-8.95,5,93.84,93.84,0,0,0-9.44,8.39c-6.47,6.29-12.17,12.11-16.11,16.5-2,2.19-3.54,4-4.61,5.24L460.87,547c-.28.32-.44.49-.47.48a3.47,3.47,0,0,1,.37-.57c.27-.34.65-.86,1.16-1.5,1-1.3,2.53-3.15,4.47-5.38,3.87-4.47,9.53-10.38,16-16.66a87.59,87.59,0,0,1,9.55-8.41,37.83,37.83,0,0,1,9.15-5,26.3,26.3,0,0,1,6.84-1.54c.63,0,1.27,0,1.9,0A3.64,3.64,0,0,1,510.49,508.44Z" fill="#e0e0e0"/><path d="M460.06,543.61c-.09.07-1.15-1.77-3.46-4.24A29.43,29.43,0,0,0,433,530.09c-3.37.23-5.39.85-5.42.74a5.07,5.07,0,0,1,1.42-.48,23.27,23.27,0,0,1,4-.71,28.27,28.27,0,0,1,24,9.42,23.41,23.41,0,0,1,2.43,3.24A5.75,5.75,0,0,1,460.06,543.61Z" fill="#e0e0e0"/><path d="M463.56,430.44a2.67,2.67,0,0,1,0,.4,5.1,5.1,0,0,1-.1,1.13c-.1,1-.24,2.49-.43,4.34-.38,3.76-.93,9.22-1.54,16-1.18,13.47-2.6,32.15-2.57,52.81s1.51,39.34,2.56,52.83c.55,6.72,1,12.18,1.3,16,.14,1.86.25,3.31.34,4.35a5.27,5.27,0,0,0,.07,1.13,1.27,1.27,0,0,1,0,.39,1.59,1.59,0,0,1-.07-.38,3.89,3.89,0,0,0-.13-1.13c-.11-1-.27-2.49-.45-4.34-.38-3.76-.92-9.22-1.51-16-1.16-13.49-2.69-32.17-2.83-52.87A476,476,0,0,1,461,452.23c.66-6.74,1.28-12.19,1.74-16,.23-1.88.42-3.33.55-4.33l.17-1.13A1,1,0,0,1,463.56,430.44Z" fill="#e0e0e0"/><path d="M504.09,466.81a8.75,8.75,0,0,1-1.9.3c-1.22.13-3,.37-5.15.71a95.61,95.61,0,0,0-32.14,11.31c-1.91,1.07-3.42,2-4.47,2.66a8.68,8.68,0,0,1-1.65.94,11.82,11.82,0,0,1,1.53-1.16c1-.72,2.48-1.69,4.36-2.82A86,86,0,0,1,497,467.43c2.19-.28,4-.45,5.19-.51A11.3,11.3,0,0,1,504.09,466.81Z" fill="#e0e0e0"/><path d="M460.21,460.82a4.55,4.55,0,0,1-.17-.73c-.1-.55-.22-1.24-.37-2.09a30.67,30.67,0,0,0-.65-3.28,43,43,0,0,0-1.12-4.24l-.78-2.45c-.27-.85-.65-1.69-1-2.6-.66-1.81-1.59-3.65-2.53-5.66A73.09,73.09,0,0,0,445.87,428a91.51,91.51,0,0,0-19-17.14c-1.31-1-2.6-1.71-3.69-2.44s-2.06-1.29-2.82-1.75l-1.83-1.14a3.43,3.43,0,0,1-.61-.41,2.76,2.76,0,0,1,.68.3l1.87,1c.82.43,1.81,1,2.91,1.67s2.42,1.42,3.78,2.36a87.12,87.12,0,0,1,19.17,17.13,71.28,71.28,0,0,1,7.77,11.89,58.23,58.23,0,0,1,2.5,5.66c.32.92.72,1.77,1,2.64s.51,1.69.75,2.48a42.77,42.77,0,0,1,1,4.34,24.58,24.58,0,0,1,.55,3.31c.1.86.19,1.55.24,2.1A2.68,2.68,0,0,1,460.21,460.82Z" fill="#e0e0e0"/><path d="M523.8,425.82a3.47,3.47,0,0,1-.68.31l-2,.75c-1.73.62-4.24,1.57-7.29,2.83a217.73,217.73,0,0,0-23.29,11,215,215,0,0,0-21.75,13.79c-2.69,1.92-4.82,3.52-6.28,4.65l-1.7,1.29a4.44,4.44,0,0,1-.62.41,6.13,6.13,0,0,1,.54-.53l1.63-1.41c1.41-1.19,3.5-2.83,6.16-4.84a187.54,187.54,0,0,1,45.14-24.83c3.08-1.17,5.65-2.06,7.37-2.61l2-.64A3.72,3.72,0,0,1,523.8,425.82Z" fill="#e0e0e0"/><polygon points="486.27 640.4 435.22 640.4 429.89 578.04 492.25 578.04 486.27 640.4" fill="#e0e0e0"/><rect x="425.94" y="578.04" width="70.45" height="9.59" fill="#e0e0e0"/><path d="M495.94,587.66c0,.17-15.77.32-35.18.32s-35.2-.15-35.2-.32,15.75-.33,35.2-.33S495.94,587.48,495.94,587.66Z" fill="#ebebeb"/><rect x="703.62" y="579.63" width="54.72" height="43.36" transform="translate(123.95 1327.55) rotate(-89.55)" fill="#ebebeb"/><polygon points="735.9 575.75 735.13 628.74 728.28 628.68 729.75 575.7 735.9 575.75" fill="#fafafa"/><polygon points="684.61 575.36 709.49 575.54 752.84 575.88 709.43 581.6 709.06 628.54 684.2 628.34 684.61 575.36" fill="#e0e0e0"/><polygon points="698.15 575.46 697.16 628.44 689.79 628.39 690.99 575.4 698.15 575.46" fill="#fafafa"/><path d="M717.83,559.34c0,.32-.71.68-2,1a34.59,34.59,0,0,1-9.89.72,14.64,14.64,0,0,1-2.31-.27,16.72,16.72,0,0,1-2.53-.53,8.24,8.24,0,0,1-1.56-.67,4.89,4.89,0,0,1-1.65-1.55,4.69,4.69,0,0,1-.71-2.38,8.11,8.11,0,0,1,.21-1.84,32,32,0,0,1,1.66-5.5,15.38,15.38,0,0,1,1.58-2.83,13,13,0,0,1,1.08-1.27,7.85,7.85,0,0,1,1.41-1.16,5.82,5.82,0,0,1,2-.79,5,5,0,0,1,2.25,0,7.49,7.49,0,0,1,3,1.64,24.06,24.06,0,0,1,5.65,7,16.87,16.87,0,0,1,1.91,5.65c.17,1.42,0,2.22-.31,2.31-.71.15-1.73-2.63-4.48-6.14a28.13,28.13,0,0,0-5.57-5.33,3.1,3.1,0,0,0-1.26-.65.49.49,0,0,0-.24,0,1.33,1.33,0,0,0-.37.2,3.57,3.57,0,0,0-.55.48,7.51,7.51,0,0,0-.61.76,10.15,10.15,0,0,0-1.05,1.91,34.51,34.51,0,0,0-1.5,4.65,3.87,3.87,0,0,0-.12.68h-.13c-.16,0-.2.09-.1,0l.17-.13h0a.49.49,0,0,0,.13.12,2.8,2.8,0,0,0,.62.32,18.43,18.43,0,0,0,1.92.58c.68.18,1.42.33,2,.45,1.3.27,2.54.46,3.69.61,2.3.31,4.24.51,5.55.77S717.83,559,717.83,559.34Z" fill="#e0e0e0"/><path d="M716.94,559.73c-.11-.69,3.13-1.71,8.19-3.19a70.85,70.85,0,0,0,8.48-3.06,8.18,8.18,0,0,0,1.85-1c.2-.15.29-.31.26-.3s0,.2,0,.1a4.09,4.09,0,0,0-.31-.75c-.2-.44-.41-.86-.62-1.3a21.71,21.71,0,0,0-1.32-2.35,9.71,9.71,0,0,0-1.54-1.85,9.9,9.9,0,0,0-.88-.69,3.73,3.73,0,0,0-.79-.42,1.92,1.92,0,0,0-1.27-.13,4.32,4.32,0,0,0-1.54.89,33.81,33.81,0,0,0-5.93,6.43c-2.9,4.15-3.66,7.37-4.38,7.27-.33,0-.57-.93-.45-2.52a18.28,18.28,0,0,1,1.88-6.46,28.07,28.07,0,0,1,5.94-8.07,8.6,8.6,0,0,1,3.06-1.95,6.58,6.58,0,0,1,4.25.07,9.42,9.42,0,0,1,1.81.87,13.27,13.27,0,0,1,3.83,3.89,21.35,21.35,0,0,1,1.61,2.93l.64,1.41a7.88,7.88,0,0,1,.63,2,4.43,4.43,0,0,1-.48,2.83,5.32,5.32,0,0,1-1.61,1.76,11.54,11.54,0,0,1-3,1.42,43.7,43.7,0,0,1-9.5,2.27C720.39,560.55,717.05,560.36,716.94,559.73Z" fill="#ebebeb"/><rect x="699.61" y="534.6" width="18.11" height="63.73" transform="translate(136.66 1270.66) rotate(-89.55)" fill="#e0e0e0"/><rect x="719.99" y="537.81" width="18.11" height="57.61" transform="translate(156.72 1291.18) rotate(-89.55)" fill="#ebebeb"/><polygon points="740.23 557.67 739.82 575.87 733.1 575.73 733.57 557.63 740.23 557.67" fill="#fafafa"/><polygon points="692.49 557.39 691.84 575.43 684.46 575.37 684.86 557.24 692.49 557.39" fill="#fafafa"/><rect x="753.99" y="600.96" width="31.01" height="24.56" transform="translate(150.22 1377.9) rotate(-89.55)" fill="#ebebeb"/><polygon points="772.26 598.78 771.82 628.8 767.95 628.77 768.78 598.75 772.26 598.78" fill="#fafafa"/><polygon points="743.2 598.55 757.3 598.65 781.86 598.85 757.27 602.09 757.06 628.68 742.97 628.57 743.2 598.55" fill="#e0e0e0"/><polygon points="750.86 598.61 750.31 628.63 746.13 628.6 746.8 598.58 750.86 598.61" fill="#fafafa"/><path d="M762,589.47c0,.45-1.61,1-4.43,1.25a16.19,16.19,0,0,1-5.14-.43,3.55,3.55,0,0,1-2-1.41,2.9,2.9,0,0,1-.45-1.52,3.93,3.93,0,0,1,.13-1.13,17.42,17.42,0,0,1,1-3.16,8.56,8.56,0,0,1,.93-1.64,5.32,5.32,0,0,1,1.53-1.42,3.42,3.42,0,0,1,2.63-.45,4.88,4.88,0,0,1,1.81,1,13.52,13.52,0,0,1,3.23,4.09c1.33,2.69,1.14,4.58.71,4.65s-1.16-1.41-2.74-3.34a16.73,16.73,0,0,0-3.15-2.91,1.54,1.54,0,0,0-.6-.3h0a.39.39,0,0,0-.1.08,2.37,2.37,0,0,0-.56.62,5.11,5.11,0,0,0-.57,1,20.24,20.24,0,0,0-.82,2.57l-.07.31h-.41a1.21,1.21,0,0,0,.24-.21h.07a1.08,1.08,0,0,0,.28.15,24,24,0,0,0,4.25,1C760.3,588.68,762,589,762,589.47Z" fill="#e0e0e0"/><path d="M761.51,589.7c-.08-.53,1.74-1.23,4.57-2.15a45.44,45.44,0,0,0,4.74-1.83,3.73,3.73,0,0,0,.93-.53c.08,0,.08-.12,0,0a.66.66,0,0,0-.08.36c-.17-.34-.34-.67-.5-1a14.33,14.33,0,0,0-.72-1.27,4.81,4.81,0,0,0-.79-1,3.06,3.06,0,0,0-.78-.55.58.58,0,0,0-.41-.07,1.65,1.65,0,0,0-.72.4,20,20,0,0,0-3.35,3.47c-1.69,2.24-2.25,4-2.83,3.94s-.86-2.18.51-5.27a15.69,15.69,0,0,1,3.38-4.73,5.26,5.26,0,0,1,1.89-1.22,4.31,4.31,0,0,1,2.75,0,6.37,6.37,0,0,1,1.11.55,6,6,0,0,1,.89.68,8.05,8.05,0,0,1,1.42,1.66,11.48,11.48,0,0,1,.94,1.72l.37.79a6.36,6.36,0,0,1,.4,1.26,3.1,3.1,0,0,1-.34,1.94,3.28,3.28,0,0,1-1,1.14,6.78,6.78,0,0,1-1.78.9,23.93,23.93,0,0,1-5.49,1.2C763.51,590.42,761.6,590.18,761.51,589.7Z" fill="#e0e0e0"/><rect x="751.72" y="575.44" width="10.27" height="36.12" transform="translate(157.43 1345.67) rotate(-89.55)" fill="#e0e0e0"/><rect x="763.26" y="577.26" width="10.27" height="32.64" transform="matrix(0.01, -1, 1, 0.01, 168.8, 1357.29)" fill="#ebebeb"/><polygon points="774.71 588.52 774.48 598.83 770.67 598.76 770.94 588.5 774.71 588.52" fill="#fafafa"/><polygon points="747.67 588.37 747.3 598.59 743.12 598.55 743.34 588.28 747.67 588.37" fill="#fafafa"/><rect x="58.6" y="49.53" width="187.2" height="309.85" fill="#e0e0e0"/><rect x="52.38" y="49.53" width="187.2" height="309.85" fill="#ebebeb"/><rect x="60.36" y="55.83" width="171.25" height="297.28" fill="#fafafa"/><rect x="92.95" y="94.44" width="105.31" height="220.03" fill="#ebebeb"/><path d="M93,236.62c-.24-20.55,18.24-40.62,38.59-43.49,9.7-1.41,20,.55,29.09-3.16,16.19-6.64,21.34-28.14,37.63-34.52l.73,159h-106Z" fill="#e0e0e0"/></g><rect x="501.1" y="74.84" width="312.28" height="449.87" rx="17.71" fill="#686175" data-primary="true"/><path d="M324.12,486.94l4.16,82.92C335.22,591.71,354,593.1,354,593.1l-8-27.41c6.94-38.51,12.84-141.56,12.84-141.56-10.41,4.5-28.4,2.89-28.4,2.89.15.26.28.53.41.79a15.69,15.69,0,0,1-.69,14.51C319,461.54,324.12,486.94,324.12,486.94Z" fill="#ffad95"/><path d="M320.91,425s-17.36,20.2-33,30.72l-71.84,50.15a10.68,10.68,0,0,0-2.54,2.48l-16,21.77s-8.77-8.69-1.65-27.36l5.39-10.78a20.21,20.21,0,0,0,16.17-9.82S244,439.83,273.3,431.62c0,0,17.36-4,16.25-19.86C289.55,411.76,313.86,416.38,320.91,425Z" fill="#ffad95"/><path d="M365.85,290.86s-5.54,25.59,8.35,57.76a147.77,147.77,0,0,1,7.33,20.82,154.17,154.17,0,0,1,3.67,17.78l-2.54-26a128.36,128.36,0,0,1-.61-13.73C382.14,335.51,380.68,307.07,365.85,290.86Z" fill="#686175" data-primary="true"/><path d="M365.85,290.86s-5.54,25.59,8.35,57.76a147.77,147.77,0,0,1,7.33,20.82,154.17,154.17,0,0,1,3.67,17.78l-2.54-26a128.36,128.36,0,0,1-.61-13.73C382.14,335.51,380.68,307.07,365.85,290.86Z" opacity="0.2"/><path d="M470.53,286.84l-19-8.95s-2.89-1.54.77-3.08c0,0,10.44-1.87,11-6.74a1.28,1.28,0,0,0-1.61-1.37l-22.86,5.92a12.34,12.34,0,0,1-5.54.15l-25.44-5.09,1.34,12.71,25.13,7.19,32.59.94A4.85,4.85,0,0,0,470.53,286.84Z" fill="#e37961"/><path d="M372.48,300.37l4.77-4.49a65.54,65.54,0,0,1,.71-41.21s-10.54-.4-24.59-8.61l-2.94.33s-.52,20.52-12.07,32.84C338.36,279.23,358.46,275.73,372.48,300.37Z" fill="#f48225" data-secondary="true"/><rect x="511.01" y="107.16" width="292.82" height="376.45" fill="#f0f0ff"/><rect x="787.63" y="156.64" width="7.57" height="272.65" rx="3.79" fill="#dcdcf9"/><path d="M619.32,260.94s2.3,79.59-.93,107.5c0,0-7.38,7.61-3.69,23.53h93s.69-11.76-2.77-15.46l5.31-57.67,2.08-63-23.62-13.64-35.17,2.34S627.39,251.25,619.32,260.94Z" fill="#686175" data-primary="true"/><polygon points="596.78 279.08 613.67 303.06 620.01 298.26 619.32 260.94 596.78 279.08" fill="#686175" data-primary="true"/><polygon points="596.78 279.08 613.67 303.06 620.01 298.26 619.32 260.94 596.78 279.08" opacity="0.2"/><path d="M682.36,312.91l40.9,9.84s7.28-62.36-10.76-66.84l-.48-.09c-1.94-.27-13.82-1.17-20.07,16.19Z" fill="#686175" data-primary="true"/><path d="M682.36,312.91l40.9,9.84s7.28-62.36-10.76-66.84l-.48-.09c-1.94-.27-13.82-1.17-20.07,16.19Z" opacity="0.2"/><path d="M685.4,313.64,676.55,345l-49.22,5.3S620.77,343,608.4,352l-5.06,4.29s-9.59-2.53-10.85,1c0,0-4.86-2-7.57-1a2,2,0,0,0-.37,3.53c2.81,1.77,9.82,5.34,20.59,5.23a18.33,18.33,0,0,0,7.48-1.58c.3-.13.59-.28.87-.43a7.64,7.64,0,0,1,4.42-.88c7.41.79,29.69,3,61.67,5.27,0,0,12.92,1.42,21.21-17.42l11.5-29.91Z" fill="#ffad95"/><path d="M592.49,357.34s-2.53,4,4.29,4c0,0,9.34,2.27,17.92-2" fill="none" stroke="#e37961" stroke-miterlimit="10"/><path d="M603.34,356.33s6.77,1.26,10.33-1.26" fill="none" stroke="#e37961" stroke-miterlimit="10"/><path d="M676.55,345s6.82,4.42,8.08,11.67" fill="none" stroke="#e37961" stroke-miterlimit="10"/><path d="M599,280.05l-19.55,8.48-29.83-22.47A36,36,0,0,0,538,254.89a14,14,0,0,0-6.82-1.7H519.86a7.4,7.4,0,0,1-3.87-1.14c-1.63-1-4-1.81-3.89,1.76,0,0-3.28-.25-4.29,2a3,3,0,0,0,.53,3.22,4,4,0,0,0,3.67,1.21s-3.09,4,1.71,4.5c0,0-2.78,1.52-.25,4.3,0,0-2.78,4.29.75,6.06,0,0,12.12,4.29,23.73,2.52,0,0,22.22,27.52,35.1,36.86,0,0,4.29,3.23,15.65-1.54,1.26-.73,26-10.58,26-10.58Z" fill="#ffad95"/><path d="M511.09,254.51s4.4-.4,5.71,1.78c0,0,2.09,3.33-5.79,4.65" fill="none" stroke="#e37961" stroke-miterlimit="10"/><path d="M512.71,265.45s14.27.15,13.4-3.63c0,0,.65-3.49-9.06-4.11" fill="none" stroke="#e37961" stroke-miterlimit="10"/><path d="M512.46,269.74s19.22.12,13.09-6.45" fill="none" stroke="#e37961" stroke-miterlimit="10"/><path d="M519.61,269.26s2.86,3.76-4,4.63c0,0,1.46,2.23,0,2.65" fill="none" stroke="#e37961" stroke-miterlimit="10"/><path d="M528.58,265.45s4.51,3.14,12.52,1.07" fill="none" stroke="#e37961" stroke-miterlimit="10"/><circle cx="659.1" cy="503.52" r="11.14" opacity="0.2"/><line x1="596.78" y1="136.85" x2="719.28" y2="136.85" fill="none" stroke="#dcdcf9" stroke-miterlimit="10" stroke-width="2"/><polyline points="750.52 128.24 754.69 128.24 756.39 141.87 769.65 141.87" fill="none" stroke="#dcdcf9" stroke-miterlimit="10"/><polygon points="754.95 130.34 771.16 130.34 768.89 139.22 756.06 139.22 754.95 130.34" fill="none" stroke="#dcdcf9" stroke-miterlimit="10"/><circle cx="758.33" cy="145.33" r="1.75" fill="none" stroke="#dcdcf9" stroke-miterlimit="10"/><circle cx="766.96" cy="145.33" r="1.75" fill="none" stroke="#dcdcf9" stroke-miterlimit="10"/><polygon points="538.55 143.85 538.55 134.77 546.55 128.1 553.18 134.24 553.18 143.85 549.49 143.85 549.49 138.24 545.87 138.24 545.87 143.85 538.55 143.85" fill="#dcdcf9"/><rect x="507.56" y="267.86" width="116.23" height="87.97" fill="#00aeef"/><rect x="500.41" y="248.68" width="130.52" height="22.97" fill="#00aeef"/><rect x="500.41" y="248.68" width="130.52" height="22.97" opacity="0.2"/><path d="M424.73,278.54a6.55,6.55,0,0,1,3,1c2.67,1.7,7.63,6.09,8.19,15.46,0,0,1,12.32-3.66,16.94,0,0-29.26,17.32-50.24-6.36,0,0-15.38-17.22-4.8-51,0,0,5.12-22.38,17.19-26.81,0,0,17.64-.64,14.37,28l.34,13.67a2,2,0,0,0,1.68,1.92c1.53.27,3.19,1.33.3,5.16a.52.52,0,0,0,.37.83Z" fill="#f48225" data-secondary="true"/><g clip-path="url(#ff555ee3-9665-4700-9acc-37a9cf669bc0)"><path d="M434.32,287.58S412,290.86,402,287.12a4.83,4.83,0,0,1-.54-8.76,12.72,12.72,0,0,0,4.42-3.6,1.37,1.37,0,0,0-1.18-2.16c-2.05.08-3.68-.16-9.81,3.39,0,0-5.56-3.68-2.44-30.15,0,0-3.43,9.63-15.17,8.81,0,0-10.79,32.86,4.8,51,0,0,18,23.09,51.15,6.35C433.2,312,439.24,303.23,434.32,287.58Z" opacity="0.2"/></g><path d="M385.2,387.22l1,27.45a.21.21,0,0,1-.38.13c-1.36-1.95-6.25-7.65-17.3-8.08a409.39,409.39,0,0,0,7.32-54.2A130.41,130.41,0,0,1,385.2,387.22Z" fill="#686175" data-primary="true"/><path d="M385.2,387.22l1,27.45a.21.21,0,0,1-.38.13c-1.36-1.95-6.25-7.65-17.3-8.08a409.39,409.39,0,0,0,7.32-54.2A130.41,130.41,0,0,1,385.2,387.22Z" fill="#fff" opacity="0.2"/><path d="M338.36,279.23s-34.26,11-44.79,30.22c0,0-9.24,10-9.75,45.69l2.57,55.95s17.19,3.08,30,11.29c0,0,16.69,15.91,50,0l2.05-15.66s7.19-35.26,7.32-54.2c0,0-15.22-31.49-10-61.66A30.69,30.69,0,0,0,338.36,279.23Z" fill="#686175" data-primary="true"/><path d="M308.51,596.22l4.16,2.44L323,587.89c7.52-2.08,14.7,26.38,14.7,26.38,2.77,6.93,29.49,2.42,29.49,2.42,9.71-4.16-8.33-14.23-8.33-14.23L354,593.1s-18.73-1.39-25.67-23.24C315.44,569.51,308.51,596.22,308.51,596.22Z" fill="#f48225" data-secondary="true"/><path d="M197.57,530.07l-4.44,6.77s-.42,26.44-10.69,19.51c0,0-17.19-20.28-9.75-30.8,0,0,19.25-26.95,7.44-26.95H166.79v-5.9l20-4.88s9.24-3.08,14.5,4.11C201.31,491.93,185.49,515.09,197.57,530.07Z" fill="#f48225" data-secondary="true"/><path d="M466.91,288.52l-32.59-.94a33.52,33.52,0,0,1,0,21.16l29.93-7.64a6.83,6.83,0,0,1,3.9.23c4.11,1.46,15,4.21,30.16-.73,0,0,18.67-3.66,16-6,0,0-2.06-1.89-17.26-.63a20.12,20.12,0,0,1-8.12-.95A13.28,13.28,0,0,1,486,291.7a3.62,3.62,0,0,1,.29-6.18c2.81-1.54,7.42-4.62,6.79-8a1.26,1.26,0,0,0-2.06-.7,10.22,10.22,0,0,1-5.41,2.24c-.63.09-1.25.18-1.86.33-2.63.67-9.52,2.79-13.26,7.45A4.49,4.49,0,0,1,466.91,288.52Z" fill="#ffad95"/><path d="M74.28,551A36,36,0,0,0,78,564.61l21.59,44.17s15.26-23.65,22.83-43.73a41,41,0,0,0,2.73-15.35c-.23-9.87-4.18-23.24-23.64-24.75h-.09a52.58,52.58,0,0,0-6.56-.05S72.94,528,74.28,551Z" fill="#00aeef"/><path d="M70,559.58A82.86,82.86,0,0,0,78.56,579l17.36,29.79h3.65L78,564.61A36,36,0,0,1,74.28,551c-1.34-23,20.56-26.09,20.56-26.09a52.58,52.58,0,0,1,6.56.05c-2.13-.27-23.41-2.5-30.65,15.41A29.61,29.61,0,0,0,70,559.58Z" fill="#00aeef"/><path d="M70,559.58A82.86,82.86,0,0,0,78.56,579l17.36,29.79h3.65L78,564.61A36,36,0,0,1,74.28,551c-1.34-23,20.56-26.09,20.56-26.09a52.58,52.58,0,0,1,6.56.05c-2.13-.27-23.41-2.5-30.65,15.41A29.61,29.61,0,0,0,70,559.58Z" opacity="0.2"/><path d="M88.27,551.1a11.39,11.39,0,0,0,10.1,11.33,9.5,9.5,0,0,0,1.31.09A11.41,11.41,0,1,0,88.27,551.1Z" opacity="0.2"/><path d="M88.27,551.1a11.39,11.39,0,0,0,10.1,11.33,11.4,11.4,0,0,0,0-22.66A11.39,11.39,0,0,0,88.27,551.1Z" opacity="0.2"/><path d="M428.46,182.9s5.92-10.08-2.62-18.72a16.53,16.53,0,0,1-3,6.06S427.1,176.94,428.46,182.9Z" fill="#123a53"/><path d="M428.46,182.9s5.92-10.08-2.62-18.72a16.53,16.53,0,0,1-3,6.06S427.1,176.94,428.46,182.9Z" opacity="0.2"/><ellipse cx="414.56" cy="189.11" rx="15.02" ry="28.82" transform="translate(-31.95 98.26) rotate(-13.02)" fill="#ffad95"/><path d="M398.58,182.94,402,199.51c5.79,13.92,12.52,16.64,12.52,16.64,1.64,3.45,5.28,9.64,5.28,9.64,5.39,11.8-3.08,16.16-3.08,16.16.26,17.2-7.95,13.86-7.95,13.86V245.55c-.77-17.71-14.37-17.71-14.37-17.71,1.28,9.75-1,15.14-1,15.14-6.67,24.38-40,3.08-40,3.08-28.23,4.11-29.77-21.81-29.77-21.81-5.39-22.33,29.51-36.45,29.51-36.45,8.73-4.87,10.53-11.8,10.53-11.8,1.87-7.79,6.42-14.11,10-18.16a27,27,0,0,1,16.69-9A27.51,27.51,0,0,1,409,153.51a8.31,8.31,0,0,0,3.78,1.4,51.22,51.22,0,0,1,10.75,2.18,3.7,3.7,0,0,1,2.48,3.25c1,14.72-16.72,15.66-16.72,15.66s.51,15.23-2.44,15.65c0,0-1.59,2.41-3.82-3.26a13,13,0,0,0-1.6-3C400.63,184.28,399.5,183,398.58,182.94Z" fill="#123a53"/><ellipse cx="398.58" cy="191.65" rx="5.25" ry="9.01" transform="translate(-28.69 77.48) rotate(-10.72)" fill="#ffad95"/><path d="M690.44,216l1.51-4.59-4.79-2.1-5.08,1.42L653.5,235.06v11.2s5.13,11.11,35.17-4L690.44,216" fill="#ffad95"/><path d="M653.5,235.06V241s14.84,1.23,19.58-12.7C673.08,228.26,664.52,240.26,653.5,235.06Z" fill="#e37961"/><ellipse cx="662.49" cy="199.08" rx="37.42" ry="21.68" transform="translate(366.59 824.35) rotate(-81.4)" fill="#ffad95"/><path d="M645.31,182.68c-2.34-1-3.94-2.77,1.86-5.76,0,0,3.21-5,15.32-.33l7.75,3.56-19,3.13A10.89,10.89,0,0,1,645.31,182.68Z" fill="#123a53"/><path d="M682.61,187.84a73.7,73.7,0,0,1-1.76,18.53s.25,8.59,5.55,3.28c0,0,1-8.07,6.06-7.32l1-5.05A73.87,73.87,0,0,0,682.61,187.84Z" fill="#123a53"/><path d="M647.64,164.62s12.1-19.54,33.21-10.38c0,0,24.82,8.72,13.63,40C694.48,194.25,692.1,183.53,647.64,164.62Z" fill="#f48225" data-secondary="true"/><path d="M647.17,176.92s6-10.2,37.36,12.27l8.94,8.09,1-3s-1-7.95-33.58-23.73c0,0-28.27-15.14-34.58-6.56,0,0-9.55,9.7,17.82,19.75C644.14,183.71,645.58,178.26,647.17,176.92Z" fill="#f48225" data-secondary="true"/><path d="M647.17,176.92s6-10.2,37.36,12.27l8.94,8.09,1-3s-1-7.95-33.58-23.73c0,0-28.27-15.14-34.58-6.56,0,0-9.55,9.7,17.82,19.75C644.14,183.71,645.58,178.26,647.17,176.92Z" opacity="0.2"/><ellipse cx="691.01" cy="208.47" rx="4.8" ry="6.69" fill="#ffad95"/><path d="M627.33,350.27s-4.73-3.95-10.09-2.74a3.14,3.14,0,0,0-2,4.58,7.21,7.21,0,0,0,4.2,3,34.14,34.14,0,0,1,5.4,4.54" fill="#ffad95" stroke="#e37961" stroke-miterlimit="10"/><polygon points="614.7 391.97 613.67 483.61 657.24 483.61 663.29 416.67 684.63 483.61 712.29 483.61 707.67 391.97 614.7 391.97" fill="#f48225" data-secondary="true"/><path d="M478.87,43H401.24a5.79,5.79,0,0,0-5.68,5.68v75.25a5.79,5.79,0,0,0,5.68,5.78h28.59L441,145.51l9.7-15.81h28.19a5.68,5.68,0,0,0,5.78-5.58V48.77A5.69,5.69,0,0,0,479.06,43Z" fill="#fafafa"/><path d="M478.87,43a4.84,4.84,0,0,1,2.29.38,6.31,6.31,0,0,1,2.3,1.69,5.94,5.94,0,0,1,1.34,3.65c0,5.89,0,14.43.13,25.15s0,23.74.12,38.46v11.36a6.3,6.3,0,0,1-2.67,5.41,6.07,6.07,0,0,1-3,1.08H450.68l.4-.22-9.68,15.83-.38.62-.42-.59L429.41,130l.42.21H400.48a6.25,6.25,0,0,1-4.21-2.4,6.73,6.73,0,0,1-1.3-4.57V48.41a6.17,6.17,0,0,1,4.56-5.68,14.8,14.8,0,0,1,3.64-.21h23l38.48.15h13.18a7.21,7.21,0,0,1,.93,0H464.67l-38.48.17H403.26a15.22,15.22,0,0,0-3.43.21A5.32,5.32,0,0,0,395.9,48v74.82a5.75,5.75,0,0,0,1.09,4,5.28,5.28,0,0,0,3.55,2c2.93.1,6.11,0,9.18,0H430l.15.21,11.15,15.83h-.79L450.22,129l.14-.23h.26l25.77.68h3a5.5,5.5,0,0,0,2.6-.92,5.43,5.43,0,0,0,2.33-4.72V112.45c0-14.71,0-27.69.11-38.46s0-19.24.13-25.15a5.65,5.65,0,0,0-3.41-5.18A7.28,7.28,0,0,0,478.87,43Z" fill="#686175" data-primary="true"/><path d="M453.06,97.89H426.23v-.15c-.15-1-.3-2.07-.45-3.15-1.27-9.18-2.41-17.38-3.15-22.72l.12.11h.07c.78,5.36,1.9,13.56,3.28,22.73.15,1.06.3,2.14.43,3.14l-.17-.17h26.15A2.6,2.6,0,0,1,453.06,97.89Z" fill="#263238"/><path d="M426.19,98.44a.33.33,0,0,1-.28-.29l-3.56-25.66h-6c-.53,0-.78,0-.8-.36s.27-.37.8-.39h6.49a.34.34,0,0,1,.34.3l3.68,25.53,25.67.11c.63,0,.86,0,.87.36h0c0,.34-.24.36-.87.38h-26.3Z" fill="#123a53"/><path d="M425.63,92.4h7.72L453,92.3l-.17.15c.58-3.31,1.21-6.89,1.89-10.6.34-1.89.66-3.79,1-5.57l.17.21H432.71l23.17-.09h.21v.2c-.3,1.9-.64,3.66-1,5.57-.67,3.79-1.29,7.29-1.9,10.6v.14H425.7Z" fill="#263238"/><path d="M425.64,92.76a.37.37,0,0,1-.36-.36h0c0-.33.35-.34.46-.36h7.57l19.24-.1,2.65-15.15-31.75-.11c-.17,0-.51,0-.51-.36s.34-.34.49-.36H456a.33.33,0,0,1,.26.13.32.32,0,0,1,0,.27l-2.9,16.51a.32.32,0,0,1-.34.28L425.61,93Z" fill="#123a53"/><path d="M433.09,105.14a4.71,4.71,0,0,1-.16-.62,2.76,2.76,0,0,0-1-1.39,2.54,2.54,0,0,0-3.55.56,2.51,2.51,0,0,0,2,4,2.58,2.58,0,0,0,1.51-.5,2.7,2.7,0,0,0,1-1.39c.12-.39.12-.64.16-.64a1.94,1.94,0,0,1,0,.68,2.66,2.66,0,0,1-1,1.55,2.9,2.9,0,1,1,.37-4.08,3,3,0,0,1,.6,1.19A1.83,1.83,0,0,1,433.09,105.14Z" fill="#263238"/><path d="M429.94,108.28a2.11,2.11,0,0,1-.6-.15,3.16,3.16,0,0,1-2.12-3,3.21,3.21,0,0,1,2.12-3,3.11,3.11,0,0,1,3,.49,3.22,3.22,0,0,1,1.1,1.76,2.17,2.17,0,0,1,0,.72,2.3,2.3,0,0,1,0,.74,3.07,3.07,0,0,1-3.47,2.4Zm.82-5.28a2.2,2.2,0,0,0-1.08.13,2.17,2.17,0,0,0,0,4.06,2.26,2.26,0,0,0,2.06-.29,2.36,2.36,0,0,0,.85-1.21.76.76,0,0,1,.12-.46v-.17l-.12-.45a2.22,2.22,0,0,0-.85-1.19,2.15,2.15,0,0,0-1-.48Z" fill="#123a53"/><path d="M450.24,105.12a1.74,1.74,0,0,0-.17-.62,2.51,2.51,0,1,0-1,2.65,2.76,2.76,0,0,0,1-1.39,5.51,5.51,0,0,1,.15-.64,1.83,1.83,0,0,1,0,.66,2.6,2.6,0,0,1-1,1.56,2.76,2.76,0,0,1-2.65.45,2.82,2.82,0,1,1,1.79-5.35,2.89,2.89,0,0,1,.86.47,2.71,2.71,0,0,1,1,1.55A1.63,1.63,0,0,1,450.24,105.12Z" fill="#263238"/><path d="M447.1,108.26a3.2,3.2,0,0,1-.61-.15,3.16,3.16,0,0,1,0-6,3.08,3.08,0,0,1,3,.49,3,3,0,0,1,1.07,1.74,1.84,1.84,0,0,1,0,.74,2.3,2.3,0,0,1,0,.74,3.09,3.09,0,0,1-3.46,2.4Zm.89-5.32a2.47,2.47,0,0,0-1.08.12,2.17,2.17,0,0,0,1.53,4.07,2.1,2.1,0,0,0,.53-.29,2.2,2.2,0,0,0,.86-1.21c0-.15.08-.3.11-.45V105a.86.86,0,0,0-.11-.46,2.23,2.23,0,0,0-.86-1.21A2.38,2.38,0,0,0,448,102.94Z" fill="#123a53"/><path d="M465.66,79A8.94,8.94,0,1,1,456.72,70,8.94,8.94,0,0,1,465.66,79Z" fill="#f48225" data-secondary="true"/><polygon points="451.61 79.14 452.93 77.8 455.52 80.09 460.58 75.22 461.83 76.55 455.34 82.66 451.61 79.14" fill="#fff"/></svg>