<svg xmlns="http://www.w3.org/2000/svg" xmlns:xlink="http://www.w3.org/1999/xlink" width="865.76" height="682.89" viewBox="0 0 865.76 682.89"><defs><clipPath id="a"><path d="M602.06,502.22c-.92,33.43-11.39,98.78-75.27,133.88,0,0-81.4,62.14-259.42-19a130.25,130.25,0,0,1-12.81-6.59c-.91-.52-1.85-1.07-2.83-1.66q-2.31-1.39-4.85-3c-4.49-2.89-9.47-6.35-14.67-10.44-15.54-12.21-33.06-29.88-45.38-53.82a142.8,142.8,0,0,1-8.44-19.94c-5.85-17.37-8.83-37.35-7.09-60.18,0,0,5.61-128.2,157.24-114,0,0,20.54,1.55,64,9,0,0,32.93,6.83,67.11-4.34,0,0,47.21-25.39,84.74,6.91q1.74,1.5,3.47,3.18c.54.53,1.09,1.07,1.63,1.63a86.3,86.3,0,0,1,6.48,7.53,83.3,83.3,0,0,1,6.67,7.88,157.94,157.94,0,0,1,11.18,17c10.35,18,22.35,46.17,27.5,85.13,0,0,.48,3.67.68,10C602.13,494.39,602.17,498.06,602.06,502.22Z" fill="none"/></clipPath></defs><path d="M602.06,502.22c-.92,33.43-11.39,98.78-75.27,133.88,0,0-81.4,62.14-259.42-19a130.25,130.25,0,0,1-12.81-6.59c-.91-.52-1.85-1.07-2.83-1.66q-2.31-1.39-4.85-3c-4.49-2.89-9.47-6.35-14.67-10.44-15.54-12.21-33.06-29.88-45.38-53.82a142.8,142.8,0,0,1-8.44-19.94c-5.85-17.37-8.83-37.35-7.09-60.18,0,0,5.61-128.2,157.24-114,0,0,20.54,1.55,64,9,0,0,32.93,6.83,67.11-4.34,0,0,47.21-25.39,84.74,6.91q1.74,1.5,3.47,3.18c.54.53,1.09,1.07,1.63,1.63a86.3,86.3,0,0,1,6.48,7.53,83.3,83.3,0,0,1,6.67,7.88,157.94,157.94,0,0,1,11.18,17c10.35,18,22.35,46.17,27.5,85.13,0,0,.48,3.67.68,10C602.13,494.39,602.17,498.06,602.06,502.22Z" fill="#f48225" data-secondary="true"/><path d="M602.06,502.22c-.92,33.43-11.39,98.78-75.27,133.88,0,0-81.4,62.14-259.42-19a130.25,130.25,0,0,1-12.81-6.59c-.91-.52-1.85-1.07-2.83-1.66q-2.31-1.39-4.85-3c-4.49-2.89-9.47-6.35-14.67-10.44-15.54-12.21-33.06-29.88-45.38-53.82a142.8,142.8,0,0,1-8.44-19.94c-5.85-17.37-8.83-37.35-7.09-60.18,0,0,5.61-128.2,157.24-114,0,0,20.54,1.55,64,9,0,0,32.93,6.83,67.11-4.34,0,0,47.21-25.39,84.74,6.91q1.74,1.5,3.47,3.18c.54.53,1.09,1.07,1.63,1.63a86.3,86.3,0,0,1,6.48,7.53,83.3,83.3,0,0,1,6.67,7.88,157.94,157.94,0,0,1,11.18,17c10.35,18,22.35,46.17,27.5,85.13,0,0,.48,3.67.68,10C602.13,494.39,602.17,498.06,602.06,502.22Z" fill="#fff" opacity="0.7"/><path d="M407.09,121.84c-48.22-42.25-146-97.8-146-97.8,45.51,20,115.53,70.22,115.53,70.22,18.69,12,65.13,50.59,65.13,50.59,17.66,12.83,55.3,48.3,55.3,48.3l-3.85,4.28A801.54,801.54,0,0,0,407.09,121.84Z" fill="#686175" data-primary="true"/><path d="M466.49,225.87a30.75,30.75,0,0,1,20.71-8.4v8.4Z" fill="#231f20"/><path d="M547.79,102.94a35.37,35.37,0,0,1-4,4.94l-3.94-1.52a18.35,18.35,0,0,0,2.47-6.59Z" fill="#f48225" data-secondary="true"/><path d="M547.79,102.94a35.37,35.37,0,0,1-4,4.94l-3.94-1.52a18.35,18.35,0,0,0,2.47-6.59Z" opacity="0.2"/><path d="M497.07,85s-5-4.35-4.8-6.76a84.88,84.88,0,0,1,14.13-1l-4.56,8.14Z" fill="#f48225" data-secondary="true"/><path d="M497.07,85s-5-4.35-4.8-6.76a84.88,84.88,0,0,1,14.13-1l-4.56,8.14Z" opacity="0.2"/><path d="M534,103.51l1.52,10.89s-7.11,4.52-13.78,5.72v-6.94l11-9.67Z" fill="#f9aac0"/><polygon points="655.44 302.83 694.96 216.53 404.38 228.97 406.58 243.66 399.96 242.73 408.62 302.83 655.44 302.83" fill="#d6dfe4"/><polygon points="655.44 302.83 408.62 302.83 399.96 242.73 406.58 243.66 666.7 278.26 655.44 302.83" fill="#a5b9c5"/><path d="M695,216.53v-9.27a4.37,4.37,0,0,0-4.56-4.37L613,206.13a5.79,5.79,0,0,0-5.56,5.79v8.36" fill="none" stroke="#a5b9c5" stroke-miterlimit="10" stroke-width="2"/><path d="M493.18,214.71,497.52,225l87.19-3.74s-7.94-54.19-27.31-78.06c-.67-.82-1.35-1.61-2-2.36a25.79,25.79,0,0,0-15.79-8.2c-6.43-.75-14.36.88-17,12.22a30.83,30.83,0,0,0-.6,3.39l3.56,56.29s1.79,11.45-9.68,10.18Z" fill="#f48225" data-secondary="true"/><path d="M555.92,152.53a116,116,0,0,1-34.47,37.22s-7.13,4.08-19.1-1.53l-25.47-10.95,2-14,33.11,7.9,26.12-31.09a10.87,10.87,0,0,1,15.44-1.3l.21.19A10.87,10.87,0,0,1,555.92,152.53Z" fill="#f48225" data-secondary="true"/><path d="M555.92,152.53a116,116,0,0,1-34.47,37.22s-7.13,4.08-19.1-1.53l-25.47-10.95,2-14,33.11,7.9,26.12-31.09a10.87,10.87,0,0,1,15.44-1.3l.21.19A10.87,10.87,0,0,1,555.92,152.53Z" opacity="0.2"/><g opacity="0.2"><rect x="512.45" y="170.94" width="1.18" height="5.02" transform="translate(-26.23 223.28) rotate(-23.96)"/></g><path d="M515.38,129.43l7.17,15.42h0c2.65-11.34,10.58-13,17-12.22a25.79,25.79,0,0,1,15.79,8.2c.69.75,1.37,1.54,2,2.36,0,0,.64-43.84-8-41.47a2.81,2.81,0,0,0-1.58,1.22c-1.72,2.63-9.14,12.66-25.09,16.94a32.41,32.41,0,0,1-6.11,1.05C514.78,121.06,511.7,122.24,515.38,129.43Z" fill="#f48225" data-secondary="true"/><path d="M515.38,129.43l7.17,15.42h0c2.65-11.34,10.58-13,17-12.22a25.79,25.79,0,0,1,15.79,8.2c.69.75,1.37,1.54,2,2.36,0,0,.64-43.84-8-41.47a2.81,2.81,0,0,0-1.58,1.22c-1.72,2.63-9.14,12.66-25.09,16.94a32.41,32.41,0,0,1-6.11,1.05C514.78,121.06,511.7,122.24,515.38,129.43Z" fill="#fff" opacity="0.4"/><path d="M478.69,164.78l-11.81-4s-2.11-1.06-4.72,1.07c-.69.56-1.39,1.1-2.12,1.6-1,.67-2.24,1.75-2.32,3a1.24,1.24,0,0,0,.87,1.32c.45.1,1-.05,1.64-1.06a3.9,3.9,0,0,1,2.58-1.9c.79-.14,1.57-.12,1.76.45,0,0,1.44,1.92-2.21,2.75,0,0-5.69.9-1.27,4.64,0,0,.85,2.8,3.48,2.29,0,0,1.19,2.29,3,1.44a4.25,4.25,0,0,0,4.92-.59,5.94,5.94,0,0,1,4.8-1.18Z" fill="#ffb8ca"/><ellipse cx="440.62" cy="161.98" rx="13.11" ry="12.48" fill="#686175" data-primary="true"/><ellipse cx="440.62" cy="161.98" rx="13.11" ry="12.48" fill="#fff" opacity="0.4"/><ellipse cx="440.88" cy="161.98" rx="8.34" ry="7.82" fill="#fff"/><circle cx="440.62" cy="162.03" r="2.88" fill="#686175" data-primary="true"/><rect x="422.35" y="168.3" width="20.84" height="1.18" transform="translate(-4.21 326.57) rotate(-41.16)" fill="#272727"/><path d="M436.05,192.1a3,3,0,0,1-2.1-.88l-12.54-12.77a2.95,2.95,0,0,1,4.21-4.12l12.53,12.76a2.94,2.94,0,0,1,0,4.16A2.91,2.91,0,0,1,436.05,192.1Z" fill="#686175" data-primary="true"/><path d="M422,228.22l-5.28-28.09a5.21,5.21,0,0,0-5.23-4.23h-58a5.73,5.73,0,0,0-5.65,6.69l8.1,47.49a5.5,5.5,0,0,0,5.42,4.57h29a2.85,2.85,0,0,1,2.8,2.36L400,296.44h7.74L400,242.73l6.62.92L404.38,229Z" fill="#008fa3"/><rect x="364.49" y="91.45" width="2.73" height="0.59" transform="translate(59.17 311.31) rotate(-49.68)" fill="#686175" data-primary="true"/><path d="M361.68,101.18a2.78,2.78,0,0,1-1.06-.21c-1.79-.75-2.42-3.32-1.42-5.71h0c1-2.39,3.3-3.73,5.08-3a3.13,3.13,0,0,1,1.77,2.28,5.94,5.94,0,0,1-2.56,6.08A3.53,3.53,0,0,1,361.68,101.18Zm-1.93-5.69c-.89,2.09-.39,4.31,1.09,4.94a2.59,2.59,0,0,0,2.34-.29,5.1,5.1,0,0,0,2-2.38,5,5,0,0,0,.32-3.06,2.57,2.57,0,0,0-1.42-1.88c-1.49-.62-3.42.57-4.3,2.67Z" fill="#686175" data-primary="true"/><rect x="328.77" y="67.2" width="2.73" height="0.59" transform="translate(65.31 275.86) rotate(-49.75)" fill="#686175" data-primary="true"/><path d="M326,76.94a2.78,2.78,0,0,1-1.06-.21,3.13,3.13,0,0,1-1.77-2.28,5.93,5.93,0,0,1,2.57-6.08,3.14,3.14,0,0,1,2.87-.33c1.78.75,2.42,3.32,1.41,5.71A4.79,4.79,0,0,1,326,76.94Zm1.54-8.52a2.92,2.92,0,0,0-1.5.45,5,5,0,0,0-2,2.38h0a5,5,0,0,0-.33,3.06,2.57,2.57,0,0,0,1.42,1.88c1.49.62,3.42-.57,4.3-2.67s.39-4.31-1.09-4.94A2.2,2.2,0,0,0,327.49,68.42Z" fill="#686175" data-primary="true"/><rect x="293.41" y="45.31" width="2.73" height="0.59" transform="translate(69.51 241.12) rotate(-49.75)" fill="#686175" data-primary="true"/><path d="M290.61,55.05a2.63,2.63,0,0,1-1.07-.22c-1.79-.75-2.42-3.31-1.41-5.71a5.64,5.64,0,0,1,2.2-2.65,3,3,0,0,1,4.64,2,5.94,5.94,0,0,1-2.56,6.08A3.5,3.5,0,0,1,290.61,55.05Zm1.53-8.53a2.94,2.94,0,0,0-1.5.46,5,5,0,0,0-2,2.37c-.88,2.1-.39,4.31,1.1,4.94a2.54,2.54,0,0,0,2.34-.29,5.35,5.35,0,0,0,2.29-5.44A2.57,2.57,0,0,0,293,46.69,2.12,2.12,0,0,0,292.14,46.52Z" fill="#686175" data-primary="true"/><path d="M493.94,216.53s-14.68.05-17.06,9.34l20.64-.88Z" fill="#272727"/><path d="M526.79,636.1s-81.4,62.14-259.42-19a139,139,0,0,1-15.64-8.25l5.5-9.67L324,571.7l270.28-78.59,7.79-1.77C602.92,518.87,598.63,596.64,526.79,636.1Z" fill="#f48225" data-secondary="true"/><path d="M526.79,636.1s-81.4,62.14-259.42-19a139,139,0,0,1-15.64-8.25l5.5-9.67L324,571.7l270.28-78.59,7.79-1.77C602.92,518.87,598.63,596.64,526.79,636.1Z" fill="#fff" opacity="0.6"/><path d="M363.88,307.41a17.34,17.34,0,0,1,7.5-3,36.09,36.09,0,0,1,8-.54,43.68,43.68,0,0,1,7.91,1c1.3.3,2.58.66,3.85,1.06a34.17,34.17,0,0,1,3.73,1.5,38.67,38.67,0,0,1-4,.21c-1.32,0-2.63,0-3.92,0s-2.58-.05-3.87-.11-2.56-.12-3.84-.13c-2.55-.12-5.09-.19-7.63-.23A54.93,54.93,0,0,0,363.88,307.41Z" fill="#fddfd2"/><path d="M531,312.66a13.28,13.28,0,0,1,5.26-2.05,46.52,46.52,0,0,1,5.64-.73,82.22,82.22,0,0,1,11.32.07c3.77.2,7.5.69,11.23,1.19s7.47,1.27,11,1.81a81.34,81.34,0,0,0,10.9,1,80.19,80.19,0,0,0,11-.4c7.27-.79,14.51-2.48,21.07-6.15a35.27,35.27,0,0,1-9.71,5.79,54.4,54.4,0,0,1-11,3.09,66.79,66.79,0,0,1-11.38,1,79,79,0,0,1-11.4-.87l-11-2c-3.64-.67-7.3-1.23-11-1.74s-7.34-.91-11-1.08a51,51,0,0,0-5.53,0c-.91.06-1.84.14-2.74.29A8.37,8.37,0,0,0,531,312.66Z" fill="#fddfd2"/><path d="M462.17,319a282.72,282.72,0,0,1,45.31,2.26,226,226,0,0,1,22.42,4A129.68,129.68,0,0,0,552,328.63q11.22.8,22.48.73c7.51,0,15-.37,22.47-1a201.23,201.23,0,0,0,22.26-3.22,136.4,136.4,0,0,0,21.7-6.17c-13.61,6.64-28.62,10.26-43.66,12.13a221.4,221.4,0,0,1-22.73,1.61c-7.59.14-15.18-.08-22.76-.55a130,130,0,0,1-22.62-3.67c-7.24-1.88-14.62-3.27-22-4.54s-14.87-2.23-22.36-3.05S469.71,319.45,462.17,319Z" fill="#fddfd2"/><path d="M551.52,338.42c4.78-.15,9.5-.16,14.21-.16s9.4,0,14.08-.12,9.35-.2,14-.61a108.59,108.59,0,0,0,14-1.92,44.33,44.33,0,0,1-13.59,4.66,82.88,82.88,0,0,1-14.3,1.4q-3.58,0-7.16-.1c-2.38-.15-4.76-.26-7.13-.56A86.32,86.32,0,0,1,551.52,338.42Z" fill="#fddfd2"/><path d="M444.3,325a103.18,103.18,0,0,1,14.36-.86c4.79,0,9.58.25,14.35.67a134.11,134.11,0,0,1,14.23,2.11,77.57,77.57,0,0,1,13.82,4.12l-14.23-1.39-14.15-1.33-7.08-.69c-2.36-.27-4.73-.46-7.09-.75C453.78,326.39,449.05,325.81,444.3,325Z" fill="#fddfd2"/><path d="M312.82,315.64a37.5,37.5,0,0,1,5.62-2.17c1.92-.61,3.88-1.09,5.84-1.54a98.34,98.34,0,0,1,11.94-1.82c4-.45,8-.54,12-.65,2,0,4,0,6,.08s4,.13,6.1.29c3.92.45,7.88.78,11.83,1.07s7.91.51,11.87.73,7.92.27,11.9.28,7.93-.15,11.94-.38a89.35,89.35,0,0,1-11.85,2.11c-4,.4-8,.67-12,.74s-8,0-12-.14-8-.5-12-.9c-1.89-.17-3.9-.23-5.84-.35l-5.93-.19q-5.92-.12-11.85.05c-3.95.13-7.91.34-11.84.78A77.25,77.25,0,0,0,312.82,315.64Z" fill="#fddfd2"/><path d="M341.54,328a52,52,0,0,1,12.15-2.84,81.79,81.79,0,0,1,12.52-.59A108.69,108.69,0,0,1,391,328.19c2,.52,4,1.17,5.91,1.57s4,.73,6,1c4,.61,8.08.91,12.16,1.13a168,168,0,0,0,24.62-.87A95.73,95.73,0,0,1,415,334.69a99.46,99.46,0,0,1-12.55-.57c-2.09-.24-4.17-.56-6.25-1s-4.09-1-6.08-1.52c-3.95-1.08-7.93-1.9-11.94-2.64-2-.37-4-.65-6-1s-4.05-.52-6.08-.66a108.78,108.78,0,0,0-12.25-.43A73.67,73.67,0,0,0,341.54,328Z" fill="#fddfd2"/><ellipse cx="520.29" cy="97.79" rx="13.89" ry="19.15" fill="#ffb8ca"/><path d="M521.75,88a17.83,17.83,0,0,1-9.39-1s-2.56-1.79-4,.86a7.48,7.48,0,0,1-2.87,3c-2,1.13-4.6,1.71-3.88-3.05,0,0-4.17.15-4.57-2.83,0,0-.79-2,4-2,0,0-2.63-2-2.76-4C498.28,79,507.85,80.36,521.75,88Z" fill="#272727"/><path d="M535.17,111.82s6.28-5.25,7.1-12c-1.2-.76-2.43-1.53-3.68-2.29q-4.17-2.57-8.23-4.84c.59,1.47,1.15,3,1.72,4.68a47.65,47.65,0,0,1,2.1,7.43Z" fill="#272727"/><path d="M531.26,99.63c0,2.82,1.92,5.12,4.27,5.12s4.27-2.3,4.27-5.12a6.41,6.41,0,0,0-.19-1.53h0c-1.66-1-3.5-2.13-5.51-3.31A5.18,5.18,0,0,0,531.26,99.63Z" fill="#ffb8ca"/><path d="M492.25,78.07a.08.08,0,0,0,0,.16c11.72.23,29.59,9.39,41.83,16.56,2,1.18,3.85,2.29,5.51,3.31h0c4.88,3,8,5.14,8,5.14a13.36,13.36,0,0,1,1-1.18,53.94,53.94,0,0,0-5.11-5.19c3.55-6.37,4.13-15.58,4.13-15.58-.59-7.78-20.88-16-20.88-16-9-1.89-17,10.62-17,10.62C503.14,75.87,494.72,77.55,492.25,78.07Z" fill="#f48225" data-secondary="true"/><path d="M546.08,90.11S534,73.69,513.65,71l-3.93,4.85s23.75,5.54,33.74,21A25.9,25.9,0,0,0,546.08,90.11Z" fill="#fff" opacity="0.4"/><path d="M602.06,502.22c-24.1,8.22-56.53,45.25-68.76,60-2.63,3.18-5,6.52-7.41,9.87-26.69,37.76-88.26,39.57-126.69,36.49a209.11,209.11,0,0,1-45.81-9.19c-45.07-14.11-84.57,3.4-98.83,11.15-.91-.52-1.85-1.07-2.83-1.66a190.22,190.22,0,0,1-19.52-13.47l32.52-77.95c10-45.89,137.65-74.24,137.65-74.24l160.3-64c10.75,14.1,31.45,47.43,38.68,102.11,0,0,.48,3.67.68,10C602.13,494.39,602.17,498.06,602.06,502.22Z" fill="#f48225" data-secondary="true"/><path d="M602.06,502.22c-24.1,8.22-56.53,45.25-68.76,60-2.63,3.18-5,6.52-7.41,9.87-26.69,37.76-88.26,39.57-126.69,36.49a209.11,209.11,0,0,1-45.81-9.19c-45.07-14.11-84.57,3.4-98.83,11.15-.91-.52-1.85-1.07-2.83-1.66a190.22,190.22,0,0,1-19.52-13.47l32.52-77.95c10-45.89,137.65-74.24,137.65-74.24l160.3-64c10.75,14.1,31.45,47.43,38.68,102.11,0,0,.48,3.67.68,10C602.13,494.39,602.17,498.06,602.06,502.22Z" fill="#fff" opacity="0.5"/><path d="M549.53,363.86,197.47,533.27l-10.64,8.34a142.8,142.8,0,0,1-8.44-19.94c-5.85-17.37-8.83-37.35-7.09-60.18,0,0,34.55-59.65,123.1-67.1,0,0,34.07-7.46,92.07-4.66,0,0,131.16,7.61,158-30.68q1.74,1.5,3.47,3.18C548.44,362.76,549,363.3,549.53,363.86Z" fill="#f48225" data-secondary="true"/><path d="M549.53,363.86,197.47,533.27l-10.64,8.34a142.8,142.8,0,0,1-8.44-19.94c-5.85-17.37-8.83-37.35-7.09-60.18,0,0,34.55-59.65,123.1-67.1,0,0,34.07-7.46,92.07-4.66,0,0,131.16,7.61,158-30.68q1.74,1.5,3.47,3.18C548.44,362.76,549,363.3,549.53,363.86Z" fill="#fff" opacity="0.3"/><path d="M573.86,396.25C569.17,409.58,550,445.72,479,454l-64.78,1.87S334,448,287.88,535.6l-41,70.27c-4.49-2.89-9.47-6.35-14.67-10.44-19.58-15.38-42.29-39.43-53.82-73.76,7.69-25.42,36.4-98.16,116-113.3,0,0,24.86-8.39,106.88-2.79,0,0,60.51,10.84,146.62-43.35a84.67,84.67,0,0,1,8.11,9.16,83.3,83.3,0,0,1,6.67,7.88A157.94,157.94,0,0,1,573.86,396.25Z" fill="#f48225" data-secondary="true"/><path d="M573.86,396.25C569.17,409.58,550,445.72,479,454l-64.78,1.87S334,448,287.88,535.6l-41,70.27c-4.49-2.89-9.47-6.35-14.67-10.44-19.58-15.38-42.29-39.43-53.82-73.76,7.69-25.42,36.4-98.16,116-113.3,0,0,24.86-8.39,106.88-2.79,0,0,60.51,10.84,146.62-43.35a84.67,84.67,0,0,1,8.11,9.16,83.3,83.3,0,0,1,6.67,7.88A157.94,157.94,0,0,1,573.86,396.25Z" fill="#fff" opacity="0.4"/><path d="M348.54,572.51c-7.65-3.67-1.71-5.41-1.71-5.41-3-2.07-3.3-9.59-1.84-7.75a11.29,11.29,0,0,0,3,2.71c-2.81-6,.66-12.63.66-12.63-.06,2.86,2.45,8,2.45,8-1-4.8,2.27-9.53,3.59-8.9s-1,5,1.37,10.74,10.07,5.09,13.84,8.53C369.91,567.84,356.19,576.18,348.54,572.51Z" fill="#686175" data-primary="true"/><path d="M348.54,572.51c-7.65-3.67-1.71-5.41-1.71-5.41-3-2.07-3.3-9.59-1.84-7.75a11.29,11.29,0,0,0,3,2.71c-2.81-6,.66-12.63.66-12.63-.06,2.86,2.45,8,2.45,8-1-4.8,2.27-9.53,3.59-8.9s-1,5,1.37,10.74,10.07,5.09,13.84,8.53C369.91,567.84,356.19,576.18,348.54,572.51Z" fill="#fff" opacity="0.6" style="isolation:isolate"/><path d="M326.36,513.49c4.78-7.67,5.7-15.69,4.78-27.81s3.64-21.47,13.21-25.15a15,15,0,0,1,15.82,2.64c-11-1.79-12.83,9.61-12.83,9.61a11.25,11.25,0,0,1,8.66-6.15c-3.22,2.12-3.05,11.39-3.12,15.8s-5,10.79-5,10.79c4.07-1.86,7.82-11.15,7.82-11.15s.41,1.69-1.54,7.32-8,8.28-8,8.28c10.28.64,21.59-3.19,21.59-3.19a23.63,23.63,0,0,1-9.06,4.55c2.36.9,5.2-1.15,13.75-3.19s14.47.92,14.47.92c-6.78-.07-12.39,4.22-12.39,4.22,3.47-3.33,15.13-3.66,19-2.41s5.52-3.35,5.52-3.35c.38,4.66-4.31,11-7.8,14.57-4.73,4.85-18.23,11.46-30.5,5.31s-25.21-3.47-28.57,1.22C332.14,516.32,321.57,521.15,326.36,513.49Z" fill="#686175" data-primary="true"/><path d="M326.36,513.49c4.78-7.67,5.7-15.69,4.78-27.81s3.64-21.47,13.21-25.15a15,15,0,0,1,15.82,2.64c-11-1.79-12.83,9.61-12.83,9.61a11.25,11.25,0,0,1,8.66-6.15c-3.22,2.12-3.05,11.39-3.12,15.8s-5,10.79-5,10.79c4.07-1.86,7.82-11.15,7.82-11.15s.41,1.69-1.54,7.32-8,8.28-8,8.28c10.28.64,21.59-3.19,21.59-3.19a23.63,23.63,0,0,1-9.06,4.55c2.36.9,5.2-1.15,13.75-3.19s14.47.92,14.47.92c-6.78-.07-12.39,4.22-12.39,4.22,3.47-3.33,15.13-3.66,19-2.41s5.52-3.35,5.52-3.35c.38,4.66-4.31,11-7.8,14.57-4.73,4.85-18.23,11.46-30.5,5.31s-25.21-3.47-28.57,1.22C332.14,516.32,321.57,521.15,326.36,513.49Z" fill="#fff" opacity="0.6" style="isolation:isolate"/><path d="M424.51,544.27C401.8,544.07,380,558.2,369,566s-36.29,7.4-42.57-8,.11-36.4,9.11-46.93A92.42,92.42,0,0,0,344,499.85s-8.67,2-17.65,13.67-21,42.38-1.71,71.47,59.66,21.78,83.73,12.7,37.19-41.14,37.19-41.14S447.22,544.47,424.51,544.27Z" fill="#686175" data-primary="true"/><path d="M424.51,544.27C401.8,544.07,380,558.2,369,566s-36.29,7.4-42.57-8,.11-36.4,9.11-46.93A92.42,92.42,0,0,0,344,499.85s-8.67,2-17.65,13.67-21,42.38-1.71,71.47,59.66,21.78,83.73,12.7,37.19-41.14,37.19-41.14S447.22,544.47,424.51,544.27Z" fill="#fff" opacity="0.2" style="isolation:isolate"/><path d="M436,570.59c-.17.35-.35.7-.55,1a4,4,0,0,1-.72.92.72.72,0,0,1-.58.17.89.89,0,0,1-.45-.54,3.72,3.72,0,0,1-.21-.92,9.83,9.83,0,0,1-1.57,1.14,3.31,3.31,0,0,1-2.23.55,2.48,2.48,0,0,1-1.57-2.21,6.68,6.68,0,0,1,0-1.84c-.39.15-.78.29-1.17.4a5.07,5.07,0,0,1-2,.23,1.49,1.49,0,0,1-.6-.24,1.35,1.35,0,0,1-.46-.67,2.93,2.93,0,0,1,0-1.38,7,7,0,0,1,.53-1.49c-.39-.06-.78-.13-1.18-.22a6.72,6.72,0,0,1-1.79-.64,1.87,1.87,0,0,1-.45-.33,2.3,2.3,0,0,1-.23-.28,1.61,1.61,0,0,1-.12-.33,2.65,2.65,0,0,1-.05-1.22,7,7,0,0,1,.54-1.66c-.42-.13-.9-.28-1.34-.46a4.35,4.35,0,0,1-1.6-.92,2.2,2.2,0,0,1-.17-.25.87.87,0,0,1-.06-.32,2,2,0,0,1,.08-.54,5.74,5.74,0,0,1,.38-.92,10.92,10.92,0,0,1,1-1.61,14.92,14.92,0,0,0-.82,1.71,5.2,5.2,0,0,0-.3.92,1.7,1.7,0,0,0,0,.45c0,.13.07.19.16.3a4.48,4.48,0,0,0,1.51.76,15.94,15.94,0,0,0,1.64.45.33.33,0,0,1,.22.35v.09h0a7.08,7.08,0,0,0-.55,1.84,2,2,0,0,0,0,.84,1.06,1.06,0,0,0,.17.26,2.11,2.11,0,0,0,.31.21,6.3,6.3,0,0,0,1.63.51,17,17,0,0,0,1.72.25.46.46,0,0,1,.36.48.43.43,0,0,1-.06.22h0a7.65,7.65,0,0,0-.72,1.84,1.67,1.67,0,0,0,0,.83.32.32,0,0,0,.12.2.77.77,0,0,0,.29.1,4.54,4.54,0,0,0,1.72-.19,15.77,15.77,0,0,0,1.75-.61h0a.38.38,0,0,1,.45.28.71.71,0,0,1,0,.29,6,6,0,0,0-.24,2.31,2.4,2.4,0,0,0,.32,1,1.1,1.1,0,0,0,.68.59,2.93,2.93,0,0,0,1.92-.38,10.52,10.52,0,0,0,1.84-1.19h0a.16.16,0,0,1,.23.07.24.24,0,0,1,0,.12,4.57,4.57,0,0,0,.14,1.17.56.56,0,0,0,.24.39.49.49,0,0,0,.41-.1,4,4,0,0,0,.75-.79C435.55,571.28,435.79,571,436,570.59Z" fill="#686175" data-primary="true"/><path d="M406.1,558.65a1.19,1.19,0,0,1-.1-.46,3.11,3.11,0,0,1,.28-1.23c.15-.32.31-.62.48-.92s.48-.79.74-1.17h-.11a4.79,4.79,0,0,1-.72-.35l-.35-.26c-.11-.12-.21-.26-.31-.39a2.23,2.23,0,0,1-.19-.51,2.35,2.35,0,0,1,0-.53,3.46,3.46,0,0,1,.65-1.6,6.11,6.11,0,0,1,.51-.63,2.35,2.35,0,0,1-.53,0,1.52,1.52,0,0,1-1.14-.72,1.08,1.08,0,0,1,0-.79,1.54,1.54,0,0,1,.35-.59,3.67,3.67,0,0,1,1-.74,4.43,4.43,0,0,0-.87.86,1,1,0,0,0-.18,1.11,1.17,1.17,0,0,0,.92.44,4.08,4.08,0,0,0,1.1-.12h0a.23.23,0,0,1,.26.2.29.29,0,0,1-.07.25h0a6.87,6.87,0,0,0-.87,1.14,2.84,2.84,0,0,0-.47,1.29.92.92,0,0,0,.57.92,4.29,4.29,0,0,0,.58.26l.64.14a.47.47,0,0,1,.32.51.52.52,0,0,1-.09.2c-.35.53-.71,1.08-1,1.65-.15.29-.29.58-.42.86a2.83,2.83,0,0,0-.14.76v.06l.06.08a1.32,1.32,0,0,0,.29.19,3.4,3.4,0,0,0,.8.26,9.39,9.39,0,0,0,1.75.2.44.44,0,0,1,.39.44.48.48,0,0,1-.07.26c-.29.53-.57,1.07-.81,1.63a4.71,4.71,0,0,0-.41,1.69c-.08.39.43.75.92.92a4.78,4.78,0,0,0,1.59.26h0a.27.27,0,0,1,.23.27.24.24,0,0,1,0,.12,10.53,10.53,0,0,0-.43,1.23,3.43,3.43,0,0,0-.18,1.27c0,.4.44.62.79.77a3,3,0,0,0,1.15.2,2.66,2.66,0,0,1-1.19,0,1.67,1.67,0,0,1-.58-.25.89.89,0,0,1-.42-.63,3.78,3.78,0,0,1,.07-1.46,7.4,7.4,0,0,1,.26-.92,4.79,4.79,0,0,1-1.41-.18,2.87,2.87,0,0,1-.92-.43,1.72,1.72,0,0,1-.41-.44,1.64,1.64,0,0,1-.2-.66,5.23,5.23,0,0,1,.43-2.1c.14-.38.31-.75.48-1.11a8.17,8.17,0,0,1-1.21-.15,3.66,3.66,0,0,1-1-.31,1.82,1.82,0,0,1-.51-.36A1.23,1.23,0,0,1,406.1,558.65Z" fill="#686175" data-primary="true"/><path d="M426.19,574.4a16.34,16.34,0,0,0,2.25-.92,11.72,11.72,0,0,1-2.16,1.21,6.06,6.06,0,0,1-1.19.36,2.5,2.5,0,0,1-1.3-.07,1.86,1.86,0,0,1-1.05-1.08,4.49,4.49,0,0,1-.39-1.52,7.24,7.24,0,0,1,.21-2.27,17.56,17.56,0,0,1-1.77.13,5.06,5.06,0,0,1-2.48-.51,1.24,1.24,0,0,1-.32-.23,1.58,1.58,0,0,1-.29-.34,2.13,2.13,0,0,1-.28-.86,3.6,3.6,0,0,1,.2-1.56,8.05,8.05,0,0,1,.92-1.77,6,6,0,0,1-1.12-.11,2.81,2.81,0,0,1-1.74-.92,1.82,1.82,0,0,1-.37-1.1,2.09,2.09,0,0,1,.29-1.06,3.94,3.94,0,0,1,1.3-1.36,4.84,4.84,0,0,0-1.11,1.5,1.83,1.83,0,0,0-.18.92,1.53,1.53,0,0,0,.35.79,2.33,2.33,0,0,0,1.51.65,6,6,0,0,0,1.69,0h0a.35.35,0,0,1,.36.33.46.46,0,0,1-.06.28h0a8.07,8.07,0,0,0-1.1,2.22c-.25.77-.24,1.6.32,1.84a5,5,0,0,0,2.13.4,15.69,15.69,0,0,0,2.28-.15h0a.4.4,0,0,1,.42.38.49.49,0,0,1,0,.24,6.62,6.62,0,0,0-.45,2.56c0,.84.27,1.83.92,2.08a2.18,2.18,0,0,0,1.1.13A6.84,6.84,0,0,0,426.19,574.4Z" fill="#686175" data-primary="true"/><path d="M424.86,581.57a4.93,4.93,0,0,0,1.72-.58,4.45,4.45,0,0,1-1.66.92,2.07,2.07,0,0,1-1,0,1.61,1.61,0,0,1-.92-.63,4.59,4.59,0,0,1-.62-2.26,11.69,11.69,0,0,1,0-1.45,9.31,9.31,0,0,1-1.65.73,2.86,2.86,0,0,1-2.6-.29,2.58,2.58,0,0,1-.87-1.35,5.45,5.45,0,0,1-.17-1.56,8.52,8.52,0,0,1,.46-2.34,7.13,7.13,0,0,1-1.6,0,3.61,3.61,0,0,1-1-.24,1.25,1.25,0,0,1-.77-.77,1.1,1.1,0,0,0,.82.58,3.94,3.94,0,0,0,1,.08,10.59,10.59,0,0,0,1.93-.29h0a.31.31,0,0,1,.27.39h0a9.53,9.53,0,0,0-.4,2.6,2.59,2.59,0,0,0,.76,2.11,2.4,2.4,0,0,0,2,.15,9.22,9.22,0,0,0,2.08-.92h0l.05,0a.33.33,0,0,1,.43.21.48.48,0,0,1,0,.29,14.21,14.21,0,0,0-.17,2.07,4,4,0,0,0,.37,1.92A1.47,1.47,0,0,0,424.86,581.57Z" fill="#686175" data-primary="true"/><path d="M316.46,550.31a2.84,2.84,0,0,1,0-.92c0-.08,0-.18.13-.22a.25.25,0,0,1,.24,0,1.24,1.24,0,0,1,.22.18,3.86,3.86,0,0,1,.2-.74,1.63,1.63,0,0,1,.52-.81.72.72,0,0,1,.92.24,2,2,0,0,1,.33.53c.07-.13.14-.26.22-.39a2.21,2.21,0,0,1,.51-.63.43.43,0,0,1,.24-.1.34.34,0,0,1,.29.08,1,1,0,0,1,.29.44,3.16,3.16,0,0,1,.13.53,3.67,3.67,0,0,1,.92-.53.47.47,0,0,1,.43.06,1.1,1.1,0,0,1,.27.38,3.32,3.32,0,0,1,.16.62l.43-.21a1.32,1.32,0,0,1,.65-.15.28.28,0,0,1,.18.12.66.66,0,0,1,.09.19c0,.13.05.25.07.38s0,.5,0,.75a5.32,5.32,0,0,0-.11-.73c-.06-.21-.13-.53-.27-.53a2,2,0,0,0-.56.2l-.53.32h0a.14.14,0,0,1-.16-.07v0h0a2.23,2.23,0,0,0-.2-.68.69.69,0,0,0-.16-.21h-.2a3.67,3.67,0,0,0-1.07.68h0a.15.15,0,0,1-.23-.18h0a3.16,3.16,0,0,0-.16-.74.54.54,0,0,0-.15-.22s0,0-.12,0a2.17,2.17,0,0,0-.43.52c-.13.21-.26.43-.37.65l0,0a.16.16,0,0,1-.22,0,.28.28,0,0,1-.08-.11,2.08,2.08,0,0,0-.38-.74.47.47,0,0,0-.54-.2,1.36,1.36,0,0,0-.44.62,4.9,4.9,0,0,0-.29.84h0c0,.07-.11.07-.11.07h0c-.15-.23-.39-.54-.48-.23A3.78,3.78,0,0,0,316.46,550.31Z" fill="#686175" data-primary="true"/><path d="M317.49,542a7.37,7.37,0,0,0-.48.87,5.64,5.64,0,0,1,.35-.92,1.74,1.74,0,0,1,.64-.8.64.64,0,0,1,.54,0,2,2,0,0,1,.41.35,2.77,2.77,0,0,1,.37.7c.14-.16.27-.34.42-.49a1.93,1.93,0,0,1,.81-.54.55.55,0,0,1,.57.2,1.27,1.27,0,0,1,.26.55,3.38,3.38,0,0,1,.1.72l.28-.25a.9.9,0,0,1,.69-.2.71.71,0,0,1,.46.66,2,2,0,0,1-.12.77,2.36,2.36,0,0,0,0-.75.49.49,0,0,0-.37-.44.79.79,0,0,0-.53.22,3.41,3.41,0,0,0-.46.47l0,0a.14.14,0,0,1-.2,0,.43.43,0,0,1,0-.12h0A3.6,3.6,0,0,0,321,542c-.09-.3-.23-.5-.4-.43a2.26,2.26,0,0,0-.65.46,7.73,7.73,0,0,0-.6.67h0l0,0a.16.16,0,0,1-.21,0,.27.27,0,0,1-.06-.12,2.71,2.71,0,0,0-.36-.86c-.16-.23-.42-.45-.62-.36A1.57,1.57,0,0,0,317.49,542Z" fill="#686175" data-primary="true"/><path d="M322.5,523.19a6.8,6.8,0,0,0-.38.7,4.67,4.67,0,0,1,.26-.8,1.37,1.37,0,0,1,.53-.66c.31-.15.61.09.81.31a2.43,2.43,0,0,1,.28.53c.1-.13.2-.25.31-.37a1.72,1.72,0,0,1,.68-.45.48.48,0,0,1,.5.17,1.05,1.05,0,0,1,.21.47,5.34,5.34,0,0,1,.09.53,1,1,0,0,1,.76-.31.57.57,0,0,1,.38.55,1.89,1.89,0,0,1-.1.63,2.15,2.15,0,0,0,0-.62c0-.19-.16-.33-.3-.33a.61.61,0,0,0-.41.19,1.85,1.85,0,0,0-.36.38v0a.16.16,0,0,1-.21,0,.31.31,0,0,1-.06-.13h0a2.85,2.85,0,0,0-.11-.76c-.07-.24-.16-.37-.27-.31a1.5,1.5,0,0,0-.53.37,6.27,6.27,0,0,0-.49.53h0a0,0,0,0,1,0,0,.16.16,0,0,1-.23,0,.24.24,0,0,1-.06-.11,1.9,1.9,0,0,0-.28-.69c-.13-.19-.33-.36-.48-.29S322.67,523,322.5,523.19Z" fill="#686175" data-primary="true"/><path d="M318.56,532.61a2.33,2.33,0,0,0-.51.48,1.88,1.88,0,0,1,.43-.61.6.6,0,0,1,.74-.15,1.64,1.64,0,0,1,.5.69,2.9,2.9,0,0,1,.16.41,3.72,3.72,0,0,1,.41-.48,1.11,1.11,0,0,1,.92-.35,1.16,1.16,0,0,1,.74.86,3.06,3.06,0,0,1,.12.85,2.92,2.92,0,0,1,.5-.25,1.63,1.63,0,0,1,.37-.08.4.4,0,0,1,.36.14.36.36,0,0,0-.35,0,1.3,1.3,0,0,0-.32.14,5.3,5.3,0,0,0-.6.46h0a.1.1,0,0,1-.15,0,.11.11,0,0,1,0-.08h0a3.72,3.72,0,0,0-.21-.92c-.1-.28-.27-.55-.47-.55a.83.83,0,0,0-.65.28,4.73,4.73,0,0,0-.58.68h0l0,0a.16.16,0,0,1-.21,0,.27.27,0,0,1-.06-.12,4.56,4.56,0,0,0-.18-.75,1.52,1.52,0,0,0-.34-.59A.51.51,0,0,0,318.56,532.61Z" fill="#686175" data-primary="true"/><path d="M343.19,578.53a7.72,7.72,0,0,1,1.43.38,11.8,11.8,0,0,0-1.44-.18,2.73,2.73,0,0,0-.7,0,.64.64,0,0,0-.3.11.24.24,0,0,0-.13.23,6.68,6.68,0,0,0,.11,1.61c.11.55.23,1.11.37,1.65a.31.31,0,0,1-.16.36h-.1a4.05,4.05,0,0,0-1.39.11,1.12,1.12,0,0,0-.51.31.4.4,0,0,0-.09.21,1.93,1.93,0,0,0,0,.34,8.31,8.31,0,0,0,.3,1.64c.16.55.33,1.11.53,1.65a.47.47,0,0,1-.21.57.31.31,0,0,1-.19,0h0a3.83,3.83,0,0,0-1.47-.07.9.9,0,0,0-.51.24.18.18,0,0,0-.06.14.62.62,0,0,0,0,.27,5.78,5.78,0,0,0,.8,1.49c.33.47.71.95,1.07,1.39h0a.48.48,0,0,1,0,.62.3.3,0,0,1-.22.12,3.16,3.16,0,0,0-1.57.52,1.41,1.41,0,0,0-.63,1.38,3.55,3.55,0,0,0,1,1.61,11.17,11.17,0,0,0,1.47,1.27h0a.25.25,0,0,1,.07.3.3.3,0,0,1-.08.08,2.64,2.64,0,0,0-.7.5.27.27,0,0,0-.09.12.38.38,0,0,0,.16.53,2.48,2.48,0,0,0,.8.43,6.78,6.78,0,0,0,.87.28,3.94,3.94,0,0,1-1.77-.51.77.77,0,0,1-.35-.48.71.71,0,0,1,.16-.6,2.32,2.32,0,0,1,.48-.46,9.78,9.78,0,0,1-1.34-1,4.17,4.17,0,0,1-1.26-1.84,2.19,2.19,0,0,1,.83-2.23,3.54,3.54,0,0,1,1.16-.55c-.22-.28-.44-.57-.65-.87a7,7,0,0,1-.92-1.78,2,2,0,0,1-.08-.65,1.2,1.2,0,0,1,.27-.68,1.59,1.59,0,0,1,.92-.48,4.2,4.2,0,0,1,1.12,0c-.11-.35-.21-.7-.3-1.06a8.82,8.82,0,0,1-.29-1.84,3.27,3.27,0,0,1,0-.54,1.14,1.14,0,0,1,.27-.55,1.64,1.64,0,0,1,.8-.45,4.1,4.1,0,0,1,1.26,0c-.08-.4-.16-.88-.22-1.32a5.38,5.38,0,0,1,0-1.79,2.44,2.44,0,0,1,.1-.24.55.55,0,0,1,.2-.17,1,1,0,0,1,.38-.1A3.35,3.35,0,0,1,343.19,578.53Z" fill="#686175" data-primary="true"/><path d="M335.4,591.05a16.65,16.65,0,0,0,1.46,1.78,11.23,11.23,0,0,1-1.67-1.56,4.82,4.82,0,0,1-1.19-2.18,1.87,1.87,0,0,1,.29-1.36,2.82,2.82,0,0,1,.84-.88,3.87,3.87,0,0,1,1.5-.54c-.26-.49-.51-1-.74-1.5a6.81,6.81,0,0,1-.66-2.47,1.15,1.15,0,0,1,0-.37.93.93,0,0,1,.12-.4,1.34,1.34,0,0,1,.46-.57,1.93,1.93,0,0,1,1.12-.32,5.71,5.71,0,0,1,1.42.19A7.18,7.18,0,0,1,338,580,3.52,3.52,0,0,1,338,578a1.26,1.26,0,0,1,.59-.71,1.21,1.21,0,0,1,.82-.07,3.17,3.17,0,0,1,1.4.77,3.29,3.29,0,0,0-1.42-.51,1,1,0,0,0-.65.14,1,1,0,0,0-.36.56,2.91,2.91,0,0,0,.17,1.57,10.52,10.52,0,0,0,.69,1.53.4.4,0,0,1-.07.5.26.26,0,0,1-.24.05h0a5.75,5.75,0,0,0-1.84-.28,1.62,1.62,0,0,0-.77.24.65.65,0,0,0-.26.61,6.74,6.74,0,0,0,.58,2.06,20.9,20.9,0,0,0,1,2h0a.47.47,0,0,1-.1.59.29.29,0,0,1-.2.07,3.46,3.46,0,0,0-1.84.41,1.63,1.63,0,0,0-1,1.49A5.22,5.22,0,0,0,335.4,591.05Z" fill="#686175" data-primary="true"/><path d="M331.34,583.74a1.55,1.55,0,0,0,.14,1.31,5.87,5.87,0,0,0,.92,1.24,4.34,4.34,0,0,1-1.12-1.06,2,2,0,0,1-.36-1.76,2.61,2.61,0,0,1,1.1-1.2,5,5,0,0,1,.69-.35,9.42,9.42,0,0,1-.87-1,3.49,3.49,0,0,1-.76-2.26,1.83,1.83,0,0,1,.5-1.15,2.35,2.35,0,0,1,.86-.6,4.3,4.3,0,0,1,1.42-.31,7.86,7.86,0,0,1-.48-1.16,4.9,4.9,0,0,1-.21-.92,1.1,1.1,0,0,1,.2-.86,1.16,1.16,0,0,0,0,.82,4.47,4.47,0,0,0,.31.79,11.65,11.65,0,0,0,.86,1.44.36.36,0,0,1,0,.42.35.35,0,0,1-.14.06h0a4.65,4.65,0,0,0-1.6.44,1.46,1.46,0,0,0-.92,1.14,2.75,2.75,0,0,0,.6,1.57,9.14,9.14,0,0,0,1.23,1.41h0a.47.47,0,0,1,.07.59.39.39,0,0,1-.2.13,6.71,6.71,0,0,0-1.23.45A2.06,2.06,0,0,0,331.34,583.74Z" fill="#686175" data-primary="true"/><path d="M375.37,602.26a4.13,4.13,0,0,0,1.34.29,3,3,0,0,1-1.4,0,1.56,1.56,0,0,1-1.23-1.11,3.35,3.35,0,0,1,.15-1.8c.08-.27.19-.54.3-.81a5.93,5.93,0,0,1-1.19-.12,2.59,2.59,0,0,1-1.8-1.19,2.26,2.26,0,0,1-.26-1.3,4,4,0,0,1,.29-1.13,5.93,5.93,0,0,1,.87-1.34,5.66,5.66,0,0,1-1-.55,3.05,3.05,0,0,1-.64-.55,1.1,1.1,0,0,1-.33-.82,1,1,0,0,0,.43.67,4,4,0,0,0,.66.39,8.75,8.75,0,0,0,1.42.47H373a.3.3,0,0,1,.18.39.33.33,0,0,1-.07.16h0a6.4,6.4,0,0,0-.92,1.58,2,2,0,0,0,0,1.58,2.06,2.06,0,0,0,1.3.78,6.7,6.7,0,0,0,1.67.15h0a.39.39,0,0,1,.36.41.42.42,0,0,1-.06.27,8.73,8.73,0,0,0-.66,1.29,2.93,2.93,0,0,0-.25,1.37A1.29,1.29,0,0,0,375.37,602.26Z" fill="#686175" data-primary="true"/><path d="M401.31,557.61a1.45,1.45,0,0,1-.17-.84,2.57,2.57,0,0,1,.52-1.15,5.75,5.75,0,0,1,.68-.8l.46-.43a3.18,3.18,0,0,1-.62-.07,2.11,2.11,0,0,1-1-.45,1.39,1.39,0,0,1-.39-.59,2,2,0,0,1-.09-.69,2.53,2.53,0,0,1,1.09-1.93,3.78,3.78,0,0,1,1-.56l-.29-.08a1,1,0,0,1-.47-.38.75.75,0,0,1-.13-.6.76.76,0,0,0,.19.54,1.1,1.1,0,0,0,.44.26,2.86,2.86,0,0,0,1,0,.15.15,0,0,1,.17.15.19.19,0,0,1-.09.18h0a5.53,5.53,0,0,0-1.55.92,2,2,0,0,0-.78,1.53.7.7,0,0,0,.27.64,1.71,1.71,0,0,0,.72.27,5.17,5.17,0,0,0,1.71-.08h0a.41.41,0,0,1,.42.37.46.46,0,0,1-.15.43h0a12.76,12.76,0,0,0-1.4,1.25,5.12,5.12,0,0,0-.6.71,2.05,2.05,0,0,0-.35.71.37.37,0,0,0,0,.21,1,1,0,0,0,.22.23,3.25,3.25,0,0,0,.76.4,8.66,8.66,0,0,0,1.74.42h0a.42.42,0,0,1,.32.46.46.46,0,0,1-.1.26,13.87,13.87,0,0,0-1.22,1.53,3.57,3.57,0,0,0-.73,1.76.91.91,0,0,0,.38.71,2.16,2.16,0,0,0,.8.44,6,6,0,0,0,1.84.2,4.57,4.57,0,0,1-1.84.1,2.24,2.24,0,0,1-1-.36,1.68,1.68,0,0,1-.41-.43,1.4,1.4,0,0,1-.22-.66,4.17,4.17,0,0,1,.69-2.19,11.74,11.74,0,0,1,.74-1.1,8.29,8.29,0,0,1-1.19-.3,3.54,3.54,0,0,1-.92-.49A1.7,1.7,0,0,1,401.31,557.61Z" fill="#686175" data-primary="true"/><path d="M396.13,557.32a2.65,2.65,0,0,1-.07-.48,3.23,3.23,0,0,1,.44-1.32,9.06,9.06,0,0,1,.67-1,12.15,12.15,0,0,1,.86-1h-.34a1.79,1.79,0,0,1-.67-.2.75.75,0,0,1-.31-.35.65.65,0,0,1,0-.51,2.41,2.41,0,0,1,.85-1.09,7.19,7.19,0,0,1,1.05-.67,12.48,12.48,0,0,0-.92.86,2.31,2.31,0,0,0-.63,1c0,.16,0,.23.16.29a1.11,1.11,0,0,0,.51.1,4.73,4.73,0,0,0,1.12-.16h0a.29.29,0,0,1,.33.25.37.37,0,0,1-.07.32h0c-.49.55-.94,1.12-1.37,1.71a8.77,8.77,0,0,0-.57.92,2.34,2.34,0,0,0-.31.92c-.1.31.64.56,1.27.56a12,12,0,0,0,2-.14h0a.39.39,0,0,1,.41.36.48.48,0,0,1-.1.37,14.64,14.64,0,0,0-1.15,1.45,5.24,5.24,0,0,0-.83,1.63,1.19,1.19,0,0,0,.69,1.38,4.58,4.58,0,0,0,1.7.46,3.88,3.88,0,0,1-1.79-.15,1.7,1.7,0,0,1-.84-.63A1.77,1.77,0,0,1,398,561a6,6,0,0,1,.79-2c.15-.25.3-.49.47-.72a10.33,10.33,0,0,1-1.13,0,3.42,3.42,0,0,1-1.14-.2,1.4,1.4,0,0,1-.3-.15,1.38,1.38,0,0,1-.31-.28A1.13,1.13,0,0,1,396.13,557.32Z" fill="#686175" data-primary="true"/><path d="M361.75,573.76a.26.26,0,0,1-.1.23h0a7.06,7.06,0,0,0-1,.92,2.63,2.63,0,0,0-.67,1.15,1,1,0,0,0,.42,1,5.22,5.22,0,0,0,.54.38l.61.29a.49.49,0,0,1,.23.56.71.71,0,0,1-.12.18,16.59,16.59,0,0,0-1.28,1.37,8.12,8.12,0,0,0-.56.75,2.14,2.14,0,0,0-.33.72c0,.07,0,0,0,.07a.09.09,0,0,1,.05.08,2.06,2.06,0,0,0,.26.25,3.48,3.48,0,0,0,.75.43,10.37,10.37,0,0,0,1.7.59.46.46,0,0,1,.31.52.37.37,0,0,1-.1.23,14.42,14.42,0,0,0-1.06,1.41,4.27,4.27,0,0,0-.68,1.56c-.12.37.34.84.8,1.13a5.21,5.21,0,0,0,1.53.61h0a.29.29,0,0,1,.19.31.61.61,0,0,1-.05.12,11.84,11.84,0,0,0-.63,1.09,3.11,3.11,0,0,0-.38,1.21c-.05.38.33.69.65.92a3.76,3.76,0,0,0,1.12.45,3,3,0,0,1-1.18-.3,2,2,0,0,1-.53-.38,1,1,0,0,1-.32-.71,3.65,3.65,0,0,1,.31-1.41c.12-.29.26-.58.41-.86a5.44,5.44,0,0,1-1.37-.48,3.05,3.05,0,0,1-.8-.63,1.52,1.52,0,0,1-.32-.51,1.45,1.45,0,0,1-.1-.68,4.85,4.85,0,0,1,.76-2c.21-.34.43-.67.66-1-.4-.12-.8-.26-1.19-.42a4.93,4.93,0,0,1-.92-.52,2,2,0,0,1-.45-.46,1.46,1.46,0,0,1-.18-.38,1.24,1.24,0,0,1,0-.47,3,3,0,0,1,.48-1.14,8.43,8.43,0,0,1,.62-.82c.3-.35.61-.67.92-1l-.1-.05a6.36,6.36,0,0,1-.66-.5l-.3-.33a3.88,3.88,0,0,1-.24-.45,2.55,2.55,0,0,1-.11-.55,2.94,2.94,0,0,1,0-.51,3.21,3.21,0,0,1,.92-1.42,5.58,5.58,0,0,1,.6-.49,3.8,3.8,0,0,1-.51-.15,1.66,1.66,0,0,1-1-.92,1,1,0,0,1,.09-.77,1.38,1.38,0,0,1,.43-.5,3.69,3.69,0,0,1,1.08-.51,4,4,0,0,0-1,.65,1,1,0,0,0-.37,1,1.27,1.27,0,0,0,.87.64,3.79,3.79,0,0,0,1.11.13A.27.27,0,0,1,361.75,573.76Z" fill="#686175" data-primary="true"/><path d="M357.81,576.48a.43.43,0,0,1-.22.4h0a10.84,10.84,0,0,0-1.58.92,7.59,7.59,0,0,0-.71.56,1.89,1.89,0,0,0-.46.62.34.34,0,0,0,0,.2.77.77,0,0,0,.19.28,3.33,3.33,0,0,0,.68.56,10.09,10.09,0,0,0,1.65.81h0a.44.44,0,0,1,.24.52.43.43,0,0,1-.14.23A13.11,13.11,0,0,0,356,582.8a3.23,3.23,0,0,0-1,1.53,1,1,0,0,0,.26.79,2.43,2.43,0,0,0,.72.6,6.1,6.1,0,0,0,1.8.62,5.05,5.05,0,0,1-1.89-.33,2.59,2.59,0,0,1-.92-.57,1.8,1.8,0,0,1-.34-.52,1.44,1.44,0,0,1-.11-.68,3.93,3.93,0,0,1,1.05-2,11.41,11.41,0,0,1,.92-.92,6.21,6.21,0,0,1-1.13-.55,4.18,4.18,0,0,1-.87-.7,1.82,1.82,0,0,1-.37-.61,1.24,1.24,0,0,1,0-.85,2.18,2.18,0,0,1,.69-1,5.35,5.35,0,0,1,.8-.62c.17-.12.35-.21.52-.31-.2-.07-.39-.13-.6-.22a2.33,2.33,0,0,1-.92-.67,1.46,1.46,0,0,1-.29-.66,2,2,0,0,1,0-.69,2.31,2.31,0,0,1,1.38-1.64,4.62,4.62,0,0,1,1.08-.32,1.74,1.74,0,0,1-.27-.14,1,1,0,0,1-.41-.47.83.83,0,0,1,0-.62.78.78,0,0,0,.1.58,1.35,1.35,0,0,0,.4.35,3.16,3.16,0,0,0,1,.23.17.17,0,0,1,.14.18.17.17,0,0,1-.12.16h0a5.25,5.25,0,0,0-1.68.54,1.82,1.82,0,0,0-1,1.31.76.76,0,0,0,.16.68,1.81,1.81,0,0,0,.67.42,5.29,5.29,0,0,0,1.72.32A.45.45,0,0,1,357.81,576.48Z" fill="#686175" data-primary="true"/><path d="M350.7,573.66a.28.28,0,0,0,.12.32,1.3,1.3,0,0,0,.49.2,4.36,4.36,0,0,0,1.14.1.33.33,0,0,1,.3.33.35.35,0,0,1-.12.29h0a17.69,17.69,0,0,0-1.63,1.35,7.36,7.36,0,0,0-.71.77,2,2,0,0,0-.46.81c-.15.28.55.68,1.18.83a11,11,0,0,0,2,.3h0a.41.41,0,0,1,.35.44.42.42,0,0,1-.16.33,15,15,0,0,0-1.36,1.15,4.69,4.69,0,0,0-1.09,1.41,1.23,1.23,0,0,0,.46,1.5,5.13,5.13,0,0,0,1.61.83,4.13,4.13,0,0,1-1.75-.55,1.77,1.77,0,0,1-.72-.81,1.59,1.59,0,0,1,0-1.21,5.35,5.35,0,0,1,1.09-1.72,6.55,6.55,0,0,1,.58-.6,8.47,8.47,0,0,1-1.12-.2,3.65,3.65,0,0,1-1.1-.45,1.51,1.51,0,0,1-.28-.22,1.4,1.4,0,0,1-.26-.34,1.6,1.6,0,0,1-.16-.48,1.85,1.85,0,0,1,0-.47,2.8,2.8,0,0,1,.66-1.19,6.2,6.2,0,0,1,.81-.81c.33-.28.67-.54,1-.79a1.4,1.4,0,0,0-.34-.08,2,2,0,0,1-.64-.34,1,1,0,0,1-.26-.42.79.79,0,0,1,.05-.5,2.12,2.12,0,0,1,1-.86,6,6,0,0,1,1.14-.42,11.22,11.22,0,0,0-1.05.63A2.1,2.1,0,0,0,350.7,573.66Z" fill="#686175" data-primary="true"/><path d="M418,591.54a2.78,2.78,0,0,1-1.31.13,1.23,1.23,0,0,1-.92-.92,15,15,0,0,1-1.61.51,5.67,5.67,0,0,1-1.84.17,1.29,1.29,0,0,1-1-.6,4,4,0,0,1-.4-1.11,8.44,8.44,0,0,1-.11-1.74,8.42,8.42,0,0,1-1.42,0,4,4,0,0,1-.92-.22,1.58,1.58,0,0,1-.92-.74,3.07,3.07,0,0,1-.29-1.22,6.86,6.86,0,0,1,0-1.11,14.25,14.25,0,0,1,.17-1.48,6.86,6.86,0,0,1-1.11,0,3.29,3.29,0,0,1-.87-.18,1.64,1.64,0,0,1-.92-.67,2.23,2.23,0,0,1-.3-1.16,4,4,0,0,1,.1-1,7.37,7.37,0,0,1,.36-1.3,4.62,4.62,0,0,1-1.34-.41,2.86,2.86,0,0,1-.84-.62,2,2,0,0,1-.5-1.11,3.7,3.7,0,0,1,.44-2.14,7.19,7.19,0,0,1,.84-1.51,3.14,3.14,0,0,1-.52-.51,2.59,2.59,0,0,1-.48-.84,1.85,1.85,0,0,1,0-1,2.6,2.6,0,0,1,.4-.82,2.17,2.17,0,0,0-.3.85,1.61,1.61,0,0,0,.1.92,2.58,2.58,0,0,0,1.12,1.23.22.22,0,0,1,.07.24h0a9.52,9.52,0,0,0-.92,1.65,3.25,3.25,0,0,0-.31,1.84,1.57,1.57,0,0,0,1.05,1.15,5,5,0,0,0,1.62.33.39.39,0,0,1,.34.41.48.48,0,0,1,0,.17h0a8.79,8.79,0,0,0-.46,1.67,2.29,2.29,0,0,0,.09,1.46,1.45,1.45,0,0,0,1.17.47,6.75,6.75,0,0,0,1.49-.1h0a.42.42,0,0,1,.44.39.67.67,0,0,1,0,.2,16.09,16.09,0,0,0-.27,2,7.85,7.85,0,0,0,0,1,2,2,0,0,0,.16.8,1,1,0,0,0,.52.38,3.72,3.72,0,0,0,.8.19,8.77,8.77,0,0,0,1.7.07h0a.37.37,0,0,1,.36.37v.1a6.44,6.44,0,0,0,0,2,2.63,2.63,0,0,0,.26.92.79.79,0,0,0,.58.36,5.1,5.1,0,0,0,1.7,0,12.73,12.73,0,0,0,1.73-.39h0a.12.12,0,0,1,.14.11h0a1,1,0,0,0,.77,1A2.72,2.72,0,0,0,418,591.54Z" fill="#686175" data-primary="true"/><path d="M405.88,592.18a13.35,13.35,0,0,0,2,0,10.37,10.37,0,0,1-2,.28,2.55,2.55,0,0,1-2.06-.65,1.63,1.63,0,0,1-.27-1.37,4.42,4.42,0,0,1,.42-1.17,8.77,8.77,0,0,1,.57-.92,9.66,9.66,0,0,1-1.51.23,6,6,0,0,1-1.34,0,2.83,2.83,0,0,1-1.39-.53,1.89,1.89,0,0,1-.57-.74,2.4,2.4,0,0,1-.19-.92,4.76,4.76,0,0,1,.32-1.62,10.54,10.54,0,0,1,.92-1.84,4.74,4.74,0,0,1-1.19-.09,2.56,2.56,0,0,1-1.84-1.13,2.14,2.14,0,0,1-.22-1.24,3.6,3.6,0,0,1,.34-1.1,6,6,0,0,1,1.22-1.69,7.49,7.49,0,0,0-1,1.84,3,3,0,0,0-.21,1,1.84,1.84,0,0,0,.22.92,2.06,2.06,0,0,0,1.54.76,7.55,7.55,0,0,0,1.84-.08.35.35,0,0,1,.37.35.46.46,0,0,1-.06.3h0a10.77,10.77,0,0,0-1.26,2.4c-.32.84-.4,1.8.16,2.17a3.66,3.66,0,0,0,2.25.41,17,17,0,0,0,2.45-.36h0a.37.37,0,0,1,.39.33.45.45,0,0,1-.1.37,11.07,11.07,0,0,0-1.27,1.64c-.33.61-.67,1.37-.33,1.84A2.57,2.57,0,0,0,405.88,592.18Z" fill="#686175" data-primary="true"/><path d="M407.27,574.24a6.93,6.93,0,0,1,1.32-1.77,8.92,8.92,0,0,0-1.08,1.93,4.92,4.92,0,0,0-.3,1.06,2.75,2.75,0,0,0,0,1.07,1.42,1.42,0,0,0,1.31,1.1,4.76,4.76,0,0,0,1.84-.15h0a.36.36,0,0,1,.42.32.47.47,0,0,1,0,.33h0a12.37,12.37,0,0,0-.87,1.84,6,6,0,0,0-.25.92,1.06,1.06,0,0,0,.09.7,1,1,0,0,0,.59.28,4.22,4.22,0,0,0,.87,0,10.69,10.69,0,0,0,1.78-.31h0a.37.37,0,0,1,.41.32.5.5,0,0,1,0,.34,8.35,8.35,0,0,0-.85,2c-.2.71-.23,1.49.27,1.84a2.42,2.42,0,0,0,1.84.24,8.59,8.59,0,0,0,1.92-.61,7.55,7.55,0,0,1-1.84.92,2.42,2.42,0,0,1-2.13-.1,1.63,1.63,0,0,1-.69-1.17A3.72,3.72,0,0,1,412,584a9,9,0,0,1,.45-1.42,7.06,7.06,0,0,1-1.12.18,4.27,4.27,0,0,1-1,0,1.7,1.7,0,0,1-1.12-.61,2.07,2.07,0,0,1-.24-1.44,5.09,5.09,0,0,1,.31-1.16,8.82,8.82,0,0,1,.54-1.17,4.38,4.38,0,0,1-1.3-.08,2.42,2.42,0,0,1-1.05-.52,2,2,0,0,1-.63-1.19A3.71,3.71,0,0,1,407.27,574.24Z" fill="#686175" data-primary="true"/><path d="M388.33,591.45a2.84,2.84,0,0,0,1.28.28,2.69,2.69,0,0,1-1.32-.12,1.33,1.33,0,0,1-.82-1.1,13.23,13.23,0,0,1-1.66.22,5.71,5.71,0,0,1-1.84-.18,1.38,1.38,0,0,1-.92-.76,3.82,3.82,0,0,1-.25-1.15,8.45,8.45,0,0,1,.13-1.74,9.66,9.66,0,0,1-1.42-.29,4.32,4.32,0,0,1-.92-.37,1.76,1.76,0,0,1-.86-.92,3.31,3.31,0,0,1-.12-1.25,6.8,6.8,0,0,1,.15-1.09,11.81,11.81,0,0,1,.36-1.42,6,6,0,0,1-1.11-.17,3.58,3.58,0,0,1-.84-.33,1.72,1.72,0,0,1-.78-.82,2.22,2.22,0,0,1-.16-1.19,4.75,4.75,0,0,1,.23-1,7.76,7.76,0,0,1,.53-1.22,5.05,5.05,0,0,1-1.27-.64,3.13,3.13,0,0,1-.77-.77,2.14,2.14,0,0,1-.35-1.17,3.65,3.65,0,0,1,.72-2,7.09,7.09,0,0,1,1.16-1.29,3.6,3.6,0,0,1-.45-.58,2.67,2.67,0,0,1-.36-.92,1.65,1.65,0,0,1,0-1,2.17,2.17,0,0,1,.49-.74,2.13,2.13,0,0,0-.41.79,1.6,1.6,0,0,0,0,.92,2.88,2.88,0,0,0,1,1.41.23.23,0,0,1,0,.25h0a8.06,8.06,0,0,0-1.15,1.45,3.16,3.16,0,0,0-.55,1.72,1.67,1.67,0,0,0,.92,1.31,5.56,5.56,0,0,0,1.58.63.41.41,0,0,1,.28.47.83.83,0,0,1,0,.15h0a8.29,8.29,0,0,0-.68,1.56,2.25,2.25,0,0,0-.09,1.45,1.64,1.64,0,0,0,1.11.67,6.14,6.14,0,0,0,1.49.18.45.45,0,0,1,.41.46.54.54,0,0,1,0,.18,15.7,15.7,0,0,0-.52,1.9,5.68,5.68,0,0,0-.14.92,2.33,2.33,0,0,0,0,.83,1.14,1.14,0,0,0,.47.46,5.41,5.41,0,0,0,.78.34,8.66,8.66,0,0,0,1.68.36h0a.42.42,0,0,1,.31.45v.08a6.66,6.66,0,0,0-.26,1.93,2.64,2.64,0,0,0,.14.92.91.91,0,0,0,.54.46,5.12,5.12,0,0,0,1.7.26,14.8,14.8,0,0,0,1.76-.07h0c.06,0,.13.06.13.14h0a1.14,1.14,0,0,0,.16.65A1.07,1.07,0,0,0,388.33,591.45Z" fill="#686175" data-primary="true"/><path d="M377.45,590.2a16.66,16.66,0,0,0,2,.39,11.46,11.46,0,0,1-2-.09,2.72,2.72,0,0,1-2-1,1.65,1.65,0,0,1-.09-1.39,4.17,4.17,0,0,1,.57-1.06,7.67,7.67,0,0,1,.68-.81,9.79,9.79,0,0,1-1.53-.06,6,6,0,0,1-1.32-.25,3.11,3.11,0,0,1-1.32-.78,2,2,0,0,1-.47-.83,2.38,2.38,0,0,1-.07-.92,4.2,4.2,0,0,1,.54-1.52,9,9,0,0,1,1.2-1.67,5.38,5.38,0,0,1-1.18-.3,2.76,2.76,0,0,1-1.69-1.45,2.08,2.08,0,0,1-.06-1.26,3.47,3.47,0,0,1,.48-1,5.44,5.44,0,0,1,1.44-1.43,6.48,6.48,0,0,0-1.24,1.6,3.43,3.43,0,0,0-.35.92,1.82,1.82,0,0,0,.11.92,2.26,2.26,0,0,0,1.41,1,7.15,7.15,0,0,0,1.84.24.41.41,0,0,1,.33.42.39.39,0,0,1-.11.27h0a10.09,10.09,0,0,0-1.55,2.13c-.42.77-.63,1.7-.13,2.16a3.79,3.79,0,0,0,2.18.81,17.37,17.37,0,0,0,2.5.09h0a.44.44,0,0,1,.21.75,9.15,9.15,0,0,0-1.48,1.37c-.42.51-.82,1.21-.55,1.73A2.76,2.76,0,0,0,377.45,590.2Z" fill="#686175" data-primary="true"/><path d="M389,585.58a6.89,6.89,0,0,1-2,.58,2.53,2.53,0,0,1-2.11-.47,1.71,1.71,0,0,1-.53-1.28,3.55,3.55,0,0,1,.23-1.29,6.32,6.32,0,0,1,.63-1.31,7.11,7.11,0,0,1-1.13,0,3.77,3.77,0,0,1-1-.2,1.69,1.69,0,0,1-1-.8,2,2,0,0,1-.06-1.46,5.16,5.16,0,0,1,.46-1.08,8,8,0,0,1,.69-1.06,4.34,4.34,0,0,1-1.28-.3,2.46,2.46,0,0,1-1-.7,2.16,2.16,0,0,1-.47-1.28,3.44,3.44,0,0,1,.78-2.26,6.81,6.81,0,0,1,1.53-1.5,8.34,8.34,0,0,0-1.32,1.7,3.6,3.6,0,0,0-.42,1,2.3,2.3,0,0,0-.12,1,1.51,1.51,0,0,0,1.16,1.33,5.18,5.18,0,0,0,1.84.19.38.38,0,0,1,.38.39.39.39,0,0,1-.09.31h0a12.07,12.07,0,0,0-1.09,1.65,4.32,4.32,0,0,0-.37.92.74.74,0,0,0,.55,1.08,5,5,0,0,0,.87.19,11.3,11.3,0,0,0,1.84,0h0a.44.44,0,0,1,.19.07.45.45,0,0,1,.1.63,8.62,8.62,0,0,0-1.1,1.84,1.63,1.63,0,0,0,0,1.84,2.48,2.48,0,0,0,1.79.57A8.2,8.2,0,0,0,389,585.58Z" fill="#686175" data-primary="true"/><path d="M322,563.34a.32.32,0,0,1,0,.14.31.31,0,0,1-.33.3,4.7,4.7,0,0,0-.92-.09.65.65,0,0,0-.56,0,.67.67,0,0,0-.28.9,8.94,8.94,0,0,0,.11,1h0a.27.27,0,0,1-.18.34h-.07a2.72,2.72,0,0,0-.85.07.92.92,0,0,0-.35.19c-.09,0-.09.16-.09.33a4.11,4.11,0,0,0,.16,1,10.6,10.6,0,0,0,.31,1.06h0a.12.12,0,0,1-.06.14h0a.5.5,0,0,0-.36.5,2.48,2.48,0,0,0,.08.81,2.43,2.43,0,0,1-.18-.83.72.72,0,0,1,.32-.65,9.35,9.35,0,0,1-.38-.92,4.7,4.7,0,0,1-.25-1.17.94.94,0,0,1,.19-.68,1.28,1.28,0,0,1,.48-.31,2.9,2.9,0,0,1,.71-.15,5.58,5.58,0,0,1-.11-.82,3.11,3.11,0,0,1,0-.61,1.06,1.06,0,0,1,.27-.7,1.68,1.68,0,0,1,1.06-.3h.57a3.68,3.68,0,0,1-.08-.58,1.69,1.69,0,0,1,.25-1.22,1.08,1.08,0,0,1,1-.24,2.55,2.55,0,0,1,.54.15,3.84,3.84,0,0,1,.07-.76,1.7,1.7,0,0,1,.22-.58.77.77,0,0,1,.48-.38,1.39,1.39,0,0,1,1,.19,3.76,3.76,0,0,1,.72.54,1.41,1.41,0,0,1,.52-.64.74.74,0,0,1,.84.17.66.66,0,0,0-.78,0,1.33,1.33,0,0,0-.43.74,0,0,0,0,1,0,0,.09.09,0,0,1-.13.05h0a4.16,4.16,0,0,0-.81-.49,1.06,1.06,0,0,0-.8-.11c-.44.15-.44,1-.37,1.66a.28.28,0,0,1-.22.33h-.1a3.52,3.52,0,0,0-.77-.21.74.74,0,0,0-.58.1,1.07,1.07,0,0,0-.08.68,5.73,5.73,0,0,0,.17.92Z" fill="#686175" data-primary="true"/><path d="M317.35,559.31c-.17-.22-.36-.38-.48-.33a1.21,1.21,0,0,0-.33.68c-.08.3-.12.61-.18.92a5.24,5.24,0,0,1,0-1,1.37,1.37,0,0,1,.34-1,.5.5,0,0,1,.55,0,1.55,1.55,0,0,1,.39.33l.1.11v-.43a2.45,2.45,0,0,1,.39-1.31.78.78,0,0,1,.33-.24.86.86,0,0,1,.39,0,1.34,1.34,0,0,1,.57.34,3.2,3.2,0,0,1,.43.47,1.09,1.09,0,0,0,.08-.31,1.18,1.18,0,0,1,.56-.8.77.77,0,0,1,.83.34,2.71,2.71,0,0,1,.46.77,3.41,3.41,0,0,0-.58-.62.55.55,0,0,0-.58-.14,1,1,0,0,0-.29.61,4,4,0,0,0-.07.85v0a.25.25,0,0,1-.26.23.22.22,0,0,1-.18-.1h0a4.71,4.71,0,0,0-.7-.78c-.26-.21-.49-.3-.57-.14a2,2,0,0,0-.24.92,7.58,7.58,0,0,0-.06,1.17h0v0a.25.25,0,0,1-.26.24.27.27,0,0,1-.21-.15A4.2,4.2,0,0,0,317.35,559.31Z" fill="#686175" data-primary="true"/><path d="M328.7,512a4.36,4.36,0,0,0-.4.35,2.51,2.51,0,0,1,.32-.46c.13-.13.22-.36.51-.29s.36.41.36.6c0,0,0,.13,0,.07s.09-.12.14-.17a1.16,1.16,0,0,1,.66-.44.48.48,0,0,1,.44.25,1.39,1.39,0,0,1,.17.44,3,3,0,0,1,.06.42l.12-.11a.63.63,0,0,1,.56-.1.65.65,0,0,1,.3.55,1.88,1.88,0,0,1,0,.58,2.52,2.52,0,0,0-.08-.55c-.05-.18,0-.3-.25-.34s-.47.24-.65.49l0,0a.13.13,0,0,1-.19,0,.24.24,0,0,1-.07-.13h0a2.68,2.68,0,0,0-.08-.7c-.06-.23-.14-.33-.22-.33a.89.89,0,0,0-.43.31c-.15.16-.29.33-.43.51h0l0,0a.16.16,0,0,1-.21,0,.21.21,0,0,1-.05-.17,5,5,0,0,0,0-.55c0-.19,0-.38-.12-.38A.63.63,0,0,0,328.7,512Z" fill="#686175" data-primary="true"/><path d="M329.56,568.22a1.52,1.52,0,0,0-1.2-.09c-.34.15-.43.53-.43,1a5.17,5.17,0,0,0,.28,1.45.43.43,0,0,1-.21.52.28.28,0,0,1-.28,0h0a8,8,0,0,0-1.12-.6,1.67,1.67,0,0,0-.54-.15.4.4,0,0,0-.34,0,.69.69,0,0,0-.06.4,3,3,0,0,0,0,.67,13.59,13.59,0,0,0,.34,1.4h0a.42.42,0,0,1-.22.52.32.32,0,0,1-.27,0,4.53,4.53,0,0,0-1.2-.61c-.4-.13-.78-.12-.92.21a2.49,2.49,0,0,0,0,1.43,10.56,10.56,0,0,0,.51,1.53,7.32,7.32,0,0,1-.77-1.43,2.8,2.8,0,0,1-.19-1.78,1,1,0,0,1,.66-.67,1.55,1.55,0,0,1,.8,0,4,4,0,0,1,.67.21c-.06-.22-.12-.43-.16-.66a4.8,4.8,0,0,1-.08-.85,1.48,1.48,0,0,1,.26-1,.92.92,0,0,1,.92-.28,2.63,2.63,0,0,1,.73.25,4.63,4.63,0,0,1,.54.29,3.75,3.75,0,0,1,0-.82,2.41,2.41,0,0,1,.2-.92,1.13,1.13,0,0,1,.68-.59,1.71,1.71,0,0,1,1.46.34,4.54,4.54,0,0,1,1.12,1A5.86,5.86,0,0,0,329.56,568.22Z" fill="#686175" data-primary="true"/><path d="M392.73,571.14a8.1,8.1,0,0,0,1.62-.37,6.1,6.1,0,0,1-1.57.69,2,2,0,0,1-1.79-.19,1.5,1.5,0,0,1-.55-1,3.26,3.26,0,0,1,.1-1.12,7.3,7.3,0,0,1,.37-1,5.55,5.55,0,0,1-.82.06,4,4,0,0,1-.85-.07,1.46,1.46,0,0,1-.92-.6,1.84,1.84,0,0,1-.16-1.28,4.74,4.74,0,0,1,.31-.92,9.44,9.44,0,0,1,.43-.84,2.82,2.82,0,0,1-.92-.15,2,2,0,0,1-.88-.5,1.83,1.83,0,0,1-.49-1,3,3,0,0,1,.52-2,5.53,5.53,0,0,1,1.18-1.37,7.3,7.3,0,0,0-.92,1.54,3,3,0,0,0-.3,1.72,1.17,1.17,0,0,0,1,.93,4.37,4.37,0,0,0,1.53,0h0a.37.37,0,0,1,.4.35.45.45,0,0,1-.06.32h0a8.8,8.8,0,0,0-.78,1.45,3.28,3.28,0,0,0-.24.75.77.77,0,0,0,0,.52.68.68,0,0,0,.44.23,2.81,2.81,0,0,0,.71.07,9.15,9.15,0,0,0,1.48-.13h0a.38.38,0,0,1,.41.35.44.44,0,0,1-.07.33,7.66,7.66,0,0,0-.78,1.57c-.19.54-.25,1.16.12,1.46A2,2,0,0,0,392.73,571.14Z" fill="#686175" data-primary="true"/><path d="M519.54,510.61s-25.25,10.21-27.34,9.52-16.94-6.24-21.41-6.52l.34,8.52,1.31.24,10,1.84c6.23,1.14,12.84,2.35,13.48,2.51,1.24.27,25.32-13.69,25.32-13.69Z" fill="#ffb8ca"/><path d="M470.76,519.89a10.49,10.49,0,0,0-1.5,1.48l1.18,1,10.24,1.52C478.49,519.83,470.76,519.89,470.76,519.89Z" fill="#f9aac0"/><path d="M428,542.36s.28-1.27.8-3.11c.36-1.35.86-3,1.47-4.84l.22-.67a50.82,50.82,0,0,1,3.34-7.86c1.69-3.09,3.69-5.47,5.91-5.75a16,16,0,0,0,2-.41c.66-.14,1.42-.35,2.24-.58,5.33-1.49,13.66-4.09,20.1-5.17.92-.16,1.84-.29,2.76-.36a14.41,14.41,0,0,1,4,0,18.34,18.34,0,0,1,2,6.29,44.16,44.16,0,0,1-.24,14c-2.27,13.94-15.84,13.81-15.84,13.81a34.32,34.32,0,0,1-10.49,10c-6.94,4.27-23.62-12.48-23.62-12.48Z" fill="#ffb8ca"/><path d="M430,535.14a51.81,51.81,0,0,1,3.34-7.86,17.49,17.49,0,0,1,5.52,3.14s-4.16,5-9,5.39Z" fill="#f9aac0"/><path d="M461.5,516.48a8.09,8.09,0,0,0-5.95-2.28,6.45,6.45,0,0,0-4.75,2.12l0,0a.23.23,0,1,1-.32-.34,6.84,6.84,0,0,1,5.06-2.27,8.41,8.41,0,0,1,6.29,2.39h0a.24.24,0,0,1-.17.4A.2.2,0,0,1,461.5,516.48Z" fill="#686175" data-primary="true"/><path d="M450.73,516.73c.84-.75.72-2.65.43-4.29a25.3,25.3,0,0,0-.69-2.76l10.33,3.93c-1.21,3.6,2.47,3.6,2.47,3.6a7.89,7.89,0,0,1-.1,1.09,10.52,10.52,0,0,1-6.32,8.49c-6.46,2.73-13.6-6.82-13.6-6.82S449.11,518.11,450.73,516.73Z" fill="#ffb8ca"/><path d="M450.5,509.67l10.34,3.93c0,3.34,2.45,4,2.45,4a3.53,3.53,0,0,1-.08.72c-6.28,2.9-11.34.15-12-5.9A21.24,21.24,0,0,0,450.5,509.67Z" fill="#f9aac0"/><path d="M440.55,544.67c-.1,0-9.47-3-12.73-9.61v0a.21.21,0,0,1,.12-.27.22.22,0,0,1,.3.1c3.18,6.43,12.36,9.37,12.45,9.37h0a.23.23,0,0,1,.14.29.25.25,0,0,1-.22.16Z" fill="#686175" data-primary="true"/><path d="M467.71,535.56a.23.23,0,0,1-.19-.26c1-6.61-1.65-14.89-6.1-18.84a.22.22,0,0,1,0-.32h0a.21.21,0,0,1,.31,0c4.64,4.12,7.32,12.39,6.25,19.25a.23.23,0,0,1-.23.2Z" fill="#686175" data-primary="true"/><path d="M446.83,537.39h0a.22.22,0,0,1-.1-.29,29.82,29.82,0,0,0,2.1-10.92v-1.89c-.05-2.89-.12-6.13,1.65-8.28a.22.22,0,0,1,.32,0h0a.25.25,0,0,1,0,.33c-1.66,2-1.59,5.19-1.54,7.95v1.91a30.3,30.3,0,0,1-2.14,11.09.23.23,0,0,1-.21.13Z" fill="#686175" data-primary="true"/><path d="M470.44,536.75c.89-3-.45-4-1.55-3.52s-3,3.59-3,3.59-.59-1.39-1.56-1.14-2.89,3.93-2.89,3.93a1.45,1.45,0,0,0-2-.82c-1.45.62-5.59,9-4.35,9A15.06,15.06,0,0,0,470.44,536.75Z" fill="#686175" data-primary="true"/><path d="M468.89,533.23c-1.11.44-3,3.59-3,3.59s-.58-1.38-1.57-1.14-2.88,3.92-2.88,3.92a1.3,1.3,0,0,0-.08-.17,1.42,1.42,0,0,0-1.89-.65c-1.45.64-5.59,9-4.34,9a15.81,15.81,0,0,0,7.45-1.47h.08a15.67,15.67,0,0,0,7.8-9.53C471.32,533.75,470,532.79,468.89,533.23Z" fill="#fff" opacity="0.6" style="isolation:isolate"/><path d="M468.9,535.61c-.53,2.33-3.67,7.23-4.06,7.85.22-.48,1.43-3.06,1-4.82-.48-2-1.22-2.38-1.64-.78s-2.14,6.59-2.25,6.9c.36-1.51-.43-4.49-.76-4.52s-3.94,5-3.13,5.72,4.49.35,4.49.35h.08a15.67,15.67,0,0,0,7.8-9.53C470.46,534,469.46,533.17,468.9,535.61Z" fill="#fff" opacity="0.6" style="isolation:isolate"/><path d="M446.93,504.72a.25.25,0,0,1-.16-.28s.43-2.35-9.58-5.95c-6.09-2.2-10.49-7.31-10-11.63.2-1.87,1.55-5.15,8.2-6h0a.22.22,0,0,1,.24.2.23.23,0,0,1-.2.26c-4.7.6-7.48,2.58-7.8,5.59-.41,4.13,3.81,9,9.71,11.15,10.41,3.75,9.95,6.24,9.86,6.51a.24.24,0,0,1-.21.16Z" fill="#272727"/><path d="M466.47,511.06c19-.37,14.9-18.54,28.61-26.53s12.27-18.62,7.27-24.55-34.27-10.6-34.89-13.28,6.44-5.52,6.44-5.52c-16.25,3.38-15.68,12.68-7.47,14.83s20.45,6.89,14.23,11-14.66,1.51-29.49,4.15-16.2,12-15,19.14,5.78,9.72,12.69,15.75C448.85,506.09,447.48,511.42,466.47,511.06Z" fill="#272727"/><path d="M462.17,511.32c11.35,2,20.71-26.32-2.2-29.29-18.25-2.39-14.3,17.48-14.3,17.48S450.83,509.34,462.17,511.32Z" fill="#272727"/><path d="M459.94,515c-9.65,2.78-12.34-4.25-12.27-14.37,0-8.11,2.3-12.45,10.13-12.95C470.83,486.8,473.05,511.19,459.94,515Z" fill="#ffb8ca"/><path d="M466.39,509c6.58-6.3,3.84-25.72-9.6-24.56s-11,15-11,15c-.27-15.79,15.64-10.44,15.64-10.44-.24,5,3.83,11.2,3.83,11.2C467.76,504.16,466.35,509,466.39,509Z" fill="#272727"/><path d="M467.53,505.24c6-1.58,4.48-6.49,2-6.6h0a3.44,3.44,0,0,0-3.49,3.37C466.08,504.65,466.65,505.46,467.53,505.24Z" fill="#ffb8ca"/><path d="M440.52,478.17c-.82-8.09,12.57-8.51,21.1-8.85s10.95-2.4,8.65-6.49-16.9-7.76-17.48-10.52,5.61-4.1,5.61-4.1c-19.41,5,6,10.36,8.92,14.72s-8.49,4.13-21.05,5-15.84,6.73-12.6,17,9.2,10.25,9.2,10.25S441.34,486.27,440.52,478.17Z" fill="#272727"/><path d="M438.88,491.94c-.31-.31-7.62-7.52-7.45-14.41a8.33,8.33,0,0,1,3-6.26c5.31-4.65,14.06-5,20.44-5.26,4-.16,7.42-.3,8.28-1.45.33-.41.43-.74.33-1-.24-.59-1.75-.8-3.23-1-2-.28-4-.56-4.49-1.78a.23.23,0,0,1,.13-.29h0a.21.21,0,0,1,.27.13c.45,1,2.38,1.26,4.13,1.5s3.25.45,3.59,1.28a1.46,1.46,0,0,1-.39,1.43c-1,1.33-4.36,1.45-8.61,1.63-6.36.25-15,.6-20.16,5.14a8,8,0,0,0-2.88,5.94c-.18,6.7,7.24,14,7.31,14.06a.22.22,0,0,1,0,.32.24.24,0,0,1-.16.07A.23.23,0,0,1,438.88,491.94Z" fill="#272727"/><path d="M466.39,471.53a.23.23,0,0,1,.18-.28c6.44-1.32,9.87-3.12,10.12-5.32.37-3.34-6.52-6.67-7.91-7.3h0a.23.23,0,0,1-.12-.3.22.22,0,0,1,.3-.12c2,.92,8.59,4.2,8.19,7.76-.28,2.43-3.81,4.36-10.5,5.73h0A.23.23,0,0,1,466.39,471.53Z" fill="#272727"/><path d="M492.88,494.87c4.25,1.49,6.15,1.94,5.4-1.7s-5.34-8.36-.07-9.72,8,3.57,8,3.57c-3.36-4.71-13.34-3.91-6.4,3s-1,12.26-5.52,9.72-22,11.51-20.48,5.07C476.26,494.48,488.63,493.38,492.88,494.87Z" fill="#272727"/><path d="M465.45,511.24h0a.23.23,0,0,1-.17-.27.23.23,0,0,1,.27-.18c5.51,1.08,12.32,1,14.16-1.84a12.05,12.05,0,0,0,1.25-2.76c1-2.64,1.94-5.42,7.6-6.44a13.83,13.83,0,0,1,8.28,1.24c2.37,1,3.93,1.6,5.71-.63a8.5,8.5,0,0,0,1.23-8.69v0a.23.23,0,0,1,.41-.19,8.89,8.89,0,0,1-1.28,9.2c-2,2.5-3.86,1.69-6.23.77a13.42,13.42,0,0,0-8-1.21c-5.41,1-6.33,3.62-7.25,6.18a13,13,0,0,1-1.3,2.87c-1.35,2-4.68,2.67-8.08,2.67A33.7,33.7,0,0,1,465.45,511.24Z" fill="#272727"/><path d="M445.12,523.72c-1.36,2.35-5.82,5.27-5.82,5.27s-24.72-5.63-26.68-8.94-7.9-30.8-7.9-30.8l3.39-1s8.12,24.37,9.26,25.62,23.22,5,29,4.6A11.74,11.74,0,0,1,445.12,523.72Z" fill="#ffb8ca"/><path d="M401.5,481.52c.36-.61,4.72-3,5.53-2.82s2.34,7.27,2.44,8-1.08,2.5-1.08,2.5l-3.68.05C403.39,489.28,401.15,482.13,401.5,481.52Z" fill="#ffb8ca"/><path d="M526.76,511.05c.24-.65-.86-5.47-1.5-6s-7,3-7.63,3.45-1.16,2.44-1.16,2.44l2.42,2.84C519.74,514.8,526.52,511.69,526.76,511.05Z" fill="#eec1bb"/><path d="M438.71,543.66c.09-3.38,1.93-2,1.93-2-.33-4.26,2.34-3.44,2.34-3.44.67-4.59,5.19-3.17,5.19-3.17,2.93-3.73,5.31,0,5.31,0,3.47-1.73,2.94,3.68,2.94,3.68s2.58.25,2.63,1.69S452.91,550,445,550.92C443.23,551.12,438.62,547,438.71,543.66Z" fill="#686175" data-primary="true"/><path d="M457.27,538.88a5.79,5.79,0,0,0-.83-.16h0c0-.32.33-4.23-1.93-4a3.13,3.13,0,0,0-1,.33s-2.38-3.76-5.31,0a4,4,0,0,0-.92-.17,3.51,3.51,0,0,0-4.28,3.34,2,2,0,0,0-.92,0c-.74.17-1.62.89-1.42,3.45a1.28,1.28,0,0,0-1.09-.21c-.42.16-.84.73-.84,2.23v.15c0,3.35,4.53,7.29,6.28,7.1,4.31-.5,8.1-3.14,10.67-5.67,2.14-2.1,3.39-4.21,3.39-4.86C459,539.51,458,539.09,457.27,538.88Z" fill="#fff" opacity="0.6" style="isolation:isolate"/><path d="M457.26,538.83a20.56,20.56,0,0,1-6,7.1c.24-.25,4.11-4.37,5.19-7.25h0c0-.33.33-4.24-1.92-4a23.85,23.85,0,0,1-6.07,10.48s4.12-7.11,5-10.12c0,0-2.38-3.76-5.3,0a45.68,45.68,0,0,0-1.61,10,52.06,52.06,0,0,1,.7-10.12,3.56,3.56,0,0,0-4.28,3.35c-.1,5.16,1.64,7.56,1.64,7.56s-1.87-1.64-2.56-7.56c-.74.17-1.62.89-1.42,3.44a13.38,13.38,0,0,0,3.3,5.52,13.88,13.88,0,0,1-4.39-5.74c-.42.16-.84.73-.84,2.23v.15a5.54,5.54,0,0,0,1.29,2.41,10.36,10.36,0,0,0,5.63,2.84c1,.26,6.18-1.3,10-3.82,2.14-2.1,3.39-4.21,3.39-4.86C459,539.51,458,539.09,457.26,538.83Z" fill="#fff" opacity="0.6" style="isolation:isolate"/><path d="M430.4,154.16s-7.89-3.72-12.44-18l-6.62-19.74s-4.42-15.28-19.87-15.11c0,0-28.52,3.06-33.62-7.64,0,0-3.73-14.43-23.6-19.19,0,0-21.51-3-25.37-13.6a30.42,30.42,0,0,0-15.77-9.71s-16.5-7-23.05-18.43c0,0-7.76-12.86-10.92-5.58s-88.33,164,19.65,421.08" fill="none" stroke="#000" stroke-miterlimit="10" stroke-width="0.5"/><path d="M271.66,443.79s-5,4.89-6.3,11,.36,19.81-1.67,24.42-4.51,8.92-4.51,8.92l23.59,11.44s4.62-10.71,5.1-15.59c.67-6.79-2.34-15.65-.78-20.12,1.84-5.29,7.61-14.76,7.61-14.76Z" fill="#fff"/><path d="M272.36,445.37a30.12,30.12,0,0,0-5.05,10.71c-1.17,5.69-.11,18.24-1.84,22.52s-3.84,8.31-3.84,8.31l19.82,9.82a61.59,61.59,0,0,0,4.48-12.89c1.08-5.28-1.86-15.91-.64-20.09s6.19-13.42,6.19-13.42Z" fill="#008fa3"/><path d="M283.61,463.38c1.17-4.89,5.49-12.1,5.49-12.1L273.37,447a23.54,23.54,0,0,0-4.66,9.58c-1.34,5.37-.24,18-1.77,22.1s-3.36,8-3.36,8L280.41,494a52.94,52.94,0,0,0,3.91-10.55C285.91,477,282.65,467.41,283.61,463.38Z" fill="#fff" opacity="0.2"/><path d="M267.59,467.24c-.06-3.58,2-5.47,7.38-4.4,6.16,1.24,9.74,5.06,9.68,7.56s-.46,7.82-7.88,6.36c-4.93-1-9.47-4.86-9.47-6.61A14,14,0,0,1,267.59,467.24Z" fill="#008fa3"/><path d="M282,472l.19-1.48-.94-.18c.16-2.11-.45-3.59-2.54-4-2.82-.6-3.45,1.56-4.14,2.59s-1,1.79-1.77,1.58-1.21-.68-1.09-1.79c.2-1.93,1.45-1.51,1.45-1.51l.26-1.85a2.91,2.91,0,0,0-3.6,2.34l-.87-.17-.17,1.24.91.29a3.3,3.3,0,0,0,2.22,3.28c2.68.85,3.57-1,4.09-2.08.62-1.25,1.18-2,2-1.88,1.09.21,1.48,1,1.16,2.29a1.76,1.76,0,0,1-2.26,1.32l-.26,1.74s3.6,1.33,4.39-2Z" fill="#fff" opacity="0.2"/><path d="M280.18,455.52a1.5,1.5,0,0,1-2,.69,1.46,1.46,0,1,1,2-.69Z" opacity="0.2"/><path d="M274.7,486.24a1.53,1.53,0,1,1-.8-1.95A1.5,1.5,0,0,1,274.7,486.24Z" opacity="0.2"/><g opacity="0.1"><circle cx="266.53" cy="598.65" r="4.09" fill="#fff"/><circle cx="244.11" cy="519.49" r="4.09" fill="#fff"/><circle cx="215.55" cy="451.81" r="6.81" fill="#fff"/><circle cx="244.11" cy="421.81" r="4.09" fill="#fff"/><path d="M231.19,589.45a6.47,6.47,0,1,0,6.47-6.47h0a6.46,6.46,0,0,0-6.46,6.46Z" fill="#fff"/><path d="M218.27,556.2a6.47,6.47,0,1,0,6.47-6.47h0a6.46,6.46,0,0,0-6.46,6.46Z" fill="#fff"/><path d="M203.48,512.16a6.47,6.47,0,1,0,6.48-6.45h0A6.45,6.45,0,0,0,203.48,512.16Z" fill="#fff"/><circle cx="253.78" cy="559.07" r="8.65" transform="translate(-121.64 73.25) rotate(-13.28)" fill="#fff"/><circle cx="248.19" cy="476.46" r="8.65" transform="translate(-286.98 523.42) rotate(-67.5)" fill="#fff"/><path d="M524,391.68a3.5,3.5,0,1,0,0,.06Z" fill="#fff"/><path d="M543.65,461.22a3.59,3.59,0,1,0-3.65,3.53h.12A3.61,3.61,0,0,0,543.65,461.22Z" fill="#fff"/><path d="M571.12,520.65a6,6,0,1,0-6,6A6,6,0,0,0,571.12,520.65Z" fill="#fff"/><circle cx="540.06" cy="547" r="3.59" fill="#fff"/><path d="M551.41,399.76a5.68,5.68,0,1,0-5.67,5.68,5.67,5.67,0,0,0,5.67-5.68Z" fill="#fff"/><path d="M562.76,429a5.68,5.68,0,1,0-5.68,5.68,5.68,5.68,0,0,0,5.68-5.68Z" fill="#fff"/><path d="M575.75,467.67a5.68,5.68,0,1,0-5.68,5.68,5.67,5.67,0,0,0,5.68-5.68Z" fill="#fff"/><path d="M539.15,426.45a7.6,7.6,0,1,0-7.59,7.6,7.59,7.59,0,0,0,7.59-7.6Z" fill="#fff"/><path d="M544.06,499a7.6,7.6,0,1,0-7.59,7.6,7.6,7.6,0,0,0,7.59-7.6Z" fill="#fff"/><path d="M475.29,558.1a2.09,2.09,0,1,0-2.1,2.07h0A2.09,2.09,0,0,0,475.29,558.1Z" fill="#fff"/><circle cx="484.62" cy="598.37" r="2.08" fill="#fff"/><circle cx="499.15" cy="632.81" r="3.46" fill="#fff"/><circle cx="484.62" cy="648.08" r="2.08" fill="#fff"/><path d="M491.19,562.81a3.29,3.29,0,1,0-3.29,3.28,3.29,3.29,0,0,0,3.29-3.28Z" fill="#fff"/><path d="M497.77,579.69a3.3,3.3,0,1,0-3.3,3.28h0A3.29,3.29,0,0,0,497.77,579.69Z" fill="#fff"/><path d="M505.3,602.11A3.3,3.3,0,1,0,502,605.4h0a3.29,3.29,0,0,0,3.3-3.28Z" fill="#fff"/><path d="M484.09,578.21a4.41,4.41,0,1,0-4.41,4.41h0a4.4,4.4,0,0,0,4.41-4.38Z" fill="#fff"/><path d="M486.94,620.26a4.41,4.41,0,1,0-4.41,4.41h0a4.4,4.4,0,0,0,4.41-4.38Z" fill="#fff"/><path d="M375,445.85a2.09,2.09,0,1,0,2.09-2.09h0a2.08,2.08,0,0,0-2.07,2.08Z" fill="#fff"/><path d="M363.55,405.55a2.09,2.09,0,1,0,2.08-2.08,2.06,2.06,0,0,0-2.08,2.06Z" fill="#fff"/><path d="M347.59,371.1a3.44,3.44,0,1,0,0-.05Z" fill="#fff"/><path d="M363.55,355.84a2.09,2.09,0,1,0,2.08-2.09,2.08,2.08,0,0,0-2.08,2.09Z" fill="#fff"/><path d="M359.05,441.16a3.3,3.3,0,1,0,3.31-3.29h0A3.28,3.28,0,0,0,359.05,441.16Z" fill="#fff"/><path d="M352.48,424.23a3.29,3.29,0,1,0,3.28-3.28h0A3.28,3.28,0,0,0,352.48,424.23Z" fill="#fff"/><path d="M345,401.81a3.29,3.29,0,1,0,3.29-3.29h0A3.29,3.29,0,0,0,345,401.81Z" fill="#fff"/><path d="M366.15,425.69a4.41,4.41,0,1,0,4.41-4.4,4.4,4.4,0,0,0-4.41,4.4Z" fill="#fff"/><path d="M363.3,383.66a4.41,4.41,0,1,0,4.41-4.41A4.4,4.4,0,0,0,363.3,383.66Z" fill="#fff"/></g><g clip-path="url(#a)"><path d="M473.46,663.62c.76,3.58-4.16,2.23-3.94,4.3l23.49-12,9.82-10.14-2.61-2.51c-2.33,1.45-4.44,2.27-5.93,1.33-4.26-2.7-3.64-6.78-9.11-9.09s-.75,9.41-6.27,11.82c-5.14,2.23-8.5-16.3-15.44-14.72-5.53,1.27,2.59,11.9,4.37,16s-9.35-6.62-12.45-3.37c-2.62,2.65,1.47,8.3,9.51,10.86C473.24,658.88,473.46,663.62,473.46,663.62Z" fill="#686175" data-primary="true"/><path d="M473.46,663.62c.76,3.58-4.16,2.23-3.94,4.3l23.49-12,9.82-10.14-2.61-2.51c-2.33,1.45-4.44,2.27-5.93,1.33-4.26-2.7-3.64-6.78-9.11-9.09s-.75,9.41-6.27,11.82c-5.14,2.23-8.5-16.3-15.44-14.72-5.53,1.27,2.59,11.9,4.37,16s-9.35-6.62-12.45-3.37c-2.62,2.65,1.47,8.3,9.51,10.86C473.24,658.88,473.46,663.62,473.46,663.62Z" fill="#fff" opacity="0.3" style="isolation:isolate"/><path d="M554.94,622.29c-1.17-1.47-2.39-3.78-1.27-6.23,1.83-4,17.28-6,17.27-11.09s-3.82-6.66-2.87-12.53,8.38,4.36,13.34,1c4.63-3.17-9.3-15.87-4.22-20.92,4-4,8.72,8.51,11.22,12.2s-.64-11.47,3.77-12.37c3.6-.72,6.25,5.66,4.19,13.81-2.16,8.6,1.74,11.31,1.74,11.31,2.91,2.81,4.43-3.59,6.32-.37a7.1,7.1,0,0,1,.91,2.18Z" fill="#686175" data-primary="true"/><path d="M554.94,622.29c-1.17-1.47-2.39-3.78-1.27-6.23,1.83-4,17.28-6,17.27-11.09s-3.82-6.66-2.87-12.53,8.38,4.36,13.34,1c4.63-3.17-9.3-15.87-4.22-20.92,4-4,8.72,8.51,11.22,12.2s-.64-11.47,3.77-12.37c3.6-.72,6.25,5.66,4.19,13.81-2.16,8.6,1.74,11.31,1.74,11.31,2.91,2.81,4.43-3.59,6.32-.37a7.1,7.1,0,0,1,.91,2.18Z" fill="#fff" opacity="0.3" style="isolation:isolate"/><path d="M519.81,626.44l-.66.22a3.73,3.73,0,0,0-.83-.6c-1.43-.71-2.11,0-3.58,1.27l-.52-.2.09.57c-.21.17-.42.36-.66.53a33.82,33.82,0,0,0-3.6,3.78l-.4-.24.08.61a5.14,5.14,0,0,1-2.38,1.75c-1.49.22-1.71-.93-2.73-2.19l.11-.57-.48.15-.19-.17c-1.53-1.46-.95-3,.43-4.35a3.39,3.39,0,0,0,.33-.42l.83-.28-.34-.66a25.78,25.78,0,0,0,1.86-6.73h0l.53-.56-.41-.64a9.8,9.8,0,0,0-.07-2.23c-.38-2-1.14-2.82-2.22-3l-.28-.71-.68.72a6.61,6.61,0,0,0-1.09.24c-.71.19-.93.78-.8,1.52l-.36.18.58.88c.38,1.53,1.14,3.39.76,4.77l-.7.47.36.55a11.27,11.27,0,0,1-2.41,3.81l-.91-.16.12.78a2.15,2.15,0,0,1-1.15.34c-1,0-2.5-1.76-3.77-3.48v-1l-.67.08c-.76-1.11-1.36-2.08-1.6-2.44a10,10,0,0,1-1.12-3.14l.81-.53-1-.82a6.89,6.89,0,0,1,.07-1.36,12.59,12.59,0,0,0-.41-4.1l.39-.42-.67-.59a9.73,9.73,0,0,0-1.68-3.49l.26-1-1.08.24a1.93,1.93,0,0,0-.62-.23A1.47,1.47,0,0,0,486,604l-.71-.3.33.89a6.66,6.66,0,0,0-.07,3.2l-.49.56.66.32c.09.4.19.79.31,1.17a9.7,9.7,0,0,1,.38,2.45,1.26,1.26,0,0,1-.69.11c-.15,0,.26.33.66.7-.12,1.39-.74,2.48-2.22,2.23a13.46,13.46,0,0,1-2.61-.84l-.32-.48-.36.18a23.56,23.56,0,0,0-3.46-1.19l-.5-1-.7.76h0a8.28,8.28,0,0,0-2,0l-1.14-.45-.08.74a2.36,2.36,0,0,0-.74,4.27l-.21.63.86-.16a6.25,6.25,0,0,0,1.5.65,29.55,29.55,0,0,0,5.37.91l.43.63.86-.44a9,9,0,0,1,5.18,2.37l.5.47-.1.73h.92c2,1.73,3.85,2.93,4.36,4.39l.13.76,0,.32-1,.64.54.53c-1.08,2.08-2.18,1.73-3.57,2l-.47.08-.91-.64-.5.87a39.83,39.83,0,0,0-4.49,1l-1-.48,0,.84a2.4,2.4,0,0,0-.53.27c-1,.73-.84,2.35.58,3.27l0,.47.47-.24a4.66,4.66,0,0,0,1.51.38,17.45,17.45,0,0,0,5.18-.64l1.3.53.58-1a29.83,29.83,0,0,1,3.59-.88c1.56-.16,4.6.88,7,2.19l.1,1.13,1.35-.23a25.62,25.62,0,0,1,4,4.08l-.12.63,1.09,1,.26-.13c.63.79,1,1.34,1,1.34l6-3.75a16.73,16.73,0,0,1-2.07-1.59l.19-.67-1-.14a2.91,2.91,0,0,1-1-2.39,7.44,7.44,0,0,1,.25-.84H511l-.25-.49c.5-.89,1.3-1.31,2.92-2.82a10.24,10.24,0,0,1,1.91-1.43l.86.25v-.63c.63-.22,1.3-.36,2.28-.73,1.67-.64,1.52-2.2.61-3.31Z" fill="#686175" data-primary="true"/><path d="M492.45,632.92a.71.71,0,0,1-.14,1,.71.71,0,0,1-1-.14.22.22,0,0,1-.05-.08.7.7,0,0,1,.13-1,.71.71,0,0,1,1,.14Z" fill="#fff" opacity="0.2" style="isolation:isolate"/><path d="M483.68,633.69a.72.72,0,0,1-.2,1,.71.71,0,0,1-.78-1.18h0a.7.7,0,0,1,1,.18Z" fill="#fff" opacity="0.2" style="isolation:isolate"/><path d="M488.74,635.35a.71.71,0,0,1-1.18.78.72.72,0,0,1,.2-1h0a.69.69,0,0,1,1,.18Z" fill="#fff" opacity="0.2" style="isolation:isolate"/><path d="M492.35,620.31a.73.73,0,0,1-.22,1,.71.71,0,0,1-.77-1.19A.73.73,0,0,1,492.35,620.31Z" fill="#fff" opacity="0.2" style="isolation:isolate"/><path d="M502.49,628a.72.72,0,0,1-.2,1,.71.71,0,0,1-.79-1.18A.73.73,0,0,1,502.49,628Z" fill="#fff" opacity="0.2" style="isolation:isolate"/><path d="M504.81,613.86a.71.71,0,0,1-.21,1,.69.69,0,0,1-1-.2.7.7,0,0,1,.2-1h0a.69.69,0,0,1,1,.19Z" fill="#fff" opacity="0.2" style="isolation:isolate"/><path d="M506,620.71a.68.68,0,1,1-1-.2A.71.71,0,0,1,506,620.71Z" fill="#fff" opacity="0.2" style="isolation:isolate"/><path d="M489,606.09a.69.69,0,1,1-1.18.71.71.71,0,0,1,.19-.91A.72.72,0,0,1,489,606.09Z" fill="#fff" opacity="0.2" style="isolation:isolate"/><path d="M488.51,610.62a.72.72,0,0,1-.2,1,.73.73,0,0,1-1-.2.69.69,0,0,1,.19-1l0,0A.72.72,0,0,1,488.51,610.62Z" fill="#fff" opacity="0.2" style="isolation:isolate"/><path d="M490.36,614.73a.71.71,0,0,1-1.18.78.7.7,0,0,1,.2-1h0A.72.72,0,0,1,490.36,614.73Z" fill="#fff" opacity="0.2" style="isolation:isolate"/><path d="M488.33,617.76a.71.71,0,1,1-1.12.86l-.06-.09a.71.71,0,0,1,.28-1A.7.7,0,0,1,488.33,617.76Z" fill="#fff" opacity="0.2" style="isolation:isolate"/><path d="M482.73,616.19a.71.71,0,0,1-1.19.78.71.71,0,1,1,1.19-.78Z" fill="#fff" opacity="0.2" style="isolation:isolate"/><path d="M477.52,617a.71.71,0,0,1-.14,1,.7.7,0,0,1-1-.13.56.56,0,0,0-.05-.08.71.71,0,1,1,1.12-.86Z" fill="#fff" opacity="0.2" style="isolation:isolate"/><path d="M474.35,614.12a.7.7,0,0,1-.19,1h0a.71.71,0,1,1-.78-1.19A.71.71,0,0,1,474.35,614.12Z" fill="#fff" opacity="0.2" style="isolation:isolate"/><path d="M502.35,632.94a.72.72,0,0,1-.2,1,.73.73,0,0,1-1-.2.72.72,0,0,1,.2-1A.73.73,0,0,1,502.35,632.94Z" fill="#fff" opacity="0.2" style="isolation:isolate"/><path d="M505.1,638.44a.72.72,0,0,1-.19,1,.71.71,0,1,1-.78-1.19A.69.69,0,0,1,505.1,638.44Z" fill="#fff" opacity="0.2" style="isolation:isolate"/><path d="M509.27,635.7a.71.71,0,0,1-1.18.78.72.72,0,0,1,.2-1h0A.71.71,0,0,1,509.27,635.7Z" fill="#fff" opacity="0.2" style="isolation:isolate"/><path d="M513.74,629.92a.72.72,0,0,1-.2,1,.74.74,0,0,1-1-.21.72.72,0,0,1,.2-1A.73.73,0,0,1,513.74,629.92Z" fill="#fff" opacity="0.2" style="isolation:isolate"/><path d="M519.23,628.29a.71.71,0,1,1-1.18.79.73.73,0,0,1,.21-.93A.71.71,0,0,1,519.23,628.29Z" fill="#fff" opacity="0.2" style="isolation:isolate"/><path d="M509.6,640.05a.71.71,0,0,1-.2,1,.71.71,0,0,1-.79-1.17A.71.71,0,0,1,509.6,640.05Z" fill="#fff" opacity="0.2" style="isolation:isolate"/><path d="M493.08,625a.71.71,0,1,1-1-.19.71.71,0,0,1,1,.19Z" fill="#fff" opacity="0.2" style="isolation:isolate"/><path d="M497.91,627.48a.71.71,0,0,1-.2,1,.72.72,0,0,1-1-.21h0a.72.72,0,0,1,.2-1A.73.73,0,0,1,497.91,627.48Z" fill="#fff" opacity="0.2" style="isolation:isolate"/><path d="M497.09,632.35a.71.71,0,0,1-1.18.78.7.7,0,0,1,.2-1h0a.69.69,0,0,1,1,.18Z" fill="#fff" opacity="0.2" style="isolation:isolate"/><path d="M536.47,623s-7-4.88-6.43-12.59S534,598.18,526.61,594s2.82-11.21.81-17.67-8.36-3.85-6-11.83,1.82-16.64-5.8-18.75c0,0,13,.88,12.29,5.63s0,9.33,2.63,10.34,13.13,7.33,9.85,13.17.37,13.51,5.81,17,4.05,9.46,1.06,13.34,3.48,14.59,3.48,14.59Z" fill="#686175" data-primary="true"/><path d="M536.47,623s-7-4.88-6.43-12.59S534,598.18,526.61,594s2.82-11.21.81-17.67-8.36-3.85-6-11.83,1.82-16.64-5.8-18.75c0,0,13,.88,12.29,5.63s0,9.33,2.63,10.34,13.13,7.33,9.85,13.17.37,13.51,5.81,17,4.05,9.46,1.06,13.34,3.48,14.59,3.48,14.59Z" fill="#fff" opacity="0.2" style="isolation:isolate"/><path d="M541.65,620.4a16.38,16.38,0,0,1-5.19-6.69,9.43,9.43,0,0,1-.62-4.3,6.52,6.52,0,0,1,.17-1.09c.09-.35.17-.74.26-1.05a12.47,12.47,0,0,0,.37-2,15.89,15.89,0,0,0-1.52-8c-1.14-2.48-3-4.72-3.89-7.61a9.18,9.18,0,0,1-.07-4.48l.29-1.07.31-1c.2-.67.42-1.33.59-2a14.14,14.14,0,0,0,.59-4,8.25,8.25,0,0,0-1-3.82,21.88,21.88,0,0,0-2.49-3.33,25.62,25.62,0,0,1-2.43-3.52,15.91,15.91,0,0,1-2.07-8.2,16.66,16.66,0,0,0,2.58,7.94,29,29,0,0,0,2.51,3.35,23.46,23.46,0,0,1,2.71,3.33,10.33,10.33,0,0,1,.91,2,9.18,9.18,0,0,1,.35,2.21,14.34,14.34,0,0,1-.57,4.32c-.32,1.39-.85,2.79-1.13,4.06a8.21,8.21,0,0,0,.11,3.91c.68,2.59,2.48,4.86,3.69,7.49a15.74,15.74,0,0,1,1.45,8.52,13,13,0,0,1-.47,2.14c-.12.36-.19.67-.28,1a3.69,3.69,0,0,0-.19,1,8.88,8.88,0,0,0,.41,4A17.16,17.16,0,0,0,541.65,620.4Z" fill="#686175" data-primary="true"/><path d="M538.2,629.57s-12.41,2.07-13.86-3,2.72-12.39-5.14-12.8-9.4.47-11.43-5.31,1-12.27-6-11.25-9.06-7.13-9.06-7.13,3.1,4.08,5.79,2.89,11.24-3.25,12,3.38,11.53,2.3,15.33,7,.47,14.16,5.58,13.52,11.81,4.35,12,7.24S538.2,629.57,538.2,629.57Z" fill="#686175" data-primary="true"/><path d="M538.2,629.57s-12.41,2.07-13.86-3,2.72-12.39-5.14-12.8-9.4.47-11.43-5.31,1-12.27-6-11.25-9.06-7.13-9.06-7.13,3.1,4.08,5.79,2.89,11.24-3.25,12,3.38,11.53,2.3,15.33,7,.47,14.16,5.58,13.52,11.81,4.35,12,7.24S538.2,629.57,538.2,629.57Z" fill="#fff" opacity="0.3" style="isolation:isolate"/><path d="M538,626.61a12.69,12.69,0,0,1-6.64-.9,7.8,7.8,0,0,1-2.75-2.11,10,10,0,0,1-1.57-3.09c-.79-2.13-1.21-4.34-1.85-6.44s-1.49-4.18-3.28-5.1a8.93,8.93,0,0,0-3-.86c-1.06-.14-2.18-.15-3.32-.27a6.4,6.4,0,0,1-3.37-1.23,7.86,7.86,0,0,1-2.14-2.81c-1-2-1.8-4.11-2.92-6a6,6,0,0,0-2.17-2.34,4.41,4.41,0,0,0-3.19-.34,4.37,4.37,0,0,1,3.33.06,6.42,6.42,0,0,1,2.51,2.31c1.28,1.89,2.18,3.94,3.25,5.88a7.63,7.63,0,0,0,2,2.42,5.39,5.39,0,0,0,2.85,1c2.16.22,4.54,0,6.78,1.15a6.35,6.35,0,0,1,2.49,2.62,16.09,16.09,0,0,1,1.25,3.24c.59,2.18,1,4.35,1.68,6.45a8.81,8.81,0,0,0,1.3,2.92,7,7,0,0,0,2.38,2.06A13.24,13.24,0,0,0,538,626.61Z" fill="#686175" data-primary="true"/><path d="M552.13,624.57s-10-8.43-3.27-14.2,13.76-8.9,9.35-13.32-7-8.78-3.45-12.19,5.09-8.94,3-10.43,3.27-9.35,3.27-9.35-2.28,5.74.23,8.52,3.48,5.88.67,11.68,4.78,6,6.07,12.12-1.61,8.14-6.21,13a9.62,9.62,0,0,0-1.95,10.43Z" fill="#686175" data-primary="true"/><path d="M552.13,624.57s-10-8.43-3.27-14.2,13.76-8.9,9.35-13.32-7-8.78-3.45-12.19,5.09-8.94,3-10.43,3.27-9.35,3.27-9.35-2.28,5.74.23,8.52,3.48,5.88.67,11.68,4.78,6,6.07,12.12-1.61,8.14-6.21,13a9.62,9.62,0,0,0-1.95,10.43Z" fill="#fff" opacity="0.3" style="isolation:isolate"/><path d="M555,620.15a3.92,3.92,0,0,1-3.33-4.44,4.13,4.13,0,0,1,.19-.77,15.79,15.79,0,0,1,3.55-5.78,41.29,41.29,0,0,1,5.06-4.46,10.81,10.81,0,0,0,2.24-2.24,3,3,0,0,0,.36-2.71,17.3,17.3,0,0,0-1.36-2.89c-.5-1-1.13-1.89-1.73-2.83a27.12,27.12,0,0,1-3.28-5.94,4.81,4.81,0,0,1,.09-3.56,10.43,10.43,0,0,1,2.06-2.75,8.25,8.25,0,0,0,1.93-2.6,3.55,3.55,0,0,0-.39-3.12l.44.71c.11.26.21.52.3.79a3.34,3.34,0,0,1-.05,1.72,8.8,8.8,0,0,1-1.8,2.88,10.43,10.43,0,0,0-1.81,2.66,4.07,4.07,0,0,0,.09,3,31.08,31.08,0,0,0,3.33,5.64,29.5,29.5,0,0,1,3.31,6,7.58,7.58,0,0,1,.17.93,3.9,3.9,0,0,1-.28,1.91c-.13.29-.3.56-.45.83a11.85,11.85,0,0,1-2.5,2.45,52.7,52.7,0,0,0-5.07,4.24,15.22,15.22,0,0,0-3.65,5.35,3.88,3.88,0,0,0,.08,3.08A4.33,4.33,0,0,0,555,620.15Z" fill="#686175" data-primary="true"/><path d="M562.76,618s-1.4-4-4.26-2.29-5.65,1.44-5.68-1.43-1.87-7.71-4.81-5.39.8,4.81.38,5.92-2.3,4.2-4.14,2.11-3.55-9.08-6.64-6.25.22,4.86.56,5.93-2.64,7.11-5.92,4.87-4.34-3.14-5.65-2.89-1.08-1.71-1.84-3.6-2.52-.9-2.45,1.25,1.17,2.71-1.21,4.12-4.18.28-4.59-.53-1-4.34-3.2-2.22-3.12,2.35-.16,4.14,3.79,2.6.94,5.29-4.12,5.46-2.52,6.57-.74,5-2.73,3.54-2.65-4.39-3.93-2.52-2,3.88.44,4.09,4.78,1.28,3.63,2.68,1.34-.33-3,.71-5.68,4.4-1.24,3.45,2.45,2,.76,4.08-.66,2.74-.66,2.74l56-28.56Z" fill="#686175" data-primary="true"/><path d="M562.76,618s-1.4-4-4.26-2.29-5.65,1.44-5.68-1.43-1.87-7.71-4.81-5.39.8,4.81.38,5.92-2.3,4.2-4.14,2.11-3.55-9.08-6.64-6.25.22,4.86.56,5.93-2.64,7.11-5.92,4.87-4.34-3.14-5.65-2.89-1.08-1.71-1.84-3.6-2.52-.9-2.45,1.25,1.17,2.71-1.21,4.12-4.18.28-4.59-.53-1-4.34-3.2-2.22-3.12,2.35-.16,4.14,3.79,2.6.94,5.29-4.12,5.46-2.52,6.57-.74,5-2.73,3.54-2.65-4.39-3.93-2.52-2,3.88.44,4.09,4.78,1.28,3.63,2.68,1.34-.33-3,.71-5.68,4.4-1.24,3.45,2.45,2,.76,4.08-.66,2.74-.66,2.74l56-28.56Z" fill="#fff" opacity="0.1" style="isolation:isolate"/><path d="M608.51,599.41s-18-1.82-22.08-.23-11,11.17-19.72,14.14-25,20.18-25,20.18Z" fill="#686175" data-primary="true"/><path d="M608.51,599.41s-18-1.82-22.08-.23-11,11.17-19.72,14.14-25,20.18-25,20.18Z" fill="#fff" opacity="0.6" style="isolation:isolate"/><path d="M522.07,643.54s-18-1.83-22.08-.24-11,11.17-19.73,14.14-25,20.18-25,20.18Z" fill="#686175" data-primary="true"/><path d="M522.07,643.54s-18-1.83-22.08-.24-11,11.17-19.73,14.14-25,20.18-25,20.18Z" fill="#fff" opacity="0.6" style="isolation:isolate"/></g><ellipse cx="510.95" cy="99.08" rx="1.17" ry="2.11" fill="#272727"/><ellipse cx="520.58" cy="99.08" rx="1.17" ry="2.11" fill="#272727"/><path d="M517.29,95.09a1.92,1.92,0,0,1,.53-1.32A3,3,0,0,1,519,93a3.71,3.71,0,0,1,1.38-.26,3.19,3.19,0,0,1,1.36.28,9.35,9.35,0,0,1-1.24.49c-.39.15-.77.25-1.13.41A6.86,6.86,0,0,0,517.29,95.09Z" fill="#272727"/><path d="M509.77,94a1.69,1.69,0,0,1,1-.48,2.2,2.2,0,0,1,1.08.07,2.13,2.13,0,0,1,1.48,1.47,7.13,7.13,0,0,1-1-.27l-.81-.25C511,94.4,510.48,94.26,509.77,94Z" fill="#272727"/><path d="M514.7,99.08a21.81,21.81,0,0,1-1.08,5.49l-.32-.42a17.51,17.51,0,0,1,2.58.33,17.94,17.94,0,0,1-3,.36,22.83,22.83,0,0,1,1.81-5.76Z" fill="#f9aac0"/><path d="M513.3,108h6.22s-1.06,2.81-3.64,3.28C515.88,111.29,513.3,111.53,513.3,108Z" fill="#fff"/><path d="M453,506.76a2.33,2.33,0,0,1-2.3-.82,18.23,18.23,0,0,0,2.25-3.68Z" fill="#f9aac0"/><path d="M458.87,499.93c.47,0,.86.53.89,1.23s-.32,1.3-.79,1.31-.9-.54-.9-1.24S458.4,500,458.87,499.93Z" fill="#272727"/><path d="M450.16,500.13c.47,0,.87.54.9,1.24s-.34,1.28-.8,1.3-.89-.54-.89-1.24S449.69,500.15,450.16,500.13Z" fill="#272727"/><path d="M461.27,496.65a4.07,4.07,0,0,0-3.43-.94.36.36,0,0,1-.43-.29v0a.35.35,0,0,1,.29-.4,4.78,4.78,0,0,1,4.11,1.16.36.36,0,0,1,0,.51.39.39,0,0,1-.25.1A.35.35,0,0,1,461.27,496.65Z" fill="#272727"/><path d="M447.92,496.55A.37.37,0,0,1,448,496a4.34,4.34,0,0,1,3.67-1h0a.36.36,0,1,1-.21.69,3.68,3.68,0,0,0-3,.86.31.31,0,0,1-.21.07A.35.35,0,0,1,447.92,496.55Z" fill="#272727"/><path d="M453.26,510a11.72,11.72,0,0,0,4.6-1.94,3.1,3.1,0,0,1,.24.84,3.22,3.22,0,0,1-.1,1.51c-.34,1-1.31,2-3.76,2.52l-.54.11a21.46,21.46,0,0,0-1.27-2.86S452.73,510.16,453.26,510Z" fill="#fff"/><path d="M468.89,500.76a2.55,2.55,0,0,1-1.45,3.23" fill="#f9aac0"/><path d="M535.53,101.78s1.44-2.64,0-4.81" fill="#f9aac0"/></svg>