<svg id="ba9a91f8-af81-43f5-8e2e-c03863b0f2bd" data-name="bf9a897b-57c9-498a-a5d1-35b1ae557cf9" xmlns="http://www.w3.org/2000/svg" width="865.76" height="682.89" viewBox="0 0 865.76 682.89"><polygon points="530.39 507.26 497.29 638.23 490.32 637.41 524.29 503.99 530.39 507.26" fill="#f48225" data-secondary="true"/><polygon points="497.29 508.08 464.18 639.05 457.21 638.23 491.19 504.81 497.29 508.08" fill="#f48225" data-secondary="true"/><polygon points="601.83 508.9 634.93 639.87 641.9 639.05 607.92 505.63 601.83 508.9" fill="#f48225" data-secondary="true"/><polygon points="634.93 509.72 668.03 640.69 675 639.87 641.03 506.44 634.93 509.72" fill="#f48225" data-secondary="true"/><g opacity="0.4"><polygon points="530.39 507.26 497.29 638.23 490.32 637.41 524.29 503.99 530.39 507.26"/><polygon points="497.29 508.08 464.18 639.05 457.21 638.23 491.19 504.81 497.29 508.08"/><polygon points="601.83 508.9 634.93 639.87 641.9 639.05 607.92 505.63 601.83 508.9"/><polygon points="634.93 509.72 668.03 640.69 675 639.87 641.03 506.44 634.93 509.72"/></g><polygon points="395.36 591.1 416.71 604.19 436.74 570.94 403.07 553.62 395.36 591.1" fill="#fed0bc"/><path d="M348,616.52h75.85V594.67a1.92,1.92,0,0,0-1.63-1.91,5.51,5.51,0,0,0-5,1.41,5.4,5.4,0,0,1-4.59,1.9c-2.35-.3-5.27-1.59-6.78-5.88,0,0-4.68-10.74-12.2-1.61l-19.52,17.81A12.42,12.42,0,0,1,364,609.54C359,608.78,351.7,609.17,348,616.52Z" fill="#686175" data-primary="true"/><path d="M812.54,73.52V356.34a34.88,34.88,0,0,1-34.86,34.87H280.24a34.88,34.88,0,0,1-34.86-34.87V73.52a18.19,18.19,0,0,1,.11-2.45,34.83,34.83,0,0,1,34.75-32.42H777.68a34.84,34.84,0,0,1,34.75,32.48A23.75,23.75,0,0,1,812.54,73.52Z" fill="#e6e7e8"/><path d="M602.8,287.83l39.43,1.47a49.88,49.88,0,0,1,48,51.69,51.3,51.3,0,0,1-.72,6.77l-26,147.74A22.89,22.89,0,0,1,641,514.44H486.44a14.12,14.12,0,0,1-14.12-14.12c0-.37,0-.75,0-1.12h0a20.47,20.47,0,0,1,19.29-18.84L553,477Z" fill="#f48225" data-secondary="true"/><path d="M398.22,559.61,438,574.44a2.49,2.49,0,0,0,3.2-1.47,1.71,1.71,0,0,0,.09-.3l22.87-96.56,39.2,16.55L528.65,443V427.33l-98.44,2.61s-13.94,19.17-18.3,48.78l-15.27,78.07A2.5,2.5,0,0,0,398.22,559.61Z" fill="#373660"/><path d="M398.58,559.74l38.95,14.52a3,3,0,0,0,3.82-1.84,1.83,1.83,0,0,0,.08-.25l22.75-96.06,39.2,16.55L528.65,443V427.33l-98.44,2.61s-13.94,19.17-18.3,48.78l-15.2,77.7A2.94,2.94,0,0,0,398.58,559.74Z" opacity="0.2" style="isolation:isolate"/><path d="M812.43,71.13H245.49a34.86,34.86,0,0,1,34.75-32.42H777.68A34.86,34.86,0,0,1,812.43,71.13Z" fill="#686175" data-primary="true"/><path d="M452,204.21V349a13.11,13.11,0,0,1-13.1,13.12H334.31a13.11,13.11,0,0,1-13.1-13.1v0h0V204.21a13.11,13.11,0,0,1,13.1-13.11H438.89A13.11,13.11,0,0,1,452,204.21Z" fill="#fff"/><path d="M452,204.21V212H321.21v-7.75a13.11,13.11,0,0,1,13.1-13.11H438.89A13.11,13.11,0,0,1,452,204.21Z" fill="#686175" data-primary="true"/><rect x="333.51" y="220.94" width="32.18" height="5.4" fill="#686175" data-primary="true"/><rect x="333.51" y="269.33" width="32.18" height="5.4" fill="#686175" data-primary="true"/><rect x="333.51" y="313.21" width="32.18" height="5.4" fill="#686175" data-primary="true"/><rect x="333.51" y="234.31" width="91.39" height="3.96" fill="#e6e7e8"/><rect x="333.51" y="241.88" width="74.91" height="3.86" fill="#e6e7e8"/><rect x="333.51" y="249.33" width="84.72" height="3.86" fill="#e6e7e8"/><rect x="333.51" y="256.77" width="84.72" height="3.86" fill="#e6e7e8"/><rect x="333.51" y="278.19" width="91.39" height="3.96" fill="#e6e7e8"/><rect x="333.51" y="285.76" width="74.91" height="3.86" fill="#e6e7e8"/><rect x="333.51" y="293.21" width="84.72" height="3.86" fill="#e6e7e8"/><rect x="333.51" y="326.37" width="91.39" height="3.96" fill="#e6e7e8"/><rect x="333.51" y="333.95" width="74.91" height="3.86" fill="#e6e7e8"/><rect x="333.51" y="341.4" width="84.72" height="3.86" fill="#e6e7e8"/><path d="M494.67,611.14l1-22.16,32.95-1.21-6.53,24.42S507.74,615.5,494.67,611.14Z" fill="#fed0bc"/><path d="M312,235.08c-1,.37-4.46,1.57-7,2.59l-7,2.71c.36-.2.69-.36.93-.47a78.65,78.65,0,0,1,7.93-4c2-.84,4.41-2.09,5.9-2.81,3.58-1.62,2.78-5.85-1.23-4.38-1,.39-4.88,1.81-7.44,2.89l-2.88,1.16c1.66-1,3.22-1.85,4.42-2.47,2.06-1.15,3.9-2.12,5.37-2.91,3.55-1.81,2.58-6.09-1.35-4.38-1,.46-4.61,2-7.09,3.24l-4,1.94h0l-.52.25-2.77,1.34c-.19.07-.45.18-.75.32,1.81-1.44,3.55-2.71,4.86-3.6,2-1.4,4.1-2.51,5.52-3.5,3.4-2.26,1.9-6.31-1.89-4.09-1,.6-4.87,2.35-7.26,3.9s-5.14,3.33-7,4.5a56.28,56.28,0,0,0-6.2,4.15,9.82,9.82,0,0,1,1.61-2.81c3-3.72,6-6.36,4.28-8.46-1.92-2.36-4.59,1.37-8.31,5a42.6,42.6,0,0,0-9.36,13.3L249.24,254l8.66,25.61L279.34,256a21.61,21.61,0,0,0,9.8-3.76h0c2.37-1.59,8.94-5.64,10.54-6.36,2.94-1.62,6-3,8-3.89s4.29-1.87,5.8-2.54C317.06,237.92,316.06,233.69,312,235.08Z" fill="#fed0bc"/><path d="M489.68,597.72l36.44-4.56a3.31,3.31,0,0,0,2.88-2.83c1.85-13.11,10.39-73.73,12.72-91.57,0,0,105,8.71,96-55.75L551.3,411.65,528.65,443s-34,1.74-34.85,40.07L487,595.21a2.37,2.37,0,0,0,2.23,2.52A2.26,2.26,0,0,0,489.68,597.72Z" fill="#373660"/><path d="M194.18,452.36l.11-30.13s6.69-3.46,9.64-6c0,0-11.19-104.4-15.76-130.53,0,0-3.27-19.6,3.92-35.28,0,0,14.45-24.32-5.8-57.64l-2-24.17s28.24,28,30,180.32l-2.61,101.93S202,455,194.18,452.36Z" fill="#f48225" data-secondary="true"/><path d="M194.18,452.36l.11-30.13s6.69-3.46,9.64-6c0,0-11.19-104.4-15.76-130.53,0,0-3.27-19.6,3.92-35.28,0,0,14.45-24.32-5.8-57.64l-2-24.17s28.24,28,30,180.32l-2.61,101.93S202,455,194.18,452.36Z" opacity="0.4" style="isolation:isolate"/><path d="M162.76,594.59l-13.06-162,45.73-9.8L188.9,596.33S176.7,605.91,162.76,594.59Z" fill="#fed0bc"/><path d="M158.58,540.75S173.2,449.86,195,433.3l.46-11.22s-35.29,9.6-45.74,10.47Z" fill="#f4a57f"/><path d="M106.14,593.72s11.9,3.61,23.22-1.62l29.28-87.43a170.4,170.4,0,0,0,5.5-45.68l-.5-32.53-36.59-1.75Z" fill="#fed0bc"/><polygon points="218.3 265.95 254.24 245.69 264.04 282.93 222.22 316.91 218.3 265.95" fill="#f48225" data-secondary="true"/><path d="M154.92,154.87l.33-22.86,27.12,2,4.57,10.45-2.61,24.18S173.87,174.48,154.92,154.87Z" fill="#fed0bc"/><path d="M528,331.28s-10.45,87.55-6.53,105.19c0,0,5.88,18.3,51,2,0,0,46.39-4.57,65.34,4.58,0,0-3.63-92.44-14.94-123.94-.45-1.25-.92-2.41-1.39-3.47C609,288.16,602.8,287.83,602.8,287.83l-63.7,2.29Z" fill="#686175" data-primary="true"/><path d="M546.62,328,560,316.26l5.55,12.41,37.24-40.84s-14-11.76-20.9-11.76c0,0-35.61,4.58-42.8,14.05Z" fill="#686175" data-primary="true"/><path d="M546.62,328,560,316.26l5.55,12.41,37.24-40.84s-14-11.76-20.9-11.76c0,0-35.61,4.58-42.8,14.05Z" opacity="0.2" style="isolation:isolate"/><path d="M553.15,273.46l1.31,18.29,5.88,19.6S580.92,294,586.8,282.28c0,0-10.13-10.13-8.17-28.09l-3.92-.66Z" fill="#fed0bc"/><path d="M489.45,347.62s35.93-54.23,49.65-57.5l-12.67,56.62Z" fill="#686175" data-primary="true"/><polygon points="511.66 346.96 529.3 326.71 523.42 346.96 511.66 346.96" opacity="0.2" style="isolation:isolate"/><path d="M552.17,392.05s54.23-1.31,47.69-51l3.92,38.55,6.54-.65s.65,9.15-7.19,11.11Z" opacity="0.2" style="isolation:isolate"/><path d="M648.64,374.8s-5,38.15-16.76,38.81l-15.68.65H541.06l-1.3-21.56,63.37-2.61s6.54,0,7.19-11.11Z" fill="#fed0bc"/><polygon points="424.11 345.66 441.75 414.91 541.06 414.26 523.42 346.96 424.11 345.66" fill="#d1d3d4"/><polygon points="544.98 407.07 615.54 407.07 616.2 414.26 541.06 414.26 523.42 346.96 528.32 345.66 544.98 407.07" fill="#bcbec0"/><polygon points="755.15 426.46 789.99 644.24 795.22 642.5 764.73 423.84 755.15 426.46" fill="#f48225" data-secondary="true"/><polygon points="370.97 423.84 336.12 641.63 330.9 639.89 361.39 421.23 370.97 423.84" fill="#f48225" data-secondary="true"/><path d="M154.92,154.87l-2.64-2.64a1,1,0,0,0-1.73.73c0,5.16-1.65,16.4-16.53,20.86l-9.8,260s64,.65,79.71-17.64c0,0-12.42-126.1-14.38-130.67,0,0-3.26-18.3,2.62-32.67,0,0,15-24.83-5.88-60.11l-2-24.17S173.22,173.82,154.92,154.87Z" fill="#373660"/><path d="M127.53,473.2a2,2,0,0,0,2.63-1,1.9,1.9,0,0,0,.16-.61c1.92-23.91,15.32-194.3,13.5-259.84,0,0-2.62-39.86-15.68-39.86,0,0-34.63,9.15-37.9,18.3,0,0-13.72,150.27-7.84,233.25C82.4,423.41,86.79,454.14,127.53,473.2Z" fill="#f48225" data-secondary="true"/><path d="M120.73,210.37s8.28,24.68-.44,41.65a19,19,0,0,0-1.72,12.7c1.68,7.44,7.52,16.81,26.13,17.81,0,0-46.44,4-41.71-9C103,273.54,123,237.84,120.73,210.37Z" opacity="0.4" style="isolation:isolate"/><path d="M225.49,442.35s-3.92,9.8-13.72,8.5l2.61-101.93s-1-134.26-30-180.32c0,0,30.7,7.84,31.36,47C215.69,215.64,230.06,386.17,225.49,442.35Z" fill="#f48225" data-secondary="true"/><path d="M602.8,287.83c67,16,49.33,89.19,49.33,89.19l-48.35,2.61-3.92-38.55Z" fill="#686175" data-primary="true"/><rect x="299.54" y="412.52" width="499.17" height="20.04" fill="#f48225" data-secondary="true"/><rect x="299.54" y="412.52" width="499.17" height="20.04" opacity="0.4" style="isolation:isolate"/><path d="M185.71,153.62l-.48,6.47s-13.66-1.67-20.61-17.25C164.62,142.84,179.48,155.3,185.71,153.62Z" fill="#f4a57f"/><ellipse cx="182.46" cy="113.54" rx="26.69" ry="40.67" fill="#fed0bc"/><path d="M138.59,104.57s-3.27,35.28,16.33,38.54l.33-11.1,5.55-9.48s15-13.39,12.42-32.34a38.45,38.45,0,0,1,2.61,19l20.26.65s-.66-16.33,3.26-13.72l.66,13.07s17.64,3.92,13.72-9.15c0,0-9.8-44.43-53.58-28.75,0,0-19.6-11.76-34,5.23C126.18,76.47,109.84,100,138.59,104.57Z"/><ellipse cx="156.69" cy="125.42" rx="5.55" ry="9.47" fill="#fed0bc"/><path d="M138.59,104.57a50.28,50.28,0,0,1,2-10.24,48,48,0,0,1,4-9.66,40.26,40.26,0,0,1,2.9-4.4,31.92,31.92,0,0,1,3.57-3.87,27.9,27.9,0,0,1,4.23-3.11,24.85,24.85,0,0,1,4.81-2.05A27.53,27.53,0,0,0,151.63,77a37.78,37.78,0,0,0-6.12,8.2,59.05,59.05,0,0,0-4.19,9.41c-.58,1.62-1.08,3.27-1.53,4.94S138.93,102.86,138.59,104.57Z" fill="#fff"/><path d="M553.24,276.05l.47,6.59a26.42,26.42,0,0,0,19.35-21.13S560.31,276.05,553.24,276.05Z" fill="#f4a57f"/><ellipse cx="551.36" cy="242.39" rx="26.79" ry="34.55" fill="#fed0bc"/><ellipse cx="577.45" cy="245.22" rx="7.05" ry="9.17" fill="#fed0bc"/><path d="M525.71,233.28s.27-9.22,8-7.81c0,0,26.79,3.53,34.55-4.93,0,0-1.09,8.49,4.46,11.76,0,0,2.29,3.92.65,5.88,0,0,5.23-5.88,10.13,2.28,0,0,2,5.56.33,8.5,0,0,16.66-12.74,6.86-36.92,0,0-3.6-12.74-18.62-9.47,0,0-6.86-19.27-32-5.55,0,0-15,.32-3.92-14.05,0,0-11.11-1-16.33,16,0,0-3.6-3.92,1-9.15,0,0-18,10.78,0,30.38C520.81,220.21,527.51,225.34,525.71,233.28Z"/><path d="M447.24,632.75h75.85V610.91a1.93,1.93,0,0,0-1.63-1.92,5.52,5.52,0,0,0-5,1.42,5.44,5.44,0,0,1-4.59,1.89c-2.36-.29-5.27-1.59-6.79-5.87,0,0-4.67-10.75-12.2-1.61l-19.52,17.8a12.31,12.31,0,0,1-10.15,3.15C458.23,625,450.91,625.4,447.24,632.75Z" fill="#686175" data-primary="true"/><rect x="443.48" y="632.75" width="82.74" height="7.79" rx="2.6" fill="#373660"/><rect x="344.26" y="616.52" width="82.74" height="7.79" rx="2.6" fill="#373660"/><path d="M237.63,619.42l-75.76-3.64,1-21.83a1.9,1.9,0,0,1,1.71-1.83,5.52,5.52,0,0,1,4.91,1.65,5.41,5.41,0,0,0,4.5,2.11c2.36-.17,5.34-1.33,7-5.54,0,0,5.19-10.5,12.27-1L212,608a12.35,12.35,0,0,0,10,3.64C227,611.16,234.31,611.9,237.63,619.42Z" fill="#f48225" data-secondary="true"/><rect x="195.94" y="580.14" width="7.79" height="82.74" rx="2.6" transform="translate(-430.54 791.3) rotate(-87.25)" fill="#373660"/><path d="M177.6,620.18l-74.49-14.31,4.12-21.46a1.93,1.93,0,0,1,2-1.57,5.52,5.52,0,0,1,4.63,2.33A5.44,5.44,0,0,0,118,587.9c2.36.15,5.47-.57,7.77-4.49,0,0,6.62-9.67,12.28.72l15.81,21.17a12.35,12.35,0,0,0,9.37,5C168.26,610.5,175.37,612.26,177.6,620.18Z" fill="#f48225" data-secondary="true"/><rect x="135.98" y="575.55" width="7.79" height="82.74" rx="2.6" transform="translate(-492.35 637.94) rotate(-79.13)" fill="#373660"/><path d="M537.68,256.51h0l-.39-.11.13-.39c2-6,0-17.81,0-17.92l.75-.14c.09.48,2,11.6.13,17.9a8.37,8.37,0,0,0,4.9-.33l.32.7A9.49,9.49,0,0,1,537.68,256.51Z" fill="#f4a57f"/><ellipse cx="553.4" cy="241.56" rx="3.44" ry="2.34" transform="translate(180.31 716.34) rotate(-75.42)"/><ellipse cx="533.52" cy="239.76" rx="2.34" ry="3.44" transform="translate(-3.21 7.29) rotate(-0.78)"/><path d="M557.47,232s-8.22-3.8-9.16-.2c0,0-1.15,1.89,11.79,3.07Z"/><path d="M530.14,232.05s7.68-3.55,8.56-.18c0,0,1.07,1.76-11,2.86Z"/><path d="M544.05,263.35c-.55,0-1.16.1-1.81.11a13.24,13.24,0,0,1-1.9-.08c-1.73-.11-3.36-.22-4,1.05a3,3,0,0,0,.31,2.34,5.08,5.08,0,0,0,3.62,2.69,7.38,7.38,0,0,0,1.69.14,5.78,5.78,0,0,0,4.32-2.14,3.78,3.78,0,0,0,1-2.94,1.41,1.41,0,0,0-1.19-1.18A8.19,8.19,0,0,0,544.05,263.35Z" fill="#f4a57f"/><path d="M542.24,264c-2.44,0-4.78-.63-5.38.68-.44.93.74,4.56,5.12,4.44,3.07-.1,5.12-2.76,4.81-4.49C546.57,263.3,544.68,264,542.24,264Z"/><path d="M536.86,264.65a1,1,0,0,0-.07.34c3.49,2.12,8.15,1.68,9.1-1.16-.82-.12-2.12.13-3.65.14C539.8,264,537.46,263.34,536.86,264.65Z" fill="#fff"/><path d="M192.44,138.36h.46V138c-.41-6.35,4.65-17.19,4.71-17.3l-.7-.33c-.21.45-5,10.68-4.8,17.25a8.52,8.52,0,0,1-4.64-1.59l-.5.58A9.54,9.54,0,0,0,192.44,138.36Z" fill="#f4a57f"/><ellipse cx="181.14" cy="119.82" rx="3.44" ry="2.34" transform="translate(59.59 299.8) rotate(-89.45)"/><ellipse cx="200.81" cy="123.26" rx="3.44" ry="2.34" transform="translate(27.2 282.56) rotate(-74.08)"/><path d="M179.73,109.54s8.93-1.52,8.9,2.2c0,0,.61,2.13-12.18-.11Z"/><path d="M206.11,116.71s-6.5-5.43-8.22-2.41c0,0-1.5,1.43,9.89,5.65Z"/><path d="M184.51,143.3a17.14,17.14,0,0,0,1.71.57c.63.18,1.25.31,1.86.43,1.7.34,3.3.66,3.54,2a3,3,0,0,1-.91,2.18,5.09,5.09,0,0,1-4.19,1.65,6.75,6.75,0,0,1-1.67-.31,5.77,5.77,0,0,1-3.62-3.19,3.85,3.85,0,0,1-.18-3.1,1.43,1.43,0,0,1,1.46-.82A8.21,8.21,0,0,1,184.51,143.3Z" fill="#f4a57f"/><path d="M186.09,144.37c2.35.66,4.78.64,5,2.06.18,1-1.91,4.21-6.11,2.95-2.93-.9-4.22-4-3.47-5.59C182.09,142.59,183.74,143.72,186.09,144.37Z"/><path d="M191.11,146.43a2,2,0,0,1,0,.35c-3.92,1.13-8.31-.51-8.49-3.5.82.1,2,.69,3.49,1.09C188.44,145,190.87,145,191.11,146.43Z" fill="#fff"/><path d="M796.55,196.13v58.52a15.63,15.63,0,0,1-15.63,15.63H646.13a15.63,15.63,0,0,1-15.64-15.62h0V196.13a15.66,15.66,0,0,1,15.64-15.64H780.91a15.64,15.64,0,0,1,15.64,15.64Z" fill="#fff"/><path d="M796.55,196.13v1.34H630.49v-1.34a15.66,15.66,0,0,1,15.64-15.64H780.91a15.64,15.64,0,0,1,15.64,15.64Z" fill="#686175" data-primary="true"/><path d="M654.89,191.78a2.4,2.4,0,1,1,0-3.39h0A2.41,2.41,0,0,1,654.89,191.78Z" fill="#fff"/><path d="M666,191.78a2.4,2.4,0,1,1,0-3.39h0A2.41,2.41,0,0,1,666,191.78Z" fill="#fff"/><path d="M677.13,191.78a2.4,2.4,0,1,1,0-3.39h0A2.41,2.41,0,0,1,677.13,191.78Z" fill="#fff"/><path d="M335.47,203.21a2.4,2.4,0,1,1,0-3.39h0A2.41,2.41,0,0,1,335.47,203.21Z" fill="#fff"/><path d="M346.59,203.21a2.4,2.4,0,1,1,0-3.39h0A2.41,2.41,0,0,1,346.59,203.21Z" fill="#fff"/><path d="M357.71,203.21a2.4,2.4,0,1,1,0-3.39h0A2.41,2.41,0,0,1,357.71,203.21Z" fill="#fff"/><path d="M281.12,58.22a4.67,4.67,0,1,1,0-6.61h0A4.7,4.7,0,0,1,281.12,58.22Z" fill="#fff"/><path d="M302.77,58.22a4.67,4.67,0,1,1,0-6.61h0A4.68,4.68,0,0,1,302.77,58.22Z" fill="#fff"/><path d="M324.43,58.22a4.67,4.67,0,1,1,0-6.61h0A4.68,4.68,0,0,1,324.43,58.22Z" fill="#fff"/><rect x="641.08" y="208.23" width="54.28" height="46.92" fill="none" stroke-dasharray="4.41" stroke-linecap="round" stroke-linejoin="round" stroke-width="1.1" stroke="#d1d3d4"/><rect x="703.74" y="208.23" width="62.47" height="3.3" fill="#d1d3d4"/><rect x="703.74" y="215.06" width="47.92" height="3.29" fill="#d1d3d4"/><rect x="703.74" y="221.86" width="71.35" height="3.33" fill="#d1d3d4"/><rect x="703.74" y="228.49" width="60.76" height="3.33" fill="#d1d3d4"/><rect x="259.36" y="87.74" width="536.57" height="75.43" fill="#fff"/><rect x="171.71" y="210.17" width="124.54" height="101.04" fill="#686175" data-primary="true"/><polygon points="171.71 311.21 171.44 269.03 215.09 247.76 243.08 270.71 296.43 229.17 296.25 311.21 171.71 311.21" fill="#f48225" data-secondary="true"/><polyline points="160.15 286.2 145.12 284.89 144.47 314.3 165.38 305.15" fill="#fed0bc"/><path d="M173,306.68s5.78.9,8.39,1c2.82.05,5.82,0,7.79-.15a36.37,36.37,0,0,0,6.88-1c3.15-1.1,2-4-1.21-3.65-1.1.11-3.71.32-5.93.3a66.71,66.71,0,0,1-6.92-.39c-2.28-.28-5-.33-7.3-1.32C173.45,302.34,173,306.68,173,306.68Z" fill="#fed0bc"/><path d="M173.66,303.46a64.54,64.54,0,0,1,10-1c3.43-.12,6.43-.24,8.65-.35a62.63,62.63,0,0,0,6.83-.79c3.77-.65,3.61-4.38-.46-4.34-1.08,0-4.12.07-6.83.09s-6.2.16-8.25.2a90.49,90.49,0,0,0-9.46.43C172.05,298.89,173.66,303.46,173.66,303.46Z" fill="#fed0bc"/><path d="M171.23,292.7a64.63,64.63,0,0,1,9.89-1.46c3.43-.27,6.42-.54,8.63-.75a62.18,62.18,0,0,0,6.8-1.12c3.73-.81,3.38-4.52-.68-4.31-1.08.08-4.11.27-6.81.42s-6.18.44-8.24.59a87.26,87.26,0,0,0-9.41.86C169.41,288.23,171.23,292.7,171.23,292.7Z" fill="#fed0bc"/><path d="M175.42,297.12c2.67,0,6.31-.09,9.53-.2a80.8,80.8,0,0,0,8.92-.83c2.33-.34,4.23-.66,6-.86,3.7-.37,3.1-4.66-.73-4.57-1.33,0-4.42.31-7,.49-2.87.19-5.42.27-7.38.31-3.51,0-9.15.26-9.16.3C173.85,293,175.42,297.12,175.42,297.12Z" fill="#fed0bc"/><path d="M169.71,288.56s-20.45,4.83-16.32,0c5-5.8,12.43-8.39,19.23-10.46,5.13-1.54,8.36-3,9.21-.37.71,2.25-2.65,4.24-7.41,5.65C169.05,285,169.71,288.56,169.71,288.56Z" fill="#fed0bc"/><path d="M154.18,304.13c5.15,2,16.74,3.37,23.18,3.15a10.49,10.49,0,0,0,2.06-6c.26-5.32-.58-13.2-2.72-14.93-4.11.43-13.6.14-19.56.82C147.61,288.23,149.84,302.42,154.18,304.13Z" fill="#fed0bc"/><path d="M90.24,190.16S45.81,293.39,54.31,306.45c0,0,6.53,24.18,90.16,22.22l.65-46.39s-47,3.92-41.81-8.49c0,0,19-32,17-63.38Z" fill="#f48225" data-secondary="true"/><ellipse cx="250.57" cy="232.17" rx="13.5" ry="14.14" fill="#373660"/><path d="M745.42,344.79a18.73,18.73,0,0,1,11.59-1.4c2.1.34,4.31,1,5.73,2.58s1.73,4.37.06,5.73a5.56,5.56,0,0,1-3.61.91c-3.07,0-6.46-.58-8.91,1.27-1.4,1.05-2.33,2.8-4,3.32a4,4,0,0,1-4.31-1.94,6.73,6.73,0,0,1-.49-5A7.61,7.61,0,0,1,745.42,344.79Z" fill="#f48225" data-secondary="true"/><path d="M737.34,329.2c2.16,3.08,6.35,2.06,8.3.18s2.75-4.61,3.5-7.2c1.73-5.94,3.45-12.16,2.17-18.21a10.18,10.18,0,0,0-2.33-5,5.26,5.26,0,0,0-5-1.66c-2.11.55-3.45,2.58-4.38,4.59a43.4,43.4,0,0,0-4.3,18.63c0,3,.33,6.14,2,8.61" fill="#f48225" data-secondary="true"/><path d="M731.42,333.62a11.21,11.21,0,0,0,1.73-10.35,19.87,19.87,0,0,0-6.1-8.86A33,33,0,0,0,716.13,308a11.68,11.68,0,0,0-4.92-.86,5.15,5.15,0,0,0-4.13,2.5c-1.16,2.19-.05,4.86,1.14,7a85.17,85.17,0,0,0,7.18,10.94c2.16,2.77,4.62,5.51,7.91,6.76s6.68,1.11,8.42-1.16" fill="#f48225" data-secondary="true"/><path d="M737.2,375.66a7.37,7.37,0,0,0,.2-1.41c.09-1,.22-2.29.37-3.82a55.66,55.66,0,0,1,.86-5.6,43.75,43.75,0,0,1,2-6.61,24.6,24.6,0,0,1,3.37-6,12.76,12.76,0,0,1,4.31-3.55,11.9,11.9,0,0,1,3.59-1.12,5.9,5.9,0,0,0,1.39-.2,6.65,6.65,0,0,0-1.41,0,11.09,11.09,0,0,0-3.75,1,12.68,12.68,0,0,0-4.58,3.57,23.83,23.83,0,0,0-3.44,6.1,40.52,40.52,0,0,0-2,6.72,49.15,49.15,0,0,0-.75,5.67c-.12,1.62-.16,2.93-.18,3.84A5.55,5.55,0,0,0,737.2,375.66Z" fill="#373660"/><path d="M737.46,372.72a2.43,2.43,0,0,0,0-.66v-1.85c0-1.61,0-3.95.09-6.83.13-5.75.63-11.95,1.59-20.68.86-8.21,2.13-17.78,3.45-24,.27-1.42.55-2.69.81-3.8s.46-2.08.66-2.87.33-1.32.44-1.8a2.77,2.77,0,0,0,.11-.64,3.42,3.42,0,0,0-.22.61c-.15.46-.32,1.06-.54,1.78s-.49,1.73-.76,2.84-.61,2.38-.86,3.79a211.82,211.82,0,0,0-3.59,22.26,218.38,218.38,0,0,0-1.43,22.5c0,2.89,0,5.23.1,6.85.06.75.09,1.36.12,1.85A2.35,2.35,0,0,0,737.46,372.72Z" fill="#373660"/><path d="M737.5,357.33a12.56,12.56,0,0,0,0-1.94c-.11-1.75-.31-3.51-.59-5.24a69.14,69.14,0,0,0-1.73-7.67,62,62,0,0,0-3.2-9.05,48.18,48.18,0,0,0-9.4-14.65,23.94,23.94,0,0,0-2.21-2.06,10.62,10.62,0,0,0-1-.8l-.86-.58a12,12,0,0,0-1.64-1,56.25,56.25,0,0,1,5.35,4.77,50.55,50.55,0,0,1,9.17,14.59,71.38,71.38,0,0,1,3.22,9,70.42,70.42,0,0,1,1.82,7.59c.43,2.18.63,4,.77,5.17A11.75,11.75,0,0,0,737.5,357.33Z" fill="#373660"/><polygon points="722.63 384.46 724.18 405.57 751.3 405.57 752.84 384.46 722.63 384.46" fill="#373660"/><rect x="720.01" y="376.14" width="36.06" height="8.32" fill="#373660"/><polygon points="720.02 404.76 720.02 407.07 721.71 407.07 755.48 407.07 755.48 404.76 720.02 404.76" fill="#373660"/><polygon points="723.38 411.13 721.71 407.07 754.18 407.07 752.25 411.13 723.38 411.13" fill="#373660"/><path d="M752.33,391.36s0,.08-.13.2-.28.35-.4.53l-1.58,2.05-.07.09-.07-.1-3.9-5.39h.22l-3.8,5.4-.12.17-.13-.16-4.53-5.39h.26l-.25.32-4.05,5.06-.13.17-.13-.18c-1.38-1.94-2.66-3.75-3.82-5.4h.22l-4.71,5.41-.09.1-.06-.1c-.62-1-1.12-1.87-1.47-2.47l-.38-.67a.7.7,0,0,1-.11-.23,1.37,1.37,0,0,1,.15.21c.12.16.25.38.42.64l1.55,2.43h-.15l4.63-5.43.12-.13.1.14,3.87,5.38h-.26l4-5.14.25-.31.13-.17.13.17,4.51,5.39h-.25l3.85-5.37.11-.15.11.15,3.8,5.43H750l1.63-2c.18-.2.33-.37.44-.51Z" fill="#fff"/><path d="M754.58,407.29c0,.1-7.38.18-16.49.18s-16.49-.08-16.49-.18,7.39-.16,16.49-.16S754.58,407.21,754.58,407.29Z" fill="#fff"/><line x1="259.36" y1="163.17" x2="795.93" y2="87.74" fill="none" stroke="#373660" stroke-miterlimit="10" stroke-width="0.5"/><line x1="259.36" y1="87.74" x2="795.93" y2="163.17" fill="none" stroke="#373660" stroke-miterlimit="10" stroke-width="0.5"/></svg>