<svg xmlns="http://www.w3.org/2000/svg" width="865.76" height="682.89" viewBox="0 0 865.76 682.89"><g style="isolation:isolate"><g id="f6cf1006-fc79-4ebc-be07-18990c62c0f4" data-name="Layer 1"><path d="M64.19,541.33c14.64,7.06,33.14,8.9,51.65,8.73a155.51,155.51,0,0,0-11.25,11.29H818.88c12.48-19.07,14.09-40.44-4.22-59-6.5-6.6-16.24-11-27.33-14,26.1-13.95,46.83-32.24,55.78-56.83,3.54-9.75,4.27-24-1.26-33.69-7.9-13.83-14-16.32-30-25.11-15.35-8.43-39.42-9.34-59.51-9.43-4.22-.19-8.43-.33-12.66-.47,3.78-1.17,7.56-2.37,11.35-3.63,37-12.32,68.25-33.6,78.73-63.15,7.43-20.93-1.87-43.82-29.73-53.82-17.22-6.17-33.58-6.65-51.9-6.87-53.92-1.31-108.1.75-162.16,4.14a186.34,186.34,0,0,0,18.15-13.78c14.3-12.41,26.53-31.66,24.25-48.26-3.06-22.2-21.3-33.95-50-38.7l8,2c-12-2.74-19.78-3.53-35-3.86-5.85-.14-11.63.19-17.46.36-12.14.35-24,1.59-36,3-9.28,1.05-18.63,2-28,2.87,30.77-10.68,61.36-21.47,93.09-30.57,10.29-3,27-19.7,7.26-22.42-16-2.19-34-5.57-50.15-4.53-19.18,1.22-37.21.93-56.26,3.88C429.23,94.8,395,101.23,361.17,109c-21.5,5-42.81,10.55-63.89,16.36-13.16,3.64-26,7.94-38.8,12.2-4.71,1.57-9.33,3.27-13.9,5.05l-2.19.89q30-9.51-4.34,1.54c.75-.31-2.3,1.3-6.28,3.36l.66-.35c-22.66,11.61-40.22,23.15-54.38,40.83-9.67,12.08-15.23,31.72-6.3,44.94C179.26,245,190.57,252,203.9,256.4c-16.49,4.61-33,9.89-49.85,13.43A201.81,201.81,0,0,0,94.47,293C71.35,307,46.6,331.24,51.08,354.64c3.86,20.1,17,33.34,45.39,37.88,23.1,3.69,46.35-1,69.4-1.75,3.23-.09,6.47-.24,9.7-.42A611.07,611.07,0,0,0,111,416.83l2-1C86.29,428.06,56.69,443.94,44.29,466,28.44,494.3,25.85,522.88,64.19,541.33Z" fill="#cce9f7"/><path d="M468.88,186.13a19.79,19.79,0,0,0-5.3-.7,3.17,3.17,0,0,1,.19-.46,15.08,15.08,0,0,0,.71-9.12,24.59,24.59,0,0,0-4.08-8.17c-3.55-4.48-9-7.11-14.58-8.09a29,29,0,0,0-8.78-.05,28,28,0,0,0-.6-6.65c-1.21-5.8-5.56-11-10.16-14.49-4.86-3.71-11-4.47-16.86-3.42-.62.11-1.23.27-1.84.42-1.92-4.82-7.19-7.83-12.07-9a21.64,21.64,0,0,0-10.09.08,21.4,21.4,0,0,0-8.28,4.27,24.23,24.23,0,0,0-5.91,7.32c-1.66,3-2.05,6.49-2.08,9.83a14.78,14.78,0,0,0,2.14,7.5,9.89,9.89,0,0,0-2,1.24,13.41,13.41,0,0,0-4.34,6.15,21.5,21.5,0,0,0-2.31-.95,26.87,26.87,0,0,0-9.22-1.29,22.5,22.5,0,0,0-8.82,2.34c-5.6,2.56-11,5.56-14,11.17a17.17,17.17,0,0,0-1.69,4.8c-.53-.16-1-.3-1.54-.43a20.45,20.45,0,0,0-11.77.57c-6.83,2.41-11.51,9.79-12.16,16.82-.78,8.13,4.87,15.55,12.46,17.85a21.29,21.29,0,0,0,12.07-.3,31.82,31.82,0,0,0,7.05-3,23.25,23.25,0,0,0,3.83,4.28c4.67,4.07,10.83,6,16.87,6.79a24.11,24.11,0,0,0,8.51-.51c1.42-.32,2.84-.47,4.26-.88a34.58,34.58,0,0,0,4.33-1.68,26,26,0,0,0,6.68-4,21.46,21.46,0,0,0,2.21,2.05,25.81,25.81,0,0,0,14.88,5.83,38.4,38.4,0,0,0,16.56-2.91,30.68,30.68,0,0,0,10-6.83,38.4,38.4,0,0,0,15.51,7.31,48.35,48.35,0,0,0,13.12,1.41,36.83,36.83,0,0,0,12.5-2.68c6.73-2.78,14.16-8.27,15.5-15.84S476.16,188.19,468.88,186.13Z" fill="#fff"/><path d="M476.09,206.38c-1.85,3.46-5.54,6-8.77,8-7.55,4.61-16.82,5.21-25.34,3.69a45.49,45.49,0,0,1-13.28-4.39,31.58,31.58,0,0,1-4.16-2.6c.39-.42.76-.85,1.13-1.26-.48.38-1,.71-1.44,1-1.84,1.22-3.73,2.43-5.63,3.52-.23.13-.47.25-.7.39a33.22,33.22,0,0,1-4.35,2.37,36.48,36.48,0,0,1-7.37,2.18,39.49,39.49,0,0,1-8,1,26.54,26.54,0,0,1-6.72-.89,24.37,24.37,0,0,1-8.86-3.38,16.84,16.84,0,0,1-4.35-3.89c-.77-1-1.34-2.47-2.35-3.33a15.8,15.8,0,0,0,.82,1.79,14.74,14.74,0,0,0,1.95,2.88,40.86,40.86,0,0,1-22.9,5.8,36.92,36.92,0,0,1-15.93-5.79,20,20,0,0,1-4.11-3.63,0,0,0,0,0,0,0,20.84,20.84,0,0,1-3.43-4.91,22.8,22.8,0,0,0,2.09,4.47,45.47,45.47,0,0,1-6.14,2.1,22,22,0,0,1-11.34.16A16.28,16.28,0,0,1,305.15,196a18,18,0,0,1,10.57-16.34,19.5,19.5,0,0,1,11.48-.79,15,15,0,0,1,1.57.42,18.6,18.6,0,0,0-.26,2.26,16.23,16.23,0,0,0,.2,2.42,22.85,22.85,0,0,0,1,3.17,19.66,19.66,0,0,1,1.14-8.77,14.08,14.08,0,0,1,.63-1.43,17.16,17.16,0,0,1,1-2.08c2.72-5,7.72-7.59,12.6-10.07a24.48,24.48,0,0,1,16.69-2,17.83,17.83,0,0,1,2.95.95,9.39,9.39,0,0,0,1.13,7.15,11.71,11.71,0,0,1,1.17-9.23,15.63,15.63,0,0,1,3.66-4.47,5.68,5.68,0,0,1,1.19-.81s0,0,0,.07l.06,0a7.22,7.22,0,0,1,.88-.44l-.05-.08a23.46,23.46,0,0,1,5.32-1.34,13,13,0,0,1,3.89-.17,7.3,7.3,0,0,1,.87.16l.25,0a8.75,8.75,0,0,0-2.85-.6,30.75,30.75,0,0,0-4.3.16,18.58,18.58,0,0,0-3.66.86,17,17,0,0,1-1.67-7.31,19.14,19.14,0,0,1,1.84-9.07,23.41,23.41,0,0,1,5.67-7,20.79,20.79,0,0,1,16.71-4.7c5,.75,10.51,3.82,12.6,8.59a23.5,23.5,0,0,0-4.61,1.85,13.41,13.41,0,0,0-2.64,2.13A18.22,18.22,0,0,1,412.91,136a20.73,20.73,0,0,1,13,4.42c4.18,3.29,8.13,7.71,9.69,12.85a20,20,0,0,1,.84,4.68,21.77,21.77,0,0,1,.14,5c0,.42,0,.85-.08,1.28a28,28,0,0,0,.51-4.06l.37,0a28.07,28.07,0,0,1,8.13.56,21.24,21.24,0,0,1,17.05,14.83,13.88,13.88,0,0,1-.11,8.89,10.58,10.58,0,0,1-.37,1.08H462a22.71,22.71,0,0,0-4.08.75,2.19,2.19,0,0,0-1.4.72.18.18,0,0,1,.1,0l.13,0c1.06-.72,2.71-.68,3.9-.68a17,17,0,0,1,2.57,0h0a19.25,19.25,0,0,1,5,1.11,14.47,14.47,0,0,1,8.53,8.22A13.14,13.14,0,0,1,476.09,206.38Z" fill="#fff"/><path d="M393.79,146.92a5.62,5.62,0,0,0,.28,2.49c.05-3,2.07-6.54,4.08-8.53a16.73,16.73,0,0,1,2.83-2.23,15.86,15.86,0,0,1,1.86-1.37,23.5,23.5,0,0,1,4.61-1.85,11.63,11.63,0,0,0-1.91-3C400.33,133.11,394.5,139.48,393.79,146.92Z" fill="#bce8e5" opacity="0.3"/><path d="M372.3,155a18.58,18.58,0,0,1,3.66-.86,30.75,30.75,0,0,1,4.3-.16,8.13,8.13,0,0,1,2.31.42,27.26,27.26,0,0,1,7.54,2.2,28.85,28.85,0,0,1,7.46,4.56c-4.63-7.69-15-12.45-23.42-9.17a.53.53,0,0,1-.74-.24A23.69,23.69,0,0,1,372.27,139a19.94,19.94,0,0,0-1.64,8.63A17,17,0,0,0,372.3,155Z" fill="#bce8e5" opacity="0.3"/><path d="M476.77,195.55a14.47,14.47,0,0,0-8.53-8.22,19.25,19.25,0,0,0-5-1.11h0a17,17,0,0,0-2.57,0c-1.19,0-2.84,0-3.9.68l-.13,0a.18.18,0,0,0-.1,0,2.19,2.19,0,0,1,1.4-.72,22.71,22.71,0,0,1,4.08-.75h.05a7.36,7.36,0,0,0,.39-1.08,13.88,13.88,0,0,0,.11-8.89,23.81,23.81,0,0,0-3.52-6.83,23.46,23.46,0,0,0-11.1-7.36c4.63,3.22,8.35,7.39,8.27,13.61a27.65,27.65,0,0,1-3.73,13.75c.88-.11,1.74-.2,2.64-.28,3.74-.29,7.74-.73,11.28.78a5.18,5.18,0,0,1,2.85,6.84,15.49,15.49,0,0,1-8.88,9.09c-8.12,3.39-17.53,2.6-25.65-.41-5.48-2-10.86-5.21-14.35-9.85-4.27,8-12,13.64-21.93,13.45-11.25-.2-23.66-7.73-26.89-18.86a24.52,24.52,0,0,0,2.22,10.27.54.54,0,0,1-.23.73c-8.24,4.82-25,9.58-34.5,5.17-5.19-2.42-7.46-7.17-9.42-12.95-.6,3.95.14,8.35,1.49,12.63.11.37-1.25.54-1.56.56-6.8.54-15-.51-19.77-5.94a14.93,14.93,0,0,1-3.64-9.78,16.62,16.62,0,0,0,10.75,21.57,22,22,0,0,0,11.34-.16,45.47,45.47,0,0,0,6.14-2.1,22.8,22.8,0,0,1-2.09-4.47,20.84,20.84,0,0,0,3.43,4.91v0a19.57,19.57,0,0,0,4.09,3.62,36.92,36.92,0,0,0,15.93,5.79,40.86,40.86,0,0,0,22.9-5.8,14.74,14.74,0,0,1-1.95-2.88,15.8,15.8,0,0,1-.82-1.79c1,.86,1.58,2.28,2.35,3.33a16.84,16.84,0,0,0,4.35,3.89,24.37,24.37,0,0,0,8.86,3.38,26.54,26.54,0,0,0,6.72.89,39.49,39.49,0,0,0,8-1,36.48,36.48,0,0,0,7.37-2.18,33.22,33.22,0,0,0,4.35-2.37c.23-.14.47-.26.7-.39,1.9-1.09,3.79-2.3,5.63-3.52.45-.32,1-.65,1.44-1-.37.41-.74.84-1.13,1.26a31.58,31.58,0,0,0,4.16,2.6A45.49,45.49,0,0,0,442,218.07c8.52,1.52,17.79.92,25.34-3.69,3.23-2,6.92-4.54,8.77-8A13.14,13.14,0,0,0,476.77,195.55Z" fill="#cce9f7"/><path d="M371.85,156.34l-.14.07.16,0Z" fill="#fff"/><path d="M604.5,288a12.53,12.53,0,0,0-3.28-.44l.12-.28a9.29,9.29,0,0,0,.44-5.63,14.88,14.88,0,0,0-2.52-5.05,14.61,14.61,0,0,0-9-5,17.91,17.91,0,0,0-5.42,0,17.59,17.59,0,0,0-.38-4.1c-.74-3.58-3.42-6.79-6.28-9a13.09,13.09,0,0,0-10.42-2.11c-.38.07-.75.17-1.13.26-1.18-3-4.44-4.84-7.46-5.57a13.38,13.38,0,0,0-6.23.05,13.11,13.11,0,0,0-5.12,2.64,14.71,14.71,0,0,0-3.65,4.53,12.59,12.59,0,0,0-1.29,6.07,9.22,9.22,0,0,0,1.32,4.63,5.7,5.7,0,0,0-1.24.77,8.15,8.15,0,0,0-2.68,3.8,12.23,12.23,0,0,0-1.43-.59,16.88,16.88,0,0,0-5.7-.8,14,14,0,0,0-5.45,1.45c-3.45,1.58-6.78,3.44-8.67,6.9a10.6,10.6,0,0,0-1,3l-1-.26a12.6,12.6,0,0,0-7.27.35c-4.22,1.5-7.12,6-7.52,10.39a10.75,10.75,0,0,0,7.69,11,13.1,13.1,0,0,0,7.47-.18,19.43,19.43,0,0,0,4.35-1.85,14.67,14.67,0,0,0,2.37,2.64,19.27,19.27,0,0,0,10.43,4.19,14.54,14.54,0,0,0,5.26-.31c.88-.19,1.75-.29,2.63-.54a23.56,23.56,0,0,0,2.68-1,15.67,15.67,0,0,0,4.12-2.44,11.78,11.78,0,0,0,1.37,1.27,15.91,15.91,0,0,0,9.2,3.6A23.73,23.73,0,0,0,570,308.57a19.13,19.13,0,0,0,6.19-4.22,23.88,23.88,0,0,0,9.59,4.51,29.08,29.08,0,0,0,8.1.86,22.34,22.34,0,0,0,7.73-1.65c4.16-1.71,8.75-5.11,9.58-9.79A9.09,9.09,0,0,0,604.5,288Z" fill="#fff"/><path d="M609,300.53c-1.14,2.14-3.42,3.71-5.43,4.94-4.65,2.85-10.38,3.21-15.64,2.28a28,28,0,0,1-8.21-2.71,20.47,20.47,0,0,1-2.57-1.6l.71-.78c-.3.23-.62.44-.91.63-1.13.76-2.29,1.51-3.48,2.18l-.42.24a21.83,21.83,0,0,1-2.69,1.47,22.55,22.55,0,0,1-4.56,1.35,24.31,24.31,0,0,1-5,.61,16,16,0,0,1-4.14-.55,15.19,15.19,0,0,1-5.48-2.08,10.32,10.32,0,0,1-2.69-2.41A11.41,11.41,0,0,0,547,302a10.84,10.84,0,0,0,.5,1.11,9.8,9.8,0,0,0,1.21,1.78,21.19,21.19,0,0,1-4.18,2,20.73,20.73,0,0,1-10,1.56,22.78,22.78,0,0,1-9.84-3.58,12.08,12.08,0,0,1-2.53-2.23h0a13,13,0,0,1-2.13-3,15.1,15.1,0,0,0,1.29,2.76,28.25,28.25,0,0,1-3.79,1.29,13.66,13.66,0,0,1-7,.11,10.07,10.07,0,0,1-7.25-9.7,11.08,11.08,0,0,1,6.52-10.1,12.14,12.14,0,0,1,7.1-.5c.33.08.67.18,1,.27a12.48,12.48,0,0,0-.16,1.4,8.25,8.25,0,0,0,.13,1.49,12,12,0,0,0,.61,2,11.91,11.91,0,0,1,.69-5.41c.12-.32.26-.6.4-.89a10.06,10.06,0,0,1,.61-1.29c1.68-3.11,4.77-4.69,7.78-6.22a15.11,15.11,0,0,1,10.32-1.26,12.1,12.1,0,0,1,1.82.59,5.84,5.84,0,0,0,.69,4.41,7.21,7.21,0,0,1,.73-5.69,9.52,9.52,0,0,1,2.27-2.77,3.37,3.37,0,0,1,.73-.5l0,0s0,0,0,0c.17-.09.35-.18.54-.26,0,0,0,0,0-.05a14.23,14.23,0,0,1,3.28-.83,8.05,8.05,0,0,1,2.4-.11c.18,0,.36.07.54.1h.16a5.36,5.36,0,0,0-1.76-.36,19.54,19.54,0,0,0-2.66.09,10.65,10.65,0,0,0-2.26.54,10.29,10.29,0,0,1-1-4.52,11.68,11.68,0,0,1,1.13-5.61,14.43,14.43,0,0,1,3.5-4.34,12.84,12.84,0,0,1,10.33-2.91c3.08.46,6.5,2.36,7.79,5.31a14.25,14.25,0,0,0-2.85,1.14,8.2,8.2,0,0,0-1.63,1.32,11.19,11.19,0,0,1,7.86-2.14,12.8,12.8,0,0,1,8,2.72c2.58,2,5,4.77,6,8a12.37,12.37,0,0,1,.52,2.88,13.53,13.53,0,0,1,.09,3.11c0,.26,0,.53,0,.79a17.74,17.74,0,0,0,.31-2.51l.23,0a17.26,17.26,0,0,1,5,.34,14.87,14.87,0,0,1,8.37,5,14.56,14.56,0,0,1,2.17,4.22,8.5,8.5,0,0,1-.07,5.5c-.07.21-.14.44-.23.66h0a15.5,15.5,0,0,0-2.52.46,1.41,1.41,0,0,0-.87.45h.07l.08,0a4.53,4.53,0,0,1,2.4-.43,12.06,12.06,0,0,1,1.59,0h0a11.72,11.72,0,0,1,3.08.68,9,9,0,0,1,5.28,5.08A8.11,8.11,0,0,1,609,300.53Z" fill="#fff"/><path d="M558.09,263.79a3.56,3.56,0,0,0,.18,1.54,8.57,8.57,0,0,1,2.52-5.27,10.41,10.41,0,0,1,1.75-1.38,9.21,9.21,0,0,1,1.15-.85,14.25,14.25,0,0,1,2.85-1.14,6.82,6.82,0,0,0-1.18-1.83C562.14,255.25,558.54,259.19,558.09,263.79Z" fill="#bce8e5" opacity="0.3"/><path d="M544.82,268.76a10.65,10.65,0,0,1,2.26-.54,19.54,19.54,0,0,1,2.66-.09,5.16,5.16,0,0,1,1.42.25,16.9,16.9,0,0,1,4.66,1.36,17.68,17.68,0,0,1,4.62,2.82c-2.87-4.75-9.27-7.69-14.48-5.67-.16.06-.39.06-.46-.14a14.78,14.78,0,0,1-.71-7.85,12.24,12.24,0,0,0-1,5.34A10.29,10.29,0,0,0,544.82,268.76Z" fill="#bce8e5" opacity="0.3"/><path d="M609.38,293.84a9,9,0,0,0-5.28-5.08,11.72,11.72,0,0,0-3.08-.68h0a12.06,12.06,0,0,0-1.59,0,4.53,4.53,0,0,0-2.4.43l-.08,0h-.07a1.41,1.41,0,0,1,.87-.45,15.5,15.5,0,0,1,2.52-.46h0a6.64,6.64,0,0,0,.24-.66,8.5,8.5,0,0,0,.07-5.5,12.88,12.88,0,0,0-9-8.77c2.86,2,5.17,4.57,5.12,8.41a17,17,0,0,1-2.32,8.49l1.63-.17c2.33-.18,4.79-.45,7,.48a3.22,3.22,0,0,1,1.76,4.24,9.64,9.64,0,0,1-5.49,5.61c-5,2.09-10.84,1.6-15.85-.25a19.39,19.39,0,0,1-8.87-6.1A14.88,14.88,0,0,1,561,301.72c-7-.14-14.63-4.78-16.62-11.67a15.23,15.23,0,0,0,1.37,6.36.32.32,0,0,1-.13.44c-5.1,3-15.47,5.92-21.34,3.18-3.19-1.48-4.6-4.41-5.81-8a17.86,17.86,0,0,0,.92,7.81c.07.23-.77.33-1,.34-4.21.34-9.26-.31-12.22-3.66a9.23,9.23,0,0,1-2.25-6,10,10,0,0,0-.61,3.64,10.07,10.07,0,0,0,7.25,9.7,13.66,13.66,0,0,0,7-.11,28.25,28.25,0,0,0,3.79-1.29,15.1,15.1,0,0,1-1.29-2.76,13,13,0,0,0,2.13,3h0a11.78,11.78,0,0,0,2.52,2.23,22.78,22.78,0,0,0,9.84,3.58,20.73,20.73,0,0,0,10-1.56,21.19,21.19,0,0,0,4.18-2,9.8,9.8,0,0,1-1.21-1.78A10.84,10.84,0,0,1,547,302a11.41,11.41,0,0,1,1.45,2.06,10.32,10.32,0,0,0,2.69,2.41,15.19,15.19,0,0,0,5.48,2.08,16,16,0,0,0,4.14.55,24.31,24.31,0,0,0,5-.61,22.55,22.55,0,0,0,4.56-1.35,21.83,21.83,0,0,0,2.69-1.47l.42-.24c1.19-.67,2.35-1.42,3.48-2.18.29-.19.61-.4.91-.63l-.71.78a20.47,20.47,0,0,0,2.57,1.6,28,28,0,0,0,8.21,2.71c5.26.93,11,.57,15.64-2.28,2-1.23,4.29-2.8,5.43-4.94A8.11,8.11,0,0,0,609.38,293.84Z" fill="#cce9f7"/><path d="M544.54,269.61l-.09,0,.1,0Z" fill="#fff"/><path d="M391.13,352.58a10.27,10.27,0,0,0-2.86-.38,1.89,1.89,0,0,1,.11-.25,8.19,8.19,0,0,0,.38-4.91,13,13,0,0,0-2.2-4.4,12.82,12.82,0,0,0-7.84-4.35,16,16,0,0,0-4.73,0,15.27,15.27,0,0,0-.33-3.57c-.65-3.13-3-5.91-5.47-7.81A11.47,11.47,0,0,0,359.1,325c-.32.06-.65.15-1,.23-1-2.6-3.87-4.21-6.49-4.86a12,12,0,0,0-5.44,0,11.67,11.67,0,0,0-4.46,2.31,13.1,13.1,0,0,0-3.18,3.95,11,11,0,0,0-1.12,5.28,8,8,0,0,0,1.15,4,5,5,0,0,0-1.08.67,7.16,7.16,0,0,0-2.34,3.31,11.49,11.49,0,0,0-1.24-.51,14.66,14.66,0,0,0-5-.7,12.37,12.37,0,0,0-4.75,1.26c-3,1.38-5.9,3-7.55,6a9.08,9.08,0,0,0-.91,2.58l-.83-.23a10.93,10.93,0,0,0-6.33.31c-3.68,1.3-6.2,5.27-6.55,9a9.37,9.37,0,0,0,6.7,9.61,11.45,11.45,0,0,0,6.51-.16,16.88,16.88,0,0,0,3.79-1.61,12.69,12.69,0,0,0,2.06,2.3,16.92,16.92,0,0,0,9.09,3.66,13,13,0,0,0,4.58-.27c.77-.18,1.52-.26,2.29-.48a20.15,20.15,0,0,0,2.34-.9A14.07,14.07,0,0,0,343,367.8a11.33,11.33,0,0,0,1.19,1.11,13.86,13.86,0,0,0,8,3.13,20.81,20.81,0,0,0,8.91-1.56,16.57,16.57,0,0,0,5.39-3.68,20.61,20.61,0,0,0,8.35,3.93,25.52,25.52,0,0,0,7.07.76,19.51,19.51,0,0,0,6.73-1.44c3.62-1.49,7.62-4.45,8.34-8.53A7.91,7.91,0,0,0,391.13,352.58Z" fill="#fff"/><path d="M395,363.48c-1,1.86-3,3.23-4.72,4.3-4.06,2.49-9,2.81-13.64,2a24.17,24.17,0,0,1-7.15-2.37,16.71,16.71,0,0,1-2.24-1.39c.21-.23.42-.45.62-.68a9.41,9.41,0,0,1-.79.55c-1,.66-2,1.32-3,1.9l-.37.21a18.25,18.25,0,0,1-2.34,1.28,20.36,20.36,0,0,1-4,1.18A21.73,21.73,0,0,1,353,371a13.58,13.58,0,0,1-3.6-.48,13.2,13.2,0,0,1-4.78-1.81,9,9,0,0,1-2.34-2.1,9.92,9.92,0,0,0-1.26-1.79,10.11,10.11,0,0,0,.43,1,8.67,8.67,0,0,0,1.06,1.55,18.59,18.59,0,0,1-3.65,1.76,18,18,0,0,1-8.69,1.36,19.7,19.7,0,0,1-8.57-3.12,10.14,10.14,0,0,1-2.21-1.95h0a11.07,11.07,0,0,1-1.85-2.65,12.06,12.06,0,0,0,1.13,2.41,24.43,24.43,0,0,1-3.31,1.13,11.79,11.79,0,0,1-6.1.09,8.77,8.77,0,0,1-6.32-8.45,9.67,9.67,0,0,1,5.68-8.8,10.55,10.55,0,0,1,6.19-.43c.28.07.58.14.84.22a8.25,8.25,0,0,0-.14,1.24,7.93,7.93,0,0,0,.11,1.29,11.28,11.28,0,0,0,.53,1.71,10.46,10.46,0,0,1,.61-4.72c.11-.27.22-.52.34-.77a10.5,10.5,0,0,1,.53-1.13c1.47-2.71,4.16-4.08,6.79-5.41a13.08,13.08,0,0,1,9-1.1,11.63,11.63,0,0,1,1.58.5,5.12,5.12,0,0,0,.6,3.86,6.32,6.32,0,0,1,.64-5,8.57,8.57,0,0,1,2-2.41,3,3,0,0,1,.64-.43s0,0,0,0h0a4.09,4.09,0,0,1,.47-.23s0,0,0-.05a12.12,12.12,0,0,1,2.86-.72,7,7,0,0,1,2.1-.09l.46.08.14,0a4.33,4.33,0,0,0-1.54-.32,16.31,16.31,0,0,0-2.32.08,9.19,9.19,0,0,0-2,.47,9.06,9.06,0,0,1-.9-3.94,10.07,10.07,0,0,1,1-4.89,12.4,12.4,0,0,1,3-3.78,11.18,11.18,0,0,1,9-2.54c2.68.4,5.66,2.06,6.79,4.63a13.05,13.05,0,0,0-2.49,1,7.45,7.45,0,0,0-1.42,1.15,9.76,9.76,0,0,1,6.85-1.87,11.16,11.16,0,0,1,7,2.38,15,15,0,0,1,5.23,6.93,11.52,11.52,0,0,1,.45,2.51,12.31,12.31,0,0,1,.08,2.71c0,.23,0,.46-.05.69a14.92,14.92,0,0,0,.27-2.18l.2,0a15.34,15.34,0,0,1,4.38.3,13,13,0,0,1,7.28,4.31,12.61,12.61,0,0,1,1.9,3.68,7.42,7.42,0,0,1-.06,4.79c-.06.19-.12.39-.2.58h0a13.6,13.6,0,0,0-2.19.4,1.27,1.27,0,0,0-.76.39h0l.08,0a4.06,4.06,0,0,1,2.09-.37,12.9,12.9,0,0,1,1.39,0h0a10.38,10.38,0,0,1,2.68.59,7.79,7.79,0,0,1,4.6,4.43A7.07,7.07,0,0,1,395,363.48Z" fill="#fff"/><path d="M350.7,331.47a2.83,2.83,0,0,0,.15,1.33,7.38,7.38,0,0,1,2.2-4.59,8.72,8.72,0,0,1,1.52-1.2,8.9,8.9,0,0,1,1-.74,13.05,13.05,0,0,1,2.49-1,6.2,6.2,0,0,0-1-1.6C354.22,324,351.08,327.46,350.7,331.47Z" fill="#bce8e5" opacity="0.3"/><path d="M339.13,335.8a9.19,9.19,0,0,1,2-.47,16.31,16.31,0,0,1,2.32-.08,4.25,4.25,0,0,1,1.24.22,14.48,14.48,0,0,1,4.06,1.18,15.08,15.08,0,0,1,4,2.46c-2.49-4.14-8.07-6.71-12.61-4.94a.3.3,0,0,1-.4-.13,13,13,0,0,1-.62-6.84,10.65,10.65,0,0,0-.87,4.66A9.06,9.06,0,0,0,339.13,335.8Z" fill="#bce8e5" opacity="0.3"/><path d="M395.38,357.65a7.79,7.79,0,0,0-4.6-4.43,10.38,10.38,0,0,0-2.68-.59h0a12.9,12.9,0,0,0-1.39,0,4.06,4.06,0,0,0-2.09.37l-.08,0h0a1.27,1.27,0,0,1,.76-.39,13.6,13.6,0,0,1,2.19-.4h0a4.5,4.5,0,0,0,.21-.58,7.42,7.42,0,0,0,.06-4.79,11.29,11.29,0,0,0-7.88-7.65c2.49,1.74,4.5,4,4.46,7.34a14.77,14.77,0,0,1-2,7.4c.47-.06.94-.11,1.42-.15,2-.16,4.17-.39,6.08.42a2.8,2.8,0,0,1,1.54,3.69,8.41,8.41,0,0,1-4.78,4.89c-4.38,1.82-9.45,1.39-13.82-.22a17,17,0,0,1-7.72-5.31,13,13,0,0,1-11.81,7.25c-6.06-.12-12.74-4.16-14.48-10.16a13.14,13.14,0,0,0,1.19,5.53.3.3,0,0,1-.11.39c-4.45,2.59-13.48,5.16-18.59,2.78-2.78-1.29-4-3.85-5.06-7a15.31,15.31,0,0,0,.8,6.8c.05.2-.67.3-.85.3-3.66.3-8.07-.27-10.64-3.19a8,8,0,0,1-2-5.27,8.66,8.66,0,0,0-.53,3.17,8.77,8.77,0,0,0,6.32,8.45,11.79,11.79,0,0,0,6.1-.09,24.43,24.43,0,0,0,3.31-1.13,12.06,12.06,0,0,1-1.13-2.41,11.07,11.07,0,0,0,1.85,2.65h0a9.86,9.86,0,0,0,2.2,1.95,19.7,19.7,0,0,0,8.57,3.12,18,18,0,0,0,8.69-1.36,18.59,18.59,0,0,0,3.65-1.76,8.67,8.67,0,0,1-1.06-1.55,10.11,10.11,0,0,1-.43-1,9.92,9.92,0,0,1,1.26,1.79,9,9,0,0,0,2.34,2.1,13.2,13.2,0,0,0,4.78,1.81,13.58,13.58,0,0,0,3.6.48,21.73,21.73,0,0,0,4.34-.53,20.36,20.36,0,0,0,4-1.18,18.25,18.25,0,0,0,2.34-1.28l.37-.21c1-.58,2.05-1.24,3-1.9a9.41,9.41,0,0,0,.79-.55c-.2.23-.41.45-.62.68a16.71,16.71,0,0,0,2.24,1.39,24.17,24.17,0,0,0,7.15,2.37c4.59.82,9.58.5,13.64-2,1.75-1.07,3.74-2.44,4.72-4.3A7.07,7.07,0,0,0,395.38,357.65Z" fill="#cce9f7"/><path d="M338.88,336.54l-.07,0,.08,0Z" fill="#fff"/><path d="M709.52,394.36a10.3,10.3,0,0,0-2.59-.35l.09-.22a7.38,7.38,0,0,0,.35-4.45,11.91,11.91,0,0,0-2-4,11.61,11.61,0,0,0-7.14-3.95,14.35,14.35,0,0,0-4.29,0,14.1,14.1,0,0,0-.29-3.25,12.86,12.86,0,0,0-5-7.09,10.36,10.36,0,0,0-8.25-1.68l-.9.21c-.93-2.35-3.52-3.82-5.9-4.41a10.8,10.8,0,0,0-4.93,0,10.58,10.58,0,0,0-4.05,2.09,11.94,11.94,0,0,0-2.89,3.58,9.86,9.86,0,0,0-1,4.81,7.15,7.15,0,0,0,1,3.67,5.91,5.91,0,0,0-1,.61,6.55,6.55,0,0,0-2.12,3,8.13,8.13,0,0,0-1.13-.47,13.21,13.21,0,0,0-4.51-.64,11.14,11.14,0,0,0-4.3,1.15c-2.74,1.25-5.37,2.73-6.87,5.46a8.46,8.46,0,0,0-.83,2.36,7.67,7.67,0,0,0-.74-.22,9.84,9.84,0,0,0-5.76.29c-3.35,1.17-5.63,4.77-5.95,8.21a8.52,8.52,0,0,0,6.09,8.73,10.35,10.35,0,0,0,5.91-.15,15.89,15.89,0,0,0,3.45-1.46,11.5,11.5,0,0,0,1.87,2.1,15.4,15.4,0,0,0,8.25,3.31,11.89,11.89,0,0,0,4.16-.25c.69-.16,1.39-.23,2.08-.44a18.77,18.77,0,0,0,2.12-.8,13.51,13.51,0,0,0,3.26-1.94,11.32,11.32,0,0,0,1.08,1,12.72,12.72,0,0,0,7.28,2.86,18.92,18.92,0,0,0,8.1-1.43,15,15,0,0,0,4.9-3.35,18.7,18.7,0,0,0,7.58,3.59,23.46,23.46,0,0,0,6.41.67,17.6,17.6,0,0,0,6.12-1.3c3.28-1.35,6.92-4,7.57-7.75A7.2,7.2,0,0,0,709.52,394.36Z" fill="#97d4eb" style="mix-blend-mode:multiply"/><path d="M706.53,391.45a9.5,9.5,0,0,0-2.59-.34,1.57,1.57,0,0,1,.09-.23,7.42,7.42,0,0,0,.35-4.46,12,12,0,0,0-2-4,11.58,11.58,0,0,0-7.12-4,14.75,14.75,0,0,0-4.3,0,13.62,13.62,0,0,0-.3-3.25,12.91,12.91,0,0,0-5-7.09,10.41,10.41,0,0,0-8.26-1.66c-.29.05-.58.12-.89.2-.93-2.36-3.51-3.82-5.9-4.41a10.22,10.22,0,0,0-9,2.13,11.83,11.83,0,0,0-2.89,3.59,9.92,9.92,0,0,0-1,4.8,7.44,7.44,0,0,0,1,3.67,4.61,4.61,0,0,0-1,.6,6.6,6.6,0,0,0-2.13,3,10.65,10.65,0,0,0-1.13-.47,13.45,13.45,0,0,0-4.51-.63,11.06,11.06,0,0,0-4.31,1.15c-2.74,1.25-5.37,2.72-6.86,5.46a8.44,8.44,0,0,0-.83,2.34l-.75-.2a9.9,9.9,0,0,0-5.75.28c-3.34,1.18-5.63,4.78-5.95,8.22a8.5,8.5,0,0,0,6.09,8.72,10.43,10.43,0,0,0,5.91-.14,15.34,15.34,0,0,0,3.44-1.46,11.47,11.47,0,0,0,1.88,2.09,15.41,15.41,0,0,0,8.25,3.32,11.89,11.89,0,0,0,4.16-.25c.69-.16,1.38-.24,2.08-.43a16.62,16.62,0,0,0,2.12-.83,12.49,12.49,0,0,0,3.26-1.92,11.32,11.32,0,0,0,1.08,1,12.49,12.49,0,0,0,7.28,2.84,18.75,18.75,0,0,0,8.1-1.41,15.15,15.15,0,0,0,4.89-3.34,19,19,0,0,0,7.59,3.57,23.47,23.47,0,0,0,6.41.69,18.13,18.13,0,0,0,6.12-1.31c3.28-1.36,6.92-4,7.58-7.75A7.21,7.21,0,0,0,706.53,391.45Z" fill="#fff"/><path d="M710.05,401.35a11.53,11.53,0,0,1-4.29,3.91c-3.69,2.25-8.22,2.55-12.38,1.81a22.59,22.59,0,0,1-6.5-2.15,16.12,16.12,0,0,1-2-1.27l.56-.61c-.24.18-.49.34-.72.49-.9.6-1.82,1.19-2.75,1.73l-.34.19a17.45,17.45,0,0,1-2.13,1.16,18.64,18.64,0,0,1-3.6,1.07,19.3,19.3,0,0,1-3.94.48,12.81,12.81,0,0,1-3.27-.43,11.92,11.92,0,0,1-4.34-1.65,8.24,8.24,0,0,1-2.13-1.9,8.5,8.5,0,0,0-1.14-1.63,8.45,8.45,0,0,0,.39.88,7.89,7.89,0,0,0,1,1.4,19.91,19.91,0,0,1-11.2,2.84,18.12,18.12,0,0,1-7.79-2.84,9.23,9.23,0,0,1-2-1.77h0a10.52,10.52,0,0,1-1.69-2.4,11.44,11.44,0,0,0,1,2.18,21.24,21.24,0,0,1-3,1,10.88,10.88,0,0,1-5.55.09,8,8,0,0,1-5.74-7.67,8.77,8.77,0,0,1,5.17-8,9.52,9.52,0,0,1,5.61-.4c.26.06.53.14.77.21a8,8,0,0,0-.13,1.12,7.59,7.59,0,0,0,.1,1.17,9.3,9.3,0,0,0,.49,1.55,9.36,9.36,0,0,1,.55-4.28,7.6,7.6,0,0,1,.31-.71,8.57,8.57,0,0,1,.48-1c1.34-2.46,3.78-3.71,6.16-4.92a12,12,0,0,1,8.17-1,9.93,9.93,0,0,1,1.43.46,4.66,4.66,0,0,0,.55,3.5,5.77,5.77,0,0,1,.58-4.52,7.63,7.63,0,0,1,1.79-2.18,3.74,3.74,0,0,1,.58-.4s0,0,0,0l0,0a2.33,2.33,0,0,1,.42-.2l0-.05a12,12,0,0,1,2.6-.66,6.72,6.72,0,0,1,1.9-.08l.43.07.12,0a4.48,4.48,0,0,0-1.39-.29,16.41,16.41,0,0,0-2.11.07,9,9,0,0,0-1.79.43,8.27,8.27,0,0,1-.81-3.58,9.11,9.11,0,0,1,.9-4.44,11.47,11.47,0,0,1,2.77-3.43,10.15,10.15,0,0,1,8.17-2.31c2.43.37,5.14,1.87,6.16,4.21a11.58,11.58,0,0,0-2.26.9,7.09,7.09,0,0,0-1.29,1,8.89,8.89,0,0,1,6.22-1.69,10.17,10.17,0,0,1,6.36,2.16,13.47,13.47,0,0,1,4.74,6.29,9.51,9.51,0,0,1,.41,2.28,10.7,10.7,0,0,1,.07,2.46c0,.21,0,.42,0,.63a14.83,14.83,0,0,0,.25-2l.18,0a14,14,0,0,1,4,.28,11.74,11.74,0,0,1,6.61,3.91,11.38,11.38,0,0,1,1.72,3.34,6.75,6.75,0,0,1-.05,4.35c-.06.17-.11.35-.18.52h0a12.41,12.41,0,0,0-2,.36,1.08,1.08,0,0,0-.69.36h0l.07,0a3.64,3.64,0,0,1,1.9-.34c.42,0,.84,0,1.26,0h0a9.69,9.69,0,0,1,2.44.54,7.14,7.14,0,0,1,4.18,4A6.42,6.42,0,0,1,710.05,401.35Z" fill="#fff"/><path d="M669.81,372.28a2.59,2.59,0,0,0,.14,1.21,6.74,6.74,0,0,1,2-4.17,8.3,8.3,0,0,1,1.37-1.09,11.17,11.17,0,0,1,.91-.67,11.58,11.58,0,0,1,2.26-.9,5.69,5.69,0,0,0-.93-1.45C673,365.52,670.16,368.64,669.81,372.28Z" fill="#bce8e5" opacity="0.3"/><path d="M659.3,376.21a9,9,0,0,1,1.79-.43,16.41,16.41,0,0,1,2.11-.07,4.25,4.25,0,0,1,1.12.2A13.4,13.4,0,0,1,668,377a14,14,0,0,1,3.65,2.23c-2.26-3.76-7.33-6.09-11.46-4.48a.28.28,0,0,1-.36-.12,11.65,11.65,0,0,1-.56-6.21,9.56,9.56,0,0,0-.79,4.22A8.27,8.27,0,0,0,659.3,376.21Z" fill="#bce8e5" opacity="0.3"/><path d="M710.39,396.05a7.14,7.14,0,0,0-4.18-4,9.69,9.69,0,0,0-2.44-.54h0c-.42,0-.84,0-1.26,0a3.64,3.64,0,0,0-1.9.34l-.07,0h0a1.08,1.08,0,0,1,.69-.36,12.41,12.41,0,0,1,2-.36h0a5.44,5.44,0,0,0,.19-.52,6.75,6.75,0,0,0,.05-4.35,11.38,11.38,0,0,0-1.72-3.34,11.57,11.57,0,0,0-5.43-3.6c2.26,1.57,4.09,3.62,4.05,6.65a13.5,13.5,0,0,1-1.83,6.73l1.29-.14c1.84-.14,3.78-.36,5.52.38a2.54,2.54,0,0,1,1.4,3.35,7.6,7.6,0,0,1-4.34,4.44c-4,1.66-8.58,1.27-12.55-.2a15.29,15.29,0,0,1-7-4.82,11.79,11.79,0,0,1-10.73,6.59c-5.5-.11-11.57-3.78-13.15-9.23a12.1,12.1,0,0,0,1.08,5,.27.27,0,0,1-.1.36c-4,2.35-12.24,4.68-16.88,2.52-2.53-1.17-3.65-3.49-4.6-6.33a14,14,0,0,0,.73,6.18c.05.18-.61.27-.77.27-3.32.27-7.33-.24-9.66-2.9A7.23,7.23,0,0,1,627,393.4a7.73,7.73,0,0,0-.49,2.88,8,8,0,0,0,5.74,7.67,10.88,10.88,0,0,0,5.55-.09,21.24,21.24,0,0,0,3-1,11.44,11.44,0,0,1-1-2.18,10.52,10.52,0,0,0,1.69,2.4h0a9.23,9.23,0,0,0,2,1.77,18.12,18.12,0,0,0,7.79,2.84,19.91,19.91,0,0,0,11.2-2.84,7.89,7.89,0,0,1-1-1.4,8.45,8.45,0,0,1-.39-.88,8.5,8.5,0,0,1,1.14,1.63,8.24,8.24,0,0,0,2.13,1.9,11.92,11.92,0,0,0,4.34,1.65,12.81,12.81,0,0,0,3.27.43,19.3,19.3,0,0,0,3.94-.48,18.64,18.64,0,0,0,3.6-1.07,17.45,17.45,0,0,0,2.13-1.16l.34-.19c.93-.54,1.85-1.13,2.75-1.73.23-.15.48-.31.72-.49l-.56.61a16.12,16.12,0,0,0,2,1.27,22.59,22.59,0,0,0,6.5,2.15c4.16.74,8.69.44,12.38-1.81a11.53,11.53,0,0,0,4.29-3.91A6.42,6.42,0,0,0,710.39,396.05Z" fill="#bce8e5" opacity="0.5"/><path d="M659.08,376.88l-.07,0,.08,0Z" fill="#fff"/><path d="M828.76,287a19.16,19.16,0,0,0-5.16-.69c.06-.15.13-.29.2-.44a14.79,14.79,0,0,0,.69-8.86,23.87,23.87,0,0,0-4-7.94c-3.46-4.36-8.8-6.9-14.17-7.86a28.76,28.76,0,0,0-8.54-.06,27.33,27.33,0,0,0-.58-6.45c-1.18-5.64-5.4-10.67-9.88-14.09-4.72-3.59-10.66-4.34-16.4-3.32-.58.11-1.17.26-1.76.41-1.86-4.69-7-7.6-11.73-8.76a21.12,21.12,0,0,0-9.81.08,20.79,20.79,0,0,0-8,4.15,23.27,23.27,0,0,0-5.75,7.13c-1.61,2.87-2,6.3-2,9.53a14.61,14.61,0,0,0,2.07,7.3A9,9,0,0,0,732,258.3a12.93,12.93,0,0,0-4.21,6,17.39,17.39,0,0,0-2.25-.93,26.13,26.13,0,0,0-9-1.25,21.84,21.84,0,0,0-8.57,2.27c-5.43,2.49-10.66,5.41-13.64,10.85a17.38,17.38,0,0,0-1.64,4.66c-.51-.15-1-.28-1.49-.4a19.63,19.63,0,0,0-11.43.55c-6.64,2.35-11.19,9.51-11.82,16.33-.75,7.91,4.74,15.11,12.09,17.35a20.71,20.71,0,0,0,11.75-.29,30.15,30.15,0,0,0,6.84-2.91,23.06,23.06,0,0,0,3.73,4.16c4.54,4,10.53,5.85,16.4,6.6a23.47,23.47,0,0,0,8.27-.5c1.37-.31,2.75-.46,4.13-.85a35.94,35.94,0,0,0,4.21-1.64,25.68,25.68,0,0,0,6.49-3.83,19.34,19.34,0,0,0,2.15,2,24.92,24.92,0,0,0,14.46,5.65,37.4,37.4,0,0,0,16.08-2.8,30.16,30.16,0,0,0,9.73-6.65,37.37,37.37,0,0,0,15.08,7.09,45.64,45.64,0,0,0,12.75,1.37,35.49,35.49,0,0,0,12.14-2.6c6.54-2.68,13.76-8,15.07-15.39A14.32,14.32,0,0,0,828.76,287Z" fill="#fff"/><path d="M835.76,306.64c-1.78,3.35-5.37,5.82-8.53,7.76-7.33,4.49-16.33,5.06-24.61,3.59a44,44,0,0,1-12.9-4.27,30.78,30.78,0,0,1-4-2.52l1.11-1.22c-.47.37-1,.68-1.42,1-1.79,1.19-3.62,2.37-5.47,3.43-.22.11-.45.24-.67.37a34,34,0,0,1-4.24,2.32,36.17,36.17,0,0,1-7.16,2.12,38.72,38.72,0,0,1-7.82,1,24.78,24.78,0,0,1-6.5-.86,23.74,23.74,0,0,1-8.63-3.28,16.29,16.29,0,0,1-4.23-3.79,17.79,17.79,0,0,0-2.27-3.22c.23.57.48,1.16.78,1.74a15.15,15.15,0,0,0,1.91,2.79,33.49,33.49,0,0,1-6.58,3.17,32.5,32.5,0,0,1-15.68,2.47,35.88,35.88,0,0,1-15.48-5.64,19,19,0,0,1-4-3.51h0a20.54,20.54,0,0,1-3.34-4.78,22.45,22.45,0,0,0,2,4.35,44.74,44.74,0,0,1-6,2,21.34,21.34,0,0,1-11,.17,15.85,15.85,0,0,1-11.41-15.25,17.44,17.44,0,0,1,10.27-15.88,18.91,18.91,0,0,1,11.16-.78c.5.12,1,.26,1.52.41a17.72,17.72,0,0,0-.26,2.22,15.18,15.18,0,0,0,.2,2.34,18.54,18.54,0,0,0,1,3.07,18.61,18.61,0,0,1,1.09-8.5,13.76,13.76,0,0,1,.62-1.4,17.9,17.9,0,0,1,1-2c2.65-4.88,7.5-7.37,12.24-9.77a23.74,23.74,0,0,1,16.23-2,18.35,18.35,0,0,1,2.86.92,9.19,9.19,0,0,0,1.08,6.95,11.38,11.38,0,0,1,1.15-9,15.29,15.29,0,0,1,3.56-4.35,6,6,0,0,1,1.15-.78s0,.05,0,.07l.06,0a6.65,6.65,0,0,1,.85-.41l0-.08a22.06,22.06,0,0,1,5.17-1.31,12.28,12.28,0,0,1,3.78-.16,6.4,6.4,0,0,1,.84.14,1,1,0,0,0,.25,0,8.56,8.56,0,0,0-2.77-.57,30.52,30.52,0,0,0-4.18.15,16.36,16.36,0,0,0-3.56.85,16.37,16.37,0,0,1-1.61-7.11,18.25,18.25,0,0,1,1.78-8.82,22.73,22.73,0,0,1,5.5-6.83,20.19,20.19,0,0,1,16.25-4.58c4.83.73,10.21,3.72,12.24,8.35a23.15,23.15,0,0,0-4.48,1.79,13.39,13.39,0,0,0-2.57,2.08,17.71,17.71,0,0,1,12.36-3.37A20.27,20.27,0,0,1,787,242.48c4.05,3.21,7.89,7.5,9.42,12.5a19.87,19.87,0,0,1,.81,4.54,22.27,22.27,0,0,1,.14,4.89c0,.42-.06.83-.08,1.24a27.54,27.54,0,0,0,.49-3.94c.12,0,.24,0,.35,0a27.7,27.7,0,0,1,7.92.54A23.42,23.42,0,0,1,819.21,270a22.93,22.93,0,0,1,3.42,6.63,13.42,13.42,0,0,1-.11,8.65c-.11.34-.22.7-.36,1h-.07a24.39,24.39,0,0,0-4,.72,2.25,2.25,0,0,0-1.37.71h.1a.46.46,0,0,1,.14-.05,7.19,7.19,0,0,1,3.77-.67,21,21,0,0,1,2.51.05h0a18.32,18.32,0,0,1,4.84,1.07,14.14,14.14,0,0,1,8.31,8A12.83,12.83,0,0,1,835.76,306.64Z" fill="#fff"/><path d="M755.79,248.86a5.28,5.28,0,0,0,.28,2.41c0-2.94,2-6.34,4-8.28a93.53,93.53,0,0,1,4.56-3.51,23.15,23.15,0,0,1,4.48-1.79,11.23,11.23,0,0,0-1.86-2.89C762.15,235.43,756.48,241.63,755.79,248.86Z" fill="#bce8e5" opacity="0.3"/><path d="M734.91,256.68a16.36,16.36,0,0,1,3.56-.85,30.52,30.52,0,0,1,4.18-.15,8.36,8.36,0,0,1,2.24.4,26.37,26.37,0,0,1,7.32,2.14,28,28,0,0,1,7.26,4.43c-4.5-7.47-14.57-12.1-22.76-8.91a.54.54,0,0,1-.72-.22,23.24,23.24,0,0,1-1.12-12.35,19,19,0,0,0-1.57,8.4A16.37,16.37,0,0,0,734.91,256.68Z" fill="#bce8e5" opacity="0.3"/><path d="M836.44,296.11a14.14,14.14,0,0,0-8.31-8,18.32,18.32,0,0,0-4.84-1.07h0a21,21,0,0,0-2.51-.05,7.19,7.19,0,0,0-3.77.67.46.46,0,0,0-.14.05h-.1a2.25,2.25,0,0,1,1.37-.71,24.39,24.39,0,0,1,4-.72h0a8.71,8.71,0,0,0,.38-1,13.42,13.42,0,0,0,.11-8.65,20.32,20.32,0,0,0-14.22-13.79c4.5,3.13,8.13,7.19,8.05,13.22a26.79,26.79,0,0,1-3.63,13.36c.85-.1,1.7-.19,2.56-.25,3.65-.3,7.52-.72,11,.74a5.06,5.06,0,0,1,2.77,6.66,15.17,15.17,0,0,1-8.63,8.83c-7.91,3.29-17,2.52-24.93-.4-5.33-2-10.56-5.08-13.94-9.58-4.15,7.8-11.71,13.26-21.31,13.08-10.94-.21-23-7.5-26.14-18.33a23.92,23.92,0,0,0,2.16,10,.54.54,0,0,1-.21.71c-8,4.67-24.33,9.31-33.55,5-5-2.33-7.24-6.95-9.14-12.58a28,28,0,0,0,1.45,12.28c.11.36-1.21.53-1.52.54-6.61.54-14.56-.49-19.21-5.76a14.45,14.45,0,0,1-3.54-9.51,16.2,16.2,0,0,0,10.45,21,21.34,21.34,0,0,0,11-.17,44.74,44.74,0,0,0,6-2,22.45,22.45,0,0,1-2-4.35,20.54,20.54,0,0,0,3.34,4.78h0a18.67,18.67,0,0,0,4,3.51,35.88,35.88,0,0,0,15.48,5.64,32.5,32.5,0,0,0,15.68-2.47,33.49,33.49,0,0,0,6.58-3.17,15.15,15.15,0,0,1-1.91-2.79c-.3-.58-.55-1.17-.78-1.74a17.79,17.79,0,0,1,2.27,3.22,16.29,16.29,0,0,0,4.23,3.79,23.74,23.74,0,0,0,8.63,3.28,24.78,24.78,0,0,0,6.5.86,38.72,38.72,0,0,0,7.82-1,36.17,36.17,0,0,0,7.16-2.12,34,34,0,0,0,4.24-2.32c.22-.13.45-.26.67-.37,1.85-1.06,3.68-2.24,5.47-3.43.46-.31,1-.62,1.42-1l-1.11,1.22a30.78,30.78,0,0,0,4,2.52,44,44,0,0,0,12.9,4.27c8.28,1.47,17.28.9,24.61-3.59,3.16-1.94,6.75-4.41,8.53-7.76A12.83,12.83,0,0,0,836.44,296.11Z" fill="#cce9f7"/><path d="M734.47,258l-.13.07.15-.05Z" fill="#fff"/><path d="M209.91,331.24a14.56,14.56,0,0,0-4-.54l.16-.35a11.46,11.46,0,0,0,.53-6.87,18.48,18.48,0,0,0-3.08-6.16,17.91,17.91,0,0,0-11-6.1,22.26,22.26,0,0,0-6.62,0,21.72,21.72,0,0,0-.45-5c-.92-4.36-4.2-8.26-7.66-10.92-3.66-2.8-8.29-3.36-12.72-2.58-.47.09-.92.21-1.38.32-1.45-3.64-5.43-5.9-9.1-6.79a15.66,15.66,0,0,0-13.85,3.28,18.09,18.09,0,0,0-4.46,5.52,15.49,15.49,0,0,0-1.57,7.41,11,11,0,0,0,1.61,5.64,8,8,0,0,0-1.52.95,10.08,10.08,0,0,0-3.26,4.64,14.79,14.79,0,0,0-1.74-.72,20.47,20.47,0,0,0-7-1,17,17,0,0,0-6.65,1.77c-4.22,1.93-8.27,4.19-10.58,8.42a13.17,13.17,0,0,0-1.28,3.62l-1.15-.32a15.36,15.36,0,0,0-8.88.43c-5.15,1.82-8.68,7.38-9.16,12.68A13.12,13.12,0,0,0,94.54,352a15.93,15.93,0,0,0,9.1-.22A24.25,24.25,0,0,0,109,349.5a17.08,17.08,0,0,0,2.88,3.23c3.53,3.07,8.18,4.54,12.73,5.11a18.24,18.24,0,0,0,6.42-.37c1.06-.25,2.14-.36,3.21-.68a25.81,25.81,0,0,0,3.26-1.26,19.53,19.53,0,0,0,5-3,17.42,17.42,0,0,0,1.68,1.55,19.42,19.42,0,0,0,11.23,4.39,28.9,28.9,0,0,0,12.48-2.18,23.31,23.31,0,0,0,7.54-5.15,29.3,29.3,0,0,0,11.7,5.51,36.15,36.15,0,0,0,9.88,1,27.32,27.32,0,0,0,9.44-2c5.06-2.09,10.66-6.23,11.68-11.94A11.09,11.09,0,0,0,209.91,331.24Z" fill="#fff"/><path d="M215.35,346.5c-1.39,2.6-4.17,4.52-6.61,6-5.7,3.48-12.69,3.93-19.11,2.79a35,35,0,0,1-10-3.31,27.13,27.13,0,0,1-3.14-2l.86-1c-.36.29-.75.54-1.09.78-1.39.91-2.81,1.83-4.25,2.65-.17.1-.35.19-.52.3a26.6,26.6,0,0,1-3.28,1.78,27.94,27.94,0,0,1-5.56,1.65,30.1,30.1,0,0,1-6.07.76,19.59,19.59,0,0,1-5.06-.68,18.33,18.33,0,0,1-6.68-2.54,12.38,12.38,0,0,1-3.27-2.93,14.12,14.12,0,0,0-1.78-2.52,11.7,11.7,0,0,0,.62,1.36,11.2,11.2,0,0,0,1.47,2.17,25.76,25.76,0,0,1-5.1,2.46,25.33,25.33,0,0,1-12.18,1.91,27.88,27.88,0,0,1-12-4.37,14.59,14.59,0,0,1-3.1-2.73h0a16.31,16.31,0,0,1-2.59-3.72,18.29,18.29,0,0,0,1.58,3.38,33.3,33.3,0,0,1-4.63,1.58,16.49,16.49,0,0,1-8.54.12,12.27,12.27,0,0,1-8.86-11.82,13.56,13.56,0,0,1,8-12.33,14.84,14.84,0,0,1,8.67-.6c.39.09.8.21,1.18.33a15.49,15.49,0,0,0-.2,1.7,12.66,12.66,0,0,0,.15,1.83A16.44,16.44,0,0,0,105,332a14.57,14.57,0,0,1,.86-6.61,9.36,9.36,0,0,1,.47-1.07,15.22,15.22,0,0,1,.75-1.58c2-3.79,5.82-5.72,9.49-7.59a18.56,18.56,0,0,1,12.6-1.54,18,18,0,0,1,2.22.71,7.16,7.16,0,0,0,.84,5.41,8.84,8.84,0,0,1,.89-7,11.65,11.65,0,0,1,2.77-3.37,4.18,4.18,0,0,1,.88-.61s0,0,0,.05l0,0c.21-.12.44-.22.66-.32a.11.11,0,0,1,0-.06,17.67,17.67,0,0,1,4-1,10.28,10.28,0,0,1,2.93-.11c.22,0,.43.07.66.11a.4.4,0,0,1,.18,0,6.31,6.31,0,0,0-2.14-.46,24.87,24.87,0,0,0-3.24.12,14.32,14.32,0,0,0-2.77.65,12.8,12.8,0,0,1-1.24-5.51,14.13,14.13,0,0,1,1.38-6.84,17.39,17.39,0,0,1,4.27-5.3,15.64,15.64,0,0,1,12.6-3.55c3.75.56,7.93,2.88,9.49,6.48a17.84,17.84,0,0,0-3.46,1.38,10,10,0,0,0-2,1.62,13.73,13.73,0,0,1,9.59-2.62,15.66,15.66,0,0,1,9.8,3.33c3.16,2.49,6.13,5.81,7.32,9.71a15.13,15.13,0,0,1,.62,3.51,16.72,16.72,0,0,1,.11,3.8l-.06,1a21,21,0,0,0,.38-3.05l.28,0a21.37,21.37,0,0,1,6.13.42,18.21,18.21,0,0,1,10.21,6,18,18,0,0,1,2.65,5.16,10.46,10.46,0,0,1-.09,6.7q-.12.42-.27.81h-.05a15.82,15.82,0,0,0-3.07.56,1.7,1.7,0,0,0-1.08.54h.08a.45.45,0,0,0,.11,0,5.48,5.48,0,0,1,2.93-.52,15.73,15.73,0,0,1,1.94,0h0a14.22,14.22,0,0,1,3.76.83,11,11,0,0,1,6.45,6.2A10,10,0,0,1,215.35,346.5Z" fill="#fff"/><path d="M153.3,301.67a4.4,4.4,0,0,0,.2,1.87,10.51,10.51,0,0,1,3.09-6.43,13.11,13.11,0,0,1,2.13-1.68,12.79,12.79,0,0,1,1.41-1,17.84,17.84,0,0,1,3.46-1.38,8.17,8.17,0,0,0-1.44-2.24C158.23,291.25,153.84,296.06,153.3,301.67Z" fill="#bce8e5" opacity="0.3"/><path d="M137.09,307.73a14.32,14.32,0,0,1,2.77-.65,24.87,24.87,0,0,1,3.24-.12,6.36,6.36,0,0,1,1.74.31,21,21,0,0,1,5.68,1.66,22.27,22.27,0,0,1,5.63,3.44c-3.5-5.79-11.31-9.38-17.66-6.92a.4.4,0,0,1-.56-.17,17.91,17.91,0,0,1-.86-9.57,14.69,14.69,0,0,0-1.22,6.51A12.8,12.8,0,0,0,137.09,307.73Z" fill="#bce8e5" opacity="0.3"/><path d="M215.87,338.33a11,11,0,0,0-6.45-6.2,14.22,14.22,0,0,0-3.76-.83h0a15.73,15.73,0,0,0-1.94,0,5.48,5.48,0,0,0-2.93.52.45.45,0,0,1-.11,0h-.08a1.7,1.7,0,0,1,1.08-.54,15.82,15.82,0,0,1,3.07-.56h0a5.57,5.57,0,0,0,.29-.81,10.46,10.46,0,0,0,.09-6.7,15.69,15.69,0,0,0-11-10.7c3.48,2.43,6.29,5.57,6.23,10.25a20.88,20.88,0,0,1-2.81,10.37c.65-.08,1.31-.15,2-.2,2.83-.22,5.84-.56,8.52.57a3.94,3.94,0,0,1,2.15,5.17,11.78,11.78,0,0,1-6.7,6.85c-6.12,2.56-13.22,2-19.34-.31-4.14-1.52-8.19-3.93-10.82-7.42-3.22,6.05-9.09,10.28-16.54,10.14-8.48-.16-17.83-5.82-20.28-14.22a18.6,18.6,0,0,0,1.68,7.74.42.42,0,0,1-.16.56c-6.22,3.62-18.88,7.21-26,3.88-3.91-1.81-5.62-5.39-7.1-9.75a21.8,21.8,0,0,0,1.13,9.52c.08.28-.93.4-1.18.42-5.14.41-11.3-.39-14.91-4.47a11.26,11.26,0,0,1-2.74-7.38,12.54,12.54,0,0,0,8.11,16.26,16.49,16.49,0,0,0,8.54-.12,33.3,33.3,0,0,0,4.63-1.58,18.29,18.29,0,0,1-1.58-3.38,16.31,16.31,0,0,0,2.59,3.72h0a14.53,14.53,0,0,0,3.09,2.72,27.88,27.88,0,0,0,12,4.37,25.33,25.33,0,0,0,12.18-1.91,25.76,25.76,0,0,0,5.1-2.46,11.2,11.2,0,0,1-1.47-2.17,11.7,11.7,0,0,1-.62-1.36,14.12,14.12,0,0,1,1.78,2.52,12.38,12.38,0,0,0,3.27,2.93,18.33,18.33,0,0,0,6.68,2.54,19.59,19.59,0,0,0,5.06.68,30.1,30.1,0,0,0,6.07-.76,27.94,27.94,0,0,0,5.56-1.65,26.6,26.6,0,0,0,3.28-1.78c.17-.11.35-.2.52-.3,1.44-.82,2.86-1.74,4.25-2.65.34-.24.73-.49,1.09-.78l-.86,1a27.13,27.13,0,0,0,3.14,2,35,35,0,0,0,10,3.31c6.42,1.14,13.41.69,19.11-2.79,2.44-1.51,5.22-3.43,6.61-6A10,10,0,0,0,215.87,338.33Z" fill="#cce9f7"/><path d="M136.75,308.77l-.1.06.12,0Z" fill="#fff"/><path d="M439.93,488.22c-2.52-6.71-8.1-11.3-14.35-14.35a27.78,27.78,0,0,0-6.14-2.13c.24-.59.45-1.18.64-1.75a40.31,40.31,0,0,0,1.72-13.32,31.25,31.25,0,0,0-3-12.94c-1.89-3.81-5-6.92-8.12-9.74-5.94-5.38-14.69-6.94-22.42-6.12a35.33,35.33,0,0,0-8.26,1.91,24.69,24.69,0,0,0-.31-3.09,31.42,31.42,0,0,0-12.34-19.87,28.24,28.24,0,0,0-11.21-5.07c-4.59-.9-9.41-.29-13.92.77-7.57,1.78-14.16,6.88-19.07,12.75a51.7,51.7,0,0,0-10.29,20.94,50.08,50.08,0,0,0-1.13,15.05c.17,2.66.49,5.34.81,8l0,.52a19.25,19.25,0,0,0-2.95-1.78,11,11,0,0,0-6.44-.88l-1.27.2a18.39,18.39,0,0,0-1.36-6.55c-3.43-8.13-13-8.56-20.53-6.82a20.27,20.27,0,0,0-3.21-5.43,21.1,21.1,0,0,0-9.68-6.63c-3.87-1.21-8.5-.05-12.2,1.25l-.61.24c-.84-12.86-8.48-25.46-19.45-31.92-13.53-7.95-31.49-6.21-45.6-.76s-27.49,14.42-35.52,27.39a39.84,39.84,0,0,0-5.7,22c0,.23,0,.46,0,.7a28.16,28.16,0,0,0-11.35,1.32c-.58.19-1.15.41-1.72.63a19.92,19.92,0,0,0-2.15-2.83c-2.85-3-7.65-4.58-11.53-5.6-8.86-2.32-18.36-.09-26.69,3.24-16.43,6.56-29.75,19.89-38.57,35C48.31,495.83,43.56,511.59,45,527.09c1.17,12.76,8,29.69,21.65,32.65l-.4.32a10.58,10.58,0,0,0-1.68,1.37c-1.69,2.37,4.49,2.45,5.66,2.46,5.08,0,10.28-.9,15.3-1.65,5.34-.8,10.65-1.68,16-2.35,21.75-2.71,43.43-6.06,65.23-8.32,21.45-2.23,43-3.6,64.5-4.92,21.78-1.34,43.56-2.7,65.33-4.25,8.58-.61,17.16-1.31,25.76-1.58,8.41-.26,16.83-.26,25.24-.26H372.9c2.49,0,5,.17,7.55.39.71.5,1.42,1,2.11,1.52,2.12,1.59,3.68,3.65,5.53,5.54a22.32,22.32,0,0,0,2.19,2,7.14,7.14,0,0,1,1.37,2.69c.47,1.36,2.5,1.81,3.69,2.11,3.93,1,7.26-.77,10.71-2.45a49.62,49.62,0,0,0,10.85-7.55,113.75,113.75,0,0,0,9.83-9.81,63.5,63.5,0,0,0,13.71-23.82A36.38,36.38,0,0,0,439.93,488.22Z" fill="#fff"/><path d="M70.34,564.22H70.2c-2,0-5.48-.21-6.15-1.53a1.32,1.32,0,0,1,.23-1.45,4.17,4.17,0,0,1,1.11-1c.18-.12.35-.24.5-.36-6-1.52-11.17-5.88-15.06-12.65a51.16,51.16,0,0,1-6.19-20.14c-1.3-14.31,2.66-30.21,11.15-44.77,9.66-16.56,23.41-29,38.73-35.16,7.11-2.84,13.35-4.22,19.1-4.22a31,31,0,0,1,7.81,1c3.57.94,8.67,2.55,11.68,5.69a19.7,19.7,0,0,1,2,2.65c.55-.21,1-.39,1.49-.53a28.91,28.91,0,0,1,11.09-1.38c0-.11,0-.21,0-.32a40.15,40.15,0,0,1,5.75-22.14c9.24-15,24.5-23.22,35.68-27.53a67.42,67.42,0,0,1,24-4.67c8.36,0,15.72,1.83,21.88,5.46a41.33,41.33,0,0,1,19.59,31.72l.2-.08c5.28-1.85,9.26-2.23,12.4-1.25a21.43,21.43,0,0,1,9.84,6.74,20.52,20.52,0,0,1,3.17,5.25,31.06,31.06,0,0,1,6.69-.78c4.85,0,11.2,1.37,13.93,7.87a18.66,18.66,0,0,1,1.38,6.28l.9-.14a11.38,11.38,0,0,1,6.63.91,20.37,20.37,0,0,1,2.42,1.39c-.3-2.55-.62-5.2-.78-7.8a50.7,50.7,0,0,1,1.14-15.14,51.8,51.8,0,0,1,10.36-21.08c5.6-6.7,12.44-11.26,19.24-12.86a40.43,40.43,0,0,1,9.28-1.22,25.29,25.29,0,0,1,4.79.45,28.33,28.33,0,0,1,11.34,5.12A31.7,31.7,0,0,1,380,426.63c.14.87.23,1.77.29,2.69a35.75,35.75,0,0,1,7.91-1.78c1.3-.13,2.61-.21,3.91-.21,7.53,0,14.2,2.28,18.78,6.41,3.11,2.81,6.25,5.95,8.19,9.84a32.06,32.06,0,0,1,3,13.08,41.1,41.1,0,0,1-1.75,13.44c-.17.5-.33,1-.5,1.4a28.78,28.78,0,0,1,5.83,2.07c7.36,3.6,12.25,8.49,14.52,14.53a36.83,36.83,0,0,1,.52,23.22A63.2,63.2,0,0,1,427,535.27a113.06,113.06,0,0,1-9.86,9.84,49.07,49.07,0,0,1-10.93,7.59l-.49.25c-2.55,1.24-5.18,2.54-8.05,2.54h0a9.22,9.22,0,0,1-2.39-.31l-.18,0c-1.29-.33-3.23-.82-3.74-2.28a7.2,7.2,0,0,0-1.26-2.54,23.75,23.75,0,0,1-2.23-2.08c-.58-.59-1.13-1.2-1.67-1.79a26.76,26.76,0,0,0-3.82-3.71c-.62-.47-1.25-.92-1.88-1.36l-.14-.11c-2.22-.19-4.83-.38-7.44-.38H347.57c-8.23,0-16.74,0-25.23.26-7.24.23-14.57.77-21.67,1.28l-4.08.3c-21.39,1.53-42.24,2.82-65.33,4.24-22.83,1.41-43.44,2.75-64.48,4.93-13.78,1.43-27.73,3.32-41.23,5.15-7.86,1.07-16,2.17-24,3.17-3.93.49-7.9,1.1-11.75,1.7l-4.25.65-2,.29A87.91,87.91,0,0,1,70.34,564.22Zm43.28-120.58c-5.66,0-11.83,1.36-18.85,4.16-15.19,6.07-28.83,18.45-38.41,34.88C47.94,497.12,44,512.89,45.3,527.06c1.24,13.62,8.46,29.56,21.39,32.36l.67.14-.69.56a2.11,2.11,0,0,0-.23.19,6.86,6.86,0,0,1-.67.5,3.54,3.54,0,0,0-1,.82c-.34.46-.23.69-.19.76.36.7,2.55,1.16,5.57,1.17h.14a88.29,88.29,0,0,0,13.15-1.35l2-.3,4.25-.65c3.85-.59,7.83-1.2,11.77-1.7,8-1,16.13-2.1,24-3.16,13.5-1.83,27.47-3.73,41.25-5.16,21-2.18,41.67-3.52,64.51-4.93,23.09-1.42,43.93-2.71,65.32-4.24l4.08-.3c7.1-.52,14.45-1,21.7-1.28,8.5-.27,17-.27,25.25-.27H372.9c2.67,0,5.33.21,7.58.4h.09l.29.21c.64.45,1.28.9,1.9,1.37a28.17,28.17,0,0,1,3.91,3.8c.53.58,1.08,1.19,1.65,1.77a24.81,24.81,0,0,0,2.16,2,6.82,6.82,0,0,1,1.47,2.81c.41,1.15,2.14,1.59,3.29,1.89l.18,0a9,9,0,0,0,2.23.28c2.72,0,5.16-1.2,7.76-2.47l.49-.24a48.5,48.5,0,0,0,10.78-7.5,114.55,114.55,0,0,0,9.81-9.77,63,63,0,0,0,13.64-23.7,36.26,36.26,0,0,0-.51-22.81c-2.21-5.88-7-10.64-14.19-14.16a27.31,27.31,0,0,0-6.06-2.1L419,472l.15-.36c.21-.52.41-1.09.62-1.73a40.38,40.38,0,0,0,1.72-13.21,31.27,31.27,0,0,0-3-12.81c-1.88-3.79-5-6.87-8-9.64-4.45-4-11-6.23-18.33-6.23a35,35,0,0,0-12,2.09l-.42.15,0-.45a26.7,26.7,0,0,0-.3-3.05,31.11,31.11,0,0,0-12.22-19.66,27.61,27.61,0,0,0-11.07-5,24,24,0,0,0-4.66-.43,40.17,40.17,0,0,0-9.13,1.19c-6.67,1.57-13.37,6.06-18.88,12.65a51.06,51.06,0,0,0-10.22,20.8,49.76,49.76,0,0,0-1.13,14.95c.17,2.6.48,5.24.78,7.8l0,.18c0,.16,0,.35,0,.53l0,.7-.56-.42a19.47,19.47,0,0,0-2.89-1.74,10.62,10.62,0,0,0-6.25-.85l-1.26.2-.37.06,0-.38a18.24,18.24,0,0,0-1.34-6.43c-2.59-6.16-8.67-7.45-13.32-7.45a30,30,0,0,0-6.82.82l-.27.06-.11-.26a19.91,19.91,0,0,0-3.17-5.34,20.74,20.74,0,0,0-9.53-6.53c-3-.94-6.85-.55-12,1.25l-.36.14-.66.26,0-.45a40.65,40.65,0,0,0-19.29-31.65c-6.06-3.57-13.31-5.37-21.55-5.37A66.85,66.85,0,0,0,189.38,401c-11.07,4.27-26.2,12.47-35.35,27.26A39.55,39.55,0,0,0,148.38,450c0,.15,0,.3,0,.45l0,.62-.38,0a28.2,28.2,0,0,0-11.22,1.32c-.51.16-1.05.36-1.7.62l-.25.09-.15-.22a18.33,18.33,0,0,0-2.11-2.78c-2.89-3-7.87-4.59-11.37-5.51A30.06,30.06,0,0,0,113.62,443.64Z" fill="#cbebfb"/><path d="M439.93,488.22c-2.52-6.71-8.1-11.3-14.35-14.35a27.78,27.78,0,0,0-6.14-2.13c.24-.59.45-1.18.64-1.75a40.31,40.31,0,0,0,1.72-13.32,31.25,31.25,0,0,0-3-12.94,22.62,22.62,0,0,0-1.51-2.56,22,22,0,0,1-4.12,4.67,36.7,36.7,0,0,1-16.29,8.51c-6.8,1.48-14.84,1.07-20.45-3.53a16.48,16.48,0,0,1-2.52-2.56c-5.49,8.45-16.78,12.22-26.59,12.43-6.55.14-13.18-1.2-18.67-4.93-5.88-4-10.54-10.11-11.88-17.19-2.89-15.39,10.06-29.22,23.49-34.5a39.87,39.87,0,0,1,12.65-2.71,38.42,38.42,0,0,0-10.69,1.16c-7.57,1.78-14.16,6.88-19.07,12.75a51.7,51.7,0,0,0-10.29,20.94,50.08,50.08,0,0,0-1.13,15.05c.17,2.66.49,5.34.81,8l0,.52c-.14-.1-.28-.21-.42-.3,2.17,7.88-.39,17.59-7.81,21-6,2.8-14.47,2.33-19-3a13.21,13.21,0,0,1-3-10c-9,4.19-21,2.49-26.65-6.4-5-7.84-6.17-21,.14-28.29-.3.09-.59.19-.88.3l-.61.24c-.84-12.86-8.48-25.46-19.45-31.92a34.48,34.48,0,0,0-3.93-2,58.79,58.79,0,0,1,16.12,29.34c1.32,6.64.75,13.4-.35,20-1.21,7.37-3.29,14.88-7.38,21.22A31.29,31.29,0,0,1,222.87,483a36.9,36.9,0,0,1-21.77.53A33.56,33.56,0,0,1,183,471.09a29.76,29.76,0,0,1-3.36-6.32,69.21,69.21,0,0,1-19.51,24.69,81.72,81.72,0,0,1-38.22,17.26c-5.67.94-11.89,1.4-17.39-.61a16.73,16.73,0,0,1-7.1-4.9,51.21,51.21,0,0,1-10.76,16c-5.61,5.76-13.88,11.75-22.43,10.07-6-1.18-10.63-6.09-13.3-11.43a29.55,29.55,0,0,1-2.52-16.22A69,69,0,0,0,45,527.09c1.17,12.76,8,29.69,21.65,32.65l-.4.32a10.58,10.58,0,0,0-1.68,1.37c-1.69,2.37,4.49,2.45,5.66,2.46,5.08,0,10.28-.9,15.3-1.65,5.34-.8,10.65-1.68,16-2.35,21.75-2.71,43.43-6.06,65.23-8.32,21.45-2.23,43-3.6,64.5-4.92,21.78-1.34,43.56-2.7,65.33-4.25,8.58-.61,17.16-1.31,25.76-1.58,8.41-.26,16.83-.26,25.24-.26H372.9c2.49,0,5,.17,7.55.39.71.5,1.42,1,2.11,1.52,2.12,1.59,3.68,3.65,5.53,5.54a22.32,22.32,0,0,0,2.19,2,7.14,7.14,0,0,1,1.37,2.69c.47,1.36,2.5,1.81,3.69,2.11,3.93,1,7.26-.77,10.71-2.45a49.62,49.62,0,0,0,10.85-7.55,113.75,113.75,0,0,0,9.83-9.81,63.5,63.5,0,0,0,13.71-23.82A36.38,36.38,0,0,0,439.93,488.22Z" fill="#cce9f7"/><path d="M417.09,509.79c3.4,9.5,9.32,17.94,16.4,25.07a125.47,125.47,0,0,0,11.31,10,53.92,53.92,0,0,0,12.27,7.54c3.85,1.61,7.59,3.34,11.8,2,1.28-.4,3.46-1,3.88-2.53a7.77,7.77,0,0,1,1.33-3,26.49,26.49,0,0,0,2.26-2.36c1.89-2.17,3.46-4.51,5.66-6.37.72-.61,1.46-1.2,2.2-1.79,2.73-.39,5.48-.74,8.19-.9L520,535.91c9.16-.52,18.31-1,27.48-1.28,9.38-.24,18.75,0,28.13.11,23.78.34,47.55.45,71.34.55,23.49.1,47,.26,70.47,1.35,23.86,1.1,47.66,3.39,71.49,5,5.87.39,11.71,1,17.57,1.55,5.5.51,11.21,1.18,16.74.84,1.28-.07,8-.55,6-3a11.88,11.88,0,0,0-1.9-1.39l-.46-.32c14.67-4.07,21.05-22.92,21.52-36.87.57-17-5.58-33.8-14.86-47.81-10.54-15.9-25.86-29.58-44.14-35.69-9.27-3.1-19.75-4.94-29.25-1.86-4.15,1.35-9.27,3.39-12.19,6.81a21,21,0,0,0-2.16,3.21c-.63-.21-1.27-.41-1.91-.57a30.79,30.79,0,0,0-12.43-.74c0-.25,0-.51,0-.76a43.34,43.34,0,0,0-7.56-23.53c-9.54-13.62-24.75-22.58-40.35-27.59s-35.34-5.83-49.56,3.67c-11.55,7.7-19.06,21.9-19.18,35.93l-.68-.23c-4.11-1.18-9.21-2.15-13.34-.59a23,23,0,0,0-10.13,7.82,22.37,22.37,0,0,0-3.16,6.1c-8.26-1.43-18.68-.35-21.9,8.7a20.24,20.24,0,0,0-1.08,7.21l-1.39-.14a12.07,12.07,0,0,0-6.95,1.36,21.6,21.6,0,0,0-3.1,2.12c0-.19,0-.38,0-.56.18-2.91.36-5.84.38-8.75a54.78,54.78,0,0,0-2.17-16.3,56.35,56.35,0,0,0-12.5-22.14c-5.71-6.08-13.2-11.23-21.54-12.69-5-.87-10.26-1.23-15.2,0a30.93,30.93,0,0,0-11.87,6.22A34.21,34.21,0,0,0,477.92,414a29.4,29.4,0,0,0-.15,3.38,38.53,38.53,0,0,0-9.1-1.56c-8.47-.41-17.88,1.84-24,8-3.21,3.26-6.4,6.84-8.22,11.1A34.26,34.26,0,0,0,434,449.27a43.58,43.58,0,0,0,2.71,14.38c.24.62.5,1.24.79,1.87a30.22,30.22,0,0,0-6.53,2.7c-6.61,3.71-12.4,9-14.73,16.5A39.7,39.7,0,0,0,417.09,509.79Z" fill="#fff"/><path d="M465.78,555.26h0c-2.88,0-5.63-1.16-8.28-2.28l-.56-.23a53.26,53.26,0,0,1-12.35-7.58,126.51,126.51,0,0,1-11.34-10.08c-7.73-7.79-13.28-16.26-16.47-25.18a40.19,40.19,0,0,1-.89-25.29c2.1-6.71,7.1-12.32,14.88-16.69a30.8,30.8,0,0,1,6.24-2.62c-.21-.47-.42-1-.64-1.53a44.64,44.64,0,0,1-2.74-14.5,34.67,34.67,0,0,1,2.5-14.41c1.86-4.34,5.08-7.95,8.29-11.2,5.14-5.21,13.27-8.2,22.3-8.2.65,0,1.31,0,2,0a38.74,38.74,0,0,1,8.75,1.45,28.52,28.52,0,0,1,.15-3,34.5,34.5,0,0,1,12.3-22.61,30.72,30.72,0,0,1,12-6.27,28.31,28.31,0,0,1,7.09-.84,47.23,47.23,0,0,1,8.25.8c7.49,1.31,15.21,5.85,21.72,12.79a56.52,56.52,0,0,1,12.57,22.27,55,55,0,0,1,2.19,16.39c0,2.86-.2,5.76-.37,8.57v0a26.52,26.52,0,0,1,2.58-1.7,12.38,12.38,0,0,1,7.15-1.39l1,.1a20.4,20.4,0,0,1,1.1-7c2.16-6.09,8-9.44,16.33-9.44a34.7,34.7,0,0,1,5.66.48,22.35,22.35,0,0,1,3.12-5.93,23.24,23.24,0,0,1,10.27-7.93,14.22,14.22,0,0,1,5-.83,31.09,31.09,0,0,1,8.54,1.42l.26.08c.28-14.08,7.82-28.07,19.32-35.75,7.25-4.84,16.61-7.4,27.06-7.4a75.56,75.56,0,0,1,22.79,3.69c12.42,4,29.53,12,40.52,27.72A43.79,43.79,0,0,1,731.72,425v.39a31.26,31.26,0,0,1,12.18.8c.51.13,1.05.29,1.68.49a21,21,0,0,1,2.06-3c3.07-3.59,8.51-5.66,12.34-6.9a34.77,34.77,0,0,1,10.7-1.6,59.33,59.33,0,0,1,18.75,3.45c17.05,5.7,32.79,18.43,44.32,35.83,10.14,15.31,15.43,32.36,14.91,48-.5,14.91-7.33,32.67-21.11,37a6.69,6.69,0,0,0,.62.4,5,5,0,0,1,1.26,1,1.45,1.45,0,0,1,.34,1.54c-.65,1.46-4.4,1.9-6.57,2-1,.06-2.05.09-3.14.09-3.83,0-7.74-.38-11.51-.74l-2.16-.2-4.66-.44c-4.22-.4-8.59-.83-12.89-1.11-8.77-.59-17.69-1.28-26.31-2-14.8-1.15-30.1-2.34-45.17-3-23-1.07-45.54-1.24-70.47-1.35-25.2-.1-48-.22-71.34-.55l-4.46-.07c-4.76-.07-9.68-.15-14.52-.15-3.32,0-6.3,0-9.13.11-9.25.24-18.51.77-27.47,1.28l-27.56,1.58c-2.85.16-5.68.54-8.07.89l-.21.17c-.65.51-1.29,1-1.91,1.55a29.66,29.66,0,0,0-3.93,4.28c-.54.67-1.11,1.38-1.7,2.06a27.82,27.82,0,0,1-2.29,2.39,7.51,7.51,0,0,0-1.21,2.8c-.47,1.66-2.55,2.31-3.93,2.75l-.18.06A10.58,10.58,0,0,1,465.78,555.26Zm.94-139.12c-8.85,0-16.81,2.91-21.83,8-3.16,3.21-6.34,6.76-8.15,11a33.84,33.84,0,0,0-2.44,14.13A43.5,43.5,0,0,0,437,463.53c.27.7.53,1.3.78,1.85l.17.35-.38.11a30,30,0,0,0-6.46,2.67c-7.63,4.28-12.53,9.77-14.57,16.31a39.42,39.42,0,0,0,.87,24.86c3.16,8.83,8.65,17.22,16.32,24.95a125.11,125.11,0,0,0,11.28,10,52.88,52.88,0,0,0,12.2,7.49l.55.23c2.72,1.15,5.29,2.23,8,2.23h0a9.77,9.77,0,0,0,3-.46l.2-.06c1.24-.39,3.11-1,3.47-2.24a7.66,7.66,0,0,1,1.42-3.18,25.39,25.39,0,0,0,2.23-2.33c.58-.67,1.15-1.37,1.69-2a31.06,31.06,0,0,1,4-4.37c.63-.53,1.28-1,1.92-1.56l.35-.29h.09c2.43-.36,5.31-.74,8.22-.91l27.56-1.58c9-.51,18.23-1,27.49-1.28,2.83-.07,5.83-.11,9.15-.11,4.84,0,9.77.08,14.53.15l4.46.07c23.38.33,46.14.45,71.34.55,24.93.11,47.45.28,70.49,1.34,15.08.7,30.39,1.89,45.19,3.05,8.62.67,17.54,1.36,26.3,1.95,4.32.29,8.69.7,12.91,1.11l4.67.44,2.15.2c3.76.36,7.65.74,11.45.74,1.07,0,2.11,0,3.1-.09,3.29-.2,5.65-.84,6-1.64,0-.08.16-.35-.24-.85a4.35,4.35,0,0,0-1.1-.83c-.26-.17-.53-.33-.76-.51a2.48,2.48,0,0,0-.26-.19l-.74-.53.66-.18c13.9-3.86,20.77-21.65,21.28-36.56.52-15.51-4.74-32.42-14.8-47.61-11.46-17.29-27.07-29.92-44-35.57a58.75,58.75,0,0,0-18.55-3.42,34,34,0,0,0-10.5,1.57c-3.74,1.21-9.07,3.23-12,6.71a21.32,21.32,0,0,0-2.13,3.16l-.13.23-.25-.09c-.73-.24-1.33-.42-1.9-.56a30.54,30.54,0,0,0-12.3-.73l-.37,0v-.65c0-.16,0-.32,0-.48a43.11,43.11,0,0,0-7.5-23.35c-10.88-15.53-27.86-23.51-40.18-27.47a74.92,74.92,0,0,0-22.59-3.66c-10.32,0-19.55,2.52-26.69,7.29-11.44,7.64-18.92,21.64-19,35.66v.45l-.68-.22-.41-.14a30.92,30.92,0,0,0-8.36-1.39,13.85,13.85,0,0,0-4.78.78,22.78,22.78,0,0,0-10,7.71,21.81,21.81,0,0,0-3.11,6l-.1.28-.27-.06a34.74,34.74,0,0,0-5.83-.51c-10.34,0-14.25,4.9-15.7,9a19.83,19.83,0,0,0-1.07,7.09v.37l-.37,0-1.39-.14a11.71,11.71,0,0,0-6.76,1.32,21.4,21.4,0,0,0-3,2.08l-.53.45v-.7c0-.2,0-.39,0-.58v-.2c.17-2.8.35-5.69.37-8.54a54.64,54.64,0,0,0-2.16-16.19,55.91,55.91,0,0,0-12.42-22c-6.41-6.83-14-11.3-21.36-12.59A46.75,46.75,0,0,0,509,385a27.89,27.89,0,0,0-6.92.81,30.12,30.12,0,0,0-11.76,6.14,33.85,33.85,0,0,0-12.06,22.16,30.26,30.26,0,0,0-.15,3.35v.45l-.43-.13a38.4,38.4,0,0,0-9-1.55C468,416.15,467.36,416.14,466.72,416.14Z" fill="#cbebfb"/><path d="M833.47,454.61A103.14,103.14,0,0,0,823,441.36a25.62,25.62,0,0,1-.74,9.7c-3.94,14.54-19.29,24.59-34.2,20.81a34.65,34.65,0,0,1-18.56-12.47,36.73,36.73,0,0,1-4.62,12.73,32.48,32.48,0,0,1-13,12.7A34.21,34.21,0,0,1,732.23,488c-14.09-1.82-26.4-13.16-26.31-28,0-8.11,3.49-15.85,8.6-22A43.83,43.83,0,0,1,724,429.3a39.32,39.32,0,0,1,6.25-3.47c.37-.16.75-.31,1.13-.45,0-.13,0-.25,0-.37a43.34,43.34,0,0,0-7.56-23.53c-9.54-13.62-24.75-22.58-40.35-27.59a74.77,74.77,0,0,0-22.84-3.67,46.06,46.06,0,0,1,17.72,4.88c10.52,5.39,19.2,15.16,20.38,27.29,1.47,15.21-7.88,29.38-21.09,36.31-7.13,3.75-15.27,5.64-23.27,4-6.28-1.27-11.86-4.3-17-8a25.76,25.76,0,0,1,2.26,6.1c2.11,9.06.24,19.34-5.82,26.56-7.19,8.56-20.73,12.48-29.95,4.76-5-4.2-8.21-10.35-9.77-16.91-.48.87-1,1.71-1.52,2.52-4.15,6.24-10.41,11.35-18,12.42a19,19,0,0,1-19.32-9.36,21.45,21.45,0,0,1-1.91-15.23l-.3.24c0-.19,0-.38,0-.56.18-2.91.36-5.84.38-8.75a54.78,54.78,0,0,0-2.17-16.3q-.35-1.1-.72-2.19a38.63,38.63,0,0,1-3.87,20.39c-6.78,13.64-21.43,23.63-37.05,21.2a36.43,36.43,0,0,1-21-11.05,24.17,24.17,0,0,1-5.29-8.15,11.26,11.26,0,0,1-.84,1.24c-2.76,3.59-7.19,5.71-11.46,6.9a42.38,42.38,0,0,1-15.73,1.28c-4.57-.49-9.42-1.59-13.24-4.25a11.91,11.91,0,0,1-5.22-11.38c-.12.26-.26.52-.37.78A34.26,34.26,0,0,0,434,449.27a43.58,43.58,0,0,0,2.71,14.38c.24.62.5,1.24.79,1.87a30.22,30.22,0,0,0-6.53,2.7c-6.61,3.71-12.4,9-14.73,16.5a39.7,39.7,0,0,0,.88,25.07c3.4,9.5,9.32,17.94,16.4,25.07a125.47,125.47,0,0,0,11.31,10,53.92,53.92,0,0,0,12.27,7.54c3.85,1.61,7.59,3.34,11.8,2,1.28-.4,3.46-1,3.88-2.53a7.77,7.77,0,0,1,1.33-3,26.49,26.49,0,0,0,2.26-2.36c1.89-2.17,3.46-4.51,5.66-6.37.72-.61,1.46-1.2,2.2-1.79,2.73-.39,5.48-.74,8.19-.9L520,535.91c9.16-.52,18.31-1,27.48-1.28,9.38-.24,18.75,0,28.13.11,23.78.34,47.55.45,71.34.55,23.49.1,47,.26,70.47,1.35,23.86,1.1,47.66,3.39,71.49,5,5.87.39,11.71,1,17.57,1.55,5.5.51,11.21,1.18,16.74.84,1.28-.07,8-.55,6-3a11.88,11.88,0,0,0-1.9-1.39l-.46-.32c14.67-4.07,21.05-22.92,21.52-36.87C848.9,485.46,842.75,468.62,833.47,454.61Z" fill="#cce9f7"/><path d="M49.32,541.18a.37.37,0,0,0,.37,0l.08,0c3.79.95,7.79,1.49,11.74,2.12.83-.43,1.66-.87,2.47-1.34a123.24,123.24,0,0,0,16.78-11.93c10.38-8.52,19.9-18,29.46-27.43,6.34-6.23,12.76-12.37,19-18.67s12.33-12.4,19.08-18a90.9,90.9,0,0,1,20.48-13.19,53.59,53.59,0,0,1,8.45-3.09c-1.66.12-3.32.29-5,.5-29,3.83-98.21,70.49-120.17,87.93l-1.29,1a4.24,4.24,0,0,0-.87.64l-.33-.22c-.43-.28-1.59.69-1.16,1Z" fill="#458c45" style="mix-blend-mode:screen"/><path d="M851.7,547c-4.74-10.06-64.07-13.23-76.17-14.24-28.19-2.35-56.42-6.77-84.78-4.75-12.78.91-25.56,2.37-38.31,3.63-39.58,3.88-79.17,7.74-118.81,11-18.54,1.52-156.82-2.8-206.79-10.88-20.35-3.3-40.65-5.85-61.21-7.47-22.21-1.74-44.19-2.79-66.49-2.45-19.31.3-38.87,3.12-58,5.4-22.65,2.7-45.31,5.52-68,7.82C62,536.13,50.85,537.56,40,540.45c-6.33,1.7-25.33,5.88-26.13,14.37C12.82,566.47,42.37,568.25,50,569.74c15.2,3,30.77,4.51,46.2,5.67,7.55.57,15.1,1.12,22.66,1.41,3.83.15,7.65.15,11.49.21,1.89,0,3.77.19,5.66.37-1.43.34-2.86.71-4.3,1a93.39,93.39,0,0,0-13.05,4.26c-4.42,1.73-8.55,4.15-12.9,6-2.82,1.24-6,2.19-8.09,4.59-9.4,10.63,27.52,17.28,32.06,18A354.77,354.77,0,0,0,195,616.1c21.54-.31,43.12-.88,64.62-2.07,21.91-1.21,43.79-2.74,65.7-3.89,43.67-2.28,87.39-1.88,131-5.06l.68,0c-2,.59-3.9,1.19-5.84,1.82-5,1.6-10.52,3.53-14.81,6.61-3.63,2.6-5.22,6.66-1.68,10,3.69,3.49,10.28,4.63,15.12,5.35,9.22,1.38,18.63,1.49,27.93,1.53,10,0,19.94,0,29.9-.24,64.13-1.25,133.73,5.58,197.43-2.06,31.1-3.73,125.83-.93,130.49-33.55,1-6.79-24.56-16.18-28.07-17.08-8.45-2.17-17.21-3-25.88-3.74-9.23-.75-18.44-1.64-27.68-2.35,6.32-1.06,12.61-2.23,19-3,9.39-1.15,18.6-3.32,28-4.6C810.06,562.5,855.2,554.41,851.7,547Z" fill="#48bb76"/><path d="M800.88,563.75c9.18-1.25,54.32-9.34,50.82-16.8-1.2-2.54-5.89-4.64-12.42-6.38a5.32,5.32,0,0,1,2.5,3c.32,1.81-1.25,3.08-2.69,3.86a59.18,59.18,0,0,1-10.85,4c-18.33,5.68-37.44,7.83-56.2,11.55-9.94,2-19.81,4.26-29.76,6.1a43.31,43.31,0,0,0-6,1.31c-1.5.51-3,1-4.52,1.45l-.71.18c6.62.74,13.27,1.19,19.87,2.14a177.77,177.77,0,0,1,25.18,5.61c4.32,1.28,8.61,2.68,12.83,4.25,3.33,1.25,6.58,2.7,9.93,3.9,3,1.08,9.6,2.8,9.65,6.94,0,2.22-1.62,3.79-3.34,4.95a38.85,38.85,0,0,1-8.19,3.94c-2.62,1-5.27,1.8-8,2.57-4.26,1.22-8.42,2.73-12.73,3.82a216.64,216.64,0,0,1-27.82,5c-5,.59-10,1.17-14.93,2.1a104.47,104.47,0,0,1-11,1.6c-29.7,5-60,6.29-90.06,6.23-19.54,0-39.06-.65-58.6-1.19-9.95-.28-19.89-.66-29.84-1.08-1.49-.06-3-.1-4.47-.15q-19.26,1.56-38.58,1.65c-10.12,0-20.27-.06-30.37-.69a80.91,80.91,0,0,1-14.12-1.86c-2.83-.69-6.12-1.3-8.62-2.88-5-3.14,1.09-7.11,4.12-8.68,2.08-1.09,4.24-2,6.41-2.88a81.07,81.07,0,0,1,11.79-3.43c-3-.75-6.23-.12-9.24.19-.3,0-.44-.46-.16-.58,4.11-1.8,8.53-3.73,13.05-4.59-10-1.86-20.6-1.21-30.72-1.5-18.93-.54-37.84-1.13-56.75-.13-7.56.66-15.14,1.17-22.71,1.62-4,.31-8,.61-12,.86-8,.5-16.13,2.59-24.1,1.24-9.78.66-19.54,1.42-29.29,2.43l-7.16.72-.12,0-.92.06c-7.27.7-14.56,1.28-21.87,1.39a.29.29,0,0,1-.14,0c-10.95.56-21.9,1-32.85,1.31-20.29.63-40.57,1.35-60.87.44-10-.45-20-1.37-29.91-2.34-8.56-.84-17.53-1.54-25.63-4.6-2.06-.78-5.31-2.05-5.64-4.61-.29-2.26,1.33-4,3.06-5.24a35.43,35.43,0,0,1,7.59-3.73c3.59-1.39,7.13-2.85,10.85-3.88,12.51-3.48,25.41-3.79,38.3-4-9.13-1.57-18.33-3-27.59-1.85-.37,0-.4-.51-.08-.61,2.37-.77,4.87-1.86,7.42-2.68-1.69-.1-3.39-.22-5.06-.23a.31.31,0,0,1-.09-.61,95.78,95.78,0,0,0,12.11-3.5c-2.88-.28-5.83.45-8.69.63-3.79.23-7.59.4-11.39.49-7.65.19-15.31.1-23-.14-14.93-.48-29.87-1.8-44.7-3.64a228.51,228.51,0,0,1-28.45-5.11c-5.32-1.37-11.61-2.65-16.23-5.82-1.56-1.08-3.23-2.59-3.39-4.62-.23-2.73,1.92-5.13,3.78-6.88.2-.19.41-.37.62-.55-6.89,2.38-13.89,5.92-14.37,11C12.82,566.47,42.37,568.25,50,569.74c15.2,3,30.77,4.51,46.2,5.67,7.55.57,15.1,1.12,22.66,1.41,3.83.15,7.65.15,11.49.21,1.89,0,3.77.19,5.66.37-1.43.34-2.86.71-4.3,1a93.39,93.39,0,0,0-13.05,4.26c-4.42,1.73-8.55,4.15-12.9,6-2.82,1.24-6,2.19-8.09,4.59-9.4,10.63,27.52,17.28,32.06,18A354.77,354.77,0,0,0,195,616.1c21.54-.31,43.12-.88,64.62-2.07,21.91-1.21,43.79-2.74,65.7-3.89,43.67-2.28,87.39-1.88,131-5.06l.68,0c-2,.59-3.9,1.19-5.84,1.82-5,1.6-10.52,3.53-14.81,6.61-3.63,2.6-5.22,6.66-1.68,10,3.69,3.49,10.28,4.63,15.12,5.35,9.22,1.38,18.63,1.49,27.93,1.53,10,0,19.94,0,29.9-.24,64.13-1.25,133.73,5.58,197.43-2.06,31.1-3.73,125.83-.93,130.49-33.55,1-6.79-24.56-16.18-28.07-17.08-8.45-2.17-17.21-3-25.88-3.74-9.23-.75-18.44-1.64-27.68-2.35,6.32-1.06,12.61-2.23,19-3C782.31,567.2,791.52,565,800.88,563.75Z" fill="#80c466" opacity="0.4" style="mix-blend-mode:multiply"/><path d="M41.55,540.07A16.19,16.19,0,0,0,37.33,544c-3.37,4.64.24,9,4.88,10.63,7.45,2.67,15.93,2.57,23.74,2.42,6.6-.13,13.17-.67,19.76-.83,14.76-.36,29.5-.93,44.24-1.47s29.48-1.07,44.24-1.3c6.15-.09,12.36.12,18.51-.2,4.23-.23,57.06,2.45,29.69,13.18-6.68,2.62-13.38,5-19.53,8.83-3.11,1.93-8.12,5.39-6.78,9.76,1.13,3.7,5,5.8,8.34,7.14,8.15,3.24,17.18,4.23,25.85,5,9.76.85,19.57,1.56,29.37,1.89,14.56.5,29.12.3,43.67-.24s29.08-1.16,43.58-2.4q21.48-1.82,42.8-4.92c9.94-1.46,20.12-2.5,29.68-5.73,4.54-1.53,9.29-3.54,12.77-7,2-2,3.76-4.81,2-7.58-1.57-2.54-4.41-4.17-7-5.44a72.48,72.48,0,0,0-10.4-4c-20.92-6.44-42.5-9.85-63.92-14.11-.4-.08-.23-.66.16-.6,31.32,5,62.27-1.09,93.24-6.14-44.25-1.88-93.6-5-119.4-9.22-20.35-3.3-40.65-5.85-61.21-7.47-22.21-1.74-44.19-2.79-66.49-2.45-19.31.3-38.87,3.12-58,5.4-22.65,2.7-45.31,5.52-68,7.82A216,216,0,0,0,41.55,540.07Z" fill="#96d6b2"/><path d="M504.09,550.59c6.64,1.43,13.18,3.27,19.87,4.55,7.43,1.42,14.93,2.65,22.09,5.18a.32.32,0,0,1-.09.62c-9-.21-17.82,2.56-26.06,5.91a211.42,211.42,0,0,0-20.53,9.57c-6.58,3.52-13.59,7.74-18.05,13.87-3.39,4.66-5.21,11.37-.86,16.05,3.55,3.83,9,5.56,14,6.71a111.89,111.89,0,0,0,18.68,2.45c5.27.32,10.53.4,15.8.56,8.49.26,17,1.07,25.45,1.44,23.16,1,46.34,1.07,69.51.63,22.26-.44,44.53-.63,66.74-2.35,11.24-.87,22.46-2.06,33.61-3.8q8.14-1.26,16.24-2.91c4.49-.92,8.91-2.11,13.4-3.05a40.18,40.18,0,0,0,8.42-2.28c2.22-1,5.55-3.61,2.82-6-2.32-2-5.59-3-8.47-3.86-2.61-.8-5.26-1.43-7.9-2.1-4.87-1.26-9.68-2.67-14.58-3.79-5.53-1.26-11.08-2.38-16.65-3.44-11.1-2.11-22.23-4-33.23-6.62a.31.31,0,0,1,0-.6c10.17-3.15,20.94-3.65,31.34-5.76q16.92-3.42,33.66-7.66c15.2-3.86,30.42-8,45.24-13.23,6.07-2.12,12.21-4.46,17.69-7.85,2.23-1.39,5.25-3.45,6.91-6-17.7-2.42-37.18-3.55-43.56-4.09-28.19-2.35-56.42-6.77-84.78-4.75-12.78.91-25.56,2.37-38.31,3.63-39.58,3.88-79.17,7.74-118.81,11-6.94.57-30.66.32-60.25-.64C482.83,546.7,493.91,548.41,504.09,550.59Z" fill="#96d6b2"/><path d="M258.18,358.05a92.5,92.5,0,0,0,7.25-9.34l-.29-1.18-.18-.76h-9v13.7C257.3,359,258.18,358.05,258.18,358.05Z" fill="none"/><path d="M264.37,351.53V337.91L248,336.55l-1.27,28.86s-.65.47-1.72,1.29c2.69-1.82,6.09-4.1,8.81-5.84C257.3,358.61,261.75,354.24,264.37,351.53Z" fill="#ff4910"/><polygon points="264.92 346.77 257.27 346.73 255.94 346.72 255.94 346.78 265.1 347.53 264.92 346.77" fill="none"/><path d="M258.18,358.05a92.5,92.5,0,0,0,7.25-9.34l-.29-1.18-9.15-.75v13.77Z" fill="none"/><path d="M256.53,324.28v-2.1l9,8.84-.73,5.85v14.72q-3.9,3.69-8.15,7C256.82,338.43,256.87,325,256.53,324.28Z" opacity="0.2"/><path d="M264.74,342.81c-.82.9-1.72,1.83-2.49,2.64a27.67,27.67,0,0,1-14.19-9.05l16.63,1.39Z" opacity="0.2"/><path d="M264.38,353.56c.67,57.8,3.84,207,3.84,207H238.83l7.28-186.77" fill="#ff4910"/><polygon points="255.99 375.47 259.16 371.73 255.98 375.22 255.99 375.47" fill="none"/><path d="M344,374.32,332.57,365s-17-17.13-19.69-22.08S306,334.09,298.32,331l-.24-.1a6,6,0,0,0,3.1-5.92c-.38-4.28-7.18-11.06-11.89-13.43l-1.12-10.73h-1.94l-.58-6.61s.53-29.55,2.08-48.23,2.92-28.08,3.76-39.47,2.35-9.14-.75-11.08c-2.57-1.6-9.31,17-9.81,18.84-3.06,11.49-11.35,34.43-11.35,47.59,0,11.23-1.67,15.5,3,22.39,5.85,8.65,3.74,16,3.74,16l-1.52.28-1.24.22-.57,3.55-.41,2.7s-6.33-.29-9.42,3.55a64.6,64.6,0,0,0-23.6-.72c-13.25,2-24.65,6.58-26.88,8.56s-3.92,11.05-2.27,15.69l29.11,1.71V336l16.4,1.35v-.06h1.33l7.64,0,.18.77.86.07-.86-.07,1.72,1.81c-2,3.18-5.81,6.65-7.89,9.05a8.1,8.1,0,0,1-3,2.15V351c-2.62,2.71-7.06,7.07-10.58,9.32-2.72,1.71-6.11,4-8.8,5.85-3.43,2.65-8.84,8.72-13.7,17.13-5.09,8.8-14.3,23.81-19.2,29.9-2.23,6.31,9.81-2.21,9.81-2.21s17.18-20,20.48-24c1.44-1.71,20.73-23,20.73-23l9.7-10.49,9.89-9.9c.59.47,1.21.92,1.85,1.34a2.89,2.89,0,0,0,2.79.13c1.48-1,4.58-7.71,4.58-7.71l4.13-1.05h.09l2.68-.7,1.29,1.49,55.9,45.85,2.14.09-.92-2.77Z" fill="#ff4910"/><path d="M255.94,360.55s.91-1,2.24-2.52c0,0-.86,1-2.24,2.37Z" fill="none"/><path d="M293.42,334l-1.86,1.07-1.79.73-2.06.52h-.09l-4.13,1.06s-3.1,6.77-4.58,7.7c-.93.6-4.09-.45-4.81-.85l2.74-3.36s-.77-5.14-7.54-4.52l-2.52,3.86s-2.92-4.76-2.79-5.43-4-5-4.66-11.46,2.52-19,19-15.56c0,0-5.32.51-7.47,9.28S281.7,332.09,293.42,334Z" fill="#ff6642"/><path d="M268.22,560.56H253.6c.36-20.17,3.55-139.5,4.28-200l6.44-6.18Z" opacity="0.2"/><path d="M349.13,383.31c-2.26,1.13-58.44-47.9-58.44-47.9l-1.15-.58a20.64,20.64,0,0,0,9-4.18c7.63,3.07,13.37,9.88,16,14.78S332.16,363,332.16,363l14,13.79S351.38,382.18,349.13,383.31Z" fill="#ff6642"/><path d="M259.74,318.34s-41.86-2.47-46.34-.39-4.36,12.53-3,16.27L264,337.36v-2.48l.13-.67S258.58,330.34,259.74,318.34Z" fill="#ff6642"/><path d="M272.6,336.87s-6.36,19.18-17.92,23.9c-21.12,8.63-29.8,26.81-47,47.42,0,0,12.24-20.28,19.06-31.08,10.07-16,20.88-20.55,25.89-23.55a47.68,47.68,0,0,0,16.67-17.13Z" fill="#ff6642"/><path d="M278.37,276.93c4.28,14.66,2.57,23.91,2.57,23.91h-6.09v-.23l1.52-.28s1.83-4.07-2.92-13.37c-2.27-4.46-3.05-3.19-4-16.27s10.61-59.36,18-72.15C288.34,196.81,270.41,249.66,278.37,276.93Z" fill="#ff6642"/><path d="M251.52,309.25c-3.54,1.13-17.3,5.66-18.79,8.16-2.07,3.48-2,13.7-1.84,18l-6.43-.38c-.12-5.24-.06-15.19,2-18.71,1.72-2.05,5.91-4.11,10-5.75A61.66,61.66,0,0,1,245.8,309,52,52,0,0,1,251.52,309.25Z" opacity="0.2"/><path d="M263.16,310.63s-8.26,3.75-9.72,7.78c-1.26,3.34-.85,14.55-.71,18.27l-6.49-.39c0-4.68.13-15.76.79-18.64.86-3.67,12.49-7.52,12.49-7.52l2.79.37Z" opacity="0.2"/><path d="M265,397a69.47,69.47,0,0,1-11.49,1.56v27.7a33.16,33.16,0,0,0,12-.69" fill="#fff" opacity="0.2"/><path d="M660.46,547s-54.09,5.81-68.6,15.83c0,0-6.86,20.58-2.64,23.49,0,0,17.68,11.08,32.72,9,0,0,67.54-7.92,82.32-17.15,0,0,1-3.17,0-8.71L674.18,547Z" fill="#4d010e"/><path d="M591.86,562.79l28.68,21.27a5.8,5.8,0,0,1,2.33,4c.27,2.36.36,5.71-.93,7.17,0,0-16.1,2.11-32.72-9,0,0-2.47-.18-1.22-7.18C588,579.1,589.48,567.81,591.86,562.79Z" opacity="0.2"/><path d="M704.26,578.1a21.17,21.17,0,0,0,0-8.71c-62,8.81-82.18,16.36-82.18,16.36s2,5.83-.14,9.5c0,0,33.36-4.09,49.19-7.56C671.13,587.69,697.1,582.92,704.26,578.1Z" fill="#fff" opacity="0.2"/><path d="M646.29,586.83h0a2,2,0,0,0,2.2,2l3.44-.35a1.68,1.68,0,0,1,1.55.72c.73,1,2.82,2.64,8.62,2.26a103.73,103.73,0,0,0,16.45-3.22,14.28,14.28,0,0,0,7-4.85,4.19,4.19,0,0,1,2.73-1.8l1.9-.39a1.86,1.86,0,0,0,1.48-1.83h0a1.86,1.86,0,0,0-2.13-1.84l-3.95.56a1.5,1.5,0,0,0-1.12.76c-.67,1.25-2.6,2.82-6.75,4.15,0,0-15.36,4.79-20.71,3a2.94,2.94,0,0,1-1.37-1,1.67,1.67,0,0,0-1.37-.58l-6.14.42A2,2,0,0,0,646.29,586.83Z" fill="#4d010e"/><path d="M457.46,553.75s2.1,2.63-2.73,2.63c0,0-9.43,2-15.06-1.58,0,0-18.74-1.56-20-9.86Z"/><path d="M453.68,534.59s4.41,3.72,3.78,19.16c0,0-12.51,3.09-20.1-1.32a10.13,10.13,0,0,0-3.31-1.24l-8.16-1.49a8.41,8.41,0,0,1-6.22-4.76c-1.08-2.41-.9-5,4.71-5.29,0,0,14.88-1.75,16.3-4.64C440.68,535,451.94,531.78,453.68,534.59Z" fill="#686175" data-primary="true"/><path d="M453.68,534.59s4.41,3.72,3.78,19.16c0,0-12.51,3.09-20.1-1.32a10.13,10.13,0,0,0-3.31-1.24l-8.16-1.49a8.41,8.41,0,0,1-6.22-4.76c-1.08-2.41-.9-5,4.71-5.29,0,0,14.88-1.75,16.3-4.64C440.68,535,451.94,531.78,453.68,534.59Z" opacity="0.2"/><path d="M427.86,563.73c-27.49.62-27.08-2.31-27.08-2.31a5.62,5.62,0,0,1-.35-1c-1-4.6,6.66-5.88,6.66-5.88,10.07-1.26,16.37-10.81,16.37-10.81l13.85,2.42c2.1,4.82,3.36,14.9,3.36,14.9C441.1,564.15,427.86,563.73,427.86,563.73Z" fill="#686175" data-primary="true"/><path d="M438.15,566.17H405.61c-9.23-1.12-5.28-5.8-5.28-5.8h.1a5.62,5.62,0,0,0,.35,1s-.41,2.93,27.08,2.31c0,0,13.24.42,12.81-2.73C443,566.45,438.15,566.17,438.15,566.17Z"/><path d="M454.73,526l-1.05,8.63s-2.31-.67-7.14,2.69c0,0-4.81,3.22-5.86-2.27l5.23-10.75S450.32,525.35,454.73,526Z" fill="#fea054"/><path d="M534.13,506.26s-42.36-68.42-57.2-67.78l-26,86.95s4.09,1.82,11.62-1.3l37-9.09S512,510,534.13,506.26Z" fill="#f48225" data-secondary="true"/><path d="M534.13,506.26s-42.36-68.42-57.2-67.78l-26,86.95s4.09,1.82,11.62-1.3l37-9.09S512,510,534.13,506.26Z" opacity="0.2"/><path d="M529.43,428.36,526.28,486s28.61,2.34,39.61-3.44c0,0,21.81,6.05,35.39,1.65l13.93-50.82a3.31,3.31,0,0,0-2.74-4.15c-9.62-1.33-35-5-41.12-7.19,0,0-26.14,1.18-39,3.1A3.47,3.47,0,0,0,529.43,428.36Z" fill="#4d010e"/><path d="M529.31,480.61l5.78-49.79s29.43-.28,36.17-5.78c0,0,27.09,11.28,40.29,8.26v2.75l-10.27,48.13" fill="none" stroke="#000" stroke-miterlimit="10" stroke-width="0.5" opacity="0.2"/><path d="M527.47,481.16l5.21-53.37s28.19,1.79,38.13-4.4c0,0,26.16,8.67,40.74,7.84v2.07" fill="none" stroke="#000" stroke-miterlimit="10" stroke-width="0.5" opacity="0.2"/><path d="M536.74,432.2,531,486.44s25.85,1.32,34.93-3.91c0,0,22.64,6.33,35.39,1.65l10.27-48.13s-30-2.9-39.06-8.26C572.49,427.79,552.69,435,536.74,432.2Z" fill="#e6e7e8"/><path d="M565.89,482.53c0-11.28,6.6-54.74,6.6-54.74" fill="none" stroke="#4d010e" stroke-miterlimit="10"/><path d="M616.21,551.9s-25.56,16.89-33.09,22.78c0,0-13.19,10.79-38.81,6.21,0,0-49.28-1.79-56.37-4.44,0,0-17.33-2.1-15.37-10.28v-.43c.07-4.2,1.43-37.77,26.87-51.22a45.09,45.09,0,0,1,9.54-3.7l28.29-5.21a2.7,2.7,0,0,1,2.35.66c2.91,2.73,11.88,10.4,20,9.86,0,0,25-9.36,38.59-3.27l14,5.81Z" fill="#686175" data-primary="true"/><ellipse cx="630.17" cy="530.09" rx="30.62" ry="19.52" transform="translate(-168.25 328.49) rotate(-25.9)" fill="#fea054"/><path d="M643.24,508.18s-28.16,2.11-16.29,24.53c0,0,.58,9.17,5,13.78,0,0-1.19,6.92-15.78,5.41,0,0-15.65,1.92-10.9,9.84a38.07,38.07,0,0,0,4.49,1.32s4.22,4.48,9.76,4.48c0,0,10.29,6.33,16.1,5.28a13.22,13.22,0,0,0,10.81,1.32,9.76,9.76,0,0,1,6.44.4,21.16,21.16,0,0,0,8.31,1.91,63.11,63.11,0,0,0,8.21-.46s18.73-1.85,22.69-16.63c0,0,2.37-3.69-7.12-8.84,0,0-7.39-1.71-6.07-12.53C678.93,538,676.94,502.64,643.24,508.18Z"/><path d="M502,522.66l12.46-25.28s1.92-.27,0-6.32c0,0-5.23-12.38-1.65-13.76,0,0,2.75-7.7,5-6.05,0,0,1.37-6.05,4.12-6.05,0,0,1.63-5.61,5.75-4,0,0-1.54,22.08,1.57,19.74a1.57,1.57,0,0,0,.55-.88c.58-2.18,2.86-11.41,6.48-9.22a.71.71,0,0,1,.31.87c-.78,2-3.66,10-3.66,17.38,0,0,.13,4.11-4.59,10.26a40.39,40.39,0,0,0-5.77,10.47,73.43,73.43,0,0,0-3.34,12S512.92,520.51,502,522.66Z" fill="#fea054"/><path d="M592.06,485.84s.1,5.49,3,7.69c0,0,.82.69,1.37,5.23l.55,13.61L610.4,518s-5.45-21.12-2.29-38.72c0,0,3.44-13.89-1.37-16l-2.43,9.8s-.37-7.4-3-6.09c0,0-3.48.45-3.62,18.19Z" fill="#fea054"/><path d="M597.52,488.86a3.47,3.47,0,0,1-.43-1.86,1,1,0,1,1,.43,1.86Z" fill="#fe7142"/><path d="M604.42,481.16a5.85,5.85,0,0,1-.81-2,9.7,9.7,0,0,1-.25-2.08,8.68,8.68,0,0,1,.95-4.05c.07.71.05,1.39.06,2.06v2C604.36,478.45,604.4,479.75,604.42,481.16Z" fill="#fe7142"/><path d="M427.05,528l-3.59,15.72s5.45,10.39,13.85,2.41L440.68,535S428,529.42,427.05,528Z" fill="#fea054"/><ellipse cx="630.17" cy="550.52" rx="6.46" ry="4.09" transform="translate(-49.37 62.24) rotate(-5.44)" fill="#fea054"/><path d="M493.58,534.59s.9-11.59,10.39-12.25c0,0,8.29-1.93,15.21-.47a1.63,1.63,0,0,1,1.19,2.15l-1.94,5.27S509.69,528.46,493.58,534.59Z" fill="#f48225" data-secondary="true"/><path d="M487.62,538.37s-8.18,24.81.32,38.08c0,0,3.87,5.7,19.6,4.58l36.77-.14s23.25,4.8,38.82-6.21c0,0,2.61-25-15.38-27.72a84.11,84.11,0,0,0-34.08,3.56s-15.31,3.22-16-2c0,0,.65-10.16,2.85-15.62a2.64,2.64,0,0,0-2.13-3.6C512.64,528.54,500.93,528.73,487.62,538.37Z" fill="#686175" data-primary="true"/><path d="M487.62,538.37s-8.18,24.81.32,38.08c0,0,3.87,5.7,19.6,4.58l36.77-.14s23.25,4.8,38.82-6.21c0,0,2.61-25-15.38-27.72a84.11,84.11,0,0,0-34.08,3.56s-15.31,3.22-16-2c0,0,.65-10.16,2.85-15.62a2.64,2.64,0,0,0-2.13-3.6C512.64,528.54,500.93,528.73,487.62,538.37Z" opacity="0.2"/><path d="M512.81,477.3c.57,1.56,1,3.11,1.39,4.63a29.65,29.65,0,0,0,1.54,4.51,5.94,5.94,0,0,1-1.59-1.93,10.88,10.88,0,0,1-.91-2.31,13.5,13.5,0,0,1-.45-2.43A10.21,10.21,0,0,1,512.81,477.3Z" fill="#fe7142"/><path d="M517.76,471.25c.67,1.82,1.19,3.61,1.79,5.39a44.3,44.3,0,0,0,2.06,5.23,11.2,11.2,0,0,1-3-4.92,19.49,19.49,0,0,1-.68-2.81A12.66,12.66,0,0,1,517.76,471.25Z" fill="#fe7142"/><path d="M521.88,465.2c.34,1,.65,2,1,2.95s.59,1.94.94,2.89a26.07,26.07,0,0,0,2.51,5.52,8,8,0,0,1-2.11-2.33,14.09,14.09,0,0,1-1.35-2.86,17.76,17.76,0,0,1-.75-3A14.25,14.25,0,0,1,521.88,465.2Z" fill="#fe7142"/><path d="M499.44,514.52c-25.44,13.45-26.8,47-26.87,51.22v.43c-9.31-6.87-17.07-51.41-17.07-51.41l-5.93,13.81a7.72,7.72,0,0,1-2.11,2.85c-11.1,9.39-19-1-21.38-4.92a3.51,3.51,0,0,1-.43-2.68l18.06-74.63c5.2-20.47,23.59-19.08,23.59-19.08C483.2,429.45,498.11,507.4,499.44,514.52Z" fill="#f48225" data-secondary="true"/><path d="M178.73,277a128.74,128.74,0,0,0,10.07-13l-.41-1.64-.25-1.06H175.69v19C177.51,278.26,178.73,277,178.73,277Z" fill="none"/><path d="M187.32,267.9V249l-22.76-1.88-1.77,40.05s-.89.66-2.37,1.8c3.73-2.53,8.45-5.7,12.21-8.11C177.52,277.73,183.69,271.66,187.32,267.9Z" fill="#ff4910"/><polygon points="188.09 261.29 177.47 261.23 175.63 261.22 175.63 261.3 188.34 262.35 188.09 261.29" fill="none"/><path d="M178.73,277a128.74,128.74,0,0,0,10.07-13l-.41-1.64-12.7-1.05v19.11Z" fill="none"/><path d="M176.44,230.08v-2.91l12.45,12.26-1,8.12V268a147,147,0,0,1-11.31,9.69C176.84,249.71,176.91,231,176.44,230.08Z" opacity="0.2"/><path d="M187.84,255.8c-1.13,1.25-2.38,2.53-3.46,3.66a38.58,38.58,0,0,1-19.7-12.56l23.08,1.92Z" opacity="0.2"/><path d="M187.34,270.71c.94,80.23,5.33,287.31,5.33,287.31H151.88L162,298.8" fill="#ff4910"/><polygon points="175.69 301.13 180.1 295.93 175.68 300.78 175.69 301.13" fill="none"/><path d="M297.84,299.53,282,286.6S258.41,262.83,254.65,256s-9.6-12.27-20.2-16.53l-.33-.14a8.34,8.34,0,0,0,4.3-8.21c-.52-6-10-15.36-16.51-18.64l-1.56-14.9h-2.68l-.81-9.17s.74-41,2.89-66.94,4.05-39,5.21-54.78,3.27-12.7-1-15.38c-3.56-2.22-12.92,23.57-13.62,26.15-4.24,15.94-15.75,47.78-15.75,66,0,15.59-2.31,21.52,4.15,31.08,8.12,12,5.19,22.24,5.19,22.24l-2.11.39-1.72.31-.79,4.92-.57,3.74s-8.78-.39-13.07,4.93a89.62,89.62,0,0,0-32.77-1c-18.39,2.77-34.21,9.12-37.3,11.88s-5.44,15.33-3.16,21.77l40.41,2.38v.2l22.76,1.88v-.08h1.84l10.62.06.25,1.06,1.19.09-1.19-.09,2.37,2.51c-2.82,4.41-8,9.23-10.94,12.57a11.41,11.41,0,0,1-4.1,3v-.2c-3.65,3.77-9.81,9.82-14.69,12.94-3.78,2.38-8.49,5.59-12.22,8.12-4.75,3.68-12.27,12.1-19,23.77-7.06,12.22-19.84,33.05-26.64,41.5-3.09,8.76,13.62-3.06,13.62-3.06s23.84-27.78,28.42-33.28c2-2.38,28.77-31.93,28.77-31.93l13.46-14.56,13.73-13.75a31.18,31.18,0,0,0,2.57,1.87,4,4,0,0,0,3.87.18c2.06-1.33,6.36-10.7,6.36-10.7l5.73-1.46h.13l3.72-1,1.78,2,77.59,63.65,3,.13-1.27-3.85Z" fill="#ff4910"/><path d="M175.63,280.41s1.26-1.38,3.1-3.49c0,0-1.19,1.34-3.1,3.29Z" fill="none"/><path d="M227.65,243.54,225.06,245l-2.47,1-2.87.73h-.13l-5.73,1.46s-4.3,9.4-6.35,10.69c-1.3.84-5.67-.63-6.67-1.19l3.79-4.65s-1.06-7.14-10.46-6.28l-3.49,5.36s-4.06-6.61-3.88-7.53-5.58-7-6.48-15.92,3.51-26.32,26.34-21.59c0,0-7.38.71-10.37,12.88S211.38,240.92,227.65,243.54Z" fill="#ff6642"/><path d="M192.67,558h-20.3c.51-28,4.94-193.62,5.95-277.61l8.93-8.57Z" opacity="0.2"/><path d="M305,312c-3.13,1.56-81.11-66.49-81.11-66.49l-1.59-.8a28.67,28.67,0,0,0,12.55-5.8c10.6,4.26,18.56,13.72,22.25,20.51s24.35,24.37,24.35,24.37L300.91,303S308.1,310.45,305,312Z" fill="#ff6642"/><path d="M180.89,221.83s-58.09-3.42-64.31-.53-6,17.38-4.15,22.58l74.31,4.35v-3.44l.18-.92S179.29,238.48,180.89,221.83Z" fill="#ff6642"/><path d="M198.75,247.55s-8.83,26.62-24.88,33.17c-29.31,12-41.36,37.21-65.22,65.82,0,0,17-28.14,26.44-43.13,14-22.19,29-28.52,35.94-32.7a66.14,66.14,0,0,0,23.14-23.77Z" fill="#ff6642"/><path d="M206.76,164.35c5.94,20.35,3.56,33.19,3.56,33.19h-8.45v-.31l2.12-.39s2.53-5.65-4.06-18.57c-3.14-6.18-4.24-4.42-5.55-22.58s14.74-82.39,25-100.14C220.59,53.15,195.7,126.5,206.76,164.35Z" fill="#ff6642"/><path d="M169.49,209.21c-4.91,1.57-24,7.85-26.08,11.32-2.88,4.84-2.75,19-2.56,25l-8.92-.52c-.17-7.27-.08-21.08,2.85-26,2.38-2.85,8.2-5.7,13.93-8a86,86,0,0,1,12.85-2.18A72.47,72.47,0,0,1,169.49,209.21Z" opacity="0.2"/><path d="M185.65,211.13s-11.47,5.21-13.49,10.8c-1.75,4.63-1.19,20.2-1,25.36l-9-.55c0-6.49.18-21.87,1.1-25.86,1.19-5.1,17.34-10.45,17.34-10.45l3.86.53Z" opacity="0.2"/><path d="M188.23,331a97.4,97.4,0,0,1-15.95,2.16v38.44a45.92,45.92,0,0,0,16.64-.95" fill="#fff" opacity="0.2"/><g id="e022404b-bf17-43fc-a60b-0a5316898c6f" data-name="freepik--Plants--inject-1"><path d="M303.24,566.22c.81-6.27,1.19-17.82-5.08-24.12-9-9-22.42,5.59-25.79,5.59s-4.49-9-14.58-16.81-22.43,2.24-29.15,0,5.61-37-13.46-38.12S189.39,539.85,176,539.85s-15.7-9-29.15-1.12c-10.54,6.15-16.26,21.23-18.25,27.49Z" fill="#92e3a9"/><path d="M303.24,566.22c.81-6.27,1.19-17.82-5.08-24.12-9-9-22.42,5.59-25.79,5.59s-4.49-9-14.58-16.81-22.43,2.24-29.15,0,5.61-37-13.46-38.12S189.39,539.85,176,539.85s-15.7-9-29.15-1.12c-10.54,6.15-16.26,21.23-18.25,27.49Z" fill="#48bb76"/><line x1="165.11" y1="565.46" x2="153.71" y2="546.93" fill="none" stroke="#80c466" stroke-miterlimit="10" opacity="0.4" style="mix-blend-mode:multiply"/><line x1="208.87" y1="564.98" x2="214.89" y2="508.32" fill="none" stroke="#80c466" stroke-miterlimit="10" opacity="0.4" style="mix-blend-mode:multiply"/><line x1="243.61" y1="565.46" x2="249.48" y2="543.93" fill="none" stroke="#80c466" stroke-miterlimit="10" opacity="0.4" style="mix-blend-mode:multiply"/><line x1="286.29" y1="565.46" x2="292.1" y2="551.44" fill="none" stroke="#80c466" stroke-miterlimit="10" opacity="0.4" style="mix-blend-mode:multiply"/><polyline points="166.75 547.43 160.74 557.96 146.7 552.45" fill="none" stroke="#80c466" stroke-miterlimit="10" opacity="0.4" style="mix-blend-mode:multiply"/><polyline points="205.87 512.84 212.88 525.37 222.41 513.83" fill="none" stroke="#80c466" stroke-miterlimit="10" opacity="0.4" style="mix-blend-mode:multiply"/><polyline points="201.85 532.9 210.88 543.93 219.9 536.9" fill="none" stroke="#80c466" stroke-miterlimit="10" opacity="0.4" style="mix-blend-mode:multiply"/><line x1="246.98" y1="553.45" x2="259" y2="546.43" fill="none" stroke="#80c466" stroke-miterlimit="10" opacity="0.4" style="mix-blend-mode:multiply"/><line x1="245.98" y1="557.46" x2="239.95" y2="541.92" fill="none" stroke="#80c466" stroke-miterlimit="10" opacity="0.4" style="mix-blend-mode:multiply"/><line x1="289.1" y1="558.96" x2="286.08" y2="548.93" fill="none" stroke="#80c466" stroke-miterlimit="10" opacity="0.4" style="mix-blend-mode:multiply"/><line x1="288.09" y1="560.97" x2="296.61" y2="557.46" fill="none" stroke="#80c466" stroke-miterlimit="10" opacity="0.4" style="mix-blend-mode:multiply"/></g></g></g></svg>