<svg id="b9bb9229-50eb-4515-845c-5a6e05f03ff9" data-name="Layer 1" xmlns="http://www.w3.org/2000/svg" width="865.76" height="682.89" viewBox="0 0 865.76 682.89"><rect x="413.21" y="91.46" width="24.73" height="3.04" transform="translate(131.87 414.68) rotate(-59.93)" fill="#ccc"/><polygon points="424.14 114.34 423.94 111.3 447.97 109.44 448.17 112.48 424.14 114.34" fill="#ccc"/><path d="M758.47,412.46,746,410.1a51.23,51.23,0,0,0-3.68-18.87l12.28-8.87a1.73,1.73,0,0,0,.5-2.19l-8-14.9a1.71,1.71,0,0,0-2.42-.64l-14,8.89A54.77,54.77,0,0,0,713.91,362l2.54-15.64a1.43,1.43,0,0,0-1.19-1.63L698,342.12a1.41,1.41,0,0,0-1.59,1.11l-2.83,14.16c-.67,0-1.34-.05-2-.05-30.09,0-54.47,23.8-54.47,53.16,0,22.24,14,41.3,33.88,49.23l-2,15a1.85,1.85,0,0,0,1.57,2.07l16.94,2.42a1.86,1.86,0,0,0,2.1-1.53L692,463.65a55.06,55.06,0,0,0,19.75-3.77l6.91,10.38a3,3,0,0,0,4.06.82l14.08-9.22a3,3,0,0,0,.88-4L731,447.14a53.32,53.32,0,0,0,11.21-17.07l12,2.39a1.67,1.67,0,0,0,2-1.28l3.64-16.71A1.68,1.68,0,0,0,758.47,412.46Zm-68.43,45c-27.91,0-50.54-21-50.54-47s22.63-47,50.54-47,50.55,21,50.55,47S718,457.46,690,457.46Z" fill="#ccc"/><path d="M813.55,485l-9.74-1a33.69,33.69,0,0,0-2.08-10.62L812.28,466a1.35,1.35,0,0,0,.32-1.9l-7.77-10.73a1.32,1.32,0,0,0-1.88-.3l-9.83,7.18a34.36,34.36,0,0,0-9.56-6.44l2-12.26a1.35,1.35,0,0,0-1.14-1.56l-13.1-1.88a1.34,1.34,0,0,0-1.54,1.14l-1.61,11.56A34.6,34.6,0,0,0,758,452.77l-6.37-9.21a1.47,1.47,0,0,0-2.06-.35l-10.42,7.42a1.47,1.47,0,0,0-.34,2.05l6,8.48a33.94,33.94,0,0,0-6.55,9.39l-9.48-2.21a1.37,1.37,0,0,0-1.63,1l-2.74,13a1.36,1.36,0,0,0,1,1.6l9.53,2a33.85,33.85,0,0,0,1.64,9.92l-10.19,6.35a1.36,1.36,0,0,0-.41,1.89l7.23,11.1a1.34,1.34,0,0,0,1.87.39l9.6-6.32a34.21,34.21,0,0,0,8.37,6.32l-1.8,12.55a1.35,1.35,0,0,0,1.18,1.54l13.14,1.59a1.35,1.35,0,0,0,1.51-1.17l1.23-10.45c.34,0,.67,0,1,0a34.62,34.62,0,0,0,11.07-1.81l7.18,9.36a1.37,1.37,0,0,0,1.92.23l10.33-8.3a1.35,1.35,0,0,0,.2-1.9l-6.29-7.75a34.93,34.93,0,0,0,6.93-10.06l11,1.43a1.35,1.35,0,0,0,1.52-1.2l1.45-13.16A1.34,1.34,0,0,0,813.55,485Zm-44.1,31.6a31.36,31.36,0,1,1,31.36-31.36A31.36,31.36,0,0,1,769.45,516.59Z" fill="#ccc"/><path d="M813.55,485l-9.74-1a33.69,33.69,0,0,0-2.08-10.62L812.28,466a1.35,1.35,0,0,0,.32-1.9l-7.77-10.73a1.32,1.32,0,0,0-1.88-.3l-9.83,7.18a34.36,34.36,0,0,0-9.56-6.44l2-12.26a1.35,1.35,0,0,0-1.14-1.56l-13.1-1.88a1.34,1.34,0,0,0-1.54,1.14l-1.61,11.56A34.6,34.6,0,0,0,758,452.77l-6.37-9.21a1.47,1.47,0,0,0-2.06-.35l-10.42,7.42a1.47,1.47,0,0,0-.34,2.05l6,8.48a33.94,33.94,0,0,0-6.55,9.39l-9.48-2.21a1.37,1.37,0,0,0-1.63,1l-2.74,13a1.36,1.36,0,0,0,1,1.6l9.53,2a33.85,33.85,0,0,0,1.64,9.92l-10.19,6.35a1.36,1.36,0,0,0-.41,1.89l7.23,11.1a1.34,1.34,0,0,0,1.87.39l9.6-6.32a34.21,34.21,0,0,0,8.37,6.32l-1.8,12.55a1.35,1.35,0,0,0,1.18,1.54l13.14,1.59a1.35,1.35,0,0,0,1.51-1.17l1.23-10.45c.34,0,.67,0,1,0a34.62,34.62,0,0,0,11.07-1.81l7.18,9.36a1.37,1.37,0,0,0,1.92.23l10.33-8.3a1.35,1.35,0,0,0,.2-1.9l-6.29-7.75a34.93,34.93,0,0,0,6.93-10.06l11,1.43a1.35,1.35,0,0,0,1.52-1.2l1.45-13.16A1.34,1.34,0,0,0,813.55,485Zm-44.1,31.6a31.36,31.36,0,1,1,31.36-31.36A31.36,31.36,0,0,1,769.45,516.59Z" opacity="0.2"/><path d="M732.44,517.14a1.4,1.4,0,0,0-1.43-1.29l-9.52.15a33,33,0,0,0-6.37-11.14l5.73-7.9a1.48,1.48,0,0,0-.26-2L710.88,487a1.49,1.49,0,0,0-2.1.21l-6.8,8.46a33,33,0,0,0-11.07-2.15l-1-9.76a1.94,1.94,0,0,0-2-1.74l-10.81.65a1.94,1.94,0,0,0-1.81,2l.69,12.08a33,33,0,1,0,30.65,58.32l5.73,5.73a1.86,1.86,0,0,0,2.62,0l9.92-9.93a1.85,1.85,0,0,0-.06-2.68l-5.95-5.39a32.8,32.8,0,0,0,4.07-12.13l9.23-.45a1.4,1.4,0,0,0,1.34-1.54Zm-42.64,39a29.25,29.25,0,1,1,29.25-29.25A29.26,29.26,0,0,1,689.8,556.16Z" fill="#ccc"/><path d="M128.76,552.57H741.68a0,0,0,0,1,0,0v23.32A19.07,19.07,0,0,1,722.6,595H147.83a19.07,19.07,0,0,1-19.07-19.07V552.57A0,0,0,0,1,128.76,552.57Z" fill="#2f2e41"/><path d="M128.76,552.57H741.68a0,0,0,0,1,0,0v23.32A19.07,19.07,0,0,1,722.6,595H147.83a19.07,19.07,0,0,1-19.07-19.07V552.57A0,0,0,0,1,128.76,552.57Z" opacity="0.2"/><rect x="195.98" y="224.6" width="476.74" height="328.45" fill="#2f2e41"/><rect x="215.26" y="246.1" width="439.67" height="285.45" fill="#fff"/><rect x="292.31" y="152.68" width="301.82" height="378.8" fill="#686175" data-primary="true"/><rect x="292.09" y="152.68" width="302.03" height="50.31" opacity="0.2"/><circle cx="512.1" cy="178.16" r="7.61" fill="#686175" data-primary="true"/><circle cx="541.45" cy="177.51" r="7.61" fill="#686175" data-primary="true"/><circle cx="570.15" cy="177.51" r="7.61" fill="#686175" data-primary="true"/><rect x="322.09" y="219.3" width="242.62" height="93.92" fill="#fff"/><rect x="337.2" y="234.3" width="215.88" height="5.87" rx="1.93" fill="#686175" data-primary="true"/><rect x="337.2" y="248.97" width="215.88" height="5.87" rx="1.93" fill="#686175" data-primary="true"/><rect x="337.2" y="263.32" width="215.88" height="5.87" rx="1.93" fill="#686175" data-primary="true"/><rect x="337.53" y="278" width="215.88" height="5.87" rx="1.93" fill="#686175" data-primary="true"/><rect x="337.53" y="292.34" width="215.88" height="5.87" rx="1.93" fill="#686175" data-primary="true"/><rect x="322.09" y="335.82" width="78.26" height="78.26" opacity="0.2"/><rect x="322.09" y="434.52" width="78.26" height="78.26" opacity="0.2"/><g opacity="0.2"><rect x="419.71" y="335.82" width="146.09" height="5.65" rx="1.86"/><rect x="419.71" y="359.74" width="146.09" height="5.65" rx="1.86"/><rect x="419.71" y="383.22" width="146.09" height="5.65" rx="1.86"/><rect x="419.71" y="407.13" width="146.09" height="5.65" rx="1.86"/></g><g opacity="0.2"><rect x="419.71" y="436.48" width="146.09" height="5.65" rx="1.86"/><rect x="419.71" y="460.39" width="146.09" height="5.65" rx="1.86"/><rect x="419.71" y="483.87" width="146.09" height="5.65" rx="1.86"/><rect x="419.71" y="507.79" width="146.09" height="5.65" rx="1.86"/></g><rect x="382.75" y="553.22" width="103.7" height="9.13" fill="#2f2e41"/><rect x="612.72" y="163.86" width="168.95" height="127.18" fill="#f48225" data-secondary="true"/><rect x="612.76" y="261.12" width="168.91" height="29.93" fill="#fff" opacity="0.4"/><circle cx="697.19" cy="216.04" r="34.67" opacity="0.2"/><path d="M687.67,203.23v27.33a3,3,0,0,0,4.39,2.6L715.89,220a3,3,0,0,0,.09-5.14l-23.83-14.21A3,3,0,0,0,687.67,203.23Z" fill="#f48225" data-secondary="true"/><rect x="531.18" y="95.18" width="15.96" height="48.72" fill="#ccc"/><rect x="560.58" y="75.02" width="16.8" height="68.88" fill="#ccc"/><rect x="588.3" y="92.66" width="15.96" height="51.24" fill="#ccc"/><rect x="617.7" y="48.15" width="15.96" height="95.75" fill="#ccc"/><rect x="645.42" y="75.86" width="18.48" height="68.04" fill="#ccc"/><rect x="673.98" y="106.94" width="18.48" height="36.96" fill="#ccc"/><rect x="673.98" y="106.94" width="18.48" height="36.96" fill="#ccc"/><circle cx="414.11" cy="114.14" r="12.6" fill="#ccc"/><circle cx="436.01" cy="76.25" r="10.44" fill="#ccc"/><circle cx="456.23" cy="108.86" r="10.65" fill="#ccc"/><path d="M187.37,122.75,225.16,168a5.05,5.05,0,0,0,6.94.78h0a5.06,5.06,0,0,0,.85-7.22L195.66,115.9a5.39,5.39,0,0,0-7.81-.55h0A5.39,5.39,0,0,0,187.37,122.75Z" fill="#ccc"/><polygon points="214.53 122.54 229.4 78.71 233.21 80.23 218.73 124.44 214.53 122.54" fill="#ccc"/><polygon points="225.59 132.06 272.08 93.19 274.75 97 228.63 135.49 225.59 132.06" fill="#ccc"/><polygon points="235.11 143.45 284.66 137.78 285.04 141.97 235.5 147.69 235.11 143.45" fill="#ccc"/><path d="M170.71,155s-2.11-2.11.7-5.63l11-15s2.58-5.63,6.8-1.17l26.51,32.14s4.22,4-1.41,6.33l-17.83,8.92s-3.52,1.4-5.39-1.41Z" fill="#ccc"/><path d="M164.84,156.6l23.93,29.09-8.36,6.64a10.08,10.08,0,0,1-13.9-1.33L155.4,178a10.07,10.07,0,0,1,1-14.15Z" fill="#ccc"/><path d="M155.4,178a17.78,17.78,0,0,0-.25,6.56,7.41,7.41,0,0,0,10,5.7l.18-.07" fill="#ccc"/><path d="M153.11,174.11s-7.82,7.82.16,17.83c0,0,5.32,7.82,17,2a24.09,24.09,0,0,1-3.81-3l-12.07-14.23A10.63,10.63,0,0,1,153.11,174.11Z" fill="#ccc"/><path d="M182.2,198.12l12-9.38,8.21,6.9a8.38,8.38,0,0,1,3,7.34,6.92,6.92,0,0,1-3,5s-4.46,3.29-10.56-1.41Z" fill="#ccc"/><path d="M177.52,272.35a63.26,63.26,0,1,0-73.05,62.5v26.63H95.78v31.3h29.57v-31.3h-8.7V335.56A63.26,63.26,0,0,0,177.52,272.35Zm-63.26,50.43a50.44,50.44,0,1,1,50.44-50.44A50.44,50.44,0,0,1,114.26,322.78Z" fill="#bcbec0"/><rect x="78.17" y="391.48" width="194.35" height="243.27" fill="#f48225" data-secondary="true"/><rect x="78.17" y="391.48" width="194.35" height="31.63" opacity="0.2"/><path d="M178.39,463.22,178,450.07A41.69,41.69,0,0,0,134,491.7h12.83s-1-12.83,11.2-22.94C158.07,468.76,164.26,462.13,178.39,463.22Z" fill="#fff" opacity="0.2"/><path d="M181,520v12.61s-20.71,4-36-12.39c0,0-10.11-8.92-11-28.48h12.83s-.43,14,11.31,22.93C158.18,514.63,167.74,523,181,520Z" opacity="0.2"/><path d="M203.88,495.25l12.35,3.94s-4.56,29.07-35.23,33.38V520S200.47,517.29,203.88,495.25Z" fill="#fff" opacity="0.4"/><path d="M178.39,463.22,178,450.07s9.49-.2,20.08,6.85a44.08,44.08,0,0,1,18.19,26.26c1.25,5.07,1.75,10.82,0,16l-12.35-3.94s2.87-10.11-7-22.89A29.34,29.34,0,0,0,178.39,463.22Z" opacity="0.4"/><rect x="95.78" y="554.53" width="159.79" height="7.17" rx="2.36" opacity="0.2"/><rect x="95.78" y="571.16" width="159.79" height="7.17" rx="2.36" opacity="0.2"/><rect x="96.11" y="588.44" width="159.79" height="7.17" rx="2.36" opacity="0.2"/><rect x="96.11" y="605.07" width="159.79" height="7.17" rx="2.36" opacity="0.2"/></svg>