<svg id="f671f99e-1b3b-4a5a-acf1-94285ef05bbb" data-name="Layer 1" xmlns="http://www.w3.org/2000/svg" xmlns:xlink="http://www.w3.org/1999/xlink" width="865.76" height="682.89" viewBox="0 0 865.76 682.89"><defs><clipPath id="a1d2d122-e7a2-4943-a8ec-53ce75e3a4f1"><path id="a3645b08-648a-4a20-b46b-8992edf50e32" data-name="SVGID" d="M184.65,274.88s94-14.65,145.9-86.86c0,0,55,74.3,148.17,86.86,0,0,51.28,235.52-147,303C331.69,577.87,143.71,540.52,184.65,274.88Z" fill="#e6e7e8"/></clipPath></defs><path d="M151.16,250.81S260,236.16,331.16,147.2c0,0,68,92.1,177.91,103.61,0,0,67,281.5-178.95,367.32C330.12,618.13,99.88,556.36,151.16,250.81Z" fill="#d1d3d4"/><path id="beab293f-7595-451b-b7d1-7b120f1b4bad" data-name="SVGID" d="M184.65,274.88s94-14.65,145.9-86.86c0,0,55,74.3,148.17,86.86,0,0,51.28,235.52-147,303C331.69,577.87,143.71,540.52,184.65,274.88Z" fill="#e6e7e8"/><g clip-path="url(#a1d2d122-e7a2-4943-a8ec-53ce75e3a4f1)"><rect x="27.69" y="376.58" width="236.33" height="156.95" fill="#a7a9ac"/><rect x="396.5" y="376.58" width="236.33" height="156.95" fill="#a7a9ac"/><polygon points="644.16 376.58 16.95 376.58 27.69 344.35 632.82 344.35 644.16 376.58" fill="#d1d3d4"/><rect x="21.12" y="533.53" width="242.89" height="48.21" opacity="0.2"/><rect x="399.2" y="533.53" width="242.89" height="48.21" opacity="0.2"/><rect x="53.95" y="396.27" width="28.65" height="49.53" opacity="0.1"/><rect x="93.93" y="396.27" width="28.65" height="49.53" opacity="0.1"/><rect x="145.85" y="396.27" width="28.65" height="49.53" opacity="0.1"/><rect x="184.64" y="396.38" width="28.65" height="49.53" opacity="0.1"/><rect x="53.95" y="466.24" width="28.65" height="49.53" opacity="0.1"/><rect x="93.93" y="466.24" width="28.65" height="49.53" opacity="0.1"/><rect x="145.85" y="466.24" width="28.65" height="49.53" opacity="0.1"/><rect x="184.64" y="466.34" width="28.65" height="49.53" opacity="0.1"/><rect x="447.19" y="395.26" width="28.65" height="49.53" opacity="0.1"/><rect x="487.17" y="395.26" width="28.65" height="49.53" opacity="0.1"/><rect x="539.09" y="395.26" width="28.65" height="49.53" opacity="0.1"/><rect x="577.88" y="395.36" width="28.65" height="49.53" opacity="0.1"/><rect x="447.19" y="465.22" width="28.65" height="49.53" opacity="0.1"/><rect x="487.17" y="465.22" width="28.65" height="49.53" opacity="0.1"/><rect x="539.09" y="465.22" width="28.65" height="49.53" opacity="0.1"/><rect x="577.88" y="465.32" width="28.65" height="49.53" opacity="0.1"/><polygon points="426.94 581.75 235.93 581.75 235.93 322.85 330.55 244.58 426.94 322.85 426.94 581.75" fill="#d1d3d4"/><polygon points="426.94 581.75 235.93 581.75 235.93 322.85 330.55 244.58 426.94 322.85 426.94 581.75" opacity="0.2"/><polygon points="331.43 229.85 216.84 323.2 235.93 322.85 330.55 244.58 426.94 322.85 444.92 322.85 331.43 229.85" fill="#d1d3d4"/><circle cx="331.43" cy="303.14" r="20.07" fill="#d1d3d4"/><circle cx="331.43" cy="303.14" r="15.03" opacity="0.2"/><rect x="230.63" y="436.01" width="200.5" height="16.62" fill="#fff"/><rect x="233.1" y="452.63" width="33.59" height="6.37" fill="#fff"/><rect x="394.71" y="452.63" width="33.59" height="6.37" fill="#fff"/><rect x="233.58" y="525.77" width="30.44" height="55.97" fill="#fff"/><rect x="396.5" y="525.77" width="30.44" height="55.97" fill="#fff"/><rect x="257.5" y="344.35" width="28.65" height="70.08" fill="#d1d3d4"/><rect x="297.04" y="344.35" width="28.65" height="70.08" fill="#d1d3d4"/><rect x="335.3" y="344.35" width="28.65" height="70.08" fill="#d1d3d4"/><rect x="375.26" y="344.35" width="28.65" height="70.08" fill="#d1d3d4"/><path d="M304.08,468.52h53.24a11.57,11.57,0,0,1,11.57,11.57V581.75a0,0,0,0,1,0,0H292.51a0,0,0,0,1,0,0V480.09A11.57,11.57,0,0,1,304.08,468.52Z" opacity="0.2"/><path d="M304.08,468.52H330.7a0,0,0,0,1,0,0V581.75a0,0,0,0,1,0,0H292.51a0,0,0,0,1,0,0V480.09A11.57,11.57,0,0,1,304.08,468.52Z" fill="#d1d3d4"/></g><path d="M611.51,116.8S651.13,114.9,669,86C669,86,628,74.67,611.51,116.8Z" fill="#2f2e41"/><path d="M611.51,116.8S651.13,114.9,669,86C669,86,628,74.67,611.51,116.8Z" opacity="0.1"/><path d="M587.67,240.74s-.86-6.63-15.83,2.73c0,0-29.24,14.11-35.44,30.68,0,0-3.22,6.35,4.49,7.64,0,0,9.31.74,20.42-8.15C561.31,273.64,574.92,264.93,587.67,240.74Z" fill="#686175" data-primary="true"/><path d="M606.75,321.46s-32,30.9-54.08,20.46a21.48,21.48,0,0,1-8.09-6.87c-5.35-7.38-17.2-28.43-8.18-60.9,0,0-3.13,8.83,9.41,6.84,0,0,19.87-.8,41.86-40.25,0,0,2.65,12.16-1.87,28.38,0,0,16.85-36.64,34.2-41.44L612.1,267S609,306.16,606.75,321.46Z" fill="#686175" data-primary="true"/><path d="M606.75,321.46s-32,30.9-54.08,20.46a21.48,21.48,0,0,1-8.09-6.87c-5.35-7.38-17.2-28.43-8.18-60.9,0,0-3.13,8.83,9.41,6.84,0,0,19.87-.8,41.86-40.25,0,0,2.65,12.16-1.87,28.38,0,0,16.85-36.64,34.2-41.44L612.1,267S609,306.16,606.75,321.46Z" opacity="0.1"/><path d="M813.18,490.42a58.68,58.68,0,0,0-2.87-6.09c-13.42-24.75-40.79-34.14-40.79-34.14-45.85-22.46-80.79,5-80.79,5-86.71,58-129.29,62.22-129.29,62.22-73.92,15.44-75.8-64.1-75.8-64.1l48.66-11.22c16.38-68.78,73.9-100.35,73.9-100.35-1.1-17,5.89-74.79,5.89-74.79,58.12-5.13,73-59.72,73-59.72l20.53-49.41a33.46,33.46,0,0,0,2.47-10.67l3.63-58.77c11.94,37.42,34.39,47.72,34.39,47.72,17.31,7.49,12.63-13.1,12.63-13.1,17.32,31.82,7,58.82,7,58.82-13.1,43.86-47.72,74.52-47.72,74.52l-5.38,67.61C848.82,352,813.18,490.42,813.18,490.42Z" fill="#686175" data-primary="true"/><path d="M633,173.07c-.12-.76-.24-1.52-.33-2.27a60,60,0,0,1,.28-18.12A69.89,69.89,0,0,0,633,173.07Z" fill="none" stroke="#ed1c24" stroke-miterlimit="10"/><path d="M675.89,212.43h0A52.21,52.21,0,0,1,670,223.13a40.72,40.72,0,0,1-23.57,0c5.08-4.62,2.65-17.85,2.58-18.18,5.61,4.94,12,7.33,18.3,6.14a17.86,17.86,0,0,0,7.35-3.27A21.51,21.51,0,0,1,675.89,212.43Z" fill="#f9b499"/><path d="M654.72,260.24a66.15,66.15,0,0,1-45.16,10.51s-7.9-1.29-7.82-6.89a.39.39,0,0,1,.48-.38,9.48,9.48,0,0,0,5.31-.21,4.65,4.65,0,0,0,3-4c.68-8.28,4.63-38.22,26.08-45.31h0a13.37,13.37,0,0,1,3.78,4.65,13.67,13.67,0,0,1,0,11.77c-2,4.25-4.44,11.72.35,14.87,0,0,17.75-5.77,29.34-22.1a51.71,51.71,0,0,0,5.85-10.69h0c.1-.17,1.84-3,9.2-5.24C685.1,207.22,694.83,233.37,654.72,260.24Z" fill="#f48225" data-secondary="true"/><path d="M533.18,300.17s32.62-.66,55.1-45.41c0,0-.77,9.06-2.48,14.36,0,0-11.66,31.61-47,55.85C538.83,325,533.59,315.46,533.18,300.17Z" fill="#f48225" data-secondary="true"/><path d="M711.73,88.37s-.2-1.78,2.93-1.46A8.91,8.91,0,0,1,718,88c6.18,3.46,34.44,20,40.95,35.87,0,0,3.14,14.27-6.93,13.83,0,0-9.63.45-23.71-17.25A96.48,96.48,0,0,1,711.73,88.37Z" fill="#686175" data-primary="true"/><path d="M711.73,88.37s-.2-1.78,2.93-1.46A8.91,8.91,0,0,1,718,88c6.18,3.46,34.44,20,40.95,35.87,0,0,3.14,14.27-6.93,13.83,0,0-9.63.45-23.71-17.25A96.48,96.48,0,0,1,711.73,88.37Z" opacity="0.1"/><path d="M709.59,123s35.4,51.37,59.2,39.87c0,0,0,10.71-3,18.93,0,0-34.17-1.54-57.09-44.1Z" fill="#f48225" data-secondary="true"/><path d="M813.18,490.42c-50.37-40.83-83.5-12.36-92.31-2.9a86.4,86.4,0,0,1-10.64,9.78c-58.11,44.34-150.79,20.1-150.79,20.1s42.58-4.21,129.29-62.22c0,0,34.94-27.45,80.79-5,0,0,27.37,9.39,40.79,34.14Z" fill="#686175" data-primary="true"/><path d="M813.18,490.42c-50.37-40.83-83.5-12.36-92.31-2.9a86.4,86.4,0,0,1-10.64,9.78c-58.11,44.34-150.79,20.1-150.79,20.1s42.58-4.21,129.29-62.22c0,0,34.94-27.45,80.79-5,0,0,27.37,9.39,40.79,34.14Z" opacity="0.1"/><path d="M550.29,518.88S597.76,544.3,613,536.67c0,0,5.45-8.44,7.09-13.89l-15.83-20S577.87,515.79,550.29,518.88Z" fill="#2f2e41"/><path d="M613.48,535.94s6.3.95,8.48-3a4.52,4.52,0,0,0,.52-1.72,8.75,8.75,0,0,0-2.79-7.19A54.65,54.65,0,0,1,613.48,535.94Z" fill="#f9b499"/><path d="M603.1,538l-4,14.39a30.18,30.18,0,0,1-3.47,7.86c-3.68,5.89-10.21,17.62-5.58,20.16,0,0,10.55,6.22,22.18-4.11a30.47,30.47,0,0,0,8.92-14.46,74.49,74.49,0,0,0,2.47-12.69,20.45,20.45,0,0,1,3.29-9.32,14.27,14.27,0,0,1,1.5-1.9,11.12,11.12,0,0,0,3.24-8.47,14,14,0,0,0-1.83-5.79s-6.69.32-10.09.33c0,0,4.44,4.22,2.27,8.91,0,0-1.62,3.78-8.48,3l-.47.73A18,18,0,0,1,603.1,538Z" fill="#686175" data-primary="true"/><path d="M659.29,577.76s2.13,18.27,19.79,22.83c0,0,58.55-48.06,79.63-81.5a11.48,11.48,0,0,1,3.21-3.34A18.29,18.29,0,0,0,770.08,502a17.24,17.24,0,0,0-1.12-7.14c-3.16-8.47-14.66-38.46-23.92-52.51,0,0-29-6.52-56.31,12.87,0,0,22.31,39,27.79,47.62C716.52,502.8,670,567.11,659.29,577.76Z" fill="#2f2e41"/><path d="M673.46,598.46l-11.24,7.31c-8.33,6.39-11,1.22-11,1.22a9.72,9.72,0,0,1-.7-1.6,11.18,11.18,0,0,1,3.81-12.33l5-3.95h0l2.93-2.3C667.59,596.74,673.46,598.46,673.46,598.46Z" fill="#f9b499"/><path d="M661.68,658.13c-9.78,2.13-21.26-14.61-21.26-14.61-2.74-5.18.3-32,.3-32C639.2,606.68,638,600.6,638,600.6c.92-15.23,21.31-11.5,21.31-11.5h0l-5,3.95a11.18,11.18,0,0,0-3.81,12.33,9.72,9.72,0,0,0,.7,1.6s2.71,5.17,11-1.22l1,27.7,1.82,12.18C667.51,656.61,661.68,658.13,661.68,658.13Z" fill="#686175" data-primary="true"/><path d="M558.67,275.54s-2.42-40.86,8.86-61a6.14,6.14,0,0,1,5.79-3.09c3.64.26,9,1,11.37,3.37a2.27,2.27,0,0,1-.76,3.1s8,11.69-9.52,18.09c0,0-1.75,14.16,2.81,21C577.22,257,568.63,268.92,558.67,275.54Z" fill="#f9b499"/><path d="M716.24,100.39s3.84-20.14,3.84-28.43h12.14s4.35,44.2,4.54,57.63C736.76,129.59,724.72,119.83,716.24,100.39Z" fill="#f9b499"/><path d="M716.76,46.26a3.75,3.75,0,0,1,2.39-2.4,3.25,3.25,0,0,1,3.34,1.33c.42.56,1.15,1,2.23-.18a3.75,3.75,0,0,1,5.38,1.25s4.91.23,4.56,4.79c0,0,3.86,1.29,2.1,4.57l-.7,3.27Z" fill="#f4a68e"/><path d="M720.08,72a11.21,11.21,0,0,0,14.48,0c-1.47-1.24-3-2.5-4.58-3.76-1.37-1.09-2.73-2.13-4.07-3.14C725.9,65.77,725.79,66.67,720.08,72Z" fill="#f4a68e"/><path d="M680.15,35.26c.05,0,53.74,30.8,65.37,48.08a15.61,15.61,0,0,1,10.35-12.27L715,45.09a22.66,22.66,0,0,1-1.87-1.34c-3.59-2.85-16.32-13.22-21.62-21.12C691.5,22.63,680.62,23.57,680.15,35.26Z" fill="#f48225" data-secondary="true"/><ellipse cx="750.85" cy="77.34" rx="8.04" ry="3.4" transform="matrix(0.64, -0.77, 0.77, 0.64, 209.02, 602.87)" fill="#f48225" data-secondary="true"/><ellipse cx="750.85" cy="77.34" rx="8.04" ry="3.4" transform="matrix(0.64, -0.77, 0.77, 0.64, 209.02, 602.87)" opacity="0.1"/><ellipse cx="750.85" cy="77.34" rx="5.32" ry="2.25" transform="translate(209.02 602.87) rotate(-50.01)" opacity="0.1"/><path d="M682.86,27.31l60.61,47.34s6-4.79,10.28-5l-37-23.42A112.68,112.68,0,0,1,691.5,22.63,13.25,13.25,0,0,0,682.86,27.31Z" opacity="0.1"/><path d="M599.6,95.3H562.48l44.68-53.72,73.93,2.19-27,20.93-4.57-6.56s-20.05-1.89-36.21,7.41a46.35,46.35,0,0,0-17.6,22.82Z" fill="#2f2e41"/><path d="M599.6,95.3H562.48l44.68-53.72,73.93,2.19-27,20.93-4.57-6.56s-20.05-1.89-36.21,7.41a46.35,46.35,0,0,0-17.6,22.82Z" opacity="0.1"/><path d="M536.72,88.37s.38.08,1,.18a20.42,20.42,0,0,0,20.37-9.45c4-6.46,14-18.66,30.67-15.43l-1.56,1.88s-14.06,0-22.18,8.25a17.7,17.7,0,0,0-3.18,4.56c-2.07,4.14-9.66,16.21-26,11.63Z" fill="#2f2e41"/><circle cx="532.24" cy="87.3" r="5.4" fill="#2f2e41"/><path d="M649.49,208.26l-.71-4.67,25.53,2.33s1,3.23,1.29,4.87C675.6,210.79,659.5,217.86,649.49,208.26Z" fill="#f4a68e"/><path d="M686.67,181.81c-1,11.51-5.34,21.07-12,26a17.9,17.9,0,0,1-7.36,3.27c-6.27,1.19-12.68-1.2-18.29-6.14h0a44.66,44.66,0,0,1-9.63-12.53A61.77,61.77,0,0,1,634,177.92v0c-.26-1.09-.51-2.2-.72-3.32-.09-.46-.17-.91-.24-1.36l0-.15c-.12-.76-.24-1.52-.33-2.27a60,60,0,0,1,.28-18.12s14.22,5.29,27.71-1.11a4.06,4.06,0,0,1,3.06-.19c3.21,1.08,10.78,3.17,16.58,1,0,0,2.32-.43,2.09,2.76a16.47,16.47,0,0,0,.16,4c.38,2.16,1.25,4.84,3.19,5.47A63.09,63.09,0,0,1,686.67,181.81Z" fill="#f9b499"/><path d="M693.49,170.24c0,5.59-2.9,10.28-6.82,11.57a63.09,63.09,0,0,0-.94-17.16c-.4-2.17-.92-4.28-1.51-6.32h.26C689.45,158.32,693.49,163.65,693.49,170.24Z" fill="#f9b499"/><path d="M639.42,192.39c-3.69.74-8.23-1.15-11.39-5.08-4.12-5.15-4.31-11.84-.43-14.94a7.48,7.48,0,0,1,5.06-1.57q.24,1.88.6,3.78A62.9,62.9,0,0,0,639.42,192.39Z" fill="#f9b499"/><path d="M692.28,144.35c1.19,1.8,2.61,5.48,0,10.85,0,0-3.28,9-3.42,12.64a3.3,3.3,0,0,1-.61,1.85,3.48,3.48,0,0,1-1.35,1.1l-1.16-6.14c-1.94-.63-2.81-3.31-3.19-5.47a16.47,16.47,0,0,1-.16-4c.23-3.19-2.09-2.76-2.09-2.76-5.8,2.16-13.37.07-16.58-1a4.06,4.06,0,0,0-3.06.19c-13.49,6.4-27.71,1.11-27.71,1.11a60,60,0,0,0-.28,18.12c.09.75.21,1.51.33,2.27l0,.15a41.48,41.48,0,0,0,1,4.68v0s-19.36-7-18.83-35.22c0,0,.18-1.58,2.29-1.23,0,0-.63-10.49,4.17-12a.84.84,0,0,1,1,.65,9.1,9.1,0,0,0,.73,2.5,1,1,0,0,0,1.79,0c1.29-2.53,5.81-10.82,9.93-12a2.48,2.48,0,0,1,2.72,1,2,2,0,0,0,2.24.82,4.19,4.19,0,0,0,2.48-1.5c2.41-2.92,11.31-12.5,20.08-6.9a3,3,0,0,0,2,.46c1.88-.27,5.85-.36,8,3.19,0,0,.7,1.41,3.52.18,0,0,10.36-5.23,17.55-4.36a7,7,0,0,1,6.09,6.36c.36,4.24-.26,12.25-7.37,21.72A2.39,2.39,0,0,0,692.28,144.35Z" fill="#2f2e41"/><path d="M675.89,212.47C666,237,640.7,245.26,640.7,245.26c-4.79-3.15-2.3-10.62-.35-14.87a13.67,13.67,0,0,0,0-11.77,13.37,13.37,0,0,0-3.78-4.65h0a19.77,19.77,0,0,0-10.68-3.8c10.29-5.93,23.68-1.08,23.68-1.08a39.85,39.85,0,0,1,.12,4.38c-.22,8.15-3.21,9.64-3.21,9.64,12,4.25,13.8-5.14,13-13.57a27.49,27.49,0,0,1,16.39,2.93Z" fill="#ccc"/><path d="M720.08,72s-10.34-6.64-5.31-16.34c0,0,3.42-6.62,10.85-4.71a1.61,1.61,0,0,1,1.21,1.41c.1,1.18-.45,3-4.34,3.88,0,0-.94.66.06,1.48a4.33,4.33,0,0,1,.85.86C725,60.74,729.61,68.54,720.08,72Z" fill="#f9b499"/><path d="M611.51,116.8,595.76,88.37s9-34.38,53.81-30.23L669,86S627.43,76,611.51,116.8Z" fill="#2f2e41"/></svg>