<svg id="b2ad769c-d050-4892-9dac-521018d376e6" data-name="Layer 1" xmlns="http://www.w3.org/2000/svg" xmlns:xlink="http://www.w3.org/1999/xlink" width="865.76" height="682.89" viewBox="0 0 865.76 682.89"><defs><clipPath id="a44eea96-fa5f-44e4-9eb3-30723e8652b7"><polygon points="190.32 607.67 122.55 607.67 132.21 536.88 134.68 518.72 178.19 518.72 180.65 536.88 190.32 607.67" fill="#aac8f9" stroke="#6259b0" stroke-miterlimit="10"/></clipPath><clipPath id="ed2b792c-cc85-4d3f-97ee-2eb8fb567667"><path d="M582.46,247.87l-41.92,85c-4.35,8.82-4.22,19.4,1,27.72a30.81,30.81,0,0,0,12.12,10.91l91,37.22,7.81-23.89-61.58-45,34-40L628.12,280l-.46-31.24-40.5-2.57Z" fill="#f48225" data-secondary="true" stroke="#351d66" stroke-miterlimit="10"/></clipPath><clipPath id="a6f6c618-d0cf-441b-a89d-94240dce8771"><path d="M627.66,248.78l.46,31.24L606.43,418.76a20.53,20.53,0,0,0-.2,4.7l6.42,86.36a7,7,0,0,0,4.66,6.12,27.47,27.47,0,0,0,22.41-2.12,7,7,0,0,0,3.62-6.06L644.61,425a20.58,20.58,0,0,1,1.23-6.72c6.38-17.52,36.63-101.39,45-136.2a52.34,52.34,0,0,0,.52-21.69l-6.68-36Z" fill="#f48225" data-secondary="true" stroke="#351d66" stroke-miterlimit="10"/></clipPath><clipPath id="f78e9a26-acb5-455e-93fb-e0b72530a4b1"><path d="M587.16,246.21s32.46,12.84,87.52-11.32L633.36,128.13l-32.67.34L586,145.34Z" fill="#7ddcf2" stroke="#351d66" stroke-miterlimit="10"/></clipPath><clipPath id="e534fd77-8c9c-47ca-8657-d6602bb1f3aa"><path d="M630.82,78.21s-1.75-.09-3.94,3.51a12.1,12.1,0,0,0-1.23,3.68,16.23,16.23,0,0,0-7.52-5.54,24.76,24.76,0,0,1-7.46-4.16c-2.66-2.22-5.7-5.29-6.93-8.58l-1.5,1.09s0,4.63-6.77,10.66c0,0-5.56,17,6.77,27.64,0,0,6.17,6,13.73,2.13,0,0,2,10.18-1,15.73,0,0-14.5,1.92-17.7,8.1,0,0-4.91,0-5.76-7.68l-1.5,1.28s-1.28,7.68,0,10c0,0-8.53.21-16.21-14.51,0,0-4.27,5.34,1.28,13,0,0-16.68-6.05-11-28.75a28.3,28.3,0,0,1,15-18.38l.26-.12s11.46-3.74,10.42-18c0,0,0-14.51,15-11.31,0,0,19.84-10.83,31.79,7,0,0,9.38,14.81,24.74,22.38,0,0,29,9.06,16.86,31.46,0,0-1.28-5.55-5.12-6,0,0,1.28,6-.43,10.88,0,0-6.83-6.62-13.44-7.68,0,0,5.33,6.82,4.05,12.16l-8.74,4.26s-.43-10.45-9.6-11.3l-11.1-.22s-7-11.45-4-29.83" fill="#f48225" data-secondary="true" stroke="#351d66" stroke-miterlimit="10"/></clipPath><clipPath id="fcd72afe-d786-447d-b79c-19352750cab2"><path d="M650.23,104.46S672.3,81.66,698.47,90c1.67.53,3.36,1,5.06,1.48,5.16,1.36,15.82,4.48,22.65,8.57A2.59,2.59,0,0,0,730,98.75c2.41-6.06,7.33-17.59,6.67-26.2a12,12,0,0,0-7.22-10c-12.62-5.62-61-22.87-92.56,25.49l-1.33,7.05,5.14,7.06Z" fill="#686175" data-primary="true" stroke="#351d66" stroke-miterlimit="10"/></clipPath><clipPath id="af71be13-75ed-41b0-a3e2-13968511876c"><path d="M590,109.8l-8.77,3.81s-15.62,30.1-4.57,54.88l3.92,8.63a12.18,12.18,0,0,1,.7,8.13l-11.86,45.42a2.47,2.47,0,0,0,.8,2.54c2.41,2,8.57,6.51,18.75,9a2.51,2.51,0,0,0,3.06-1.95c1.49-7.56,5.86-30.71,7.11-48.93l.35-15.67a19.51,19.51,0,0,0-.15-2.86c-.79-6.28-3.68-32.33,1.33-44.35Z" fill="#686175" data-primary="true" stroke="#351d66" stroke-miterlimit="10"/></clipPath><clipPath id="f5e89993-3494-4015-85b1-ea2b4c65872e"><path d="M535,167.17a3.25,3.25,0,0,0,3.41-1.22l31.75-42.75s6.25-8.06,11.14-9.59c0,0-15.35,29.16-4.57,54.88,0,0-24.24,30.62-29.8,30.62-4-.11-8.41-.4-13.09-1a137.81,137.81,0,0,1-14.25-2.52.26.26,0,0,1,0-.52,16.78,16.78,0,0,0,5.78-1.67,17.89,17.89,0,0,0,6.37-5.36,16.87,16.87,0,0,0,2.06-17,11.76,11.76,0,0,0-3.3-4.51.27.27,0,0,1,.24-.46Z" fill="#686175" data-primary="true" stroke="#351d66" stroke-miterlimit="10"/></clipPath><clipPath id="b47d4cec-85b9-47cc-a9cf-34abc740c4e0"><path d="M631.56,130s-5.6,27,4.31,41.06a49.59,49.59,0,0,1,2.77,4.28c2.58,4.57,8.13,14.18,12.7,20.63a58.67,58.67,0,0,1,7.93,15.94c3.32,10.32,8.48,24.72,11.36,24.27,0,0,24.48-4.82,36.19-26.19,0,0,2.42-3.45-4.48-10L695,191.58a57.92,57.92,0,0,1-10.28-16.77,118.87,118.87,0,0,1-5.46-18.25s17.06,6.29,26.55,8.72a13.41,13.41,0,0,0,9-.87L763,141.74s4.13-18.61-7.93-22.74L723.7,130.73a13.47,13.47,0,0,1-10.75-.59l-38.88-19.58a43.72,43.72,0,0,0-10.81-3.75l-22.56-4.63S648,117.56,631.56,130Z" fill="#686175" data-primary="true" stroke="#351d66" stroke-miterlimit="10"/></clipPath><clipPath id="e1b28058-423a-4914-b17d-358a9b1392e7"><path d="M593.07,98s-7.44,6.86-.19,21.34c0,0,10.86,21.92,38.68,10.68,0,0,15.81-6.86,10.67-25.54,0,0-2.67-7.24-6.67-9.34l-10.1,5.15-29.92-1Z" fill="#686175" data-primary="true" stroke="#351d66" stroke-miterlimit="10"/></clipPath><clipPath id="e876857e-6bbe-48cc-a3e2-c6156759c445"><path d="M527.9,191.73l-18.29-11s-4.77-1.14-5.72-10.86c0,0-5.53-24.58-.19-31.06,0,0,6.48-9.34,13.34-12.58,0,0,2.78-1.71,4.5-1.36a1.33,1.33,0,0,1,.83,1.93,21.83,21.83,0,0,1-3.62,5.34s7.62-5.91,9.34-2.67c0,0,1.33,2.1-1.14,6.67,0,0,3.81-1.33,3.81,1.34,0,0-1.53,7.62-4,11,0,0,3.82-2.48,5-.38,0,0,.17,4-4.87,13.68a5.66,5.66,0,0,0-.47,3.94,22,22,0,0,1,.68,5.84,1.54,1.54,0,0,0,1,1.53l7.08,2.64S536.47,187.35,527.9,191.73Z" fill="#f9c7a5" stroke="#351d66" stroke-miterlimit="10"/></clipPath><clipPath id="b98894bf-ba88-462d-9947-eabf3f04aa1c"><path d="M484,410.62c.39,12.84,3.4,74.26-8.46,75.43-4.19.44-8-9.13-10.94-23.35-.29-1.4-.58-2.84-.85-4.32-1-5.34-1.85-11.23-2.55-17.35-.19-1.41-.35-2.84-.49-4.28-.59-5.7-1.06-11.56-1.38-17.43-.08-1.43-.16-2.84-.21-4.27s-.11-2.43-.14-3.63c-.13-4-.21-8-.21-11.89v-4.32c.1-7.94.42-15.62,1-22.63.11-1.38.24-2.71.35-4,1.74-18,5.12-30.93,9.78-32.3C479.9,333.37,483,378.63,484,410.62Z" fill="#aac8f9" stroke="#6259b0" stroke-miterlimit="10"/></clipPath><clipPath id="bb468bf2-4a0b-434d-ac63-a6b45481289a"><path d="M502.9,418.31c-1.76,12.63-9.08,73.3-21,71.68-4.19-.55-6.42-10.81-6.83-25.38,0-1.43-.1-2.9-.12-4.41,0-5.46,0-11.38.39-17.55,0-1.42.14-2.85.24-4.3.39-5.7.9-11.52,1.61-17.35.17-1.41.33-2.81.51-4.2s.3-2.39.46-3.57c.55-3.93,1.14-7.83,1.8-11.66.26-1.4.5-2.83.74-4.21,1.41-7.75,3-15.13,4.81-21.86.33-1.32.68-2.58,1-3.83,4.71-17.11,10.2-29,15-29.22C511.82,342,507.33,386.88,502.9,418.31Z" fill="#aac8f9" stroke="#6259b0" stroke-miterlimit="10"/></clipPath></defs><path d="M493.48,30H236.07a26.29,26.29,0,0,0-26,26.53h0v530a26.3,26.3,0,0,0,26,26.53H493.48a26.32,26.32,0,0,0,26.08-26.53v-530A26.3,26.3,0,0,0,493.48,30Z" fill="#aac8f9" stroke="#6259b0" stroke-miterlimit="10"/><path d="M501.18,569.72c0,13.94-10.43,25.23-23.32,25.23H247.56c-12.92,0-23.37-11.24-23.37-25.23V76.24c0-28.4,10.45-29.78,23.37-29.78h46.13c2.68,0,4.81,3,4.81,6.82v1.6c0,8.86,4.82,8.88,10.8,8.88H416c6,0,10.8,0,10.8-8.88V53.29c0-3.77,2.15-6.82,4.81-6.82h46.18c12.84,0,23.32,3.77,23.32,29.79Z" fill="#d2e1f9"/><path d="M377.23,52.27h-29.1a1.8,1.8,0,0,1-1.8-1.79h0a1.8,1.8,0,0,1,1.8-1.8h29.1a1.79,1.79,0,0,1,1.79,1.8h0A1.79,1.79,0,0,1,377.23,52.27Z" fill="#d2e1f9"/><rect x="343.89" y="320.2" width="33.61" height="4.37" fill="#aac8f9"/><rect x="241.65" y="113.73" width="70.54" height="70.54" fill="#e9f0fc"/><path d="M284.55,158.19l-9.27-3.1s-4.82,3.64-8-2.55a7.6,7.6,0,0,1-9.45-5.1l-.1-.37s-8.87-2.81-6.32-7.82,9.63.26,9.63.26a9.62,9.62,0,0,1,9.53,6.62s6.76,0,6.78,6.2Z" fill="#251860"/><path d="M255.47,141.11c2.5,1.31,5,2.63,7.42,4s4.91,2.75,7.35,4.16,4.81,2.82,7.24,4.3,4.81,3,7.07,4.57L282.76,157,280.94,156l-3.62-2-7.31-4.2-7.27-4.31Z" fill="#fff"/><path d="M285,157.87l.1-9.79s5-3.31.17-8.4a7.58,7.58,0,0,0-1.74-10.59l-.33-.23s.24-9.29-5.33-8.52-2.87,9.18-2.87,9.18a9.64,9.64,0,0,0,3.21,11.24s-2.21,6.42,3.66,8.41Z" fill="#251860"/><path d="M278.39,124.82c.58,2.76,1.14,5.5,1.69,8.27l1.6,8.26,1.61,8.27.83,4.12.43,2.07.45,2.06c-.78-2.7-1.42-5.44-2-8.19s-1.18-5.49-1.71-8.25-1.05-5.52-1.6-8.3S278.79,127.6,278.39,124.82Z" fill="#fff"/><path d="M285.57,159.38l-9.09-9.54s-7.65,1.88-8.31-7.3c0,0-9.89-1.24-8.65-11.65,0,0-9.25-8-3.53-12.84s11.57,5.41,11.57,5.41a12.6,12.6,0,0,1,8,13s8,3.58,4.82,11.06Z" fill="#aac8f9"/><path d="M261.84,123.2c2.28,2.79,4.47,5.68,6.57,8.6L270,134l1.61,2.23c.51.74,1,1.49,1.51,2.23l1.51,2.27c1,1.5,1.95,3,2.92,4.55l1.41,2.31.72,1.14.68,1.18c1.86,3.09,3.57,6.27,5.23,9.48l-.69-1.15-.69-1.18-.69-1.17-.71-1.14-1.4-2.31L280,150.13c-1.91-3-3.86-6.1-5.85-9.1-1-1.51-2-3-3-4.49l-1.51-2.25-1.52-2.23-3.09-4.45C264,126.14,262.89,124.68,261.84,123.2Z" fill="#fff"/><path d="M300.27,159.17c.16.22.3.43.43.64,4.41,7-1.36,12.6-1.6,15.1s1.81,4.25.65,5.07-2-1.6-4.57-2.28c-2-.48-7,1.79-11.57-.67a7.91,7.91,0,0,1-1.11-.69,11.07,11.07,0,0,1-2.12-2,6.62,6.62,0,0,1-.46-.62l-.24-.34a13.25,13.25,0,0,1-2.6-8,12.46,12.46,0,0,1,.19-1.6,12.67,12.67,0,0,1,5.29-7.77c4.37-3.11,10-3.82,14.82.15.3.25.6.52.91.81a20.27,20.27,0,0,1,1.72,2Z" fill="#d2e1f9"/><path d="M288.9,171.8l.69,1-6,4.27a7.91,7.91,0,0,1-1.11-.69Z" fill="#aac8f9"/><path d="M283.82,170.39l.7,1-4.12,2.94a6.74,6.74,0,0,1-.47-.62l-.24-.34Z" fill="#aac8f9"/><path d="M300.27,159.17c.16.22.3.43.43.64l-4.11,2.94-.7-1,4.14-2.95Z" fill="#aac8f9"/><path d="M298.31,156.84,295.36,159l-.71-1,2.74-2C297.7,156.28,298,156.55,298.31,156.84Z" fill="#aac8f9"/><path d="M280.56,161.3l.69,1-4.16,2.91a14.43,14.43,0,0,1,.19-1.61Z" fill="#aac8f9"/><path d="M264,190.06a.33.33,0,0,1,.32.31v.5a4.24,4.24,0,0,1,2.28.89.38.38,0,0,1,.17.31.34.34,0,0,1-.36.31.4.4,0,0,1-.2-.09,3.81,3.81,0,0,0-1.92-.83v3.59c1.95.41,2.77,1.14,2.77,2.4a2.52,2.52,0,0,1-2.65,2.38h-.09v1a.32.32,0,0,1-.63,0v-1a5,5,0,0,1-2.89-1.25.41.41,0,0,1-.13-.27A.33.33,0,0,1,261,198a.27.27,0,0,1,.22.09,4.23,4.23,0,0,0,2.5,1.17v-3.56c-1.92-.43-2.72-1.14-2.72-2.42a2.51,2.51,0,0,1,2.68-2.32h0v-.5a.32.32,0,0,1,.25-.38Zm-.28,4.82v-3.5c-1.25,0-2.07.77-2.07,1.6s.42,1.56,2.07,2Zm.57.78v3.54a1.88,1.88,0,0,0,2.11-1.74c0-1-.48-1.36-2.08-1.78Z" fill="#aac8f9"/><path d="M268.73,199.29l4.19-3.79a2.37,2.37,0,0,0,.77-1.71,2.35,2.35,0,0,0-3.92-1.7l-.43.38a.3.3,0,0,1-.41,0l0,0a.29.29,0,0,1,0-.43l0,0,.43-.4a3,3,0,0,1,2-.75,2.93,2.93,0,0,1,2,5.1l-3.6,3.21H274a.3.3,0,0,1,.3.3v0a.3.3,0,0,1-.3.31h-5.06a.31.31,0,0,1-.22-.09A.32.32,0,0,1,268.73,199.29Z" fill="#aac8f9"/><path d="M277.3,198.55a.65.65,0,1,1-.64.65.65.65,0,0,1,.64-.65Z" fill="#aac8f9"/><path d="M279.45,198.89a.31.31,0,0,1,0-.43l0,0a.35.35,0,0,1,.47,0,2.41,2.41,0,0,0,3.4-3.42,2.47,2.47,0,0,0-1.7-.69,2.41,2.41,0,0,0-1.7.71.31.31,0,0,1-.43,0l0,0a.17.17,0,0,1,0-.1h0a.2.2,0,0,1,0-.11h0l.43-3.61A.28.28,0,0,1,280,191a.26.26,0,0,1,.21,0h4.17a.32.32,0,0,1,.32.32.32.32,0,0,1-.32.32h-4l-.32,2.66a3,3,0,0,1,3.67.47,3.08,3.08,0,0,1,0,4.32,3.11,3.11,0,0,1-2.15.88A3.08,3.08,0,0,1,279.45,198.89Z" fill="#aac8f9"/><path d="M287.15,195.34a5.78,5.78,0,0,1,.87-3.13,2.55,2.55,0,0,1,3.46-1,2.52,2.52,0,0,1,1,1,6.15,6.15,0,0,1,0,6.28,2.57,2.57,0,0,1-3.46,1,2.6,2.6,0,0,1-1-1A5.74,5.74,0,0,1,287.15,195.34Zm.65,0a5,5,0,0,0,.75,2.8,2.16,2.16,0,0,0,1.72,1.07,2.24,2.24,0,0,0,1.72-1.07,5.45,5.45,0,0,0,0-5.57,2.14,2.14,0,0,0-1.72-1.08,2.08,2.08,0,0,0-1.72,1.08A5,5,0,0,0,287.8,195.34Z" fill="#aac8f9"/><rect x="325.05" y="113.73" width="70.54" height="70.54" fill="#e9f0fc"/><path d="M372.7,158.57c8.94,9.07,17.93,18.57,17.93,18.57a4.24,4.24,0,0,1-3.21,3l-18.14-18.38-.93-.93-.62-.64-1.87-1.89-.64-.65L361.53,154l-.63-.64c-3.64-3.68-6.42-6.42-7.2-7.3-4.05-4.11-23.76-12.62-23.76-12.62s-1.6-1,.52-3.77c0,0,7.64,3.61,14.78,7.22l-16.69-10.59a3.31,3.31,0,0,1,1.47-2.83l9.54,6.31L331,121.5s.21-1.33,2.5-2.38l14.75,15.22-10.48-13.85a5.33,5.33,0,0,1,2.51-1.85s6.42,9.73,15.5,21.84l-9.6-16.19a3.53,3.53,0,0,1,2.65-1.25s7.48,17.83,15.39,27l.6.68c.27.3.56.59.83.88h0l2.89,2.86.63.64,1.87,1.88.63.64Z" fill="#d2e1f9"/><path d="M348.91,123s7.48,17.83,15.4,27l-3.41,3.21c-3.64-3.67-6.42-6.42-7.2-7.3-4.05-4.11-23.76-12.61-23.76-12.61s-1.6-1.05.52-3.78c0,0,7.64,3.62,14.78,7.23l-16.69-10.53a3.31,3.31,0,0,1,1.47-2.83l9.54,6.31L331,121.5s.21-1.33,2.5-2.38l14.75,15.22-10.48-13.85a5.33,5.33,0,0,1,2.51-1.85s6.42,9.73,15.5,21.84l-9.6-16.19A3.55,3.55,0,0,1,348.91,123Z" fill="#251860"/><path d="M368.67,154.46l-3.38,3.21L361.53,154l3.37-3.21c.27.31.56.59.84.88h0Z" fill="#251860"/><path d="M371.14,157l-3.38,3.21-1.86-1.89,3.37-3.21Z" fill="#251860"/><path d="M372.7,158.57l-3.39,3.21-.93-.93,3.39-3.21Z" fill="#251860"/><path d="M348.14,190.06a.33.33,0,0,1,.31.31v.5a4.14,4.14,0,0,1,2.28.89.4.4,0,0,1,.19.31.34.34,0,0,1-.34.32.28.28,0,0,1-.22-.1,3.81,3.81,0,0,0-1.93-.83v3.59c1.95.41,2.76,1.14,2.76,2.4a2.52,2.52,0,0,1-2.65,2.38h-.09v1a.31.31,0,1,1-.61,0v-1a4.8,4.8,0,0,1-2.89-1.25.32.32,0,0,1-.14-.27.34.34,0,0,1,.32-.32.26.26,0,0,1,.22.09,4.23,4.23,0,0,0,2.51,1.17v-3.56c-1.93-.43-2.72-1.14-2.72-2.42a2.49,2.49,0,0,1,2.58-2.4h.09v-.5a.32.32,0,0,1,.33-.31Zm-.28,4.82v-3.5a1.87,1.87,0,0,0-2.06,1.6c0,1.1.4,1.56,2,2Zm.57.78v3.54a1.89,1.89,0,0,0,2.12-1.74c0-1-.46-1.36-2.12-1.78Z" fill="#aac8f9"/><path d="M354.31,191.76l-1.27.76h-.16a.31.31,0,0,1-.18-.56l0,0,1.74-1.06a.35.35,0,0,1,.42.13.41.41,0,0,1,0,.22v8.25a.31.31,0,0,1-.31.31h0a.32.32,0,0,1-.3-.31Z" fill="#aac8f9"/><path d="M358.13,198.55a.63.63,0,0,1,.64.61v0a.63.63,0,0,1-.61.64h0a.62.62,0,0,1-.64-.61v0A.64.64,0,0,1,358.13,198.55Z" fill="#aac8f9"/><path d="M360,195.34a5.76,5.76,0,0,1,.85-3.13,2.82,2.82,0,0,1,2.25-1.34,2.78,2.78,0,0,1,2.25,1.34,6.06,6.06,0,0,1,0,6.28,2.79,2.79,0,0,1-2.25,1.35,2.83,2.83,0,0,1-2.25-1.35A5.83,5.83,0,0,1,360,195.34Zm.63,0a5.1,5.1,0,0,0,.75,2.8,1.93,1.93,0,0,0,3.45,0,5.5,5.5,0,0,0,0-5.57,1.92,1.92,0,0,0-3.45,0,5.07,5.07,0,0,0-.7,2.77Z" fill="#aac8f9"/><path d="M369.09,195.34a5.68,5.68,0,0,1,.85-3.13,2.8,2.8,0,0,1,2.25-1.34,2.76,2.76,0,0,1,2.24,1.34,6,6,0,0,1,0,6.28,2.77,2.77,0,0,1-2.24,1.35,2.81,2.81,0,0,1-2.25-1.35A5.74,5.74,0,0,1,369.09,195.34Zm.63,0a5,5,0,0,0,.75,2.8A1.91,1.91,0,0,0,373,199a1.88,1.88,0,0,0,.88-.88,5.41,5.41,0,0,0,0-5.57,1.91,1.91,0,0,0-3.43,0A4.92,4.92,0,0,0,369.72,195.34Z" fill="#aac8f9"/><rect x="408.44" y="113.73" width="70.54" height="70.54" fill="#e9f0fc"/><path d="M422.76,157.63c5.52,18,22.47,15.69,27.29,14.22s20.09-9.07,14.55-27.06S441,131,437.78,132C434.14,133.09,417.24,139.65,422.76,157.63Z" fill="#d2e1f9"/><path d="M439.29,134.4s.76,6.77,12.63,2.71C452,137.11,443.93,128.58,439.29,134.4Z" fill="#aac8f9"/><path d="M440.5,137.21s5.58.37,4-9.81C444.49,127.4,436.44,132.67,440.5,137.21Z" fill="#aac8f9"/><path d="M440.05,135.41s-1.95,5.25-10.6-.35C429.45,135.06,437.56,129.88,440.05,135.41Z" fill="#aac8f9"/><path d="M439.68,134.08s-5.2,4.4,4.81,12C444.46,146.07,447.06,134.69,439.68,134.08Z" fill="#aac8f9"/><path d="M439.13,135.06s-7.49-2.1-6.51,10.71C432.62,145.77,444.11,141.78,439.13,135.06Z" fill="#aac8f9"/><path d="M440.38,136.63a13.4,13.4,0,0,0-4.67-11.44,4.31,4.31,0,0,0-3.95,3.37s6.42,3.58,6.84,9.39l1.49-.88" fill="#251860"/><path d="M431.7,190.06a.33.33,0,0,1,.32.31v.5a4.21,4.21,0,0,1,2.28.89.39.39,0,0,1,.18.31.35.35,0,0,1-.36.31.34.34,0,0,1-.2-.09,3.81,3.81,0,0,0-1.93-.83v3.59c2,.41,2.78,1.14,2.78,2.4a2.52,2.52,0,0,1-2.65,2.38H432v1a.33.33,0,0,1-.32.31.32.32,0,0,1-.3-.31v-1a4.92,4.92,0,0,1-2.89-1.25.37.37,0,0,1-.13-.27.33.33,0,0,1,.32-.32.25.25,0,0,1,.22.09,4.28,4.28,0,0,0,2.51,1.17v-3.56c-1.93-.43-2.73-1.14-2.73-2.42a2.51,2.51,0,0,1,2.68-2.32h0v-.5a.31.31,0,0,1,.25-.38Zm-.27,4.82v-3.5c-1.25,0-2.07.77-2.07,1.6s.41,1.56,2.07,2Zm.56.78v3.54a1.89,1.89,0,0,0,2.12-1.74c0-1-.45-1.36-2.12-1.78Z" fill="#aac8f9"/><path d="M437.88,191.76l-1.28.76h-.15a.3.3,0,0,1-.27-.16.29.29,0,0,1,.08-.4l0,0,1.73-1.06a.34.34,0,0,1,.44.13.29.29,0,0,1,0,.22v8.25a.31.31,0,1,1-.61,0Z" fill="#aac8f9"/><path d="M441.7,198.55a.65.65,0,0,1,.64.65.64.64,0,0,1-1.28,0A.65.65,0,0,1,441.7,198.55Z" fill="#aac8f9"/><path d="M443.85,198.89a.31.31,0,0,1,0-.43l0,0a.35.35,0,0,1,.47,0,2.41,2.41,0,0,0,3.4-3.42,2.47,2.47,0,0,0-1.7-.69,2.41,2.41,0,0,0-1.7.71.32.32,0,0,1-.44,0v0a.19.19,0,0,1-.08-.1h0a.2.2,0,0,1,0-.11h0l.43-3.61a.33.33,0,0,1,.32-.31h4.19a.32.32,0,0,1,.32.33.33.33,0,0,1-.32.32h-3.92l-.32,2.66a3,3,0,0,1,3.68.47,3.08,3.08,0,0,1,0,4.31,3.16,3.16,0,0,1-2.15.89A3.09,3.09,0,0,1,443.85,198.89Z" fill="#aac8f9"/><path d="M451.55,195.34a5.7,5.7,0,0,1,.87-3.13,2.55,2.55,0,0,1,3.46-1,2.52,2.52,0,0,1,1,1,6.15,6.15,0,0,1,0,6.28,2.57,2.57,0,0,1-3.46,1,2.6,2.6,0,0,1-1-1A5.74,5.74,0,0,1,451.55,195.34Zm.65,0a5,5,0,0,0,.75,2.8,2.16,2.16,0,0,0,1.72,1.07,2.24,2.24,0,0,0,1.72-1.07,5.45,5.45,0,0,0,0-5.57,2.14,2.14,0,0,0-1.72-1.08,2.08,2.08,0,0,0-1.72,1.08,5,5,0,0,0-.82,2.77Z" fill="#aac8f9"/><rect x="241.65" y="216.72" width="70.54" height="70.54" fill="#e9f0fc"/><path d="M296.54,246.05v34.79c0,2.15-4.33,3.39-18.87,3.39s-18.86-1.24-18.86-3.39V246.05c0-9.28,10.24-15.33,10.24-17.13v-7H286.3v7C286.3,230.72,296.54,236.77,296.54,246.05Z" fill="#d2e1f9"/><rect x="268.09" y="218.7" width="19.2" height="5.86" fill="#251860"/><rect x="258.81" y="255.24" width="37.73" height="18.81" fill="#aac8f9"/><path d="M263.35,293.59a.31.31,0,0,1,.32.3v.51a4.19,4.19,0,0,1,2.28.9.39.39,0,0,1,.18.31.34.34,0,0,1-.36.31.34.34,0,0,1-.2-.09,3.73,3.73,0,0,0-1.93-.83v3.59c2,.42,2.78,1.14,2.78,2.41a2.54,2.54,0,0,1-2.68,2.38h-.07v1a.32.32,0,0,1-.32.31.32.32,0,0,1-.3-.31v-1a4.78,4.78,0,0,1-2.89-1.25.37.37,0,0,1-.13-.28.34.34,0,0,1,.32-.32.33.33,0,0,1,.23.1,4.14,4.14,0,0,0,2.5,1.17v-3.66c-1.93-.43-2.73-1.12-2.73-2.41a2.5,2.5,0,0,1,2.67-2.32h0v-.5A.31.31,0,0,1,263.35,293.59Zm-.27,4.81v-3.5c-1.25,0-2.07.77-2.07,1.61s.42,1.57,2.07,2Zm.56.79v3.54a1.88,1.88,0,0,0,2.12-1.75c0-1-.45-1.34-2.12-1.71Z" fill="#aac8f9"/><path d="M273.5,295l-2.33,2.39a3,3,0,0,1,2.37,3.57,2.93,2.93,0,0,1-.85,1.56,3.2,3.2,0,0,1-2.15.9,3,3,0,0,1-2.15-.9.32.32,0,0,1,.07-.45.33.33,0,0,1,.38,0,2.47,2.47,0,0,0,1.7.69,2.43,2.43,0,0,0,1.7-.69,2.35,2.35,0,0,0,.71-1.71,2.41,2.41,0,0,0-2.41-2.4.3.3,0,0,1-.25-.12h0a.33.33,0,0,1,0-.47l2.23-2.29h-3.45a.33.33,0,0,1-.32-.33.32.32,0,0,1,.32-.32h4.2a.32.32,0,0,1,.32.32.38.38,0,0,1,0,.15Z" fill="#aac8f9"/><path d="M276.88,302.11a.61.61,0,0,1,.64.61v0a.64.64,0,0,1-.64.64.64.64,0,0,1-.64-.64.62.62,0,0,1,.61-.64Z" fill="#aac8f9"/><path d="M278.79,298.9a5.77,5.77,0,0,1,.87-3.21,2.56,2.56,0,0,1,3.46-1,2.52,2.52,0,0,1,1,1,5.94,5.94,0,0,1,.87,3.21,5.87,5.87,0,0,1-.87,3.13,2.53,2.53,0,0,1-4.49,0A5.7,5.7,0,0,1,278.79,298.9Zm.64,0a5,5,0,0,0,.76,2.77,2.1,2.1,0,0,0,1.72,1.08,2.17,2.17,0,0,0,1.7-1.14,5.45,5.45,0,0,0,0-5.57,2.11,2.11,0,0,0-1.72-1.07,2.07,2.07,0,0,0-1.72,1.07,5.15,5.15,0,0,0-.82,2.86Z" fill="#aac8f9"/><path d="M287.83,298.9a5.77,5.77,0,0,1,.87-3.21,2.54,2.54,0,0,1,3.45-1,2.6,2.6,0,0,1,1,1,5.94,5.94,0,0,1,.87,3.21,5.87,5.87,0,0,1-.87,3.13,2.53,2.53,0,0,1-4.49,0A5.7,5.7,0,0,1,287.83,298.9Zm.64,0a5,5,0,0,0,.76,2.77,2.09,2.09,0,0,0,1.71,1.08,2.14,2.14,0,0,0,1.72-1.08,5.41,5.41,0,0,0,0-5.57,2.12,2.12,0,0,0-1.72-1.07,2,2,0,0,0-1.71,1.07,5.08,5.08,0,0,0-.81,2.8Z" fill="#aac8f9"/><rect x="325.05" y="216.72" width="70.54" height="70.54" fill="#e9f0fc"/><rect x="345.98" y="232" width="29.44" height="52.15" fill="#fff"/><rect x="345.98" y="232" width="29.44" height="52.15" fill="#d2e1f9"/><rect x="345.98" y="251.28" width="29.44" height="21.91" fill="#aac8f9"/><polygon points="375.41 232 345.99 232 349.64 224.83 371.74 224.83 375.41 232" fill="#fff"/><polygon points="375.41 232 345.99 232 349.64 224.83 371.74 224.83 375.41 232" fill="#aac8f9"/><rect x="349.59" y="218.78" width="22.15" height="6.05" fill="#251860"/><path d="M347.05,293.59a.32.32,0,0,1,.31.3v.51a4.25,4.25,0,0,1,2.28.9.38.38,0,0,1,.19.31.34.34,0,0,1-.35.32.34.34,0,0,1-.23-.1,3.71,3.71,0,0,0-1.91-.83v3.59c1.94.42,2.76,1.14,2.76,2.41a2.53,2.53,0,0,1-2.68,2.38h-.06v1a.31.31,0,0,1-.31.31.3.3,0,0,1-.3-.31h0v-1a4.78,4.78,0,0,1-2.89-1.25.35.35,0,0,1-.15-.28.36.36,0,0,1,.33-.32.32.32,0,0,1,.22.1,4.17,4.17,0,0,0,2.5,1.17v-3.66c-1.92-.43-2.71-1.12-2.71-2.41a2.49,2.49,0,0,1,2.64-2.33h.06v-.5A.31.31,0,0,1,347.05,293.59Zm-.29,4.81v-3.5a1.86,1.86,0,0,0-2.05,1.61c0,1,.4,1.57,2.05,2Zm.58.79v3.54a1.87,1.87,0,0,0,2.1-1.75c0-1-.44-1.34-2.1-1.71Z" fill="#aac8f9"/><path d="M351.74,302.83l4.19-3.79a2.3,2.3,0,0,0-3.13-3.37l-.43.4a.31.31,0,1,1-.44-.45h0l.45-.41a3,3,0,0,1,2-.76,3,3,0,0,1,2.92,2.92,3,3,0,0,1-1,2.19l-3.6,3.21H357a.32.32,0,0,1,.32.32.33.33,0,0,1-.32.32h-5.06a.31.31,0,0,1-.24-.1.33.33,0,0,1,0-.47Z" fill="#aac8f9"/><path d="M360.31,302.11a.62.62,0,0,1,.64.61v0a.62.62,0,0,1-.61.64h0a.64.64,0,0,1-.64-.64.62.62,0,0,1,.61-.64Z" fill="#aac8f9"/><path d="M362.48,302.49a.29.29,0,0,1,0-.43l0,0a.34.34,0,0,1,.46,0,2.28,2.28,0,0,0,3.31,0,2.45,2.45,0,0,0,.71-1.7,2.41,2.41,0,0,0-4.1-1.7.33.33,0,0,1-.45,0,.21.21,0,0,1-.08-.11h0v-.1h0l.44-3.63a.25.25,0,0,1,.12-.22.25.25,0,0,1,.21-.08h4.19a.32.32,0,0,1,.32.32.3.3,0,0,1-.28.32h-3.95l-.33,2.67a3,3,0,0,1,1.61-.41,3,3,0,0,1,3,3,3,3,0,0,1-.9,2.15,3.09,3.09,0,0,1-2.15.9A3,3,0,0,1,362.48,302.49Z" fill="#aac8f9"/><path d="M370.18,298.9a5.76,5.76,0,0,1,.85-3.21,2.55,2.55,0,0,1,4.5,0,6.15,6.15,0,0,1,0,6.34,2.8,2.8,0,0,1-2.25,1.36A2.85,2.85,0,0,1,371,302,5.68,5.68,0,0,1,370.18,298.9Zm.63,0a5,5,0,0,0,.75,2.77,1.91,1.91,0,0,0,3.44,0,5.45,5.45,0,0,0,0-5.57,1.93,1.93,0,0,0-2.56-.88,2,2,0,0,0-.88.88A5,5,0,0,0,370.81,298.9Z" fill="#aac8f9"/><rect x="408.44" y="216.72" width="70.54" height="70.54" fill="#e9f0fc"/><path d="M457.3,246.05v34.79c0,2.15-3.11,3.39-13.59,3.39s-13.58-1.24-13.58-3.39V246.05c0-9.28,7.38-15.33,7.38-17.13v-7h12.41v7C449.92,230.72,457.3,236.77,457.3,246.05Z" fill="#d2e1f9"/><rect x="436.8" y="218.7" width="13.82" height="5.86" fill="#251860"/><rect x="434" y="257.91" width="19.45" height="13.47" fill="#aac8f9"/><path d="M429.52,293.59a.31.31,0,0,1,.32.3v.51a4.25,4.25,0,0,1,2.28.9.38.38,0,0,1,.17.31.34.34,0,0,1-.36.31.4.4,0,0,1-.2-.09,3.69,3.69,0,0,0-1.92-.83v3.59c1.95.42,2.77,1.14,2.77,2.41a2.53,2.53,0,0,1-2.68,2.38h-.06v1a.32.32,0,0,1-.63,0v-1a4.83,4.83,0,0,1-2.89-1.25.33.33,0,0,1-.12-.28.33.33,0,0,1,.32-.32.32.32,0,0,1,.22.1,4.17,4.17,0,0,0,2.5,1.17v-3.66c-1.92-.43-2.72-1.12-2.72-2.41a2.49,2.49,0,0,1,2.66-2.32h0v-.5A.32.32,0,0,1,429.52,293.59Zm-.28,4.81v-3.5c-1.25,0-2.07.77-2.07,1.61s.42,1.57,2.07,2Zm.57.79v3.54a1.89,1.89,0,0,0,2.12-1.75c0-1-.45-1.34-2.12-1.71Z" fill="#aac8f9"/><path d="M434.22,302.83l4.19-3.79a2.3,2.3,0,0,0-1.55-4,2.35,2.35,0,0,0-1.55.6l-.45.4a.3.3,0,0,1-.43,0,.29.29,0,0,1,0-.43h0l.43-.42a3,3,0,0,1,2-.76,2.94,2.94,0,0,1,2,5.11l-3.58,3.21h4.23a.32.32,0,0,1,0,.64h-5a.29.29,0,0,1-.23-.1A.33.33,0,0,1,434.22,302.83Z" fill="#aac8f9"/><path d="M442.79,302.11a.62.62,0,0,1,.64.61v0a.65.65,0,0,1-.64.65.64.64,0,0,1-.64-.64h0a.62.62,0,0,1,.61-.64Z" fill="#aac8f9"/><path d="M444.62,298.9a5.77,5.77,0,0,1,.87-3.21,2.55,2.55,0,0,1,3.45-1,2.6,2.6,0,0,1,1,1,5.94,5.94,0,0,1,.87,3.21A5.87,5.87,0,0,1,450,302a2.53,2.53,0,0,1-4.49,0A5.7,5.7,0,0,1,444.62,298.9Zm.64,0a5,5,0,0,0,.76,2.77,1.9,1.9,0,0,0,3.43,0,5.41,5.41,0,0,0,0-5.57,1.91,1.91,0,0,0-3.43,0A5.11,5.11,0,0,0,445.26,298.9Z" fill="#aac8f9"/><path d="M453.74,298.9a5.85,5.85,0,0,1,.86-3.21,2.56,2.56,0,0,1,3.46-1,2.6,2.6,0,0,1,1,1,5.85,5.85,0,0,1,.86,3.21,5.77,5.77,0,0,1-.86,3.13,2.55,2.55,0,0,1-4.5,0A5.77,5.77,0,0,1,453.74,298.9Zm.64,0a5.09,5.09,0,0,0,.75,2.77,2.12,2.12,0,0,0,1.72,1.08,2.17,2.17,0,0,0,1.7-1.14,5.41,5.41,0,0,0,0-5.57,2.09,2.09,0,0,0-1.72-1.07,2,2,0,0,0-1.71,1.07A5,5,0,0,0,454.38,298.9Z" fill="#aac8f9"/><rect x="241.65" y="348.88" width="70.54" height="70.54" fill="#e9f0fc"/><path d="M260.64,385.28c0,12.37,5,31.71,5.54,31.71H287c.6,0,7.75-16.61,7.75-33.24,0-17.35-12-20.32-12-21.52v-6.66H270.53v6.66C270.46,363.43,260.64,369.9,260.64,385.28ZM283.9,368c6,0,10.83,16.21,6.42,17.79C284.14,388,278.41,368,283.9,368Z" fill="#d2e1f9"/><path d="M278.1,368c.34-4.14-8.81-3.21-12.63,10.39-2.9,10.3.39,31.57,10.66,31.57,12.26,0,13-18,12.21-18.77S276.58,386.67,278.1,368Z" fill="#aac8f9"/><polygon points="267.89 359.37 285.15 359.37 283.96 351.77 269.07 351.77 267.89 359.37" fill="#251860"/><path d="M263.38,428.4a.32.32,0,0,1,.33.29v.53a4.19,4.19,0,0,1,2.27.9.33.33,0,0,1,.18.29.32.32,0,0,1-.32.32h0a.35.35,0,0,1-.22-.08,3.44,3.44,0,0,0-1.93-.83v3.58c2,.41,2.78,1.15,2.78,2.4a2.53,2.53,0,0,1-2.65,2.39h-.09v1a.31.31,0,0,1-.31.31h0a.31.31,0,0,1-.3-.31h0v-1a4.8,4.8,0,0,1-2.89-1.25.32.32,0,0,1-.13-.26.33.33,0,0,1,.32-.32h0a.36.36,0,0,1,.23.08,4.1,4.1,0,0,0,2.5,1.18v-3.66c-1.92-.42-2.73-1.13-2.73-2.41a2.53,2.53,0,0,1,2.7-2.33v-.48a.31.31,0,0,1,.3-.31Zm-.27,4.82v-3.5a1.85,1.85,0,0,0-2.07,1.7C261,432.35,261.46,432.88,263.11,433.22Zm.56.79v3.54a1.88,1.88,0,0,0,2.12-1.75c0-1-.45-1.38-2.12-1.75Z" fill="#aac8f9"/><path d="M268.28,437.3a.31.31,0,0,1,0-.43l0,0a.33.33,0,0,1,.47,0,2.48,2.48,0,0,0,1.7.69,2.4,2.4,0,1,0-1.78-4.1h0a.31.31,0,0,1-.44,0v0a.18.18,0,0,1-.08-.11h0v-.09h0l.43-3.63a.28.28,0,0,1,.13-.23.3.3,0,0,1,.21-.08h4.17a.32.32,0,0,1,.32.32h0a.31.31,0,0,1-.29.33h-3.95l-.32,2.66a3.23,3.23,0,0,1,1.61-.4,3,3,0,0,1,3,3h0a3,3,0,0,1-.88,2.17,3.08,3.08,0,0,1-4.32,0Z" fill="#aac8f9"/><path d="M276.85,436.9a.62.62,0,0,1,.64.6v0a.64.64,0,0,1-.64.64.64.64,0,0,1-.64-.64.61.61,0,0,1,.61-.64Z" fill="#aac8f9"/><path d="M278.68,433.69a5.75,5.75,0,0,1,.87-3.21,2.55,2.55,0,0,1,4.49,0,5.92,5.92,0,0,1,.87,3.21,5.84,5.84,0,0,1-.87,3.12,2.52,2.52,0,0,1-4.49,0A5.64,5.64,0,0,1,278.68,433.69Zm.64,0a5.1,5.1,0,0,0,.76,2.79,2.14,2.14,0,0,0,1.71,1.07,2.18,2.18,0,0,0,1.72-1.07,5.44,5.44,0,0,0,0-5.59,2.16,2.16,0,0,0-1.72-1.07,2.11,2.11,0,0,0-1.71,1.07,5.11,5.11,0,0,0-.76,2.8Z" fill="#aac8f9"/><path d="M287.8,433.69a5.82,5.82,0,0,1,.86-3.21,2.55,2.55,0,0,1,4.5,0,5.82,5.82,0,0,1,.86,3.21,5.74,5.74,0,0,1-.86,3.12,2.54,2.54,0,0,1-3.43,1.08,2.59,2.59,0,0,1-1.07-1.08A5.72,5.72,0,0,1,287.8,433.69Zm.64,0a5.18,5.18,0,0,0,.75,2.79,2.16,2.16,0,0,0,1.72,1.07,2.21,2.21,0,0,0,1.72-1.07,5.44,5.44,0,0,0,0-5.59,2.16,2.16,0,0,0-1.72-1.07,2.13,2.13,0,0,0-1.72,1.07,5.21,5.21,0,0,0-.77,2.8Z" fill="#aac8f9"/><rect x="325.05" y="348.88" width="70.54" height="70.54" fill="#e9f0fc"/><rect x="332.9" y="367.21" width="55.26" height="39.26" rx="7.32" fill="#d2e1f9"/><rect x="339.16" y="362.29" width="42.72" height="4.91" fill="#251860"/><rect x="332.9" y="376.72" width="55.61" height="20.21" fill="#aac8f9"/><path d="M377.37,386.84c0,4.7-7.54,8.5-16.85,8.5s-16.85-3.8-16.85-8.5,7.54-8.51,16.85-8.51S377.37,382.13,377.37,386.84Z" fill="#e9f0fc"/><path d="M346.57,428.4a.31.31,0,0,1,.32.29v.53a4.22,4.22,0,0,1,2.28.9.32.32,0,0,1,.15.43.31.31,0,0,1-.31.18.35.35,0,0,1-.22-.08,3.47,3.47,0,0,0-1.93-.83v3.58c2,.41,2.78,1.15,2.78,2.4a2.54,2.54,0,0,1-2.69,2.38h-.06v1a.3.3,0,0,1-.3.31h0a.3.3,0,0,1-.3-.31h0v-1a4.78,4.78,0,0,1-2.89-1.25.34.34,0,0,1-.15-.26.34.34,0,0,1,.32-.32.38.38,0,0,1,.24.08,4.13,4.13,0,0,0,2.51,1.18v-3.66c-1.93-.42-2.73-1.13-2.73-2.41a2.52,2.52,0,0,1,2.7-2.33v-.48a.3.3,0,0,1,.3-.31Zm-.27,4.82v-3.5a1.85,1.85,0,0,0-2.07,1.7C344.23,432.35,344.6,432.88,346.3,433.22Zm.56.79v3.54A1.89,1.89,0,0,0,349,435.8c0-1-.45-1.38-2.12-1.75Z" fill="#aac8f9"/><path d="M356.43,436.33h-4.92a.29.29,0,0,1-.31-.26.28.28,0,0,1,.09-.23l5.2-6.42h0a.29.29,0,0,1,.41,0l0,0a.34.34,0,0,1,.1.16h0v6.19h.61a.32.32,0,0,1,.14.63.33.33,0,0,1-.14,0H357V438a.32.32,0,0,1-.63,0Zm0-.62v-5.25l-4.26,5.25Z" fill="#aac8f9"/><path d="M360.79,436.9a.62.62,0,0,1,.64.6v0a.64.64,0,0,1-.64.64.64.64,0,0,1-.64-.64.61.61,0,0,1,.61-.64Z" fill="#aac8f9"/><path d="M362.94,437.3a.31.31,0,0,1,0-.43l0,0a.33.33,0,0,1,.47,0,2.49,2.49,0,0,0,1.7.69,2.4,2.4,0,1,0-1.7-4.1h0a.29.29,0,0,1-.43,0l0,0a.23.23,0,0,1-.08-.11h0v-.09h0l.43-3.63a.28.28,0,0,1,.13-.23.32.32,0,0,1,.21-.08h4.17a.3.3,0,0,1,.32.29v0a.31.31,0,0,1-.29.33h-4l-.32,2.66a3.2,3.2,0,0,1,1.6-.4,3,3,0,0,1,3,3h0a3,3,0,0,1-.88,2.17,3.08,3.08,0,0,1-4.32,0Z" fill="#aac8f9"/><path d="M370.65,433.69a5.82,5.82,0,0,1,.86-3.21,2.55,2.55,0,0,1,4.5,0,5.82,5.82,0,0,1,.86,3.21,5.74,5.74,0,0,1-.86,3.12,2.54,2.54,0,0,1-3.43,1.08,2.59,2.59,0,0,1-1.07-1.08A5.72,5.72,0,0,1,370.65,433.69Zm.64,0a5.18,5.18,0,0,0,.75,2.79,1.92,1.92,0,0,0,2.56.88,2,2,0,0,0,.88-.88,5.44,5.44,0,0,0,0-5.59,1.92,1.92,0,0,0-2.56-.88,2,2,0,0,0-.88.88,5.19,5.19,0,0,0-.75,2.8Z" fill="#aac8f9"/><rect x="408.44" y="348.88" width="70.54" height="70.54" fill="#e9f0fc"/><path d="M460.46,393.56v18.79H427V393.56c0-6.56,1.6-23.82,16.75-23.82S460.46,387,460.46,393.56Z" fill="#d2e1f9"/><path d="M461.43,414.79H426a1.71,1.71,0,0,1-1.72-1.71h0a1.7,1.7,0,0,1,1.7-1.7h35.43a1.7,1.7,0,0,1,1.7,1.7h0A1.71,1.71,0,0,1,461.43,414.79Z" fill="#aac8f9"/><rect x="438.43" y="365.91" width="10.56" height="8.09" fill="#d2e1f9"/><rect x="437.19" y="362.01" width="13.03" height="5.23" fill="#251860"/><rect x="441.33" y="356.87" width="4.75" height="6.03" fill="#251860"/><path d="M438.7,354.72a2.26,2.26,0,0,0,.14,4c1.61.95,10.18-1.15,11.09-1.06s3,1.06,3.33,1.06,1.23-.48,1.18-.91a11.17,11.17,0,0,0-5.18-3.1C447,354.16,440.53,353.32,438.7,354.72Z" fill="#251860"/><path d="M429.94,428.4a.32.32,0,0,1,.32.29v.53a4.25,4.25,0,0,1,2.28.9.34.34,0,0,1,.17.29.32.32,0,0,1-.32.32h0a.35.35,0,0,1-.22-.08,3.44,3.44,0,0,0-1.93-.83v3.58c2,.41,2.78,1.15,2.78,2.4a2.53,2.53,0,0,1-2.65,2.39h-.09v1a.31.31,0,0,1-.31.31h0a.31.31,0,0,1-.31-.31h0v-1a4.8,4.8,0,0,1-2.89-1.25.32.32,0,0,1-.13-.26.33.33,0,0,1,.32-.32h0a.36.36,0,0,1,.23.08,4.1,4.1,0,0,0,2.5,1.18v-3.66c-1.92-.42-2.73-1.13-2.73-2.41a2.53,2.53,0,0,1,2.7-2.33v-.48a.31.31,0,0,1,.3-.31Zm-.28,4.82v-3.5a1.85,1.85,0,0,0-2.07,1.7C427.59,432.35,428.06,432.88,429.66,433.22Zm.56.79v3.54a1.88,1.88,0,0,0,2.12-1.75c0-1-.45-1.38-2.12-1.75Z" fill="#aac8f9"/><path d="M440.08,429.75l-2.39,2.39a3.08,3.08,0,0,1,1.6.82,3,3,0,0,1,.88,2.17,3,3,0,0,1-5.16,2.18l0,0a.32.32,0,0,1,.45-.45,2.43,2.43,0,0,0,1.71.69,2.47,2.47,0,0,0,1.7-.69,2.36,2.36,0,0,0,.7-1.7,2.4,2.4,0,0,0-2.4-2.41.32.32,0,0,1-.26-.13h0a.32.32,0,0,1,0-.46l2.23-2.3h-3.45a.32.32,0,0,1,0-.64h4.2a.32.32,0,0,1,.32.32h0a.38.38,0,0,1,0,.15Z" fill="#aac8f9"/><path d="M443.47,436.9a.62.62,0,0,1,.64.6v0a.65.65,0,0,1-1.29,0h0a.62.62,0,0,1,.61-.64Z" fill="#aac8f9"/><path d="M445.62,437.3a.29.29,0,0,1,0-.43l0,0a.32.32,0,0,1,.46,0,2.51,2.51,0,0,0,1.7.69,2.44,2.44,0,0,0,1.61-.71,2.4,2.4,0,0,0-3.39-3.39.29.29,0,0,1-.43,0l0,0a.31.31,0,0,1-.08-.11h0v-.09h0l.43-3.63a.28.28,0,0,1,.13-.23.32.32,0,0,1,.21-.08h4.29a.33.33,0,0,1,.32.32h0a.31.31,0,0,1-.29.33h-3.95l-.32,2.66a3.2,3.2,0,0,1,1.6-.4,3,3,0,0,1,3,3h0a3,3,0,0,1-.88,2.17,3.08,3.08,0,0,1-4.32,0Z" fill="#aac8f9"/><path d="M453.32,433.69a5.75,5.75,0,0,1,.87-3.21,2.55,2.55,0,0,1,4.49,0,5.92,5.92,0,0,1,.87,3.21,5.84,5.84,0,0,1-.87,3.12,2.52,2.52,0,0,1-4.49,0A5.64,5.64,0,0,1,453.32,433.69Zm.64,0a5.1,5.1,0,0,0,.76,2.79,2.15,2.15,0,0,0,1.71,1.07,2.18,2.18,0,0,0,1.72-1.07,5.44,5.44,0,0,0,0-5.59,2.16,2.16,0,0,0-1.72-1.07,2.11,2.11,0,0,0-1.71,1.07,5.11,5.11,0,0,0-.76,2.8Z" fill="#aac8f9"/><rect x="283.77" y="501.95" width="153.85" height="41.62" fill="#aac8f9" stroke="#6259b0" stroke-miterlimit="10"/><path d="M307.43,525.6H303l-.9,2.38a1,1,0,1,1-1.91-.68l4-10.77a1.06,1.06,0,0,1,1.4-.54,1,1,0,0,1,.54.54l4,10.77a.89.89,0,0,1-.94,1.32,1,1,0,0,1-.94-.64Zm-.74-2-1.5-3.94-1.47,3.94Z" fill="#fff"/><path d="M312.71,527.61V516.84a1,1,0,0,1,1-1h2.15a6.42,6.42,0,1,1,0,12.84h-2.15a1,1,0,0,1-1-1Zm2-1h1.13a4.37,4.37,0,0,0,0-8.73h-1.13Z" fill="#fff"/><path d="M325.34,527.61V516.84a1,1,0,0,1,1-1h2.23a6.42,6.42,0,1,1,0,12.84H326.3a1,1,0,0,1-1-1Zm2-1h1.19a4.37,4.37,0,0,0,0-8.73h-1.14Z" fill="#fff"/><path d="M351.74,517.87h-2.91v9.74a1,1,0,1,1-2,.25,1,1,0,0,1,0-.25v-9.74h-2.89a1,1,0,0,1-1-1,1,1,0,0,1,1-1h7.8a1,1,0,0,1,1,1h0A1,1,0,0,1,351.74,517.87Z" fill="#fff"/><path d="M364.84,517.42a6.71,6.71,0,0,1,0,9.24,6,6,0,0,1-4.37,2,6.19,6.19,0,0,1-4.48-2,6.83,6.83,0,0,1,0-9.24,6.09,6.09,0,0,1,4.48-1.94A5.89,5.89,0,0,1,364.84,517.42Zm-.23,4.62a4.71,4.71,0,0,0-1.25-3.21,3.93,3.93,0,0,0-5.55-.29l-.29.29a4.61,4.61,0,0,0-1.25,3.21,4.55,4.55,0,0,0,1.25,3.21,3.9,3.9,0,0,0,5.5.34l.34-.34A4.61,4.61,0,0,0,364.61,522Z" fill="#fff"/><path d="M375.2,522a6.69,6.69,0,0,1,6.71-6.56,6.89,6.89,0,0,1,4.22,1.41,1,1,0,0,1-.2,1.48,1,1,0,0,1-1.08.12,4.55,4.55,0,0,0-2.94-1,4.86,4.86,0,0,0-3.29,1.32,4.53,4.53,0,0,0-1.33,3.21,4.47,4.47,0,0,0,1.33,3.21,4.8,4.8,0,0,0,3.29,1.31,4.58,4.58,0,0,0,2.94-1,1.11,1.11,0,0,1,1.46.19,1.06,1.06,0,0,1-.18,1.46,6.77,6.77,0,0,1-4.22,1.43A6.68,6.68,0,0,1,375.2,522Z" fill="#fff"/><path d="M396.1,525.6h-4.43l-.9,2.38a1,1,0,0,1-.94.64,1.09,1.09,0,0,1-.36,0,1,1,0,0,1-.59-1.32l4-10.77a1.05,1.05,0,0,1,1.39-.54,1,1,0,0,1,.55.54l4,10.77a.89.89,0,0,1-.95,1.32A1,1,0,0,1,397,528Zm-.74-2-1.49-3.94-1.48,3.94Z" fill="#fff"/><path d="M409.84,527.11a1,1,0,0,1-.59,1.26h0a1.34,1.34,0,0,1-.4,0h0a1.33,1.33,0,0,1-.7-.21,1.62,1.62,0,0,1-.58-.64,4.82,4.82,0,0,1-.39-2.18,1.47,1.47,0,0,0-.22-.79,1.55,1.55,0,0,0-.55-.53,3.87,3.87,0,0,0-1-.45H403.2v4a1,1,0,0,1-1,1,1,1,0,0,1-1-1h0V516.84a1,1,0,0,1,1-1h3.23a3.91,3.91,0,0,1,2.49,6.93,3.19,3.19,0,0,1,.64.68,3.53,3.53,0,0,1,.59,2,3.91,3.91,0,0,0,0,1.08A.93.93,0,0,1,409.84,527.11Zm-2.55-7.35a1.88,1.88,0,0,0-1.86-1.89h-2.27v3.75h2.25a1.86,1.86,0,0,0,1.88-1.84Z" fill="#fff"/><path d="M420.27,517.87h-2.9v9.74a1,1,0,0,1-1,1,1,1,0,0,1-1-1v-9.74h-2.89a1,1,0,0,1-1-1h0a1,1,0,0,1,1-1h7.83a1,1,0,0,1,1,1A1,1,0,0,1,420.27,517.87Z" fill="#fff"/><path d="M161.08,502.71a440.75,440.75,0,0,0-.64-46.55,592.53,592.53,0,0,0-14.61-95c-4.06-17.56-9.08-34.83-14.3-52.08-.16-.53-1-.39-.85.16,16.17,60.83,29.41,123.58,28.49,186.82-.24,17.65-2.29,35.07-4,52.66,0,.46.74.66.84.18C159.37,533.84,160.46,518.08,161.08,502.71Z" fill="#aac8f9"/><path d="M130.68,309.26s-24.46,62.11-19,76.71,16.77,17.66,16.77,17.66-15,21.41-4.51,41.46,35.81,19.59,37.41,42.32C161.31,487.41,160.5,391.88,130.68,309.26Z" fill="#aac8f9" stroke="#6259b0" stroke-miterlimit="10"/><path d="M156.56,447.67a.44.44,0,0,0,0-.32,569.6,569.6,0,0,0-23.82-125c0-.11-.23-.08-.19,0q7.26,27.28,12.84,54.8a27,27,0,0,0-11.67-6.52c-.1,0-.13.1,0,.13a30.88,30.88,0,0,1,12.05,8q1.08,5.42,2.09,10.82c-5.48-6.11-13.05-9.15-20.64-12a.1.1,0,0,0,0,.13.08.08,0,0,0,0,.05C135.11,381,143,385.14,148.35,392q2.81,15.46,4.92,31a29.77,29.77,0,0,0-14.59-8.37c-.18,0-.28.21-.1.26a30.79,30.79,0,0,1,14.8,9.49h.09q.74,5.44,1.38,11a37.37,37.37,0,0,0-10.22-6.17m0,.15a35,35,0,0,1,10.24,6.79H155c.4,3.48.8,7,1.15,10.45a49.79,49.79,0,0,0-20.75-14.83.14.14,0,0,0-.15.14.14.14,0,0,0,0,.11,54,54,0,0,1,20.47,15.75.46.46,0,0,0,.51.16q.8,8,1.4,16.05a.06.06,0,1,0,.12,0c-.4-5.35-.83-10.77-1.26-16.26Z" fill="#251860"/><path d="M136.9,364.56A30.86,30.86,0,0,0,122.19,360a.1.1,0,0,0,0,.2A58.56,58.56,0,0,1,136.73,365,.25.25,0,0,0,136.9,364.56Z" fill="#251860"/><path d="M139.86,430.32a30.67,30.67,0,0,0-11-3.77c-.13,0-.14.18,0,.21a41.57,41.57,0,0,1,10.92,3.82C139.88,430.66,140,430.4,139.86,430.32Z" fill="#251860"/><path d="M225.41,387a166.52,166.52,0,0,0-28.33,24.75,101.75,101.75,0,0,0-19.87,33.7,251.9,251.9,0,0,0-14.8,80.51,196.52,196.52,0,0,0,4.37,45.31.43.43,0,0,0,.85-.16,253.82,253.82,0,0,1,.42-79.16c4.2-25.68,10.8-53.64,27.14-74.52,8.89-11.38,20-20.32,30.94-29.56C226.73,387.35,226,386.55,225.41,387Z" fill="#aac8f9"/><path d="M163.9,508.21c5.89-9.53,14.93-19.12,22.77-27.12,12.24-12.25,22.55-20.95,24.07-29S198.48,438,198.48,438s17,3.05,21.59-4.06,6.87-48.29,6.87-48.29-31.89,19.89-46.26,50.74S163.9,508.21,163.9,508.21Z" fill="#aac8f9" stroke="#6259b0" stroke-miterlimit="10"/><path d="M216.33,396.2c-13,12.73-26,26.3-33.71,43a166.19,166.19,0,0,0-6.74,17.68h0c-.4,1.22-.79,2.43-1.17,3.65a.34.34,0,0,0,0,.2A344.26,344.26,0,0,0,166,498.82c0,.08.11.11.12,0,1.34-6.42,2.8-12.84,4.43-19.37h.18a27.52,27.52,0,0,1,8-2.05c.19,0,.17-.34,0-.33a30.08,30.08,0,0,0-8,1.46c1.49-5.82,3.11-11.65,4.94-17.38a85.92,85.92,0,0,1,18.27-2.39v-.1a69.19,69.19,0,0,0-18,1.53l1-2.94a96.36,96.36,0,0,1,12.17-2.07v-.13a59.67,59.67,0,0,0-11.91,1.45c1.6-5,3.5-9.86,5.5-14.61a87.85,87.85,0,0,1,5.83-11.23,74.74,74.74,0,0,1,9.85-1.77c.1,0,.08-.16,0-.16a26.83,26.83,0,0,0-9.22.92c1.6-2.62,3.32-5.19,5.15-7.68h0c6.9-1.52,13.91-3,21-1.6.13,0,.18-.18,0-.21-6.72-1.78-13.4-.75-20.11.56.74-1,1.48-1.92,2.25-2.87a45.5,45.5,0,0,1,12.84-2m0-.14a33.75,33.75,0,0,0-12,1.07c5.72-7.09,12-13.77,18.27-20.36.43-.31.21-.45-.11-.18Z" fill="#251860"/><path d="M216,424.27a27.34,27.34,0,0,0-6.13-.21c-.24,0-.23.42,0,.43,2,0,4.06-.09,6.1,0a.12.12,0,0,0,.07-.16A.08.08,0,0,0,216,424.27Z" fill="#251860"/><path d="M193.81,464.22a27.57,27.57,0,0,0-9.5,1.89v.15c3.21-.76,6.3-1.06,9.47-1.61A.22.22,0,1,0,193.81,464.22Z" fill="#251860"/><path d="M187.16,450.5a20.31,20.31,0,0,0-4,.36.11.11,0,0,0-.11.12.11.11,0,0,0,.11.11,19.51,19.51,0,0,0,4-.18.21.21,0,0,0,.21-.21A.2.2,0,0,0,187.16,450.5Z" fill="#251860"/><path d="M75.68,430.66a139.89,139.89,0,0,1,28.65,13.5,85.52,85.52,0,0,1,23.85,22.66,212.26,212.26,0,0,1,30.61,61.77,165.51,165.51,0,0,1,6.93,37.69.36.36,0,0,1-.44.28.37.37,0,0,1-.28-.28,213.19,213.19,0,0,0-18.67-64c-9.34-19.69-21.14-40.85-39.19-54-9.82-7.14-20.87-11.83-31.86-16.77A.48.48,0,0,1,75.68,430.66Z" fill="#aac8f9"/><path d="M153.58,514c-7-6.35-16.6-11.4-24.79-16.08-12.74-7.07-23.1-11.73-26.26-17.91s6.68-14.2,6.68-14.2-13,6.42-18.39,1.68S74.09,430,74.09,430s31.19,9.6,50,31.26S153.58,514,153.58,514Z" fill="#aac8f9" stroke="#6259b0" stroke-miterlimit="10"/><path d="M150,507.7C135,479.51,115,454,87.51,437.17h0a137.77,137.77,0,0,1,20.11,15.73,31.83,31.83,0,0,0-16.15,3.41.09.09,0,0,0,0,.12l0,.05a44.13,44.13,0,0,1,16.68-2.77.54.54,0,0,0,.18,0c1,.91,1.94,1.86,2.89,2.8a49.88,49.88,0,0,0-8.62,1.14v.13a43.51,43.51,0,0,1,9.11-.75,184.4,184.4,0,0,1,14.16,16.05,14.08,14.08,0,0,0-6,.43.11.11,0,0,0-.11.11.11.11,0,0,0,.11.12,31.31,31.31,0,0,1,6.42-.08c.82,1,1.61,2.08,2.46,3.21a57.79,57.79,0,0,0-18.24,1.76m0,.15a73,73,0,0,1,18.72-1.22c.77,1,1.49,2.05,2.24,3.08a39.37,39.37,0,0,0-10.85,1.25.11.11,0,0,0-.14.06.12.12,0,0,0,.06.15h.08a41.6,41.6,0,0,1,11.24-.87c3.21,4.45,6.32,9,9.31,13.6a10.21,10.21,0,0,0-4.82.28v.13a21.78,21.78,0,0,1,5.16.26q4,6.22,7.73,12.6c.43.18,1,0,.8-.4Z" fill="#251860"/><path d="M126.67,484.31a23.06,23.06,0,0,0-8.73,1.08m0,.13a63.08,63.08,0,0,1,8.67-.9c.22,0,.25-.29.06-.31Z" fill="#251860"/><path d="M100.48,450a14.72,14.72,0,0,0-4,.22.12.12,0,0,0,0,.24c1.32-.14,2.63-.1,4-.13a.17.17,0,0,0,.18-.17A.18.18,0,0,0,100.48,450Z" fill="#251860"/><polygon points="190.32 607.67 122.55 607.67 132.21 536.88 134.68 518.72 178.19 518.72 180.65 536.88 190.32 607.67" fill="#aac8f9"/><g clip-path="url(#a44eea96-fa5f-44e4-9eb3-30723e8652b7)"><polygon points="180.65 536.88 132.21 536.88 134.68 518.72 178.19 518.72 180.65 536.88" fill="#d2e1f9"/></g><polygon points="190.32 607.67 122.55 607.67 132.21 536.88 134.68 518.72 178.19 518.72 180.65 536.88 190.32 607.67" fill="none" stroke="#6259b0" stroke-miterlimit="10"/><rect x="128.45" y="512.43" width="55.95" height="15.38" fill="#aac8f9" stroke="#6259b0" stroke-miterlimit="10"/><path d="M588.14,598.48s-4,9.22,4.35,14.94c0,0,14.68,7.81,30.87-2.67,0,0,7-5.52,10.29-11.62l15.44-24.39-1.53-7.62s-17.47,27.37-23.12,32.74C624.44,599.86,598.83,617.27,588.14,598.48Z" fill="#251860"/><path d="M647.56,567.12s-14.39,27.22-23.12,32.74c0,0-13.33,16.08-29.87,7.35,0,0-5.51-2.76-6.43-8.73l30.33-64.34s1.83-11.94,20.22-5.51c0,0,3.16,1,3.54,6.09Z" fill="#686175" data-primary="true" stroke="#351d66" stroke-miterlimit="10"/><path d="M621.22,515.76l1.84,19.76s10.11,2.76,14.25-3.67L636.39,513Z" fill="#f9c7a5" stroke="#351d66" stroke-miterlimit="10"/><path d="M673.85,384.53l27.43,56.23s-9.25,9.75-21.4-5.11l-33.31-31,12.16-16.66S667.1,385,673.85,384.53Z" fill="#686175" data-primary="true" stroke="#351d66" stroke-miterlimit="10"/><path d="M674,385.24l3.32-.44a5,5,0,0,1,5,2.6c4.82,9.12,19,36.12,24.07,46.71a3.08,3.08,0,0,1-1.56,4.15l-4.33,1.89Z" fill="#251860"/><path d="M652.47,384.8l9,5.39s.9,15.31-12.16,14.41l-3.15-2.25Z" fill="#f9c7a5" stroke="#351d66" stroke-miterlimit="10"/><path d="M582.46,247.87l-41.92,85c-4.35,8.82-4.22,19.4,1,27.72a30.81,30.81,0,0,0,12.12,10.91l91,37.22,7.81-23.89-61.58-45,34-40L628.12,280l-.46-31.24-40.5-2.57Z" fill="#f48225" data-secondary="true"/><g clip-path="url(#ed2b792c-cc85-4d3f-97ee-2eb8fb567667)"><path d="M577.11,258.43l40.9,7.35s-54.23,31.71-48.25,36.76l42.73-1.84s-46,33.09-40.44,35.85l11.49,2.29-11.15,7a47.14,47.14,0,0,0-12.58,11c-2.16,2.81-7.07,5.67-18.26,3.76,0,0,1.55,5.4,12.12,10.91l91,37.22,7.81-23.89-61.58-45,34-40L628.12,280l-.46-31.24-40.5-2.57-4.7,1.66Z" opacity="0.2"/></g><path d="M582.46,247.87l-41.92,85c-4.35,8.82-4.22,19.4,1,27.72a30.81,30.81,0,0,0,12.12,10.91l91,37.22,7.81-23.89-61.58-45,34-40L628.12,280l-.46-31.24-40.5-2.57Z" fill="none" stroke="#351d66" stroke-miterlimit="10"/><path d="M518.37,194.68c-2-1.88-5.57-6.94-3.89-17.83,0,0,2.68-10.74,10.95-11.69a6.86,6.86,0,0,1,5.7,2c2,2.05,4.27,6,3.54,13.32,0,0,.05,10.43-13.88,14.76A2.45,2.45,0,0,1,518.37,194.68Z" fill="#686175" data-primary="true" stroke="#351d66" stroke-miterlimit="10"/><path d="M627.66,248.78l.46,31.24L606.43,418.76a20.53,20.53,0,0,0-.2,4.7l6.42,86.36a7,7,0,0,0,4.66,6.12,27.47,27.47,0,0,0,22.41-2.12,7,7,0,0,0,3.62-6.06L644.61,425a20.58,20.58,0,0,1,1.23-6.72c6.38-17.52,36.63-101.39,45-136.2a52.34,52.34,0,0,0,.52-21.69l-6.68-36Z" fill="#f48225" data-secondary="true"/><g clip-path="url(#a6f6c618-d0cf-441b-a89d-94240dce8771)"><path d="M631.33,516.49l-6.13-87.85a15.62,15.62,0,0,1,.89-6.39l14.46-40.08a15.69,15.69,0,0,0-2.46-15.06l-.57-.71a14.12,14.12,0,0,1-.9-16.26l17.94-28.62a23.71,23.71,0,0,0,2.59-5.68l7.67-25.11a33.89,33.89,0,0,0-.06-20l-2.17-6.95L658.88,241l32.32-12.72,9.54,55.64L656.23,508S643.51,520.2,631.33,516.49Z" opacity="0.2"/></g><path d="M627.66,248.78l.46,31.24L606.43,418.76a20.53,20.53,0,0,0-.2,4.7l6.42,86.36a7,7,0,0,0,4.66,6.12,27.47,27.47,0,0,0,22.41-2.12,7,7,0,0,0,3.62-6.06L644.61,425a20.58,20.58,0,0,1,1.23-6.72c6.38-17.52,36.63-101.39,45-136.2a52.34,52.34,0,0,0,.52-21.69l-6.68-36Z" fill="none" stroke="#351d66" stroke-miterlimit="10"/><path d="M571.7,234.89s-3.59,6.08-1.38,7.46l12.14,5.52s3,2.21,4.7-1.66l.83-4.41S578.87,240.14,571.7,234.89Z" fill="#686175" data-primary="true" stroke="#351d66" stroke-miterlimit="10"/><path d="M674.68,234.89s5.8,9.39,9.11,8.56c0,0,21.81-13.53,26.78-24.57a4.92,4.92,0,0,0-1.66-5l-3-2.76Z" fill="#686175" data-primary="true" stroke="#351d66" stroke-miterlimit="10"/><path d="M587.16,246.21s32.46,12.84,87.52-11.32L633.36,128.13l-32.67.34L586,145.34Z" fill="#7ddcf2"/><g clip-path="url(#f78e9a26-acb5-455e-93fb-e0b72530a4b1)"><path d="M598.78,135.33s18.23,10.44,31.57-1.17l1.21-4.16-30.87-1.53S599.91,131.34,598.78,135.33Z" opacity="0.2"/></g><path d="M587.16,246.21s32.46,12.84,87.52-11.32L633.36,128.13l-32.67.34L586,145.34Z" fill="none" stroke="#351d66" stroke-miterlimit="10"/><path d="M630.82,78.21s-1.75-.09-3.94,3.51a12.1,12.1,0,0,0-1.23,3.68,16.23,16.23,0,0,0-7.52-5.54,24.76,24.76,0,0,1-7.46-4.16c-2.66-2.22-5.7-5.29-6.93-8.58l-1.5,1.09s0,4.63-6.77,10.66c0,0-5.56,17,6.77,27.64,0,0,6.17,6,13.73,2.13,0,0,2,10.18-1,15.73,0,0-14.5,1.92-17.7,8.1,0,0-4.91,0-5.76-7.68l-1.5,1.28s-1.28,7.68,0,10c0,0-8.53.21-16.21-14.51,0,0-4.27,5.34,1.28,13,0,0-16.68-6.05-11-28.75a28.3,28.3,0,0,1,15-18.38l.26-.12s11.46-3.74,10.42-18c0,0,0-14.51,15-11.31,0,0,19.84-10.83,31.79,7,0,0,9.38,14.81,24.74,22.38,0,0,29,9.06,16.86,31.46,0,0-1.28-5.55-5.12-6,0,0,1.28,6-.43,10.88,0,0-6.83-6.62-13.44-7.68,0,0,5.33,6.82,4.05,12.16l-8.74,4.26s-.43-10.45-9.6-11.3l-11.1-.22s-7-11.45-4-29.83" fill="#f48225" data-secondary="true"/><g clip-path="url(#e534fd77-8c9c-47ca-8657-d6602bb1f3aa)"><path d="M581.25,113.61s-6.33,1.82-14.59,14.08c0,0-11.46-24,10.66-39.45C577.32,88.24,566.52,107,581.25,113.61Z" opacity="0.2"/></g><path d="M630.82,78.21s-1.75-.09-3.94,3.51a12.1,12.1,0,0,0-1.23,3.68,16.23,16.23,0,0,0-7.52-5.54,24.76,24.76,0,0,1-7.46-4.16c-2.66-2.22-5.7-5.29-6.93-8.58l-1.5,1.09s0,4.63-6.77,10.66c0,0-5.56,17,6.77,27.64,0,0,6.17,6,13.73,2.13,0,0,2,10.18-1,15.73,0,0-14.5,1.92-17.7,8.1,0,0-4.91,0-5.76-7.68l-1.5,1.28s-1.28,7.68,0,10c0,0-8.53.21-16.21-14.51,0,0-4.27,5.34,1.28,13,0,0-16.68-6.05-11-28.75a28.3,28.3,0,0,1,15-18.38l.26-.12s11.46-3.74,10.42-18c0,0,0-14.51,15-11.31,0,0,19.84-10.83,31.79,7,0,0,9.38,14.81,24.74,22.38,0,0,29,9.06,16.86,31.46,0,0-1.28-5.55-5.12-6,0,0,1.28,6-.43,10.88,0,0-6.83-6.62-13.44-7.68,0,0,5.33,6.82,4.05,12.16l-8.74,4.26s-.43-10.45-9.6-11.3l-11.1-.22s-7-11.45-4-29.83" fill="none" stroke="#351d66" stroke-miterlimit="10"/><path d="M650.23,104.46S672.3,81.66,698.47,90c1.67.53,3.36,1,5.06,1.48,5.16,1.36,15.82,4.48,22.65,8.57A2.59,2.59,0,0,0,730,98.75c2.41-6.06,7.33-17.59,6.67-26.2a12,12,0,0,0-7.22-10c-12.62-5.62-61-22.87-92.56,25.49l-1.33,7.05,5.14,7.06Z" fill="#686175" data-primary="true"/><g clip-path="url(#fcd72afe-d786-447d-b79c-19352750cab2)"><path d="M696.46,89.84c24.63,8.1,32.3,14.32,32.3,14.32l6.66-20c-69.27-35.3-93.72,15.66-93.72,15.66l-1,2.34,9.53,2.28S672.15,81.85,696.46,89.84Z" opacity="0.2"/></g><path d="M650.23,104.46S672.3,81.66,698.47,90c1.67.53,3.36,1,5.06,1.48,5.16,1.36,15.82,4.48,22.65,8.57A2.59,2.59,0,0,0,730,98.75c2.41-6.06,7.33-17.59,6.67-26.2a12,12,0,0,0-7.22-10c-12.62-5.62-61-22.87-92.56,25.49l-1.33,7.05,5.14,7.06Z" fill="none" stroke="#351d66" stroke-miterlimit="10"/><path d="M590,109.8l-8.77,3.81s-15.62,30.1-4.57,54.88l3.92,8.63a12.18,12.18,0,0,1,.7,8.13l-11.86,45.42a2.47,2.47,0,0,0,.8,2.54c2.41,2,8.57,6.51,18.75,9a2.51,2.51,0,0,0,3.06-1.95c1.49-7.56,5.86-30.71,7.11-48.93l.35-15.67a19.51,19.51,0,0,0-.15-2.86c-.79-6.28-3.68-32.33,1.33-44.35Z" fill="#686175" data-primary="true"/><g clip-path="url(#af71be13-75ed-41b0-a3e2-13968511876c)"><path d="M569.06,232.13l1.38-5.21s11.78,9.49,22.9,6.88l-1.8,9S575.85,240.28,569.06,232.13Z" opacity="0.2"/><path d="M576.68,168.49s15,7,22.86,5.71l-.38,17.15s-10-8.71-16.76-10.29Z" opacity="0.2"/><path d="M600.69,128.47a33.66,33.66,0,0,0-1.91,6.86,17.12,17.12,0,0,1-7.37-19.44S592.43,121,600.69,128.47Z" opacity="0.2"/></g><path d="M590,109.8l-8.77,3.81s-15.62,30.1-4.57,54.88l3.92,8.63a12.18,12.18,0,0,1,.7,8.13l-11.86,45.42a2.47,2.47,0,0,0,.8,2.54c2.41,2,8.57,6.51,18.75,9a2.51,2.51,0,0,0,3.06-1.95c1.49-7.56,5.86-30.71,7.11-48.93l.35-15.67a19.51,19.51,0,0,0-.15-2.86c-.79-6.28-3.68-32.33,1.33-44.35Z" fill="none" stroke="#351d66" stroke-miterlimit="10"/><path d="M535,167.17a3.25,3.25,0,0,0,3.41-1.22l31.75-42.75s6.25-8.06,11.14-9.59c0,0-15.35,29.16-4.57,54.88,0,0-24.24,30.62-29.8,30.62-4-.11-8.41-.4-13.09-1a137.81,137.81,0,0,1-14.25-2.52.26.26,0,0,1,0-.52,16.78,16.78,0,0,0,5.78-1.67,17.89,17.89,0,0,0,6.37-5.36,16.87,16.87,0,0,0,2.06-17,11.76,11.76,0,0,0-3.3-4.51.27.27,0,0,1,.24-.46Z" fill="#686175" data-primary="true"/><g clip-path="url(#f5e89993-3494-4015-85b1-ea2b4c65872e)"><path d="M534.67,180.49,546.88,185s-9.49-15,4.25-11.12c0,0,9.82,5.23,11.13-1.31,0,0,5.56-16,10.47-19.31,0,0,1.35,10.74,3.95,15.19,0,0-23.26,30.3-29.8,30.62a85.17,85.17,0,0,1-29.12-3.92S531.91,195.17,534.67,180.49Z" opacity="0.2"/></g><path d="M535,167.17a3.25,3.25,0,0,0,3.41-1.22l31.75-42.75s6.25-8.06,11.14-9.59c0,0-15.35,29.16-4.57,54.88,0,0-24.24,30.62-29.8,30.62-4-.11-8.41-.4-13.09-1a137.81,137.81,0,0,1-14.25-2.52.26.26,0,0,1,0-.52,16.78,16.78,0,0,0,5.78-1.67,17.89,17.89,0,0,0,6.37-5.36,16.87,16.87,0,0,0,2.06-17,11.76,11.76,0,0,0-3.3-4.51.27.27,0,0,1,.24-.46Z" fill="none" stroke="#351d66" stroke-miterlimit="10"/><path d="M631.56,130s-5.6,27,4.31,41.06a49.59,49.59,0,0,1,2.77,4.28c2.58,4.57,8.13,14.18,12.7,20.63a58.67,58.67,0,0,1,7.93,15.94c3.32,10.32,8.48,24.72,11.36,24.27,0,0,24.48-4.82,36.19-26.19,0,0,2.42-3.45-4.48-10L695,191.58a57.92,57.92,0,0,1-10.28-16.77,118.87,118.87,0,0,1-5.46-18.25s17.06,6.29,26.55,8.72a13.41,13.41,0,0,0,9-.87L763,141.74s4.13-18.61-7.93-22.74L723.7,130.73a13.47,13.47,0,0,1-10.75-.59l-38.88-19.58a43.72,43.72,0,0,0-10.81-3.75l-22.56-4.63S648,117.56,631.56,130Z" fill="#686175" data-primary="true"/><g clip-path="url(#b47d4cec-85b9-47cc-a9cf-34abc740c4e0)"><path d="M664.46,227.44s36.17-7.73,40.87-24.3c0,0,5.24,5-1.38,11.05,0,0-8.09,15.55-33.32,22C670.63,236.18,670.26,239,664.46,227.44Z" opacity="0.2"/><path d="M679.25,156.56s2.61,12.07,3.71,14.56c0,0-6.9-1.66-17.12-19.05Z" opacity="0.2"/><path d="M652.71,104.52s1,15.51-22.06,33.43a25.81,25.81,0,0,1,.91-7.95s17.53-7.44,9.14-27.82Z" opacity="0.2"/></g><path d="M631.56,130s-5.6,27,4.31,41.06a49.59,49.59,0,0,1,2.77,4.28c2.58,4.57,8.13,14.18,12.7,20.63a58.67,58.67,0,0,1,7.93,15.94c3.32,10.32,8.48,24.72,11.36,24.27,0,0,24.48-4.82,36.19-26.19,0,0,2.42-3.45-4.48-10L695,191.58a57.92,57.92,0,0,1-10.28-16.77,118.87,118.87,0,0,1-5.46-18.25s17.06,6.29,26.55,8.72a13.41,13.41,0,0,0,9-.87L763,141.74s4.13-18.61-7.93-22.74L723.7,130.73a13.47,13.47,0,0,1-10.75-.59l-38.88-19.58a43.72,43.72,0,0,0-10.81-3.75l-22.56-4.63S648,117.56,631.56,130Z" fill="none" stroke="#351d66" stroke-miterlimit="10"/><path d="M550.72,158.23l-18.93-51.15a1.88,1.88,0,0,0-2.54-1.06L506,116.46a1.87,1.87,0,0,0-.92,2.52l23.27,50,21.5-8.7A1.64,1.64,0,0,0,550.72,158.23Z" fill="#251860"/><path d="M757.94,120.64l2.35-1.17L766.87,109a16,16,0,0,1,10.55-7.31c2.16-.39,4.06-.23,4.62,1.33,0,0,4.11,20.87-1.47,24.69,0,0-10.58,1.76-12.05,3.23L763.23,135S759.71,121.23,757.94,120.64Z" fill="#f9c7a5" stroke="#351d66" stroke-miterlimit="10"/><path d="M777.34,110.06s-2.65-1.47.88-3.82c0,0,10.29-7.64,13.22-3.82,0,0,.59,3.53-1.47,5,0,0,3.82,4.41,0,6.17,0,0,2.36,6.17-2.05,7.35,0,0,1.76,5-4.12,6.46,0,0-9.69,2.65-10-1.47a3,3,0,0,1,2.94-3.23s-3.53-3.53-.29-6.47C776.46,116.23,773.52,111.83,777.34,110.06Z" fill="#f9c7a5" stroke="#351d66" stroke-miterlimit="10"/><path d="M780.57,110.06c.63,0,1.25-.08,1.87-.16a14.28,14.28,0,0,0,1.82-.36,9.65,9.65,0,0,0,3.36-1.53,6,6,0,0,1-1.52,1.12,8.6,8.6,0,0,1-1.77.67A10.37,10.37,0,0,1,780.57,110.06Z" fill="#f7a091"/><path d="M779.1,115.94a49,49,0,0,0,8.82-.29,17.16,17.16,0,0,1-4.39.61A24.27,24.27,0,0,1,779.1,115.94Z" fill="#f7a091"/><path d="M780,122.11a11.94,11.94,0,0,0,1.45.11,8.52,8.52,0,0,0,1.43-.09,6,6,0,0,0,1.39-.31,6.75,6.75,0,0,0,1.32-.59,4.36,4.36,0,0,1-1.24.79,6,6,0,0,1-1.44.38A6.52,6.52,0,0,1,780,122.11Z" fill="#f7a091"/><path d="M593.07,98s-7.44,6.86-.19,21.34c0,0,10.86,21.92,38.68,10.68,0,0,15.81-6.86,10.67-25.54,0,0-2.67-7.24-6.67-9.34l-10.1,5.15-29.92-1Z" fill="#686175" data-primary="true"/><g clip-path="url(#e1b28058-423a-4914-b17d-358a9b1392e7)"><path d="M627.56,103.13s17.14,5.71,4,26.87c0,0,14.48-6.86,11.43-23.06,0,0-2.42-8.86-7.43-11.82l-6.86,3.63S628.13,101.22,627.56,103.13Z" opacity="0.2"/></g><path d="M593.07,98s-7.44,6.86-.19,21.34c0,0,10.86,21.92,38.68,10.68,0,0,15.81-6.86,10.67-25.54,0,0-2.67-7.24-6.67-9.34l-10.1,5.15-29.92-1Z" fill="none" stroke="#351d66" stroke-miterlimit="10"/><ellipse cx="594.72" cy="92.01" rx="4.26" ry="7.42" transform="translate(-2.02 169.84) rotate(-16.23)" fill="#f9c7a5" stroke="#351d66" stroke-miterlimit="10"/><ellipse cx="632.6" cy="91.7" rx="7.42" ry="4.26" transform="matrix(0.28, -0.96, 0.96, 0.28, 367.79, 673.48)" fill="#f9c7a5" stroke="#351d66" stroke-miterlimit="10"/><ellipse cx="612.39" cy="89.33" rx="17.84" ry="26.2" fill="#f9c7a5" stroke="#351d66" stroke-miterlimit="10"/><path d="M593.89,84.9s-3.75-23.35,18-25.56c0,0,22.73-1.27,20.84,25.57l-2.21,7.26s-.33-7.33-1.85-9a7.14,7.14,0,0,1-2.65-6.58,1.33,1.33,0,0,0-.95-1.41c-3.61-1.1-15.28-4-25.45.35a1.37,1.37,0,0,0-.79,1.32c.11,2,0,6.72-2.94,7.46a1.79,1.79,0,0,0-1.2,1Z" fill="#f48225" data-secondary="true" stroke="#351d66" stroke-miterlimit="10"/><path d="M546.15,160.1,527.21,109a1.87,1.87,0,0,0-2.53-1.06l-23.21,10.44a1.87,1.87,0,0,0-.93,2.52l20,52,24.81-10.72A1.64,1.64,0,0,0,546.15,160.1Z" fill="#c9c6cb" stroke="#351d66" stroke-miterlimit="10"/><rect x="505.74" y="119.53" width="6.65" height="11.22" rx="1.87" transform="translate(-0.95 246.37) rotate(-27.18)" fill="#fff"/><path d="M527.9,191.73l-18.29-11s-4.77-1.14-5.72-10.86c0,0-5.53-24.58-.19-31.06,0,0,6.48-9.34,13.34-12.58,0,0,2.78-1.71,4.5-1.36a1.33,1.33,0,0,1,.83,1.93,21.83,21.83,0,0,1-3.62,5.34s7.62-5.91,9.34-2.67c0,0,1.33,2.1-1.14,6.67,0,0,3.81-1.33,3.81,1.34,0,0-1.53,7.62-4,11,0,0,3.82-2.48,5-.38,0,0,.17,4-4.87,13.68a5.66,5.66,0,0,0-.47,3.94,22,22,0,0,1,.68,5.84,1.54,1.54,0,0,0,1,1.53l7.08,2.64S536.47,187.35,527.9,191.73Z" fill="#f9c7a5"/><g clip-path="url(#e876857e-6bbe-48cc-a3e2-c6156759c445)"><path d="M507.89,179.92s9.53,4.57,12.77-.19c0,0,3.05-5.34-1-13.15,0,0,9-12,11.63-17a45.71,45.71,0,0,1-5.53,14.1,19.36,19.36,0,0,1,1.15,9l8.19,3s1.14,10.67-7.24,16Z" fill="#f7a091"/></g><path d="M527.9,191.73l-18.29-11s-4.77-1.14-5.72-10.86c0,0-5.53-24.58-.19-31.06,0,0,6.48-9.34,13.34-12.58,0,0,2.78-1.71,4.5-1.36a1.33,1.33,0,0,1,.83,1.93,21.83,21.83,0,0,1-3.62,5.34s7.62-5.91,9.34-2.67c0,0,1.33,2.1-1.14,6.67,0,0,3.81-1.33,3.81,1.34,0,0-1.53,7.62-4,11,0,0,3.82-2.48,5-.38,0,0,.17,4-4.87,13.68a5.66,5.66,0,0,0-.47,3.94,22,22,0,0,1,.68,5.84,1.54,1.54,0,0,0,1,1.53l7.08,2.64S536.47,187.35,527.9,191.73Z" fill="none" stroke="#351d66" stroke-miterlimit="10"/><path d="M508.66,141.9a20.87,20.87,0,0,1,1.33-2.16,22.75,22.75,0,0,1,1.55-2,17.88,17.88,0,0,1,1.77-1.82,8.57,8.57,0,0,1,2.1-1.43,16.45,16.45,0,0,0-1.81,1.73c-.56.61-1.12,1.23-1.66,1.87C510.85,139.35,509.8,140.65,508.66,141.9Z" fill="#f7a091"/><path d="M511.13,150.63c2-2.41,4.07-4.66,6.21-6.89,1.1-1.09,2.19-2.19,3.33-3.23a22.44,22.44,0,0,1,3.64-2.89,14.78,14.78,0,0,0-1.72,1.54c-.55.54-1.1,1.09-1.63,1.64l-3.23,3.32C515.54,146.3,513.4,148.53,511.13,150.63Z" fill="#f7a091"/><path d="M516.9,158.38a36.86,36.86,0,0,1,3.43-4.15c.63-.64,1.26-1.28,1.94-1.87a9.29,9.29,0,0,1,2.21-1.56,18.74,18.74,0,0,0-1.92,1.86l-1.84,1.94C519.48,155.89,518.24,157.17,516.9,158.38Z" fill="#f7a091"/><polygon points="344.34 604.45 344.18 601.24 513.46 592.54 500.91 517.11 504.07 516.6 517.22 595.58 344.34 604.45" fill="#c7c7c7"/><circle cx="353.94" cy="611.8" r="17.7" fill="#251860"/><path d="M345.93,611.76a8,8,0,1,0,8-8A8,8,0,0,0,345.93,611.76Z" fill="#ebebeb"/><circle cx="489.63" cy="611.72" r="17.7" fill="#251860"/><path d="M481.52,611.76a8,8,0,1,0,8-8A8,8,0,0,0,481.52,611.76Z" fill="#ebebeb"/><polygon points="374.65 623.97 374.47 620.76 543.76 612.06 527.3 513.14 530.48 512.62 547.52 615.08 374.65 623.97" fill="#c7c7c7"/><circle cx="384.27" cy="631.25" r="17.7" fill="#251860"/><path d="M376.19,631.27a8,8,0,1,0,8-8A8,8,0,0,0,376.19,631.27Z" fill="#ebebeb"/><circle cx="520.25" cy="636.02" r="17.69" fill="#251860"/><path d="M511.82,631.27a8,8,0,1,0,8-8A8,8,0,0,0,511.82,631.27Z" fill="#ebebeb"/><path d="M338.29,507,313.56,394.28,482.08,367l1.71,117.78-1.38.21ZM317.43,396.9,340.8,503.39l139.78-21.33L479,370.81Z" fill="#a6a6a6"/><rect x="362.09" y="388.51" width="3.21" height="112.35" transform="translate(-64.35 61.55) rotate(-8.89)" fill="#a6a6a6"/><rect x="404.66" y="381.62" width="3.21" height="112.83" transform="translate(-45.55 47.15) rotate(-6.29)" fill="#a6a6a6"/><rect x="445.01" y="375.35" width="3.21" height="113.22" transform="matrix(1, -0.04, 0.04, 1, -18.2, 19.65)" fill="#a6a6a6"/><rect x="322.39" y="417.1" width="161.06" height="3.21" transform="translate(-68.14 78.46) rotate(-10.26)" fill="#a6a6a6"/><rect x="330.86" y="456.64" width="152.15" height="3.21" transform="translate(-62.92 64.77) rotate(-8.45)" fill="#a6a6a6"/><path d="M552.4,512.26l-71.81-27.73V367l109.64,31.8Zm-68.6-29.93L550.42,508l35.72-107L483.8,371.23Z" fill="#dbdbdb"/><rect x="526.89" y="372.43" width="3.21" height="99.19" transform="translate(-54.6 764.68) rotate(-69.05)" fill="#dbdbdb"/><rect x="520.29" y="420.36" width="3.21" height="85.79" transform="translate(-104.16 771.53) rotate(-67.81)" fill="#dbdbdb"/><rect x="454.56" y="434.01" width="113.36" height="3.21" transform="translate(11.99 884.92) rotate(-82.42)" fill="#dbdbdb"/><rect x="484.49" y="444.12" width="114.4" height="3.21" transform="translate(-12.14 876.27) rotate(-77.31)" fill="#dbdbdb"/><rect x="448.25" y="321.91" width="95.11" height="3.21" transform="translate(43.6 705.61) rotate(-73.32)" fill="#dbdbdb"/><rect x="550.74" y="347.99" width="104.37" height="3.21" transform="translate(94.99 826.81) rotate(-73.32)" fill="#dbdbdb"/><rect x="560.63" y="226.01" width="6.42" height="125.57" transform="translate(167.31 782.84) rotate(-78.37)" fill="#251860"/><path d="M431.49,406.31l30.29,13.81,49.85-10-29.9-8.48-50.23,4.58A0,0,0,0,0,431.49,406.31Z" fill="#f48225" data-secondary="true" stroke="#351d66" stroke-miterlimit="10"/><path d="M484,410.62c.39,12.84,3.4,74.26-8.46,75.43-4.19.44-8-9.13-10.94-23.35-.29-1.4-.58-2.84-.85-4.32-1-5.34-1.85-11.23-2.55-17.35-.19-1.41-.35-2.84-.49-4.28-.59-5.7-1.06-11.56-1.38-17.43-.08-1.43-.16-2.84-.21-4.27s-.11-2.43-.14-3.63c-.13-4-.21-8-.21-11.89v-4.32c.1-7.94.42-15.62,1-22.63.11-1.38.24-2.71.35-4,1.74-18,5.12-30.93,9.78-32.3C479.9,333.37,483,378.63,484,410.62Z" fill="#aac8f9"/><g clip-path="url(#b98894bf-ba88-462d-9947-eabf3f04aa1c)"><path d="M476.26,455a2.27,2.27,0,0,1-.48.27.47.47,0,0,1-.21.16,25.61,25.61,0,0,0-11,7.37c-.29-1.4-.57-2.84-.85-4.32a16.57,16.57,0,0,1,12.09-4.24h.29a.39.39,0,0,1,.16.76Z" fill="#d2e1f9"/><path d="M474.72,436.51a2.29,2.29,0,0,1-.52.11.3.3,0,0,1-.24.08,23.31,23.31,0,0,0-12.39,4.08l-.4.3c-.18-1.41-.34-2.84-.48-4.28a16.42,16.42,0,0,1,13.75-1.16.17.17,0,0,1,.1.1h.18a.4.4,0,0,1,.27.49A.4.4,0,0,1,474.72,436.51Z" fill="#d2e1f9"/><path d="M473.85,417.81a2.35,2.35,0,0,1-.53,0,.33.33,0,0,1-.24,0,22.7,22.7,0,0,0-12.84,1.11,9.17,9.17,0,0,0-.9.41c-.08-1.43-.16-2.84-.21-4.27a16.94,16.94,0,0,1,14.62,1.82.12.12,0,0,1,.08.11l.17.1C474.17,417.28,474.33,417.73,473.85,417.81Z" fill="#d2e1f9"/><path d="M473.1,398.1a2.35,2.35,0,0,1-.53,0,.25.25,0,0,1-.24,0,22.7,22.7,0,0,0-12.84,1.11,5.74,5.74,0,0,0-.71.33v-4.31a16.76,16.76,0,0,1,14.2,1.94l.1.11.14.1C473.42,397.57,473.5,398,473.1,398.1Z" fill="#d2e1f9"/><path d="M473.11,374.81a1.93,1.93,0,0,1-.53-.11.53.53,0,0,1-.25,0,23.22,23.22,0,0,0-12.59-2c.12-1.38.24-2.71.36-4a17.67,17.67,0,0,1,13,5.28v.13a.74.74,0,0,0,.13.12C473.48,374.38,473.51,374.83,473.11,374.81Z" fill="#d2e1f9"/></g><path d="M484,410.62c.39,12.84,3.4,74.26-8.46,75.43-4.19.44-8-9.13-10.94-23.35-.29-1.4-.58-2.84-.85-4.32-1-5.34-1.85-11.23-2.55-17.35-.19-1.41-.35-2.84-.49-4.28-.59-5.7-1.06-11.56-1.38-17.43-.08-1.43-.16-2.84-.21-4.27s-.11-2.43-.14-3.63c-.13-4-.21-8-.21-11.89v-4.32c.1-7.94.42-15.62,1-22.63.11-1.38.24-2.71.35-4,1.74-18,5.12-30.93,9.78-32.3C479.9,333.37,483,378.63,484,410.62Z" fill="none" stroke="#6259b0" stroke-miterlimit="10"/><path d="M502.9,418.31c-1.76,12.63-9.08,73.3-21,71.68-4.19-.55-6.42-10.81-6.83-25.38,0-1.43-.1-2.9-.12-4.41,0-5.46,0-11.38.39-17.55,0-1.42.14-2.85.24-4.3.39-5.7.9-11.52,1.61-17.35.17-1.41.33-2.81.51-4.2s.3-2.39.46-3.57c.55-3.93,1.14-7.83,1.8-11.66.26-1.4.5-2.83.74-4.21,1.41-7.75,3-15.13,4.81-21.86.33-1.32.68-2.58,1-3.83,4.71-17.11,10.2-29,15-29.22C511.82,342,507.33,386.88,502.9,418.31Z" fill="#aac8f9"/><g clip-path="url(#bb468bf2-4a0b-434d-ac63-a6b45481289a)"><path d="M487.88,459.76a1.2,1.2,0,0,1-.52.15.3.3,0,0,1-.24.11,23.48,23.48,0,0,0-12,4.59c0-1.43-.1-2.9-.12-4.41a16.08,16.08,0,0,1,12.6-1.29.19.19,0,0,1,.1.1h.16a.38.38,0,0,1,.33.43A.37.37,0,0,1,487.88,459.76Z" fill="#d2e1f9"/><path d="M489.47,441.39a1.69,1.69,0,0,1-.55,0,.33.33,0,0,1-.24,0,22.53,22.53,0,0,0-12.84,1l-.45.19c0-1.43.15-2.86.24-4.3a16.71,16.71,0,0,1,13.72,2.14.57.57,0,0,1,.1.11l.15.09C489.77,440.86,489.87,441.31,489.47,441.39Z" fill="#d2e1f9"/><path d="M491.73,422.94a1.73,1.73,0,0,1-.51-.12.25.25,0,0,1-.24,0,23.07,23.07,0,0,0-12.84-2l-1,.17c.18-1.41.34-2.8.52-4.2a17.83,17.83,0,0,1,14.07,5.23.15.15,0,0,1,0,.13l.13.13C492.13,422.5,492.15,423,491.73,422.94Z" fill="#d2e1f9"/><path d="M494.3,403.52a1.87,1.87,0,0,1-.52-.12.28.28,0,0,1-.25,0,23.17,23.17,0,0,0-12.84-2,6.41,6.41,0,0,0-.76.16c.26-1.39.5-2.82.74-4.2a17.65,17.65,0,0,1,13.64,5.26.16.16,0,0,1,.08.13l.13.13C494.7,403.07,494.72,403.54,494.3,403.52Z" fill="#d2e1f9"/><path d="M498.2,380.8a4.59,4.59,0,0,1-.5-.24.49.49,0,0,1-.24,0,24.59,24.59,0,0,0-12-5c.32-1.31.67-2.58,1-3.83A19.32,19.32,0,0,1,498.38,380a.43.43,0,0,1,0,.16l.09.14C498.65,380.46,498.6,380.91,498.2,380.8Z" fill="#d2e1f9"/></g><path d="M502.9,418.31c-1.76,12.63-9.08,73.3-21,71.68-4.19-.55-6.42-10.81-6.83-25.38,0-1.43-.1-2.9-.12-4.41,0-5.46,0-11.38.39-17.55,0-1.42.14-2.85.24-4.3.39-5.7.9-11.52,1.61-17.35.17-1.41.33-2.81.51-4.2s.3-2.39.46-3.57c.55-3.93,1.14-7.83,1.8-11.66.26-1.4.5-2.83.74-4.21,1.41-7.75,3-15.13,4.81-21.86.33-1.32.68-2.58,1-3.83,4.71-17.11,10.2-29,15-29.22C511.82,342,507.33,386.88,502.9,418.31Z" fill="none" stroke="#6259b0" stroke-miterlimit="10"/><path d="M431.67,406.4a.22.22,0,0,0-.31.2c.15,5,1.87,61.1,1.24,63.34s-4.3,31.07-4,31.87,29.18,17.35,30.14,16.41,2.71-42.33,2.71-47.43.34-50.67.34-50.67Z" fill="#f48225" data-secondary="true" stroke="#351d66" stroke-miterlimit="10"/><path d="M461.78,420.12l-3,98s46.8-13.82,47.2-14.59,2.73-28.58,2.14-32.91,3.51-60.58,3.51-60.58Z" fill="#f48225" data-secondary="true" stroke="#351d66" stroke-miterlimit="10"/><path d="M396.7,531.51l-58.42-24.46-.18-.82L313.43,393.7l72.63,29.76Zm-55.58-26.77L393,526.47,383,425.72,317.94,399Z" fill="#dbdbdb"/><rect x="344.19" y="403.48" width="3.21" height="109.25" transform="translate(-74.09 66.79) rotate(-9.97)" fill="#dbdbdb"/><rect x="366.1" y="413.85" width="3.21" height="107.28" transform="translate(-62.2 56.47) rotate(-8.1)" fill="#dbdbdb"/><rect x="358.61" y="458.95" width="3.2" height="62.01" transform="translate(-221.41 667.53) rotate(-70.66)" fill="#dbdbdb"/><rect x="354.2" y="411.85" width="3.21" height="69.05" transform="translate(-190.26 612.68) rotate(-68.38)" fill="#dbdbdb"/><path d="M396.6,531.46,382.67,423.2l207.59-24.67L552.37,512.36l-1,.13ZM386.27,426l13.11,101.89L550,509.42l35.64-107.1Z" fill="#ebebeb"/><rect x="433.62" y="418.9" width="3.21" height="104.9" transform="translate(-39.27 39.56) rotate(-4.98)" fill="#ebebeb"/><rect x="429.83" y="463.95" width="106.49" height="3.21" transform="translate(-9.52 921.04) rotate(-86.7)" fill="#ebebeb"/><rect x="473.86" y="458.68" width="110.12" height="3.21" transform="translate(-21.56 894.54) rotate(-79.3)" fill="#ebebeb"/><rect x="387.34" y="446.38" width="188.91" height="3.21" transform="translate(-47.07 56.68) rotate(-6.42)" fill="#ebebeb"/><rect x="391.36" y="486.77" width="170.69" height="3.21" transform="translate(-48.21 52.23) rotate(-5.97)" fill="#ebebeb"/><ellipse cx="601.97" cy="87.79" rx="1.9" ry="3.17" fill="#351d66"/><ellipse cx="618.05" cy="87.48" rx="3.17" ry="1.9" transform="translate(508.07 701.93) rotate(-87.91)" fill="#351d66"/><path d="M609.92,86.55S606.59,97.47,612.19,97" fill="none" stroke="#351d66" stroke-miterlimit="10"/><path d="M604.29,102.28s6.3,8.52,14.18,0" fill="none" stroke="#351d66" stroke-miterlimit="10"/></svg>