<svg id="bb2768ce-efae-486a-85d1-03cf525048e6" data-name="Layer 1" xmlns="http://www.w3.org/2000/svg" xmlns:xlink="http://www.w3.org/1999/xlink" width="865.76" height="682.89" viewBox="0 0 865.76 682.89"><defs><clipPath id="fa66addc-437c-4207-b4f0-73cb66f34def"><path id="e0d7f84f-7321-4f91-a753-0b3d4906948c" data-name="SVGID" d="M206.49,550c3.48,3.49,12.37,8.25,33,1.25l11,30s-21,5-35.49,18.5c0,0-17.5,18.5-23.5-1,0,0,2.5-4.5-12-22a90.66,90.66,0,0,1-15.58-22.21,94.17,94.17,0,0,0-7-12.2c-7-10.37-18.4-30.07-6.37-34.07,0,0,10-7.5,24,13.49,0,0,13.59,13.22,24.72,21.72A72.43,72.43,0,0,1,206.49,550Z" fill="#e6e7e8"/></clipPath></defs><path d="M396.51,105.78C349.41,137.84,159.56,73.28,152,298.29S436,571,505.07,577.51,712.36,417,727.55,284.86,639.17-59.35,396.51,105.78Z" fill="#e4e1f5"/><path d="M235.82,104.26c-1.22.83-6.14-.84-6.34,5s7.36,7.06,9.15,7.23,5.37-4.16,5.76-7.58S242.1,100,235.82,104.26Z" fill="#e4e1f5"/><path d="M268.31,119c-1.41.41-5.57-2.69-7.56,2.79s4.82,9,6.47,9.7,6.39-2.3,7.82-5.43S275.61,116.84,268.31,119Z" fill="#e4e1f5"/><path d="M221.28,503.68c-1.22.83-6.13-.84-6.33,5s7.35,7.06,9.14,7.23,5.37-4.16,5.77-7.58S227.57,499.4,221.28,503.68Z" fill="#e4e1f5"/><path d="M727.86,397.9c-1.22.83-6.14-.84-6.33,5s7.35,7.06,9.14,7.23,5.37-4.16,5.76-7.58S734.15,393.63,727.86,397.9Z" fill="#e4e1f5"/><path d="M692,398.14c-1.45.27-5.28-3.23-7.8,2s3.89,9.43,5.47,10.3,6.58-1.65,8.32-4.63S699.47,396.75,692,398.14Z" fill="#e4e1f5"/><path d="M528.88,533.61c-1.22.83-6.14-.84-6.34,5s7.36,7.06,9.15,7.23,5.37-4.16,5.76-7.58S535.16,529.33,528.88,533.61Z" fill="#fff"/><path d="M230.27,438.66c-1.46.21-5.14-3.46-7.88,1.69s3.49,9.58,5,10.52,6.65-1.37,8.51-4.26S237.8,437.6,230.27,438.66Z" fill="#fff"/><path d="M303.36,134.41c-1.46.21-5.13-3.46-7.88,1.69s3.49,9.58,5,10.52,6.65-1.37,8.51-4.26S310.89,133.34,303.36,134.41Z" fill="#fff"/><path d="M346.21,94c-1.95.34-7-4.43-10.51,2.58s5.07,12.72,7.17,13.91,8.86-2.1,11.24-6.06S356.26,92.27,346.21,94Z" fill="#e4e1f5"/><path d="M674.7,472.75c-1.86.32-6.71-4.23-10,2.46s4.84,12.12,6.83,13.26,8.46-2,10.73-5.78S684.29,471.09,674.7,472.75Z" fill="#e4e1f5"/><path d="M167.14,455.77c-1.37,1.19-7.61-.18-7,7s10,7.61,12.17,7.56,6-5.82,6-10.05S174.23,449.68,167.14,455.77Z" fill="#e4e1f5"/><path d="M203.83,421.17c-1.37,1.19-7.61-.17-7,7s10,7.61,12.17,7.57,6-5.82,6-10.06S210.92,415.08,203.83,421.17Z" fill="#fff"/><path d="M659.47,85.5c-1.68.69-7.17-2.57-8.89,4.39s7,10.36,9.16,11,7.52-3.64,8.86-7.65S668.11,82,659.47,85.5Z" fill="#fff"/><path d="M646.58,119c-1.38,1.18-7.61-.18-7.05,7s10,7.61,12.17,7.57,6-5.82,6-10.06S653.66,112.91,646.58,119Z" fill="#fff"/><ellipse cx="266.37" cy="624.8" rx="172.68" ry="14.62" fill="#e4e1f5"/><ellipse cx="574.94" cy="626.51" rx="172.68" ry="14.62" fill="#e4e1f5"/><path d="M378.48,292.28s3.33,4.34,8,2c0,0-2.86,22.25,13.72,43.84,0,0-23.39,14.82-33.39,37.82a32.7,32.7,0,0,0-13.51-18.27,13.17,13.17,0,0,1-4.35-4.79c-1.91-3.57-5-9.69-7.8-16.27l-6.33-13.33,12.33-14s7-8,22.66-10.66c0,0,7.33-1,8.67-6.34" fill="#ffc596"/><path d="M329.49,351.61s-10-37.87-49.71-11.94a95.84,95.84,0,0,0-28.7,29.5c-15.92,25.39-52.32,84.94-70.23,126.41,0,0-21.33,28.66-9.34,49.33,0,0,42,62.65,81.32,67.32,0,0,61.9-24.62,80.66-70l34.66-34.66s4.66-49.33-12.67-105.32Z" fill="#f48225" data-secondary="true"/><path d="M514.12,595.56s-5.33,9,2,11.33l5.33-9Z" fill="#2c2e63"/><path d="M514.12,595.56s-5.33,9,2,11.33l5.33-9Z" opacity="0.2"/><path d="M251.5,545.57l13.33,30s75.09-10.07,130.41-39.4c0,0,39.47-21.88,52.23-9.93,0,0,34.34,26.15,20.9,35.42L462,567.89s30.09,24.34,59.42,30c0,0,21-36.79,25.72-49.46,0,0-18.13-7.9-31-19,0,0-14.22-6.54-30.73-23.87,0,0-15.31-12-26.64-17,0,0-23-15.73-39.36-8.06,0,0-2.64,3.06-12.63,1.73,0,0-16.87,2.7-38.66,25.33,0,0-30,31.33-96.65,29.33Z" fill="#ffc596"/><path d="M547.17,548.44s-24.38,48.46-31,58.45c0,0,16.66,1.34,24,2.67,0,0,86.91,10.22,91.58-3.78,0,0,6.4-11.55,10.4-12.22a149.62,149.62,0,0,0-39-44.66S584.83,562.77,547.17,548.44Z" fill="#2c2e63"/><path d="M574.69,399.66s-25.4,49-31.3,59.88c0,0-25.41,37.65-7.71,49.9,0,0,62.89,30.34,75.76,47.64,0,0,29.49,37.2,34,39.47L663.16,573a14.16,14.16,0,0,1,12.25-6.81s14.51.91,14.51-13.15c0,0,1.36-38.11,5-60.34a135.82,135.82,0,0,0-1.36-49.91s-1.81-27.22,1.36-39L674.5,351.57,626.86,342s-33.11,3.63-36.74,33.12C590.12,375.16,588.3,396.48,574.69,399.66Z" fill="#686175" data-primary="true"/><ellipse cx="559.56" cy="295.74" rx="26.66" ry="48.04" transform="translate(-70.81 239.11) rotate(-22.72)" fill="#ffc596"/><path d="M529.32,266.73s-8.16,2.27-5.44-12.25c0,0,.91-6.8,12.7-17.69,0,0,43.5-43.5,70.87-12.94a19.24,19.24,0,0,1,2.74,4.07c3.44,6.73,14.94,28.81,24.84,42.89l20,28.59s5.9,14.51,12.7,20.41l17.7,24.95s25,27.68,15,52.17c0,0-10.44,18.6-29,22.69,0,0,21.78-20,1.36-47.18,0,0-11.79-12.25-27.67-16.34,0,0-12.82-3.6-18.15-14.06,0,0-22.61,2.46-32.53,21.55a25.78,25.78,0,0,0-2.68,9.54c-.79,8.66-5.49,30.73-32.84,30.16,0,0,33.57-7.26,17.24-42.2,0,0-4.08-8.62,8.17-24.95,0,0,5.65-10.19,3.17-26.31,0,0-3.5-10.35-.9-18.6L571.06,280.8s.66,6.29-11,1.89a27.87,27.87,0,0,1-10-6.62A30.51,30.51,0,0,0,529.32,266.73Z" fill="#2c2e63"/><path d="M619.15,292.14a41.35,41.35,0,0,1,2.52,6.26,60.13,60.13,0,0,1,1.58,6.59,56.78,56.78,0,0,1,.78,6.74l.11,3.4-.11,3.39c0,1.14-.2,2.26-.32,3.38s-.23,2.26-.49,3.36l-.65,3.33c-.24,1.11-.6,2.18-.91,3.27a62.82,62.82,0,0,1-2.27,6.38c-.38,1.06-1,2-1.44,3.06s-1,2-1.52,3c.8-2.11,1.79-4.13,2.51-6.25a65,65,0,0,0,2-6.41A64,64,0,0,0,623,318.46a61.41,61.41,0,0,0-.55-13.34A56.83,56.83,0,0,0,619.15,292.14Z" fill="#1b1c3d"/><path d="M653.17,437.76c-17.23,78-29.93,93.91-29.93,93.91-43.1,55.8-107.07-2.27-107.07-2.27A89.39,89.39,0,0,1,484,507.63l15.89-22.23,13.51.38,19.15.52s10-7.26,39-4.53L589,423.93c16.8-77.71,43.3-67.37,43.3-67.37C674.05,368.81,653.17,437.76,653.17,437.76Z" fill="#686175" data-primary="true"/><path d="M653.17,437.76c-17.23,78-29.93,93.91-29.93,93.91-43.1,55.8-107.07-2.27-107.07-2.27A89.39,89.39,0,0,1,484,507.63l15.89-22.23,13.51.38,19.15.52s10-7.26,39-4.53L589,423.93c16.8-77.71,43.3-67.37,43.3-67.37C674.05,368.81,653.17,437.76,653.17,437.76Z" opacity="0.2"/><path d="M665.88,538.48s3.63-2.27,4.53-15.88l3.18-35.39" fill="none" stroke="#000" stroke-miterlimit="10" opacity="0.2"/><g opacity="0.2"><path d="M561.78,558.57a73.13,73.13,0,0,1-2.56,12.92,84,84,0,0,1-4.68,12.35,65,65,0,0,1-6.94,11.25,48.57,48.57,0,0,1-9.48,9.14c.8-.76,1.6-1.5,2.41-2.24.39-.37.82-.71,1.19-1.12l1.1-1.22c.72-.82,1.51-1.57,2.17-2.44l2-2.58a70.85,70.85,0,0,0,6.66-11.22,95.63,95.63,0,0,0,4.84-12.14q1-3.12,1.83-6.3C560.9,562.86,561.36,560.72,561.78,558.57Z"/></g><path d="M499.84,485.4s-9.48-11.4-22.54-10.67a5.57,5.57,0,0,1-3.54-1c-3.36-2.36-11.09-8.92-13.11-13.76L455,461.74s-4.68,5-9.51,5.85c0,0,8.66,20.66,16.33,22.66,0,0,20.66,12.33,22.66,16.33Z" fill="#ffc596"/><path d="M419.44,480.52s17.44-6.24,39.36,8.06a64.47,64.47,0,0,1-13.33-21s-1.67,2-16.33,2l-4.34,1S423.1,478.19,419.44,480.52Z" fill="#ffa072"/><path d="M416.8,445.26s32.66-13.67,52.66.66l36.66,18.33s7,6-4,4.67c0,0-6.33.33-21.33-6.33,0,0-17-3.67-26.33-.34,0,0-7.66,9.67-25.32,7.34l-4.34,1A45.94,45.94,0,0,0,416.8,445.26Z" fill="#ffc596"/><path d="M344.15,446.92s-6-86.65-41.33-92.65c0,0-33.32-16-41.32,66,0,0-13.33,110.65-2,115.31,0,0,65.32,10,108.65-28,0,0,19.33-21.33,38.66-25.33,0,0,16,4.67,18-11.66,0,0,1.34-27-20.66-33.67,0,0-1.7-.73-17.33,4C386.81,440.92,360.81,447.59,344.15,446.92Z" fill="#f48225" data-secondary="true"/><path d="M344.15,446.92s-6-86.65-41.33-92.65c0,0-33.32-16-41.32,66,0,0-13.33,110.65-2,115.31,0,0,65.32,10,108.65-28,0,0,19.33-21.33,38.66-25.33,0,0,16,4.67,18-11.66,0,0,1.34-27-20.66-33.67,0,0-1.7-.73-17.33,4C386.81,440.92,360.81,447.59,344.15,446.92Z" opacity="0.2"/><path d="M290.83,384.27c-.84,1.75-1.65,3.5-2.38,5.3s-1.46,3.57-2.12,5.39a105,105,0,0,0-3.42,11,79.79,79.79,0,0,0-2,11.36l-.22,2.88c-.1,1,0,1.93,0,2.89-.12,1.94.16,3.85.23,5.8a47.17,47.17,0,0,1-.72-11.63,69.32,69.32,0,0,1,1.83-11.54,89.29,89.29,0,0,1,3.67-11.08A72.84,72.84,0,0,1,290.83,384.27Z" fill="#f48225" data-secondary="true"/><path d="M261.5,521.58a30.55,30.55,0,0,0,2.09,3.46A16.69,16.69,0,0,0,266.2,528a9.91,9.91,0,0,0,3.35,1.88l.94.25c.32,0,.65.07,1,.11a13.72,13.72,0,0,0,2,0,7.74,7.74,0,0,1-4.14.38,8.7,8.7,0,0,1-3.81-1.88,12.39,12.39,0,0,1-2.62-3.29A12.91,12.91,0,0,1,261.5,521.58Z" fill="#f48225" data-secondary="true"/><path d="M369.48,458.92c1.24,2.48,2.33,5,3.37,7.58s2,5.15,2.92,7.76,1.73,5.25,2.46,7.92,1.4,5.35,1.91,8.07l-2.64-7.85-2.68-7.82-2.68-7.82-1.35-3.91Z" fill="#f48225" data-secondary="true"/><path d="M381.48,457.59c1.8,3.29,3.33,6.7,4.79,10.14a110.21,110.21,0,0,1,3.87,10.52,126.29,126.29,0,0,1-8.66-20.66Z" fill="#f48225" data-secondary="true"/><path d="M252.83,612.23s66,16.66,150.64-24.67c0,0,38.59-18.53,44-61.32,0,0-7.34-8-30.67,0,0,0-81.31,34.44-98.64,38C318.16,564.24,310.82,582.9,252.83,612.23Z" fill="#2c2e63"/><path d="M381.4,597.07s3.41,7.82,26.74,1.83l24-4.36a35.55,35.55,0,0,0,17.57-8.49,26.42,26.42,0,0,0,6.63-9,33.07,33.07,0,0,1,5.55-8.79,47.51,47.51,0,0,1,6.94-6.71s15.34-6.67-21.32-35.33C447.47,526.24,444.61,574.69,381.4,597.07Z" fill="#2c2e63"/><path d="M381.4,597.07s3.41,7.82,26.74,1.83l24-4.36a35.55,35.55,0,0,0,17.57-8.49,26.42,26.42,0,0,0,6.63-9,33.07,33.07,0,0,1,5.55-8.79,47.51,47.51,0,0,1,6.94-6.71s15.34-6.67-21.32-35.33C447.47,526.24,444.61,574.69,381.4,597.07Z" opacity="0.2"/><path d="M310.34,332s22.48-24.43,24.48-9.1c0,0,10,25.33,18.66,32,0,0,16,10.66,12.67,24.66l-10.59,25.3s-10.74-24-26.07-53.29C329.49,351.61,325.49,336.94,310.34,332Z" fill="#f48225" data-secondary="true"/><path d="M310.34,332s22.48-24.43,24.48-9.1c0,0,10,25.33,18.66,32,0,0,16,10.66,12.67,24.66l-10.59,25.3s-10.74-24-26.07-53.29C329.49,351.61,325.49,336.94,310.34,332Z" opacity="0.2"/><polygon points="251.5 545.57 239.5 551.24 250.5 581.23 264.83 575.57 251.5 545.57" fill="#686175" data-primary="true"/><path id="bce10976-ccb7-4843-94db-9ed73576989d" data-name="SVGID" d="M206.49,550c3.48,3.49,12.37,8.25,33,1.25l11,30s-21,5-35.49,18.5c0,0-17.5,18.5-23.5-1,0,0,2.5-4.5-12-22a90.66,90.66,0,0,1-15.58-22.21,94.17,94.17,0,0,0-7-12.2c-7-10.37-18.4-30.07-6.37-34.07,0,0,10-7.5,24,13.49,0,0,13.59,13.22,24.72,21.72A72.43,72.43,0,0,1,206.49,550Z" fill="#e6e7e8"/><g clip-path="url(#fa66addc-437c-4207-b4f0-73cb66f34def)"><polygon points="140.08 533.75 177.25 517.03 150.61 477.38 124.6 502.78 140.08 533.75" fill="#e6e7e8"/></g><path d="M393.51,342.85a90.5,90.5,0,0,1,7.39-5.31S393,310.7,390.17,292.79c0,0,4.15-3.46-1.85-3C388.32,289.79,377,322.32,393.51,342.85Z" fill="#ffa072"/><ellipse cx="415.47" cy="300.28" rx="29.33" ry="45.99" fill="#ffc596"/><path d="M386.48,294c4.33-1.34,3.33-3.33,3.33-3.33s11-25.66,20.33-16.33c0,0,11,9,20.66,1.66,0,0,6.33-2,6.33,3.34,0,0,.67,6,5,2,0,0,16-13.34.67-36,0,0-4.33-7.66-27-20,0,0-21.66-17.67-52.32-.34,0,0-26.33,16.33-24.33,33.66l-2.33,15.67s-1.33,9.33,6.66,20.66c0,0,4.34,7.67,3.67,14.33a52.19,52.19,0,0,1,11.67-7.39,27.2,27.2,0,0,1,11.76-2.45c3.48,0,7.91-1.07,7.91-6.74C378.49,292.7,379.87,296,386.48,294Z" fill="#2c2e63"/><ellipse cx="383.98" cy="285.87" rx="7.83" ry="9.83" fill="#ffc596"/><ellipse cx="579.56" cy="280.67" rx="7.71" ry="14.1" transform="translate(-63.18 241.22) rotate(-22.33)" fill="#ffc596"/><path d="M578.5,281.08a2.26,2.26,0,0,0,0,1.72,1.6,1.6,0,0,0,.89.9,8,8,0,0,1,1.8,1,2.4,2.4,0,0,1,.67,1,1.14,1.14,0,0,1-.21,1.15,1.22,1.22,0,0,0-.47-.76,2.51,2.51,0,0,0-.7-.38,13,13,0,0,1-1.83-.63,2.71,2.71,0,0,1-1-.86,2.33,2.33,0,0,1-.4-1.3A1.92,1.92,0,0,1,578.5,281.08Z" fill="#ffa072"/><path d="M576.14,282.41a3.45,3.45,0,0,1,.11-5.77,3.14,3.14,0,0,1,1.81-.49,2.28,2.28,0,0,1,1.73.91,3.28,3.28,0,0,1,.59,1.57c0,.52,0,1,0,1.51-.64-.81-1-1.81-1.56-2.22a1.1,1.1,0,0,0-.82-.24,2,2,0,0,0-.93.32,2.77,2.77,0,0,0-1.21,1.76A5,5,0,0,0,576.14,282.41Z" fill="#ffa072"/><path d="M538.53,312.7l1,6.83a1.86,1.86,0,0,0,2.4,1.51l2.38-.76" fill="none" stroke="#ffa072" stroke-miterlimit="10"/><path d="M543.29,300.45a2.38,2.38,0,0,1-3-2.86c-2,.1-2.11-1.07-2.11-1.07.38.45,2.57-.22,3.48-.52h0l.27-.1h0l.11,0a2.38,2.38,0,0,1,1.27,4.58Z" fill="#2c2e63"/><path d="M535.79,294.64h0a1.1,1.1,0,0,0,1.59.37c1.79-1.23,5.69-3.56,8.83-3,0,0-3-2.82-10,1.1A1.12,1.12,0,0,0,535.79,294.64Z" fill="#2c2e63"/><path d="M559.63,317.69a7.51,7.51,0,0,1-2.68,7.62,4.69,4.69,0,0,1-5.79.49S557.56,326.8,559.63,317.69Z" fill="#f88968"/><path d="M444,310.67l1.22,6.86a1.87,1.87,0,0,1-1.8,2.2l-2.5,0" fill="none" stroke="#ffa072" stroke-miterlimit="10"/><path d="M441.26,291.57h0a1.11,1.11,0,0,1-1.24,1.07c-2.16-.28-6.7-.56-9.22,1.41,0,0,1.33-3.89,9.38-3.64A1.12,1.12,0,0,1,441.26,291.57Z" fill="#2c2e63"/><path d="M425.58,322.18a7.59,7.59,0,0,0,5,6.44,4.67,4.67,0,0,0,5.64-1.38S430.43,330.23,425.58,322.18Z" fill="#f88968"/><ellipse cx="436.12" cy="296.81" rx="2.48" ry="1.29" transform="translate(122.24 720.82) rotate(-87.73)" fill="#2c2e63"/><path d="M383,285.26a2.3,2.3,0,0,1,1.11,1.31,1.63,1.63,0,0,1-.12,1.26,8.3,8.3,0,0,0-.74,1.93,2.46,2.46,0,0,0,.14,1.23,1.17,1.17,0,0,0,.91.75,1.15,1.15,0,0,1-.13-.88,2.46,2.46,0,0,1,.3-.75,12.87,12.87,0,0,0,1-1.65,2.72,2.72,0,0,0,.22-1.31,2.28,2.28,0,0,0-.52-1.24A1.89,1.89,0,0,0,383,285.26Z" fill="#ffa072"/><path d="M385.62,284.77a3.41,3.41,0,0,0-.58-3.06,3.47,3.47,0,0,0-3.18-1.31,3,3,0,0,0-1.7.78,2.27,2.27,0,0,0-.76,1.8,3.18,3.18,0,0,0,.55,1.59,13.4,13.4,0,0,0,.93,1.18c0-1-.41-2-.21-2.7a1.07,1.07,0,0,1,.48-.71,2,2,0,0,1,.92-.34,2.72,2.72,0,0,1,2.05.58A4.91,4.91,0,0,1,385.62,284.77Z" fill="#ffa072"/><path d="M138,374.5A38.88,38.88,0,0,1,141.53,364a20.84,20.84,0,0,1,7.53-8.37,15.48,15.48,0,0,1,5.4-2.06,21,21,0,0,1,5.75-.16c3.78.4,7.34,1.36,10.93,1.89a49.34,49.34,0,0,0,21.46-1.36,87.36,87.36,0,0,0,20.05-8.81A69.54,69.54,0,0,1,193,355.43a51.1,51.1,0,0,1-11,2.25,46.41,46.41,0,0,1-11.23-.42c-3.7-.59-7.27-1.55-10.82-2a18.91,18.91,0,0,0-5.26,0,15.29,15.29,0,0,0-4.92,1.69,20.56,20.56,0,0,0-7.46,7.5A43.81,43.81,0,0,0,138,374.5Z" fill="#fff"/><path d="M657.62,208.92a39.32,39.32,0,0,1,5.38-9.71,20.78,20.78,0,0,1,8.92-6.86,15.52,15.52,0,0,1,5.69-1,20.79,20.79,0,0,1,5.68.88c3.64,1.08,7,2.67,10.4,3.84A49.38,49.38,0,0,0,715,198.57a88.08,88.08,0,0,0,21.32-5,69.43,69.43,0,0,1-21.15,6.58,50.52,50.52,0,0,1-11.2.23,45.82,45.82,0,0,1-11-2.45c-3.52-1.24-6.87-2.84-10.28-3.91a18.9,18.9,0,0,0-5.17-.94,14.84,14.84,0,0,0-5.15.77,20.54,20.54,0,0,0-8.69,6A43.56,43.56,0,0,0,657.62,208.92Z" fill="#fff"/><path d="M187.41,263a14.41,14.41,0,0,1,3.73.62,20.93,20.93,0,0,1,3.54,1.38,23.11,23.11,0,0,1,3.28,2,26.51,26.51,0,0,1,2.94,2.45l-1.62,1a18.16,18.16,0,0,1-.66-3.33,18.74,18.74,0,0,1-.1-3.35,16.06,16.06,0,0,1,.5-3.3,13.4,13.4,0,0,1,1.2-3.08,26.88,26.88,0,0,0-.2,6.36c.1,1,.23,2.08.42,3.1a26.49,26.49,0,0,0,.72,3,1,1,0,0,1-.63,1.25,1,1,0,0,1-1-.2l0,0c-.9-.79-1.77-1.62-2.73-2.33s-1.92-1.43-2.92-2.1-2.06-1.27-3.13-1.84A34.19,34.19,0,0,0,187.41,263Z" fill="#fff"/><path d="M225.52,272.45a14.33,14.33,0,0,1,3.73.61,21.56,21.56,0,0,1,3.55,1.38,24.7,24.7,0,0,1,6.21,4.41l-1.62,1a18.86,18.86,0,0,1-.66-3.33,19.72,19.72,0,0,1-.09-3.35,16.75,16.75,0,0,1,.49-3.3,13.4,13.4,0,0,1,1.2-3.08,29.83,29.83,0,0,0-.28,3.21,27.5,27.5,0,0,0,.08,3.15c.1,1.05.23,2.08.42,3.1a28.86,28.86,0,0,0,.72,3,1,1,0,0,1-1.59,1.06l0,0c-.9-.79-1.76-1.62-2.73-2.33s-1.92-1.43-2.92-2.1-2.06-1.27-3.13-1.84A34.12,34.12,0,0,0,225.52,272.45Z" fill="#fff"/><path d="M260,276.2a14.41,14.41,0,0,1,3.73.62,20.93,20.93,0,0,1,3.54,1.38,23.11,23.11,0,0,1,3.28,2,26.51,26.51,0,0,1,2.94,2.45l-1.62,1a18.16,18.16,0,0,1-.66-3.33,18.74,18.74,0,0,1-.1-3.35,16.06,16.06,0,0,1,.5-3.3,13.22,13.22,0,0,1,1.2-3.08,29.89,29.89,0,0,0-.29,3.21,27.49,27.49,0,0,0,.09,3.15c.1,1,.22,2.08.41,3.1a28.84,28.84,0,0,0,.73,3,1,1,0,0,1-.64,1.25,1,1,0,0,1-.95-.2l0,0c-.9-.78-1.77-1.61-2.73-2.33s-1.92-1.43-2.92-2.09-2.06-1.27-3.13-1.84A34.19,34.19,0,0,0,260,276.2Z" fill="#fff"/><path d="M229.34,223.6a14.76,14.76,0,0,1,3.73.61,22.49,22.49,0,0,1,3.55,1.38,24.67,24.67,0,0,1,3.27,2,25.47,25.47,0,0,1,3,2.44l-1.62,1a19.19,19.19,0,0,1-.67-3.34,19.72,19.72,0,0,1-.09-3.35A16.75,16.75,0,0,1,241,221a13.32,13.32,0,0,1,1.2-3.07,29.4,29.4,0,0,0-.28,3.21,25.5,25.5,0,0,0,.09,3.15c.09,1,.22,2.07.41,3.09a29.05,29.05,0,0,0,.72,3,1,1,0,0,1-.63,1.24,1,1,0,0,1-1-.19l0,0c-.9-.79-1.76-1.62-2.73-2.33s-1.92-1.43-2.92-2.1-2-1.26-3.13-1.84A34.28,34.28,0,0,0,229.34,223.6Z" fill="#fff"/><path d="M266.79,233.5a14.33,14.33,0,0,1,3.73.61,22.49,22.49,0,0,1,3.55,1.38,24.7,24.7,0,0,1,6.21,4.41l-1.62,1a18.86,18.86,0,0,1-.66-3.33,19.72,19.72,0,0,1-.09-3.35,16.75,16.75,0,0,1,.49-3.3,13.4,13.4,0,0,1,1.2-3.08,29.8,29.8,0,0,0-.28,3.22,27.38,27.38,0,0,0,.08,3.14c.1,1.05.23,2.08.42,3.1a28.86,28.86,0,0,0,.72,3,1,1,0,0,1-.63,1.25,1,1,0,0,1-1-.19l0,0c-.9-.79-1.76-1.62-2.73-2.33s-1.92-1.43-2.92-2.1-2.06-1.27-3.13-1.84A34.12,34.12,0,0,0,266.79,233.5Z" fill="#fff"/><path d="M477.87,234.06l-.84.84-8.52,8.52L460,234.9l-.84-.84a6,6,0,1,1,8.52-8.52l.84.84.84-.84a6,6,0,0,1,8.52,0,5.9,5.9,0,0,1,1.53,2.59A6,6,0,0,1,477.87,234.06Z" fill="#fff" stroke="#fff" stroke-miterlimit="10"/><path d="M519.07,203.8l-1.46,1.46-14.8,14.8L488,205.26l-1.46-1.46A10.46,10.46,0,1,1,501.36,189l1.45,1.45,1.46-1.45a10.46,10.46,0,0,1,14.8,14.79Z" fill="#fff" stroke="#fff" stroke-miterlimit="10"/><path d="M456.55,181.26l-.92.92-9.37,9.37-9.37-9.37-.92-.92a6.63,6.63,0,0,1,9.37-9.37l.92.92.92-.92a6.63,6.63,0,0,1,9.37,9.37Z" fill="#fff" stroke="#fff" stroke-miterlimit="10"/><path d="M537.89,138l-1.49,1.49-15,15.05-15.05-15.05L504.82,138a10.64,10.64,0,1,1,15.05-15l1.49,1.48,1.48-1.48a10.64,10.64,0,0,1,15,15Z" fill="#fff" stroke="#fff" stroke-miterlimit="10"/></svg>