<svg id="af648f04-e25f-4b97-b849-3c1bd83d6758" data-name="Layer 1" xmlns="http://www.w3.org/2000/svg" xmlns:xlink="http://www.w3.org/1999/xlink" width="865.76" height="682.89" viewBox="0 0 865.76 682.89"><defs><clipPath id="a81eb69d-1420-498e-9dc4-b37f57c7d094"><path d="M728.51,250.6a14.89,14.89,0,0,0-9.69-3.85,21.17,21.17,0,0,1-8.18-1.83c-3.58-11.19-.09-32.29.37-35,0-.1,0-.18,0-.28l-29,16.28a7.87,7.87,0,0,1,.87,3.19h0a35.28,35.28,0,0,1-.63,8.87c-.58,3.36-1.37,6.33-1.7,7.53-3,3.67-7.3,5-13.51,8.77-9.45,5.68-3.59,21.42-1.94,37.38,1.81,17.5,2.43,41.16,2.43,41.16H727c-1.57-14.62,2.15-36.4,6.26-60.4C735.28,260.45,732.15,254,728.51,250.6Z" fill="#f9c7a5" stroke="#351d66" stroke-miterlimit="10"/></clipPath><clipPath id="b3bdc3f4-d61a-486b-a396-3002fd73fddb"><path d="M709,339H666.56a3.7,3.7,0,0,0-3.35,2.1c-4.67,9.79-21.12,50.48,11.52,238.39h31Z" fill="#7ddcf2" stroke="#351d66" stroke-miterlimit="10"/></clipPath><clipPath id="f037df43-75f0-495b-8b90-40d668e67ab0"><path d="M686.73,339h43.68s32.89,34.89-8.2,240.49H690Z" fill="#7ddcf2" stroke="#351d66" stroke-miterlimit="10"/></clipPath><clipPath id="b7663f79-66c7-4f7b-bf80-759ae7505e06"><path d="M669.36,186.32s1.42-6.67,3.32-9c0,0,7.41,8.89,28.12,6,0,0-1.16,7.51,0,8.36s3.42.36,3.78,4.11-.34,8.45,2.25,7.6,3.69-7.46,8.77-5.75c3.45,1.16,4.25,4.93,3.25,7.8,0,0,3.49-3.45,3.28-10.4s-2-15.86-11.72-18.87c0,0,.21-10-9.19-12.14s-16.49,1.54-25.4-2.39S664.8,179.38,669.36,186.32Z" fill="#f48225" data-secondary="true" stroke="#351d66" stroke-miterlimit="10"/></clipPath><clipPath id="a7417651-5a01-4ef1-b8a9-1f8951dd7ee2"><path d="M684.56,257.09c-3.42-9.35-16.23-10.2-21.13-1.53a44.51,44.51,0,0,0-4,10.37c-6.85,25.5-38.12,111.59-39.31,114.87-4-1.12-9.74-1.75-17.76-.91a2.9,2.9,0,0,0-.86,5.55c4.64,2,12.4,3.41,24.8,1a8.14,8.14,0,0,0,4.2-2.19c36.53-36.74,49.37-90.83,54.31-111.78C686.34,265.74,685.9,260.77,684.56,257.09Z" fill="#f9c7a5" stroke="#351d66" stroke-miterlimit="10"/></clipPath><clipPath id="a4d13cc8-6388-4fca-813b-eb2c2279073b"><path d="M667.72,250.34a13.36,13.36,0,0,1,16.27,4,14.52,14.52,0,0,1,2.74,8.92c0,10.15-6,31.86-7.07,35.86a.71.71,0,0,1-.84.5l-28.25-6a.71.71,0,0,1-.53-.93l11.82-35.39a11.13,11.13,0,0,1,5.69-6.86Z" fill="#f48225" data-secondary="true" stroke="#351d66" stroke-miterlimit="10"/></clipPath><clipPath id="aad72225-a3fc-4bb4-8d6c-333175896379"><path d="M710.5,242.52l-5.85,4.85a32,32,0,0,0-11.59,23.95l-1.39,72.81H731V300.91a.66.66,0,0,0-.95-.59l-.6.29c-6.87,3.17-24.08-6.45-23.78-14,.58-14.75-4.35-37.5,15.06-42.84A28.29,28.29,0,0,0,710.5,242.52Z" fill="#686175" data-primary="true" stroke="#351d66" stroke-miterlimit="10"/></clipPath><clipPath id="fcac67ce-abee-49cd-8625-f42b6436e8da"><path d="M731.72,257.09c-3.42-9.35-16.23-10.2-21.14-1.53a44.54,44.54,0,0,0-4,10.37c-6.86,25.53-38.18,111.76-39.32,114.88-4-1.12-9.76-1.76-17.81-.92a2.9,2.9,0,0,0-.87,5.54c4.07,1.76,20,.94,25.5.59a5,5,0,0,0,3.22-1.44c36.79-36.74,49.7-91.11,54.65-112.13C733.5,265.74,733.06,260.77,731.72,257.09Z" fill="#f9c7a5" stroke="#351d66" stroke-miterlimit="10"/></clipPath><clipPath id="f7d0bf82-05b6-440b-8944-9b39fece4c10"><path d="M714.87,250.34a13.37,13.37,0,0,1,16.28,4,14.46,14.46,0,0,1,2.73,8.92c0,9.6-5.33,29.55-6.84,35.06a1.59,1.59,0,0,1-1.86,1.13l-26.5-5.68a1.58,1.58,0,0,1-1.18-2.05L709,257.28a11.12,11.12,0,0,1,5.68-6.86Z" fill="#f48225" data-secondary="true" stroke="#351d66" stroke-miterlimit="10"/></clipPath><clipPath id="f1488b1b-5457-420f-9c5f-df32b1f1e901"><path d="M680.5,243.14l.81,2.41A71.28,71.28,0,0,1,684.78,273l-4.28,71.11H663.78l-1.92-86.85S660.49,249,680.5,243.14Z" fill="#686175" data-primary="true" stroke="#351d66" stroke-miterlimit="10"/></clipPath><clipPath id="bec6e6a2-b2b1-4dae-ac7e-85823c9b980b"><path d="M138.78,404.27c-6.91,1.32-28.51,1.77-28.51,1.77s-1.79-5.5,4.86-11.31c13.79-12.05,49.33-20.42,54.41-21.63,0,0,8.56-5.24,25.69-7.46.5-.49,3.21-3.13,4-4.1a1.43,1.43,0,0,1,.16-.24h0a2.14,2.14,0,0,1,2.17-.75l4.3,1.09a2.08,2.08,0,0,1,1,.6h0a2.26,2.26,0,0,1,.23.31l1.57,2.57-8.53,4.47,0,0C193.43,373.66,145.22,403,138.78,404.27Z" fill="#f9c7a5" stroke="#351d66" stroke-miterlimit="10"/></clipPath><clipPath id="a4e31a3c-718d-485c-bbaf-d672760d4699"><path d="M135.47,381.33a2.7,2.7,0,0,1,3.53,1.38c0,.07.07.14.1.22.72,1.59,1.72,3.52,2.59,5.17h0c1.06,2,8,13,8,13l-24.33,12.21-18.84-9.77c.19-4.49,8.64-10.9,9.56-17.88A51.31,51.31,0,0,0,135.47,381.33Z" fill="#7ddcf2" stroke="#351d66" stroke-miterlimit="10"/></clipPath><clipPath id="ef1ef4d8-8a6b-42e0-99b5-ae43cde00dbc"><path d="M150.3,599.09s-6.23,4.89-18.54,4.58c0,0-12.92-55.3-15.37-58.66-.58-.79-1.79-2.85-3.31-5.58-.12-.23-.26-.47-.39-.71-5-8.9-12.71-23.83-13.26-26.1-.76-3.05,8.15-42.25,15.46-41a39.23,39.23,0,0,1,12.21,4.59c.69.41,1.07.66,1.07.66s.27,1.12.75,3.05c.43,1.76,1,4.19,1.75,7.07.09.36.17.72.27,1.1,4.05,16.47,11.25,45.82,12.34,50.81C144.81,545.93,150.3,599.09,150.3,599.09Z" fill="#f48225" data-secondary="true" stroke="#351d66" stroke-miterlimit="10"/></clipPath><clipPath id="aff0c007-fc28-472c-899c-957e2f845a65"><path d="M75.48,351.31c-1.3-5.63.31-9.8,2.89-13.8,2.48-3.84,6-4,9.32-7.26,3.15-3.07,9-5.08,13.71-5.08,15,0,27.93,9.16,25,24.7-.94,4.94-.14,8.83-4.14,14.6-5,7.21-11.07,13-20.83,13-5.18,0-9.72-1.2-13.71-5-2.18-2.06-5.29-2.31-7.21-4.55C76.61,363.42,76.9,357.47,75.48,351.31Z" fill="#f48225" data-secondary="true" stroke="#351d66" stroke-miterlimit="10"/></clipPath><clipPath id="fce5a0ac-67d4-4fe4-a302-93dc6bf58c00"><path d="M115.14,387.81l-18.66,9.54-3.74-13a39.55,39.55,0,0,0,3.45-11.81,49.09,49.09,0,0,0,.39-10.66l15.2,7.79a28.58,28.58,0,0,0-.6,3.48,25.15,25.15,0,0,0,.26,8.13A11.24,11.24,0,0,0,115.14,387.81Z" fill="#f9c7a5" stroke="#351d66" stroke-miterlimit="10"/></clipPath><clipPath id="e4b9f882-2446-49f4-bfeb-9ca3c1b8d088"><path d="M134.51,469.71l-5.85-73.48a10.67,10.67,0,0,0-7.74-9.4,73,73,0,0,0-8.1-1.79c.08,2.68-.68,5.11-5.38,5.73-6.26.81-10.71-2.2-13.54-5.1l-1.16-1.26-.78,0s-3.63.5-8.78,1.62a60.58,60.58,0,0,0-7.82,2.22c-3,1.1-5.6,2.48-7,4.18h0c-4.82,5.91-12.74,23.72-12.74,23.72s13.19,4.89,16.52,7.74l.08.64,2.06,17.15-6.15,34.15a5.47,5.47,0,0,0-.08.9,5,5,0,0,0,3.85,4.88l1.51.23c6.52.91,33,4.07,53.74-1.56A10.08,10.08,0,0,0,134.51,469.71Z" fill="#7ddcf2" stroke="#351d66" stroke-miterlimit="10"/></clipPath><clipPath id="b8398c9a-2fa5-417e-af76-c850b8c989da"><path d="M57.4,416.82c5,1.56,12.66,4.95,15,7.23-2.57,5.9-4,9.8-4,9.8,2.63-1.17,20.4-2.78,20.4-2.78s1.47-10.85,12.06-11.59c0,0,4.41,0,3.51,3s-1,1.71-2.19,6-4.25,7.54-7.53,7.73l-.25.07c-13.68,11.33-32.37,11.42-38,11.16a2.28,2.28,0,0,1-2.11-1.74C52.07,436.35,53.55,426.64,57.4,416.82Z" fill="#f9c7a5" stroke="#351d66" stroke-miterlimit="10"/></clipPath><clipPath id="a94063be-ca51-455b-930b-1ce96af0066d"><path d="M336.9,257.79a13.36,13.36,0,0,0-14,9.25,14.49,14.49,0,0,0,.41,9.32c1.61,4.48,12.5,26.18,29.22,44.32,18.81,20.4,42.63,39,50.14,44.66a2.42,2.42,0,0,0,3.65-.9l6.49-13.64a2.43,2.43,0,0,0-.28-2.55l-67.81-85.89a11.11,11.11,0,0,0-7.65-4.55Z" fill="#f48225" data-secondary="true" stroke="#351d66" stroke-miterlimit="10"/></clipPath><clipPath id="b0a3d032-7470-47aa-aed3-51ec569a34cd"><path d="M408.29,592.09a2,2,0,0,0-2-.34c-11.2,3.91-30.2-2.46-32.78-3.36-1.09-15-12.69-171.77-22.05-205.47-1.55-5.59-3.23-10.64-5-15.23a112.12,112.12,0,0,1-11.61,2.08c-5.76.67-11.59.82-17.35,1.59-4.65.62-9.06,2.07-13.58,3.12L352.3,592.26a31.29,31.29,0,0,0,1.61,12.26,3.78,3.78,0,0,0,4.34,2.4l49.2-10.31a1.88,1.88,0,0,0,1.32-1A2.72,2.72,0,0,0,408.29,592.09Z" fill="#f9c7a5" stroke="#351d66" stroke-miterlimit="10"/></clipPath><clipPath id="ef46d4b3-ba50-4612-9532-8be803b93c02"><polygon points="365.95 447.3 315.58 447.3 314.91 441.78 314.71 440.09 312.1 418.47 301.81 333.4 320.58 333.79 341.79 334.23 364.42 440.09 364.77 441.78 365.95 447.3" fill="#7ddcf2" stroke="#351d66" stroke-miterlimit="10"/></clipPath><clipPath id="b57741eb-aa17-4d23-8726-b71e278c5b96"><path d="M292.7,335s-22.61,15.83-26.57,52.36c-1.38,12.7-2.5,41.43-3.36,73.53C240.92,511.6,217,569.3,214.1,576.39a31.5,31.5,0,0,0-5.69,10.55,3.79,3.79,0,0,0,2.08,4.51l45.79,20.76a1.89,1.89,0,0,0,1.64,0,2.72,2.72,0,0,0,1.71-3.14,1.94,1.94,0,0,0-1.39-1.42c-11.68-3.58-21.22-18.79-22-20.06L261.05,542l35-62.58a46.71,46.71,0,0,0,5.57-16.86l12.73-98.49,1.26-9.78Z" fill="#f9c7a5" stroke="#351d66" stroke-miterlimit="10"/></clipPath><clipPath id="b8050619-0262-46e5-bbcc-30156e73271e"><path d="M305.39,245.34s-37-5.61-41,13.76-2.53,40.21,10.95,38.31S307.18,256.69,305.39,245.34Z" fill="#f48225" data-secondary="true" stroke="#351d66" stroke-miterlimit="10"/></clipPath><clipPath id="fb82430f-db27-4b83-bdb8-4256350d5592"><path d="M280.44,330.2h59.25c.32-8.38,1-22.39,2.18-33.79,1.65-16,7.51-31.7-1.95-37.38-6.2-3.73-10.47-5.1-13.5-8.77-.33-1.21-1.12-4.17-1.71-7.54a35.61,35.61,0,0,1-.62-8.86h0a7.82,7.82,0,0,1,.87-3.19l-29-16.28c0,.09,0,.18.05.28.46,2.69,3.95,23.79.37,35a21.17,21.17,0,0,1-8.18,1.83,14.83,14.83,0,0,0-9.69,3.85c-3.64,3.43-6.78,9.85-4.72,21.85C277.3,297.43,280.48,316.08,280.44,330.2Z" fill="#f9c7a5" stroke="#351d66" stroke-miterlimit="10"/></clipPath><clipPath id="e72e361e-abec-47bc-82aa-c047900212d0"><path d="M326.42,250.26c-7.67,23.79-30-.62-30-.62s-7.8,1.18-12.64,1.39-12,4.28-11.23,18.8,2.32,39.16,2.46,41,1.82,22.59,1.82,22.59l65,.83,3.79-65.45s.61-9.79-8.33-12.63S326.42,250.26,326.42,250.26Z" fill="#f48225" data-secondary="true" stroke="#351d66" stroke-miterlimit="10"/></clipPath></defs><path d="M728.51,250.6a14.89,14.89,0,0,0-9.69-3.85,21.17,21.17,0,0,1-8.18-1.83c-3.58-11.19-.09-32.29.37-35,0-.1,0-.18,0-.28l-29,16.28a7.87,7.87,0,0,1,.87,3.19h0a35.28,35.28,0,0,1-.63,8.87c-.58,3.36-1.37,6.33-1.7,7.53-3,3.67-7.3,5-13.51,8.77-9.45,5.68-3.59,21.42-1.94,37.38,1.81,17.5,2.43,41.16,2.43,41.16H727c-1.57-14.62,2.15-36.4,6.26-60.4C735.28,260.45,732.15,254,728.51,250.6Z" fill="#f9c7a5"/><g clip-path="url(#a81eb69d-1420-498e-9dc4-b37f57c7d094)"><path d="M682.34,238c15.75,2,23.28-17.81,23.57-18.52-2.9,4.62-6.67,7.95-10.79,9.06a31,31,0,0,1-12,.62.38.38,0,0,0-.1,0A35.28,35.28,0,0,1,682.34,238Z" fill="#f7a091"/></g><path d="M728.51,250.6a14.89,14.89,0,0,0-9.69-3.85,21.17,21.17,0,0,1-8.18-1.83c-3.58-11.19-.09-32.29.37-35,0-.1,0-.18,0-.28l-29,16.28a7.87,7.87,0,0,1,.87,3.19h0a35.28,35.28,0,0,1-.63,8.87c-.58,3.36-1.37,6.33-1.7,7.53-3,3.67-7.3,5-13.51,8.77-9.45,5.68-3.59,21.42-1.94,37.38,1.81,17.5,2.43,41.16,2.43,41.16H727c-1.57-14.62,2.15-36.4,6.26-60.4C735.28,260.45,732.15,254,728.51,250.6Z" fill="none" stroke="#351d66" stroke-miterlimit="10"/><path d="M698.69,589.24l2.78-237H662.25a149.38,149.38,0,0,0-5.74,33.62c-2.25,34.9,18.54,190.59,20.56,205.61l-.47.14s-15.76,10.88-28.4,9.24a2,2,0,0,0-1.86.73,2.73,2.73,0,0,0,.26,3.56,1.91,1.91,0,0,0,1.49.7h50.28a3.8,3.8,0,0,0,3.76-3.25C702.47,600.24,698.69,589.24,698.69,589.24Z" fill="#f9c7a5" stroke="#351d66" stroke-miterlimit="10"/><path d="M709,339H666.56a3.7,3.7,0,0,0-3.35,2.1c-4.67,9.79-21.12,50.48,11.52,238.39h31Z" fill="#7ddcf2"/><g clip-path="url(#b3bdc3f4-d61a-486b-a396-3002fd73fddb)"><path d="M681.87,579.59s-1-2.26-2.33-6.08a89.87,89.87,0,0,1-2.74-47.71c3.12-14.79,7.43-43,1.88-68.57,0,0-19.13-96.06-4-117.58h-10S645.6,364,660,481.94l14.78,97.58Z" fill="#69c4e1"/></g><path d="M709,339H666.56a3.7,3.7,0,0,0-3.35,2.1c-4.67,9.79-21.12,50.48,11.52,238.39h31Z" fill="none" stroke="#351d66" stroke-miterlimit="10"/><path d="M645.27,602.08a15.9,15.9,0,0,0,.28,1.68c0,.2.1.39.14.58a2,2,0,0,0,1.89,1.49c8.6.15,52.85.93,55.74-.35,1.1-.47,1.61-1.87,1.81-3.61a15.2,15.2,0,0,0,.08-1.69,30,30,0,0,0-1.19-7.94c-.68-2-.29-7.84-.13-9.91a.6.6,0,0,0-.6-.67s0,0-.09,0l-27.31,2.84-.19,0a.65.65,0,0,0-.58.72c1.09,11.24-23.48,11-27.61,12C645.35,597.82,645,600.05,645.27,602.08Z" fill="#2d227a"/><path d="M645.27,602.08a15.9,15.9,0,0,0,.28,1.68l59.58-1.89a15.2,15.2,0,0,0,.08-1.69Z" fill="#f98181"/><path d="M696.59,585.89a2.85,2.85,0,0,0-1.91,1.67,5.17,5.17,0,0,0-.28,3.32h0a5.09,5.09,0,0,0,1.71,2.85,2.69,2.69,0,0,0,4.37-1,5.14,5.14,0,0,0,.28-3.31,4.82,4.82,0,0,0-2.44-3.32A2.6,2.6,0,0,0,696.59,585.89Z" fill="#f98181"/><path d="M739.38,385.89a84.67,84.67,0,0,0-6.1-33.62h-38.9l1.41,238.78-.54.59s-15.77,10.88-28.41,9.24a1.94,1.94,0,0,0-1.85.73,2.72,2.72,0,0,0,.25,3.56,1.92,1.92,0,0,0,1.5.7H717a3.79,3.79,0,0,0,3.76-3.25,31.65,31.65,0,0,0-.81-11.89C720.84,582.88,738.85,421.74,739.38,385.89Z" fill="#f9c7a5" stroke="#351d66" stroke-miterlimit="10"/><path d="M686.73,339h43.68s32.89,34.89-8.2,240.49H690Z" fill="#7ddcf2"/><g clip-path="url(#f037df43-75f0-495b-8b90-40d668e67ab0)"><path d="M722.08,340.5s-20.77,50.65-11.81,85.86a48.61,48.61,0,0,0,5.78,13.31c4.84,7.91,15.93,31.1,2.8,61.55a173.92,173.92,0,0,0-12.23,40.88c-2.44,15.09-4.12,31.71-.93,37.42h16.52s39.36-179.66,8.2-240.49Z" fill="#69c4e1"/></g><path d="M686.73,339h43.68s32.89,34.89-8.2,240.49H690Z" fill="none" stroke="#351d66" stroke-miterlimit="10"/><path d="M662.9,602.08a13.64,13.64,0,0,0,.29,1.68c0,.2.09.39.13.58a2,2,0,0,0,1.89,1.49c8.6.15,52.85.93,55.75-.35,1.09-.47,1.61-1.87,1.8-3.61a15.2,15.2,0,0,0,.08-1.69,29.63,29.63,0,0,0-1.19-7.94c-.68-2-.29-7.84-.12-9.91a.61.61,0,0,0-.6-.67s-.06,0-.1,0l-27.31,2.84-.19,0a.66.66,0,0,0-.58.72c1.09,11.24-23.48,11-27.6,12C663,597.82,662.67,600.05,662.9,602.08Z" fill="#2d227a"/><path d="M662.9,602.08a13.64,13.64,0,0,0,.29,1.68l59.57-1.89a15.2,15.2,0,0,0,.08-1.69Z" fill="#f98181"/><path d="M714.23,585.89a2.87,2.87,0,0,0-1.92,1.67,5.17,5.17,0,0,0-.28,3.32h0a5.09,5.09,0,0,0,1.71,2.85,2.69,2.69,0,0,0,4.37-1,5.14,5.14,0,0,0,.28-3.31,4.79,4.79,0,0,0-2.44-3.32A2.58,2.58,0,0,0,714.23,585.89Z" fill="#f98181"/><ellipse cx="689.54" cy="197.83" rx="33.23" ry="23.81" transform="translate(390.53 849.9) rotate(-81.37)" fill="#f9c7a5" stroke="#351d66" stroke-miterlimit="10"/><ellipse cx="713.77" cy="203.36" rx="5.59" ry="6.64" fill="#f9c7a5" stroke="#351d66" stroke-miterlimit="10"/><path d="M676.47,197.37c0,1.81-.71,3.27-1.59,3.27s-1.6-1.46-1.6-3.27.72-3.27,1.6-3.27S676.47,195.57,676.47,197.37Z" fill="#351d66"/><path d="M687.1,197.37c0,1.81.72,3.27,1.6,3.27s1.59-1.46,1.59-3.27-.71-3.27-1.59-3.27S687.1,195.57,687.1,197.37Z" fill="#351d66"/><path d="M675.8,207.25a7.78,7.78,0,0,0,2.4,2.74,6.1,6.1,0,0,0,3.57,1.19,6.27,6.27,0,0,0,3.56-1.23,11.54,11.54,0,0,0,1.38-1.23c.37-.48.74-1,1.07-1.47-.49.37-.94.75-1.4,1.12s-1,.68-1.46.94a6.57,6.57,0,0,1-3.15.9,6.48,6.48,0,0,1-3.17-.86A13.49,13.49,0,0,1,675.8,207.25Z" fill="#351d66"/><path d="M680.21,193.21c-.29,1.23-.49,2.45-.72,3.66s-.46,2.42-.8,3.56q-.12.44-.27.84a2.86,2.86,0,0,0-.28,1.06,2.15,2.15,0,0,0,1.14,1.94,2.6,2.6,0,0,0,2.09.11,5.18,5.18,0,0,0,1.65-1c-1.15.43-2.49.77-3.29.16a1.26,1.26,0,0,1-.57-1.17,2.21,2.21,0,0,1,.24-.72c.12-.31.23-.62.32-.93a17.34,17.34,0,0,0,.6-3.75A19.79,19.79,0,0,0,680.21,193.21Z" fill="#351d66"/><path d="M669.36,186.32s1.42-6.67,3.32-9c0,0,7.41,8.89,28.12,6,0,0-1.16,7.51,0,8.36s3.42.36,3.78,4.11-.34,8.45,2.25,7.6,3.69-7.46,8.77-5.75c3.45,1.16,4.25,4.93,3.25,7.8,0,0,3.49-3.45,3.28-10.4s-2-15.86-11.72-18.87c0,0,.21-10-9.19-12.14s-16.49,1.54-25.4-2.39S664.8,179.38,669.36,186.32Z" fill="#f48225" data-secondary="true"/><g clip-path="url(#b7663f79-66c7-4f7b-bf80-759ae7505e06)"><path d="M669.3,184.7a18.43,18.43,0,0,1-.45-3.86,19.24,19.24,0,0,1,.41-3.91,10.52,10.52,0,0,1,4.38-6.76,9.94,9.94,0,0,1,4-1.29,13.47,13.47,0,0,1,4,.2c.64.15,1.28.31,1.91.49s1.25.39,1.84.64a28,28,0,0,1,3.46,1.74l0,.09a29.53,29.53,0,0,0-7.28-2.19,15,15,0,0,0-3.79-.07,9,9,0,0,0-3.54,1.24,10,10,0,0,0-4.16,6.11,21.87,21.87,0,0,0-.61,7.56Z" opacity="0.2"/><path d="M672.36,176.49c1.42.25,2.84.49,4.26.62s2.84.33,4.26.39a73.44,73.44,0,0,0,8.52.08,75.75,75.75,0,0,0,8.5-.73c2.84-.34,5.64-.92,8.5-1.4l0,.1c-1.39.38-2.76.83-4.16,1.16s-2.81.69-4.23.9a63.74,63.74,0,0,1-8.6,1,59.38,59.38,0,0,1-8.64-.3,43.68,43.68,0,0,1-8.47-1.69Z" opacity="0.2"/><path d="M700.78,183.24a11.55,11.55,0,0,1,5.93-.5,9.21,9.21,0,0,1,5.39,3,11.35,11.35,0,0,1,2.33,5.68c.09,1,.1,2,.1,3s-.25,2-.46,2.92H714l0-2.89c-.09-.95-.17-1.91-.33-2.86a12,12,0,0,0-2.34-5.17,9.08,9.08,0,0,0-4.81-2.94,14.27,14.27,0,0,0-5.71-.16Z" opacity="0.2"/></g><path d="M669.36,186.32s1.42-6.67,3.32-9c0,0,7.41,8.89,28.12,6,0,0-1.16,7.51,0,8.36s3.42.36,3.78,4.11-.34,8.45,2.25,7.6,3.69-7.46,8.77-5.75c3.45,1.16,4.25,4.93,3.25,7.8,0,0,3.49-3.45,3.28-10.4s-2-15.86-11.72-18.87c0,0,.21-10-9.19-12.14s-16.49,1.54-25.4-2.39S664.8,179.38,669.36,186.32Z" fill="none" stroke="#351d66" stroke-miterlimit="10"/><path d="M684.56,257.09c-3.42-9.35-16.23-10.2-21.13-1.53a44.51,44.51,0,0,0-4,10.37c-6.85,25.5-38.12,111.59-39.31,114.87-4-1.12-9.74-1.75-17.76-.91a2.9,2.9,0,0,0-.86,5.55c4.64,2,12.4,3.41,24.8,1a8.14,8.14,0,0,0,4.2-2.19c36.53-36.74,49.37-90.83,54.31-111.78C686.34,265.74,685.9,260.77,684.56,257.09Z" fill="#f9c7a5"/><g clip-path="url(#a7417651-5a01-4ef1-b8a9-1f8951dd7ee2)"><polygon points="662.72 296.2 650.69 293.64 648.13 301.26 662.72 296.2" fill="#f7a091"/></g><path d="M684.56,257.09c-3.42-9.35-16.23-10.2-21.13-1.53a44.51,44.51,0,0,0-4,10.37c-6.85,25.5-38.12,111.59-39.31,114.87-4-1.12-9.74-1.75-17.76-.91a2.9,2.9,0,0,0-.86,5.55c4.64,2,12.4,3.41,24.8,1a8.14,8.14,0,0,0,4.2-2.19c36.53-36.74,49.37-90.83,54.31-111.78C686.34,265.74,685.9,260.77,684.56,257.09Z" fill="none" stroke="#351d66" stroke-miterlimit="10"/><path d="M667.72,250.34a13.36,13.36,0,0,1,16.27,4,14.52,14.52,0,0,1,2.74,8.92c0,10.15-6,31.86-7.07,35.86a.71.71,0,0,1-.84.5l-28.25-6a.71.71,0,0,1-.53-.93l11.82-35.39a11.13,11.13,0,0,1,5.69-6.86Z" fill="#f48225" data-secondary="true"/><g clip-path="url(#a4d13cc8-6388-4fca-813b-eb2c2279073b)"><path d="M649.78,293.43l12.94,2.77s-8-12.88-4.63-27.49Z" opacity="0.2"/></g><path d="M667.72,250.34a13.36,13.36,0,0,1,16.27,4,14.52,14.52,0,0,1,2.74,8.92c0,10.15-6,31.86-7.07,35.86a.71.71,0,0,1-.84.5l-28.25-6a.71.71,0,0,1-.53-.93l11.82-35.39a11.13,11.13,0,0,1,5.69-6.86Z" fill="none" stroke="#351d66" stroke-miterlimit="10"/><path d="M680.5,243.14c7.68,23.79,30-.62,30-.62s7.8,1.18,12.65,1.39,12,4.28,11.22,18.81-4.66,38.89-4.8,40.71,0,39.58,0,39.58H664.41l-3.07-81.34s-.6-9.79,8.33-12.64S680.5,243.14,680.5,243.14Z" fill="#f48225" data-secondary="true" stroke="#351d66" stroke-miterlimit="10"/><path d="M710.5,242.52l-5.85,4.85a32,32,0,0,0-11.59,23.95l-1.39,72.81H731V300.91a.66.66,0,0,0-.95-.59l-.6.29c-6.87,3.17-24.08-6.45-23.78-14,.58-14.75-4.35-37.5,15.06-42.84A28.29,28.29,0,0,0,710.5,242.52Z" fill="#686175" data-primary="true"/><g clip-path="url(#aad72225-a3fc-4bb4-8d6c-333175896379)"><path d="M691.67,344.13H731l-.95-43.81S727.25,335.86,691.67,344.13Z" opacity="0.2"/></g><path d="M710.5,242.52l-5.85,4.85a32,32,0,0,0-11.59,23.95l-1.39,72.81H731V300.91a.66.66,0,0,0-.95-.59l-.6.29c-6.87,3.17-24.08-6.45-23.78-14,.58-14.75-4.35-37.5,15.06-42.84A28.29,28.29,0,0,0,710.5,242.52Z" fill="none" stroke="#351d66" stroke-miterlimit="10"/><path d="M731.72,257.09c-3.42-9.35-16.23-10.2-21.14-1.53a44.54,44.54,0,0,0-4,10.37c-6.86,25.53-38.18,111.76-39.32,114.88-4-1.12-9.76-1.76-17.81-.92a2.9,2.9,0,0,0-.87,5.54c4.07,1.76,20,.94,25.5.59a5,5,0,0,0,3.22-1.44c36.79-36.74,49.7-91.11,54.65-112.13C733.5,265.74,733.06,260.77,731.72,257.09Z" fill="#f9c7a5"/><g clip-path="url(#fcac67ce-abee-49cd-8625-f42b6436e8da)"><polygon points="697.85 293.64 724.76 299.39 696.74 296.94 697.85 293.64" fill="#f7a091"/></g><path d="M731.72,257.09c-3.42-9.35-16.23-10.2-21.14-1.53a44.54,44.54,0,0,0-4,10.37c-6.86,25.53-38.18,111.76-39.32,114.88-4-1.12-9.76-1.76-17.81-.92a2.9,2.9,0,0,0-.87,5.54c4.07,1.76,20,.94,25.5.59a5,5,0,0,0,3.22-1.44c36.79-36.74,49.7-91.11,54.65-112.13C733.5,265.74,733.06,260.77,731.72,257.09Z" fill="none" stroke="#351d66" stroke-miterlimit="10"/><path d="M714.87,250.34a13.37,13.37,0,0,1,16.28,4,14.46,14.46,0,0,1,2.73,8.92c0,9.6-5.33,29.55-6.84,35.06a1.59,1.59,0,0,1-1.86,1.13l-26.5-5.68a1.58,1.58,0,0,1-1.18-2.05L709,257.28a11.12,11.12,0,0,1,5.68-6.86Z" fill="#f48225" data-secondary="true"/><g clip-path="url(#f7d0bf82-05b6-440b-8944-9b39fece4c10)"><path d="M696.94,293.43l18.54,3.84s-6-32.28,9.57-47.63c0,0-12.13-3.86-16,7.64Z" opacity="0.2"/></g><path d="M714.87,250.34a13.37,13.37,0,0,1,16.28,4,14.46,14.46,0,0,1,2.73,8.92c0,9.6-5.33,29.55-6.84,35.06a1.59,1.59,0,0,1-1.86,1.13l-26.5-5.68a1.58,1.58,0,0,1-1.18-2.05L709,257.28a11.12,11.12,0,0,1,5.68-6.86Z" fill="none" stroke="#351d66" stroke-miterlimit="10"/><path d="M680.5,243.14l.81,2.41A71.28,71.28,0,0,1,684.78,273l-4.28,71.11H663.78l-1.92-86.85S660.49,249,680.5,243.14Z" fill="#686175" data-primary="true"/><g clip-path="url(#f1488b1b-5457-420f-9c5f-df32b1f1e901)"><path d="M663.78,344.13H680.5s-8.88-4.33-6.19-15.5c0,0,6.93-22.71-11.93-25Z" opacity="0.2"/></g><path d="M680.5,243.14l.81,2.41A71.28,71.28,0,0,1,684.78,273l-4.28,71.11H663.78l-1.92-86.85S660.49,249,680.5,243.14Z" fill="none" stroke="#351d66" stroke-miterlimit="10"/><rect x="665.43" y="268.06" width="13.05" height="5.05" rx="0.46" opacity="0.2"/><rect x="533.18" y="279.56" width="10.74" height="36.42" fill="#aac8f9" stroke="#6259b0" stroke-miterlimit="10"/><path d="M605.31,339.34H585.92l-19-27.57H528.47v69.34h83.65v-35A6.81,6.81,0,0,0,605.31,339.34Z" fill="#aac8f9" stroke="#6259b0" stroke-miterlimit="10"/><rect x="528.47" y="269.87" width="20.14" height="14.95" rx="0.69" fill="#aac8f9" stroke="#6259b0" stroke-miterlimit="10"/><rect x="547.77" y="315.98" width="1.68" height="52.62" fill="#d2e1f9"/><rect x="521.89" y="396.42" width="343.95" height="171.6" fill="#d2e1f9"/><rect x="499.3" y="381.11" width="368.69" height="15.31" fill="#aac8f9" stroke="#6259b0" stroke-miterlimit="10"/><polygon points="803.41 285.28 798.11 280.37 792.7 285.37 787.22 280.3 781.74 285.37 776.33 280.37 771.03 285.28 765.61 280.26 760.19 285.28 754.88 280.37 749.48 285.37 743.99 280.3 743.99 287.97 743.99 290.26 743.99 381.11 808.83 381.11 808.83 291.31 808.83 287.97 808.83 280.26 803.41 285.28" fill="#f48225" data-secondary="true" stroke="#351d66" stroke-miterlimit="10"/><rect x="532.03" y="559.67" width="335.96" height="46.73" fill="#aac8f9" stroke="#6259b0" stroke-miterlimit="10"/><polygon points="626.44 433.58 626.44 426.57 574.51 426.57 574.51 433.58 569.46 479.15 631.49 479.15 626.44 433.58" fill="#f98181" stroke="#351d66" stroke-miterlimit="10"/><path d="M501,444.66h13.55a6,6,0,0,1,6,6v32.63a.46.46,0,0,1-.46.46H495.38a.46.46,0,0,1-.46-.46V450.7a6,6,0,0,1,6-6Z" fill="#f48225" data-secondary="true" stroke="#351d66" stroke-miterlimit="10"/><rect x="502.81" y="441.53" width="9.85" height="6.44" fill="#f48225" data-secondary="true" stroke="#351d66" stroke-miterlimit="10"/><rect x="501.19" y="439.36" width="13.1" height="2.68" fill="#f48225" data-secondary="true" stroke="#351d66" stroke-miterlimit="10"/><path d="M515.09,464.91a7.35,7.35,0,1,1-7.35-7.36A7.35,7.35,0,0,1,515.09,464.91Z" opacity="0.2"/><path d="M585.86,485.13l-19.58,18.49-43.93-46.53a2,2,0,0,1-.55-1.25L521.18,445l8.77-8.27L540.71,438a2,2,0,0,1,1.22.61Z" fill="#fff" stroke="#6259b0" stroke-miterlimit="10"/><rect x="516.03" y="437.24" width="16.18" height="4.22" rx="0.42" transform="translate(-158.6 479.67) rotate(-43.35)" fill="#fff" stroke="#6259b0" stroke-miterlimit="10"/><rect x="541.26" y="439.81" width="21.71" height="59.29" transform="translate(-171.63 507.11) rotate(-43.35)" fill="#d2e1f9"/><rect x="572.33" y="484.14" width="6.74" height="1.68" transform="translate(-175.85 527.54) rotate(-43.35)" fill="#450d20"/><rect x="571.94" y="480.75" width="3.23" height="1.68" transform="translate(-174.11 525.13) rotate(-43.35)" fill="#450d20"/><path d="M575.26,464.07h54.17a1.13,1.13,0,0,1,1.13,1.13v65.12a1.12,1.12,0,0,1-1.12,1.12H575.26a1.13,1.13,0,0,1-1.13-1.13V465.19a1.13,1.13,0,0,1,1.13-1.13Z" transform="translate(1135.56 -73.43) rotate(93.46)" fill="#f48225" data-secondary="true" stroke="#351d66" stroke-miterlimit="10"/><path d="M593.55,510.61a13.37,13.37,0,1,1,14.15-12.54A13.36,13.36,0,0,1,593.55,510.61Z" opacity="0.2"/><path d="M527.08,525.73H472.56a2.87,2.87,0,0,1-2.84-3.3l2-13.49.24-1.69,1.66-11.05.24-1.68,2-13.44a2.89,2.89,0,0,1,2.85-2.44h42.13a2.88,2.88,0,0,1,2.85,2.44l2,13.44.24,1.68,1.66,11.05.12.84.14.85,2,13.49A2.89,2.89,0,0,1,527.08,525.73Z" fill="#f98181" stroke="#351d66" stroke-miterlimit="10"/><path d="M527.77,508.09H510c-1.55,5.48-5.53,9.37-10.18,9.37s-8.6-3.89-10.17-9.37H471.86l.12-.84,1.66-11.05.12-.84h16.77c1.92-4.16,5.36-6.94,9.28-6.94s7.38,2.78,9.28,6.94h16.78l.12.84,1.66,11.05Z" fill="#fff"/><path d="M569.88,469.57v54.68a1.17,1.17,0,0,1-1.17,1.16H521.56a1.15,1.15,0,0,1-1.15-1.16V469.57a1.16,1.16,0,0,1,1.15-1.17h47.15A1.18,1.18,0,0,1,569.88,469.57Z" fill="#7ddcf2" stroke="#351d66" stroke-miterlimit="10"/><rect x="520.4" y="471.15" width="49.47" height="1.26" fill="#fff"/><path d="M569.88,482.42v16.11c-4.11-1-10.21,3.93-16.31,12-7.47,9.89-14.53-1-24.53-7.9-3.89-2.71-6.67-1.95-8.63,0v-16.1c2-1.94,4.74-2.68,8.63,0,10,6.93,17.06,17.78,24.53,7.89C559.67,486.34,565.77,481.41,569.88,482.42Z" fill="#fff"/><path d="M515.71,575.76V548.82h64a2,2,0,0,1,1.29.47l8.28,7v12.06l-8.28,7a2,2,0,0,1-1.29.47Z" fill="#fff" stroke="#6259b0" stroke-miterlimit="10"/><rect x="583.29" y="560.18" width="16.18" height="4.22" rx="0.42" transform="translate(1153.67 -29.09) rotate(90)" fill="#fff" stroke="#6259b0" stroke-miterlimit="10"/><rect x="539.12" y="532.64" width="21.71" height="59.29" transform="translate(1112.27 12.31) rotate(90)" fill="#d2e1f9"/><circle cx="529.7" cy="602" r="14.05" fill="#2d227a"/><circle cx="529.7" cy="602" r="8.92" fill="#fff"/><path d="M529.7,602h0a7.37,7.37,0,0,1-7.36-7.36v-15.2h14.73v15.2A7.37,7.37,0,0,1,529.7,602Z" fill="#d1d3d4"/><circle cx="653.27" cy="602" r="14.05" fill="#2d227a"/><circle cx="653.27" cy="602" r="8.92" fill="#fff"/><path d="M653.27,602h0a7.36,7.36,0,0,1-7.36-7.36v-15.2h14.72v15.2A7.36,7.36,0,0,1,653.27,602Z" fill="#d1d3d4"/><path d="M427.23,377.47h0a3.7,3.7,0,0,0,3.69,3.7h27.5l48.66,152.44-7.23,29.81a17.48,17.48,0,0,0,.91,11.26,14.51,14.51,0,0,0,9.49,8.31,16.73,16.73,0,0,0,4.62.58h155v-7.75H515.7a10.06,10.06,0,0,1-5-1.23,7.78,7.78,0,0,1-4.06-8,9.14,9.14,0,0,1,.23-1.27l7.06-29.45L464,373.78H430.92A3.69,3.69,0,0,0,427.23,377.47Z" fill="#d1d3d4"/><path d="M445.56,381.17H395.05a3.7,3.7,0,0,1-3.69-3.7h0a3.69,3.69,0,0,1,3.69-3.69h50.51a3.69,3.69,0,0,1,3.69,3.69h0A3.7,3.7,0,0,1,445.56,381.17Z" fill="#f48225" data-secondary="true" stroke="#351d66" stroke-miterlimit="10"/><path d="M425.41,411.07l37.22,118.58H572.05l.66-4.51,2.76-19.23.65-4.52,4.53-31.51.66-4.51,4.53-31.51.66-4.51,2-13.75.66-4.53Zm156.51,18.28-.64,4.51-4.55,31.51-.64,4.51-4.55,31.51-.64,4.52-2.77,19.23H466l-6-19.23-1.42-4.52-9.9-31.51-1.41-4.51-9.89-31.51-1.41-4.51-4.31-13.75H583.91Z" fill="#e6e7e8"/><polygon points="572.71 525.14 572.05 529.65 570.1 529.65 570.1 525.14 572.71 525.14" fill="#e9f2e9"/><polygon points="589.13 411.07 588.47 415.6 586.52 415.6 586.52 411.07 589.13 411.07" fill="#e9f2e9"/><polygon points="586.5 429.35 585.84 433.86 434.44 433.86 434.44 429.35 586.5 429.35" fill="#e6e7e8"/><polygon points="581.31 465.37 580.65 469.88 445.54 469.88 445.54 465.37 581.31 465.37" fill="#e6e7e8"/><path d="M589.13,411.07l-.66,4.53h22.25v13.75H586.5l-.66,4.51h24.88v31.51H581.31l-.66,4.51h30.07v31.51h-34.6l-.65,4.52h35.25v19.23h-38l-.66,4.51h63.73l19.08-118.58Zm42.79,114.07H615.23V505.91H635Zm3.82-23.75H615.23V469.88h25.58Zm5.8-36H615.23V433.86h31.39Zm-26.31-36V415.6h34.32l-2.2,13.75Z" fill="#d1d3d4"/><polygon points="576.13 501.39 575.47 505.91 458.22 505.91 458.22 501.39 576.13 501.39" fill="#e9f2e9"/><rect x="479.64" y="413.34" width="4.52" height="114.06" fill="#e6e7e8"/><rect x="515.71" y="413.34" width="4.52" height="114.06" fill="#e6e7e8"/><rect x="551.78" y="413.34" width="4.52" height="114.06" fill="#e6e7e8"/><circle cx="485.91" cy="602" r="14.05" fill="#2d227a"/><circle cx="485.91" cy="602" r="8.92" fill="#fff"/><path d="M485.91,602h0a7.37,7.37,0,0,1-7.37-7.36v-15.2h14.73v15.2A7.37,7.37,0,0,1,485.91,602Z" fill="#e6e7e8"/><circle cx="609.47" cy="602" r="14.05" fill="#2d227a"/><circle cx="609.47" cy="602" r="8.92" fill="#fff"/><path d="M609.47,602h0a7.37,7.37,0,0,1-7.36-7.36v-15.2h14.72v15.2A7.36,7.36,0,0,1,609.47,602Z" fill="#e6e7e8"/><path d="M383.43,377.47h0a3.7,3.7,0,0,0,3.7,3.7h27.49l48.66,152.44-7.22,29.81a17.42,17.42,0,0,0,.91,11.26,14.49,14.49,0,0,0,9.48,8.31,16.8,16.8,0,0,0,4.63.58h155v-7.75H471.9a10.09,10.09,0,0,1-5-1.23,7.77,7.77,0,0,1-4.05-8,7.87,7.87,0,0,1,.23-1.27l7.05-29.45L420.21,373.78H387.13A3.7,3.7,0,0,0,383.43,377.47Z" fill="#e6e7e8"/><path d="M453.87,374c-.28-.45-.61-1.14-1-1.9.45-.3.43-1-.28-2.13a5.85,5.85,0,0,1-.3-.56,9.46,9.46,0,0,0-2.33-3.65,13.63,13.63,0,0,0-6.71-3.27l-.34,0c1.36-1.33.32-3.14-.57-3.1-1.17.06-8.1.33-12.95,1a34.6,34.6,0,0,0-5.82,1.4c-13.89-16.74-59-71.24-71.94-89.84a44.57,44.57,0,0,0-7.33-8.38C336.78,257,325,262.18,325,272.14c0,3.91,1.26,8.74,5,14.51,11.39,17.47,40.34,61.66,84.72,84.54a10.22,10.22,0,0,0,2.49,2.74c.63.41,7.39,1.13,16,1.79a19.67,19.67,0,0,1,4.33.31,26.36,26.36,0,0,1,5.65,1.64s1.8,2.11,2.34,2.68c1.8,1.93,4.71,1,2.92-2.11-.62-1.08-1.27-2.87-1.93-3.29-.47-.29-1-.63-1.56-1l.82.31c1.94.78,2.35,2.49,3,3,1.68,1.3,3.4.68,3.21-.66l.13.06.17.05.13,0,.17,0h.1C453.85,376.8,454.88,375.64,453.87,374Z" fill="#f9c7a5" stroke="#351d66" stroke-miterlimit="10"/><path d="M138.78,404.27c-6.91,1.32-28.51,1.77-28.51,1.77s-1.79-5.5,4.86-11.31c13.79-12.05,49.33-20.42,54.41-21.63,0,0,8.56-5.24,25.69-7.46.5-.49,3.21-3.13,4-4.1a1.43,1.43,0,0,1,.16-.24h0a2.14,2.14,0,0,1,2.17-.75l4.3,1.09a2.08,2.08,0,0,1,1,.6h0a2.26,2.26,0,0,1,.23.31l1.57,2.57-8.53,4.47,0,0C193.43,373.66,145.22,403,138.78,404.27Z" fill="#f9c7a5"/><g clip-path="url(#bec6e6a2-b2b1-4dae-ac7e-85823c9b980b)"><path d="M138.78,381.73l9.4-3.07s-4.22,6.91,3.07,19.76l-2.69,1.34S141.85,390.17,138.78,381.73Z" fill="#f7a091"/></g><path d="M138.78,404.27c-6.91,1.32-28.51,1.77-28.51,1.77s-1.79-5.5,4.86-11.31c13.79-12.05,49.33-20.42,54.41-21.63,0,0,8.56-5.24,25.69-7.46.5-.49,3.21-3.13,4-4.1a1.43,1.43,0,0,1,.16-.24h0a2.14,2.14,0,0,1,2.17-.75l4.3,1.09a2.08,2.08,0,0,1,1,.6h0a2.26,2.26,0,0,1,.23.31l1.57,2.57-8.53,4.47,0,0C193.43,373.66,145.22,403,138.78,404.27Z" fill="none" stroke="#351d66" stroke-miterlimit="10"/><path d="M135.47,381.33a2.7,2.7,0,0,1,3.53,1.38c0,.07.07.14.1.22.72,1.59,1.72,3.52,2.59,5.17h0c1.06,2,8,13,8,13l-24.33,12.21-18.84-9.77c.19-4.49,8.64-10.9,9.56-17.88A51.31,51.31,0,0,0,135.47,381.33Z" fill="#7ddcf2"/><g clip-path="url(#a4e31a3c-718d-485c-bbaf-d672760d4699)"><path d="M116.06,385.64s12.69-3.55,18,8.68l3.69,12.83-8.26,3.68S129,386.39,116.06,385.64Z" fill="#69c4e1"/></g><path d="M135.47,381.33a2.7,2.7,0,0,1,3.53,1.38c0,.07.07.14.1.22.72,1.59,1.72,3.52,2.59,5.17h0c1.06,2,8,13,8,13l-24.33,12.21-18.84-9.77c.19-4.49,8.64-10.9,9.56-17.88A51.31,51.31,0,0,0,135.47,381.33Z" fill="none" stroke="#351d66" stroke-miterlimit="10"/><path d="M84.72,401.11s-18.16-8.27-31.9-1S47.48,467,67.13,472.78h0S103.94,484.55,84.72,401.11Z" fill="#c9c6cc" stroke="#351d66" stroke-miterlimit="10"/><path d="M146.49,598.75a10.33,10.33,0,0,0,7.45,3.35,11.27,11.27,0,0,1,7.39,2.44,2.71,2.71,0,0,1-1.16,4.7l-21.67,5a3.61,3.61,0,0,1-4.4-3.07c-.21-1.59-.45-3.37-.7-4.75-.57-3.24,2-6.56,2-6.56Z" fill="#2d227a"/><path d="M150.3,599.09s-6.23,4.89-18.54,4.58c0,0-12.92-55.3-15.37-58.66-.58-.79-1.79-2.85-3.31-5.58-.12-.23-.26-.47-.39-.71-5-8.9-12.71-23.83-13.26-26.1-.76-3.05,8.15-42.25,15.46-41a39.23,39.23,0,0,1,12.21,4.59c.69.41,1.07.66,1.07.66s.27,1.12.75,3.05c.43,1.76,1,4.19,1.75,7.07.09.36.17.72.27,1.1,4.05,16.47,11.25,45.82,12.34,50.81C144.81,545.93,150.3,599.09,150.3,599.09Z" fill="#f48225" data-secondary="true"/><g clip-path="url(#ef1ef4d8-8a6b-42e0-99b5-ae43cde00dbc)"><path d="M130.67,487l-18,51.72c-5-8.9-12.71-23.83-13.26-26.1-.76-3.05,8.15-42.25,15.46-41a39.23,39.23,0,0,1,12.21,4.59c.69.41,1.07.66,1.07.66s.27,1.12.75,3.05C129.35,481.69,130,484.12,130.67,487Z" opacity="0.2"/></g><path d="M150.3,599.09s-6.23,4.89-18.54,4.58c0,0-12.92-55.3-15.37-58.66-.58-.79-1.79-2.85-3.31-5.58-.12-.23-.26-.47-.39-.71-5-8.9-12.71-23.83-13.26-26.1-.76-3.05,8.15-42.25,15.46-41a39.23,39.23,0,0,1,12.21,4.59c.69.41,1.07.66,1.07.66s.27,1.12.75,3.05c.43,1.76,1,4.19,1.75,7.07.09.36.17.72.27,1.1,4.05,16.47,11.25,45.82,12.34,50.81C144.81,545.93,150.3,599.09,150.3,599.09Z" fill="none" stroke="#351d66" stroke-miterlimit="10"/><path d="M86.18,603.73a9.9,9.9,0,0,0,6.25,4.74,10.78,10.78,0,0,1,6.49,4,2.53,2.53,0,0,1-2,4H75A3.15,3.15,0,0,1,71.88,613c.16-1.62.34-3.51.41-5,.16-3.15,3.33-5.7,3.33-5.7Z" fill="#2d227a"/><path d="M75.48,351.31c-1.3-5.63.31-9.8,2.89-13.8,2.48-3.84,6-4,9.32-7.26,3.15-3.07,9-5.08,13.71-5.08,15,0,27.93,9.16,25,24.7-.94,4.94-.14,8.83-4.14,14.6-5,7.21-11.07,13-20.83,13-5.18,0-9.72-1.2-13.71-5-2.18-2.06-5.29-2.31-7.21-4.55C76.61,363.42,76.9,357.47,75.48,351.31Z" fill="#f48225" data-secondary="true"/><g clip-path="url(#aff0c007-fc28-472c-899c-957e2f845a65)"><path d="M87.65,372.52a23.91,23.91,0,0,1-2.49-3.42,35.59,35.59,0,0,1-1.9-3.81,26.14,26.14,0,0,1-1.93-8.35,20.27,20.27,0,0,1,.3-4.33,15.89,15.89,0,0,1,1.21-4.16A19.15,19.15,0,0,1,85,344.73,19.76,19.76,0,0,1,88,341.68l.07.07a21,21,0,0,0-4.45,7,19.92,19.92,0,0,0-1.24,8.16A27.38,27.38,0,0,0,84,365a33.84,33.84,0,0,0,3.74,7.43Z" opacity="0.2"/><path d="M92.87,343.84A15.58,15.58,0,0,1,95.05,340a17.8,17.8,0,0,1,3.22-3.15,15.25,15.25,0,0,1,8.57-2.91,18.46,18.46,0,0,1,4.52.54,20.16,20.16,0,0,1,4.25,1.47c.67.33,1.32.68,2,1s1.27.74,1.89,1.15a38.11,38.11,0,0,1,3.47,2.72l-.06.08a39.49,39.49,0,0,0-7.58-4.26,21.06,21.06,0,0,0-8.45-1.73,15,15,0,0,0-8.16,2.56A18,18,0,0,0,93,343.88Z" opacity="0.2"/></g><path d="M75.48,351.31c-1.3-5.63.31-9.8,2.89-13.8,2.48-3.84,6-4,9.32-7.26,3.15-3.07,9-5.08,13.71-5.08,15,0,27.93,9.16,25,24.7-.94,4.94-.14,8.83-4.14,14.6-5,7.21-11.07,13-20.83,13-5.18,0-9.72-1.2-13.71-5-2.18-2.06-5.29-2.31-7.21-4.55C76.61,363.42,76.9,357.47,75.48,351.31Z" fill="none" stroke="#351d66" stroke-miterlimit="10"/><path d="M115.14,387.81l-18.66,9.54-3.74-13a39.55,39.55,0,0,0,3.45-11.81,49.09,49.09,0,0,0,.39-10.66l15.2,7.79a28.58,28.58,0,0,0-.6,3.48,25.15,25.15,0,0,0,.26,8.13A11.24,11.24,0,0,0,115.14,387.81Z" fill="#f9c7a5"/><g clip-path="url(#fce5a0ac-67d4-4fe4-a302-93dc6bf58c00)"><path d="M111.44,381.33c-13.7,5.71-15.25-8.74-15.25-8.74l15,.61A25.15,25.15,0,0,0,111.44,381.33Z" fill="#f7a091"/></g><path d="M115.14,387.81l-18.66,9.54-3.74-13a39.55,39.55,0,0,0,3.45-11.81,49.09,49.09,0,0,0,.39-10.66l15.2,7.79a28.58,28.58,0,0,0-.6,3.48,25.15,25.15,0,0,0,.26,8.13A11.24,11.24,0,0,0,115.14,387.81Z" fill="none" stroke="#351d66" stroke-miterlimit="10"/><path d="M71.92,481.6s-3.55,47-2.76,121.94a28.8,28.8,0,0,0,9.44,2.76c9.63,1,12-2.86,12-2.86s9.86-36.57,12.32-53.05c2.27-15.19,17.18-70,17.18-70Z" fill="#f48225" data-secondary="true" stroke="#351d66" stroke-miterlimit="10"/><path d="M134.51,469.71l-5.85-73.48a10.67,10.67,0,0,0-7.74-9.4,73,73,0,0,0-8.1-1.79c.08,2.68-.68,5.11-5.38,5.73-6.26.81-10.71-2.2-13.54-5.1l-1.16-1.26-.78,0s-3.63.5-8.78,1.62a60.58,60.58,0,0,0-7.82,2.22c-3,1.1-5.6,2.48-7,4.18h0c-4.82,5.91-12.74,23.72-12.74,23.72s13.19,4.89,16.52,7.74l.08.64,2.06,17.15-6.15,34.15a5.47,5.47,0,0,0-.08.9,5,5,0,0,0,3.85,4.88l1.51.23c6.52.91,33,4.07,53.74-1.56A10.08,10.08,0,0,0,134.51,469.71Z" fill="#7ddcf2"/><g clip-path="url(#e4b9f882-2446-49f4-bfeb-9ca3c1b8d088)"><path d="M81.81,456c-.41,11.91-1.57,22-8.39,25.79l-1.51-.23a5,5,0,0,1-3.85-4.88,5.47,5.47,0,0,1,.08-.9l6.15-34.15-2.06-17.15c.09-.3.15-.46.15-.46S82.34,440.77,81.81,456Z" fill="#69c4e1"/></g><path d="M134.51,469.71l-5.85-73.48a10.67,10.67,0,0,0-7.74-9.4,73,73,0,0,0-8.1-1.79c.08,2.68-.68,5.11-5.38,5.73-6.26.81-10.71-2.2-13.54-5.1l-1.16-1.26-.78,0s-3.63.5-8.78,1.62a60.58,60.58,0,0,0-7.82,2.22c-3,1.1-5.6,2.48-7,4.18h0c-4.82,5.91-12.74,23.72-12.74,23.72s13.19,4.89,16.52,7.74l.08.64,2.06,17.15-6.15,34.15a5.47,5.47,0,0,0-.08.9,5,5,0,0,0,3.85,4.88l1.51.23c6.52.91,33,4.07,53.74-1.56A10.08,10.08,0,0,0,134.51,469.71Z" fill="none" stroke="#351d66" stroke-miterlimit="10"/><path d="M69.51,469.34l1.32-9.28c27.06-39.14,29.11-45.38,16.94-62.95-3.48-5-9.82-8.18-12.41-8.89A60.58,60.58,0,0,1,83.18,386a29.62,29.62,0,0,1,6.76,4C127.07,422.13,69.51,469.34,69.51,469.34Z" fill="#c9c6cc" stroke="#351d66" stroke-miterlimit="10"/><path d="M57.4,416.82c5,1.56,12.66,4.95,15,7.23-2.57,5.9-4,9.8-4,9.8,2.63-1.17,20.4-2.78,20.4-2.78s1.47-10.85,12.06-11.59c0,0,4.41,0,3.51,3s-1,1.71-2.19,6-4.25,7.54-7.53,7.73l-.25.07c-13.68,11.33-32.37,11.42-38,11.16a2.28,2.28,0,0,1-2.11-1.74C52.07,436.35,53.55,426.64,57.4,416.82Z" fill="#f9c7a5"/><g clip-path="url(#b8398c9a-2fa5-417e-af76-c850b8c989da)"><path d="M58,417a145.22,145.22,0,0,1,14.34,7l-4.56,10.61S54,430.64,58,417Z" fill="#f7a091"/></g><path d="M57.4,416.82c5,1.56,12.66,4.95,15,7.23-2.57,5.9-4,9.8-4,9.8,2.63-1.17,20.4-2.78,20.4-2.78s1.47-10.85,12.06-11.59c0,0,4.41,0,3.51,3s-1,1.71-2.19,6-4.25,7.54-7.53,7.73l-.25.07c-13.68,11.33-32.37,11.42-38,11.16a2.28,2.28,0,0,1-2.11-1.74C52.07,436.35,53.55,426.64,57.4,416.82Z" fill="none" stroke="#351d66" stroke-miterlimit="10"/><path d="M336.9,257.79a13.36,13.36,0,0,0-14,9.25,14.49,14.49,0,0,0,.41,9.32c1.61,4.48,12.5,26.18,29.22,44.32,18.81,20.4,42.63,39,50.14,44.66a2.42,2.42,0,0,0,3.65-.9l6.49-13.64a2.43,2.43,0,0,0-.28-2.55l-67.81-85.89a11.11,11.11,0,0,0-7.65-4.55Z" fill="#f48225" data-secondary="true"/><g clip-path="url(#a94063be-ca51-455b-930b-1ce96af0066d)"><polygon points="341.14 282 343.68 309.78 348.58 316.18 341.14 282" fill="#f4bd31"/></g><path d="M336.9,257.79a13.36,13.36,0,0,0-14,9.25,14.49,14.49,0,0,0,.41,9.32c1.61,4.48,12.5,26.18,29.22,44.32,18.81,20.4,42.63,39,50.14,44.66a2.42,2.42,0,0,0,3.65-.9l6.49-13.64a2.43,2.43,0,0,0-.28-2.55l-67.81-85.89a11.11,11.11,0,0,0-7.65-4.55Z" fill="none" stroke="#351d66" stroke-miterlimit="10"/><path d="M408.29,592.09a2,2,0,0,0-2-.34c-11.2,3.91-30.2-2.46-32.78-3.36-1.09-15-12.69-171.77-22.05-205.47-1.55-5.59-3.23-10.64-5-15.23a112.12,112.12,0,0,1-11.61,2.08c-5.76.67-11.59.82-17.35,1.59-4.65.62-9.06,2.07-13.58,3.12L352.3,592.26a31.29,31.29,0,0,0,1.61,12.26,3.78,3.78,0,0,0,4.34,2.4l49.2-10.31a1.88,1.88,0,0,0,1.32-1A2.72,2.72,0,0,0,408.29,592.09Z" fill="#f9c7a5"/><g clip-path="url(#b0a3d032-7470-47aa-aed3-51ec569a34cd)"><polygon points="361.08 447.3 321.48 453.35 320.14 447.3 361.08 447.3" fill="#f7a091"/></g><path d="M408.29,592.09a2,2,0,0,0-2-.34c-11.2,3.91-30.2-2.46-32.78-3.36-1.09-15-12.69-171.77-22.05-205.47-1.55-5.59-3.23-10.64-5-15.23a112.12,112.12,0,0,1-11.61,2.08c-5.76.67-11.59.82-17.35,1.59-4.65.62-9.06,2.07-13.58,3.12L352.3,592.26a31.29,31.29,0,0,0,1.61,12.26,3.78,3.78,0,0,0,4.34,2.4l49.2-10.31a1.88,1.88,0,0,0,1.32-1A2.72,2.72,0,0,0,408.29,592.09Z" fill="none" stroke="#351d66" stroke-miterlimit="10"/><polygon points="378.99 590.72 364.89 592.12 363.23 592.29 356.74 592.93 355.06 593.1 352.88 593.32 352.6 592.32 352.38 591.55 351.25 587.56 351.24 587.49 350.22 583.95 341.75 554.14 341.28 552.53 340.49 549.71 342.75 549.26 370.08 543.87 372.2 543.45 372.77 547.41 373.01 549.07 377.63 581.26 378.89 590.03 378.99 590.72" fill="#e6e7e8" stroke="#351d66" stroke-miterlimit="10"/><path d="M411.19,594.68a2,2,0,0,1-1.57,1.84c-8.38,1.87-51.6,11.47-54.7,10.79a3.29,3.29,0,0,1-2.09-2.15,11,11,0,0,1-.55-1.62,28.71,28.71,0,0,1-.67-9.08c.26-2.1-1.28-7.73-1.86-9.73a.6.6,0,0,1,.47-.78h.07l.15,0,22.62-2.21,4.57-.45.2,0a.65.65,0,0,1,.69.59c1.19,11.23,25.21,6.08,29.47,6.28,1.9.1,2.71,1.67,3,3.4a12.38,12.38,0,0,1,.17,1.71A14.2,14.2,0,0,1,411.19,594.68Z" fill="#f48225" data-secondary="true" stroke="#351d66" stroke-miterlimit="10"/><polygon points="365.95 447.3 315.58 447.3 314.91 441.78 314.71 440.09 312.1 418.47 301.81 333.4 320.58 333.79 341.79 334.23 364.42 440.09 364.77 441.78 365.95 447.3" fill="#7ddcf2"/><g clip-path="url(#ef46d4b3-ba50-4612-9532-8be803b93c02)"><polygon points="312.09 418.43 319.25 372.01 314.3 435.46 312.09 418.43" fill="#69c4e1"/></g><polygon points="365.95 447.3 315.58 447.3 314.91 441.78 314.71 440.09 312.1 418.47 301.81 333.4 320.58 333.79 341.79 334.23 364.42 440.09 364.77 441.78 365.95 447.3" fill="none" stroke="#351d66" stroke-miterlimit="10"/><path d="M292.7,335s-22.61,15.83-26.57,52.36c-1.38,12.7-2.5,41.43-3.36,73.53C240.92,511.6,217,569.3,214.1,576.39a31.5,31.5,0,0,0-5.69,10.55,3.79,3.79,0,0,0,2.08,4.51l45.79,20.76a1.89,1.89,0,0,0,1.64,0,2.72,2.72,0,0,0,1.71-3.14,1.94,1.94,0,0,0-1.39-1.42c-11.68-3.58-21.22-18.79-22-20.06L261.05,542l35-62.58a46.71,46.71,0,0,0,5.57-16.86l12.73-98.49,1.26-9.78Z" fill="#f9c7a5"/><g clip-path="url(#b57741eb-aa17-4d23-8726-b71e278c5b96)"><polygon points="263.12 448.49 303.41 448.49 262.93 454.83 263.12 448.49" fill="#f7a091"/></g><path d="M292.7,335s-22.61,15.83-26.57,52.36c-1.38,12.7-2.5,41.43-3.36,73.53C240.92,511.6,217,569.3,214.1,576.39a31.5,31.5,0,0,0-5.69,10.55,3.79,3.79,0,0,0,2.08,4.51l45.79,20.76a1.89,1.89,0,0,0,1.64,0,2.72,2.72,0,0,0,1.71-3.14,1.94,1.94,0,0,0-1.39-1.42c-11.68-3.58-21.22-18.79-22-20.06L261.05,542l35-62.58a46.71,46.71,0,0,0,5.57-16.86l12.73-98.49,1.26-9.78Z" fill="none" stroke="#351d66" stroke-miterlimit="10"/><polygon points="258.91 548.42 257.09 551.82 256.28 553.3 240.87 582.08 236.36 590.52 213.79 577.12 217.19 568 228.34 538.21 228.93 536.61 229.67 534.66 258.91 548.42" fill="#e6e7e8" stroke="#351d66" stroke-miterlimit="10"/><path d="M261.27,610.92a15.37,15.37,0,0,1-1,1.39c-.12.17-.25.32-.37.47a2,2,0,0,1-2.34.56c-7.87-3.47-48.35-21.35-50.44-23.73-.79-.89-.68-2.37-.12-4a15.27,15.27,0,0,1,.64-1.57,29.93,29.93,0,0,1,4.41-6.7c1.47-1.55,3.56-7,4.28-8.94a.6.6,0,0,1,.82-.36.15.15,0,0,1,.09,0l23.59,14,.17.1a.66.66,0,0,1,.22.9c-5.71,9.75,16.69,19.84,20,22.53C263,607,262.33,609.16,261.27,610.92Z" fill="#f48225" data-secondary="true" stroke="#351d66" stroke-miterlimit="10"/><path d="M320.62,333.4a3.43,3.43,0,0,1,0,.39c-.55,6.32-5.27,52.85-8.48,84.68-.88,8.67-1.65,16.25-2.21,21.62-.05.59-.1,1.15-.15,1.69-.44,4.24-.69,6.72-.69,6.72H260.54q0-3.39,0-6.72c0-.57,0-1.13,0-1.69.59-62.66,16.3-106.69,16.3-106.69Z" fill="#7ddcf2" stroke="#351d66" stroke-miterlimit="10"/><path d="M305.39,245.34s-37-5.61-41,13.76-2.53,40.21,10.95,38.31S307.18,256.69,305.39,245.34Z" fill="#f48225" data-secondary="true"/><g clip-path="url(#b8050619-0262-46e5-bbcc-30156e73271e)"><g opacity="0.2"><path d="M274.16,297.53l-1.53-32.81S263.6,287,274.16,297.53Z"/></g></g><path d="M305.39,245.34s-37-5.61-41,13.76-2.53,40.21,10.95,38.31S307.18,256.69,305.39,245.34Z" fill="none" stroke="#351d66" stroke-miterlimit="10"/><path d="M280.44,330.2h59.25c.32-8.38,1-22.39,2.18-33.79,1.65-16,7.51-31.7-1.95-37.38-6.2-3.73-10.47-5.1-13.5-8.77-.33-1.21-1.12-4.17-1.71-7.54a35.61,35.61,0,0,1-.62-8.86h0a7.82,7.82,0,0,1,.87-3.19l-29-16.28c0,.09,0,.18.05.28.46,2.69,3.95,23.79.37,35a21.17,21.17,0,0,1-8.18,1.83,14.83,14.83,0,0,0-9.69,3.85c-3.64,3.43-6.78,9.85-4.72,21.85C277.3,297.43,280.48,316.08,280.44,330.2Z" fill="#f9c7a5"/><g clip-path="url(#fb82430f-db27-4b83-bdb8-4256350d5592)"><path d="M324.71,242.72c-15.74,2-23.72-16.81-24-17.51a18.62,18.62,0,0,0,11.24,8.06,30.74,30.74,0,0,0,12.05.61l.1,0A35.61,35.61,0,0,0,324.71,242.72Z" fill="#f7a091"/></g><path d="M280.44,330.2h59.25c.32-8.38,1-22.39,2.18-33.79,1.65-16,7.51-31.7-1.95-37.38-6.2-3.73-10.47-5.1-13.5-8.77-.33-1.21-1.12-4.17-1.71-7.54a35.61,35.61,0,0,1-.62-8.86h0a7.82,7.82,0,0,1,.87-3.19l-29-16.28c0,.09,0,.18.05.28.46,2.69,3.95,23.79.37,35a21.17,21.17,0,0,1-8.18,1.83,14.83,14.83,0,0,0-9.69,3.85c-3.64,3.43-6.78,9.85-4.72,21.85C277.3,297.43,280.48,316.08,280.44,330.2Z" fill="none" stroke="#351d66" stroke-miterlimit="10"/><path d="M326.42,250.26c-7.67,23.79-30-.62-30-.62s-7.8,1.18-12.64,1.39-12,4.28-11.23,18.8,2.32,39.16,2.46,41,1.82,22.59,1.82,22.59l65,.83,3.79-65.45s.61-9.79-8.33-12.63S326.42,250.26,326.42,250.26Z" fill="#f48225" data-secondary="true"/><g clip-path="url(#e72e361e-abec-47bc-82aa-c047900212d0)"><g opacity="0.2"><path d="M274.83,296.13a83.18,83.18,0,0,0,14.52,18.79,84.26,84.26,0,0,0,31.14,19l-43.66-.56Z"/></g></g><path d="M326.42,250.26c-7.67,23.79-30-.62-30-.62s-7.8,1.18-12.64,1.39-12,4.28-11.23,18.8,2.32,39.16,2.46,41,1.82,22.59,1.82,22.59l65,.83,3.79-65.45s.61-9.79-8.33-12.63S326.42,250.26,326.42,250.26Z" fill="none" stroke="#351d66" stroke-miterlimit="10"/><path d="M283.15,250.33a19.89,19.89,0,0,1,13.61,8.14c5.47,7.58,9.87-.25,7-2.44-1.86-1.43-6-5.24-8.74-7.74a5.11,5.11,0,0,0-5.6-.88Z" fill="#f48225" data-secondary="true" stroke="#351d66" stroke-miterlimit="10"/><path d="M326.42,250.26s-5,7.15-.85,9.36c2.85,1.54,6.52-7.65,5.68-10s-5.73-2.95-5.73-2.95l.73,2.95" fill="#f48225" data-secondary="true" stroke="#351d66" stroke-miterlimit="10"/><path d="M307.73,280.05l-1.67-.18c1.42-13.47-3.92-20.66-4-20.73l1.34-1C303.66,258.43,309.22,265.91,307.73,280.05Z" fill="#2d227a"/><path d="M323.4,276.15c-1.63-7.75,1.43-19.09,1.56-19.57l1.62.45c0,.11-3.08,11.43-1.53,18.77Z" fill="#2d227a"/><ellipse cx="318.1" cy="204.62" rx="23.47" ry="31.07" transform="translate(-15.67 26.7) rotate(-4.69)" fill="#f9c7a5" stroke="#351d66" stroke-miterlimit="10"/><ellipse cx="293.42" cy="208.15" rx="5.98" ry="6.64" fill="#f9c7a5" stroke="#351d66" stroke-miterlimit="10"/><path d="M330.59,202.09c0,1.8.71,3.27,1.59,3.27s1.6-1.47,1.6-3.27-.72-3.27-1.6-3.27S330.59,200.29,330.59,202.09Z" fill="#351d66"/><path d="M320,202.09c0,1.8-.72,3.27-1.6,3.27s-1.59-1.47-1.59-3.27.71-3.27,1.59-3.27S320,200.29,320,202.09Z" fill="#351d66"/><path d="M331.26,212a7.78,7.78,0,0,1-2.4,2.74,6.09,6.09,0,0,1-3.57,1.18,6.19,6.19,0,0,1-3.56-1.22,11.54,11.54,0,0,1-1.38-1.23c-.37-.48-.74-1-1.07-1.47.49.36.94.75,1.4,1.12s.95.68,1.45.94a6.62,6.62,0,0,0,3.16.89,6.36,6.36,0,0,0,3.17-.85A13.85,13.85,0,0,0,331.26,212Z" fill="#351d66"/><path d="M328.49,197.1c.29,1.23.49,2.45.72,3.66s.46,2.42.8,3.56q.12.44.27.84a2.86,2.86,0,0,1,.28,1.06,2.12,2.12,0,0,1-1.14,1.93,2.56,2.56,0,0,1-2.09.12,5.18,5.18,0,0,1-1.65-1c1.15.43,2.49.77,3.29.16a1.26,1.26,0,0,0,.57-1.17,2.21,2.21,0,0,0-.24-.72c-.12-.31-.23-.62-.32-.93a17.33,17.33,0,0,1-.6-3.76A19.71,19.71,0,0,1,328.49,197.1Z" fill="#351d66"/><path d="M315,186.35a9.4,9.4,0,0,0-6.92.27,7.2,7.2,0,0,0-4.18,6.47c-.56,8.06.4,13.22-3,13.54s-6.67-9.91-12.76-1.27c0,0-3.21-2.68-1.67-9.52s.27-10.78.33-13.09c.07-3,5.07-9.35,9.61-5.21,0,0,1.93-10.29,14.21-13.39s18.17-5.15,19.17-7.05a10.88,10.88,0,0,1-1.84,10.43s8.37-1.38,9.37-5.74c0,0,4.16,4.86-1,11.16,0,0,5.33,2.08,5.42,10s-3.17,12.43-3.17,12.43L336.1,185S323.5,189.1,315,186.35Z" fill="#686175" data-primary="true" stroke="#351d66" stroke-miterlimit="10"/><ellipse cx="106.77" cy="360.2" rx="14.08" ry="18.07" fill="#f9c7a5" stroke="#351d66" stroke-miterlimit="10"/><path d="M286.77,251.34c-3.88.53-8.48,2.46-13.68,7C257,272.3,215.91,308.2,200,356.8c-2.41,1.86-4.24,4.57-6.47,8-2.05,3.14-5.11,6.38-3,6.7,1.64.24,4-1.41,5.9-4.31a3.59,3.59,0,0,1,1.91-1.56c-.29.8-.54,1.53-.72,2.17-.55,1.1-1.06,2.09-1.31,2.51a20.2,20.2,0,0,1-3.17,3.92,27.05,27.05,0,0,1-2.92,2.47c-2.07,1.4-1.71,4.31.66,3.25l.19-.1c-1.73,1.54-1.16,4.15,1,3a18.08,18.08,0,0,0,1.79-1.14c-1.23,1.67-.42,3.85,1.56,2.6a15,15,0,0,0,1.5-1.13h0l.07-.07c.26-.21.52-.43.78-.67.13.78.8,1.22,1.89.59a21,21,0,0,0,3.58-2.87,34.12,34.12,0,0,0,3.59-4.48,36.23,36.23,0,0,0,2.39-4.78.47.47,0,0,0,.06-.09,27.74,27.74,0,0,0,3-7.44,15,15,0,0,1,3.61-6.75c18.09-19.77,59.52-64.77,74.77-78.9a44.71,44.71,0,0,0,7.29-8.41C303.36,261,296.64,250,286.77,251.34Z" fill="#f9c7a5" stroke="#351d66" stroke-miterlimit="10"/><path d="M300.7,263.19a13.36,13.36,0,0,0-11.16-12.51,14.5,14.5,0,0,0-9.17,1.74c-4.2,2.24-24.11,16.13-39.66,35.28-18.91,23.28-34.86,52.05-37.9,57.66a.9.9,0,0,0,.53,1.3L220.45,352a.9.9,0,0,0,.93-.24L297.3,271.6a11.11,11.11,0,0,0,3.41-8.23A1.09,1.09,0,0,0,300.7,263.19Z" fill="#f48225" data-secondary="true" stroke="#351d66" stroke-miterlimit="10"/><path d="M112.47,356.72c0,1.42.56,2.58,1.26,2.58s1.26-1.16,1.26-2.58-.57-2.58-1.26-2.58S112.47,355.3,112.47,356.72Z" fill="#351d66"/><path d="M104.08,356.72c0,1.42-.57,2.58-1.26,2.58s-1.26-1.16-1.26-2.58.56-2.58,1.26-2.58S104.08,355.3,104.08,356.72Z" fill="#351d66"/><path d="M113,364.52a6,6,0,0,1-1.9,2.16,4.75,4.75,0,0,1-2.82.94,4.86,4.86,0,0,1-2.8-1,9.2,9.2,0,0,1-1.09-1c-.3-.38-.59-.76-.85-1.16.39.29.75.59,1.1.88a13.28,13.28,0,0,0,1.16.74,4.86,4.86,0,0,0,5,0A10.83,10.83,0,0,0,113,364.52Z" fill="#351d66"/><path d="M110.82,352.78c.22,1,.38,1.94.56,2.89a27.41,27.41,0,0,0,.64,2.81c.06.23.13.45.21.67a2.53,2.53,0,0,1,.22.83,1.69,1.69,0,0,1-.91,1.53,2.05,2.05,0,0,1-1.64.09,4,4,0,0,1-1.3-.78c.9.34,2,.6,2.59.12a1,1,0,0,0,.45-.92,1.63,1.63,0,0,0-.19-.57c-.09-.24-.18-.49-.25-.73a13.73,13.73,0,0,1-.48-3A16.4,16.4,0,0,1,110.82,352.78Z" fill="#351d66"/></svg>