<svg id="b99e9c2d-b23d-4fbf-b770-7e2b1db97a01" data-name="Layer 1" xmlns="http://www.w3.org/2000/svg" width="865.76" height="682.89" viewBox="0 0 865.76 682.89"><polygon points="127.03 426 127.03 405.33 171.07 403.8 171.65 424.26 127.03 426" fill="#bcbec0"/><path d="M241.06,377.79H187.74l1.58-43.11h51.3a3.42,3.42,0,0,1,3.42,3.38l.44,36.27A3.41,3.41,0,0,1,241.06,377.79Z" fill="#d1d3d4"/><path d="M96.13,312.6h91.61a0,0,0,0,1,0,0v28.92a0,0,0,0,1,0,0H92a0,0,0,0,1,0,0V316.68A4.08,4.08,0,0,1,96.13,312.6Z" fill="#d1d3d4"/><rect x="99.41" y="370.96" width="41.01" height="34.7" fill="#a7a9ac"/><polygon points="208.92 402.06 140.42 405.66 140.95 377.79 208.77 377.79 208.92 402.06" fill="#d1d3d4"/><polygon points="171.07 403.8 173.38 595.94 208.72 595.23 208.72 401.67 171.07 403.8" fill="#d1d3d4"/><polygon points="266.08 642.1 222.05 642.1 36.08 642.1 36.08 594.02 266.08 594.02 266.08 642.1" fill="#a7a9ac"/><rect x="40.52" y="334.68" width="170.35" height="43.11" rx="7.97" fill="#bcbec0"/><polygon points="127.03 426 102.12 594.6 151.95 594.02 171.65 424.26 127.03 426" fill="#a7a9ac"/><polygon points="191.34 441.64 151.95 594.02 171.65 424.26 191.34 441.64" fill="#bcbec0"/><path d="M789.82,521.89s3.91-3.48,5.07-6.23c0,0,2.68,40.63-2.1,50.33,0,0-.29-.58-1.23-2.1Z" fill="#f48225" data-secondary="true"/><path d="M745.65,586.38s-2.76,6.48.14,7.93c0,0-12.74,9.27-5.5,17.67l2.31-4.35,11.59.29s4.35,6.08,11.88,6.37c0,0,28.1,2.9,33.6-16.22,0,0-1.45-25.2-8.11-34.18l-1.74-42a22.42,22.42,0,0,1-11,7.53s2.81,7.92-8.11,27.66c0,0-5.15,8.28-9,13.27C761.68,570.35,757.1,579.46,745.65,586.38Z" fill="#686175" data-primary="true"/><path d="M637.26,617.16S652.49,643,680.54,634c0,0,36.56-15.53,45.58-33.56,0,0,9-2.5,19.53-14,0,0,11-6.52,16-16,0,0,20.61-25.87,17.13-40.93,0,0-1.73,1.64-6.37,2,0,0-34.25,38.82-53.52,46.06,0,0-35.33,39.5-68.06,44.43C650.86,621.94,642,625.54,637.26,617.16Z" fill="#f48225" data-secondary="true"/><path d="M637.26,617.16S652.49,643,680.54,634c0,0,36.56-15.53,45.58-33.56,0,0,9-2.5,19.53-14,0,0,11-6.52,16-16,0,0,20.61-25.87,17.13-40.93,0,0-1.73,1.64-6.37,2,0,0-34.25,38.82-53.52,46.06,0,0-35.33,39.5-68.06,44.43C650.86,621.94,642,625.54,637.26,617.16Z" opacity="0.2"/><path d="M699.2,219s-.05,6.59,4.3,8c0,0,9.56,2,6.37,18.25,0,0,.58,33.89-23.46,43.16,0,0-15.95,6-27.25-10.56,0,0,15-13.69,16.49-35.22,0,0,11.34,9.57,15.39-11.28A32.29,32.29,0,0,1,699.2,219Z" fill="#f9b499"/><path d="M583.57,406.59C569.09,391,543.88,393,543.88,393s22.2-6.73,42.25,8.06Z" fill="#f7a089"/><path d="M620.26,328.48s15.56,15.67,29.49,21.82a81,81,0,0,1,13.11,8.6s12.7,2.87,17.61,10.24l1.23,44.25s63.91,16,93.41,36.46c0,0,29.09,18.44,38.51,16.39a24.86,24.86,0,0,1,.73-4.44,24.73,24.73,0,0,0,1-5,38.74,38.74,0,0,1,1.92-8.73,42.59,42.59,0,0,0,2.08-9.05c1.47-14.12,5.34-53.77,4.09-69.83,0,0,5.79-51.37-6.18-82.26,0,0-10.82-29.74-29.74-41.33l-10.43-5s-17.77-20.47-56.78-14.29c0,0-12.36-5-19.7-1.55a5.67,5.67,0,0,0,2.9,2.22s9.7,1.45,6.37,18.25c0,0,.15,31.14-19.55,41.14,0,0-18.12,10.58-31.16-8.54,0,0-23.16,20.32-49.52-10.2,0,0,1.16,19.12,5.22,25.3C614.86,292.94,616.69,322.49,620.26,328.48Z" fill="#686175" data-primary="true"/><path d="M664.68,283.67a49,49,0,0,1-5.5-6.18s14.42-22.16,18.09-39C677.27,238.53,679.55,267.84,664.68,283.67Z" fill="#f9a88f"/><path d="M676.23,243.89c-2.28,20.2-12.77,36.15-28.37,39.86-22.27,5.32-46.55-16.33-54.23-48.35s4.22-62.34,26.52-67.67,46.59,16.33,54.24,48.37c.51,2.19.94,4.35,1.29,6.52A78.43,78.43,0,0,1,676.23,243.89Z" fill="#f9b499"/><path d="M626.07,196.26s-29.35,0-33-18.59a19.31,19.31,0,0,1,2.66-13.54c4-6.71,12.37-18.87,20.72-20.33,0,0,16.65-8.57,18.67-8.57s11.09-1,11.09-1,22.18-7.39,32.62,0a36,36,0,0,0,5.65,3.52c4.15,1.94,10.92,5.46,13.81,9a36.53,36.53,0,0,0,5.88,5.91c3.31,2.52,7,6.59,5.35,11.49a57.63,57.63,0,0,0-3.26,14.32c-.77,12.22-2.67,32.32-7.09,40.48,0,0-6.71,7.75-8.16,12.39,0,0,1.08-10.32-7.78-12.78,0,0-3.52-.9-7.58,4.06,0,0-8.1.32-10.42,7.85s.29,20.85.29,20.85l-7.53-.57s-.45-13.27-4.34-22.26a13.76,13.76,0,0,0-10.28-8c-5.93-1.05-16.28-4.55-13.77-16.06C629.63,204.4,633.22,198,626.07,196.26Z" fill="#f48225" data-secondary="true"/><path d="M691,233.12c-.94,7.46-6.15,13.1-11.13,12.45a6.67,6.67,0,0,1-3.59-1.68,78.43,78.43,0,0,0-.55-21.27c2-2.82,4.76-4.41,7.58-4.06C688.23,219.18,691.9,225.66,691,233.12Z" fill="#f9b499"/><path d="M802,318.83l3-21.05c.35,2.14-.22,11,0,13.3.15,1.45.29,2.53.38,3.9A26,26,0,0,1,802,318.83Z" fill="#f9a88f"/><path d="M775.11,449.85c-26.88-19.6-93.41-36.46-93.41-36.46l-.22-12.88c-96.75-66.05-173.23-71.84-173.23-71.84-21.43-3.48-23.17,8.11-23.17,8.11-9.27,3.48-8.11,15.64-8.11,15.64-7.53,1.74-12.75,27.23-12.75,27.23s-31.86,52.15-50.4,159.91l38.24,17.38,8.11-18.54,11-22.6,9.27-20.27c1.74-.58,12.17-21.44,12.17-21.44,4.64-3.48,8.11-16.22,8.11-16.22,2.9-1.74,9.85-13.91,9.85-13.91l2.32-1.74c11.59-9.27,9.27-20.85,9.27-20.85-.06-.91-.07-1.72,0-2.46a3.89,3.89,0,0,1,6.6-2.73C544.62,432.56,598.63,444,598.63,444c33,5.22,41.14,25.49,41.14,25.49,22,44.61-6.95,92.12-6.95,92.12-7.55,11-10,20.42-10.09,27.83-.32,2-.33,5.44,1.47,10.19a2.83,2.83,0,0,0,.11.31c2.3,5.9,7.36,13.79,18,23.58,0,0,15.49,1.71,34-10.45l0,0c22.64-13.26,43.45-35.22,43.45-35.22,19.7-7.53,52.72-46.34,52.72-46.34,31.43-3.09,41.18-65.21,41.18-65.21C797.31,463.51,775.11,449.85,775.11,449.85Z" fill="#f48225" data-secondary="true"/><path d="M286.65,627.1s-1.45,10.71,10.47,15.26a20,20,0,0,0,7,1.26c8.19.07,33.11.26,41.92,0a3.62,3.62,0,0,0,3.49-3.53c.05-2.48.38-7-3.58-10.79l.36,4.48-8.52.67a32.18,32.18,0,0,1-5.83-7.62h-9.19s-4.48,7.84-7.17,8.51C315.58,635.3,290,638.05,286.65,627.1Z" fill="#3f3d56"/><path d="M298.81,643s12.06-1.17,16.77-7.67c0,0,2.91-.67,7.17-8.51h9.19s3.14,5.6,5.83,7.62c0,0,5.84,3.57,8.19,4a.52.52,0,0,1,.39.7c-.45,1.24-2.12,3.81-8.36,4.49l-32.89,0a16.9,16.9,0,0,1-2-.12Z" fill="#f48225" data-secondary="true"/><path d="M294.28,546.54l.45,20.4s23.09-6.05,31.83-4.48V543.18Z" fill="#f9b499"/><path d="M543.45,72.59s2.75-32.59-24-15.83c0,0,14.58-1.78,17.77,13.13Z" fill="#f48225" data-secondary="true"/><path d="M740,617.05a4,4,0,0,1,.29-5.07l2.32-4.35,11.58.29s3.48,5.22,11.88,6.37c0,0,25.64,2.9,33.6-16.22,0,0,3.62,19.12-25.06,20.86a141.79,141.79,0,0,1-21.14-.15C748.63,618.39,744.13,617.78,740,617.05Z" fill="#f48225" data-secondary="true"/><path d="M413.82,539.56s-19.14,15.2-35.37,25.51A51.85,51.85,0,0,1,347,572.83c-9.58-.66-21.08-.12-19.93,6.51,0,0-6.62,13.6,36.46,19.29a23.54,23.54,0,0,0,6.44-.07c8.41-1.25,31.38-4.27,38.59-1.45,0,0,34.38,8.88,49.06,4.25l-5.6-44.42Z" fill="#686175" data-primary="true"/><path d="M413.82,539.56s-19.14,15.2-35.37,25.51A51.85,51.85,0,0,1,347,572.83c-9.58-.66-21.08-.12-19.93,6.51,0,0-6.62,13.6,36.46,19.29a23.54,23.54,0,0,0,6.44-.07c8.41-1.25,31.38-4.27,38.59-1.45,0,0,34.38,8.88,49.06,4.25l-5.6-44.42Z" opacity="0.2"/><path d="M327.11,579.34s-10.43,14.29,19.31,21.24c0,0,20.08,5.8,38.62,4.25,0,0,15.07-4.25,28.58.77,0,0,21.63,7.34,43.26,4.25l.78-8.49s-16.84,4.2-50.5-4.76a33.43,33.43,0,0,0-11.09-1c-5.9.44-15.18,1.26-23.16,2.53a42.48,42.48,0,0,1-13,0C347.62,596.22,325.13,591.17,327.11,579.34Z" fill="#f48225" data-secondary="true"/><path d="M327.11,579.34s-10.43,14.29,19.31,21.24c0,0,20.08,5.8,38.62,4.25,0,0,15.07-4.25,28.58.77,0,0,21.63,7.34,43.26,4.25l.78-8.49s-16.84,4.2-50.5-4.76a33.43,33.43,0,0,0-11.09-1c-5.9.44-15.18,1.26-23.16,2.53a42.48,42.48,0,0,1-13,0C347.62,596.22,325.13,591.17,327.11,579.34Z" opacity="0.2"/><path d="M155.35,234.9s-50.4,63.46,1.55,99.78l46.87,1.6s17.65,16.65,29.76,22.7c0,0,44.38,27.23,54,27.74,0,0,1.52,7.56,7.07,8.07,0,0-5.05,10.59.5,16.14,0,0-13.62,25.72-5.55,86.25,0,0,3,37.32,2,46.9,0,0,30.26,12.61,42.87-4.54,0,0,0-36.81,7.06-61,0,0,6.56-37.33,6.06-48.42,0,0,11.09-30.27,12.1-44.89,0,0,5.66-20-7.28-41.46a23.46,23.46,0,0,0-7.85-7.75l-69.6-43.09-8.61-5.46-5.11-2.7a32.2,32.2,0,0,1-7-5.26,6.15,6.15,0,0,0-1.07-.82,73.86,73.86,0,0,1-10.72-7.34c-5.12-4.46-14.55-9.53-30.86-9.37C211.53,262,181.53,255.24,155.35,234.9Z" fill="#f48225" data-secondary="true"/><path d="M279.6,288.5s65.27,19.31,94.63,32.44c0,0,61,23.18,61,51.76,0,0,.39,18.93-1.54,23.56,0,0,5.41,98.49,13.52,110.08l1.16,10.43s-25.5-.39-42.49,9.27c0,0-2.32-8.89-1.93-12.75,0,0-13.13-41.33-13.13-44,0,0-10-25.49-10.43-51,0,0-7-5-1.16-11.2,0,0-6.18-3.09-4.25-10.82,0,0-6.57,5.8-17-6.56,0,0,7.72-32.7-14.87-51.3l-69.61-43.1s-1.27-2,2.4-1.78C277.09,293.14,281.92,294.68,279.6,288.5Z" fill="#f48225" data-secondary="true"/><path d="M279.6,288.5s65.27,19.31,94.63,32.44c0,0,61,23.18,61,51.76,0,0,.39,18.93-1.54,23.56,0,0,5.41,98.49,13.52,110.08l1.16,10.43s-25.5-.39-42.49,9.27c0,0-2.32-8.89-1.93-12.75,0,0-13.13-41.33-13.13-44,0,0-10-25.49-10.43-51,0,0-7-5-1.16-11.2,0,0-6.18-3.09-4.25-10.82,0,0-6.57,5.8-17-6.56,0,0,7.72-32.7-14.87-51.3l-69.61-43.1s-1.27-2,2.4-1.78C277.09,293.14,281.92,294.68,279.6,288.5Z" opacity="0.2"/><path d="M154,237.3l-2.56-1.69a4.06,4.06,0,0,1,1.29-7.32l.19,0s14.29-7,18.16-15.07a11,11,0,0,1,6-5,57.76,57.76,0,0,0,14.31-7.27c8.45-6.19,25.6-17.63,59.9-37.73a41.79,41.79,0,0,0,5.89-4.17,41,41,0,0,1,3.89-3s20.62-15.67,29.62-19.88a46.29,46.29,0,0,0,7.58-4.42,25,25,0,0,1,6.72-3.55,40.61,40.61,0,0,0,7-2.85,194,194,0,0,1,20-9.72,37.74,37.74,0,0,0,8.93-5.12c4.89-3.66,14.77-9.07,31.34-10.08,0,0,31.28-9.65,45.19,18.54a24.92,24.92,0,0,1,8.49,7.34s5-3.86,9.27,5.41l13.14,70.68s12,17.38,1.54,27c0,0,3.48,37.46-15.83,67.59,0,0-32.42-4.65-37.83-17l20.06-38.61s-10.82,39-30.9,29.74c0,0-39.83,32.56-76.86-5,0,0-6.18,7.34-13.13,7.34,0,0-8.89,15.06-13.14,12.36l-2.7,2.7s3.84,6.25-3.67,5c0,0-2.48-.29-2.4,1.78l-15.83-9.11a19.4,19.4,0,0,1-4.58-3.8,7.43,7.43,0,0,0-2.49-1.83c-2.93-1.28-5.93-2.59-8.14-4.89-4.49-4.67-13.67-11.31-32.32-11.31A157.59,157.59,0,0,1,154,237.3Z" fill="#686175" data-primary="true"/><path d="M358.78,115.46s-44.42,15.84-72.61,46c0,0-16.23,13.52-11.59,28.58,0,0,1.93,59.09,8.88,77.63l10.43,35.54s2.32,12.36,4.25,15.06c0,0-4.64,9.27,9.27,15.06,0,0,17,8.5,33.22,10.43,0,0,13.71,3.29,18.15,24.14,0,0,4.63,2.13,2.9-7.53A8.41,8.41,0,0,0,359,353s3.09-4.83-2.9-8.49c0,0-3.86-5.8-5.21-6,0,0-.39-4.64.58-5,0,0,2.32-5-3.86-8.69,0,0-21.05-12.75-28.78-15.65a13.33,13.33,0,0,0-1.93-6.56,172,172,0,0,1-3.09-30.9s-3.09-64.89,1.74-80.34c0,0,24.32-21.06,38.42-30,0,0,14.11-4.91,12.56-27.12C366.5,134.2,365.54,122,358.78,115.46Z" fill="#f9b499"/><path d="M523.81,183.84c-21.13,19.22-49.73,22.18-63.88,6.63s-8.17-43.42,12.66-63c22.17-20.81,50.59-22.22,64.74-6.66S544.94,164.62,523.81,183.84Z" fill="#f9b499"/><ellipse cx="469.9" cy="121.92" rx="15.05" ry="8" transform="translate(185.97 515.68) rotate(-68.75)" fill="#f9b499"/><path d="M544.17,137.48s1.74,18-8.3,32.25c0,0,11.2-1.74,13.9-12.55,0,0,2.51,15.83-12.55,17.77,0,0,32.8,8,20.82-38C558,137,550.35,139,544.17,137.48Z" fill="#f48225" data-secondary="true"/><path d="M434,129.22S408.6,169.92,414,200.05c0,0,7.34,31.67,22.79,10.82l23.95-37.47-25.5-41.71S435.54,131.78,434,129.22Z" fill="#f9b499"/><path d="M414,558.94s-1.27-18.18-3.1-22.46c0,0-2.44-8.34-1.63-12.2,0,0,10.79-6.1,36.82-7.53,0,0,3.26,23.8,6.72,26.45C452.77,543.2,436.46,560.25,414,558.94Z" fill="#f9b499"/><path d="M412.69,561.71l-.2-3.46s21.36,1.63,40.28-15a31,31,0,0,1,1.84,2.6,22,22,0,0,1,3,8.13,17.53,17.53,0,0,0,2.72,6.56l-5,.26a7.41,7.41,0,0,0-4.38,1.72c-5.07,4.22-19.52,15.06-27.49,8.59C423.47,571.06,419,559.67,412.69,561.71Z" fill="#ccc"/><path d="M401.61,596.39a.9.9,0,0,1-.64-.93c.64-7.39,3.41-32.37,11.72-33.75,0,0,5.65-2.42,10.71,9.19a.8.8,0,0,0,.2.28c1,.88,8.5,6.17,24.28-6.42,0,0,4.68-4.68,8.34-3.87l4.07-.4s-3.46-4.68-3.05-8.75c0,0,1.83-3.66,3.87-1.22,0,0,28,25,40.67,33.47a16.29,16.29,0,0,0,7.3,2.57,15.48,15.48,0,0,1,4.77,1.52.9.9,0,0,0,.28.08c1.68.11,18.46,1.33,20,7.32,0,0,2.24,12-8.13,11.39a35.72,35.72,0,0,0-7.63.61,12.73,12.73,0,0,1-6.16.17c-1.64-.41-3.87.64-5.15-.47,0,0-3.83-3.15-14.38-1.34h-.07c-.81,0-21.9.07-34.7-4.41a.82.82,0,0,0-.49,0c-2,.71-16.27,5.13-45.65-2-.77-.19-1.53-.4-2.28-.64Z" fill="#686175" data-primary="true"/><path d="M400.89,596.09s-5.69,6.71-4.47,10.17c0,0,34.17,18.91,54.11,8.13,0,0,6.77-4.23,16.14.28a20.33,20.33,0,0,0,6.9,2c11.93,1.07,46.5,3.11,60.36-7.75a16.87,16.87,0,0,0,5.34-8.5,4,4,0,0,0-5-5l-.14.05s2.24,11.39-6.91,11.18c0,0-8.34.21-11,1.22,0,0-5.49.21-8.74-2.44a44.31,44.31,0,0,0-14.85.41s-17.89.37-35-4.49C457.66,601.36,435.68,606.26,400.89,596.09Z" fill="#f48225" data-secondary="true"/><path d="M290.47,583.08c0-.68,2.25-17.49,2.25-17.49s30.26-8.29,35.19-3.36l1.57,11.21Z" fill="#ccc"/><path d="M418.76,170.55a113.83,113.83,0,0,1,18.81-47s11-12.75,20.86-21.44c0,0,40.36-39.78,61-45.38,0,0,17.77-2.9,17.77,13.13L526.5,73.17s-44.32-11.3-55.33,35.2c0,0-7.82,2.75-10.71,18.68,0,0-.14,7.65,4,8.9,0,0-3.7,20-2.53,33.09a34.62,34.62,0,0,1-1.45,14.35,30.31,30.31,0,0,1-9.85,14.34,19.41,19.41,0,0,0,3.47-11.58s-10.14,22.59-16.22,23.46c0,0,10.43-14.77,10.72-29.55a226.72,226.72,0,0,1-1.16-23.75s-3.77,13.81-7.92,21.69a29.76,29.76,0,0,0-3.73,13.46,19.75,19.75,0,0,0,2.09,9.75S433.23,205,430,188.46c0,0-4.06,12.17,0,18.54,0,0-4.68-3.54-8.39-12.13A44.72,44.72,0,0,1,418.76,170.55Z" fill="#f48225" data-secondary="true"/><path d="M284.42,611.32s-2-32.05,12.78-30.71l.45-4s5.6-8.52,19.05-7.4c0,0,14.57-1.79,13.67,10.76,0,0,9.64,5.15,9.64,19.5l.22,13s6.95,15.92,6.06,21.3l-8.52.67s-4.48-4.71-5.83-7.62h-9.19s-4,7.84-7.17,8.51c0,0-13.57,1.3-21.82-1.19a11,11,0,0,1-7.11-7C285.59,624,284.53,619,284.42,611.32Z" fill="#686175" data-primary="true"/><path d="M372.3,100.4c-27.6,9.74-29.85,20.2-29.85,20.2s.18-.25.47-.62c-.15.21-.31.39-.47.62l.36,1.65s10.75-5.07,15.49-6.63a15.49,15.49,0,0,1,2.26,1.5s11.83,15.31,2.08,36.55c0,0-5.22,7-8.7,7.65,0,0,10.44,11.84,24.72,9.4,0,0,27.88-7.14,38.83-51.78C403.76,90.13,372.3,100.4,372.3,100.4Zm-22,14.24.11,0Zm4.56-.27.26,0Z" opacity="0.2"/><path d="M368.82,385.06s-2.51-20.28,3.86-35.15c0,0,21.39-64.43,23.7-69.45,1.09,1.67,4.46,5.12,6.36,6.09,17.47,8.87,24.35,9.13,31.36,10.45l-36.7,80.34Z" fill="#f9b499"/><path d="M373.5,347.58s-3.38,8.6-3.38,10.24c0,0,16.8-17.48,23.08-19.6C393.2,338.22,377.56,340.83,373.5,347.58Z" fill="#f9a88f"/><path d="M493.84,253.54l8.64.92a12.54,12.54,0,0,1,8.09,4.21l.91,1.05a8.49,8.49,0,0,1,2.09,5.47c.1,8.38-.48,31.05-9.32,40.41a9.17,9.17,0,0,1-8.45,2.52l-9.37-1.81S501.41,283.81,493.84,253.54Z" fill="#f48225" data-secondary="true"/><ellipse cx="490.42" cy="280.06" rx="26.54" ry="6.53" transform="translate(139.86 722.85) rotate(-81.36)" fill="#f48225" data-secondary="true"/><ellipse cx="490.42" cy="280.06" rx="26.54" ry="6.53" transform="translate(139.86 722.85) rotate(-81.36)" opacity="0.2"/><path d="M415.94,260l66.18,11.33,1.73-1.16a12.66,12.66,0,0,1,7-2.11h0a38,38,0,0,1,1.09,12.52,34.09,34.09,0,0,1-3.46,10.7h0a6.73,6.73,0,0,1-5.33-3.14l-2.4-3.81-66.24-8.89A54.75,54.75,0,0,0,415.94,260Z" fill="#f48225" data-secondary="true"/><ellipse cx="397.23" cy="264.83" rx="27.84" ry="7.68" transform="translate(76.99 618.92) rotate(-81.57)" fill="#f48225" data-secondary="true"/><path d="M415.42,242.23a4.58,4.58,0,0,0-4.08-3.91l-10-1s6.78.15,3.52,28.67c0,0-3.51,23.61-10.86,26.21a.15.15,0,0,0,0,.29l10,1a4.64,4.64,0,0,0,4.25-2C411.87,286.25,419.39,271.5,415.42,242.23Z" fill="#f48225" data-secondary="true"/><path d="M415.42,242.23a4.58,4.58,0,0,0-4.08-3.91l-10-1s6.78.15,3.52,28.67c0,0-3.51,23.61-10.86,26.21a.15.15,0,0,0,0,.29l10,1a4.64,4.64,0,0,0,4.25-2C411.87,286.25,419.39,271.5,415.42,242.23Z" opacity="0.2"/><path d="M392.91,383.12c2.51-5.22,16.22-15.06,16.22-15.06,6.57-3.48,13.13-19.7,13.13-19.7,1.94-7.34,16.23-27.62,16.23-27.62,5.4-9.85,21.43-25.88,21.43-25.88,4.64-1.93,7.73-9.07,7.73-9.07,2.31-3.09,2.89-10.63,2.89-10.63a23.1,23.1,0,0,0-1.15-13.9c-2.9-5.6-10.24-1.93-10.24-1.93-3.09-5.79-9.66-1.55-9.66-1.55-4.82-5.21-8.11-.58-8.11-.58-8.49-7.14-11.39,11.59-11.39,11.59-10.82,8.5-9,30.95-9,30.95-3.11,2.53-4.34,7-4.34,7-3.72,9.14-27.08,31.15-27.08,31.15-16.62,6.2-21.79,24-23.37,33.11a20.78,20.78,0,0,0,1.82,13.06c1.53,3,3.91,5.75,7.47,6C375.53,390.07,386.92,390.07,392.91,383.12Z" fill="#f9b499"/><path d="M568.14,324.51c1.1-10.8,7.17-54.61,34.36-67.1,0,0,4.63,8.3,7.14,10.23,0,0,1.55,16.61,5.22,25.3,0,0,2.89,32.83,5.4,35.54,0,0-1.93.38-1.74,6-4.49,9.64-8.09,18.05-10.85,24.81-2.29,5.62-3,7.73-4.69,11.4a135,135,0,0,1-13.33,23.18q-3,6.38-6.08,12.74s6.66,1.16,8.69-5.5c0,0-3.48-20.57,4.06-24.62.87-.58,9.27-5.8,9.27-5.8l11.29-4.05,6.38,5.79,26.94,26.36s-2.61,15.93-7.82,18c0,0-13.62,6.66-20.86,7.53l-11,4.35a10.54,10.54,0,0,1-5.76,3,18.93,18.93,0,0,0-9,4.58c-.87.76-1.78,1.59-2.67,2.47a34.59,34.59,0,0,1-15.42,8.65c-7.16,1.86-16.53,2.66-24.84-1.94,0,0-9.27-.58-13.61-8.11,0,0-9.27-7.82-5.22-18a5.85,5.85,0,0,0-.18-3.93,14.38,14.38,0,0,1-1.33-5.28,25.8,25.8,0,0,1,1.8-9.91s5.51-9.56,5.8-14.19c0,0,4.13-32.22,26.08-57.19A7.77,7.77,0,0,0,568.14,324.51Z" fill="#f9a88f"/><path d="M723,385.45s-5.4-17.77,12.36-45.58c0,0,7.73-8.11,3.09-17.38,0,0-12.74-30.51,12-56.78,0,0,18.15-20.08,35.53-16.61,0,0,19.7,8.89,26.26,37.47,0,0,7.88,13.72-10.27,32.26l2.16-14.49s-2,12.22-3.43,24.78A218.79,218.79,0,0,1,787,383.7c-2.05,5.22-4.32,10.76-6.78,16.42,0,0-12.36,32.45-21.63,44,0,0-12.36,20.85-23.56,10.42,0,0-2.32-4.63-12.75-8.11,0,0-52.53-23.94-62.57-37.46l-50.6-48.67s-15.83,6.57-34-35.15l-10-8.88-17.67-14.95a2.91,2.91,0,0,1-.18-4.28h0a2.92,2.92,0,0,1,3.59-.42l16.19,10h0a21.27,21.27,0,0,0-7.73-9.26c-6.63-4.38-17.21-12.6-15.06-19.32,0,0-4.24-6.18,3.48-6.56l6.57,3.86s0-5,5.4-2.32c0,0,10.43,8.5,15.07,9.27,0,0,10,6.57,11.58,10l12.36,10.82s15.84,29,22.79,32.83c0,0,39.4,28.19,59.48,36.69,0,0,11.2,8.11,21.25,8.88A168.68,168.68,0,0,1,723,385.45Z" fill="#f9b499"/><ellipse cx="535.29" cy="75.3" rx="6.95" ry="8.88" transform="translate(382.29 593.75) rotate(-81.57)" fill="#686175" data-primary="true"/><path d="M471.17,108.37s7.47-44.3,54-35.5a42.73,42.73,0,0,0,4.34.61c4.54.38,15.7,2,18.15,8.38,0,0,41.71,65.28-3.48,55.62,0,0-2.24-27.3-34.69-26.7a26,26,0,0,0-4.48.49c-4.64.93-14.55,3.73-27.24,12C477.76,123.27,483.15,104.89,471.17,108.37Z" fill="#f48225" data-secondary="true"/></svg>