<svg xmlns="http://www.w3.org/2000/svg" xmlns:xlink="http://www.w3.org/1999/xlink" width="865.76" height="682.89" viewBox="0 0 865.76 682.89"><defs><linearGradient id="bf118cde-8f74-4a41-bf10-7e9be5902d97" x1="504.92" y1="-12.19" x2="360.54" y2="614.89" gradientUnits="userSpaceOnUse"><stop offset="0" stop-color="#f6ecea"/><stop offset="1" stop-color="#ddd7e2"/></linearGradient><linearGradient id="ab1d001d-c4cc-4711-a460-2e13f0907bde" x1="427.99" y1="684.25" x2="423.72" y2="576.8" gradientUnits="userSpaceOnUse"><stop offset="0.14" stop-color="#f6ecea"/><stop offset="0.62" stop-color="#eae2e6"/><stop offset="1" stop-color="#ddd7e2"/></linearGradient><linearGradient id="f34117d1-5642-4ecf-befc-9fb32ebcbffd" x1="310.15" y1="819.57" x2="300.85" y2="669.28" gradientTransform="translate(1.11 -107.2) rotate(-0.07)" xlink:href="#bf118cde-8f74-4a41-bf10-7e9be5902d97"/><linearGradient id="f25fcd52-3b4c-43ed-887e-b0bf19b3512d" x1="610.3" y1="723.74" x2="596.43" y2="499.49" xlink:href="#bf118cde-8f74-4a41-bf10-7e9be5902d97"/><linearGradient id="b41bdae5-fc53-412e-a2d1-9611fa4eeada" x1="-448.78" y1="2910.26" x2="-449.18" y2="2858.1" gradientTransform="translate(1044.54 -2743.06) scale(0.88 1)" xlink:href="#bf118cde-8f74-4a41-bf10-7e9be5902d97"/></defs><g style="isolation:isolate"><g id="ed30963f-5c93-4fa2-85ef-83e374f46ffa" data-name="Layer 1"><path d="M658.67,190.66c-1.89-10.6-7.26-21-16.35-27-17.43-11.55-41.12-3.87-59.76,5.78.34-7.11,3.68-13.29,5.74-20.12s.84-15.9-5.91-18.56c-4.85-1.9-10.39.44-14.54,3.56s-7.75,7.09-12.54,9.15c22.72-26.31,39.64-56.25,55.41-87,3.51-6.83,6.87-13.9,7.86-21.47s-.71-15.83-6.21-21.25c-8.69-8.59-23.22-7.29-35-3.53a118.19,118.19,0,0,0-54.23,36.26c-2.35,2.8-5.88,5-9.56,4.71a7.88,7.88,0,0,1-7-7.17c-.24-5,4.27-10.64.9-14.37-9.18-10.15-27.9-6.4-40.31-.31s-22.73,15.5-33.23,24.4S412.23,71.27,399,75.4c-4.86,1.52-10.32,2.35-14.93.24s-7.57-8.14-4.82-12.35c-2.38-4.54-8-3.39-12.65-1S358.74,68.91,355,72.45a23.8,23.8,0,0,1-6.33,4.42c3.13-11,7.51-26.13,10.35-36.23,1.11-4,2-8.79-1-11.65-2.35-2.23-6.08-2.16-9.32-1.66-16.77,2.61-31.54,12.88-42.5,25.59-7.4,8.6-13.26,18.3-18.48,28.35a9.63,9.63,0,0,0,8.88,14.06l.78,0c-30.8,39.75-63.05,80.85-78.19,128.46-2.13,6.71-3.93,13.93-2,20.69S226,257.09,233,255.56c6.57-1.46,11.45-8.72,18.12-7.89,6.94.86,9.31,10.55,5.61,16.36s-10.77,8.53-17.34,10.88c-6.67,9.31-3.81,23.85,6,29.95-15.45,15.6-28.23,34.18-35.42,54.72-5.61,16-8,34.83,1.58,48.88,4.84,7.1,12.33,12.3,16.49,19.8,4.63,8.38,4.46,18.68,1.68,27.82s-7.94,17.38-13,25.52c-5.46,8.71-4.8,20.3-5.89,30.46s1.9,21.94,11.15,26.68c7.78,4,17.36,1.69,25.41-1.8a94.39,94.39,0,0,0,34.16-25.24c13.53.77,23,11.19,26.12,24.09s2.67,26.7,8.06,38.85c3.91,8.79,12.13,16.81,21.92,16.43,6.67-.26,12.52-4.29,17.7-8.41a203.1,203.1,0,0,0,35.3-36c8.13,6.77,12.09,17,18.69,25.2,8.09,10,23.59,11.93,35.8,7.38s21.64-14.24,29.62-24.38c11,17,34.45,22.46,54.46,17.5s36.61-18.63,50.38-33.69c34.89-38.16,56.16-88,59.31-139.11.67-10.8.11-22.78-7.46-30.64-9.17-9.5-24.47-9.05-37.79-7.91,33.3-39.37,55.15-87.91,63.9-138.27C659.31,212.15,660.55,201.25,658.67,190.66ZM296.87,405.49A321.93,321.93,0,0,0,259,462.39c-2.47,4.74-6.82,10.44-11.95,8.68-2.93-1-4.51-4.27-4.46-7.3s1.37-5.9,2.67-8.66c3.8-8.08,7.38-16.79,11.18-24.87-2.19,3.76-8.78,1.9-10.41-2.12s0-8.53,1.61-12.56q6.17-15.24,12.69-30.34l1.42.38c2.81-1.93,4.46-5.07,5.76-8.18s2.41-6.36,4.54-9,5.6-4.56,8.94-3.82,4.11,5.4,2.08,8.11a24.58,24.58,0,0,0,17.18,4C302.12,386.25,303.14,398,296.87,405.49ZM412.64,188l-14.4,20.4c-4.79,6.79-9.66,13.66-16,19.07s-14.52,9.3-22.94,9-18.15-4.56-20.37-12.51c1.74-4.41,3.52-9,2.93-13.73s-4.38-9.36-9.2-9.24c-3.61.09-6.6,2.67-9.13,5.21a131,131,0,0,0-14.25,17c-3.09,4.4-6.75,9.49-12.19,9.77-4.35.21-8.35-3.12-9.69-7.17s-.43-8.58,1.55-12.38a48.9,48.9,0,0,1,6.91-10.69c2.13-2.36,4.36-4.9,4.89-8s-.85-6.54-4.06-6.73c-1.75,2.65-3.64,5.43-6.55,6.8s-7.09.66-8.28-2.27c-1-2.39.36-5,1.68-7.28q5.55-9.41,11.57-18.56l-.43-1a202.28,202.28,0,0,1,33.27-42.66c3-2.92,6.2-5.84,10.2-7.19s9-.72,11.58,2.54,2.08,7.84,1,11.81a54.27,54.27,0,0,1-9.83,19.43c-1.22,1.54-2.62,3.3-2.31,5.23s4.26,3,4.92,1.18c1.93-1.54,4-3.1,6.45-3.57s5.37.5,6.27,2.78,1,4.56,2.35,6.48a51.64,51.64,0,0,1,23.81-20.92c5.23-2.26,11.2-3.66,16.63-1.94s10.72,7.57,9.24,13a9.73,9.73,0,0,0-.4,14.13c.7-.22.86-.21.24-.59l12.11.15C420.59,173.24,417.2,181.51,412.64,188ZM604.7,410.5c1.84,12.67-3.34,25.22-8.41,37L578.4,489.22c-3.27,7.62-6.76,15.54-13.22,20.86s-16.85,7.05-23.15,1.58c-3.63,5.71-8.48,12.28-13.95,16.35s-13.11,6-19.3,3.14c-4.73-2.21-7.86-6.89-9.33-11.82s-1.52-10.14-1.54-15.28c8.32-11.4,13.54-22.89,19.12-35.8-5.84-11.68-7.37-23.83-3.38-36.26a52.44,52.44,0,0,1,24.62-29.58c1.56-8.25,7.38-14,15.24-17.33A27.2,27.2,0,0,1,578.12,387l.09,1C591.07,385.62,602.86,397.82,604.7,410.5Zm-3.28-203.13c-2.43,3.85-5.43,7.54-6.37,12,2.56-.14,2.31,4.1,2.71,6.58s-.45,5-1.32,7.34c-10.52,28.46-26.52,56.48-52.49,72.91-5.91,3.74-14.42,6.56-19.35,1.67-4.14-4.12-2.78-11.08.06-16.16s6.94-9.75,7.71-15.48c-6.32,5-19.45,7.36-25.53,2.08s-8.41-13.92-7.24-21.8,5.43-15.08,10.72-21.14,11.63-11.15,17.75-16.42a350,350,0,0,0,26.39-25.27c1.35-1.43,4.22-2.33,4.73-.45s-.05,3.9.27,5.83a6.8,6.8,0,0,0,6,5.45,6.91,6.91,0,0,0,6.89-4.35l-.14,3.24c3.9-5.7,8.12-11.67,14.51-14.49s15.49-.82,17.65,5.68C605.8,198.86,603.85,203.52,601.42,207.37Z" fill="url(#bf118cde-8f74-4a41-bf10-7e9be5902d97)" style="mix-blend-mode:multiply"/><path d="M675.57,605c.06,4-4,7.93-11.33,11.51-18.09,8.82-56.15,15.65-101.87,17.76q-9.72.43-19.87.59l-3.55,0c-2.06,1.87-6.49,1.8-8.76,1.76-2.65,0-4.19-.38-5.66.51-2.3,1.36-1.87,5.1.79,5.21,5.06.19,10.28.44,14.87,2.61s8.42,6.81,8,11.9-4.2,8.35-8.25,11.64l-18.54,1.33-147.13,5.67c-3.9.15-7.62.15-11.51,0-4.3-.15-6.92-4.38-7.42-8.27s.82-8.38,5.88-8.92c3.29-.34,6.77-1.22,7-4.53s-2.39-6.28-5.42-7.62-6.44-1.36-9.73-1.38c-30.63-.16-58.44-.5-90.36,1.28-11.84.67-24.5,1.45-36.33.63a17.82,17.82,0,0,1-7.58-1.75c-2.3-1.28-4.09-3.79-3.75-6.4.31-2.41,2.3-4.26,4.42-5.4s4.49-1.79,6.56-3c4.73-2.81,15.75-5.92,6.16-12a34.36,34.36,0,0,0-5-.7h0l-.62,0h-.07c-.58,0-1.16-.05-1.74-.05a192.53,192.53,0,0,1-27.36-2.69c-2.15-.4-4.19-.83-6.1-1.29-10.48-2.55-16.92-6.15-17.26-10.43-.41-5,7.55-9.92,20.75-13.89h0a162.16,162.16,0,0,1,17.74-4.14A271.24,271.24,0,0,1,246.7,581c4.5-.24,8.9-.36,13.19-.4,5.75,0,11.28.08,16.51.36,6.05.32,11.7.85,16.83,1.57A105.59,105.59,0,0,1,309.37,586,163.14,163.14,0,0,0,347,579.76c-2.07-4.09,2.06-10,6.55-9.3q43.91-4.22,88.07-4.53c6.27,0,12.92.07,18.21,3.43s8.58,10.24,4.72,15.2q5.71-.54,11.45-1A563,563,0,0,1,541.69,579C615.42,577.94,675.35,589.56,675.57,605Z" fill="url(#ab1d001d-c4cc-4711-a460-2e13f0907bde)"/><ellipse cx="308.67" cy="654.46" rx="40.4" ry="6.15" transform="translate(-18.99 9.3) rotate(-1.67)" fill="url(#f34117d1-5642-4ecf-befc-9fb32ebcbffd)"/><ellipse cx="605.38" cy="644.06" rx="52.67" ry="9.38" fill="url(#f25fcd52-3b4c-43ed-887e-b0bf19b3512d)"/><ellipse cx="553.7" cy="590.19" rx="37.36" ry="5.08" fill="#fff"/><ellipse cx="344.33" cy="619.2" rx="41.82" ry="5.02" fill="#fff"/><path d="M460.18,643.82c1.24.43,1.9.9,1.9,1.37,0,2.5-18.09,4.51-40.39,4.51s-40.4-2-40.4-4.51c0-1.86,10-3.45,24.38-4.14-2-.65-3.14-1.35-3.14-2.09,0-3,18.09-5.37,40.4-5.37S483.32,636,483.32,639C483.32,641.11,473.86,643,460.18,643.82Z" fill="#fff"/><ellipse cx="648.07" cy="50.04" rx="36.15" ry="9.67" transform="translate(221.41 540.4) rotate(-53.39)" fill="url(#b41bdae5-fc53-412e-a2d1-9611fa4eeada)" style="mix-blend-mode:multiply"/><rect x="393.01" y="24.2" width="298.74" height="363.59" fill="#e6dffe"/><rect x="425.27" y="59.48" width="238.54" height="293.03" fill="#e6e7e8"/><path d="M553,270.24a28.42,28.42,0,0,0,19.78-.58A40.57,40.57,0,0,0,584.94,262a40.08,40.08,0,0,0,4.64-4.85s-.29-.3-.79-.89c-2.59-3.14-10.78-14.58-11.34-35,0-.27-1.93.43-4.8,1.63-8.57,3.58-25.64,11.6-26.4,12h0s.47,4.24,1,11.91c0,.67.09,1.38.14,2.11,0,.9.11,1.86.16,2.84C548,259.63,553,270.24,553,270.24Z" fill="#ffcfb6"/><path d="M547.2,246.7c20.81,2,30.42-22,30.42-22a21.35,21.35,0,0,0-5-1.83c-8.57,3.58-25.64,11.6-26.4,12h0S546.69,239,547.2,246.7Z" fill="#fc9189"/><ellipse cx="556.69" cy="200.2" rx="36.94" ry="28.09" transform="translate(334.48 748.48) rotate(-87.72)" fill="#ffcfb6"/><path d="M544.79,163.47c-9.07,1.49-18.61,10.82-12.21,17.41C537,185.4,543,189,555,189c5.75,0,7.93,10,8.48,12.76s1.3,5,8.07,2.21a3.49,3.49,0,0,1,2.59-.27c3.21,1.26.86,10.28,0,12.29,0,0-.63,6.29,3.45,8.63.49.28,8.07,2.21,20.83-26.68,2-4.53,3-14.18-2.55-22.38S573.41,158.76,544.79,163.47Z" fill="#1d0031"/><path d="M643.6,317.09c-12.45-51.94-27.3-59-27.3-59a99.8,99.8,0,0,0-26-7.91,26.58,26.58,0,0,0-5.69-.47l-.08,0h0c-.43-.09-.86-.2-1.29-.27l-25.58,13.46h0c-1.56-.64-6.81-8.47-10-10.4l-.11-.06s-.15,0-.43.06q-2.73.48-5.23,1.12c-13.6,3.45-22.15,10.29-27.36,18.1l-.06.1a38.78,38.78,0,0,0-3.19,5.79s0,0,0,0c-7.83,14.44-27.44,51.86-33.21,74.83h173.3C648.47,338.74,645.8,326.25,643.6,317.09Z" fill="#f2802a"/><path d="M581.27,242.41c-.12,0-23.65,20.52-23.65,20.52s29.4-6.82,32.66-12.71C590.28,250.22,586,240.85,581.27,242.41Z" fill="#f16319"/><path d="M557.62,262.93l-10.55-18.09a13.57,13.57,0,0,0-5.29,9S553.75,262.93,557.62,262.93Z" fill="#f16319"/><ellipse cx="573.95" cy="209.14" rx="4.86" ry="7.69" fill="#ffcfb6"/><path d="M415.11,627.8s1.82,28.31,7.3,28.7c.73.06,27.79,0,27.79,0l34.53-.28s-.24-8.32-10.34-10.06-27-8.79-33.16-22.12C434.77,610,415.11,627.8,415.11,627.8Z" fill="#ffcfb6"/><path d="M316.25,394.92c-1.32,1.11-36.5,39.23-33.62,68.5a16.88,16.88,0,0,0,16.89,15.06h42.85s46-11.52,47.05-2.07,7.7,79.71,25.43,152.09c0,0,13.07,4.5,21,1.29,10.48-4.25,12-8.76,12-8.76S437.27,459,428.93,447.56s-94.3-45.32-122.13-48.69S316.25,394.92,316.25,394.92Z" fill="#21224f"/><path d="M475.65,627.8s1.82,28.31,7.29,28.7c.73.06,27.79,0,27.79,0l34.54-.28s-.25-8.32-10.35-10.06-27-8.79-33.15-22.12C495.3,610,475.65,627.8,475.65,627.8Z" fill="#ffcfb6"/><path d="M283.75,394.92c-1,.84-8.61,21.33-13.7,44.59a32.11,32.11,0,0,0,31.35,39h99.68s43.73,7.82,44.77,17.27,10,60.37,27.72,132.75c0,0,13.11,3.44,23.35-.93,5.44-2.33,9.73-7.91,9.73-7.91S496,459,487.65,447.56s-94.3-45.32-122.13-48.69S283.75,394.92,283.75,394.92Z" fill="#21224f"/><path d="M323.74,251.9,341,264.57l26-3.4c-.24-2.1-1.47-10.82-2.6-18.73-.07-.46-.14-.92-.2-1.38-.25-1.75-.5-3.45-.72-5-.62-4.35-1.08-7.51-1.08-7.51l-7.3-3.7-16.2-8.23-8.77-4.45c0,.14.3,7.42.33,8.48C331.11,239.52,323.74,251.9,323.74,251.9Z" fill="#ffcfb6"/><path d="M361.26,244.29c-.53-.14-30.36-9.09-33.51-7.57s-5.94,12.12-5.94,12.12l51.08,4.72S368,246.13,361.26,244.29Z" fill="#f16319"/><path d="M250.44,344.7c1-33.81,20.46-61.56,28.94-72.12,5.23-10.65,42.43-23.74,42.43-23.74l51.08,4.72s35.28,6.79,42.92,36.56c18.5,72.14,38.23,103.49,33.35,120.6-20.67,72.53-92.56,70.68-106.1,55.95-6.92-7.53-75.34-47.78-72.6-96.35C258.64,366.49,250,358.87,250.44,344.7Z" fill="#f2802a"/><path d="M336.63,222.52h0c1.14,4.94,5,9.62,10,10.76,4.66,1.08,10.79,2.44,16.91,3.61-.62-4.35-1.13-8.33-1.13-8.33l-7.3-3.7Z" fill="#fc9189"/><ellipse cx="353.86" cy="191.13" rx="31.39" ry="40" fill="#ffcfb6"/><path d="M371,171.68s-4,28.11-9.78,26.57-11-2.75-10.63,5.82,7.95,18.83-10.13,19.36-41.44-47.32-36-55.84C320.06,143,393.27,141.86,371,171.68Z" fill="#1d0031"/><path d="M211.21,461.22H424.87a0,0,0,0,1,0,0v22.69a0,0,0,0,1,0,0H231.13A19.92,19.92,0,0,1,211.21,464v-2.77A0,0,0,0,1,211.21,461.22Z" fill="#6ca3ea"/><path d="M447.64,483.91H298.76a11.35,11.35,0,0,1-11.34-11.35h0a11.34,11.34,0,0,1,11.34-11.34H447.64A11.35,11.35,0,0,1,459,472.56h0A11.35,11.35,0,0,1,447.64,483.91Z" fill="#926ef6"/><polygon points="322.91 647.99 310.02 647.99 306.4 483.9 326.1 483.9 322.91 647.99" fill="#5f2e9b"/><polygon points="378.95 647.99 253.55 647.99 253.55 636.66 317.46 630.9 378.95 636.66 378.95 647.99" fill="#5f2e9b"/><path d="M241.36,646.21a10.32,10.32,0,1,1,10.32,10.32A10.32,10.32,0,0,1,241.36,646.21Z" fill="#5f2e9b"/><path d="M366.77,646.21a10.32,10.32,0,1,1,10.32,10.32A10.32,10.32,0,0,1,366.77,646.21Z" fill="#5f2e9b"/><path d="M374.46,494.67H258a10.76,10.76,0,0,1-10.76-10.76H385.22A10.76,10.76,0,0,1,374.46,494.67Z" fill="#5f2e9b"/><path d="M231,483.91a9.82,9.82,0,0,1-9.81-9.82V323c0-28.32,18.51-51.27,41.34-51.27H356c22.83,0,41.34,22.95,41.34,51.27V483.91Z" fill="#926ef6"/><path d="M229.11,483.91A17.91,17.91,0,0,1,211.21,466V323c0-28.32,18.51-51.27,41.35-51.27h93.5c22.83,0,41.34,22.95,41.34,51.27V483.91Z" fill="#5f2e9b"/><path d="M402.41,393.2s4.51,29.83,37.91,39.4l7.52-9.89Z" fill="#f16319"/><path d="M430.06,338.66l32.68,93.94s-49.14-15-56.13-28-9.28-42.79-9.28-42.79Z" fill="#f2802a"/><ellipse cx="355.8" cy="203.02" rx="6.25" ry="8.57" fill="#ffcfb6"/><g opacity="0.5"><polygon points="507.41 60.72 469.6 352.51 475.18 352.51 512.99 60.72 507.41 60.72" fill="#fff"/><polygon points="518.15 60.72 480.34 352.51 492.99 352.51 530.8 60.72 518.15 60.72" fill="#fff"/><polygon points="603.07 60.72 565.26 352.51 577.9 352.51 615.72 60.72 603.07 60.72" fill="#fff"/></g><path d="M617.4,522c1.93.84,6.64.73,6.65.73s-1-3.08-1.11-3.27c-1-2.17-4.31-5.74-7-5.38a3.18,3.18,0,0,0-2.63,3.66c0,.11,0,.22.07.33C613.86,519.86,615.75,521.24,617.4,522Z" fill="#e6dffe"/><path d="M619,535.61c2,.3,6.21-.92,6.55-1a57.7,57.7,0,0,0,2.54,7.06c.58,1.34,1.21,2.67,1.85,4-.39-.56-.74-1.07-.8-1.13-1.56-1.85-5.66-4.4-8.14-3.34a3.17,3.17,0,0,0-1.57,4.2,3,3,0,0,0,.16.31c.92,1.66,3.1,2.48,4.88,2.77s5.4-.7,6.36-.92l.75,1.52c1.22,2.43,2.45,4.84,3.58,7.24.4.85.76,1.7,1.13,2.55-.34-.5-.64-.92-.69-1-1.57-1.84-5.67-4.39-8.14-3.34a3.18,3.18,0,0,0-1.58,4.21c.05.1.1.21.16.31.93,1.66,3.1,2.48,4.89,2.76s5-.6,6.18-.92c.35.88.7,1.76,1,2.63.19.6.41,1.17.57,1.77l.5,1.79c.27,1.15.56,2.33.8,3.46.18.78.32,1.53.48,2.29-.39-.85-1.18-2.5-1.26-2.63-1.28-2-4.94-5.2-7.54-4.55a3.19,3.19,0,0,0-2.19,3.94,3,3,0,0,0,.11.32c.65,1.78,2.68,2.93,4.4,3.45s6.07,0,6.59,0c.25,1.25.48,2.47.68,3.62.11.61.2,1.18.3,1.75h1.66l-.4-2.05c-.25-1.26-.53-2.62-.85-4a33.63,33.63,0,0,0,3.7-1.73c1.37,1.49,4.9,3.23,5.35,3.45-.48,1.19-.92,2.33-1.42,3.4l-.42.92H651l.14-.31c.49-1.2,1-2.48,1.49-3.81.51.11,4.62.92,6.57.51,1.75-.39,3.86-1.38,4.62-3.11a3.18,3.18,0,0,0-1.43-4.26l-.33-.14c-2.54-.86-6.46,2-7.86,4-.08.11-.86,1.45-1.33,2.31.2-.55.41-1.07.61-1.64.41-1.1.78-2.22,1.18-3.42l.54-1.78c.17-.6.31-1.24.48-1.85.34-1.45.63-2.94.87-4.45,1,.35,4.44,1.56,6.23,1.43s4-.78,5.07-2.37a3.18,3.18,0,0,0-.78-4.43,1.75,1.75,0,0,0-.29-.18c-2.39-1.23-6.66,1-8.37,2.77-.1.1-1.19,1.45-1.77,2.2.15-.92.29-1.84.4-2.77.34-2.66.58-5.37.85-8.07.08-.83.17-1.65.26-2.48.34.13,4.43,1.66,6.46,1.52,1.79-.13,4-.79,5.07-2.37a3.18,3.18,0,0,0-.77-4.43,3,3,0,0,0-.3-.19c-2.39-1.23-6.67,1-8.37,2.77-.13.13-1.68,2.08-2.06,2.59.19-1.84.4-3.62.68-5.4a57.42,57.42,0,0,1,1.54-7.09c.17.06,4.43,1.67,6.46,1.52,1.79-.12,4-.78,5.07-2.37a3.19,3.19,0,0,0-.78-4.44l-.29-.18c-2.39-1.24-6.67,1-8.37,2.77-.14.13-1.85,2.22-2.09,2.63a1.46,1.46,0,0,1,.11-.41,41.48,41.48,0,0,1,2.77-6.72c.62-1.19,1.27-2.3,1.92-3.37.77.39,4.28,2.08,6.14,2.16s4.1-.33,5.3-1.8a3.18,3.18,0,0,0-.28-4.48l-.28-.22c-2.24-1.49-6.74.29-8.62,1.79-.1.08-1,1-1.72,1.73.3-.48.61-1,.92-1.43,1.13-1.69,2.26-3.17,3.28-4.48.58-.74,1.12-1.39,1.64-2,.92,0,4.74-.14,6.41-.93s3.48-2.19,3.86-4a3.17,3.17,0,0,0-2.31-3.85,2,2,0,0,0-.34-.06c-2.67-.29-5.85,3.37-6.83,5.53-.08.2-1.06,3.31-1,3.31h.13c-.51.57-1,1.2-1.62,1.84-1,1.3-2.21,2.77-3.38,4.43a55.42,55.42,0,0,0-3.49,5.58,41.44,41.44,0,0,0-3,6.74v.08c0-.78,0-3-.05-3.16-.3-2.38-2.31-6.79-4.95-7.28a3.17,3.17,0,0,0-3.65,2.61c0,.13,0,.26,0,.38-.16,1.89,1.21,3.79,2.55,5,1.51,1.34,5.69,2.65,6,2.77a54.93,54.93,0,0,0-1.77,7.29c-.25,1.44-.47,2.9-.67,4.35v-1.36c-.31-2.38-2.31-6.8-4.95-7.29a3.17,3.17,0,0,0-3.65,2.63c0,.12,0,.24,0,.36-.15,1.84,1.22,3.78,2.56,5s4.9,2.39,5.84,2.7c-.06.55-.15,1.11-.21,1.68-.33,2.69-.63,5.39-1,8-.14.92-.3,1.84-.47,2.77v-1.2c-.31-2.38-2.31-6.8-5-7.29a3.19,3.19,0,0,0-3.65,2.63c0,.12,0,.24,0,.36-.15,1.9,1.21,3.79,2.55,5s4.56,2.27,5.68,2.64c-.2.92-.39,1.84-.62,2.77-.18.6-.3,1.19-.51,1.79s-.38,1.18-.57,1.77c-.4,1.11-.81,2.25-1.23,3.32-.29.75-.58,1.46-.87,2.17.15-.92.4-2.77.4-2.88a12.44,12.44,0,0,0-1.65-6,4.12,4.12,0,0,0,0-.7,3.18,3.18,0,0,0-3.55-2.76,1.61,1.61,0,0,0-.33.06c-2.61.69-4.25,5.25-4.37,7.65,0,.14.08,1.68.16,2.66-.13-.58-.25-1.12-.4-1.7-.27-1.15-.57-2.29-.92-3.52-.19-.58-.36-1.17-.55-1.77s-.41-1.21-.63-1.85c-.5-1.4-1.09-2.77-1.72-4.2,1-.24,4.57-1.14,6-2.24s2.93-2.88,2.92-4.77a3.2,3.2,0,0,0-3.1-3.27h-.34c-2.67.3-5,4.55-5.47,6.9,0,.14-.19,1.84-.26,2.82-.38-.83-.76-1.67-1.17-2.5-1.19-2.41-2.48-4.81-3.75-7.2l-1.15-2.21c.36-.08,4.61-1.07,6.21-2.29,1.42-1.09,2.93-2.88,2.92-4.78a3.17,3.17,0,0,0-3.08-3.26,2.17,2.17,0,0,0-.36,0c-2.67.29-5,4.55-5.47,6.89,0,.18-.26,2.67-.29,3.3-.84-1.62-1.67-3.24-2.42-4.88a58.45,58.45,0,0,1-2.62-6.77c.17,0,4.62-1.05,6.25-2.3,1.42-1.1,2.94-2.88,2.92-4.78a3.16,3.16,0,0,0-3.07-3.26h-.37c-2.66.29-5,4.54-5.47,6.89,0,.19-.28,2.86-.28,3.34,0-.12-.11-.26-.14-.4a40.47,40.47,0,0,1-1.37-7.15c-.15-1.33-.21-2.62-.25-3.87.84-.1,4.71-.62,6.31-1.59s3.23-2.54,3.42-4.42a3.17,3.17,0,0,0-2.71-3.58,2,2,0,0,0-.35,0c-2.68,0-5.46,4-6.2,6.25,0,.13-.3,1.43-.49,2.39v-1.69c0-2,.13-3.89.26-5.54.08-.92.18-1.78.27-2.56.77-.54,3.88-2.77,4.84-4.3s1.69-3.74,1-5.54a3.2,3.2,0,0,0-4.08-1.93,2.08,2.08,0,0,0-.3.13c-2.38,1.23-3,6-2.62,8.41,0,.2.92,3.34,1,3.31h0c-.1.76-.2,1.57-.3,2.46-.16,1.65-.34,3.51-.38,5.54a55.72,55.72,0,0,0,.15,6.59,42.73,42.73,0,0,0,1.22,7.28.11.11,0,0,1,0,.08c-.41-.67-1.66-2.48-1.77-2.61-1.57-1.85-5.68-4.4-8.15-3.35A3.18,3.18,0,0,0,614,532.7c0,.1.1.2.16.3C615.07,534.54,617.26,535.36,619,535.61Z" fill="#e6dffe"/><path d="M665.12,523s.85-3.13.92-3.34c.33-2.37-.43-7.16-2.85-8.3A3.19,3.19,0,0,0,659,513a1.75,1.75,0,0,0-.12.32c-.65,1.78.17,4,1.15,5.47C661.12,520.48,665.11,523,665.12,523Z" fill="#e6dffe"/><path d="M629.23,577.08h35v18.86a15.7,15.7,0,0,1-15.69,15.69H645a15.69,15.69,0,0,1-15.69-15.69h0V577.08Z" fill="#fff"/><path d="M648.53,612.11h-3.6a16.19,16.19,0,0,1-16.16-16.17V576.62h35.92v19.32A16.18,16.18,0,0,1,648.53,612.11Zm-18.84-34.57v18.4a15.28,15.28,0,0,0,15.24,15.25h3.6a15.28,15.28,0,0,0,15.24-15.25v-18.4Z" fill="#e6dffe"/><path d="M664.23,594.68v-4.25c-2.77,2.18-6.4,1.7-9,0-4.81-3-10.4-.66-10.64-.56a1.85,1.85,0,0,0,1.42,3.41l0,0c.05,0,4.08-1.68,7.2.3a12.63,12.63,0,0,0,6.67,2A11,11,0,0,0,664.23,594.68Z" fill="#e6dffe"/><path d="M629.23,594.12a27.14,27.14,0,0,0,7.73-2.56c6.12-2.95,16.78-7.17,19.2-2.32a1.85,1.85,0,0,0,3.31-1.66c-2.93-5.85-11.08-5.64-24.11.65a23.87,23.87,0,0,1-6.13,2.14Z" fill="#e6dffe"/><circle cx="633.82" cy="585.54" r="1.3" fill="#e6dffe"/><path d="M642.59,582.94a1.3,1.3,0,1,1-1.3-1.3h0a1.29,1.29,0,0,1,1.29,1.29Z" fill="#e6dffe"/><path d="M651.38,581a1.3,1.3,0,1,1-1.3-1.3,1.31,1.31,0,0,1,1.3,1.3Z" fill="#e6dffe"/><path d="M660,582.12a1.3,1.3,0,1,1-1.31-1.29h0A1.3,1.3,0,0,1,660,582.12Z" fill="#e6dffe"/><circle cx="647.97" cy="595.78" r="1.3" fill="#e6dffe"/><path d="M655.75,598.37a1.31,1.31,0,1,1-1.3-1.3,1.31,1.31,0,0,1,1.3,1.3Z" fill="#e6dffe"/><path d="M662.27,598.37a1.3,1.3,0,1,1-1.3-1.3,1.31,1.31,0,0,1,1.3,1.3Z" fill="#e6dffe"/><path d="M356.24,206a.54.54,0,0,0,.12-.71c-2.31-3.7-.72-5.82-.65-5.91a.55.55,0,0,0-.09-.76.54.54,0,0,0-.75.08c-.09.11-2.17,2.78.58,7.16a.53.53,0,0,0,.74.17Z" fill="#fc9189"/><path d="M357.36,202.43a.56.56,0,0,0,.2-.33.54.54,0,0,0-.44-.62,3.07,3.07,0,0,0-2.77,1.14.54.54,0,0,0,.08.76.53.53,0,0,0,.75-.08,2,2,0,0,1,1.75-.76A.53.53,0,0,0,357.36,202.43Z" fill="#fc9189"/><ellipse cx="380.68" cy="190.06" rx="1.85" ry="2.64"/><ellipse cx="536.34" cy="203.36" rx="1.85" ry="2.64"/><ellipse cx="554.84" cy="204.09" rx="1.85" ry="2.64"/><path d="M370.28,209.63s3,5.29,8.82,3.91" fill="none" stroke="#fc9189" stroke-linecap="round" stroke-linejoin="round"/><path d="M383.4,199.87,381.7,205c-.28.82,0,1.72.52,1.8l2.58.37c.61.09,1.15-.9,1-1.81l-.89-5.45C384.73,198.76,383.77,198.77,383.4,199.87Z" fill="#fc9189"/><path d="M544.23,207.56l-1.7,5.07c-.27.83,0,1.73.52,1.81l2.59.37c.6.09,1.14-.9,1-1.82l-.89-5.44C545.57,206.45,544.6,206.46,544.23,207.56Z" fill="#fc9189"/><path d="M374.84,185.2a6.42,6.42,0,0,1,3.77-2.91,6,6,0,0,1,4.47.7.78.78,0,0,1,.29,1h0a.78.78,0,0,1-1.09.37C381,183.64,378.16,182.66,374.84,185.2Z" fill="#32324c"/><path d="M532.32,198.6a6.25,6.25,0,0,1,3.57-2.68,5.67,5.67,0,0,1,4.16.54.67.67,0,0,1,.25.87h0a.76.76,0,0,1-1,.35C538.1,197.08,535.47,196.26,532.32,198.6Z" fill="#32324c"/><path d="M560.72,200a6.3,6.3,0,0,0-3.57-2.68,5.67,5.67,0,0,0-4.16.54.66.66,0,0,0-.25.87h0a.76.76,0,0,0,1,.35C554.94,198.5,557.57,197.68,560.72,200Z" fill="#32324c"/><path d="M538.19,219.71s4.66,4.93,13.89,1.07" fill="none" stroke="#fc9189" stroke-linecap="round" stroke-linejoin="round"/><path d="M574.75,212.84a.53.53,0,0,1-.34-.63c1-4.26-1.23-5.74-1.33-5.8a.54.54,0,0,1,.58-.92c.12.08,3,1.92,1.8,7a.54.54,0,0,1-.65.4Z" fill="#fc9189"/><path d="M572.51,209.8a.52.52,0,0,1-.29-.24.54.54,0,0,1,.21-.73,3,3,0,0,1,3,.17.53.53,0,1,1-.56.91,2,2,0,0,0-1.91-.14A.52.52,0,0,1,572.51,209.8Z" fill="#fc9189"/><path d="M658.67,190.66c-1.89-10.6-7.26-21-16.35-27-17.43-11.55-41.12-3.87-59.76,5.78.34-7.11,3.68-13.29,5.74-20.12s.84-15.9-5.91-18.56c-4.85-1.9-10.39.44-14.54,3.56s-7.75,7.09-12.54,9.15c22.72-26.31,39.64-56.25,55.41-87,3.51-6.83,6.87-13.9,7.86-21.47s-.71-15.83-6.21-21.25c-8.69-8.59-23.22-7.29-35-3.53a118.19,118.19,0,0,0-54.23,36.26c-2.35,2.8-5.88,5-9.56,4.71a7.88,7.88,0,0,1-7-7.17c-.24-5,4.27-10.64.9-14.37-9.18-10.15-27.9-6.4-40.31-.31s-22.73,15.5-33.23,24.4S412.23,71.27,399,75.4c-4.86,1.52-10.32,2.35-14.93.24s-7.57-8.14-4.82-12.35c-2.38-4.54-8-3.39-12.65-1S358.74,68.91,355,72.45a23.8,23.8,0,0,1-6.33,4.42c3.13-11,7.51-26.13,10.35-36.23,1.11-4,2-8.79-1-11.65-2.35-2.23-6.08-2.16-9.32-1.66-16.77,2.61-31.54,12.88-42.5,25.59-7.4,8.6-13.26,18.3-18.48,28.35a9.63,9.63,0,0,0,8.88,14.06l.78,0c-30.8,39.75-63.05,80.85-78.19,128.46-2.13,6.71-3.93,13.93-2,20.69S226,257.09,233,255.56c6.57-1.46,11.45-8.72,18.12-7.89,6.94.86,9.31,10.55,5.61,16.36s-10.77,8.53-17.34,10.88c-6.67,9.31-3.81,23.85,6,29.95-15.45,15.6-28.23,34.18-35.42,54.72-5.61,16-8,34.83,1.58,48.88,4.84,7.1,12.33,12.3,16.49,19.8,4.63,8.38,4.46,18.68,1.68,27.82s-7.94,17.38-13,25.52c-5.46,8.71-4.8,20.3-5.89,30.46s1.9,21.94,11.15,26.68c7.78,4,17.36,1.69,25.41-1.8a94.39,94.39,0,0,0,34.16-25.24c13.53.77,23,11.19,26.12,24.09s2.67,26.7,8.06,38.85c3.91,8.79,12.13,16.81,21.92,16.43,6.67-.26,12.52-4.29,17.7-8.41a203.1,203.1,0,0,0,35.3-36c8.13,6.77,12.09,17,18.69,25.2,8.09,10,23.59,11.93,35.8,7.38s21.64-14.24,29.62-24.38c11,17,34.45,22.46,54.46,17.5s36.61-18.63,50.38-33.69c34.89-38.16,56.16-88,59.31-139.11.67-10.8.11-22.78-7.46-30.64-9.17-9.5-24.47-9.05-37.79-7.91,33.3-39.37,55.15-87.91,63.9-138.27C659.31,212.15,660.55,201.25,658.67,190.66ZM296.87,405.49A321.93,321.93,0,0,0,259,462.39c-2.47,4.74-6.82,10.44-11.95,8.68-2.93-1-4.51-4.27-4.46-7.3s1.37-5.9,2.67-8.66c3.8-8.08,7.38-16.79,11.18-24.87-2.19,3.76-8.78,1.9-10.41-2.12s0-8.53,1.61-12.56q6.17-15.24,12.69-30.34l1.42.38c2.81-1.93,4.46-5.07,5.76-8.18s2.41-6.36,4.54-9,5.6-4.56,8.94-3.82,4.11,5.4,2.08,8.11a24.58,24.58,0,0,0,17.18,4C302.12,386.25,303.14,398,296.87,405.49ZM412.64,188l-14.4,20.4c-4.79,6.79-9.66,13.66-16,19.07s-14.52,9.3-22.94,9-18.15-4.56-20.37-12.51c1.74-4.41,3.52-9,2.93-13.73s-4.38-9.36-9.2-9.24c-3.61.09-6.6,2.67-9.13,5.21a131,131,0,0,0-14.25,17c-3.09,4.4-6.75,9.49-12.19,9.77-4.35.21-8.35-3.12-9.69-7.17s-.43-8.58,1.55-12.38a48.9,48.9,0,0,1,6.91-10.69c2.13-2.36,4.36-4.9,4.89-8s-.85-6.54-4.06-6.73c-1.75,2.65-3.64,5.43-6.55,6.8s-7.09.66-8.28-2.27c-1-2.39.36-5,1.68-7.28q5.55-9.41,11.57-18.56l-.43-1a202.28,202.28,0,0,1,33.27-42.66c3-2.92,6.2-5.84,10.2-7.19s9-.72,11.58,2.54,2.08,7.84,1,11.81a54.27,54.27,0,0,1-9.83,19.43c-1.22,1.54-2.62,3.3-2.31,5.23s4.26,3,4.92,1.18c1.93-1.54,4-3.1,6.45-3.57s5.37.5,6.27,2.78,1,4.56,2.35,6.48a51.64,51.64,0,0,1,23.81-20.92c5.23-2.26,11.2-3.66,16.63-1.94s10.72,7.57,9.24,13a9.73,9.73,0,0,0-.4,14.13c.7-.22.86-.21.24-.59l12.11.15C420.59,173.24,417.2,181.51,412.64,188ZM604.7,410.5c1.84,12.67-3.34,25.22-8.41,37L578.4,489.22c-3.27,7.62-6.76,15.54-13.22,20.86s-16.85,7.05-23.15,1.58c-3.63,5.71-8.48,12.28-13.95,16.35s-13.11,6-19.3,3.14c-4.73-2.21-7.86-6.89-9.33-11.82s-1.52-10.14-1.54-15.28c8.32-11.4,13.54-22.89,19.12-35.8-5.84-11.68-7.37-23.83-3.38-36.26a52.44,52.44,0,0,1,24.62-29.58c1.56-8.25,7.38-14,15.24-17.33A27.2,27.2,0,0,1,578.12,387l.09,1C591.07,385.62,602.86,397.82,604.7,410.5Zm-3.28-203.13c-2.43,3.85-5.43,7.54-6.37,12,2.56-.14,2.31,4.1,2.71,6.58s-.45,5-1.32,7.34c-10.52,28.46-26.52,56.48-52.49,72.91-5.91,3.74-14.42,6.56-19.35,1.67-4.14-4.12-2.78-11.08.06-16.16s6.94-9.75,7.71-15.48c-6.32,5-19.45,7.36-25.53,2.08s-8.41-13.92-7.24-21.8,5.43-15.08,10.72-21.14,11.63-11.15,17.75-16.42a350,350,0,0,0,26.39-25.27c1.35-1.43,4.22-2.33,4.73-.45s-.05,3.9.27,5.83a6.8,6.8,0,0,0,6,5.45,6.91,6.91,0,0,0,6.89-4.35l-.14,3.24c3.9-5.7,8.12-11.67,14.51-14.49s15.49-.82,17.65,5.68C605.8,198.86,603.85,203.52,601.42,207.37Z" fill="url(#bf118cde-8f74-4a41-bf10-7e9be5902d97)" style="mix-blend-mode:multiply"/><path d="M675.57,605c.06,4-4,7.93-11.33,11.51-18.09,8.82-56.15,15.65-101.87,17.76q-9.72.43-19.87.59l-3.55,0c-2.06,1.87-6.49,1.8-8.76,1.76-2.65,0-4.19-.38-5.66.51-2.3,1.36-1.87,5.1.79,5.21,5.06.19,10.28.44,14.87,2.61s8.42,6.81,8,11.9-4.2,8.35-8.25,11.64l-18.54,1.33-147.13,5.67c-3.9.15-7.62.15-11.51,0-4.3-.15-6.92-4.38-7.42-8.27s.82-8.38,5.88-8.92c3.29-.34,6.77-1.22,7-4.53s-2.39-6.28-5.42-7.62-6.44-1.36-9.73-1.38c-30.63-.16-58.44-.5-90.36,1.28-11.84.67-24.5,1.45-36.33.63a17.82,17.82,0,0,1-7.58-1.75c-2.3-1.28-4.09-3.79-3.75-6.4.31-2.41,2.3-4.26,4.42-5.4s4.49-1.79,6.56-3c4.73-2.81,15.75-5.92,6.16-12a34.36,34.36,0,0,0-5-.7h0l-.62,0h-.07c-.58,0-1.16-.05-1.74-.05a192.53,192.53,0,0,1-27.36-2.69c-2.15-.4-4.19-.83-6.1-1.29-10.48-2.55-16.92-6.15-17.26-10.43-.41-5,7.55-9.92,20.75-13.89h0a162.16,162.16,0,0,1,17.74-4.14A271.24,271.24,0,0,1,246.7,581c4.5-.24,8.9-.36,13.19-.4,5.75,0,11.28.08,16.51.36,6.05.32,11.7.85,16.83,1.57A105.59,105.59,0,0,1,309.37,586,163.14,163.14,0,0,0,347,579.76c-2.07-4.09,2.06-10,6.55-9.3q43.91-4.22,88.07-4.53c6.27,0,12.92.07,18.21,3.43s8.58,10.24,4.72,15.2q5.71-.54,11.45-1A563,563,0,0,1,541.69,579C615.42,577.94,675.35,589.56,675.57,605Z" fill="url(#ab1d001d-c4cc-4711-a460-2e13f0907bde)"/><ellipse cx="308.67" cy="654.46" rx="40.4" ry="6.15" transform="translate(-18.99 9.3) rotate(-1.67)" fill="url(#f34117d1-5642-4ecf-befc-9fb32ebcbffd)"/><ellipse cx="605.38" cy="644.06" rx="52.67" ry="9.38" fill="url(#f25fcd52-3b4c-43ed-887e-b0bf19b3512d)"/><ellipse cx="553.7" cy="590.19" rx="37.36" ry="5.08" fill="#fff"/><ellipse cx="344.33" cy="619.2" rx="41.82" ry="5.02" fill="#fff"/><path d="M460.18,643.82c1.24.43,1.9.9,1.9,1.37,0,2.5-18.09,4.51-40.39,4.51s-40.4-2-40.4-4.51c0-1.86,10-3.45,24.38-4.14-2-.65-3.14-1.35-3.14-2.09,0-3,18.09-5.37,40.4-5.37S483.32,636,483.32,639C483.32,641.11,473.86,643,460.18,643.82Z" fill="#fff"/><ellipse cx="648.07" cy="50.04" rx="36.15" ry="9.67" transform="translate(221.41 540.4) rotate(-53.39)" fill="url(#b41bdae5-fc53-412e-a2d1-9611fa4eeada)" style="mix-blend-mode:multiply"/><rect x="393.01" y="24.2" width="298.74" height="363.59" fill="#e6dffe"/><rect x="425.27" y="59.48" width="238.54" height="293.03" fill="#e6e7e8"/><path d="M553,270.24a28.42,28.42,0,0,0,19.78-.58A40.57,40.57,0,0,0,584.94,262a40.08,40.08,0,0,0,4.64-4.85s-.29-.3-.79-.89c-2.59-3.14-10.78-14.58-11.34-35,0-.27-1.93.43-4.8,1.63-8.57,3.58-25.64,11.6-26.4,12h0s.47,4.24,1,11.91c0,.67.09,1.38.14,2.11,0,.9.11,1.86.16,2.84C548,259.63,553,270.24,553,270.24Z" fill="#ffcfb6"/><path d="M547.2,246.7c20.81,2,30.42-22,30.42-22a21.35,21.35,0,0,0-5-1.83c-8.57,3.58-25.64,11.6-26.4,12h0S546.69,239,547.2,246.7Z" fill="#fc9189"/><ellipse cx="556.69" cy="200.2" rx="36.94" ry="28.09" transform="translate(334.48 748.48) rotate(-87.72)" fill="#ffcfb6"/><path d="M544.79,163.47c-9.07,1.49-18.61,10.82-12.21,17.41C537,185.4,543,189,555,189c5.75,0,7.93,10,8.48,12.76s1.3,5,8.07,2.21a3.49,3.49,0,0,1,2.59-.27c3.21,1.26.86,10.28,0,12.29,0,0-.63,6.29,3.45,8.63.49.28,8.07,2.21,20.83-26.68,2-4.53,3-14.18-2.55-22.38S573.41,158.76,544.79,163.47Z" fill="#1d0031"/><path d="M643.6,317.09c-12.45-51.94-27.3-59-27.3-59a99.8,99.8,0,0,0-26-7.91,26.58,26.58,0,0,0-5.69-.47l-.08,0h0c-.43-.09-.86-.2-1.29-.27l-25.58,13.46h0c-1.56-.64-6.81-8.47-10-10.4l-.11-.06s-.15,0-.43.06q-2.73.48-5.23,1.12c-13.6,3.45-22.15,10.29-27.36,18.1l-.06.1a38.78,38.78,0,0,0-3.19,5.79s0,0,0,0c-7.83,14.44-27.44,51.86-33.21,74.83h173.3C648.47,338.74,645.8,326.25,643.6,317.09Z" fill="#f48225" data-secondary="true"/><path d="M581.27,242.41c-.12,0-23.65,20.52-23.65,20.52s29.4-6.82,32.66-12.71C590.28,250.22,586,240.85,581.27,242.41Z" fill="#f48225" data-secondary="true"/><path d="M557.62,262.93l-10.55-18.09a13.57,13.57,0,0,0-5.29,9S553.75,262.93,557.62,262.93Z" fill="#f48225" data-secondary="true"/><g opacity="0.2"><path d="M581.27,242.41c-.12,0-23.65,20.52-23.65,20.52s29.4-6.82,32.66-12.71C590.28,250.22,586,240.85,581.27,242.41Z"/><path d="M557.62,262.93l-10.55-18.09a13.57,13.57,0,0,0-5.29,9S553.75,262.93,557.62,262.93Z"/></g><ellipse cx="573.95" cy="209.14" rx="4.86" ry="7.69" fill="#ffcfb6"/><path d="M415.11,627.8s1.82,28.31,7.3,28.7c.73.06,27.79,0,27.79,0l34.53-.28s-.24-8.32-10.34-10.06-27-8.79-33.16-22.12C434.77,610,415.11,627.8,415.11,627.8Z" fill="#ffcfb6"/><path d="M316.25,394.92c-1.32,1.11-36.5,39.23-33.62,68.5a16.88,16.88,0,0,0,16.89,15.06h42.85s46-11.52,47.05-2.07,7.7,79.71,25.43,152.09c0,0,13.07,4.5,21,1.29,10.48-4.25,12-8.76,12-8.76S437.27,459,428.93,447.56s-94.3-45.32-122.13-48.69S316.25,394.92,316.25,394.92Z" fill="#21224f"/><path d="M475.65,627.8s1.82,28.31,7.29,28.7c.73.06,27.79,0,27.79,0l34.54-.28s-.25-8.32-10.35-10.06-27-8.79-33.15-22.12C495.3,610,475.65,627.8,475.65,627.8Z" fill="#ffcfb6"/><path d="M283.75,394.92c-1,.84-8.61,21.33-13.7,44.59a32.11,32.11,0,0,0,31.35,39h99.68s43.73,7.82,44.77,17.27,10,60.37,27.72,132.75c0,0,13.11,3.44,23.35-.93,5.44-2.33,9.73-7.91,9.73-7.91S496,459,487.65,447.56s-94.3-45.32-122.13-48.69S283.75,394.92,283.75,394.92Z" fill="#21224f"/><path d="M323.74,251.9,341,264.57l26-3.4c-.24-2.1-1.47-10.82-2.6-18.73-.07-.46-.14-.92-.2-1.38-.25-1.75-.5-3.45-.72-5-.62-4.35-1.08-7.51-1.08-7.51l-7.3-3.7-16.2-8.23-8.77-4.45c0,.14.3,7.42.33,8.48C331.11,239.52,323.74,251.9,323.74,251.9Z" fill="#ffcfb6"/><path d="M361.26,244.29c-.53-.14-30.36-9.09-33.51-7.57s-5.94,12.12-5.94,12.12l51.08,4.72S368,246.13,361.26,244.29Z" fill="#f48225" data-secondary="true"/><path d="M361.26,244.29c-.53-.14-30.36-9.09-33.51-7.57s-5.94,12.12-5.94,12.12l51.08,4.72S368,246.13,361.26,244.29Z" opacity="0.2"/><path d="M250.44,344.7c1-33.81,20.46-61.56,28.94-72.12,5.23-10.65,42.43-23.74,42.43-23.74l51.08,4.72s35.28,6.79,42.92,36.56c18.5,72.14,38.23,103.49,33.35,120.6-20.67,72.53-92.56,70.68-106.1,55.95-6.92-7.53-75.34-47.78-72.6-96.35C258.64,366.49,250,358.87,250.44,344.7Z" fill="#f48225" data-secondary="true"/><path d="M336.63,222.52h0c1.14,4.94,5,9.62,10,10.76,4.66,1.08,10.79,2.44,16.91,3.61-.62-4.35-1.13-8.33-1.13-8.33l-7.3-3.7Z" fill="#fc9189"/><ellipse cx="353.86" cy="191.13" rx="31.39" ry="40" fill="#ffcfb6"/><path d="M371,171.68s-4,28.11-9.78,26.57-11-2.75-10.63,5.82,7.95,18.83-10.13,19.36-41.44-47.32-36-55.84C320.06,143,393.27,141.86,371,171.68Z" fill="#1d0031"/><path d="M211.21,461.22H424.87a0,0,0,0,1,0,0v22.69a0,0,0,0,1,0,0H231.13A19.92,19.92,0,0,1,211.21,464v-2.77A0,0,0,0,1,211.21,461.22Z" fill="#6ca3ea"/><path d="M447.64,483.91H298.76a11.35,11.35,0,0,1-11.34-11.35h0a11.34,11.34,0,0,1,11.34-11.34H447.64A11.35,11.35,0,0,1,459,472.56h0A11.35,11.35,0,0,1,447.64,483.91Z" fill="#686175" data-primary="true"/><path d="M231,483.91a9.82,9.82,0,0,1-9.81-9.82V323c0-28.32,18.51-51.27,41.34-51.27H356c22.83,0,41.34,22.95,41.34,51.27V483.91Z" fill="#686175" data-primary="true"/><polygon points="322.91 647.99 310.02 647.99 306.4 483.9 326.1 483.9 322.91 647.99" fill="#686175" data-primary="true"/><polygon points="378.95 647.99 253.55 647.99 253.55 636.66 317.46 630.9 378.95 636.66 378.95 647.99" fill="#686175" data-primary="true"/><path d="M241.36,646.21a10.32,10.32,0,1,1,10.32,10.32A10.32,10.32,0,0,1,241.36,646.21Z" fill="#686175" data-primary="true"/><path d="M366.77,646.21a10.32,10.32,0,1,1,10.32,10.32A10.32,10.32,0,0,1,366.77,646.21Z" fill="#686175" data-primary="true"/><path d="M374.46,494.67H258a10.76,10.76,0,0,1-10.76-10.76H385.22A10.76,10.76,0,0,1,374.46,494.67Z" fill="#686175" data-primary="true"/><path d="M229.11,483.91A17.91,17.91,0,0,1,211.21,466V323c0-28.32,18.51-51.27,41.35-51.27h93.5c22.83,0,41.34,22.95,41.34,51.27V483.91Z" fill="#686175" data-primary="true"/><g opacity="0.2"><polygon points="322.91 647.99 310.02 647.99 306.4 483.9 326.1 483.9 322.91 647.99"/><polygon points="378.95 647.99 253.55 647.99 253.55 636.66 317.46 630.9 378.95 636.66 378.95 647.99"/><path d="M241.36,646.21a10.32,10.32,0,1,1,10.32,10.32A10.32,10.32,0,0,1,241.36,646.21Z"/><path d="M366.77,646.21a10.32,10.32,0,1,1,10.32,10.32A10.32,10.32,0,0,1,366.77,646.21Z"/><path d="M374.46,494.67H258a10.76,10.76,0,0,1-10.76-10.76H385.22A10.76,10.76,0,0,1,374.46,494.67Z"/><path d="M229.11,483.91A17.91,17.91,0,0,1,211.21,466V323c0-28.32,18.51-51.27,41.35-51.27h93.5c22.83,0,41.34,22.95,41.34,51.27V483.91Z"/></g><path d="M402.41,393.2s4.51,29.83,37.91,39.4l7.52-9.89Z" opacity="0.2"/><path d="M430.06,338.66l32.68,93.94s-49.14-15-56.13-28-9.28-42.79-9.28-42.79Z" fill="#f48225" data-secondary="true"/><ellipse cx="355.8" cy="203.02" rx="6.25" ry="8.57" fill="#ffcfb6"/><g opacity="0.5"><polygon points="507.41 60.72 469.6 352.51 475.18 352.51 512.99 60.72 507.41 60.72" fill="#fff"/><polygon points="518.15 60.72 480.34 352.51 492.99 352.51 530.8 60.72 518.15 60.72" fill="#fff"/><polygon points="603.07 60.72 565.26 352.51 577.9 352.51 615.72 60.72 603.07 60.72" fill="#fff"/></g><path d="M617.4,522c1.93.84,6.64.73,6.65.73s-1-3.08-1.11-3.27c-1-2.17-4.31-5.74-7-5.38a3.18,3.18,0,0,0-2.63,3.66c0,.11,0,.22.07.33C613.86,519.86,615.75,521.24,617.4,522Z" fill="#e6dffe"/><path d="M619,535.61c2,.3,6.21-.92,6.55-1a57.7,57.7,0,0,0,2.54,7.06c.58,1.34,1.21,2.67,1.85,4-.39-.56-.74-1.07-.8-1.13-1.56-1.85-5.66-4.4-8.14-3.34a3.17,3.17,0,0,0-1.57,4.2,3,3,0,0,0,.16.31c.92,1.66,3.1,2.48,4.88,2.77s5.4-.7,6.36-.92l.75,1.52c1.22,2.43,2.45,4.84,3.58,7.24.4.85.76,1.7,1.13,2.55-.34-.5-.64-.92-.69-1-1.57-1.84-5.67-4.39-8.14-3.34a3.18,3.18,0,0,0-1.58,4.21c.05.1.1.21.16.31.93,1.66,3.1,2.48,4.89,2.76s5-.6,6.18-.92c.35.88.7,1.76,1,2.63.19.6.41,1.17.57,1.77l.5,1.79c.27,1.15.56,2.33.8,3.46.18.78.32,1.53.48,2.29-.39-.85-1.18-2.5-1.26-2.63-1.28-2-4.94-5.2-7.54-4.55a3.19,3.19,0,0,0-2.19,3.94,3,3,0,0,0,.11.32c.65,1.78,2.68,2.93,4.4,3.45s6.07,0,6.59,0c.25,1.25.48,2.47.68,3.62.11.61.2,1.18.3,1.75h1.66l-.4-2.05c-.25-1.26-.53-2.62-.85-4a33.63,33.63,0,0,0,3.7-1.73c1.37,1.49,4.9,3.23,5.35,3.45-.48,1.19-.92,2.33-1.42,3.4l-.42.92H651l.14-.31c.49-1.2,1-2.48,1.49-3.81.51.11,4.62.92,6.57.51,1.75-.39,3.86-1.38,4.62-3.11a3.18,3.18,0,0,0-1.43-4.26l-.33-.14c-2.54-.86-6.46,2-7.86,4-.08.11-.86,1.45-1.33,2.31.2-.55.41-1.07.61-1.64.41-1.1.78-2.22,1.18-3.42l.54-1.78c.17-.6.31-1.24.48-1.85.34-1.45.63-2.94.87-4.45,1,.35,4.44,1.56,6.23,1.43s4-.78,5.07-2.37a3.18,3.18,0,0,0-.78-4.43,1.75,1.75,0,0,0-.29-.18c-2.39-1.23-6.66,1-8.37,2.77-.1.1-1.19,1.45-1.77,2.2.15-.92.29-1.84.4-2.77.34-2.66.58-5.37.85-8.07.08-.83.17-1.65.26-2.48.34.13,4.43,1.66,6.46,1.52,1.79-.13,4-.79,5.07-2.37a3.18,3.18,0,0,0-.77-4.43,3,3,0,0,0-.3-.19c-2.39-1.23-6.67,1-8.37,2.77-.13.13-1.68,2.08-2.06,2.59.19-1.84.4-3.62.68-5.4a57.42,57.42,0,0,1,1.54-7.09c.17.06,4.43,1.67,6.46,1.52,1.79-.12,4-.78,5.07-2.37a3.19,3.19,0,0,0-.78-4.44l-.29-.18c-2.39-1.24-6.67,1-8.37,2.77-.14.13-1.85,2.22-2.09,2.63a1.46,1.46,0,0,1,.11-.41,41.48,41.48,0,0,1,2.77-6.72c.62-1.19,1.27-2.3,1.92-3.37.77.39,4.28,2.08,6.14,2.16s4.1-.33,5.3-1.8a3.18,3.18,0,0,0-.28-4.48l-.28-.22c-2.24-1.49-6.74.29-8.62,1.79-.1.08-1,1-1.72,1.73.3-.48.61-1,.92-1.43,1.13-1.69,2.26-3.17,3.28-4.48.58-.74,1.12-1.39,1.64-2,.92,0,4.74-.14,6.41-.93s3.48-2.19,3.86-4a3.17,3.17,0,0,0-2.31-3.85,2,2,0,0,0-.34-.06c-2.67-.29-5.85,3.37-6.83,5.53-.08.2-1.06,3.31-1,3.31h.13c-.51.57-1,1.2-1.62,1.84-1,1.3-2.21,2.77-3.38,4.43a55.42,55.42,0,0,0-3.49,5.58,41.44,41.44,0,0,0-3,6.74v.08c0-.78,0-3-.05-3.16-.3-2.38-2.31-6.79-4.95-7.28a3.17,3.17,0,0,0-3.65,2.61c0,.13,0,.26,0,.38-.16,1.89,1.21,3.79,2.55,5,1.51,1.34,5.69,2.65,6,2.77a54.93,54.93,0,0,0-1.77,7.29c-.25,1.44-.47,2.9-.67,4.35v-1.36c-.31-2.38-2.31-6.8-4.95-7.29a3.17,3.17,0,0,0-3.65,2.63c0,.12,0,.24,0,.36-.15,1.84,1.22,3.78,2.56,5s4.9,2.39,5.84,2.7c-.06.55-.15,1.11-.21,1.68-.33,2.69-.63,5.39-1,8-.14.92-.3,1.84-.47,2.77v-1.2c-.31-2.38-2.31-6.8-5-7.29a3.19,3.19,0,0,0-3.65,2.63c0,.12,0,.24,0,.36-.15,1.9,1.21,3.79,2.55,5s4.56,2.27,5.68,2.64c-.2.92-.39,1.84-.62,2.77-.18.6-.3,1.19-.51,1.79s-.38,1.18-.57,1.77c-.4,1.11-.81,2.25-1.23,3.32-.29.75-.58,1.46-.87,2.17.15-.92.4-2.77.4-2.88a12.44,12.44,0,0,0-1.65-6,4.12,4.12,0,0,0,0-.7,3.18,3.18,0,0,0-3.55-2.76,1.61,1.61,0,0,0-.33.06c-2.61.69-4.25,5.25-4.37,7.65,0,.14.08,1.68.16,2.66-.13-.58-.25-1.12-.4-1.7-.27-1.15-.57-2.29-.92-3.52-.19-.58-.36-1.17-.55-1.77s-.41-1.21-.63-1.85c-.5-1.4-1.09-2.77-1.72-4.2,1-.24,4.57-1.14,6-2.24s2.93-2.88,2.92-4.77a3.2,3.2,0,0,0-3.1-3.27h-.34c-2.67.3-5,4.55-5.47,6.9,0,.14-.19,1.84-.26,2.82-.38-.83-.76-1.67-1.17-2.5-1.19-2.41-2.48-4.81-3.75-7.2l-1.15-2.21c.36-.08,4.61-1.07,6.21-2.29,1.42-1.09,2.93-2.88,2.92-4.78a3.17,3.17,0,0,0-3.08-3.26,2.17,2.17,0,0,0-.36,0c-2.67.29-5,4.55-5.47,6.89,0,.18-.26,2.67-.29,3.3-.84-1.62-1.67-3.24-2.42-4.88a58.45,58.45,0,0,1-2.62-6.77c.17,0,4.62-1.05,6.25-2.3,1.42-1.1,2.94-2.88,2.92-4.78a3.16,3.16,0,0,0-3.07-3.26h-.37c-2.66.29-5,4.54-5.47,6.89,0,.19-.28,2.86-.28,3.34,0-.12-.11-.26-.14-.4a40.47,40.47,0,0,1-1.37-7.15c-.15-1.33-.21-2.62-.25-3.87.84-.1,4.71-.62,6.31-1.59s3.23-2.54,3.42-4.42a3.17,3.17,0,0,0-2.71-3.58,2,2,0,0,0-.35,0c-2.68,0-5.46,4-6.2,6.25,0,.13-.3,1.43-.49,2.39v-1.69c0-2,.13-3.89.26-5.54.08-.92.18-1.78.27-2.56.77-.54,3.88-2.77,4.84-4.3s1.69-3.74,1-5.54a3.2,3.2,0,0,0-4.08-1.93,2.08,2.08,0,0,0-.3.13c-2.38,1.23-3,6-2.62,8.41,0,.2.92,3.34,1,3.31h0c-.1.76-.2,1.57-.3,2.46-.16,1.65-.34,3.51-.38,5.54a55.72,55.72,0,0,0,.15,6.59,42.73,42.73,0,0,0,1.22,7.28.11.11,0,0,1,0,.08c-.41-.67-1.66-2.48-1.77-2.61-1.57-1.85-5.68-4.4-8.15-3.35A3.18,3.18,0,0,0,614,532.7c0,.1.1.2.16.3C615.07,534.54,617.26,535.36,619,535.61Z" fill="#e6dffe"/><path d="M665.12,523s.85-3.13.92-3.34c.33-2.37-.43-7.16-2.85-8.3A3.19,3.19,0,0,0,659,513a1.75,1.75,0,0,0-.12.32c-.65,1.78.17,4,1.15,5.47C661.12,520.48,665.11,523,665.12,523Z" fill="#e6dffe"/><path d="M629.23,577.08h35v18.86a15.7,15.7,0,0,1-15.69,15.69H645a15.69,15.69,0,0,1-15.69-15.69h0V577.08Z" fill="#fff"/><path d="M648.53,612.11h-3.6a16.19,16.19,0,0,1-16.16-16.17V576.62h35.92v19.32A16.18,16.18,0,0,1,648.53,612.11Zm-18.84-34.57v18.4a15.28,15.28,0,0,0,15.24,15.25h3.6a15.28,15.28,0,0,0,15.24-15.25v-18.4Z" fill="#e6dffe"/><path d="M664.23,594.68v-4.25c-2.77,2.18-6.4,1.7-9,0-4.81-3-10.4-.66-10.64-.56a1.85,1.85,0,0,0,1.42,3.41l0,0c.05,0,4.08-1.68,7.2.3a12.63,12.63,0,0,0,6.67,2A11,11,0,0,0,664.23,594.68Z" fill="#e6dffe"/><path d="M629.23,594.12a27.14,27.14,0,0,0,7.73-2.56c6.12-2.95,16.78-7.17,19.2-2.32a1.85,1.85,0,0,0,3.31-1.66c-2.93-5.85-11.08-5.64-24.11.65a23.87,23.87,0,0,1-6.13,2.14Z" fill="#e6dffe"/><circle cx="633.82" cy="585.54" r="1.3" fill="#e6dffe"/><path d="M642.59,582.94a1.3,1.3,0,1,1-1.3-1.3h0a1.29,1.29,0,0,1,1.29,1.29Z" fill="#e6dffe"/><path d="M651.38,581a1.3,1.3,0,1,1-1.3-1.3,1.31,1.31,0,0,1,1.3,1.3Z" fill="#e6dffe"/><path d="M660,582.12a1.3,1.3,0,1,1-1.31-1.29h0A1.3,1.3,0,0,1,660,582.12Z" fill="#e6dffe"/><circle cx="647.97" cy="595.78" r="1.3" fill="#e6dffe"/><path d="M655.75,598.37a1.31,1.31,0,1,1-1.3-1.3,1.31,1.31,0,0,1,1.3,1.3Z" fill="#e6dffe"/><path d="M662.27,598.37a1.3,1.3,0,1,1-1.3-1.3,1.31,1.31,0,0,1,1.3,1.3Z" fill="#e6dffe"/><path d="M356.24,206a.54.54,0,0,0,.12-.71c-2.31-3.7-.72-5.82-.65-5.91a.55.55,0,0,0-.09-.76.54.54,0,0,0-.75.08c-.09.11-2.17,2.78.58,7.16a.53.53,0,0,0,.74.17Z" fill="#fc9189"/><path d="M357.36,202.43a.56.56,0,0,0,.2-.33.54.54,0,0,0-.44-.62,3.07,3.07,0,0,0-2.77,1.14.54.54,0,0,0,.08.76.53.53,0,0,0,.75-.08,2,2,0,0,1,1.75-.76A.53.53,0,0,0,357.36,202.43Z" fill="#fc9189"/><ellipse cx="380.68" cy="190.06" rx="1.85" ry="2.64"/><ellipse cx="536.34" cy="203.36" rx="1.85" ry="2.64"/><ellipse cx="554.84" cy="204.09" rx="1.85" ry="2.64"/><path d="M370.28,209.63s3,5.29,8.82,3.91" fill="none" stroke="#fc9189" stroke-linecap="round" stroke-linejoin="round"/><path d="M383.4,199.87,381.7,205c-.28.82,0,1.72.52,1.8l2.58.37c.61.09,1.15-.9,1-1.81l-.89-5.45C384.73,198.76,383.77,198.77,383.4,199.87Z" fill="#fc9189"/><path d="M544.23,207.56l-1.7,5.07c-.27.83,0,1.73.52,1.81l2.59.37c.6.09,1.14-.9,1-1.82l-.89-5.44C545.57,206.45,544.6,206.46,544.23,207.56Z" fill="#fc9189"/><path d="M374.84,185.2a6.42,6.42,0,0,1,3.77-2.91,6,6,0,0,1,4.47.7.78.78,0,0,1,.29,1h0a.78.78,0,0,1-1.09.37C381,183.64,378.16,182.66,374.84,185.2Z" fill="#32324c"/><path d="M532.32,198.6a6.25,6.25,0,0,1,3.57-2.68,5.67,5.67,0,0,1,4.16.54.67.67,0,0,1,.25.87h0a.76.76,0,0,1-1,.35C538.1,197.08,535.47,196.26,532.32,198.6Z" fill="#32324c"/><path d="M560.72,200a6.3,6.3,0,0,0-3.57-2.68,5.67,5.67,0,0,0-4.16.54.66.66,0,0,0-.25.87h0a.76.76,0,0,0,1,.35C554.94,198.5,557.57,197.68,560.72,200Z" fill="#32324c"/><path d="M538.19,219.71s4.66,4.93,13.89,1.07" fill="none" stroke="#fc9189" stroke-linecap="round" stroke-linejoin="round"/><path d="M574.75,212.84a.53.53,0,0,1-.34-.63c1-4.26-1.23-5.74-1.33-5.8a.54.54,0,0,1,.58-.92c.12.08,3,1.92,1.8,7a.54.54,0,0,1-.65.4Z" fill="#fc9189"/><path d="M572.51,209.8a.52.52,0,0,1-.29-.24.54.54,0,0,1,.21-.73,3,3,0,0,1,3,.17.53.53,0,1,1-.56.91,2,2,0,0,0-1.91-.14A.52.52,0,0,1,572.51,209.8Z" fill="#fc9189"/></g></g></svg>