<svg xmlns="http://www.w3.org/2000/svg" xmlns:xlink="http://www.w3.org/1999/xlink" width="865.76" height="682.89" viewBox="0 0 865.76 682.89"><defs><clipPath id="a"><path d="M135.86,453S-19.62,374.34,61.43,184.65c0,0,56.16-145.24,256.61-145.06,0,0,37.4-2.5,88.26,3,0,0,47.43,3,91.28-9,0,0,176.48-43.88,251.27,52.86,0,0,43.88,43.05,57.84,145.18,0,0,23.08,118.24-111.62,203.93,0,0-142.33,97.66-367.88,78.71C327.19,514.28,220,502.48,135.86,453Z" fill="none"/></clipPath></defs><g style="isolation:isolate"><rect x="216.1" y="230.59" width="4.27" height="0.75" fill="#686175" data-primary="true"/><ellipse cx="439.62" cy="629.25" rx="350.36" ry="43.71" fill="#f48225" data-secondary="true"/><ellipse cx="439.62" cy="629.25" rx="350.36" ry="43.71" fill="#fff" opacity="0.7"/><g clip-path="url(#a)"><rect x="22.94" y="5.76" width="800.44" height="522.31" fill="#f48225" data-secondary="true"/><rect x="22.94" y="5.76" width="800.44" height="522.31" fill="#fff" opacity="0.7"/><rect x="84.65" y="75.06" width="231.75" height="286.38" fill="#f0f5fc"/><rect x="91.03" y="75.06" width="217.94" height="282.36" fill="#fff"/><rect x="246.64" y="75.06" width="5.88" height="286.38" fill="#f9e4de"/><rect x="164.61" y="75.06" width="5.88" height="286.38" fill="#f9e4de"/><rect x="86.48" y="134.94" width="229.51" height="6.9" fill="#f9e4de"/><rect x="506.05" y="75.06" width="231.75" height="286.38" fill="#f0f5fc"/><rect x="512.43" y="75.06" width="217.94" height="282.36" fill="#fff"/><rect x="668.03" y="75.06" width="5.88" height="286.38" fill="#f9e4de"/><rect x="586.01" y="75.06" width="5.88" height="286.38" fill="#f9e4de"/><rect x="507.87" y="134.94" width="229.51" height="6.9" fill="#f9e4de"/><path d="M698.24,394.18c0,.4,9.41,1.56,20.64,1.56s20-1.16,20-1.56-4.06-1.11-20.17-1.11C701.39,393.07,698.24,393.79,698.24,394.18Z" fill="#272727"/><path d="M704.67,478.09c-1.41,6.39,25,8.52,25.65,4L739,394.06h-.1c-.49.38-9.82,1.15-20.41,1.12V477C710.52,477,704.61,475.26,704.67,478.09Z" fill="#f48225" data-secondary="true"/><path d="M718.78,477s-.11-81.78-.11-81.78c-10.62,0-19.88-.74-20.39-1.12h-.09l5.92,88.05c0,1.67,6.56,2.34,14.67,2.34Z" fill="#f48225" data-secondary="true"/><path d="M722.21,135.59c1.53,7.72,3.33,23.82,3.33,23.82,1.18,2.62,1.84,11.09,2.1,22.29.53,22.3-.68,55.42-1.81,74.77-7.89,135.26-2.46,138-2.46,138h-7.49s3.94-132.5,8.22-148.88c3.14-12,.86-40.3.11-64.1-.21-6.93-4.12-46.21-4.12-47.73C720.09,131.28,721.08,129.79,722.21,135.59Z" fill="#008fa3"/><path d="M727.64,262.12c1.64,11.63,39.19,39.52,39.19,39.52S748.67,258,736.45,255.53,727.64,262.12,727.64,262.12Z" fill="#008fa3"/><path d="M730.68,256.88c-2.26-2.38-5.75-4-6.09.4s.14,5.46.14,5.46.17-7.17,3.89-5.09S730.68,256.88,730.68,256.88Z" fill="#008fa3"/><g opacity="0.1"><path d="M727.64,262.12c1.64,11.63,39.19,39.52,39.19,39.52S748.67,258,736.45,255.53,727.64,262.12,727.64,262.12Z"/><path d="M730.68,256.88c-2.26-2.38-5.75-4-6.09.4s.14,5.46.14,5.46.17-7.17,3.89-5.09S730.68,256.88,730.68,256.88Z"/></g><path d="M729.78,255.89c3.27,1.68,30.41,36.16,30.7,37.41-5.18-1.77-32-27.43-32.18-30.79A14.39,14.39,0,0,1,729.78,255.89Z" opacity="0.1"/><path d="M720.67,268.62c1.71,13.82-37.54,66.6-37.54,66.6s12.18-64.9,25.42-71.43S720.67,268.62,720.67,268.62Z" fill="#008fa3"/><path d="M715.57,263.57c1.86-3.43,5.33-6.41,7.1-1.43s1.53,6.3,1.53,6.3-2.41-8.15-6-4.63S715.57,263.57,715.57,263.57Z" fill="#008fa3"/><path d="M716.31,262.15c-3.24,2.93-30.49,65.32-30.44,66.84,5.39-3.61,35-55.8,34.16-59.71A17.11,17.11,0,0,0,716.31,262.15Z" opacity="0.36"/><path d="M727,153.72c6.65,1.89,58.56,34.71,58.56,34.71s-28.29-6.92-39.71-10.71-27.63-16.25-21-17.2S727,153.72,727,153.72Z" fill="#008fa3"/><path d="M727,153.72c6.65,1.89,58.56,34.71,58.56,34.71s-28.29-6.92-39.71-10.71-27.63-16.25-21-17.2S727,153.72,727,153.72Z" opacity="0.2"/><path d="M724.82,224.2c-5.8-3.1-54.87-.69-62.72,7.14v2.11c11.81,1,47.24,6.48,56.29,7.12C728.39,241.28,735.52,229.89,724.82,224.2Z" fill="#008fa3"/><path d="M724.82,224.2c-5.8-3.1-54.87-.69-62.72,7.14v2.11c11.81,1,47.24,6.48,56.29,7.12C728.39,241.28,735.52,229.89,724.82,224.2Z" opacity="0.1"/><path d="M723.76,144.9c-9.52-11.39-15.22-30.38-26.63-15.19s-26.74,29.11-26.74,29.11L704.14,138Z" fill="#008fa3"/><path d="M722.75,197.71c-3,7-51,24.83-57.82,27.83s25.5-29.16,37.81-36.74a40.63,40.63,0,0,1,24.28-6Z" fill="#008fa3"/><path d="M739.53,200.89c4.29,3.09,30.85,72.64,26.31,67.79s-51.56-58.89-44.31-65.3,5.74-1.56,9.69-3S737.56,199.47,739.53,200.89Z" fill="#008fa3"/><path d="M739.53,200.89c4.29,3.09,30.85,72.64,26.31,67.79s-51.56-58.89-44.31-65.3,5.74-1.56,9.69-3S737.56,199.47,739.53,200.89Z" opacity="0.1"/><path d="M714.72,206c-13,6.48-47.75,31.44-50.14,39.2,6-2.28,45.15-21.7,56.73-25.34,6.77-2.12,8.9-6.63,7.31-10.28-.26-.6-2-1.27-2.29-1.83-.91-1.74-1.42-2.39-3-2.75A12.54,12.54,0,0,0,714.72,206Z" fill="#008fa3"/><path d="M704.36,241.51c-10,10-25.82,27.7-28,38.38,8.57,0,42.72-22.23,45.58-32.2s-2.15-14.24-5-13.52S704.36,241.51,704.36,241.51Z" fill="#008fa3"/><path d="M711.27,162.26c-23.76,24.3-37.25,30.53-43.37,31.9-3,.66,17.71-.36,32-7.48s31.61-14.38,27.32-20.62C721,157,711.27,162.26,711.27,162.26Z" fill="#008fa3"/><path d="M722.09,165c-1.75.87-35.46,26.17-51.44,28.79,0,0,9.24-.62,50.94-30C722.39,163.2,722.09,165,722.09,165Z" opacity="0.2"/><path d="M716.85,129.61C714,118.23,712,79.1,715.78,73.4c2.87,34.17,12.84,56.1,8.09,63.7S716.85,129.61,716.85,129.61Z" fill="#008fa3"/><path d="M715.73,76.65c-.26,2.74,5.11,55.08,5.86,58.69s2.12,1.63,2.87-.37-1.12-17.07-3.74-29.53S715.73,76.65,715.73,76.65Z" opacity="0.2"/><path d="M720.59,140.33c1.9-8.54,18.48-21.32,23.24-22.21,7.73-1.47,54.31-1.74,50.4-1.9-1.47-.06-35,6.84-48.66,12.9C737,132.91,720.59,140.33,720.59,140.33Z" fill="#008fa3"/><path d="M777,117.65c-5.5,0-40.15,2.26-53.16,19.45.72-3.25,9.7-15.71,23.44-17C752.53,119.67,777,117.65,777,117.65Z" opacity="0.2"/><path d="M717.21,143.74c-10.45,0-37.91,20.87-43.61,22.77,12.36-3.8,45.34-9.48,50.24-13,3.49-2.49,6-6.7,2.41-7.89A60.26,60.26,0,0,0,717.21,143.74Z" fill="#008fa3"/><path d="M717.21,143.74c-10.45,0-37.91,20.87-43.61,22.77,12.36-3.8,45.34-9.48,50.24-13,3.49-2.49,6-6.7,2.41-7.89A60.26,60.26,0,0,0,717.21,143.74Z" opacity="0.2"/><path d="M723.34,145.69c-14.11,2.74-39,16-41.58,17.51,6.74-1.69,37.58-6.54,44.33-12.9C728.81,147.73,723.34,145.69,723.34,145.69Z" opacity="0.2"/><path d="M721,145.65c5.71-4.75,10.45-13.3,19-7.6s28.7,33.89,27.76,32.94-13.53-11.1-20-13A95.69,95.69,0,0,1,721,145.65Z" fill="#008fa3"/><path d="M726.09,142.58c3.24-.51,14.73,2.73,19.23,6.22s15,13.46,15,13.46-14.49-12.46-20.48-14.45S726.09,142.58,726.09,142.58Z" opacity="0.2"/><path d="M723.53,185.81c-2.81,1.5-41.56,23.51-57.85,38.27,7.3-9.34,33.87-34.91,45.3-37.89S723.53,185.81,723.53,185.81Z" opacity="0.1"/><path d="M729.57,187.41c1.06,13.88,43.34,49.75,43.34,49.75s-18.14-53.07-32.4-56.87S729.57,187.41,729.57,187.41Z" fill="#008fa3"/><path d="M733.58,181.45c-2.5-3-6.49-5.23-7.25,0s-.24,6.48-.24,6.48.74-8.47,5-5.73S733.58,181.45,733.58,181.45Z" fill="#008fa3"/><g opacity="0.1"><path d="M729.57,187.41c1.06,13.88,43.34,49.75,43.34,49.75s-18.14-53.07-32.4-56.87S729.57,187.41,729.57,187.41Z"/><path d="M733.58,181.45c-2.5-3-6.49-5.23-7.25,0s-.24,6.48-.24,6.48.74-8.47,5-5.73S733.58,181.45,733.58,181.45Z"/></g><path d="M732.58,180.2c3.75,2.25,33.21,45.11,33.46,46.61-6-2.49-35.71-34.89-35.71-38.88A17.18,17.18,0,0,1,732.58,180.2Z" opacity="0.1"/><path d="M727,153.72c5,1.41,21.4,36.3,23.53,43.43S729.1,177.21,722,168s-5.71-14.24-2.86-15.67S727,153.72,727,153.72Z" fill="#008fa3"/><g opacity="0.1"><path d="M722.66,168.08c-7.14-9.26-5.71-14.24-2.86-15.67a4.41,4.41,0,0,1,1.86-.36,15.35,15.35,0,0,1,.68,1.93c2.1,1.22,25.15,36.89,28.91,44.29C750,200.58,729.28,176.67,722.66,168.08Z"/></g><path d="M735.58,225.31c6.74,6.49,16.35,60.83,14.2,68.66-6.41-11.4-14.38-30-22.94-45-7.89-13.78-10.06-26.35.06-26.54.66,0,1-1,1.68-1.12C734.58,220.08,735.58,225.31,735.58,225.31Z" fill="#008fa3"/><path d="M726.9,222.45c3.24,2.24,19.41,53.46,21.16,64.42-4-7.72-25.29-44.37-27.1-52.71C718.22,221.45,726.9,222.45,726.9,222.45Z" opacity="0.1"/><path d="M734.3,192.79c7,.15,40,25.26,42.8,30.67-9.34-3-23.22-9.27-35.56-13.18-11.37-3.6-19-9.44-13.49-14.67.36-.34,0-1,.36-1.48C731.08,190.41,734.3,192.79,734.3,192.79Z" fill="#008fa3"/><path d="M728.05,195.61c2.93-.41,37.94,19.64,44.49,24.81-6.14-2.24-36.56-11.65-41.8-15.34C722.76,199.46,728.05,195.61,728.05,195.61Z" opacity="0.1"/><path d="M720,237.78c-4.31,3-42.89,40.74-42.89,40.74s11.8-20.74,22.28-30.46,14.24-12,17.42-12S720,237.78,720,237.78Z" opacity="0.1"/><path d="M725.83,207.87c-3.24-1.25-45.69,22.18-55.93,32.4,6.24-8.23,42.2-34.4,48.19-35.14S725.83,207.87,725.83,207.87Z" opacity="0.1"/><polygon points="418 218.56 406.43 218.56 406.43 219.65 418 231.22 418 218.56" fill="#686175" data-primary="true"/><polygon points="406.43 219.65 406.43 293.02 418 293.02 418 231.22 406.43 219.65" fill="#686175" data-primary="true"/><polygon points="429.27 218.56 418 218.56 418 231.22 429.27 242.49 429.27 218.56" fill="#686175" data-primary="true"/><polygon points="418 231.22 418 293.02 429.27 293.02 429.27 242.49 418 231.22" fill="#686175" data-primary="true"/><polygon points="408.8 222.02 408.8 273.14 418 273.14 418 231.22 408.8 222.02" fill="#f5f6f6"/><polygon points="418 221.82 408.8 221.82 408.8 222.02 418 231.22 418 221.82" fill="#fff"/><polygon points="426.9 221.82 418 221.82 418 231.22 426.9 240.12 426.9 221.82" fill="#ecedee"/><polygon points="418 231.22 418 273.14 426.9 273.14 426.9 240.12 418 231.22" fill="#e2e3e4"/><path d="M417.85,287.81a4.86,4.86,0,0,1,0-9.72H418a4.85,4.85,0,0,1,0,9.7h-.17Z" fill="#e2e3e4"/><path d="M413.71,283a4.14,4.14,0,0,0,4.14,4.14H418v-8.26h-.15A4.14,4.14,0,0,0,413.71,283Z" fill="#f5f6f6"/><path d="M418,278.82v8.26a4.13,4.13,0,0,0,0-8.26Z" fill="#e2e3e4"/><polygon points="440.84 218.56 429.27 218.56 429.27 242.49 440.84 254.06 440.84 218.56" fill="#f48225" data-secondary="true"/><polygon points="429.27 242.49 429.27 293.02 440.84 293.02 440.84 254.06 429.27 242.49" fill="#f48225" data-secondary="true"/><polygon points="452.11 218.56 440.84 218.56 440.84 254.06 452.11 265.33 452.11 218.56" fill="#f48225" data-secondary="true"/><polygon points="440.84 254.06 440.84 293.02 452.11 293.02 452.11 265.33 440.84 254.06" fill="#f48225" data-secondary="true"/><polygon points="440.84 221.82 431.65 221.82 431.65 244.87 440.84 254.06 440.84 221.82" fill="#fff"/><polygon points="431.65 244.87 431.65 273.14 440.84 273.14 440.84 254.06 431.65 244.87" fill="#f5f6f6"/><polygon points="449.74 221.82 440.84 221.82 440.84 254.06 449.74 262.96 449.74 221.82" fill="#ecedee"/><polygon points="440.84 254.06 440.84 273.14 449.74 273.14 449.74 262.96 440.84 254.06" fill="#e2e3e4"/><path d="M440.69,287.81a4.86,4.86,0,0,1,0-9.72h.18a4.85,4.85,0,0,1,0,9.7h-.18Z" fill="#e2e3e4"/><path d="M436.56,283a4.13,4.13,0,0,0,4.13,4.14h.15v-8.26h-.15A4.13,4.13,0,0,0,436.56,283Z" fill="#f5f6f6"/><path d="M440.84,278.82v8.26a4.13,4.13,0,0,0,0-8.26Z" fill="#e2e3e4"/><rect x="346.75" y="247.2" width="74.46" height="11.57" transform="translate(51.33 570.44) rotate(-77.04)" fill="#f48225" data-secondary="true"/><rect x="357.88" y="249.91" width="74.46" height="11.27" transform="translate(57.46 583.28) rotate(-77.04)" fill="#f48225" data-secondary="true"/><rect x="361.33" y="240.56" width="51.32" height="9.2" transform="translate(61.28 567.3) rotate(-77.04)" fill="#fff"/><rect x="370.15" y="242.73" width="51.32" height="8.9" transform="translate(66.16 577.48) rotate(-77.04)" fill="#e6e7e8"/><path d="M383.38,285.57a4.7,4.7,0,0,1-.92-.09h0l-.13,0a4.87,4.87,0,0,1-3.65-5.82,4.84,4.84,0,0,1,4.73-3.77,5.08,5.08,0,0,1,1.1.12l.13,0h0a4.85,4.85,0,0,1-1.25,9.54Z" fill="#e2e3e4"/><path d="M384.3,276.69a4.13,4.13,0,0,0-1.85,8.06l.14,0,1.86-8Z" fill="#fff"/><path d="M387.41,281.64a4.13,4.13,0,0,0-3-4.91l-1.86,8A4.14,4.14,0,0,0,387.41,281.64Z" fill="#e6e7e8"/><rect x="360" y="293.42" width="103.63" height="8.42" fill="#f9c4b7"/><path d="M410.31,102.21A39.75,39.75,0,1,0,450.06,142,39.75,39.75,0,0,0,410.31,102.21Z" fill="#a7a9ac" style="mix-blend-mode:multiply"/><path d="M453.08,140.45a39.75,39.75,0,1,1-39.75-39.75A39.75,39.75,0,0,1,453.08,140.45Z" fill="#fff"/><path d="M445.51,140.45a32.18,32.18,0,1,1-32.18-32.18A32.18,32.18,0,0,1,445.51,140.45Z" fill="#f9e4de"/><polygon points="437.16 127.12 415.64 143.07 394.12 134.14 392.75 137.45 413.89 146.23 414.27 146.39 414.47 146.24 438.26 128.61 437.16 127.12" fill="#fcd6ca"/></g><rect x="591.13" y="401.19" width="11.36" height="246.73" fill="#a5b9c5"/><path d="M564.93,602.13,541.55,504,549,477.6h44.37L609,603.7a2.77,2.77,0,0,1-2.94,3.11l-38.64-2.56A2.78,2.78,0,0,1,564.93,602.13Z" fill="#231f20"/><path d="M560.62,321.92s14.16-14.57,17.49-21.65l29.62,49.13,12,2.87,4.89,29.94-17,8.29s-10.82,3.73-17.8-10.22Z" fill="#f48225" data-secondary="true"/><path d="M560.62,321.92s14.16-14.57,17.49-21.65l29.62,49.13,12,2.87,4.89,29.94-17,8.29s-10.82,3.73-17.8-10.22Z" opacity="0.2"/><rect x="222.78" y="393.81" width="428.98" height="10.87" fill="#a5b9c5"/><path d="M293.14,628s3.06,6.52,4.49,20.18h3.26V631.86L295,625.54Z" fill="#272727"/><path d="M337.05,627.56s6.88,12.1,6.88,20.75h2.95l-.67-20.75-8-3.58Z" fill="#272727"/><path d="M337.93,645.74a.65.65,0,0,1-.35,1.21H319.65c-10.2-.41-12.84-7.54-12.84-7.54-9-10.81-13.67-11.42-13.67-11.42-3.67-3.06,1.42-14,1.42-14a5,5,0,0,0,.9,3.32,56,56,0,0,0,14.4,20.27,20.3,20.3,0,0,0,4.49,2c3.11.89,7.95,1.55,14.89.63Z" fill="#686175" data-primary="true"/><path d="M338.24,609.1s-4.6,7.54-4.59,13.26a5.87,5.87,0,0,0,5.35,5.75,24.18,24.18,0,0,1,17.66,10.25s7.73,11.29,20.73,9.81h14.86a1.44,1.44,0,0,0,1-2.46c-2.09-2-6.89-4.84-17.92-6.74Z" fill="#686175" data-primary="true"/><path d="M101,325.65h53.83A424.54,424.54,0,0,0,317.14,488.42q.87,8.56,1.76,17.13H235.2l-108.73-11Z" fill="#d6dfe4"/><path d="M148.07,402.14l-8.3,38s-12.38,39,18.34,46.4l112,1s8.94,76.47,16.94,99.83l31.68-7.36-6.4-90.87,4.8-.64s6.79,72.27,13.32,89l34.26-9.79-8.05-72.92-3-27s-2-17.13-23.24-26.1c0,0-26.92-13.46-87.28-17.54,0,0-8.06,1.25-11.47-8a71.4,71.4,0,0,0-5.66-12.19l-1.22-2Z" fill="#272727"/><path d="M329.24,640.22c-6.94.92-11.78.26-14.89-.63a20.3,20.3,0,0,1-4.49-2,56,56,0,0,1-14.4-20.27,5,5,0,0,1-.9-3.32,61,61,0,0,0-4.28-27.44l22-5.1.68,20.45c1.47,19.94,15.86,37.77,16.3,38.32Z" fill="#ffb8ca"/><path d="M338.24,611.74s-1.42-27.48-4.81-35.17l21.85-6.25,1.78,32.06a23.43,23.43,0,0,0,1.85,7.91c2.7,6.33,8.58,18.92,16.45,28.68,0,0-8.94,6.1-24.79-11.17C350.57,627.8,338.77,619.65,338.24,611.74Z" fill="#ffb8ca"/><path d="M298.34,617.89a10.36,10.36,0,0,1,0-10.6,32.23,32.23,0,0,0,0,10.6Z" fill="#f9aac0"/><path d="M342.44,613.26a10.38,10.38,0,0,1,0-10.6,32.23,32.23,0,0,0,0,10.6Z" fill="#f9aac0"/><rect x="183.75" y="502.51" width="7.24" height="118.65" fill="#d6dfe4"/><path d="M242.74,636.86h-4.56V629a5.56,5.56,0,0,0-5.55-5.55H138.48a5.55,5.55,0,0,0-5.54,5.55v7.87h-4.57V629a10.13,10.13,0,0,1,10.11-10.11h94.15A10.12,10.12,0,0,1,242.74,629Z" fill="#a5b9c5"/><path d="M169,637.47a27.22,27.22,0,0,1,0-17.15l4.33,1.44a22.67,22.67,0,0,0,0,14.24Z" fill="#a5b9c5"/><circle cx="129.28" cy="639.89" r="7.06" fill="#d6dfe4"/><circle cx="170.55" cy="639.89" r="7.06" fill="#d6dfe4"/><circle cx="240.46" cy="639.89" r="7.06" fill="#d6dfe4"/><path d="M164.05,405.4s-19.34,54.07,17.82,62.37c0,0,40.22,10.28,91.66,5.54,0,0,12.7,93.5,21.39,108.13" fill="none" stroke="#231f20" stroke-miterlimit="10"/><path d="M187,435.91s26.92-6,97.06,8.55c0,0,31.88,2.48,28.3,44.6" fill="none" stroke="#231f20" stroke-miterlimit="10"/><path d="M307.69,460.64s17.28-1.81,21,10.65a14.83,14.83,0,0,1,.58,3.43c.71,10.59,6.06,89.14,10.3,99.73" fill="none" stroke="#231f20" stroke-miterlimit="10"/><path d="M175.05,276.25s-31,2.69-34.3,33a121.84,121.84,0,0,0,6.36,50.55s5.45,17.26,1.21,27.85c0,0-6.66,13,2.73,16.35,0,0,61,8.17,73.78-2.12,0,0,1.59-21.79,5.83-30.87,0,0,4.54-10.6,4.54-13.93,0,0,9.15,25.71,20.65,33h46.67l5.94-8.46-5-3.13a6.44,6.44,0,0,1-1.83-1.66c-.91-1.22-3.29-3.59-9.17-6.11,0,0-23-8.78-25.73-22.1L257,324.65s-9.09-33.6-21.19-38.44c0,0-9.1-6.09-16-7.42C219.8,278.79,173.32,276,175.05,276.25Z" fill="#686175" data-primary="true"/><path d="M188.14,245l-4.75,23.1s0,10.81,17.58,36.71l9.79,11.42s8.09-25.2,2.13-38.75a15.78,15.78,0,0,1-1.32-6.35V262l-22-17.21Z" fill="#ffb8ca"/><path d="M175.05,276.25c-.05,4.1.2,19.19,6.34,23.23,0,0,6.53-11.26,12.65-5.63,0,0-9.06-14.36-10.65-25.78,0,0-4.77,5-7.5,6.7A1.78,1.78,0,0,0,175.05,276.25Z" fill="#686175" data-primary="true"/><path d="M175.05,276.25c-.05,4.1.2,19.19,6.34,23.23,0,0,6.53-11.26,12.65-5.63,0,0-9.06-14.36-10.65-25.78,0,0-4.77,5-7.5,6.7A1.78,1.78,0,0,0,175.05,276.25Z" fill="#fff" opacity="0.4"/><path d="M214.25,300.64s3.28-5.23,3.94-9.85a1.06,1.06,0,0,1,1.59-.77,14.38,14.38,0,0,1,3.8,3.1.55.55,0,0,0,1-.44c-.77-4.85-3.53-16.33-13-23.59a17.71,17.71,0,0,0,1.32,8.36S216.48,284.87,214.25,300.64Z" fill="#686175" data-primary="true"/><path d="M214.25,300.64s3.28-5.23,3.94-9.85a1.06,1.06,0,0,1,1.59-.77,14.38,14.38,0,0,1,3.8,3.1.55.55,0,0,0,1-.44c-.77-4.85-3.53-16.33-13-23.59a17.71,17.71,0,0,0,1.32,8.36S216.48,284.87,214.25,300.64Z" fill="#fff" opacity="0.4"/><g opacity="0.2"><path d="M210.76,316.2a6.71,6.71,0,0,1,2.74,2.52,19.15,19.15,0,0,1,1.79,3.34,38.17,38.17,0,0,1,2.06,7.25,74.85,74.85,0,0,1,1.23,15c-.06,2.51-.26,5-.57,7.52s-.68,4.95-1.08,7.43l-1.17,7.4c-.43,2.47-.82,4.94-1.28,7.4.23-2.49.53-5,.79-7.46l.9-7.45.94-7.43q.4-3.71.47-7.44a79.4,79.4,0,0,0-1-14.85,38,38,0,0,0-1.76-7.22,18,18,0,0,0-1.55-3.36A6.89,6.89,0,0,0,210.76,316.2Z"/></g><g opacity="0.2"><path d="M235.63,299.48a52.32,52.32,0,0,0,.59,7.3,44.07,44.07,0,0,0,1.6,7.11,47.55,47.55,0,0,1,2.1,7.09,60.87,60.87,0,0,1,.87,7.35,67.64,67.64,0,0,1-.06,7.4A57.08,57.08,0,0,1,235.2,357a69.17,69.17,0,0,0,2.31-7,56.77,56.77,0,0,0,1.54-7.14,67.54,67.54,0,0,0,.75-14.55,62.33,62.33,0,0,0-.77-7.24,35.55,35.55,0,0,0-.85-3.53l-1.09-3.51A43.62,43.62,0,0,1,235.63,299.48Z"/></g><circle cx="210.76" cy="323.98" r="1.63" opacity="0.2"/><circle cx="213.21" cy="341.63" r="1.63" opacity="0.2"/><circle cx="212.39" cy="359.29" r="1.63" opacity="0.2"/><path d="M260.38,355.62s3.58-2.21,9.74,0" fill="none" stroke="#000" stroke-miterlimit="10" opacity="0.2"/><path d="M260.38,362.24c-.88.67,7.74-4.59,13.15-2.95" fill="none" stroke="#000" stroke-miterlimit="10" opacity="0.2"/><polygon points="346.67 324.01 410.9 324.01 365.94 393.81 302.44 393.81 310.27 381.04 346.67 324.01" fill="#f48225" data-secondary="true"/><ellipse cx="359.83" cy="359.87" rx="7.91" ry="4.38" transform="translate(-136.1 474.07) rotate(-57.97)" fill="#fff"/><rect x="675.27" y="502.23" width="7.24" height="118.65" fill="#a5b9c5"/><path d="M734.26,636.58H729.7v-7.87a5.56,5.56,0,0,0-5.55-5.55H630a5.55,5.55,0,0,0-5.54,5.55v7.87h-4.57v-7.87A10.12,10.12,0,0,1,630,618.6h94.15a10.11,10.11,0,0,1,10.11,10.11Z" fill="#d6dfe4"/><path d="M694.7,637.31l-4.32-1.47a22.53,22.53,0,0,0,0-14.24l4.33-1.44A27.2,27.2,0,0,1,694.7,637.31Z" fill="#d6dfe4"/><circle cx="620.8" cy="639.61" r="7.06" fill="#a5b9c5"/><circle cx="693.81" cy="639.61" r="7.06" fill="#a5b9c5"/><circle cx="731.98" cy="639.61" r="7.06" fill="#a5b9c5"/><path d="M159,429.82s24.23,2.16,24.73-23" fill="none" stroke="#231f20" stroke-miterlimit="10"/><path d="M147,407s58.56,9.16,80-1.62" fill="none" stroke="#231f20" stroke-miterlimit="10"/><path d="M209.93,406.79A140.15,140.15,0,0,1,214,431.27" fill="none" stroke="#231f20" stroke-miterlimit="10"/><path d="M215.79,405.4s2.84,13.08,4.32,25.87" fill="none" stroke="#231f20" stroke-miterlimit="10"/><path d="M661.65,210.45l6.46,16c-15.14.84-36.75,19.37-36.75,19.37l-4.83-21,18.62-32.58,8.09-1.71Z" fill="#ffb8ca"/><path d="M626.53,257.14s.31-7.75,4.83-11.35c0,0,20.1-17.94,36.75-19.37,0,0,3.18-1.09,5.48,5C673.59,231.45,650.06,236,626.53,257.14Z" fill="#f48225" data-secondary="true"/><path d="M626.53,257.14s.31-7.75,4.83-11.35c0,0,20.1-17.94,36.75-19.37,0,0,3.18-1.09,5.48,5C673.59,231.45,650.06,236,626.53,257.14Z" fill="#fff" opacity="0.2"/><path d="M704.94,437.1s-45.27-.41-70.15-22.84" fill="none" stroke="#ed1c24" stroke-miterlimit="10"/><path d="M558.73,310.36l4.08,9.26s13-13.23,15.3-19.35l-3.17-4.89S569.43,305.47,558.73,310.36Z" fill="#e6e7e8"/><path d="M558.73,310.36l-.1-.23a14.19,14.19,0,0,0-7.63-7.37c-10.89-4.4-34.75-14.47-33.56-17.78,0,0,.45-1.53,5.35,0,0,0-10.55-4.13-8.87-6.73,0,0-.61-1.68,8.87.92,0,0-11-4.59-10.86-7.19,0,0,0-4,13.76,1.83L536.86,279a1,1,0,0,0,1.37-.47h0a1,1,0,0,0-.46-1.39c-3.95-2-19.12-9.75-18.19-12.54,0,0,1.53-3.83,14.53,4.58,0,0,13.43,6.35,20.32,7.27a2.39,2.39,0,0,0,2.72-2.6,6.19,6.19,0,0,0-1.5-3.26,12.58,12.58,0,0,1-2.33-4.12c-.85-2.66-1.49-6.48.88-8.33a.79.79,0,0,1,1.24.45c.59,2.31,2.42,8,7,12a41.53,41.53,0,0,1,6.78,16.25,11.22,11.22,0,0,0,2,4.81l3.27,4.62S570.35,304.4,558.73,310.36Z" fill="#ffb8ca"/><path d="M524.32,285.44a38.08,38.08,0,0,1,11.77,4.28,38.34,38.34,0,0,1-11.77-4.28Z" fill="#f9aac0"/><path d="M522.79,279.49a57.12,57.12,0,0,1,14.38,5.18,57,57,0,0,1-14.38-5.18Z" fill="#f9aac0"/><path d="M554.6,289.72c-2.44-3.3-1.37-8.08,1.12-11,.38-.42.76-.82,1.17-1.2-.23.52-.51,1-.76,1.47-1.73,3.33-2.67,7-1.53,10.77Z" fill="#f9aac0"/><path d="M498.64,339.78l-8.79-6.49s2.45-12.9,8-21.27l8.26,5.07S501.78,320.93,498.64,339.78Z" fill="#e6e7e8"/><path d="M490.45,330.61l-1.56-.91a8,8,0,0,0-4.25-1.11c-8.29.15-36.67.46-40.72-2.69,0,0-1.58-2.12,4.75-1.89,0,0-11.72-.45-11.4-2.94,0,0-.82-2.26,8.91-3.17,0,0-14.93,1.13-12.67-2.94,0,0-1.81-3.17,12.9-2.94h14a.84.84,0,0,0,.73-.42h0a.84.84,0,0,0-.7-1.28c-5.29-.2-23.43-1.09-23.16-4.18,0,0-2.85-3.85,19.09-1.81,0,0,21.95,2.29,19-4.06a10,10,0,0,0-4.39-4,9.14,9.14,0,0,1-4.48-5.16,6,6,0,0,1-.17-3.37,1.59,1.59,0,0,1,2.75-.61c2.23,2.57,6.86,7.4,11.72,9.5,0,0,5.65,1.74,12.67,11.39a12.72,12.72,0,0,0,4.39,4A119.73,119.73,0,0,0,490.45,330.61Z" fill="#ffb8ca"/><path d="M447.69,324a42.35,42.35,0,0,1,13.2,0,42.65,42.65,0,0,1-13.2,0Z" fill="#f9aac0"/><path d="M444.62,317.9a64.25,64.25,0,0,1,16.27.68,64.71,64.71,0,0,1-16.27-.68Z" fill="#f9aac0"/><path d="M633.14,417s1.6,5.39-11.38,4.46c0,0-91.34,1.85-107.1,17.62,0,0-13.66,2.31-16.8,48.21L481.79,601.56a3.63,3.63,0,0,0,3.11,4.1l35.25,4.82a5.08,5.08,0,0,0,5.66-4l23.92-117a3.91,3.91,0,0,1,3.8-3.14l142.41-1.82,9-39.87Z" fill="#272727"/><path d="M526.74,646.48c-.28-1.6,0-5.68,9.76-7.3,0,0,33.41-9.18,35.87-20.19h34.28s5,10.19,4.59,26.85a2.6,2.6,0,0,1-2.59,2.52h-19.6a2.59,2.59,0,0,1-2.59-2.59v-.86a2.83,2.83,0,0,0-3.7-2.69l-13.93,4.55a7.58,7.58,0,0,1-2.31.36h-39A.79.79,0,0,1,526.74,646.48Z" fill="#f48225" data-secondary="true"/><path d="M484.5,616.55s-16.43,15.68-39.27,18.7c0,0-17.42,2.55-19,9.6a1.6,1.6,0,0,0,1.55,1.95h36.65a8,8,0,0,0,1.82-.21l23.54-5.31a1,1,0,0,1,1.17.94V646a.79.79,0,0,0,.79.79h25.85a.79.79,0,0,0,.79-.79V616.55Z" fill="#f48225" data-secondary="true"/><path d="M704.94,505.07h66.49a7.78,7.78,0,0,0,7.76-7.31L788.35,343a17.68,17.68,0,0,0-3.41-11.72A16,16,0,0,0,773.86,325l-27.32.64s-18.36-3.57-17.13,23.75l-29,151.31Z" fill="#a5b9c5"/><path d="M459.32,354.41h30.53a0,0,0,0,1,0,0V384a9.82,9.82,0,0,1-9.82,9.82H469.14a9.82,9.82,0,0,1-9.82-9.82V354.41A0,0,0,0,1,459.32,354.41Z" fill="#686175" data-primary="true"/><path d="M496,385.45h-6.18v-2.74H496a2,2,0,0,0,2-2V364.5a2,2,0,0,0-2-2h-6.18v-2.74H496a4.74,4.74,0,0,1,4.73,4.73v16.22A4.74,4.74,0,0,1,496,385.45Z" fill="#686175" data-primary="true"/><rect x="497.86" y="114.42" width="80.25" height="55.29" rx="13.07" fill="#e6e7e8"/><polygon points="568.42 190.46 547.81 163.97 562.41 163.97 568.42 190.46" fill="#e6e7e8"/><rect x="251.55" y="131.69" width="80.25" height="55.29" rx="13.07" transform="translate(583.34 318.66) rotate(-180)" fill="#e6e7e8"/><polygon points="261.24 207.73 281.85 181.24 267.24 181.24 261.24 207.73" fill="#e6e7e8"/><path d="M245.15,376.64s14.5,2.27,22.46,1.23c0,0,15.93-4.37,31.66,3.75a15,15,0,0,1,3.33,2.07,3,3,0,0,1-.7,5c-2.81,1.29-8.51,2.39-20,1.3H242.73S242.47,384.71,245.15,376.64Z" fill="#ffb8ca"/><path d="M286.51,381.12c5.78-.5,12.13.52,16.83,4.11-5.36-2.34-11.1-3.22-16.83-4.11Z" fill="#f9aac0"/><path d="M303,387.88a101,101,0,0,0-16.48-2.65A26.1,26.1,0,0,1,303,387.88Z" fill="#f9aac0"/><path d="M211.57,262v7.13s-21-1.7-18.53-21.63Z" fill="#f9aac0"/><ellipse cx="208.74" cy="230.18" rx="21.89" ry="34.06" transform="translate(-18.65 18.4) rotate(-4.83)" fill="#ffb8ca"/><path d="M191.28,234a16.35,16.35,0,0,1,1.26-6.16,25.23,25.23,0,0,1,7.85-10.5c9.52-7.53,9.35-16.65,9.35-16.65a15.27,15.27,0,0,0,9.89,7.32,6.49,6.49,0,0,1,2,.77c5.52,3.41,8.4,15.38,8.4,15.38,4.88-30.52-24.49-33.3-24.49-33.3-38.15-10.59-38.45,35.42-38.45,35.42-.3,20.58-15.44,34.51-15.44,34.51-50.55,50.85-9.35,80.85-9.35,80.85s-7.72-35.7,6.26-51.66c0,0,8-10.55,26.49-13.72,0,0-.29-1.21,2.58-2.77l5.76-5.41,4.75-23.1Z" fill="#272727"/><path d="M142.86,299.48a10.75,10.75,0,0,1,17.67-3.77c3.67,3.66,7.57,9.65,10.76,19.41l17.43,46.14s3.53,3.32,4.89,6.6a4.79,4.79,0,0,0,4.5,3c9.63-.15,33.26.06,37.52,5.75h9.74s-4.61,11.54-1.54,17.17H230.57s-14.42,5.13-23.13,6.93c0,0-33.07,6.92-43.58-10l-16.75-31S134,322.8,142.86,299.48Z" fill="#686175" data-primary="true"/><path d="M142.86,299.48a10.75,10.75,0,0,1,17.67-3.77c3.67,3.66,7.57,9.65,10.76,19.41l17.43,46.14s3.53,3.32,4.89,6.6a4.79,4.79,0,0,0,4.5,3c9.63-.15,33.26.06,37.52,5.75h9.74s-4.61,11.54-1.54,17.17H230.57s-14.42,5.13-23.13,6.93c0,0-33.07,6.92-43.58-10l-16.75-31S134,322.8,142.86,299.48Z" opacity="0.2"/><g opacity="0.2"><path d="M178.52,374.08a9.32,9.32,0,0,1,3.39-2.9,16.06,16.06,0,0,1,4.25-1.5,20.92,20.92,0,0,1,4.46-.41c.74,0,1.48.08,2.22.14s1.47.23,2.19.38c-.74.07-1.47.08-2.21.11l-2.18.15a38,38,0,0,0-4.28.61,23.4,23.4,0,0,0-4.11,1.22A13.83,13.83,0,0,0,178.52,374.08Z"/></g><g opacity="0.2"><path d="M235.63,376.64a34.59,34.59,0,0,0-2.58,3.9,24.67,24.67,0,0,0-1.91,4.19,16.53,16.53,0,0,0-.91,4.46l0,1.15c0,.38,0,.76.07,1.15a20.84,20.84,0,0,0,.32,2.32,11.65,11.65,0,0,1-1.13-4.63,13.63,13.63,0,0,1,.75-4.78A17.52,17.52,0,0,1,235.63,376.64Z"/></g><path d="M132.74,486.31l-22-152.94a9,9,0,0,0-9.75-7.72h0a9,9,0,0,0-8.13,10.29l23.06,158.48a13,13,0,0,0,12.88,11.13H235.2s2.56-15-12.67-18.5Z" fill="#a5b9c5"/><rect x="254.48" y="400.78" width="11.36" height="246.73" fill="#a5b9c5"/><rect x="404.25" y="400.78" width="11.36" height="246.73" fill="#a5b9c5"/><path d="M304,393l43.87-66.67a1.47,1.47,0,0,0-1.22-2.28h0a1.47,1.47,0,0,0-1.23.66L302.52,390H237.1a1.9,1.9,0,0,0-1.9,1.9h0a1.9,1.9,0,0,0,1.9,1.89h65.34A1.87,1.87,0,0,0,304,393Z" fill="#f48225" data-secondary="true"/><path d="M304,393l43.87-66.67a1.47,1.47,0,0,0-1.22-2.28h0a1.47,1.47,0,0,0-1.23.66L302.52,390H237.1a1.9,1.9,0,0,0-1.9,1.9h0a1.9,1.9,0,0,0,1.9,1.89h65.34A1.87,1.87,0,0,0,304,393Z" opacity="0.2"/><path d="M633.14,417c-2.58-10.88-13.93-58.28-16.91-64.77,0,0-23.42,31.56-43.88,38.72a19.46,19.46,0,0,1-18.05-3l-56.44-42.47s1.84-19.27,8.26-28.45c0,0,41.6,26.92,56.59,29.37,0,0,2.44,2.14,15-20.5,0,0,20.67-49.67,48.84-68.82,0,0,21.82-21.1,47.06-25.69,0,0,13.91,18.35,20.64,24.47,0,0,10.71,10.09,22,44.35,0,0,8.25,19.78,13.15,49.14l-21.62,98.7s-39.93-1-72.36-27.39A6.81,6.81,0,0,1,633.14,417Z" fill="#f48225" data-secondary="true"/><path d="M634.79,338s9.74-9.79,15.27-20.8" fill="none" stroke="#000" stroke-miterlimit="10" opacity="0.2"/><path d="M616.23,352.27s44.54-45.5,33.83-72" fill="none" stroke="#000" stroke-miterlimit="10" opacity="0.2"/><path d="M488.55,606.16s-1.4,9.16-4.05,10.39c0,0,14.28,13.05,33.85,0v-6Z" fill="#ffb8ca"/><path d="M572.37,604.58a17.69,17.69,0,0,1,0,14.41s14.7,11.22,34.28,0c0,0-3.67-8.21-1.83-12.26Z" fill="#ffb8ca"/><path d="M582.12,505.07H704.94l28.65-159.46s.71-18.42,12.95-19.95c0,0-20.8-5.81-24.47,17.74L695.94,484.55l-101.57,1.29S582.47,484.54,582.12,505.07Z" fill="#d6dfe4"/><path d="M629.82,239.09l-3.29-14.34,17.19-22.13S646.23,231.38,629.82,239.09Z" fill="#f9aac0"/><path d="M645.14,192.18q0,.52-.06,1c-.13,1.86-.34,3.75-.65,5.67a63.55,63.55,0,0,1-1.38,6.46c-.08.31-.17.62-.26.92-3.16,11.08-9,19.52-15.34,22.42h0a10.79,10.79,0,0,1-6.31,1c-4.91-.79-8.76-5.22-11-11.76-.29-.85-.56-1.73-.8-2.65-.13-.48-.24-1-.35-1.47-.23-1-.42-2.06-.58-3.14a58.48,58.48,0,0,1,.27-17.51,55.27,55.27,0,0,1,7.23-20.29c4.53-7.25,10.39-11.41,16.07-10.5,7.9,1.27,13,12,13.28,25.72C645.25,189.43,645.22,190.79,645.14,192.18Z" fill="#ffb8ca"/><path d="M624.47,175.71c-5.85-1.25-21.72-5.87-15.19-18.59a1.32,1.32,0,0,1,1.8-.55c2.27,1.25,7.74,3.54,13.57.86,0,0,44.11-10.4,43.46,11,0,0,11.65.56,3.95,24.62,0,0-8.11,16.67-6,22.94,0,0-12.08,2.14-14.22-16.21,0,0,.3-5.68-2.68-5.82l-10.69-1.91s-1.62,8-6,7.58c0,0,2.9-7.15-.31-11.91,0,0-2.55-1.21-5-9.59A3.48,3.48,0,0,0,624.47,175.71Z" fill="#272727"/><ellipse cx="643.56" cy="196.57" rx="5.89" ry="8.84" fill="#ffb8ca"/><g opacity="0.2"><path d="M626.53,257.14c3.73-2.48,7.62-4.71,11.58-6.82s8-4,12.15-5.77A90.65,90.65,0,0,1,663,240.26c4.36-1,8.93-1.77,13.37-1a27,27,0,0,0-6.66.28,51.73,51.73,0,0,0-6.51,1.42,106.26,106.26,0,0,0-12.58,4.47c-4.14,1.67-8.17,3.58-12.19,5.53q-3,1.45-6,3C630.47,255,628.51,256.08,626.53,257.14Z"/></g><path d="M643,192.87a3.58,3.58,0,0,1,1.15,1.61,5.37,5.37,0,0,1,.35,2,5.64,5.64,0,0,1-.42,2,4.93,4.93,0,0,1-1.08,1.64c.09-.66.24-1.25.33-1.85a13.57,13.57,0,0,0,.17-1.77,11.54,11.54,0,0,0-.1-1.76A12.88,12.88,0,0,0,643,192.87Z" fill="#f9aac0"/><path d="M318.9,148.93H265.25a.51.51,0,0,1-.5-.5.5.5,0,0,1,.5-.5H318.9a.5.5,0,0,1,.5.5A.51.51,0,0,1,318.9,148.93Z" fill="#686175" data-primary="true"/><path d="M318.9,159.83H265.25a.5.5,0,0,1,0-1H318.9a.5.5,0,0,1,0,1Z" fill="#686175" data-primary="true"/><path d="M318.9,170.74H265.25a.51.51,0,0,1-.5-.5.5.5,0,0,1,.5-.5H318.9a.5.5,0,0,1,.5.5A.51.51,0,0,1,318.9,170.74Z" fill="#686175" data-primary="true"/><path d="M564,131.66H510.34a.5.5,0,0,1,0-1H564a.5.5,0,0,1,0,1Z" fill="#f48225" data-secondary="true"/><path d="M564,142.56H510.34a.5.5,0,0,1-.5-.5.51.51,0,0,1,.5-.5H564a.51.51,0,0,1,.5.5A.5.5,0,0,1,564,142.56Z" fill="#f48225" data-secondary="true"/><path d="M564,153.47H510.34a.51.51,0,0,1-.5-.5.5.5,0,0,1,.5-.5H564a.5.5,0,0,1,.5.5A.51.51,0,0,1,564,153.47Z" fill="#f48225" data-secondary="true"/><path d="M610.6,185.49a6.29,6.29,0,0,1,2.16-.23,8.8,8.8,0,0,1,2.14.41,7.1,7.1,0,0,1,2,1,4.9,4.9,0,0,1,1.43,1.64c-.65-.35-1.22-.7-1.84-1a17.56,17.56,0,0,0-1.86-.74C613.31,186.18,612,185.88,610.6,185.49Z" fill="#272727"/><ellipse cx="614.44" cy="192.87" rx="1.21" ry="2.12" fill="#272727"/><path d="M615.66,212a36.2,36.2,0,0,1-5.56,6c-.29-.85-.56-1.73-.8-2.65-.13-.48-.24-1-.35-1.47Z" fill="#fff"/><polygon points="608.06 197.85 604.03 206.98 609.82 206.53 608.06 197.85" fill="#ffb8ca"/><ellipse cx="210.69" cy="232.11" rx="1.05" ry="2.1" fill="#272727"/><path d="M210.31,240.39c-3.55,0-6.45-3.28-6.45-7.31s2.9-7.31,6.45-7.31,6.45,3.28,6.45,7.31S213.87,240.39,210.31,240.39Zm0-13.87c-3.14,0-5.7,2.94-5.7,6.56s2.56,6.56,5.7,6.56,5.7-2.94,5.7-6.56S213.46,226.52,210.31,226.52Z" fill="#686175" data-primary="true"/><path d="M204.3,226.15a7.47,7.47,0,0,1,2.13-1.79,9.16,9.16,0,0,1,2.62-1.05,7.88,7.88,0,0,1,2.82-.17,6.77,6.77,0,0,1,2.66.86,20.3,20.3,0,0,0-2.68-.08,12.34,12.34,0,0,0-2.58.36A22.83,22.83,0,0,0,204.3,226.15Z" fill="#272727"/><path d="M222,223.51a3.73,3.73,0,0,1,1.48-.79,5.51,5.51,0,0,1,1.66-.24,5,5,0,0,1,3.15,1c-.58,0-1.1,0-1.62,0s-1,0-1.53,0C224.09,223.46,223.09,223.51,222,223.51Z" fill="#272727"/><path d="M217.1,243.16c1.75-.72,3.54-1.33,5.34-1.91l-.23.45c-.61-1.7-1.19-3.4-1.72-5.13s-1-3.46-1.42-5.23a91.57,91.57,0,0,1,3.8,10.14l.11.35c-1.94.52-3.89,1-5.88,1.33Z" fill="#f9aac0"/><path d="M213.1,246.78h9.44a7.85,7.85,0,0,1-.35.9,4.77,4.77,0,0,1-8.79-.08A7.81,7.81,0,0,1,213.1,246.78Z" fill="#fff"/><rect x="190.65" y="232.71" width="13.65" height="0.75" fill="#686175" data-primary="true"/><ellipse cx="189.38" cy="238.39" rx="5.43" ry="8.53" transform="translate(-72.03 82.32) rotate(-20.7)" fill="#ffb8ca"/><ellipse cx="225.11" cy="232.11" rx="1.05" ry="2.1" fill="#272727"/><path d="M225.65,240.39c-3.26,0-5.92-3.28-5.92-7.31s2.66-7.31,5.92-7.31,5.91,3.28,5.91,7.31S228.91,240.39,225.65,240.39Zm0-13.87c-2.85,0-5.17,2.94-5.17,6.56s2.32,6.56,5.17,6.56,5.16-2.94,5.16-6.56S228.5,226.52,225.65,226.52Z" fill="#686175" data-primary="true"/></g></svg>