<svg id="b5513ff3-b784-4732-88b4-23c98487aea2" data-name="Layer 1" xmlns="http://www.w3.org/2000/svg" width="865.76" height="682.89" viewBox="0 0 865.76 682.89"><path d="M298.05,359.41a8.43,8.43,0,0,1,16.86,0V574.07H298.05Z" fill="#ccc"/><path d="M236.12,85.84H278.7A3.28,3.28,0,0,1,282,89.11v24a3.3,3.3,0,0,1-3.27,3.27H236.12a3.28,3.28,0,0,1-3.27-3.27v-24a3.28,3.28,0,0,1,3.27-3.27Zm3.32,27.24a.86.86,0,0,1-1.19-.29.85.85,0,0,1,.29-1.18l15-9.16a.86.86,0,1,1,.9,1.47l-15,9.16Zm20.9-9.16a.86.86,0,0,1,.9-1.47l15,9.16a.85.85,0,0,1,.29,1.18.86.86,0,0,1-1.19.29l-15-9.16Zm-21.8-13.27a.86.86,0,1,1,.9-1.47l18,10.94,18-10.94a.86.86,0,1,1,.9,1.47l-18.4,11.2a.87.87,0,0,1-.92,0Zm40.16-3.08H236.12A1.5,1.5,0,0,0,235,88a1.55,1.55,0,0,0-.46,1.09v24a1.53,1.53,0,0,0,.46,1.08,1.51,1.51,0,0,0,1.08.46H278.7a1.54,1.54,0,0,0,1.54-1.54v-24a1.54,1.54,0,0,0-1.54-1.54Z" fill="#fff"/><path d="M565.65,106.25a1,1,0,1,1,0-2h44.88a1,1,0,1,1,0,2Zm54.77,0a1,1,0,0,1,0-2h34.09a1,1,0,1,1,0,2Zm42,0a1,1,0,1,1,0-2h34.87a1,1,0,0,1,0,2Zm47.49,0a1,1,0,1,1,0-2H728a1,1,0,0,1,0,2ZM565.65,95.64a1,1,0,1,1,0-2h12a1,1,0,1,1,0,2Zm26.41,0a1,1,0,0,1,0-2h31.36a1,1,0,1,1,0,2Zm50.22,0a1,1,0,0,1,0-2H667a1,1,0,1,1,0,2Zm41,0a1,1,0,0,1,0-2h32.92a1,1,0,1,1,0,2Zm38.13,0a1,1,0,1,1,0-2H728a1,1,0,1,1,0,2ZM565.65,116.85a1,1,0,1,1,0-2h6a1,1,0,1,1,0,2Zm15,0a1,1,0,1,1,0-2h15a1,1,0,1,1,0,2Zm27.58,0a1,1,0,0,1,0-2h27.58a1,1,0,1,1,0,2Zm38.39,0a1,1,0,1,1,0-2h27.84a1,1,0,1,1,0,2Zm43.32,0a1,1,0,0,1,0-2H728a1,1,0,1,1,0,2Z" fill="#fff"/><path d="M136,411.31c0-3.69,3.44-6.68,7.67-6.68s7.67,3,7.67,6.68V584.76H136Z" fill="#ccc"/><path d="M263.58,574.07h85v11.49h-85Z" fill="#ccc"/><path d="M330.92,171.88h430l-51.13,311h-430Z" fill="#d1d3d4"/><path d="M439,258.83a42.52,42.52,0,1,1-42.52-42.51A42.52,42.52,0,0,1,439,258.83Z" opacity="0.2"/><path d="M451.27,276.07a2.23,2.23,0,0,1,2.16-2.3H587.24a2.3,2.3,0,0,1,0,4.6H453.43A2.23,2.23,0,0,1,451.27,276.07Z" opacity="0.2"/><path d="M451.27,287.94a2.07,2.07,0,0,1,2.19-1.91h98.93a1.93,1.93,0,1,1,0,3.83H453.46A2.07,2.07,0,0,1,451.27,287.94Z" opacity="0.2"/><path d="M451.27,299.05a2.24,2.24,0,0,1,2.18-2.3H601a2.3,2.3,0,0,1,0,4.6H453.45A2.24,2.24,0,0,1,451.27,299.05Z" opacity="0.2"/><path d="M704.84,328.16H346.32v-1.53H704.84ZM696.41,368h-360v-1.53h360Zm-10,38.3H327.16v-1.53H686.45Zm-9.19,39.84H317.2V444.6H677.26Z" fill-rule="evenodd" opacity="0.2"/><path d="M724,359.41a8.43,8.43,0,0,1,16.85,0V574.07H724Z" fill="#ccc"/><path d="M689.51,574.07h85v11.49h-85Z" fill="#ccc"/><g opacity="0.2"><path d="M263.58,574.07h85v11.49h-85Z"/><path d="M689.51,574.07h85v11.49h-85Z"/></g><path d="M96.66,582h85v11.49h-85Z" fill="#ccc"/><g opacity="0.2"><path d="M96.66,582h85v11.49h-85Z"/></g><path d="M394.86,336.92c-25,0-46.88,46.07-54.67,69.1v49.31H687.3L706.37,345.2c-46.76,56.15-68.35-24.83-90.65-29.87S575.79,406,546.66,406s-51.8-87.81-69.79-69.1,10.8,113.37-32.37,113.37S426.16,336.92,394.86,336.92Z" fill="none"/><path d="M444.57,450.75c-23.78,0-27.36-34-30.52-64-2.68-25.43-5.21-49.45-19.16-49.45-24.49,0-46.19,45-54.25,68.79l-.95-.32c8.14-24,30.14-69.47,55.2-69.47,14.85,0,17.43,24.46,20.16,50.35,3.11,29.56,6.64,63.06,29.52,63.06,6.06,0,10.84-1.85,14.6-5.64,11-11.06,10.76-36.09,10.55-60.3-.17-20.47-.33-39.8,6.89-47.31,2-2.08,4.18-3,6.48-2.73,7.68.9,15.71,14.53,25,30.3,11.44,19.4,24.4,41.4,38.71,41.4,14.55,0,25.36-23.88,35.8-47C593,335.63,602.73,314.05,616,314.75c9.44.51,17.3,11.48,25.61,23.09,9.42,13.15,19.16,26.74,32.18,27.22,9.13.35,18.81-5.82,29.64-18.81l.77.64c-10.75,12.9-20.48,19.18-29.7,19.18h-.75c-13.5-.5-23.39-14.29-33-27.64-8.17-11.41-15.89-22.18-24.85-22.68-12.57-.67-22.18,20.62-32.38,43.17C573,382.29,562,406.47,546.81,406.47c-14.88,0-28-22.26-39.57-41.89-8.78-14.9-17.08-29-24.26-29.81-2-.24-3.85.56-5.65,2.42-6.94,7.22-6.78,26.35-6.61,46.61.21,24.41.42,49.66-10.84,61C456,448.75,450.82,450.75,444.57,450.75Z" fill="#808285"/><circle cx="340.17" cy="406.33" r="4.32" fill="#808285"/><path d="M710.42,353.78l-.9-.43c.65-1.36,4.42-15.64,3-19a.76.76,0,0,0-.38-.46c-1.86-.6-10.32,4.44-17.34,9.49l-.59-.82c1.53-1.09,15-10.66,18.24-9.62a1.67,1.67,0,0,1,1,1C715.05,337.77,711.07,352.44,710.42,353.78Z" fill="#808285"/><path d="M89.68,332.25a14.8,14.8,0,0,1,14.79-14.81h55.46a14.8,14.8,0,0,1,14.79,14.81V370a14.81,14.81,0,0,1-14.79,14.82H104.47A14.8,14.8,0,0,1,89.68,370Z" fill="#ccc"/><path d="M89.68,332.25a14.8,14.8,0,0,1,14.79-14.81h55.46a14.8,14.8,0,0,1,14.79,14.81V370a14.81,14.81,0,0,1-14.79,14.82H104.47A14.8,14.8,0,0,1,89.68,370Z" opacity="0.2"/><path d="M101.17,332.25A14.8,14.8,0,0,1,116,317.44h55.46a14.8,14.8,0,0,1,14.79,14.81V370a14.8,14.8,0,0,1-14.79,14.82H116A14.8,14.8,0,0,1,101.17,370Z" fill="#ccc"/><path d="M166.55,244.66c-14.18,1-43.66,5.19-48.1,14.07-5.55,11.12-12.58,60,8.14,77.78l4.9.61c-2.53,9-3.82,24-4.16,30.88h87.32c-5-25.49,2.09-54.33,6.29-65.56l12.21,45.93,59.2,2.94a24.14,24.14,0,0,1,1.11-11.86l-54.39-23c-2.7-9.1-4.72-16.44-6.38-22.47-4.5-16.31-6.35-23-11.75-29-4.88-5.37-12.87-8.1-22.09-11.24-2-.67-4-1.36-6-2.09Z" fill="#686175" data-primary="true" fill-rule="evenodd"/><path d="M179.31,544.67l12.57-14.33,20.33-1.47-1.53,8.39A8.57,8.57,0,0,0,212.3,544l16.51,21.58c1.19,1.77-2.15,5.4-4,4.36Z" fill="#686175" data-primary="true"/><path d="M290.77,587.72,294,571.33l14.73-10,3.65,10.2,22.07,10.91a2.48,2.48,0,0,1-1.07,4.71l-42.59.57Z" fill="#686175" data-primary="true"/><path d="M91.21,409.46a7.2,7.2,0,0,1,7.4-7h70.24a7.2,7.2,0,0,1,7.4,7v2.1a7.2,7.2,0,0,1-7.4,7H98.61a7.21,7.21,0,0,1-7.4-7Z" fill="#ccc"/><path d="M91.21,409.46a7.2,7.2,0,0,1,7.4-7h70.24a7.2,7.2,0,0,1,7.4,7v2.1a7.2,7.2,0,0,1-7.4,7H98.61a7.21,7.21,0,0,1-7.4-7Z" opacity="0.2"/><path d="M118,409.46a7.2,7.2,0,0,1,7.39-7h70.25a7.2,7.2,0,0,1,7.39,7v2.1a7.2,7.2,0,0,1-7.39,7H125.42a7.2,7.2,0,0,1-7.39-7Z" fill="#ccc"/><path d="M299,444.64l-99.89-71.28H165.52l72.61,75.71,31,12.93c4.79,32,20.14,111.32,25.45,109s14.25-1,18.06,0L299,444.64Z" fill="#2f2e41"/><path d="M131.49,407.72c-15.44-10.94-8.91-28-3.72-35.13h54.56L257,432.2a11.58,11.58,0,0,1,3.13,14.24c-18.37,36.53-48.9,95.28-51.1,91.45-2.38-4.15-13.61-5.67-18.93-5.92l31.94-84c-24.62-8.38-75.14-29.33-90.57-40.28Z" fill="#2f2e41"/><path d="M25.33,368H134.11v8.42H25.33Z" fill="#2f2e41"/><path d="M119.56,368H383.09v8.42H119.56Z" fill="#2f2e41"/><path d="M119.56,368H383.09v8.42H119.56Z" opacity="0.2"/><path d="M203.83,355.06a94.07,94.07,0,0,0-10.51-4.86c-7.29-3.2-9.48,7.6-4.2,8.75,3.2.71,3.93,2.21,4.77,4.45H202Z" fill="#f9b499" fill-rule="evenodd"/><path d="M151.73,324.33,140.51,286l-4.86,2.53v31.07Z" opacity="0.2"/><path d="M118.45,258.81c4.44-8.91,27.63-12.39,41.82-13.38l-20,39.72c-3,14.84-.24,28.93,1.49,34.13l54.4,31.14c-2.67,6.23-2.1,11.25-1.48,13l-68.1-26.69c-20.72-17.8-13.69-66.77-8.14-77.9Z" fill="#686175" data-primary="true"/><path d="M138.71,361.87h64.35V368H138.71Z" fill="#ccc"/><path d="M138.71,361.87h64.35V368H138.71Z" opacity="0.2"/><path d="M215.52,291.39H321L306.28,368H200.76Z" fill="#ccc"/><path d="M639.61,270.27c7,1.27,17.7,9.7,22.16,13.76,6.24,5.14-2.49,12.06-6,7.81s-5.84-1.42-12.08-2.13-8.32-3.4-7.83-5.6,12,2.87,9.55-5.76-19.53-1.06-22-3,7.38-6.62,16.17-5Z" fill="#f9b499"/><path d="M771.91,238.51l11.83,1.55c-.49.35-1.17,1.36-1.92,1.92a106,106,0,0,1-20.43,11.62c-10.24,4.38-17.07-6.45-19-11.68l7-1.74V229.5c6.1-7.18,18.44-18.83,19-8C768.91,232,770.9,237.11,771.91,238.51Z" fill="#f9b499" fill-rule="evenodd"/><path d="M664.23,566.68l3.25-13,15.14-1.08-9,18.39Z" fill="#f9b499"/><path d="M814.77,578.67l-3.45-18.19,13.79-5.56,4.59,20Z" fill="#f9b499"/><path d="M773.41,482.5,763.06,385l3.69-28.45,35.49,5.54,3,114.17,21.44,80.92c-7.1,4.14-15.77,4.19-19.22,3.69l-34-78.33Z" fill="#2f2e41"/><path d="M663.47,553.4,728.22,355c6.77-7.08,34-3.19,47.09,2.22l-90.5,196.2C677.15,557.53,667.39,555.12,663.47,553.4Z" fill="#2f2e41"/><path d="M796.3,315c1.47-11.11,13.24-67.41,2.58-71.11a107,107,0,0,0-15.14-3.82c-39,28.78-38.57-.26-41.51,1.6-3.68,1.11-12.51,3.33-18,7.77a134.51,134.51,0,0,1,0,32.23c-2.2,15.55,13.25,22.22,14.35,33.33s-13.42,40-14.35,40c28.33-1.11,79.46,11.49,79.46,11.49C801.45,358.69,794.83,326.1,796.3,315Z" fill="#f48225" data-secondary="true"/><path d="M747.67,291.45c-.88-2-2.17-6.45-.24-7.84,1.22-.89,2.9,2.77,4.37,7-.13-1.4,0-3.6,1.52-3.92,1.19-.25,1.44,2.43,1.29,5.15.3-1.23.84-2.73,1.5-2.7s1.36,4.28.67,7.61c0,.78.15,1.61.68,1.76l.12,0c3.34.62,5.28-1.63,4.14-4.42-.91-2.25,2.89,1.47,3.64,2.46a45.84,45.84,0,0,1-1.5,5.43c-.27.25-5.27,1.38-5.52,1.11s-2.09-1.46-3.44-2.34v.06c.75,2.53-4.51-5.2-7.24-9.39Z" fill="#f9b499" fill-rule="evenodd"/><path d="M750.72,301.22c5.48,4.58,18.81,7.36,24.78,8.18,8,1.48,7.65-9.66,2.17-9.59s-4.84-3.56-9.39-7.9-7.94-4.19-9.31-2.41,9.92,7.39,1.7,11-13.34-14.3-16.45-14.93-.34,9.9,6.5,15.63Z" fill="#f9b499"/><path d="M799.36,243.89c11,12.45,33.07,41,37.91,54.71s13,28.46-52.77,15.16c-9.17-2.81-12.67-2.49-13.55-2.11l-.2.26c-.08-.05,0-.16.2-.26,4-5,6.81-7.81,3.89-13L819.43,303,796,274.21l3.34-30.32Z" fill="#f48225" data-secondary="true"/><path d="M715.16,263.16c3-10.33,10.49-15.23,13.81-16.58l5.74,35L715.46,323.2a11.49,11.49,0,0,1-17.66,4.11L655,292.68c6.49-2.06,6.52-9,5.53-11.07l40.21,26.2c3.56-10.58,11.43-34.31,14.38-44.65Z" fill="#f48225" data-secondary="true"/><path d="M674.63,570.06l-10.43-3.65L632.66,584.2a3.19,3.19,0,0,0,1.56,6h35.47a6.2,6.2,0,0,0,6.17-6.77Z" fill="#f48225" data-secondary="true"/><path d="M829,574.07l-14.67,3.06-16.94,11.94a4.39,4.39,0,0,0,2.53,8h31a5.25,5.25,0,0,0,4.82-7.32Z" fill="#f48225" data-secondary="true"/><path d="M176.58,226.37l19.6.23-4.27,25a9.45,9.45,0,0,1-11.73,7.6l-2-.51A10.06,10.06,0,0,1,171,246.37Z" fill="#f9b499"/><path d="M272.77,331.23a9.19,9.19,0,1,1-9.19-9.2A9.19,9.19,0,0,1,272.77,331.23Z" fill="#ccc"/><path d="M272.77,331.23a9.19,9.19,0,1,1-9.19-9.2A9.19,9.19,0,0,1,272.77,331.23Z" opacity="0.2"/><path d="M192.42,248.64l-.51,3s-12.18.43-13.12-13C178.79,238.65,183.53,247.3,192.42,248.64Z" fill="#f7a48b"/><ellipse cx="198.17" cy="221.65" rx="27.86" ry="20.89" transform="translate(-79.9 326.9) rotate(-68.93)" fill="#f9b499"/><path d="M182,218.22c0,3.94-1.21,12.92-4,15.11-5.29,4.27-18.84-2-17.85-13.12s17.86-5.28,6-17.1,12-33.84,22.14-24.64c15.86,14.45,10.57,7.23,26.77,4.27S242.84,201.49,240.2,214s-15.2,14.13-21.48,6.24-13.88-10.86-20.49-4.62S182,213.29,182,218.22Z" fill="#2f2e41"/><ellipse cx="180.63" cy="219.47" rx="7.15" ry="5.46" transform="translate(-89.1 309.13) rotate(-68.93)" fill="#f9b499"/><ellipse cx="753.86" cy="208.63" rx="19.15" ry="25.31" fill="#f9b499"/><path d="M780.21,178c2-1.62,6-4.21,7.36-6.93,3.67-7.32.33-15-4.85-17.54-3.24-1.59-7.78-1.34-11.62.86a13.36,13.36,0,0,0-6.57,11.17c-.06,1.65.3,2.05.16,3.41a41.24,41.24,0,0,0-20,1.8c-21.45,6.9-18.59,28.71-12.51,29.44,4.86.58,8.75-3.89,9-6.19,7.56,4.78,16.53,5.76,23,6.46,4.86.54,8.34.91,8.8,2.63.85,3.2-.85,13.26-2.75,18.59,12.51.73,16.88-14.59,14.73-31.67a24.38,24.38,0,0,0-4.8-12Z" fill="#2f2e41" fill-rule="evenodd"/><ellipse cx="773.02" cy="206.51" rx="6.22" ry="4" transform="translate(345.47 882.82) rotate(-72.66)" fill="#f9b499"/><path d="M749.32,235.85v-2.63s9.25,3.15,16-4.34C765.36,228.88,762.82,238.09,749.32,235.85Z" fill="#f7a48b"/><path d="M764.69,169s11.89,2.17,15.52,9l3.53-2.71s-7.64-10.05-19.21-9.73Z" fill="#f48225" data-secondary="true" fill-rule="evenodd"/></svg>