<svg id="a9baf046-cd6a-4cce-98d2-c9dff92221c8" data-name="Layer 1" xmlns="http://www.w3.org/2000/svg" width="865.76" height="682.89" viewBox="0 0 865.76 682.89"><path d="M706.18,565.7v7.43l-22.76,4a2.51,2.51,0,0,0-1.7,2.37l.85,3.41a2.49,2.49,0,0,0,2.5,2.5H718.6a5.67,5.67,0,0,0,5.67-5.67v-14Z" fill="#686175" data-primary="true"/><path d="M826.06,551.22l3.22,4.55a2.23,2.23,0,0,1-.24,2.83l-15,15.07a2.51,2.51,0,0,0,0,2.92l2.66,2.3a2.51,2.51,0,0,0,3.48.6l27.4-19.34a5.67,5.67,0,0,0,1.36-7.91l-8.09-11.45Z" fill="#686175" data-primary="true"/><path d="M707.27,393.6l.76,19.13-11.44,77.85a17.28,17.28,0,0,0-.08,4.37l7.55,71.13a3.08,3.08,0,0,0,3.07,2.75h15.28a3.08,3.08,0,0,0,3.08-3.15L723.88,494a17.29,17.29,0,0,1,.54-4.75l14.11-54.71a4.48,4.48,0,0,1,8.43-.68l27.44,62.42a19.36,19.36,0,0,0,3.49,5.32L826.31,554A1.18,1.18,0,0,0,828,554l14.15-12.3a1.18,1.18,0,0,0,.16-1.6l-40.12-53a19.21,19.21,0,0,1-2.92-5.56l-16.84-50.89a112.85,112.85,0,0,1-5.32-28.72c-.34-5.66-2.07-12.12-7.62-15.32Z" fill="#2f2e41"/><path d="M707.27,316.7l-3.45,72.52c0,2.71,3,4.77,6.32,4.38l59-7c4.19-.52,7.08-3.66,6.48-7.06-1.81-10.39-5.14-31.43-4.46-42.35l-3.25-37.63s-.47-16.05-24.17-14H718.4a67.22,67.22,0,0,0-10.55,1.86,17.51,17.51,0,0,0-12.08,10.22L679,337.28l17.28,8.54Z" fill="#686175" data-primary="true"/><polygon points="648.9 342.12 672.06 356.52 680.72 342.12 658.42 326.99 648.9 342.12" fill="#2f2e41"/><rect x="240.91" y="231" width="406.71" height="244.29" rx="14.14" fill="#2f2e41"/><rect x="253.04" y="250.34" width="381.48" height="192.86" fill="#fcfcfc"/><rect x="596.63" y="304.21" width="21.66" height="135.51" fill="#ccc"/><rect x="566.67" y="327.72" width="21.66" height="112" fill="#f48225" data-secondary="true"/><rect x="537.18" y="365.98" width="21.66" height="73.75" fill="#ccc"/><rect x="506.76" y="342.93" width="21.66" height="96.79" fill="#d1d3d4"/><rect x="476.8" y="357.22" width="21.66" height="82.5" fill="#f48225" data-secondary="true"/><rect x="447.76" y="365.98" width="21.66" height="73.75" fill="#d1d3d4"/><rect x="416.88" y="375.19" width="21.66" height="64.53" fill="#ccc"/><rect x="387.3" y="357.22" width="21.66" height="82.5" fill="#f48225" data-secondary="true"/><rect x="357.34" y="371.97" width="21.66" height="67.75" fill="#ccc"/><rect x="328.38" y="386.26" width="21.66" height="53.47" fill="#f48225" data-secondary="true"/><rect x="298.32" y="386.26" width="21.66" height="53.47" fill="#ccc"/><rect x="189.28" y="338" width="115.29" height="183.83" rx="8.24" fill="#a7a9ac"/><rect x="193.53" y="353.14" width="106.09" height="154.35" fill="#fcfcfc"/><circle cx="252.49" cy="197.28" r="66.07" fill="#ccc"/><circle cx="252.49" cy="197.28" r="53.58" fill="#bcbec0"/><circle cx="252.49" cy="197.28" r="41.5" opacity="0.2"/><circle cx="252.49" cy="197.28" r="30.21" fill="#bcbec0"/><circle cx="252.49" cy="197.28" r="17.36" opacity="0.2"/><polygon points="314.39 131.21 313.2 115.57 306.06 121.57 306.85 138.66 311.21 142.73 328.63 142.73 342.49 127.5 327.57 126.51 329.18 124.91 344.63 126 352.34 118.07 337.36 116.8 332.88 112.96 333.27 97.5 329.2 101.36 329.2 116.59 327.49 118.28 327.06 103.07 314.84 114.21 316.06 129.57 314.39 131.21" fill="#bcbec0"/><path d="M250.88,198h0a3.08,3.08,0,0,0,4.45.12l85.21-84.52a2.93,2.93,0,0,0,0-4.15h0a2.94,2.94,0,0,0-4.14,0L251,193.79A3.08,3.08,0,0,0,250.88,198Z" fill="#d1d3d4"/><polyline points="309.15 386.26 398.13 342.93 429.57 360.23 487.63 342.93 517.59 327.72 548.01 348.98 577.51 313.89 607.47 289.6 634.52 289.6" fill="none" stroke="#ccc" stroke-miterlimit="10"/><circle cx="339.1" cy="371.76" r="3.43" fill="#ccc"/><circle cx="368.17" cy="357.22" r="3.43" fill="#ccc"/><circle cx="398.13" cy="342.93" r="3.43" fill="#ccc"/><circle cx="429.57" cy="360.65" r="3.43" fill="#ccc"/><circle cx="458.59" cy="351.14" r="3.43" fill="#ccc"/><circle cx="487.63" cy="342.93" r="3.43" fill="#ccc"/><circle cx="517.59" cy="327.72" r="3.43" fill="#ccc"/><circle cx="577.51" cy="313" r="3.43" fill="#ccc"/><circle cx="607.47" cy="289.6" r="3.43" fill="#ccc"/><path d="M245.1,396l-8.32-13.87s-18.17,9.47-13.31,30.91a28.65,28.65,0,0,0,14.27,17.94l7.36-14.35s-7.19-4.58-5.85-12.44A12.33,12.33,0,0,1,245.1,396Z" fill="#d1d3d4"/><path d="M246.08,395.47l-8.32-13.92s14.86-8.94,30.55,3.54c0,0,9.16,6.52,9.79,20.55H262.69a12.25,12.25,0,0,0-6.95-10.14A12,12,0,0,0,246.08,395.47Z" fill="#bcbec0"/><path d="M238.48,431.31,245.89,417s6,3.78,12.66-1.74a12.22,12.22,0,0,0,4.14-8.73H278.1s1,15.5-15.07,24.42A28.13,28.13,0,0,1,238.48,431.31Z" fill="#e6e7e8"/><rect x="198.63" y="467" width="1.43" height="35.43" fill="#bcbec0"/><rect x="206.66" y="463.28" width="1.43" height="39.14" fill="#bcbec0"/><rect x="284.56" y="463.28" width="1.43" height="39.14" fill="#bcbec0"/><rect x="223.79" y="482.86" width="1.43" height="19.57" fill="#bcbec0"/><rect x="275.46" y="482.86" width="1.43" height="19.57" fill="#bcbec0"/><rect x="232.52" y="479.68" width="1.43" height="22.75" fill="#bcbec0"/><rect x="242.16" y="462.75" width="1.43" height="39.68" fill="#bcbec0"/><rect x="292.7" y="462.75" width="1.43" height="39.68" fill="#bcbec0"/><rect x="250.4" y="476.86" width="1.43" height="25.57" fill="#bcbec0"/><rect x="259.88" y="476.86" width="1.43" height="25.57" fill="#bcbec0"/><rect x="216.99" y="495.12" width="1.21" height="7.3" fill="#bcbec0"/><rect x="268.52" y="485.71" width="1.43" height="16.71" fill="#bcbec0"/><rect x="200.06" y="486" width="1.21" height="16.43" fill="#d1d3d4"/><rect x="208.09" y="487.82" width="1.21" height="14.61" fill="#d1d3d4"/><rect x="285.99" y="487.82" width="1.21" height="14.61" fill="#d1d3d4"/><rect x="225.22" y="486.86" width="1.21" height="15.57" fill="#d1d3d4"/><rect x="276.89" y="486.86" width="1.21" height="15.57" fill="#d1d3d4"/><rect x="233.95" y="495.75" width="1.21" height="6.68" fill="#d1d3d4"/><rect x="243.59" y="474.86" width="1.21" height="27.57" fill="#d1d3d4"/><rect x="294.13" y="474.86" width="1.21" height="27.57" fill="#d1d3d4"/><rect x="251.83" y="481.14" width="1.21" height="21.29" fill="#d1d3d4"/><rect x="215.56" y="478.39" width="1.43" height="24.04" fill="#d1d3d4"/><rect x="258.56" y="465.43" width="1.32" height="37" fill="#d1d3d4"/><rect x="267.2" y="479" width="1.32" height="23.43" fill="#d1d3d4"/><rect x="399.84" y="474.86" width="87" height="27.57" fill="#2f2e41"/><rect x="399.84" y="474.86" width="87" height="27.57" opacity="0.2"/><path d="M395.46,502.43h95.76a19.41,19.41,0,0,1,19.41,19.41v0a0,0,0,0,1,0,0H376.06a0,0,0,0,1,0,0v0a19.41,19.41,0,0,1,19.41-19.41Z" fill="#2f2e41"/><rect x="559.52" y="126.96" width="139.32" height="72.09" fill="#d1d3d4"/><path d="M563.49,120.11H694.86a4,4,0,0,1,4,4V127a0,0,0,0,1,0,0H559.52a0,0,0,0,1,0,0v-2.88A4,4,0,0,1,563.49,120.11Z" fill="#bcbec0"/><rect x="563.63" y="122.14" width="24.64" height="3.21" fill="#fff"/><circle cx="685.88" cy="123.75" r="1.61" fill="#fff"/><circle cx="690.38" cy="123.75" r="1.61" fill="#fff"/><circle cx="694.77" cy="123.75" r="1.61" fill="#fff"/><path d="M560,188.09s4.91-14,15.72-13.71a9.35,9.35,0,0,1,4.55,1.41c4.47,2.68,18.19,9.75,28.1,2.49a44.17,44.17,0,0,0,8.15-9.21s9.41-12.54,18.18-7.35a10.2,10.2,0,0,1,2.33,2c2.09,2.32,9.54,9.66,18.38,7.48a14.65,14.65,0,0,0,7.17-4.38c5.4-5.83,24.19-25,36.21-23" fill="none" stroke="#ccc" stroke-miterlimit="10" stroke-width="2"/><circle cx="574.24" cy="174.53" r="2.89" fill="#ccc"/><circle cx="599.41" cy="181.4" r="2.89" fill="#ccc"/><circle cx="627.94" cy="160.4" r="2.89" fill="#ccc"/><circle cx="652.56" cy="171.64" r="2.89" fill="#ccc"/><circle cx="683.63" cy="148.61" r="2.89" fill="#ccc"/><path d="M675.63,339.79l-7.49,11.6a6.06,6.06,0,0,0,1.83,8.42l77.65,49.5a5.13,5.13,0,0,0,7.16-1.68l8-13.31a5.14,5.14,0,0,0-1.59-7L684,338A6.08,6.08,0,0,0,675.63,339.79Z" fill="#f48225" data-secondary="true"/><path d="M675.63,339.79l-7.49,11.6a6.06,6.06,0,0,0,1.83,8.42l77.65,49.5a5.13,5.13,0,0,0,7.16-1.68l8-13.31a5.14,5.14,0,0,0-1.59-7L684,338A6.08,6.08,0,0,0,675.63,339.79Z" fill="#f48225" data-secondary="true" opacity="0.2"/><path d="M712.15,361.72,696,364.47a1.61,1.61,0,0,0-1.34,1.58h0a1.62,1.62,0,0,0,1.61,1.62h7.14l-6.66,3.94a3,3,0,0,0-.09,5.11l2.55,1.62a3,3,0,0,0,2.41.37A29.46,29.46,0,0,0,717.3,368Z" fill="#f9b499"/><path d="M740.44,343.86l-31.75,17.35,8.82,9.06L761.87,346c2.1-1,3.4-2.66,3.56-4.41l3.77-42.23s-.65-6.62-8.09-10.81c-3.85-2.16-9.53-1.9-12.57.81s-5.75,8-4.55,18.24l.37,30.06C744.39,340,743,342.27,740.44,343.86Z" fill="#686175" data-primary="true"/><path d="M731.75,300.28h0a8.74,8.74,0,0,1-8.74-8.74v-11l17.48,2.21v8.75A8.74,8.74,0,0,1,731.75,300.28Z" fill="#f9b499"/><ellipse cx="675.36" cy="363.2" rx="3.96" ry="6.13" transform="translate(42.13 795.7) rotate(-62.6)" fill="#f9b499"/><circle cx="593.24" cy="293.76" r="64.59" fill="#fcfcfc" opacity="0.35"/><path d="M723,284.27v-2.85a84.28,84.28,0,0,0,12.76.57A28.17,28.17,0,0,1,723,284.27Z" fill="#f7a48b"/><path d="M720.18,241.7,715,268.53a11.08,11.08,0,0,0,10.11,13.25l15.36,1,6.61-19.29c1.74-5.1-.31-11.31-5.36-13.2Z" fill="#f9b499"/><path d="M715.77,234.32a12.07,12.07,0,0,0,5.92,9.3s20.57,6.47,22,8.77l-1.6,9a8.07,8.07,0,0,0,3.08,7.85h0s11-12,6.73-23.86a12.87,12.87,0,0,0-8.67-8c-5.63-1.58-15.47-4.53-21.49-7.33A4.2,4.2,0,0,0,715.77,234.32Z" fill="#2f2e41"/><ellipse cx="742.48" cy="265.2" rx="4.15" ry="2.95" transform="translate(233.6 867.39) rotate(-69.46)" fill="#f9b499"/><path d="M24.35,251.49s-14-12.8-6.21-20.43a2.49,2.49,0,0,1,4.1.94l2.11,6.1v-5.65a1.9,1.9,0,0,1,2.09-1.9h0a1.92,1.92,0,0,1,1.69,1.57l2.92,16.55Z" fill="#f9b499"/><path d="M167.66,234.05s11.7-14.89,2.81-21.16a2.48,2.48,0,0,0-3.89,1.59l-1.09,6.36-.92-5.58a1.9,1.9,0,0,0-2.37-1.53h0a1.9,1.9,0,0,0-1.41,1.81l-.2,16.81Z" fill="#f9b499"/><path d="M65.23,567.21l-2.17,16.9H73.89v-.62a2.82,2.82,0,0,1,3.25-2.78h0a2.81,2.81,0,0,1,2.38,2.78v.62h22.07a3.13,3.13,0,0,0,3.13-3.13h0a3.14,3.14,0,0,0-2.24-3c-4.28-1.27-13.62-4.28-18.13-7.44a11.52,11.52,0,0,0-5.58-2.13Z" fill="#f48225" data-secondary="true"/><path d="M145.63,568.5l-2.16,16.89H154.3v-.61a2.82,2.82,0,0,1,3.24-2.79h0a2.83,2.83,0,0,1,2.39,2.79v.61H182a3.13,3.13,0,0,0,3.13-3.12h0a3.13,3.13,0,0,0-2.24-3c-4.29-1.28-13.63-4.28-18.14-7.45a11.54,11.54,0,0,0-5.57-2.12Z" fill="#f48225" data-secondary="true"/><path d="M21.78,248.44l11-6.38,11.74,33.62a7.51,7.51,0,0,0,1,1.78c3,3.77,3.81,5.61,8.52,8.68l19.53,15.71a7.11,7.11,0,0,0,5.77,1.46c6.23-1.18,21.58-3.7,45.5-5.34a13.83,13.83,0,0,0,9.29-5.36,70.89,70.89,0,0,1,9.84-11.76c5.07-4.91,6-8.27,8.7-14.21,3.94-8.56,1.7-1.11,5.3-36.55l12.41,1.8-4.52,43.84a9.54,9.54,0,0,1-.91,1.65l-16.17,23.2a32.07,32.07,0,0,0-6,18.31c0,13.29.49,36.87,4.3,51.24,0,0,3.44,14,3.32,22,0,3-3.15,5.34-6.95,5.34H81.77s-3.68,1.8-3.22-9.72c0,0-2.3-57.82-18-72.81L36.84,292.38l-.12-.1a8.18,8.18,0,0,1-2.54-3.72L21.37,249.5A.91.91,0,0,1,21.78,248.44Z" fill="#f48225" data-secondary="true"/><path d="M91.4,292.38h15.43a0,0,0,0,1,0,0v15a7.71,7.71,0,0,1-7.71,7.71h0a7.71,7.71,0,0,1-7.71-7.71v-15A0,0,0,0,1,91.4,292.38Z" fill="#f9b499"/><path d="M83.81,399.18a1.83,1.83,0,0,1,1.81-1.6l53.09-.1c6,0,7.77-1.22,7.77-1.22C153.2,429.1,165.23,551,167,569a2,2,0,0,1-2,2.23H146.53a2,2,0,0,1-2-1.82c-4.83-48.33-15.79-118.55-20.31-134.3a3.87,3.87,0,0,0-4.24-2.77h0a3.85,3.85,0,0,0-3.31,3.36c-3.76,31.41-29.59,122.21-33,134.21a1.81,1.81,0,0,1-1.75,1.32H65.12a1.83,1.83,0,0,1-1.81-2Z" fill="#2f2e41"/><path d="M91.4,299.9v-2.61s5.89,4.25,12.95,2.61C104.35,299.9,99.23,302.9,91.4,299.9Z" fill="#f7a48b"/><ellipse cx="97.11" cy="279.55" rx="16.86" ry="21.84" transform="translate(-126.76 86.01) rotate(-30)" fill="#f9b499"/><path d="M81.53,284.86a10.94,10.94,0,0,0,2.82-9.2c-.39-2.49.28-5,4.78-4.79,2,.39,11.36-1.25,15.94-12.52a7,7,0,0,0-9.27-8.93l-.26.12a30.22,30.22,0,0,1-6.84,3.82,22.48,22.48,0,0,0-13,10.78c-3.3,6.5-4.25,14.67,5.53,21Z" fill="#2f2e41"/><path d="M75.11,279S81.65,292.32,89,295.6c0,0-4.54-9.29-4.54-18.92Z" fill="#2f2e41"/><ellipse cx="85.31" cy="285.16" rx="2.86" ry="3.86" transform="translate(-153.84 107.96) rotate(-36.81)" fill="#f9b499"/><path d="M593.24,217.25a76.51,76.51,0,1,0,76.5,76.51A76.51,76.51,0,0,0,593.24,217.25ZM594,355.8A62.77,62.77,0,1,1,656.72,293,62.76,62.76,0,0,1,594,355.8Z" fill="#f48225" data-secondary="true"/></svg>