<svg id="fd4635e8-e298-4f54-bbab-861def5358e3" data-name="Layer 1" xmlns="http://www.w3.org/2000/svg" width="865.76" height="682.89" viewBox="0 0 865.76 682.89"><path d="M553.24,496.83c-3,5.71-172.17,4.94-174.78,0-.4-8.23,28.19-13.7,32.7-22.08l11.4-82.85h86.27l11.4,82.85c4.51,8.38,33.4,13.85,33,22.08" fill="#2f2e41" fill-rule="evenodd"/><path d="M411.13,475.06c.43-.08,11.41-82.92,11.59-83.16H509c.2.46,11.13,82.86,11.59,83.16Z" fill="#231f20" fill-rule="evenodd" opacity="0.2"/><path d="M721.82,108.94h-512a15.65,15.65,0,0,0-15.6,15.6V423.65a15.65,15.65,0,0,0,15.6,15.61h512a15.65,15.65,0,0,0,15.6-15.61V124.54a15.65,15.65,0,0,0-15.6-15.6" fill="#2f2e41" fill-rule="evenodd"/><path d="M723.9,108.94h-512a13.55,13.55,0,0,0-13.52,13.52V421.58a13.56,13.56,0,0,0,13.52,13.52h512a13.56,13.56,0,0,0,13.52-13.52V122.46a13.55,13.55,0,0,0-13.52-13.52" fill="#231f20" fill-rule="evenodd" opacity="0.2"/><path d="M601.36,111H209.83a13.55,13.55,0,0,0-13.52,13.52V423.65a13.56,13.56,0,0,0,13.52,13.53H372Z" fill-rule="evenodd" opacity="0.2"/><rect x="212.42" y="124.74" width="506.82" height="272.48" fill="#fff"/><rect x="213.6" y="125.92" width="504.45" height="270.11" fill="#bcbec0"/><polygon points="590.87 125.92 400.9 396.03 213.6 396.03 213.6 125.92 590.87 125.92" fill="#231f20" fill-rule="evenodd" opacity="0.2"/><path d="M210.06,564.44c-6.68.12-5.08-18.66-4.31-15,.61,2.91,62,3.66,142.23,4.06,151.33.74,369.69-1.13,373.46-1.7.88-.13,4.36-.22,4.69-2.55-.64,4.54,2.48,15.08-4.3,15.16Z" fill="#2f2e41" fill-rule="evenodd"/><path d="M210.06,564.44c-6.68.12-5.08-18.66-4.31-15,.61,2.91,62,3.66,142.23,4.06,151.33.74,369.69-1.13,373.46-1.7.88-.13,4.36-.22,4.69-2.55-.64,4.54,2.48,15.08-4.3,15.16Z" fill-rule="evenodd" opacity="0.2"/><path d="M249.28,515.66H687.67c1.3-2.44,35.22,30.15,36.69,30.33a4.38,4.38,0,0,1,1.41,4.82c-.87,8.51-512,0-515.86,2.93-4.07.12-6-5.62-2.45-7.91l39.36-29.41a3.93,3.93,0,0,1,2.46-.76" fill="#2f2e41" fill-rule="evenodd"/><path d="M791.23,503.74h0a50.19,50.19,0,0,1,50,50.1A11.16,11.16,0,0,1,830.15,565H752.31c-29.85-5.52,3.28-65.37,38.92-61.23" fill="#2f2e41" fill-rule="evenodd"/><path d="M791.82,503.74v8.09c3.74.59,3.24,6.48-.59,6.39-3.84.09-4.34-5.8-.59-6.39v-8.09Z" fill-rule="evenodd" opacity="0.2"/><path d="M226.24,134.4H705.42c7.43-.25,5.2,9.1,5.5,13.53H220.73c.32-4.44-2-13.77,5.51-13.53" fill="#a7a9ac" fill-rule="evenodd"/><path d="M712.06,387.18l-1.14-239.25H220.73s-.44,239.78-.42,239.78Z" fill="#fff" fill-rule="evenodd"/><rect x="220.73" y="150.29" width="490.19" height="27.01" fill="#bcbec0"/><rect x="249.24" y="182.73" width="332.04" height="194.43" fill="#fff"/><rect x="589.36" y="182.73" width="93.05" height="194.43" fill="#fff"/><rect x="622.89" y="219.04" width="25.4" height="6.35" fill="#ccc"/><rect x="622.89" y="228.72" width="50.23" height="3.4" fill="#ccc" opacity="0.8"/><rect x="622.89" y="246.86" width="36.92" height="6.35" fill="#ccc"/><rect x="622.89" y="256.54" width="50.23" height="3.4" fill="#ccc" opacity="0.8"/><rect x="596.52" y="193.08" width="38.3" height="6.35" fill="#ccc"/><rect x="656.22" y="193.08" width="16.91" height="6.36" fill="#ccc" opacity="0.8"/><rect x="344.19" y="286.31" width="50.51" height="7.88" fill="#ccc"/><rect x="344.19" y="298.6" width="81.47" height="4.21" fill="#ccc"/><rect x="344.19" y="319.51" width="218.3" height="4.21" fill="#ccc" opacity="0.8"/><rect x="344.19" y="308.91" width="218.3" height="4.21" fill="#ccc" opacity="0.8"/><rect x="344.19" y="357.48" width="218.3" height="4.21" fill="#ccc" opacity="0.8"/><rect x="344.19" y="336.01" width="72.38" height="7.88" fill="#ccc"/><rect x="344.19" y="348.3" width="55.81" height="4.21" fill="#ccc" opacity="0.8"/><rect x="249.25" y="156.07" width="332.02" height="15.44" fill="#a7a9ac"/><rect x="630.24" y="158.49" width="10.89" height="10.88" fill="#fff"/><path d="M655,169.37c-7.06.1-7.06-11,0-10.88,7.06-.1,7.07,11,0,10.88" fill="#fff" fill-rule="evenodd"/><path d="M660.17,166c3.33,0,3.33,5.19,0,5.14s-3.33-5.18,0-5.14" fill="#a7a9ac" fill-rule="evenodd"/><path d="M615.64,158.49c1.65,2.71,5,8.17,6.6,10.89H609C610.68,166.66,614,161.2,615.64,158.49Z" fill="#fff" fill-rule="evenodd"/><path d="M620,166c3.33,0,3.33,5.19,0,5.14s-3.33-5.18,0-5.14" fill="#a7a9ac" fill-rule="evenodd"/><path d="M331,192.7a1.17,1.17,0,0,0,0-2.33h-4.67a1.17,1.17,0,0,0,0,2.33Zm11.68,0a1.17,1.17,0,0,0,0-2.33H338a1.17,1.17,0,0,0,0,2.33Zm11.68,0a1.17,1.17,0,0,0,0-2.33h-4.67a1.17,1.17,0,0,0,0,2.33Zm11.19.63a1.17,1.17,0,0,0,1.15-2c-1.39-.78-7.9-2.28-6.17,1C362.05,193.12,364,192.49,365.58,193.33Zm6.58,7.61a1.18,1.18,0,0,0,.79.87c3.27,0,.33-4.63-.55-6a1.17,1.17,0,0,0-1.9,1.35A10.28,10.28,0,0,1,372.16,200.94Zm.22,11.42a1.17,1.17,0,0,0,2.34,0v-4.67a1.17,1.17,0,0,0-2.34,0Zm0,11.67a1.17,1.17,0,0,0,2.34,0v-4.67a1.17,1.17,0,0,0-2.34,0Zm0,11.68a1.17,1.17,0,0,0,2.34,0V231a1.17,1.17,0,0,0-2.34,0Zm0,11.68a1.17,1.17,0,0,0,2.34,0v-4.67a1.17,1.17,0,0,0-2.34,0Zm-2.81,10.08a1.17,1.17,0,0,0,1.46,1.79c1.29-1.41,3.3-3.56,2.82-5.57C371.57,251.6,371.17,256.55,369.57,257.47Zm-9.8,3.28a1.17,1.17,0,0,0-.83,2c1.59.55,6,1,6.65-1C365.09,259.26,361.7,261.33,359.77,260.75Zm-11.67,0a1.17,1.17,0,0,0,0,2.34h4.67a1.17,1.17,0,0,0,0-2.34Zm-11.68,0a1.17,1.17,0,0,0,0,2.34h4.67a1.17,1.17,0,0,0,0-2.34Zm-11.68,0a1.17,1.17,0,0,0,0,2.34h4.67a1.17,1.17,0,0,0,0-2.34Zm-11.51-.1a1.17,1.17,0,0,0-.55,2.26c1.65.06,7.45,1.29,5.89-1.81C317.08,260.26,315,261.09,313.23,260.65Zm-8-6.07a1.17,1.17,0,0,0-2.14.95c.64,1.53,3.8,6.76,4.93,3.25a1.14,1.14,0,0,0-.37-.81l-1.58,1.71-3-4.15,4.56,2.44A10.53,10.53,0,0,1,305.22,254.58Zm-.89-11.07a1.17,1.17,0,0,0-2.33,0v4.67a1.17,1.17,0,0,0,2.33,0Zm0-11.68a1.17,1.17,0,0,0-2.33,0v4.68a1.17,1.17,0,0,0,2.33,0Zm0-11.67a1.17,1.17,0,0,0-2.33,0v4.67a1.17,1.17,0,0,0,2.33,0Zm0-11.68a1.17,1.17,0,0,0-2.33,0v4.67a1.17,1.17,0,0,0,2.33,0Zm1.5-10.77a1.16,1.16,0,0,0,.12-.91c-2.09-3-3.64,2.87-3.84,4.52a1.17,1.17,0,0,0,2.11.84C304.73,200.65,304.88,199.07,305.83,197.71Zm8.85-7.34c-1.78-.28-8.54,1.38-4.7,3.34a14.45,14.45,0,0,1,4.63-1c1.17-.25,7.52,1,5.58-2C319.81,190,315.31,190.49,314.68,190.37Z" fill="#ccc"/><path d="M425.23,192.7a1.17,1.17,0,0,0,0-2.33h-4.67a1.17,1.17,0,0,0,0,2.33Zm11.68,0a1.17,1.17,0,0,0,0-2.33h-4.67a1.17,1.17,0,0,0,0,2.33Zm11.67,0a1.17,1.17,0,0,0,0-2.33h-4.67a1.17,1.17,0,0,0,0,2.33Zm11.19.63a1.17,1.17,0,0,0,1.15-2c-1.38-.78-7.89-2.28-6.16,1C456.24,193.12,458.2,192.49,459.77,193.33Zm6.59,7.61a1.18,1.18,0,0,0,.79.87c3.26,0,.32-4.63-.55-6a1.17,1.17,0,0,0-1.9,1.35A10.28,10.28,0,0,1,466.36,200.94Zm.22,11.42a1.17,1.17,0,0,0,2.33,0v-4.67a1.17,1.17,0,0,0-2.33,0Zm0,11.67a1.17,1.17,0,0,0,2.33,0v-4.67a1.17,1.17,0,0,0-2.33,0Zm0,11.68a1.17,1.17,0,0,0,2.33,0V231a1.17,1.17,0,0,0-2.33,0Zm0,11.68a1.17,1.17,0,0,0,2.33,0v-4.67a1.17,1.17,0,0,0-2.33,0Zm-2.81,10.08a1.17,1.17,0,0,0,1.71,1.59c1.12-1.47,3.08-3.43,2.56-5.37a1.17,1.17,0,0,0-2.08.23A10.45,10.45,0,0,1,463.77,257.47Zm-9.8,3.28a1.17,1.17,0,0,0-.83,2c1.59.55,6,1,6.65-1C459.28,259.26,455.9,261.33,454,260.75Zm-11.68,0a1.17,1.17,0,0,0,0,2.34H447a1.17,1.17,0,0,0,0-2.34Zm-11.67,0a1.17,1.17,0,0,0,0,2.34h4.67a1.17,1.17,0,0,0,0-2.34Zm-11.68,0a1.17,1.17,0,0,0,0,2.34h4.67a1.17,1.17,0,0,0,0-2.34Zm-11.51-.1a1.17,1.17,0,0,0-.56,2.26c1.65.06,7.46,1.29,5.89-1.81C411.28,260.26,409.14,261.09,407.43,260.65Zm-8-6.07a1.17,1.17,0,0,0-2.13.95c.64,1.53,3.8,6.76,4.93,3.25a1.14,1.14,0,0,0-.37-.81l-1.59,1.71-3-4.15,4.56,2.44A10.56,10.56,0,0,1,399.41,254.58Zm-.88-11.07a1.17,1.17,0,0,0-2.34,0v4.67a1.17,1.17,0,0,0,2.34,0Zm0-11.68a1.17,1.17,0,0,0-2.34,0v4.68a1.17,1.17,0,0,0,2.34,0Zm0-11.67a1.17,1.17,0,0,0-2.34,0v4.67a1.17,1.17,0,0,0,2.34,0Zm0-11.68a1.17,1.17,0,0,0-2.34,0v4.67a1.17,1.17,0,0,0,2.34,0Zm1.5-10.77a1.17,1.17,0,0,0-2-1.2c-1.11,1.37-3.23,7.7.4,5.65C398.93,200.65,399.08,199.07,400,197.71Zm8.85-7.34a12.6,12.6,0,0,0-5.17,1.1,1.17,1.17,0,0,0,1,2.13c2.33-1.23,6.31-.85,8.87-.9a1.17,1.17,0,0,0,0-2.33Z" fill="#ccc"/><path d="M519.43,260.77a1.17,1.17,0,0,1,0,2.34h-4.67a1.17,1.17,0,0,1,0-2.34Zm11.67,0a1.17,1.17,0,0,1,0,2.34h-4.67a1.17,1.17,0,0,1,0-2.34Zm11.68,0a1.17,1.17,0,0,1,0,2.34h-4.67a1.17,1.17,0,0,1,0-2.34Zm11.19-.63a1.17,1.17,0,0,1,1.15,2c-1.39.78-7.89,2.27-6.16-1C550.44,260.35,552.4,261,554,260.14Zm6.59-7.6a1.18,1.18,0,0,1,.79-.88c3.26,0,.32,4.63-.55,6a1.17,1.17,0,0,1-1.91-1.36A10.32,10.32,0,0,0,560.56,252.54Zm.22-11.42a1.17,1.17,0,0,1,2.33,0v4.67a1.17,1.17,0,0,1-2.33,0Zm0-11.68a1.17,1.17,0,0,1,2.33,0v4.67a1.17,1.17,0,0,1-2.33,0Zm0-11.68a1.17,1.17,0,0,1,2.33,0v4.67a1.17,1.17,0,0,1-2.33,0Zm0-11.68a1.17,1.17,0,0,1,2.33,0v4.67a1.17,1.17,0,0,1-2.33,0ZM558,196a1.17,1.17,0,0,1,1.46-1.79c1.29,1.41,3.29,3.56,2.81,5.57C560,201.88,559.57,196.93,558,196Zm-9.8-3.28a1.17,1.17,0,0,1-.83-2c1.59-.55,6-1,6.65,1C553.48,194.22,550.1,192.14,548.17,192.72Zm-11.68,0a1.17,1.17,0,0,1,0-2.33h4.67a1.17,1.17,0,0,1,0,2.33Zm-11.68,0a1.17,1.17,0,0,1,0-2.33h4.67a1.17,1.17,0,0,1,0,2.33Zm-11.67,0a1.17,1.17,0,0,1,0-2.33h4.67a1.17,1.17,0,0,1,0,2.33Zm-11.51.1a1.17,1.17,0,0,1-.56-2.25c1.65-.07,7.45-1.29,5.89,1.8C505.47,193.21,503.34,192.39,501.63,192.82Zm-8,6.08a1.17,1.17,0,0,1-2.13-1c.63-1.53,3.79-6.77,4.93-3.26a1.17,1.17,0,0,1-.38.82l-1.58-1.72-3,4.16,4.55-2.44A10.47,10.47,0,0,0,493.61,198.9ZM492.73,210a1.17,1.17,0,0,1-2.34,0v-4.67a1.17,1.17,0,0,1,2.34,0Zm0,11.68a1.17,1.17,0,0,1-2.34,0V217a1.17,1.17,0,0,1,2.34,0Zm0,11.68a1.17,1.17,0,0,1-2.34,0v-4.67a1.17,1.17,0,0,1,2.34,0Zm0,11.67a1.17,1.17,0,0,1-2.34,0v-4.67a1.17,1.17,0,0,1,2.34,0Zm1.49,10.77a1.17,1.17,0,0,1,.13.91c-2.09,3-3.64-2.87-3.84-4.52a1.17,1.17,0,0,1,2.11-.83C493.12,252.83,493.28,254.4,494.22,255.76Zm8.86,7.35c-1.78.27-8.55-1.38-4.7-3.34a14.85,14.85,0,0,0,4.56,1h4.81a1.17,1.17,0,0,1,0,2.34Z" fill="#ccc"/><path d="M601.84,297.8h24.5a5.34,5.34,0,0,1,5.33,5.32c-.88,4.74,3.15,20.41-5.33,20.19h-24.5a5.33,5.33,0,0,1-5.32-5.32c.87-4.74-3.15-20.41,5.32-20.19" fill="#ccc" fill-rule="evenodd" opacity="0.8"/><path d="M643.43,297.8h24.51a5.34,5.34,0,0,1,5.32,5.32c-.88,4.74,3.15,20.41-5.32,20.19H643.43a5.34,5.34,0,0,1-5.32-5.32c.88-4.74-3.15-20.41,5.32-20.19" fill="#ccc" fill-rule="evenodd" opacity="0.8"/><path d="M601.84,329.44h24.5a5.35,5.35,0,0,1,5.33,5.33c-.88,4.73,3.15,20.41-5.33,20.19h-24.5a5.34,5.34,0,0,1-5.32-5.32c.87-4.74-3.15-20.41,5.32-20.2" fill="#ccc" fill-rule="evenodd" opacity="0.8"/><path d="M643.43,329.44h24.51a5.35,5.35,0,0,1,5.32,5.33c-.88,4.74,3.15,20.41-5.32,20.19H643.43a5.34,5.34,0,0,1-5.32-5.32c.88-4.74-3.15-20.42,5.32-20.2" fill="#ccc" fill-rule="evenodd" opacity="0.8"/><path d="M614.88,232.48V218.67a2.28,2.28,0,0,0-2.28-2.27H598.79a2.27,2.27,0,0,0-2.27,2.27v13.81a2.28,2.28,0,0,0,2.27,2.28H612.6a2.28,2.28,0,0,0,2.28-2.28" fill="#ccc" fill-rule="evenodd"/><path d="M614.88,260.3V246.49a2.28,2.28,0,0,0-2.28-2.27H598.79a2.27,2.27,0,0,0-2.27,2.27V260.3a2.28,2.28,0,0,0,2.27,2.28H612.6a2.29,2.29,0,0,0,2.28-2.28" fill="#ccc" fill-rule="evenodd"/><path d="M332.36,310.08V289.67a3.37,3.37,0,0,0-3.36-3.36H308.59a3.37,3.37,0,0,0-3.36,3.36v20.41a3.38,3.38,0,0,0,3.36,3.37H329a3.38,3.38,0,0,0,3.36-3.37" fill="#ccc" fill-rule="evenodd"/><path d="M332.36,359.78V339.37A3.37,3.37,0,0,0,329,336H308.59a3.37,3.37,0,0,0-3.36,3.36v20.41a3.37,3.37,0,0,0,3.36,3.36H329a3.37,3.37,0,0,0,3.36-3.36" fill="#ccc" fill-rule="evenodd"/><path d="M560.44,154h-54a13.17,13.17,0,0,0-13.14,13.14v54a13.17,13.17,0,0,0,13.14,13.14h54a13.18,13.18,0,0,0,13.14-13.14v-54A13.18,13.18,0,0,0,560.44,154" fill="#ccc" fill-rule="evenodd"/><path d="M560.44,154h-54a13.17,13.17,0,0,0-13.14,13.14v54a13.17,13.17,0,0,0,13.14,13.14h54a13.18,13.18,0,0,0,13.14-13.14v-54A13.18,13.18,0,0,0,560.44,154" fill-rule="evenodd" opacity="0.1"/><path d="M354.56,220H306.92a11.63,11.63,0,0,0-11.6,11.59v47.65a11.63,11.63,0,0,0,11.6,11.59h47.64a11.62,11.62,0,0,0,11.59-11.59V231.62A11.62,11.62,0,0,0,354.56,220" fill="#ccc" fill-rule="evenodd" opacity="0.8"/><path d="M554.39,145.57H499.48a13.41,13.41,0,0,0-13.37,13.37v54.91a13.41,13.41,0,0,0,13.37,13.36h54.91a13.4,13.4,0,0,0,13.36-13.36V158.94a13.41,13.41,0,0,0-13.36-13.37" fill="#f48225" data-secondary="true" fill-rule="evenodd"/><path d="M562.89,213.44V159.35a8.94,8.94,0,0,0-8.91-8.91H499.89a8.94,8.94,0,0,0-8.91,8.91v54.09a8.94,8.94,0,0,0,8.91,8.91H554a8.94,8.94,0,0,0,8.91-8.91" fill="#f7f5ff" fill-rule="evenodd"/><path d="M514.5,175.89l-17.21,31.72a4.47,4.47,0,0,0,3.92,6.57h51.45a4.47,4.47,0,0,0,3.91-6.57l-9.38-17.3c-5-6.46-8.83,1.28-10.87,5.59a1.79,1.79,0,0,1-3.13,0l-10.86-20a4.47,4.47,0,0,0-7.83,0" fill="#f48225" data-secondary="true" fill-rule="evenodd"/><path d="M546.71,158.68c-10-.14-10,15.54,0,15.39,10,.14,10-15.53,0-15.39" fill="#f48225" data-secondary="true" fill-rule="evenodd"/><path d="M347.06,212.27H298.61a11.82,11.82,0,0,0-11.79,11.79v48.45a11.83,11.83,0,0,0,11.79,11.79h48.45a11.82,11.82,0,0,0,11.79-11.79V224.06a11.82,11.82,0,0,0-11.79-11.79" fill="#f48225" data-secondary="true" fill-rule="evenodd"/><path d="M354.56,272.14V224.42a7.89,7.89,0,0,0-7.86-7.86H299a7.88,7.88,0,0,0-7.86,7.86v47.72A7.87,7.87,0,0,0,299,280H346.7a7.88,7.88,0,0,0,7.86-7.86" fill="#f7f5ff" fill-rule="evenodd"/><path d="M311.87,239l-15.18,28a3.94,3.94,0,0,0,3.45,5.8h45.39A4,4,0,0,0,349,267l-8.28-15.26c-4.28-5.7-7.84,1.15-9.59,4.93a1.57,1.57,0,0,1-2.76,0L318.78,239a4,4,0,0,0-6.91,0" fill="#f48225" data-secondary="true" fill-rule="evenodd"/><path d="M340.29,223.83c-8.81-.13-8.81,13.71,0,13.58,8.81.13,8.81-13.71,0-13.58" fill="#f48225" data-secondary="true" fill-rule="evenodd"/><path d="M604.82,461.41H549.43A13.52,13.52,0,0,0,536,474.89v55.38a13.52,13.52,0,0,0,13.48,13.48h55.39a13.52,13.52,0,0,0,13.48-13.48V474.89a13.52,13.52,0,0,0-13.48-13.48" fill="#f48225" data-secondary="true" fill-rule="evenodd"/><path d="M613.39,529.86V475.3a9,9,0,0,0-9-9H549.85a9,9,0,0,0-9,9v54.56a9,9,0,0,0,9,9H604.4a9,9,0,0,0,9-9" fill="#f3f9ff" fill-rule="evenodd"/><path d="M564.59,492l-17.36,32a4.51,4.51,0,0,0,3.95,6.64h51.89A4.52,4.52,0,0,0,607,524l-9.47-17.44c-5.07-6.52-8.86,1.28-10.95,5.64a1.81,1.81,0,0,1-3.16,0l-11-20.19a4.52,4.52,0,0,0-7.9,0" fill="#f48225" data-secondary="true" fill-rule="evenodd"/><path d="M597.07,474.63c-10.06-.15-10.06,15.67,0,15.52,10.07.15,10.07-15.67,0-15.52" fill="#f48225" data-secondary="true" fill-rule="evenodd"/><path d="M631.24,491.74h-35a8.54,8.54,0,0,0-8.51,8.51v35a8.54,8.54,0,0,0,8.51,8.51h35a8.54,8.54,0,0,0,8.52-8.51v-35a8.54,8.54,0,0,0-8.52-8.51" fill="#f48225" data-secondary="true" fill-rule="evenodd"/><path d="M631.24,491.74h-35a8.54,8.54,0,0,0-8.51,8.51v35a8.54,8.54,0,0,0,8.51,8.51h35a8.54,8.54,0,0,0,8.52-8.51v-35a8.54,8.54,0,0,0-8.52-8.51" fill="#231f20" fill-rule="evenodd" opacity="0.2"/><path d="M636.66,535V500.52a5.7,5.7,0,0,0-5.68-5.68H596.52a5.69,5.69,0,0,0-5.67,5.68V535a5.68,5.68,0,0,0,5.67,5.67H631a5.69,5.69,0,0,0,5.68-5.67" fill="#ffebeb" fill-rule="evenodd"/><path d="M605.83,511.05l-11,20.21a2.85,2.85,0,0,0,2.49,4.19h32.78a2.85,2.85,0,0,0,2.49-4.19c-3.32-4.6-7.37-20.6-12.89-7.46-3.38,4.49-8.21-20.83-13.91-12.75" fill="#f48225" data-secondary="true" fill-rule="evenodd"/><path d="M626.35,500.09c-6.36-.09-6.35,9.9,0,9.8,6.36.1,6.36-9.89,0-9.8" fill="#f48225" data-secondary="true" fill-rule="evenodd"/><path d="M127,210.65l15.57,47.52,19.47,6.94A12.42,12.42,0,0,0,173,263.85L235.2,220.8s6.45-3.47,8-3.47,5.11-2.54,5.11-2.54l12.77-3.06s1-3-1-3H248.36l1-8.16a76.35,76.35,0,0,1,8.68-4.09c3.05-1,8.65-6.63,4.57-6.63s-18.38,6.1-18.38,6.1l-12,14.1-64.38,27.13Z" fill="#f9b499"/><path d="M142.58,258.17l19.52,6.91a12.4,12.4,0,0,0,10.9-1.26l27-18.95-6.39-18.58-25.72,10.8L127,210.65Z" fill="#686175" data-primary="true"/><path d="M145.47,551.37s0,12.31,1.67,16.78,6.72.56,14,.56,31.83-.52,36.85-6.1,0-6.71-5.59-8.38-29-9.48-29-9.48Z" fill="#686175" data-primary="true"/><path d="M147.24,568.15c1.67,4.47,6.71.56,14,.56s31.82-.52,36.84-6.1c2-2.15,2.38-3.65,1.86-4.76-3.59,1.57-10.09,3.54-21.36,5.07-14,1.8-25.8,2.38-32,2.57A15.2,15.2,0,0,0,147.24,568.15Z" fill="#fff"/><path d="M73.49,552s-7.23,16.2-2.23,19.54,41.35,2.23,45.77,2.23,3.34-4.49-1.68-7.26-22.88-16.19-22.88-16.19C86.89,550.33,73.49,552,73.49,552Z" fill="#686175" data-primary="true"/><path d="M117.05,573.79c3.12,0,3.5-2.19,1.7-4.48a218.78,218.78,0,0,1-49.22-3c-.11,2.35.3,4.34,1.73,5.29C76.28,574.89,112.58,573.73,117.05,573.79Z" fill="#fff"/><path d="M119,336.26c-1.35,38.19,1.38,59.39,3,66.06s6.15,38.49,8.38,46.33,3.34,24.59,5,39.67,10,63.12,10,63.12l17.87-6.69V528.56c0-5-1.12-96.61-2.23-116.72s-20.72-111-20.72-111C135.73,291.41,120.37,298.08,119,336.26Z" fill="#2f2e41"/><path d="M93.54,296.77a60.71,60.71,0,0,0-15.41,29.47c-4,18.77,12.05,48.24,12.05,48.24s11.79,51.3,9,58.57S83,470.45,81.87,491.67,73.49,552,73.49,552c7.34,1.68,19.54.56,19.54.56s7.83-10,10.06-19.46,24-67.68,29.58-94.48a478.19,478.19,0,0,0,9.78-85.58C143.12,323.57,93.54,296.77,93.54,296.77Z" fill="#2f2e41"/><path d="M82.17,225.71c-.56,17.37,7.89,39.59,9,51.87s-7.55,21.34-2.26,24,43,6.44,51.06,3.76,7.51-6.82,7.51-13.52-.11-36.67-1.63-48.42c-1.48-11.12-12.63-33.14-27.14-43.74S97.5,194.1,97.5,194.1C95.29,196.33,82.74,208.33,82.17,225.71Z" fill="#686175" data-primary="true"/><path d="M133.42,144.82c0-5.58-8.56-14.37-8.56-14.37-5-9.49-20.11,1.68-29,15.08s-1.66,21.2.56,27.35,1.15,26.24,3.35,26.24,19,2.24,19,.56-2.22-18.41-.55-17.86,11.42,4.74,13.7.3a24.6,24.6,0,0,0,1.55-4.47,56.29,56.29,0,0,0,1.38-20.24Z" fill="#f9b499"/><path d="M103.79,197.44c4.07.88,19.11,11,22.59,11s1.73-5.79-.58-9.27S109,190.5,109,190.5C103.83,185.28,99.72,196.56,103.79,197.44Z" fill="#686175" data-primary="true"/><path d="M103.79,197.44c4.07.88,19.11,11,22.59,11s1.73-5.79-.58-9.27S109,190.5,109,190.5C103.83,185.28,99.72,196.56,103.79,197.44Z" opacity="0.2"/><path d="M132.55,141.5c17.86-3.91,11.88-22.73,1.83-26.64s-12.85,4.47-17.87,3.36-19.56-8.38-32.39,0-11.76,29-17.86,41.31S36.65,181.28,26.6,217s19,45.78,22.33,58.62-5.6,34.07,8.92,40.77,33.51,1.66,40.77-17.32-1.12-35.18-6.7-55.27-.55-21.78,1.68-26.8S107,209.8,112,197.5s-7.24-23.46-8.92-31.27,5.58-5.59,12.83-15.08a50.43,50.43,0,0,0,8.94-20.7C129.33,134.37,132.51,141.45,132.55,141.5Z" fill="#2f2e41"/><path d="M132.55,141.5c17.86-3.91,11.88-22.73,1.83-26.64s-12.85,4.47-17.87,3.36-19.56-8.38-32.39,0-11.76,29-17.86,41.31S36.65,181.28,26.6,217s19,45.78,22.33,58.62-5.6,34.07,8.92,40.77,33.51,1.66,40.77-17.32-1.12-35.18-6.7-55.27-.55-21.78,1.68-26.8S107,209.8,112,197.5s-7.24-23.46-8.92-31.27,5.58-5.59,12.83-15.08a50.43,50.43,0,0,0,8.94-20.7C129.33,134.37,132.51,141.45,132.55,141.5Z" opacity="0.2"/><path d="M97.15,219.42c-4.89,6.53-2.62,18.78.16,31.57,3,13.82,12,57.68,12,57.68a91.09,91.09,0,0,0,13.82,6c6,1.81,55.28,22.09,55.28,22.09a21.38,21.38,0,0,0,7.2,5.37c5.1,2.55,21.45,5.11,21.45,5.11s5.14,3.55,6.11.5-12.77-15.25-12.77-15.25L184,327.92h-.17a121.78,121.78,0,0,0-14.43-11.26c-9.61-6.57-37.86-29.46-37.86-29.46s-3.6-31.22-3.6-41.46-7.22-28.27-7.22-28.27" fill="#f9b499"/><path d="M97.14,219.59c-4.9,6.53-2.63,18.78.15,31.56,3,13.83,12,57.69,12,57.69a94.05,94.05,0,0,0,13.82,6c1.74.53,7.16,2.62,14,5.32l16.61-15.36c-10.77-8.45-22.15-17.61-22.15-17.61s-3.6-31.22-3.6-41.46S120,216,120,216" fill="#686175" data-primary="true"/></svg>