<svg id="bcf0ef28-d655-4f40-96a2-b87a0fb2c3da" data-name="e495790c-affc-435e-9874-28746a4d4279" xmlns="http://www.w3.org/2000/svg" width="865.76" height="682.89" viewBox="0 0 865.76 682.89"><path d="M856,400.59q-.3,3.56-.65,7.14-1.4,14.19-3.61,28.64c-.36,2.32-.73,4.64-1.12,7q-2.8,16.74-6.74,33.75-2.55,11-5.59,22-4.69,17.14-10.61,34.43c-.51,1.49-1,3-1.56,4.49Q818.77,559,809.6,580q-8,18.21-17.32,36.44-4.11,8-8.51,16-4.14,7.51-8.51,15L774,649.7v.06H756.07l-588.46-1.29h-5.67s-1.58-1-4.43-3.07c-1.54-1.11-3.48-2.51-5.73-4.2-1-.72-2-1.5-3.08-2.33-6.27-4.79-14.4-11.32-23.59-19.41h0l-.72-.64c-2-1.74-4-3.54-6-5.42l-.92-.85-.46-.42L115.78,611l-.28-.25-2.17-2q-6.28-5.94-12.89-12.66c-1.49-1.52-3-3.06-4.48-4.64l-.15-.16q-4.26-4.49-8.56-9.27l-1.84-2-.77-.88q-4.77-5.4-9.5-11.18c-.72-.87-1.43-1.74-2.14-2.63q-4.44-5.5-8.77-11.32l-.76-1h0c-.8-1.09-1.61-2.18-2.4-3.29s-1.71-2.37-2.55-3.57c-4.71-6.69-9.27-13.66-13.59-20.88q-4.09-6.84-7.88-14h0c-1-2-2.08-4-3.07-6C3.14,443.6-7.81,366.13,44.23,280.9a221,221,0,0,1,56.11-62.15q8.32-6.25,17-11.59A236,236,0,0,1,148.62,191c96-41,207.22-17.43,232.08-5.55,0,0,64.37-172.23,258-150.42,44.12,5,84,24.55,117.26,55.26a254.71,254.71,0,0,1,19.22,19.8q4.35,5,8.51,10.28,4.37,5.53,8.51,11.38c37.35,52.59,60.93,122.93,64.91,202.4A494.39,494.39,0,0,1,856,400.59Z" fill="#f7dfc8"/><path d="M783.72,120.4V632.45q-4.76,8.63-9.82,17.24l-55.8-.12-32.2-.07-105.44-.22-35.6-.07-383-.8s-5-3.31-13.24-9.6A458.31,458.31,0,0,1,100.34,596V218.75A231.37,231.37,0,0,1,148.62,191c96-41,207.22-17.43,232.08-5.55,0,0,8.77-23.46,29.57-52A266.42,266.42,0,0,1,443.44,96c40.61-37.91,103.39-71.25,195.29-60.9,44.12,5,84,24.55,117.26,55.26a248.25,248.25,0,0,1,17.93,18.34Q778.95,114.35,783.72,120.4Z" fill="#fbecdb"/><path d="M783.72,120.4v43.79l-445,65.59,435.2-121.12Q778.95,114.35,783.72,120.4Z" fill="#fff4e9"/><path d="M502.89,607h42v42.17l-383-.8s-5-3.31-13.24-9.6A457.13,457.13,0,0,1,100.34,596V309.63l.15-.18h1.6v73.67h38.59V264.55l1.46-1.41h9.37v-.06H206v.06h.05v17.77H206v12.22h.05V310.9H206v12.27h.05v17.77H206V341l5.78-.06V248H273v11.77h0v17.77h0v15.62h0V310.9h0v12.27h0v17.77h0v11.35h0v17.78h0v11.35h0v17.77h0v10.69h0v11.28h0v1.24h69V524.11h25.77v25.62h27.78V505.61h50V385.72h7.82V373.78h1.11v11.94h38.9V373.78h1.12v11.93H503Z" fill="#f8e7d4"/><polygon points="685.9 229.78 685.9 649.5 580.46 649.28 580.46 229.78 685.9 229.78" fill="#f8e7d4"/><path d="M783.72,290.36V632.45q-4.76,8.63-9.82,17.24l-55.8-.12V290.36Z" fill="#f8e7d4"/><path d="M117.37,207.16V612.49c-5.46-5-11.18-10.54-17-16.51V218.75Q108.67,212.5,117.37,207.16Z" fill="#e5bd9e"/><path d="M631.1,60.65,410.27,133.5A266.82,266.82,0,0,1,443.44,96Z" fill="#fff4e9"/><path d="M514.11,137.63a13.19,13.19,0,1,1,13.19,13.19,13.2,13.2,0,0,1-13.19-13.19Z" fill="#fff4e9"/><path d="M792.23,131.78V616.45q-4.11,8-8.51,16-4.14,7.51-8.51,15V110.12q4.35,5,8.51,10.28Q788.09,125.94,792.23,131.78Z" fill="#e5bd9e"/><path d="M838.24,499.14q-4.69,17.14-10.61,34.43c-.51,1.49-1,3-1.56,4.49q-7.35,20.91-16.52,42a71.42,71.42,0,0,1-11.34,2.8c-15.46,2.32-10.68-4-5.36-13.45s22.19-13.64,26-18-4.11-4.35-13.42-.1-10.59,15.6-25.53,22.76-37.42-17.64-37.42-17.64c11.91-.61,28.91-13.54,28.3-17.49s-28.87,6.82-33.7,7.34-15.81-5.49-17.51-24.94,30.18-24.88,30.18-24.88,31.64,23.52,37.81,22.1-23.12-25.4-23.12-25.4c11-5.3,45.28-2,45.28-2s11.41,36.8,17,33.9S815,493,815,493C823.34,492.49,832.92,496.5,838.24,499.14Z" fill="#599dad"/><path d="M827.63,533.57c-.51,1.49-1,3-1.56,4.49-13.47-7.38-39.75-14.55-90.81-16.23C735.26,521.83,796.85,519.46,827.63,533.57Z" fill="#599dad"/><path d="M61.05,549.61q-1.29-1.77-2.55-3.57c-4.71-6.69-9.27-13.66-13.59-20.88.36-13.47-.32-26.71-.32-26.71s45.11-21.69,62.81-20c0,0-28,47.39-18.84,46.25s40.54-49.1,40.54-49.1,46.26-8.57,53.68,18.84-4.57,41.11-11.42,42.83-50.82,1.14-49.68,6.85,30.83,14.85,47.4,9.71c0,0-18.28,45.11-42.26,42.82-21.69-2.06-29.84-14.41-42.18-17.59q-4.77-5.4-9.5-11.18c-.72-.87-1.43-1.74-2.14-2.63q-4.44-5.5-8.77-11.32Z" fill="#6bb7bf"/><path d="M64.23,554c18.86-14.28,49.15-31.4,97.4-50.92-1.31.43-61.06,19.93-100.58,46.58Z" fill="#599dad"/><path d="M850.57,443.35q-2.8,16.74-6.74,33.75c-15.34-.1-32.28-3.65-43.91-8.36-22.66-9.18-11.16-13.93,3.51-22.37C817,438.55,840.33,444.6,850.57,443.35Z" fill="#86d1cd"/><path d="M856,400.59q-.3,3.56-.65,7.14-1.4,14.19-3.61,28.64c-3.78-1.87-9.82-3.54-16.9-4.29-15.92-1.69-26.67,12.56-52.48,10.3S746,388.84,746,388.84c16.51,8.67,49.7,4.8,52-1S753.71,374,746.8,370.9s-16.93-20-3.73-47.53,60.45-9.46,60.45-9.46,23.86,56.86,33.3,59.86-10.9-52.6-10.9-52.6c7.85.68,19.84,6.46,31.23,13A495.77,495.77,0,0,1,856,400.59Z" fill="#86d1cd"/><path d="M763.75,336.54c.87.47,55.32,30,92.2,64q-.3,3.56-.65,7.14C838,389.2,809.59,365.72,763.75,336.54Z" fill="#6bb7bf"/><g id="b524d6c5-b156-4c21-8342-8814866fe12d" data-name="f31c7679-32d8-4f18-94ea-128096e807d8"><rect x="586.42" y="138.32" width="160" height="12.31" fill="#686175" data-primary="true"/><rect x="664.04" y="172.89" width="4.75" height="60.04" fill="#c7c7c7"/><path d="M679.24,230.31H653.56l-1.32,35.89h28.35ZM661,262h-2.67V235.44H661Zm6.72,0h-2.66V235.44h2.66Zm6.72,0h-2.66V235.44h2.66Z" fill="#c7c7c7"/><polygon points="671.55 178.8 661.58 178.8 660.58 141.61 672.55 141.61 671.55 178.8"/><circle cx="666.57" cy="146.46" r="1.62" fill="#686175" data-primary="true"/><rect x="714.31" y="172.89" width="4.75" height="48.32" fill="#c7c7c7"/><path d="M730.29,235.18c0,10.08-6.57,19.35-13.6,19.35s-13.61-9.27-13.61-19.35,8-15.06,13.61-15.06S730.29,225.12,730.29,235.18Z" fill="#c7c7c7"/><polygon points="721.82 178.8 711.85 178.8 710.85 141.61 722.82 141.61 721.82 178.8"/><circle cx="716.84" cy="146.46" r="1.62" fill="#686175" data-primary="true"/><path d="M586.33,193.5v59h36.08V172.74h-7.48V193.5Zm5.1,8.2a2.15,2.15,0,1,1,2.16,2.14h0a2.14,2.14,0,0,1-2.16-2.12Z" fill="#c7c7c7"/><polygon points="613.69 178.8 623.66 178.8 624.66 141.61 612.69 141.61 613.69 178.8"/><circle cx="618.68" cy="146.46" r="1.62" fill="#686175" data-primary="true"/><rect x="637.9" y="88.63" width="77.68" height="49.69" fill="#686175" data-primary="true"/><rect x="637.9" y="88.63" width="77.68" height="49.69" opacity="0.2" style="isolation:isolate"/><path d="M736.17,106.84c-3.87,0-7.45,3.31-11.07,3.31h-9.52v6.65h9.52c3.62,0,7.2,3.33,11.07,3.33,4.58,0,8-2.56,8-6.65S740.75,106.84,736.17,106.84Zm1.05,9.13a2.5,2.5,0,1,1,2.49-2.51h0a2.51,2.51,0,0,1-2.47,2.49Z" fill="#686175" data-primary="true"/><g opacity="0.2"><path d="M736.17,106.84c-3.87,0-7.45,3.31-11.07,3.31h-9.52v6.65h9.52c3.62,0,7.2,3.33,11.07,3.33,4.58,0,8-2.56,8-6.65S740.75,106.84,736.17,106.84Zm1.05,9.13a2.5,2.5,0,1,1,2.49-2.51h0a2.51,2.51,0,0,1-2.47,2.49Z"/></g><path d="M658.85,114.2s-10.23,19.13-12.22,21.73-6.82,2.39-9.81,2.39H612.38c-3,0-7.82.22-9.81-2.39s-12.22-21.73-12.22-21.73Z"/></g><path d="M238.12,513.75c-1.21-6.4,11.52-21,11.52-21,18.56-33.85-1.47-71-1.47-71-8.84-13.26,0-31.21,0-31.21-20,9.74-7.66,26.2-7.66,26.2,8.83,23.87-9.14,53.79-9.14,53.79,1.18-18.69-5-39-5-39-6.48-9.37-13.84,23.84-13.84,23.84-6.19,13.59-38.47,20.76-38.47,20.76-17.55.48-25.76,12.11-25.76,12.11-24.75,37.62,21,63.43,21,63.43,11.53,13.55-13.58,23-13.58,23-22.1,5.89-13.67,32.82-13.67,32.82l125.55,2.93C268.06,595.79,238.12,513.75,238.12,513.75ZM167.44,515s15.79-26.72,34.94-36.55a43.72,43.72,0,0,0,19.72-19.74c.75-1.57,1.42-3.11,2-4.54a.57.57,0,0,1,1.11.22c-.48,9.68-4.26,33.93-29.44,44.23,0,0-22.39,16.65.89,61.83C196.61,560.41,133,502.41,167.44,515Zm47.37,45.45c.74,4.8.53,7.75-.07,9.56a3,3,0,0,1-5.27.79C191,545.73,223.77,496,223.77,496c16.85-19.21,27.93-42.19,27.93-42.19,1.35,13.37-5.2,28.37-9.92,37.18a52.9,52.9,0,0,1-8.11,11.2c-22.27,23.83-18.86,58.24-18.86,58.24Z" fill="#fff" opacity="0.5" style="isolation:isolate"/><path d="M274.6,450.25s1.59,132.4,14.87,196.57h154c1.59,0-45.56-220.59-45.56-220.59l-32.89-11-63.17,17.92S271.94,448.66,274.6,450.25Z" fill="#f48225" data-secondary="true"/><polygon points="600.72 384.01 591.09 407.79 624.91 421.02 635.21 410.59 635.21 401.62 600.72 384.01" fill="#feb0a3"/><path d="M635.21,401.62v9s12.53,2.47,14.94,5.28c0,0,7-24.53,5.83-48.59C656,367.28,656.46,393.05,635.21,401.62Z"/><path d="M582,413.8l18.44,11a61.34,61.34,0,0,0,29.94,8.73h4.82l10.44-21.59s-2.42-.93-10.44-1.33L624.91,421l-33.82-13.24A34.14,34.14,0,0,1,582,413.8Z" fill="#686175" data-primary="true"/><path d="M582,413.8l18.44,11a61.34,61.34,0,0,0,29.94,8.73h4.82l10.44-21.59s-2.42-.93-10.44-1.33L624.91,421l-33.82-13.24A34.14,34.14,0,0,1,582,413.8Z" fill="#fff" opacity="0.5" style="isolation:isolate"/><path d="M551,426.23s21.94-6.41,31-12.43l21,12.43s11.31,7.34,32.17,7.28l10.44-21.59s32.47,16.32,32.87,66.85l6.82,105.48s5.21,52.94,4.41,62.57H564.22l-.8-106.28S563.42,449.5,551,426.23Z" fill="#686175" data-primary="true"/><path d="M551,426.23s21.94-6.41,31-12.43c0,0,24.61,15.07,31.14,16.68,0,0-35.7-3.85-31.08,29.44,0,0,7.17,59,31.76,58.56a51.52,51.52,0,0,1,13.64,3.58,19,19,0,0,0,18.93-2.46,57.32,57.32,0,0,1,14.3-8.46,8.56,8.56,0,0,1,11.41,9.78c-3.3,15.4-13.1,43.08-40.9,43.68,0,0-26.88,2.41-43.32-20.05,0,0-9.62-8.83-8,7.22,0,0,4,40.91,34.09,54.94l-1.6,40.11H564.22l-1-122.78S562.21,445.08,551,426.23Z" fill="#fff" opacity="0.2" style="isolation:isolate"/><ellipse cx="726.25" cy="604.6" rx="42.35" ry="12" transform="translate(-91.85 131.63) rotate(-9.74)" fill="#954e20"/><path d="M311.81,414.46v14l12.3,8.14,29.05-28.9-16-21.31S335.73,412.47,311.81,414.46Z" fill="#feb0a3"/><polygon points="301.85 433.19 311.81 428.46 324.11 436.6 353.16 407.7 365.02 415.27 326.25 455.38 301.85 433.19" fill="#f48225" data-secondary="true"/><polygon points="301.85 433.19 311.81 428.46 324.11 436.6 353.16 407.7 365.02 415.27 326.25 455.38 301.85 433.19" fill="#fff" opacity="0.5" style="isolation:isolate"/><path d="M326.25,455.38l26.23,2.54a10.64,10.64,0,0,1,9.1,7.28L397.91,576" fill="none" stroke="#fff" stroke-miterlimit="10"/><path d="M362.08,631.87l20.55-2.66s-14.57-20.71-10.32-43.54l-19.12,8s-8,3.8-2.65,13.85L355.85,626S358.49,632.33,362.08,631.87Z" fill="#f48225" data-secondary="true"/><path d="M362.08,631.87l20.55-2.66s-14.57-20.71-10.32-43.54l-19.12,8s-8,3.8-2.65,13.85L355.85,626S358.49,632.33,362.08,631.87Z" opacity="0.2" style="isolation:isolate"/><path d="M206.25,533.15s42,97.67,75.28,55.75c0,0-6.2-107.38-6.93-138.65,0,0-16.7,55.65-19.55,84.53l-25.21-31.32S231.87,527.46,206.25,533.15Z" fill="#f48225" data-secondary="true"/><path d="M199.74,518.92l6.51,14.23s24.81-2.85,23.59-29.69L218,488.82S216.42,511.19,199.74,518.92Z" fill="#f48225" data-secondary="true"/><path d="M199.74,518.92l6.51,14.23s24.81-2.85,23.59-29.69L218,488.82S216.42,511.19,199.74,518.92Z" opacity="0.2" style="isolation:isolate"/><path d="M326.25,646.82S290,639.29,294.49,498.58c0,0,35.35,136.25,63.22,148.24Z" opacity="0.2" style="isolation:isolate"/><path d="M351.17,429.61s20.18,6.35,18.56,27.49c0,0,23.15,97,36,115.6l11.75-4.56S355,447.41,397.94,426.23l-32.89-11L353.19,427.5Z" opacity="0.2" style="isolation:isolate"/><path d="M169.24,502.81s.06,10.91,7.13,9.27l2.07-36.72s-10.06-.3-11.59,9.76c0,0-6.4,8,0,13.46C166.85,498.58,168.83,499.33,169.24,502.81Z" fill="#fd8571"/><path d="M186.07,512.25s13.93-13.71,13.67-14.93-10-17.69-10-17.69H178.2l-3.11,11.59L180.58,511Z" fill="#fd8571"/><path d="M199.74,518.92s-2.81-29.07,18.3-30.1C218,488.82,219.07,509.79,199.74,518.92Z" fill="#f48225" data-secondary="true"/><path d="M142.72,610.41H267.54a36.41,36.41,0,0,1-36.41,36.41h-52a36.41,36.41,0,0,1-36.41-36.41Z" fill="#ab6f4e"/><circle cx="302.98" cy="488.25" r="4.54" fill="#fff"/><circle cx="316.35" cy="531.05" r="4.54" fill="#fff"/><circle cx="353.16" cy="476.98" r="4.54" fill="#fff"/><circle cx="366.83" cy="519.5" r="4.54" fill="#fff"/><circle cx="381.67" cy="560.41" r="4.54" fill="#fff"/><circle cx="330.53" cy="572.7" r="4.54" fill="#fff"/><ellipse cx="193.13" cy="538.52" rx="2.28" ry="6.18" transform="translate(-269.59 202.08) rotate(-34.25)" fill="#a5a51f"/><ellipse cx="172.79" cy="582.37" rx="2.28" ry="6.18" transform="translate(-32.54 10.66) rotate(-3.23)" fill="#a5a51f"/><ellipse cx="185.34" cy="567.57" rx="2.28" ry="4.48" transform="translate(-31.69 11.34) rotate(-3.23)" fill="#ead6a9"/><ellipse cx="196.62" cy="594.52" rx="4.48" ry="2.28" transform="translate(-58.57 22.69) rotate(-5.75)" fill="#ead6a9"/><ellipse cx="213.96" cy="582.87" rx="2.28" ry="4.48" transform="translate(-185.95 107.91) rotate(-19.94)" fill="#ead6a9"/><path d="M635.21,410.59V399l-22.06-7.08S613,408.55,635.21,410.59Z" fill="#fd8571"/><ellipse cx="624.9" cy="365.25" rx="30.91" ry="37.98" transform="translate(-46.32 94.39) rotate(-8.33)" fill="#feb0a3"/><path d="M574,352.39s-36.22.05-14.16-26.42a34.39,34.39,0,0,1,.26-13.18,19.63,19.63,0,0,1,22.76-15.21,32.81,32.81,0,0,1,4.25,1.12s-4-16.45,19.65-20.46c0,0,14.31-3.61,18.18,11.63,0,0,11.1-12.43,23.53-3.61,0,0,4,6,0,12,0,0,11.63-5.21,15.64,1.61,0,0,4.57,13.2-11.75,29.86C652.33,329.76,613.81,307.43,574,352.39Z" fill="#686175" data-primary="true"/><path d="M559.81,326s13.52,11.32,14.52,20.08c0,0,1.29-8.85,24.27-22.29,0,0,30.52-17.15,46.9.91a9.48,9.48,0,0,1,6.83,5.09c.92-1,1.87-2,2.83-3.14s1.9-2.33,2.71-3.43a38.78,38.78,0,0,0-10.08-7.89,37.38,37.38,0,0,0-27.79-3.4s-26.7,3.68-18.57-32.45c-.94.2-10.25,2.82-13.39,10.52a16.46,16.46,0,0,0-.93,8.7s8.82,22.05-7.22,20.05c0,0-13.25-2-13.24-16.86C566.62,301.89,557,307.52,559.81,326Z" fill="#fff" opacity="0.2" style="isolation:isolate"/><path d="M577.06,356s1,19.52-7.23,23.52a18.83,18.83,0,0,0-2.83,1.62c-7,5-30.8,25.64-8.87,42.87,0,0,23.53-6.87,33-16.2L600.72,384l-2.19-17.19h0a4.67,4.67,0,0,0,1.88-4.25l-1.61-15.62a157.39,157.39,0,0,0-18.8,8.78A4,4,0,0,1,577.06,356Z"/><path d="M575.33,354.81c-2-2.38-3.51-7,2.52-14.81,0,0,28.39-32.19,61.68-22.29A18.93,18.93,0,0,1,652.69,331c1,4,.64,8.59-3.51,12.37,0,0-4.75-9-20.79-5.38,0,0-20.61,3.05-48.43,17.72A3.73,3.73,0,0,1,575.33,354.81Z" fill="#686175" data-primary="true"/><path d="M575.33,354.81c-2-2.38-3.51-7,2.52-14.81,0,0,28.39-32.19,61.68-22.29A18.93,18.93,0,0,1,652.69,331c1,4,.64,8.59-3.51,12.37,0,0-4.75-9-20.79-5.38,0,0-20.61,3.05-48.43,17.72A3.73,3.73,0,0,1,575.33,354.81Z" opacity="0.2" style="isolation:isolate"/><ellipse cx="595.27" cy="374.57" rx="7.57" ry="10.91" transform="translate(-107.53 347.82) rotate(-30)" fill="#feb0a3"/><path d="M551,426.23s-21.25-.8-28.47,52.14c0,0-9.48,72.5-10,117.35A47.31,47.31,0,0,0,550,642.6a91.55,91.55,0,0,0,23.93,1.81s-7.25-19.38,12-44.92l-22-3.2q.47-31.59-.41-65.13-.48-17.83-1.34-35.09C562,487.37,561.75,447.55,551,426.23Z" fill="#686175" data-primary="true"/><path d="M557.72,447.17s-5.53-9.31-4.73,11.15c0,0,0,18.85-3.82,9.62,0,0-9.42-9.62-4.6,6.42,0,0,9.84,73.42,2.44,99.88a12.62,12.62,0,0,1-11.92,9.07c-7.11.19-17.94,2-11.78,11.77,0,0,2.85,15.24,40.53,1.21,0,0,.13-77.71-1.75-100.22C562.09,496.07,561.33,459.51,557.72,447.17Z" opacity="0.2" style="isolation:isolate"/><path d="M635.21,433.51l18.3,15.77a13.27,13.27,0,0,1,3.92,5.8c3,9.05,10.08,35.35,7.86,80.31,0,0-1.61,84.56,8.42,111.43" fill="none" stroke="#fff" stroke-miterlimit="10"/><polygon points="647.28 610.5 679.55 602.99 679.55 613.54 626.38 625.96 622.11 616.83 647.28 610.5" fill="#954e20"/><path d="M588.11,643s7.58-.1,8.39-4.61c0,0,4.49,7.29,10.24,6.07,0,0,9,5,9.42-6.07,0,0,7.78,4.92,9.83-2,0,0,12.17,3.28,10.43-4a8,8,0,0,0-2.68-4.16,30.08,30.08,0,0,1-5.6-6,4.17,4.17,0,0,1,1.36-5.74,4.35,4.35,0,0,1,1.64-.58c5.27-.8,15.58-3,16.19-8.38,0,0,.41-3.94-7.37-3.12,0,0-6.63.71-10.81-.8A27.3,27.3,0,0,0,619,601.75a43.63,43.63,0,0,0-20.42,5.73s-5.74,4.34-11.26,4.5C587.29,612,572.91,626.53,588.11,643Z" fill="#feb0a3"/><path d="M587.29,612s2.87.06,10-3.61a36.55,36.55,0,0,1,6.82-3.56l-2.68-1.16-14.09,3.46Z" fill="#686175" data-primary="true"/><path d="M587.29,612s2.87.06,10-3.61a36.55,36.55,0,0,1,6.82-3.56l-2.68-1.16-14.09,3.46Z" opacity="0.4" style="isolation:isolate"/><path d="M585.88,599.49l16.44,4.42s-22.46,4.81-19.65,22.86c0,0,0,12,6.82,16l-15.65,1.6S565.82,622.76,585.88,599.49Z" fill="#686175" data-primary="true"/><path d="M585.88,599.49l16.44,4.42s-22.46,4.81-19.65,22.86c0,0,0,12,6.82,16l-15.65,1.6S565.82,622.76,585.88,599.49Z" opacity="0.2" style="isolation:isolate"/><circle cx="600.72" cy="479.63" r="4.54" fill="#fff"/><circle cx="652.78" cy="477.66" r="4.54" fill="#fff"/><circle cx="602.59" cy="519.63" r="4.54" fill="#fff"/><circle cx="654.65" cy="517.66" r="4.54" fill="#fff"/><circle cx="600.33" cy="561.61" r="4.54" fill="#fff"/><circle cx="652.4" cy="559.64" r="4.54" fill="#fff"/><path d="M626,636.3s-5.9-4.3-7.3-14.3" fill="none" stroke="#fd8571" stroke-miterlimit="10"/><path d="M616.16,638.34s-5.17-4.52-6.1-14.64" fill="none" stroke="#fd8571" stroke-miterlimit="10"/><path d="M606.74,644.41a26.58,26.58,0,0,1-4.42-15.28" fill="none" stroke="#fd8571" stroke-miterlimit="10"/><path d="M311.81,423.94v-9.48l22.67-17S335.2,422,311.81,423.94Z" fill="#fd8571"/><path d="M264.26,353.64S215,349.23,243.9,328.37c0,0-11.5-26.2,21.93-25.66,0,0-2.68-11.5,9.62-16.58a22.2,22.2,0,0,1,19.25,7.75s9.09-14.17,23-12c0,0,8.55,2.14,13.9,8.82l.4-.31c12.66-9.52,29.54,5,22,18.9-.45.83-1,1.69-1.52,2.58a33.93,33.93,0,0,1-3.93,5l-9.3,10-2.66-.93s-24.69-2.3-47.25,6.82C289.36,332.8,270.19,337.47,264.26,353.64Z" fill="#f48225" data-secondary="true"/><path d="M264.26,353.64q-2.85-.3-6-.82c-2.15-.35-4.18-.75-6.11-1.18a5.54,5.54,0,0,1-.64-2.88c.3-1.87,1.81-4.61,6.68-8.09,0,0-15.93-9.35-10.85-13.1,0,0,2.34-2.35,10.56,2.64a8.64,8.64,0,0,0,6.92,1,8,8,0,0,0,5.6-9.83,8.32,8.32,0,0,0-1.1-2.38c-2.95-4.75-7.39-13.14-2.42-13.91,0,0,2.65-.07,10.92,10.7a12.91,12.91,0,0,0,6.11,4.48,8.82,8.82,0,0,0,8.1-1s2.85-.82,3.79-5.84a14.29,14.29,0,0,0-.61-7.36c-1-3-2.27-7.92.87-7.92,0,0,1.3-1.07,5.84,7.75,0,0,5.08,12.84,16.31,9.9a14.83,14.83,0,0,0,8.82-12.8s1.27-7,3.43-3.82a4.18,4.18,0,0,1,.63,3c-.58,3.81-1.81,14.55,2.76,15.46a3,3,0,0,0,1.91-.33c3.28-1.72,17.36-9.54,21.55-19.17a27.45,27.45,0,0,1-7,16.89l-11.05,11.9-2.66-.93S279.81,320.63,264.26,353.64Z" fill="#fff" opacity="0.2" style="isolation:isolate"/><ellipse cx="304.92" cy="374.78" rx="31" ry="40.84" transform="translate(-116.27 138.05) rotate(-21.53)" fill="#feb0a3"/><path d="M353.07,380.14c-.87,6.37-5.59,11-10.53,10.29s-8.81-6.9-7.93-13.26,6.21-11.23,11.11-9.78S354,373.78,353.07,380.14Z" fill="#feb0a3"/><path d="M311.81,348.28s2.41,10.84,13.64,9.77c0,0-1.57,16.67,9.64,16.76,0,0,4.64-11.45,13-6.35,0,0,2.22-12-2.06-23.24-5,.06-10.43.3-16.1.78C323.46,346.55,317.41,347.34,311.81,348.28Z"/><path d="M272.4,367.28s-2.83,3.07-6-1.74c0,0-7.61-8,2.67-20.33A40.34,40.34,0,0,1,282.26,335c9.35-4.59,28.63-11.73,54.35-9a6.35,6.35,0,0,1,4.1,2.16c2.55,2.91,6.64,9,5.33,17.08C346,345.22,284.05,345.22,272.4,367.28Z" fill="#f48225" data-secondary="true"/><path d="M417.45,568.14s-63-120.79-19.54-141.91c0,0,12.1.13,29.1,36.77,0,0,56.29,113.11,43.54,131.69,0,0-25.56,30.8-87.92,34.52,0,0-15.1-20.18-10.32-43.54Z" fill="#f48225" data-secondary="true"/><path d="M142,607.48H309.55v6.26H148.25a6.26,6.26,0,0,1-6.26-6.26h0Z" fill="#954e20"/><path d="M348.86,599.49,330,596.38a10.18,10.18,0,0,0-7,1.41l-15.48,9.69s-20.18,1.29-18,7c0,0,0,6.77,15.4,3.58a41.33,41.33,0,0,0-6.79,4.56,4.17,4.17,0,0,0,3.29,7.29,38.3,38.3,0,0,0,7-1.81s-9.21,3.92-6.84,7.83a3,3,0,0,0,2.08,1.34A20.14,20.14,0,0,0,311,637s-4.86,5.23-.49,6.39a5.15,5.15,0,0,0,3.37-.34l29.37-13.18a7.23,7.23,0,0,1,3-.65h11.43a44.61,44.61,0,0,1-3.67-9.53l-3.5-12.2S347.56,602.63,348.86,599.49Z" fill="#feb0a3"/><line x1="307.52" y1="607.48" x2="330.53" y2="602.97" fill="none" stroke="#fd8571" stroke-miterlimit="10"/><line x1="304.87" y1="618.06" x2="320.67" y2="615.31" fill="none" stroke="#fd8571" stroke-miterlimit="10"/><line x1="308.34" y1="628.1" x2="320.67" y2="624.61" fill="none" stroke="#fd8571" stroke-miterlimit="10"/><line x1="311.01" y1="636.99" x2="323.51" y2="633.27" fill="none" stroke="#fd8571" stroke-miterlimit="10"/><path d="M218.05,491.86l-16.61-18.11a9.58,9.58,0,0,0-7.93-3.19l-14.15,1.14s-6.05,1.95-6.18,7.92a6.65,6.65,0,0,1-1,3.21c-.67,1.13-1.5,2.54-2,3.51,0,0-3.36,5.49,2.44,11,0,0,2.44,5.49,2.44,8.24,0,0,0,13.42,8.23,7.32a20.9,20.9,0,0,0-1.87-11.21,20.44,20.44,0,0,1-2.37-10.11c.16-3.79,1-7.8,3.63-8.27,0,0,10.45,1,10.72,10.7,0,0-.65,7.91-4,10.65,0,0-7.93,5.59-4.57,11,0,0,1,1.61,3.42-1A10.77,10.77,0,0,1,195.4,511c3.42-.25,7.25.71,7.53,6.11C203,517.14,216.19,511,218.05,491.86Z" fill="#feb0a3"/><path d="M411.94,637H562.43a9.83,9.83,0,0,1,9.83,9.83H402.11a9.83,9.83,0,0,1,9.83-9.83Z" fill="#c9c9c9"/><path d="M566.26,598.29A103.16,103.16,0,0,1,560.62,612h-89c-1.59-3.25-2.67-6.88.12-7,5.06-.27,7.46,5.07,9.66,3.37s1.43-15.93,7.23-15.93,4.84,4.37,11.6,4.6,16.43-14.27,21.85-12.34,5.22,1.94,7.15,2.4,1.2-13.53,8.24-10.63,2.16,22.73,6.26,23.93,7.5-19.1,12.8-18.13S567.77,592.57,566.26,598.29Z" fill="#a5a51f"/><path d="M508.65,612H421.26c-2.55-4.37-8.5-16.12-1.43-18.87,8.66-3.36,8.66,5.26,13.26,5.18s4.14-17.47,11.87-17,9.67,3.4,12.53,4.37,6.07-12.41,14.54-9.59,5.07,16,8.66,18.6,5.84-11.68,12.1-11.21S498.36,596.28,503,597s9,2.4,9.82,6.76C513.13,605.76,511,609,508.65,612Z" fill="#bcc11d"/><path d="M481.43,612H408.91c-2.19-3.69-7.76-14.24-2.23-16.53,6.76-2.82,9.78,9.78,12,8.91s-4.6-23.64,3.48-22.8,13.26,16.64,18.24,18.1,1.53-9.44,9.16-7.24S465.2,608,470,607.46s5-9,10.24-6.79C483.65,602.13,482.54,608.08,481.43,612Z" fill="#cbd71f"/><path d="M568.62,612H506.06c-.08-4.29.31-11.56,4-9.66,5.07,2.66,8.93,8.11,13,4.64s9.63-19.38,14.85-16.48,5-2.66,13.42-1.93,3.63,9.59,4.6,13.15,5.33-7,10.86-3.41C570.17,600.42,569.82,607.15,568.62,612Z" fill="#cbd71f"/><path d="M408.38,610.41h159.1a4.78,4.78,0,0,1,4.78,4.78h0v3A18.74,18.74,0,0,1,553.52,637H422.36a18.74,18.74,0,0,1-18.75-18.75h0v-3a4.78,4.78,0,0,1,4.77-4.79Z" fill="#eee"/><path d="M343,385.12a.87.87,0,0,1-.31-1.1c3-6.24.16-9.33,0-9.46a.86.86,0,0,1,1.22-1.21c.16.16,3.88,4,.28,11.42a.84.84,0,0,1-1.12.4h0Z" fill="#fd8571"/><path d="M340.7,378.49a.81.81,0,0,1-.36-.49.85.85,0,0,1,.56-1.05h0a4.86,4.86,0,0,1,4.58,1.34.86.86,0,0,1,0,1.21.85.85,0,0,1-1.2,0h0a3.13,3.13,0,0,0-2.9-.9A.88.88,0,0,1,340.7,378.49Z" fill="#fd8571"/><path d="M597.53,379.21a.86.86,0,0,0-.26-1.11c-5.7-4-4.69-8.07-4.65-8.24a.86.86,0,0,0-.6-1.05.85.85,0,0,0-1,.59c-.06.22-1.43,5.41,5.32,10.11a.85.85,0,0,0,1.19-.22Z" fill="#fd8571"/><path d="M596.28,372.32a.86.86,0,0,0,.07-.61.84.84,0,0,0-1-.63,4.89,4.89,0,0,0-3.34,3.4.86.86,0,0,0,.51,1.1.88.88,0,0,0,1.11-.51l0-.12a3.13,3.13,0,0,1,2.09-2.2A.88.88,0,0,0,596.28,372.32Z" fill="#fd8571"/><path d="M303.5,378.46c1.18,1.93,3,3,4.06,2.33s1-2.74-.21-4.67-3-3-4.05-2.34S302.32,376.52,303.5,378.46Z"/><path d="M283.77,390.44c1.18,1.94,3,3,4.06,2.34s1-2.74-.2-4.68-3-3-4.06-2.34S282.6,388.5,283.77,390.44Z"/><path d="M310.83,367.36s-4.17-2.69-8.31-1.48a10.63,10.63,0,0,0-6.46,4.76,1.39,1.39,0,0,0,.35,1.78h0a1.39,1.39,0,0,0,2-.27l0,0C299.86,370,303.52,366.09,310.83,367.36Z"/><path d="M275.34,384.07c.32.5.45,1.23.77,1.73a12.13,12.13,0,0,1,8.58-5.36,1.38,1.38,0,0,0,1.23-1.52s0-.08,0-.12a1.4,1.4,0,0,0-1.41-1.13,10.58,10.58,0,0,0-7.2,3.54A9.2,9.2,0,0,0,275.34,384.07Z"/><path d="M301.06,395.37a1.18,1.18,0,0,0,.57-.89,1.19,1.19,0,0,0-1.06-1.32l-4-.42,2-2.05a1.19,1.19,0,0,0,.25-1.28l-2.91-7.14a1.2,1.2,0,0,0-2.22.91l2.62,6.41-3.16,3.24a1.2,1.2,0,0,0,.73,2l6.43.68A1.16,1.16,0,0,0,301.06,395.37Z" fill="#fd8571"/><path d="M315.17,394.73l-18.63,7.9s3.47,7,11.77,3.77C318.43,402.46,315.17,394.73,315.17,394.73Z" fill="#fff"/><path d="M628.22,367.4c.19,2.26-.66,4.17-1.9,4.28s-2.4-1.64-2.59-3.9.66-4.17,1.9-4.28S628,365.14,628.22,367.4Z"/><path d="M651.22,365.45c.19,2.26-.66,4.18-1.9,4.28s-2.4-1.64-2.59-3.9.66-4.17,1.9-4.28S651,363.19,651.22,365.45Z"/><path d="M615.76,362.75s1.78-4.62,5.84-6.09a10.65,10.65,0,0,1,8,0,1.39,1.39,0,0,1,.77,1.64h0a1.38,1.38,0,0,1-1.71,1l-.11,0C626.15,358.39,620.91,357.43,615.76,362.75Z"/><path d="M654.27,355.34c0,.58.37,1.25.41,1.85a12.12,12.12,0,0,0-10.09.72,1.2,1.2,0,0,1-.58.18,1.35,1.35,0,0,1-1.37-.79,1.37,1.37,0,0,1,.47-1.74,10.67,10.67,0,0,1,7.91-1.39A8.82,8.82,0,0,1,654.27,355.34Z"/><path d="M640.17,379.63a1.22,1.22,0,0,1-1-.39,1.2,1.2,0,0,1,.07-1.68h0l3-2.69-2.81-.48a1.18,1.18,0,0,1-1-.9L636.6,366a1.2,1.2,0,0,1,2.32-.58l1.67,6.72,4.47.76a1.2,1.2,0,0,1,.94.85,1.19,1.19,0,0,1-.34,1.22l-4.79,4.34A1.33,1.33,0,0,1,640.17,379.63Z" fill="#fd8571"/><path d="M631.41,385.55l15.75.73s-.64,6.05-7.58,5.94C631.12,392.08,631.41,385.55,631.41,385.55Z" fill="#fff"/><rect x="145.98" y="646.24" width="636.86" height="6" fill="#954e20"/><path d="M684.51,611.76l55-17.87-6.66-12.5L686,596S676.63,606,684.51,611.76Z" fill="#954e20"/><path d="M798.44,502.44s-10.83-23.27-38.3-20.46c0,0-20.26-4.41-27.07-16.84,0,0-3.92-3.52-9.18-24.22,0,0-13.28-42-40.15-36.74,0,0-20,1-25.87-23,0,0-7.45,27.14,9,30.7,0,0,19.7-2.61,12.7,14.31,0,0-8,33.3,17,35.81,0,0,21.67-1.58,12.37,15.29,0,0-26.17,26.67-12.88,58.06,0,0-14,46.49-6.22,55.81,0,0,23.61-18.2,66.37-17.78,0,0,1.73-1.45.52-5.74,0,0-1.4-6.06,13.64-7.28,0,0-2.18-9.43,4.33-7.35,0,0,10.07,5.76,10.79-2.47,0,0-6.21-25.94,10.19-26.21C795.68,524.37,810.07,515.27,798.44,502.44Zm-71-16.23c.87-19.9-9.25-29.75-14.88-33.67a27.76,27.76,0,0,1-10.31-12.81,31.57,31.57,0,0,1,.33-22.72c4,20.05,16,29,16,29,14.42,17.74,8.87,40.2,8.87,40.2Z" fill="#fff" opacity="0.5" style="isolation:isolate"/><path d="M682.35,607.48s-11.52-6,12.14-19.05c0,0,27.92-16.38,65.65-14.92L762,589.27s-21-7.58-57.8,3.45C704.18,592.72,682.59,598.87,682.35,607.48Z" fill="#ab6f4e"/><path d="M710.16,613.63s-4-8.09,2.53-8.09c0,0-6-12.74,11.2-8,0,0-1.74-12,11.37-13.1a18.72,18.72,0,0,0,9.46-3.64s1.09-4,9.1-5.46c0,0,4.37-1.1,2.91-7.65,0,0-.39-6.55,13.64-7.28,0,0-3.6-11.64,7.21-6.18,0,0,6.82,3.64,7.91-3.64,0,0-5.83-24.39,10.19-26.21,0,0,12.38-5.1,2.91,36.76,0,0-2.67,13.1-4.73,19.66C793.86,580.79,795.35,608.62,710.16,613.63Z" fill="#efe1bf"/><path d="M716.7,613.19s2.18-8.74,13.83-9.11c0,0,8.73.65,15.28-4.59,0,0,3.18-16.66,14.33-17.12,3.15-.13,10.12,2.06,13.73-7,0,0-1.38-8.37,7.85-8a10.44,10.44,0,0,0,5.25-1,7.38,7.38,0,0,0,3.94-6.92,5.37,5.37,0,0,1,1.81-4.3,7.64,7.64,0,0,0,2.69-5.86,33.89,33.89,0,0,1,.74-8.58c.87-3.42,6-2.52,5.72,1-.6,7.49-2.44,21.68-8.12,40.74C793.75,582.37,793.13,607,716.7,613.19Z" fill="#ead6a9"/><path d="M679.55,603v10.56s5.48,13.46,55,5.82c0,0,48.8-7.62,60.34-25.88a4.11,4.11,0,0,0,.57-2.88l-1.58-9.82s2.74,24.93-75.25,32.3c0,0-35.3,3.48-36.26-5.61A6.07,6.07,0,0,1,679.55,603Z" fill="#ab6f4e"/><path d="M666.85,433.54s12.61,17,20.63,51.52l18.72,44.31s28.87-38.82,36.49-47.92c0,0,14,21.79,27.68,23.79,0,0-40.11,90.64-69,75.4,0,0-10.09-5.58-17.08-12.41l-5.78-89.46S677.05,448.44,666.85,433.54Z" fill="#686175" data-primary="true"/><path d="M767.91,446c-4.74-7.45,2.46-8.47,2.46-8.47-11.08-11.84-3.48-10.83-3.48-10.83l-5.08-6c-2.53-3.53-1.43-5.24.3-6.07a5.93,5.93,0,0,1,6.17.83l12.82,10c3.39,1.16,1.7,8,1.7,8,7.1,3.08,4.73,10.79,4.73,10.79,2.71,5.08,2.06,7.79,2.06,7.79,4.09,7.44,0,9.81,0,9.81.67,8.46-12,27.7-12,27.7l-24.86-21.25s-3.42-14.18-.37-27a14.32,14.32,0,0,0,.37-3.39v-10.2a2.23,2.23,0,0,1,2.28-2.19,2.2,2.2,0,0,1,1.72.85c1.55,2.1,3,6.24,3.34,14.31a4.38,4.38,0,0,0,2.28,3.7A15,15,0,0,0,767.91,446Z" fill="#feb0a3"/><line x1="766.89" y1="426.7" x2="782.8" y2="433.51" fill="none" stroke="#fd8571" stroke-miterlimit="10"/><path d="M770.37,437.53s10.06,6.1,17.16,6.77" fill="none" stroke="#fd8571" stroke-miterlimit="10"/><path d="M767.91,446s11.89,7.78,21.68,6.09" fill="none" stroke="#fd8571" stroke-miterlimit="10"/><path d="M777,450.43s-5.54,2.88-2,7.77a8.9,8.9,0,0,0,5.66,3.41,35.76,35.76,0,0,0,8.83.29" fill="none" stroke="#fd8571" stroke-miterlimit="10"/><path d="M752.72,468.35l-10,13.1S757.56,504,770.4,505.24l7.21-15.64Z" fill="#686175" data-primary="true"/><path d="M752.72,468.35l-10,13.1S757.56,504,770.4,505.24l7.21-15.64Z" opacity="0.2" style="isolation:isolate"/></svg>