<svg id="a095f30e-1999-4380-b055-a95c42c62cf9" data-name="Layer 1" xmlns="http://www.w3.org/2000/svg" width="865.76" height="682.89" viewBox="0 0 865.76 682.89"><path d="M99.59,387.44H215.78a7.28,7.28,0,0,1,7.28,7.28v85a4.68,4.68,0,0,1-4.68,4.68H96.91a4.68,4.68,0,0,1-4.68-4.68V394.79A7.35,7.35,0,0,1,99.59,387.44Z" fill="#ccc"/><path d="M98.41,387.44H216.88a6.18,6.18,0,0,1,6.18,6.18v5a0,0,0,0,1,0,0H92.23a0,0,0,0,1,0,0v-5A6.18,6.18,0,0,1,98.41,387.44Z" fill="#231f20" opacity="0.2"/><circle cx="102.03" cy="393.75" r="1.76" fill="#ccc"/><circle cx="107.02" cy="393.75" r="1.76" fill="#ccc"/><circle cx="112.01" cy="393.75" r="1.76" fill="#ccc"/><rect x="107.02" y="414.49" width="22.21" height="22.21" fill="#231f20" opacity="0.2"/><rect x="107.02" y="440.6" width="22.21" height="22.21" fill="#231f20" opacity="0.2"/><rect x="135.54" y="417.52" width="24.97" height="3.78" fill="#231f20" opacity="0.2"/><rect x="135.54" y="423.7" width="68.47" height="3.78" fill="#231f20" opacity="0.2"/><rect x="135.54" y="429.89" width="48.59" height="3.78" fill="#231f20" opacity="0.2"/><rect x="135.54" y="444.47" width="24.97" height="3.78" fill="#231f20" opacity="0.2"/><rect x="135.54" y="450.66" width="68.47" height="3.78" fill="#231f20" opacity="0.2"/><rect x="135.54" y="456.84" width="47.14" height="3.78" fill="#231f20" opacity="0.2"/><path d="M98.44,37.33H214.63a7.28,7.28,0,0,1,7.28,7.28v85a4.68,4.68,0,0,1-4.68,4.68H95.76a4.68,4.68,0,0,1-4.68-4.68V44.69A7.35,7.35,0,0,1,98.44,37.33Z" fill="#ccc"/><path d="M97.26,37.33H215.73a6.18,6.18,0,0,1,6.18,6.18v5a0,0,0,0,1,0,0H91.09a0,0,0,0,1,0,0v-5A6.18,6.18,0,0,1,97.26,37.33Z" fill="#231f20" opacity="0.2"/><circle cx="108.76" cy="43.65" r="1.76" fill="#ccc"/><circle cx="113.75" cy="43.65" r="1.76" fill="#ccc"/><circle cx="118.74" cy="43.65" r="1.76" fill="#ccc"/><rect x="104.57" y="56.89" width="101.74" height="61.24" rx="5.57" fill="#231f20" opacity="0.2"/><path d="M149.42,81.65V96.74a2,2,0,0,0,3,1.71l12.46-7.55a2,2,0,0,0,0-3.42l-12.46-7.54A2,2,0,0,0,149.42,81.65Z" fill="#ccc"/><path d="M257.31,160.23H507.69a11.07,11.07,0,0,1,11.07,11.07V346.67a11.57,11.57,0,0,1-11.57,11.57H257.74a11.57,11.57,0,0,1-11.57-11.57V171.38A11.14,11.14,0,0,1,257.31,160.23Z" fill="#f48225" data-secondary="true"/><path d="M257.31,160.23H507.69a11.07,11.07,0,0,1,11.07,11.07v12.88a0,0,0,0,1,0,0H246.17a0,0,0,0,1,0,0V171.38A11.14,11.14,0,0,1,257.31,160.23Z" fill="#231f20" opacity="0.2"/><path d="M545.25,36.4H661.44a7.28,7.28,0,0,1,7.28,7.28v85a4.68,4.68,0,0,1-4.68,4.68H542.57a4.68,4.68,0,0,1-4.68-4.68V43.76A7.35,7.35,0,0,1,545.25,36.4Z" fill="#ccc"/><path d="M544.07,36.4H662.54a6.18,6.18,0,0,1,6.18,6.18v5a0,0,0,0,1,0,0H537.89a0,0,0,0,1,0,0v-5A6.18,6.18,0,0,1,544.07,36.4Z" fill="#231f20" opacity="0.2"/><rect x="269.48" y="206.84" width="43.4" height="119.1" fill="#231f20" opacity="0.2"/><g opacity="0.2"><rect x="320.59" y="206.52" width="173.58" height="5.79" fill="#231f20"/><rect x="320.59" y="216.17" width="173.58" height="5.79" fill="#231f20"/><rect x="320.59" y="226.93" width="173.58" height="5.79" fill="#231f20"/><rect x="320.59" y="236.58" width="173.58" height="5.79" fill="#231f20"/><rect x="320.59" y="247.35" width="173.58" height="5.79" fill="#231f20"/><rect x="320.59" y="256.99" width="173.58" height="5.79" fill="#231f20"/><rect x="320.59" y="267.76" width="173.58" height="5.79" fill="#231f20"/><rect x="320.59" y="277.4" width="173.58" height="5.79" fill="#231f20"/><rect x="320.59" y="288.17" width="173.58" height="5.79" fill="#231f20"/><rect x="320.59" y="297.81" width="173.58" height="5.79" fill="#231f20"/><rect x="320.59" y="308.58" width="173.58" height="5.79" fill="#231f20"/><rect x="320.59" y="318.23" width="173.58" height="5.79" fill="#231f20"/></g><circle cx="447.84" cy="249.56" r="27.36" fill="#f48225" data-secondary="true"/><circle cx="447.33" cy="249.56" r="20.15" opacity="0.2"/><circle cx="447.04" cy="249.8" r="12.66" fill="#231f20" opacity="0.2"/><circle cx="447.4" cy="249.03" r="6.75" opacity="0.2"/><rect x="433.88" y="217.2" width="1.12" height="37.9" transform="translate(-39.74 376.36) rotate(-45)" fill="#f48225" data-secondary="true"/><polygon points="420.46 227.03 425.14 226.85 425.14 222.19 420.48 217.13 420.48 221.99 415.79 222.64 420.46 227.03" fill="#f48225" data-secondary="true"/><polygon points="420.46 227.03 425.14 226.85 425.14 222.19 420.48 217.13 420.48 221.99 415.79 222.64 420.46 227.03" fill="#fff" opacity="0.2"/><circle cx="277.31" cy="171.28" r="3.5" fill="#ccc"/><circle cx="287.68" cy="171.28" r="3.5" fill="#ccc"/><circle cx="297.93" cy="171.28" r="3.5" fill="#ccc"/><path d="M256,156.37l-7.85-7.85a8.3,8.3,0,0,0-10-1.3l-3.16-3.93a8.3,8.3,0,0,0-1.56-9.54l-7.86-7.85a8.29,8.29,0,1,0-11.73,11.73l7.86,7.85a8.27,8.27,0,0,0,9.16,1.74l3.71,4.23a8.31,8.31,0,0,0,1.89,8.8l7.85,7.85A8.29,8.29,0,1,0,256,156.37ZM230.88,143.1a3.63,3.63,0,0,1-5.14,0l-8.3-8.3a3.63,3.63,0,0,1,5.14-5.14l8.3,8.3A3.63,3.63,0,0,1,230.88,143.1Zm22,22a3.63,3.63,0,0,1-5.14,0l-8.3-8.3a3.63,3.63,0,0,1,0-5.14h0a3.63,3.63,0,0,1,5.14,0l8.3,8.3A3.63,3.63,0,0,1,252.89,165.11Z" fill="#939598"/><path d="M545.48,125.41a8.3,8.3,0,0,0-11.73.28l-7.66,8a8.31,8.31,0,0,0-1.53,9.21l-4.14,3.8a8.3,8.3,0,0,0-8.75,2.1l-7.66,8a8.29,8.29,0,1,0,12,11.45l7.66-8a8.29,8.29,0,0,0,1.06-10.07l3.86-3.25a8.29,8.29,0,0,0,9.5-1.79l7.66-8A8.3,8.3,0,0,0,545.48,125.41Zm-25,31.42-8.11,8.5a3.63,3.63,0,0,1-5.13.12h0a3.63,3.63,0,0,1-.12-5.14l8.1-8.49a3.63,3.63,0,0,1,5.26,5Zm21.49-22.52-8.11,8.5a3.63,3.63,0,1,1-5.25-5l8.1-8.49a3.63,3.63,0,1,1,5.26,5Z" fill="#939598"/><path d="M255.46,352.65a8.29,8.29,0,0,0-11.72.27l-7.67,8A8.27,8.27,0,0,0,235,371l-3.86,3.25a8.3,8.3,0,0,0-9.49,1.79l-7.67,8a8.29,8.29,0,0,0,12,11.45l7.67-8a8.27,8.27,0,0,0,1.52-9.2l4.14-3.81a8.29,8.29,0,0,0,8.75-2.09l7.67-8A8.28,8.28,0,0,0,255.46,352.65Zm-24.28,30.8-8.11,8.49a3.63,3.63,0,0,1-5.26-5l8.11-8.5a3.64,3.64,0,1,1,5.26,5Zm21.49-22.52-8.11,8.49a3.64,3.64,0,0,1-5.26-5l8.11-8.49a3.64,3.64,0,1,1,5.26,5Z" fill="#939598"/><rect x="551.07" y="56.4" width="105.11" height="24.59" fill="#231f20" opacity="0.2"/><circle cx="551.07" cy="42.72" r="1.76" fill="#ccc"/><circle cx="556.05" cy="42.72" r="1.76" fill="#ccc"/><circle cx="561.04" cy="42.72" r="1.76" fill="#ccc"/><rect x="551.07" y="84.86" width="105.11" height="4.12" fill="#231f20" opacity="0.2"/><rect x="551.07" y="92.83" width="105.11" height="4.12" fill="#231f20" opacity="0.2"/><rect x="551.07" y="100.81" width="105.11" height="4.12" fill="#231f20" opacity="0.2"/><rect x="551.07" y="108.78" width="105.11" height="4.12" fill="#231f20" opacity="0.2"/><rect x="551.07" y="116.76" width="105.11" height="4.12" fill="#231f20" opacity="0.2"/><path d="M545.57,392.64H661.75a7.28,7.28,0,0,1,7.28,7.28v85a4.68,4.68,0,0,1-4.68,4.68H542.89a4.68,4.68,0,0,1-4.68-4.68V400A7.35,7.35,0,0,1,545.57,392.64Z" fill="#ccc"/><path d="M545.6,392.64H661.87a7.17,7.17,0,0,1,7.17,7.17v4a0,0,0,0,1,0,0H538.21a0,0,0,0,1,0,0V400A7.39,7.39,0,0,1,545.6,392.64Z" fill="#231f20" opacity="0.2"/><circle cx="548.01" cy="398.96" r="1.76" fill="#ccc"/><circle cx="553" cy="398.96" r="1.76" fill="#ccc"/><circle cx="557.99" cy="398.96" r="1.76" fill="#ccc"/><rect x="548.01" y="417.07" width="111.55" height="3.86" fill="#231f20" opacity="0.2"/><rect x="548.01" y="426.72" width="31.19" height="21.22" fill="#231f20" opacity="0.2"/><rect x="588.19" y="426.72" width="31.19" height="21.22" fill="#231f20" opacity="0.2"/><rect x="628.37" y="426.72" width="31.19" height="21.22" fill="#231f20" opacity="0.2"/><rect x="548.01" y="451.55" width="31.19" height="2.17" fill="#231f20" opacity="0.2"/><rect x="548.01" y="456.13" width="31.19" height="2.17" fill="#231f20" opacity="0.2"/><rect x="548.01" y="460.71" width="31.19" height="2.17" fill="#231f20" opacity="0.2"/><rect x="548.01" y="465.29" width="31.19" height="2.17" fill="#231f20" opacity="0.2"/><rect x="548.01" y="469.87" width="31.19" height="2.17" fill="#231f20" opacity="0.2"/><rect x="548.01" y="474.45" width="31.19" height="2.17" fill="#231f20" opacity="0.2"/><rect x="588.03" y="451.55" width="31.19" height="2.17" fill="#231f20" opacity="0.2"/><rect x="588.03" y="456.13" width="31.19" height="2.17" fill="#231f20" opacity="0.2"/><rect x="588.03" y="460.71" width="31.19" height="2.17" fill="#231f20" opacity="0.2"/><rect x="588.03" y="465.29" width="31.19" height="2.17" fill="#231f20" opacity="0.2"/><rect x="588.03" y="469.87" width="31.19" height="2.17" fill="#231f20" opacity="0.2"/><rect x="588.03" y="474.45" width="31.19" height="2.17" fill="#231f20" opacity="0.2"/><rect x="628.37" y="451.55" width="31.19" height="2.17" fill="#231f20" opacity="0.2"/><rect x="628.37" y="456.13" width="31.19" height="2.17" fill="#231f20" opacity="0.2"/><rect x="628.37" y="460.71" width="31.19" height="2.17" fill="#231f20" opacity="0.2"/><rect x="628.37" y="465.29" width="31.19" height="2.17" fill="#231f20" opacity="0.2"/><rect x="628.37" y="469.87" width="31.19" height="2.17" fill="#231f20" opacity="0.2"/><rect x="628.37" y="474.45" width="31.19" height="2.17" fill="#231f20" opacity="0.2"/><path d="M330.69,646.23c6.66-8.22,18.56-22.72,22.66-26.52a135.61,135.61,0,0,0,11.11-12s-7,13.65,5,24.41,47.6,2.49,55.46-3.3,8.69-20.69,1.67-42.63-17-62.48-16.57-76.56-8.69-53.81-12.83-64.57-21.1-18.62-38.49-22.34-64.15,15.72-64.15,15.72L285,442.16s-38.88,21.52-49.25,30.21-5.39,32.7-7.86,55.88-2.48,50.08-2.48,50.08-24,21.11-41.39,45.1c-8.34,11.55-13.18,18.59-15.93,22.8Z" fill="#686175" data-primary="true"/><path d="M416,601.39s-13.89-3.26-28.44,6.5S377,632.28,390,635.52s30.08,3.25,39-10.56S422.55,600.58,416,601.39Z" fill="#231f20" opacity="0.2"/><path d="M419.5,601.27a30.55,30.55,0,0,0-22.22,5.08c-11.41,7.61-8.25,19,1.9,21.58s23.48,2.54,30.47-8.25S424.56,600.64,419.5,601.27Z" fill="#f9b499"/><g opacity="0.2"><path d="M387.93,508.75l-1.12-.07c.49-8.1.74-12.74.74-13.13h1.13C388.68,496,388.38,501.35,387.93,508.75Z" fill="#231f20"/></g><g opacity="0.2"><path d="M364.92,608.12l-.79-.81c.15-.14,14.8-14.55,17.21-30.73,1.71-11.33,4-44.47,4.84-58.2l1.12.07c-1.1,17.07-3.19,47.33-4.85,58.3C380,593.31,365.07,608,364.92,608.12Z" fill="#231f20"/></g><g opacity="0.2"><path d="M384,579.52l-.85-.74c10.48-12,17.37-29.55,21.3-42.19l1.07.34C401.55,549.67,394.6,567.4,384,579.52Z" fill="#231f20"/></g><g opacity="0.2"><path d="M407.11,531.48l-1.08-.3c1.21-4.37,1.8-7.16,1.81-7.19l1.1.24S408.34,527.07,407.11,531.48Z" fill="#231f20"/></g><g opacity="0.2"><path d="M381.78,592.88l-.57-1a100.93,100.93,0,0,0,25.45-21l.85.74A102.14,102.14,0,0,1,381.78,592.88Z" fill="#231f20"/></g><g opacity="0.2"><path d="M409.68,569.13l-.86-.73a71.16,71.16,0,0,0,4.89-6.53l.94.62A73.56,73.56,0,0,1,409.68,569.13Z" fill="#231f20"/></g><g opacity="0.2"><path d="M367.37,627.08c-1.22-1.72-2.19-6.87-.38-12.48,1.72-5.32,6.46-12.59,19.28-17a68.6,68.6,0,0,1,42.57-.82l-.33,1.08a67.44,67.44,0,0,0-41.88.81c-12.38,4.21-16.93,11.15-18.57,16.23-1.73,5.36-.69,10.19.23,11.47Z" fill="#231f20"/></g><path d="M365.86,309s0-4.87-6.71-15.27-40.85-6.1-52.43,5.48,4.88,26.22-2.44,34.71-31.7,4.27-39.63,19.51,12.19,22.55,16.47,28-7.32,7.31-6.1,12.8,20.11,6.09,20.11,6.09-12.19,3.67-6.1,8.54A45.35,45.35,0,0,0,318.3,418c12.19-.61,9.14-24.39,7.93-42.07s14.62-37.18,32.92-35.36,37.8,22.56,34.71,31.71,4.88-1.83,21.35-12.21,9.15-31.69,5.55-36-15.84-5.48-18.29-13.41-7.92-15.84-18.28-15.84S376.22,308.35,365.86,309Z" fill="#2f2e41"/><path d="M313.65,418.57s-7.86,2.07-11.11,6.22-16.66,11.62-17.48,17.37,4.17,35.6,14.07,47.6S314,502.59,314,502.59s2.9-11.58,5-12.42,21.1,11.11,21.1,11.11,3.31-19.44,5.39-19.44,8.68,6.63,8.68,6.63,2.48-16.57.83-29.4-12.41-28.55-20.27-33.93S320.59,414.85,313.65,418.57Z" fill="#686175" data-primary="true"/><path d="M313.65,418.57s-7.86,2.07-11.11,6.22-16.66,11.62-17.48,17.37,4.17,35.6,14.07,47.6S314,502.59,314,502.59s2.9-11.58,5-12.42,21.1,11.11,21.1,11.11,3.31-19.44,5.39-19.44,8.68,6.63,8.68,6.63,2.48-16.57.83-29.4-12.41-28.55-20.27-33.93S320.59,414.85,313.65,418.57Z" fill="#231f20" opacity="0.2"/><path d="M317.69,402.85l-15.27,36.57s3.93,17,9.09,28c7,14.9,24.44,22,24.44,22a56.38,56.38,0,0,1,5.48-25,136,136,0,0,1,12.2-20.12S326.23,417.49,317.69,402.85Z" fill="#f9b499"/><path d="M321.63,416.72s7,40.09,17,52.61l9.51-18.05-25-39.08Z" fill="#f7a88f"/><path d="M315.68,535.7S340.1,472,343.45,468.24s10.76-10.35,14.08-14.9,12.41-16.14,15.73-16.14,11.11,2.89,14.9,3.72,6.2,2.07,6.61,8.34-5,6.62-5,6.62l-2.07-2.49s-14.9,22.36-19.44,25.25a38.8,38.8,0,0,1-8.69,4.16l-19.87,74.09Z" fill="#f9b499"/><path d="M285.17,494.09a110.38,110.38,0,0,1,11.89,35.35c2.9,19.87,2.48,23.61,2.48,23.61L314,535.68s23.6,16.55,27.31,21.92,4.16,7,4.16,7,0,32.28-13.66,51.74-20.29,19.44-33.52,19.44S268.11,623.39,259,602.7s-16.57-50.86-18.22-53.82-7-19.44-7-19.44" fill="#686175" data-primary="true"/><g opacity="0.2"><path d="M276.36,582l-.81-.79c1-1,2.26-2.5,3.72-4.23l.47.32.39.41C278.65,579.48,277.37,581,276.36,582Z" fill="#231f20"/></g><g opacity="0.2"><path d="M285.3,571.52l-.87-.71c6.86-8.3,14.6-18,14.67-18.11l.88.7C299.91,553.49,292.17,563.22,285.3,571.52Z" fill="#231f20"/></g><path d="M301.61,551a107.81,107.81,0,0,1,25.66,11.17c14.07,8.33,15.28,17.39,19.44,14.08s7.44-13.66,3.31-19.44-17-19.44-26.07-23.6-12.83-1.67-15.73,4.55S298.71,547.28,301.61,551Z" fill="#686175" data-primary="true"/><path d="M301.61,551a107.81,107.81,0,0,1,25.66,11.17c14.07,8.33,15.28,17.39,19.44,14.08s7.44-13.66,3.31-19.44-17-19.44-26.07-23.6-12.83-1.67-15.73,4.55S298.71,547.28,301.61,551Z" fill="#231f20" opacity="0.2"/><g opacity="0.2"><path d="M302.39,596.69a48.49,48.49,0,0,1-1.8-11.79l1.13,0a46.68,46.68,0,0,0,1.75,11.51Z" fill="#231f20"/></g><g opacity="0.2"><path d="M300.27,577.83c-.2-12.81.77-26.73.78-26.86l1.12.07c0,.14-1,14-.77,26.77Z" fill="#231f20"/></g><g opacity="0.2"><path d="M321.39,581.46c-3.31-7-6.15-22.65-6.27-23.31l1.11-.2c0,.16,2.93,16.15,6.18,23Z" fill="#231f20"/></g><path d="M413.78,598.19S399.7,623,401.77,626s48,0,48,0l2.47-9.93s9.53,3.72,17,3.72,1.66-2.07-.83-4.55-17-11.58-18.22-12.42S424.94,595.7,413.78,598.19Z" fill="#f9b499"/><path d="M443.75,595.33s6.66-2,8.43,2.22.89,22.21.22,26.82-3.76,4.43-5.09,0S442.87,596,442.87,596Z" fill="#fff" stroke="#263238" stroke-miterlimit="10"/><path d="M429.79,597.33s10-6.88,12.87-3.34,5.55,31.5,6.43,33.49-3.78,3.55-5.56,1.55-6.87-12.2-8.41-16S429.79,597.33,429.79,597.33Z" fill="#f9b499"/><path d="M410.05,604.87s5.56-10.21,10.21-13.08,9.72,2.43,12.19,6.42,4.43,14.42,5.56,19.51,4.16,10.86,2.44,11.53-8.65-5.1-10.65-8.19S422.93,606,422.93,606" fill="#f9b499"/><path d="M419.18,624.15s-8-7.76-10.65-10.2-6.43-3.54-9.08-.66-4,6.43,0,10.2,13.49,8.7,19.73,8.7,5.09-3.11,3.54-4.87A20.12,20.12,0,0,0,419.18,624.15Z" fill="#f9b499"/><rect x="340.16" y="637.77" width="290.96" height="8.32" fill="#ccc"/><rect x="340.16" y="637.77" width="290.96" height="8.32" fill="#231f20" opacity="0.2"/><rect x="340.16" y="637.77" width="102.14" height="8.32" fill="#bcbec0"/><path d="M434.06,637.75H623L633.9,512.1a9.75,9.75,0,0,0-9.9-10.84H456.75A12.05,12.05,0,0,0,445,512.1Z" fill="#bcbec0"/><path d="M437.69,637.75H626.61L637.52,512.1a9.79,9.79,0,0,0-8.67-10.79,10.12,10.12,0,0,0-1.23-.05H460.37A12.06,12.06,0,0,0,448.6,512.1Z" fill="#ccc"/><path d="M533.41,565.54a13.17,13.17,0,0,1,12.87-11.84,10.69,10.69,0,0,1,10.88,10.5,9.94,9.94,0,0,1-.06,1.34,13.18,13.18,0,0,1-12.87,11.85,10.69,10.69,0,0,1-10.88-10.51A10.09,10.09,0,0,1,533.41,565.54Z" fill="#bcbec0"/><g id="eb7d47ff-54ff-4be1-ba92-b7c4c7d7bc38" data-name="freepik--Table--inject-1278"><rect x="124.01" y="645.09" width="650.67" height="2" fill="#bcbec0"/></g><rect x="320.59" y="236.42" width="64.61" height="37.13" fill="#f48225" data-secondary="true"/><path d="M369.67,246.9h-7.84a8.08,8.08,0,0,0-7.93,6.46h-2.53a8.08,8.08,0,0,0-7.92-6.46H335.6a8.08,8.08,0,0,0,0,16.16h7.85a8.08,8.08,0,0,0,7.66-5.53h3.05a8.08,8.08,0,0,0,7.67,5.53h7.84a8.08,8.08,0,1,0,0-16.16ZM345,258.06H334.05a3.08,3.08,0,1,1,0-6.16H345a3.08,3.08,0,1,1,0,6.16Zm26.23,0h-11a3.08,3.08,0,1,1,0-6.16h11a3.08,3.08,0,1,1,0,6.16Z" fill="#231f20" opacity="0.2"/><path d="M546.19,383.11l-8-7.67a8.29,8.29,0,0,0-9.21-1.52l-3.8-4.14a8.29,8.29,0,0,0-2.1-8.75l-8-7.67a8.29,8.29,0,1,0-11.45,12l8,7.67a8.29,8.29,0,0,0,10.07,1.06l3.25,3.86a8.28,8.28,0,0,0,1.79,9.49l8,7.67a8.29,8.29,0,1,0,11.45-12Zm-26-13.43a3.63,3.63,0,0,1-5.13.12l-8.5-8.11a3.64,3.64,0,1,1,5-5.26l8.49,8.11A3.63,3.63,0,0,1,520.18,369.68Zm22.52,21.49a3.63,3.63,0,0,1-5.13.12l-8.5-8.11a3.64,3.64,0,1,1,5-5.26l8.49,8.11A3.63,3.63,0,0,1,542.7,391.17Z" fill="#939598"/><path d="M689.53,574.33s-7.54-8.22-15.07-6.86-11,10.3-11,15.79S671,606.58,671,606.58s5.48-6.16,17.84-15.07S701.89,573.64,689.53,574.33Z" fill="#bcbec0"/><path d="M673.44,591.29a.49.49,0,0,1-.23-.06.5.5,0,0,1-.22-.68,38.06,38.06,0,0,1,15.27-16,.51.51,0,0,1,.5.88A37.09,37.09,0,0,0,673.9,591,.54.54,0,0,1,673.44,591.29Z" fill="#d1d3d4"/><path d="M701.83,564.67s6.28-6.76,12.45-5.62,9,8.5,9,13S717,591.29,717,591.29a99.27,99.27,0,0,0-14.66-12.49C692.2,571.43,691.65,564.08,701.83,564.67Z" fill="#bcbec0"/><path d="M715.71,579a.5.5,0,0,1-.45-.28,30.39,30.39,0,0,0-12.19-12.82.51.51,0,1,1,.5-.89,31.51,31.51,0,0,1,12.6,13.25.53.53,0,0,1-.23.69A.59.59,0,0,1,715.71,579Z" fill="#d1d3d4"/><path d="M706.65,542.14a.5.5,0,0,0-.13-.7.51.51,0,0,0-.71.13l-7.43,10.87v-6.21a.51.51,0,0,0-1,0v7.7l-1,1.47a.5.5,0,0,0,.14.7.47.47,0,0,0,.28.09.51.51,0,0,0,.42-.22l.17-.24V600.4a.51.51,0,0,0,1,0V584.84a.67.67,0,0,0,.12-.16l5.08-14.54a.5.5,0,0,0-.31-.65.52.52,0,0,0-.65.31l-4.24,12.14v-27.7Z" fill="#d1d3d4"/><path d="M695.19,551.68s-.15-9.2-5.56-12.47-12.38.34-15.39,3.76-8.13,18.48-8.13,18.48,6.75-.82,19.25.44S703.18,558,695.19,551.68Z" fill="#bcbec0"/><path d="M676,553.67a.51.51,0,0,1-.47-.32.5.5,0,0,1,.28-.66,31.48,31.48,0,0,1,18.23-1.51.51.51,0,1,1-.21,1,30.57,30.57,0,0,0-17.64,1.46A.43.43,0,0,1,676,553.67Z" fill="#d1d3d4"/><path d="M703.32,539.34s.11-6.76,4.09-9.18,9.13.26,11.3,2.74,6,13.63,6,13.63a72.16,72.16,0,0,0-14.17.32C701.35,547.77,697.5,544,703.32,539.34Z" fill="#bcbec0"/><path d="M718.1,541a.58.58,0,0,1-.19,0A22.26,22.26,0,0,0,705,539.84a.51.51,0,1,1-.21-1A23.29,23.29,0,0,1,718.28,540a.51.51,0,0,1-.18,1Z" fill="#d1d3d4"/><polygon points="720.97 595.76 672.24 595.76 677.17 646.49 716.04 646.49 720.97 595.76" fill="#ccc"/><path d="M708.05,617.86a2.19,2.19,0,1,0,2.19-2.19h0a2.18,2.18,0,0,0-2.19,2.16Z" opacity="0.2"/><path d="M700,617.86a2.19,2.19,0,1,0,2.19-2.19h0a2.18,2.18,0,0,0-2.19,2.16Z" opacity="0.2"/><polygon points="673.86 612.4 719.35 612.4 719.57 610.22 673.64 610.22 673.86 612.4" opacity="0.2"/><polygon points="717.41 632.4 718.32 622.95 674.88 622.95 675.8 632.4 717.41 632.4" opacity="0.2"/><path d="M716.05,617.86a2.17,2.17,0,0,0,2.17,2.17h.39l.4-4.17a2.51,2.51,0,0,0-.77-.15A2.19,2.19,0,0,0,716.05,617.86Z" opacity="0.2"/><path d="M692.05,617.86a2.19,2.19,0,1,0,2.19-2.19h0a2.18,2.18,0,0,0-2.19,2.16Z" opacity="0.2"/><path d="M676.05,617.86a2.19,2.19,0,1,0,2.19-2.19h0a2.18,2.18,0,0,0-2.19,2.16Z" opacity="0.2"/><path d="M684.05,617.86a2.19,2.19,0,1,0,2.19-2.19h0a2.18,2.18,0,0,0-2.19,2.16Z" opacity="0.2"/><ellipse cx="362.91" cy="398.11" rx="60.18" ry="42.63" transform="translate(-54.66 738.46) rotate(-86.83)" fill="#f9b499"/><path d="M319.37,394.27s1.93-6.75,10.61-10.61,14-10.61,11.11-16.88-1.39-12.5,11.11-15.91,15.91,9.16,28,7.23,15.43-6.75,21.69-3.86,3.37,11.11,3.37,11.11,7.72-14-7.22-29.9-51.11-21.7-76.19-3.37-10.6,61.23-10.6,61.23S312.62,395.23,319.37,394.27Z" fill="#2f2e41"/><ellipse cx="319.64" cy="397.2" rx="8.38" ry="13.73" transform="translate(-50.04 46.1) rotate(-7.65)" fill="#f9b499"/></svg>