<svg id="edc7fad5-20a0-4516-b662-2d7f4580ebbd" data-name="Layer 1" xmlns="http://www.w3.org/2000/svg" xmlns:xlink="http://www.w3.org/1999/xlink" width="865.76" height="682.89" viewBox="0 0 865.76 682.89"><defs><linearGradient id="f7ea8ce6-aad6-45c9-a5a2-dae0685743b2" x1="431.11" y1="267.31" x2="431.11" y2="702.4" gradientUnits="userSpaceOnUse"><stop offset="0" stop-color="#fff"/><stop offset="0.19" stop-color="#e9e9e9"/><stop offset="0.53" stop-color="#c5c5c5"/><stop offset="0.82" stop-color="#b0b0b0"/><stop offset="1" stop-color="#a8a8a8"/></linearGradient></defs><path d="M866.18,682.89H.42V417.61L19.6,409l55.2-24.84,42.18-19,60.21-27.09,40.91-18.41,29.61-13.32,40-18,43.74-19.68,23.44-10.54H509.07l23.14,10.54,43.18,19.68,39.47,18,29.24,13.32,40.38,18.41,59.44,27.09,41.64,19c16.47,7.51,60.68,28.63,80.62,37.72Z" fill="#58595b"/><path d="M0,443.72,64.12,411l49.76-25.4,37.9-19.34,53.93-27.52,36.53-18.64,26.37-13.46,35.55-18.14,38.76-19.78,20.74-10.58h4.88l-19.26,10.58-36,19.78-33,18.14-24.5,13.46-33.91,18.64-50.09,27.52-35.2,19.34L90.37,411,27,445.81,0,460.66Z" fill="#fff"/><path d="M866.09,445.71c-25.23-12.95-48.24-24.39-68.35-34.71l-49.46-25.4-37.67-19.34L657,338.74l-36.3-18.64L594.5,306.64,559.17,288.5l-38.53-19.78L500,258.14h-4.88l19.12,10.58,35.77,19.78,32.78,18.14,24.33,13.46,33.7,18.64,49.75,27.52,35,19.34,45.9,25.4,62.93,34.81,31.35,17.5Z" fill="#fff"/><path d="M400.84,657.85c1.05-14.64,2-28.32,3-41.14h35.59c.24,12.82.5,26.5.77,41.14v25H400.09Z" fill="#fff"/><path d="M432.74,260q0,.64,0,1.32h-3.45c0-.45.07-.89.1-1.32Zm.05,2.75c0,.5,0,1,0,1.54h-3.71c0-.53.08-1,.11-1.54Zm.06,3.2c0,.58,0,1.18,0,1.8h-4c.05-.62.09-1.22.13-1.8Zm.07,3.76c0,.7,0,1.41,0,2.15h-4.39c.05-.74.1-1.45.15-2.15Zm.09,4.5c0,.83,0,1.69.05,2.59h-4.85c.07-.9.13-1.76.19-2.59Zm.1,5.45c0,1,0,2.09.06,3.19h-5.39c.08-1.1.15-2.16.23-3.19Zm.13,6.77c0,1.28,0,2.63.07,4h-6.08c.1-1.4.2-2.75.29-4Zm.16,8.6q0,2.5.09,5.25h-7c.13-1.83.25-3.58.37-5.25Zm.21,11.33q.06,3.36.13,7.11h-8.16l.51-7.11Zm.29,15.56c.06,3.18.12,6.57.19,10.2h-9.85c.26-3.63.5-7,.73-10.2Zm.42,22.74c.09,4.85.19,10.1.3,15.81H422.2c.41-5.71.79-11,1.14-15.81ZM435,381c.15,8.29.33,17.5.52,27.79H418.73c.74-10.29,1.4-19.5,2-27.79Zm1.26,67.46c.15,8.33.32,17.29.5,27,.2,10.48.41,21.87.64,34.29H411.48c.89-12.42,1.71-23.81,2.46-34.29.7-9.67,1.34-18.63,1.94-27Z" fill="#fff"/><path d="M432.71,258.13c0,.2,0,.4,0,.6h-3.21c0-.2,0-.4,0-.6Z" fill="url(#f7ea8ce6-aad6-45c9-a5a2-dae0685743b2)"/><path d="M754.13,234,679.47,98.61A25.38,25.38,0,0,0,666.1,86.73,22.17,22.17,0,0,0,647,88.82a25.24,25.24,0,0,0-9.28,9.89c-11.42,21-62.5,115.09-73.84,136a28.42,28.42,0,0,0-3.61,12,23,23,0,0,0,8.23,19.36,29.16,29.16,0,0,0,19.24,6.67l144.83-.6A26.43,26.43,0,0,0,747.13,268c8-5.37,10.21-13.38,10.53-19.65A27,27,0,0,0,754.13,234Zm-19.94,23.33H582.79a7.53,7.53,0,0,1-6.6-11.14l76.3-139.83a7.53,7.53,0,0,1,13.24,0l75.09,139.84A7.53,7.53,0,0,1,734.19,257.32Z" fill="#ffab41"/><rect x="648.86" y="138.24" width="20.54" height="72.25" rx="2.07" fill="#ffab41"/><circle cx="659.13" cy="222.73" r="7.98" fill="#ffab41"/><polygon points="73.06 163.03 131.46 103.55 214.51 103.55 273.98 162.49 273.98 246.61 215.04 305.55 132.53 305.55 72.52 247.15 73.06 163.03" fill="#ffab41"/><path d="M213.13,300H134.92L78,244.83l.51-79.52,55.36-56.22h78.73L269,164.8v79.52l-.43.43Zm-77-2.9h75.83l54.17-54V166l-54.66-54H135.11L81.44,166.51l-.5,77.1Z" fill="#fff"/><path d="M106.81,234.53q-4.11-4.56-4.1-14.73v-6.61H116v8.42q0,5.05,3.23,5a2.8,2.8,0,0,0,2.52-1.07,6.65,6.65,0,0,0,.71-3.58,16.4,16.4,0,0,0-.78-5.48,12.14,12.14,0,0,0-2-3.62q-1.23-1.46-4.38-4.53l-5.83-5.83q-6.76-6.62-6.77-14.65,0-8.67,4-13.2t11.62-4.53q9.14,0,13.16,4.84t4,15.17H121.7l-.08-4.65a2.94,2.94,0,0,0-.75-2.12,2.74,2.74,0,0,0-2.09-.79,3,3,0,0,0-2.36.86,3.38,3.38,0,0,0-.79,2.37c0,2.2,1.26,4.49,3.78,6.85l7.88,7.56a44.65,44.65,0,0,1,4.57,5.09,19.67,19.67,0,0,1,2.91,5.67,24.19,24.19,0,0,1,1.11,7.76q0,10-3.67,15.16t-12.09,5.17Q110.9,239.11,106.81,234.53Z" fill="#fff"/><path d="M147.77,238.47V183.8h-8v-13h29.62v13h-8v54.67Z" fill="#fff"/><path d="M178.42,234.1q-4.26-5-4.26-14.06V187.82q0-8.74,4.26-13.2c2.84-3,7-4.45,12.45-4.45s9.61,1.48,12.45,4.45,4.25,7.37,4.25,13.2V220q0,9.14-4.25,14.1t-12.45,5C185.4,239.11,181.26,237.44,178.42,234.1Zm14.89-9a12.27,12.27,0,0,0,.63-4.41V187.58a9.25,9.25,0,0,0-.59-3.58,2.35,2.35,0,0,0-2.4-1.38c-2.26,0-3.39,1.7-3.39,5.12v33a10.57,10.57,0,0,0,.71,4.41,2.61,2.61,0,0,0,2.6,1.5A2.4,2.4,0,0,0,193.31,225.08Z" fill="#fff"/><path d="M214.58,170.8h17.89q8.1,0,11.58,5.24t3.46,15.32q0,10.09-3.07,15.21t-11,5.12H227.9v26.78H214.58Zm14.1,28.68a5.72,5.72,0,0,0,3.59-.91,4.26,4.26,0,0,0,1.49-2.6,24.74,24.74,0,0,0,.36-4.84,14.65,14.65,0,0,0-1-6.15q-.94-1.89-3.78-1.89H227.9v16.39Z" fill="#fff"/><path d="M511.18,99.88A85,85,0,1,0,455,206.23,85,85,0,0,0,511.18,99.88Z" fill="#60a9e4"/><path d="M430,206.63a81.67,81.67,0,1,1,78-105.75h0a81.68,81.68,0,0,1-78,105.75Zm0-162a80.67,80.67,0,0,0-23.78,3.61,80.28,80.28,0,1,0,100.4,53h0A80.41,80.41,0,0,0,430,44.64Z" fill="#fff"/><path d="M464.46,94.23a28.85,28.85,0,0,0-5.21.47l-6.37-8.81a3.23,3.23,0,0,0-4.5-.72L433.28,96.1a3.22,3.22,0,0,0-.73,4.5l6.39,8.82a28.41,28.41,0,0,0-3.4,13.51,28.81,28.81,0,0,0,28.92,28.7,29.26,29.26,0,0,0,9.81-1.69,4.86,4.86,0,0,1-3.06-2.27,5,5,0,0,1,0-4.58,20.45,20.45,0,0,1-6.77,1.1,21.26,21.26,0,1,1,20.3-14.94c-2.34,7.54-8.57,11.44-11.2,12.85a4,4,0,0,0-1.78,1.83,3.12,3.12,0,0,0,.51,3.52,6.38,6.38,0,0,0,1.52,1.24h0a3.42,3.42,0,0,0,3.2.08,28.67,28.67,0,0,0-12.57-54.55Z" fill="#fff"/><path d="M446.57,96.44a2,2,0,0,0-.35,0l-1.71-3.38L441.84,95l2.81,2.67a2.1,2.1,0,0,0-.22.94,2.14,2.14,0,1,0,2.14-2.14Z" fill="#fff"/><path d="M418.52,162.9a28.69,28.69,0,0,1-28.54,11,3.43,3.43,0,0,1-2.52-2v0A6.31,6.31,0,0,1,387,170a3.11,3.11,0,0,1,1.69-3.13,4,4,0,0,1,2.52-.4c2.95.43,10.28,1,16.65-3.65a21.25,21.25,0,1,0-25.2-.1,20.63,20.63,0,0,0,6.09,3.15,5,5,0,0,0-2.75,3.67,4.9,4.9,0,0,0,1.1,3.64,29.17,29.17,0,0,1-8.88-4.49,28.8,28.8,0,0,1-6.1-40.28,28.4,28.4,0,0,1,10.78-8.82l.13-10.89a3.21,3.21,0,0,1,3.26-3.18l7.23.08,2.64,0,8.77.1a3.22,3.22,0,0,1,3.18,3.26L408,119.88a29.22,29.22,0,0,1,4.46,2.74A28.81,28.81,0,0,1,418.52,162.9Z" fill="#fff"/><path d="M396.73,113.72l-.3-.18.64-3.74-3.26-.08.66,3.82a2.08,2.08,0,0,0-.74.62,2.14,2.14,0,1,0,3-.44Z" fill="#fff"/><path d="M396.13,96.63v9l-2.64,0v-9a1.32,1.32,0,1,1,2.64,0Z" fill="#fff"/><path d="M432.84,85.12l8.5,5.14-2.22,1.81-7.66-4.7a1.32,1.32,0,0,1-.44-1.81,1.33,1.33,0,0,1,.82-.6A1.32,1.32,0,0,1,432.84,85.12Z" fill="#fff"/><path d="M397.43,84.86a5.54,5.54,0,0,0-6.67,4.1l-1,4.25a5.53,5.53,0,0,0,10.76,2.56l1-4.24A5.54,5.54,0,0,0,397.43,84.86Zm1.55,5.9-1.07,4.5a2.93,2.93,0,1,1-5.7-1.36l1.07-4.5a2.93,2.93,0,0,1,5.7,1.36Z" fill="#fff"/><path d="M417.45,79.21a5.54,5.54,0,0,0-7-3.41l-4.12,1.43a5.54,5.54,0,1,0,3.63,10.46L414,86.26A5.54,5.54,0,0,0,417.45,79.21Zm-4.13,4.49-4.38,1.52a2.92,2.92,0,0,1-3.72-1.81h0a2.93,2.93,0,0,1,1.8-3.73l4.38-1.51a2.92,2.92,0,0,1,3.72,1.8h0A2.92,2.92,0,0,1,413.32,83.7Z" fill="#fff"/><path d="M432.6,80.12l-4-1.72a5.54,5.54,0,0,0-4.35,10.18l4,1.72a5.54,5.54,0,0,0,4.35-10.18Zm.68,6.26a2.93,2.93,0,0,1-3.84,1.54l-4.26-1.82a2.93,2.93,0,0,1,2.3-5.39l4.26,1.82A3,3,0,0,1,433.28,86.38Z" fill="#fff"/><path d="M397.19,86.89l8.2-4.84a1.31,1.31,0,0,1,1.82.48h0a1.32,1.32,0,0,1-.47,1.79l-8.21,4.85a1.48,1.48,0,0,1-2-.33,1.22,1.22,0,0,1-.07-1A1.83,1.83,0,0,1,397.19,86.89Z" fill="#fff"/><path d="M414.85,80.17l9.43,1.38a1.31,1.31,0,0,1,1.11,1.51h0a1.31,1.31,0,0,1-1.5,1.1l-9.43-1.38a1.46,1.46,0,0,1-1.38-1.54,1.18,1.18,0,0,1,.6-.85A1.74,1.74,0,0,1,414.85,80.17Z" fill="#fff"/><path d="M274.8,365.83s-3.44,19.43-3.67,36.38.12,26.72,1.45,28.91,3.79,2.75,7.64,3.08,16.91.62,19.88-.45,2.6-5,2.84-7.82,0-10,0-10,8.77.49,9.64.64,4.59.16,4.59.16a6.3,6.3,0,0,0,3.05,2.56,46.19,46.19,0,0,0,8.86.63,8.63,8.63,0,0,0,5.84-2.7l6.13.36a3.36,3.36,0,0,0,2,1.33,43.53,43.53,0,0,0,5,.15c.68-.12,5.18-3.32,7.91-3.56,2.12-.18,17.67-.26,24.44-.28s22.32.1,24.44.28c2.73.24,7.23,3.44,7.91,3.56a43.53,43.53,0,0,0,4.95-.15,3.36,3.36,0,0,0,2-1.33l6.13-.36a8.65,8.65,0,0,0,5.84,2.7,46.19,46.19,0,0,0,8.86-.63,6.3,6.3,0,0,0,3.05-2.56s3.71,0,4.59-.16,9.64-.64,9.64-.64-.24,7.17,0,10-.12,6.76,2.84,7.82,16,.77,19.88.45,6.31-.89,7.64-3.08,1.69-12,1.45-28.91-3.67-36.38-3.67-36.38l-10.68,36.45S433,402,431.7,401.81s-36.61.83-36.61.83l-14.75,1.42v0l-14.76-1.42s-35.3-1.07-36.61-.83-43.48.47-43.48.47Z" fill="#2f2e41" fill-rule="evenodd"/><circle cx="432.13" cy="411.8" r="7.68" transform="translate(-38.47 44.59) rotate(-5.65)" fill="#ccc"/><circle cx="432.27" cy="412.06" r="6.65" fill="#a7a9ac"/><circle cx="432.27" cy="412.06" r="6.26" fill="#ccc"/><circle cx="432.27" cy="412.06" r="5.86" fill="#a7a9ac"/><path d="M438.93,416.5s11.93-.5,14.95-.77,3.86-.27,3.86-.27l-.54-2.78-2.69-.15s0,1-.92.89a1.18,1.18,0,0,1-1.1-.8s-7.28-1.13-8.56-.65-1.63.44-.95,1.74.54,1.87-.38,1.87-3.2.06-3.2.06Z" fill-rule="evenodd" opacity="0.2"/><path d="M488.36,414.1s.06-3.47-2.16-3.47a7.24,7.24,0,0,1-6-2.4A30.68,30.68,0,0,1,476.1,401c-.57-1.4-2.55-8.47-2.55-7.26,0,6.81,2.1,13.42,5,19.52,1.57,3.26,3.55,5.54,5,5.69s2.81,0,3.44.2a3.56,3.56,0,0,1,1.3,1l0-5.45a18.46,18.46,0,0,1-4.68-.35,7.1,7.1,0,0,1-3.14-2.34,13.86,13.86,0,0,0,4,1.95,17.38,17.38,0,0,0,3.82.18Zm-1,5.66c.83.2,1.13,1.57,1.13,2.22v4.8s-.36-.63-1.54-.54-4,.12-5.39-.68-3.62-3.49-4.83-6.84-2.16-6.64-2.16-6.64,1.24,6.58,2.54,9.57,4.39,5.36,6.4,5.27a25.32,25.32,0,0,1,3.91,0c.77.12.89.95.92,1.78a3.49,3.49,0,0,1-.95,2.28c-.38.3-4,.27-5.71,0s-4.48-3.11-5.54-5.57-1.81-4.74-1.81-4.74.5,4.8,2,6.73,3,3.58,4.62,4.06a26.66,26.66,0,0,0,4.57.62,44,44,0,0,1-7.11.12c-2.37-.33-4.06-3.44-4.06-3.44s.8,2.4,1.75,3,1.12.74,1.12.74-6.28,0-7.61,0,.06-.2,1.3-1.33,1.84-3.82,1.84-3.82-2.46,3.88-4.06,4.68a13.29,13.29,0,0,1-5.18.67h0a12.51,12.51,0,0,1-3.38-.32c-.59-.35-1.33-1.51-.62-1.74a20.15,20.15,0,0,1,3.44-.23h0c.95-.19,4.33-.58,5.39-1.64a17,17,0,0,0,3.79-6,16.46,16.46,0,0,0,.68-4.45s-.71,4.92-3,7.35-3.29,3.47-5.45,3.85c-1.19.21-1.81.35-2.15.37h0s-2,.13-2.44.11a1.32,1.32,0,0,0-.83.35s-.45-2.46,0-2.69a29.82,29.82,0,0,1,3.92-.57c1.15-.28,2.91-.61,3.48-.83.73-.27-3.29.57-4.23.56h0c-.78.07-3.35.42-3.35.42s-.15-1.66.65-2a7.86,7.86,0,0,1,2.42-.36.41.41,0,0,1,0-.09s4.21-.65,6-2.25a13.32,13.32,0,0,0,4-7.2,24.66,24.66,0,0,0,.74-6.75s-1.63,9.3-4.32,12.32a9.82,9.82,0,0,1-6.52,3.23,17.43,17.43,0,0,0-2.13.21,1.26,1.26,0,0,0-.89.62l.18-4.92h2.9a5.23,5.23,0,0,0,3.64-.77c1.57-1.18.21-.15-1.09.09a8,8,0,0,1-1.56.18h0c-1.15.11-4.07-.06-4.07-.06s0-.71,0-1.24.32-1,1.21-1.22a18.16,18.16,0,0,1,2.52-.2,6.11,6.11,0,0,0,2.07-.54,8.1,8.1,0,0,0,4.27-3.94,35.52,35.52,0,0,0,3-8.41,53.29,53.29,0,0,0,.8-7s-2,9.66-4.26,13.59c-2,3.47-3.49,4.6-4.69,4.94h0a15.63,15.63,0,0,1-3.49.37,2,2,0,0,0-1.36.71l.18-4.92a22.24,22.24,0,0,0,2.93-.35l0,0a31.87,31.87,0,0,0,4-1.85c1.8-1-3.5,1.27-3.82,1.3a9,9,0,0,1-3.23.42s0-2.08,0-2.73.62-1.24,1.89-1.6,2.81-.12,3.91-.72a10,10,0,0,0,2.82-2.42c1.83-2.43,3.91-9.83,3.91-9.83l1.86,1.89s.65,10.25,3,15.17,4,8.12,6.34,8.53a26.77,26.77,0,0,0,4.71.36Zm-28.23-19.05a17.46,17.46,0,0,0,3.83-.18,13.89,13.89,0,0,0,4-1.95,7.1,7.1,0,0,1-3.14,2.34,18.45,18.45,0,0,1-4.68.35l0,5.45a3.53,3.53,0,0,1,1.31-1c.62-.18,2-.06,3.43-.21s3.47-2.43,5-5.69,4.32-11.7,4.32-11.7-1.89,3.59-1.89,2.37.62-4.32.06-2.93a31,31,0,0,1-4.09,7.29,7.24,7.24,0,0,1-6,2.39c-2.22,0-2.17,3.47-2.17,3.47Zm29.27,10.84a3.05,3.05,0,0,0-2.67-1.66,6.14,6.14,0,0,1-5.09-3.08,41.28,41.28,0,0,1-4.68-9.83c-.95-3.44,6.69.53,9.06,1.66s3.14,2.25,3.14,5.21a6.44,6.44,0,0,0-1.51-.77,36.15,36.15,0,0,0-4.6-.39,25.14,25.14,0,0,0,3.25.57,3.74,3.74,0,0,1,2.89,1.45c.15.46.21,6.84.21,6.84Zm-.21-11c-.77-2.19-4-4.56-4.5-6s-.24-3.56-.36-7.17.92-10.57,1.34-10.63a5.75,5.75,0,0,1,2.52.86c.08.26.44,9.53.44,9.53l-2.28-2.31a.71.71,0,0,0,.35.74,6.5,6.5,0,0,1,1.87,2.49,26.48,26.48,0,0,1,.24,3.11s-2-1.77-2.22-1.83-.06.59-.06.59,2,1.48,2.37,2.55S488.15,400.53,488.15,400.53Z" fill-rule="evenodd" opacity="0.2"/><path d="M380.33,411.76c-4.92,0-39.42,0-39.7.12s-.32,3.37-.2,3.67,1.24,2.37,2,2.55a32.66,32.66,0,0,0,5.24.32c.45-.11,4.92-3.28,7.53-3.31,2.24,0,20.19-.38,25.15-.48,5,.1,22.91.45,25.15.48,2.61,0,7.08,3.2,7.53,3.31a32.66,32.66,0,0,0,5.24-.32c.74-.18,1.87-2.25,2-2.55s.09-3.58-.2-3.67-34.78-.12-39.7-.12Zm34,2a1.49,1.49,0,1,1-1.44,1.49,1.46,1.46,0,0,1,1.44-1.49Zm-68,0a1.49,1.49,0,1,1-1.43,1.49A1.46,1.46,0,0,1,346.33,413.74Z" fill-rule="evenodd" opacity="0.2"/><path d="M340.73,417.21s-30.93-1.21-34-1.48-3.85-.27-3.85-.27l.53-2.78,2.69-.15s0,1,.92.89a1.18,1.18,0,0,0,1.1-.8s7.28-1.13,8.56-.65,1.63.44.95,1.74-.54,1.87.38,1.87,22.2.77,22.2.77Z" fill-rule="evenodd" opacity="0.2"/><path d="M272.3,414.1s-.06-3.47,2.16-3.47a7.24,7.24,0,0,0,6-2.4,30.68,30.68,0,0,0,4.08-7.28c.57-1.4,2.55-8.47,2.55-7.26,0,6.81-2.1,13.42-5,19.52-1.57,3.26-3.56,5.54-5,5.69s-2.81,0-3.44.2a3.56,3.56,0,0,0-1.3,1l0-5.45a18.46,18.46,0,0,0,4.68-.35,7.1,7.1,0,0,0,3.14-2.34,13.86,13.86,0,0,1-4,1.95,17.38,17.38,0,0,1-3.82.18Zm1,5.66c-.83.2-1.13,1.57-1.13,2.22v4.8s.36-.63,1.54-.54,4,.12,5.39-.68,3.62-3.49,4.83-6.84,2.16-6.64,2.16-6.64-1.24,6.58-2.54,9.57-4.39,5.36-6.4,5.27a25.32,25.32,0,0,0-3.91,0c-.77.12-.89.95-.92,1.78a3.49,3.49,0,0,0,.95,2.28c.38.3,4,.27,5.71,0s4.48-3.11,5.54-5.57,1.81-4.74,1.81-4.74-.5,4.8-2,6.73-3,3.58-4.62,4.06a26.66,26.66,0,0,1-4.57.62,44,44,0,0,0,7.11.12c2.37-.33,4.06-3.44,4.06-3.44s-.8,2.4-1.75,3-1.12.74-1.12.74,6.28,0,7.61,0-.06-.2-1.3-1.33-1.84-3.82-1.84-3.82,2.46,3.88,4.06,4.68a13.29,13.29,0,0,0,5.18.67h0a12.51,12.51,0,0,0,3.38-.32c.59-.35,1.33-1.51.62-1.74a20.15,20.15,0,0,0-3.44-.23h0c-.95-.19-4.33-.58-5.39-1.64a17,17,0,0,1-3.79-6,16.46,16.46,0,0,1-.68-4.45s.71,4.92,3,7.35,3.29,3.47,5.45,3.85c1.19.21,1.82.35,2.15.37h0s2,.13,2.44.11a1.32,1.32,0,0,1,.83.35s.45-2.46,0-2.69a29.82,29.82,0,0,0-3.92-.57c-1.15-.28-2.91-.61-3.48-.83-.73-.27,3.29.57,4.23.56h0c.78.07,3.35.42,3.35.42s.15-1.66-.65-2a7.86,7.86,0,0,0-2.42-.36.41.41,0,0,0,0-.09s-4.2-.65-6-2.25a13.32,13.32,0,0,1-4-7.2,24.66,24.66,0,0,1-.74-6.75s1.63,9.3,4.32,12.32a9.82,9.82,0,0,0,6.52,3.23,17.43,17.43,0,0,1,2.13.21,1.26,1.26,0,0,1,.89.62l-.18-4.92h-2.9a5.23,5.23,0,0,1-3.64-.77c-1.57-1.18-.21-.15,1.09.09a8.08,8.08,0,0,0,1.56.18h0c1.15.11,4.07-.06,4.07-.06s0-.71,0-1.24-.32-1-1.21-1.22a18.16,18.16,0,0,0-2.52-.2,6.11,6.11,0,0,1-2.07-.54,8.1,8.1,0,0,1-4.27-3.94,35.52,35.52,0,0,1-3-8.41,53.29,53.29,0,0,1-.8-7s2,9.66,4.26,13.59c2,3.47,3.49,4.6,4.69,4.94h0a15.63,15.63,0,0,0,3.49.37,2,2,0,0,1,1.36.71l-.18-4.92a22.24,22.24,0,0,1-2.93-.35l0,0a31.87,31.87,0,0,1-4-1.85c-1.8-1,3.5,1.27,3.83,1.3a8.92,8.92,0,0,0,3.22.42s0-2.08,0-2.73-.62-1.24-1.89-1.6-2.81-.12-3.91-.72a10,10,0,0,1-2.82-2.42c-1.83-2.43-3.91-9.83-3.91-9.83l-1.86,1.89s-.65,10.25-3,15.17-4,8.12-6.34,8.53a26.77,26.77,0,0,1-4.71.36Zm28.23-19.05a17.46,17.46,0,0,1-3.83-.18,13.89,13.89,0,0,1-4-1.95,7.1,7.1,0,0,0,3.14,2.34,18.45,18.45,0,0,0,4.68.35l0,5.45a3.53,3.53,0,0,0-1.31-1c-.62-.18-1.95-.06-3.43-.21s-3.47-2.43-5-5.69-4.32-11.7-4.32-11.7,1.89,3.59,1.89,2.37-.62-4.32-.06-2.93a31,31,0,0,0,4.09,7.29,7.24,7.24,0,0,0,6,2.39c2.23,0,2.17,3.47,2.17,3.47ZM272.3,411.55a3.05,3.05,0,0,1,2.67-1.66,6.14,6.14,0,0,0,5.09-3.08,41.28,41.28,0,0,0,4.68-9.83c.95-3.44-6.69.53-9.06,1.66s-3.14,2.25-3.14,5.21a6.44,6.44,0,0,1,1.51-.77,36.15,36.15,0,0,1,4.6-.39,25.14,25.14,0,0,1-3.25.57,3.74,3.74,0,0,0-2.89,1.45c-.15.46-.21,6.84-.21,6.84Zm.21-11c.77-2.19,4-4.56,4.5-6s.24-3.56.36-7.17-.92-10.57-1.34-10.63a5.75,5.75,0,0,0-2.52.86c-.08.26-.44,9.53-.44,9.53l2.28-2.31a.71.71,0,0,1-.35.74,6.5,6.5,0,0,0-1.87,2.49,26.48,26.48,0,0,0-.24,3.11s2-1.77,2.22-1.83.06.59.06.59-2,1.48-2.37,2.55S272.51,400.53,272.51,400.53Z" fill-rule="evenodd" opacity="0.2"/><path d="M484.87,325.28a7.46,7.46,0,0,0-4.56-6.78,12,12,0,0,0-2.78-.69c-1.2-.19-2.43-.32-3.64-.43-1.84-.16-3.69-.27-5.53-.36l-1.93-.08.8,1.76c.25.54.49,1.09.74,1.65a39.41,39.41,0,0,0,3,5.36c1.68,2.63,3.59,5.2,5.07,8l.37.68.78-.07c1.77-.15,4.05-.67,5.34-2A9.23,9.23,0,0,0,484.87,325.28Z" fill="#f48225" data-secondary="true" fill-rule="evenodd"/><path d="M468.89,319.51c.06.12.11.24.16.36,1.81,4.12,4.84,7.94,7.08,11.63l1.42-.12c2.4-.21,4.26-1.16,4.63-3.74.41-2.87-.38-5.88-3.37-7a12.51,12.51,0,0,0-2-.52c-.78-.14-1.56-.24-2.35-.32-1.74-.18-3.52-.27-5.27-.29Z" fill-rule="evenodd"/><path d="M469.18,320.15c1.71,3.79,4.43,7.32,6.58,10.74l1.73-.14c2.11-.18,3.73-.92,4.06-3.2s-.09-5.24-3-6.31C476.11,320.32,470.63,320.17,469.18,320.15Z" fill="#2f2e41" fill-rule="evenodd"/><path d="M471.71,324.73c.22.35.45.7.68,1a57.11,57.11,0,0,1,5.07-4.87c-.77-.17-1.65-.31-2.56-.42-1,1.21-2.11,2.65-3.19,4.24Zm.93,1.45c1.51-1.47,3.72-3.68,5.35-5.13l.6.19a4.42,4.42,0,0,1,1.93,1.35,46,46,0,0,0-7.43,4.26Z" fill="#fff" fill-rule="evenodd" opacity="0.2"/><path d="M476.3,331.78c.21.35.41.7.61,1.05a10,10,0,0,0,4.26-1.28c1.55-1.11,2.14-3.5,2.32-4.74s-.56,2.26-1.07,2.54-.22-1.15-.59-.07-1.36,1.7-2.89,2.09A19.21,19.21,0,0,1,476.3,331.78Z" fill-rule="evenodd" opacity="0.2"/><path d="M475,329.7l.77,1.19,1-.08a37.28,37.28,0,0,1,4.53-6.71,3,3,0,0,0-.13-.36A65.11,65.11,0,0,0,475,329.7Z" fill="#fff" fill-rule="evenodd" opacity="0.2"/><path d="M292.3,317c-1.84.09-3.69.2-5.53.36-1.21.11-2.43.24-3.64.43a12,12,0,0,0-2.78.69,7.46,7.46,0,0,0-4.56,6.78,9.2,9.2,0,0,0,2.39,7c1.28,1.31,3.56,1.83,5.33,2l.78.07.37-.68c1.48-2.75,3.39-5.32,5.07-8a39.41,39.41,0,0,0,3-5.36c.25-.56.49-1.11.74-1.65l.8-1.76Z" fill="#f48225" data-secondary="true" fill-rule="evenodd"/><path d="M291.77,319.51c-.06.12-.11.24-.16.36-1.81,4.12-4.84,7.94-7.08,11.63l-1.42-.12c-2.4-.21-4.26-1.16-4.63-3.74-.41-2.87.38-5.88,3.37-7a12.51,12.51,0,0,1,2-.52c.78-.14,1.56-.24,2.35-.32,1.74-.18,3.52-.27,5.28-.29Z" fill-rule="evenodd"/><path d="M291.49,320.15c-1.72,3.79-4.44,7.32-6.59,10.74l-1.73-.14c-2.1-.18-3.73-.92-4.06-3.2s.09-5.24,3-6.31C284.55,320.32,290,320.17,291.49,320.15Z" fill="#2f2e41" fill-rule="evenodd"/><path d="M289,324.73c-.22.35-.45.7-.68,1a57.11,57.11,0,0,0-5.07-4.87c.77-.17,1.66-.31,2.56-.42,1,1.21,2.11,2.65,3.19,4.24Zm-.93,1.45c-1.51-1.47-3.72-3.68-5.35-5.13l-.6.19a4.42,4.42,0,0,0-1.93,1.35,46,46,0,0,1,7.43,4.26Z" fill="#fff" fill-rule="evenodd" opacity="0.2"/><path d="M284.36,331.78c-.21.35-.41.7-.61,1.05a10,10,0,0,1-4.25-1.28c-1.56-1.11-2.15-3.5-2.33-4.74s.56,2.26,1.07,2.54.22-1.15.59-.07,1.36,1.7,2.89,2.09A19.21,19.21,0,0,0,284.36,331.78Z" fill-rule="evenodd" opacity="0.2"/><path d="M285.67,329.7l-.77,1.19-1-.08a37.28,37.28,0,0,0-4.53-6.71,3,3,0,0,1,.13-.36A65.11,65.11,0,0,1,285.67,329.7Z" fill="#fff" fill-rule="evenodd" opacity="0.2"/><path d="M328.8,285.65a12.14,12.14,0,0,1-.63-1.06A7.25,7.25,0,0,0,327,283c-1.2-1.11-1.94-1-3.45-.67-1.71.42-3.44.79-5.16,1.19l-3.21.75c-.67.17-1.41.33-2.06.56l-.25.08-3.23,3.18,0,0c-.9,1-1.76,2.09-2.6,3.15q-3.09,3.93-5.83,8.13c-.58.89-1.15,1.79-1.71,2.71a143.17,143.17,0,0,0-9,17.24,36.85,36.85,0,0,1-2.78,5c-1.2,1.87-2.48,3.69-3.67,5.56a28.24,28.24,0,0,0-2.88,5.6c-.4,1.15-.73,2.33-1,3.51-.36,1.38-.68,2.77-1,4.16q-.74,3.35-1.35,6.72c-.15.78-.29,1.56-.42,2.35-.07.39-.15.83-.18,1.22a2.06,2.06,0,0,1-.47,1.12,12,12,0,0,0-.67,1.56c-.31.79-.6,1.6-.87,2.4s-.46,1.38-.67,2.08a13.6,13.6,0,0,0-.42,1.64,32.33,32.33,0,0,0-.34,3.66c-.16,2.76-.25,5.53-.36,8.29a109.28,109.28,0,0,0,.23,11.3c.18,2.63.45,5.24.7,7.87a15.89,15.89,0,0,0,.94,4.2l.29.7a3.4,3.4,0,0,0-.37.83,8,8,0,0,0,.2,2.51c.21,1.23.46,2.46.71,3.69l.66,3.17c.15.69.3,1.39.42,2.09.32,1.79.73,3.46,2.7,4a9.32,9.32,0,0,0,1.74.3,12.67,12.67,0,0,0,2.61.06c1-.15,1.23-.83,1.7-1.58.33-.53,2.06-.64,2.58-.66,1.58-.05,3.2,0,4.78,0H314.4c.5,0,1,0,1.53,0a5.88,5.88,0,0,0,2.94-1.5c1-.81,2-1.68,3.05-2.47,2.15-1.64,3.7-2.85,6.53-2.9,1,0,2,0,3,0l6,0q8.48,0,16.95.1l26,.17h0l26-.17q8.48-.06,16.95-.1l6,0c1,0,2,0,3,0,2.83.05,4.38,1.26,6.53,2.9,1,.79,2,1.66,3.05,2.47a5.88,5.88,0,0,0,2.94,1.5c.5,0,1,0,1.53,0h21.09c1.58,0,3.2,0,4.78,0,.52,0,2.25.13,2.58.66.47.75.66,1.43,1.7,1.58A12.66,12.66,0,0,0,479,415a9.32,9.32,0,0,0,1.74-.3c2-.58,2.38-2.25,2.7-4,.12-.7.28-1.4.42-2.09l.66-3.17c.25-1.23.5-2.46.71-3.69a8,8,0,0,0,.2-2.51,3.4,3.4,0,0,0-.37-.83l.29-.7a15.89,15.89,0,0,0,.94-4.2c.25-2.63.52-5.24.7-7.87a109.28,109.28,0,0,0,.23-11.3c-.11-2.76-.2-5.53-.36-8.29a32.33,32.33,0,0,0-.34-3.66,13.6,13.6,0,0,0-.42-1.64c-.21-.7-.43-1.39-.67-2.08s-.56-1.61-.87-2.4a12,12,0,0,0-.67-1.56,2.06,2.06,0,0,1-.47-1.12c0-.39-.11-.83-.18-1.22-.13-.79-.27-1.57-.41-2.35q-.63-3.37-1.36-6.72c-.31-1.39-.63-2.78-1-4.16-.3-1.18-.63-2.36-1-3.51a28.24,28.24,0,0,0-2.88-5.6c-1.19-1.87-2.47-3.69-3.67-5.56a36.85,36.85,0,0,1-2.78-5,143.17,143.17,0,0,0-9-17.24c-.56-.92-1.13-1.82-1.71-2.71q-2.73-4.2-5.83-8.13c-.84-1.06-1.7-2.14-2.6-3.15l0,0L447.75,285l-.25-.08c-.65-.23-1.39-.39-2.06-.56l-3.21-.75c-1.72-.4-3.45-.77-5.16-1.19-1.51-.37-2.25-.44-3.45.67a7.25,7.25,0,0,0-1.13,1.55,12.14,12.14,0,0,1-.63,1.06h-.42l-1.49,0c-1.39-.06-2.77-.12-4.15-.2l-4.29-.24c-.54,0-1.12-.05-1.67-.09,0-.38,0-.91,0-1.13a2.78,2.78,0,0,0-1.55-2.88c-1-.53-3.61-.6-4.73-.66-3.64-.17-7.29-.22-10.93-.31-7.44-.18-14.9-.23-22.34-.24h0c-7.44,0-14.9.06-22.34.24-3.64.09-7.29.14-10.93.31-1.12.06-3.74.13-4.73.66a2.8,2.8,0,0,0-1.55,2.88c0,.22.05.75,0,1.13-.55,0-1.13.06-1.67.09-1.43.09-2.85.17-4.28.24s-2.77.14-4.16.2l-1.49,0Z" fill="#2f2e41" fill-rule="evenodd"/><path d="M380.33,405c-2.52,0-48.79-.35-51.9-.3s-5,1.43-7.23,3.14-4.15,3.68-5.33,3.74-25.39,0-27.37,0-3.11.5-3.56,1.21-.44,1-.85,1a13.89,13.89,0,0,1-3.85-.33c-1.22-.35-1.55-1.27-1.87-3.11s-2.22-10.19-2-10.93a1.44,1.44,0,0,1,.69-.95,12,12,0,0,1-1.51-5.21,139.1,139.1,0,0,1-.92-19c.29-7.88.41-10.22.68-11.79a46.77,46.77,0,0,1,2.49-7.28,3,3,0,0,0,.62-1.63c.06-.77,2.13-12.56,3.91-17.66s6.75-10.31,9.3-16.11a143.62,143.62,0,0,1,10.6-19.79,105.15,105.15,0,0,1,8.33-11.14l3-2.95c1.22-.43,9.05-2.16,10.32-2.47s1.6-.32,2.37.39,1.54,2.75,2.1,2.9,12.44-.53,13.15-.62.48-1.6.48-2.25a1.71,1.71,0,0,1,.91-1.84c.95-.5,5.31-.59,15.14-.83,8.7-.21,19.85-.23,22.31-.23s13.61,0,22.31.23c9.83.24,14.19.33,15.14.83a1.71,1.71,0,0,1,.91,1.84c0,.65-.23,2.16.48,2.25s12.59.77,13.15.62,1.33-2.19,2.1-2.9,1-.71,2.37-.39,9.1,2,10.32,2.47l3,2.95a105.15,105.15,0,0,1,8.33,11.14,143.62,143.62,0,0,1,10.6,19.79c2.55,5.8,7.52,11,9.3,16.11s3.85,16.89,3.91,17.66a3,3,0,0,0,.62,1.63,45.75,45.75,0,0,1,2.49,7.28c.27,1.57.39,3.91.68,11.79a141.15,141.15,0,0,1-.91,19,12,12,0,0,1-1.52,5.21,1.44,1.44,0,0,1,.69.95c.2.74-1.69,9.09-2,10.93s-.65,2.76-1.86,3.11a14,14,0,0,1-3.86.33c-.41-.06-.41-.33-.85-1s-1.57-1.16-3.56-1.21-26.18,0-27.37,0-3.08-2-5.33-3.74-4-3.08-7.23-3.14S382.85,405,380.33,405Z" fill="#f48225" data-secondary="true" fill-rule="evenodd"/><path d="M485.72,366.44c0-.25,0-.48,0-.7-.93.12-2.79.35-3.08.35l.12-.06-.06.74Z" fill-rule="evenodd"/><path d="M443.28,410.92a3.28,3.28,0,0,0,1.51.69c1.19.05,25.39,0,27.37,0s3.11.5,3.56,1.21.44,1,.85,1a14,14,0,0,0,3.86-.33c1.21-.35,1.54-1.27,1.86-3.11s2.22-10.19,2-10.93a1.69,1.69,0,0,0-.1-.27l-1.28-.6s-1.54,10.25-2.37,12-2.43.42-5.69.59C471.82,411.38,446.5,411,443.28,410.92Z" fill="#2f2e41" fill-rule="evenodd"/><path d="M274.94,366.44c0-.25,0-.48,0-.7.93.12,2.79.35,3.08.35l-.12-.06.06.74Z" fill-rule="evenodd"/><path d="M380.33,403.45c-7.47,0-82.93.08-89.8-.71-7.23-.83,23.34-1.89,51.07-2.25,18.26-.23,31.69-.21,38.73-.17s20.47-.06,38.73.17c27.73.36,58.3,1.42,51.07,2.25C463.26,403.53,387.8,403.46,380.33,403.45Z" fill="#2f2e41" fill-rule="evenodd"/><path d="M277,398.45a12.64,12.64,0,0,1-1.43-5.09,139.1,139.1,0,0,1-.92-19c.37-4.4,2.62-5.28,3.06-7s.66-12.11.12-11.16-2.52,6.51-2.53,6.52l0-.15a46.77,46.77,0,0,1,2.49-7.28,3,3,0,0,0,.62-1.63c0-.42.66-4.1,1.51-8.19a127.84,127.84,0,0,0-1.58,18.87c-.06,2.85-.06,3.68-1.19,5.63s-1.72,3.2.36,3.85,13.38,1,31.63.89c16.65-.11,63.17-.22,71.2-.23s54.55.12,71.2.23c18.25.12,29.56-.24,31.63-.89s1.49-1.89.36-3.85-1.13-2.78-1.18-5.63a129.67,129.67,0,0,0-1.59-18.87c.85,4.09,1.48,7.77,1.51,8.19a3,3,0,0,0,.62,1.63,45.75,45.75,0,0,1,2.49,7.28l0,.15s-2-5.58-2.53-6.52-.33,9.45.12,11.16,2.69,2.6,3.06,7a141.15,141.15,0,0,1-.91,19,12.75,12.75,0,0,1-1.44,5.09c-1.78-.59-5.48-1.26-13.15-1.51-13.65-.45-81.62.35-90.22.46-8.6-.11-76.57-.91-90.22-.46-7.67.25-11.37.92-13.15,1.51Zm103.37-21.37c-7,.1-25,.31-51.83.31-35.07,0-45.14-.48-47.63-.54s-4.09,5.75-4.26,4.15-.71-6.81-.71-6.81-.36,7.7.59,12,3.2,7.47,6,7.71c2.65.22,86.55-.08,97.8-.12s95.15.34,97.8.12c2.84-.24,5.09-3.44,6-7.71s.59-12,.59-12-.53,5.21-.71,6.81-1.77-4.21-4.26-4.15-12.56.54-47.63.54C405.35,377.39,387.33,377.18,380.33,377.08Z" fill="#f48225" data-secondary="true" fill-rule="evenodd"/><path d="M277,398.45a12.64,12.64,0,0,1-1.43-5.09,139.1,139.1,0,0,1-.92-19c.37-4.4,2.62-5.28,3.06-7s.66-12.11.12-11.16-2.52,6.51-2.53,6.52l0-.15a46.77,46.77,0,0,1,2.49-7.28,3,3,0,0,0,.62-1.63c0-.42.66-4.1,1.51-8.19a127.84,127.84,0,0,0-1.58,18.87c-.06,2.85-.06,3.68-1.19,5.63s-1.72,3.2.36,3.85,13.38,1,31.63.89c16.65-.11,63.17-.22,71.2-.23s54.55.12,71.2.23c18.25.12,29.56-.24,31.63-.89s1.49-1.89.36-3.85-1.13-2.78-1.18-5.63a129.67,129.67,0,0,0-1.59-18.87c.85,4.09,1.48,7.77,1.51,8.19a3,3,0,0,0,.62,1.63,45.75,45.75,0,0,1,2.49,7.28l0,.15s-2-5.58-2.53-6.52-.33,9.45.12,11.16,2.69,2.6,3.06,7a141.15,141.15,0,0,1-.91,19,12.75,12.75,0,0,1-1.44,5.09c-1.78-.59-5.48-1.26-13.15-1.51-13.65-.45-81.62.35-90.22.46-8.6-.11-76.57-.91-90.22-.46-7.67.25-11.37.92-13.15,1.51Zm103.37-21.37c-7,.1-25,.31-51.83.31-35.07,0-45.14-.48-47.63-.54s-4.09,5.75-4.26,4.15-.71-6.81-.71-6.81-.36,7.7.59,12,3.2,7.47,6,7.71c2.65.22,86.55-.08,97.8-.12s95.15.34,97.8.12c2.84-.24,5.09-3.44,6-7.71s.59-12,.59-12-.53,5.21-.71,6.81-1.77-4.21-4.26-4.15-12.56.54-47.63.54C405.35,377.39,387.33,377.18,380.33,377.08Z" fill-rule="evenodd" opacity="0.2"/><path d="M380.33,336.56c-11.12,0-27.79,0-31.73.08-6,.18-6.4,1-6.69,2.73s.12,14,1.24,16.82,2.19,2.9,8.77,3.62c5.79.62,24.11.6,28.41.59s22.62,0,28.41-.59c6.58-.72,7.64-.77,8.77-3.62s1.54-15.1,1.24-16.82-.65-2.55-6.69-2.73c-3.94-.11-20.61-.1-31.73-.08Zm0,24.79c-4.78,0-19.33,0-26.93-.48-9.18-.53-9.89-.83-11.26-4s-2.31-14-2.25-17.24,1.72-4.2,5.28-4.68c3.23-.43,30.34-.47,35.16-.47s31.93,0,35.17.47c3.55.48,5.21,1.42,5.27,4.68s-.89,14.1-2.25,17.24-2.08,3.44-11.26,4C399.66,361.31,385.11,361.35,380.33,361.35Z" fill="#2f2e41" fill-rule="evenodd"/><path d="M274.94,366.47q0-.33,0-.63l1.8.18.47.05c.9.11,1.76.21,1.92-.1a43.93,43.93,0,0,0,.43-5.37l.6.91a29.35,29.35,0,0,1-.47,4.75c-.36.69-1.44.57-2.55.44l-.46-.05Z" fill="#2f2e41" fill-rule="evenodd"/><path d="M485.72,366.47l0-.63-1.8.18-.47.05c-.9.11-1.76.21-1.92-.1a43.93,43.93,0,0,1-.43-5.37l-.6.91a29.35,29.35,0,0,0,.47,4.75c.36.69,1.44.57,2.55.44l.46-.05Z" fill="#2f2e41" fill-rule="evenodd"/><path d="M380.33,373.6c9.31,0,88.89.33,96.14,0,7.7-.35,7.11-.88,7-2.07s-1.24-3.61-5.75-3.55-7.58.53-44.31.41c-28.38-.09-46.36-.18-53.07-.22s-24.69.13-53.07.22c-36.73.12-39.81-.35-44.31-.41s-5.63,2.37-5.75,3.55-.71,1.72,7,2.07C291.44,373.93,371,373.63,380.33,373.6Z" fill="#fff" fill-rule="evenodd" opacity="0.2"/><path d="M314,287.09l.49-.14c.4-.11.79-.21,1.19-.3,1.1-.27,2.2-.53,3.31-.78,1.72-.4,3.46-.78,5.18-1.2a6,6,0,0,1,.94-.17,1.88,1.88,0,0,1,.34.28,4.74,4.74,0,0,1,.69,1c.45.76,1,1.93,1.92,2.17a5,5,0,0,0,1,.06l1.54,0c1.46-.05,2.93-.12,4.39-.2l4.32-.24c.75,0,1.59-.07,2.33-.16a1.67,1.67,0,0,0,.72-.28c1.05-.73.79-2.09.79-3.15,0-.41-.08-.59.28-.79a22.4,22.4,0,0,1,3.89-.39c3.57-.16,7.16-.22,10.73-.3,7.42-.18,14.86-.23,22.28-.24s14.86.06,22.28.24c3.57.08,7.16.14,10.73.3a22.4,22.4,0,0,1,3.89.39c.36.2.28.38.28.79,0,1.06-.26,2.42.79,3.15a1.67,1.67,0,0,0,.72.28c.74.09,1.58.11,2.33.16l4.32.24c1.46.08,2.93.15,4.39.2l1.54,0a5,5,0,0,0,1-.06c.92-.24,1.48-1.41,1.92-2.17a4.74,4.74,0,0,1,.69-1,2.3,2.3,0,0,1,.34-.28,6,6,0,0,1,.94.17c1.72.42,3.46.8,5.19,1.2l3.3.78c.4.09.79.19,1.19.3l.49.14a12.75,12.75,0,0,1,1,.89l2,1.79c.69.62,1.38,1.24,2.08,1.83a6.19,6.19,0,0,0,1.67,1.14,1.6,1.6,0,0,0,1.3-.12,2.53,2.53,0,0,0,.85-2.61c0-.22-.07-.43-.11-.65a13.09,13.09,0,0,0-1.92-3.41,38.24,38.24,0,0,0-4.46-5.14c-1.65-1.62-5.45-5.32-7.88-5.55a3,3,0,0,0-2.1.62c-.16.11-.54.44-.71.54l-.49,0-1.29-.13-4.5-.47q-8.34-.82-16.72-1.35c-4.44-.28-8.9-.44-13.35-.55-7.23-.18-14.48-.24-21.71-.23s-14.48.05-21.71.23c-4.45.11-8.91.27-13.35.55q-8.37.54-16.72,1.35l-4.5.47-1.29.13-.49,0c-.17-.1-.55-.43-.71-.54a3,3,0,0,0-2.1-.62c-2.43.23-6.23,3.93-7.88,5.55a39,39,0,0,0-4.46,5.14,12.77,12.77,0,0,0-1.91,3.41c0,.22-.09.43-.12.65a2.53,2.53,0,0,0,.85,2.61,1.6,1.6,0,0,0,1.3.12,6.19,6.19,0,0,0,1.67-1.14c.7-.59,1.39-1.21,2.08-1.83l2-1.79A12.75,12.75,0,0,1,314,287.09Z" fill="#2f2e41" fill-rule="evenodd"/><path d="M380.33,281c-2.46,0-13.61,0-22.31.23-9.83.24-14.19.33-15.14.83a1.71,1.71,0,0,0-.91,1.84c0,.65.23,2.16-.48,2.25s-12.59.77-13.15.62-1.33-2.19-2.1-2.9-1-.71-2.37-.39-9.93,2.23-10.46,2.52-5.75,5.33-6.52,5.57-.74-1.07-.53-2,2.37-4.39,6-8,5.9-5.1,7.17-5.22,1.78,1.13,2.61,1.16,8.47-1,23.16-2c11.38-.74,28.05-.8,35-.79s23.61.05,35,.79c14.69.94,22.33,2,23.16,2s1.33-1.27,2.61-1.16,3.49,1.63,7.17,5.22,5.83,7,6,8,.24,2.22-.53,2-6-5.27-6.52-5.57-9.12-2.19-10.46-2.52-1.6-.32-2.37.39-1.54,2.75-2.1,2.9-12.44-.53-13.15-.62-.48-1.6-.48-2.25a1.71,1.71,0,0,0-.91-1.84c-.95-.5-5.31-.59-15.14-.83C393.94,281.06,382.8,281,380.33,281Z" fill="#f48225" data-secondary="true" fill-rule="evenodd"/><path d="M380.33,281c-2.46,0-13.61,0-22.31.23-9.83.24-14.19.33-15.14.83a1.71,1.71,0,0,0-.91,1.84c0,.65.23,2.16-.48,2.25s-12.59.77-13.15.62-1.33-2.19-2.1-2.9-1-.71-2.37-.39-9.93,2.23-10.46,2.52-5.75,5.33-6.52,5.57h0a68.66,68.66,0,0,1,4.75-6.28c2.64-3,6.79-6.22,8.62-6.93s1.31,1.27,2,1.12,10.28-1.21,23.9-2c12.1-.74,30.27-.77,34.19-.77s22.09,0,34.19.77c13.62.83,23.22,1.89,23.9,2s.15-1.83,2-1.12,6,3.91,8.62,6.93a68.66,68.66,0,0,1,4.75,6.28h0c-.77-.24-6-5.27-6.52-5.57s-9.12-2.19-10.46-2.52-1.6-.32-2.37.39-1.54,2.75-2.1,2.9-12.44-.53-13.15-.62-.48-1.6-.48-2.25a1.71,1.71,0,0,0-.91-1.84c-.95-.5-5.31-.59-15.14-.83-8.7-.21-19.84-.23-22.31-.23Zm37.12-.44c2,.95,1.72,2.4,1.63,3.52s-.18,1.63.62,1.81,11.85.74,12.44.53.77-1.77,1.9-2.84,1.89-.89,3-1.13-4.77-1-19.58-1.89Zm-74.24,0c-14.81.92-20.68,1.66-19.58,1.89s1.87.06,3,1.13,1.31,2.64,1.9,2.84,11.64-.35,12.44-.53.71-.68.62-1.81S341.26,281.55,343.21,280.6Z" fill-rule="evenodd" opacity="0.2"/><path d="M457.33,322.86c1.14,0,2.31-.1,3.44-.24a8.82,8.82,0,0,0,2-.43l.66-.27a.39.39,0,0,1,.35,0,16.78,16.78,0,0,1,1.89,1.2,28.67,28.67,0,0,1,3.08,2.52,33.31,33.31,0,0,1,2.51,2.67c.82,1,1.59,1.95,2.32,3s1.23,1.77,1.78,2.69a28.18,28.18,0,0,1,2.1,4.27,36.19,36.19,0,0,1,1.8,6.56c.38,2,.66,4,.91,6s.5,4.21.68,6.32c.06.78.12,1.56.16,2.34,0,.27,0,.54,0,.82a5.33,5.33,0,0,1,0,.56,1.9,1.9,0,0,1-.78,1.55,3.37,3.37,0,0,1-1.12.33,2.49,2.49,0,0,1-.47,0l-.85,0q-1.4,0-2.79.06c-2.71.06-5.43.09-8.14.12l-8.22.09-2.79,0h-1.2a1.25,1.25,0,0,1-1.23-.9,1.22,1.22,0,0,1,0-.27c0-.12,0-.25,0-.37l.09-.88c.1-1,.2-2,.29-3q.44-4.44.85-8.88c.25-2.7.5-5.39.76-8.09.14-1.59.3-3.18.43-4.77q.52-6.37,1-12.76A.39.39,0,0,1,457.33,322.86Z" fill="#2f2e41" fill-rule="evenodd"/><path d="M457.34,323.25c-.16,2-.82,10.27-1,12.76-.23,2.85-2.4,25.65-2.45,26s.32.68.85.71,23.52-.18,24.35-.35,1.45-.15,1.6-1.54-.74-10.58-1.75-16a29.81,29.81,0,0,0-3.85-10.69,42.51,42.51,0,0,0-6.54-8.24,24.52,24.52,0,0,0-4.89-3.66,6.37,6.37,0,0,1-.68.28A19.89,19.89,0,0,1,457.34,323.25Z" fill="#2f2e41" fill-rule="evenodd"/><path d="M480.59,361.27a4.3,4.3,0,0,0,.07-.43c.15-1.4-.74-10.58-1.75-16a29.81,29.81,0,0,0-3.85-10.69,42.51,42.51,0,0,0-6.54-8.24,28,28,0,0,0-3.19-2.6,38.5,38.5,0,0,1-6.45.83c-.48,0-1,.42-1.06,1.32s-.4,8.49-.78,14.2-2.28,21.18-2.28,21.77.74.66,1.18.66,17.54-.09,20.59-.21A11.37,11.37,0,0,0,480.59,361.27Z" fill-rule="evenodd" opacity="0.2"/><path d="M303.33,322.86c-1.14,0-2.31-.1-3.44-.24a8.82,8.82,0,0,1-2-.43l-.66-.27a.39.39,0,0,0-.35,0,16.78,16.78,0,0,0-1.89,1.2,29.69,29.69,0,0,0-3.08,2.52,33.31,33.31,0,0,0-2.51,2.67c-.82,1-1.59,1.95-2.32,3s-1.23,1.77-1.78,2.69a28.18,28.18,0,0,0-2.1,4.27,36.19,36.19,0,0,0-1.8,6.56c-.38,2-.66,4-.91,6s-.5,4.21-.67,6.32c-.07.78-.13,1.56-.17,2.34,0,.27,0,.54,0,.82a5.33,5.33,0,0,0,0,.56,1.9,1.9,0,0,0,.78,1.55,3.35,3.35,0,0,0,1.13.33,2.32,2.32,0,0,0,.46,0l.85,0q1.4,0,2.79.06c2.72.06,5.43.09,8.14.12s5.48.07,8.23.09l2.78,0H306a1.25,1.25,0,0,0,1.23-.9,1.22,1.22,0,0,0,0-.27c0-.12,0-.25,0-.37l-.09-.88c-.1-1-.19-2-.29-3-.28-3-.57-5.92-.85-8.88-.25-2.7-.5-5.39-.76-8.09-.14-1.59-.3-3.18-.43-4.77q-.53-6.37-1-12.76A.39.39,0,0,0,303.33,322.86Z" fill="#2f2e41" fill-rule="evenodd"/><path d="M303.32,323.25c.16,2,.82,10.27,1,12.76.23,2.85,2.4,25.65,2.46,26s-.33.68-.86.71-23.52-.18-24.35-.35-1.45-.15-1.6-1.54.74-10.58,1.75-16a29.81,29.81,0,0,1,3.85-10.69,42.51,42.51,0,0,1,6.54-8.24,24.52,24.52,0,0,1,4.89-3.66,6.37,6.37,0,0,0,.68.28A19.89,19.89,0,0,0,303.32,323.25Z" fill-rule="evenodd" opacity="0.2"/><path d="M326.42,284.1c-2.61.31-5.25.66-7.82,1.17-.89.18-1.8.38-2.68.64a7.47,7.47,0,0,0-1.71.69,17.08,17.08,0,0,0-3.42,3,51.51,51.51,0,0,0-3.51,4.28q-1.53,2-2.91,4.19c-.76,1.17-1.5,2.36-2.18,3.58-1.22,2.21-2.37,4.47-3.46,6.75-.71,1.49-1.39,3-2,4.54a30,30,0,0,0-1.34,3.91,15.81,15.81,0,0,0-.53,2.89,3.26,3.26,0,0,0,.44,2,4.4,4.4,0,0,0,2.2,1.45,11.67,11.67,0,0,0,2.74.54c1.49.15,3,.19,4.51.22,2.24.05,4.49,0,6.73,0,3.12,0,6.24-.06,9.35-.1q6-.08,11.95-.11l15.77-.09,31.79-.13,31.79.13,15.77.09q6,0,11.95.11c3.11,0,6.23.08,9.35.1,2.24,0,4.49,0,6.73,0,1.5,0,3-.07,4.51-.22a11.67,11.67,0,0,0,2.74-.54,4.36,4.36,0,0,0,2.2-1.45,3.19,3.19,0,0,0,.44-2,15.81,15.81,0,0,0-.53-2.89,30,30,0,0,0-1.34-3.91c-.62-1.53-1.3-3.05-2-4.54-1.09-2.28-2.24-4.54-3.46-6.75-.68-1.22-1.42-2.41-2.18-3.58q-1.38-2.15-2.91-4.19a49.58,49.58,0,0,0-3.51-4.28,17.3,17.3,0,0,0-3.41-3,7.55,7.55,0,0,0-1.72-.69c-.88-.26-1.79-.46-2.68-.64-2.57-.51-5.21-.86-7.82-1.17-.71.83-1.4,2.58-1.92,2.71s-12.44-.53-13.15-.62-.48-1.6-.48-2.25a2.21,2.21,0,0,0-.21-1.21c-5.93-.38-11.87-.63-17.8-.79q-10.17-.29-20.35-.18-10.17-.09-20.35.18c-5.93.16-11.87.41-17.8.79a2.21,2.21,0,0,0-.21,1.21c0,.65.23,2.16-.48,2.25s-12.59.77-13.15.62S327.13,284.93,326.42,284.1Z" fill="#2f2e41" fill-rule="evenodd"/><path d="M326.84,284.69c.56.87,1.08,2,1.5,2.12s12.44-.53,13.15-.62.48-1.6.48-2.25a5.42,5.42,0,0,1,0-.57c11-.7,24.3-1.11,38.35-1,14.05-.13,27.38.28,38.35,1a5.42,5.42,0,0,1,0,.57c0,.65-.23,2.16.48,2.25s12.59.77,13.15.62.94-1.25,1.5-2.12c6.56.76,11,1.63,12.3,2.45,3.85,2.37,9.51,10.69,11.79,14.81s5.78,11.17,6.76,15.05.65,4.68-1.72,5.56-8.71.83-23.11.66c-13.76-.17-55.84-.32-59.51-.33s-45.75.16-59.51.33c-14.4.17-20.74.23-23.11-.66S295,320.88,296,317s4.48-10.93,6.76-15.05,7.94-12.44,11.79-14.81C315.87,286.32,320.28,285.45,326.84,284.69Z" fill="#e6e7e8" fill-rule="evenodd"/><path d="M380.33,285.19q-15.87.06-31.73.73c-5.53.24-11.08.53-16.6,1-3.49.29-7.06.65-10.51,1.28a27.4,27.4,0,0,0-6.09,1.69,9.1,9.1,0,0,0-3.26,2.29,18.89,18.89,0,0,0-1.29,1.66c-.57.8-1.12,1.62-1.65,2.44-1.33,2.05-2.6,4.15-3.8,6.28-1.34,2.35-2.65,4.78-3.76,7.24-.51,1.16-1.64,3.72-1.44,5,.36,2.3,3.06,3.47,5,4.08a31.1,31.1,0,0,0,5.16,1.07c2.26.3,4.55.46,6.83.54,1.64.06,3.3.07,4.94.08h7.41q9.46,0,18.94-.14,15.92-.15,31.83-.4,15.92.24,31.83.4,9.46.1,18.94.14h7.41c1.64,0,3.3,0,4.94-.08,2.28-.08,4.57-.24,6.83-.54a31.1,31.1,0,0,0,5.16-1.07c2-.61,4.66-1.78,5-4.08.2-1.27-.92-3.83-1.44-5-1.11-2.46-2.42-4.89-3.76-7.24-1.2-2.13-2.47-4.23-3.8-6.28-.53-.82-1.08-1.64-1.65-2.44a18.89,18.89,0,0,0-1.29-1.66,9.1,9.1,0,0,0-3.26-2.29,27.4,27.4,0,0,0-6.09-1.69c-3.45-.63-7-1-10.51-1.28-5.52-.47-11.07-.76-16.6-1q-15.85-.69-31.73-.73Z" fill="#2f2e41" fill-rule="evenodd"/><path d="M380.33,319.39c-7.59.11-53.81.78-63.1.46-10.13-.36-15.93-2.14-16.41-5.16s8.95-18.9,11.79-22.09,9.12-4.86,36-6.05c11.79-.52,22.92-.69,31.7-.73s19.91.21,31.7.73c26.9,1.19,33.18,2.85,36,6.05s12.26,19.07,11.79,22.09-6.28,4.8-16.41,5.16C434.14,320.17,387.92,319.5,380.33,319.39Z" fill="#e6e7e8" fill-rule="evenodd" opacity="0.53"/><path d="M380.33,319.39c-2.95,0-11.75.17-21.95.29-.39-1.56-1.47-4.66-3.94-6.05-3.38-1.9-16.3-1.07-20.86-.77-4.17.27-6.66,5-7.32,7.08-4,0-7.23,0-9-.09l-1-.05c1.47-3.94,6.05-16.24,7.49-19,1.72-3.26,2.43-5.33,5-6.52a14.6,14.6,0,0,1,4.85-1.3,11.11,11.11,0,0,0,5.4,1.84c2.72,0,33.53-2.14,35.13-2.37a6.3,6.3,0,0,0,2.72-1.13l1.13.53s-.18,1.43.17,1.54,1.66.42,1.66.42l-.12,3.32s-7.82-.6-9.83.77-1.66,5.51.36,5.92c1.26.26,6.49.38,10.19.44s8.93-.18,10.19-.44c2-.41,2.37-4.56.36-5.92s-9.83-.77-9.83-.77l-.12-3.32s1.3-.3,1.66-.42.17-1.54.17-1.54l1.13-.53a6.37,6.37,0,0,0,2.72,1.13c1.6.23,32.41,2.37,35.14,2.37a11.1,11.1,0,0,0,5.39-1.84,14.6,14.6,0,0,1,4.85,1.3c2.55,1.19,3.26,3.26,5,6.52,1.44,2.73,6,15,7.49,19l-1,.05c-1.8.06-5,.09-9,.09-.66-2.08-3.15-6.81-7.32-7.08-4.56-.3-17.48-1.13-20.86.77-2.47,1.39-3.54,4.49-3.94,6.05C392.08,319.56,383.28,319.43,380.33,319.39Z" fill="#f1f2f2" fill-rule="evenodd" opacity="0.52"/><rect x="455.68" y="379.73" width="10.02" height="1.93" transform="translate(-72.11 651.43) rotate(-66.51)" fill="#686175" data-primary="true"/><rect x="641.04" y="374.38" width="1.93" height="11.94" transform="translate(-93.16 252.43) rotate(-20.77)" fill="#686175" data-primary="true"/><path d="M701.94,442s3.23-5.61,8.4-6.47h29.11s4.31.21,4.31,5.6c0,0,2.58,17.68-10.35,18.76l-22.2.65Z" fill="#686175" data-primary="true"/><path d="M392.37,460H369.52a7.28,7.28,0,0,1-3.89-1.09c-2.4-1.51-5.83-4.9-6-11.95,0,0-.95-12.8,6.88-11.86l20.71-.2a19,19,0,0,1,10.53,2.86,8.8,8.8,0,0,1,3.85,4.46Z" fill="#686175" data-primary="true"/><path d="M678,609.17h68.55a0,0,0,0,1,0,0v37.32a17.6,17.6,0,0,1-17.6,17.6H695.59a17.6,17.6,0,0,1-17.6-17.6V609.17A0,0,0,0,1,678,609.17Z" fill="#6d6e71"/><path d="M357,609.17h68.55a0,0,0,0,1,0,0v38.39A16.53,16.53,0,0,1,409,664.09H373.51A16.53,16.53,0,0,1,357,647.56V609.17A0,0,0,0,1,357,609.17Z" fill="#6d6e71"/><path d="M758,579.22v27.71a7.4,7.4,0,0,1-7.39,7.39H352.24a7.4,7.4,0,0,1-7.39-7.39V578.46a10.65,10.65,0,0,1,6.91-10V548.68c-1-41,4.94-50.34,4.94-50.34,3.94-19.25,31.09-29.13,31.09-29.13l37.83-75.35c3.73-9.57,20.15-10.71,29.65-10.54a121,121,0,0,0,14.75-.55c46.05-4.49,153.43-1.41,153.43-1.41l34.79,2.72c15.31-.24,19.76,10.13,19.76,10.13l38,76.49a58.21,58.21,0,0,1,18.24,11.37,49.71,49.71,0,0,1,15.37,29.6c3,20.42,2.18,46.71,1.66,57.11A11.44,11.44,0,0,1,758,579.22Z" fill="#686175" data-primary="true"/><path d="M349.07,570.11s1.26,4.72,4.72,5.35H750.41s3.46-1.36,4.08-4.2c0,0-2-2.36-3.21-2.48l-399.52-.31A10.86,10.86,0,0,0,349.07,570.11Z" opacity="0.2"/><path d="M745.54,497.72s-62.61.12-77.5,23.51a9.54,9.54,0,0,0,1.65,12.26c7.14,6.16,27.41,13.16,81.78,7.73C751.47,541.22,752.76,510.49,745.54,497.72Z" opacity="0.2"/><path d="M356.68,498.34s62.74-1.93,78.26,21.47a10.48,10.48,0,0,1,1.6,8c-1.19,5.3-6.47,13.26-26.92,15.42,0,0-44.79,2.59-57.75-3C351.87,540.29,350.39,510.43,356.68,498.34Z" opacity="0.2"/><path d="M381.85,495.5s57.38,7.4,59.23,30.35c0,0,1.85,9.26-11.1,14.44l10.73,29.24H662.07l12.22-29s-18.76-8.15-12.1-19c0,0,4.94-18.27,59.72-25.42l-21.71-30.6L403,465.89Z" opacity="0.2"/><path d="M646.16,513.53,637,566.28H466.6l-10.15-52.75-22.65-.34s-5.18-3.62-6.91-4.61c0,0,203.16-4.94,248.14.8,0,0-4.63,1.67-7.22,4.81Z" opacity="0.2"/><rect x="473.22" y="529.8" width="156.33" height="31.73" rx="2.34" fill="#fff"/><path d="M344.93,603.67a5.68,5.68,0,0,0,6.11,2.54l400.5.5s5.91,0,6.4-3c0,0,1.34,9.86-7.35,10.61H352.24S344.48,615.5,344.93,603.67Z" opacity="0.2"/><path d="M403,465.89,435,400.19a10,10,0,0,1,8.36-5.63c28.47-1.9,154.28-9.5,216.4.51a8,8,0,0,1,5.8,4.23l34.63,66.22Z" fill="#e6e7e8" opacity="0.2"/><path d="M463.62,356.11h55.15a0,0,0,0,1,0,0v21.76a0,0,0,0,1,0,0H463.62a10,10,0,0,1-10-10v-1.86A10,10,0,0,1,463.62,356.11Z" fill="#686175" data-primary="true"/><path d="M594,356.11H649.2a0,0,0,0,1,0,0v21.76a0,0,0,0,1,0,0H594a10,10,0,0,1-10-10v-1.86A10,10,0,0,1,594,356.11Z" transform="translate(1233.28 733.97) rotate(-180)" fill="#686175" data-primary="true"/><rect x="519.06" y="356.11" width="65.11" height="21.76" fill="#fff"/><path d="M407,465.53s-.4-15.69,8.85-15.29H428.7V441.8a14.89,14.89,0,0,1,14.89-14.89h63.55A14.89,14.89,0,0,1,522,441.8v7.64h59.54V441a14.88,14.88,0,0,1,14.88-14.88H660A14.88,14.88,0,0,1,674.89,441V449H683a12.23,12.23,0,0,1,11.41,7.45,33.54,33.54,0,0,1,2.22,9.44Z" opacity="0.2"/><path d="M707.33,440c-1.71,1.07-3.58,3.57-3.67,5.6l6,11.64h21.48a10.4,10.4,0,0,0,10.39-8.6l0-.24s1.29-11.64-6.47-11l-20.78.38A12.87,12.87,0,0,0,707.33,440Z" opacity="0.2"/><path d="M400.2,444.15a12.33,12.33,0,0,0-10-6.4H366.29s-5.69-.95-4.27,11.62c0,0,1.19,7.35,7.59,8.54h23.71Z" opacity="0.2"/></svg>