<svg id="f9d06778-062e-458d-a1cc-9e3b347644e1" data-name="Layer 1" xmlns="http://www.w3.org/2000/svg" width="865.76" height="682.89" viewBox="0 0 865.76 682.89"><path d="M419.34,107.94C372.23,140,182.39,75.44,174.79,300.44s284,272.71,353.1,279.23S735.18,419.16,750.37,287,662-57.19,419.34,107.94Z" fill="#e4e1f5"/><path d="M258.64,106.42c-1.22.83-6.14-.84-6.33,5s7.35,7.06,9.14,7.23,5.37-4.16,5.76-7.58S264.93,102.15,258.64,106.42Z" fill="#e4e1f5"/><path d="M291.14,121.13c-1.42.41-5.58-2.7-7.57,2.79s4.82,9,6.47,9.7,6.39-2.3,7.82-5.43S298.43,119,291.14,121.13Z" fill="#e4e1f5"/><path d="M244.1,505.84c-1.22.83-6.13-.84-6.33,5s7.36,7.07,9.15,7.24,5.36-4.16,5.76-7.58S250.39,501.56,244.1,505.84Z" fill="#e4e1f5"/><path d="M750.68,400.06c-1.22.83-6.13-.84-6.33,5s7.36,7.06,9.15,7.23,5.36-4.16,5.76-7.58S757,395.79,750.68,400.06Z" fill="#e4e1f5"/><path d="M714.82,400.3c-1.45.27-5.28-3.24-7.8,2s3.9,9.43,5.47,10.3,6.58-1.65,8.32-4.63S722.3,398.91,714.82,400.3Z" fill="#e4e1f5"/><path d="M551.7,535.77c-1.22.83-6.14-.84-6.33,5s7.35,7.07,9.14,7.24,5.37-4.16,5.76-7.58S558,531.49,551.7,535.77Z" fill="#fff"/><path d="M253.09,440.82c-1.46.21-5.13-3.46-7.88,1.69s3.49,9.58,5,10.52,6.65-1.37,8.51-4.26S260.62,439.75,253.09,440.82Z" fill="#fff"/><path d="M326.19,136.57c-1.47.21-5.14-3.46-7.89,1.68s3.49,9.59,5,10.53,6.65-1.37,8.52-4.27S333.71,135.5,326.19,136.57Z" fill="#fff"/><path d="M369,96.16c-1.95.34-7-4.43-10.5,2.58s5.07,12.71,7.16,13.91,8.87-2.1,11.25-6.06S379.09,94.42,369,96.16Z" fill="#e4e1f5"/><path d="M697.52,474.91c-1.86.32-6.7-4.23-10,2.46s4.84,12.12,6.83,13.26,8.46-2,10.73-5.78S707.11,473.25,697.52,474.91Z" fill="#e4e1f5"/><path d="M190,457.93c-1.37,1.18-7.61-.18-7,7s10,7.6,12.17,7.56,6-5.82,6-10S197.05,451.84,190,457.93Z" fill="#e4e1f5"/><path d="M226.65,423.33c-1.37,1.19-7.61-.18-7,7s10,7.61,12.17,7.57,6-5.82,6-10.06S233.74,417.24,226.65,423.33Z" fill="#fff"/><path d="M682.29,87.66c-1.68.69-7.17-2.57-8.88,4.38s7.05,10.37,9.16,11,7.51-3.64,8.85-7.65S690.94,84.11,682.29,87.66Z" fill="#fff"/><path d="M669.4,121.17c-1.37,1.18-7.61-.18-7,7s10,7.61,12.17,7.57,6-5.82,6-10.06S676.49,115.07,669.4,121.17Z" fill="#fff"/><ellipse cx="458.9" cy="626.96" rx="172.68" ry="14.62" fill="#e4e1f5"/><path d="M727.57,240.87l-7,.28h-.73c-4.42-.12-8.85-.23-13.26-.27-1.81,0-3.6,0-5.41,0,0-2.88,0-5.78,0-8.66,0-3.12.18-6.24.28-9.35l6.23.24,7,.18,13.93.22c4.63.06,9.28.06,13.92,0,1.81,0,3.62,0,5.44-.08,0-.89-.06-1.78-.11-2.68l-5.33-.08c-4.64-.06-9.29-.06-13.92,0l-13.93.22-7,.18-7,.27h0a.74.74,0,0,0-.71.75c.11,3.38.26,6.75.3,10.14.05,2.88.05,5.77,0,8.65q-3.79,0-7.61,0l-13.92.22-7,.18-7,.27h-.05a.73.73,0,0,0-.7.75c.1,3.37.26,6.75.3,10.12s.05,6.76,0,10.14v0a.45.45,0,0,0,.45.45h0c4.67.09,9.38.36,14.12.51s9.5.22,14.2.14,9.37-.19,14-.37h0c.11,3.12.24,6.25.27,9.37.06,3.38.06,6.76,0,10.14a.47.47,0,0,0,.46.46h0c4.66.1,9.37.37,14.11.52s9.5.22,14.19.13h1.33c.16-.73.32-1.44.49-2.17l-2.74-.05c-4.58-.08-9.12-.08-13.64.14s-8.82.39-13.28.49c-.06-3.22-.06-6.43,0-9.65s.17-6.23.27-9.34l6.24.24,7,.18,13.93.22c2.16,0,4.34.05,6.51.05L743,261c-2.77,0-5.52.05-8.28.17l-12.88.2-.74,0c0-1.89,0-3.79,0-5.68.05-1,.12-2,.16-3,.15-3,.32-6.13.42-9.25q3.74,0,7.45,0c3.48-.06,6.94-.15,10.38-.25l7.07.11c.15-.94.28-1.86.41-2.8l-12.4.2Zm-7.43,20.53-5.29.14-7,.28h0a.6.6,0,0,0-.24.05l-1.5-.05c-4.69-.19-9.3-.31-13.87-.37s-9.12-.08-13.65.14-8.82.39-13.27.49q-.09-4.81,0-9.65c0-3.11.17-6.23.27-9.34l6.24.24,7,.18,13.92.22c4.65.06,9.28.06,13.93,0q6.42-.07,12.84-.28c.09,2.87.26,5.76.41,8.71l.32,5.69C720.18,259,720.17,260.22,720.14,261.4Z" fill="#dad7f2"/><path d="M194.14,339.4l-12.4-.2c.12.94.26,1.86.41,2.8l7.07-.11c3.44.1,6.9.19,10.38.25q3.72.06,7.45,0c.1,3.12.27,6.21.42,9.25,0,1,.11,2,.16,3,0,1.9,0,3.8,0,5.69l-.74,0-12.88-.2c-2.76-.12-5.51-.17-8.28-.17l.72,3.05c2.17,0,4.35,0,6.51-.05l13.93-.22,7-.18,6.24-.24c.1,3.11.23,6.23.27,9.34s0,6.43,0,9.65c-4.46-.1-8.89-.36-13.28-.49s-9.06-.22-13.64-.14l-2.74.05c.17.73.33,1.44.49,2.17h1.33c4.69.09,9.44.09,14.19-.13s9.45-.43,14.11-.52h0a.47.47,0,0,0,.46-.46c-.08-3.38-.08-6.76,0-10.14,0-3.12.16-6.25.27-9.37h0c4.6.18,9.27.29,14,.36s9.45.08,14.2-.13,9.45-.42,14.12-.52h0a.45.45,0,0,0,.45-.44v0q-.09-5.07,0-10.14c0-3.37.2-6.75.3-10.12a.73.73,0,0,0-.7-.75h-.05l-7-.27-7-.18L236,339.59q-3.81,0-7.61,0-.08-4.32,0-8.66c0-3.38.19-6.75.3-10.13A.74.74,0,0,0,228,320h-.05l-7-.27-7-.18-13.93-.22c-4.63-.06-9.28-.06-13.92,0l-5.33.08c-.05.9-.09,1.79-.11,2.68l5.44.08c4.64.07,9.29.07,13.92,0L214,322l7-.18,6.23-.24c.1,3.11.24,6.23.28,9.34,0,2.89,0,5.79,0,8.67-1.81,0-3.6,0-5.41.05-4.41,0-8.84.14-13.27.27h-.72l-7-.27Zm14.34,17.16.32-5.69c.15-2.95.31-5.84.41-8.71q6.42.19,12.84.28c4.65.06,9.28.06,13.93,0l13.92-.22,7-.18,6.24-.24c.1,3.11.23,6.23.27,9.34s.05,6.44,0,9.65c-4.46-.1-8.88-.36-13.27-.49-4.54-.22-9.06-.22-13.65-.14s-9.18.18-13.87.37c-.5,0-1,0-1.5.05a.6.6,0,0,0-.24-.05h-.05l-7-.28-5.29-.14C208.5,358.93,208.49,357.74,208.48,356.56Z" fill="#dad7f2"/><path d="M589.92,94.52a1.37,1.37,0,0,1-1.37-1.37V54a1.37,1.37,0,0,1,2.74,0V93.15A1.37,1.37,0,0,1,589.92,94.52Z" fill="#d4d3ef"/><path d="M660.5,387.88c-3.71.22-7.53.42-11.43.56s-7.84.25-11.82.3-8,.07-12-.11-8-.36-11.94-.43h0a.4.4,0,0,1-.38-.4h0c.06-2.86.06-5.72,0-8.58s-.17-5.71-.26-8.57a.61.61,0,0,1,.59-.63h0l5.89-.23,5.89-.15,11.79-.18q5.88-.09,11.78,0t11.78.25h.05a.93.93,0,0,1,.9.95c-.07,3-.25,5.92-.38,8.81-.07,1.45-.16,2.87-.25,4.27Zm-.16-.16-.48-8.73c-.14-2.83-.32-5.6-.39-8.34l.95,1q-5.89.18-11.78.25t-11.78,0l-11.79-.19-5.89-.15-5.89-.23.64-.64c-.09,2.86-.22,5.72-.26,8.57s0,5.72,0,8.58l-.4-.4c3.91-.08,7.78-.31,11.62-.43s7.67-.19,11.55-.12,7.78.16,11.74.31S656.2,387.49,660.34,387.72Z" fill="#dad7f2"/><path d="M682.45,405c-3.71.22-7.54.41-11.43.55s-7.85.25-11.82.31-8,.07-12-.11-8-.36-11.94-.44h0a.39.39,0,0,1-.38-.4h0q.09-4.28,0-8.57c0-2.86-.16-5.71-.25-8.57a.62.62,0,0,1,.59-.64h0l5.89-.23,5.89-.15,11.78-.19q5.9-.07,11.79,0c3.92,0,7.85.13,11.78.25h0a.93.93,0,0,1,.9.95c-.07,3-.25,5.92-.39,8.81-.06,1.44-.15,2.87-.24,4.27Zm-.16-.17-.49-8.72c-.13-2.83-.31-5.6-.38-8.34l1,.95q-5.89.18-11.78.25t-11.79,0L647,388.82l-5.89-.16-5.89-.23.63-.63c-.08,2.86-.21,5.71-.25,8.57s0,5.72,0,8.57l-.4-.39c3.91-.08,7.78-.31,11.62-.44s7.67-.18,11.55-.11,7.77.16,11.74.31S678.15,404.64,682.29,404.86Z" fill="#dad7f2"/><path d="M641.22,422.17c-3.72.23-7.54.42-11.44.56s-7.84.25-11.82.31-8,.06-12-.12-8-.35-11.94-.43h0a.4.4,0,0,1-.39-.4h0c.06-2.86.06-5.71,0-8.57s-.17-5.72-.25-8.58a.61.61,0,0,1,.59-.63h0l5.89-.23,5.9-.15,11.78-.19c3.93-.05,7.85-.06,11.78,0s7.86.13,11.78.26h.06a.92.92,0,0,1,.89.94c-.07,3-.24,5.92-.38,8.81-.07,1.45-.15,2.87-.24,4.27Zm-.17-.16-.48-8.73c-.14-2.82-.31-5.59-.39-8.34l1,.95q-5.88.19-11.78.26c-3.93.06-7.85.05-11.78,0L605.79,406l-5.9-.15-5.89-.23.64-.64c-.09,2.86-.22,5.72-.25,8.58s0,5.71,0,8.57l-.4-.4c3.91-.07,7.78-.31,11.63-.43s7.66-.19,11.55-.11,7.77.15,11.74.3S636.91,421.79,641.05,422Z" fill="#dad7f2"/><path d="M635.32,405c-3.71.22-7.54.41-11.43.55s-7.85.25-11.83.31-8,.07-12-.11-8-.36-11.94-.44h0a.38.38,0,0,1-.38-.4h0q.09-4.28,0-8.57c0-2.86-.16-5.71-.25-8.57a.62.62,0,0,1,.59-.64h.05l5.89-.23,5.89-.15,11.78-.19q5.9-.07,11.79,0c3.92,0,7.85.13,11.78.25h0a.93.93,0,0,1,.9.95c-.07,3-.25,5.92-.39,8.81-.06,1.44-.15,2.87-.24,4.27Zm-.16-.17-.49-8.72c-.14-2.83-.31-5.6-.38-8.34l1,.95q-5.9.18-11.78.25t-11.79,0l-11.78-.18-5.89-.16-5.89-.23.63-.63c-.09,2.86-.21,5.71-.25,8.57s0,5.72,0,8.57l-.39-.39c3.9-.08,7.78-.31,11.62-.44s7.67-.18,11.55-.11,7.77.16,11.74.31S631,404.64,635.16,404.86Z" fill="#dad7f2"/><path d="M608.85,134.39H571a2.26,2.26,0,0,1-2.25-2.26l5.63-37.86A2.26,2.26,0,0,1,576.63,92h26.58a2.26,2.26,0,0,1,2.26,2.25l5.63,37.86A2.25,2.25,0,0,1,608.85,134.39Z" fill="#dad7f2"/><path d="M578.4,134.39a11.31,11.31,0,0,0-.11,1.55,11.63,11.63,0,1,0,23.26,0,11.31,11.31,0,0,0-.11-1.55Z" fill="#d4d3ef"/><path d="M233.87,200.05a1.38,1.38,0,0,1-1.38-1.38V159.49a1.38,1.38,0,1,1,2.75,0v39.18A1.37,1.37,0,0,1,233.87,200.05Z" fill="#d4d3ef"/><path d="M252.8,239.91H214.94a2.26,2.26,0,0,1-2.26-2.25l5.64-37.86a2.25,2.25,0,0,1,2.25-2.25h26.59a2.25,2.25,0,0,1,2.25,2.25l5.64,37.86A2.25,2.25,0,0,1,252.8,239.91Z" fill="#dad7f2"/><path d="M222.35,239.91a11.45,11.45,0,0,0-.12,1.56,11.64,11.64,0,0,0,23.27,0,11.45,11.45,0,0,0-.12-1.56Z" fill="#d4d3ef"/><path d="M442,477.69c10.13-38.93,25.71-76.43,28.11-120.14l-30.75-.47-23.63-.35s-6.91,68.45-9.81,124.43c-.8,15.5,10.25,59.93,15.44,93.69,1.87,12.3,5.94,33.13,8.93,40.88l20.26,2.91c0-9,4.39-18.46,2.8-28.24C453.29,560.34,446.9,509,442,477.69Z" fill="#2c2e63"/><path d="M446.29,462.18c7.89-27.23,17.29-54.25,21.64-83.75C433.11,392.84,434.22,438.27,446.29,462.18Z" opacity="0.2"/><path d="M516,592.87c-6.6-33.27-10.16-93.71-16.65-116.31-3.67-38.78,3.09-83.73-8.52-118.78l-57.68-1s11.52,69.79,26.76,125.7c2.83,10.34,14.39,61.6,25.24,95.47,3.94,12.29,8.51,30,12.83,37.84l20.41,2.9C526.72,612.71,517.3,599.68,516,592.87Z" fill="#2c2e63"/><path d="M451.24,611.33c-.75,7.31,9.25,20.5.46,20.5H422.17c-5.85,0-12.54.58-9.51-3.91,1.34-2,18.78-2.64,17.57-12.23C437.66,608,451.24,611.33,451.24,611.33Z" fill="#2761d3"/><path d="M519.32,611.33c-.75,7.31,9.25,20.5.47,20.5H493.45c-5.86,0-12.55.58-9.52-3.91,1.33-2,13.75-5.7,12.52-15.28C503.88,604.91,519.32,611.33,519.32,611.33Z" fill="#2761d3"/><path d="M385,344.32s.92,9.49-.49,15.12a12.07,12.07,0,0,1,1,2.56s3.44,6.4,8.91,2.25a9.42,9.42,0,0,0,2.56-3.05c1-1.8,2.91-5,4.52-5.56a.36.36,0,0,0,.15-.59c-1.24-1.35-4.36-5.24-4.08-10.05Z" fill="#ffc596"/><path d="M384.49,359.44s-2.47-.38-4.22,11.27c0,0-5.11,16-9.33,22.36A9.42,9.42,0,0,0,369,398.7a6.94,6.94,0,0,1,7.33-4.07,8.87,8.87,0,0,1,3.23,1.11c.92.5,2.76.73,5.46-2.32a35.28,35.28,0,0,0,9.83-13.25,30.44,30.44,0,0,1,4.56-7.39,44.53,44.53,0,0,1,8.15-7.88s.88-.71-.35-3c0,0-3.41-9.54-5.76-6.27,0,0-2.11,1-4.52,5.56,0,0-3.16,6-8.33,3.67,0,0-2.35-1.48-2.7-3.32A5.35,5.35,0,0,0,384.49,359.44Z" fill="#ff2045"/><path d="M369,398.7s1.23,9,10.93,5.61c0,0,4.92-1.94,10.74-10.47,0,0,9.05-14.75,14.74-20.31,0,0,5.72-5.88,2.15-8.63,0,0-9,6.82-11.72,13.29,0,0-3.92,10.16-10.82,15.23,0,0-2.24,3.43-5.46,2.32C379.56,395.74,372.55,391.67,369,398.7Z" fill="#fff"/><path d="M394,276.78s19.4,26.39,16.69,77.22c0,0-6.52,39.09,2.32,41.91,0,0,24.45,12.8,78.38-3.5,0,0,7.76,1.17,6.21-9.7l-9.31-68.29-7.64-75.15L446,230.22a122.38,122.38,0,0,0-52,46.56Z" fill="#2761d3"/><path d="M466.24,348s2.53,9.11,1.24,13.21c0,0,8,12.39,13.42-1.23,0,0,1.45-4.34,3.51-5.37,0,0-7.23-4.13-6.19-9.92Z" fill="#ffc596"/><path d="M471,364.94c-3.78-3.27-3.51-3.72-3.51-3.72-3.72,1-2.07,8.88-2.07,8.88s-2.68,15.7-5.37,24.58c0,0-2.47,5.16-1.44,7.43,0,0,2.48-7.85,11.36-3.92,0,0,6.61-3.9,10.31-15.85a51.83,51.83,0,0,1,4.72-11,49,49,0,0,1,5.05-7.27,3.37,3.37,0,0,0,.23-4.17c-1.8-2.53-4.65-6.11-5.86-5.3,0,0-.83-.62-3.51,5.37C480.9,360,477.18,370.31,471,364.94Z" fill="#ff2045"/><path d="M458.6,402.11c-.36.85,1.65,8.47,12,3.72,0,0,3.52-1.45,8.88-13,0,0,4.55-12.39,10.12-19.41,0,0,6.55-5.71.7-13.49,0,0,1.69,1.46-.23,4.17,0,0-7.9,10.76-8.73,14.27,0,0-3.92,15.7-11.35,19.83C470,398.19,462.11,393.64,458.6,402.11Z" fill="#fff"/><path d="M407.61,219.37S380.56,251,380.56,261.31l-6.38,77.54a4.92,4.92,0,0,0,4.71,5.3l17.36.65a3.73,3.73,0,0,0,3.85-3.39c.93-10.09,3.15-39.36-.37-54.33a6.63,6.63,0,0,1,2.23-6.61c4.4-3.7,12.87-13,25.35-35.65,0,0,.2-9.21-2.62-12.95Z" fill="#2c2e63"/><polygon points="406.25 165.33 406.25 192.58 420.19 192.29 420.04 164.51 406.25 165.33" fill="#ffc596"/><path d="M487.35,225.37a2,2,0,0,1-.86,1.11c-1.21.65-3.77.44-6.72-3.1-1.34-1.61-3.85-2.6-6-3.94s-3.65-2.8-5.91-3.68-6.95-3.22-11.73-1.36c-1,.4-2,.81-3.06,1.13a53,53,0,0,1-30.45.19,3.37,3.37,0,0,1-2.39-3.2l-.38-100.64c6.21-8.54,19.6-8.93,19.6-8.93s13.84,6,19.59-2.71c0,0,2.62,6.6,14.17,12.22,0,0,10.28,4.27,16.88,10.86,0,0-2.14,39.46-3.36,65.53a123.19,123.19,0,0,0,.66,20.05C488,214.77,488.54,222.12,487.35,225.37Z" fill="#ff2045"/><path d="M419.83,111.88s-13,3.68-14.55,25l-.3,28.32a.67.67,0,0,0,.67.69l15.15-1.07Z" fill="#ff2045"/><path d="M419.83,111.88s-13,3.68-14.55,25l-.3,28.32a.67.67,0,0,0,.67.69l15.15-1.07Z" opacity="0.2"/><path d="M434,86a14.35,14.35,0,0,1-6.08,7.76,15.79,15.79,0,0,0-5.48,5,18.55,18.55,0,0,0-2.6,13.15s3.3,14.74-5.82,27.16c0,0-5.43,5.43,1,4.65a42,42,0,0,1,7.57.78s9.89,2.13,10.67-13a54,54,0,0,1,3.3-18.62S445.43,96.47,434,86Z" fill="#2c2e63"/><path d="M434.26,86.25s6.92,8,5.17,16.7c0,0,14.16,5.82,19.59-2.71,0,0-2.86-11.93.07-21.1C459.09,79.14,450.81,71.38,434.26,86.25Z" fill="#ffc596"/><path d="M427.23,243.78A22.06,22.06,0,0,0,424.78,232l.05,0a6.15,6.15,0,0,1,2.76-1.22c1.57-.26,3.71-1.79,4.79-7l.5-8.68a3.84,3.84,0,0,0,3.44,2.82c2.81.2,4-4.41,4-4.41s6.16,3.88,6.69,9c0,0-2.64,20.43-2.64,24.48,0,0-6.52,8.07-16.25-1A2.77,2.77,0,0,1,427.23,243.78Z" fill="#ffc596"/><path d="M499.57,305.5l-18.62.39-.27-66.62S505.78,257.38,499.57,305.5Z" fill="#2761d3"/><path d="M499.57,305.5l-18.62.39-.27-66.62S505.78,257.38,499.57,305.5Z" opacity="0.2"/><path d="M486.75,226.29S466,267.08,466.2,276c0,0,14.94,44,15.91,52.58,0,0,3.69,13-.39,14.93a171.56,171.56,0,0,1-21,5.82s-1.14,1.15-2.53-2.85a17.28,17.28,0,0,1-.57-2.14l-10.66-50a48.72,48.72,0,0,0-1.33-4.91c-1.29-4-3.69-12.46-1.79-15.53,0,0,.41-45.26,3.08-51.36l2.5-6.1a29.49,29.49,0,0,0,6.64-2s4.19-1.79,13.88,2.39a69.72,69.72,0,0,1,7.73,4.69,38.33,38.33,0,0,1,4.44,3.67S484.64,227.79,486.75,226.29Z" fill="#2c2e63"/><path d="M376.52,310.18s-9.33-46.19,0-60c0,0,15.1-17.55,20.66-15.77,0,0,.66,3.11-5.78,6.44,0,0,16.21,3.78,12.22,6.22,0,0,4.95,2.34,0,4.44,0,0-.23,2.89-5.11,1.78,0,0-.22,4.22-7.77,1.11,0,0-3.82-1.68-7.07-1a.85.85,0,0,0-.59.44,21.91,21.91,0,0,0-2.56,11Z" fill="#ffc596"/><path d="M438.46,93.49A28.85,28.85,0,0,0,434.87,87l18.92-3.55S447,92.86,438.46,93.49Z" fill="#ffa072"/><path d="M429.53,69.58s-2.32-5.82,4.66-9.31c0,0-.47,4.18-2.66,6.41C431.53,66.68,430.31,68.32,429.53,69.58Z" fill="#2c2e63"/><path d="M426.39,235.83s-.75-1.77-1.15-2.84a2.37,2.37,0,0,1,2.16-1.43s3-1.23,4.6-6.14C432,225.42,432.66,234.34,426.39,235.83Z" fill="#ffa072"/><path d="M468.53,178.23l-10.86,34.14s-3.88,10.09-7.76,16.11l-7,13a9.56,9.56,0,0,0-.63,1.43,16.48,16.48,0,0,1-1.4,3,1,1,0,0,0,1.25,1.47c1.29-.59,3.49-2.84,7.16-9.27,0,0-2.13,24.44.59,23.47,0,0,1.55,1.36,2.52-13.58h0a1.78,1.78,0,0,1,.86,1.69c-.31,3.32-1,13,.88,13.44,0,0,1.35,2.7,2.32-11.84a.18.18,0,0,1,.36,0c.26,4.29.91,10.8,2.37,8.94,0,0,1,0,1-12.8,0,0-.39,10.09,1.74,7.57,0,0,.6,1.67,1.36-10.68a14.32,14.32,0,0,1,.39-7,43.23,43.23,0,0,0-.19-6.79s0-2.72,2.52-7.18c0,0,14.36-22.7,20.18-39.19C486.19,184.24,474.13,188,468.53,178.23Z" fill="#ffc596"/><path d="M473.19,112.46s-5,13.54-4.37,37.08a17.83,17.83,0,0,1-3.4,11,52.7,52.7,0,0,0-4.71,7.34,1.17,1.17,0,0,0,.82,1.65,7,7,0,0,1,4.18,2.68,9.74,9.74,0,0,1,1.86,3.79c.78,3,4.36,11.14,20.13,8.07a4.93,4.93,0,0,0,3.5-2.62c1.72-3.47,4.23-12,3.72-32,0,0,3.1-20.37-4.85-26.19C490.07,123.32,485.22,117.89,473.19,112.46Z" fill="#ff2045"/><path d="M473.19,112.46s-5,13.54-4.37,37.08a17.83,17.83,0,0,1-3.4,11,52.7,52.7,0,0,0-4.71,7.34,1.17,1.17,0,0,0,.82,1.65,7,7,0,0,1,4.18,2.68,9.74,9.74,0,0,1,1.86,3.79c.78,3,4.36,11.14,20.13,8.07a4.93,4.93,0,0,0,3.5-2.62c1.72-3.47,4.23-12,3.72-32,0,0,3.1-20.37-4.85-26.19C490.07,123.32,485.22,117.89,473.19,112.46Z" opacity="0.2"/><path d="M464.39,277.25a1.75,1.75,0,0,1,1.75,1.33c2.06,8.84,13.64,56.26,24.9,54.86,0,0,6.59.38,8.53-27.94h-7L478.42,272a14.8,14.8,0,0,0-2-3.43c-3.49-4.41-13.35-14-30.64-9.3a6.9,6.9,0,0,0-3.43,2.06c-1,1.1-1.53,2.46,1,2.89,0,0-5.24,2.72-.78,5.05,0,0-1.74,2.71,1.94,2.52,0,0-2.13,1.85.06,2.38a4.18,4.18,0,0,0,2.19-.1,11.37,11.37,0,0,1,9.2,1.21S458.11,277.43,464.39,277.25Z" fill="#ffc596"/><path d="M443.31,264.17a11.7,11.7,0,0,1,4.61-1.19,10.24,10.24,0,0,1,4.71.72c-.8,0-1.58-.06-2.35-.05s-1.55,0-2.32.08C446.42,263.81,444.89,264,443.31,264.17Z" fill="#ffa072"/><path d="M442.53,269.22a12.58,12.58,0,0,1,5-1.49,16.25,16.25,0,0,1,2.61,0,13.17,13.17,0,0,1,2.56.43l-2.57.16c-.84,0-1.69.11-2.53.19C445.89,268.65,444.23,268.89,442.53,269.22Z" fill="#ffa072"/><path d="M444.47,271.74a11.38,11.38,0,0,1,4.14-.88,11.92,11.92,0,0,1,4.19.51c-1.42.14-2.79.17-4.16.24S445.89,271.73,444.47,271.74Z" fill="#ffa072"/><path d="M403.62,247.11c-2.09-.2-4.13-.58-6.16-1l-3-.6c-1-.19-2-.42-3.06-.57a14.33,14.33,0,0,1,3.14,0c1.05.1,2.08.26,3.1.45A33.24,33.24,0,0,1,403.62,247.11Z" fill="#ffa072"/><path d="M403.62,251.55c-2-.62-3.87-1.24-5.82-1.77s-3.9-.95-5.92-1.31a16.44,16.44,0,0,1,6.12.59A19.53,19.53,0,0,1,403.62,251.55Z" fill="#ffa072"/><path d="M398.51,253.33c-.74-.23-1.47-.39-2.19-.56s-1.45-.31-2.18-.43c-1.47-.25-2.94-.41-4.46-.63a9.81,9.81,0,0,1,2.28-.28,12.66,12.66,0,0,1,2.3.17A9.52,9.52,0,0,1,398.51,253.33Z" fill="#ffa072"/><ellipse cx="419.57" cy="217.28" rx="14.09" ry="18.66" fill="#ffc596"/><path d="M402.77,201.74s-1,7.39,4.93,5.46a14.61,14.61,0,0,1,7.93-.71s4.42,1.29,7.23.52a4,4,0,0,1,3.11.27,5.07,5.07,0,0,1,2.33,3.61s.36,3.88,1.94,4.76c0,0,.51-4.7,3.68-7.3,1.16-.95.9-1.4,2.4-1.33,2,.09,4.31,2.82,4,6.51,0,0,5.81,3.35,6.69,9l6-14.79s5.64-9.5-.7-21.48c0,0-1.06-2.29-5.28-3.17l-6.52-2.81s-8.8-4.93-14.44-1.24a15.93,15.93,0,0,1-7.85,1.18,9.78,9.78,0,0,0-6,1.16C407.16,184.05,399.47,190.23,402.77,201.74Z" fill="#2c2e63"/><path d="M408.07,210.62h0a.58.58,0,0,0,.64.56c1.13-.15,3.49-.29,4.8.73,0,0-.69-2-4.88-1.88A.57.57,0,0,0,408.07,210.62Z" fill="#2c2e63"/><ellipse cx="410.84" cy="213.83" rx="1.29" ry="0.67" transform="translate(180.88 615.86) rotate(-87.73)" fill="#2c2e63"/><path d="M408.87,226.92a3.83,3.83,0,0,0,3.79,1.6,2.39,2.39,0,0,0,2.17-2S413,229.26,408.87,226.92Z" fill="#ffa072"/><path d="M406.4,219.76l-1,3.13a.88.88,0,0,0,.71,1.15l1.17.18" fill="none" stroke="#ffa072" stroke-miterlimit="10" stroke-width="0.5"/><ellipse cx="436.32" cy="212.48" rx="4.2" ry="5.78" fill="#ffc596"/><path d="M436.47,212.09a1.12,1.12,0,0,0-.3.82.79.79,0,0,0,.27.58,4.16,4.16,0,0,1,.68.79,1.17,1.17,0,0,1,.14.61.6.6,0,0,1-.3.51.56.56,0,0,0-.1-.44,1.3,1.3,0,0,0-.26-.31,4.68,4.68,0,0,1-.76-.61,1.44,1.44,0,0,1-.34-.58,1.23,1.23,0,0,1,0-.69A1,1,0,0,1,436.47,212.09Z" fill="#ffa072"/><path d="M435.12,212.32a1.74,1.74,0,0,1-.24-1.56,1.76,1.76,0,0,1,1.29-1.17,1.6,1.6,0,0,1,.94.08,1.17,1.17,0,0,1,.67.74,1.71,1.71,0,0,1,0,.84c-.07.26-.16.48-.25.73a6.31,6.31,0,0,0-.35-1.33.57.57,0,0,0-.35-.25,1.05,1.05,0,0,0-.5,0,1.39,1.39,0,0,0-.88.63A2.46,2.46,0,0,0,435.12,212.32Z" fill="#ffa072"/><ellipse cx="444.07" cy="70.39" rx="19.4" ry="14.97" transform="translate(264.96 482.79) rotate(-75.53)" fill="#ffc596"/><path d="M432,60.7s.87-5.48,7.47-10.52c0,0,6.82-5.39,15.13-3.69,0,0,9.7,0,12.61,6.6,0,0,5.24,6.21,6.21,12.22,0,0,2.75,11.86,5.43,14.94,0,0,5.63,8.15,5.63,17.46A14.1,14.1,0,0,0,487.35,109s5.63,6,5.82,18c0,0-3.3-5.82-13.58-11.25,0,0-13.19-5.63-18.43-12.23,0,0-5.23-5.56-4.74-15.26a20,20,0,0,1,2.08-7.62A20.89,20.89,0,0,0,460.19,74a10,10,0,0,1-5.45-6.89s-.11-1.48-2.39-5.24a35.55,35.55,0,0,1-5-9.14,1,1,0,0,0-.92-.68A16,16,0,0,0,432,60.7Z" fill="#2c2e63"/><ellipse cx="459.27" cy="74.12" rx="5.04" ry="3.62" transform="translate(281.57 504.05) rotate(-76.71)" fill="#ffc596"/><path d="M438.55,69.35l-1.73,3.16a1,1,0,0,0,.53,1.38l1.23.43" fill="none" stroke="#ffa072" stroke-miterlimit="10" stroke-width="0.5"/><path d="M444.6,68.07a1.24,1.24,0,0,0,1.56-.8,1.31,1.31,0,0,0,0-.68c1,.06,1.1-.55,1.1-.55-.2.23-1.34-.12-1.81-.28h0l-.14-.05h-.06a1.23,1.23,0,0,0-.67,2.37Z" fill="#2c2e63"/><path d="M443.68,62.94h0a.56.56,0,0,0,.43.72c1.11.23,3.39.84,4.3,2.22,0,0,0-2.12-4-3.33A.58.58,0,0,0,443.68,62.94Z" fill="#2c2e63"/><path d="M437.92,61.81h0a.56.56,0,0,1-.66.52c-1.12-.19-3.46-.45-4.82.5,0,0,.79-2,4.95-1.64A.57.57,0,0,1,437.92,61.81Z" fill="#2c2e63"/><path d="M435.65,67a1.22,1.22,0,0,1-1.19-1.27,1.14,1.14,0,0,1,.21-.65c-1-.29-.85-.89-.85-.89.11.29,1.29.34,1.79.35h.21a1.23,1.23,0,0,1-.17,2.45Z" fill="#2c2e63"/><path d="M433.38,78.47a3.36,3.36,0,0,0,0,.71,3.85,3.85,0,0,0,.82,2,3.92,3.92,0,0,0,5.76.45,3.91,3.91,0,0,0,1.13-1.88,4.1,4.1,0,0,0,.12-.7v0l-7.84-.61Z" fill="#920e08"/><path d="M433.38,78.47a3.36,3.36,0,0,0,0,.71l7.71.6a4.1,4.1,0,0,0,.12-.7v0l-7.84-.61Z" fill="#fff"/><path d="M434.21,81.21a3.92,3.92,0,0,0,5.76.45,4.09,4.09,0,0,0-2.79-1.33A4.15,4.15,0,0,0,434.21,81.21Z" fill="#f85c66"/><path d="M459.3,74.17a1.1,1.1,0,0,0-.48.72.83.83,0,0,0,.12.63,3.59,3.59,0,0,1,.48.93,1.19,1.19,0,0,1,0,.62.59.59,0,0,1-.42.43.59.59,0,0,0,0-.45,1.24,1.24,0,0,0-.19-.36,7,7,0,0,1-.6-.77,1.37,1.37,0,0,1-.18-.65,1.24,1.24,0,0,1,.19-.66A1,1,0,0,1,459.3,74.17Z" fill="#ffa072"/><path d="M457.94,74.07a1.73,1.73,0,0,1,.12-1.57,1.75,1.75,0,0,1,1.53-.83,1.5,1.5,0,0,1,.9.3,1.17,1.17,0,0,1,.48.86,1.67,1.67,0,0,1-.19.83c-.13.23-.26.43-.41.65a6.6,6.6,0,0,0,0-1.37.56.56,0,0,0-.29-.33,1,1,0,0,0-.48-.13,1.42,1.42,0,0,0-1,.41A2.52,2.52,0,0,0,457.94,74.07Z" fill="#ffa072"/></svg>