<svg id="baeb20d2-d9b1-4e82-b68c-3f933826e440" data-name="Layer 1" xmlns="http://www.w3.org/2000/svg" width="865.76" height="682.89" viewBox="0 0 865.76 682.89"><polygon points="825.31 626.75 817.33 626.75 809.84 588.1 825.31 588.1 825.31 626.75" fill="#ccc"/><rect x="796.75" y="431.39" width="37.52" height="158.72" fill="#ccc"/><rect x="796.75" y="431.39" width="37.52" height="158.72" opacity="0.2"/><rect x="801.74" y="419.05" width="38.02" height="12.34" opacity="0.2"/><rect x="255.03" y="50.86" width="237.72" height="186.91" rx="14.83" fill="#a7a9ac"/><path d="M343.41,77.66h2.35a3.55,3.55,0,0,1,3.55,3.55v4.68a1.91,1.91,0,0,0,1.9,1.91h7.86a1.91,1.91,0,0,0,1.9-1.91V81.21a3.55,3.55,0,0,1,3.55-3.55h0a3.55,3.55,0,0,1,3.55,3.55v4.68A1.91,1.91,0,0,0,370,87.8h8.36a1.91,1.91,0,0,0,1.9-1.91V81.21a3.55,3.55,0,0,1,3.55-3.55h.51a3.54,3.54,0,0,1,3.54,3.55v4.68a1.91,1.91,0,0,0,1.9,1.91h6.85a1.91,1.91,0,0,0,1.9-1.91V81.21A3.55,3.55,0,0,1,402,77.66h2a3.55,3.55,0,0,1,3.55,3.55V103a10,10,0,0,0-6.08,5.58h-9.63v6.84h.51a2,2,0,0,1,2,2v1.27h1.52a3.81,3.81,0,0,1,3.81,3.8h0a3.81,3.81,0,0,1-3.81,3.8h-4.3s-.51,37,10.39,63.61a8.75,8.75,0,0,1,4.31,4.82s16-.51,17,16.22H324.47s1-16.22,17-16c0,0,1-4.05,4.31-4.05,0,0,11.15-33.2,8.62-64.88h-2.92a3.43,3.43,0,0,1-3.42-3.43h0a3.42,3.42,0,0,1,3.42-3.42h1.15v-2a2,2,0,0,1,2-2h0v-7.35h-8.36s-2.54-4.56-6.08-5.58l-.33-21A3.55,3.55,0,0,1,343.41,77.66Z" fill="#fafafa"/><path d="M576.7,253l-16.12,49.2-20.16,7.19A12.85,12.85,0,0,1,529.13,308l-64.45-44.58s-6.68-3.58-8.28-3.58-5.29-2.64-5.29-2.64l-13.22-3.16s-1.06-3.16,1.06-3.16h12.1L450,242.47a79.13,79.13,0,0,0-9-4.23c-3.16-1.06-9-6.87-4.74-6.87s19,6.31,19,6.31l12.45,14.6,66.66,28.1Z" fill="#f9b499"/><path d="M560.58,302.16l-20.21,7.16A12.85,12.85,0,0,1,529.08,308l-27.93-19.62,6.62-19.24,26.63,11.18L576.7,253Z" fill="#f48225" data-secondary="true"/><path d="M557.59,605.75s0,12.75-1.74,17.38-7,.58-14.45.58-32.95-.53-38.15-6.32.05-6.95,5.78-8.67,30-9.82,30-9.82Z" fill="#f48225" data-secondary="true"/><path d="M555.76,623.13c-1.74,4.63-7,.58-14.46.58s-32.95-.53-38.14-6.32c-2-2.22-2.47-3.77-1.93-4.92,3.71,1.62,10.44,3.66,22.11,5.24,14.51,1.86,26.72,2.46,33.18,2.67A16.23,16.23,0,0,1,555.76,623.13Z" fill="#fff"/><path d="M632.12,606.42s7.48,16.77,2.3,20.23S591.62,629,587,629s-3.45-4.65,1.74-7.52,23.7-16.76,23.7-16.76C618.25,604.68,632.12,606.42,632.12,606.42Z" fill="#f48225" data-secondary="true"/><path d="M587,629c-3.24,0-3.63-2.27-1.77-4.64a226.63,226.63,0,0,0,51-3.16c.11,2.43-.31,4.5-1.8,5.48C629.23,630.11,591.65,628.91,587,629Z" fill="#fff"/><path d="M585,383c1.41,39.53-1.42,61.49-3.16,68.39s-6.36,39.86-8.67,48-3.46,25.46-5.2,41.07-10.41,65.36-10.41,65.36l-18.49-6.93V582.14c0-5.2,1.15-100,2.3-120.86s21.45-115,21.45-115C567.67,336.58,583.58,343.49,585,383Z" fill="#2f2e41"/><path d="M611.36,342.13a63,63,0,0,1,16,30.52c4.17,19.43-12.48,49.94-12.48,49.94s-12.21,53.13-9.32,60.65,16.77,38.73,17.93,60.7,8.67,62.48,8.67,62.48c-7.6,1.73-20.24.58-20.24.58s-8.1-10.33-10.41-20.16S576.63,516.77,570.84,489a495.44,495.44,0,0,1-10.12-88.62C560.71,356.13,611.36,342.13,611.36,342.13Z" fill="#2f2e41"/><path d="M623.13,268.55c.58,18-8.17,41-9.32,53.71s7.82,22.1,2.34,24.88S571.6,353.8,563.28,351s-7.77-7.06-7.77-14,.11-38,1.69-50.14c1.53-11.52,13.08-34.31,28.1-45.29s22-5.78,22-5.78C609.54,238.13,622.54,250.56,623.13,268.55Z" fill="#f48225" data-secondary="true"/><path d="M609,185.53c-8.3-12.43-21.7-23-28.13-18h-.26c-10.37,0-18.78,13.31-18.78,29.73,0,11.33,4,21.18,9.89,26.2a18.51,18.51,0,0,0,2.68,1.86,12.37,12.37,0,0,0,12.11.17c.09,4.7-1.21,14.81-1.21,16.11,0,1.74,17.38-.58,19.65-.58s1.16-20.81,3.46-27.17S618.26,199.39,609,185.53Z" fill="#f9b499"/><path d="M600.75,239.28c-4.22.92-19.8,11.4-23.4,11.4s-1.78-6,.6-9.6,17.38-9,17.38-9C600.7,226.69,605,238.36,600.75,239.28Z" fill="#f48225" data-secondary="true"/><path d="M600.75,239.28c-4.22.92-19.8,11.4-23.4,11.4s-1.78-6,.6-9.6,17.38-9,17.38-9C600.7,226.69,605,238.36,600.75,239.28Z" opacity="0.2"/><path d="M571,181.36c-18.5-4.05-12.31-23.54-1.9-27.58s13.3,4.62,18.5,3.47,20.25-8.67,33.54,0S633.29,187.31,639.6,200s30.67,22.52,41.07,59.53S661,307,657.55,320.27s5.8,35.27-9.24,42.2-34.69,1.73-42.21-17.92,1.15-36.43,6.94-57.23.56-22.56-1.74-27.76-13.86-7.49-19.07-20.22,7.5-24.29,9.24-32.38-5.78-5.78-13.28-15.61a52.13,52.13,0,0,1-9.26-21.43C574.3,174,571,181.31,571,181.36Z" fill="#2f2e41"/><path d="M607.62,262c5.07,6.76,2.71,19.45-.16,32.68C604.35,309,595,354.45,595,354.45a95.54,95.54,0,0,1-14.31,6.22c-6.22,1.88-57.24,22.88-57.24,22.88a22.17,22.17,0,0,1-7.46,5.56c-5.28,2.63-22.21,5.29-22.21,5.29s-5.32,3.68-6.32.52,13.22-15.8,13.22-15.8l17-4.74h.17a127.53,127.53,0,0,1,14.95-11.65l40.9-28s4.58-34.54,4.58-45.14S585.36,260,585.36,260" fill="#f9b499"/><path d="M454,244.38s-6,4.93-8.76,5.53-1-3.86-1-3.86-4.88,4-6.34,3.25,1.83-5,1.83-5a37.83,37.83,0,0,1-7.7,2c-3.79.49,4.57-5.61,4.57-5.61l10.66-4.18C450.47,236.43,454,244.38,454,244.38Z" fill="#f9b499"/><polygon points="51.98 630.5 51.98 421.48 45.83 421.48 46.19 630.5 51.98 630.5" fill="#ccc"/><polygon points="51.98 630.5 51.98 421.48 45.83 421.48 46.19 630.5 51.98 630.5" opacity="0.2"/><polygon points="785.01 626.75 777.03 626.75 769.54 588.1 785.01 588.1 785.01 626.75" fill="#ccc"/><polygon points="688.45 588.1 688.45 623.69 694.53 623.69 701.63 588.1 688.45 588.1" fill="#ccc"/><polygon points="688.45 588.1 688.45 623.69 694.53 623.69 701.63 588.1 688.45 588.1" opacity="0.2"/><polygon points="724.56 620.54 732.55 620.54 740.03 588.1 724.56 588.1 724.56 620.54" fill="#ccc"/><polygon points="724.56 620.54 732.55 620.54 740.03 588.1 724.56 588.1 724.56 620.54" opacity="0.2"/><polygon points="785.01 626.75 777.03 626.75 769.54 588.1 785.01 588.1 785.01 626.75" opacity="0.2"/><path d="M786.71,170V60.62a12,12,0,0,0-12-12H681.88a12,12,0,0,0-12,12V189.41a12,12,0,0,0,12,12H756Z" fill="#ccc"/><path d="M756,201.39c3.79-7.41,2.82-22.1,2.82-22.1s-2.5-10.82,11.45-8.81c0,0,9,1.41,16.43-.53Z" opacity="0.2"/><rect x="683.04" y="128.18" width="13.66" height="21.59" fill="#fff"/><rect x="699.33" y="133.9" width="13.66" height="15.86" fill="#fff"/><rect x="715.63" y="125.02" width="13.66" height="24.75" fill="#fff"/><rect x="731.93" y="119.8" width="13.66" height="29.96" fill="#fff"/><rect x="748.23" y="125.02" width="13.66" height="24.75" fill="#fff"/><rect x="764.53" y="115.84" width="13.66" height="33.93" fill="#fff"/><rect x="683.04" y="87.2" width="32.6" height="5.29" fill="#fff"/><rect x="683.04" y="95.13" width="65.2" height="5.29" fill="#fff"/><path d="M252.58,593.08l2.22-17.54L227.45,575l-.78,14.9S244.64,599.48,252.58,593.08Z" fill="#f9b499"/><path d="M223.63,583.54l32.79.07-3.63,31.95s24.17.18,27.39,11.9l-59.91-.13Z" fill="#686175" data-primary="true"/><rect x="220.26" y="627.4" width="59.91" height="6.79" transform="translate(1.44 -0.57) rotate(0.13)" fill="#2f2e41"/><rect x="98.49" y="551.4" width="101.73" height="8.79" fill="#3f3d56"/><rect x="98.49" y="551.4" width="101.73" height="8.79" fill="#a7a9ac"/><path d="M103,332.78s-38.42,11.47-34.65,70.8l2.51,54.31s1.53,20.08,30.26,25.73L81.43,627.81h8.9l18.65-141h78l19.22,141H214L194.23,477" fill="#a7a9ac"/><path d="M334.13,581.9l-5.89-16.67-24.67,11.82,6,13.67S329.91,591.18,334.13,581.9Z" fill="#f9b499"/><path d="M266.26,432.68c20.11,21.49,65.36,135.45,65.36,135.45L301,581.71s-39.43-70.39-50.63-88.48l-21.58-60.55Z" fill="#2f2e41"/><path d="M266.26,432.68c20.11,21.49,65.36,135.45,65.36,135.45L301,581.71s-39.43-70.39-50.63-88.48l-21.58-60.55Z" opacity="0.2"/><path d="M220.63,335.28s5.39,25.38,23.6,32.83l-38,3.57c-7.52-3.28-14.13-14.22-14.13-14.22v-10.2Z" fill="#f9b499"/><path d="M220.63,335.28s5.39,25.38,23.6,32.83l-38,3.57c-7.52-3.28-14.13-14.22-14.13-14.22v-10.2Z" opacity="0.05"/><polyline points="162.14 231.35 158.84 253.94 173.85 271.77 182.3 267.08 182.3 255.17" fill="#f9b499"/><ellipse cx="186.58" cy="229.57" rx="21.09" ry="27.7" fill="#f9b499"/><ellipse cx="162.14" cy="226.58" rx="5.64" ry="9.69" transform="translate(-55.11 52.13) rotate(-15.65)" fill="#f9b499"/><path d="M145.71,262.39s-32.81-6.13-35.91,28.52a36.29,36.29,0,0,1-1.48,7.73c-4,13-16.44,57.7-15.65,106h98l4.3-55.46,33.78-16.39L211,291.55a37.35,37.35,0,0,0-16.62-18.46,30,30,0,0,0-9.62-3.2Z" fill="#686175" data-primary="true"/><path d="M151.08,272.4l-5.37-10s6.1-12.67,13.13-8.45l14.59,13.78s-15.61,2.38-20.64,5.2A1.26,1.26,0,0,1,151.08,272.4Z" fill="#686175" data-primary="true"/><path d="M151.08,272.4l-5.37-10s6.1-12.67,13.13-8.45l14.59,13.78s-15.61,2.38-20.64,5.2A1.26,1.26,0,0,1,151.08,272.4Z" fill="#fafafa" opacity="0.2"/><path d="M173.43,267.72l7.5,8.18a3,3,0,0,0,3.28.81l10.13-3.62s-.32-14.42-12-9.82v3.81Z" fill="#686175" data-primary="true"/><path d="M173.43,267.72l7.5,8.18a3,3,0,0,0,3.28.81l10.13-3.62s-.32-14.42-12-9.82v3.81Z" fill="#fafafa" opacity="0.2"/><g opacity="0.2"><path d="M102.21,403.72c0-.25-3.87-25,7.5-92.73l1.62.28c-11.31,67.32-7.54,91.94-7.5,92.18Z"/></g><g opacity="0.2"><path d="M157.89,404.36c-21.84-7-36.19-29.2-36.33-29.42l1.39-.88c.14.21,14.17,21.88,35.44,28.74Z"/></g><path d="M118.91,337.68s11.11,70.46,75.32,62c0,0-.28-5,3.27-5h0l46.73,0L250.32,369c-8.92-3.16-44.12,2.69-44.12,2.69-56.78,5.16-55.52-38.9-55.52-38.9" fill="#f9b499"/><path d="M244.23,395.14l17.34-70.83H369.93l-17.82,79.27H194.23l.53-6.39a2.72,2.72,0,0,1,2.74-2.5Z" fill="#2f2e41"/><path d="M270,324.31l-19.7,79.27H194.23l.53-6.39s.19-2.52,4.19-2.48h45.28l17.34-70.4Z" opacity="0.2"/><circle cx="312.91" cy="365.85" r="7.24" opacity="0.2"/><polygon points="305.67 397.01 308.48 384.82 351.07 384.82 347.89 397.01 305.67 397.01" opacity="0.2"/><path d="M232.12,432.68c26.2,0,26.6,63.06,26.6,63.06v86L226,579.19c-9-31.67-10.56-106.07-10.56-106.07C92.63,494.23,92.63,432.68,92.63,432.68H232.12Z" fill="#2f2e41"/><path d="M207.67,227.82c33.33-5.07,14.21-25.95,7-21.59-.53.32-.68-1-.37-1.52,9.76-16.6-19.84-13.16-19.84-13.16-1.4-8.91-16.88-6.56-16.88-6.56-17.83-7-17.36,12.19-17.36,12.19-16.89,4.22-3.38,22.67-3.38,22.67s7.46-9.53,11.29,8.76h4.29l-.83-16.89a1.76,1.76,0,0,1,2.13-1.8c3.16.68,8.88,1.57,11.83-.07,0,0,7-6.1,10.79.47,0,0,3.88,6.1,8.57,5.63C204.94,216,207.67,223.14,207.67,227.82Z" fill="#2f2e41"/><path d="M145.71,262.39c.42,11,1.19,22.61,2.39,34.73,1.34,13.62,3.1,26.49,5.11,38.55-8.91-1.84-37.05,5.61-37.05,5.61s-10.48-28.11-7.38-44.24c0,0,.77-3.87,1-6.13C109.8,290.91,110.16,258.09,145.71,262.39Z" fill="#686175" data-primary="true"/><path d="M145.71,262.39c.42,11,1.19,22.61,2.39,34.73,1.34,13.62,3.1,26.49,5.11,38.55-8.91-1.84-37.05,5.61-37.05,5.61s-10.48-28.11-7.38-44.24c0,0,.77-3.87,1-6.13C109.8,290.91,110.16,258.09,145.71,262.39Z" opacity="0.2"/><path d="M195,349.17l-.62-76.08A39,39,0,0,1,211,291.55l17.78,41.23Z" fill="#686175" data-primary="true"/><path d="M195,349.17l-.62-76.08A39,39,0,0,1,211,291.55l17.78,41.23Z" opacity="0.2"/><path d="M304,586.37l29.34-14.66,11.09,30.18s21.69-10.69,29.82-1.65L320.62,627Z" fill="#686175" data-primary="true"/><rect x="318.98" y="613.26" width="59.91" height="6.79" transform="translate(-238.75 220.87) rotate(-26.54)" fill="#2f2e41"/><path d="M40.76,419l.72,215.17h69.9V419ZM106.31,630.5H46.19l-.36-209h60.48Z" fill="#ccc"/><rect x="286.9" y="418.98" width="149.53" height="215.17" fill="#ccc"/><rect x="286.9" y="418.98" width="69.95" height="215.17" opacity="0.2"/><rect x="681.56" y="431.39" width="115.19" height="158.72" fill="#ccc"/><rect x="671.34" y="419.05" width="168.41" height="12.34" fill="#ccc"/><rect x="688.45" y="439.2" width="96.56" height="143.32" opacity="0.2"/><rect x="692.82" y="443" width="87.82" height="30.41" fill="#ccc"/><rect x="692.82" y="478.1" width="87.82" height="30.41" fill="#ccc"/><rect x="692.82" y="513.2" width="87.82" height="30.41" fill="#ccc"/><rect x="692.82" y="548.31" width="87.82" height="30.41" fill="#ccc"/><circle cx="735.85" cy="459.61" r="3.3" opacity="0.2"/><circle cx="736.73" cy="495.2" r="3.3" opacity="0.2"/><circle cx="736.73" cy="530.79" r="3.3" opacity="0.2"/><circle cx="736.73" cy="564.4" r="3.3" opacity="0.2"/><path d="M766.91,402.59c0,.11-7.3.21-16.3.21s-16.28-.1-16.28-.21,7.29-.21,16.28-.21S766.91,402.48,766.91,402.59Z" fill="#fafafa"/><path d="M766.39,406.57c0,.12-6.84.21-15.27.21s-15.27-.09-15.27-.21,6.84-.2,15.27-.2S766.39,406.45,766.39,406.57Z" fill="#fafafa"/><rect x="26.01" y="404.63" width="421.68" height="28.06" fill="#ccc"/><path d="M182.3,259.86v-3.17s-7.33-1-12.79-10.85C169.51,245.84,170.69,257.71,182.3,259.86Z" fill="#f7a48b"/><ellipse cx="599.81" cy="203.88" rx="3.92" ry="6.62" fill="#f9b499"/><path d="M586.38,229.71l.14-4.22a21.18,21.18,0,0,0,7.56-7.61S593.26,226,586.38,229.71Z" fill="#f7a48b"/><path d="M607.81,262.26c4.44,7.23,2.73,19.53-.16,32.82-3.12,14.37-12.5,60-12.5,60a96.36,96.36,0,0,1-14.37,6.25c-1.81.55-7.44,2.73-14.5,5.54l-17.27-16c11.19-8.79,23-18.31,23-18.31s3.74-32.47,3.74-43.11c0-8.88,5.73-24.43,7.63-29.35v0a7,7,0,0,1,2.09-2.88C589.22,254.14,599.16,248.16,607.81,262.26Z" fill="#f48225" data-secondary="true"/><path d="M607.81,262.26c4.44,7.23,2.73,19.53-.16,32.82-3.12,14.37-12.5,60-12.5,60a96.36,96.36,0,0,1-14.37,6.25c-1.81.55-7.44,2.73-14.5,5.54l-17.27-16c11.19-8.79,23-18.31,23-18.31s3.74-32.47,3.74-43.11c0-8.88,5.73-24.43,7.63-29.35v0a7,7,0,0,1,2.09-2.88C589.22,254.14,599.16,248.16,607.81,262.26Z" opacity="0.2"/></svg>