<svg xmlns="http://www.w3.org/2000/svg" width="865.76" height="682.89" viewBox="0 0 865.76 682.89"><g style="isolation:isolate"><g id="ff2c2357-1e24-4459-941f-4ea75cc7bfa9" data-name="Layer 1"><path d="M867.07,217.14v11.62h-3.45V217.14H860.8v11.62H832.24v8.4H821.69v1.41h-3.51v18.7H804.41V198.72h-2.13v38.69H787.8V176h-7.42v-5.7h-1.67v-.88H778v-1.59h-1.25V155.89H776l-.44-10.39h-.35l-.44,10.39H774v11.89H772.7v1.59H772v.88h-1.67V176H749.7l-11.91,18.51v14.62h-6.5v13.43H727.4c-.11.24-.21.48-.34.72V247h-7.55V236.45l-9.59-5.69V133.21h-30V97.61H659.82v35.6H646v65.92H633.3v-6.58h-.9V251h-4.78V211.69h-25.7V251h-4.3v60.54H596V308H591.7V149.26h-21V248H560.17v1.61h-3.51v20.73H533.84V228.76h-7.31V217.14h-2.82v11.62h-3.45V217.14h-2.83v11.62H488.88v8.4H478.33v1.41h-3.52v18.7H461V198.72h-2.13v38.69H444.44V181.75H402.61l-8.18,12.71v14.62h-6.51v13.43H384c-.11.24-.21.48-.33.72V247h-7.56V236.45l-9.59-5.69V133.21h-30V97.61H316.46v35.6H302.64v65.92h-12.7v-6.58H289V251h-4.77V211.69h-25.7V248H250V149.26H229v45.58h-25.6v9.65H192.82v1.62h-3.51v21.46h-1v-35h-.9v6.58H174.66V121h-54V230.76l-9.59,5.69V247h-7.56V223.23c-.12-.24-.22-.48-.33-.72H99.31V209.08H92.8V194.46L80.9,176H60.25v-5.7H58.58v-.88H57.9v-1.59H56.65v-.4l-2.84,0v.44H52.57v1.59h-.68v.88H50.21V176H42.79v61.46H28.32V198.72H26.19v58.55H12.42v-18.7H8.9v-1.41H3.26L2.57,457.62H868.51V217.14Zm-91.89-49.8h-.38V156.69h.38Zm.75,0h-.38V156.69h.38Z" fill="#ccc" opacity="0.62" style="mix-blend-mode:multiply"/><polygon points="64.95 448.17 0 555.91 0 682.89 865.45 682.89 865.45 540.21 813.43 448.52 64.95 448.17" fill="#58595b"/><polygon points="336.52 572.17 345.94 483.64 376.91 483.98 367.48 572.5 336.52 572.17" fill="#fff"/><polygon points="64.88 448.17 63.14 437.18 0 540.04 0 555.91 64.88 448.17" fill="#a7a9ac"/><polygon points="865.79 435.76 813.08 435.76 865.44 522.27 865.79 435.76" fill="#58595b"/><polygon points="108.49 483.29 61.76 572.64 94.06 572.64 142.17 483.29 108.49 483.29" fill="#fff"/><polygon points="189.59 483.29 155.23 571.95 187.53 572.64 221.9 483.98 189.59 483.29" fill="#fff"/><polygon points="249.39 572.64 271.26 483.7 300.71 484.05 283.25 573.09 249.39 572.64" fill="#fff"/><polygon points="422.68 572.5 422.01 483.64 449.95 483.98 451.29 572.17 422.68 572.5" fill="#fff"/><polygon points="505.52 572.64 496.71 483.45 527.91 484.18 538.19 572.28 505.52 572.64" fill="#fff"/><polygon points="590.31 572.28 572.69 483.81 604.26 484.92 623.72 572.28 590.31 572.28" fill="#fff"/><polygon points="685.38 572.64 652.35 482.71 684.65 484.92 718.42 572.28 685.38 572.64" fill="#fff"/><polygon points="779.35 573.01 732.37 484.18 764.67 484.18 811.28 571.91 779.35 573.01" fill="#fff"/><path d="M403,529.62s-5.85,5-2,7.88c0,0,4.4,5.35,13.79,4.54a8.81,8.81,0,0,0,.88-.11,7.1,7.1,0,0,1,4.41.75,10.8,10.8,0,0,0,3.23,1.13c7.43,1.42,30.77,5.13,34.48-3.49,0,0-2.93,1.69-18.23-.13,0,0-2-1-8.85-1.67a49.55,49.55,0,0,1-11.81-2.95,56,56,0,0,0-7.3-3.08,6.73,6.73,0,0,0-1.48-.32,43.59,43.59,0,0,1-6.09-1S403.09,531.07,403,529.62Z" fill="#2f2e41"/><path d="M411.58,511.33c-.9-.53-3.2-1.39-3.13,3.72a2.63,2.63,0,0,0,.22,1.07.62.62,0,0,1-.09.77,6.72,6.72,0,0,0-1.73,2.24A88,88,0,0,0,403,529.46a1.38,1.38,0,0,0,1,1.69,41.41,41.41,0,0,0,6,1,6.36,6.36,0,0,1,1.68.35,67,67,0,0,1,7.19,3,54.2,54.2,0,0,0,11.81,2.95,45.93,45.93,0,0,1,8.85,1.67s14.76,1.8,18.23.13c0,0,0-6.29-6.29-6.42,0,0-11.07-1.09-17.1-10.62-.27-.42-.58-.81-.88-1.2-.47-.59-1-1.82.85-3.39,0,0-6.91-1.57-20.49-8.13,0,0,.63,1.47-1.19,1.18A3.09,3.09,0,0,1,411.58,511.33Z" fill="#f48225" data-secondary="true"/><path d="M559.3,371.2a69.34,69.34,0,0,1,9.4,4.93,4.17,4.17,0,0,1,1.74,3.71l-.07,1.07a2.63,2.63,0,0,1-1.16,2h0a1.78,1.78,0,0,0-.79,1.59,1.56,1.56,0,0,1-.44,1.23,3,3,0,0,0-.7.92,4.1,4.1,0,0,1-1.15,1.61,2.61,2.61,0,0,0-.92,1.08,1.45,1.45,0,0,1-2,1,2.18,2.18,0,0,0-1.7.07c-.54.26-1.23.28-1.65-.9l-.21-1.09a3,3,0,0,0-1-1.71,11.42,11.42,0,0,0-4.66-2.75S552.13,380.14,559.3,371.2Z" fill="#f9b499"/><path d="M445.4,423.73S442,433.06,443,435.42c0,0-8.46,5.48-4.48,11.95l-.87,3.11s-4.23.62-3,3.85l-.87,1s-1.62.87-1.24,2.36c0,0-1.74-.12-2.74,3.24,0,0-18,30.89-15.56,38.59,0,0,1.13,1.51.12,2.65a2.86,2.86,0,0,0-.38,3.4,4.79,4.79,0,0,0-1.52,1,2.26,2.26,0,0,0,.55,3.62c3.69,1.92,14.47,7.29,21.28,8.53a31.08,31.08,0,0,0,1.1-8.22,6.1,6.1,0,0,1,.89-3.58,6.55,6.55,0,0,0-.1-7.88s-.75-2.27.89-3l7.31-12.23a18.91,18.91,0,0,0,.51-7.44s-.88-2.53,2-2.27c0,0,3.91.12,3-4.8,0,0,7.45.89,6.19-5.8,0,0,6.05-2.4,15.64-26.74l6.56-15.27Z" fill="#2f2e41"/><path d="M467.39,426.48s1.14,7.32,12.87,18.92c0,0,4.67,9.84,8.32,12.36,0,0,1.52.13,1.14,3.28a6.51,6.51,0,0,0,1.89,2.9,4.25,4.25,0,0,0,2.15,3.66,2.66,2.66,0,0,1,1.27,2.56,19.07,19.07,0,0,0,1.28,7.13c3.09,7.7,9.66,22.79,15.48,27.78,0,0,3.27,3.19,3.14,6.43,0,0,3.86,12.69,9.46,12.19,0,0,8.72-7.52,11.41-15.81a7.15,7.15,0,0,0-.35-5.18,22.56,22.56,0,0,0-3.47-5.63,40,40,0,0,0-4.56-7.76,24.29,24.29,0,0,1-3.61-6.66,20.84,20.84,0,0,0-4.9-8.1s-3-3.49-1-7.34c0,0,.87-1.74-2-5.85a4.06,4.06,0,0,1-.85-3.22,7.7,7.7,0,0,0,0-2.75,13.81,13.81,0,0,0-3.24-6.36,14.7,14.7,0,0,1-3.56-6.6c-1.26-5.5-3.15-14.58-2.9-18.77l-23.51-10.08Z" fill="#2f2e41"/><path d="M499.19,295.78s-3.37,3.2-2.44,5.63l-4.07-3.28,4.27-4.34a6.74,6.74,0,0,0,.69.8A6.92,6.92,0,0,0,499.19,295.78Z" fill="#f9b499"/><ellipse cx="505.13" cy="271.57" rx="16.09" ry="26.19" fill="#f9b499"/><path d="M519.22,284.22c-.22.63,5.11,4.89-3.77,10.21,0,0,7.83,1.7,10.07-5.91a8.85,8.85,0,0,0-.37-5.85c0-.11-.09-.22-.13-.34a9,9,0,0,1,3.34-10.65c2.45-1.68,5.66-5.15,2.92-10.89a11.69,11.69,0,0,1-.69-1.78c-.52-1.7-2.41-5.44-9.15-4.75,0,0-2.22-8-8.43-8,0,0,.1,1.47.07,2.65,0,0,7.21,5.63,8.09,20.28A39.17,39.17,0,0,1,519.22,284.22Z" fill="#2f2e41"/><path d="M506.12,308.49,502.66,305l-3.59,5.44,6.11,6.69S504.81,311.29,506.12,308.49Z" fill="#f48225" data-secondary="true"/><path d="M506.12,308.49,502.66,305l-3.59,5.44,6.11,6.69S504.81,311.29,506.12,308.49Z" opacity="0.4"/><path d="M496.6,300.19l9.42,5.22.1,3.08L502.66,305a34.49,34.49,0,0,0-6.38-4.57Z" fill="#f48225" data-secondary="true"/><path d="M496.6,300.19l9.42,5.22.1,3.08L502.66,305a34.49,34.49,0,0,0-6.38-4.57Z" fill="#fff" opacity="0.3"/><path d="M513.9,421.83c-2.69,5.22-7.91,2-7.91,2l-16.92-5.6c-4.35-1.36-6.35.63-6.35.63-23.51,15.18-32.47,6.47-32.47,6.47-1.61-1.12-5.47-1.87-5.47-1.87a1.65,1.65,0,0,1-.26-1.92,2.93,2.93,0,0,0,0-1.94,6.56,6.56,0,0,1-.19-2.65,3.08,3.08,0,0,1,.56-1.41,3.56,3.56,0,0,0,.45-1.37,7.58,7.58,0,0,0-.41-3.77c-1.79-4.95-.43-13.94-.43-13.94-.62-6.94,4-15.85,6.64-20.36a15.41,15.41,0,0,0,2.11-6.69l.83-11c-.75-7-.27-11,.13-12.85a6.34,6.34,0,0,1,.72-1.77c1.16-2.07,1.27-8.77,1.27-8.77a37.37,37.37,0,0,1,3.26-10.37,32.3,32.3,0,0,0,2.12-6.43,15.78,15.78,0,0,1,1.33-3.54,35.25,35.25,0,0,0,1.45-3.33,20.46,20.46,0,0,1,14.44-12.86,46.37,46.37,0,0,1,19.35,13l.89-1.05,6.11,6.74c-.37-6.53.94-8.68.94-8.68-.38,2.61,2.51,14.65,2.51,14.65.5,2.16,1.71,14,2.62,23.2.61,6.32,1.08,11.45,1.08,11.45a29,29,0,0,1-1.35,12,13.87,13.87,0,0,0-.8,5.53c.57,10.17,1.54,34.05,1.54,34.05,2,3,.61,6.84.61,6.84a2.13,2.13,0,0,0,.85,2.23A2.7,2.7,0,0,1,513.9,421.83Z" fill="#f48225" data-secondary="true"/><path d="M554.27,384a1.28,1.28,0,0,1-.84,1.9c-.95.17-2.34,0-4.35-1.24a12.65,12.65,0,0,0-4.33-1.6l-1.53-.27a11.19,11.19,0,0,1-2.84-.9,25.89,25.89,0,0,0-4.94-1.84,18.92,18.92,0,0,1-2.71-.71c-5.21-1.73-18.82-6.43-21.75-9.47a29,29,0,0,0,1.35-12s-.47-5.13-1.08-11.45c.31-.11,3-.88,6.66,3.13a3.54,3.54,0,0,0,1.29.9c1.75.68,6,2.54,7.61,4.92a2.93,2.93,0,0,0,1.45,1.12,5.66,5.66,0,0,1,1.62.89,3.52,3.52,0,0,0,2.3.73,7.16,7.16,0,0,1,4.93,2.27,7.55,7.55,0,0,1,.9,1.05,3.2,3.2,0,0,0,2.41,1.09,5.25,5.25,0,0,1,1.53.12,10.14,10.14,0,0,1,4.87,2.91,2.39,2.39,0,0,0,1.93.71,1.67,1.67,0,0,1,.85.16l10,4.1a.37.37,0,0,1,.14.58c-1.23,1.46-5.47,6.78-5.71,11.85a1.91,1.91,0,0,0,.27,1.09Z" fill="#f48225" data-secondary="true"/><path d="M554.27,384a1.28,1.28,0,0,1-.84,1.9c-.95.17-2.34,0-4.35-1.24a12.65,12.65,0,0,0-4.33-1.6l-1.53-.27a11.19,11.19,0,0,1-2.84-.9,25.89,25.89,0,0,0-4.94-1.84,18.92,18.92,0,0,1-2.71-.71c-5.21-1.73-18.82-6.43-21.75-9.47a29,29,0,0,0,1.35-12s-.47-5.13-1.08-11.45c.31-.11,3-.88,6.66,3.13a3.54,3.54,0,0,0,1.29.9c1.75.68,6,2.54,7.61,4.92a2.93,2.93,0,0,0,1.45,1.12,5.66,5.66,0,0,1,1.62.89,3.52,3.52,0,0,0,2.3.73,7.16,7.16,0,0,1,4.93,2.27,7.55,7.55,0,0,1,.9,1.05,3.2,3.2,0,0,0,2.41,1.09,5.25,5.25,0,0,1,1.53.12,10.14,10.14,0,0,1,4.87,2.91,2.39,2.39,0,0,0,1.93.71,1.67,1.67,0,0,1,.85.16l10,4.1a.37.37,0,0,1,.14.58c-1.23,1.46-5.47,6.78-5.71,11.85a1.91,1.91,0,0,0,.27,1.09Z" opacity="0.2"/><path d="M458.29,418s-4,6.95,1.06,7.17c0,0-.11,3.35,4.31,2.59,0,0-.75,2.59,4.21,1.84a3.6,3.6,0,0,0,3.25.61,2.43,2.43,0,0,0,1.62-1.67,48.33,48.33,0,0,0,1.61-10.28l-9.23-.06a7.64,7.64,0,0,1-2.28-.4A7.3,7.3,0,0,0,458.29,418Z" fill="#f9b499"/><path d="M535.45,502.7s5.86.64,9.43,8.94a2.65,2.65,0,0,0,2.09,1.58c4.09.53,15.22,1.49,21.31-2.68a11.25,11.25,0,0,1,4.86-1.86h.12a4.22,4.22,0,0,1,4.69,4.6c-.5,5.23-3.7,17.83-22.46,25.47,0,0-3.36,1.37-3.48,2.49l-.25,1-10.45,6a10.38,10.38,0,0,1-3.7.76,6.91,6.91,0,0,1-7-7.32c0-.32,0-.66.07-1A85.76,85.76,0,0,1,526,528.89a3.28,3.28,0,0,0-1.31-1.75,9.8,9.8,0,0,1-3.8-4.82,4,4,0,0,0,2.55,1.24,1.8,1.8,0,0,0,1.57-.45,49.59,49.59,0,0,0,7.33-8.63S537.55,508.12,535.45,502.7Z" fill="#f48225" data-secondary="true"/><path d="M530.73,540.61s.83,2.46,2.52,1.19l6.45-3.49a16.79,16.79,0,0,1,4.76-.95s7.4-1.16,10.46-3.8a13.74,13.74,0,0,1,5.37-2.31,6.51,6.51,0,0,0,2.91-1.39c3.32-2.81,11.48-10.25,12.65-16.28a4.46,4.46,0,0,1,1.06,4.22s-.92,7.52-10.78,15.12a51.43,51.43,0,0,1-10.64,5.82s-3.37,1.15-3.49,3.34L542,548s-4.48,2.53-8.38-.06a6.8,6.8,0,0,1-2.94-6.08C530.66,541.46,530.69,541.06,530.73,540.61Z" fill="#2f2e41"/><path d="M498.18,311.48s-7.93-9.24-18.94-12.69l4.95-5.13s15.95,8.39,18.47,11.38C502.66,305,500,309.89,498.18,311.48Z" fill="#f48225" data-secondary="true"/><path d="M498.18,311.48s-7.93-9.24-18.94-12.69l4.95-5.13s15.95,8.39,18.47,11.38C502.66,305,500,309.89,498.18,311.48Z" fill="#fff" opacity="0.3"/><path d="M513,246.28s1.07,7.11-3,11.15a3.16,3.16,0,0,0,.34,4.76h0a5.58,5.58,0,0,1,1.87,2.52c1,2.73,2.22,7.87-1.43,10.41,0,0-10,8.87-9.54,13.09s-8.43,14.42-13.76,12.43a6.18,6.18,0,0,1-3.73-2.27,2.33,2.33,0,0,0-3.46-.41c-3.49,3.09-9.7,7.69-12.78,4.45,0,0-3.74,3.74-3.78-1.84a1.55,1.55,0,0,0-.78-1.35c-.49-.26-1.16-.24-1.85.92a5.83,5.83,0,0,1-4.8,3,4.22,4.22,0,0,1-4.21-2.6,9.71,9.71,0,0,0-2-2.75c-1.35-1.32-2.86-3.89-.78-7.92a7.38,7.38,0,0,0,.75-4.43c0-.25-.06-.5-.07-.75a3,3,0,0,0-5.56-1.58s-3.12-4.29,5.81-7.56a8.92,8.92,0,0,0,4.68-3.87,5,5,0,0,0,.74-3.65,6,6,0,0,1-.08-2.82,12.88,12.88,0,0,1,2.78-5.41,17.9,17.9,0,0,0,3.68-6.7c2.18-7.63,8.71-22.26,25.88-16.59C487.93,236.51,509.9,235.4,513,246.28Z" fill="#2f2e41"/><path d="M475,311.48c-4.3,1.78-10,6.27-10.86,17.57a8,8,0,0,1-1.81,4.47A16.39,16.39,0,0,0,460,351.36s-7.06,40-4.13,54.08a2.63,2.63,0,0,1,.05.49v13s3.86-2.18,6.86-1.22a9.65,9.65,0,0,0,2.93.41h9.4s3.48,0,1.64-6.74v-4.74a2.85,2.85,0,0,1,.32-1.37,2.36,2.36,0,0,0-.28-2.41,1.25,1.25,0,0,1,0-1.27A4.32,4.32,0,0,0,477,398a2,2,0,0,1,.06-1.38,12.1,12.1,0,0,0,.24-7.56,1.69,1.69,0,0,1,0-1,24.77,24.77,0,0,0,1.55-9.91,1.52,1.52,0,0,1,.67-1.38c1-.66,2.51-2.57,2.34-8.1a4.42,4.42,0,0,1,.54-2.22c2.95-5.43,15.71-30.51,9-47.54a14.89,14.89,0,0,0-6-6.73A11.72,11.72,0,0,0,475,311.48Z" fill="#f48225" data-secondary="true"/><path d="M475,311.48c-4.3,1.78-10,6.27-10.86,17.57a8,8,0,0,1-1.81,4.47A16.39,16.39,0,0,0,460,351.36s-7.06,40-4.13,54.08a2.63,2.63,0,0,1,.05.49v13s3.86-2.18,6.86-1.22a9.65,9.65,0,0,0,2.93.41h9.4s3.48,0,1.64-6.74v-4.74a2.85,2.85,0,0,1,.32-1.37,2.36,2.36,0,0,0-.28-2.41,1.25,1.25,0,0,1,0-1.27A4.32,4.32,0,0,0,477,398a2,2,0,0,1,.06-1.38,12.1,12.1,0,0,0,.24-7.56,1.69,1.69,0,0,1,0-1,24.77,24.77,0,0,0,1.55-9.91,1.52,1.52,0,0,1,.67-1.38c1-.66,2.51-2.57,2.34-8.1a4.42,4.42,0,0,1,.54-2.22c2.95-5.43,15.71-30.51,9-47.54a14.89,14.89,0,0,0-6-6.73A11.72,11.72,0,0,0,475,311.48Z" opacity="0.2"/><path d="M457.44,419.72a15.53,15.53,0,0,1,.85-1.77,13.48,13.48,0,0,0-2.41,1A4.49,4.49,0,0,0,457.44,419.72Z" fill="#f48225" data-secondary="true"/><path d="M457.44,419.72a15.53,15.53,0,0,1,.85-1.77,13.48,13.48,0,0,0-2.41,1A4.49,4.49,0,0,0,457.44,419.72Z" opacity="0.3"/><path d="M308.14,324.58l19,30a10,10,0,0,0,2.4,2.61c2,1.53,5.74,4.49,7.27,6.92l4.15,6.31a4.15,4.15,0,0,1,0,4.51l-2.53,3.6s-.9,1.63-2.52,0c0,0-1.09,2.35-3.25.18a3.11,3.11,0,0,1-3.43.36s-2.16,1.63-3.06,0v-.11a8.31,8.31,0,0,0-1.58-4.88c-2.16-3-5.9-8.48-7.08-12.48a7.6,7.6,0,0,0-2.27-3.47c-2.9-2.64-8.45-8.15-11.79-14.58Z" fill="#f9b499"/><path d="M732.28,88.31H754.4s0,18.91-22.11,23Z" fill="#2f2e41"/><path d="M732.71,149.33h22.13s0,18.92-22.11,23Z" fill="#2f2e41"/><path d="M732.28,207.49h22.13s0,18.92-22.11,23Z" fill="#2f2e41"/><g opacity="0.3"><path d="M732.28,88.31H754.4s0,18.91-22.11,23Z"/><path d="M732.71,149.33h22.13s0,18.92-22.11,23Z"/><path d="M732.28,207.49h22.13s0,18.92-22.11,23Z"/></g><path d="M671.62,89H649.49s0,18.92,22.11,23Z" fill="#2f2e41"/><path d="M671.18,150H649.06s0,18.91,22.11,23Z" fill="#2f2e41"/><path d="M671.62,208.18H649.49s0,18.91,22.11,23Z" fill="#2f2e41"/><g opacity="0.3"><path d="M671.62,89H649.49s0,18.92,22.11,23Z"/><path d="M671.18,150H649.06s0,18.91,22.11,23Z"/><path d="M671.62,208.18H649.49s0,18.91,22.11,23Z"/></g><polygon points="0 436.2 63.14 437.18 0 540.04 0 436.2" fill="#58595b"/><polygon points="813.08 435.76 813.43 448.52 865.45 540.21 865.44 522.27 813.08 435.76" fill="#a7a9ac"/><rect x="106.2" y="248.68" width="21.01" height="221.61" fill="#ccc"/><polygon points="24.36 140.63 76.78 87.25 151.33 87.25 204.71 140.15 204.71 215.65 151.81 268.56 77.75 268.56 23.88 216.13 24.36 140.63" fill="#60a9e4"/><path d="M150.09,263.61H79.89L28.83,214.05l.45-71.37L79,92.21h70.67l50.6,50V213.6l-.38.38ZM80.94,261H149l48.62-48.48V143.31L148.57,94.82H80.06L31.88,143.75,31.44,213Z" fill="#fff"/><path d="M54.65,204.81Q51,200.72,51,191.59v-5.94h12v7.56c0,3,1,4.53,2.9,4.53a2.53,2.53,0,0,0,2.26-1,6.1,6.1,0,0,0,.64-3.22,14.63,14.63,0,0,0-.71-4.92,10.73,10.73,0,0,0-1.8-3.25c-.73-.87-2-2.23-3.93-4.06l-5.23-5.24Q51,170.16,51,163q0-7.78,3.57-11.85T65,147q8.2,0,11.81,4.35T80.4,165H68L68,160.83a2.69,2.69,0,0,0-.67-1.91,2.49,2.49,0,0,0-1.88-.71,2.72,2.72,0,0,0-2.12.78,3,3,0,0,0-.7,2.12q0,3,3.39,6.15L73,174.05a39.47,39.47,0,0,1,4.1,4.56,17.84,17.84,0,0,1,2.62,5.09,21.89,21.89,0,0,1,1,7q0,9-3.29,13.61T66.6,208.91Q58.34,208.91,54.65,204.81Z" fill="#fff"/><path d="M91.43,208.35V159.27H84.21V147.6H110.8v11.67h-7.21v49.08Z" fill="#fff"/><path d="M118.93,204.42q-3.81-4.48-3.81-12.62V162.88c0-5.24,1.27-9.18,3.81-11.85s6.27-4,11.18-4,8.62,1.33,11.17,4,3.82,6.61,3.82,11.85V191.8q0,8.2-3.82,12.66t-11.17,4.45Q122.75,208.91,118.93,204.42Zm13.37-8.09a11,11,0,0,0,.57-4v-29.7a8.12,8.12,0,0,0-.54-3.22,2.09,2.09,0,0,0-2.15-1.24q-3,0-3,4.6v29.63a9.71,9.71,0,0,0,.63,4,2.37,2.37,0,0,0,2.34,1.34A2.15,2.15,0,0,0,132.3,196.33Z" fill="#fff"/><path d="M151.39,147.6h16.06q7.28,0,10.39,4.71T181,166.06c0,6-.92,10.58-2.76,13.65s-5.13,4.6-9.9,4.6h-4.95v24h-12Zm12.66,25.74a5.2,5.2,0,0,0,3.22-.81,3.86,3.86,0,0,0,1.34-2.33,22.83,22.83,0,0,0,.32-4.35,13.08,13.08,0,0,0-.85-5.52c-.56-1.13-1.7-1.7-3.39-1.7h-1.35v14.71Z" fill="#fff"/><path d="M706.46,75.71,707.31,54A22.84,22.84,0,0,1,730.13,32H864.48V24.52H726.63a28.36,28.36,0,0,0-28.36,28.36V76.06Z" fill="#ccc"/><path d="M275.32,233.7a71.21,71.21,0,0,0-18.39,33.54s-2,13.88-3.79,33.9c0,0-2.88,21.82-4.69,27.59,0,0-1.54,22.75-2.92,29a2,2,0,0,0,.74,2.05c3.43,2.65,15.18,9.82,35.36,3.25,0,0,15.66-4,21.57-3a1.26,1.26,0,0,0,1.48-1.41c0-.11,0-.22-.05-.33a15.28,15.28,0,0,1,.07-6.21c1.72-7.17,4.77-23.87,3.21-47.78a85.15,85.15,0,0,0-1.26-9.81,70.83,70.83,0,0,1-1-18.72s1.63-20-11.54-31.2C294.07,244.52,290.83,238,275.32,233.7Z" fill="#686175" data-primary="true"/><path d="M277.85,225.05s-1.09,6.49-2.53,8.65c0,0,14.61,3.79,18.75,10.82,0,0,5.05-8.11,5.23-11.18L290.11,224l-5.32-6.4Z" fill="#f9b499"/><path d="M237.46,438.54s-16.77,16.09-18.78,33.73a24.52,24.52,0,0,1-.7,3.9c-2.12,7.37-9.81,33.59-13.52,37.92,0,0,.75,4.18,6.73,5.2a10.89,10.89,0,0,0,3.69,0c2.47-.44,6.9-1.62,9.41-4.63,0,0-1.26-5.95.9-7.21L234,489.21s9.74-18,14.24-27c0,0,5.59-11,8.84-14.25,0,0,2.34-2,2.52-4.14,0,0-.71-.76-3.87-.65C255.76,443.12,240.13,442,237.46,438.54Z" fill="#f9b499"/><path d="M302.32,445.16s-1.05,28.42,3.87,40.1c0,0,10.46,26.24,8.82,40.38a11.77,11.77,0,0,1,5.12,4.31,8.92,8.92,0,0,0,9.23-4.72s.41-7,4.3-8.2a155.53,155.53,0,0,1-5-37.63,55.49,55.49,0,0,0-.3-6.32c-.49-4.36-1.4-12.34-2.11-18.16,0,0-1.69-9.93-1.57-16.37C324.71,438.55,309.91,444.55,302.32,445.16Z" fill="#f9b499"/><path d="M247.19,360.46a4.1,4.1,0,0,0-1.57,5.14,23.56,23.56,0,0,1,1.83,6.35c.22,1.78.47,3.95.66,6.2a55.77,55.77,0,0,1-.58,14.37,55.72,55.72,0,0,0-.74,9.53,10.69,10.69,0,0,1-3.3,7.64c-2.11,2.05-4.28,6.41-3.69,15.69l.09,3.84a14.4,14.4,0,0,1-1.64,6.86,6.63,6.63,0,0,0-.79,2.46s1.19,3.24,20.31,4.74a7.79,7.79,0,0,1,3.18,1l2.76,1.53c1.4.78,2.7.39,3.25-.67,2.66-5.07,9.69-19,10.71-26.58L261.8,365.33A57.89,57.89,0,0,1,247.19,360.46Z" fill="#2f2e41"/><path d="M247.19,360.46a4.1,4.1,0,0,0-1.57,5.14,23.56,23.56,0,0,1,1.83,6.35c.22,1.78.47,3.95.66,6.2a55.77,55.77,0,0,1-.58,14.37,55.72,55.72,0,0,0-.74,9.53,10.69,10.69,0,0,1-3.3,7.64c-2.11,2.05-4.28,6.41-3.69,15.69l.09,3.84a14.4,14.4,0,0,1-1.64,6.86,6.63,6.63,0,0,0-.79,2.46s1.19,3.24,20.31,4.74a7.79,7.79,0,0,1,3.18,1l2.76,1.53c1.4.78,2.7.39,3.25-.67,2.66-5.07,9.69-19,10.71-26.58L261.8,365.33A57.89,57.89,0,0,1,247.19,360.46Z" opacity="0.2"/><path d="M293,446.68c-4.51-7.34-34-57.47-33-81.86a51,51,0,0,0,22.1-2.54s12.23-5,20.55-3.16c0,0,6.43,6.32,7.25,13.92a20.8,20.8,0,0,0,1.51,5.92c1.72,4,4.42,10.8,5,16a54.15,54.15,0,0,0,2.12,9.73,67.51,67.51,0,0,0,3.46,9.19,44.8,44.8,0,0,1,3.25,9.14,58.08,58.08,0,0,1,1.63,10.5l.58,2.68a3.68,3.68,0,0,1-2.31,4.25c-4.46,1.66-14.15,4.68-30.52,7A1.67,1.67,0,0,1,293,446.68Z" fill="#2f2e41"/><path d="M204.46,514.09s-1.78-3-3.38.53c0,0-3.33,7-3,11.31,0,0-1.45,2.6,16.23,3.76a25.93,25.93,0,0,1,8.39,1.31,11.37,11.37,0,0,0,2.21.63c4.64.75,21.71,3.16,28.17-.86a1.06,1.06,0,0,0,.32-1.43c-.65-1.06-2.91-2.67-10.4-3.7a11.58,11.58,0,0,1-2.39-.58c-3.1-1.13-11.29-4.52-16.28-10.43,0,0-3.08,3.76-10.22,4.76a10.35,10.35,0,0,1-3.24-.07A7.82,7.82,0,0,1,204.46,514.09Z" fill="#686175" data-primary="true"/><path d="M198,525.93s-2.32,4.34.43,5.94c0,0,5.95,4.49,21.46,2.32a10.5,10.5,0,0,1,5.14.74,11.13,11.13,0,0,0,3.05.94c4.73.93,15.55,2.48,24.06-.46a2.66,2.66,0,0,0,1.76-2.55,16.64,16.64,0,0,0-.24-2.73s-2.14,5.33-28.83,1.5c0,0-5.67-2.37-10.6-1.94C214.27,529.69,198.62,528.82,198,525.93Z" fill="#2f2e41"/><path d="M315,525.64s-5.13,2.87-2.05,12.92c0,0,3.48,2.46,11.89-.21a15.52,15.52,0,0,1,4.71.41s20.29,6.15,38.95-6.35c0,0,.63-3-7.58-2.9a13.13,13.13,0,0,1-7.48-2.17L342,519.69A10.24,10.24,0,0,1,339.3,517c-1.59-2.29-4.73-5.89-5.64,0,0,0-3.28.41-4.3,8.2a9.4,9.4,0,0,1-9.23,4.72S318.08,525.85,315,525.64Z" fill="#686175" data-primary="true"/><path d="M313,538.56s-4.1,5.12,6.56,6.35c0,0,8.4.21,12.09-.61,0,0,5.33-.82,9,0,0,0,23.16-.41,28.9-8.2,0,0,1.23-1.44-1-3.69,0,0-14.35,11.68-38.95,6.35,0,0-1.23-.61-4.71-.41C324.85,538.35,317.06,541.43,313,538.56Z" fill="#2f2e41"/><path d="M261.5,292.88a33,33,0,0,1-1.4,11.38.76.76,0,0,1,0,.11,17.86,17.86,0,0,0-.44,8.16,6.17,6.17,0,0,1-.05,2.1c-.61,2.94-2.05,11.44.35,16.66a6.45,6.45,0,0,1,.56,2.15c.48,5.56,2.56,27.28,5.69,33.9a2.16,2.16,0,0,1,.14.43c.28,1.51,1.9,10.26,1.92,15.65a1.23,1.23,0,0,1,0,.27c-.23,1.63-2.44,17.91,3.11,17.79a1.77,1.77,0,0,1,1.58,1c.35.67.92,1.33,1.79,1.12a1.79,1.79,0,0,1,1.89.84,5.18,5.18,0,0,0,1.93,1.93,1.77,1.77,0,0,0,2.06-.32,3,3,0,0,0,.24-.32,1.9,1.9,0,0,1,1.77-.89c.9.07,2.06-.41,2.79-2.37a1.54,1.54,0,0,0,.1-.51l.4-7.26a19.76,19.76,0,0,0-2.42-10.65l-1.2-2.2a1.7,1.7,0,0,1-.18-.46c-.36-1.57-2.4-10.64-3.84-21.39a1.5,1.5,0,0,1,0-.2c0-1.71-.49-25.06-3-31.85a14.51,14.51,0,0,1-.71-2.58c-.31-1.86-.6-4.72.24-6.14a8.5,8.5,0,0,0,.55-1c1.4-3.39,7.56-18.91,7.72-30.51A1.79,1.79,0,0,0,281.9,286c-3.54-1.43-14.32-5.46-14.51-1.64,0,0-.16,2.84-2.51,3.82a1.52,1.52,0,0,0-.58.42l-2,2.05c-.31.33-.77.56-.77,1v1A1.09,1.09,0,0,0,261.5,292.88Z" fill="#f9b499"/><path d="M283.05,287.88a55.23,55.23,0,0,1-.77,7.24,11.4,11.4,0,0,0,1.47-3.84,5,5,0,0,0-.1-2.21A3.52,3.52,0,0,0,283.05,287.88Z" fill="#686175" data-primary="true"/><path d="M283.05,287.88a55.23,55.23,0,0,1-.77,7.24,11.4,11.4,0,0,0,1.47-3.84,5,5,0,0,0-.1-2.21A3.52,3.52,0,0,0,283.05,287.88Z" opacity="0.3"/><path d="M261.49,291.67l.39-4.1a45.56,45.56,0,0,0-.45-9.11c-1-6.6-1.08-20.35,13.67-24.77,0,0,10.63-5,15,6.34a19,19,0,0,1,.8,10.7c-1.4,6.72-4.59,21-8.64,24.39-.21.24,3.59-5.55-.15-8,0,0-14.61-6.18-14.61-2a4.42,4.42,0,0,1-1.84,3.49,9.55,9.55,0,0,0-1.75,1.34,6.09,6.09,0,0,1-1.4,1.08Z" fill="#686175" data-primary="true"/><path d="M261.49,291.67l.39-4.1a45.56,45.56,0,0,0-.45-9.11c-1-6.6-1.08-20.35,13.67-24.77,0,0,10.63-5,15,6.34a19,19,0,0,1,.8,10.7c-1.4,6.72-4.59,21-8.64,24.39-.21.24,3.59-5.55-.15-8,0,0-14.61-6.18-14.61-2a4.42,4.42,0,0,1-1.84,3.49,9.55,9.55,0,0,0-1.75,1.34,6.09,6.09,0,0,1-1.4,1.08Z" opacity="0.2"/><path d="M277.31,228.11l.51-4.24,7-6.3,10,4.44s.3,9.48,4,13.63c0,0-1.22,2.88-1.56,3.39C297.21,239,286,235.84,277.31,228.11Z" fill="#f7aa92"/><ellipse cx="303.72" cy="214.05" rx="15.24" ry="22.9" fill="#f9b499"/><ellipse cx="289.39" cy="216.66" rx="4.68" ry="7.57" transform="translate(-36.49 60.17) rotate(-11.17)" fill="#f9b499"/><path d="M288.48,209s5.23.54,7.94,7.93a14.25,14.25,0,0,0,4-6,11.75,11.75,0,0,1,2.75-4.34l3.08-3.23a5.14,5.14,0,0,1,5.65-1.12c1.61.63,3.51.77,4.68-1.21,0,0,8.6.77,6.09-7.33a15.53,15.53,0,0,0-7.56-8.87,40.58,40.58,0,0,0-8-3.27,23.73,23.73,0,0,1-3.81-1.54c-4.34-2.15-15.93-6.27-27.08,3.88,0,0-11.33,8.29-5,26.67.38,1.11.74,2.22,1,3.36.9,3.74,3.52,12.84,7.41,11.26,0,0,3.44-.36,5.14-7.66C284.79,217.57,283.07,210.62,288.48,209Z" fill="#2f2e41"/><rect x="671.22" y="74.44" width="61.56" height="187.28" rx="3.37" fill="#2f2e41"/><circle cx="702.79" cy="112.11" r="24.66" fill="#fff"/><ellipse cx="702.1" cy="112.62" rx="19.86" ry="19.35" fill="#fe4f4a"/><path d="M703,92.42c-22.09.68-24.83,19.69-24.83,19.69s-2-12.23,6.56-20.62c10.94-10.73,29.51-8.93,37.8,4a33.3,33.3,0,0,1,5,15.3S719.91,92.76,703,92.42Z" fill="#d1d3d4"/><path d="M682.71,107.92s21.7-14.52,38.79.51c0,0-3.22-15-19.4-15.16C702.1,93.27,687.46,92.76,682.71,107.92Z" fill="#231f20" opacity="0.2"/><ellipse cx="695.25" cy="115.02" rx="7.88" ry="9.76" fill="#fff" opacity="0.1"/><circle cx="702.44" cy="171.7" r="24.66" fill="#fff"/><ellipse cx="701.76" cy="172.22" rx="19.86" ry="19.35" fill="#f9e014"/><path d="M702.62,152c-22.09.68-24.83,19.69-24.83,19.69s-2-12.23,6.56-20.62c10.94-10.72,29.51-8.93,37.8,3.95a30.46,30.46,0,0,1,5,15.3S719.57,152.35,702.62,152Z" fill="#d1d3d4"/><path d="M682.37,167.51s21.7-14.52,38.78.51c0,0-3.21-15-19.39-15.15C701.76,152.87,687.12,152.35,682.37,167.51Z" fill="#231f20" opacity="0.2"/><ellipse cx="694.91" cy="174.61" rx="7.88" ry="9.76" fill="#fff" opacity="0.1"/><circle cx="702.79" cy="231.29" r="24.66" fill="#fff"/><ellipse cx="702.1" cy="231.81" rx="19.86" ry="19.35" fill="#a3dc7e"/><path d="M703,211.6c-22.09.69-24.83,19.69-24.83,19.69s-2-12.23,6.56-20.61c10.94-10.73,29.51-8.94,37.8,3.95a30.64,30.64,0,0,1,5,15.29S719.91,211.94,703,211.6Z" fill="#d1d3d4"/><path d="M682.71,227.1s21.7-14.51,38.79.51c0,0-3.22-15-19.4-15.15C702.1,212.46,687.46,211.94,682.71,227.1Z" fill="#231f20" opacity="0.2"/><ellipse cx="695.25" cy="234.21" rx="7.88" ry="9.76" fill="#fff" opacity="0.1"/></g></g></svg>