<svg id="bc4f199e-beb9-481d-acdd-d4ee4ecd3a10" data-name="Layer 1" xmlns="http://www.w3.org/2000/svg" width="865.76" height="682.89" viewBox="0 0 865.76 682.89"><polygon points="575.19 631.35 572.89 649.06 609.44 649.06 607.15 631.35 575.19 631.35" fill="#f48225" data-secondary="true"/><rect x="509.81" y="590.52" width="27.57" height="33.21" fill="#f9b499"/><rect x="577.38" y="590.52" width="27.57" height="33.21" fill="#f9b499"/><polygon points="489.02 325.7 476.24 341.16 463.34 328.7 477.96 319.31 489.02 325.7" fill="#f9b499"/><path d="M491.92,539.44s48-27.51,90.45-24.4l-2.46-36.12s-2.74-15.64,3.84-28.94c0,0,15.22-29.53-1.36-58.52l-51.16,3.05s-6.07,21.81-13,39.67c0,0-6.74,22.85-11.15,42.6Z" fill="#ffcc5a"/><path d="M491.92,539.44s48-27.51,90.45-24.4l-2.46-36.12s-2.74-15.64,3.84-28.94c0,0,15.22-29.53-1.36-58.52l-51.16,3.05s-6.07,21.81-13,39.67c0,0-6.74,22.85-11.15,42.6Z" opacity="0.2"/><path d="M603.9,602.11H573.83a3.2,3.2,0,0,1-3.18-2.91l-12.59-143L544.33,600.73a4.07,4.07,0,0,1-4.26,3.69l-29-1.48a4.08,4.08,0,0,1-3.87-4.2l6.85-216.31,89.39-10.28,3.6,226.72A3.18,3.18,0,0,1,603.9,602.11Z" fill="#f48225" data-secondary="true"/><path d="M526.41,384.94s22.78,9.77,51.18-7.36l-5.43-157.9-26.56-4.6q-3.45,9.27-6.51,19.14C522.17,289.22,521.3,341.34,526.41,384.94Z" fill="#ccc"/><path d="M460.94,30.15l-8.77.16,1.3-20.93a2.76,2.76,0,0,1,2.76-2.59h0A2.75,2.75,0,0,1,459,9.29Z" fill="#ff4f78"/><path d="M460.94,30.15l-8.77.16,1.3-20.93a2.76,2.76,0,0,1,2.76-2.59h0A2.75,2.75,0,0,1,459,9.29Z" opacity="0.2"/><path d="M297.61,112.52s16.71,3.61,13.89,14.57c0,0,49.81-10.65,86.15,7.83,0,0,71.08-23.91,119.81,0,0,0,48.44-19.47,87.28-11.93,0,0-3.76-10.31,14.42-15.32,0,0-32.83-8.26-85.22-5.64,0,0-77.07-20.37-153.52,2.82C380.42,104.85,353.37,102.13,297.61,112.52Z" fill="#ff4f78"/><path d="M297.61,112.52s16.71,3.61,13.89,14.57c0,0,49.81-10.65,86.15,7.83,0,0,71.08-23.91,119.81,0,0,0,48.44-19.47,87.28-11.93,0,0-3.76-10.31,14.42-15.32,0,0-32.83-8.26-85.22-5.64,0,0-77.07-20.37-153.52,2.82C380.42,104.85,353.37,102.13,297.61,112.52Z" fill="#fff" opacity="0.2"/><path d="M413.15,35.42c-37.49,8.49-89.54,28.77-115.54,77.1,0,0,51.06-9.66,82.81-7.67,0,0,63.92-22.87,153.52-2.82,0,0,48.87-2.3,85.22,5.64,0,0-29.53-55.25-115-73A214.43,214.43,0,0,0,413.15,35.42Z" fill="#ff4f78"/><g opacity="0.1"><path d="M380.91,105l-1-.25A139,139,0,0,1,395.47,70c10.22-16.29,28.41-35.86,56.7-39.66l8.77-.16c29.77,4.35,48.15,23.27,58.34,38.8a121.05,121.05,0,0,1,15.14,33l-1,.24a120.11,120.11,0,0,0-15-32.68c-10.08-15.34-28.25-34.53-57.56-38.82h-8.7C398.8,37.83,381.08,104.3,380.91,105Z" fill="#231f20"/></g><path d="M566.76,224,557,233.75a5.65,5.65,0,0,1-6.41,1.15c-3.39-1.61-5-5.07-5-9.08V184.27h21.76l1.35,34.8A6.67,6.67,0,0,1,566.76,224Z" fill="#f9b499"/><path d="M545.6,215.08a109.53,109.53,0,0,0-2,53c3.49,50.59-2.76,82.27-6.22,99.95a381.87,381.87,0,0,1-17.2,60.78c-2.64,7.06-4,15.1-5.78,22.43C506,486.06,496.63,520,488.2,554.8l-16.75-8.5a5.13,5.13,0,0,1-2.66-5.78q4.71-19.66,8.84-40.9c5.11-26.6,8.77-51.92,11.33-75.73,1.75-8.29,2.92-21,7.67-35.45a300,300,0,0,0,12.57-56c3.88-30.86,1.18-56.47-.41-77.63a7.17,7.17,0,0,1,2.46-6.2c3.38-2.73,6.21-5.27,8.49-7.45,3.34-3.21,6.29-6.36,8.87-9.36.92-1.08,1.8-2.18,2.66-3.31a59.91,59.91,0,0,1,6-6.76,59.06,59.06,0,0,1,8.32-6.68" fill="#ffcc5a"/><path d="M662.81,529.76C643.6,541.37,585,557.62,585,557.62l-5.86-75.49c-2.82-17.85,3.35-29.46,3.35-29.46a70.6,70.6,0,0,0,6.63-22.44,68.36,68.36,0,0,0-10.47-45.35c-3.95-6.17-8.28-13.87-12-20.88a109.71,109.71,0,0,1-13.12-52c0-31,8.33-52.37,8.33-52.37,9.09-23.49,6.43-52.42,6.43-52.42a245.33,245.33,0,0,1,30.85,19.53,241.89,241.89,0,0,1,24.44,21.09l6.27,117.39s31.05,112.49,36.5,157.31A7.37,7.37,0,0,1,662.81,529.76Z" fill="#ffcc5a"/><path d="M500.26,376.52h0l-34.05-23.9a3,3,0,0,1-.72-4.12l20.27-28.9a3,3,0,0,1,4.09-.75l2.26,1.54s9.07-69.64,17.2-69.2a10.09,10.09,0,0,0-.52,3.65s6.25,50-.25,82.59C508.54,337.43,505.36,359.82,500.26,376.52Z" fill="#ffcc5a"/><path d="M500.26,376.52h0l-34.05-23.9a3,3,0,0,1-.72-4.12l20.27-28.9a3,3,0,0,1,4.09-.75l2.26,1.54s9.07-69.64,17.2-69.2a10.09,10.09,0,0,0-.52,3.65s6.25,50-.25,82.59C508.54,337.43,505.36,359.82,500.26,376.52Z" opacity="0.2"/><rect x="575.19" y="610.05" width="31.96" height="21.3" fill="#ffcc5a"/><path d="M585.27,636.68h21.87a0,0,0,0,1,0,0v36.55a0,0,0,0,1,0,0H585.27a10.08,10.08,0,0,1-10.08-10.08V646.76A10.08,10.08,0,0,1,585.27,636.68Z" transform="translate(1246.12 63.78) rotate(90)" fill="#ffcc5a"/><path d="M507.52,610.05V639H485.85a16.45,16.45,0,0,0-16.45,16.45v11.86h70.07V610.05Z" fill="#ffcc5a"/><polygon points="586.26 400.35 596.4 386.72 580.34 371.9 572.64 380.33 586.26 400.35" fill="#f9b499"/><path d="M629.39,254.35c-.84-2.67-3.69-4.35-5.85-6.48L604.8,231.2l1.45,102.16A16.45,16.45,0,0,1,602,344.69l-22.39,24.64a2.3,2.3,0,0,0,.15,3.25l27,24.53a2.3,2.3,0,0,0,3.33-.24,211.68,211.68,0,0,0,33.62-57.54A26.12,26.12,0,0,0,645,325.06C641.73,308,637.91,281.55,629.39,254.35Z" fill="#ffcc5a"/><path d="M629.39,254.35c-.84-2.67-3.69-4.35-5.85-6.48L604.8,231.2l1.45,102.16A16.45,16.45,0,0,1,602,344.69l-22.39,24.64a2.3,2.3,0,0,0,.15,3.25l27,24.53a2.3,2.3,0,0,0,3.33-.24,211.68,211.68,0,0,0,33.62-57.54A26.12,26.12,0,0,0,645,325.06C641.73,308,637.91,281.55,629.39,254.35Z" opacity="0.2"/><path d="M460.94,297h-2.82L456.67,95.47a1.53,1.53,0,0,1,1.41-1.64h0a1.53,1.53,0,0,1,1.41,1.61Z" fill="#ff4f78"/><path d="M462.3,293.61a32.54,32.54,0,0,1,13.57,15.67,30.32,30.32,0,0,1,2.09,10l-14.62,9.4Z" fill="#f9b499"/><polygon points="450.91 319.31 456.66 323.9 456.66 318.47 450.91 319.31" fill="#f4a68e"/><path d="M456.67,347.46V294h6.67v51.87c0,7.73,6.59,16.29,14.32,16.29h5c7.73,0,13.67-8.56,13.67-16.29h7.31v1.63A22.49,22.49,0,0,1,481.15,370h-2A22.49,22.49,0,0,1,456.67,347.46Z" fill="#ff4f78"/><path d="M456.67,347.46V294h6.67v51.87c0,7.73,6.59,16.29,14.32,16.29h5c7.73,0,13.67-8.56,13.67-16.29h7.31v1.63A22.49,22.49,0,0,1,481.15,370h-2A22.49,22.49,0,0,1,456.67,347.46Z" fill="#231f20" opacity="0.2"/><path d="M450.91,319.3l12.89-1.86a3.69,3.69,0,0,0,2.64-5.34c-1.37-2.64-2.95-5.4-4.77-8.25-2.28-3.57-6.79-6.74-9-9.51a.95.95,0,0,0-1.75.5Z" fill="#f9b499"/><path d="M545.6,213.43v-6.18L567.36,188S570.39,213.47,545.6,213.43Z" fill="#f4a68e"/><ellipse cx="549.24" cy="182.5" rx="18.12" ry="28.41" fill="#f9b499"/><path d="M567.36,201.09c6.73-1.57,8.06-5,8.31-6.64a50.24,50.24,0,0,1,1.18-6c.19-.68.39-1.33.59-2a42.37,42.37,0,0,1,4-8.7c6.73-11.43-2.75-17.56-2.75-17.56-2.64-.91-.91-3.06-.91-3.06,5.33-11.27-14.41-18.17-14.41-18.17-7.52-3.76-25.69,4.39-25.69,4.39-8.77,4.39-12.94-4.39-12.94-4.39-17.33,18.49,1.65,25.38,1.65,25.38s-5.94,12.32,4.71,18.07c0,0-.27-10.79,5.21-19.67a13.31,13.31,0,0,1,17-5.28c4.47,2.12,9.34,6.85,12.9,16.84a20.21,20.21,0,0,1,1.15,6.81Z" fill="#f48225" data-secondary="true"/><ellipse cx="570.39" cy="183.54" rx="4.39" ry="7.73" fill="#f9b499"/><path d="M229.2,632.28v20.21h15.14A11.5,11.5,0,0,1,255.83,664v8.29h-49v-40Z" fill="#ff4f78"/><path d="M295,632.28v20.21h15.13A11.5,11.5,0,0,1,321.64,664v8.29h-49v-40Z" fill="#ff4f78"/><path d="M232,633.67c-.13.26-1.45-.2-3.23-.14s-3.06.55-3.21.27,1.17-1.29,3.2-1.33S232.13,633.43,232,633.67Z" fill="#263238"/><path d="M232.31,627.22a5.68,5.68,0,0,1-3.11-.13A13.57,13.57,0,0,1,226,626a13.24,13.24,0,0,1-1.75-1,4.38,4.38,0,0,1-.91-.76,1.34,1.34,0,0,1-.08-1.62,1.75,1.75,0,0,1,1.36-.65,4.49,4.49,0,0,1,1.15.21,12.55,12.55,0,0,1,1.91.73,11.22,11.22,0,0,1,2.79,2c1.45,1.45,1.85,2.54,1.74,2.59s-.81-.88-2.23-2a11.94,11.94,0,0,0-2.72-1.64,11.19,11.19,0,0,0-1.76-.63c-.65-.18-1.2-.21-1.45.08s0,.14,0,.34a3.37,3.37,0,0,0,.68.57,13.82,13.82,0,0,0,1.61,1,16.86,16.86,0,0,0,2.89,1.26A22.08,22.08,0,0,1,232.31,627.22Z" fill="#263238"/><path d="M296.8,633.48c-.13.28-1.45-.18-3.23-.14s-3.06.53-3.21.27,1.17-1.3,3.2-1.33S297,633.25,296.8,633.48Z" fill="#263238"/><path d="M297.16,627.05a5.83,5.83,0,0,1-3.1-.13,14.58,14.58,0,0,1-3.21-1.13,16.89,16.89,0,0,1-1.75-1,4.76,4.76,0,0,1-.91-.77,1.32,1.32,0,0,1-.07-1.62,1.6,1.6,0,0,1,1.34-.63,3.66,3.66,0,0,1,1.18.2,10.15,10.15,0,0,1,1.89.74,10.49,10.49,0,0,1,2.79,2c1.45,1.44,1.84,2.54,1.74,2.6s-.81-.88-2.23-2a11.34,11.34,0,0,0-4.47-2.28c-.65-.21-1.21-.24-1.45,0s-.08.14,0,.34a4,4,0,0,0,.68.57,17.83,17.83,0,0,0,1.61,1,16.94,16.94,0,0,0,2.89,1.28A22.05,22.05,0,0,1,297.16,627.05Z" fill="#263238"/><path d="M205.34,415.18a236.66,236.66,0,0,0,4.34,28.65c2.89,11.81,1.8,71.51,1.8,71.51l-4.85,22.92a159.62,159.62,0,0,0-3.41,38.07l1.86,59.57h26.55l23.14-109.17,27.9-101.23L244,394.82Z" fill="#f48225" data-secondary="true"/><path d="M282.62,416.68,297,421.11l6.75,68.36,4.14,34-10.12,111H268.48l-4.26-70a53.17,53.17,0,0,1,0-6.68l1.95-37.93-10.49-44.21L254.87,415Z" fill="#f48225" data-secondary="true"/><path d="M314.44,237.41c.24-1.16,1.44-1.84,2.38-2.53a11.76,11.76,0,0,0,4.65-11.15,11.93,11.93,0,0,0-7.93-9.21,8.8,8.8,0,0,1-2.89-1.19c-2.07-1.63-1.45-4.83-2.18-7.23-1.65-5.26-9.26-6.29-12-11.09-1.67-2.89-1.1-6.52-1-9.88s-.49-7.23-3.44-8.93c-1.59-.9-3.57-1-5.12-1.93-3.21-2-3.06-6.51-4.25-10A13,13,0,0,0,268.64,156s2.33-5-3.85-7.64c-7.44-3.1-7.92,2.17-11.35-1.12a11.38,11.38,0,0,0-14-1,31.2,31.2,0,0,1-3.77,2.9,22.08,22.08,0,0,1-5.6,1.44,16.63,16.63,0,0,0-12.81,15.56l43.08,82.8c1.63,7.71.87,9.33,7.53,13.66,1.45.91,11.44,3.58,13.09,3.87,2.05.35,7,.52,8.92-.3,4.15-1.81,10.4-4.56,12.06-8.68a11.77,11.77,0,0,0,13.31-3A11.36,11.36,0,0,0,315.9,241C315.18,239.87,314.15,238.7,314.44,237.41Z" fill="#f48225" data-secondary="true"/><path d="M275.71,167.87a30.11,30.11,0,0,0-16.51-9.19L231,163.18l-7.5,4.67-1-2.67c-2.76-1.8-10.28-5.41-16.38,1.12-2.2,2.36-3.8,8.46-3.7,11.57,0,1.19.24,2.64-.78,3.33a3.92,3.92,0,0,1-1.23.43c-7.13,1.78-11.86,9.46-9.91,16.13a3.17,3.17,0,0,1,.23,1.33,3.68,3.68,0,0,1-1.17,1.81,11.05,11.05,0,0,0-1.3,13,13.49,13.49,0,0,1,2.14,3.83c.58,2.52-1.3,4.88-2.72,7.07-4.34,6.6-4.78,15.91,1,21.57,1.44,1.35,3.15,2.55,3.74,4.33a10.23,10.23,0,0,1,.31,2.75c.21,4.66,3.12,9.75,8,10.53,2.73.43,6-.42,8,1.36a11.49,11.49,0,0,1,1.88,2.89,10.5,10.5,0,0,0,11.9,4.21,9.33,9.33,0,0,0,6.26-10.28,12.73,12.73,0,0,0,8.17-12.7s-3.4-17.07-.33-20.62c5.71-6.62-.24-13.24-2.26-17.74s4.68-5,4.94-9.23a14.17,14.17,0,0,0-.58-3.6l.86-6.54c-.24-1-1.43,4.37-1.8,3.14a27.83,27.83,0,0,1-.28-3.41,6.33,6.33,0,0,1,6.45-6.22,6.47,6.47,0,0,1,1.69.26,11.07,11.07,0,0,0,11.57-3.84c4.3,3.72,1.58-6,7-7.7a41.89,41.89,0,0,0,7.74,7.66,15.17,15.17,0,0,0,10.56,2.9A26.56,26.56,0,0,0,275.71,167.87Z" fill="#f48225" data-secondary="true"/><path d="M214,259.1s8.25-9.64,12.89-13.35a18.74,18.74,0,0,0,6-8.2l33.47,13.83,5.4,10.69,8.77,11.87,7.08,10a46.64,46.64,0,0,1,8.48,23.54l3.3,45,1.93,88.21s-32.07-1.16-40.39-6A80.37,80.37,0,0,0,246.11,429a57.46,57.46,0,0,0-35.37.74l-8.56,3s4.45-42.11,7.34-54.48c.71-3,1.3-5.78,1.78-8.18a102.1,102.1,0,0,1,8.43-24.91h0l-11.15-54s-1.53-11,.42-18.6A73,73,0,0,1,214,259.1Z" fill="#ff4f78"/><path d="M314.15,277.38s2.33-6.22,4.34-10.25a85.38,85.38,0,0,0,4-10.72s-2.17-5.78-.76-7.61,2.3-1.54,2.3-1.54.78-2.65,3.19-2.19,1.65,6.18,1.65,6.18l.77,13.25-2.42,21.25L313.37,298l-1.71-6.15c-.35.16-2.3-2.36-2.54-6.49a18.77,18.77,0,0,1,.21-5s-.14-2.14-.11-6.33a10.71,10.71,0,0,1,1.37-6.09,2,2,0,0,1,2.73-.71,2,2,0,0,1,1,1.95C314.28,271.94,314.15,277.38,314.15,277.38Z" fill="#f7a78d"/><path d="M271.74,262.07l35,37.59,4.64-6.23,14.93-.09s-2,33.71-8.29,45.83a25.41,25.41,0,0,1-18.65,13.31Z" fill="#ff4f78"/><path d="M271.74,262.07l35,37.59,4.64-6.23,14.93-.09s-2,33.71-8.29,45.83a25.41,25.41,0,0,1-18.65,13.31Z" opacity="0.2"/><path d="M350.55,253,318,327.86s26.54-10.52,41.07-12.35l35.41-69C377.59,247.49,362.15,249.22,350.55,253Z" fill="#f48225" data-secondary="true"/><path d="M355.06,283l-9.8,1.75-14.8,1.62a24.36,24.36,0,0,0-4.83,0c-1.44.29-9.95,6-9.95,6l-4.25,4.83-25.15,13.62,13.41,19.47,17.48-15.91s18.6-4.24,19.63-4.69,6.29-6,6.29-6l2.48-1.89,5-4.92a4.36,4.36,0,0,0,1.11-4.34l1.45-1.14a3.85,3.85,0,0,0,1-4.72C356.66,284.84,355.06,283,355.06,283Z" fill="#f9b499"/><path d="M286,310.38l-1.91-3.14-9.25,2.23-14,3.15S252.7,264.76,241,257.08s-20.24-6.32-27.47,7.23-3.33,21.44-3.33,21.44,18.67,52.76,30.8,63.54,52.38-9.54,52.38-9.54l8.14-6.84Z" fill="#ff4f78"/><path d="M286,310.38l-1.91-3.14-9.25,2.23-14,3.15S252.7,264.76,241,257.08s-20.24-6.32-27.47,7.23-3.33,21.44-3.33,21.44,18.67,52.76,30.8,63.54,52.38-9.54,52.38-9.54l8.14-6.84Z" opacity="0.2"/><polygon points="232.86 237.55 237.23 221.36 262.26 226.28 262.26 249.7 232.86 237.55" fill="#f9b499"/><path d="M235.12,229.18l2.11-7.82,25,4.92V233S247.8,239.29,235.12,229.18Z" fill="#f7a78d"/><ellipse cx="252.31" cy="205.49" rx="27.55" ry="17.58" transform="matrix(0.13, -0.99, 0.99, 0.13, 15.5, 428.66)" fill="#f9b499"/><ellipse cx="234.01" cy="205.88" rx="4.25" ry="7.5" fill="#f9b499"/><path d="M231.14,197.69s4.41,4.34,12.39-7.53a6.61,6.61,0,0,0,7.32-3.2s8.22,2.58,10.64-4.34l-3.63-11.05-21.76,1.69Z" fill="#f48225" data-secondary="true"/><path d="M274.39,192.8s-4.4,4.34-12.39-7.53a6.61,6.61,0,0,1-7.32-3.2s-8.21,2.57-10.64-4.35l3.64-11,21.75,1.69Z" fill="#f48225" data-secondary="true"/><path d="M464.09,662.38c-.32,7.56,23.56,14.7,53.24,16s54.19-3.83,54.51-11.39S548.27,652.3,518.6,651,464.41,654.86,464.09,662.38Z" fill="#cecece"/><rect x="511.48" y="603.82" width="13.66" height="107.97" transform="translate(-160.87 1147.76) rotate(-87.57)" fill="#cecece"/><path d="M464.66,648.72c-.32,7.56,23.56,14.69,53.23,16s54.2-3.83,54.52-11.39-23.57-14.66-53.24-15.94S465,641.19,464.66,648.72Z" fill="#cecece"/><path d="M464.66,648.72c-.32,7.56,23.56,14.69,53.23,16s54.2-3.83,54.52-11.39-23.57-14.66-53.24-15.94S465,641.19,464.66,648.72Z" fill="#fff" opacity="0.4" style="isolation:isolate"/><path d="M471.54,648.5a2.18,2.18,0,0,0,.46,1.35c3.55-4.43,23.32-7.09,46.89-6.07s43.05,5.29,46.14,10a1.89,1.89,0,0,0,.56-1.31c.22-5.11-20.65-10.22-46.67-11.32S471.75,643.39,471.54,648.5Z" fill="#cecece"/><path d="M471.54,648.5a2.18,2.18,0,0,0,.46,1.35c3.55-4.43,23.32-7.09,46.89-6.07s43.05,5.29,46.14,10a1.89,1.89,0,0,0,.56-1.31c.22-5.11-20.65-10.22-46.67-11.32S471.75,643.39,471.54,648.5Z" fill="#cecece" opacity="0.4" style="isolation:isolate"/><path d="M472,649.85c3.23,4.72,22.65,9,46.14,10s43.34-1.6,46.89-6c-3.16-4.72-22.58-9-46.14-10S475.62,645.42,472,649.85Z" fill="#cecece" opacity="0.4" style="isolation:isolate"/><path d="M452.62,641.69c-.32,7.56,23.57,14.69,53.24,16s54.2-3.83,54.52-11.36-23.57-14.69-53.24-16S453.08,634.17,452.62,641.69Z" fill="#cecece"/><rect x="500.16" y="583.2" width="13.66" height="107.97" transform="translate(-151.11 1116.7) rotate(-87.57)" fill="#cecece"/><path d="M453.33,628.06c-.32,7.53,23.57,14.66,53.24,15.94s54.2-3.84,54.52-11.36-23.57-14.69-53.24-16S453.65,620.5,453.33,628.06Z" fill="#cecece"/><path d="M453.33,628.06c-.32,7.53,23.57,14.66,53.24,15.94s54.2-3.84,54.52-11.36-23.57-14.69-53.24-16S453.65,620.5,453.33,628.06Z" fill="#fff" opacity="0.4" style="isolation:isolate"/><path d="M460.22,627.81a2,2,0,0,0,.46,1.35c3.55-4.43,23.32-7.1,46.88-6s43.06,5.25,46.14,10a2.12,2.12,0,0,0,.57-1.28c.22-5.11-20.65-10.25-46.67-11.35S460.43,622.7,460.22,627.81Z" fill="#cecece"/><path d="M460.22,627.81a2,2,0,0,0,.46,1.35c3.55-4.43,23.32-7.1,46.88-6s43.06,5.25,46.14,10a2.12,2.12,0,0,0,.57-1.28c.22-5.11-20.65-10.25-46.67-11.35S460.43,622.7,460.22,627.81Z" fill="#cecece" opacity="0.4" style="isolation:isolate"/><path d="M460.68,629.16c3.19,4.72,22.64,9,46.14,10s43.34-1.59,46.88-6c-3.15-4.72-22.57-9-46.14-10S464.26,624.73,460.68,629.16Z" fill="#cecece" opacity="0.4" style="isolation:isolate"/><path d="M454.22,616.78c-.32,7.55,23.57,14.69,53.24,16s54.19-3.84,54.51-11.4-23.56-14.65-53.23-15.93S454.54,609.25,454.22,616.78Z" fill="#cecece"/><rect x="501.63" y="558.26" width="13.66" height="107.97" transform="translate(-124.79 1094.28) rotate(-87.57)" fill="#cecece"/><path d="M454.79,603.11c-.32,7.56,23.56,14.69,53.24,16s54.16-3.83,54.48-11.36-23.57-14.69-53.24-16S455.11,595.59,454.79,603.11Z" fill="#cecece"/><path d="M454.79,603.11c-.32,7.56,23.56,14.69,53.24,16s54.16-3.83,54.48-11.36-23.57-14.69-53.24-16S455.11,595.59,454.79,603.11Z" fill="#fff" opacity="0.4" style="isolation:isolate"/><path d="M461.67,602.9a2.21,2.21,0,0,0,.47,1.35c3.54-4.44,23.31-7.1,46.88-6s43.05,5.26,46.14,10a1.89,1.89,0,0,0,.57-1.28c.21-5.11-20.66-10.26-46.67-11.36S461.89,597.79,461.67,602.9Z" fill="#cecece"/><path d="M461.67,602.9a2.21,2.21,0,0,0,.47,1.35c3.54-4.44,23.31-7.1,46.88-6s43.05,5.26,46.14,10a1.89,1.89,0,0,0,.57-1.28c.21-5.11-20.66-10.26-46.67-11.36S461.89,597.79,461.67,602.9Z" fill="#cecece" opacity="0.4" style="isolation:isolate"/><path d="M462.14,604.25c3.22,4.72,22.64,9,46.13,10s43.34-1.6,46.89-6c-3.16-4.72-22.57-9-46.14-10S465.76,599.88,462.14,604.25Z" fill="#cecece" opacity="0.4" style="isolation:isolate"/><path d="M442.9,596.12c-.32,7.52,23.57,14.66,53.24,15.93s54.19-3.83,54.51-11.35-23.56-14.7-53.24-16S443.22,588.56,442.9,596.12Z" fill="#cecece"/><rect x="490.27" y="537.49" width="13.66" height="107.97" transform="translate(-114.92 1063.05) rotate(-87.57)" fill="#cecece"/><path d="M443.47,582.45c-.32,7.53,23.56,14.66,53.23,15.94s54.2-3.83,54.52-11.36-23.57-14.69-53.24-16S443.79,575,443.47,582.45Z" fill="#cecece"/><path d="M443.47,582.45c-.32,7.53,23.56,14.66,53.23,15.94s54.2-3.83,54.52-11.36-23.57-14.69-53.24-16S443.79,575,443.47,582.45Z" fill="#fff" opacity="0.4" style="isolation:isolate"/><path d="M450.35,582.13a1.93,1.93,0,0,0,.46,1.35c3.55-4.43,23.32-7.09,46.89-6s43.05,5.25,46.14,10a2.24,2.24,0,0,0,.57-1.27c.21-5.12-20.66-10.26-46.68-11.36S450.56,577.09,450.35,582.13Z" fill="#cecece"/><path d="M450.35,582.13a1.93,1.93,0,0,0,.46,1.35c3.55-4.43,23.32-7.09,46.89-6s43.05,5.25,46.14,10a2.24,2.24,0,0,0,.57-1.27c.21-5.12-20.66-10.26-46.68-11.36S450.56,577.09,450.35,582.13Z" fill="#cecece" opacity="0.4" style="isolation:isolate"/><path d="M450.81,583.55c3.2,4.72,22.65,9,46.14,10s43.34-1.6,46.89-6c-3.16-4.72-22.58-9-46.14-10S454.4,579.12,450.81,583.55Z" fill="#cecece" opacity="0.4" style="isolation:isolate"/><path d="M451.71,672.58c-.55,7.55-25.1,11.9-54.72,9.77s-53.4-10-52.85-17.56,25.09-11.86,54.71-9.73S452.25,665.07,451.71,672.58Z" fill="#cecece"/><rect x="391.53" y="607.84" width="13.66" height="107.97" transform="matrix(0.07, -1, 1, 0.07, -290.51, 1011.33)" fill="#cecece"/><path d="M452.71,658.94c-.55,7.55-25.1,11.9-54.72,9.77s-53.4-10-52.85-17.56,25.09-11.86,54.71-9.73S453.25,651.43,452.71,658.94Z" fill="#cecece"/><path d="M452.71,658.94c-.55,7.55-25.1,11.9-54.72,9.77s-53.4-10-52.85-17.56,25.09-11.86,54.71-9.73S453.25,651.43,452.71,658.94Z" fill="#fff" opacity="0.4" style="isolation:isolate"/><path d="M445.89,657.94a2.17,2.17,0,0,1-.61,1.29c-3-4.81-22.35-9.72-45.88-11.4s-43.38.33-47,4.66a1.92,1.92,0,0,1-.42-1.37c.38-5.1,21.69-7.79,47.66-5.9S446.27,652.84,445.89,657.94Z" fill="#cecece"/><path d="M445.89,657.94a2.17,2.17,0,0,1-.61,1.29c-3-4.81-22.35-9.72-45.88-11.4s-43.38.33-47,4.66a1.92,1.92,0,0,1-.42-1.37c.38-5.1,21.69-7.79,47.66-5.9S446.27,652.84,445.89,657.94Z" fill="#cecece" opacity="0.4" style="isolation:isolate"/><path d="M445.28,659.23c-3.75,4.32-23.52,6.33-47,4.62s-42.87-6.54-45.88-11.36c3.67-4.32,23.45-6.33,47-4.66S442.19,654.41,445.28,659.23Z" fill="#cecece" opacity="0.4" style="isolation:isolate"/><path d="M465.47,653.34c-.55,7.54-25.1,11.9-54.72,9.77s-53.4-10-52.86-17.52,25.1-11.9,54.72-9.78S465.87,645.81,465.47,653.34Z" fill="#cecece"/><rect x="405.14" y="588.65" width="13.66" height="107.97" transform="translate(-258.75 1007.1) rotate(-85.86)" fill="#cecece"/><path d="M466.32,639.72c-.54,7.51-25.09,11.86-54.71,9.73s-53.4-10-52.86-17.52,25.1-11.9,54.72-9.77S466.87,632.17,466.32,639.72Z" fill="#cecece"/><path d="M466.32,639.72c-.54,7.51-25.09,11.86-54.71,9.73s-53.4-10-52.86-17.52,25.1-11.9,54.72-9.77S466.87,632.17,466.32,639.72Z" fill="#fff" opacity="0.4" style="isolation:isolate"/><path d="M459.51,638.68a2,2,0,0,1-.61,1.29c-3-4.81-22.36-9.72-45.89-11.36s-43.37.29-47,4.62a2.24,2.24,0,0,1-.42-1.33c.38-5.1,21.7-7.83,47.67-5.94S459.88,633.58,459.51,638.68Z" fill="#cecece"/><path d="M459.51,638.68a2,2,0,0,1-.61,1.29c-3-4.81-22.36-9.72-45.89-11.36s-43.37.29-47,4.62a2.24,2.24,0,0,1-.42-1.33c.38-5.1,21.7-7.83,47.67-5.94S459.88,633.58,459.51,638.68Z" fill="#cecece" opacity="0.4" style="isolation:isolate"/><path d="M458.9,640c-3.72,4.32-23.53,6.33-47,4.63s-42.87-6.55-45.89-11.37c3.68-4.32,23.45-6.33,47-4.62S455.84,635.15,458.9,640Z" fill="#cecece" opacity="0.4" style="isolation:isolate"/><path d="M466.73,628.4c-.55,7.55-25.09,11.9-54.71,9.78s-53.41-10-52.86-17.56,25.09-11.87,54.71-9.74S467.28,620.89,466.73,628.4Z" fill="#cecece"/><rect x="406.54" y="563.7" width="13.66" height="107.97" transform="translate(-232.57 985.35) rotate(-85.86)" fill="#cecece"/><path d="M467.73,614.76c-.55,7.55-25.09,11.9-54.71,9.78s-53.37-10-52.83-17.52,25.1-11.9,54.72-9.78S468.28,607.25,467.73,614.76Z" fill="#cecece"/><path d="M467.73,614.76c-.55,7.55-25.09,11.9-54.71,9.78s-53.37-10-52.83-17.52,25.1-11.9,54.72-9.78S468.28,607.25,467.73,614.76Z" fill="#fff" opacity="0.4" style="isolation:isolate"/><path d="M460.92,613.76a2.24,2.24,0,0,1-.62,1.29c-3-4.81-22.35-9.72-45.88-11.36s-43.37.29-47,4.63A1.87,1.87,0,0,1,367,607c.37-5.1,21.7-7.82,47.67-5.94S461.29,608.66,460.92,613.76Z" fill="#cecece"/><path d="M460.92,613.76a2.24,2.24,0,0,1-.62,1.29c-3-4.81-22.35-9.72-45.88-11.36s-43.37.29-47,4.63A1.87,1.87,0,0,1,367,607c.37-5.1,21.7-7.82,47.67-5.94S461.29,608.66,460.92,613.76Z" fill="#cecece" opacity="0.4" style="isolation:isolate"/><path d="M460.3,615.05c-3.75,4.32-23.52,6.33-47,4.63s-42.87-6.55-45.89-11.36c3.68-4.33,23.45-6.34,47-4.63S457.21,610.3,460.3,615.05Z" fill="#cecece" opacity="0.4" style="isolation:isolate"/><path d="M480.34,609.18c-.54,7.51-25.09,11.86-54.71,9.74s-53.4-10-52.86-17.53,25.1-11.9,54.72-9.77S480.89,601.63,480.34,609.18Z" fill="#cecece"/><rect x="420.2" y="544.38" width="13.66" height="107.97" transform="translate(-200.62 981.04) rotate(-85.86)" fill="#cecece"/><path d="M481.34,595.54c-.54,7.51-25.09,11.86-54.71,9.74s-53.4-10-52.86-17.53,25.1-11.9,54.72-9.77S481.88,588.13,481.34,595.54Z" fill="#cecece"/><path d="M481.34,595.54c-.54,7.51-25.09,11.86-54.71,9.74s-53.4-10-52.86-17.53,25.1-11.9,54.72-9.77S481.88,588.13,481.34,595.54Z" fill="#fff" opacity="0.4" style="isolation:isolate"/><path d="M473.92,595.79c-3.71,4.33-23.52,6.33-47,4.63s-42.87-6.55-45.88-11.36c3.67-4.33,23.45-6.34,47-4.63S470.87,591,473.92,595.79Z" fill="#cecece" opacity="0.4" style="isolation:isolate"/><path d="M460.18,578.59c-.32,7.52,23.57,14.65,53.24,15.93s54.2-3.83,54.52-11.36-23.57-14.69-53.24-16S460.5,571,460.18,578.59Z" fill="#cecece"/><rect x="507.59" y="520.05" width="13.66" height="107.97" transform="translate(-80.9 1063.65) rotate(-87.57)" fill="#cecece"/><path d="M460.79,564.92c-.32,7.53,23.56,14.66,53.23,15.94s54.2-3.84,54.52-11.36-23.57-14.69-53.24-16S461.11,557.29,460.79,564.92Z" fill="#cecece"/><path d="M460.79,564.92c-.32,7.53,23.56,14.66,53.23,15.94s54.2-3.84,54.52-11.36-23.57-14.69-53.24-16S461.11,557.29,460.79,564.92Z" fill="#fff" opacity="0.4" style="isolation:isolate"/><path d="M467.64,564.67a2.34,2.34,0,0,0,.46,1.35c3.55-4.43,23.35-7.1,46.88-6s43.09,5.25,46.14,10a2.06,2.06,0,0,0,.61-1.28c.21-5.11-20.66-10.25-46.68-11.35S467.88,559.56,467.64,564.67Z" fill="#cecece"/><path d="M467.64,564.67a2.34,2.34,0,0,0,.46,1.35c3.55-4.43,23.35-7.1,46.88-6s43.09,5.25,46.14,10a2.06,2.06,0,0,0,.61-1.28c.21-5.11-20.66-10.25-46.68-11.35S467.88,559.56,467.64,564.67Z" fill="#cecece" opacity="0.4" style="isolation:isolate"/><path d="M468.1,566c3.23,4.72,22.64,9,46.14,10s43.37-1.59,46.88-6c-3.12-4.72-22.57-9-46.14-10S471.72,561.59,468.1,566Z" fill="#cecece" opacity="0.4" style="isolation:isolate"/><path d="M448.86,557.89c-.32,7.53,23.57,14.7,53.24,15.94s54.2-3.83,54.51-11.36-23.56-14.69-53.23-16S449.07,550.19,448.86,557.89Z" fill="#cecece"/><rect x="496.23" y="499.32" width="13.66" height="107.97" transform="translate(-71.07 1032.46) rotate(-87.57)" fill="#cecece"/><path d="M449.43,544.23c-.32,7.52,23.57,14.69,53.24,15.94s54.19-3.8,54.51-11.36-23.56-14.7-53.24-16S449.75,536.67,449.43,544.23Z" fill="#cecece"/><path d="M449.43,544.23c-.32,7.52,23.57,14.69,53.24,15.94s54.19-3.8,54.51-11.36-23.56-14.7-53.24-16S449.75,536.67,449.43,544.23Z" fill="#fff" opacity="0.4" style="isolation:isolate"/><path d="M456.17,544a2.07,2.07,0,0,0,.46,1.35c3.55-4.44,23.32-7.1,46.89-6s43.05,5.25,46.14,10a2,2,0,0,0,.57-1.31c.21-5.11-20.66-10.22-46.68-11.36S456.53,538.87,456.17,544Z" fill="#cecece"/><path d="M456.17,544a2.07,2.07,0,0,0,.46,1.35c3.55-4.44,23.32-7.1,46.89-6s43.05,5.25,46.14,10a2,2,0,0,0,.57-1.31c.21-5.11-20.66-10.22-46.68-11.36S456.53,538.87,456.17,544Z" fill="#cecece" opacity="0.4" style="isolation:isolate"/><path d="M456.78,545.33c3.23,4.72,22.64,9,46.14,10s43.33-1.6,46.88-6c-3.16-4.75-22.57-9-46.14-10S460.4,540.89,456.78,545.33Z" fill="#cecece" opacity="0.4" style="isolation:isolate"/><path d="M310.18,638.11c-.36,7.56,23.53,14.69,53.24,15.94s54.16-3.8,54.48-11.36-23.53-14.7-53.24-15.94S310.5,630.55,310.18,638.11Z" fill="#cecece"/><rect x="357.54" y="579.51" width="13.66" height="107.97" transform="translate(-284 970.68) rotate(-87.57)" fill="#cecece"/><path d="M310.75,624.45c-.32,7.56,23.56,14.69,53.24,16s54.19-3.84,54.51-11.4-23.57-14.69-53.24-15.93S311.07,616.89,310.75,624.45Z" fill="#cecece"/><path d="M310.75,624.45c-.32,7.56,23.56,14.69,53.24,16s54.19-3.84,54.51-11.4-23.57-14.69-53.24-15.93S311.07,616.89,310.75,624.45Z" fill="#fff" opacity="0.4" style="isolation:isolate"/><path d="M317.6,624.2a1.87,1.87,0,0,0,.46,1.35c3.55-4.44,23.32-7.1,46.88-6s43.06,5.29,46.14,10a2.25,2.25,0,0,0,.57-1.31C411.86,623.1,391,618,365,616.89S317.85,619.09,317.6,624.2Z" fill="#cecece"/><path d="M317.6,624.2a1.87,1.87,0,0,0,.46,1.35c3.55-4.44,23.32-7.1,46.88-6s43.06,5.29,46.14,10a2.25,2.25,0,0,0,.57-1.31C411.86,623.1,391,618,365,616.89S317.85,619.09,317.6,624.2Z" fill="#cecece" opacity="0.4" style="isolation:isolate"/><path d="M318.09,625.55c3.2,4.72,22.65,9,46.14,10s43.34-1.59,46.89-6c-3.16-4.72-22.57-9-46.14-10S321.68,621.25,318.09,625.55Z" fill="#cecece" opacity="0.4" style="isolation:isolate"/><path d="M357.1,624.8c-1.77,7.35,20.34,18.88,49.33,25.77s53.95,6.53,55.69-.82S441.75,630.87,412.75,624,358.84,617.45,357.1,624.8Z" fill="#cecece"/><rect x="404.36" y="576.73" width="13.66" height="107.97" transform="translate(-297.56 884.79) rotate(-76.62)" fill="#cecece"/><path d="M360.19,611.49c-1.78,7.35,20.33,18.88,49.33,25.8s54,6.53,55.69-.81-20.27-18.78-49.3-25.88S362,604.14,360.19,611.49Z" fill="#cecece"/><path d="M360.19,611.49c-1.78,7.35,20.33,18.88,49.33,25.8s54,6.53,55.69-.81-20.27-18.78-49.3-25.88S362,604.14,360.19,611.49Z" fill="#fff" opacity="0.4" style="isolation:isolate"/><path d="M367,612.56a2,2,0,0,0,.21,1.42c4.37-3.55,24.24-2.49,47.17,3s41.28,13.34,43.48,18.56a2.06,2.06,0,0,0,.81-1.17c1.17-5-18.35-14-43.69-20S368.24,607.59,367,612.56Z" fill="#cecece"/><path d="M367,612.56a2,2,0,0,0,.21,1.42c4.37-3.55,24.24-2.49,47.17,3s41.28,13.34,43.48,18.56a2.06,2.06,0,0,0,.81-1.17c1.17-5-18.35-14-43.69-20S368.24,607.59,367,612.56Z" fill="#cecece" opacity="0.4" style="isolation:isolate"/><path d="M367.29,614.15c2.27,5.26,20.51,13.13,43.47,18.56s42.84,6.68,47.17,3c-2.2-5.22-20.48-13.1-43.47-18.57S371.62,610.28,367.29,614.15Z" fill="#cecece" opacity="0.4" style="isolation:isolate"/><circle cx="503.59" cy="507.58" r="48.62" fill="#cecece"/><circle cx="509.41" cy="507.58" r="48.62" fill="#cecece"/><circle cx="509.41" cy="507.58" r="48.62" fill="#fff" opacity="0.5" style="isolation:isolate"/><circle cx="509.41" cy="507.58" r="36.41" transform="translate(-209.71 508.88) rotate(-45)" fill="#cecece"/><path d="M524.14,519.62a15.18,15.18,0,0,1-11.39,4.61,15.83,15.83,0,0,1-15.19-9.9h19.59v-4.19H496.49q0-1,0-1.92c0-.64,0-1.28,0-1.91h20.62v-4.19H497.56a15.8,15.8,0,0,1,15.22-9.9,15.18,15.18,0,0,1,11.4,4.57l.56.57,3.94-3.87-.53-.56a20.55,20.55,0,0,0-15.58-6.18,21.3,21.3,0,0,0-21.3,15.37h-6.92v4.19h6.11v3.83h-6.18v4.19h6.92a21.29,21.29,0,0,0,21.3,15.36,20.58,20.58,0,0,0,15.58-6.24l.53-.57L524.67,519Z" fill="#fff" opacity="0.3" style="isolation:isolate"/><path d="M306.85,650.05c-1.1,4.44-16.15,4.47-33.61,0s-30.74-11.54-29.64-15.94,16.19-4.47,33.65,0S307.91,645.72,306.85,650.05Z" fill="#407bff"/><rect x="272.13" y="605.56" width="8.27" height="65.2" transform="translate(-409.89 751.12) rotate(-75.94)" fill="#407bff"/><path d="M308.87,642.17c-1.13,4.44-16.18,4.47-33.64,0s-30.71-11.5-29.61-15.94,16.15-4.47,33.62,0S310,637.63,308.87,642.17Z" fill="#407bff"/><path d="M308.87,642.17c-1.13,4.44-16.18,4.47-33.64,0s-30.71-11.5-29.61-15.94,16.15-4.47,33.62,0S310,637.63,308.87,642.17Z" fill="#fff" opacity="0.4" style="isolation:isolate"/><path d="M304.9,640.71a1.05,1.05,0,0,1-.5.71c-1.31-3.19-12.28-8.09-26.09-11.53s-25.84-4.33-28.39-2.13a1.75,1.75,0,0,1,0-.85c.78-3,13.73-2.38,29,1.42S305.68,637.73,304.9,640.71Z" fill="#407bff"/><path d="M304.9,640.71a1.05,1.05,0,0,1-.5.71c-1.31-3.19-12.28-8.09-26.09-11.53s-25.84-4.33-28.39-2.13a1.75,1.75,0,0,1,0-.85c.78-3,13.73-2.38,29,1.42S305.68,637.73,304.9,640.71Z" fill="#407bff" opacity="0.4" style="isolation:isolate"/><path d="M304.36,641.42c-2.66,2.17-14.62,1.32-28.39-2.13s-24.84-8.37-26.12-11.53c2.66-2.2,14.62-1.35,28.39,2.13S303.09,638.23,304.36,641.42Z" fill="#407bff" opacity="0.4" style="isolation:isolate"/><path d="M337.23,664.6c.21,4.54-14.2,8.87-32.23,9.62s-32.72-2.31-32.9-6.85,14.2-8.87,32.23-9.66S337.05,659.92,337.23,664.6Z" fill="#cecece"/><rect x="271.81" y="657.79" width="65.2" height="8.27" transform="translate(-27.79 13.5) rotate(-2.43)" fill="#cecece"/><path d="M336.87,656.37c.22,4.57-14.19,8.87-32.19,9.65s-32.72-2.31-32.93-6.89,14.19-8.87,32.22-9.61S336.7,651.79,336.87,656.37Z" fill="#cecece"/><path d="M336.87,656.37c.22,4.57-14.19,8.87-32.19,9.65s-32.72-2.31-32.93-6.89,14.19-8.87,32.22-9.61S336.7,651.79,336.87,656.37Z" fill="#fff" opacity="0.4" style="isolation:isolate"/><path d="M332.76,656.37a1,1,0,0,1-.29.81c-2.16-2.66-14.19-4.26-28.39-3.55s-26,3.2-27.93,6a1.21,1.21,0,0,1-.32-.78c0-3.09,12.46-6.18,28.18-6.85S332.76,653.1,332.76,656.37Z" fill="#cecece"/><path d="M332.76,656.37a1,1,0,0,1-.29.81c-2.16-2.66-14.19-4.26-28.39-3.55s-26,3.2-27.93,6a1.21,1.21,0,0,1-.32-.78c0-3.09,12.46-6.18,28.18-6.85S332.76,653.1,332.76,656.37Z" fill="#cecece" opacity="0.4" style="isolation:isolate"/><path d="M332.44,657c-1.92,2.83-13.67,5.43-27.9,6s-26.16-1-28.39-3.55c1.91-2.84,13.66-5.43,27.93-6S330.27,654.34,332.44,657Z" fill="#cecece" opacity="0.4" style="isolation:isolate"/><circle cx="262.3" cy="621.66" r="48.62" fill="#cecece"/><path d="M303,658.07a48.63,48.63,0,1,1-3.95-68.65h0A48.63,48.63,0,0,1,303,658.07Z" fill="#cecece"/><path d="M303,658.07a48.63,48.63,0,1,1-3.95-68.65h0A48.63,48.63,0,0,1,303,658.07Z" fill="#fff" opacity="0.4" style="isolation:isolate"/><path d="M293.72,649.94a36.41,36.41,0,1,1-3-51.41l0,0a36.36,36.36,0,0,1,3,51.36Z" fill="#cecece"/><g opacity="0.3"><path d="M273.49,642.17c-4.33,7.1-12,7.28-20,1.28l-4.54,4.86-4.55-4,4.58-4.86a33.34,33.34,0,0,1-7.91-13.28l7.09-3.8a27.9,27.9,0,0,0,6.25,11.33l7.1-7.46c-3.3-5.18-6.71-11.25-2.8-17.57,4.29-6.92,12.13-7.09,20.19-1l4.58-4.87,4.51,4.05-4.58,4.9a30.53,30.53,0,0,1,6.46,10.4l-6.78,4a23.61,23.61,0,0,0-5-8.73l-7.28,7.81C273.88,630.28,277.18,636.14,273.49,642.17Zm-6.25-22.25,6-6.36c-2.94-1.74-5.39-1.42-6.67.54a5.84,5.84,0,0,0,.71,5.78ZM265.32,637a5.41,5.41,0,0,0-.67-5.46l-5.68,6c2.8,1.56,5.11,1.35,6.35-.6Z" fill="#fff"/></g><path d="M341.69,604.18c-.18,4.54,14.19,8.87,32.22,9.62s32.73-2.31,32.9-6.85-14.19-8.87-32.19-9.65S341.9,599.6,341.69,604.18Z" fill="#cecece"/><rect x="370.32" y="568.86" width="8.27" height="65.2" transform="translate(-242.34 950.08) rotate(-87.57)" fill="#cecece"/><path d="M342,595.91c-.21,4.58,14.2,8.88,32.23,9.66s32.72-2.31,32.9-6.89-14.2-8.87-32.23-9.62S342.22,591.44,342,595.91Z" fill="#cecece"/><path d="M342,595.91c-.21,4.58,14.2,8.88,32.23,9.66s32.72-2.31,32.9-6.89-14.2-8.87-32.23-9.62S342.22,591.44,342,595.91Z" fill="#fff" opacity="0.4" style="isolation:isolate"/><path d="M346.19,595.77a1.43,1.43,0,0,0,.29.82c2.16-2.67,14.2-4.26,28.39-3.55s26,3.19,27.9,6.07a1.41,1.41,0,0,0,.35-.82c0-3.09-12.49-6.18-28.18-6.81S346.34,592.68,346.19,595.77Z" fill="#cecece"/><path d="M346.19,595.77a1.43,1.43,0,0,0,.29.82c2.16-2.67,14.2-4.26,28.39-3.55s26,3.19,27.9,6.07a1.41,1.41,0,0,0,.35-.82c0-3.09-12.49-6.18-28.18-6.81S346.34,592.68,346.19,595.77Z" fill="#cecece" opacity="0.4" style="isolation:isolate"/><path d="M346.48,596.59c1.95,2.87,13.66,5.43,27.9,6s26.19-1,28.39-3.55c-1.92-2.87-13.63-5.43-27.9-6.07S348.64,593.92,346.48,596.59Z" fill="#cecece" opacity="0.4" style="isolation:isolate"/><path d="M334.84,591.69c0,4.54,14.19,8.87,32.22,9.62S399.79,599,400,594.46s-14.2-8.88-32.2-9.66S335.05,587.15,334.84,591.69Z" fill="#cecece"/><rect x="363.41" y="556.26" width="8.27" height="65.2" transform="translate(-236.37 931.1) rotate(-87.57)" fill="#cecece"/><path d="M335.37,583.42c0,4.58,14.2,8.87,32.23,9.65s32.72-2.3,32.9-6.88-14.2-8.88-32.19-9.62S335.37,578.88,335.37,583.42Z" fill="#cecece"/><path d="M335.37,583.42c0,4.58,14.2,8.87,32.23,9.65s32.72-2.3,32.9-6.88-14.2-8.88-32.19-9.62S335.37,578.88,335.37,583.42Z" fill="#fff" opacity="0.4" style="isolation:isolate"/><path d="M339.34,583.28a1.4,1.4,0,0,0,.29.81c2.16-2.66,14.2-4.22,28.39-3.55s26,3.16,27.9,6a1.41,1.41,0,0,0,.35-.82c0-3-12.49-6.17-28.18-6.81S339.49,580.19,339.34,583.28Z" fill="#cecece"/><path d="M339.34,583.28a1.4,1.4,0,0,0,.29.81c2.16-2.66,14.2-4.22,28.39-3.55s26,3.16,27.9,6a1.41,1.41,0,0,0,.35-.82c0-3-12.49-6.17-28.18-6.81S339.49,580.19,339.34,583.28Z" fill="#cecece" opacity="0.4" style="isolation:isolate"/><path d="M339.63,584.09c1.95,2.88,13.66,5.43,27.9,6s26.19-1,28.39-3.55c-1.92-2.88-13.63-5.43-27.9-6S341.79,581.43,339.63,584.09Z" fill="#cecece" opacity="0.4" style="isolation:isolate"/><path d="M335.72,576.64c0,4.54,14.2,8.87,32.23,9.62s32.72-2.31,32.9-6.85-14.19-8.87-32.19-9.66S335.94,572.1,335.72,576.64Z" fill="#cecece"/><rect x="364.27" y="541.21" width="8.27" height="65.2" transform="translate(-220.51 917.56) rotate(-87.57)" fill="#cecece"/><path d="M336.08,568.37c0,4.58,14.2,8.87,32.23,9.65s32.72-2.3,32.9-6.88S387,562.27,369,561.52,336.29,563.83,336.08,568.37Z" fill="#cecece"/><path d="M336.08,568.37c0,4.58,14.2,8.87,32.23,9.65s32.72-2.3,32.9-6.88S387,562.27,369,561.52,336.29,563.83,336.08,568.37Z" fill="#fff" opacity="0.4" style="isolation:isolate"/><path d="M340.23,568.23a1.28,1.28,0,0,0,.29.81c2.16-2.66,14.19-4.22,28.39-3.54s26,3.15,27.9,6a1.45,1.45,0,0,0,.35-.82c0-3.05-12.49-6.17-28.18-6.81S340.37,565.18,340.23,568.23Z" fill="#cecece"/><path d="M340.23,568.23a1.28,1.28,0,0,0,.29.81c2.16-2.66,14.19-4.22,28.39-3.54s26,3.15,27.9,6a1.45,1.45,0,0,0,.35-.82c0-3.05-12.49-6.17-28.18-6.81S340.37,565.18,340.23,568.23Z" fill="#cecece" opacity="0.4" style="isolation:isolate"/><path d="M340.52,569c2,2.88,13.66,5.44,27.89,6s26.2-1,28.4-3.55c-1.92-2.88-13.63-5.43-27.9-6S342.68,566.38,340.52,569Z" fill="#cecece" opacity="0.4" style="isolation:isolate"/><path d="M328.87,564.15c0,4.54,14.2,8.87,32.23,9.62s32.72-2.31,32.94-6.85-14.2-8.88-32.23-9.66S329.09,559.5,328.87,564.15Z" fill="#cecece"/><rect x="357.47" y="528.75" width="8.27" height="65.2" transform="translate(-214.58 898.83) rotate(-87.57)" fill="#cecece"/><path d="M329.23,556c-.18,4.58,14.2,8.87,32.23,9.65s32.72-2.3,32.9-6.88-14.2-8.84-32.19-9.62S329.44,551.33,329.23,556Z" fill="#cecece"/><path d="M329.23,556c-.18,4.58,14.2,8.87,32.23,9.65s32.72-2.3,32.9-6.88-14.2-8.84-32.19-9.62S329.44,551.33,329.23,556Z" fill="#fff" opacity="0.4" style="isolation:isolate"/><path d="M333.38,555.74a1.28,1.28,0,0,0,.29.81c2.2-2.66,14.19-4.22,28.39-3.55s26,3.16,27.9,6a1.22,1.22,0,0,0,.35-.78c0-3.09-12.49-6.22-28.18-6.85S333.52,552.68,333.38,555.74Z" fill="#cecece"/><path d="M333.38,555.74a1.28,1.28,0,0,0,.29.81c2.2-2.66,14.19-4.22,28.39-3.55s26,3.16,27.9,6a1.22,1.22,0,0,0,.35-.78c0-3.09-12.49-6.22-28.18-6.85S333.52,552.68,333.38,555.74Z" fill="#cecece" opacity="0.4" style="isolation:isolate"/><path d="M333.67,556.55c1.95,2.88,13.66,5.43,27.89,6s26.2-1,28.4-3.55c-1.88-2.88-13.63-5.43-27.9-6S335.87,553.89,333.67,556.55Z" fill="#cecece" opacity="0.4" style="isolation:isolate"/><path d="M339.34,553.57c-.21,4.54,14.2,8.87,32.23,9.62s32.72-2.31,32.9-6.85-14.19-8.87-32.22-9.66S339.52,548.85,339.34,553.57Z" fill="#cecece"/><rect x="367.89" y="518.13" width="8.27" height="65.2" transform="translate(-193.98 899.07) rotate(-87.57)" fill="#cecece"/><path d="M339.7,545.3c-.21,4.58,14.2,8.87,32.19,9.65s32.72-2.3,32.94-6.88-14.2-8.87-32.23-9.62S339.88,540.76,339.7,545.3Z" fill="#cecece"/><path d="M339.7,545.3c-.21,4.58,14.2,8.87,32.19,9.65s32.72-2.3,32.94-6.88-14.2-8.87-32.23-9.62S339.88,540.76,339.7,545.3Z" fill="#fff" opacity="0.4" style="isolation:isolate"/><path d="M343.85,545.3a1,1,0,0,0,.29.82c2.16-2.66,14.19-4.26,28.39-3.55s26,3.19,27.93,6a1.19,1.19,0,0,0,.32-.78c0-3.09-12.46-6.17-28.18-6.85S344,542.07,343.85,545.3Z" fill="#cecece"/><path d="M343.85,545.3a1,1,0,0,0,.29.82c2.16-2.66,14.19-4.26,28.39-3.55s26,3.19,27.93,6a1.19,1.19,0,0,0,.32-.78c0-3.09-12.46-6.17-28.18-6.85S344,542.07,343.85,545.3Z" fill="#cecece" opacity="0.4" style="isolation:isolate"/><path d="M344.14,546c1.91,2.83,13.66,5.43,27.89,6s26.16-1,28.4-3.55c-1.92-2.84-13.67-5.43-27.94-6S346.3,543.31,344.14,546Z" fill="#cecece" opacity="0.4" style="isolation:isolate"/><path d="M293.42,603.44c1.1,4.43,16.18,4.47,33.64,0s30.7-11.5,29.6-15.94-16.14-4.47-33.61,0S292.32,599,293.42,603.44Z" fill="#cecece"/><rect x="291.45" y="587.38" width="65.2" height="8.27" transform="translate(-133.99 96.45) rotate(-14.06)" fill="#cecece"/><path d="M291.43,595.45c1.1,4.4,16.15,4.47,33.61,0s30.74-11.5,29.6-15.9-16.15-4.47-33.61,0S290.29,591,291.43,595.45Z" fill="#cecece"/><path d="M291.43,595.45c1.1,4.4,16.15,4.47,33.61,0s30.74-11.5,29.6-15.9-16.15-4.47-33.61,0S290.29,591,291.43,595.45Z" fill="#fff" opacity="0.4" style="isolation:isolate"/><path d="M295.37,594.14a1.13,1.13,0,0,0,.5.67c1.31-3.16,12.28-8,26.12-11.53s25.8-4.33,28.39-2.13a1.14,1.14,0,0,0,0-.85c-.74-3-13.73-2.38-29,1.45S294.62,591.12,295.37,594.14Z" fill="#cecece"/><path d="M295.37,594.14a1.13,1.13,0,0,0,.5.67c1.31-3.16,12.28-8,26.12-11.53s25.8-4.33,28.39-2.13a1.14,1.14,0,0,0,0-.85c-.74-3-13.73-2.38-29,1.45S294.62,591.12,295.37,594.14Z" fill="#cecece" opacity="0.4" style="isolation:isolate"/><path d="M295.87,595c2.66,2.2,14.66,1.35,28.39-2.13s24.84-8.34,26.12-11.53c-2.66-2.21-14.62-1.32-28.39,2.12S297.18,591.65,295.87,595Z" fill="#cecece" opacity="0.4" style="isolation:isolate"/><path d="M293.87,630.55c0,4.54,14.2,8.87,32.23,9.62s32.72-2.31,32.9-6.85-14.2-8.88-32.19-9.66S294.09,626,293.87,630.55Z" fill="#cecece"/><rect x="322.45" y="595.12" width="8.27" height="65.2" transform="translate(-314.42 927.39) rotate(-87.57)" fill="#cecece"/><path d="M294.23,622.28c-.18,4.58,14.19,8.87,32.22,9.65s32.73-2.31,32.91-6.88-14.2-8.88-32.2-9.62S294.44,617.81,294.23,622.28Z" fill="#cecece"/><path d="M294.23,622.28c-.18,4.58,14.19,8.87,32.22,9.65s32.73-2.31,32.91-6.88-14.2-8.88-32.2-9.62S294.44,617.81,294.23,622.28Z" fill="#fff" opacity="0.4" style="isolation:isolate"/><path d="M298.38,622.14a1.33,1.33,0,0,0,.28.81c2.17-2.66,14.2-4.26,28.4-3.55s26,3.2,27.89,6.07a1.39,1.39,0,0,0,.36-.81c0-3.09-12.49-6.18-28.18-6.82S298.59,619.05,298.38,622.14Z" fill="#cecece"/><path d="M298.38,622.14a1.33,1.33,0,0,0,.28.81c2.17-2.66,14.2-4.26,28.4-3.55s26,3.2,27.89,6.07a1.39,1.39,0,0,0,.36-.81c0-3.09-12.49-6.18-28.18-6.82S298.59,619.05,298.38,622.14Z" fill="#cecece" opacity="0.4" style="isolation:isolate"/><path d="M298.59,623c2,2.88,13.67,5.43,27.9,6s26.19-1,28.39-3.55C353,622.56,341.25,620,327,619.37S300.83,620.29,298.59,623Z" fill="#cecece" opacity="0.4" style="isolation:isolate"/><path d="M353.76,636.3c.18,4.54-14.19,8.87-32.22,9.62s-32.73-2.31-32.9-6.85,14.19-8.88,32.19-9.66S353.55,631.72,353.76,636.3Z" fill="#cecece"/><rect x="288.39" y="629.44" width="65.2" height="8.27" transform="translate(-26.57 14.18) rotate(-2.43)" fill="#cecece"/><path d="M353.41,628c.21,4.58-14.2,8.87-32.23,9.65s-32.72-2.31-32.9-6.88,14.2-8.88,32.23-9.62S353.23,623.56,353.41,628Z" fill="#cecece"/><path d="M353.41,628c.21,4.58-14.2,8.87-32.23,9.65s-32.72-2.31-32.9-6.88,14.2-8.88,32.23-9.62S353.23,623.56,353.41,628Z" fill="#fff" opacity="0.4" style="isolation:isolate"/><path d="M349.26,627.89a1.4,1.4,0,0,1-.29.81c-2.16-2.66-14.19-4.26-28.39-3.55s-26,3.2-27.9,6.07a1.38,1.38,0,0,1-.35-.81c0-3.09,12.49-6.18,28.18-6.82S349.11,624.8,349.26,627.89Z" fill="#cecece"/><path d="M349.26,627.89a1.4,1.4,0,0,1-.29.81c-2.16-2.66-14.19-4.26-28.39-3.55s-26,3.2-27.9,6.07a1.38,1.38,0,0,1-.35-.81c0-3.09,12.49-6.18,28.18-6.82S349.11,624.8,349.26,627.89Z" fill="#cecece" opacity="0.4" style="isolation:isolate"/><path d="M349,628.7c-2,2.88-13.66,5.43-27.89,6s-26.2-1-28.4-3.55c1.92-2.88,13.63-5.43,27.9-6.07S346.81,626,349,628.7Z" fill="#cecece" opacity="0.4" style="isolation:isolate"/><path d="M360.61,623.8c0,4.55-14.19,8.88-32.22,9.62s-32.73-2.3-32.9-6.85,14.19-8.87,32.19-9.65S360.4,619.26,360.61,623.8Z" fill="#cecece"/><rect x="295.31" y="616.84" width="65.2" height="8.27" transform="translate(-26.03 14.46) rotate(-2.43)" fill="#cecece"/><path d="M360.08,615.53c0,4.58-14.2,8.88-32.23,9.66s-32.72-2.31-32.9-6.89,14.2-8.87,32.19-9.62S360.08,611,360.08,615.53Z" fill="#cecece"/><path d="M360.08,615.53c0,4.58-14.2,8.88-32.23,9.66s-32.72-2.31-32.9-6.89,14.2-8.87,32.19-9.62S360.08,611,360.08,615.53Z" fill="#fff" opacity="0.4" style="isolation:isolate"/><path d="M356.11,615.39a1.43,1.43,0,0,1-.29.82c-2.16-2.66-14.19-4.23-28.39-3.55s-26,3.16-27.9,6a1.35,1.35,0,0,1-.35-.81c0-3.06,12.49-6.18,28.18-6.82S356,612.3,356.11,615.39Z" fill="#cecece"/><path d="M356.11,615.39a1.43,1.43,0,0,1-.29.82c-2.16-2.66-14.19-4.23-28.39-3.55s-26,3.16-27.9,6a1.35,1.35,0,0,1-.35-.81c0-3.06,12.49-6.18,28.18-6.82S356,612.3,356.11,615.39Z" fill="#cecece" opacity="0.4" style="isolation:isolate"/><path d="M355.82,616.21c-1.95,2.87-13.66,5.43-27.89,6s-26.2-1-28.4-3.55c1.92-2.87,13.63-5.43,27.9-6S353.66,613.55,355.82,616.21Z" fill="#cecece" opacity="0.4" style="isolation:isolate"/><path d="M359.73,608.76c0,4.54-14.2,8.87-32.23,9.61s-32.72-2.3-32.9-6.85,14.2-8.87,32.19-9.65S359.51,604.21,359.73,608.76Z" fill="#cecece"/><rect x="294.44" y="601.79" width="65.2" height="8.27" transform="translate(-25.4 14.41) rotate(-2.43)" fill="#cecece"/><path d="M359.37,600.49c0,4.57-14.2,8.87-32.23,9.65s-32.72-2.31-32.9-6.89,14.2-8.87,32.19-9.61S359.16,595.94,359.37,600.49Z" fill="#cecece"/><path d="M359.37,600.49c0,4.57-14.2,8.87-32.23,9.65s-32.72-2.31-32.9-6.89,14.2-8.87,32.19-9.61S359.16,595.94,359.37,600.49Z" fill="#fff" opacity="0.4" style="isolation:isolate"/><path d="M355.22,600.34a1.28,1.28,0,0,1-.29.82c-2.16-2.66-14.19-4.22-28.39-3.55s-26,3.16-27.9,6a1.42,1.42,0,0,1-.35-.81c0-3.05,12.49-6.18,28.18-6.82S355.08,597.29,355.22,600.34Z" fill="#cecece"/><path d="M355.22,600.34a1.28,1.28,0,0,1-.29.82c-2.16-2.66-14.19-4.22-28.39-3.55s-26,3.16-27.9,6a1.42,1.42,0,0,1-.35-.81c0-3.05,12.49-6.18,28.18-6.82S355.08,597.29,355.22,600.34Z" fill="#cecece" opacity="0.4" style="isolation:isolate"/><path d="M354.93,601.16c-1.95,2.87-13.66,5.43-27.89,6s-26.2-1-28.4-3.55c1.92-2.87,13.63-5.43,27.9-6S352.77,598.5,354.93,601.16Z" fill="#cecece" opacity="0.4" style="isolation:isolate"/><path d="M366.58,596.26c0,4.54-14.2,8.87-32.23,9.62s-32.72-2.31-32.94-6.85,14.2-8.87,32.23-9.65S366.36,591.61,366.58,596.26Z" fill="#cecece"/><rect x="301.25" y="589.33" width="65.2" height="8.27" transform="translate(-24.86 14.69) rotate(-2.43)" fill="#cecece"/><path d="M366.22,588.06c.18,4.58-14.2,8.88-32.23,9.66s-32.72-2.31-32.9-6.89,14.2-8.84,32.19-9.62S366,583.45,366.22,588.06Z" fill="#cecece"/><path d="M366.22,588.06c.18,4.58-14.2,8.88-32.23,9.66s-32.72-2.31-32.9-6.89,14.2-8.84,32.19-9.62S366,583.45,366.22,588.06Z" fill="#fff" opacity="0.4" style="isolation:isolate"/><path d="M362.07,587.85a1.3,1.3,0,0,1-.29.82c-2.2-2.67-14.19-4.23-28.39-3.55s-26,3.16-27.9,6a1.2,1.2,0,0,1-.35-.78c0-3.09,12.49-6.21,28.18-6.85S361.93,584.8,362.07,587.85Z" fill="#cecece"/><path d="M362.07,587.85a1.3,1.3,0,0,1-.29.82c-2.2-2.67-14.19-4.23-28.39-3.55s-26,3.16-27.9,6a1.2,1.2,0,0,1-.35-.78c0-3.09,12.49-6.21,28.18-6.85S361.93,584.8,362.07,587.85Z" fill="#cecece" opacity="0.4" style="isolation:isolate"/><path d="M361.78,588.67c-1.95,2.87-13.66,5.43-27.89,6s-26.2-1-28.4-3.55c1.89-2.87,13.63-5.43,27.9-6S359.58,586,361.78,588.67Z" fill="#cecece" opacity="0.4" style="isolation:isolate"/><path d="M356.11,585.69c.21,4.54-14.2,8.87-32.23,9.61s-32.72-2.3-32.9-6.85,14.2-8.87,32.22-9.65S355.93,581,356.11,585.69Z" fill="#cecece"/><rect x="290.83" y="578.71" width="65.2" height="8.27" transform="translate(-24.42 14.24) rotate(-2.43)" fill="#cecece"/><path d="M355.75,577.42c.21,4.57-14.2,8.87-32.19,9.65s-32.72-2.31-32.94-6.89,14.2-8.87,32.23-9.61S355.57,572.87,355.75,577.42Z" fill="#cecece"/><path d="M355.75,577.42c.21,4.57-14.2,8.87-32.19,9.65s-32.72-2.31-32.94-6.89,14.2-8.87,32.23-9.61S355.57,572.87,355.75,577.42Z" fill="#fff" opacity="0.4" style="isolation:isolate"/><path d="M351.6,577.42a1,1,0,0,1-.29.81c-2.16-2.66-14.19-4.26-28.39-3.55s-26,3.2-27.93,6a1.21,1.21,0,0,1-.32-.78c0-3.09,12.46-6.18,28.18-6.85S351.49,574.19,351.6,577.42Z" fill="#cecece"/><path d="M351.6,577.42a1,1,0,0,1-.29.81c-2.16-2.66-14.19-4.26-28.39-3.55s-26,3.2-27.93,6a1.21,1.21,0,0,1-.32-.78c0-3.09,12.46-6.18,28.18-6.85S351.49,574.19,351.6,577.42Z" fill="#cecece" opacity="0.4" style="isolation:isolate"/><path d="M351.31,578.09c-1.91,2.84-13.66,5.43-27.89,6s-26.16-1-28.4-3.55c1.92-2.83,13.67-5.43,27.94-6S349.15,575.43,351.31,578.09Z" fill="#cecece" opacity="0.4" style="isolation:isolate"/><path d="M371.37,609.19c-1.1,4.43-16.18,4.47-33.64,0s-30.7-11.5-29.6-15.94,16.15-4.47,33.61,0S372.47,604.79,371.37,609.19Z" fill="#cecece"/><rect x="336.6" y="564.66" width="8.27" height="65.2" transform="translate(-321.41 782.69) rotate(-75.94)" fill="#cecece"/><path d="M373.36,601.2c-1.1,4.4-16.15,4.47-33.61,0s-30.73-11.5-29.6-15.9,16.15-4.47,33.61,0S374.5,596.76,373.36,601.2Z" fill="#cecece"/><path d="M373.36,601.2c-1.1,4.4-16.15,4.47-33.61,0s-30.73-11.5-29.6-15.9,16.15-4.47,33.61,0S374.5,596.76,373.36,601.2Z" fill="#fff" opacity="0.4" style="isolation:isolate"/><path d="M369.42,599.89a1.11,1.11,0,0,1-.49.67c-1.32-3.16-12.28-8-26.13-11.53s-25.8-4.33-28.39-2.13a1.14,1.14,0,0,1,0-.85c.75-3,13.74-2.38,29,1.45S370.17,596.87,369.42,599.89Z" fill="#cecece"/><path d="M369.42,599.89a1.11,1.11,0,0,1-.49.67c-1.32-3.16-12.28-8-26.13-11.53s-25.8-4.33-28.39-2.13a1.14,1.14,0,0,1,0-.85c.75-3,13.74-2.38,29,1.45S370.17,596.87,369.42,599.89Z" fill="#cecece" opacity="0.4" style="isolation:isolate"/><path d="M368.93,600.74c-2.67,2.2-14.66,1.35-28.4-2.13s-24.84-8.34-26.12-11.54c2.66-2.2,14.62-1.31,28.39,2.13S367.61,597.4,368.93,600.74Z" fill="#cecece" opacity="0.4" style="isolation:isolate"/><path d="M402,609.93c0,4.54-14.2,8.87-32.23,9.62s-32.72-2.31-32.9-6.85,14.2-8.87,32.19-9.65S401.81,605.35,402,609.93Z" fill="#cecece"/><rect x="336.27" y="602.97" width="65.2" height="8.27" transform="matrix(1, -0.04, 0.04, 1, -25.41, 16.19)" fill="#cecece"/><path d="M401.22,601.66c.18,4.58-14.19,8.88-32.22,9.66s-32.73-2.31-32.9-6.89,14.19-8.87,32.19-9.62S401,597.19,401.22,601.66Z" fill="#cecece"/><path d="M401.22,601.66c.18,4.58-14.19,8.88-32.22,9.66s-32.73-2.31-32.9-6.89,14.19-8.87,32.19-9.62S401,597.19,401.22,601.66Z" fill="#fff" opacity="0.4" style="isolation:isolate"/><path d="M397.07,601.52a1.35,1.35,0,0,1-.28.82c-2.17-2.67-14.2-4.26-28.4-3.55s-26,3.19-27.89,6.07a1.42,1.42,0,0,1-.36-.82c0-3.09,12.49-6.18,28.18-6.81S396.86,598.43,397.07,601.52Z" fill="#cecece"/><path d="M397.07,601.52a1.35,1.35,0,0,1-.28.82c-2.17-2.67-14.2-4.26-28.4-3.55s-26,3.19-27.89,6.07a1.42,1.42,0,0,1-.36-.82c0-3.09,12.49-6.18,28.18-6.81S396.86,598.43,397.07,601.52Z" fill="#cecece" opacity="0.4" style="isolation:isolate"/><path d="M396.86,602.34c-1.95,2.87-13.67,5.43-27.9,6s-26.19-1-28.39-3.55c1.91-2.87,13.63-5.43,27.89-6.07S394.62,599.67,396.86,602.34Z" fill="#cecece" opacity="0.4" style="isolation:isolate"/><path d="M364.62,589.42c-1.95,4.15,9.69,13.7,26,21.29s31.09,10.65,33,6.39-9.69-13.66-26-21.29S366.54,585.3,364.62,589.42Z" fill="#cecece"/><rect x="391.76" y="567.07" width="8.27" height="65.2" transform="translate(-315.22 702.93) rotate(-64.83)" fill="#cecece"/><path d="M368.14,582c-2,4.12,9.69,13.67,26,21.3s31.09,10.65,33,6.39-9.68-13.7-26-21.3S370.05,577.81,368.14,582Z" fill="#cecece"/><path d="M368.14,582c-2,4.12,9.69,13.67,26,21.3s31.09,10.65,33,6.39-9.68-13.7-26-21.3S370.05,577.81,368.14,582Z" fill="#fff" opacity="0.4" style="isolation:isolate"/><path d="M372,583.42a1.14,1.14,0,0,0,0,.85c3-1.6,14.62,1.53,27.5,7.6s22.75,13,23.43,16.36a1.27,1.27,0,0,0,.6-.61c1.31-2.8-9.12-10.64-23.35-17.21S373.32,580.65,372,583.42Z" fill="#cecece"/><path d="M372,583.42a1.14,1.14,0,0,0,0,.85c3-1.6,14.62,1.53,27.5,7.6s22.75,13,23.43,16.36a1.27,1.27,0,0,0,.6-.61c1.31-2.8-9.12-10.64-23.35-17.21S373.32,580.65,372,583.42Z" fill="#cecece" opacity="0.4" style="isolation:isolate"/><path d="M372,584.27c.67,3.55,10.65,10.29,23.39,16.36s24.52,9.23,27.54,7.6c-.67-3.37-10.65-10.29-23.42-16.36S375,582.67,372,584.27Z" fill="#cecece" opacity="0.4" style="isolation:isolate"/><path d="M263.73,514.71l3.5-28.54a4.09,4.09,0,0,1,.73-1.86l0,0a3.74,3.74,0,0,1,1.92-1.39,42.49,42.49,0,0,0,7.3-3.11l.08,0a21.25,21.25,0,0,0,8.9-9.29c13.69-27.77,43.61-47,78.32-47,47.64,0,86.27,36.3,86.27,81.07,0,24.36-11.43,46.21-29.53,61.07a19.08,19.08,0,0,0-6.91,12.37c0,.31-.07.63-.09.94a69.78,69.78,0,0,0,0,9.71,3.86,3.86,0,0,1-3.88,4.32H377.71a2.39,2.39,0,0,1-2.27-1.63c-.19-1-.4-2-.62-3s-.49-2.15-.75-3.22a91.64,91.64,0,0,1-9.57.5c-3.11,0-6.19-.16-9.21-.46-.26,1.06-.52,2.11-.75,3.18s-.43,2-.62,3a2.37,2.37,0,0,1-2.26,1.63H319a3.87,3.87,0,0,1-3.88-4.32,69.69,69.69,0,0,0,0-9.71q0-.45-.09-.9a18.21,18.21,0,0,0-6.72-12,81.72,81.72,0,0,1-23.38-30.13,20,20,0,0,0-9.09-9.61l-1.05-.53q-3.78-1.89-7.32-3.39A7,7,0,0,1,263.73,514.71Z" fill="#d1d3d4"/><path d="M337.19,516.6c55.26-11.69,66.4-44.2,66.4-44.2,11.23-34.6-21.62-45.74-22.22-45.84a75.34,75.34,0,0,0-47.54,2.14,59.31,59.31,0,0,1,16.67,14.74,19.46,19.46,0,0,1,6.36,17.13A25.67,25.67,0,0,1,347.17,478c-13.13,10.38-32.52,7.23-32.52,7.23-1.7-15.18-12.39-34.26-12.39-34.26-13.08,11.88-19,30.69-19,30.69-.24,1.44-.75,2-1.2,2.22a.55.55,0,0,1-.78-.45c-.34-4.14-3-2.85-3-2.85-.84.53-3.31,1.77-4.71,2.46a9.54,9.54,0,0,1-1.72.62,3,3,0,0,0-2.11,2.17l-2.39,21.07c0,4,10.48-7.69,10.48-7.69S301.21,524.24,337.19,516.6Z" fill="#fff" opacity="0.2"/><path d="M293.18,421.47s20.58-2.92,40.65,7.23c0,0,7.69,3.55,16.67,14.74A19.79,19.79,0,0,1,356,465s-3.1,15.5-24,19.65a56.24,56.24,0,0,1-17.37.56s-2.43-18.81-17.88-44.42c-.75-1.24-1.52-2.46-2.33-3.66C292.13,433.67,285.18,422.35,293.18,421.47Z" fill="#d1d3d4"/><path d="M450.75,502.93S428,575.07,338.32,566.49c0,0-38.35-2-56.33-48.44,0,0-1-3.1-2.8,1.29,0,0-3.07,4.7-11.27,3.2,0,0,7.32,3.07,9.39,4.56a21.48,21.48,0,0,1,7.63,8.78S290,550,306.27,564.3a19.14,19.14,0,0,1,8.86,14.57v9.71s0,4.32,3.88,4.32h32.66a2.22,2.22,0,0,0,2.26-1.63c.57-1.79,1.37-6.17,1.37-6.17s12,1,18.78,0l1.37,6.21a2.46,2.46,0,0,0,2.27,1.63h32.65a3.9,3.9,0,0,0,3.89-3.94s-.24-3.34-.18-5.81c0,0-.63-10.56,5.41-15.95l4.71-4.18s8.09-5.74,17.6-22.49C441.79,540.53,450.52,527.47,450.75,502.93Z" opacity="0.2"/><path d="M465.1,436.15c-16.25-4.92-19.89,2.46-19.89,2.46-9.07-.39-19.17,9.06-19.17,9.06,2.17,2,5,5.22,5,5.22.12-7.69,12.1-10.43,12.1-10.43-.26,17.06,7.61,16.64,12.07,15a9.13,9.13,0,0,0,5.26-4.62c3.93-8.43-10.44-13.77-10.44-13.77C453.58,436,465.1,436.15,465.1,436.15Zm-8,13.36a4.8,4.8,0,0,1-2.76,4.54,4.16,4.16,0,0,1-4.9-.42s-4.39-3.2-2.4-11.09C447.08,442.54,456.75,444.27,457.14,449.51Z" fill="#d1d3d4"/><path d="M402.39,438.36l.85-2.17s-26.44-5.74-45.35,0l1,2.17S377.36,433.63,402.39,438.36Z" opacity="0.2"/><path d="M293.1,425.26s2.34-2.34,10.06,2.1c.88.5,1.77,1,2.68,1.45,6.09,3.08,30.39,16.51,29.43,34.24a18.65,18.65,0,0,1-14.68,16.34,6.25,6.25,0,0,1-3.43-.09c-1.51-.51-3.27-1.77-3.79-4.89a108.56,108.56,0,0,0-9.44-23.26c-.4-.74-.84-1.46-1.28-2.18C300.08,444.79,290,427.9,293.1,425.26Z" fill="#fff" opacity="0.2"/></svg>