<svg id="f7c0b00f-57c7-4c0c-89c2-d3ce9ac6a7ac" data-name="Layer 1" xmlns="http://www.w3.org/2000/svg" width="865.76" height="682.89" viewBox="0 0 865.76 682.89"><path d="M427.59,7.93S346.36,111.52,233.35,111.52c0,0-48.27-8.24-47.09,13,0,0-41.21,385,241.33,472.08,0,0,162.79-28.14,221.5-238.49,0,0,33.63-105.79,21.7-235.12,0,0,.92-10.09-21.09-11.92C649.7,111,534.77,127.73,427.59,7.93Z" fill="#f48225" data-secondary="true"/><path d="M428.9,145.77A143.14,143.14,0,1,0,572,288.91,143.14,143.14,0,0,0,428.9,145.77Zm0,275.58A132.44,132.44,0,1,1,561.34,288.91,132.44,132.44,0,0,1,428.9,421.35Z" fill="#fff"/><path d="M506.74,266.9h-56V211a22,22,0,0,0-22-22h0a22,22,0,0,0-22,22V266.9h-56a22,22,0,0,0-22,22h0a22,22,0,0,0,22,22h56v56a22,22,0,0,0,22,22h0a22,22,0,0,0,22-22v-56h56a22,22,0,0,0,22-22h0A22,22,0,0,0,506.74,266.9Z" fill="#fff"/><path d="M439.6,383v20.12l-35.29,1.72S400.57,386.83,439.6,383Z" fill="#f9b499"/><rect x="232.17" y="516.26" width="13.6" height="141.52" fill="#d1d3d4"/><path d="M191,649.24h98.18a8,8,0,0,1,8,8v.51a0,0,0,0,1,0,0H183a0,0,0,0,1,0,0v-.51A8,8,0,0,1,191,649.24Z" fill="#bcbec0"/><circle cx="287.19" cy="662.35" r="8.84" fill="#d1d3d4"/><circle cx="192.19" cy="662.35" r="8.84" fill="#d1d3d4"/><rect x="179.48" y="509.39" width="106.44" height="13.74" fill="#bcbec0"/><path d="M192.8,495.1h79.69a13.44,13.44,0,0,1,13.44,13.44v.85a0,0,0,0,1,0,0H179.36a0,0,0,0,1,0,0v-.85A13.44,13.44,0,0,1,192.8,495.1Z" fill="#d1d3d4"/><path d="M262.77,634.33v10a2.73,2.73,0,0,0,2.43,3h12.88a2.73,2.73,0,0,0,2.42-3v-6.2S270.28,639,262.77,634.33Z" fill="#f9b499"/><rect x="309.57" y="634.33" width="16.42" height="12.92" fill="#f9b499"/><path d="M182.6,465s1.17,16,4.17,24.9a9.92,9.92,0,0,0,6.55,6.29l71.17,21.57L251.15,630.1s21.54,16.92,38.46,5.64c0,0,17.95-105.64,14.87-136.41,0,0-16.27-24.76-72.53-44.14Z" fill="#2f2e41"/><circle cx="621.01" cy="665.68" r="8.84" fill="#bcbec0"/><circle cx="526.02" cy="665.68" r="8.84" fill="#bcbec0"/><rect x="566" y="519.59" width="13.6" height="141.52" fill="#d1d3d4"/><rect x="513.31" y="512.72" width="106.44" height="13.74" fill="#bcbec0"/><path d="M526.63,498.43h79.69a13.44,13.44,0,0,1,13.44,13.44v.85a0,0,0,0,1,0,0H513.19a0,0,0,0,1,0,0v-.85A13.44,13.44,0,0,1,526.63,498.43Z" fill="#d1d3d4"/><path d="M438.9,629.49,437.55,644s8.62,6.73,16.15,3.23l3.23-17.76Z" fill="#f9b499"/><path d="M501.09,631.9l-1.34,14.54s8.61,6.73,16.15,3.23l3.23-17.77Z" fill="#f9b499"/><polygon points="459.95 673.61 390.26 674.52 390.35 667.83 459.84 667.37 459.95 673.61" fill="#2f2e41"/><polygon points="522.66 674.01 452.98 674.93 453.07 668.23 522.56 667.77 522.66 674.01" fill="#2f2e41"/><polygon points="440.11 552.21 432.57 630.29 462.18 634.33 478.89 553.64 440.11 552.21" fill="#2f2e41"/><polygon points="491.52 636.18 496.65 554.3 534.86 555.98 528.67 636.65 491.52 636.18" fill="#2f2e41"/><path d="M210.25,293.3,215,265.88l27,15.39v8.53s4.35,8.62,0,11.58C242.05,301.38,227.47,310.26,210.25,293.3Z" fill="#f9b499"/><path d="M179.29,466.51l97.71-21-11.71-79.94,4,9.29,30.28-9.29s-17.77-54.5-28.26-59.35a97.4,97.4,0,0,0-27.55-11.15s3.31,7.95-11,8.63c0,0-10.56,1.31-22.54-10.4,0,0-25.71,7.47-44.48,17.16,0,0-4.85.81-5.86,12.52l-2.82,52.89,19.38-1.42S172.43,440.06,179.29,466.51Z" fill="#686175" data-primary="true"/><path d="M227.5,483.1a21.84,21.84,0,0,1-4.95-3.47L171,431.38c-4.75-4.58-11.57-55.51-11.57-55.51l35.23-3.16,3.26,47.37,36.6,50.33s16,2,26.56,13.47a1.76,1.76,0,0,1-.13,2.49h0a1.76,1.76,0,0,1-2.28,0l-7.24-6a.16.16,0,0,0-.22.24l6.71,6.71a1.62,1.62,0,0,1-.21,2.47h0a1.64,1.64,0,0,1-2.08-.18l-2-2,1.93,2.89a1,1,0,0,1-.17,1.34h0a1,1,0,0,1-1.51-.12l-4.26-5.35a.1.1,0,0,0-.16.11l3.51,6a1.72,1.72,0,0,1-.71,2.41h0a1.75,1.75,0,0,1-1.56,0Z" fill="#f9b499"/><path d="M351,282.14l13.8,93.42a2.94,2.94,0,0,0,2.91,2.51l119.52,0a2.94,2.94,0,0,0,2.92-3.34L477.6,281.32a2.94,2.94,0,0,0-2.92-2.55H353.89A2.94,2.94,0,0,0,351,282.14Z" fill="#2f2e41"/><path d="M221.82,211.48c4.12-.42,8.21-1,12.29-1.68q3-.53,6.08-1.18c1-.22,2-.45,3-.69a22.78,22.78,0,0,1,3.08-.53,20.75,20.75,0,0,1,6.24.32,16.73,16.73,0,0,1,5.8,2.33,8.51,8.51,0,0,1,3.74,5,11.05,11.05,0,0,1-.51,6.21l-.1-.24a10.64,10.64,0,0,1,3.63,2.64,3.88,3.88,0,0,1,.92,2.07,3.35,3.35,0,0,1-.67,2.16,6.77,6.77,0,0,1-1.59,1.57c-.3.23-.61.43-.92.63s-.64.37-1,.55a30.47,30.47,0,0,1-4.06,1.78,34.76,34.76,0,0,0,4-1.89c.32-.19.64-.36.94-.58a8,8,0,0,0,.89-.64,6.81,6.81,0,0,0,1.52-1.56,3,3,0,0,0,.58-2,3.51,3.51,0,0,0-.88-1.9,10.36,10.36,0,0,0-3.54-2.48l-.16-.07.06-.16a11,11,0,0,0,.45-6,8,8,0,0,0-3.58-4.69,17.46,17.46,0,0,0-5.64-2.27,20.53,20.53,0,0,0-6.11-.33,20.81,20.81,0,0,0-3,.5c-1,.23-2,.47-3,.67q-3,.62-6.12,1.09Q228,211,221.82,211.48Z" fill="#2f2e41"/><path d="M298,634.46s13.73,9.29,37.15,3.23l17.1-145.75a8.35,8.35,0,0,0-4.35-8.34L277,445.51,232,455.19l72.53,44.14Z" fill="#2f2e41"/><path d="M298,634.46s13.73,9.29,37.15,3.23l17.1-145.75a8.35,8.35,0,0,0-4.35-8.34L277,445.51,232,455.19l72.53,44.14Z" opacity="0.2"/><path d="M372.28,668.24l-68.63-1.34s-1.35-10.77,5.65-23.69c0,0,5.92,5.29,16.69-1.26,0,0,21.7,12.94,33.15,14.79a21,21,0,0,1,6.3,2C368.8,660.45,372.76,663.52,372.28,668.24Z" fill="#686175" data-primary="true"/><path d="M326.86,667.35l-69.55-.45S256,656.13,263,643.21c0,0,5.93,5.29,16.69-1.26,0,0,21.7,12.94,33.15,14.79a21.09,21.09,0,0,1,6.31,2C322.47,660.45,327.33,662.63,326.86,667.35Z" fill="#686175" data-primary="true"/><rect x="697.4" y="419.64" width="4.82" height="255.52" transform="matrix(1, -0.08, 0.08, 1, -40.1, 55.56)" fill="#ccc"/><rect x="608.07" y="531.7" width="90.44" height="4.93" fill="#ccc"/><rect x="210.54" y="419.57" width="4.82" height="255.52" transform="matrix(1, 0.07, -0.07, 1, 37.57, -13.17)" fill="#ccc"/><rect x="214.27" y="531.7" width="90.44" height="4.93" fill="#ccc"/><path d="M542.1,556l-111.33-4.12,17.67-85.35,74.22-37.76L523.84,410l-84.24-4.23V378.09L505,379.9l8.86-67.44a13.59,13.59,0,0,1,9.63-11.26l40.37-14.73a20.73,20.73,0,0,1,12.91.39l47.46,16.84a12.23,12.23,0,0,1,8,10.22l13,103-12.37,4.79s3.54,74.22-30,78.34l-56.22,8.06Z" fill="#e0e0e0"/><polygon points="542.69 318.01 535.23 296.92 545.13 293.3 557.06 385.06 531.49 323.9 542.69 318.01" fill="#ccc"/><polygon points="592 292.27 603.08 296.2 586.27 317.93 594.67 323.58 557.06 385.06 592 292.27" fill="#ccc"/><path d="M545.13,293.3l5.47-2s.1.31.33.83a19.58,19.58,0,0,0,29.68,7.93,28,28,0,0,0,7.83-9.07l3.56,1.27-34.94,92.79Z" fill="#fff"/><path d="M550.6,291.31l4.65-1.7V281s14.17,4.93,23.83-19c0,0,4.09,23.35,10.28,26.58,0,0-6.86,17.77-23.55,15.23A19.92,19.92,0,0,1,550.6,291.31Z" fill="#f9b499"/><polygon points="573.72 461.77 552.81 440.24 553.01 440.08 607.82 395.35 602.85 348.24 603.32 348.19 608.32 395.55 608.22 395.63 553.51 440.29 573.78 461.15 632.68 421.48 632.94 421.88 573.72 461.77" fill="#ccc"/><rect x="492.82" y="380.62" width="58.04" height="0.47" transform="translate(129.86 894.4) rotate(-88.77)" fill="#ccc"/><path d="M469.79,553.32l-.47-.05,7.55-67.69a8.81,8.81,0,0,1,5.29-7.12l65.54-28a9.2,9.2,0,0,0,5.59-7.92L556.82,387l.47,0-3.53,55.54a9.66,9.66,0,0,1-5.87,8.32l-65.55,28a8.35,8.35,0,0,0-5,6.74Z" fill="#ccc"/><path d="M524.86,652.57H623a8,8,0,0,1,8,8v.51a0,0,0,0,1,0,0H516.82a0,0,0,0,1,0,0v-.51A8,8,0,0,1,524.86,652.57Z" fill="#d1d3d4"/><rect x="257.31" y="666.9" width="69.58" height="6.7" fill="#2f2e41"/><polygon points="372.32 673.6 303.56 673.6 303.65 666.9 372.32 668.24 372.32 673.6" fill="#2f2e41"/><circle cx="482" cy="518.65" r="2.65" fill="#ccc"/><circle cx="479.83" cy="542.11" r="2.65" fill="#ccc"/><circle cx="484.18" cy="499.37" r="2.65" fill="#ccc"/><circle cx="494.17" cy="482.44" r="2.65" fill="#ccc"/><circle cx="513.31" cy="471.84" r="2.65" fill="#ccc"/><rect x="478.61" y="278.31" width="0.47" height="100.23" transform="translate(-39.88 67.51) rotate(-7.74)" fill="#3f3d56"/><path d="M428.8,403.12l10.55-32.75H398.23L382.59,410h71v-6.89Zm-18.16-7.47a6.33,6.33,0,1,1,6.32-6.32A6.33,6.33,0,0,1,410.64,395.65Z" fill="#2f2e41"/><rect x="604.34" y="419.57" width="4.82" height="255.52" transform="matrix(1, 0.07, -0.07, 1, 38.48, -39.85)" fill="#ccc"/><rect x="207.51" y="410.01" width="513.2" height="13.77" fill="#ccc"/><rect x="207.51" y="410.01" width="513.2" height="13.77" fill="#ccc"/><path d="M568.57,456.12s-1.68,8.77-13.8,10.79c0,0-15.66,3.08-23.47,7.83a7.69,7.69,0,0,1-8.41-.33h0a7.74,7.74,0,0,1-1.7-11,33.08,33.08,0,0,1,7.85-7.6,13.56,13.56,0,0,1,4.13-1.79c5.46-1.4,22.42-6,23.89-9.7Z" fill="#f9b499"/><path d="M390.3,667.82l69.54-.45s1.35-10.77-5.65-23.69c0,0-5.92,5.29-16.69-1.26,0,0-21.7,13-33.15,14.79a21,21,0,0,0-6.3,2C394.69,660.92,389.82,663.1,390.3,667.82Z" fill="#e0e0e0"/><path d="M453,668.24l69.55-.45s1.35-10.77-5.65-23.69c0,0-5.92,5.29-16.69-1.26,0,0-21.7,12.95-33.15,14.79a21.18,21.18,0,0,0-6.31,2C457.4,661.34,452.54,663.52,453,668.24Z" fill="#e0e0e0"/><path d="M269.33,374.86l11.05,32.79a3.46,3.46,0,0,0,4.28,2.21,373.29,373.29,0,0,0,64.41-26.51,6.81,6.81,0,0,1,5.88-.26c5.75,2.46,19.47,6.78,34,.18a1.22,1.22,0,0,0,.71-1.12h0a1.24,1.24,0,0,0-1.41-1.23l-6.66,1,8.22-4.28a1.36,1.36,0,0,0,.44-2.05h0a1.37,1.37,0,0,0-1.48-.45l-3.55,1.13,4.29-2.71a1.68,1.68,0,0,0,.29-2.61h0a1.71,1.71,0,0,0-1.71-.41c-3.79,1.22-17.7,5-22.05-3.15,0,0,13.73-1.41,13.93-4.64l-1.41-2.63s-23.64,0-30.71,7.94a5.69,5.69,0,0,1-3.14,1.78l-41.59,8.32a3.27,3.27,0,0,1-3.68-2l-3.66-9.4Z" fill="#f9b499"/><path d="M555.25,283.78v-4.33L579.08,262S579.13,283.31,555.25,283.78Z" fill="#f7a88f"/><ellipse cx="559.14" cy="245.96" rx="22.33" ry="35.59" fill="#f9b499"/><path d="M537.41,218.21s-7.45,1.06-5.83,4.74a3.58,3.58,0,0,0,.75,1.06,18.07,18.07,0,0,1,5.08,12.5s1.73-7.26,3.14-10.27c0,0,22.3,5.15,35.22-1.84,0,0-.72,27.65,7.38,28.69,0,0,15-12.14,2.44-29.77,0,0-.67-2,1.48-2,0,0,3-1.08,1.62-3.9,0,0-.4-2.29-6.33-1.89,0,0,1.73-7.26-.88-7.94,0,0-1.34-1.5-5.07,0a12.59,12.59,0,0,1-4,.9,34.24,34.24,0,0,1-11.19-1.07,31.4,31.4,0,0,0-3.91-1c-6.41-1.07-22.89-2.9-22.13,6.65a4.78,4.78,0,0,0,2.55,4.58" fill="#2f2e41"/><ellipse cx="580.07" cy="257.19" rx="5.92" ry="3.57" transform="translate(190.42 757.98) rotate(-76.03)" fill="#f9b499"/><path d="M214,271.52l1.2-7.29,26.81,17S234,294.66,214,271.52Z" fill="#f7a88f"/><ellipse cx="234.4" cy="248.46" rx="22.36" ry="34.9" fill="#f9b499"/><ellipse cx="212.4" cy="258.95" rx="4.31" ry="5.29" fill="#f9b499"/><path d="M214.28,255.62s6.73-15.88,5.66-28.8c0,0,19.18,6.59,33.54,3.43,0,0,2.08,6.47,2.42,8.6,0,0,.64-6.92,3.6-8,0,0,8.83-4.27-2.74-8.62,0,0,7.05-3.1,1.93-8.68,0,0-3.49-6.66-22.34-3.16,0,0-12.11,3-14.53,1.08,0,0-5.11-5.39-7.54.27a8.76,8.76,0,0,0,0,6.46s-4.21-2.7-5.84.31a3.73,3.73,0,0,0,2,5.16,6.57,6.57,0,0,0,1.58.45S195.17,240.28,214.28,255.62Z" fill="#2f2e41"/><polygon points="157.11 376.1 157.07 375.63 197.61 372.22 195.01 338.74 195.48 338.7 198.12 372.65 157.11 376.1" fill="#686175" data-primary="true"/><g opacity="0.2"><polygon points="157.11 376.1 157.07 375.63 197.61 372.22 195.01 338.74 195.48 338.7 198.12 372.65 157.11 376.1"/></g><rect x="303.6" y="419.64" width="4.82" height="255.52" transform="translate(-41.27 25.21) rotate(-4.42)" fill="#ccc"/></svg>