<svg id="af23aed1-411a-45f6-a4f7-138259b78814" data-name="Layer 1" xmlns="http://www.w3.org/2000/svg" width="865.76" height="682.89" viewBox="0 0 865.76 682.89"><path d="M686.24,174.11a59.43,59.43,0,0,1,30.35,4.64l12.56-8.52a1.15,1.15,0,0,1,1.4.08L746,182.67a1.14,1.14,0,0,1,.36,1.32l-5.54,14.12a59.27,59.27,0,0,1,4,6.25,59.65,59.65,0,0,1,5.88,15,58.19,58.19,0,0,1,1.29,7.3l13.64,6.62a1.14,1.14,0,0,1,.64,1.21l-3,19.61a1.16,1.16,0,0,1-1,1l-15,2.26a59.6,59.6,0,0,1-19.16,24l1.09,15.12a1.16,1.16,0,0,1-.77,1.18L710,304.86a1.16,1.16,0,0,1-1.33-.36l-9.45-11.85a59,59,0,0,1-15.44-.33,59.76,59.76,0,0,1-14.9-4.31l-12.57,8.52a1.16,1.16,0,0,1-1.4-.09l-15.45-12.36a1.15,1.15,0,0,1-.35-1.32l5.54-14.12a60.86,60.86,0,0,1-4-6.24,61.08,61.08,0,0,1-5.88-15A61.86,61.86,0,0,1,633.5,240l-13.64-6.62a1.15,1.15,0,0,1-.64-1.21l3-19.6a1.18,1.18,0,0,1,1-1l15-2.26a59.53,59.53,0,0,1,8-13.26,58.91,58.91,0,0,1,11.13-10.71l-1.09-15.13a1.15,1.15,0,0,1,.77-1.17l18.43-7.2a1.17,1.17,0,0,1,1.33.35l9.45,11.86Zm15.1,2.61a56.37,56.37,0,0,0-15.47-.24,1.19,1.19,0,0,1-1-.43l-9.32-11.69L658.63,171l1.07,14.92a1.16,1.16,0,0,1-.48,1A57,57,0,0,0,648,197.54a57.64,57.64,0,0,0-7.94,13.27,1.17,1.17,0,0,1-.92.76l-14.8,2.23-2.73,17.92,13.45,6.52a1.15,1.15,0,0,1,.65.93,56.78,56.78,0,0,0,1.31,7.64,58.1,58.1,0,0,0,5.65,14.46,56.53,56.53,0,0,0,4.18,6.45,1.17,1.17,0,0,1,.19,1.17l-5.47,13.93,14.16,11.32,12.35-8.37a1.17,1.17,0,0,1,1.16-.13,57.2,57.2,0,0,0,30.36,4.64,1.13,1.13,0,0,1,1,.43L710,302.4l16.89-6.6-1.08-14.91a1.16,1.16,0,0,1,.48-1A57.1,57.1,0,0,0,745.41,256a1.15,1.15,0,0,1,.92-.76l14.8-2.23L763.86,235l-13.45-6.53a1.14,1.14,0,0,1-.64-.92,57.48,57.48,0,0,0-7-22.11,56.46,56.46,0,0,0-4.17-6.45,1.15,1.15,0,0,1-.2-1.17l5.47-13.92-14.16-11.33L717.4,181a1.17,1.17,0,0,1-1.17.13,57.63,57.63,0,0,0-14.89-4.39ZM680.5,202a33.67,33.67,0,1,1-18.58,17.85A33.54,33.54,0,0,1,680.5,202Zm24.83,2.64a31.27,31.27,0,0,0-24-.49h0a31.35,31.35,0,0,0,22.81,58.4h0A31.35,31.35,0,0,0,722,222v0a31.23,31.23,0,0,0-16.62-17.31Z" fill="#fff"/><rect x="163.46" y="221.07" width="538.83" height="329.44" rx="11.02" fill="#ccc"/><polygon points="175.64 233.25 175.64 486.91 690.13 486.91 690.13 233.25 175.64 233.25" fill="#f9f9f9"/><path d="M269.47,420.49H596.29v51H269.47v-51Zm-31.05-119.1H627.34A7.62,7.62,0,0,1,635,309v16.79a7.62,7.62,0,0,1-7.61,7.6H238.42a7.62,7.62,0,0,1-7.6-7.6V309a7.62,7.62,0,0,1,7.6-7.6Zm31.05,58.69H596.29v51H269.47v-51Z" fill="#ccc"/><polygon points="529.12 340.79 509.29 375.59 522.63 384.22 541.33 359.27 529.12 340.79" fill="#f48225" data-secondary="true"/><polygon points="529.12 340.79 509.29 375.59 522.63 384.22 541.33 359.27 529.12 340.79" opacity="0.2"/><path d="M507.28,378.33a117.23,117.23,0,0,0-13.7,39.9l5.9.5,22-31.35-14.2-9.05Z" fill="#f9b499"/><polygon points="527.92 381.11 509.84 370.05 504.22 378.96 522.37 390 527.92 381.11" fill="#f48225" data-secondary="true"/><path d="M434.72,78.63a42,42,0,1,0,29.69,12.3,41.85,41.85,0,0,0-29.69-12.3Zm28.35,13.65a40.08,40.08,0,1,1-28.35-11.75A40,40,0,0,1,463.07,92.28ZM433.77,87v33.62a1,1,0,0,0,.28.67l18.07,18.08a1,1,0,0,0,1.35-1.35l-17.8-17.8V87a1,1,0,1,0-1.9,0Z" fill="#fff"/><path d="M384.24,162.39l17.36,30.06a6.46,6.46,0,0,1,0,6.58,6.47,6.47,0,0,1-5.7,3.3H361.19a6.44,6.44,0,0,1-5.69-3.3,6.4,6.4,0,0,1,0-6.58l17.35-30.06a6.55,6.55,0,0,1,11.39,0Zm15.47,31.15-17.36-30a4.3,4.3,0,0,0-1.59-1.63,4.43,4.43,0,0,0-2.21-.57,4.38,4.38,0,0,0-2.21.57,4.25,4.25,0,0,0-1.6,1.63l-17.35,30a4.47,4.47,0,0,0,1.59,6,4.43,4.43,0,0,0,2.21.56H395.9a4.34,4.34,0,0,0,2.2-.56,4.39,4.39,0,0,0,1.61-6Zm-20.07,2.62a1.1,1.1,0,0,1-2.19,0v-2.73a1.1,1.1,0,1,1,2.19,0Zm0-8.64a1.1,1.1,0,1,1-2.19,0v-19a1.1,1.1,0,1,1,2.19,0Z" fill="#fff"/><ellipse cx="432.88" cy="595.15" rx="408.01" ry="9.12" fill="#ccc"/><ellipse cx="432.88" cy="590.25" rx="113.28" ry="5.2" opacity="0.2"/><rect x="382.06" y="517.38" width="101.64" height="72.87" fill="#ccc"/><polygon points="483.7 556.99 382.06 575.97 382.06 550.52 483.7 550.52 483.7 556.99" opacity="0.2"/><path d="M587.54,301.39h39.8A7.62,7.62,0,0,1,635,309v16.79a7.62,7.62,0,0,1-7.61,7.6h-39.8Z" opacity="0.2"/><path d="M128,167.42a1,1,0,1,1,0-2h44.88a1,1,0,1,1,0,2Zm54.77,0a1,1,0,0,1,0-2h34.09a1,1,0,1,1,0,2Zm42,0a1,1,0,1,1,0-2h34.87a1,1,0,0,1,0,2Zm47.49,0a1,1,0,1,1,0-2h18.08a1,1,0,1,1,0,2ZM128,156.82a1,1,0,1,1,0-2h12a1,1,0,0,1,0,2Zm26.41,0a1,1,0,0,1,0-2h31.36a1,1,0,0,1,0,2Zm50.22,0a1,1,0,0,1,0-2h24.72a1,1,0,1,1,0,2Zm41,0a1,1,0,1,1,0-2h32.91a1,1,0,1,1,0,2Zm38.12,0a1,1,0,1,1,0-2h6.63a1,1,0,1,1,0,2ZM128,178a1,1,0,1,1,0-2h6a1,1,0,1,1,0,2Zm15,0a1,1,0,0,1,0-2h15a1,1,0,1,1,0,2Zm27.58,0a1,1,0,0,1,0-2h27.59a1,1,0,0,1,0,2Zm38.39,0a1,1,0,1,1,0-2h27.84a1,1,0,0,1,0,2Zm43.32,0a1,1,0,0,1,0-2h38.12a1,1,0,1,1,0,2Z" fill="#fff"/><path d="M543.06,169.23a11.61,11.61,0,1,1-8.19,3.4A11.55,11.55,0,0,1,543.06,169.23Zm7,4.62a9.84,9.84,0,1,0,2.89,7A9.81,9.81,0,0,0,550,173.85Zm15.23,0a7,7,0,1,1-4.94,2A7,7,0,0,1,565.25,173.83ZM569,177.1a5.25,5.25,0,1,0,1.54,3.72A5.25,5.25,0,0,0,569,177.1Zm12.73-3.27a7,7,0,1,1-4.94,2A7,7,0,0,1,581.7,173.83Zm3.72,3.27a5.25,5.25,0,1,0,1.54,3.72A5.25,5.25,0,0,0,585.42,177.1Z" fill="#fff"/><path d="M61.63,550.81a.87.87,0,1,1,0-1.73H103a.87.87,0,0,1,0,1.73Zm696.5-232.69a.87.87,0,1,1,0-1.74h27.55a.87.87,0,1,1,0,1.74Zm-12.25,27.56a.87.87,0,0,1,0-1.74h52a.87.87,0,1,1,0,1.74ZM98.36,503.36a.87.87,0,0,1,0-1.74h45.16a.87.87,0,0,1,0,1.74Z" fill="#fff"/><path d="M792.32,501.59a97.65,97.65,0,0,0,0-52.11l17.85-19.29-16.49-28.55L768,407.46a97,97,0,0,0-45.09-26.07h0l-7.78-25.1h-33l-7.77,25.1a97,97,0,0,0-45.1,26.07l-25.66-5.82L587.15,430.2,605,449.48a97.92,97.92,0,0,0,0,52.11l-17.85,19.29,16.49,28.56,25.66-5.82a97,97,0,0,0,45.1,26.06l7.77,25.1h33l7.78-25.1A97,97,0,0,0,768,543.62l25.66,5.82,16.49-28.56Zm-93.66,28a54.05,54.05,0,1,1,54.05-54.05A54.05,54.05,0,0,1,698.66,529.59Z" fill="#2f2e41"/><path d="M629.11,542.78a.86.86,0,1,1,.38,1.68l-25.66,5.82a.86.86,0,0,1-.94-.41l-16.48-28.55a.86.86,0,0,1,.15-1.07L604,501.36a97.69,97.69,0,0,1-2.54-12.54,98.85,98.85,0,0,1-.9-13.28,97.37,97.37,0,0,1,.9-13.29A95.86,95.86,0,0,1,604,449.72l-17.52-18.94a.86.86,0,0,1-.11-1l16.48-28.56a.87.87,0,0,1,1-.4L629,406.51a98,98,0,0,1,45.16-26,.88.88,0,0,1,1.05.63.86.86,0,0,1-.62,1.05,96.23,96.23,0,0,0-44.69,25.83h0a.84.84,0,0,1-.8.24l-25-5.68-15.85,27.46,17.39,18.78a.91.91,0,0,1,.23.85,94.77,94.77,0,0,0-2.63,12.77,96.59,96.59,0,0,0,2.63,38.88.89.89,0,0,1-.2.82L588.22,521l15.85,27.46,25-5.68Zm93.6-160.55a.86.86,0,0,1-.62-1.05.88.88,0,0,1,1-.63,97.89,97.89,0,0,1,45.16,26l25.19-5.72a.87.87,0,0,1,.94.41l16.49,28.56a.88.88,0,0,1-.16,1.07L793,450.07a.87.87,0,0,1-1.22.05.86.86,0,0,1,0-1.22l17.41-18.82-15.85-27.46-25,5.68a.86.86,0,0,1-.8-.24,96.7,96.7,0,0,0-20.63-16,95.35,95.35,0,0,0-24.07-9.84Zm-77.23,93.31a.87.87,0,1,1-1.73,0,54.9,54.9,0,0,1,54.91-54.92.87.87,0,1,1,0,1.74,53.18,53.18,0,0,0-53.18,53.18Z" fill="#fff"/><ellipse cx="546.54" cy="308.91" rx="15.02" ry="14.2" fill="#3f3d56"/><path d="M266.78,343.55l-.46-4.43a5.09,5.09,0,0,0-1.95-3.56l-1.56-1.28a4.72,4.72,0,0,0-2.31-1,13.51,13.51,0,0,1-2.61-.67l-.49-.18a.57.57,0,0,0-.44,0,.52.52,0,0,0-.29.31c-.22.67-.05,1.26.42,1.46l-2.51.19A1.65,1.65,0,0,0,253,335.7l-.87,5.72a4.57,4.57,0,0,0,3.33,5.11l8.13,2.62,6.31-.34-3.15-5.26Z" fill="#fff"/><polygon points="317.28 322.32 307.21 353.7 296.26 353.13 295.12 374.47 318.55 378.09 317.28 322.32" fill="#3f3d56"/><polygon points="317.28 322.32 307.21 353.7 296.26 353.13 295.12 374.47 318.55 378.09 317.28 322.32" fill="#686175" data-primary="true"/><polygon points="317.28 322.32 307.21 353.7 296.26 353.13 295.12 374.47 318.55 378.09 317.28 322.32" opacity="0.2"/><path d="M397.61,594.34l-9.24-59.55a45.37,45.37,0,0,0-7.35-19l-6.23-9.39-12.38-49.73.48-4.2a27.13,27.13,0,0,0-2.23-14.63l-7.28-16.52-16.6-4.82L307.85,414l6.69,180.36H329l5.83-55.1A44.89,44.89,0,0,0,330.94,515l-2.85-6.3,7.57-43,47.71,121.51,2.43,7.18Z" fill="#2f2e41"/><polygon points="306.01 413.79 316.41 365.07 314.98 343.13 317.73 318.31 349 302.44 385.79 327.62 372.78 366.94 353.4 397.02 353.38 421.36 336.78 416.54 307.85 413.98 308.16 422.22 306.01 413.79" fill="#686175" data-primary="true"/><polygon points="385.79 327.62 402.54 381.07 378.15 387.17 363.29 352.11 385.79 327.62" fill="#686175" data-primary="true"/><path d="M382.43,386.27l-4.89,47,5.5,1.63c12-15.06,19-32.95,18.39-55.12l-19,6.47Z" fill="#f9b499"/><path d="M314.16,584l-20.4,5.26c1.12,7.8,21.74,5.1,26.1,5.1H329Z" fill="#686175" data-primary="true"/><path d="M389.56,596.61c-5.5,0-17.53.53-18.39-5.26l17.42-7.84,9,10.83.46,2.27Z" fill="#686175" data-primary="true"/><path d="M298.26,355.23,266,344.92l-2.82,5.37c7.16,13.89,17.88,23,34,24.87l1.1-19.93Z" fill="#f9b499"/><polygon points="361 310.66 359.3 301.79 334.73 304.65 331.91 311.12 361 310.66" fill="#fff"/><ellipse cx="329.86" cy="273.59" rx="7.62" ry="9.81" fill="#2f2e41"/><polygon points="354.73 280.26 356.16 304.65 345.18 306.55 338.06 326.47 337.3 306.46 339.11 282.17 354.73 280.26" fill="#f9b499"/><path d="M339,284.21l13.65-1.66v.11c-1.27,12.25-7.84,22.42-15.28,24.41l0-.61L339,284.21Z" fill="#de8f8a"/><path d="M326.38,270.83a40.66,40.66,0,0,0-1.18,6.38C323.78,290.89,329.49,302,338,302s16.49-11.09,17.92-24.77a38.16,38.16,0,0,0,.14-6.38Z" fill="#f9b499"/><ellipse cx="339.12" cy="264.63" rx="10.74" ry="17.06" transform="translate(22.33 555.62) rotate(-80.54)" fill="#2f2e41"/><ellipse cx="354.37" cy="275.99" rx="13.37" ry="8.82" transform="translate(17.96 573.61) rotate(-79.41)" fill="#2f2e41"/><ellipse cx="350.89" cy="283.47" rx="3.13" ry="5.66" fill="#f9b499"/><path d="M376.08,450.08l-2.15-1a.56.56,0,0,1-.34-.51.57.57,0,0,1,.3-.53,2.83,2.83,0,0,1,2.49-.14l1.9.78Z" fill="#f9b499"/><path d="M377.54,433.29l-4.34,2.55a6.21,6.21,0,0,0-2.77,3.34l-.2.56a3.81,3.81,0,0,1-2,2.21,1,1,0,0,0-.57.85,1,1,0,0,0,.49.9,2.93,2.93,0,0,0,2.41.24l.62-.2,2.31-2.47,2.56,0,.34,6.87-2.89,1.76-.32-.09a2.48,2.48,0,0,0-2.46.74.86.86,0,0,0,.4,1.41l1.81.55a1,1,0,0,0-1.19.83l0,.23a.6.6,0,0,0,.1.43.57.57,0,0,0,.39.23l4.39.7a5.5,5.5,0,0,0,3-.34l5-2a3.33,3.33,0,0,0,2-3.57l-1.52-16.74-1-1.56-6.5,2.53Z" fill="#f9b499"/><path d="M266,344.92l-.41-4.47a5.82,5.82,0,0,0-1.74-3.71l-1.39-1.39a4.45,4.45,0,0,0-2.07-1.2,12.07,12.07,0,0,1-2.33-.86l-.44-.21a.41.41,0,0,0-.39,0,.42.42,0,0,0-.26.29,1.24,1.24,0,0,0,.37,1.49h-2.25a1.39,1.39,0,0,0-1.38,1.21l-.78,5.65a5,5,0,0,0,3,5.35l7.27,3.23,5.64.11L266,344.92Z" fill="#ffc8c4"/><rect x="176.27" y="386.71" width="27.55" height="75.32" transform="translate(-147.45 104.52) rotate(-22.41)" fill="#ccc"/><rect x="185.08" y="445.2" width="43.78" height="40.41" transform="translate(-161.82 114.07) rotate(-22.41)" fill="#2f2e41"/><ellipse cx="151.29" cy="330.4" rx="118.18" ry="118.18" fill="#f48225" data-secondary="true"/><path d="M185.6,487.47,237.68,466l37.12,90a28.26,28.26,0,0,1-15.3,36.78h0a28.25,28.25,0,0,1-36.78-15.3l-37.12-90Z" fill="#f48225" data-secondary="true"/><ellipse cx="151.29" cy="330.4" rx="87.87" ry="87.87" fill="#fff"/><path d="M163.46,417.42v-174a87.87,87.87,0,0,1,0,174.05Z" opacity="0.2"/><path d="M558.9,501c-10.31,34.81,3.57,62,20.92,88.11l-7.14-107.8Z" fill="#f9b499"/><polygon points="583.3 338.52 610.33 362.16 599.92 376.25 574.2 357.88 583.3 338.52" fill="#f48225" data-secondary="true"/><polygon points="583.3 338.52 610.33 362.16 599.92 376.25 574.2 357.88 583.3 338.52" opacity="0.2"/><polygon points="593.03 373.19 606.2 356.58 614.54 363.01 601.3 379.62 593.03 373.19" fill="#f48225" data-secondary="true"/><polygon points="619.21 369.26 632.37 352.65 640.72 359.08 627.47 375.69 619.21 369.26" opacity="0.2"/><path d="M603.12,377.33c11.8,8.53,25.28,14.5,40.14,18.34l.62.18a7.8,7.8,0,0,0,5.77-.4l.9-.43a8.73,8.73,0,0,1,3.47-.85,10.1,10.1,0,0,0,2.66-.46l.55-.17c.81-.25.33-1.62-.67-1.69a10.19,10.19,0,0,0-3.11.26,9.16,9.16,0,0,1-2.15.25h-2.95l9.63-5.12-2.4-.25a13.21,13.21,0,0,0-4.73.31l-8.38,2-28.86-25.17-10.49,13.16Z" fill="#f9b499"/><path d="M497.56,562.07l4.75,30h-3c-4.9,0-8.81-4.34-9.25-9.92l-1.4-18,5.51-7,3.37,4.93Z" fill="#f48225" data-secondary="true"/><path d="M538,500.66c-25.08,9.9-36.42,31.39-43.8,56.48l.72,18.58c.18,4.5,5.28,3.93,5.09,0l-.5-10.18c-.15-2.94,1.06-5.7,3.63-8.24L560,501.07l-22-.41Z" fill="#f9b499"/><path d="M572.51,577.63l26.19,13.31c-3,6.07-11.79,5.69-25-2.24l-1.19-11.07Z" fill="#f48225" data-secondary="true"/><path d="M576.12,573.74l14.16,12.93c-4.47,3.39-13.4-4.33-17.77-9Z" fill="#f9b499"/><path d="M539.59,391.86l-6.15,5.56c-16.65,15.06-17.72,33.6-11.16,54.92l14.89,48.46,40.09.64,4.89-87.76-42.56-21.82Z" fill="#2f2e41"/><path d="M560.28,322.51l-31.16,18.28,14.62,44.48-6.3,10c-9.85,15.62,48.91,33.44,45.75,15.86l-4.31-24,6.2-19.16,1.3-1.42c5.45-6,5-10.19,1.82-17.26l-4.9-10.77Z" fill="#f48225" data-secondary="true"/><polygon points="548.46 331.47 552.29 316.93 572.65 321.98 573.72 334.23 548.46 331.47" fill="#f48225" data-secondary="true"/><polygon points="548.46 331.47 552.29 316.93 572.65 321.98 573.72 334.23 548.46 331.47" opacity="0.2"/><polygon points="572.19 344.42 570.42 329.56 567.88 327.8 567.6 313.5 557.15 307.45 556.64 318.01 562.47 319.46 572.19 344.42" fill="#f9b499"/><path d="M567.77,322.32l-.17-8.83-6.72-3.88,0,.36a12.25,12.25,0,0,0,6.92,12.35Z" fill="#de8f8a"/><ellipse cx="573.42" cy="293.12" rx="13.84" ry="13.32" fill="#3f3d56"/><ellipse cx="568.24" cy="300.4" rx="13.28" ry="18.13" transform="translate(-60.19 165.47) rotate(-15.75)" fill="#f9b499"/><ellipse cx="569.27" cy="288.13" rx="15.02" ry="14.2" fill="#3f3d56"/><ellipse cx="552.89" cy="294.35" rx="15.84" ry="14.97" fill="#3f3d56"/><path d="M499.48,418.73l1.28,3.75a9.49,9.49,0,0,1,.52,3.17v3l.63,2.73-.07,0a1.75,1.75,0,0,1-2.12-.82l-.21-.4a6,6,0,0,1-.71-2.21l-.06-.45a1.17,1.17,0,0,0-1.2-1l-.93,0-1,4.63,1.91,4.21.49.13a1.66,1.66,0,0,1,1.09.86,1.69,1.69,0,0,1,.11,1.39l-.08.22-3.41.2-4.11-2a1.7,1.7,0,0,1-.82-.87l-1.64-3.82a4.48,4.48,0,0,1,.06-3.77l4.36-9.43,5.25-3.7.65,4.2Z" fill="#f9b499"/><path d="M624.47,325.56l-5.58-4.8-.31.36-1.86-1.6L614.56,322l1.86,1.6-.31.36h0l5.59,4.81a2.13,2.13,0,0,0,3-.23h0A2.15,2.15,0,0,0,624.47,325.56Z" fill="#fff"/><path d="M616.39,310.53a8.94,8.94,0,0,0-12-3.93h0a8.94,8.94,0,1,0,12,3.93Zm-5,10a6.64,6.64,0,1,1,2.92-8.93A6.65,6.65,0,0,1,611.43,320.5Z" fill="#fff"/><polygon points="401.51 369.21 405.61 380.93 377.6 390.46 372.88 378.36 401.51 369.21" fill="#686175" data-primary="true"/><polygon points="401.51 369.21 405.61 380.93 377.6 390.46 372.88 378.36 401.51 369.21" opacity="0.2"/><polygon points="295.5 351.18 294.02 376.95 306.79 378.76 307.17 351.51 295.5 351.18" fill="#686175" data-primary="true"/><polygon points="295.5 351.18 294.02 376.95 306.79 378.76 307.17 351.51 295.5 351.18" opacity="0.2"/></svg>