<svg xmlns="http://www.w3.org/2000/svg" width="865.76" height="682.89" viewBox="0 0 865.76 682.89"><g style="isolation:isolate"><g id="a9cd771c-333a-4cd5-9c69-54d7690a8c6a" data-name="Layer 1"><rect x="289.64" y="75.22" width="351.59" height="463.58" rx="9.35" fill="#ccc"/><rect x="301.38" y="85.66" width="330.28" height="439.28" rx="9.35" opacity="0.1"/><path d="M520.7,55H491c0-.47.07-.94.07-1.41a23.83,23.83,0,1,0-47.65,0c0,.47,0,.94.07,1.41H411.7a9.14,9.14,0,0,0-9.14,9.14V92.84A9.14,9.14,0,0,0,411.7,102h109a9.14,9.14,0,0,0,9.14-9.14V64.12A9.14,9.14,0,0,0,520.7,55Zm-54.39,3.27a7.84,7.84,0,1,1,7.83-7.84A7.84,7.84,0,0,1,466.31,58.25Z" fill="#ccc"/><path d="M331.81,136.53c10-.21,37.26-2.27,47.67-18.06a3.76,3.76,0,0,1,6-.5c6.47,7.31,21.85,21,45.33,19.52a3.77,3.77,0,0,1,4,3.77v56.89a52.61,52.61,0,0,1-52,52.6h0a52.61,52.61,0,0,1-53.17-51.29l-1.48-59A3.78,3.78,0,0,1,331.81,136.53Z" fill="#ccc"/><rect x="466.99" y="201.52" width="127.47" height="6.15" fill="#ccc"/><rect x="466.99" y="189.21" width="127.47" height="6.15" fill="#ccc"/><rect x="466.99" y="176.91" width="127.47" height="6.15" fill="#ccc"/><rect x="466.99" y="165.48" width="127.47" height="6.15" fill="#ccc"/><path d="M466.84,135.17H481v2.72H470v6.7H480.3v2.73H470v9.52h-3.15Z" fill="#ccc"/><path d="M487.88,135.17v21.67h-3.22V135.17Z" fill="#ccc"/><path d="M493.65,156.84V135.17h4.18c3,5,9.46,15.42,10.64,17.78h0c-.21-2.68-.2-6.17-.2-9.71v-8.07h3v21.67h-3.94c-2.76-4.62-9.53-15.93-10.83-18.37h-.05c.16,2.36.17,6.18.17,10.08v8.29Z" fill="#ccc"/><path d="M530.94,146.85h-10.7v7.26H532l-.41,2.73h-14.5V135.17h14.35v2.72h-11.2v6.24h10.7Z" fill="#ccc"/><rect x="337.5" y="278" width="176.67" height="11.31" fill="#ccc"/><rect x="420.18" y="301.49" width="176.67" height="11.31" fill="#ccc"/><rect x="335.76" y="329.34" width="134.9" height="11.31" fill="#ccc"/><rect x="336.2" y="355.02" width="177.54" height="11.31" fill="#ccc"/><rect x="536.8" y="355.02" width="60.05" height="11.31" fill="#ccc"/><rect x="493.29" y="329.34" width="103.57" height="10.88" fill="#ccc"/><rect x="537.67" y="278" width="59.4" height="11.31" fill="#ccc"/><rect x="337.5" y="301.49" width="59.4" height="11.31" fill="#ccc"/><polygon points="569.87 457.28 582.93 457.28 591.63 389.39 562.91 389.39 569.87 457.28" fill="#ccc"/><rect x="569.65" y="467.72" width="13.92" height="12.18" fill="#ccc"/><path d="M558.17,470.07a5.72,5.72,0,0,1-5.34,5.63l-18.24,1a12.8,12.8,0,0,0-8.49,4.59L524.86,483c-1.74,2.37-3.15,1.91-3.15-1V464.23a5.36,5.36,0,0,1,5.34-5.34h25.78a5.36,5.36,0,0,1,5.34,5.34Z" fill="#0071f2"/><path d="M558.17,470.07a5.72,5.72,0,0,1-5.34,5.63l-18.24,1a12.8,12.8,0,0,0-8.49,4.59L524.86,483c-1.74,2.37-3.15,1.91-3.15-1V464.23a5.36,5.36,0,0,1,5.34-5.34h25.78a5.36,5.36,0,0,1,5.34,5.34Z" fill="#2f2e41"/><path d="M227.81,470.07a5.7,5.7,0,0,0,5.33,5.62l18.8,1a12.8,12.8,0,0,1,8.48,4.59l1.25,1.71c1.73,2.37,3.15,1.91,3.15-1V464.23a5.36,5.36,0,0,0-5.34-5.34H233.15a5.36,5.36,0,0,0-5.34,5.34Z" fill="#0071f2"/><path d="M227.81,470.07a5.7,5.7,0,0,0,5.33,5.62l18.8,1a12.8,12.8,0,0,1,8.48,4.59l1.25,1.71c1.73,2.37,3.15,1.91,3.15-1V464.23a5.36,5.36,0,0,0-5.34-5.34H233.15a5.36,5.36,0,0,0-5.34,5.34Z" fill="#2f2e41"/><path d="M558.17,466.11a5.72,5.72,0,0,1-5.34,5.63l-18.24,1a12.81,12.81,0,0,0-8.49,4.6l-1.24,1.7c-1.74,2.37-3.15,1.91-3.15-1V460.27a5.36,5.36,0,0,1,5.34-5.34h25.78a5.36,5.36,0,0,1,5.34,5.34Z" fill="#f48225" data-secondary="true"/><path d="M227.81,466.11a5.72,5.72,0,0,0,5.33,5.63l18.8,1a12.77,12.77,0,0,1,8.48,4.6l1.25,1.7c1.73,2.37,3.15,1.91,3.15-1V460.27a5.36,5.36,0,0,0-5.34-5.34H233.15a5.36,5.36,0,0,0-5.34,5.34Z" fill="#f48225" data-secondary="true"/><path d="M288.41,632.44V606.19l-.79-.63-42.82-.4V545.79l-.08,0c-2.71.81-4.61,2.62-4.61,4.71V631.1c0,2.84,4.61,6.52,8.91,6.52h31.57C284.89,637.62,288.41,635.29,288.41,632.44Z" fill="#2f2e41"/><path d="M288.41,608V581.75l-.79-.68-42.82-3.54V518.16l-.08-.06c-2.71.64-4.61,2.33-4.61,4.42v87.39c0,2.85,4.61,6.82,8.91,7.09l31.57-4.31C284.89,613,288.41,610.85,288.41,608Z" fill="#2f2e41"/><path d="M496.67,632.44V606.19l.78-.63,42.82-.4V545.79l.08,0c2.71.81,4.61,2.62,4.61,4.71V631.1c0,2.84-4.61,6.52-8.91,6.52H504.48C500.18,637.62,496.67,635.29,496.67,632.44Z" fill="#2f2e41"/><path d="M496.67,608v-29l.78-.68,42.82-3.54V515.46l.08-.06c2.71.64,4.61,2.33,4.61,4.43v80.64c0,2.85-4.61,6.82-8.91,7.09l-31.57,5.13C500.18,613,496.67,610.85,496.67,608Z" fill="#2f2e41"/><path d="M503.32,421.06c-4.53-11.33-14.69-23.16-27.71-25.67-11-1.92-21.46-3.16-32.61-4a878.39,878.39,0,0,0-100.29,0,310.94,310.94,0,0,0-31.5,4c-13.13,2.51-21.88,13.48-27.72,25.67-8.53,18.79-15.43,32.82-22.39,51.79,11.09-1.49,22.07-3.57,33-5.65a532.78,532.78,0,0,1,197.43,0c11,2.08,21.95,4.16,33,5.65C517.65,453.88,511.32,440.71,503.32,421.06Z" fill="#f48225" data-secondary="true"/><path d="M547.25,576.29c0,5.58-6.21,10.14-13.81,10.14H252.27c-7.6,0-13.81-4.33-13.81-9.62V521.12c0-11.22,3.82-18.45,7.79-25.11l17.31-30.29c4.29-5.86,14-6,21.61-6H501.65c7.59,0,16.21.15,20.5,6l17.31,26.68c4.29,5.86,7.79,16.46,7.79,23.56v60.33Z" fill="#f48225" data-secondary="true"/><path d="M547.25,576.29c0,5.58-6.21,10.14-13.81,10.14H252.27c-7.6,0-13.81-4.33-13.81-9.62V521.12c0-11.22,3.82-18.45,7.79-25.11l17.31-30.29c4.29-5.86,14-6,21.61-6H501.65c7.59,0,16.21.15,20.5,6l17.31,26.68c4.29,5.86,7.79,16.46,7.79,23.56v60.33Z" opacity="0.2"/><path d="M547.25,549.54c0,7.68.23,30.56,0,38-.19,6.43-7.28,10.66-13.79,11.11a2071.44,2071.44,0,0,1-281.21,0c-6.29-.41-13.57-4.32-13.79-10.59-.26-7.26,0-30,0-37.51Z" fill="#f48225" data-secondary="true"/><path d="M392.91,550.05V598.8c45.95,0,91.9-1.59,140.55-4.78,6.51-.44,13.6-4.68,13.79-11.11.23-7.46,0-25.69,0-33.37Z" opacity="0.3"/><path d="M276.25,466.49a2.41,2.41,0,0,1-2.25-3.25c3.86-10.38,7.21-17.53,11.08-25.81,2.11-4.5,4.29-9.16,6.77-14.8,5.64-12.88,17.08-21.67,29.13-22.39,9.76-.45,19.43-.88,30.77-1.18,15-.37,28.82-.55,42.17-.55s27.07.17,42.05.54c11,.3,19.88.71,30.2,1.19,12.59.74,23.47,9.1,29.15,22.37,5.51,11.84,9,20,13.1,29.39,1.48,3.42,3.05,7,4.83,11.12a2.4,2.4,0,0,1-2.2,3.36h-.18c-10.7-.79-21.55-1.48-32.26-2.06-30.07-1.55-57.87-2.31-85-2.31s-54.89.76-85,2.31c-10.71.58-21.56,1.27-32.25,2.06Z" fill="#f48225" data-secondary="true"/><path d="M393.92,400.91c13.59,0,27.17.18,42,.55,10.78.28,19.36.68,30.13,1.18,12.35.73,22,9.13,27.08,20.95,7.47,16.06,11.15,25,17.92,40.49Q494.9,462.9,478.74,462c-29.84-1.54-57.47-2.31-85.1-2.31s-55.25.77-85.08,2.31q-16.17.87-32.31,2.06c5.92-15.91,10.74-24.43,17.8-40.48,4.73-10.8,14.72-20.23,27.07-21,10.78-.5,19.91-.89,30.69-1.18,14.87-.37,28.49-.55,42.11-.55Zm0-4.81c-13.36,0-27.18.18-42.23.55-11.36.31-21,.74-30.79,1.19h-.06a33.4,33.4,0,0,0-19.16,7.79,43.2,43.2,0,0,0-12,16c-2.46,5.61-4.63,10.25-6.73,14.74-3.9,8.33-7.27,15.52-11.17,26a4.82,4.82,0,0,0,4.51,6.49h.35c10.69-.79,21.53-1.48,32.22-2.06,30-1.55,57.76-2.3,84.82-2.3s54.82.75,84.85,2.3c10.68.58,21.51,1.27,32.2,2.06h.36a4.81,4.81,0,0,0,4.4-6.73c-1.78-4.08-3.34-7.7-4.82-11.11-4.08-9.43-7.6-17.57-13.11-29.42-6-14.1-17.7-23-31.18-23.79h-.06c-10.33-.48-19.25-.9-30.24-1.19-15-.37-28.79-.55-42.12-.55Z" fill="#2f2e41"/><path d="M479.06,450.84c-4-9.14-6.17-14.43-10.58-23.92-3-7-8.7-11.95-16-12.38-6.36-.3-11.43-.53-17.8-.7-17.55-.43-65.29-.43-82.84,0-6.37.17-11.77.41-18.13.7-7.3.43-13.21,6-16,12.38-4.17,9.49-7,14.52-10.51,23.92Z" fill="#f48225" data-secondary="true"/><path d="M353,447.92h-40.1c-6.07,0-11,4.65-11,10.33v4.32l6.21-.35c19.39-1,37.85-1.67,56-2v-1.95C364,452.57,359,447.92,353,447.92Z" fill="#2f2e41"/><rect x="312.15" y="432.09" width="41.04" height="23.75" rx="8.01" fill="#2f2e41"/><path d="M437.38,447.92h40.09c6.08,0,11,4.65,11,10.33v4.32l-6.22-.35c-19.38-1-37.84-1.67-56-2v-1.95C426.33,452.57,431.3,447.92,437.38,447.92Z" fill="#2f2e41"/><rect x="436.45" y="432.09" width="41.04" height="23.75" rx="8.01" fill="#2f2e41"/><g opacity="0.2"><path d="M459.24,450.94a26.64,26.64,0,0,0-23.14,12.91c2.35.06,4.71.12,7.08.2a21,21,0,0,1,33.11,1.32l5.29.27,1.79.1C479.31,457,470,450.94,459.24,450.94Z"/></g><path d="M528.38,492.4,515.1,468.74q-9.68-.63-19.36-1.15a1989.77,1989.77,0,0,0-205.22,0q-8.4.45-16.79,1c-1.4.08-4.17.55-5.6,2.78s-11.81,21-11.81,21a47.16,47.16,0,0,0-5.89,14.19c-.83,3.33-.31,5.48,3.83,5.48l48.43,5.18,21.91,25c.12.16,1.26,1.16,1.26,1.16a4.75,4.75,0,0,0,2.49.81q64.36.72,128.73,0c1.89,0,4.51-3.56,4.57-3.74L482,517.25,523.9,513c13.26,0,11.06-3.92,10-7.68A45.85,45.85,0,0,0,528.38,492.4Z" fill="#f48225" data-secondary="true"/><path d="M304.48,468c-1,2.63-8.36,24.69-8.36,24.69-1.71,4.21-3.95,18.28-9.75,18.28-4.23,0,5.37,4.82,8.3,4.82l4,.71s9.77-38.83,13-49.86l-6.71.28A6.4,6.4,0,0,0,304.48,468Z" opacity="0.2"/><path d="M478.73,468c1,2.63,8.36,24.69,8.36,24.69,1.72,4.21,4,18.28,9.76,18.28,4.22,0-5.37,4.82-8.31,4.82l-4,.71s-9.78-38.83-13-49.86l6.71.28A5.73,5.73,0,0,1,478.73,468Z" fill="#e6e7e8" opacity="0.4" style="mix-blend-mode:screen"/><path d="M528.38,492.4,515.1,468.74q-9.68-.63-19.36-1.15-51.4-2.65-102.83-2.65V544.6q32.08,0,64.17-.36c1.89,0,4.51-3.56,4.57-3.74L482,517.25,523.9,513c13.26,0,11.06-3.92,10-7.68A45.85,45.85,0,0,0,528.38,492.4Z" fill="#f1f2f2" opacity="0.4" style="mix-blend-mode:screen"/><path d="M460.3,535.27c-1.36,2.26-3.92,4.09-5.75,4.12-41.29.61-82.38.61-123.67,0-1.83,0-4.39-1.86-5.75-4.12-3.57-5.92-5.43-9-9.34-15.56-1.64-2.74-1.35-5,.69-5,50.94,1,101.53,1,152.47,0,2,0,2.33,2.22.69,5C465.73,526.24,463.87,529.35,460.3,535.27Z" fill="#3d3d3d"/><path d="M309.62,540.64c-18.34-.23-33.17-.56-50.34-.93l-9.74-.21a8.65,8.65,0,0,1-6.12-2.53,5.51,5.51,0,0,1-1.57-4c.11-2.41.08-4.9.05-7.31s-.06-5,.06-7.58c.15-3.42,3.61-6.1,7.88-6.1h.22l13.68.31c8.54.2,16.6.38,26.53.55,3.52.05,7.66,1.87,9.64,4.23,5,5.93,9.52,11.29,13.93,16.4a4.23,4.23,0,0,1,1,4.65c-.44.95-1.68,2.55-5.07,2.55Z" fill="#eae9e7"/><path d="M249.84,514.35H250c14.88.32,25.34.62,40.22.86,2.79,0,6.32,1.56,7.84,3.38Q305,526.83,312,535c1.55,1.79.52,3.23-2.27,3.23h-.1c-21.68-.28-38.39-.68-60.06-1.15-3-.06-5.43-1.88-5.34-4,.22-5-.11-9.93.11-14.9.09-2.11,2.57-3.8,5.48-3.8Zm0-4.81h0c-5.56,0-10.07,3.69-10.28,8.4-.12,2.62-.09,5.21-.06,7.71s.05,4.84-.05,7.19a8,8,0,0,0,2.21,5.78,11,11,0,0,0,7.83,3.28l9.75.21c17.17.38,32,.7,50.34.94h.17c4.91,0,6.71-2.77,7.25-4a6.67,6.67,0,0,0-1.34-7.22c-4.41-5.11-9-10.46-13.91-16.37-2.41-2.89-7.23-5-11.44-5.1-9.93-.16-18-.35-26.53-.54-4.29-.1-8.73-.21-13.67-.31Z" fill="#f48225" data-secondary="true"/><path d="M249.84,514.35H250c14.88.32,25.34.62,40.22.86,2.79,0,6.32,1.56,7.84,3.38Q305,526.83,312,535c1.55,1.79.52,3.23-2.27,3.23h-.1c-21.68-.28-38.39-.68-60.06-1.15-3-.06-5.43-1.88-5.34-4,.22-5-.11-9.93.11-14.9.09-2.11,2.57-3.8,5.48-3.8Zm0-4.81h0c-5.56,0-10.07,3.69-10.28,8.4-.12,2.62-.09,5.21-.06,7.71s.05,4.84-.05,7.19a8,8,0,0,0,2.21,5.78,11,11,0,0,0,7.83,3.28l9.75.21c17.17.38,32,.7,50.34.94h.17c4.91,0,6.71-2.77,7.25-4a6.67,6.67,0,0,0-1.34-7.22c-4.41-5.11-9-10.46-13.91-16.37-2.41-2.89-7.23-5-11.44-5.1-9.93-.16-18-.35-26.53-.54-4.29-.1-8.73-.21-13.67-.31Z" opacity="0.3"/><path d="M474.91,540.64c-3.4,0-4.63-1.6-5.07-2.55a4.2,4.2,0,0,1,1-4.65c4.42-5.11,9-10.48,13.93-16.4,2-2.36,6.12-4.18,9.65-4.23,9.93-.17,18-.35,26.52-.55l13.68-.31h.22c4.27,0,7.74,2.68,7.89,6.1.11,2.55.08,5.1,0,7.58s0,4.9,0,7.31a5.5,5.5,0,0,1-1.56,4,8.65,8.65,0,0,1-6.12,2.53l-9.75.21c-17.17.37-32,.7-50.33.93Z" fill="#eae9e7"/><path d="M534.81,514.35c2.92,0,5.39,1.68,5.49,3.8.22,5-.12,9.93.1,14.9.1,2.16-2.33,4-5.34,4-21.67.47-38.37.87-60,1.15h-.1c-2.79,0-3.82-1.44-2.28-3.23q7.06-8.18,14-16.42c1.52-1.82,5-3.34,7.83-3.38,14.89-.24,25.35-.54,40.23-.86Zm0-4.81h-.27c-4.93.1-9.38.21-13.67.31-8.53.19-16.59.38-26.53.54-4.21.07-9,2.21-11.44,5.1-4.95,5.92-9.5,11.27-13.91,16.37a6.67,6.67,0,0,0-1.34,7.22c.55,1.19,2.34,4,7.26,4h.16c18.37-.24,33.22-.56,50.41-.94l9.69-.21a11,11,0,0,0,7.82-3.28,8,8,0,0,0,2.22-5.78c-.11-2.35-.08-4.7-.05-7.18s.05-5.1-.06-7.72c-.21-4.71-4.73-8.4-10.29-8.4Z" fill="#f48225" data-secondary="true"/><path d="M534.81,514.35c2.92,0,5.39,1.68,5.49,3.8.22,5-.12,9.93.1,14.9.1,2.16-2.33,4-5.34,4-21.67.47-38.37.87-60,1.15h-.1c-2.79,0-3.82-1.44-2.28-3.23q7.06-8.18,14-16.42c1.52-1.82,5-3.34,7.83-3.38,14.89-.24,25.35-.54,40.23-.86Zm0-4.81h-.27c-4.93.1-9.38.21-13.67.31-8.53.19-16.59.38-26.53.54-4.21.07-9,2.21-11.44,5.1-4.95,5.92-9.5,11.27-13.91,16.37a6.67,6.67,0,0,0-1.34,7.22c.55,1.19,2.34,4,7.26,4h.16c18.37-.24,33.22-.56,50.41-.94l9.69-.21a11,11,0,0,0,7.82-3.28,8,8,0,0,0,2.22-5.78c-.11-2.35-.08-4.7-.05-7.18s.05-5.1-.06-7.72c-.21-4.71-4.73-8.4-10.29-8.4Z" opacity="0.3"/><path d="M487.43,559.31c-33.45,1.34-61.39,2-94.85,2s-61.39-.69-94.85-2c-3-.13-5.6,1.13-5.52,4.92.16,7.14,1.9,12.5,5.21,20.63,1.55,3.2,3.35,6,7.38,6.27,33.39,2.08,57.1,2,87.78,2s54.4.12,87.79-2c4-.25,5.83-3.07,7.37-6.27,3.31-8.13,5.06-13.49,5.21-20.63C493,560.44,490.47,559.18,487.43,559.31Z" fill="#2f2e41"/><path d="M531.45,557.25c-10.2.55-16.46.73-25.57,1.07-4.77.18-5.32,4.21-5.32,4.21l-3.83,23.38s-1.21,4.71,5.67,4.67a182.56,182.56,0,0,0,22.49-1.42c8.35-1.07,11-19.27,12.16-27.06C537.62,558.34,534.49,557.08,531.45,557.25Z" fill="#2f2e41"/><path d="M253.71,557.25c10.2.55,16.46.73,25.57,1.07,4.78.18,5.32,4.21,5.32,4.21l3.84,23.38s1.21,4.71-5.68,4.67a182.56,182.56,0,0,1-22.49-1.42c-8.35-1.07-11-19.27-12.16-27.06C247.54,558.34,250.68,557.08,253.71,557.25Z" fill="#2f2e41"/><path d="M297.73,569.63c33.46,1.35,61.39,2,94.85,2s61.4-.68,94.85-2c2-.08,3.75.43,4.73,1.85a40.85,40.85,0,0,0,.79-7.25c.08-3.79-2.48-5.05-5.52-4.92-33.45,1.34-61.39,2-94.85,2s-61.39-.69-94.85-2c-3-.13-5.6,1.13-5.52,4.92a40.85,40.85,0,0,0,.79,7.25C294,570.06,295.75,569.55,297.73,569.63Z" opacity="0.2"/><path d="M503.36,569.21c11.2-.42,18.89-.64,31.43-1.32a11.8,11.8,0,0,1,1.33,0c.39-2.21.69-4.22.93-5.8.57-3.76-2.56-5-5.6-4.85-10.2.55-16.46.73-25.57,1.07-4.77.18-5.32,4.21-5.32,4.21l-1.31,8A7.33,7.33,0,0,1,503.36,569.21Z" opacity="0.2"/><path d="M253.71,557.25c10.2.55,16.46.73,25.57,1.07,4.78.18,5.32,4.21,5.32,4.21l3.84,23.38s1.21,4.71-5.68,4.67a182.56,182.56,0,0,1-22.49-1.42c-8.35-1.07-11-19.27-12.16-27.06C247.54,558.34,250.68,557.08,253.71,557.25Z" fill="#2f2e41"/><path d="M249.26,569.08a7,7,0,0,1,5.22-1.5c11.58.62,18.69.82,29,1.21a7.88,7.88,0,0,1,2.17.38l-1.09-6.64s-.54-4-5.32-4.21c-9.11-.34-15.37-.52-25.57-1.07-3-.17-6.17,1.09-5.6,4.85C248.39,564,248.76,566.41,249.26,569.08Z" opacity="0.2"/><path d="M460.3,535.27c-1.36,2.26-3.92,4.09-5.75,4.12-41.29.61-82.38.61-123.67,0-1.83,0-4.39-1.86-5.75-4.12-3.57-5.92-5.43-9-9.34-15.56-1.64-2.74-1.35-5,.69-5,50.94,1,101.53,1,152.47,0,2,0,2.33,2.22.69,5C465.73,526.24,463.87,529.35,460.3,535.27Z" fill="#2f2e41"/><path d="M316.27,520.52c51.06.88,101.83.88,152.89,0l.48-.82c1.64-2.73,1.35-5-.69-5-50.94,1-101.53,1-152.47,0-2,0-2.33,2.22-.69,5Z" opacity="0.2"/><g opacity="0.6" style="mix-blend-mode:overlay"><path d="M432,457.24a1.3,1.3,0,0,1-1.35,1.55l-32.95-.46a1.81,1.81,0,0,1-1.74-1.61l-4.62-52.41a1.4,1.4,0,0,1,1.34-1.6h.74c9.75,0,28.3.27,28.3.27a2,2,0,0,1,1.86,1.6Z" fill="#f1f2f2"/></g><g opacity="0.6" style="mix-blend-mode:overlay"><path d="M476.86,459.11a.93.93,0,0,1-1,1.4L452,459.45a2.25,2.25,0,0,1-2-1.62l-13.08-53a1.15,1.15,0,0,1,1.21-1.51l13.71.49a2.79,2.79,0,0,1,2.23,1.54Z" fill="#f1f2f2"/></g><g opacity="0.6" style="mix-blend-mode:multiply"><path d="M309,460.66l4.24-.21a2.47,2.47,0,0,0,2.05-1.54l18.59-54.69a1,1,0,0,0-1.05-1.4s-7.06.3-11.7.52h0a8.7,8.7,0,0,0-.69,1.43L297,460a.88.88,0,0,0,.94,1.33S304.76,460.89,309,460.66Z" fill="#e6e7e8"/></g><ellipse cx="496.82" cy="528.66" rx="6.1" ry="5.7" fill="#3d3d3d" opacity="0.3"/><ellipse cx="520.39" cy="526.22" rx="8.71" ry="8.14" fill="#3d3d3d" opacity="0.3"/><ellipse cx="285.79" cy="528.66" rx="6.1" ry="5.7" fill="#3d3d3d" opacity="0.3"/><ellipse cx="262.21" cy="526.22" rx="8.71" ry="8.14" fill="#3d3d3d" opacity="0.3"/><g opacity="0.5" style="mix-blend-mode:overlay"><path d="M505.85,537.72c8.9-.18,9.55.14,19.5-.08L518,515.06c-9.54.21-9.48-.1-19.49.08Z" fill="#fafafa"/></g><g opacity="0.5" style="mix-blend-mode:overlay"><path d="M258.33,514.54l7.49,22.91c8.45.18,16.47.35,24.84.5l-7.48-22.87C274.46,514.92,266.94,514.73,258.33,514.54Z" fill="#fafafa"/></g><g opacity="0.4"><path d="M530.64,456.86c-1.47,0-2.67.81-2.67,1.81s1.2,1.8,2.67,1.8h18.52a2.68,2.68,0,0,1,2.67,2.67v.68c0,1.47.87,2.67,1.93,2.67s1.93-1.2,1.93-2.67v-4.29a2.68,2.68,0,0,0-2.67-2.67Z" fill="#fafafa"/></g><g opacity="0.4"><path d="M245.5,456.86c1.47,0,2.67.81,2.67,1.81s-1.2,1.8-2.67,1.8H234.16c-1.47,0-2.67-.81-2.67-1.8s1.2-1.81,2.67-1.81Z" fill="#fafafa"/></g><g style="mix-blend-mode:screen"><g opacity="0.8"><path d="M507.75,517.2c-1.47,0-2.67.73-2.67,1.59s1.2,1.52,2.67,1.5l24.6-.43a2.63,2.63,0,0,1,2.67,2.63v6.36c0,1.47.74,2.67,1.65,2.67s1.66-1.2,1.66-2.67v-9.46a2.63,2.63,0,0,0-2.67-2.63Z" fill="#fafafa"/></g></g><path d="M656.83,636.74s-6.9,19.61,13.07,16.83c0,0,14.16.24,11.26-11.74l-1.58-7a1.67,1.67,0,0,1-1.93-.25s-9.7-7.33-18.41-.43C659.24,634.13,658.28,636.26,656.83,636.74Z" fill="#686175" data-primary="true"/><path d="M593.57,343.62a32.92,32.92,0,0,0-8.14,6.63,2.7,2.7,0,0,0-.67,1.8c0,7.25.22,51.6,5.54,82.64,0,0,16.77,13.31,58.53.46l15.3-89.4s-9.44-3.54-14-4.34a127.13,127.13,0,0,0-39.24-3A40,40,0,0,0,593.57,343.62Z" fill="#686175" data-primary="true"/><path d="M645.48,331.28l2.24-.26a19.78,19.78,0,0,1-2,2.66Z" fill="#686175" data-primary="true"/><path d="M645.48,331.28l2.24-.26a19.78,19.78,0,0,1-2,2.66Z" opacity="0.2"/><path d="M617.62,327.5s-.43,12.83-3.15,19.24c0,0-3,6.83-.87,9.68a46,46,0,0,0,14.24-10.33s12.4-5.22,18-12.5L645.68,316s-2.56,15.44-14.25,17.66C631.43,333.7,624.55,335.8,617.62,327.5Z" fill="#f9b499"/><path d="M587.87,408.05a1.24,1.24,0,0,1-.27.85l-10.86,13.56c-2.92,3.8-10-2.36-10-2.36-6.77-1.08-25.79-19-25.79-19-3.47-2-11-13.76-11-13.76L540,378c2.74,6.15,25.78,15.19,25.78,15.19,3.54,1.57,4.39.33,4.57-.68a36.45,36.45,0,0,1,.81-4c2.41-8.41,7.79-23.38,7.79-23.38s3.62-11.09,6.6-14.16l0,2.08h0Z" fill="#686175" data-primary="true"/><path d="M652.07,373.58a3.48,3.48,0,0,0-.07.81c0,1.66.64,5.9,5.53,13.29a93.45,93.45,0,0,1,3.79,20.17s-.61,16.67,1.36,21.37a60.21,60.21,0,0,1,1.52,15.17l1.06,16.83s11.52.76,14.1-3.79l4.24-25a116.34,116.34,0,0,0,0-19.41s1.22-10.61-.6-18c0,0-2.58-9.71-2.28-13.5,0,0,3.81-22.61-16.59-35.71A57.75,57.75,0,0,0,652.07,373.58Z" fill="#686175" data-primary="true"/><path d="M657.53,387.68s-16.84,2.12-11.23-20c0,0,3.2-15,17.83-21.91a37.8,37.8,0,0,0-4.68-1.68s-17.63,10.53-17.87,29.41c0,0-2.38,22,16.66,16.83Z" fill="#686175" data-primary="true"/><path d="M657.53,387.68s-16.84,2.12-11.23-20c0,0,3.2-15,17.83-21.91a37.8,37.8,0,0,0-4.68-1.68s-17.63,10.53-17.87,29.41c0,0-2.38,22,16.66,16.83Z" opacity="0.2"/><path d="M529.93,387.35S500.5,370.7,502,366.52a2,2,0,0,1,1.57-.12s-2.24-2.3-1.51-2.9a1.48,1.48,0,0,1,1.63.06s-1.93-2.06-1.15-3c0,0,.61-.61,2.24.18,0,0-1.27-1.27.06-1.81L523,366.16a10.87,10.87,0,0,0,3.65.45,3.22,3.22,0,0,0,2.88-2.75c.24-1.71,1-4.83,3.08-6.14a1.32,1.32,0,0,1,2,.77c1,3.92,4,15.31,5.37,19.46Z" fill="#f9b499"/><path d="M590.3,434.69,579.57,538.1a55.86,55.86,0,0,0,.43,6.81,62.46,62.46,0,0,1,.68,6.68c.52,13.11,1.57,50.18-2.7,61.31,0,0-3.85,12.46-.68,16.09,0,0,11.56,7.7,24.71,3.85a22.83,22.83,0,0,0,.9-6.12s3.4-25.84,6.35-32.86a97.36,97.36,0,0,0,1.13-36.49s-1.36-12.24.46-23.35c0,0,6.57-32.18,6.34-49,0,0,10,14.06,20.4,62.79,0,0,12.24,58,13.6,77.29,0,0-.17,6.28,2.61,3.13,0,0,1.33.24-.36,2.18,0,0-3.75,5.2,1.45,6.41,0,0,2.3.85,4.6-2.3,0,0,4-4.59,12.11-2.54a16.76,16.76,0,0,1,6,2.54s2.66,1.94,2.78-1.93a14.86,14.86,0,0,0-1-6.9s-1.69-2.54-1.69-8.35l-2.53-35.64a71.11,71.11,0,0,0-1.56-10.67l-1.24-5.5s-6.3-27.6-11.23-42a11.78,11.78,0,0,1-.64-3.27c-.51-9.2-3.28-53.16-11-78.53a17,17,0,0,1-.74-5.45l0-1.15S613.86,447,590.3,434.69Z" fill="#2f2e41"/><path d="M590.3,434.69l-.49,4.52S614.1,452.68,649,439l-.13-3.81S612.08,447,590.3,434.69Z" opacity="0.2"/><rect x="606.49" y="439.23" width="13.39" height="7.98" rx="3.01" fill="#fff"/><path d="M627.11,428.55,634,464.3l15.81-2.84-6.7-36-12.24,2.35L627.72,413a1.38,1.38,0,0,0-1.64-1.07h0a1.38,1.38,0,0,0-1.06,1.64l3.18,14.85Z" fill="#d1d3d4"/><polygon points="629.89 432.24 632.1 442.76 643.63 440.34 641.23 429.98 629.89 432.24" fill="#bcbec0"/><path d="M576.72,628.45s-6.09,9.36-22.27,14c0,0-3.27,2.53.15,4.46,0,0,13.81,8.17,26.87-2.67a4.85,4.85,0,0,1,6.44,1.1,4.41,4.41,0,0,0,3.75,1.59,22.31,22.31,0,0,0,11.33-4.1,2,2,0,0,0,.81-1.83c-.2-2-.71-6.08-1.79-8.12C602,632.84,589.82,637,576.72,628.45Z" fill="#686175" data-primary="true"/><path d="M656.71,474.07l-10.29,5L649,513.85l1.54-.89L648.15,480l16.55-8.88s-.49-.73-2.67,0C662,471.16,659.21,474.23,656.71,474.07Z" fill="#bcbec0"/><path d="M650.57,514.57,648.15,480l32.93-17.68s5.16,9.77.8,24.78Z" fill="#d1d3d4"/><path d="M617.3,332.28l.47-6.13s19-2.47,27.91-10.11h0S641.9,346.33,617.3,332.28Z" fill="#f4a58c"/><path d="M646.09,310.91a31.81,31.81,0,0,1-.41,5.13C644,326.3,637.26,334,629.24,334S614.51,326.3,612.8,316a31.54,31.54,0,0,1,0-10.26c1.71-10.26,8.42-17.9,16.44-17.9,8.92,0,16.23,9.48,16.81,21.48C646.08,309.87,646.09,310.39,646.09,310.91Z" fill="#f9b499"/><path d="M612.38,310.91a31.8,31.8,0,0,0,.42,5.13c-1.52-.52-2.66-2.62-2.66-5.13s1.14-4.62,2.66-5.13A31.8,31.8,0,0,0,612.38,310.91Z" fill="#f9b499"/><path d="M651.25,313.66c-1.63,2.21-4.06,3.21-5.57,2.38a31.81,31.81,0,0,0,.41-5.13c0-.52,0-1,0-1.55,1.72-2.11,4.17-3,5.6-1.92S653,311.33,651.25,313.66Z" fill="#f9b499"/><path d="M644,300.49s-3,8.23-1,13.8l1.82-.48s.1-3.08,1.2-4.45c0,0,2.78-3.91,6.06-1.48l1.45-3.15Z" fill="#2f2e41"/><path d="M610,298.07s-.85,6.78,2.54,9.44A30.56,30.56,0,0,1,615.8,297,39.31,39.31,0,0,0,610,298.07Z" fill="#2f2e41"/><path d="M610,298.07s-6.66-2.54,1.33-5.2c0,0-1.21-24.21,25-21.3,0,0,17,1.08,18,22.39a41.62,41.62,0,0,1-.85,10.77L644,300.49S624.75,294.2,610,298.07Z" fill="#686175" data-primary="true"/><path d="M613.68,281.6s23.7-4.69,40.22,8a32.09,32.09,0,0,1,.51,4.36s-20-13.29-42.47-7.32C611.94,286.64,613.14,283,613.68,281.6Z" opacity="0.2"/><path d="M611.31,291.82s18.41-5,35.66,6.23c0,0-20.44-9-35.65-5.18Z" fill="#fff" opacity="0.2"/><path d="M617.3,332.28l-10.66,4.24s5.28,13.72,6.25,18a18,18,0,0,1,1.09-6.3S616.26,344,617.3,332.28Z" fill="#686175" data-primary="true"/><path d="M617.3,332.28l-10.66,4.24s5.28,13.72,6.25,18a18,18,0,0,1,1.09-6.3S616.26,344,617.3,332.28Z" fill="#fff" opacity="0.2"/><path d="M606.64,336.52s-3.92,5.37-2.4,11.54c0,0,2.9-4.23,5.08-4.42Z" fill="#686175" data-primary="true"/><path d="M606.64,336.52s-3.92,5.37-2.4,11.54c0,0,2.9-4.23,5.08-4.42Z" opacity="0.2"/><path d="M619,353.43s7.82-4,9.72-5.68c0,0,3.87,7.08,3.54,12,0,0,14.17-8.41,19.78-21.42,0,0-.42-5.85-4.29-7.34,0,0-4.66,8.3-19.88,15.07A39.8,39.8,0,0,1,619,353.43Z" fill="#686175" data-primary="true"/><path d="M619,353.43s7.82-4,9.72-5.68c0,0,3.87,7.08,3.54,12,0,0,14.17-8.41,19.78-21.42,0,0-.42-5.85-4.29-7.34,0,0-4.66,8.3-19.88,15.07A39.8,39.8,0,0,1,619,353.43Z" fill="#fff" opacity="0.2"/><path d="M665.26,461.22s-10.37,9.58-8.55,12.85c0,0,1.93.36,5.32-2.91,0,0,3-1.45,3.39,1.45,0,0-.12,19,2.06,17.31,0,0,1.09.85,2.78-4.23,0,0,.25,2.05,1.46,1.57a16,16,0,0,0,3.51-6.66s.48,1.33,2.42-.6c0,0,2.14-4.81,3.41-6.93a5.24,5.24,0,0,0,.79-2.58c.06-2.08-.27-6.17-2.49-13.06C679.36,457.43,677.74,461.74,665.26,461.22Z" fill="#f9b499"/><path d="M138.33,629.33a48.61,48.61,0,0,1-4.64,6.41c-1.76,1.77-7.07,5.51-9,7.25s-1.76,3.09-.89,4.42,35.78,0,35.78,0,1.31.88,1.31-4.42a18,18,0,0,0-2-8.61S140.75,629.12,138.33,629.33Z" fill="#f48225" data-secondary="true"/><path d="M123.21,645.24a3,3,0,0,0,.6,2.2c.88,1.32,35.77,0,35.77,0s.9.59,1.22-2.2Z" fill="#2f2e41"/><path d="M206.72,629.33a49.19,49.19,0,0,0,4.78,6.41c1.83,1.77,7.25,5.51,9.35,7.25s1.82,3.09.92,4.42-36.92,0-36.92,0-1.45.88-1.45-4.42a17.59,17.59,0,0,1,2.14-8.58S204.21,629.12,206.72,629.33Z" fill="#f48225" data-secondary="true"/><path d="M222.38,645.24a3,3,0,0,1-.61,2.2c-.92,1.32-36.92,0-36.92,0s-.94.59-1.26-2.2Z" fill="#2f2e41"/><path d="M134.06,455.67s2.9,118.86,3.39,125.11,2.64,24.06,2.64,24.06-.66,7.06-1.1,9.26,1.62,8.61,1.62,8.61a20.37,20.37,0,0,0-1.77,3.75c-.22,1.11-.43,2.9-.43,2.9a91,91,0,0,1,11.91,3.31,22.55,22.55,0,0,0,8.61,1.77s.89-5.8,2-9.71,2.42-9.05,2.2-13.24-2.65-11.71-2.42-13.91,3.09-7.51,3.09-11.27-.45-11.91-.45-11.91l11.4-92,7.8,124s-3.75,13.47-1.53,15.69a51.14,51.14,0,0,1,3.68,4.23,32.3,32.3,0,0,0-1.12,4.86c0,1.1.23,1.76.23,2.65A18,18,0,0,0,184,636s5.52-2.2,10.38-3.75a62.34,62.34,0,0,1,12.36-2s.22-6.41.22-8.83,2-6.4,1.54-8.82-2.2-6.85-2.64-8.61a36.25,36.25,0,0,1-.45-6.41c0-.88,4.12-129.3,4.12-129.3s-2.26-17.29-2.26-18-2.44-7.94-2.44-7.94l-70.63,9.26Z" fill="#2f2e41"/><polygon points="157.02 333.16 144.87 341.54 155.68 451.92 196.3 446.18 182.4 331.16 157.02 333.16" fill="#ccc"/><path d="M149.94,317.26l3.11,27.36s4.18,5.31,14.49,3.76,11.7-8.83,11.7-8.83L177,314.17s-2.44,2.65-10.38,4.64S149.94,317.26,149.94,317.26Z" fill="#f9b499"/><path d="M107.13,384.14s-2-11.25-3.31-15.22-6.41-6-8.39-7.73-2.65-6.41-4.86-5.8-1.55,3.52-.66,5.51a30.47,30.47,0,0,0,2.89,4.64s-4.85-2.65-7.94-4a25.31,25.31,0,0,1-6.17-3.76c-1.12-.88-.45,4.64.43,7.95s3.09,9.06,7.73,11.48,8.16,4.2,8.16,4.2l3.1,6.39Z" fill="#f9b499"/><path d="M98.57,377.08s-1.77-5.53-4.64-6.84-3.75,0-5.5-2.44-3.32-7.94-5.09-10.36-2.64.65-2,3.52,3.09,10.83,3.54,12.58,4,3.32,5.52,4.42" fill="#f9b499"/><path d="M149.73,327.85a37.2,37.2,0,0,1,3.92,7.73,30.87,30.87,0,0,1,2.22,8.39,10.23,10.23,0,0,1,.22,4,39.19,39.19,0,0,0-.45,6.84c.28,2.21,6.71,105.51,6.71,107.75s.67,7.49-.22,7.94,2.44,1.77-12.14-.89a99.64,99.64,0,0,1-23.66-7.05v-34s-3.75,2.89-10.81.66c-10.48-3.27-12.37-12.8-16.34-24.28s-6.4-17-6.4-17l14.35-7.25,5.52,9.41s6-23.84,6-27.16-.89-8.16-.45-9.27,27.54-17.39,27.54-17.39S147.74,327.42,149.73,327.85Z" fill="#f48225" data-secondary="true"/><polygon points="132.29 444.41 132.96 449.7 151.71 439.99 151.06 433.59 132.29 444.41" opacity="0.2"/><path d="M257.24,369.76l5.29-4.86s3.75-6.84,5.08-9.48,4.63-.45,7.06-1.77,6.18-4.64,6.85-3.08a2.9,2.9,0,0,1-1.11,3.52,32.7,32.7,0,0,1-3.75,2,73.77,73.77,0,0,0,7.25-2.2c1.33-.67,8.17-5.07,8.17-2.2s-4.42,8.61-7.24,11.48-7.25,6.84-12.14,8.38-5.95,2-5.95,2l-4.64,5.09Z" fill="#f9b499"/><path d="M265.61,370.45s2.44-6.84,4.86-7.72,9.28-1.1,9.28-1.1,4.19-6.85,6.84-9.05,2.65.88,1.55,3.31a46.23,46.23,0,0,1-5.52,8.39,37.54,37.54,0,0,1-3.09,3.09" fill="#f9b499"/><path d="M276.66,356.1s-3.75.23-4.86,1.34" fill="#f9b499"/><path d="M178,328.29s6,47.69,6,56.53,3.75,84.33,3.75,84.33a37,37,0,0,0,18.76-2.65c10.38-4.21,11.92-7.51,12.15-9.28s-4.35-45.69-4.35-45.69,3.75,2.21,11.48-.45,39.95-26.93,39.95-26.93l-8.38-14.35-28,11.93s-8-21-11.48-27.82-2.66-9.49-4.86-11.69S186.66,335,186.66,335s-4.19-8.38-5.51-10.15S177.76,323.37,178,328.29Z" fill="#f48225" data-secondary="true"/><polygon points="195.86 429.84 195.43 434.25 211.76 441.09 212.2 436.68 195.86 429.84" opacity="0.2"/><path d="M150.69,323.84l-.75-6.58,27.1-3.09.55,6.37S166.05,332.28,150.69,323.84Z" fill="#f7a78d"/><path d="M178.94,297.38s3.41-3.75,3.9.67-3.66,8.83-3.66,8.83Z" fill="#f9b499"/><path d="M179.09,308.63c.8-3.7-.23-15.23-.23-15.23s4.86-10.15,2.9-14.57-5.51-11.7-16.34-13.47-18.11,1.57-20.1,4.87c0,0-6.19,4.21-8.18,9.5s-.88,7.25-.21,10.14S141.57,300,141.57,300s4,12.15,5.29,15a12.34,12.34,0,0,0,1.1,2c7.44,11.5,24.85,9.41,29.67-3.41A35.13,35.13,0,0,0,179.09,308.63Z" fill="#f9b499"/><path d="M181.73,278.84c-2-4.34-5.51-11.69-16.33-13.46s-18.09,1.55-20.08,4.85c0,0-6.19,4.21-8.18,9.5s-.88,7.25-.21,10.14S141.57,300,141.57,300l.84,2.57.26-.13s-1.55-10.83-1.1-13,4.34-5.07,5.29-7.25a30,30,0,0,0,1.1-3.1s5.09,7.73,14.13,7.73,13.25-.44,13.25-.44l2.2,4.35,1.32,2.64S183.72,283.26,181.73,278.84Z" fill="#2f2e41"/><path d="M142.41,302.6s-3.5-2.56-3.93,1.19,1.1,5.52,3.09,6.17,4,1.56,4,1.56Z" fill="#f9b499"/><rect x="734.47" y="218.24" width="10" height="289.88" fill="#bcbec0"/><path d="M772.89,529.71H705.31v-1.35a7.59,7.59,0,0,1,.3-2.09H697.5l2.5,6.39,73,0h2.74l2.41-6.26H772.6a7.53,7.53,0,0,1,.29,2Z" fill="#e6e7e8"/><polygon points="701.19 48.57 698.8 48.61 686.36 48.85 695.5 63.92 703.29 76.76 701.19 48.57" fill="#2f2e41"/><polygon points="775.22 48.66 770.2 48.57 768.64 80.25 778.52 63.97 787.66 48.91 775.22 48.66" fill="#2f2e41"/><g opacity="0.2"><polygon points="701.19 48.57 698.8 48.61 686.36 48.85 695.5 63.92 703.29 76.76 701.19 48.57"/><polygon points="775.22 48.66 770.2 48.57 768.64 80.25 778.52 63.97 787.66 48.91 775.22 48.66"/></g><polygon points="704.92 98.64 701.76 98.7 689.31 98.95 698.45 114.01 707.13 128.31 704.92 98.64" fill="#2f2e41"/><polygon points="772.26 98.73 767.74 98.64 766.22 129.44 775.57 114.04 784.71 98.97 772.26 98.73" fill="#2f2e41"/><g opacity="0.2"><polygon points="704.92 98.64 701.76 98.7 689.31 98.95 698.45 114.01 707.13 128.31 704.92 98.64"/><polygon points="772.26 98.73 767.74 98.64 766.22 129.44 775.57 114.04 784.71 98.97 772.26 98.73"/></g><polygon points="708.65 148.72 704.72 148.8 692.27 149.04 701.41 164.1 710.98 179.86 708.65 148.72" fill="#2f2e41"/><polygon points="769.3 148.8 765.27 148.72 763.8 178.62 772.61 164.1 781.75 149.04 769.3 148.8" fill="#2f2e41"/><g opacity="0.2"><polygon points="708.65 148.72 704.72 148.8 692.27 149.04 701.41 164.1 710.98 179.86 708.65 148.72"/><polygon points="769.3 148.8 765.27 148.72 763.8 178.62 772.61 164.1 781.75 149.04 769.3 148.8"/></g><path d="M725.38,204.05v4.3a4.34,4.34,0,0,0,.38,1.76,4.51,4.51,0,0,0,2.53,2.32v2.79a2.94,2.94,0,0,0,.87,2.08,3.16,3.16,0,0,0,2.25.94h14a3.08,3.08,0,0,0,3.12-3v-2.87a4.41,4.41,0,0,0,2.68-4v-4.66Z" fill="#2f2e41"/><path d="M767.74,98.64l.9-18.39,1.56-31.68.53-10.68-.15.1-70.15,1.28.76,10.06,2.1,28.19,1.63,21.87,2.21,29.66,1.52,20.39L711,180.58l1.08,14.59,51-2.15.71-14.4,1.47-29.9,1-19.28Zm-11.34,75a17.9,17.9,0,0,1-1.51,3.3,19.15,19.15,0,0,1-16.56,9.34c-10.5,0-19-8.24-19-18.4a18.32,18.32,0,0,1,10.21-16.31,19.55,19.55,0,0,1,14.55-1.24,18.49,18.49,0,0,1,13.29,17.55A17.8,17.8,0,0,1,756.4,173.68Zm1.2-46.33A19.63,19.63,0,0,1,756,131a20.91,20.91,0,0,1-18.1,10.21c-11.48,0-20.79-9-20.79-20.12a20,20,0,0,1,11.16-17.83,21.52,21.52,0,0,1,15.9-1.35,20.2,20.2,0,0,1,14.53,19.18A19.36,19.36,0,0,1,757.6,127.35Zm1.47-48.89a22.74,22.74,0,0,1-1.82,4,23,23,0,0,1-20,11.25c-12.66,0-22.92-9.92-22.92-22.17a22.08,22.08,0,0,1,12.3-19.65,23.66,23.66,0,0,1,17.53-1.49,22.27,22.27,0,0,1,16,21.14A21.54,21.54,0,0,1,759.07,78.46Z" fill="#2f2e41"/><path d="M744.21,50.38a23.66,23.66,0,0,0-17.53,1.49,22.08,22.08,0,0,0-12.3,19.65c0,12.25,10.26,22.17,22.92,22.17a23,23,0,0,0,20-11.25,22.74,22.74,0,0,0,1.82-4,21.54,21.54,0,0,0,1.15-6.94A22.27,22.27,0,0,0,744.21,50.38Zm11.65,26.78A18.38,18.38,0,0,1,753.47,82a19.61,19.61,0,0,1-16.17,8.36c-10.75,0-19.46-8.43-19.46-18.82a18.63,18.63,0,0,1,8.27-15.39A19.77,19.77,0,0,1,737.3,52.7a20,20,0,0,1,5.56.79,18.91,18.91,0,0,1,13.9,18A18.15,18.15,0,0,1,755.86,77.16Z" fill="#2f2e41"/><path d="M744.21,50.38a23.66,23.66,0,0,0-17.53,1.49,22.08,22.08,0,0,0-12.3,19.65c0,12.25,10.26,22.17,22.92,22.17a23,23,0,0,0,20-11.25,22.74,22.74,0,0,0,1.82-4,21.54,21.54,0,0,0,1.15-6.94A22.27,22.27,0,0,0,744.21,50.38Zm11.65,26.78A18.38,18.38,0,0,1,753.47,82a19.61,19.61,0,0,1-16.17,8.36c-10.75,0-19.46-8.43-19.46-18.82a18.63,18.63,0,0,1,8.27-15.39A19.77,19.77,0,0,1,737.3,52.7a20,20,0,0,1,5.56.79,18.91,18.91,0,0,1,13.9,18A18.15,18.15,0,0,1,755.86,77.16Z" opacity="0.2"/><path d="M742.86,53.49a20,20,0,0,0-5.56-.79,19.77,19.77,0,0,0-11.19,3.43,18.63,18.63,0,0,0-8.27,15.39c0,10.39,8.71,18.82,19.46,18.82A19.61,19.61,0,0,0,753.47,82a18.38,18.38,0,0,0,2.39-4.82,18.15,18.15,0,0,0,.9-5.64A18.91,18.91,0,0,0,742.86,53.49Z" fill="#fe4f4a"/><path d="M744.12,101.87a21.52,21.52,0,0,0-15.9,1.35,20,20,0,0,0-11.16,17.83c0,11.11,9.31,20.12,20.79,20.12A20.91,20.91,0,0,0,756,131a19.63,19.63,0,0,0,1.65-3.61,19.36,19.36,0,0,0,1-6.3A20.2,20.2,0,0,0,744.12,101.87Zm10.58,24.3a16.83,16.83,0,0,1-2.17,4.37,17.82,17.82,0,0,1-14.68,7.59c-9.75,0-17.65-7.65-17.65-17.08a16.9,16.9,0,0,1,7.5-14A17.94,17.94,0,0,1,737.85,104a18.23,18.23,0,0,1,5,.71,17.17,17.17,0,0,1,12.61,16.36A16.63,16.63,0,0,1,754.7,126.17Z" fill="#2f2e41"/><path d="M744.12,101.87a21.52,21.52,0,0,0-15.9,1.35,20,20,0,0,0-11.16,17.83c0,11.11,9.31,20.12,20.79,20.12A20.91,20.91,0,0,0,756,131a19.63,19.63,0,0,0,1.65-3.61,19.36,19.36,0,0,0,1-6.3A20.2,20.2,0,0,0,744.12,101.87Zm10.58,24.3a16.83,16.83,0,0,1-2.17,4.37,17.82,17.82,0,0,1-14.68,7.59c-9.75,0-17.65-7.65-17.65-17.08a16.9,16.9,0,0,1,7.5-14A17.94,17.94,0,0,1,737.85,104a18.23,18.23,0,0,1,5,.71,17.17,17.17,0,0,1,12.61,16.36A16.63,16.63,0,0,1,754.7,126.17Z" opacity="0.2"/><path d="M742.9,104.69a18.23,18.23,0,0,0-5-.71,17.94,17.94,0,0,0-10.15,3.11,16.9,16.9,0,0,0-7.5,14c0,9.43,7.9,17.08,17.65,17.08a17.82,17.82,0,0,0,14.68-7.59,16.83,16.83,0,0,0,2.17-4.37,16.63,16.63,0,0,0,.81-5.12A17.17,17.17,0,0,0,742.9,104.69Z" fill="#f9e014"/><path d="M744.07,150.37a19.55,19.55,0,0,0-14.55,1.24,18.32,18.32,0,0,0-10.21,16.31c0,10.16,8.52,18.4,19,18.4A19.15,19.15,0,0,0,754.89,177a18,18,0,0,0,2.47-9.06A18.49,18.49,0,0,0,744.07,150.37Zm9.67,22.23a15.71,15.71,0,0,1-2,4,16.29,16.29,0,0,1-13.43,6.93,15.88,15.88,0,0,1-16.14-15.61A15.48,15.48,0,0,1,729,155.14a16.45,16.45,0,0,1,9.29-2.84A16.69,16.69,0,0,1,743,153a15.69,15.69,0,0,1,11.53,15A15.13,15.13,0,0,1,753.74,172.6Z" fill="#2f2e41"/><path d="M744.07,150.37a19.55,19.55,0,0,0-14.55,1.24,18.32,18.32,0,0,0-10.21,16.31c0,10.16,8.52,18.4,19,18.4A19.15,19.15,0,0,0,754.89,177a18,18,0,0,0,2.47-9.06A18.49,18.49,0,0,0,744.07,150.37Zm9.67,22.23a15.71,15.71,0,0,1-2,4,16.29,16.29,0,0,1-13.43,6.93,15.88,15.88,0,0,1-16.14-15.61A15.48,15.48,0,0,1,729,155.14a16.45,16.45,0,0,1,9.29-2.84A16.69,16.69,0,0,1,743,153a15.69,15.69,0,0,1,11.53,15A15.13,15.13,0,0,1,753.74,172.6Z" opacity="0.2"/><path d="M743,153a16.69,16.69,0,0,0-4.62-.65,16.45,16.45,0,0,0-9.29,2.84,15.48,15.48,0,0,0-6.85,12.78,15.88,15.88,0,0,0,16.14,15.61,16.29,16.29,0,0,0,13.43-6.93,15.71,15.71,0,0,0,2-4,15.13,15.13,0,0,0,.74-4.68A15.69,15.69,0,0,0,743,153Z" fill="#a3dc7e"/><polygon points="770.73 37.89 776.54 33.7 693.9 35.58 700.43 39.27 700.43 39.27 770.58 37.99 770.73 37.89" fill="#2f2e41"/><polygon points="770.73 37.89 776.54 33.7 693.9 35.58 700.43 39.27 700.43 39.27 770.58 37.99 770.73 37.89" opacity="0.2"/><polygon points="712.07 195.17 707.63 199.46 766.97 197.31 763.09 193.02 712.07 195.17" fill="#2f2e41"/><polygon points="712.07 195.17 707.63 199.46 766.97 197.31 763.09 193.02 712.07 195.17" opacity="0.2"/><polygon points="707.63 199.46 707.9 204.29 725.38 204.05 751.16 203.69 765.86 203.48 766.97 197.31 707.63 199.46" fill="#2f2e41"/><polygon points="775.29 29.05 695.06 30.84 693.62 35.58 776.4 33.7 775.29 29.05" fill="#2f2e41"/><path d="M745.59,504.67h-13a4.34,4.34,0,0,0-3.65,1.95,4.1,4.1,0,0,0-.68,2.23v3.67h21.64v-3.67A4.26,4.26,0,0,0,745.59,504.67Z" fill="#2f2e41"/><path d="M719.83,515.29a5.49,5.49,0,0,0-.85,2.94v2.62h-6.15a7.52,7.52,0,0,0-7.52,7.51v1.35h67.58v-1.35a7.57,7.57,0,0,0-7.52-7.51h-6.15v-2.62a5.81,5.81,0,0,0-5.9-5.71H724.88a5.92,5.92,0,0,0-5,2.77" fill="#2f2e41"/><path d="M775.41,532.61H773l-73,0-2.77,5.5,80.55.27-2.08-5.81Z" fill="#d1d3d4"/><g opacity="0.2"><path d="M711.14,69.47s20.52-15,50.65-4.48c-7.39-13.23-8.87-18.77-27.91-18.41S711.14,69.47,711.14,69.47Z" fill="#2f2e41"/></g><path d="M764.41,71.07h-2.64c0-13.12-11.06-23.8-24.66-23.8S712.46,58,712.46,71.07h-2.64c0-14.57,12.25-26.44,27.29-26.44S764.41,56.5,764.41,71.07Z" fill="#fff"/><g opacity="0.2"><path d="M714.47,118.84s18.55-13.58,45.79-4c-6.69-12-8-17-25.24-16.65S714.47,118.84,714.47,118.84Z" fill="#2f2e41"/></g><path d="M762.62,120.29h-2.39c0-11.86-10-21.52-22.28-21.52s-22.29,9.66-22.29,21.52h-2.38c0-13.18,11.06-23.9,24.67-23.9S762.62,107.11,762.62,120.29Z" fill="#fff"/><g opacity="0.2"><path d="M716.5,166.45s17.31-12.66,42.72-3.77c-6.23-11.16-7.48-15.83-23.54-15.53S716.5,166.45,716.5,166.45Z" fill="#2f2e41"/></g><path d="M761.43,167.81H759.2c0-11.07-9.32-20.08-20.79-20.08s-20.8,9-20.8,20.08h-2.22c0-12.29,10.33-22.3,23-22.3S761.43,155.52,761.43,167.81Z" fill="#fff"/></g></g></svg>