<svg id="f6d94367-026d-4c0f-9f62-9fd22b073904" data-name="Layer 1" xmlns="http://www.w3.org/2000/svg" width="865.76" height="682.89" viewBox="0 0 865.76 682.89"><rect x="67.02" y="183.62" width="295.97" height="210.73" fill="#686175" data-primary="true"/><rect x="687.17" y="230.94" width="111.57" height="218.82" rx="10.12" fill="#2f2e41"/><rect x="695.39" y="249.1" width="94.71" height="181.63" fill="#fff"/><rect x="733.01" y="261.21" width="20.76" height="20.76" fill="#686175" data-primary="true"/><circle cx="743.28" cy="394.73" r="6.81" fill="#f48225" data-secondary="true"/><path d="M598.76,480.2v-296c0-13.21,11.24-23.93,24.46-23.93h0a24.62,24.62,0,0,1,24.62,24.62V382.34a37.59,37.59,0,0,0,4.7,18.44c3.23,5.72,8.45,11.34,16.63,12h-36V480.2Z" fill="#f48225" data-secondary="true"/><path d="M598.76,480.2v-296c0-13.21,11.24-23.93,24.46-23.93h0a24.62,24.62,0,0,1,24.62,24.62V382.34a37.59,37.59,0,0,0,4.7,18.44c3.23,5.72,8.45,11.34,16.63,12h-36V480.2Z" fill="#fff" opacity="0.4"/><path d="M234.4,238.64H621.84A11.36,11.36,0,0,1,633.2,250V499.84a0,0,0,0,1,0,0H223a0,0,0,0,1,0,0V250A11.36,11.36,0,0,1,234.4,238.64Z" fill="#2f2e41"/><path d="M166.21,499.84H690.49a0,0,0,0,1,0,0v0a22.79,22.79,0,0,1-22.79,22.79H189a22.79,22.79,0,0,1-22.79-22.79v0a0,0,0,0,1,0,0Z" fill="#2f2e41"/><path d="M166.21,499.84H690.49a0,0,0,0,1,0,0v0a22.79,22.79,0,0,1-22.79,22.79H189a22.79,22.79,0,0,1-22.79-22.79v0a0,0,0,0,1,0,0Z" opacity="0.2"/><rect x="248.08" y="263.47" width="360.53" height="236.37" fill="#fff"/><path d="M647.84,335.71h66.74s-9.75,3.25-13.24,18.14a40.76,40.76,0,0,0-.52,15.25c1.71,11.56,3.75,45.39-31.65,43.67,0,0-13.69-.78-19.24-17.56a37.57,37.57,0,0,1-1.84-11.67Z" fill="#f48225" data-secondary="true"/><rect x="154.96" y="320.22" width="208.03" height="124.22" fill="#bcbec0"/><polygon points="171.81 429.38 171.81 397.17 184.69 386.87 211.75 397.17 233.66 386.87 250.15 390.99 286.23 361.94 303.36 373.25 339.44 350.01 362.99 365.91 362.99 429.38 171.81 429.38" fill="#fff" opacity="0.1"/><polygon points="193.57 408.57 171.81 420.34 171.81 414.99 193.57 404.44 213.76 412.39 235.78 404.44 250.45 412.39 286.54 389.7 304.27 400.46 333.63 386.09 362.99 390.99 362.99 394.35 333.63 389.7 303.66 404.44 286.54 392.82 251.06 416.37 234.86 408.42 213.45 416.52 193.57 408.57" opacity="0.2"/><rect x="171.81" y="337.32" width="58.15" height="6.42" rx="3.21" opacity="0.2"/><circle cx="106.49" cy="223.29" r="24.43" fill="#fff"/><path d="M106.49,219.13l7.76-7.57a2.77,2.77,0,0,1,3.9,0h0a2.78,2.78,0,0,1,0,3.92l-7.62,7.61,7.73,7.73a2.53,2.53,0,0,1,0,3.58h0a2.53,2.53,0,0,1-3.57,0l-7.81-7.81-7.59,7.59a2.91,2.91,0,0,1-4.09,0h0a2.89,2.89,0,0,1,0-4.09l7-7-7.39-7.39a3,3,0,0,1,0-4.25h0a3,3,0,0,1,4.3,0Z" fill="#686175" data-primary="true"/><line x1="138.01" y1="222.86" x2="144.01" y2="222.86" fill="none" stroke="#fff" stroke-linecap="round" stroke-linejoin="round" stroke-width="2"/><line x1="155.93" y1="222.86" x2="293" y2="222.86" fill="none" stroke-dasharray="11.92 11.92" stroke-linecap="round" stroke-linejoin="round" stroke-width="2" stroke="#fff"/><polyline points="298.96 222.86 304.96 222.86 304.96 228.86" fill="none" stroke="#fff" stroke-linecap="round" stroke-linejoin="round" stroke-width="2"/><line x1="304.96" y1="232.64" x2="304.96" y2="238.64" fill="none" stroke="#fff" stroke-linecap="round" stroke-linejoin="round" stroke-width="2"/><rect x="85.86" y="167.6" width="287.8" height="16.02" fill="#686175" data-primary="true"/><rect x="85.86" y="167.6" width="287.8" height="16.02" opacity="0.2"/><rect x="248.08" y="263.47" width="360.53" height="27.99" fill="#ccc"/><rect x="256.11" y="268.52" width="17.89" height="17.89" fill="#fff"/><path d="M359.93,480.23V186.09a25.8,25.8,0,0,1,25.8-25.8H625.51s-27.44-1.8-26.75,28.48V480.2Z" fill="#f48225" data-secondary="true"/><rect x="392.19" y="194.94" width="49.17" height="49.17" fill="#fff"/><rect x="395.15" y="197.89" width="43.26" height="43.26" fill="#f48225" data-secondary="true"/><rect x="392.19" y="266.49" width="49.17" height="49.17" fill="#fff"/><rect x="395.15" y="269.45" width="43.26" height="43.26" fill="#f48225" data-secondary="true"/><rect x="392.19" y="338.74" width="49.17" height="49.17" fill="#fff"/><rect x="394.87" y="342.08" width="43.26" height="43.26" fill="#f48225" data-secondary="true"/><rect x="392.19" y="410.28" width="49.17" height="49.17" fill="#fff"/><rect x="395.15" y="413.23" width="43.26" height="43.26" fill="#f48225" data-secondary="true"/><polygon points="397.16 213.47 407.38 203.51 416.78 214.39 439.82 191.91 449.91 203.15 418.03 234.57 397.16 213.47" fill="#f48225" data-secondary="true"/><polygon points="397.16 285.03 407.38 275.07 416.78 285.94 439.82 263.47 449.91 274.71 418.03 306.13 397.16 285.03" fill="#f48225" data-secondary="true"/><polygon points="397.16 357.27 407.38 347.31 416.78 358.19 439.82 335.71 449.91 346.95 418.03 378.37 397.16 357.27" fill="#f48225" data-secondary="true"/><polygon points="397.16 428.81 407.38 418.85 416.78 429.73 439.82 407.25 449.91 418.49 418.03 449.91 397.16 428.81" fill="#f48225" data-secondary="true"/><g opacity="0.4"><polygon points="397.16 213.47 407.38 203.51 416.78 214.39 439.82 191.91 449.91 203.15 418.03 234.57 397.16 213.47" fill="#fff"/><polygon points="397.16 285.03 407.38 275.07 416.78 285.94 439.82 263.47 449.91 274.71 418.03 306.13 397.16 285.03" fill="#fff"/><polygon points="397.16 357.27 407.38 347.31 416.78 358.19 439.82 335.71 449.91 346.95 418.03 378.37 397.16 357.27" fill="#fff"/><polygon points="397.16 428.81 407.38 418.85 416.78 429.73 439.82 407.25 449.91 418.49 418.03 449.91 397.16 428.81" fill="#fff"/></g><rect x="459.2" y="210.68" width="102.31" height="3.93" fill="#fff"/><rect x="459.2" y="217.56" width="81.76" height="3.93" fill="#fff"/><rect x="459.2" y="224.44" width="64.1" height="3.93" fill="#fff"/><rect x="459.2" y="282.23" width="102.31" height="3.93" fill="#fff"/><rect x="459.2" y="289.11" width="81.76" height="3.93" fill="#fff"/><rect x="459.2" y="295.99" width="64.1" height="3.93" fill="#fff"/><rect x="459.2" y="354.48" width="102.31" height="3.93" fill="#fff"/><rect x="459.2" y="361.36" width="81.76" height="3.93" fill="#fff"/><rect x="459.2" y="368.24" width="64.1" height="3.93" fill="#fff"/><rect x="461.5" y="426.02" width="102.31" height="3.93" fill="#fff"/><rect x="461.5" y="432.9" width="81.76" height="3.93" fill="#fff"/><rect x="461.5" y="439.78" width="64.1" height="3.93" fill="#fff"/><path d="M647.84,456.49s2,1,5.51,2.36" fill="none" stroke="#f48225" stroke-miterlimit="10"/><path d="M664.48,462.68c26.15,7.75,74.36,13.29,78.54-49.24" fill="none" stroke="#f48225" stroke-miterlimit="10" stroke-dasharray="11.77 11.77"/><path d="M743.28,407.54q.06-2.91,0-6" fill="none" stroke="#f48225" stroke-miterlimit="10"/></svg>