<svg id="b81bce80-2095-4980-af59-568b6e9f835d" data-name="Layer 1" xmlns="http://www.w3.org/2000/svg" width="865.76" height="682.89" viewBox="0 0 865.76 682.89"><rect x="626.04" y="35.85" width="177.12" height="293.18" fill="#e0e0e0"/><rect x="620.15" y="35.85" width="177.12" height="293.18" fill="#ebebeb"/><rect x="627.7" y="41.81" width="162.03" height="281.29" fill="#fafafa"/><rect x="658.54" y="78.35" width="99.64" height="208.19" fill="#ebebeb"/><path d="M658.54,212.87c-.23-19.44,17.26-38.43,36.51-41.14,9.18-1.34,19,.52,27.52-3,15.32-6.28,20.19-26.63,35.61-32.66l.69,150.47H658.52Z" fill="#e0e0e0"/><path d="M123.85,39.52H336.74a51.58,51.58,0,0,1,51.58,51.58V590.7a61.86,61.86,0,0,1-61.86,61.86H123.85A51.58,51.58,0,0,1,72.28,601V91.09a51.58,51.58,0,0,1,51.58-51.58Z" fill="#686175" data-primary="true"/><rect x="80.38" y="46.92" width="285.38" height="594.15" rx="48.82" fill="#f0f0ff"/><rect x="217.27" y="36.58" width="7.19" height="61.48" rx="3.6" transform="translate(153.55 288.19) rotate(-90)" fill="none" stroke="#123a53" stroke-miterlimit="10"/><rect x="133.15" y="100.12" width="181.02" height="198.49" rx="28.24" fill="#dcdcf9"/><rect x="166.23" y="314.26" width="114.85" height="8.11" rx="4.06" fill="#dcdcf9"/><rect x="183.4" y="331.11" width="80.52" height="8.11" rx="4.06" fill="#dcdcf9"/><path d="M155.25,351.82l3.33,6.74a.67.67,0,0,0,.49.36l7.45,1.08a.66.66,0,0,1,.36,1.12l-5.38,5.25a.63.63,0,0,0-.19.58l1.27,7.41a.66.66,0,0,1-1,.7l-6.65-3.5a.66.66,0,0,0-.61,0l-6.66,3.5a.66.66,0,0,1-.95-.7L148,367a.69.69,0,0,0-.19-.58l-5.39-5.25a.66.66,0,0,1,.37-1.12l7.44-1.08a.65.65,0,0,0,.49-.36l3.33-6.74A.66.66,0,0,1,155.25,351.82Z" fill="#fbb040"/><path d="M189.35,351.82l3.33,6.74a.65.65,0,0,0,.49.36l7.44,1.08a.66.66,0,0,1,.37,1.12l-5.39,5.25a.69.69,0,0,0-.19.58l1.27,7.41a.66.66,0,0,1-.95.7l-6.66-3.5a.66.66,0,0,0-.61,0l-6.65,3.5a.66.66,0,0,1-1-.7l1.27-7.41a.63.63,0,0,0-.19-.58l-5.38-5.25a.66.66,0,0,1,.36-1.12l7.44-1.08a.67.67,0,0,0,.5-.36l3.33-6.74A.66.66,0,0,1,189.35,351.82Z" fill="#fbb040"/><path d="M224.69,351.82l3.33,6.74a.65.65,0,0,0,.49.36L236,360a.66.66,0,0,1,.37,1.12l-5.39,5.25a.69.69,0,0,0-.19.58l1.28,7.41a.67.67,0,0,1-1,.7l-6.65-3.5a.68.68,0,0,0-.62,0l-6.65,3.5a.66.66,0,0,1-1-.7l1.27-7.41a.63.63,0,0,0-.19-.58l-5.38-5.25a.66.66,0,0,1,.36-1.12l7.45-1.08a.65.65,0,0,0,.49-.36l3.33-6.74A.66.66,0,0,1,224.69,351.82Z" fill="#fbb040"/><path d="M258.78,351.82l3.33,6.74a.67.67,0,0,0,.5.36l7.44,1.08a.66.66,0,0,1,.36,1.12L265,366.37a.63.63,0,0,0-.19.58l1.27,7.41a.66.66,0,0,1-.95.7l-6.66-3.5a.66.66,0,0,0-.61,0l-6.66,3.5a.66.66,0,0,1-.95-.7l1.27-7.41a.63.63,0,0,0-.19-.58L246,361.12a.66.66,0,0,1,.36-1.12l7.44-1.08a.67.67,0,0,0,.5-.36l3.32-6.74A.66.66,0,0,1,258.78,351.82Z" fill="#fbb040"/><path d="M292.78,351.82l3.33,6.74a.67.67,0,0,0,.5.36l7.44,1.08a.66.66,0,0,1,.36,1.12L299,366.37a.63.63,0,0,0-.19.58l1.27,7.41a.66.66,0,0,1-.95.7l-6.66-3.5a.66.66,0,0,0-.61,0l-6.66,3.5a.66.66,0,0,1-1-.7l1.27-7.41a.63.63,0,0,0-.19-.58L280,361.12a.66.66,0,0,1,.36-1.12l7.44-1.08a.67.67,0,0,0,.5-.36l3.33-6.74A.65.65,0,0,1,292.78,351.82Z" fill="none" stroke="#fbb040" stroke-miterlimit="10"/><rect x="131.12" y="398.54" width="184.62" height="57.08" rx="28.54" fill="#686175" data-primary="true"/><path d="M182.56,581s1.41-7.4,8.8-7l57.87,0a3,3,0,0,0,2.92-2.32l18-78a4.52,4.52,0,0,1,4.41-3.51h14.72" fill="none" stroke="#123a53" stroke-miterlimit="10"/><path d="M259.89,582.1s-1.76-5.2-8.28-9.3" fill="none" stroke="#123a53" stroke-miterlimit="10"/><circle cx="193.6" cy="583.39" r="5.94" fill="none" stroke="#123a53" stroke-miterlimit="10"/><circle cx="247.52" cy="583.39" r="5.94" fill="none" stroke="#123a53" stroke-miterlimit="10"/><path d="M267.78,504l-12.73,56.37H186a9,9,0,0,1-8.93-7.71l-5.47-37.31A13.73,13.73,0,0,0,184.88,504Z" fill="none" stroke="#123a53" stroke-miterlimit="10"/><path d="M171.35,515.88a14.09,14.09,0,1,1,.26,0Zm0-27.48a13.24,13.24,0,0,0,0,26.48h.23a13.25,13.25,0,0,0,12.81-10.95,13.44,13.44,0,0,0,.2-2.29A13.26,13.26,0,0,0,171.35,488.4Z" fill="#123a53"/><rect x="170.85" y="493.2" width="1" height="15.89" fill="#123a53"/><rect x="163.31" y="501.14" width="16.22" height="1" fill="#123a53"/><line x1="172.88" y1="524.09" x2="263.14" y2="524.09" fill="none" stroke="#123a53" stroke-miterlimit="10"/><line x1="175.44" y1="541.53" x2="259.11" y2="541.53" fill="none" stroke="#123a53" stroke-miterlimit="10"/><line x1="196.66" y1="504.02" x2="196.66" y2="560.39" fill="none" stroke="#123a53" stroke-miterlimit="10"/><line x1="218.96" y1="504.02" x2="218.96" y2="560.39" fill="none" stroke="#123a53" stroke-miterlimit="10"/><line x1="242.86" y1="504.02" x2="242.86" y2="560.39" fill="none" stroke="#123a53" stroke-miterlimit="10"/><path d="M185.81,175h75.54l11.35,49.33a20.6,20.6,0,0,1-20.08,25.22H193.89a20.6,20.6,0,0,1-20-25.47Z" fill="#f48225" data-secondary="true"/><path d="M193.89,249.59s72.08.33,71.75-24.74L261.35,175l11.89,52.12s2,20.12-20.62,22.43Z" opacity="0.2"/><circle cx="293.76" cy="113.23" r="5.03" fill="#f48225" data-secondary="true"/><path d="M200.46,175V160.66A21.71,21.71,0,0,1,222.17,139h0a21.71,21.71,0,0,1,21.72,21.71V174.9" fill="none" stroke="#123a53" stroke-miterlimit="10"/><path d="M331.66,171.16l-20.36-4-.34-1.37,20.37,4.05Zm-16.24-.35,3.25-.82c2.06-.51,3.6.08,4.08,2,.45,1.77-.35,3.14-2.51,3.68l-3.38.85c-2.28.58-3.53-.4-4-2.08S313.28,171.35,315.42,170.81Zm.91,4,3.46-.87c1-.26,1.52-.7,1.32-1.5s-.89-.93-1.91-.67l-3.46.87c-.95.24-1.43.69-1.24,1.44S315.34,175,316.33,174.79Zm6-13.59,3.25-.82c2.06-.52,3.59.08,4.08,2s-.35,3.14-2.52,3.68l-3.38.85c-2.23.56-3.53-.4-3.95-2.09S320.16,161.75,322.37,161.2Zm.91,4,3.45-.86c1-.25,1.53-.71,1.33-1.5s-.9-.93-1.91-.67l-3.49.87c-1,.24-1.41.69-1.22,1.44S322.29,165.42,323.28,165.17Z" fill="#f0f0ff"/><line x1="312.79" y1="144.53" x2="296.76" y2="117.26" fill="#f0f0ff" stroke="#231f20" stroke-miterlimit="10"/><polygon points="670.44 287.92 659.5 287.92 656.85 291.81 662.8 302.15 670.44 302.15 670.44 287.92" fill="#f48225" data-secondary="true"/><polygon points="670.44 287.92 659.5 287.92 656.85 291.81 662.8 302.15 670.44 302.15 670.44 287.92" opacity="0.2"/><ellipse cx="670.44" cy="295.04" rx="4.94" ry="7.11" fill="#f48225" data-secondary="true"/><line x1="685.97" y1="294.19" x2="671.32" y2="294.19" fill="none" stroke="#a7a9ac" stroke-linecap="round" stroke-linejoin="round" stroke-width="3"/><ellipse cx="617.83" cy="487.59" rx="12.36" ry="13.73" transform="translate(-103.23 172.11) rotate(-14.65)" fill="#808285"/><polyline points="504.76 559.92 615.91 485.53 719.83 501.72" fill="none" stroke="#808285" stroke-miterlimit="10" stroke-width="3"/><line x1="521.61" y1="552.04" x2="649.51" y2="461.82" fill="none" stroke="#a7a9ac" stroke-miterlimit="10" stroke-width="3"/><line x1="616.24" y1="533.46" x2="525.62" y2="508.55" fill="none" stroke="#a7a9ac" stroke-miterlimit="10" stroke-width="3"/><line x1="661.16" y1="500.32" x2="585.56" y2="487.59" fill="none" stroke="#a7a9ac" stroke-miterlimit="10" stroke-width="3"/><path d="M412.07,442.38l203.77-98.29,20.55,98.82L479.88,535.66a1.87,1.87,0,0,1-2.47-.51L411.69,443.9A1,1,0,0,1,412.07,442.38Z" fill="none" stroke="#a7a9ac" stroke-miterlimit="10" stroke-width="3"/><line x1="536.87" y1="516.86" x2="452.06" y2="502.04" fill="none" stroke="#bcbec0" stroke-miterlimit="10" stroke-width="3"/><line x1="639.23" y1="412.29" x2="691.91" y2="415.44" fill="none" stroke="#939598" stroke-miterlimit="10" stroke-width="3"/><polygon points="700.75 471.11 640.68 460.22 615.84 344.09 688.23 351.64 700.75 471.11" fill="none" stroke="#939598" stroke-miterlimit="10" stroke-width="3"/><line x1="525.62" y1="387.61" x2="578.72" y2="490.06" fill="none" stroke="#a7a9ac" stroke-miterlimit="10" stroke-width="3"/><line x1="525.62" y1="508.55" x2="467.55" y2="415.62" fill="none" stroke="#a7a9ac" stroke-miterlimit="10" stroke-width="3"/><line x1="515.64" y1="549.9" x2="456.93" y2="454.18" fill="none" stroke="#bcbec0" stroke-miterlimit="10" stroke-width="3"/><path d="M504.76,463.23l-92.47-20a.52.52,0,0,0-.53.8l65.3,90.66a7.41,7.41,0,0,0,3.52,2.65L568,568.67a.14.14,0,0,0,.16-.21Z" fill="none" stroke="#bcbec0" stroke-miterlimit="10" stroke-width="3"/><path d="M555,318.75l1.59,34.2h16.18s-5.71,26,10.79,45.38h50.78S649.22,395,645,363.71c-.52-3.84-.92-7.69-1.06-11.56l-.09-2.7,19.36,12.06s9.84-7.93,17.45-31.1c0,0-31.27-25.12-59-25.46l-25.32,4.2Z" fill="#f48225" data-secondary="true"/><path d="M618.11,285.59,621.63,305a61.51,61.51,0,0,1,18.51,3.54s2.73-10.71-7.18-19.57C633,288.92,625.7,283.66,618.11,285.59Z" fill="#123a53"/><path d="M618.11,285.59,621.63,305a61.51,61.51,0,0,1,18.51,3.54s2.73-10.71-7.18-19.57C633,288.92,625.7,283.66,618.11,285.59Z" opacity="0.2"/><path d="M596.93,302s-2.43,12.21,2.33,15.54c0,0,8.81,6.9,22.37-12.61L618.11,284,609,277.35Z" fill="#ffad95"/><path d="M565.27,316.36s.54-16.25,9.16-22.54c0,0-15.12-17.07.68-41.32l1.51,1.59L596.93,302a29.56,29.56,0,0,0-.62,7.13Z" fill="#123a53"/><path d="M596.31,309.15a30.44,30.44,0,0,1,.62-7.13l15.82-15.62S615.88,303.53,596.31,309.15Z" fill="#e37961"/><ellipse cx="595.13" cy="268.93" rx="20.7" ry="33.22" fill="#ffad95"/><path d="M606.92,260.77s-31,2.47-34.17-13.35a11.18,11.18,0,0,1,1.57-8c3.35-5.45,12.18-14.2,32.6-7a48.77,48.77,0,0,1,15,11.77,13.47,13.47,0,0,1,1.46,2.06c1.07,1.79,4,5.71,10.51,8.47,0,0,18.1,8.13,15,29.37,0,0,21.24-1.05,18.36,25.18,0,0-1.63,7-6.19,8.47,0,0-14.49-7.45-20.91-9.27,0,0,2.81-19.59-22-22.9V273.74S610.32,271,606.92,260.77Z" fill="#123a53"/><ellipse cx="618.11" cy="277.35" rx="8.42" ry="5.46" transform="translate(236.25 836.97) rotate(-79.86)" fill="#ffad95"/><path d="M583.55,398.33a121.69,121.69,0,0,1-26.15,27.93l-54.82-25.91c-25.45-18.29-39.36-17.49-39.36-17.49l-60.42-9.94L396,417l15.5,3.58-.4-2.78,40.95,4.77,51.28,31.8s14.93,27.74,52.73,42.78c22.91,9.12,49.41-2.35,56.67-25.92.26-.82.49-1.67.72-2.55l-9.15-70.39Z" fill="#686175" data-primary="true"/><path d="M583.55,398.33a121.69,121.69,0,0,1-26.15,27.93l-54.82-25.91c-25.45-18.29-39.36-17.49-39.36-17.49l-60.42-9.94L396,417l15.5,3.58-.4-2.78,40.95,4.77,51.28,31.8s14.93,27.74,52.73,42.78c22.91,9.12,49.41-2.35,56.67-25.92.26-.82.49-1.67.72-2.55l-9.15-70.39Z" opacity="0.2"/><path d="M593,422.49l7.79-24.16h33.57s33.62,40.18,7.78,79.14c0,0-29,40.15-106.54,0,0,0-32.2-16.78-48.1-30.65,0,0-1.59,60.86-15.11,85.9,0,0-29-5.56-50.48-19.08,0,0,17.49-40.94,22.26-79.9,0,0-1.59-31.4,29-26.63,0,0,46.53,3.51,117.48,16.76A2.05,2.05,0,0,0,593,422.49Z" fill="#686175" data-primary="true"/><polygon points="504.76 463.23 568.32 568.8 700.75 471.11 688.23 351.64 504.76 463.23" fill="none" stroke="#d1d3d4" stroke-miterlimit="10" stroke-width="3"/><path d="M434.59,289l-9.41,4.56,25.65,92,22.23-8.17a121.47,121.47,0,0,0-19.92-38.42S441.43,326,434.59,289Z" fill="#00aeef"/><path d="M434.59,289l-9.41,4.56,25.65,92,22.23-8.17a121.47,121.47,0,0,0-19.92-38.42S441.43,326,434.59,289Z" opacity="0.2"/><ellipse cx="724.04" cy="509.45" rx="15.55" ry="19.4" transform="translate(-105.31 199.68) rotate(-14.65)" fill="#808285"/><path d="M692,391.8s35.75,88.5,38.1,107.26c0,0,24-18.17,41-22.86,0,0,27.84-7.91,32.24-13.77,0,0-45.13-66.82-52.16-97L738,372.92s-10.37-22.69-32.68-28.83c0,0-2.3,5.37-9.13,3.39,0,0-8.38,17.81-1.56,42.86Z" fill="#00aeef"/><path d="M782.89,279s2.8,2,4.63,7.28l6.71-2.3-3.63-5.85Z" fill="#a98c5d"/><rect x="371.05" y="203.84" width="7.19" height="71.14" rx="3.6" fill="#f0f0ff"/><rect x="371.05" y="144.27" width="7.19" height="46.27" rx="3.6" fill="#f0f0ff"/><path d="M332,171.62l-11.21-30.27a13.23,13.23,0,0,0-17.92-7.43h0A13.25,13.25,0,0,0,296,150.5l11.19,30.55a4.05,4.05,0,0,0,5.27,2.39l17.23-6.61A4.06,4.06,0,0,0,332,171.62Zm-24.38-26a3.83,3.83,0,1,1,3.83-3.82A3.82,3.82,0,0,1,307.66,145.66Z" fill="#00aeef"/><path d="M363,368s17.73,10.4,39.14,9.39L398.18,403s-11.51-9.81-30.46-12.18c0,0,3.42-3.42-3.42-9.47C364.3,381.39,358.77,374.54,363,368Z" fill="#ffad95"/><path d="M367.72,390.87l-7.91,5.53c-.88-2.22-3.11-4.2-4.86-5.51a71.81,71.81,0,0,1-7.18-5.87c-9.35-8.82-20.06-20.48-20.06-20.48-12-11.75-19.08-13.42-20.88-13.64a.39.39,0,0,1-.31-.49c3.64-11,46.21,13.6,46.21,13.6C365.61,361.92,363,368,363,368c-3.95,6.31,1.31,13.42,1.31,13.42C370.88,386.64,367.72,390.87,367.72,390.87Z" fill="#f48225" data-secondary="true"/><path d="M359.81,396.4c-3.15,9.19-42.89-32.64-42.89-32.64-14.2-12.1-10.4-13.35-10.4-13.35a.39.39,0,0,0,.31.49c1.8.22,8.91,1.89,20.88,13.64,0,0,10.71,11.66,20.06,20.48a71.81,71.81,0,0,0,7.18,5.87C356.7,392.2,358.93,394.18,359.81,396.4Z" fill="#123a53"/><path d="M427.4,516.86S421.9,545.6,411,560.17c0,0,7.51.4,9.3,5.62a3.89,3.89,0,0,0,1.24,1.92c1.73,1.32,5.57,2.79,10.39-4.36,0,0-1.37-2.5,2.73-9.1,0,0,11.4-21.68,17.42-27C452.06,527.26,437.68,522.48,427.4,516.86Z" fill="#ffad95"/><path d="M436,572.67,406.42,603a72.17,72.17,0,0,1-14.77,12.37l-.11,0a32,32,0,0,1-7.62,3.46,5.78,5.78,0,0,1-6-1.62c-6.55-7.84,13.71-27.92,13.71-27.92,6.15-5.91,11.15-20.48,11.15-20.48,1.15-11.16,8.2-8.65,8.2-8.65,8.64.47,10.55,7.56,10.55,7.56,5.31,4.13,10.37-4.38,10.37-4.38C436.68,566.07,436,572.67,436,572.67Z" fill="#f48225" data-secondary="true"/><path d="M436,575.4a4.15,4.15,0,0,1-1.06,2.8c-5.13,5.69-27.93,30.37-43.32,37.12A72.17,72.17,0,0,0,406.42,603L436,572.67Z" fill="#123a53"/><path d="M434.59,289s5.29,32.49,17.18,50.45c0,0,13.88,19.66,21.29,37.9l57.43-25.61a3.37,3.37,0,0,0,1.61-4.65L489.31,265.6Z" fill="#00aeef"/><path d="M479.81,269.66s-9.11-12-16.76-17.16l2.3,8.18s6.2,7.11,8.15,11.67Z" fill="#f3e4cd"/><line x1="616.24" y1="533.46" x2="571.87" y2="422.41" fill="none" stroke="#d1d3d4" stroke-miterlimit="10" stroke-width="3"/><line x1="632.55" y1="385.5" x2="661.16" y2="500.32" fill="none" stroke="#d1d3d4" stroke-miterlimit="10" stroke-width="3"/><line x1="694.94" y1="415.62" x2="536.87" y2="516.86" fill="none" stroke="#d1d3d4" stroke-miterlimit="10" stroke-width="3"/><line x1="494.47" y1="564.49" x2="590.59" y2="600.44" fill="none" stroke="#808285" stroke-miterlimit="10" stroke-width="3"/><line x1="602.76" y1="596.34" x2="711.65" y2="508.55" fill="none" stroke="#808285" stroke-miterlimit="10" stroke-width="3"/><ellipse cx="600.73" cy="606.4" rx="15.55" ry="19.4" transform="translate(-133.84 171.65) rotate(-14.65)" fill="#808285"/><ellipse cx="495.46" cy="565.52" rx="12.36" ry="13.73" transform="translate(-126.92 143.7) rotate(-14.65)" fill="#808285"/><path d="M697.57,272.73s-23.74,17.09-9.34,78.91" fill="none" stroke="#d1d3d4" stroke-linecap="round" stroke-linejoin="round" stroke-width="3"/><path d="M665.49,359.22s39.64,31.84,49.43,16.29c0,0,30.24-54.72,42.05-89.57,0,0,7.77,1.15,25.92-6.91,0,0,21.54-.32,16.7-5.19,0,0,5.63,1.67,6.9-1,0,0,1.27-2.54-4.6-2.38,0,0,6.67.8,6.67-2.06,0,0,1-2.7-5.72-2.38,0,0,4.76-4-3.33-4.13,0,0-10.15-1.58-30.15,0,0,0-.7-1.63,1-4.49a14,14,0,0,0,2.07-5.67c.22-2.09-.1-4.31-2.25-4.87a1.16,1.16,0,0,0-.37,0c-.86.1-4.27.87-4.41,7a13,13,0,0,1-7.3,9.52s-8.25,5.24-9.21,12.22c0,0-8.72,6.47-17.77,26.64l-25.78,41.94a7.73,7.73,0,0,1-6.71,3.7,7.83,7.83,0,0,1-5.11-1.67L679.1,334.88S675.79,346.38,665.49,359.22Z" fill="#ffad95"/><path d="M677.65,396.49A77.28,77.28,0,0,0,692,391.8l19.69,50s15.48,39.67,18.41,57.26c0,0-32.53,11.42-36.34-5.87,0,0-2-2.93-4.39-33.4,0,0-2.64-18.17-6.74-30.77C682.64,429,678.24,417,677.65,396.49Z" fill="#00aeef"/><path d="M677.65,396.49A77.28,77.28,0,0,0,692,391.8l19.69,50s15.48,39.67,18.41,57.26c0,0-32.53,11.42-36.34-5.87,0,0-2-2.93-4.39-33.4,0,0-2.64-18.17-6.74-30.77C682.64,429,678.24,417,677.65,396.49Z" fill="#fff" opacity="0.2"/><path d="M730.11,370.13,723,360.51l2.44-4.69a58.07,58.07,0,0,1,9.81,11.82Z" fill="#f3e4cd"/><path d="M762.07,297.11l9.37-5.3s.61,10.59,14.46,28.92c0,0,14.05,19.75,13.23,29.32l-16.77,8.31a1.73,1.73,0,0,1-2.4-1C777.33,350,767.51,321.83,762.07,297.11Z" fill="#f48225" data-secondary="true"/><path d="M762.07,297.11l9.37-5.3s.61,10.59,14.46,28.92c0,0,14.05,19.75,13.23,29.32l-16.77,8.31a1.73,1.73,0,0,1-2.4-1C777.33,350,767.51,321.83,762.07,297.11Z" fill="#fff" opacity="0.2"/><path d="M771.44,291.81l30.34-10.38a197.62,197.62,0,0,1,28.31,52.33s-18.53,13.24-31,16.29c0,0,0-11.51-14.85-31.51C784.28,318.54,772.46,302.6,771.44,291.81Z" fill="#f48225" data-secondary="true"/><path d="M767.24,294.19s-4.84-18.9,2.12-32.33a5.67,5.67,0,0,1,3.18-.23s-2.12,18-1.1,30.18Z" fill="#a98c5d"/><path d="M727.31,451l-6.82,3.17L696,389.58l4.18-2.34s2.69,11.45,11.48,31.24Z" fill="#686175" data-primary="true"/><path d="M727.31,451l-6.82,3.17L696,389.58l4.18-2.34s2.69,11.45,11.48,31.24Z" fill="#fff" opacity="0.2"/><path d="M555.09,320.91H541.57s-44.9-28.25-67.9-48.18c0,0-4.6-2.2-8.32-12.05,0,0-5.92-29.35-18.18-20.37,0,0-12.27,2.63-9.42,10.95,0,0-7.45-2-7.66,1.53,0,0,.21,5,12.92,5.92,0,0-2,5,12,12.48a593.45,593.45,0,0,0,67.68,65.71s5.26,5.47,20.59,5l12.75,0ZM451.61,253.76s-2.19,3.82-6.23,2.09a5.35,5.35,0,0,1-3.24-5.44,3.6,3.6,0,0,1,3.68-3.53S452.92,249.17,451.61,253.76Z" fill="#ffad95"/><path d="M440.82,286.31s-5.66-27.75,8.3-37.77a6.07,6.07,0,0,1,1.69,1.54,5.74,5.74,0,0,1,.8,1.51,29,29,0,0,0-3.88,8c-1.54,5.27-2.27,13.11.94,23.39Z" fill="#f3e4cd"/><path d="M703.88,385.15s-9.31-23-5.25-37.36l-2.42-.31s-8.52,17-1.56,42.86Z" fill="#f3e4cd"/><polygon points="730.11 370.13 722.95 360.51 721.65 362.97 727.29 371.92 730.11 370.13" fill="#686175" data-primary="true"/><path d="M727.31,451s-23.18-44.56-27.14-63.77l5.46-2.93a60.25,60.25,0,0,1-7.73-36.83h3.68s-2.83,20.25,7.48,35.17l21.05-12.52,5.09-2.49s2.27-3.27,6.39,5.14c5.62,7.68,11.43,16.35,17.14,26,5.38,9.11,9.94,17.85,13.81,26C768.56,427.82,764.28,430.84,727.31,451Z" fill="#686175" data-primary="true"/><path d="M345.28,81.61,466,52.31a8.81,8.81,0,0,1,10.6,6.4L507,183.81a8.81,8.81,0,0,1-6.4,10.6l-120.7,29.3a8.81,8.81,0,0,1-10.6-6.4l-30.4-125.1A8.77,8.77,0,0,1,345.28,81.61Z" fill="#e0e0e0"/><path d="M457.38,158.91a.77.77,0,0,0-.3.1l-.8.2-3.1.8-11.6,2.9-39,9.6-.3.1-.1-.3-2.5-6.2c-7.2-18.3-13.6-34.6-17.8-45.2l.2.1-10.4,2.4-2.8.6-.7.2H368a.31.31,0,0,0,.2-.1l.7-.2,2.7-.7,10.4-2.6h.2l.1.2,18,45.2c.9,2.1,1.7,4.2,2.5,6.2l-.4-.2,39-9.4,11.6-2.7,3.1-.7.8-.2Z" fill="#fff"/><path d="M398.18,161.21l.3-.1.8-.2,3.1-.8,11.7-2.9,40.4-9.9-.2.3c-.5-7.1-1-14.8-1.5-22.7-.2-4.1-.5-8.1-.8-11.9l.4.3-47.7,11.5-14.1,3.3-3.8.9-1,.2c-.1,0-.2.1-.3.1.1,0,.2-.1.3-.1l1-.3,3.8-1,14.1-3.5,47.6-11.7.4-.1v.4c.2,3.8.5,7.8.8,11.9.5,7.9,1,15.6,1.4,22.7v.3l-.2.1-40.5,9.8-11.8,2.8-3.1.7-.8.2C398.38,161.21,398.28,161.21,398.18,161.21Z" fill="#fff"/><path d="M419.88,183.71c-.1,0-.2-.5-.6-1.2a5.72,5.72,0,0,0-2.7-2.4,5.4,5.4,0,1,0,1.9,8.4,5.33,5.33,0,0,0,1.3-3.4c.1-.9,0-1.4.1-1.4s0,.1.1.4a3.4,3.4,0,0,1,.1,1,5.75,5.75,0,0,1-6.4,5.8,6,6,0,0,1-5.3-6.5,6.11,6.11,0,0,1,2.7-4.4,5.62,5.62,0,0,1,5.6-.4,5.09,5.09,0,0,1,2.7,2.7,4.18,4.18,0,0,1,.4,1A1.58,1.58,0,0,1,419.88,183.71Z" fill="#fff"/><path d="M455.18,175.21c-.1,0-.2-.5-.6-1.2a5.72,5.72,0,0,0-2.7-2.4,5.29,5.29,0,0,0-7,2.8,5.33,5.33,0,0,0,9,5.5,5.69,5.69,0,0,0,1.3-3.4c0-.8-.1-1.3,0-1.3s.1.1.1.3a3.4,3.4,0,0,1,.1,1,5.93,5.93,0,0,1-6.5,5.9,6,6,0,0,1-5.3-6.5,6.11,6.11,0,0,1,2.7-4.4,5.86,5.86,0,0,1,8.4,2.3,1.93,1.93,0,0,1,.3,1A.62.62,0,0,1,455.18,175.21Z" fill="#fff"/><path d="M463.68,104.21a16.06,16.06,0,1,1-19.4-11.8h0a16.08,16.08,0,0,1,19.4,11.8Z" fill="#fff"/><path d="M454.88,102a16.81,16.81,0,0,1-1.5,3c-1,1.8-2.3,4.3-3.9,7l-1.7,2.9-.1.2-.3-.1c-2-1.1-3.8-2-5-2.7a7.61,7.61,0,0,1-1.9-1.2,9.49,9.49,0,0,1,2.1.9c1.3.6,3.1,1.5,5.1,2.5l-.4.1c.5-.9,1.1-1.9,1.6-2.9,1.5-2.7,3-5.2,4.1-6.9A27.5,27.5,0,0,1,454.88,102Z" fill="#e0e0e0"/></svg>