<svg id="aeeb16bf-f3e1-46a7-b22e-aed62138383d" data-name="Layer 1" xmlns="http://www.w3.org/2000/svg" xmlns:xlink="http://www.w3.org/1999/xlink" width="865.76" height="682.89" viewBox="0 0 865.76 682.89"><defs><clipPath id="f9e5a813-a1cb-4af4-b3f9-6838de15bcd0"><path id="a8dc3632-a664-4876-826a-2528579c6ff7" data-name="SVGID" d="M186.28,414.66s12.61,26.93,12.61,28.35-11.19,7.51-13.32,8.79a54.06,54.06,0,0,1-5.11,2.55l1.28,12.47S201,462.43,209.09,458s7.8-9.36,5.93-16.73-14.32-35.84-14.32-35.84Z" fill="#f7ab94"/></clipPath><clipPath id="aa31dee3-b6de-4af7-bbfe-428d1200e6ea"><path id="eb236125-1e82-45a8-9149-7167069bb4c0" data-name="SVGID" d="M95.3,408.71s-9.21,33.73-9.48,39.69,18.28,17.71,19,18.42-1-20.49-1-20.49l6.29-30.8Z" fill="#f7ab94"/></clipPath></defs><path d="M188.29,511.72l.32,115a1.08,1.08,0,0,1-.92,1.18h0a1.06,1.06,0,0,1-.91-1.18l-2.2-114.91Z" fill="#ccc"/><path d="M185.91,516l.37,131.79a1.29,1.29,0,0,1-1.08,1.41h0a1.29,1.29,0,0,1-1.09-1.36l-2.57-131.68Z" fill="#ccc"/><ellipse cx="144.81" cy="513.14" rx="52.72" ry="12.05" fill="#a7a9ac"/><path d="M154.68,507.61a24.8,24.8,0,0,0-4.33,7.11,65.74,65.74,0,0,0-2,8.29,77.35,77.35,0,0,1,11,4c6.33,2.76,17,4.74,27.25,7.11s13,4.73,16.58,4.73,7.91-2.77,13.44-9.47.78-20.94-4.74-25.28-35.15-7.89-39.09-6.71S154.68,507.61,154.68,507.61Z" fill="#f48225" data-secondary="true"/><path d="M739.17,533S714.81,317.71,576.55,125.62c0,0-85.38-145.7-246.85-90,0,0-64.95,17.63-119.71,79.81l6.5,3.71S316.71,10.55,431.78,35.6c0,0,88-3.8,164.25,129,0,0,119.71,197.66,135.49,368.41Z" fill="#939598"/><path d="M266.6,255.53l-200.44-90S139.21,74,212.49,116.84C212.49,116.84,266.77,144.8,266.6,255.53Z" fill="#a7a9ac"/><path d="M201.73,226.4s-13.26,23-44.87,13.37c-13.92-4.25-25.18-14.86-29.18-28.85a45.63,45.63,0,0,1-1.3-18.35Z" fill="#ccc"/><polygon points="498.54 546.66 587.08 545.68 578.33 478.01 505.79 478.82 498.54 546.66" fill="#c4c6c6"/><g opacity="0.14"><polygon points="580.85 496.74 504.22 493.48 502.1 513.4 580.85 496.74"/></g><rect x="309.26" y="157.28" width="466.35" height="339.47" rx="5.46" fill="#ccc"/><path d="M775.61,163.94V454.75H309.26V163.94a7.18,7.18,0,0,1,7.17-7.18h452A7.18,7.18,0,0,1,775.61,163.94Z" fill="#a7a9ac"/><rect x="321.55" y="170.38" width="441.76" height="268.52" fill="#ccc"/><rect x="472.47" y="537.34" width="139.93" height="24.41" transform="translate(1084.87 1099.1) rotate(-180)" fill="#ccd1d1"/><rect x="349.41" y="186.48" width="125.94" height="244.28" transform="translate(824.76 617.23) rotate(-180)" fill="#f6f6f6"/><rect x="500.12" y="181.08" width="246.82" height="246.82" transform="translate(1247.06 608.97) rotate(-180)" fill="#f6f6f6"/><ellipse cx="410.88" cy="225.69" rx="28.82" ry="27.64" fill="#bcbec0"/><rect x="361.81" y="272.65" width="93.88" height="9.33" transform="translate(817.5 554.64) rotate(-180)" fill="#ccc"/><rect x="361.81" y="298.23" width="93.88" height="9.33" transform="translate(817.5 605.79) rotate(-180)" fill="#ccc"/><rect x="361.81" y="321.64" width="93.88" height="9.33" transform="translate(817.5 652.62) rotate(-180)" fill="#ccc"/><rect x="361.81" y="347.22" width="93.88" height="9.33" transform="translate(817.5 703.77) rotate(-180)" fill="#ccc"/><rect x="361.81" y="399.67" width="93.88" height="9.33" transform="translate(817.5 808.66) rotate(-180)" fill="#ccc"/><rect x="518.96" y="277.71" width="209.14" height="8.26" transform="translate(1247.06 563.68) rotate(-180)" fill="#ccc"/><rect x="518.96" y="300.35" width="209.14" height="8.26" transform="translate(1247.06 608.97) rotate(-180)" fill="#ccc"/><rect x="518.96" y="321.08" width="209.14" height="8.26" transform="translate(1247.06 650.43) rotate(-180)" fill="#ccc"/><rect x="601.4" y="343.73" width="126.7" height="8.26" transform="translate(1329.5 695.72) rotate(-180)" fill="#ccc"/><rect x="601.4" y="367.52" width="126.7" height="8.26" transform="translate(1329.5 743.3) rotate(-180)" fill="#ccc"/><rect x="601.4" y="390.16" width="126.7" height="8.26" transform="translate(1329.5 788.59) rotate(-180)" fill="#ccc"/><g opacity="0.19"><rect x="468.76" y="191.35" width="259.11" height="100.99" transform="translate(1196.63 483.7) rotate(-180)" fill="#59595b"/></g><rect x="450.34" y="184.45" width="286.36" height="100.99" transform="translate(1187.04 469.9) rotate(-180)" fill="#a7a9ac"/><rect x="518.96" y="338.34" width="72.49" height="60.67" transform="translate(1110.4 737.35) rotate(-180)" fill="#ccc"/><path d="M496.29,212.17q7.77,0,12.54,5.12l-1.09,1.86a18.9,18.9,0,0,0-5.41-3.68,15.74,15.74,0,0,0-6.09-1.12q-6.74,0-10.42,4.54t-3.68,12.74q0,8.16,3.71,12.67t10.39,4.5a15.56,15.56,0,0,0,6.09-1.12,18.5,18.5,0,0,0,5.41-3.68l1.09,1.87A16.35,16.35,0,0,1,496.29,251a16,16,0,0,1-8.76-2.32,15.1,15.1,0,0,1-5.67-6.67,24.66,24.66,0,0,1-2-10.37,25,25,0,0,1,2-10.42,15,15,0,0,1,5.67-6.72A16,16,0,0,1,496.29,212.17Z" fill="#fff"/><path d="M530.91,212.17a15.68,15.68,0,0,1,8.63,2.34,15,15,0,0,1,5.59,6.75,25.42,25.42,0,0,1,2,10.37,25.07,25.07,0,0,1-2,10.32,14.93,14.93,0,0,1-5.59,6.69,15.6,15.6,0,0,1-8.63,2.35,15.41,15.41,0,0,1-8.6-2.35,15,15,0,0,1-5.58-6.72,28.55,28.55,0,0,1,0-20.69,15.09,15.09,0,0,1,5.6-6.72A15.58,15.58,0,0,1,530.91,212.17Zm0,2.18q-6.52,0-10.16,4.56t-3.63,12.72q0,8.16,3.6,12.67t10.19,4.5q6.58,0,10.18-4.48t3.6-12.69q0-8.2-3.62-12.74T530.91,214.35Z" fill="#fff"/><path d="M581.85,212.59h2v38h-1.76l-24.46-34.18v34.18h-2v-38h1.81l24.41,34.08Z" fill="#fff"/><path d="M603.15,250.56V214.62H589.52v-2h29.33v2H605.27v35.94Z" fill="#fff"/><path d="M646.68,212.59v2.08h-20v16.11h19v2.13h-19v15.57h20v2.08H624.5v-38Z" fill="#fff"/><path d="M680.88,212.59h2v38h-1.76l-24.46-34.18v34.18h-2v-38h1.81l24.41,34.08Z" fill="#fff"/><path d="M702.18,250.56V214.62H688.55v-2h29.34v2H704.31v35.94Z" fill="#fff"/><g opacity="0.2"><polygon points="591.45 399.67 573.35 371.65 549.75 399.67 591.45 399.67" fill="#2f2e41"/><polygon points="560.65 399.67 539.8 361.55 518.96 399.67 560.65 399.67" fill="#2f2e41"/><circle cx="558.96" cy="360.66" r="5.82" transform="translate(-91.31 500.88) rotate(-45)" fill="#2f2e41"/></g><path d="M186.28,414.66s12.61,26.93,12.61,28.35-11.19,7.51-13.32,8.79a54.06,54.06,0,0,1-5.11,2.55l1.28,12.47S201,462.43,209.09,458s7.8-9.36,5.93-16.73-14.32-35.84-14.32-35.84Z" fill="#f9b499"/><g style="isolation:isolate"><path id="f991ac69-e486-488a-bb8f-bd2aec5d704e" data-name="SVGID" d="M186.28,414.66s12.61,26.93,12.61,28.35-11.19,7.51-13.32,8.79a54.06,54.06,0,0,1-5.11,2.55l1.28,12.47S201,462.43,209.09,458s7.8-9.36,5.93-16.73-14.32-35.84-14.32-35.84Z" fill="#f7ab94"/><g clip-path="url(#f9e5a813-a1cb-4af4-b3f9-6838de15bcd0)"><path d="M209.06,458c8.08-4.39,7.79-9.36,5.92-16.73s-14.32-35.84-14.32-35.84l-2,1.28-.64,1.18s11.62,28.53,12.32,38c.47,6.38-12.38,14.34-20.88,18.89C195.76,463.17,204.33,460.6,209.06,458Z" fill="#f7ab94" opacity="0.5" style="isolation:isolate"/></g></g><g opacity="0.5" style="isolation:isolate"><path id="fcd549e8-a3ad-4dc9-87a7-9e6f1f4ded1c" data-name="SVGID" d="M95.3,408.71s-9.21,33.73-9.48,39.69,18.28,17.71,19,18.42-1-20.49-1-20.49l6.29-30.8Z" fill="#f7ab94"/><g clip-path="url(#aa31dee3-b6de-4af7-bbfe-428d1200e6ea)"><path d="M99.51,411.47l-.2-.91-4-1.85s-9.21,33.73-9.48,39.69,18.28,17.71,19,18.42c.28.29.17-2.89-.06-6.81-5.52-4.68-13.44-11.27-14.37-14" fill="#f7ab94" opacity="0.5" style="isolation:isolate"/></g></g><path d="M95.25,408.71S86,442.44,85.77,448.4s18.28,17.71,19,18.42-1.06-20.49-1.06-20.49l6.29-30.8Z" fill="#f9b499"/><path d="M138.48,374.83s-3.56,2.56-10.49,2.85-7.26-4.74-15.87-4.74c-10.44,0-23.53,33-23.53,33s6.52,6.39,12.9,9.08a45.87,45.87,0,0,0,11.05,3.26l1,21.69h70.3l.84-21.69,22-14.26s-10.78-19.27-16-26.5-14-4.53-16.73-2.7-10.66,2.28-13.6,1.85A117.62,117.62,0,0,1,149,373.56S144.44,369.8,138.48,374.83Z" fill="#686175" data-primary="true"/><g opacity="0.2"><path d="M113,418.65h0a.16.16,0,0,1-.16-.16l.28-36a.16.16,0,0,1,.16-.16h0a.17.17,0,0,1,.16.17l-.29,36A.16.16,0,0,1,113,418.65Z"/></g><g opacity="0.2"><path d="M120.54,413.27a.15.15,0,0,1-.15-.1c-3.71-9.7-4.74-27.23-4.75-27.41a.16.16,0,0,1,.15-.17.18.18,0,0,1,.17.16c0,.17,1,17.65,4.73,27.3a.16.16,0,0,1-.09.21Z"/></g><g opacity="0.2"><path d="M124.17,421.62a.18.18,0,0,1-.15-.08,49.19,49.19,0,0,1-3-7,.16.16,0,1,1,.31-.1,48.49,48.49,0,0,0,3,6.92.16.16,0,0,1-.07.21A.1.1,0,0,1,124.17,421.62Z"/></g><g opacity="0.2"><path d="M123.74,402.63a.15.15,0,0,1-.15-.1,113.32,113.32,0,0,1-5.69-18.73.16.16,0,0,1,.13-.19.15.15,0,0,1,.19.12,112.7,112.7,0,0,0,5.67,18.68.17.17,0,0,1-.09.21Z"/></g><g opacity="0.2"><path d="M172.78,407.18h-.07a.16.16,0,0,1-.07-.22c2.94-6.16,6.34-20,6.37-20.11a.16.16,0,1,1,.32.08c0,.14-3.44,14-6.4,20.17A.16.16,0,0,1,172.78,407.18Z"/></g><g opacity="0.2"><path d="M184.68,418.51a.16.16,0,0,1-.16-.16l-.15-28.07a.17.17,0,0,1,.17-.16h0a.16.16,0,0,1,.16.16l.14,28.06a.17.17,0,0,1-.16.17Z"/></g><g opacity="0.2"><path d="M174.34,418.08a.14.14,0,0,1-.09,0,.15.15,0,0,1-.05-.22c6.14-9.16,8.74-26.83,8.77-27a.15.15,0,0,1,.18-.14.16.16,0,0,1,.14.18c0,.18-2.64,17.92-8.82,27.14A.15.15,0,0,1,174.34,418.08Z"/></g><g opacity="0.2"><path d="M175.19,422.76a.14.14,0,0,1-.09,0,.15.15,0,0,1,0-.23c1.95-2.79,4.78-8.15,4.81-8.2a.16.16,0,0,1,.22-.07.15.15,0,0,1,.06.22c0,.06-2.87,5.43-4.83,8.24A.15.15,0,0,1,175.19,422.76Z"/></g><g opacity="0.2"><path d="M147.76,402c-3.11,0-6.39-1.73-8.58-6.55-2.81-6.18-4.81-18.34-4.83-18.46a.16.16,0,0,1,.13-.19.17.17,0,0,1,.19.14c0,.12,2,12.24,4.81,18.38,3,6.6,8.08,7.21,11.83,5.59,4.31-1.86,7.26-11.26,7-22.35a.17.17,0,0,1,.33,0c.25,11.4-2.71,20.72-7.21,22.66A9.38,9.38,0,0,1,147.76,402Z"/></g><path d="M137.2,373.85a153.31,153.31,0,0,0,5.1,17.85c2.56,6.38,7.37,6.38,9.36,2.26s3.26-19.42,3.26-19.42S141.59,376.4,137.2,373.85Z" fill="#f9b499"/><path d="M47.23,476.22l-.58,143.61a1.71,1.71,0,0,0,1.71,1.71h0a1.69,1.69,0,0,0,1.69-1.65l4.1-143.47Z" fill="#ccc"/><path d="M37.57,509.79,37,658.27a1.69,1.69,0,0,0,1.68,1.7h0a1.7,1.7,0,0,0,1.7-1.63L44.51,510Z" fill="#ccc"/><path d="M245.78,476.22l.58,143.61a1.69,1.69,0,0,1-1.68,1.71h0a1.72,1.72,0,0,1-1.71-1.65l-4.08-143.47Z" fill="#ccc"/><path d="M255.46,509.79,256,658.27a1.69,1.69,0,0,1-1.68,1.7h0a1.7,1.7,0,0,1-1.7-1.63L248.54,510Z" fill="#ccc"/><path d="M104.88,516l-.34,131.79a1.28,1.28,0,0,0,1.07,1.41h0a1.27,1.27,0,0,0,1.09-1.36l2.57-131.68Z" fill="#ccc"/><path d="M103.59,511.72l.32,115a1.09,1.09,0,0,1-.93,1.18h0a1.07,1.07,0,0,1-.91-1.18L99.88,511.82Z" fill="#ccc"/><path d="M119.14,615.42s-2.76,4-.78,5.92,4,1.18,3.74,3.16-3.35,8.69-6.11,15.79,3,14.22,8.29,12.25,4.74-21.72,5.52-25.28,1.39-4.14,1.19-7.5-.39-6.9-3-7.31S120.33,614,119.14,615.42Z" fill="#2f2e41"/><path d="M119.14,615.42s-2.76,4-.78,5.92,4,1.18,3.74,3.16-3.35,8.69-6.11,15.79,3,14.22,8.29,12.25,4.74-21.72,5.52-25.28,1.39-4.14,1.19-7.5-.39-6.9-3-7.31S120.33,614,119.14,615.42Z" opacity="0.3"/><path d="M127.61,647.09c-3.55-1.35-9-1.07-12.07-.77,1,4.47,5,7.61,8.74,6.22C125.86,652,126.89,649.85,127.61,647.09Z" fill="#fff" opacity="0.4"/><path d="M113,606.73s5.72,9.68,7.3,12.24,6.92,1.78,7.51-1.78-2.18-13.42-2.18-13.42l-11.85,3Z" fill="#f9b499"/><path d="M99.41,591.33s-1.59,2.57-.8,4.35,3,6.91,4.35,9.48,7.7,4.14,15,3,11.45-4.55,11.66-7.51-1.19-6.91-2.18-11.65-3.56-4.54-7.11-4.54S102.37,588.57,99.41,591.33Z" fill="#f48225" data-secondary="true"/><path d="M99.41,591.33s-1.59,2.57-.8,4.35,3,6.91,4.35,9.48,7.7,4.14,15,3,11.45-4.55,11.66-7.51-1.19-6.91-2.18-11.65-3.56-4.54-7.11-4.54S102.37,588.57,99.41,591.33Z" fill="#2f2e41" opacity="0.2"/><path d="M120.73,533.28c.11-4.85,2.91-7.25,3.13-10.58a41.92,41.92,0,0,0-1.08-13.11l-5.4-7.38c-15.55.2-26.68.46-26.86.52-.59.19-1,3.55-1.39,6.31,0,0-6.59.84-5.41,19.21.17,2.56,6.82,32.16,7.31,35.54,3,20.62,9.56,31,9.56,31s.59,2.57,8.29,2,15.4-5.72,15.4-5.72S120.33,550.85,120.73,533.28Z" fill="#f48225" data-secondary="true"/><path d="M88.07,506s-8.16,1.19-13.16,6.9-.76,9.48,9,8.46,20.92-11,21.4-11.49S95.13,502.61,88.07,506Z" fill="#2f2e41"/><path d="M88.07,506s-8.16,1.19-13.16,6.9-.76,9.48,9,8.46,20.92-11,21.4-11.49S95.13,502.61,88.07,506Z" opacity="0.3"/><path d="M102.56,509.59A77.11,77.11,0,0,1,118,512c6.71,2,18.56,5.92,21.32,5.92s2-10.27,2-12.24-35.54-3.16-39.89-3.16S102.56,509.59,102.56,509.59Z" fill="#f9b499"/><path d="M141.26,505.64s-3.16,1.58-4.35,7.5-2.76,9.09-.39,10.66,12.64,2.77,14.22,1.19,5.92-9.48,6.71-14.61S141.26,505.64,141.26,505.64Z" fill="#f48225" data-secondary="true"/><path d="M141.26,505.64s-3.16,1.58-4.35,7.5-2.76,9.09-.39,10.66,12.64,2.77,14.22,1.19,5.92-9.48,6.71-14.61S141.26,505.64,141.26,505.64Z" fill="#2f2e41" opacity="0.2"/><path d="M80.59,521.49a23.81,23.81,0,0,0-4.62-9.7c-.36.35-.72.7-1.06,1.09C70.51,517.88,73.26,521.44,80.59,521.49Z" fill="#fff" opacity="0.4"/><path d="M120.13,524.62s-4.08,43.61-12.4,50.4" fill="none" stroke="#fff" stroke-linecap="round" stroke-linejoin="round" stroke-width="0.5"/><path d="M117.25,566s-3.24,14.22-11.72,19.87" fill="none" stroke="#fff" stroke-linecap="round" stroke-linejoin="round" stroke-width="0.5"/><path d="M169.69,516.7s-12.64.79-4.35,6.31,23.31,9.09,23.31,9.09" fill="none" stroke="#fff" stroke-linecap="round" stroke-linejoin="round" stroke-width="0.5"/><path d="M261.46,501.76l-4.27-3.84-9.85-21.32a5.67,5.67,0,0,0-5.17-3.21H50.73a5.67,5.67,0,0,0-5.18,3.21L33.27,503.16l-2-.75v6.08l.09-.07a3.37,3.37,0,0,0,3.4,2.87H258.15a3.31,3.31,0,0,0,3.4-3.13Z" fill="#ccc"/><path d="M261.46,501.76l-4.27-3.84-9.85-21.32a5.67,5.67,0,0,0-5.17-3.21H50.73a5.67,5.67,0,0,0-5.18,3.21L33.27,503.16l-2-.75v6.08l.09-.07a3.37,3.37,0,0,0,3.4,2.87H258.15a3.31,3.31,0,0,0,3.4-3.13Z" opacity="0.2"/><path d="M258.15,505.74H34.73a3.26,3.26,0,0,1-3.39-3.14,3.2,3.2,0,0,1,.27-1.43L45.55,471a5.65,5.65,0,0,1,5.18-3.21H242.17a5.66,5.66,0,0,1,5.17,3.21l13.94,30.13a3.27,3.27,0,0,1-3.13,4.57Z" fill="#ccc"/><path d="M46.05,485.5S41,489,44.15,490.24s39.52.32,43.95-.94,9.48-13,9.48-14.86-6.37-3.26-8.72-3.36-33.33,1.77-33.33,1.77Z" opacity="0.2"/><ellipse cx="226.9" cy="486.13" rx="12.96" ry="5.38" opacity="0.2"/><ellipse cx="144.39" cy="489.46" rx="46.47" ry="8.7" opacity="0.2"/><path d="M217.42,465s-.85-3.4-3.68-2.26-2.55,8.65-2,12.9,4.39,2.27,4.39,2.27v-2.55s-1.41,1.12-2.12-.43-.57-9.36.15-9.22,2.12,2.55,2.12,2.55S216.71,468,217.42,465Z" fill="#939598"/><path d="M215.39,465.54v18.63c0,2.19,5,4,11.25,4s11.24-1.77,11.24-4V465.54a20.2,20.2,0,0,0-22.49,0Z" fill="#939598"/><path d="M219.09,467.44a26.86,26.86,0,0,0,15.08,0A26.86,26.86,0,0,0,219.09,467.44Z" fill="#d1d3d4"/><polygon points="44.65 474.05 44.79 480.42 87.74 480.85 87.74 473.48 44.65 474.05" fill="#ccc"/><polygon points="44.65 474.05 44.79 480.42 87.74 480.85 87.74 473.48 44.65 474.05" opacity="0.3"/><polygon points="87.74 480.85 93.98 467.39 93.98 463.42 87.45 474.76 87.74 480.85" fill="#ccc"/><polygon points="87.74 480.85 93.98 467.39 93.98 463.42 87.45 474.76 87.74 480.85" opacity="0.2"/><polygon points="44.65 479.85 44.79 486.24 87.74 486.67 87.74 479.3 44.65 479.85" fill="#ccc"/><polygon points="44.65 479.85 44.79 486.24 87.74 486.67 87.74 479.3 44.65 479.85" fill="#bcbec0"/><polygon points="87.74 486.67 93.98 473.2 93.98 469.23 87.45 480.56 87.74 486.67" fill="#ccc"/><polygon points="87.74 486.67 93.98 473.2 93.98 469.23 87.45 480.56 87.74 486.67" opacity="0.3"/><path d="M61.24,457.89s1-2-.43-2.83-3,1.18-3.83,1.83-18.7,12.48-19.27,14.33,0,5.92,3.82,6.37,7.23-2.12,8.94-2.55,2.37-.56,2.37-.56L64.6,458.6Z" fill="#ccc"/><path d="M61.24,457.89s1-2-.43-2.83-3,1.18-3.83,1.83-18.7,12.48-19.27,14.33,0,5.92,3.82,6.37,7.23-2.12,8.94-2.55,2.37-.56,2.37-.56L64.6,458.6Z" opacity="0.3"/><path d="M41.53,477.6c3.83.43,7.23-2.12,8.94-2.54s2.37-.57,2.37-.57l.42-.58-11-2.25a3.71,3.71,0,0,0-4.54-.43C37.14,473.05,37.71,477.16,41.53,477.6Z" fill="#ccc"/><path d="M41.53,477.6c3.83.43,7.23-2.12,8.94-2.54s2.37-.57,2.37-.57l.42-.58-11-2.25a3.71,3.71,0,0,0-4.54-.43C37.14,473.05,37.71,477.16,41.53,477.6Z" opacity="0.2"/><path d="M42.25,471.68H75.42c10.35,0,13.47-.57,13.47-.57l6.37-13.18s-20.14,1.27-26.36.85a47.89,47.89,0,0,1-7.65-.85Z" fill="#ccc"/><path d="M42.25,471.68l.56,2.55s26.93.14,34,.14,12.47.28,12.47.28l-.43-3.55Z" fill="#ccc"/><path d="M42.25,471.68l.56,2.55s26.93.14,34,.14,12.47.28,12.47.28l-.43-3.55Z" opacity="0.3"/><polygon points="89.3 474.62 95.25 461 95.25 457.89 88.87 471.07 89.3 474.62" fill="#ccc"/><polygon points="89.3 474.62 95.25 461 95.25 457.89 88.87 471.07 89.3 474.62" opacity="0.3"/><path d="M185,490.54h-81.2a1.36,1.36,0,0,1-1.38-1.35h0a1.36,1.36,0,0,1,1.36-1.37H185a1.37,1.37,0,0,1,1.37,1.34v0h0a1.36,1.36,0,0,1-1.34,1.36Z" fill="#2f2e41"/><path d="M185,490.54h-81.2a1.36,1.36,0,0,1-1.38-1.35h0a1.36,1.36,0,0,1,1.36-1.37H185a1.37,1.37,0,0,1,1.37,1.34v0h0a1.36,1.36,0,0,1-1.34,1.36Z" fill="#2f2e41" opacity="0.2"/><path d="M185.66,487.79H103.07a1.19,1.19,0,0,1-1.19-1.11l-4.49-54a1.19,1.19,0,0,1,1-1.32h91.73a1.18,1.18,0,0,1,1.2,1.17c0,.06,0,.11,0,.16l-4.49,54A1.19,1.19,0,0,1,185.66,487.79Z" fill="#2f2e41"/><path d="M152.16,460.52c0,3.22-3.5,5.83-7.8,5.83s-7.8-2.61-7.8-5.83,3.49-5.82,7.8-5.82S152.16,457.31,152.16,460.52Z" opacity="0.2"/><path d="M232.87,418.69a.34.34,0,0,1-.26-.12.33.33,0,0,1,.06-.46,6.7,6.7,0,0,0,2.41-3.76A7.07,7.07,0,0,0,235,411a.31.31,0,0,1,.23-.4.31.31,0,0,1,.39.22,7.56,7.56,0,0,1,.09,3.72,7.42,7.42,0,0,1-2.64,4.13A.36.36,0,0,1,232.87,418.69Z" fill="#d1d3d4"/><path d="M223.42,460.94a.33.33,0,0,1-.28-.16.32.32,0,0,1,.11-.44c.08,0,7.6-4.65,5.18-9.74a21.05,21.05,0,0,0-4.54-5.49c-3.17-3.11-6.76-6.63-6.76-12.09,0-6.31,5.52-9.21,10.39-11.77.9-.47,1.76-.92,2.56-1.39a.33.33,0,0,1,.32.57c-.81.46-1.67.92-2.58,1.4-4.7,2.47-10,5.27-10,11.19,0,5.19,3.34,8.46,6.56,11.62a21.81,21.81,0,0,1,4.68,5.68c2.67,5.62-5.1,10.37-5.43,10.57A.41.41,0,0,1,223.42,460.94Z" fill="#d1d3d4"/><path d="M230.69,460.79a.32.32,0,0,1-.27-.15.32.32,0,0,1,.09-.45s4.25-2.89,4.25-7.3c0-2.05-1.6-3.67-4-6.13-1.08-1.08-2.29-2.31-3.61-3.82a.32.32,0,0,1,0-.46.33.33,0,0,1,.46,0c1.3,1.49,2.51,2.71,3.58,3.79,2.54,2.57,4.22,4.27,4.22,6.59,0,4.76-4.35,7.72-4.54,7.84A.3.3,0,0,1,230.69,460.79Z" fill="#d1d3d4"/><path d="M224.93,440a.31.31,0,0,1-.2-.07s-3.06-2.48-.85-6.92a.33.33,0,0,1,.44-.14.32.32,0,0,1,.15.43c-2,4,.64,6.1.66,6.12a.31.31,0,0,1,.06.45A.3.3,0,0,1,224.93,440Z" fill="#d1d3d4"/><path d="M266,305.71h-51.8a7.68,7.68,0,0,0-7.68,7.68h0v27.7a7.68,7.68,0,0,0,7.68,7.68h1.59c-1.61,3.56-4.74,9-9.68,12.24,0,0,10.51-.73,21.46-12.24H266a7.68,7.68,0,0,0,7.68-7.68h0v-27.7A7.67,7.67,0,0,0,266,305.71Z" fill="#ccc"/><path d="M231.17,326.26a4,4,0,1,0-4,3.94h0A3.94,3.94,0,0,0,231.17,326.26Z" opacity="0.2"/><path d="M244.6,326.26a3.95,3.95,0,1,0-3.95,3.94h0A4,4,0,0,0,244.6,326.26Z" opacity="0.2"/><path d="M258,326.26a4,4,0,1,0-4,3.94h0A4,4,0,0,0,258,326.26Z" opacity="0.2"/><path d="M834.52,561.77H643.82S745.44,488.19,834.52,561.77Z" fill="#a7a9ac"/><path d="M226.64,462.12c-6.22,0-11.25,1.53-11.25,3.42s5,3.43,11.25,3.43,11.24-1.53,11.24-3.43S232.86,462.12,226.64,462.12Zm0,6.4c-5.39,0-9.79-1.33-9.79-3s4.39-3,9.79-3,9.77,1.33,9.77,3S232,468.52,226.64,468.52Z" fill="#808285"/><path d="M139.92,384.38s-1-3.37-1.43-5.3h16l-.55,4.52S146.64,387.76,139.92,384.38Z" fill="#f7a48b"/><ellipse cx="145.89" cy="352.37" rx="21.08" ry="29.96" fill="#f9b499"/><path d="M124.45,351.45s-2.7-4.67-4.82-2.27,1.7,7.94,3.82,9.78,3.69.71,3.56-1.27S124.45,351.45,124.45,351.45Z" fill="#f9b499"/><path d="M167.32,351.45s2.69-4.67,4.82-2.27-1.7,7.94-3.82,9.78-3.7.71-3.56-1.27S167.32,351.45,167.32,351.45Z" fill="#f9b499"/><path d="M158.24,315.6c1.41-.3,4.43-1.46,6.47-6.19a.6.6,0,0,0-.31-.78h0a.6.6,0,0,0-.78.31c-1.88,4.34-4.55,5.3-5.67,5.51a13.56,13.56,0,0,0,3.12-8.57c0-8.22-7.62-14.88-17-14.88s-17,6.66-17,14.88a13.63,13.63,0,0,0,2.85,8.3c-1.79-.1-4.81.66-8.64,5.13a.6.6,0,0,0,0,.84.62.62,0,0,0,.39.14.59.59,0,0,0,.45-.21c4.9-5.7,8.13-4.74,8.78-4.48a17,17,0,0,0-3.09,2.17c-5.46,4.91-8.79,14.21-8.36,22A28.48,28.48,0,0,0,124.81,354a33.18,33.18,0,0,0,9.63-10.78,92.18,92.18,0,0,0,4.74-9.68c0,3.47.45,7.66,2.27,10.66a15.12,15.12,0,0,0,13.29,7.77,13.07,13.07,0,0,0,2.79-.27.6.6,0,0,0,.38-.3c4.57,1,9.12.89,9.82-.08,1.12-1.55,2.72-6.4,3.25-12.32C172,328.9,165.63,320.18,158.24,315.6Zm-15.69,27.83c-2.3-3.76-2.23-9.88-2-13.4l.15-.4a24.12,24.12,0,0,0,9.63,18.56,17.61,17.61,0,0,0,5.25,2.45c-2.9.2-8.87-.35-13.08-7.21Z" fill="#2f2e41"/><path d="M142.75,324.78s-1,7.18,8.15,14.22,17.77,4.26,17.77,4.26" fill="none" stroke="#fff" stroke-linecap="round" stroke-linejoin="round" stroke-width="0.5"/><path d="M144.09,322.41s9.61,14,22.88,10.34" fill="none" stroke="#fff" stroke-linecap="round" stroke-linejoin="round" stroke-width="0.5"/><path d="M139.34,317.75a9.3,9.3,0,0,0-9.61.74c-5.1,3.4-7.66,11.43-7.66,11.43" fill="none" stroke="#fff" stroke-linecap="round" stroke-linejoin="round" stroke-width="0.5"/><path d="M139.59,321.65s-4.13-1.1-6.69,1.46a16.33,16.33,0,0,0-3.17,3.9" fill="none" stroke="#fff" stroke-linecap="round" stroke-linejoin="round" stroke-width="0.5"/></svg>