<svg id="f9bc43df-80d3-45c6-aed2-28de8a18a015" data-name="Layer 1" xmlns="http://www.w3.org/2000/svg" width="865.76" height="682.89" viewBox="0 0 865.76 682.89"><ellipse cx="474.99" cy="521.78" rx="164.36" ry="139.62" fill="#d1d3d4"/><path d="M345.76,608.22c10.2,1.84,20.45,3.37,30.71,4.77q7.69,1,15.41,2c5.15.58,10.29,1.2,15.44,1.75,20.6,2.22,41.27,3.72,62,4.64l7.76.37c1.29,0,2.58.13,3.88.17l3.88.09,15.53.39c5.18.08,10.36,0,15.54.05h7.77l7.76-.19,15.54-.41,15.51-.86,7.76-.41,7.74-.66,15.49-1.32L578,620.09l-7.73.74-7.76.49-15.52.91-15.54.47-7.77.21-7.77,0c-5.18,0-10.36.07-15.55,0l-15.54-.34-3.88-.08c-1.3,0-2.59-.11-3.89-.16l-7.76-.34c-20.71-1-41.39-2.56-62-4.85-5.15-.57-10.29-1.21-15.44-1.81s-10.27-1.34-15.4-2.06C366.17,611.79,355.94,610.16,345.76,608.22Z" opacity="0.1"/><path d="M364.35,625.24c4.18,1.21,8.4,2.28,12.62,3.31s8.47,2,12.72,2.9q12.75,2.76,25.63,4.9a503.82,503.82,0,0,0,51.8,6c4.34.31,8.68.48,13,.69s8.69.28,13,.26,8.7,0,13-.13c2.18,0,4.35-.17,6.52-.25l3.26-.14,3.25-.21A309.66,309.66,0,0,0,570.82,635l-6.35,1.5c-1.06.24-2.12.51-3.18.73l-3.2.63c-2.14.41-4.27.88-6.41,1.24l-6.45,1.06c-8.61,1.24-17.26,2.25-26,2.78l-3.26.23-3.26.15c-2.17.09-4.35.22-6.52.28-4.35.1-8.71.22-13.06.18s-8.7-.12-13.06-.2-8.69-.34-13-.64a504.25,504.25,0,0,1-51.83-6.18A447,447,0,0,1,364.35,625.24Z" opacity="0.1"/><path d="M329.32,456.91q18.17,1.09,36.36,1.95t36.37,1.67c24.26,1,48.52,1.74,72.8,2.15q18.19.35,36.4.4t36.41-.41c12.13-.29,24.26-.83,36.36-1.72,1.51-.11,3-.21,4.54-.33l4.53-.42c1.51-.14,3-.26,4.53-.42l4.52-.53c6-.68,12-1.68,18-2.89-5.94,1.26-11.92,2.32-18,3l-4.52.57c-1.5.18-3,.31-4.53.47l-4.53.45c-1.51.14-3,.25-4.54.37-12.1.94-24.23,1.51-36.37,1.84s-24.28.49-36.42.51-24.28-.09-36.42-.29Q438.43,462.6,402,461q-18.19-.79-36.38-1.78C353.54,458.48,341.43,457.75,329.32,456.91Z" opacity="0.1"/><path d="M317.22,482.2c13,2.63,26.13,4.68,39.27,6.51s26.32,3.37,39.52,4.64c26.42,2.56,52.94,3.93,79.46,4.27,13.27.15,26.54.06,39.8-.35,3.31-.09,6.62-.26,9.94-.39l5-.21,5-.28,9.93-.59L555,495l5-.39,4.95-.48,9.9-1L584.7,492c1.64-.19,3.29-.37,4.93-.59l4.93-.68,9.86-1.35,9.83-1.55,4.91-.79,4.9-.89,9.79-1.78A685.83,685.83,0,0,1,555,495.46l-9.92.79-9.94.62-5,.3-5,.22c-3.31.13-6.63.31-10,.42q-19.89.66-39.81.45-39.83-.61-79.5-4.49A760.06,760.06,0,0,1,317.22,482.2Z" opacity="0.1"/><path d="M310.08,515.18c6.66,1.82,13.4,3.28,20.17,4.65s13.55,2.59,20.37,3.67c13.61,2.24,27.31,4,41,5.41s27.49,2.46,41.27,3.2,27.57,1.08,41.37,1.22l10.35,0c3.45,0,6.9-.06,10.35-.08,6.9,0,13.8-.26,20.69-.43,3.45-.09,6.9-.27,10.35-.4s6.89-.26,10.34-.48c6.88-.4,13.78-.74,20.65-1.29l10.33-.77,10.31-.92c6.88-.56,13.73-1.36,20.6-2.06,3.43-.33,6.85-.76,10.28-1.17l10.28-1.23c6.84-.87,13.68-1.84,20.52-2.76-6.83,1-13.66,2-20.5,2.92L608.58,526c-3.42.43-6.85.88-10.28,1.24-6.86.73-13.72,1.54-20.6,2.12l-10.31,1-10.32.79c-6.88.57-13.78.93-20.67,1.35-3.44.23-6.89.34-10.34.5s-6.9.34-10.35.43c-6.9.19-13.8.44-20.7.49s-13.81.1-20.71.09q-20.71-.26-41.4-1.33t-41.29-3.31c-13.73-1.46-27.43-3.23-41-5.52-6.81-1.13-13.6-2.43-20.36-3.82S316.72,517.05,310.08,515.18Z" opacity="0.1"/><path d="M313.92,551.46c13.05,3.17,26.29,5.43,39.56,7.4l10,1.45,10,1.22c6.65.88,13.34,1.46,20,2.13,26.72,2.49,53.56,3.61,80.39,3.87,13.42-.11,26.84.05,40.25-.56l10.06-.32,5-.17c.83,0,1.67,0,2.51-.09l2.51-.16L554.29,565c3.35-.22,6.7-.4,10.05-.64l10-.91,20-1.83c3.34-.26,6.67-.68,10-1.08l10-1.2,20-2.38-20,2.54-10,1.27c-3.33.43-6.65.88-10,1.16l-20.05,1.89-10,.94c-3.35.25-6.7.44-10,.66l-20.09,1.29-2.52.17c-.83,0-1.67.06-2.51.1l-5,.17-10.07.36c-13.41.64-26.84.52-40.27.66-26.85-.33-53.69-1.53-80.42-4.09-6.68-.68-13.37-1.28-20-2.18l-10-1.25-10-1.48C340.18,557.1,326.94,554.73,313.92,551.46Z" opacity="0.1"/><path d="M325.5,579.63c12.14,2.5,24.36,4.61,36.59,6.57s24.51,3.73,36.81,5.27,24.62,2.87,37,4,24.7,2,37.08,2.53a662.63,662.63,0,0,0,74.31-.19c24.72-1.59,49.4-4.86,73.4-11.13a339.3,339.3,0,0,1-36.39,7.63l-9.21,1.3c-3.07.38-6.16.69-9.24,1-1.54.16-3.08.37-4.62.49l-4.64.39c-3.09.24-6.17.56-9.27.71a666.09,666.09,0,0,1-74.37.4c-12.39-.58-24.75-1.53-37.1-2.64s-24.68-2.47-37-4.06-24.57-3.38-36.81-5.39S337.62,582.23,325.5,579.63Z" opacity="0.1"/><path d="M291.6,583l-2.41,25.1,21.44,18.51,7.33-7.52,7-36.56S311.21,586.09,291.6,583Z" fill="#f9b499"/><path d="M621.42,659.36c4.63-2.51,17.73-11,5.56-21.6,0,0-23.91-4.58-36.37,10.81,0,0-7.33,11.36-13.38,11.36l41.18.18A6.19,6.19,0,0,0,621.42,659.36Z" fill="#f48225" data-secondary="true"/><path d="M437.36,554.42c-19.64-22.78-26.54-51.83-28.86-72.19a179.68,179.68,0,0,1-.35-39.1l.64.08a179.24,179.24,0,0,0,.35,39c2.31,20.26,9.17,49.17,28.71,71.82Z" fill="#f48225" data-secondary="true"/><polygon points="420.61 611.85 416.37 615.33 424.01 624.44 428.67 620.51 420.61 611.85" fill="#686175" data-primary="true"/><polygon points="420.61 611.85 416.37 615.33 424.01 624.44 428.67 620.51 420.61 611.85" opacity="0.1"/><polygon points="412.52 617.69 408.27 621.17 415.92 630.28 420.58 626.35 412.52 617.69" fill="#686175" data-primary="true"/><polygon points="412.52 617.69 408.27 621.17 415.92 630.28 420.58 626.35 412.52 617.69" opacity="0.1"/><path d="M427.52,611.13l-.44-.46c17.53-17.16,22.91-40.35,24.34-56.78A128.28,128.28,0,0,0,450.3,522c-14.51-65.31-9.36-78.1-9.14-78.62l.59.26c-.05.13-5.25,13.3,9.18,78.23A129.61,129.61,0,0,1,452.06,554C450.62,570.49,445.2,593.83,427.52,611.13Z" fill="#f48225" data-secondary="true"/><path d="M431.5,195.26s-17.61,3.68-24.16,17.19c0,0-35.21,53.23-59,127.34,0,0-10.24,20.88,26.61,28.25,0,0,49.14,8.19,68,4.91,0,0-24.38-9.87-29.89-30.3,0,0-20.88.82-29.07-4.09,0,0,39.75-68.71,55.14-86l-4-22.38S431.67,217.76,431.5,195.26Z" fill="#f9b499"/><path d="M504.49,202.21s.87,33.44,33.58,41.83c0,0,13.39,4.42,20.54-13Z" fill="#f7a78d"/><path d="M439.3,194.56s-4.64,45.69,20.85,47.6c0,0,19.39,3.83,29-31.9,0,0,8.91-33.91,11.94-37.27a106.4,106.4,0,0,1-16.86-.64,4,4,0,0,1-3.32-3l-3.25-12.34S477.5,201.43,439.3,194.56Z" fill="#f9b499"/><path d="M431.84,192.23s-.81,21.4,3.63,41a175.91,175.91,0,0,1,4,26.92c1,13.82,2,31.79,1.15,37.6,0,0,84.65,24.19,119.29-14l-1.65-51.94s-6.6,16.21-23.92,10.72c0,0-33.53-11.27-29.4-50.3,0,0-2.2-16.49,17.59-20.07L501.1,173s-5,5.22-11.82,34.36c0,0-8,38.47-30.23,34.08,0,0-22.54-.28-19.24-46.45C439.81,195,437.88,194.43,431.84,192.23Z" fill="#686175" data-primary="true"/><path d="M520.9,221.9c-5.54-1-17.5-5.55-16.23-26.1,0,0-4.67-26.11,26.66-23.36,0,0,39,9.07,88.5,47.55,0,0,31.34,22.54,34.36,34.08,2.43,9.29-6.05,28.58-17,51.95,0,0-26.94,46.72-39.85,59.64l-19.24-17.32s26.47-37.59,40.18-78a2.75,2.75,0,0,0-.9-3c-.76-.65-1.46-1.9-1.35-4.33a3.63,3.63,0,0,0-1.74-3.33c-8.5-5-41.67-24.35-56-27.93,0,0-17.06-4.41-28.61-7.79A88,88,0,0,0,520.9,221.9Z" fill="#f9b499"/><path d="M506.69,214.86s10.9,26.43,34.26,28.77c0,0,11.36.36,17.32-11.82l1,38.93S516.12,273.22,506.69,214.86Z" opacity="0.1"/><path d="M559.92,283.75l1.81,36.41s-7.22,14-35.07,17.65a63.18,63.18,0,0,0-20.37-25.31,24.71,24.71,0,0,1-.7-7.49S541.87,304.83,559.92,283.75Z" fill="#f9b499"/><path d="M566.05,332.49s1.62-8.17-4.32-12.33c0,0-6.67,13.8-35.07,17.65,0,0,2.2,4.4,2.2,11.91,0,0,28.86-2.75,38.66-10.1a3.73,3.73,0,0,0,.65-5.39A9.56,9.56,0,0,0,566.05,332.49Z" fill="#f48225" data-secondary="true"/><ellipse cx="480.48" cy="350.68" rx="48.37" ry="47.14" fill="#a7a9ac"/><path d="M565,340.92c2.78,1.93,4.79,7,5.82,10.18a7.27,7.27,0,0,0,3.27,4c12,7.05,36.71,25.73,36.71,25.73-49.84-12.83-54,58.08-57.53,56.07s-31.7-7.33-31.7-7.33h0c-6.82-1.52-22.17,2.38-22.17,2.38h0c-54.48,19.24-116.87,9.53-125.44,8.06a11.25,11.25,0,0,1-1.63-.46c-5.49-1.91-4.13,12.74-4.13,12.74,2.57,38.48-18.69,72.56-18.69,72.56-9.16,14.66-19.79,45.44-19.79,45.44-25.28,7-38.11.74-38.11.74l27.85-151.72,2-8.26a152.45,152.45,0,0,1,7.57-23,33.19,33.19,0,0,0,1.4-3.89c.36-8.07,42.14-16.86,42.14-16.86s35,7.33,63.58,6.23c0,0,5.32,8.79,12.64,12.83,0,0,15.76,14.47,38.67,11,0,0,39.58-4.4,41.41-47.64C528.86,349.72,552.68,347.52,565,340.92Z" fill="#f48225" data-secondary="true"/><path d="M485.61,397.73s14.11,15.39,13.75,34.26c0,0,13.37-3.85,22.17-2.38,0,0-9.53-34.82,37.93-67.43l8.79-16.86a14,14,0,0,0-3.29-4.4s-9.9,6.42-36.1,8.8C528.86,349.72,529.59,391,485.61,397.73Z" opacity="0.1"/><path d="M330.42,384.17s27.67,14.27,41.87,55.42c0,0-4-2.29-4.31,7.43,0,0,1.28,26.2-2.2,35,0,0-2.38-52.22-24.19-74.76,0,0-10.26-10.07-15-13.37Z" opacity="0.1"/><path d="M291.57,571.07l-1.25,12.1s21.8,3.14,34.68-.66l4.68-12.18S307.4,577,291.57,571.07Z" fill="#f48225" data-secondary="true"/><path d="M550.66,571.43l-1.83,11.68,33.69,7.62,4.79-12.34A129.16,129.16,0,0,1,550.66,571.43Z" fill="#f48225" data-secondary="true"/><polygon points="550.51 583.54 542.82 620.8 577.64 615.09 582.52 590.73 550.51 583.54" fill="#f9b499"/><path d="M475.26,172.85c-12.48,24.6-35.33,21-35.33,21l-.63,10.8s48-4.27,38.37-47.56C477.67,157.05,477.74,166.12,475.26,172.85Z" fill="#f7a78d"/><path d="M431.62,191.05s-2.26,46.53,15.06,55.6c0,0,27.21,15.12,42.6-14.57,0,0,7.94-13.14,11.56-35.2A36.29,36.29,0,0,1,505,184.7c3.2-5.58,8.72-11.93,17.5-12.54L501.1,173s-4.4,4.67-10.17,27.76c0,0-9.07,50.85-35.73,39.3,0,0-18.69-4.12-15.39-45.07A28.76,28.76,0,0,0,431.62,191.05Z" fill="#f48225" data-secondary="true"/><ellipse cx="439.59" cy="147.47" rx="35.97" ry="49.86" transform="translate(-23.87 161.18) rotate(-20.24)" fill="#f9b499"/><path d="M397.48,126.54s1.28,16.86,4.4,19.79c0,0,57.17,2.56,79.34-22.72,0,0,1.65-6.42-.46-24,0,0-5,5.68-18.87,12.83a125.12,125.12,0,0,1-51.36,13.89C406,126.54,401.4,126.65,397.48,126.54Z" fill="#686175" data-primary="true"/><path d="M484.52,151.09s11.54-8.61,15-17.22c0,0-1.28,18.14-20.34,28.58l-1.53-5.4S481.58,157.69,484.52,151.09Z" fill="#f48225" data-secondary="true"/><path d="M418.64,76s25.56-9.9,40.68,6.59" fill="none" stroke="#ff3c00" stroke-miterlimit="10"/><path d="M429.09,166.67s-38.76-.55-31.61-40.13l9.62-.28s.27-9.07,5.22-12.64c0,0,12.92,27.49,43.15,23.91,0,0-21.16-.82-32.43-19,0,0,6,4.67,10.08,4.67,0,0,38.94-10,47.64-23.64,0,0,2.47,19.79-1.38,33.26a17.16,17.16,0,0,1,4.4,5s13.2-25.38-3.57-41.32c0,0-12.64-9.62-15.39-11.54,0,0,18.14-8,24.46-20.34,0,0-20.34,14.56-28,14.56,0,0,10.2-4.72,15.44-13.36a17.82,17.82,0,0,0-6.16-24.33C458.12,34,431,21.49,405.45,36.11c0,0-30,12.92,7.15,44.53,0,0-9.62-2.75-19-12.92,0,0,5.5,11.54,15.12,15.39,0,0-43.15,26.39-21.72,69.54,0,0-7.42-24.74,1.38-35.18C388.41,117.47,378.51,172.44,429.09,166.67Z" fill="#f48225" data-secondary="true"/><path d="M473.61,136.07a23.56,23.56,0,0,0-1.65-4.58,46.62,46.62,0,0,0,9.26-7.88,84.44,84.44,0,0,1-1.84,9.25A6.21,6.21,0,0,0,473.61,136.07Z" fill="#f48225" data-secondary="true"/><ellipse cx="478.31" cy="144.85" rx="6.98" ry="12.1" fill="#f9b499"/><path d="M450.8,81.19a27.61,27.61,0,0,0,1.88,8.1,36.4,36.4,0,0,0,3.85,7.37,47.9,47.9,0,0,0,11.53,11.89,71.31,71.31,0,0,0,7,4.48,78.25,78.25,0,0,0,7.49,3.62l1.92.8,2,.72c1.29.51,2.62.93,3.94,1.36,2.65.85,5.29,1.78,7.9,2.78a130.72,130.72,0,0,1,15.2,7,65,65,0,0,1,13.7,9.63,28.92,28.92,0,0,1,5.24,6.56,15.59,15.59,0,0,1,2.1,8.08,15.89,15.89,0,0,1-2.63,7.89,30.56,30.56,0,0,1-5.52,6.27,31.12,31.12,0,0,0,5.39-6.35,15.75,15.75,0,0,0,2.45-7.82,15.2,15.2,0,0,0-2.15-7.87,28.47,28.47,0,0,0-5.22-6.41,67.16,67.16,0,0,0-13.64-9.47,130.47,130.47,0,0,0-15.16-6.94c-2.59-1-5.2-1.94-7.85-2.79-1.33-.45-2.66-.87-4-1.39l-2-.73-1.94-.82a78.11,78.11,0,0,1-7.53-3.67,66.67,66.67,0,0,1-7-4.56,48.36,48.36,0,0,1-11.5-12.12,36.91,36.91,0,0,1-3.74-7.49A27.16,27.16,0,0,1,450.8,81.19Z" fill="#f48225" data-secondary="true"/><path d="M440.36,73.22A105.34,105.34,0,0,1,449.79,64a101.08,101.08,0,0,1,10.49-8,74.82,74.82,0,0,1,11.6-6.32,46.91,46.91,0,0,1,12.73-3.55,31.76,31.76,0,0,1,24.76,7.34c.83.73,1.7,1.42,2.49,2.2a21.85,21.85,0,0,1,2.19,2.52,21.62,21.62,0,0,1,3.08,5.91,20.25,20.25,0,0,1,0,13.16,17.49,17.49,0,0,1-1.42,3,16.51,16.51,0,0,1-2,2.68,18.15,18.15,0,0,1-5.39,3.93A26.2,26.2,0,0,1,501.94,89a40.71,40.71,0,0,1-6.59.77,72,72,0,0,1-13.21-.79l-1.64-.23-1.63-.28c-1.09-.18-2.17-.39-3.25-.61-2.16-.41-4.31-.93-6.44-1.52S465,85,462.9,84.24c-1-.39-2-.81-3.09-1.14-.52-.18-1-.35-1.57-.49s-1.05-.31-1.59-.43a53.39,53.39,0,0,0-13-1.46,78.54,78.54,0,0,0-25.79,4.87,78.8,78.8,0,0,1,25.79-5.18c1.1,0,2.21,0,3.31.06l1.65.08,1.65.16c1.1.09,2.19.28,3.28.44s2.17.4,3.24.67c.54.12,1.07.27,1.61.42s1.06.31,1.58.49c1.06.33,2.08.76,3.11,1.14q3.07,1.14,6.26,2c2.12.58,4.25,1.08,6.41,1.49,1.08.21,2.16.42,3.24.59l1.63.27,1.63.23a72.85,72.85,0,0,0,13.11.73,40.36,40.36,0,0,0,6.5-.79A25.69,25.69,0,0,0,508,86.34a17.64,17.64,0,0,0,5.2-3.81,16.76,16.76,0,0,0,1.93-2.59A18.65,18.65,0,0,0,516.49,77a19.55,19.55,0,0,0,.08-12.75,21.19,21.19,0,0,0-3-5.77A21.64,21.64,0,0,0,511.48,56c-.77-.77-1.64-1.45-2.45-2.18a32.45,32.45,0,0,0-11.4-6.25,32.09,32.09,0,0,0-13-1.07A46,46,0,0,0,472,50a73.76,73.76,0,0,0-11.58,6.23,101.37,101.37,0,0,0-10.56,7.89A105.12,105.12,0,0,0,440.36,73.22Z" fill="#f48225" data-secondary="true"/><ellipse cx="475.95" cy="345.87" rx="48.51" ry="48.65" fill="#d1d3d4"/><ellipse cx="463.03" cy="329.1" rx="48.51" ry="48.65" fill="#6c63ff"/><ellipse cx="463.03" cy="329.1" rx="48.51" ry="48.65" fill="#a7a9ac"/><ellipse cx="458.36" cy="326.08" rx="48.51" ry="48.65" fill="#d1d3d4"/><circle cx="456.57" cy="325.71" r="26.66" opacity="0.1"/><circle cx="454.51" cy="321.64" r="10.58" fill="#d1d3d4"/><path d="M580.26,350s3,4.13-1.38,10.45c0,0-15.94,18.14-11.27,22.54,0,0,3.57,5.49,12.65-9.9,0,0,0,6,5.57,4.88a8,8,0,0,0,4.89-3.23l6.58-9.07Z" fill="#f9b499"/><path d="M572.56,357.69s4.12.27,6.32,2.75c0,0,4-4.59,1.89-9.47a3.88,3.88,0,0,0-1.27-1.54l-1.44-1.09S579.16,348.34,572.56,357.69Z" fill="#f7a78d"/><path d="M561.38,359.48s-10.3-3-7.83-7.7c0,0,1.37-4.81,12.23-.28Z" fill="#f7a78d"/><path d="M603.14,371.36l-5.84-5.7-2.55,3.5,2.55,1.93S600.8,369.58,603.14,371.36Z" fill="#f7a78d"/><path d="M597.71,374.87s-2.89-2.34.55-4.81A9.2,9.2,0,0,1,601,370a3.11,3.11,0,0,1,2.62,2.8c.1,1.11-.11,2.39-1.51,2.76C602.11,375.55,600.18,377.2,597.71,374.87Z" fill="#f9b499"/><path d="M558.5,364.74s-1.65,1.93.55,4.95c0,0,3,3,6-.82L577.46,351s3.57-4.4-4.12-7.42c0,0-3.61-.9-5.52,3.43-.63,1.44-1.27,2.88-2,4.27Z" fill="#f9b499"/><path d="M610.76,380.87s11.73,4.4,9.53,34.81c0,0-11,107.38-33,162.71,0,0-23.82-1.09-36.65-7a405.32,405.32,0,0,0,2.2-57.17s-5.86-46.54.37-77.32C553.23,436.94,565.32,365.48,610.76,380.87Z" fill="#f48225" data-secondary="true"/><path d="M627,637.76a48.66,48.66,0,0,0-24.14,2.2c-6.3,2.45-10.79,7-14.66,12.5-1.16,1.66-2.81,2.93-4,4.37-2.28,2.83-6.68,3.5-10.12,3.61l-21.59.68c-12.1-.27-11.27-8.79-11.27-8.79-3.91-10.23,4-43.53,4-43.53a14.57,14.57,0,0,0,.58,4.89c.88,2.78,2.73,3,4.2.52,2.42-4.14,6.9-11,10.86-12.59,0,0-9.48-4-6.46-7.7,0,0,15.53-15.25,26.66-5.77l-2.47,15.12,4.2-13.21a2,2,0,0,1,2.67-1.22c2.44,1,6.22,3.31,6.59,7.83l-1,7.88A2.75,2.75,0,0,0,592,607Z" fill="#686175" data-primary="true"/><path d="M294.72,601.35a10.25,10.25,0,0,0,4.95-5.14,3.18,3.18,0,0,0-1.88-4.33c-2-.65-5.38-.78-11.35,1,0,0-18-6.81-12.8,4.88a6.38,6.38,0,0,1-.84,6.58c-3.94,4.95-13.25,14.36-32.54,23.81,0,0-21.71.28-22,13.2,0,0,17.31-3.3,24.18,9.07,0,0,6.87,8.52,13.2,10.17h44.8l18.7-.24a7,7,0,0,0,6.33-4.1,21.2,21.2,0,0,0,1.63-8.31l-1.85-34.34a17.83,17.83,0,0,0-.7-4.17c-.65-2.15-1.82-4.47-3.68-2.65a3.88,3.88,0,0,0-.88,1.37c-1.29,3.3-7.6,18.48-11.64,9.92a11.18,11.18,0,0,1-.92-3.15c-.65-4.32-3.53-19.2-11.57-12.62a1,1,0,0,1-1.3,0h0A.55.55,0,0,1,294.72,601.35Z" fill="#686175" data-primary="true"/><path d="M218.28,641.34s-9.14,7.91,1,15a20,20,0,0,0,10.92,3.51l25.43.71s-3,.14-10-6.85a29.77,29.77,0,0,1-4-4.79C239.67,645.92,233.54,639.42,218.28,641.34Z" fill="#f48225" data-secondary="true"/><path d="M406.78,617.06l12.08,15.29-33.27,27.33a4.5,4.5,0,0,1-6.29-.55l-6.65-7.78a4.51,4.51,0,0,1,.55-6.4Z" fill="#686175" data-primary="true"/><polygon points="422.05 604.54 416.78 609.6 429.7 623.99 435 619.57 422.05 604.54" fill="#686175" data-primary="true"/><polygon points="414.63 610.77 409.36 615.84 422.28 630.23 427.58 625.81 414.63 610.77" fill="#686175" data-primary="true"/><polygon points="435.66 561.92 438.95 566.31 448.38 559.07 444.65 554.24 435.66 561.92" fill="#686175" data-primary="true"/><polygon points="435.66 561.92 438.95 566.31 448.38 559.07 444.65 554.24 435.66 561.92" opacity="0.1"/><polygon points="441.14 570.25 444.43 574.64 453.87 567.4 450.14 562.58 441.14 570.25" fill="#686175" data-primary="true"/><polygon points="441.14 570.25 444.43 574.64 453.87 567.4 450.14 562.58 441.14 570.25" opacity="0.1"/><polygon points="428.42 560.16 433.24 565.65 448.18 553.36 444 547.88 428.42 560.16" fill="#686175" data-primary="true"/><polygon points="434.32 567.84 439.15 573.33 454.09 561.04 449.9 555.55 434.32 567.84" fill="#686175" data-primary="true"/><path d="M440.26,576l15.8-11.41L481.93,599a4.52,4.52,0,0,1-.82,6.27l-8.06,6.3a4.51,4.51,0,0,1-6.37-.82Z" fill="#686175" data-primary="true"/><path d="M403,40.79s.27,16.21,11.81,29.4C414.79,70.19,390.88,62.22,403,40.79Z" fill="#231f20" opacity="0.2"/></svg>