<svg xmlns="http://www.w3.org/2000/svg" width="865.76" height="682.89" viewBox="0 0 865.76 682.89"><g style="isolation:isolate"><g id="aba9b30a-cac2-4b44-ad97-47becffe3cab" data-name="Layer 1"><rect x="49.65" y="16.47" width="234.2" height="387.66" fill="#e0e0e0"/><rect x="41.86" y="16.47" width="234.2" height="387.66" fill="#ebebeb"/><rect x="51.84" y="24.35" width="214.25" height="371.93" fill="#fafafa"/><rect x="92.62" y="72.66" width="131.75" height="275.28" fill="#ebebeb"/><path d="M92.62,250.54c-.3-25.71,22.82-50.82,48.28-54.41,12.14-1.77,25,.69,36.39-4C197.55,183.87,204,157,224.37,149l.92,199H92.6Z" fill="#e0e0e0"/><polygon points="423.69 603.97 428.2 600.85 389.44 501.53 372.97 510.56 381.32 512.56 423.69 603.97" fill="#7a6640"/><polygon points="423.69 603.97 379.68 492.12 372.97 510.56 372.97 515.32 377.95 515.32 417.29 603.97 423.69 603.97" fill="#a98c5d"/><path d="M57.92,237.1s3-19.52,32.14-11.11c0,0,57.08,18.62,92.53,11.11s98.19-7.45,100.93,1.79c0,0,6.28,17.53,6.62,30.58l3.09,74.33s1.26,25.95,3.16,35.44S330.88,384,330.88,384s47.47-11.2,52.85,7.85c0,0,2.9,19.67,1.29,31.86L329.93,479,145.14,468.16,89.44,318.8Z" fill="#7a6640"/><path d="M170.54,244.05l10.37-3.37,42.27.53,4.35.3s22.13-4.83,23.17,58.67c0,0-20.38,24.31-58.27,11.24C192.43,311.42,177.4,249.21,170.54,244.05Z" fill="#686175" data-primary="true"/><path d="M373,510.56a21.39,21.39,0,0,0,8.35-4.12,8,8,0,0,0,5.09,0l4.49-50.62S365,465.94,365,467.51,373,510.56,373,510.56Z" fill="#7a6640"/><polygon points="290.65 522.37 298.92 549.27 304.4 540.29 300.26 522.99 290.65 522.37" fill="#7a6640"/><path d="M57.92,261s-8.77-31.64,10.22-26.58c0,0,24.47,1.27,39.66,70L115.39,358s5.91,46.35,13.5,42.79c0,0,7.17,1.09,4.22-30.13,0,0-6.33-97.89,7.17-107.59l31.23,131.07,119.14,41L336.18,447,302.79,523H266.6s-26.11-1.46-43.2-2.73c0,0-43.46-2.74-68.14-8.65,0,0-16.77,2.75-25.63-23.52Z" fill="#a98c5d"/><path d="M266.6,523s-15.36,0-23-17.49c0,0-6.69-16.2,3.82-15.59,0,0,32.27,1.71,45.46.32a2,2,0,0,1,2.24,2.1L293.94,523Z" fill="#7a6640"/><path d="M276.93,523s-15.32,7.21-22.15,12.82l1.09-13.44Z" fill="#a98c5d"/><path d="M297.66,520.05l26,14.84s3.89,2.6,17.4,4.94c0,0,4.41-.16,9.87,3.16,0,0,21.36,8.62,23.8,0l-3.28-7.06-49.09-23.37S299.72,517.16,297.66,520.05Z" fill="#f48225" data-secondary="true"/><path d="M297.66,520.05l26,14.84s3.89,2.6,17.4,4.94c0,0,4.41-.16,9.87,3.16,0,0,21.36,8.62,23.8,0l-3.28-7.06-49.09-23.37S299.72,517.16,297.66,520.05Z" opacity="0.2"/><path d="M301,519.36s-2.64,14.89-6.07,23.64a12.09,12.09,0,0,1-7.1,6.92h0s-5.19,3.68-2.38,17.94l3,11.67s3-5.4,9.23-5.62c0,0,7.63-1.51,11.09,2,0,0,10.44-40.67,15.49-48C324.24,527.86,310.68,516.9,301,519.36Z" fill="#ffad95"/><path d="M307.36,632.7c2.11,7.14-3.53,9.54-6.23,10.27h0a9.87,9.87,0,0,1-1.35.28C273.19,643,277,579.53,277,579.53c-4.85-5.5-7.17-22.56-7.17-22.56a7,7,0,0,1,3.55-7.71h0c3.85-2.35,9.31-2.43,9.31-2.43,8-2.13,5.1,3.09,5.1,3.09-7.71,8.58.65,29.61.65,29.61,3.86-5.29,8.14-5.53,8.14-5.53,9.17-1.55,12.18,1.86,12.18,1.86,7.51,1.16-2,18.92-2,18.92C301.24,611.93,307.36,632.7,307.36,632.7Z" fill="#686175" data-primary="true"/><path d="M301.12,643c-4.82,2.62-13.38,2.18-13.38,2.18-21.73-5.48-19.68-62.87-19.68-62.87a158.15,158.15,0,0,1-5.21-20.46c-1.25-12.46,10.17-12.56,10.51-12.56a7,7,0,0,0-3.55,7.71S272.13,574,277,579.53c0,0-3.79,63.51,22.79,63.72A9.87,9.87,0,0,0,301.12,643Z" fill="#123a53"/><path d="M281.65,358.21l9.06,18.91a18.57,18.57,0,0,0,15.11,10.48c10,.88,25.63,1.46,40.3-1.27,0,0,34.68-10.17,33.56,28.94L298.92,415l-27.47-36.52-3.14-29.3h0A16,16,0,0,1,281.65,358.21Z" fill="#a98c5d"/><path d="M238.81,240.68s11.63,23.57,21.82,67.36l8.24,31.2,14.66-33.71s-9.39-6.26-13.79-16.51C269.74,289,253.06,247,238.81,240.68Z" fill="#686175" data-primary="true"/><path d="M157.48,248.24s20.64,12.25,22.52,47.38c0,0,8.16,38.81-7.82,61a52.15,52.15,0,0,0-9.25,21.09,100.13,100.13,0,0,0-.07,34.47s12,59.17,48.41,65.18c0,0,23.1,5.59,59.38-7.48a293.1,293.1,0,0,0,28.27-12.24,17.8,17.8,0,0,1,10.55-1.05S296.81,496,297.66,520.05c0,0,10.54-4.43,26.58,7.81a50,50,0,0,0,38.92,11.5s7.91-1.11,11.55,3.63a566.7,566.7,0,0,1-1.11-77.15l1.11-31.22s9.23-49.58-27.9-44.94c0,0-13.71,1.74-38.08,4.91l-22.5-10.95a11.31,11.31,0,0,1-5.67-6.26c-3.65-9.89-12.27-34.34-12.62-45.3,0,0-6-18.06-10.85-38.93,0,0-8.35-33.14-18.28-52.47a23.37,23.37,0,0,1-12.32,1.38S244.07,265,249.56,299c0,0-19.41,20.89-55.06,12.24a141.13,141.13,0,0,0-8.23-48.1s-5.48-13.25-14.76-19l-3.38-.54Z" fill="#f48225" data-secondary="true"/><path d="M238.81,240.68s24-8.58,28.47-43.39c0,0,.41,29,6.42,40.11,0,0,21.59,35.32,11.93,69.06,0,0-7.83-2.11-15-15.44a17.28,17.28,0,0,1-.92-2C267.32,282.89,253.73,249.88,238.81,240.68Z" fill="#123a53"/><path d="M238.81,240.68s24-8.58,28.47-43.39c0,0,.41,29,6.42,40.11,0,0,21.59,35.32,11.93,69.06,0,0-7.83-2.11-15-15.44a17.28,17.28,0,0,1-.92-2C267.32,282.89,253.73,249.88,238.81,240.68Z" opacity="0.2"/><path d="M206.49,215.37s-.25,14.58-25.58,25.31c0,0,10,28.59,31.94,31.93a9.66,9.66,0,0,0,9.89-4.78c1.92-3.51,3-9.41.64-19.26a12.29,12.29,0,0,0-.92-2.5c-.63-1.27-1.36-3.58.72-4.86C223.18,241.21,211.52,237.12,206.49,215.37Z" fill="#e37961"/><ellipse cx="236.85" cy="202.03" rx="41.5" ry="28.94" transform="translate(-31.93 359.09) rotate(-70.76)" fill="#ffad95"/><path d="M292,290.32c.84-7.14-.69-15.83-1.82-20.85a46.37,46.37,0,0,0-2.13-6.91c-4.67-11.82-7.12-20-7.12-20-2.85-14.24-3.8-32-3.8-32,.63-19.62-2.85-33.22-2.85-33.22-12.66-48.1-48.1-35.44-48.1-35.44-34.17,5.06-38,57.59-38,57.59-2.85,34.17-25.31,46.2-25.31,46.2s40-6,43.63-30.34c0,0-2.19-25.8,15.85-27.32,0,0,27.17,9.24,44.26-3.74,0,0-1.85,37,6.06,53.49,0,0,19,44,13,68.66Z" fill="#123a53"/><path d="M190.07,246.34s10.61-1.2,12.74-5.66a19.51,19.51,0,0,0,10.8,3.46s.16,14.36,1.85,19.83a1.19,1.19,0,0,1-1.09,1.55C210.61,265.6,200.92,263.84,190.07,246.34Z" fill="#ffad95"/><path d="M179,282s5.36,9.16,9.58,30.25c0,0,.85,5.28,7.39,12.66l7.8,9.91,1.27,12.66-13.93-16.24.91,57s39.18-23.84,52.15-39.66c0,0,18.06-5,24.69-9.31l2.05,8.63s-18.31,9.21-26.42,8.9c0,0-35.2,35-65.49,46.41,0,0-3.68,35.87,26.68,48.52l-5.07,15.61,8.44-10.54s6.82,19.48,32.52,20.5c0,0-40.06,10.47-59.08-19.57,0,0-27.4-36.56-20-77.18,0,0,.06-9.87,9.72-23.93C172.18,356.59,189.47,339.51,179,282Z" fill="#fff" opacity="0.2"/><path d="M271.45,349.79s-5.44,39-37.29,32.92l18.64,13.73s46.5,2.61,55.93-1.85l-22.3-10.85a11.32,11.32,0,0,1-5.78-6.57Z" fill="#fff" opacity="0.2"/><path d="M202.79,395.89l8.59,4.94s26.1-5.49,33.76-4.94A129,129,0,0,0,202.79,395.89Z" fill="#fff" opacity="0.2"/><path d="M189.69,415.66l15.1,1.92s7.7-10.64,16.2-15.37C221,402.21,196.55,409.62,189.69,415.66Z" fill="#fff" opacity="0.2"/><path d="M298.92,457.61s3.82-2.45,10.55-1.05c0,0,7.61-33.37,25.77-43.78,0,0-24.14,10.61-26.44,34.41a1,1,0,0,1-.86.89h0a1,1,0,0,1-1.09-.94,41.92,41.92,0,0,1,6.25-22.4S302.46,431.58,298.92,457.61Z" fill="#fff" opacity="0.2"/><path d="M352.54,537.78,369,535.23s-8.16-59.78-1.42-93.18C367.55,442.05,351.41,488.21,352.54,537.78Z" fill="#fff" opacity="0.2"/><path d="M375.37,415s20.38-2.2,37.47,29.76c0,0,35.44,62.66,57.27,84.81,0,0-25.31,31.64-77.84,31.32L384.67,497s-2.63-1.74-1.37-7a9.88,9.88,0,0,1-4.94-9.41,5.52,5.52,0,0,0-3.33-5.7,5.09,5.09,0,0,0-1.83-.35l1.51-39.83S376.34,420.9,375.37,415Z" fill="#f48225" data-secondary="true"/><path d="M378.32,479.11s.76-9.48,4.35-15.8a30,30,0,0,0,0-17.72s-4-19.26,6.77-26.82c0,0-7.25-4-14.07-3.79,0,0,1,11.2-.59,19l-1.58,40.46S377,474.11,378.32,479.11Z" opacity="0.2"/><path d="M379.68,486.36a37.78,37.78,0,0,1,11.22-23.15s-9,19.66-7.6,26.7A8.46,8.46,0,0,1,379.68,486.36Z" opacity="0.2"/><path d="M386.41,511.59l19,44.34s-9.95-45.85-9.52-76.82c0,0,17.17,61.95,27.76,77.82,0,0-16.81,4.47-31.42,3.94Z" opacity="0.2"/><path d="M432.79,554s17.59,21.11,18.89,33.83c0,0,1,9.35,4.67,9.61,0,0,18.18.78,22.08-2.33,0,0-9.87-2.34-4.94-8.06a16.45,16.45,0,0,1,8.31-7s-9.13-4.76-17.66-21.29L454.53,543S443.42,550.77,432.79,554Z" fill="#ffad95"/><path d="M542.89,602.16V604a4.24,4.24,0,0,1-2.83,4c-6.57,2.29-23.78,7.42-43.21,6a31.13,31.13,0,0,0-13.61,3.64s-16.09,5.69-28.79,4.59a4.29,4.29,0,0,1-3.69-2.84A15,15,0,0,1,453,605s-9.53-9.39.82-9.62a2.76,2.76,0,0,0,2.56,2.09s18.44,1.3,22.07-2.34c0,0-10-2.68-4.93-8,0,0,3.9-6,8.31-7,0,0,4.94-3.37,12.47,3.9,0,0,6.69,7.59,23.14,7.11C517.41,591.09,541.15,588.08,542.89,602.16Z" fill="#686175" data-primary="true"/><path d="M544.37,610.87a6.42,6.42,0,0,1-2.73,3.56c-13.85,8.88-47.17,8-47.17,8-17.76,8.54-37.18,7.14-37.18,7.14-6.48.63-6.53-10.12-6.53-10.12a4.29,4.29,0,0,0,3.69,2.84c12.7,1.1,28.79-4.59,28.79-4.59A31.13,31.13,0,0,1,496.85,614c19.43,1.37,36.64-3.76,43.21-6a4.24,4.24,0,0,0,2.83-4C544.87,606.78,544.87,609.17,544.37,610.87Z" fill="#123a53"/><path d="M122.39,407.16s30-1.45,38.38,15.18a14.6,14.6,0,0,1,.73,1.79c2.21,6.38,16.79,45.81,41.29,53.18,0,0-15-13.59-25.52-38l-8.19-17.18c-.68-1.41-1.29-2.85-1.88-4.3C165.11,412.75,155.54,396.08,122.39,407.16Z" fill="#7a6640"/><polygon points="162.59 512.56 145.61 585.82 150.5 588.83 175.41 515.32 162.59 512.56" fill="#7a6640"/><path d="M150.5,588.83h5.27l24.46-59.14s26.71-11.6,51.17,4.58l4.52,109,5.58,1.93,2.31-123.55-68.4-6.31Z" fill="#a98c5d"/><path d="M180.23,529.69H172.7S184.76,522.57,196,526C196,526,186.25,527.37,180.23,529.69Z" fill="#7a6640"/><polygon points="241.5 645.18 246.08 643.25 255.87 522.37 243.81 521.63 241.5 645.18" fill="#7a6640"/><path d="M308.06,315.76l3.53-1,.61,4.89a5,5,0,0,1,.11,2.78,5.17,5.17,0,0,1-2.26,3c-2.12-.34-5-.45-7.15-.79Z" fill="#e37961"/><path d="M318.6,296.35,293.86,341.9l-25-2.66,21.87-50.31a4.65,4.65,0,0,1,5.06-2.73l19.5,3.34A4.66,4.66,0,0,1,318.6,296.35Z" fill="#f48225" data-secondary="true"/><path d="M319.14,295.37s-22.62,22.52-40.41,21.19l-9.86,22.68,25,2.66Z" opacity="0.2"/><ellipse cx="205.48" cy="191.68" rx="8.13" ry="12.36" fill="#ffad95"/><path d="M266.6,184.31s-12.94,11.57-39.49,4.24a13.7,13.7,0,0,0-9.19.57c-6,2.65-13.41,10.48-10.2,33.35,0,0-6.21-21.8,3.1-40.1,0,0,11.84-24,32.73-28.74C243.55,153.63,265,150.14,266.6,184.31Z" fill="#123a53"/><path d="M147.66,365.31s-15-1.43-12.14-18.22A113.6,113.6,0,0,0,137,312.8s-12.07-62.66,20.53-64.56c0,0,23,12.22,23.43,33.77,0,0,.19,35.93,5.34,51,0,0,6.77,15.72-9.89,22.26v5.9s-9.28-1.26-26,8.65l-.21-4.64Z" fill="#686175" data-primary="true"/><path d="M150.2,365.21s9.28-5.06,14.34-11.6c0,0,8.65-11.18,20.89-10.13l-11,10.09,2,1.73v5.9s-12.24-.42-26,8.65Z" fill="#fff" opacity="0.2"/><path d="M152.37,368.62s-.21,21.38,8.15,29.64a7.75,7.75,0,0,0,7.47,1.92c4.21-1.13,12.33-4.22,25.15-12.66,0,0,39.16-24.1,51-39,0,0,30.77-7.9,30.53-15.51,0,0,3.64.15,3.64-2.28,0,0-2.07-5.9-15.19-1.16-.13,0-.25-.12-.15-.22,1.19-1.2,5-4.59,10-4.19,0,0,8.41.27,12.54-1.05a1.82,1.82,0,0,0,.31-3.32c-2.74-1.57-8.64-3.48-19.27-.72l-8.85,1.7s-1.2-4.37,8.85-4.85L273,315.5s12.79,0,13.42-3.15c0,0,2.32-4.61-17.69-2.14a19.19,19.19,0,0,1-5.51-.08c-4.19-.71-13.18-.93-18.09,8.52l-6.34,15.26s-28.93,19-48.68,24.56a67.53,67.53,0,0,0-6.77,2.32l-6.54,2.58-.46-2.17S165.25,360.67,152.37,368.62Z" fill="#ffad95"/><path d="M274.71,333s-2.66-4.22-10.42,1.11" fill="none" stroke="#e37961" stroke-miterlimit="10"/><path d="M220.72,369s17.64-17.84,19.58-23.9c0,0,15.9-1.55,26.44-4.53a105.23,105.23,0,0,1-22.56,8S238.46,356.27,220.72,369Z" fill="#e37961"/><path d="M307.2,314.59c-.31.71-.24,1.48.89,2.05a10.75,10.75,0,0,1,1.92,1.29l2.19,1.75a1.59,1.59,0,0,0,2.38-.44c.95-1.69,1.38-4.45-4.23-6.06A2.64,2.64,0,0,0,307.2,314.59Z" fill="#ffad95"/><path d="M290.38,327.35s-3-.64-1.9-2.85c0,0,.78-2.83,15,0a1.87,1.87,0,0,0,.34,0h4.4a4.21,4.21,0,0,1,3.21,1.43,4.66,4.66,0,0,1,.85,5.32,1.77,1.77,0,0,1-.26.39,9.47,9.47,0,0,1-2.52,2,1.76,1.76,0,0,0-.93,2.08c.45,1.45.73,3.59-.74,5.05a1.76,1.76,0,0,0-.45,1.65,2.68,2.68,0,0,1-1.92,3.5,1.43,1.43,0,0,1-.46.07c-1.83,0-13.93-.12-15.66-3.44a1.5,1.5,0,0,1-.15-.56,2.55,2.55,0,0,1,.21-1.24,1.69,1.69,0,0,0-1.19-2.43c-2.84-.48-6.06-1.36-7-2.93a1.68,1.68,0,0,1,.56-2.17c1.08-.76,3.59-1.58,9.29-.46l.11,0c.62.07,6.77.71,10.92.66a1.74,1.74,0,0,0,.67-3.33C300.6,329.21,296.83,328.18,290.38,327.35Z" fill="#ffad95"/><line x1="293.86" y1="339.37" x2="305.57" y2="340.53" fill="none" stroke="#e37961" stroke-miterlimit="10"/><rect x="399.1" y="37.71" width="279" height="336.77" rx="4.66" fill="#686175" data-primary="true" opacity="0.19"/><rect x="401.05" y="59.26" width="277.05" height="0.87" fill="#686175" data-primary="true"/><rect x="422.34" y="70.89" width="236.63" height="90.63" rx="3.85" fill="#686175" data-primary="true" opacity="0.36"/><rect x="431.85" y="78.16" width="88.39" height="75.52" rx="7.1" fill="#fff"/><rect x="537.02" y="86.24" width="93.98" height="1.74" fill="#a98c5d"/><rect x="537.02" y="100.23" width="93.98" height="1.74" fill="#a98c5d"/><rect x="537.02" y="114.21" width="65.45" height="1.74" fill="#a98c5d"/><rect x="606.95" y="132.42" width="38.04" height="4.48" rx="1.62" fill="#7a6640"/><path d="M636.74,154.12H613.07l-5.6-17.66h37.07Zm-23-.87h22.46l7-15.92H608.66Z" fill="#7a6640"/><rect x="619.99" y="136.9" width="0.87" height="16.78" fill="#7a6640"/><rect x="622.84" y="144.85" width="17.04" height="0.87" transform="translate(378.5 741.77) rotate(-79.99)" fill="#7a6640"/><rect x="610.73" y="144.85" width="29.43" height="0.87" fill="#7a6640"/><path d="M550.67,143.33a5.49,5.49,0,0,1-1.89,1.95,6.59,6.59,0,0,1-3,.94v2.13h-1.71v-2.13a7,7,0,0,1-4-1.55,4.33,4.33,0,0,1-1.52-3.47h3.2a2.82,2.82,0,0,0,.66,1.7,2.66,2.66,0,0,0,1.65.85V138a23,23,0,0,1-2.86-.9,4.74,4.74,0,0,1-1.88-1.46,4.4,4.4,0,0,1-.77-2.73,4.74,4.74,0,0,1,1.52-3.62,6.61,6.61,0,0,1,4-1.67v-2.12h1.71v2.12a6.32,6.32,0,0,1,3.72,1.46,4.92,4.92,0,0,1,1.59,3.43h-3.21a2.56,2.56,0,0,0-.63-1.46,2.74,2.74,0,0,0-1.47-.88v5.68a18.88,18.88,0,0,1,2.87.88,4.65,4.65,0,0,1,1.86,1.44,4.35,4.35,0,0,1,.76,2.72A5,5,0,0,1,550.67,143.33Zm-8.38-8.93a4.66,4.66,0,0,0,1.82,1v-5.31a2.91,2.91,0,0,0-1.8.82,2.53,2.53,0,0,0-.67,1.84A2.18,2.18,0,0,0,542.29,134.4Zm5.35,8.42a2.67,2.67,0,0,0,.65-1.8,2.1,2.1,0,0,0-.64-1.64,4.76,4.76,0,0,0-1.83-1v5.33A2.94,2.94,0,0,0,547.64,142.82Z" fill="#a98c5d"/><rect x="423.33" y="171.58" width="236.63" height="90.63" rx="3.85" fill="#686175" data-primary="true" opacity="0.36"/><rect x="432.84" y="178.85" width="88.39" height="75.52" rx="7.1" fill="#fff"/><rect x="538.01" y="186.94" width="93.98" height="1.74" fill="#7a6640"/><rect x="538.01" y="200.92" width="93.98" height="1.74" fill="#7a6640"/><rect x="538.01" y="214.91" width="65.45" height="1.74" fill="#7a6640"/><rect x="607.94" y="233.12" width="38.04" height="4.48" rx="1.62" fill="#7a6640"/><path d="M637.73,254.81H614.06l-5.6-17.65h37.06Zm-23-.87h22.46l7-15.91H609.65Z" fill="#7a6640"/><rect x="620.98" y="237.59" width="0.87" height="16.78" fill="#7a6640"/><rect x="623.83" y="245.55" width="17.04" height="0.87" transform="translate(280.15 825.93) rotate(-79.99)" fill="#7a6640"/><rect x="611.72" y="245.55" width="29.43" height="0.87" fill="#7a6640"/><path d="M551.66,244a5.39,5.39,0,0,1-1.89,1.94,6.64,6.64,0,0,1-3,.95v2.13H545.1v-2.13a7,7,0,0,1-4-1.55,4.34,4.34,0,0,1-1.52-3.47h3.2a2.79,2.79,0,0,0,.66,1.69,2.69,2.69,0,0,0,1.65.86v-5.78a21.27,21.27,0,0,1-2.86-.91,4.58,4.58,0,0,1-1.88-1.46,4.3,4.3,0,0,1-.77-2.73,4.72,4.72,0,0,1,1.52-3.61,6.55,6.55,0,0,1,4-1.67v-2.13h1.71v2.13a6.26,6.26,0,0,1,3.72,1.46,4.9,4.9,0,0,1,1.59,3.43h-3.21a2.53,2.53,0,0,0-.63-1.46,2.82,2.82,0,0,0-1.47-.88v5.67a19.91,19.91,0,0,1,2.86.88,4.55,4.55,0,0,1,1.87,1.45,4.31,4.31,0,0,1,.76,2.72A5,5,0,0,1,551.66,244Zm-8.38-8.94a4.6,4.6,0,0,0,1.82,1v-5.31a3,3,0,0,0-1.8.81,2.55,2.55,0,0,0-.67,1.84A2.18,2.18,0,0,0,543.28,235.09Zm5.34,8.43a2.64,2.64,0,0,0,.66-1.81,2.12,2.12,0,0,0-.64-1.64,4.9,4.9,0,0,0-1.83-1v5.34A3,3,0,0,0,548.62,243.52Z" fill="#7a6640"/><rect x="423.33" y="270.61" width="236.63" height="90.63" rx="3.85" fill="#686175" data-primary="true" opacity="0.36"/><rect x="432.84" y="277.88" width="88.39" height="75.52" rx="7.1" fill="#fff"/><rect x="538.01" y="285.96" width="93.98" height="1.74" fill="#7a6640"/><rect x="538.01" y="299.95" width="93.98" height="1.74" fill="#7a6640"/><rect x="538.01" y="313.94" width="65.45" height="1.74" fill="#7a6640"/><rect x="607.94" y="332.15" width="38.04" height="4.48" rx="1.62" fill="#7a6640"/><path d="M637.73,353.84H614.06l-5.6-17.65h37.06Zm-23-.87h22.46l7-15.91H609.65Z" fill="#7a6640"/><rect x="620.98" y="336.62" width="0.87" height="16.78" fill="#7a6640"/><rect x="623.83" y="344.58" width="17.04" height="0.87" transform="matrix(0.17, -0.98, 0.98, 0.17, 182.63, 907.73)" fill="#7a6640"/><rect x="611.72" y="344.58" width="29.43" height="0.87" fill="#7a6640"/><path d="M551.66,343.06a5.39,5.39,0,0,1-1.89,1.94,6.64,6.64,0,0,1-3,.95v2.13H545.1V346a7,7,0,0,1-4-1.55,4.34,4.34,0,0,1-1.52-3.47h3.2a2.79,2.79,0,0,0,.66,1.69,2.69,2.69,0,0,0,1.65.86V337.7a21.27,21.27,0,0,1-2.86-.91,4.58,4.58,0,0,1-1.88-1.46,4.3,4.3,0,0,1-.77-2.73,4.72,4.72,0,0,1,1.52-3.61,6.55,6.55,0,0,1,4-1.67v-2.13h1.71v2.13a6.26,6.26,0,0,1,3.72,1.46,4.9,4.9,0,0,1,1.59,3.42h-3.21a2.53,2.53,0,0,0-.63-1.45,2.76,2.76,0,0,0-1.47-.88v5.67a19.91,19.91,0,0,1,2.86.88,4.55,4.55,0,0,1,1.87,1.45,4.31,4.31,0,0,1,.76,2.72A5,5,0,0,1,551.66,343.06Zm-8.38-8.94a4.6,4.6,0,0,0,1.82,1v-5.31a3,3,0,0,0-1.8.81,2.55,2.55,0,0,0-.67,1.84A2.18,2.18,0,0,0,543.28,334.12Zm5.34,8.42a2.61,2.61,0,0,0,.66-1.8,2.12,2.12,0,0,0-.64-1.64,4.9,4.9,0,0,0-1.83-1v5.34A2.94,2.94,0,0,0,548.62,342.54Z" fill="#7a6640"/><path d="M460.33,134.92a6.4,6.4,0,0,1-.88-.06v3.94h2.82v-3.88h-1.94Z" fill="#a98c5d"/><path d="M490.19,135v0h-.08v3.88h2.82v-3.91a5.65,5.65,0,0,1-.93.07Z" fill="#a98c5d"/><path d="M462,111.18c0,.17,0,.35,0,.52v13.75h28.25V112.53a7.3,7.3,0,0,1-.06-.94,7.22,7.22,0,0,1,4.38-6.64A12.17,12.17,0,0,0,482.35,93H469.78a12.17,12.17,0,0,0-12.15,11.52A7.23,7.23,0,0,1,462,111.18Zm.81,8.37h26.51v5H462.77Z" fill="#a98c5d"/><path d="M504.58,111.18a7.23,7.23,0,1,0-14.39,1.35v12.92H461.94V111.7c0-.17,0-.35,0-.52a7.23,7.23,0,0,0-4.33-6.62,7.06,7.06,0,0,0-3.41-.59,7.22,7.22,0,0,0-.43,14.37v10a6.54,6.54,0,0,0,5.66,6.48,6.4,6.4,0,0,0,.88.06h29.86v0H492a5.65,5.65,0,0,0,.93-.07,6.33,6.33,0,0,0,5.4-6.26v-9.88A7.23,7.23,0,0,0,504.58,111.18Z" fill="#7a6640"/><rect x="462.77" y="119.55" width="26.51" height="4.99" fill="#7a6640"/><rect x="449.48" y="189.45" width="55.11" height="53.36" fill="#a98c5d"/><rect x="452" y="191.96" width="24.22" height="14.32" fill="#e6e7e8" style="mix-blend-mode:multiply"/><rect x="478.37" y="191.96" width="24.22" height="14.32" fill="#e6e7e8" style="mix-blend-mode:multiply"/><rect x="452" y="209.03" width="24.22" height="14.32" fill="#e6e7e8" style="mix-blend-mode:multiply"/><rect x="478.37" y="209.03" width="24.22" height="14.32" fill="#e6e7e8" style="mix-blend-mode:multiply"/><rect x="452" y="226.1" width="24.22" height="14.32" fill="#e6e7e8" style="mix-blend-mode:multiply"/><rect x="478.37" y="226.1" width="24.22" height="14.32" fill="#e6e7e8" style="mix-blend-mode:multiply"/><rect x="451.81" y="191.78" width="24.22" height="14.32" fill="#7a6640"/><rect x="478.18" y="191.78" width="24.22" height="14.32" fill="#7a6640"/><rect x="451.81" y="208.85" width="24.22" height="14.32" fill="#7a6640"/><rect x="478.18" y="208.85" width="24.22" height="14.32" fill="#7a6640"/><rect x="451.81" y="225.91" width="24.22" height="14.32" fill="#7a6640"/><rect x="478.18" y="225.91" width="24.22" height="14.32" fill="#7a6640"/><rect x="460.94" y="197.58" width="5.98" height="3.39" fill="#6d6e71" stroke="#f1f2f2" stroke-miterlimit="10" stroke-width="4"/><rect x="487.3" y="197.58" width="5.98" height="3.39" fill="#6d6e71" stroke="#f1f2f2" stroke-miterlimit="10" stroke-width="4"/><rect x="460.94" y="214.65" width="5.98" height="3.39" fill="#6d6e71" stroke="#f1f2f2" stroke-miterlimit="10" stroke-width="4"/><rect x="487.3" y="214.65" width="5.98" height="3.39" fill="#6d6e71" stroke="#f1f2f2" stroke-miterlimit="10" stroke-width="4"/><rect x="460.94" y="231.71" width="5.98" height="3.39" fill="#6d6e71" stroke="#f1f2f2" stroke-miterlimit="10" stroke-width="4"/><rect x="487.3" y="231.71" width="5.98" height="3.39" fill="#6d6e71" stroke="#f1f2f2" stroke-miterlimit="10" stroke-width="4"/><rect x="451.81" y="242.81" width="50.59" height="0.97" fill="#a9c476"/><rect x="451.81" y="242.81" width="50.59" height="0.97" fill="#7a6640"/><path d="M471.24,300.94l3.47,39.24a13.09,13.09,0,0,1,2.39-.2,12.78,12.78,0,0,1,2.26.18l3.47-39.22H471.24Z" fill="#a98c5d"/><polygon points="479.38 292.27 479.38 288.64 491.58 288.64 489.07 286.18 477.03 286.18 465 286.18 462.49 288.64 474.68 288.64 474.68 292.27 460.56 292.27 455.32 300.94 471.24 300.94 477.03 300.94 482.83 300.94 498.75 300.94 493.5 292.27 479.38 292.27" fill="#7a6640"/><path d="M474.71,340.18c-5.26.94-5.38,4.93-5.38,4.93h15.4s0-4.06-5.37-4.95a12.78,12.78,0,0,0-2.26-.18A13.09,13.09,0,0,0,474.71,340.18Z" fill="#7a6640"/><polyline points="585.42 643.56 585.54 642.88 588.61 606.99 601.68 606.99 592.35 643.56" fill="#f48225" data-secondary="true"/><polyline points="585.42 643.56 585.54 642.88 588.61 606.99 601.68 606.99 592.35 643.56" opacity="0.2"/><polyline points="706.53 643.56 706.41 642.88 703.34 606.99 690.27 606.99 699.62 643.56" fill="#f48225" data-secondary="true"/><polyline points="706.53 643.56 706.41 642.88 703.34 606.99 690.27 606.99 699.62 643.56" opacity="0.2"/><polyline points="568.19 643.56 568.3 642.88 574.25 606.99 587.32 606.99 575.11 643.56" fill="#f48225" data-secondary="true"/><polyline points="723.76 643.56 723.65 642.88 717.7 606.99 704.63 606.99 716.85 643.56" fill="#f48225" data-secondary="true"/><rect x="559.99" y="392.09" width="171.97" height="222.9" rx="5.72" fill="#f48225" data-secondary="true"/><rect x="559.99" y="392.09" width="171.97" height="222.9" rx="5.72" fill="#fff" opacity="0.4" style="isolation:isolate"/><rect x="567" y="440.69" width="157.96" height="80.47" fill="#fff" opacity="0.5" style="isolation:isolate"/><rect x="567" y="526.52" width="157.96" height="80.47" fill="#fff" opacity="0.5" style="isolation:isolate"/><rect x="567" y="400.09" width="157.96" height="35.23" fill="#fff" opacity="0.5" style="isolation:isolate"/><path d="M658.9,406H633.05a4.15,4.15,0,0,1-3.72-2.33l-1.74-3.53h36.74l-1.72,3.53A4.16,4.16,0,0,1,658.9,406Z" fill="#f48225" data-secondary="true"/><path d="M658.9,446.53H633.05a4.11,4.11,0,0,1-3.72-2.31l-1.74-3.53h36.74l-1.72,3.53A4.12,4.12,0,0,1,658.9,446.53Z" fill="#f48225" data-secondary="true"/><path d="M658.9,532.38H633.05a4.15,4.15,0,0,1-3.72-2.33l-1.74-3.53h36.74l-1.65,3.6A4.17,4.17,0,0,1,658.9,532.38Z" fill="#f48225" data-secondary="true"/><path d="M763.9,595.79c0-.52-1.75-51.79-10-59.89-8.07-7.84-17.35-.29-17.74,0l-.92-1.11c.1-.08,10.66-8.7,19.65,0,8.75,8.51,10.46,58.75,10.51,60.89Z" fill="#7a6640"/><path d="M764.62,605.87c0-.61-5.74-61.61,16.59-87.19l1.08,1c-21.88,25.12-16.29,85.5-16.23,86.1Z" fill="#7a6640"/><path d="M763.93,599.42l-1.43-.1c0-.69,4.31-69.28-12-84.29l1-1C768.33,529.39,764.12,596.57,763.93,599.42Z" fill="#7a6640"/><path d="M766.06,599.38h-1.44c0-1.89.55-46.39,13.2-53.64a9,9,0,0,1,8.23-.81c7.67,3.18,11.49,16.79,11.62,17.37l-1.44.39c0-.15-3.77-13.53-10.78-16.43a7.63,7.63,0,0,0-7,.73C766.55,553.81,766.06,598.92,766.06,599.38Z" fill="#7a6640"/><path d="M761.15,599.41l-1.44-.07c0-.36,1.9-35.12-7.47-47.4-2.27-3-4.72-4.31-7.29-4.18-6.12.43-11.26,9.4-11.32,9.5l-1.25-.72c.23-.39,5.57-9.72,12.47-10.21,3.1-.2,6,1.43,8.53,4.74C763.07,563.76,761.22,598,761.15,599.41Z" fill="#7a6640"/><path d="M763.07,604.15c-.26-3.38-6.15-82.83,4.22-96.85l1.15.85c-10.05,13.6-4,95.07-3.93,95.88Z" fill="#7a6640"/><path d="M788.84,553s-6.21,2.29-4.31,7.69S806,575.08,806,575.08s8.23-7.54.68-19.79S789,549.16,788.84,553Z" fill="#686175" data-primary="true"/><path d="M761.85,542.75s6.62-.29,7,5.42-14.36,21.45-14.36,21.45-10.5-3.79-8.24-18S760.21,539.25,761.85,542.75Z" fill="#686175" data-primary="true"/><path d="M756.26,515.48s4.41-.48,4-3.16-17.13-9.6-27,1.58c0,0,6.34,10.88,15.5,11S756.26,515.48,756.26,515.48Z" fill="#686175" data-primary="true"/><path d="M764.48,509s-4,1.92-5.11-.55,9.46-17.23,23.77-12.93c0,0,.38,12.6-7.31,17.57S764.48,509,764.48,509Z" fill="#686175" data-primary="true"/><path d="M743.57,550.85s3-2.45-.25-3.65-19.39-.86-19.56,15.1c0,0,18.76,3.11,21.09-3S743.57,550.85,743.57,550.85Z" fill="#686175" data-primary="true"/><path d="M781.86,515s-3.05-2.45.24-3.66,19.39-.85,19.56,15.11c0,0-18.75,3.12-21.08-3S781.86,515,781.86,515Z" fill="#686175" data-primary="true"/><path d="M772,528s-.28-3,2.14-1.83,10.8,10.24,2.09,18.83c0,0-11.72-8.61-9.59-13.2S772,528,772,528Z" fill="#686175" data-primary="true"/><path d="M740.88,532.18s1.83-2.38-.85-2.69-14.59,2.88-11.8,14.81c0,0,14.53-1.09,15.15-6S740.88,532.18,740.88,532.18Z" fill="#686175" data-primary="true"/><path d="M788.84,553s-6.21,2.29-4.31,7.69S806,575.08,806,575.08s8.23-7.54.68-19.79S789,549.16,788.84,553Z" fill="#fff" opacity="0.2" style="isolation:isolate"/><path d="M761.85,542.75s6.62-.29,7,5.42-14.36,21.45-14.36,21.45-10.5-3.79-8.24-18S760.21,539.25,761.85,542.75Z" fill="#fff" opacity="0.2" style="isolation:isolate"/><path d="M756.26,515.48s4.41-.48,4-3.16-17.13-9.6-27,1.58c0,0,6.34,10.88,15.5,11S756.26,515.48,756.26,515.48Z" fill="#fff" opacity="0.2" style="isolation:isolate"/><path d="M764.48,509s-4,1.92-5.11-.55,9.46-17.23,23.77-12.93c0,0,.38,12.6-7.31,17.57S764.48,509,764.48,509Z" fill="#fff" opacity="0.2" style="isolation:isolate"/><path d="M743.57,550.85s3-2.45-.25-3.65-19.39-.86-19.56,15.1c0,0,18.76,3.11,21.09-3S743.57,550.85,743.57,550.85Z" fill="#fff" opacity="0.2" style="isolation:isolate"/><path d="M781.86,515s-3.05-2.45.24-3.66,19.39-.85,19.56,15.11c0,0-18.75,3.12-21.08-3S781.86,515,781.86,515Z" fill="#fff" opacity="0.2" style="isolation:isolate"/><path d="M772,528s-.28-3,2.14-1.83,10.8,10.24,2.09,18.83c0,0-11.72-8.61-9.59-13.2S772,528,772,528Z" fill="#fff" opacity="0.2" style="isolation:isolate"/><path d="M740.88,532.18s1.83-2.38-.85-2.69-14.59,2.88-11.8,14.81c0,0,14.53-1.09,15.15-6S740.88,532.18,740.88,532.18Z" fill="#fff" opacity="0.2" style="isolation:isolate"/><polygon points="790 643.6 740.12 643.6 734.74 588.98 795.39 588.98 790 643.6" fill="#a98c5d"/><polygon points="790 643.6 740.12 643.6 734.74 588.98 795.39 588.98 790 643.6" fill="#fff" opacity="0.5" style="isolation:isolate"/><rect x="732.08" y="582.95" width="65.98" height="12.05" fill="#a98c5d"/></g></g></svg>