<svg id="b7a24742-bc47-4512-b697-b0f3af101fa4" data-name="Layer 1" xmlns="http://www.w3.org/2000/svg" width="865.76" height="682.89" viewBox="0 0 865.76 682.89"><polygon points="2.17 391.85 867.88 412.42 867.88 -0.72 0.45 -0.72 2.17 391.85" fill="#ccc" opacity="0.54"/><polygon points="2.5 440.13 2.5 683.62 867.02 683.62 867.02 422.57 475.6 176.6 178.18 173.53 2.5 440.13" fill="#58595b"/><polygon points="2.5 440.13 2.5 683.62 867.02 683.62 867.02 422.57 475.6 176.6 178.18 173.53 2.5 440.13" fill="none"/><polygon points="-2.12 380.03 167.4 173.53 178.18 173.53 2.5 440.13 -2.12 380.03" fill="#ccc"/><polygon points="-2.12 380.03 167.4 173.53 178.18 173.53 2.5 440.13 -2.12 380.03" opacity="0.2"/><polygon points="867.02 422.57 863.94 395.44 489.17 177.81 475.6 176.6 867.02 422.57" fill="#ccc"/><polygon points="867.02 422.57 863.94 395.44 489.17 177.81 475.6 176.6 867.02 422.57" opacity="0.2"/><rect x="667.87" y="290.62" width="27.96" height="107.57" rx="3.68" fill="#2f2e41"/><rect x="638.99" y="290.62" width="27.96" height="107.57" rx="3.68" fill="#2f2e41"/><g opacity="0.2"><rect x="667.87" y="290.62" width="27.96" height="107.57" rx="3.68"/><rect x="638.99" y="290.62" width="27.96" height="107.57" rx="3.68"/></g><rect x="438.36" y="290.62" width="27.96" height="107.57" rx="3.68" fill="#2f2e41"/><rect x="409.48" y="290.62" width="27.96" height="107.57" rx="3.68" fill="#2f2e41"/><g opacity="0.2"><rect x="438.36" y="290.62" width="27.96" height="107.57" rx="3.68"/><rect x="409.48" y="290.62" width="27.96" height="107.57" rx="3.68"/></g><rect x="403.39" y="137.07" width="298.89" height="204.39" fill="#ffab41"/><rect x="403.39" y="221.95" width="298.89" height="73.39" fill="#ffab41"/><rect x="403.39" y="221.95" width="298.89" height="73.39" opacity="0.2"/><rect x="506.26" y="137.07" width="92.8" height="180.7" fill="#bcbec0"/><rect x="506.26" y="137.07" width="92.8" height="180.7" fill="#ffab41"/><rect x="398.44" y="317.77" width="308.45" height="35.1" rx="4.42" fill="#2f2e41"/><path d="M702.28,133.25a36.89,36.89,0,0,0-36.89-36.89H440.28a36.89,36.89,0,0,0-36.89,36.89Z" fill="#ffab41"/><rect x="403.39" y="133.25" width="298.89" height="3.82" fill="#ffab41"/><rect x="403.39" y="133.25" width="298.89" height="3.82" opacity="0.2"/><rect x="403.03" y="237.96" width="103.23" height="9.45" fill="#2f2e41"/><rect x="403.03" y="268.12" width="103.23" height="9.45" fill="#2f2e41"/><rect x="599.06" y="237.96" width="103.23" height="9.45" fill="#2f2e41"/><rect x="599.06" y="268.12" width="103.23" height="9.45" fill="#2f2e41"/><rect x="509.93" y="144.9" width="85.81" height="116.06" rx="8.85" fill="#2f2e41"/><rect x="512.88" y="147.85" width="79.91" height="110.16" rx="5.9" fill="#fff"/><rect x="509.93" y="168.89" width="85.81" height="2.95" fill="#2f2e41"/><rect x="417.19" y="144.9" width="85.81" height="67.29" rx="8.85" fill="#2f2e41"/><rect x="420.14" y="147.85" width="79.91" height="61.39" rx="5.9" fill="#fff"/><rect x="417.19" y="168.89" width="85.81" height="2.95" fill="#2f2e41"/><rect x="602.67" y="144.9" width="85.81" height="67.29" rx="8.85" fill="#2f2e41"/><rect x="605.62" y="147.85" width="79.91" height="61.39" rx="5.9" fill="#fff"/><rect x="602.67" y="168.89" width="85.81" height="2.95" fill="#2f2e41"/><path d="M519.28,278.06h3.32v3.83q0,.57.69.57c.45,0,.67-.19.67-.57v-2a3.37,3.37,0,0,0-1.21-2.13,33.41,33.41,0,0,1-2.9-3,2.84,2.84,0,0,1-.57-1.71v-1.87q0-3.24,4.24-3.24,3.79,0,3.79,2.95v2.88H524v-3.07c0-.33-.19-.5-.56-.5s-.65.32-.65,1l.07,1.08a3.38,3.38,0,0,0,1.23,2.16,27.41,27.41,0,0,1,2.92,3.07,3.27,3.27,0,0,1,.62,2v2.13q0,3.33-4.24,3.33c-2.74,0-4.1-1-4.1-3Z" fill="#fff"/><path d="M539.27,273.89h-3.33v-3.3c0-.27-.17-.41-.5-.41s-.53.14-.53.41v11.56c0,.28.17.41.53.41s.5-.13.5-.41V278h3.33v4.23a2.16,2.16,0,0,1-1.17,1.9,4.87,4.87,0,0,1-2.62.72q-4.23,0-4.23-3V271.16q0-3.24,4.23-3.24c2.52,0,3.79,1,3.79,2.95Z" fill="#fff"/><path d="M551.21,284.73h-3.66v-8h-1v8h-3.66V268.07h3.66v6.65h1v-6.65h3.66Z" fill="#fff"/><path d="M554.79,281.89V271.16q0-3.24,4.2-3.24c2.76,0,4.15,1.07,4.15,3.22v10.72A2.55,2.55,0,0,1,562,284.1a5.27,5.27,0,0,1-3,.79Q554.78,284.89,554.79,281.89Zm4.78.17V270.71c0-.34-.2-.5-.6-.5s-.61.16-.61.5v11.35c0,.33.2.5.61.5S559.57,282.39,559.57,282.06Z" fill="#fff"/><path d="M566.74,281.89V271.16q0-3.24,4.2-3.24t4.14,3.22v10.72a2.54,2.54,0,0,1-1.15,2.24,5.31,5.31,0,0,1-3,.79Q566.74,284.89,566.74,281.89Zm4.77.17V270.71c0-.34-.19-.5-.59-.5s-.62.16-.62.5v11.35c0,.33.21.5.62.5S571.51,282.39,571.51,282.06Z" fill="#fff"/><path d="M585.62,284.73h-6.87V268.07h3.66V282.6h3.21Z" fill="#fff"/><path d="M536.14,306.16V289.49h4.31a5.11,5.11,0,0,1,2.69.7,2.45,2.45,0,0,1,1.14,2.25v2.32c0,1.17-.72,2-2.14,2.47,1.5.37,2.25,1.18,2.25,2.41v3.23a2.93,2.93,0,0,1-1.07,2.47,4.09,4.09,0,0,1-2.57.82Zm4.68-10.81V292.5q0-.87-1-.87v4.6C540.48,296.23,540.82,295.94,540.82,295.35Zm0,7.79v-4.22q0-.87-1-.87v6C540.48,304,540.82,303.73,540.82,303.14Z" fill="#fff"/><path d="M548,289.49h3.66v14c0,.34.2.5.61.5s.61-.16.61-.5v-14h3.66v13.8a2.52,2.52,0,0,1-1.2,2.23,5.45,5.45,0,0,1-3.07.79,6.1,6.1,0,0,1-3-.71,2.42,2.42,0,0,1-1.27-2.29Z" fill="#fff"/><path d="M560.19,299.49h3.33v3.82q0,.57.69.57c.44,0,.67-.19.67-.57v-2a3.37,3.37,0,0,0-1.21-2.12,32.23,32.23,0,0,1-2.91-3,2.84,2.84,0,0,1-.57-1.71v-1.87c0-2.16,1.42-3.24,4.24-3.24q3.8,0,3.79,3v2.88H564.9v-3.06c0-.34-.19-.5-.56-.5s-.65.32-.65,1l.07,1.08a3.35,3.35,0,0,0,1.24,2.16,29.43,29.43,0,0,1,2.92,3.07,3.35,3.35,0,0,1,.62,2V303q0,3.31-4.25,3.32-4.1,0-4.1-3Z" fill="#fff"/><path d="M432.09,257.72a7,7,0,1,1-7-7A7,7,0,0,1,432.09,257.72Z" fill="#ffab41"/><path d="M450.5,257.72a7,7,0,1,1-7-7A7,7,0,0,1,450.5,257.72Z" opacity="0.2"/><path d="M664.55,118.45a7,7,0,1,1-7-7A7,7,0,0,1,664.55,118.45Z" opacity="0.2"/><path d="M683,118.45a7,7,0,1,1-7-7A7,7,0,0,1,683,118.45Z" opacity="0.2"/><path d="M673.58,257.72a7,7,0,1,0,7-7A7,7,0,0,0,673.58,257.72Z" fill="#ffab41"/><path d="M655.17,257.72a7,7,0,1,0,7-7A7,7,0,0,0,655.17,257.72Z" fill="#ffab41"/><path d="M441.12,118.45a7,7,0,1,0,7-7A7,7,0,0,0,441.12,118.45Z" opacity="0.2"/><path d="M422.72,118.45a7,7,0,1,0,7-7A7,7,0,0,0,422.72,118.45Z" opacity="0.2"/><path d="M479.4,287.72a4.33,4.33,0,1,1-4.33-4.32A4.33,4.33,0,0,1,479.4,287.72Z" fill="#0071f2"/><path d="M426.77,309.23a4.33,4.33,0,1,1-4.33-4.33A4.33,4.33,0,0,1,426.77,309.23Z" fill="#0071f2"/><g opacity="0.2"><path d="M626.28,287.72a4.33,4.33,0,1,0,4.32-4.32A4.32,4.32,0,0,0,626.28,287.72Z"/><path d="M678.9,309.23a4.33,4.33,0,1,0,4.33-4.33A4.33,4.33,0,0,0,678.9,309.23Z"/></g><path d="M414.75,245.2a2.52,2.52,0,1,1,0-5h7.12a2.52,2.52,0,0,1,0,5Z" fill="#fff"/><path d="M683.44,245.2a2.52,2.52,0,0,1,0-5h7.12a2.52,2.52,0,1,1,0,5Z" fill="#fff"/><rect x="429.72" y="286.68" width="38.54" height="23.47" rx="2.76" fill="#ccc"/><polygon points="228.27 157.26 321.18 158.32 314.32 135.58 234.16 135.58 228.27 157.26" fill="#e6e7e8"/><polyline points="227.1 161.07 223.15 157.26 219.34 159.17 220.56 166.4" fill="#2f2e41"/><path d="M223.25,156.61c-.69,3-6.16,9.68-12.09,2.73-4.45-5.23-1.21-8.19,3.51-8.57C218.25,150.47,224.42,151.54,223.25,156.61Z" fill="#f48225" data-secondary="true"/><polyline points="322.52 161.07 326.48 157.26 330.29 159.17 329.07 166.4" fill="#2f2e41"/><path d="M326.38,156.61c.69,3,6.16,9.68,12.08,2.73,4.46-5.23,1.22-8.19-3.5-8.57C331.38,150.47,325.21,151.54,326.38,156.61Z" fill="#f48225" data-secondary="true"/><path d="M228.27,231.46c0,4.42-3.58,4.24-8,4.24h-1.45c-4.41,0-8,.18-8-4.24V204.38a8,8,0,0,1,8-8h1.45a8,8,0,0,1,8,8Z" fill="#2f2e41"/><path d="M336.58,231.46c0,4.42-3.58,4.24-8,4.24h-1.44c-4.42,0-8,.18-8-4.24V204.38a8,8,0,0,1,8-8h1.44a8,8,0,0,1,8,8Z" fill="#2f2e41"/><path d="M337.05,171.86c-.67-1.48-14.52-13.54-14.52-13.54H322c.55,3-1.21,2.51-1.21,2.51h-92s-1.75.44-1.21-2.51H227s-13.85,12.06-14.52,13.54-8.93,12.65.48,48.14l123.63.77C346,185.28,337.72,173.34,337.05,171.86Z" fill="#f48225" data-secondary="true"/><path d="M274.12,180c-12.48,0-13.56-1.48-14.08-2.19a1.8,1.8,0,0,1-.29-1.6A1.54,1.54,0,0,1,261,175.1a88.42,88.42,0,0,1,13.14-.91,106.34,106.34,0,0,1,14.15.91,1.55,1.55,0,0,1,1.25,2c-.34,1.07-.91,2.85-15.09,2.85Z" fill="#f48225" data-secondary="true"/><path d="M274.12,180c-12.48,0-13.56-1.48-14.08-2.19a1.8,1.8,0,0,1-.29-1.6A1.54,1.54,0,0,1,261,175.1a88.42,88.42,0,0,1,13.14-.91,106.34,106.34,0,0,1,14.15.91,1.55,1.55,0,0,1,1.25,2c-.34,1.07-.91,2.85-15.09,2.85Z" opacity="0.2"/><path d="M336.53,180.2a10.44,10.44,0,1,1-10.43-10.44A10.43,10.43,0,0,1,336.53,180.2Z" fill="#e3dede"/><path d="M326.1,188.52a8.33,8.33,0,1,1,8.32-8.32A8.34,8.34,0,0,1,326.1,188.52Z" fill="#fff"/><path d="M234.16,180.2a10.44,10.44,0,1,1-10.44-10.44A10.44,10.44,0,0,1,234.16,180.2Z" fill="#e3dede"/><path d="M223.72,188.52A8.33,8.33,0,1,1,232,180.2,8.33,8.33,0,0,1,223.72,188.52Z" fill="#fff"/><path d="M239.44,160.63s.35,16.84,7.23,25l10.75-1s-8.81-14.36-6.7-24.5Z" fill="#fff"/><path d="M309,160.63s-.36,16.84-7.23,25l-10.76-1s8.82-14.36,6.7-24.5Z" fill="#fff"/><path d="M231.77,197.91s2.36-14.73,23.87-14.73h40.25c17.94,0,21.79,14.73,21.79,14.73Z" fill="#2f2e41"/><path d="M236.47,197.91s2.09-11.28,21.25-11.28h35.85c16,0,19.41,11.28,19.41,11.28Z" opacity="0.2"/><path d="M317.66,198.57s-.82,5.14-8.33,5.14H239.4c-6.27,0-7.61-5.14-7.61-5.14Z" fill="#2f2e41"/><path d="M312.36,198.57s-.73,3.94-7.42,3.94H243.85c-5.58,0-6.78-3.94-6.78-3.94Z" opacity="0.2"/><path d="M274.56,205.7H230.42s-.39,11.73,12.77,11.73h64.19c12.52,0,11.32-11.73,11.32-11.73Z" fill="#2f2e41"/><path d="M265.49,220.06c-.86.08-.44.06,0,0Z" fill="#2f2e41"/><path d="M320.72,205.7v7.19s14.28.19,14.28-7.19Z" fill="#2f2e41"/><path d="M228.27,205.7v7.19S214,213.08,214,205.7Z" fill="#2f2e41"/><path d="M213.74,221.53H335.4a1,1,0,0,0,0-2H213.74a1,1,0,0,0,0,2Z" fill="#2f2e41"/><path d="M257.42,184.24a5.71,5.71,0,1,1-5.71-5.71A5.71,5.71,0,0,1,257.42,184.24Z" fill="#e3dede"/><path d="M251.71,188.54a4.3,4.3,0,1,1,4.3-4.3A4.3,4.3,0,0,1,251.71,188.54Z" fill="#fff"/><path d="M303.13,184.24a5.71,5.71,0,1,1-5.7-5.71A5.71,5.71,0,0,1,303.13,184.24Z" fill="#e3dede"/><path d="M297.43,188.54a4.3,4.3,0,1,1,4.29-4.3A4.31,4.31,0,0,1,297.43,188.54Z" fill="#fff"/><path d="M207.71,185.56c-.06.58-.09,1.16-.11,1.74-.08,1.61-.09,3.23-.06,4.85,0,2.45.17,4.91.39,7.35.29,3.17.71,6.32,1.28,9.45a99.39,99.39,0,0,0,2.51,10.66l.42,1.42a1,1,0,0,0,1.22.67,1,1,0,0,0,.69-1.19,100.09,100.09,0,0,1-2.7-10.79c-.31-1.62-.59-3.25-.82-4.89,0-.11,0-.21-.05-.31s0-.27,0-.18,0,0,0-.05l0-.18c0-.1,0-.2,0-.3l-.15-1.16q-.13-1.1-.24-2.19-.37-3.78-.47-7.57c0-1.72,0-3.44,0-5.16,0-.71.1-1.42.12-2.14v0a1,1,0,0,0-1-1,1,1,0,0,0-1,1Z" fill="#2f2e41"/><path d="M339.28,184.6c.06.6.08,1.2.11,1.8q.11,2.47.06,4.95c0,2.52-.17,5-.38,7.54-.14,1.53-.3,3.06-.5,4.58,0,.2-.05.39-.07.59,0-.18,0,0,0,.1s0,.24-.05.36l-.18,1.26c-.13.84-.27,1.69-.42,2.53a105.54,105.54,0,0,1-2.51,11c-.14.49-.29,1-.43,1.46a1,1,0,0,0,.69,1.23,1,1,0,0,0,1.23-.7,109.09,109.09,0,0,0,2.71-11.15c.62-3.32,1.1-6.67,1.42-10q.39-3.93.49-7.88c0-1.78,0-3.56,0-5.35,0-.74-.06-1.49-.13-2.23v0a1,1,0,0,0-2,0Z" fill="#2f2e41"/><path d="M335.63,603.14c0,14.15-11.46,13.55-25.6,13.55h-4.64c-14.14,0-25.61.6-25.61-13.55V516.47a25.62,25.62,0,0,1,25.61-25.61H310a25.61,25.61,0,0,1,25.6,25.61Z" fill="#2f2e41"/><path d="M645.83,603.14c0,14.15-11.46,13.55-25.6,13.55h-4.64c-14.14,0-25.61.6-25.61-13.55V516.47a25.62,25.62,0,0,1,25.61-25.61h4.64a25.61,25.61,0,0,1,25.6,25.61Z" fill="#2f2e41"/><g opacity="0.2"><path d="M335.63,603.14c0,14.15-11.46,13.55-25.6,13.55h-4.64c-14.14,0-25.61.6-25.61-13.55V516.47a25.62,25.62,0,0,1,25.61-25.61H310a25.61,25.61,0,0,1,25.6,25.61Z"/><path d="M645.83,603.14c0,14.15-11.46,13.55-25.6,13.55h-4.64c-14.14,0-25.61.6-25.61-13.55V516.47a25.62,25.62,0,0,1,25.61-25.61h4.64a25.61,25.61,0,0,1,25.6,25.61Z"/></g><path d="M586.86,288.71l-16.15-.08-55.92,98.06-4.24-.38,55.55-97.7-16.68-.08L493.6,386.42l-13.35-.37,55.48-97.58-200.11-.92s-27.28,56-29.76,96.58l311.67,4S596.2,314.35,586.86,288.71Z" fill="#e6e7e8"/><polygon points="493.6 386.42 549.42 288.53 535.73 288.47 480.25 386.05 493.6 386.42" fill="#f1f2f2"/><polygon points="514.79 386.69 570.71 288.63 566.1 288.61 510.55 386.31 514.79 386.69" fill="#f1f2f2"/><polygon points="288.25 157.13 300.53 135.59 297.52 135.58 285.31 157.05 288.25 157.13" fill="#f1f2f2"/><polygon points="292.91 157.19 305.22 135.61 304.2 135.61 291.98 157.11 292.91 157.19" fill="#f1f2f2"/><polygon points="330.21 296.45 595.29 296.45 585.6 287.55 342.26 287.55 330.21 296.45" fill="#2f2e41"/><polygon points="617.53 367.87 305.86 367.87 304.55 380.43 616.51 380.43 617.53 367.87" fill="#2f2e41"/><polygon points="595.29 292.73 620.04 374.15 613.46 374.15 588.29 292.73 595.29 292.73" fill="#2f2e41"/><polygon points="327.42 292.73 302.67 374.15 309.25 374.15 334.42 292.73 327.42 292.73" fill="#2f2e41"/><path d="M327.8,292.73s15.18-15.05,35.29-15.05H563.16a42.42,42.42,0,0,1,32.13,15.05H327.8Z" fill="#686175" data-primary="true"/><path d="M668.16,509c-1.59-10.51-8.95-27.23-8.95-27.23s-8.58-33.18-13.36-63.91A64.8,64.8,0,0,0,620.05,376l-157.77.68L304.51,376a64.8,64.8,0,0,0-25.8,41.94c-4.78,30.73-13.36,63.91-13.36,63.91s-7.35,16.72-9,27.23S279,564.66,279,564.66l138.76,11,39.88-16.82,76.49,20.88,110-15.06S669.75,519.53,668.16,509Z" fill="#686175" data-primary="true"/><path d="M534.17,581.54a1.55,1.55,0,0,1-.48-.07L457.8,560.76l-39.29,16.58a1.91,1.91,0,0,1-.85.14l-138.76-11a1.8,1.8,0,0,1-1.46-1c-2.51-4.67-24.48-46-22.84-56.77,1.62-10.62,8.78-27,9.08-27.68a1.82,1.82,0,0,1,3.34,1.46c-.08.17-7.28,16.63-8.82,26.77-1.21,7.94,15,40.57,22,53.62L417.5,573.81,457,557.17a1.8,1.8,0,0,1,1.19-.08l76.13,20.77L643,563c7.33-13,24.58-45.74,23.38-53.68a1.82,1.82,0,0,1,3.6-.55c1.64,10.82-21.6,52.13-24.25,56.81a1.82,1.82,0,0,1-1.34.9l-110,15.06Z" fill="#2f2e41"/><path d="M298.36,377.8H625a1.12,1.12,0,0,0,0-2.24H298.36a1.12,1.12,0,0,0,0,2.24Z" fill="#ccc"/><g opacity="0.2"><path d="M637.41,482.9c-12.17,24-43.67,23-66.68,23-29.4,0-58.8.1-88.2.21-11.33,0-22.66.07-34,0q-42.5-.18-85-.23c-12.67,0-25.47.49-38.09-.92-12.29-1.37-25.35-4.86-34-14.3a34.84,34.84,0,0,1-5.3-7.76c-.63-1.26-2.52-.15-1.88,1.1,12.24,24.12,43.34,24.12,66.7,24.06,29.83-.08,59.66.08,89.48.2,11.64,0,23.27.08,34.9,0q43.67-.18,87.31-.23c12.68,0,25.47.45,38.06-1.24,12.14-1.63,24.78-5.51,33.18-14.93A37.17,37.17,0,0,0,639.3,484c.63-1.25-1.25-2.36-1.89-1.1Z"/></g><path d="M297.76,519.77S292.56,549,318.55,553s89.72,0,89.72,0l15.94-15.73h74.43l17.2,17.5h94.82c15.93,0,23.9-19.42,23.9-35.29H298.36" fill="#2f2e41"/><path d="M308.34,526s-3.23,19.63,30.23,19.32,37.45,0,37.45,0V526Z" fill="#e3dede"/><path d="M622.09,526s3.23,19.63-30.23,19.32-37.45,0-37.45,0V526Z" fill="#e3dede"/><circle cx="326.78" cy="535.69" r="5.89" fill="#2f2e41"/><circle cx="345.74" cy="535.69" r="5.89" fill="#2f2e41"/><circle cx="364.71" cy="535.69" r="5.89" fill="#2f2e41"/><circle cx="566.21" cy="535.69" r="5.89" fill="#2f2e41"/><circle cx="585.17" cy="535.69" r="5.89" fill="#2f2e41"/><path d="M610,535.69a5.88,5.88,0,1,1-5.88-5.89A5.88,5.88,0,0,1,610,535.69Z" fill="#2f2e41"/><path d="M460.22,574.93a14.85,14.85,0,1,1-14.85-14.84A14.85,14.85,0,0,1,460.22,574.93Z" fill="#2f2e41"/><path d="M445.37,585a10.07,10.07,0,1,1,10.06-10.07A10.08,10.08,0,0,1,445.37,585Z" fill="#fff" opacity="0.2"/><path d="M495.1,574.93a14.85,14.85,0,1,1-14.85-14.84A14.85,14.85,0,0,1,495.1,574.93Z" fill="#2f2e41"/><path d="M480.25,585a10.07,10.07,0,1,1,10.07-10.07A10.08,10.08,0,0,1,480.25,585Z" fill="#fff" opacity="0.2"/><path d="M461,418.28v-.39l-5.66.2-6.45-.2v.44l-87.83,3.2s10.14,56.3,43.6,56.3H519.09c33.46,0,43.6-56.3,43.6-56.3Z" opacity="0.2"/><path d="M537.33,407.75H387.23c-23.44,0-26.13,13.78-26.13,13.78H563.45S560.77,407.75,537.33,407.75Z" fill="#fff"/><rect x="390.36" y="431.74" width="144.62" height="23.62" fill="#2f2e41"/><path d="M304.58,466.61a10,10,0,0,1-10.13-11.81l7.12-46.11a14.43,14.43,0,0,1,13.78-11.81H320a16.1,16.1,0,0,1,14.82,11.6L346.29,455c1.58,6.38-2.51,11.6-9.09,11.6Z" fill="#e2dddd"/><path d="M304.58,461.83a5.19,5.19,0,0,1-5.4-6.3l7.12-46.11a9.72,9.72,0,0,1,9.05-7.76H320a11.32,11.32,0,0,1,10.17,8l11.48,46.53a4.65,4.65,0,0,1-.61,4.09,4.71,4.71,0,0,1-3.84,1.58Z" opacity="0.2"/><path d="M620,466.61a10,10,0,0,0,10.13-11.81L623,408.69a14.43,14.43,0,0,0-13.78-11.81h-4.65a16.07,16.07,0,0,0-14.81,11.6L578.32,455c-1.58,6.38,2.51,11.6,9.08,11.6Z" fill="#e2dddd"/><path d="M587.4,461.83a4.2,4.2,0,0,1-4.44-5.67l11.48-46.53a11.33,11.33,0,0,1,10.17-8h4.65a9.71,9.71,0,0,1,9,7.76l7.13,46.11a5.19,5.19,0,0,1-5.41,6.3Z" opacity="0.2"/><circle cx="605.29" cy="435.02" r="14.32" fill="#fff"/><circle cx="605.29" cy="435.02" r="9.88" transform="translate(-29.7 825.4) rotate(-67.29)" fill="#800a03"/><path d="M333.69,435a14.32,14.32,0,1,1-14.31-14.32A14.31,14.31,0,0,1,333.69,435Z" fill="#fff"/><circle cx="605.29" cy="435.02" r="14.32" fill="#fff"/><path d="M68.75,212.67s42.77-7.71,27.1-49.47c0,0-1.74-5.47,2-12.68,0,0,17.65-27.1.75-41.52,0,0-24-27.17-61.94.14,0,0-13.86,9.38-11.39,26.26a28.84,28.84,0,0,0,4.21,11.19c3.41,5.41,10.75,18.56,7.18,26.7,0,0-.89,2-2.89,5.9a27.51,27.51,0,0,0-3.1,11.24c-.46,9.44,3.82,23.18,32.56,23.18A32.43,32.43,0,0,0,68.75,212.67Z" fill="#d1d3d4"/><polygon points="62.02 255.68 63.9 190.2 40.56 164.98 63.63 185.37 65.51 125.53 67.12 161.22 95.03 142.71 66.59 165.78 69.81 255.57 62.02 255.68" fill="#a7a9ac"/><path d="M799.09,283.83s42.76-7.71,27.1-49.48c0,0-1.74-5.47,2-12.68,0,0,17.66-27.1.75-41.52,0,0-24-27.16-61.94.15,0,0-13.86,9.37-11.39,26.26a28.86,28.86,0,0,0,4.22,11.19c3.41,5.4,10.74,18.55,7.17,26.69,0,0-.89,2-2.88,5.9A27.41,27.41,0,0,0,761,261.59c-.45,9.44,3.82,23.17,32.57,23.17A33,33,0,0,0,799.09,283.83Z" fill="#d1d3d4"/><polygon points="792.36 326.83 794.24 261.36 770.89 236.14 793.97 256.53 795.85 196.69 797.46 232.38 825.36 213.87 796.92 236.94 800.14 326.72 792.36 326.83" fill="#a7a9ac"/><path d="M261.22,176.63s-.56,1.77,12.85,1.77c.41,0,13.39.09,14-1.77A102.62,102.62,0,0,0,261.22,176.63Z" fill="#f48225" data-secondary="true"/><polygon points="234.89 135.58 315.38 135.58 312.44 132.87 238.55 132.87 234.89 135.58" fill="#f48225" data-secondary="true"/><polygon points="322.13 157.26 227.5 157.26 227.1 161.07 321.82 161.07 322.13 157.26" fill="#f48225" data-secondary="true"/><polygon points="315.38 134.44 322.9 159.17 320.9 159.17 313.25 134.44 315.38 134.44" fill="#f48225" data-secondary="true"/><polygon points="234.04 134.44 226.53 159.17 228.52 159.17 236.17 134.44 234.04 134.44" fill="#f48225" data-secondary="true"/><path d="M323.18,160.25H226.09a.33.33,0,0,0,0,.66H227a.33.33,0,0,0,0-.66h-.94a.33.33,0,0,0,0,.66h97.09a.33.33,0,0,0,0-.66Z" fill="#ccc"/><path d="M234.16,134.45s4.61-4.58,10.71-4.58h60.75a12.88,12.88,0,0,1,9.76,4.58H234.16Z" fill="#f48225" data-secondary="true"/></svg>