<svg id="fe0ec457-f0d7-4bb2-b330-bb909c7b08a6" data-name="Layer 1" xmlns="http://www.w3.org/2000/svg" xmlns:xlink="http://www.w3.org/1999/xlink" width="865.76" height="682.89" viewBox="0 0 865.76 682.89"><defs><clipPath id="b5ab0d00-5900-4c7e-a49e-349628412a85"><polygon id="b650486b-ca95-4342-adf4-a9ec756902fa" data-name="SVGID" points="260.62 507.6 275.17 382.42 103.7 384.77 104.72 505.64 260.62 507.6" fill="none"/></clipPath><clipPath id="f2c82ee1-6c2a-449b-af0f-8248b2189375"><polygon id="b987885f-0ece-4b7f-9e4b-b019f21c0e58" data-name="SVGID" points="87.6 442.17 94.52 415.62 91.56 321.14 170.81 304.95 206.52 389.2 223.9 411.13 211.8 432.11 117.34 452.17 87.6 442.17" fill="none"/></clipPath><clipPath id="a1fe0e22-4bd4-49bc-b20d-4eec12c71c01"><polygon id="aff9334a-913b-4854-bfc4-43e1d6a5708b" data-name="SVGID" points="147.49 406.33 167.57 387.64 215.7 306.29 291.28 335.1 276.27 425.36 279.19 453.19 257.74 464.42 167.22 430.73 147.49 406.33" fill="none"/></clipPath><clipPath id="b14ee95d-8930-4e40-99f4-6315f9b0214e"><polygon id="accf26b9-342d-4ea9-92ab-1e7df46d0909" data-name="SVGID" points="241.65 496 226.09 514.56 129.58 517.94 102.03 502.93 102.28 502.4 113.45 477.98 126.92 384.43 207.78 382.22 215.81 417.08 228.33 471.39 241.6 495.91 241.65 496" fill="none"/></clipPath></defs><path d="M739.93,200.09c4.41,2.95,8.75,4.4,9.33,3.84,1.33-1.31-4.43-5.32-3.4-8.12s6.93,5,9,11.09,8.79,13.88,8.79,13.88l1.39,5.33s-10.75,23.32-3.22,24.15a4.39,4.39,0,0,1,4,3.07c-4.19.57-7.52.71-7.52.71s-.48-12.95-5.19-17.51c0,0-7.74.69-12.62-.09a5.75,5.75,0,0,1-4.5-3.83,37.61,37.61,0,0,1,4-32.52" fill="#f9b499"/><rect x="239.41" y="83.35" width="486.2" height="516.19" fill="#d1d3d4"/><rect x="254.34" y="130.44" width="82.51" height="234.25" opacity="0.2"/><rect x="239.41" y="83.35" width="485.59" height="32.47" opacity="0.2"/><circle cx="256.82" cy="100.02" r="6.65" fill="#ccc"/><circle cx="279.28" cy="100.02" r="6.65" fill="#ccc"/><circle cx="300.48" cy="100.02" r="6.65" fill="#ccc"/><rect x="254.15" y="169.52" width="82.51" height="0.97" fill="#ccc"/><rect x="254.15" y="208.19" width="82.51" height="0.97" fill="#ccc"/><rect x="254.56" y="247.69" width="82.51" height="0.97" fill="#ccc"/><rect x="254.15" y="286.36" width="82.51" height="0.97" fill="#ccc"/><rect x="254.15" y="325.02" width="82.51" height="0.97" fill="#ccc"/><polygon points="284.15 157.55 308.2 157.55 296.52 142.43 284.15 157.55" fill="#ccc"/><circle cx="296.17" cy="190.34" r="7.56" fill="#ccc"/><circle cx="296.17" cy="267.65" r="7.56" fill="#ccc"/><rect x="272.46" y="299.06" width="48.45" height="4.47" fill="#ccc"/><rect x="272.46" y="308.4" width="27.83" height="5.09" fill="#ccc"/><rect x="352.8" y="130.44" width="171.83" height="172.9" fill="#fff"/><rect x="365.07" y="143.25" width="38.95" height="4.27" fill="#ccc"/><rect x="365.07" y="153.23" width="30.22" height="4.27" fill="#ccc"/><circle cx="507.45" cy="150.72" r="8.54" fill="#ccc"/><path d="M477.45,220h-77a37.94,37.94,0,0,1,.55-5.58,38.53,38.53,0,0,1,76.14,1.29A37.8,37.8,0,0,1,477.45,220Z" fill="#ccc"/><path d="M487.17,215.75V220H391.26v-4.29h2.22a3.88,3.88,0,0,1,7.49-1.29,3.66,3.66,0,0,1,.26,1.29H406a3.88,3.88,0,0,1,7.75,0h3.69a3.88,3.88,0,0,1,7.75,0h4.72a3.88,3.88,0,0,1,7.76,0h4.24a3.88,3.88,0,0,1,7.75,0h4.72a3.88,3.88,0,0,1,7.75,0h3.69a3.88,3.88,0,0,1,7.75,0h4.73a3.88,3.88,0,0,1,7.75,0Z" fill="#939598"/><path d="M391.26,220l15.88,39.38a4.07,4.07,0,0,0,3.77,2.54H467a4.05,4.05,0,0,0,3.75-2.5L487.17,220Z" fill="#939598"/><rect x="371.58" y="283.79" width="67.36" height="41.16" rx="10.71" fill="#939598"/><rect x="540.32" y="129.81" width="171.83" height="172.9" fill="#fff"/><rect x="552.59" y="142.63" width="38.95" height="4.27" fill="#ccc"/><rect x="552.59" y="152.61" width="30.22" height="4.27" fill="#ccc"/><circle cx="694.97" cy="150.1" r="8.54" fill="#ccc"/><rect x="559.1" y="283.17" width="67.36" height="41.16" rx="10.71" fill="#939598"/><path d="M573.33,190.62,587,208.49a1.11,1.11,0,0,0,1.5.24l11-7.48V266.9s26.87,14.21,59.12,0V201.64L669,207.32a1.09,1.09,0,0,0,1.4-.3l12.56-16.39a1.1,1.1,0,0,0-.22-1.56L658,171a5.16,5.16,0,0,0-6.06,0c-6.71,4.78-24.45,14.11-45.61-1.5a5.19,5.19,0,0,0-6.15,0l-26.63,19.65A1.1,1.1,0,0,0,573.33,190.62Z" fill="#939598"/><circle cx="629.26" cy="222.01" r="17.85" opacity="0.2"/><path d="M626.77,224.27h0a5.28,5.28,0,0,0,7.4.07l16.42-15.79-7.4-7.4-16.33,15.57A5.28,5.28,0,0,0,626.77,224.27Z" fill="#d1d3d4"/><rect x="351.76" y="336.52" width="88.41" height="143.85" opacity="0.2"/><rect x="452.87" y="386.91" width="67.14" height="45.61" opacity="0.2"/><rect x="453.15" y="397.93" width="66.73" height="9.77" opacity="0.2"/><g opacity="0.2"><path d="M527.08,323.05H455.34a.73.73,0,1,1,0-1.45h71.74a.73.73,0,1,1,0,1.45Z"/></g><g opacity="0.2"><path d="M495.25,333.24H455.34a.73.73,0,0,1-.73-.73.73.73,0,0,1,.73-.72h39.91a.72.72,0,0,1,.72.72A.73.73,0,0,1,495.25,333.24Z"/></g><g opacity="0.2"><path d="M513.08,343.43H455.34a.73.73,0,0,1,0-1.46h57.74a.73.73,0,0,1,0,1.46Z"/></g><g opacity="0.2"><path d="M483.78,352.34H455.34a.73.73,0,1,1,0-1.45h28.44a.73.73,0,1,1,0,1.45Z"/></g><g opacity="0.2"><path d="M689.18,323.38H643.46a.73.73,0,0,1,0-1.45h45.72a.73.73,0,1,1,0,1.45Z"/></g><g opacity="0.2"><path d="M703.28,332.3H643.46a.73.73,0,0,1,0-1.46h59.82a.73.73,0,0,1,0,1.46Z"/></g><g opacity="0.2"><path d="M690.41,342.39H644.69a.73.73,0,1,1,0-1.46h45.72a.73.73,0,1,1,0,1.46Z"/></g><g opacity="0.2"><path d="M714.32,351.3H644.69a.73.73,0,0,1-.73-.73.73.73,0,0,1,.73-.72h69.63a.72.72,0,0,1,.72.72A.73.73,0,0,1,714.32,351.3Z"/></g><rect x="539.4" y="337.61" width="87.03" height="145.61" rx="2.63" opacity="0.2"/><circle cx="605.53" cy="390.64" r="6.16" fill="#ccc"/><rect x="641.98" y="380.66" width="71.11" height="205.35" rx="6.95" opacity="0.2"/><path d="M695.31,397.33H656.7a.73.73,0,0,1,0-1.46h38.61a.73.73,0,1,1,0,1.46Z" fill="#ccc"/><path d="M700.83,417.56H656.7a.73.73,0,1,1,0-1.46h44.13a.73.73,0,0,1,0,1.46Z" fill="#ccc"/><path d="M684.28,406.52H656.7a.73.73,0,1,1,0-1.45h27.58a.73.73,0,1,1,0,1.45Z" fill="#ccc"/><path d="M694.09,508.89H655.47a.73.73,0,0,1-.73-.73.73.73,0,0,1,.73-.72h38.62a.73.73,0,0,1,.73.72A.73.73,0,0,1,694.09,508.89Z" fill="#ccc"/><path d="M690.41,529.12H655.47a.73.73,0,0,1,0-1.46h34.94a.73.73,0,0,1,0,1.46Z" fill="#ccc"/><path d="M683.05,518.09H655.47a.73.73,0,0,1,0-1.46h27.58a.73.73,0,0,1,0,1.46Z" fill="#ccc"/><rect x="656.7" y="432.77" width="43.52" height="24.52" rx="4.42" fill="#ccc"/><rect x="657.31" y="468.32" width="43.52" height="24.52" rx="4.42" fill="#ccc"/><rect x="479.27" y="500.42" width="147.19" height="84.82" opacity="0.2"/><g opacity="0.2"><path d="M446.21,508.63H369.5a.73.73,0,1,1,0-1.46h76.71a.73.73,0,0,1,0,1.46Z"/></g><g opacity="0.2"><path d="M430.62,537.94H369.5a.73.73,0,1,1,0-1.45h61.12a.73.73,0,1,1,0,1.45Z"/></g><g opacity="0.2"><path d="M395.07,518.61H369.5a.73.73,0,0,1,0-1.46h25.57a.73.73,0,1,1,0,1.46Z"/></g><g opacity="0.2"><path d="M403.18,528.59H370.13a.73.73,0,0,1,0-1.46h33.05a.73.73,0,0,1,0,1.46Z"/></g><g opacity="0.2"><path d="M438.73,518.61H403.8a.73.73,0,0,1,0-1.46h34.93a.73.73,0,1,1,0,1.46Z"/></g><g opacity="0.2"><path d="M461.18,528.59H415.65a.73.73,0,0,1,0-1.46h45.53a.73.73,0,0,1,0,1.46Z"/></g><path d="M258.56,256.34s-4.84,7.42-10.65,3.22-7.74-8.7-14.83-7.41c0,0,5.16-2.25,10,0s11.79-6.46,11.79-6.46l-6.3-4s-3.86,7.55-7.42,5-7.1-8.65-13.55-5c-1.22.71-2.12.23-2.8-1,2.38-4.4,6.82-13.9,5.39-21.09a24.3,24.3,0,0,0-2-6c3,2.75,7,5.34,10.49,4.25l-4.35-5.7s-6,1.57-16.16-11.61c-3.5-4.52-11.43-14.19-28.85-7.53-12.23,4.66-26.19,9.79-28.66,19.14s.31,20.1-10.43,23.44-16.88-.47-18.17,6.12,2.39,7.34,2.39,7.34l4.71-1.22s-5.17-3.67-2.9-4.69,8.77-1.42,8.77-1.42-4.26,3-3.94,4.33,2.26,8.06-2.58,8.38-15.4-2.9-18.35,2.58c0,0,5.44,1,6.42,2.91,0,0,1.87-1,7.87,0s14.52,1.29,14.28-5.81c0,0,4.9,9-10.86,8.4,0,0,4.15,6.44,5.3,9s35.47,10.33,45.41,10.33,35.95-11.56,37-11.56h4.89l9.64-2.91s-.39-5.42-13.16-6.66l-1.38-.12c-14.13-1,12.65-2.25,18.77,3.23s17.4,1.3,17.4,1.3Zm-45.27-44.21s5.58-.53,10.11,7.81c2.45,4.59,1.36,10.71-.16,15.3-1.52-7.72-2.83-19.69-10-23.11Z" fill="#2f2e41"/><path d="M203.07,235.57s-10.19,22.38,6.2,24.64c0,0-12,8.56-18.94,8.56s-17.59-8.56-17.59-8.56,7.64-1.92,7.61-8.06-3.41-14.44-3.41-14.44Z" fill="#f9b499"/><path d="M168.33,221.8s-2.45-2.52-3.67-1.7a5.24,5.24,0,0,0-2,5.32c.66,2.15,3.54,5.88,3.76,8.06s1.7,4.64,3.33,3.19S168.33,221.8,168.33,221.8Z" fill="#f9b499"/><path d="M212.35,221.8s2.45-2.52,3.67-1.7a5.23,5.23,0,0,1,2,5.32c-.66,2.15-3.53,5.88-3.75,8.06s-1.7,4.64-3.33,3.19S212.35,221.8,212.35,221.8Z" fill="#f9b499"/><path d="M190.86,189.66c-31.07,0-22.67,37.57-16.94,50.85,2,4.68,12.13,8.49,17.12,8.49,4.69,0,13.83-3.43,15.72-7.81C212.58,227.83,220.49,189.66,190.86,189.66Z" fill="#f9b499"/><path d="M190.33,187.81c-32.71,0-21.38,37.93-21.38,37.93,0-5.57,2.89-11.13,2.16-13.64s1.39-9.41,1.39-9.41a34.18,34.18,0,0,1,17.83-5.52,31.64,31.64,0,0,1,17.35,5.52s2.12,6.91,1.38,9.41,2.17,8.07,2.18,13.64C211.24,225.77,223.06,187.81,190.33,187.81Z" fill="#2f2e41"/><path d="M209.27,197.94c-1.54-2.66-5.9-4.49-9.27-4.53,0,0-.49-.3-1.15-.64-1-1.44-3-2.83-6.83-3.1-8.56-.58-7.83-3.51-8.16-4.31s1.74-2.74,1.74-2.74h-2.69c-3.67,0-3.31,5.19-3.31,5.19-2.65-1.89-8-2.77-8-2.77-2.59,0-4.53,2.77-4.53,2.77,3.54.37,9.2,3.67,9.2,3.67a28.58,28.58,0,0,0-12.75,0c-3.67,4.37-2.74,6.46-2.74,6.46a56.45,56.45,0,0,1,10-1.45,31.52,31.52,0,0,0-20.52,18.74s.65,7.34,1.13,6a22.75,22.75,0,0,1,6.18-11.19,56.09,56.09,0,0,0-5.2,21.78l2.25,4.38s4.08-27,17.2-34a18.51,18.51,0,0,0-3.21,7.15l5.2-1.23c1.23-5.45,5.8-7.61,9.79-8.47,2.19-.26,4.22-.48,5.42-.6h1c-2,1.71-7.5,1.68-7.5,1.68L180.68,203c5.8,1.41,11.43-1.06,15.1-3.33a16,16,0,0,1-2.07,2.91l3.23.84a6.94,6.94,0,0,0,2.65-3.37,14.81,14.81,0,0,1,9.68,9C212.27,217.68,212.3,203.22,209.27,197.94Z" fill="#2f2e41"/><path d="M123,268.72c3.43-5.56,19.21-2.44,21.8-6.8s10.67-5.42,14.06-5.42,32.21,5.57,32.21,5.57,29.36-5.57,32.31-5.57S236.06,265,236.06,265s17.91,2.19,20.09,3.75-1.95,10.28-6.3,15.37-22.49,11.56-22.49,11.56L222,355.05H163.16L154,293.89S112.53,285.79,123,268.72Z" fill="#f48225" data-secondary="true"/><path d="M129.24,280.6a7.52,7.52,0,0,1-5-7.34c0-5.78,3.47.65,8.27.65s10.41-.3,11.59.77,6.35,9.07,7.44,10.52,5.29,3.39,4.8,4.69S135.8,289.85,129.24,280.6Z" opacity="0.2"/><path d="M149.44,285.32s-4.9-10.16-8.41-10.16h-9.78s-8.22,14-9.79,16-8.89,3.37-11.29,6S93,335.58,93,335.58l17.2,3.37s23-23.62,23-28S149.44,285.32,149.44,285.32Z" fill="#f9b499"/><path d="M224.23,291.44c2,2.37,14-1.83,16.61-4.08S255,274.5,255,270.88s-4.68,3.41-9.25,3.41-10.22-.65-11.78.91S222.78,289.73,224.23,291.44Z" opacity="0.2"/><path d="M228.79,285.32s4.9-10.16,8.41-10.16H247s8.23,14,9.79,16,8.88,3.37,11.28,6,17.2,38.4,17.2,38.4L268.05,339s-23-23.62-23-28S228.79,285.32,228.79,285.32Z" fill="#f9b499"/><path d="M169.63,283.81c1.11-.28,2.21-.54,3.32-.77l.15,2c-1.1.23-2.19.49-3.28.77.18,2.09.4,4.18.63,6.28-.81.22-1.63.45-2.44.69-.64-4.74-1.12-9.54-1.45-14.35q3.45-.93,7-1.6c0,.63.07,1.23.09,1.87-1.44.27-2.87.59-4.31.93Q169.46,281.76,169.63,283.81Z" fill="#fff"/><path d="M180.88,290.08a4.54,4.54,0,0,1-.32-1.89l-.11-2.38c0-1.35-.59-1.81-1.76-1.64l-.9.14c.11,2.05.24,4.1.37,6.12-.83.13-1.65.28-2.45.44q-.57-7.11-.85-14.27c1.33-.23,2.66-.43,4-.6,2.77-.34,4,.58,4,2.61v1.05a3,3,0,0,1-1.64,3h0c1.32.33,1.76,1.37,1.81,2.9,0,.79,0,1.57.06,2.34a4.45,4.45,0,0,0,.35,1.87Zm-3.34-12c0,1.4.09,2.79.16,4.19l1-.15c1-.13,1.54-.56,1.51-1.66v-1.35c0-.95-.44-1.32-1.38-1.22Z" fill="#fff"/><path d="M184.55,275.5c.89,0,1.78-.1,2.68-.12v14.19c-.84,0-1.67.07-2.45.13Q184.61,282.61,184.55,275.5Z" fill="#fff"/><path d="M189.21,275.34c1.42,0,2.82,0,4.24.06,2.69.11,4,1.37,3.87,3.48-.09,2.44-.2,4.78-.31,7.17a3.33,3.33,0,0,1-3,3.58,3.52,3.52,0,0,1-.86-.05c-1.32,0-2.64-.07-4,0Q189.16,282.41,189.21,275.34Zm2.65,1.86-.18,10.12h1.43c.81,0,1.31-.33,1.35-1.41.07-2.44.15-4.89.22-7.34a1.18,1.18,0,0,0-1.31-1.34Z" fill="#fff"/><path d="M206.43,291.34c-.81-.18-1.63-.35-2.45-.51,0-.95-.11-1.92-.17-2.89-1-.18-2.06-.34-3.1-.49l-.63,2.74-2.29-.27q1.54-7,3.39-13.88c1.31.16,2.61.35,3.91.57Q206.09,284,206.43,291.34Zm-5.31-5.87c.82.11,1.64.25,2.45.38-.18-2.45-.43-4.86-.73-7.25h0c-.62,2.28-1.17,4.57-1.72,6.87Z" fill="#fff"/><path d="M209.38,286.87q-1-4.9-2.45-9.91c.93.18,1.85.38,2.77.58q.81,3.31,1.39,6.61h0c.83-1.88,1.68-3.76,2.56-5.61.83.23,1.65.46,2.45.72q-2.22,4.1-4.27,8.27c-.21,1.68-.43,3.37-.68,5.05-.8-.23-1.62-.47-2.44-.67C209,290.23,209.18,288.55,209.38,286.87Z" fill="#fff"/><path d="M184.23,266.36l1.48-.08v6.25l-1.47.08C184.22,270.53,184.22,268.44,184.23,266.36Z" fill="#fff"/><path d="M186.36,266.25c1.53,0,3.06-.07,4.58-.06v.86h-1.55v5.38h-1.45V267h-1.55Z" fill="#fff"/><path d="M191.58,267.11v-.91H193V267c-.23.31-.45.63-.67.94h-.6l.4-.85Z" fill="#fff"/><path d="M196,266.3c1.45.1,2.17.71,2.13,1.68v.18l-1.39-.1v-.23c0-.43-.25-.61-.72-.65s-.74.13-.75.55.28.8,1.22,1.42c1.23.81,1.58,1.37,1.57,2.09,0,1-.81,1.57-2.24,1.48s-2.17-.72-2.14-1.74v-.4l1.38.07v.45c0,.46.28.65.75.67s.76-.11.77-.57-.26-.84-1.22-1.46c-1.23-.8-1.61-1.31-1.58-2C193.83,266.74,194.59,266.22,196,266.3Z" fill="#fff"/><g opacity="0.2"><path d="M154.93,294.23a4.44,4.44,0,0,1-1-.12.24.24,0,0,1,.11-.47,4,4,0,0,0,4.61-2.39c.89-2-.66-6.43-1.9-10-1-3-1.57-4.64-1.28-5.35l.22-.48c.91-2,3.05-6.84,1.58-12.44a.24.24,0,0,1,.18-.29.23.23,0,0,1,.29.17c1.51,5.77-.68,10.67-1.61,12.76l-.21.47c-.24.57.54,2.82,1.29,5,1.27,3.67,2.85,8.23,1.89,10.37A4.49,4.49,0,0,1,154.93,294.23Z"/></g><g opacity="0.2"><path d="M227.36,295.89h0c-4.53-.65-5.66-1.89-6-3.69a54.22,54.22,0,0,1,.5-7.27c.38-3.83.89-9.08.54-9.6-.93-.74-4-10.56-3.54-12.46a.24.24,0,0,1,.47.11c-.41,1.84,2.71,11.44,3.39,12,.48.38.32,3-.38,10a59.9,59.9,0,0,0-.5,7.12c.27,1.36.9,2.63,5.61,3.31a.24.24,0,0,1,0,.48Z"/></g><path d="M313.09,468.74c-6.76,2.44-13,30-13.76,46.25s-16.71,9.88-29,4.56-40.44,14.05-69.47,18-36.31-22.8-57.8-22.58-69,2.63-75.3-7.05,1-23.24-1-37.75-20.8-3.39-30-18c-8.47-13.45-1.32-40.27,6.31-39A4.1,4.1,0,0,1,45,414c8.21,6.81,33.86-7.28,32.43-18.35S143,353.3,143,353.3s93.47,1.39,95,8.73S270,380.71,284,381.93s16,38.46,18.6,41.59c2.14,2.64,17.38,9.79,23.54,19h0a14.84,14.84,0,0,1,2.44,5.82C330.52,460.44,319.88,466.33,313.09,468.74Z" fill="#f48225" data-secondary="true"/><path d="M313.09,468.74c-6.76,2.44-13,30-13.76,46.25s-16.71,9.88-29,4.56-40.44,14.05-69.47,18-36.31-22.8-57.8-22.58-69,2.63-75.3-7.05,1-23.24-1-37.75-20.8-3.39-30-18c-8.47-13.45-1.32-40.27,6.31-39,3.21,4.38,15.9,22.41,21.71,29.36,6.29,7.41,38.84-16.7,45.47-11.46S180,463.49,194,460.8s40.8-15.31,54.17-11.43,10.21,33.89,36.34,19.37,31-34.49,41.59-26.19h0a14.7,14.7,0,0,1,2.44,5.82C330.52,460.44,319.88,466.33,313.09,468.74Z" fill="#f48225" data-secondary="true"/><path d="M313.09,468.74c-6.76,2.44-13,30-13.76,46.25s-16.71,9.88-29,4.56-40.44,14.05-69.47,18-36.31-22.8-57.8-22.58-69,2.63-75.3-7.05,1-23.24-1-37.75-20.8-3.39-30-18c-8.47-13.45-1.32-40.27,6.31-39,3.21,4.38,15.9,22.41,21.71,29.36,6.29,7.41,38.84-16.7,45.47-11.46S180,463.49,194,460.8s40.8-15.31,54.17-11.43,10.21,33.89,36.34,19.37,31-34.49,41.59-26.19h0a14.7,14.7,0,0,1,2.44,5.82C330.52,460.44,319.88,466.33,313.09,468.74Z" opacity="0.2"/><path d="M187.13,528.69l2.31,44.2h10.92L210,528.74s-7.24-3.46-11.17-3.46C196.89,525.28,187.13,528.69,187.13,528.69Z" fill="#f9b499"/><path d="M192.36,595.94c-4.68-.21-8.56-4.37-8.72-5.79a45.35,45.35,0,0,0-2.45-10.86c-2.11-6.74,4.79-13.58,4.79-13.58a44.3,44.3,0,0,0,1-7.34c0-2.63,7.45-6.18,11.76-4.69s5.05,4.24,5.9,5.19,0,8.32,0,8.32a16.25,16.25,0,0,1,3.84,9.7c0,5.43-1.51,6.19-4.15,10S199.57,596.25,192.36,595.94Z" fill="#f48225" data-secondary="true"/><path d="M184.31,589.93c.75-10-5.61-13.46,1.88-17.13s17.68-3.59,20.79,2.45-7,17.35-7,17.35a13.08,13.08,0,0,1-8.08,2.21C187.31,594.53,184.31,589.93,184.31,589.93Z" fill="#2f2e41"/><g opacity="0.6" style="isolation:isolate"><path d="M204.16,578.87h0c-5.16-1-18.91-.85-19.05-.85h0a.24.24,0,1,1,0-.48c.13,0,13.93-.16,19.14.86a.24.24,0,0,1,0,.48Z" fill="#fff"/></g><g opacity="0.6" style="isolation:isolate"><path d="M202.84,583.82h-.06c-5.14-1.11-17-.92-17.15-.91a.25.25,0,0,1-.25-.24.24.24,0,0,1,.24-.25c.12,0,12.06-.19,17.27.92a.24.24,0,0,1,.18.29A.23.23,0,0,1,202.84,583.82Z" fill="#fff"/></g><g opacity="0.6" style="isolation:isolate"><path d="M199.85,587.85c-1.9,0-12.83-1.08-13.31-1.13a.24.24,0,1,1,.05-.48c4.25.42,12.52,1.19,13.41,1.12a.25.25,0,0,1,.26.23.24.24,0,0,1-.22.26Z" fill="#fff"/></g><g opacity="0.6" style="isolation:isolate"><path d="M196.16,591.77c-2.16,0-8.34-.79-8.6-.83a.24.24,0,0,1,.06-.48c.07,0,6.41.83,8.54.83a.24.24,0,0,1,.24.24A.24.24,0,0,1,196.16,591.77Z" fill="#fff"/></g><path d="M160.08,508.32l11.65,33s2.57,7.16,1.84,12.06-.17,14.87,5.58,14.11,2.91-11.39,4.71-15.68-.35-10.33-1.85-12.07-.42-16.47-2.25-24S160.08,508.32,160.08,508.32Z" fill="#2f2e41"/><polygon points="260.62 507.6 275.17 382.42 103.7 384.77 104.72 505.64 260.62 507.6" fill="#f48225" data-secondary="true"/><g clip-path="url(#b5ab0d00-5900-4c7e-a49e-349628412a85)"><polygon points="260.62 507.6 275.17 382.42 103.7 384.77 104.72 505.64 260.62 507.6" fill-opacity="0.7" opacity="0.5" style="isolation:isolate"/><polygon points="104.72 464.05 125.51 468.24 125.51 493.88 246.69 493.88 250.79 471.01 263.94 471.01 275.17 382.42 103.7 384.77 104.72 464.05" fill-opacity="0.7" opacity="0.4" style="isolation:isolate"/></g><path d="M260.62,508.1h0l-155.9-2a.49.49,0,0,1-.49-.49l-1-120.88a.5.5,0,0,1,.49-.5l171.47-2.35a.46.46,0,0,1,.38.16.53.53,0,0,1,.13.4L261.12,507.66A.5.5,0,0,1,260.62,508.1Zm-155.4-3,155,1.94,14.43-124.16L104.2,385.26Z" fill="#ccc"/><path d="M120.73,321a.5.5,0,0,1-.49-.44c0-.14-1.09-13.65,13.83-17.07,4.93-1.13,8.84-.62,11.63,1.51,3.87,3,4.09,8,4.1,8.18a.49.49,0,0,1-1,0s-.22-4.75-3.73-7.44c-2.54-2-6.18-2.4-10.81-1.34-14.08,3.23-13.13,15.52-13.08,16a.48.48,0,0,1-.44.52Z" fill="#2f2e41"/><polygon points="87.6 442.17 94.52 415.62 91.56 321.14 170.81 304.95 206.52 389.2 223.9 411.13 211.8 432.11 117.34 452.17 87.6 442.17" fill="#2f2e41"/><g clip-path="url(#f2c82ee1-6c2a-449b-af0f-8248b2189375)"><polygon points="223.9 411.13 211.8 432.11 117.33 452.17 87.6 442.17 87.73 441.66 93.34 420.15 94.51 415.62 94.41 412.42 91.56 321.14 170.81 304.95 178.87 323.97 206.52 389.2 223.9 411.13" fill-opacity="0.7" opacity="0.3" style="isolation:isolate"/><polygon points="139.58 330.48 143.7 328.65 146.82 331.92 151.26 331.18 153.47 335.11 157.96 335.5 159.13 339.86 163.38 341.35 163.42 345.87 167.18 348.37 166.09 352.75 169.1 356.12 166.97 360.08 169.03 364.09 165.98 367.41 167 371.8 163.21 374.25 163.1 378.76 158.83 380.19 157.6 384.52 153.11 384.85 150.83 388.76 146.4 387.95 143.24 391.17 139.14 389.28 135.27 391.61 131.77 388.76 127.44 390.05 124.76 386.42 120.26 386.6 118.56 382.42 114.16 381.46 113.55 377 109.51 374.98 110.03 370.5 106.63 367.54 108.25 363.34 105.69 359.63 108.31 355.96 106.74 351.73 110.19 348.81 109.74 344.32 113.8 342.37 114.47 337.92 118.89 337.02 120.65 332.88 125.17 333.12 127.89 329.54 132.2 330.89 135.75 328.1 139.58 330.48" fill="#2f2e41"/><polygon points="223.9 411.13 211.8 432.11 117.33 452.17 87.6 442.17 87.73 441.66 113.73 436.22 93.34 420.15 94.51 415.62 94.41 412.42 144.41 388.89 178.87 323.97 206.52 389.2 223.9 411.13" fill-opacity="0.7" opacity="0.2" style="isolation:isolate"/></g><path d="M117.34,452.42l-.08,0-29.74-10a.26.26,0,0,1-.16-.3l6.92-26.51-3-94.44a.24.24,0,0,1,.19-.24l79.25-16.2a.24.24,0,0,1,.27.14l35.7,84.22L224.09,411a.24.24,0,0,1,0,.27l-12.1,21a.25.25,0,0,1-.16.12l-94.46,20.06ZM87.89,442l29.46,9.91,94.3-20,12-20.75-17.28-21.8,0-.06-35.63-84.07L91.81,321.34l3,94.27s0,.05,0,.07Z" fill="#2f2e41"/><rect x="85.93" y="426.78" width="134.29" height="1" transform="translate(-90.59 44.36) rotate(-12.76)" fill="#2f2e41"/><path d="M116.29,319.51a.49.49,0,0,1-.45-.28c-.18-.41-4.55-10.08-1.54-17.73a12.66,12.66,0,0,1,7.36-7.17c5.81-2.38,11.05-2.16,15.13.65,4.81,3.31,7.58,10,7.39,17.92a.48.48,0,0,1-.48.47h0a.48.48,0,0,1-.47-.5c.17-7.58-2.44-14-7-17.09-3.8-2.62-8.72-2.8-14.22-.55a11.68,11.68,0,0,0-6.81,6.62c-2.87,7.27,1.47,16.88,1.52,17a.5.5,0,0,1-.24.65A.51.51,0,0,1,116.29,319.51Z" fill="#2f2e41"/><polyline points="99.26 441.92 124.95 442.64 117.89 449.08" fill="none" stroke="#263238" stroke-linecap="round" stroke-linejoin="round"/><polyline points="130.54 441.63 200.23 427.41 213.09 416.72" fill="none" stroke="#263238" stroke-linecap="round" stroke-linejoin="round"/><line x1="200.23" y1="427.42" x2="208.52" y2="429.88" fill="none" stroke="#263238" stroke-linecap="round" stroke-linejoin="round"/><rect x="93.16" y="403.32" width="104.8" height="1" transform="translate(-86.97 43.01) rotate(-12.98)" fill="#2f2e41"/><path d="M269.11,330.78l-.87-.5s2.36-4.16.83-8.31c-1.11-3-3.93-5.31-8.38-6.88-13.6-4.78-19.54,6.44-19.6,6.55l-.89-.46c.06-.12,6.41-12.11,20.82-7,4.76,1.68,7.78,4.19,9,7.48C271.7,326.23,269.21,330.59,269.11,330.78Z" fill="#2f2e41"/><polygon points="147.49 406.33 167.57 387.64 215.7 306.29 291.28 335.1 276.27 425.36 279.19 453.19 257.74 464.42 167.22 430.73 147.49 406.33" fill="#2f2e41"/><g clip-path="url(#a1fe0e22-4bd4-49bc-b20d-4eec12c71c01)"><polygon points="280.39 400.58 276.27 425.36 279.19 453.2 257.74 464.42 167.22 430.73 147.65 406.54 147.49 406.35 147.62 406.24 148.52 405.39 167.56 387.64 176.94 371.79 215.7 306.29 289.36 334.37 291.28 335.1 280.39 400.58" fill-opacity="0.7" opacity="0.2" style="isolation:isolate"/><polygon points="254.09 341.27 258.53 342.01 259.35 346.45 263.48 348.28 263.16 352.78 266.69 355.58 265.27 359.85 268 363.45 265.57 367.24 267.32 371.38 264 374.45 264.67 378.91 260.71 381.06 260.25 385.54 255.87 386.64 254.3 390.86 249.79 390.84 247.23 394.54 242.86 393.39 239.45 396.34 235.52 394.14 231.49 396.14 228.22 393.04 223.8 393.98 221.42 390.16 216.9 389.98 215.54 385.69 211.23 384.39 210.97 379.89 207.12 377.55 207.99 373.12 204.83 369.9 206.77 365.84 204.51 361.94 207.41 358.49 206.2 354.15 209.86 351.52 209.76 347.02 213.97 345.38 214.98 340.99 219.47 340.46 221.55 336.46 226.02 337.05 229.03 333.69 233.21 335.38 236.97 332.89 240.6 335.55 244.86 334.07 247.71 337.56 252.2 337.18 254.09 341.27" fill="#2f2e41"/><polygon points="313.04 462.94 315.97 490.79 294.51 502 204 468.31 184.26 443.93 204.33 425.23 213.71 409.38 326.13 371.95 328.05 372.69 313.04 462.94" fill="#fff" fill-opacity="0.7" opacity="0.2" style="isolation:isolate"/><path d="M276.3,425.36l2.92,27.84-21.46,11.22-90.52-33.69-19.58-24.19v-.3c-.07-.77-.12-1.23-.12-1.23l1,.36L274,449.05l-90-57.05,96.36,8.56Z" fill-opacity="0.7" opacity="0.2" style="isolation:isolate"/></g><path d="M257.74,464.66h-.09L167.14,431a.27.27,0,0,1-.1-.08L147.3,406.49a.24.24,0,0,1,0-.33l20-18.67,48.12-81.32a.23.23,0,0,1,.29-.1l75.58,28.81a.24.24,0,0,1,.15.26l-15,90.23,2.92,27.79a.25.25,0,0,1-.13.24l-21.46,11.23A.23.23,0,0,1,257.74,464.66Zm-90.37-34.14,90.35,33.63,21.22-11.1L276,425.38v-.06l15-90.06-75.2-28.67-48,81.18-.05.05-19.91,18.54Z" fill="#2f2e41"/><rect x="210.24" y="361.72" width="1" height="134.29" transform="matrix(0.34, -0.94, 0.94, 0.34, -263.98, 483.46)" fill="#2f2e41"/><path d="M264.56,327.55l-.83-.55c4.2-6.3,5.41-13.08,3.25-18.16-1.8-4.24-5.84-7-11.68-8.07a11.68,11.68,0,0,0-9.29,1.92c-6.31,4.6-7.79,15-7.8,15.13l-1-.13c.06-.45,1.55-11,8.2-15.81a12.68,12.68,0,0,1,10.06-2.1c6.18,1.11,10.48,4.11,12.42,8.67C270.2,313.84,269,321,264.56,327.55Z" fill="#2f2e41"/><polyline points="157.47 412.39 178.76 426.75 169.35 428.4" fill="none" stroke="#3f3d56" stroke-miterlimit="10"/><polygon points="250.42 454.78 183.85 429.37 184.21 428.44 250.54 453.75 267.01 451.62 267.14 452.61 250.42 454.78" fill="#2f2e41"/><rect x="252.82" y="453.2" width="1" height="8.65" transform="translate(-238 278.33) rotate(-40.99)" fill="#2f2e41"/><path d="M155.76,389.94h-.09a1,1,0,0,1-.92-1.08c0-.14,1.35-14.08,17.12-14.9,5.21-.28,9.13,1,11.62,3.65,3.49,3.78,2.83,9,2.8,9.2a1,1,0,1,1-2-.27s.55-4.51-2.3-7.59c-2.07-2.22-5.44-3.24-10-3-14,.72-15.18,12.56-15.22,13.06A1,1,0,0,1,155.76,389.94Z" fill="#2f2e41"/><g opacity="0.2"><path d="M155.76,389.94h-.09a1,1,0,0,1-.92-1.08c0-.14,1.35-14.08,17.12-14.9,5.21-.28,9.13,1,11.62,3.65,3.49,3.78,2.83,9,2.8,9.2a1,1,0,1,1-2-.27s.55-4.51-2.3-7.59c-2.07-2.22-5.44-3.24-10-3-14,.72-15.18,12.56-15.22,13.06A1,1,0,0,1,155.76,389.94Z" fill="#fff"/></g><polygon points="241.65 496 226.09 514.56 129.58 517.94 102.03 502.93 102.28 502.4 113.45 477.98 126.92 384.43 207.78 382.22 215.81 417.08 228.33 471.39 241.6 495.91 241.65 496" fill="#2f2e41"/><g clip-path="url(#b14ee95d-8930-4e40-99f4-6315f9b0214e)"><polygon points="241.65 496 226.09 514.56 129.58 517.94 102.03 502.93 102.28 502.4 241.6 495.91 241.65 496" fill-opacity="0.7" opacity="0.2" style="isolation:isolate"/><polygon points="176.5 404.18 180.88 403.13 183.36 406.9 187.86 406.98 189.33 411.24 193.67 412.44 194.03 416.94 197.94 419.18 197.17 423.62 200.4 426.76 198.55 430.88 200.9 434.73 198.08 438.25 199.4 442.56 195.79 445.27 196 449.77 191.84 451.5 190.91 455.92 186.44 456.55 184.46 460.6 179.97 460.1 177.03 463.52 172.81 461.94 169.12 464.52 165.44 461.94 161.22 463.51 158.28 460.09 153.81 460.58 151.81 456.53 147.36 455.88 146.44 451.46 142.27 449.74 142.49 445.22 138.88 442.52 140.2 438.2 137.4 434.68 139.75 430.84 137.9 426.73 141.13 423.58 140.37 419.14 144.29 416.9 144.64 412.42 149 411.22 150.47 406.96 154.98 406.89 157.45 403.12 161.84 404.17 165.18 401.14 169.17 403.25 173.16 401.15 176.5 404.18" fill="#2f2e41"/><polygon points="228.33 471.39 118.72 477.98 215.81 417.08 228.33 471.39" fill-opacity="0.7" opacity="0.2" style="isolation:isolate"/></g><path d="M129.58,518.18a.2.2,0,0,1-.11,0l-27.55-15a.25.25,0,0,1-.11-.31l.25-.53,11.15-24.38,13.47-93.53a.24.24,0,0,1,.23-.21l80.86-2.2a.25.25,0,0,1,.24.19l8,34.85,12.51,54.28,13.31,24.6a.25.25,0,0,1,0,.26l-15.56,18.56a.25.25,0,0,1-.18.08l-96.51,3.38Zm-27.23-15.36,27.29,14.87L226,514.32,241.36,496l-13.24-24.46,0-.06-12.51-54.32-8-34.66-80.46,2.19L113.69,478a.64.64,0,0,0,0,.07Z" fill="#2f2e41"/><rect x="101.95" y="499.13" width="134.29" height="1" transform="translate(-24.21 8.86) rotate(-2.8)" fill="#2f2e41"/><path d="M151.64,387.63a1,1,0,0,1-1-.75c-.11-.44-2.8-11,1.63-18.16a13.06,13.06,0,0,1,8.79-6c8-1.72,12.71.92,15.26,3.44,4.28,4.23,5.88,11.47,4.28,19.35a1,1,0,0,1-2-.4c1.47-7.22.08-13.77-3.72-17.52-3.16-3.12-7.81-4.13-13.44-2.92a11.17,11.17,0,0,0-7.51,5.07c-4,6.48-1.42,16.5-1.39,16.6a1,1,0,0,1-.72,1.22A.73.73,0,0,1,151.64,387.63Z" fill="#2f2e41"/><g opacity="0.2"><path d="M151.64,387.63a1,1,0,0,1-1-.75c-.11-.44-2.8-11,1.63-18.16a13.06,13.06,0,0,1,8.79-6c8-1.72,12.71.92,15.26,3.44,4.28,4.23,5.88,11.47,4.28,19.35a1,1,0,0,1-2-.4c1.47-7.22.08-13.77-3.72-17.52-3.16-3.12-7.81-4.13-13.44-2.92a11.17,11.17,0,0,0-7.51,5.07c-4,6.48-1.42,16.5-1.39,16.6a1,1,0,0,1-.72,1.22A.73.73,0,0,1,151.64,387.63Z" fill="#fff"/></g><path d="M130.66,515.49a.48.48,0,0,1-.42-.23.5.5,0,0,1,.15-.69l7-4.45-24-4.92a.49.49,0,0,1-.39-.59.5.5,0,0,1,.59-.39l25.17,5.17a.49.49,0,0,1,.17.91l-8.07,5.11A.56.56,0,0,1,130.66,515.49Z" fill="#2f2e41"/><polygon points="144.42 510.35 144.4 509.35 215.37 507.45 229.78 499.19 230.28 500.06 215.65 508.44 215.52 508.44 144.42 510.35" fill="#2f2e41"/><line x1="215.52" y1="507.94" x2="223.26" y2="511.81" fill="none" stroke="#3f3d56" stroke-miterlimit="10"/><rect x="113.37" y="474.72" width="104.8" height="1" transform="translate(-24.84 9.41) rotate(-3.02)" fill="#2f2e41"/><path d="M278.72,508.56H100.16a.72.72,0,0,1-.72-.64L79.41,339a.74.74,0,0,1,.18-.57.76.76,0,0,1,.55-.24h218.6a.76.76,0,0,1,.55.24.78.78,0,0,1,.18.57l-20,168.88A.72.72,0,0,1,278.72,508.56Zm-177.91-1.45H278.07l19.85-167.43H81Z" fill="#ccc"/><path d="M252.34,508.56h-.06a.72.72,0,0,1-.66-.79l14-168.09H113.22l14,168.09a.72.72,0,0,1-.66.79.74.74,0,0,1-.79-.67L111.71,339a.71.71,0,0,1,.19-.56.7.7,0,0,1,.53-.23h154a.7.7,0,0,1,.53.23.71.71,0,0,1,.19.56l-14.1,168.87A.73.73,0,0,1,252.34,508.56Z" fill="#ccc"/><path d="M222.8,508.56h0a.73.73,0,0,1-.7-.76l7.46-168.12H149.35l7.46,168.12a.74.74,0,0,1-.7.76.73.73,0,0,1-.76-.69L147.87,339a.73.73,0,0,1,.2-.54.71.71,0,0,1,.52-.22h81.7a.74.74,0,0,1,.52.22.73.73,0,0,1,.2.54l-7.48,168.88A.73.73,0,0,1,222.8,508.56Z" fill="#ccc"/><path d="M189.44,508.56a.73.73,0,0,1-.73-.73V339a.73.73,0,0,1,1.46,0V507.83A.73.73,0,0,1,189.44,508.56Z" fill="#ccc"/><rect x="73.57" y="330.45" width="231.76" height="12.06" rx="4.05" fill="#ccc"/><path d="M294.62,373.41H84.26a.73.73,0,1,1,0-1.46H294.62a.73.73,0,0,1,0,1.46Z" fill="#ccc"/><path d="M289.91,408.3H89a.73.73,0,1,1,0-1.46H289.91a.73.73,0,1,1,0,1.46Z" fill="#ccc"/><path d="M285.6,443.17H93.28a.72.72,0,0,1-.73-.72.73.73,0,0,1,.73-.73H285.6a.73.73,0,0,1,.73.73A.72.72,0,0,1,285.6,443.17Z" fill="#ccc"/><path d="M281.75,478.06H97.13a.73.73,0,1,1,0-1.45H281.75a.73.73,0,1,1,0,1.45Z" fill="#ccc"/><path d="M98.21,558.37h-9.6a4,4,0,0,0-4,4h0v18.85c0,3.39,2.7,5.45,3.42,2.61l4.89-19.21A3.21,3.21,0,0,1,96,562.19H99.2v19c0,3.39,2.69,5.44,3.41,2.6l4.5-17.77a4.65,4.65,0,0,0-2.67-5.43l-4.36-1.89A4.81,4.81,0,0,0,98.21,558.37Z" fill="#939598"/><path d="M86.44,568.68c-3.22,0-5.83,6.59-5.83,14.68S83.22,598,86.44,598H99.17V568.68Z" fill="#ccc"/><ellipse cx="99.17" cy="583.41" rx="5.81" ry="14.72" fill="#ccc"/><ellipse cx="99.17" cy="583.41" rx="5.81" ry="14.72" fill="#bcbec0"/><path d="M103.31,583.45c0,4.06-1.3,7.34-2.92,7.34s-2.91-3.29-2.91-7.34,1.31-7.34,2.91-7.34S103.31,579.34,103.31,583.45Z" opacity="0.2"/><path d="M104.42,560.63l-4.37-1.88a4.66,4.66,0,0,0-1.84-.38H95.15v4a2.57,2.57,0,0,1,.87-.15h3.15v19c0,3.39,2.69,5.45,3.41,2.61l4.51-17.78A4.65,4.65,0,0,0,104.42,560.63Z" fill="#939598"/><path d="M94.19,549v10.8l7.55,1.08,1.57-10.8S101.36,549,94.19,549Z" fill="#939598"/><path d="M280.67,558.37h9.6a4,4,0,0,1,4,4h0v18.85c0,3.39-2.7,5.45-3.42,2.61L286,564.63a3.21,3.21,0,0,0-3.12-2.44h-3.16v19c0,3.39-2.69,5.44-3.41,2.6L271.77,566a4.65,4.65,0,0,1,2.67-5.43l4.36-1.89A4.81,4.81,0,0,1,280.67,558.37Z" fill="#939598"/><path d="M292.44,568.68c3.22,0,5.83,6.59,5.83,14.68S295.66,598,292.44,598H279.71V568.68Z" fill="#ccc"/><ellipse cx="279.71" cy="583.41" rx="5.81" ry="14.72" fill="#bcbec0"/><path d="M275.57,583.45c0,4.06,1.3,7.34,2.91,7.34s2.92-3.29,2.92-7.34-1.31-7.34-2.92-7.34S275.57,579.34,275.57,583.45Z" opacity="0.2"/><path d="M274.46,560.63l4.37-1.88a4.66,4.66,0,0,1,1.84-.38h3.06v4a2.57,2.57,0,0,0-.87-.15h-3.15v19c0,3.39-2.69,5.45-3.41,2.61l-4.51-17.78A4.65,4.65,0,0,1,274.46,560.63Z" fill="#939598"/><path d="M284.69,549v10.8l-7.55,1.08-1.57-10.8S277.52,549,284.69,549Z" fill="#939598"/><path d="M127.65,571.21h-6.5a2.71,2.71,0,0,0-2.71,2.72h0V586.7c0,2.29,1.82,3.67,2.31,1.76l3.3-13a2.19,2.19,0,0,1,2.12-1.65h2.1V586.7c0,2.29,1.83,3.67,2.32,1.76l3-12a3.16,3.16,0,0,0-1.81-3.67l-3-1.22A3,3,0,0,0,127.65,571.21Z" fill="#939598"/><path d="M119.71,578.19c-2.18,0-3.94,4.46-3.94,10s1.73,10,3.94,10h8.56V578.19Z" fill="#ccc"/><ellipse cx="128.3" cy="588.16" rx="3.94" ry="9.97" fill="#bcbec0"/><path d="M131.1,588.16c0,2.75-.88,5-2,5s-2-2.22-2-5,.88-5,2-5S131.1,585.4,131.1,588.16Z" opacity="0.2"/><path d="M131.86,572.73l-3-1.22a3.05,3.05,0,0,0-1.23-.26h-2.09V574a2.36,2.36,0,0,1,.59-.11h2.1v12.9c0,2.28,1.83,3.67,2.32,1.76l3-12A3.15,3.15,0,0,0,131.86,572.73Z" fill="#939598"/><path d="M124.93,564.86v7.34l5.12.73,1-7.34S129.8,564.86,124.93,564.86Z" fill="#939598"/><path d="M251.23,571.21h6.5a2.72,2.72,0,0,1,2.71,2.72h0V586.7c0,2.29-1.82,3.67-2.31,1.76l-3.3-13a2.19,2.19,0,0,0-2.12-1.65h-2.1V586.7c0,2.29-1.83,3.67-2.32,1.76l-3-12a3.16,3.16,0,0,1,1.81-3.67l3-1.22A3,3,0,0,1,251.23,571.21Z" fill="#939598"/><path d="M259.17,578.19c2.18,0,3.94,4.46,3.94,10s-1.73,10-3.94,10h-8.56V578.19Z" fill="#ccc"/><ellipse cx="250.58" cy="588.16" rx="3.94" ry="9.97" fill="#bcbec0"/><path d="M247.78,588.16c0,2.75.88,5,2,5s2-2.22,2-5-.88-5-2-5S247.78,585.4,247.78,588.16Z" opacity="0.2"/><path d="M247,572.73l3-1.22a3,3,0,0,1,1.22-.26h2.07V574a2.29,2.29,0,0,0-.58-.11h-2.08v12.9c0,2.28-1.83,3.67-2.32,1.76l-3-12A3.15,3.15,0,0,1,247,572.73Z" fill="#939598"/><path d="M254,564.86v7.34l-5.13.73-1.05-7.34S249.08,564.86,254,564.86Z" fill="#939598"/><polygon points="242.09 522.15 136.54 522.15 100.16 507.83 278.49 507.83 242.09 522.15" fill="#a7a9ac"/><path d="M254,565.59h-129a.92.92,0,0,1-.28-.05l-38.4-15.86a.73.73,0,0,1-.39-.95.72.72,0,0,1,1-.39l1.19.49a.74.74,0,0,1,.71-.55H290.18a.73.73,0,0,1,.29,1.4l-36.22,15.85A.72.72,0,0,1,254,565.59Zm-128.89-1.45H253.8l32.9-14.4H90.19Z" fill="#ccc"/><path d="M254,565.59a.7.7,0,0,1-.47-.17l-11.87-9.92a.74.74,0,0,1-.26-.56V522.15a.73.73,0,1,1,1.46,0V554.6l11.6,9.71a.73.73,0,0,1,.1,1A.76.76,0,0,1,254,565.59Z" fill="#ccc"/><path d="M124.92,565.59a.71.71,0,0,1-.55-.25.73.73,0,0,1,.08-1l11.37-9.7V522.15a.73.73,0,1,1,1.45,0v32.79a.73.73,0,0,1-.25.56l-11.63,9.92A.73.73,0,0,1,124.92,565.59Z" fill="#ccc"/><path d="M454.46,178.32s9-4.16,8.73-19.82" fill="none" stroke="#ccc" stroke-miterlimit="10"/><circle cx="447.32" cy="184.14" r="10.95" fill="#ccc"/><circle cx="447.32" cy="184.14" r="10.95" opacity="0.2"/><rect x="425.43" y="421.42" width="69.47" height="45.61" fill="#939598"/><circle cx="440.12" cy="433.61" r="5.2" fill="#ccc"/><path d="M445.45,450.66H434.64a.49.49,0,0,1,0-1h10.81a.49.49,0,1,1,0,1Z" fill="#ccc"/><path d="M461.25,450.66H450.44a.49.49,0,0,1,0-1h10.81a.49.49,0,1,1,0,1Z" fill="#ccc"/><path d="M478.71,450.66H467.9a.49.49,0,0,1,0-1h10.81a.49.49,0,1,1,0,1Z" fill="#ccc"/><path d="M457.79,459.81H434.36a.49.49,0,0,1,0-1h23.43a.49.49,0,0,1,0,1Z" fill="#ccc"/><path d="M577.6,354H552.13a.73.73,0,1,1,0-1.45H577.6a.73.73,0,1,1,0,1.45Z" fill="#ccc"/><path d="M593.31,363H552.13a.73.73,0,1,1,0-1.46h41.18a.73.73,0,0,1,0,1.46Z" fill="#ccc"/><path d="M577.6,457.63H552.13a.73.73,0,0,1,0-1.46H577.6a.73.73,0,1,1,0,1.46Z" fill="#ccc"/><path d="M593.31,466.54H552.13a.73.73,0,0,1-.73-.73.73.73,0,0,1,.73-.72h41.18a.73.73,0,0,1,.73.72A.73.73,0,0,1,593.31,466.54Z" fill="#ccc"/><polygon points="552.56 425.3 574.63 394.92 589.07 414.87 595.86 404.68 612.41 425.91 552.56 425.3" fill="#ccc"/><path d="M744.76,337.86c0-21.47-12.2-40.49-12.2-51.09s8.29-18.61,15-27.65,18.47-9.5,18.47-9.5,12.67-3.53,22.44,2.41,0,39.72-2.89,65.32c-1.77,15.63-.79,21.73,1.68,26.45l-43.41,6.83A81.57,81.57,0,0,0,744.76,337.86Z" fill="#686175" data-primary="true"/><path d="M691.62,281.82c-2-1.85-1,2.44-4.1-1.2s.59-5.74,2.69-10.5,3.46-1.91,3.46-1.91c-3.06-4.94-11.87-4.19-9.29-6.7s11.1,2.54,16,6.83,5.3,12.22,5.3,12.22l23,26.16s10.09-20.14,16.43-32.88,16.08-21.41,17.8-11.54-1.11,21.55-6.5,30.52-19.56,33.18-28,32.5-28.07-36.75-28.07-36.75C691,285.58,693.65,283.67,691.62,281.82Z" fill="#f9b499"/><path d="M745.84,452s5.75,8.28,7.59,34.31c.73,10.43-.75,27.2-.84,43.57-.16,24.48-.85,48.09-.85,48.09s3.73,7.44,4.81,12.18-7.44,6.47-13.79,6.47-29.45,3.13-30.65,0c-1.44-3.57,4.24-3.77,9.52-5.59s17.3-12.49,17.3-12.49-3.69-21.35-8.35-60.86-1.85-58.74-1.85-58.74Z" fill="#f9b499"/><path d="M783.14,447.81s7.91,6.79,17,31.25c3.23,8.67,5.78,22.13,9.81,35.88,7.33,25.07,14.22,51.13,14.22,51.13a108,108,0,0,1,8.16,11.33c2.37,4.24-5.29,8.33-11.39,10.1s-25.34,12.25-29.42,8.64c-2.89-2.54,1.82-4.5,6.43-7.72s14.43-18.24,14.43-18.24-9.74-18.39-25.35-55-19.67-44.45-18.33-55.83C769.25,454.75,783.14,447.81,783.14,447.81Z" fill="#f9b499"/><path d="M808.71,450.67c.13,8.73-5.62,14.17-22.57,12.89s-15.14,7.75-27.92,3.31-25.38-2.5-38.28,0-5.75-12.21,6.26-55.76,18.56-51.82,18.56-73.26c0-.91-.07-1.78-.07-2.67,6-2.3,19.63-6,40-3.32.23,11.66,4,13.52,8.78,21.38,10.63,17.22,12.43,34.37,11.64,50.13S808.58,441.94,808.71,450.67Z" fill="#2f2e41"/><path d="M768.78,338.6A77.54,77.54,0,0,0,747.87,343V336.5a107.84,107.84,0,0,1,19.78-3.32Z" fill="#686175" data-primary="true"/><path d="M771.49,333.16c4.17,0,7.81.15,10.73.38a36.91,36.91,0,0,0,.7,4.81c-3-.14-6.46-.17-10.22,0Z" fill="#686175" data-primary="true"/><path d="M756.38,292.82a22.45,22.45,0,0,0-14-13.54l2.7-5.44c6.35-12.75,16.07-21.41,17.8-11.54S761.77,283.91,756.38,292.82Z" fill="#686175" data-primary="true"/><path d="M756.38,292.82a22.45,22.45,0,0,0-14-13.54l2.7-5.44c6.35-12.75,16.07-21.41,17.8-11.54S761.77,283.91,756.38,292.82Z" opacity="0.2"/><path d="M742.71,596.59c-6.34,0-29.45,3.12-30.65,0-1.43-3.57,4.24-3.78,9.52-5.59s17.3-12.5,17.3-12.5,3.29,1.25,2.7,3.61,5.34-2.18,10.15-4.15c0,0,3.74,7.44,4.81,12.18S749.06,596.59,742.71,596.59Z" fill="#686175" data-primary="true"/><path d="M712.09,596.61a2.08,2.08,0,0,1,.09-2c1.54.52,4.23.9,8.94.52,12.42-1,17.1-1.22,20-1.4s14.8-.32,14.93-5.32c.19.61.36,1.2.48,1.75,1.08,4.74-7.43,6.47-13.79,6.47S713.34,599.74,712.09,596.61Z" fill="#fff"/><path d="M824.18,566.07a108,108,0,0,1,8.16,11.33c2.37,4.24-5.29,8.33-11.39,10.1s-25.34,12.25-29.42,8.64c-2.89-2.54,1.82-4.5,6.43-7.72s14.43-18.24,14.43-18.24,2.88-.86,2.88,1.78,3.1,1.34,4.58-1A31.74,31.74,0,0,1,824.18,566.07Z" fill="#686175" data-primary="true"/><path d="M788.36,188.57c26.9,19.9,16.56,59.72,14.19,79.52s25.56,39.51-2.08,47.12-36.19-9.43-35.48-30.86,4.31-33.26-3.22-34.09S765,226.11,765,226.11l-1.39-5.33s-6.66-7.85-8.73-13.91-8-13.9-9-11.08,4.72,6.78,3.4,8.11-22.61-8.08-18.77-21.64,29.75,0,29.75,0S766,172,788.36,188.57Z" fill="#2f2e41"/><path d="M762.49,229c7.36-.4,9.38-11.64,5.24-13.5s-7.49,4.24-7.49,4.24" fill="#f9b499"/><path d="M821,587.5c-6.1,1.76-25.33,12.25-29.42,8.64a2.22,2.22,0,0,1-.44-.37,1.82,1.82,0,0,1,.2-2.56c0,.15-.3,3.14,5.62.62s16.55-7.54,21.72-9.16,14.24-4.23,13-8.55c.28.45.55.88.76,1.28C834.76,581.64,827.1,585.73,821,587.5Z" fill="#fff"/></svg>