<svg xmlns="http://www.w3.org/2000/svg" xmlns:xlink="http://www.w3.org/1999/xlink" width="865.76" height="682.89" viewBox="0 0 865.76 682.89"><defs><clipPath id="f947f796-8e32-42ed-8c16-a5816ff4ac7c"><rect id="ea3e79f2-03ee-43f7-a184-81063b9bc336" data-name="SVGID" width="865.76" height="683.45" fill="none"/></clipPath></defs><g style="isolation:isolate"><g id="a87f3e5b-f032-48fd-9986-8ddedcfce14c" data-name="Layer 1"><g clip-path="url(#f947f796-8e32-42ed-8c16-a5816ff4ac7c)"><rect x="-68.3" y="534.68" width="1106.33" height="148.22" fill="#58595b"/><path d="M1037.1,232.42v14.69h-4.42V232.42h-3.61v14.69H992.53v10.63H979v1.78h-4.5v23.64H956.91v-74h-2.73v48.91H935.66v-77.7h-9.5v-7.22H924V172h-.87v-2h-1.6V155h-1L920,141.85h-.45L919,155h-1v15h-1.6v2h-.87v1.11h-2.14v7.22H886.9l-15.24,23.4v18.48h-8.32v17h-5c-.14.3-.27.61-.43.91v30.1h-9.67V256.85L836,249.65V126.31H797.63v-45H771.88v45H754.21v83.35H738v-8.33h-1.16v73.86h-6.11V225.53H697.79v49.66h-5.51v76.55h-2v-4.41h-5.55V146.6H657.86V271.43h-13.5v2h-4.5v26.2H610.67V247.11h-9.36V232.42H597.7v14.69h-4.42V232.42h-3.61v14.69H553.13v10.63h-13.5v1.78h-4.5v23.64H517.51v-74h-2.73v48.91H496.26V187.67H442.73l-10.47,16.08v18.48h-8.32v17h-5c-.14.3-.27.61-.43.91v30.1h-9.67V256.85l-12.27-7.2V126.31H358.23v-45H332.48v45H314.81v83.35H298.55v-8.33h-1.16v73.86h-6.11V225.53H258.39v45.9h-11V146.6H220.53v57.63H187.77v12.2h-13.5v2h-4.5v27.15h-1.32V201.33h-1.16v8.33H151V110.84H82V249.65l-12.27,7.2v13.38H60v-30.1c-.16-.3-.29-.61-.43-.91h-5v-17H46.28V203.75L31,180.35H4.62v-7.22H2.48V172H1.61v-2H0v-.51l-3.62,0V170h-1.6v2h-.87v1.11H-8.22v7.22h-9.5v77.7H-36.24V209.14H-39v74H-56.58V259.52h-4.5v-1.78H-68.3V536.49H1038.94V232.42Zm-117.6-63H919V156h.48Zm1,0H920V156h.49Z" fill="#ccc" opacity="0.62" style="mix-blend-mode:multiply"/></g><path d="M579.61,577.53V407a93.85,93.85,0,0,1,5.32-31c4.72-13.52,12.7-32.25,24.36-46.64,0,0,19.59-21.44,28-67.53a112.19,112.19,0,0,0,1.73-18.72l1.8-136.69-3.18-2.51V87.47l3.18-1.85V81.13a6.55,6.55,0,0,1,3.8-5.68h0a18.42,18.42,0,0,1,8.41-2h42.68a9.31,9.31,0,0,1,5.49,1.73h0a7.84,7.84,0,0,1,3.4,6.27v3.9L707.18,88v16.13l-2.55,2.64,3,141.74a72.22,72.22,0,0,0,2.51,17.36c4.1,15.24,13.2,45.48,24.06,59,1,1.31,2.13,2.61,3,4l4.53,6.72a175.23,175.23,0,0,1,20.4,39.91c3.58,10.26,6.33,21.6,5.57,30.91l-.92,173.38a20.69,20.69,0,0,1-8.26,16.2c-.67.53-1.39,1.06-2.17,1.6-6.94,4.78-15.63,7.47-24.61,8.18-22.29,1.76-83.7,5.48-129.85-2.6,0,0-16.92-2.62-21.44-18.16A26.66,26.66,0,0,1,579.61,577.53Z" fill="#ccc"/><path d="M706.34,216.67,707,248s.18,52.91,26,83.59c0,0,32.21,47.07,29,75.11l-.32,170.84S763,592.59,717.38,596c0,0-59.31,3.17-101.08-1.59,0,0-18.93-2.68-27.91-11a11.51,11.51,0,0,1-3.66-8.58V409.83a88.88,88.88,0,0,1,1.59-16.74c2.88-15.14,10.29-44.3,26.85-63.4A87.93,87.93,0,0,0,626.09,311c5.93-12.17,13.49-32,14.44-55l-.89-39.14Z" fill="#686175" data-primary="true"/><path d="M578.36,407s162.87,6.25,189.53-.09L767,558.41s-95.46,16.47-188.62,0Z" fill="#2f2e41"/><polygon points="639.53 199.25 706.27 199.25 706.63 217.21 639.53 217.5 639.53 199.25" fill="#2f2e41"/><polygon points="639.53 199.25 706.27 199.25 706.63 217.21 639.53 217.5 639.53 199.25" opacity="0.2"/><path d="M640.85,106.38l-3.18-2.51V87.47l3.18-1.85s-3.38-12.23,12.21-12.17h42.68s10.43.19,8.89,11.9L707.18,88v16.13l-2.55,2.64,1.64,92.48H639.53Z" fill="#686175" data-primary="true"/><path d="M492.24,467.59,491,466c1.71-1.38,42-33.75,44.13-35.08.92-.57,3-.07,14.3,4.15,1.34.51,2.72,1,3.41,1.26,1.89-1.91,10.41-11.29,10.91-11.91.3-.38.57-.71,12.64-2.14l.23,2c-4.92.58-10.38,1.32-11.49,1.62-1.48,1.66-11,12.26-11.71,12.5-.44.15-.44.15-4.69-1.44-3.37-1.27-11.15-4.18-12.69-4.24C533.22,434.7,503.64,458.42,492.24,467.59Zm43.68-34.85Zm29.39-7-.06.07Z" fill="#f48225" data-secondary="true"/><path d="M126.36,547.76l111.93.54s-12-52.35-55.72-52.56S128.34,536.09,126.36,547.76Z" fill="#f48225" data-secondary="true"/><path d="M126.36,547.76l111.93.54s-12-52.35-55.72-52.56S128.34,536.09,126.36,547.76Z" opacity="0.2"/><path d="M451.18,555l111.93.53s-12-52.35-55.72-52.56S453.16,543.3,451.18,555Z" fill="#f48225" data-secondary="true"/><path d="M451.18,555l111.93.53s-12-52.35-55.72-52.56S453.16,543.3,451.18,555Z" opacity="0.2"/><path d="M101.22,452.26c-2.42,3.8-6.83,45.77-7.09,47.24s-3.77,7.88-3.84,9.11-1,20.14-.53,21.37a52.92,52.92,0,0,0,3.83,6.44c.61.74,16.4,14.47,18.18,14.67s18.18.39,18.49.09,2.45-50.82,52.24-50.58,49,53.88,49.89,54.07S456.13,561,456.13,561c0-8.21.91-57.07,49.75-56.84,31.81.15,46.57,26.47,47,45.81.19,8-1.2,16.9-.75,16.9,1.47,0,6.49.4,7.35,0s-.67-7,.19-7.24,6.86-.33,8.33-.69,12.08-11.69,12.27-12-.85-28.41-.84-29.57c0-.46-1.94-6.63-4.55-14.15-.64-1.84-4.3-3.28-5-5.21-3.72-10.23-6.76-22.33-9.49-23-.93-.24-8.65,4.81-9.72,4.19-1.61-.95-3.35-4.29-6.17-6.8-.15-.14-4.63-.06-4.79-.2s-2.9-7.39-3.5-7.35c-1.85.13-7.25,3.94-8.39,3.84-1-.08-4.18-6.15-4.27-6.18-1.83-.44-3.84-.47-5.84-.95-4.8-1.14-20.44,3.42-22.83,3.23-4.11-.32-18.29-10.24-19-10.72-1.83-1.3-87.82-51.17-102.8-54.88-12.11-3-152.49.37-159.84.7s-27.7,3.91-29.66,3.9-24.49-.24-25.84.37,0,6,1.68,7S105.41,445.66,101.22,452.26Z" fill="#f48225" data-secondary="true"/><path d="M468.32,524.13s-222.1-6.14-223.38-4.25,220.64,13.34,220.64,13.34Z" fill="#fff" opacity="0.2"/><path d="M101.22,452.25s99.58,11,104,10.95,241.2,8.79,245.49,8.55,44.16-7,44.16-7c-4.11-.31-18.29-10.24-19-10.72-1.84-1.3-87.83-51.17-102.81-54.88-12.12-3-152.49.37-159.84.71s-27.7,3.9-29.65,3.9-24.5-.24-25.85.36,0,6,1.68,7S105.42,445.66,101.22,452.25Z" fill="#fff" opacity="0.2"/><path d="M515.19,473.21c0,.45,4.59-.06,5-.07s7.67-4.45,7.67-4.45c-1-.1-4.18-6.17-4.27-6.19S515.18,472.76,515.19,473.21Z" opacity="0.1"/><path d="M539.77,480.94c.21.59,4.52.18,4.71.24s6.21-2,6.21-2c-1.6-.94-3.35-4.28-6.17-6.8C544.52,472.39,539.56,480.33,539.77,480.94Z" opacity="0.1"/><path d="M536.23,464.84l.37,8,3.13-.63C539.6,472.08,536.84,464.83,536.23,464.84Z" opacity="0.1"/><path d="M104.45,449.09c.53.49,9.3.75,10.22.38s56.38-36.87,56.42-37.94c0-.54-10.36-.45-11.62-.39S103.44,448.16,104.45,449.09Z" fill="#fff"/><path d="M166,448.8c2.36,7.09,282.18,19,283.79,15.56,1.19-2.53-14.25-20.79-26.34-27.64S376.75,410,359.68,407.94s-51.74-2.09-81.93-1.68c-29.95.4-65.23,1-77.75,6.24C189,417.12,164.14,443.17,166,448.8Z" fill="#2f2e41"/><path d="M174.13,444.71c.72,2.66,64.8,9.86,139.93,13.72S426.28,463,427.2,462.64s-2.47-20.4-3.75-22.06-55-29.48-63.42-30.25-54.1-1.09-77.16-.83-71.11,2.78-79.3,6.05C196.37,418.42,173.41,442,174.13,444.71Z" fill="#e6e7e8"/><g opacity="0.1"><path d="M273.76,409.68l-43.24,42.83c-7.68-.71-14.77-1.42-21.15-2.1l40.1-39.72C258,410.22,266.46,409.88,273.76,409.68Z" fill="#fff"/><path d="M427.08,458.39l-4.36,4.32c-4.37,0-11.93-.2-22.72-.54l22.49-22.27a4.71,4.71,0,0,1,1,.68C424.36,441.76,426.36,452.32,427.08,458.39Z" fill="#fff"/><path d="M305.87,409.43l-46,45.54c-3.67-.27-7.27-.55-10.78-.85l45.13-44.69C297.93,409.41,301.85,409.41,305.87,409.43Z" fill="#fff"/><path d="M404,430l-31.51,31.2c-3.54-.15-7.26-.3-11.15-.48l35-34.61C399,427.38,401.54,428.68,404,430Z" fill="#fff"/><path d="M241.77,411.13l-38.9,38.54h0l-2.94-.34,38.33-38Z" fill="#fff"/><path d="M410.67,433.4l-28.4,28.14-3.18-.13,29.42-29.14Z" fill="#fff"/><path d="M370.15,413.78,324.54,459l-3.16-.15,46.43-46Q368.92,413.26,370.15,413.78Z" fill="#fff"/><path d="M211,413.93l-32.56,32.24c-1.08-.22-2-.44-2.66-.64L207,414.62C208.18,414.38,209.52,414.16,211,413.93Z" fill="#fff"/></g><path d="M214.5,413.46c.3,0,.44.4.18,1.11-1.54,4.15-13.39,27.7-16.36,33.2a2.57,2.57,0,0,1-1.67,1.16l20.69,2.31a1.69,1.69,0,0,1-1-1.88c.22-1.3,8-29,10.48-35.82a2.92,2.92,0,0,1,1.39-1.44c.41,0-3.53,0-7.27.41C217.64,412.84,214.5,413.46,214.5,413.46Z" fill="#2f2e41"/><path d="M241.81,411.13s.38.21.39,1c.1,6.53.67,39.22,0,41a.68.68,0,0,1-.3.43l3.91.33a1.85,1.85,0,0,1-.36-1c-.41-5.53-.66-35.5-.56-41a1.75,1.75,0,0,1,.37-.92Z" fill="#2f2e41"/><path d="M306.18,410.77c.45,1.46,1,44.13,1,45.51s-1.57,1.7-1.57,1.7l24.25,1.24s-1.57-.45-1.84-1.19-7.68-46.79-7.63-47.39,1.25-1.16,1.25-1.16l-16.9-.07A2.6,2.6,0,0,1,306.18,410.77Z" fill="#2f2e41"/><path d="M105.48,458.28c-3,.37-9.71,7.3-10.21,8.77s-2.38,11.38-1.41,12.85,4.51,5.17,7.57,5.3,18-6.89,19.39-8.11,2.37-8.67.79-11.07S109.28,457.81,105.48,458.28Z" fill="#fff"/><path d="M120.82,477.1c-1.35,1.21-16.34,8.24-19.39,8.11-2.33-.11-5-2.29-6.48-4a9.92,9.92,0,0,0,6,1.92c1.65-.14,15.67-6.09,17.48-7.73s1.91-7.84,1.68-9-9.24-7-9.24-7c4.46,1.75,9.7,4.91,10.76,6.54C123.18,468.42,122.17,475.87,120.82,477.1Z" fill="#ececec"/><path d="M92.84,513.64c-.83.82-1.14,7-.28,7.59s5.88.52,6.86,0,3.51-5.12,3.34-6.72S93.82,512.66,92.84,513.64Z" fill="#fff"/><path d="M543.66,489.94c1,3,15.73,7.6,22.86,7.54,2.32,0,3.4-2.18,4.3-3.31l-1-2.48h-.66l-.7-1.66-.7.14-.73-2.84-.95-1.57,1.16-1.34a8.18,8.18,0,0,0-1.52-1.82c-1.41-1.14-7.42-3.19-12.81-3.17C551.11,479.44,542.08,485.25,543.66,489.94Z"/><path d="M543.66,489.94c1,3,15.73,7.6,22.86,7.54,1.73,0,2.78-1.22,3.58-2.31l-.74-.4-2.67-.26-6.69-.2-2.16-5-1,1.42L555,488.23l1.86-1.81L555,484.89l3.23-2.2,4.78-.3,1.4,1.07.65-.95,2,1.62a7.68,7.68,0,0,0-1.31-1.52c-1.41-1.14-7.42-3.19-12.81-3.17C551.11,479.44,542.08,485.25,543.66,489.94Z" fill="#fff"/><polygon points="562.3 501.78 559.14 499.32 558.57 501.08 557.33 501.29 559.21 504.15 560.99 502.27 562.3 501.78" fill="#fff"/><polygon points="555.01 499.46 553.4 498.68 552.63 500.47 555.01 499.46" fill="#fff"/><polygon points="569.28 498.43 569.66 499.02 568.86 498.73 569.28 498.43" fill="#fff"/><polygon points="568.79 499.36 568.49 502.29 567.49 501.21 567.01 501.12 567.34 499.93 568.79 499.36" fill="#fff"/><polygon points="557.99 506.67 557.14 507.45 556.57 506.89 555.53 506.7 557.07 505.35 557.99 506.67" fill="#fff"/><path d="M548,490.87c1.94.33,3.86.72,5.78,1.13h0l0,0c1.16.74,2.32,1.49,3.47,2.26h0c.94,0,1.87,0,2.81,0-.93.05-1.87.1-2.81.13h-.05c-1.18-.72-2.34-1.46-3.5-2.21l0,0C551.76,491.81,549.85,491.37,548,490.87Z" fill="#dcdcdc"/><path d="M550.17,488.61a11.25,11.25,0,0,1,1.08,1.51,14.41,14.41,0,0,1,.87,1.65,14.32,14.32,0,0,1-2-3.16Z" fill="#dcdcdc"/><path d="M555,484.89c-.5.38-1,.73-1.55,1.08l0,0h0a40.44,40.44,0,0,1-4.35-.9,40.49,40.49,0,0,1,4.39.69l-.07,0C553.84,485.47,554.4,485.17,555,484.89Z" fill="#dcdcdc"/><g opacity="0.1"><path d="M167.37,478.58a9.84,9.84,0,0,1-2.87,7,10,10,0,0,1-14.19.14,10,10,0,0,1,.07-14.4,10.1,10.1,0,0,1,7.21-2.8,10,10,0,0,1,7,3.08A9.83,9.83,0,0,1,167.37,478.58Zm0,0a9.85,9.85,0,0,0-2.88-6.92,9.63,9.63,0,0,0-13.61.15,9.61,9.61,0,0,0-.07,13.39,9.62,9.62,0,0,0,13.61.28A9.81,9.81,0,0,0,167.37,478.58Z"/><path d="M126.55,508.23c-1-2.22-1.89-4.47-2.78-6.72s-1.71-4.54-2.57-6.8-1.62-4.56-2.39-6.86-1.51-4.61-2.17-6.94c1,2.22,1.88,4.47,2.77,6.72s1.71,4.53,2.57,6.8,1.63,4.56,2.39,6.86S125.88,505.89,126.55,508.23Z"/><path d="M92.1,508.06c4.82-.06,9.64,0,14.46,0l14.46.22,14.46.42c4.82.17,9.64.36,14.45.64-4.82.06-9.64,0-14.46,0L121,509.12l-14.46-.42C101.73,508.53,96.91,508.34,92.1,508.06Z"/><path d="M320,462.25l1.6,11.75.69,5.9c.1,1,.2,2,.27,3s0,2,0,3l-.33,23.73L322,521.43l-.12,5.93-.07,3-.24,3-1,11.83-1.06,11.81.66-11.84.74-11.83.18-3,0-3,.09-5.93.17-11.85.52-23.7c0-1,.1-2,.05-3s-.14-2-.22-2.94l-.57-5.9Z"/><path d="M450.2,468.26l1.94,11.82,1,5.91.24,1.48a8.31,8.31,0,0,1,.18,1.49c0,1,0,2,0,3-.1,8-.34,16-.63,23.95-.07,2-.16,4-.27,6a22.81,22.81,0,0,1-1.18,5.9q-1.68,5.76-3.78,11.38a85.06,85.06,0,0,1-4.83,11l-.74,1.31c-.26.44-.56.85-.83,1.27a10.71,10.71,0,0,1-.92,1.21l-.49.59a1.77,1.77,0,0,1-.88.26c-2,.2-4,.22-6,.28-16,.25-32,0-47.92-.16s-31.94-.5-47.9-.87-31.93-.88-47.89-1.55c-8-.37-16-.66-23.93-1.42a19.67,19.67,0,0,1-3-.49c-.56-.22-.89-.48-1.36-.7l-1.34-.64c-1.8-.83-3.67-1.56-5.47-2.47a21.12,21.12,0,0,1-5-3.38,47.24,47.24,0,0,1-3.61-4.85c-4.47-6.63-8.73-13.38-13-20.13s-8.47-13.54-12.66-20.33-8.33-13.63-12.41-20.5L205.94,475c-.13-.21-.24-.45-.36-.68l-.18-.34a2.38,2.38,0,0,1-.06-.37l-.13-1.5c-.16-2-.31-4-.37-6,0-.49,0-1,0-1.5a10.29,10.29,0,0,1,.33-1.46c.28-1,.61-1.91.95-2.85q1-2.81,2.15-5.58c-.73,1.85-1.44,3.72-2.1,5.6-.33.94-.65,1.89-.93,2.85a9.14,9.14,0,0,0-.31,1.45c0,.49,0,1,0,1.49.08,2,.24,4,.42,6l.15,1.49c0,.12,0,.25.05.36l.18.32c.12.21.22.42.35.64l1.54,2.57c4.13,6.83,8.35,13.61,12.58,20.38,8.45,13.54,16.87,27.12,25.76,40.37a48.83,48.83,0,0,0,3.54,4.75,20.85,20.85,0,0,0,4.9,3.27c1.77.89,3.62,1.61,5.45,2.44.46.21.92.42,1.36.65s.93.53,1.31.66a18.26,18.26,0,0,0,2.88.45c7.92.73,15.92,1,23.89,1.35,15.95.62,31.91,1,47.88,1.42s31.92.75,47.89,1,31.94.49,47.89.29c2,0,4-.07,6-.26a4.68,4.68,0,0,0,.56-.1l.47-.56a9.48,9.48,0,0,0,.89-1.17c.27-.41.56-.81.81-1.23l.74-1.29A84.32,84.32,0,0,0,447.22,539c1.4-3.73,2.68-7.51,3.8-11.34a22,22,0,0,0,1.18-5.8l.3-6c.36-8,.66-15.95.83-23.93,0-1,0-2,0-3a8.27,8.27,0,0,0-.16-1.48L453,486,452,480.1Z"/><path d="M548,493.41a45,45,0,0,1-5.48,3.49c-1.89,1.09-3.82,2.11-5.74,3.15s-3.87,2-5.84,3S527,505,525,505.84c1.87-1.11,3.78-2.17,5.69-3.22l5.76-3.1,5.81-3,2.9-1.51A28.06,28.06,0,0,0,548,493.41Z"/><polygon points="216.61 510.8 247.72 511.76 278.82 512.86 341.02 515.06 403.2 517.53 434.3 518.77 465.39 520.14 434.28 519.18 403.18 518.08 340.99 515.88 278.8 513.41 247.7 512.17 216.61 510.8"/><path d="M215,466.21l-1.21.06h-.3c-.07,0-.08.06-.12.15a2.71,2.71,0,0,0-.11.58,16.18,16.18,0,0,0-.07,2.41,11.49,11.49,0,0,0,.1,1.18,1.79,1.79,0,0,0,.14.52s0,0,0,0h.09l.24,0c.78.07,1.6.1,2.4.13,3.24.12,6.48.24,9.71.31l4.86.16,2.42.05h1s.09,0,0,0a.81.81,0,0,0,.13-.3,4.07,4.07,0,0,0,.12-.55,13.26,13.26,0,0,0,.12-2.37,9.09,9.09,0,0,0-.11-1.17,1.52,1.52,0,0,0-.12-.45,1.31,1.31,0,0,0-.45-.14c-1.57-.28-3.21-.38-4.82-.55a46.88,46.88,0,0,1,4.88.15,1.25,1.25,0,0,1,.69.22,1.44,1.44,0,0,1,.28.68,10.39,10.39,0,0,1,.17,1.23,13.81,13.81,0,0,1,0,2.49c0,.21-.06.42-.1.64a1.14,1.14,0,0,1-.45.74.58.58,0,0,1-.24.08h-.18l-.33,0h-.62l-2.44,0-4.86-.09c-3.24-.14-6.48-.24-9.72-.5-.82-.07-1.62-.13-2.44-.25a1.24,1.24,0,0,1-.37-.08.8.8,0,0,1-.2-.07.54.54,0,0,1-.15-.22,2.48,2.48,0,0,1-.15-.66,10.34,10.34,0,0,1,0-1.24A16.54,16.54,0,0,1,213,467a3.25,3.25,0,0,1,.17-.61.55.55,0,0,1,.08-.15.24.24,0,0,1,.2-.09l.3,0Z"/><path d="M334,469.73l-1.21.06h-.31c-.06,0-.07.05-.11.15a3.5,3.5,0,0,0-.12.58,16,16,0,0,0-.06,2.4,11.26,11.26,0,0,0,.1,1.18,2.19,2.19,0,0,0,.13.52l0,0h.09a1.07,1.07,0,0,0,.23,0c.79.08,1.61.1,2.41.13,3.23.12,6.47.24,9.71.31l4.86.16,2.42,0h1a2.6,2.6,0,0,0,.13-.3,4.88,4.88,0,0,0,.12-.55,14.37,14.37,0,0,0,.12-2.37,11.24,11.24,0,0,0-.11-1.18,1.52,1.52,0,0,0-.12-.45,1.22,1.22,0,0,0-.46-.13c-1.57-.29-3.2-.39-4.81-.55a46.86,46.86,0,0,1,4.88.14,1.44,1.44,0,0,1,.69.22,1.49,1.49,0,0,1,.28.68,10.85,10.85,0,0,1,.17,1.24,13.7,13.7,0,0,1,0,2.48,4.76,4.76,0,0,1-.11.64,1.12,1.12,0,0,1-.45.74.36.36,0,0,1-.23.08l-.19,0h-3.38l-4.86-.09c-3.25-.14-6.49-.25-9.73-.5-.81-.07-1.61-.13-2.43-.25l-.37-.08a.84.84,0,0,1-.2-.08.59.59,0,0,1-.15-.21,2.55,2.55,0,0,1-.15-.67,10.34,10.34,0,0,1,0-1.24,15.41,15.41,0,0,1,.25-2.44,3.33,3.33,0,0,1,.16-.6,1.19,1.19,0,0,1,.09-.15.21.21,0,0,1,.19-.09h.31Z"/></g><circle cx="180.43" cy="552.4" r="46.3" transform="translate(-337.76 289.37) rotate(-45)" fill="#2f2e41"/><path d="M219,553.35A38.57,38.57,0,1,1,181.19,514,38.2,38.2,0,0,1,219,553.35Z" opacity="0.2"/><circle cx="180.43" cy="552.4" r="33.8" transform="translate(-394.03 464.68) rotate(-63.23)" fill="#dcdcdc"/><circle cx="180.43" cy="552.4" r="31.17" transform="translate(-337.76 289.37) rotate(-45)" fill="#ccc"/><path d="M185.47,544.68l-9.78-.19c3.39-4.71-7.79-21.59-7.79-21.59l5.19-1.62c3.3,6,5,7.7,7.8,7.76s4.56-1.63,8.12-7.44l5.1,1.82S182.27,539.84,185.47,544.68Z" fill="#dcdcdc"/><path d="M174.86,545.06l-3.21,9.25c-3.43-4.68-22.94.73-22.94.73l.06-5.43c6.68-1.31,8.87-2.36,9.79-5s-.14-4.84-4.57-10l3.32-4.29S169.26,546.62,174.86,545.06Z" fill="#dcdcdc"/><path d="M171.94,555.28l7.8,5.91c-5.51,1.81-6.39,22-6.39,22l-5.14-1.74c.81-6.75.49-9.16-1.76-10.86s-4.65-1.36-10.94,1.25l-3-4.48S171.69,561.08,171.94,555.28Z" fill="#dcdcdc"/><path d="M180.75,561.21l8-5.59c0,5.8,19,12.88,19,12.88l-3.24,4.36c-6.17-2.86-8.56-3.3-10.87-1.69s-2.74,4-2.2,10.79l-5.2,1.52S186.19,563.24,180.75,561.21Z" fill="#dcdcdc"/><path d="M189.12,554.66l-2.84-9.37c5.53,1.78,18.12-14.07,18.12-14.07l3.15,4.43c-4.64,5-5.79,7.12-5,9.82s3,3.83,9.58,5.42L212,556.3S192.73,550.11,189.12,554.66Z" fill="#dcdcdc"/><path d="M189.48,552.36a9.05,9.05,0,1,1-8.87-9.23A9,9,0,0,1,189.48,552.36Z" fill="#dcdcdc"/><path d="M470.93,598.37h66.71c6.13,0,2.26-3.19,1-3.19-1.08,0-1-2.08-1.8-2.77a2.48,2.48,0,0,1-.22-.21l-32.31-1.64L472,592.2a1.28,1.28,0,0,0-.15.16c-.65.58-.75,2.82-1.86,2.82C468.68,595.18,464.81,598.37,470.93,598.37Z" fill="#2f2e41"/><path d="M458,558.71a45.72,45.72,0,0,0,21.48,39.66h49.78a46.57,46.57,0,0,0,7.56-6,45.45,45.45,0,0,0,13.75-31.86A46.29,46.29,0,0,0,458,558.71Z" fill="#2f2e41"/><path d="M542.85,560.37A38.57,38.57,0,1,1,505.06,521,38.19,38.19,0,0,1,542.85,560.37Z" opacity="0.1"/><circle cx="504.29" cy="559.64" r="33.8" transform="translate(-209.97 799.07) rotate(-66.51)" fill="#dcdcdc"/><circle cx="504.29" cy="559.64" r="31.17" transform="translate(-248.02 520.5) rotate(-45)" fill="#ccc"/><path d="M509.34,551.92l-9.79-.2c3.4-4.7-7.78-21.58-7.78-21.58l5.18-1.62c3.31,6,5,7.7,7.8,7.76s4.57-1.63,8.12-7.44l5.1,1.82S506.13,547.08,509.34,551.92Z" fill="#dcdcdc"/><path d="M498.72,552.3l-3.21,9.25c-3.43-4.68-22.93.73-22.93.73l.06-5.43c6.67-1.31,8.86-2.36,9.79-5s-.15-4.85-4.57-10l3.31-4.29S493.13,553.86,498.72,552.3Z" fill="#dcdcdc"/><path d="M495.8,562.52l7.81,5.91c-5.52,1.81-6.4,22-6.4,22l-5.14-1.74c.82-6.75.49-9.16-1.75-10.86s-4.65-1.36-10.94,1.25l-3.06-4.48S495.55,568.32,495.8,562.52Z" fill="#dcdcdc"/><path d="M504.62,568.45l8-5.59c0,5.8,19,12.88,19,12.88l-3.24,4.36c-6.17-2.87-8.56-3.3-10.87-1.69s-2.73,4-2.19,10.79l-5.2,1.52S510.06,570.48,504.62,568.45Z" fill="#dcdcdc"/><path d="M513,561.9l-2.84-9.37c5.53,1.78,18.13-14.07,18.13-14.07l3.14,4.43c-4.63,5-5.79,7.12-5,9.82s3,3.83,9.59,5.42l-.16,5.41S516.59,557.35,513,561.9Z" fill="#dcdcdc"/><path d="M513.34,559.6a9,9,0,1,1-8.87-9.23A9,9,0,0,1,513.34,559.6Z" fill="#dcdcdc"/><path d="M416.66,445.32c-1.7,1.68-1.61,16.77-.4,18s18,2.42,19.39-6.95S419.3,442.7,416.66,445.32Z" fill="#f48225" data-secondary="true"/><path d="M380.16,407.55s48.64,23.42,84,47l12.52.06c-.41-.28-.67-.48-.77-.54l0,0-.3-.19-.26-.16-2-1.22-.8-.47-.48-.27-.93-.55-.58-.34-3.69-2.15L465,447.65l-.72-.42-1.5-.86c-.26-.14-.52-.29-.79-.46l-2.31-1.32-.25-.15c-.8-.44-1.61-.91-2.44-1.39l-.25-.14L453.37,441l-2.85-1.63-1.37-.76c-.53-.31-1.06-.61-1.61-.91-1.07-.62-2.17-1.24-3.29-1.87l-1.82-1c-2.08-1.16-4.22-2.36-6.38-3.59-.72-.4-1.44-.79-2.15-1.2l-3.57-2-3.09-1.72-1.11-.61-2.22-1.23-2.22-1.22c-3.34-1.83-6.67-3.64-9.93-5.4l-2.16-1.16-1.09-.58c-.46-.24-.92-.48-1.36-.73l-.76-.4-2.1-1.12-1-.55-2.07-1.08-1-.54c-1-.51-2-1-3-1.54h0c-.66-.33-1.29-.67-1.92-1l-1.2-.61-2.53-1.28c-1.12-.57-2.22-1.1-3.28-1.62Z" fill="#fff"/><g opacity="0.5"><path d="M126.49,520a59.46,59.46,0,0,1,10.44-12.7,65.57,65.57,0,0,1,13.38-9.64A64.82,64.82,0,0,1,182.19,490l4.14.22,2.07.11c.68.08,1.36.19,2,.29l4.1.6c1.35.29,2.69.66,4,1a51.22,51.22,0,0,1,15.15,6.58A53.08,53.08,0,0,1,226,509.8a73.34,73.34,0,0,1,8.61,14,77.22,77.22,0,0,0-9-13.67,52.55,52.55,0,0,0-12.27-10.68c-9.25-5.83-20.25-8.24-31.1-8.39a66.35,66.35,0,0,0-16.2,1.66,64.65,64.65,0,0,0-15.27,5.66,65.52,65.52,0,0,0-13.42,9.3A62.12,62.12,0,0,0,126.49,520Z" fill="#fff"/><path d="M450.84,521.54a60.26,60.26,0,0,1,10.44-12.69,66.06,66.06,0,0,1,13.39-9.65,64.8,64.8,0,0,1,31.87-7.68l4.14.22,2.07.11c.68.08,1.37.19,2,.29l4.1.6c1.35.29,2.69.65,4,1a50.74,50.74,0,0,1,15.15,6.58,53.27,53.27,0,0,1,12.24,11.05,73.46,73.46,0,0,1,8.62,14,77.45,77.45,0,0,0-9-13.67A52.55,52.55,0,0,0,537.63,501c-9.25-5.83-20.25-8.24-31.1-8.39a66.4,66.4,0,0,0-16.2,1.66A64.21,64.21,0,0,0,475.06,500a65.45,65.45,0,0,0-13.41,9.3A62.07,62.07,0,0,0,450.84,521.54Z" fill="#fff"/><path d="M133.56,443.19c7.24-5.62,14.58-11.1,22-16.51s14.87-10.72,22.55-15.76c1-.61,1.95-1.22,3-1.8.5-.29,1-.57,1.54-.83a10,10,0,0,1,1.69-.63c2.22-.64,4.45-1.19,6.68-1.74,4.46-1.07,8.92-2.1,13.43-3a79.22,79.22,0,0,1,13.72-1.34c4.59-.08,9.18,0,13.75.19-4.58,0-9.16.09-13.73.35a79.09,79.09,0,0,0-13.57,1.63c-4.46,1-8.93,2-13.36,3.11-2.22.56-4.44,1.13-6.62,1.77a8.87,8.87,0,0,0-1.52.58q-.74.38-1.47.81c-1,.57-1.94,1.18-2.9,1.79-7.7,4.93-15.15,10.27-22.66,15.52Z" fill="#fff"/></g><path d="M492.38,505.54c-35.5,7.94-36.22,48.1-36.25,55.47,0,0-222.82-6.15-223.74-6.35-.74-.15-.35-35.32-26.58-48.85,11.78,5.9,26.85,20.12,32.48,40.81.61,2.2,33,5.81,88.52,7.85s103.69,1.15,112.84-.09S459.78,505.24,492.38,505.54Z" opacity="0.1"/><path d="M554.1,550c.2,8-1.19,16.89-.76,16.88.95,0,3.33.18,5.15.2h0a3.11,3.11,0,0,0,1-.14c.85-.36-.67-7,.19-7.23s6.85-.33,8.32-.69,12.1-11.69,12.27-12c-2.19.54-14,6.94-15.46,5.39s.15-2.5-5.94-15.39-21.26-25.44-30.39-27.42C545.28,518.22,553.77,535.94,554.1,550Z" opacity="0.1"/><path d="M601.34,481.84s1.38-.52,1.38-4.24V466.81c0-3.72-1.38-4.24-1.38-4.24h8c4.93,0,8.95,3.19,8.95,9.66s-4,9.61-8.95,9.61Zm8-1.68c2.54,0,4.6-3.61,4.6-8s-2.06-8-4.6-8a13.77,13.77,0,0,0-2,0,9.08,9.08,0,0,0-.36,2.83v10.47a11.38,11.38,0,0,0,.3,2.72A12.09,12.09,0,0,0,609.32,480.16Z" fill="#fff"/><path d="M633.91,473.91c0,4.41-2.26,8-7.19,8s-7.35-3.44-7.35-8,2.42-8,7.35-8S633.91,469.5,633.91,473.91Zm-4.35-.08c0-3.69-.3-6.67-2.84-6.67s-3,3-3,6.67.47,6.63,3,6.63S629.56,477.49,629.56,473.83Z" fill="#fff"/><path d="M642.11,466c1.82,0,6,.39,6,4.71v6.91c0,3.72,1.38,4.24,1.38,4.24h-7s1.38-.52,1.38-4.38v-8.15c0-1.48-.77-2.17-1.79-2.17-1.71,0-1.9,1.26-1.9,3.05v7.27c0,3.86,1.38,4.38,1.38,4.38h-7s1.37-.52,1.37-4.24v-7.35a2.69,2.69,0,0,0-1.37-2.67l5.67-1.57v.63A2.92,2.92,0,0,1,642.11,466Z" fill="#fff"/><path d="M652.16,463.14l-1.24,2.18H650l.44-2.18Z" fill="#fff"/><path d="M652.9,466l5.76-2.29v3.42l1.57-.09v1.41l-1.57-.08c0,3.85,0,8.92,0,10.35,0,2.23,1.84,1.1,1.84,1.1l.39.47a2.49,2.49,0,0,1-2.56,1.51c-2.26,0-4-.91-4-4.35v-9.08l-1.62.08v-1.41c.5,0,1,.09,1.46.11C654,466.45,653.56,466,652.9,466Z" fill="#fff"/><path d="M668.32,481.84s1.38-.52,1.38-4.24V466.81c0-3.72-1.38-4.24-1.38-4.24h8c4.93,0,9,3.19,9,9.66s-4,9.61-9,9.61Zm8-1.68c2.54,0,4.6-3.61,4.6-8s-2.06-8-4.6-8a13.77,13.77,0,0,0-1.95,0,9.08,9.08,0,0,0-.36,2.83v10.47a11.38,11.38,0,0,0,.3,2.72A12.09,12.09,0,0,0,676.3,480.16Z" fill="#fff"/><path d="M694.14,466c3.39,0,5.62,1.57,5.62,3.94,0,3.24-4.1,3.82-5.75,1.56,1.81.06,2.89-4.43-.09-4.43-1.76,0-2.42,1.16-2.42,3.17,0,6.55,0,7.21,0,7.21,0,3.86,1.38,4.38,1.38,4.38H685.8s1.38-.52,1.38-4.24v-5.07c0-3.63-1.38-4.4-1.38-4.4l5.67-2.07v.77A4.44,4.44,0,0,1,694.14,466Z" fill="#fff"/><path d="M700.31,481.84s1.38-.52,1.38-4.24v-7.27a2.64,2.64,0,0,0-1.38-2.67l5.67-1.6v11.4c0,3.86,1.38,4.38,1.38,4.38Zm6-18.78a2.65,2.65,0,1,1-5.29,0,2.65,2.65,0,0,1,5.29,0Z" fill="#fff"/><path d="M715.56,466c1.82,0,6,.39,6,4.71v6.91c0,3.72,1.37,4.24,1.37,4.24h-7.05s1.38-.52,1.38-4.38v-8.15c0-1.48-.77-2.17-1.79-2.17-1.71,0-1.9,1.26-1.9,3.05v7.27c0,3.86,1.38,4.38,1.38,4.38h-7.05s1.38-.52,1.38-4.24v-7.35a2.69,2.69,0,0,0-1.38-2.67l5.67-1.57v.63A2.92,2.92,0,0,1,715.56,466Z" fill="#fff"/><path d="M729.16,477.46c0,3.86,1.38,4.38,1.38,4.38h-7s1.38-.52,1.38-4.24V465.24a2.69,2.69,0,0,0-1.38-2.67l5.67-1.57v11.4l2.12-2.18C734.89,466.53,734,466,734,466h5.28s-1.87.49-5.67,4.4l-1.43,1.49,3.17,5.56c2.2,3.86,3.88,4.38,3.88,4.38h-7s1.07-.52-1.05-4.24l-1.68-2.92-.33.33Z" fill="#fff"/><path d="M621.42,495.6c.69,0,1.32.09,1.68,1.38,3.53,12.23,4.19,13.66,4.19,13.66,1.15,3.72,2.67,4.24,2.67,4.24h-7.05s1.24-.52,0-4.44l-.88-2.86h-4.8l-.88,2.86c-1.21,3.92,0,4.44,0,4.44H611s1.55-.52,2.68-4.24l3.3-10.8c1.13-3.71-.06-4.24-.06-4.24Zm-3.74,10.66h4s-1.95-6.42-2-6.5C619.63,499.84,617.68,506.26,617.68,506.26Z" fill="#fff"/><path d="M638.16,499c1.82,0,6,.38,6,4.71v6.91c0,3.72,1.38,4.24,1.38,4.24h-7s1.38-.52,1.38-4.38v-8.15c0-1.49-.77-2.18-1.79-2.18-1.71,0-1.9,1.27-1.9,3.06v7.27c0,3.86,1.38,4.38,1.38,4.38h-7s1.37-.52,1.37-4.24v-7.35a2.71,2.71,0,0,0-1.37-2.68l5.67-1.56v.63A2.91,2.91,0,0,1,638.16,499Z" fill="#fff"/><path d="M654.84,498.47V494l5.68,1.57a2.69,2.69,0,0,0-1.35,2.67v12.37c0,3.72,1.35,4.24,1.35,4.24h-3.94a1.62,1.62,0,0,1-1.6-1.08,3.63,3.63,0,0,1-2.83,1.11c-3.12,0-6.06-2.92-6.06-7.88s2.78-8,6.06-8a3.8,3.8,0,0,1,2.69.94Zm-2,2.09c-1.38,0-2.37,1.84-2.37,6.39,0,2.53.58,6.25,2.37,6.25s2-2.12,2-4.24V503.4C654.73,501.83,654.27,500.56,652.81,500.56Z" fill="#fff"/><path d="M668,514.88s1.37-.52,1.37-4.24v-10.8c0-3.71-1.37-4.24-1.37-4.24h8c4.93,0,8.95,3.2,8.95,9.67s-4,9.61-8.95,9.61Zm8-1.68c2.53,0,4.6-3.61,4.6-8s-2.07-8-4.6-8a13.71,13.71,0,0,0-2,0,9,9,0,0,0-.36,2.83v10.46a11.41,11.41,0,0,0,.3,2.73A12.07,12.07,0,0,0,676,513.2Z" fill="#fff"/><path d="M693.8,499.05c3.39,0,5.62,1.56,5.62,3.93,0,3.25-4.11,3.83-5.76,1.57,1.82.06,2.89-4.43-.08-4.43-1.76,0-2.42,1.16-2.42,3.17,0,6.55,0,7.21,0,7.21,0,3.86,1.38,4.38,1.38,4.38h-7s1.37-.52,1.37-4.24v-5.07c0-3.63-1.37-4.4-1.37-4.4l5.67-2.07v.77A4.44,4.44,0,0,1,693.8,499.05Z" fill="#fff"/><path d="M700,514.88s1.37-.52,1.37-4.24v-7.27c0-2.15-1.37-2.67-1.37-2.67l5.67-1.6v11.4c0,3.86,1.38,4.38,1.38,4.38Zm6-18.78a2.65,2.65,0,1,1-2.64-2.62A2.64,2.64,0,0,1,705.94,496.1Z" fill="#fff"/><path d="M718,503.48c1.18-3.94,0-4.43,0-4.43h5.39s-1.54.52-2.67,4.24l-2.25,7.35c-1.13,3.72.05,4.24.05,4.24h-4a2.1,2.1,0,0,1-2.32-1.76l-3-9.83c-1.13-3.72-2.67-4.24-2.67-4.24h7s-1.21.52,0,4.43c0,0,2.21,7.16,2.23,7.24C715.74,510.64,718,503.48,718,503.48Z" fill="#fff"/><path d="M729.62,513.14a2.19,2.19,0,0,0,1.35-4,2.59,2.59,0,0,1,4.29,2.84c-.38,1-2,2.95-5.67,2.95-4.93,0-7.93-2.92-7.93-7.88s2.62-8,7.54-8a6.65,6.65,0,0,1,7,6.78c0,.85-.39,1.24-1.21,1.24h-9C726.07,511.3,727.75,513.14,729.62,513.14Zm-.42-12.58c-2.23,0-3,3-3.16,5.42h5.78S732,500.56,729.2,500.56Z" fill="#fff"/></g></g></svg>