<svg id="e1083d85-3eec-4f18-8c79-078a21bc934e" data-name="Layer 1" xmlns="http://www.w3.org/2000/svg" width="865.76" height="682.89" viewBox="0 0 865.76 682.89"><g opacity="0.13"><path d="M220.46,267.76s95.91,26.07,165.3-67.77S550.38-2,646.56,43.17,669.44,187.92,675.68,227s82.26-36.3,141.8,51.43S876.74,483.9,712.82,584.87s-308.34,73.8-255.13,14.72,35.69-78-45.5-31.41S195.45,681,103,627.7,28.06,434.93,90.3,406.49s193.79-3.34,144.14-56.87S161.5,249.81,220.46,267.76Z" fill="#f48225" data-secondary="true"/></g><path d="M821.8,313.31a13,13,0,0,0,2-1.9,11.86,11.86,0,0,0,1.54-2.28,10.92,10.92,0,0,0,1-2.61,10.5,10.5,0,0,0,.27-1.68,9.83,9.83,0,0,0,0-1.09,13.08,13.08,0,0,0-.23-2.23c0-.16-.07-.33-.11-.49a14.4,14.4,0,0,0-.48-1.54c-.14-.36-.3-.72-.47-1.07a14.23,14.23,0,0,0-1.48-2.43,16.17,16.17,0,0,0-2-2.17,18.38,18.38,0,0,0-2.41-1.86,18.89,18.89,0,0,0-4.45-2.09c-.48-.16-1-.3-1.49-.42a19.41,19.41,0,0,0-4.53-.54q-.94,0-1.89.09a18,18,0,0,0-2.2.37h0l-.13,0-.52.13-.15,0c-.5.14-1,.31-1.47.49l-.61.25c-.22.1-.45.2-.66.31s-.69.35-1,.54-.7.23-1.07.37l-.36.14c-.54.21-1.1.45-1.7.7l-1,.42c-3.61,1.51-8.11,3.17-13,2l-.07.33h0l.07-.33-.7-.17,0-.12-11.43-2.73L770,291.5l-1.35-.32-.37-.09-1.68-.4c0-.21-.11-.36-.21-.38l-2.12-.51h0c-.2-.05-.48.34-.71.93a5.77,5.77,0,0,0-.22.73,5.37,5.37,0,0,0-.13.75c-.07.63,0,1.1.21,1.15h0l2.12.51c.1,0,.23-.08.36-.25h0l.45.11,1.17.28,1.33.32,1.17.28,1.33.32,1.17.27,1.34.32,1.16.28,1.34.32.8.19,1.7.41L780,297l1.11.27h0l.71.17h0l0-.12.7.17.08-.33h0l-.08.33a14.86,14.86,0,0,1,4.11,1.68,18.41,18.41,0,0,1,2.56,1.86,30.43,30.43,0,0,1,2.91,2.87l1.11,1.28.7.83c.52.62,1,1.2,1.48,1.71.27.3.53.57.79.82h0l0,0c.19.3.39.58.6.86s.57.72.88,1.07.71.75,1.1,1.11l.11.1.4.35a17.55,17.55,0,0,0,1.9,1.4c.3.2.6.38.91.55a18.44,18.44,0,0,0,2.19,1.06,19.42,19.42,0,0,0,2.83.9c.32.08.63.15.95.21a19.07,19.07,0,0,0,5.48.24,16.73,16.73,0,0,0,3-.57,15.81,15.81,0,0,0,2.74-1A15.08,15.08,0,0,0,821.8,313.31Zm-.7-.73,0,0-.11.08-.49.34-.13.08-.19.12.21-.85.73.18Zm-15.05-14.75,1,.23-.22.95-1-.23Zm-.33.93-1-.23.23-.95,1,.23Zm7.41,6.22-1-.23.23-.95,1,.23Zm.33-.93.95.23-.22,1-1-.23Zm-3.71-3.11,1,.23-.23.95-1-.23Zm-.32.93-1-.23.23-.95,1,.23Zm1,.35-.23.95-1-.22.22-1Zm.1,0,1,.23-.23,1-.95-.23Zm.7,1.28-.23,1-.95-.23.22-.95Zm.1,0,.95.23-.23,1-1-.23Zm1.07.15.23-.95,1,.23-.23.95Zm-.1,0-1-.23.23-.95.95.22Zm-.7-1.28.23-1,.95.23-.23,1Zm-.1,0-.95-.22.23-1,1,.23Zm-.7-1.28.23-.95,1,.23-.23.95Zm-.1,0-1-.23.23-.95,1,.23Zm-1.05-.25-.95-.23.22-.95,1,.23Zm-1-.25-1-.23.23-.95,1,.22Zm-1-.25-1-.23.23-1,.95.23Zm0,.09-.23,1-1-.23.23-.95Zm.1,0,1,.23-.22.95-1-.23Zm.7,1.28-.22.95-1-.23.23-.95Zm.1,0,1,.23-.23.95-1-.23Zm.7,1.28-.22,1-1-.22.23-1Zm.1,0,1,.23-.23,1-1-.23Zm.7,1.28-.22,1-1-.23.23-.95Zm.1,0,1,.23-.23.95-1-.23Zm1.05.25,1,.23-.23.95-1-.23Zm1.06.25,1,.23-.23.95-1-.23Zm1.05.25.95.23-.23.95-.95-.22Zm1,.25,1,.23-.22,1-1-.23Zm0-.09.23-1,1,.23-.23,1Zm.25-1.06.23-.95,1,.23-.23.95Zm-.09,0-1-.23.23-.95.95.23Zm-.71-1.28L814,302l1,.23-.23.95Zm-.09,0-1-.23.23-.95,1,.22Zm-.71-1.28.23-1,1,.23-.23,1Zm-.09,0-1-.22.23-1,.95.23Zm-.71-1.28.23-1,1,.23-.23.95Zm-.09,0-1-.23.23-1,1,.23ZM811,300l-1-.23.23-1,1,.23Zm-1.05-.25-.95-.23.23-1,.95.22Zm-1-.25-1-.23.22-1,1,.23Zm-1-.26-1-.22.23-1,1,.23Zm-1.08-.15-.23.95-.95-.22.23-1Zm-.25,1.05-.23,1-.95-.23.23-1Zm-.25,1-.23,1-.95-.23.23-.95Zm.1,0,.95.23-.23.95-1-.23Zm.7,1.28-.23,1-1-.23.23-.95Zm.1,0,1,.23-.23,1-1-.22Zm.7,1.28-.23,1-1-.23.23-1Zm.1,0,.95.22-.23,1-.95-.23Zm.7,1.28-.23.95-.95-.23.23-1Zm.1,0,1,.23-.23.95-1-.23Zm1,.25,1,.23-.22.95-1-.23Zm1.05.25,1,.23-.23.95-1-.22Zm1,.25,1,.23-.23.95-1-.22Zm1.06.25.95.23-.23,1-.95-.23Zm1,.26,1,.22-.23,1-1-.23Zm1,.25,1,.23-.22.95-1-.23Zm0-.1.23-.95,1,.22-.23,1Zm.26-1.05.22-1,1,.23-.23,1Zm.25-1.05.22-1,1,.23-.23.95Zm.25-1.06.23-.95.95.23-.23.95Zm-.1,0-1-.23.22-.95,1,.23Zm-.7-1.28.23-1,1,.22-.23,1Zm-.1,0-1-.23.22-1,1,.22Zm-.7-1.28.23-1,.95.23-.23.95Zm-.1,0-.95-.22.22-1,1,.23Zm-.7-1.28.23-.95,1,.23-.23,1Zm-.1,0-1-.23.22-.95,1,.23Zm-1.05-.25-1-.23.23-.95,1,.22Zm-1-.25-1-.23.23-.95,1,.22Zm-1.06-.25-.95-.23.23-1,.95.23Zm-1-.26-1-.22.23-1,1,.23Zm-1-.25-1-.23.22-1,1,.23ZM807,298l-1-.23.23-1,1,.23Zm-1-.25-1-.23.23-1,1,.23Zm-1.06-.25-.95-.23.23-1,.95.22Zm0,.1-.23.95-.95-.23.23-.95Zm-.25,1.05-.23.95-.95-.23.23-.95Zm.1,0,1,.23-.23.95-1-.22Zm.7,1.28-.23,1-1-.23.23-1Zm-.25,1-.23,1-1-.23.22-.95ZM805,302l-.23,1-1-.23.23-.95Zm.09,0,1,.23-.23,1-.95-.23Zm.71,1.28-.23.95-1-.23.23-1Zm.09,0,1,.23-.23.95-1-.22Zm.71,1.28-.23,1-1-.23.22-1Zm.1,0,1,.22-.23,1-1-.23Zm.7,1.28-.23.95-1-.23.22-.95Zm.1,0,.95.23-.23.95-.95-.23Zm1,.25,1,.23-.23.95-1-.23Zm1,.25,1,.23-.23.95-.95-.22Zm1.05.25.95.23-.22,1-1-.23Zm1,.25,1,.23-.23,1-1-.23Zm1.05.26,1,.22-.23,1-.95-.23Zm1.06.25,1,.23-.23.95-1-.23Zm1,.25,1,.23-.23.95-.95-.23Zm1.05.25.95.23-.22.95-1-.23Zm0-.1.23-.95,1,.23-.23.95Zm.26-1.05.22-.95,1,.23-.23,1Zm.25-1.05.22-.95,1,.22-.23,1Zm.25-1.05.23-1,1,.23-.23,1Zm.25-1,.23-1,1,.23-.23.95Zm.25-1.06.23-1,1,.23-.22.95Zm-.1,0-.95-.23.23-1,.95.23Zm-.7-1.28.23-.95.95.22-.23,1Zm-.1,0-1-.23.23-1,1,.23Zm-.7-1.28.23-1,1,.23-.23,1Zm-.1,0-1-.22.23-1,.95.23Zm-.7-1.28.23-.95.95.23-.23.95Zm-.1,0-.95-.23.23-.95,1,.23Zm-1-.25-1-.23.22-.95,1,.22Zm-1.05-.25-1-.23.23-1,1,.23Zm-1-.25-1-.23.23-1,1,.23Zm-1.06-.26-.95-.22.23-1,.95.23Zm-1-.25-1-.23.23-.95,1,.23Zm-1-.25-1-.23.23-.95.95.23Zm-1.05-.25-.95-.23.22-.95,1,.23Zm-1-.25-1-.23.23-.95,1,.22Zm-1.05-.25-1-.23.23-1,.95.23Zm-1.06-.26-1-.22.23-1,1,.23Zm0,.1-.23,1-1-.23.23-1Zm-.25,1.05-.23,1-1-.23.22-.95Zm-.25,1.06-.23.95-1-.23.22-.95Zm-.25,1.05-.23.95-1-.23.23-.95Zm.09,0,1,.23-.23.95-.95-.22Zm.71,1.28-.23,1-1-.23.23-1Zm-.26,1.05-.22,1-1-.23.23-.95Zm-.25,1.06-.23.95-.95-.23.23-1Zm.1,0,1,.23-.22.95-1-.23Zm.7,1.28-.23.95-1-.23.23-.95Zm.1,0,1,.23-.22.95-1-.22Zm.7,1.28-.22,1-1-.23.23-1Zm.1,0,1,.22-.23,1-1-.23Zm.7,1.28-.22.95-1-.23.23-.95Zm.1,0,1,.23-.23.95-1-.23Zm1.05.25,1,.23-.23.95L807,308Zm1.06.25,1,.23-.23.95-1-.22Zm1,.25,1,.23-.23,1-.95-.23Zm1.05.26.95.22-.22,1-1-.23Zm1,.25,1,.22-.23,1-1-.23Zm1.05.25,1,.23-.23.95-.95-.23Zm1.06.25,1,.23-.23.95-1-.23Zm1,.25,1,.23-.23.95-.95-.22Zm1.05.25.95.23-.23.95-1-.22Zm1,.25,1,.23-.22,1-1-.23Zm0-.09.23-1,1,.23-.23.95Zm.26-1.06.22-.95,1,.23-.23.95Zm.25-1.05.23-.95,1,.23-.23,1Zm.25-1.05.23-.95,1,.22-.23,1Zm.25-1.05.23-.95,1,.22-.23,1Zm.25-1,.23-1,1,.23-.22.95Zm.25-1.06.23-1,1,.23-.23.95Zm.25-1.05.23-.95,1,.23-.23.95Zm-.09,0-1-.23.23-.95,1,.23Zm-.71-1.28.23-.95,1,.22-.23,1Zm-.09,0-1-.23.23-1,.95.23Zm-.71-1.28.23-1,1,.23-.23.95Zm-.09,0-1-.23L816,298l1,.23Zm-.71-1.28.23-.95,1,.23-.23.95Zm-.09,0-1-.23.23-.95.95.23Zm-1.06-.25-.95-.23.23-.95,1,.22Zm-1-.25-1-.23.23-1,1,.23Zm-1.05-.26-.95-.22.22-1,1,.23Zm-1-.25-1-.22.23-1,1,.23Zm-1-.25-1-.23.23-.95.95.23Zm-1.06-.25-1-.23.23-.95,1,.23Zm-1-.25-1-.23.23-.95.95.23Zm-1.05-.25-.95-.23.22-.95,1,.22Zm-1-.25-1-.23.23-1,1,.23Zm-1.05-.26-1-.22.23-1,.95.23Zm-1-.25-1-.23.23-.95,1,.23ZM803.3,295l-.23.95-1-.22.23-1Zm-.25,1.05-.23.95-1-.22.23-1Zm-.25,1.05-.23,1-1-.23.23-.95Zm-.25,1.05-.23,1-1-.23.23-.95Zm-.26,1.06-.22.95-1-.23.23-.95Zm-.25,1-.23,1-.94-.22.22-1Zm.1,0,1,.23-.22,1-1-.22Zm.7,1.28-.23,1-1-.23.23-1Zm-.25,1.05-.23,1-1-.23.23-1Zm-.25,1.06-.23.95-1-.23.23-.95Zm.1,0,.95.23-.23.95-.95-.23Zm.7,1.28-.23.95-.95-.23.23-.95Zm.1,0,1,.23-.23.95-1-.22Zm.7,1.28-.23,1-1-.23.23-1Zm.1,0,1,.22-.23,1-1-.23Zm.7,1.28-.23,1-1-.23.23-.95Zm.1,0,.95.23-.23,1-.95-.23Zm1,.25,1,.23-.22,1-1-.23Zm1.05.25,1,.23-.23,1-1-.22Zm1,.25,1,.23-.23,1-1-.23Zm1.06.26,1,.22-.23,1-.95-.23Zm1.05.25.95.23-.23.95-1-.23Zm1,.25,1,.23-.22.95-1-.23Zm1.05.25,1,.23-.23.95-1-.23Zm1,.25,1,.23-.23.95-1-.22Zm1.06.25,1,.23-.23,1-.95-.23Zm1.05.25.95.23-.23,1-1-.23Zm1,.26,1,.22-.23,1-1-.23Zm1.07.15.23-1,1,.22-.23,1Zm.26-1.05.22-1,1,.23-.23,1Zm.25-1.05.23-1,.95.23-.23.95Zm.25-1.06.23-.95.95.23-.23,1Zm.25-1.05.23-.95.95.23-.23.95Zm.25-1.05.23-.95.95.22-.22,1Zm.25-1,.23-1,1,.23-.23,1Zm.26-1.05.22-1,1,.23-.23.95Zm.25-1.06.22-.95,1,.23-.23.95Zm.25-1.05.23-.95.95.23-.23,1Zm-.1,0-.95-.23.22-.95,1,.23Zm-.7-1.28.23-.95,1,.22-.23,1Zm-.1,0-1-.23.22-1,1,.23Zm-.7-1.28.23-1,1,.23-.23.95Zm-.1,0-.95-.23.22-.95,1,.23Zm-.7-1.28.23-.95.95.23-.23.95Zm-.1,0-1-.23.22-.95,1,.23Zm-1-.25-1-.23.23-.95,1,.22Zm-1.05-.25-1-.23.23-1,1,.23Zm-1.06-.26-1-.22.23-1,1,.23Zm-1.05-.25-.95-.23.23-.95.95.23Zm-1-.25-1-.23.22-.95,1,.23Zm-1-.25-1-.23.23-.95,1,.23Zm-1.05-.25-1-.23.23-.95,1,.22Zm-1.06-.25-1-.23.23-.95.95.22Zm-1.05-.25-.95-.23.23-1,1,.23Zm-1-.26-1-.22.22-1,1,.23Zm-1.05-.25-1-.23.23-.95,1,.23Zm-1-.25-1-.23.23-.95,1,.23Zm-1.08-.15-.23,1-.94-.23.22-.95Zm-1.3.8-.22.95-.95-.22.23-1Zm-.25,1.05-.23.95-.94-.22.23-1Zm-.25,1.05-.23,1-.94-.23.22-.95Zm-.25,1.05-.23,1-.95-.23.23-.95Zm-.25,1.06-.23.95-.95-.23.23-.95Zm-.25,1-.23,1-.95-.22.23-1Zm-.25,1.05-.23.95-.95-.22.23-1Zm.09,0,.95.23-.23.95-.94-.22Zm.7,1.28-.23,1-.95-.23.23-1Zm-.25,1.05-.23,1-.95-.23.23-.95Zm-.25,1.06-.23.95-.95-.23.23-.95Zm.09,0,1,.23-.23.95-1-.23Zm.71,1.28-.23.95-1-.22.23-1Zm.09,0,1,.23-.23.95-.95-.22Zm.71,1.28-.23,1-1-.23.23-1Zm.09,0,1,.22-.23,1-1-.23Zm.71,1.28-.23.95-1-.23.22-.95Zm.1,0,1,.23-.23.95-1-.23Zm1.05.25.95.23-.23.95-.95-.22Zm1,.25,1,.23-.23.95-1-.22Zm1.05.25.95.23-.22,1-1-.23Zm1,.26,1,.22-.23,1-1-.23Zm1,.25,1,.23-.23,1-.95-.23Zm1.06.25.95.23-.23,1-1-.23Zm1,.25,1,.23-.23,1-1-.23Zm1.05.25.95.23-.22,1-1-.22Zm1,.25,1,.23-.23,1-1-.23Zm1,.26,1,.22-.23,1-.95-.23Zm1.06.25.95.22-.23,1-1-.23Zm1,.25,1,.23-.23.95-1-.23Zm1.07.15.23-.95.95.23-.22.95Zm1.31-.8.22-1,1,.23-.23.95Zm.25-1.05.23-.95,1,.22-.23,1Zm.25-1.05.23-1,1,.23-.23,1Zm.25-1.05.23-1,1,.23-.23,1Zm.25-1.06.23-.95,1,.23-.22.95Zm.25-1.05.23-.95,1,.23-.23.95Zm.26-1,.22-1,1,.22-.23,1Zm.25-1.05.23-1,1,.23-.23,1Zm.25-1.05.23-1,1,.23-.23.95Zm.25-1.06.23-.95,1,.23-.23,1Zm.25-1.05.23-.95,1,.23-.22.95Zm-.1,0-1-.23.23-.95.95.23Zm-.7-1.28.23-.95.95.22-.22,1Zm-.1,0-.95-.23.23-1,1,.23Zm-.7-1.28.23-1,1,.23-.23.95Zm-.1,0-1-.23.23-.95,1,.23Zm-.7-1.28.23-1,1,.23-.23.95Zm-.1,0-.95-.23.23-1,.95.23Zm-1-.25-1-.23.23-1,1,.22Zm-1-.25-1-.23.22-1,1,.23Zm-1.05-.26-1-.22.23-1,1,.23Zm-1.06-.25-1-.23.23-.95,1,.23Zm-1.05-.25-.95-.23.23-.95.95.23Zm-1-.25-1-.23.23-.95,1,.23Zm-1-.25-1-.23.22-.95,1,.22Zm-1.05-.25-1-.23.23-1,1,.23Zm-1-.25-1-.23.23-1,.95.23Zm-1.06-.26-.95-.22.23-1,1,.23Zm-1-.25-1-.23.23-.95,1,.23Zm-1.05-.25L805,293l.22-.95,1,.23Zm-1-.25-1-.23.23-.95,1,.23Zm-1.08-.15-.23.95-.94-.23.23-.95Zm-1.29.8-.23,1-.95-.23.23-.95Zm-1.28.7-.94-.23.22-.95,1,.23Zm0,.1-.23.95-1-.22.23-1ZM801,295.5l-.23.95-1-.22.23-1Zm-.25,1.05-.23,1-1-.23.23-.95Zm-.26,1.05-.22,1-1-.23.23-.95Zm-.25,1.06-.23.95-.94-.23.23-.95Zm-.25,1-.23,1-.94-.22.22-1Zm-.25,1.05-.23.95-1-.22.23-1Zm-.25,1.05-.23,1-1-.23.23-1Zm.1,0,.94.22-.22,1-.95-.23Zm.69,1.27-.23,1-.94-.23.23-.95Zm-.25,1.06-.23.95-.94-.23.22-.95Zm-.25,1.05-.23.95-1-.22.23-1Zm.1,0,.94.23-.22.95-.95-.22Zm.69,1.28-.23,1-.94-.22.23-1Zm.1,0,1,.23-.22,1-1-.23Zm.7,1.28-.22,1-1-.23.23-.95Zm.1,0,1,.22-.23,1-1-.23Zm.7,1.28-.22.95-1-.23.23-1Zm.1,0,1,.23-.23.95-1-.23Zm1,.25,1,.23-.23.95-1-.22Zm1.06.25.95.23-.23,1-.95-.23Zm1,.25,1,.23-.23,1-1-.23Zm1.05.26.95.22-.23,1-.95-.23Zm1,.25,1,.23-.22.95-1-.23Zm1,.25,1,.23-.23.95-1-.23Zm1.05.25,1,.23-.23.95-1-.23Zm1.06.25,1,.23-.23.95-1-.22Zm1.05.25.95.23-.23,1-.95-.23Zm1,.26,1,.22-.22,1-1-.23Zm1,.25,1,.23-.23,1-1-.23Zm1.05.25,1,.23-.23,1-1-.23Zm1.06.25,1,.23-.23,1-1-.23Zm1.07.15.23-.95.95.23-.22.95Zm1.31-.8.22-.95,1,.23-.23.95Zm1.27-.7,1,.23-.23.95-.95-.23Zm0-.1.23-1,.95.23-.23.95Zm.25-1.05.23-.95.95.23-.23.95Zm.25-1.05.23-.95.95.22-.22,1Zm.25-1.05.23-1,.95.23-.22,1Zm.25-1.05.23-1,1,.23-.23.95Zm.26-1.06.22-.95,1,.23-.23.95Zm.25-1,.23-1,.95.23-.23.95Zm.25-1.05.23-.95.95.22-.23,1Zm.25-1.05.23-1,.95.23-.23,1Zm.25-1.05.23-1,.95.23-.22,1Zm.25-1.06.23-.95,1,.23-.23.95Zm.26-1.05.22-.95,1,.23-.23.95Zm-.1,0-1-.23.23-.95,1,.22Zm-.71-1.28.23-1,1,.22-.23,1Zm-.09,0-1-.23.23-1,.95.23Zm-.71-1.28.23-1,1,.23-.23.95Zm-.09,0-1-.23.23-1,1,.23Zm-.71-1.28.23-.95,1,.23-.23,1Zm-.09,0-1-.23.23-.95,1,.22Zm-1.06-.25-.95-.23.23-.95.95.22Zm-1-.25-1-.23.23-1,1,.23Zm-1-.26-1-.22.22-1,1,.23Zm-1.05-.25-1-.23.23-1,1,.23Zm-1-.25-1-.23.23-1,1,.23Zm-1.06-.25-.95-.23.23-1,.95.23Zm-1-.25-1-.23.23-1,1,.22Zm-1-.25-1-.23.23-1,.95.23Zm-1.05-.26-.95-.22.22-1,1,.23Zm-1-.25-1-.22.23-1,1,.23Zm-1.05-.25-1-.23.23-1,1,.23Zm-1.06-.25-1-.23.23-1,1,.23Zm-1.05-.25-.95-.23.23-1,.95.22Zm-1-.25-1-.23.22-1,1,.22Zm-1.08-.16-.22,1-1-.23.23-.95Zm-1.29.81-.23.95-.95-.23.23-.95Zm-1.28.7-.94-.23.21-.9h.07v0l.89.22Zm-1-.25-.76-.18v0h0l.11-.08c.17-.13.35-.25.54-.37l.12-.08.19-.12Zm-.79-.08h0l.77.18-.23,1-1.5-.36s0-.06,0-.06h0l.06-.06c.24-.22.5-.43.76-.64l.13,0S799.64,293,799.65,293Zm-1,.87h0l1.49.36-.22.95-2.09-.5h0s0-.06,0-.06h-.06l0,0c.21-.24.42-.47.65-.69l.16,0S798.65,293.87,798.67,293.84Zm-.88,1s0,0,0-.05h0l2.08.5-.23.95-2.52-.6s0-.06,0-.06l-.09,0v0c.18-.25.37-.49.56-.73Zm-.7.95s0,0,0-.05h0l2.53.6-.23,1-2.85-.69s0-.06,0-.06l-.12,0h0c.15-.26.31-.52.48-.77Zm-.58,1s0,0,0-.05h0l2.86.68-.23,1-3.06-.73s0-.06,0-.07l-.15,0c.11-.26.23-.52.36-.77l0,0Zm-.45,1s0,0,0-.05h0l3.06.73-.23.95-3.17-.76s0-.06,0-.06l-.15,0c.08-.28.18-.55.28-.82Zm-.37,1s0,0,0-.05h0l3.18.76-.23,1-3.18-.76s0-.06,0-.06l-.17,0c0-.14.06-.28.1-.42s.07-.28.11-.42Zm-.21,1h0l3.17.76-.22.95-3.06-.73s0-.06,0-.06l-.19,0c0-.29.06-.58.11-.87l.16,0S795.47,299.78,795.48,299.75Zm-.14,1.08h0l3.06.73-.22,1-2.86-.69s0-.06,0-.06l-.18,0c0-.3,0-.59,0-.88l.16,0S795.33,300.86,795.34,300.83Zm-.05,1.1h0l2.86.68-.23,1L795.4,303h0s0-.06,0-.06l-.17,0c0-.26-.06-.51-.07-.77V302h0l.11,0S795.28,302,795.29,301.93Zm3,.71,1,.22-.23,1-1-.23Zm.7,1.28-.23.95-1-.23.23-.95Zm-.26,1.05-.22.95-1-.22.23-1Zm-.25,1-.23,1-.94-.22.23-1Zm.1,0,1,.23-.23,1-1-.22Zm.7,1.28-.23,1-1-.23.23-.95Zm.09,0,.95.22-.23,1-.94-.23Zm.7,1.27-.23,1-.95-.23.23-1Zm.1,0,1,.23-.23.95-1-.23Zm.7,1.28-.23.95-1-.23.23-.95Zm.1,0,1,.23-.23.95-.95-.23Zm1.05.25.95.23-.22.95-1-.22Zm1,.25,1,.23-.23,1-1-.23Zm1.05.26,1,.22-.23,1-.95-.23Zm1.06.25,1,.22-.23,1-1-.23Zm1.05.25.95.23-.23.95-.95-.23Zm1,.25,1,.23-.22.95-1-.23Zm1,.25,1,.23-.23.95-1-.23Zm1.05.25,1,.23-.23.95-1-.22Zm1.06.25,1,.23-.23,1-1-.23Zm1.05.26.95.22-.23,1-.95-.23Zm1,.25,1,.23-.23.95-1-.23Zm1,.25,1,.23-.22.95-1-.23Zm1.05.25,1,.23-.23.95-1-.23Zm1,.25,1,.23-.23.95-1-.22Zm1.08.16.23-1,.95.23-.23,1Zm1.3-.8.23-1,1,.23-.23.95Zm1.28-.71,1,.23-.22.9h0s0,0,0,.05l-.89-.21Zm2.79-.38h0l-.06.06c-.24.22-.5.43-.76.63l-.12,0h0s0,0,0,.05l-.74-.17.23-1,1.47.35S822.09,311.73,822.1,311.74Zm.82-.92h0l.06,0,0,0c-.21.23-.42.46-.65.68l-.15,0h0s0,0,0,.05l-1.47-.36.23-1,2,.49S822.91,310.82,822.92,310.82Zm.69-.94h0l.1,0,0,0a7.85,7.85,0,0,1-.56.73l-.16,0h0s0,0,0,.05l-2-.49.23-.95,2.48.59S823.6,309.87,823.61,309.88Zm.6-1h0l.1,0h0a7.68,7.68,0,0,1-.47.78l-.18,0h0s0,0,0,0l-2.49-.59.23-.95,2.83.67S824.2,308.9,824.21,308.91Zm.44-1h0l.15,0c-.12.27-.24.54-.38.79l-.16,0h0s0,0,0,.06l-2.83-.68.23-1,3,.73S824.64,307.9,824.65,307.9Zm.36-1h0l.17,0a7.22,7.22,0,0,1-.29.82l-.18,0h0s0,0,0,.05l-3-.72.22-1,3.12.75S825,306.87,825,306.87Zm.25-1.05h0l.18,0a3,3,0,0,1-.09.43c0,.14-.07.28-.11.41l-.18,0h0s0,0,0,0L821.9,306l.23-.95,3.12.75S825.25,305.82,825.26,305.82Zm.15-1.08h0l.19.05q0,.36-.09.72l0,.14-.17,0h0s0,0,0,.05l-3.12-.75.23-1,3,.72S825.4,304.74,825.41,304.74Zm.06-1.09h0l.17,0c0,.29,0,.59,0,.88l-.16,0h0s0,0,0,.05l-3-.72.23-.95,2.83.67S825.46,303.64,825.47,303.65Zm-.09-1.14h0l.18.05c0,.3.06.6.07.9h0l-.11,0h0s0,0,0,.05l-2.83-.68.23-.95,2.48.59S825.36,302.51,825.38,302.51Zm-.2-1.16h0l.17,0c0,.23.1.46.14.69l0,.21v0l-.1,0h0s0,0,0,.05l-2.49-.59.23-1,2,.49S825.17,301.35,825.18,301.35Zm-.31-1.18h0l.14,0c.11.3.2.6.28.91v.05l-.06,0h0s0,0,0,.05l-2-.48.22-1,1.47.35A.1.1,0,0,0,824.87,300.17Zm-.49-1.23h0l.12,0c.14.3.27.6.39.91l0,.08h0s0,0,0,.06l-1.47-.36.23-.95.73.18S824.37,298.94,824.38,298.94Zm-.41-1,.08.13c.1.17.19.35.28.53l.06.12,0,0v0l-.74-.18.2-.84A1.18,1.18,0,0,1,824,298Zm-.23-.28h0l-.21.9-.95-.23.22-1,.9.21h0S823.73,297.67,823.74,297.67Zm-.6-1a1,1,0,0,0,.08.11l.34.5a.83.83,0,0,1,.08.12l.06.09-.84-.2.18-.75Zm-.23-.29h0s0,0,0,0h0l-.2.83-1-.22.22-1,.8.19A.76.76,0,0,1,822.91,296.39Zm-.65-.78.08.09.18.2.11.13a1.47,1.47,0,0,1,.1.13l-.67-.17.11-.48Zm-.22-.24v.06s0,0,.05,0l-.12.5-1-.23.22-.95.32.07Zm-.69-.7.06.06-.15,0,0-.08Zm-1-.83h0l.09.08c.19.16.39.32.57.49l.07.06v.06l0,0,0,.09-.95-.23.14-.59S820.39,293.85,820.39,293.84Zm-1-.69s.06,0,.06,0l.08.06.67.49,0,.1s0,0,0,0h0l-.14.59-1-.23.25-1Zm-1-.61s.06,0,.06,0h0l0,0,.72.46,0,.08s0,0,0,0l-.24,1-1-.22.34-1.4Zm-1-.54s.06,0,.07,0h0l0,0q.39.19.75.42v.06s0,0,.05,0l-.34,1.4-1-.22.4-1.69Zm-1-.48h.07l.79.37v.06s0,0,.05,0l-.41,1.69-1-.23.46-1.91Zm-1-.42s.06,0,.07,0h0l.81.33v0s0,0,.05,0l-.46,1.91-.95-.23.49-2.08Zm-.14-.09v0s0,0,.05,0l-.49,2.08-1-.23.52-2.15h.06v0Zm-1.39-.44.36.1v.05l0,0-.51,2.15-1-.23.53-2.19h0l.06,0v0Zm-.69-.17v0s0,0,0,0l-.53,2.2-1-.23.52-2.16h0s.06,0,.06,0v0Q812.8,290.29,813.22,290.4Zm-1.06-.22v0s0,0,.05,0l-.52,2.16-1-.22.49-2.07h.07v-.05Zm-1.07-.16v0s0,0,0,0l-.49,2.06-.95-.23.46-1.91h0l.06,0v0Zm-1.1-.09h0s0,0,0,0l-.46,1.92-1-.23L809,290h0s.06,0,.06,0l0-.06Zm-1.13,0h0s0,0,.05,0l-.4,1.69-1-.23.34-1.41H808l0-.06C808.28,289.92,808.57,289.91,808.86,289.91Zm-1.61.09.46,0h.06s0,0,.05,0l-.34,1.41-1-.23.25-1.06h.07V290Zm-.71.08h.11l0,0-.26,1.06-.95-.23.14-.6h0s.06,0,.07,0l0-.08Zm-2,.41h.05c.25-.07.5-.13.76-.18l.11,0h0l0,0-.15.61-1-.23,0-.08h0s.06,0,.06,0l0-.07Zm-.29.09.07,0h0l0,.08-.16,0Zm-.28.08.33.08-.23,1-1-.23.12-.48s.06,0,.06,0l0-.09Zm-1.5.56.16-.07.27-.11L803,291l.1,0h0l-.12.49-.69-.17Zm-.29.13.82.19-.23,1-.95-.23.19-.79h.07l0-.08Zm-.27.12-.18.78-.88-.21L801,292l.13-.08.57-.3.12-.06Zm-8,12.93-.83-1-.16-.18h0a25.78,25.78,0,0,0-2.71-2.72,22.05,22.05,0,0,0-2.54-1.87,16.94,16.94,0,0,0-2.13-1.14.71.71,0,0,1,.33-1.35,20.71,20.71,0,0,0,8-1.33c.38-.13.76-.28,1.14-.44s1-.4,1.44-.63a.14.14,0,0,1,.16.22h0a11.68,11.68,0,0,0-2.24,4c-.09.3-.18.6-.25.9a11.89,11.89,0,0,0,0,5.47h0A.14.14,0,0,1,793.87,304.4Zm1.72-.28s0-.06,0-.06l-.16,0c-.07-.3-.12-.6-.17-.9v0l.09,0s0,0,0-.05h0l2.53.61-.23.95-2.08-.5Zm.33,1.19s0-.06,0-.06l-.16,0q-.15-.45-.27-.9v-.05h0s0,0,0,0h0l2.09.5-.23.95-1.5-.36Zm.49,1.23s0-.06,0-.06l-.13,0c-.14-.3-.27-.61-.39-.91l0-.08h0s0,0,0,0h0l1.5.36-.23,1-.76-.18Zm.41,1-.07-.12-.32-.58-.06-.12v-.05h0l.77.18-.22.88Zm.26.28s0,0-.05,0l.21-.9,1,.22-.23,1-.89-.22Zm.57,1-.08-.11c-.12-.17-.25-.34-.36-.52l-.09-.13,0-.08.87.2-.19.78Zm.23.3,0-.08s0,0,0,0h0l.19-.79.94.22-.22,1-.82-.2Zm.72.85-.07-.08-.09-.09-.19-.23-.11-.13-.1-.12.69.17-.11.48Zm.14.15,0-.09s0,0,0,0l.11-.48.95.23-.23.95-.33-.08Zm.75.75-.06-.05-.07-.07.17,0,0,.08Zm.9.77h0a.27.27,0,0,1-.08-.07c-.21-.16-.4-.33-.59-.5l-.06-.06,0-.07s0,0,0,0h0v-.08l1,.23-.15.6Zm1,.71-.09-.06c-.24-.16-.46-.33-.69-.51l0-.08s0,0-.05,0h0l.15-.6,1,.23-.25,1.06Zm.94.61,0,0-.72-.46,0-.06s0,0,0,0h0l.25-1.06.95.23-.34,1.41Zm1,.53v0l0,0-.06,0h0l-.69-.38V313s0,0,0,0h0l.34-1.41,1,.22-.4,1.69Zm1,.49h0l-.79-.37,0-.06s0,0-.05,0h0l.4-1.69,1,.23-.46,1.91A.1.1,0,0,0,804.26,313.92Zm.2.09,0,0s0,0-.05,0h0l.45-1.92,1,.23-.5,2.06h-.06v0C805,314.24,804.73,314.13,804.46,314Zm1,.4v-.05s0,0,0,0h0l.5-2.06.95.23-.52,2.16s-.06,0-.06,0v0Zm1,.34v0l0,0h0l.52-2.16,1,.23-.52,2.19s-.06,0-.07,0v0Zm1,.27v0s0,0-.05,0h0l.52-2.2,1,.23-.51,2.15h-.06v.05C808.12,315.15,807.84,315.09,807.56,315Zm1.9.35-.84-.13v0s0,0,0,0h0l.51-2.16,1,.23-.5,2.08h-.06v0Zm.24,0h0l-.05,0h0l.49-2.07,1,.22-.46,1.92s-.06,0-.06,0l0,.05C810.28,315.45,810,315.43,809.7,315.39Zm1.1.09h0s0,0,0,0h0l.46-1.91.95.23-.4,1.68a.1.1,0,0,0-.07,0v.06Zm1.13,0h0s0,0,0,0h0l.41-1.69,1,.23-.33,1.4s-.06,0-.07,0v.07C812.5,315.5,812.22,315.51,811.93,315.51Zm1.15-.05H813s0,0-.06,0h0l.34-1.4,1,.23-.24,1a.1.1,0,0,0-.07,0l0,.07Q813.5,315.43,813.08,315.46Zm1.16-.13h-.09l0,0h0l.25-1,.95.23-.14.59h0s-.06,0-.06,0l0,.09Zm1.93-.4c-.25.07-.49.13-.74.18l-.11,0h0l0,0,.14-.59,1,.23,0,.09s-.07,0-.07,0v.05Zm.36-.1-.1,0,0-.08.14,0Zm.26-.08-.31-.07.23-1,.95.23-.12.5h-.06l0,.07Zm1.49-.55-.15.07-.25.1-.12,0-.12,0,.12-.48.67.16Zm.48-.21s-.06,0-.06,0h0l-.12.06-.8-.19.23-1,1,.23-.19.83Zm.12-.06.18-.76.84.21-.09.05-.13.07-.52.29-.13.06Z"/><path d="M589.05,328.57,617.39,296s6.45,17.63,24.4,22.29c0,0-30.62,16.75-40.64,22.07a8.6,8.6,0,0,0-2.7,2.32c-1.47,1.91-5.9,5.2-18.7,4.18,0,0-13.73-.48-21.07,3.31l-20.82,11.12s-6-6.68,0-13.72l26-15.39a19.76,19.76,0,0,1,15.38-2.36l6,.34A4.62,4.62,0,0,0,589.05,328.57Z" fill="#fed194"/><path d="M537.86,347.57l-11.57-5.48a3,3,0,0,0-3.9,1.28c-1,2-2.16,5.85-2.52,13.19,0,0-3.07,25.56,2.61,27,0,0,2.84,1.18,5-5.68l6.22-12.46a6.54,6.54,0,0,1,1.75-2.16l2.44-1.95A10.7,10.7,0,0,1,537.86,347.57Z" fill="#686175" data-primary="true"/><path d="M612.68,301.41l4.71-5.41s6.8,17.63,24.4,22.29l-15.18,8.29s1.23-12.93-8-12a10.1,10.1,0,0,1-6.23-1.17C609.5,311.76,607.19,308.29,612.68,301.41Z" fill="#fbc27c"/><path d="M643.17,230.41s6.39,4,11.66-1.68c0,0,2.64-3.55,5.69-.78,0,0,4.16,6,10.41,4.72a14.17,14.17,0,0,0,10.41-6.8s5.32-8.83,9.39-4.76l1.29-3.29s-5.92-9.51-15-3.46c-.83.55-9.29,11.1-13.59,9,0,0-7.12-3.89-11.66,2.22C651.78,225.6,650.39,229.68,643.17,230.41Z"/><path d="M775.86,296s-8.05,3.69-7.29.5c0,0-2.71.41-2.29-.83,0,0-2.43,0-.76-1.18l1.12-.69Z" fill="#fed194"/><path d="M654.42,318.29s29.06,17.83,44.86,21.14c0,0-6.06,13,16.54,37.3l8.82,11.94s6.8-2.39,6.06-11.39c0,0-11-20-15.8-37.3a21.82,21.82,0,0,0-7.9-14.15l-25.12-24.42S665.17,316.06,654.42,318.29Z" fill="#fed194"/><path d="M709.65,244.64s13.06,6.42,19.68,17c0,0,6.29,8.45,12.59,9.77,0,0,9.77,1.33,14.07,5.47l13.42,10.27s6,3,6.12,5.64c0,0-3.63-.83-4.42-1,0,0-.9.42,1.46.82a1.23,1.23,0,0,1,1.15,1.18c0,.44-.32.85-1.26.92a3.57,3.57,0,0,1-2.07-.49,9.68,9.68,0,0,1-3.15-3.24,3.53,3.53,0,0,0-2.53-1.59,55.18,55.18,0,0,1-17.87-5.26,75.29,75.29,0,0,1-16.7-7.54s-17.31-14.57-21.79-12.38C708.35,264.24,711.32,252.71,709.65,244.64Z" fill="#fed194"/><path d="M669.9,289.57l7.83,7.19a3.74,3.74,0,0,0,2.61,1c.75,0,1.66.31,2.14,1.79a1.72,1.72,0,0,1-.51,1.82c-3.61,3.11-19.24,16.23-27.55,17l-5.14-4.85-7.49,4.85s-23.45-4.85-27.48-34.13l31.92-11.1S649.72,283.74,669.9,289.57Z" fill="#686175" data-primary="true"/><path d="M724.64,388.67s1.71,7.25,3.84,10.47a1.75,1.75,0,0,0,2.26.59c5-2.55,23.77-12.82,29-23.69a3.68,3.68,0,0,0-.23-3.71c-.91-1.32-2.91-2.31-7.27-.39,0,0-14.25,6.42-21.56,5.34C730.7,377.28,731.56,386,724.64,388.67Z" fill="#686175" data-primary="true"/><path d="M688.41,238.92a16.54,16.54,0,0,1,1.53,14.29s-1.11,6.56-11.38,4.74c0,0-6.94.12-11-1.13,0,0-3.05,14.71-21.37,16.24,0,0,1.47,9.85,23.67,16.51l16.39-11.84s18.4,4.67,22.06-13.49c0,0,3-11.05,1.3-19.6h-1.24l-9.51-5.22S692.58,238.41,688.41,238.92Z" fill="#f48225" data-secondary="true"/><path d="M688.41,238.92s-5.26.15-12.25,4.62a10.27,10.27,0,0,1-3.71,1.47c-6.49,1.15-26.12,4.64-27.91,5,0,0-6.42-.91-10.4,6.89,0,0-9.1,13.22-12.06,21.55L605.19,287a1.14,1.14,0,0,0-.49,1.57h0a1.16,1.16,0,0,0,1.55.47l6.93-3.69a.92.92,0,0,1,1.22.32h0a.92.92,0,0,1-.26,1.25L605,293.2a1,1,0,0,0-.19,1.45h0a1,1,0,0,0,1.3.16l9.19-6.39a1.15,1.15,0,0,1,1.64.35h0a1.15,1.15,0,0,1-.2,1.43l-9.17,8.54a1,1,0,0,0,.12,1.49h0a1,1,0,0,0,1.21-.13l10-10.31a.71.71,0,0,1,.52-.22h0a.73.73,0,0,1,.65,1.05l-4.58,9.16a1.12,1.12,0,0,0,1,1.63h0a1.11,1.11,0,0,0,1-.7c1.23-3,6.18-14.63,8.6-13.18l3,4.33a1,1,0,0,0,1.6.15h0a1,1,0,0,0,.16-1.28,33.51,33.51,0,0,1-1.88-3.51,10.24,10.24,0,0,1-.79-2.48c-.22-1.18-.72-3.17-1.73-4.1a1.1,1.1,0,0,1-.09-1.58c2.81-3.06,10.84-11.91,14.45-17.13a5.85,5.85,0,0,1,2.92-2.21,51.53,51.53,0,0,0,6.85-2.83,6.45,6.45,0,0,1,3.34-.72l13.63.65a37.45,37.45,0,0,0,11,1.13S691,261.08,690.81,249A14,14,0,0,0,688.41,238.92Z" fill="#fed194"/><path d="M641.79,318.29l7.49-4.85,28.45-16.68c-5.81,2.08-25.92,8.91-35.71,9.52a86.15,86.15,0,0,1-19.21-.95C624.06,306.89,631.63,316.14,641.79,318.29Z" opacity="0.2"/><circle cx="692.79" cy="220.11" r="2.29" fill="#f48225" data-secondary="true"/><path d="M700.06,236.29s.88,3.22-4,2.75c0,0,2.09,19.58,9,18.89,0,0,4.16-.14,3.88-6.11l-.54-7.18a2.56,2.56,0,0,1,.42-1.59l.89-1.39S704.18,243.11,700.06,236.29Z" fill="#fed194"/><path d="M698.31,238.94s4.57,5.18,10.1,5.7a11,11,0,0,1,.47-1.4,9.42,9.42,0,0,1,.92-1.7s-6.14,1.41-9.74-5.25A2.11,2.11,0,0,1,698.31,238.94Z" fill="#fbc27c"/><ellipse cx="708.35" cy="228.73" rx="10.16" ry="13.07" fill="#fed194"/><path d="M699.71,229.78s-.47-6,3.41-5.43c0,0,2.22.55,2.87-1.39,0,0,2.13-3.79,4.81-3.33l4.81,0s3.24-4.31-3-7.92c0,0-15.72-3.33-19.52,5.74,0,0-7.25,15.27,5.92,19.33,0,0,.85.41,1-.45C700.06,236.29,697.64,232.47,699.71,229.78Z"/><ellipse cx="697.64" cy="230.41" rx="2.16" ry="3.66" transform="translate(-36.9 214.75) rotate(-17.06)" fill="#fed194"/><circle cx="790.86" cy="284.1" r="3.05" transform="translate(331.12 987.52) rotate(-76.59)" fill="#f48225" data-secondary="true"/><path d="M788.74,281.86a3.23,3.23,0,0,1,.39,4.78l-.38-.33a2.75,2.75,0,0,0-.32-4.06Z" fill="#fffffe"/><path d="M793.29,282.25a2.74,2.74,0,0,0-.33,4.06l-.38.33a3.24,3.24,0,0,1,.39-4.78Z" fill="#fffffe"/><rect x="24.27" y="320.67" width="14.33" height="181.64" fill="#bcbec0"/><rect x="830.2" y="320.67" width="13.87" height="181.64" fill="#bcbec0"/><rect x="38.6" y="325.84" width="793.68" height="6.42" fill="#d1d3d4"/><line x1="825.15" y1="332.27" x2="825.15" y2="502.32" fill="none" stroke="#e6e7e8" stroke-miterlimit="10" stroke-width="0.25"/><line x1="815.19" y1="332.27" x2="815.19" y2="502.32" fill="none" stroke="#e6e7e8" stroke-miterlimit="10" stroke-width="0.25"/><line x1="805.24" y1="332.27" x2="805.24" y2="502.32" fill="none" stroke="#e6e7e8" stroke-miterlimit="10" stroke-width="0.25"/><line x1="795.29" y1="332.27" x2="795.29" y2="502.32" fill="none" stroke="#e6e7e8" stroke-miterlimit="10" stroke-width="0.25"/><line x1="785.34" y1="332.27" x2="785.34" y2="502.32" fill="none" stroke="#e6e7e8" stroke-miterlimit="10" stroke-width="0.25"/><line x1="775.38" y1="332.27" x2="775.38" y2="502.32" fill="none" stroke="#e6e7e8" stroke-miterlimit="10" stroke-width="0.25"/><line x1="766" y1="332.27" x2="766" y2="502.32" fill="none" stroke="#e6e7e8" stroke-miterlimit="10" stroke-width="0.25"/><line x1="756.04" y1="332.27" x2="756.04" y2="502.32" fill="none" stroke="#e6e7e8" stroke-miterlimit="10" stroke-width="0.25"/><line x1="746.09" y1="332.27" x2="746.09" y2="502.32" fill="none" stroke="#e6e7e8" stroke-miterlimit="10" stroke-width="0.25"/><line x1="736.14" y1="332.27" x2="736.14" y2="502.32" fill="none" stroke="#e6e7e8" stroke-miterlimit="10" stroke-width="0.25"/><line x1="726.19" y1="332.27" x2="726.19" y2="502.32" fill="none" stroke="#e6e7e8" stroke-miterlimit="10" stroke-width="0.25"/><line x1="716.23" y1="332.27" x2="716.23" y2="502.32" fill="none" stroke="#e6e7e8" stroke-miterlimit="10" stroke-width="0.25"/><line x1="706.35" y1="332.27" x2="706.35" y2="502.32" fill="none" stroke="#e6e7e8" stroke-miterlimit="10" stroke-width="0.25"/><line x1="696.39" y1="332.27" x2="696.39" y2="502.32" fill="none" stroke="#e6e7e8" stroke-miterlimit="10" stroke-width="0.25"/><line x1="686.44" y1="332.27" x2="686.44" y2="502.32" fill="none" stroke="#e6e7e8" stroke-miterlimit="10" stroke-width="0.25"/><line x1="676.49" y1="332.27" x2="676.49" y2="502.32" fill="none" stroke="#e6e7e8" stroke-miterlimit="10" stroke-width="0.25"/><line x1="666.54" y1="332.27" x2="666.54" y2="502.32" fill="none" stroke="#e6e7e8" stroke-miterlimit="10" stroke-width="0.25"/><line x1="657.15" y1="332.27" x2="657.15" y2="502.32" fill="none" stroke="#e6e7e8" stroke-miterlimit="10" stroke-width="0.25"/><line x1="647.2" y1="332.27" x2="647.2" y2="502.32" fill="none" stroke="#e6e7e8" stroke-miterlimit="10" stroke-width="0.25"/><line x1="637.24" y1="332.27" x2="637.24" y2="502.32" fill="none" stroke="#e6e7e8" stroke-miterlimit="10" stroke-width="0.25"/><line x1="627.29" y1="332.27" x2="627.29" y2="502.32" fill="none" stroke="#e6e7e8" stroke-miterlimit="10" stroke-width="0.25"/><line x1="617.34" y1="332.27" x2="617.34" y2="502.32" fill="none" stroke="#e6e7e8" stroke-miterlimit="10" stroke-width="0.25"/><line x1="607.39" y1="332.27" x2="607.39" y2="502.32" fill="none" stroke="#e6e7e8" stroke-miterlimit="10" stroke-width="0.25"/><line x1="597.25" y1="332.27" x2="597.25" y2="502.32" fill="none" stroke="#e6e7e8" stroke-miterlimit="10" stroke-width="0.25"/><line x1="587.3" y1="332.27" x2="587.3" y2="502.32" fill="none" stroke="#e6e7e8" stroke-miterlimit="10" stroke-width="0.25"/><line x1="577.35" y1="332.27" x2="577.35" y2="502.32" fill="none" stroke="#e6e7e8" stroke-miterlimit="10" stroke-width="0.25"/><line x1="567.39" y1="332.27" x2="567.39" y2="502.32" fill="none" stroke="#e6e7e8" stroke-miterlimit="10" stroke-width="0.25"/><line x1="557.44" y1="332.27" x2="557.44" y2="502.32" fill="none" stroke="#e6e7e8" stroke-miterlimit="10" stroke-width="0.25"/><line x1="548.05" y1="332.27" x2="548.05" y2="502.32" fill="none" stroke="#e6e7e8" stroke-miterlimit="10" stroke-width="0.25"/><line x1="538.1" y1="332.27" x2="538.1" y2="502.32" fill="none" stroke="#e6e7e8" stroke-miterlimit="10" stroke-width="0.25"/><line x1="528.15" y1="332.27" x2="528.15" y2="502.32" fill="none" stroke="#e6e7e8" stroke-miterlimit="10" stroke-width="0.25"/><line x1="518.19" y1="332.27" x2="518.19" y2="502.32" fill="none" stroke="#e6e7e8" stroke-miterlimit="10" stroke-width="0.25"/><line x1="508.24" y1="332.27" x2="508.24" y2="502.32" fill="none" stroke="#e6e7e8" stroke-miterlimit="10" stroke-width="0.25"/><line x1="498.29" y1="332.27" x2="498.29" y2="502.32" fill="none" stroke="#e6e7e8" stroke-miterlimit="10" stroke-width="0.25"/><line x1="488.69" y1="332.27" x2="488.69" y2="502.32" fill="none" stroke="#e6e7e8" stroke-miterlimit="10" stroke-width="0.25"/><line x1="478.74" y1="332.27" x2="478.74" y2="502.32" fill="none" stroke="#e6e7e8" stroke-miterlimit="10" stroke-width="0.25"/><line x1="468.79" y1="332.27" x2="468.79" y2="502.32" fill="none" stroke="#e6e7e8" stroke-miterlimit="10" stroke-width="0.25"/><line x1="459.4" y1="332.27" x2="459.4" y2="502.32" fill="none" stroke="#e6e7e8" stroke-miterlimit="10" stroke-width="0.25"/><line x1="449.45" y1="332.27" x2="449.45" y2="502.32" fill="none" stroke="#e6e7e8" stroke-miterlimit="10" stroke-width="0.25"/><line x1="439.49" y1="332.27" x2="439.49" y2="502.32" fill="none" stroke="#e6e7e8" stroke-miterlimit="10" stroke-width="0.25"/><line x1="429.54" y1="332.27" x2="429.54" y2="502.32" fill="none" stroke="#e6e7e8" stroke-miterlimit="10" stroke-width="0.25"/><line x1="419.59" y1="332.27" x2="419.59" y2="502.32" fill="none" stroke="#e6e7e8" stroke-miterlimit="10" stroke-width="0.25"/><line x1="409.64" y1="332.27" x2="409.64" y2="502.32" fill="none" stroke="#e6e7e8" stroke-miterlimit="10" stroke-width="0.25"/><line x1="399.75" y1="332.27" x2="399.75" y2="502.32" fill="none" stroke="#e6e7e8" stroke-miterlimit="10" stroke-width="0.25"/><line x1="389.8" y1="332.27" x2="389.8" y2="502.32" fill="none" stroke="#e6e7e8" stroke-miterlimit="10" stroke-width="0.25"/><line x1="379.85" y1="332.27" x2="379.85" y2="502.32" fill="none" stroke="#e6e7e8" stroke-miterlimit="10" stroke-width="0.25"/><line x1="369.89" y1="332.27" x2="369.89" y2="502.32" fill="none" stroke="#e6e7e8" stroke-miterlimit="10" stroke-width="0.25"/><line x1="359.94" y1="332.27" x2="359.94" y2="502.32" fill="none" stroke="#e6e7e8" stroke-miterlimit="10" stroke-width="0.25"/><line x1="350.55" y1="332.27" x2="350.55" y2="502.32" fill="none" stroke="#e6e7e8" stroke-miterlimit="10" stroke-width="0.25"/><line x1="340.6" y1="332.27" x2="340.6" y2="502.32" fill="none" stroke="#e6e7e8" stroke-miterlimit="10" stroke-width="0.25"/><line x1="330.65" y1="332.27" x2="330.65" y2="502.32" fill="none" stroke="#e6e7e8" stroke-miterlimit="10" stroke-width="0.25"/><line x1="320.7" y1="332.27" x2="320.7" y2="502.32" fill="none" stroke="#e6e7e8" stroke-miterlimit="10" stroke-width="0.25"/><line x1="310.74" y1="332.27" x2="310.74" y2="502.32" fill="none" stroke="#e6e7e8" stroke-miterlimit="10" stroke-width="0.25"/><line x1="300.79" y1="332.27" x2="300.79" y2="502.32" fill="none" stroke="#e6e7e8" stroke-miterlimit="10" stroke-width="0.25"/><line x1="290.65" y1="332.27" x2="290.65" y2="502.32" fill="none" stroke="#e6e7e8" stroke-miterlimit="10" stroke-width="0.25"/><line x1="280.7" y1="332.27" x2="280.7" y2="502.32" fill="none" stroke="#e6e7e8" stroke-miterlimit="10" stroke-width="0.25"/><line x1="270.75" y1="332.27" x2="270.75" y2="502.32" fill="none" stroke="#e6e7e8" stroke-miterlimit="10" stroke-width="0.25"/><line x1="260.8" y1="332.27" x2="260.8" y2="502.32" fill="none" stroke="#e6e7e8" stroke-miterlimit="10" stroke-width="0.25"/><line x1="250.84" y1="332.27" x2="250.84" y2="502.32" fill="none" stroke="#e6e7e8" stroke-miterlimit="10" stroke-width="0.25"/><line x1="241.46" y1="332.27" x2="241.46" y2="502.32" fill="none" stroke="#e6e7e8" stroke-miterlimit="10" stroke-width="0.25"/><line x1="231.5" y1="332.27" x2="231.5" y2="502.32" fill="none" stroke="#e6e7e8" stroke-miterlimit="10" stroke-width="0.25"/><line x1="221.55" y1="332.27" x2="221.55" y2="502.32" fill="none" stroke="#e6e7e8" stroke-miterlimit="10" stroke-width="0.25"/><line x1="211.6" y1="332.27" x2="211.6" y2="502.32" fill="none" stroke="#e6e7e8" stroke-miterlimit="10" stroke-width="0.25"/><line x1="201.65" y1="332.27" x2="201.65" y2="502.32" fill="none" stroke="#e6e7e8" stroke-miterlimit="10" stroke-width="0.25"/><line x1="191.69" y1="332.27" x2="191.69" y2="502.32" fill="none" stroke="#e6e7e8" stroke-miterlimit="10" stroke-width="0.25"/><line x1="182.74" y1="332.27" x2="182.74" y2="502.32" fill="none" stroke="#e6e7e8" stroke-miterlimit="10" stroke-width="0.25"/><line x1="172.6" y1="332.27" x2="172.6" y2="502.32" fill="none" stroke="#e6e7e8" stroke-miterlimit="10" stroke-width="0.25"/><line x1="162.65" y1="332.27" x2="162.65" y2="502.32" fill="none" stroke="#e6e7e8" stroke-miterlimit="10" stroke-width="0.25"/><line x1="152.7" y1="332.27" x2="152.7" y2="502.32" fill="none" stroke="#e6e7e8" stroke-miterlimit="10" stroke-width="0.25"/><line x1="142.74" y1="332.27" x2="142.74" y2="502.32" fill="none" stroke="#e6e7e8" stroke-miterlimit="10" stroke-width="0.25"/><line x1="132.79" y1="332.27" x2="132.79" y2="502.32" fill="none" stroke="#e6e7e8" stroke-miterlimit="10" stroke-width="0.25"/><line x1="123.4" y1="332.27" x2="123.4" y2="502.32" fill="none" stroke="#e6e7e8" stroke-miterlimit="10" stroke-width="0.25"/><line x1="113.45" y1="332.27" x2="113.45" y2="502.32" fill="none" stroke="#e6e7e8" stroke-miterlimit="10" stroke-width="0.25"/><line x1="103.5" y1="332.27" x2="103.5" y2="502.32" fill="none" stroke="#e6e7e8" stroke-miterlimit="10" stroke-width="0.25"/><line x1="93.55" y1="332.27" x2="93.55" y2="502.32" fill="none" stroke="#e6e7e8" stroke-miterlimit="10" stroke-width="0.25"/><line x1="83.59" y1="332.27" x2="83.59" y2="502.32" fill="none" stroke="#e6e7e8" stroke-miterlimit="10" stroke-width="0.25"/><line x1="73.64" y1="332.27" x2="73.64" y2="502.32" fill="none" stroke="#e6e7e8" stroke-miterlimit="10" stroke-width="0.25"/><line x1="64.14" y1="332.27" x2="64.14" y2="502.32" fill="none" stroke="#e6e7e8" stroke-miterlimit="10" stroke-width="0.25"/><line x1="54.18" y1="332.27" x2="54.18" y2="502.32" fill="none" stroke="#e6e7e8" stroke-miterlimit="10" stroke-width="0.25"/><line x1="44.23" y1="332.27" x2="44.23" y2="502.32" fill="none" stroke="#e6e7e8" stroke-miterlimit="10" stroke-width="0.25"/><line x1="38.6" y1="338.82" x2="830.2" y2="339.26" fill="none" stroke="#e6e7e8" stroke-miterlimit="10" stroke-width="0.25"/><line x1="38.6" y1="349.4" x2="830.2" y2="349.84" fill="none" stroke="#e6e7e8" stroke-miterlimit="10" stroke-width="0.25"/><line x1="38.6" y1="358.22" x2="830.2" y2="358.66" fill="none" stroke="#e6e7e8" stroke-miterlimit="10" stroke-width="0.25"/><line x1="38.6" y1="368.8" x2="830.2" y2="369.24" fill="none" stroke="#e6e7e8" stroke-miterlimit="10" stroke-width="0.25"/><line x1="38.6" y1="378.92" x2="830.2" y2="379.37" fill="none" stroke="#e6e7e8" stroke-miterlimit="10" stroke-width="0.25"/><line x1="38.6" y1="389.51" x2="830.2" y2="389.95" fill="none" stroke="#e6e7e8" stroke-miterlimit="10" stroke-width="0.25"/><line x1="38.6" y1="398.32" x2="830.2" y2="398.76" fill="none" stroke="#e6e7e8" stroke-miterlimit="10" stroke-width="0.25"/><line x1="38.6" y1="408.9" x2="830.2" y2="409.34" fill="none" stroke="#e6e7e8" stroke-miterlimit="10" stroke-width="0.25"/><line x1="38.6" y1="419.9" x2="830.2" y2="420.34" fill="none" stroke="#e6e7e8" stroke-miterlimit="10" stroke-width="0.25"/><line x1="38.6" y1="430.48" x2="830.2" y2="430.92" fill="none" stroke="#e6e7e8" stroke-miterlimit="10" stroke-width="0.25"/><line x1="38.6" y1="439.3" x2="830.2" y2="439.74" fill="none" stroke="#e6e7e8" stroke-miterlimit="10" stroke-width="0.25"/><line x1="38.6" y1="449.88" x2="830.2" y2="450.32" fill="none" stroke="#e6e7e8" stroke-miterlimit="10" stroke-width="0.25"/><line x1="38.6" y1="460" x2="830.2" y2="460.44" fill="none" stroke="#e6e7e8" stroke-miterlimit="10" stroke-width="0.25"/><line x1="38.6" y1="470.58" x2="830.2" y2="471.02" fill="none" stroke="#e6e7e8" stroke-miterlimit="10" stroke-width="0.25"/><line x1="38.6" y1="479.4" x2="830.2" y2="479.84" fill="none" stroke="#e6e7e8" stroke-miterlimit="10" stroke-width="0.25"/><line x1="38.6" y1="489.98" x2="830.2" y2="490.42" fill="none" stroke="#e6e7e8" stroke-miterlimit="10" stroke-width="0.25"/><line x1="38.6" y1="502.1" x2="830.2" y2="502.54" fill="none" stroke="#e6e7e8" stroke-miterlimit="10" stroke-width="0.25"/><path d="M461,422.35a45.46,45.46,0,0,0,7-6.57,41.4,41.4,0,0,0,5.32-7.87,40.24,40.24,0,0,0,4.3-14.84c.1-1.25.15-2.5.14-3.76a41.08,41.08,0,0,0-.8-7.7c-.11-.58-.24-1.15-.38-1.72a44,44,0,0,0-1.65-5.32c-.48-1.24-1-2.48-1.6-3.7a50.69,50.69,0,0,0-5.14-8.38,56.18,56.18,0,0,0-6.83-7.52,60.89,60.89,0,0,0-8.35-6.43,65.27,65.27,0,0,0-15.36-7.23q-2.54-.82-5.15-1.44A67.28,67.28,0,0,0,416.84,338a64.8,64.8,0,0,0-6.54.33,61.13,61.13,0,0,0-7.58,1.25h0l-.48.11-1.78.46-.51.14c-1.74.49-3.45,1.06-5.11,1.7-.71.27-1.41.56-2.1.86s-1.53.69-2.28,1.05q-1.8.89-3.51,1.89c-1.18.35-2.42.79-3.71,1.27l-1.26.49c-1.85.72-3.81,1.55-5.86,2.42l-3.42,1.44c-12.49,5.23-28,11-44.93,6.94l-.28,1.15h0l.28-1.15-2.43-.58.1-.41-39.52-9.45-4-.95-4.66-1.12-1.28-.3-5.81-1.39c-.12-.72-.36-1.23-.72-1.32l-7.32-1.75h0c-.71-.16-1.68,1.17-2.46,3.22a20.17,20.17,0,0,0-.77,2.51,19.34,19.34,0,0,0-.45,2.59c-.23,2.18,0,3.8.74,4h0l7.32,1.75c.36.08.8-.26,1.24-.85h0l1.57.37,4,1,4.63,1.1,4,1,4.63,1.11,4,1,4.63,1.11,4,1,4.63,1.11,2.78.66,5.87,1.41,4,1,3.87.92h0l2.46.59.08,0h0l.1-.41,2.43.58.27-1.14h0l-.27,1.14a50.78,50.78,0,0,1,14.19,5.82,64.21,64.21,0,0,1,8.88,6.41,103.76,103.76,0,0,1,10,9.94q2,2.25,3.85,4.43c.83,1,1.63,1.92,2.41,2.85,1.79,2.13,3.49,4.13,5.11,5.91.94,1,1.85,2,2.75,2.83h0l.06.09c.66,1,1.35,2,2.08,3q1.43,1.89,3,3.68c1.19,1.33,2.46,2.61,3.79,3.83l.4.36c.45.41.91.82,1.37,1.21a60.93,60.93,0,0,0,6.57,4.86c1,.66,2.09,1.3,3.15,1.9a64.12,64.12,0,0,0,7.56,3.64,68.4,68.4,0,0,0,9.81,3.14c1.09.26,2.18.49,3.26.7a66.14,66.14,0,0,0,19,.84,61.23,61.23,0,0,0,10.35-2,55.67,55.67,0,0,0,9.49-3.61A50.56,50.56,0,0,0,461,422.35Zm-2.43-2.53-.08.06-.38.28c-.55.4-1.12.8-1.7,1.18l-.44.29-.64.4.69-2.91,2.55.6Zm-52-51,3.3.79-.79,3.29-3.29-.79Zm-1.12,3.21-3.3-.79.79-3.29,3.3.79Zm25.61,21.51-3.3-.79.79-3.3,3.3.79Zm1.13-3.22,3.3.79-.79,3.3-3.3-.79Zm-12.81-10.75,3.3.79-.79,3.29-3.3-.78Zm-1.13,3.21L415,382l.79-3.3,3.29.79Zm3.56,1.21-.79,3.3-3.3-.79.79-3.29Zm.34.08,3.3.79-.79,3.3-3.3-.79Zm2.43,4.43-.79,3.3-3.3-.79.79-3.3Zm.34.08,3.29.79-.79,3.3-3.29-.79Zm3.71.53.79-3.3,3.3.79-.79,3.3Zm-.34-.08-3.29-.79.79-3.3,3.29.79Zm-2.42-4.43.79-3.29,3.29.79-.79,3.29Zm-.34-.08-3.3-.78.79-3.3,3.3.79Zm-2.43-4.42.79-3.3,3.3.79-.79,3.3Zm-.34-.08-3.3-.79.79-3.3,3.3.79Zm-3.64-.87-3.29-.79.78-3.3,3.3.79Zm-3.63-.87-3.3-.79.79-3.3,3.3.79Zm-3.64-.87-3.3-.79.79-3.3,3.3.79Zm-.08.34-.79,3.3-3.3-.79.79-3.3Zm.34.08,3.3.79-.79,3.29-3.3-.78Zm2.43,4.42-.79,3.3-3.3-.79.79-3.29Zm.34.09,3.29.78-.79,3.3-3.29-.79Zm2.42,4.42-.78,3.3-3.3-.79L414,386Zm.34.08,3.3.79-.79,3.3-3.3-.79Zm2.43,4.43-.79,3.29-3.3-.78.79-3.3Zm.34.08,3.3.79-.79,3.29-3.3-.79Zm3.64.87,3.29.79-.78,3.29-3.3-.79Zm3.63.87,3.3.79-.79,3.29-3.3-.79Zm3.64.87,3.3.78-.79,3.3-3.3-.79Zm3.64.87,3.29.78-.78,3.3-3.3-.79Zm.08-.34.79-3.3,3.29.79-.79,3.29Zm.87-3.64.79-3.3,3.29.79-.79,3.3Zm-.34-.08-3.3-.79.79-3.3,3.3.79Zm-2.43-4.43.79-3.29,3.3.79-.79,3.29Zm-.34-.08-3.3-.79.79-3.29,3.3.79Zm-2.43-4.42.79-3.3,3.3.79-.79,3.3Zm-.34-.08-3.29-.79.79-3.3,3.29.79Zm-2.42-4.43.78-3.3,3.3.79-.79,3.3Zm-.34-.08-3.3-.79.79-3.29,3.3.78Zm-3.64-.87-3.3-.79.79-3.29,3.3.78Zm-3.64-.87-3.29-.79.78-3.29,3.3.78Zm-3.63-.87-3.3-.79.79-3.29,3.3.78Zm-3.64-.87-3.3-.79.79-3.29,3.3.79Zm-3.72-.53-.79,3.3-3.29-.79.79-3.3Zm-.87,3.64-.79,3.3-3.29-.79.79-3.3Zm-.87,3.64-.78,3.29-3.3-.79.79-3.29Zm.34.08,3.3.78-.79,3.3-3.3-.79ZM410,385l-.79,3.3-3.3-.79.79-3.3Zm.34.08,3.3.79-.79,3.3-3.3-.79Zm2.43,4.43-.79,3.29-3.3-.78.79-3.3Zm.34.08,3.29.79-.78,3.29-3.3-.78Zm2.42,4.42-.78,3.3-3.3-.79.79-3.29Zm.34.08,3.3.79-.79,3.3-3.29-.79Zm3.64.87,3.3.79-.79,3.3-3.3-.79Zm3.64.87,3.29.79-.78,3.3-3.3-.79Zm3.63.87,3.3.79-.79,3.3L426,400Zm3.64.87,3.3.79-.79,3.3-3.3-.79Zm3.64.87,3.29.79-.78,3.3-3.3-.79Zm3.63.87,3.3.79-.79,3.3-3.3-.79Zm.08-.34.79-3.29,3.3.78-.79,3.3Zm.87-3.63.79-3.3,3.3.79-.79,3.29Zm.87-3.64.79-3.3,3.3.79-.79,3.3Zm.87-3.64.79-3.29,3.3.78-.79,3.3Zm-.34-.08-3.29-.79.79-3.29,3.29.78Zm-2.42-4.42.78-3.3,3.3.79-.79,3.3Zm-.34-.08-3.3-.79.79-3.3,3.3.79Zm-2.43-4.43.79-3.3,3.29.79-.78,3.3Zm-.34-.08-3.3-.79.79-3.3,3.3.79Zm-2.43-4.43.79-3.29,3.3.79-.79,3.29Zm-.34-.08-3.29-.78.78-3.3,3.3.79Zm-3.63-.87-3.3-.78.79-3.3,3.29.79Zm-3.64-.87-3.3-.78.79-3.3,3.3.79Zm-3.64-.87-3.29-.78.78-3.3,3.3.79Zm-3.63-.86-3.3-.79.79-3.3,3.29.79Zm-3.64-.87-3.3-.79.79-3.3,3.3.79Zm-3.64-.87-3.29-.79.78-3.3,3.3.79Zm-3.63-.87-3.3-.79.79-3.3,3.3.79Zm-3.64-.87-3.3-.79.79-3.3,3.3.79Zm-.08.34-.79,3.29-3.3-.79.79-3.29Zm-.87,3.63-.79,3.3-3.3-.79.79-3.3Zm.34.08,3.3.79-.79,3.3-3.3-.79ZM404.5,376l-.79,3.3-3.3-.79.79-3.3Zm-.87,3.64-.79,3.29-3.3-.79.79-3.29Zm-.87,3.63-.79,3.3-3.3-.79.79-3.3Zm.34.08,3.29.79-.78,3.3-3.3-.79Zm2.42,4.43-.78,3.3-3.3-.79.79-3.3Zm.34.08,3.3.79-.79,3.29-3.29-.78Zm2.43,4.42-.79,3.3-3.29-.79.78-3.29Zm.34.09,3.3.78-.79,3.3-3.3-.79Zm2.43,4.42-.79,3.3-3.3-.79.79-3.3Zm.34.08,3.29.79-.78,3.3-3.3-.79Zm3.63.87,3.3.79-.79,3.3-3.29-.79Zm3.64.87,3.3.79-.79,3.3-3.3-.79Zm3.64.87,3.29.79-.78,3.3-3.3-.79Zm3.63.87,3.3.79-.79,3.3-3.29-.79Zm3.64.87,3.3.79-.79,3.3-3.3-.79Zm3.64.87,3.29.79-.78,3.29-3.3-.78Zm3.63.87,3.3.79-.79,3.29-3.29-.78Zm3.64.87,3.3.79-.79,3.29-3.3-.78Zm.08-.34.79-3.3,3.3.79-.79,3.3Zm.87-3.64.79-3.29,3.3.78-.79,3.3Zm.87-3.63.79-3.3,3.3.79-.79,3.29Zm.87-3.64.79-3.3,3.3.79-.79,3.3Zm.87-3.64.79-3.29,3.29.78-.78,3.3Zm.87-3.63.79-3.3,3.29.79-.78,3.29Zm-.34-.09-3.3-.78.79-3.3,3.3.79Zm-2.43-4.42.79-3.3,3.3.79-.79,3.3Zm-.34-.08-3.29-.79.78-3.3,3.3.79Zm-2.42-4.43.78-3.29,3.3.79-.79,3.29Zm-.34-.08-3.3-.79.79-3.29,3.29.79Zm-2.43-4.42.79-3.3,3.29.79-.78,3.3Zm-.34-.08L433,371l.79-3.3,3.3.79Zm-3.64-.87-3.29-.79.78-3.3,3.3.79ZM429,370l-3.3-.79.79-3.3,3.29.79Zm-3.64-.87-3.3-.79.79-3.3,3.3.79Zm-3.64-.87-3.29-.79.78-3.3,3.3.79Zm-3.63-.87-3.3-.79.79-3.3,3.29.79Zm-3.64-.87-3.3-.79.79-3.3,3.3.79Zm-3.64-.87-3.29-.79.78-3.3,3.3.79Zm-3.63-.87-3.3-.79.79-3.3,3.29.79Zm-3.64-.87-3.3-.79.79-3.3,3.3.79Zm-3.64-.87-3.29-.79.78-3.29,3.3.78Zm-.08.34-.79,3.3-3.29-.79.78-3.3ZM399,367l-.79,3.29-3.29-.79.79-3.29Zm-.87,3.63-.79,3.3-3.29-.79.79-3.3Zm-.87,3.64-.78,3.3-3.3-.79.79-3.3Zm.34.08,3.3.79-.79,3.3-3.3-.79ZM400,378.8l-.79,3.29-3.3-.79.79-3.29Zm-.87,3.63-.79,3.3-3.29-.79.78-3.3Zm-.87,3.64-.79,3.3-3.29-.79.78-3.3Zm.34.08,3.3.79-.79,3.3-3.3-.79Zm2.43,4.43-.79,3.29-3.3-.79.79-3.29Zm.34.08,3.29.78-.78,3.3-3.3-.79Zm2.43,4.42-.79,3.3-3.3-.79.79-3.3Zm.33.08,3.3.79-.79,3.3-3.29-.79Zm2.43,4.43-.79,3.29-3.29-.78.78-3.3Zm.34.08,3.3.79-.79,3.29-3.3-.78Zm3.64.87,3.3.79-.79,3.29-3.3-.79Zm3.63.87,3.3.79-.79,3.29-3.29-.79Zm3.64.87,3.3.79-.79,3.29-3.3-.79Zm3.64.87,3.29.79-.78,3.29-3.3-.79Zm3.63.87,3.3.78-.79,3.3-3.29-.79Zm3.64.87,3.3.78-.79,3.3-3.3-.79Zm3.64.87,3.29.78-.78,3.3-3.3-.79Zm3.63.87,3.3.78-.79,3.3-3.29-.79Zm3.64.86,3.3.79-.79,3.3-3.3-.79Zm3.64.87,3.29.79-.78,3.3-3.3-.79Zm.08-.33.79-3.3,3.29.79-.78,3.29Zm.87-3.64.79-3.3,3.29.79-.79,3.3Zm.87-3.64.79-3.3,3.29.79-.79,3.3Zm.87-3.63.79-3.3,3.29.79-.79,3.29Zm.87-3.64.79-3.3,3.29.79-.79,3.3Zm.87-3.64.78-3.29,3.3.78-.79,3.3Zm.87-3.63.78-3.3,3.3.79-.79,3.29Zm.87-3.64.78-3.3,3.3.79-.79,3.3Zm-.34-.08-3.3-.79.79-3.3,3.29.79Zm-2.43-4.43.79-3.29,3.29.78-.78,3.3Zm-.34-.08-3.3-.79.79-3.29,3.3.78Zm-2.43-4.42.79-3.3,3.3.79-.79,3.3Zm-.34-.08-3.3-.79.79-3.3,3.3.79Zm-2.43-4.43.79-3.3,3.3.79-.79,3.3Zm-.33-.08-3.3-.79.79-3.3,3.29.79Zm-3.64-.87-3.3-.79.79-3.3,3.3.79Zm-3.64-.87-3.3-.79.79-3.3,3.3.79Zm-3.63-.87-3.3-.79.79-3.29,3.29.78Zm-3.64-.87-3.3-.79.79-3.29,3.3.78Zm-3.64-.87-3.3-.79.79-3.29,3.3.78Zm-3.63-.87-3.3-.79.79-3.29,3.29.78Zm-3.64-.87-3.3-.79.79-3.29,3.3.79Zm-3.64-.87-3.29-.79.78-3.29,3.3.79Zm-3.63-.87-3.3-.78.79-3.3,3.29.79Zm-3.64-.87-3.3-.78.79-3.3,3.3.79Zm-3.64-.87-3.29-.78.78-3.3,3.3.79Zm-3.71-.53-.79,3.3-3.28-.78.79-3.3Zm-.87,3.64-.79,3.3-3.28-.79.79-3.29Zm-.87,3.64-.79,3.29-3.28-.78.79-3.3Zm-.87,3.63-.79,3.3-3.28-.78.79-3.3Zm-.87,3.64-.79,3.3-3.28-.79.79-3.29Zm-.87,3.64-.79,3.29-3.28-.78.79-3.3Zm.34.08,3.29.79-.78,3.29-3.3-.79Zm2.42,4.42-.78,3.3-3.3-.79.79-3.3Zm-.87,3.64-.78,3.3-3.3-.79.79-3.3Zm-.86,3.64-.79,3.29-3.3-.79.79-3.29Zm.33.08,3.3.79-.79,3.29-3.29-.79Zm2.43,4.42-.79,3.3-3.29-.79.78-3.3Zm.34.08,3.3.79-.79,3.3-3.3-.79Zm2.43,4.43-.79,3.3-3.3-.79.79-3.3Zm.34.08,3.3.79-.79,3.29-3.3-.78Zm2.43,4.42-.79,3.3-3.3-.79.79-3.29Zm.34.09,3.29.78-.79,3.3-3.29-.79Zm3.63.86,3.3.79-.79,3.3-3.3-.79Zm3.64.87,3.3.79-.79,3.3-3.3-.79Zm3.64.87,3.29.79-.79,3.3-3.29-.79Zm3.63.87,3.3.79-.79,3.3-3.3-.79Zm3.64.87,3.3.79-.79,3.3-3.3-.79Zm3.63.87,3.3.79-.79,3.3-3.29-.79Zm3.64.87,3.3.79-.79,3.3-3.3-.79Zm3.64.87,3.3.79-.79,3.3-3.3-.79Zm3.63.87,3.3.79-.79,3.3-3.29-.79Zm3.64.87,3.3.79-.79,3.3-3.3-.79Zm3.64.87,3.29.79-.78,3.3-3.3-.79Zm3.72.53.78-3.3,3.3.79-.79,3.3Zm.86-3.64.79-3.29,3.3.79-.79,3.29Zm.87-3.63.79-3.3,3.3.79-.79,3.3Zm.87-3.64.79-3.3,3.3.79-.79,3.3Zm.87-3.64.79-3.29,3.3.79-.79,3.29Zm.87-3.63.79-3.3,3.3.79-.79,3.3Zm.87-3.64.79-3.3,3.3.79-.79,3.3Zm.87-3.63.79-3.3,3.3.79-.79,3.29Zm.87-3.64.79-3.3,3.3.79-.79,3.3Zm.87-3.64.79-3.29,3.3.78-.79,3.3Zm-.34-.08-3.29-.79.78-3.29,3.3.78Zm-2.43-4.42L452,372l3.3.79-.79,3.29Zm-.34-.08-3.29-.79.79-3.3,3.29.79Zm-2.42-4.43.79-3.3,3.29.79-.79,3.3Zm-.34-.08-3.3-.79.79-3.3,3.3.79Zm-2.43-4.43.79-3.29,3.3.79-.79,3.29Zm-.34-.08-3.3-.79.79-3.29,3.3.79Zm-3.64-.87-3.29-.79.79-3.29,3.29.79Zm-3.63-.87-3.3-.78.79-3.3,3.3.79Zm-3.64-.87-3.3-.78.79-3.3,3.3.79Zm-3.63-.87-3.3-.78.79-3.3,3.29.79Zm-3.64-.87-3.3-.78.79-3.3,3.3.79Zm-3.64-.86-3.3-.79.79-3.3,3.3.79Zm-3.63-.87-3.3-.79.79-3.3,3.29.79Zm-3.64-.87-3.3-.79.79-3.3,3.3.79Zm-3.64-.87-3.3-.79.79-3.3,3.3.79Zm-3.63-.87-3.3-.79.79-3.3,3.29.79Zm-3.64-.87-3.3-.79.79-3.3,3.3.79Zm-3.64-.87-3.29-.79.78-3.3,3.3.79Zm-3.72-.53-.78,3.29-3.28-.78.79-3.3ZM393.45,358l-.79,3.3-3.27-.79.79-3.29Zm-.87,3.64-.79,3.29-3.27-.78.79-3.3Zm-.87,3.63-.79,3.3-3.27-.78.79-3.3Zm-.87,3.64-.79,3.3-3.27-.79.79-3.29Zm-.87,3.64-.79,3.29-3.27-.78.79-3.3Zm-.87,3.63-.79,3.3-3.27-.78.79-3.3Zm-.87,3.64-.78,3.3-3.28-.79.79-3.29Zm.34.08,3.28.78-.79,3.3-3.28-.78Zm2.41,4.42-.79,3.3-3.27-.79.78-3.29Zm-.87,3.64-.79,3.29-3.27-.78.78-3.3Zm-.87,3.63-.79,3.3-3.27-.78.78-3.3Zm.34.08,3.3.79-.79,3.3-3.3-.79Zm2.43,4.43-.79,3.3-3.3-.79.79-3.3Zm.34.08,3.29.79-.79,3.3-3.29-.79Zm2.42,4.42-.79,3.3-3.29-.79.79-3.29Zm.34.09,3.3.78-.79,3.3-3.3-.79Zm2.43,4.42-.79,3.3-3.3-.79.79-3.3Zm.34.08,3.3.79-.79,3.3-3.3-.79Zm3.64.87,3.29.79-.79,3.3-3.29-.79Zm3.63.87,3.3.79-.79,3.3-3.3-.79Zm3.64.87,3.3.79-.79,3.3-3.3-.79Zm3.64.87,3.29.79-.79,3.3-3.29-.79Zm3.63.87,3.3.79-.79,3.3-3.3-.79Zm3.64.87,3.3.79-.79,3.3-3.3-.79Zm3.64.87,3.29.79-.79,3.3-3.29-.79Zm3.63.87,3.3.79-.79,3.29-3.3-.78Zm3.64.87,3.3.79-.79,3.29-3.3-.78Zm3.64.87,3.29.79-.79,3.29-3.29-.78Zm3.63.87,3.3.79-.79,3.29-3.3-.78Zm3.64.87,3.29.79-.78,3.29-3.3-.79Zm3.72.53.78-3.3,3.3.79-.79,3.3Zm4.5-2.77.79-3.3,3.3.79-.79,3.3Zm.87-3.64.79-3.29,3.3.79-.79,3.29Zm.87-3.63.79-3.3,3.3.79-.79,3.3Zm.87-3.64.79-3.3,3.3.79-.79,3.3Zm.87-3.64.79-3.29,3.3.79-.79,3.29Zm.87-3.63.79-3.3,3.29.79-.78,3.3Zm.87-3.64.79-3.3,3.29.79-.78,3.3Zm.87-3.64.79-3.29,3.29.79-.78,3.29Zm.87-3.63.79-3.3,3.29.79-.78,3.3Zm.87-3.64.79-3.3,3.29.79-.79,3.3Zm.87-3.63.79-3.3,3.29.79-.79,3.29Zm-.34-.09-3.3-.78.79-3.3,3.3.79Zm-2.43-4.42.79-3.3,3.3.79-.79,3.3Zm-.34-.08-3.3-.79.79-3.3,3.3.79ZM452.9,368l.79-3.29,3.3.78-.79,3.3Zm-.34-.08-3.29-.79.79-3.29,3.29.78Zm-2.42-4.42.79-3.3,3.29.79-.79,3.3Zm-.34-.08-3.3-.79.79-3.3,3.3.79Zm-3.64-.87-3.3-.79.79-3.3,3.3.79Zm-3.64-.87-3.29-.79.79-3.3,3.29.79Zm-3.63-.87-3.3-.79.79-3.3,3.3.79Zm-3.64-.87-3.3-.79.79-3.3,3.3.79Zm-3.64-.87-3.29-.79.79-3.3,3.29.79Zm-3.63-.87-3.3-.79.79-3.3,3.3.79Zm-3.64-.87-3.3-.79.79-3.3,3.3.79Zm-3.64-.87-3.29-.79.79-3.3,3.29.79Zm-3.63-.87-3.3-.79.79-3.3,3.3.79Zm-3.64-.87-3.3-.79.79-3.3,3.3.79Zm-3.63-.87-3.3-.79.79-3.3,3.29.79Zm-3.64-.87-3.3-.79.79-3.29,3.3.78Zm-3.64-.87-3.3-.79.79-3.29,3.3.78Zm-3.72-.53-.78,3.3-3.28-.78.79-3.3Zm-4.48,2.77-.79,3.3-3.27-.78.79-3.3Zm-4.4,2.44-3.28-.79.79-3.29,3.28.78Zm-.08.34-.79,3.29-3.27-.78.78-3.3Zm-.87,3.63-.79,3.3-3.27-.78.78-3.3Zm-.87,3.64-.79,3.3-3.27-.79.78-3.29Zm-.87,3.64-.79,3.29-3.27-.78.78-3.3Zm-.87,3.63-.79,3.3-3.27-.78.79-3.3Zm-.87,3.64-.79,3.3-3.27-.79.79-3.29Zm-.87,3.63-.79,3.3-3.27-.78.79-3.3Zm-.87,3.64-.79,3.3-3.27-.78.79-3.3Zm.34.08,3.27.79-.78,3.29L383.3,386Zm2.4,4.42-.78,3.3-3.28-.78.79-3.3Zm-.87,3.64-.78,3.3-3.28-.79.79-3.29Zm-.86,3.64-.79,3.29-3.28-.78.79-3.3Zm.34.08,3.27.78-.79,3.3-3.27-.79Zm2.4,4.42-.79,3.29-3.27-.78.79-3.3Zm.34.08,3.3.79-.79,3.29-3.3-.79Zm2.43,4.42-.79,3.3-3.3-.79.79-3.3Zm.34.08,3.29.79-.79,3.3-3.29-.79Zm2.42,4.43-.78,3.3-3.3-.79.79-3.3Zm.34.08,3.3.79-.79,3.3-3.3-.79Zm3.64.87,3.3.79-.79,3.29-3.3-.78Zm3.64.87,3.29.79-.78,3.29-3.3-.78Zm3.63.87,3.3.79-.79,3.29-3.3-.78Zm3.64.87,3.3.79-.79,3.29-3.3-.78Zm3.64.87,3.29.79-.79,3.29-3.29-.79Zm3.63.87,3.3.79-.79,3.29-3.3-.79Zm3.64.87,3.3.78-.79,3.3-3.3-.79Zm3.64.87,3.29.78L425,419l-3.29-.79Zm3.63.87,3.3.78-.79,3.3-3.3-.79Zm3.64.87,3.3.78-.79,3.3L429,420Zm3.64.86,3.29.79-.79,3.3-3.29-.79Zm3.63.87,3.3.79-.79,3.3-3.3-.79Zm3.64.87,3.3.79-.79,3.3-3.3-.79Zm3.72.53.78-3.29,3.3.79-.79,3.29Zm4.5-2.76.79-3.3,3.3.79-.79,3.3Zm4.43-2.43,3.29.79-.78,3.3-3.3-.79Zm.08-.34.79-3.3,3.29.79-.78,3.3Zm.87-3.64.79-3.29,3.29.78-.79,3.3Zm.87-3.63.79-3.3,3.29.79-.79,3.3Zm.87-3.64.79-3.3,3.29.79-.79,3.3Zm.87-3.64.79-3.29,3.29.79-.79,3.29Zm.87-3.63.78-3.3,3.3.79-.79,3.3Zm.87-3.64.78-3.3,3.3.79-.79,3.3Zm.87-3.64.78-3.29,3.3.79-.79,3.29Zm.87-3.63.78-3.3,3.3.79-.79,3.3Zm.86-3.64.79-3.3,3.3.79-.79,3.3Zm.87-3.63.79-3.3,3.3.79-.79,3.29Zm.87-3.64.79-3.3,3.3.79-.79,3.3Zm-.34-.08-3.29-.79.79-3.3,3.29.79Zm-2.42-4.43.79-3.29,3.29.78-.79,3.3Zm-.34-.08-3.3-.79.79-3.29,3.3.78Zm-2.43-4.42.79-3.3,3.3.79-.79,3.29Zm-.34-.08-3.3-.79.79-3.3,3.3.79Zm-2.43-4.43.79-3.3,3.3.79-.79,3.3Zm-.34-.08-3.29-.79.78-3.3,3.3.79Zm-3.63-.87-3.3-.79.79-3.3,3.29.79Zm-3.64-.87-3.3-.79.79-3.3,3.3.79Zm-3.64-.87-3.29-.79.79-3.3,3.29.79Zm-3.63-.87-3.3-.79.79-3.3,3.3.79Zm-3.64-.87-3.3-.79.79-3.29,3.3.78Zm-3.64-.87-3.29-.79.79-3.29,3.29.78Zm-3.63-.87-3.3-.79.79-3.29,3.3.78Zm-3.64-.87-3.3-.79.79-3.29,3.3.78Zm-3.64-.87-3.29-.79.79-3.29,3.29.79Zm-3.63-.87-3.3-.79.79-3.29,3.3.79Zm-3.64-.87-3.3-.79.79-3.29,3.3.79Zm-3.64-.87-3.29-.78.79-3.3,3.29.79Zm-3.63-.87-3.3-.78.79-3.3,3.3.79Zm-3.64-.87-3.3-.78.79-3.3,3.3.79Zm-3.72-.53-.78,3.3-3.28-.78.79-3.3Zm-4.48,2.78L394.4,354l-3.27-.78.79-3.3Zm-4.4,2.43-3.28-.78.75-3.12c.12,0,.21,0,.22,0l0-.08,3.08.73Zm-3.62-.86-2.63-.63v-.13l0,0,.37-.27c.61-.45,1.23-.88,1.87-1.3l.43-.28.64-.4Zm-2.71-.29h0l2.63.63-.79,3.3-5.17-1.23c0-.13,0-.21,0-.22l-.07,0,.22-.2q1.25-1.14,2.61-2.19l.47.11S384.41,352.13,384.46,352Zm-3.41,3h0l5.17,1.24-.78,3.3-7.22-1.73h0c0-.12,0-.2,0-.21l-.19-.05.12-.14c.72-.81,1.47-1.6,2.26-2.36l.54.13S381,355.16,381.05,355.05Zm-3,3.32s.09-.06.13-.18h0l7.21,1.73-.78,3.3-8.75-2.1c0-.12,0-.2,0-.21l-.32-.08.05-.07c.61-.87,1.25-1.71,1.93-2.53Zm-2.4,3.27s.09-.06.13-.18h0l8.74,2.09-.78,3.3-9.88-2.36c0-.12,0-.21,0-.22l-.42-.1h0c.5-.91,1.05-1.81,1.63-2.68Zm-2,3.36s.09-.06.14-.17h0l9.88,2.36-.79,3.3L372.25,368c0-.12,0-.21,0-.22l-.52-.12c.38-.91.8-1.8,1.26-2.68l0-.08ZM372,368.47s.09-.06.13-.17h0l10.58,2.53-.79,3.29-11-2.62c0-.12,0-.21,0-.22l-.54-.13c.29-1,.63-1.9,1-2.83ZM370.76,372s.1-.07.14-.18h0l11,2.62-.79,3.3-11-2.62c0-.12,0-.21,0-.22l-.58-.14c.1-.49.2-1,.32-1.46s.24-1,.38-1.44Zm-.73,3.46h0l11,2.62-.79,3.3-10.58-2.53c0-.12,0-.21,0-.22l-.64-.15c.09-1,.22-2,.4-3l.54.13S370,375.59,370,375.48Zm-.47,3.73h0l10.58,2.53-.79,3.29-9.88-2.36c0-.12,0-.21,0-.22l-.61-.14c0-1,0-2,.08-3.05l.53.12S369.52,379.32,369.56,379.21Zm-.17,3.8h0l9.88,2.36-.79,3.3-8.74-2.09h0c0-.12,0-.21-.05-.22l-.6-.14c-.11-.88-.19-1.77-.23-2.66,0-.16,0-.31,0-.47h0l.41.1S369.34,383.12,369.39,383Zm10.22,2.45,3.27.78-.79,3.3-3.27-.79Zm2.4,4.41-.79,3.3-3.27-.78.79-3.3Zm-.87,3.64-.79,3.3-3.27-.78.79-3.3Zm-.87,3.64-.79,3.29-3.27-.78.79-3.3Zm.34.08,3.28.78-.79,3.3-3.28-.78Zm2.41,4.42-.79,3.3-3.28-.79.79-3.29Zm.34.08,3.27.78-.79,3.3-3.27-.78Zm2.4,4.42-.79,3.3-3.27-.79.79-3.29Zm.34.08,3.3.79-.79,3.3-3.3-.79Zm2.43,4.43-.79,3.29-3.3-.79.79-3.29Zm.34.08,3.29.79-.78,3.29-3.3-.79Zm3.63.87,3.3.78-.79,3.3-3.3-.79Zm3.64.87,3.3.78-.79,3.3-3.3-.79Zm3.64.87,3.29.78-.78,3.3-3.3-.79Zm3.63.87,3.3.78-.79,3.3-3.3-.79Zm3.64.86,3.3.79-.79,3.3-3.3-.79Zm3.64.87,3.29.79-.78,3.3-3.3-.79Zm3.63.87,3.3.79-.79,3.3-3.3-.79Zm3.64.87,3.3.79-.79,3.3-3.3-.79Zm3.64.87,3.29.79-.79,3.3-3.29-.79Zm3.63.87,3.3.79-.79,3.3-3.3-.79Zm3.64.87,3.3.79-.79,3.3-3.3-.79Zm3.64.87,3.29.79-.79,3.3-3.29-.79Zm3.63.87,3.3.79-.79,3.3-3.3-.79Zm3.64.87,3.3.79-.79,3.3-3.3-.79Zm3.72.53.79-3.3,3.29.79-.79,3.3Zm4.5-2.77.79-3.29,3.3.78-.79,3.3Zm4.43-2.42,3.29.78-.74,3.11-.12,0s-.1.06-.14.17l-3.08-.74Zm9.63-1.34h0l-.21.2c-.84.76-1.71,1.49-2.61,2.2l-.43-.11h0s-.09.06-.14.18l-2.54-.61.78-3.3,5.09,1.21C462,416.82,462,416.9,462.06,416.91Zm2.84-3.16h0l.2.05-.12.14c-.71.82-1.47,1.6-2.25,2.36l-.5-.12h0s-.1.06-.14.18L457,415.14l.78-3.3,7.06,1.69C464.85,413.65,464.86,413.74,464.9,413.75Zm2.4-3.27h0l.35.08-.05.08c-.61.86-1.26,1.7-1.94,2.52l-.58-.14h0s-.1.06-.14.17l-7.06-1.69.79-3.29,8.59,2.05C467.24,410.38,467.26,410.47,467.3,410.48Zm2.06-3.35h0l.37.09h0c-.51.92-1.05,1.81-1.63,2.68l-.63-.15h0s-.09.07-.13.18l-8.59-2.05.79-3.3,9.78,2.34C469.31,407,469.33,407.12,469.36,407.13Zm1.52-3.49h0l.53.13c-.4.94-.83,1.86-1.31,2.75l-.57-.13h0s-.09.07-.14.18l-9.78-2.34.79-3.3,10.43,2.5C470.83,403.55,470.85,403.64,470.88,403.64Zm1.23-3.55h0l.59.14c-.3,1-.63,1.91-1,2.83l-.65-.15h0s-.09.07-.14.18l-10.43-2.5.79-3.29,10.79,2.58C472.06,400,472.07,400.08,472.11,400.09Zm.87-3.63h0l.63.15c-.09.49-.2,1-.31,1.46s-.25,1-.38,1.45l-.63-.16h0s-.1.06-.14.18L461.36,397l.79-3.3,10.79,2.58C472.93,396.36,472.94,396.45,473,396.46Zm.51-3.72h0l.64.15c-.07.84-.18,1.67-.31,2.51,0,.16,0,.31-.08.47l-.59-.14h0s-.09.06-.13.17l-10.79-2.58L463,390l10.43,2.5C473.44,392.64,473.45,392.73,473.49,392.74Zm.22-3.8h0l.57.13c0,1,0,2-.09,3.05l-.53-.12h0s-.09.07-.14.18l-10.43-2.5.79-3.29,9.78,2.34C473.66,388.85,473.67,388.93,473.71,388.94Zm-.32-3.92h0l.63.15c.12,1,.21,2.09.25,3.13h0l-.38-.08h0s-.09.06-.14.18L464,386.05l.79-3.3,8.58,2.05C473.33,384.92,473.35,385,473.39,385Zm-.66-4h0l.58.14q.29,1.2.48,2.4c0,.24.08.49.11.73a.28.28,0,0,1,0,.09l-.34-.09h0s-.09.06-.14.17l-8.58-2,.79-3.3,7.05,1.69C472.67,380.92,472.69,381,472.73,381Zm-1.1-4.11h0l.5.12c.35,1,.67,2.08.94,3.13,0,.06,0,.12.05.18l-.21,0h0s-.09.06-.14.17l-7.05-1.69.79-3.29,5.08,1.21C471.57,376.81,471.59,376.9,471.63,376.91ZM470,372.67h0l.43.1c.49,1,.93,2.08,1.33,3.14,0,.09.07.19.1.28h0s-.09.06-.14.17l-5.08-1.21.79-3.3,2.55.61C469.91,372.57,469.92,372.66,470,372.67Zm-1.42-3.43.26.45q.51.9,1,1.83l.2.41.05.09a.36.36,0,0,0,0,.09l-2.55-.61.7-2.92Zm-.82-.95.13,0-.74,3.1-3.3-.79.79-3.3,3.08.74h0C467.67,368.19,467.69,368.28,467.72,368.29Zm-2.06-3.42.27.38c.41.56.8,1.13,1.19,1.7l.28.44c.07.1.13.2.19.3l-2.91-.69.62-2.6Zm-.79-1v.05s.05.09.15.13l0,0-.69,2.87-3.29-.78.79-3.3,2.75.66Zm-2.25-2.69c.1.11.19.22.29.32l.59.69.39.46.35.42-2.32-.55.4-1.67Zm-.75-.82-.05.21s.06.09.17.14l-.41,1.73-3.3-.79.79-3.3,1.09.26C460.74,359.15,461.31,359.74,461.87,360.33Zm-2.41-2.41.2.19-.51-.13.07-.29Zm-3.3-2.87,0,0,.31.24c.68.56,1.34,1.13,2,1.71l.24.22,0,.19s.06.09.17.14l-.07.31-3.3-.79.49-2A.23.23,0,0,0,456.16,355.05Zm-3.43-2.39c.11,0,.19,0,.21,0l.26.18c.79.56,1.56,1.13,2.32,1.73l-.08.31s.07.1.18.14h0l-.49,2-3.29-.79.85-3.58Zm-3.33-2.12c.12,0,.21,0,.21-.05h0l.18.11c.85.51,1.67,1,2.48,1.59l-.06.27s.06.09.17.13l-.85,3.58-3.3-.79,1.16-4.83Zm-3.4-1.87c.12,0,.21,0,.22-.05v0l.11.05c.88.46,1.75.94,2.6,1.44l-.06.24s.06.09.18.13l-1.16,4.84-3.3-.79,1.4-5.83ZM442.55,347c.12,0,.21,0,.22,0v-.05l0,0c.92.41,1.83.84,2.72,1.29l-.06.21s.07.09.18.14l-1.4,5.83-3.29-.79,1.58-6.61Zm-3.5-1.44c.12,0,.21,0,.21,0v0c1,.35,1.89.73,2.81,1.12l-.05.17s.07.09.18.14l-1.58,6.61-3.3-.78,1.72-7.19Zm-.49-.33,0,.11s.07.1.18.14L437,352.68l-3.3-.78,1.78-7.44h0c.12,0,.21,0,.22,0l0-.12C436.68,344.6,437.63,344.91,438.56,345.25Zm-4.83-1.52,1.27.35,0,.16s.06.09.17.14l-1.78,7.43-3.29-.78,1.81-7.59h0c.12,0,.21,0,.22,0l0-.09Q432.94,343.51,433.73,343.73Zm-2.35-.6,0,.09s.06.1.17.14L429.72,351l-3.3-.79,1.79-7.47h0c.12,0,.2,0,.21-.05l0-.12C429.43,342.7,430.4,342.9,431.38,343.13Zm-3.67-.75,0,.09s.06.09.18.14l-1.79,7.47-3.3-.79,1.71-7.14h0c.12,0,.21,0,.22,0l0-.17C425.73,342.06,426.72,342.21,427.71,342.38Zm-3.71-.53,0,.08s.06.09.17.14l-1.71,7.14-3.29-.79,1.58-6.64h0c.12,0,.21,0,.22,0l0-.16C422,341.64,423,341.73,424,341.85Zm-3.82-.32h.05v0s.06.1.17.14l-1.58,6.64-3.3-.79,1.4-5.84h0c.12,0,.2,0,.21,0l.06-.23C418.17,341.45,419.18,341.47,420.18,341.53Zm-3.9-.09h.12v.05s.06.1.18.14l-1.4,5.84-3.3-.79L413,341.8h0c.12,0,.21,0,.22,0l.05-.22C414.29,341.49,415.28,341.45,416.28,341.44Zm-5.56.31c.53-.06,1.06-.1,1.59-.14l.22,0s.07.09.17.13l-1.17,4.88-3.29-.79.87-3.67h0c.12,0,.21,0,.22,0l.05-.2C409.83,341.85,410.27,341.79,410.72,341.75Zm-2.44.3.37-.05.12.06-.87,3.67-3.3-.79.5-2.08h0c.12,0,.21,0,.22,0l.06-.28C406.34,342.35,407.3,342.19,408.28,342.05Zm-6.89,1.42.18-.05c.86-.23,1.73-.44,2.6-.63l.39-.08h.05l.15.08-.5,2.08-3.3-.79.07-.28h0c.12,0,.21,0,.22,0l.06-.25Zm-1,.29.25-.07.06,0-.07.28-.56-.14Zm-1,.29,1.14.28-.78,3.29-3.28-.78.4-1.67c.12,0,.21,0,.22,0l.07-.32C397.91,344.54,398.65,344.29,399.4,344.05ZM394.25,346l.55-.24.93-.38.41-.16.34-.13.06,0-.4,1.67-2.4-.57Zm-1,.45,2.84.68-.79,3.3-3.27-.79.65-2.74h0c.12,0,.21,0,.22,0l.07-.28Zm-.92.44-.64,2.67-3-.72.31-.18.45-.26q1-.54,1.95-1.05l.41-.21Zm-27.83,44.7c-1-1.23-1.93-2.41-2.88-3.53l-.55-.64h0a88.13,88.13,0,0,0-9.37-9.38,72.65,72.65,0,0,0-8.78-6.47,59.55,59.55,0,0,0-7.36-4,2.43,2.43,0,0,1-1.35-2.84,2.47,2.47,0,0,1,2.5-1.82,71.91,71.91,0,0,0,27.73-4.61c1.29-.46,2.6-1,3.94-1.51,1.61-.66,3.27-1.38,5-2.17a.48.48,0,0,1,.57.75v0a40.52,40.52,0,0,0-7.73,13.71c-.33,1-.62,2.06-.88,3.11a40.1,40.1,0,0,0-.8,14,40.58,40.58,0,0,0,.87,4.86v0A.49.49,0,0,1,364.47,391.56Zm5.93-1c0-.12,0-.2,0-.21l-.57-.14c-.24-1-.43-2.08-.59-3.12V387l.33.07s.09-.06.14-.17h0L378.4,389l-.79,3.3-7.21-1.73Zm1.17,4.13c0-.12,0-.21-.05-.22l-.54-.13c-.36-1-.67-2.08-.94-3.13,0-.06,0-.12-.05-.18l.19.05s.09-.06.14-.18h0l7.21,1.73-.79,3.29-5.17-1.23Zm1.66,4.24c0-.12,0-.21,0-.22l-.47-.11c-.49-1-.94-2.08-1.33-3.14l-.11-.27h.07s.09-.06.13-.17h0l5.17,1.23-.79,3.3-2.64-.63Zm1.44,3.36c-.09-.14-.17-.29-.26-.44-.38-.66-.74-1.33-1.08-2l-.21-.41,0-.06,0-.11h0l2.64.63-.73,3Zm.89.95s-.06-.09-.18-.14l.75-3.12,3.27.78-.79,3.3-3.07-.73Zm2,3.37-.27-.37c-.44-.6-.86-1.21-1.27-1.82l-.28-.44-.2-.3,3,.72-.64,2.68C377.78,406.94,377.66,406.79,377.54,406.63Zm.79,1,.06-.28s-.06-.09-.17-.14h0l.65-2.74,3.28.78-.79,3.3-2.84-.68Zm2.48,2.93-.25-.27-.29-.33-.66-.76-.38-.46-.35-.42,2.4.57-.4,1.67Zm.5.54.08-.32s-.06-.09-.17-.14l.4-1.67,3.27.79-.79,3.29-1.14-.27Q382.12,412,381.31,411.13Zm2.58,2.57-.19-.18-.24-.23.56.13-.06.28Zm3.1,2.68,0,0-.31-.25c-.69-.57-1.37-1.15-2-1.75l-.2-.18.06-.25s-.06-.1-.18-.14h0l.07-.28,3.3.79-.5,2.08Zm3.28,2.45-.3-.22c-.81-.56-1.59-1.14-2.36-1.74l.06-.28s-.06-.09-.17-.14h0l.5-2.08,3.29.79-.87,3.67Zm3.28,2.11-.18-.11q-1.28-.76-2.49-1.59l.05-.2s-.06-.09-.17-.13h0l.87-3.67,3.3.79-1.17,4.88C393.66,420.9,393.57,420.91,393.55,420.94Zm3.4,1.84v.05l-.11-.05-.21-.11h0c-.81-.43-1.61-.87-2.39-1.33l0-.21s-.06-.09-.18-.14h0l1.17-4.88,3.3.79-1.4,5.84C397.05,422.73,397,422.74,397,422.78Zm3.45,1.67v0h0c-.92-.41-1.83-.84-2.72-1.29l.06-.22s-.07-.1-.18-.14h0l1.4-5.84,3.29.79-1.58,6.64C400.5,424.39,400.41,424.41,400.4,424.45Zm.69.34,0-.17s-.06-.09-.17-.13h0l1.58-6.64,3.3.79-1.71,7.14c-.12,0-.2,0-.21,0l0,.08C403,425.55,402,425.18,401.09,424.79Zm3.52,1.37,0-.16s-.06-.1-.18-.14h0l1.71-7.14,3.3.79L407.69,427c-.12,0-.21,0-.22,0l0,.09C406.49,426.81,405.54,426.5,404.61,426.16Zm3.56,1.16,0-.12s-.07-.1-.18-.14h0l1.79-7.47,3.29.79L411.3,428c-.12,0-.21,0-.22.05l0,.09C410.09,427.86,409.12,427.6,408.17,427.32Zm3.62,1,0-.1s-.06-.09-.17-.14h0l1.81-7.58,3.3.79L415,428.69c-.12,0-.21,0-.22,0l0,.16C413.74,428.71,412.77,428.5,411.79,428.28Zm6.59,1.18c-1-.13-1.95-.27-2.92-.44l0-.12s-.07-.09-.18-.13h0l1.78-7.44,3.3.79-1.72,7.18c-.12,0-.21,0-.22,0l0,.12Zm.8.09v0s-.06-.09-.17-.14h0l1.72-7.18L424,423l-1.58,6.61c-.12,0-.21,0-.22,0l0,.17C421.18,429.75,420.18,429.67,419.18,429.55Zm3.81.32h0v-.05s-.07-.09-.18-.14h0l1.58-6.61,3.3.79-1.4,5.84c-.12,0-.2,0-.21,0L426,430C425,430,424,429.92,423,429.87Zm3.91.08h-.13v0s-.06-.09-.18-.13h0l1.4-5.84,3.3.79-1.16,4.84c-.12,0-.21,0-.22,0l-.05.24C428.88,429.91,427.89,429.94,426.9,430Zm4-.17-.22,0v0s-.06-.09-.17-.13h0l1.16-4.84,3.29.79-.85,3.58c-.12,0-.21,0-.22,0l-.06.26C432.83,429.61,431.85,429.71,430.87,429.78Zm4-.44-.31,0s-.07-.08-.17-.12h0l.85-3.58,3.3.79-.49,2h0c-.12,0-.21,0-.21,0l-.08.32C436.81,429,435.86,429.2,434.9,429.34Zm6.65-1.37c-.84.22-1.69.43-2.55.62l-.38.08-.07,0a.24.24,0,0,0-.13-.1l.49-2,3.3.79-.08.31c-.12,0-.21,0-.22,0l0,.19Zm1.25-.35-.32.09.07-.29.51.12Zm.92-.28-1.09-.26.79-3.3,3.29.79-.41,1.73c-.12,0-.21,0-.22,0l-.05.21C445.27,426.83,444.5,427.09,443.72,427.34Zm5.15-1.91-.55.23-.84.34-.41.16-.42.16.4-1.67,2.32.56Zm1.63-.74c-.1,0-.18,0-.19,0v0l-.41.19-2.76-.66.79-3.3,3.3.79-.69,2.87Zm.44-.21.62-2.6,2.91.7-.31.18-.45.26q-.9.51-1.83,1l-.42.21Z"/><path d="M109.74,461.37s8.19,2.47,8.88,6.28c0,0,4,9.52-2.22,17.59,0,0-11.17,12.87-12.49,22.2l-2.77,19.7s-6.66,22.24-19.71,21.69Z" fill="#686175" data-primary="true"/><path d="M443,584.32c-9.53,5.5-22.23,3.54-27.33,2.41a3.58,3.58,0,0,0-3.53,1.28c-9.27,11.27-33-1.84-33-1.84-5.18-3.33,4.27-10.1,4.27-10.1h0a2.65,2.65,0,0,0,1.29,1.78c2.39,1.31,6.27,1.1,6.27,1.1,15.36-.55,20,2.41,20,2.41,4,1.6,10.27,1.56,13.49,1.42a5.63,5.63,0,0,0,3.22-1.25c4.32-3.37,13.45-4.43,13.45-4.43,10.11-3.09,11-6.8,10.28-9l.18,0C457.8,579.14,443,584.32,443,584.32Z" fill="#686175" data-primary="true"/><path d="M188.68,385.26s-12.09.31-9.06,4.86c0,0,11.08,4.88,20.15,5.89,0,0,8.39,3,11.08,9.4,0,0,7.39,18.13,26.53,15.45,0,0,26.19-2.69,44.33,10.41,0,0,9.4,12.76,25.18,5.71l20.7-6.39-26.74-26.86S203.46,382.57,188.68,385.26Z" fill="#f48225" data-secondary="true"/><path d="M188.68,385.26s-12.09.31-9.06,4.86c0,0,11.08,4.88,20.15,5.89,0,0,8.39,3,11.08,9.4,0,0,7.39,18.13,26.53,15.45,0,0,26.19-2.69,44.33,10.41,0,0,9.4,12.76,25.18,5.71l20.7-6.39-26.74-26.86S203.46,382.57,188.68,385.26Z" opacity="0.2"/><path d="M305.11,425.18s25,12,44.43,12.32c0,0,25.25.28,25.81,15.82,0,0-2.44,33.9,11.43,57.58A62.52,62.52,0,0,1,394,528.67a133,133,0,0,1,3,24.84s13.32,4.72,20.81-5l-5.55-104.63s-.28-24.78-9.71-31.82l-32.64-24.17L314,410Z" fill="#fed194"/><path d="M361.46,402.8s-22.9,10.92-14.22,14.17c0,0,7.31,5.56,23.37,9.25a61,61,0,0,1,9.94,3.22c5.22,2.18,13.71,5.08,19.64,3.81,0,0-12.15,10.41-13,30.16,0,0-.69,14.88,2.56,25.32a118.29,118.29,0,0,1,3.09,11.69c2.3,11.56,6,33.54,5.78,53.54l-1.6-.45a123.7,123.7,0,0,0-3.25-25.34A58.82,58.82,0,0,0,387,511.54c-4.34-7.23-12.22-25-11.67-58.22,0,0,.87-12.55-20.93-15.42,0,0-25.05-.17-49.31-12.72a24.78,24.78,0,0,0,4.72-4.21s11.21-16,36.35-17.91C346.18,403.06,357.76,403.82,361.46,402.8Z" fill="#fbc27c"/><path d="M265.34,327.12a43.27,43.27,0,0,1,3.1-15.24,22.32,22.32,0,0,1,8.47-10C289,294,324.52,272,340.06,275.13Z" fill="#fed194"/><ellipse cx="411.34" cy="259.06" rx="2.89" ry="5.24" fill="none" stroke="#ed1c24" stroke-miterlimit="10"/><path d="M357.75,275.27s-30.13-7.86-63.85,24.48c0,0-35.46,32-51.8,53.19,0,0,32.33,10.78,85.87,14.95,0,0,41.19-16,66.84-36.16,0,0,22.62-12.17,17.52-37.2a111.58,111.58,0,0,0-18.76-8.85Z" fill="#686175" data-primary="true"/><ellipse cx="412.33" cy="256.45" rx="25.49" ry="11.5" transform="translate(77.46 608.08) rotate(-78.28)" fill="#fed194"/><path d="M375.2,268.16s-8.74,5.2-15.88,6.75a47.63,47.63,0,0,0-10.05,3.27c-5.39,2.51-11.39,6.25-8.43,9.54,0,0,23.13,6.84,52.73-2,0,0-2-3.14,1.48-4.25l11.28-.27s-4.75-.9-6.16-12.06Z" fill="#fed194"/><path d="M242.1,352.94s-3.36,4.44-8.73,11.09a51.46,51.46,0,0,1-17.22,13.82c-6.75,3.33-11.79,4.59-27.47,7.41,0,0,28.88,2.69,34.8,11.34a32.42,32.42,0,0,0,4.19,5.28c4,3.85,11.44,9,21.8,8.07a48.57,48.57,0,0,1,20.82,6.2S297,437.62,309.83,421a34.1,34.1,0,0,1,5.47-5.79c5.71-4.66,17-12.12,30.88-12.12,0,0,22.5,3,24.85-7.05,0,0,5.38-7.06-10.07-14.45,0,0-11.42-11.53-33-13.67C328,367.89,283.08,365.28,242.1,352.94Z" fill="#f48225" data-secondary="true"/><path d="M327.59,347.48s-17.29,24.8-8.77,65c0,0,3.8,20.81,1.3,23.87,0,0-10.55,7.21-6.94,20.26,0,0,2.5,8.88-5.83,9.16,0,0-3.05,1.38-6.94-5.28a7.39,7.39,0,0,0-2.48-2.25,1.57,1.57,0,0,0-2,2.06c1.29,3.1,5,11.23,8.62,12.13,0,0,11.72.28,14.5-2.5l13.6-29.14V427.3s5-72.23,5-73.06S327.59,347.48,327.59,347.48Z" fill="#fbc27c"/><path d="M227.67,401.88s-5,3.95,0,30.56c0,0-1.11,42-11.38,60.68,0,0-1.45,5-7.56,0,0,0-11.66-13.16-39.41-8,0,0-21.09,5-34.42-2.77,0,0,5.19,15.54-2.59,27.75,0,0,10-3,28.5,4.07,0,0,57,26.28,76.6,17.39,0,0,8.14-1.48,18.87-24.79,0,0,23.19-50.54,27.88-82.44,0,0-4.68-1.51-13.87-8.2,0,0-12.16-7.33-23.63-6.08C246.66,410.07,235.2,410.23,227.67,401.88Z" fill="#fed194"/><path d="M227.67,401.88s-3.67,5.33-1.84,17.95c0,0,9.22,10.81,25.71,21.88,0,0,8,4.12,7,23.65,0,0-6.3,39.06-17.58,44.71,0,0-4.12,4.12-11.07-3.48,0,0-9.5-11.2-14.65-11.85,0,0,14.87,11.64,16.39,21.18,0,0-.65,2.39-8.9,1.09,0,0-19.1,2.17-36-8,0,0-12.15-8.46-18.88-16.06,0,0-8.46-4.34-23.65,3l-7.84,2.82a21.47,21.47,0,0,1-4,11.34s12.39-2.47,29.73,4.63a259,259,0,0,0,53.67,17.63s21.83,5.28,29.95-7.58c0,0,14.7-19.38,25.6-54.73,0,0,10.14-26.42,12.9-45.72a59,59,0,0,1-13.87-8.2S260,409.87,249.47,410A28.29,28.29,0,0,1,227.67,401.88Z" fill="#fbc27c"/><path d="M397,553.51v4.16a29.26,29.26,0,0,1,8.78,4.63s5.93,3.7,8.89-3.15l3.14-8.14v-2.5S412.08,557.67,397,553.51Z" fill="#d1d3d4"/><path d="M441.13,577.1s-9.12,1.06-13.45,4.43a5.63,5.63,0,0,1-3.22,1.25c-3.21.14-9.5.18-13.49-1.42,0,0-4.63-3-20-2.41,0,0-3.88.21-6.27-1.1a2.65,2.65,0,0,1-1.29-1.78h0a2.93,2.93,0,0,1,.11-1.55c.75-2.1,2.3-5.81,4.14-6.85,0,0,3.88-3.34,4.8-7,0,0,.69-4.52,4.53-3,0,0,6.21,2.23,8.8,4.63,0,0,6.15,3.9,8.88-3.15l3.14-8.14s11.5,9.29,17.48,12.63a7.63,7.63,0,0,0,4,1c3.15-.16,9.6-.27,10.85,1.4a5.14,5.14,0,0,1,1.22,2.06C452.1,570.3,451.24,574,441.13,577.1Z" fill="#f48225" data-secondary="true"/><path d="M118.62,467.65s3.06,10.65-2.22,17.59c0,0-11.1,12.16-12.49,22.2l-2.77,19.7s3.33-1.11,7.49-5.82c0,0,3.05-3.06,6.38-2.78a17,17,0,0,0,6.65-4.43,6.45,6.45,0,0,1,4.37-2.18,13.39,13.39,0,0,0,6.28-1.81s7.5-11.47,2.59-27.75c0,0-6-3.8-9.34-8C125.56,474.41,122.23,469.21,118.62,467.65Z" fill="#f48225" data-secondary="true"/><path d="M89.76,483.57s1.53-21.15,17.77-22.19a5.32,5.32,0,0,1,4.22,1.66c2.38,2.56,5.58,8.36,1.6,19.14,0,0-4.16,7.22-8.33,10.83,0,0-6.1,6.39-5.83,12.77,0,0-1.87,44.84-20.42,43.14a6.42,6.42,0,0,1-2.19-.59c-3.43-1.64-12.34-8.65-6-36.17,0,0,2.77-11.11,10.82-17.49C81.43,494.67,88.27,490.78,89.76,483.57Z" fill="#686175" data-primary="true"/><path d="M89.76,483.57s1.53-21.15,17.77-22.19a5.32,5.32,0,0,1,4.22,1.66c2.38,2.56,5.58,8.36,1.6,19.14,0,0-4.16,7.22-8.33,10.83,0,0-6.1,6.39-5.83,12.77,0,0-1.87,44.84-20.42,43.14a6.42,6.42,0,0,1-2.19-.59c-3.43-1.64-12.34-8.65-6-36.17,0,0,2.77-11.11,10.82-17.49C81.43,494.67,88.27,490.78,89.76,483.57Z" opacity="0.2"/><path d="M393.57,285.68s-13.13-2.55-8.51-8.88l4.62-6.33,3.89-.66s1.48-.78,1.34,1c0,0-.44,2,.4,1.47l4.86-3.16s.6,9.48,6.16,12.06l-11.28.27S391.72,281.8,393.57,285.68Z" fill="#fbc27c"/><path d="M373.38,256.45s-10.49-8.53,0-22.62c0,0,7.87-18.69,35.07-14.1,0,0,12.46,1.31,16.72,11.47,0,0,4.37,12-4.6,12.47a.38.38,0,0,0-.37.36l-.12,2.65a4.29,4.29,0,0,1-.58,2,62.67,62.67,0,0,0-5.2,11.3.07.07,0,0,1-.14,0c.14-1.92.11-6.73-3.75-6.1,0,0-4,3.35-.91,9.28,0,0-2.74,4.21-9.33,6l-4.86,3.16a.29.29,0,0,1-.44-.24v-1.75a.58.58,0,0,0-.68-.57l-16.36,2.79a.36.36,0,0,1-.4-.3l-.3-2.55a.33.33,0,0,0-.25-.29c-.64-.16-2.45-.87-2-3.46l1.05-4.85a3.22,3.22,0,0,0-1-3.08A17.53,17.53,0,0,1,373.38,256.45Z"/><path d="M394.67,230.54a10.3,10.3,0,0,1,2.81,13.14S393.33,248.76,395,258a3.3,3.3,0,0,1-.29,2l-5.06,10.38,4.51-.77s1-.39.68,1.55c0,0-.69,1.74,1.29.46l4-2.61s6-1.29,9.33-6c0,0-3-5.8.91-9.28,0,0,2.59-1.35,3.61,3,0,0,1.61-7.86-3.89-8.73a1.86,1.86,0,0,1-1.56-1.91c.19-5.34-.44-20.19-13.72-16.47A.48.48,0,0,0,394.67,230.54Z" fill="#231f20"/><ellipse cx="392.03" cy="227.2" rx="4.77" ry="3.28" transform="translate(-52.7 140.49) rotate(-19.06)" fill="#686175" data-primary="true"/><ellipse cx="411.34" cy="259.39" rx="3.5" ry="5.57" fill="#fed194"/><path d="M366.05,224.2s16.11-3.2,23.63,3c0,0,1.89,1.65,3.71.84,0,0,4,.21-1.36-11.13,0,0-10.16-18.84-33.35-15.75a41.44,41.44,0,0,0-22.46,10.72,152.67,152.67,0,0,0-16.94,18.39S312.9,242,299.58,237c0,0-19.24-13.51-30.16-1.66,0,0-20.72,17.57-15.36,17.2,0,0,17.95-14.55,27.76-6.81,0,0,22.2,19,40.15,10,0,0,7.95-1.85,16.65-11.47C338.62,244.24,348.9,227.47,366.05,224.2Z"/><path d="M256.67,250.65s16.13-15.49,28.26-5.57c.61.49,1.21,1,1.86,1.41,4.3,2.85,20.54,12.65,31.85,6.44,0,0,8.88-4.25,14.43-12,0,0,11.15-16.25,23-21.7a18.17,18.17,0,0,1,4.9-1.44c6.33-1,24.78-2.64,28.75,9.43,0,0-13.06-9.17-33.42.53,0,0-8,3.19-17.64,16.51A38.08,38.08,0,0,1,322,255.71s-15,9.5-40.15-10C281.82,245.75,274.82,238.38,256.67,250.65Z" fill="#231f20"/><path d="M349.3,319.68s40.55-38.29,63.18-23.75a6.59,6.59,0,0,1,2.63,3.28c1.79,4.94,4.45,18.06-12.13,28.76a10.77,10.77,0,0,1-2.13,1c-5.9,2.14-33.66,12.41-43.9,19.7a11,11,0,0,0-4.08,5.55,57,57,0,0,0-2.41,11.33,31.06,31.06,0,0,1-.9,5c-1.38,5.06-4.56,16.13-7.85,23.66a39.45,39.45,0,0,0-2.84,9.49c-1.41,8.7-3.92,25.78-4.32,39l-3.61,27.76s-1.39,13-12.21,8.6c0,0-9.71-2.5-9.71-5.55,0,0-8.4-.7-6.81-5.09a1.5,1.5,0,0,1,1.92-.86l3.31,1.2a7,7,0,0,0,5.39-.27l.18-.09a6.74,6.74,0,0,0,3.62-7c-.61-4.31-1-13.48,5.43-18.46,0,0,1.83-2.52,7.22-2.78,0,0,3.47-1.16,1.56-2.59a16.42,16.42,0,0,1-5.76-8.67A111.46,111.46,0,0,1,321,391.43s0-20.82,7.77-31.92c0,0,6.94-9.53,1.94-6.57,0,0-7.21,2.41-1.66-8.7C329,344.24,331.58,336.19,349.3,319.68Z" fill="#fed194"/><path d="M357,348.7S369.8,334,382,326.76c0,0,6.17-3.61,12.8-3.33,0,0,20-1.85,21.21-20.91,0,0,5.06,13.7-12.78,25.29a12.89,12.89,0,0,1-2.43,1.23C394.31,331.45,362.38,343.49,357,348.7Z" fill="#fbc27c"/><path d="M143.26,153h97s-8.59-15.61-33.54-13.34c-23.83,2.16-25.05-7.69-37.19-8.9S147.3,138.88,143.26,153Z" fill="#ebebeb"/><path d="M447.08,75.34H632.83S616.41,45.45,568.58,49.8c-45.66,4.15-48-14.7-71.15-17S454.81,48.26,447.08,75.34Z" fill="#e0e0e0"/><path d="M618.53,141.8H749.36s-11.56-21-45.27-18c-32.16,2.93-33.8-10.36-50.13-12S624,122.77,618.53,141.8Z" fill="#ebebeb"/></svg>