<svg id="b6be5ebe-e34f-46fc-b843-5400bad5fa46" data-name="Layer 1" xmlns="http://www.w3.org/2000/svg" width="865.76" height="682.89" viewBox="0 0 865.76 682.89"><path d="M564,86.84V494.51a20.12,20.12,0,0,1-20.13,20.13H338.35a20.13,20.13,0,0,1-20.13-20.13V86.84a20.13,20.13,0,0,1,20.13-20.13H543.87A20.12,20.12,0,0,1,564,86.84Z" fill="#2f2e41"/><rect x="326.61" y="119.55" width="229.84" height="345.6" fill="#fff"/><path d="M449.67,212.86H642.94a10.23,10.23,0,0,1,10.23,10.23v31a10.23,10.23,0,0,1-10.23,10.23H497.06l-14.6,16.93-15.17-16.93H449.67a10.23,10.23,0,0,1-10.23-10.23v-31A10.23,10.23,0,0,1,449.67,212.86Z" fill="#f48225" data-secondary="true"/><rect x="623.13" y="223.47" width="17.62" height="16.7" transform="translate(1263.88 463.65) rotate(-180)" fill="#fff"/><path d="M452,225.1H611.53a.7.7,0,1,0,0-1.4H452a.7.7,0,1,0,0,1.4Z" fill="#fff"/><path d="M451.53,254.32H640.29a.7.7,0,1,0,0-1.4H451.53a.7.7,0,1,0,0,1.4Z" fill="#fff"/><path d="M451.07,240H610.61a.71.71,0,0,0,.7-.71.7.7,0,0,0-.7-.7H451.07a.7.7,0,0,0-.7.7A.7.7,0,0,0,451.07,240Z" fill="#fff"/><path d="M449.27,396.47H642.54c5.65,0,10.23,3.2,10.23,7.15v21.69c0,3.95-4.58,7.15-10.23,7.15H496.66l-14.6,14.64-15.17-14.64H449.27c-5.65,0-10.23-3.2-10.23-7.15V403.62C439,399.67,443.62,396.47,449.27,396.47Z" fill="#f48225" data-secondary="true"/><rect x="622.73" y="407.09" width="17.62" height="16.7" transform="translate(1263.07 830.87) rotate(-180)" fill="#fff"/><path d="M451.6,408.72H611.13a.71.71,0,0,0,0-1.41H451.6a.71.71,0,1,0,0,1.41Z" fill="#fff"/><path d="M450.67,423.56H610.2a.7.7,0,0,0,.71-.7.71.71,0,0,0-.71-.71H450.67a.7.7,0,0,0-.7.71A.7.7,0,0,0,450.67,423.56Z" fill="#fff"/><rect x="409.44" y="94.7" width="63.85" height="8.35" rx="2.72" fill="#fff" opacity="0.2"/><circle cx="417.13" cy="98.87" r="2.18" fill="#fff"/><circle cx="425.41" cy="98.87" r="2.18" fill="#fff"/><circle cx="433.39" cy="98.87" r="2.18" fill="#fff"/><circle cx="441.36" cy="98.87" r="2.18" fill="#fff"/><circle cx="449.64" cy="98.87" r="2.18" fill="#fff"/><circle cx="457.62" cy="98.87" r="2.18" fill="#fff"/><circle cx="465.59" cy="98.87" r="2.18" fill="#fff"/><circle cx="484.36" cy="90.86" r="4.97" fill="#fff"/><circle cx="484.66" cy="106.96" r="4.97" fill="#fff"/><path d="M515.84,65.28v1.43H483.51V65.28a3.43,3.43,0,0,1,3.43-3.42h25.48A3.42,3.42,0,0,1,515.84,65.28Z" fill="#2f2e41"/><path d="M318.22,181.25v49a5.06,5.06,0,0,1-4.35-5v-39A5.06,5.06,0,0,1,318.22,181.25Z" fill="#ccc"/><rect x="412.34" y="473.73" width="57.49" height="32.37" rx="11.52" fill="#231f20" opacity="0.2"/><rect x="416.38" y="476.9" width="49.67" height="25.28" rx="9" fill="#ccc"/><path d="M428.62,286.7H235.36c-5.65,0-10.23,7.68-10.23,17.15v52c0,9.47,4.58,17.14,10.23,17.14H381.24l14.59,18.54L411,373h17.61c5.65,0,10.24-7.67,10.24-17.14v-52C438.86,294.38,434.27,286.7,428.62,286.7Z" fill="#686175" data-primary="true"/><rect x="237.55" y="300.13" width="17.62" height="16.7" fill="#fff"/><path d="M427.37,302.16H269.25a.7.7,0,0,1,0-1.4H427.37a.7.7,0,1,1,0,1.4Z" fill="#fff"/><path d="M427.37,331.38H238.61a.7.7,0,0,1,0-1.4H427.37a.7.7,0,1,1,0,1.4Z" fill="#fff"/><path d="M427.37,346.23H238.61a.7.7,0,0,1-.7-.7.71.71,0,0,1,.7-.71H427.37a.71.71,0,0,1,.7.71A.7.7,0,0,1,427.37,346.23Z" fill="#fff"/><path d="M427.37,360.28H238.61a.71.71,0,0,1,0-1.41H427.37a.71.71,0,0,1,0,1.41Z" fill="#fff"/><path d="M427.37,316.4H269.25a.7.7,0,1,1,0-1.4H427.37a.7.7,0,1,1,0,1.4Z" fill="#fff"/><path d="M428.62,135.8H235.36A10.23,10.23,0,0,0,225.13,146v31a10.23,10.23,0,0,0,10.23,10.23H381.24l14.59,16.93L411,187.29h17.61a10.24,10.24,0,0,0,10.24-10.23V146A10.24,10.24,0,0,0,428.62,135.8Z" fill="#686175" data-primary="true"/><rect x="237.55" y="146.42" width="17.62" height="16.7" fill="#fff"/><path d="M426.3,148.05H266.77a.71.71,0,1,1,0-1.41H426.3a.71.71,0,0,1,0,1.41Z" fill="#fff"/><path d="M426.76,177.26H238a.7.7,0,0,1,0-1.4H426.76a.7.7,0,1,1,0,1.4Z" fill="#fff"/><path d="M427.23,162.89H267.69a.71.71,0,0,1,0-1.41H427.23a.71.71,0,0,1,0,1.41Z" fill="#fff"/><path d="M365.71,512.38l-1.25-1.56C368,508,399.07,483,400.84,481.9c.77-.48,2-.31,11.93,3.41l2.7,1c1.66-1.7,8.35-9,8.91-9.72.29-.37.5-.64,10.52-1.83l.23,2c-4,.47-8.38,1.07-9.39,1.31-1.35,1.53-9,10.1-9.69,10.32-.42.13-.42.14-4-1.2-2.72-1-9-3.35-10.34-3.47C399.41,485.35,379.16,501.56,365.71,512.38Zm60.23-34.54-.06.07Z" fill="#f48225" data-secondary="true"/><path d="M64.17,578.29l92.21.44s-9.89-43.13-45.9-43.3S65.8,568.68,64.17,578.29Z" fill="#f48225" data-secondary="true"/><path d="M64.17,578.29l92.21.44s-9.89-43.13-45.9-43.3S65.8,568.68,64.17,578.29Z" opacity="0.2"/><path d="M331.77,584.23l92.22.44s-9.9-43.13-45.9-43.3S333.4,574.61,331.77,584.23Z" fill="#f48225" data-secondary="true"/><path d="M331.77,584.23l92.22.44s-9.9-43.13-45.9-43.3S333.4,574.61,331.77,584.23Z" opacity="0.2"/><path d="M43.46,499.61c-2,3.13-5.63,37.71-5.84,38.92S34.51,545,34.45,546s-.83,16.6-.43,17.61A43.8,43.8,0,0,0,37.17,569c.5.61,13.51,11.92,15,12.08s15,.32,15.23.07,2-41.86,43-41.67,40.35,44.39,41.1,44.55,184.33,5.22,184.33,5.22c0-6.76.76-47,41-46.82,26.21.12,38.36,21.81,38.74,37.74.16,6.63-1,13.92-.62,13.92,1.21,0,5.35.33,6.05,0s-.55-5.76.16-6,5.65-.27,6.86-.57,10-9.63,10.11-9.93-.69-23.4-.69-24.36c0-.38-1.59-5.46-3.75-11.65-.53-1.52-3.54-2.7-4.12-4.3-3.06-8.43-5.57-18.39-7.81-19-.77-.19-7.13,4-8,3.46-1.33-.78-2.76-3.53-5.08-5.61-.13-.11-3.82,0-4-.16s-2.38-6.09-2.88-6c-1.52.1-6,3.24-6.9,3.16s-3.45-5.07-3.52-5.09c-1.51-.37-3.17-.39-4.82-.78-4-.95-16.84,2.81-18.81,2.66-3.38-.26-15.06-8.44-15.62-8.84-1.51-1.07-72.35-42.15-84.7-45.21-10-2.47-125.63.31-131.68.58s-22.82,3.22-24.44,3.21-20.18-.19-21.29.31,0,4.94,1.39,5.75S46.91,494.18,43.46,499.61Z" fill="#f48225" data-secondary="true"/><path d="M345.9,558.82s-183-5.05-184-3.5,181.77,11,181.77,11Z" fill="#fff" opacity="0.2"/><path d="M43.46,499.61s82,9.08,85.7,9,198.72,7.25,202.25,7,36.38-5.74,36.38-5.74c-3.38-.26-15.06-8.44-15.62-8.84-1.52-1.07-72.36-42.16-84.7-45.21-10-2.47-125.63.31-131.68.58s-22.83,3.22-24.43,3.22-20.18-.2-21.3.3,0,4.94,1.39,5.75S46.92,494.18,43.46,499.61Z" fill="#fff" opacity="0.2"/><path d="M384.51,516.87c0,.37,3.78,0,4.11-.06s6.31-3.66,6.31-3.66c-.8-.08-3.44-5.08-3.52-5.1S384.51,516.5,384.51,516.87Z" opacity="0.1"/><path d="M404.77,523.24c.16.49,3.72.15,3.88.2s5.11-1.64,5.11-1.64c-1.32-.78-2.77-3.53-5.09-5.61C408.67,516.19,404.59,522.74,404.77,523.24Z" opacity="0.1"/><path d="M401.84,510l.31,6.57,2.58-.51C404.63,515.94,402.34,510,401.84,510Z" opacity="0.1"/><path d="M46.12,497c.44.4,7.66.62,8.42.32S101,466.94,101,466.06c0-.45-8.54-.37-9.57-.33S45.29,496.24,46.12,497Z" fill="#fff"/><path d="M96.84,496.76c2,5.84,232.48,15.64,233.81,12.82,1-2.09-11.74-17.12-21.7-22.77s-38.49-22-52.56-23.72-42.62-1.72-67.5-1.38c-24.67.34-53.74.8-64,5.14C115.79,470.66,95.29,492.12,96.84,496.76Z" fill="#2f2e41"/><path d="M103.52,493.39c.6,2.19,53.39,8.13,115.28,11.3s92.46,3.77,93.22,3.48-2-16.81-3.09-18.18-45.29-24.29-52.25-24.92-44.57-.9-63.56-.69-58.59,2.29-65.34,5C121.85,471.73,102.93,491.19,103.52,493.39Z" fill="#fff" opacity="0.2"/><g opacity="0.1"><path d="M185.61,464.53,150,499.82c-6.32-.59-12.16-1.17-17.42-1.73l33-32.73C172.61,465,179.59,464.69,185.61,464.53Z" fill="#fff"/><path d="M311.92,504.66l-3.59,3.56q-5.4,0-18.72-.44l18.53-18.35a4,4,0,0,1,.79.55C309.68,491,311.32,499.66,311.92,504.66Z" fill="#fff"/><path d="M212.06,464.32l-37.88,37.53c-3-.23-6-.46-8.88-.7l37.18-36.83Z" fill="#fff"/><path d="M292.92,481.23l-26,25.7c-2.92-.12-6-.24-9.19-.39L286.57,478C288.75,479.11,290.88,480.19,292.92,481.23Z" fill="#fff"/><path d="M159.25,465.73l-32,31.75h0l-2.43-.29,31.58-31.28C157.3,465.85,158.27,465.78,159.25,465.73Z" fill="#fff"/><path d="M298.4,484.07,275,507.25l-2.62-.1,24.24-24Z" fill="#fff"/><path d="M265,467.91l-37.58,37.21-2.6-.12,38.25-37.88C263.7,467.36,264.34,467.62,265,467.91Z" fill="#fff"/><path d="M133.92,468,107.1,494.6c-.89-.19-1.62-.37-2.19-.53l25.72-25.47C131.58,468.41,132.68,468.22,133.92,468Z" fill="#fff"/></g><path d="M136.79,467.65c.24,0,.35.32.14.91-1.26,3.42-11,22.82-13.48,27.35a2.07,2.07,0,0,1-1.37.95l17,1.91a1.39,1.39,0,0,1-.84-1.55c.18-1.07,6.62-23.9,8.64-29.51a2.42,2.42,0,0,1,1.14-1.19c.34,0-2.9,0-6,.34C139.37,467.13,136.79,467.65,136.79,467.65Z" fill="#2f2e41"/><path d="M159.28,465.72s.32.18.32.8c.09,5.38.56,32.31,0,33.78a.57.57,0,0,1-.24.36l3.22.27a1.6,1.6,0,0,1-.29-.81c-.34-4.55-.55-29.24-.47-33.81a1.48,1.48,0,0,1,.31-.76Z" fill="#2f2e41"/><path d="M212.31,465.43c.38,1.2.83,36.36.83,37.49s-1.3,1.4-1.3,1.4l20,1s-1.29-.37-1.51-1-6.32-38.55-6.28-39,1-1,1-1l-13.92-.06A2.1,2.1,0,0,1,212.31,465.43Z" fill="#2f2e41"/><path d="M47,504.57c-2.45.3-8,6-8.41,7.22s-2,9.38-1.16,10.59,3.72,4.26,6.24,4.37,14.86-5.68,16-6.68,1.95-7.15.65-9.12S50.09,504.18,47,504.57Z" fill="#fff"/><path d="M59.6,520.07c-1.11,1-13.45,6.8-16,6.68-1.92-.08-4.08-1.88-5.34-3.26a8.11,8.11,0,0,0,4.92,1.58c1.36-.12,12.91-5,14.4-6.37s1.57-6.46,1.38-7.38-7.61-5.76-7.61-5.76c3.67,1.44,8,4.05,8.87,5.39C61.55,512.93,60.72,519.06,59.6,520.07Z" fill="#ececec"/><path d="M36.55,550.18c-.68.68-.93,5.8-.23,6.25s4.84.43,5.65,0,2.9-4.22,2.75-5.53S37.36,549.38,36.55,550.18Z" fill="#fff"/><path d="M408,530.65c.83,2.47,13,6.27,18.83,6.22,1.91,0,2.8-1.8,3.54-2.73l-.83-2H429l-.58-1.36-.58.12-.6-2.34-.78-1.3,1-1.1a6.47,6.47,0,0,0-1.26-1.5C425,523.68,420,522,415.58,522,414.1,522,406.67,526.79,408,530.65Z"/><path d="M408,530.65c.83,2.47,13,6.27,18.83,6.22a3.75,3.75,0,0,0,2.95-1.91l-.61-.33-2.2-.21-5.51-.16-1.78-4.13-.84,1.17-1.49-2,1.53-1.5-1.57-1.25,2.65-1.82,3.95-.25,1.15.88.54-.77,1.64,1.33a6.08,6.08,0,0,0-1.08-1.25C425,523.68,420,522,415.58,522,414.1,522,406.67,526.79,408,530.65Z" fill="#fff"/><polygon points="423.32 540.41 420.72 538.38 420.25 539.83 419.23 540.01 420.78 542.36 422.25 540.81 423.32 540.41" fill="#fff"/><polygon points="417.32 538.5 415.99 537.85 415.36 539.33 417.32 538.5" fill="#fff"/><polygon points="429.07 537.64 429.39 538.13 428.73 537.9 429.07 537.64" fill="#fff"/><polygon points="428.67 538.42 428.43 540.83 427.6 539.94 427.2 539.87 427.47 538.88 428.67 538.42" fill="#fff"/><polygon points="419.77 544.43 419.07 545.08 418.6 544.62 417.75 544.47 419.02 543.35 419.77 544.43" fill="#fff"/><path d="M411.5,531.42c1.6.25,3.18.58,4.77.91h0l0,0c.95.61,1.91,1.23,2.85,1.87l-.05,0c.77,0,1.55,0,2.32.06-.77,0-1.54.09-2.32.12h0c-1-.59-1.94-1.2-2.89-1.82l0,0C414.64,532.21,413.06,531.85,411.5,531.42Z" fill="#dcdcdc"/><path d="M413.33,529.55a9.6,9.6,0,0,1,.91,1.24,8.79,8.79,0,0,1,.69,1.37,9.11,9.11,0,0,1-.9-1.24A8.41,8.41,0,0,1,413.33,529.55Z" fill="#dcdcdc"/><path d="M417.28,526.5c-.42.31-.84.61-1.27.9l0,0h-.05a29.22,29.22,0,0,1-3.58-.76,27.76,27.76,0,0,1,3.62.55l-.07,0Q416.58,526.83,417.28,526.5Z" fill="#dcdcdc"/><g opacity="0.1"><path d="M98,521.3a8.14,8.14,0,0,1-2.37,5.75,8.26,8.26,0,0,1-11.69.11A8.26,8.26,0,0,1,84,515.3a8.26,8.26,0,0,1,11.69.23A8.14,8.14,0,0,1,98,521.3Zm0,0a8.09,8.09,0,0,0-2.38-5.7,7.92,7.92,0,0,0-11.21.11,7.91,7.91,0,0,0-.05,11,7.91,7.91,0,0,0,11.2.23A8.1,8.1,0,0,0,98,521.3Z"/><path d="M64.32,545.72c-.81-1.83-1.55-3.68-2.28-5.54s-1.41-3.73-2.12-5.6-1.34-3.76-2-5.65-1.25-3.79-1.79-5.72c.81,1.83,1.55,3.68,2.29,5.54s1.41,3.73,2.11,5.6,1.34,3.76,2,5.66S63.78,543.8,64.32,545.72Z"/><path d="M35.94,545.59c4-.06,8,0,11.92,0l11.91.18,11.91.34c4,.15,7.94.3,11.91.53-4,.06-8,0-11.92,0l-11.91-.19-11.91-.34C43.88,546,39.91,545.81,35.94,545.59Z"/><path d="M223.67,507.84l1.31,9.68.57,4.86c.09.81.17,1.62.23,2.44s0,1.63,0,2.45l-.27,19.55-.2,9.77-.1,4.89-.06,2.44-.2,2.44-.8,9.74-.87,9.74.54-9.76.61-9.75.15-2.43,0-2.44.07-4.89.14-9.76.43-19.53c0-.81.08-1.63,0-2.43s-.11-1.62-.18-2.43l-.47-4.86Z"/><path d="M331,512.79l1.6,9.74.8,4.87.2,1.22a7.24,7.24,0,0,1,.14,1.23c0,.83,0,1.65,0,2.47-.08,6.58-.28,13.16-.51,19.73-.06,1.65-.14,3.29-.23,4.93a18.64,18.64,0,0,1-1,4.86c-.92,3.17-2,6.29-3.11,9.38a71.39,71.39,0,0,1-4,9l-.62,1.08c-.21.36-.45.7-.68,1a8.23,8.23,0,0,1-.76,1l-.4.49a1.52,1.52,0,0,1-.72.21c-1.67.17-3.3.18-5,.23-13.17.21-26.32,0-39.48-.13s-26.31-.41-39.46-.71-26.31-.74-39.46-1.28c-6.57-.31-13.14-.55-19.71-1.18a15,15,0,0,1-2.49-.4c-.47-.18-.74-.4-1.13-.57s-.73-.36-1.1-.53c-1.49-.68-3-1.29-4.5-2a17.47,17.47,0,0,1-4.14-2.78,39,39,0,0,1-3-4c-3.68-5.46-7.19-11-10.71-16.58s-7-11.15-10.43-16.76-6.86-11.22-10.22-16.88l-1.25-2.13c-.1-.17-.2-.37-.3-.55l-.14-.29a1.45,1.45,0,0,1,0-.3l-.11-1.23c-.13-1.64-.25-3.28-.3-4.93,0-.41,0-.82,0-1.24a7.28,7.28,0,0,1,.27-1.21c.23-.79.5-1.56.78-2.34.56-1.54,1.15-3.08,1.77-4.6-.6,1.53-1.19,3.07-1.73,4.62-.27.77-.54,1.55-.76,2.34a7.36,7.36,0,0,0-.26,1.2c0,.41,0,.82,0,1.23.06,1.64.2,3.28.34,4.92l.13,1.22a1.45,1.45,0,0,0,0,.3l.15.26c.1.18.18.35.29.53l1.26,2.12q5.12,8.43,10.37,16.79c7,11.16,13.9,22.34,21.22,33.26a41.4,41.4,0,0,0,2.92,3.91,16.88,16.88,0,0,0,4,2.69c1.46.73,3,1.33,4.5,2,.37.18.75.35,1.12.54s.76.44,1.07.55a15.68,15.68,0,0,0,2.37.36c6.53.61,13.12.83,19.69,1.12,13.14.51,26.29.85,39.44,1.16s26.31.62,39.46.83,26.31.41,39.46.25c1.64,0,3.29-.06,4.9-.22a3.87,3.87,0,0,0,.46-.08l.39-.46a7.59,7.59,0,0,0,.73-1c.23-.34.46-.67.68-1l.6-1.06a69.43,69.43,0,0,0,4-9c1.15-3.07,2.2-6.19,3.12-9.34a18,18,0,0,0,1-4.78l.24-4.92q.45-9.85.69-19.72c0-.82,0-1.65,0-2.47a6.22,6.22,0,0,0-.13-1.21l-.19-1.22-.75-4.88Z"/><path d="M411.53,533.51a36.33,36.33,0,0,1-4.51,2.88c-1.56.89-3.15,1.74-4.73,2.6s-3.19,1.65-4.81,2.45-3.25,1.58-4.9,2.31c1.54-.91,3.11-1.78,4.68-2.65l4.75-2.55,4.78-2.49,2.4-1.24A24.2,24.2,0,0,0,411.53,533.51Z"/><polygon points="138.53 547.84 164.15 548.63 189.77 549.54 241.02 551.35 292.25 553.39 317.87 554.41 343.48 555.54 317.85 554.74 292.23 553.84 240.99 552.03 189.76 549.99 164.14 548.97 138.53 547.84"/><path d="M137.19,511.11l-1,0h-.25c-.05,0-.06,0-.1.13a3.55,3.55,0,0,0-.09.47,13.13,13.13,0,0,0-.05,2,7.93,7.93,0,0,0,.08,1,2.24,2.24,0,0,0,.11.43l0,0H136l.19,0c.65.06,1.32.08,2,.1,2.67.1,5.34.2,8,.26l4,.13,2,0H153a1,1,0,0,0,.11-.25c0-.14.07-.29.09-.45a11.48,11.48,0,0,0,.1-1.95c0-.33,0-.66-.09-1a1.49,1.49,0,0,0-.1-.37.9.9,0,0,0-.37-.11c-1.3-.24-2.64-.32-4-.46a38.65,38.65,0,0,1,4,.13,1.1,1.1,0,0,1,.57.17,1.25,1.25,0,0,1,.23.56,9.24,9.24,0,0,1,.14,1,10.8,10.8,0,0,1,0,2.05,3.46,3.46,0,0,1-.09.53.91.91,0,0,1-.36.61.36.36,0,0,1-.2.06h-.15l-.27,0h-2.52l-4-.07c-2.67-.11-5.34-.2-8-.41-.67-.06-1.33-.11-2-.21a1.57,1.57,0,0,1-.3-.06.71.71,0,0,1-.16-.07.45.45,0,0,1-.13-.17,2,2,0,0,1-.12-.55,8.75,8.75,0,0,1,0-1,13.42,13.42,0,0,1,.2-2,2.85,2.85,0,0,1,.14-.5.83.83,0,0,1,.07-.13s.13-.09.16-.07h.25Z"/><path d="M235.26,514l-1,0H234s-.06.05-.1.12a3.7,3.7,0,0,0-.09.48,13.07,13.07,0,0,0,0,2,7.93,7.93,0,0,0,.08,1,2.13,2.13,0,0,0,.11.42l0,0h.07l.19,0c.65.06,1.32.08,2,.11,2.66.1,5.33.2,8,.25l4,.14,2,0H251c.05,0,.08,0,0,0a.65.65,0,0,0,.11-.24c0-.15.07-.3.09-.45a10.64,10.64,0,0,0,.1-2,8,8,0,0,0-.09-1,1.64,1.64,0,0,0-.1-.37,1,1,0,0,0-.37-.11c-1.3-.23-2.64-.31-4-.45a38.64,38.64,0,0,1,4,.12,1.13,1.13,0,0,1,.57.18,1.21,1.21,0,0,1,.23.56,8.92,8.92,0,0,1,.14,1,10.81,10.81,0,0,1,0,2,3.15,3.15,0,0,1-.09.52c-.07.18,0,.38-.36.61a.38.38,0,0,1-.2.07h-2.94l-4-.07c-2.67-.12-5.34-.21-8-.42-.66-.06-1.33-.1-2-.2a1.63,1.63,0,0,1-.31-.07.64.64,0,0,1-.16-.06.47.47,0,0,1-.13-.18,2,2,0,0,1-.12-.54,8.92,8.92,0,0,1,0-1,13.69,13.69,0,0,1,.2-2,3.12,3.12,0,0,1,.14-.5.75.75,0,0,1,.07-.12s.13-.09.16-.07h.25Z"/></g><circle cx="108.71" cy="582.11" r="38.14" transform="translate(-379.77 247.37) rotate(-45)" fill="#2f2e41"/><path d="M140.48,582.89a31.78,31.78,0,1,1-31.14-32.4A31.47,31.47,0,0,1,140.48,582.89Z" opacity="0.1"/><circle cx="108.71" cy="582.11" r="27.85" transform="translate(-459.97 416.98) rotate(-63.23)" fill="#dcdcdc"/><circle cx="108.71" cy="582.11" r="25.68" transform="translate(-379.77 247.37) rotate(-45)" fill="#ccc"/><path d="M112.87,575.75l-8.06-.16c2.8-3.88-6.41-17.78-6.41-17.78l4.27-1.34c2.72,4.9,4.1,6.35,6.42,6.4s3.76-1.35,6.69-6.13l4.2,1.5S110.23,571.77,112.87,575.75Z" fill="#dcdcdc"/><path d="M104.12,576.07l-2.64,7.62c-2.82-3.86-18.89.6-18.89.6l0-4.47c5.5-1.08,7.31-2,8.07-4.14s-.12-4-3.76-8.26l2.73-3.53S99.51,577.35,104.12,576.07Z" fill="#dcdcdc"/><path d="M101.72,584.49l6.43,4.87c-4.55,1.49-5.27,18.15-5.27,18.15l-4.24-1.43c.68-5.56.41-7.55-1.44-9s-3.83-1.12-9,1l-2.52-3.69S101.51,589.26,101.72,584.49Z" fill="#dcdcdc"/><path d="M109,589.37l6.62-4.61c0,4.79,15.64,10.62,15.64,10.62L128.57,599c-5.08-2.36-7-2.72-9-1.39s-2.25,3.3-1.8,8.89l-4.29,1.25S113.46,591,109,589.37Z" fill="#dcdcdc"/><path d="M115.87,584l-2.33-7.71c4.55,1.46,14.93-11.6,14.93-11.6l2.59,3.65c-3.82,4.11-4.77,5.87-4.1,8.09s2.44,3.16,7.9,4.47l-.13,4.46S118.85,580.23,115.87,584Z" fill="#dcdcdc"/><path d="M116.17,582.08a7.46,7.46,0,1,1-7.31-7.6A7.44,7.44,0,0,1,116.17,582.08Z" fill="#dcdcdc"/><path d="M348.05,620h55c5.05,0,1.86-2.62.8-2.62-.88,0-.86-1.72-1.48-2.29l-.18-.17-26.62-1.35L348.9,614.9l-.12.13c-.54.49-.62,2.33-1.53,2.33S343,620,348.05,620Z" fill="#1a2e35"/><path d="M337.39,587.31A37.4,37.4,0,0,0,348.78,615a37,37,0,0,0,6.31,5h41a37.59,37.59,0,0,0,17.56-31.15,38.14,38.14,0,0,0-76.27-1.52Z" fill="#2f2e41"/><path d="M407.3,588.68a31.78,31.78,0,1,1-31.14-32.41A31.47,31.47,0,0,1,407.3,588.68Z" opacity="0.1"/><circle cx="375.53" cy="588.07" r="27.85" transform="translate(-313.49 698.09) rotate(-66.51)" fill="#dcdcdc"/><circle cx="375.53" cy="588.07" r="25.68" transform="translate(-305.84 437.78) rotate(-45)" fill="#ccc"/><path d="M379.69,581.72l-8.06-.16c2.79-3.88-6.42-17.79-6.42-17.79l4.27-1.33c2.73,4.9,4.11,6.34,6.43,6.39s3.76-1.34,6.69-6.13l4.2,1.5S377.05,577.73,379.69,581.72Z" fill="#dcdcdc"/><path d="M370.94,582l-2.64,7.62c-2.83-3.86-18.9.6-18.9.6l.05-4.47c5.5-1.08,7.31-1.94,8.07-4.14s-.12-4-3.77-8.25l2.73-3.53S366.33,583.31,370.94,582Z" fill="#dcdcdc"/><path d="M368.54,590.45l6.43,4.87c-4.55,1.49-5.27,18.15-5.27,18.15L365.46,612c.68-5.56.41-7.54-1.44-8.95s-3.83-1.12-9,1l-2.52-3.68S368.33,595.23,368.54,590.45Z" fill="#dcdcdc"/><path d="M375.8,595.34l6.62-4.61c0,4.78,15.64,10.61,15.64,10.61l-2.67,3.59c-5.09-2.36-7.05-2.72-9-1.39s-2.25,3.3-1.81,8.89l-4.28,1.26S380.28,597,375.8,595.34Z" fill="#dcdcdc"/><path d="M382.69,589.94l-2.34-7.72c4.56,1.46,14.93-11.59,14.93-11.59l2.59,3.65c-3.81,4.1-4.76,5.86-4.09,8.08s2.44,3.16,7.9,4.47l-.13,4.46S385.67,586.19,382.69,589.94Z" fill="#dcdcdc"/><path d="M383,588a7.46,7.46,0,1,1-7.31-7.6A7.47,7.47,0,0,1,383,588Z" fill="#dcdcdc"/><path d="M303.33,493.89c-1.39,1.39-1.32,13.82-.32,14.84s14.82,2,16-5.73S305.51,491.74,303.33,493.89Z" fill="#f48225" data-secondary="true"/><path d="M273.26,462.77s40.07,19.3,69.25,38.74l10.32.05-.64-.45,0,0-.25-.15a1.42,1.42,0,0,0-.22-.13l-1.67-1c-.21-.11-.43-.25-.67-.39l-.39-.22c-.23-.15-.49-.29-.76-.45l-.48-.28-3.05-1.77-1.51-.88-.6-.34-1.23-.71c-.21-.12-.43-.24-.65-.38l-1.9-1.08-.21-.13-2-1.14-.21-.12-2.77-1.59L331.23,489l-1.13-.63-1.32-.75-2.72-1.54-1.49-.85-5.26-3c-.59-.32-1.19-.65-1.77-1-1-.53-2-1.08-2.94-1.63l-2.55-1.41-.91-.51c-.61-.33-1.22-.66-1.83-1l-1.83-1-8.18-4.44-1.78-1-.9-.48c-.37-.19-.75-.39-1.12-.6l-.63-.33-1.73-.92-.85-.45-1.7-.9c-.28-.14-.56-.28-.84-.44l-2.46-1.27s0,0,0,0l-1.58-.82-1-.49-2.09-1.06c-.92-.47-1.83-.91-2.7-1.34Z" fill="#fff"/><g opacity="0.5"><path d="M64.28,555.41A49,49,0,0,1,72.88,545a52.71,52.71,0,0,1,37.28-14.28l3.41.18,1.71.09,1.69.24,3.38.5c1.11.24,2.21.54,3.32.8a41.93,41.93,0,0,1,12.48,5.43,43.7,43.7,0,0,1,10.08,9.1,60.14,60.14,0,0,1,7.1,11.55,64.38,64.38,0,0,0-7.44-11.26,43.1,43.1,0,0,0-10.11-8.8c-7.62-4.8-16.69-6.79-25.63-6.92A54.92,54.92,0,0,0,96.81,533a52.92,52.92,0,0,0-12.58,4.67,53.47,53.47,0,0,0-11,7.66A50.87,50.87,0,0,0,64.28,555.41Z" fill="#fff"/><path d="M331.5,556.69a49.29,49.29,0,0,1,8.6-10.46,53.87,53.87,0,0,1,11-7.94A53.3,53.3,0,0,1,377.39,532l3.41.17,1.7.09,1.69.24,3.38.5c1.11.24,2.21.54,3.32.81a41.9,41.9,0,0,1,12.48,5.42,43.93,43.93,0,0,1,10.08,9.1,60.45,60.45,0,0,1,7.1,11.55,63.82,63.82,0,0,0-7.44-11.26,43.33,43.33,0,0,0-10.11-8.8c-7.62-4.8-16.69-6.79-25.62-6.91A54.46,54.46,0,0,0,364,534.24a52.89,52.89,0,0,0-12.58,4.66,53.86,53.86,0,0,0-11.05,7.66A50.87,50.87,0,0,0,331.5,556.69Z" fill="#fff"/><path d="M70.1,492.14c6-4.63,12-9.15,18.11-13.61s12.25-8.83,18.58-13c.8-.5,1.6-1,2.43-1.48.42-.24.84-.47,1.28-.69a7.8,7.8,0,0,1,1.39-.51c1.83-.53,3.66-1,5.5-1.43,3.67-.89,7.35-1.74,11.07-2.44a65.07,65.07,0,0,1,11.3-1.11c3.78-.06,7.56,0,11.33.16-3.78,0-7.55.07-11.31.29a64.42,64.42,0,0,0-11.18,1.34c-3.68.81-7.36,1.64-11,2.56-1.83.46-3.66.93-5.45,1.46a7.48,7.48,0,0,0-1.26.47c-.4.21-.81.43-1.21.67-.81.47-1.6,1-2.39,1.48-6.34,4.06-12.48,8.46-18.66,12.78Z" fill="#fff"/></g><path d="M365.72,543.51c-29.25,6.54-29.84,39.62-29.87,45.7,0,0-183.57-5.07-184.33-5.23s-.29-29.11-21.9-40.25c9.71,4.86,22.13,16.57,26.77,33.62.5,1.81,27.22,4.79,72.92,6.46s85.43,1,93-.07S338.86,543.26,365.72,543.51Z" opacity="0.1"/><path d="M416.57,580.11c.16,6.63-1,13.91-.63,13.91.78,0,2.75.14,4.25.16h0a2.46,2.46,0,0,0,.79-.11c.71-.3-.55-5.75.16-6s5.65-.27,6.86-.57,10-9.63,10.11-9.93c-1.81.45-11.58,5.72-12.74,4.45s.13-2.07-4.9-12.69-17.51-21-25-22.59A40,40,0,0,1,416.57,580.11Z" opacity="0.1"/><path d="M496.3,507.8c-14.93-7.91-37.32-19.71-40.57-21.25a104.69,104.69,0,0,0-9.22,5.25c-3.39,2.07-3.39,2.07-4,2-.93-.11-9.62-6.78-11.58-8.3-1.22,0-5.48.22-9.26.49l-.21-3c10.26-.75,10.49-.55,11.05-.07s7.95,6,10.26,7.64l2.18-1.32c9.63-5.88,10.48-6,11.52-5.64,2,.74,37.22,19.43,41.24,21.55ZM456,486.47m-25.43-1.28.11.09Z" fill="#2f2e41"/><path d="M805.1,515.17,714.63,533s1.58-44.22,36.9-51.19S801.69,506,805.1,515.17Z" fill="#2f2e41"/><path d="M805.1,515.17,714.63,533s1.58-44.22,36.9-51.19S801.69,506,805.1,515.17Z" opacity="0.2"/><path d="M543.43,571.51,453,589.35s1.58-44.22,36.91-51.18S540,562.38,543.43,571.51Z" fill="#2f2e41"/><path d="M543.43,571.51,453,589.35s1.58-44.22,36.91-51.18S540,562.38,543.43,571.51Z" opacity="0.2"/><path d="M810.59,434c2.55,2.7,12.65,36,13.08,37.12s4.28,5.79,4.52,6.77,4,16.14,3.76,17.21a44,44,0,0,1-2.1,5.81c-.38.69-11,14.26-12.43,14.69s-14.65,3.15-14.94,2.95-9.89-40.73-50.13-32.8-31.25,51.21-32,51.51-180,39.92-180,39.92c-1.31-6.63-9.61-46-49.09-38.25-25.71,5.08-33.56,28.66-30.92,44.38,1.1,6.55,3.6,13.48,3.24,13.56-1.19.23-5.19,1.33-5.94,1.17s-.54-5.76-1.28-5.82-5.6.79-6.85.73-11.59-7.58-11.8-7.84S434,562,433.8,561c-.07-.37.54-5.66,1.49-12.15.23-1.59,3-3.32,3.23-5,1.42-8.86,2-19.12,4.09-20.1.72-.33,7.75,2.55,8.52,1.88,1.16-1,2.05-4,3.93-6.46.1-.13,3.74-.76,3.86-.91s1.19-6.43,1.68-6.49c1.52-.18,6.48,2.07,7.38,1.81s2.43-5.63,2.5-5.66c1.41-.65,3-1,4.58-1.68,3.7-1.68,17.07-.42,19-.94,3.28-.9,13.2-11.13,13.68-11.63,1.28-1.33,63.09-55.05,74.64-60.38,9.33-4.31,123.42-23.42,129.42-24.29s23-1.15,24.6-1.46,19.78-4,21-3.72,1,4.85-.27,5.91S806.17,429.31,810.59,434Z" fill="#686175" data-primary="true"/><path d="M524.76,549.23s178.74-39.5,180.07-38.17-176.44,45.1-176.44,45.1Z" fill="#fff" opacity="0.08"/><path d="M810.59,434s-78.85,24.4-82.47,25-193.77,44.63-197.28,45.1S494,505.35,494,505.35c3.28-.89,13.2-11.13,13.68-11.62,1.28-1.34,63.09-55.07,74.63-60.39,9.34-4.31,123.44-23.42,129.43-24.29s23-1.15,24.6-1.46,19.78-4,21-3.72,1,4.85-.28,5.91S806.16,429.31,810.59,434Z" fill="#fff" opacity="0.08"/><path d="M478.92,515.33c.07.36-3.72.65-4,.71s-6.89-2.41-6.89-2.41c.77-.22,2.42-5.63,2.49-5.67S478.86,515,478.92,515.33Z" opacity="0.1"/><path d="M460.24,525.4c-.07.51-3.63.85-3.78.93s-5.33-.64-5.33-.64c1.15-1,2.05-4,3.94-6.47C455.07,519.22,460.31,524.88,460.24,525.4Z" opacity="0.1"/><path d="M460.6,511.82l.94,6.51-2.63,0C459,518.21,460.11,511.91,460.6,511.82Z" opacity="0.1"/><path d="M807.48,431.93c-.35.48-7.41,2.05-8.21,1.9s-51.34-21.06-51.55-21.92c-.1-.43,8.32-2,9.35-2.13S808.15,431,807.48,431.93Z" fill="#fff"/><path d="M757.63,441.27c-.81,6.1-225.35,59.24-227.19,56.73-1.35-1.87,8.3-19,17-26.46s33.65-28.85,47.14-33.21,41.53-9.74,66-14.1c24.29-4.33,52.92-9.36,63.86-7C734.09,419.22,758.27,436.42,757.63,441.27Z" fill="#2f2e41"/><path d="M750.43,439.22c-.17,2.27-50.9,18.06-111.08,32.86s-90.08,21.16-90.88,21-1.18-16.89-.4-18.43,39.89-32.4,46.61-34.34S638.28,431,657,427.65s58-8.81,65.1-7.44C728.35,421.42,750.6,437,750.43,439.22Z" fill="#fff" opacity="0.2"/><g opacity="0.1"><path d="M664.37,426.38,706,454.31c6.1-1.77,11.72-3.45,16.78-5l-38.62-25.9C677.22,424.36,670.31,425.4,664.37,426.38Z" fill="#fff"/><path d="M547.91,489.63l4.2,2.82q5.28-1.05,18.29-4L548.74,474a4,4,0,0,0-.67.69C547.52,475.76,547.55,484.61,547.91,489.63Z" fill="#fff"/><path d="M638.35,431.17l44.29,29.69c2.93-.79,5.79-1.57,8.59-2.36l-43.46-29.14C644.78,429.92,641.6,430.53,638.35,431.17Z" fill="#fff"/><path d="M562.15,463l30.34,20.33,9-2.11-33.67-22.57C565.84,460.16,563.94,461.62,562.15,463Z" fill="#fff"/><path d="M690.48,422.58,728,447.71h0l2.33-.74-36.92-24.76Z" fill="#fff"/><path d="M557.29,466.86l27.36,18.35,2.55-.6-28.33-19Z" fill="#fff"/><path d="M587,444.68,631,474.14l2.54-.61-44.72-30C588.22,443.89,587.64,444.28,587,444.68Z" fill="#fff"/><path d="M715.79,420.06l31.35,21c.84-.35,1.53-.66,2.05-.93L719.13,420C718.16,420,717,420,715.79,420.06Z" fill="#fff"/></g><path d="M712.9,420.22c-.24,0-.29.39,0,.92,1.89,3.13,15.15,20.33,18.4,24.32a2.13,2.13,0,0,0,1.53.68l-16.38,5.09a1.39,1.39,0,0,0,.52-1.68c-.37-1-11-22.23-14-27.35a2.36,2.36,0,0,0-1.35-.95c-.34,0,2.86-.52,5.94-.8C710.27,420.2,712.9,420.22,712.9,420.22Z" fill="#2f2e41"/><path d="M690.45,422.58s-.28.23-.17.84c.94,5.3,5.56,31.83,6.35,33.19.1.17.2.27.31.29l-3.12.88a1.47,1.47,0,0,0,.14-.85c-.53-4.53-5-28.82-5.92-33.29a1.52,1.52,0,0,0-.45-.69Z" fill="#2f2e41"/><path d="M638.32,432.3c-.14,1.25,6,35.86,6.26,37s1.54,1.12,1.54,1.12l-19.43,4.78s1.2-.61,1.3-1.24-1.06-39.05-1.2-39.53-1.18-.74-1.18-.74L639.27,431A2.09,2.09,0,0,0,638.32,432.3Z" fill="#2f2e41"/><path d="M808.08,439.53c2.47-.17,9,4.39,9.62,5.5s3.7,8.84,3.14,10.18-2.84,4.88-5.3,5.47-15.66-2.77-16.95-3.55-3.26-6.64-2.36-8.83S804.93,439.74,808.08,439.53Z" fill="#fff"/><path d="M798.6,457.14c1.28.77,14.49,4.13,16.94,3.54,1.87-.45,3.65-2.61,4.63-4.21a8.17,8.17,0,0,1-4.53,2.48c-1.36.14-13.63-2.5-15.35-3.54s-2.76-6-2.75-7,6.39-7.09,6.39-7.09c-3.34,2.11-7.09,5.49-7.69,7C795.33,450.49,797.31,456.35,798.6,457.14Z" fill="#ececec"/><path d="M826.91,482.35c.8.54,2,5.52,1.41,6.1s-4.67,1.33-5.54,1.09-3.64-3.6-3.75-4.92S826,481.71,826.91,482.35Z" fill="#fff"/><path d="M458.49,533.28c-.36,2.58-11.54,8.61-17.32,9.66-1.88.36-3.09-1.23-4-2l.43-2.16.53-.1.31-1.45H439l.15-2.41.53-1.43-1.15-.89a6.62,6.62,0,0,1,.95-1.72c1-1.14,5.5-3.73,9.86-4.55C450.83,526,459,529.25,458.49,533.28Z"/><path d="M458.49,533.28c-.36,2.58-11.54,8.61-17.32,9.66a3.77,3.77,0,0,1-3.26-1.31l.54-.44,2.12-.62,5.38-1.2,1-4.39,1,1,1.08-2.3-1.78-1.18,1.3-1.53-2.95-1.28-3.92.5-1,1.08-.68-.66-1.36,1.62a6.36,6.36,0,0,1,.83-1.44c1-1.14,5.5-3.73,9.86-4.55C450.83,526,459,529.25,458.49,533.28Z" fill="#fff"/><polygon points="445.26 545.76 447.43 543.28 448.16 544.62 449.2 544.6 448.12 547.2 446.39 545.96 445.26 545.76" fill="#fff"/><polygon points="450.79 542.76 451.97 541.87 452.87 543.2 450.79 542.76" fill="#fff"/><polygon points="439.08 544.14 438.87 544.67 439.47 544.32 439.08 544.14" fill="#fff"/><polygon points="439.63 544.82 440.32 547.14 440.96 546.12 441.34 545.96 440.89 545.05 439.63 544.82" fill="#fff"/><polygon points="449.5 549.05 450.31 549.55 450.69 549 451.49 548.7 450.04 547.84 449.5 549.05" fill="#fff"/><path d="M455.16,534.7c-1.45.72-2.92,1.38-4.41,2l0,0c-.82.78-1.65,1.56-2.5,2.33l0,0h0c-.77.12-1.53.22-2.3.32.75-.18,1.51-.35,2.27-.49l-.05,0c.81-.81,1.63-1.59,2.45-2.38h0C452.15,535.87,453.64,535.26,455.16,534.7Z" fill="#dcdcdc"/><path d="M453,533.22a8.59,8.59,0,0,1-.42,1.48,8.3,8.3,0,0,1-.66,1.38,10,10,0,0,1,1.08-2.86Z" fill="#dcdcdc"/><path d="M448.56,531c.51.13,1,.28,1.5.45H450a27.87,27.87,0,0,1,3.46-1.23,30.28,30.28,0,0,1-3.38,1.43H450C449.5,531.41,449,531.19,448.56,531Z" fill="#dcdcdc"/><g opacity="0.1"><path d="M762.34,459.48a8.22,8.22,0,0,1,5.16-3.58,8.34,8.34,0,0,1,6.28,1.14,8.29,8.29,0,0,1,2.29,11.65,8.28,8.28,0,0,1-11.5,2.09,8.26,8.26,0,0,1-2.23-11.3Zm2.28,11.22a7.93,7.93,0,0,0,11-2.34,7.93,7.93,0,0,0-8-12.12,8,8,0,0,0-5.15,3.29,7.94,7.94,0,0,0,2.2,11.17Z"/><path d="M798.8,483.21c.45-1.94.83-3.9,1.2-5.87s.68-3.93,1-5.89.61-3.95.87-5.93.51-4,.68-5.95c-.45,1.95-.83,3.91-1.2,5.87s-.68,3.93-1,5.9-.61,3.94-.86,5.92S799,481.22,798.8,483.21Z"/><path d="M826.65,477.72c-3.92.7-7.81,1.47-11.71,2.26l-11.66,2.43L791.65,485c-3.87.89-7.74,1.79-11.59,2.76,3.91-.69,7.81-1.46,11.7-2.25l11.66-2.43,11.63-2.58C818.93,479.6,822.79,478.7,826.65,477.72Z"/><path d="M635.17,476.09l.54,9.76.36,4.88c.06.81.13,1.62.23,2.44s.31,1.6.45,2.4l4,19.15,2,9.56,1,4.78.51,2.39.65,2.36,2.63,9.41,2.69,9.4-2.37-9.48-2.44-9.46-.6-2.36-.5-2.39-1-4.79-2-9.56-4.1-19.09c-.16-.8-.39-1.59-.5-2.39s-.19-1.6-.28-2.41l-.45-4.86Z"/><path d="M530.73,501.21l.27,9.87.14,4.93,0,1.24a7.28,7.28,0,0,0,.09,1.23c.14.81.3,1.62.47,2.43,1.32,6.44,2.75,12.86,4.23,19.27.37,1.61.75,3.21,1.15,4.8a18.6,18.6,0,0,0,1.87,4.59c1.5,2.94,3.12,5.81,4.83,8.63a69.19,69.19,0,0,0,5.62,8.13l.8.95c.28.31.58.59.87.89a9.28,9.28,0,0,0,.93.84l.49.4a1.48,1.48,0,0,0,.75.07c1.66-.15,3.27-.44,4.9-.71,13-2.28,25.85-4.94,38.74-7.57s25.76-5.38,38.62-8.16,25.7-5.68,38.51-8.7c6.4-1.54,12.8-3,19.14-4.87a15.88,15.88,0,0,0,2.37-.87c.42-.27.64-.53,1-.77s.65-.49,1-.73c1.33-1,2.72-1.84,4-2.85a17.57,17.57,0,0,0,3.54-3.51,39.27,39.27,0,0,0,2.16-4.49c2.58-6.06,5-12.18,7.39-18.31s4.75-12.27,7.08-18.42,4.62-12.32,6.85-18.51l.82-2.33c.07-.19.13-.4.19-.6l.09-.3c0-.11,0-.21,0-.31l-.12-1.23c-.18-1.64-.38-3.27-.64-4.9-.07-.4-.13-.81-.24-1.21a7.68,7.68,0,0,0-.49-1.14c-.38-.73-.79-1.44-1.21-2.15-.84-1.41-1.72-2.8-2.61-4.18q1.32,2.07,2.57,4.2c.41.71.82,1.43,1.19,2.16a8,8,0,0,1,.48,1.13c.1.39.16.8.23,1.21.25,1.62.43,3.26.59,4.89l.11,1.23a1,1,0,0,1,0,.3l-.09.29c-.06.19-.11.37-.18.57l-.84,2.32c-2.29,6.16-4.65,12.3-7,18.44-4.74,12.27-9.44,24.57-14.57,36.67a38.74,38.74,0,0,1-2.13,4.39,17.16,17.16,0,0,1-3.45,3.41c-1.29,1-2.68,1.87-4,2.82-.34.24-.68.48-1,.74s-.67.57-1,.74A17.63,17.63,0,0,1,693,539c-6.3,1.82-12.73,3.29-19.12,4.8-12.81,3-25.66,5.81-38.52,8.6s-25.71,5.57-38.59,8.26S571,566,558.1,568.33c-1.62.27-3.25.57-4.86.72h-.47l-.47-.38a7.57,7.57,0,0,1-.9-.81c-.28-.29-.58-.57-.85-.87l-.8-.93a70.79,70.79,0,0,1-5.61-8.07c-1.71-2.8-3.33-5.66-4.83-8.58a18.2,18.2,0,0,1-1.86-4.51l-1.17-4.79c-1.53-6.4-3-12.81-4.39-19.24-.17-.8-.34-1.61-.48-2.41a8.27,8.27,0,0,1-.11-1.23l0-1.23-.18-4.93Z"/><path d="M455.53,536.77a37.1,37.1,0,0,0,5,2c1.69.58,3.41,1.11,5.13,1.66s3.45,1,5.19,1.5,3.48.94,5.25,1.34c-1.69-.6-3.4-1.16-5.1-1.71l-5.15-1.61-5.17-1.55-2.58-.76A23.78,23.78,0,0,1,455.53,536.77Z"/><polygon points="726.33 499.3 701.32 504.92 676.33 510.64 626.35 522.09 576.42 533.77 551.46 539.61 526.52 545.55 551.53 539.93 576.52 534.21 626.5 522.76 676.43 511.08 701.39 505.24 726.33 499.3"/><path d="M720.71,463l1-.14.25,0s.07,0,.12.1a3.52,3.52,0,0,1,.18.45,13.94,13.94,0,0,1,.42,1.94c.05.32.09.65.11,1a2,2,0,0,1,0,.44s0,0,0,0h-.07l-.19.06c-.62.18-1.28.33-1.92.48-2.6.6-5.2,1.2-7.81,1.76l-3.9.89-2,.41-.48.1-.23,0h-.13a.79.79,0,0,1-.15-.22,2.41,2.41,0,0,1-.18-.43,10.88,10.88,0,0,1-.47-1.89,8.18,8.18,0,0,1-.1-1,2.79,2.79,0,0,1,0-.39,1.33,1.33,0,0,1,.35-.18c1.23-.47,2.53-.8,3.81-1.19a39,39,0,0,0-3.93.88,1.12,1.12,0,0,0-.52.28,1.22,1.22,0,0,0-.12.6,8.6,8.6,0,0,0,.05,1,12.54,12.54,0,0,0,.4,2,4.24,4.24,0,0,0,.18.5c.11.17.12.36.48.53a.46.46,0,0,0,.21,0l.15,0,.26,0,.5-.09,2-.38,3.93-.83c2.6-.62,5.2-1.21,7.78-1.92.65-.19,1.29-.36,1.94-.58a2,2,0,0,0,.28-.12.65.65,0,0,0,.15-.1.45.45,0,0,0,.09-.19,2.17,2.17,0,0,0,0-.56,8.18,8.18,0,0,0-.16-1,13.11,13.11,0,0,0-.58-1.94,4,4,0,0,0-.23-.46l-.09-.11s-.15-.07-.17,0l-.25.05Z"/><path d="M625,484.33l1-.14.25,0s.07,0,.12.11a2.64,2.64,0,0,1,.18.45,14.12,14.12,0,0,1,.42,1.93c.05.33.09.66.11,1a1.89,1.89,0,0,1,0,.43v0l-.07,0-.19.06c-.62.18-1.28.33-1.93.48-2.59.59-5.19,1.2-7.8,1.76l-3.91.88-2,.42-.48.09a1.24,1.24,0,0,1-.23,0l-.1,0h0a1.11,1.11,0,0,1-.15-.22c-.07-.14-.13-.28-.19-.43a11.71,11.71,0,0,1-.46-1.9,8,8,0,0,1-.1-1,1.62,1.62,0,0,1,0-.38,1.08,1.08,0,0,1,.35-.18c1.23-.47,2.53-.81,3.81-1.19a36.42,36.42,0,0,0-3.93.88,1,1,0,0,0-.52.28,1.17,1.17,0,0,0-.12.59,8.77,8.77,0,0,0,0,1,11,11,0,0,0,.4,2c0,.16.11.33.18.5s.12.36.48.53a.33.33,0,0,0,.21,0h.14l.27,0,.5-.09,2-.39,3.93-.83c2.6-.61,5.2-1.21,7.78-1.92.65-.18,1.29-.35,1.94-.58a1.23,1.23,0,0,0,.28-.12.6.6,0,0,0,.15-.09.43.43,0,0,0,.09-.2,2.15,2.15,0,0,0,0-.56,8.49,8.49,0,0,0-.16-1,13.11,13.11,0,0,0-.58-1.94,4.93,4.93,0,0,0-.23-.46l-.09-.11a.2.2,0,0,0-.18,0l-.24.06Z"/></g><circle cx="762.08" cy="527.33" r="38.14" transform="matrix(0.54, -0.84, 0.84, 0.54, -95.01, 879.81)" fill="#2f2e41"/><path d="M731,534.1a31.78,31.78,0,1,0,24.46-37.7A31.46,31.46,0,0,0,731,534.1Z" opacity="0.1"/><circle cx="762.08" cy="527.33" r="27.85" transform="translate(-163.41 575.33) rotate(-37.65)" fill="#dcdcdc"/><circle cx="762.08" cy="527.33" r="25.68" transform="translate(-88.21 895.91) rotate(-58.12)" fill="#ccc"/><path d="M756.8,521.87l7.88-1.68c-3.48-3.28,2.94-18.67,2.94-18.67l-4.44-.51c-1.75,5.33-2.84,7-5.11,7.49s-3.94-.61-7.72-4.76L746.5,506S758.64,517.46,756.8,521.87Z" fill="#dcdcdc"/><path d="M765.45,520.53l4,7c2-4.32,18.67-3,18.67-3l-.89-4.39c-5.61,0-7.54-.53-8.71-2.54s-.63-3.94,2.14-8.81l-3.34-3S770.21,520.92,765.45,520.53Z" fill="#dcdcdc"/><path d="M769.39,528.34l-5.39,6c4.74.6,8.6,16.83,8.6,16.83l3.89-2.2c-1.71-5.34-1.82-7.34-.27-9.06s3.55-1.83,9-.69l1.78-4.1S770.5,533,769.39,528.34Z" fill="#dcdcdc"/><path d="M763.18,534.51l-7.36-3.28c.88,4.7-13.36,13.38-13.36,13.38l3.3,3c4.55-3.27,6.41-4,8.54-3.06s2.83,2.82,3.45,8.39l4.44.43S759.1,537,763.18,534.51Z" fill="#dcdcdc"/><path d="M755.4,530.51l.84-8c-4.2,2.3-16.85-8.57-16.85-8.57L737.53,518c4.53,3.31,5.79,4.86,5.55,7.17s-1.8,3.56-6.91,5.87l1,4.36S751.77,527.39,755.4,530.51Z" fill="#dcdcdc"/><path d="M754.75,528.71a7.45,7.45,0,1,0,5.74-8.85A7.46,7.46,0,0,0,754.75,528.71Z" fill="#dcdcdc"/><path d="M534.2,609.7,527.28,611l-20.07,3.86L487,618.77l-6.78,1.3c-5,1-2.33-2.22-1.29-2.42.87-.17.52-1.85,1-2.53a2,2,0,0,0,.15-.2L506,608.57l26.41-3.7.15.1c.61.38,1,2.18,1.94,2S539.15,608.75,534.2,609.7Z" fill="#1a2e35"/><path d="M538.49,575.6A37.64,37.64,0,0,1,527.28,611l-20.07,3.86L487,618.77a37.61,37.61,0,0,1-23.13-27.28,38.14,38.14,0,0,1,74.61-15.89Z" fill="#2f2e41"/><path d="M470.1,590.14a31.78,31.78,0,0,0,62.16-13.24,31.78,31.78,0,0,0-62.16,13.24Z" opacity="0.1"/><circle cx="501.18" cy="583.55" r="27.85" transform="translate(-241.94 384.83) rotate(-34.37)" fill="#dcdcdc"/><circle cx="501.18" cy="583.55" r="25.68" transform="translate(-259.04 700.9) rotate(-58.12)" fill="#ccc"/><path d="M495.9,578.09l7.89-1.68c-3.48-3.28,2.94-18.67,2.94-18.67l-4.45-.5c-1.75,5.32-2.83,7-5.1,7.49s-3.95-.62-7.73-4.76l-3.84,2.27S497.74,573.68,495.9,578.09Z" fill="#dcdcdc"/><path d="M504.55,576.75l4,7c2-4.33,18.66-3,18.66-3l-.89-4.38c-5.61,0-7.54-.53-8.7-2.54s-.64-4,2.14-8.82l-3.35-2.95S509.32,577.14,504.55,576.75Z" fill="#dcdcdc"/><path d="M508.5,584.56l-5.4,6c4.75.61,8.6,16.83,8.6,16.83l3.9-2.2c-1.72-5.34-1.83-7.34-.28-9.06s3.56-1.83,9-.69l1.77-4.1S509.6,589.22,508.5,584.56Z" fill="#dcdcdc"/><path d="M502.29,590.73l-7.37-3.27c.89,4.7-13.35,13.38-13.35,13.38l3.3,3c4.54-3.28,6.41-4,8.53-3.06s2.83,2.81,3.45,8.39l4.45.42S498.2,593.22,502.29,590.73Z" fill="#dcdcdc"/><path d="M494.5,586.73l.84-8c-4.19,2.3-16.85-8.56-16.85-8.56l-1.85,4.07c4.52,3.31,5.79,4.86,5.54,7.17s-1.8,3.56-6.91,5.88l1,4.35S490.87,583.62,494.5,586.73Z" fill="#dcdcdc"/><path d="M493.86,584.93a7.45,7.45,0,1,0,5.73-8.84A7.45,7.45,0,0,0,493.86,584.93Z" fill="#dcdcdc"/><path d="M554.3,477.44c1.64,1.09,3.92,13.31,3.12,14.5s-14.18,4.75-16.76-2.61S551.76,475.73,554.3,477.44Z" fill="#2f2e41"/><path d="M578,441.2s-35.71,26.51-60.69,51.11l-10.12,2c.29-.3.47-.5.54-.56s0,0,0,0l.22-.19.19-.18,1.45-1.3c.19-.15.38-.32.58-.51l.34-.29.67-.59.42-.36,2.65-2.32,1.33-1.14c.16-.15.33-.3.52-.45l1.07-.93c.19-.16.38-.32.57-.5.54-.45,1.09-.93,1.66-1.42l.18-.16,1.76-1.51.18-.15,2.43-2.09,2.05-1.75,1-.84c.38-.33.76-.66,1.16-1l2.37-2,1.31-1.11q2.27-1.91,4.61-3.9l1.55-1.31,2.58-2.15,2.23-1.87.81-.67,1.6-1.34,1.61-1.34c2.41-2,4.83-4,7.19-5.9l1.57-1.28.79-.64c.33-.26.67-.53,1-.8s.37-.29.55-.45l1.53-1.23.75-.6,1.5-1.2.74-.59c.74-.57,1.46-1.15,2.17-1.72h0c.48-.36.94-.73,1.4-1.1l.87-.67,1.86-1.43c.81-.64,1.62-1.24,2.4-1.83Z" fill="#fff"/><g opacity="0.5"><path d="M800.68,492.72a49.26,49.26,0,0,0-10.43-8.65,52.76,52.76,0,0,0-39.31-7l-3.31.82-1.66.41c-.54.17-1.07.37-1.61.55L741.13,480c-1,.44-2.07.95-3.1,1.42a41.75,41.75,0,0,0-11.24,7.68,43.68,43.68,0,0,0-8.18,10.84,60.34,60.34,0,0,0-4.79,12.68A63.86,63.86,0,0,1,719,500.16a43.45,43.45,0,0,1,8.27-10.55c6.57-6.16,15.1-9.82,23.86-11.63a54.49,54.49,0,0,1,13.36-1.17,53.07,53.07,0,0,1,13.23,2.2,53.85,53.85,0,0,1,12.3,5.44A51.13,51.13,0,0,1,800.68,492.72Z" fill="#fff"/><path d="M538.5,544.42a49.21,49.21,0,0,0-10.42-8.65,54.64,54.64,0,0,0-12.33-5.72,53.33,53.33,0,0,0-27-1.26l-3.32.82-1.65.41c-.54.17-1.08.37-1.62.56L479,531.7c-1,.45-2.07.95-3.11,1.42a42.14,42.14,0,0,0-11.24,7.68,44,44,0,0,0-8.18,10.85,61.24,61.24,0,0,0-4.79,12.68,63.7,63.7,0,0,1,5.18-12.47,43.49,43.49,0,0,1,8.28-10.55c6.57-6.15,15.1-9.81,23.85-11.63a54.53,54.53,0,0,1,13.36-1.17,53.8,53.8,0,0,1,25.54,7.64A51.67,51.67,0,0,1,538.5,544.42Z" fill="#fff"/><path d="M783,431.69c-6.73-3.43-13.52-6.72-20.35-9.95S749,415.38,742,412.5c-.89-.34-1.77-.68-2.67-1-.45-.16-.91-.31-1.38-.44a7.76,7.76,0,0,0-1.47-.24c-1.9-.17-3.78-.27-5.67-.37-3.77-.17-7.55-.32-11.33-.3a64.92,64.92,0,0,0-11.31,1c-3.72.65-7.43,1.39-11.09,2.3,3.7-.71,7.42-1.36,11.16-1.86a66.15,66.15,0,0,1,11.23-.79c3.77.1,7.54.22,11.3.44,1.88.11,3.76.22,5.62.41a6.16,6.16,0,0,1,1.33.22c.43.13.87.27,1.31.43.88.31,1.76.65,2.63,1,7,2.79,13.85,5.95,20.74,9Z" fill="#fff"/></g><path d="M502.4,537.93c30,.9,36.79,33.29,38,39.24,0,0,179.32-39.63,180-39.93s-5.21-28.63,13.91-43.66c-8.62,6.61-18.6,20.46-19.94,38.07-.15,1.88-25.83,9.84-70.39,20.12s-83.71,17.05-91.31,17.48S528.74,532.62,502.4,537.93Z" opacity="0.1"/><path d="M459.38,583.47C460.47,590,463,597,462.62,597c-.76.15-2.67.66-4.14,1h0a2.7,2.7,0,0,1-.8,0c-.75-.16-.54-5.76-1.28-5.83s-5.6.8-6.84.74-11.61-7.58-11.8-7.85c1.86.11,12.44,3.44,13.34,2s-.51-2,2.42-13.37,13.24-23.89,20.32-26.92A40,40,0,0,0,459.38,583.47Z" opacity="0.1"/></svg>