<svg id="badb4a24-428a-4612-bd01-89c7aca6b392" data-name="Layer 1" xmlns="http://www.w3.org/2000/svg" width="865.76" height="682.89" viewBox="0 0 865.76 682.89"><path d="M856,400.59q-.3,3.56-.65,7.14-1.39,14.19-3.61,28.64c-.36,2.32-.73,4.64-1.12,7q-2.8,16.74-6.74,33.75-2.55,11-5.59,22-4.69,17.14-10.61,34.43c-.51,1.49-1,3-1.56,4.49q-7.35,20.91-16.52,42-7.95,18.21-17.32,36.44-4.11,8-8.51,16-4.14,7.51-8.51,15l-1.31,2.22,0,.06-17.88,0-588.46-1.29h-5.67s-1.58-1-4.43-3.07c-1.54-1.11-3.48-2.51-5.73-4.2-1-.72-2-1.5-3.08-2.33-6.27-4.79-14.4-11.32-23.59-19.41h0l-.72-.64c-2-1.74-4-3.54-6-5.42l-.92-.85-.46-.42-1.23-1.14-.28-.25-2.17-2q-6.28-5.94-12.89-12.66c-1.49-1.52-3-3.06-4.48-4.64l-.15-.16q-4.26-4.48-8.56-9.27L85.41,580l-.77-.88q-4.77-5.4-9.5-11.18c-.72-.87-1.43-1.74-2.14-2.63q-4.44-5.5-8.77-11.32l-.76-1,0,0c-.8-1.09-1.61-2.18-2.4-3.29s-1.71-2.37-2.55-3.57c-4.71-6.69-9.27-13.66-13.59-20.88q-4.09-6.84-7.88-14h0q-1.58-3-3.07-6C3.14,443.6-7.81,366.13,44.23,280.9a221.14,221.14,0,0,1,56.11-62.15q8.32-6.25,17-11.59A236,236,0,0,1,148.62,191c96-41,207.22-17.43,232.08-5.55,0,0,64.37-172.23,258-150.42,44.12,5,84,24.55,117.26,55.26a253.84,253.84,0,0,1,19.22,19.8q4.35,5,8.51,10.28,4.37,5.53,8.51,11.38c37.35,52.59,60.93,122.93,64.91,202.4A495.82,495.82,0,0,1,856,400.59Z" fill="#f7dfc8"/><path d="M783.72,120.4V632.45q-4.76,8.63-9.82,17.24l-55.8-.12-32.2-.07-105.44-.22-35.6-.07-383-.8s-5-3.31-13.24-9.6A457.46,457.46,0,0,1,100.34,596V218.75A231.06,231.06,0,0,1,148.62,191c96-41,207.22-17.43,232.08-5.55,0,0,8.77-23.46,29.57-52A266.41,266.41,0,0,1,443.44,96c40.61-37.91,103.39-71.25,195.29-60.9,44.12,5,84,24.55,117.26,55.26a248.87,248.87,0,0,1,17.93,18.34Q778.95,114.35,783.72,120.4Z" fill="#fbecdb"/><path d="M783.72,120.4v43.79l-445,65.59L773.92,108.66Q778.95,114.35,783.72,120.4Z" fill="#fff4e9"/><path d="M502.89,607h42v42.17l-383-.8s-5-3.31-13.24-9.6A457.46,457.46,0,0,1,100.34,596V309.63l.15-.18h1.6v73.67h38.59V264.55l1.46-1.41h9.37v-.06H206v.06h.05v17.77H206v12.22h.05V310.9H206v12.27h.05v17.77H206V341l5.78-.06V248H273v11.77h0v17.77h0v15.62h0V310.9h0v12.27h0v17.77h0v11.35h0v17.78h0v11.35h0v17.77h0v10.69h0v11.28h0v1.24h69V524.11h25.77v25.62h27.78V505.61h50V385.72h7.82V373.78h1.11v11.94h38.9V373.78h1.12v11.93h8.45Z" fill="#f8e7d4"/><polygon points="685.9 229.78 685.9 649.5 580.46 649.28 580.46 229.78 685.9 229.78" fill="#f8e7d4"/><path d="M783.72,290.36V632.45q-4.76,8.63-9.82,17.24l-55.8-.12V290.36Z" fill="#f8e7d4"/><path d="M117.37,207.16V612.49c-5.46-5-11.18-10.54-17-16.51V218.75Q108.67,212.5,117.37,207.16Z" fill="#e5bd9e"/><path d="M631.1,60.65,410.27,133.5A266.41,266.41,0,0,1,443.44,96Z" fill="#fff4e9"/><path d="M514.11,137.63a13.19,13.19,0,1,1,13.19,13.19A13.19,13.19,0,0,1,514.11,137.63Z" fill="#fff4e9"/><path d="M792.23,131.78V616.45q-4.11,8-8.51,16-4.14,7.51-8.51,15V110.12q4.35,5,8.51,10.28Q788.09,125.94,792.23,131.78Z" fill="#e5bd9e"/><path d="M838.24,499.14q-4.69,17.14-10.61,34.43c-.51,1.49-1,3-1.56,4.49q-7.35,20.91-16.52,42a71.28,71.28,0,0,1-11.34,2.8c-15.46,2.32-10.68-4-5.36-13.45s22.19-13.64,26-18-4.11-4.35-13.42-.1-10.59,15.6-25.53,22.76-37.42-17.64-37.42-17.64c11.91-.61,28.91-13.54,28.3-17.49s-28.87,6.82-33.7,7.34-15.81-5.49-17.51-24.94,30.18-24.88,30.18-24.88,31.64,23.52,37.81,22.1-23.12-25.4-23.12-25.4c11-5.3,45.28-2,45.28-2s11.41,36.8,17,33.9S815,493,815,493C823.34,492.49,832.92,496.5,838.24,499.14Z" fill="#599dad"/><path d="M827.63,533.57c-.51,1.49-1,3-1.56,4.49-13.47-7.38-39.75-14.55-90.81-16.23C735.26,521.83,796.85,519.46,827.63,533.57Z" fill="#599dad"/><path d="M61.05,549.61q-1.29-1.77-2.55-3.57c-4.71-6.69-9.27-13.66-13.59-20.88.36-13.47-.32-26.71-.32-26.71s45.11-21.69,62.81-20c0,0-28,47.39-18.84,46.25s40.54-49.1,40.54-49.1,46.26-8.57,53.68,18.84-4.57,41.11-11.42,42.83-50.82,1.14-49.68,6.85,30.83,14.85,47.4,9.71c0,0-18.28,45.11-42.26,42.82-21.69-2.06-29.84-14.41-42.18-17.59q-4.77-5.4-9.5-11.18c-.72-.87-1.43-1.74-2.14-2.63q-4.44-5.5-8.77-11.32Z" fill="#6bb7bf"/><path d="M64.23,554c18.86-14.28,49.15-31.4,97.4-50.92-1.31.43-61.06,19.93-100.58,46.58Z" fill="#599dad"/><path d="M850.57,443.35q-2.8,16.74-6.74,33.75c-15.34-.1-32.28-3.65-43.91-8.36-22.66-9.18-11.16-13.93,3.51-22.37C817,438.55,840.33,444.6,850.57,443.35Z" fill="#86d1cd"/><path d="M856,400.59q-.3,3.56-.65,7.14-1.39,14.19-3.61,28.64c-3.78-1.87-9.82-3.54-16.9-4.29-15.92-1.69-26.67,12.56-52.48,10.3S746,388.84,746,388.84c16.51,8.67,49.7,4.8,52-1s-44.29-13.8-51.2-16.94-16.93-20-3.73-47.53,60.45-9.46,60.45-9.46,23.86,56.86,33.3,59.86-10.9-52.6-10.9-52.6c7.85.68,19.84,6.46,31.23,13A495.82,495.82,0,0,1,856,400.59Z" fill="#86d1cd"/><path d="M763.75,336.54c.87.47,55.32,30,92.2,64q-.3,3.56-.65,7.14C838,389.2,809.59,365.72,763.75,336.54Z" fill="#6bb7bf"/><rect x="146.67" y="646.21" width="636.86" height="6" fill="#954e20"/><path d="M477.36,307.36h26.26v1c0,7.25-5.88,14.1-13.13,14.1h0c-7.26,0-13.13-6.85-13.13-14.1Z" fill="#ab6f4e"/><path d="M496.33,307.36s-1.41,13.32-12.14,13.3c0,0,7.54,6,16.07-3.09,0,0,4.12-4.52,3.36-10.21Z" opacity="0.2"/><path d="M475.57,307.36a4.15,4.15,0,1,0,4.14,4.15A4.15,4.15,0,0,0,475.57,307.36Zm0,6.5a2.36,2.36,0,1,1,2.36-2.35A2.35,2.35,0,0,1,475.57,313.86Z" fill="#ab6f4e"/><path d="M477.36,307.36s-2.53-1.32-2.92-7.16c0,0,10.41,0,12,7.16Z" fill="#006838"/><path d="M474.44,300.2s3.89,5.46,8.07,7.16h-5.15S474.83,305.56,474.44,300.2Z" fill="#009444"/><path d="M484.19,303.52a15.09,15.09,0,0,1,8.45-7.31s2.92,5.94-.88,11.15h-5.35A7.31,7.31,0,0,0,484.19,303.52Z" fill="#006838"/><path d="M486.41,307.36l6.23-11.15s-4.53.6-8.45,7.31A6.18,6.18,0,0,1,486.41,307.36Z" fill="#009444"/><line x1="169.99" y1="641.19" x2="227.18" y2="489.9" fill="none" stroke="#954e20" stroke-miterlimit="10" stroke-width="3"/><line x1="376.04" y1="641.22" x2="316.47" y2="483.83" fill="none" stroke="#954e20" stroke-miterlimit="10" stroke-width="3"/><path d="M356.12,480.63l23.12-3.28s-38.7,32.43-38.69,117.14c0,0-19.48-.8-9.34,18.41,0,0-1.87,17.34.27,20.28H335s3.68-22.15,18.75-53.9l38-69.91,16-30.15s7.47-15.1,2.21-19.63C410,459.59,382.62,436.94,356.12,480.63Z" fill="#fd8571"/><path d="M279.44,387.18s-31.69,9.57-39.67,37.7c-2.39,8.43-6,16.49-11.62,23.21-6.54,7.82-16,16.17-27.89,18.22,0,0-7.59,18.1,20.44,46.13l-5.55,5.84s21,20.44,62.78,30.08c0,0,18.39-15.48,44.38-20.73l-5.84-5s21.61-10.51,37.08-38.83l7-8.76s18.87-34.45,49.44-15.48L390.64,443Z" fill="#686175" data-primary="true"/><path d="M369.4,317.32s31-8.87,52.38-60.94c0,0,13.24-32-1.56-38.74,0,0-13.87,1-30.29,22.83,0,0-14.16,14.73-23.74,22.67l-14.65,34.13a11.4,11.4,0,0,0,6.62,2.19,40.74,40.74,0,0,0-.58,7.34S363.58,306.35,369.4,317.32Z" fill="#f48225" data-secondary="true"/><path d="M369.4,317.32s31-8.87,52.38-60.94c0,0,13.24-32-1.56-38.74,0,0-13.87,1-30.29,22.83,0,0-14.16,14.73-23.74,22.67l-14.65,34.13a11.4,11.4,0,0,0,6.62,2.19,40.74,40.74,0,0,0-.58,7.34S363.58,306.35,369.4,317.32Z" opacity="0.2"/><path d="M248.9,286.35s17.24,21.31,45.89,29.57A39.08,39.08,0,0,1,299,295S273.93,298.13,248.9,286.35Z" fill="#f48225" data-secondary="true"/><path d="M248.9,286.35s17.24,21.31,45.89,29.57A39.08,39.08,0,0,1,299,295S273.93,298.13,248.9,286.35Z" opacity="0.2"/><path d="M421.78,577.26s-15.38,5.84-11,7.6c0,0,25.7,8.46,30.66-9.06,0,0,4.67-14,8.76-8.17V586.9h2.63V567.56a13.33,13.33,0,0,1,.73-4.38c1.3-3.8,3.07-12.4-6.47-14.85l-6.53,3.24L430.05,572.3Z" fill="#f48225" data-secondary="true"/><path d="M525,487.33s26.67,12.68,39,27.23l-7.43-26.45Z" fill="#f48225" data-secondary="true"/><path d="M525,487.33s26.67,12.68,39,27.23l-7.43-26.45Z" opacity="0.2"/><polygon points="659.45 533.27 648.74 533.27 656.73 517.31 666.66 527.24 659.45 533.27" fill="#f48225" data-secondary="true"/><polygon points="659.45 533.27 648.74 533.27 656.73 517.31 666.66 527.24 659.45 533.27" opacity="0.2"/><line x1="549.8" y1="396.09" x2="454.6" y2="645.78" fill="none" stroke="#954e20" stroke-miterlimit="10" stroke-width="3"/><line x1="612.66" y1="389.1" x2="517.46" y2="638.8" fill="none" stroke="#954e20" stroke-miterlimit="10" stroke-width="3"/><path d="M549.25,340.34l-15.52,31.89s-19-23.26-28.81-49.86c0,0-1-10.55-9.95-9.11,0,0-5.14.69-6.34-.14,0,0-1,2.88,6.34,2.79,0,0,4-.23,3.48,2.75a12.13,12.13,0,0,0-3.07,2,2.66,2.66,0,0,1-1.9.78l-8.49.18a2.78,2.78,0,0,1-2-.73c-2.21-2-8.44-7.11-12.14-5,0,0-.48,1.66,2.16,1.66,0,0-1.63,1.78,1.29,1.87,0,0,3.21-.29,4.57,2.34,0,0,8.27,8.56,17.81,4.28,0,0,14.7,45.69,32.28,67.19a4.42,4.42,0,0,0,4,1.57c3.07-.41,8.34-2.68,14.12-12l17.34-23.43-4.39-7.31S557.71,351.81,549.25,340.34Z" fill="#fd8571"/><polygon points="563.91 398.74 161.48 398.74 161.48 392.02 244.06 392.02 563.91 392.02 563.91 398.74" fill="#ab6f4e"/><path d="M636.46,326.52s7.39,9.9,16.69,9.35a29.26,29.26,0,0,1-13.74,13.36S638.38,336.56,636.46,326.52Z"/><path d="M501.26,206.57s-8.64,36.07,41.44,59.62l91.52,52.47s25.34-15.2,11-48c0,0-5.36-19.67-36.66-27.12l-43.53-1.47-17.29-.92S507.52,238.77,501.26,206.57Z" fill="#686175" data-primary="true"/><path d="M501.26,206.57s-8.64,36.07,41.44,59.62l91.52,52.47s25.34-15.2,11-48c0,0-5.36-19.67-36.66-27.12l-43.53-1.47-17.29-.92S507.52,238.77,501.26,206.57Z" opacity="0.2"/><path d="M560,241.8l11.32,44.86,3.89,16.8-15.07,48.6c-5.31-2.67-12.47-14.19-12.47-14.19-1.09,9.39,13.94,23.15,13.94,23.15v11.21C526,348.17,546.8,299.9,546.8,299.9c3.83-7,1.37-15.7,1.37-15.7-11.76-18-5.68-43.73-5.68-43.73A99,99,0,0,0,560,241.8Z"/><path d="M570.72,284.38s5,16.69-3.46,31L558.5,329.1l34.58,17.29,20-42.93s-25.17-5.72-25.79-17.21V266.19Z" fill="#feb0a3"/><path d="M585.65,633s9.08,2.12,12.29-7.23c0,0,7.89-19.85,11.39-19.85,0,0,7.3,3,5.26,13.64l-.88,21.4h-2l-.3-17.52s-3.79-2.63-5.54,1.75l-5.53,11.39s-1.77,8.46-25.13,2.62c0,0-2.34-2,2-2.92Z" fill="#f48225" data-secondary="true"/><path d="M606.49,269.18s-11.85,33.06-3.1,46.73" fill="none" stroke="#000" stroke-miterlimit="10"/><path d="M623.89,332s-30.79-16.67-14.45-65.85" fill="none" stroke="#000" stroke-miterlimit="10"/><path d="M543.05,283.82s-10.26-15.36-.56-43.35" fill="none" stroke="#000" stroke-miterlimit="10"/><path d="M529.62,251.22s8.62.31,12.08-10.75" fill="none" stroke="#000" stroke-miterlimit="10"/><ellipse cx="356.3" cy="278.33" rx="17.27" ry="22.23" transform="translate(-88.81 198.97) rotate(-27.89)" fill="#feb0a3"/><path d="M290.86,339s8.11-37.09,25.81-32.6a12.74,12.74,0,0,1,10.61,12.77,8.17,8.17,0,0,1-2,5.93l24.59-18.7s14.48-3.76,20.33,12.8L376,334l-12,18.69s-10.51,20.73-26.57,35.62l-33.87-4.09-.87-17.81,13.72-28Z" fill="#686175" data-primary="true"/><path d="M316.47,338.42s-2.7,36.21,11.35,48.76l-24.2-2.92-.87-17.81Z" opacity="0.2"/><path d="M361.83,356.79s5.29,12.35,5.81,19.84L364.74,392s25.46,6.26,21.95-12.87c0,0-6.56-36.48-8.9-40.33,0,0-3.74,9.08-12.6,12.15Z" fill="#feb0a3"/><path d="M200.26,466.31s-15.1-3.84-14,10.87a20.75,20.75,0,0,0,3.09,9.23c3.81,6.22,12.89,18.4,30,27.54l1.43-1.51S194.75,487.8,200.26,466.31Z" fill="#686175" data-primary="true"/><path d="M200.26,466.31s-15.1-3.84-14,10.87a20.75,20.75,0,0,0,3.09,9.23c3.81,6.22,12.89,18.4,30,27.54l1.43-1.51S194.75,487.8,200.26,466.31Z" opacity="0.2"/><path d="M215.15,518.28s-4.67,3.22,2.92,7.59c0,0,7.17,5.54,22.56,9.19C240.63,535.06,223.33,526.46,215.15,518.28Z" fill="#686175" data-primary="true"/><path d="M215.15,518.28s-4.67,3.22,2.92,7.59c0,0,7.17,5.54,22.56,9.19C240.63,535.06,223.33,526.46,215.15,518.28Z" opacity="0.2"/><path d="M353.55,483.83s20.8,49.14,5.34,58c0,0-32.09,18.55-85.06,39.43,0,0-55.72,25.52-70.39,38.28l-10.18,9.36s-3.51-8.32,6.27-14.59c0,0,12.56-7,18.25-12.71,0,0,29.49-33.72,60.15-53.28,0,0,17.81-16.65,44.38-20.73l-5.84-5S338.08,512.15,353.55,483.83Z" fill="#feb0a3"/><path d="M322.31,527.63l-5.84-5s19.27-9,37.08-38.83C353.55,483.83,344.5,513.9,322.31,527.63Z" fill="#fd8571"/><path d="M308.94,640.91l1-19.11s2.26-1.79,4.77,3.47c0,0,6.69,14.92,12.06,15.64,0,0,13.58,1.2,18.44-1.34a2,2,0,0,0-.32-3.54l-9.72-3.52-.12.67h-3.53s-7.36-1.28-11.94-15.77a27.82,27.82,0,0,0-1-2.77c-1-2.29-3-6.35-5.22-8.11a2.51,2.51,0,0,0-3.22.17c-1.88,1.67-4.87,5.51-3.32,12.14a6.37,6.37,0,0,1,.16,1.15l.7,21.11Z" fill="#686175" data-primary="true"/><polygon points="459.54 467.77 244.06 392.02 490.24 392.02 459.54 467.77" fill="#ebebeb"/><line x1="724.66" y1="641.19" x2="667.82" y2="487.71" fill="none" stroke="#954e20" stroke-miterlimit="10" stroke-width="3"/><path d="M678.8,463.69l60.88-158a6,6,0,0,0-5.14-8.07h0a6,6,0,0,0-6,3.85L667.82,463.69l9.35,8.46Z" fill="#954e20"/><polygon points="358.02 495.83 368.56 478.86 356.12 480.63 353.55 483.83 358.02 495.83" fill="#686175" data-primary="true"/><polygon points="358.02 495.83 368.56 478.86 356.12 480.63 353.55 483.83 358.02 495.83" opacity="0.2"/><path d="M392.74,376.35a4.15,4.15,0,1,0,4.15,4.15A4.15,4.15,0,0,0,392.74,376.35Zm0,6.51a2.36,2.36,0,1,1,2.36-2.36A2.36,2.36,0,0,1,392.74,382.86Z" fill="#ab6f4e"/><rect x="387.02" y="390.37" width="40.01" height="1.65" fill="#954e20"/><path d="M472.25,348.47a13.67,13.67,0,0,0-7.61-6.16,9.24,9.24,0,0,0-4.7-.1,15,15,0,0,0-2,.62A12.57,12.57,0,0,0,450.5,353c-2,14.93-8.42,18.62-8.42,18.62-5.25,5.91-8.08-4.56-8.08-4.56-2.23-6.75-5.06-7.61-5.06-7.61l-3.44,3.44s3,2.73,4.65,11c0,0,3.24,16.14,15,13.2,0,0,.4,3.29,6.27,4.94H471.8s12.87-1.55,14.63-14c0,0,14.36-11.46,9.48-24.6,0,0-4.34-8.09-11.49-2.22,0,0-5.09,6.87-9.05,7.68,0,0-1.46-.64-1.74-5.79A9.68,9.68,0,0,0,472.25,348.47Z" fill="#ab6f4e"/><path d="M442.69,387.42s-2.83-.86-4-6.11c0,0,5.05,3.84,9.5,0,0,0,3.47,8.57,13.06,3.47,0,0,4.37,5.49,14.16-2.63a83,83,0,0,1-7.61-29.53l-17.26.4a7,7,0,0,1,1.08-3.82h21.07a15.57,15.57,0,0,1,1,3.87s.18,4.34,1.74,5.79c0,0,4-.86,9.05-7.68,0,0,4.83-4.42,9.27-.55a9.28,9.28,0,0,1,3,5.59c.67,4.29.27,12.9-10.22,21.78,0,0-.89,11.53-14.63,14H451.39a7.85,7.85,0,0,1-6.27-4.94Z" opacity="0.2"/><path d="M476.49,361.68s5.64-3.08,8.93-7.51a5.35,5.35,0,0,1,5-2.19c2,.3,4,1.83,3.94,6.78,0,0,.83,6-8.92,15.91A27.85,27.85,0,0,1,476.49,361.68Z" fill="#fff"/><path d="M198.58,600.68s6.13,1.48,0,5.35c0,0-18.41,5.88-13.61,22.91,0,0,4.28,25.78,8.29,0,0,0-4-8.22,6.27-14.59,0,0,13.94-8,18.25-12.71,0,0-2.49-8.57-17.83-3.84,0,0-15,2.69-18.62,2.69v2.3Z" fill="#686175" data-primary="true"/><path d="M572.17,297.27a78.86,78.86,0,0,0-.9-10.61s10.12-4.37,13.61-14.1C584.88,272.56,582.47,287.49,572.17,297.27Z" fill="#fd8571"/><ellipse cx="567.26" cy="263.35" rx="25.47" ry="19.8" transform="translate(128.47 709) rotate(-70.35)" fill="#feb0a3"/><path d="M565.06,242.07s9.29,12.83,17.88,12.73l4.33,11.39v20.06s-1.89,6.33,12,12.39c0,0-7.44-6.25,7.92-28.28,0,0,10.56-10.26,1.37-26.82C608.59,243.54,580.05,242.87,565.06,242.07Z"/><ellipse cx="587.27" cy="259.34" rx="5.81" ry="6.86" fill="#feb0a3"/><path d="M501.26,206.57s24.33,15.88,46.87,24a5.28,5.28,0,0,0,6-1.72c3.08-4.13,10.32-10.9,24.62-10.9,0,0,23.26.3,29.82,25.64,0,0-38.16-.9-60.82-2.39C547.77,241.15,508.42,240,501.26,206.57Z" fill="#686175" data-primary="true"/><path d="M343.22,289.9s-8.52,19-15.66,26.62a1.79,1.79,0,0,0-.45,1.63,7.46,7.46,0,0,1-1.83,6.9,6.89,6.89,0,0,0-.84,7.13c1.12,2.16,3.38,4.54,7.83,6.33a26.51,26.51,0,0,0,12,1.79c5.15-.4,11.9-2.08,11.31-8.21a8.25,8.25,0,0,0-1.16-3.39c-1.93-3.29-7.58-14-4.54-22.35l1.67-9.08A20,20,0,0,1,343.22,289.9Z" fill="#feb0a3"/><path d="M365.19,351s2.23-4.19-.31-10.28a16.06,16.06,0,0,0-3.68-5.29,37.43,37.43,0,0,1-9.66-38.13,18.68,18.68,0,0,0,6.62,2.19s-5.5,24.66,21.67,33.12C379.83,332.58,377.41,346.88,365.19,351Z"/><path d="M299,295s-6.86,10.54-3.29,29.15c0,0,8.09-21.13,21-17.77,0,0,8.62.79,10.48,11.12,0,0,8.17-9.83,16.07-27.57a10.17,10.17,0,0,0,0-8.84C339.75,283.4,335.63,285.79,299,295Z"/><path d="M248.9,286.35s37.55,10.57,61.2-17.25c0,0-12.52-24.48,4.72-36.44,0,0,14.75-14.74,35.33,5,0,0,33.91-17.8,70.07-20,0,0-16,4.53-30.29,22.83a312,312,0,0,1-46.71,40.59S326,294.69,299,295A72.62,72.62,0,0,1,248.9,286.35Z" fill="#f48225" data-secondary="true"/><path d="M378.39,252s4.44,19.25-3.63,30.54c0,0,.66-10.4-8.57-19.42Z"/><path d="M379.83,281.06s5.2-15-1.44-29" fill="none" stroke="#000" stroke-miterlimit="10"/><path d="M389.38,255.69s-4.84.63-9.77-3.67" fill="none" stroke="#000" stroke-miterlimit="10"/><path d="M310.1,269.1s21.95-24.93,40-31.43c-.86-.83-1.81-1.69-2.86-2.56s-2.12-1.67-3.12-2.37A73,73,0,0,0,329,240c-8.09,4.93-17.2,12.52-21.29,23.13.31,1,.67,2,1.09,3.09S309.67,268.2,310.1,269.1Z" fill="#fff"/><path d="M343.22,289.9l-2.69,5.66s3.23,9.47,9.34,10.79l1.67-9.08S348.41,296.05,343.22,289.9Z" fill="#fd8571"/><path d="M383.91,364.42l1.37,7.83-13.81,4.1-3.83.28a44.28,44.28,0,0,0-.9-5.35S380.56,369.88,383.91,364.42Z" fill="#fd8571"/><path d="M368.14,387.18l7.9-1.75,1.75,2.92s-9.45,5.5-18.45,3C359.34,391.39,365.83,390.37,368.14,387.18Z" fill="#fd8571"/><path d="M290.86,339,280,381.64s-4.08,9.92,7.3,10.8l64.27-1.17s16.9,2.63,17.78-7.59l8.33,5.64a1.41,1.41,0,0,0,1.48.07h0a1.42,1.42,0,0,0,.19-2.36l-5.54-4.35a.86.86,0,0,1,.16-1.45,6.48,6.48,0,0,1,5.31-.18l6.27,3.86a1.61,1.61,0,0,0,2.18-.48h0a1.61,1.61,0,0,0-.45-2.23l-8-5.33a.2.2,0,0,1,0-.34l1.69-.7a7.07,7.07,0,0,1,3.08-.54l3.15.15a1.33,1.33,0,0,0,1.38-1.32h0a1.32,1.32,0,0,0-.94-1.26c-2.75-.84-10.94-2.82-16.11,1.37a12.84,12.84,0,0,1-1.9,1.31l-10.34,5.63a11.54,11.54,0,0,1-6.41,1.37L299,378.42l3.8-12,13.72-28Z" fill="#feb0a3"/><path d="M350.22,382.34l-24.42-8.72a5.79,5.79,0,0,0-4.12.08L311,378a.69.69,0,0,0,.2,1.33l2.52.19a.58.58,0,0,0,.23,0l5-1.3a.51.51,0,0,1,.44.9l-3.84,3a1.3,1.3,0,0,0,.44,2.28h0a1.37,1.37,0,0,0,1.11-.19l7.35-5.16a.87.87,0,0,1,.94,0h0a.87.87,0,0,1,.15,1.37l-3.77,3.53a1.55,1.55,0,0,0,.87,2.66h0a1.54,1.54,0,0,0,1.17-.34l5-4.13a5,5,0,0,1,3.5-1.12Z" fill="#fd8571"/><path d="M509.37,397.79l-10.9.95s-4.81,3.33-8.63,18.13l-44.31,116.4s-17.52,37.38-23.75,44c0,0,10.51,3.9,16-13.62,0,0,4.67-11.16,9.35-15.31,0,0,68.9-69.17,67.73-119.39a79.13,79.13,0,0,0,18.3,14.79S539.74,402.07,509.37,397.79Z" fill="#feb0a3"/><path d="M558.5,329.1c-1.28,2.53-11.75,5.43,8.69,34.24l16.15,21.41s-8.56,14.21-74,13c0,0,27.65.39,23.75,45.94,0,0-23.36,11.29-38.15,25.31,0,0,33.87-20.25,61.51,19.07h-7S567.38,536,604,545.73c0,0,19.85,8.95,47.1-14.4,0,0,8.57-8.76,11.29-4.87,0,0,1.37,2.72-2.92,6.81,0,0,23-6.62,21.8-20.63,0,0,16.94-17.13,15.58-35.62,0,0-19.76-6.62-25-27.64,0,0-15.18-61.32-50.22-61.9a67.91,67.91,0,0,0,.5-8.4A69.59,69.59,0,0,0,619.64,361l-16.73-8.87,20.73-44.39s-3.28-3.19-10.58-4.3l-20,42.93Z" fill="#f48225" data-secondary="true"/><path d="M495,469s-11.54,6.49,0,22.82l76.44,109.28s14.24,24.7,14.24,31.82h5.48s1-9-2.14-15.79a9.28,9.28,0,0,1,.19-6.43s6.43-12.06-11.87-12.84c0,0-7.2-68.91-52.36-110.57l31.53.78S535.85,450,495,469Z" fill="#feb0a3"/><path d="M540.3,487.71s-27.37-23.13-50.36-10.64c0,0-1.24-4.51,5-8,0,0,35.28-21.55,61.51,19.07Z" fill="#fd8571"/><path d="M640.28,388.06s2.63-84.38-16.64-80.3l-20.73,44.39L619.64,361s3.71,13.78,2.08,20.79c0,0-21.44,7.13-60.28,3.62,0,0-2.92-15.33-7.59-15.33,0,0-6.13-6.86-10.22-3.94,0,0-8.76,2.34-6.13,4.38,0,0-1,1.17,9-1.31,0,0,2.63.14.3,2.19,0,0-15.33,8.61-10.52,10.51,0,0-1.75,2.63,0,3.06,0,0,.59.88,4.53-2,0,0,5.4-3.36,7-3.07,0,0-6.57,5.65-3.65,8.18,0,0,1,1,3.31-3.31,0,0,9.54,15.38,47.49,13.82C595,398.57,642.13,400.91,640.28,388.06Z" fill="#feb0a3"/><path d="M619.64,361s-4.51-22-6.58-27.46c0,0,.76,18,0,24l1.22.65" fill="#fd8571"/><path d="M608,384.68c-.71.09,4.63-18.95,5.09-27.15l6.58,3.49s4.26,13,2.08,20.79A83.58,83.58,0,0,1,608,384.68Z" opacity="0.2"/><path d="M419,375.57H392.74v1c0,7.25,5.88,14.1,13.13,14.1h0c7.25,0,13.13-6.85,13.13-14.1Z" fill="#ab6f4e"/><path d="M419,375.57s2.53-1.32,2.92-7.16c0,0-10.41,0-12,7.16Z" fill="#006838"/><path d="M421.92,368.41s-3.89,5.46-8.08,7.16H419S421.53,373.77,421.92,368.41Z" fill="#009444"/><path d="M412.16,371.73a15,15,0,0,0-8.44-7.31s-2.92,5.94.87,11.15H410A7.26,7.26,0,0,1,412.16,371.73Z" fill="#006838"/><path d="M410,375.57l-6.23-11.15s4.52.6,8.44,7.31A6.15,6.15,0,0,0,410,375.57Z" fill="#009444"/><path d="M413.84,375.57s-.35,12.56-10.12,14.8c0,0,8.69,2.44,13.66-7.23a13.93,13.93,0,0,0,1.62-7.57Z" opacity="0.2"/><path d="M567,274.23l-11.73.3s.38,4.52,5.55,4.54C567.12,279.09,567,274.23,567,274.23Z" fill="#fff"/><path d="M567.53,261.45c0,1.52.67,2.75,1.51,2.75s1.51-1.23,1.51-2.75-.68-2.74-1.51-2.75S567.53,259.94,567.53,261.45Z"/><path d="M550.22,261.45c0,1.52.68,2.75,1.51,2.75s1.51-1.23,1.51-2.75-.67-2.74-1.51-2.75S550.22,259.94,550.22,261.45Z"/><path d="M572.35,258.29a4.92,4.92,0,0,0-2.74-2.41,4.58,4.58,0,0,0-3.46.31.6.6,0,0,0-.27.73h0a.6.6,0,0,0,.82.34A5,5,0,0,1,572.35,258.29Z"/><path d="M548.48,258.29a4.92,4.92,0,0,1,2.74-2.41,4.58,4.58,0,0,1,3.46.31.6.6,0,0,1,.27.73h0a.61.61,0,0,1-.82.34A5,5,0,0,0,548.48,258.29Z"/><path d="M561.87,270.63c1.82-.68-1-1.91-1.54-2.3.41-.25,1.87-.41,1.84-1.09s.9-6.82-1-4.17l-.22,3.68C555.77,268.07,559.36,269.29,561.87,270.63Z" fill="#fd8571"/><path d="M587.74,262.82a.46.46,0,0,1-.22-.58c1.36-3.52-.34-5.06-.41-5.12a.46.46,0,0,1,.6-.71c.1.08,2.29,2,.68,6.17a.45.45,0,0,1-.6.26Z" fill="#fd8571"/><path d="M586.2,260a.43.43,0,0,1-.22-.24.48.48,0,0,1,.27-.61,2.67,2.67,0,0,1,2.54.52.47.47,0,0,1,.05.66.46.46,0,0,1-.65.06,1.65,1.65,0,0,0-1.61-.36A.5.5,0,0,1,586.2,260Z" fill="#fd8571"/><path d="M370.66,288.39l-7.8,1.63a3.51,3.51,0,0,0,4.26,2.35C371.33,291.62,370.66,288.39,370.66,288.39Z" fill="#fff"/><path d="M369.58,276.67c.23,1.25,1,2.17,1.66,2s1.06-1.24.83-2.5-1-2.16-1.66-2S369.35,275.41,369.58,276.67Z"/><path d="M357,279.6c.23,1.25,1,2.17,1.66,2s1.07-1.24.84-2.5-1-2.17-1.66-2S356.77,278.34,357,279.6Z"/><path d="M373.08,273.33a4.13,4.13,0,0,0-2.62-1.58,3.88,3.88,0,0,0-2.81.78.49.49,0,0,0-.11.65h0a.5.5,0,0,0,.72.15A4.22,4.22,0,0,1,373.08,273.33Z"/><path d="M355.09,277.25a4.11,4.11,0,0,1,1.9-2.4,3.87,3.87,0,0,1,2.9-.27.51.51,0,0,1,.33.57h0a.5.5,0,0,1-.62.4A4.2,4.2,0,0,0,355.09,277.25Z"/><path d="M366.07,285.58c-1.63-.08.33-1.77.67-2.22-.39-.1-1.61.14-1.75-.41s-2.41-5.25-.21-3.61l1.09,2.9C370.33,282,367.75,283.89,366.07,285.58Z" fill="#fd8571"/></svg>