<svg id="a5c9818d-38f4-4922-bc48-17fa0cfede83" data-name="Layer 1" xmlns="http://www.w3.org/2000/svg" width="865.76" height="682.89" viewBox="0 0 865.76 682.89"><rect x="718.9" y="377.83" width="117.22" height="166.6" rx="5.63" fill="#ccc"/><rect x="729.68" y="384.77" width="95.67" height="45.77" rx="3.49" opacity="0.2"/><rect x="729.68" y="438.24" width="95.67" height="45.77" rx="3.49" opacity="0.2"/><circle cx="777.51" cy="447.39" r="3.85" fill="#ccc"/><rect x="729.68" y="491.72" width="95.67" height="45.77" rx="3.49" opacity="0.2"/><circle cx="777.51" cy="500.87" r="3.85" fill="#ccc"/><polygon points="349.9 478.18 359.25 495.38 378.93 483 370.26 466.49 349.9 478.18" fill="#f9b499"/><polygon points="244.69 495.86 239.85 513.57 246.8 519.63 265.33 515.17 269.05 503.45 244.69 495.86" fill="#f9b499"/><path d="M173.75,427.32l3,113.6a2.58,2.58,0,0,0,2.58,2.52h0a2.58,2.58,0,0,0,2.59-2.52l3-113.6Z" fill="#ccc"/><path d="M173.75,427.32l3,113.6a2.58,2.58,0,0,0,2.58,2.52h0a2.58,2.58,0,0,0,2.59-2.52l3-113.6Z" opacity="0.2"/><polygon points="157.35 369.29 171.48 414.7 181.32 414.7 166.44 369.2 157.35 369.29" fill="#ccc"/><polygon points="157.35 369.29 171.48 414.7 181.32 414.7 166.44 369.2 157.35 369.29" opacity="0.2"/><path d="M175.9,412.94H278.36a0,0,0,0,1,0,0v16.91a0,0,0,0,1,0,0H175.9a8.45,8.45,0,0,1-8.45-8.45v0a8.45,8.45,0,0,1,8.45-8.45Z" fill="#ccc"/><polygon points="263.5 404.72 246.8 480.11 276.16 489.46 306.7 404.72 295.14 384.63 263.5 404.72" fill="#2f2e41"/><polygon points="263.5 404.72 246.8 480.11 276.16 489.46 306.7 404.72 295.14 384.63 263.5 404.72" opacity="0.2"/><path d="M200.84,369.52s-15.66,42.76,23.78,45.17c0,0,22.58,2.71,71.66-22.58,0,0,38.52,65.07,44.24,73.2l27.12-13L327.9,369.52s-5.34-17.45-20.56-15.8l-15.68.92a30.65,30.65,0,0,0-6.32,1L224.27,372.2Z" fill="#2f2e41"/><rect x="84.64" y="138.46" width="242.29" height="167.56" rx="6.28" fill="#ccc"/><rect x="90.97" y="145.88" width="228.57" height="152.2" fill="#fff"/><path d="M240.56,243.78s-1.19-1.06-2.19-7.42a48.21,48.21,0,0,1-3.22-22.18s-.4-12.11,12.94-10.87c0,0,12.67-13.47,28,.55a11.34,11.34,0,0,1,1.2,1.3,12.9,12.9,0,0,0,5,4,12.28,12.28,0,0,1,3.65,2.09c1.73,1.45,3.45,3.74,2.71,6.8,0,0-.69,6.88-10.19,7l-10.59,3-12.38.55Z" fill="#2f2e41"/><path d="M236,252.28l7.45-13.81s-8.17-.22-7.14-9.34a6.15,6.15,0,0,1,4.08-5.27c2.57-.82,6,.13,8.55,8.61,0,0,2.89-.68,4.26-7.84,0,0,10.18,2.07,14.72-1.65a10.55,10.55,0,0,0,5-8.25s6.47,2.06,5.64,10.31l-1.1,20.37s-1.78,12.24-14.3,10.86l1.1,11.35-3.74,5c-1.57,2.11-4.14,4.1-6.77,4.13a31.16,31.16,0,0,1-7.33-.74c-5.3-1.19-9.19-6.29-10-11.66l-1.15-7.77A6.92,6.92,0,0,1,236,252.28Z" fill="#f9b499"/><path d="M167.19,331.33H145a4.48,4.48,0,0,0-4.27,5.8l9.43,30.49a5.24,5.24,0,0,0,5,3.69L232,369.2Z" fill="#ccc"/><path d="M445.36,352.81h13L454.64,538.9a3.63,3.63,0,0,1-3.63,3.56h0a3.63,3.63,0,0,1-3.64-3.59Z" fill="#ccc"/><path d="M639.6,412.61H627.12L602,539.6a2.4,2.4,0,0,0,2.35,2.86h0a2.39,2.39,0,0,0,2.31-1.79Z" fill="#ccc"/><path d="M671.27,412.61h12.48l25.11,127a2.39,2.39,0,0,1-2.35,2.86h0a2.39,2.39,0,0,1-2.31-1.79Z" fill="#ccc"/><polygon points="520.49 508.36 532.6 484.01 559.53 485.52 548.74 508.36 520.49 508.36" fill="#f9b499"/><polygon points="594.41 509.46 586.71 485.8 614.04 485.8 619.62 509.46 594.41 509.46" fill="#f9b499"/><path d="M660.19,206.47s1.53-11.07,13-8.58a7.24,7.24,0,0,1,4.47,2.94c1.42,2.12,2.6,5.72,0,10.74,0,0-4,7.93-15.1,7Z" fill="#2f2e41"/><ellipse cx="657.01" cy="212.92" rx="6.94" ry="8.53" transform="matrix(0.99, -0.17, 0.17, 0.99, -26.15, 111.46)" fill="#686175" data-primary="true"/><path d="M618.44,222s-8.8-15,9-16c0,0,18-12.47,29.72,6.79,0,0,5.87,16,12.66,17.79,0,0,14.85,5.14,12.84,16.88,0,0,1.28,10.63,15.77,10.63,0,0-3.67,9.54-20.36,15.41l-61.79-2.76s-7.55-1.82-10.67-9.16c0,0-5.68-2.75-8.07-2.57,0,0,.41-5,7.32-9.71a24.14,24.14,0,0,0,7.84-8.57A47.94,47.94,0,0,0,618.44,222Z" fill="#2f2e41"/><path d="M630.92,261.46c-1.1,2.93-2.85,2.09-2.85,2.09l-8.16,8.36,1.29,18.9s15.59,4.22,16.32,4,19.81-2.38,19.81-2.38L665,265.68C647.5,259.6,650.36,242,650.36,242a4.15,4.15,0,0,0,1.88-.93,7.24,7.24,0,0,0,2.46-7.71,6.63,6.63,0,0,0-5.26-4.56C642.29,226.42,641,236,641,236c-3.86-1.84-2.75-8.26-2.75-8.26-9.91-2.56-13.21-13.39-13.21-13.39-4.22-.36-6.61,7.71-6.61,7.71a47.77,47.77,0,0,1-2.3,10.9c-3.23,12.74.65,17.9.65,17.9,4,5,9.32,5.21,13.78,4.1Z" fill="#f9b499"/><path d="M640,251.37s-1.47,15.05-13.56,16.89l1.68-4.71s1.75,1.21,2.85-2.09l-.35-6.54S633.57,255.77,640,251.37Z" fill="#f9a88f"/><path d="M627.72,289.41s29.42,8.12,31.9-26.34a37.68,37.68,0,0,0,5.42,2.61l-7.71,26.78-19.81,2.38-11.13-2.65Z" fill="#f9a88f"/><path d="M656.33,211.57a7.22,7.22,0,0,0,7.64,1.35,7.89,7.89,0,0,1-3.35,7.55S658,214.89,656.33,211.57Z" opacity="0.2"/><polygon points="467.11 343.91 485.38 316.12 513.34 316.12 496.3 343.91 467.11 343.91" fill="#ccc"/><path d="M530.81,328.64c-1.93,2.34-5.15.69-5.15.69a50.05,50.05,0,0,0-11.54-3,22.94,22.94,0,0,0-14.13,2.9l-8.79,5c-1.54.87-3.14,1.63-4.72,2.42-1.28.63-1.1,1.33-1.1,1.33.25,1.79,3.41.83,3.41.83V340h7.5s11.54-7.73,19.8-7.46c0,0-3.12,1.67-6.1,2.92-1,.43-2,.78-3.07,1.11-1.4.45-4.78,1.71-4.76,3.43h21.52l0,2s2.21,1.29,11.84-3.39Z" fill="#f9b499"/><rect x="339.31" y="138.46" width="111.9" height="167.56" rx="6.33" fill="#ccc"/><rect x="346.99" y="145.24" width="97.31" height="152.2" fill="#fff"/><path d="M359.81,159.19H398v43.93s.55,6.42,2.93,8.26h-37.6s-3.65-1.47-3.48-9.36Z" fill="#ccc"/><rect x="366.04" y="168.27" width="26.6" height="1.1" opacity="0.2"/><rect x="366.04" y="174.69" width="26.6" height="1.1" opacity="0.2"/><rect x="366.04" y="181.11" width="26.6" height="1.1" opacity="0.2"/><rect x="366.04" y="187.53" width="26.6" height="1.1" opacity="0.2"/><rect x="366.04" y="192.85" width="26.6" height="1.1" opacity="0.2"/><rect x="375.94" y="154.33" width="5.32" height="9.17" fill="#a7a9ac"/><path d="M379.34,179.28l-.74,41.09s.28,6,4.68,7.15h33.39a15.56,15.56,0,0,1-2.57-9.17V179.28Z" fill="#ccc"/><path d="M379.34,179.28l-.74,41.09s.28,6,4.68,7.15h33.39a15.56,15.56,0,0,1-2.57-9.17V179.28Z" fill="#231f20" opacity="0.2"/><rect x="112.61" y="162.89" width="31.67" height="39.2" opacity="0.2"/><circle cx="144.47" cy="202.55" r="17.95" opacity="0.2"/><rect x="211.59" y="160.93" width="46.59" height="5.14" rx="2.57" opacity="0.2"/><rect x="211.59" y="172.31" width="46.59" height="5.14" rx="2.57" opacity="0.2"/><rect x="211.59" y="184.32" width="46.59" height="5.14" rx="2.57" opacity="0.2"/><rect x="211.59" y="195.7" width="46.59" height="5.14" rx="2.57" opacity="0.2"/><circle cx="203.01" cy="163.82" r="2.89" opacity="0.2"/><circle cx="203.01" cy="174.88" r="2.89" opacity="0.2"/><circle cx="203.01" cy="186.89" r="2.89" opacity="0.2"/><circle cx="203.01" cy="198.26" r="2.89" opacity="0.2"/><rect x="112.61" y="236.36" width="93.28" height="46.92" opacity="0.2"/><path d="M112.61,247.88c16.23-5.5,22.3,5.87,22.3,5.87a27.71,27.71,0,0,0,20.51,12.06A28.1,28.1,0,0,0,167,264.17c7.27-2.58,29.31-7.79,38.89,19.11H112.61Z" opacity="0.2"/><path d="M447.52,317.87H553.3a3.71,3.71,0,0,0,3.37-5.26L523.11,241.5a3.7,3.7,0,0,0-3.36-2.15h-108a3.7,3.7,0,0,0-3.37,5.24l34.25,73.28Z" fill="#ccc"/><path d="M447.52,317.87H553.3a3.71,3.71,0,0,0,3.37-5.26L523.11,241.5a3.7,3.7,0,0,0-3.36-2.15h-108a3.7,3.7,0,0,0-3.37,5.24l34.25,73.28Z" opacity="0.2"/><path d="M447.52,317.87l-35.79-78.52s-5.64.39-3.37,5.24l34.25,73.28Z" fill="#ccc"/><path d="M447.52,317.87l-35.79-78.52s-5.64.39-3.37,5.24l34.25,73.28Z" fill="#fff" opacity="0.3"/><path d="M436.49,304.79l4.06-2.2H551.94l4.73,10c1,2.28-.71,5.26-3.21,5.26H442.61Z" fill="#fff" opacity="0.3"/><polygon points="425.42 246.04 447.52 295.56 536.4 295.56 514.94 246.04 425.42 246.04" fill="#fff"/><polygon points="460.76 295.56 439 246.04 425.42 246.04 447.52 295.56 460.76 295.56" fill="#ccc" opacity="0.71"/><polygon points="464 251.66 517.37 251.66 514.94 246.04 461.62 246.04 464 251.66" fill="#ccc" opacity="0.71"/><polygon points="469.12 255.39 471.05 259.66 475.54 259.66 473.66 255.39 469.12 255.39" opacity="0.2"/><polygon points="432.57 251.78 434.5 256.05 439 256.05 437.12 251.78 432.57 251.78" opacity="0.2"/><polygon points="435.44 258.08 437.37 262.34 441.86 262.34 439.98 258.08 435.44 258.08" opacity="0.2"/><polygon points="438.4 264.4 440.33 268.67 444.82 268.67 442.94 264.4 438.4 264.4" opacity="0.2"/><polygon points="441.1 270.46 443.02 274.72 447.52 274.72 445.64 270.46 441.1 270.46" opacity="0.2"/><polygon points="443.63 276.51 445.56 280.78 450.06 280.78 448.18 276.51 443.63 276.51" opacity="0.2"/><polygon points="476.83 256.7 476.32 255.39 487.08 255.39 487.56 256.7 476.83 256.7" opacity="0.2"/><polygon points="477.88 259.38 477.38 258.08 510.46 258.08 510.95 259.38 477.88 259.38" opacity="0.2"/><polygon points="488.8 256.7 488.29 255.39 499.05 255.39 499.53 256.7 488.8 256.7" opacity="0.2"/><g opacity="0.2"><polygon points="473.25 264.4 475.18 268.67 479.67 268.67 477.79 264.4 473.25 264.4"/><polygon points="480.95 265.71 480.45 264.4 491.2 264.4 491.69 265.71 480.95 265.71"/><polygon points="482.01 268.39 481.51 267.09 514.59 267.09 515.07 268.39 482.01 268.39"/><polygon points="492.92 265.71 492.42 264.4 503.17 264.4 503.65 265.71 492.92 265.71"/></g><g opacity="0.2"><polygon points="477.13 273.42 479.05 277.68 483.55 277.68 481.67 273.42 477.13 273.42"/><polygon points="484.83 274.72 484.33 273.42 495.08 273.42 495.56 274.72 484.83 274.72"/><polygon points="485.88 277.4 485.38 276.1 518.47 276.1 518.95 277.4 485.88 277.4"/><polygon points="496.8 274.72 496.3 273.42 507.05 273.42 507.53 274.72 496.8 274.72"/></g><g opacity="0.2"><polygon points="480.53 282.43 482.46 286.69 486.95 286.69 485.07 282.43 480.53 282.43"/><polygon points="488.24 283.73 487.73 282.43 498.49 282.43 498.97 283.73 488.24 283.73"/><polygon points="489.29 286.42 488.79 285.11 521.87 285.11 522.36 286.42 489.29 286.42"/><polygon points="500.21 283.73 499.7 282.43 510.45 282.43 510.94 283.73 500.21 283.73"/></g><rect x="428.95" y="343.91" width="251.76" height="11.29" rx="5.64" fill="#ccc"/><rect x="612.13" y="398.78" width="95.47" height="15.92" rx="7.96" fill="#ccc"/><rect x="612.13" y="398.78" width="95.47" height="15.92" rx="7.96" opacity="0.2"/><rect x="428.95" y="343.91" width="93.84" height="11.29" rx="5.64" opacity="0.2"/><circle cx="777.51" cy="393.92" r="3.85" fill="#ccc"/><rect x="711.35" y="141.02" width="63.91" height="75.73" fill="#ccc"/><rect x="716.89" y="146.93" width="53.56" height="64.65" opacity="0.2"/><path d="M770.46,162.22C759,156.91,748.74,179,745.94,185.66a9.55,9.55,0,0,1-3.94,4.61,6.6,6.6,0,0,1-7.38-.12s-12.19-7.39-17.73,2.59v18.83h53.57Z" fill="#939598"/><circle cx="737.53" cy="166.03" r="5.91" fill="#939598"/><path d="M623.75,360.29c-8.2,9-43,26.24-43,26.24-6.56,2.46-11.89,12.25-11.89,12.25l-46,89.4h48.09l38.53-63.95s4.51-4.5,8.6-5.32l47-21a21.07,21.07,0,0,0,12.42-16.48c1.13-8.86-1.68-21.7-17.54-37.55A41.9,41.9,0,0,1,617.19,341l-.82,2.88s-3.06,6.33-53,29.44c0,0-22.56,8.44-14.67,33.39,0,0,16.51,49.88,32.65,81.44h46l-18.89-66.59Z" fill="#2f2e41"/><polygon points="517 514.05 520.49 508.36 548.74 508.36 545.44 514.05 517 514.05" fill="#2f2e41"/><polygon points="517 514.05 520.49 508.36 548.74 508.36 545.44 514.05 517 514.05" opacity="0.2"/><polygon points="594.41 509.46 596.43 515.15 621.42 515.15 619.62 509.46 594.41 509.46" fill="#2f2e41"/><polygon points="594.41 509.46 596.43 515.15 621.42 515.15 619.62 509.46 594.41 509.46" opacity="0.2"/><path d="M545.44,514.05S532.05,540.46,530,543.4h-6.24s2.77-5.51-1-5.69c0,0-3.53.3-8.81,4.28a6.86,6.86,0,0,1-4.15,1.41H485.09s-.88-8.34,10.55-10.26a25.39,25.39,0,0,0,16.26-9.62,37.66,37.66,0,0,0,5.11-9.47Z" fill="#686175" data-primary="true"/><path d="M523.42,537.8c2.89,1.43.37,5.6.37,5.6H530l12.72-24.08c-5.91,7.9-27.5,16.95-27.5,16.95-16.88,7.22-30.18,5.69-30.18,5.69l0,1.44h24.74a8.43,8.43,0,0,0,5.42-2.32S521.49,536.93,523.42,537.8Z" opacity="0.2"/><path d="M579.24,543.4s1-6.47,5.64-7.57c0,0,12.1-3.3,12.52-11l-1-9.67h25l5.83,28.25H618s1.1-6.88-2.06-5.37l-5,3.59a9.29,9.29,0,0,1-5.48,1.78Z" fill="#686175" data-primary="true"/><path d="M567.82,386.38l43.46,19.26a12.2,12.2,0,0,1,6.8,9.06l37.42-18.05s1.47-9.72-10.82-16l-36.14-16Z" fill="#a7a9ac"/><path d="M195.7,362.89v9.63l16.06,1.24a96.11,96.11,0,0,0,21.7-2.47c3.62-.84,8-3,11.42-4,0,0,29-8.47,39.62-11.2v-27.6s21.59,33.06,37.16,16.94c0,0,32.79-34.38,41.54-47.38,0,0-13-11.14-18.44-14.07,0,0-29.35,20.88-35.22,26.21,0,0-11.06-22.84-19.05-35.81a23.18,23.18,0,0,0-22.47-11c-.34,0-1-.21-1,.14-.88,8.43-7.87,11.25-11.46,12.15a12.79,12.79,0,0,1-3.6.39c-15.87-.56-23.71-15-23.71-15s-11-3-20.9-1.34A19.62,19.62,0,0,0,194,268.84c-5.18,8.47-17.56,30.09-30.25,62.49,0,0-8.91,20.88,8.46,30.17a25.31,25.31,0,0,0,10.26,2.84c10.4.69,41,1.86,69-5.48l10.11-1.37V335.63l-63.39-1.91,10.11-39.35L192.7,355C192.19,357.58,195.7,360.21,195.7,362.89Z" fill="#f48225" data-secondary="true"/><path d="M348.7,286.52s4.5-2.59,4.5-7.55a20,20,0,0,1,4.68-11.35,24.66,24.66,0,0,0,1.9-7.65.71.71,0,0,1,.94-.63c1.31.51,3.36,2.54,1.65,10.63l14.23-15.19a1,1,0,0,1,1.55.05h0a1,1,0,0,1,.09,1.18l-8,13.3.91,1.15,12.09-13.16a1.34,1.34,0,0,1,1.93-.05h0a1.36,1.36,0,0,1,.14,1.77l-10.85,14.54,1.1,1.16,13.78-10.62a.77.77,0,0,1,1.15.24h0a.77.77,0,0,1-.14.94l-13,12.5L378.6,279l11.59-7.05a.85.85,0,0,1,1.09.17h0a.86.86,0,0,1,.05,1.06,36.24,36.24,0,0,1-10.09,9.2,51.17,51.17,0,0,0-6.57,4.77,34.14,34.14,0,0,1-6.16,4.35c-2.8,1.45-3,1.16-5.52,3.07l-2.1,1.6Z" fill="#f9b499"/><polygon points="331.46 468.28 367.64 452.33 376.31 468.28 341.09 484.79 331.46 468.28" fill="#2f2e41"/><polygon points="331.46 468.28 367.64 452.33 376.31 468.28 341.09 484.79 331.46 468.28" fill="#fff" opacity="0.4"/><polygon points="235.43 495.52 241.21 478.18 278.36 489.46 272.3 506.52 235.43 495.52" fill="#2f2e41"/><polygon points="235.43 495.52 241.21 478.18 278.36 489.46 272.3 506.52 235.43 495.52" fill="#fff" opacity="0.4"/><path d="M351.13,488.23l16.51,29.44,56.41-24.77s-2.75-7.29-8-7.15c0,0-24.9.68-31.5,0l-5.64-11.69S364.2,478.6,364.41,491C364.41,491,360.63,484.65,351.13,488.23Z" fill="#f48225" data-secondary="true"/><g opacity="0.2"><polygon points="365.5 513.85 365.19 513.29 421.59 488.73 422 489.25 365.5 513.85"/></g><path d="M239.85,506.52l-8.59,31.56a4.25,4.25,0,0,0,4.1,5.36h63.45a7,7,0,0,0,.38-.88,7.37,7.37,0,0,0-5-9.47L265.89,525l3.26-8.71a2.83,2.83,0,0,0-1.86-3.72c-4.37-1.28-12.89-2.64-19.63,3.18C247.66,515.73,247.48,507.92,239.85,506.52Z" fill="#f48225" data-secondary="true"/><g opacity="0.2"><polygon points="299.38 538.4 231.19 538.4 231.35 537.76 299.18 537.76 299.38 538.4"/></g><g opacity="0.2"><polygon points="258.99 531.01 258.66 530.46 267.21 525.36 268.06 525.6 258.99 531.01"/></g><g opacity="0.2"><polygon points="265.6 533.05 265.27 532.5 273.98 527.3 274.83 527.54 265.6 533.05"/></g><rect x="472.33" y="339.95" width="53.32" height="3.96" rx="1.98" fill="#939598"/><path d="M246.15,274.86a10.77,10.77,0,0,0,5,1.19,9.64,9.64,0,0,0,5.75-1.19c.87,29.79.9,30.9,1.77,60.69l-12.74-.39Z" fill="#fff"/><path d="M250,276l.28,59.35-4.42-.14.26-59.93c.61.13,1.23.26,1.87.38S249.37,275.85,250,276Z" opacity="0.2"/><path d="M311,350.56l27.17-47.47h35.22a2.42,2.42,0,0,1,0,2.93H343.38a3.79,3.79,0,0,1-2.46-.83l-28.26,48.42H266.43v-3.05Z" fill="#2f2e41"/><path d="M311,350.56l27.17-47.47h35.22a2.42,2.42,0,0,1,0,2.93H343.38a3.79,3.79,0,0,1-2.46-.83l-28.26,48.42H266.43v-3.05Z" opacity="0.4"/><polygon points="345.49 353.61 312.66 353.61 340.92 305.19 373.43 306.02 345.49 353.61" fill="#2f2e41"/><path d="M317.91,344.62s22.76,1.65,42.41-16.27l-14.83,25.26H312.66Z" opacity="0.2"/><ellipse cx="346.04" cy="328.59" rx="2.57" ry="1.83" transform="translate(-116.8 444.74) rotate(-57.61)" opacity="0.2"/><path d="M284.58,320s15.27,22.55,29.74,24.85l-2.89,5.06S300.28,351,284.5,328.53Z" opacity="0.2"/><path d="M286.06,313V291.49S295.83,297.27,286.06,313Z" opacity="0.2"/><path d="M214,293.83h23.66v15.24a7.06,7.06,0,0,1-7.06,7.07H221a7.07,7.07,0,0,1-7.07-7.07Z" opacity="0.2"/><rect x="262.32" y="293.83" width="20.39" height="5.98" rx="2.99" opacity="0.2"/><path d="M662.88,312.82c-4.26,26.55-10.18,32.74-10.18,32.74-6.88,7.16-43.89,29.44-43.89,29.44,3.31,5,17.06,14,17.06,14l45.4-25a25.43,25.43,0,0,0,13.21-14.45c10.93-32.9,10.37-57.44,10-63.53a17,17,0,0,0-.44-3.18c-4.24-17.27-32.13-18.63-32.13-18.63.82,29.25-24.77,28.25-24.77,28.25-21.73.27-9.08-28.91-9.08-28.91-21.7.45-31,22.7-33.44,29.84a28.38,28.38,0,0,1-3,6.36c-3.91,6-7,6.46-7,6.46l-56.68,20.37,8.48,17.33L591.75,330s18.44-5.1,20.09-15c0,0,2.94,1.65,2.94,6.6,0,0,.41,19.18,2,20.74,0,0,11.42,10.34,35.56,6,0,0,5.14-.55,13-36.32" fill="#686175" data-primary="true"/><path d="M621.59,384.77c-.52,7.22-11,14-11,14-2.61,1.43-2.2,3.68-1.51,5.18a2,2,0,0,1-1.46,2.73,6.22,6.22,0,0,1-4.37-1.42c-3.67,1.28-5.69-2.39-5.69-2.39-5.5,1.11-6-2.75-6-2.75l-.06,0a3.16,3.16,0,0,1-4.48-2,5,5,0,0,1,2.15-5.35l23-16.51Z" fill="#f9b499"/><path d="M580.11,540.29s33.54-.61,44.15-11l2.91,14.13H618s1-4.48-.94-5.54c0,0-.89-.48-3.53,1.9l-2.9,2.09a9.24,9.24,0,0,1-4.36,1.51l-27.07,0A8.47,8.47,0,0,1,580.11,540.29Z" opacity="0.2"/><path d="M177.69,360.59c2.2-4.83,10.07-20.84,20.47-26.87l63.39,1.91v21.86a84.22,84.22,0,0,1-10.11,1.37s-19.89,5.87-48.68,6c0,0-18.08.71-25.68-1.39h0A7,7,0,0,1,177.69,360.59Z" opacity="0.2"/><path d="M247,279l3-12.38s-8.19-2.49-12.18-7.07a6.66,6.66,0,0,1-.11-8.56l0-.05s-5.5-1.38-8.66,6.88a7.82,7.82,0,0,0-.55,3.21,13.88,13.88,0,0,0,2.8,8.42C233.8,272.72,238.53,277.17,247,279Z" fill="#f48225" data-secondary="true"/><path d="M247,279l3-12.38s-8.19-2.49-12.18-7.07a6.66,6.66,0,0,1-.11-8.56l0-.05s-5.5-1.38-8.66,6.88a7.82,7.82,0,0,0-.55,3.21,13.88,13.88,0,0,0,2.8,8.42C233.8,272.72,238.53,277.17,247,279Z" opacity="0.2"/><path d="M256.76,279l-1.24-12s7.84-1.52,7.57-10.74c0,0,4.4,1.38,4.81,8C267.9,264.25,267.21,272.78,256.76,279Z" fill="#f48225" data-secondary="true"/><path d="M256.76,279l-1.24-12s7.84-1.52,7.57-10.74c0,0,4.4,1.38,4.81,8C267.9,264.25,267.21,272.78,256.76,279Z" opacity="0.2"/><path d="M245.89,366.35v-6.11s4.55-1,5.55-1.38c0,0,4.85-.46,7.19-.85l.4,4.42Z" fill="#fff"/><polygon points="249.92 359.86 249.96 365.13 245.89 366.35 245.89 360.24 249.96 359.24 249.92 359.86" opacity="0.2"/><polygon points="461.62 246.04 482.52 295.56 460.76 295.56 439 246.04 461.62 246.04" fill="#ccc"/><polygon points="446.31 252.97 445.81 251.66 459.31 251.66 459.8 252.97 446.31 252.97" opacity="0.2"/><polygon points="448.51 258.73 448.01 257.42 461.52 257.42 462 258.73 448.51 258.73" opacity="0.2"/><polygon points="451.72 264.86 451.22 263.55 464.73 263.55 465.21 264.86 451.72 264.86" opacity="0.2"/><polygon points="453.93 270.62 453.42 269.31 466.93 269.31 467.41 270.62 453.93 270.62" opacity="0.2"/><polygon points="456.65 276.03 456.14 274.72 469.65 274.72 470.13 276.03 456.65 276.03" opacity="0.2"/><polygon points="458.85 281.79 458.35 280.48 471.85 280.48 472.33 281.79 458.85 281.79" opacity="0.2"/><path d="M261.55,348.31s7.37,5,20.78-.93c0,0,7.77-2.77,11.38,0l4.7,2.92s6.85,1.35,6.77-2.07a7.8,7.8,0,0,0,4.8.13l-13.2-8.55s-4-3-14.09-3.64l-21.14-.54Z" fill="#f9b499"/><rect x="740.89" y="169.19" width="64.11" height="74.57" fill="#ccc"/><rect x="740.89" y="169.19" width="64.11" height="74.57" fill="#ccc"/><rect x="746.94" y="174.69" width="52.55" height="63.84" fill="#fff"/><rect x="750.64" y="184.28" width="45.15" height="1.28" fill="#ccc"/><rect x="750.64" y="188.95" width="45.15" height="1.28" fill="#ccc"/><rect x="750.64" y="203.63" width="45.15" height="1.28" fill="#ccc"/><rect x="750.64" y="194.27" width="45.15" height="1.28" fill="#ccc"/><rect x="750.64" y="198.95" width="45.15" height="1.28" fill="#ccc"/><rect x="750.64" y="208.31" width="45.15" height="1.28" fill="#ccc"/><rect x="750.64" y="212.98" width="45.15" height="1.28" fill="#ccc"/><rect x="750.64" y="227.66" width="45.15" height="1.28" fill="#ccc"/><rect x="750.64" y="218.3" width="45.15" height="1.28" fill="#ccc"/><rect x="750.64" y="222.98" width="45.15" height="1.28" fill="#ccc"/><path d="M86.92,484a108.54,108.54,0,0,1-13.13-.26c-6.68-.42-7.52-1.86-7.52-1.86a40.6,40.6,0,0,0-9.11,10.53c-10.22,16.53-7,38.25,8.23,50.34l.88.67H96.76s6.83-1.82,12.78-9.34c8.73-11,9-26.44,1.37-38.25a63.72,63.72,0,0,0-12.25-14S98.41,483.79,86.92,484Z" fill="#2f2e41"/><g opacity="0.2"><path d="M102.43,540.66a72.11,72.11,0,0,1-14.11-3.8,39.07,39.07,0,0,1-25-43.73,23.91,23.91,0,0,1,4.31-10.47l.5.39a23.43,23.43,0,0,0-4.18,10.2,38.44,38.44,0,0,0,24.61,43,80.11,80.11,0,0,0,14.56,3.94Z"/></g><g opacity="0.2"><path d="M106.77,500.49c-8.53,0-18.81-5.74-22.32-7.87-.7-.42-1.25-.73-1.78-1A39.57,39.57,0,0,0,60,488.41l.51-.65a38.27,38.27,0,0,1,22.47,3.3,20.5,20.5,0,0,1,1.85,1c3.08,1.87,18.92,11,27.74,6.57l.29.58A13.49,13.49,0,0,1,106.77,500.49Z"/></g><g opacity="0.2"><path d="M51.27,514.18v-.64c19-3.41,25.21-8.13,27.14-11.5a4.11,4.11,0,0,0,.63-3.29l0-.07a4.09,4.09,0,0,0-1.73-2.77c-5.35-4-21-1.71-21.16-1.69l.38-.69c.65-.1,15.6-2.3,21.17,1.86A5.29,5.29,0,0,1,79,502.32C77,505.82,70.55,510.72,51.27,514.18Z"/></g><g opacity="0.2"><path d="M51.71,507.2l.11-.64c10.76-.7,12.76-4.5,13.15-6.1a1,1,0,0,0,0-.62c-1-2.62-8.05-2.24-10.64-1.87l.29-.67c.4-.05,9.63-1.32,10.95,2.32a1.75,1.75,0,0,1,0,1C65.17,502.35,62.9,506.48,51.71,507.2Z"/></g><g opacity="0.2"><path d="M52.83,524.1l-.18-.64c.06,0,5.91-2.45,12.46-5.56a53.28,53.28,0,0,0,5.78-3.18c4.13-2.62,14.93-8.22,26-3.78.54.22,1,.48,1.51.72,2.28,1.2,10.41,4.77,17.92.71l0,.66c-7.79,4.21-15.92.43-18.27-.8a13.89,13.89,0,0,0-1.45-.69c-10.8-4.33-21.38,1.16-25.42,3.72a54.58,54.58,0,0,1-5.85,3.22C58.82,521.6,52.89,524.07,52.83,524.1Z"/></g><g opacity="0.2"><path d="M61.6,539.3l-.5-.53c.1-.22,10.4-20.9,30.77-20.55a26.23,26.23,0,0,1,12.58,3.66c2.92,1.69,7.27,3.44,10.34,2.38l-.22.73c-3.25.94-7.4-.8-10.44-2.56a25.68,25.68,0,0,0-12.27-3.57C71.94,518.5,61.7,539.1,61.6,539.3Z"/></g><g opacity="0.2"><path d="M76.33,543.45h-.71c.06-.13,6-12.89,17.09-16.22,6-1.8,12.44-.59,19.11,3.6l-.34.54c-6.51-4.08-12.76-5.27-18.58-3.52C82.09,531.07,76.39,543.32,76.33,543.45Z"/></g><path d="M98.66,482.09c0,1.32-7.25,2.39-16.19,2.39s-16.34-.94-16.34-2.26,7.39-2.52,16.34-2.52S98.66,480.77,98.66,482.09Z" fill="#2f2e41"/><path d="M98.66,482.09c0,1.32-7.25,2.39-16.19,2.39s-16.34-.94-16.34-2.26,7.39-2.52,16.34-2.52S98.66,480.77,98.66,482.09Z" opacity="0.2"/><path d="M34.88,417.8c5.42,7.29,18.77,23.92,35.47,35.43,0,0-8.15-28.65-16.2-46.6,0,0-6.45-17-19.67-9.75,0,0-4.84,1.57-3.92,10.14A22,22,0,0,0,34.88,417.8Z" fill="#2f2e41"/><path d="M118.32,396.18c-3.27,8.48-11.65,28.09-24.66,43.66,0,0,.16-29.79,3.1-49.25,0,0,1.65-18.07,16.32-14.67,0,0,5.09.22,6.5,8.72A22,22,0,0,1,118.32,396.18Z" fill="#2f2e41"/><path d="M79.46,421.39s-34-39.21-35.07-68.6a14.12,14.12,0,0,1,6.28-12.51,12.23,12.23,0,0,1,11.55-.95A18.84,18.84,0,0,1,72,348.25C76.49,356.88,83.42,377.78,79.46,421.39Z" fill="#2f2e41"/><path d="M125.59,419.43c-3.85,1.47-12.51,6.57-18.83,23.63,0,0-4.48,14.31-5,23.75,0,0,24.94-15.32,30.62-34.21,0,0,2.92-9.13-1.61-12.55A5.36,5.36,0,0,0,125.59,419.43Z" fill="#2f2e41"/><polygon points="63.9 371.42 63.29 371.2 71.76 347.87 72.16 348.64 63.9 371.42" fill="#2f2e41"/><polygon points="68.53 387.82 47.22 367.69 46.87 366.55 68.97 387.35 68.53 387.82" fill="#2f2e41"/><path d="M86.12,479.81,79.3,422.75a14.41,14.41,0,0,0-.56-2.59L53.48,340.43l.61-.19L79.36,420a13.5,13.5,0,0,1,.56,2.58l6.84,57.12Z" fill="#2f2e41"/><polygon points="99.75 414.11 99.27 413.67 119.61 391.37 119.39 392.56 99.75 414.11" fill="#2f2e41"/><polygon points="101.42 404.18 96.66 391.26 96.84 389.9 102.02 403.96 101.42 404.18" fill="#2f2e41"/><path d="M84.5,462.4l-.34-.54a16.31,16.31,0,0,0,6.5-9.33l2.69-12.76,14.44-64.15.68-.08L94,439.91l-2.7,12.75A16.56,16.56,0,0,1,84.5,462.4Z" fill="#2f2e41"/><polygon points="57.59 430.08 32.87 414.6 32.34 413.51 57.93 429.53 57.59 430.08" fill="#2f2e41"/><polygon points="53.31 420.96 52.67 420.91 53.88 405.98 54.42 407.24 53.31 420.96" fill="#2f2e41"/><path d="M85.24,472.5a16.59,16.59,0,0,1-9.15-7.56l-6-11.56-31.2-58,.57-.3,31.2,58,6,11.56a16.2,16.2,0,0,0,8.76,7.24Z" fill="#2f2e41"/><polygon points="112.91 449.36 112.27 449.3 114.27 428.75 115.01 427.8 112.91 449.36" fill="#2f2e41"/><polygon points="118.02 441.11 117.73 440.54 132.17 433.16 131.87 434.04 118.02 441.11" fill="#2f2e41"/><rect x="76.14" y="450.98" width="70.45" height="0.64" transform="translate(-330.81 307.92) rotate(-58.17)" fill="#2f2e41"/><g opacity="0.2"><polygon points="63.9 371.42 63.29 371.2 71.76 347.87 72.16 348.64 63.9 371.42"/><polygon points="68.53 387.82 47.22 367.69 46.87 366.55 68.97 387.35 68.53 387.82"/><path d="M86.12,479.81,79.3,422.75a14.41,14.41,0,0,0-.56-2.59L53.48,340.43l.61-.19L79.36,420a13.5,13.5,0,0,1,.56,2.58l6.84,57.12Z"/></g><g opacity="0.2"><polygon points="99.75 414.11 99.27 413.67 119.61 391.37 119.39 392.56 99.75 414.11"/><polygon points="101.42 404.18 96.66 391.26 96.84 389.9 102.02 403.96 101.42 404.18"/><path d="M84.5,462.4l-.34-.54a16.31,16.31,0,0,0,6.5-9.33l2.69-12.76,14.44-64.15.68-.08L94,439.91l-2.7,12.75A16.56,16.56,0,0,1,84.5,462.4Z"/></g><g opacity="0.2"><polygon points="57.59 430.08 32.87 414.6 32.34 413.51 57.93 429.53 57.59 430.08"/><polygon points="53.31 420.96 52.67 420.91 53.88 405.98 54.42 407.24 53.31 420.96"/><path d="M85.24,472.5a16.59,16.59,0,0,1-9.15-7.56l-6-11.56-31.2-58,.57-.3,31.2,58,6,11.56a16.2,16.2,0,0,0,8.76,7.24Z"/></g><g opacity="0.2"><polygon points="112.91 449.36 112.27 449.3 114.27 428.75 115.01 427.8 112.91 449.36"/><polygon points="118.02 441.11 117.73 440.54 132.17 433.16 131.87 434.04 118.02 441.11"/><rect x="76.14" y="450.98" width="70.45" height="0.64" transform="translate(-330.81 307.92) rotate(-58.17)"/></g></svg>