<svg id="b24786ec-4e8d-42a1-9686-f6acb92a4f91" data-name="Layer 1" xmlns="http://www.w3.org/2000/svg" width="865.76" height="682.89" viewBox="0 0 865.76 682.89"><path d="M856,400.59q-.3,3.56-.65,7.14-1.39,14.19-3.61,28.64c-.36,2.32-.73,4.64-1.12,7q-2.8,16.74-6.74,33.75-2.55,11-5.59,22-4.69,17.14-10.61,34.43c-.51,1.49-1,3-1.56,4.49q-7.35,20.91-16.52,42-7.95,18.21-17.32,36.44-4.11,8-8.51,16-4.14,7.51-8.51,15l-1.31,2.22,0,.06-17.88,0-588.46-1.29h-5.67s-1.58-1-4.43-3.07c-1.54-1.11-3.48-2.51-5.73-4.2-1-.72-2-1.5-3.08-2.33-6.27-4.79-14.4-11.32-23.59-19.41h0l-.72-.64c-2-1.74-4-3.54-6-5.42l-.92-.85-.46-.42-1.23-1.14-.28-.25-2.17-2q-6.28-5.94-12.89-12.66c-1.49-1.52-3-3.06-4.48-4.64l-.15-.16q-4.26-4.48-8.56-9.27L85.41,580l-.77-.88q-4.77-5.4-9.5-11.18c-.72-.87-1.43-1.74-2.14-2.63q-4.44-5.5-8.77-11.32l-.76-1,0,0c-.8-1.09-1.61-2.18-2.4-3.29s-1.71-2.37-2.55-3.57c-4.71-6.69-9.27-13.66-13.59-20.88q-4.09-6.84-7.88-14h0q-1.58-3-3.07-6C3.14,443.6-7.81,366.13,44.23,280.9a221.14,221.14,0,0,1,56.11-62.15q8.32-6.25,17-11.59A236,236,0,0,1,148.62,191c96-41,207.22-17.43,232.08-5.55,0,0,64.37-172.23,258-150.42,44.12,5,84,24.55,117.26,55.26a253.84,253.84,0,0,1,19.22,19.8q4.35,5,8.51,10.28,4.37,5.53,8.51,11.38c37.35,52.59,60.93,122.93,64.91,202.4A495.82,495.82,0,0,1,856,400.59Z" fill="#f7dfc8"/><path d="M783.72,120.4V632.45q-4.76,8.63-9.82,17.24l-55.8-.12-32.2-.07-105.44-.22-35.6-.07-383-.8s-5-3.31-13.24-9.6A457.46,457.46,0,0,1,100.34,596V218.75A231.06,231.06,0,0,1,148.62,191c96-41,207.22-17.43,232.08-5.55,0,0,8.77-23.46,29.57-52A266.41,266.41,0,0,1,443.44,96c40.61-37.91,103.39-71.25,195.29-60.9,44.12,5,84,24.55,117.26,55.26a248.87,248.87,0,0,1,17.93,18.34Q778.95,114.35,783.72,120.4Z" fill="#fbecdb"/><path d="M783.72,120.4v43.79l-445,65.59L773.92,108.66Q778.95,114.35,783.72,120.4Z" fill="#fff4e9"/><path d="M502.89,607h42v42.17l-383-.8s-5-3.31-13.24-9.6A457.46,457.46,0,0,1,100.34,596V309.63l.15-.18h1.6v73.67h38.59V264.55l1.46-1.41h9.37v-.06H206v.06h.05v17.77H206v12.22h.05V310.9H206v12.27h.05v17.77H206V341l5.78-.06V248H273v11.77h0v17.77h0v15.62h0V310.9h0v12.27h0v17.77h0v11.35h0v17.78h0v11.35h0v17.77h0v10.69h0v11.28h0v1.24h69V524.11h25.77v25.62h27.78V505.61h50V385.72h7.82V373.78h1.11v11.94h38.9V373.78h1.12v11.93h8.45Z" fill="#f8e7d4"/><polygon points="685.9 229.78 685.9 649.5 580.46 649.28 580.46 229.78 685.9 229.78" fill="#f8e7d4"/><path d="M783.72,290.36V632.45q-4.76,8.63-9.82,17.24l-55.8-.12V290.36Z" fill="#f8e7d4"/><path d="M117.37,207.16V612.49c-5.46-5-11.18-10.54-17-16.51V218.75Q108.67,212.5,117.37,207.16Z" fill="#e5bd9e"/><path d="M631.1,60.65,410.27,133.5A266.41,266.41,0,0,1,443.44,96Z" fill="#fff4e9"/><path d="M514.11,137.63a13.19,13.19,0,1,1,13.19,13.19A13.19,13.19,0,0,1,514.11,137.63Z" fill="#fff4e9"/><path d="M792.23,131.78V616.45q-4.11,8-8.51,16-4.14,7.51-8.51,15V110.12q4.35,5,8.51,10.28Q788.09,125.94,792.23,131.78Z" fill="#e5bd9e"/><path d="M838.24,499.14q-4.69,17.14-10.61,34.43c-.51,1.49-1,3-1.56,4.49q-7.35,20.91-16.52,42a71.28,71.28,0,0,1-11.34,2.8c-15.46,2.32-10.68-4-5.36-13.45s22.19-13.64,26-18-4.11-4.35-13.42-.1-10.59,15.6-25.53,22.76-37.42-17.64-37.42-17.64c11.91-.61,28.91-13.54,28.3-17.49s-28.87,6.82-33.7,7.34-15.81-5.49-17.51-24.94,30.18-24.88,30.18-24.88,31.64,23.52,37.81,22.1-23.12-25.4-23.12-25.4c11-5.3,45.28-2,45.28-2s11.41,36.8,17,33.9S815,493,815,493C823.34,492.49,832.92,496.5,838.24,499.14Z" fill="#599dad"/><path d="M827.63,533.57c-.51,1.49-1,3-1.56,4.49-13.47-7.38-39.75-14.55-90.81-16.23C735.26,521.83,796.85,519.46,827.63,533.57Z" fill="#599dad"/><path d="M61.05,549.61q-1.29-1.77-2.55-3.57c-4.71-6.69-9.27-13.66-13.59-20.88.36-13.47-.32-26.71-.32-26.71s45.11-21.69,62.81-20c0,0-28,47.39-18.84,46.25s40.54-49.1,40.54-49.1,46.26-8.57,53.68,18.84-4.57,41.11-11.42,42.83-50.82,1.14-49.68,6.85,30.83,14.85,47.4,9.71c0,0-18.28,45.11-42.26,42.82-21.69-2.06-29.84-14.41-42.18-17.59q-4.77-5.4-9.5-11.18c-.72-.87-1.43-1.74-2.14-2.63q-4.44-5.5-8.77-11.32Z" fill="#6bb7bf"/><path d="M64.23,554c18.86-14.28,49.15-31.4,97.4-50.92-1.31.43-61.06,19.93-100.58,46.58Z" fill="#599dad"/><path d="M850.57,443.35q-2.8,16.74-6.74,33.75c-15.34-.1-32.28-3.65-43.91-8.36-22.66-9.18-11.16-13.93,3.51-22.37C817,438.55,840.33,444.6,850.57,443.35Z" fill="#86d1cd"/><path d="M856,400.59q-.3,3.56-.65,7.14-1.39,14.19-3.61,28.64c-3.78-1.87-9.82-3.54-16.9-4.29-15.92-1.69-26.67,12.56-52.48,10.3S746,388.84,746,388.84c16.51,8.67,49.7,4.8,52-1s-44.29-13.8-51.2-16.94-16.93-20-3.73-47.53,60.45-9.46,60.45-9.46,23.86,56.86,33.3,59.86-10.9-52.6-10.9-52.6c7.85.68,19.84,6.46,31.23,13A495.82,495.82,0,0,1,856,400.59Z" fill="#86d1cd"/><path d="M763.75,336.54c.87.47,55.32,30,92.2,64q-.3,3.56-.65,7.14C838,389.2,809.59,365.72,763.75,336.54Z" fill="#6bb7bf"/><rect x="149.79" y="649.24" width="636.86" height="6" fill="#954e20"/><g id="a39ae00e-87a8-4c6a-97d9-984c5a39bbac" data-name="freepik--background-complete--inject-299"><rect x="250.15" y="262.1" width="109.77" height="151.81" fill="#dbdbdb"/><rect x="256.13" y="268.84" width="46.35" height="66.61" fill="#fff"/><rect x="307.58" y="268.84" width="46.35" height="66.61" fill="#fff"/><rect x="256.13" y="340.55" width="46.35" height="66.61" fill="#fff"/><rect x="307.58" y="340.55" width="46.35" height="66.61" fill="#fff"/><rect x="560.21" y="262.1" width="109.77" height="151.81" fill="#dbdbdb"/><rect x="566.19" y="268.84" width="46.35" height="66.61" fill="#fff"/><rect x="617.64" y="268.84" width="46.35" height="66.61" fill="#fff"/><rect x="566.19" y="340.55" width="46.35" height="66.61" fill="#fff"/><rect x="617.64" y="340.55" width="46.35" height="66.61" fill="#fff"/><path d="M206.64,298.45l10.8-.23,5.52-.06h5.9v.37l0,9.24v.41h-.42l-10.92-.12c-3.64,0-7.29-.09-10.93-.13h-.23v-.22c0-1.57.07-3.12.11-4.66Zm0,0,.12,4.66c0,1.54.09,3.06.1,4.57l-.22-.23c3.64,0,7.29-.13,10.93-.13l10.92-.08-.41.41v-9.23l.37.37c-1.8,0-3.6,0-5.4-.05l-5.43-.09Z" fill="#ebebeb"/><path d="M218.83,286.81l10.83-.2,5.5-.09H241v10h-.41l-10.92,0c-3.64,0-7.29-.1-10.93-.14h-.18v-.22c0-1.57.06-3.12.11-4.66Zm0,0,.11,4.67c.05,1.53.1,3,.11,4.56l-.22-.22c3.64,0,7.29-.14,10.93-.14l10.92-.05-.41.41,0-9.23.36.37c-1.8,0-3.6,0-5.4-.05l-5.46-.09Z" fill="#ebebeb"/><path d="M411.24,490.55l10.83-.23,5.49-.09c1.85,0,3.69,0,5.53,0h.37v.37l.05,9.23v.41h-.42l-10.92-.05c-3.65,0-7.29-.09-10.93-.14H411v-.22c0-1.57.07-3.13.11-4.66Zm0,0,.12,4.66c0,1.54.09,3.06.1,4.57l-.22-.22c3.64,0,7.28-.13,10.93-.14l10.92-.05-.41.41,0-9.23.37.37c-1.8,0-3.59,0-5.4-.05l-5.43-.09Z" fill="#ebebeb"/><path d="M423.43,478.89l10.83-.23,5.49-.09c1.84-.05,3.69,0,5.53-.05h.37v.37l.05,9.23v.41h-.42l-10.92,0c-3.65,0-7.29-.1-10.93-.15h-.23v-.22c0-1.57.07-3.13.11-4.66Zm0,0,.12,4.67c0,1.53.09,3.05.1,4.56l-.22-.22c3.64,0,7.28-.13,10.93-.14l10.92-.05-.41.41,0-9.23.37.37c-1.8,0-3.6,0-5.4-.05l-5.4-.07Z" fill="#ebebeb"/><path d="M194.45,286.81l10.83-.2,5.49-.09h5.9v.37l.05,9.23v.41h-.42l-10.92,0c-3.65,0-7.29-.1-10.93-.14h-.23v-.22c0-1.57.07-3.12.11-4.66Zm0,0,.12,4.67c0,1.53.09,3,.1,4.56l-.22-.22c3.64,0,7.28-.14,10.93-.14l10.92-.05-.41.41v-9.23l.37.37c-1.8,0-3.6,0-5.4-.05l-5.43-.09Z" fill="#ebebeb"/><path d="M490.32,350.61l-10.83.23-5.5.09c-1.84.05-3.69,0-5.53.05h-.36v-.37l-.05-9.23V341h.41l10.93,0c3.65,0,7.29.09,10.93.14h.23v.22c0,1.57-.08,3.13-.12,4.67Zm0,0L490.2,346c0-1.54-.09-3.06-.11-4.57l.23.22c-3.64,0-7.28.13-10.93.14l-10.93.05.42-.41,0,9.23-.38-.36h5.41l5.43.09Z" fill="#ebebeb"/><path d="M713.48,503.87l-10.82.22-5.5.1h-5.89v-.36l0-9.24v-.42h.41l10.93.05c3.64,0,7.29.09,10.92.13h.24v.23c0,1.56-.07,3.11-.11,4.66Zm0,0-.11-4.67c0-1.54-.09-3.06-.11-4.57l.22.23c-3.63,0-7.28.13-10.92.13l-10.93.06.42-.42,0,9.24-.37-.37c1.8,0,3.6,0,5.41,0l5.43.1Z" fill="#ebebeb"/><path d="M725.67,515.51l-10.82.22-5.5.1c-1.84,0-3.69,0-5.53,0h-.36v-.36l-.05-9.23v-.42h.41l10.93.05c3.65,0,7.28.09,10.92.13h.23v.22c0,1.56-.07,3.12-.1,4.66Zm0,0-.11-4.67c0-1.53-.09-3-.11-4.56l.22.22c-3.64,0-7.27.13-10.92.13l-10.93.05.41-.4v9.23l-.37-.37c1.8,0,3.6,0,5.41,0l5.43.1Z" fill="#ebebeb"/><path d="M228.68,515.51l-10.83.22-5.5.1c-1.84,0-3.68,0-5.52,0h-.37v-10h.42l10.93.05c3.64,0,7.27.09,10.92.13H229v.22c0,1.56-.07,3.12-.1,4.66Zm0,0-.12-4.67c0-1.53-.09-3-.11-4.56l.23.22c-3.64,0-7.28.13-10.92.13l-10.93.05.4-.4v9.23l-.36-.37c1.8,0,3.59,0,5.4,0l5.43.1Z" fill="#ebebeb"/><path d="M691.54,286.81l10.83-.2,5.5-.09h5.89v.37l0,9.23v.41h-.4l-10.93,0c-3.64,0-7.28-.1-10.92-.14h-.23v-.22c0-1.57.07-3.12.11-4.66Zm0,0,.12,4.67c0,1.53.09,3,.1,4.56l-.22-.22c3.64,0,7.28-.14,10.93-.14l10.94-.05L713,296v-9.23l.37.37c-1.8,0-3.6,0-5.41-.05l-5.43-.09Z" fill="#ebebeb"/><circle cx="403.15" cy="288.03" r="16.88" fill="#ebebeb" opacity="0.19" style="isolation:isolate"/><circle cx="403.14" cy="290.8" r="12.52" transform="translate(27 615.77) rotate(-76.63)" fill="#ebebeb" opacity="0.19" style="isolation:isolate"/><polygon points="421.57 290.81 409.91 310.68 396.38 310.68 384.71 290.81 421.57 290.81" fill="#ebebeb"/><polygon points="413.08 317.37 393.22 317.37 396.38 310.68 409.91 310.68 413.08 317.37" fill="#ebebeb"/><polygon points="412.02 307.09 409.91 310.68 396.37 310.68 394.78 307.96 412.02 307.09" fill="#c7c7c7"/><circle cx="460.06" cy="288.03" r="16.88" fill="#ebebeb" opacity="0.19" style="isolation:isolate"/><circle cx="460.07" cy="290.83" r="12.52" transform="translate(-80.07 223.75) rotate(-25.22)" fill="#ebebeb" opacity="0.19" style="isolation:isolate"/><polygon points="478.49 290.81 466.83 310.68 453.3 310.68 441.63 290.81 478.49 290.81" fill="#ebebeb"/><polygon points="470 317.37 450.13 317.37 453.3 310.68 466.83 310.68 470 317.37" fill="#ebebeb"/><polygon points="468.94 307.09 466.83 310.68 453.3 310.68 451.69 307.96 468.94 307.09" fill="#c7c7c7"/><circle cx="516.98" cy="288.03" r="16.88" fill="#ebebeb" opacity="0.19" style="isolation:isolate"/><circle cx="516.98" cy="290.81" r="12.52" transform="translate(-54.21 450.73) rotate(-45)" fill="#ebebeb" opacity="0.19" style="isolation:isolate"/><polygon points="535.41 290.81 523.75 310.68 510.21 310.68 498.55 290.81 535.41 290.81" fill="#ebebeb"/><polygon points="526.91 317.37 507.05 317.37 510.21 310.68 523.75 310.68 526.91 317.37" fill="#ebebeb"/><polygon points="525.86 307.09 523.75 310.68 510.21 310.68 508.62 307.96 525.86 307.09" fill="#c7c7c7"/></g><g id="b0597276-8781-4988-b071-b4c616e7b1ab" data-name="freepik--Shadow--inject-299"><ellipse cx="451.62" cy="589.63" rx="227.34" ry="22.41" fill="#ebebeb"/></g><g id="bcd2d3df-c8a8-4cf5-b735-c83e18ccc99d" data-name="freepik--Plant--inject-299"><path d="M671.41,460.68a58,58,0,0,1,1.86,10.52c-.1.18-.08.83,0,.66,0,.57.9.47.9-.1v-1.11c2.06-2.55,5-4.12,7.43-6.39a14,14,0,0,0,4.08-6.5c2-6.9.13-14.21,2.54-21.09,2.07-5.94,5.77-11.09,8.94-16.51,3.3-5.68,5.78-11.66,6-18.32.19-5.1-.42-11.89-4.3-15.68-4.12-4.05-9.21-1-12.37,2.6-9.14,10.49-13.36,23.75-15.08,37.3-.94,7.5-1.92,15.05-1.65,22.62A60.78,60.78,0,0,0,671.41,460.68Z" fill="#f48225" data-secondary="true"/><path d="M673.23,473.94a128.87,128.87,0,0,1,.25-21.25v-.09c-.12-5.77-.57-11.46-.35-17.21a102.73,102.73,0,0,1,2.53-18.47.07.07,0,0,1,.08,0l0,0a120.39,120.39,0,0,0-2,18.06c-.11,3.24-.09,6.48.08,9.73.06,1.06.16,2.12.22,3.18h0a113.52,113.52,0,0,1,17.06-45.18c.11-.19.44,0,.33.21a117.91,117.91,0,0,0-13.91,33.53c4.39-8.15,11-14.86,16-22.67,0,0,.1,0,.07,0-4.42,8.72-11.73,15.59-16.39,24.17q-1.22,5.25-2,10.58a118.4,118.4,0,0,0-1.06,14.69,167.59,167.59,0,0,0,7.64-15.07.12.12,0,0,1,.22.09c-1.87,5.5-4.37,11.42-7.88,16.11,0,3.48.09,7,.29,10.44.55,9.27,2.13,18.42,2.87,27.67a.22.22,0,0,1-.2.24.21.21,0,0,1-.23-.19h0A213,213,0,0,1,673.23,473.94Z"/><path d="M683.08,402.41c0-.06.13,0,.1,0-1.65,4.69-2.65,9.44-3.87,14.25a.19.19,0,0,1-.23.12.2.2,0,0,1-.12-.18C679.46,411.76,681.23,406.9,683.08,402.41Z"/><path d="M640.05,422.05a70.48,70.48,0,0,0,3.9,8c3,5.54,6.23,10.62,6.81,17.06a39.2,39.2,0,0,0,1.23,8.56,25.51,25.51,0,0,0,3.41,6.7c3.3,4.82,7.42,9,10.5,14a59,59,0,0,1,7,16.83c.08.32.59.24.51-.08V493c.48-13.83-.62-27.78-4.85-41a141.18,141.18,0,0,0-6.7-17.07,39.83,39.83,0,0,0-9.08-13c-2.57-2.32-8.16-6.72-11.82-4.39C639.23,418.55,639.35,420.3,640.05,422.05Z" fill="#f48225" data-secondary="true"/><path d="M654,453.41A113.67,113.67,0,0,0,662,465c1.34,1.75,2.7,3.48,4,5.23.62.82,1.33,1.65,1.91,2.54-.36-1.46-.72-2.91-1.09-4.37-1.78-7-3.5-14-6.16-20.76a139.57,139.57,0,0,0-9.61-18.83c-.09-.17.17-.28.26-.12,2.93,4.81,5.9,9.61,8.35,14.68a77.37,77.37,0,0,1,3.55,8.7,136,136,0,0,0-4.72-18.61c0-.05,0-.09.08,0a63.6,63.6,0,0,1,4.89,19.36h0q.91,2.69,1.65,5.44c2.18,7.74,4.13,15.56,5.87,23.4a83.13,83.13,0,0,0-1.39-15.34.1.1,0,0,1,.1-.09.09.09,0,0,1,.08.09,48.75,48.75,0,0,1,1.34,16.23q1,4.47,2,9c1.36,6.38,3,12.86,3.82,19.34a.13.13,0,0,1-.26,0c-1-3.49-1.52-7.1-2.29-10.64s-1.59-7.08-2.41-10.61c-1.2-5.15-2.48-10.29-3.74-15.42-.83-1.88-2.52-3.55-3.76-5.12-1.36-1.74-2.72-3.46-4-5.22a77.44,77.44,0,0,1-6.65-10.31C653.8,453.4,653.91,453.31,654,453.41Z"/><path d="M653.37,447.53a73.36,73.36,0,0,1,7.86,12.5c0,.06-.06.12-.09.06-2.65-4.13-5.26-8.33-7.9-12.48C653.17,447.53,653.32,447.43,653.37,447.53Z"/><path d="M712.26,435.15c-1.8,3.09-3.84,6.8-3.07,10.51.49,2.34,2.21,4.25,2.48,6.64.7,5.29-4.57,8.78-8.38,11.27-9.5,6.24-22.53,11.79-24.26,24.53-.06.44-.82.34-.82-.11a.11.11,0,0,1,0-.08s-.05,0-.05-.08a48.57,48.57,0,0,1,.18-19.44c1.42-6.56,4.28-12.45,7.66-18.22,5.72-9.75,11.77-19.74,20.41-27.23,2.4-2.07,7.3-5.78,9.2-1.12S714.46,431.4,712.26,435.15Z" fill="#f48225" data-secondary="true"/><path d="M703.57,455.85c-6.3,6.81-16.32,10.63-21.74,18.28a76.37,76.37,0,0,1,16.7-31.36.25.25,0,0,0,0-.35.23.23,0,0,0-.29,0,61.91,61.91,0,0,0-13.66,19.75,88,88,0,0,1,5.87-15,.16.16,0,1,0-.27-.16,57.35,57.35,0,0,0-6.34,16.9c-7.14,17.29-7.8,37.57-6.3,55.8a.2.2,0,0,0,.4,0c-.4-14.37-.17-29,3.3-43l.23-.88c5.9-8.25,15.87-12,22.28-19.8C703.74,455.88,703.63,455.78,703.57,455.85Z"/><path d="M705,450c-3.3,3-6.61,6.14-9.91,9.17,0,0,0,.09,0,.07a48.19,48.19,0,0,0,10-9C705.33,450.05,705.16,449.86,705,450Z"/><path d="M705.55,436.85a103.31,103.31,0,0,1-9.91,13.61c0,.05,0,.13.09.08a48.07,48.07,0,0,0,10-13.59.1.1,0,0,0-.09-.12A.08.08,0,0,0,705.55,436.85Z"/><polygon points="690.66 532.54 661.7 532.54 665.61 493.57 686.2 493.57 690.66 532.54"/><polygon points="686.93 499.91 664.96 499.91 665.61 493.57 686.2 493.57 686.93 499.91" opacity="0.2"/><rect x="662.61" y="489.25" width="27.15" height="6.22"/><rect x="662.61" y="489.25" width="27.15" height="6.22" fill="#f1f2f2" opacity="0.2"/></g><g id="acc1c08e-b216-4aba-aeef-92299c1cb4c4" data-name="freepik--Chairs--inject-299"><polygon points="373.74 498.18 375.82 510.62 389.87 586.49 392.14 586.49 381.92 510.62 380.41 498.18 373.74 498.18" fill="#dbdbdb"/><polygon points="380.41 498.18 373.74 498.18 375.82 510.62 381.92 510.62 380.41 498.18" fill="#a6a6a6"/><polygon points="329.63 586.49 331.89 586.49 345.94 510.62 348.02 498.18 341.35 498.18 339.84 510.62 329.63 586.49" fill="#dbdbdb"/><polygon points="341.35 498.18 339.84 510.62 345.94 510.62 348.02 498.18 341.35 498.18" fill="#a6a6a6"/><polygon points="287.49 586.49 289.76 586.49 303.8 510.62 305.88 498.18 299.22 498.18 297.7 510.62 287.49 586.49" fill="#dbdbdb"/><polygon points="297.7 510.62 303.8 510.62 305.88 498.18 299.22 498.18 297.7 510.62" fill="#a6a6a6"/><polygon points="291.08 504.02 394.03 504.02 394.03 493.18 355.49 493.18 342.54 417.83 295.01 417.83 291.08 504.02" fill="#dbdbdb"/><polygon points="291.08 504.02 296.69 504.02 300.35 417.83 295.01 417.83 291.08 504.02" fill="#c7c7c7"/><polygon points="575.13 498.18 573.06 510.62 559.01 586.49 556.75 586.49 566.96 510.62 568.47 498.18 575.13 498.18" fill="#dbdbdb"/><polygon points="568.47 498.18 575.13 498.18 573.06 510.62 566.96 510.62 568.47 498.18" fill="#a6a6a6"/><polygon points="619.25 586.49 616.99 586.49 602.94 510.62 600.87 498.18 607.52 498.18 609.03 510.62 619.25 586.49" fill="#dbdbdb"/><polygon points="607.52 498.18 609.03 510.62 602.94 510.62 600.87 498.18 607.52 498.18" fill="#a6a6a6"/><polygon points="661.39 586.49 659.13 586.49 645.08 510.62 643 498.18 649.66 498.18 651.17 510.62 661.39 586.49" fill="#dbdbdb"/><polygon points="651.17 510.62 645.08 510.62 643 498.18 649.66 498.18 651.17 510.62" fill="#a6a6a6"/><polygon points="657.8 504.02 554.86 504.02 554.86 493.18 593.39 493.18 606.34 417.83 653.88 417.83 657.8 504.02" fill="#dbdbdb"/><polygon points="657.8 504.02 652.19 504.02 648.53 417.83 653.88 417.83 657.8 504.02" fill="#c7c7c7"/></g><g id="bfbf2191-e21c-43cc-99e1-8227f2e3d24b" data-name="freepik--Table--inject-299"><polygon points="553.09 447.9 552.84 467.68 550.08 591.48 546.98 591.48 544.21 467.68 543.97 447.9 553.09 447.9" fill="#954e20"/><polygon points="553.09 447.9 552.84 467.68 544.21 467.68 543.97 447.9 553.09 447.9" fill="#ab6f4e"/><polygon points="377.56 447.9 377.31 467.68 374.55 591.48 371.45 591.48 368.68 467.68 368.44 447.9 377.56 447.9" fill="#954e20"/><polygon points="368.44 447.9 377.56 447.9 377.31 467.68 368.68 467.68 368.44 447.9" fill="#ab6f4e"/><rect x="348.85" y="439.71" width="224.88" height="12.85" fill="#ab6f4e"/><polygon points="372.04 438.79 550.55 438.79 461.29 473.62 372.04 438.79" fill="#ebebeb"/><path d="M453.36,396.74c7,6.8,8.12,17.33,6.66,26.56,0,.21-.36.16-.36,0,0-2.1.06-4.18.06-6.26a1.36,1.36,0,0,1-.11-.28,14,14,0,0,1-4.52-4.85c-1.16-2.28-1.65-4.86-2.48-7.24-.08-.24.17-.17.32-.05,4.24,3.12,5.58,6.47,6.79,11a36.53,36.53,0,0,0-.73-7A23.78,23.78,0,0,0,453.21,397C453.06,396.8,453.24,396.61,453.36,396.74Z"/><path d="M452.06,397.53c-1.2,0-1.95,2-2.88,2.47a.9.9,0,0,1-1.27-.13l-.05-.07c-.93-1.29.34-2.88,1.53-3.77a13.17,13.17,0,0,1-2.47,1.14.87.87,0,0,1-1.1-.55l0-.12c-.4-1.76,1.8-2.54,3.31-2.58-.73-.51-2.84-1.9-1.72-2.57s3.6,1.29,4.41,1.94c1.18,1,2.59,2.4,2.64,3.9C454.51,399,453,397.9,452.06,397.53Z" fill="#f48225" data-secondary="true"/><path d="M452.06,397.53c-1.2,0-1.95,2-2.88,2.47a.9.9,0,0,1-1.27-.13l-.05-.07c-.93-1.29.34-2.88,1.53-3.77a13.17,13.17,0,0,1-2.47,1.14.87.87,0,0,1-1.1-.55l0-.12c-.4-1.76,1.8-2.54,3.31-2.58-.73-.51-2.84-1.9-1.72-2.57s3.6,1.29,4.41,1.94c1.18,1,2.59,2.4,2.64,3.9C454.51,399,453,397.9,452.06,397.53Z" opacity="0.1" style="isolation:isolate"/><path d="M452.4,397.82c-1.53-.69-4.47.31-4.72-.27-.5-1.18,1.84-2,3.12-2.14-1.18-.32-3.41-.83-3.31-2,.1-1.37,3.44-.19,5.14,1.1,2.13,1.66,2.11,3.22,1.76,3.54C453.87,398.53,452.64,397.94,452.4,397.82Z" fill="#f48225" data-secondary="true"/><path d="M469.2,396.06c-7.21,6.54-8.77,17-7.66,26.3,0,.21.35.16.36,0,.09-2.1.09-4.19.18-6.26l.12-.27a13.93,13.93,0,0,0,4.7-4.68c1.25-2.23,1.8-4.79,2.79-7.14.09-.23-.16-.17-.33-.06-4.35,2.95-5.77,6.26-7.2,10.73a37.92,37.92,0,0,1,1-7,23.75,23.75,0,0,1,6.22-11.41.16.16,0,0,0,0-.22.15.15,0,0,0-.21,0Z"/><path d="M470.48,396.9c1.19.09,1.87,2,2.78,2.62a.89.89,0,0,0,1.27-.08l.06-.07c1-1.26-.23-2.9-1.4-3.83a14.72,14.72,0,0,0,2.44,1.24.89.89,0,0,0,1.12-.53.36.36,0,0,0,0-.1c.47-1.74-1.7-2.61-3.21-2.71.75-.48,2.91-1.78,1.82-2.47s-3.65,1.16-4.48,1.78c-1.21.92-2.68,2.29-2.79,3.79C468,398.25,469.54,397.24,470.48,396.9Z" fill="#f48225" data-secondary="true"/><path d="M470.48,396.9c1.19.09,1.87,2,2.78,2.62a.89.89,0,0,0,1.27-.08l.06-.07c1-1.26-.23-2.9-1.4-3.83a14.72,14.72,0,0,0,2.44,1.24.89.89,0,0,0,1.12-.53.36.36,0,0,0,0-.1c.47-1.74-1.7-2.61-3.21-2.71.75-.48,2.91-1.78,1.82-2.47s-3.65,1.16-4.48,1.78c-1.21.92-2.68,2.29-2.79,3.79C468,398.25,469.54,397.24,470.48,396.9Z" opacity="0.1" style="isolation:isolate"/><path d="M470.12,397.19c1.55-.64,4.45.48,4.72-.09.56-1.16-1.76-2.06-3-2.26,1.17-.28,3.44-.69,3.41-1.82,0-1.38-3.42-.32-5.17.91-2.19,1.56-2.24,3.14-1.89,3.47S469.87,397.29,470.12,397.19Z" fill="#f48225" data-secondary="true"/><path d="M461.83,413.33a70,70,0,0,1-2.24,10.34.25.25,0,1,1-.5-.1c.47-3.18,1.34-6.31,1.81-9.5a48.24,48.24,0,0,0,.55-9.75c-.31-5.37-1.76-11.08-5.27-15.28-.07-.1.09-.24.17-.15,7,8.18,5.9,18.2,5.89,19.1,1-3.38,2-7.27,5.78-10.73.15-.15.29-.08.26.18-.67,6.28-2.42,9.55-6.06,12.91C462.12,411.37,462,412.36,461.83,413.33Z"/><path d="M456.13,390c-1.27-.56-3,1-4.26,1.15a1,1,0,0,1-1.25-.78s0-.07,0-.1c-.31-1.8,1.8-2.82,3.49-3.14a15.06,15.06,0,0,1-3.15-.06,1,1,0,0,1-.85-1.13l0-.13c.46-2,3.14-1.73,4.73-1-.5-.9-2-3.4-.48-3.54s3.07,3.15,3.59,4.23c.74,1.59,1.48,3.8.82,5.38C457.94,392.71,456.89,390.82,456.13,390Z" fill="#f48225" data-secondary="true"/><path d="M456.13,390c-1.27-.56-3,1-4.26,1.15a1,1,0,0,1-1.25-.78s0-.07,0-.1c-.31-1.8,1.8-2.82,3.49-3.14a15.06,15.06,0,0,1-3.15-.06,1,1,0,0,1-.85-1.13l0-.13c.46-2,3.14-1.73,4.73-1-.5-.9-2-3.4-.48-3.54s3.07,3.15,3.59,4.23c.74,1.59,1.48,3.8.82,5.38C457.94,392.71,456.89,390.82,456.13,390Z" opacity="0.1" style="isolation:isolate"/><path d="M456.33,390.46c-1.24-1.5-4.78-1.94-4.75-2.66.07-1.48,2.9-1.14,4.3-.66-1.05-.92-3.12-2.57-2.48-3.7.78-1.39,3.66,1.53,4.76,3.73,1.39,2.77.58,4.4,0,4.55C457.5,391.92,456.54,390.7,456.33,390.46Z" fill="#f48225" data-secondary="true"/><path d="M466.44,415.22l3.1,23.64H450.71c.39-2.09,3.9-23.66,3.9-23.66Z" fill="#f48225" data-secondary="true"/></g><polygon points="454.03 501.51 469.56 647.83 451.59 647.83 449.7 632.39 439.25 632.39 404.64 632.72 406.58 647.83 387.65 647.83 385.79 624.99 454.03 501.51" fill="#f48225" data-secondary="true"/><polygon points="454.03 501.51 469.56 647.83 451.59 647.83 449.7 632.39 439.25 632.39 404.64 632.72 406.58 647.83 387.65 647.83 385.79 624.99 454.03 501.51" opacity="0.2"/><path d="M227.81,632.72s-4.41,7.38-4.08,11.75a3,3,0,0,0,2.51,2.71c3.14.52,11.09,1.51,16.36-.89a2.78,2.78,0,0,0,1.58-3.06,13.08,13.08,0,0,0-1.7-4.32,12.35,12.35,0,0,1-1.32-3l-.87-2.9Z" fill="#686175" data-primary="true"/><path d="M288.26,635.12l-1.69,12.71h38.55s2.41-5.3-8.44-7.56c0,0-7-1-12-5.15Z" fill="#686175" data-primary="true"/><path d="M248,278.42l-21.2,7.23s-11.89,3.21-16.71,20.72l-9,23.29s5.46,15.74,24.41,13.81l64.4.16s10.28-1.28,17.35-9.48l-12-37.58S293,283.24,272,279.23h-3.22Z" fill="#686175" data-primary="true"/><path d="M251,253.83v24.59H248s3.69,10.93,16.06,9.48c0,0,10.28,0,8-8.67h-3.22l.15-9.39S255.85,272.59,251,253.83Z" fill="#feb0a3"/><path d="M268.87,276.3l.19-6.91-13.84-8.12S253.9,270.74,268.87,276.3Z" fill="#fd8571"/><path d="M283.2,246.38c0,13.08-7.39,23.69-16.5,23.69-7.3,0-13.5-6.81-15.67-16.24a33.21,33.21,0,0,1-.84-7.45,32.81,32.81,0,0,1,.43-5.31c1.67-10.53,8.24-18.37,16.08-18.37C275.81,222.7,283.2,233.3,283.2,246.38Z" fill="#feb0a3"/><path d="M251,265.58S232.37,255.46,237,230.89c0,0,10.11,5.54,17.34,6.5,0,0-1.59,5.9-1.16,8.36a.22.22,0,0,1-.36.22c-.93-.76-2.66-2.53-2.15-4.9,0,0-1.37,7.4.41,12.76Z"/><path d="M237,230.89l47.94-2.73s15,3.91,13.76,8.27a2,2,0,0,1-1.63,1.34,147.54,147.54,0,0,1-42.73-.38S246.76,236.48,237,230.89Z" fill="#686175" data-primary="true"/><path d="M290.67,367.88c-3.37-14-.79-31.19-.44-36.24a12.6,12.6,0,0,1,.52-2.79c.78-2.54,1.35-4.76,1.74-6.7a23.4,23.4,0,0,0-2.54-16c-5.14-9.38-5.92-22.82-5.92-22.82a45.42,45.42,0,0,0-6.36-2.71c-.8,4.8,1.11,24.92,1.11,24.92H248S244.17,284,243.45,280l-7.23,2.46s8.19,23.39-3.37,38.56c0,0-5.86,20.64-7.39,22.49,0,0,.4,44.73-2.73,68.1,0,0-6.5,20-4.09,53L222.25,632s15.18,2.65,24.81,0l3.86-66.25s7.71-77.33,10.84-93.71l9.88,45.77s8.91,100,16.62,117.32c0,0,15.42,6.27,16.38,0V513.83c0-1.66-.06-3.31-.18-5-.68-9.3-3-42.9-3-59.71,0-.85,0-1.69-.12-2.54C300.55,437.91,295.71,388.84,290.67,367.88Z" fill="#f48225" data-secondary="true"/><path d="M237,230.89a23,23,0,0,1,11.14-20.65,24.09,24.09,0,0,1,22-1.7c5.82,2.53,12.11,8,14.81,19.62Z" fill="#f48225" data-secondary="true"/><ellipse cx="257.68" cy="206.59" rx="2.47" ry="1.59" fill="#686175" data-primary="true"/><path d="M245.93,211.69S226.5,202,218.1,228.16c0,0-2.23,10.08,0,25.67,0,0,3.93,26.07,2.76,35.08,0,0,2.08-2,10.66-4.89l3-1s-.63-17.11-2.11-29.16c0,0-5.51-26.59,6.49-33.35A28.14,28.14,0,0,1,245.93,211.69Z"/><rect x="245.93" y="312.86" width="33.71" height="35.23" opacity="0.2"/><path d="M227.91,387.8s29.36,10.06,64.31-1.68" fill="none" stroke="#000" stroke-miterlimit="10" opacity="0.2"/><polyline points="262.58 405.97 261.38 470.13 250.42 565.98" fill="none" stroke="#000" stroke-miterlimit="10" opacity="0.2"/><path d="M205.84,337s-9,23-4.79,37.72L211.15,406l10.15-2.15s-3-12-3.2-36.23a34.27,34.27,0,0,1,1.66-10.87L224,343.63A22,22,0,0,1,205.84,337Z" fill="#feb0a3"/><path d="M224.69,414.89l-2.32-14.28s-13.9.83-12.83,5.36l6.42,19s4.27,29.94,13.9,21.92c0,0,3.21,1.61,5.88-2.4,0,0,2.14.53,2.4-2.68,0,0,4.35,1.11,1.87-2.67l-6.95-9.59a.46.46,0,0,1,.48-.72c1.71.45,4.75,1,6.63-.32a1.13,1.13,0,0,0-.2-2l-9.26-3.93A10.08,10.08,0,0,1,224.69,414.89Z" fill="#686175" data-primary="true"/><path d="M289.86,343.63s5.16,22.59,14.78,30.2L325.41,391l8.32-8.67-23.06-24.74a6.92,6.92,0,0,1-1.74-3.41L305.44,336S301.21,341,289.86,343.63Z" fill="#feb0a3"/><path d="M346.29,391.81,333.73,380l-10.44,11,18.93,11s27.08,14.69,25.13,6.55c0,0,2.48-.18,2.13-3.89,0,0,2.65.17,1.59-2.48,0,0,2.8-2.13.25-3.54L359,394.43a.46.46,0,0,1,0-.86c1.8-.7,4.85-2.16,4.09-3.81,0,0-.36-3.36-9.21.35C353.9,390.11,347.92,393.34,346.29,391.81Z" fill="#686175" data-primary="true"/><line x1="257.11" y1="252.05" x2="249.91" y2="241.33" fill="none" stroke="#e6e7e8" stroke-miterlimit="10"/><path d="M256.52,264.17s-5-6.05-5.87-11.23" fill="none" stroke="#e6e7e8" stroke-miterlimit="10"/><path d="M589.85,334.89A23.66,23.66,0,0,0,607.19,343l64.31-14.29,16.85,9.34s17.22-8.06,15.94-23.27l-21.62-20s-5.49-7.51-22.71-12.27l-11-3.69-24.05-.15s-19.56,4.2-23.41,18.49l-11.79,37A.73.73,0,0,0,589.85,334.89Z" fill="#f48225" data-secondary="true"/><path d="M613.21,283.41s-3.45,18.56-6.93,23.14c0,0-5.87,8.43,0,22.35a123.48,123.48,0,0,1-2,47.45S598,403.65,597.85,419c0,0-3.64,52.75-4.12,80.46,0,0-.49,41-1.21,55.89l-1,76.6s1.44,6.27,9.15,4.1c0,0,7.71-1.45,8.43-5.3,0,0,17.35-66,15.42-111.3,0,0,9.88-40,12.77-59.51l3.61,48.91s-1.44,12.05,9.64,24.57l59,86.25s14.45,1.2,20.72-12.29c0,0-27.46-68.42-53-89.37,0,0,4.34-83.12-1.93-110.58,0,0-5.3-31.8-4.09-46.25l.2-32.5s-22.13-16.84-10.56-45.89l-7.07-2.33L649,305.81H618.54s1.18-19.05.71-25.31Z" fill="#686175" data-primary="true"/><rect x="617.09" y="313.52" width="33.49" height="33.97" opacity="0.2"/><path d="M690.09,358.81s10-13.06,14.27-15.8L694,334.52s9.56-6.07,10.3-16.43c0,0,22.91,17.31,20.26,24.92,0,0-6.51,18.21-28.43,24.47C696.11,367.48,693.7,361.94,690.09,358.81Z" fill="#feb0a3"/><path d="M673.22,368.92l15.18-12s6.75,6.14,8.31,12c0,0-17.92,4.38-16.6,9a.87.87,0,0,0,.91.61c1.52-.12,5.54,0,5.54,4.67a5,5,0,0,1-.57,2.33c-1.41,2.77-5.88,9.78-12.77,4.27C673.22,389.76,662.38,379.89,673.22,368.92Z" fill="#f48225" data-secondary="true"/><path d="M715.32,619.22s-1.89,8.6-6.34,14c0,0-7.43,6.69-2.48,10.65l29.72-24.7-8-8.26S724.39,616.81,715.32,619.22Z" fill="#f48225" data-secondary="true"/><path d="M592.28,633.64s-8.22,6-16.77,6.23a3.86,3.86,0,0,0-3.28,1.83,2,2,0,0,0,.44,2.7,3.66,3.66,0,0,0,2.48.9h35.06L609,631.42Z" fill="#f48225" data-secondary="true"/><path d="M592.65,337.62l-5,19.26L565,381.08l6.63,8.69S597.68,372.84,600,363.7l7.7-16.22-.07-4.56A23.67,23.67,0,0,1,592.65,337.62Z" fill="#feb0a3"/><path d="M549.89,391.82,565,379.25l8.92,10.52s-19.9,14.4-31.1,17.61c0,0-11.89,5.71-12.12,1.14,0,0-3-.46-2.75-3.2,0,0-3.2-.46-1.83-3.66,0,0-2.51-1.37,1.15-3.2L539.6,393s-8.24-4.8-3.89-4.8C535.71,388.17,543.94,388.38,549.89,391.82Z" fill="#f48225" data-secondary="true"/><rect x="536.71" y="327.73" width="4.98" height="273.19"/><path d="M539.2,300.91h-.32a3.61,3.61,0,0,0-3.61,3.61v24.82h7.54V304.52A3.61,3.61,0,0,0,539.2,300.91Zm.88,7.11A1.07,1.07,0,0,1,539,309.1h-.1a1.07,1.07,0,0,1-1.07-1.08v-3a1.07,1.07,0,0,1,1.07-1.08h.1a1.07,1.07,0,0,1,1.07,1.08Z" fill="#686175" data-primary="true"/><rect x="535.37" y="599.58" width="7.66" height="21.29" fill="#686175" data-primary="true"/><path d="M507.8,620.88H570a5.5,5.5,0,0,1,5.5,5.5v0a0,0,0,0,1,0,0H502.3a0,0,0,0,1,0,0v0A5.5,5.5,0,0,1,507.8,620.88Z" fill="#686175" data-primary="true"/><polygon points="502.3 626.38 498.23 646.71 579.81 646.71 575.51 626.38 502.3 626.38" fill="#e6e7e8"/><polygon points="508.52 646.71 510.67 631.42 510.67 646.71 508.52 646.71" fill="#f1f2f2"/><polygon points="516.41 633.32 515.46 646.71 518.09 646.71 516.41 633.32" fill="#f1f2f2"/><polygon points="521.68 631.42 520.24 646.71 523.83 646.71 521.68 631.42" fill="#f1f2f2"/><polygon points="530.21 633.32 528.68 646.71 531.73 646.71 530.21 633.32" fill="#f1f2f2"/><polygon points="536.71 636.54 535.37 646.71 537.84 646.71 536.71 636.54" fill="#f1f2f2"/><polygon points="541.69 633.32 540.57 646.71 543.78 646.71 541.69 633.32" fill="#f1f2f2"/><polygon points="548.11 646.71 549.56 635.13 550.68 646.71 548.11 646.71" fill="#f1f2f2"/><polygon points="553.9 646.71 555.02 631.42 556.47 646.71 553.9 646.71" fill="#f1f2f2"/><polygon points="561.44 633.32 560.16 646.71 564.34 646.71 561.44 633.32" fill="#f1f2f2"/><polygon points="566.26 646.71 567.55 633.32 570.28 646.71 566.26 646.71" fill="#f1f2f2"/><polygon points="573.33 632.39 571.88 646.71 575.51 646.71 573.33 632.39" fill="#f1f2f2"/><polygon points="355.26 647.83 374.24 647.83 377.05 632.72 420.64 632.72 419.23 647.83 437.51 647.83 454.03 501.51 372.13 501.51 355.26 647.83" fill="#f48225" data-secondary="true"/><rect x="390.76" y="511.35" width="39.72" height="10.19" rx="5.1" fill="#f1f2f2"/><path d="M398.49,511.35s-6,5.62,0,10.19h-2.63s-5.35-.29-5.08-5.42c0,0,.09-4.32,5.08-4.77Z" fill="#e6e7e8"/><polygon points="375.87 606.07 402.86 560.77 429.23 606.07 375.87 606.07" fill="#f1f2f2"/><path d="M431.51,608.92H373.3a1.57,1.57,0,0,1-1.34-2.36L402,556.25a1,1,0,0,1,.82-.46.93.93,0,0,1,.8.47l29.2,50.32a1.56,1.56,0,0,1-1.35,2.34Zm-28.66-52.38a.19.19,0,0,0-.16.09L372.61,607a.76.76,0,0,0,0,.81.8.8,0,0,0,.7.42h58.21a.81.81,0,0,0,.7-.41.79.79,0,0,0,0-.81L403,556.64C403,556.55,402.89,556.57,402.85,556.54Z" fill="#686175" data-primary="true"/><circle cx="398.02" cy="576.38" r="1.71" fill="#686175" data-primary="true"/><path d="M396.61,584.08c1,2.14,3.67,8.86,6.77,10.85a1.08,1.08,0,0,1,.5.93l-.1,4.29a1.46,1.46,0,0,0,1.46,1.49h0a1.46,1.46,0,0,0,1.45-1.39l.25-5a1.94,1.94,0,0,0-.18-.92l-1.68-3.48a.7.7,0,0,1,.57-1l2.91-.24a1.12,1.12,0,0,1,1.14.68l1.55,3.61a1.25,1.25,0,0,0,1.75.61h0a1.25,1.25,0,0,0,.55-1.6l-2.6-6a1.13,1.13,0,0,0-1.17-.68l-3.87.43a1,1,0,0,1-1.07-.62l-2-4.41a.51.51,0,0,1,.47-.72H405a2,2,0,0,0,1.93-1.5l.86-3.35a1.12,1.12,0,0,0-1.08-1.4h0a1.11,1.11,0,0,0-1.05.72l-1,2.7-4.91.5a7.3,7.3,0,0,0-6,3.77,10.13,10.13,0,0,0-1.22,6.57,1.05,1.05,0,0,0,1,.84h0a1.06,1.06,0,0,0,1.06-1.07,8.09,8.09,0,0,1,1.16-4.7A.52.52,0,0,1,396.61,584.08Z" fill="#686175" data-primary="true"/><polygon points="408.95 597.95 409.43 594.81 411.36 596.02 408.95 597.95" fill="#686175" data-primary="true"/><polygon points="408.95 599.55 412.32 598.51 412.32 600.92 408.95 599.55" fill="#686175" data-primary="true"/><rect x="381.09" y="601.64" width="43.36" height="2.25" rx="1.13" fill="#686175" data-primary="true"/><path d="M388.25,543.62c-.23.66-1.34,3.76-4.54,3.76-3.36,0-2.81-3.24-1.93-6.46,1.06-3.88,2.81-6.36,5.58-6.36,3.1,0,2.54,2.82,2.34,3.73h-1.87c.09-.42.5-2.07-1-2.07s-2.42,2-3.16,4.73c-.67,2.44-1.07,4.79.48,4.79,1.4,0,2-1.6,2.19-2.12Z" fill="#686175" data-primary="true"/><path d="M391.53,543.77l-1.63,3.4H388l6.25-12.42h2.43l-.52,12.42h-2l.23-3.4Zm3-1.69c.18-2.6.28-4.41.41-5.53h-.05c-.46,1.12-1.43,3.11-2.59,5.53Z" fill="#686175" data-primary="true"/><path d="M402.42,534.75l-2.36,8.6c-.31,1.14-.36,2.4,1.06,2.4s2-1.06,2.36-2.39l2.36-8.61h1.88l-2.37,8.64c-.62,2.24-1.92,4-4.71,4s-3.12-1.64-2.48-4l2.38-8.67Z" fill="#686175" data-primary="true"/><path d="M411,536.45h-2.61l.46-1.7h7.12l-.47,1.7h-2.62l-2.94,10.72H408Z" fill="#686175" data-primary="true"/><path d="M419.1,534.75l-3.41,12.42h-1.88l3.41-12.42Z" fill="#686175" data-primary="true"/><path d="M426.83,540.86c-1.22,4.44-2.91,6.52-5.64,6.52-2.56,0-3.18-2-1.95-6.53s3.11-6.29,5.55-6.29S428,536.58,426.83,540.86Zm-5.66,0c-.86,3.15-.82,4.91.52,4.91s2.33-1.66,3.22-4.9.77-4.63-.61-4.63S422,537.85,421.17,540.83Z" fill="#686175" data-primary="true"/><path d="M426.89,547.17l3.41-12.42h2.17c.74,7.46.87,8.72.86,9.3h0c.33-1.55.82-3.39,1.38-5.42l1.06-3.88h1.7l-3.41,12.42H432c-.72-7.9-.82-9.16-.82-9.7h0c-.33,1.54-.85,3.43-1.46,5.66l-1.1,4Z" fill="#686175" data-primary="true"/><path d="M647,246.77c0,13-8.31,23.45-17.09,23.45S614,259.72,614,246.77s7.12-23.46,15.9-23.46S647,233.81,647,246.77Z" fill="#feb0a3"/><path d="M645.87,252l.26,14.23c10.38-6.32,12.76-18.26,12.76-18.26,5.64-17.59-4.51-26.66-4.51-26.66,8.35-12.45-2.93-16.42-2.93-16.42-15.79-4.74-14.89,8.8-14.89,8.8-30.67-.91-21.5,24.72-21.5,24.72s3.46-15.48,17-11c0,0,11.06,1.36,11.73,18.5l2.48-.23A36.21,36.21,0,0,1,645.87,252Z"/><path d="M627.65,269.92v8.79h-2.73s-1.92,9.87,10.12,9c0,0,11.23-.42,13.93-8.88h-2.61L645.87,252S641.57,272.82,627.65,269.92Z" fill="#feb0a3"/><path d="M627.65,269.92v6.38s14.65-1.17,15.37-16.18C643,260.12,637.48,272.46,627.65,269.92Z" fill="#fd8571"/><line x1="638.85" y1="253.65" x2="645.26" y2="244.62" fill="none" stroke="#e6e7e8" stroke-miterlimit="10" stroke-width="0.75"/><path d="M640.36,264.12s4.56-6.15,5.94-12.76" fill="none" stroke="#e6e7e8" stroke-miterlimit="10" stroke-width="0.75"/><ellipse cx="648.97" cy="247.45" rx="6.24" ry="4.76" transform="translate(328.48 863.63) rotate(-83.39)" fill="#feb0a3"/><line x1="645.83" y1="318.09" x2="621.91" y2="318.09" fill="none" stroke="#000" stroke-miterlimit="10" opacity="0.2"/><line x1="637.33" y1="459.98" x2="635.33" y2="394.77" fill="none" stroke="#000" stroke-miterlimit="10" opacity="0.2"/><path d="M251.58,254.68c-.76.72-2.22.3-3.19.3-2.73,0-4.94-3.29-4.94-7.35s2.21-7.35,4.94-7.35a3.66,3.66,0,0,1,2.23.79,32.81,32.81,0,0,0-.43,5.31A40.54,40.54,0,0,0,251.58,254.68Z" fill="#feb0a3"/><line x1="250.19" y1="317.89" x2="274.61" y2="317.89" fill="none" stroke="#000" stroke-miterlimit="10" opacity="0.2"/><path d="M266,246c0,1.16-.51,2.09-1.14,2.09s-1.15-.93-1.15-2.09.51-2.09,1.14-2.09S266,244.85,266,246Z"/><path d="M279.12,246c0,1.16-.52,2.09-1.15,2.09s-1.15-.93-1.15-2.09.51-2.09,1.15-2.09S279.12,244.85,279.12,246Z"/><path d="M262.29,243.6a3.74,3.74,0,0,1,2.08-1.84A3.48,3.48,0,0,1,267,242a.47.47,0,0,1,.21.56h0a.46.46,0,0,1-.63.25A3.82,3.82,0,0,0,262.29,243.6Z"/><path d="M280.44,243.6a3.74,3.74,0,0,0-2.08-1.84,3.48,3.48,0,0,0-2.63.24.46.46,0,0,0-.21.56h0a.45.45,0,0,0,.62.25A3.84,3.84,0,0,1,280.44,243.6Z"/><path d="M271.06,253c-1.38-.51.76-1.45,1.17-1.75-.31-.19-1.42-.31-1.4-.82s-.68-5.19.78-3.18l.17,2.8C275.7,251,273,252,271.06,253Z" fill="#fd8571"/><path d="M247.58,250.66a.43.43,0,0,0,.16-.54c-1.47-3-.07-4.53,0-4.59a.42.42,0,0,0-.59-.59c-.07.08-1.89,1.95-.15,5.54a.41.41,0,0,0,.55.2Z" fill="#fd8571"/><path d="M248.75,248a.44.44,0,0,0,.18-.24.42.42,0,0,0-.29-.51,2.34,2.34,0,0,0-2.22.64.41.41,0,0,0,0,.59.42.42,0,0,0,.59,0,1.5,1.5,0,0,1,1.41-.43A.45.45,0,0,0,248.75,248Z" fill="#fd8571"/><path d="M255.21,263.38s-.19-7.86,1.57-11.82c0,0,17.49-3.05,26.14-.86,0,0-2,21.28-18,19.37C265,270.07,259.39,269.48,255.21,263.38Z" fill="#e6e7e8"/><path d="M262.29,255s10.34,1.79,16.29-1.15" fill="none" stroke="#d1d3d4" stroke-miterlimit="10" stroke-width="0.75"/><path d="M264.49,258.82a34.51,34.51,0,0,0,10.13,0" fill="none" stroke="#d1d3d4" stroke-miterlimit="10" stroke-width="0.75"/><path d="M262.29,261.68s7.26,4.19,14.75,0" fill="none" stroke="#d1d3d4" stroke-miterlimit="10" stroke-width="0.75"/><path d="M630.62,245.78c0,1.16.51,2.09,1.15,2.09s1.15-.93,1.15-2.09-.52-2.09-1.15-2.09S630.62,244.63,630.62,245.78Z"/><path d="M617.46,245.78c0,1.16.51,2.09,1.15,2.09s1.14-.93,1.14-2.09-.51-2.09-1.14-2.09S617.46,244.63,617.46,245.78Z"/><path d="M634.29,243.38a3.74,3.74,0,0,0-2.09-1.83,3.45,3.45,0,0,0-2.63.23.45.45,0,0,0-.2.56h0a.45.45,0,0,0,.62.25A3.84,3.84,0,0,1,634.29,243.38Z"/><path d="M616.13,243.38a3.74,3.74,0,0,1,2.09-1.83,3.46,3.46,0,0,1,2.63.23.46.46,0,0,1,.2.56h0a.45.45,0,0,1-.62.25A3.84,3.84,0,0,0,616.13,243.38Z"/><path d="M625.51,252.76c1.38-.51-.75-1.45-1.17-1.75.31-.18,1.42-.31,1.4-.82s.69-5.19-.78-3.18l-.17,2.8C620.87,250.82,623.6,251.74,625.51,252.76Z" fill="#fd8571"/><path d="M649,250.44a.41.41,0,0,1-.15-.54c1.46-3,.06-4.53,0-4.59a.42.42,0,1,1,.59-.59c.08.08,1.89,1.95.16,5.55a.42.42,0,0,1-.56.19Z" fill="#fd8571"/><path d="M647.82,247.77a.43.43,0,0,1-.17-.24.4.4,0,0,1,.28-.51,2.36,2.36,0,0,1,2.23.64.42.42,0,0,1,0,.59.41.41,0,0,1-.59,0,1.53,1.53,0,0,0-1.41-.43A.45.45,0,0,1,647.82,247.77Z" fill="#fd8571"/><path d="M614.31,251.13c0-.32,16.27-2.9,25.67,1a90,90,0,0,1,1.28,11.13s-8,12.55-18.75,4.29C622.51,267.51,615.37,263.31,614.31,251.13Z" fill="#e6e7e8"/><path d="M618.54,255a44.76,44.76,0,0,0,14.69,0" fill="none" stroke="#d1d3d4" stroke-miterlimit="10" stroke-width="0.75"/><path d="M621.91,258.85a16.7,16.7,0,0,0,8.91,0" fill="none" stroke="#d1d3d4" stroke-miterlimit="10" stroke-width="0.75"/><path d="M621,262.72a31.38,31.38,0,0,0,12.28,0" fill="none" stroke="#d1d3d4" stroke-miterlimit="10" stroke-width="0.75"/></svg>