<svg xmlns="http://www.w3.org/2000/svg" width="865.76" height="682.89" viewBox="0 0 865.76 682.89"><path d="M104,124.17H245.57a1.65,1.65,0,0,1,1.65,1.65V529.18H102.37V125.82A1.65,1.65,0,0,1,104,124.17Z" fill="#f48225" data-secondary="true"/><path d="M104,124.17H245.57a1.65,1.65,0,0,1,1.65,1.65V529.18H102.37V125.82A1.65,1.65,0,0,1,104,124.17Z" opacity="0.2" style="isolation:isolate"/><rect x="102.41" y="282.06" width="144.81" height="247.12" fill="#f48225" data-secondary="true"/><rect x="85.76" y="529.49" width="178.06" height="28.6" rx="1.45" fill="#2f2e41"/><path d="M102.37,260.82c-19.26-1.38-30.79,3.82-36.49,10.28a27.7,27.7,0,0,0-6.58,18.42V406.11a88.4,88.4,0,0,0,5.86,32.53c17.27,43.85,56.8,41.93,56.8,41.93H215.7c23.06-1,41.11-20.05,41.11-20.05l30.08-30.08-7.52-7.51L253.3,449c-18.05,19.05-42.11,21.56-42.11,21.56l-90.23-.5c-36.53-5.68-47.43-34.7-50.25-45.54a27.84,27.84,0,0,1-.89-7.09V289.58a19.57,19.57,0,0,1,3.48-10.2,18.3,18.3,0,0,1,15-7.34l14.07-.08Z" fill="#2f2e41"/><rect x="115.94" y="150.22" width="119.31" height="97.75" rx="1.39" fill="#fff"/><rect x="131.29" y="169.48" width="22.42" height="61.17" fill="#f48225" data-secondary="true"/><rect x="163.96" y="169.86" width="22.42" height="61.17" fill="#f48225" data-secondary="true"/><rect x="196.26" y="169.1" width="22.42" height="61.17" fill="#f48225" data-secondary="true"/><path d="M386.91,364c-34.37-3.13-54.68,20.31-54.68,20.31l-7-10.94s32-25.78,58.59-21.09Z" fill="#ccc"/><path d="M275.22,422.48l15.07-15.07h0l11.31,11.32h0L286.53,433.8a1.12,1.12,0,0,1-1.57,0l-9.73-9.73a1.12,1.12,0,0,1,0-1.57Z" fill="#f48225" data-secondary="true"/><path d="M320.47,362.09l-35.09,34.79a5.62,5.62,0,0,0-.05,7.95l.05.05,19.56,19.56a5.64,5.64,0,0,0,8,0l0,0,28.6-28.6a5.93,5.93,0,0,0,1-7l-13.71-25.46a5.27,5.27,0,0,0-8.36-1.29Z" fill="#f48225" data-secondary="true"/><path d="M806.47,319.69a8.17,8.17,0,0,1-7.61,8l-26,1.39a18.31,18.31,0,0,0-12.11,6.56L759,338.1c-2.48,3.38-4.5,2.72-4.5-1.47V311.36a7.64,7.64,0,0,1,7.62-7.62H798.9a7.64,7.64,0,0,1,7.62,7.62Z" fill="#2f2e41"/><path d="M335.16,319.69a8.14,8.14,0,0,0,7.61,8l26.81,1.41a18.26,18.26,0,0,1,12.11,6.55l1.78,2.43c2.47,3.38,4.49,2.72,4.49-1.47V311.36a7.64,7.64,0,0,0-7.61-7.62H342.78a7.64,7.64,0,0,0-7.62,7.62Z" fill="#2f2e41"/><path d="M806.47,314a8.17,8.17,0,0,1-7.61,8l-26,1.39A18.38,18.38,0,0,0,760.72,330L759,332.45c-2.48,3.39-4.5,2.72-4.5-1.47V305.71a7.64,7.64,0,0,1,7.62-7.62H798.9a7.64,7.64,0,0,1,7.62,7.62Z" fill="#686175" data-primary="true"/><path d="M335.16,314a8.14,8.14,0,0,0,7.61,8l26.81,1.41A18.24,18.24,0,0,1,381.69,330l1.78,2.43c2.47,3.39,4.49,2.72,4.49-1.47V305.71a7.64,7.64,0,0,0-7.61-7.62H342.78a7.64,7.64,0,0,0-7.62,7.62Z" fill="#686175" data-primary="true"/><path d="M421.61,551.34V513.88l-1.11-.9-61.09-.56V427.71l-.12-.07c-3.86,1.16-6.57,3.74-6.57,6.72v115c0,4.07,6.57,9.32,12.71,9.32h45C416.59,558.73,421.61,555.4,421.61,551.34Z" fill="#2f2e41"/><path d="M421.61,516.47V479l-1.11-1-61.09-5V388.3l-.12-.09c-3.87.92-6.58,3.33-6.58,6.32V519.19c0,4.07,6.58,9.73,12.72,10.11l45-6.15C416.59,523.54,421.61,520.53,421.61,516.47Z" fill="#2f2e41"/><path d="M718.73,551.34V513.88l1.11-.9,61.09-.56V427.71l.12-.07c3.86,1.16,6.57,3.74,6.57,6.72v115c0,4.07-6.57,9.32-12.71,9.32h-45C723.75,558.73,718.73,555.4,718.73,551.34Z" fill="#2f2e41"/><path d="M718.73,516.47V475.16l1.11-1,61.09-5.05v-84.7l.12-.09c3.87.92,6.58,3.33,6.58,6.32V505.72c0,4.06-6.58,9.72-12.72,10.11l-45,7.32C723.75,523.54,718.73,520.53,718.73,516.47Z" fill="#2f2e41"/><path d="M728.23,249.77c-6.47-16.17-21-33.05-39.55-36.63-15.68-2.73-30.6-4.5-46.52-5.72a1250.66,1250.66,0,0,0-143.07,0,450,450,0,0,0-44.95,5.72c-18.72,3.58-31.21,19.24-39.54,36.63-12.17,26.8-22,46.82-31.94,73.88,15.82-2.13,31.48-5.09,47.14-8.07a760.77,760.77,0,0,1,281.65,0c15.66,3,31.32,5.94,47.14,8.07C748.66,296.59,739.63,277.8,728.23,249.77Z" fill="#686175" data-primary="true"/><path d="M688.68,214.62c-15.68-2.74-30.6-4.51-46.52-5.73a1250.66,1250.66,0,0,0-143.07,0,447.1,447.1,0,0,0-44.95,5.73c-11.63,2.22-20.86,9.11-28.18,18.17A47.22,47.22,0,0,1,448.26,222c16.48-2.73,30.49,10.23,47.22,9a1380,1380,0,0,1,150.29,0c16.73,1.22,32.4-11.74,48.88-9a49.77,49.77,0,0,1,22.9,11.24C710.11,224.14,700.18,216.83,688.68,214.62Z" fill="#686175" data-primary="true"/><path d="M790.9,471.22c0,8-8.87,14.47-19.7,14.47H370.05c-10.83,0-19.7-6.18-19.7-13.73V392.52c0-16,5.45-26.33,11.12-35.83l24.7-43.22c6.12-8.36,20-8.57,30.82-8.57H725.83c10.84,0,23.13.21,29.25,8.57l24.7,38.07c6.11,8.36,11.12,23.48,11.12,33.61v86.07Z" fill="#686175" data-primary="true"/><path d="M790.9,471.22c0,8-8.87,14.47-19.7,14.47H370.05c-10.83,0-19.7-6.18-19.7-13.73V392.52c0-16,5.45-26.33,11.12-35.83l24.7-43.22c6.12-8.36,20-8.57,30.82-8.57H725.83c10.84,0,23.13.21,29.25,8.57l24.7,38.07c6.11,8.36,11.12,23.48,11.12,33.61v86.07Z" opacity="0.2" style="isolation:isolate"/><path d="M790.9,433.06c0,11,.32,43.6,0,54.24-.28,9.17-10.39,15.22-19.68,15.85-138.88,9.09-262.31,9.09-401.19,0-9-.59-19.36-6.17-19.68-15.11-.37-10.35,0-42.79,0-53.51Z" fill="#686175" data-primary="true"/><path d="M404.27,314.57a3.44,3.44,0,0,1-3.21-4.62c5.51-14.82,10.28-25,15.81-36.84,3-6.42,6.11-13.05,9.65-21.1,8.05-18.39,24.37-30.93,41.56-31.94,13.93-.65,27.73-1.26,43.9-1.7,21.45-.53,41.12-.78,60.17-.78s38.61.25,60,.78c15.65.42,28.36,1,43.08,1.69,18,1.06,33.49,13,41.59,31.92,7.86,16.89,12.88,28.49,18.69,41.92,2.11,4.88,4.34,10.05,6.89,15.87a3.44,3.44,0,0,1-1.8,4.52,3.51,3.51,0,0,1-1.35.28H739c-15.26-1.12-30.75-2.11-46-2.93-42.89-2.22-82.55-3.3-121.21-3.3s-78.31,1.08-121.21,3.3c-15.28.82-30.76,1.81-46,2.93Z" fill="#686175" data-primary="true"/><path d="M572.15,221c19.38,0,38.76.26,59.91.78,15.39.41,27.62,1,43,1.68,17.61,1,31.42,13,38.62,29.9,10.66,22.91,15.91,35.67,25.56,57.76q-23-1.69-46.09-2.94c-42.57-2.2-82-3.3-121.4-3.3s-78.83,1.1-121.38,3.3q-23.07,1.24-46.1,2.94c8.45-22.69,15.32-34.85,25.39-57.75,6.75-15.41,21-28.86,38.63-29.9,15.37-.71,28.39-1.28,43.78-1.69,21.22-.52,40.65-.78,60.08-.78Zm0-6.86c-19.07,0-38.78.26-60.25.78-16.2.44-30,1.05-43.93,1.7h-.09a47.57,47.57,0,0,0-27.33,11.11,61.68,61.68,0,0,0-17.17,22.89c-3.52,8-6.62,14.62-9.61,21-5.56,11.89-10.36,22.15-15.93,37.09a6.88,6.88,0,0,0,6.43,9.25h.5c15.25-1.12,30.72-2.11,46-2.93,42.82-2.21,82.4-3.29,121-3.29s78.2,1.08,121,3.29c15.24.82,30.7,1.81,46,2.93h.5a6.86,6.86,0,0,0,6.29-9.6c-2.54-5.81-4.77-11-6.88-15.85-5.82-13.45-10.84-25.06-18.71-42-8.63-20.12-25.25-32.81-44.48-33.94h-.09c-14.73-.68-27.46-1.27-43.13-1.69-21.42-.53-41.07-.78-60.09-.78Z" fill="#2f2e41"/><path d="M693.62,292.25c-5.7-13.05-8.81-20.59-15.1-34.13-4.26-10-12.42-17-22.83-17.66-9.08-.42-16.31-.75-25.4-1-25-.62-93.15-.62-118.18,0-9.09.24-16.78.58-25.87,1-10.41.61-18.83,8.56-22.82,17.66-5.95,13.53-10,20.72-15,34.12Z" fill="#686175" data-primary="true"/><path d="M513.72,288.09h-57.2c-8.67,0-15.76,6.63-15.76,14.73V309l8.87-.5c27.66-1.43,54-2.39,79.85-2.89v-2.78C529.48,294.72,522.39,288.09,513.72,288.09Z" fill="#2f2e41"/><rect x="455.49" y="265.51" width="58.55" height="33.88" rx="11.43" fill="#2f2e41"/><path d="M634.15,288.09h57.2c8.67,0,15.76,6.63,15.76,14.73V309l-8.87-.5c-27.66-1.43-54-2.39-79.86-2.89v-2.78C618.38,294.72,625.48,288.09,634.15,288.09Z" fill="#2f2e41"/><rect x="632.82" y="265.51" width="58.55" height="33.88" rx="11.43" fill="#2f2e41"/><g opacity="0.2"><path d="M665.34,292.39c-14.25,0-26.67,7.46-33,18.42,3.36.08,6.73.18,10.11.28a30,30,0,0,1,42.29-3.43,30.38,30.38,0,0,1,4.92,5.34l7.54.38,2.55.14C694,301.09,680.72,292.39,665.34,292.39Z"/></g><path d="M764,351.54l-19-33.76q-13.8-.88-27.61-1.63a2830.94,2830.94,0,0,0-292.78,0q-12,.64-24,1.4c-2,.13-5.94.79-8,4s-16.85,30-16.85,30c-3.46,5.11-6.53,12.76-8.4,20.25-1.18,4.75-.44,7.81,5.47,7.81L442,387l31.25,35.68c.18.23,1.81,1.67,1.81,1.67a6.71,6.71,0,0,0,3.55,1.15q91.83,1,183.65,0c2.69,0,6.43-5.07,6.52-5.33l29-33.17,59.77-6.11c18.92,0,15.78-5.59,14.31-11C770,363.05,767.15,356.23,764,351.54Z" fill="#686175" data-primary="true"/><path d="M444.54,316.71c-1.44,3.74-11.92,35.22-11.92,35.22-2.45,6-5.64,26.08-13.92,26.08-6,0,7.67,6.87,11.85,6.87l5.73,1s14-55.4,18.61-71.14l-9.57.4A9.18,9.18,0,0,0,444.54,316.71Z" opacity="0.2" style="isolation:isolate"/><path d="M693.15,316.71c1.44,3.74,11.92,35.22,11.92,35.22,2.44,6,5.64,26.08,13.92,26.08,6,0-7.67,6.87-11.85,6.87l-5.73,1s-13.95-55.4-18.61-71.14l9.57.4A9.18,9.18,0,0,1,693.15,316.71Z" fill="#e6e7e8" opacity="0.4" style="isolation:isolate"/><path d="M764,351.54l-19-33.76q-13.8-.88-27.61-1.63-73.35-3.79-146.71-3.78V426q45.78,0,91.55-.52c2.69,0,6.43-5.07,6.52-5.33l29-33.17,59.77-6.11c18.92,0,15.78-5.59,14.31-11A64.78,64.78,0,0,0,764,351.54Z" fill="#f1f2f2" opacity="0.4" style="isolation:isolate"/><path d="M666.85,412.7c-1.94,3.22-5.6,5.84-8.2,5.88-58.92.87-117.53.87-176.45,0-2.59,0-6.26-2.65-8.2-5.88-5.08-8.45-7.74-12.88-13.32-22.2-2.34-3.9-1.93-7.13,1-7.07,72.67,1.35,144.84,1.35,217.52,0,2.91-.06,3.32,3.16,1,7.07Z" fill="#3d3d3d"/><path d="M451.87,420.37c-26.16-.34-47.31-.8-71.81-1.34l-13.9-.3a12.27,12.27,0,0,1-8.73-3.6,7.91,7.91,0,0,1-2.24-5.74c.16-3.45.12-7,.08-10.44s-.08-7.18.08-10.82c.21-4.88,5.15-8.7,11.25-8.7h.31l19.52.44c12.17.29,23.67.55,37.84.79,5,.08,10.94,2.67,13.76,6,7.07,8.45,13.58,16.11,19.87,23.4,2.61,3,1.84,5.64,1.39,6.63-.62,1.36-2.39,3.64-7.23,3.64Z" fill="#eae9e7"/><path d="M366.6,382.86h.23c21.23.46,36.16.87,57.39,1.22,4,.07,9,2.23,11.18,4.82q9.84,11.76,19.91,23.44c2.2,2.55.73,4.6-3.25,4.6h-.14c-30.93-.4-54.76-1-85.68-1.63-4.29-.1-7.76-2.7-7.62-5.77.31-7.09-.16-14.17.15-21.26C358.91,385.28,362.44,382.86,366.6,382.86Zm0-6.86h0c-7.93,0-14.38,5.26-14.68,12-.16,3.73-.12,7.43-.08,11s.08,6.9-.07,10.25a11.31,11.31,0,0,0,3.16,8.25,15.71,15.71,0,0,0,11.16,4.68l13.91.3c24.5.54,45.66,1,71.83,1.34h.23c7,0,9.57-3.95,10.35-5.65,1.51-3.31.8-7.16-1.91-10.3-6.3-7.29-12.79-14.93-19.85-23.35-3.44-4.12-10.31-7.18-16.32-7.27-14.17-.24-25.67-.5-37.85-.79L367,376Z" fill="#686175" data-primary="true"/><path d="M366.6,382.86h.23c21.23.46,36.16.87,57.39,1.22,4,.07,9,2.23,11.18,4.82q9.84,11.76,19.91,23.44c2.2,2.55.73,4.6-3.25,4.6h-.14c-30.93-.4-54.76-1-85.68-1.63-4.29-.1-7.76-2.7-7.62-5.77.31-7.09-.16-14.17.15-21.26C358.91,385.28,362.44,382.86,366.6,382.86Zm0-6.86h0c-7.93,0-14.38,5.26-14.68,12-.16,3.73-.12,7.43-.08,11s.08,6.9-.07,10.25a11.31,11.31,0,0,0,3.16,8.25,15.71,15.71,0,0,0,11.16,4.68l13.91.3c24.5.54,45.66,1,71.83,1.34h.23c7,0,9.57-3.95,10.35-5.65,1.51-3.31.8-7.16-1.91-10.3-6.3-7.29-12.79-14.93-19.85-23.35-3.44-4.12-10.31-7.18-16.32-7.27-14.17-.24-25.67-.5-37.85-.79L367,376Z" opacity="0.3" style="isolation:isolate"/><path d="M687.69,420.37c-4.84,0-6.61-2.28-7.23-3.64-.46-1-1.23-3.61,1.38-6.63,6.31-7.3,12.81-15,19.88-23.4,2.82-3.37,8.73-6,13.75-6,14.18-.24,25.67-.5,37.85-.79l19.52-.44h.31c6.09,0,11,3.82,11.25,8.7.16,3.64.12,7.29.08,10.82s-.08,7,.07,10.44a7.86,7.86,0,0,1-2.23,5.74,12.29,12.29,0,0,1-8.74,3.6l-13.9.3c-24.49.54-45.65,1-71.81,1.34Z" fill="#eae9e7"/><path d="M773.15,382.86c4.16,0,7.69,2.4,7.82,5.42.32,7.09-.16,14.17.16,21.26.13,3.07-3.33,5.67-7.62,5.76-30.92.67-54.75,1.24-85.68,1.64h-.14c-4,0-5.46-2.05-3.25-4.6q10.08-11.67,19.91-23.44c2.17-2.59,7.19-4.75,11.18-4.82,21.23-.35,36.15-.76,57.38-1.22Zm0-6.86h-.39l-19.5.44c-12.17.29-23.67.55-37.84.79-6,.09-12.88,3.15-16.33,7.27-7.07,8.44-13.56,16.08-19.84,23.35-2.71,3.14-3.43,7-1.91,10.3.77,1.7,3.34,5.65,10.35,5.65h.23c26.2-.34,47.39-.8,71.92-1.34l13.82-.3a15.77,15.77,0,0,0,11.16-4.68,11.31,11.31,0,0,0,3.16-8.25c-.15-3.35-.11-6.7-.07-10.24s.08-7.28-.09-11c-.29-6.72-6.74-12-14.67-12Z" fill="#686175" data-primary="true"/><path d="M773.15,382.86c4.16,0,7.69,2.4,7.82,5.42.32,7.09-.16,14.17.16,21.26.13,3.07-3.33,5.67-7.62,5.76-30.92.67-54.75,1.24-85.68,1.64h-.14c-4,0-5.46-2.05-3.25-4.6q10.08-11.67,19.91-23.44c2.17-2.59,7.19-4.75,11.18-4.82,21.23-.35,36.15-.76,57.38-1.22Zm0-6.86h-.39l-19.5.44c-12.17.29-23.67.55-37.84.79-6,.09-12.88,3.15-16.33,7.27-7.07,8.44-13.56,16.08-19.84,23.35-2.71,3.14-3.43,7-1.91,10.3.77,1.7,3.34,5.65,10.35,5.65h.23c26.2-.34,47.39-.8,71.92-1.34l13.82-.3a15.77,15.77,0,0,0,11.16-4.68,11.31,11.31,0,0,0,3.16-8.25c-.15-3.35-.11-6.7-.07-10.24s.08-7.28-.09-11c-.29-6.72-6.74-12-14.67-12Z" opacity="0.3" style="isolation:isolate"/><path d="M705.55,447c-47.73,1.92-87.58,2.89-135.31,2.9s-87.59-1-135.32-2.9c-4.33-.18-8,1.62-7.88,7,.22,10.19,2.72,17.83,7.44,29.44,2.2,4.55,4.78,8.57,10.51,8.93,47.64,3,81.47,2.8,125.25,2.8s77.6.17,125.24-2.8c5.73-.36,8.31-4.38,10.51-8.93,4.72-11.61,7.22-19.25,7.44-29.44C713.54,448.61,709.88,446.81,705.55,447Z" fill="#2f2e41"/><path d="M768.35,444.06c-14.55.78-23.48,1-36.48,1.52-6.81.26-7.58,6-7.58,6L718.81,485s-1.72,6.71,8.1,6.67a266.69,266.69,0,0,0,32.08-2c11.92-1.53,15.67-27.49,17.35-38.61C777.15,445.62,772.68,443.82,768.35,444.06Z" fill="#2f2e41"/><path d="M372.12,444.06c14.55.78,23.48,1,36.48,1.52,6.81.26,7.58,6,7.58,6L421.66,485s1.72,6.71-8.1,6.67a266.69,266.69,0,0,1-32.08-2c-11.92-1.53-15.67-27.49-17.35-38.61C363.32,445.62,367.79,443.82,372.12,444.06Z" fill="#2f2e41"/><path d="M434.92,461.73c47.73,1.92,87.58,2.88,135.32,2.89s87.58-1,135.31-2.89c2.82-.12,5.35.61,6.75,2.63A57.23,57.23,0,0,0,713.43,454c.11-5.41-3.55-7.21-7.88-7-47.73,1.92-87.58,2.89-135.31,2.9s-87.59-1-135.32-2.9c-4.33-.18-8,1.62-7.88,7a57.11,57.11,0,0,0,1.13,10.34C429.57,462.34,432.1,461.61,434.92,461.73Z" opacity="0.2" style="isolation:isolate"/><path d="M728.28,461.12c16-.6,27-.91,44.83-1.88a15.06,15.06,0,0,1,1.9,0c.56-3.15,1-6,1.33-8.27.81-5.36-3.66-7.16-8-6.92-14.55.78-23.48,1-36.48,1.52-6.81.26-7.58,6-7.58,6L722.42,463A10.27,10.27,0,0,1,728.28,461.12Z" opacity="0.2" style="isolation:isolate"/><path d="M372.12,444.06c14.55.78,23.48,1,36.48,1.52,6.81.26,7.58,6,7.58,6L421.66,485s1.72,6.71-8.1,6.67a266.69,266.69,0,0,1-32.08-2c-11.92-1.53-15.67-27.49-17.35-38.61C363.32,445.62,367.79,443.82,372.12,444.06Z" fill="#2f2e41"/><path d="M365.77,460.93c1.76-1.68,4.63-2.29,7.44-2.14,16.53.89,26.67,1.18,41.43,1.74a10.91,10.91,0,0,1,3.1.54l-1.56-9.48s-.77-5.75-7.58-6c-13-.48-21.93-.74-36.48-1.52-4.33-.24-8.8,1.56-8,6.92C364.53,453.63,365.05,457.13,365.77,460.93Z" opacity="0.2" style="isolation:isolate"/><path d="M666.85,412.7c-1.94,3.22-5.6,5.84-8.2,5.88-58.92.87-117.53.87-176.45,0-2.59,0-6.26-2.65-8.2-5.88-5.08-8.45-7.74-12.88-13.32-22.2-2.34-3.9-1.93-7.13,1-7.07,72.67,1.35,144.84,1.35,217.52,0,2.91-.06,3.32,3.16,1,7.07Z" fill="#2f2e41"/><path d="M461.37,391.66c72.85,1.25,145.27,1.25,218.11,0l.7-1.16c2.33-3.91,1.92-7.13-1-7.07-72.68,1.35-144.85,1.35-217.52,0-2.92-.06-3.33,3.17-1,7.07Z" opacity="0.2" style="isolation:isolate"/><g opacity="0.6"><path d="M626.53,301.38a1.84,1.84,0,0,1-1.92,2.21l-47-.66a2.56,2.56,0,0,1-2.48-2.3l-6.59-74.76a2,2,0,0,1,1.7-2.26l.21,0h1c13.93,0,40.38.38,40.38.38a2.8,2.8,0,0,1,2.65,2.29Z" fill="#f1f2f2"/></g><g opacity="0.6"><path d="M690.48,304a1.33,1.33,0,0,1-.44,1.83,1.36,1.36,0,0,1-.95.17L655,304.54a3.23,3.23,0,0,1-2.83-2.32l-18.66-75.59a1.64,1.64,0,0,1,1-2.07,1.61,1.61,0,0,1,.69-.07l19.56.7a3.93,3.93,0,0,1,3.17,2.2Z" fill="#f1f2f2"/></g><g opacity="0.6"><path d="M450.93,306.27,457,306a3.51,3.51,0,0,0,2.91-2.2l26.53-78a1.41,1.41,0,0,0-.66-1.88,1.43,1.43,0,0,0-.84-.12l-16.69.74h-.06a11.32,11.32,0,0,0-1,2l-33.36,78.75a1.26,1.26,0,0,0,1.35,1.9S444.94,306.59,450.93,306.27Z" fill="#e6e7e8"/></g><ellipse cx="718.95" cy="403.28" rx="8.7" ry="8.13" fill="#3d3d3d" opacity="0.3" style="isolation:isolate"/><ellipse cx="752.58" cy="399.8" rx="12.42" ry="11.61" fill="#3d3d3d" opacity="0.3" style="isolation:isolate"/><ellipse cx="417.87" cy="403.28" rx="8.7" ry="8.13" fill="#3d3d3d" opacity="0.3" style="isolation:isolate"/><ellipse cx="384.24" cy="399.8" rx="12.42" ry="11.61" fill="#3d3d3d" opacity="0.3" style="isolation:isolate"/><g opacity="0.5"><path d="M731.84,416.2c12.69-.26,13.62.19,27.81-.11l-10.54-32.23c-13.62.32-13.53-.13-27.81.12Z" fill="#fafafa"/></g><g opacity="0.5"><path d="M378.71,383.12l10.69,32.69c12.05.26,23.49.5,35.43.71l-10.67-32.61C401.72,383.67,391,383.41,378.71,383.12Z" fill="#fafafa"/></g><g opacity="0.4"><path d="M767.19,300.84c-2.09,0-3.81,1.16-3.81,2.57s1.72,2.58,3.81,2.58h26.42a3.83,3.83,0,0,1,3.81,3.81v1c0,2.1,1.25,3.81,2.76,3.81s2.76-1.71,2.76-3.81v-6.12a3.83,3.83,0,0,0-3.81-3.81Z" fill="#fafafa"/></g><g opacity="0.4"><path d="M360.4,300.84c2.1,0,3.81,1.16,3.81,2.57S362.5,306,360.4,306H344.22c-2.09,0-3.81-1.16-3.81-2.58s1.72-2.57,3.81-2.57Z" fill="#fafafa"/></g><g opacity="0.8"><path d="M734.54,386.92c-2.1,0-3.81,1.05-3.81,2.27s1.71,2.18,3.81,2.14l35.09-.61a3.75,3.75,0,0,1,3.81,3.69v9.13c0,2.1,1.07,3.81,2.37,3.81s2.36-1.71,2.36-3.81V390.05a3.75,3.75,0,0,0-3.75-3.75h-.06Z" fill="#fafafa"/></g><path d="M152.56,343.55c0-.44.06-.89.1-1.33a23,23,0,0,1,14.42-19.52l.22-.07v7.89a.45.45,0,0,1-.22.42,15.36,15.36,0,0,0-7,10.95A15.67,15.67,0,1,0,191,347.05a15.32,15.32,0,0,0-5.06-14.78.54.54,0,0,1-.16-.34v-8.51l.45.23a22.6,22.6,0,0,1,11.88,15.45,23,23,0,0,1-16.27,27.15,22.48,22.48,0,0,1-4.82.8h-2.78c-.86-.1-1.74-.16-2.6-.31a22.11,22.11,0,0,1-10-4.39,22.65,22.65,0,0,1-9-16.43c0-.44-.07-.89-.1-1.33Z" fill="#fff"/><path d="M172.84,327.36V317.24a3.56,3.56,0,0,1,2.15-3.46,3.66,3.66,0,0,1,5.21,3.3v20.58a3.67,3.67,0,0,1-3.46,3.64,3.71,3.71,0,0,1-3.86-3.15,5.34,5.34,0,0,1,0-.8Z" fill="#fff"/></svg>