<svg xmlns="http://www.w3.org/2000/svg" width="865.76" height="682.89" viewBox="0 0 865.76 682.89"><g style="isolation:isolate"><g id="add0b307-467c-4cb5-9412-8421ff3b4806" data-name="Layer 1"><rect x="3.98" width="858.93" height="442.95" fill="#dbe4eb"/><path d="M864.33,211.13v11.18H860.9V211.13h-2.81v11.18H829.64v8.09H819.13v1.35h-3.5v18H801.92V193.42H799.8v37.22H785.38V171.51H778V166h-1.67v-.84h-.67v-1.53H774.4V152.21h-.79l-.44-10h-.35l-.44,10h-.8v11.44h-1.24v1.53h-.68V166H768v5.49H747.43l-11.86,17.81v14.06h-6.48V216.3h-3.87c-.11.24-.21.47-.34.7v22.9h-7.52V229.72l-9.56-5.48V130.39H678V96.14h-20v34.25H644.15v63.42H631.5v-6.33h-.9v56.2h-4.76V205.89h-25.6v37.79H596v58.24h-1.58v-3.36h-4.32V145.83H569.17v95H558.66v1.56h-3.5V262.3H532.43v-40h-7.28V211.13h-2.81v11.18H518.9V211.13h-2.81v11.18H487.65v8.09H477.14v1.35h-3.5v18H459.93V193.42H457.8v37.22H443.39V177.08H401.73l-8.15,12.24v14.06H387.1V216.3h-3.88c-.11.24-.21.47-.33.7v22.9h-7.53V229.72l-9.55-5.48V130.39H336V96.14h-20v34.25H302.16v63.42H289.5v-6.33h-.9v56.2h-4.75V205.89h-25.6v34.92h-8.57v-95h-20.9v43.85h-25.5V199h-10.5v1.55h-3.51v20.65h-1V187.48h-.91v6.33H174.69V118.62H120.92V224.24l-9.55,5.48V239.9h-7.53V217c-.12-.23-.22-.46-.33-.7H99.63V203.38H93.16V189.32L81.3,171.51H60.73V166H59.07v-.84h-.68v-1.53H57.15v-.38l-2.83,0v.42H53.08v1.53H52.4V166H50.74v5.49H43.35v59.13H28.93V193.42H26.81v56.32H13.1v-18H9.59V230.4H4V442.49H865.76V211.13Zm-91.53-47.9h-.37V153h.37Zm.76,0h-.38V153h.38Z" fill="#a3b4c8" opacity="0.22" style="mix-blend-mode:multiply"/><rect x="1.11" y="441.53" width="861.79" height="239.89" fill="#f2f2f2"/><path d="M604,343.24l1,.44c8.78,4.11,74.94,35.17,80.9,41.18,0,0,2.7,4-2.23,8.66l-78.79-45S595.11,345.18,604,343.24Z" fill="#fff"/><path d="M358.33,482.08H452.2s5.95-29.45-17.51-45.84c0,0-13-10.4-38.37-7.05C396.32,429.19,353.86,432.91,358.33,482.08Z" fill="#2f2e41"/><path d="M358.33,482.08H452.2s5.95-29.45-17.51-45.84c0,0-13-10.4-38.37-7.05C396.32,429.19,353.86,432.91,358.33,482.08Z" opacity="0.2"/><path d="M687.42,481.46h93.22s7-53.45-46.61-53.92C734,427.54,684.16,426.77,687.42,481.46Z" fill="#2f2e41"/><path d="M687.42,481.46h93.22s7-53.45-46.61-53.92C734,427.54,684.16,426.77,687.42,481.46Z" opacity="0.2"/><path d="M781.11,498.56l-.47-17.1s.47-11.3-1.21-16.88h49.91s3,21.6,11.36,32.59Z" fill="#686175" data-primary="true"/><path d="M781.11,498.56l-.47-17.1s.47-11.3-1.21-16.88h49.91s3,21.6,11.36,32.59Z" fill="#231f20" opacity="0.2"/><path d="M828.4,464.54v-25.1a1.25,1.25,0,0,0-1.24-1.24h-2.84s5.16-2.72.54-8.42c0,0-8.83-14.47-21.19-20.38,0,0-29.83-15.88-117.83-24.54,0,0,3.07,3.35-2.23,8.66l-78.79-45s-9.49-3.35-.83-5.3c0,0-20.3-12.76-77.11-11.27,0,0-46.93-1-94.7,4.56l2.32,3.1a1.31,1.31,0,0,1-.55,2c-10.11,4.13-65.94,27.08-78.88,36l-9-1.42a1.92,1.92,0,0,1-1.62-1.89v-2.84l-34.92,3.73s-14.9.37-14.15,15.27v27.19s-4.84,0-4.1,10.06V459s-1.1,6.21,11.55,6h56.24s2.84-34.92,46.22-36.37a47.71,47.71,0,0,1,27.43,7.09c10.08,6.47,20.64,18.79,19.85,41.94,0,0-1.4,12.57-3.63,19.28H689.85s-10.71-33.8,9.68-55.6a51.75,51.75,0,0,1,45.82-12.57s28.49,2.89,34.08,35.86Z" fill="#686175" data-primary="true"/><path d="M295,401.62h14.55A10.62,10.62,0,0,1,320.08,410a31.36,31.36,0,0,1,.32,7.94l-25-.34Z" fill="#fff"/><path d="M322.45,391.17s4.31,6.62,4,9.94l206.16,1.34L675.14,406l98.5,6S713.17,401.08,673,399.16c0,0-12.16-11.32-21.47-14.67,0,0,4.85,7.13-1.93,11.41a10.87,10.87,0,0,1-6.35,1.49L617.58,396s-64.72-3.08-89.86-2S322.45,391.17,322.45,391.17Z" fill="#231f20" opacity="0.2"/><g opacity="0.2"><path d="M460.81,463.93H460c.55-39.14-39.76-47.56-40.17-47.64l-.31-.06-.86-12.89.83-.06.82,12.26C424.12,416.41,461.34,426,460.81,463.93Z" fill="#231f20"/></g><g opacity="0.2"><path d="M536,464.28l-.82-.15c5-26.44-1.33-59.58-1.4-59.91l.83-.16C534.62,404.39,540.94,437.69,536,464.28Z" fill="#231f20"/></g><g opacity="0.2"><path d="M675.5,464.68l-.8-.22c.09-.35,9.77-35.14,1.53-56.91l.78-.3C685.35,429.29,675.6,464.33,675.5,464.68Z" fill="#231f20"/></g><path d="M359.07,465s-1.43,23.51,1.14,32.95l-78.71-.57,12.88-33.77a11.8,11.8,0,0,0,5.84,1.2Z" fill="#686175" data-primary="true"/><path d="M359.07,465s-1.43,23.51,1.14,32.95l-78.71-.57,12.88-33.77a11.8,11.8,0,0,0,5.84,1.2Z" fill="#231f20" opacity="0.2"/><path d="M291.49,457.79l-4.21.08a2.89,2.89,0,0,0-2.89,2.89v7.07a2.89,2.89,0,0,0,2.89,2.89l4.39,0,2.71-7.19S291.68,462.07,291.49,457.79Z" fill="#686175" data-primary="true"/><path d="M291.49,457.79l-4.21.08a2.89,2.89,0,0,0-2.89,2.89v7.07a2.89,2.89,0,0,0,2.89,2.89l4.39,0,2.71-7.19S291.68,462.07,291.49,457.79Z" fill="#fff" opacity="0.2"/><path d="M344.45,371.45l6.81-.29,80.92-34.63,2.32,3.1s.81.7-.55,2c0,0-53.18,21.15-78.88,36l-9-1.42S343.76,376.48,344.45,371.45Z" fill="#fff"/><path d="M306.55,347.13l5.34,31.51s13.09,1.87,22.43-.8L322.57,346.6Z" fill="#686175" data-primary="true"/><path d="M306.55,347.13l5.34,31.51s13.09,1.87,22.43-.8L322.57,346.6Z" fill="#231f20" opacity="0.2"/><path d="M276,334.86l2,7.54,28.49,7,16.48-.56a31.06,31.06,0,0,0,7.27-13.41Z" fill="#686175" data-primary="true"/><path d="M276,334.86l2,7.54,28.49,7,16.48-.56a31.06,31.06,0,0,0,7.27-13.41Z" fill="#fff" opacity="0.2"/><path d="M289.53,475.87H311a4.15,4.15,0,0,1,4.15,4.15h0a4.15,4.15,0,0,1-4.12,4.15l-24.82.59Z" fill="#231f20" opacity="0.2"/><polygon points="460.81 484.08 468.41 479.41 668.89 479.41 677.95 484.08 460.81 484.08" fill="#fff" opacity="0.2"/><path d="M831.6,475.65l-19.3.49a4.32,4.32,0,0,0-4.19,4.31h0a4.3,4.3,0,0,0,4.45,4.31l21.54-.7S833,481.15,831.6,475.65Z" fill="#231f20" opacity="0.2"/><path d="M453.09,410.29a7,7,0,0,1-1.8,3.28,6.86,6.86,0,0,1-4.83,2h-7.69a6.81,6.81,0,0,1-6.65-5.27Z" fill="#fff" opacity="0.2"/><path d="M572.1,410.29a7,7,0,0,1-1.8,3.28,6.86,6.86,0,0,1-4.83,2h-7.69a6.81,6.81,0,0,1-6.65-5.27Z" fill="#fff" opacity="0.2"/><path d="M418.59,390.68V375.86a5.71,5.71,0,0,1,3-5l47-25.86a6.68,6.68,0,0,1,2.89-.82L517,341.68l4.67,49.46Z" fill="#fff" opacity="0.2"/><path d="M431.7,365.1s.23,7.55-3.43,8.92c0,0,9.37,9.14,7.32,16.9l-17-.24V375.86s-.8-2.69,3-5Z" fill="#2f2e41" opacity="0.42"/><g opacity="0.2"><rect x="526.79" y="341.53" width="0.84" height="52.46" transform="translate(-42.4 69.86) rotate(-7.29)" fill="#231f20"/></g><path d="M641.86,390.76,539,391.05l-12.1-49.62,35.1,1.82s2.68.42,6.6,1.33A92.6,92.6,0,0,1,582.91,349a47.29,47.29,0,0,1,7.22,3.63l46.81,24.8a8.3,8.3,0,0,1,4.4,6.64Z" fill="#fff" opacity="0.2"/><path d="M645.28,381.3l-12.18-.23L633,377.6l-5.08.14-.37,3.35s-7.68-1.54-8.11,3.61L617.58,396l27.92,1.67s12.26-3.44,6-13.22l0,0A7.9,7.9,0,0,0,645.28,381.3Z" fill="#2f2e41"/><path d="M529.12,350.22a6.76,6.76,0,0,1,6.84-6s7.68-.83,8,7.55l-.14,12.15s-.14,3.07-2.51,3.63L541,370.2s8.1,3.35,7.68,20.95l-9.66-.1Z" fill="#2f2e41" opacity="0.42"/><path d="M799.92,414.62a34.37,34.37,0,0,0-14.57-2.08c-5.66.52-11.71,2.7-10.63,9.79,0,0-.4,11.49,26.64,14.3,0,0,21.3.84,21.86-3.65C823.22,433,824.69,423.43,799.92,414.62Z" fill="#fff"/><circle cx="405.26" cy="475" r="40.23" transform="translate(-121.34 139.51) rotate(-17.03)" fill="#2f2e41"/><polygon points="406.3 481.19 408.37 480.33 416.49 501.61 415.67 501.95 406.3 481.19" fill="#ccc"/><polygon points="404.26 470.47 402.2 471.33 394.07 450.05 394.9 449.71 404.26 470.47" fill="#ccc"/><polygon points="410.64 474.81 409.78 472.75 431.06 464.62 431.4 465.44 410.64 474.81" fill="#ccc"/><polygon points="399.92 476.85 400.78 478.91 379.5 487.04 379.16 486.21 399.92 476.85" fill="#ccc"/><polygon points="409.79 478.9 410.65 476.83 431.44 486.13 431.1 486.96 409.79 478.9" fill="#ccc"/><polygon points="400.77 472.76 399.92 474.82 379.13 465.53 379.47 464.7 400.77 472.76" fill="#ccc"/><polygon points="408.35 471.32 406.28 470.46 415.58 449.67 416.41 450.01 408.35 471.32" fill="#ccc"/><polygon points="402.21 480.34 404.28 481.19 394.98 501.98 394.15 501.64 402.21 480.34" fill="#ccc"/><polygon points="408.27 480.4 409.85 478.82 425.47 495.39 424.84 496.02 408.27 480.4" fill="#ccc"/><polygon points="402.29 471.26 400.71 472.84 385.09 456.27 385.72 455.64 402.29 471.26" fill="#ccc"/><polygon points="409.85 472.84 408.27 471.26 424.84 455.64 425.47 456.27 409.85 472.84" fill="#ccc"/><polygon points="400.71 478.82 402.29 480.4 385.72 496.02 385.09 495.39 400.71 478.82" fill="#ccc"/><polygon points="410.62 476.95 410.62 474.71 433.39 475.38 433.39 476.28 410.62 476.95" fill="#ccc"/><polygon points="399.94 474.71 399.94 476.95 377.17 476.28 377.17 475.38 399.94 474.71" fill="#ccc"/><polygon points="406.4 470.49 404.16 470.49 404.83 447.72 405.73 447.72 406.4 470.49" fill="#ccc"/><polygon points="404.16 481.17 406.4 481.17 405.73 503.94 404.83 503.94 404.16 481.17" fill="#ccc"/><path d="M405.25,484.36h0a.77.77,0,0,1-.76-.77h0a.76.76,0,0,1,.76-.76h0a.77.77,0,1,1,0,1.53Zm4.28-1.14h0a.8.8,0,0,1-.67-.38h0a.79.79,0,0,1,.28-1h0a.78.78,0,0,1,1.05.29h0a.75.75,0,0,1-.28,1A.67.67,0,0,1,409.53,483.22Zm-8.54,0h0a.75.75,0,0,1-.38-.1h0a.76.76,0,0,1-.28-1h0a.76.76,0,0,1,1-.28h0a.76.76,0,0,1-.38,1.42Zm11.66-3.11h0a.76.76,0,0,1-.38-.11h0a.75.75,0,0,1-.27-1h0a.76.76,0,0,1,1-.29h0a.78.78,0,0,1,.28,1.05h0A.79.79,0,0,1,412.65,480.1Zm-14.78,0h0a.76.76,0,0,1-.67-.39h0a.77.77,0,0,1,.28-1h0a.77.77,0,0,1,1,.28h0a.76.76,0,0,1-.29,1A.7.7,0,0,1,397.87,480.09Zm15.94-4.25h0a.78.78,0,0,1-.77-.77h0a.76.76,0,0,1,.77-.76h0a.76.76,0,0,1,.76.76A.77.77,0,0,1,413.81,475.84Zm-17.09,0h0a.75.75,0,0,1-.76-.76h0v0h0a.75.75,0,0,1,.76-.76h0a.77.77,0,0,1,.77.76h0v.05A.77.77,0,0,1,396.72,475.81Zm16-4.25h0a.76.76,0,0,1-.67-.38h0a.75.75,0,0,1,.29-1h0a.74.74,0,0,1,1,.28h0a.75.75,0,0,1-.28,1A.69.69,0,0,1,412.68,471.56Zm-14.8,0h0a.76.76,0,0,1-.38-.11h0a.77.77,0,0,1-.28-1h0a.77.77,0,0,1,1-.27h0a.76.76,0,0,1,.27,1A.77.77,0,0,1,397.88,471.52Zm11.68-3.09h0a.68.68,0,0,1-.39-.11h0a.77.77,0,0,1-.28-1h0a.78.78,0,0,1,1.05-.27h0a.75.75,0,0,1,.27,1A.74.74,0,0,1,409.56,468.43Zm-8.54,0h0a.74.74,0,0,1-.66-.39h0a.75.75,0,0,1,.28-1h0a.76.76,0,0,1,1,.28h0a.78.78,0,0,1-.66,1.15Zm4.26-1.13h0a.76.76,0,0,1-.75-.77h0a.76.76,0,0,1,.76-.76h0a.77.77,0,0,1,.77.76A.78.78,0,0,1,405.28,467.28Z" fill="#4a4a4a"/><path d="M391.05,475.05a14.22,14.22,0,1,0,14.21-14.21A14.22,14.22,0,0,0,391.05,475.05Z" fill="#ccc"/><circle cx="405.26" cy="475.05" r="11.37" transform="translate(-217.21 425.7) rotate(-45)" fill="#2f2e41"/><circle cx="405.26" cy="475.05" r="9.89" transform="translate(-150.48 759.76) rotate(-76.66)" fill="#ccc"/><path d="M402,475.05a3.27,3.27,0,1,0,3.26-3.26A3.26,3.26,0,0,0,402,475.05Z" fill="#2f2e41"/><path d="M405.26,445.23a29.83,29.83,0,1,0,29.83,29.82A29.82,29.82,0,0,0,405.26,445.23Zm0,57.15a27.33,27.33,0,1,1,27.33-27.33A27.33,27.33,0,0,1,405.26,502.38Z" fill="#ccc"/><circle cx="733.08" cy="476.37" r="40.23" transform="translate(-107.36 235.57) rotate(-17.03)" fill="#2f2e41"/><polygon points="734.12 482.55 736.18 481.69 744.31 502.97 743.48 503.31 734.12 482.55" fill="#ccc"/><polygon points="732.08 471.83 730.02 472.69 721.89 451.41 722.72 451.07 732.08 471.83" fill="#ccc"/><polygon points="738.46 476.17 737.6 474.11 758.88 465.98 759.22 466.81 738.46 476.17" fill="#ccc"/><polygon points="727.74 478.21 728.6 480.27 707.32 488.4 706.98 487.57 727.74 478.21" fill="#ccc"/><polygon points="737.61 480.26 738.47 478.19 759.25 487.5 758.91 488.32 737.61 480.26" fill="#ccc"/><polygon points="728.59 474.12 727.73 476.19 706.95 466.89 707.28 466.06 728.59 474.12" fill="#ccc"/><polygon points="736.17 472.68 734.1 471.83 743.4 451.04 744.23 451.38 736.17 472.68" fill="#ccc"/><polygon points="730.03 481.7 732.1 482.56 722.8 503.35 721.97 503 730.03 481.7" fill="#ccc"/><polygon points="736.09 481.76 737.67 480.18 753.29 496.75 752.66 497.38 736.09 481.76" fill="#ccc"/><polygon points="730.11 472.62 728.53 474.2 712.91 457.63 713.54 457 730.11 472.62" fill="#ccc"/><polygon points="737.67 474.2 736.09 472.62 752.66 457 753.29 457.63 737.67 474.2" fill="#ccc"/><polygon points="728.53 480.18 730.11 481.76 713.54 497.38 712.91 496.75 728.53 480.18" fill="#ccc"/><polygon points="738.44 478.31 738.44 476.07 761.21 476.75 761.21 477.64 738.44 478.31" fill="#ccc"/><polygon points="727.76 476.07 727.76 478.31 704.99 477.64 704.99 476.75 727.76 476.07" fill="#ccc"/><polygon points="734.22 471.85 731.98 471.85 732.65 449.08 733.55 449.08 734.22 471.85" fill="#ccc"/><polygon points="731.98 482.53 734.22 482.53 733.55 505.3 732.65 505.3 731.98 482.53" fill="#ccc"/><path d="M733.07,485.72h0a.76.76,0,0,1-.76-.76h0a.76.76,0,0,1,.76-.77h0a.78.78,0,0,1,.77.77A.77.77,0,0,1,733.07,485.72Zm4.28-1.14h0a.78.78,0,0,1-.67-.38h0a.78.78,0,0,1,.28-1h0a.77.77,0,0,1,1,.28h0a.76.76,0,0,1-.66,1.14Zm-8.54,0h0a.76.76,0,0,1-.38-.11h0a.77.77,0,0,1-.29-1h0a.77.77,0,0,1,1.05-.28h0a.75.75,0,0,1,.27,1A.73.73,0,0,1,728.81,484.58Zm11.66-3.12h0a.86.86,0,0,1-.38-.1h0a.76.76,0,0,1-.27-1h0a.74.74,0,0,1,1-.28h0a.76.76,0,0,1,.29,1h0A.77.77,0,0,1,740.47,481.46Zm-14.78,0h0a.78.78,0,0,1-.67-.38h0a.78.78,0,0,1,.28-1.05h0a.76.76,0,0,1,1,.28h0a.75.75,0,0,1-.28,1A.62.62,0,0,1,725.69,481.45Zm15.94-4.25h0a.78.78,0,0,1-.77-.77h0a.76.76,0,0,1,.77-.76h0a.76.76,0,0,1,.76.76A.77.77,0,0,1,741.63,477.2Zm-17.09,0h0a.75.75,0,0,1-.76-.76h0v0h0a.75.75,0,0,1,.76-.76h0a.77.77,0,0,1,.77.76h0v.05A.76.76,0,0,1,724.54,477.17Zm16-4.24h0a.76.76,0,0,1-.67-.39h0a.76.76,0,0,1,.28-1h0a.76.76,0,0,1,1,.28h0a.75.75,0,0,1-.28,1A.7.7,0,0,1,740.5,472.93Zm-14.8-.05h0a.82.82,0,0,1-.39-.11h0a.77.77,0,0,1-.27-1h0a.76.76,0,0,1,1-.27h0a.76.76,0,0,1,.28,1A.78.78,0,0,1,725.7,472.88Zm11.68-3.09h0a.68.68,0,0,1-.39-.11h0a.76.76,0,0,1-.28-1h0a.77.77,0,0,1,1-.28h0a.76.76,0,0,1-.38,1.42Zm-8.54,0h0a.75.75,0,0,1-.66-.38h0a.76.76,0,0,1,.28-1.05h0a.75.75,0,0,1,1,.28h0a.77.77,0,0,1-.65,1.15Zm4.26-1.13h0a.76.76,0,0,1-.75-.77h0a.76.76,0,0,1,.76-.76h0a.77.77,0,0,1,0,1.53Z" fill="#4a4a4a"/><path d="M718.87,476.41a14.22,14.22,0,1,0,14.21-14.21A14.22,14.22,0,0,0,718.87,476.41Z" fill="#ccc"/><circle cx="733.08" cy="476.41" r="11.37" transform="translate(-122.16 657.91) rotate(-45)" fill="#2f2e41"/><circle cx="733.08" cy="476.41" r="9.89" transform="translate(100.37 1079.78) rotate(-76.66)" fill="#ccc"/><path d="M729.82,476.41a3.27,3.27,0,1,0,3.26-3.26A3.26,3.26,0,0,0,729.82,476.41Z" fill="#2f2e41"/><path d="M733.08,446.59a29.83,29.83,0,1,0,29.82,29.82A29.82,29.82,0,0,0,733.08,446.59Zm0,57.16a27.34,27.34,0,1,1,27.33-27.34A27.34,27.34,0,0,1,733.08,503.75Z" fill="#ccc"/><path d="M577.49,377.51s8.81,6.38,11.64,6.57L619,377.66l-.22,9.21s-16.49,3.7-16.89,4-19.83-.08-19.83-.08l-.92-6.92A14,14,0,0,0,577.49,377.51Z" fill="#f48225" data-secondary="true"/><path d="M619.63,379.46a10.39,10.39,0,0,1,11.91-4.2s3.91,1,3.51,5.89l-1.95-.06-.09-1.58a1.84,1.84,0,0,0-1.82-1.73l-1.52,0a1.84,1.84,0,0,0-1.86,1.68l-.17,1.87s-7,0-8.84,4.06l0-5.61Z" fill="#f9b499"/><path d="M548.67,391.15l37.58-.28-1.82-8.24c-2.93-9.08-21.09-11.18-21.09-11.18-10.76,4.05-15.37,11-15.37,11A26.44,26.44,0,0,1,548.67,391.15Z" fill="#f48225" data-secondary="true"/><polygon points="561.52 369.64 562.08 358.88 575.49 357.2 574.51 381.51 561.52 369.64" fill="#f9b499"/><path d="M578.37,370.94c-5.29,1.1-10.92-4.38-12.59-12.28-1.2-5.71,0-11.11,2.82-14.08A92.6,92.6,0,0,1,582.91,349a19.43,19.43,0,0,1,2,5.64C586.61,362.52,583.67,369.82,578.37,370.94Z" fill="#f9b499"/><path d="M553.28,343s-3.35,7.82.42,13.69c0,0,7.4,7.68,8,10.89,0,0,2.66.84,2.38-3.77a15.77,15.77,0,0,0-2-4.89s-1.82-2.3-1.14-4.37a2.24,2.24,0,0,1,2.89-1.34,4.5,4.5,0,0,1,1.49.94s3.19-5.15,6-4l-.42-5.17S560.13,341.84,553.28,343Z" fill="#2f2e41"/><path d="M562.08,379.14s-4.19-6.15-.56-9.5l14,12.71L574,383.61l-7.68-4.2Z" fill="#f48225" data-secondary="true"/><path d="M562.08,379.14s-4.19-6.15-.56-9.5l14,12.71L574,383.61l-7.68-4.2Z" opacity="0.2"/><path d="M574.51,381.51l.28-8.1s4.89.28,6.57,4.33l-2.54-.41a2.05,2.05,0,0,0-2.3,1.46l-1,3.56Z" fill="#f48225" data-secondary="true"/><path d="M574.51,381.51l.28-8.1s4.89.28,6.57,4.33l-2.54-.41a2.05,2.05,0,0,0-2.3,1.46l-1,3.56Z" opacity="0.2"/><path d="M455.93,408a2.32,2.32,0,0,1-2.32,2.32H431a2.32,2.32,0,0,1,0-4.64h22.66A2.32,2.32,0,0,1,455.93,408Z" fill="#2f2e41"/><path d="M574.94,408a2.32,2.32,0,0,1-2.32,2.32H550a2.32,2.32,0,0,1,0-4.64h22.66A2.32,2.32,0,0,1,574.94,408Z" fill="#2f2e41"/><ellipse cx="563.83" cy="356.72" rx="2.72" ry="4.12" transform="translate(-99.03 280.78) rotate(-25.78)" fill="#f9b499"/><path d="M273.26,467.9s1.6-4,5.73-1.44c0,0,1.55-1.78,2.28-.9,0,0,1.66.7-2.26,2.75,0,0-1,3.46-4,2.44,0,0-1-.24-1,1.18,0,0-3.51,5.13-7.44.67,0,0-4.12,8.58-12.57,8a11.72,11.72,0,0,1-3.3,4.55,10,10,0,0,1-11.58,1,17.89,17.89,0,0,1-1.77-1.2s-6.61,15-20.68,15.59c0,0-7.44.84-14.19-6.83,0,0-5.85,9.85-18.87,8,0,0-9.23-1.23-10.9-8.61,0,0-16.17,15.14-32,2.48,0,0-8.77-6.89-6.9-22.85,0,0-16.48,20-41.83,4.23,0,0-17-10.42-11.83-29.42,0,0-23.44,9.41-33.9-11.54,0,0-7.39-11.58,2.71-28.07,0,0-26.75-.84-29.08-27.13,0,0-4.39-19.26,22.51-33.18,0,0-37.92-14.32-14.65-63.39,0,0,21.66-43.4,63.12-27,0,0-7.83-17.58,13.1-32.65,0,0,11.68-9.93,30.51-1.38,0,0-4.62-17.59,22.47-35.39a57.72,57.72,0,0,1,26.14-9.51c11.6-1.11,26.34,1.19,34.62,16.86,0,0,20.64-32.61,50.81-21.79,0,0,17.26,5.67,17.51,21.89,0,0,18.22-2.81,29.25,10.15a26.86,26.86,0,0,1,6.27,17.35A28.76,28.76,0,0,1,312.57,244s26.63,1.33,21,31.89c0,0-4.92,23.39-32.6,25,0,0,24.09,22.32-4.48,50.95a55.16,55.16,0,0,1-36.6,13.91s9.76,11.26-1.28,23.49c0,0-6.65,8.8-15.73,8.74,0,0,18.36,5.25,14.75,24.34,0,0,.07,7.1-9.36,14.07,0,0,12.06-.52,13.72,12.63,0,0,2.48,4.91-5,13.17,0,0,6.47-4.06,9.79,5C266.74,467.23,269.36,464,273.26,467.9Z" fill="#e6e7e8"/><path d="M96.77,289s-5.43-15.75,13.48-31.3c0,0,12.88-10.86,28.83-2,0,0,4.51-30.83,41.18-27.62,0,0,12,.9,17.55,16.12,0,0,19.76-12.66,38,13.7,0,0,18.41,26.68-9.31,43.26,0,0,10.75,24.36-23.06,42.88,0,0-15.3,9.07-29.51.39,0,0,5,15.75-4.89,25.48-5.87,5.78-14.81,6.86-22.31,3.45a35.43,35.43,0,0,1-6.78-4.06s-8.66,19.38-24.41,19.59A14,14,0,0,1,105,384.43a21.82,21.82,0,0,1-5.59-11.89s-15.46,12.2-26.85-2.1c0,0-8.91-13.24,4-30.61,0,0-23.34-8-10.39-33.76C66.17,306.07,73.91,289.44,96.77,289Z" fill="#e0e0e0"/><path d="M150,394.19s12.29-23.2,27.51-10.89c0,0,10.24,5.71,2.23,18.61,0,0,14.75.76,5.91,25.45a14.18,14.18,0,0,1-7.3,8.22,10.47,10.47,0,0,1-10.94-1.06s4.68,14.31-4.48,18.11a10.67,10.67,0,0,1-9-.61,18.36,18.36,0,0,1-5.64-4.5s-5.24,9.92-14.85,4.12c0,0-7.33-2.53-5.06-10.72,0,0-11.82-1.48-13.8-12.27,0,0-2.21-10.62,10.57-15.73,0,0-6.74-15.11,6.22-22.43C131.44,390.49,138.1,384.1,150,394.19Z" fill="#e0e0e0"/><path d="M193.12,444.43s2.32-5,7.71-3.77c0,0,3.28.29,4.9,5.62,0,0,5.53,2.12,3.74,5.8,0,0-.34,3-5.34,3.24,0,0,3.51,3.86-1.48,7.83,0,0-2.5,1.75-7.29-.72,0,0-5.06,5.48-9.23,1.6a4.89,4.89,0,0,1,.92-6.79s-5.34-3.7-2-8.92A7.55,7.55,0,0,1,193.12,444.43Z" fill="#e0e0e0"/></g></g></svg>