<svg id="f99245fa-18c4-41cd-b823-4a14bfb00cf7" data-name="Layer 1" xmlns="http://www.w3.org/2000/svg" width="865.76" height="682.89" viewBox="0 0 865.76 682.89"><path d="M489.19,161.64s14.22,35.18,16.19,43.57a48.43,48.43,0,0,0,4.31,10.4,8.66,8.66,0,0,0,4,3.47,102.1,102.1,0,0,1,15.79,9L547,236.7s4.07,1,4.11,6.25a11.18,11.18,0,0,1-1.44,4.84c-1.08,2.18-3.12,5-6.25,3.85l-7.28-2.34s-11.36-2.1-26.3-9.64l-5.3-2.21a12.49,12.49,0,0,0-2.62-.76c-2-.34-5.84-1.52-6.91-5.63a16.22,16.22,0,0,0-2-4.73c-.11-.17-.22-.34-.34-.5a26.42,26.42,0,0,1-1.57-2.47c-2.57-4.66-9.49-17.27-10.4-19.88l1.11-7.76,3.69-12.63S489.91,175,489.19,161.64Z" fill="#f9b499"/><path d="M489,170l2,53.41s-8.22-14.69-10.4-19.88l.7-5.54,4.1-14.85A37.67,37.67,0,0,0,489,170Z" fill="#f4a68e"/><polygon points="290.31 252.07 290.54 250.78 294.8 249.5 294.8 250.73 291.75 252.4 290.31 252.07" fill="#f4a68e"/><path d="M592.91,265.26s1.52,2,1.33,3a4,4,0,0,0-1,.77Z" fill="#d1d3d4"/><path d="M596.62,270.2a6.18,6.18,0,0,1-.7,3.62l-1.16-.74A18.24,18.24,0,0,0,596.62,270.2Z" fill="#d1d3d4"/><path d="M386.09,513.45S377,484.23,383.84,479c0,0,6.08-4.6,11.72-2.52l7-1.79s-6.23,21-5.19,23.8c0,0-5.64,4.64-6.38,10.08Z" fill="#686175" data-primary="true"/><path d="M386.09,513.45S377,484.23,383.84,479c0,0,6.08-4.6,11.72-2.52l7-1.79s-6.23,21-5.19,23.8c0,0-5.64,4.64-6.38,10.08Z" opacity="0.1"/><path d="M401.05,217.29s2.76,12.63,4.24,17.08a21.68,21.68,0,0,1-1.25,11.4s-1.66,5-1.58,5.87a33.26,33.26,0,0,1,9.49.52l28.64,4.64s26.79,2.48,36-2.42a54.91,54.91,0,0,0-.6-9.64v-4.6s1.19-7.57,1.63-12c0,0,3-11.28,2.9-19.81,0,0,.49-4.73-12.56-8.71,0,0-15.4-9-60,12a17.73,17.73,0,0,0-4.7,3.14A13.22,13.22,0,0,0,401.05,217.29Z" fill="#f9b499"/><path d="M459.94,127s7.79-4.27,12.35,1.09a18.56,18.56,0,0,1,12,11.85L487.48,155Z" fill="#f9b499"/><path d="M430.86,81.25A6.64,6.64,0,0,1,427,82.52c-4.28,0-8.26-4.48-8.26-9.82s3.43-10.09,7.72-10.09c1.37,0,3.2,1,4.32,1.82a52.79,52.79,0,0,0,.09,16.82Z" fill="#f9b499"/><path d="M471.48,142.8c-9.13,6.12-27.81,1.64-27.81,1.64l-13.92-3.84c-.48-.13-1-.22-1.45-.31-5.63-1-10.95-4.89-10.95-4.89l-10-7.17c-1.28-1.18-7.32-2.79-7.32-2.79s16.77-4.6,21.22-14c0,0,6.5-11.54,3.53-29.78,0,0,4.15,1.2,6.1-.46,2.53,15.21,11.58,26.46,22.36,26.46a15.6,15.6,0,0,0,2.38-.18h0S454.32,115.75,453,119a3.13,3.13,0,0,0,.89,3.36l3.42,4.11a2.55,2.55,0,0,0,2.13,1,2.16,2.16,0,0,0,.49-.11,1.14,1.14,0,0,1,1.06.09,15.13,15.13,0,0,1,2.45,2.28l9.25,9.65S474.69,140.65,471.48,142.8Z" fill="#f9b499"/><path d="M398.78,126.16l1.23-.72a30.83,30.83,0,0,1,7.91,3l9.43,7a28.93,28.93,0,0,0,10.95,4.89l14.69,4s12.76,2.86,20,1.43c0,0,8.41-1,10.24-4.8a1.32,1.32,0,0,0-.54-1.53s-8.86-9.67-11.7-11.93l-3.64-1.77,3,.49a15.76,15.76,0,0,1,5.84,4.4l5.24,5.79s-5.54-7.86-8.85-10.09a4.6,4.6,0,0,1,2.47-.1s5.1,5.19,7.42,9.25c0,0,4.25,6.38,5.19,7.27,0,0,13.42,6.17,15.24,20.84,0,0,.1,1.24.07,3.25a42.79,42.79,0,0,1-7.55,23.68l-2.72,4a7.42,7.42,0,0,0-1.32,3.53v0l-.87,10.37s.34-4.56-12.63-8.73a21.12,21.12,0,0,0-4.16-.89,58.3,58.3,0,0,0-24.31,2.65s-11.36,2.89-20.7,6.45l-12.17,4.45s-4.16,2.38-5.49,5c0,0-3.71-10.39-7.57-26.56a14.91,14.91,0,0,1-1.78-6.23s4.67-1.42,10.89-10.08a57.47,57.47,0,0,0,9.81-23.06c.79-4.31,1.06-8.69-.37-10.93C412,140.43,406.31,130,398.78,126.16Z" fill="#686175" data-primary="true"/><path d="M398.78,126.16s-14.2-1-19.4,10c0,0-7.27,9.5-9.49,30,0,0-1.64,15.13-7.27,28.19,0,0-6.38,17.66-10.84,18.25,0,0-6.67.89-15.28,6.83,0,0-11.13,6.08-22.85,7.56,0,0-7.23-.38-11.72,1.32a3.34,3.34,0,0,1-1.77.18c-1.07-.19-3.45.12-7.88,3.84,0,0-14.49,7.57-17.16,12.52l3.61-.07s-.32-2.34.79-2.85c0,0,12.68-4.93,16.94-5.82l11.45-3.58s2-.36,2.68.73c0,0,3.46,3,2.76,6.49l1.29,3.27s1.38-1.49,6.23-1.88l11.67-.79s11.18,1.51,28-4.8a16.68,16.68,0,0,1,4.62-1.06,6.28,6.28,0,0,0,5.17-3.21,8.79,8.79,0,0,1,2.08-2.54,5.41,5.41,0,0,1,1-.66s1.38-.39,1.88-4.85c0,0,12.12-24.58,14.64-42.09a11.56,11.56,0,0,1,1.78,3.42s5-.51,12.47-12.33A57.73,57.73,0,0,0,412.05,153c1-4.69,1.5-9.83,0-12.6C412,140.43,405.57,129.41,398.78,126.16Z" fill="#f9b499"/><path d="M396.55,163.92c.07,1.88-4.72,15.19-6.63,17.16a19.33,19.33,0,0,1,1.78,3.42S397,178.07,396.55,163.92Z" fill="#f4a68e"/><path d="M476.58,254.38s-11.68,5.89-41,.55c0,0-8.31,60.54,8.51,91.2,0,0,27.7,57.58,22,75.58l-43.72,72.61s6.52-2.37,9.1-6.13c0,0,37.59-24.93,53-46.89,0,0,7.52-5.15,8.51-13.06,0,0,4.35-10.88,3-28.69,0,0,.5-52.72-11.08-79.13,0,0-3.56-7.92-3.75-15.63,0,0,.49-4.36-1-7.32,0,0-2.31-6.91-1.76-10.91a19.66,19.66,0,0,0,.21-2.3,63.41,63.41,0,0,0-.33-9.84S475.88,260.76,476.58,254.38Z" fill="#f48225" data-secondary="true"/><path d="M476.58,254.38s-11.68,5.89-41,.55c0,0-8.31,60.54,8.51,91.2,0,0,27.7,57.58,22,75.58l-43.72,72.61s6.52-2.37,9.1-6.13c0,0,37.59-24.93,53-46.89,0,0,7.52-5.15,8.51-13.06,0,0,4.35-10.88,3-28.69,0,0,.5-52.72-11.08-79.13,0,0-3.56-7.92-3.75-15.63,0,0,.49-4.36-1-7.32,0,0-2.31-6.91-1.76-10.91a19.66,19.66,0,0,0,.21-2.3,63.41,63.41,0,0,0-.33-9.84S475.88,260.76,476.58,254.38Z" opacity="0.2"/><path d="M391,508.61s-19.53,13-18.31,19.73l6.92,26s-1.63,21,23,31.12c0,0,10,2.24,10.78-2,0,0,2.24-3.66,2.24-7.11l-1.63-10.78s-1.62-7.94-1-11c0,0,1.14-19.55-.45-33.47,0,0-13.92.07-21.25-9C391.23,512.08,391.16,512.27,391,508.61Z" fill="#686175" data-primary="true"/><path d="M420.45,500.66l.19.26a8.14,8.14,0,0,1,.87,7.95l-8.44,19.88-.59-7.64s1.37-1.44,2.39-7.44C414.87,513.67,419.52,506,420.45,500.66Z" fill="#686175" data-primary="true"/><path d="M420.45,500.66l.19.26a8.14,8.14,0,0,1,.87,7.95l-8.44,19.88-.59-7.64s1.37-1.44,2.39-7.44C414.87,513.67,419.52,506,420.45,500.66Z" opacity="0.1"/><path d="M570.35,249.34s0,7.41-4,9.86a5.91,5.91,0,0,0-.77.54,4.59,4.59,0,0,0-.41.36,2.38,2.38,0,0,1-2.68.37,12.76,12.76,0,0,1-4.39-1.9,11.9,11.9,0,0,0-3.8-1.69c-3.6-.83-10.3-2.7-10.88-5.24,0,0,2.91,1.34,5.47-2.77a12,12,0,0,0,1.83-5.61c.14-2.33-.39-5.37-3.72-6.56,0,0,1.69-2,6,.77l2.52.74,4.38,1.77a9.63,9.63,0,0,0,4.38.64,6.74,6.74,0,0,1,4.3,1.15s1.42,1,1.79,4.16A15.5,15.5,0,0,1,570.35,249.34Z" fill="#f48225" data-secondary="true"/><path d="M595.8,276.37a13.44,13.44,0,0,1-4.75,0,3.12,3.12,0,0,0-1.74,0l-3.82,1.31s-1.7,1.26-4.23-1l-4.19-2.12a7.32,7.32,0,0,0-2.31-.73,3.68,3.68,0,0,1-1.59-.56s-1.41,0-2.67-2.75c0,0-2.58-9.3-4.92-10.89a5.91,5.91,0,0,1,.77-.54c4-2.45,4-9.86,4-9.86a15.5,15.5,0,0,0,0-3.41l6.08,2.67s4.75,1.41,6.83,9h-.07c-2.87-.07-5.2,1.17-5.58,4,0,.19-.11,1.28-.14,1.49,0,0,0,4.22,1.7,5,0,0,2.53,1,2.67,1.71,0,0,2.6-.82,3.64,0,0,0,.89-2.53,2.45-2.9l-.06-4.44a1.64,1.64,0,0,1,1.38-1.64h0a.89.89,0,0,1,1,.84l.09,1.75h0a2.09,2.09,0,0,1,2.53,1.83l.37,3.81s1.53-1.72,3-1.09a1.31,1.31,0,0,1,.62,1.8,15.16,15.16,0,0,1-2.12,3.3,5.49,5.49,0,0,1,1.82,1.3A1.24,1.24,0,0,1,595.8,276.37Z" fill="#f9b499"/><path d="M583.27,257.58s-4.73-.35-5.57,3.26c0,0-1.28,5.11,1.25,7.34,0,0,2.38.53,2.9,1.64a5.58,5.58,0,0,1,3.64,0,5.31,5.31,0,0,1,2.45-2.9v-4.75a1.32,1.32,0,0,1,.73-1.09Z" fill="#bcbec0"/><path d="M269.48,245.85s2.5-1.24,9.25-1.13l1.53,5.16-8.09,5Z" fill="#f48225" data-secondary="true"/><path d="M280.26,249.88s.73,3.31,3.51,3.76l29.38-10.38s.6-.4.2-3.57c0,0,.87-2.69-2.44-6.45a2.56,2.56,0,0,0-2-.85,8.23,8.23,0,0,0-1.68.28s-20.77,5.54-27.7,9.2c0,0-.66.06-.9,1.39a4.66,4.66,0,0,0,.2,2.34Z" fill="#d1d3d4"/><path d="M280.22,245.86s-2-.77-3,2.43c0,0-2,3.57-.66,5.83a3.67,3.67,0,0,0,2.13,2.8,1.56,1.56,0,0,0,1.18,0,7.69,7.69,0,0,0,3.87-3.25,3.14,3.14,0,0,1-1.78-.95S283.86,246.08,280.22,245.86Z" fill="#f9b499"/><path d="M290.91,239s-2.26-.38-3.69,3.09a4.21,4.21,0,0,0-1.43,3.36s-1.66,3.3-1.38,5.34c-.11.16-1.87,4.13,1.16,5.56a6.33,6.33,0,0,0,4.18-.11s3.53.11,4.3-1.76c0,0,.77-1.21,1.65.27,0,0,.77,1.93,2.2,1.66a2.39,2.39,0,0,0,2.19-1,2.11,2.11,0,0,1,1.43-.87,1,1,0,0,1,1,.35s3.67,1.44,5.65-3.68a2.7,2.7,0,0,1,.91-1.18,1.77,1.77,0,0,0,.17-.14,14.38,14.38,0,0,1,1.45-1.26,10.1,10.1,0,0,0,4-5.73l-1.29-3.27a6.87,6.87,0,0,1-.13,2.84,1.15,1.15,0,0,1-.69.94l-6.31,2.23s0-5.29-.66-6.72c0,0,.77-3.48,0-5.32a1.62,1.62,0,0,0-1.45-.93c-.84,0-2.09.13-2.34,1.24,0,0-2.87-2.15-4.68.11a12.39,12.39,0,0,0-1.27,5.17,18.76,18.76,0,0,0-1.32,6.83,8.25,8.25,0,0,0-.22,4.57L291.62,252l-1.15-.22a28.15,28.15,0,0,0,.6-4.24S295.42,238.65,290.91,239Z" fill="#f9b499"/><path d="M402.46,251.64s-4.85,11.56-10.17,18.46c0,0-27.18,26.24-21.16,57.82a46.81,46.81,0,0,0,9.28,20c6.76,8.63,25.37,24.86,38.71,42.22,0,0,17.8,26.3,11.16,34,0,0-23.91,20.19-27.63,49.93,0,0-6.92,21.11-5.31,24.44,0,0-8.88,6.91-6.11,13.55,0,0,6.38,9,21.25,9,0,0,1.33-1.33,2.39-7.44,0,0,4.52-7.44,5.58-13l28.42-44.1s12.48-11.15,13.81-17.79c0,0,5.05-7.44,6.11-12.75,0,0,4.25-9.3-.8-28.16,0,0-11.53-31.8-22.76-59.46a100.85,100.85,0,0,1-7.41-35.7c-.4-16.82.08-38.74,5.15-46.49C443,256.21,412.62,250.44,402.46,251.64Z" fill="#f48225" data-secondary="true"/><path d="M455.6,107.53s-1.41,9.35-2.75,11.8c0,0-.31,2.29,1.07,3l3.42,4.11a2.51,2.51,0,0,0,3.25.59s5.07-3.36,11.7,1c0,0,8.66,3.16,12,11.85,0,0,3.9-18-18.85-20.2a48.75,48.75,0,0,0,3.83-21.83S464.41,106,455.6,107.53Z" fill="#f48225" data-secondary="true"/><path d="M455.13,110.34s.5-2.62.75-4.84c0,0-13.8-.43-22.9-17C433,88.55,431.6,109.6,455.13,110.34Z" fill="#f4a68e"/><path d="M476.31,72.56c0,18.19-9.08,33.15-20.71,35a15.6,15.6,0,0,1-2.38.18c-10.78,0-19.83-11.25-22.36-26.46a52.79,52.79,0,0,1-.09-16.82c2.4-15.49,11.54-27,22.45-27C466,37.41,476.31,53.15,476.31,72.56Z" fill="#f9b499"/><path d="M366.77,180.93s2.18-4.94,3.36-17.21c0,0,3.57-26.31,15.44-34.42a21.26,21.26,0,0,1,13.21-3.14S419.4,122,424,106c0,0,4.26-12.56,1.44-23.39,0,0-10.74-5.69-4.21-16.38,0,0,2.19-3.12,5.17.07a8.11,8.11,0,0,1,1.35,2.1c.31.63,1,1.42,2.69.29,0,0,10.56-5.68,10.11-15.63A2.64,2.64,0,0,1,442,50.56c2.28-1.17,6.29-3.49,7.75-6a2.16,2.16,0,0,1,2.45-1,9.57,9.57,0,0,0,6.5-.21,1.86,1.86,0,0,1,2.21.44,3.94,3.94,0,0,0,3.95,1.33,3.49,3.49,0,0,1,3,1,19.31,19.31,0,0,1,4.37,6.27s2.26-6.62-4.82-14.75c0,0-6.31-11.43-25.27-9.78,0,0-8-.6-16.7,8.28,0,0-15.05-1.51-26,10.53,0,0-13.43,13.8-20.24,30.05a46,46,0,0,0-2.34,7.33,379.59,379.59,0,0,1-14.42,47A112,112,0,0,1,354.57,147C349.14,156.17,340.61,176.39,366.77,180.93Z" fill="#f48225" data-secondary="true"/><ellipse cx="270.83" cy="250.37" rx="1.61" ry="4.76" transform="translate(-52.09 72.17) rotate(-13.86)" fill="#f48225" data-secondary="true"/><ellipse cx="270.83" cy="250.37" rx="1.61" ry="4.76" transform="translate(-52.09 72.17) rotate(-13.86)" opacity="0.2"/><path d="M591.8,275.43l-2.4,12.09c-.35,1.74-.63,3.52-.85,5.26-2.09,17-13.76,106-37.88,191.74-13.86,49.28-29.34,88.54-46,116.69-20.51,34.61-42.93,52.55-66.7,53.32-.19,0-20.41,2.15-46.8-19.3-26.21-21.3-49.19-57.58-68.29-107.83C297.27,460.11,279.25,368.79,269.29,256a3.52,3.52,0,0,1,.26-1.67l.93-2.22a.38.38,0,0,0,.2-.33.39.39,0,0,0-.39-.39.38.38,0,0,0-.39.39.45.45,0,0,0,0,.16l-1.39,3.14v.43c10,113.17,28,204.76,53.69,272.23,19.15,50.36,42.21,86.73,68.52,108.09,22.07,17.91,39.91,19.48,45.46,19.48,1.14,0,1.76-.07,1.79-.07,24-.78,46.6-18.83,67.23-53.66,16.71-28.2,32.22-67.51,46.1-116.85,24.13-85.79,35.8-174.86,37.9-191.84.21-1.73.49-3.49.84-5.22l2.4-12.09Z" fill="#f48225" data-secondary="true"/></svg>