<svg id="e74b2aef-578d-40e7-b207-430bd89c1dc9" data-name="Layer 1" xmlns="http://www.w3.org/2000/svg" width="865.76" height="682.89" viewBox="0 0 865.76 682.89"><path d="M665.81,230.08c-5.66,31-19.5,63.44-32.79,89.58h0c9.75-3.58,19.32-10.1,27.34-17.41-1.28,9.71-6.05,17.24-7.94,26.94,12.07-5.17,21.18-15.4,28.1-21.78,1.17,7.91-1.32,16.4-2,24.3,9.17-7.24,15.07-12.89,18.7-24.53,2.38,7.93,6.61,18.62,12,24.73,2.1-5.84,6.84-15,8.75-25,6.64,7.33,11,16.47,20.11,20.78.06-9.12.11-16.27.16-25.4,8.48,4.92,15.12,12.26,24.84,14.76-1.78-6.09-5.59-13.79-7.81-20.75,6.51,7.2,15.79,9.85,23.68,11.73-12.07-15.28-22.37-35-31.4-51.47-7.82-12.82-9.49-27.6-15.49-40.41Z" fill="#48bb76"/><path d="M670.36,186.34c-3.79,21.85-17.38,55.21-29.67,74,8.53-3,17.08-9,25-13.22-.64,7.29-5,14.56-6.82,22.45,10.73-4.08,15.88-10.6,22.11-22.84,3,6.71,7.3,15.85,10.9,22,3.68-4.83,5.16-13.74,8.54-22.23a114.32,114.32,0,0,0,11.11,20.93c1.86-6.07,4-16.3,5.86-21.76,6,9.16,10.86,14.06,16.91,17.14,0-5.48.07-13.66-2.29-21.91a80.25,80.25,0,0,0,22.43,12.3c-12.62-24.7-17.4-39.84-23.29-66.42Z" fill="#4e9200"/><path d="M681.4,124.08c.52,13.69-4.15,31.3-8.49,43.73-4.76,15.06-8.69,28.22-20.35,44.56,8.23-3,15-9.63,22.59-13.53.25,6.67-1.62,13.37-2.88,19.73,5.84-8.16,12.26-15.42,18.09-23.59,2.69,8.53,1.7,19.46,5.61,27.4,2.5-10.32,7.11-19.11,10.83-29.12,6.6,13.72,10.21,18.31,16.56,23.52-2.36-11.27-1.72-15.82-2.88-23.13,6,7,13.57,15.9,23,18.09-7.18-16.76-12.25-33.22-17.31-50.88-3-10.36-9.82-31.08-16.42-46Z" fill="#6bc891"/><path d="M695.13,64.82c-4.34,4.76-5,13.18-6.84,19.18-4.93,16.31-7.79,33.78-14.55,49.46-3.39,7.88-7.1,16.68-12,23a53.69,53.69,0,0,0,18.62-13.26,70.4,70.4,0,0,1-2,21c4.91-6.66,9.21-15.14,12.61-23,2.07,8.83,3.69,15.52,5.47,23.74,4.62-8.49,5.39-11.82,7.61-24.57A132.89,132.89,0,0,0,715.62,162c.35-7.29.9-15.49-.88-22.49,5.14,5.2,12.82,14.75,16.61,16.53-6.71-12.68-12.47-25.94-16.05-39.76-2.92-11.38-6.39-22.62-9.36-34-1.06-4-4.69-18.71-8-18.73A3.63,3.63,0,0,0,695.13,64.82Z" fill="#48bb76"/><path d="M847.48,439.53c0-48.09-199.57-90.88-427.13-90.88s-412,39-412,87.09c0,10.14,8.21,19.87,23.29,28.92-5.89,10.18-7.84,24.42,5.95,41.77,0,0-4.92,103.52,338.68,131,0,0,432.07,36.63,455.4-178.33C840.41,452.13,847.48,444.89,847.48,439.53Z" fill="#8cd3ab"/><path d="M551.33,72.66c-6.18-15.22,18.07-13.32,22.35-1.42-1.9-6.66-4.28-15.7,3.33-20,6.18-3.8,14.74.48,14.74,7.61-1.43-18.54,22.35-22.35,20.45-2.38,10.93-10,20.45,2.38,14.74,13.79,10.94-14.74,16.64,8.56,11.89,18.08,4.75-10.47,21.87-10.47,13.79,0,10-5.71,28.53,3.32,14.74,11.88,13.79-4.28,12.84,22.35-3.8,21.87,10.45,5.24,1.42,29-10,24.26,11.89,6.65-7.14,19-15.69,11.41,4.27,14.74-30.91,22.35-32.82,4.28-6.66,18.07-52.3,3.8-38-10-4.28,11.42-26.15,4.28-31.86-1.42-5.23-4.76-10.46-24.25,1.43-22.35-25.2.47-4.28-37.57,7.61-26.16-5.23,4.76-10-2.85-9.51-8.08,0-4.75,9.51-17.12,12.83-10.46-12.83,5.71-10-21.4.48-12.36Z" fill="#6bc891"/><path d="M265.8,275c3.78,5.23,6.7,11.13,10.05,16.59,3.58,6.32,8.25,11.76,11.83,17.87-5.49.06-10.16-4.72-14.78-6.42a45.28,45.28,0,0,0,.06,12.08c.71,4.39,2.11,9.25,2.39,12.48-5.94-1.48-12.82-8.43-17.69-12.33-1.28,2.87-1.69,6.17-2.54,9.24-.63,2-2.51,8.58-4.06,10.37-.86,1-10.89-13.06-14-15.65-4.33,5.75-9.73,17.57-11.88,19.43-4-3.9-6.27-12.5-9.4-17.08-4.74,8.24-13,17.85-15.17,18.45-.9-3.07-1.75-20-1.75-20-1.75-.21-11.83,7.27-13.57,7.95-3.94,1.8-6.09,3.61-10.26,3.87,1.2-3.77,4.05-13.55,5.32-18.39-5.67,4-16.16,7.85-23,7.71,1.7-4.85,3.84-10.15,5.76-15-6.56,2.7-11.35,6.48-18.81,6.79,1.93-4.63,5.84-8.62,7.32-13.47-3.72,1.13-7.43,2.49-11.15,3.85,5-7.3,11.69-14.4,17.11-21.49,3.9-4.65,8-9.3,11.26-14.39,1.51-2.65,4.08-9.7,6.92-10.39Z" fill="#48bb76"/><path d="M250.52,235c3.11,11.71,16,35.53,24.69,44.41-.21-.22-3.85.44-4.43.4a16.17,16.17,0,0,1-5.44-1.51c-2.56-1.19-7.15-2.56-8.81-4.91,1,2.46,2.1,4.92,3.17,7.36s3,5.5,3.58,8.06c-2.5.35-11.17-5.51-15.63-11-.4,2.63.22,13.55-.57,16-2.79-.94-5.71-4.52-7.93-6.42-3.57-3.07-8.46-7.73-10.89-11.59,0,2.94-6.44,16.32-9.45,19.19-1.67-3.11-3.57-6.55-4.28-10-.42-2-2.52-9.19-2.52-9.19s-15,17.4-14.57,18.49a50.81,50.81,0,0,1-2.7-9.1c-.42-4.13-1.93-5.7-2.72-9.83-8.86,7.34-12.2,8.76-20.74,11.61,1.05-5.87,4.35-11.75,5.41-17.63-5.59.4-13,4.59-19,5,1.82-3.82,7.1-11.49,10-17.17,3.47-6.95,10.74-19.61,14-24.82,2.92-4.87-.24-1.08,4.57-4.59,3-2.45,10.42-1.48,14.51-1.88,6.32-1.1,13.74-4.28,20.46-3.66,9.31.23,16.86,8.79,25.46,11.8Z" fill="#4e9200"/><path d="M243.63,211c2.41,9.8,10.36,23.56,17.08,31h0c-6.35.64-11-4.5-16.24-7-.23,6.06,2.55,9.58,3.19,15.63-7.23-2.23-10.34-8.63-16.16-13.19-2.55,4.94-6.14,14.91-7.9,16.83-2.48-3.21-5.31-10.33-6.52-15.23-4.58,3.23-12.83,14.58-12.83,14.58a45.69,45.69,0,0,1-2.1-7.61c-.32-3.47-1.49-4.77-2.1-8.23-6.87,6.13-9.46,7.31-16.07,9.69.82-4.91,3.36-9.82,4.18-14.73-4.33.33-10.07,3.83-14.68,4.16,1.41-3.18,4.55-5.81,6.26-8.73,2.84-4.06,5.39-8.7,7.94-13.06,2.27-4.07,4.17-14.19,7.9-17.12,2.29-2.05,8.07-1.24,11.23-1.56,4.9-.92,10.66-3.58,15.85-3.05,7.22.2,13.07,7.36,19.73,9.89Z" fill="#6bc891"/><path d="M237,180.23c.07,6.64,4.2,15.17,6.86,20.62,3.53,6.89,6.48,13,11.44,17.87-6,.63-10.44-4.22-15.37-6.49-.81,4.64,1.54,9.23,1.59,13.84-6.71-4.73-9.34-10.28-15.14-12.82-3.42,5.94-6.79,13.35-6.79,13.35-2.93-4-4.71-9.19-6.2-13.5-3.16,2.06-11.42,12-11.42,12s-2.69-8.63-2.73-11.8c-3.71,2.92-6.84,7.27-11.15,9.64.25-3.76,2.52-7.24,2.77-11-3.74,1.48-7.75,3.83-11.5,4.74,5.72-5.55,10.53-15.12,13.63-22.08,2.26-4.94,3.87-15.35,7-19.13Z" fill="#48bb76"/><path d="M227,142.52c3.57,10.36,6.65,19.32,10.42,29.34,2.94,7.85,5.58,12.77,12.63,20.93-4.91-.23-9-3.37-13.05-5.92-.84,2.89-.23,6.35-.77,9-3.78-2-6.71-6-10.2-8.55-2.86,2.62-4,7.25-5.66,10.45-2.05-3.16-3.54-7.18-5-10.63-3.73,2.64-6.55,7.58-11.16,9.07a87.33,87.33,0,0,1-1.29-12.11c-4.87,2.95-9.16,6.45-15.21,7.95,3.38-7.25,7.91-17.11,10.13-24.64,1.67-5.5,5.59-17.37,6.39-23.16Z" fill="#4e9200"/><path d="M222.44,120.29c4.84,19.06,8.92,22.77,16,37.7-2.92-3.44-7.29-6.84-10.78-9.7-.82,4.63.1,9.53.15,14.44-3.5-3.44-5.28-8-8.78-11.17a83,83,0,0,1-5.65,11.32c-.91-4-1-8.36-2.44-12.39-2.86,2-5.43,5.54-8.87,7.6.55-3.18,1.66-6.37,2.5-9.55-3.45,2.63-6,5.55-10,7.61,6.53-10.17,9.4-16.81,14.24-31.59a216.33,216.33,0,0,0,7.65-26.38h0c.59,1.44.9,3.17,1.49,4.9Z" fill="#48bb76"/><path d="M835.56,305.35c3.79,5.23,6.7,11.13,10.05,16.58,3.58,6.33,8.25,11.77,11.83,17.88-5.49.06-10.15-4.73-14.78-6.43a45.35,45.35,0,0,0,.06,12.09c.71,4.38,2.11,9.24,2.4,12.47-6-1.47-12.83-8.42-17.69-12.32-1.29,2.86-1.7,6.16-2.54,9.24-.64,2-2.52,8.57-4.07,10.37-.86,1-10.89-13.06-14-15.66C802.5,355.32,797.1,367.14,795,369c-4-3.91-6.27-12.51-9.39-17.08-4.74,8.24-13,17.85-15.18,18.45-.9-3.07-1.74-20-1.74-20-1.76-.21-11.83,7.27-13.58,8-3.93,1.79-6.09,3.61-10.25,3.87,1.19-3.77,4-13.55,5.31-18.4-5.66,4-16.16,7.86-23,7.72,1.7-4.86,3.84-10.15,5.76-15-6.56,2.71-11.35,6.49-18.81,6.79,1.93-4.63,5.84-8.62,7.32-13.47-3.72,1.14-7.43,2.49-11.15,3.85,5-7.29,11.7-14.39,17.11-21.48,3.9-4.65,8-9.31,11.27-14.39,1.51-2.65,4.07-9.7,6.92-10.39Z" fill="#48bb76"/><path d="M820.28,265.37c3.12,11.71,16,35.53,24.69,44.41-.21-.22-3.85.44-4.42.39a15.93,15.93,0,0,1-5.45-1.51c-2.56-1.18-7.15-2.55-8.8-4.9,1,2.46,2.1,4.92,3.16,7.35s3,5.51,3.58,8.06c-2.5.35-11.17-5.5-15.63-11-.39,2.64.22,13.55-.57,16-2.79-.93-5.71-4.51-7.93-6.42-3.57-3.06-8.46-7.72-10.89-11.58,0,2.94-6.44,16.31-9.45,19.19-1.67-3.12-3.57-6.56-4.28-10-.42-2-2.51-9.19-2.51-9.19s-15,17.39-14.57,18.49a50.41,50.41,0,0,1-2.71-9.1c-.41-4.14-1.93-5.7-2.72-9.84-8.86,7.35-12.2,8.77-20.74,11.62,1.06-5.87,4.35-11.75,5.41-17.63-5.59.4-13,4.58-19,5,1.82-3.81,7.11-11.48,10-17.17,3.47-6.94,10.74-19.6,14-24.81,2.92-4.87-.23-1.09,4.57-4.59,3-2.45,10.42-1.49,14.51-1.88,6.33-1.1,13.74-4.28,20.46-3.67,9.31.24,16.86,8.8,25.46,11.81Z" fill="#4e9200"/><path d="M813.4,241.42c2.41,9.8,10.35,23.56,17.07,31h0c-6.34.64-11-4.51-16.24-7.05-.23,6.07,2.56,9.59,3.19,15.64-7.23-2.23-10.34-8.63-16.15-13.19-2.55,4.94-6.14,14.91-7.9,16.83-2.49-3.22-5.32-10.34-6.52-15.23C782.26,272.64,774,284,774,284a45.35,45.35,0,0,1-2.1-7.61c-.32-3.46-1.48-4.77-2.1-8.22-6.87,6.13-9.45,7.31-16.06,9.69.81-4.91,3.35-9.82,4.17-14.74-4.32.34-10.06,3.84-14.68,4.17,1.41-3.18,4.56-5.81,6.26-8.73,2.84-4.07,5.39-8.71,7.94-13.07,2.27-4.07,4.18-14.19,7.9-17.11,2.29-2.05,8.07-1.24,11.24-1.57,4.89-.91,10.65-3.57,15.85-3.05,7.21.21,13.06,7.36,19.72,9.89Z" fill="#6bc891"/><path d="M806.72,210.61c.07,6.64,4.2,15.16,6.86,20.62,3.53,6.89,6.48,13,11.45,17.87-6.06.63-10.44-4.23-15.38-6.49-.81,4.63,1.55,9.22,1.59,13.84-6.7-4.74-9.34-10.28-15.14-12.83-3.42,5.95-6.78,13.36-6.78,13.36-2.93-4-4.72-9.19-6.21-13.5-3.15,2.06-11.42,12-11.42,12S769,246.81,769,243.64c-3.72,2.91-6.85,7.27-11.16,9.64.25-3.76,2.52-7.25,2.77-11-3.74,1.48-7.75,3.83-11.5,4.73,5.72-5.54,10.53-15.11,13.63-22.08,2.26-4.93,3.87-15.34,7-19.12Z" fill="#48bb76"/><path d="M796.8,172.9c3.57,10.36,6.65,19.32,10.41,29.34,2.94,7.84,5.58,12.77,12.63,20.93-4.91-.24-9-3.37-13.05-5.92-.84,2.89-.23,6.35-.77,8.95-3.77-2-6.71-6-10.2-8.54-2.85,2.62-4,7.25-5.66,10.45-2-3.16-3.54-7.19-5-10.63-3.72,2.64-6.55,7.57-11.16,9.07a87.49,87.49,0,0,1-1.29-12.11c-4.87,2.94-9.16,6.44-15.21,7.95,3.39-7.25,7.91-17.12,10.13-24.64,1.67-5.5,5.59-17.38,6.39-23.16Z" fill="#4e9200"/><path d="M792.2,150.66c4.85,19.06,8.92,22.77,16,37.71-2.92-3.44-7.29-6.85-10.78-9.7-.82,4.63.1,9.53.15,14.44-3.5-3.44-5.28-8-8.78-11.17a82.4,82.4,0,0,1-5.65,11.32c-.91-4-1-8.36-2.44-12.39-2.86,2-5.42,5.54-8.87,7.6.55-3.18,1.67-6.37,2.5-9.55-3.44,2.63-6,5.55-10,7.61,6.53-10.18,9.4-16.81,14.25-31.6a215.93,215.93,0,0,0,7.64-26.37h0c.59,1.44.9,3.16,1.49,4.89Z" fill="#48bb76"/><path d="M92.19,282.31c-5.67,31-19.51,63.44-32.8,89.58h0c9.75-3.58,19.32-10.1,27.35-17.41-1.28,9.71-6.06,17.24-7.95,26.95,12.08-5.18,21.18-15.41,28.1-21.79,1.17,7.91-1.32,16.4-2,24.3,9.17-7.24,15.07-12.89,18.7-24.53,2.39,7.93,6.61,18.62,12,24.73,2.11-5.84,6.84-15,8.75-25,6.64,7.33,11,16.47,20.12,20.78.05-9.11.11-16.27.15-25.4,8.48,4.92,15.13,12.26,24.85,14.76-1.79-6.09-5.59-13.78-7.81-20.75,6.5,7.2,15.78,9.86,23.67,11.73C193.32,345,183,325.27,174,308.8c-7.83-12.82-9.5-27.6-15.49-40.41Z" fill="#48bb76"/><path d="M96.73,238.58c-3.79,21.85-17.38,55.2-29.66,74,8.53-3,17.08-9,25-13.22-.65,7.29-5,14.56-6.83,22.45,10.73-4.08,15.88-10.6,22.11-22.84a242.59,242.59,0,0,0,10.91,22c3.67-4.83,5.15-13.74,8.53-22.23a114.6,114.6,0,0,0,11.11,20.93c1.87-6.06,4-16.3,5.87-21.76,6,9.16,10.85,14.06,16.9,17.14,0-5.48.07-13.66-2.28-21.9a80.56,80.56,0,0,0,22.42,12.3c-12.61-24.71-17.39-39.84-23.29-66.43Z" fill="#4e9200"/><path d="M107.77,176.31c.52,13.69-4.14,31.3-8.49,43.73-4.76,15.06-8.69,28.22-20.35,44.56,8.23-3,15-9.63,22.59-13.53.25,6.67-1.61,13.37-2.88,19.74,5.84-8.17,12.26-15.43,18.09-23.6,2.69,8.53,1.7,19.46,5.61,27.4,2.5-10.32,7.12-19.11,10.83-29.12,6.6,13.72,10.21,18.31,16.57,23.52-2.36-11.27-1.73-15.82-2.89-23.13,6,7,13.57,15.9,23,18.09-7.18-16.76-12.25-33.22-17.3-50.88-3-10.36-9.83-31.08-16.43-46Z" fill="#6bc891"/><path d="M121.5,117.05c-4.34,4.76-5,13.19-6.84,19.18-4.93,16.31-7.79,33.78-14.54,49.46-3.4,7.88-7.11,16.68-12,23a53.56,53.56,0,0,0,18.62-13.26,70.08,70.08,0,0,1-2,21c4.91-6.66,9.21-15.14,12.62-23,2.07,8.83,3.69,15.53,5.46,23.74,4.62-8.49,5.4-11.82,7.62-24.57A132.24,132.24,0,0,0,142,214.23c.35-7.3.89-15.49-.88-22.5,5.14,5.2,12.81,14.75,16.61,16.53-6.71-12.68-12.48-25.94-16-39.76-2.93-11.38-6.4-22.62-9.36-34-1.06-4-4.7-18.71-8-18.72A3.66,3.66,0,0,0,121.5,117.05Z" fill="#48bb76"/><path d="M125.83,340.45c3.33-11.89-20.92-26.15-20-9.51-6.66-9.51-35.19-5.7-23.77,5.71-6.66-8.56-29-6.18-22.83,7.13-7.61,0-30.91,9-13.32,15.69-3.8.48-16.64,3.81-17.59,8.09C26,374.21,39.28,373.74,44,373.74c1.43,14.74,10,9.51,20.45,3.33-.48,4.28.47,10,4.75,11.89,7.61,2.85,8.09-5.24,13.32-6.19,4.75-.95,7.14,5.24,13.31,5.71,7.61.95,10.94-4.28,12.85-11.41,6.65,9,27.57,10,29.95-2.86,16.64,8.09,14.74-5.23,13.79-15.69-.47-7.13-2.85-28-12.84-12.84,3.81-4.28,4.76-8.56-1.9-9.51-3.8-.48-7.13,2.85-10,3.81Z" fill="#6bc891"/><path d="M699.69,314.36c-2.38-2.86-1.9-13.79,3.81-15.7,7.61-2.37,11.41,8.09,11.89,13.79,1.42-4.27,7.13-13.79,13.31-11.88,6.65,2.38,5.7,16.64,3.8,21.87,1.43-4.28,8.56-14.26,14.27-10.94,5.23,2.86,2.85,13.8,1,18.07,2.38-6.18,7.61-9,12.37-3.8,3.8,3.8,1.9,10.94,4.75,15.22.48-4.28,4.28-9.51,9-7.61,5.7,1.9,6.17,15.69,5.22,20.45.48-14.74,27.11-20.93,19,.95,6.18-10.94,17.59-7.61,12.84,4.75,13-3.56,20.95,3.19,20.07,17.08-.67,10.6-11.87,14.69-20.24,8.49,2.64,12.35-18.06,10.69-18.31,5,.38,8.68-8.28,12.66-15.37,8.71-2.26-1.27-2.78-3.17-5.15-2.86-1.51.2-2.49,2.75-5,2.76-1.19,0-10.09-4.69-9.66-5.35-6.36,9.94-13.4-7.35-14-12.07-10,3.11-18.75,8.42-29.81,6.77-9.51-1-15.69-9-24.25-10-10-.95-17.12,2.37-27.11-3.33-4.75-2.38-12.36-10-2.85-12.84-26.62,3.33-13.78-37.09,7.14-32.81-12.37-10,17.59-13.79,24.25-11.41Z" fill="#6bc891"/><path d="M294.55,152.55c-13.79,6.65-48.51-3.33-23.78-16.64-11.89,0-23.3-17.6-7.13-20.45-15.69-13.32,5.7-20.45,14.74-8.09-3.33-5.23-11.41-13.31-4.76-18.54,7.61-6.66,16.18,3.8,20.93,9-10.46-14.74,6.66-19.49,13.78-4.75C305,79.32,322.6,85.5,324,96.44c.48-7.13-7.61-16.17-3.8-22.83,4.28-5.7,12.83-1.42,16.64,1.9-14.74-9,2.85-33.28,10.46-12.83-3.33-5.71,0-17.6,7.61-18.55,7.13-1,8.08,7.61,9,13.31,3.81-18.54,20.93-7.6,25.68,3.33-.95-8.08,10.46-9.51,16.65-6.65,7.6,3.32,9.51,11.41,10.46,19,2.85-4.76,11.41-7.14,16.16-4.76,6.19,2.86,7.61,10.46,9.52,15.69,0-10,8.55,9.51,8.55,14.27.48,19.49-14.74,46.6-32.81,54.68-2.85,1.43-5.7,1.43-7.61,3.33-3.32,3.33-2.85,8.09-7.61,11.42-10,6.18-19.49.47-25.2-8.57-4.27,23.78-34.23,11.89-45.17,1.91.47,19-24.73,1.43-30-3.81Z" fill="#6bc891"/><path d="M342,151.51c11.42-22.35,39.84-101.14,52.68-102.09,11.89-1,28.18,4.94,39.58,7,29.16,5.23,95-4.1,110.79-4.76,11.42-.48,44.66,96,43.06,102.6-.73,3-2.76,5.64-6.92,7.73-17.59,8.55-37.56,7.13-56.11,10-20.92,2.85-43.75,5.23-65.15,5.23-17.59,0-36.61,0-53.73-1.9-16.17-1.9-35.66-1.9-50.4-9-6.19-2.38-10.94-6.67-17.13-9Z" fill="#754c29"/><path d="M502.74,146.28c-9-4.28-4.28-22.82-10-29.95-5.71-7.61-8.09,2.85-9.52,10-.95,5.23.48,27.1-9,21.87-8.08-4.28-5.23-27.1-9.51-34.71-9.51,3.33-2.38,30.43-9.51,32.33-5.71,1.43-7.13-32.33-10.46-36.13-5.3,2.4-7.91,9-9.39,16.08-1.16,17.05-2.33,34.11-2.66,51.19,9.17.25,18.39.25,27.26.25a449.25,449.25,0,0,0,53.15-3.69c-2.68-17.89-4.27-36-5.64-54.21C501.65,125.69,506.44,138.44,502.74,146.28Z" fill="#c9efff"/><path d="M445.68,90.17c.95-6.18,0-13.79,4.28-19,2.85,3.8,3.33,24.73,9.51,23.78,4.75-.48,5.23-20,9-23.78,1.91,3.33,4.76,20.45,10,20,4.28-1,5.7-21.4,9-26.15,2.38,6.65,2.38,19,9.52,21.87,1.42-2.85,1.42-14.74,6.66-15.22h.05c-.48-5.34-1-10.69-1.61-16-22.34,2-47.78,3.48-64.3,1.34.1,4.09.11,8.19.09,12.28C443.15,71.56,442.86,83.84,445.68,90.17Z" fill="#c9efff"/><path d="M503.7,71.62c-5.24.48-5.24,12.37-6.66,15.22C489.9,84,489.9,71.62,487.52,65c-3.33,4.75-4.75,25.2-9,26.15-5.23.48-8.08-16.64-10-20-3.8,3.8-4.28,23.3-9,23.78-6.18.95-6.66-20-9.51-23.78-4.28,5.23-3.33,12.84-4.28,19-2.82-6.33-2.53-18.61-7.75-20.94-.07,18.79-1.3,37.64-2.59,56.52,1.48-7.12,4.09-13.68,9.39-16.08,3.33,3.8,4.75,37.56,10.46,36.13,7.13-1.9,0-29,9.51-32.33,4.28,7.61,1.43,30.43,9.51,34.71,9.51,5.23,8.08-16.64,9-21.87,1.43-7.13,3.81-17.59,9.52-10,5.7,7.13.95,25.67,10,30,3.7-7.84-1.09-20.59,4.71-27-1.2-15.87-2.26-31.79-3.7-47.66Z" fill="#fff"/><path d="M310.63,149.14c10-12.37,20.45-25.68,29.48-38.52a40.61,40.61,0,0,0,6.18-9.51c.95-2.38.48-6.66,1.43-8.09,2.85-5.7,12.36-7.13,18.07-3.32,4.76,3.32,7.61,9,12.84,12.83,5.7,3.81,11.89,7.61,14.27,14.27a351.59,351.59,0,0,1,9.51,38.52c1.9,9,11.88,22.35-3.81,20.92-5.23-.48-9-2.85-14.74-2.85-6.66,0-13.31,1-20-.48-5.71-.95-9.52-3.8-14.27-6.18-4.28-1.9-8.56-2.38-12.36-3.8-4.76-1.91-8.08-5.71-12.37-7.61-3.8-2.38-8.08-2.38-11.88-3.81Z" fill="#8b5e3c"/><path d="M351.53,115.85a42.84,42.84,0,0,1,4,3.74c.56.59,1.17,1.22,1.78,1.92s1.39,1.28,2.06,2c1.46,1.34,2.89,2.84,4.32,4.34a91.94,91.94,0,0,1,8,8.73,41.32,41.32,0,0,1,3.16,4.47,41.78,41.78,0,0,1-4.59-3,89.1,89.1,0,0,1-9.08-7.67c-1.48-1.66-3-3.31-4.25-4.93a16,16,0,0,1-1.76-2.38c-.48-.79-.9-1.57-1.28-2.29A40.91,40.91,0,0,1,351.53,115.85Z" opacity="0.2"/><path d="M389.57,119.65s0,.27-.09.7a3.5,3.5,0,0,1-1,1.7,5.51,5.51,0,0,1-2.46,1.32,8.63,8.63,0,0,1-3,.22,10.92,10.92,0,0,1-4.9-1.8,8.27,8.27,0,0,1-1.84-1.66,11.74,11.74,0,0,1,2.42-.32,34.49,34.49,0,0,1,4.67.21,21.47,21.47,0,0,0,4.12.23,4.92,4.92,0,0,0,1.45-.33C389.31,119.74,389.57,119.65,389.57,119.65Z" opacity="0.2"/><path d="M508,170.06c1.9-9.51,5.23-20.45,8.09-30.43,4.28-12.37,10.93-20.93,17.12-32.34,3.8-6.18,3.8-16.65,8.55-22.35,6.66-8.08,12.85,3.8,17.12,10.46,4.76,8.08,10,16.17,16.64,22.83,5.24,5.23,10,9.51,13.32,16.16,1.9,4.76,3.81,10.46,3.81,15.7,1,10.46-8.09,12.84-18.08,14.26-13.79,2.86-26.63,2.38-40.41,6.18-7.14,2.38-19,3.81-24.73,0Z" fill="#8b5e3c"/><path d="M546,135.82s.22-.08.58-.18.91-.13,1.38-.32,1-.27,1.57-.41,1.18-.26,1.78-.35a21,21,0,0,1,3.62-.32,11.36,11.36,0,0,1,2,.15,5.13,5.13,0,0,1-1.18,1.74,5.86,5.86,0,0,1-1.65,1.2,4.29,4.29,0,0,1-1,.46l-1.16.31a7.36,7.36,0,0,1-2.39,0,5.47,5.47,0,0,1-2-.75,3.32,3.32,0,0,1-1.1-1A4.46,4.46,0,0,1,546,135.82Z" opacity="0.2"/><path d="M553.63,113.94a5.89,5.89,0,0,1,1.17,1.32,4.08,4.08,0,0,1,.66,1.44,9.27,9.27,0,0,1,.25,1.85,5.71,5.71,0,0,1-1.21,3.28,4.44,4.44,0,0,1-1.36,1.15,7.32,7.32,0,0,1-.65-1.61c-.12-.44-.2-.91-.3-1.41a7.74,7.74,0,0,1-.07-1.52,9.24,9.24,0,0,1,.64-3A5.52,5.52,0,0,1,553.63,113.94Z" opacity="0.2"/><path d="M523.19,152s.3.1.8.32,1.16.67,1.94.9a11.08,11.08,0,0,1,1.16.45c.37.19.9.27,1.33.46.89.37,1.92.62,2.89,1s2,.61,3,.85,1.89.52,2.71.79,1.52.44,2,.65.8.32.8.32a9.1,9.1,0,0,1-2.88,1.09,11.14,11.14,0,0,1-3.11.28,16.18,16.18,0,0,1-3.56-.54l-1.73-.69a7.61,7.61,0,0,1-1.57-.9,9.15,9.15,0,0,1-2.43-2.21,5.94,5.94,0,0,1-1.07-1.92C523.28,152.3,523.19,152,523.19,152Z" opacity="0.2"/><path d="M567.89,114.9a12.24,12.24,0,0,1,1.31,2.26,7.94,7.94,0,0,1,.71,2.66,7,7,0,0,1-.24,2.84,10.43,10.43,0,0,1-1.06,2.62c-.86,1.61-1.87,3-2.64,4.34a13.38,13.38,0,0,0-1.58,4.15l0-.14v1.22c.09.41.15.84.21,1.26a21.23,21.23,0,0,0,.9,2.69,23.48,23.48,0,0,1,1.9,6.35l0-.17.28,3.2-.23,3.12a37.92,37.92,0,0,1-1.46,5.92l-.39-6-.38-2.86-.65-2.69,0-.18a16.67,16.67,0,0,0-.91-2.58l-1.3-2.79a24.7,24.7,0,0,1-1.16-3.18c-.11-.6-.24-1.2-.31-1.81l0-1.9v-.05l0-.08a14.54,14.54,0,0,1,.89-2.78,15,15,0,0,1,1.4-2.45c1-1.53,2.21-2.78,3.17-4a13.12,13.12,0,0,0,1.23-1.94,6.56,6.56,0,0,0,.68-2.13,8.6,8.6,0,0,0,0-2.38A23.21,23.21,0,0,0,567.89,114.9Z" opacity="0.2"/><path d="M215.12,366.2c-7.56-2.16-15.16-4.31-21.51-8.92-5.46-4-12.64-8.74-15.54-15-3.38-7.34-1.31-14.3,2.32-21,20.75-38.1,29.08-81.48,50.68-119.22,10.74-18.75,24.31-37.4,42.47-49.6,25.11-16.87,57.26-2,84.17,1.91,24.72,3.32,50.88,3.8,75.61,5.7,36.61,2.86,70.85,3.33,107-1.43,12.19-1.6,24.36-3,36.63-3.79,13.4-.86,26.82-4.29,40.31-2.67C635,154.33,643.15,172,651,185.9c9.08,16.18,17.44,32.74,26.11,49.14,7.94,15,16.81,29.7,21.12,46.29,3.33,13.31,7.13,27.58,8.56,41.37,1.43,11.41-3.33,16.65-13.31,22.35-30,16.64-64.67,19.5-98.44,23.3-26.15,2.86-52.3-.47-78-1.43-30-.95-58.49,1.91-87.5,6.66-27.1,4.28-54.69,8.09-81.79,8.09-22.75,0-45.56-1.52-68.26-2.85-10.67-.62-21.64-.62-32.23-2.07-7.89-1.09-14.46-4.59-21.81-7.32C222.08,368.19,218.61,367.19,215.12,366.2Z" fill="#754c29"/><path d="M641.12,323.65c-2.38-9.51-14.74-22.35-21.88-30-7.13-7.13-20.92-29-32.34-24.25-16.63,7.14-27.57,35.19-32.32,50.88-2.39,7.14-3.34,15.7-6.67,22.83-3.8,7.13-8.55,11.89-10,20.44-3.33,20.93,22.82,15.22,36.14,15.7,16.17.95,32.81,1.9,49,4.28,11.41,1.9,30.43,4.28,31.86-10.46.47-6.19-2.85-10-3.8-15.7-.48-4.75.95-9,.47-13.31-.47-7.13-4.76-12.37-9-17.12Z" fill="#bec9c9"/><path d="M612.59,311.29a4.89,4.89,0,0,1,.48,1.21,31.11,31.11,0,0,1,.59,3.33,12.56,12.56,0,0,0,.41,1.91c0,.18.11.2.14.26l0,.08h0c.14.19-.21-.25-.17-.2h0l.06.05.12.09c.34.25.65.52,1,.79.66.55,1.34.67,2,1.11s1.51.74,2.27,1.12,1.57.74,2.35,1.11,1.54.76,2.31,1.06c1.51.71,2.93,1.28,4.15,1.85.62.28,1.17.45,1.68.67a6.35,6.35,0,0,0,1.32.46l1.25.3a10.86,10.86,0,0,1-1.24.41,4.72,4.72,0,0,1-1.52.19,13.1,13.1,0,0,1-2,0,25.42,25.42,0,0,1-4.74-.88,18.33,18.33,0,0,1-2.57-.84,27.42,27.42,0,0,1-2.59-1.09c-.85-.47-1.65-.83-2.53-1.4A15.82,15.82,0,0,1,613,321c-.28-.32-.57-.62-.83-.94l-.1-.12-.05-.06h0s-.32-.4-.17-.22v0l0-.05-.18-.48a2.8,2.8,0,0,1-.2-.87,8.59,8.59,0,0,1,.15-2.47c.24-1.4.59-2.51.77-3.25A7.84,7.84,0,0,0,612.59,311.29Z" fill="#a8b0b0"/><path d="M571.69,308.91s.27-.31.76-.81,1.33-1.1,2-2c.38-.42.77-.85,1.21-1.26s.83-1,1.31-1.47c.93-1,1.86-2.14,2.83-3.23a61,61,0,0,1,5.77-6.05,20,20,0,0,1,3.21-2.35,26.21,26.21,0,0,1-1.58,3.62,34,34,0,0,1-2,3.43,39.52,39.52,0,0,1-2.71,3.7,25.79,25.79,0,0,1-3.42,3.21,16,16,0,0,1-3.59,2.16,10.56,10.56,0,0,1-2.75.82C572.1,308.86,571.69,308.91,571.69,308.91Z" fill="#a8b0b0"/><path d="M630.73,386.37a16.79,16.79,0,0,0-4.83-1.89c-9.36-2-21.6-3.74-23.3-15.18-1.9-12.84,8.56-35.19,14.27-45.65,6.18-10.93,17.59-18.07,25.2-27.58,6.18-7.61,7.61-17.59,11.89-26.15,7.61-13.79,15.21-27.58,32.81-28.06,13.79,0,22.82,9,28.53,20.45,7.61,15.69,19,29.48,24.73,46.13,4.75,11.88,7.13,25.2,10.93,37.56,2.86,10.94,7.61,21.4,5.24,32.81-3.33,19-15.7,14.74-30.44,16.17-21.4,1.43-46.12,5.71-67.52,0-6.29-1.26-13-1.46-19-3.78C635.89,389.93,633.51,387.92,630.73,386.37Z" fill="#90a1a4"/><path d="M671.07,262.79s.62.12,1.66.39a9.38,9.38,0,0,1,1.86.62c.69.3,1.56.63,2.35,1.06,1.67.8,3.53,1.87,5.48,2.86a23.72,23.72,0,0,0,3,1.37,14.38,14.38,0,0,0,3.06.89,14.86,14.86,0,0,0,1.49.07l.74,0c0,.06.5-.08.73-.12a7.83,7.83,0,0,0,2.73-1,21.92,21.92,0,0,0,2.5-1.69l2.23-1.83a32,32,0,0,1,5-3.65s-1.36,2.07-3.49,5.06a27.53,27.53,0,0,1-1.89,2.37,15.44,15.44,0,0,1-2.63,2.41,10,10,0,0,1-3.71,1.68,7.07,7.07,0,0,1-1,.21l-1.06,0a15.19,15.19,0,0,1-2.14-.05,18,18,0,0,1-3.86-1.25,18.35,18.35,0,0,1-3.24-1.84,27.33,27.33,0,0,1-2.72-2c-.85-.64-1.58-1.27-2.28-1.87L674,265a19.09,19.09,0,0,0-1.51-1.2C671.56,263.18,671.07,262.79,671.07,262.79Z" fill="#6d6d6d"/><path d="M720.53,330.31s.38.44,1,1.23c.29.4.65.88,1,1.44l.63.89c.15.37.31.76.47,1.17.32.82.68,1.73,1,2.73a15.85,15.85,0,0,1,.55,3.14,13.17,13.17,0,0,1,.19,3.39c-.08,1.15-.16,2.32-.25,3.49-.28,1.14-.56,2.27-.83,3.39a14.85,14.85,0,0,1-1.15,3.16,22,22,0,0,1-2.94,5.15,16.6,16.6,0,0,1-2.8,3.07c-.74.68-1.18,1-1.18,1l.6-1.45a38.9,38.9,0,0,0,1.58-3.66c.28-.78.58-1.6.94-2.44s.49-1.84.82-2.77a58,58,0,0,0,1.41-6c.12-1.05.23-2.09.34-3.11a17.17,17.17,0,0,0,.13-3c-.07-1,.11-2,0-2.83s-.22-1.7-.3-2.49c0-.41-.07-.79-.11-1.16s-.21-.72-.3-1.05l-.46-1.73C720.64,330.88,720.53,330.31,720.53,330.31Z" fill="#6d6d6d"/><path d="M707.22,356.46a8.46,8.46,0,0,1,1,2,4.48,4.48,0,0,1,.38,2.2,15.47,15.47,0,0,1-.32,2.73,18,18,0,0,1-1.1,2.34,5.9,5.9,0,0,1-1.44,1.75,7.44,7.44,0,0,1-1.88,1.32,9.43,9.43,0,0,1,.05-2.27c.07-.63.26-1.28.35-2a12.82,12.82,0,0,1,.58-2.14,11.16,11.16,0,0,1,.62-2c.09-.33.32-.6.41-1a6.63,6.63,0,0,1,.3-1A8.4,8.4,0,0,1,707.22,356.46Z" fill="#6d6d6d"/><path d="M758.1,404.49c-9.49-15.07-54.69-20.45-69.91-22.82-26.15-3.81-51.83-8.09-78.46-9-13.79-.47-21.39-.47-35.19-.47s-33.28-.48-47.07-.48c3.52-1.15,7-2.36,10.31-3.64-6.95-.43-13.88-.86-20.77-1.12-30-.95-58.49,1.91-87.5,6.66-27.1,4.28-54.69,8.09-81.79,8.09-22.75,0-45.56-1.52-68.26-2.85-10.67-.62-21.64-.62-32.23-2.07a43.77,43.77,0,0,1-7.37-1.75l-15.1,1.61c-18.58,2-70.1,13.14-88.17,17.89-7.14,1.91-36.14,8.09-37.54,15.24-1.59,8.15,9.08,13.68,15.26,15.27,22.79,5.83,28.94,6.59,43.68,7.54-17.92,3.37-58.49,3.8-67.53,15.22C79.52,462,129,478.2,138,480.57c46.6,13.32,99.83,17.28,147.41,19,64.47,2.38,107,2.86,162.16,4.28,50.88,1,111.74.48,162.14-5.22,32.34-3.33,45.65-6.66,77-14.27,9-2.38,40.42-14.27,43.27-24.73,2.38-11.88-15-20.45-23-21.4-11.41-1.9-25-6.18-36.39-6.65C689.47,428.17,766.18,417.33,758.1,404.49Z" fill="#c9efff"/><path d="M377.68,216.66c1.9-4.75,14.26-43.27,20.45-30.91,4.75,10.46-8.56,49.46,1.9,48.5,4.28-.47,8.08-18.07,10.46-27.58,2.38-6.65,2.38-20,9.51-23.78,2.38,13.32-4.28,27.11-3.33,40.9.48,2.38.48,11.89,5.71,10.46,3.33-.95,3.33-12.36,3.8-15.21.48-4.76.95-43.28,10-41.37,4.75,1,0,26.15,3.33,30,5.7-7.13.47-21.87,10.46-25.68,4.75,6.67-1.43,18.55,5.23,24.73,2.37-4.27,9-36.61,13.31-20.92,5.24,19.5-11.88,44.7.48,63.72,6.66,4.28,5.71-20.45,6.66-29,.95-10,3.32-22.82,8.08-31.38.95,7.13-1,26.63,5.7,30.91,4.29-9-2.85-27.11,9.52-33.29.73,1.33,1.7,4.16,2.92,7.16.72-4.47,1.5-8.93,2.42-13.37,1.35-6.46,2.13-13.6,6-19.05-25.49,1.47-50.61.69-76.95-1.37-12.53-1-25.41-1.56-38.29-2.35a53.15,53.15,0,0,0-7.84,2.83c-9.81,5.23-15.57,17.89-19,29.92C368.66,205.06,372.5,218.68,377.68,216.66Z" fill="#c3f2ff"/><path d="M279.46,378.82c22.7,1.33,45.51,2.85,68.26,2.85,27.1,0,54.69-3.81,81.79-8.09,29-4.75,57.54-7.61,87.5-6.66,6.89.26,13.82.69,20.77,1.12,10.46-4.1,18.49-9.09,16.32-16.33-9-8.09-29,4.28-39,6.66,4.76-4.76,30.91-16.65,24.73-24.26-5.16-6.34-26.15,9.51-30,14.27,11.42-15.22,21.88-19,27.58-28.06,3.33-5.7,4.24-12.68-3.8-11.41-5.82.92-25.2,23.77-35.19,30.44-1.55-19-.85-26.71-1.16-39.38-.89-35.31-1.06-71.13,4.56-106.11-1.22-3-2.19-5.83-2.92-7.16-12.37,6.18-5.23,24.25-9.52,33.29-6.65-4.28-4.75-23.78-5.7-30.91-4.76,8.56-7.13,21.4-8.08,31.38-.95,8.56,0,33.29-6.66,29-12.36-19,4.76-44.22-.48-63.72-4.28-15.69-10.94,16.65-13.31,20.92-6.66-6.18-.48-18.06-5.23-24.73-10,3.81-4.76,18.55-10.46,25.68-3.33-3.8,1.42-29-3.33-30-9-1.91-9.51,36.61-10,41.37-.47,2.85-.47,14.26-3.8,15.21-5.23,1.43-5.23-8.08-5.71-10.46-.95-13.79,5.71-27.58,3.33-40.9-7.13,3.81-7.13,17.13-9.51,23.78-2.38,9.51-6.18,27.11-10.46,27.58-10.46,1,2.85-38-1.9-48.5-6.19-12.36-18.55,26.16-20.45,30.91-5.18,2-9-11.6-9.48-26.19a141.87,141.87,0,0,0-3.36,15.25c-5.23,33.29-4.45,52.78-1.67,93.68.65,9.54,1.67,24.45,2.62,42.8-2.85-5.71-16.64-24.73-23.78-24.73-14.74.47,7.61,26.63,10,31.86-4.28-2.37-34.71-31.39-32.33-14.27,1.42,10,13.79,19.5,21.39,23.31l12.84,8.55c-48.08,1.75-60.48,2.43-114,8.08a43.77,43.77,0,0,0,7.37,1.75C257.82,378.2,268.79,378.2,279.46,378.82Z" fill="#fff"/><path d="M390.52,277.05l.67,7.54.39,7.57c.2,5,.48,10.08.79,15.09l.63,7.5c.31,2.48.69,4.95,1,7.42s1.08,4.85,1.61,7.27c.76,2.35,1.6,4.67,2.38,7l-2.73.25c1.31-8.09,1.4-16.52,2.19-25a85.41,85.41,0,0,1,2-12.69,45.38,45.38,0,0,1,2.05-6.23,33.91,33.91,0,0,1,3.23-5.86l2.23-3.27.92,3.89c1.64,7,1,13.73,1.29,20.3a56.91,56.91,0,0,0,.9,9.67c.11.8.37,1.53.55,2.3s.5,1.47.74,2.21a18.14,18.14,0,0,0,2.23,3.94l-2.7.33,1.59-4.27,1.05-4.53c.5-3.09,1-6.23,1.38-9.41l.73-4.79,1-4.8,1.53-4.72,2.27-4.47,1.08-2.14.82,2.22.91,2.48a18.64,18.64,0,0,1,.83,2.49l.52,2.54a19.86,19.86,0,0,1,.45,2.54c.17,1.7.37,3.4.47,5.1l.19,5.08.15,10.13.21,5c.14,1.68.35,3.35.53,5-.3-1.66-.64-3.32-.91-5l-.54-5-.72-10.11-.48-5c-.18-1.67-.5-3.3-.71-4.95a19.25,19.25,0,0,0-.52-2.42l-.57-2.4a17.23,17.23,0,0,0-.85-2.28l-.91-2.25,1.91.08-1.94,4.17-1.28,4.46-.81,4.63-.55,4.72c-.29,3.18-.66,6.39-1.17,9.62l-1.07,4.84-1.7,4.74-.94,2.65L411.15,328a21,21,0,0,1-2.74-4.7c-.29-.84-.68-1.67-.88-2.52s-.51-1.7-.65-2.56A62.67,62.67,0,0,1,405.8,308c-.26-6.71,0-13.45-1.31-19.55l3.15.61a30.78,30.78,0,0,0-2.9,5.14,42.15,42.15,0,0,0-1.94,5.71A81.25,81.25,0,0,0,400.73,312c-.93,8.27-.92,16.73-2.62,25.2L397,342.8l-1.61-5.31c-.75-2.47-1.53-4.93-2.23-7.4-.47-2.52-1-5-1.42-7.55-.26-2.54-.57-5.07-.8-7.6l-.37-7.61c-.06-5.06,0-10.11,0-15.15S390.62,282.1,390.52,277.05Z" fill="#c3f2ff"/><path d="M440.92,276.58s.8,2.9,1.52,7.29A131.72,131.72,0,0,1,444,300.06c.14,2.93.29,5.86.3,8.62.06,1.38,0,2.73.05,4s.07,2.45.08,3.55c.07,4.42-.2,7.44-.2,7.44s-.93-2.84-1.85-7.22a57.05,57.05,0,0,1-1.23-7.52c-.32-2.77-.52-5.73-.73-8.69-.27-5.87-.15-11.76-.05-16.21S440.92,276.58,440.92,276.58Z" fill="#c3f2ff"/><path d="M455.19,290.37a37.38,37.38,0,0,1,1.13,5.53c.48,3.37.75,7.79.9,12.18.12,2.17.12,4.37.27,6.38.05,1,.1,2,.14,2.94s.19,1.8.25,2.62c.05,1.66.39,3,.48,4s.16,1.57.16,1.57-.32-.47-.83-1.32a17.61,17.61,0,0,1-1.82-3.74,27.58,27.58,0,0,1-1.52-5.67,50.22,50.22,0,0,1-.72-6.62,79.37,79.37,0,0,1,.64-12.27C454.67,292.61,455.19,290.37,455.19,290.37Z" fill="#c3f2ff"/><path d="M468,295.6s.33.34.87,1a13.12,13.12,0,0,1,2,2.78,20.37,20.37,0,0,1,1.87,4.57,34.46,34.46,0,0,1,1.14,5.42c.14,1.85.32,3.71.28,5.44s-.09,3.34-.23,4.72a38,38,0,0,1-.65,4.63,27.79,27.79,0,0,1-1.41-4.49,90.36,90.36,0,0,1-1.56-9.88c-.24-1.75-.38-3.54-.65-5.17-.15-.8-.17-1.64-.32-2.36s-.26-1.41-.36-2.07c-.13-1.33-.59-2.47-.7-3.28S468,295.6,468,295.6Z" fill="#c3f2ff"/><path d="M381,373.11c-6.66,5.23-28.06,2.85-36.62-.48,1.43,10.46,24.25,8.56,32.33,9,.48,10,20,10.46,27.11,10.46,8.56,0,13.32-4.76,20.45-4.76,6.18-.47,12.36,1.43,18.54.95,9-.47,15.7-3.8,24.26-6.18,10.93-3.33,30,2.85,38.52-5.7-8.56,1.42-18.55,2.37-27.11.47-3.8-1-7.13-3.8-10.94-2.85-5.23.95-10.46,6.18-16.64,7.13-10,1.43-20.45-.48-30.43,0-12.37.48-24.26-.95-34.24-7.13Z" fill="#b6d8f1"/><path d="M523.66,396.41c-6.18,6.65-27.57,6.18-37.09,6.18,5.71,1.43,41.85,9.51,37.09-6.18Z" fill="#b6d8f1"/><path d="M352.47,400.69c-20.92,17.11,30,15.69,36.62,15.69,12.37,15.22,58,9,68-7.13-10,1.43-20,5.7-30.43,6.65-7.14,1-13.79-.47-20.93-2.37-6.65-2.38-5.7-.95-10.93-.48-9.52.48-21.4-.47-29.49-5.71-2.85-1.9-13.78-3.32-12.84-6.65Z" fill="#b6d8f1"/><path d="M629.23,341.25a9.44,9.44,0,0,1,1.83,1.54,5.92,5.92,0,0,1,1.33,1.91,19.51,19.51,0,0,1,1,2.64,13,13,0,0,1,0,5,8.84,8.84,0,0,1-.79,2.27,9.18,9.18,0,0,1-1.26-2,18.51,18.51,0,0,1-1.45-4.44,12.5,12.5,0,0,1-.4-2.25c-.07-.37,0-.75-.11-1.13a7.17,7.17,0,0,1-.15-1.08A9.07,9.07,0,0,1,629.23,341.25Z" fill="gray"/><path d="M716.14,322.66s-7.31,25.12,3,64.95c0,0,5.4,24.08,5.4,30.83,0,0,1.13,11,3.38,18,0,0,.9,34.88,22,71.79,0,0,8.55,2.25,12.15-1.8,0,0-2.25-57.84-9.22-91.82l-10.48-82S726.62,330,716.14,322.66Z" fill="#f48225" data-secondary="true"/><path d="M716.14,322.66s-7.31,25.12,3,64.95c0,0,5.4,24.08,5.4,30.83,0,0,1.13,11,3.38,18,0,0,.9,34.88,22,71.79,0,0,8.55,2.25,12.15-1.8,0,0-2.25-57.84-9.22-91.82l-10.48-82S726.62,330,716.14,322.66Z" opacity="0.2"/><path d="M775.71,327.15s9.73,13,0,38.18l-22.55,55.59s-13.73,74.48-23.4,92c0,0-7.2,4.72-12.83,0,0,0,2.93-60.76,9.23-87.54,0,0,10.8-65.26,12.37-75.39l3.85-18.43S760.91,336.68,775.71,327.15Z" fill="#f48225" data-secondary="true"/><path d="M706,292.53s8,8.65,10.92,3.93Z" fill="#686175" data-primary="true"/><path d="M780.6,254.19v62.73s.23,7.6-5.92,10.86c0,0-18.09,12.66-49.2,0,0,0-14.75-4.31-12.3-13.75,0,0,3-15.2,5.65-25.33V254.37a25.83,25.83,0,0,1,6.2-17.06c.24-.29.5-.57.76-.84l18.14-10,12.65-4.49,21,8.15Z" fill="#686175" data-primary="true"/><path d="M743.93,226.43v2.85s-.49,3.93,3.24,4.47c0,0,15,1.39,11.87-7.17,0,0-.93-2.26-2.27-5C756.77,221.6,751.48,228.68,743.93,226.43Z" fill="#fea054"/><path d="M743.93,226.43v2.35s11.25-.89,12.47-7.43C756.4,221.35,752.31,226.6,743.93,226.43Z" fill="#fe7142"/><ellipse cx="747.17" cy="207.76" rx="13.97" ry="19.2" fill="#fea054"/><path d="M767.45,256.24s-3.29-.32-3.09,7a22.54,22.54,0,0,0,.28,2.85c.54,3.52,1.67,14.82-5.84,15.52,0,0,9.87,1,8.1-9.74C766.9,271.91,764.87,260.28,767.45,256.24Z" opacity="0.2"/><path d="M756.29,298.8s14,4.33,24.31,2.72C780.6,301.52,772,307,756.29,298.8Z" opacity="0.2"/><path d="M729.22,255.9a4.22,4.22,0,0,1,1.19,3.36s.22-1.24,6.08-1.69c0,0,6.88-.48,22.31,1.69a10.53,10.53,0,0,0-10.89-6.69S737.09,251.85,729.22,255.9Z" fill="#fff"/><path d="M722.54,257.5l-.68,41.3s-.68,1.72,3.12,2.25c0,0,5.43,1.49,5.43-1.09V257.5s0,2.16-3.94,2.3C726.47,259.8,722.81,259.8,722.54,257.5Z" fill="#3a020e"/><path d="M722.54,257.5s-20.08-11.94-22.39-6.65c0,0-3.66,39.07,1.63,40.3,0,0,17,5.39,20.08,7.65Z" fill="#4d010e"/><path d="M726.47,255.19s-16-23.74-26.32-4.34c0,0,1.35-2.41,5.86-.89a72.59,72.59,0,0,1,16.53,7.54S722.88,255.19,726.47,255.19Z" fill="#fff"/><path d="M718.46,514s-7.54,8.16-12.43,11.23c0,0-3.8,3.26.54,5.16,0,0,3.08,1.74,9.5-2.09.52-.31,1-.62,1.59-.89,3.06-1.55,14.64-7.9,12.1-14.45C729.76,513,723.92,516.87,718.46,514Z" fill="#fea054"/><path d="M706,525.23s-14.11,7.42-9.5,11.58c0,0,2.84,3.89,12.44.53a25.61,25.61,0,0,0,6.28-3.24A130,130,0,0,1,728.08,526a6.5,6.5,0,0,0,3.62-5.78,10.52,10.52,0,0,0-1.58-5.13s.35,5.65-11.93,12.09c-.49.26-1.22.53-1.69.82-2,1.17-7.93,4.46-11.22,1.63C705.28,529.6,703.3,528,706,525.23Z" fill="#686175" data-primary="true"/><path d="M760.58,514.11s0,0-.05.07C757,519.27,750,523,750,523c-6.59,4.75-9.7,3.12-9.7,3.12-4.17-1.69-.84-4.89-.56-5.15h0C750,512.4,750,508.33,750,508.23c9.15,2.31,12.14-1.8,12.14-1.8l0,.08c0,.16.1.31.14.48C762.93,509.48,762.07,511.92,760.58,514.11Z" fill="#fea054"/><path d="M762.16,520c-3.65,2.31-13.68,10.17-13.68,10.17-10,7.88-16.77,3.67-16.77,3.67-6.77-3.62,7.68-12.66,8-12.88-.28.26-3.61,3.46.56,5.15,0,0,3.11,1.63,9.7-3.12,0,0,7-3.75,10.51-8.84,0,0,.05,0,.05-.07a7.79,7.79,0,0,0,1.75-7.12c-.06-.23-.11-.39-.14-.48l0-.08C768.28,517.53,762.16,520,762.16,520Z" fill="#686175" data-primary="true"/><ellipse cx="726.47" cy="257.5" rx="3.93" ry="2.31" fill="#fff"/><path d="M730.41,259.26V300l29.71-1.16s3.74-36-1.32-39.54C758.8,259.26,733,255.19,730.41,259.26Z" fill="#4d010e"/><path d="M745.4,284.68s-5.68-1.86-7.13-1.73c0,0-3.14-1.1-6-1.87,0,0-3.13-.62-.37,2.26,0,0,4.84,2.1,3.15,3.34,0,0-2.93.94-8.23-.14a2.87,2.87,0,0,0-3.1,1.43c-.78,1.41-.93,3.51,2.4,5.69,0,0,5.43,4,19.85-1C745.93,292.69,744.34,288.16,745.4,284.68Z" fill="#fea054"/><path d="M745.6,282.87s-3.12-.95-2.85,2.85c0,0-1.92,9.63,4.06,9.9,0,0,30.41,12.35,41.94,2.45,0,0,19.42-18.43,6.11-52a5.79,5.79,0,0,0-4.14-3.53c-5.94-1.29-18.93-2.13-23.27,13.71,0,0-2.17,2.4-.55,15.67,0,0,2,10.28-8.1,9.74Z" fill="#686175" data-primary="true"/><path d="M790.05,231.79s-3.61-3.06-.62-6c0,0,5.81-9.5-.28-16.82,0,0-8.95-6.24-10.17-15.2,0,0-2.58-21.3-27-15.6,0,0-21.71-4.21-25.1,20.08a22.43,22.43,0,0,1-5.43,7.87s-6.24,6.1.55,13.84c0,0,4.88,4.39,2,8,0,0-3,6.15,1.76,8.59,0,0,9.82,7.19,18.14-7.19v-2.85s-8.47-2-10.52-15.34c0,0-1.09-6.9,1.62-12.84,0,0,2.5-3.3,5.62-3.57a8.59,8.59,0,0,0,4.56-2.78.11.11,0,0,1,.2.06c-.14,1.46,0,6.4,8.06,8,0,0,8.69,1.22,4.62,9.5a15.63,15.63,0,0,0-1.51,12.47s5,8.41,1.1,11.88c0,0-11.94,7.26-4.61,16.08,0,0,5.92,7.38,19.31,6.22a28.28,28.28,0,0,0,11.69-3.73,27.32,27.32,0,0,0,7.45-6,10.53,10.53,0,0,0-1.47-14.58l-.08-.07"/></svg>