<svg id="a88a5184-1067-4570-9db6-edd40b0f9cd6" data-name="Layer 1" xmlns="http://www.w3.org/2000/svg" width="865.76" height="682.89" viewBox="0 0 865.76 682.89"><path d="M331.32,331.69s-8.26,21.6,6.67,28.59c0,0,13-5.24,17.64-18.58Z" fill="#f4a592"/><path d="M645.13,428.83s-3.41-1.77-16.93,1c0,0-16.29.85-21.52,3.9l-.15-.32-1-11.18s-32.75,0-29.15-20.77c0,0,.39-10.78,9.58-23.36,0,0,8.77-10.23-5-28.76a12.42,12.42,0,0,0-3.19-3.07c-1.11-.72-2.73-2.56-3.58-7.18a46.92,46.92,0,0,1-.46-11s-8.59-4.72-1-6.91a5.89,5.89,0,0,1-3-3.5s-.32-1.84.35-2.66a.81.81,0,0,1,.28-.24s1-1.1,4.11-.64a6.05,6.05,0,0,1,2.4-.94l-3.32-3.34a3.74,3.74,0,0,1-.57-.74l0,0a5.72,5.72,0,0,1,.17-6.15,6.62,6.62,0,0,1,4.25-3.07,3.66,3.66,0,0,1,.94-3L580.18,314s.42,5.66,4.42,4.93c0,0,1.77.27,1.33-3.23a9.33,9.33,0,0,1,2.25,3.5,10.2,10.2,0,0,1,1.6,2.61s7.84,6.57,9.1,10.11c0,0,3.54,8.17,14.15,19.55l5.74,6.06a28,28,0,0,1,6.15,9.61s2.61,5.31,3.7,6.91a53.31,53.31,0,0,1,3,6.57s2.86,5,3.19,7.33A48.87,48.87,0,0,1,640,404.06S643.87,419.06,645.13,428.83Z" fill="#f9b499"/><path d="M495.17,311.89s-4.72,17-8.18,24c0,0-15.39,34.89-14.32,48.61a37.33,37.33,0,0,1-.07,7.09c-1,8.4-2.37,26.93,1.42,40.77l3.79,22s2.27-15.17,8.59-23.51c0,0-4,24-11.88,33.12,0,0,6.32.5,12.89-8.09,0,0-2,20.47-.75,28.05l4.8-15.42s-1.27,27.56,1.26,36.65l2-19.2V508.7a60.5,60.5,0,0,0,9.7-30.46A66.78,66.78,0,0,1,509.09,456c2.32-5.91,5-13.26,7.14-20.57,0,0,3.68-11,1.16-30.07-.16-1.24-.38-2.48-.6-3.71A32.73,32.73,0,0,1,518,386.45a75.54,75.54,0,0,0,2.5-10c1.64-9.74,3.55-27.84-1-44.64,0,0-2.72-15.19-12.48-25.5C507,306.27,503.84,310.63,495.17,311.89Z" fill="#f48225" data-secondary="true"/><path d="M587.17,287.54a5.46,5.46,0,0,0-.17,3,29.29,29.29,0,0,1-.16,4.21,13.27,13.27,0,0,1-.42,2.52,7.79,7.79,0,0,0-.3,1.8,11.84,11.84,0,0,1-.38,2.22l.19,14.4s.69,3.16-1.33,3.23c0,0-3.71,1.62-4.42-4.93,0,0-1.52-10.81-1.84-17.13a4.94,4.94,0,0,0-.94,3,6.68,6.68,0,0,0-4,2.75,5.64,5.64,0,0,0-.09,6.88,7,7,0,0,0,1,1.05s2.15,2.08,2.59,2.65a12.82,12.82,0,0,0-2.4.94s-3.22-.32-4,.69a.61.61,0,0,0-.3.23,1.56,1.56,0,0,0-.31.75l0,.09a6.78,6.78,0,0,0-.07,1.78,21,21,0,0,1-6.59-7.72,18.38,18.38,0,0,1-.74-1.75,23.44,23.44,0,0,0-4-5.44,32.57,32.57,0,0,1-3.73-4.86s-3-5.19-4.55-6.7c0,0-6.19-8.15-6.89-12.51a30.3,30.3,0,0,0-1.45-6.19s-11.5-20-15.29-24.33c0,0-42.49-46.32-56.36-54.91a2.14,2.14,0,0,0-2.63.31l-4.75,4.76-50.38,79.87-29.7,2.57a53.23,53.23,0,0,0-27.43,10l-1.89-.76,7.45-12.26s1.39-5.31,3.42-8c0,0,3.15-7.84,6.06-11.5,0,0,5.86-9.06,8.55-14.62,0,0,18.2-34.21,35.9-54.93,0,0,33-36.57,46-40.62,0,0,4.54-2.35,6.57-2.69,0,0,8.93-7.24,14,1.18l21.06,22.75s21.06,21.56,34.2,43.47l17,26.8s6.75,7.07,8.26,11.11l4.21,4.89,4.05,4.39a59.06,59.06,0,0,1,10.7,12.1,24.22,24.22,0,0,1,1.44,2.65,7.06,7.06,0,0,0,1.79,2.4,9,9,0,0,1,2,2.23A10.46,10.46,0,0,1,587.17,287.54Z" fill="#f4a592"/><path d="M503.38,303.71c-1,.34-1.78.7-1.78.7l-2.94,1.39a21.92,21.92,0,0,1-5,1.71,5.6,5.6,0,0,1-2.78,0s-.08,2.23,1.59,2.31a2.5,2.5,0,0,0,3,2.14s8.81-1.35,11.51-5.72c0,0,1.91-1.27,1.12-4.36A2.83,2.83,0,0,0,506,300S505.7,302.78,503.38,303.71Z" fill="#686175" data-primary="true"/><path d="M472.6,391.6s-5.49,13.89-10.88,17.26a18.32,18.32,0,0,0,8.25-5.39s-10.11,8.6-6.06,21.74c0,0,0-16,11.29-17.19C475.53,406.84,472.6,391.6,472.6,391.6Z" fill="#f48225" data-secondary="true"/><path d="M368,294.87l5.7-4.68a7.35,7.35,0,0,0,1.11-1.12l6.46-8.1a49.81,49.81,0,0,0-26,9.86A104.1,104.1,0,0,0,368,294.87Z" fill="#f4a592"/><path d="M368,294.87a65.94,65.94,0,0,0,9.6,1.39l5.06-15.42-1.39.13-6.46,8.1Z" fill="#686175" data-primary="true"/><path d="M413.09,307.86s-8.56-5.31-10.6-5.28c0,0,13.41-4.94,17.44-5.31,0,0,4.28-1.59,13.77,1.52,0,0,.89,5.75,2.28,7.71a39.31,39.31,0,0,0,1.89,4.86s-6.3-6.91-17.45-4.56c-.58.13-1.17.24-1.75.32Z" fill="#686175" data-primary="true"/><path d="M436,394.45a35.1,35.1,0,0,1-3.16,11,10.68,10.68,0,0,1-.76,7.46,64.86,64.86,0,0,0-1.64,7.2,25.39,25.39,0,0,1-2.15,7.33c-.76,3.92-2.78,5.05-2.78,5.05l-1.64,9.23c-.51,4.3-4.3,7.46-4.3,7.46-10.74,6.45-30.46,4.93-30.46,4.93-4,.88-11.12-.63-11.12-.63l-18.7-2.79A62.77,62.77,0,0,1,337.66,445a40.21,40.21,0,0,1-5.57-2.81,40.68,40.68,0,0,1-10.58-9.34c-2-2.49-4.2-5-4.2-5a24.33,24.33,0,0,1-5-6.76,11.72,11.72,0,0,0-.72-1.29c-1-1.55-1.22-6.23-1.22-6.23a28.74,28.74,0,0,0-1.24-7.56,5.47,5.47,0,0,0-1.63-2.54c-2.19-2-1.81-3.42-1.81-3.42a44.63,44.63,0,0,0-1.63-7.55,23.36,23.36,0,0,0-.95-2.78,45.57,45.57,0,0,1-2-5.66,47,47,0,0,1-1-20.46c4-24.15,19.95-36.92,19.95-36.92a111.9,111.9,0,0,0,11.75,6.64c-2.27,4.3-1.9,12.3-1.9,12.3,1.27,12.39,7.92,13.4,7.92,13.4,9.69-2.7,16.61-16.26,16.61-16.26,3.58,1.18,7.34,2.54,11.24,4.13,3,1.22,6,2.22,8.68,3.49,1.47,5.61,4.34,17.06,4.34,17.06h0c2.61,9.94,6.23,14.49,6.23,14.49,10.79,15.26,24.35,20.33,24.35,20.33l7.08,3.16a9.56,9.56,0,0,0,6.32,1.2c6.19-.57,10.44-7.58,10.44-7.58,2.11-3.29,3.54-13.23,3.54-13.23A65.08,65.08,0,0,1,436,394.45Z" fill="#686175" data-primary="true"/><path d="M432.78,472.2s-10.57,11.24-14.22,14l-12.49,11.15s-24.7,19.8-39.7,25.76c0,0-12.88,5.86-23.36,2.3,0,0-7-1.82-10.85-13.65l-5.39-18.06-4.13-14.13-7.23-22.34-1.7-5.75s-2.28-6.12-2.4-16.3c0,0-.47-10.15.27-15.44a11.72,11.72,0,0,1,.72,1.29,24.33,24.33,0,0,0,5,6.76s2.18,2.55,4.2,5a40.68,40.68,0,0,0,10.58,9.34,40.21,40.21,0,0,0,5.57,2.81,62.77,62.77,0,0,0,21.61,5.68l18.7,2.79s7.08,1.51,11.12.63c0,0,19.72,1.52,30.46-4.93,0,0,3.79-3.16,4.3-7.46a9.41,9.41,0,0,1,1.72,12.8s8,3.26,10.67,10.47C436.24,465,436.92,467.68,432.78,472.2Z" fill="#f9b499"/><path d="M517.13,531.89c12.89,9.86,23.79,13.8,23.79,13.8L609.67,572c1.35,1.18,6.9,2.53,6.9,2.53-2.86-2.35-7.24-16-7.24-16-6.07-18.2-1.69-66.56-1.69-66.56.8-7.06.39-30.07.18-39.4a11.54,11.54,0,0,0-1.11-4.88c-1-2-1.2-6.82-1.24-9.32a13.09,13.09,0,0,0-.36-2.3c-.18-.88.43-1.64,1.57-2.3,5.23-3.05,21.52-3.9,21.52-3.9,13.52-2.78,16.93-1,16.93-1,2.79-.25,3.29,6.45,3.29,6.45a4.49,4.49,0,0,1,.48,2.68,7.56,7.56,0,0,0,.13,3.63C653.08,456,672.2,525,672.84,540.43c0,.73,0,1.45.12,2.18a72.46,72.46,0,0,0,7.14,25c3.2,5.55,3,14.15,3,14.15.51,5.56.85,19.55.85,19.55.33,18.2-9.78,24.1-9.78,24.1l-5.56,6.23c-2.53,3.7-8.59,3.87-8.59,3.87l-58.81-1.68c-24.27,1-56.79-4.05-56.79-4.05-7.75-2.86-40.18-9.68-40.18-9.68-2.53-.34-2.2-1.1-2.2-1.1a11.07,11.07,0,0,0,1.69-7.25,3.15,3.15,0,0,0,1-1.34,2.7,2.7,0,0,0-1.35-3.71,3.42,3.42,0,0,0,.59-1.77c.26-2.19-3.2-2.95-3.2-2.95,1.94-2.78-1.1-5.64-1.1-5.64-2.44-2.53-6.9-1.35-6.9-1.35-7.67,2-6.91,5.65-6.91,5.65a3.7,3.7,0,0,0-1.18.08c-1.09-1-5.81-.59-5.81-.59-8.09-1.1-8.77,1-8.77,1a3,3,0,0,0-3.45,1.09c-4.89-.59-21.74.42-21.74.42l-1.26-1.34c-6.07-13.65-16.18-16.52-16.18-16.52-11.8-5.22-23.08,7.93-23.08,7.93-7.25,8.25-14.83,8.42-14.83,8.42-12.3,1-13.15,32.18-13.15,32.18l-21.23-.5-86.44-3.88c-17.36,1.18-42.21-4.47-42.21-4.47-9.73.39-22.62-5.81-22.62-5.81-2-1.39-7.34-2.9-7.34-2.9-14.78-3.67-13.52-18.83-13.52-18.83L182,585.54c-.51-9.73,2.78-14.79,2.78-14.79,6.44-11.62,24.77-14.91,24.77-14.91,4.67-.88,18.2-5.69,18.2-5.69a84.56,84.56,0,0,1,20-4.67c16.43-2.53,60.12,1.13,60.12,1.13a215.37,215.37,0,0,0,37.52,1.76c-3-1-2.23-5.62-2.23-5.62-1.31-1-2-4.45-2-4.45-2.49-2.09-3.27-9.94-3.27-9.94a12.48,12.48,0,0,1-2.49-5.89c-4.31-7.07-3.2-10.68-3.2-10.68C336,523.62,343,525.44,343,525.44c10.48,3.56,23.36-2.3,23.36-2.3,15-6,39.7-25.76,39.7-25.76l12.49-11.15c3.65-2.79,14.22-14,14.22-14,4.14-4.52,3.46-7.21,3.46-7.21,1.83-.15,4.58,7.07,4.58,7.07a4.61,4.61,0,0,1,3.23,2.35,7.6,7.6,0,0,0,6.41,4.1S512,468.54,517.13,531.89Z" fill="#f48225" data-secondary="true"/><path d="M517.13,531.89c12.89,9.86,23.79,13.8,23.79,13.8L609.67,572c1.35,1.18,6.9,2.53,6.9,2.53-2.86-2.35-7.24-16-7.24-16-6.07-18.2-1.69-66.56-1.69-66.56.8-7.06.39-30.07.18-39.4a11.54,11.54,0,0,0-1.11-4.88c-1-2-1.2-6.82-1.24-9.32a13.09,13.09,0,0,0-.36-2.3c-.18-.88.43-1.64,1.57-2.3,5.23-3.05,21.52-3.9,21.52-3.9,13.52-2.78,16.93-1,16.93-1,2.79-.25,3.29,6.45,3.29,6.45a4.49,4.49,0,0,1,.48,2.68,7.56,7.56,0,0,0,.13,3.63C653.08,456,672.2,525,672.84,540.43c0,.73,0,1.45.12,2.18a72.46,72.46,0,0,0,7.14,25c3.2,5.55,3,14.15,3,14.15.51,5.56.85,19.55.85,19.55.33,18.2-9.78,24.1-9.78,24.1l-5.56,6.23c-2.53,3.7-8.59,3.87-8.59,3.87l-58.81-1.68c-24.27,1-56.79-4.05-56.79-4.05-7.75-2.86-40.18-9.68-40.18-9.68-2.53-.34-2.2-1.1-2.2-1.1a11.07,11.07,0,0,0,1.69-7.25,3.15,3.15,0,0,0,1-1.34,2.7,2.7,0,0,0-1.35-3.71,3.42,3.42,0,0,0,.59-1.77c.26-2.19-3.2-2.95-3.2-2.95,1.94-2.78-1.1-5.64-1.1-5.64-2.44-2.53-6.9-1.35-6.9-1.35-7.67,2-6.91,5.65-6.91,5.65a3.7,3.7,0,0,0-1.18.08c-1.09-1-5.81-.59-5.81-.59-8.09-1.1-8.77,1-8.77,1a3,3,0,0,0-3.45,1.09c-4.89-.59-21.74.42-21.74.42l-1.26-1.34c-6.07-13.65-16.18-16.52-16.18-16.52-11.8-5.22-23.08,7.93-23.08,7.93-7.25,8.25-14.83,8.42-14.83,8.42-12.3,1-13.15,32.18-13.15,32.18l-21.23-.5-86.44-3.88c-17.36,1.18-42.21-4.47-42.21-4.47-9.73.39-22.62-5.81-22.62-5.81-2-1.39-7.34-2.9-7.34-2.9-14.78-3.67-13.52-18.83-13.52-18.83L182,585.54c-.51-9.73,2.78-14.79,2.78-14.79,6.44-11.62,24.77-14.91,24.77-14.91,4.67-.88,18.2-5.69,18.2-5.69a84.56,84.56,0,0,1,20-4.67c16.43-2.53,60.12,1.13,60.12,1.13a215.37,215.37,0,0,0,37.52,1.76c-3-1-2.23-5.62-2.23-5.62-1.31-1-2-4.45-2-4.45-2.49-2.09-3.27-9.94-3.27-9.94a12.48,12.48,0,0,1-2.49-5.89c-4.31-7.07-3.2-10.68-3.2-10.68C336,523.62,343,525.44,343,525.44c10.48,3.56,23.36-2.3,23.36-2.3,15-6,39.7-25.76,39.7-25.76l12.49-11.15c3.65-2.79,14.22-14,14.22-14,4.14-4.52,3.46-7.21,3.46-7.21,1.83-.15,4.58,7.07,4.58,7.07a4.61,4.61,0,0,1,3.23,2.35,7.6,7.6,0,0,0,6.41,4.1S512,468.54,517.13,531.89Z" opacity="0.2"/><path d="M574.23,339.1c-1-.37-3.53-6.82-3.53-6.82a13.54,13.54,0,0,0-1.2-3.48c-1.71-2.27-3.29-7.64-3.29-7.64a36.27,36.27,0,0,0-1.07-5.88,25.51,25.51,0,0,1-2-5.26,21,21,0,0,0,6.59,7.72,5.89,5.89,0,0,0,3,3.5c-7.58,2.19,1,6.91,1,6.91A46.92,46.92,0,0,0,574.23,339.1Z" fill="#f4a592"/><path d="M586.84,294.78s1.06,1.64,1.64,6.83a13.91,13.91,0,0,0,1.1,3.65s4.88,11.38,5.78,14.89a7.84,7.84,0,0,0,.58,1.48c.77,1.51,2.11,4.77.29,6.37,0,0-4.34-4.44-6.45-6.17a11.9,11.9,0,0,0-1.6-2.61,12.86,12.86,0,0,0-2.25-3.5l-.19-14.4a12,12,0,0,0,.41-2.75,5.24,5.24,0,0,1,.25-1.17A11.16,11.16,0,0,0,586.84,294.78Z" fill="#f4a592"/><path d="M595.61,321s5.13,5.76,4.46,8.21a3.62,3.62,0,0,1-1.3,2.52,12.5,12.5,0,0,0-2.54-3.76s1.4-.93.77-3.57A14.39,14.39,0,0,0,595.61,321Z" fill="#f4a592"/><path d="M376.45,633.31s18.15,2.08,25.94.7c0,0,32.74,2.67,43.46-.53a12.88,12.88,0,0,1,3.32-.55c7.11-.14,31.77-.7,35.34-1.89,0,0,4.93-1.52,7.58-3.67,0,0,8.22-2,9.1-5.18a21.53,21.53,0,0,0,.88-3.2s2.1-2.4,1.69-7.25c0,0,3-2.65-.34-5,0,0,2-3.6-2.61-4.72,0,0,2.39-3.13-2.39-6.57,0,0-1.9-1-5.61-.42,0,0-7,1.47-6.91,5.65a2.7,2.7,0,0,0-1.18.08s-1.11-1.12-5.81-.59c0,0-7.27-1.23-8.77,1a2.76,2.76,0,0,0-3.45,1.09,151.38,151.38,0,0,0-21.74.42s-.89-1-1.26-1.34c0,0-4.68-12.22-16.18-16.52,0,0-8-4.23-17.69,3.1a30.26,30.26,0,0,0-5.52,5s-6.42,7.5-14.7,8.22c0,0-4.11-.36-7.52,6,0,0-3,4.42-4.36,13.71C377.72,620.8,376.45,629.77,376.45,633.31Z" fill="#f9b499"/><path d="M262.61,89.86a38.33,38.33,0,0,0-2.38-7,6.56,6.56,0,0,1-.36-3.56s-.35-10.92,1.79-17c0,0,.71-6.17,2.84-5,0,0,3.45.83,2.62,6.41l-.55,3.79a16.66,16.66,0,0,0,.05,5.18,37.27,37.27,0,0,1,.62,6.35l1.66,2.73-2.26,5.35A23.25,23.25,0,0,0,262.61,89.86Z" fill="#f9b499"/><path d="M266.64,87.13A114.75,114.75,0,0,1,274,72.4s11.16-21.63,16-25.61a1.69,1.69,0,0,1,2.34.19,4.83,4.83,0,0,1,1.08,3.46,8.16,8.16,0,0,1-.83,3.35l-8.78,18.53-14.16,13Z" fill="#f9b499"/><path d="M227.92,571.75s47.78-17.87,96,9.71c0,0,27.56,17,50.56,15.71a31,31,0,0,1,15.17,4A20,20,0,0,0,400,596.66s-12-4.72-20.88-5.77a91.52,91.52,0,0,1-9.3-1.54c-10.65-2.41-32-7.72-39-12.93a35.12,35.12,0,0,0-5.15-3.29C312.84,566.63,269.47,548.2,227.92,571.75Z" opacity="0.1"/><path d="M345.31,548.37s51,37.42,57.3,46c0,0-31.35-40.1-59.53-51.64C343.08,542.75,342.22,547,345.31,548.37Z" opacity="0.1"/><path d="M607.14,545.18S627.7,585.63,653.81,590c0,0-15.34-1.18-37.24-15.51C616.57,574.5,608.82,564.39,607.14,545.18Z" opacity="0.1"/><path d="M425.57,454.52s-6.52,9.14-21.66,15.74c0,0,11.84-2,24.4-14.26A29.38,29.38,0,0,0,425.57,454.52Z" fill="#f4a592"/><path d="M409.57,207.92l-1.34,15.16a27.35,27.35,0,0,1-.48,3.23c-.65,3.13-2.26,9.52-5.26,14.3l-3.88,6.4a37.78,37.78,0,0,0-2.62,5.12,41.67,41.67,0,0,1-2.13,4.66,27.74,27.74,0,0,1-2.42,3.85,24.53,24.53,0,0,0-1.87,2.55A53.68,53.68,0,0,0,383.11,279l-5.52,17.23s20.47,3.16,24.9,6.32c0,0,11.12-4.3,17.44-5.31,0,0,5.05-1.39,13.77,1.52,0,0,.64-5.06,4.93-7.33,0,0,2-9.86-8.09-11.63,0,0,0-11.12,11.38-8.09,0,0,5.43,2.4,5.05-4.17,0,0-4.55-3.28-5.43-6.44,0,0,1.26-10.75,8.09-12.14,0,0-11.8-3.91-19.51-8.72a3.93,3.93,0,0,1-1.77-1.26s-7.6-.19-11.33-9.92C417,229.09,412.35,217.53,409.57,207.92Z" fill="#f9b499"/><path d="M458.85,251c-47.89-8.72-49.79-35.64-49.79-35.64a42.68,42.68,0,0,0-.69,7s6.34,27.74,40.37,37.35l3.79,12.13Z" fill="#f4a592"/><path d="M442.42,249s-6.78-.13-.88,12.14c0,0,.32,2.54,5.43,6.44,0,0,9.37,8.25,16.46,2.89a5.74,5.74,0,0,0,2.29-3,9.13,9.13,0,0,0-.74-8c-1.82-3-5-8-7.83-10.37l-7.52-.11S444.9,249.6,442.42,249Z" fill="#f9b499"/><ellipse cx="460.7" cy="218.85" rx="32.56" ry="52.32" transform="translate(174.39 640.95) rotate(-81.26)" fill="#f9b499"/><path d="M508.22,209.69s9.74,2,15,16.81c0,0,8.82,29.62-1.92,49.59-.73,1.35-1.45,2.69-2.12,4.06-1.75,3.59-5.45,10.62-8.81,13.17a10.91,10.91,0,0,0-2.6,2.65,10.3,10.3,0,0,0-1.78,4,4.37,4.37,0,0,1-.58,1.84,4.21,4.21,0,0,1-2,1.88,17,17,0,0,0-2.14.84,38.07,38.07,0,0,1-7,2.82,6.77,6.77,0,0,1-2.82.26s-2.53-1.22-6.57,1.56c0,0-3.63,2.28-9.69,9.19,0,0-12.81,15-27.3,8.76,0,0-9.14-11.42-11.92-20.64,0,0-1.52-2.4-2.28-7.71,0,0,.51-5.06,4.93-7.33,0,0,2-10-8.09-11.63,0,0,0-6.44,4.81-8.09,0,0,2.4-1.39,6.57,0,0,0,5.69,2.28,5.05-4.17,0,0,10.37,9.23,17.7,1.65a8.81,8.81,0,0,0,1.25-8.14s-2.38-5.44-8.77-12l4.48,0s.51-9.16,7.14-8.85a13.84,13.84,0,0,1,5.31,1.52s4.17,2,5.37-1.26c0,0,2.78-13.4,10.74-12.07a8.69,8.69,0,0,1,4.15,1.7s8.63,7.86,14.67,0C509,230.13,516.31,222.67,508.22,209.69Z" fill="#f48225" data-secondary="true"/><path d="M437.71,311.23s5,10,10,15.77c0,0,4.72,6.24,3.87,14.16a23.9,23.9,0,0,1-2.69,16.34s-7.75,9.78-9.1,15.84l-1.35,6.07h0l-1.94,6.23s-1.26,9.1-3.54,13.23c0,0-6.06,10.36-15.08,7.08,0,0-10.91-4.3-16.85-8.34,0,0-17.69-10.87-21.86-28.31,0,0-4.17-14.41-5.06-18.83,0,0-16.68-7-24.39-9.35,0,0-19.84-7.71-27-12.9,0,0-12.26-7.2-19.21-12.76,0,0-15.42-10.49-20.86-14.91,0,0-9.81-7.33-14.53-11,0,0-5.39-4.29-9.44-7,0,0-8.5-2.53-8.67-9.43,0,0-1.48-16.6-2.36-22.54l-2.4-28.06s-1.27-11.37-1.52-25.78c0,0,0-15.12.29-18.75,0,0-.16-21.44-.92-27.38,0,0-2.15-8.34.38-16,0,0,1-5.81,3.66-9.22l2.28-5.06a66.91,66.91,0,0,1,4.8-10s4.42-7.84,5.31-13.15c0,0,1.13-5.68,3.28-7.71a44.37,44.37,0,0,1,6.7-4.29s11.88-11.38,14.16-13l19.21-21s4.42.51,2.4,6.7c0,0-3,5.56-5.94,8.21,0,0-6.32,9.1-8.85,11.63,0,0-4.3,7.46-7.71,10.74,0,0-2.15,3-.63,3.79,0,0,13.14-.12,14.66,1.4l8.34,9.6a12,12,0,0,1,2.4,9.86s-3.54.25-5.18,1.89l-1.9-7s-1.89-.12-8-6.06a12.59,12.59,0,0,1-10.36-.26s-.25,1.14-2.28,1.9c0,0-1.76,2.53-4,2.65,0,0,3.16,14.41,13,14a24,24,0,0,0,8.84-2.78s9.31-7.11,14.78-3.72a3.13,3.13,0,0,1,1.45,2.41c.13,1.72-.38,4.52-4.47,6.11a24.82,24.82,0,0,0-4.72,2.56,21.36,21.36,0,0,1-3.87,2.44c-4,1.9-11.11,5.25-12.9,5.87,0,0-1.64,2.4-7.71,2.91,0,0-10.49,3.92-13.27,4.17,0,0-.5,2.53-1.13,4.67a270.09,270.09,0,0,0,4.67,34.63l15.8,74.27s3,7.56,22.68,13.88c0,0,10.43,2.72,24.84,12.7a87.4,87.4,0,0,0,19.33,9.48s14.41,5.94,24.27,6.19c0,0,22.6,2.35,35.5,11.6l7.32-1.05S430.3,303.88,437.71,311.23Z" fill="#f9b499"/></svg>