<svg id="ae323609-6142-4458-8c20-9c4bb72a4b3f" data-name="Layer 1" xmlns="http://www.w3.org/2000/svg" width="865.76" height="682.89" viewBox="0 0 865.76 682.89"><path d="M466.88,620.33a72.81,72.81,0,0,0-23.21-37.89l-1.93-1.64a478.66,478.66,0,0,0-132.6-79C235.23,472.49,78.65,389.43,163.82,235.16c0,0,72.35-167.42,296.61-195.33,0,0,22.91-2.5,16,13.82a24.4,24.4,0,0,1-6.51,8.76c-8.37,7.35-30.85,30-14.65,48.73,0,0,46.85,35.49,111.61,53.4,0,0,192.3,49.93,181,169.82-.2,2.09-.39,4.17-.45,6.28-.41,13.9-6.12,85.21-77.81,181.58a376.89,376.89,0,0,1-57.9,61.65c-39.21,33.41-108.84,86.29-162.6,91.9C449.07,675.77,474.36,650.33,466.88,620.33Z" fill="#d1d3d4" opacity="0.74"/><path d="M254.18,519.53a78.47,78.47,0,0,0,21.26-41.45c.14-.83.28-1.68.42-2.57a473.45,473.45,0,0,0-1.52-157.06c-14-79-24.91-258.56,159.39-276.59,0,0,189.1-36.42,336.09,135.56,0,0,14.7,17.77-3.65,21.43a26,26,0,0,1-11.38-.38l-.34-.08a42.22,42.22,0,0,0-52.18,41c0,23.45,2.37,60.67,14,99.65,0,0,60.09,190.63-53.71,250.47-1.91,1-3.81,2-5.66,3.16-12.89,7.85-79.75,44.23-204.63,40a391.7,391.7,0,0,1-86.64-12.83c-51.21-13.51-136.39-41.25-170.67-83.11C194.91,536.74,231.43,543.21,254.18,519.53Z" fill="#bcbec0" opacity="0.43"/><path d="M463.53,195.63c3.1,13.05,9.56,18.47,15.25,20.64a17.66,17.66,0,0,0,14.53-1.16c19.05-10.18,40.5-13.8,40.5-13.8,3.28,0,7.49-1.88,10.48-3.48a38.48,38.48,0,0,0,5.87-4c12.44-10.09,30.42-14.7,30.42-14.7l40.95-13.43c1.68-3.75,5.81-7.88,5.81-7.88,4.27-3.49,11.89-16.28,11.89-16.28,1.68-4.13,3.74-1.81,3.74-1.81,1.17,1.42-1.68,6.85-1.68,6.85-1.93,2.58-1.55,3.62-1.55,3.62,1,4.39,14.6-7.88,14.6-7.88,5.43-5.56,5.69-1.68,5.69-1.68,0,1.93-7.5,8.65-7.5,8.65-4,3.36-3.36,5.3-3.36,5.3.52,4.13,18-4.65,18-4.65a1.44,1.44,0,0,1,1.81,1.55c-.52,2.45-14.08,7.88-14.08,7.88-3.88.77-3.36,3.36-3.36,3.36.13,3.23,13.18-1.42,13.18-1.42,5.42-2.07,4.65,1.42,4.65,1.42-1.29,2.84-15,5.29-15,5.29-4.39.65-4.78,1.94-4.78,1.94-2.19,2.33,7.88,4.65,7.88,4.65,6.72.65,3.75,2.72,3.75,2.72-4,2.58-25.06-1.3-25.06-1.3-12.41-1.29-22.48,6.46-22.48,6.46-11.51,9.17-38.5,20.8-47.59,24.59-1.65.68-3.33,1.22-5,1.74-5.1,1.56-13,5.71-13,5.71-19.89,12.66-44.7,22.74-44.7,22.74-28.93,36.17-9.81,93.7-9.81,93.7,4.13,5.51,5.51,14.47,5.51,14.47,23.42,44.44,35.14,105.42,35.14,105.42,27.9,33.41,35.05,91,35.05,91,.37,1.34.91,2.93,1.5,4.53a45.51,45.51,0,0,0,6.58,11.71c6.33,8.37,11.55,22,11.55,22,3.36,10.59-11.88,22-11.88,22-9.56,5.17-10.59-26.87-10.59-26.87a66,66,0,0,0-9-27.91c-23-32.29-37.2-83.19-37.2-83.19A58.47,58.47,0,0,0,516,453.74c-27.13-26.35-50.9-90.94-50.9-90.94-3.35,1-7.75,0-7.75,0-20.93,58.13-46,86.81-46,86.81-7.75,7.23-13.95,27.39-13.95,27.39-10.85,37.2-23.25,54.51-23.25,54.51l-12.4,21.19c-3.11,2.58-4.4,12.66-4.4,12.66L353.47,594c-.52,5.68-3.62,7.49-3.62,7.49-4.39,3.62-15.24-15-15.24-15C330.21,577,347.27,554,347.27,554l3.61-5.68c14.73-70.28,33.33-92.5,33.33-92.5,3.1-2.58,4.91-9.3,4.91-9.3,8.27-45,32-97.15,32-97.15l3.62-15.76c9.84-39.23-.79-65.64-11.28-80.78a58.69,58.69,0,0,0-23.36-19.59c-16-7.5-34.61-18.22-34.61-18.22A73.23,73.23,0,0,0,343,209.15c-18.43-6.2-53.22-27.56-53.22-27.56-5.52-3.79-13.44-2.93-13.44-2.93-8.47,1.78-20.19,2.69-24.68,3a1.89,1.89,0,0,1-2-1.72h0a1.88,1.88,0,0,1,1.66-2.05,15,15,0,0,0,8.28-3.49,1.1,1.1,0,0,0,0-1.71c-1.82-1.32-6.53-3-10.63-4.23l-7.2-1.5s-1.9-3.62,1.38-3.79l11.71,2.93c4.65.86,4.31-1.21,4.31-1.21,0-1.72-16.54-9.47-16.54-9.47-2.07-3.1,1.38-2.76,1.38-2.76l12.23,4.48c4,1.73,4.82,0,4.82,0,.82-2.06-6.56-9.15-9.59-11.94a1.82,1.82,0,0,1-.18-2.48h0a1.82,1.82,0,0,1,2.57-.26l10.65,8.83a5.78,5.78,0,0,0,3.26,2,1.84,1.84,0,0,0,2-2.49l-2.37-6.36a2,2,0,0,1,1.08-2.5h0a2,2,0,0,1,2.42.77l6.87,11c5.7,5.81,8.25,9.81,9.35,12a5.25,5.25,0,0,0,3.13,2.66c24.76,7.55,41.46,14.18,50.75,18.23a53.68,53.68,0,0,1,12.34,7.51l.27.22a35.62,35.62,0,0,0,14.92,7.26c23.16,5,47,16.55,47,16.55,7.49,1.81,15.24-2.59,15.24-2.59,12.14-5.94,8.27-17.82,8.27-17.82Z" fill="#f9b499"/><path d="M422.19,268.49s0-8.39,8-20.75a9.12,9.12,0,0,0,1.48-4.34c.5-7.18,2.07-28.53,3.46-31.1a5.63,5.63,0,0,0,1.68-1.68s-2.54,21.78-2.35,32.62a9.29,9.29,0,0,0,3.16,7,16.66,16.66,0,0,0,3.84,2.38s12.41,5.3,14.6,13.82c0,0,3.62-8.78,10.47-11,0,0,8.91-4.39,9.17-11.37l-6.59-35.52a22.67,22.67,0,0,0,2.45,2.84l6.59,34.11S489,256.61,489.5,267.2C489.5,267.2,449.71,271.59,422.19,268.49Z" fill="#686175" data-primary="true"/><path d="M421.16,349.36s2.24-11.19,3.62-15.76c0,0,28.94,6.8,69.07-2.15,0,0,3.44,4.3,5.17,13.95,0,0-29.63,12.75-33.94,17.4a17.3,17.3,0,0,1-7.75,0S433.56,351.3,421.16,349.36Z" fill="#686175" data-primary="true"/><path d="M439.25,205.45a33.22,33.22,0,0,0-.16-10.21l24.44.39A38.62,38.62,0,0,0,466,203S455.52,212,439.25,205.45Z" fill="#f7aa92"/><ellipse cx="449.55" cy="170.94" rx="23.87" ry="34.25" transform="translate(-15.63 48.78) rotate(-6.1)" fill="#f9b499"/><path d="M429.24,186.59s-40.2-6.26-44.37-36c0,0-2.39-10.72,18.16-21.74,0,0,2-1.09,1-4.22a24.79,24.79,0,0,1-1.17-5.65c-.49-8.76,1.27-29.45,28.14-32.72,0,0,6.55-.59,9.23-3,0,0,10.72-8.09,27.85-6.47a49.83,49.83,0,0,1,12.14,2.88c7.4,2.69,26.66,8.74,40.12,4.49,0,0,42.89-14.89,47.65-5.06,0,0,3.28,5.19-10,14.26a10.38,10.38,0,0,0-4,5c-1.15,3.14-.9,7.25,7.5,8.14,0,0,14-1.19,14.89,11,0,0,1.6,6.62-8.58,13.66a34.32,34.32,0,0,1-7.94,3.92c-6.19,2.2-19.71,8.45-10.58,18.76,0,0,12.51,5.66,1.79,13.7,0,0-35.41,23.59-79.48,19.42,0,0,3.5-12.42,1.27-21.21A37.84,37.84,0,0,1,453,154.9a20.42,20.42,0,0,0-8.44-5.61c-6.59-2.13-15.14-2.49-18.17,10.31a31.82,31.82,0,0,0-.75,8.32A53.31,53.31,0,0,0,429.24,186.59Z" fill="#f48225" data-secondary="true"/><ellipse cx="426.11" cy="171.67" rx="4.62" ry="5.96" fill="#f9b499"/><ellipse cx="473.47" cy="171.67" rx="4.62" ry="5.96" fill="#f9b499"/></svg>