<svg xmlns="http://www.w3.org/2000/svg" width="865.76" height="682.89" viewBox="0 0 865.76 682.89"><g style="isolation:isolate"><g id="bcceecc4-1d13-4eba-be2c-e068e64bc51b" data-name="Layer 1"><path d="M863.44,198V209.6H860V198h-2.82V209.6H828.61V218H818.06v1.41h-3.51v18.69H800.78V179.57h-2.13v38.69H784.17V156.8h-7.42v-5.7h-1.67v-.89h-.68v-1.58h-1.25V136.74h-.8l-.44-10.39h-.35l-.44,10.39h-.8v11.89h-1.25v1.58h-.68v.89h-1.67v5.7H746.07l-11.91,18.51v14.61h-6.5v13.44h-3.89c-.11.24-.21.48-.34.72v23.8h-7.55V217.3l-9.59-5.69V114.06h-30V78.46H656.19v35.6H642.38V180H629.67v-6.59h-.9v58.42H624V192.54h-25.7v39.27H594v60.54h-1.58v-3.49h-4.34V130.11h-21v98.73H556.54v1.61H553v20.72H530.21V209.6H522.9V198h-2.82V209.6h-3.45V198H513.8V209.6H485.25V218H474.7v1.41h-3.52v18.69H457.41V179.57h-2.13v38.69H440.81V162.59H399l-8.18,12.72v14.61h-6.51v13.44H380.4c-.11.24-.21.48-.33.72v23.8h-7.56V217.3l-9.59-5.69V114.06H333V78.46H312.83v35.6H299V180h-12.7v-6.59h-.91v58.42h-4.77V192.54h-25.7v36.3h-8.61V130.11h-21v45.58h-25.6v9.65H189.19V187h-3.51v21.47h-1v-35h-.9V180H171V101.83h-54V211.61l-9.59,5.69v10.58H99.9v-23.8c-.12-.24-.22-.48-.33-.72H95.68V189.92H89.17V175.31L77.27,156.8H56.62v-5.7H55v-.89h-.68v-1.58H53v-.4l-2.84,0v.44H48.94v1.58h-.68v.89H46.58v5.7H39.16v61.46H24.69V179.57H22.56v58.54H8.79V219.42H5.27V218H-.37V438.46H864.88V198Zm-91.89-49.79h-.38V137.53h.38Zm.75,0h-.38V137.53h.38Z" fill="#ccc" opacity="0.62" style="mix-blend-mode:multiply"/><polygon points="-0.24 540.9 212.4 434.97 664.01 435.62 868.02 528.67 868.02 683.03 0.99 684.03 -0.24 540.9" fill="#ccc"/><polygon points="-0.24 540.9 212.4 434.97 664.01 435.62 868.02 528.67 868.02 683.03 0.99 684.03 -0.24 540.9" fill="#58595b"/><polygon points="212.4 434.97 -0.04 434.24 -0.24 540.9 212.4 434.97" fill="#ccc"/><polygon points="664.01 435.62 866.09 436.05 868.02 528.67 664.01 435.62" fill="#ccc"/><polygon points="125.86 574.81 197.15 575.36 268.98 513.94 215.79 516.14 125.86 574.81" fill="#fff"/><polygon points="263.5 574.26 313.94 516.69 363.84 515.59 334.23 574.72 263.5 574.26" fill="#fff"/><polygon points="401.13 575.27 412.64 515.67 461.99 516.14 473.5 574.26 401.13 575.27" fill="#fff"/><polygon points="510.24 516.69 540.95 574.89 611.68 574.26 560.14 515.67 510.24 516.69" fill="#fff"/><polygon points="608.94 516.69 679.13 574.81 751.51 574.81 661.03 516.14 608.94 516.69" fill="#fff"/><polygon points="707.1 516.69 816.21 574.26 870.85 574.81 759.19 516.14 707.1 516.69" fill="#fff"/><path d="M102.12,127.24H83.26a1,1,0,0,1,0-2h18.86a1,1,0,0,1,0,2Z" fill="#fff"/><path d="M279.52,211a6.16,6.16,0,0,1,1.8-3.31s-.35,2.5-.34,3.31Z" fill="#f4a68e"/><path d="M260.33,492.64l2.8-.5a5.23,5.23,0,0,0-2.15-1.6Z" fill="#3f3d56"/><path d="M201.06,350.65c-1.3,2.15-.74,9.75-.74,9.75s-1.66,5.36,1,7.8c0,0,.29,4.87-.36,7.08,0,0-2.21,11.57-.26,15.47l2,9a4.43,4.43,0,0,1-1.69,4.55s-2.47,1.82-.65,5.33a1.28,1.28,0,0,1-1.17,1.56s-2.46,1.3-.65,3.37c0,0-4.58,7.87-1.36,13.42,0,0,4.09,1.27,20.67,2.05a9.59,9.59,0,0,0,1.61-6.18,1.86,1.86,0,0,1,.87-1.79c2.06-1.32,6-4.47,3.75-7.94a1.79,1.79,0,0,1,0-1.89c.75-1.21,1.72-3.66,1.21-7.84l-.58-3.41a5.88,5.88,0,0,1,.24-3,6.36,6.36,0,0,0,.78-2.06,46.45,46.45,0,0,0,.44-10.56,84.84,84.84,0,0,0,5.75-21.25s.3-1.47,2.83,4.09a25.44,25.44,0,0,0,2.06,12.48,11.64,11.64,0,0,1,1.22,5.11c0,3.53.16,9.2,1.13,11.22a1.2,1.2,0,0,1,.08.91,4.05,4.05,0,0,0,.23,3,14.21,14.21,0,0,1,1.59,4.84,8.48,8.48,0,0,0,.42,1.91,5.64,5.64,0,0,1,.36,2.81c-.28,1.86-.42,4.93,1.21,6.75a3.79,3.79,0,0,1,1.08,3,5.63,5.63,0,0,1-1,2.56s-1.46,4.68,2.73,5.46l.59,2.82s15.11-.78,20.27-2.92a4.49,4.49,0,0,0-.58-4.29,38.92,38.92,0,0,0-.78-5.46,5.13,5.13,0,0,1,.84-4.28,3.74,3.74,0,0,0,.72-2.93s-.07-1.36-2.22-2.42a.75.75,0,0,1-.21-1.21,4.44,4.44,0,0,0,1.36-3.68,17.14,17.14,0,0,0-1.08-5.75l-.87-6.93s2.14-10.33,2-14.42c0,0-.39-18.91-2.34-27.88l-3.71-1L208,346.36Z" fill="#2f2e41"/><path d="M179.09,250.3s-3.85,5.31,3.47,11.6c0,0,7.36,2.49,10.77-1.95,0,0,1.61-6.92-1.86-9.41l-12.38-.24" fill="#686175" data-primary="true"/><path d="M179.09,250.3s-3.85,5.31,3.47,11.6c0,0,7.36,2.49,10.77-1.95,0,0,1.61-6.92-1.86-9.41l-12.38-.24" opacity="0.2"/><path d="M216,238.06s-3.5-2.55.05-12C216.08,226.07,217.58,233,216,238.06Z" fill="#686175" data-primary="true"/><path d="M216,238.06s-3.5-2.55.05-12C216.08,226.07,217.58,233,216,238.06Z" opacity="0.2"/><path d="M215.54,223.32s1.74,7.66.33,14.16a.65.65,0,0,0,.16.58,23.18,23.18,0,0,0,7.56,4.84,4.63,4.63,0,0,0,1.54.37,6.71,6.71,0,0,1,2.52.68,2.51,2.51,0,0,0,1.4.28c2.23-.19,7.81-1.31,7.23-7.78a5.39,5.39,0,0,1,0-.7,89.89,89.89,0,0,0,0-9.87s-3.39,7.17-9.83,7.47C226.41,233.35,219.17,233.69,215.54,223.32Z" fill="#f9b499"/><path d="M179.54,251.4s0,6.7,5.11,8c0,0,4.24,1.11,5.85-1.91a4.33,4.33,0,0,0,.46-2v-4a5.66,5.66,0,0,1-1.73,1.66s-2.72,3.11-5.64,2.25C183.59,255.38,181.67,255.05,179.54,251.4Z" fill="#f4a68e"/><path d="M200.32,339.83l.74,10.82a62,62,0,0,0,9.13-.77.12.12,0,0,0,0-.24c-.91-.2-2.55-.69-.22-1.13,0,0,4.55-.78,4.94.78,0,0-.07.71,3.05.71s38.47-.19,42.76-1.49l3.51-6.24-2.34-42.89L250.71,280l-8.18-20.66-3.25-23.79-3,.89s1.36,6.93-7.23,7.78c0,0-.38.15-1.4-.28a5.82,5.82,0,0,0-2.67-.72,2.78,2.78,0,0,1-1.39-.33s-7.81-3.87-7.72-5.42l.08,1.59s4.5,4.91,2.4,10.53Z" fill="#ccc"/><path d="M217.77,430l-2.93,22.23-1.69,7c-.28,6.36-1.69,9.74-2.51,11.2a10,10,0,0,0-1.32,6.38v0a7.73,7.73,0,0,0,.79,2.39,8.75,8.75,0,0,1,.57,5.85,5.33,5.33,0,0,1-.45,2.32,3.17,3.17,0,0,1-.89,1.14,1.78,1.78,0,0,1-2,.06c-2.68-1.48-5.31,1.51-6.51,3.21a6.18,6.18,0,0,1-2.57,2.07c-7.53,3.31-17.23-.22-17.23-.22-.26-2.87,5.71-6.63,5.71-6.63,3.52-2.47,6.05-7.53,6.05-7.53,4.49-6.25,2.92-21.07,2.92-21.07L197.1,428C205.61,429.68,217.77,430,217.77,430Z" fill="#686175" data-primary="true"/><path d="M210.19,489.8a1.76,1.76,0,0,1-1,1.36,29.61,29.61,0,0,1-4.6,1.48V491.4a.4.4,0,0,0-.14-.31c-1.55-1.32-3.64,2.6-3.64,2.6-1,2.59-5.71,3.38-5.71,3.38-4.74,1.5-11.26.16-13.36-.35a.9.9,0,0,1-.68-.87v-2.16s9.7,3.53,17.23.22a6.18,6.18,0,0,0,2.57-2.07c1.2-1.7,3.83-4.69,6.51-3.21a1.78,1.78,0,0,0,2-.06,3.17,3.17,0,0,0,.89-1.14l.06,0A11.16,11.16,0,0,1,210.19,489.8Z" fill="#2f2e41"/><path d="M284,493.58a1.33,1.33,0,0,1-.66.83c-3.67,2-10.15,1.23-10.15,1.23-7.28-.13-9.88-4.82-9.88-4.82-2.73-4.8-6.36-1.94-6.36-1.94l-2.22-1.82c-1-6.11,1.17-8.19,1.17-8.19,1-1.43,0-5.07,0-5.07-3.5-3.51-3-10.13-3-10.13,0-4-.65-4.69-.65-4.69-3.89-8.05-5.94-27.9-5.94-27.9,16.54-1.14,20.27-2.93,20.27-2.93,2,13.75,3,42.8,3,42.8,2.21,13.38,10.79,17.54,10.79,17.54A7.8,7.8,0,0,1,284,492.7,1.4,1.4,0,0,1,284,493.58Z" fill="#686175" data-primary="true"/><path d="M283.74,496.67a.77.77,0,0,1-.52.31l-5.08.87c-6.47,1.11-11.88-2.07-13.29-3a1.24,1.24,0,0,1-.48-.65,7,7,0,0,0-3.38-3.5l-.66,1.94L255,490.57l-.26-3.51,2.22,1.82s3.63-2.86,6.36,1.94c0,0,2.6,4.69,9.88,4.82,0,0,6.48.77,10.15-1.23a1.33,1.33,0,0,0,.66-.83C284.41,495.4,284,496.28,283.74,496.67Z" fill="#2f2e41"/><path d="M202.05,491.8l2.53.84.07-1.29S204.38,489.63,202.05,491.8Z" fill="#3f3d56"/><path d="M218.74,244.3s0,.15.06.43a10.53,10.53,0,0,0-1.08-3.41L216,238.06c-2.45-3,.05-12,.05-12-3.64,2-5,7.64-5,7.64l-1.54,9.45c2.15,1.17,8.77,6.44,8.77,6.44s7,5.23,9.65,7.47C228,257.07,223,248.4,218.74,244.3Z" fill="#686175" data-primary="true"/><path d="M218.74,244.3s0,.15.06.43a10.53,10.53,0,0,0-1.08-3.41L216,238.06c-2.45-3,.05-12,.05-12-3.64,2-5,7.64-5,7.64l-1.54,9.45c2.15,1.17,8.77,6.44,8.77,6.44s7,5.23,9.65,7.47C228,257.07,223,248.4,218.74,244.3Z" opacity="0.2"/><path d="M236.28,236.45a9.19,9.19,0,0,1,2.38,3.79,19.62,19.62,0,0,1,1.4,7.53c0,4.72.08,14.52,1.1,17.59L247,252.73a4.63,4.63,0,0,1,1.36-1.71l6.1-4.81a1,1,0,0,0,.15-1.42,51.69,51.69,0,0,1-3.43-4.58,47.09,47.09,0,0,0-14.82-12.05Z" fill="#686175" data-primary="true"/><path d="M236.28,236.45a9.19,9.19,0,0,1,2.38,3.79,19.62,19.62,0,0,1,1.4,7.53c0,4.72.08,14.52,1.1,17.59L247,252.73a4.63,4.63,0,0,1,1.36-1.71l6.1-4.81a1,1,0,0,0,.15-1.42,51.69,51.69,0,0,1-3.43-4.58,47.09,47.09,0,0,0-14.82-12.05Z" opacity="0.2"/><path d="M210.43,237.9a9,9,0,0,0-3,2.09,1.79,1.79,0,0,1-2.28.33,3.61,3.61,0,0,0-1.13-.47s-2.79-1.1-7.4,1.24c0,0-2.6,7.73-5.2,9.81,0,0,2.54,5,1.23,8.86a3.19,3.19,0,0,1-2.4,2.06,15.72,15.72,0,0,1-5.55.22,6.6,6.6,0,0,1-4.55-3.22c-1.2-2.08-2.81-5.81-1-8.67,0,0-1.51.87-1.94,5.21a7.36,7.36,0,0,0,.91,4.34,17,17,0,0,0,3.68,4.77,3.74,3.74,0,0,1,1,1.24,9.34,9.34,0,0,0,4,3.55l4.1,2a4.86,4.86,0,0,0,2.1.54,2.14,2.14,0,0,1,1.6.63,2.19,2.19,0,0,0,.22.2,3.87,3.87,0,0,1,1.28,1.74,6.35,6.35,0,0,0,2.4,2.84l.93,1.2a2.48,2.48,0,0,1,.45,2.07A108,108,0,0,0,197.29,304l-1.16,11s-2.64,9.84.09,19c0,0,.1,8,4.1,5.85,0,0,.87-.68,2.24,1.37,0,0,7,4.49,20.49,3.48a1,1,0,0,0,.92-.92l.49-6.3s-.91-7.15-.39-9.49l.71-23.33,1-11.5a30.74,30.74,0,0,1,.81-4.87,75.07,75.07,0,0,0,1.54-7.6,21.44,21.44,0,0,1,.56-3,29.63,29.63,0,0,0,.82-4.19,22.88,22.88,0,0,1,.64-3.38C231,267.19,232,261,228,257.07c0,0-13.73-11-18.42-13.91Z" fill="#686175" data-primary="true"/><path d="M249,237.74a3.08,3.08,0,0,1,3.65,1.71,1.64,1.64,0,0,0,2.19-.12s2.32-1.71,4.26-1.71c0,0,8-3,12.29-.61l3.05,54.89.85,7.42s1.09,3.28.73,9.49l.36,10.59s1.1,7.42-.61,11.19c0,0-1.06,4.24-1.82,6.1a4.1,4.1,0,0,0-.32,1.69,20.29,20.29,0,0,1-.29,4.35,4.19,4.19,0,0,1-2.42,2.93l-9.57,4.26a.94.94,0,0,1-1.31-.74l-.62-4.83a1,1,0,0,1,.46-.93l3-1.75-1.1-15.34a8,8,0,0,0-.61-3.53s-1.09-3-.73-4.74a26,26,0,0,1-2.19-14.48s.73-7.3-3.28-10.35c0,0-13.56-14.37-13.84-27.87L247,252.73a3.35,3.35,0,0,1,1.36-1.71l5.84-4.67a1,1,0,0,0,.41-1.56S249.89,238.37,249,237.74Z" fill="#686175" data-primary="true"/><rect x="259.05" y="210.96" width="50.18" height="70.28" fill="#f48225" data-secondary="true"/><polygon points="261.99 255.42 261.99 237.52 276.22 224.17 293.98 223.58 306.45 236.49 306.01 254.4 292.8 267.6 274.17 267.6 261.99 255.42" opacity="0.2"/><path d="M270.88,236.56c2.63,0,4,1.58,4,4.33v.54H272.3v-.72c0-1.22-.49-1.69-1.35-1.69s-1.35.47-1.35,1.69c0,3.54,5.28,4.2,5.28,9.12,0,2.75-1.37,4.32-4,4.32s-4-1.57-4-4.32v-1.06h2.55V250c0,1.23.54,1.67,1.4,1.67s1.4-.44,1.4-1.67c0-3.54-5.28-4.2-5.28-9.11C266.9,238.14,268.25,236.56,270.88,236.56Z" fill="#fff"/><path d="M275.64,236.76H284v2.46h-2.82V254h-2.7V239.22h-2.83Z" fill="#fff"/><path d="M285,240.89c0-2.75,1.45-4.33,4.11-4.33s4.1,1.58,4.1,4.33v8.94c0,2.75-1.45,4.32-4.1,4.32s-4.11-1.57-4.11-4.32Zm2.71,9.11c0,1.23.54,1.69,1.4,1.69s1.4-.46,1.4-1.69v-9.29c0-1.22-.54-1.69-1.4-1.69s-1.4.47-1.4,1.69Z" fill="#fff"/><path d="M302.91,241v2.23c0,2.75-1.33,4.25-4,4.25H297.6V254h-2.7V236.76h4C301.58,236.76,302.91,238.26,302.91,241Zm-5.31-1.79V245h1.28c.86,0,1.33-.4,1.33-1.62v-2.58c0-1.23-.47-1.62-1.33-1.62Z" fill="#fff"/><path d="M272.62,207.86l.14,3.16,3.88.07S274.7,204.91,272.62,207.86Z" fill="#f9b499"/><path d="M282,206.77a2.32,2.32,0,0,0-.81,1.55c-.19,1.7-.51,5.77.74,6.22,0,0,1.36.86,2.15-1.51l.38-5a1.59,1.59,0,0,0-.91-1.59A1.47,1.47,0,0,0,282,206.77Z" fill="#f9b499"/><path d="M284.4,207.64s1.15-1.44,2.38-1.08a1.52,1.52,0,0,1,1.32,1.33l-1,5.79s-.14,2.15-2,1.87c0,0-1.36-.22-1.22-2,0,0,.06,0,.21-.5Z" fill="#f9b499"/><path d="M288.1,207.89s0-2.34,1.9-2c0,0,1.95-.3,1.36,3,0,0-.87,5.12-1.85,5.9a1.63,1.63,0,0,1-2.45-1.09Z" fill="#f9b499"/><path d="M291.08,210.71s-.35,2,.72,1.89c0,0,1.22.52,2.18-2.3,0,0,.77-2.77-.91-3.34C293.07,207,290.89,206.16,291.08,210.71Z" fill="#f9b499"/><path d="M216.23,227.34l-.6-4s6.55,11.09,14.69,8.85C230.32,232.22,223,239.58,216.23,227.34Z" fill="#f4a68e"/><path d="M211.53,210.44s-2.76-2.15-2.33-5c.31-.25.63-.5,1-.76a18.64,18.64,0,0,1,2.38-1.44l.12,7.17A1,1,0,0,0,211.53,210.44Z" fill="#686175" data-primary="true"/><path d="M211.53,210.44s-2.76-2.15-2.33-5c.31-.25.63-.5,1-.76a18.64,18.64,0,0,1,2.38-1.44l.12,7.17A1,1,0,0,0,211.53,210.44Z" opacity="0.2"/><path d="M238.85,214c0,.46,0,.91,0,1.36a28.37,28.37,0,0,1-1.07,6.62c-1.95,6.71-6.29,11.38-11.33,11.38-5.64,0-10.39-5.83-11.92-13.82A29.1,29.1,0,0,1,214,214c0-.81,0-1.62.1-2.4.75-9.55,6-17,12.34-17C233.29,194.63,238.85,203.3,238.85,214Z" fill="#f9b499"/><path d="M212.63,207.56l.67-.31s.19,1.73,1.09,1.6c0,0,1.09,0,.94-2.33,0,0,12.49-5.64,24.56.73,0,0-.18,2.33.8,2.51a.76.76,0,0,0,.86-.12l1.16-2.63s-1-1.47-5.57-2.64A42.37,42.37,0,0,0,226.78,203a3.94,3.94,0,0,1-.76,0c-1.31-.22-6.44-.79-13.44,2Z" fill="#686175" data-primary="true"/><path d="M244.77,206.55l0-1.22a.84.84,0,0,0-.73-.85h0a1.32,1.32,0,0,1-1.14-1.21C241.4,186.14,232.84,187,232.84,187c-.45-1-2.47-1.36-2.47-1.36a4.76,4.76,0,0,0-5.2-.17,15.58,15.58,0,0,0-3.51,1.37c-8.42,1.46-10.35,13-10.69,15.63a.7.7,0,0,1-.62.61h0c-1.21-.07-1,.59-1.09,1.16l-.06,1.28.27-.18A21.72,21.72,0,0,1,221,201.73c6-.13,17.5,0,20.6,2.52C241.55,204.25,243.58,205.61,244.77,206.55Z" fill="#686175" data-primary="true"/><path d="M214.5,219.53a1.47,1.47,0,0,1-.88.53c-1.33.21-2.76-1.79-3.2-4.49s.25-5.1,1.59-5.32c.7-.12,1.47.45,2.07,1.34-.06.78-.1,1.59-.1,2.4A29.1,29.1,0,0,0,214.5,219.53Z" fill="#f9b499"/><path d="M242.42,218.84c-1.2,2.45-3.17,3.94-4.38,3.34a1,1,0,0,1-.29-.21,28.37,28.37,0,0,0,1.07-6.62c1.16-1.63,2.57-2.6,3.59-2C243.59,214,243.63,216.4,242.42,218.84Z" fill="#f9b499"/><path d="M214.22,218.46s-.18-6.37,1.41-8.39a9.36,9.36,0,0,0,1.17-4.17l-1.47.62s.18,2.14-.92,2.26c0,0-.74.37-1.11-1.53l-.67.31s-.37,4,.61,4.59C213.24,212.15,212.87,217.05,214.22,218.46Z" fill="#2f2e41"/><path d="M237.85,206.29s1.86,8.86.39,13.21c0,0,2.39-1.1,2.39-5.88a1.61,1.61,0,0,1,1.78-.28,5.14,5.14,0,0,0-.19-2.66l-.43.37-.24-1.41s-1.73,1.16-1.66-2.39A7.42,7.42,0,0,0,237.85,206.29Z" fill="#2f2e41"/><path d="M212.59,205.19a27.69,27.69,0,0,1,13.76-2.05s12.07,0,16.36,4l-1.16,2.63.24,1.41s3.26-2.13,3-4.62l-3-2.32s-1.55-1.25-5.71-1.93a109.37,109.37,0,0,0-18.71-.32,10.41,10.41,0,0,0-4.78,1.41Z" fill="#686175" data-primary="true"/><path d="M212.59,205.19a27.69,27.69,0,0,1,13.76-2.05s12.07,0,16.36,4l-1.16,2.63.24,1.41s3.26-2.13,3-4.62l-3-2.32s-1.55-1.25-5.71-1.93a109.37,109.37,0,0,0-18.71-.32,10.41,10.41,0,0,0-4.78,1.41Z" opacity="0.2"/><path d="M191.45,250.9a7.22,7.22,0,0,1-2.22,2.23s-3.09,3.86-6.08,2.33c0,0-4.34-1.74-5.06-9.5,0,0-.34-6.37.86-7.5,0,0,.06-11.15,1.92-11.08,0,0,1.46-.66,1.33,2.59l.33.06s-.4-7.82,1.79-7.56c0,0,.67-.26,1.2.8,0,0-.47-3.32,1.46-3.06,0,0,1.85-.53,1.72,3.26,0,0,1.66-1.8,2.59.46,0,0,1.53,3.25,1.33,12.74a1.43,1.43,0,0,1,2.12.66,1,1,0,0,0,.93.93,1.71,1.71,0,0,1,1,2.83S194,248.91,191.45,250.9Z" fill="#f9b499"/><path d="M192.3,237.39a4.25,4.25,0,0,0-.15,1.27,3,3,0,0,0,.3,1.22,2.89,2.89,0,0,0,.75,1,5.6,5.6,0,0,0,1.06.71l-.6-.25a4,4,0,0,1-.55-.36,2.75,2.75,0,0,1-.83-1A3.09,3.09,0,0,1,192.3,237.39Z" fill="#f4a68e"/><path d="M189.32,244.77a4,4,0,0,0,2.23-1.85,5,5,0,0,0,.49-1.38,9.06,9.06,0,0,0,.16-1.48l0,.75c0,.25,0,.51-.06.76a4.61,4.61,0,0,1-.48,1.44A3.5,3.5,0,0,1,189.32,244.77Z" fill="#f4a68e"/><path d="M198.56,277.25c-2.2-1.79-2.5-3.05-2.5-3.05-.1-.81-1.4-1.73-1.4-1.73a1.88,1.88,0,0,0-1.14-.58,9.77,9.77,0,0,1-1.62-.23s7.22-.11,9.72-6.21c0,0-2.64,4.88-1.73,13.72A7,7,0,0,0,198.56,277.25Z" opacity="0.2"/><path d="M322.85,532s-6.45,36.48-6.89,68.28.22,50.16,2.72,54.27,7.12,5.17,14.35,5.79,31.75,1.16,37.31-.84,4.89-9.34,5.34-14.68,0-18.79,0-18.79,16.45.92,18.09,1.19,8.62.31,8.62.31,2.34,3.86,5.73,4.81,12.9,1.28,16.63,1.17a16.2,16.2,0,0,0,10.95-5.06l11.51.66s1.67,2.34,3.72,2.51a78.17,78.17,0,0,0,9.29.27c1.28-.22,9.73-6.22,14.85-6.67,4-.34,33.17-.49,45.88-.54s41.89.2,45.88.54c5.12.45,13.57,6.45,14.85,6.67a78.06,78.06,0,0,0,9.28-.27c2.06-.17,3.73-2.51,3.73-2.51l11.51-.66a16.16,16.16,0,0,0,10.95,5.06c3.73.11,13.23-.23,16.63-1.17s5.72-4.81,5.72-4.81,7,0,8.62-.31,18.1-1.19,18.1-1.19-.44,13.45,0,18.79-.22,12.68,5.34,14.68,30.08,1.45,37.31.84,11.84-1.67,14.34-5.79,3.17-22.46,2.73-54.27S719,532,719,532l-20,68.42s-79.18-.44-81.63-.89-68.72,1.56-68.72,1.56L521,603.8v0l-27.69-2.67s-66.28-2-68.73-1.56-81.62.89-81.62.89Z" fill="#2f2e41" fill-rule="evenodd"/><circle cx="618.19" cy="618.33" r="14.42" transform="translate(-57.92 63.92) rotate(-5.65)" fill="#ccc"/><circle cx="618.45" cy="618.81" r="12.49" fill="#a7a9ac"/><circle cx="618.45" cy="618.81" r="11.75" fill="#ccc"/><circle cx="618.45" cy="618.81" r="11.01" fill="#a7a9ac"/><path d="M630.94,627.15s22.41-.94,28.08-1.44,7.23-.5,7.23-.5l-1-5.23-5.06-.28s0,1.89-1.73,1.67a2.18,2.18,0,0,1-2.05-1.5s-13.68-2.11-16.07-1.23-3.06.84-1.78,3.29,1,3.5-.73,3.5-6,.11-6,.11Z" fill-rule="evenodd" opacity="0.2"/><path d="M723.73,622.65s.12-6.51-4.05-6.51-8-.72-11.29-4.5-6.62-11.07-7.67-13.68-4.79-15.9-4.79-13.62c0,12.78,3.94,25.2,9.46,36.64,2.94,6.12,6.67,10.4,9.45,10.67s5.28.06,6.45.39a6.65,6.65,0,0,1,2.44,1.89l-.05-10.23s-5.45.28-8.79-.66-5.89-4.4-5.89-4.4,4.39,3.06,7.56,3.67a32.64,32.64,0,0,0,7.17.34Zm-1.94,10.62c1.56.39,2.11,2.94,2.11,4.17v9s-.67-1.17-2.89-1-7.56.23-10.12-1.27-6.78-6.57-9.06-12.85-4.06-12.45-4.06-12.45,2.33,12.34,4.78,18,8.23,10.06,12,9.89a44.66,44.66,0,0,1,7.34,0c1.45.23,1.67,1.78,1.72,3.34a6.58,6.58,0,0,1-1.78,4.28c-.72.56-7.56.5-10.73.06s-8.39-5.84-10.39-10.46-3.4-8.89-3.4-8.89.95,9,3.84,12.62,5.62,6.73,8.67,7.62a49,49,0,0,0,8.57,1.16s-8.9.84-13.35.23-7.62-6.45-7.62-6.45,1.51,4.5,3.29,5.72a23.56,23.56,0,0,0,2.11,1.39s-11.79,0-14.29-.05.11-.39,2.44-2.5,3.45-7.18,3.45-7.18-4.61,7.29-7.62,8.79c-2.47,1.24-7.59,1.38-9.72,1.26h0s-5.23.07-6.34-.59-2.51-2.84-1.17-3.29,6.45-.42,6.45-.42h0c1.78-.35,8.13-1.09,10.12-3.08s5.78-6.89,7.11-11.34a30.6,30.6,0,0,0,1.28-8.34s-1.33,9.23-5.61,13.79-6.17,6.5-10.23,7.23c-2.23.39-3.4.66-4,.68h0s-3.81.26-4.59.21a2.49,2.49,0,0,0-1.56.66s-.83-4.61,0-5.06,7.37-1.05,7.37-1.05c2.16-.53,5.45-1.16,6.53-1.56,1.37-.51-6.17,1.07-7.95,1h0c-1.45.13-6.28.78-6.28.78s-.28-3.11,1.22-3.78a15.07,15.07,0,0,1,4.54-.66c0-.11,0-.17,0-.17s7.9-1.22,11.23-4.23,5.84-6.78,7.56-13.51a46.25,46.25,0,0,0,1.39-12.68s-3,17.46-8.11,23.14a18.37,18.37,0,0,1-12.24,6.06,32.83,32.83,0,0,0-4,.39,2.31,2.31,0,0,0-1.67,1.16l.34-9.23h5.44c.39-.11,3.9.78,6.84-1.44s.39-.28-2,.16a15.31,15.31,0,0,1-2.93.34h0c-2.15.21-7.64-.11-7.64-.11s0-1.34.06-2.34.61-1.94,2.28-2.28a35.41,35.41,0,0,1,4.72-.38,11.39,11.39,0,0,0,3.9-1,15.13,15.13,0,0,0,8-7.39,67.42,67.42,0,0,0,5.62-15.79,100,100,0,0,0,1.5-13.18s-3.78,18.12-8,25.52c-3.72,6.51-6.53,8.63-8.79,9.26h0c-1.29.51-5,.63-6.55.68a3.76,3.76,0,0,0-2.56,1.34l.33-9.23a40.18,40.18,0,0,0,5.51-.67l.06,0a58.47,58.47,0,0,0,7.5-3.47c3.39-1.95-6.56,2.39-7.17,2.44-1.95,1-6.06.78-6.06.78s-.06-3.89,0-5.11,1.16-2.34,3.55-3,5.28-.23,7.33-1.35a18.79,18.79,0,0,0,5.3-4.54c3.44-4.56,7.34-18.46,7.34-18.46l3.5,3.56s1.22,19.24,5.56,28.47,7.45,15.23,11.9,16a50.87,50.87,0,0,0,8.84.67Zm-53-35.76a33,33,0,0,0,7.17-.33c3.17-.61,7.56-3.67,7.56-3.67S681,597,677.64,597.9s-8.78.67-8.78.67l-.06,10.23a6.72,6.72,0,0,1,2.45-1.89c1.16-.33,3.67-.11,6.45-.39s6.5-4.56,9.45-10.67,8.12-22,8.12-22-3.56,6.73-3.56,4.45,1.17-8.12.11-5.5-4.34,9.89-7.67,13.68S677,591,672.86,591s-4.06,6.5-4.06,6.5Zm54.93,20.35s-1-2.66-5-3.11-6.89-1.67-9.56-5.78-7-12-8.79-18.46,12.57,1,17,3.11,5.89,4.23,5.89,9.79a12.24,12.24,0,0,0-2.84-1.45c-1.41-.44-8.2-.72-8.64-.72a47.81,47.81,0,0,0,6.11,1.06c3.09.39,5.15,1.86,5.43,2.72s.38,12.84.38,12.84Zm-.38-20.68c-1.45-4.11-7.46-8.56-8.46-11.34s-.44-6.67-.66-13.46,1.72-19.85,2.5-20,4.56,1.11,4.73,1.61.83,17.91.83,17.91L718,567.59a1.36,1.36,0,0,0,.66,1.4c.89.67,3.17,3.17,3.51,4.67a50.88,50.88,0,0,1,.44,5.84s-3.78-3.34-4.17-3.45-.11,1.11-.11,1.11,3.78,2.78,4.45,4.79S723.35,597.18,723.35,597.18Z" fill-rule="evenodd" opacity="0.2"/><path d="M521,618.26c-9.24,0-74,.06-74.52.22s-.61,6.34-.39,6.89,2.34,4.45,3.73,4.78a61.78,61.78,0,0,0,9.84.62c.83-.23,9.23-6.18,14.12-6.23,4.21,0,37.9-.71,47.22-.9,9.31.19,43,.85,47.21.9,4.9.05,13.29,6,14.13,6.23a61.85,61.85,0,0,0,9.84-.62c1.39-.33,3.5-4.22,3.72-4.78s.17-6.72-.38-6.89-65.29-.22-74.52-.22ZM584.76,622a2.78,2.78,0,1,1-2.7,2.78,2.75,2.75,0,0,1,2.7-2.78Zm-127.63,0a2.78,2.78,0,1,1-2.69,2.78A2.75,2.75,0,0,1,457.13,622Z" fill-rule="evenodd" opacity="0.2"/><path d="M446.62,628.49s-58.07-2.28-63.74-2.78-7.23-.5-7.23-.5l1-5.23,5.06-.28s-.06,1.89,1.72,1.67a2.2,2.2,0,0,0,2.06-1.5s13.68-2.11,16.07-1.23,3.06.84,1.78,3.29-1,3.5.72,3.5,41.67,1.44,41.67,1.44Z" fill-rule="evenodd" opacity="0.2"/><path d="M318.16,622.65s-.11-6.51,4.06-6.51,7.95-.72,11.29-4.5,6.61-11.07,7.67-13.68,4.78-15.9,4.78-13.62c0,12.78-3.94,25.2-9.45,36.64-2.95,6.12-6.67,10.4-9.45,10.67s-5.29.06-6.45.39a6.72,6.72,0,0,0-2.45,1.89l.06-10.23s5.45.28,8.78-.66,5.9-4.4,5.9-4.4-4.4,3.06-7.57,3.67a32.64,32.64,0,0,1-7.17.34Zm1.95,10.62c-1.56.39-2.12,2.94-2.12,4.17v9s.67-1.17,2.9-1,7.56.23,10.12-1.27,6.78-6.57,9.06-12.85,4.06-12.45,4.06-12.45-2.34,12.34-4.78,18-8.23,10.06-12,9.89a44.61,44.61,0,0,0-7.34,0c-1.45.23-1.67,1.78-1.73,3.34a6.68,6.68,0,0,0,1.78,4.28c.72.56,7.56.5,10.73.06s8.4-5.84,10.4-10.46,3.39-8.89,3.39-8.89-.94,9-3.83,12.62-5.62,6.73-8.68,7.62a49,49,0,0,1-8.56,1.16s8.9.84,13.34.23,7.62-6.45,7.62-6.45-1.5,4.5-3.28,5.72-2.11,1.39-2.11,1.39,11.79,0,14.29-.05-.11-.39-2.45-2.5-3.45-7.18-3.45-7.18,4.62,7.29,7.62,8.79c2.48,1.24,7.6,1.38,9.73,1.26h0s5.23.07,6.34-.59,2.5-2.84,1.17-3.29-6.46-.42-6.46-.42h0c-1.78-.35-8.12-1.09-10.11-3.08s-5.78-6.89-7.12-11.34a31.07,31.07,0,0,1-1.28-8.34s1.34,9.23,5.62,13.79,6.17,6.5,10.23,7.23c2.23.39,3.4.66,4,.68h0s3.82.26,4.6.21a2.45,2.45,0,0,1,1.55.66s.84-4.61,0-5.06-7.36-1.05-7.36-1.05c-2.16-.53-5.46-1.16-6.54-1.56-1.37-.51,6.18,1.07,7.95,1h0c1.45.13,6.29.78,6.29.78s.28-3.11-1.23-3.78a15,15,0,0,0-4.53-.66,1.06,1.06,0,0,1,0-.17s-7.9-1.22-11.24-4.23-5.83-6.78-7.56-13.51a46.72,46.72,0,0,1-1.39-12.68s3.06,17.46,8.12,23.14a18.37,18.37,0,0,0,12.23,6.06,32.94,32.94,0,0,1,4,.39,2.31,2.31,0,0,1,1.66,1.16l-.33-9.23H368c-.39-.11-3.89.78-6.84-1.44s-.39-.28,2.06.16a15.22,15.22,0,0,0,2.92.34h0c2.16.21,7.64-.11,7.64-.11s0-1.34-.05-2.34-.61-1.94-2.28-2.28a35.63,35.63,0,0,0-4.73-.38,11.35,11.35,0,0,1-3.89-1,15.18,15.18,0,0,1-8-7.39,67.44,67.44,0,0,1-5.61-15.79,98.09,98.09,0,0,1-1.5-13.18s3.78,18.12,8,25.52c3.72,6.51,6.54,8.63,8.79,9.26h0c1.3.51,5,.63,6.56.68a3.76,3.76,0,0,1,2.56,1.34l-.34-9.23a40.06,40.06,0,0,1-5.5-.67l-.07,0a58.58,58.58,0,0,1-7.49-3.47c-3.4-1.95,6.56,2.39,7.17,2.44,1.95,1,6.06.78,6.06.78s.06-3.89,0-5.11-1.17-2.34-3.56-3-5.27-.23-7.33-1.35a18.75,18.75,0,0,1-5.29-4.54c-3.45-4.56-7.34-18.46-7.34-18.46l-3.5,3.56s-1.23,19.24-5.56,28.47-7.45,15.23-11.9,16a50.87,50.87,0,0,1-8.84.67Zm53-35.76a33.11,33.11,0,0,1-7.18-.33c-3.17-.61-7.56-3.67-7.56-3.67s2.56,3.45,5.9,4.39,8.78.67,8.78.67l.06,10.23a6.72,6.72,0,0,0-2.45-1.89c-1.17-.33-3.67-.11-6.45-.39s-6.51-4.56-9.45-10.67-8.12-22-8.12-22,3.56,6.73,3.56,4.45-1.17-8.12-.11-5.5,4.33,9.89,7.67,13.68S364.87,591,369,591s4.06,6.5,4.06,6.5Zm-54.94,20.35s1-2.66,5-3.11,6.89-1.67,9.56-5.78,7-12,8.78-18.46-12.56,1-17,3.11-5.89,4.23-5.89,9.79a12.07,12.07,0,0,1,2.83-1.45c1.42-.44,8.2-.72,8.65-.72A48.2,48.2,0,0,1,324,602.3c-3.08.39-5.14,1.86-5.42,2.72s-.39,12.84-.39,12.84Zm.39-20.68c1.45-4.11,7.45-8.56,8.45-11.34s.45-6.67.67-13.46-1.72-19.85-2.5-20-4.56,1.11-4.73,1.61-.83,17.91-.83,17.91l4.27-4.35a1.34,1.34,0,0,1-.66,1.4c-.89.67-3.17,3.17-3.5,4.67a49.21,49.21,0,0,0-.45,5.84s3.78-3.34,4.17-3.45.11,1.11.11,1.11-3.78,2.78-4.44,4.79S318.55,597.18,318.55,597.18Z" fill-rule="evenodd" opacity="0.2"/><path d="M717.18,455.93a14,14,0,0,0-8.56-12.74,22.1,22.1,0,0,0-5.21-1.3c-2.27-.35-4.56-.59-6.84-.8-3.45-.3-6.92-.51-10.38-.67l-3.62-.16,1.5,3.3c.47,1,.93,2.06,1.38,3.1A74.8,74.8,0,0,0,691,456.73c3.16,4.93,6.75,9.76,9.53,14.91l.69,1.29,1.46-.13c3.33-.28,7.6-1.26,10-3.72C716.19,465.53,717.35,460.8,717.18,455.93Z" fill="#f48225" data-secondary="true" fill-rule="evenodd"/><path d="M687.19,445.09l.3.67c3.39,7.73,9.07,14.9,13.28,21.83l2.66-.22c4.52-.39,8-2.17,8.7-7,.77-5.39-.71-11-6.33-13.13a22.66,22.66,0,0,0-3.75-1c-1.45-.26-2.93-.45-4.4-.6-3.28-.34-6.61-.51-9.91-.56Z" fill-rule="evenodd"/><path d="M687.72,446.29c3.23,7.11,8.33,13.75,12.36,20.17l3.25-.28c3.95-.33,7-1.72,7.62-6s-.16-9.84-5.56-11.84C700.74,446.61,690.45,446.33,687.72,446.29Z" fill="#2f2e41" fill-rule="evenodd"/><path d="M692.48,454.88c.42.67.84,1.33,1.27,2a105.62,105.62,0,0,1,9.52-9.15,43.6,43.6,0,0,0-4.81-.78c-1.86,2.26-4,5-6,7.94Zm1.75,2.72c2.83-2.75,7-6.9,10-9.63.4.12.78.24,1.12.37a8.23,8.23,0,0,1,3.62,2.53,87.42,87.42,0,0,0-13.94,8Z" fill="#fff" fill-rule="evenodd" opacity="0.2"/><path d="M701.09,468.12q.6,1,1.14,2c1.24-.12,5.52-.64,8-2.41,2.92-2.09,4-6.57,4.36-8.9s-1.05,4.25-2,4.78-.41-2.17-1.11-.14-2.56,3.2-5.42,3.92A33.41,33.41,0,0,1,701.09,468.12Z" fill-rule="evenodd" opacity="0.2"/><path d="M698.64,464.22c.49.75,1,1.49,1.44,2.24l1.93-.16a70.1,70.1,0,0,1,8.52-12.6c-.08-.23-.16-.45-.25-.68A122.38,122.38,0,0,0,698.64,464.22Z" fill="#fff" fill-rule="evenodd" opacity="0.2"/><path d="M355.7,440.42c-3.46.16-6.93.37-10.38.67-2.27.21-4.57.45-6.83.8a22.18,22.18,0,0,0-5.22,1.3,14,14,0,0,0-8.55,12.74c-.18,4.87,1,9.6,4.47,13.15,2.42,2.46,6.68,3.44,10,3.72l1.45.13.69-1.29c2.78-5.15,6.38-10,9.53-14.91a73.71,73.71,0,0,0,5.56-10.07c.46-1,.92-2.07,1.39-3.1l1.5-3.3Z" fill="#f48225" data-secondary="true" fill-rule="evenodd"/><path d="M354.7,445.09c-.1.23-.2.45-.29.67-3.39,7.73-9.08,14.9-13.29,21.83l-2.66-.22c-4.51-.39-8-2.17-8.69-7-.77-5.39.7-11,6.32-13.13a23.18,23.18,0,0,1,3.75-1c1.46-.26,2.93-.45,4.4-.6,3.28-.34,6.62-.51,9.91-.56Z" fill-rule="evenodd"/><path d="M354.17,446.29c-3.22,7.11-8.33,13.75-12.35,20.17l-3.26-.28c-3.95-.33-7-1.72-7.62-6s.17-9.84,5.56-11.84C341.16,446.61,351.44,446.33,354.17,446.29Z" fill="#2f2e41" fill-rule="evenodd"/><path d="M349.42,454.88c-.42.67-.85,1.33-1.28,2a104.11,104.11,0,0,0-9.51-9.15,43.41,43.41,0,0,1,4.8-.78c1.86,2.26,4,5,6,7.94Zm-1.76,2.72c-2.83-2.75-7-6.9-10-9.63-.4.12-.78.24-1.13.37a8.23,8.23,0,0,0-3.62,2.53,87,87,0,0,1,13.94,8Z" fill="#fff" fill-rule="evenodd" opacity="0.2"/><path d="M340.8,468.12q-.58,1-1.14,2c-1.24-.12-5.52-.64-8-2.41-2.92-2.09-4-6.57-4.37-8.9s1.06,4.25,2,4.78.42-2.17,1.11-.14,2.56,3.2,5.43,3.92A33.3,33.3,0,0,0,340.8,468.12Z" fill-rule="evenodd" opacity="0.2"/><path d="M343.26,464.22c-.49.75-1,1.49-1.44,2.24l-1.94-.16a70.12,70.12,0,0,0-8.51-12.6c.07-.23.16-.45.25-.68A122.38,122.38,0,0,1,343.26,464.22Z" fill="#fff" fill-rule="evenodd" opacity="0.2"/><path d="M424.22,381.53c-.41-.56-.94-1.56-1.19-2a12.74,12.74,0,0,0-2.11-2.91c-2.25-2.07-3.65-1.95-6.49-1.25-3.21.78-6.46,1.48-9.67,2.22q-3,.69-6,1.42c-1.26.31-2.66.62-3.87,1l-.48.16-6.06,6-.05.06c-1.68,1.9-3.3,3.92-4.87,5.91-3.87,4.91-7.54,10-10.95,15.26q-1.65,2.52-3.21,5.08a270.27,270.27,0,0,0-16.87,32.38,70.83,70.83,0,0,1-5.23,9.46c-2.25,3.51-4.65,6.92-6.88,10.44a52.24,52.24,0,0,0-5.41,10.51c-.75,2.15-1.37,4.38-1.94,6.58-.67,2.59-1.28,5.2-1.86,7.81q-1.38,6.27-2.54,12.61c-.27,1.47-.53,2.94-.78,4.42-.12.72-.28,1.55-.34,2.28a3.91,3.91,0,0,1-.87,2.11,23,23,0,0,0-1.27,2.92q-.86,2.24-1.63,4.52c-.44,1.29-.87,2.58-1.26,3.89a25.56,25.56,0,0,0-.78,3.1,63.11,63.11,0,0,0-.65,6.87c-.29,5.17-.47,10.37-.66,15.54a200,200,0,0,0,.43,21.21c.33,5,.83,9.85,1.3,14.79a29.63,29.63,0,0,0,1.78,7.88c.16.42.34.87.55,1.31a5.71,5.71,0,0,0-.7,1.56c-.31,1.12.16,3.55.36,4.71.4,2.32.87,4.63,1.34,6.93.41,2,.83,4,1.24,5.94.27,1.3.56,2.62.79,3.93.6,3.36,1.37,6.5,5.07,7.58a17.12,17.12,0,0,0,3.26.57,24.43,24.43,0,0,0,4.91.11c1.95-.28,2.3-1.55,3.18-3,.62-1,3.87-1.2,4.85-1.23,3-.09,6,0,9,0q8.29,0,16.58,0h23c.95,0,1.94,0,2.88,0,2-.1,4-1.63,5.51-2.81,1.94-1.52,3.77-3.16,5.73-4.65,4-3.08,6.95-5.34,12.26-5.44,1.85,0,3.72,0,5.57,0l11.22.05,31.82.18,48.76.34h0l48.77-.34q15.9-.1,31.82-.18l11.22-.05c1.85,0,3.71,0,5.56,0,5.31.1,8.23,2.36,12.26,5.44,2,1.49,3.8,3.13,5.73,4.65,1.51,1.18,3.54,2.71,5.52,2.81.94,0,1.93,0,2.87,0h23q8.28,0,16.57,0c3,0,6-.05,9,0,1,0,4.24.24,4.85,1.23.89,1.42,1.24,2.69,3.19,3a24.35,24.35,0,0,0,4.9-.11,17.12,17.12,0,0,0,3.26-.57c3.7-1.08,4.48-4.22,5.07-7.58.24-1.31.52-2.63.79-3.93.42-2,.84-4,1.24-5.94.47-2.3.94-4.61,1.34-6.93.2-1.16.68-3.59.37-4.71a6,6,0,0,0-.7-1.56c.2-.44.39-.89.55-1.31a30.43,30.43,0,0,0,1.78-7.88c.46-4.94,1-9.84,1.3-14.79a202.74,202.74,0,0,0,.43-21.21c-.2-5.17-.37-10.37-.66-15.54a63.11,63.11,0,0,0-.65-6.87,27.6,27.6,0,0,0-.79-3.1c-.38-1.31-.81-2.6-1.25-3.89-.52-1.52-1.06-3-1.64-4.52a21.6,21.6,0,0,0-1.26-2.92,3.83,3.83,0,0,1-.87-2.11c-.06-.73-.22-1.56-.34-2.28-.25-1.48-.52-2.95-.79-4.42q-1.17-6.33-2.54-12.61c-.57-2.61-1.18-5.22-1.85-7.81-.57-2.2-1.19-4.43-1.94-6.58a52.24,52.24,0,0,0-5.41-10.51c-2.23-3.52-4.63-6.93-6.88-10.44a68.65,68.65,0,0,1-5.23-9.46,271.73,271.73,0,0,0-16.87-32.38q-1.57-2.57-3.21-5.08c-3.42-5.24-7.08-10.35-11-15.26-1.57-2-3.19-4-4.88-5.91l0-.06-6.06-6-.47-.16c-1.22-.42-2.62-.73-3.87-1q-3-.74-6-1.42c-3.22-.74-6.47-1.44-9.67-2.22-2.85-.7-4.24-.82-6.49,1.25a12.45,12.45,0,0,0-2.11,2.91c-.26.43-.79,1.43-1.19,2h-.8l-2.8-.09c-2.59-.1-5.19-.23-7.79-.36s-5.37-.29-8-.46c-1-.06-2.09-.09-3.13-.18,0-.7.08-1.69.08-2.11,0-2.45-.54-4.15-2.91-5.41-1.86-1-6.78-1.13-8.89-1.23-6.82-.32-13.68-.43-20.51-.59-14-.34-28-.43-41.93-.44h0c-14,0-28,.1-41.93.44-6.83.16-13.7.27-20.52.59-2.11.1-7,.24-8.89,1.23-2.37,1.26-2.9,3-2.9,5.41,0,.42.09,1.41.08,2.11-1,.09-2.13.12-3.14.18q-4,.25-8,.46c-2.59.13-5.19.26-7.79.36-.93,0-1.87.07-2.8.09Z" fill="#2f2e41" fill-rule="evenodd"/><path d="M521,605.62c-4.73,0-91.59-.66-97.43-.55-6,.11-9.34,2.67-13.57,5.89s-7.78,6.9-10,7-47.66-.06-51.38,0-5.84,1-6.67,2.28-.84,1.84-1.62,2a26.74,26.74,0,0,1-7.22-.61c-2.28-.67-2.9-2.39-3.51-5.84s-4.17-19.13-3.78-20.52a2.68,2.68,0,0,1,1.28-1.78s-2.22-3.33-2.84-9.78-2.28-20.91-1.72-35.7.78-19.18,1.28-22.13a88,88,0,0,1,4.67-13.68,5.47,5.47,0,0,0,1.17-3.06c.11-1.44,4-23.57,7.34-33.14s12.68-19.35,17.46-30.25a268.36,268.36,0,0,1,19.9-37.14,195.93,195.93,0,0,1,15.63-20.91l5.65-5.55c2.3-.79,17-4,19.37-4.62s3-.61,4.45.72,2.89,5.17,3.94,5.45,23.36-1,24.69-1.17.89-3,.89-4.22-.05-2.5,1.73-3.45,9.95-1.11,28.41-1.56c16.32-.39,37.25-.44,41.88-.44s25.55.05,41.88.44c18.46.45,26.63.62,28.41,1.56s1.72,2.22,1.72,3.45-.44,4.06.89,4.22,23.63,1.45,24.69,1.17,2.5-4.11,4-5.45,1.94-1.33,4.45-.72,17.07,3.83,19.37,4.62l5.65,5.55a196.76,196.76,0,0,1,15.62,20.91,268.49,268.49,0,0,1,19.91,37.14c4.78,10.9,14.12,20.69,17.46,30.25s7.23,31.7,7.34,33.14a5.47,5.47,0,0,0,1.17,3.06,89.07,89.07,0,0,1,4.67,13.68c.5,3,.72,7.34,1.27,22.13s-1.11,29.25-1.72,35.7-2.83,9.78-2.83,9.78a2.69,2.69,0,0,1,1.27,1.78c.39,1.39-3.17,17.07-3.78,20.52s-1.22,5.17-3.5,5.84a26.78,26.78,0,0,1-7.23.61c-.78-.11-.78-.61-1.61-2s-3-2.17-6.67-2.28-49.16.06-51.38,0-5.78-3.78-10-7-7.56-5.78-13.57-5.89C612.53,605,525.68,605.59,521,605.62Z" fill="#f48225" data-secondary="true" fill-rule="evenodd"/><path d="M718.78,533.18c0-.47,0-.9-.07-1.31-1.76.22-5.25.65-5.78.65l.22-.11L713,533.8Z" fill-rule="evenodd"/><path d="M323.11,533.18c0-.47.05-.9.08-1.31,1.75.22,5.24.65,5.78.65l-.22-.11.11,1.39Z" fill-rule="evenodd"/><path d="M521,602.66c-14,0-155.68.15-168.57-1.33-13.57-1.56,43.81-3.56,95.86-4.23,34.28-.44,59.49-.39,72.71-.31,13.21-.08,38.42-.13,72.71.31,52,.67,109.42,2.67,95.86,4.23C676.62,602.81,535,602.68,521,602.66Z" fill="#2f2e41" fill-rule="evenodd"/><path d="M326.91,593.27a23.89,23.89,0,0,1-2.7-9.55c-.61-6.45-2.28-20.91-1.72-35.7.7-8.27,4.92-9.91,5.76-13.14s1.22-22.74.22-21-4.74,12.23-4.74,12.24a2.51,2.51,0,0,1,0-.27,88,88,0,0,1,4.67-13.68,5.47,5.47,0,0,0,1.17-3.06c.06-.78,1.24-7.69,2.84-15.37-2.58,14.72-2.87,30.09-3,35.43s-.11,6.9-2.22,10.57-3.23,6,.66,7.22,25.14,1.89,59.39,1.67c31.25-.2,118.58-.4,133.65-.44s102.4.24,133.65.44c34.25.22,55.49-.44,59.38-1.67s2.78-3.56.67-7.22-2.11-5.23-2.22-10.57-.4-20.71-3-35.43c1.6,7.68,2.78,14.59,2.84,15.37a5.47,5.47,0,0,0,1.17,3.06,89.07,89.07,0,0,1,4.67,13.68c0,.09,0,.18,0,.27s-3.74-10.46-4.74-12.24-.62,17.74.22,21,5.06,4.87,5.75,13.14c.56,14.79-1.11,29.25-1.72,35.7a24.14,24.14,0,0,1-2.69,9.55c-3.35-1.1-10.29-2.37-24.69-2.84-25.62-.83-153.21.67-169.35.87-16.15-.2-143.74-1.7-169.35-.87-14.41.47-21.35,1.74-24.69,2.84Zm194-40.11c-13.14.18-47,.57-97.29.57-65.83,0-84.74-.89-89.41-1s-7.67,10.79-8,7.79-1.33-12.79-1.33-12.79-.67,14.45,1.11,22.46,6,14,11.35,14.46c5,.41,162.47-.14,183.58-.22,21.11.08,178.6.63,183.58.22,5.34-.45,9.56-6.45,11.34-14.46S717,547.73,717,547.73s-1,9.78-1.34,12.79-3.34-7.9-8-7.79-23.57,1-89.41,1C567.91,553.73,534.09,553.34,521,553.16Z" fill="#f48225" data-secondary="true" fill-rule="evenodd"/><path d="M326.91,593.27a23.89,23.89,0,0,1-2.7-9.55c-.61-6.45-2.28-20.91-1.72-35.7.7-8.27,4.92-9.91,5.76-13.14s1.22-22.74.22-21-4.74,12.23-4.74,12.24a2.51,2.51,0,0,1,0-.27,88,88,0,0,1,4.67-13.68,5.47,5.47,0,0,0,1.17-3.06c.06-.78,1.24-7.69,2.84-15.37-2.58,14.72-2.87,30.09-3,35.43s-.11,6.9-2.22,10.57-3.23,6,.66,7.22,25.14,1.89,59.39,1.67c31.25-.2,118.58-.4,133.65-.44s102.4.24,133.65.44c34.25.22,55.49-.44,59.38-1.67s2.78-3.56.67-7.22-2.11-5.23-2.22-10.57-.4-20.71-3-35.43c1.6,7.68,2.78,14.59,2.84,15.37a5.47,5.47,0,0,0,1.17,3.06,89.07,89.07,0,0,1,4.67,13.68c0,.09,0,.18,0,.27s-3.74-10.46-4.74-12.24-.62,17.74.22,21,5.06,4.87,5.75,13.14c.56,14.79-1.11,29.25-1.72,35.7a24.14,24.14,0,0,1-2.69,9.55c-3.35-1.1-10.29-2.37-24.69-2.84-25.62-.83-153.21.67-169.35.87-16.15-.2-143.74-1.7-169.35-.87-14.41.47-21.35,1.74-24.69,2.84Zm194-40.11c-13.14.18-47,.57-97.29.57-65.83,0-84.74-.89-89.41-1s-7.67,10.79-8,7.79-1.33-12.79-1.33-12.79-.67,14.45,1.11,22.46,6,14,11.35,14.46c5,.41,162.47-.14,183.58-.22,21.11.08,178.6.63,183.58.22,5.34-.45,9.56-6.45,11.34-14.46S717,547.73,717,547.73s-1,9.78-1.34,12.79-3.34-7.9-8-7.79-23.57,1-89.41,1C567.91,553.73,534.09,553.34,521,553.16Z" fill-rule="evenodd" opacity="0.2"/><path d="M521,477.09c-20.87,0-52.16-.06-59.56.16-11.35.33-12,1.89-12.57,5.11s.22,26.25,2.34,31.59,4.11,5.45,16.46,6.78c10.86,1.18,45.25,1.14,53.33,1.12s42.46.06,53.33-1.12c12.34-1.33,14.35-1.44,16.46-6.78s2.89-28.36,2.33-31.59-1.22-4.78-12.56-5.11c-7.4-.22-38.69-.2-59.56-.16Zm0,46.54c-9,0-36.28-.07-50.55-.9-17.24-1-18.58-1.55-21.13-7.45S444.93,489,445,482.92s3.23-7.89,9.9-8.78c6.07-.81,57-.89,66-.89s59.93.08,66,.89c6.67.89,9.78,2.66,9.89,8.78s-1.66,26.47-4.22,32.36-3.89,6.45-21.13,7.45C557.23,523.56,529.92,523.63,521,523.63Z" fill="#2f2e41" fill-rule="evenodd"/><path d="M323.11,533.25c0-.42.05-.81.07-1.19l3.38.34.87.1c1.68.19,3.3.38,3.6-.19.49-1,.81-10.07.81-10.09l1.14,1.7s-.28,7.72-.9,8.92-2.69,1.08-4.78.84l-.87-.1Z" fill="#2f2e41" fill-rule="evenodd"/><path d="M718.78,533.25c0-.42,0-.81-.06-1.19l-3.38.34-.88.1c-1.68.19-3.3.38-3.59-.19-.5-1-.82-10.07-.82-10.09l-1.13,1.7s.28,7.72.89,8.92,2.69,1.08,4.79.84l.86-.1Z" fill="#2f2e41" fill-rule="evenodd"/><path d="M521,546.62c17.48.07,166.86.62,180.47,0,14.45-.66,13.34-1.66,13.12-3.89s-2.34-6.78-10.79-6.67-14.23,1-83.18.78c-53.28-.17-87-.35-99.62-.42s-46.34.25-99.62.42c-68.95.22-74.73-.67-83.19-.78s-10.56,4.45-10.78,6.67S326,546,340.48,546.61C354.09,547.24,503.47,546.69,521,546.62Z" fill="#fff" fill-rule="evenodd" opacity="0.2"/><path d="M396.39,384.23c.29-.1.64-.18.93-.26.74-.2,1.49-.39,2.24-.57,2.06-.51,4.13-1,6.2-1.47,3.23-.74,6.5-1.44,9.73-2.23a9.58,9.58,0,0,1,1.76-.33,4.7,4.7,0,0,1,.65.53,10.26,10.26,0,0,1,1.29,1.88c.83,1.43,1.88,3.63,3.6,4.08a7.67,7.67,0,0,0,1.92.11c1,0,1.93,0,2.89-.08,2.75-.1,5.49-.24,8.24-.38s5.41-.29,8.11-.46c1.41-.08,3-.13,4.37-.3a3.06,3.06,0,0,0,1.36-.52c2-1.37,1.48-3.91,1.48-5.91,0-.76-.16-1.11.53-1.48,1.1-.49,6-.67,7.29-.73,6.7-.3,13.44-.41,20.14-.57,13.93-.34,27.89-.43,41.83-.45s27.89.11,41.82.45c6.71.16,13.45.27,20.15.57,1.26.06,6.18.24,7.29.73.68.37.53.72.53,1.48,0,2-.49,4.54,1.47,5.91a3.1,3.1,0,0,0,1.37.52c1.39.17,2.95.22,4.36.3,2.71.17,5.41.32,8.12.46s5.49.28,8.23.38c1,0,1.93.07,2.9.08a7.69,7.69,0,0,0,1.92-.11c1.72-.45,2.76-2.65,3.6-4.08A9.79,9.79,0,0,1,624,379.9a3.76,3.76,0,0,1,.65-.53,9.58,9.58,0,0,1,1.76.33c3.22.79,6.49,1.49,9.73,2.23,2.07.48,4.14,1,6.2,1.47.75.18,1.49.37,2.24.57.28.08.63.16.92.26.63.46,1.36,1.18,1.92,1.68l3.69,3.35c1.29,1.17,2.58,2.33,3.91,3.45a11.6,11.6,0,0,0,3.12,2.13,3,3,0,0,0,2.45-.24c1.69-1,1.8-3.17,1.59-4.89,0-.4-.12-.81-.21-1.21-.42-1.87-2.49-4.86-3.6-6.41a73.71,73.71,0,0,0-8.36-9.65c-3.11-3-10.23-10-14.8-10.4a5.66,5.66,0,0,0-4,1.15c-.29.2-1,.83-1.33,1-.3,0-.64-.05-.92-.08-.81-.07-1.61-.16-2.41-.24l-8.46-.87q-15.66-1.54-31.37-2.54c-8.34-.53-16.72-.82-25.07-1-13.58-.35-27.17-.46-40.75-.44s-27.18.09-40.75.44c-8.36.21-16.73.5-25.07,1q-15.7,1-31.38,2.54c-2.82.28-5.63.58-8.45.87l-2.41.24c-.29,0-.63.07-.92.08-.34-.18-1.05-.81-1.34-1a5.64,5.64,0,0,0-3.94-1.15c-4.57.42-11.69,7.37-14.8,10.4a74.55,74.55,0,0,0-8.37,9.65c-1.11,1.55-3.17,4.54-3.59,6.41-.09.4-.16.81-.21,1.21-.21,1.72-.11,3.91,1.59,4.89a3,3,0,0,0,2.44.24,11.65,11.65,0,0,0,3.13-2.13c1.32-1.12,2.62-2.28,3.91-3.45s2.45-2.24,3.69-3.35C395,385.41,395.77,384.69,396.39,384.23Z" fill="#2f2e41" fill-rule="evenodd"/><path d="M521,372.87c-4.63,0-25.56.05-41.88.44-18.46.45-26.63.62-28.41,1.56s-1.73,2.22-1.73,3.45.45,4.06-.89,4.22-23.63,1.45-24.69,1.17-2.5-4.11-3.94-5.45-2-1.33-4.45-.72-18.63,4.17-19.63,4.73-10.79,10-12.23,10.45-1.39-2-1-3.73,4.45-8.23,11.34-14.95,11.07-9.57,13.46-9.79,3.33,2.11,4.89,2.17,15.9-1.95,43.48-3.73c21.36-1.37,52.64-1.49,65.68-1.47s44.32.1,65.67,1.47c27.58,1.78,41.93,3.78,43.49,3.73s2.5-2.39,4.89-2.17,6.56,3.06,13.46,9.79S659.41,387.27,659.8,389s.44,4.17-1,3.73-11.23-9.9-12.24-10.45-17.12-4.12-19.62-4.73-3-.61-4.45.72-2.89,5.17-4,5.45-23.35-1-24.69-1.17-.89-3-.89-4.22.06-2.5-1.72-3.45-10-1.11-28.41-1.56C546.5,372.92,525.57,372.87,521,372.87Z" fill="#f48225" data-secondary="true" fill-rule="evenodd"/><path d="M521,372.87c-4.63,0-25.56.05-41.88.44-18.46.45-26.63.62-28.41,1.56s-1.73,2.22-1.73,3.45.45,4.06-.89,4.22-23.63,1.45-24.69,1.17-2.5-4.11-3.94-5.45-2-1.33-4.45-.72-18.63,4.17-19.63,4.73-10.79,10-12.23,10.45h0A127.49,127.49,0,0,1,392,380.94c4.94-5.67,12.73-11.67,16.18-13s2.44,2.39,3.72,2.12,19.3-2.28,44.87-3.84c22.71-1.38,56.82-1.45,64.18-1.45s41.46.07,64.17,1.45c25.58,1.56,43.6,3.56,44.87,3.84s.28-3.45,3.73-2.12,11.23,7.34,16.18,13a131.27,131.27,0,0,1,8.93,11.79h0c-1.45-.45-11.23-9.9-12.24-10.45s-17.12-4.12-19.62-4.73-3-.61-4.45.72-2.89,5.17-4,5.45-23.35-1-24.69-1.17-.89-3-.89-4.22.06-2.5-1.72-3.45-10-1.11-28.41-1.56c-16.33-.39-37.26-.44-41.88-.44Zm69.68-.82c3.67,1.78,3.22,4.5,3.06,6.61s-.34,3.06,1.16,3.4,22.24,1.39,23.36,1,1.44-3.34,3.56-5.34,3.55-1.67,5.61-2.11-9-1.84-36.75-3.56Zm-139.36,0c-27.8,1.72-38.81,3.11-36.76,3.56s3.51.11,5.62,2.11,2.45,4.95,3.56,5.34,21.85-.67,23.35-1,1.34-1.28,1.17-3.4S447.6,373.83,451.27,372.05Z" fill-rule="evenodd" opacity="0.2"/><path d="M665.49,451.37c2.15-.07,4.33-.18,6.46-.44a17.08,17.08,0,0,0,3.82-.8c.42-.16.83-.32,1.24-.51a.71.71,0,0,1,.65,0,33.89,33.89,0,0,1,3.57,2.24,54.64,54.64,0,0,1,5.77,4.74,67.69,67.69,0,0,1,4.72,5c1.52,1.79,3,3.65,4.35,5.56,1.18,1.63,2.31,3.32,3.34,5.05a53,53,0,0,1,3.94,8,68.91,68.91,0,0,1,3.38,12.32c.7,3.75,1.24,7.55,1.71,11.34.5,3.94.93,7.9,1.26,11.86.13,1.46.24,2.93.31,4.39,0,.51,0,1,0,1.54a9.13,9.13,0,0,1,0,1,3.59,3.59,0,0,1-1.47,2.92,6.75,6.75,0,0,1-2.11.62,6.25,6.25,0,0,1-.87.08c-.53,0-1.07,0-1.61.06-1.74.06-3.49.09-5.24.13-5.08.1-10.18.16-15.27.22s-10.29.12-15.44.16l-5.22,0h-1.54c-.24,0-.48,0-.71,0a2.32,2.32,0,0,1-2.31-1.69,1.4,1.4,0,0,1,0-.5c0-.22,0-.46.07-.68.06-.55.12-1.11.17-1.66l.54-5.62q.81-8.34,1.59-16.67.72-7.59,1.42-15.18c.28-3,.57-6,.82-8.95q1-12,1.93-23.95A.75.75,0,0,1,665.49,451.37Z" fill="#2f2e41" fill-rule="evenodd"/><path d="M665.51,452.11c-.3,3.8-1.54,19.29-1.93,24-.45,5.34-4.5,48.15-4.62,48.82s.62,1.28,1.62,1.33,44.15-.33,45.7-.67,2.73-.27,3-2.89-1.39-19.85-3.28-30-4.61-15.68-7.22-20.07a79.71,79.71,0,0,0-12.29-15.46,46.75,46.75,0,0,0-9.17-6.87c-.39.18-.82.36-1.29.53C674.12,451.54,670.81,451.93,665.51,452.11Z" fill="#2f2e41" fill-rule="evenodd"/><path d="M709.15,523.48a5.65,5.65,0,0,0,.13-.82c.28-2.61-1.39-19.85-3.28-30s-4.61-15.68-7.22-20.07a79.71,79.71,0,0,0-12.29-15.46,51.31,51.31,0,0,0-6-4.88,71.73,71.73,0,0,1-12.1,1.56c-.89,0-1.89.78-2,2.48s-.75,15.93-1.47,26.66-4.28,39.75-4.28,40.87,1.39,1.22,2.22,1.22,32.92-.17,38.65-.39C705.59,524.52,707.92,524.08,709.15,523.48Z" fill-rule="evenodd" opacity="0.2"/><path d="M376.41,451.37c-2.15-.07-4.33-.18-6.47-.44a17.08,17.08,0,0,1-3.82-.8c-.41-.16-.83-.32-1.23-.51a.73.73,0,0,0-.66,0,32.76,32.76,0,0,0-3.56,2.24,54.64,54.64,0,0,0-5.77,4.74,63.72,63.72,0,0,0-4.72,5c-1.53,1.79-3,3.65-4.35,5.56-1.18,1.63-2.32,3.32-3.35,5.05a53,53,0,0,0-3.94,8,68.91,68.91,0,0,0-3.38,12.32c-.7,3.75-1.23,7.55-1.71,11.34-.49,3.94-.93,7.9-1.26,11.86-.12,1.46-.23,2.93-.3,4.39,0,.51-.05,1-.05,1.54,0,.35,0,.71,0,1a3.6,3.6,0,0,0,1.48,2.92,6.67,6.67,0,0,0,2.11.62,6.25,6.25,0,0,0,.86.08l1.61.06c1.75.06,3.49.09,5.24.13,5.09.1,10.18.16,15.27.22s10.3.12,15.44.16l5.22,0h1.55c.23,0,.48,0,.71,0a2.31,2.31,0,0,0,2.3-1.69,1.4,1.4,0,0,0,0-.5c0-.22-.05-.46-.07-.68-.06-.55-.11-1.11-.16-1.66-.19-1.87-.37-3.75-.55-5.62q-.79-8.34-1.58-16.67-.72-7.59-1.43-15.18c-.28-3-.57-6-.81-8.95-.67-8-1.3-16-1.94-23.95A.74.74,0,0,0,376.41,451.37Z" fill="#2f2e41" fill-rule="evenodd"/><path d="M376.38,452.11c.31,3.8,1.55,19.29,1.94,24,.44,5.34,4.5,48.15,4.61,48.82s-.61,1.28-1.61,1.33-44.15-.33-45.71-.67-2.72-.27-3-2.89,1.39-19.85,3.28-30,4.62-15.68,7.23-20.07a79.33,79.33,0,0,1,12.29-15.46,46.75,46.75,0,0,1,9.17-6.87c.38.18.81.36,1.28.53C367.78,451.54,371.08,451.93,376.38,452.11Z" fill-rule="evenodd" opacity="0.2"/><path d="M419.75,378.62c-4.89.57-9.85,1.24-14.67,2.2-1.69.33-3.39.71-5,1.2a14.26,14.26,0,0,0-3.22,1.29,32.94,32.94,0,0,0-6.41,5.62,95.63,95.63,0,0,0-6.59,8c-1.91,2.56-3.73,5.19-5.46,7.86-1.43,2.2-2.82,4.44-4.08,6.73-2.3,4.14-4.47,8.39-6.5,12.66-1.33,2.81-2.61,5.65-3.78,8.53a57.73,57.73,0,0,0-2.51,7.34,28.56,28.56,0,0,0-1,5.42,6,6,0,0,0,.81,3.72,8.24,8.24,0,0,0,4.13,2.72,21.55,21.55,0,0,0,5.15,1c2.8.28,5.66.37,8.47.42,4.2.09,8.42.07,12.63.05q8.78-.06,17.56-.19c7.47-.09,14.94-.14,22.42-.19q14.81-.1,29.6-.17,29.85-.15,59.68-.25,29.84.11,59.67.25,14.8.08,29.61.17c7.47,0,14.95.1,22.42.19q8.77.12,17.56.19c4.21,0,8.42,0,12.63-.05,2.81-.05,5.66-.14,8.46-.42a21.36,21.36,0,0,0,5.15-1,8.16,8.16,0,0,0,4.13-2.72,6,6,0,0,0,.82-3.72,29.37,29.37,0,0,0-1-5.42,56.25,56.25,0,0,0-2.52-7.34c-1.16-2.88-2.44-5.72-3.77-8.53-2-4.27-4.21-8.52-6.5-12.66-1.27-2.29-2.66-4.53-4.08-6.73-1.74-2.67-3.56-5.3-5.46-7.86a93.82,93.82,0,0,0-6.6-8,32.37,32.37,0,0,0-6.41-5.62,13.9,13.9,0,0,0-3.22-1.29c-1.64-.49-3.35-.87-5-1.2-4.83-1-9.78-1.63-14.67-2.2-1.33,1.55-2.64,4.84-3.61,5.09s-23.35-1-24.69-1.17-.89-3-.89-4.22a4.21,4.21,0,0,0-.4-2.28c-11.13-.71-22.27-1.18-33.42-1.48q-19.08-.51-38.19-.33-19.1-.18-38.2.33c-11.14.3-22.29.77-33.41,1.48a4.22,4.22,0,0,0-.41,2.28c0,1.22.45,4.06-.89,4.22s-23.63,1.45-24.69,1.17S421.08,380.17,419.75,378.62Z" fill="#2f2e41" fill-rule="evenodd"/><path d="M420.54,379.72c1,1.64,2,3.79,2.81,4,1.06.28,23.36-1,24.69-1.17s.89-3,.89-4.22c0-.36,0-.71,0-1.07,20.59-1.32,45.61-2.09,72-1.83,26.38-.26,51.4.51,72,1.83a9.56,9.56,0,0,1,0,1.07c0,1.22-.44,4.06.89,4.22s23.63,1.45,24.69,1.17c.78-.2,1.77-2.35,2.82-4,12.32,1.43,20.58,3.06,23.09,4.6,7.23,4.45,17.85,20.08,22.13,27.8s10.84,21,12.68,28.25,1.22,8.79-3.23,10.45-16.34,1.56-43.37,1.23c-25.83-.32-104.82-.59-111.71-.61s-85.88.29-111.72.61c-27,.33-38.92.44-43.37-1.23s-5.06-3.16-3.22-10.45,8.39-20.52,12.67-28.25,14.91-23.35,22.13-27.8C400,382.78,408.22,381.15,420.54,379.72Z" fill="#e6e7e8" fill-rule="evenodd"/><path d="M520.94,380.66q-29.78.12-59.55,1.38c-10.38.46-20.8,1-31.16,1.87-6.56.55-13.25,1.22-19.74,2.4a51.38,51.38,0,0,0-11.42,3.18,17.32,17.32,0,0,0-6.13,4.29,38.92,38.92,0,0,0-2.42,3.13q-1.61,2.25-3.1,4.58c-2.49,3.84-4.87,7.79-7.13,11.78-2.51,4.41-5,9-7.05,13.6-1,2.17-3.09,7-2.71,9.36.68,4.32,5.75,6.52,9.42,7.66a58.31,58.31,0,0,0,9.69,2c4.24.57,8.54.86,12.82,1,3.09.11,6.19.13,9.28.14q6.94,0,13.9,0,17.79,0,35.57-.25,29.87-.31,59.74-.76,29.87.45,59.74.76,17.77.18,35.56.25,7,0,13.91,0c3.09,0,6.19,0,9.27-.14,4.28-.15,8.58-.44,12.83-1a58,58,0,0,0,9.68-2c3.67-1.14,8.75-3.34,9.43-7.66.37-2.39-1.74-7.19-2.72-9.36-2.08-4.63-4.54-9.19-7-13.6-2.27-4-4.64-7.94-7.14-11.78-1-1.55-2-3.08-3.09-4.58a36.86,36.86,0,0,0-2.43-3.13,17.28,17.28,0,0,0-6.12-4.29,51.31,51.31,0,0,0-11.43-3.18c-6.48-1.18-13.17-1.85-19.73-2.4-10.36-.87-20.78-1.41-31.17-1.87q-29.75-1.31-59.55-1.38h0Z" fill="#2f2e41" fill-rule="evenodd"/><path d="M521,444.86c-14.24.22-101,1.47-118.45.86-19-.66-29.91-4-30.8-9.67s16.79-35.48,22.13-41.48,17.13-9.12,67.61-11.35c22.13-1,43-1.3,59.51-1.37s37.37.4,59.5,1.37c50.49,2.23,62.28,5.34,67.62,11.35s23,35.81,22.13,41.48-11.79,9-30.81,9.67C622,446.33,535.19,445.08,521,444.86Z" fill="#e6e7e8" fill-rule="evenodd" opacity="0.53"/><path d="M521,444.86c-5.54.09-22.06.33-41.2.55-.75-2.93-2.76-8.76-7.41-11.36-6.34-3.56-30.58-2-39.14-1.45-7.84.51-12.51,9.4-13.75,13.29-7.57,0-13.56-.05-16.95-.17l-1.93-.08c2.75-7.41,11.36-30.5,14.06-35.61,3.22-6.12,4.56-10,9.34-12.24a27.36,27.36,0,0,1,9.12-2.44s5,3.44,10.12,3.44,62.94-4,65.94-4.44a12,12,0,0,0,5.12-2.12l2.11,1s-.33,2.67.33,2.89,3.12.78,3.12.78l-.23,6.23s-14.68-1.11-18.46,1.45-3.11,10.34.67,11.12c2.38.49,12.18.71,19.14.81,6.95-.1,16.76-.32,19.13-.81,3.79-.78,4.45-8.57.67-11.12s-18.46-1.45-18.46-1.45l-.22-6.23s2.45-.55,3.11-.78.34-2.89.34-2.89l2.11-1a11.88,11.88,0,0,0,5.11,2.12c3,.44,60.83,4.44,66,4.44s10.12-3.44,10.12-3.44a27.36,27.36,0,0,1,9.12,2.44c4.78,2.23,6.11,6.12,9.34,12.24,2.7,5.11,11.31,28.2,14.05,35.61l-1.93.08c-3.38.12-9.38.17-16.94.17-1.25-3.89-5.92-12.78-13.75-13.29-8.56-.56-32.81-2.11-39.15,1.45-4.64,2.6-6.66,8.43-7.4,11.36C543,445.19,526.49,445,521,444.86Z" fill="#f1f2f2" fill-rule="evenodd" opacity="0.52"/><rect x="805.17" y="234.95" width="7.07" height="204.89" fill="#bcbec0"/><path d="M832.33,455.1H784.57v-1a5.19,5.19,0,0,1,.21-1.48h-5.73l1.76,4.52,51.57,0h1.94l1.7-4.42h-3.89a5.25,5.25,0,0,1,.2,1.43Z" fill="#e6e7e8"/><polygon points="781.65 115.03 779.97 115.06 771.17 115.23 777.63 125.88 783.14 134.95 781.65 115.03" fill="#2f2e41"/><polygon points="833.98 115.1 830.43 115.03 829.33 137.42 836.31 125.91 842.77 115.27 833.98 115.1" fill="#2f2e41"/><g opacity="0.2"><polygon points="781.65 115.03 779.97 115.06 771.17 115.23 777.63 125.88 783.14 134.95 781.65 115.03"/><polygon points="833.98 115.1 830.43 115.03 829.33 137.42 836.31 125.91 842.77 115.27 833.98 115.1"/></g><polygon points="784.29 150.42 782.06 150.47 773.26 150.64 779.72 161.28 785.85 171.39 784.29 150.42" fill="#2f2e41"/><polygon points="831.89 150.49 828.69 150.42 827.62 172.19 834.22 161.3 840.68 150.66 831.89 150.49" fill="#2f2e41"/><g opacity="0.2"><polygon points="784.29 150.42 782.06 150.47 773.26 150.64 779.72 161.28 785.85 171.39 784.29 150.42"/><polygon points="831.89 150.49 828.69 150.42 827.62 172.19 834.22 161.3 840.68 150.66 831.89 150.49"/></g><polygon points="786.93 185.82 784.15 185.87 775.35 186.04 781.81 196.69 788.57 207.83 786.93 185.82" fill="#2f2e41"/><polygon points="829.79 185.87 826.95 185.82 825.9 206.95 832.13 196.69 838.59 186.04 829.79 185.87" fill="#2f2e41"/><g opacity="0.2"><polygon points="786.93 185.82 784.15 185.87 775.35 186.04 781.81 196.69 788.57 207.83 786.93 185.82"/><polygon points="829.79 185.87 826.95 185.82 825.9 206.95 832.13 196.69 838.59 186.04 829.79 185.87"/></g><path d="M798.75,224.92v3a3.08,3.08,0,0,0,.27,1.25,3.21,3.21,0,0,0,1.79,1.64v2a2.09,2.09,0,0,0,.61,1.47A2.22,2.22,0,0,0,803,235h9.87a2.17,2.17,0,0,0,2.2-2.13v-2A3.13,3.13,0,0,0,817,228v-3.29Z" fill="#2f2e41"/><path d="M828.69,150.42l.64-13,1.1-22.39.37-7.55-.1.08-49.58.9.53,7.11,1.49,19.93L784.29,151l1.56,21,1.08,14.4,1.64,22,.77,10.32,36.06-1.52.5-10.18L827,185.82l.67-13.63Zm-8,53a13.27,13.27,0,0,1-1.07,2.33,13.53,13.53,0,0,1-11.7,6.6,13.23,13.23,0,0,1-13.45-13,13,13,0,0,1,7.22-11.52,13.66,13.66,0,0,1,6.23-1.48,13.88,13.88,0,0,1,4.05.6,13.07,13.07,0,0,1,9.39,12.4A12.83,12.83,0,0,1,820.68,203.46Zm.85-32.75a14.38,14.38,0,0,1-1.17,2.55,14.79,14.79,0,0,1-12.79,7.22,14.47,14.47,0,0,1-14.7-14.22,14.16,14.16,0,0,1,7.89-12.6,15.15,15.15,0,0,1,11.24-1,14.29,14.29,0,0,1,10.27,13.56A13.67,13.67,0,0,1,821.53,170.71Zm1-34.55a15.16,15.16,0,0,1-1.28,2.81,16.3,16.3,0,0,1-14.1,7.95A15.94,15.94,0,0,1,791,131.25a15.62,15.62,0,0,1,8.7-13.89,16.71,16.71,0,0,1,12.39-1,15.74,15.74,0,0,1,11.32,14.94A15.1,15.1,0,0,1,822.56,136.16Z" fill="#2f2e41"/><path d="M812.06,116.31a16.71,16.71,0,0,0-12.39,1,15.62,15.62,0,0,0-8.7,13.89,15.94,15.94,0,0,0,16.21,15.67,16.3,16.3,0,0,0,14.1-7.95,15.45,15.45,0,0,0,2.1-7.72A15.74,15.74,0,0,0,812.06,116.31Zm8.24,18.93a13.24,13.24,0,0,1-1.69,3.41,13.87,13.87,0,0,1-11.43,5.9,13.53,13.53,0,0,1-13.76-13.3,13.17,13.17,0,0,1,5.85-10.88,14,14,0,0,1,7.91-2.42,14.19,14.19,0,0,1,3.93.56,13.36,13.36,0,0,1,9.82,12.74A12.87,12.87,0,0,1,820.3,135.24Z" fill="#2f2e41"/><path d="M812.06,116.31a16.71,16.71,0,0,0-12.39,1,15.62,15.62,0,0,0-8.7,13.89,15.94,15.94,0,0,0,16.21,15.67,16.3,16.3,0,0,0,14.1-7.95,15.45,15.45,0,0,0,2.1-7.72A15.74,15.74,0,0,0,812.06,116.31Zm8.24,18.93a13.24,13.24,0,0,1-1.69,3.41,13.87,13.87,0,0,1-11.43,5.9,13.53,13.53,0,0,1-13.76-13.3,13.17,13.17,0,0,1,5.85-10.88,14,14,0,0,1,7.91-2.42,14.19,14.19,0,0,1,3.93.56,13.36,13.36,0,0,1,9.82,12.74A12.87,12.87,0,0,1,820.3,135.24Z" opacity="0.2"/><path d="M811.11,118.51a14.19,14.19,0,0,0-3.93-.56,14,14,0,0,0-7.91,2.42,13.17,13.17,0,0,0-5.85,10.88,13.53,13.53,0,0,0,13.76,13.3,13.87,13.87,0,0,0,11.43-5.9,13.24,13.24,0,0,0,1.69-3.41,12.87,12.87,0,0,0,.63-4A13.36,13.36,0,0,0,811.11,118.51Z" fill="#fe4f4a"/><path d="M812,152.7a15.15,15.15,0,0,0-11.24,1,14.16,14.16,0,0,0-7.89,12.6,14.47,14.47,0,0,0,14.7,14.22,14.79,14.79,0,0,0,12.79-7.22,14.38,14.38,0,0,0,1.17-2.55,13.67,13.67,0,0,0,.74-4.45A14.29,14.29,0,0,0,812,152.7Zm7.47,17.18a11.88,11.88,0,0,1-1.53,3.09,12.59,12.59,0,0,1-10.37,5.36,12.28,12.28,0,0,1-12.48-12.07,12,12,0,0,1,5.3-9.87,12.77,12.77,0,0,1,10.74-1.69A12.12,12.12,0,0,1,820,166.26,11.72,11.72,0,0,1,819.47,169.88Z" fill="#2f2e41"/><path d="M812,152.7a15.15,15.15,0,0,0-11.24,1,14.16,14.16,0,0,0-7.89,12.6,14.47,14.47,0,0,0,14.7,14.22,14.79,14.79,0,0,0,12.79-7.22,14.38,14.38,0,0,0,1.17-2.55,13.67,13.67,0,0,0,.74-4.45A14.29,14.29,0,0,0,812,152.7Zm7.47,17.18a11.88,11.88,0,0,1-1.53,3.09,12.59,12.59,0,0,1-10.37,5.36,12.28,12.28,0,0,1-12.48-12.07,12,12,0,0,1,5.3-9.87,12.77,12.77,0,0,1,10.74-1.69A12.12,12.12,0,0,1,820,166.26,11.72,11.72,0,0,1,819.47,169.88Z" opacity="0.2"/><path d="M811.13,154.7a12.77,12.77,0,0,0-10.74,1.69,12,12,0,0,0-5.3,9.87,12.28,12.28,0,0,0,12.48,12.07A12.59,12.59,0,0,0,817.94,173a11.88,11.88,0,0,0,1.53-3.09,11.72,11.72,0,0,0,.57-3.62A12.12,12.12,0,0,0,811.13,154.7Z" fill="#f9e014"/><path d="M812,187a13.88,13.88,0,0,0-4.05-.6,13.66,13.66,0,0,0-6.23,1.48,13,13,0,0,0-7.22,11.52,13.23,13.23,0,0,0,13.45,13,13.53,13.53,0,0,0,11.7-6.6,13.27,13.27,0,0,0,1.07-2.33,12.83,12.83,0,0,0,.67-4.08A13.07,13.07,0,0,0,812,187Zm6.83,15.71a10.38,10.38,0,0,1-1.4,2.83,11.48,11.48,0,0,1-9.48,4.9,11.23,11.23,0,0,1-11.42-11,10.92,10.92,0,0,1,4.85-9,11.6,11.6,0,0,1,6.57-2,11.73,11.73,0,0,1,3.26.46,11.08,11.08,0,0,1,8.15,10.57A10.62,10.62,0,0,1,818.79,202.69Z" fill="#2f2e41"/><path d="M812,187a13.88,13.88,0,0,0-4.05-.6,13.66,13.66,0,0,0-6.23,1.48,13,13,0,0,0-7.22,11.52,13.23,13.23,0,0,0,13.45,13,13.53,13.53,0,0,0,11.7-6.6,13.27,13.27,0,0,0,1.07-2.33,12.83,12.83,0,0,0,.67-4.08A13.07,13.07,0,0,0,812,187Zm6.83,15.71a10.38,10.38,0,0,1-1.4,2.83,11.48,11.48,0,0,1-9.48,4.9,11.23,11.23,0,0,1-11.42-11,10.92,10.92,0,0,1,4.85-9,11.6,11.6,0,0,1,6.57-2,11.73,11.73,0,0,1,3.26.46,11.08,11.08,0,0,1,8.15,10.57A10.62,10.62,0,0,1,818.79,202.69Z" opacity="0.2"/><path d="M811.17,188.81a11.73,11.73,0,0,0-3.26-.46,11.6,11.6,0,0,0-6.57,2,10.92,10.92,0,0,0-4.85,9,11.23,11.23,0,0,0,11.42,11,11.48,11.48,0,0,0,9.48-4.9,10.38,10.38,0,0,0,1.4-2.83,10.62,10.62,0,0,0,.53-3.31A11.08,11.08,0,0,0,811.17,188.81Z" fill="#a3dc7e"/><polygon points="830.8 107.48 834.91 104.52 776.5 105.85 781.12 108.46 781.12 108.46 830.7 107.56 830.8 107.48" fill="#2f2e41"/><polygon points="830.8 107.48 834.91 104.52 776.5 105.85 781.12 108.46 781.12 108.46 830.7 107.56 830.8 107.48" opacity="0.2"/><polygon points="789.34 218.65 786.2 221.68 828.15 220.16 825.4 217.13 789.34 218.65" fill="#2f2e41"/><polygon points="789.34 218.65 786.2 221.68 828.15 220.16 825.4 217.13 789.34 218.65" opacity="0.2"/><polygon points="786.2 221.68 786.4 225.09 798.75 224.92 816.98 224.67 827.36 224.53 828.15 220.16 786.2 221.68" fill="#2f2e41"/><polygon points="834.03 101.24 777.32 102.5 776.31 105.85 834.81 104.52 834.03 101.24" fill="#2f2e41"/><path d="M813,437.4h-9.18a3.07,3.07,0,0,0-2.58,1.39,2.83,2.83,0,0,0-.48,1.57V443h15.29v-2.59A3,3,0,0,0,813,437.4Z" fill="#2f2e41"/><path d="M794.83,444.91a3.92,3.92,0,0,0-.6,2.08v1.85h-4.35a5.31,5.31,0,0,0-5.1,3.83,5.19,5.19,0,0,0-.21,1.48v1h47.76v-1a5.25,5.25,0,0,0-.2-1.43,5.32,5.32,0,0,0-5.12-3.88h-4.34V447a4.11,4.11,0,0,0-4.17-4H798.4a4.19,4.19,0,0,0-3.57,2" fill="#2f2e41"/><path d="M834.11,457.15h-1.73l-51.57,0-2,3.89,56.94.19-1.47-4.11Z" fill="#d1d3d4"/><g opacity="0.2"><path d="M788.69,129.8s14.5-10.62,35.8-3.16c-5.23-9.35-6.27-13.27-19.73-13S788.69,129.8,788.69,129.8Z" fill="#2f2e41"/></g><path d="M826.33,130.94h-1.86c0-9.28-7.81-16.83-17.42-16.83s-17.43,7.55-17.43,16.83h-1.86c0-10.31,8.65-18.69,19.29-18.69S826.33,120.63,826.33,130.94Z" fill="#fff"/><g opacity="0.2"><path d="M791,164.7s13.11-9.6,32.36-2.86c-4.72-8.45-5.67-12-17.83-11.77S791,164.7,791,164.7Z" fill="#2f2e41"/></g><path d="M825.07,165.72h-1.68c0-8.38-7.07-15.21-15.76-15.21s-15.75,6.83-15.75,15.21H790.2c0-9.31,7.82-16.89,17.43-16.89S825.07,156.41,825.07,165.72Z" fill="#fff"/><g opacity="0.2"><path d="M792.48,198.35s12.23-8.95,30.19-2.66c-4.41-7.89-5.29-11.2-16.64-11S792.48,198.35,792.48,198.35Z" fill="#2f2e41"/></g><path d="M824.23,199.31h-1.57a14.71,14.71,0,0,0-29.4,0h-1.57a16.28,16.28,0,0,1,32.54,0Z" fill="#fff"/></g></g></svg>