<svg id="a1b1b867-d132-46b0-9384-142c0652112b" data-name="Layer 1" xmlns="http://www.w3.org/2000/svg" width="865.76" height="682.89" viewBox="0 0 865.76 682.89"><path d="M406.52,122.73C359.41,154.79,169.57,90.24,162,315.24s284,272.7,353.1,279.23S722.36,434,737.55,301.82,649.17-42.39,406.52,122.73Z" fill="#e4e1f5"/><path d="M245.82,121.22c-1.22.83-6.13-.84-6.33,5s7.35,7.06,9.14,7.23,5.37-4.16,5.77-7.58S252.11,116.94,245.82,121.22Z" fill="#e4e1f5"/><path d="M278.32,135.93c-1.42.41-5.58-2.7-7.57,2.78s4.82,9,6.47,9.71,6.39-2.3,7.82-5.43S285.62,133.8,278.32,135.93Z" fill="#e4e1f5"/><path d="M231.29,520.63c-1.22.84-6.14-.84-6.34,5s7.36,7.06,9.15,7.23,5.37-4.15,5.76-7.58S237.57,516.36,231.29,520.63Z" fill="#e4e1f5"/><path d="M737.87,414.86c-1.23.83-6.14-.84-6.34,5s7.36,7.06,9.15,7.23,5.37-4.16,5.76-7.58S744.15,410.58,737.87,414.86Z" fill="#e4e1f5"/><path d="M702,415.1c-1.45.27-5.28-3.24-7.8,2s3.9,9.42,5.47,10.3,6.59-1.65,8.32-4.63S709.48,413.71,702,415.1Z" fill="#e4e1f5"/><path d="M538.88,550.57c-1.22.83-6.14-.85-6.33,5s7.35,7.06,9.14,7.23,5.37-4.15,5.77-7.58S545.17,546.29,538.88,550.57Z" fill="#fff"/><path d="M240.27,455.62c-1.46.21-5.13-3.46-7.88,1.68s3.49,9.58,5,10.53,6.65-1.37,8.51-4.27S247.8,454.55,240.27,455.62Z" fill="#fff"/><path d="M313.37,151.37c-1.46.21-5.14-3.46-7.89,1.68s3.49,9.58,5,10.52,6.66-1.36,8.52-4.26S320.89,150.3,313.37,151.37Z" fill="#fff"/><path d="M356.21,111c-1.95.34-7-4.43-10.5,2.58s5.07,12.71,7.16,13.91,8.87-2.1,11.25-6.06S366.27,109.22,356.21,111Z" fill="#e4e1f5"/><path d="M684.7,489.7c-1.86.33-6.7-4.22-10,2.46s4.83,12.13,6.83,13.27,8.45-2,10.72-5.78S694.29,488.05,684.7,489.7Z" fill="#e4e1f5"/><path d="M177.15,472.73c-1.38,1.18-7.62-.18-7.05,7s10,7.61,12.17,7.57,6-5.82,6-10.05S184.23,466.64,177.15,472.73Z" fill="#e4e1f5"/><path d="M213.84,438.13c-1.38,1.18-7.62-.18-7.05,7s10,7.6,12.17,7.56,6-5.82,6-10.05S220.92,432,213.84,438.13Z" fill="#fff"/><path d="M669.47,102.46c-1.68.68-7.16-2.58-8.88,4.38s7,10.36,9.16,11,7.51-3.63,8.85-7.65S678.12,98.91,669.47,102.46Z" fill="#fff"/><path d="M656.58,136c-1.37,1.18-7.61-.18-7,7s10,7.61,12.17,7.56,6-5.82,6-10.05S663.67,129.87,656.58,136Z" fill="#fff"/><ellipse cx="583.2" cy="631.47" rx="142.5" ry="12.06" fill="#e4e1f5"/><ellipse cx="329.49" cy="607.47" rx="142.5" ry="12.06" fill="#e4e1f5"/><path d="M486.34,270.08s2.3-11.46,11.92-4.13c0,0,1.49-2.55,5.48-2.15a9.22,9.22,0,0,1,8.05,8l1,6.8a5,5,0,0,0,4.17,4.16c3.13.53,6.82,3.4,4.24,14.85,0,0-2.77,10.74-6.2,16.25a8.86,8.86,0,0,0-1.27,5.51l1.58,17.05-7,6.95-9.12-27Z" fill="#ffa072"/><path d="M270.2,572.22s.61,12.83,10.39,15.27c0,0,6.72,6.11,31.16,3.67a95.45,95.45,0,0,1,27.5,3.66s45.21,10.39,55.6-6.11c0,0,4.45-10.81-3.88-15.79Z" fill="#2c2e63"/><path d="M270.2,572.22s.61,12.83,10.39,15.27c0,0,6.72,6.11,31.16,3.67a95.45,95.45,0,0,1,27.5,3.66s45.21,10.39,55.6-6.11c0,0,4.45-10.81-3.88-15.79Z" opacity="0.2"/><path d="M261.65,588.1s.61,12.83,10.39,15.28c0,0,6.72,6.11,31.16,3.66a95.19,95.19,0,0,1,27.49,3.67s45.22,10.39,55.6-6.11c0,0,4.46-10.81-3.88-15.79Z" fill="#2c2e63"/><path d="M350.85,585.66c20.24,4.05,32.25-.06,38.17-3.37a6.39,6.39,0,0,0,2-9.37,32,32,0,0,0-7-6.44,50.09,50.09,0,0,0-15.66-7.23c-29-8-33.94-14.53-33.94-14.53-4.28.61-7.95,7.95-7.95,7.95-9.77,9.77-18.94,7.94-18.94,7.94-15.88,0-22.6-14.05-22.6-14.05-22,5.49-14.67,25.66-14.67,25.66S283,582,305,580.16C305,580.16,323.36,580.16,350.85,585.66Z" fill="#ff2045"/><path d="M350.85,585.66c20.24,4.05,32.25-.06,38.17-3.37a6.39,6.39,0,0,0,2-9.37,32,32,0,0,0-7-6.44,50.09,50.09,0,0,0-15.66-7.23c-29-8-33.94-14.53-33.94-14.53-4.28.61-7.95,7.95-7.95,7.95-9.77,9.77-18.94,7.94-18.94,7.94-15.88,0-22.6-14.05-22.6-14.05-22,5.49-14.67,25.66-14.67,25.66S283,582,305,580.16C305,580.16,323.36,580.16,350.85,585.66Z" opacity="0.2"/><path d="M342.3,601.55c20.24,4,32.25-.06,38.16-3.37a6.39,6.39,0,0,0,2-9.37c-5.52-7.29-17.5-12.32-17.5-12.32-33.61-8.55-39.11-15.88-39.11-15.88-4.27.61-7.94,7.94-7.94,7.94-9.78,9.78-18.94,7.94-18.94,7.94-15.89,0-22.61-14-22.61-14-22,5.5-14.66,25.66-14.66,25.66s12.83,9.78,34.83,7.95C296.48,596.05,314.81,596.05,342.3,601.55Z" fill="#ff2045"/><path d="M183.44,458s-37.88,83.1,17.72,112.42c0,0,29.94,14.06,51.93,4.28,0,0-15.84-56.34-3.62-94.83,0,0-12.87,5.63-22.65,3.18C226.82,483,195.66,476.29,183.44,458Z" fill="#2c2e63"/><path d="M433.28,326.16s23.49,8,23.49-.53c0,0,3.2-6.41-16-9.61l-8-2.14Z" fill="#ff2045"/><path d="M433.28,326.16s23.49,8,23.49-.53c0,0,3.2-6.41-16-9.61l-8-2.14Z" opacity="0.2"/><path d="M442.36,328.83l-3.21-38.43A29.62,29.62,0,0,1,445,276c5.33-6.94,3.28-10.49.07-16.91l-3.21-8.25,0,0a17,17,0,0,1-5.13,2.7c-1.22.43-2.28,1.47-.94,4,0,0,4.07,3.57-2.35,8.15,0,0,1.94,17.07-.15,24.16v36.3Z" fill="#ffa072"/><path d="M361.85,274.05S351,285.82,346.23,288.48c0,0,13.74,12.59,20.68,15.26Z" fill="#ffc596"/><path d="M189.25,465.73a17.12,17.12,0,0,1-6.58-14.57c.55-8.45,4.18-22.36,18.49-40.25,0,0,15.27-23.21,31.77-37.27,0,0,29.33-32.38,38.49-53.15L331.3,282.6s11.61,28.72,27.5,42.77c0,0,23.22,103.87-10.39,115.48l-91.65,36.66s-19.55,9.78-29.94,5.5C226.82,483,204.58,477.81,189.25,465.73Z" fill="#ff2045"/><path d="M433.28,326.16l.26,8.89,19.35,5.6s4.09-5.3,3.88-15Z" fill="#ff2045"/><path d="M441.89,267.33a7.14,7.14,0,0,1-1.54,1.61,11.58,11.58,0,0,1-1.88,1.21,7.63,7.63,0,0,1-4.37.84l2-.84c.64-.3,1.29-.57,1.91-.9C439.3,268.63,440.53,268,441.89,267.33Z" fill="#ffc596"/><path d="M429.74,201.2a41.49,41.49,0,0,1,4.74,30.8,8.13,8.13,0,0,0,4.74,9.47s11.45,2.21,2.63,9.61a13.58,13.58,0,0,1-4.79,2.47c-1.35.41-2.74,1.44-1.28,4,0,0,4.89,4.28-1.83,7.95.94,11.88-8.27,22-19.25,22.31-9.92.31-19.08-7.41-20.46-18,1.82-5.33,3.48-11.1,5.19-17.18,2.6-9.24,5.19-19.78,5.19-25C404.62,227.61,419.42,228.56,429.74,201.2Z" fill="#ffc596"/><path d="M531.1,605.82s-9.53,11.54,5,19.17a27.48,27.48,0,0,0,9.08,2.8,182.59,182.59,0,0,0,42.69,0s4.89-1.83,17.11,3c0,0,49.84,17.8,48.37-16.17a1.39,1.39,0,0,0-1.6-1.31l-37.6,5.87-40.33-10.38Z" fill="#2c2e63"/><path d="M547,594.21s-22.61,9.17-14.67,17.72c0,0,15.28,14.06,57.44,8.56a15.34,15.34,0,0,1,12.12,2.31,26.3,26.3,0,0,0,9.08,4.05c10.2,2.07,30.88,4.07,40.2-10.72a11.71,11.71,0,0,0,1.45-8.47c-1-5.36-3.33-14.6-7.86-20.78l-16.5-18.33Z" fill="#2761d3"/><ellipse cx="506.44" cy="333.34" rx="11.52" ry="8.7" fill="#2761d3"/><path d="M560.67,226.71l-8.88-4.32-8.87-4.33a99.65,99.65,0,0,1-9.56,13.2s-5.46-14.11-11.83-15c0,0-7.69,6.25-15.43-.58,0,0-6,7-14.61,4.22a45.59,45.59,0,0,0,6.37,10.47s2.74,4.1-2.27,10.47c0,0-12.29,10.92,5.46,14.56,0,0,.91,8.65,4.55,10,0,0,4.1.91,4.1,10.47,0,0-1.82,8.65,10.92,6.83,2.89-.42,5.25-.78,7.16-1.1a78.8,78.8,0,0,0,9.71-2.32c3.44-1,10.78-2,14.53,6.15,0,0,2.28,6.37,10.92,9.56l14.45,12.94s23.28-23.73,28.79-48c0,0-12.75-8.64-15-20.48,0,0-5.92,4.1-10.47-2.27,0,0-13.2,9.56-16.38-11.38l-3.64.91" fill="#ffc596"/><path d="M638.57,585.4c3.61.43,4.89,31.14-32,26.91a15.56,15.56,0,0,1-5-1.49c-2.9-1.42-8.16-3.76-12.49-4.38a7.17,7.17,0,0,1-5.54-4.17l-3.87-8.55s26.85,2.13,24.67-19.56C604.4,574.16,628.19,584.18,638.57,585.4Z" fill="#d1d3d4"/><path d="M454.9,449.41S437,407.89,482.74,403.75l85.45.92,49.06,50.51-16.54,18.33-8,6.2S472.94,448.68,454.9,449.41Z" fill="#2c2e63"/><path d="M454.9,449.41S437,407.89,482.74,403.75l85.45.92,49.06,50.51-16.54,18.33-8,6.2S472.94,448.68,454.9,449.41Z" opacity="0.2"/><path d="M455.37,448.7S415.21,451.57,439,510c0,0,3.61,22.37,54.12,44l34.64,15.15s23.09-3.61,28.14-25.26c0,0,91.64,75.05,131.33,26l-44-90.2s-18,2.89-26.7-4.33c0,0-7.1,2-15.82-1.87h0A20.27,20.27,0,0,1,583,477.08C556.74,470,484.66,450.45,455.37,448.7Z" fill="#2c2e63"/><path d="M564.54,296.46s-9.31,6.26-12.76,24a85.72,85.72,0,0,1-6.69,20.08,164.21,164.21,0,0,1-13.38,23.43,1.54,1.54,0,0,1-2.72-.38l-7-20.95s-1.77-8.88-5.86-14.31a.42.42,0,0,0-.75.34c.91,4.58-.13,16.33-31.63,22.63L483,336.12s-11.55,12.26-3.61,23.09l31,59.17,54.12-44.74Z" fill="#2761d3"/><path d="M564.54,296.46s-9.31,6.26-12.76,24a85.72,85.72,0,0,1-6.69,20.08,164.21,164.21,0,0,1-13.38,23.43,1.54,1.54,0,0,1-2.72-.38l-7-20.95s-1.77-8.88-5.86-14.31a.42.42,0,0,0-.75.34c.91,4.58-.13,16.33-31.63,22.63L483,336.12s-11.55,12.26-3.61,23.09l31,59.17,54.12-44.74Z" fill="#fff" opacity="0.2"/><path d="M313.58,274.66S303.81,293,291,306.43c0,0-12.22,14.06-15.89,22" fill="none" stroke="red" stroke-miterlimit="10" stroke-width="0.1"/><path d="M331.3,282.6l12.83-7.33s1.23,21.39,31.78,31.16l3.66,13.44s-19-4.47-31.2-3.25C348.37,316.62,334.36,291.16,331.3,282.6Z" fill="#ff2045"/><path d="M331.3,282.6l12.83-7.33s1.23,21.39,31.78,31.16l3.66,13.44s-19-4.47-31.2-3.25C348.37,316.62,334.36,291.16,331.3,282.6Z" fill="#fff" opacity="0.2"/><path d="M316.79,394a27.08,27.08,0,0,1-9.27-18.5c-.59-8.51.93-20.71,9.73-34.84,0,0,16.5-34.22,50.71-23.22a326.23,326.23,0,0,1,15.38,29.82c3.47,7.67,6.47,15.07,9.06,22.12-.45-4.57.42-11.87,2.06-20.86,1.91-10.46,5.58-21,12.61-21.3l45.82,13.44s-2.44,75.15-28.72,105.09c0,0-16.49,13.44-47.65-7.33C376.52,438.41,340.66,414.85,316.79,394Z" fill="#ff2045"/><path d="M316.79,394a27.08,27.08,0,0,1-9.27-18.5c-.59-8.51.93-20.71,9.73-34.84,0,0,16.5-34.22,50.71-23.22a326.23,326.23,0,0,1,15.38,29.82c3.47,7.67,6.47,15.07,9.06,22.12-.45-4.57.42-11.87,2.06-20.86,1.91-10.46,5.58-21,12.61-21.3l45.82,13.44s-2.44,75.15-28.72,105.09c0,0-16.49,13.44-47.65-7.33C376.52,438.41,340.66,414.85,316.79,394Z" opacity="0.2"/><path d="M243.93,483s-19.55,28.11-4.89,70.27c0,0,11,26.88,23.83,24.44,0,0,13.44-3.67,1.22-17.11,0,0-30.55-33.61-7.33-83.1Z" fill="#2c2e63"/><path d="M243.93,483s-19.55,28.11-4.89,70.27c0,0,11,26.88,23.83,24.44,0,0,13.44-3.67,1.22-17.11,0,0-30.55-33.61-7.33-83.1Z" opacity="0.2"/><line x1="424.84" y1="405.89" x2="394.43" y2="371.3" fill="none" stroke="red" stroke-miterlimit="10" stroke-width="0.1"/><path d="M564.31,225.8c2.73,20.48,16.38,11.38,16.38,11.38,4.55,6.82,10.47,2.27,10.47,2.27-.91-7.28,1.82-11.83,1.82-11.83a102.61,102.61,0,0,0,4.54-19.28,66.39,66.39,0,0,0-2-29.52C586,148.16,563.4,153.9,563.4,153.9c-.91-12.29-8.65-14.57-8.65-14.57,3.19,3.19,1.82,10.92,1.82,10.92-21.39-13.19-41.87-.91-41.87-.91-10.92,6.38-20,1.82-20,1.82,2.73,5,9.56,6.83,9.56,6.83a108.48,108.48,0,0,0-22.93,26.28,32.37,32.37,0,0,0-4.8,19.09c1.2,16.84,15,16.52,15,16.52s6.83,3.19,14.57-3.64c0,0,7.73,7.29,15.47,0,0,0,7.74,3.19,11.38,15.48,0,0,5.46-3.64,10.92-13.66l17.29,9.11Z" fill="#2c2e63"/><path d="M564.54,296.46s-7.9,7.91-1.41,55.53c0,0,3.61,74.33,15.88,88.76,0,0,4,4.51,5.76,13.11,1.8,8.84,7.37,17.36,15.9,20.3A41.07,41.07,0,0,0,616.49,476s13,7.29,26.74,3.68c0,0,26,92.37,48.35,90.92,0,0,51.23-36.8,24.53-170.29,0,0-22.46-95.81-83.83-130.62a56.25,56.25,0,0,1-12.21-8.87c-3.52-3.53-9.08-7-14.36-1.22,0,0-11.55,33.19-28.87,46.9Z" fill="#2761d3"/><path d="M555.1,544.79a133.68,133.68,0,0,0-17.51-13.35c-1.54-1-3.09-2-4.68-3s-3.14-1.94-4.77-2.8L523.28,523l-4.94-2.5-1.24-.63-1.26-.58-2.53-1.15c-1.68-.77-3.35-1.56-5.07-2.23l-5.15-2.1c-1.72-.67-3.48-1.26-5.21-1.89-3.47-1.32-7-2.32-10.58-3.42-1.76-.59-3.57-1-5.36-1.45l-5.4-1.37,5.43,1.23c1.81.42,3.63.77,5.41,1.3,3.57,1,7.18,1.91,10.69,3.14,1.76.59,3.54,1.13,5.28,1.77l5.22,2c1.75.63,3.45,1.38,5.16,2.11l2.57,1.09,1.28.55,1.26.59,5,2.39,5,2.57c1.67.83,3.26,1.8,4.89,2.7s3.22,1.88,4.81,2.85a136.17,136.17,0,0,1,18.19,13.13Z" opacity="0.2"/><path d="M574,589.39l5.77,4.33s29.87,4.06,26.87-18.43l-13.78-7.51S587.09,578.17,574,589.39Z" fill="#ffc596"/><path d="M483.59,353.94l-.47-16.34a30.66,30.66,0,0,0-3.91-14.8c-6.81-12.48-19.1-38.17-8.45-44,0,0,4.59-8.24,9.17-3.2,0,0,4.12-10.08,10.54-2.29,0,0,7.79-8.25,9.62,1.37l.92,6.87s2.75-6.87,8.25,2.3l.7.44a13.28,13.28,0,0,1,5.92,8.52c1.18,5.76,1.84,14.59-3.15,20.44a18.93,18.93,0,0,0-4.22,9.66c-.85,5.94-1.6,14.44-.22,20.44C508.29,343.33,492.47,353.1,483.59,353.94Z" fill="#ffc596"/><path d="M649,380.13c31.33-40.46-5.38-64.66-26.64-71.55-15-4.87-31.84-1.59-42.84,9.73-10.62,10.92-7.73,20-7.73,20-10.1,5.77-14.43,27.42-14.43,27.42l-26.7,28.14-.08-.2A59.06,59.06,0,0,0,524.94,383c-8-12.08-16.65-39.69-16.65-39.69s-46.18,5.78-33.91,45.46l8.36,15a47.17,47.17,0,0,1,5.8,18.9c1.72,19.7,10,62.16,49.34,41.91C537.88,464.56,614.37,424.87,649,380.13Z" fill="#2761d3"/><path d="M649,380.13c31.33-40.46-5.38-64.66-26.64-71.55-15-4.87-31.84-1.59-42.84,9.73-10.62,10.92-7.73,20-7.73,20-10.1,5.77-14.43,27.42-14.43,27.42l-26.7,28.14-.08-.2A59.06,59.06,0,0,0,524.94,383c-8-12.08-16.65-39.69-16.65-39.69s-46.18,5.78-33.91,45.46l8.36,15a47.17,47.17,0,0,1,5.8,18.9c1.72,19.7,10,62.16,49.34,41.91C537.88,464.56,614.37,424.87,649,380.13Z" opacity="0.2"/><path d="M592.82,567.78c-9.68,16.66-25.78,27.61-33,31.76a6.23,6.23,0,0,1-7.19-.67l-22.74-19.58c-5.77-6.49-2.16-10.1-2.16-10.1s22.5-3.45,28.14-25.26Z" fill="#2c2e63"/><path d="M592.82,567.78c-9.68,16.66-25.78,27.61-33,31.76a6.23,6.23,0,0,1-7.19-.67l-22.74-19.58c-5.77-6.49-2.16-10.1-2.16-10.1s22.5-3.45,28.14-25.26Z" fill="#fff" opacity="0.2"/><ellipse cx="551.79" cy="222.39" rx="8.87" ry="11.6" fill="#ffc596"/><path d="M429.74,201.2s6-15.75-17.79-23.69c0,0-28.42-15.7-56.64,5.23-10.15,7.54-17.38,18.31-21.53,30.25-1.57,4.49-3.44,10.17-5.53,17.07,0,0-9.27,28.34-27.28,49.5a50.14,50.14,0,0,1-6.4,6.13c-8.65,7.14-31.49,28.22-19.48,42.74,0,0-3,15.27,11.61,11.61,0,0,0,3.66,5.5,6.11,0,0-1.83-20.78,20.77-31.16,0,0,37.88-22,48.88-40.94,0,0,.61,41.55,15.28,62.93,0,0,15.27,24.44,7.33,38.5,0,0,31.16-9.17,14.05-50.11,0,0-14.05-30.55-4.27-55.6,0,0,12.22-29.33,10.38-42.16C404.62,227.61,419.42,228,429.74,201.2Z" fill="#2c2e63"/><path d="M407.07,327.21l-1-9.59s-2.67-9.61-7.47-9.61c0,0-11.74-1.6-9.61-29.35,0,0,1.07-3.21,3.74-3.21,0,0-3.74-33.09,6.4-26.15,0,0,.54-11.21,8.54-2.67,0,0,3.74-9.61,8,1.6,0,0,6.4,35.23,10.67,32.56,0,0,3.21-1.6-.53-19.21,0,0-2-11,2.45-10.94A3,3,0,0,1,431,253c1.36,5.17,5.38,22.55,2.24,36.9l.26,45.19Z" fill="#ffa072"/><path d="M399.12,249.3c.81,2.84,1.5,5.7,2.16,8.56s1.26,5.75,1.83,8.64,1.08,5.79,1.5,8.7a76.36,76.36,0,0,1,.92,8.79c-.25-1.45-.5-2.89-.81-4.33l-.86-4.32-1.73-8.65c-.54-2.89-1.11-5.77-1.6-8.67S399.53,252.22,399.12,249.3Z" fill="#ffc596"/><path d="M407.66,246.63c.74,2.81,1.37,5.64,2,8.47s1.17,5.67,1.72,8.52,1,5.7,1.48,8.56l.67,4.3c.18,1.43.4,2.87.56,4.31-.38-1.4-.69-2.82-1-4.22l-.94-4.25c-.62-2.83-1.17-5.67-1.72-8.52s-1-5.7-1.48-8.56S408,249.52,407.66,246.63Z" fill="#ffc596"/><path d="M392.72,275.45a22.64,22.64,0,0,1,1.8,4.72,38.15,38.15,0,0,1,1,5,40.61,40.61,0,0,1,.29,5.05,33.75,33.75,0,0,1-.4,5l-.38-5c-.13-1.65-.31-3.3-.5-4.95s-.46-3.28-.74-4.91S393.15,277.08,392.72,275.45Z" fill="#ffc596"/><path d="M256.76,477.51,321.86,451a150.19,150.19,0,0,1,54.89-11.28c20.6-.23,42.2,3.88,43.15,21.92,0,0,8.55,33-53.16,71.48,0,0-37.54,22-46.75,33.53a27.56,27.56,0,0,1-8.72,7.39c-8.63,4.47-23.5,8-35-11.59l-7.81,4.95S231.71,529.45,256.76,477.51Z" fill="#ffc596"/><path d="M276.31,562.44a429.44,429.44,0,0,0,38.92-37,101.69,101.69,0,0,1,27.15-21.23c8.33-4.37,18.49-8.24,29.25-9" fill="none" stroke="#ffa072" stroke-miterlimit="10"/><path d="M427.45,233.8a2.32,2.32,0,0,1-2.9-1.5,2.24,2.24,0,0,1,0-1.28c-1.9.1-2.06-1-2.06-1,.38.44,2.5-.21,3.38-.51h0l.26-.09h0l.11,0a2.31,2.31,0,0,1,1.22,4.45Z" fill="#2c2e63"/><path d="M429.22,224.2h0a1.07,1.07,0,0,1-.82,1.35c-2.07.41-6.34,1.55-8.06,4.13,0,0,0-4,7.53-6.21A1.08,1.08,0,0,1,429.22,224.2Z" fill="#2c2e63"/><path d="M502.19,228.5h0a1.08,1.08,0,0,0,1.06,1.18c2.1,0,6.51.33,8.69,2.54,0,0-.78-3.89-8.57-4.69A1.08,1.08,0,0,0,502.19,228.5Z" fill="#2c2e63"/><ellipse cx="506.83" cy="235.81" rx="1.27" ry="2.25" fill="#2c2e63"/><path d="M544.05,278.78a9.88,9.88,0,0,1,6,3.4A42.9,42.9,0,0,0,561.47,262S551.5,277.48,544.05,278.78Z" fill="#ffa072"/><path d="M551.83,220.55a2.62,2.62,0,0,0-.65,1.86,1.85,1.85,0,0,0,.64,1.3,9.61,9.61,0,0,1,1.58,1.76,2.86,2.86,0,0,1,.35,1.38,1.35,1.35,0,0,1-.67,1.17,1.29,1.29,0,0,0-.23-1,3,3,0,0,0-.61-.67,13.93,13.93,0,0,1-1.76-1.36,3.19,3.19,0,0,1-.77-1.31,2.71,2.71,0,0,1,0-1.55A2.18,2.18,0,0,1,551.83,220.55Z" fill="#ffa072"/><path d="M548.79,221.11a3.92,3.92,0,0,1-.63-3.51,4,4,0,0,1,2.88-2.7,3.57,3.57,0,0,1,2.14.14,2.59,2.59,0,0,1,1.54,1.63,3.71,3.71,0,0,1,.06,1.92c-.14.58-.33,1.09-.52,1.64-.39-1.11-.37-2.32-.87-3a1.25,1.25,0,0,0-.8-.56,2.4,2.4,0,0,0-1.13,0,3.14,3.14,0,0,0-2,1.45A5.64,5.64,0,0,0,548.79,221.11Z" fill="#ffa072"/><path d="M470.76,278.78l.57,4.75c.19,1.58.39,3.15.66,4.7a45.1,45.1,0,0,0,1,4.62,22.8,22.8,0,0,0,1.63,4.44,13.24,13.24,0,0,1-2.38-4.2,25.52,25.52,0,0,1-1.2-4.7,35.13,35.13,0,0,1-.46-4.8A31,31,0,0,1,470.76,278.78Z" fill="#ffa072"/><path d="M479.93,275.58c0,1.53.14,3,.25,4.54s.27,3,.51,4.46a38.25,38.25,0,0,0,1,4.37,27.15,27.15,0,0,0,1.7,4.18,13.56,13.56,0,0,1-2.43-3.92,21.76,21.76,0,0,1-1.22-4.47A25.39,25.39,0,0,1,479.93,275.58Z" fill="#ffa072"/><path d="M490.47,273.29c0,1.45.07,2.89.17,4.31s.25,2.85.49,4.25.49,2.81.82,4.21.7,2.78,1.07,4.19a20.74,20.74,0,0,1-1.82-4,25,25,0,0,1-1.34-8.65A17.08,17.08,0,0,1,490.47,273.29Z" fill="#ffa072"/><path d="M501,281.53a17.41,17.41,0,0,0-.21,5.88,9.06,9.06,0,0,0,.8,2.73,7.44,7.44,0,0,0,.69,1.23c.28.36.57.73.91,1.12a13.83,13.83,0,0,1,3.07,5.31,4.13,4.13,0,0,1-.4,3.13,5.13,5.13,0,0,1-2.4,1.86,5.42,5.42,0,0,0,2-2.1,3.67,3.67,0,0,0,.07-2.69,15.4,15.4,0,0,0-3.07-4.86c-.31-.36-.63-.79-.95-1.22a5.84,5.84,0,0,1-.41-.68,3.9,3.9,0,0,1-.35-.71,9.49,9.49,0,0,1-.71-3A13.29,13.29,0,0,1,501,281.53Z" fill="#ffa072"/><path d="M205.2,334.37a13.9,13.9,0,0,1-2.77-2.59,11.44,11.44,0,0,1-1.94-3.36,8.24,8.24,0,0,1-.43-4,5.38,5.38,0,0,1,1.78-3.45,9.81,9.81,0,0,0-.36,3.52,12.73,12.73,0,0,0,.72,3.29,28.65,28.65,0,0,0,1.41,3.2A36,36,0,0,1,205.2,334.37Z" fill="#dad7f2"/><path d="M196,328.29a13.43,13.43,0,0,1-1.36-3.55,11.35,11.35,0,0,1-.29-3.87,8.32,8.32,0,0,1,1.34-3.75,5.41,5.41,0,0,1,3.12-2.33,9.65,9.65,0,0,0-1.87,3,12.45,12.45,0,0,0-.78,3.28,26.8,26.8,0,0,0-.12,3.5C196,325.77,196.07,327,196,328.29Z" fill="#dad7f2"/><path d="M216.43,255.64h-.05q-6.33-.21-12.68-.28c-1.5,0-3,0-4.49,0l-.05,0c-1,.85-2,1.73-2.93,2.63q3.74,0,7.47,0,5.85-.07,11.69-.25l0-1.05,1,1-1,0c.09,2.61.24,5.24.38,7.92l.45,8.17.06,1.22c-4.45-.24-8.79-.45-13-.6-2.67-.11-5.32-.18-7.94-.24l-4.69-.09-2.5,0c-2,0-3.9,0-5.84,0-.47.66-.93,1.34-1.37,2,2.46.08,4.91.09,7.35.08h.39l1.3,0h.33l1.18,0c1.47,0,2.93,0,4.39-.07q4.2-.1,8.33-.25c4.19-.16,8.3-.36,12.3-.6l.08-1.41.18-3c.09-1.51.19-3.05.26-4.6.15-3.11.33-6.28.41-9.48A1,1,0,0,0,216.43,255.64Z" fill="#dad7f2"/><path d="M189.67,288.64c0,.18,0,.35,0,.53l-.18,3.18h.25C189.67,291.11,189.67,289.87,189.67,288.64Zm0,0c0,.18,0,.35,0,.53l-.18,3.18h.25C189.67,291.11,189.67,289.87,189.67,288.64Zm0,0c0,.18,0,.35,0,.53l-.18,3.18h.25C189.67,291.11,189.67,289.87,189.67,288.64Zm0,0c0,.18,0,.35,0,.53l-.18,3.18h.25C189.67,291.11,189.67,289.87,189.67,288.64Zm0,0c0,.18,0,.35,0,.53l-.18,3.18h.25C189.67,291.11,189.67,289.87,189.67,288.64Zm0,0c0,.18,0,.35,0,.53l-.18,3.18h.25C189.67,291.11,189.67,289.87,189.67,288.64Zm0,0c0,.18,0,.35,0,.53l-.18,3.18h.25C189.67,291.11,189.67,289.87,189.67,288.64Zm0,0c0,.18,0,.35,0,.53l-.18,3.18h.25C189.67,291.11,189.67,289.87,189.67,288.64ZM240,274.08H240q-6.33-.19-12.67-.28c-3.58-.05-7.17-.05-10.76,0h-1.92L202,274l-6.34.16h-.32l-5.28.22h0l-.73,0h0a.67.67,0,0,0-.64.69c0,.11,0,.22,0,.34s0,.47,0,.7h0c.08,2.73.2,5.45.23,8.17,0,1.27,0,2.54,0,3.81v.47c0,1.25,0,2.5,0,3.74,0,.37,0,.73,0,1.1v.1a.49.49,0,0,0,0,.12.45.45,0,0,0,.4.32h0c1.77,0,3.55.1,5.33.17.21,0,.42,0,.62,0l1.38.05c1.83.08,3.66.15,5.51.21,4.33.19,8.66.2,12.93.12s8.54-.17,12.72-.33,8.3-.36,12.3-.6l.25-4.46c.1-1.51.2-3,.26-4.6.15-3.1.34-6.27.42-9.47A1,1,0,0,0,240,274.08Zm-.66,10,.52,9.39c-4.45-.24-8.79-.45-13.05-.6s-8.46-.27-12.63-.34-8.3-.06-12.43.13c-1.79.06-3.58.13-5.39.22-2.22.1-4.46.19-6.69.24,0,.14,0,.29,0,.43l-.43-.42h.42c0-.25,0-.5,0-.75,0-1.25,0-2.49,0-3.72v0c0-1.42,0-2.85,0-4.28,0-2.73.15-5.46.24-8.19,0-.11,0-.22,0-.32l-.66,0,.68-.68c0,.23,0,.47,0,.71h.33l5.34.21h.22l6.12.16,12.67.19c4.23.06,8.45.07,12.68,0,3.9,0,7.79-.12,11.69-.24q0-.52,0-1l1,1-1,0C239.08,278.76,239.25,281.39,239.38,284.07Zm-49.71,4.57c0,.18,0,.35,0,.53l-.18,3.18h.25C189.67,291.11,189.67,289.87,189.67,288.64Zm0,0c0,.18,0,.35,0,.53l-.18,3.18h.25C189.67,291.11,189.67,289.87,189.67,288.64Zm0,0c0,.18,0,.35,0,.53l-.18,3.18h.25C189.67,291.11,189.67,289.87,189.67,288.64Zm0,0c0,.18,0,.35,0,.53l-.18,3.18h.25C189.67,291.11,189.67,289.87,189.67,288.64Zm0,0c0,.18,0,.35,0,.53l-.18,3.18h.25C189.67,291.11,189.67,289.87,189.67,288.64Zm0,0c0,.18,0,.35,0,.53l-.18,3.18h.25C189.67,291.11,189.67,289.87,189.67,288.64Zm0,0c0,.18,0,.35,0,.53l-.18,3.18h.25C189.67,291.11,189.67,289.87,189.67,288.64Z" fill="#dad7f2"/><path d="M194.62,294.15c-1.78-.07-3.56-.14-5.33-.17h0a.45.45,0,0,1-.4-.32c-3.83.23-7.78.43-11.79.57-2,.08-4,.15-5.94.2a3.79,3.79,0,0,0-.18.42q6,.07,12,0c3.9,0,7.79-.11,11.69-.24C194.63,294.44,194.63,294.3,194.62,294.15Zm1.78-1.28a1,1,0,0,0-.71-.35h-.06l-5.93-.16h-.83c-2,0-3.94-.08-5.92-.09q-5.44-.08-10.89,0c-.07.17-.14.33-.2.49q-.39.84-.72,1.71a3.79,3.79,0,0,0-.18.42q6,.07,12,0c3.9,0,7.79-.11,11.69-.24,0-.15,0-.29,0-.44s0-.41,0-.61l1,1-1,0c.09,2.61.25,5.24.38,7.93l.52,9.38c-4.46-.24-8.79-.45-13.06-.6S174,311,169.85,311c-1.31,0-2.63-.05-3.95-.05-.16.7-.31,1.41-.46,2.12,1.76,0,3.51,0,5.26,0,4.28-.07,8.54-.17,12.72-.33s8.31-.36,12.29-.6l.27-4.47c.09-1.5.18-3,.26-4.59.14-2.88.31-5.82.38-8.79,0-.22,0-.46,0-.69A.93.93,0,0,0,196.4,292.87Z" fill="#dad7f2"/><path d="M188.87,284.32c0-2.72-.15-5.44-.23-8.17h-.34c.08,2.6.25,5.24.38,7.91l.23,4.06C188.91,286.86,188.9,285.59,188.87,284.32Zm1.15-9.93h0a1,1,0,0,0-.68-.31h-.05c-.39,0-.78,0-1.18,0-1.91-.06-3.81-.11-5.72-.15l-.12.17c-.47.66-.93,1.34-1.37,2l-.18.25c2.51,0,5-.11,7.53-.17h.05c0-.35,0-.7,0-1l1,1-.65,0h-.34c.08,2.6.25,5.24.38,7.91l.23,4.06.23,4.22.06,1.11-.34,0c-4.34-.23-8.56-.43-12.72-.58l-4.28-.14q-.39.84-.72,1.71c2-.05,4-.12,5.94-.2,4-.14,8-.34,11.79-.57l.5,0,0-.41v-.1l0-.77.18-3.18c0-.18,0-.35,0-.53v0c.09-1.32.16-2.66.22-4,.13-2.77.3-5.59.38-8.44,0-.1,0-.2,0-.31s0-.48,0-.72A.92.92,0,0,0,190,274.39Z" fill="#dad7f2"/><path d="M701.46,266.2a14.13,14.13,0,0,1,3.75,1.19,12,12,0,0,1,3.32,2.28,8.65,8.65,0,0,1,2.17,3.52,5.62,5.62,0,0,1-.13,4,10.29,10.29,0,0,0-1.22-3.46A13.46,13.46,0,0,0,707.2,271a30.66,30.66,0,0,0-2.75-2.37A34.75,34.75,0,0,1,701.46,266.2Z" fill="#dad7f2"/><path d="M712.83,267.77a14.2,14.2,0,0,1,2.86,2.72,11.49,11.49,0,0,1,2,3.5,8.57,8.57,0,0,1,.42,4.11,5.57,5.57,0,0,1-1.88,3.57,10.13,10.13,0,0,0,.41-3.64,13.2,13.2,0,0,0-.73-3.42,29.9,29.9,0,0,0-1.44-3.33A35.52,35.52,0,0,1,712.83,267.77Z" fill="#dad7f2"/><path d="M683.4,214.42l5.86-.53,6.55-.69,13.07-1.49c4.35-.51,8.71-1.08,13-1.71,2-.28,4-.56,6-.87-.09-.82-.19-1.65-.31-2.47-2,.22-4,.44-6,.68-3.61.41-7.22.89-10.82,1.4-.4-2.72-.75-5.43-1.06-8.15-.35-2.92-.61-5.85-.9-8.78l5.88-.54,6.54-.68,3.27-.38c-.19-.78-.38-1.55-.58-2.32l-3,.44-6.5,1-6.49,1.1,0,0a.68.68,0,0,0-.56.79c.51,3.14,1.06,6.29,1.52,9.44.39,2.72.74,5.43,1.06,8.15l-1.37.19-13,1.9-6.5,1-6.48,1.1h0a.68.68,0,0,0-.56.79c.51,3.15,1.07,6.29,1.51,9.45s.88,6.32,1.22,9.49a.45.45,0,0,0,.49.39h0c1.94-.21,3.9-.39,5.86-.56.49,2.94,1,5.88,1.41,8.82q.71,4.74,1.23,9.49v0a.43.43,0,0,0,.48.36h0c4.38-.49,8.81-.81,13.28-1.25s8.92-1,13.32-1.61c2.84-.41,5.68-.85,8.47-1.29l0-1.72c-3.25.32-6.46.67-9.65,1-4.3.48-8.54,1-12.76,1.8s-8.21,1.45-12.37,2.09q-.68-4.51-1.19-9c-.35-2.93-.61-5.86-.89-8.79l5.87-.54,6.54-.68,13.07-1.5c3.78-.44,7.56-.91,11.32-1.46,0-.91-.05-1.81-.09-2.73-3.87.46-7.73,1-11.58,1.53l-13,1.91-6.49,1-6.49,1.11h0a.56.56,0,0,0-.2.08c-1.93.33-3.86.66-5.81,1q-.66-4.5-1.19-9C683.94,220.28,683.68,217.35,683.4,214.42Z" fill="#dad7f2"/><path d="M571.68,121.52a18.45,18.45,0,0,1,1.06,3c.27,1,.49,2,.68,3s.33,2,.43,3a18.16,18.16,0,0,1,.06,3.14,12,12,0,0,1-1.5-2.8,17.71,17.71,0,0,1-.84-3,17.9,17.9,0,0,1-.29-3.11A11.39,11.39,0,0,1,571.68,121.52Z" fill="#dad7f2"/><path d="M581.63,116.44a26.19,26.19,0,0,1,.2,4.84,40.15,40.15,0,0,1-.49,4.77,39.25,39.25,0,0,1-1.05,4.69,26.13,26.13,0,0,1-1.73,4.52,40,40,0,0,1,.29-4.8c.17-1.58.38-3.15.64-4.71s.55-3.11.89-4.66A40,40,0,0,1,581.63,116.44Z" fill="#dad7f2"/><path d="M590.61,125.37a8.9,8.9,0,0,1-.17,2.74,13.49,13.49,0,0,1-2.09,4.91,8.7,8.7,0,0,1-1.87,2,12.92,12.92,0,0,1,.54-2.66,23.07,23.07,0,0,1,.89-2.45,24,24,0,0,1,1.15-2.33A13.35,13.35,0,0,1,590.61,125.37Z" fill="#dad7f2"/><path d="M607.68,96.37c0-1.46,0-2.92,0-4.37q0-1.91,0-3.81l0-1.36a.43.43,0,0,0-.43-.44h0c-4.39-.08-8.82-.34-13.28-.48-3.23-.15-6.46-.19-9.66-.17h-2.13c-.12,0-.25,0-.36,0l-1.21,0c-1.44,0-2.88,0-4.31.09h0q-4.43.09-8.79.25c-4.33.16-8.58.38-12.71.62l-.08,1.45-.18,3.17c-.1,1.55-.2,3.14-.27,4.75-.16,3.2-.35,6.48-.43,9.78a1,1,0,0,0,1,1.06h.06c4.36.13,8.73.24,13.09.28s8.74.07,13.11,0l13.09-.21,6.55-.17,6.56-.26h0a.68.68,0,0,0,.65-.71C607.86,102.72,607.72,99.54,607.68,96.37Zm-1.13,9.52,0-.73-5.88-.22-6.55-.18-13.09-.2q-6.55-.09-13.11,0-6,.06-12.07.26l0,1.07-1-1,1,0c-.09-2.69-.25-5.42-.39-8.19L555,88.19,555,86.93c4.61.25,9.09.45,13.49.61,2.71.1,5.39.19,8.06.25l5,.09c.69,0,1.38,0,2.07,0,3.61,0,7.19,0,10.77-.16,4.13-.13,8.3-.38,12.5-.47,0-.15,0-.3,0-.45l.44.44h-.43v.91c0,2.73,0,5.45,0,8.18,0,2.93-.16,5.86-.25,8.79l.68,0Z" fill="#dad7f2"/><path d="M583.28,77.3c0-1.17,0-2.34,0-3.5l-.79-.08c0,1.19,0,2.39,0,3.58,0,2.82-.16,5.64-.24,8.46h1.33C583.43,82.93,583.32,80.12,583.28,77.3Zm0,0c0-1.17,0-2.34,0-3.5l-.79-.08c0,1.19,0,2.39,0,3.58,0,2.82-.16,5.64-.24,8.46h1.33C583.43,82.93,583.32,80.12,583.28,77.3Zm0,0c0-1.17,0-2.34,0-3.5l-.79-.08c0,1.19,0,2.39,0,3.58,0,2.82-.16,5.64-.24,8.46h1.33C583.43,82.93,583.32,80.12,583.28,77.3Zm0,0c0-1.17,0-2.34,0-3.5l-.79-.08c0,1.19,0,2.39,0,3.58,0,2.82-.16,5.64-.24,8.46h1.33C583.43,82.93,583.32,80.12,583.28,77.3Zm0,0c0-1.17,0-2.34,0-3.5l-.79-.08c0,1.19,0,2.39,0,3.58,0,2.82-.16,5.64-.24,8.46h1.33C583.43,82.93,583.32,80.12,583.28,77.3Zm0,0c0-1.17,0-2.34,0-3.5l-.79-.08c0,1.19,0,2.39,0,3.58,0,2.82-.16,5.64-.24,8.46h1.33C583.43,82.93,583.32,80.12,583.28,77.3Zm0,0c0-1.17,0-2.34,0-3.5l-.79-.08c0,1.19,0,2.39,0,3.58,0,2.82-.16,5.64-.24,8.46h1.33C583.43,82.93,583.32,80.12,583.28,77.3Zm.28,9.18c0-.24,0-.48,0-.72,0,0,0,0,0,0-.09-2.82-.2-5.63-.24-8.45,0-1.17,0-2.34,0-3.5l-.79-.08c0,1.19,0,2.39,0,3.58,0,2.82-.16,5.64-.24,8.46,0,.11,0,.23,0,.34l.68,0-.71.71,0-.73-.35,0-5.51-.21h0l-6.5-.17-13.1-.2c-4.37-.06-8.73-.07-13.1,0q-6,.06-12.08.25c0,.37,0,.72,0,1.08l-1-1,1,0c-.09-2.69-.26-5.42-.4-8.19l-.53-9.7,4.07.21c-.79-.16-1.57-.33-2.36-.51l-1.89.12-.27,4.61c-.11,1.56-.2,3.14-.27,4.75-.15,3.21-.35,6.49-.43,9.79a1,1,0,0,0,1,1h.06q6.54.19,13.1.28c3.7.06,7.41.06,11.12,0H555l1.64,0,13.1-.2,6.55-.17h.19l5.59-.23.76,0h0a.71.71,0,0,0,.67-.71C583.57,86.71,583.56,86.6,583.56,86.48Zm-.28-9.18c0-1.17,0-2.34,0-3.5l-.79-.08c0,1.19,0,2.39,0,3.58,0,2.82-.16,5.64-.24,8.46h1.33C583.43,82.93,583.32,80.12,583.28,77.3Zm0,0c0-1.17,0-2.34,0-3.5l-.79-.08c0,1.19,0,2.39,0,3.58,0,2.82-.16,5.64-.24,8.46h1.33C583.43,82.93,583.32,80.12,583.28,77.3Zm0,0c0-1.17,0-2.34,0-3.5l-.79-.08c0,1.19,0,2.39,0,3.58,0,2.82-.16,5.64-.24,8.46h1.33C583.43,82.93,583.32,80.12,583.28,77.3Zm0,0c0-1.17,0-2.34,0-3.5l-.79-.08c0,1.19,0,2.39,0,3.58,0,2.82-.16,5.64-.24,8.46h1.33C583.43,82.93,583.32,80.12,583.28,77.3Zm0,0c0-1.17,0-2.34,0-3.5l-.79-.08c0,1.19,0,2.39,0,3.58,0,2.82-.16,5.64-.24,8.46h1.33C583.43,82.93,583.32,80.12,583.28,77.3Zm0,0c0-1.17,0-2.34,0-3.5l-.79-.08c0,1.19,0,2.39,0,3.58,0,2.82-.16,5.64-.24,8.46h1.33C583.43,82.93,583.32,80.12,583.28,77.3Z" fill="#dad7f2"/><path d="M583.48,77.56l-.21-3.76,0-.43v.43c0,1.16,0,2.33,0,3.5,0,2.82.15,5.63.24,8.45h.36C583.79,83.05,583.62,80.33,583.48,77.56Zm0,0-.21-3.76,0-.43v.43c0,1.16,0,2.33,0,3.5,0,2.82.15,5.63.24,8.45h.36C583.79,83.05,583.62,80.33,583.48,77.56Zm0,0-.21-3.76,0-.43v.43c0,1.16,0,2.33,0,3.5,0,2.82.15,5.63.24,8.45h.36C583.79,83.05,583.62,80.33,583.48,77.56Zm0,0-.21-3.76,0-.43v.43c0,1.16,0,2.33,0,3.5,0,2.82.15,5.63.24,8.45h.36C583.79,83.05,583.62,80.33,583.48,77.56Zm0,0-.21-3.76,0-.43v.43c0,1.16,0,2.33,0,3.5,0,2.82.15,5.63.24,8.45h.36C583.79,83.05,583.62,80.33,583.48,77.56Zm0,0-.21-3.76,0-.43v.43c0,1.16,0,2.33,0,3.5,0,2.82.15,5.63.24,8.45h.36C583.79,83.05,583.62,80.33,583.48,77.56Zm52.38,6.27-1.2-.46c0,.91-.07,1.82-.09,2.73l.68,0-.71.71,0-.73-5.86-.23-6.56-.17-13.1-.2c-4.36-.06-8.73-.07-13.1,0-3.88,0-7.75.12-11.63.24h-.44c0,.37,0,.72,0,1.08l-.35-.35-.71-.7.67,0h.36c-.09-2.69-.26-5.41-.4-8.18l-.21-3.76,0-.43v.43l-.79-.08v-.85c0,.28,0,.56-.05.85-.07,1.09-.13,2.21-.18,3.32-.14,2.87-.31,5.78-.4,8.72,0,.11,0,.22,0,.32,0,.25,0,.5,0,.75a1,1,0,0,0,.29.73,1,1,0,0,0,.71.32h.05l.71,0c4.14.12,8.26.21,12.39.26,3.63.06,7.25.06,10.88,0h.84l1.38,0,13.1-.2,6.56-.17,6.54-.26h0a.69.69,0,0,0,.66-.71C635.93,85.83,635.9,84.83,635.86,83.83Zm-52.38-6.27-.21-3.76,0-.43v.43c0,1.16,0,2.33,0,3.5,0,2.82.15,5.63.24,8.45h.36C583.79,83.05,583.62,80.33,583.48,77.56Zm0,0-.21-3.76,0-.43v.43c0,1.16,0,2.33,0,3.5,0,2.82.15,5.63.24,8.45h.36C583.79,83.05,583.62,80.33,583.48,77.56Zm0,0-.21-3.76,0-.43v.43c0,1.16,0,2.33,0,3.5,0,2.82.15,5.63.24,8.45h.36C583.79,83.05,583.62,80.33,583.48,77.56Zm0,0-.21-3.76,0-.43v.43c0,1.16,0,2.33,0,3.5,0,2.82.15,5.63.24,8.45h.36C583.79,83.05,583.62,80.33,583.48,77.56Zm0,0-.21-3.76,0-.43v.43c0,1.16,0,2.33,0,3.5,0,2.82.15,5.63.24,8.45h.36C583.79,83.05,583.62,80.33,583.48,77.56Zm0,0-.21-3.76,0-.43v.43c0,1.16,0,2.33,0,3.5,0,2.82.15,5.63.24,8.45h.36C583.79,83.05,583.62,80.33,583.48,77.56Z" fill="#dad7f2"/></svg>