<svg xmlns="http://www.w3.org/2000/svg" xmlns:xlink="http://www.w3.org/1999/xlink" width="865.76" height="682.89" viewBox="0 0 865.76 682.89"><defs><clipPath id="f9aec469-e2b9-4bf4-a796-52fd0d5f3d64"><path id="b63f535b-0232-4509-88f6-82f7163235da" data-name="SVGID" d="M729.8,436.36,728.07,452a5.58,5.58,0,0,1-.09.59,6.9,6.9,0,0,1-6.85,5.39h-7.72a2.38,2.38,0,0,1-2.32-2.88l3.63-18.84a2.66,2.66,0,0,1,2.59-2.11h10.52a2,2,0,0,1,1.48.66A1.94,1.94,0,0,1,729.8,436.36Z" fill="#ff4f5b"/></clipPath></defs><g style="isolation:isolate"><g id="aca389c5-6b4c-48f0-b193-0c9347effb26" data-name="Layer 1"><rect x="330.64" y="272.61" width="1.18" height="62.79" fill="#e1e1e1"/><rect x="310.67" y="273.58" width="1.18" height="62.79" fill="#e1e1e1"/><rect x="290.71" y="272.44" width="1.18" height="62.79" fill="#e1e1e1"/><rect x="270.74" y="273.58" width="1.18" height="62.79" fill="#e1e1e1"/><rect x="270.01" y="322.35" width="143.21" height="188.89" fill="#ececec"/><rect x="346.07" y="322.35" width="67.15" height="188.89" fill="#e1e1e1"/><rect x="300.03" y="347.93" width="12.88" height="31.28" fill="#f5f5f5"/><rect x="300.03" y="470.37" width="12.88" height="31.28" fill="#f5f5f5"/><path d="M346.07,391.49c0,.35-17,.64-38,.64s-38-.29-38-.64,17-.64,38-.64S346.07,391.14,346.07,391.49Z" fill="#f5f5f5"/><rect x="300.03" y="409.61" width="12.88" height="31.28" fill="#f5f5f5"/><path d="M346.07,453.17c0,.36-17,.64-38,.64s-38-.28-38-.64,17-.63,38-.63S346.07,452.82,346.07,453.17Z" fill="#f5f5f5"/><rect x="360.33" y="347.93" width="12.88" height="31.28" fill="#f5f5f5"/><rect x="388.26" y="347.93" width="12.88" height="31.28" fill="#f5f5f5"/><rect x="360.33" y="407.29" width="12.88" height="31.28" fill="#f5f5f5"/><rect x="388.26" y="407.29" width="12.88" height="31.28" fill="#f5f5f5"/><rect x="360.33" y="466.65" width="12.88" height="31.28" fill="#f5f5f5"/><rect x="388.26" y="466.65" width="12.88" height="31.28" fill="#f5f5f5"/><polygon points="346.07 325.59 346.07 308.56 360.33 308.56 360.33 299.22 379.64 299.22 379.64 290.87 413.22 290.87 413.22 324.25 346.07 325.59" fill="#e1e1e1"/><rect x="345.43" y="263.15" width="1.18" height="62.79" fill="#e1e1e1"/><rect x="359.74" y="263.15" width="1.18" height="62.79" fill="#e1e1e1"/><rect x="379.05" y="254.31" width="1.18" height="62.79" fill="#e1e1e1"/><rect x="411.64" y="254.31" width="1.18" height="62.79" fill="#e1e1e1"/><rect x="395.34" y="254.31" width="1.18" height="62.79" fill="#e1e1e1"/><rect x="271.86" y="305.6" width="74.21" height="1.18" fill="#e1e1e1"/><rect x="272.02" y="290.28" width="107.78" height="1.18" fill="#e1e1e1"/><path d="M362.75,90.08h.07a.38.38,0,0,0,.35-.38v-.32h0V78.24a6.42,6.42,0,0,0-9.95-5.34l-5-1.09a3.46,3.46,0,0,0-1.47-1.89,3.55,3.55,0,0,0-3.78,6,3.49,3.49,0,0,0,2.22.52l5.13,6.11v6.83h0v.32a.4.4,0,0,0,.24.36.4.4,0,0,0,.15,0h.12l-2.71,42.23h1.53l.6-9.29,5.84,7.71-1.23,1.58h1.21l.62-.79.59.79h1.2l-1.19-1.57,6.06-7.75.61,9.32h1.53Zm-5.69,0L361,98.39h-8.65l4.07-8.32Zm1.06,0h3.1l.49,7.57Zm-4.37,0h1.62l-3.43,7,.45-7Zm-2.11,11.77,4.62,7.5-5.68,8.93Zm.6-.84h9.32l-4.73,7.45Zm9.77,1.07,1.08,16.53-5.71-9.26Zm-5.2,8.17,5.55,9H351.09Zm-6.2,11.63H363L356.73,130Z" fill="#e1e1e1"/><path d="M368.76,159.64h-1.52v8.88l-6.48-7.15,6.67-7.14h.78v-2.14h-16v2.14h1.07l6.45,7.12-6.95,7.44v-9.16H350v218.8h2.8v-1.87h14.49v1.88h2.81V159.64ZM353.25,342.46l6.45,7.12L352.75,357V342.46Zm1.05,0h12.06L360.24,349Zm-.82-2.14,6.75-7.22,6.54,7.21Zm-.73-.36V325.4h.5l6.45,7.12Zm1.55-14.56h12.06L360.24,332Zm-.82-2.14,6.75-7.22,6.54,7.22Zm-.73-.36V308.34h.5l6.45,7.12Zm1.55-14.56h12.06l-6.12,6.56Zm-.82-2.13,6.75-7.23,6.54,7.22Zm-.73-.37V291.28h.5l6.45,7.12Zm1.55-14.56h12.06l-6.12,6.56Zm-.82-2.13,6.75-7.23,6.54,7.22Zm-.73-.36V274.23h.5l6.45,7.13Zm1.55-14.57h12.06l-6.12,6.56Zm-.82-2.13,6.75-7.22,6.54,7.21Zm-.73-.36V257.17h.5l6.45,7.12Zm1.55-14.56h12.06l-6.12,6.56Zm-.82-2.14,6.75-7.22,6.54,7.22Zm-.73-.36V240.11h.5l6.45,7.12Zm1.55-14.56h12.06l-6.12,6.56Zm-.82-2.13,6.75-7.23,6.54,7.22Zm-.73-.37V223.05h.5l6.45,7.12Zm1.55-14.56h12.06l-6.12,6.56Zm-.82-2.13,6.75-7.23,6.54,7.22Zm-.73-.36V206h.5l6.45,7.13ZM354.3,206h12.06l-6.12,6.56Zm-.82-2.13,6.75-7.23,6.54,7.22Zm-.73-.36V188.94h.5l6.45,7.12Zm1.55-14.56h12.06l-6.12,6.56Zm-.82,168.44,6.75-7.23,6.54,7.22Zm7.28-7.79,6.48-6.95v14.1Zm0-17.06,6.48-6.94v14.09Zm0-17.06,6.48-6.94v14.1Zm0-17.06,6.48-6.94v14.1Zm0-17.06,6.48-6.94v14.1Zm0-17.05,6.48-6.94v14.09Zm0-17.06,6.48-6.94v14.09Zm0-17.06,6.48-6.94v14.1Zm0-17.06,6.48-6.94v14.1Zm0-17.05,6.48-6.95v14.1Zm6.27-9.28H353.2l7-7.52Zm-6.27-8.07,6.48-6.95v14.1Zm-8,7.43V171.59h.5l6.45,7.12Zm0,173.36h.5l6.45,7.13-6.95,7.44Zm1.55,0h12.06l-6.12,6.56Zm12.94.19v14.1l-6.48-7.16Zm-7-181.56-5.94-6.55h12.06Zm0,189.07,6.54,7.22H353.48Zm-5.93-213h12.06l-6.12,6.56ZM367,169.44H353.2l7-7.52Z" fill="#e1e1e1"/><path d="M580.88,149.63,559.81,134a5.89,5.89,0,0,0-3.54-1.18h-276v2.81h1.27v14.49h-1.28v2.8H579.88a1.68,1.68,0,0,0,1.68-1.68V151A1.68,1.68,0,0,0,580.88,149.63Zm-34.2-7.5-6.95-6.48h14.1Zm7.78-6v13.29l-7.23-6.75Zm-14.92.41,6.56,6.12-6.55,5.94Zm-9.92,5.6-6.94-6.48h14.09Zm7.78-6v13.29l-7.22-6.75Zm-14.92.41,6.56,6.12-6.55,5.94Zm-9.92,5.6-6.94-6.48h14.1Zm7.79-6v13.29l-7.22-6.75Zm-14.93.41,6.56,6.12-6.55,5.94Zm-9.92,5.6-6.94-6.48h14.1Zm7.79-6v13.29l-7.23-6.75Zm-14.92.41,6.56,6.12-6.56,5.94Zm-9.93,5.6-6.94-6.48h14.1Zm7.79-6v13.29L479,142.66Zm-14.92.41,6.56,6.12-6.56,5.94Zm-9.92,5.6-6.94-6.48h14.09Zm7.78-6v13.29L462,142.66Zm-14.92.41,6.56,6.12-6.55,5.94Zm-9.92,5.6-6.94-6.48h14.09Zm7.79-6v13.29l-7.22-6.75Zm-14.93.41,6.56,6.12-6.55,5.94Zm-9.92,5.6-6.94-6.48h14.1Zm7.79-6v13.29l-7.23-6.75Zm-14.93.41,6.56,6.12-6.55,5.94ZM418,149.41l-7.23-6.75,7.22-6.54Zm2.13.23,7.12-6.45,7.44,6.95H420.14Zm17.06,0,7.12-6.45,7.44,6.95H437.2Zm17.06,0,7.12-6.45,7.44,6.95H454.26Zm17.05,0,7.13-6.45,7.44,6.95H471.32Zm17.06,0,7.12-6.45,7.44,6.95H488.37Zm17.06,0,7.12-6.45,7.44,6.95H505.43Zm17.06,0,7.12-6.45,7.44,6.95H522.49Zm17.06,0,7.12-6.45,7.44,6.95H539.55Zm-122.18-14-7.16,6.48-6.94-6.48h14.1Zm-133.7.88,6.56,6.12-6.55,5.94Zm.2-.88H298l-7.15,6.48Zm109.29,6.48-7-6.48h14.1Zm7.78-6v13.29l-7.23-6.75Zm-14.92.41,6.56,6.12L386,148.59Zm-9.92,5.6-6.94-6.48h14.09Zm7.78-6v13.29l-7.22-6.75Zm-14.92.41,6.56,6.12L369,148.59Zm-9.92,5.6-6.94-6.48h14.1Zm7.79-6v13.29l-7.22-6.75Zm-14.93.41,6.56,6.12-6.55,5.94Zm-9.92,5.6L335,135.65h14.1Zm7.79-6v13.29l-7.23-6.75Zm-14.92.41,6.56,6.12-6.56,5.94Zm-9.93,5.6L318,135.65h14.1Zm7.79-6v13.29l-7.23-6.75Zm-14.92.41,6.56,6.12-6.56,5.94Zm-9.92,5.6-6.94-6.48H315Zm7.78-6v13.29l-7.22-6.75Zm-14.92.41,6.56,6.12-6.55,5.94Zm-2.13-.41v13.29l-7.22-6.75Zm2.14,13.52,7.12-6.45,7.44,6.95H300.74Zm17.05,0,7.13-6.45,7.44,6.95H317.8Zm17.06,0,7.12-6.45,7.44,6.95H334.85Zm17.06,0,7.12-6.45,7.44,6.95H351.91Zm17.06,0,7.12-6.45,7.44,6.95H369Zm17.06,0,7.12-6.45,7.44,6.95H386Zm17.05-13.11,6.56,6.12-6.56,5.94Zm-119.4,13.11,7.12-6.45,7.44,6.95H283.68Zm119.4.5v-.5l7.13-6.45,7.44,6.95H403.08Zm153.52,0V135.68a6.28,6.28,0,0,1,3.27,1.11l19.18,13.35Z" fill="#e1e1e1"/><path d="M341.78,132.59c.16,9.34-.14,37.52-.14,37.52h33.85l-.91-5.56a5,5,0,0,1,0-1.72l2.48-12.27L371,131.66a2.9,2.9,0,0,0-2.76-2H344.68A2.89,2.89,0,0,0,341.78,132.59Z" fill="#ececec"/><polygon points="357.31 132.32 357.31 152.94 373.51 152.94 375.19 150.71 368.9 132.32 357.31 132.32" fill="#f5f5f5"/><path d="M556.27,132.84s-.26-.05-.76-.18l-2.22-.61-8.52-2.4-31.29-8.94L410.31,91,346.09,72.41l.26-.07c-18.44,17.25-34,31.72-45,41.85-5.49,5.07-9.84,9-12.83,11.74-1.49,1.35-2.66,2.37-3.44,3s-1.24,1-1.24,1l.3-.28c.19-.18.5-.42.88-.78l3.38-3.11L301.15,114l44.83-42,.11-.11.15,0L410.48,90.4,513.6,120.29l31.24,9.13,8.48,2.51,2.2.67Z" fill="#e1e1e1"/><path d="M269.67,128.83a3.36,3.36,0,0,0-2.61,1.26c-1.57,1.95-3.94,5.52-4.16,5.88s-.11,12.35,0,18.3a3.32,3.32,0,0,0,3.33,3.28h30a3.32,3.32,0,0,0,3.32-3.32V132.14a3.33,3.33,0,0,0-3.33-3.33Z" fill="#ececec"/><path d="M361.36,78.92a4.46,4.46,0,1,1-4.46-4.46A4.46,4.46,0,0,1,361.36,78.92Z" fill="#ececec"/><path d="M347.52,73.06A2.49,2.49,0,1,1,345,70.57,2.48,2.48,0,0,1,347.52,73.06Z" fill="#ececec"/><path d="M158.66,177.93h.87l.35-5.3,3.45,4.41-.68.89h.68l.34-.45.35.45h.69L164,177l3.33-4.39.34,5.28h.87l-1.55-24h.07l.09,0a.21.21,0,0,0,.13-.2v-.18h0v-3.89l2.92-3.48a2,2,0,0,0,1.26-.29,2,2,0,0,0-2.15-3.42,2,2,0,0,0-.84,1.08l-2.83.62a3.64,3.64,0,0,0-5.66,3v6.33h0v.19a.22.22,0,0,0,.2.21h0Zm5.17-24,2.32,4.73h-4.92l2.25-4.73Zm-3,4.3.28-4.3h1.77Zm5.3-4.3.26,4-1.95-4h1.69Zm1,16-3.23-5.08,2.63-4.27Zm-3.55-5.59-2.69-4.24h5.3Zm-.32.51-3.24,5.27.61-9.41Zm3.58,5.64h-6.41l3.16-5.12Zm-3.2,6.08-3.6-4.6h7.08Z" fill="#e1e1e1"/><path d="M156.09,193.48V318h1.59v-1.06h8.25V318h1.59V193.48h-1.59v5.21l-4-4.23,3.67-4.05h.62v-1.22h-9.13v1.21h.45l3.79,4.06-3.69,4.08v-5.06h-1.59Zm9.84,104v8.28l-4-4.23,3.67-4.05Zm-4.26,3.73-3.49-3.74h6.87ZM158,296.3l3.73-4.11,3.84,4.11Zm4-4.44,3.67-4.05h.29v8.29Zm-.3-.32-3.49-3.73h6.87Zm-3.72-5,3.73-4.11,3.84,4.12Zm4-4.43,3.67-4.06h.29v8.29Zm-.3-.33-3.49-3.73h6.87ZM158,276.88l3.73-4.1,3.84,4.11Zm4-4.43,3.67-4.05h.29v8.28Zm-.3-.32-3.49-3.74h6.87ZM158,267.18l3.73-4.11,3.84,4.11Zm4-4.44,3.67-4.05h.29V267Zm-.3-.32-3.49-3.74h6.87ZM158,257.47l3.73-4.11,3.84,4.11Zm4-4.44,3.67-4.05h.29v8.29Zm-.3-.32L158.18,249h6.87Zm-3.72-5,3.73-4.1,3.84,4.11Zm4-4.43,3.67-4.06h.29v8.29Zm-.3-.33-3.49-3.73h6.87ZM158,238.06l3.73-4.11,3.84,4.11Zm4-4.44,3.67-4.05h.29v8.28Zm-.3-.32-3.49-3.74h6.87Zm-3.72-5,3.73-4.11,3.84,4.11Zm4-4.44,3.67-4h.29v8.29Zm-.3-.32-3.49-3.73h6.87Zm-3.72-5,3.73-4.11,3.84,4.12Zm4-4.43,3.67-4.06h.29v8.29Zm-.3-.33-3.49-3.73h6.87ZM158,306l3.73-4.11,3.84,4.11Zm-.27-.36v-8l3.69,3.94Zm0-9.71v-8l3.69,3.95Zm0-9.71v-8l3.69,4Zm0-9.7v-8l3.69,3.95Zm0-9.71v-8l3.69,3.95Zm0-9.71v-8l3.69,3.95Zm0-9.71v-8l3.69,4Zm0-9.7v-8l3.69,4Zm0-9.71v-8l3.69,3.95Zm0-9.71v-8l3.69,4Zm4-13.62,4,4.28H157.8Zm-4,3.75v-8l3.69,4Zm4.29-4.08,3.67-4.05h.29v8.29Zm4,111.18-4-4.23,3.67-4.06h.29ZM161.67,311l-3.49-3.73h6.87Zm-.3.33-3.69,4.07v-8Zm-3.19-111h6.87L161.67,204Zm7.34,115.44H158l3.73-4.1Zm-3.85-121.58-3.49-3.74h6.87Zm0,.65,4,4.28H157.8Z" fill="#e1e1e1"/><path d="M35.72,188.55v.16a1,1,0,0,0,1,1h170.5v-1.6h-.73v-8.24h.72v-1.6H50.11a3.39,3.39,0,0,0-2,.67l-12,8.89A.93.93,0,0,0,35.72,188.55Zm15.78-8.72h8l-4,3.69Zm3.75,4-4.11,3.84V180.1Zm4.38,3.37-3.73-3.37,3.73-3.49Zm1.58-7.36h8l-4,3.69Zm3.75,4-4.12,3.84V180.1Zm4.38,3.37-3.73-3.37,3.73-3.49Zm1.57-7.36h8l-4,3.69Zm3.75,4-4.11,3.84V180.1ZM79,187.19l-3.73-3.37,3.74-3.49Zm1.58-7.36h8l-4,3.69Zm3.75,4-4.11,3.84V180.1Zm4.38,3.37L85,183.82l3.73-3.49Zm1.58-7.36h8l-3.95,3.69Zm3.75,4L90,187.66V180.1Zm4.38,3.37-3.73-3.37,3.73-3.49Zm1.58-7.36h8l-4,3.69Zm3.74,4-4.11,3.84V180.1Zm4.39,3.37-3.73-3.37,3.73-3.49Zm1.57-7.36h8l-4,3.69Zm3.75,4-4.11,3.84V180.1Zm4.38,3.37-3.73-3.37,3.74-3.49Zm1.58-7.36h8l-4,3.69Zm3.75,4-4.11,3.84V180.1Zm4.38,3.37-3.73-3.37,3.73-3.49Zm1.22-7.09,4.11,3.72-4.12,3.84Zm-1.22,8h-8.29l4.24-3.95,4,3.67Zm-9.71,0h-8.28l4.23-3.95,4.05,3.67Zm-9.71,0H99.88l4.23-3.95,4,3.67Zm-9.7,0H90.17l4.23-3.95,4.06,3.67Zm-9.71,0H80.46l4.24-3.95,4,3.67Zm-9.71,0H70.76L75,184.12,79,187.79Zm-9.7,0H61.05l4.23-3.95,4.06,3.67Zm-9.71,0H51.34l4.24-3.95,4.05,3.67Zm69.89-8.24h7.66l-4,3.69-4.07-3.69Zm75.72,7.36-3.73-3.37,3.73-3.49Zm-4.06-3.67-4.07-3.69h8Zm-62.32-3.69h8l-3.95,3.69Zm3.75,4-4.11,3.84V180.1Zm4.38,3.37-3.73-3.37,3.74-3.49Zm1.58-7.36h8l-4,3.69Zm3.75,4-4.11,3.84V180.1Zm4.38,3.37L153,183.82l3.73-3.49Zm1.58-7.36h8l-4,3.69Zm3.75,4-4.11,3.84V180.1Zm4.38,3.37-3.73-3.37,3.73-3.49Zm1.58-7.36h8l-3.95,3.69Zm3.74,4-4.11,3.84V180.1Zm4.39,3.37-3.73-3.37,3.73-3.49Zm1.57-7.36h8l-3.94,3.69Zm3.75,4-4.11,3.84V180.1Zm4.38,3.37-3.73-3.37,3.74-3.49Zm1.58-7.36h8l-3.95,3.69Zm3.75,4L187,187.66V180.1Zm4.38,3.37-3.73-3.37,3.73-3.49Zm5.33-3.37-4.12,3.84V180.1Zm-5.33,4.25h-8.29l4.24-3.95,4.05,3.67Zm-9.71,0h-8.28l4.23-3.95,4,3.67Zm-9.71,0h-8.28l4.23-3.95,4.05,3.67Zm-9.7,0h-8.29l4.24-3.95,4,3.67Zm-9.71,0h-8.29l4.24-3.95,4,3.67Zm-9.71,0h-8.28l4.23-3.95,4.05,3.67Zm-9.7-.88-3.73-3.37,3.73-3.49Zm68,.88H197l4.23-3.95,4.06,3.67Zm-75.72,0H129l4.23-3.95,4.06,3.67v.28Zm-92.37,0,10.91-7.59a3.59,3.59,0,0,1,1.87-.64v8.23Z" fill="#e1e1e1"/><path d="M172.17,178.09c-.09,5.31.08,21.35.08,21.35H153l.52-3.16a2.93,2.93,0,0,0,0-1l-1.41-7,3.45-10.75a1.64,1.64,0,0,1,1.57-1.15h13.42A1.64,1.64,0,0,1,172.17,178.09Z" fill="#ececec"/><polygon points="163.33 177.93 163.33 189.67 154.12 189.67 153.16 188.4 156.74 177.93 163.33 177.93" fill="#f5f5f5"/><path d="M50.11,178.23a2.69,2.69,0,0,1,.42-.15l1.25-.39,4.82-1.46L74.37,171,133,154l36.56-10.53.15,0,.12.11,35.26,33.1a7.27,7.27,0,0,1-.72-.54c-.45-.39-1.12-1-2-1.73-1.71-1.52-4.19-3.77-7.32-6.65-6.26-5.75-15.13-14-25.63-23.78l.26.06-36.54,10.59L74.49,171.42l-17.82,5-4.85,1.34-1.27.34A2.32,2.32,0,0,1,50.11,178.23Z" fill="#e1e1e1"/><path d="M213.21,176a1.89,1.89,0,0,1,1.48.71c.89,1.12,2.24,3.15,2.37,3.35s.06,7,0,10.41a1.88,1.88,0,0,1-1.89,1.87H198.12a1.89,1.89,0,0,1-1.89-1.89V177.83a1.9,1.9,0,0,1,1.9-1.89Z" fill="#ececec"/><path d="M161,147.55a2.54,2.54,0,1,0,2.54-2.54A2.54,2.54,0,0,0,161,147.55Z" fill="#ececec"/><circle cx="170.32" cy="144.21" r="1.41" fill="#ececec"/><rect x="718.49" y="213.32" width="98.1" height="297.79" fill="#f5f5f5"/><rect x="767.54" y="213.32" width="49.05" height="296.94" fill="#ececec"/><rect x="729.69" y="182.79" width="34.64" height="30.52" fill="#f5f5f5"/><rect x="756.07" y="182.79" width="8.26" height="30.52" fill="#ececec"/><rect x="710.31" y="211.54" width="109.14" height="1.78" fill="#e1e1e1"/><rect x="737.85" y="226.63" width="8.3" height="17.51" fill="#fafafa"/><path d="M767.54,251c0,.18-11,.33-24.53.33s-24.52-.15-24.52-.33,11-.34,24.52-.34S767.54,250.82,767.54,251Z" fill="#e1e1e1"/><rect x="787.33" y="226.63" width="8.3" height="17.51" fill="#e1e1e1"/><path d="M817,251c0,.18-11,.33-24.52.33S768,251.19,768,251s11-.34,24.53-.34S817,250.82,817,251Z" fill="#e1e1e1"/><rect x="787.33" y="261.39" width="8.3" height="17.51" fill="#e1e1e1"/><path d="M817,285.77c0,.18-11,.33-24.52.33S768,286,768,285.77s11-.34,24.53-.34S817,285.58,817,285.77Z" fill="#e1e1e1"/><rect x="787.33" y="297.2" width="8.3" height="17.51" fill="#e1e1e1"/><path d="M817,321.58c0,.18-11,.33-24.52.33s-24.53-.15-24.53-.33,11-.34,24.53-.34S817,321.39,817,321.58Z" fill="#e1e1e1"/><rect x="787.33" y="333.01" width="8.3" height="17.51" fill="#e1e1e1"/><path d="M817,357.39c0,.18-11,.33-24.52.33s-24.53-.15-24.53-.33,11-.34,24.53-.34S817,357.2,817,357.39Z" fill="#e1e1e1"/><rect x="787.33" y="367.79" width="8.3" height="17.51" fill="#e1e1e1"/><path d="M817,392.17c0,.19-11,.34-24.52.34s-24.53-.15-24.53-.34,11-.33,24.53-.33S817,392,817,392.17Z" fill="#e1e1e1"/><rect x="787.33" y="402.72" width="8.3" height="17.51" fill="#e1e1e1"/><rect x="787.33" y="438.1" width="8.3" height="17.51" fill="#e1e1e1"/><path d="M817,427.1c0,.19-11,.33-24.52.33S768,427.29,768,427.1s11-.33,24.53-.33S817,426.92,817,427.1Z" fill="#e1e1e1"/><rect x="737.85" y="261.92" width="8.3" height="17.51" fill="#fafafa"/><path d="M767.54,286.3c0,.18-11,.33-24.53.33s-24.52-.15-24.52-.33,11-.34,24.52-.34S767.54,286.11,767.54,286.3Z" fill="#e1e1e1"/><rect x="737.85" y="297.21" width="8.3" height="17.51" fill="#fafafa"/><path d="M767.54,321.59c0,.19-11,.33-24.53.33s-24.52-.14-24.52-.33,11-.33,24.52-.33S767.54,321.41,767.54,321.59Z" fill="#e1e1e1"/><rect x="737.85" y="332.5" width="8.3" height="17.51" fill="#fafafa"/><path d="M767.54,356.88c0,.19-11,.34-24.53.34s-24.52-.15-24.52-.34,11-.33,24.52-.33S767.54,356.7,767.54,356.88Z" fill="#e1e1e1"/><rect x="737.85" y="367.79" width="8.3" height="17.51" fill="#fafafa"/><path d="M767.54,392.17c0,.19-11,.34-24.53.34s-24.52-.15-24.52-.34,11-.33,24.52-.33S767.54,392,767.54,392.17Z" fill="#e1e1e1"/><rect x="737.85" y="403.09" width="8.3" height="17.51" fill="#fafafa"/><path d="M767.54,427.47c0,.18-11,.33-24.53.33s-24.52-.15-24.52-.33,11-.34,24.52-.34S767.54,427.28,767.54,427.47Z" fill="#e1e1e1"/><rect x="737.85" y="438.38" width="8.3" height="17.51" fill="#fafafa"/><rect x="55.41" y="236.33" width="144.86" height="274.92" fill="#e1e1e1"/><rect x="132.34" y="236.33" width="67.92" height="274.92" fill="#ececec"/><rect x="85.78" y="262.19" width="13.02" height="31.64" fill="#f5f5f5"/><rect x="85.78" y="386.04" width="13.02" height="31.64" fill="#f5f5f5"/><path d="M132.34,306.26c0,.27-17.22.49-38.46.49s-38.47-.22-38.47-.49,17.22-.5,38.47-.5S132.34,306,132.34,306.26Z" fill="#f5f5f5"/><rect x="85.78" y="324.59" width="13.02" height="31.64" fill="#f5f5f5"/><path d="M132.34,368.65c0,.27-17.22.49-38.46.49s-38.47-.22-38.47-.49,17.22-.49,38.47-.49S132.34,368.38,132.34,368.65Z" fill="#f5f5f5"/><rect x="146.77" y="262.19" width="13.02" height="31.64" fill="#e1e1e1"/><rect x="175.02" y="262.19" width="13.02" height="31.64" fill="#e1e1e1"/><rect x="146.77" y="322.24" width="13.02" height="31.64" fill="#e1e1e1"/><rect x="175.02" y="322.24" width="13.02" height="31.64" fill="#e1e1e1"/><rect x="146.77" y="382.28" width="13.02" height="31.64" fill="#e1e1e1"/><rect x="175.02" y="382.28" width="13.02" height="31.64" fill="#e1e1e1"/><rect x="44.52" y="229.68" width="166.64" height="6.89" fill="#e1e1e1"/><path d="M201.27,237.21c0,.28-32.37.5-72.3.5s-72.32-.22-72.32-.5,32.37-.49,72.32-.49S201.27,236.94,201.27,237.21Z" fill="#ececec"/><rect x="662.98" y="271.62" width="1.18" height="62.79" fill="#e1e1e1"/><rect x="643.02" y="272.58" width="1.18" height="62.79" fill="#e1e1e1"/><rect x="623.05" y="271.45" width="1.18" height="62.79" fill="#e1e1e1"/><rect x="603.08" y="272.58" width="1.18" height="62.79" fill="#e1e1e1"/><rect x="602.35" y="321.36" width="143.21" height="188.89" fill="#ececec"/><rect x="678.41" y="321.36" width="67.15" height="188.89" fill="#e1e1e1"/><rect x="632.38" y="346.94" width="12.88" height="31.28" fill="#f5f5f5"/><rect x="632.38" y="469.37" width="12.88" height="31.28" fill="#f5f5f5"/><path d="M678.41,390.5c0,.35-17,.63-38,.63s-38-.28-38-.63,17-.64,38-.64S678.41,390.15,678.41,390.5Z" fill="#f5f5f5"/><rect x="632.38" y="408.62" width="12.88" height="31.28" fill="#f5f5f5"/><path d="M678.41,452.18c0,.35-17,.64-38,.64s-38-.29-38-.64,17-.64,38-.64S678.41,451.83,678.41,452.18Z" fill="#f5f5f5"/><rect x="692.67" y="346.94" width="12.88" height="31.28" fill="#f5f5f5"/><rect x="720.61" y="346.94" width="12.88" height="31.28" fill="#f5f5f5"/><rect x="692.67" y="406.3" width="12.88" height="31.28" fill="#f5f5f5"/><rect x="720.61" y="406.3" width="12.88" height="31.28" fill="#f5f5f5"/><rect x="692.67" y="465.66" width="12.88" height="31.28" fill="#f5f5f5"/><rect x="720.61" y="465.66" width="12.88" height="31.28" fill="#f5f5f5"/><polygon points="678.41 324.6 678.41 307.57 692.67 307.57 692.67 298.23 711.99 298.23 711.99 289.88 745.56 289.88 745.56 323.26 678.41 324.6" fill="#e1e1e1"/><rect x="677.77" y="262.16" width="1.18" height="62.79" fill="#e1e1e1"/><rect x="692.08" y="262.16" width="1.18" height="62.79" fill="#e1e1e1"/><rect x="711.4" y="253.32" width="1.18" height="62.79" fill="#e1e1e1"/><rect x="743.98" y="253.32" width="1.18" height="62.79" fill="#e1e1e1"/><rect x="727.69" y="253.32" width="1.18" height="62.79" fill="#e1e1e1"/><rect x="604.21" y="304.61" width="74.2" height="1.18" fill="#e1e1e1"/><rect x="604.36" y="289.29" width="107.78" height="1.18" fill="#e1e1e1"/><path d="M842.19,511.24c0,.17-183.27.31-409.29.31s-409.33-.14-409.33-.31,183.23-.3,409.33-.3S842.19,511.07,842.19,511.24Z" fill="#1a2e35"/><rect x="125.46" y="458.16" width="2.88" height="52.93" fill="#1a2e35"/><path d="M129.81,456.35a2.91,2.91,0,1,1-2.91-2.91A2.9,2.9,0,0,1,129.81,456.35Z" fill="#f48225" data-secondary="true"/><rect x="182.68" y="458.16" width="2.88" height="52.93" fill="#1a2e35"/><path d="M187,456.35a2.91,2.91,0,1,1-2.9-2.91A2.9,2.9,0,0,1,187,456.35Z" fill="#f48225" data-secondary="true"/><rect x="117.24" y="463.27" width="73.77" height="13.2" fill="#f48225" data-secondary="true"/><polygon points="125.58 463.27 125.46 463.48 117.88 476.46 117.24 476.46 117.24 463.27 125.58 463.27" fill="#f5f5f5"/><polygon points="144.23 463.27 136.52 476.46 126.44 476.46 129.5 471.22 134.15 463.27 144.23 463.27" fill="#f5f5f5"/><polygon points="162.87 463.27 155.16 476.46 145.07 476.46 152.79 463.27 162.87 463.27" fill="#f5f5f5"/><polygon points="181.51 463.27 173.79 476.46 163.71 476.46 171.43 463.27 181.51 463.27" fill="#f5f5f5"/><polygon points="191.01 463.27 191.01 476.46 182.35 476.46 190.07 463.27 191.01 463.27" fill="#f5f5f5"/><rect x="117.24" y="483.66" width="73.77" height="13.2" fill="#f48225" data-secondary="true"/><polygon points="125.58 483.66 125.46 483.88 117.88 496.86 117.24 496.86 117.24 483.66 125.58 483.66" fill="#f5f5f5"/><polygon points="144.23 483.66 136.52 496.86 126.44 496.86 129.5 491.61 134.15 483.66 144.23 483.66" fill="#f5f5f5"/><polygon points="162.87 483.66 155.16 496.86 145.07 496.86 152.79 483.66 162.87 483.66" fill="#f5f5f5"/><polygon points="181.51 483.66 173.79 496.86 163.71 496.86 171.43 483.66 181.51 483.66" fill="#f5f5f5"/><polygon points="191.01 483.66 191.01 496.86 182.35 496.86 190.07 483.66 191.01 483.66" fill="#f5f5f5"/><path d="M191,476.47a2.07,2.07,0,0,1,0-.23v-.66c0-.59,0-1.45,0-2.57,0-2.24,0-5.53,0-9.74l.08.07-73.77.07h0l.14-.14v13.2l-.14-.15,52.52.06,15.57.05,4.21,0h0l-4.17,0-15.54.05-52.62.06h-.15V463.12h.15l73.77.07h.08v.08c0,4.23,0,7.53-.05,9.79,0,1.11,0,2,0,2.55v.64C191,476.4,191,476.47,191,476.47Z" fill="#1a2e35"/><path d="M191,496.86a2.07,2.07,0,0,1,0-.23V496c0-.59,0-1.45,0-2.57,0-2.24,0-5.53,0-9.74l.08.07-73.77.07h0l.14-.14v13.2l-.14-.15,52.52.07,15.57,0,4.21,0h0l-4.17,0-15.54,0-52.62.06h-.15V483.51h.15l73.77.07h.08v.08c0,4.23,0,7.53-.05,9.79,0,1.11,0,2,0,2.55v.64C191,496.79,191,496.86,191,496.86Z" fill="#1a2e35"/><path d="M641.9,275.09a4.6,4.6,0,0,0-8.34,0l-7.17.59,7.25,14.29,4.54-8.36a4.73,4.73,0,0,0,1.44-.38A4.6,4.6,0,0,0,641.9,275.09Z" fill="#1a2e35"/><path d="M600.52,254.39l4.68-2-11.29-2.85a4.59,4.59,0,1,0-1.06,6.12l10.72,6.55Z" fill="#1a2e35"/><path d="M690.83,394.64l0-.09L613.38,250.2l-.44-.82-12.2,5.56,58.4,153.93,0,.09L694,464.24l.7-.1.8-.12.64-.09-7.2-11.44,4.2-10.83,11.14,4.12,4.9,16.23.59-.09.74-.11.65-.1Zm5,23.39-13.9-3.57L690,398.72Zm-15.13-3.88-17.09-4.4,25.23-11.49Zm6.46-22.2L669.41,387l7.28-14.62Zm-19-5.25-15.64-4.32,23-10.48Zm6.31-18.35-16.36-5.7L664,348.72ZM657,362.24l-14.37-5L663,348Zm4.69-17.84L646.77,338l4.41-13.12Zm-16-6.92L632.88,332l17.25-7.86ZM649,320.87l-.08,0-13.4-7.24,3-12.38Zm-13.19-24.59-11.68-7.85,1.55-11.05ZM623,287.66l-9.4-6.31,11-5Zm-10-33.86L623,272.3l-10.2-8.59Zm-1.89,23.07-7.2-19,7.56,6.37Zm.4-14.18-8.1-6.83,8.41-3.83Zm1.16,2.59,9.82,8.27-10.19,4.64Zm.64,17.39,9.46,6.35-1.9,13.57Zm10.6,7.12,11.36,7.63-13.28,6.05Zm13.56,10.36-3.1,12.91-11.54-6.24Zm-14.42,8.19,11,6-3.4,14.13Zm12.14,6.57,12.29,6.64L632,328.66Zm-2.72,18.26,12.7,5.48-5,14.84Zm13.83,6,14.24,6.15-19.25,8.77Zm-4.28,19.22,14.41,5L649.94,379Zm15.58,5.43,15.59,5.43-22.08,10.06Zm-6.08,19.61,16,4.43-8.15,16.36Zm17.26,4.77L686.28,393l-25.66,11.69Zm-6.19,22.61,17.48,4.49-6.58,12.84Zm18.7,4.81,14.28,3.67-21.08,9.6Zm6.71,35.6-9.33-14.84,13.19,4.88Zm4.31-11.11-14.72-5.45-.36-.57,20.55-9.36.22.71Zm1.16.43,5.11-13.18,5.13,17Z" fill="#1a2e35"/><path d="M588.85,318.5s0-.42,0-1.22,0-2,0-3.57c0-3.14,0-7.75,0-13.65,0-11.82,0-28.83-.06-49.6v-.13h.12L610.57,248h.08l.05.06,56.55,63.21,82.32,92.14,24.92,27.94,6.76,7.62,1.75,2,.59.68s-.22-.21-.62-.66l-1.78-2-6.81-7.56c-5.9-6.59-14.44-16.11-25-27.88L667,311.54,610.47,248.3l.13,0-21.74,2.25.13-.14c0,20.77,0,37.78-.06,49.6,0,5.9,0,10.51,0,13.65,0,1.56,0,2.76,0,3.57S588.85,318.5,588.85,318.5Z" fill="#1a2e35"/><rect x="586.89" y="299.12" width="3.47" height="7.44" rx="0.38" fill="#1a2e35"/><path d="M594.51,307.71H583.12a1.26,1.26,0,0,1-1.27-1.26h0a1.27,1.27,0,0,1,1.27-1.27h11.39a1.27,1.27,0,0,1,1.27,1.27h0A1.26,1.26,0,0,1,594.51,307.71Z" fill="#1a2e35"/><path d="M589.65,328.1l0-1.63-1.67.72a10.82,10.82,0,0,0,0,1.8.64.64,0,0,0,.07.28.72.72,0,0,0,.4.28,3.33,3.33,0,0,1,1.73,1.51,2,2,0,0,1-1.14,2.77,2,2,0,0,1-2.55-1.37c0-.28,0-.68-.39-.71-.56-.06-.8.75-.78,1.18a3.51,3.51,0,0,0,3.39,3.28,3.59,3.59,0,0,0,1.91-.41,3.73,3.73,0,0,0,1.8-2.55C592.9,330,589.47,328.3,589.65,328.1Z" fill="#1a2e35"/><path d="M591.08,327.29l7.28-17.53a2.4,2.4,0,0,0-2.22-3.33H581.58a2.41,2.41,0,0,0-2.23,3.33l7.29,17.53A2.4,2.4,0,0,0,591.08,327.29Z" fill="#e1e1e1"/><path d="M582.32,307.68l-1.88,1.88c0,.07,0,.14,0,.21l.62,1.48,3.57-3.57Z" fill="#f48225" data-secondary="true"/><polygon points="589.35 307.68 587.01 307.68 581.77 312.91 582.46 314.57 589.35 307.68" fill="#f48225" data-secondary="true"/><polygon points="594.36 316.74 596.02 312.73 585.9 322.85 586.59 324.5 594.36 316.74" fill="#f48225" data-secondary="true"/><path d="M592.69,320.74l-5.41,5.42.18.44a1.49,1.49,0,0,0,.88.84l2.68-2.69Z" fill="#f48225" data-secondary="true"/><polygon points="594.04 307.68 591.69 307.68 583.15 316.22 583.84 317.88 594.04 307.68" fill="#f48225" data-secondary="true"/><path d="M597.36,309a1.52,1.52,0,0,0-.25-.69,1.46,1.46,0,0,0-.83-.57l-11.76,11.75.69,1.66Z" fill="#f48225" data-secondary="true"/><path d="M777.23,437.89h10.58a2.64,2.64,0,0,1,2.64,2.64v4.76a0,0,0,0,1,0,0H774.6a0,0,0,0,1,0,0v-4.76A2.64,2.64,0,0,1,777.23,437.89Z" fill="#1a2e35"/><path d="M746.88,443.44h-2.6V428a6.66,6.66,0,0,1,.32-2l1.3-4a.1.1,0,0,1,.18,0l1.53,2.71-.4,1.26a6.59,6.59,0,0,0-.33,2.07Z" fill="#1a2e35"/><path d="M811,446.26a5.69,5.69,0,0,0-4.25-3.41l-65,0V432a2.63,2.63,0,0,0-2.63-2.63H707.63a2.64,2.64,0,0,0-2.51,1.82l-.94,3h3.5a2.77,2.77,0,0,1,2.1,1,2.62,2.62,0,0,1,.55,2.2L707,453.28a2.7,2.7,0,0,1-2.65,2.11h-6.68a10.38,10.38,0,0,0,.19,3l.37,1.59L681,463.41a.7.7,0,0,0-.56.55l-1.62,4.34a2.87,2.87,0,0,0-.23.63v0h0c-.35,1.44-.09,3.84.78,3.84h18.43l-.81.91-1,3.23H813C813.06,466.44,812.79,450.65,811,446.26Zm-81.16-9.89L728.07,452c0,.19-.05.39-.09.59a6.88,6.88,0,0,1-6.85,5.38h-7.72a2.38,2.38,0,0,1-2.32-2.88l3.63-18.84a2.66,2.66,0,0,1,2.59-2.11h10.52a2,2,0,0,1,1.48.66A2,2,0,0,1,729.8,436.37Z" fill="#f48225" data-secondary="true"/><path d="M758.59,484.74l-49.83.7c-.32,0-.89-1-.89-1.29v-5.56a.59.59,0,0,1,.58-.59h50.14a.59.59,0,0,1,.59.59v5.56A.58.58,0,0,1,758.59,484.74Z" fill="#375a64"/><path id="b963543b-b6c7-4aa2-941e-c9df63593c48" data-name="SVGID" d="M729.8,436.36,728.07,452a5.58,5.58,0,0,1-.09.59,6.9,6.9,0,0,1-6.85,5.39h-7.72a2.38,2.38,0,0,1-2.32-2.88l3.63-18.84a2.66,2.66,0,0,1,2.59-2.11h10.52a2,2,0,0,1,1.48.66A1.94,1.94,0,0,1,729.8,436.36Z" fill="#ff4f5b"/><g clip-path="url(#f9aec469-e2b9-4bf4-a796-52fd0d5f3d64)"><g style="mix-blend-mode:screen"><path d="M813.08,478.29a2.81,2.81,0,0,0-.16-1.26H696.09a2.81,2.81,0,0,0-.16,1.26Z" fill="#ff4f5b"/></g><path id="e55723e7-ab01-42b7-920a-799012f013fa" data-name="SVGID" d="M705.12,431.18l-7,21.85a10.28,10.28,0,0,0-.27,5.39l3,14h40.85V432a2.64,2.64,0,0,0-2.63-2.64H707.63A2.63,2.63,0,0,0,705.12,431.18Z" fill="#ff4f5b"/></g><path d="M713.41,458a2.38,2.38,0,0,1-2.32-2.88l3.63-18.84a2.66,2.66,0,0,1,2.59-2.11h10.52a2,2,0,0,1,1.48.66,2,2,0,0,1,.49,1.55L728.07,452c0,.19-.05.39-.09.59a6.88,6.88,0,0,1-6.85,5.38Z" fill="#375a64"/><path d="M697.64,455.42a9.65,9.65,0,0,1,.46-2.26l6.11-19h3.49a2.73,2.73,0,0,1,2.1,1,2.58,2.58,0,0,1,.55,2.2L707,453.31a2.71,2.71,0,0,1-2.65,2.11Z" fill="#375a64"/><path d="M813.13,480h-117c-.9,0-.9-3.24,0-3.24h117C814,476.79,814,480,813.13,480Z" fill="#1a2e35"/><path d="M741.78,443.65s0,.06,0,.18v.5c0,.48,0,1.13,0,1.95,0,1.73-.13,4.17-.22,7.17s-.23,6.64-.37,10.64c0,1-.08,2-.12,3.07a7.21,7.21,0,0,1-.68,3.18,4.44,4.44,0,0,1-2.7,2,12,12,0,0,1-3.44.4l-23.66-.44-7.17-.18-1.95-.07-.51,0c-.11,0-.17,0-.17,0h2.63l7.17.06,23.66.34a11.85,11.85,0,0,0,3.34-.38,4,4,0,0,0,2.49-1.86,6.8,6.8,0,0,0,.65-3c0-1,.09-2.07.13-3.07.17-4,.32-7.59.45-10.63s.25-5.44.33-7.16c0-.83.08-1.48.11-1.95,0-.2,0-.37,0-.51S741.78,443.65,741.78,443.65Z" fill="#1a2e35"/><path d="M708.43,472.55c-.1,0-.18-3.43-.18-7.66s.08-7.66.18-7.66.17,3.43.17,7.66S708.52,472.55,708.43,472.55Z" fill="#1a2e35"/><path d="M714.55,429.48a6.76,6.76,0,0,1-.13,1.11c-.1.71-.27,1.73-.5,3-.44,2.53-1.12,6-2,9.82s-1.72,7.26-2.39,9.73c-.34,1.24-.62,2.24-.83,2.92a7.68,7.68,0,0,1-.36,1.06,7.64,7.64,0,0,1,.22-1.09c.19-.76.43-1.75.72-2.95.61-2.49,1.44-5.93,2.29-9.74s1.58-7.28,2.09-9.79c.24-1.21.45-2.21.6-3A6,6,0,0,1,714.55,429.48Z" fill="#1a2e35"/><g opacity="0.2"><path d="M728.1,464.23a2.29,2.29,0,0,0,.64-.27,1.17,1.17,0,0,0,.44-.63,1.4,1.4,0,0,0-.13-1,1.09,1.09,0,0,0-1-.53h-1.56l-3.56,0a1.06,1.06,0,0,0-1,1,1.09,1.09,0,0,0,.71,1.19,1.28,1.28,0,0,0,.34.07h1.15l1.35,0,2,.06a2.5,2.5,0,0,1,.72.07,3,3,0,0,1-.72.07c-.46,0-1.13,0-2,.05l-1.35,0h-1.15a1.38,1.38,0,0,1-.45-.08,1.41,1.41,0,0,1-.94-1.52,1.4,1.4,0,0,1,1.39-1.31h3.56l1.56,0a1.36,1.36,0,0,1,1.23.7,1.32,1.32,0,0,1,.17.62,1.72,1.72,0,0,1-.07.56,1.37,1.37,0,0,1-.55.69,1.21,1.21,0,0,1-.53.17C728.16,464.25,728.1,464.24,728.1,464.23Z"/></g><path d="M805.43,447.4c0,.1-4.78.18-10.68.18s-10.69-.08-10.69-.18,4.78-.18,10.69-.18S805.43,447.3,805.43,447.4Z" fill="#1a2e35"/><path d="M805.43,449.52c0,.1-4.78.18-10.68.18s-10.69-.08-10.69-.18,4.78-.17,10.69-.17S805.43,449.43,805.43,449.52Z" fill="#1a2e35"/><path d="M805.43,451.65c0,.1-4.78.18-10.68.18s-10.69-.08-10.69-.18,4.78-.18,10.69-.18S805.43,451.55,805.43,451.65Z" fill="#1a2e35"/><path d="M805.43,453.78c0,.1-4.78.18-10.68.18s-10.69-.08-10.69-.18,4.78-.18,10.69-.18S805.43,453.68,805.43,453.78Z" fill="#1a2e35"/><path d="M805.43,455.91c0,.09-4.78.17-10.68.17s-10.69-.08-10.69-.17,4.78-.18,10.69-.18S805.43,455.81,805.43,455.91Z" fill="#1a2e35"/><path d="M805.43,458c0,.1-4.78.18-10.68.18s-10.69-.08-10.69-.18,4.78-.18,10.69-.18S805.43,457.93,805.43,458Z" fill="#1a2e35"/><path d="M805.43,460.16c0,.1-4.78.18-10.68.18s-10.69-.08-10.69-.18,4.78-.18,10.69-.18S805.43,460.06,805.43,460.16Z" fill="#1a2e35"/><path d="M684.1,510.68c-6.42,0-11.82-6.19-11.82-12.6a12.19,12.19,0,0,1,12.07-11.83l103.32-4.67a13.89,13.89,0,0,1,13,7.22,13.74,13.74,0,0,1,1.15,9.58c-2.71,12.48-13.11,12.33-17.15,12.06S684.1,510.68,684.1,510.68Z" fill="#1a2e35"/><circle cx="684.1" cy="498" r="9.65" transform="translate(-132.43 276.01) rotate(-20.84)" fill="#375a64"/><circle cx="787.01" cy="496.04" r="12.48" transform="translate(-120.24 701.79) rotate(-45)" fill="#375a64"/><path d="M788.41,484l-.27,0-.79.09-3,.3c-2.64.26-6.46.6-11.18,1-9.44.78-22.5,1.67-36.94,2.31s-27.54.89-37,.95c-4.74,0-8.57,0-11.22,0l-3.05,0-.8,0-.27,0,.27,0h.8l3.05,0,11.21-.12c9.48-.12,22.56-.41,37-1s27.5-1.5,36.94-2.21l11.19-.88,3-.23.79-.06Z" fill="#375a64"/><path d="M784.44,507.34c0,.1-22.47.18-50.18.18s-50.18-.08-50.18-.18,22.46-.18,50.18-.18S784.44,507.24,784.44,507.34Z" fill="#375a64"/><g opacity="0.2"><path d="M701.31,472.22a22.78,22.78,0,0,1-.72-2.43c-.41-1.5-1-3.57-1.64-5.88a45.55,45.55,0,0,1-1.29-6,12.66,12.66,0,0,1-.11-1.86,2.91,2.91,0,0,1,.08-.68c.06,0,0,1,.28,2.51s.76,3.63,1.38,5.93,1.19,4.38,1.55,5.91c.18.76.31,1.38.39,1.81A3,3,0,0,1,701.31,472.22Z"/></g><path d="M780.14,503.74a2.73,2.73,0,0,1-.71-.47,8,8,0,0,1-1.61-1.69,9.77,9.77,0,0,1-1.51-3.14,9.52,9.52,0,0,1-.19-4.25,9.6,9.6,0,0,1,4.34-6.2,8.43,8.43,0,0,1,2.13-1,3.07,3.07,0,0,1,.84-.17,13.51,13.51,0,0,0-2.83,1.35,9.73,9.73,0,0,0-2.44,2.32,8.93,8.93,0,0,0-1.53,7.84,10.18,10.18,0,0,0,1.39,3.07A13.4,13.4,0,0,0,780.14,503.74Z" fill="#fafafa"/><path d="M725.91,445.09A127.19,127.19,0,0,1,715,453a127.19,127.19,0,0,1,10.93-7.91Z" fill="#fff"/><path d="M726.73,442.17a45.53,45.53,0,0,1-4.67,3.49,48.72,48.72,0,0,1-4.87,3.19,46.41,46.41,0,0,1,4.67-3.48A47.87,47.87,0,0,1,726.73,442.17Z" fill="#fff"/><path d="M706.62,446.67a25.51,25.51,0,0,1-5,3.45,12.48,12.48,0,0,1,2.37-1.87A13.11,13.11,0,0,1,706.62,446.67Z" fill="#fff"/><path d="M708,444a17.43,17.43,0,0,1-2.71,2.32,18.47,18.47,0,0,1-2.92,2.05,17.78,17.78,0,0,1,2.71-2.33A17.24,17.24,0,0,1,708,444Z" fill="#fff"/><g opacity="0.2"><path d="M729.54,460.63a40.94,40.94,0,0,1-7.67,0,40.94,40.94,0,0,1,7.67,0Z"/></g><path d="M682.18,506.19a2.85,2.85,0,0,1-.84-.18,7.75,7.75,0,0,1-2.11-1,9,9,0,0,1-2.44-2.5,8.2,8.2,0,0,1-.58-8.23,8.91,8.91,0,0,1,2.06-2.81,8,8,0,0,1,2-1.33,2.86,2.86,0,0,1,.8-.29,11.56,11.56,0,0,0-2.57,1.8,9,9,0,0,0-1.94,2.77,8.08,8.08,0,0,0,.56,7.92,9,9,0,0,0,2.3,2.46A12,12,0,0,0,682.18,506.19Z" fill="#fafafa"/><path d="M696.81,468.11c0,.1-3.72.18-8.31.18s-8.31-.08-8.31-.18,3.72-.18,8.31-.18S696.81,468,696.81,468.11Z" fill="#fff"/><path d="M621.89,264.86l-6.26-13.44a8.3,8.3,0,0,0-11-4h0a8.3,8.3,0,0,0-4,11l6.26,13.44a.49.49,0,0,0,.66.24l14.14-6.58A.5.5,0,0,0,621.89,264.86Z" fill="#f48225" data-secondary="true"/><polygon points="685.06 610.25 594.75 610.25 594.75 547.49 678.23 547.49 685.06 610.25" fill="#686175" data-primary="true"/><g opacity="0.2"><polygon points="685.06 610.25 594.75 610.25 594.75 547.49 678.23 547.49 685.06 610.25"/></g><rect x="584.56" y="547.49" width="90.31" height="62.75" fill="#686175" data-primary="true"/><path d="M675.61,547.49a6,6,0,0,1-.9.52l-2.6,1.42c-2.25,1.24-5.45,3.14-9.36,5.57s-8.53,5.38-14,8.17a57.08,57.08,0,0,1-18.81,6.2,35.77,35.77,0,0,1-10.3-.2,41.78,41.78,0,0,1-9.21-2.69,63.78,63.78,0,0,1-13.92-8.26c-3.67-2.81-6.46-5.29-8.38-7l-2.2-2a5.48,5.48,0,0,1-.73-.73,10.18,10.18,0,0,1,.82.64l2.27,1.91c2,1.65,4.8,4.07,8.48,6.82A64.65,64.65,0,0,0,610.68,566a37.54,37.54,0,0,0,19.22,2.81,57.54,57.54,0,0,0,18.62-6.09c5.42-2.74,10.06-5.68,14-8s7.18-4.23,9.47-5.41c1.14-.6,2-1,2.66-1.32A9.61,9.61,0,0,1,675.61,547.49Z" fill="#fff"/><path d="M645.72,547.53a21.12,21.12,0,0,0-2.72-4.75,15.26,15.26,0,0,0-4.5-3.76,14.86,14.86,0,0,0-13.86-.07,15.39,15.39,0,0,0-4.54,3.72,20.51,20.51,0,0,0-2.76,4.72s0-.13.06-.38a9.93,9.93,0,0,1,.34-1.06,14.1,14.1,0,0,1,2-3.55,15.16,15.16,0,0,1,4.61-3.95,15,15,0,0,1,14.4.07,15.2,15.2,0,0,1,4.57,4,13.92,13.92,0,0,1,2,3.58c.16.45.27.81.33,1.06S645.74,547.52,645.72,547.53Z" fill="#686175" data-primary="true"/><path d="M630.47,579a9.19,9.19,0,0,1-.07-1.2c0-.84,0-1.89-.08-3.15-.06-2.67-.13-6.38-.14-10.65l.29.3H624.9c.61-.61.17-.17.31-.3h0v2.18c0,.72,0,1.43,0,2.13,0,1.39,0,2.73,0,4,0,2.51,0,4.76-.07,6.66l-.21-.2c1.69,0,3.06.07,4,.11a12.59,12.59,0,0,1,1.54.1,11.79,11.79,0,0,1-1.42.09c-.95,0-2.36.09-4.15.11h-.21V579c0-1.9,0-4.15-.07-6.66,0-1.27,0-2.61,0-4v-2.13c0-.36,0-.73,0-1.09V564h0l.31-.31h5.87V564c0,4.4-.08,8.19-.14,10.85,0,1.23-.06,2.26-.08,3.09A5.07,5.07,0,0,1,630.47,579Z" fill="#fff"/><path d="M362.41,223.6s-10.32,0-5,4.49a111,111,0,0,0,30.84,13.79,55.33,55.33,0,0,0,18.93,4.52,10.23,10.23,0,0,0,3.83-6s-21.47,0-38.28-10.66C372.73,229.75,365.6,225.84,362.41,223.6Z" opacity="0.2"/><path d="M382.21,526.19l-7,49.6-10.5.56-14.47.78-1.66-5-14.31-.67s0-47.61-2.33-59.59L325,454s-8.33-57.26-7.66-70.24L326,380.5s8.12,10.27,37.48,6.41l20,10.46s.39,3.1.91,8.64C386.24,425.4,389.46,474.69,382.21,526.19Z" fill="#273956"/><g opacity="0.2"><path d="M338.94,418.67c.14,6.42.38,12.84.79,19.24s.85,12.8,1.51,19.17,1.39,12.74,2.36,19.07l1.56,9.49c.51,3.18,1,6.36,1.42,9.55,1.62,12.76,2.91,25.57,3.44,38.43.14,3.21.18,6.43.25,9.65v7.24l-.07,2.41-.19,4.82-.35,4.81c-.16,3.21-.69,6.4-1.06,9.58.43-6.41.78-12.81.62-19.22v-2.4l-.07-2.41-.13-4.8c-.16-3.2-.29-6.4-.52-9.6-.46-6.39-.94-12.78-1.6-19.16s-1.42-12.74-2.29-19.09c-.42-3.17-.85-6.35-1.33-9.51l-1.47-9.53c-.88-6.38-1.63-12.77-2.08-19.19s-.8-12.85-1-19.27S338.63,425.09,338.94,418.67Z"/></g><path d="M382.21,526.19l-7,49.6-10.5.56c5-14.38,20.34-64.84,14.17-122.39,0,0-2.57-38-5.11-48.31l10.68.36C386.24,425.4,389.46,474.69,382.21,526.19Z" opacity="0.2"/><polygon points="358.55 470.97 363.83 523.5 431.94 489.59 429.16 439 358.55 470.97" fill="#ddeef8"/><path d="M306.37,599.14s-4.09-13.22,10.4-15.74c0,0,15.81-.88,17.51-11.93l18.07.59,2.84,16.38Z" fill="#f48225" data-secondary="true"/><path d="M350.25,577.13s-4.51,7.21-11.75,9.42c0,0-10.08-.32-7.88,9.44,0,0,22.36-2.2,29.61-3.14l.31,2.2,18.27-3.46s1-10.8-3.59-15.8Z" fill="#f48225" data-secondary="true"/><path d="M350.25,577.13s-4.51,7.21-11.75,9.42c0,0-10.08-.32-7.88,9.44,0,0,22.36-2.2,29.61-3.14l.31,2.2,18.27-3.46s1-10.8-3.59-15.8Z" opacity="0.2"/><path d="M324.62,384.38s10.32,11.65,41.61,8.32l-2.72-5.79s-26.09,5-37.48-6.41Z" opacity="0.2"/><polygon points="366.62 470.97 371.06 514.89 429.16 486.25 426.66 444 366.62 470.97" fill="#d3e9f4"/><path d="M326,380.49s8,10.27,37.48,6.42l33.62-67.25-7.7-34.91L372,282.7,349.39,284l-25.67,57.24Z" fill="#f1f2f2"/><path d="M368,268.25a66.13,66.13,0,0,1-3.21,12.5s-2.24,5.6-1.44,10.89c0,0,3.36,0,4.81,1.12,0,0,7.69-2.4,10.89-6.41,0,0,4.42-5.72,6.35-10.6a16.48,16.48,0,0,1,1.9-3.47l3.54-4.91,4.39-8.09-3.68-8.5Z" fill="#ffcdc6"/><path d="M368,268.25s-1,5.13-2.25,9.61c0,0,15.89-.63,25.09-10.49,0,0,.71-2.94-.33-8.32l-.08-3.3Z" fill="#f7a79e"/><ellipse cx="376.41" cy="245.98" rx="24" ry="17.21" transform="translate(34.22 537.69) rotate(-73.61)" fill="#ffcdc6"/><path d="M388.25,241.88l-.93,12.26,9.35-5.62-6.13,10.53s.85,6.22.33,8.32c0,0,13-3.16,16.31-21C407.18,246.4,395.61,245.36,388.25,241.88Z" fill="#273956"/><path d="M362.41,223.6s-10.32,0-5,4.49a111,111,0,0,0,30.84,13.79,55.33,55.33,0,0,0,18.93,4.52,10.23,10.23,0,0,0,3.83-6s-21.47,0-38.28-10.66C372.73,229.75,365.73,226,362.41,223.6Z" fill="#f48225" data-secondary="true"/><path d="M362.41,223.6s14.81-28.47,38.94-14c0,0,18.14,9.88,9.66,30.8C411,240.41,385.1,241.06,362.41,223.6Z" fill="#f48225" data-secondary="true"/><g opacity="0.2"><path d="M371.23,221.76a17.41,17.41,0,0,1,3.37-5,27.31,27.31,0,0,1,4.62-4,31.86,31.86,0,0,1,5.37-2.87c.92-.42,1.9-.7,2.85-1s1.95-.53,2.93-.74c-.92.43-1.85.78-2.76,1.2s-1.82.82-2.7,1.29-1.77.89-2.61,1.42-1.69,1-2.52,1.57a38.94,38.94,0,0,0-4.63,3.68A26.63,26.63,0,0,0,371.23,221.76Z"/></g><g opacity="0.2"><path d="M382.88,224.26a38.66,38.66,0,0,1,9-6.64,33.21,33.21,0,0,1,5.16-2.23,19.68,19.68,0,0,1,5.52-.95,37,37,0,0,0-5.25,1.69q-2.53,1.06-4.95,2.37c-1.62.86-3.2,1.81-4.77,2.77S384.43,223.23,382.88,224.26Z"/></g><path d="M371.7,229.75s10.51-21.13,30.32-14c0,0,11.32,3.83,11.15,12.15,0,0,.9,4.58-2.16,12.49A86.38,86.38,0,0,1,371.7,229.75Z" fill="#fff" opacity="0.2"/><path d="M368.19,292.76s9.13,2.24,9.29,9.94l7.69-9.94.8-7.85S373,292.44,368.19,292.76Z" fill="#e6e7e8"/><path d="M353.45,291.48l-3.85,9.45s6.41-6.73,10.74-6.57l3-2.72-4.33-6.41Z" fill="#e6e7e8"/><path d="M363.06,303.5l6.25-4.49-1.12-6.25a7.65,7.65,0,0,0-4.81-1.12L358.57,296l1,7.69s-24.83,50-24.19,64.25l7.05,16.82,11.86-14.9Z" fill="#f48225" data-secondary="true"/><path d="M367.55,269.85s-6.57-1.39-14.31,3.56c0,0-14.54,4.18-20.12,11.14L297.49,322s-25.63-5.37-34.87-2.13a47,47,0,0,1-.62,16.61l40.46,4.65a3.75,3.75,0,0,0,2.73-.76L324,325.79S312.41,378,310.54,389l14.12,9.77s2.76-38.9,5.95-48.54l6.73-39.56,7.06-4.36,6.65-17.87S359.73,268.27,367.55,269.85Z" fill="#f48225" data-secondary="true"/><path d="M259,319.63l3.61.21s1.33,9.73-.62,16.61l-3.2-.19Z" fill="#273956"/><path d="M324,325.79s10.48-29.42,10.48-30" fill="none" stroke="#000" stroke-miterlimit="10" opacity="0.2"/><line x1="297.49" y1="321.97" x2="300.22" y2="326.58" fill="none" stroke="#000" stroke-miterlimit="10" opacity="0.2"/><path d="M392.75,434.27s-.28,10.29-5.84,13.07c0,0-5.56,1.94-5.28,13.34l5.56-2.5s3.33-3.61,4.17-.84c0,0-.56,22,6.39,15.85,0,0-.84,6.12,3.06,5.28,0,0,2.22.84,2.22-5.56,0,0,3.89,4.17,5.56-3.33,0,0,4.17.27,3.89-8.34,0,0,2.16-8.63-2.87-15.42a16.72,16.72,0,0,1-3.4-10,14.27,14.27,0,0,1,.16-2.13Z" fill="#ffcdc6"/><line x1="397.75" y1="473.19" x2="397.47" y2="459.01" fill="none" stroke="#f7a79e" stroke-miterlimit="10"/><line x1="403.03" y1="472.91" x2="403.59" y2="456.79" fill="none" stroke="#f7a79e" stroke-miterlimit="10"/><line x1="408.59" y1="469.58" x2="408.03" y2="456.51" fill="none" stroke="#f7a79e" stroke-miterlimit="10"/><path d="M258.62,334.59s-1.34,3.34-9.8,3.34l-23.16.45s-5.79-.89-1.78-4.68c0,0-10.24-2.45-4-6.46,0,0-5.12-.89-3.56-4.23,0,0,.89-2.23,6-.44,0,0-2.22-5.13,5.13-3.79,0,0,10.68,2.89,14.91,1.56,0,0-8.68-2.45-6.9-7.8,0,0,1.78-2.67,7.13,1.12,0,0,1.85,2.22,6.56,2.27a19,19,0,0,1,5.71.91c1.76.58,3.52,1.48,4.15,2.79Z" fill="#ffcdc6"/><path d="M224.1,323.68s3.79,1.56,10.69.67" fill="none" stroke="#f7a79e" stroke-miterlimit="10"/><path d="M223,329s8.46.45,14,1.12" fill="none" stroke="#f7a79e" stroke-miterlimit="10"/><line x1="225.44" y1="334.81" x2="236.35" y2="334.37" fill="none" stroke="#f7a79e" stroke-miterlimit="10"/><ellipse cx="392.67" cy="253.32" rx="6.25" ry="4.29" transform="translate(-53.27 392.96) rotate(-50.21)" fill="#ffcdc6"/><path d="M365.07,368.4s-2.85,24.67-1.82,37.25l28.49.51s-1,19.51,0,28.24l16.43-.51,6.67-50.83s6.42-60.32-3.85-79.32c0,0-4.65-8.17-9.64-9.86L393.28,295S369.46,343.48,365.07,368.4Z" fill="#f48225" data-secondary="true"/><path d="M391.74,406.16l-18.1-.33s15-24.82,17.59-49.72c0,0,1-15.66,6.67-25.41,0,0-5.64,15.91-4.62,39Z" opacity="0.2"/><path d="M388.53,275.62s18.43,12.5,12.82,18.26l-13.46,22.43,3.21,4.81s-19,25.31-26,47.28c0,0,.33-14.81,9.15-37.28,0,0,8.91-22.62,10.95-38.36l.54-4.92S390.36,286,388.53,275.62Z" fill="#f48225" data-secondary="true"/><path d="M388.53,275.62s18.43,12.5,12.82,18.26l-13.46,22.43,3.21,4.81s-19,25.31-26,47.28c0,0,.33-14.81,9.15-37.28,0,0,8.91-22.62,10.95-38.36l.54-4.92S390.36,286,388.53,275.62Z" fill="#fff" opacity="0.2"/><path d="M367.55,269.85s-4.6-1.24-9.86,3.68a44.19,44.19,0,0,1-4.19,3.53,78.68,78.68,0,0,1-8,5.29,1.9,1.9,0,0,0-1.06,1.49l-2.29,20.24a1.5,1.5,0,0,1-.71,1.13l-6.4,4a1.88,1.88,0,0,0-.88,1.42l-3.58,39.68a163.57,163.57,0,0,1,19-49.33s5.18-13.91,10.58-23.07C360.18,277.86,363.53,269.33,367.55,269.85Z" fill="#f48225" data-secondary="true"/><path d="M367.55,269.85s-4.6-1.24-9.86,3.68a44.19,44.19,0,0,1-4.19,3.53,78.68,78.68,0,0,1-8,5.29,1.9,1.9,0,0,0-1.06,1.49l-2.29,20.24a1.5,1.5,0,0,1-.71,1.13l-6.4,4a1.88,1.88,0,0,0-.88,1.42l-3.58,39.68a163.57,163.57,0,0,1,19-49.33s5.18-13.91,10.58-23.07C360.18,277.86,363.53,269.33,367.55,269.85Z" fill="#fff" opacity="0.2"/><path d="M368.19,292.76s10.57,1,9.29,7.69c0,0,2.46-8.12,8.23-12.61,0,0,6.69-3.3,1.62-15.56a13.34,13.34,0,0,0-2.16,4,90.07,90.07,0,0,1-6.09,10.09S376.52,290,368.19,292.76Z" fill="#d1d3d4"/><path d="M353.45,291.48s7.53-2.56,9.93.16c0,0-.69-3.87,1.44-10.89,0,0,2.72-6.43,2.9-10.94,0,0-3.7-1.08-7.54,8.05-.84,1.4-1.68,2.88-2.5,4.44A93.27,93.27,0,0,0,353.45,291.48Z" fill="#d1d3d4"/><path d="M368.61,301.82s0-1.69,2.29-2.89l.73,7.35A23,23,0,0,1,368.61,301.82Z" fill="#d3e9f4"/><path d="M534.54,288.38l5.6,17s-9.33-3.36-12.51-10.26A8.63,8.63,0,0,1,534.54,288.38Z" fill="#d3e9f4"/><path d="M509.72,596s6.34,3,5.22,15.3l-49.1-.36a.14.14,0,0,1,0-.28c6.41-1.15,29.55-6.08,30.84-17.65,0,0,1.49-3,2.61.37Z" fill="#686175" data-primary="true"/><rect x="465.98" y="611.28" width="48.96" height="2.24" transform="translate(980.92 1224.8) rotate(-180)" fill="#ddeef8"/><rect x="549.99" y="585.32" width="9.68" height="11.82" transform="translate(1109.67 1182.46) rotate(-180)" fill="#ffcdc6"/><path d="M504.68,587h0a5.41,5.41,0,0,1,5.41,5.41V602.7a0,0,0,0,1,0,0H499.26a0,0,0,0,1,0,0V592.43A5.41,5.41,0,0,1,504.68,587Z" transform="translate(1009.35 1189.71) rotate(-180)" fill="#ffcdc6"/><path d="M567.85,609.33a13.34,13.34,0,0,0-6.12-7.35,2.34,2.34,0,0,1-1.3-2.06v-3.66a1.13,1.13,0,0,0-1.13-1.13h-8.76a1.13,1.13,0,0,0-1.13,1.17l.15,3.66a1.91,1.91,0,0,1-1,1.79,10.33,10.33,0,0,0-5.43,7.84Z" fill="#686175" data-primary="true"/><rect x="542.95" y="609.33" width="24.9" height="2.14" transform="translate(1110.8 1220.81) rotate(-180)" fill="#ddeef8"/><path d="M534.73,283.15s.19-3.1-8.47-1.75c0,0,1,6.07,2.76,9.15A31.46,31.46,0,0,0,534.73,283.15Z" fill="#686175" data-primary="true"/><path d="M534.73,283.15s.19-3.1-8.47-1.75c0,0,1,6.07,2.76,9.15A31.46,31.46,0,0,0,534.73,283.15Z" opacity="0.2"/><path d="M525.49,266.43s-2,10.5,3.88,24.65l-14.06,10-4.47,8.21-5.6,2.61L503,309.66l-.38-20.16,1.87-6.35Z" fill="#ffcdc6"/><path d="M505.61,293.6s11-.8,17-19.46l-19.2,2.29,1,7.36-.87,2.83Z" fill="#f7a79e"/><ellipse cx="509.98" cy="259.81" rx="15.29" ry="25.33" fill="#ffcdc6"/><path d="M536.59,290.24l-1.86-7.09s-5.8,11.07-17.74,12.57c0,0,3.18,4.6,3.18,15.43a26.71,26.71,0,0,1-5.79-13.81s-5.54,13.31-7.4,26.38l15,74c4.58.75,9.48,1.38,14.68,1.8,3,.25,5.92.41,8.73.51.58,0,5.31,0,7.44-3.52,1.54-2.52,1.82-6.25-3.22-11.11,0,0-6.35-14.18-6.72-23.14,0,0-1.12-22-.75-30.24l1.12-38.82Z" fill="#686175" data-primary="true"/><path d="M551.15,387.3s2.61-13.81-11.2-19c0,0,12.58-2.15,17.29-6.82a.48.48,0,0,0,.07-.57c-.5-.86-1.56-3.48,1.71-6.15a.48.48,0,0,0,.11-.63l-14-21.66s-1.49-2.62-3-.38l1.12-38.82,10.45,4.85s4.59,1.06,7.59,10a9,9,0,0,0,.63,1.5c2.61,5,18.17,35.29,20.9,57.16,0,0,.38,9-12.69,13.44Z" fill="#686175" data-primary="true"/><path d="M517.6,296.55a2,2,0,0,0-1.89-1.22c-.72,0-1.42.45-1.33,2,0,0,1.18,9.58,5.79,13.81C520.17,311.15,520.39,303,517.6,296.55Z" fill="#273956"/><path d="M503.93,306.86s4-17.15.23-21.42a.55.55,0,0,0-.65-.13c-.87.38-2.95,1.44-2.75,2.82,0,0-2.49,1.49-2.49,6.22,0,0-17.17,6.72-21.16,14.93l-5.47,11.2,10.95,83.87,39.44-6.6-15-74,3.86-14.44-5.6,2.61L503,309.66Z" fill="#686175" data-primary="true"/><path d="M498.89,304.06s3.73-13.57,1.87-15.93c0,0-2.62-2.61-2.49,6.22Z" fill="#273956"/><path d="M549.66,399.25,561,583a5.59,5.59,0,0,1-3.48,5.54,17.61,17.61,0,0,1-9,1.26,5.63,5.63,0,0,1-4.75-4.52L514.57,431l-2.24,1.12.36,153.84a4.36,4.36,0,0,1-3.11,4.2,16.74,16.74,0,0,1-16-3,4.25,4.25,0,0,1-1.5-3.08l-9.49-179.75,39.44-6.6S547.42,401.49,549.66,399.25Z" fill="#273956"/><polygon points="512.33 432.1 502.25 431.72 512.7 501.53 512.33 432.1" opacity="0.2"/><g opacity="0.2"><path d="M527.63,431.35a37.81,37.81,0,0,1-6.54.31,36.8,36.8,0,0,1-6.52-.68,42.47,42.47,0,0,1,13.06.37Z"/></g><g opacity="0.2"><path d="M523.53,445.16a19.48,19.48,0,0,1-2.64-2.33,29.2,29.2,0,0,1-2.27-2.68,21,21,0,0,1-3.31-6.19c.72.94,1.38,1.89,2.06,2.82s1.35,1.86,2,2.78C520.79,441.41,522.2,443.22,523.53,445.16Z"/></g><path d="M536.37,245.1a4.54,4.54,0,0,0-.87-1.64s-1.73-18.68-18.68-20.6c0,0-15.15-2.59-23.91,16.31a2.08,2.08,0,0,1-1.88,1.21h-5.76a2.92,2.92,0,0,0-2.92,2.92h0a2.92,2.92,0,0,0,2.85,2.93c9.78.23,41.79,1,49,1.49A2.07,2.07,0,0,0,536.37,245.1Z" fill="#f48225" data-secondary="true"/><path d="M535.5,243.46l-20.61-1.35s12.71-2.11,15.22-11.94C530.11,230.17,533.77,233.45,535.5,243.46Z" opacity="0.2"/><path d="M532.8,247.7l-.19,4.24s6.55,5.39-1.15,12.7l5.58,4.43-4.24-1.73s3.28,8.28-3.08,10.4a6.59,6.59,0,0,0,1.93-4.62s-3,2.57-6.29,2.57a38,38,0,0,1,0-9.3l-5.07-9.06a15.51,15.51,0,0,1-.77-10.21Z" fill="#273956"/><path d="M517,247.12s-10,0-13.39,1.73c0,0-4.13,3.09-8,3.09a15.2,15.2,0,0,0-.77,6.35s-10.21-3.47-1.74-11.94Z" fill="#273956"/><path d="M551.28,383.44h-6.6l-5.23-8,2.49-5.35,2.37.37S550.78,373.86,551.28,383.44Z" fill="#f7a79e"/><path d="M551.15,387.3a9.76,9.76,0,0,1-6.52-.49,2.24,2.24,0,0,0,1.67-3.37h5A7.9,7.9,0,0,1,551.15,387.3Z" fill="#686175" data-primary="true"/><path d="M551.15,387.3a9.76,9.76,0,0,1-6.52-.49,2.24,2.24,0,0,0,1.67-3.37h5A7.9,7.9,0,0,1,551.15,387.3Z" opacity="0.2"/><path d="M549.38,412.38s-16.9-37.12-23.92-70.5q-2.48-11.78-6.07-23.27l-4.27-13.69s-77.82,27.69-134,7.16a22.74,22.74,0,0,1-12.5-10.26l50.77,126.42s30.63,11.49,79.22-3.56c2.56-.79,5.14-1.49,7.74-2.14C516.31,420,539.11,414.34,549.38,412.38Z" fill="#ddeef8"/><path d="M393.6,362.71s-7.74,3.31-6.08-3.31c0,0-3.59-1.11-1.38-5.25,0,0-5.52-1.66-.55-5.8a3.66,3.66,0,0,1,0-4.42Z" fill="#ffcdc6"/><ellipse cx="525.12" cy="260.23" rx="5.25" ry="7.07" fill="#ffcdc6"/><path d="M536.38,367.48a5,5,0,0,1-2.55-1.75,3.13,3.13,0,0,0-1.37-1.37c-.73-.33-1.54-.26-1.47,1.66,0,0,1.12,4,2.49,4.86l4.85-2.24h0A5.94,5.94,0,0,0,536.38,367.48Z" fill="#f7a79e"/><path d="M545.49,382.08s3,3.44-.86,4.73l-9.46,1.51s-3.49.41-2.31-2.95c0,0-3.07,1.87-5.66.8,0,0-1.68-1.48.31-3.35a2.73,2.73,0,0,1-3.61-.5s-1.49-1.74,1.49-3.36c0,0-4.72-1.61.38-4l12.56-6.34s5-1.5,3.61,3.61c0,0,5.35.49,3,5C544.93,377.22,548.54,379.6,545.49,382.08Z" fill="#ffcdc6"/><path d="M533.46,385.34a35.46,35.46,0,0,1,11.5-2.91,31,31,0,0,1-5.63,1.94A32,32,0,0,1,533.46,385.34Z" fill="#f7a79e"/><path d="M544.25,377.28a64.14,64.14,0,0,1-8,3.15,65.14,65.14,0,0,1-8.31,2.21,65.79,65.79,0,0,1,8-3.16A66.81,66.81,0,0,1,544.25,377.28Z" fill="#f7a79e"/><path d="M541.38,372.43A69.09,69.09,0,0,1,526,378.72a60.42,60.42,0,0,1,7.53-3.61A61.7,61.7,0,0,1,541.38,372.43Z" fill="#f7a79e"/><path d="M362.65,244.28a1.47,1.47,0,0,0,.79,1.92,1.41,1.41,0,0,0,1.89-.63s0,0,0-.06a1.48,1.48,0,0,0-.78-1.92,1.41,1.41,0,0,0-1.89.63Z" fill="#273956"/><path d="M363.47,238.77c.1.24,1.45-.12,2.95.46s2.29,1.76,2.52,1.64.06-.44-.28-1a4.19,4.19,0,0,0-1.9-1.53,3.83,3.83,0,0,0-2.41-.12C363.69,238.38,363.41,238.65,363.47,238.77Z" fill="#273956"/><path d="M376.34,249.42a1.47,1.47,0,0,0,.78,1.92,1.43,1.43,0,0,0,1.91-.68v0a1.48,1.48,0,0,0-.79-1.91,1.41,1.41,0,0,0-1.89.63A.14.14,0,0,0,376.34,249.42Z" fill="#273956"/><path d="M378,244.76c.09.26,1.45-.12,2.94.46s2.3,1.77,2.53,1.65.07-.44-.28-1a4,4,0,0,0-1.91-1.52,3.87,3.87,0,0,0-2.4-.14C378.26,244.39,377.93,244.64,378,244.76Z" fill="#273956"/><path d="M368.3,253.72a10.69,10.69,0,0,0-2.26-1.38c-.36-.19-.69-.41-.66-.69a2.21,2.21,0,0,1,.68-1l2.26-2.46a54.49,54.49,0,0,0,5.51-6.62c-.15-.13-2.86,2.66-6,6.14l-2.22,2.5a2.27,2.27,0,0,0-.78,1.42,1,1,0,0,0,.4.8,2.44,2.44,0,0,0,.61.34A10,10,0,0,0,368.3,253.72Z" fill="#f7a79e"/><path d="M390.65,255.44a3.62,3.62,0,0,0,.24.3,1.34,1.34,0,0,0,.84.36,3,3,0,0,0,2.32-2,3.9,3.9,0,0,0,.33-1.75,1.41,1.41,0,0,0-.49-1.22.63.63,0,0,0-.8,0c-.16.15-.18.29-.21.29s-.11-.16.06-.41a.76.76,0,0,1,.43-.31.93.93,0,0,1,.69.09,1.73,1.73,0,0,1,.77,1.5,4.11,4.11,0,0,1-.34,2,3.18,3.18,0,0,1-2.8,2.15,1.3,1.3,0,0,1-1-.61C390.6,255.61,390.62,255.44,390.65,255.44Z" fill="#f7a79e"/><path d="M371.7,259.41a22.57,22.57,0,0,0-5.63-1.17c-.56.62-.41,2.87.13,3.58a2.9,2.9,0,0,0,2.38,1.12,3.57,3.57,0,0,0,2.21-1.23A5.07,5.07,0,0,0,371.7,259.41Z" fill="#fff"/><path d="M498.42,264a1.48,1.48,0,0,0,1.49,1.45,1.41,1.41,0,0,0,1.48-1.34v-.06a1.49,1.49,0,0,0-1.49-1.45,1.42,1.42,0,0,0-1.48,1.34Z" fill="#273956"/><path d="M497,258.66c.19.18,1.28-.69,2.89-.76s2.8.69,3,.49-.12-.43-.64-.79a4.19,4.19,0,0,0-2.36-.63,3.8,3.8,0,0,0-2.26.85C497,258.21,496.86,258.57,497,258.66Z" fill="#273956"/><path d="M513,263.25a1.46,1.46,0,0,0,1.49,1.44,1.42,1.42,0,0,0,1.47-1.38v0a1.48,1.48,0,0,0-1.49-1.43,1.41,1.41,0,0,0-1.48,1.34Z" fill="#273956"/><path d="M512.71,258.3c.18.2,1.28-.69,2.87-.76s2.82.7,3,.49-.11-.43-.64-.78a4,4,0,0,0-2.37-.63,3.91,3.91,0,0,0-2.25.84C512.76,257.87,512.56,258.23,512.71,258.3Z" fill="#273956"/><path d="M507.38,270.42a11,11,0,0,0-2.62-.37c-.41,0-.79-.09-.88-.36a2.11,2.11,0,0,1,.23-1.18l1.07-3.16a52.94,52.94,0,0,0,2.39-8.28c-.19-.05-1.54,3.58-3,8l-1,3.18a2.32,2.32,0,0,0-.14,1.62,1,1,0,0,0,.69.56,2.35,2.35,0,0,0,.7.07A10.53,10.53,0,0,0,507.38,270.42Z" fill="#f7a79e"/><path d="M523.16,263.85a3.33,3.33,0,0,0,.45.24,1.74,1.74,0,0,0,1.21,0,4,4,0,0,0,1.76-3.68,5.33,5.33,0,0,0-.53-2.32,1.88,1.88,0,0,0-1.25-1.22.85.85,0,0,0-1,.47c-.11.27-.06.45-.1.47s-.21-.14-.15-.53a1.12,1.12,0,0,1,.36-.61,1.24,1.24,0,0,1,.89-.26,2.32,2.32,0,0,1,1.75,1.41,5.66,5.66,0,0,1,.64,2.61,4.24,4.24,0,0,1-2.27,4.11,1.77,1.77,0,0,1-1.55-.2C523.19,264.08,523.13,263.87,523.16,263.85Z" fill="#f7a79e"/><path d="M512.79,274.26a22.24,22.24,0,0,0-5.64,1.19c-.26.79.78,2.79,1.56,3.22a2.87,2.87,0,0,0,2.63.07,3.56,3.56,0,0,0,1.54-2A5.42,5.42,0,0,0,512.79,274.26Z" fill="#fff"/></g></g></svg>