<svg xmlns="http://www.w3.org/2000/svg" xmlns:xlink="http://www.w3.org/1999/xlink" width="865.76" height="682.89" viewBox="0 0 865.76 682.89"><defs><clipPath id="e410c462-c2fd-4e5f-b94e-dd317877b1a1"><path id="a6b3e834-a7ff-4ca7-ae22-853485cc5d7c" data-name="SVGID" d="M613.91,110.33S574.22,19.66,483.44,22.46,388,104.15,369.76,112.05s-82,1.12-91.77,63.44c-68.52,5-85.3,64-71.32,96-96.49,33.41-76.6,227.79,142.1,273.94,62.07,75.51,145.82,0,145.82,0,42.11,53.14,121.82,15.38,112-37.76,85.31,18.18,145.44-110,79.71-182.26,43.35-51.28,21-109.47-8.39-116C690.53,149.71,639.37,104.52,613.91,110.33Z" fill="none"/></clipPath><clipPath id="f538c3d7-6515-4aa1-a601-2a52ab5a6030"><path id="b32f8b7f-9174-4ff3-a20e-ec8ba6ea7091" data-name="SVGID" d="M673.61,158.35c-12.83-32.09-42.28-52-59.7-48,0,0-39.69-90.67-130.47-87.87s-130.11,9-148.34,16.87-85.18,22.33-95,84.65c-64.71,4.71-45.41,109.13-35.5,142a122.77,122.77,0,0,0,48,34.76c84.07,34.37,120.43-35.8,140.3-35.6s75.35,32.33,109.64-20.62c64.63,23.32,104-23.78,104.22-58.71C632.89,188,656.28,177.48,673.61,158.35Z" fill="none"/></clipPath><clipPath id="f6d5ddbf-7b2f-4b5d-ac4d-23a3d16e64c0"><path id="aed8b6d7-df5d-4450-a63e-a84afc9fd820" data-name="SVGID" d="M489.1,487.73S482.48,511.3,470.75,522a15.1,15.1,0,0,1-10.32,4.84s-13,.76-15.67,4.46c0,0-4.84,2.55-5.73,5.73,0,0-2.17,3.57,2.42,2.8,0,0,.38,2.55,3.05,1.28a2.93,2.93,0,0,0,4.34-.13s.12,2.8,4,2l8.63.33a12.63,12.63,0,0,1,7.12,2.4,13.07,13.07,0,0,0,6.57,2.48,7.14,7.14,0,0,0,7.39-4.39,13.24,13.24,0,0,0,.54-6.48,9.43,9.43,0,0,1,2.25-7.46c.16-.17.32-.34.5-.51,0,0,12.1-10.45,13.63-13.89a10.08,10.08,0,0,1,3.06-9.43s1.2-.55,3.22-9c0,0-1.73-8.64-3.3-9.61a50.52,50.52,0,0,0-8-1,9.24,9.24,0,0,0-3.56.54C490.3,487.28,489.65,487.51,489.1,487.73Z" fill="#f9ad9b"/></clipPath><clipPath id="a237826f-1ef0-45d3-ad21-55a793f037cf"><path id="ed2212c4-f403-4dc3-ba7b-a768d1f6e633" data-name="SVGID" d="M506,234.25s-20.36,9.38-12.69,30.86c0,0,5.41,18,13.34,25.17,0,0,9.58,10,20.32,5.6,0,0,14.82-4.84,12.27-40.66,0,0-10.61-7.29-14.77-15.71a8.18,8.18,0,0,0-3.41-3.55C517.7,234.11,511.56,231.65,506,234.25Z" fill="#f9ad9b"/></clipPath><clipPath id="f41c34d4-35b5-4671-b1f5-981817830f1a"><path id="ecb1cf3a-5cd8-4d69-a22a-9a290e895bd2" data-name="SVGID" d="M497.51,315.58s1.95-.78,3.86-1.41A15,15,0,0,0,505,312.4a29.66,29.66,0,0,1,7.18-3.32,31.41,31.41,0,0,1-2.93,7,12.44,12.44,0,0,0-1.83,4.34,22.56,22.56,0,0,0,0,10.74s4.46,16.82,19.75,19.62c0,0,8,1.53,11.09-9.3a8.28,8.28,0,0,1,1.66-3.39,21.67,21.67,0,0,0,3.93-7.17,60,60,0,0,0,1.54-6.39,73.62,73.62,0,0,1,7.78-19l7-11.73a14.61,14.61,0,0,0,7.45,1s6.12.1,10.13-1.91a10.33,10.33,0,0,1,11.75-1.24s7.08,4.58,11.38,2.77a10.57,10.57,0,0,1-4.3,3.88A30.84,30.84,0,0,0,584,310.56s8.58,26.05,7.69,33.82c0,0-2.78,43.52,19.92,94.82,0,0-8,1.18-57.64-3.59l-31.6-23.44-54-58.11Z" fill="#686175" data-primary="true"/></clipPath><clipPath id="a8b0fafc-654c-4eac-943e-06a759b5a595"><path id="b4d91918-ab38-4cc1-b8df-98df65be729e" data-name="SVGID" d="M482.52,434.43s-30,40.38-35.71,65.55a.62.62,0,0,0,1,.63c2.06-1.54,6.63-3.75,14.88-2.3,0,0,7.84,1.14,11.66-1.72,0,0,.6-.71,3.38-.24,0,0,1.24-7.27,6.65-7.58a46.82,46.82,0,0,0,5.54-1.3,13.89,13.89,0,0,1,8.15-.15,6.38,6.38,0,0,1,1.67.87,11.17,11.17,0,0,1,2.93,3.08,28,28,0,0,1,3.06,5.85l6-9.43,6.8-9.75s5.52-7.21,11.45-14.08c0,0,5.74-4.76,7.13-7.45a4.32,4.32,0,0,1,1.58-1.65c3-1.82,10.32-6.73,11.2-11.94a5.76,5.76,0,0,1,2-3.69c2.13-1.66,4.32-5.07-1.64-10.61l-23.53-.4-34.5.62Z" fill="#686175" data-primary="true"/></clipPath><clipPath id="abfbfbf1-4b1c-4904-996f-e45c23af6cbf"><path id="e8696c01-9b90-4438-9459-15435363b664" data-name="SVGID" d="M567.7,294.75a.51.51,0,0,1,0,.13,14.62,14.62,0,0,1-6.15-.35,6.79,6.79,0,0,1-2.26-1.18L537,281.88a133.93,133.93,0,0,0,2.26-20.13,53.18,53.18,0,0,0-.21-6.4s-8.5-6.1-13.23-13.12a25.17,25.17,0,0,1-1.54-2.59,7.11,7.11,0,0,0-3.41-3.56s-.26-.18-.74-.45a23.33,23.33,0,0,1-6.08,7.29,30,30,0,0,1-13.6,6c7.86-6.46,2-10.88,2-10.88s-3,10-10.48,16.74a27.86,27.86,0,0,0,1.82,10.3s3.38,15.6,12.78,24.81c0,0,3.48,3.87,7.3,5.19a25,25,0,0,1,2.74,7,5.81,5.81,0,0,1-2.69,6l-2,1.22s-5.73,2.1-8.79,4.39c0,0-.3-5.92-2.07-8.91a.48.48,0,0,0-.88.23,14.76,14.76,0,0,0,.24,4.38A48.18,48.18,0,0,1,495.77,291l-.68-12.41s-1.53-2.68-1.53,1.72c0,0,2.49,8.22-1.34,10.71,0,0-4,1.9-3.06,4.39,0,0-2.67-2.1,3.26-6.5a8.33,8.33,0,0,0,.76-5.35s-.38,4.2-3.05,4.4c0,0,2.67-3.44,1.71-6.69,0,0-4.78-7.65.77-14.91,0,0-1.9-2.5-3.09-9.72a21.78,21.78,0,0,1-6.52,3.2h0c.17-.33,4.05-7.56,1.23-14,0,0-3.57-15.19,6.26-17.5,0,0-.88-11.92,12.48-9.77a8.21,8.21,0,0,1,2,.4h0s7.24-7.6,15.09-1.73h0a4.74,4.74,0,0,1,1.3-.58c3.7-1.25,14.87-2.47,28.71,20.15a77.09,77.09,0,0,1,9.61,25.1c1.82,9.1,9.69,22,18.06,30.89A15.47,15.47,0,0,1,567.7,294.75Z" fill="#7a383a"/></clipPath><clipPath id="ede617b3-3e43-48e5-9729-5184586b6f54"><path id="b9db4076-8e0a-4d71-8217-90f8b1ee272d" data-name="SVGID" d="M478.91,363.5c-5.35.12-12.87,7.38-12.87,7.38a40.62,40.62,0,0,1-8.47.63C447,371.15,442,366.29,442,366.29a30.84,30.84,0,0,0,10.7-7.6,40.46,40.46,0,0,0,5.1-6.68,47.5,47.5,0,0,0,5.09-11.07l4.94,6.23,4.36,5.5Z" fill="#7a383a"/></clipPath></defs><g style="isolation:isolate"><g id="a109e581-9ac0-410d-878a-66bca185b400" data-name="Layer 1"><ellipse cx="440.97" cy="622.35" rx="141.68" ry="38.14" fill="#7db500"/><path d="M613.91,110.33S574.22,19.66,483.44,22.46,388,104.15,369.76,112.05s-82,1.12-91.77,63.44c-68.52,5-85.3,64-71.32,96-96.49,33.41-76.6,227.79,142.1,273.94,62.07,75.51,145.82,0,145.82,0,42.11,53.14,121.82,15.38,112-37.76,85.31,18.18,145.44-110,79.71-182.26,43.35-51.28,21-109.47-8.39-116C690.53,149.71,639.37,104.52,613.91,110.33Z" fill="#fff2c0"/><path d="M673.61,158.35c-12.83-32.09-42.28-52-59.7-48,0,0-39.69-90.67-130.47-87.87S388,104.15,369.76,112.05s-82,1.12-91.77,63.44c-64.71,4.71-83.27,57.62-73.36,90.46a122.77,122.77,0,0,0,48,34.76c84.07,34.37,120.43-35.8,140.3-35.6s75.35,32.33,109.64-20.62c64.63,23.32,104-23.78,104.22-58.71C632.89,188,656.28,177.48,673.61,158.35Z" fill="#fff5d0"/><g clip-path="url(#e410c462-c2fd-4e5f-b94e-dd317877b1a1)"><path d="M782.49,451.93s-68.26-48.74-169.38,0c-78.49,37.84-115.2,49.73-171.84,60.92-43.13,8.52-141.71,16.22-254.51-37.06,9.79,71.32,55.94,157.32,55.94,157.32H782.49Z" fill="#7db500"/><path d="M666.71,439.31s-19.26-71.36-83.37-45.8c33.06-5.25,58,3.52,65.54,33.18-15.2-20.24-32.75-25.28-37.92-23.19,21.48,7.15,32,25.93,32.66,27.43-34.44-21.95-61.5-23-72.4-18.41,21.72-.25,56.31,8.58,63.76,21.35-16.92-9.22-33.75-4.8-40.67,2.2,12.8-4.36,30.66,4.44,30.66,4.44-29.59,2.52-36.51,17.18-36.51,17.18S602.27,445,624.75,447,666.71,439.31,666.71,439.31Z" fill="#7db500"/><path d="M656,440.14s-16-60.57,37.86-64.44c-24.43,9.75-37.74,25.71-30.9,48.75,2.12-19.78,11.94-30.23,16.27-30.9-11.62,13.46-11.17,30.37-11,31.65,14.42-28.67,32.26-40.27,41.46-41.54-14.76,8.56-34.55,28.43-34.45,40,7.72-13,20.85-16.81,28.34-14.87-10.39,2.2-18.91,15.32-18.91,15.32,21-10.19,31.55-3.08,31.55-3.08s-14.44-3-28.8,7.37S656,440.14,656,440.14Z" fill="#7db500"/><path d="M653.77,424.51s-16.13-33.32,3.14-63.74c-5.69,21.08-2.53,50.15,0,59.32C656,427.67,653.77,424.51,653.77,424.51Z" fill="#7db500"/><path d="M272.17,508.4s10.24-37.38-25.54-42.85c16.35,6.4,25.3,17,20.83,32.4-1.5-13.18-8.1-20.12-11-20.55A32.06,32.06,0,0,1,264,498.48c-9.74-19.07-21.69-26.74-27.84-27.55,9.88,5.65,23.18,18.83,23.16,26.58-5.21-8.66-14-11.13-19-9.8,7,1.42,12.69,10.14,12.69,10.14-14-6.71-21.07-1.92-21.07-1.92a26.07,26.07,0,0,1,19.25,4.79A45.78,45.78,0,0,0,272.17,508.4Z" fill="#7db500"/><path d="M267.11,505.93s8.82-31.65,34.23-19.08c-13.64-2.08-23.89,1.6-26.92,13.84,6.21-8.38,13.43-10.5,15.56-9.65a25.12,25.12,0,0,0-13.38,11.38c14.13-9.13,25.28-9.64,29.78-7.77-8.95,0-23.18,3.68-26.21,9,6.94-3.84,13.89-2.07,16.76.8-5.29-1.76-12.62,1.91-12.62,1.91,12.19,1,15.08,7,15.08,7a20.48,20.48,0,0,0-15-4.32A36,36,0,0,1,267.11,505.93Z" fill="#7db500"/><path d="M270.25,498.27s1.55-19.35,18.34-28c-8.17,8-14.46,22-15.75,26.82C270.4,500.28,270.25,498.27,270.25,498.27Z" fill="#7db500"/><path d="M515,499.33s-11.31-37.07-44.47-22.58c17.23-3.32,30.46.86,34.91,16.27-8.31-10.35-17.59-12.69-20.27-11.51a32.12,32.12,0,0,1,17.59,13.82c-18.43-10.91-32.63-11-38.26-8.42,11.38-.49,29.66,3.54,33.78,10.11-9-4.54-17.77-1.94-21.28,1.85,6.63-2.51,16.15,1.8,16.15,1.8-15.47,1.83-18.85,9.62-18.85,9.62a26.1,26.1,0,0,1,18.84-6.22A45.85,45.85,0,0,0,515,499.33Z" fill="#7db500"/><path d="M509.42,500s-9.45-31.47,18.74-34.42c-12.64,5.53-19.34,14.12-15.36,26.08.77-10.4,5.74-16.05,8-16.47a25.13,25.13,0,0,0-5.23,16.77c7.07-15.27,16.22-21.65,21-22.48C529,474.17,519,484.92,519.21,491c3.83-7,10.65-9.17,14.6-8.27-5.41,1.32-9.65,8.35-9.65,8.35,10.83-5.7,16.49-2.16,16.49-2.16a20.51,20.51,0,0,0-15,4.36A36.1,36.1,0,0,1,509.42,500Z" fill="#7db500"/><path d="M508,491.79s-9-17.19.56-33.46c-2.62,11.15-.47,26.33,1,31.09C509.18,493.41,508,491.79,508,491.79Z" fill="#7db500"/><path d="M386.68,521s-1.35-67.06-63.41-58.58c30.27,2.61,50.32,15.8,50.47,43.56-9-21.15-23.32-29.43-28.32-28.71,17.35,11,22.5,29.83,22.75,31.3-25.52-26.87-49.12-33.73-59.73-32.06,19.19,4.53,47.71,19.88,51.48,32.75-12.88-11.82-28.67-11.6-36.3-6.95,12.23-1.05,26,10.61,26,10.61C323,508.62,313.74,520,313.74,520s14.95-8.18,34.31-1.48S386.68,521,386.68,521Z" fill="#7db500"/><path d="M377.07,519.34s-.88-56.86,47.45-48.47c-23.65,3.24-38.86,14.38-37.88,36.18,6.19-17,17.13-24,21.09-23.66-13.18,9.31-16.48,24.31-16.63,25.47,19-22.1,37.23-28.41,45.61-27.52-14.87,4.32-36.65,17.48-39.1,27.74,9.64-9.79,22-10.24,28.21-6.89-9.64-.34-20,9.35-20,9.35,20.72-4.38,28.47,4.19,28.47,4.19a35.51,35.51,0,0,0-27,.19C392.36,521.94,377.07,519.34,377.07,519.34Z" fill="#7db500"/><path d="M378.52,505.08s-6.91-32.88,16.72-55.45c-9.63,17.33-13.2,43.62-13,52.25C379.76,508.35,378.52,505.08,378.52,505.08Z" fill="#7db500"/><path d="M564.28,576.62s-1.95-97.07-91.78-84.79c43.81,3.77,72.84,22.87,73,63.06-13-30.63-33.74-42.61-41-41.57,25.11,15.91,32.57,43.19,32.94,45.31-36.95-38.89-71.11-48.82-86.46-46.41,27.77,6.57,69.07,28.78,74.52,47.41-18.65-17.1-41.5-16.8-52.55-10.06,17.7-1.52,37.69,15.36,37.69,15.36-38.53-6.15-52,10.33-52,10.33s21.64-11.84,49.66-2.14S564.28,576.62,564.28,576.62Z" fill="#709b00"/><path d="M550.37,574.3s-1.27-82.3,68.69-70.17c-34.24,4.69-56.26,20.82-54.84,52.37,9-24.54,24.8-34.77,30.53-34.24-19.08,13.48-23.86,35.18-24.07,36.86,27.47-32,53.89-41.12,66-39.83-21.53,6.25-53.06,25.31-56.6,40.15,14-14.16,31.9-14.83,40.84-10C607,549,592,563,592,563c30-6.34,41.21,6.07,41.21,6.07s-17.45-8.45-39.06.27S550.37,574.3,550.37,574.3Z" fill="#709b00"/><path d="M552.47,553.66s-10-47.6,24.2-80.27c-13.93,25.08-19.11,63.14-18.79,75.62C554.27,558.38,552.47,553.66,552.47,553.66Z" fill="#709b00"/><path d="M427.64,581.55s-1.41-70.06-66.23-61.2c31.62,2.73,52.56,16.5,52.71,45.51-9.36-22.1-24.35-30.75-29.58-30,18.12,11.48,23.5,31.17,23.77,32.7-26.66-28.07-51.32-35.23-62.39-33.49,20,4.74,49.84,20.77,53.77,34.21-13.46-12.34-29.95-12.12-37.92-7.26,12.77-1.09,27.2,11.08,27.2,11.08-27.8-4.43-37.52,7.46-37.52,7.46S367.07,572,387.29,579,427.64,581.55,427.64,581.55Z" fill="#709b00"/><path d="M417.61,579.86s-.93-59.39,49.56-50.63c-24.7,3.39-40.6,15-39.57,37.79,6.47-17.71,17.9-25.08,22-24.71-13.77,9.73-17.22,25.39-17.37,26.6,19.82-23.08,38.89-29.67,47.65-28.74-15.54,4.51-38.3,18.26-40.85,29,10.07-10.22,23-10.69,29.47-7.19-10.07-.36-20.91,9.77-20.91,9.77,21.64-4.58,29.74,4.37,29.74,4.37s-12.59-6.09-28.19.2S417.61,579.86,417.61,579.86Z" fill="#709b00"/><path d="M419.12,565s-7.22-34.34,17.46-57.92c-10.05,18.1-13.79,45.56-13.56,54.57C420.42,568.38,419.12,565,419.12,565Z" fill="#709b00"/><path d="M658.86,519.72s-1.09-54.28-51.32-47.41c24.5,2.11,40.73,12.78,40.84,35.26-7.24-17.13-18.87-23.83-22.92-23.25,14,8.9,18.22,24.15,18.42,25.34-20.66-21.75-39.76-27.3-48.34-26,15.53,3.67,38.62,16.09,41.67,26.51-10.43-9.56-23.21-9.39-29.39-5.63,9.9-.84,21.07,8.59,21.07,8.59-21.54-3.44-29.07,5.78-29.07,5.78a36.56,36.56,0,0,1,27.77-1.2C643.26,523.18,658.86,519.72,658.86,519.72Z" fill="#709b00"/><path d="M651.08,518.42s-.71-46,38.41-39.23c-19.14,2.62-31.46,11.64-30.66,29.28,5-13.73,13.87-19.44,17.07-19.15-10.67,7.54-13.34,19.67-13.46,20.61,15.36-17.88,30.13-23,36.92-22.27-12,3.49-29.67,14.15-31.66,22.45,7.81-7.92,17.85-8.29,22.84-5.58-7.8-.27-16.2,7.57-16.2,7.57,16.77-3.54,23,3.39,23,3.39a28.69,28.69,0,0,0-21.84.16C663.46,520.52,651.08,518.42,651.08,518.42Z" fill="#709b00"/><path d="M652.26,506.88s-5.6-26.61,13.53-44.88c-7.79,14-10.69,35.3-10.51,42.28C653.26,509.52,652.26,506.88,652.26,506.88Z" fill="#709b00"/></g><g clip-path="url(#f538c3d7-6515-4aa1-a601-2a52ab5a6030)"><path d="M636.37,48.81s-64.63,36-99,22.12-49.34-8.22-57.65.63-23.47,25.28-41.79,25.28-91,38.34-139.46,6.8l-3.58,4.57s16.33,14.22,59.62,13.59,69.2-13.59,74.57-13.59,22.43,3.8,37.6-3.79,22.12-20.85,34.13-20.85,21.48,6.32,27.49,4.74,1.89,4.1,16.43,4.1,43.6,7.08,75.62-7.1S636.37,48.81,636.37,48.81Z" fill="#a63f00"/><path d="M548.11,77.46S531.05,52.39,523,50.7s-12.22-13.06-23.17-11.16-15,11.16-28.23,8.43-65.93-3.37-80.89,8.63-58.14,6.74-58.14,6.74l-3.79,1.9s6.53,4,30.12,2.53S385.7,62.5,396,58.39a84,84,0,0,1,32.65-6c12.43,0,20.43-.21,32.65,1.47s20.85,4.85,27.81,1.69,15.8-5.48,20.85-2.95,20,19,20,19Z" fill="#a63f00"/><path d="M457.84,101.58S447.5,122,436.67,121.82s-9.92,8.76-15.58,12.94-16.86,7.58-32,7.37-36.66.65-39,0L345.25,144s30.54,2.95,43.18,1.06c-6.32,12.43-28.64,16.22-28.64,16.22l.84,3.37a78.18,78.18,0,0,0,34.54-18.54c17.49,3,32.23-5.27,35.61-10.32s7.58-4.85,15.58-8S466,112.22,469.54,98.94,457.84,101.58,457.84,101.58Z" fill="#a63f00"/><path d="M430.56,100s-16.94-10.11-22.9-11.8-29.13-2.89-29.13-2.89-14.74-17.12-36-14.8c.21,2.31,16.43,1,32.23,14.8a323.92,323.92,0,0,1-44.66-.17l-2.31,1.59S345.36,89.1,361,88.46c-10.59,7.75-23.7,7.43-23.7,7.43L336,98.1s18.49,1.42,31.29-8.85c12.32,1.43,20.22.48,28,2.53s22.12,9.32,23.86,11.38S430.56,100,430.56,100Z" fill="#a63f00"/><path d="M659,91s-23.15,17.81-31.57,21.22-42,8.56-42,8.56-18.91,28.16-50.23,27.68c0-3.56,23.78-3.82,44.71-27.14A454.68,454.68,0,0,0,515,128l-3.61-2.08s25.25-6.12,48.11-7.39c-16.56-10.27-35.61-7.91-35.61-7.91l-2.17-3.19s26.7-4.8,46.86,9c17.73-3.92,29.37-3.61,40.33-7.84s30.81-17.34,33-20.72S659,91,659,91Z" fill="#a63f00"/><path d="M332.87,118.17s-20.8,19.53-48.18,11a19,19,0,0,1-2.06,2.37s33,9.7,55-11.31A9.28,9.28,0,0,0,332.87,118.17Z" fill="#a63f00"/><path d="M441.1,50.28s-15.59,14.54-48.87,16L392,67.77s39.39,0,54.34-17.49C444.47,48.81,441.1,50.28,441.1,50.28Z" fill="#a63f00"/><path d="M435.11,100.37s4.21-17.74-18.58-27.67C416.55,84.59,421.85,98.85,435.11,100.37Z" fill="#7db500"/><path d="M439.74,121.84s-9.66-15.47-32.74-6.24C415.47,123.94,429.34,130.2,439.74,121.84Z" fill="#7db500"/><path d="M405.36,140.69s-4.94-12.8-23.3-9.25C387.14,138.81,396.49,145.39,405.36,140.69Z" fill="#7db500"/><path d="M388.92,87.19s10.95-7.87,3-24.47C386.2,69.38,382.25,79.92,388.92,87.19Z" fill="#7db500"/><path d="M388.67,87.27s-2.86-13.19-21.24-12.53C371.25,82.67,379.34,90.49,388.67,87.27Z" fill="#7db500"/><path d="M385.8,82.27s3.44-9.55-8.54-16.47C376.53,72.38,378.56,80.59,385.8,82.27Z" fill="#7db500"/><path d="M482.45,48.81s10.95-7.87,3-24.47C479.73,31,475.78,41.53,482.45,48.81Z" fill="#7db500"/><path d="M482.2,48.89S479.34,35.7,461,36.36C464.78,44.29,472.87,52.1,482.2,48.89Z" fill="#7db500"/><path d="M479.33,43.88s3.44-9.55-8.54-16.46C470.06,34,472.09,42.21,479.33,43.88Z" fill="#7db500"/><path d="M447.58,49.53s-12.21-5.75-22.86,9.25C433.34,60.57,444.46,58.89,447.58,49.53Z" fill="#7db500"/><path d="M447.77,49.7s-10.14,8.92-.62,24.66C452.22,67.16,455.12,56.29,447.77,49.7Z" fill="#7db500"/><path d="M444.79,54.65s-10,1.64-10.23,15.47C440.66,67.56,446.85,61.78,444.79,54.65Z" fill="#7db500"/><path d="M520.46,80.59s-12.21-5.75-22.86,9.25C506.22,91.63,517.35,90,520.46,80.59Z" fill="#7db500"/><path d="M520.65,80.76s-10.13,8.92-.61,24.65C525.1,98.22,528,87.35,520.65,80.76Z" fill="#7db500"/><path d="M517.67,85.71s-10,1.63-10.23,15.47C513.54,98.62,519.73,92.84,517.67,85.71Z" fill="#7db500"/><path d="M586.61,72.06s6.95-11.56-6.88-23.68C577.07,56.77,577.61,68,586.61,72.06Z" fill="#7db500"/><path d="M586.41,72.22s-7.83-11-24.46-3.11C568.59,74.88,579.11,78.87,586.41,72.22Z" fill="#7db500"/><path d="M581.8,68.76S581.19,58.63,567.45,57C569.37,63.34,574.49,70.08,581.8,68.76Z" fill="#7db500"/><path d="M548.07,144s-11.39-7.23-23.84,6.31C532.55,153.15,543.8,152.89,548.07,144Z" fill="#7db500"/><path d="M548.23,144.19s-11.17,7.57-3.7,24.38C550.46,162.07,554.7,151.64,548.23,144.19Z" fill="#7db500"/><path d="M544.66,148.72s-10.14.37-12.09,14.06C538.94,161,545.81,156.05,544.66,148.72Z" fill="#7db500"/><path d="M574.08,115.54s9-10.09-2.41-24.54C567.52,98.75,566,109.9,574.08,115.54Z" fill="#7db500"/><path d="M573.86,115.66s-5.69-12.23-23.47-7.55C555.85,115,565.46,120.85,573.86,115.66Z" fill="#7db500"/><path d="M570,111.41s1.26-10.07-12-14.19C558.74,103.8,562.53,111.37,570,111.41Z" fill="#7db500"/><path d="M524.15,123.67s2.1-13.33-15.28-19.35C509.57,113.09,514.29,123.3,524.15,123.67Z" fill="#7db500"/><path d="M524,123.9s-11.39-7.23-23.83,6.31C508.52,133.07,519.77,132.8,524,123.9Z" fill="#7db500"/><path d="M518.45,122.43s-4.37-9.16-17.71-5.49C504.9,122.08,512.18,126.4,518.45,122.43Z" fill="#7db500"/><path d="M329.52,117.21s12.4-11.31.22-30.68C323.59,95.59,320.23,109.18,329.52,117.21Z" fill="#7db500"/><path d="M329.23,117.33s-5.44-15.87-28.05-12.4C307,114.17,318.17,122.66,329.23,117.33Z" fill="#7db500"/><path d="M325,111.57S327.83,99.28,312,92.46C312.08,100.69,315.78,110.55,325,111.57Z" fill="#7db500"/><path d="M305.19,132.2s-13.58-9.87-30.09,6C285.21,142.36,299.19,142.92,305.19,132.2Z" fill="#7db500"/><path d="M305.37,132.46s-14.45,8.53-6.5,30C306.74,154.84,312.82,142.23,305.37,132.46Z" fill="#7db500"/><path d="M300.58,137.81s-12.61-.34-16.11,16.51C292.52,152.62,301.43,147,300.58,137.81Z" fill="#7db500"/><path d="M374.81,159.19s-12.89-3.86-21.17,12.5C362.4,172.18,373.13,168.88,374.81,159.19Z" fill="#7db500"/><path d="M375,159.33s-8.67,10.29,3.05,24.41C382,175.89,383.25,164.74,375,159.33Z" fill="#7db500"/><path d="M377.61,143.53s-1.64-13.36-19.95-14.37C360.73,137.38,368.06,145.88,377.61,143.53Z" fill="#7db500"/><path d="M354.7,143.94s-11-1.06-15,13.41C346.78,156.36,354.88,152,354.7,143.94Z" fill="#7db500"/><path d="M396.49,109s-1.65-13.36-20-14.37C379.6,102.85,386.93,111.35,396.49,109Z" fill="#7db500"/><path d="M425.42,50s-1.64-13.36-20-14.37C408.54,43.82,415.87,52.32,425.42,50Z" fill="#7db500"/><path d="M414.63,64.62s-13.44.64-15.82,18.83C407.24,81,416.26,74.33,414.63,64.62Z" fill="#7db500"/><path d="M355.22,94.9s-13.44.65-15.81,18.83C347.83,111.28,356.85,104.61,355.22,94.9Z" fill="#7db500"/><path d="M512,51.58s-10.87-7.93-24.13,4.75C496,59.7,507.2,60.16,512,51.58Z" fill="#7db500"/><path d="M528.7,54.26S534.13,42,518.92,31.7C517.35,40.33,519.28,51.38,528.7,54.26Z" fill="#7db500"/><path d="M610.57,116.07s-13.34,1.82-14.11,20.14C604.64,133,613,125.6,610.57,116.07Z" fill="#7db500"/><path d="M361.73,65.38S360.09,52,341.77,51C344.84,59.23,352.17,67.73,361.73,65.38Z" fill="#7db500"/><path d="M352.66,120.62s-13.22-2.52-19.78,14.61C341.64,134.82,352,130.44,352.66,120.62Z" fill="#7db500"/><path d="M372.82,164.65s-9.64,3.1-7.8,16.77C370.66,178,375.9,171.38,372.82,164.65Z" fill="#7db500"/></g><path d="M439.69,238.09s1.82-6.13,4.64-4.31c0,0,2.32,2.16,1.49,8.29Z" fill="#f29981"/><path d="M478.91,489.71l-53.09-350h1l55.9,349.39a1.91,1.91,0,0,1-1.59,2.2h0A1.93,1.93,0,0,1,478.91,489.71Z" fill="#753b21"/><polygon points="576.39 485.99 586.34 484 588.18 488.41 570.51 491.02 575.05 485.86 576.39 485.99" fill="#5b2c1a"/><polygon points="603.8 475.6 589.21 478.92 572.19 482.23 576.39 485.99 586.34 484 603.8 475.6" fill="#8c4826"/><polygon points="461.36 643.86 468.08 627.26 463.49 619.61 450.49 628.27 461.36 643.86" fill="#2d283f"/><path d="M425.77,622.67s4.57,12.16,13.14,20.4a18.47,18.47,0,0,0,15.59,5.15c5.91-1,11.36-5,4.66-18.67Z" fill="#2d283f"/><path d="M425.77,622.67s4.57,12.16,13.14,20.4a18.47,18.47,0,0,0,15.59,5.15c5.91-1,11.36-5,4.66-18.67Z" opacity="0.2" style="mix-blend-mode:multiply"/><path d="M467.82,631.59s6.12,16,16.06,16.56c0,0,4.78,1,7.61-5.34l2.33-22.43-5.35-14-8.92,3.57Z" fill="#2d283f"/><path d="M467.82,631.59s6.12,16,16.06,16.56c0,0,4.78,1,7.61-5.34l2.33-22.43-5.35-14-8.92,3.57Z" opacity="0.2" style="mix-blend-mode:multiply"/><path d="M399.72,605.7s-3.36.87-2.45,3.7a4.11,4.11,0,0,0,2.41,2.47l45.14,18.74s15.1,6.58,15.1-4.63l-13.05-8.8-20.74-6.72Z" fill="#f48225" data-secondary="true"/><path d="M431.74,595.45s11.76-8.46,13.92,2.16c0,0,10.92-1,11.76-6.39L486,568.83l19.3-54.09,9.18-20.83-9.75-12.42-34-3.06-13.76,48.35s-14.15,29-14.76,38a10.08,10.08,0,0,1-.61,3l-7.14,18a12,12,0,0,1-1.44,2.63C431.77,590.08,431.62,593.12,431.74,595.45Z" fill="#2d283f"/><path d="M431.74,595.45s11.76-8.46,13.92,2.16c0,0,10.92-1,11.76-6.39L486,568.83l19.3-54.09,9.18-20.83-9.75-12.42-34-3.06-13.76,48.35s-14.15,29-14.76,38a10.08,10.08,0,0,1-.61,3l-7.14,18a12,12,0,0,1-1.44,2.63C431.77,590.08,431.62,593.12,431.74,595.45Z" opacity="0.2" style="mix-blend-mode:multiply"/><path d="M433.14,594.4s-7.1,5.52-14.33,7.49a16.63,16.63,0,0,1-6.81.31c-4.37-.66-13.75-1.51-12.28,3.52a1,1,0,0,0,.45.55A119.43,119.43,0,0,0,414.31,613c2.57,1,5.37,1.39,7.9,2.5,8.19,3.59,31.81,10.82,37.07,10.4L445.7,605.79l0-8.14a5.56,5.56,0,0,0-2.53-4.76C441.25,591.72,438.12,591.33,433.14,594.4Z" fill="#686175" data-primary="true"/><path d="M433.14,594.4s-7.1,5.52-14.33,7.49a16.63,16.63,0,0,1-6.81.31c-4.37-.66-13.75-1.51-12.28,3.52a1,1,0,0,0,.45.55A119.43,119.43,0,0,0,414.31,613c2.57,1,5.37,1.39,7.9,2.5,8.19,3.59,31.81,10.82,37.07,10.4L445.7,605.79l0-8.14a5.56,5.56,0,0,0-2.53-4.76C441.25,591.72,438.12,591.33,433.14,594.4Z" opacity="0.2" style="mix-blend-mode:multiply"/><path d="M426,597.78s-3.94-.4-4.38,2.7a3.62,3.62,0,0,0,1.68,3.47c5.9,3.88,29.12,19.07,41.54,25.66,0,0,16.36,11.39,16.94-5.26,0-1.16-14-14.31-14-14.31Z" fill="#f48225" data-secondary="true"/><path d="M426,597.78s10.51,9.63,19,12.26l36.8,14.31s3.93-4.49,3.64-14.42c0,0-8.67-24.47-28.27-18.78,0,0-3.63,6.81-15.53,6.43a19.15,19.15,0,0,1-5.79-1.14C433,595.45,427.87,594.23,426,597.78Z" fill="#686175" data-primary="true"/><path d="M446.81,500s1.1,6.46,13.91,5.72c0,0,11.62-.38,17-9.35l-9.83-13.89Z" fill="#686175" data-primary="true"/><path d="M446.81,500s1.1,6.46,13.91,5.72c0,0,11.62-.38,17-9.35l-9.83-13.89Z" opacity="0.2" style="mix-blend-mode:multiply"/><path d="M484,505.46s-4.8-5.14-6.27-9.11c0,0,1-8.19,6.63-8a18.26,18.26,0,0,0,4.77-.66S486.64,501.51,484,505.46Z" fill="#686175" data-primary="true"/><path d="M484,505.46s-4.8-5.14-6.27-9.11c0,0,1-8.19,6.63-8a18.26,18.26,0,0,0,4.77-.66S486.64,501.51,484,505.46Z" opacity="0.2" style="mix-blend-mode:multiply"/><path d="M449.63,499.71s-8,16.94-9.87,26.75a4.23,4.23,0,0,1-1,2c-1.23,1.38-3.45,4.17-3.33,6.11a3.23,3.23,0,0,1-.45,1.74,11.36,11.36,0,0,0-1.38,3.56,3.66,3.66,0,0,1-.66,1.85c-.95,1.23-2.26,3.63-.66,6a7.16,7.16,0,0,0,5.1,3.83s2.85.55,4.18-.69a4.91,4.91,0,0,1,3.23-1.21,9.31,9.31,0,0,1,1.89.11s3.37,1,5.54-3.81a12.39,12.39,0,0,0,1-4.74l.29-11.37a5.79,5.79,0,0,1,1.58-3.84c3.26-3.47,10.75-11.71,12.23-15.86a107.32,107.32,0,0,0,6.25-13l-16.19-6.75Z" fill="#f9ad9b"/><path d="M444.16,546.2a4.12,4.12,0,0,0-.76-2,2.07,2.07,0,0,0-1.71-.79,1.88,1.88,0,0,0-1.62.72,3.14,3.14,0,0,0-.54,1.78l-.93-.06a10.17,10.17,0,0,0,0-1.1,2.76,2.76,0,0,0-.21-1,1.17,1.17,0,0,0-.57-.59,1.43,1.43,0,0,0-.84-.1l.12-.05a2.22,2.22,0,0,0-.95,1.45,6.83,6.83,0,0,0-.17,2l-.77.07a4.18,4.18,0,0,0-.86-2.51,1.62,1.62,0,0,0-1.17-.54,3.9,3.9,0,0,0-1.41.23c.22-.11.44-.23.67-.33a3.05,3.05,0,0,1,.74-.16,2,2,0,0,1,1.5.45,3.45,3.45,0,0,1,.91,1.3,6,6,0,0,1,.39,1.52l-.77.07a6.76,6.76,0,0,1,.05-2.33,3.81,3.81,0,0,1,.43-1.16,2.65,2.65,0,0,1,.94-.94l.06,0h.06a2.38,2.38,0,0,1,1.49.15,2,2,0,0,1,1,1.08,3.44,3.44,0,0,1,.29,1.34,7.55,7.55,0,0,1-.07,1.27l-.94-.06a3.93,3.93,0,0,1,.84-2.3,2.57,2.57,0,0,1,1.06-.72,2.87,2.87,0,0,1,1.22-.12,2.43,2.43,0,0,1,2,1.22A3.76,3.76,0,0,1,444.16,546.2Z" fill="#f29981"/><path d="M446.29,543.79a3.79,3.79,0,0,0,1.72,1,8.35,8.35,0,0,0,1,.16,8.74,8.74,0,0,1,1.14.15,2.5,2.5,0,0,1-1.06.63,2.63,2.63,0,0,1-1.28,0,2.17,2.17,0,0,1-1.13-.72A1.56,1.56,0,0,1,446.29,543.79Z" fill="#f29981"/><path id="b5b64bd7-23c5-4e67-87fa-594dc5dad164" data-name="SVGID" d="M489.1,487.73S482.48,511.3,470.75,522a15.1,15.1,0,0,1-10.32,4.84s-13,.76-15.67,4.46c0,0-4.84,2.55-5.73,5.73,0,0-2.17,3.57,2.42,2.8,0,0,.38,2.55,3.05,1.28a2.93,2.93,0,0,0,4.34-.13s.12,2.8,4,2l8.63.33a12.63,12.63,0,0,1,7.12,2.4,13.07,13.07,0,0,0,6.57,2.48,7.14,7.14,0,0,0,7.39-4.39,13.24,13.24,0,0,0,.54-6.48,9.43,9.43,0,0,1,2.25-7.46c.16-.17.32-.34.5-.51,0,0,12.1-10.45,13.63-13.89a10.08,10.08,0,0,1,3.06-9.43s1.2-.55,3.22-9c0,0-1.73-8.64-3.3-9.61a50.52,50.52,0,0,0-8-1,9.24,9.24,0,0,0-3.56.54C490.3,487.28,489.65,487.51,489.1,487.73Z" fill="#f9ad9b"/><g clip-path="url(#f6d5ddbf-7b2f-4b5d-ac4d-23a3d16e64c0)"><path d="M448.84,541s1.16,2.09,4.32,1.26c0,0,7.56-3.16,11.83,1.52,0,0-.14,6.6-.55,6.6s-16.64-6.19-16.64-6.19Z" fill="#f29981"/><path d="M490.43,525.14c-13.49,3.87-11,11.27-9.54,13.9a5.5,5.5,0,0,1,.68,3.1c-.7,7.32-13,3.62-13,3.62l3.85,7.24s7.21-1.59,8.08-1.87,9.39-15.31,9.39-15.31Z" fill="#f29981"/><path d="M441.45,539.84s-.09-10.63,16.18-10.63c0,0,9.86.68,13.12-7.2l-18.85-5.29-14.83,6-2.61,14.57S433.34,543.58,441.45,539.84Z" fill="#f29981"/></g><path d="M480.43,428.41l4.26.24.1-3.68S481.11,426.93,480.43,428.41Z" fill="#f48225" data-secondary="true"/><path d="M480.43,428.41l4.26.24.1-3.68S481.11,426.93,480.43,428.41Z" opacity="0.2" style="mix-blend-mode:multiply"/><path d="M611.6,439.2a18.51,18.51,0,0,1-12.67,15L590.08,438Z" fill="#686175" data-primary="true"/><path d="M611.6,439.2a18.51,18.51,0,0,1-12.67,15L590.08,438Z" opacity="0.2" style="mix-blend-mode:multiply"/><path d="M599.46,456.15c.95,7.82.61,17.09-4.89,22,0,0-17.76,5.7-23.12,12.53-.81,1-1.61,2.06-2.51,3-4,4.19-13.91,14.6-19.81,19.56a11.88,11.88,0,0,0-3.92,6.36,53.73,53.73,0,0,1-8.7,19.43s-4.74,17.77-7.82,24.88c0,0-7.1,26.78-27,59.48a99.06,99.06,0,0,1-10.19,19.43s-.47-7.59-2.84-12.8c0,0-1.79-1.94-1.34-6.18a28.93,28.93,0,0,0-2-14.62,21.64,21.64,0,0,0-2.12-3.84s-11.37-17.54-26.06-14.22c0,0,4-2.61,5.21-4.5,0,0,1.42-5.69,7.11-6.87l14.93-23,3.66-6.76A45.65,45.65,0,0,0,493,535.85c1-5.81,2.71-13.85,5.22-18.47a8.07,8.07,0,0,0,1-3.86,9.49,9.49,0,0,1,3.25-7.44c.62-.23,3.22-9,3.22-9s13.74-22.41,24.29-33.26c0,0,6.68-5.38,7.43-8.35,0,0,14.26-7.85,12.38-15.16,0,0,3.62-1.58,4.16-4.74a48.21,48.21,0,0,1,20.48-3.52C587.45,432.91,597.87,443.21,599.46,456.15Z" fill="#2d283f"/><path d="M601,294.37s1,1.86-1.5,7.66l-2.8-3.78Z" fill="#686175" data-primary="true"/><path d="M601,294.37s1,1.86-1.5,7.66l-2.8-3.78Z" opacity="0.2" style="mix-blend-mode:multiply"/><path d="M553.07,305.64c-1.8,2.74-3.85,7.71-5.39,11.83a54.36,54.36,0,0,0-2.69,9.44,37.52,37.52,0,0,1-3.39,9.6,9.47,9.47,0,0,0-3.46,5.75,10.32,10.32,0,0,1-2.24,4.57c-.46.54-.91,1-1.34,1.44a9.22,9.22,0,0,1-8.92,2.29c-12.73-3.5-17.58-17.2-17.58-17.2-2-5.39-1.36-9.2-.78-13a8,8,0,0,1,1.57-3.79c1.94-2.46,3.32-7.49,3.32-7.49h0a8.26,8.26,0,0,0,3.38-10,26.17,26.17,0,0,0-2.24-4.32s6.43,3.89,13.67,1.16c0,0,4.3-.43,7.61-7.82l4.33-.89,9.31,1.78Z" fill="#f9ad9b"/><path d="M513.82,295.07s6.26,7.65,14.87,4.18a13.68,13.68,0,0,0,4.87-3.52c2-2.21,6.68-5.85,11.34.67,0,0,6.19,9.91,2.27,18,0,0-8,13.47-5.44,22l12.66-22.41,5.16-12.17-2.69-12.38-8-4.33-13.41-1Z" fill="#f29981"/><path id="a919c4c4-2374-45fe-986d-dde12cc4127e" data-name="SVGID" d="M506,234.25s-20.36,9.38-12.69,30.86c0,0,5.41,18,13.34,25.17,0,0,9.58,10,20.32,5.6,0,0,14.82-4.84,12.27-40.66,0,0-10.61-7.29-14.77-15.71a8.18,8.18,0,0,0-3.41-3.55C517.7,234.11,511.56,231.65,506,234.25Z" fill="#f9ad9b"/><g clip-path="url(#a237826f-1ef0-45d3-ad21-55a793f037cf)"><path d="M531.06,293.43l17.16-18.49-8.36-25.77-10.93-12.71-13.77-6.75-23.29.53-.18,24.62s7.95-5.78,10.71-14c0,0-.66,6.48-2.89,8.53A19.64,19.64,0,0,0,514,245a20.46,20.46,0,0,0,5.45-7.07l.4.33c1.68,1.49,2.82,4.47,3.85,6.47C527.36,251.84,535.2,268.35,531.06,293.43Z" fill="#f29981"/></g><path id="edbf417b-7674-4bee-9c90-3d23af1cfb3d" data-name="SVGID" d="M497.51,315.58s1.95-.78,3.86-1.41A15,15,0,0,0,505,312.4a29.66,29.66,0,0,1,7.18-3.32,31.41,31.41,0,0,1-2.93,7,12.44,12.44,0,0,0-1.83,4.34,22.56,22.56,0,0,0,0,10.74s4.46,16.82,19.75,19.62c0,0,8,1.53,11.09-9.3a8.28,8.28,0,0,1,1.66-3.39,21.67,21.67,0,0,0,3.93-7.17,60,60,0,0,0,1.54-6.39,73.62,73.62,0,0,1,7.78-19l7-11.73a14.61,14.61,0,0,0,7.45,1s6.12.1,10.13-1.91a10.33,10.33,0,0,1,11.75-1.24s7.08,4.58,11.38,2.77a10.57,10.57,0,0,1-4.3,3.88A30.84,30.84,0,0,0,584,310.56s8.58,26.05,7.69,33.82c0,0-2.78,43.52,19.92,94.82,0,0-8,1.18-57.64-3.59l-31.6-23.44-54-58.11Z" fill="#686175" data-primary="true"/><g clip-path="url(#f41c34d4-35b5-4671-b1f5-981817830f1a)"><path d="M577.81,292.84s-15,33.67-8.76,56.22c0,0,8.64,33.92-31.66,29.47,0,0-32-5.8-33.72-28.34l-12.4,51.29,47.91,28.18a96.63,96.63,0,0,0,43.64-14.08,94.82,94.82,0,0,0,20.63-17.33l6.75-106.68-15.78-15.78Z" opacity="0.2" style="mix-blend-mode:multiply"/></g><path d="M551,356.87s2.58,1.62.86,9.46c0,0-6.89-3-7.55-4.11l.47-1.34A5.74,5.74,0,0,1,551,356.87Z" fill="#f48225" data-secondary="true"/><path d="M551,356.87s2.58,1.62.86,9.46c0,0-6.89-3-7.55-4.11l.47-1.34A5.74,5.74,0,0,1,551,356.87Z" opacity="0.2" style="mix-blend-mode:multiply"/><path d="M534.62,376.55s12.52,6.5,21.89,8.8c0,0,10.88,2.59,20.67.61a17.5,17.5,0,0,0,4.09-1.4l9.07-4.37a5.2,5.2,0,0,1,5.06-.2,16.24,16.24,0,0,0,9.46-.95s6.41.29,7.08-1.34c0,0,1.62-2.39-6.22-1.81,0,0-1-1.44,1.72-1.63,0,0,9.27.1,9.47-3.06,0,0,.57-2-4.4-1.05l-5.73.86v-.76s12.9-4.49,10-7.17c0,0-.76-1.34-3.73.48l-7.55,3.25s-2.19.67-1-1.44c0,0,9.27-7.74,7.36-10.22,0,0-1.24-1.53-3.06.86L601,362.79s-7.45,3.73-5.92-1.91c0,0,1.24-7.26-1-7.64,0,0-3.15-1.06-2.48,5.73a7,7,0,0,1-1,3.44s-2.2,4.59-1.53,5.83a28.88,28.88,0,0,1-8.41.67s-6.66-.49-10.21.44a13.72,13.72,0,0,1-5.87.36c-3.79-.67-9.44-1.84-12.87-3.38a36.91,36.91,0,0,1-7.55-4.11s-1.53,3.15-4.78,3.06c0,0,.76,3.25-1.72,3.63a5.84,5.84,0,0,1-3.63,5.54S535.48,375,534.62,376.55Z" fill="#f9ad9b"/><path d="M446.26,392.09a45.77,45.77,0,0,0,9.54,1.25c4.71.16,10.59.22,13-.32a5.76,5.76,0,0,0,2.87,0s-.18,3.15,3.56,3.38c0,0,.58,10.41,2.37,15.49,0,0-24.8-4.31-37.58-8.86a4.85,4.85,0,0,0-3.81.2,30,30,0,0,1-11.64,3.15,6.14,6.14,0,0,0-2.13.44c-2.45,1-8.67,3.45-9.33,1.36,0,0-1-1.1,1.78-2.06l5.25-1.64a.75.75,0,0,0,.51-.85h0a.72.72,0,0,0-.8-.6c-3.13.3-15.92,1.35-12.66-2.28,0,0-2.8-.37-2.8-2.09,0,0-.39-1.24,2.39-1.34,0,0-2.11-1.81.38-3.06l15.67-1.62s-5.24-2-5-4.48a1.09,1.09,0,0,1,1.43-.88,15.31,15.31,0,0,0,6.51.84s5.22.08,8.14,2a8,8,0,0,0,4.43,1.18A31.2,31.2,0,0,1,446.26,392.09Z" fill="#f9ad9b"/><path id="a2f7baa4-40c5-4455-bc44-c6057ab55de9" data-name="SVGID" d="M482.52,434.43s-30,40.38-35.71,65.55a.62.62,0,0,0,1,.63c2.06-1.54,6.63-3.75,14.88-2.3,0,0,7.84,1.14,11.66-1.72,0,0,.6-.71,3.38-.24,0,0,1.24-7.27,6.65-7.58a46.82,46.82,0,0,0,5.54-1.3,13.89,13.89,0,0,1,8.15-.15,6.38,6.38,0,0,1,1.67.87,11.17,11.17,0,0,1,2.93,3.08,28,28,0,0,1,3.06,5.85l6-9.43,6.8-9.75s5.52-7.21,11.45-14.08c0,0,5.74-4.76,7.13-7.45a4.32,4.32,0,0,1,1.58-1.65c3-1.82,10.32-6.73,11.2-11.94a5.76,5.76,0,0,1,2-3.69c2.13-1.66,4.32-5.07-1.64-10.61l-23.53-.4-34.5.62Z" fill="#686175" data-primary="true"/><g clip-path="url(#a8b0fafc-654c-4eac-943e-06a759b5a595)"><path d="M503.45,492.23c3.26-1.72,4.61-10.16,4.61-10.16.79-9.2,17.84-26.92,23.72-32.79,1.05-1,2.18-2,3.32-2.89,7.71-6.27,1-16.31,1-16.31l1.92-4.6,21.1-2.88.19,10.74v20.34l-35.68,38-16.11,13.23L501,494.15Z" opacity="0.2" style="mix-blend-mode:multiply"/></g><path d="M431.89,246.58c1-.57.57-3.44.57-3.44-2.48-3.44,1.91-5.54,1.91-5.54,5.93-1.53,12.62,5.54,12.62,5.54,2.87,2.87-.77,4.59-.77,4.59,5.36,3.06,2.42,5.31,2.42,5.31,6.94,7.92-2,25.74-4.05,29.63a4.28,4.28,0,0,0-.48,1.68l-3.83,47,3.06-.28,9.77,7.4-3.06,12.42-14.53,3.44c-18.54,3.25-17.58-5.92-17.58-5.92-1.94-16.17,8.43-44.65,11.67-53,.42-1.11.93-2.17,1.44-3.23,1.19-2.47,2.55-8.34,3.24-11.5a21.85,21.85,0,0,1,.94-2.94c.8-2.21.24-6.9-.09-9.12a2.85,2.85,0,0,0-1.06-1.8,5.79,5.79,0,0,1-2-3.84,5.5,5.5,0,0,0-1-2.63C429.53,258.16,427,253,431.89,246.58Z" fill="#f9ad9b"/><path d="M445.81,246.31a34.23,34.23,0,0,1-3.79,0c-1.26-.06-2.51-.16-3.76-.3l.35-.09c-.93.67-1.86,1.33-2.83,1.94a32.73,32.73,0,0,1-3,1.73,32.89,32.89,0,0,1,2.54-2.34c.87-.74,1.78-1.44,2.69-2.13l.15-.12.2,0c1.25.13,2.49.29,3.73.49A34.58,34.58,0,0,1,445.81,246.31Z" fill="#f29981"/><path d="M447.38,253.27a38.85,38.85,0,0,1-5.8.22l.21,0c-1.26.55-2.54,1.06-3.84,1.52a33.62,33.62,0,0,1-4,1.19,32.18,32.18,0,0,1,3.65-2c1.24-.58,2.5-1.13,3.79-1.63l.11,0h.09A40.16,40.16,0,0,1,447.38,253.27Z" fill="#f29981"/><path d="M450.41,260.37a29.88,29.88,0,0,1-4.13-.08h.11c-1.41.27-2.84.47-4.27.61a29.71,29.71,0,0,1-4.33.14,29.41,29.41,0,0,1,4.21-1c1.41-.26,2.84-.46,4.27-.58h.12A30.09,30.09,0,0,1,450.41,260.37Z" fill="#f29981"/><path id="ede7cd15-9bd1-4861-8d2c-119045c06ede" data-name="SVGID" d="M567.7,294.75a.51.51,0,0,1,0,.13,14.62,14.62,0,0,1-6.15-.35,6.79,6.79,0,0,1-2.26-1.18L537,281.88a133.93,133.93,0,0,0,2.26-20.13,53.18,53.18,0,0,0-.21-6.4s-8.5-6.1-13.23-13.12a25.17,25.17,0,0,1-1.54-2.59,7.11,7.11,0,0,0-3.41-3.56s-.26-.18-.74-.45a23.33,23.33,0,0,1-6.08,7.29,30,30,0,0,1-13.6,6c7.86-6.46,2-10.88,2-10.88s-3,10-10.48,16.74a27.86,27.86,0,0,0,1.82,10.3s3.38,15.6,12.78,24.81c0,0,3.48,3.87,7.3,5.19a25,25,0,0,1,2.74,7,5.81,5.81,0,0,1-2.69,6l-2,1.22s-5.73,2.1-8.79,4.39c0,0-.3-5.92-2.07-8.91a.48.48,0,0,0-.88.23,14.76,14.76,0,0,0,.24,4.38A48.18,48.18,0,0,1,495.77,291l-.68-12.41s-1.53-2.68-1.53,1.72c0,0,2.49,8.22-1.34,10.71,0,0-4,1.9-3.06,4.39,0,0-2.67-2.1,3.26-6.5a8.33,8.33,0,0,0,.76-5.35s-.38,4.2-3.05,4.4c0,0,2.67-3.44,1.71-6.69,0,0-4.78-7.65.77-14.91,0,0-1.9-2.5-3.09-9.72a21.78,21.78,0,0,1-6.52,3.2h0c.17-.33,4.05-7.56,1.23-14,0,0-3.57-15.19,6.26-17.5,0,0-.88-11.92,12.48-9.77a8.21,8.21,0,0,1,2,.4h0s7.24-7.6,15.09-1.73h0a4.74,4.74,0,0,1,1.3-.58c3.7-1.25,14.87-2.47,28.71,20.15a77.09,77.09,0,0,1,9.61,25.1c1.82,9.1,9.69,22,18.06,30.89A15.47,15.47,0,0,1,567.7,294.75Z" fill="#7a383a"/><g clip-path="url(#abfbfbf1-4b1c-4904-996f-e45c23af6cbf)"><path d="M561.57,294.53a6.79,6.79,0,0,1-2.26-1.18L537,281.88a133.93,133.93,0,0,0,2.26-20.13l4.29-4.19S553.45,262.53,561.57,294.53Z" fill="#5b282c"/></g><path d="M544.46,229.35a20.8,20.8,0,0,1,5.69,4.46,37.94,37.94,0,0,1,4.34,5.7,50.1,50.1,0,0,1,3.35,6.31,47.73,47.73,0,0,1,2.35,6.75c.3,1.15.55,2.31.77,3.48s.38,2.34.62,3.47a38.23,38.23,0,0,0,2,6.7,23.91,23.91,0,0,0,3.48,6,17.19,17.19,0,0,0,5.32,4.53,17.36,17.36,0,0,1-5.61-4.28,24.41,24.41,0,0,1-3.79-6,36.09,36.09,0,0,1-2.22-6.78c-.27-1.16-.45-2.34-.7-3.47s-.52-2.28-.84-3.4a46,46,0,0,0-2.35-6.58,56.09,56.09,0,0,0-3.32-6.15,37.33,37.33,0,0,0-4.18-5.57,20.12,20.12,0,0,0-5.27-4.34Z" fill="#7a383a"/><ellipse cx="540.02" cy="254.8" rx="4.06" ry="6.5" fill="#f9ad9b"/><path d="M547.8,418.6a7,7,0,0,1-1.46,2.6l-3.21-1.07,4.15-1.91Z" fill="#f48225" data-secondary="true"/><path d="M547.8,418.6a7,7,0,0,1-1.46,2.6l-3.21-1.07,4.15-1.91Z" opacity="0.2" style="mix-blend-mode:multiply"/><path d="M484.32,424.68s1,7.69-1.8,9.75c0,0,10.52-5.65,31.82-4.11,0,0,21.3-1.28,29.26-.26,0,0,5.64,1,6.67-1.54,0,0-1-6.15-5.65-8.46L510,409.54Z" fill="#f9ad9b"/><path d="M478.91,363.49h0s-3.57-.95-12.87,7.39c0,0-11.5,10.17-5.1,12.56,0,0-1.72,3.05,1.63,3.34,0,0-.77,3.63,2.77,3a5.21,5.21,0,0,0,6.31,3.25s-.51,3,3.56,3.38c0,0,.29,11.88,4.56,22.06a12,12,0,0,1,.86,8.39l-.2,1.59A25,25,0,0,1,494,423.16a25.51,25.51,0,0,1,8.25.74c6.08,1.5,25.75,5.05,45.58-5.3a.72.72,0,0,0,.09-1.21,15.73,15.73,0,0,1-4.17-4.72,15.9,15.9,0,0,1-1.86-10c.73-5.58,1.65-18.62-4.48-24.15l-2.77-2a1.53,1.53,0,0,0-.47-2.1s3.24-.95,3.63-5.54c0,0,2.1.19,1.72-3.63a5.62,5.62,0,0,0,5.25-4.4,6,6,0,0,1,5.93-4.11c-1.14-.66-9.48-.19-11.18-1.24,0,0-6.7-3.7-18.23-5.35a4.8,4.8,0,0,0-3.93,1.21,11.74,11.74,0,0,0-2.5,3.44l-16.44,12Z" fill="#f48225" data-secondary="true"/><path d="M504,354.45l10.83.38s-2.09,3.46-3.36,6.15a10.06,10.06,0,0,1-3.46,4.13,7.86,7.86,0,0,1-5.92,1.31h0a7.8,7.8,0,0,1-3.58,6.79c-.45.29-.93.59-1.42.87-3.66,2.11-8,1.29-11.34-1.32a.91.91,0,0,0-.77-.18,4.93,4.93,0,0,1-5.28-2.13,8.64,8.64,0,0,1-1-6.11,2.42,2.42,0,0,0-.33-1.7l-2.15-3.48a20.12,20.12,0,0,0,10.11,3.54l9.61.56s6.66.07,7.54-5.65Z" fill="#f9ad9b"/><path d="M478.47,365.15s2.28-1.79,6,.2a14.87,14.87,0,0,0,6.09,1.84c5.24.31,13.77-1.13,17.75-12.55l-4.28-.19-27.87,5.25a2,2,0,0,0,.84.6l1.4,2.34A3,3,0,0,1,478.47,365.15Z" fill="#f29981"/><path id="b58c181e-7cff-4709-8a76-b2c1b2db97b9" data-name="SVGID" d="M478.91,363.5c-5.35.12-12.87,7.38-12.87,7.38a40.62,40.62,0,0,1-8.47.63C447,371.15,442,366.29,442,366.29a30.84,30.84,0,0,0,10.7-7.6,40.46,40.46,0,0,0,5.1-6.68,47.5,47.5,0,0,0,5.09-11.07l4.94,6.23,4.36,5.5Z" fill="#7a383a"/><g clip-path="url(#ede617b3-3e43-48e5-9729-5184586b6f54)"><path d="M478.91,363.5c-5.35.12-12.87,7.38-12.87,7.38a40.62,40.62,0,0,1-8.47.63l-1.58-.26c5.95-.93,6.49-7.06,6.49-7.06,0-7.82-9.84-5.4-9.84-5.4l0-.1a40.46,40.46,0,0,0,5.1-6.68l8.9-5,1.13.19,4.36,5.5Z" fill="#5b282c"/></g><path d="M466.66,347a26.28,26.28,0,0,0,10,13.14s28.77,13.14,28.54-8.16c0,0-.09-13.61-4.46-20.74l-7.32-13.92L476.86,311Z" fill="#f9ad9b"/><ellipse cx="465.12" cy="351.94" rx="4.01" ry="7.21" transform="translate(-117.83 332.78) rotate(-35.23)" fill="#f9ad9b"/><path d="M500.71,331.23,498.06,327,494,320.4a5.43,5.43,0,0,0-3.14-2.37c-2.78-.81-7.64-1.57-10.33,1.79h0a13.77,13.77,0,0,0-3.41,8.16,22.93,22.93,0,0,1-.47,4.14,63.59,63.59,0,0,1-3,10.26,11.26,11.26,0,0,0-.77-5.27,31.14,31.14,0,0,1-4.36,9.09,23.66,23.66,0,0,1-14.89,10.14s-9.31,2.93-18.05-1.71c-.43-.22-.85-.46-1.27-.72a.39.39,0,0,1,.15-.72c3.21-.33,12.33-1.5,12.55-4.23,0,0-9.26,2.43-16.49-.43a12.43,12.43,0,0,1-6.74-6,1.15,1.15,0,0,1,1-1.68,33.85,33.85,0,0,0,6.32-.59,17.51,17.51,0,0,0,13.24-12.14c2.41-8,9-23.78,23-24.43a6,6,0,0,1,.74-1.16c1.74-2.2,6.81-6.14,17.72,1.76,0,0,1.31.82,3.18,2.26C494.77,311.05,506.06,321.41,500.71,331.23Z" fill="#7a383a"/><path d="M477.7,496.35a14.68,14.68,0,0,1,.56-3.22c.28-1.05.61-2.1,1-3.12a65.22,65.22,0,0,1,2.6-6c.95-2,2-3.88,3.12-5.75s2.07-3.78,3.09-5.71c2-3.84,4-7.72,5.91-11.6.95-1.95,1.91-3.9,2.78-5.88a49.11,49.11,0,0,0,2.4-6.05,68.6,68.6,0,0,1-4.51,12.24c-1.8,4-3.75,7.86-5.73,11.73s-4.4,7.54-6.4,11.35c-1,1.91-2,3.86-2.82,5.85A26.58,26.58,0,0,0,477.7,496.35Z" opacity="0.2" style="mix-blend-mode:multiply"/><path d="M448.28,534.81a9,9,0,0,0-2,2,7.64,7.64,0,0,0-1.08,2.42,8.43,8.43,0,0,0-.26,1.36,1.56,1.56,0,0,1-.51.86,1.41,1.41,0,0,1-.91.32,2.21,2.21,0,0,1-1.55-.5,1.87,1.87,0,0,1-.56-1.41,2.05,2.05,0,0,0,.85,1,1.86,1.86,0,0,0,1.19.12.61.61,0,0,0,.56-.56,8.08,8.08,0,0,1,.22-1.46,6.2,6.2,0,0,1,1.45-2.66A5.17,5.17,0,0,1,448.28,534.81Z" fill="#f29981"/><path d="M452,536.55a6.42,6.42,0,0,0-1.77,1.66,5.44,5.44,0,0,0-.54,1,4.93,4.93,0,0,0-.19.54,3.46,3.46,0,0,1-.26.66,3.08,3.08,0,0,1-2.3,1.63,2.66,2.66,0,0,1-2.47-.93,3.15,3.15,0,0,0,2.3.17,2.71,2.71,0,0,0,1.59-1.33,3,3,0,0,0,.21-.5,5.11,5.11,0,0,1,.27-.64,4.36,4.36,0,0,1,.8-1.11A3.93,3.93,0,0,1,452,536.55Z" fill="#f29981"/><path d="M406.76,397.29a17.12,17.12,0,0,1,8.16-.75,15.16,15.16,0,0,1-4,.88A15.42,15.42,0,0,1,406.76,397.29Z" fill="#f29981"/><path d="M407.17,400.72a17,17,0,0,1,4.24-.92,16.2,16.2,0,0,1,4.34.07,18.93,18.93,0,0,1-8.58.85Z" fill="#f29981"/><path d="M422.81,392.61c1-.07,1.93-.07,2.86-.06l1.4,0a9.84,9.84,0,0,1,1.47.16,5.11,5.11,0,0,1-2.88.8,5.86,5.86,0,0,1-1.5-.23A3.32,3.32,0,0,1,422.81,392.61Z" fill="#f29981"/><path d="M450.45,266.3a24.43,24.43,0,0,1-6.77.9s4.36,5,4.06,8.43A28.9,28.9,0,0,0,450.45,266.3Z" fill="#f29981"/><path d="M450.08,346.4s-.84,7.54-14.58,8.24c-.43-.22-.85-.46-1.27-.72a.39.39,0,0,1,.15-.72c3.21-.33,12.33-1.5,12.55-4.23,0,0-9.26,2.43-16.49-.43l-.46-.28S443.49,350.21,450.08,346.4Z" fill="#5b282c"/><path d="M477.06,328a22.93,22.93,0,0,1-.47,4.14,63.59,63.59,0,0,1-3,10.26,11.26,11.26,0,0,0-.77-5.27,31.14,31.14,0,0,1-4.36,9.09l-.2.05s3.55-6.93,4.2-12.25c0,0,1.61,2.9,1.44,3.7A35.74,35.74,0,0,0,477.06,328Z" fill="#5b282c"/><path d="M498.19,327l-.13-.06L494,320.4a5.43,5.43,0,0,0-3.14-2.37c-2.78-.81-7.64-1.57-10.33,1.79.13-.29,2.45-5.07,5.93-4.66,0,0,7.58-.82,9.42,6.34A59.52,59.52,0,0,1,498.19,327Z" fill="#5b282c"/><path d="M467.66,303.68a98.26,98.26,0,0,1,12.4,15.47,85.63,85.63,0,0,1-6.59-7.42A88.92,88.92,0,0,1,467.66,303.68Z" fill="#5b282c"/><path d="M489,306.67c-13.06-9.18-20.86-4-20.86-4a.41.41,0,0,1-.05-.09c1.74-2.2,6.81-6.14,17.72,1.76,0,0,1.31.82,3.18,2.26Z" fill="#5b282c"/><path d="M441.33,339.73a13.4,13.4,0,0,0,4.08-1.39,12.35,12.35,0,0,0,3.43-2.5,13.62,13.62,0,0,0,2.47-3.42,15.86,15.86,0,0,0,.87-1.92c.25-.67.41-1.36.63-2v0a23.2,23.2,0,0,1,1.07-4.07,15.94,15.94,0,0,1,1.88-3.76,9.88,9.88,0,0,1,3-3,7.27,7.27,0,0,1,4-.89,7.45,7.45,0,0,0-3.78,1.3,9.42,9.42,0,0,0-2.62,3,18,18,0,0,0-1.64,3.66,25.64,25.64,0,0,0-1,3.91v0c-.22.71-.42,1.43-.68,2.13a17.16,17.16,0,0,1-1,2l-.57,1-.67.91a6.55,6.55,0,0,1-.73.85,7.55,7.55,0,0,1-.8.8,13.26,13.26,0,0,1-3.76,2.39A12.23,12.23,0,0,1,441.33,339.73Z" fill="#5b282c"/><path d="M456.92,348.81a10.07,10.07,0,0,0,3.67-2,11.53,11.53,0,0,0,2.68-3.14,18.25,18.25,0,0,0,1.66-3.79,19.82,19.82,0,0,0,.75-4.09,36.7,36.7,0,0,1,1.8-8.4,16.77,16.77,0,0,1,1.92-3.89,6.27,6.27,0,0,1,3.36-2.6,6.46,6.46,0,0,0-2.95,2.87,16.55,16.55,0,0,0-1.6,3.86,48,48,0,0,0-1.54,8.27,19.6,19.6,0,0,1-.84,4.26,16.75,16.75,0,0,1-1.91,3.92A10.62,10.62,0,0,1,456.92,348.81Z" fill="#5b282c"/><path d="M447.8,345.05a13.58,13.58,0,0,0,4.15-1.88,16.11,16.11,0,0,0,3.33-3,15.61,15.61,0,0,0,1.32-1.82,18.27,18.27,0,0,0,1.15-2c.36-.67.64-1.38,1-2.07s.54-1.44.87-2.16c-.11.77-.26,1.54-.41,2.31s-.43,1.52-.74,2.25a15.54,15.54,0,0,1-2.42,4.09,12.89,12.89,0,0,1-3.7,3A9.6,9.6,0,0,1,447.8,345.05Z" fill="#5b282c"/><path d="M500.4,248.9c7.86-6.46,2-10.88,2-10.88S497,255.76,483,259.88h0c.45-.24,15-8.1,18.39-22.88l1.19-4.26S511.86,242.91,500.4,248.9Z" fill="#5b282c"/><path d="M525.77,242.23a25.17,25.17,0,0,1-1.54-2.59,7.11,7.11,0,0,0-3.41-3.56s-.26-.18-.74-.45a23.33,23.33,0,0,1-6.08,7.29h-.12s5.58-5.26,6.16-12.64A17.1,17.1,0,0,1,525.77,242.23Z" fill="#5b282c"/><path d="M527.43,222.34a15.83,15.83,0,0,1,3.11,4.74,20.35,20.35,0,0,1,1.57,5.5,21.07,21.07,0,0,1,0,5.72,20.31,20.31,0,0,1-.52,2.8c-.25.92-.57,1.81-.89,2.69.11-.94.32-1.85.41-2.78s.23-1.85.23-2.77l0-1.39,0-1.38a12.79,12.79,0,0,0-.09-1.38c0-.45-.06-.91-.15-1.37a27,27,0,0,0-1.31-5.35A24.61,24.61,0,0,0,527.43,222.34Z" fill="#5b282c"/><polygon points="586.34 484 588.18 488.41 605.51 479.54 603.8 475.6 586.34 484" fill="#753b21"/><circle cx="594.87" cy="481.9" r="2.27" fill="#5b2c1a"/><path d="M592.91,481.85,492.67,85.07l1-.1,103,395.91a1.93,1.93,0,0,1-1.38,2.35h0A1.93,1.93,0,0,1,592.91,481.85Z" fill="#753b21"/><path d="M564.77,299.32,584,310.56s4.5-8.48,12.66-12.31c0,0,13.78,16.74,24.36,43.4a13.67,13.67,0,0,1,.07,10.12c-1.28,3.15-3.92,6-9.36,5.29a15.35,15.35,0,0,1-7-3c-2.35-1.74-6.17-4.56-9.48-6.9a50.86,50.86,0,0,1-7.82-6.83c-5.63-6-16-17.08-20.7-22.24-.64-.7-1.24-1.41-1.84-2.15-1.69-2.11-5.87-7.06-9-8.78a16,16,0,0,1-4.55-3.39,16.71,16.71,0,0,1-4.21-12.51,1.21,1.21,0,0,0-1-1.31,5,5,0,0,0-1.94.13s-2.72,1.31-3.65,3.21a1.25,1.25,0,0,1-1.79.6c-.74-.51-1.39-1.65-.93-4.19,0,0-4.08,3-3.32-4.85l.39-2.16s-5.36-.51-2.68-6.75l1.91-5.23s.13-1.27,2.42-1.4l7.64.73c.06,0,.1-.08,0-.11-1-.42-3.68-1.81-3.47-4.32h-3.06a1.69,1.69,0,0,0-1.44.8,4.92,4.92,0,0,1-4.29,2.65,2.11,2.11,0,0,1-2.09-1.79c-.09-.86.26-2.05,1.83-3.57,0,0,3.06-4.07,7.77-3.82,0,0,5.61-1,6.37,4.08a22.49,22.49,0,0,0,3.23,5.4,6.05,6.05,0,0,0,1.86,1.43,6.72,6.72,0,0,1,3.58,5.78S557.1,293.77,564.77,299.32Z" fill="#f9ad9b"/><path d="M425.85,137.5s-17.36,5.59-14,30.23C422,161.55,431.42,149.62,425.85,137.5Z" fill="#7db500"/><path d="M426.2,137.5s-1.78,18.15,22.14,24.91C446.71,150.63,439.54,137.22,426.2,137.5Z" fill="#7db500"/><path d="M427.82,145.13S419.44,156,432,169.85C435.66,161.69,436.44,150.28,427.82,145.13Z" fill="#7db500"/><path d="M534.85,282.71a30.21,30.21,0,0,1,.75-3.67c.32-1.2.67-2.39,1.07-3.56l.1-.31.31,0a39.87,39.87,0,0,1,6.19-.22,39.86,39.86,0,0,1-6.08,1.2l.41-.34c-.36,1.19-.77,2.36-1.22,3.52A32.34,32.34,0,0,1,534.85,282.71Z" fill="#f29981"/><path d="M537.78,289.72a30.12,30.12,0,0,1,2.28-3.26c.82-1,1.67-2,2.56-3l.13-.14.16,0a34,34,0,0,1,5.35-.38,35.1,35.1,0,0,1-5.2,1.33l.29-.16c-.85,1-1.73,2-2.65,2.94A31.22,31.22,0,0,1,537.78,289.72Z" fill="#f29981"/><path d="M330.56,631.85s-1.35-67.06-63.41-58.58c30.27,2.61,50.32,15.8,50.46,43.56-8.95-21.15-23.31-29.43-28.32-28.71,17.35,11,22.51,29.83,22.76,31.3-25.53-26.87-49.13-33.73-59.73-32.06,19.19,4.53,47.71,19.88,51.48,32.75-12.88-11.82-28.67-11.61-36.3-7,12.23-1,26,10.61,26,10.61-26.61-4.25-35.91,7.14-35.91,7.14s14.95-8.18,34.31-1.48S330.56,631.85,330.56,631.85Z" fill="#709b00"/><path d="M321,630.24s-.88-56.86,47.45-48.47C344.75,585,329.53,596.15,330.52,618c6.19-17,17.13-24,21.09-23.66-13.18,9.31-16.48,24.31-16.63,25.47,19-22.1,37.23-28.41,45.61-27.52-14.87,4.32-36.66,17.48-39.11,27.74,9.65-9.79,22-10.24,28.22-6.89-9.64-.34-20,9.35-20,9.35,20.71-4.38,28.46,4.19,28.46,4.19a35.48,35.48,0,0,0-27,.19C336.24,632.84,321,630.24,321,630.24Z" fill="#709b00"/><path d="M322.4,616s-6.92-32.88,16.72-55.45c-9.63,17.33-13.21,43.62-13,52.25C323.64,619.25,322.4,616,322.4,616Z" fill="#709b00"/><path d="M584.6,633.29s-1.07-53.11-50.21-46.39c24,2.07,39.85,12.51,40,34.5-7.09-16.75-18.46-23.31-22.43-22.74,13.74,8.7,17.82,23.63,18,24.79-20.21-21.28-38.9-26.71-47.3-25.39,15.19,3.59,37.79,15.74,40.77,25.94-10.2-9.36-22.71-9.19-28.75-5.51,9.68-.83,20.62,8.4,20.62,8.4-21.08-3.36-28.45,5.66-28.45,5.66A35.76,35.76,0,0,1,554,631.38C569.34,636.68,584.6,633.29,584.6,633.29Z" fill="#709b00"/><path d="M577,632s-.7-45,37.58-38.39c-18.73,2.57-30.78,11.39-30,28.65,4.9-13.42,13.57-19,16.7-18.73-10.44,7.37-13,19.25-13.17,20.17,15-17.5,29.48-22.5,36.12-21.79-11.78,3.41-29,13.84-31,22,7.64-7.75,17.46-8.11,22.35-5.46-7.63-.26-15.85,7.41-15.85,7.41,16.41-3.47,22.54,3.32,22.54,3.32a28.08,28.08,0,0,0-21.37.15C589.1,634.08,577,632,577,632Z" fill="#709b00"/><path d="M578.14,620.73s-5.48-26,13.24-43.92c-7.62,13.73-10.46,34.55-10.28,41.38C579.12,623.31,578.14,620.73,578.14,620.73Z" fill="#709b00"/></g></g></svg>