<svg id="aad803db-4f37-41a0-8063-455d6d6a0fd4" data-name="Layer 1" xmlns="http://www.w3.org/2000/svg" xmlns:xlink="http://www.w3.org/1999/xlink" width="865.76" height="682.89" viewBox="0 0 865.76 682.89"><defs><clipPath id="bed982e3-28ec-444e-92df-5b9d69cb68d0"><path id="af0f3c44-464c-4c8d-9cd2-36d080c9b666" data-name="SVGID" d="M248,315.73v-9.39a1,1,0,0,0-1-1H234.71a1,1,0,0,0-1,1v9.39a14.43,14.43,0,0,0-10.69,13.93v57.87H258.7V329.66A14.43,14.43,0,0,0,248,315.73Z" fill="#926ef6"/></clipPath></defs><ellipse cx="405.74" cy="189.62" rx="165.84" ry="164.26" fill="#dfaf50"/><ellipse cx="415.53" cy="195.88" rx="141.77" ry="139.48" fill="#fff" opacity="0.43"/><line x1="624.22" y1="293.44" x2="633.08" y2="296.61" fill="none" stroke="#fc87b1" stroke-miterlimit="10"/><line x1="625.41" y1="290.26" x2="634.27" y2="293.44" fill="none" stroke="#fc87b1" stroke-miterlimit="10"/><line x1="626.6" y1="286.96" x2="635.46" y2="290.13" fill="none" stroke="#fc87b1" stroke-miterlimit="10"/><line x1="627.53" y1="283.65" x2="636.39" y2="286.83" fill="none" stroke="#fc87b1" stroke-miterlimit="10"/><line x1="628.85" y1="280.74" x2="637.04" y2="283.92" fill="none" stroke="#fc87b1" stroke-miterlimit="10"/><line x1="629.95" y1="277.57" x2="638.14" y2="280.74" fill="none" stroke="#fc87b1" stroke-miterlimit="10"/><line x1="631.05" y1="274.26" x2="639.24" y2="277.44" fill="none" stroke="#fc87b1" stroke-miterlimit="10"/><line x1="631.91" y1="270.96" x2="640.09" y2="274.13" fill="none" stroke="#fc87b1" stroke-miterlimit="10"/><line x1="633.35" y1="267.78" x2="641.53" y2="270.96" fill="none" stroke="#fc87b1" stroke-miterlimit="10"/><line x1="634.45" y1="264.61" x2="642.63" y2="267.78" fill="none" stroke="#fc87b1" stroke-miterlimit="10"/><line x1="635.55" y1="261.3" x2="643.73" y2="264.47" fill="none" stroke="#fc87b1" stroke-miterlimit="10"/><line x1="636.4" y1="257.99" x2="644.59" y2="261.17" fill="none" stroke="#fc87b1" stroke-miterlimit="10"/><line x1="637.98" y1="254.95" x2="646.16" y2="258.13" fill="none" stroke="#fc87b1" stroke-miterlimit="10"/><line x1="639.08" y1="251.78" x2="647.26" y2="254.95" fill="none" stroke="#fc87b1" stroke-miterlimit="10"/><line x1="640.18" y1="248.47" x2="648.36" y2="251.65" fill="none" stroke="#fc87b1" stroke-miterlimit="10"/><line x1="641.03" y1="245.17" x2="649.22" y2="248.34" fill="none" stroke="#fc87b1" stroke-miterlimit="10"/><line x1="642.34" y1="241.86" x2="650.24" y2="245.03" fill="none" stroke="#fc87b1" stroke-miterlimit="10"/><line x1="643.4" y1="238.69" x2="651.3" y2="241.86" fill="none" stroke="#fc87b1" stroke-miterlimit="10"/><line x1="644.46" y1="235.38" x2="652.36" y2="238.55" fill="none" stroke="#fc87b1" stroke-miterlimit="10"/><line x1="645.29" y1="232.07" x2="653.19" y2="235.25" fill="none" stroke="#fc87b1" stroke-miterlimit="10"/><line x1="646.35" y1="229.3" x2="654.24" y2="232.47" fill="none" stroke="#fc87b1" stroke-miterlimit="10"/><rect x="222.69" y="399.27" width="16.86" height="244.31" fill="#926ef6"/><rect x="567.61" y="398.21" width="16.86" height="244.31" fill="#926ef6"/><rect x="165.97" y="387.77" width="482.13" height="15.33" fill="#5f2e9b"/><rect x="599.2" y="289.2" width="7.95" height="36.28" transform="translate(-40.98 99.15) rotate(-9.09)" fill="#926ef6"/><path d="M626.52,323l7-28.56,20.81-63.13s6.35,1.41,3.88,11.64l-27.58,80.9Z" fill="#926ef6"/><path id="a64d663b-548b-4167-a61e-2be58e81dacf" data-name="SVGID" d="M248,315.73v-9.39a1,1,0,0,0-1-1H234.71a1,1,0,0,0-1,1v9.39a14.43,14.43,0,0,0-10.69,13.93v57.87H258.7V329.66A14.43,14.43,0,0,0,248,315.73Z" fill="#926ef6"/><g clip-path="url(#bed982e3-28ec-444e-92df-5b9d69cb68d0)"><path d="M220.82,337.63h28.43a1.64,1.64,0,0,1,1.64,1.64v12.67a1.64,1.64,0,0,1-1.64,1.64H220.82a0,0,0,0,1,0,0v-16A0,0,0,0,1,220.82,337.63Z" fill="#5f2e9b"/></g><polygon points="433.08 134.82 430.94 180.13 491.53 182.01 488.05 126.51 433.08 134.82" fill="#10011c"/><path d="M488.12,181.41l-4.89-61.86s6.89-1.84,8.54,9.13l8.35,54.94A108,108,0,0,1,488.12,181.41Z" fill="#1d0031"/><path d="M410.64,338.76s-7.85,25-1.42,84.54c0,0,9.12,40.48,5.63,69.7,0,0-2.68,37.27-15.55,68.37,0,0,40.22,8.58,96.25,6.7,0,0,9.92-30.83,7.78-76.67,0,0-1.16-26.3-3.74-42.61-.48-3.05-.87-6.11-1.08-9.19-.74-10.67-1.67-34.23,2.87-49.68,0,0,2.75-13.47,4.09-18.1Z" fill="#686175" data-primary="true"/><path d="M410.64,338.76s-7.85,25-1.42,84.54c0,0,9.12,40.48,5.63,69.7,0,0-2.68,37.27-15.55,68.37,0,0,40.22,8.58,96.25,6.7,0,0,9.92-30.83,7.78-76.67,0,0-1.16-26.3-3.74-42.61-.48-3.05-.87-6.11-1.08-9.19-.74-10.67-1.67-34.23,2.87-49.68,0,0,2.75-13.47,4.09-18.1Z" opacity="0.2"/><path d="M430.86,604.48a.71.71,0,0,1,0-.81,25.26,25.26,0,0,0,4.61-13l4.91-47.47,1.09-61.92S459.77,379.84,465,370.84c0,0,32.19,2.18,39,1.36l-27.83,68.47-3.82,11.45a32.17,32.17,0,0,0,.28,11.73S480,522.5,455.67,559.6l-9.27,32.73s-2.46,5.46-.27,13.91c0,0,4.63,27.83,2.18,41.74,0,0-3.27,3.55-4.91-.55C443.4,647.43,443.13,622.72,430.86,604.48Z" fill="#fccdc3"/><path d="M455.44,560.78l.75-2.14-15.54-48.43a128.77,128.77,0,0,0,3.86,19.71Z" fill="#fc9189"/><path d="M461.37,382.33,460.15,387l2.72,66.86s9.43,52.85,9.43,55.28c0,0-1.15-26-4.43-38.14A63.08,63.08,0,0,1,466,453.1S467,402.47,461.37,382.33Z" fill="#fc9189"/><path d="M520.86,401.72H527a10.75,10.75,0,0,0,4.75-1.14,7.24,7.24,0,0,0,2.56-1.6s1.88-3.08.81-9.52a6.63,6.63,0,0,0-1.44-3.71s-1.84-.25-1.57,4.44l-6.62-.24a4.12,4.12,0,0,0-2.15.46,1.69,1.69,0,0,0-1,1.11.61.61,0,0,0,.58.7l6.48.25-.54,3.08s-6.17-1.68-8.14.29a.46.46,0,0,0,.23.78l7.18,1.44a.13.13,0,0,1,.09.2,2.92,2.92,0,0,1-2.71,1.31s-4.07-1.2-5.09,1.62A.4.4,0,0,0,520.86,401.72Z" fill="#fc9189"/><path d="M524.37,372.09s-1.74,5.76,2.28,8.45c0,0,3.35,2.81,2.68,10.32,0,0-1.34,7.91.81,8.17,0,0,1.74.54,1.87-5.09,0,0-.13-9.25,1.75-7.77,0,0,.63.31,1.2,3.21,0,0,1.61,6.3-1.47,10.86,0,0-6.44,7.78-4,10.19l9.17-11.78a3.81,3.81,0,0,0,.81-2.17l.54-10.9a7.06,7.06,0,0,0-.41-2.73c-1.11-3.07-3.79-10.75-4.22-14.24Z" fill="#fccdc3"/><path d="M430.88,603.67l-4.22,7.56a5.8,5.8,0,0,0-.73,2.76l-.26,41.08,4.09-.27.82-24.55s0-7.91,3.27-3.82c0,0,6.67,8.27,5,27.43a.61.61,0,0,0,.6.67H455.5a1.21,1.21,0,0,0,1.14-1c.22-1.31-.63-3.7-8.33-5.58,0,0-3.27,3-4.91-.55C443.4,647.43,443.82,624.19,430.88,603.67Z" fill="#21224f"/><path d="M413.78,367s13,45.3,23.07,72c0,0,6.55,18.28,3.82,28.92,0,0-8.73,32.46,10.91,79.1,0,0,13.91,39.83,14.46,63,0,0,0,24-2,36.33a4.26,4.26,0,0,0,.3,2.52c.92,2,3.45,4.91,10.16,2.62,0,0,6.54-1.64,6.82-12.55,0,0-1.52-18.85-3-28.17a17.16,17.16,0,0,1-.23-4.23,6.81,6.81,0,0,0-.74-3.68,10,10,0,0,1-1.06-3.76L472,528s2.18-31.65-5.45-57c0,0-2.19-10.1-1.37-17.73,0,0,1.37-47.2-7.36-82.66L425.67,358Z" fill="#fccdc3"/><path d="M496.28,182.69s17,1.73,16.7,18.35A230.6,230.6,0,0,1,508.42,233l-3.31,21.21a138.08,138.08,0,0,0-1.55,16.11l-.5,13.08S521,323,524,335.09L513.51,345,484,273.43Z" fill="#686175" data-primary="true"/><path d="M496.28,182.69s17,1.73,16.7,18.35A230.6,230.6,0,0,1,508.42,233l-3.31,21.21a138.08,138.08,0,0,0-1.55,16.11l-.5,13.08S521,323,524,335.09L513.51,345,484,273.43Z" opacity="0.2"/><path d="M496.34,183a.09.09,0,0,1-.06,0c-3.8.68-7.48,1.22-11,1.65h0a174.07,174.07,0,0,1-29.94,1.08h-.13a121.91,121.91,0,0,1-28-4.43l-.44-.13a.34.34,0,0,1,.1-.67c20.45-1.45,20.19-9.81,20.19-9.81l.27-18h20.64l1.34,15.55c2.08,11,21.55,13.79,27,14.35Z" fill="#fccdc3"/><path d="M503.89,233.43l-11.56,27.13-58.71,1.34s-6.17-32.44-13.94-45.57L403.86,255.2,426.38,248l3.75,11.53S391,287.1,384.82,276.11c0,0-6.1-12.26,7.38-44.84,0,0,11.29-50.55,34.53-50l.44.13a142.82,142.82,0,0,0,28,4.43h.13a148.64,148.64,0,0,0,29.94-1.08h0c3.61-.5,7.3-1.17,11-2l.06.35,8,46.61A6.79,6.79,0,0,1,503.89,233.43Z" fill="#686175" data-primary="true"/><path d="M433.62,261.9a16.66,16.66,0,0,1-.8,10.73c.8,0,35.92-2.95,60.05,0a26.77,26.77,0,0,1-.54-12.07Z" fill="#21224f"/><path d="M432.82,272.63s-33,56-19,94.37c0,0,74.53,7.5,91.69,4.82,0,0,11.26-34.31,2.15-62.73a229.94,229.94,0,0,0-14.75-36.46S469,268.87,432.82,272.63Z" fill="#686175" data-primary="true"/><path d="M464,646.39l-.3,6.82a3.31,3.31,0,0,0,3.35,3.45,20.66,20.66,0,0,0,5.5.87,20.4,20.4,0,0,0,6.83-1.06,4,4,0,0,0,2.76-1.55,3.33,3.33,0,0,0,.45-1.21c.46-2.69.62-7.47-1.31-14.73Z" fill="#21224f"/><polygon points="513.51 345.01 525.14 364.48 532.7 360.58 523.97 335.09 513.51 345.01" fill="#fccdc3"/><rect x="519.28" y="360.11" width="20.15" height="10.25" rx="1.73" transform="translate(-85.75 177.47) rotate(-17.63)" fill="#21224f"/><polygon points="525.13 371.95 527.32 371.26 528.37 360.17 526.38 360.8 525.13 371.95" fill="#686175" data-primary="true"/><polygon points="530.83 359.38 534.46 358.23 534.07 369.12 530.13 370.36 530.83 359.38" fill="#686175" data-primary="true"/><path d="M426.38,248l24.25-9.68s3.88-3.42,14.73-3.73c0,0,7.75-.62,12.1-3.1a22.67,22.67,0,0,1,10.38-1.39s7.29-.16,7.29,1.7c0,0,0,1.55-2.32,1.55H483.5s10.7,2.33,11.94,5c0,0,.47,2.48-6.51-.47l-6.36-1.55s9.15,5.12,9.15,6.67c0,0,.31,3.1-5.12-.47a11.09,11.09,0,0,0-7.75-2.32,17,17,0,0,1,3.88,2.79s3.56,4.49,2.17,5.58c0,0-1.62,1.12-4.18-3a4,4,0,0,0-3.1-1.89,44.07,44.07,0,0,0-8.2.29,13.23,13.23,0,0,0-4.08,1.2c-1.74.86-4.8,1.92-7.36.52a8.09,8.09,0,0,0-7.71-.24,6.63,6.63,0,0,0-1.34.94s-14,11-18.79,13.15Z" fill="#fccdc3"/><path d="M447.17,162.32v-7.25l21,.52S459.4,164.78,447.17,162.32Z" fill="#fc9189"/><ellipse cx="456.15" cy="123.33" rx="27.71" ry="35.87" fill="#fccdc3"/><ellipse cx="484.8" cy="126.28" rx="4.93" ry="6.89" fill="#fccdc3"/><path d="M491.76,128.68c-.34,2.22-2.14-3.71-3.3-5.09a16.1,16.1,0,0,0-10-5.36c-21.1-3.14-33.24-18.69-36.16-22.87a8,8,0,0,1-1.48-3.86c-.29-3.29,1.44-8.38,14.44-9.35,0,0,23.87-4.39,31.18,18C486.4,100.18,494,114.06,491.76,128.68Z" fill="#1d0031"/><path d="M444.18,85.09s-20.39.23-24,42.37c0,0-5.36,34.84-12.43,53.84,0,0-16.32,41.9-16.32,50.67l2.19,2.19s2.93-18.51,11.45-32.89c0,0-8.52,20.22-9.25,35.08a49.27,49.27,0,0,0,30.93,7.31s13.38-19,11.79-66a139.22,139.22,0,0,0-1.7-17.17c-1.39-8.65-3.52-23.12-3-27.63V110.16s.68-9.92,8-15.52C441.76,94.64,438.5,88.81,444.18,85.09Z" fill="#1d0031"/><ellipse cx="442.1" cy="121.09" rx="2.27" ry="3.66"/><ellipse cx="465.81" cy="121.09" rx="2.27" ry="3.66"/><path d="M454,129.94l-.72,3.53c-.12.58.17,1.15.59,1.15h2c.46,0,.76-.71.55-1.31l-1.26-3.53C454.85,129.06,454.13,129.17,454,129.94Z" fill="#fc9189"/><path d="M446.15,144.1s9.79,11.79,21.58,0" fill="none" stroke="#fc9189" stroke-linecap="round" stroke-linejoin="round"/><ellipse cx="441.66" cy="122.84" rx="0.49" ry="0.63" fill="#fff"/><ellipse cx="465.37" cy="122.98" rx="0.49" ry="0.63" fill="#fff"/><path d="M353.11,497.14H277.36l-2.53-93c-2.6-24.33,16.23-45.56,40.41-45.56h0c24.17,0,43,21.23,40.4,45.56Z" fill="#926ef6"/><path d="M355.64,403.62l-2.82,95.17h7.43c7.19-1.07,7,4.13,7,4.13-.53,10.65-3.55,11.76-3.55,11.76H321.09L319,580.89l4.13.41.82,16.5,33.7-27a7.12,7.12,0,0,0,2.38-7.14l-2.19-9.26a8.85,8.85,0,0,1,4.48-9.87l17-9a8.29,8.29,0,0,0,4.34-8.46L365.31,394.29c-2.67-9.59-12.79-11.18-12.79-11.18S356.63,390.57,355.64,403.62Z" fill="#fc87b1"/><rect x="309.64" y="510.76" width="11.98" height="72.6" fill="#926ef6"/><path d="M361.05,643.94a206.13,206.13,0,0,1-94.09,0,1.25,1.25,0,0,1,0-2.43l30.31-10.54a52.17,52.17,0,0,1,28.59-1.62,51.45,51.45,0,0,1,7.5,2.3c9.16,3.59,18.26,7.44,27.74,9.88A1.26,1.26,0,0,1,361.05,643.94Z" fill="#926ef6"/><rect x="258.77" y="495.5" width="112.93" height="19.71" rx="7.98" fill="#5f2e9b"/><rect x="288.69" y="587.6" width="21.32" height="3.31" fill="#926ef6"/><path d="M325.82,579.51v49.81a52.16,52.16,0,0,0-21.69-.26V579.51Z" fill="#5f2e9b"/><rect x="277.29" y="584.29" width="19.12" height="9.56" fill="#5f2e9b"/><polygon points="625.65 387.78 602.81 387.78 594.75 320.38 632.82 320.38 625.65 387.78" fill="#fc87b1"/><rect x="585.16" y="250.37" width="26.1" height="45.14" transform="translate(-26.74 68.5) rotate(-6.41)" fill="#fc87b1"/><line x1="576.84" y1="256.35" x2="584.92" y2="255.38" fill="none" stroke="#926ef6" stroke-miterlimit="10"/><line x1="578.08" y1="261.61" x2="586.16" y2="260.63" fill="none" stroke="#926ef6" stroke-miterlimit="10"/><line x1="579.3" y1="266.51" x2="587.38" y2="265.53" fill="none" stroke="#926ef6" stroke-miterlimit="10"/><line x1="579.83" y1="271.78" x2="587.91" y2="270.8" fill="none" stroke="#926ef6" stroke-miterlimit="10"/><line x1="581.39" y1="276.32" x2="589.48" y2="275.34" fill="none" stroke="#926ef6" stroke-miterlimit="10"/><line x1="581.57" y1="281.6" x2="589.65" y2="280.62" fill="none" stroke="#926ef6" stroke-miterlimit="10"/><line x1="582.45" y1="286.87" x2="590.54" y2="285.89" fill="none" stroke="#926ef6" stroke-miterlimit="10"/><line x1="583.31" y1="291.42" x2="591.4" y2="290.45" fill="none" stroke="#926ef6" stroke-miterlimit="10"/><line x1="583.98" y1="296" x2="592.08" y2="295.22" fill="none" stroke="#926ef6" stroke-miterlimit="10"/><line x1="603.15" y1="251.59" x2="611.23" y2="250.61" fill="none" stroke="#926ef6" stroke-miterlimit="10"/><line x1="604.38" y1="256.84" x2="612.46" y2="255.86" fill="none" stroke="#926ef6" stroke-miterlimit="10"/><line x1="605.6" y1="261.74" x2="613.69" y2="260.76" fill="none" stroke="#926ef6" stroke-miterlimit="10"/><line x1="606.13" y1="267.02" x2="614.22" y2="266.04" fill="none" stroke="#926ef6" stroke-miterlimit="10"/><line x1="607.7" y1="271.55" x2="615.78" y2="270.57" fill="none" stroke="#926ef6" stroke-miterlimit="10"/><line x1="607.88" y1="276.84" x2="615.96" y2="275.86" fill="none" stroke="#926ef6" stroke-miterlimit="10"/><line x1="608.76" y1="282.1" x2="616.84" y2="281.12" fill="none" stroke="#926ef6" stroke-miterlimit="10"/><line x1="609.62" y1="286.66" x2="617.7" y2="285.68" fill="none" stroke="#926ef6" stroke-miterlimit="10"/><line x1="610.84" y1="291.56" x2="618.92" y2="290.58" fill="none" stroke="#926ef6" stroke-miterlimit="10"/><line x1="590.88" y1="254.12" x2="598.96" y2="253.14" fill="none" stroke="#926ef6" stroke-miterlimit="10"/><line x1="592.12" y1="259.37" x2="600.2" y2="258.39" fill="none" stroke="#926ef6" stroke-miterlimit="10"/><line x1="593.34" y1="264.27" x2="601.42" y2="263.29" fill="none" stroke="#926ef6" stroke-miterlimit="10"/><line x1="593.87" y1="269.54" x2="601.95" y2="268.57" fill="none" stroke="#926ef6" stroke-miterlimit="10"/><line x1="595.43" y1="274.08" x2="603.52" y2="273.1" fill="none" stroke="#926ef6" stroke-miterlimit="10"/><line x1="595.61" y1="279.37" x2="603.69" y2="278.39" fill="none" stroke="#926ef6" stroke-miterlimit="10"/><line x1="596.49" y1="284.63" x2="604.58" y2="283.65" fill="none" stroke="#926ef6" stroke-miterlimit="10"/><line x1="597.35" y1="289.19" x2="605.44" y2="288.21" fill="none" stroke="#926ef6" stroke-miterlimit="10"/><line x1="598.58" y1="294.09" x2="606.66" y2="293.11" fill="none" stroke="#926ef6" stroke-miterlimit="10"/><path d="M604.11,508.79C607,510,614,509.88,614,509.88s-1.51-4.58-1.64-4.85c-1.54-3.22-6.4-8.52-10.34-8a4.72,4.72,0,0,0-3.9,5.42,3.88,3.88,0,0,0,.11.49C598.86,505.69,601.67,507.73,604.11,508.79Z" fill="#e6dffe"/><path d="M606.53,529c3,.44,9.22-1.36,9.71-1.51A82.73,82.73,0,0,0,620,538c.86,2,1.79,4,2.74,5.94-.58-.83-1.1-1.59-1.18-1.68-2.33-2.74-8.41-6.52-12.08-5a4.71,4.71,0,0,0-2.33,6.24,4,4,0,0,0,.24.46c1.37,2.46,4.6,3.68,7.23,4.1s8-1,9.44-1.36l1.11,2.25c1.81,3.61,3.63,7.18,5.32,10.75.58,1.26,1.12,2.52,1.67,3.78-.51-.74-.95-1.37-1-1.45-2.33-2.74-8.41-6.52-12.08-5a4.71,4.71,0,0,0-2.33,6.24,4,4,0,0,0,.24.46c1.37,2.46,4.6,3.68,7.24,4.11s7.5-.91,9.17-1.37c.52,1.3,1,2.61,1.48,3.9.29.89.62,1.73.85,2.63l.74,2.66c.41,1.69.84,3.45,1.19,5.12.26,1.16.48,2.27.71,3.39-.57-1.26-1.75-3.7-1.87-3.89-1.89-3-7.33-7.72-11.19-6.75a4.72,4.72,0,0,0-3.24,5.84,3.71,3.71,0,0,0,.16.47c1,2.65,4,4.35,6.53,5.13,2.74.84,9,.06,9.78,0,.37,1.84.71,3.65,1,5.36.15.91.29,1.76.44,2.6h2.46l-.58-3c-.37-1.87-.8-3.88-1.26-5.94a48.54,48.54,0,0,0,5.47-2.56c2,2.21,7.27,4.79,7.94,5.12-.71,1.76-1.36,3.45-2.1,5l-.62,1.37h2.59l.2-.46c.73-1.78,1.47-3.69,2.22-5.66.75.16,6.85,1.37,9.75.77,2.59-.59,5.72-2.06,6.85-4.63a4.71,4.71,0,0,0-2.13-6.31,3.48,3.48,0,0,0-.48-.21c-3.77-1.27-9.58,3-11.66,5.89-.12.16-1.27,2.15-2,3.42.3-.81.6-1.59.9-2.42.6-1.64,1.15-3.3,1.75-5.08.26-.88.54-1.75.8-2.64s.46-1.84.71-2.74c.51-2.15.93-4.37,1.3-6.6,1.44.52,6.59,2.31,9.24,2.12s6-1.16,7.52-3.52a4.72,4.72,0,0,0-1.16-6.58c-.14-.09-.28-.18-.43-.26-3.55-1.83-9.88,1.54-12.42,4.1-.15.15-1.76,2.15-2.63,3.28.22-1.37.44-2.74.61-4.11.49-4,.86-8,1.26-12,.11-1.23.24-2.45.38-3.67.51.19,6.57,2.45,9.58,2.24,2.66-.19,6-1.16,7.52-3.52a4.71,4.71,0,0,0-1.13-6.56,4.34,4.34,0,0,0-.46-.28c-3.54-1.82-9.9,1.55-12.42,4.11-.19.19-2.49,3.08-3.05,3.84.29-2.73.6-5.38,1-8A86.28,86.28,0,0,1,667.83,527c.25.1,6.57,2.48,9.58,2.26,2.66-.17,6-1.15,7.52-3.51a4.72,4.72,0,0,0-1.16-6.58,3.87,3.87,0,0,0-.43-.27c-3.54-1.84-9.9,1.53-12.42,4.11-.2.19-2.73,3.3-3.09,3.9a2.36,2.36,0,0,1,.16-.62,62.25,62.25,0,0,1,4.11-10c.92-1.76,1.88-3.4,2.85-5,1.14.57,6.34,3.09,9.1,3.2s6.08-.49,7.86-2.67a4.7,4.7,0,0,0-.41-6.65l-.41-.32c-3.32-2.2-10,.44-12.79,2.66-.15.12-1.54,1.52-2.56,2.56.46-.71.91-1.45,1.37-2.12,1.67-2.51,3.36-4.7,4.86-6.64.87-1.1,1.67-2.06,2.44-3,1.37,0,7-.21,9.5-1.37s5.17-3.25,5.74-6a4.71,4.71,0,0,0-3.43-5.71l-.51-.09c-4-.43-8.67,5-10.12,8.21-.12.29-1.58,4.9-1.51,4.9h.19c-.75.85-1.54,1.78-2.39,2.74-1.55,1.92-3.29,4.11-5,6.56a85.63,85.63,0,0,0-5.19,8.28,61.2,61.2,0,0,0-4.45,10V526c0-1.16,0-4.43-.07-4.68-.45-3.53-3.42-10.08-7.34-10.8a4.71,4.71,0,0,0-5.42,3.87,5.32,5.32,0,0,0-.06.56c-.23,2.81,1.8,5.62,3.78,7.38,2.25,2,8.45,3.93,8.94,4.11a82,82,0,0,0-2.61,10.82c-.39,2.13-.7,4.3-1,6.46v-2c-.47-3.53-3.42-10.09-7.34-10.81a4.72,4.72,0,0,0-5.42,3.9,4.78,4.78,0,0,0-.06.53c-.22,2.74,1.81,5.62,3.8,7.4s7.27,3.54,8.66,4c-.09.82-.22,1.65-.31,2.49-.48,4-.93,8-1.51,11.9-.2,1.36-.45,2.73-.7,4.1v-1.76c-.46-3.54-3.42-10.09-7.34-10.82a4.73,4.73,0,0,0-5.42,3.9,4.93,4.93,0,0,0,0,.54c-.24,2.8,1.79,5.61,3.78,7.39s6.76,3.37,8.42,3.92c-.29,1.37-.58,2.73-.92,4.1-.26.89-.44,1.77-.75,2.66s-.56,1.75-.85,2.63c-.59,1.64-1.21,3.34-1.82,4.93-.43,1.11-.87,2.16-1.29,3.22.22-1.37.59-4.11.59-4.28a18.35,18.35,0,0,0-2.45-8.91,7.17,7.17,0,0,0-.07-1,4.73,4.73,0,0,0-5.28-4.1l-.49.09c-3.86,1-6.29,7.79-6.47,11.35,0,.2.12,2.49.23,3.94-.19-.85-.37-1.65-.59-2.52-.39-1.7-.85-3.39-1.37-5.21-.27-.87-.53-1.74-.8-2.63s-.62-1.8-.94-2.74c-.75-2.08-1.63-4.11-2.56-6.23,1.5-.36,6.78-1.7,8.89-3.33s4.35-4.27,4.33-7.08a4.71,4.71,0,0,0-4.6-4.84,4.17,4.17,0,0,0-.5,0c-4,.44-7.4,6.75-8.12,10.23,0,.22-.27,2.74-.38,4.19-.56-1.24-1.12-2.48-1.74-3.71-1.76-3.58-3.67-7.14-5.56-10.68-.57-1.1-1.13-2.19-1.71-3.28.53-.12,6.85-1.58,9.22-3.41,2.1-1.61,4.35-4.27,4.32-7.07a4.71,4.71,0,0,0-4.57-4.85,4.51,4.51,0,0,0-.52,0c-4,.44-7.41,6.75-8.12,10.23,0,.26-.38,4-.42,4.89-1.25-2.4-2.48-4.81-3.59-7.23a83.81,83.81,0,0,1-3.89-10c.25,0,6.85-1.55,9.27-3.41,2.11-1.63,4.35-4.27,4.33-7.09a4.71,4.71,0,0,0-4.56-4.84,4.87,4.87,0,0,0-.54,0c-4,.42-7.41,6.73-8.12,10.23,0,.27-.41,4.23-.42,4.95a2.7,2.7,0,0,0-.21-.6,60.75,60.75,0,0,1-2-10.61c-.22-2-.32-3.88-.37-5.74,1.24-.15,7-.92,9.35-2.35s4.79-3.77,5.08-6.56a4.71,4.71,0,0,0-4-5.31,4.4,4.4,0,0,0-.51-.05c-4,0-8.11,5.89-9.21,9.27,0,.2-.45,2.13-.72,3.55v-2.51c0-3,.19-5.77.38-8.21.13-1.37.26-2.64.4-3.81,1.15-.79,5.76-4.1,7.17-6.38S625,482.7,624,480a4.74,4.74,0,0,0-6.06-2.86l-.45.19c-3.53,1.83-4.46,9-3.89,12.47a47.91,47.91,0,0,0,1.46,4.92h.06c-.15,1.12-.3,2.32-.45,3.65-.23,2.44-.49,5.2-.56,8.22a83.82,83.82,0,0,0,.23,9.77,62.35,62.35,0,0,0,1.81,10.79.29.29,0,0,1,0,.13c-.62-1-2.46-3.69-2.63-3.88-2.33-2.74-8.42-6.52-12.09-5a4.73,4.73,0,0,0-2.31,6.27c.07.15.15.3.23.44C600.66,527.46,603.9,528.68,606.53,529Z" fill="#e6dffe"/><path d="M674.9,510.33s1.27-4.66,1.36-5c.5-3.52-.64-10.62-4.23-12.32a4.72,4.72,0,0,0-6.24,2.38,3.8,3.8,0,0,0-.18.47c-1,2.64.26,5.88,1.71,8.12C669,506.6,674.88,510.33,674.9,510.33Z" fill="#e6dffe"/><path d="M621.66,590.56h51.93v28a23.27,23.27,0,0,1-23.27,23.27H645a23.28,23.28,0,0,1-23.28-23.27h0v-28Z" fill="#fff"/><path d="M650.29,642.53H645a24,24,0,0,1-24-24V589.88h53.29v28.66A24,24,0,0,1,650.29,642.53Zm-27.95-51.28v27.29A22.66,22.66,0,0,0,645,641.16h5.34a22.66,22.66,0,0,0,22.61-22.62V591.25Z" fill="#e6dffe"/><path d="M673.58,616.67v-6.31c-4.11,3.25-9.49,2.52-13.4,0-7.14-4.49-15.44-1-15.79-.82a2.74,2.74,0,0,0,2.11,5.06l.07,0c.06,0,6-2.5,10.68.43a18.6,18.6,0,0,0,9.9,3A16,16,0,0,0,673.58,616.67Z" fill="#e6dffe"/><path d="M621.66,615.84a40.64,40.64,0,0,0,11.46-3.79c9.09-4.38,24.91-10.64,28.49-3.45a2.74,2.74,0,0,0,4.91-2.45c-4.35-8.69-16.44-8.37-35.77,1a36.09,36.09,0,0,1-9.09,3.18Z" fill="#e6dffe"/><circle cx="628.47" cy="603.11" r="1.93" fill="#e6dffe"/><path d="M641.49,599.26a1.93,1.93,0,1,1-1.93-1.93h0a1.92,1.92,0,0,1,1.92,1.91Z" fill="#e6dffe"/><path d="M654.52,596.36a1.93,1.93,0,1,1-1.93-1.94,1.93,1.93,0,0,1,1.93,1.94Z" fill="#e6dffe"/><path d="M667.3,598a1.94,1.94,0,0,1-3.87,0,2,2,0,0,1,1.92-2h0A1.94,1.94,0,0,1,667.3,598Z" fill="#e6dffe"/><circle cx="649.46" cy="618.3" r="1.93" fill="#e6dffe"/><path d="M661,622.15a1.93,1.93,0,1,1-1.93-1.93,1.93,1.93,0,0,1,1.93,1.93Z" fill="#e6dffe"/><path d="M670.68,622.15a1.93,1.93,0,1,1-1.93-1.93,1.93,1.93,0,0,1,1.93,1.93Z" fill="#e6dffe"/><path d="M470.82,115.57a6.44,6.44,0,0,0-4.05-2.51,6,6,0,0,0-4.38,1.14.77.77,0,0,0-.19,1h0a.78.78,0,0,0,1.12.25C464.52,114.64,467.25,113.38,470.82,115.57Z"/><path d="M437.79,114.89a6.4,6.4,0,0,1,4-2.51,6,6,0,0,1,4.39,1.14.77.77,0,0,1,.18,1h0a.78.78,0,0,1-1.12.26C444.08,114,441.35,112.7,437.79,114.89Z"/><path d="M485.37,130.28a.46.46,0,0,0,.26-.55c-1-3.6.76-4.93.84-5a.46.46,0,0,0,.1-.64A.44.44,0,0,0,486,124c-.1.06-2.37,1.7-1.18,6a.46.46,0,0,0,.55.33Z" fill="#fc9189"/><path d="M487.1,127.64a.49.49,0,0,0,.23-.22.47.47,0,0,0-.21-.62,2.48,2.48,0,0,0-2.48.22.47.47,0,0,0-.11.64.44.44,0,0,0,.62.13,1.58,1.58,0,0,1,1.58-.17A.48.48,0,0,0,487.1,127.64Z" fill="#fc9189"/></svg>