<svg xmlns="http://www.w3.org/2000/svg" width="865.76" height="682.89" viewBox="0 0 865.76 682.89"><g style="isolation:isolate"><g id="ad59914f-51e7-4ebd-8547-bb2fd1bba067" data-name="Layer 1"><path d="M864.23,196.85v11.62h-3.45V196.85H858v11.62H829.38v8.41H818.83v1.4h-3.52V237H801.53V178.43H799.4v38.69H784.92V155.67H777.5V150h-1.68v-.88h-.68V147.5h-1.25V135.61h-.8l-.44-10.39h-.35l-.44,10.39h-.8V147.5h-1.25v1.58h-.68V150h-1.68v5.71H746.8l-11.91,18.51v14.61h-6.51v13.44h-3.89c-.11.24-.21.48-.34.71v23.81h-7.56V216.17l-9.6-5.69V112.93H677V77.33H656.88v35.6H643.06v65.92H630.35v-6.59h-.91v58.42h-4.78V191.4H599v39.28h-4.31v60.54h-1.58v-3.49h-4.34V129h-21V227.7H557.18v1.62h-3.52V250H530.83V208.47h-7.31V196.85H520.7v11.62h-3.46V196.85h-2.82v11.62H485.85v8.41H475.29v1.4h-3.51V237H458V178.43h-2.13v38.69H441.39V161.46H399.54l-8.19,12.72v14.61h-6.5v13.44H381c-.11.24-.21.48-.33.71v23.81h-7.56V216.17l-9.6-5.69V112.93h-30V77.33H313.34v35.6H299.52v65.92H286.81v-6.59h-.9v58.42h-4.78V191.4H255.42v36.3h-8.61V129h-21v45.58H200.21v9.66H189.65v1.61h-3.52v21.47h-1v-35h-.91v6.59H171.48V100.69h-54V210.48l-9.59,5.69v10.58h-7.56V202.94c-.13-.23-.23-.47-.34-.71H96.09V188.79H89.58V174.18L77.67,155.67H57V150H55.34v-.88h-.68V147.5H53.41v-.4l-2.83,0v.44H49.33v1.58h-.68V150H47v5.71H39.55v61.45H25.07V178.43H22.94V237H9.16v-18.7H5.64v-1.4H0V437.33H865.66V196.85Zm-91.94-49.79h-.38V136.4h.38Zm.75,0h-.38V136.4H773Z" fill="#ccc" opacity="0.62" style="mix-blend-mode:multiply"/><polygon points="0 539.77 210.04 433.84 661.65 434.49 865.66 527.54 865.76 682.89 0 682.89 0 539.77" fill="#58595b"/><polygon points="212 433.84 0.2 433.11 0 539.77 212 433.84" fill="#ccc"/><polygon points="661.65 434.49 865.66 434.93 865.66 527.54 661.65 434.49" fill="#ccc"/><polygon points="30.05 575.55 115.83 515 170.66 514.46 85.34 575.55 30.05 575.55" fill="#fff"/><polygon points="123.5 573.67 194.79 574.22 266.62 512.81 213.43 515 123.5 573.67" fill="#fff"/><polygon points="261.13 573.13 311.58 515.55 361.48 514.46 331.87 573.59 261.13 573.13" fill="#fff"/><polygon points="398.77 574.14 410.28 514.54 459.63 515 471.14 573.13 398.77 574.14" fill="#fff"/><polygon points="507.88 515.55 538.59 573.76 609.33 573.13 557.78 514.54 507.88 515.55" fill="#fff"/><polygon points="606.58 515.55 676.77 573.67 749.15 573.67 658.67 515 606.58 515.55" fill="#fff"/><polygon points="704.73 515.55 813.85 573.13 868.49 573.67 756.83 515 704.73 515.55" fill="#fff"/><path d="M178.76,331h-.09a2.55,2.55,0,0,1-2.21-1.2c-.4-.87-.12-2.09.85-3.62l.12-.19,4.22,2.07Zm-1.15-4.3c-.75,1.23-1,2.21-.7,2.84s1.35.86,1.66.88l2.16-2.19Z" fill="#a7a9ac"/><polygon points="207.11 259.95 177.19 326.48 182.89 328.96 207.57 266.76 207.11 259.95" fill="#a7a9ac"/><path d="M218.57,404.3l-46.89-11.21a9.23,9.23,0,0,1-6.81-11.26l11.93-47a12.1,12.1,0,0,1,14.25-8.86l15.38,3.27,13.14,38.67L224.28,384Z" fill="#bcbec0"/><path d="M154.52,507.06c2.72,3.8,13.63,18.28,22.67,18.93a13.81,13.81,0,0,1,3.15-4,22.4,22.4,0,0,0,3.9-3.76,12.4,12.4,0,0,0,1.81-3,14.17,14.17,0,0,1,2.14-3.71c5.17-6.69,19.78-25.34,24.44-28.59,0,0,10.65-10.65,19.08-16.35,0,0,8.18-7.69,10.66-14.13l8.18-23.55-22.81-46.09L212.5,363.25s1.61,14.78,8.55,21.47c0,0-2.23,9.17-1.48,13.38,0,0-2.76,11.72-3.1,19.93a27,27,0,0,1-1.29,6.89,5.05,5.05,0,0,0,.42,4.16,3.43,3.43,0,0,1-.84,2.41,20.75,20.75,0,0,0-3.34,4.87c-.95,2.16-1.79,4.7-1.24,6.06a4.43,4.43,0,0,1,.33,2.58h0a2.85,2.85,0,0,1-1.8,2.09,14.19,14.19,0,0,0-8,7.77s-38.89,45.14-46,50.75A1.06,1.06,0,0,0,154.52,507.06Z" fill="#3f3d56"/><path d="M154.52,507.06c2.72,3.8,13.63,18.28,22.67,18.93a13.81,13.81,0,0,1,3.15-4,22.4,22.4,0,0,0,3.9-3.76,12.4,12.4,0,0,0,1.81-3,14.17,14.17,0,0,1,2.14-3.71c5.17-6.69,19.78-25.34,24.44-28.59,0,0,10.65-10.65,19.08-16.35,0,0,8.18-7.69,10.66-14.13l8.18-23.55-22.81-46.09L212.5,363.25s1.61,14.78,8.55,21.47c0,0-2.23,9.17-1.48,13.38,0,0-2.76,11.72-3.1,19.93a27,27,0,0,1-1.29,6.89,5.05,5.05,0,0,0,.42,4.16,3.43,3.43,0,0,1-.84,2.41,20.75,20.75,0,0,0-3.34,4.87c-.95,2.16-1.79,4.7-1.24,6.06a4.43,4.43,0,0,1,.33,2.58h0a2.85,2.85,0,0,1-1.8,2.09,14.19,14.19,0,0,0-8,7.77s-38.89,45.14-46,50.75A1.06,1.06,0,0,0,154.52,507.06Z" fill="#2f2e41"/><path d="M212.5,363.25s7.79,22.22,19.18,35.45a65.27,65.27,0,0,1,11.25,18.14,215.7,215.7,0,0,0,9.83,21.69,56.07,56.07,0,0,1,5.08,12.16,24.37,24.37,0,0,0,1.32,3.63,59.74,59.74,0,0,1,4.27,12.75c3.33,16.14,10.71,50.33,15.58,60.66,0,0,.4,8,3.62,11.67l.8,9.26s5-.35,7.62,1.2c0,0,1.81.52,5.44-1.55L314.9,538.2s-7.26-14-12.71-17.37c0,0-2.07-1.3-.25-5.19,0,0,3.37-3.63.51-12.18l-2.2-6.12a57.81,57.81,0,0,1-3.4-15.24c-.2-2.61-.81-5.59-2.41-7.61a5,5,0,0,1-.9-4.59,4.73,4.73,0,0,1,1.33-2,4.61,4.61,0,0,0,1.4-2.65c.43-2.53.29-7.66-3.15-17.51,0,0-8.81-41-15.55-56,0,0-7.26-17.11-7.26-20.23a58.17,58.17,0,0,0,.77-9.59s-1.46,1.31-5,.87a12.75,12.75,0,0,0-7.52.72s-14.67,3.7-38.27-.34Z" fill="#2f2e41"/><path d="M344.08,247.38a1.34,1.34,0,0,0-1.87.06l-17,17.48s6.63-1.17,9.86-6.37l9.05-9.23a1.34,1.34,0,0,0-.06-1.94Z" fill="#2f2e41"/><path d="M312.63,286.63l-3.56,3L304.8,276.4l1.48-1a5.37,5.37,0,0,0,2.06-2.92A4.11,4.11,0,0,1,310,270l10.44-8.22a8.48,8.48,0,0,1,6.33-1.75l2.69.35a4,4,0,0,1-3.14,2.4,7.25,7.25,0,0,0-4.23,2.58l-.86,1s7.83-2.6,10.63-4.41a18.25,18.25,0,0,0,3.21-3.41s3.62.8,1.41,4.21l-1.2,2,.12.19a4.49,4.49,0,0,1-1.33,6.06l-2.61,1.77s.81,4.82-1.4,6.22a4.93,4.93,0,0,1-4.41,4.82,14.09,14.09,0,0,0-5.25,1.34,11.49,11.49,0,0,1-5,1.62A13.43,13.43,0,0,1,312.63,286.63Z" fill="#f9b499"/><path d="M224.56,217.83S205.7,232.07,207.11,260c0,0,3,37.92-1.2,61.19,0,0-4.39,22.55-7.16,30.74a4.31,4.31,0,0,0,1.13,4.61,8,8,0,0,0,2,1.36s4.77,3,7.66,4.47a9.85,9.85,0,0,0,2.95.93c5.94.93,32.84,4.73,46.39.19a14.91,14.91,0,0,1,7.13-.69l.07,0a9.76,9.76,0,0,0,9.6-4.15,18.67,18.67,0,0,0,1.93-3.8,18.07,18.07,0,0,0,.86-8.6l-6.38-48.75s-5.61-44.54-14.44-56l-.82-8.1-28.27-16.58Z" fill="#f48225" data-secondary="true"/><path d="M231.86,211.91s-.68-2.08,2-1.8l11.89,9.18Z" fill="#f48225" data-secondary="true"/><path d="M231.86,211.91s-.68-2.08,2-1.8l11.89,9.18Z" fill="#fff" opacity="0.2"/><ellipse cx="267.46" cy="195.03" rx="25.83" ry="16.05" transform="translate(33.64 429.33) rotate(-81.16)" fill="#f9b499"/><path d="M251.94,189.41s-.92-3.43-3.56-3.47c-4.36.56-4.16,6.53-4.16,6.53h0c-.33,2.92-.91,7.59-.91,7.59l-6.13-1c.69-3.43-3.77-16.3-3.77-16.3-3.78-19.23,12.35-21.11,12.35-21.11-3.43-6.7,8.93-8.41,8.93-8.41,10-2.55,13.49.56,14.61,2.34a2.65,2.65,0,0,0,1.84,1.12c2.88.54,6.29,3.74,8.13,5.68a4,4,0,0,0,3,1.29c4-.1,3.17,3.47,3.17,3.47-.34,7.89,1.2,6,1.2,6a3.21,3.21,0,0,0,.75-2.75.8.8,0,0,1,1.25-.78,4.22,4.22,0,0,1,1.52,2.85,6.28,6.28,0,0,1-1.16,4.43c-3.39,4.86-7.85,2.77-7.85,2.77-3.09-.17-6.52-6.18-6.52-6.18-.69,1.71.34,2.4.34,2.4a4.27,4.27,0,0,1-3.43-1.2c-3.78-3.09-4.46-1.2-4.46-1.2s3.77,10-9.62,18C257.43,191.53,253.48,193.7,251.94,189.41Z" fill="#2f2e41"/><path d="M257.4,191.66c-3.15,4.33.4,15.75.4,15.75.66,3.57,4.85,3.18,6.89,2.77a.44.44,0,0,1,.45.67c-2.25,4,4,5.05,4,5.05,6.61-1,5.86,4.86,5.86,4.86.58,3.26-.23,4.42-1,4.82a1.61,1.61,0,0,0-.92,1.53c.28,3.26-1,5-2.26,5.88a2.66,2.66,0,0,1-4.1-1.19l0-.05a8.4,8.4,0,0,0-2.5-3.75,6.29,6.29,0,0,0-4.28-1.71,13.7,13.7,0,0,1-6.28-1c-11.43-5.24-7.2-17.62-7.2-17.62,1.25-2.25,1.94-8.11,1.94-8.11s1.18.19,2.6-1.63a36.42,36.42,0,0,1,1.3-8.79S253.05,192.78,257.4,191.66Z" fill="#2f2e41"/><path d="M237.18,199.08s-1.1,8.69-3.3,11c0,0,11.15,8.55,14.78,11.4,0,0-4.55-4.11-2.21-13.85,0,0,1.54-2.72,1.94-8.11,0,0-4.25-.9-4.17-7.08l-.91,7.59S236.72,198.43,237.18,199.08Z" fill="#f9b499"/><path d="M225,218.3a45.94,45.94,0,0,0,2.21-6.62s1.25-2.23,2.83-1.23a47.92,47.92,0,0,0,4.08,2.55c4.29,2.15,11.77,6.06,14.15,8.31a94.23,94.23,0,0,1,8.56,9,3.65,3.65,0,0,1,.45,3.58c-.49,1.24-1.29,2.65-2.39,2.87,0,0-2.81,2-2,3.61,0,0-4.82-8.62-9.83-11C243.09,229.33,232.05,220.91,225,218.3Z" fill="#f48225" data-secondary="true"/><path d="M225,218.3a45.94,45.94,0,0,0,2.21-6.62s1.25-2.23,2.83-1.23a47.92,47.92,0,0,0,4.08,2.55c4.29,2.15,11.77,6.06,14.15,8.31a94.23,94.23,0,0,1,8.56,9,3.65,3.65,0,0,1,.45,3.58c-.49,1.24-1.29,2.65-2.39,2.87,0,0-2.81,2-2,3.61,0,0-4.82-8.62-9.83-11C243.09,229.33,232.05,220.91,225,218.3Z" fill="#fff" opacity="0.2"/><path d="M300.39,279.61l4.41-3.21s6,12,5.62,20.06l-2,1s-.8-4.62-3.21-7.43C305.2,290,303.19,281.64,300.39,279.61Z" fill="#2f2e41"/><path d="M216.65,256.61s-3.88,25.78,3.14,44.22A88.12,88.12,0,0,1,225.93,331c.15,11-1,24-5.69,33.26,0,0,26.24,3.66,38.65-.79,0,0,4.76-1.86,7.2-.67,0,0,13.78,1.59,12.39-16.55l-4.71-33.87S229.35,280.62,216.65,256.61Z" opacity="0.2"/><path d="M283.94,557.85s-2,1.76-1.76,5.71l21.51.88.22-2.42,11.2,2s4.39,1.53,17.12-1.32c0,0,13.71-3,19-7.19a2,2,0,0,0-.91-3.55l-.09,0s-.85,2.61-8,5.2c0,0-20.16,8-34.17,3.14Z" fill="#2f2e41"/><path d="M157,510.15l-5.2,4.3s5.79,11.87,11.72,11.13c0,0,7.42-.6,11,3l-.15-3.27S168.46,525.13,157,510.15Z" fill="#f9b499"/><path d="M140.71,523.35l-4.15,4.31,13.2,13.05s1.78-2.82,3.12-1.18L163,552.29s5.34,6.82,16.62,7.42c0,0,12.76,1.78,14.39-1.64,0,0,.6-.89-.74-1.63,0,0-4,1.93-13.35.89,0,0-8.79.38-16.06-8.38a98.18,98.18,0,0,0-10.5-12.84Z" fill="#2f2e41"/><ellipse cx="248.39" cy="192.6" rx="4.21" ry="6.95" fill="#f9b499"/><path d="M233.26,236.21a12.59,12.59,0,0,0-9.22,4.25c-4.78,5.39-11.53,16.43-3.09,29.93,0,0,18.05,32.29,31.9,45.13,0,0,3.81,6,15.84,1.81,0,0,18.37-7.75,27.92-12.29a12.7,12.7,0,0,1,5.14-1.21l5.52-.11a1.73,1.73,0,0,0,1.7-1.82c-.17-2.83-.87-8.39-3.77-11.86,0,0-2.2-12.23-7-11.43,0,0-17.65,11.84-33.3,13l-8.48-19.17a18.91,18.91,0,0,1-1.61-6.69C254.38,257.49,251.55,235.89,233.26,236.21Z" fill="#f48225" data-secondary="true"/><path d="M151.84,514.45s-1-2.82-5.93,3.11l-5.2,5.79,12.62,12.76s8.16,8.76,10.23,12.91c0,0,6.53,8.46,16.33,8.31,0,0,9.49.89,13.35-.89,0,0,2.23-4.3-6.38-6.23a32.52,32.52,0,0,1-7-1.33,2.85,2.85,0,0,1-1.88-2.19,2.34,2.34,0,0,0-1.36-1.91.8.8,0,0,1-.48-1.1c1-2,2.65-7.14-1.57-15.13,0,0-3.42-3.57-11-3C163.56,525.58,158.37,527.36,151.84,514.45Z" fill="#f48225" data-secondary="true"/><path d="M283.43,548.66s-1.91,7,.51,9.19l24.14,2.41a43.82,43.82,0,0,0,25.69-.65s14.92-3.3,16.46-7.69c0,0-.44-3.95-9.22-3.29,0,0-9.22.66-15.58-2.63a31.82,31.82,0,0,0-10.53-7.8l-19.55,10.65s-.14.55-3.27.72a5.79,5.79,0,0,1-1.94-.25A21.09,21.09,0,0,0,283.43,548.66Z" fill="#f48225" data-secondary="true"/><polygon points="529.56 250.77 547.32 195.81 571 210.18 529.56 250.77" fill="#686175" data-primary="true"/><polygon points="540.57 253.32 567.64 229.66 575.68 244.91 540.57 253.32" fill="#686175" data-primary="true"/><path d="M600.17,327.44a5.09,5.09,0,0,1-4.76,5l-16.26.87a11.42,11.42,0,0,0-7.56,4.1l-1.11,1.52c-1.55,2.11-2.81,1.7-2.81-.92V322.23a4.77,4.77,0,0,1,4.76-4.76h23a4.78,4.78,0,0,1,4.76,4.76Z" fill="#2f2e41"/><path d="M305.71,327.44a5.09,5.09,0,0,0,4.75,5l16.76.88a11.43,11.43,0,0,1,7.56,4.09l1.11,1.52c1.55,2.11,2.81,1.7,2.81-.92V322.23a4.77,4.77,0,0,0-4.76-4.76H310.47a4.77,4.77,0,0,0-4.76,4.76Z" fill="#2f2e41"/><path d="M600.17,323.91a5.09,5.09,0,0,1-4.76,5l-16.26.88a11.41,11.41,0,0,0-7.56,4.09l-1.11,1.52c-1.55,2.12-2.81,1.7-2.81-.92V318.7a4.77,4.77,0,0,1,4.76-4.76h23a4.78,4.78,0,0,1,4.76,4.76Z" fill="#686175" data-primary="true"/><path d="M305.71,323.91a5.09,5.09,0,0,0,4.75,5l16.76.88a11.43,11.43,0,0,1,7.56,4.09l1.11,1.52c1.55,2.12,2.81,1.7,2.81-.92V318.7a4.78,4.78,0,0,0-4.76-4.76H310.47a4.78,4.78,0,0,0-4.76,4.76Z" fill="#686175" data-primary="true"/><path d="M359.72,472.16v-23.4l-.69-.56-38.17-.35V394.93l-.07-.05c-2.42.73-4.11,2.34-4.11,4.2V471c0,2.54,4.11,5.82,7.94,5.82h28.13C356.59,476.78,359.72,474.7,359.72,472.16Z" fill="#2f2e41"/><path d="M359.72,450.38V427l-.69-.61-38.17-3.15V370.3l-.07-.06c-2.42.58-4.11,2.08-4.11,3.95v77.89c0,2.54,4.11,6.08,7.94,6.32l28.13-3.84C356.59,454.8,359.72,452.92,359.72,450.38Z" fill="#2f2e41"/><path d="M545.35,472.16v-23.4l.7-.56,38.16-.35V394.93l.07-.05c2.42.73,4.11,2.34,4.11,4.2V471c0,2.54-4.11,5.82-7.94,5.82H552.32C548.48,476.78,545.35,474.7,545.35,472.16Z" fill="#2f2e41"/><path d="M545.35,450.38V424.57l.7-.61,38.16-3.15V367.89l.08-.05c2.41.57,4.1,2.08,4.1,3.94v71.88c0,2.54-4.11,6.08-7.94,6.32l-28.13,4.58C548.49,454.8,545.35,452.92,545.35,450.38Z" fill="#2f2e41"/><path d="M551.28,283.75c-4-10.1-13.1-20.65-24.7-22.88-9.8-1.71-19.12-2.81-29.07-3.58a783.85,783.85,0,0,0-89.38,0,280.92,280.92,0,0,0-28.08,3.58c-11.7,2.24-19.51,12-24.71,22.88-7.6,16.75-13.75,29.25-19.95,46.16,9.88-1.33,19.66-3.18,29.44-5a475.42,475.42,0,0,1,176,0c9.79,1.86,19.57,3.71,29.45,5C564.05,313,558.41,301.27,551.28,283.75Z" fill="#686175" data-primary="true"/><path d="M526.58,261.79c-9.8-1.71-19.12-2.81-29.07-3.57a779.28,779.28,0,0,0-89.38,0,278,278,0,0,0-28.08,3.57c-7.27,1.39-13,5.69-17.61,11.36a29.46,29.46,0,0,1,13.93-6.76c10.29-1.7,19.05,6.39,29.5,5.63a865.07,865.07,0,0,1,93.9,0c10.45.76,20.24-7.33,30.54-5.63a31.14,31.14,0,0,1,14.3,7C540,267.74,533.76,263.17,526.58,261.79Z" fill="#686175" data-primary="true"/><path d="M590.44,422.11c0,5-5.54,9-12.31,9H327.51c-6.77,0-12.31-3.86-12.31-8.58V372.94c0-10,3.41-16.45,6.95-22.38l15.43-27c3.82-5.22,12.49-5.35,19.26-5.35h193c6.77,0,14.45.13,18.27,5.35l15.43,23.78c3.82,5.23,7,14.68,7,21v53.77Z" fill="#686175" data-primary="true"/><path d="M590.44,422.11c0,5-5.54,9-12.31,9H327.51c-6.77,0-12.31-3.86-12.31-8.58V372.94c0-10,3.41-16.45,6.95-22.38l15.43-27c3.82-5.22,12.49-5.35,19.26-5.35h193c6.77,0,14.45.13,18.27,5.35l15.43,23.78c3.82,5.23,7,14.68,7,21v53.77Z" opacity="0.1"/><path d="M590.44,398.27c0,6.84.2,27.24,0,33.89-.18,5.73-6.49,9.5-12.29,9.9a1845.75,1845.75,0,0,1-250.66,0c-5.6-.37-12.09-3.85-12.29-9.44-.23-6.47,0-26.74,0-33.43Z" fill="#686175" data-primary="true"/><path d="M348.89,324.24a2.14,2.14,0,0,1-2-2.89c3.44-9.25,6.43-15.63,9.88-23,1.88-4,3.82-8.16,6-13.19,5-11.48,15.22-19.32,26-19.95,8.7-.41,17.32-.79,27.42-1.06,13.4-.33,25.69-.49,37.59-.49s24.12.16,37.48.49c9.78.26,17.72.62,26.91,1.05,11.23.66,20.93,8.12,26,19.94,4.91,10.55,8.05,17.8,11.68,26.2,1.32,3.05,2.71,6.28,4.3,9.91a2.13,2.13,0,0,1-2,3H558c-9.54-.7-19.21-1.31-28.76-1.83-26.8-1.38-51.57-2.06-75.73-2.06s-48.92.68-75.72,2.06c-9.55.52-19.22,1.13-28.76,1.83Z" fill="#686175" data-primary="true"/><path d="M453.77,265.79c12.11,0,24.22.16,37.43.49,9.62.25,17.26.61,26.86,1.05,11,.65,19.64,8.14,24.14,18.68,6.66,14.31,9.94,22.29,16,36.09q-14.4-1.07-28.8-1.84c-26.6-1.37-51.22-2.06-75.85-2.06s-49.25.69-75.83,2.06q-14.42.78-28.8,1.84c5.28-14.18,9.57-21.78,15.86-36.09,4.21-9.62,13.13-18,24.13-18.67,9.61-.45,17.74-.8,27.36-1.06,13.25-.33,25.39-.49,37.53-.49Zm0-4.28c-11.91,0-24.23.16-37.64.49-10.12.27-18.76.65-27.45,1.06h-.05A29.74,29.74,0,0,0,371.55,270a38.47,38.47,0,0,0-10.72,14.3c-2.2,5-4.14,9.13-6,13.13-3.47,7.43-6.47,13.84-9.95,23.17a4.28,4.28,0,0,0,4,5.78h.31c9.53-.7,19.19-1.32,28.72-1.83,26.75-1.38,51.48-2.06,75.6-2.06s48.86.68,75.63,2.06c9.51.51,19.17,1.13,28.7,1.83h.32a4.29,4.29,0,0,0,3.92-6c-1.58-3.63-3-6.85-4.3-9.9-3.63-8.4-6.77-15.66-11.68-26.22-5.39-12.57-15.78-20.5-27.79-21.21h-.06c-9.2-.43-17.15-.79-26.94-1.06-13.39-.32-25.67-.48-37.55-.48Z" fill="#2f2e41"/><path d="M529.66,310.3c-3.56-8.16-5.5-12.87-9.43-21.33-2.66-6.22-7.76-10.65-14.26-11-5.68-.26-10.19-.47-15.87-.62-15.64-.39-58.2-.39-73.84,0-5.68.15-10.48.36-16.16.62-6.5.39-11.77,5.35-14.26,11-3.71,8.45-6.25,12.94-9.37,21.32Z" fill="#686175" data-primary="true"/><path d="M417.27,307.69H381.53c-5.42,0-9.85,4.14-9.85,9.21v3.85l5.55-.31c17.28-.89,33.73-1.49,49.89-1.81V316.9C427.12,311.83,422.68,307.69,417.27,307.69Z" fill="#2f2e41"/><rect x="380.89" y="293.59" width="36.58" height="21.17" rx="7.14" fill="#2f2e41"/><path d="M492.51,307.69h35.73c5.42,0,9.85,4.14,9.85,9.21v3.85l-5.54-.31c-17.28-.89-33.73-1.49-49.89-1.81V316.9C482.66,311.83,487.09,307.69,492.51,307.69Z" fill="#2f2e41"/><rect x="491.68" y="293.59" width="36.58" height="21.17" rx="7.14" fill="#2f2e41"/><g opacity="0.2"><path d="M512,310.38a23.74,23.74,0,0,0-20.63,11.51l6.32.18a18.74,18.74,0,0,1,29.51,1.18l4.71.23,1.6.09A23.6,23.6,0,0,0,512,310.38Z"/></g><path d="M573.62,347.33l-11.84-21.08q-8.62-.56-17.25-1a1765.94,1765.94,0,0,0-182.92,0c-5,.26-10,.56-15,.87-1.25.08-3.71.49-5,2.49s-10.53,18.74-10.53,18.74A42.42,42.42,0,0,0,325.87,360c-.74,3-.27,4.88,3.42,4.88l43.17,4.62L392,391.78c.11.15,1.13,1,1.13,1a4.21,4.21,0,0,0,2.22.72q57.36.65,114.74,0c1.68,0,4-3.17,4.06-3.33l18.15-20.72,37.34-3.82c11.82,0,9.86-3.49,8.94-6.85A41.23,41.23,0,0,0,573.62,347.33Z" fill="#686175" data-primary="true"/><path d="M374.05,325.57c-.91,2.34-7.45,22-7.45,22-1.53,3.75-3.53,16.3-8.7,16.3-3.76,0,4.79,4.29,7.41,4.29l3.57.63s8.72-34.61,11.63-44.44l-6,.25A5.37,5.37,0,0,0,374.05,325.57Z" opacity="0.2"/><path d="M529.37,325.57c.9,2.34,7.44,22,7.44,22,1.53,3.75,3.53,16.3,8.7,16.3,3.77,0-4.79,4.29-7.4,4.29l-3.58.63s-8.71-34.61-11.63-44.44l6,.25A6.14,6.14,0,0,1,529.37,325.57Z" fill="#e6e7e8" opacity="0.4" style="mix-blend-mode:screen"/><path d="M573.62,347.33l-11.84-21.08q-8.62-.56-17.25-1-45.82-2.37-91.66-2.37v71q28.59,0,57.2-.33c1.68,0,4-3.17,4.06-3.33l18.15-20.72,37.34-3.82c11.82,0,9.86-3.49,8.94-6.85A41.23,41.23,0,0,0,573.62,347.33Z" fill="#f1f2f2" opacity="0.4" style="mix-blend-mode:screen"/><path d="M512.94,385.55c-1.21,2-3.5,3.65-5.13,3.67-36.8.55-73.42.55-110.23,0-1.63,0-3.91-1.66-5.13-3.67l-8.32-13.87c-1.46-2.44-1.2-4.46.62-4.42,45.4.84,90.49.84,135.9,0,1.82,0,2.07,2,.61,4.41C517.78,377.5,516.11,380.27,512.94,385.55Z" fill="#3d3d3d"/><path d="M378.63,390.34c-16.35-.21-29.56-.5-44.87-.83l-8.68-.19a7.71,7.71,0,0,1-5.46-2.25,5,5,0,0,1-1.39-3.59c.09-2.16.07-4.38,0-6.52s0-4.49.05-6.76c.14-3.05,3.22-5.44,7-5.44h.2l12.19.28c7.61.17,14.79.34,23.65.49A12.52,12.52,0,0,1,370,369.3c4.42,5.28,8.48,10.07,12.42,14.62a3.74,3.74,0,0,1,.86,4.14c-.39.85-1.49,2.28-4.52,2.28Z" fill="#eae9e7"/><path d="M325.35,366.9h.15c13.26.29,22.58.55,35.85.77a10.47,10.47,0,0,1,7,3q6.17,7.35,12.44,14.64c1.38,1.59.46,2.88-2,2.88h-.09c-19.32-.25-34.21-.61-53.52-1-2.68-.05-4.85-1.68-4.76-3.6.19-4.43-.1-8.85.09-13.28.09-1.89,2.29-3.39,4.89-3.39Zm0-4.28h0c-5,0-9,3.29-9.17,7.48-.1,2.33-.07,4.64-.05,6.88s.05,4.31,0,6.4a7,7,0,0,0,2,5.15,9.81,9.81,0,0,0,7,2.93l8.69.19c15.31.33,28.53.62,44.88.83h.14c4.38,0,6-2.47,6.47-3.53a5.93,5.93,0,0,0-1.19-6.43c-3.94-4.56-8-9.33-12.4-14.59a14.63,14.63,0,0,0-10.2-4.54c-8.85-.15-16-.32-23.65-.49l-12.18-.28Z" fill="#686175" data-primary="true"/><path d="M325.35,366.9h.15c13.26.29,22.58.55,35.85.77a10.47,10.47,0,0,1,7,3q6.17,7.35,12.44,14.64c1.38,1.59.46,2.88-2,2.88h-.09c-19.32-.25-34.21-.61-53.52-1-2.68-.05-4.85-1.68-4.76-3.6.19-4.43-.1-8.85.09-13.28.09-1.89,2.29-3.39,4.89-3.39Zm0-4.28h0c-5,0-9,3.29-9.17,7.48-.1,2.33-.07,4.64-.05,6.88s.05,4.31,0,6.4a7,7,0,0,0,2,5.15,9.81,9.81,0,0,0,7,2.93l8.69.19c15.31.33,28.53.62,44.88.83h.14c4.38,0,6-2.47,6.47-3.53a5.93,5.93,0,0,0-1.19-6.43c-3.94-4.56-8-9.33-12.4-14.59a14.63,14.63,0,0,0-10.2-4.54c-8.85-.15-16-.32-23.65-.49l-12.18-.28Z" opacity="0.3"/><path d="M526,390.34c-3,0-4.13-1.43-4.52-2.28a3.75,3.75,0,0,1,.87-4.14c3.93-4.56,8-9.34,12.41-14.62a12.53,12.53,0,0,1,8.6-3.77c8.85-.15,16-.32,23.64-.49l12.2-.28h.19c3.81,0,6.89,2.39,7,5.44.1,2.27.07,4.55,0,6.75s0,4.37,0,6.53a4.92,4.92,0,0,1-1.39,3.59,7.69,7.69,0,0,1-5.46,2.25l-8.68.19c-15.31.33-28.52.62-44.87.83Z" fill="#eae9e7"/><path d="M579.35,366.9c2.6,0,4.8,1.5,4.89,3.39.19,4.43-.1,8.85.09,13.28.09,1.92-2.07,3.55-4.76,3.6-19.31.42-34.2.78-53.52,1H526c-2.49,0-3.41-1.29-2-2.88q6.29-7.29,12.44-14.64a10.47,10.47,0,0,1,7-3c13.27-.22,22.59-.48,35.85-.77Zm0-4.28h-.24l-12.18.28c-7.61.17-14.8.34-23.65.49a14.67,14.67,0,0,0-10.2,4.54c-4.41,5.27-8.47,10-12.4,14.59a5.93,5.93,0,0,0-1.19,6.43c.49,1.06,2.09,3.53,6.47,3.53h.14c16.37-.21,29.61-.5,44.93-.83l8.64-.19a9.81,9.81,0,0,0,7-2.93,7,7,0,0,0,2-5.15c-.09-2.09-.07-4.19,0-6.4s0-4.55-.05-6.88c-.19-4.19-4.21-7.48-9.17-7.48Z" fill="#686175" data-primary="true"/><path d="M579.35,366.9c2.6,0,4.8,1.5,4.89,3.39.19,4.43-.1,8.85.09,13.28.09,1.92-2.07,3.55-4.76,3.6-19.31.42-34.2.78-53.52,1H526c-2.49,0-3.41-1.29-2-2.88q6.29-7.29,12.44-14.64a10.47,10.47,0,0,1,7-3c13.27-.22,22.59-.48,35.85-.77Zm0-4.28h-.24l-12.18.28c-7.61.17-14.8.34-23.65.49a14.67,14.67,0,0,0-10.2,4.54c-4.41,5.27-8.47,10-12.4,14.59a5.93,5.93,0,0,0-1.19,6.43c.49,1.06,2.09,3.53,6.47,3.53h.14c16.37-.21,29.61-.5,44.93-.83l8.64-.19a9.81,9.81,0,0,0,7-2.93,7,7,0,0,0,2-5.15c-.09-2.09-.07-4.19,0-6.4s0-4.55-.05-6.88c-.19-4.19-4.21-7.48-9.17-7.48Z" opacity="0.3"/><path d="M537.12,407c-29.82,1.2-54.72,1.8-84.54,1.81S397.85,408.17,368,407c-2.71-.11-5,1-4.92,4.39.13,6.37,1.69,11.14,4.64,18.39,1.37,2.85,3,5.36,6.57,5.59,29.76,1.85,50.9,1.74,78.25,1.74s48.48.11,78.24-1.74c3.59-.23,5.2-2.74,6.57-5.59,3-7.25,4.51-12,4.65-18.39C542.11,408,539.82,406.86,537.12,407Z" fill="#2f2e41"/><path d="M576.35,405.14c-9.09.49-14.67.65-22.79.95a4.63,4.63,0,0,0-4.74,3.76l-3.42,20.83s-1.08,4.2,5.06,4.17a162.11,162.11,0,0,0,20-1.27c7.44-.95,9.78-17.17,10.83-24.12C581.85,406.12,579.06,405,576.35,405.14Z" fill="#2f2e41"/><path d="M328.8,405.14c9.09.49,14.67.65,22.79.95a4.63,4.63,0,0,1,4.74,3.76l3.42,20.83s1.08,4.2-5.06,4.17a162,162,0,0,1-20-1.27c-7.45-.95-9.79-17.17-10.84-24.12C323.3,406.12,326.09,405,328.8,405.14Z" fill="#2f2e41"/><path d="M368,416.18c29.81,1.2,54.71,1.8,84.54,1.81s54.72-.61,84.54-1.81a4.61,4.61,0,0,1,4.21,1.64,35.89,35.89,0,0,0,.71-6.46c.07-3.38-2.22-4.5-4.92-4.39-29.82,1.2-54.72,1.8-84.54,1.81S397.85,408.17,368,407c-2.71-.11-5,1-4.92,4.39a35.9,35.9,0,0,0,.7,6.46A4.62,4.62,0,0,1,368,416.18Z" opacity="0.2"/><path d="M551.32,415.8c10-.38,16.83-.57,28-1.17a9.29,9.29,0,0,1,1.18,0c.35-2,.62-3.76.83-5.17.51-3.34-2.28-4.47-5-4.32-9.09.49-14.67.65-22.79.95a4.63,4.63,0,0,0-4.74,3.76l-1.16,7.1A6.45,6.45,0,0,1,551.32,415.8Z" opacity="0.2"/><path d="M328.8,405.14c9.09.49,14.67.65,22.79.95a4.63,4.63,0,0,1,4.74,3.76l3.42,20.83s1.08,4.2-5.06,4.17a162,162,0,0,1-20-1.27c-7.45-.95-9.79-17.17-10.84-24.12C323.3,406.12,326.09,405,328.8,405.14Z" fill="#2f2e41"/><path d="M324.83,415.68a6.35,6.35,0,0,1,4.65-1.34c10.33.56,16.67.74,25.89,1.09a6.73,6.73,0,0,1,1.93.34l-1-5.92a4.63,4.63,0,0,0-4.74-3.76c-8.12-.3-13.7-.46-22.79-.95-2.71-.15-5.5,1-5,4.32C324.06,411.12,324.39,413.3,324.83,415.68Z" opacity="0.2"/><path d="M512.94,385.55c-1.21,2-3.5,3.65-5.13,3.67-36.8.55-73.42.55-110.23,0-1.63,0-3.91-1.66-5.13-3.67l-8.32-13.87c-1.46-2.44-1.2-4.46.62-4.42,45.4.84,90.49.84,135.9,0,1.82,0,2.07,2,.61,4.41C517.78,377.5,516.11,380.27,512.94,385.55Z" fill="#2f2e41"/><path d="M384.56,372.4c45.51.78,90.76.78,136.27,0l.43-.73c1.46-2.43,1.21-4.45-.61-4.41-45.41.84-90.5.84-135.9,0-1.82,0-2.08,2-.62,4.42Z" opacity="0.2"/><g opacity="0.6" style="mix-blend-mode:overlay"><path d="M487.75,316a1.16,1.16,0,0,1-1.21,1.38L457.17,317a1.61,1.61,0,0,1-1.55-1.44l-4.11-46.71a1.24,1.24,0,0,1,1.19-1.42h.66c8.69,0,25.22.23,25.22.23a1.78,1.78,0,0,1,1.66,1.43Z" fill="#f1f2f2"/></g><g opacity="0.6" style="mix-blend-mode:overlay"><path d="M527.7,317.66a.83.83,0,0,1-.87,1.25L505.56,318a2,2,0,0,1-1.77-1.44L492.13,269.3a1,1,0,0,1,1.08-1.34l12.22.44a2.47,2.47,0,0,1,2,1.37Z" fill="#f1f2f2"/></g><g opacity="0.6" style="mix-blend-mode:multiply"><path d="M378,319.05l3.78-.19a2.21,2.21,0,0,0,1.82-1.37l16.57-48.75a.88.88,0,0,0-.93-1.25s-6.3.27-10.44.47h0a7.54,7.54,0,0,0-.61,1.28l-20.84,49.2a.78.78,0,0,0,.84,1.18S374.3,319.25,378,319.05Z" fill="#e6e7e8"/></g><ellipse cx="545.49" cy="379.66" rx="5.43" ry="5.08" fill="#3d3d3d" opacity="0.3"/><ellipse cx="566.5" cy="377.49" rx="7.76" ry="7.25" fill="#3d3d3d" opacity="0.3"/><ellipse cx="357.39" cy="379.66" rx="5.43" ry="5.08" fill="#3d3d3d" opacity="0.3"/><ellipse cx="336.38" cy="377.49" rx="7.76" ry="7.25" fill="#3d3d3d" opacity="0.3"/><g opacity="0.5" style="mix-blend-mode:overlay"><path d="M553.54,387.73c7.93-.16,8.51.12,17.37-.07l-6.58-20.13c-8.51.2-8.45-.08-17.37.08Z" fill="#fafafa"/></g><g opacity="0.5" style="mix-blend-mode:overlay"><path d="M332.92,367.07l6.67,20.42c7.53.16,14.68.31,22.14.45l-6.66-20.38C347.29,367.41,340.59,367.25,332.92,367.07Z" fill="#fafafa"/></g><g opacity="0.4"><path d="M575.63,315.66c-1.31,0-2.38.72-2.38,1.61s1.07,1.61,2.38,1.61h16.51a2.39,2.39,0,0,1,2.38,2.38v.61c0,1.31.77,2.38,1.72,2.38s1.72-1.07,1.72-2.38V318a2.39,2.39,0,0,0-2.38-2.38Z" fill="#fafafa"/></g><g opacity="0.4"><path d="M321.48,315.66c1.31,0,2.38.72,2.38,1.61s-1.07,1.61-2.38,1.61H311.37c-1.31,0-2.38-.72-2.38-1.61s1.07-1.61,2.38-1.61Z" fill="#fafafa"/></g><g style="mix-blend-mode:screen"><g opacity="0.8"><path d="M555.23,369.44c-1.31,0-2.38.66-2.38,1.42s1.07,1.36,2.38,1.34l21.92-.38a2.34,2.34,0,0,1,2.38,2.34v5.67c0,1.3.67,2.38,1.48,2.38s1.48-1.08,1.48-2.38V371.4a2.35,2.35,0,0,0-2.38-2.35Z" fill="#fafafa"/></g></g><rect x="797.66" y="240.64" width="7.07" height="204.89" fill="#bcbec0"/><path d="M824.82,460.79H777.05v-1a5.2,5.2,0,0,1,.22-1.48h-5.73l1.76,4.52,51.57,0h1.94l1.7-4.42h-3.89a5.61,5.61,0,0,1,.2,1.43Z" fill="#e6e7e8"/><polygon points="774.14 120.72 772.45 120.75 763.66 120.92 770.12 131.57 775.62 140.64 774.14 120.72" fill="#2f2e41"/><polygon points="826.47 120.78 822.92 120.72 821.82 143.11 828.8 131.6 835.26 120.95 826.47 120.78" fill="#2f2e41"/><g opacity="0.2"><polygon points="774.14 120.72 772.45 120.75 763.66 120.92 770.12 131.57 775.62 140.64 774.14 120.72"/><polygon points="826.47 120.78 822.92 120.72 821.82 143.11 828.8 131.6 835.26 120.95 826.47 120.78"/></g><polygon points="776.78 156.11 774.54 156.15 765.75 156.32 772.21 166.97 778.34 177.08 776.78 156.11" fill="#2f2e41"/><polygon points="824.37 156.17 821.18 156.11 820.1 177.88 826.71 166.99 833.17 156.34 824.37 156.17" fill="#2f2e41"/><g opacity="0.2"><polygon points="776.78 156.11 774.54 156.15 765.75 156.32 772.21 166.97 778.34 177.08 776.78 156.11"/><polygon points="824.37 156.17 821.18 156.11 820.1 177.88 826.71 166.99 833.17 156.34 824.37 156.17"/></g><polygon points="779.42 191.51 776.63 191.56 767.84 191.73 774.3 202.38 781.06 213.52 779.42 191.51" fill="#2f2e41"/><polygon points="822.28 191.56 819.43 191.51 818.39 212.64 824.62 202.38 831.08 191.73 822.28 191.56" fill="#2f2e41"/><g opacity="0.2"><polygon points="779.42 191.51 776.63 191.56 767.84 191.73 774.3 202.38 781.06 213.52 779.42 191.51"/><polygon points="822.28 191.56 819.43 191.51 818.39 212.64 824.62 202.38 831.08 191.73 822.28 191.56"/></g><path d="M791.24,230.61v3a3,3,0,0,0,.27,1.25,3.19,3.19,0,0,0,1.78,1.64v2a2.1,2.1,0,0,0,.62,1.47,2.24,2.24,0,0,0,1.59.66h9.86a2.18,2.18,0,0,0,2.21-2.13v-2a3.12,3.12,0,0,0,1.89-2.83v-3.29Z" fill="#2f2e41"/><path d="M821.18,156.11l.64-13,1.1-22.39.37-7.55-.11.07-49.57.91.53,7.11,1.48,19.92,1.16,15.46,1.56,21L779.42,192l1.64,22,.77,10.32,36.06-1.52.5-10.18,1-21.13.67-13.64Zm-8,53a12.34,12.34,0,0,1-1.06,2.34,13.53,13.53,0,0,1-11.71,6.6,13.23,13.23,0,0,1-13.44-13,12.94,12.94,0,0,1,7.22-11.52,13.65,13.65,0,0,1,6.22-1.48,13.89,13.89,0,0,1,4.06.6,13.07,13.07,0,0,1,9.39,12.4A12.46,12.46,0,0,1,813.16,209.14ZM814,176.4a14.38,14.38,0,0,1-1.17,2.55,14.79,14.79,0,0,1-12.79,7.22A14.47,14.47,0,0,1,785.36,172a14.15,14.15,0,0,1,7.89-12.6,15.15,15.15,0,0,1,11.24-1A14.29,14.29,0,0,1,814.76,172,14,14,0,0,1,814,176.4Zm1-34.55a15.88,15.88,0,0,1-1.29,2.81,16.28,16.28,0,0,1-14.1,8,15.94,15.94,0,0,1-16.2-15.67,15.61,15.61,0,0,1,8.7-13.89,16.52,16.52,0,0,1,7.5-1.78,16.72,16.72,0,0,1,4.89.72,15.76,15.76,0,0,1,11.32,15A15.14,15.14,0,0,1,815.05,141.85Z" fill="#2f2e41"/><path d="M804.55,122a16.72,16.72,0,0,0-4.89-.72,16.52,16.52,0,0,0-7.5,1.78,15.61,15.61,0,0,0-8.7,13.89,15.94,15.94,0,0,0,16.2,15.67,16.28,16.28,0,0,0,14.1-8,15.88,15.88,0,0,0,1.29-2.81,15.14,15.14,0,0,0,.82-4.91A15.76,15.76,0,0,0,804.55,122Zm8.23,18.94a12.83,12.83,0,0,1-1.68,3.4,13.86,13.86,0,0,1-11.44,5.91,13.53,13.53,0,0,1-13.75-13.3,13.17,13.17,0,0,1,5.84-10.88,14.19,14.19,0,0,1,11.84-1.87,13.39,13.39,0,0,1,9.83,12.75A12.87,12.87,0,0,1,812.78,140.93Z" fill="#2f2e41"/><path d="M804.55,122a16.72,16.72,0,0,0-4.89-.72,16.52,16.52,0,0,0-7.5,1.78,15.61,15.61,0,0,0-8.7,13.89,15.94,15.94,0,0,0,16.2,15.67,16.28,16.28,0,0,0,14.1-8,15.88,15.88,0,0,0,1.29-2.81,15.14,15.14,0,0,0,.82-4.91A15.76,15.76,0,0,0,804.55,122Zm8.23,18.94a12.83,12.83,0,0,1-1.68,3.4,13.86,13.86,0,0,1-11.44,5.91,13.53,13.53,0,0,1-13.75-13.3,13.17,13.17,0,0,1,5.84-10.88,14.19,14.19,0,0,1,11.84-1.87,13.39,13.39,0,0,1,9.83,12.75A12.87,12.87,0,0,1,812.78,140.93Z" opacity="0.2"/><path d="M803.59,124.19a14.19,14.19,0,0,0-11.84,1.87,13.17,13.17,0,0,0-5.84,10.88,13.53,13.53,0,0,0,13.75,13.3,13.86,13.86,0,0,0,11.44-5.91,13.11,13.11,0,0,0,2.32-7.39A13.39,13.39,0,0,0,803.59,124.19Z" fill="#fe4f4a"/><path d="M804.49,158.39a15.15,15.15,0,0,0-11.24,1,14.15,14.15,0,0,0-7.89,12.6,14.47,14.47,0,0,0,14.7,14.22A14.79,14.79,0,0,0,812.85,179,14.38,14.38,0,0,0,814,176.4a14,14,0,0,0,.74-4.45A14.29,14.29,0,0,0,804.49,158.39ZM812,175.57a12.2,12.2,0,0,1-1.53,3.09A12.59,12.59,0,0,1,800.06,184,12.28,12.28,0,0,1,787.58,172a11.92,11.92,0,0,1,5.3-9.87,12.73,12.73,0,0,1,7.18-2.2,13,13,0,0,1,3.56.5A12.14,12.14,0,0,1,812.53,172,11.72,11.72,0,0,1,812,175.57Z" fill="#2f2e41"/><path d="M804.49,158.39a15.15,15.15,0,0,0-11.24,1,14.15,14.15,0,0,0-7.89,12.6,14.47,14.47,0,0,0,14.7,14.22A14.79,14.79,0,0,0,812.85,179,14.38,14.38,0,0,0,814,176.4a14,14,0,0,0,.74-4.45A14.29,14.29,0,0,0,804.49,158.39ZM812,175.57a12.2,12.2,0,0,1-1.53,3.09A12.59,12.59,0,0,1,800.06,184,12.28,12.28,0,0,1,787.58,172a11.92,11.92,0,0,1,5.3-9.87,12.73,12.73,0,0,1,7.18-2.2,13,13,0,0,1,3.56.5A12.14,12.14,0,0,1,812.53,172,11.72,11.72,0,0,1,812,175.57Z" opacity="0.2"/><path d="M803.62,160.38a13,13,0,0,0-3.56-.5,12.73,12.73,0,0,0-7.18,2.2,11.92,11.92,0,0,0-5.3,9.87A12.28,12.28,0,0,0,800.06,184a12.59,12.59,0,0,0,10.37-5.36,12.2,12.2,0,0,0,1.53-3.09,11.72,11.72,0,0,0,.57-3.62A12.14,12.14,0,0,0,803.62,160.38Z" fill="#f9e014"/><path d="M804.45,192.67a13.89,13.89,0,0,0-4.06-.6,13.65,13.65,0,0,0-6.22,1.48A12.94,12.94,0,0,0,787,205.07a13.23,13.23,0,0,0,13.44,13,13.53,13.53,0,0,0,11.71-6.6,12.93,12.93,0,0,0,1.74-6.41A13.07,13.07,0,0,0,804.45,192.67Zm6.83,15.71a11,11,0,0,1-1.4,2.83,11.52,11.52,0,0,1-9.49,4.9,11.23,11.23,0,0,1-11.41-11,10.94,10.94,0,0,1,4.85-9,11.67,11.67,0,0,1,6.56-2,12.13,12.13,0,0,1,3.27.46,11.1,11.1,0,0,1,8.15,10.58A10.62,10.62,0,0,1,811.28,208.38Z" fill="#2f2e41"/><path d="M804.45,192.67a13.89,13.89,0,0,0-4.06-.6,13.65,13.65,0,0,0-6.22,1.48A12.94,12.94,0,0,0,787,205.07a13.23,13.23,0,0,0,13.44,13,13.53,13.53,0,0,0,11.71-6.6,12.93,12.93,0,0,0,1.74-6.41A13.07,13.07,0,0,0,804.45,192.67Zm6.83,15.71a11,11,0,0,1-1.4,2.83,11.52,11.52,0,0,1-9.49,4.9,11.23,11.23,0,0,1-11.41-11,10.94,10.94,0,0,1,4.85-9,11.67,11.67,0,0,1,6.56-2,12.13,12.13,0,0,1,3.27.46,11.1,11.1,0,0,1,8.15,10.58A10.62,10.62,0,0,1,811.28,208.38Z" opacity="0.2"/><path d="M803.66,194.49a12.13,12.13,0,0,0-3.27-.46,11.67,11.67,0,0,0-6.56,2,10.94,10.94,0,0,0-4.85,9,11.23,11.23,0,0,0,11.41,11,11.52,11.52,0,0,0,9.49-4.9,11,11,0,0,0,1.4-2.83,10.62,10.62,0,0,0,.53-3.31A11.1,11.1,0,0,0,803.66,194.49Z" fill="#a3dc7e"/><polygon points="823.29 113.17 827.4 110.21 768.99 111.54 773.6 114.15 773.61 114.15 823.18 113.24 823.29 113.17" fill="#2f2e41"/><polygon points="823.29 113.17 827.4 110.21 768.99 111.54 773.6 114.15 773.61 114.15 823.18 113.24 823.29 113.17" opacity="0.2"/><polygon points="781.83 224.34 778.69 227.37 820.64 225.85 817.89 222.82 781.83 224.34" fill="#2f2e41"/><polygon points="781.83 224.34 778.69 227.37 820.64 225.85 817.89 222.82 781.83 224.34" opacity="0.2"/><polygon points="778.69 227.37 778.89 230.78 791.24 230.61 809.46 230.36 819.85 230.21 820.64 225.85 778.69 227.37" fill="#2f2e41"/><polygon points="826.51 106.92 769.81 108.19 768.79 111.54 827.3 110.21 826.51 106.92" fill="#2f2e41"/><path d="M805.52,443.09h-9.17a3.06,3.06,0,0,0-2.58,1.38,2.88,2.88,0,0,0-.48,1.58v2.59h15.29v-2.59A3,3,0,0,0,805.52,443.09Z" fill="#2f2e41"/><path d="M787.31,450.6a3.89,3.89,0,0,0-.6,2.08v1.85h-4.34a5.31,5.31,0,0,0-5.1,3.83,5.2,5.2,0,0,0-.22,1.48v1h47.77v-1a5.61,5.61,0,0,0-.2-1.43,5.32,5.32,0,0,0-5.12-3.88h-4.34v-1.85a4.11,4.11,0,0,0-4.17-4H790.88a4.21,4.21,0,0,0-3.57,2" fill="#2f2e41"/><path d="M826.6,462.84h-1.73l-51.57,0-2,3.89,56.94.19-1.47-4.11Z" fill="#d1d3d4"/><g opacity="0.2"><path d="M781.17,135.49s14.51-10.62,35.81-3.16c-5.23-9.36-6.28-13.27-19.73-13S781.17,135.49,781.17,135.49Z" fill="#2f2e41"/></g><path d="M818.82,136.62H817c0-9.27-7.82-16.82-17.43-16.82s-17.42,7.55-17.42,16.82h-1.87c0-10.3,8.66-18.68,19.29-18.68S818.82,126.32,818.82,136.62Z" fill="#fff"/><g opacity="0.2"><path d="M783.53,170.38s13.11-9.59,32.36-2.85c-4.73-8.46-5.67-12-17.84-11.77S783.53,170.38,783.53,170.38Z" fill="#2f2e41"/></g><path d="M817.56,171.41h-1.69c0-8.38-7.06-15.21-15.75-15.21s-15.75,6.83-15.75,15.21h-1.69c0-9.31,7.83-16.89,17.44-16.89S817.56,162.1,817.56,171.41Z" fill="#fff"/><g opacity="0.2"><path d="M785,204s12.24-8.95,30.2-2.67c-4.41-7.88-5.29-11.19-16.64-11S785,204,785,204Z" fill="#2f2e41"/></g><path d="M816.72,205h-1.57a14.71,14.71,0,0,0-29.4,0h-1.57a16.28,16.28,0,0,1,32.54,0Z" fill="#fff"/><rect x="64.06" y="240.64" width="7.07" height="204.89" fill="#bcbec0"/><path d="M91.22,460.79H43.45v-1a5.2,5.2,0,0,1,.22-1.48H37.94l1.76,4.52,51.57,0h1.94l1.7-4.42H91a5.61,5.61,0,0,1,.2,1.43Z" fill="#e6e7e8"/><polygon points="40.54 120.72 38.85 120.75 30.05 120.92 36.52 131.57 42.02 140.64 40.54 120.72" fill="#2f2e41"/><polygon points="92.86 120.78 89.32 120.72 88.22 143.11 95.2 131.6 101.66 120.95 92.86 120.78" fill="#2f2e41"/><g opacity="0.2"><polygon points="40.54 120.72 38.85 120.75 30.05 120.92 36.52 131.57 42.02 140.64 40.54 120.72"/><polygon points="92.86 120.78 89.32 120.72 88.22 143.11 95.2 131.6 101.66 120.95 92.86 120.78"/></g><polygon points="43.18 156.11 40.94 156.15 32.15 156.32 38.61 166.97 44.74 177.08 43.18 156.11" fill="#2f2e41"/><polygon points="90.77 156.17 87.58 156.11 86.5 177.88 93.11 166.99 99.57 156.34 90.77 156.17" fill="#2f2e41"/><g opacity="0.2"><polygon points="43.18 156.11 40.94 156.15 32.15 156.32 38.61 166.97 44.74 177.08 43.18 156.11"/><polygon points="90.77 156.17 87.58 156.11 86.5 177.88 93.11 166.99 99.57 156.34 90.77 156.17"/></g><polygon points="45.82 191.51 43.03 191.56 34.24 191.73 40.7 202.38 47.46 213.52 45.82 191.51" fill="#2f2e41"/><polygon points="88.68 191.56 85.83 191.51 84.79 212.64 91.02 202.38 97.48 191.73 88.68 191.56" fill="#2f2e41"/><g opacity="0.2"><polygon points="45.82 191.51 43.03 191.56 34.24 191.73 40.7 202.38 47.46 213.52 45.82 191.51"/><polygon points="88.68 191.56 85.83 191.51 84.79 212.64 91.02 202.38 97.48 191.73 88.68 191.56"/></g><path d="M57.63,230.61v3a3,3,0,0,0,.28,1.25,3.19,3.19,0,0,0,1.78,1.64v2a2.1,2.1,0,0,0,.62,1.47,2.24,2.24,0,0,0,1.59.66h9.86A2.18,2.18,0,0,0,74,238.51v-2a3.12,3.12,0,0,0,1.89-2.83v-3.29Z" fill="#2f2e41"/><path d="M87.58,156.11l.64-13,1.1-22.39.37-7.55-.11.07L40,114.15l.53,7.11L42,141.18l1.16,15.46,1.56,21L45.82,192l1.64,22,.77,10.32,36.06-1.52.5-10.18,1-21.13.67-13.64Zm-8,53a13,13,0,0,1-1.06,2.34,13.53,13.53,0,0,1-11.71,6.6,13.23,13.23,0,0,1-13.44-13,12.94,12.94,0,0,1,7.22-11.52,13.65,13.65,0,0,1,6.22-1.48,13.89,13.89,0,0,1,4.06.6,13.07,13.07,0,0,1,9.39,12.4A12.46,12.46,0,0,1,79.56,209.14Zm.85-32.74A13.66,13.66,0,0,1,79.25,179a14.79,14.79,0,0,1-12.79,7.22A14.48,14.48,0,0,1,51.75,172a14.16,14.16,0,0,1,7.9-12.6,15.15,15.15,0,0,1,11.24-1A14.29,14.29,0,0,1,81.16,172,13.72,13.72,0,0,1,80.41,176.4Zm1-34.55a15.88,15.88,0,0,1-1.29,2.81,16.28,16.28,0,0,1-14.1,8,15.94,15.94,0,0,1-16.2-15.67,15.61,15.61,0,0,1,8.7-13.89,16.49,16.49,0,0,1,7.5-1.78A16.72,16.72,0,0,1,71,122a15.76,15.76,0,0,1,11.32,15A15.14,15.14,0,0,1,81.45,141.85Z" fill="#2f2e41"/><path d="M71,122a16.72,16.72,0,0,0-4.89-.72,16.49,16.49,0,0,0-7.5,1.78,15.61,15.61,0,0,0-8.7,13.89,15.94,15.94,0,0,0,16.2,15.67,16.28,16.28,0,0,0,14.1-8,15.88,15.88,0,0,0,1.29-2.81,15.14,15.14,0,0,0,.82-4.91A15.76,15.76,0,0,0,71,122Zm8.23,18.94a12.83,12.83,0,0,1-1.68,3.4,13.86,13.86,0,0,1-11.44,5.91,13.53,13.53,0,0,1-13.75-13.3,13.17,13.17,0,0,1,5.84-10.88A14.19,14.19,0,0,1,70,124.19a13.39,13.39,0,0,1,9.83,12.75A12.87,12.87,0,0,1,79.18,140.93Z" fill="#2f2e41"/><path d="M71,122a16.72,16.72,0,0,0-4.89-.72,16.49,16.49,0,0,0-7.5,1.78,15.61,15.61,0,0,0-8.7,13.89,15.94,15.94,0,0,0,16.2,15.67,16.28,16.28,0,0,0,14.1-8,15.88,15.88,0,0,0,1.29-2.81,15.14,15.14,0,0,0,.82-4.91A15.76,15.76,0,0,0,71,122Zm8.23,18.94a12.83,12.83,0,0,1-1.68,3.4,13.86,13.86,0,0,1-11.44,5.91,13.53,13.53,0,0,1-13.75-13.3,13.17,13.17,0,0,1,5.84-10.88A14.19,14.19,0,0,1,70,124.19a13.39,13.39,0,0,1,9.83,12.75A12.87,12.87,0,0,1,79.18,140.93Z" opacity="0.2"/><path d="M70,124.19a14.19,14.19,0,0,0-11.84,1.87,13.17,13.17,0,0,0-5.84,10.88,13.53,13.53,0,0,0,13.75,13.3,13.86,13.86,0,0,0,11.44-5.91,13.11,13.11,0,0,0,2.32-7.39A13.39,13.39,0,0,0,70,124.19Z" fill="#fe4f4a"/><path d="M70.89,158.39a15.15,15.15,0,0,0-11.24,1,14.16,14.16,0,0,0-7.9,12.6,14.48,14.48,0,0,0,14.71,14.22A14.79,14.79,0,0,0,79.25,179a14.11,14.11,0,0,0,1.91-7A14.29,14.29,0,0,0,70.89,158.39Zm7.47,17.18a12.2,12.2,0,0,1-1.53,3.09A12.59,12.59,0,0,1,66.46,184,12.28,12.28,0,0,1,54,172a11.92,11.92,0,0,1,5.3-9.87,12.73,12.73,0,0,1,7.18-2.2,13.08,13.08,0,0,1,3.56.5A12.14,12.14,0,0,1,78.93,172,11.72,11.72,0,0,1,78.36,175.57Z" fill="#2f2e41"/><path d="M70.89,158.39a15.15,15.15,0,0,0-11.24,1,14.16,14.16,0,0,0-7.9,12.6,14.48,14.48,0,0,0,14.71,14.22A14.79,14.79,0,0,0,79.25,179a14.11,14.11,0,0,0,1.91-7A14.29,14.29,0,0,0,70.89,158.39Zm7.47,17.18a12.2,12.2,0,0,1-1.53,3.09A12.59,12.59,0,0,1,66.46,184,12.28,12.28,0,0,1,54,172a11.92,11.92,0,0,1,5.3-9.87,12.73,12.73,0,0,1,7.18-2.2,13.08,13.08,0,0,1,3.56.5A12.14,12.14,0,0,1,78.93,172,11.72,11.72,0,0,1,78.36,175.57Z" opacity="0.2"/><path d="M70,160.38a13.08,13.08,0,0,0-3.56-.5,12.73,12.73,0,0,0-7.18,2.2A11.92,11.92,0,0,0,54,172,12.28,12.28,0,0,0,66.46,184a12.59,12.59,0,0,0,10.37-5.36,12.2,12.2,0,0,0,1.53-3.09,11.72,11.72,0,0,0,.57-3.62A12.14,12.14,0,0,0,70,160.38Z" fill="#f9e014"/><path d="M70.85,192.67a13.89,13.89,0,0,0-4.06-.6,13.65,13.65,0,0,0-6.22,1.48,12.94,12.94,0,0,0-7.22,11.52,13.23,13.23,0,0,0,13.44,13,13.53,13.53,0,0,0,11.71-6.6,13,13,0,0,0,1.06-2.34,12.46,12.46,0,0,0,.68-4.07A13.07,13.07,0,0,0,70.85,192.67Zm6.83,15.71a11,11,0,0,1-1.4,2.83,11.52,11.52,0,0,1-9.49,4.9,11.23,11.23,0,0,1-11.41-11,10.94,10.94,0,0,1,4.85-9,11.67,11.67,0,0,1,6.56-2,12.13,12.13,0,0,1,3.27.46,11.1,11.1,0,0,1,8.15,10.58A10.62,10.62,0,0,1,77.68,208.38Z" fill="#2f2e41"/><path d="M70.85,192.67a13.89,13.89,0,0,0-4.06-.6,13.65,13.65,0,0,0-6.22,1.48,12.94,12.94,0,0,0-7.22,11.52,13.23,13.23,0,0,0,13.44,13,13.53,13.53,0,0,0,11.71-6.6,13,13,0,0,0,1.06-2.34,12.46,12.46,0,0,0,.68-4.07A13.07,13.07,0,0,0,70.85,192.67Zm6.83,15.71a11,11,0,0,1-1.4,2.83,11.52,11.52,0,0,1-9.49,4.9,11.23,11.23,0,0,1-11.41-11,10.94,10.94,0,0,1,4.85-9,11.67,11.67,0,0,1,6.56-2,12.13,12.13,0,0,1,3.27.46,11.1,11.1,0,0,1,8.15,10.58A10.62,10.62,0,0,1,77.68,208.38Z" opacity="0.2"/><path d="M70.06,194.49a12.13,12.13,0,0,0-3.27-.46,11.67,11.67,0,0,0-6.56,2,10.94,10.94,0,0,0-4.85,9,11.23,11.23,0,0,0,11.41,11,11.52,11.52,0,0,0,9.49-4.9,11,11,0,0,0,1.4-2.83,10.62,10.62,0,0,0,.53-3.31A11.1,11.1,0,0,0,70.06,194.49Z" fill="#a3dc7e"/><polygon points="89.69 113.17 93.8 110.21 35.39 111.54 40 114.15 40.01 114.15 89.58 113.24 89.69 113.17" fill="#2f2e41"/><polygon points="89.69 113.17 93.8 110.21 35.39 111.54 40 114.15 40.01 114.15 89.58 113.24 89.69 113.17" opacity="0.2"/><polygon points="48.23 224.34 45.09 227.37 87.03 225.85 84.29 222.82 48.23 224.34" fill="#2f2e41"/><polygon points="48.23 224.34 45.09 227.37 87.03 225.85 84.29 222.82 48.23 224.34" opacity="0.2"/><polygon points="45.09 227.37 45.29 230.78 57.63 230.61 75.86 230.36 86.25 230.21 87.03 225.85 45.09 227.37" fill="#2f2e41"/><polygon points="92.92 106.92 36.21 108.19 35.19 111.54 93.7 110.21 92.92 106.92" fill="#2f2e41"/><path d="M71.92,443.09H62.75a3.06,3.06,0,0,0-2.58,1.38,2.88,2.88,0,0,0-.48,1.58v2.59H75v-2.59A3,3,0,0,0,71.92,443.09Z" fill="#2f2e41"/><path d="M53.71,450.6a3.89,3.89,0,0,0-.6,2.08v1.85H48.77a5.31,5.31,0,0,0-5.1,3.83,5.2,5.2,0,0,0-.22,1.48v1H91.22v-1a5.61,5.61,0,0,0-.2-1.43,5.32,5.32,0,0,0-5.12-3.88H81.56v-1.85a4.11,4.11,0,0,0-4.17-4H57.28a4.21,4.21,0,0,0-3.57,2" fill="#2f2e41"/><path d="M93,462.84H91.27l-51.57,0-2,3.89,56.94.19-1.47-4.11Z" fill="#d1d3d4"/><g opacity="0.2"><path d="M47.57,135.49s14.51-10.62,35.81-3.16c-5.23-9.36-6.28-13.27-19.73-13S47.57,135.49,47.57,135.49Z" fill="#2f2e41"/></g><path d="M85.22,136.62H83.36c0-9.27-7.82-16.82-17.43-16.82S48.5,127.35,48.5,136.62H46.64c0-10.3,8.66-18.68,19.29-18.68S85.22,126.32,85.22,136.62Z" fill="#fff"/><g opacity="0.2"><path d="M49.93,170.38s13.11-9.59,32.36-2.85c-4.73-8.46-5.67-12-17.84-11.77S49.93,170.38,49.93,170.38Z" fill="#2f2e41"/></g><path d="M84,171.41H82.27c0-8.38-7.06-15.21-15.75-15.21S50.77,163,50.77,171.41H49.08c0-9.31,7.83-16.89,17.44-16.89S84,162.1,84,171.41Z" fill="#fff"/><g opacity="0.2"><path d="M51.36,204s12.24-8.95,30.2-2.67c-4.41-7.88-5.29-11.19-16.64-11S51.36,204,51.36,204Z" fill="#2f2e41"/></g><path d="M83.12,205H81.55a14.71,14.71,0,0,0-29.4,0H50.58a16.28,16.28,0,0,1,32.54,0Z" fill="#fff"/></g></g></svg>