<svg id="b4976107-0c96-4103-854d-412bada5bf1b" data-name="Layer 1" xmlns="http://www.w3.org/2000/svg" width="865.76" height="682.89" viewBox="0 0 865.76 682.89"><g id="ec40a9bd-1aae-498b-9f46-e05f64f2ed87" data-name="freepik--background-complete--inject-235"><path d="M241.54,192.65c1.09-9.32-10.18-17-18.68-17.78-4-.39-8.23.35-12.07-1.22-8.29-3.36-11.61-15.86-19.71-19.84-6.05-3-13-.33-18.89,3.11s-11.66,7.77-18.17,8.26c-5.71.44-11.89-2-16.88,1.22-3.73,2.41-5.68,7.4-9.1,10.36s-7.72,3.48-11.89,3.74-8.47.33-12.26,2.35a11.51,11.51,0,0,0-6.13,11.38Z" fill="#f5f5f5"/><polygon points="364.26 649.25 379.09 649.25 375.25 523.74 360.4 523.74 364.26 649.25" fill="#ebebeb"/><path d="M369.56,225.86c0,1.62,39.84,108.33,39.84,108.33L389.47,317l28.7,74.53-18.91-22.36,22.29,93.39-10.8-9.76,18.9,65.93-16.27-17.22,16.27,49.31-128.3-8,30.39-92.88-18.3,17.29,23.75-67.66L325,405.3l27.65-87.15-12.83,7.45Z" fill="#ebebeb"/><path d="M365.25,416.18a9.47,9.47,0,0,0,.63,1.63c.52,1.1,1.19,2.55,2,4.32l7.19,14.94.31.65.41-.64a72.24,72.24,0,0,0,5.24-9.87c.57-1.34,1.09-2.65,1.54-3.91h-.81c3.53,7.67,7,14.33,9.61,19.08,1.3,2.36,2.39,4.25,3.16,5.55l.91,1.47a2.54,2.54,0,0,0,.36.5,13.21,13.21,0,0,0-1-2.08c-.74-1.43-1.73-3.26-2.93-5.63-2.47-4.78-5.84-11.49-9.36-19.15l-.42-.94-.36,1c-.45,1.25-1,2.55-1.53,3.87a77,77,0,0,1-5.15,9.76h.71l-7.43-14.82c-.91-1.74-1.63-3.17-2.21-4.25A7.46,7.46,0,0,0,365.25,416.18Z" fill="#f5f5f5"/><path d="M351.58,376.34a5.28,5.28,0,0,0,.72-1.15c.5-.87,1.11-2,1.85-3.26,1.63-2.76,3.91-6.63,6.93-11h-.73c.65,2.1,1.34,4.36,2,6.7l1.32,4.26.31,1,.47-.91c2.73-5.16,5.11-9.76,6.77-13l1.92-3.86a5.76,5.76,0,0,0,.6-1.45,6.78,6.78,0,0,0-.86,1.34l-2.15,3.77c-1.79,3.26-4.26,7.75-7,12.9h.77c-.41-1.36-.85-2.8-1.3-4.26l-2.09-6.7-.24-.78-.49.7a108.93,108.93,0,0,0-6.7,11.12c-.75,1.42-1.29,2.56-1.63,3.35A4.4,4.4,0,0,0,351.58,376.34Z" fill="#f5f5f5"/><path d="M369.75,294.68a27,27,0,0,0,2.27,3.79c1.49,2.33,3.62,5.55,6.1,9.21l.57.83.19-.95c.23-1.05.46-2.16.7-3.25.39-1.93.78-3.81,1.14-5.53l-.73.11c2.29,3.09,4.27,5.73,5.72,7.58a20.78,20.78,0,0,0,2.41,2.88,22.31,22.31,0,0,0-2-3.1c-1.34-1.92-3.26-4.61-5.49-7.71l-.53-.75-.2.88c-.36,1.72-.76,3.59-1.17,5.53-.23,1.12-.46,2.21-.68,3.25l.76-.11c-2.5-3.65-4.72-6.84-6.34-9.1A27,27,0,0,0,369.75,294.68Z" fill="#f5f5f5"/><path d="M813,651c0,.24-161,.42-359.65.42S93.67,651.25,93.67,651s161-.42,359.68-.42S813,650.81,813,651Z" fill="#e0e0e0"/><polygon points="166.55 654.38 181.4 654.38 177.56 528.88 162.71 528.88 166.55 654.38" fill="#ebebeb"/><path d="M171.92,231c0,1.72,39.83,108.35,39.83,108.35l-20-17.19,28.69,74.52-18.9-22.35,22.29,93.43L213,458,232,523.91l-16.27-17.19L232,556,103.6,548,134,455.14l-18.3,17.18,23.7-67.63-12.1,5.81,27.65-87.14-12.78,7.43Z" fill="#ebebeb"/><path d="M167.56,421.3a7.86,7.86,0,0,0,.63,1.63c.51,1.09,1.19,2.54,2,4.31l7.19,14.93.31.65.41-.61a71.59,71.59,0,0,0,5.2-9.93c.59-1.31,1.11-2.63,1.63-3.9h-.8c3.55,7.66,7,14.33,9.63,19.06,1.3,2.38,2.38,4.27,3.16,5.55l.89,1.48c.23.33.34.51.38.49a14.21,14.21,0,0,0-1-2.08c-.74-1.42-1.72-3.26-2.92-5.63-2.48-4.78-5.84-11.49-9.36-19.13l-.44-.94-.34.95a35.66,35.66,0,0,1-1.62,3.88,75,75,0,0,1-5.14,9.76h.71L170.61,427c-.91-1.76-1.62-3.17-2.21-4.26A12.22,12.22,0,0,0,167.56,421.3Z" fill="#f5f5f5"/><path d="M153.88,381.51a5.74,5.74,0,0,0,.73-1.15l1.84-3.25c1.62-2.79,3.92-6.64,6.94-11h-.73c.63,2.1,1.33,4.36,2.05,6.7.46,1.45.89,2.88,1.32,4.27l.29.94.49-.9c2.73-5.17,5.09-9.76,6.77-13,.76-1.63,1.39-2.83,1.91-3.85a7,7,0,0,0,.61-1.44,6.45,6.45,0,0,0-.93,1.22L173,363.85c-1.81,3.25-4.26,7.72-7,12.88h.77c-.43-1.38-.87-2.81-1.31-4.28-.73-2.32-1.43-4.58-2.08-6.68l-.24-.8-.49.72a104.59,104.59,0,0,0-6.72,11.12c-.73,1.42-1.28,2.56-1.62,3.26A5.58,5.58,0,0,0,153.88,381.51Z" fill="#f5f5f5"/><path d="M172.06,299.89a26.12,26.12,0,0,0,2.26,3.77c1.5,2.33,3.63,5.56,6.1,9.22l.56.83.21-.94c.21-1.06.45-2.16.68-3.25.41-1.94.78-3.81,1.14-5.53l-.73.11c2.29,3.07,4.29,5.71,5.72,7.56a22.07,22.07,0,0,0,2.41,2.87,22.13,22.13,0,0,0-2-3.26c-1.32-1.9-3.26-4.58-5.47-7.69l-.54-.75-.19.86c-.37,1.74-.77,3.6-1.17,5.53-.25,1.13-.47,2.23-.69,3.26l.75-.12c-2.49-3.64-4.71-6.81-6.32-9.09A27.9,27.9,0,0,0,172.06,299.89Z" fill="#f5f5f5"/><polygon points="267.14 542.22 240.35 529.15 231.45 489.96 223.97 491.72 230.46 528.73 204.78 513.99 199.16 519.46 233.15 537.82 267.14 551.34 267.14 542.22" fill="#ebebeb"/><polygon points="114.43 656.86 94.8 656.86 99.87 490.84 119.52 490.84 114.43 656.86" fill="#ebebeb"/><path d="M104.34,77.94c0,2.28-52.7,143.33-52.7,143.33L78,198.49,40,297.07,65,267.5,35.55,391.13l14.3-12.9-25,87.16,21.44-22.78L24.83,507.84l169.73-10.6-40.2-122.87,24.27,22.78-31.42-89.47,16.08,7.58L126.66,199.94l17,9.86Z" fill="#e0e0e0"/><path d="M273.57,323.83a9.22,9.22,0,0,1-.8,2.08l-2.65,5.73-9.5,19.75-.42.86-.54-.83a93.09,93.09,0,0,1-6.91-13c-.77-1.74-1.45-3.5-2.05-5.18h1c-4.69,10.15-9.27,19-12.72,25.23-1.74,3.14-3.26,5.65-4.18,7.36-.49.76-.88,1.41-1.21,1.95a2.51,2.51,0,0,1-.47.65,17.7,17.7,0,0,1,1.3-2.75c1-1.89,2.3-4.39,3.87-7.45,3.26-6.33,7.73-15.19,12.38-25.31l.57-1.25.46,1.28c.6,1.63,1.28,3.38,2,5.12a95.29,95.29,0,0,0,6.8,13h-.95l9.88-19.64,2.93-5.62A12.54,12.54,0,0,1,273.57,323.83Z" fill="#ebebeb"/><path d="M291.66,271.19a6.78,6.78,0,0,1-1-1.53l-2.44-4.31c-2.1-3.66-5.18-8.77-9.18-14.49l1-.12-2.7,8.87-1.75,5.64-.4,1.27-.63-1.2c-3.61-6.83-6.75-12.85-8.95-17.18-1-2-1.87-3.76-2.53-5.11a7.74,7.74,0,0,1-.8-1.9,9.76,9.76,0,0,1,1.15,1.77l2.83,4.93c2.38,4.26,5.63,10.23,9.29,17.07h-1c.56-1.83,1.13-3.71,1.73-5.65L279,250.4l.32-1.06.65.95a138.69,138.69,0,0,1,8.87,14.64c1,1.87,1.71,3.38,2.16,4.42A6.1,6.1,0,0,1,291.66,271.19Z" fill="#ebebeb"/><path d="M267.61,163.13a34.92,34.92,0,0,1-3,5c-2,3.08-4.88,7.34-8.14,12.19l-.73,1.09-.27-1.25c-.3-1.4-.61-2.85-.92-4.35-.53-2.55-1-5-1.51-7.32l1,.16c-3,4.09-5.66,7.57-7.56,10a27.64,27.64,0,0,1-3.26,3.82,28.16,28.16,0,0,1,2.64-4.11c1.74-2.53,4.26-6.09,7.22-10.19l.73-1,.25,1.16c.49,2.27,1,4.75,1.62,7.3l.9,4.34-1-.14c3.25-4.88,6.25-9,8.39-12A37.84,37.84,0,0,1,267.61,163.13Z" fill="#ebebeb"/><polygon points="626.02 649.25 640.88 649.25 637.04 523.74 622.18 523.74 626.02 649.25" fill="#ebebeb"/><path d="M631.33,225.86c0,1.62,39.85,108.33,39.85,108.33L651.25,317,680,391.53l-18.9-22.36,22.28,93.39-10.8-9.76,18.9,65.93-16.26-17.22,16.26,49.31-128.29-8,30.38-92.88-18.35,17.29,23.75-67.66-12.2,5.75,27.66-87.15-12.84,7.45Z" fill="#ebebeb"/><path d="M627,416.18a7.56,7.56,0,0,0,.64,1.63l2,4.32,7.19,14.94.31.65.4-.64a70.1,70.1,0,0,0,5.24-9.87c.57-1.34,1.09-2.65,1.55-3.91h-.7c3.53,7.67,7,14.33,9.61,19.08,1.3,2.36,2.39,4.25,3.16,5.55l.91,1.47c.21.34.32.5.36.5a12.43,12.43,0,0,0-1-2.08l-2.92-5.63c-2.48-4.78-5.84-11.49-9.36-19.15l-.42-.94-.36,1c-.45,1.25-1,2.55-1.54,3.87a75,75,0,0,1-5.14,9.76h.71l-7.55-14.82c-.91-1.74-1.62-3.17-2.21-4.25A8.71,8.71,0,0,0,627,416.18Z" fill="#f5f5f5"/><path d="M613.37,376.34a5.94,5.94,0,0,0,.71-1.15l1.84-3.26c1.63-2.76,3.92-6.63,7-11h-.73c.65,2.1,1.33,4.36,2.05,6.7l1.31,4.26.31,1,.47-.91c2.74-5.16,5.11-9.76,6.77-13l1.92-3.86a5.42,5.42,0,0,0,.6-1.45,6.51,6.51,0,0,0-.86,1.34c-.57,1-1.3,2.26-2.15,3.77-1.8,3.26-4.26,7.75-7,12.9h.76c-.42-1.36-.86-2.8-1.3-4.26l-2.08-6.7-.25-.78-.49.7a109,109,0,0,0-6.71,11.12c-.74,1.42-1.27,2.56-1.63,3.35A4.34,4.34,0,0,0,613.37,376.34Z" fill="#f5f5f5"/><path d="M631.54,294.68a25,25,0,0,0,2.26,3.79c1.5,2.33,3.63,5.55,6.1,9.21l.55.83.21-.95c.22-1.05.46-2.16.69-3.25.4-1.93.79-3.81,1.14-5.53l-.72.11c2.28,3.09,4.28,5.73,5.71,7.58a23.72,23.72,0,0,0,2.41,2.88,19.45,19.45,0,0,0-2-3.1c-1.31-1.92-3.25-4.61-5.46-7.71l-.54-.75-.19.88c-.36,1.72-.77,3.59-1.18,5.53-.24,1.12-.47,2.21-.68,3.25l.77-.11c-2.51-3.65-4.74-6.84-6.35-9.1A30.27,30.27,0,0,0,631.54,294.68Z" fill="#f5f5f5"/><path d="M568.46,167c1.09-9.32-10.19-17-18.68-17.78-4-.37-8.23.34-12.07-1.22-8.3-3.37-11.61-15.86-19.71-19.85-6.06-3-13-.32-18.89,3.13s-11.68,7.77-18.24,8.26c-5.69.42-11.89-2-16.88,1.2-3.73,2.43-5.66,7.42-9.09,10.37s-7.73,3.49-11.9,3.75-8.47.31-12.24,2.33a11.58,11.58,0,0,0-6.15,11.39Z" fill="#f5f5f5"/><polygon points="737.27 558.99 714.19 547.75 706.53 513.99 700.09 515.49 705.68 547.37 683.56 534.68 678.71 539.4 707.99 555.21 737.27 566.86 737.27 558.99" fill="#ebebeb"/><polygon points="746.59 652.76 729.69 652.76 734.07 509.76 750.99 509.76 746.59 652.76" fill="#ebebeb"/><path d="M737.91,154.05c0,2-45.4,123.45-45.4,123.45l22.77-19.6-32.7,84.91,21.54-25.47L678.73,423.81,691,412.71l-21.55,75.11L688,468.3l-18.55,56.07,146.2-9.14L781,409.49,801.9,429l-27.07-77.07,13.85,6.51-31.54-99.23,14.64,8.49Z" fill="#e0e0e0"/><path d="M742.89,370.91a11.54,11.54,0,0,1-.72,1.79l-2.29,4.88-8.14,17-.36.75-.45-.72a82.34,82.34,0,0,1-6-11.25c-.65-1.51-1.24-3-1.76-4.46h.9c-4,8.72-8,16.27-11,21.72-1.48,2.7-2.71,4.88-3.59,6.33l-1,1.62c-.24.39-.39.59-.42.57a17.21,17.21,0,0,1,1.14-2.37l3.25-6.41c2.82-5.45,6.66-13,10.66-21.8l.49-1.07.4,1.09c.51,1.43,1.11,2.92,1.74,4.42a87.56,87.56,0,0,0,5.88,11.18h-.82c3.42-6.79,6.35-12.63,8.51-16.91l2.52-4.88A10.13,10.13,0,0,1,742.89,370.91Z" fill="#ebebeb"/><path d="M758.39,325.56a6.31,6.31,0,0,1-.86-1.27l-2.1-3.71c-1.81-3.16-4.48-7.57-7.91-12.5l.83-.09L746,315.63l-1.52,4.88-.34,1.09-.54-1c-3.12-5.89-5.82-11.08-7.71-14.81l-2.19-4.39a8,8,0,0,1-.69-1.62,6.71,6.71,0,0,1,1,1.51l2.44,4.29c2,3.66,4.88,8.82,8,14.64h-.88c.49-1.62,1-3.25,1.5-4.88l2.37-7.63.28-.89.55.8A124.23,124.23,0,0,1,756,320.27c.83,1.63,1.46,2.93,1.85,3.82A5.52,5.52,0,0,1,758.39,325.56Z" fill="#ebebeb"/><path d="M737.68,232.48a31,31,0,0,1-2.59,4.31c-1.62,2.65-4.13,6.32-6.94,10.49l-.64,1-.22-1.09c-.26-1.2-.52-2.46-.8-3.73l-1.3-6.31.83.13c-2.61,3.52-4.88,6.51-6.51,8.62a25.11,25.11,0,0,1-2.75,3.26,22.05,22.05,0,0,1,2.26-3.53c1.51-2.2,3.68-5.24,6.23-8.79l.62-.86.21,1,1.35,6.29q.39,1.94.78,3.75l-.88-.13c2.85-4.15,5.39-7.78,7.23-10.37A32.64,32.64,0,0,1,737.68,232.48Z" fill="#ebebeb"/><path d="M820.59,90.86c.88-6.28-8-11.39-14.64-12-3.25-.26-6.5.23-9.48-.82C790,75.78,787.34,67.37,781,64.68c-4.75-2-10.23-.23-14.83,2.1S757,72,751.83,72.34c-4.47.3-9.33-1.36-13.26.82-2.92,1.62-4.45,5-7.14,7a17,17,0,0,1-9.33,2.53,26.31,26.31,0,0,0-9.62,1.63c-3,1.35-5.45,4.51-4.88,7.71Z" fill="#f5f5f5"/><path d="M472.43,60.76c.86-6.28-8-11.38-14.64-12-3.17-.26-6.51.23-9.48-.83-6.51-2.26-9.13-10.69-15.49-13.37-4.75-2-10.21-.21-14.83,2.1s-9.16,5.24-14.32,5.58c-4.47.27-9.34-1.39-13.26.81-2.91,1.63-4.44,5-7.14,7a17.13,17.13,0,0,1-9.35,2.57,26.23,26.23,0,0,0-9.61,1.63c-3,1.36-5.44,4.5-4.88,7.72Z" fill="#f5f5f5"/></g><g id="f9c55628-a0c6-4cd9-9dd8-b503fbb3b2f8" data-name="freepik--Plants--inject-216"><path d="M769.26,606.37s.93-2.27,1-2.43c.48-1.74.37-5.42-1.34-6.52a2.39,2.39,0,0,0-3.3.79,1.36,1.36,0,0,0-.13.24,5.08,5.08,0,0,0,.33,4.22A17.61,17.61,0,0,0,769.26,606.37Z" fill="#123a53"/><path d="M733.53,601a17.34,17.34,0,0,0,4.92,1.18s-.47-2.42-.52-2.57c-.57-1.71-2.69-4.67-4.67-4.67a2.4,2.4,0,0,0-2.32,2.5,1.94,1.94,0,0,0,0,.24A5.07,5.07,0,0,0,733.53,601Z" fill="#123a53"/><path d="M733.43,611.42a16.58,16.58,0,0,0,5-.14,43.75,43.75,0,0,0,1.23,5.56c.31,1.06.65,2.12,1,3.12-.23-.47-.45-.88-.48-.92-1-1.56-3.85-3.85-5.8-3.31a2.41,2.41,0,0,0-1.66,3c0,.1.07.2.11.3a5,5,0,0,0,3.39,2.54,16.3,16.3,0,0,0,4.88-.13c.14.41.26.81.42,1.22.67,1.93,1.37,3.86,2,5.78.21.68.42,1.35.6,2l-.42-.79c-1-1.56-3.83-3.85-5.79-3.3a2.38,2.38,0,0,0-1.66,2.95,1.76,1.76,0,0,0,.1.3,5.09,5.09,0,0,0,3.4,2.54,15.56,15.56,0,0,0,4.67-.11c.19.7.36,1.39.5,2.07s.2.92.26,1.39.13.93.21,1.38c.09.91.2,1.81.26,2.68,0,.61.09,1.19.14,1.76-.2-.67-.64-2-.69-2.08-.77-1.65-3.2-4.4-5.23-4.15a2.43,2.43,0,0,0-2,2.78,1.85,1.85,0,0,0,0,.23,5.09,5.09,0,0,0,3,3,16.9,16.9,0,0,0,5,.62c.08,1,.13,1.9.17,2.77.11,2.43.14,4.53.13,6.23h1.35c0-1.68-.11-3.81-.28-6.23,0-1-.15-2-.25-3.11a27.62,27.62,0,0,0,2.92-1,18.62,18.62,0,0,0,3.69,3.11c-.47.84-.94,1.65-1.39,2.4-1.11,1.87-2.13,3.47-3,4.78h1.56c.75-1.2,1.56-2.6,2.47-4.17.49-.84,1-1.76,1.48-2.71a16.71,16.71,0,0,0,4.89,1,5,5,0,0,0,3.79-1.89,2.4,2.4,0,0,0-.68-3.34,1.48,1.48,0,0,0-.21-.13c-1.84-.89-5,.9-6.23,2.23a18.29,18.29,0,0,0-1.21,1.56l.6-1.17c.42-.8.8-1.56,1.22-2.46.2-.42.39-.86.58-1.3s.35-.88.54-1.35c.39-1,.75-2.15,1.07-3.26a16.22,16.22,0,0,0,4.55,1.69,5,5,0,0,0,4-1.3,2.42,2.42,0,0,0-.17-3.41l-.19-.15c-1.68-1.16-5.11.14-6.56,1.24l-1.56,1.56c.21-.65.41-1.32.58-2,.5-2,1-4,1.4-6,.14-.61.3-1.21.44-1.84a16.59,16.59,0,0,0,4.67,1.76,5,5,0,0,0,4-1.29,2.39,2.39,0,0,0-.14-3.39l-.21-.18c-1.67-1.15-5.11.14-6.55,1.25a24.54,24.54,0,0,0-1.79,1.74c.32-1.34.64-2.68,1-4a41.41,41.41,0,0,1,1.84-5.18,17.48,17.48,0,0,0,4.67,1.76,5,5,0,0,0,4-1.29,2.41,2.41,0,0,0-.14-3.39l-.22-.17c-1.68-1.16-5.11.14-6.54,1.24-.11.08-1.14,1.08-1.56,1.56h-.09a31.81,31.81,0,0,1,2.77-4.8c.56-.84,1.17-1.56,1.76-2.33a16,16,0,0,0,4.41,2.21,5.09,5.09,0,0,0,4.14-.84,2.43,2.43,0,0,0,.16-3.44l-.16-.16c-1.56-1.33-5.09-.42-6.64.53a17.81,17.81,0,0,0-1.46,1.12l.81-1c1-1.17,2-2.17,2.9-3.12.49-.5,1-.93,1.41-1.34a16.17,16.17,0,0,0,4.91,0,5,5,0,0,0,3.29-2.66,2.4,2.4,0,0,0-1.34-3.12l-.22-.07c-2-.49-4.67,2-5.65,3.52-.08.14-1.13,2.38-1.1,2.38h0l-1.38,1.26c-.9.87-1.93,1.85-3,3a46.16,46.16,0,0,0-3.12,3.86,34,34,0,0,0-2.89,4.77h0c.07-.58.26-2.24.26-2.37,0-1.82-1.07-5.32-3-6a2.43,2.43,0,0,0-3,1.57c0,.11-.06.22-.08.33a5,5,0,0,0,1.45,4,16.53,16.53,0,0,0,4.25,2.64,44.25,44.25,0,0,0-2,5.31c-.33,1.06-.64,2.14-.92,3.21a6.69,6.69,0,0,1,.11-1c0-1.83-1.09-5.33-3-6a2.38,2.38,0,0,0-3,1.63,1.07,1.07,0,0,0-.06.27,5,5,0,0,0,1.43,4,15.83,15.83,0,0,0,4.13,2.58c-.1.42-.22.84-.31,1.25-.5,2-1,4-1.56,5.93-.19.69-.41,1.36-.61,2a6.28,6.28,0,0,1,.09-.89c0-1.82-1.09-5.32-3-6a2.4,2.4,0,0,0-3,1.63,1.31,1.31,0,0,0-.06.27,5,5,0,0,0,1.43,4,16,16,0,0,0,4,2.54c-.23.67-.47,1.35-.73,2a13.08,13.08,0,0,1-.55,1.29c-.21.42-.4.86-.59,1.28-.42.79-.82,1.56-1.24,2.38l-.86,1.56c.2-.67.56-2,.58-2.12a9.55,9.55,0,0,0-.67-4.67,5,5,0,0,0,0-.55,2.42,2.42,0,0,0-2.42-2.41H751c-2,.29-3.69,3.54-4,5.33,0,.11-.11,1.28-.14,2a10.06,10.06,0,0,0-.14-1.31c-.09-.89-.2-1.77-.33-2.72l-.23-1.39a7.19,7.19,0,0,0-.3-1.42c-.26-1.1-.56-2.21-.9-3.31a16,16,0,0,0,4.67-1.13,5,5,0,0,0,2.65-3.3,2.42,2.42,0,0,0-2-2.75l-.24,0c-2,0-4.18,2.93-4.77,4.67,0,.11-.33,1.39-.47,2.09-.2-.65-.4-1.32-.64-2-.67-1.92-1.4-3.85-2.11-5.77-.24-.59-.44-1.18-.66-1.76a16.67,16.67,0,0,0,4.88-1.13,5,5,0,0,0,2.65-3.31,2.41,2.41,0,0,0-2-2.74l-.26,0c-2,0-4.19,2.93-4.79,4.67,0,.13-.45,2-.52,2.45-.47-1.31-.94-2.6-1.34-3.89a43.1,43.1,0,0,1-1.33-5.35,16.93,16.93,0,0,0,4.92-1.13,5,5,0,0,0,2.65-3.31,2.41,2.41,0,0,0-2-2.74l-.25,0c-2,0-4.18,3-4.77,4.67,0,.11-.36,1.56-.48,2.18h-.13a32.75,32.75,0,0,1-.32-5.51,16.44,16.44,0,0,1,.17-2.93,15.84,15.84,0,0,0,4.89-.59,5.05,5.05,0,0,0,3-3,2.42,2.42,0,0,0-1.71-3l-.24-.06c-2-.26-4.49,2.47-5.27,4.1,0,.09-.37,1-.59,1.75a9.11,9.11,0,0,1,.14-1.28c.19-1.56.47-2.9.72-4.13.15-.7.31-1.32.45-1.9a16.26,16.26,0,0,0,4-2.77,5.06,5.06,0,0,0,1.28-4,2.43,2.43,0,0,0-2.88-1.84l-.24.07c-1.91.7-2.83,4.25-2.77,6.07,0,.16.37,2.59.42,2.57h0c-.16.56-.31,1.17-.47,1.82-.28,1.22-.59,2.61-.81,4.13a39.67,39.67,0,0,0-.51,5,31.54,31.54,0,0,0,.2,5.58h0c-.25-.53-1-2-1.07-2.12-1-1.56-3.85-3.85-5.8-3.3a2.39,2.39,0,0,0-1.66,3,2.11,2.11,0,0,0,.1.3A5,5,0,0,0,733.43,611.42Z" fill="#123a53"/><path d="M733.53,601a17.34,17.34,0,0,0,4.92,1.18s-.47-2.42-.52-2.57c-.57-1.71-2.69-4.67-4.67-4.67a2.4,2.4,0,0,0-2.32,2.5,1.94,1.94,0,0,0,0,.24A5.07,5.07,0,0,0,733.53,601Z" fill="#123a53" opacity="0.3" style="isolation:isolate"/><path d="M769.26,606.37s.93-2.27,1-2.43c.48-1.74.37-5.42-1.34-6.52a2.39,2.39,0,0,0-3.3.79,1.36,1.36,0,0,0-.13.24,5.08,5.08,0,0,0,.33,4.22A17.61,17.61,0,0,0,769.26,606.37Z" fill="#123a53" opacity="0.3" style="isolation:isolate"/><path d="M733.43,611.42a16.58,16.58,0,0,0,5-.14,43.75,43.75,0,0,0,1.23,5.56c.31,1.06.65,2.12,1,3.12-.23-.47-.45-.88-.48-.92-1-1.56-3.85-3.85-5.8-3.31a2.41,2.41,0,0,0-1.66,3c0,.1.07.2.11.3a5,5,0,0,0,3.39,2.54,16.3,16.3,0,0,0,4.88-.13c.14.41.26.81.42,1.22.67,1.93,1.37,3.86,2,5.78.21.68.42,1.35.6,2l-.42-.79c-1-1.56-3.83-3.85-5.79-3.3a2.38,2.38,0,0,0-1.66,2.95,1.76,1.76,0,0,0,.1.3,5.09,5.09,0,0,0,3.4,2.54,15.56,15.56,0,0,0,4.67-.11c.19.7.36,1.39.5,2.07s.2.92.26,1.39.13.93.21,1.38c.09.91.2,1.81.26,2.68,0,.61.09,1.19.14,1.76-.2-.67-.64-2-.69-2.08-.77-1.65-3.2-4.4-5.23-4.15a2.43,2.43,0,0,0-2,2.78,1.85,1.85,0,0,0,0,.23,5.09,5.09,0,0,0,3,3,16.9,16.9,0,0,0,5,.62c.08,1,.13,1.9.17,2.77.11,2.43.14,4.53.13,6.23h1.35c0-1.68-.11-3.81-.28-6.23,0-1-.15-2-.25-3.11a27.62,27.62,0,0,0,2.92-1,18.62,18.62,0,0,0,3.69,3.11c-.47.84-.94,1.65-1.39,2.4-1.11,1.87-2.13,3.47-3,4.78h1.56c.75-1.2,1.56-2.6,2.47-4.17.49-.84,1-1.76,1.48-2.71a16.71,16.71,0,0,0,4.89,1,5,5,0,0,0,3.79-1.89,2.4,2.4,0,0,0-.68-3.34,1.48,1.48,0,0,0-.21-.13c-1.84-.89-5,.9-6.23,2.23a18.29,18.29,0,0,0-1.21,1.56l.6-1.17c.42-.8.8-1.56,1.22-2.46.2-.42.39-.86.58-1.3s.35-.88.54-1.35c.39-1,.75-2.15,1.07-3.26a16.22,16.22,0,0,0,4.55,1.69,5,5,0,0,0,4-1.3,2.42,2.42,0,0,0-.17-3.41l-.19-.15c-1.68-1.16-5.11.14-6.56,1.24l-1.56,1.56c.21-.65.41-1.32.58-2,.5-2,1-4,1.4-6,.14-.61.3-1.21.44-1.84a16.59,16.59,0,0,0,4.67,1.76,5,5,0,0,0,4-1.29,2.39,2.39,0,0,0-.14-3.39l-.21-.18c-1.67-1.15-5.11.14-6.55,1.25a24.54,24.54,0,0,0-1.79,1.74c.32-1.34.64-2.68,1-4a41.41,41.41,0,0,1,1.84-5.18,17.48,17.48,0,0,0,4.67,1.76,5,5,0,0,0,4-1.29,2.41,2.41,0,0,0-.14-3.39l-.22-.17c-1.68-1.16-5.11.14-6.54,1.24-.11.08-1.14,1.08-1.56,1.56h-.09a31.81,31.81,0,0,1,2.77-4.8c.56-.84,1.17-1.56,1.76-2.33a16,16,0,0,0,4.41,2.21,5.09,5.09,0,0,0,4.14-.84,2.43,2.43,0,0,0,.16-3.44l-.16-.16c-1.56-1.33-5.09-.42-6.64.53a17.81,17.81,0,0,0-1.46,1.12l.81-1c1-1.17,2-2.17,2.9-3.12.49-.5,1-.93,1.41-1.34a16.17,16.17,0,0,0,4.91,0,5,5,0,0,0,3.29-2.66,2.4,2.4,0,0,0-1.34-3.12l-.22-.07c-2-.49-4.67,2-5.65,3.52-.08.14-1.13,2.38-1.1,2.38h0l-1.38,1.26c-.9.87-1.93,1.85-3,3a46.16,46.16,0,0,0-3.12,3.86,34,34,0,0,0-2.89,4.77h0c.07-.58.26-2.24.26-2.37,0-1.82-1.07-5.32-3-6a2.43,2.43,0,0,0-3,1.57c0,.11-.06.22-.08.33a5,5,0,0,0,1.45,4,16.53,16.53,0,0,0,4.25,2.64,44.25,44.25,0,0,0-2,5.31c-.33,1.06-.64,2.14-.92,3.21a6.69,6.69,0,0,1,.11-1c0-1.83-1.09-5.33-3-6a2.38,2.38,0,0,0-3,1.63,1.07,1.07,0,0,0-.06.27,5,5,0,0,0,1.43,4,15.83,15.83,0,0,0,4.13,2.58c-.1.42-.22.84-.31,1.25-.5,2-1,4-1.56,5.93-.19.69-.41,1.36-.61,2a6.28,6.28,0,0,1,.09-.89c0-1.82-1.09-5.32-3-6a2.4,2.4,0,0,0-3,1.63,1.31,1.31,0,0,0-.06.27,5,5,0,0,0,1.43,4,16,16,0,0,0,4,2.54c-.23.67-.47,1.35-.73,2a13.08,13.08,0,0,1-.55,1.29c-.21.42-.4.86-.59,1.28-.42.79-.82,1.56-1.24,2.38l-.86,1.56c.2-.67.56-2,.58-2.12a9.55,9.55,0,0,0-.67-4.67,5,5,0,0,0,0-.55,2.42,2.42,0,0,0-2.42-2.41H751c-2,.29-3.69,3.54-4,5.33,0,.11-.11,1.28-.14,2a10.06,10.06,0,0,0-.14-1.31c-.09-.89-.2-1.77-.33-2.72l-.23-1.39a7.19,7.19,0,0,0-.3-1.42c-.26-1.1-.56-2.21-.9-3.31a16,16,0,0,0,4.67-1.13,5,5,0,0,0,2.65-3.3,2.42,2.42,0,0,0-2-2.75l-.24,0c-2,0-4.18,2.93-4.77,4.67,0,.11-.33,1.39-.47,2.09-.2-.65-.4-1.32-.64-2-.67-1.92-1.4-3.85-2.11-5.77-.24-.59-.44-1.18-.66-1.76a16.67,16.67,0,0,0,4.88-1.13,5,5,0,0,0,2.65-3.31,2.41,2.41,0,0,0-2-2.74l-.26,0c-2,0-4.19,2.93-4.79,4.67,0,.13-.45,2-.52,2.45-.47-1.31-.94-2.6-1.34-3.89a43.1,43.1,0,0,1-1.33-5.35,16.93,16.93,0,0,0,4.92-1.13,5,5,0,0,0,2.65-3.31,2.41,2.41,0,0,0-2-2.74l-.25,0c-2,0-4.18,3-4.77,4.67,0,.11-.36,1.56-.48,2.18h-.13a32.75,32.75,0,0,1-.32-5.51,16.44,16.44,0,0,1,.17-2.93,15.84,15.84,0,0,0,4.89-.59,5.05,5.05,0,0,0,3-3,2.42,2.42,0,0,0-1.71-3l-.24-.06c-2-.26-4.49,2.47-5.27,4.1,0,.09-.37,1-.59,1.75a9.11,9.11,0,0,1,.14-1.28c.19-1.56.47-2.9.72-4.13.15-.7.31-1.32.45-1.9a16.26,16.26,0,0,0,4-2.77,5.06,5.06,0,0,0,1.28-4,2.43,2.43,0,0,0-2.88-1.84l-.24.07c-1.91.7-2.83,4.25-2.77,6.07,0,.16.37,2.59.42,2.57h0c-.16.56-.31,1.17-.47,1.82-.28,1.22-.59,2.61-.81,4.13a39.67,39.67,0,0,0-.51,5,31.54,31.54,0,0,0,.2,5.58h0c-.25-.53-1-2-1.07-2.12-1-1.56-3.85-3.85-5.8-3.3a2.39,2.39,0,0,0-1.66,3,2.11,2.11,0,0,0,.1.3A5,5,0,0,0,733.43,611.42Z" fill="#123a53" opacity="0.3" style="isolation:isolate"/><path d="M161.28,607.15s-.94-2.23-1-2.38c-.47-1.73-.36-5.33,1.32-6.42a2.37,2.37,0,0,1,3.25.8,2.12,2.12,0,0,1,.11.21,4.91,4.91,0,0,1-.32,4.15A16.93,16.93,0,0,1,161.28,607.15Z" fill="#123a53"/><path d="M196.31,601.86a17.18,17.18,0,0,1-4.85,1.16s.45-2.38.5-2.52c.56-1.7,2.65-4.67,4.67-4.67a2.36,2.36,0,0,1,2.29,2.42,2.48,2.48,0,0,1,0,.27A5,5,0,0,1,196.31,601.86Z" fill="#123a53"/><path d="M196.39,612.12a16.64,16.64,0,0,1-4.93-.14,40.81,40.81,0,0,1-1.21,5.45c-.3,1.05-.64,2.09-1,3.12l.46-.91c1-1.48,3.77-3.77,5.71-3.24a2.39,2.39,0,0,1,1.54,3,1.8,1.8,0,0,1-.08.21,4.9,4.9,0,0,1-3.35,2.49,15.33,15.33,0,0,1-4.78-.1c-.14.38-.27.79-.41,1.18-.67,1.92-1.35,3.82-2,5.7-.2.65-.39,1.32-.59,2l.42-.78c1-1.56,3.77-3.79,5.68-3.24a2.36,2.36,0,0,1,1.66,2.91,2.31,2.31,0,0,1-.1.28,5,5,0,0,1-3.35,2.49,15.24,15.24,0,0,1-4.67-.1c-.17.68-.34,1.37-.48,2s-.19.88-.25,1.35-.14.92-.2,1.37c-.1.87-.21,1.78-.27,2.63,0,.6-.09,1.16-.14,1.73.2-.67.64-1.94.69-2,.74-1.56,3.11-4.32,5.14-4.07a2.36,2.36,0,0,1,2,2.67l-.06.28a5,5,0,0,1-2.93,3,16,16,0,0,1-4.86.61c0,1-.12,1.87-.16,2.73-.1,2.38-.14,4.45-.14,6.09h-1.3c0-1.65.09-3.74.26-6.15,0-1,.16-2,.25-3a26.07,26.07,0,0,1-2.88-.92,18.16,18.16,0,0,1-3.61,3.11c.46.83.91,1.56,1.37,2.37,1.09,1.82,2.08,3.4,2.92,4.67h-1.55c-.74-1.18-1.56-2.55-2.43-4.09-.49-.84-1-1.75-1.47-2.66a16.36,16.36,0,0,1-4.79,1,5,5,0,0,1-3.73-1.87,2.35,2.35,0,0,1,.65-3.26l.22-.13c1.81-.87,5,.89,6.24,2.18,0,.08.76,1,1.19,1.56-.2-.39-.4-.75-.6-1.16-.41-.78-.78-1.55-1.2-2.41l-.56-1.26c-.19-.42-.35-.89-.53-1.33-.39-1-.73-2.12-1.06-3.21a15.66,15.66,0,0,1-4.47,1.66,5,5,0,0,1-4-1.28,2.38,2.38,0,0,1,.15-3.35l.19-.16c1.66-1.12,5,.14,6.45,1.23l1.56,1.47c-.19-.66-.39-1.31-.56-2-.5-1.93-.93-3.91-1.39-5.87l-.42-1.81a16.52,16.52,0,0,1-4.67,1.73,5,5,0,0,1-4-1.28,2.36,2.36,0,0,1,.16-3.34,1.56,1.56,0,0,1,.2-.16c1.65-1.14,5,.14,6.43,1.23.11.08,1.45,1.37,1.76,1.71-.31-1.32-.64-2.63-1-3.92a43.24,43.24,0,0,0-1.82-5.08,16.64,16.64,0,0,1-4.67,1.73,4.91,4.91,0,0,1-4-1.28,2.35,2.35,0,0,1,.16-3.32l.2-.17c1.56-1.13,5,.13,6.43,1.22.1.08,1.11,1.06,1.56,1.56l.09-.08a29.5,29.5,0,0,0-2.71-4.68c-.56-.82-1.15-1.55-1.73-2.3a15.87,15.87,0,0,1-4.33,2.18,4.92,4.92,0,0,1-4.08-.84,2.36,2.36,0,0,1-.17-3.34,1,1,0,0,1,.17-.18c1.56-1.31,5-.41,6.53.51a15.08,15.08,0,0,1,1.43,1.11l-.79-1c-1-1.13-2-2.12-2.84-3l-1.4-1.32a15.52,15.52,0,0,1-4.81,0,4.91,4.91,0,0,1-3.24-2.62,2.36,2.36,0,0,1,1.37-3,.6.6,0,0,1,.19-.06c1.94-.46,4.67,1.94,5.56,3.47,0,.12,1.1,2.34,1.06,2.34h0l1.37,1.24c.9.86,1.9,1.82,2.91,2.95a40.29,40.29,0,0,1,3.11,3.78,29.7,29.7,0,0,1,2.73,4.49h0c0-.58-.26-2.21-.26-2.34,0-1.78,1.05-5.23,2.95-5.84a2.37,2.37,0,0,1,3,1.53,3.15,3.15,0,0,1,.09.42,5,5,0,0,1-1.4,3.91,16.79,16.79,0,0,1-4.19,2.6,43.88,43.88,0,0,1,2,5.22c.32,1,.62,2.08.9,3.11a6.48,6.48,0,0,0-.11-1c0-1.79,1.06-5.24,3-5.84a2.35,2.35,0,0,1,2.93,1.61,1.05,1.05,0,0,1,.06.24,4.91,4.91,0,0,1-1.42,3.91,15.13,15.13,0,0,1-4.05,2.55c.1.41.21.81.31,1.22.5,2,1,3.92,1.56,5.82.19.67.39,1.33.61,2a5.48,5.48,0,0,0-.09-.87c0-1.79,1.05-5.23,3-5.86a2.37,2.37,0,0,1,2.93,1.62l.06.25a5,5,0,0,1-1.42,3.91,14.66,14.66,0,0,1-3.94,2.49c.23.66.46,1.33.71,2s.35.85.55,1.27l.59,1.25,1.22,2.34c.4.78.57,1,.84,1.55-.19-.67-.55-2-.56-2.1a9.32,9.32,0,0,1,.65-4.58v-.53a2.37,2.37,0,0,1,2.37-2.36H179c2,.27,3.63,3.47,3.94,5.23,0,.1.09,1.25.14,2a4.7,4.7,0,0,1,.12-1.28c.1-.87.22-1.74.33-2.68l.23-1.37a8.06,8.06,0,0,1,.3-1.39q.38-1.63.87-3.27a15.07,15.07,0,0,1-4.67-1.09,4.93,4.93,0,0,1-2.6-3.24,2.34,2.34,0,0,1,1.94-2.69l.28,0c2,0,4.12,2.88,4.68,4.56,0,.11.31,1.37.45,2.06.2-.66.4-1.3.64-1.95.65-1.9,1.37-3.79,2.07-5.67l.65-1.74a16,16,0,0,1-4.81-1.11,5,5,0,0,1-2.6-3.24,2.38,2.38,0,0,1,2-2.7l.22,0c2,0,4.11,2.89,4.67,4.57,0,.14.44,1.94.51,2.41.47-1.27.92-2.55,1.33-3.83A41,41,0,0,0,191,612a16.31,16.31,0,0,1-4.83-1.1,5,5,0,0,1-2.6-3.24,2.35,2.35,0,0,1,2-2.67l.26,0c2,0,4.12,2.88,4.68,4.57,0,.1.34,1.55.48,2.14h.11a30.66,30.66,0,0,0,.33-5.42,15.11,15.11,0,0,0-.18-2.88,16.3,16.3,0,0,1-4.81-.57,5,5,0,0,1-2.94-2.95,2.38,2.38,0,0,1,1.69-2.91l.22-.05c2-.25,4.41,2.42,5.17,4l.6,1.71L191,601.4c-.21-1.55-.47-2.86-.72-4.06-.16-.69-.3-1.29-.44-1.87a16.1,16.1,0,0,1-4-2.71,5,5,0,0,1-1.25-4,2.36,2.36,0,0,1,2.8-1.83l.32.08c1.88.69,2.78,4.18,2.72,6,0,.16-.37,2.55-.4,2.54h0c.15.56.31,1.15.46,1.79.28,1.2.58,2.57.81,4.06a42.25,42.25,0,0,1,.5,4.88,30.43,30.43,0,0,1-.22,5.48h0c.25-.53,1-2,1.06-2.08,1-1.56,3.77-3.79,5.69-3.24a2.36,2.36,0,0,1,1.65,2.91c0,.09-.06.19-.09.28A5,5,0,0,1,196.39,612.12Z" fill="#123a53"/><path d="M196.31,601.86a17.18,17.18,0,0,1-4.85,1.16s.45-2.38.5-2.52c.56-1.7,2.65-4.67,4.67-4.67a2.36,2.36,0,0,1,2.29,2.42,2.48,2.48,0,0,1,0,.27A5,5,0,0,1,196.31,601.86Z" fill="#123a53" opacity="0.3" style="isolation:isolate"/><path d="M161.28,607.15s-.94-2.23-1-2.38c-.47-1.73-.36-5.33,1.32-6.42a2.37,2.37,0,0,1,3.25.8,2.12,2.12,0,0,1,.11.21,4.91,4.91,0,0,1-.32,4.15A16.93,16.93,0,0,1,161.28,607.15Z" fill="#123a53" opacity="0.3" style="isolation:isolate"/><path d="M196.39,612.12a16.64,16.64,0,0,1-4.93-.14,40.81,40.81,0,0,1-1.21,5.45c-.3,1.05-.64,2.09-1,3.12l.46-.91c1-1.48,3.77-3.77,5.71-3.24a2.39,2.39,0,0,1,1.54,3,1.8,1.8,0,0,1-.08.21,4.9,4.9,0,0,1-3.35,2.49,15.33,15.33,0,0,1-4.78-.1c-.14.38-.27.79-.41,1.18-.67,1.92-1.35,3.82-2,5.7-.2.65-.39,1.32-.59,2l.42-.78c1-1.56,3.77-3.79,5.68-3.24a2.36,2.36,0,0,1,1.66,2.91,2.31,2.31,0,0,1-.1.28,5,5,0,0,1-3.35,2.49,15.24,15.24,0,0,1-4.67-.1c-.17.68-.34,1.37-.48,2s-.19.88-.25,1.35-.14.92-.2,1.37c-.1.87-.21,1.78-.27,2.63,0,.6-.09,1.16-.14,1.73.2-.67.64-1.94.69-2,.74-1.56,3.11-4.32,5.14-4.07a2.36,2.36,0,0,1,2,2.67l-.06.28a5,5,0,0,1-2.93,3,16,16,0,0,1-4.86.61c0,1-.12,1.87-.16,2.73-.1,2.38-.14,4.45-.14,6.09h-1.3c0-1.65.09-3.74.26-6.15,0-1,.16-2,.25-3a26.07,26.07,0,0,1-2.88-.92,18.16,18.16,0,0,1-3.61,3.11c.46.83.91,1.56,1.37,2.37,1.09,1.82,2.08,3.4,2.92,4.67h-1.55c-.74-1.18-1.56-2.55-2.43-4.09-.49-.84-1-1.75-1.47-2.66a16.36,16.36,0,0,1-4.79,1,5,5,0,0,1-3.73-1.87,2.35,2.35,0,0,1,.65-3.26l.22-.13c1.81-.87,5,.89,6.24,2.18,0,.08.76,1,1.19,1.56-.2-.39-.4-.75-.6-1.16-.41-.78-.78-1.55-1.2-2.41l-.56-1.26c-.19-.42-.35-.89-.53-1.33-.39-1-.73-2.12-1.06-3.21a15.66,15.66,0,0,1-4.47,1.66,5,5,0,0,1-4-1.28,2.38,2.38,0,0,1,.15-3.35l.19-.16c1.66-1.12,5,.14,6.45,1.23l1.56,1.47c-.19-.66-.39-1.31-.56-2-.5-1.93-.93-3.91-1.39-5.87l-.42-1.81a16.52,16.52,0,0,1-4.67,1.73,5,5,0,0,1-4-1.28,2.36,2.36,0,0,1,.16-3.34,1.56,1.56,0,0,1,.2-.16c1.65-1.14,5,.14,6.43,1.23.11.08,1.45,1.37,1.76,1.71-.31-1.32-.64-2.63-1-3.92a43.24,43.24,0,0,0-1.82-5.08,16.64,16.64,0,0,1-4.67,1.73,4.91,4.91,0,0,1-4-1.28,2.35,2.35,0,0,1,.16-3.32l.2-.17c1.56-1.13,5,.13,6.43,1.22.1.08,1.11,1.06,1.56,1.56l.09-.08a29.5,29.5,0,0,0-2.71-4.68c-.56-.82-1.15-1.55-1.73-2.3a15.87,15.87,0,0,1-4.33,2.18,4.92,4.92,0,0,1-4.08-.84,2.36,2.36,0,0,1-.17-3.34,1,1,0,0,1,.17-.18c1.56-1.31,5-.41,6.53.51a15.08,15.08,0,0,1,1.43,1.11l-.79-1c-1-1.13-2-2.12-2.84-3l-1.4-1.32a15.52,15.52,0,0,1-4.81,0,4.91,4.91,0,0,1-3.24-2.62,2.36,2.36,0,0,1,1.37-3,.6.6,0,0,1,.19-.06c1.94-.46,4.67,1.94,5.56,3.47,0,.12,1.1,2.34,1.06,2.34h0l1.37,1.24c.9.86,1.9,1.82,2.91,2.95a40.29,40.29,0,0,1,3.11,3.78,29.7,29.7,0,0,1,2.73,4.49h0c0-.58-.26-2.21-.26-2.34,0-1.78,1.05-5.23,2.95-5.84a2.37,2.37,0,0,1,3,1.53,3.15,3.15,0,0,1,.09.42,5,5,0,0,1-1.4,3.91,16.79,16.79,0,0,1-4.19,2.6,43.88,43.88,0,0,1,2,5.22c.32,1,.62,2.08.9,3.11a6.48,6.48,0,0,0-.11-1c0-1.79,1.06-5.24,3-5.84a2.35,2.35,0,0,1,2.93,1.61,1.05,1.05,0,0,1,.06.24,4.91,4.91,0,0,1-1.42,3.91,15.13,15.13,0,0,1-4.05,2.55c.1.41.21.81.31,1.22.5,2,1,3.92,1.56,5.82.19.67.39,1.33.61,2a5.48,5.48,0,0,0-.09-.87c0-1.79,1.05-5.23,3-5.86a2.37,2.37,0,0,1,2.93,1.62l.06.25a5,5,0,0,1-1.42,3.91,14.66,14.66,0,0,1-3.94,2.49c.23.66.46,1.33.71,2s.35.85.55,1.27l.59,1.25,1.22,2.34c.4.78.57,1,.84,1.55-.19-.67-.55-2-.56-2.1a9.32,9.32,0,0,1,.65-4.58v-.53a2.37,2.37,0,0,1,2.37-2.36H179c2,.27,3.63,3.47,3.94,5.23,0,.1.09,1.25.14,2a4.7,4.7,0,0,1,.12-1.28c.1-.87.22-1.74.33-2.68l.23-1.37a8.06,8.06,0,0,1,.3-1.39q.38-1.63.87-3.27a15.07,15.07,0,0,1-4.67-1.09,4.93,4.93,0,0,1-2.6-3.24,2.34,2.34,0,0,1,1.94-2.69l.28,0c2,0,4.12,2.88,4.68,4.56,0,.11.31,1.37.45,2.06.2-.66.4-1.3.64-1.95.65-1.9,1.37-3.79,2.07-5.67l.65-1.74a16,16,0,0,1-4.81-1.11,5,5,0,0,1-2.6-3.24,2.38,2.38,0,0,1,2-2.7l.22,0c2,0,4.11,2.89,4.67,4.57,0,.14.44,1.94.51,2.41.47-1.27.92-2.55,1.33-3.83A41,41,0,0,0,191,612a16.31,16.31,0,0,1-4.83-1.1,5,5,0,0,1-2.6-3.24,2.35,2.35,0,0,1,2-2.67l.26,0c2,0,4.12,2.88,4.68,4.57,0,.1.34,1.55.48,2.14h.11a30.66,30.66,0,0,0,.33-5.42,15.11,15.11,0,0,0-.18-2.88,16.3,16.3,0,0,1-4.81-.57,5,5,0,0,1-2.94-2.95,2.38,2.38,0,0,1,1.69-2.91l.22-.05c2-.25,4.41,2.42,5.17,4l.6,1.71L191,601.4c-.21-1.55-.47-2.86-.72-4.06-.16-.69-.3-1.29-.44-1.87a16.1,16.1,0,0,1-4-2.71,5,5,0,0,1-1.25-4,2.36,2.36,0,0,1,2.8-1.83l.32.08c1.88.69,2.78,4.18,2.72,6,0,.16-.37,2.55-.4,2.54h0c.15.56.31,1.15.46,1.79.28,1.2.58,2.57.81,4.06a42.25,42.25,0,0,1,.5,4.88,30.43,30.43,0,0,1-.22,5.48h0c.25-.53,1-2,1.06-2.08,1-1.56,3.77-3.79,5.69-3.24a2.36,2.36,0,0,1,1.65,2.91c0,.09-.06.19-.09.28A5,5,0,0,1,196.39,612.12Z" fill="#123a53" opacity="0.3" style="isolation:isolate"/><path d="M226.1,624.32l.6-1.45c.28-1,.21-3.23-.8-3.9a1.46,1.46,0,0,0-2,.52.41.41,0,0,0-.05.09,3.08,3.08,0,0,0,.2,2.52A10.55,10.55,0,0,0,226.1,624.32Z" fill="#123a53"/><path d="M204.89,621.12a9.88,9.88,0,0,0,2.93.7s-.28-1.43-.31-1.55c-.33-1-1.56-2.82-2.81-2.81a1.43,1.43,0,0,0-1.37,1.49V619A3,3,0,0,0,204.89,621.12Z" fill="#123a53"/><path d="M204.76,627.32a9.44,9.44,0,0,0,3-.09,26.93,26.93,0,0,0,.73,3.32c.18.62.39,1.26.6,1.88-.14-.26-.26-.51-.29-.54-.59-.91-2.28-2.29-3.44-2a1.44,1.44,0,0,0-1,1.8l.06.15a3,3,0,0,0,2,1.56,10.06,10.06,0,0,0,2.9,0,2.24,2.24,0,0,0,.25.71c.41,1.16.81,2.31,1.18,3.45.13.4.25.81.36,1.21l-.25-.48c-.6-.9-2.29-2.29-3.45-2a1.44,1.44,0,0,0-.94,1.82.61.61,0,0,0,.05.12,3,3,0,0,0,2,1.56,8.89,8.89,0,0,0,2.82,0c.11.42.22.84.3,1.25a8.29,8.29,0,0,1,.15.82c0,.28.08.55.13.83,0,.53.11,1.07.15,1.56l.1,1-.42-1.25c-.46-1-1.92-2.6-3.12-2.46a1.43,1.43,0,0,0-1.2,1.63l0,.16a3,3,0,0,0,1.78,1.79,9.43,9.43,0,0,0,2.94.38c0,.56.08,1.12.1,1.65V651h.81a29.41,29.41,0,0,0-.18-3.74c0-.57-.09-1.2-.15-1.84a11.76,11.76,0,0,0,1.74-.56,10.85,10.85,0,0,0,2.2,1.86L216,648.1c-.65,1.11-1.27,2.07-1.77,2.85h.92c.45-.72.95-1.56,1.55-2.49l.89-1.56a9.91,9.91,0,0,0,2.9.59,3,3,0,0,0,2.26-1.12,1.42,1.42,0,0,0-.36-2l-.17-.1c-1.09-.53-3,.55-3.74,1.32l-.73,1,.37-.7.72-1.47.34-.76a8.55,8.55,0,0,0,.33-.81c.23-.62.43-1.28.64-1.93a10,10,0,0,0,2.71,1,3,3,0,0,0,2.4-.78,1.44,1.44,0,0,0-.11-2L225,639c-1-.69-3.12.08-3.9.75,0,0-.62.57-.92.87.11-.39.24-.79.35-1.2.29-1.17.56-2.37.82-3.55.1-.37.17-.73.27-1.09a10.2,10.2,0,0,0,2.79,1,3,3,0,0,0,2.41-.78,1.44,1.44,0,0,0-.1-2l-.12-.09c-1-.69-3.11,0-3.89.74,0,0-.89.83-1.08,1,.19-.79.39-1.56.61-2.37a24.48,24.48,0,0,1,1.11-3.11,10.26,10.26,0,0,0,2.8,1,3,3,0,0,0,2.4-.76,1.45,1.45,0,0,0-.09-2l-.11-.09c-1-.7-3.12.08-3.91.73,0,0-.67.64-.95.94h0a17.6,17.6,0,0,1,1.65-2.85c.34-.5.7-1,1-1.39a10.43,10.43,0,0,0,2.63,1.31,3,3,0,0,0,2.46-.5,1.43,1.43,0,0,0,.11-2l-.11-.11c-.91-.8-3.11-.25-4,.31,0,0-.53.39-.87.67l.48-.59c.59-.69,1.18-1.3,1.71-1.81l.86-.81a9.47,9.47,0,0,0,2.91,0,3,3,0,0,0,2-1.56,1.41,1.41,0,0,0-.78-1.84l-.18-.06c-1.19-.28-2.81,1.17-3.37,2.09,0,.09-.67,1.42-.65,1.43h0c-.26.22-.53.47-.83.75-.54.51-1.15,1.11-1.76,1.77s-1.3,1.51-1.9,2.31a19.35,19.35,0,0,0-1.71,2.83h0c0-.35.16-1.33.16-1.41,0-1.09-.64-3.12-1.79-3.54a1.43,1.43,0,0,0-1.77,1,1,1,0,0,0,0,.17,2.94,2.94,0,0,0,.86,2.37,9.75,9.75,0,0,0,2.52,1.56,28.53,28.53,0,0,0-1.2,3.11c-.2.63-.37,1.27-.55,1.9v-.6c0-1.09-.63-3.12-1.79-3.55a1.44,1.44,0,0,0-1.79,1l0,.14a3,3,0,0,0,.86,2.37,9.42,9.42,0,0,0,2.46,1.56l-.19.73c-.29,1.2-.59,2.38-.92,3.53q-.16.62-.36,1.2V640c0-1.09-.63-3.11-1.79-3.55a1.44,1.44,0,0,0-1.77,1,.8.8,0,0,0,0,.15,2.94,2.94,0,0,0,.85,2.37,9.47,9.47,0,0,0,2.39,1.56c-.14.4-.28.81-.44,1.18s-.2.53-.33.78-.23.5-.36.76l-.74,1.42-.5.92c.11-.41.33-1.2.34-1.28a5.47,5.47,0,0,0-.4-2.77,1.82,1.82,0,0,0,0-.33,1.42,1.42,0,0,0-1.41-1.42h-.15c-1.2.16-2.2,2.11-2.4,3.12v.42a9.93,9.93,0,0,0-.2-1.56l-.14-.82a4.67,4.67,0,0,0-.17-.86c-.16-.65-.35-1.31-.53-2a9.36,9.36,0,0,0,2.8-.65,3,3,0,0,0,1.56-2,1.43,1.43,0,0,0-1.18-1.64l-.18,0c-1.2,0-2.49,1.76-2.83,2.77l-.28,1.25c-.13-.39-.24-.78-.38-1.19-.4-1.13-.84-2.29-1.26-3.42-.14-.36-.26-.7-.39-1.06a10.29,10.29,0,0,0,2.9-.67,3.12,3.12,0,0,0,1.56-2,1.43,1.43,0,0,0-1.2-1.63l-.16,0c-1.21,0-2.49,1.75-2.85,2.78,0,0-.26,1.16-.31,1.44-.28-.77-.56-1.55-.79-2.32a24.05,24.05,0,0,1-.8-3.11A9.83,9.83,0,0,0,211,627a3,3,0,0,0,1.56-2,1.44,1.44,0,0,0-1.18-1.65l-.16,0c-1.22,0-2.49,1.76-2.85,2.77,0,.08-.21.91-.28,1.31H208a21.3,21.3,0,0,1-.2-3.29,9,9,0,0,1,.11-1.74,9.53,9.53,0,0,0,2.91-.36,3,3,0,0,0,1.79-1.77,1.43,1.43,0,0,0-1-1.76l-.16,0c-1.2-.15-2.67,1.47-3.12,2.45,0,0-.22.62-.34,1v-.76c.12-.9.28-1.73.44-2.46a4.43,4.43,0,0,1,.26-1.14,9.76,9.76,0,0,0,2.43-2,3.08,3.08,0,0,0,.76-2.4,1.44,1.44,0,0,0-1.73-1.09l-.14,0c-1.13.42-1.68,2.53-1.65,3.61,0,.09.24,1.56.25,1.56h0c-.09.32-.18.68-.28,1.09q-.3,1.21-.48,2.46a22.2,22.2,0,0,0-.31,2.94,18.52,18.52,0,0,0,.12,3.33h0c-.15-.31-.61-1.19-.65-1.26-.59-.9-2.29-2.29-3.44-2a1.42,1.42,0,0,0-.95,1.77.52.52,0,0,0,.06.16A3,3,0,0,0,204.76,627.32Z" fill="#123a53"/><path d="M204.89,621.12a9.88,9.88,0,0,0,2.93.7s-.28-1.43-.31-1.55c-.33-1-1.56-2.82-2.81-2.81a1.43,1.43,0,0,0-1.37,1.49V619A3,3,0,0,0,204.89,621.12Z" fill="#123a53" opacity="0.3" style="isolation:isolate"/><path d="M226.1,624.32l.6-1.45c.28-1,.21-3.23-.8-3.9a1.46,1.46,0,0,0-2,.52.41.41,0,0,0-.05.09,3.08,3.08,0,0,0,.2,2.52A10.55,10.55,0,0,0,226.1,624.32Z" fill="#123a53" opacity="0.3" style="isolation:isolate"/><path d="M204.76,627.32a9.44,9.44,0,0,0,3-.09,26.93,26.93,0,0,0,.73,3.32c.18.62.39,1.26.6,1.88-.14-.26-.26-.51-.29-.54-.59-.91-2.28-2.29-3.44-2a1.44,1.44,0,0,0-1,1.8l.06.15a3,3,0,0,0,2,1.56,10.06,10.06,0,0,0,2.9,0,2.24,2.24,0,0,0,.25.71c.41,1.16.81,2.31,1.18,3.45.13.4.25.81.36,1.21l-.25-.48c-.6-.9-2.29-2.29-3.45-2a1.44,1.44,0,0,0-.94,1.82.61.61,0,0,0,.05.12,3,3,0,0,0,2,1.56,8.89,8.89,0,0,0,2.82,0c.11.42.22.84.3,1.25a8.29,8.29,0,0,1,.15.82c0,.28.08.55.13.83,0,.53.11,1.07.15,1.56l.1,1-.42-1.25c-.46-1-1.92-2.6-3.12-2.46a1.43,1.43,0,0,0-1.2,1.63l0,.16a3,3,0,0,0,1.78,1.79,9.43,9.43,0,0,0,2.94.38c0,.56.08,1.12.1,1.65V651h.81a29.41,29.41,0,0,0-.18-3.74c0-.57-.09-1.2-.15-1.84a11.76,11.76,0,0,0,1.74-.56,10.85,10.85,0,0,0,2.2,1.86L216,648.1c-.65,1.11-1.27,2.07-1.77,2.85h.92c.45-.72.95-1.56,1.55-2.49l.89-1.56a9.91,9.91,0,0,0,2.9.59,3,3,0,0,0,2.26-1.12,1.42,1.42,0,0,0-.36-2l-.17-.1c-1.09-.53-3,.55-3.74,1.32l-.73,1,.37-.7.72-1.47.34-.76a8.55,8.55,0,0,0,.33-.81c.23-.62.43-1.28.64-1.93a10,10,0,0,0,2.71,1,3,3,0,0,0,2.4-.78,1.44,1.44,0,0,0-.11-2L225,639c-1-.69-3.12.08-3.9.75,0,0-.62.57-.92.87.11-.39.24-.79.35-1.2.29-1.17.56-2.37.82-3.55.1-.37.17-.73.27-1.09a10.2,10.2,0,0,0,2.79,1,3,3,0,0,0,2.41-.78,1.44,1.44,0,0,0-.1-2l-.12-.09c-1-.69-3.11,0-3.89.74,0,0-.89.83-1.08,1,.19-.79.39-1.56.61-2.37a24.48,24.48,0,0,1,1.11-3.11,10.26,10.26,0,0,0,2.8,1,3,3,0,0,0,2.4-.76,1.45,1.45,0,0,0-.09-2l-.11-.09c-1-.7-3.12.08-3.91.73,0,0-.67.64-.95.94h0a17.6,17.6,0,0,1,1.65-2.85c.34-.5.7-1,1-1.39a10.43,10.43,0,0,0,2.63,1.31,3,3,0,0,0,2.46-.5,1.43,1.43,0,0,0,.11-2l-.11-.11c-.91-.8-3.11-.25-4,.31,0,0-.53.39-.87.67l.48-.59c.59-.69,1.18-1.3,1.71-1.81l.86-.81a9.47,9.47,0,0,0,2.91,0,3,3,0,0,0,2-1.56,1.41,1.41,0,0,0-.78-1.84l-.18-.06c-1.19-.28-2.81,1.17-3.37,2.09,0,.09-.67,1.42-.65,1.43h0c-.26.22-.53.47-.83.75-.54.51-1.15,1.11-1.76,1.77s-1.3,1.51-1.9,2.31a19.35,19.35,0,0,0-1.71,2.83h0c0-.35.16-1.33.16-1.41,0-1.09-.64-3.12-1.79-3.54a1.43,1.43,0,0,0-1.77,1,1,1,0,0,0,0,.17,2.94,2.94,0,0,0,.86,2.37,9.75,9.75,0,0,0,2.52,1.56,28.53,28.53,0,0,0-1.2,3.11c-.2.63-.37,1.27-.55,1.9v-.6c0-1.09-.63-3.12-1.79-3.55a1.44,1.44,0,0,0-1.79,1l0,.14a3,3,0,0,0,.86,2.37,9.42,9.42,0,0,0,2.46,1.56l-.19.73c-.29,1.2-.59,2.38-.92,3.53q-.16.62-.36,1.2V640c0-1.09-.63-3.11-1.79-3.55a1.44,1.44,0,0,0-1.77,1,.8.8,0,0,0,0,.15,2.94,2.94,0,0,0,.85,2.37,9.47,9.47,0,0,0,2.39,1.56c-.14.4-.28.81-.44,1.18s-.2.53-.33.78-.23.5-.36.76l-.74,1.42-.5.92c.11-.41.33-1.2.34-1.28a5.47,5.47,0,0,0-.4-2.77,1.82,1.82,0,0,0,0-.33,1.42,1.42,0,0,0-1.41-1.42h-.15c-1.2.16-2.2,2.11-2.4,3.12v.42a9.93,9.93,0,0,0-.2-1.56l-.14-.82a4.67,4.67,0,0,0-.17-.86c-.16-.65-.35-1.31-.53-2a9.36,9.36,0,0,0,2.8-.65,3,3,0,0,0,1.56-2,1.43,1.43,0,0,0-1.18-1.64l-.18,0c-1.2,0-2.49,1.76-2.83,2.77l-.28,1.25c-.13-.39-.24-.78-.38-1.19-.4-1.13-.84-2.29-1.26-3.42-.14-.36-.26-.7-.39-1.06a10.29,10.29,0,0,0,2.9-.67,3.12,3.12,0,0,0,1.56-2,1.43,1.43,0,0,0-1.2-1.63l-.16,0c-1.21,0-2.49,1.75-2.85,2.78,0,0-.26,1.16-.31,1.44-.28-.77-.56-1.55-.79-2.32a24.05,24.05,0,0,1-.8-3.11A9.83,9.83,0,0,0,211,627a3,3,0,0,0,1.56-2,1.44,1.44,0,0,0-1.18-1.65l-.16,0c-1.22,0-2.49,1.76-2.85,2.77,0,.08-.21.91-.28,1.31H208a21.3,21.3,0,0,1-.2-3.29,9,9,0,0,1,.11-1.74,9.53,9.53,0,0,0,2.91-.36,3,3,0,0,0,1.79-1.77,1.43,1.43,0,0,0-1-1.76l-.16,0c-1.2-.15-2.67,1.47-3.12,2.45,0,0-.22.62-.34,1v-.76c.12-.9.28-1.73.44-2.46a4.43,4.43,0,0,1,.26-1.14,9.76,9.76,0,0,0,2.43-2,3.08,3.08,0,0,0,.76-2.4,1.44,1.44,0,0,0-1.73-1.09l-.14,0c-1.13.42-1.68,2.53-1.65,3.61,0,.09.24,1.56.25,1.56h0c-.09.32-.18.68-.28,1.09q-.3,1.21-.48,2.46a22.2,22.2,0,0,0-.31,2.94,18.52,18.52,0,0,0,.12,3.33h0c-.15-.31-.61-1.19-.65-1.26-.59-.9-2.29-2.29-3.44-2a1.42,1.42,0,0,0-.95,1.77.52.52,0,0,0,.06.16A3,3,0,0,0,204.76,627.32Z" fill="#123a53" opacity="0.3" style="isolation:isolate"/></g><path d="M194.86,145.24l-2.36-28.89s-10.33,5.21-11.77,13.84C180.73,130.19,179.94,140.79,194.86,145.24Z" fill="#f48225" data-secondary="true"/><path d="M399.5,294.14h20.82l12.06,20.64,4.8,12.3s-13.71-1.73-25.37-9.59l-15.08-15.05Z" fill="#e37961"/><path d="M534.14,343.3a1,1,0,0,1-.75,1.17c-1.84.26-6.56-.84-14.75-13.93,0,0-9.42-14.2-6.73-19.45a.89.89,0,0,1,1.41-.27C516.67,313.9,530.77,327.65,534.14,343.3Z" fill="#686175" data-primary="true"/><path d="M534.14,343.3a1,1,0,0,1-.75,1.17c-1.84.26-6.56-.84-14.75-13.93,0,0-9.42-14.2-6.73-19.45a.89.89,0,0,1,1.41-.27C516.67,313.9,530.77,327.65,534.14,343.3Z" opacity="0.2"/><path d="M512.38,310.61s17.41,15.21,21.79,32.59c0,0,17-38.28,31.08-49.25a280.15,280.15,0,0,0-27.2,7.13C528.62,304.06,520.05,307.33,512.38,310.61Z" fill="#686175" data-primary="true"/><path d="M512.38,310.61s17.41,15.21,21.79,32.59c0,0,17-38.28,31.08-49.25a280.15,280.15,0,0,0-27.2,7.13C528.62,304.06,520.05,307.33,512.38,310.61Z" opacity="0.3"/><path d="M525.11,400.3S501.25,456.22,495.45,506l-12.67,38.41s18.3,4.45,27.89,1.62c0,0-2-18.6,24.9-55.39l36.14-42,18.23,83.69v17s8.44,5.67,25.86,0v-7.15a4.09,4.09,0,0,1,.86-2.58c.81-1,1.57-4.32-.86-14.93,0,0,19.12-86.12,14.55-104.51l-58.64-16.38-44.32-12.07Z" fill="#f48225" data-secondary="true"/><path d="M473.28,568.56s-14.22,47.89-20.11,54.28c0,0-4.66,3.2-3.68,6.77,0,0-4.42-1.88-2.7,4.51a88.69,88.69,0,0,1-27,9.59s-9.95-2.22-8.14,5.28c.31,1.31,1.83,2.24,3.56,2.24h54.89A18.41,18.41,0,0,0,473.28,640s1-3.76,3.21-5.27c0,0,4.42.94,1.47-7.89,0,0,1-3.95,5.89-8.27,0,0,25.85-30.86,27.28-45.41C511.13,573.11,488.72,576.31,473.28,568.56Z" fill="#686175" data-primary="true"/><path d="M585.84,575.28s.09,14.89,10,34.61l1.66,18.46s-3.32.76,0,2.29c0,0-7.63,4.32,0,8.64,0,0-10.29,9.91-3,14.74h27.58s5.6-4.07-4-14c0,0,3.63-1.48-.28-4.14a3.09,3.09,0,0,1-1.38-3.66c.7-1.87,1.5-5.29,2-11.51,0,0,9.55-22.05,6.73-46.35l-18-7Z" fill="#686175" data-primary="true"/><path d="M314.28,422.43C171.36,400,167.34,242.18,167.3,239.84c6.93,13.13,40.58,23.81,81.3,24.86,41.93,1.11,76.89-8.35,83.11-21.69-10.72,65.16,25.46,122.48,37.76,139.7a24.46,24.46,0,0,1,3.86,21.06C365.37,430.44,314.28,422.43,314.28,422.43Z" fill="none" stroke="#123a53" stroke-miterlimit="10"/><path d="M192.59,220.19s-4.3,71.62,46.09,141c0,0,31.89,45.46,88.45,62.33" fill="none" stroke="#123a53" stroke-miterlimit="10"/><path d="M243.45,214.27S228.41,362,345.26,422.55" fill="none" stroke="#123a53" stroke-miterlimit="10"/><path d="M290,218.73s-9.7,71.78,22.93,131.59c0,0,15,27.47,28.19,36.59a45.49,45.49,0,0,1,7.32,6.1c5.39,5.69,12.06,15.68,7.28,27" fill="none" stroke="#123a53" stroke-miterlimit="10"/><path d="M332.68,300c0,7.18-29.9,27.89-78.75,31.67-40.63,3.14-68-5.13-68-12.32s32.62-27.7,73.36-32.37C299.58,282.41,332.68,292.84,332.68,300Z" fill="none" stroke="#123a53" stroke-miterlimit="10"/><path d="M253.38,401s-5.27-20.42,52.6-46.83c0,0,26.73-11.62,43.07-6.58l2.59,5.31s-28.05,47.85-93.95,50.58Z" fill="none" stroke="#123a53" stroke-miterlimit="10"/><path d="M226.09,360.2l26-37.28s23.15,25.71,44.74,32.91c0,0-13,24.69-37.46,33.17C259.33,389,244.86,385.4,226.09,360.2Z" fill="#f48225" data-secondary="true"/><path d="M231,360.2l20.83-30.08s23.39,23.65,42.67,29.82c0,0-4.7,12.44-31.14,27.18A96.43,96.43,0,0,1,231,360.2Z" fill="#f3e4cd"/><path d="M265.5,370.88l3.87,3.16c.94-1,2.15-2.31,2.83-3a3.13,3.13,0,0,1-2.46-.83c-2.09-1.7-1.67-3.85.36-6.35l1.59-2c2.2-2.7,4.83-4.26,8.13-1.58s2.37,5.3.61,7.46l-.37.46-3-2.47.66-.82c.55-.68.94-1.51.19-2.12s-1.39-.23-2.49,1.13l-1.87,2.29c-1,1.21-1.11,1.82-.4,2.4s1.23.34,2.17-.63l2.62,2.52c-2.19,2.2-5.64,5.88-8,8.45L263,373.33Z" fill="#f48225" data-secondary="true"/><path d="M256.63,361.36l6.13-7.54c2-2.47,4.54-3.76,7.78-1.12s2.25,5.29.31,7.68l-6,7.41c-2.34,2.87-5,3.3-7.68,1.15S254.42,364.08,256.63,361.36Zm4.8,4.31,6.64-8.16c.75-.92.92-1.66.22-2.22s-1.4-.2-2.15.73l-6.64,8.16c-.65.8-.89,1.54-.17,2.13S260.71,366.56,261.43,365.67Z" fill="#f48225" data-secondary="true"/><path d="M263.24,347.11l-20.4,9.83-1.49-1.21,20.42-9.81Zm-15.17-3.28,2.05-2.53c1.69-2.07,3.53-2.32,5.31-.87s2,3.1.33,5.23l-2.18,2.69c-1.51,1.85-3.38,2.16-5.19.69S246.57,345.67,248.07,343.83Zm.67,13.33,2.06-2.52c1.68-2.08,3.52-2.32,5.3-.88s2.06,3.09.34,5.24l-2.18,2.68c-1.56,1.91-3.39,2.16-5.19.7S247.28,359,248.74,357.16Zm2.65-10.39,2.34-2.87c.52-.64.63-1.17.15-1.56s-1-.15-1.53.5L250,345.73c-.54.65-.56,1.11-.12,1.47S250.87,347.42,251.39,346.77Zm.68,13.34,2.34-2.88c.52-.64.63-1.17.14-1.56s-1-.15-1.52.51L250.69,359c-.53.66-.57,1.14-.12,1.5S251.55,360.75,252.07,360.11Z" fill="#f48225" data-secondary="true"/><path d="M240.22,101.3l-1.35,6.56c1.76.46,4,1.1,5.18,1.47a4.26,4.26,0,0,1-.5-3.45c.73-3.52,3.48-4.38,7.59-3.53l3.21.66c4.45.92,7.82,3.06,6.67,8.64s-4.73,6.12-8.28,5.39l-.76-.16,1.06-5.15,1.34.28c1.12.23,2.31.16,2.57-1.1s-.56-1.79-2.78-2.25l-3.78-.78c-2-.41-2.77-.17-3,1s.33,1.67,2,2.17L248,115.77c-3.86-1.22-10.18-3-14.56-4.19l2.41-11.73Z"/><path d="M246,84.84l12.4,2.55c4.07.84,7.06,3,5.93,8.51-1.09,5.32-4.79,6-8.72,5.17l-12.2-2.51c-4.72-1-6.83-3.9-5.91-8.37S241.52,83.92,246,84.84Zm-2.15,8.38L257.26,96c1.52.31,2.48.05,2.72-1.13s-.6-1.78-2.14-2.09L244.42,90c-1.31-.27-2.32-.09-2.57,1.13S242.39,92.92,243.84,93.22Z"/><path d="M246.16,72.88l4.16.86c3.4.7,4.79,2.72,4.17,5.74-.57,2.77-2.36,4.36-5.88,3.67l-4.41-.91c-3.14-.65-4.53-2.66-3.9-5.71S243.21,72.27,246.16,72.88Zm20.29,10.89-23.55-18,.52-2.52L267,81.28Zm-21.73-5.11,4.73,1c1.06.21,1.73,0,1.9-.81s-.42-1.27-1.5-1.49l-4.71-1c-1.08-.22-1.66,0-1.81.78S243.67,78.45,244.72,78.66Zm16.51-14.91,4.15.85c3.41.71,4.79,2.73,4.17,5.74-.58,2.85-2.38,4.36-5.87,3.67l-4.41-.91c-3-.62-4.53-2.66-3.9-5.71S258.2,63.12,261.23,63.75Zm-1.44,5.78,4.73,1c1.05.22,1.73,0,1.9-.8s-.43-1.27-1.5-1.49l-4.74-1c-1.08-.22-1.63,0-1.78.79S258.74,69.31,259.79,69.53Z"/><path d="M233.24,48.87s-17,15.74-17,51.29c0,0,4.14,20.37,58,30,0,0,4.82-56.26,18.46-71.45Z" fill="#f48225" data-secondary="true"/><path d="M235.58,53.56l48.33,9s-13.13,27.35-14.85,66.66c0,0-37.64-7.14-50.4-24.3C218.66,104.9,224.19,66,235.58,53.56Z" fill="#f3e4cd"/><path d="M522.5,390.71s20.62,54.4,117.18,32.85c0,0-7.91-12.46-2.82-48.63,0,0,22.58-77.39-19.77-98.28l-9-4.52s-19.2-3.95-48.56,26.54C559.5,298.67,527.58,336.5,522.5,390.71Z" fill="#686175" data-primary="true"/><ellipse cx="585.57" cy="356.65" rx="3.55" ry="22.85" transform="translate(-80.68 518.53) rotate(-45)" fill="#686175" data-primary="true"/><ellipse cx="585.57" cy="356.65" rx="3.55" ry="22.85" transform="translate(-80.68 518.53) rotate(-45)" opacity="0.2"/><path d="M622.31,408s-20-18-13.11-39.48c0,0,14.64-8.54,22.75-38.4,0,0-1.85,21-9.61,33A24.88,24.88,0,0,0,618.52,374,81.86,81.86,0,0,0,622.31,408Z" opacity="0.2"/><path d="M487.92,353.52,528,338.78s-5.14-16.8-13.71-23.32l-28.11,11.62L431,299.27S429.3,288.63,417,285.76H401.87s-.22,12.14,13.37,10.16c0,0-2.4,12.69,11,16.12,0,0,4.8,11.23,11,15Z" fill="#ffad95"/><path d="M327.09,248.68s56.26,27.63,121.23,102.75l4.81-4S409.84,294.86,330.58,245Z" fill="#123a53"/><path d="M480,419.08c-3.07-10.89-13.68-44.85-31.31-63.35a6.53,6.53,0,0,1-1.22-7.51c1.08-2,3.29-3.45,7.78-1.75a6.92,6.92,0,0,1,3,2.23c5.43,7.17,30.42,41.31,33.92,67.89a6.29,6.29,0,0,1-5.81,7.13h-.19A6.32,6.32,0,0,1,480,419.08Z" fill="#123a53"/><path d="M480,419.08c-3.07-10.89-13.68-44.85-31.31-63.35a6.53,6.53,0,0,1-1.22-7.51c1.08-2,3.29-3.45,7.78-1.75a6.92,6.92,0,0,1,3,2.23c5.43,7.17,30.42,41.31,33.92,67.89a6.29,6.29,0,0,1-5.81,7.13h-.19A6.32,6.32,0,0,1,480,419.08Z" opacity="0.3"/><path d="M569.42,340.5S588.79,307,612,296.92A15.9,15.9,0,0,1,633.81,308c.9,4.19,1,9.57-.44,16.45-9.77,42.94-31.45,47.83-31.45,47.83-9.31-19.8-32.06-31.88-32.06-31.88" fill="#686175" data-primary="true"/><path d="M580.66,304.92s-1.35-17.9,2-25.28c0,0,3.62-1.72,3.88-11.23,0,0,13.37-7.46,14.66-14.91l8,18.47S593,286.41,580.66,304.92Z" fill="#ffad95"/><path d="M593,288.77s10.28,1.24,12.07,10.5c0,0,14.92-11.83,11.58-26,0,0-1.58-8-9.28-5.54L609.2,272Z" fill="#686175" data-primary="true"/><path d="M593,288.77s10.28,1.24,12.07,10.5c0,0,14.92-11.83,11.58-26,0,0-1.58-8-9.28-5.54L609.2,272Z" opacity="0.2"/><path d="M582.69,279.64l-2.3,8.31C575.24,285.9,565,298,565,298s-2.93-19.82,21-24.44C586,273.54,585.48,277.89,582.69,279.64Z" fill="#686175" data-primary="true"/><path d="M582.69,279.64l-2.3,8.31C575.24,285.9,565,298,565,298s-2.93-19.82,21-24.44C586,273.54,585.48,277.89,582.69,279.64Z" opacity="0.2"/><ellipse cx="598" cy="236.25" rx="39.88" ry="26.27" transform="translate(264.8 786.16) rotate(-80.35)" fill="#ffad95"/><path d="M571.7,248.92s2.37,6.54,3.87,6.71c0,0,.22-7.06,4.22-4.91,0,0,5.27,2.22,12.76-.83,0,0,6.61-2.26,8.81,3.75,0,0,.84,4.76,8,.43,0,0,11.73-3.66,6.8-13.61,0,0-5-6.83-.52-9.2,0,0,5.49-3.41,1.77-6.3,0,0-5.58-4.35-1.69-7.67,0,0,2.75-2.63-5.38-4.84l-4.87-.34a12.2,12.2,0,0,1,2.47,4.25s-6.9-6.43-15-2.49c0,0-6.51,1.08-8.23-1.74a3.06,3.06,0,0,0-4.59-.6,8.93,8.93,0,0,0-2.14,3s-3.12-9,8.89-15.93a32.38,32.38,0,0,1,16.1-4.23c9.39,0,24.88,2.11,29.29,16.13a6.21,6.21,0,0,0-.2-7.08s4.84,5.48,2.3,11.91c0,0,9,8.82,1.87,18.46,0,0-2.12,1.35-4.24,7.49l-9.44,5.58s9,8.23,1.12,15.55c0,0-12.3,8-21.12,17,0,0-1.81,7.15-17.48,4.12,0,0-9.86-2.89-8.17-10.8,0,0,3.12-3.66-1.07-9.39A40,40,0,0,1,571.7,248.92Z" fill="#123a53"/><ellipse cx="626.2" cy="239.19" rx="9.1" ry="6.02" transform="translate(317.55 834.24) rotate(-83.49)" fill="#ffad95"/><path d="M388.5,300.72s-8.23-4.17-2.74-8.94c0,0,19.2-.83,14.74,7.49,0,0,8.91-.09,7.2,5.65,0,0,10.63,2,6.51,7.46,0,0,10,.28,4.46,5.11,0,0-16.69,7.92-16.57-2,0,0-6.4-1.71-6.4-7.19C395.7,308.27,388.16,307.92,388.5,300.72Z" fill="#ffad95"/><path d="M494.44,383.35s-19.14,13.93-35.23,5.57c0,0-5.36-3-2-6.31,0,0-12.3-.95-7.88-9.46,0,0-9.8-3.95-1-8.36,0,0-4.25-5.53,2.06-6.47,0,0,6.15,9.78,17.82,7.89,0,0,9.94,1.73,6.47-4.11l-7.22-1.52a2.16,2.16,0,0,1-1.45-1.1h0a2.14,2.14,0,0,1,1.33-3.06c3.46-1,10.4-1.53,19.48,4.49a8.34,8.34,0,0,0,4.91,1.42L555.46,360,577.06,345S592,356.09,598.4,366.12l-35,17.23Z" fill="#ffad95"/><path d="M448.32,364.79s3.95,7.07,23.49,6.73" fill="none" stroke="#e37961" stroke-miterlimit="10"/><path d="M474,376.32s-21.41.85-24.76-3.17" fill="none" stroke="#e37961" stroke-miterlimit="10"/><path d="M476.27,383.35s-13,3.32-19.11-.74" fill="none" stroke="#e37961" stroke-miterlimit="10"/><path d="M468.79,558.25l-3.74,2.86a.71.71,0,0,0-.18,1c2.2,2.94,14.2,15.68,53.32,10.12.66-.09,1.06-.6.87-1.1-1.09-2.82-4.11-11.7-2.08-19.44,0,0,2.59-6.68-6.31-5.75,0,0-5.65,3.37-27.89-1.62,0,0-9.89-3.69-9.93,6.24A9.7,9.7,0,0,1,468.79,558.25Z" fill="#123a53"/><path d="M583.6,558.68s-6.24-9.06,6.34-9.47c0,0,7.3,5.75,25.86,0,0,0,8-4.47,6.33,2.52l8.11,18.84a1.49,1.49,0,0,1-.78,1.9c-4.19,2.33-19.06,8.66-48.55,1.74-1.23-.28-1.9-1.3-1.45-2.22C581.13,568.58,584.62,560.94,583.6,558.68Z" fill="#123a53"/><path d="M250.06,208.86c-46-1.2-83.66,10.32-84.07,25.74a10.53,10.53,0,0,0,1.31,5.24c6.93,13.13,40.58,23.81,81.3,24.86,41.93,1.11,76.89-8.35,83.11-21.69a10.32,10.32,0,0,0,1-4C333.07,223.55,296.09,210.07,250.06,208.86Zm-1.46,50.7c-42.72-1.12-77.09-12.15-76.76-24.63s35.23-21.69,77.94-20.57,77.09,12.15,76.76,24.63S291.32,260.68,248.6,259.56Z" fill="#123a53"/><path d="M378.48,149l-45.8-23.86C327.77,144.5,304.84,163,303.55,163s-20.25,12.5-20.25,12.5c-30.17,21.54-33.52,38.83-33.52,38.83L291,237s20.54-27,44.59-42.88C335.59,194.08,364.05,180.25,378.48,149Z" fill="#f48225" data-secondary="true"/><path d="M287.7,235.15s12-18.3,28.27-32.54a90,90,0,0,1,14.69-10.42c9.23-5.25,34.07-21.16,44.26-45.07" fill="none" stroke="#000" stroke-miterlimit="10" opacity="0.2"/><path d="M338.72,128.25s-12.16,28.41-37.81,40.91c0,0-31,15.35-47.1,47.4" fill="none" stroke="#000" stroke-miterlimit="10" opacity="0.2"/><path d="M180.73,130.19S168.23,185.5,192.5,251c0,0,2.56-22.74,33.59-20,0,0-22.76-26.89-7.43-89.83C218.66,141.1,186.65,153.18,180.73,130.19Z" fill="#f48225" data-secondary="true"/><path d="M180.73,130.19S168.23,185.5,192.5,251c0,0,2.56-22.74,33.59-20,0,0-22.76-26.89-7.43-89.83C218.66,141.1,186.65,153.18,180.73,130.19Z" opacity="0.2"/><path d="M250.31,384.42s30.54-10.85,40.31-30.64l6.17,2.05s-8.1,22-37.46,33.17C259.33,389,256,388.25,250.31,384.42Z" opacity="0.2"/><path d="M324.31,371l-26.23-17.22-1.29,2.05S284.08,380,259.33,389C259.33,389,293.71,407.77,324.31,371Z" fill="#f48225" data-secondary="true"/><path d="M324.31,371l-26.23-17.22-1.29,2.05S284.08,380,259.33,389C259.33,389,293.71,407.77,324.31,371Z" opacity="0.2"/><path d="M273,203.16l3.67,2.11c3.17,5.33,8.34,10.5,14.79,15l-3.3,3.77a48.28,48.28,0,0,1-14.43-14.53L269,215.2,264.78,213Z" fill="#f3e4cd"/><path d="M286,194.94l-4.35,5.18c1.52,1,3.36,2.36,4.37,3.1-.29-.83.23-2.07,1.09-3.08,2.32-2.74,5.31-2.45,8.71-.25l2.59,1.68c3.48,2.26,5.38,5.06,1.87,9.06s-6.82,3.33-9.65,1.69L290,212l3.25-3.76,1.07.65c.89.53,2,.85,2.76-.06s.32-1.6-1.44-2.69l-3.06-1.9c-1.63-1-2.48-1.09-3.25-.18s-.44,1.49.89,2.46l-3.35,3.35c-3.09-2.24-8.45-5.89-12.35-8.48l7.82-9.41Z" fill="#f3e4cd"/><path d="M294.16,185.34l3.53,2.5c2.81,2,3.1,4.29,1.1,6.62-1.83,2.14-4.22,2.83-7.18.92l-3.83-2.51c-2.79-1.84-3.23-4.22-1.15-6.73S291.57,183.51,294.16,185.34ZM290,189.92l4.07,2.74c.89.6,1.62.69,2.16.05s.21-1.27-.69-1.89l-4-2.78c-.94-.65-1.63-.66-2.14,0S289.06,189.29,290,189.92Zm17.26,12.36-12.76-25,1.77-2.12,12.58,25.25Zm5.2-18.69,3.12,2.45c2.5,1.94,2.63,4.17.65,6.43s-4.08,2.71-6.7.85l-3.39-2.45c-2.41-1.74-2.75-4.11-.68-6.53S310.09,181.76,312.44,183.59ZM308.32,188l3.61,2.68c.78.59,1.45.67,2,.05s.27-1.23-.53-1.83l-3.6-2.73c-.83-.64-1.45-.64-2-.05S307.5,187.41,308.32,188Z" fill="#f3e4cd"/><path d="M330.73,162.83l9.39,7.65c4,3.28,4.13,6.65,1.13,10.34-2.85,3.5-6.08,3.86-10,.65l-9.53-7.77c-3.91-3.18-3.79-6.81-1.14-10.06S326.69,159.54,330.73,162.83Zm-6,6.5,10.34,8.43c1.25,1,2.27,1.1,3,.19s.53-1.85-.8-2.94l-10.36-8.44c-1.26-1-2.21-1.19-3-.17C323.16,167.27,323.37,168.23,324.71,169.33Z" fill="#f3e4cd"/><path d="M327.09,156.24l7.13-8.75,3.44,2.8L333.84,155l4.61,3.76,3.61-4.42,3.44,2.8-3.6,4.43,8.74,7.12-3.31,4.06Z" fill="#f3e4cd"/><path d="M335.64,145.74l7.13-8.75,3.44,2.81-3.82,4.69,4.61,3.75,3.61-4.42,3.44,2.81-3.6,4.42,8.74,7.13-3.31,4.06Z" fill="#f3e4cd"/><path d="M236.44,99l-2,6c1.6.63,3.6,1.47,4.71,2a4.08,4.08,0,0,1-.09-3.3c1.08-3.24,3.76-3.73,7.54-2.48l3,1c4.08,1.35,7,3.75,5.3,8.86s-5.13,5.23-8.39,4.15l-.69-.24,1.57-4.72,1.22.41c1,.34,2.16.41,2.54-.74s-.32-1.75-2.36-2.43l-3.47-1.16c-1.82-.6-2.59-.47-3,.63s.13,1.61,1.65,2.27l-1.8,4.25c-3.5-1.57-9.24-4-13.23-5.56l3.58-10.76Z"/><path d="M243.71,84.18,255.09,88c3.73,1.24,6.3,3.63,4.63,8.66s-5.18,5.09-8.79,3.89l-11.19-3.73c-4.33-1.44-6-4.43-4.63-8.53S239.6,82.81,243.71,84.18Zm-3,7.64,12.32,4.1c1.39.47,2.32.33,2.68-.75S255.38,93.43,254,93l-12.32-4.1c-1.2-.4-2.17-.35-2.54.77S239.42,91.38,240.75,91.82Z"/><path d="M245.21,73,249,74.22c3.13,1,4.2,3.1,3.28,5.86-.84,2.54-2.7,3.85-5.93,2.8l-4.06-1.35c-2.88-1-3.95-3-3-5.81S242.5,72.05,245.21,73Zm-2,5.28,4.34,1.44c1,.32,1.63.21,1.88-.54s-.26-1.25-1.25-1.57l-4.32-1.44c-1-.33-1.57-.16-1.8.53S242.24,77.9,243.21,78.23Zm19.87,7.23L242.94,65.88l.77-2.31,20.13,19.61ZM260.4,66.05l3.81,1.27c3.13,1,4.21,3.1,3.29,5.86S264.77,77,261.56,76l-4.05-1.35c-2.79-.93-4-3-3-5.81S257.62,65.12,260.4,66.05Zm-2,5.27,4.34,1.45c1,.32,1.63.2,1.88-.55s-.26-1.24-1.24-1.57L259,69.2c-1-.33-1.54-.14-1.77.54S257.43,71,258.4,71.32Z"/><path d="M216.25,100.16l.5-10.34s9.65,22.7,58.25,33.09l-.76,7.28S228.2,125.82,216.25,100.16Z" opacity="0.2"/><path d="M216.36,100.44s-5.07,55.23,54.29,69.85l3.86-40.81S232.69,125.11,216.36,100.44Z" fill="#f48225" data-secondary="true"/><path d="M216.36,100.44s-5.07,55.23,54.29,69.85l3.86-40.81S232.69,125.11,216.36,100.44Z" opacity="0.2"/></svg>