<svg id="ba0e235a-c33f-4c19-b128-06045a588e19" data-name="Layer 1" xmlns="http://www.w3.org/2000/svg" width="865.76" height="682.89" viewBox="0 0 865.76 682.89"><rect x="550.66" y="107.79" width="104.32" height="432.91" fill="#f5f5f5"/><rect x="460.58" y="109.1" width="91.2" height="432.91" fill="#e1e1e1"/><path d="M542.28,120.87c0,.18-16.46.32-36.76.32s-36.76-.14-36.76-.32,16.46-.32,36.76-.32S542.28,120.69,542.28,120.87Z" fill="#ececec"/><path d="M542.28,131.37c0,.18-16.46.32-36.76.32s-36.76-.14-36.76-.32,16.46-.32,36.76-.32S542.28,131.2,542.28,131.37Z" fill="#ececec"/><path d="M542.28,141.88c0,.17-16.46.31-36.76.31s-36.76-.14-36.76-.31,16.46-.32,36.76-.32S542.28,141.7,542.28,141.88Z" fill="#ececec"/><path d="M542.28,152.38c0,.18-16.46.32-36.76.32s-36.76-.14-36.76-.32,16.46-.32,36.76-.32S542.28,152.2,542.28,152.38Z" fill="#ececec"/><path d="M542.28,162.88c0,.18-16.46.32-36.76.32s-36.76-.14-36.76-.32,16.46-.31,36.76-.31S542.28,162.71,542.28,162.88Z" fill="#ececec"/><path d="M542.28,173.39c0,.17-16.46.32-36.76.32s-36.76-.15-36.76-.32,16.46-.32,36.76-.32S542.28,173.21,542.28,173.39Z" fill="#ececec"/><path d="M542.28,183.89c0,.18-16.46.32-36.76.32s-36.76-.14-36.76-.32,16.46-.32,36.76-.32S542.28,183.72,542.28,183.89Z" fill="#ececec"/><path d="M542.28,194.39c0,.18-16.46.32-36.76.32s-36.76-.14-36.76-.32,16.46-.31,36.76-.31S542.28,194.22,542.28,194.39Z" fill="#ececec"/><path d="M542.28,204.9c0,.17-16.46.32-36.76.32s-36.76-.15-36.76-.32,16.46-.32,36.76-.32S542.28,204.72,542.28,204.9Z" fill="#ececec"/><path d="M542.28,215.4c0,.18-16.46.32-36.76.32s-36.76-.14-36.76-.32,16.46-.32,36.76-.32S542.28,215.23,542.28,215.4Z" fill="#ececec"/><path d="M542.28,225.91c0,.17-16.46.31-36.76.31s-36.76-.14-36.76-.31,16.46-.32,36.76-.32S542.28,225.73,542.28,225.91Z" fill="#ececec"/><path d="M542.28,236.41c0,.17-16.46.32-36.76.32s-36.76-.15-36.76-.32,16.46-.32,36.76-.32S542.28,236.23,542.28,236.41Z" fill="#ececec"/><path d="M542.28,246.91c0,.18-16.46.32-36.76.32s-36.76-.14-36.76-.32,16.46-.32,36.76-.32S542.28,246.74,542.28,246.91Z" fill="#ececec"/><path d="M542.28,257.42c0,.17-16.46.31-36.76.31s-36.76-.14-36.76-.31,16.46-.32,36.76-.32S542.28,257.24,542.28,257.42Z" fill="#ececec"/><path d="M542.28,267.92c0,.18-16.46.32-36.76.32s-36.76-.14-36.76-.32,16.46-.32,36.76-.32S542.28,267.74,542.28,267.92Z" fill="#ececec"/><path d="M542.28,278.42c0,.18-16.46.32-36.76.32s-36.76-.14-36.76-.32,16.46-.31,36.76-.31S542.28,278.25,542.28,278.42Z" fill="#ececec"/><path d="M542.28,288.93c0,.17-16.46.32-36.76.32s-36.76-.15-36.76-.32,16.46-.32,36.76-.32S542.28,288.75,542.28,288.93Z" fill="#ececec"/><path d="M542.28,299.43c0,.18-16.46.32-36.76.32s-36.76-.14-36.76-.32,16.46-.32,36.76-.32S542.28,299.25,542.28,299.43Z" fill="#ececec"/><path d="M542.28,309.93c0,.18-16.46.32-36.76.32s-36.76-.14-36.76-.32,16.46-.31,36.76-.31S542.28,309.76,542.28,309.93Z" fill="#ececec"/><path d="M542.28,320.44c0,.17-16.46.32-36.76.32s-36.76-.15-36.76-.32,16.46-.32,36.76-.32S542.28,320.26,542.28,320.44Z" fill="#ececec"/><path d="M542.28,330.94c0,.18-16.46.32-36.76.32s-36.76-.14-36.76-.32,16.46-.32,36.76-.32S542.28,330.77,542.28,330.94Z" fill="#ececec"/><path d="M542.28,341.45c0,.17-16.46.31-36.76.31s-36.76-.14-36.76-.31,16.46-.32,36.76-.32S542.28,341.27,542.28,341.45Z" fill="#ececec"/><path d="M542.28,352c0,.17-16.46.32-36.76.32s-36.76-.15-36.76-.32,16.46-.32,36.76-.32S542.28,351.77,542.28,352Z" fill="#ececec"/><path d="M542.28,362.45c0,.18-16.46.32-36.76.32s-36.76-.14-36.76-.32,16.46-.32,36.76-.32S542.28,362.28,542.28,362.45Z" fill="#ececec"/><path d="M542.28,373c0,.17-16.46.31-36.76.31s-36.76-.14-36.76-.31,16.46-.32,36.76-.32S542.28,372.78,542.28,373Z" fill="#ececec"/><path d="M542.28,383.46c0,.18-16.46.32-36.76.32s-36.76-.14-36.76-.32,16.46-.32,36.76-.32S542.28,383.28,542.28,383.46Z" fill="#ececec"/><path d="M542.28,394c0,.18-16.46.32-36.76.32s-36.76-.14-36.76-.32,16.46-.32,36.76-.32S542.28,393.79,542.28,394Z" fill="#ececec"/><path d="M542.28,404.47c0,.17-16.46.32-36.76.32s-36.76-.15-36.76-.32,16.46-.32,36.76-.32S542.28,404.29,542.28,404.47Z" fill="#ececec"/><path d="M542.28,415c0,.18-16.46.32-36.76.32s-36.76-.14-36.76-.32,16.46-.32,36.76-.32S542.28,414.79,542.28,415Z" fill="#ececec"/><path d="M542.28,425.47c0,.18-16.46.32-36.76.32s-36.76-.14-36.76-.32,16.46-.31,36.76-.31S542.28,425.3,542.28,425.47Z" fill="#ececec"/><path d="M542.28,436c0,.17-16.46.32-36.76.32s-36.76-.15-36.76-.32,16.46-.32,36.76-.32S542.28,435.8,542.28,436Z" fill="#ececec"/><path d="M542.28,446.48c0,.18-16.46.32-36.76.32s-36.76-.14-36.76-.32,16.46-.32,36.76-.32S542.28,446.31,542.28,446.48Z" fill="#ececec"/><path d="M542.28,457c0,.18-16.46.32-36.76.32s-36.76-.14-36.76-.32,16.46-.31,36.76-.31S542.28,456.81,542.28,457Z" fill="#ececec"/><path d="M542.28,467.49c0,.17-16.46.32-36.76.32s-36.76-.15-36.76-.32,16.46-.32,36.76-.32S542.28,467.31,542.28,467.49Z" fill="#ececec"/><path d="M542.28,478c0,.18-16.46.32-36.76.32s-36.76-.14-36.76-.32,16.46-.32,36.76-.32S542.28,477.82,542.28,478Z" fill="#ececec"/><path d="M542.28,488.5c0,.17-16.46.31-36.76.31s-36.76-.14-36.76-.31,16.46-.32,36.76-.32S542.28,488.32,542.28,488.5Z" fill="#ececec"/><path d="M542.28,499c0,.18-16.46.32-36.76.32s-36.76-.14-36.76-.32,16.46-.32,36.76-.32S542.28,498.82,542.28,499Z" fill="#ececec"/><path d="M542.28,509.5c0,.18-16.46.32-36.76.32s-36.76-.14-36.76-.32,16.46-.32,36.76-.32S542.28,509.33,542.28,509.5Z" fill="#ececec"/><path d="M542.28,520c0,.17-16.46.32-36.76.32s-36.76-.15-36.76-.32,16.46-.32,36.76-.32S542.28,519.83,542.28,520Z" fill="#ececec"/><path d="M542.28,530.51c0,.18-16.46.32-36.76.32s-36.76-.14-36.76-.32,16.46-.32,36.76-.32S542.28,530.33,542.28,530.51Z" fill="#ececec"/><polygon points="675.01 136.41 675.01 204.36 587.24 204.36 584.08 136.88 675.01 136.41" fill="#e1e1e1"/><rect x="594.18" y="126.7" width="67.56" height="87.77" transform="translate(457.38 798.55) rotate(-90)" fill="#fff"/><path d="M672.18,204.7H583.74V136.47h88.44ZM584.41,204h87.1V137.14h-87.1Z" fill="#e1e1e1"/><rect x="593.58" y="143.75" width="68.76" height="51.72" fill="#fff"/><path d="M662.34,143.75h-5l-14.11.05-49.61.07.16-.15c0,15.51,0,33.12,0,51.71h0l-.18-.17,68.76,0-.14.14c0-15.63,0-28.54.07-37.56,0-4.51,0-8,0-10.45,0-1.21,0-2.13,0-2.76s0-.95,0-.95,0,.31,0,.92,0,1.54,0,2.73c0,2.41,0,5.93,0,10.42,0,9,0,22,.07,37.65v.14h-.14l-68.76,0h-.17v-.17h0c0-18.59,0-36.2,0-51.71v-.16h.15l49.72.08,14.06,0,3.72,0h1.26Z" fill="#e1e1e1"/><path d="M584.08,136.65a8.39,8.39,0,0,1,1.48.91c.89.6,2.11,1.45,3.43,2.42s2.49,1.9,3.31,2.59a7.6,7.6,0,0,1,1.28,1.18,9.19,9.19,0,0,1-1.43-1l-3.37-2.5-3.36-2.5A8.71,8.71,0,0,1,584.08,136.65Z" fill="#e1e1e1"/><path d="M671.85,136.8a51.1,51.1,0,0,1-4.65,3.62,50.83,50.83,0,0,1-4.86,3.33,49.44,49.44,0,0,1,4.65-3.62A53.18,53.18,0,0,1,671.85,136.8Z" fill="#e1e1e1"/><line x1="671.85" y1="204.36" x2="661.99" y2="195.47" fill="#fff"/><path d="M662,195.47a61.14,61.14,0,0,1,5,4.32,64.29,64.29,0,0,1,4.81,4.57,62.11,62.11,0,0,1-5.05-4.31A65.53,65.53,0,0,1,662,195.47Z" fill="#e1e1e1"/><path d="M584.08,204.36a56.36,56.36,0,0,1,4.59-4.37,55.06,55.06,0,0,1,4.82-4.12,59.57,59.57,0,0,1-4.59,4.38A59.7,59.7,0,0,1,584.08,204.36Z" fill="#e1e1e1"/><circle cx="636.43" cy="167.41" r="8.3" transform="translate(313.41 740.76) rotate(-75.34)" fill="#f5f5f5"/><path d="M633.74,175.29a13,13,0,0,1,.72-2.29,13.9,13.9,0,0,0,.76-5.58,7.82,7.82,0,0,0-2.43-4.89,14.38,14.38,0,0,0-2-1.28,3.54,3.54,0,0,1,2.26.92,7.61,7.61,0,0,1,2.78,5.18,12.21,12.21,0,0,1-1,5.81A6.71,6.71,0,0,1,633.74,175.29Z" fill="#e1e1e1"/><path d="M644.45,166.41c0,.19-2.24-.61-4.83.16s-4,2.61-4.15,2.48.19-.58.85-1.24a7.28,7.28,0,0,1,3.12-1.86,7.46,7.46,0,0,1,3.63-.13C644,166,644.48,166.34,644.45,166.41Z" fill="#e1e1e1"/><path d="M640.7,166c-.11,0-.06-.59-.36-1.4a3.73,3.73,0,0,0-5.39-2.1c-.77.4-1.12.85-1.2.79s.17-.62,1-1.18a3.91,3.91,0,0,1,6.06,2.36C641,165.42,640.77,166,640.7,166Z" fill="#e1e1e1"/><path d="M638.06,166.86c-.19,0-.06-1.18-.39-2.5s-.94-2.29-.79-2.4,1.07.75,1.42,2.25S638.21,166.92,638.06,166.86Z" fill="#e1e1e1"/><path d="M638,164.26c0,.2-.72.23-1.41.59s-1.26.85-1.4.71.23-.79,1.11-1.28S638,164.11,638,164.26Z" fill="#e1e1e1"/><path d="M624.7,168.15a6.3,6.3,0,1,1-8.87.77A6.29,6.29,0,0,1,624.7,168.15Z" fill="#f5f5f5"/><path d="M625,177.59a10.62,10.62,0,0,1-1.28-1.3,10.39,10.39,0,0,0-3.47-2.5,5.88,5.88,0,0,0-4.14-.12,12.24,12.24,0,0,0-1.56.86s.35-.68,1.43-1.18a5.77,5.77,0,0,1,4.46,0,9.41,9.41,0,0,1,3.54,2.73A5.41,5.41,0,0,1,625,177.59Z" fill="#e1e1e1"/><path d="M622.84,167.25a9.84,9.84,0,0,0-1.61,3.29,10,10,0,0,0,.17,3.66s-.31-.33-.53-1A5.63,5.63,0,0,1,622,168C622.42,167.43,622.8,167.2,622.84,167.25Z" fill="#e1e1e1"/><path d="M621.22,169.61c0,.06-.41-.17-1.06-.26a3,3,0,0,0-2.35.63,3,3,0,0,0-1,2.23c0,.65.17,1,.09,1.08s-.35-.33-.44-1.07a3,3,0,0,1,3.75-3.21C620.94,169.21,621.26,169.57,621.22,169.61Z" fill="#e1e1e1"/><path d="M620.86,171.69c-.09.11-.81-.39-1.81-.64s-1.87-.18-1.89-.32a2.33,2.33,0,0,1,2-.15C620.3,170.87,621,171.6,620.86,171.69Z" fill="#e1e1e1"/><path d="M619.09,170.81c.13.08-.1.57-.1,1.16s.12,1.15,0,1.19-.45-.44-.46-1.2S619,170.73,619.09,170.81Z" fill="#e1e1e1"/><path d="M625,166c-2.22-1.45-3.59-4-4.48-6.54a12.34,12.34,0,0,1-.1-7.83,10.21,10.21,0,0,1,5.36,5.72c.92,2.52.38,6.23-.78,8.65" fill="#ececec"/><path d="M622.38,155.73a86.3,86.3,0,0,1,2.39,9.89" fill="#fff"/><path d="M624.77,165.62a6.58,6.58,0,0,1-.4-1.44c-.24-1-.52-2.2-.82-3.5s-.61-2.46-.87-3.49a7.55,7.55,0,0,1-.3-1.46,5.45,5.45,0,0,1,.54,1.39c.29.88.64,2.11,1,3.48s.58,2.62.72,3.53A5.78,5.78,0,0,1,624.77,165.62Z" fill="#e1e1e1"/><path d="M630.61,177.28c2.59-.54,5.39.31,7.78,1.46A12.36,12.36,0,0,1,644,184.2a10.18,10.18,0,0,1-7.83-.25c-2.44-1.13-4.67-4.14-5.56-6.67" fill="#ececec"/><path d="M639.69,182.71A89.51,89.51,0,0,1,631,177.4" fill="#fff"/><path d="M631,177.4a7,7,0,0,1,1.3.74l3.05,1.89,3.08,1.85a6.64,6.64,0,0,1,1.25.83,6.27,6.27,0,0,1-1.37-.61c-.82-.42-1.94-1-3.14-1.77s-2.26-1.45-3-2A5.72,5.72,0,0,1,631,177.4Z" fill="#e1e1e1"/><path d="M628.09,178.52a7.61,7.61,0,0,1-.41,4.72,7.37,7.37,0,0,1-2.93,3.65,6.11,6.11,0,0,1-.3-4.67,7.41,7.41,0,0,1,3.64-3.7" fill="#ececec"/><path d="M625.39,184.24a54.16,54.16,0,0,1,2.65-5.48" fill="#fff"/><path d="M628,178.76a18.45,18.45,0,0,1-1.25,2.78,17.65,17.65,0,0,1-1.4,2.7,10.64,10.64,0,0,1,1.09-2.85A11,11,0,0,1,628,178.76Z" fill="#e1e1e1"/><rect x="654.2" y="107.79" width="104.32" height="432.91" transform="translate(1412.72 648.49) rotate(180)" fill="#ececec"/><rect x="664.99" y="120.06" width="82.75" height="408.38" transform="translate(1412.72 648.49) rotate(180)" fill="#f5f5f5"/><rect x="757.39" y="109.1" width="91.2" height="432.91" transform="translate(1605.99 651.11) rotate(180)" fill="#e1e1e1"/><path d="M766.89,120.87c0-.18,16.46-.32,36.76-.32s36.77.14,36.77.32-16.46.32-36.77.32S766.89,121.05,766.89,120.87Z" fill="#ececec"/><path d="M766.89,131.37c0-.17,16.46-.32,36.76-.32s36.77.15,36.77.32-16.46.32-36.77.32S766.89,131.55,766.89,131.37Z" fill="#ececec"/><path d="M766.89,141.88c0-.18,16.46-.32,36.76-.32s36.77.14,36.77.32-16.46.31-36.77.31S766.89,142.05,766.89,141.88Z" fill="#ececec"/><path d="M766.89,152.38c0-.18,16.46-.32,36.76-.32s36.77.14,36.77.32-16.46.32-36.77.32S766.89,152.56,766.89,152.38Z" fill="#ececec"/><path d="M766.89,162.88c0-.17,16.46-.31,36.76-.31s36.77.14,36.77.31-16.46.32-36.77.32S766.89,163.06,766.89,162.88Z" fill="#ececec"/><path d="M766.89,173.39c0-.18,16.46-.32,36.76-.32s36.77.14,36.77.32-16.46.32-36.77.32S766.89,173.56,766.89,173.39Z" fill="#ececec"/><path d="M766.89,183.89c0-.17,16.46-.32,36.76-.32s36.77.15,36.77.32-16.46.32-36.77.32S766.89,184.07,766.89,183.89Z" fill="#ececec"/><path d="M766.89,194.39c0-.17,16.46-.31,36.76-.31s36.77.14,36.77.31-16.46.32-36.77.32S766.89,194.57,766.89,194.39Z" fill="#ececec"/><path d="M766.89,204.9c0-.18,16.46-.32,36.76-.32s36.77.14,36.77.32-16.46.32-36.77.32S766.89,205.07,766.89,204.9Z" fill="#ececec"/><path d="M766.89,215.4c0-.17,16.46-.32,36.76-.32s36.77.15,36.77.32-16.46.32-36.77.32S766.89,215.58,766.89,215.4Z" fill="#ececec"/><path d="M766.89,225.91c0-.18,16.46-.32,36.76-.32s36.77.14,36.77.32-16.46.31-36.77.31S766.89,226.08,766.89,225.91Z" fill="#ececec"/><path d="M766.89,236.41c0-.18,16.46-.32,36.76-.32s36.77.14,36.77.32-16.46.32-36.77.32S766.89,236.58,766.89,236.41Z" fill="#ececec"/><path d="M766.89,246.91c0-.17,16.46-.32,36.76-.32s36.77.15,36.77.32-16.46.32-36.77.32S766.89,247.09,766.89,246.91Z" fill="#ececec"/><path d="M766.89,257.42c0-.18,16.46-.32,36.76-.32s36.77.14,36.77.32-16.46.31-36.77.31S766.89,257.59,766.89,257.42Z" fill="#ececec"/><path d="M766.89,267.92c0-.18,16.46-.32,36.76-.32s36.77.14,36.77.32-16.46.32-36.77.32S766.89,268.1,766.89,267.92Z" fill="#ececec"/><path d="M766.89,278.42c0-.17,16.46-.31,36.76-.31s36.77.14,36.77.31-16.46.32-36.77.32S766.89,278.6,766.89,278.42Z" fill="#ececec"/><path d="M766.89,288.93c0-.18,16.46-.32,36.76-.32s36.77.14,36.77.32-16.46.32-36.77.32S766.89,289.1,766.89,288.93Z" fill="#ececec"/><path d="M766.89,299.43c0-.18,16.46-.32,36.76-.32s36.77.14,36.77.32-16.46.32-36.77.32S766.89,299.61,766.89,299.43Z" fill="#ececec"/><path d="M766.89,309.93c0-.17,16.46-.31,36.76-.31s36.77.14,36.77.31-16.46.32-36.77.32S766.89,310.11,766.89,309.93Z" fill="#ececec"/><path d="M766.89,320.44c0-.18,16.46-.32,36.76-.32s36.77.14,36.77.32-16.46.32-36.77.32S766.89,320.61,766.89,320.44Z" fill="#ececec"/><path d="M766.89,330.94c0-.17,16.46-.32,36.76-.32s36.77.15,36.77.32-16.46.32-36.77.32S766.89,331.12,766.89,330.94Z" fill="#ececec"/><path d="M766.89,341.45c0-.18,16.46-.32,36.76-.32s36.77.14,36.77.32-16.46.31-36.77.31S766.89,341.62,766.89,341.45Z" fill="#ececec"/><path d="M766.89,352c0-.18,16.46-.32,36.76-.32s36.77.14,36.77.32-16.46.32-36.77.32S766.89,352.12,766.89,352Z" fill="#ececec"/><path d="M766.89,362.45c0-.17,16.46-.32,36.76-.32s36.77.15,36.77.32-16.46.32-36.77.32S766.89,362.63,766.89,362.45Z" fill="#ececec"/><path d="M766.89,373c0-.18,16.46-.32,36.76-.32s36.77.14,36.77.32-16.46.31-36.77.31S766.89,373.13,766.89,373Z" fill="#ececec"/><path d="M766.89,383.46c0-.18,16.46-.32,36.76-.32s36.77.14,36.77.32-16.46.32-36.77.32S766.89,383.64,766.89,383.46Z" fill="#ececec"/><path d="M766.89,394c0-.17,16.46-.32,36.76-.32s36.77.15,36.77.32-16.46.32-36.77.32S766.89,394.14,766.89,394Z" fill="#ececec"/><path d="M766.89,404.47c0-.18,16.46-.32,36.76-.32s36.77.14,36.77.32-16.46.32-36.77.32S766.89,404.64,766.89,404.47Z" fill="#ececec"/><path d="M766.89,415c0-.18,16.46-.32,36.76-.32s36.77.14,36.77.32-16.46.32-36.77.32S766.89,415.15,766.89,415Z" fill="#ececec"/><path d="M766.89,425.47c0-.17,16.46-.31,36.76-.31s36.77.14,36.77.31-16.46.32-36.77.32S766.89,425.65,766.89,425.47Z" fill="#ececec"/><path d="M766.89,436c0-.18,16.46-.32,36.76-.32s36.77.14,36.77.32-16.46.32-36.77.32S766.89,436.15,766.89,436Z" fill="#ececec"/><path d="M766.89,446.48c0-.17,16.46-.32,36.76-.32s36.77.15,36.77.32-16.46.32-36.77.32S766.89,446.66,766.89,446.48Z" fill="#ececec"/><path d="M766.89,457c0-.18,16.46-.32,36.76-.32s36.77.14,36.77.32-16.46.31-36.77.31S766.89,457.16,766.89,457Z" fill="#ececec"/><path d="M766.89,467.49c0-.18,16.46-.32,36.76-.32s36.77.14,36.77.32-16.46.32-36.77.32S766.89,467.66,766.89,467.49Z" fill="#ececec"/><path d="M766.89,478c0-.17,16.46-.32,36.76-.32s36.77.15,36.77.32-16.46.32-36.77.32S766.89,478.17,766.89,478Z" fill="#ececec"/><path d="M766.89,488.5c0-.18,16.46-.32,36.76-.32s36.77.14,36.77.32-16.46.31-36.77.31S766.89,488.67,766.89,488.5Z" fill="#ececec"/><path d="M766.89,499c0-.18,16.46-.32,36.76-.32s36.77.14,36.77.32-16.46.32-36.77.32S766.89,499.18,766.89,499Z" fill="#ececec"/><path d="M766.89,509.5c0-.17,16.46-.32,36.76-.32s36.77.15,36.77.32-16.46.32-36.77.32S766.89,509.68,766.89,509.5Z" fill="#ececec"/><path d="M766.89,520c0-.18,16.46-.32,36.76-.32s36.77.14,36.77.32-16.46.32-36.77.32S766.89,520.18,766.89,520Z" fill="#ececec"/><path d="M766.89,530.51c0-.18,16.46-.32,36.76-.32s36.77.14,36.77.32-16.46.32-36.77.32S766.89,530.69,766.89,530.51Z" fill="#ececec"/><polygon points="664.99 183.89 747.74 265.53 747.74 278.42 664.99 197.96 664.99 183.89" fill="#fff"/><polygon points="664.99 215.47 747.74 297.11 747.74 302.97 664.99 222.5 664.99 215.47" fill="#fff"/><rect x="570.68" y="223.23" width="64.39" height="67.12" fill="#e1e1e1"/><rect x="566.32" y="223.23" width="64.39" height="67.12" fill="#375a64"/><path d="M630.74,290.38H566.3V223.21h64.44Z" fill="#fff"/><rect x="574.98" y="232.26" width="47.08" height="49.08" fill="#fff"/><path d="M575,281.66a7.6,7.6,0,0,1-1.16,1.35c-.75.79-1.81,1.87-3,3s-2.27,2.21-3.07,2.95a7.23,7.23,0,0,1-1.36,1.13,7.41,7.41,0,0,1,1.15-1.34c.76-.8,1.82-1.87,3-3s2.28-2.21,3.08-2.95A7.63,7.63,0,0,1,575,281.66Z" fill="#e1e1e1"/><path d="M622.06,281.54a7.6,7.6,0,0,1,1.35,1.16c.79.75,1.87,1.81,3,3s2.21,2.28,2.95,3.08a7.23,7.23,0,0,1,1.13,1.36,7.26,7.26,0,0,1-1.34-1.16c-.8-.75-1.87-1.81-3-3s-2.22-2.28-2.95-3.09A7.4,7.4,0,0,1,622.06,281.54Z" fill="#e1e1e1"/><path d="M621.93,232.39a7.21,7.21,0,0,1,1.16-1.35c.75-.8,1.81-1.87,3-3s2.27-2.2,3.07-2.94a6.76,6.76,0,0,1,1.36-1.13,7.41,7.41,0,0,1-1.15,1.34c-.76.79-1.82,1.87-3,3s-2.28,2.21-3.08,2.95A7.63,7.63,0,0,1,621.93,232.39Z" fill="#e1e1e1"/><path d="M574.85,232.51a7.6,7.6,0,0,1-1.35-1.16c-.79-.76-1.87-1.81-3-3s-2.21-2.27-3-3.07a7.63,7.63,0,0,1-1.13-1.36,7.41,7.41,0,0,1,1.34,1.15c.8.75,1.87,1.81,3,3s2.21,2.28,3,3.08A7.63,7.63,0,0,1,574.85,232.51Z" fill="#e1e1e1"/><path d="M621.93,281.33a2.07,2.07,0,0,1,0-.23c0-.17,0-.4,0-.69,0-.62,0-1.5,0-2.65,0-2.32,0-5.71,0-10,0-8.6-.05-20.84-.09-35.5l.18.18-46.95,0h0l.21-.21c0,18,0,34.86,0,49.07l-.18-.18,34,.1,9.54,0,2.53,0h0l-2.49,0-9.51.05-34.11.09h-.18v-.18c0-14.21,0-31.06,0-49.07v-.21H575l46.95,0h.18v.19c0,14.71-.07,27-.09,35.61,0,4.28,0,7.65,0,10,0,1.13,0,2,0,2.61,0,.28,0,.5,0,.67A1.48,1.48,0,0,1,621.93,281.33Z" fill="#e1e1e1"/><path d="M603.76,267.15a29.49,29.49,0,0,0-4.32-9.68c-.75-1.1-1.74-2.24-3.07-2.34a3.07,3.07,0,0,0-2.6,1.36,5.78,5.78,0,0,0-.93,2.89,8.27,8.27,0,0,0-7.37-.42c-2.29,1.16-3.67,4.16-2.52,6.44s4.06,3,6.59,3.36a2.84,2.84,0,0,0-.71,3.49,4.22,4.22,0,0,0,3.09,2.11,6,6,0,0,0,3.83-.36,22.18,22.18,0,0,0,8-6.85" fill="#f5f5f5"/><path d="M612.84,268.32a5.55,5.55,0,0,1-1,0c-.64,0-1.58-.11-2.73-.23-2.3-.23-5.39-.63-9-1.28s-6.61-1.36-8.85-2c-1.12-.3-2-.56-2.64-.75a5,5,0,0,1-.95-.34,4,4,0,0,1,1,.18l2.67.61c2.26.52,5.38,1.2,8.85,1.84s6.64,1.09,8.93,1.39l2.72.37A3.88,3.88,0,0,1,612.84,268.32Z" fill="#e1e1e1"/><path d="M596,257.18a2.9,2.9,0,0,1,.39.64c.22.43.52,1.07.85,1.87a29,29,0,0,1,1.76,6.62l0,.16-.15.06-.56.24a34.37,34.37,0,0,0-6.22,3.59c-1.49,1.08-2.35,1.84-2.39,1.79a2.63,2.63,0,0,1,.55-.6,20.69,20.69,0,0,1,1.66-1.43,29.14,29.14,0,0,1,6.23-3.73l.57-.25-.13.23A34.6,34.6,0,0,0,597,259.8C596.39,258.17,595.94,257.21,596,257.18Z" fill="#e1e1e1"/><path d="M590.38,259.92a11.66,11.66,0,0,1,1,1.52c.59.95,1.47,2.23,2.45,3.69l.16.25-.29.07-.58.14c-1.86.43-3.55.71-4.76.93a11.48,11.48,0,0,1-2,.29,8.89,8.89,0,0,1,1.92-.59c1.21-.29,2.89-.62,4.73-1l.58-.14-.13.32c-1-1.46-1.81-2.78-2.34-3.78A6,6,0,0,1,590.38,259.92Z" fill="#e1e1e1"/><path d="M607.68,254.77a29.74,29.74,0,0,0,2.88-10.2c.13-1.33.1-2.84-.86-3.76a3,3,0,0,0-2.87-.63,5.77,5.77,0,0,0-2.56,1.63,8.26,8.26,0,0,0-5.39-5.05c-2.5-.58-5.48.84-6.06,3.33s1.23,4.87,2.91,6.8a2.86,2.86,0,0,0-2.79,2.23,4.27,4.27,0,0,0,1,3.6,6.06,6.06,0,0,0,3.18,2.17,22.07,22.07,0,0,0,10.54-.12" fill="#f5f5f5"/><path d="M607.68,241.62a3,3,0,0,1,0,.75c-.06.48-.18,1.17-.37,2a29,29,0,0,1-2.33,6.44l-.07.14-.17,0-.59-.12a34.1,34.1,0,0,0-7.15-.61c-1.85,0-3,.17-3,.1a2.82,2.82,0,0,1,.79-.18c.51-.08,1.26-.17,2.19-.22a29.34,29.34,0,0,1,7.24.49l.6.13-.23.11a34.31,34.31,0,0,0,2.43-6.32C607.43,242.66,607.61,241.61,607.68,241.62Z" fill="#e1e1e1"/><path d="M601.8,239.84a7.59,7.59,0,0,1,.11,1.76c0,1.1,0,2.62,0,4.32v.27l-.26-.07-.49-.13c-1.75-.49-3.33-1-4.47-1.3a9,9,0,0,1-1.82-.66,8.65,8.65,0,0,1,1.9.37c1.16.28,2.75.69,4.51,1.18l.49.13-.27.2c0-1.7.09-3.22.15-4.31A8.18,8.18,0,0,1,601.8,239.84Z" fill="#e1e1e1"/><path d="M597.54,241.38a1.33,1.33,0,0,1,.31.27l.84.81a18.19,18.19,0,0,1,1.26,1.36c.48.53,1,1.15,1.58,1.87a55.58,55.58,0,0,1,3.67,5.21,70,70,0,0,1,3.74,6.86,69.19,69.19,0,0,1,2.93,7.24,55.59,55.59,0,0,1,1.7,6.14c.09.45.18.87.26,1.27s.13.78.18,1.14a18.35,18.35,0,0,1,.24,1.84c0,.46.07.85.09,1.16s0,.41,0,.41a2,2,0,0,1-.08-.4c0-.31-.1-.69-.17-1.15s-.18-1.11-.31-1.82c-.07-.35-.14-.73-.21-1.13s-.19-.81-.29-1.25a59.54,59.54,0,0,0-1.78-6.09c-.78-2.25-1.78-4.68-2.94-7.18s-2.46-4.79-3.69-6.83a60.4,60.4,0,0,0-3.58-5.23c-.53-.73-1.06-1.36-1.52-1.91s-.85-1-1.2-1.39l-.78-.87A1.55,1.55,0,0,1,597.54,241.38Z" fill="#e1e1e1"/><rect x="115.83" y="104" width="104.32" height="432.91" fill="#ececec"/><rect x="126.61" y="116.27" width="82.75" height="408.38" fill="#f5f5f5"/><rect x="25.75" y="105.31" width="91.2" height="432.91" fill="#e1e1e1"/><path d="M107.46,117.08c0,.17-16.46.32-36.76.32s-36.77-.15-36.77-.32,16.46-.32,36.77-.32S107.46,116.9,107.46,117.08Z" fill="#ececec"/><path d="M107.46,127.58c0,.18-16.46.32-36.76.32s-36.77-.14-36.77-.32,16.46-.32,36.77-.32S107.46,127.41,107.46,127.58Z" fill="#ececec"/><path d="M107.46,138.09c0,.17-16.46.31-36.76.31s-36.77-.14-36.77-.31,16.46-.32,36.77-.32S107.46,137.91,107.46,138.09Z" fill="#ececec"/><path d="M107.46,148.59c0,.18-16.46.32-36.76.32s-36.77-.14-36.77-.32,16.46-.32,36.77-.32S107.46,148.41,107.46,148.59Z" fill="#ececec"/><path d="M107.46,159.09c0,.18-16.46.32-36.76.32s-36.77-.14-36.77-.32,16.46-.32,36.77-.32S107.46,158.92,107.46,159.09Z" fill="#ececec"/><path d="M107.46,169.6c0,.17-16.46.31-36.76.31s-36.77-.14-36.77-.31,16.46-.32,36.77-.32S107.46,169.42,107.46,169.6Z" fill="#ececec"/><path d="M107.46,180.1c0,.18-16.46.32-36.76.32s-36.77-.14-36.77-.32,16.46-.32,36.77-.32S107.46,179.92,107.46,180.1Z" fill="#ececec"/><path d="M107.46,190.6c0,.18-16.46.32-36.76.32s-36.77-.14-36.77-.32,16.46-.31,36.77-.31S107.46,190.43,107.46,190.6Z" fill="#ececec"/><path d="M107.46,201.11c0,.17-16.46.32-36.76.32s-36.77-.15-36.77-.32,16.46-.32,36.77-.32S107.46,200.93,107.46,201.11Z" fill="#ececec"/><path d="M107.46,211.61c0,.18-16.46.32-36.76.32s-36.77-.14-36.77-.32,16.46-.32,36.77-.32S107.46,211.44,107.46,211.61Z" fill="#ececec"/><path d="M107.46,222.11c0,.18-16.46.32-36.76.32s-36.77-.14-36.77-.32,16.46-.31,36.77-.31S107.46,221.94,107.46,222.11Z" fill="#ececec"/><path d="M107.46,232.62c0,.17-16.46.32-36.76.32s-36.77-.15-36.77-.32,16.46-.32,36.77-.32S107.46,232.44,107.46,232.62Z" fill="#ececec"/><path d="M107.46,243.12c0,.18-16.46.32-36.76.32s-36.77-.14-36.77-.32,16.46-.32,36.77-.32S107.46,243,107.46,243.12Z" fill="#ececec"/><path d="M107.46,253.63c0,.17-16.46.31-36.76.31s-36.77-.14-36.77-.31,16.46-.32,36.77-.32S107.46,253.45,107.46,253.63Z" fill="#ececec"/><path d="M107.46,264.13c0,.17-16.46.32-36.76.32s-36.77-.15-36.77-.32,16.46-.32,36.77-.32S107.46,264,107.46,264.13Z" fill="#ececec"/><path d="M107.46,274.63c0,.18-16.46.32-36.76.32s-36.77-.14-36.77-.32,16.46-.32,36.77-.32S107.46,274.46,107.46,274.63Z" fill="#ececec"/><path d="M107.46,285.14c0,.17-16.46.31-36.76.31s-36.77-.14-36.77-.31,16.46-.32,36.77-.32S107.46,285,107.46,285.14Z" fill="#ececec"/><path d="M107.46,295.64c0,.18-16.46.32-36.76.32s-36.77-.14-36.77-.32,16.46-.32,36.77-.32S107.46,295.46,107.46,295.64Z" fill="#ececec"/><path d="M107.46,306.14c0,.18-16.46.32-36.76.32s-36.77-.14-36.77-.32,16.46-.31,36.77-.31S107.46,306,107.46,306.14Z" fill="#ececec"/><path d="M107.46,316.65c0,.17-16.46.32-36.76.32s-36.77-.15-36.77-.32,16.46-.32,36.77-.32S107.46,316.47,107.46,316.65Z" fill="#ececec"/><path d="M107.46,327.15c0,.18-16.46.32-36.76.32s-36.77-.14-36.77-.32,16.46-.32,36.77-.32S107.46,327,107.46,327.15Z" fill="#ececec"/><path d="M107.46,337.65c0,.18-16.46.32-36.76.32s-36.77-.14-36.77-.32,16.46-.31,36.77-.31S107.46,337.48,107.46,337.65Z" fill="#ececec"/><path d="M107.46,348.16c0,.17-16.46.32-36.76.32s-36.77-.15-36.77-.32,16.46-.32,36.77-.32S107.46,348,107.46,348.16Z" fill="#ececec"/><path d="M107.46,358.66c0,.18-16.46.32-36.76.32s-36.77-.14-36.77-.32,16.46-.32,36.77-.32S107.46,358.49,107.46,358.66Z" fill="#ececec"/><path d="M107.46,369.17c0,.17-16.46.31-36.76.31s-36.77-.14-36.77-.31,16.46-.32,36.77-.32S107.46,369,107.46,369.17Z" fill="#ececec"/><path d="M107.46,379.67c0,.17-16.46.32-36.76.32s-36.77-.15-36.77-.32,16.46-.32,36.77-.32S107.46,379.49,107.46,379.67Z" fill="#ececec"/><path d="M107.46,390.17c0,.18-16.46.32-36.76.32s-36.77-.14-36.77-.32,16.46-.32,36.77-.32S107.46,390,107.46,390.17Z" fill="#ececec"/><path d="M107.46,400.68c0,.17-16.46.31-36.76.31s-36.77-.14-36.77-.31,16.46-.32,36.77-.32S107.46,400.5,107.46,400.68Z" fill="#ececec"/><path d="M107.46,411.18c0,.18-16.46.32-36.76.32s-36.77-.14-36.77-.32,16.46-.32,36.77-.32S107.46,411,107.46,411.18Z" fill="#ececec"/><path d="M107.46,421.68c0,.18-16.46.32-36.76.32s-36.77-.14-36.77-.32,16.46-.32,36.77-.32S107.46,421.51,107.46,421.68Z" fill="#ececec"/><path d="M107.46,432.19c0,.17-16.46.32-36.76.32s-36.77-.15-36.77-.32,16.46-.32,36.77-.32S107.46,432,107.46,432.19Z" fill="#ececec"/><path d="M107.46,442.69c0,.18-16.46.32-36.76.32s-36.77-.14-36.77-.32,16.46-.32,36.77-.32S107.46,442.51,107.46,442.69Z" fill="#ececec"/><path d="M107.46,453.19c0,.18-16.46.32-36.76.32s-36.77-.14-36.77-.32,16.46-.31,36.77-.31S107.46,453,107.46,453.19Z" fill="#ececec"/><path d="M107.46,463.7c0,.17-16.46.32-36.76.32s-36.77-.15-36.77-.32,16.46-.32,36.77-.32S107.46,463.52,107.46,463.7Z" fill="#ececec"/><path d="M107.46,474.2c0,.18-16.46.32-36.76.32s-36.77-.14-36.77-.32,16.46-.32,36.77-.32S107.46,474,107.46,474.2Z" fill="#ececec"/><path d="M107.46,484.7c0,.18-16.46.32-36.76.32s-36.77-.14-36.77-.32,16.46-.31,36.77-.31S107.46,484.53,107.46,484.7Z" fill="#ececec"/><path d="M107.46,495.21c0,.17-16.46.32-36.76.32s-36.77-.15-36.77-.32,16.46-.32,36.77-.32S107.46,495,107.46,495.21Z" fill="#ececec"/><path d="M107.46,505.71c0,.18-16.46.32-36.76.32s-36.77-.14-36.77-.32,16.46-.32,36.77-.32S107.46,505.54,107.46,505.71Z" fill="#ececec"/><path d="M107.46,516.22c0,.17-16.46.31-36.76.31s-36.77-.14-36.77-.31,16.46-.32,36.77-.32S107.46,516,107.46,516.22Z" fill="#ececec"/><path d="M107.46,526.72c0,.18-16.46.32-36.76.32s-36.77-.14-36.77-.32,16.46-.32,36.77-.32S107.46,526.54,107.46,526.72Z" fill="#ececec"/><rect x="213.65" y="104" width="104.32" height="432.91" transform="translate(531.63 640.91) rotate(180)" fill="#ececec"/><rect x="224.44" y="116.27" width="82.75" height="408.38" transform="translate(531.63 640.91) rotate(180)" fill="#f5f5f5"/><rect x="316.84" y="105.31" width="91.2" height="432.91" transform="translate(724.89 643.52) rotate(180)" fill="#e1e1e1"/><path d="M326.34,117.08c0-.18,16.46-.32,36.76-.32s36.77.14,36.77.32-16.46.32-36.77.32S326.34,117.25,326.34,117.08Z" fill="#ececec"/><path d="M326.34,127.58c0-.17,16.46-.32,36.76-.32s36.77.15,36.77.32-16.46.32-36.77.32S326.34,127.76,326.34,127.58Z" fill="#ececec"/><path d="M326.34,138.09c0-.18,16.46-.32,36.76-.32s36.77.14,36.77.32-16.46.31-36.77.31S326.34,138.26,326.34,138.09Z" fill="#ececec"/><path d="M326.34,148.59c0-.18,16.46-.32,36.76-.32s36.77.14,36.77.32-16.46.32-36.77.32S326.34,148.77,326.34,148.59Z" fill="#ececec"/><path d="M326.34,159.09c0-.17,16.46-.32,36.76-.32s36.77.15,36.77.32-16.46.32-36.77.32S326.34,159.27,326.34,159.09Z" fill="#ececec"/><path d="M326.34,169.6c0-.18,16.46-.32,36.76-.32s36.77.14,36.77.32-16.46.31-36.77.31S326.34,169.77,326.34,169.6Z" fill="#ececec"/><path d="M326.34,180.1c0-.18,16.46-.32,36.76-.32s36.77.14,36.77.32-16.46.32-36.77.32S326.34,180.28,326.34,180.1Z" fill="#ececec"/><path d="M326.34,190.6c0-.17,16.46-.31,36.76-.31s36.77.14,36.77.31-16.46.32-36.77.32S326.34,190.78,326.34,190.6Z" fill="#ececec"/><path d="M326.34,201.11c0-.18,16.46-.32,36.76-.32s36.77.14,36.77.32-16.46.32-36.77.32S326.34,201.28,326.34,201.11Z" fill="#ececec"/><path d="M326.34,211.61c0-.17,16.46-.32,36.76-.32s36.77.15,36.77.32-16.46.32-36.77.32S326.34,211.79,326.34,211.61Z" fill="#ececec"/><path d="M326.34,222.11c0-.17,16.46-.31,36.76-.31s36.77.14,36.77.31-16.46.32-36.77.32S326.34,222.29,326.34,222.11Z" fill="#ececec"/><path d="M326.34,232.62c0-.18,16.46-.32,36.76-.32s36.77.14,36.77.32-16.46.32-36.77.32S326.34,232.79,326.34,232.62Z" fill="#ececec"/><path d="M326.34,243.12c0-.17,16.46-.32,36.76-.32s36.77.15,36.77.32-16.46.32-36.77.32S326.34,243.3,326.34,243.12Z" fill="#ececec"/><path d="M326.34,253.63c0-.18,16.46-.32,36.76-.32s36.77.14,36.77.32-16.46.31-36.77.31S326.34,253.8,326.34,253.63Z" fill="#ececec"/><path d="M326.34,264.13c0-.18,16.46-.32,36.76-.32s36.77.14,36.77.32-16.46.32-36.77.32S326.34,264.3,326.34,264.13Z" fill="#ececec"/><path d="M326.34,274.63c0-.17,16.46-.32,36.76-.32s36.77.15,36.77.32-16.46.32-36.77.32S326.34,274.81,326.34,274.63Z" fill="#ececec"/><path d="M326.34,285.14c0-.18,16.46-.32,36.76-.32s36.77.14,36.77.32-16.46.31-36.77.31S326.34,285.31,326.34,285.14Z" fill="#ececec"/><path d="M326.34,295.64c0-.18,16.46-.32,36.76-.32s36.77.14,36.77.32-16.46.32-36.77.32S326.34,295.82,326.34,295.64Z" fill="#ececec"/><path d="M326.34,306.14c0-.17,16.46-.31,36.76-.31s36.77.14,36.77.31-16.46.32-36.77.32S326.34,306.32,326.34,306.14Z" fill="#ececec"/><path d="M326.34,316.65c0-.18,16.46-.32,36.76-.32s36.77.14,36.77.32-16.46.32-36.77.32S326.34,316.82,326.34,316.65Z" fill="#ececec"/><path d="M326.34,327.15c0-.18,16.46-.32,36.76-.32s36.77.14,36.77.32-16.46.32-36.77.32S326.34,327.33,326.34,327.15Z" fill="#ececec"/><path d="M326.34,337.65c0-.17,16.46-.31,36.76-.31s36.77.14,36.77.31-16.46.32-36.77.32S326.34,337.83,326.34,337.65Z" fill="#ececec"/><path d="M326.34,348.16c0-.18,16.46-.32,36.76-.32s36.77.14,36.77.32-16.46.32-36.77.32S326.34,348.33,326.34,348.16Z" fill="#ececec"/><path d="M326.34,358.66c0-.17,16.46-.32,36.76-.32s36.77.15,36.77.32-16.46.32-36.77.32S326.34,358.84,326.34,358.66Z" fill="#ececec"/><path d="M326.34,369.17c0-.18,16.46-.32,36.76-.32s36.77.14,36.77.32-16.46.31-36.77.31S326.34,369.34,326.34,369.17Z" fill="#ececec"/><path d="M326.34,379.67c0-.18,16.46-.32,36.76-.32s36.77.14,36.77.32-16.46.32-36.77.32S326.34,379.84,326.34,379.67Z" fill="#ececec"/><path d="M326.34,390.17c0-.17,16.46-.32,36.76-.32s36.77.15,36.77.32-16.46.32-36.77.32S326.34,390.35,326.34,390.17Z" fill="#ececec"/><path d="M326.34,400.68c0-.18,16.46-.32,36.76-.32s36.77.14,36.77.32-16.46.31-36.77.31S326.34,400.85,326.34,400.68Z" fill="#ececec"/><path d="M326.34,411.18c0-.18,16.46-.32,36.76-.32s36.77.14,36.77.32-16.46.32-36.77.32S326.34,411.36,326.34,411.18Z" fill="#ececec"/><path d="M326.34,421.68c0-.17,16.46-.32,36.76-.32s36.77.15,36.77.32-16.46.32-36.77.32S326.34,421.86,326.34,421.68Z" fill="#ececec"/><path d="M326.34,432.19c0-.18,16.46-.32,36.76-.32s36.77.14,36.77.32-16.46.32-36.77.32S326.34,432.36,326.34,432.19Z" fill="#ececec"/><path d="M326.34,442.69c0-.18,16.46-.32,36.76-.32s36.77.14,36.77.32-16.46.32-36.77.32S326.34,442.87,326.34,442.69Z" fill="#ececec"/><path d="M326.34,453.19c0-.17,16.46-.31,36.76-.31s36.77.14,36.77.31-16.46.32-36.77.32S326.34,453.37,326.34,453.19Z" fill="#ececec"/><path d="M326.34,463.7c0-.18,16.46-.32,36.76-.32s36.77.14,36.77.32-16.46.32-36.77.32S326.34,463.87,326.34,463.7Z" fill="#ececec"/><path d="M326.34,474.2c0-.17,16.46-.32,36.76-.32s36.77.15,36.77.32-16.46.32-36.77.32S326.34,474.38,326.34,474.2Z" fill="#ececec"/><path d="M326.34,484.71c0-.18,16.46-.32,36.76-.32s36.77.14,36.77.32-16.46.31-36.77.31S326.34,484.88,326.34,484.71Z" fill="#ececec"/><path d="M326.34,495.21c0-.18,16.46-.32,36.76-.32s36.77.14,36.77.32-16.46.32-36.77.32S326.34,495.38,326.34,495.21Z" fill="#ececec"/><path d="M326.34,505.71c0-.17,16.46-.32,36.76-.32s36.77.15,36.77.32-16.46.32-36.77.32S326.34,505.89,326.34,505.71Z" fill="#ececec"/><path d="M326.34,516.22c0-.18,16.46-.32,36.76-.32s36.77.14,36.77.32-16.46.31-36.77.31S326.34,516.39,326.34,516.22Z" fill="#ececec"/><path d="M326.34,526.72c0-.18,16.46-.32,36.76-.32s36.77.14,36.77.32-16.46.32-36.77.32S326.34,526.9,326.34,526.72Z" fill="#ececec"/><polygon points="224.44 180.1 307.19 261.74 307.19 274.63 224.44 194.17 224.44 180.1" fill="#fff"/><polygon points="224.44 211.68 307.19 293.32 307.19 299.18 224.44 218.71 224.44 211.68" fill="#fff"/><path d="M712.78,300.77s-20.71-40.89-22.7-44.11c-3.51-5.68,11.79-49.22,11.79-49.22l14.78,1.82-7.18,39.42,23.24,39.74Z" fill="#f9b499"/><polyline points="727.43 334.78 709.41 299.25 732.72 281.57 752.74 309.13 727.72 331.72" fill="#686175" data-primary="true"/><path d="M596,524.92l-7.23,22.18s-20.38-15.76-26.7,4.07l42.5,15.56,12.67-34.1Z" fill="#686175" data-primary="true"/><path d="M701.48,395.64c-8-2.59-39.49-12.28-62.42-17.94-8.77-2.16-18.56,0-26,5h0a29.22,29.22,0,0,0-12.28,29.88l9.41,58.13,32.43-2.64-5-56L693,429l49.39-14.29-.15-2.39-40.73-16.71" fill="#2f2e41"/><g opacity="0.2"><path d="M701.48,395.64c-8-2.59-39.49-12.28-62.42-17.94-8.77-2.16-18.56,0-26,5h0a29.22,29.22,0,0,0-12.28,29.88l9.41,58.13,32.43-2.64-5-56L693,429l49.39-14.29-.15-2.39-40.73-16.71"/></g><path d="M713.58,405.87,643.81,421a31.18,31.18,0,0,0-22.55,19.43L587,535l28.41,8.75L654,457.15l56.18-6.9a61.21,61.21,0,0,0,38-19.79l9.82-10.9Z" fill="#2f2e41"/><path d="M758.19,384.69c.06.16-2.33,1.19-5.34,2.31a29.34,29.34,0,0,1-5.56,1.74,28.47,28.47,0,0,1,5.35-2.31A29.37,29.37,0,0,1,758.19,384.69Z" fill="#ff9a6c"/><path d="M733.24,311.06l-16,63.86L700,395.15,760,420l21.6-47.46,17.27-52.64c-4.79-8.85-14-11-17.07-11.34l-24.79-1.75Z" fill="#686175" data-primary="true"/><path d="M737,379c-.07.08-1-.68-2.59-1.53a21.71,21.71,0,0,0-6.85-2.14,42.18,42.18,0,0,0-7.23-.38,16.13,16.13,0,0,1-3-.05,14.87,14.87,0,0,1,3-.38,33.55,33.55,0,0,1,7.34.21,19.43,19.43,0,0,1,7,2.36A7.89,7.89,0,0,1,737,379Z" fill="#1a2e35"/><g opacity="0.3"><path d="M717.29,374.92a53.14,53.14,0,0,1,19.1-.93,7.43,7.43,0,0,1,4.05,1.48c1.09,1,1.5,2.84.49,3.89a2.91,2.91,0,0,1-2.9.56c-1-.3-2.21-1.82-3.09-2.37-4.92-3.1-11.08-3.26-17.26-2.63"/></g><g opacity="0.3"><path d="M769,323.84c-5,14.34,5.13,30.39,14.68,42.21l2.45-7.3S774.09,309.5,769,323.84Z"/></g><polygon points="715.46 462.53 714.3 552 677.46 566.07 761.95 565.66 724.66 551.47 724.33 462.53 715.46 462.53" fill="#d1d3d4"/><path d="M688.63,455.43c10.58,4.12,21.52,7.87,32.87,8.26s23.29-3,31-11.32c6.19-6.65,9.09-15.64,11.81-24.31l5.88-18.77c1.62-5.19,4.06-11.26,1.11-14-4.17-3.93-15.3-5.43-19.49-1.54-6.25,5.81-6.53,8.22-9.36,13.19C736,418.34,730.3,428.78,718,433.58c-5.91,2.32-12.48,2.5-18.42,4.74s-12,10.84-11,17.11" fill="#d1d3d4"/><g opacity="0.19"><path d="M771.32,395.25c-4.17-3.93-15.3-5.43-19.49-1.54-6.25,5.81-6.53,8.22-9.36,13.19C736,418.34,730.3,428.78,718,433.58c-5.91,2.32-12.48,2.5-18.42,4.74s-12,10.84-11,17.11c8.69,3.39,17.62,6.51,26.82,7.74L714.3,552l-36.84,14.07,84.49-.41-37.28-14.19-.34-87.77c10.47-.23,21.1-3.71,28.19-11.33,6.19-6.65,9.09-15.64,11.81-24.31l5.88-18.77C771.83,404.1,774.27,398,771.32,395.25Z"/></g><path d="M774.89,396.28s-36.14-41-36.66-40.92-27.46-3.85-27.46-3.85l-4.6,4.52,30,3.9L773,398.54Z" fill="#ddd"/><path d="M706.17,356c-.38.19-2.09,1.33-2.09,1.33l.37,3.85s6.61,2,6.81,2.23,1.52-2,1.52-2Z" fill="#375a64"/><path d="M774.25,399.71l-38.12-40-30-3.71c-.34.14,33.85,36.19,33.85,36.19Z" fill="#3f3d56"/><path d="M706.17,356s-4.93,2.15,2.81,3.19c8.31,1.11,25.25,3.07,25.25,3.07L760,397.55s-1.43,2.16-2.69,1.85c-5.66-1.44-19.66-2.45-24.86-5.25-6.58-3.54-29.13-32.32-29.47-34.95C702.65,356.79,706.17,356,706.17,356Z" fill="#f5f5f5"/><path d="M757.28,399.4a5.76,5.76,0,0,1-.49-.56l-1.3-1.68c-1.16-1.55-2.76-3.66-4.7-6.25l-15.32-20.76-3.57-4.87.22.12-12-1.47-5.14-.64-4.44-.68c-1.35-.22-2.56-.37-3.62-.61a9.35,9.35,0,0,1-2.59-1,3.16,3.16,0,0,1-1.25-1.23,1.56,1.56,0,0,1-.17-.58,3.08,3.08,0,0,0,1.53,1.61,9.67,9.67,0,0,0,2.55.88c1.05.2,2.28.32,3.62.51l4.42.6,5.15.59,12,1.39h.14l.08.11,3.57,4.88,15.17,20.86,4.54,6.37,1.21,1.75A2.59,2.59,0,0,1,757.28,399.4Z" fill="#3f3d56"/><path d="M767.1,377s-6-5.66-8-6c-2.25-.36-6-2.59-8.35-4.73-1.57-1.43-2.61,0-2.61,0l5.68,6.84L735,370.43a5,5,0,0,0,2.49,3.82c2.42,1.46,1.83,1.48,1.83,1.48s-1.25,1.7.21,2.84a37.07,37.07,0,0,0,3.63,2.36s-.74,2.51.61,4a8.22,8.22,0,0,0,1.31,3.74c1.25,2,6.77,4.4,6.77,4.4l25.12-.94-.58-14.36Z" fill="#f9b499"/><path d="M732.39,373.05a13.92,13.92,0,0,1-3.44.25,48,48,0,0,1-16.38-2.85,14.7,14.7,0,0,1-3.16-1.4,25.76,25.76,0,0,1,3.31,1,66.2,66.2,0,0,0,8,1.94,67.62,67.62,0,0,0,8.21.89A25.3,25.3,0,0,1,732.39,373.05Z" fill="#3f3d56"/><path d="M743,386a14.19,14.19,0,0,1-3.22.3A55.25,55.25,0,0,1,732,386a45.64,45.64,0,0,1-7.65-1.49,12.16,12.16,0,0,1-3-1.12,23.46,23.46,0,0,1,3.14.68,66,66,0,0,0,7.61,1.3c3,.32,5.73.41,7.71.46A19.38,19.38,0,0,1,743,386Z" fill="#3f3d56"/><path d="M747.75,393.11a12.25,12.25,0,0,1-3.09.27,43,43,0,0,1-7.47-.51,49,49,0,0,1-7.28-1.74A13,13,0,0,1,727,390c.07-.21,4.55,1.33,10.27,2.24S747.75,392.89,747.75,393.11Z" fill="#3f3d56"/><path d="M736.55,379.05a11.82,11.82,0,0,1-3,.51,39.09,39.09,0,0,1-7.32-.05,44.74,44.74,0,0,1-7.21-1.33,12,12,0,0,1-2.87-1c.05-.22,4.5,1.09,10.14,1.66S736.53,378.84,736.55,379.05Z" fill="#3f3d56"/><path d="M752.63,393l63.22-.91h0a47.11,47.11,0,0,0,.13-30.84l-13.13-33.23c-3.72-9-13.41-16.37-22.31-12.38h0c-8.66,3.88-9.41,12.65-5.63,21.34l16.69,35.39-23.9,4.8" fill="#f9b499"/><path d="M773.51,338.93c4.94,8.38,12.66,21.37,12.66,21.37l28.59-11.82s-12.35-23.33-16.32-29.28c-1.6-2.42-5.16-7.36-15.65-8.62a20.83,20.83,0,0,0-3.24.83A13.87,13.87,0,0,0,769.91,322l-.24,1.25C769.09,328.4,770.89,334.47,773.51,338.93Z" fill="#686175" data-primary="true"/><path d="M711.45,212.61s4.17-.38,6.14-2.5,10.29-16.65,10.29-16.65-1.69-1.49-4.26.75a70.64,70.64,0,0,0-5.37,5.87s2.25-9.49,3-12.74c.68-2.85,1.53-7.21.18-8s-2.77,4.77-3.83,7-2.49,5.33-2.49,5.33c0,.18,2.41-11.33,2.22-14.58-.15-2.37-3.09-1.81-3.47.89,0,0-.79-2.85-2.28-1s-3.7,13-4.45,12.74.54-9.49-.57-10.48c-.63-.56-1.63.21-2.07,2.53s-3.59,19.86-3.44,22.36a5.91,5.91,0,0,0,1.05,3.48Z" fill="#f9b499"/><ellipse cx="753.6" cy="274.35" rx="28.77" ry="17.83" transform="translate(301.5 936.75) rotate(-75.69)" fill="#f9b499"/><polygon points="773.56 282.71 772.45 312.33 746.61 322.46 746.61 299.53 771.3 275.85 773.56 282.71" fill="#f9b499"/><path d="M746.54,302.64s6.1,1.29,13.67-4.5c0,0-2.78,8.13-13.62,7.17Z" fill="#f4a58c"/><path d="M767.1,250.8l-31,.69a14.34,14.34,0,0,1,4.55-5.27,24.22,24.22,0,0,1,14-5c5-.09,15.33,6.06,19,9.54,2.93,2.79,2.91,5.2,2.91,5.2.47,4-1.78,8.58-2.67,12.52-.46,2-1.35,8.18-1.35,8.18h0c-1.7,0-2.34-1.36-2.08-3.05l.32-6.61a10,10,0,0,1-3-11.67C768.2,254.68,769.14,251.93,767.1,250.8Z" fill="#2f2e41"/><path d="M738.71,273.64c.1,0,.19-.09.2-.21a.21.21,0,0,0-.16-.25.2.2,0,0,0-.2.21A.21.21,0,0,0,738.71,273.64Z" fill="#ff9a6c"/><path d="M773.9,251.15a9.15,9.15,0,0,0-9.15-11.38,31.49,31.49,0,0,1-4.32.31c-2.68-.3-4.75-2.44-7.23-3.49a9.47,9.47,0,0,0-11.14,3.34c-.94,1.41-1.56,3.15-3,4-1.25.77-2.82.71-4.22,1.13a6.88,6.88,0,0,0-4.63,6.82,8.12,8.12,0,0,0,4.94,6.82,9.92,9.92,0,0,0,8.56-.6c2.34-1.3,4.43-3.52,7.1-3.44s5.19,2.69,7.9,2.15a7.7,7.7,0,0,0,3.57-2.39,6.23,6.23,0,0,1,3.69-2.13c1.45-.08,2.2,1.91,1.68,3.26l6.25-4.43" fill="#2f2e41"/><path d="M736.74,247.56s0,0,0,.1.1.18.18.3a5.08,5.08,0,0,0,.89,1,5.58,5.58,0,0,0,1.84,1.07,5.32,5.32,0,0,0,2.81.17,5.64,5.64,0,0,0,3-1.69c.84-.93,1.34-2.17,2.13-3.26a4,4,0,0,1,3.55-1.81,4.63,4.63,0,0,1,2.11.57,4,4,0,0,1,1.56,1.59,23.11,23.11,0,0,0,1.09,2.09,2.57,2.57,0,0,0,2,1.21,3.9,3.9,0,0,0,2.16-.62,8.24,8.24,0,0,0,1.65-1.37,6.83,6.83,0,0,1,3.07-2.18,3.89,3.89,0,0,1,3.11.73,5.29,5.29,0,0,1,1.7,2.11,8.37,8.37,0,0,1,.64,2c.12.57.17,1,.21,1.32a2.9,2.9,0,0,0,.06.46s0,0,0-.12,0-.19,0-.35a12.1,12.1,0,0,0-.15-1.33,9.13,9.13,0,0,0-.6-2A5.53,5.53,0,0,0,768,245.3a4.06,4.06,0,0,0-3.29-.8,7.06,7.06,0,0,0-3.21,2.23,8,8,0,0,1-1.59,1.31,3.67,3.67,0,0,1-2,.58,2.29,2.29,0,0,1-1.76-1.09,22,22,0,0,1-1.07-2.06,4.23,4.23,0,0,0-1.67-1.71,4.88,4.88,0,0,0-2.25-.6,4.54,4.54,0,0,0-2.19.49,4.61,4.61,0,0,0-1.59,1.44c-.81,1.14-1.3,2.37-2.1,3.26a5.29,5.29,0,0,1-2.82,1.65,5.08,5.08,0,0,1-2.71-.12,5.36,5.36,0,0,1-1.82-1A6.58,6.58,0,0,1,736.74,247.56Z" fill="#3f3d56"/><path d="M731.12,247.67a1.83,1.83,0,0,0-.12.59,4.74,4.74,0,0,0,.15,1.66,6,6,0,0,0,1.16,2.19,6.87,6.87,0,0,0,2.45,1.78,10,10,0,0,0,5.4.61,14.63,14.63,0,0,0,1.63-.32,2.65,2.65,0,0,0,.57-.19c0-.05-.85.15-2.22.3a10.6,10.6,0,0,1-5.26-.67,6.74,6.74,0,0,1-2.36-1.69,5.8,5.8,0,0,1-1.16-2.07A6.63,6.63,0,0,1,731.12,247.67Z" fill="#3f3d56"/><path d="M246.51,537.21l2.75,23.17s24.21-8,25.39,9.21l-44.71,6.95-5.77-35.92Z" fill="#f48225" data-secondary="true"/><path d="M207.53,535.54,193.7,554.33s26.8,9.73,12.23,24.08l-37.38-25.5,20.34-30.15Z" fill="#f48225" data-secondary="true"/><path d="M255.89,368.39s12.93,86.85,9.05,93.61-65.57,89.54-65.57,89.54l-25-13.42,52.12-90.28-9.87-79.28Z" fill="#2f2e41"/><path d="M184,360s-4.8,18.46-2.41,29.6c2.16,10,40.94,171.87,40.94,171.87l29.58-3.73-31.26-187.2Z" fill="#2f2e41"/><g opacity="0.2"><path d="M184,360s-4.8,18.46-2.41,29.6c2.16,10,40.94,171.87,40.94,171.87l29.58-3.73-31.26-187.2Z"/></g><path d="M248.5,202.25l10.2,11.34c1.69,1.88,3.47,4,3.62,6.49.16,2.83-1.8,5.76-.68,8.37,1.05,2.45,4.36,3.32,5.38,5.79,1.47,3.51-2.64,7.5-1.29,11.06,1.06,2.78,5.18,4.36,4.59,7.27-.31,1.53-1.94,2.74-1.64,4.27.4,2,3.38,1.94,4.88,3.33,2.4,2.22-.19,6.55,1.4,9.41,1.22,2.18,4.35,2.57,5.78,4.62a5.32,5.32,0,0,1-.09,5.57,15.77,15.77,0,0,1-4.07,4.2c-3.54,2.83-7.15,5.69-11.34,7.44s-9.09,2.3-13.22.44c-3.16-1.42-5.56-4.05-8.18-6.3s-5.85-4.25-9.29-3.94" fill="#2f2e41"/><path d="M216.72,200.66c-2.48-.87-10.09,5.86-10.92,8.36s-1,5.37-2.76,7.33c-1.54,1.73-4.17,2.57-4.94,4.75-.93,2.62,1.43,5.58.46,8.19-1.19,3.21-6.51,3.56-7.18,6.91-.48,2.46,2,4.86,1.33,7.26s-4.58,3.31-5,5.92,2.64,4.2,2.92,6.66c.21,1.83-1.12,3.43-1.61,5.2a7.17,7.17,0,0,0,2.55,7.19,11.85,11.85,0,0,0,7.52,2.45,18,18,0,0,0,13.4-5.92c5.89-6.59,6-16.32,6.38-25.15a236.2,236.2,0,0,1,4.27-36.73" fill="#2f2e41"/><path d="M253.54,208.27c-3.24-8.81-15.56-14.86-26.38-13.36-9.09,1.26-19.59,9-21.34,18.05-2.54,13.12,3.1,27.53-2.75,39.58-6.8,14-13.77,8.52-15.25,29.66-.45,6.36.54,22.14,3.09,28,1.32,3,3.55,6,6.76,6.88,4,1.16,9.57,2.5,13.11.34,9.58-5.83,18-5.94,21.26-16.6,4.83-15.7-4-36.33-2.29-49.29s.9-26.11.1-39.16" fill="#2f2e41"/><path d="M265.46,265.58c-3.14-3.86-16.74-6.3-17.7-6.3l-30.64-2.65c-10.3,2.91-15.81,4.56-23.29,7.63l1.24,32.28,6,33.11c-8.15,9.73-15.81,24.5-17.52,33.25,22.37,11.67,49.16,12.48,72.74,5.65l-1.26-34.13Z" fill="#f48225" data-secondary="true"/><path d="M262.68,263.53s9.92,4.84,13.47,11.43c1.8,3.34,7.88,24.89,7.88,24.89s-3.11,10.55-22.24,7.15l-3.19-3.75Z" fill="#f48225" data-secondary="true"/><path d="M194.09,264.41s-7.41,4.21-9.63,12.64a125.67,125.67,0,0,0-3,19.57l18.75,3.51Z" fill="#f48225" data-secondary="true"/><g opacity="0.2"><path d="M214.42,319.29c3.73-.56,5.47-2.27,8.51-3.9s6.49-3.16,9.83-2.29c2.33.61,4.26,2.32,6.58,2.95a29.34,29.34,0,0,0,4.87.49,6.13,6.13,0,0,1,4.35,2,4.67,4.67,0,0,1,.18,5,7.71,7.71,0,0,1-4,3.25,11.67,11.67,0,0,1-8,.2c-2.07-.7-3.94-2-6.09-2.35a11.57,11.57,0,0,0-5.39.65c-1.74.56-3.42,1.3-5.2,1.72a8.77,8.77,0,0,1-5.39-.16,4.77,4.77,0,0,1-3.09-4.14,3.31,3.31,0,0,1,3.48-3.33"/></g><path d="M192.2,261a5.64,5.64,0,0,1-.13-1c-.06-.7-.14-1.64-.25-2.83-.19-2.52-.45-6.06-.78-10.41-.16-2.21-.33-4.62-.51-7.2s-.63-5.39.17-8.33a6,6,0,0,1,2.76-3.65c1.34-.81,2.89-1.28,3.76-2.5a7.12,7.12,0,0,0,.91-4.45,15.55,15.55,0,0,1,.36-5.05,10.77,10.77,0,0,1,6.87-6.92,10,10,0,0,1,4.74-.35,6.8,6.8,0,0,0,2.16,0,2.8,2.8,0,0,0,1.66-1.05,7.89,7.89,0,0,0,1.11-3.89,15.31,15.31,0,0,1,.76-4,10.9,10.9,0,0,1,4.65-5.55,10,10,0,0,1,5.82-1.37,10.62,10.62,0,0,1,4.34,1.25,9.34,9.34,0,0,1,2.31,1.69,5.77,5.77,0,0,1,.49.55q.16.2.15.21a12.65,12.65,0,0,0-3.06-2.23,10.68,10.68,0,0,0-4.25-1.11,9.56,9.56,0,0,0-5.57,1.4,10.43,10.43,0,0,0-4.38,5.35,14.37,14.37,0,0,0-.7,3.87,8.46,8.46,0,0,1-1.2,4.2,3.4,3.4,0,0,1-2,1.27,7.43,7.43,0,0,1-2.35,0,9.51,9.51,0,0,0-4.49.33,10.19,10.19,0,0,0-6.45,6.52,14.83,14.83,0,0,0-.33,4.85,7.75,7.75,0,0,1-1.05,4.83c-1.05,1.42-2.7,1.89-3.94,2.65a5.36,5.36,0,0,0-2.52,3.29c-.76,2.74-.3,5.56-.2,8.14s.3,5,.43,7.2c.24,4.35.44,7.9.58,10.43l.13,2.84A6.26,6.26,0,0,1,192.2,261Z" fill="#2f2e41"/><ellipse cx="236.6" cy="231.54" rx="20.14" ry="27.54" fill="#f9b499"/><path d="M215.36,247.3h27.13a0,0,0,0,1,0,0v21a13.57,13.57,0,0,1-13.57,13.57h0a13.57,13.57,0,0,1-13.57-13.57v-21a0,0,0,0,1,0,0Z" fill="#f9b499"/><path d="M242.29,257.86s-6.52.66-14.82-4c0,0,2.8,8.44,15.05,7.06Z" fill="#f7ab94"/><path d="M247.58,202.33a20.22,20.22,0,0,1-16,14.25c.29-.89.59-1.78.89-2.67a28.64,28.64,0,0,1-17.16,11.64,19.81,19.81,0,0,1,6.86-23.79c7.48-5.06,18.84-5.34,25.35.93" fill="#2f2e41"/><path d="M230.48,212.75a21,21,0,0,0-5.73,4.59,7.19,7.19,0,0,0-1.38,6.9c.48,1.16,1.37,2.16,1.61,3.39.74,3.74-4.54,6.11-5,9.88-.47,3.41,3.1,6.15,3.4,9.58.38,4.4-4.67,7.92-4.2,12.31.25,2.36,2,4.21,3.51,6.06s2.77,4.31,1.89,6.51c-.65,1.62-2.27,2.57-3.51,3.79a9.83,9.83,0,0,0-2.64,9.05c.75,3.23,3.11,6.7,1.34,9.51-1.32,2.09-4.27,2.4-6.71,2a12.1,12.1,0,0,1-6.64-3.13,7.16,7.16,0,0,1-2-6.81c.65-2.32,2.75-4.5,1.95-6.77-.7-2-3.32-2.79-4-4.79-.77-2.24,1.28-4.39,2-6.67,1.13-3.74-1.52-8,0-11.58,1-2.32,3.44-3.82,4.12-6.24.86-3.07-1.51-6.06-2-9.2-.4-2.45.34-4.93,1.08-7.3q2.48-7.94,5-15.88" fill="#2f2e41"/><path d="M272,264c-.06-.06.93-.76,2.35-2.34a6.28,6.28,0,0,0,1.58-3.41,3.94,3.94,0,0,0-.39-2.26,3.88,3.88,0,0,0-1.94-1.67,23.12,23.12,0,0,1-2.75-1.3,4.55,4.55,0,0,1-1.93-2.76,7.57,7.57,0,0,1,.05-3.6,13.9,13.9,0,0,1,1.5-3.46c1.24-2.2,2.88-4.45,2.84-7.16a4.67,4.67,0,0,0-1.4-3.56,6.12,6.12,0,0,0-3.89-1.12,12.25,12.25,0,0,1-4.38-.6,5.12,5.12,0,0,1-2.81-3.3,10.36,10.36,0,0,1-.35-4.15c.11-1.34.32-2.62.38-3.87a13,13,0,0,0-1.59-6.79,19.37,19.37,0,0,0-3.78-4.88,39.72,39.72,0,0,0-7.37-5.2l-2.15-1.23a4.07,4.07,0,0,1-.73-.46,4.27,4.27,0,0,1,.79.35c.51.24,1.26.62,2.21,1.12a36.9,36.9,0,0,1,7.56,5.09,19.24,19.24,0,0,1,3.93,5,13.47,13.47,0,0,1,1.72,7.06c-.09,2.56-.87,5.23,0,7.79a4.51,4.51,0,0,0,2.47,2.92,11.91,11.91,0,0,0,4.16.55,6.55,6.55,0,0,1,4.27,1.28,5.27,5.27,0,0,1,1.62,4,8.9,8.9,0,0,1-1,4c-.59,1.22-1.3,2.32-1.93,3.41a13,13,0,0,0-1.46,3.31,7,7,0,0,0-.09,3.33,4,4,0,0,0,1.69,2.48,22,22,0,0,0,2.68,1.3,4.36,4.36,0,0,1,2.1,1.89,4.43,4.43,0,0,1,.39,2.49,6.51,6.51,0,0,1-1.75,3.53,16.49,16.49,0,0,1-1.84,1.68A4.1,4.1,0,0,1,272,264Z" fill="#2f2e41"/><path d="M214.28,289.14a5.05,5.05,0,0,1,.73-.47c.49-.29,1.21-.7,2.1-1.3a11.12,11.12,0,0,0,2.8-2.61A6,6,0,0,0,221.1,280c-.35-1.84-1.8-3.48-2.43-5.76a6.1,6.1,0,0,1,.22-3.6,13.43,13.43,0,0,1,1.89-3.27c1.49-2.05,3.47-4,4.29-6.52a5.56,5.56,0,0,0-.19-3.91,14.78,14.78,0,0,0-2.33-3.53,20.6,20.6,0,0,1-2.51-3.61,6.23,6.23,0,0,1-.56-4.29,11.82,11.82,0,0,1,1.81-3.74c.73-1.12,1.49-2.17,2.06-3.27a11.31,11.31,0,0,0,.92-6.86c-.29-2.22-.84-4.26-1.12-6.17a14.53,14.53,0,0,1,0-5.23,8.33,8.33,0,0,1,1.69-3.56,5.68,5.68,0,0,1,2-1.55,3,3,0,0,1,.82-.29,6.76,6.76,0,0,0-2.58,2,8.38,8.38,0,0,0-1.53,3.48,14.11,14.11,0,0,0,.09,5.08c.3,1.88.88,3.91,1.19,6.17a11.7,11.7,0,0,1-.92,7.19c-1.15,2.32-3.13,4.3-3.78,6.89a5.58,5.58,0,0,0,.51,3.87,20.06,20.06,0,0,0,2.45,3.49,15.65,15.65,0,0,1,2.41,3.69,6.17,6.17,0,0,1,.21,4.33c-.92,2.77-2.95,4.68-4.42,6.69a13.07,13.07,0,0,0-1.83,3.11,5.45,5.45,0,0,0-.23,3.28c.53,2.11,2,3.82,2.35,5.8a6.34,6.34,0,0,1-1.34,5,11.08,11.08,0,0,1-3,2.61,23.75,23.75,0,0,1-2.17,1.21A4,4,0,0,1,214.28,289.14Z" fill="#2f2e41"/><g opacity="0.2"><path d="M196.43,262.81a3.11,3.11,0,0,1-.52-.78,5.31,5.31,0,0,1-.52-2.6,5.49,5.49,0,0,1,1.71-3.83c1.23-1.19,3.17-1.63,4.7-2.9a3.22,3.22,0,0,0,1.31-2.58,6.78,6.78,0,0,0-1.25-3.08,5.33,5.33,0,0,1,.5-7.33c.91-1.06,2-1.93,2.93-3a6.52,6.52,0,0,0,1.8-3.68c.42-2.82-.76-5.91.06-9.13a5.15,5.15,0,0,1,3-3.68,39.18,39.18,0,0,1,4.4-1.05c1.35-.38,2.65-1.2,2.91-2.49s-.27-2.64-.28-4.06a5.36,5.36,0,0,1,1.6-3.75,9.48,9.48,0,0,1,3.18-2.12c2.31-.94,4.59-1.08,6.57-1.55a11,11,0,0,0,4.92-2.18,9.31,9.31,0,0,0,2.44-3.26,11.41,11.41,0,0,0,.84-3.42,1.1,1.1,0,0,1,0,.24,5.57,5.57,0,0,1,0,.69,9,9,0,0,1-.62,2.58,9.35,9.35,0,0,1-2.44,3.44,11.23,11.23,0,0,1-5,2.35c-2,.5-4.29.68-6.46,1.6a9.16,9.16,0,0,0-3,2,4.76,4.76,0,0,0-1.41,3.36c0,1.28.6,2.65.28,4.21a3.38,3.38,0,0,1-1.26,1.94,6.38,6.38,0,0,1-2.06,1,40.48,40.48,0,0,0-4.34,1,4.5,4.5,0,0,0-2.62,3.25c-.78,3,.38,6-.06,9.06a7.09,7.09,0,0,1-2,4c-1,1.07-2.07,1.94-2.93,2.94a4.8,4.8,0,0,0-.49,6.68,7.3,7.3,0,0,1,1.29,3.34,3.75,3.75,0,0,1-1.52,2.94,12.43,12.43,0,0,1-2.57,1.49,9.56,9.56,0,0,0-2.18,1.32,5.29,5.29,0,0,0-1.7,3.58A5.53,5.53,0,0,0,196,262C196.26,262.53,196.46,262.79,196.43,262.81Z"/></g><g opacity="0.2"><path d="M217.46,287.54l-.19.07a5.09,5.09,0,0,1-.58.1,5.88,5.88,0,0,1-2.25-.22,7.05,7.05,0,0,1-3.06-1.86,6.24,6.24,0,0,1-1.78-4.38c0-1.8.68-3.64,1-5.62a7,7,0,0,0-.2-3,23,23,0,0,0-1.29-3.05A9.88,9.88,0,0,1,208,266.1a6.26,6.26,0,0,1,1-3.67c.63-1.12,1.39-2.14,1.89-3.28a4.75,4.75,0,0,0,.22-3.61c-.37-1.22-1-2.36-1.5-3.59a6.15,6.15,0,0,1-.4-3.92c.71-2.56,2.56-4.34,3.17-6.47a4.86,4.86,0,0,0-.07-3.13c-.32-1-.82-1.94-1.21-2.9a9.39,9.39,0,0,1-.45-5.73,14.38,14.38,0,0,1,1.83-4.37,26.66,26.66,0,0,1,2.1-2.87c.63-.75,1.14-1.31,1.48-1.69a4,4,0,0,1,.56-.55,3.26,3.26,0,0,1-.46.64l-1.38,1.75a17.92,17.92,0,0,0-3.68,7.19,8.79,8.79,0,0,0,.49,5.42c.38.93.9,1.87,1.25,2.94a5.47,5.47,0,0,1,.1,3.47c-.68,2.32-2.52,4.12-3.13,6.45a5.61,5.61,0,0,0,.39,3.54c.46,1.17,1.12,2.32,1.52,3.64a6,6,0,0,1,.28,2.06,5.75,5.75,0,0,1-.53,2c-.55,1.22-1.33,2.25-1.92,3.32a5.68,5.68,0,0,0-.92,3.32,9.73,9.73,0,0,0,1,3.26,23,23,0,0,1,1.29,3.14,7.5,7.5,0,0,1,.18,3.25c-.32,2.06-1,3.85-1,5.56a5.87,5.87,0,0,0,1.59,4.12,6.85,6.85,0,0,0,2.87,1.87A7,7,0,0,0,217.46,287.54Z"/></g><g opacity="0.2"><path d="M270,262.52s-.13,0-.38,0a4.83,4.83,0,0,1-1-.3A7.6,7.6,0,0,1,264,254a14.2,14.2,0,0,0,.31-3.37,2.82,2.82,0,0,0-.58-1.53,4.6,4.6,0,0,0-1.38-1.09c-.54-.31-1.11-.6-1.65-1a3.91,3.91,0,0,1-1.28-1.49,6.67,6.67,0,0,1-.37-3.57c.12-1.12.32-2.15.35-3.1a12.45,12.45,0,0,0-.2-2.67,16.44,16.44,0,0,0-1.93-5,4.51,4.51,0,0,1,.9,1.16,12.1,12.1,0,0,1,1.75,6.49c0,1-.18,2.06-.28,3.14a6.14,6.14,0,0,0,.34,3.24c.46,1,1.56,1.57,2.69,2.2a5,5,0,0,1,1.56,1.25,3.54,3.54,0,0,1,.71,1.85,14.88,14.88,0,0,1-.36,3.52,7.08,7.08,0,0,0,1.18,5.4,7.55,7.55,0,0,0,2.88,2.51C269.48,262.36,270,262.47,270,262.52Z"/></g><path d="M197.42,320.19c.18-1.88-.83-20.77-.83-20.77L184.14,297l-1.76-32.46-14.31.92s-5.81,61.62,1.61,71.57c6.91,9.27,17.11,3.93,17.11,3.93S196,335.32,197.42,320.19Z" fill="#ffbf9d"/><path d="M182.11,266.19s2.74-3.49,2.54-6.57-5.37-20.06-5.37-20.06-2.37.22-2.51,3.84a72.79,72.79,0,0,0,.62,8.41l-7.64-11.59c-1.71-2.6-4.46-6.44-6-5.93s1.66,5.61,2.58,8,2.3,5.81,2.3,5.81-7-10.11-9.64-12.33c-1.93-1.61-3.65,1.07-1.84,3.32,0,0-2.77-1.46-2.45,1s7.35,12.33,6.6,12.7-6.94-7.32-8.51-7.18c-.89.08-1,1.41.44,3.44S166,266.32,168,268a6.32,6.32,0,0,0,3.45,1.73Z" fill="#ffbf9d"/><path d="M185,332.74c-.07,0,.3-.89.7-2.53a30.49,30.49,0,0,0,.86-7.06c.16-6-1.67-14.29-2.36-23.52S183,282,182.6,276c-.17-3-.31-5.38-.41-7.16q0-1.18-.09-1.95a3.32,3.32,0,0,1,0-.69,2.51,2.51,0,0,1,.12.68c.06.51.13,1.15.21,1.94.16,1.68.38,4.13.61,7.15.47,6,.95,14.4,1.75,23.61S187.25,317,187,323.16a28.51,28.51,0,0,1-1.07,7.12,15.5,15.5,0,0,1-.65,1.84A2.56,2.56,0,0,1,185,332.74Z" fill="#f7ab94"/><path d="M50.92,315.26s-13.46-9.39-19.64-7.68S17.17,318,17.17,318s15.68-4.52,20.41-3.58S50.92,315.26,50.92,315.26Z" fill="#bcbec0"/><path d="M55.45,318.66c-2,4.43-5.34,8.13-7.24,12.59a21.28,21.28,0,0,0-.09,16.16A29.08,29.08,0,0,0,55,333.65a75.47,75.47,0,0,0,1.57-14.39Z" fill="#bcbec0"/><path d="M53.38,317.49c.62-1.81-14.62-1-19.47,4.86s-9.71,12.26-5.62,27.08c0,0,9.19-16.06,9.19-15.82S52.16,321.07,53.38,317.49Z" fill="#bcbec0"/><path d="M53.5,317.31c-1.41.55,12.43,4.76,18.82,5.28S82.57,321,82.57,321,73.29,309.63,53.5,317.31Z" fill="#bcbec0"/><path d="M123.43,375.63s6.67-2.71,8.54-.83,9.58,12.08,16.87,12.7c0,0-6.66-14.16-12.7-16.45C132.17,369.54,123.43,375.63,123.43,375.63Z" fill="#bcbec0"/><path d="M125.15,374.87s-.27-5-2.78-7.64-11.58-4.43-11.58-4.43,3.27,5.24,6.62,7.79A37.26,37.26,0,0,0,125.15,374.87Z" fill="#bcbec0"/><path d="M125.14,374.58s-4.64-.07-7.92,5.73-5.07,13.09-4.79,12.61,8.75-4.2,11-8.89A19.67,19.67,0,0,0,125.14,374.58Z" fill="#bcbec0"/><path d="M126.2,374.58s.83,11.05,2.7,12.92,4.58,8.75,4.58,8.75,4.17-10,1.88-14.79S126.2,374.58,126.2,374.58Z" fill="#bcbec0"/><path d="M85.71,395.92c-.53.8-11.22,9.08-12.83,13.09s-.26,10.16,0,12,9.63-2.4,11.23-9.62A83.5,83.5,0,0,0,85.71,395.92Z" fill="#bcbec0"/><path d="M87.8,389.71c0,1.33.16,14.43,3.6,19s9.82,9.43,9.82,9.43,2.26-16.56-2.51-21.67A25.85,25.85,0,0,0,87.8,389.71Z" fill="#bcbec0"/><path d="M86.23,392c-.79-.19-10.46-1.1-15,4.4A51.25,51.25,0,0,0,64,408.13s14.62-7.26,17.31-10.47S86.23,392,86.23,392Z" fill="#bcbec0"/><path d="M92.88,386a7.61,7.61,0,0,1,8.28-.22c4.35,2.71,11.57,13.22,11.57,13.22s-8.84-.58-13.5-5A30.6,30.6,0,0,1,92.88,386Z" fill="#bcbec0"/><path d="M86.59,387.59s-5.61-4.77-9.89-5.83-16.84,2.07-16.84,2.07a22.49,22.49,0,0,0,14.57,3.76C83.11,386.84,86.59,387.59,86.59,387.59Z" fill="#bcbec0"/><path d="M68,436.13s-4,7.75,0,12S74.15,461,74.15,461s6.92-6.68,3.45-14.17A24.33,24.33,0,0,0,68,436.13Z" fill="#bcbec0"/><path d="M61.54,436.3c-1.07.53-8,9.89-8.55,16.57s-1.07,18.18,0,17.37,8.82-8,11-15S61.54,436.3,61.54,436.3Z" fill="#bcbec0"/><path d="M58.93,435.56c-1.07.27-11.23-1.6-16.84,5.62s-9.89,17.64-9.89,17.64,14.7-7.52,18.18-11.64S58.93,435.56,58.93,435.56Z" fill="#bcbec0"/><path d="M116.3,422.73s-3.06,9.09,0,17.11a77.37,77.37,0,0,0,6.53,13.37s4.52-16,1.59-20.32S116.3,422.73,116.3,422.73Z" fill="#bcbec0"/><path d="M118,421.77c1.08,1,13.61,19,22.14,20.6s1.33-.68,1.33-.68-2.69-12.13-6.5-17.15S118,421.77,118,421.77Z" fill="#bcbec0"/><path d="M116.06,421.45s9.25-6.41,12.87-8.05,15.58.52,15.58.52-14.53,7.56-18,6.76S116.06,423,116.06,423" fill="#bcbec0"/><path d="M148.22,333.94s-8,8.5-6.95,15.13a78,78,0,0,0,3.43,13l3.52-11.68Z" fill="#bcbec0"/><path d="M149.31,332.24s-1.86,13,1.85,18.32,8.76,15.39,9.3,14.6,8.22-7.7,2.65-17.52A50.39,50.39,0,0,0,149.31,332.24Z" fill="#bcbec0"/><path d="M146.62,334.55s-12.81-3.72-14.65,2.38-3.43,11.42-3.43,11.42a49.86,49.86,0,0,1,9-7.46A95,95,0,0,0,146.62,334.55Z" fill="#bcbec0"/><path d="M89.19,338s.38-.35,1-.91c3-2.58,11.86-9.68,16.32-8.59a94.66,94.66,0,0,1,12.91,4.69S100.11,343.24,89.19,338Z" fill="#bcbec0"/><path d="M91.78,338.08c0-1-5.82-2.52-11,2.79s-5.94,8.56-5.94,8.56S91.42,347.24,91.78,338.08Z" fill="#bcbec0"/><path d="M90.87,339.15s-5.88,6.77-1.37,13.4,8.42,13,8.42,13a21.53,21.53,0,0,0,0-13.21A47.54,47.54,0,0,0,90.87,339.15Z" fill="#bcbec0"/><path d="M112.87,356c-.27-1.62,1.87-14.87-15.66-13.56H95.6S104,356,105.91,360.22a18.31,18.31,0,0,0,5.42,7.43C113.4,369.51,113.13,357.61,112.87,356Z" fill="#bcbec0"/><path d="M116.26,422.19a15.24,15.24,0,0,0-4.16-11.32c-.27-.28-.65-.58-1-.42a1,1,0,0,0-.43.63,9.77,9.77,0,0,0,1,7.29,24.1,24.1,0,0,0,4.75,5.82" fill="#bcbec0"/><path d="M66.84,434.41a29.89,29.89,0,0,0-14.2-13,2,2,0,0,0-1.2-.24,1.55,1.55,0,0,0-1.07,1.41,5.11,5.11,0,0,0,1.35,3.54,24.92,24.92,0,0,0,15.79,9.45" fill="#bcbec0"/><path d="M137.1,414.84c0,.06-.9.05-2.51.25A28.49,28.49,0,0,0,128,416.8a37.84,37.84,0,0,0-8.82,5,91.21,91.21,0,0,0-9.33,8.28c-6.37,6.19-12,11.95-15.87,16.27-2,2.16-3.5,3.94-4.56,5.17l-1.23,1.42c-.29.32-.45.48-.47.46a3,3,0,0,1,.37-.54c.25-.35.63-.86,1.14-1.5,1-1.28,2.5-3.1,4.41-5.31,3.81-4.41,9.39-10.23,15.77-16.43a86.88,86.88,0,0,1,9.42-8.29,36.91,36.91,0,0,1,9-4.93,25.67,25.67,0,0,1,6.75-1.52,17.52,17.52,0,0,1,1.88-.07A2.63,2.63,0,0,1,137.1,414.84Z" fill="#2f2e41"/><path d="M87.35,449.53c-.1.07-1.14-1.74-3.42-4.17a29.07,29.07,0,0,0-23.32-9.16c-3.32.23-5.32.85-5.34.73a5.11,5.11,0,0,1,1.38-.47,24.06,24.06,0,0,1,3.92-.71,27.85,27.85,0,0,1,23.69,9.31,23.64,23.64,0,0,1,2.4,3.18A5.08,5.08,0,0,1,87.35,449.53Z" fill="#2f2e41"/><path d="M90.8,337.89a1.66,1.66,0,0,1,0,.39c0,.28-.06.65-.1,1.11-.1,1-.24,2.46-.42,4.28-.38,3.72-.92,9.1-1.51,15.75-1.19,13.31-2.58,31.73-2.55,52.11s1.49,38.8,2.53,52.12c.54,6.62,1,12,1.28,15.77.14,1.83.26,3.26.33,4.29,0,.46.06.83.07,1.12a1.56,1.56,0,0,1,0,.38,1.49,1.49,0,0,1-.07-.38c0-.28-.08-.65-.13-1.11-.11-1-.26-2.45-.45-4.28-.38-3.72-.9-9.1-1.49-15.75-1.15-13.31-2.65-31.74-2.72-52.16s1.44-38.85,2.74-52.15c.65-6.65,1.26-12,1.71-15.73.23-1.82.42-3.25.55-4.27q.09-.69.15-1.11A1.74,1.74,0,0,1,90.8,337.89Z" fill="#2f2e41"/><path d="M130.78,373.77a9.76,9.76,0,0,1-1.87.29c-1.2.12-2.94.36-5.07.7a94.37,94.37,0,0,0-31.71,11.1c-1.88,1.07-3.39,2-4.41,2.62a10.72,10.72,0,0,1-1.63.94,11.27,11.27,0,0,1,1.5-1.15c1-.71,2.45-1.67,4.31-2.79a84.39,84.39,0,0,1,31.87-11.16c2.15-.29,3.9-.46,5.12-.51A10.91,10.91,0,0,1,130.78,373.77Z" fill="#2f2e41"/><path d="M87.5,367.85a2.68,2.68,0,0,1-.17-.71c-.1-.54-.21-1.22-.36-2.06a30.46,30.46,0,0,0-.64-3.24c-.33-1.24-.57-2.69-1.11-4.22l-.77-2.42c-.25-.84-.64-1.68-1-2.57a58.13,58.13,0,0,0-2.5-5.52,71.86,71.86,0,0,0-7.63-11.59A89.48,89.48,0,0,0,54.66,318.6c-1.3-1-2.58-1.7-3.65-2.41s-2-1.27-2.81-1.73l-1.79-1.09a3,3,0,0,1-.6-.42,4.3,4.3,0,0,1,.67.31l1.84,1c.81.43,1.79,1,2.88,1.65s2.39,1.39,3.72,2.33a85.73,85.73,0,0,1,18.92,16.89,71.29,71.29,0,0,1,7.66,11.73c.91,2,1.83,3.79,2.46,5.6.33.9.71,1.75,1,2.6s.5,1.67.73,2.46a40.4,40.4,0,0,1,1,4.27,25.93,25.93,0,0,1,.54,3.27c.1.85.18,1.54.25,2.08A4,4,0,0,1,87.5,367.85Z" fill="#2f2e41"/><path d="M150.22,333.33a3.24,3.24,0,0,1-.67.3l-2,.74c-1.71.62-4.17,1.55-7.19,2.77A207.41,207.41,0,0,0,96,361.58c-2.64,1.91-4.75,3.48-6.19,4.6l-1.67,1.26a3,3,0,0,1-.61.41s.17-.19.53-.51l1.6-1.35c1.39-1.18,3.46-2.82,6.07-4.77a186.12,186.12,0,0,1,44.53-24.5c3.05-1.16,5.54-2,7.28-2.59l2-.62A3.22,3.22,0,0,1,150.22,333.33Z" fill="#2f2e41"/><polygon points="113.2 545.01 62.85 545.01 57.59 483.5 119.1 483.5 113.2 545.01" fill="#2f2e41"/><rect x="53.69" y="483.5" width="69.5" height="9.46" fill="#2f2e41"/><path d="M532.75,469.91c-15.56-8.42-33.06-23.73-39.87-41.13,16.83,8.68,31,23.31,39.87,41.13" fill="#bcbec0"/><path d="M531.74,443.81c-15.57-8.41-33.07-23.72-39.87-41.12,16.83,8.68,31,23.31,39.87,41.12" fill="#bcbec0"/><path d="M529.41,418.31c-15.56-8.42-33.06-23.73-39.87-41.13,16.83,8.68,31,23.31,39.87,41.13" fill="#bcbec0"/><path d="M526,391.52c-14.44-10.53-30-28.16-34.68-46.37,15.67,11,28,27.46,34.68,46.37" fill="#bcbec0"/><path d="M521.62,370.84c-9.77-15.63-18.12-38.31-16.21-57.1a102.88,102.88,0,0,1,16.21,57.1" fill="#bcbec0"/><path d="M523.83,380.68c4.12-19.5,14.13-43.57,28.54-57.12a120.86,120.86,0,0,1-28.54,57.12" fill="#bcbec0"/><path d="M527,402.75c5.89-20,18.29-44.15,34.43-57a125.74,125.74,0,0,1-34.43,57" fill="#bcbec0"/><path d="M530.58,429.61c5.89-19.95,18.29-44.14,34.42-57a125.55,125.55,0,0,1-34.42,57" fill="#bcbec0"/><path d="M532.36,462.36c5.89-19.95,18.3-44.15,34.43-57a125.71,125.71,0,0,1-34.43,57" fill="#bcbec0"/><path d="M521.23,366.91a1.31,1.31,0,0,1,.09.31c.06.25.14.56.23.94.19.88.45,2.09.79,3.63.68,3.14,1.58,7.72,2.6,13.39s2.12,12.44,3.19,20,2,15.86,2.84,24.61,1.33,17.11,1.69,24.72.49,14.47.51,20.23,0,10.42-.12,13.64c0,1.57-.08,2.81-.11,3.71l-.05,1c0,.22,0,.33,0,.33a1.25,1.25,0,0,1,0-.33c0-.26,0-.57,0-1v-3.7c0-3.22,0-7.88-.09-13.64s-.29-12.6-.65-20.2-.94-15.95-1.73-24.69-1.79-17.05-2.79-24.59-2.07-14.32-3-20-1.79-10.25-2.4-13.41c-.29-1.55-.52-2.77-.68-3.65-.06-.39-.12-.7-.16-.95A1.38,1.38,0,0,1,521.23,366.91Z" fill="#2f2e41"/><path d="M539.59,476.64c-7.24-15.17-12.52-36.5-9-53.16a94.25,94.25,0,0,1,9,53.16" fill="#d1d3d4"/><path d="M551.64,457c-7.24-15.18-12.51-36.51-9-53.17a94.19,94.19,0,0,1,9,53.17" fill="#d1d3d4"/><path d="M562.45,437c-7.24-15.18-12.52-36.51-9-53.16a94.14,94.14,0,0,1,9,53.16" fill="#d1d3d4"/><path d="M573.1,415.47c-5.39-16.06-8.09-38-2.59-54a94.86,94.86,0,0,1,2.59,54" fill="#d1d3d4"/><path d="M580,397.83c.53-17.09,5.56-38.49,16.17-51.11A92.7,92.7,0,0,1,580,397.83" fill="#d1d3d4"/><path d="M576.82,406.3c12.57-11.86,31.69-23.64,48.86-25.18a94.63,94.63,0,0,1-48.86,25.18" fill="#d1d3d4"/><path d="M568.35,424.27c14.08-11.16,35-21.64,53.1-21.68a98.4,98.4,0,0,1-53.1,21.68" fill="#d1d3d4"/><path d="M557.76,446c14.08-11.16,35-21.64,53.1-21.68A98.44,98.44,0,0,1,557.76,446" fill="#d1d3d4"/><path d="M543,470.9c14.09-11.16,35-21.63,53.1-21.67A98.47,98.47,0,0,1,543,470.9" fill="#d1d3d4"/><path d="M581.68,394.73a1.2,1.2,0,0,1-.08.28l-.3.8c-.28.76-.68,1.78-1.17,3.08-1,2.66-2.6,6.49-4.61,11.19-4,9.39-10,22.21-17.38,35.94-3.71,6.86-7.42,13.3-10.9,19.09s-6.77,10.92-9.6,15.17-5.17,7.66-6.84,10l-1.93,2.67-.51.68c-.12.15-.19.23-.2.22a1.84,1.84,0,0,1,.14-.26l.47-.72,1.82-2.73c1.61-2.36,3.9-5.8,6.67-10.09s6-9.44,9.48-15.22,7.14-12.24,10.84-19.1C565,432,571,419.23,575.11,409.9c2.06-4.67,3.69-8.47,4.79-11.11l1.29-3,.35-.79C581.62,394.81,581.67,394.72,581.68,394.73Z" fill="#2f2e41"/><polygon points="560.24 540.56 515.74 540.56 507.44 479.24 568.77 479.24 560.24 540.56" fill="#2f2e41"/><path d="M839.42,576.5H479.72a37.26,37.26,0,0,0,0-33.22h359.7A38.94,38.94,0,0,0,839.42,576.5Z" fill="#f5f5f5"/><rect x="473.48" y="539.86" width="373.57" height="10.86" rx="4.3" fill="#e1e1e1"/><path d="M496.59,346.84a7.08,7.08,0,1,1-7.08-7.33A7.22,7.22,0,0,1,496.59,346.84Z" fill="#ccc"/><rect x="486.36" y="351.67" width="6.3" height="187.75" fill="#ccc"/><path d="M838.1,346.84a7.08,7.08,0,1,1-7.08-7.33A7.22,7.22,0,0,1,838.1,346.84Z" fill="#ccc"/><rect x="827.87" y="351.67" width="6.3" height="187.75" fill="#ccc"/><rect x="489.51" y="356.73" width="343.34" height="4.71" fill="#ccc"/><rect x="489.51" y="524.38" width="342.06" height="4.71" fill="#ccc"/><path d="M54.69,346.26c0,4.32-3.17,7.82-7.08,7.82s-7.08-3.5-7.08-7.82,3.17-7.81,7.08-7.81S54.69,342,54.69,346.26Z" fill="#ccc"/><rect x="44.45" y="351.4" width="6.3" height="200.02" fill="#ccc"/><path d="M396.2,346.26c0,4.32-3.17,7.82-7.09,7.82s-7.08-3.5-7.08-7.82,3.17-7.81,7.08-7.81S396.2,342,396.2,346.26Z" fill="#ccc"/><rect x="385.96" y="351.4" width="6.3" height="200.02" fill="#ccc"/><rect x="47.61" y="356.79" width="343.34" height="5.02" fill="#ccc"/><rect x="47.61" y="535.4" width="342.06" height="5.02" fill="#ccc"/><path d="M399.48,578.9H39.78a37.26,37.26,0,0,0,0-33.22h359.7A38.94,38.94,0,0,0,399.48,578.9Z" fill="#f5f5f5"/><rect x="33.54" y="542.25" width="373.57" height="10.86" rx="4.3" fill="#e1e1e1"/><line x1="76.21" y1="360.07" x2="76.21" y2="537.55" fill="none" stroke="#ccc" stroke-miterlimit="10"/><line x1="99.99" y1="360.07" x2="99.99" y2="537.55" fill="none" stroke="#ccc" stroke-miterlimit="10"/><line x1="123.76" y1="360.07" x2="123.76" y2="537.55" fill="none" stroke="#ccc" stroke-miterlimit="10"/><line x1="147.54" y1="360.07" x2="147.54" y2="537.55" fill="none" stroke="#ccc" stroke-miterlimit="10"/><line x1="171.31" y1="360.07" x2="171.31" y2="537.55" fill="none" stroke="#ccc" stroke-miterlimit="10"/><line x1="195.09" y1="360.07" x2="195.09" y2="537.55" fill="none" stroke="#ccc" stroke-miterlimit="10"/><line x1="218.87" y1="360.07" x2="218.87" y2="537.55" fill="none" stroke="#ccc" stroke-miterlimit="10"/><line x1="242.64" y1="360.07" x2="242.64" y2="537.55" fill="none" stroke="#ccc" stroke-miterlimit="10"/><line x1="266.42" y1="360.07" x2="266.42" y2="537.55" fill="none" stroke="#ccc" stroke-miterlimit="10"/><line x1="290.19" y1="360.07" x2="290.19" y2="537.55" fill="none" stroke="#ccc" stroke-miterlimit="10"/><line x1="313.97" y1="360.07" x2="313.97" y2="537.55" fill="none" stroke="#ccc" stroke-miterlimit="10"/><line x1="337.75" y1="360.07" x2="337.75" y2="537.55" fill="none" stroke="#ccc" stroke-miterlimit="10"/><line x1="361.52" y1="360.07" x2="361.52" y2="537.55" fill="none" stroke="#ccc" stroke-miterlimit="10"/><path d="M283.55,301.72s5.82,30.43,4.08,44.7c-.62,5.09-27.14,15.37-27.14,15.37l-6.6-10.91L269,336.33,263.21,307C270.53,308.42,277.29,306.57,283.55,301.72Z" fill="#ffbf9d"/><path d="M247.53,374.27a65.14,65.14,0,0,1-24.86,0V343.21h24.86Z" fill="#2f2e41"/><path d="M250.62,347.91c.62.39,2.71,1.88,4.06,2.78,1.77,1.18,4.43,6.46,5.77,9.77a11.28,11.28,0,0,1,.45,2.87c.39,2.81-.58,3.68-1.94,4.46s-9.6,3.48-10.47,2.46,0-2.46,0-2.46-2.42.58-3.49-.78a1.92,1.92,0,0,1,0-2.52s-6.69,2.91-8.34,2.23-1.11-2.3-.23-3,2.56-2.3,2.27-2-4.56.17-3.88-1.57,12.22-9,12.22-9-1.2-2.54-2-4.92c-1.17-3.34-.89-3.84.16-5,.55-.59,1.92-.37,3.15,3.75A7.44,7.44,0,0,0,250.62,347.91Z" fill="#ffbf9d"/><path d="M225.48,366c.05.2-.3.53-1.07.81A7.29,7.29,0,0,1,221,367a9.27,9.27,0,0,1-4.73-2.33,9.75,9.75,0,0,1-1.49-12.28,9.33,9.33,0,0,1,4-3.39,7.32,7.32,0,0,1,3.4-.61c.82.08,1.24.32,1.23.53,0,.47-1.63.69-3.55,2.06a8.61,8.61,0,0,0-2.6,2.93,7.59,7.59,0,0,0-.81,4.5,7.67,7.67,0,0,0,1.86,4.19,8.69,8.69,0,0,0,3.23,2.22C223.72,365.71,225.37,365.53,225.48,366Z" fill="#2f2e41"/><ellipse cx="774.68" cy="278.11" rx="4.38" ry="5.49" fill="#f9b499"/><path d="M355,159.47l77.94-25.26,79.27,25.26v62.66A124.46,124.46,0,0,1,499,278.2c-10.82,21.46-30.37,46.94-65.47,64.83,0,0-50.89-23.31-72.13-80.85A107.59,107.59,0,0,1,355,224.91Z" fill="#f48225" data-secondary="true"/><path d="M433.56,140.61l-73,23.21v60.25a103.39,103.39,0,0,0,6.92,37.38c8.61,22.23,27.13,54.72,65.42,74.2,0,0,47-18.91,66.74-77.26A103.08,103.08,0,0,0,505,225.44V164.22Z" opacity="0.2"/><circle cx="434.08" cy="231.33" r="46.95" fill="#fff"/><path d="M428.81,253.5a1.66,1.66,0,0,1-1.17-.48l-25.87-25.4a1.68,1.68,0,0,1,2.35-2.4l24.68,24.24,38.58-39a1.68,1.68,0,0,1,2.38,2.36L430,253A1.66,1.66,0,0,1,428.81,253.5Z" fill="#f48225" data-secondary="true"/></svg>