<svg id="a969df9f-a01c-4396-bd20-8b86712c2164" data-name="Layer 1" xmlns="http://www.w3.org/2000/svg" width="865.76" height="682.89" viewBox="0 0 865.76 682.89"><path d="M801.76,395.11c0,5.07-.09,10.13-.29,15.15A380.65,380.65,0,0,1,775.34,535.1q-.89,2.26-1.8,4.52a383.57,383.57,0,0,1-18,37.86H99.71q-5.1-9.37-9.7-19.07Q84.61,547,79.94,535.12a379.08,379.08,0,0,1-21.1-76Q56.32,444.2,55,428.89l-.06-.79q-1.39-16.31-1.41-33c0-3.33,0-6.64.13-9.95,0-.63,0-1.25,0-1.87q.42-13.67,1.77-27.05A381.54,381.54,0,0,1,62.77,311c.29-1.27.58-2.55.88-3.82,0,0,0-.05,0-.07q1.47-6.25,3.15-12.42c.49-1.83,1-3.67,1.53-5.49q3.47-12.09,7.71-23.83c.87-2.42,1.76-4.82,2.68-7.22s1.92-4.92,2.92-7.37l.93-2.28h0c.68-1.62,1.36-3.23,2.06-4.84.82-1.93,1.67-3.84,2.54-5.76q1-2.25,2-4.47,5.17-11.07,11-21.74C164.06,95.31,286.75,16.51,427.64,16.51c150.72,0,280.62,90.19,339.88,220.15q5.87,12.89,10.8,26.27,2.77,7.5,5.21,15.14,2,6.29,3.83,12.68c.28.95.54,1.9.8,2.85.17.59.33,1.18.49,1.78q1.46,5.37,2.74,10.79h0c.39,1.65.78,3.31,1.14,5,.15.61.28,1.22.41,1.83q.67,3.07,1.3,6.17,1.08,5.4,2,10.85,1.14,6.62,2,13.3.72,5.28,1.28,10.61,1.78,16.54,2.12,33.52c0,1.49,0,3,.06,4.46C801.76,393,801.76,394,801.76,395.11Z" fill="#97e9ff"/><path d="M800.42,353.86c-22,8.93-44.33,17-67,24h0c-20.38,6.29-41,11.68-61.86,16q-5.88,1.23-11.74,2.32c-67.77,12.63-134.4,12.33-202,9-19.84-1-39.75-2.2-59.8-3.44q-4.11-.25-8.22-.47c-2.74-.13-5.48-.26-8.21-.37h0q-4.11-.18-8.22-.31h0l-5.14-.15-5.15-.13-5.14-.11-5-.08h-.24c-3.4,0-6.81-.08-10.21-.1l-5.15,0q-6.72,0-13.42,0l-8.21,0h0c-4.12,0-8.26.06-12.39.11l-10.92.12q-9,.12-18,.22l-11.53.13q-14.05.13-28.08.11c-35.5-.1-70.91-1.34-106-6.07-9.74-1.31-22.9-3.09-37.84-5h0c-11.34-1.48-23.71-3.05-36.38-4.57l.06-1.88q.41-13.65,1.77-27.05A379,379,0,0,1,63.62,311c.28-1.28.57-2.56.87-3.83a.64.64,0,0,0,0-.07c1-4.16,2-8.31,3.15-12.41.49-1.84,1-3.67,1.53-5.49q3.47-12.09,7.7-23.84c.88-2.41,1.77-4.82,2.68-7.21s1.92-4.93,2.92-7.37l.94-2.28h0q1-2.43,2-4.83,1.24-2.9,2.54-5.76,1-2.25,2.06-4.47,5.17-11.08,11-21.74c6.19,6.27,12.16,12.13,17.22,15.95,11.18,8.45,14.14,6.86,27.66,10.07,12.45,3,34.07-13.5,46.68-8.75,14.69,5.54,24.85,33.55,41.1,34.6,22.36,1.46,43.17,16.3,64.41,27.95,25.17,13.8,47.47,25.76,76,21.51,15.2-2.26,24.63-9.24,39.72-7,12.09,1.77,25.94,7.68,38.08,10.84,12.81,3.34,23.75,9,38,8.36,13-.58,34-27.29,46.68-29.74,26.58-5.11,44.18,27.16,70.89,15.31,22-9.75,43.85-36.23,67.5-38.14,5.19-.42,28.15-44.76,34.49-45.4,3.73-.37,30.89,6,58.78,9.41q5.88,12.87,10.81,26.27,2.76,7.49,5.21,15.13,2,6.3,3.83,12.69c.28.94.54,1.89.8,2.85.17.59.33,1.18.49,1.77q1.46,5.37,2.74,10.8h0q.59,2.49,1.14,5c.14.61.28,1.22.41,1.83.45,2.05.88,4.1,1.3,6.17q1.08,5.38,2,10.84,1.14,6.62,2,13.31C799.61,346.77,800.05,350.31,800.42,353.86Z" fill="#e6f5ff"/><path d="M524.33,372.85c-11.93,16.48-45.67,23-63.61,31l-3,1.31c-19.84-1-39.75-2.2-59.8-3.44q-4.11-.25-8.22-.47c-2.74-.13-5.48-.26-8.21-.37h0q-4.11-.18-8.22-.31h0l-5.14-.15-5.15-.13-5.14-.11-5-.08h-.24c-3.4,0-6.81-.08-10.21-.1l-5.15,0q-6.72,0-13.42,0l-8.21,0h0c-4.12,0-8.26.06-12.39.11l-10.92.12q-9,.12-18,.22l-11.53.13q-14.05.13-28.08.11c-13.83-4.65-27.78-8.63-42-10.88a733.3,733.3,0,0,0-100.6-8.61q-6.57-.12-13.16-.13a172.13,172.13,0,0,0-24.41,2.07q.41-13.65,1.77-27.05A379,379,0,0,1,63.62,311c.28-1.28.57-2.56.87-3.83a.64.64,0,0,0,0-.07c1-4.16,2-8.31,3.15-12.41.49-1.84,1-3.67,1.53-5.49q3.47-12.09,7.7-23.84c.88-2.41,1.77-4.82,2.68-7.21s1.92-4.93,2.92-7.37l.94-2.28h0q1-2.43,2-4.83C92,253,98.86,262.19,108,269.36a27.07,27.07,0,0,0,7.3-15.69c10.51,2.89,18.66,15.57,27.28,22.73,7.63-9.55,12.54-22.14,27.26-21.59,5.2.2,9.34,6.37,14.65,7s12.71-4.4,16.86-3.19c8.21,2.4,20.07,15.41,28.1,20.64,9.43,6.15,16.74,13.36,27.32,17.93,11.48,5,28.34-2.26,36.72,3,8.78,5.49,8.31,25.07,19.9,32.45,13.18,8.39,22.53-.29,36.72-.34,11.58,0,23.22,9.27,36.23,10,11.49.65,28.78-9.37,38.45-5.28s10.18,19.16,22.45,22.78c13,3.82,25.82-5.22,39.31-1.31,2.95.85,5.87,1.87,8.78,3,7.94,3,15.79,6.73,23.65,9.59h0Q521.64,372,524.33,372.85Z" fill="#b5d6e2"/><path d="M795.09,319.1c-12,10.7-25.08,19.55-36.34,25a214.37,214.37,0,0,1-46,15.62,352.76,352.76,0,0,1-49.58,7.22l-2.49.2c-20.56,1.55-41.1,1.81-60.62,1.8h-82.6c7.7-.15,13.55-10.45,19.5-19.27a51,51,0,0,1,7.35-9.15c11.61-10.51,18.85-7.3,33.28-6.57,15.06.76,26.8.19,39.42-7.43,12.06-7.28,21.34-10.38,32.71-15.8,19.81-9.44,40.2-29.36,56.23-44.57,12-11.38,13.49-13,26.75-8.69,16.26,5.34,19.23,10.28,36.82,6.9q4.77-.91,9.62-1.45,2.76,7.49,5.21,15.13,2,6.3,3.83,12.69c.28.94.54,1.89.8,2.85.17.59.33,1.18.49,1.77q1.46,5.37,2.74,10.8h0q.59,2.49,1.14,5c.14.61.28,1.22.41,1.83C794.24,315,794.67,317,795.09,319.1Z" fill="#b5d6e2"/><path d="M802.61,395.05q0,7.62-.29,15.16-.39,9.82-1.26,19.51a380.12,380.12,0,0,1-13.34,71.4q-5,17.32-11.53,33.93-1.34,2.54-2.71,5.07h-690c-.91-1.68-1.82-3.37-2.71-5.06A379.74,379.74,0,0,1,62.71,475q-1.58-7.44-2.87-15l-.15-.91Q57.8,447.9,56.57,436.5c-.27-2.55-.52-5.1-.74-7.67,0-.26,0-.52-.07-.78q-.37-4.49-.66-9-.75-11.89-.74-24,0-5,.12-9.94l.06-1.88q.41-13.65,1.77-27.05A379,379,0,0,1,63.62,311c.28-1.28.57-2.56.87-3.83a.64.64,0,0,0,0-.07c1-4.16,2-8.31,3.15-12.41.49-1.84,1-3.67,1.53-5.49q3.47-12.09,7.7-23.84c.88-2.41,1.77-4.82,2.68-7.21,1.56,1.65,3,3.36,4.48,5.09l1.82,2.22c.29.38.59.75.88,1.12.88,1.12,1.75,2.25,2.6,3.37s1.71,2.26,2.53,3.38c.44.58.87,1.17,1.3,1.75,3.7,5,7.25,9.78,11,13.9l.83.9c.14.15.29.3.42.45l.84.86c4.09,4.14,8.43,7.37,13.41,9l.52.16h0c.52.16,1,.3,1.57.43h0a25.08,25.08,0,0,0,2.64.47h.16a26.15,26.15,0,0,0,5,.07l.56-.06c.19,0,.38,0,.58-.07.42,0,.84-.1,1.27-.17s.84-.15,1.26-.24l.32-.07.33-.07.61-.16.64-.2c.3-.1.62-.22.94-.35l.49-.2,1.17-.52.41-.2c.18-.07.37-.17.56-.26l1.15-.58,1.21-.65,1.26-.68.64-.36,1.32-.75.68-.39,1-.59,2.09-1.24c.36-.2.71-.42,1.07-.63l1.43-.85,1.45-.86c2.42-1.44,4.87-2.87,7.25-4.19l1.41-.77c5.17-2.77,9.86-4.83,13-4.82,7.48,0,22.51,26.48,30.42,27.23a61.07,61.07,0,0,0,10.32.13c.46,0,.91-.07,1.36-.12l.82-.06,1.92-.21.82-.09c.62-.08,1.22-.16,1.83-.22l1.45-.19,1.78-.21q.39-.06.78-.09.9-.11,1.8-.18h.12a43.3,43.3,0,0,1,9.63.11l.6.08c.8.12,1.62.26,2.46.44,1.26.26,2.57.6,4,1l.69.22,1.41.47c.55.2,1.1.4,1.67.63.36.13.71.27,1.08.43,1.34.54,2.73,1.17,4.2,1.88,13.24,6.42,23.53,16.79,33.94,25.66l1.89,1.6c1.58,1.32,3.18,2.59,4.78,3.8.64.49,1.29,1,1.94,1.42s1.3.92,1.95,1.36l2,1.29,1,.61c.67.4,1.35.79,2,1.17s1.37.73,2.06,1.07l1.05.5.92.41.58.25c.56.24,1.12.47,1.7.68l1.08.39c.74.25,1.47.49,2.22.7l.84.23,1.5.36c.76.17,1.52.31,2.29.43s1.56.23,2.36.31l.61.05.68,0,.48,0h0c1.2.08,2.64.16,4.27.23l2.3.09,1.18.05,4.09.13.93,0h.46l.9,0h.5l.89,0,3.37.07,1.71,0h2l2.4,0H346c7.64.11,15,.13,19.64.05h0l1.82,0h.4c.52,0,1,0,1.52,0l.48,0c.26,0,.51,0,.77,0l.71.06.58.07.62.07,1.23.2.69.14c.61.13,1.21.27,1.81.42s1,.28,1.51.44l.54.17.59.19c1.16.39,2.31.82,3.43,1.28l1.69.68,2.75,1.16,1.42.59a47.1,47.1,0,0,0,8.48,2.74c18.87,3.74,38.25,8.19,58.07,7.85,15.28-.26,27.58-5.08,40.47-10.51l4.41-1.86,2.53-1.06c1.27-.54,2.56-1.06,3.86-1.59s2.61-1.05,3.94-1.56a85.79,85.79,0,0,1,10-3.21l1.34-.33,1.52-.34c.61-.13,1.23-.26,1.84-.37.3-.06.61-.12.91-.16.9-.17,1.8-.32,2.69-.45l.89-.12c.59-.08,1.18-.16,1.76-.22,2-.24,4-.4,6-.53l2.7-.14,1.74-.08c.86,0,1.74-.07,2.62-.09l1.77-.05.88,0,1.8-.06,2.74-.09.92,0L554,349c1.26-.06,2.55-.13,3.87-.22l2-.14,2-.18,2.09-.2,2.15-.24,2.2-.29,2.27-.32q3.55-.56,7.14-1c.79-.11,1.59-.21,2.38-.3,1.27-.17,2.54-.32,3.81-.47,15.91-1.92,31.85-3.71,47.06-10.9,15.61-7.37,33.38-26,49.66-35.29l1-.58h0l1-.55h0l1-.52c.85-.42,1.69-.82,2.52-1.18l1-.42h0c.33-.13.65-.26,1-.38l.5-.19c.65-.24,1.31-.45,2-.64h0l.72-.2c.37-.09.74-.19,1.1-.26.17-.05.36-.08.54-.12l.54-.1,1-.15h0c.4-.06.81-.1,1.22-.13s.76-.06,1.13-.07l2.65-.05,2.59-.05h.63l3.44,0,3.33,0h.59l3.5,0h3.39l4.9,0,3.17,0,2.58-.05,1.27,0,1.26,0,2-.07,1,0q2.06-.09,4.08-.24c2.68-.2,5.31-.46,7.93-.82l2.53-.38c.85-.14,1.69-.29,2.53-.45,2.11-.4,4.22-.88,6.35-1.45l1.29-.35c.85-.24,1.71-.5,2.57-.77h0c1.3-.4,2.6-.85,3.92-1.33A119.94,119.94,0,0,0,784.38,278q2,6.3,3.83,12.69c.28.94.54,1.89.8,2.85.17.59.33,1.18.49,1.77q1.46,5.37,2.74,10.8h0q.59,2.49,1.14,5c.14.61.28,1.22.41,1.83.45,2.05.88,4.1,1.3,6.17q1.08,5.38,2,10.84,1.14,6.62,2,13.31c.47,3.52.91,7.06,1.28,10.61q1.77,16.54,2.11,33.51c0,1.49.06,3,.07,4.47C802.61,392.91,802.61,394,802.61,395.05Z" fill="#395b4c"/><path d="M793.38,311.1c-5.38,4.06-11.92,5.39-23.29,5.33-14.7-.07-40.67-2-50.34,8.79,11.77,10.07,7.1,17.45-3.3,23.13-13.77,7.51-37.58,12-46.66,15.79q-3.28,1.37-6.59,2.77c-11.91,5.09-23.89,10.54-35.8,16h0c-10,4.63-20,9.29-29.84,13.78-.54-15.83-5.23-23.91-12.73-27.82-10.9-5.69-27.74-2.6-46.4-1.75a65.34,65.34,0,0,0-12.3,1.75A72.63,72.63,0,0,0,519,371h0c-19.21,6.74-34.68,20.43-54.49,27.45.83-5,.86-10.8,2.88-15.26-43.54,8.31-83.51-10.62-126-12.56-21.75-1-47.66,12.8-67.5.39-14.21-8.88-30.07-27.3-41.4-39.92-1.06,6.09-1.74,12.22-5.2,17-15.77-11.12-46.63-37.39-65.79-37-8.8.18-25.2,9.42-34.48,12.28-16.07,4.93-19.27,4.42-34.52-2.14A201.26,201.26,0,0,0,63.62,311c.28-1.28.57-2.56.87-3.83a.64.64,0,0,0,0-.07c1-4.16,2-8.31,3.15-12.41.49-1.84,1-3.67,1.53-5.49q3.47-12.09,7.7-23.84c.88-2.41,1.77-4.82,2.68-7.21,1.56,1.65,3,3.36,4.48,5.09l1.82,2.22c.29.38.59.75.88,1.12.89,1.12,1.75,2.25,2.6,3.37s1.71,2.26,2.53,3.38c.44.58.87,1.17,1.3,1.75,3.7,5,7.25,9.78,11,13.9l.83.9c.14.15.29.3.42.45l.84.86c4.09,4.14,8.43,7.37,13.41,9l.52.16h0c.52.16,1,.3,1.57.43h0a25.08,25.08,0,0,0,2.64.47h.16a26.15,26.15,0,0,0,5,.07l.56-.06c.19,0,.38,0,.58-.07.42,0,.84-.1,1.27-.17s.84-.15,1.26-.24l.32-.07.33-.07c.19-.05.4-.09.61-.16l.64-.2c.3-.1.62-.22.94-.35l.49-.2c.38-.16.77-.33,1.17-.52l.41-.2c.18-.07.37-.17.56-.26l1.15-.58,1.21-.65,1.26-.68.64-.36,1.32-.75.68-.39,1-.59,2.09-1.24c.36-.2.71-.42,1.07-.63l1.43-.85,1.45-.86c2.42-1.44,4.87-2.87,7.25-4.19l1.41-.77c5.17-2.77,9.86-4.83,13-4.82,7.48,0,22.51,26.48,30.42,27.23a61.07,61.07,0,0,0,10.32.13c.46,0,.91-.07,1.36-.12l.82-.06,1.92-.21.82-.09c.62-.08,1.22-.16,1.83-.22l1.45-.19,1.78-.21q.39-.06.78-.09.9-.11,1.8-.18h.12a43.3,43.3,0,0,1,9.63.11l.6.08c.8.12,1.62.26,2.46.44,1.26.26,2.57.6,4,1l.69.22,1.41.47c.55.2,1.1.4,1.67.63.36.13.71.27,1.08.43,1.34.54,2.73,1.17,4.2,1.88,13.24,6.42,23.53,16.79,33.94,25.66l1.89,1.6c1.58,1.32,3.18,2.59,4.78,3.8.64.49,1.29,1,1.94,1.42s1.3.92,1.95,1.36l2,1.29,1,.61c.67.4,1.35.79,2,1.17s1.37.72,2.06,1.07l1.05.5.92.41.58.25c.56.24,1.12.47,1.7.68l1.08.39c.74.25,1.47.49,2.22.7l.84.23a40.94,40.94,0,0,0,6.15,1.09l.61.06.68,0,.48,0h0c1.2.08,2.64.16,4.27.23l2.3.09,1.18.05,4.09.13.93,0h.46l.9,0h.5l.89,0,3.37.07,1.71,0h2l2.4,0H346c7.64.11,15,.13,19.64.05h0l1.82,0h.41c.51,0,1,0,1.51,0l.48,0c.26,0,.51,0,.77,0l.71.06.58.07.62.07,1.23.2.69.14c.61.13,1.21.27,1.81.42s1,.28,1.51.44l.54.17.59.19c1.16.39,2.31.82,3.43,1.28l1.69.68,2.75,1.16,1.42.59a47.1,47.1,0,0,0,8.48,2.74c18.87,3.74,38.25,8.19,58.07,7.85,15.28-.26,27.58-5.08,40.47-10.51l4.41-1.86,2.53-1.06c1.27-.54,2.56-1.06,3.86-1.59l4-1.56a90.3,90.3,0,0,1,10-3.21l1.34-.33,1.52-.34c.61-.13,1.23-.26,1.84-.37.3-.06.61-.12.91-.16.9-.17,1.8-.31,2.69-.45l.89-.12c.59-.08,1.18-.16,1.76-.22,2-.24,4-.4,6-.53l2.7-.14,1.74-.08c.86,0,1.74-.07,2.62-.09l1.77-.05.88,0,1.8-.06,2.74-.09.92,0L554,349c1.26-.06,2.55-.13,3.87-.22l2-.14,2-.18,2.09-.2,2.15-.24,2.2-.29,2.27-.33q3.55-.54,7.14-1c.79-.11,1.59-.21,2.38-.3,1.27-.17,2.54-.32,3.81-.47,15.91-1.92,31.85-3.71,47.06-10.9,15.61-7.37,33.38-26,49.66-35.29l1-.58h0l1-.55h0l1-.52c.85-.42,1.69-.82,2.52-1.18l1-.42h0c.33-.13.65-.26,1-.38l.5-.19c.65-.24,1.31-.45,2-.64h0l.72-.2c.37-.09.74-.19,1.1-.26.17-.05.36-.08.54-.12l.54-.1,1-.15h0c.4-.06.81-.1,1.22-.13L697,294l2.65-.06,2.59-.05h.63l6.77-.07h.59l3.5,0h3.39l4.9,0,3.17,0,2.58-.05,1.27,0,1.26,0,2-.07,1,0q2.06-.09,4.08-.24c2.68-.2,5.31-.46,7.93-.82.84-.11,1.69-.25,2.53-.38s1.69-.29,2.53-.45c2.11-.4,4.22-.88,6.35-1.45l1.29-.35c.85-.24,1.71-.5,2.57-.77h0c1.3-.4,2.6-.85,3.92-1.33A119.94,119.94,0,0,0,784.38,278q2,6.3,3.83,12.69c.28.94.54,1.89.8,2.85.17.59.33,1.18.49,1.77q1.46,5.37,2.74,10.8h0Q792.83,308.61,793.38,311.1Z" fill="#4f7f68"/><path d="M60.73,159.62H342.35c1-1.88,1.52-3.93.23-5.76-4-5.71-16.78,2.52-20.57,4,.26-1.5.88-2.55,1.11-4.06-5.9-5.74-12.85-2-19,2.21,3.35-20.14-11.38-14.58-20.87-5.73-9.17-29.6-19.48-18.67-31.79,1.09-5.12-13.15-13.62-9.55-22.09-2.65-4.6-12.42-15-11.87-22.86-3-8.49-14.55-17.56-15.86-30-4.21-13.92-14.92-18.8-21.13-30.33-.38-9.82-11.15-35.54-28.79-32.85,1.56-7.26-2.59-38.1-14.17-28.76,7.54-5.12-.72-23.68-4.91-26.88,1.67C56.07,155.3,57.8,158,60.73,159.62Z" fill="#fff"/><path d="M446,226.82H634.8A3.47,3.47,0,0,0,635,223c-2.69-3.83-11.25,1.69-13.79,2.72.17-1,.59-1.72.74-2.73-3.95-3.84-8.61-1.34-12.76,1.48,2.25-13.5-7.62-9.77-14-3.84-6.15-19.84-13.06-12.51-21.31.74-3.43-8.82-9.13-6.41-14.81-1.78-3.08-8.33-10.07-8-15.32-2-5.7-9.76-11.77-10.64-20.09-2.83-9.33-10-12.6-14.16-20.33-.25-6.58-7.48-23.82-19.3-22,1-4.87-1.74-25.54-9.49-19.28,5.06-3.43-.49-15.87-3.29-18,1.12C442.9,223.93,444.06,225.7,446,226.82Z" fill="#fff"/><path d="M541.46,104.34H811.28c1-1.8,1.46-3.77.23-5.52-3.85-5.47-16.08,2.41-19.71,3.88.24-1.44.84-2.45,1.06-3.89-5.66-5.5-12.31-1.91-18.24,2.11,3.21-19.29-10.89-14-20-5.48-8.79-28.36-18.66-17.89-30.46,1-4.9-12.61-13-9.16-21.17-2.54-4.4-11.91-14.39-11.38-21.89-2.87-8.14-13.94-16.83-15.19-28.71-4-13.34-14.3-18-20.25-29.07-.37-9.4-10.69-34.05-27.59-31.47,1.49-7-2.48-36.5-13.57-27.55,7.23-4.91-.69-22.69-4.7-25.76,1.6C537,100.2,538.65,102.74,541.46,104.34Z" fill="#fff"/><path d="M772.68,518.37c106.52,63-108.19,117.49-108.19,117.49-215.16,59.43-384.24,13.78-384.24,13.78C66.67,626.42,73.17,562.35,73.17,562.35s-12.46-63.72,80.49-53.83c0,0,13.26-1.75,43.77,5.14,0,0,39.08,9.57,66.19,2.31a101.9,101.9,0,0,1,13.29-2.69L296,510.81s29.86-5.38,72.91.53c0,0,57.16,10.2,87.15,5.22a406.58,406.58,0,0,0,44.47-6.68s19.74-6.07,53.4-.95c0,0,15.54,2.73,27.5,6.14,0,0,33.52,10.46,86.7-4.33C668.16,510.74,726.25,490.93,772.68,518.37Z" fill="#97e9ff"/><path d="M462.64,362.17c-111-61.82-275.25-84.72-275.25-84.72,179,31.62,270,87.59,270,87.59l9.31,3.89,1-2.72,1.91-2.49Z" fill="#8c4826"/><path d="M494.89,368.21H494a1,1,0,0,0-1,1.09l.46,4h3.59Z" fill="#f48225" data-secondary="true"/><path d="M478,382.76a41.61,41.61,0,0,0-10.27.87,14.17,14.17,0,0,1-4.05.42c-2.58-.12-5.62-1-4.36-4.8,0,0-4.63-1.12-2.71-4.79,0,0-3.17-1.91-.47-4.15,0,0-3.35-2-1.42-4.12a3.63,3.63,0,0,1,2.72-1.15h6.67s3.83-.32,1.12-1.6l-2.56-1.27s7-1.76,11.66,2.23l7,5v3.55l-1.93,9.52Z" fill="#f9ad9b"/><path d="M456.11,370.31a8.39,8.39,0,0,1,5.42,0,8.39,8.39,0,0,1-5.42,0Z" fill="#f29981"/><path d="M456.58,374.46a12.11,12.11,0,0,1,6.54,0,12.11,12.11,0,0,1-6.54,0Z" fill="#f29981"/><path d="M464.24,379.57a6.38,6.38,0,0,1-2.5.29,6.19,6.19,0,0,1-2.45-.61,7,7,0,0,1,4.95.32Z" fill="#f29981"/><path d="M481.17,387.64s-3,.25-3.2-6.06c0,0,1-17.78,7-11.17l2.91,6.48Z" fill="#f48225" data-secondary="true"/><path d="M538.65,389.86s9.94-.27,24.21,4.05l18.6,9.67-4.33,2.29-12.45,6.38-38.54-11.81,9.69-12.8Z" fill="#f48225" data-secondary="true"/><path d="M538.65,389.86s9.94-.27,24.21,4.05l18.6,9.67-4.33,2.29-12.45,6.38-38.54-11.81,9.69-12.8Z" opacity="0.2"/><path d="M495,371.87s-2.18-5,3.06-5.24h16.68a2.48,2.48,0,0,0,2.13-1.2,67.51,67.51,0,0,1,5-7.3s3.34-6.89,3.87-10.47l11.45,2.62s-13.78,33.8-14,34.46S495,371.87,495,371.87Z" fill="#686175" data-primary="true"/><path d="M555.29,367.47s11.32,20.17,24.38,18.79l25.24-4.68s14.54-2.5,18.87-5.06c0,0-7.65-51.23-50-78.5,0,0-9.45-6.6-11.61-2.27,0,0-16.88,7-31.71,34.68Z" fill="#686175" data-primary="true"/><path d="M510.12,294.51a3.44,3.44,0,0,0,.56,2,2.76,2.76,0,0,1,.29,2c-.51,2.11-1.11,6.52,3,6.08l7.17,7.75s4.66,7.56,10.09,1.55c0,0,4.45-5.43,6.2-3.68,0,0,9.1-13,17.83-19.16l-2.13-3.14L541.34,272.4l-21.91-3.68Z" fill="#f9ad9b"/><path d="M510.12,294.51s1,3.87-2.13,3.49c0,0-11.82-1.36-11.82-16.68a36.9,36.9,0,0,1,1.93-11.44s8.15-22.68,16.87-18c0,0,2.91,1.17,4.85-2.9,0,0,5.62-7.95,11-2.72,0,0,12-1.35,19.77,8,0,0,6.59,8.53,4.07,18,0,0-1.74,13,0,15.32,0,0-8,2.77-14.65-.85l-6.59-2.43a9.89,9.89,0,0,0-8.58-5.17.54.54,0,0,0-.39.91c.88.92,1.51,2.53-2.16,4.05,0,0,3.87,2.13-2.91,4.65a15.8,15.8,0,0,1-6.61,2,.35.35,0,0,0-.17.63C513.68,292.06,514.43,293.28,510.12,294.51Z" fill="#7a383a"/><path d="M522.34,284a7.3,7.3,0,0,1-2.62.45,6.92,6.92,0,0,1-2.62-.45,7.69,7.69,0,0,1,5.24,0Z" opacity="0.2"/><path d="M510.12,294.51a6.78,6.78,0,0,1-3-.3,7.74,7.74,0,0,1-2.69-1.45,7.9,7.9,0,0,1-1.93-2.38,8.57,8.57,0,0,1-.6-1.39,10.9,10.9,0,0,1-.32-1.46c.27.42.47.87.73,1.28a13.8,13.8,0,0,0,.79,1.2,10.64,10.64,0,0,0,1.91,2.05A12.42,12.42,0,0,0,510.12,294.51Z" opacity="0.2"/><path d="M502.56,283.07a16.18,16.18,0,0,0,4.44,4.69,22.11,22.11,0,0,0,2.79,1.63c.48.26,1,.45,1.49.69s1,.4,1.54.64c-.56-.05-1.12-.12-1.67-.22a11.62,11.62,0,0,1-1.63-.46,12.6,12.6,0,0,1-3-1.54,12.07,12.07,0,0,1-2.46-2.38A7.9,7.9,0,0,1,502.56,283.07Z" opacity="0.2"/><path d="M517.1,376.89s-1.25-4.8,2.62-11.78c0,0,5.95-8.51,6-17.45,0,0,2.89-31.19,23.18-26.61,0,0,14.74,4.33,16.89,17.24a18.45,18.45,0,0,1-1.3,10.13c-3,7.15-11.25,25.57-20.61,35.45l-10.66,12.21-1.62,1.31a18.39,18.39,0,0,0-21.49,3.05l-22.5-7.85s-11.13-1.74-5.89-16.14c0,0,2.8-10.24,12.65-5.89Z" fill="#686175" data-primary="true"/><path d="M517.1,376.89s-1.25-4.8,2.62-11.78c0,0,5.95-8.51,6-17.45,0,0,2.89-31.19,23.18-26.61,0,0,14.74,4.33,16.89,17.24a18.45,18.45,0,0,1-1.3,10.13c-3,7.15-11.25,25.57-20.61,35.45l-10.66,12.21-1.62,1.31a18.39,18.39,0,0,0-21.49,3.05l-22.5-7.85s-11.13-1.74-5.89-16.14c0,0,2.8-10.24,12.65-5.89Z" opacity="0.2"/><path d="M517.1,376.89c1,1.6,2,3.19,3,4.74.49.78,1,1.54,1.53,2.31s1.06,1.52,1.58,2.32a14.46,14.46,0,0,1-3.87-4.15A17.74,17.74,0,0,1,518,379.6,12.76,12.76,0,0,1,517.1,376.89Z" opacity="0.2"/><path d="M564.68,405.62s15.25,5.35,28,21.41" fill="none" stroke="#ed1c24" stroke-miterlimit="10"/><path d="M603.13,427s-21.07-19.31-35.13-20" fill="none" stroke="#ed1c24" stroke-miterlimit="10"/><path d="M614.6,405.62s-23.26,5.79-40.56,2.64" fill="none" stroke="#ed1c24" stroke-miterlimit="10"/><path d="M515.87,420.66s3.39,11,10.27,13.51l7.14,4.33" fill="none" stroke="#ed1c24" stroke-miterlimit="10"/><path d="M626.84,374.26c1.27-3.82-4.2-3-4.2-3l1.14,5.23A10.74,10.74,0,0,0,626.84,374.26Z" fill="#f48225" data-secondary="true"/><path d="M626.84,374.26c1.27-3.82-4.2-3-4.2-3l1.14,5.23A10.74,10.74,0,0,0,626.84,374.26Z" opacity="0.2"/><path d="M180.46,498.68l3.24-161.95s.44-42.23,3.69-59.28" fill="none" stroke="#fff" stroke-miterlimit="10" stroke-width="0.75"/><path d="M189.86,537.89a37.16,37.16,0,0,1,7.45-3.26,60.84,60.84,0,0,1,7.9-2,81.26,81.26,0,0,1,16.26-1.17l4.08.16,4.07.41,2,.21c.68.08,1.34.21,2,.32l4,.66c2.68.49,5.32,1.16,8,1.73l7.86,2.24h.05a138.22,138.22,0,0,0,17,5,150.37,150.37,0,0,0,17.51,3,125.1,125.1,0,0,0,35.37-.73l2.18-.35c.73-.13,1.44-.32,2.16-.48l4.3-1,1.07-.25c.32-.08.71-.21,1-.32l2.15-.66,4.29-1.29q8.59-2.52,17.31-4.66c5.81-1.42,11.66-2.68,17.58-3.63,3-.47,5.94-.86,8.95-1.06a37.74,37.74,0,0,1,9.12.29l-.15,0a89.94,89.94,0,0,1,18.53,2.42,76.13,76.13,0,0,1,8.94,2.7,68.25,68.25,0,0,0,8.92,2.17,89.77,89.77,0,0,0,18.37,1.5,76.56,76.56,0,0,0,18.3-2.56,73,73,0,0,1-18.28,3.12,90.28,90.28,0,0,1-18.57-1,71.07,71.07,0,0,1-9.12-2.08,73.72,73.72,0,0,0-8.85-2.52,87,87,0,0,0-18.22-2.1h-.07l-.08,0a39.63,39.63,0,0,0-8.72-.16c-2.93.22-5.87.62-8.79,1.1-5.85,1-11.65,2.25-17.42,3.69s-11.5,3-17.2,4.73l-4.27,1.3-2.12.67c-.37.11-.68.23-1.08.34l-1.11.26-4.4,1c-.74.16-1.47.36-2.21.49l-2.23.34a127.1,127.1,0,0,1-35.91.56,151.27,151.27,0,0,1-17.69-3.14l-2.19-.51-2.17-.59c-1.45-.38-2.89-.8-4.32-1.24-2.87-.87-5.7-1.81-8.52-2.93l0,0-7.75-2.33c-2.63-.61-5.23-1.31-7.88-1.84l-4-.72c-.66-.11-1.32-.25-2-.34l-2-.24-4-.47-4-.25a80.79,80.79,0,0,0-16.15.74,63,63,0,0,0-7.9,1.77A37.28,37.28,0,0,0,189.86,537.89Z" fill="#1fbdc8"/><path d="M526.33,535.73a96.08,96.08,0,0,1,16.58,1.34,81.24,81.24,0,0,1,8.17,1.73c2.71.67,5.36,1.55,8,2.47h0l.06,0a79.28,79.28,0,0,0,15.63,4.9,91.36,91.36,0,0,0,16.3,2,102.28,102.28,0,0,0,16.41-.75c2.73-.25,5.41-.85,8.11-1.33,1.36-.21,2.67-.63,4-1l4-1-.15.05a70.59,70.59,0,0,1,13.09-4.5,89.27,89.27,0,0,1,13.58-2.25c1.14-.14,2.28-.19,3.43-.24s2.29-.16,3.44-.14c2.29,0,4.58,0,6.86.22s4.56.42,6.82.71c1.14.11,2.26.36,3.38.58l3.35.67A101.54,101.54,0,0,0,663.8,538a96,96,0,0,0-13.57.65,88.44,88.44,0,0,0-13.31,2.6,76.12,76.12,0,0,0-12.68,4.54l-.09,0-.06,0-4,1.08c-1.36.35-2.69.78-4.07,1-2.74.52-5.47,1.15-8.26,1.43a90,90,0,0,1-16.73.72,93.7,93.7,0,0,1-16.59-2.21,71.12,71.12,0,0,1-15.88-5.37l.06,0c-2.56-1-5.15-1.92-7.8-2.66s-5.32-1.42-8-2-5.43-1-8.17-1.4S529.1,535.86,526.33,535.73Z" fill="#1fbdc8"/><path d="M385.84,581.23c2.47,0,5,0,7.41-.17s4.93-.36,7.37-.7a73.06,73.06,0,0,0,7.22-1.41,38.33,38.33,0,0,0,6.86-2.46l0,0h0a104.14,104.14,0,0,1,30.17-6.11c1.29,0,2.58-.13,3.87-.12l3.88,0,3.87.27c1.29.06,2.57.33,3.85.48.64.09,1.29.17,1.92.29l1.91.43c1.25.29,2.58.55,3.76.92,2.44.68,4.91,1.29,7.39,1.85,4.95,1.12,10,2,15,2.68a128.29,128.29,0,0,0,15.17,1.18,73.74,73.74,0,0,0,15.12-1.3,44.08,44.08,0,0,0,7.27-2.19,32.17,32.17,0,0,0,6.64-3.73,30.12,30.12,0,0,1-6.46,4.14,44.16,44.16,0,0,1-7.27,2.56,67.4,67.4,0,0,1-15.3,1.84A133.73,133.73,0,0,1,475,576.34c-2.51-.54-5-1.13-7.5-1.8-1.26-.38-2.44-.59-3.68-.87l-1.84-.39c-.61-.11-1.24-.18-1.86-.28-1.25-.16-2.48-.43-3.74-.5l-3.77-.3-3.79-.09c-1.26,0-2.52.06-3.78.08A103.39,103.39,0,0,0,429.93,574a107.12,107.12,0,0,0-14.72,3.71l.05,0A40.25,40.25,0,0,1,408.1,580a61.93,61.93,0,0,1-7.39,1.13c-2.48.23-5,.33-7.44.36S388.31,581.43,385.84,581.23Z" fill="#1fbdc8"/><ellipse cx="537.17" cy="283.07" rx="3.78" ry="5.62" fill="#f9ad9b"/><path d="M562.2,295.75a11.4,11.4,0,0,0-3.93-4.93,4.15,4.15,0,0,0-4.78.38c-8.71,7.1-16,19-16,19-9.28,12.8-7,20.22-7,20.22S543.41,305.66,562.2,295.75Z" fill="#686175" data-primary="true"/><path d="M604.91,381.58s-13.51-71.25-58.69-73.18L541,314.21a8.14,8.14,0,0,1,2.77-6.43,13.83,13.83,0,0,0,2-2.36c1.17-1.76,3.64-4.58,6.89-3.31,0,0,43.34,6.36,60.91,77.4,0,0,10.48-1.68,13.29-5.25,0,0,9.43,65.77-3.06,71.38l-72.4,2-18.1-9.18s-.48,7.14-2.79,9.18H499.12s2-30.33,4.33-37.73c0,0,1.85-8.06,6.66-9.51,0,0,8.35-9.24,21.49-3.05a216.91,216.91,0,0,1,33.08,8.23,12.27,12.27,0,0,0,.41-2.13,6.87,6.87,0,0,0-1.38-5,5,5,0,0,1-.1-6.16s1.79-2.05-2.54-4.72c0,0-7-7.64-9-14.72l3.22-5.45s11.64,19.83,24.38,18.79Z" fill="#f48225" data-secondary="true"/><path d="M369.93,444.64a13.09,13.09,0,0,0,4.47,1.78c1.57.21,3.28-.34,3.78-1.65s-.4-3.12.17-4.47,2.09-1.75,2.72-2.91.08-2.9-1-4.08a14.32,14.32,0,0,0-4-2.71C374.31,435.34,372.05,440.05,369.93,444.64Z" fill="#f48225" data-secondary="true"/><path d="M376.2,429.16a6.68,6.68,0,0,0,3.33-.75,2.92,2.92,0,0,0,1.52-2.86,3.39,3.39,0,0,0-1.63-2.11c-.77-.5-1.63-.83-2.39-1.34A23.43,23.43,0,0,0,376.2,429.16Z" fill="#f48225" data-secondary="true"/><path d="M359.56,422.92c-1.41-.71-3.52-1.76-5.17-1.29s-3,2.59-3.67,4c-1.38,3.12-.94,7.7,1.44,10.24l-.11,1.29A118.17,118.17,0,0,0,359.56,422.92Z" fill="#f48225" data-secondary="true"/><path d="M384.17,411a5.9,5.9,0,0,0,1.66-3.23,2.51,2.51,0,0,0-1.9-2.76c-1.06-.13-2.07.66-3.14.58-1.47-.13-2.25-1.72-3-3a6.36,6.36,0,0,0-2.58-2.73,3.14,3.14,0,0,0-3.55.38,4.44,4.44,0,0,0-1,2.43,23.8,23.8,0,0,0,.67,10.9c.4,1.31,1,4.24,2.56,4.08s3.81-1.47,5.25-2.37A21.56,21.56,0,0,0,384.17,411Z" fill="#f48225" data-secondary="true"/><path d="M354.42,451.61l-1.12,2.2a27.09,27.09,0,0,1,.57-24.31c4.75-8.92,12.94-13.94,18.06-16.36a4,4,0,0,1,5.69,3c1,5.79,1.7,15.85-2.91,24.5-6.6,12.38-15.13,14.3-19.89,14.64Z" fill="#1cbcd6"/><path d="M355,433.62a13,13,0,0,0,4.66-1.16c1.4-.75,2.47-2.19,2.11-3.54s-2.15-2.3-2.47-3.74.67-2.63.5-3.94-1.63-2.41-3.18-2.73a14.16,14.16,0,0,0-4.81.11C353.14,423.51,354.06,428.66,355,433.62Z" fill="#f48225" data-secondary="true"/><path d="M353.67,418.72a6.59,6.59,0,0,0,2-2.73,2.92,2.92,0,0,0-.72-3.16,3.4,3.4,0,0,0-2.61-.54c-.9.13-1.77.43-2.68.54A23.19,23.19,0,0,0,353.67,418.72Z" fill="#f48225" data-secondary="true"/><path d="M333.92,422c-1.57.25-3.89.63-4.95,2s-1,3.88-.64,5.4c.7,3.35,3.73,6.81,7.15,7.48l.66,1.11A119.43,119.43,0,0,0,333.92,422Z" fill="#f48225" data-secondary="true"/><path d="M332.52,405.27A6,6,0,0,1,331,402a2.51,2.51,0,0,1,2-2.7c1.07-.1,2.05.72,3.12.67,1.47-.08,2.3-1.65,3.06-2.91a6.41,6.41,0,0,1,2.65-2.66,3.14,3.14,0,0,1,3.54.49,4.43,4.43,0,0,1,.94,2.46,23.86,23.86,0,0,1-1,10.87c-.43,1.3-1.08,4.21-2.67,4s-3.77-1.59-5.18-2.53A21.85,21.85,0,0,1,332.52,405.27Z" fill="#f48225" data-secondary="true"/><path d="M346.48,448.34l.38,2.43a27.06,27.06,0,0,1-13.73-20.06c-1.35-10,2.37-18.88,5.13-23.83a4,4,0,0,1,6.34-.92c4.19,4.12,10.63,11.88,11.93,21.6,1.87,13.9-3.93,20.44-7.6,23.49Z" fill="#67bcd6"/><polygon points="377.06 478.81 331.15 478.81 325.78 425.62 382.43 425.62 377.06 478.81" fill="#2a6e87"/><circle cx="336.39" cy="434.63" r="2.33" fill="#2a2d5a"/><circle cx="371.81" cy="434.63" r="2.33" fill="#2a2d5a"/><path d="M354.1,464.1a19,19,0,0,1-19-19V434.86a1.25,1.25,0,0,1,2.5,0v10.27a16.46,16.46,0,1,0,32.92,0V434.86a1.26,1.26,0,0,1,2.51,0v10.27A19,19,0,0,1,354.1,464.1Z" fill="#7fa8b7"/><path d="M743.25,439.12c-.35,3.9-1.39,7.34-4,7.34L686,445.54s-.89-4.34-4.58-2.75c0,0,.25-1.57.71-3.9,1.28-6.62,4.23-19.35,7.82-19.18,0,0,26-4.15,47.95-1.15,0,0,5.53-.69,5.07,9.46A61,61,0,0,1,743.25,439.12Z" fill="#cf8046"/><path d="M743.25,439.12c-.35,3.9-1.39,7.34-4,7.34L686,445.54s-.89-4.34-4.58-2.75c0,0,.25-1.57.71-3.9C690.91,440.53,720.63,445.26,743.25,439.12Z" fill="#8c4826"/><path d="M682.64,471l1.05,25.51c-.71,7.15,3.71,7.38,3.71,7.38l6,1.15c6,.93,7.84-6.68,7.84-6.68,6.91-11.07,17.29-51.87,17.29-51.87L686,445.54S687.77,451.86,682.64,471Z" fill="#8c4826"/><path d="M682.64,471.88l1.05,25.51c-.71,7.15,3.71,7.38,3.71,7.38l6,1.15c6,.93,7.84-6.68,7.84-6.68,6.91-11.07,17.29-51.88,17.29-51.88L686,446.45S687.77,452.77,682.64,471.88Z" opacity="0.2"/><path d="M685.45,458.06s-.64,3.32-1.76,8.32c-1.41,6.31-3.58,15.31-6.18,23.69-2.76,8.85-6,17-9.35,20.67,0,0-46.81,13.76-86.7,4.33,0,0-48.07-15.4-86.89-3.8l-32.81,5.11s-45.47,4.18-74.26-2.79l-27.86-3.25c-37.5-5.1-63.61.47-63.61.47-4.12-2.48-11.88-11.77-20.17-22.74-5.82-7.69-11.9-16.19-17.17-23.74-8.39-12-14.74-21.6-14.74-21.6s-3.54-4.72-1.57-8.65c0,0,54.64,9,108.5,8.65l105.23,3.14,74.38,1.81,93.29-2,58.92-2.91s3.32-1.33,3.65,5.49A45.33,45.33,0,0,1,685.45,458.06Z" fill="#cf8046"/><path d="M683.69,466.38c-1.41,6.31-3.58,15.31-6.18,23.69-39.69,3.64-154.34,4-154.34,4-51.45,2.09-188.54-3.75-188.54-3.75-35.25-1.84-51.39-2.27-58.77-2.27-5.82-7.69-11.9-16.19-17.17-23.74C295.31,466.82,513.41,480.51,683.69,466.38Z" fill="#8c4826"/><path d="M686.35,448.22c-63.77,4.26-140.13,5.48-140.13,5.48l-132.06-.51-99.94-3.85c-42.78-1.41-70.27-6.61-70.27-6.61s-3.54-4.72-1.57-8.65c0,0,54.64,9,108.5,8.65l105.23,3.14,74.38,1.81,93.29-2,58.92-2.91S686,441.4,686.35,448.22Z" fill="#8c4826"/><path d="M99.89,514.33a77.47,77.47,0,0,1,8.58-2.54l2.18-.53,2.19-.45,2.19-.46,2.21-.38c2.94-.55,5.9-.91,8.87-1.3,1.48-.18,3-.29,4.46-.44s3-.3,4.46-.35a212.2,212.2,0,0,1,35.82.89l4.45.52c1.49.17,3,.33,4.45.59l8.85,1.44,8.78,1.84c2.94.62,5.82,1.26,8.76,1.77a187.38,187.38,0,0,0,35.52,3,105.44,105.44,0,0,0,17.66-1.81l4.33-1q2.18-.57,4.38-1c2.93-.66,5.9-1.18,8.89-1.56l17.71-2.38c1.47-.16,2.95-.49,4.44-.69s3-.41,4.47-.6c3-.32,6-.61,9-.78,23.95-1.45,47.94.6,71.58,4.18h0l.09,0a157.84,157.84,0,0,0,27.32,4,261.69,261.69,0,0,0,27.73.36l3.46-.12c1.16-.05,2.31-.14,3.47-.21,2.31-.15,4.62-.26,6.92-.45,4.61-.43,9.23-.79,13.81-1.4,2.29-.3,4.59-.5,6.89-.88l6.87-1.06,13.76-2.13-.15,0A107.65,107.65,0,0,1,512,506.66a95.41,95.41,0,0,1,18.11-.6c6,.18,12,.6,18,1.24,3,.33,6,.74,9,1.26,1.49.24,3,.57,4.43.85s3,.57,4.43.89c2.95.62,5.88,1.31,8.79,2.05,1.46.37,2.92.76,4.37,1.17l2.17.62c.7.21,1.4.36,2.13.53,2.89.64,5.84,1.14,8.79,1.53,1.47.23,3,.36,4.44.55s3,.28,4.46.39a175.2,175.2,0,0,0,17.9.38c6-.2,11.92-.68,17.87-1.4A205.42,205.42,0,0,0,672,509.06a167.87,167.87,0,0,1,35.54-5.89,126.84,126.84,0,0,1,35.82,3.08,102.53,102.53,0,0,1,32.86,14.31,102,102,0,0,0-33-13.91A125.83,125.83,0,0,0,707.63,504a173.12,173.12,0,0,0-35.29,6.16,207.58,207.58,0,0,1-35.28,7.33c-6,.75-12,1.28-18,1.51a172.94,172.94,0,0,1-18.07-.26c-1.5-.1-3-.25-4.5-.37s-3-.3-4.5-.52c-3-.38-6-.86-8.94-1.52-.73-.16-1.49-.33-2.23-.55l-2.16-.61c-1.44-.4-2.88-.78-4.33-1.15-2.89-.73-5.81-1.4-8.73-2-1.46-.31-2.92-.6-4.39-.87s-2.94-.6-4.41-.84c-2.93-.5-5.89-.89-8.85-1.22q-8.91-.94-17.89-1.19a92.06,92.06,0,0,0-17.8.63,105.42,105.42,0,0,0-17.41,3.67l-.09,0h-.06L481,514.36l-6.88,1.08c-2.29.38-4.62.6-6.93.9-4.62.63-9.26,1-13.89,1.44-2.32.2-4.64.31-7,.47s-4.65.27-7,.33a263.08,263.08,0,0,1-27.94-.42,159.47,159.47,0,0,1-27.71-4.08l.12,0c-23.53-3.61-47.41-5.7-71.18-4.31-3,.17-5.93.44-8.88.76-1.47.18-2.94.35-4.41.58s-2.91.51-4.4.68l-17.81,2.28c-2.94.35-5.86.85-8.76,1.47-1.44.31-2.89.66-4.33,1l-4.41,1a107,107,0,0,1-17.93,1.72A188.66,188.66,0,0,1,205.94,516c-2.94-.52-5.89-1.2-8.79-1.83l-8.73-1.89-8.81-1.52c-1.46-.29-2.94-.45-4.42-.65l-4.43-.56a210.84,210.84,0,0,0-35.7-1.3c-1.49,0-3,.19-4.46.31s-3,.22-4.46.38c-3,.36-5.93.69-8.87,1.2l-2.21.36-2.19.42-2.2.43-2.18.51A75.23,75.23,0,0,0,99.89,514.33Z" fill="#1fbdc8"/><path d="M186.35,508.53c0,5.44-3.31,9.84-7.39,9.84s-7.4-4.4-7.4-9.84a11.87,11.87,0,0,1,1.85-6.51,6.76,6.76,0,0,1,5.55-3.34c2.42,0,4.57,1.55,5.92,3.95h0A12.12,12.12,0,0,1,186.35,508.53Z" fill="#686175" data-primary="true"/><path d="M184.88,502.63h0a8.5,8.5,0,0,1-5.4,1.88,8.33,8.33,0,0,1-6.07-2.5,6.76,6.76,0,0,1,5.55-3.34C181.38,498.68,183.53,500.23,184.88,502.63Z" fill="#f48225" data-secondary="true"/><path d="M743.39,558.55c0,.74-.07,1.48-.13,2.21a28.64,28.64,0,0,1-.77,4.66h0a10.07,10.07,0,0,1-.76,2.1,3.24,3.24,0,0,1-.44.67c-2.42,2.75-9.25,1.21-15.2-3.42v-.51l0-1.73-.06-3.81,0-1.22.47-.39c2-1.65,9.93-8,13.85-7.87,1.36,0,2.2,1.51,2.67,3.63a19.17,19.17,0,0,1,.32,2.19A30.57,30.57,0,0,1,743.39,558.55Z" fill="#0b477d"/><path d="M743.29,555.07l-16.11,4.13a1,1,0,0,1-1.18-.47,1.06,1.06,0,0,1,.45-1.61l.14,0L743,552.88A19.17,19.17,0,0,1,743.29,555.07Z" fill="#296091"/><path d="M743.39,558.55c0,.74-.07,1.48-.13,2.21-5.28.53-10.57.93-15.85,1.47-1.41.15-1.39-2.06,0-2.2C732.73,559.49,738.06,559.08,743.39,558.55Z" fill="#296091"/><path d="M741.73,567.53a109.1,109.1,0,0,1-15.28-3.08,1.16,1.16,0,0,1-.37-.18,1.14,1.14,0,0,1,0-1.73,1,1,0,0,1,1-.22,104.1,104.1,0,0,0,15.45,3.1Z" fill="#296091"/><path d="M722.9,543.85l-5.54.07h-.87l-21.68.25c2.75-5.72,7.27-9.47,8.81-10a30.23,30.23,0,0,1,8.3-.72c.9,0,1.82.09,2.77.2a26.13,26.13,0,0,1,4.44.91,18.6,18.6,0,0,1,2.09.74h0c.45.19.89.4,1.33.63a4.57,4.57,0,0,1,1.57,1.34,4.45,4.45,0,0,1,.71,1.47A4.58,4.58,0,0,1,722.9,543.85Z" fill="#0b477d"/><path d="M720.05,578.72a15.37,15.37,0,0,1-1.72.87,15.75,15.75,0,0,1-3.58,1,10.8,10.8,0,0,1-2.66.13,13.94,13.94,0,0,1-3-.58h0c-5-1.52-9.47-5.55-12-8.36l8.37-4.85s14.21-4,18.18,1.33C726.44,572.15,724.2,576.29,720.05,578.72Z" fill="#0b477d"/><path d="M712.09,580.77a13.94,13.94,0,0,1-3-.58h0a28.2,28.2,0,0,1-5-6.87c-.49-.94.94-1.77,1.43-.83A26.88,26.88,0,0,0,712.09,580.77Z" fill="#296091"/><path d="M720.05,578.72a15.37,15.37,0,0,1-1.72.87,53.3,53.3,0,0,1-7-5.41c-.79-.71.39-1.88,1.17-1.16A52.61,52.61,0,0,0,720.05,578.72Z" fill="#296091"/><path d="M714.69,533.64a121.24,121.24,0,0,0-11.6,8.13c-.83.66-2-.51-1.17-1.17q4.83-3.83,10-7.16C712.82,533.47,713.74,533.53,714.69,533.64Z" fill="#296091"/><path d="M721.22,535.29a50,50,0,0,0-9.2,6.15c-.8.69-2-.48-1.16-1.16a50.41,50.41,0,0,1,8.27-5.73A18.6,18.6,0,0,1,721.22,535.29Z" fill="#296091"/><path d="M724.83,538.73a30.2,30.2,0,0,0-7.36,5.1l-.11.09a.79.79,0,0,1-.87,0,.77.77,0,0,1-.18-1.27,31.88,31.88,0,0,1,7.81-5.4A4.45,4.45,0,0,1,724.83,538.73Z" fill="#296091"/><path d="M718.6,573.78a20.65,20.65,0,0,1-2.49.6,28.21,28.21,0,0,1-4.64.39H711c-.55,0-1.08,0-1.6,0a36.8,36.8,0,0,1-8.7-1.25c-.68-.19-1.33-.41-1.93-.64-8-3-9.84-8.94-9.95-13.49-.12-5.44,1.82-16.2,13.78-19.56a20.1,20.1,0,0,1,2-.48,30.17,30.17,0,0,1,4.61-.52c.66,0,1.32,0,1.94,0s1.45,0,2.13.11a21.26,21.26,0,0,1,5.32,1.09,14.53,14.53,0,0,1,2,.86c7.1,3.67,7.75,11.29,8,15S729.36,570.43,718.6,573.78Z" fill="#fad44b"/><path d="M689.6,554.43a4.59,4.59,0,0,1-3,2.25c-1.14.28-2.3.24-3.45.42a2,2,0,0,0-1.74,1.19,2.91,2.91,0,0,0,.33,2.52,3.18,3.18,0,0,0,1.71,1.19,15.65,15.65,0,0,0,6.64,0C689.77,559.47,689.82,557,689.6,554.43Z" fill="#fad44b"/><path d="M691.78,567.33a6.39,6.39,0,0,0-2.8-2,32.35,32.35,0,0,0-3.35-1c-.14,0-.32-.14-.29-.28s.13-.13.21-.18a9.1,9.1,0,0,1,3.69-1.65C691.27,562.62,691.89,565.11,691.78,567.33Z" fill="#fad44b"/><path d="M696.09,554.76a3.76,3.76,0,1,0,7.52.11c.06-1.42-2.14-1.42-2.2,0a1.56,1.56,0,1,1-3.12-.11,1.1,1.1,0,0,0-2.2,0Z" fill="#2a2d5a"/><path d="M722.73,568.86a36.43,36.43,0,0,0-3.87,4.44c-.09.14-.17.31-.26.48a20.65,20.65,0,0,1-2.49.6c0-.13.08-.26.13-.39,1.63-4.56,6.61-6.51,7.32-11.59,1.09-7.77-5.38-14.93-4.89-22.44a14.53,14.53,0,0,1,2,.86c-.15,6.15,4.44,12.57,5,18.55A12.4,12.4,0,0,1,722.73,568.86Z" fill="#fff"/><path d="M715.41,562.28a8.71,8.71,0,0,1,1,4.22,7.38,7.38,0,0,1-2,4.07c-.94,1.12-2.61,2.57-2.9,4.2H711c-.55,0-1.08,0-1.6,0,.34-2.57,2.86-4.42,4.25-6.71s.06-4.17-.75-6.32a6.54,6.54,0,0,1-.07-5c.84-2.09,2.63-3.66,2.76-6.07.14-2.64-1.22-5.15-2.39-7.37a29.75,29.75,0,0,1-2-4.51c.74,0,1.45,0,2.13.11,1,2.52,2.67,5,3.5,7.26,1.35,3.74.77,6.6-1.23,9.84C714.19,558.29,714.37,559.8,715.41,562.28Z" fill="#fff"/><path d="M711.05,555.3c-.45,3.69-2.9,6.57-5.22,9.13-2.18,2.39-5.05,5.54-5.09,9.05-.68-.19-1.33-.41-1.93-.64a12.56,12.56,0,0,1,2.35-6.14c2.53-3.61,6.71-6.38,7.75-11,1.2-5.33-3.47-9.6-5.5-13.91a16.17,16.17,0,0,1-.77-2,20.1,20.1,0,0,1,2-.48,27.65,27.65,0,0,0,2.93,5.49C709.57,547.9,711.53,551.37,711.05,555.3Z" fill="#fff"/><path d="M236.3,574a19.09,19.09,0,0,0-.76-6.89c-.81-2.15-2.66-3.94-4.67-3.69s-3.7,2.62-5.81,2.81c-1.91.17-3.64-1.47-5.55-1.48s-3.74,1.87-4.51,4a20.63,20.63,0,0,0-.75,6.9C221.49,574.7,229,574.38,236.3,574Z" fill="#0a4883"/><path d="M212.34,576.49a9.69,9.69,0,0,0-3.21-3.73,4.2,4.2,0,0,0-4.67,0,4.88,4.88,0,0,0-1.58,3.5c-.11,1.31,0,2.64-.08,4A33.54,33.54,0,0,0,212.34,576.49Z" fill="#0a4883"/><path d="M215.69,601.9c.05,2.28.14,5.68,1.86,7.46s5.36,2.11,7.6,1.94c4.92-.36,10.44-4,12.07-8.78l1.7-.73A171.52,171.52,0,0,0,215.69,601.9Z" fill="#0a4883"/><path d="M183.76,578.69a8.59,8.59,0,0,0-5.24.09c-1.63.7-2.86,2.62-2.22,4.28.56,1.44,2.25,2.19,2.86,3.61.84,2-.65,4-1.79,5.81a9.31,9.31,0,0,0-1.74,5.14,4.5,4.5,0,0,0,2.9,4.25,6.37,6.37,0,0,0,3.77-.36,34.44,34.44,0,0,0,13.42-8.25c1.4-1.39,4.74-4.1,3.46-6-1.39-2.09-4.46-3.85-6.59-5.07A31.13,31.13,0,0,0,183.76,578.69Z" fill="#0a4883"/><path d="M255.69,589l3.55-.07a39,39,0,0,1-31.32,15.77c-14.58,0-26.52-7-33.07-11.9a5.82,5.82,0,0,1-.1-9.25c6.7-5.2,19-12.9,33.17-12.9,20.22,0,28.46,9.55,32.12,15.37Z" fill="#1cbcd6"/><path d="M242.51,588.88a2.86,2.86,0,0,1,5.45-.57c.75,1.48,3,.18,2.23-1.3A5.45,5.45,0,0,0,240,588.2a1.29,1.29,0,0,0,2.49.68Z" fill="#0a4883"/><path d="M232.94,589.19a3.71,3.71,0,0,0-1.14,3.93,3.58,3.58,0,0,0,1.15,1.67c.62.53,1.28.5,2,.84l-.6-.77c0,.13-.32.78-.36,1a3.2,3.2,0,0,0,0,1.07,3.14,3.14,0,0,0,1.12,2,3.22,3.22,0,0,0,4.23-.3c1.23-1.12-.6-2.94-1.83-1.83a.56.56,0,0,1-1-.43c0-.22.26-.53.33-.74a2,2,0,0,0-.23-1.87c-.4-.5-.91-.49-1.46-.69a1.11,1.11,0,0,1-.34-2c1.25-1.1-.58-2.92-1.82-1.82Z" fill="#0a4883"/><path d="M197.86,585.4a3.61,3.61,0,0,0-1.24,2.61,1.76,1.76,0,0,0,1.76,1.66.65.65,0,0,0,0-1.29c-.54,0-.53-.61-.39-1a3.63,3.63,0,0,1,.79-1.07c.55-.62-.36-1.53-.92-.92Z" fill="#3ad0e5"/><path d="M203.58,582.51a2.21,2.21,0,0,0,.23,4.27c.81.19,1.15-1,.34-1.25a.93.93,0,0,1-.23-1.78c.76-.31.43-1.55-.34-1.24Z" fill="#3ad0e5"/><path d="M204.48,590.65a2.37,2.37,0,0,0,.58,4.69.65.65,0,0,0,0-1.29,1.08,1.08,0,0,1-.24-2.15c.81-.19.47-1.44-.34-1.25Z" fill="#3ad0e5"/><path d="M210.51,586a2.72,2.72,0,0,0,.76,5.39c.81-.08.82-1.37,0-1.29a1.45,1.45,0,1,1-.41-2.86c.81-.15.47-1.4-.35-1.24Z" fill="#3ad0e5"/><path d="M211.87,578.26a3.34,3.34,0,0,0-2.14,2.48,1.78,1.78,0,0,0,1.86,2c.82-.08.83-1.37,0-1.29s-.64-.73-.34-1.14a3.33,3.33,0,0,1,1.27-.92c.74-.37.09-1.48-.65-1.11Z" fill="#3ad0e5"/><path d="M214.4,594.39c-1.06.61-2.22,1.5-2,2.88s1.69,1.8,2.91,1.89c.83.05.83-1.24,0-1.29-.61,0-1.75-.12-1.63-1,.1-.67.9-1.06,1.41-1.36a.64.64,0,0,0-.65-1.11Z" fill="#3ad0e5"/><path d="M217.54,583.78a2.06,2.06,0,0,0-.43,4.07c.8.19,1.15-1.05.34-1.25a.77.77,0,0,1,.09-1.53c.83,0,.83-1.33,0-1.29Z" fill="#3ad0e5"/><path d="M219.22,591a1.91,1.91,0,1,0,1,3.69.64.64,0,0,0-.35-1.24.63.63,0,1,1-.28-1.21c.81-.17.47-1.41-.34-1.24Z" fill="#3ad0e5"/><path d="M221.91,574.7a2.63,2.63,0,1,0-.69,5.17c.83,0,.83-1.26,0-1.29a1.34,1.34,0,1,1,.35-2.63c.8.18,1.15-1.06.34-1.25Z" fill="#3ad0e5"/><path d="M223.51,596.71c-1.15.79-2.42,1.88-2.11,3.44s2.06,2.36,3.61,2.24c.82-.07.82-1.36,0-1.29s-2.3-.17-2.35-1.34c0-.89.86-1.49,1.51-1.94s0-1.59-.66-1.11Z" fill="#3ad0e5"/><path d="M224.15,586.05a2.77,2.77,0,1,0,.17,5.53.65.65,0,0,0,0-1.29,1.48,1.48,0,0,1-.17-2.95c.83-.06.83-1.35,0-1.29Z" fill="#3ad0e5"/><path d="M227.67,577.89a2.74,2.74,0,0,0-.83,5.35c.77.29,1.11-1,.34-1.25a1.45,1.45,0,0,1,.49-2.81c.82,0,.83-1.32,0-1.29Z" fill="#3ad0e5"/><path d="M233.42,573.83a2.8,2.8,0,0,0-.5,5.18c.73.39,1.38-.72.65-1.11a1.5,1.5,0,0,1,.19-2.82c.79-.25.45-1.5-.34-1.25Z" fill="#3ad0e5"/><path d="M367.72,628.76c-1.19-.19-2.62,0-3.27,1a2.4,2.4,0,0,0,.47,2.84,5,5,0,0,0,2.77,1.27,11.63,11.63,0,0,0,4.59-.08c.62-.14,1.33-.42,1.49-1C374.36,630.52,369.13,629,367.72,628.76Z" fill="#ed2027"/><path d="M368,632.66a5.21,5.21,0,0,0-3.1,2.71,2.92,2.92,0,0,0,1.18,3.67,3.35,3.35,0,0,0,2.49,0,7.66,7.66,0,0,0,4.65-4.75C374.28,631.17,369.7,632,368,632.66Z" fill="#ed2027"/><path d="M384.51,614.22a14.64,14.64,0,0,1,9.93-1.63c1.75.28,3.68.92,4.46,2.52a4.56,4.56,0,0,1-.62,4.4c-2,2.91-5.65,4.07-9.11,4.67a15.35,15.35,0,0,1-4.92.25c-2.39-.35-4.54-1.42-4.06-4.06A9.49,9.49,0,0,1,384.51,614.22Z" fill="#ed2027"/><path d="M404.36,631.67a24.19,24.19,0,0,0,5.35,6.41c2.24,1.69,5.31,2.55,7.89,1.47a3.38,3.38,0,0,0,2.28-2.68,3.61,3.61,0,0,0-2-3c-1.1-.65-2.36-1-3.4-1.77a7.08,7.08,0,0,0,8-7.49,4,4,0,0,0-.88-2.4,4.29,4.29,0,0,0-2.32-1.19,11.3,11.3,0,0,0-9.13,2.31C407.56,625.27,405.68,628.71,404.36,631.67Z" fill="#ed2027"/><path d="M382.57,642.65a11.31,11.31,0,0,0,5.57,7.6,3.5,3.5,0,0,0,3.42.34,2.75,2.75,0,0,0,1.14-2.11,8.28,8.28,0,0,0-.3-2.47,8,8,0,0,0,3.37,1.63,3.94,3.94,0,0,0,3.62-.94,4,4,0,0,0,.88-3.42,10.09,10.09,0,0,0-1.38-3.37A108.61,108.61,0,0,0,382.57,642.65Z" fill="#ed2027"/><path d="M406,639.18c-.7.54-1.43,1.05-2.17,1.52a35,35,0,0,1-3.79,2.07c-.67.31-1.31.59-1.91.82l-.61.22a24,24,0,0,1-5.8,1.28,26.13,26.13,0,0,1-4.15.1,28.36,28.36,0,0,1-9.29-2.1c-3.4-1.4-6.67-3.08-8.22-6.62-3.72-8.57,3.9-14.91,11.35-17a30.58,30.58,0,0,1,5.28-1c1-.11,2-.17,3-.18a33.66,33.66,0,0,1,4.5.21,32.18,32.18,0,0,1,4.21.73,27.11,27.11,0,0,1,7.34,2.9l.12.07a13.88,13.88,0,0,1,2.79,2.23,10.57,10.57,0,0,1,1.6,2.17C413.1,631.56,410.14,636,406,639.18Z" fill="#ee5631"/><path d="M375.2,628.6a4.86,4.86,0,0,0,5,4.32c2.65-.26,4-2.8,4.37-5.18.24-1.62-2.24-2.32-2.49-.68-.18,1.17-.49,2.76-1.78,3.2-1.55.54-2.45-1.08-2.66-2.35-.27-1.63-2.75-.94-2.48.69Z" fill="#ffe6c8"/><path d="M392.47,637.1c-.39.3-.77.62-1.13.95-.82.82-.89,1.55-.19,2.18a12.74,12.74,0,0,1,1,2.23,4.24,4.24,0,0,1-.37,2.63,26.13,26.13,0,0,1-4.15.1c4-.43.89-3.55.49-5.2a3.46,3.46,0,0,1,.32-2.34c.63-1.25,2.15-1.75,2.79-2.88.74-1.3-.25-2.14-1.14-2.79a6.26,6.26,0,0,1-1.11-.8c-1.4-1.51-.76-3.39.53-4.71.95-1,2.28-1.18,1.35-3.35a7,7,0,0,0-1.69-1.79,11.39,11.39,0,0,1-2.42-2.86c1-.11,2-.17,3-.18,2,2.29,5.25,4.34,3.67,7.72-.87,1.86-3.35,2.18-1.15,4.33,1,1,1.9,1.69,2,3.15S393.53,636.11,392.47,637.1Z" fill="#ffe6c8"/><path d="M407.5,636.19q-.58.46-1.14,1c-.75.76-.87,1.43-.33,2-.7.54-1.43,1.05-2.17,1.52a7.87,7.87,0,0,1-.74-1.61,3.45,3.45,0,0,1,.32-2.34c.63-1.26,2.15-1.75,2.78-2.88.74-1.31-.24-2.14-1.14-2.79a7.8,7.8,0,0,1-1.11-.8c-1.4-1.52-.76-3.39.54-4.71.94-1,2.28-1.19,1.34-3.35l0-.09.12.07a13.88,13.88,0,0,1,2.79,2.23,4.1,4.1,0,0,1-.26.68c-.87,1.86-3.35,2.17-1.15,4.33,1,1,1.89,1.68,2,3.15S408.56,635.2,407.5,636.19Z" fill="#ffe6c8"/><path d="M401.09,635.37c-.58,1.92-3.08,3.26-2.18,5.49.28.72.83,1.24,1.16,1.91-.67.31-1.31.59-1.91.82l-.61.22c-.19-.73-1.45-2.62-1.54-3a4.09,4.09,0,0,1,.26-2.49c.58-1.39,2.25-2.52,2.09-4.06s-1.35-1.74-2.12-2.87c-1.11-1.65-.62-3.17.46-4.65.8-1.1,2.31-2.26,1.62-4a5.54,5.54,0,0,0-1.56-1.64,12.78,12.78,0,0,1-2.5-2.59,32.18,32.18,0,0,1,4.21.73c1.53,1.38,3,2.72,2.58,5.19a8.19,8.19,0,0,1-2,3.51c-1.68,2.15.61,2.64,1.61,4.21A3.83,3.83,0,0,1,401.09,635.37Z" fill="#ffe6c8"/></svg>