<svg id="a1405543-44b2-44e1-85ec-da1aa5fbec26" data-name="Layer 1" xmlns="http://www.w3.org/2000/svg" xmlns:xlink="http://www.w3.org/1999/xlink" width="865.76" height="682.89" viewBox="0 0 865.76 682.89"><defs><clipPath id="ba89d737-4678-4a87-869a-05ce38aab11b"><path id="f3ff7fb4-9498-4aa4-a258-6b8751199bbc" data-name="SVGID" d="M766.62,453.75c.43,24.38-4.22,55.08-4.22,55.08s-2.11,3.38-15.92,3.94A67.76,67.76,0,0,1,721,508.55a35.1,35.1,0,0,0,3.1-8.17c1.41-5.36,3.23-31.32,5.49-41.27s6.2-21.27,10.85-28.87,14.65-13.66,14.65-13.66S766.2,429.38,766.62,453.75Z" fill="none"/></clipPath><clipPath id="f61a8084-d4fc-4c17-9572-8ea039953e77"><path id="beb2b639-a860-4a16-8f49-26971abaf29d" data-name="SVGID" d="M758,437.85s3.66,1,2.39,11.26-11.55,44.92-15.2,49.16-39.32-19.44-39.32-19.44l4.37-13.53s24.08,9.44,26.05,9.86,7.62-30.27,9.58-34.07C745.9,441.09,752.55,433.89,758,437.85Z" fill="none"/></clipPath></defs><path d="M782.48,492.23c-9.68,5-22.47,7.28-22.47,7.28a125.32,125.32,0,0,0,4.33-23.2c1.16-13.16-.4-54.61,3.48-58.48s12.78.64,12.78.64C791,450.87,782.48,492.23,782.48,492.23Z" fill="#e6e7e8"/><rect x="206.9" y="135.59" width="314.52" height="470.06" rx="26.35" fill="#f1f2f2" stroke="#d6d7d8" stroke-miterlimit="10" stroke-width="6"/><path d="M236.8,135.59H495A26.38,26.38,0,0,1,521.42,162v0a0,0,0,0,1,0,0h-311a0,0,0,0,1,0,0v0A26.38,26.38,0,0,1,236.8,135.59Z" fill="#d6d7d8"/><rect x="495.36" y="77.24" width="315.01" height="138.98" rx="24.22" fill="#f1f2f2" stroke="#d6d7d8" stroke-miterlimit="10" stroke-width="6"/><path d="M112.83,546.13c-.06-.18-.12-.36-.19-.55s-.12-.37-.19-.55-.12-.37-.19-.55-.12-.38-.19-.56-.12-.36-.19-.55-.13-.37-.19-.55l-.2-.55c-.06-.19-.13-.38-.19-.56l-.19-.55c-.06-.19-.13-.37-.19-.56l-.19-.54c-.06-.2-.13-.38-.19-.56l-.19-.58c-.06-.2-.13-.38-.19-.56l-.2-.55c-.06-.19-.12-.37-.19-.56s-.12-.36-.19-.54-.12-.38-.19-.56-.12-.37-.19-.55c-2.84-8.63-11.61-15-21.27-15A22.79,22.79,0,0,0,67,533.75l-.24.54-.23.54c-.09.17-.17.34-.25.53l-.24.53-.24.53-.24.54c-.08.18-.17.35-.24.53s-.17.35-.25.53l-.23.53c-.09.17-.17.36-.25.53l-.24.53-.24.54-.24.53c-.08.19-.16.36-.24.53l-.24.53c-.09.19-.16.36-.24.54s-.17.35-.25.54l-.23.53a5.05,5.05,0,0,0-.24.53c-.08.17-.17.35-.25.54A23.63,23.63,0,0,0,60,554.58c0,14,12.09,25.47,27.06,25.47,14.64,0,27.37-11.45,27.37-25.47a23,23,0,0,0-1.38-7.83C113,546.5,112.9,546.31,112.83,546.13Z" fill="#ccc"/><path d="M92.13,353.35c-44.89,0-75.45,26.42-75.45,64.94v3.48a3.36,3.36,0,0,0,1.66,2.84,4.85,4.85,0,0,0,.61.49,4.31,4.31,0,0,0,.62.49,3.59,3.59,0,0,0,.61.48,3.61,3.61,0,0,0,.62.49,4.09,4.09,0,0,0,.61.49,4.17,4.17,0,0,0,.62.49,4.17,4.17,0,0,0,.62.49,4.09,4.09,0,0,0,.61.49,4.85,4.85,0,0,0,.61.49,4.81,4.81,0,0,0,.67.52,4.81,4.81,0,0,0,.57.44,4.17,4.17,0,0,0,.62.49,4.85,4.85,0,0,0,.61.49,4,4,0,0,0,.61.48,3.61,3.61,0,0,0,.62.49,4.09,4.09,0,0,0,.61.49,4.17,4.17,0,0,0,.62.49,4,4,0,0,0,.61.48,4.17,4.17,0,0,0,.62.49,3.64,3.64,0,0,0,.61.49,5.12,5.12,0,0,0,3.65,1.27l28,1c2.88,0,4.45-1.3,4.45-4.18v-2.87C66.73,418.1,76.15,410,91.1,410c13.6,0,22.76,7.32,22.76,18.57a20.42,20.42,0,0,1-.36,3.82c-14,18.42-50.62,26.54-50.62,62.29v8.59c0,3.49,1.91,5.41,5.42,5.41H102c3.48,0,5.41-1.91,5.41-5.41v-5.73c0-29,57-29.29,57-82.13C164.39,378.18,136.06,353.35,92.13,353.35Z" fill="#ccc"/><rect x="240.39" y="173.44" width="65.15" height="5.05" rx="2.52" fill="#ccc"/><rect x="240.39" y="188.36" width="149.58" height="5.05" rx="2.52" fill="#ccc"/><rect x="240.39" y="203.27" width="149.58" height="5.05" rx="2.52" fill="#ccc"/><rect x="240.39" y="276.45" width="65.15" height="5.05" rx="2.52" fill="#ccc"/><rect x="240.39" y="291.36" width="241.8" height="5.05" rx="2.52" fill="#ccc"/><rect x="240.39" y="306.27" width="241.8" height="5.05" rx="2.52" fill="#ccc"/><rect x="240.39" y="321.18" width="241.8" height="5.05" rx="2.52" fill="#ccc"/><rect x="240.39" y="336.1" width="241.8" height="5.05" rx="2.52" fill="#ccc"/><rect x="350.05" y="375.44" width="123.42" height="5.05" rx="2.52" fill="#ccc"/><rect x="350.05" y="390.35" width="123.42" height="5.05" rx="2.52" fill="#ccc"/><rect x="350.05" y="405.26" width="123.42" height="5.05" rx="2.52" fill="#ccc"/><rect x="350.05" y="420.17" width="123.42" height="5.05" rx="2.52" fill="#ccc"/><rect x="350.05" y="435.09" width="123.42" height="5.05" rx="2.52" fill="#ccc"/><rect x="350.05" y="450" width="123.42" height="5.05" rx="2.52" fill="#ccc"/><rect x="350.05" y="464.91" width="123.42" height="5.05" rx="2.52" fill="#ccc"/><rect x="350.05" y="479.82" width="85.8" height="5.05" rx="2.52" fill="#ccc"/><rect x="240.39" y="219.78" width="241.8" height="36.71" rx="9.71" fill="#ccc"/><rect x="240.39" y="357.43" width="88.55" height="145.45" rx="12" fill="#ccc"/><rect x="253.01" y="372.57" width="63.32" height="50.13" rx="10.57" opacity="0.2"/><rect x="255.07" y="432.22" width="61.25" height="5.39" rx="2.7" opacity="0.2"/><rect x="255.07" y="447.13" width="61.25" height="5.39" rx="2.7" opacity="0.2"/><rect x="255.07" y="460.32" width="61.25" height="5.39" rx="2.7" opacity="0.2"/><rect x="255.07" y="473.51" width="61.25" height="5.39" rx="2.7" opacity="0.2"/><path d="M261.53,532.24H307.8a21.14,21.14,0,0,1,21.14,21.14v52.27a0,0,0,0,1,0,0H240.39a0,0,0,0,1,0,0V553.38A21.14,21.14,0,0,1,261.53,532.24Z" fill="#ccc"/><path d="M366.95,532.24H467a21.14,21.14,0,0,1,21.14,21.14v52.27a0,0,0,0,1,0,0H345.8a0,0,0,0,1,0,0V553.38A21.14,21.14,0,0,1,366.95,532.24Z" fill="#ccc"/><rect x="250.18" y="145.57" width="18.59" height="6.42" rx="3.21" opacity="0.2"/><rect x="299.14" y="145.52" width="37.3" height="6.53" rx="3.26" opacity="0.2"/><rect x="347.89" y="145.52" width="37.3" height="6.53" rx="3.26" opacity="0.2"/><rect x="398.41" y="145.52" width="37.3" height="6.53" rx="3.26" opacity="0.2"/><path d="M791.2,112.72h0a0,0,0,0,1,0,0v62.72a0,0,0,0,1,0,0h0a14.53,14.53,0,0,1-14.53-14.53V127.25A14.53,14.53,0,0,1,791.2,112.72Z" fill="#d6d7d8"/><circle cx="576.49" cy="117.88" r="13.32" fill="#d6d7d8"/><circle cx="618.59" cy="117.88" r="13.32" fill="#d6d7d8"/><circle cx="664.98" cy="117.88" r="13.32" fill="#d6d7d8"/><rect x="542.99" y="149.58" width="196.74" height="36.54" rx="18.27" fill="#d6d7d8"/><path d="M559.37,169.91a7.68,7.68,0,1,1,7.67-7.67A7.68,7.68,0,0,1,559.37,169.91Zm0-13.74a6.07,6.07,0,1,0,6.07,6.07A6.07,6.07,0,0,0,559.37,156.17Z" fill="#e6e7e8"/><rect x="566.51" y="166.53" width="1.61" height="13.4" transform="translate(8.72 372.79) rotate(-36.64)" fill="#e6e7e8"/><rect x="582.9" y="157.01" width="1.61" height="21.68" fill="#e6e7e8"/><circle cx="783.94" cy="133.16" r="3.52" fill="#e6e7e8"/><circle cx="783.94" cy="155.36" r="3.52" fill="#e6e7e8"/><path d="M601.09,511.84l-43-19.35a4.63,4.63,0,0,1-1.46-1.18L523.34,453a4.65,4.65,0,0,1,7.11-6l32.67,37.58,42.1,18.93a4.64,4.64,0,0,1-2.05,8.81A4.39,4.39,0,0,1,601.09,511.84Z" fill="#ccc"/><circle cx="636.88" cy="519.69" r="40.41" fill="#d6d7d8"/><polygon points="685.78 454.05 695.08 457.7 696.35 450.94 688.18 445.16 685.78 454.05" fill="#f9b499"/><path d="M722.4,462.87c7.47,3.23,11,1.54,11,1.54l-3.23,15.79s-3.86.95-8.74-2.53-29.58-14.76-29.58-14.76l3.67-13.65S714.93,459.64,722.4,462.87Z" fill="#f48225" data-secondary="true"/><path d="M722.4,462.87c7.47,3.23,11,1.54,11,1.54l-3.23,15.79s-3.86.95-8.74-2.53-29.58-14.76-29.58-14.76l3.67-13.65S714.93,459.64,722.4,462.87Z" fill="#231f20" opacity="0.2" style="isolation:isolate"/><path d="M689.33,443.87l-8.17-1-.32,0a2.1,2.1,0,1,1,.83-4.11l8.17,1a2.09,2.09,0,0,1-.25,4.16Z" fill="#f9b499"/><path d="M688.91,448.09l-8.17-1h0a2.08,2.08,0,0,1-1.82-2.32,2.11,2.11,0,0,1,2.33-1.83l8.17,1a2.1,2.1,0,0,1-.25,4.16Z" fill="#f9b499"/><path d="M688.47,451.93l-7.82-.94h0a2,2,0,1,1,.53-4l7.82.94a2,2,0,0,1-.23,4Z" fill="#f9b499"/><path d="M687.28,455.62l-5.52-.88a1.78,1.78,0,0,1-1.24-2.06c.12-1,.79-1.74,1.57-1.63l5.54.88a1.82,1.82,0,0,1,1.23,2.07,1.61,1.61,0,0,1-1.45,1.63Z" fill="#f9b499"/><path d="M690.48,448.82l1.3-5.46a1.82,1.82,0,0,1,2.15-1.08,1.55,1.55,0,0,1,1.46,1.7l-1.28,5.45a1.83,1.83,0,0,1-2.17,1.08,1.63,1.63,0,0,1-1.53-1.53A.64.64,0,0,1,690.48,448.82Z" fill="#f9b499"/><path d="M766.62,453.75c.43,24.38-4.22,55.08-4.22,55.08s-2.11,3.38-15.92,3.94A67.76,67.76,0,0,1,721,508.55a35.1,35.1,0,0,0,3.1-8.17c1.41-5.36-4-27.56-1.69-37.51s6.2-21.27,10.85-28.88,21.83-17.41,21.83-17.41S766.2,429.38,766.62,453.75Z" fill="#f48225" data-secondary="true"/><g clip-path="url(#ba89d737-4678-4a87-869a-05ce38aab11b)"><g opacity="0.2"><path d="M741.07,504.11l21.84,1.21c1.19-8.83,4.05-32.11,3.71-51.43-.42-24.37-11.54-37.18-11.54-37.18-1.55,1-3.58,1.83-5,3,1.78.77,4.84,2.41,4.08,4.13-1.13,2.5-5.41,10.19-5.41,10.19l-6.61-2,.27,7.05-3.91,4.62,8.25-5.13-1.13-2,4.28-.29,6.83-7.69a45.22,45.22,0,0,1,4.55,12c1.17,6-.29,3.7-.29,3.7Z" fill="#231f20" opacity="0.5" style="isolation:isolate"/></g></g><path d="M693.28,481.73c-18.45-16.22-32-42.09-35.62-43.89s-25.17,22.39-37.19,44.92c-18.32,34.34-9.54,63-7,73.07s13.67,13.94,13.67,13.94H800.11c1.81,0,18.73.64,31.12-8.65,7.17-5.37,18.58-24.79,17.81-48.8-.93-30-15.14-49.09-26.27-62-17.47-20.14-40.93-34-42.23-31.89s.27,4.65.78,31.5S778,489.74,778,489.74C743.88,508.32,710.71,497.06,693.28,481.73Z" fill="#2f2e41"/><path d="M613.49,555.82c2.58,10.07,13.68,13.95,13.68,13.95h30.39c25.16-20.64,33.18-48.91,21.11-66.74-14.07-20.76-39.4-31.16-49.51-34.64-3.16,4.69-6.16,9.57-8.74,14.37C602.15,517.1,610.91,545.74,613.49,555.82Z" opacity="0.2"/><path d="M782.06,569.77h18.05c1.81,0,18.73.64,31.12-8.65,7.17-5.37,18.58-24.79,17.81-48.8-.93-30-15.14-49.09-26.22-61.91-17.48-20.14-40.94-34-42.23-31.89s.26,4.64.77,31.49S778,489.78,778,489.78a254.67,254.67,0,0,0,22.33-13.11c7.4-5,21.31,0,26.33,11.25,5.48,12.17-2.68,31-14.33,37.94-8.11,4.87-16.8,10-30.27,14.42v29.49Z" fill="#fff" opacity="0.2"/><path d="M790.74,525.89c27.08,0,48.92,20.1,48.92,40.78,0,15-21.84,15.49-48.92,15.49s-48.93-1.3-48.93-15.49C741.81,546,763.65,525.89,790.74,525.89Z" fill="#2f2e41"/><path d="M790.74,525.89c27.08,0,48.92,20.1,48.92,40.78,0,15-21.84,15.49-48.92,15.49s-48.93-1.3-48.93-15.49C741.81,546,763.65,525.89,790.74,525.89Z" opacity="0.2"/><path d="M659.61,531.24c24.48,0,44.31,18.23,44.31,36.94,0,13.57-19.85,14-44.31,14s-44.3-1.18-44.3-14C615.31,549.47,635.13,531.24,659.61,531.24Z" fill="#2f2e41"/><path d="M659.61,531.24c24.48,0,44.31,18.23,44.31,36.94,0,13.57-19.85,14-44.31,14s-44.3-1.18-44.3-14C615.31,549.47,635.13,531.24,659.61,531.24Z" opacity="0.2"/><path d="M487.08,415.07a7,7,0,0,1-9-4.11L458.45,358.4a7,7,0,1,1,13.11-4.87l19.66,52.55a7,7,0,0,1-4.1,9Z" fill="#2f2e41"/><path d="M475.53,392.3a.3.3,0,0,1-.28-.19l-11-29a.31.31,0,0,1,.18-.39.3.3,0,0,1,.39.17l11,29a.29.29,0,0,1-.17.39Z" fill="#3f3d56"/><path d="M501.15,487.86l-28.12-75h0a12.41,12.41,0,1,1,23.23-8.73l28.06,75h0a12.37,12.37,0,1,1-23.17,8.66Z" fill="#2f2e41"/><path d="M501.15,487.86l-28.12-75h0a12.41,12.41,0,1,1,23.23-8.73l28.06,75h0a12.37,12.37,0,1,1-23.17,8.66Z" opacity="0.2"/><path d="M368.59,315.91a75.52,75.52,0,1,0,44.28-97.18A75.52,75.52,0,0,0,368.59,315.91Zm92.62,32a62.44,62.44,0,1,1,36.59-80.36A62.45,62.45,0,0,1,461.21,348Z" fill="#f48225" data-secondary="true"/><path d="M374.46,255.39a73.28,73.28,0,0,1,136.46,49.66" fill="none" stroke="#fff" stroke-miterlimit="10" opacity="0.2"/><path d="M506.36,319.16a73.27,73.27,0,0,1-139.79-38.43" fill="none" stroke="#fff" stroke-miterlimit="10" opacity="0.2"/><path d="M367.28,276.1a73.41,73.41,0,0,1,4.24-14.37" fill="none" stroke="#fff" stroke-miterlimit="10" opacity="0.2"/><circle cx="732.55" cy="525.89" r="17.74" fill="#fff" stroke="#263238" stroke-linecap="round" stroke-linejoin="round" stroke-width="0.75"/><path d="M723.43,524.49a5.47,5.47,0,1,0,0-7.74,5.46,5.46,0,0,0,0,7.74Z" fill="#fff"/><circle cx="501.32" cy="451.91" r="3.87" fill="#fff" stroke="#263238" stroke-linecap="round" stroke-linejoin="round" stroke-width="0.75"/><path d="M560.2,491.46h0a3.54,3.54,0,1,0-3.55-3.52A3.53,3.53,0,0,0,560.21,491.45Z" fill="#fff"/><circle cx="528.04" cy="451.13" r="3.64" fill="#fff" stroke="#263238" stroke-linecap="round" stroke-linejoin="round" stroke-width="0.75"/><path d="M62.84,503.29v-8.6c0-44.25,56-46.13,56-77.67,0-13.69-11.14-22.63-27.7-22.63-18.15,0-29.59,9.87-29.59,23.88v3.48c0,3.48-1.92,5.1-5.42,5.1L22.1,425.57c-3.18,0-5.41-1.59-5.41-3.82v-3.48c0-38.53,30.56-64.94,75.45-64.94,43.92,0,72.24,24.82,72.24,62.07,0,52.84-57,53.16-57,82.13v5.74c0,3.48-1.91,5.4-5.41,5.4H68.25C64.75,508.7,62.84,506.79,62.84,503.29ZM60,554.58c0-14,12.41-25.46,27.37-25.46,14.33,0,27.06,11.46,27.06,25.46S101.65,580,87,580C72.06,580,60,568.55,60,554.58Z" fill="#d6d7d8"/><path d="M49.31,356.88l-1.81,4S36.93,362,36.93,362.78s.11,6.25.69,6.47a1.85,1.85,0,0,0,1.35,0l15.57-4,1.48-7Z" fill="#f9b499"/><path d="M46.36,364a38.08,38.08,0,0,1-6.23,4.14c-2.51,1.14-2.61,2.85-1.81,2.85s7.9-3,7.9-3,6.45-1.68,7.39-2.2,1-3.37,1-3.37" fill="#f9b499"/><path d="M64.71,421.07a121.72,121.72,0,0,0-8.26,10.79c-3.35,5.12-2.17,10.62,2,12s9.43-2.36,10.82-5.31,1-4.52,3.14-7.47,3.93-5.9,3.15-9.84S66.84,418.32,64.71,421.07Z" fill="#686175" data-primary="true"/><path d="M68.84,439.28c-.28-.59-.6-1.21-1-1.88-3.16-5.57-8.7-5.12-12.18-4.09-2.29,4.68-1,9.33,2.77,10.58S67,442.08,68.84,439.28Z" fill="#fff"/><path d="M122.76,421.07A121.72,121.72,0,0,1,131,431.86c3.35,5.12,2.16,10.62-2,12s-9.44-2.36-10.82-5.31-1-4.52-3.14-7.47-3.94-5.9-3.15-9.84S120.6,418.32,122.76,421.07Z" fill="#686175" data-primary="true"/><path d="M118.64,439.28c.27-.59.59-1.21,1-1.88,3.16-5.57,8.71-5.12,12.19-4.09,2.29,4.68,1,9.33-2.77,10.58S120.44,442.08,118.64,439.28Z" fill="#fff"/><path d="M109,368a.4.4,0,0,1-.4-.37c0-.54-1.14-13.25,4.66-18.24a.4.4,0,0,1,.57,0,.41.41,0,0,1,0,.57c-5.49,4.73-4.4,17.43-4.39,17.56a.4.4,0,0,1-.36.44Z" fill="#3f3d56"/><path d="M79.07,368h0a.4.4,0,0,1-.38-.43c0-.1.58-10.79-.57-14.61a11.26,11.26,0,0,0-3-5.31.41.41,0,0,1-.06-.57.4.4,0,0,1,.56-.06c.09.07,2.08,1.7,3.28,5.71s.64,14.44.61,14.89A.4.4,0,0,1,79.07,368Z" fill="#3f3d56"/><path d="M93.82,355.57a.4.4,0,0,1-.39-.32c-1.15-5.93-7.32-13.12-7.38-13.19a.4.4,0,1,1,.6-.53c.26.3,6.38,7.43,7.57,13.57a.41.41,0,0,1-.32.47Z" fill="#3f3d56"/><path d="M96.18,349.5h-.05a.41.41,0,0,1-.34-.46c.4-3,3.88-6.93,4-7.1a.41.41,0,0,1,.57,0,.42.42,0,0,1,0,.57s-3.47,3.88-3.84,6.67A.41.41,0,0,1,96.18,349.5Z" fill="#3f3d56"/><circle cx="708.37" cy="117.88" r="13.32" fill="#d6d7d8"/><g opacity="0.2"><path d="M574.38,496.21l-.13,0-4.61-2.1a.3.3,0,0,1-.15-.4.3.3,0,0,1,.4-.15l4.61,2.1a.3.3,0,0,1-.12.57Z"/></g><g opacity="0.2"><path d="M595.67,505.9a.31.31,0,0,1-.13,0l-18.24-8.3a.3.3,0,0,1-.15-.4.3.3,0,0,1,.4-.15l18.24,8.3a.3.3,0,0,1-.12.58Z"/></g><g opacity="0.2"><path d="M545.43,473.32a.3.3,0,0,1-.23-.1l-12.15-13.75a.3.3,0,0,1,0-.42.31.31,0,0,1,.43,0l12.16,13.75a.31.31,0,0,1,0,.43A.31.31,0,0,1,545.43,473.32Z"/></g><g opacity="0.2"><path d="M550.15,478.42a.34.34,0,0,1-.23-.1l-2.75-3.14a.3.3,0,0,1,.45-.39l2.75,3.13a.3.3,0,0,1,0,.42A.32.32,0,0,1,550.15,478.42Z"/></g><path d="M683.05,484.81h0a2.08,2.08,0,0,1-2-2.19l3.26-54a2.81,2.81,0,0,1,0-.29,2.1,2.1,0,0,1,4.17.48l-3.26,54a2.09,2.09,0,0,1-1.87,2Z" fill="#2f2e41"/><path d="M692.43,498.2a2.11,2.11,0,0,1-1.76-2.39l7.54-49a2.1,2.1,0,1,1,4.15.63l-7.54,49a2.1,2.1,0,0,1-2.07,1.77Z" fill="#2f2e41"/><path d="M742.26,562c3,11.36,23.53,12.46,48.54,12.46S836.43,574,839.34,562c-3-18.95-23.54-36.16-48.54-36.16S745.2,543,742.26,562Z" fill="#2f2e41"/><path d="M615.66,563.91c2.72,10.28,21.31,11.29,44,11.29s41.3-.41,44-11.2c-2.66-17.17-21.32-32.76-44-32.76S618.38,546.79,615.66,563.91Z" fill="#2f2e41"/><circle cx="732.55" cy="525.89" r="21.01" fill="#f48225" data-secondary="true"/><path d="M742,535.45l-4.77-4.77A9.78,9.78,0,1,0,736,532l4.75,4.75a.89.89,0,0,0,1.26,0l0,0A.91.91,0,0,0,742,535.45Z" fill="#fff"/><circle cx="560.2" cy="487.93" r="9.44" fill="#f48225" data-secondary="true"/><circle cx="528.04" cy="451.13" r="9.44" fill="#2f2e41"/><circle cx="528.04" cy="451.13" r="9.44" opacity="0.2"/><path d="M67.85,437.4c-1.17,1.74-2.75,6.49-8.85,4.52a8.34,8.34,0,0,1-4.35-2.74,5.73,5.73,0,0,0,3.8,4.71c4.13,1.37,9.44-2.37,10.82-5.32s1-4.52,3.14-7.47,3.94-5.9,3.15-9.83c0,4.72-1.74,5.5-3.93,8.06S69,435.62,67.85,437.4Z" fill="#2f2e41"/><path d="M119.61,437.4c1.18,1.74,2.75,6.49,8.86,4.52a8.34,8.34,0,0,0,4.35-2.74,5.74,5.74,0,0,1-3.81,4.71c-4.12,1.37-9.43-2.37-10.81-5.32s-1-4.52-3.15-7.47-3.93-5.9-3.15-9.83c0,4.72,1.74,5.5,3.94,8.06S118.43,435.62,119.61,437.4Z" fill="#2f2e41"/><path d="M132,353.21c0-3.55-6.09-7.48-6.09-7.48-9.18-9.34-25.75-8.1-31.87-7.27-6.1-.87-22.69-2.07-31.87,7.27,0,0-6.09,3.93-6.09,7.48s7.68,67.47,7.68,67.47-.2,3.34,5.31,3.73,7.83-2.75,7.83-2.75l2.17-54.09s8.85-6.31,10.44-6.5c.58-.07,1.32-.2,2.16-.3v.1a11.77,11.77,0,0,1,4.73,0v-.1c.87.1,1.57.23,2.15.3,1.58.19,10.45,6.5,10.45,6.5l2.17,54.09s2.35,3.14,7.83,2.75,5.31-3.73,5.31-3.73S132,356.75,132,353.21Z" fill="#2f2e41"/><polygon points="58.61 280.62 52.12 330.38 47.6 357.33 57.63 359.7 65.1 327.82 68.64 307.76 58.61 280.62" fill="#686175" data-primary="true"/><polygon points="111.01 244.58 107.05 243.96 98.93 240.88 98.64 250.52 111.22 251.68 111.01 244.58" fill="#f9b499"/><path d="M91.27,265.67s-5.7-.79-7.67,1.18-8.66,9.21-8.66,9.21l3.54,62.56s8.07,3.15,15,3.15,14.76-2.56,16.54-3.94.2-68.45.2-68.45S95.56,265.08,91.27,265.67Z" fill="#e6e7e8"/><path d="M101.69,267.05a70.4,70.4,0,0,1,9-.79c3.93,0,7.83.2,7.83.2l9.84-9.45-19.8-4.52,1.58-9.05s14.55-1,21.83.39,18.68,4.92,19.28,4.92,1.37,2.17.78,3.74-19.1,22-24.62,27.34A137.29,137.29,0,0,0,117.23,291l-2.52,43.87s6.49,3.54,7.67,4.72,2.56,5.9,2.56,5.9-12-4.92-15.15-5.31-5.11-.59-5.7-1.74-5.51-53.7-5.51-53.7l.2-16.72S98.74,267.05,101.69,267.05Z" fill="#686175" data-primary="true"/><polygon points="113.5 293.99 102.87 295.37 103.85 299.3 109.17 300.68 114.28 298.32 113.5 293.99" fill="#fff" opacity="0.2"/><path d="M84.58,265.47l.65,14.22a10.26,10.26,0,0,0,8,3.88c4.92-.19,5.51-3.74,5.51-3.74V268Z" fill="#f9b499"/><path d="M98.93,273l-.39,11.82,4.14-6.5s4.52,5.71,5.7,5.51-.79-2.55-1.18-4.71-3.74-9.85-4.13-12-4.14-2.55-4.35-1.57a10,10,0,0,0,0,2.56Z" fill="#fff" opacity="0.2"/><path d="M85.37,283.57s.78,55.07-1.19,55.7-9.83.79-14.79,3.15-7.28,3.34-7.28,3.34,2.36-5.7,5.12-8.26a27.12,27.12,0,0,1,6.09-4.13L68.21,307s-9.44-25-9.64-26.36,17.9-11.6,21.63-13.38,4.73-.19,4.73-.19Z" fill="#686175" data-primary="true"/><path d="M80.45,264.49s-4.72,14.95-5.12,16.92,0,2,1.38.58,4.92-4.72,4.92-4.72l3.74,6.3L85.17,272v-6.69S85,262.52,80.45,264.49Z" fill="#fff" opacity="0.2"/><polygon points="71.2 296.75 82.81 296.75 82.61 301.47 77.5 303.24 71 301.47 71.2 296.75" fill="#fff" opacity="0.2"/><path d="M478.87,444h49.81a7,7,0,1,1-.64,13.93H478.87a7,7,0,1,1,0-13.93Z" fill="#f48225" data-secondary="true"/><path d="M739.46,415s2.53,7,1.64,11a135,135,0,0,1,14-9.42l-2.29-6.74-4.12-4.09S746.34,413.48,739.46,415Z" fill="#f9b499"/><ellipse cx="751.59" cy="400.94" rx="4.24" ry="5.71" fill="#f9b499"/><ellipse cx="739.46" cy="394.21" rx="12.02" ry="20.76" fill="#f9b499"/><path d="M749.31,382.41c.42,2.68-3.23,3.68-2.81,6.34s2,4.65.85,6.48-2.22,5.93.7,4.37c0,0,2.72-5.12,5.54-2.87s1.71,6.76-.55,8.32a4.93,4.93,0,0,1-4.37.7,28.44,28.44,0,0,0,4.12,4.09,19.92,19.92,0,0,1,6.73-5.64,23.57,23.57,0,0,0,10-14.22c1.27-6.77-2.67-13.91-7.88-19s-15.51-4.08-16.63-3.65,2.88-3-.7-3.67-5.68,4.36-5.82,5.21-1.28-3.66-2.4-.7.56,6.9.56,6.9S748.89,379.73,749.31,382.41Z" fill="#2f2e41"/><path d="M740.28,417.66a15.62,15.62,0,0,0-.82-2.69s5.61-.49,7.91-5.13C747.37,409.84,745.62,416.46,740.28,417.66Z" fill="#f7a48b"/><path d="M98.74,275.59l-.16-1.73A11.2,11.2,0,0,1,88,272S91.05,277.39,98.74,275.59Z" fill="#f7a48b"/><ellipse cx="93.58" cy="257.67" rx="12.87" ry="17" transform="translate(-51.5 25.07) rotate(-11.99)" fill="#f9b499"/><ellipse cx="80.81" cy="263.78" rx="2.77" ry="3.91" transform="translate(-82.31 41.29) rotate(-19.21)" fill="#f9b499"/><path d="M81.82,234.78S69.45,239.31,69,245s11,13.57,11.61,14.55S83,258.39,83,258.39a4.59,4.59,0,0,1-.8-3.74c.6-2,3.16-4.35,3.16-5.31s-1.85.85-1.85-2.1,6.17-4.78,10.5-4.59,8.07,7.48,11.22,3.93-1.39-4.51-1.39-4.51,6.09-.79,6.09-3.94-3.15-5.31-4.52-5.31-5.11,2.36-5.11-.2,3.73-3.74.19-7.83-8.06,0-8.06,1.58-1.18,4.51-2,4.51-3.15-3.53-5.9-1.56A7.3,7.3,0,0,0,81.82,234.78Z" fill="#2f2e41"/><path d="M758,437.85c-7-5.1-12.13,3.24-12.13,3.24-2,3.8-7.61,34.49-9.58,34.07s-26.05-9.86-26.05-9.86l-4.37,13.53s35.66,23.68,39.32,19.44,13.93-38.88,15.2-49.16S758,437.85,758,437.85Z" fill="#f48225" data-secondary="true"/><g clip-path="url(#f61a8084-d4fc-4c17-9572-8ea039953e77)"><g opacity="0.2"><path d="M706,478.77s35.66,23.68,39.32,19.44,13.93-38.88,15.2-49.16a24.2,24.2,0,0,0,0-6.8l-.64-1.57a113.94,113.94,0,0,1-4.27,16c-2.85,8-8.55,19.65-8.55,19.65s-2.85-3.49-2-1.15,2.58,13.4.29,12.54-4.84-10-6.55-7.69-2.51,4-5.42,4.27c-2.23.23-19.38-5.11-26.79-7.46Z" fill="#231f20" opacity="0.5" style="isolation:isolate"/></g></g><g opacity="0.5" style="isolation:isolate"><path d="M762.74,397.45h0a8.51,8.51,0,0,1-6-4.29c-1.19-1.83-1.67-4.2-2.18-6.7-.58-2.85-1.18-5.79-2.91-7.92-3.12-3.85-7.93-1.51-8.13-1.41a.21.21,0,0,1-.27-.08.2.2,0,0,1,.09-.27s5.29-2.59,8.62,1.51c1.79,2.21,2.4,5.2,3,8.09a19.31,19.31,0,0,0,2.13,6.57,8.18,8.18,0,0,0,5.69,4.11.2.2,0,0,1,.17.23A.21.21,0,0,1,762.74,397.45Z" fill="#231f20"/></g><g opacity="0.5" style="isolation:isolate"><path d="M765.13,390.45a6.18,6.18,0,0,1-6.09-5.34c-1.11-5.56-7.48-14-14-14.24-2.26-.08-3.89.41-4.87,1.46a3.72,3.72,0,0,0-1,2.69.2.2,0,0,1-.18.22.2.2,0,0,1-.22-.18,4.06,4.06,0,0,1,1.07-3c1.06-1.14,2.81-1.67,5.18-1.59,6.7.24,13.25,8.87,14.39,14.58a5.75,5.75,0,0,0,6.29,5,.2.2,0,0,1,0,.4C765.56,390.43,765.34,390.45,765.13,390.45Z" fill="#231f20"/></g><path d="M708.59,472.35l-2-1.54c-.71-.57-3.86-.56-6.2-1.27s-8.17-3.1-8.17-4.51,1.13-6.79,1.13-7.46-1-1.41-1.26-2.13a3.31,3.31,0,0,1,1.12-2.81c.7-.56,9.3,3.66,9.58,4.08s3.8,6.9,3.8,6.9l4.08,2.68Z" fill="#f9b499"/></svg>