<svg id="ef95e139-c833-447a-9a18-44527d7126e6" data-name="Layer 1" xmlns="http://www.w3.org/2000/svg" width="865.76" height="682.89" viewBox="0 0 865.76 682.89"><path d="M390.89,235.52s-35.14-103.85-17.57-125c0,0,38.75-68.2,73.37-79.05,0,0,36.29-8.84,60.31,8.36a1.74,1.74,0,0,1-1,3.15,138.66,138.66,0,0,1-21.11-1.17,16,16,0,0,0-10.43,2.06c-6.57,3.86-19,9.85-31.37,8.78,0,0-53.74,60.46-49.61,80.09,0,0,5.17,32,13.95,42.37l4.14,46.5A46.29,46.29,0,0,0,390.89,235.52Z" fill="#f9b499"/><path d="M382.36,263.43S279.46,281,271.88,425l-2.07,31A130.53,130.53,0,0,1,263,485.66a144.13,144.13,0,0,0-9,45.74,280.17,280.17,0,0,0,16.54,101s4.13,9.64,24.11-2.76c0,0-17.91-36.51,9.65-122.63l31-62.69s29.62-48.23,40.3-84.39c0,0,.35,7.23,11.37,7.57,0,0,11,59,52.87,118.09a69.49,69.49,0,0,0,6.75,8.18c3.26,3.35,8.7,10.26,9.25,19.48a55.41,55.41,0,0,0,.83,7.27c1.79,9.09,6.7,29.69,16.41,42.29,0,0,53.74,61.32,57.36,79.4,0,0,13.43,3.1,21.18-10.85,0,0-38.75-80.09-43.92-117.8,0,0-17.56-125-59.42-170.51,0,0-6.94-21.18-1.77-35.13,0,0-22.89,2.79-39.17-14.52C407.3,293.35,391.28,281.39,382.36,263.43Z" fill="#f48225" data-secondary="true"/><path d="M353.41,274.31s24.91,32.69,22.15,85.57c0,0,1.21,8.26,11.37,7.57,0,0,36.51-30.65,61.31-24.45,0,0-3.61-12.66-3.61-21.19,0,0-45.92,2.59-76.15-54.24-2.46,1-5.26,2-7.88,3.22S355.69,273.14,353.41,274.31Z" fill="#686175" data-primary="true"/><path d="M489.58,401.9c4.65-28.94,32.55-66.65,32.55-66.65-10.33-1-49.6-67.17-49.6-67.17s5.68-28.94,14-33.59c0,0,10.33,2.07,17,21.18L540.21,328a18,18,0,0,1-2.58,16s-27.38,52.7-36.17,64.07c0,0-12.91,21.18-23.77,6.72,0,0-17.85-15.71-38-21.54a2,2,0,0,1-1.14-3h0a2,2,0,0,1,1.95-.93,47.85,47.85,0,0,1,15.76,5s-5.21-6.52-21.43-7.2a4.55,4.55,0,0,1-3.95-6.53c1.26-2.48,4.08-4.79,10.14-5.13C441,375.55,466.84,377.36,489.58,401.9Z" fill="#f9b499"/><path d="M270.5,632.35s-10.85,27.9,1,28.93l41.25-.45a5.84,5.84,0,0,0,5.77-5.84h0a5.85,5.85,0,0,0-1.8-4.22l-22.14-21.18S277,641.83,270.5,632.35Z" fill="#f9b499"/><path d="M530.4,642.16l-.52,18.09,77.83,1a4.52,4.52,0,0,0,4.57-4.78h0a4.53,4.53,0,0,0-4.71-4.27l-2.54.11a56.36,56.36,0,0,1-31.2-7.81l-22.25-13.16A20,20,0,0,1,530.4,642.16Z" fill="#f9b499"/><path d="M416.55,233.46S419,265,444.71,262.37a32.26,32.26,0,0,0,16.2-6.61,109.24,109.24,0,0,0,22.63-23.06s-8.6.58-15.32,1.62c0,0-13.26,2.41-15-9,0,0-2.24-23.08,9.81-28.24,0,0-4.13,1-5.51-2.93,0,0-11.23,23-31.07,18.95a19.15,19.15,0,0,1-7.41-3.76l-.5-.45h0a17.11,17.11,0,0,0,1.93,6.67,15.72,15.72,0,0,1,1.83,5.91C422.6,225.16,421.88,230.25,416.55,233.46Z" fill="#f9b499"/><path d="M405.7,223.47s-29.54,15.67-23.34,40c0,0,9.05,19.11,24.81,30.22,0,0,15.5,17.05,37.71,14.73,0,0,24.55,1.55,27.13-33.07,0,0,2.33-30.74,14.47-40.82,0,0-.58-1.38-2.94-1.79,0,0-21.6,29.82-40,29.56,0,0-21.53,4.78-27-28.8,0,0-2.58,3.61-11.71,5.94C404.84,239.4,407.77,233.63,405.7,223.47Z" fill="#686175" data-primary="true"/><path d="M420.88,216.3s-2.61-4.61-2.36-8.56c0,0,13.13,9.15,23.73.62C442.25,208.36,433.44,219.07,420.88,216.3Z" fill="#f4a790"/><ellipse cx="435.4" cy="180.56" rx="33.79" ry="25.61" transform="translate(134.9 543.72) rotate(-72.92)" fill="#f9b499"/><path d="M413.62,166.29c-12.65,29.19,4.91,42.62,4.91,42.62.26,3.88,2.84,8.27,2.84,8.27,6.46,17.57-16.53,22.22-16.53,22.22,4.58-10.07-2.07-27.64-2.07-27.64-12.66-23-1-35.66-1-35.66,5.94-5.68,7.07-14.65,7.07-14.65s-1.74-28.68,22.59-23.9c0,0,17.38-19.55,35.63-1.74A44.9,44.9,0,0,1,473.67,154a25.78,25.78,0,0,0,4.85,11.95,51.66,51.66,0,0,0,5,5.93s18,11.36,2,37.12a23.66,23.66,0,0,0-3.13,16.87,61.78,61.78,0,0,1,1.09,6.84,87.24,87.24,0,0,0-13.79,1.69,20.23,20.23,0,0,1-9.28-.5c-3.71-1.2-7.56-3.62-7.66-10.73,0,0-1.61-20.52,9.44-25.65l-1.35-19.6a72.54,72.54,0,0,0-4.7-7.33,24.89,24.89,0,0,0-10.44-8.09c-4.34-1.83-11.27-6-12.5-14C433.26,148.46,423.18,149.24,413.62,166.29Z" fill="#f48225" data-secondary="true"/><path d="M425.64,152s6.46-.26,9.69,1.55c0,0,1,4.81,10.43,9,0,0,9.2,2.63,15.14,15.42a4.5,4.5,0,0,0-2.32,1.68s-20.41-16.53-41.21-18.86A23.73,23.73,0,0,1,425.64,152Z" fill="#686175" data-primary="true"/><ellipse cx="462.25" cy="187.73" rx="6.95" ry="9.78" fill="#f9b499"/></svg>