<svg xmlns="http://www.w3.org/2000/svg" xmlns:xlink="http://www.w3.org/1999/xlink" width="865.76" height="682.89" viewBox="0 0 865.76 682.89"><defs><clipPath id="f35d05f6-5804-4250-aa81-31e53795408f"><path d="M460.61,300.74c-.59-.73-1.45-2.29-2.41-3.43,0-.31-.23-.72-.78-1.23a2.83,2.83,0,0,1-.34-.35,7.56,7.56,0,0,0-2.55-2.31,10.85,10.85,0,0,0-5.79-1.08c-.67.09-2.8.41-4.87.8v0a55.13,55.13,0,0,0-9.05,1.82,19.31,19.31,0,0,1-9.58.13l-65-15.85-5.75-10.34L352.19,298l76,4.84a5.48,5.48,0,0,1,2.91,1.12h0c3.24,3.17,7.1,3.57,12.58,4a17.46,17.46,0,0,1,4.92,1.59c1.43.63,2.09-.93,1.72-1.93-.51-1.41-2.87-2.72-6-3a3.77,3.77,0,0,1-1.21-.29l1.51-.08A15.94,15.94,0,0,1,448,304a21.49,21.49,0,0,1,4.59.69s1.63,1.47,2.11,1.86c1.61,1.33,3.79.27,2.06-2-.59-.78-1.29-2.11-1.85-2.37l-.65-.44c1.6.42,2.11,1.71,2.67,2,1.46.83,2.73.17,2.45-.85l.27,0h.05C460.76,303.09,461.65,302,460.61,300.74Z" fill="#f9c7a5" stroke="#351d66" stroke-miterlimit="10"/></clipPath><clipPath id="f77051e9-1015-4783-bd0e-a9f49161e330"><polygon points="332.71 215.54 337.03 203.07 358.02 210.32 351.93 227.95 332.71 215.54" fill="#f9c7a5" stroke="#351d66" stroke-miterlimit="10"/></clipPath><clipPath id="b5e723a9-5619-42c1-a2a8-5a600b910ec3"><path d="M411.84,488.65A22.75,22.75,0,0,1,401.76,490l3.89-137.74s26.29-1.4,27.8,15.74c0,0,1.42,25-9.65,68.39Z" fill="#f48225" data-secondary="true" stroke="#351d66" stroke-miterlimit="10"/></clipPath><clipPath id="b4c69c5f-52b5-4d1c-9c7a-e30248fa8abc"><path d="M322.38,215.3s-14.94,7.92-20.95,29.79L278.25,345.5s53.78,15.05,70.4-1.6L357,242.13Z" fill="#686175" data-primary="true" stroke="#351d66" stroke-miterlimit="10"/></clipPath><clipPath id="e0b47bb9-ee14-4d43-a9d6-91659a12e5fc"><path d="M497.15,304.33l-60.15,1,70.8,134.16s9.36,15-10.93,50.6c0,0-15.43,27-51.09,33.89,0,0-40.59,8.94-64,8.82l-90.25,2.08a12.14,12.14,0,0,0,9.18,6l166.72.46s6.28,2.17,11.59-9.12c0,0,24.44-55.77,70.13-57.78,0,0,9.1.8,7.42-12,0,0,3.08-25.18-29.57-24.28,0,0-5.62,1.33-8.88-8.23l-42.52-81.73,20.65.4Z" fill="#7ddcf2" stroke="#351d66" stroke-miterlimit="10"/></clipPath><clipPath id="e8d7bd0d-31c8-489c-ad41-14a04c7f1e5f"><path d="M482,550.09l178,0s-24.1-80.62-103-70.25C557.09,479.86,506.52,482.69,482,550.09Z" fill="#7ddcf2" stroke="#351d66" stroke-miterlimit="10"/></clipPath><clipPath id="b2f522d8-c8bf-4e23-8814-aefff2c47f78"><path d="M103,555.2l190.74-.45s-28.28-100-115.61-78.34C178.1,476.41,128.5,484.94,103,555.2Z" fill="#7ddcf2" stroke="#351d66" stroke-miterlimit="10"/></clipPath><clipPath id="f34f9291-f91b-4801-a9b3-ba5c61643374"><path d="M107.84,530s30-64.85,100.9-60.75c0,0,56.34,5.32,82.8,65.58l95.84-2.07s38.9-2.88,60.23-8.91c0,0,28.08-2.17,49.26-33.81,0,0-63.44,54.56-142,7,0,0-18.94-12-27.41-31.69a44.42,44.42,0,0,1,13.92-52.71l.14-.11s3.23-6.25-5.22-6.85l-109.35-.22S115.69,408.1,107.84,530Z" fill="#d2e1f9" stroke="#351d66" stroke-miterlimit="10"/></clipPath><clipPath id="b1167f0e-af34-4e58-a6a9-65bdf6cf1191"><rect x="247.45" y="364.71" width="117.93" height="40.92" rx="14.34" transform="translate(1.49 -1.18) rotate(0.22)" fill="#d2e1f9" stroke="#351d66" stroke-miterlimit="10"/></clipPath><clipPath id="b5aa1042-46ca-4722-ae63-64225edc2739"><path d="M287,347.51s-5.45,32.23,22.09,36.07c0,0,63,5.14,78.4,2.18,0,0,3.55-1.4,1.37,6.16,0,0-17.2,77.58-13.59,93.7,0,0,17.82,7.91,26.49,4.35,0,0,22.18-78.05,23.22-112.68,0,0,5.65-26.48-19.33-25.06l-57-8.33Z" fill="#f48225" data-secondary="true" stroke="#351d66" stroke-miterlimit="10"/></clipPath><clipPath id="abda60e7-e961-4d00-885d-61701d357a02"><polygon points="218.73 405.97 68.38 405.38 68.1 294.57 218.72 294.56 218.73 405.97" fill="#f48225" data-secondary="true" stroke="#351d66" stroke-miterlimit="10"/></clipPath><clipPath id="ad342973-18e1-49fe-abf4-e0d30798a995"><polygon points="320.93 214.35 327.16 208.52 359.5 232.34 358.84 243.87 320.93 214.35" fill="#686175" data-primary="true" stroke="#351d66" stroke-miterlimit="10"/></clipPath><clipPath id="a2a27299-0cde-4937-b3be-1872463d9e4d"><path d="M434.44,310.2c-.64-.69-1.58-2.2-2.6-3.29,0-.31-.28-.7-.85-1.18l-.36-.33a7.58,7.58,0,0,0-2.67-2.17,11,11,0,0,0-5.85-.76c-.66.14-2.77.58-4.81,1.08l0,0a41.3,41.3,0,0,0-5.83,1.35,21,21,0,0,1-8.38.74l-50.8-6-3.71-19.91s-12.92,6.13-23.07,7.44l6.06,27.8s.62,4.71,12.05,4.17l60.71-2.44a14.05,14.05,0,0,1,4.9.69c2.46.8,5.26.91,8.71,1a17.23,17.23,0,0,1,5,1.31c1.46.55,2-1.05,1.61-2-.59-1.38-3-2.56-6.15-2.66a4.29,4.29,0,0,1-1.23-.22l1.5-.16a15,15,0,0,1,3.41-.4,21.13,21.13,0,0,1,4.62.43s1.71,1.38,2.21,1.74c1.68,1.24,3.8.06,1.95-2.07-.64-.74-1.41-2-2-2.26l-.67-.4c1.61.32,2.2,1.59,2.78,1.88,1.5.75,2.73,0,2.39-1a1.35,1.35,0,0,0,.28,0h.05C434.71,312.54,435.55,311.41,434.44,310.2Z" fill="#f9c7a5" stroke="#351d66" stroke-miterlimit="10"/></clipPath><clipPath id="f97fe173-7604-4a24-88e8-5c52d8d3debd"><path d="M352.16,278.59s-21.25,9.51-30.79,8.87c0,0-11.76-36.65-1.24-50.54a9.73,9.73,0,0,1,12.21-2.8C338.54,237.36,347.14,247.64,352.16,278.59Z" fill="#686175" data-primary="true" stroke="#351d66" stroke-miterlimit="10"/></clipPath></defs><g style="isolation:isolate"><g id="e680a0a6-b95a-473b-9706-f90b56f48fa2" data-name="Layer 1"><path d="M865.81,331.17,865.38,232h-55.5l.65,119.5-42.21.51V256.35H702.91V358.06l-19.57.65V256.16H660.51v-43.7H646.82V183.11H593.33v29.35H579.64v43.7H556.81v55.55l-10.54.66-3.16-164.58H472.67v87.55l-24.79.65V99.15H439.4V70.27H365.05V99.15h-8.48V314.54H340.91V226.06h-13V197.94H309V115.87H281.56v82.07H262.65v28.12h-13v97.28h-9.13l-7.18-.09V210.54L40.23,212.38v253.8H23.92V432.92H-.58V682.86l866.53.28Z" fill="#e6e7e8" opacity="0.9"/><g opacity="0.42"><rect x="56.16" y="230.77" width="22.85" height="29.59" fill="#e6e7e8" style="mix-blend-mode:multiply"/><rect x="56.16" y="325.95" width="22.85" height="29.59" fill="#e6e7e8" style="mix-blend-mode:multiply"/><rect x="91.26" y="230.77" width="22.85" height="29.59" fill="#e6e7e8" style="mix-blend-mode:multiply"/><rect x="126.37" y="230.77" width="22.85" height="29.59" fill="#e6e7e8" style="mix-blend-mode:multiply"/><rect x="126.37" y="390.36" width="22.85" height="29.59" fill="#e6e7e8" style="mix-blend-mode:multiply"/><rect x="91.26" y="277.99" width="22.85" height="29.59" fill="#e6e7e8" style="mix-blend-mode:multiply"/><rect x="91.26" y="440.9" width="22.85" height="29.59" fill="#e6e7e8" style="mix-blend-mode:multiply"/><rect x="91.26" y="325.95" width="22.85" height="29.59" fill="#e6e7e8" style="mix-blend-mode:multiply"/><rect x="156.54" y="325.95" width="22.85" height="29.59" fill="#e6e7e8" style="mix-blend-mode:multiply"/><rect x="156.54" y="440.9" width="22.85" height="29.59" fill="#e6e7e8" style="mix-blend-mode:multiply"/><rect x="185.26" y="230.77" width="22.85" height="29.59" fill="#e6e7e8" style="mix-blend-mode:multiply"/><rect x="370.5" y="113.4" width="12.69" height="16.44" fill="#e6e7e8" style="mix-blend-mode:multiply"/><rect x="396.9" y="113.4" width="12.69" height="16.44" fill="#e6e7e8" style="mix-blend-mode:multiply"/><rect x="370.5" y="142.41" width="12.69" height="16.44" fill="#e6e7e8" style="mix-blend-mode:multiply"/><rect x="423.3" y="142.41" width="12.69" height="16.44" fill="#e6e7e8" style="mix-blend-mode:multiply"/><rect x="396.9" y="171.42" width="12.69" height="16.44" fill="#e6e7e8" style="mix-blend-mode:multiply"/><rect x="423.3" y="171.42" width="12.69" height="16.44" fill="#e6e7e8" style="mix-blend-mode:multiply"/><rect x="370.5" y="200.43" width="12.69" height="16.44" fill="#e6e7e8" style="mix-blend-mode:multiply"/><rect x="423.3" y="200.43" width="12.69" height="16.44" fill="#e6e7e8" style="mix-blend-mode:multiply"/><rect x="370.5" y="229.44" width="12.69" height="16.44" fill="#e6e7e8" style="mix-blend-mode:multiply"/><rect x="396.9" y="229.44" width="12.69" height="16.44" fill="#e6e7e8" style="mix-blend-mode:multiply"/><rect x="423.3" y="258.45" width="12.69" height="16.44" fill="#e6e7e8" style="mix-blend-mode:multiply"/><rect x="370.5" y="316.48" width="12.69" height="16.44" fill="#e6e7e8" style="mix-blend-mode:multiply"/><rect x="576.12" y="267.98" width="12.69" height="16.44" fill="#e6e7e8" style="mix-blend-mode:multiply"/><rect x="646.62" y="267.98" width="12.69" height="16.44" fill="#e6e7e8" style="mix-blend-mode:multiply"/><rect x="610.43" y="223.33" width="12.69" height="16.44" fill="#e6e7e8" style="mix-blend-mode:multiply"/><rect x="814.41" y="248.13" width="12.69" height="16.44" fill="#e6e7e8" style="mix-blend-mode:multiply"/><rect x="814.41" y="306.74" width="12.69" height="16.44" fill="#e6e7e8" style="mix-blend-mode:multiply"/><rect x="814.41" y="336.04" width="12.69" height="16.44" fill="#e6e7e8" style="mix-blend-mode:multiply"/><rect x="835.63" y="365.34" width="12.69" height="16.44" fill="#e6e7e8" style="mix-blend-mode:multiply"/><rect x="814.41" y="423.94" width="12.69" height="16.44" fill="#e6e7e8" style="mix-blend-mode:multiply"/><rect x="835.63" y="423.94" width="12.69" height="16.44" fill="#e6e7e8" style="mix-blend-mode:multiply"/><rect x="637.69" y="223.33" width="12.69" height="16.44" fill="#e6e7e8" style="mix-blend-mode:multiply"/><rect x="576.12" y="301.05" width="12.69" height="16.44" fill="#e6e7e8" style="mix-blend-mode:multiply"/><rect x="599.62" y="301.05" width="12.69" height="16.44" fill="#e6e7e8" style="mix-blend-mode:multiply"/><rect x="576.12" y="334.13" width="12.69" height="16.44" fill="#e6e7e8" style="mix-blend-mode:multiply"/><rect x="623.12" y="334.13" width="12.69" height="16.44" fill="#e6e7e8" style="mix-blend-mode:multiply"/><rect x="646.62" y="334.13" width="12.69" height="16.44" fill="#e6e7e8" style="mix-blend-mode:multiply"/><rect x="599.62" y="367.2" width="12.69" height="16.44" fill="#e6e7e8" style="mix-blend-mode:multiply"/><rect x="576.12" y="400.27" width="12.69" height="16.44" fill="#e6e7e8" style="mix-blend-mode:multiply"/><rect x="623.12" y="400.27" width="12.69" height="16.44" fill="#e6e7e8" style="mix-blend-mode:multiply"/><rect x="646.62" y="400.27" width="12.69" height="16.44" fill="#e6e7e8" style="mix-blend-mode:multiply"/><rect x="576.12" y="466.42" width="12.69" height="16.44" fill="#e6e7e8" style="mix-blend-mode:multiply"/><rect x="623.12" y="466.42" width="12.69" height="16.44" fill="#e6e7e8" style="mix-blend-mode:multiply"/><rect x="185.26" y="390.36" width="22.85" height="29.59" fill="#e6e7e8" style="mix-blend-mode:multiply"/><rect x="258.73" y="238.5" width="70.06" height="7.62" fill="#e6e7e8"/><rect x="478.71" y="216.93" width="56.94" height="7.62" fill="#e6e7e8"/><rect x="478.71" y="233.36" width="56.94" height="7.62" fill="#e6e7e8"/><rect x="478.71" y="282.68" width="56.94" height="7.62" fill="#e6e7e8"/><rect x="706.85" y="267.98" width="56.94" height="7.62" fill="#e6e7e8"/><rect x="706.85" y="284.42" width="56.94" height="7.62" fill="#e6e7e8"/><rect x="706.85" y="317.29" width="56.94" height="7.62" fill="#e6e7e8"/><rect x="706.85" y="366.61" width="56.94" height="7.62" fill="#e6e7e8"/><rect x="706.85" y="399.48" width="56.94" height="7.62" fill="#e6e7e8"/><rect x="706.85" y="432.36" width="56.94" height="7.62" fill="#e6e7e8"/><rect x="706.85" y="465.23" width="56.94" height="7.62" fill="#e6e7e8"/><rect x="478.71" y="331.99" width="56.94" height="7.62" fill="#e6e7e8"/><rect x="478.71" y="364.86" width="56.94" height="7.62" fill="#e6e7e8"/><rect x="258.73" y="260.36" width="70.06" height="7.62" fill="#e6e7e8"/><rect x="258.73" y="282.23" width="70.06" height="7.62" fill="#e6e7e8"/><rect x="258.73" y="325.97" width="70.06" height="7.62" fill="#e6e7e8"/><rect x="258.73" y="369.7" width="70.06" height="7.62" fill="#e6e7e8"/><rect x="258.73" y="391.57" width="70.06" height="7.62" fill="#e6e7e8"/><rect x="258.73" y="435.3" width="70.06" height="7.62" fill="#e6e7e8"/><rect x="258.73" y="479.04" width="70.06" height="7.62" fill="#e6e7e8"/></g><path d="M460.61,300.74c-.59-.73-1.45-2.29-2.41-3.43,0-.31-.23-.72-.78-1.23a2.83,2.83,0,0,1-.34-.35,7.56,7.56,0,0,0-2.55-2.31,10.85,10.85,0,0,0-5.79-1.08c-.67.09-2.8.41-4.87.8v0a55.13,55.13,0,0,0-9.05,1.82,19.31,19.31,0,0,1-9.58.13l-65-15.85-5.75-10.34L352.19,298l76,4.84a5.48,5.48,0,0,1,2.91,1.12h0c3.24,3.17,7.1,3.57,12.58,4a17.46,17.46,0,0,1,4.92,1.59c1.43.63,2.09-.93,1.72-1.93-.51-1.41-2.87-2.72-6-3a3.77,3.77,0,0,1-1.21-.29l1.51-.08A15.94,15.94,0,0,1,448,304a21.49,21.49,0,0,1,4.59.69s1.63,1.47,2.11,1.86c1.61,1.33,3.79.27,2.06-2-.59-.78-1.29-2.11-1.85-2.37l-.65-.44c1.6.42,2.11,1.71,2.67,2,1.46.83,2.73.17,2.45-.85l.27,0h.05C460.76,303.09,461.65,302,460.61,300.74Z" fill="#f9c7a5"/><g clip-path="url(#f35d05f6-5804-4250-aa81-31e53795408f)"><path d="M355.15,270.23l-3,27.72,43.37,2.9s-35.11-5.72-37.15-12.66Z" fill="#f7a091"/></g><path d="M460.61,300.74c-.59-.73-1.45-2.29-2.41-3.43,0-.31-.23-.72-.78-1.23a2.83,2.83,0,0,1-.34-.35,7.56,7.56,0,0,0-2.55-2.31,10.85,10.85,0,0,0-5.79-1.08c-.67.09-2.8.41-4.87.8v0a55.13,55.13,0,0,0-9.05,1.82,19.31,19.31,0,0,1-9.58.13l-65-15.85-5.75-10.34L352.19,298l76,4.84a5.48,5.48,0,0,1,2.91,1.12h0c3.24,3.17,7.1,3.57,12.58,4a17.46,17.46,0,0,1,4.92,1.59c1.43.63,2.09-.93,1.72-1.93-.51-1.41-2.87-2.72-6-3a3.77,3.77,0,0,1-1.21-.29l1.51-.08A15.94,15.94,0,0,1,448,304a21.49,21.49,0,0,1,4.59.69s1.63,1.47,2.11,1.86c1.61,1.33,3.79.27,2.06-2-.59-.78-1.29-2.11-1.85-2.37l-.65-.44c1.6.42,2.11,1.71,2.67,2,1.46.83,2.73.17,2.45-.85l.27,0h.05C460.76,303.09,461.65,302,460.61,300.74Z" fill="none" stroke="#351d66" stroke-miterlimit="10"/><path d="M120.85,413.12s33,5.53,38.55,18.17L189.47,415l-9.62-6.27Z" fill="#d2e1f9" stroke="#351d66" stroke-miterlimit="10"/><path d="M115.92,434.36l39.21-.34s-25.45,23.34-33.74,44.8l-18.65-15.14Z" fill="#d2e1f9" stroke="#351d66" stroke-miterlimit="10"/><ellipse cx="109.11" cy="448.76" rx="16.22" ry="8.42" transform="translate(-348.59 387.13) rotate(-68.67)" fill="#7ddcf2" stroke="#351d66" stroke-miterlimit="10"/><polygon points="334.42 211.25 331.86 202.61 336.47 205.31 334.42 211.25" fill="#251760"/><polygon points="332.71 215.54 337.03 203.07 358.02 210.32 351.93 227.95 332.71 215.54" fill="#f9c7a5"/><g clip-path="url(#f77051e9-1015-4783-bd0e-a9f49161e330)"><path d="M336.87,205.68s8.32,17.12,16.62,17.73l-1.44,3.67-18.91-13.65Z" fill="#f7a091"/></g><polygon points="332.71 215.54 337.03 203.07 358.02 210.32 351.93 227.95 332.71 215.54" fill="none" stroke="#351d66" stroke-miterlimit="10"/><polygon points="376.56 485 376.35 495.78 394.55 496.65 394.47 486.73 376.56 485" fill="#f9c7a5" stroke="#351d66" stroke-miterlimit="10"/><polygon points="407.41 498.22 408.77 486.89 392.07 488.13 392.05 498.34 407.41 498.22" fill="#f9c7a5" stroke="#351d66" stroke-miterlimit="10"/><path d="M411.84,488.65A22.75,22.75,0,0,1,401.76,490l3.89-137.74s26.29-1.4,27.8,15.74c0,0,1.42,25-9.65,68.39Z" fill="#f48225" data-secondary="true"/><g clip-path="url(#b5e723a9-5619-42c1-a2a8-5a600b910ec3)"><path d="M401.76,490a16.22,16.22,0,0,0,5-.35s39.36-137.26,9.72-136.06Z" opacity="0.2"/></g><path d="M411.84,488.65A22.75,22.75,0,0,1,401.76,490l3.89-137.74s26.29-1.4,27.8,15.74c0,0,1.42,25-9.65,68.39Z" fill="none" stroke="#351d66" stroke-miterlimit="10"/><circle cx="571.92" cy="575.2" r="78.49" fill="#d2e1f9" stroke="#351d66" stroke-miterlimit="10"/><ellipse cx="571.71" cy="577.52" rx="49.69" ry="50.25" transform="translate(-160.92 929.14) rotate(-70.93)" fill="#89b5f7"/><ellipse cx="571.92" cy="575.2" rx="33.31" ry="33.69" transform="matrix(0.33, -0.95, 0.95, 0.33, -158.59, 927.77)" fill="#d2e1f9" stroke="#351d66" stroke-miterlimit="10"/><ellipse cx="572.43" cy="577.17" rx="16.75" ry="16.94" transform="translate(-160.11 929.58) rotate(-70.93)" fill="#89b5f7"/><circle cx="199.43" cy="575.78" r="78.49" fill="#d2e1f9" stroke="#351d66" stroke-miterlimit="10"/><ellipse cx="199.22" cy="578.1" rx="49.69" ry="50.25" transform="translate(-412.24 577.48) rotate(-70.93)" fill="#89b5f7"/><ellipse cx="199.43" cy="575.78" rx="33.31" ry="33.69" transform="translate(-409.91 576.12) rotate(-70.93)" fill="#d2e1f9" stroke="#351d66" stroke-miterlimit="10"/><ellipse cx="199.94" cy="577.75" rx="16.75" ry="16.94" transform="translate(-411.43 577.93) rotate(-70.93)" fill="#89b5f7"/><circle cx="556.77" cy="455.92" r="9.87" fill="#7ddcf2" stroke="#351d66" stroke-miterlimit="10"/><circle cx="554.81" cy="456.42" r="8.24" opacity="0.2"/><ellipse cx="498.64" cy="327.57" rx="18.76" ry="15.09" transform="translate(26.11 691.8) rotate(-70.93)" fill="#7ddcf2" stroke="#351d66" stroke-miterlimit="10"/><ellipse cx="494.26" cy="328.05" rx="18.76" ry="15.09" transform="translate(22.71 687.99) rotate(-70.93)" opacity="0.2"/><ellipse cx="373.01" cy="179.81" rx="32.9" ry="23.68" transform="translate(114.97 503.66) rotate(-77.19)" fill="#f9c7a5" stroke="#351d66" stroke-miterlimit="10"/><path d="M360.5,196c-1.1-5.29-3.24-22.49,12.44-31.94a32,32,0,0,1,8.79-3.56,56,56,0,0,1,13.91-1.9s4.83,1.45,1.68-8.06c0,0-9.24-32.91-49.7-23.62,0,0-34.46,8.48-32.42,44.38a42.13,42.13,0,0,0,9.58,24.87c5.73,6.8,15.08,13.37,29.86,13.61a3.81,3.81,0,0,0,1.37-.24c1.4-.54,4-2.24,4.74-7.46A18.26,18.26,0,0,0,360.5,196Z" fill="#686175" data-primary="true" stroke="#351d66" stroke-miterlimit="10"/><circle cx="345.04" cy="185.66" r="8.38" fill="#f48225" data-secondary="true" stroke="#351d66" stroke-miterlimit="10"/><path d="M360.12,194s30,2.39,39.33-13.68c0,0,10.53,11.85-4,26.33,0,0-18.53,21-42.09,3.28a.22.22,0,0,1,.15-.39c1.84.22,6-.15,7.25-7.46C360.75,202.06,361.28,197,360.12,194Z" fill="#f48225" data-secondary="true" stroke="#351d66" stroke-miterlimit="10"/><path d="M359.77,190.53s26,2.54,37.72-12.9a6.1,6.1,0,0,1,2,2.67s-5.94,15.24-39.33,13.68Z" fill="#fff" stroke="#351d66" stroke-miterlimit="10"/><path d="M350,209.66s1.34,9.86,14.69,6.63a.22.22,0,0,0,0-.43,27.78,27.78,0,0,1-12-6.17Z" fill="#594da9" stroke="#351d66" stroke-miterlimit="10"/><path d="M322.38,215.3s-14.94,7.92-20.95,29.79L278.25,345.5s53.78,15.05,70.4-1.6L357,242.13Z" fill="#686175" data-primary="true"/><g clip-path="url(#b4c69c5f-52b5-4d1c-9c7a-e30248fa8abc)"><path d="M278.25,345.5l8.75,2,21.05-1.41s-16.35-71.46,14.33-130.8c0,0-18.93,9.43-24.74,43.39Z" opacity="0.2"/></g><path d="M322.38,215.3s-14.94,7.92-20.95,29.79L278.25,345.5s53.78,15.05,70.4-1.6L357,242.13Z" fill="none" stroke="#351d66" stroke-miterlimit="10"/><path d="M497.15,304.33l-60.15,1,70.8,134.16s9.36,15-10.93,50.6c0,0-15.43,27-51.09,33.89,0,0-40.59,8.94-64,8.82l-90.25,2.08a12.14,12.14,0,0,0,9.18,6l166.72.46s6.28,2.17,11.59-9.12c0,0,24.44-55.77,70.13-57.78,0,0,9.1.8,7.42-12,0,0,3.08-25.18-29.57-24.28,0,0-5.62,1.33-8.88-8.23l-42.52-81.73,20.65.4Z" fill="#7ddcf2"/><g clip-path="url(#e0b47bb9-ee14-4d43-a9d6-91659a12e5fc)"><path d="M475.61,348.19s15.09-6.77,21.54-43.86l-.89,44.26Z" opacity="0.2"/></g><path d="M497.15,304.33l-60.15,1,70.8,134.16s9.36,15-10.93,50.6c0,0-15.43,27-51.09,33.89,0,0-40.59,8.94-64,8.82l-90.25,2.08a12.14,12.14,0,0,0,9.18,6l166.72.46s6.28,2.17,11.59-9.12c0,0,24.44-55.77,70.13-57.78,0,0,9.1.8,7.42-12,0,0,3.08-25.18-29.57-24.28,0,0-5.62,1.33-8.88-8.23l-42.52-81.73,20.65.4Z" fill="none" stroke="#351d66" stroke-miterlimit="10"/><path d="M496.86,300.68l-.6,47.91,2.95,0a3.91,3.91,0,0,0,3.87-4l-.3-16.14,8.83-25.55a1.62,1.62,0,0,0-1.52-2.16Z" fill="#d2e1f9" stroke="#351d66" stroke-miterlimit="10"/><path d="M482,550.09l178,0s-24.1-80.62-103-70.25C557.09,479.86,506.52,482.69,482,550.09Z" fill="#7ddcf2"/><g clip-path="url(#e8d7bd0d-31c8-489c-ad41-14a04c7f1e5f)"><path d="M482,550.09l34.05-.09s28.77-78.33,106.39-53.59c0,0-45.07-37.44-96.18-5.1C526.28,491.31,496.83,506.13,482,550.09Z" opacity="0.2"/></g><path d="M482,550.09l178,0s-24.1-80.62-103-70.25C557.09,479.86,506.52,482.69,482,550.09Z" fill="none" stroke="#351d66" stroke-miterlimit="10"/><path d="M103,555.2l190.74-.45s-28.28-100-115.61-78.34C178.1,476.41,128.5,484.94,103,555.2Z" fill="#7ddcf2"/><g clip-path="url(#b2f522d8-c8bf-4e23-8814-aefff2c47f78)"><path d="M103,555.2l24.59.16s48.73-106.73,131.11-58.86c0,0-45.73-48.35-111.34-5C147.33,491.53,117.76,511.47,103,555.2Z" opacity="0.2"/></g><path d="M103,555.2l190.74-.45s-28.28-100-115.61-78.34C178.1,476.41,128.5,484.94,103,555.2Z" fill="none" stroke="#351d66" stroke-miterlimit="10"/><path d="M107.84,530s30-64.85,100.9-60.75c0,0,56.34,5.32,82.8,65.58l95.84-2.07s38.9-2.88,60.23-8.91c0,0,28.08-2.17,49.26-33.81,0,0-63.44,54.56-142,7,0,0-18.94-12-27.41-31.69a44.42,44.42,0,0,1,13.92-52.71l.14-.11s3.23-6.25-5.22-6.85l-109.35-.22S115.69,408.1,107.84,530Z" fill="#d2e1f9"/><g clip-path="url(#f34f9291-f91b-4801-a9b3-ba5c61643374)"><path d="M331.73,423l-95.84.13s-63.61-.71-103.15,73.88c0,0-13.12,12.78-19,22.91,0,0-.27-41.55,44.84-80.95,0,0,28.66-26.45,75.6-27.52l83.9-.26,23.79.46s.57.29-.52,1C341.34,412.65,333,419.64,331.73,423Z" fill="#89b5f7"/><path d="M107.84,530a52,52,0,0,1,5.89-10.14s7.94-88.38,102.92-106.55c0,0,6.78-1.64,19.24-1.77l106,.05s1.85-5.35-5.6-5.93l-110.18-.39s-68.28,1.89-101.67,62.85C124.41,468.15,108.35,495.36,107.84,530Z" fill="#7ddcf2"/></g><path d="M107.84,530s30-64.85,100.9-60.75c0,0,56.34,5.32,82.8,65.58l95.84-2.07s38.9-2.88,60.23-8.91c0,0,28.08-2.17,49.26-33.81,0,0-63.44,54.56-142,7,0,0-18.94-12-27.41-31.69a44.42,44.42,0,0,1,13.92-52.71l.14-.11s3.23-6.25-5.22-6.85l-109.35-.22S115.69,408.1,107.84,530Z" fill="none" stroke="#351d66" stroke-miterlimit="10"/><path d="M59.25,410.24h0a5,5,0,0,0,5.07,5.06l122.32-.8s24.24-9,38.35-8.75L64.3,405.22A5,5,0,0,0,59.25,410.24Z" fill="#7ddcf2" stroke="#351d66" stroke-miterlimit="10"/><rect x="247.45" y="364.71" width="117.93" height="40.92" rx="14.34" transform="translate(1.49 -1.18) rotate(0.22)" fill="#d2e1f9"/><g clip-path="url(#b1167f0e-af34-4e58-a6a9-65bdf6cf1191)"><path d="M267.21,364.75s-11.26,27.71,13,28.58l85.15-1.82,10.89,8.78s-15.43,12.57-16.58,14.28-111.42-8-111.42-8l-8.58-14.86v-20l5.72-9.71Z" fill="#89b5f7"/></g><rect x="247.45" y="364.71" width="117.93" height="40.92" rx="14.34" transform="translate(1.49 -1.18) rotate(0.22)" fill="none" stroke="#351d66" stroke-miterlimit="10"/><path d="M287,347.51s-5.45,32.23,22.09,36.07c0,0,63,5.14,78.4,2.18,0,0,3.55-1.4,1.37,6.16,0,0-17.2,77.58-13.59,93.7,0,0,17.82,7.91,26.49,4.35,0,0,22.18-78.05,23.22-112.68,0,0,5.65-26.48-19.33-25.06l-57-8.33Z" fill="#f48225" data-secondary="true"/><g clip-path="url(#b5aa1042-46ca-4722-ae63-64225edc2739)"><path d="M316.51,344.33s-12.4,21.83,22.86,26.13a87.05,87.05,0,0,0,18.61.15c7-.65,19.95-1.33,29.63,1.25a15.1,15.1,0,0,1,11,16.76l-14.5,100.57-8.88-3.57s-.2-37.14,13.59-93.7c0,0,4.19-10.52-6.72-5.21,0,0-111.59,21.88-95.14-39.2Z" opacity="0.2"/></g><path d="M287,347.51s-5.45,32.23,22.09,36.07c0,0,63,5.14,78.4,2.18,0,0,3.55-1.4,1.37,6.16,0,0-17.2,77.58-13.59,93.7,0,0,17.82,7.91,26.49,4.35,0,0,22.18-78.05,23.22-112.68,0,0,5.65-26.48-19.33-25.06l-57-8.33Z" fill="none" stroke="#351d66" stroke-miterlimit="10"/><polygon points="407.78 495.61 392.09 494.35 392.05 498.34 407.41 498.22 407.78 495.61" fill="#e6e7e8" stroke="#351d66" stroke-miterlimit="10"/><polygon points="218.73 405.97 68.38 405.38 68.1 294.57 218.72 294.56 218.73 405.97" fill="#f48225" data-secondary="true"/><g clip-path="url(#abda60e7-e961-4d00-885d-61701d357a02)"><rect x="68.1" y="294.57" width="150.62" height="8.83" opacity="0.2"/></g><polygon points="218.73 405.97 68.38 405.38 68.1 294.57 218.72 294.56 218.73 405.97" fill="none" stroke="#351d66" stroke-miterlimit="10"/><rect x="63.79" y="276.39" width="159.25" height="18.18" fill="#f48225" data-secondary="true" stroke="#351d66" stroke-miterlimit="10"/><text transform="translate(89.26 343.22)" font-size="22.73" fill="#fff" font-family="RobotoSlab-Black, Roboto Slab" font-weight="800">DELIVE<tspan x="83.96" y="0" letter-spacing="-0.05em">R</tspan><tspan x="98.63" y="0">Y</tspan></text><text transform="translate(89.27 368.78)" font-size="22.73" fill="#fff" font-family="RobotoSlab-Black, Roboto Slab" font-weight="800">SE<tspan x="28.64" y="0" letter-spacing="-0.05em">R</tspan><tspan x="43.35" y="0" letter-spacing="0em">VICE</tspan></text><polygon points="86.89 316.74 86.21 319.62 143.41 319.61 163.9 316.74 86.89 316.74" fill="#fff"/><polygon points="87.92 312.23 87.24 315.1 187.54 315.1 208.02 312.22 87.92 312.23" fill="#fff"/><polygon points="86.9 378.39 86.22 381.26 143.41 381.26 163.9 378.39 86.9 378.39" fill="#fff"/><polygon points="87.92 373.88 87.25 376.75 187.54 376.75 208.03 373.87 87.92 373.88" fill="#fff"/><path d="M377.68,494.19l17.19.29-.32,2.17s-12.11,7.61-18.2-.87l-.11-.77a.79.79,0,0,1,.89-.9Z" fill="#e6e7e8" stroke="#351d66" stroke-miterlimit="10"/><path d="M422.76,498.11s14.68,1.48,12.86,18.51a1.73,1.73,0,0,1-1.7,1.53l-63.12.26s-2.82-1-1-5.44l48,.63S416.62,504.44,422.76,498.11Z" fill="#e6e7e8" stroke="#351d66" stroke-miterlimit="10"/><path d="M369.76,513l48,.63s-.57-9.45,5-15.49l-28.21-1.46s-11.14,7.31-18.2-.87C376.35,495.78,365.94,496.33,369.76,513Z" fill="#f48225" data-secondary="true" stroke="#351d66" stroke-miterlimit="10"/><polygon points="481.32 317.54 480.76 308.02 438.9 307.37 420.05 309.85 420.54 317.73 481.32 317.54" fill="#d2e1f9" stroke="#351d66" stroke-miterlimit="10"/><line x1="478.52" y1="310.78" x2="423.02" y2="310.55" fill="none" stroke="#351d66" stroke-miterlimit="10"/><polygon points="320.93 214.35 327.16 208.52 359.5 232.34 358.84 243.87 320.93 214.35" fill="#686175" data-primary="true"/><g clip-path="url(#ad342973-18e1-49fe-abf4-e0d30798a995)"><path d="M327.16,208.52s20.13,25.78,32.35,35.37l-38.58-29.54Z" opacity="0.2"/></g><polygon points="320.93 214.35 327.16 208.52 359.5 232.34 358.84 243.87 320.93 214.35" fill="none" stroke="#351d66" stroke-miterlimit="10"/><path d="M719.66,166c.08-2.1.07-4.1,0-6" fill="none" stroke="#351d66" stroke-miterlimit="10"/><path d="M718.05,148.08c-3.68-14.7-12.84-21-21.22-23.56a35.66,35.66,0,0,0-22.92.9c-52.14,19.44-65.23,42.09-64,61S639.67,203.93,639,185c-.77-22.93-9.63-48.52-42.78-57.06-22.79-5.88-47.2,2-61.11,20.94-5.82,7.93-9.92,17.85-9.13,29.75,0,0,0,39.5,31.18,35.58a38.18,38.18,0,0,0,33.13-38.11c-.08-17.29-9.3-39.61-46.54-58.75a53.74,53.74,0,0,0-43.21-3c-12.37,4.59-24.63,14.42-27.51,35.12-1.2,8.63,5.68,16.57,14.39,16.14,7.69-.38,14.38-7.32,8.8-34.6,0,0-23.8-92.84-135.69-92.84,0,0-109.5-15.47-192.82,101.17,0,0-29.76,47.62-34.52,75,0,0-4.87,21.65-1.82,40.18" fill="none" stroke="#351d66" stroke-miterlimit="10" stroke-dasharray="12.05 12.05"/><path d="M132.69,260.37a40.43,40.43,0,0,0,2,5.64" fill="none" stroke="#351d66" stroke-miterlimit="10"/><path d="M704.47,202.4l18.12,36.35L741.92,203c5.73-13.11-3.32-28.13-17.6-28.78l-.64,0c-.21,0-.43,0-.64,0C708.74,174.41,699.18,189.11,704.47,202.4Zm9.38-7.48a9.48,9.48,0,1,1,9.31,9.63A9.49,9.49,0,0,1,713.85,194.92Z" fill="#f48225" data-secondary="true" stroke="#351d66" stroke-miterlimit="10"/><path d="M180.58,655.53H40.43s-64.07-19.82,0-19.15c0,0-37.71-28,19.35-21.35s62.4,23.68,62.4,23.68S133.53,618.63,180.58,655.53Z" fill="#fff" opacity="0.8"/><path d="M364.48,655.13l91.15-.66s-49.79-28.68-56.8-16.16C398.83,638.31,310.61,620.06,364.48,655.13Z" fill="#fff" opacity="0.8"/><path d="M650.58,655.2H490.73s-14.3-17.14,17.15-10.92c0,0-20.4-26.25,26.74-15.74l28.65,9.6S516.51,579,569,599.51,650.58,655.2,650.58,655.2Z" fill="#fff" opacity="0.8"/><ellipse cx="387.63" cy="171.41" rx="2.1" ry="3.51" transform="translate(-30.11 99.76) rotate(-14.12)" fill="#351d66"/><path d="M434.44,310.2c-.64-.69-1.58-2.2-2.6-3.29,0-.31-.28-.7-.85-1.18l-.36-.33a7.58,7.58,0,0,0-2.67-2.17,11,11,0,0,0-5.85-.76c-.66.14-2.77.58-4.81,1.08l0,0a41.3,41.3,0,0,0-5.83,1.35,21,21,0,0,1-8.38.74l-50.8-6-3.71-19.91s-12.92,6.13-23.07,7.44l6.06,27.8s.62,4.71,12.05,4.17l60.71-2.44a14.05,14.05,0,0,1,4.9.69c2.46.8,5.26.91,8.71,1a17.23,17.23,0,0,1,5,1.31c1.46.55,2-1.05,1.61-2-.59-1.38-3-2.56-6.15-2.66a4.29,4.29,0,0,1-1.23-.22l1.5-.16a15,15,0,0,1,3.41-.4,21.13,21.13,0,0,1,4.62.43s1.71,1.38,2.21,1.74c1.68,1.24,3.8.06,1.95-2.07-.64-.74-1.41-2-2-2.26l-.67-.4c1.61.32,2.2,1.59,2.78,1.88,1.5.75,2.73,0,2.39-1a1.35,1.35,0,0,0,.28,0h.05C434.71,312.54,435.55,311.41,434.44,310.2Z" fill="#f9c7a5"/><g clip-path="url(#a2a27299-0cde-4937-b3be-1872463d9e4d)"><path d="M337.59,284.52l1,15.9a12.38,12.38,0,0,0,10.81,11.5l38.83,4.85-50.63,2s-6.77.36-6-3.9l-6.06-27.8Z" fill="#f7a091"/></g><path d="M434.44,310.2c-.64-.69-1.58-2.2-2.6-3.29,0-.31-.28-.7-.85-1.18l-.36-.33a7.58,7.58,0,0,0-2.67-2.17,11,11,0,0,0-5.85-.76c-.66.14-2.77.58-4.81,1.08l0,0a41.3,41.3,0,0,0-5.83,1.35,21,21,0,0,1-8.38.74l-50.8-6-3.71-19.91s-12.92,6.13-23.07,7.44l6.06,27.8s.62,4.71,12.05,4.17l60.71-2.44a14.05,14.05,0,0,1,4.9.69c2.46.8,5.26.91,8.71,1a17.23,17.23,0,0,1,5,1.31c1.46.55,2-1.05,1.61-2-.59-1.38-3-2.56-6.15-2.66a4.29,4.29,0,0,1-1.23-.22l1.5-.16a15,15,0,0,1,3.41-.4,21.13,21.13,0,0,1,4.62.43s1.71,1.38,2.21,1.74c1.68,1.24,3.8.06,1.95-2.07-.64-.74-1.41-2-2-2.26l-.67-.4c1.61.32,2.2,1.59,2.78,1.88,1.5.75,2.73,0,2.39-1a1.35,1.35,0,0,0,.28,0h.05C434.71,312.54,435.55,311.41,434.44,310.2Z" fill="none" stroke="#351d66" stroke-miterlimit="10"/><path d="M352.16,278.59s-21.25,9.51-30.79,8.87c0,0-11.76-36.65-1.24-50.54a9.73,9.73,0,0,1,12.21-2.8C338.54,237.36,347.14,247.64,352.16,278.59Z" fill="#686175" data-primary="true"/><g clip-path="url(#f97fe173-7604-4a24-88e8-5c52d8d3debd)"><path d="M321.37,287.46l4.12-.35S312,236.32,336.58,237.06c0,0-11.08-10.93-18.53,3.57,0,0-3.52,7-2,21.72C316.09,262.35,317.71,276.88,321.37,287.46Z" opacity="0.2"/></g><path d="M352.16,278.59s-21.25,9.51-30.79,8.87c0,0-11.76-36.65-1.24-50.54a9.73,9.73,0,0,1,12.21-2.8C338.54,237.36,347.14,247.64,352.16,278.59Z" fill="none" stroke="#351d66" stroke-miterlimit="10"/></g></g></svg>