<svg id="b88bd697-d924-451d-9f04-f33d475a3e40" data-name="Layer 1" xmlns="http://www.w3.org/2000/svg" xmlns:xlink="http://www.w3.org/1999/xlink" width="865.76" height="682.89" viewBox="0 0 865.76 682.89"><defs><clipPath id="bf65fc1a-6ed2-451a-a231-153dd9923092"><polygon id="bb7cf6ed-45c3-4f64-9d68-50ad27214367" data-name="SVGID" points="166.97 603.75 99.19 603.75 108.85 532.95 111.32 514.8 154.83 514.8 157.29 532.95 166.97 603.75" fill="#aac8f9" stroke="#6259b0" stroke-miterlimit="10"/></clipPath><clipPath id="f960d2d8-a9ce-4426-8593-90b70bac7b1a"><path id="a1acafdc-8f2f-43c3-9500-e3f3c49cab50" data-name="SVGID" d="M588.47,306.13s-20.15,26.79-9,85.93c0,0,11.57,57-.43,63.86,0,0,24,5.57,49.28,36,0,0,11.79,7.92,14.15,13.71,0,0,34.71-10.5,69.85-4.5,0,0,14-42,10-105.55,0,0,1.91-54-25.9-73.32,0,0-13.53-14.28-39.74-8.89l-55.35-10.88-8.78-3.43Z" fill="#686175" data-primary="true" stroke="#351d66" stroke-miterlimit="10"/></clipPath><clipPath id="e0198f08-793c-4558-946e-696bf8d03e71"><path id="b88845be-7f6d-49f8-8f09-1515b71d4f51" data-name="SVGID" d="M627,389.92s55.28,5.57,63,9c0,0,12.32-59,6.37-76.66a43.54,43.54,0,0,0-39.74-8.89s-26.63,6.26-27.49,52.12Z" fill="#686175" data-primary="true" stroke="#351d66" stroke-miterlimit="10"/></clipPath><clipPath id="b41e57bd-a72d-4d9c-9b2d-2e9ad9bc422a"><path id="b4f0aef1-53f2-4fec-b35d-5208ac3f9bfd" data-name="SVGID" d="M539.18,369.34l74.14,43.72c15.43,12,16.31-22.88,16.31-22.88q15.81,1.45,32.81,3.81,12,1.69,23.34,3.7l-23.24,62.08s-17.79,25.72-47.93,0c0,0-49-36.86-76.92-66.33a20,20,0,0,0-9.61-5.59c-5.8-1.46-14.71-3.36-21.45-3.22a14.68,14.68,0,0,1-10.23-3.71c-1.53-1.39-3.41-3.21-5.65-5.58,0,0-14.63-15.54-24.17-19.24a1.79,1.79,0,0,1-.81-2.79,1.59,1.59,0,0,1,1.27-.54s-11.57-9.71-.14-7.71c0,0,20.85,9.14,28.57,9.14l8.39-.19a.57.57,0,0,0,.16-1.12c-7.35-2.2-22.69-7.75-19.41-15,0,0,1.71-3.43,10,0a146.82,146.82,0,0,1,22.12,6.41,34.73,34.73,0,0,1,18.38,16.87Z" fill="#f9c7a5" stroke="#351d66" stroke-miterlimit="10"/></clipPath><clipPath id="b8c0c328-4e80-4cbf-a620-f1867eb36858"><path id="b47e9cb4-edaf-4bb7-a6ca-4af19857456d" data-name="SVGID" d="M469.78,357.66s-9.74,10.83-4.88,15.11c0,0,7.42,8,10.57,8,0,0,2.77,5.49,7,6.87a3.13,3.13,0,0,0,4-3.12c-.06-2.41-.21-5.74-2.53-8.36a1.46,1.46,0,0,1-.29-.55,27.58,27.58,0,0,1-.66-7.81c.35-2.28-3.55-3.32-5.73-5A66.43,66.43,0,0,0,469.78,357.66Z" fill="#f9c7a5" stroke="#351d66" stroke-miterlimit="10"/></clipPath><clipPath id="a0b29476-867b-4668-afd2-4b359a314e49"><path id="fe9337c9-d806-4553-ae60-2c9bf556475a" data-name="SVGID" d="M542.71,369.13s14.32-43.16,45.76-63c0,0-17.77,26.43-10.28,78.4C578.19,384.53,551.51,374.77,542.71,369.13Z" fill="#686175" data-primary="true" stroke="#351d66" stroke-miterlimit="10"/></clipPath><clipPath id="a8dd42e0-4472-41c0-844c-f7622b6727d5"><path id="ae19595d-9550-4149-84ba-41607a997188" data-name="SVGID" d="M313.14,582.77l28.33,23.56a3.7,3.7,0,0,0,4.11.41l122.49-65.58s47.49,21.81,76.82,27.9c0,0,7.42-11.93,17-19.29,0,0-34.18-5.57-79.16-34.14l-89,3-80.42,58.36A3.69,3.69,0,0,0,313.14,582.77Z" fill="#f48225" data-secondary="true" stroke="#351d66" stroke-miterlimit="10"/></clipPath><clipPath id="a0c5e1b9-1974-4f04-b79f-1065394200ea"><path id="fbb20811-5c4e-4a2c-89f7-e62aefc68157" data-name="SVGID" d="M350.09,593.32l36.3,15.23a8,8,0,0,0,7.55-.73c14.13-9.48,65.8-45.94,85.27-84.3a8,8,0,0,1,11.13-3.38c14.51,8.37,46.58,25.78,67.92,29.18a8,8,0,0,0,6.22-1.6c8.92-7,39.31-29.77,66.09-39a8,8,0,0,0,2.12-14c-1-.71-2-1.41-3.11-2.09a8.39,8.39,0,0,1-2.12-1.82c-4.17-5.09-23.16-26.88-48-34.8-.27-.08-.53-.15-.81-.21-5.8-1.26-71.9-15.38-106.31-16.2,0,0-8.57-1.29-20.57,9.86,0,0-32.85,31.75-58,69.09l-47,62.55A8,8,0,0,0,350.09,593.32Z" fill="#f48225" data-secondary="true" stroke="#351d66" stroke-miterlimit="10"/></clipPath><clipPath id="a94f8196-c3d9-463b-8adc-c48f2e32a40b"><path id="abeff5ea-d427-4415-8b67-4a7918f7e193" data-name="SVGID" d="M535,228.17s62.09-7.34,61.83,52.13c0,0-4.71,50,1,73.1,0,0,9.17,25.67-11.79,32.75,0,0,29.34,16,39.56-16.77l3.67-12.84s5.24-53.44,47.42-43.49c0,0,24.36.79,39,38.25a181,181,0,0,1,6.54,44.28s15.1-7.12,18.43-34.35a81.14,81.14,0,0,0-11.89-52.42,129.08,129.08,0,0,0-17.3-22.1A112.26,112.26,0,0,0,694,272.15c-8.07-5.47-21.55-14.39-30.1-18.95,0,0-13.35-7.78-25.75-25.32,0,0-28.25-51.82-62.11-48.39,0,0-29.07-5.15-47.11,30,0,0-10.52,13.69-1.4,37.71.84,2.22,1.6,4.47,2.3,6.74a76.1,76.1,0,0,0,5.83,13.84,54.44,54.44,0,0,0,6.07,9c3,3.65,9.44,14.21,6.45,36,0,0-9.57,38.56-3.79,51.85,0,0,13.47-36.85,44.08-58.49l4.07-7.07s-3.87-7.94-7.51-11.68c0,0-4.52,4.52-13.29,4.13,0,0-10.13.72-25.08-20.29,0,0-17.94-23.52-17.69-45.93C529,225.29,529.09,227.35,535,228.17Z" fill="#f48225" data-secondary="true" stroke="#351d66" stroke-miterlimit="10"/></clipPath></defs><path d="M470.12,26.06H212.71a26.29,26.29,0,0,0-26.05,26.52h0v530a26.31,26.31,0,0,0,26.05,26.53H470.12a26.31,26.31,0,0,0,26.08-26.53v-530a26.3,26.3,0,0,0-26.08-26.53Z" fill="#aac8f9" stroke="#6259b0" stroke-miterlimit="10"/><path d="M477.82,565.79c0,14-10.43,25.23-23.32,25.23H224.2c-12.92,0-23.37-11.23-23.37-25.23V72.32c0-28.41,10.45-29.79,23.37-29.79h46.13c2.68,0,4.81,3,4.81,6.83V51c0,8.86,4.82,8.88,10.81,8.88H392.68c6,0,10.8,0,10.8-8.88V49.37c0-3.77,2.15-6.82,4.81-6.82h46.18c12.84,0,23.32,3.77,23.32,29.79Z" fill="#d2e1f9"/><path d="M353.87,48.35h-29.1a1.8,1.8,0,0,1-1.8-1.8h0a1.8,1.8,0,0,1,1.8-1.79h29.1a1.8,1.8,0,0,1,1.8,1.79h0A1.8,1.8,0,0,1,353.87,48.35Z" fill="#d2e1f9"/><rect x="320.53" y="316.27" width="33.61" height="4.37" fill="#aac8f9"/><rect x="218.29" y="109.81" width="70.54" height="70.54" fill="#e9f0fc"/><path d="M261.2,154.27l-9.28-3.1s-4.82,3.64-8-2.55a7.59,7.59,0,0,1-9.44-5.1l-.11-.38s-8.87-2.81-6.32-7.81,9.63.25,9.63.25a9.62,9.62,0,0,1,9.53,6.63s6.76,0,6.78,6.2Z" fill="#251860"/><path d="M232.11,137.19q3.75,2,7.42,4c2.47,1.36,4.91,2.74,7.35,4.16s4.81,2.82,7.24,4.3,4.81,3,7.08,4.57l-1.8-1.09L257.58,152,254,150l-7.31-4.21-7.27-4.3Z" fill="#fff"/><path d="M261.66,153.94l.1-9.79s5-3.3.17-8.39a7.58,7.58,0,0,0-1.74-10.59,2.75,2.75,0,0,0-.33-.23s.24-9.29-5.32-8.52-2.88,9.18-2.88,9.18a9.64,9.64,0,0,0,3.21,11.24s-2.21,6.42,3.66,8.41Z" fill="#251860"/><path d="M255,120.9c.58,2.76,1.14,5.5,1.69,8.26l1.6,8.27,1.61,8.26.83,4.13.44,2.07.45,2.05c-.79-2.69-1.43-5.44-2-8.18s-1.17-5.49-1.7-8.25-1.06-5.52-1.61-8.3S255.43,123.67,255,120.9Z" fill="#fff"/><path d="M262.21,155.45l-9.09-9.53s-7.65,1.88-8.31-7.3c0,0-9.89-1.24-8.65-11.66,0,0-9.25-8-3.53-12.84s11.57,5.41,11.57,5.41a12.62,12.62,0,0,1,8,13s8,3.58,4.82,11.06Z" fill="#aac8f9"/><path d="M238.49,119.28c2.27,2.79,4.46,5.68,6.56,8.6l1.6,2.2,1.61,2.23c.51.74,1,1.49,1.51,2.23l1.51,2.26c1,1.51,2,3,2.92,4.56l1.41,2.31.72,1.14L257,146c1.86,3.1,3.58,6.28,5.23,9.49l-.69-1.16-.69-1.17-.69-1.17-.71-1.14-1.39-2.31-1.43-2.31c-1.91-3.05-3.85-6.1-5.84-9.1-1-1.51-2-3-3-4.5l-1.51-2.24-1.52-2.23-3.08-4.45C240.59,122.21,239.53,120.75,238.49,119.28Z" fill="#fff"/><path d="M276.91,155.24c.16.23.3.44.43.65,4.42,7-1.36,12.6-1.6,15.1s1.81,4.25.66,5.07-2-1.6-4.58-2.28c-2-.48-7,1.78-11.57-.67a7.91,7.91,0,0,1-1.11-.69,11.07,11.07,0,0,1-2.12-2,7.26,7.26,0,0,1-.46-.63l-.24-.33a13.33,13.33,0,0,1-2.6-8,12.25,12.25,0,0,1,.19-1.6,12.62,12.62,0,0,1,5.3-7.77c4.36-3.12,10-3.82,14.81.14l.92.82a20.17,20.17,0,0,1,1.71,2Z" fill="#d2e1f9"/><path d="M265.55,167.88l.69,1-6,4.27a7.91,7.91,0,0,1-1.11-.69Z" fill="#aac8f9"/><path d="M260.46,166.46l.7,1L257,170.38a7.36,7.36,0,0,1-.47-.63l-.24-.33Z" fill="#aac8f9"/><path d="M276.91,155.24c.16.23.3.44.43.65l-4.11,2.93-.7-1,4.14-3Z" fill="#aac8f9"/><path d="M275,152.92,272,155l-.71-1,2.75-2C274.35,152.36,274.65,152.63,275,152.92Z" fill="#aac8f9"/><path d="M257.2,157.38l.69,1-4.16,2.9a12.27,12.27,0,0,1,.2-1.6Z" fill="#aac8f9"/><path d="M240.67,186.14a.32.32,0,0,1,.32.31v.49a4.25,4.25,0,0,1,2.28.9.38.38,0,0,1,.17.31.34.34,0,0,1-.36.31.4.4,0,0,1-.2-.09,3.61,3.61,0,0,0-1.92-.83v3.59c2,.4,2.77,1.14,2.77,2.39a2.53,2.53,0,0,1-2.65,2.39H241v1a.32.32,0,0,1-.63,0v-1a5,5,0,0,1-2.89-1.25.36.36,0,0,1-.12-.28.33.33,0,0,1,.32-.32.27.27,0,0,1,.22.1,4.23,4.23,0,0,0,2.51,1.17v-3.56c-1.93-.44-2.73-1.14-2.73-2.43a2.51,2.51,0,0,1,2.68-2.31h0v-.49a.32.32,0,0,1,.25-.38ZM240.4,191v-3.5c-1.26,0-2.07.77-2.07,1.6s.41,1.56,2.07,2Zm.56.78v3.53a1.89,1.89,0,0,0,2.12-1.73c0-1-.49-1.36-2.09-1.78Z" fill="#aac8f9"/><path d="M245.37,195.37l4.19-3.79a2.29,2.29,0,0,0-1.54-4,2.39,2.39,0,0,0-1.61.59l-.43.39a.29.29,0,0,1-.41,0l0,0a.3.3,0,0,1,0-.43l0,0,.43-.4a3,3,0,0,1,2-.76,2.94,2.94,0,0,1,2,5.11l-3.6,3.21h4.29a.29.29,0,0,1,.3.3v0a.29.29,0,0,1-.3.3h-5.06a.27.27,0,0,1-.22-.08A.33.33,0,0,1,245.37,195.37Z" fill="#aac8f9"/><path d="M253.94,194.63a.65.65,0,0,1,0,1.29.65.65,0,0,1,0-1.29Z" fill="#aac8f9"/><path d="M256.09,195a.31.31,0,0,1,0-.43l0,0a.33.33,0,0,1,.47,0,2.41,2.41,0,0,0,3.4-3.42,2.47,2.47,0,0,0-1.7-.69,2.41,2.41,0,0,0-1.7.71.3.3,0,0,1-.43,0h0a.17.17,0,0,1,0-.1h0a.2.2,0,0,1,0-.11h0l.43-3.61a.28.28,0,0,1,.13-.24.26.26,0,0,1,.21,0h4.17a.31.31,0,0,1,.32.31.32.32,0,0,1-.31.33h-4l-.32,2.66a3,3,0,0,1,3.67.47,3,3,0,1,1-4.3,4.14Z" fill="#aac8f9"/><path d="M263.8,191.42a5.77,5.77,0,0,1,.86-3.13,2.57,2.57,0,0,1,3.46-1,2.6,2.6,0,0,1,1,1,6.15,6.15,0,0,1,0,6.28,2.55,2.55,0,0,1-3.46,1,2.52,2.52,0,0,1-1-1A5.84,5.84,0,0,1,263.8,191.42Zm.64,0a5,5,0,0,0,.75,2.79,2.14,2.14,0,0,0,1.72,1.08,2.22,2.22,0,0,0,1.72-1.08,5.45,5.45,0,0,0,0-5.57,2.13,2.13,0,0,0-1.72-1.07,2.07,2.07,0,0,0-1.72,1.07A5.14,5.14,0,0,0,264.44,191.42Z" fill="#aac8f9"/><rect x="301.69" y="109.81" width="70.54" height="70.54" fill="#e9f0fc"/><path d="M349.34,154.65c8.94,9.07,17.93,18.57,17.93,18.57a4.24,4.24,0,0,1-3.21,3l-18.14-18.38-.93-.93-.62-.64-1.86-1.9-.65-.64L338.17,150l-.62-.64c-3.65-3.68-6.42-6.42-7.21-7.31-4-4.11-23.75-12.61-23.75-12.61s-1.61-1,.51-3.77c0,0,7.64,3.61,14.78,7.22l-16.69-10.59a3.31,3.31,0,0,1,1.48-2.83l9.53,6.31-8.54-8.23s.21-1.34,2.5-2.38l14.75,15.22-10.48-13.86a5.36,5.36,0,0,1,2.51-1.84s6.42,9.72,15.5,21.84l-9.6-16.19a3.54,3.54,0,0,1,2.65-1.25s7.48,17.83,15.39,27l.6.68c.27.3.56.59.83.88h0l2.89,2.86.63.64,1.88,1.88.62.64Z" fill="#d2e1f9"/><path d="M325.56,119.12S333,137,341,146.11l-3.4,3.21c-3.65-3.67-6.42-6.42-7.21-7.3-4-4.11-23.75-12.62-23.75-12.62s-1.61-1,.51-3.77c0,0,7.64,3.61,14.78,7.23l-16.69-10.53a3.31,3.31,0,0,1,1.48-2.83l9.53,6.31-8.54-8.23s.21-1.34,2.5-2.38l14.75,15.22-10.48-13.86a5.36,5.36,0,0,1,2.51-1.84s6.42,9.72,15.5,21.84l-9.6-16.19A3.52,3.52,0,0,1,325.56,119.12Z" fill="#251860"/><path d="M345.31,150.54l-3.38,3.21L338.17,150l3.37-3.21.84.88h0Z" fill="#251860"/><path d="M347.79,153.06l-3.39,3.21-1.86-1.89,3.37-3.21Z" fill="#251860"/><path d="M349.34,154.65,346,157.86l-.93-.93,3.38-3.21Z" fill="#251860"/><path d="M324.79,186.14a.32.32,0,0,1,.3.31v.49a4.22,4.22,0,0,1,2.28.9.36.36,0,0,1,.19.31.33.33,0,0,1-.33.32.29.29,0,0,1-.23-.1,3.81,3.81,0,0,0-1.92-.83v3.59c1.94.4,2.76,1.14,2.76,2.39a2.54,2.54,0,0,1-2.65,2.39h-.1v1a.31.31,0,1,1-.61,0v-1a4.83,4.83,0,0,1-2.89-1.25.34.34,0,0,1-.14-.28.35.35,0,0,1,.32-.32.27.27,0,0,1,.22.1,4.28,4.28,0,0,0,2.51,1.17v-3.56c-1.93-.44-2.72-1.14-2.72-2.43a2.49,2.49,0,0,1,2.58-2.39h.09v-.49a.32.32,0,0,1,.34-.31ZM324.5,191v-3.5a1.87,1.87,0,0,0-2.06,1.6c0,1.09.4,1.56,2,2Zm.58.78v3.53a1.88,1.88,0,0,0,2.11-1.73c0-1-.46-1.36-2.11-1.78Z" fill="#aac8f9"/><path d="M331,187.84l-1.27.76h-.16a.31.31,0,0,1-.26-.16.29.29,0,0,1,.09-.4l0,0,1.73-1.06a.34.34,0,0,1,.42.13.41.41,0,0,1,0,.22v8.25a.31.31,0,0,1-.31.31h0a.32.32,0,0,1-.3-.31Z" fill="#aac8f9"/><path d="M334.77,194.63a.63.63,0,0,1,.64.61v0a.63.63,0,0,1-.61.65h0a.63.63,0,0,1-.64-.61v0A.64.64,0,0,1,334.77,194.63Z" fill="#aac8f9"/><path d="M336.61,191.42a5.69,5.69,0,0,1,.86-3.13,2.54,2.54,0,0,1,4.49,0,6,6,0,0,1,0,6.28,2.54,2.54,0,0,1-4.49,0A5.75,5.75,0,0,1,336.61,191.42Zm.63,0a5.06,5.06,0,0,0,.76,2.79,2.15,2.15,0,0,0,1.71,1.08,2.24,2.24,0,0,0,1.74-1.08,5.55,5.55,0,0,0,0-5.57,2.15,2.15,0,0,0-1.74-1.07,2.1,2.1,0,0,0-1.71,1.07,5,5,0,0,0-.71,2.78Z" fill="#aac8f9"/><path d="M345.73,191.42a5.68,5.68,0,0,1,.85-3.13,2.55,2.55,0,0,1,4.5,0,6.06,6.06,0,0,1,0,6.28,2.55,2.55,0,0,1-4.5,0A5.83,5.83,0,0,1,345.73,191.42Zm.63,0a5,5,0,0,0,.75,2.79,1.91,1.91,0,0,0,3.44,0,5.45,5.45,0,0,0,0-5.57,1.93,1.93,0,0,0-2.56-.88,2,2,0,0,0-.88.88A5.06,5.06,0,0,0,346.36,191.42Z" fill="#aac8f9"/><rect x="385.09" y="109.81" width="70.54" height="70.54" fill="#e9f0fc"/><path d="M399.4,153.7c5.52,18,22.47,15.7,27.29,14.22s20.09-9.06,14.55-27.06S417.65,127,414.43,128C410.78,129.16,393.88,135.73,399.4,153.7Z" fill="#d2e1f9"/><path d="M415.93,130.48s.76,6.77,12.64,2.71C428.61,133.19,420.57,124.65,415.93,130.48Z" fill="#aac8f9"/><path d="M417.14,133.29s5.58.37,4-9.81C421.13,123.48,413.08,128.75,417.14,133.29Z" fill="#aac8f9"/><path d="M416.69,131.49s-1.94,5.25-10.59-.35C406.1,131.14,414.2,126,416.69,131.49Z" fill="#aac8f9"/><path d="M416.32,130.16s-5.2,4.4,4.81,12C421.1,142.15,423.7,130.77,416.32,130.16Z" fill="#aac8f9"/><path d="M415.77,131.14s-7.49-2.1-6.51,10.7C409.26,141.84,420.75,137.86,415.77,131.14Z" fill="#aac8f9"/><path d="M417,132.71a13.43,13.43,0,0,0-4.68-11.44,4.29,4.29,0,0,0-3.94,3.37s6.42,3.58,6.83,9.39l1.5-.89" fill="#251860"/><path d="M408.34,186.14a.32.32,0,0,1,.32.31v.49a4.19,4.19,0,0,1,2.28.9.39.39,0,0,1,.18.31.35.35,0,0,1-.36.31.34.34,0,0,1-.2-.09,3.65,3.65,0,0,0-1.93-.83v3.59c2,.4,2.78,1.14,2.78,2.39a2.53,2.53,0,0,1-2.65,2.39h-.1v1a.31.31,0,1,1-.62,0v-1a4.92,4.92,0,0,1-2.89-1.25.37.37,0,0,1-.13-.28.34.34,0,0,1,.32-.32.29.29,0,0,1,.23.1,4.23,4.23,0,0,0,2.5,1.17v-3.56c-1.93-.44-2.73-1.14-2.73-2.43A2.51,2.51,0,0,1,408,187h0v-.49a.31.31,0,0,1,.25-.38Zm-.27,4.82v-3.5c-1.25,0-2.07.77-2.07,1.6s.42,1.56,2.07,2Zm.56.78v3.53a1.88,1.88,0,0,0,2.12-1.73c0-1-.45-1.36-2.12-1.78Z" fill="#aac8f9"/><path d="M414.52,187.84l-1.28.76h-.15a.3.3,0,0,1-.27-.16.29.29,0,0,1,.08-.4l0,0,1.74-1.06a.32.32,0,0,1,.43.13.29.29,0,0,1,0,.22v8.25a.31.31,0,1,1-.61,0Z" fill="#aac8f9"/><path d="M418.34,194.63a.64.64,0,1,1-.64.64A.64.64,0,0,1,418.34,194.63Z" fill="#aac8f9"/><path d="M420.49,195a.31.31,0,0,1,0-.43l0,0a.33.33,0,0,1,.47,0,2.41,2.41,0,0,0,3.4-3.42,2.47,2.47,0,0,0-1.7-.69,2.41,2.41,0,0,0-1.7.71.3.3,0,0,1-.43,0h0a.25.25,0,0,1-.08-.1h0a.2.2,0,0,1,0-.11h0l.43-3.61a.33.33,0,0,1,.32-.31h4.19a.32.32,0,0,1,.32.32.32.32,0,0,1-.32.32h-3.92l-.32,2.67a3,3,0,0,1,3.68.46,3,3,0,0,1-2.15,5.2A3,3,0,0,1,420.49,195Z" fill="#aac8f9"/><path d="M428.2,191.42a5.77,5.77,0,0,1,.86-3.13,2.57,2.57,0,0,1,3.46-1,2.6,2.6,0,0,1,1,1,6.15,6.15,0,0,1,0,6.28,2.55,2.55,0,0,1-3.46,1,2.52,2.52,0,0,1-1-1A5.75,5.75,0,0,1,428.2,191.42Zm.64,0a5,5,0,0,0,.75,2.79,2.14,2.14,0,0,0,1.72,1.08,2.22,2.22,0,0,0,1.72-1.08,5.45,5.45,0,0,0,0-5.57,2.13,2.13,0,0,0-1.72-1.07,2.07,2.07,0,0,0-1.72,1.07,5.1,5.1,0,0,0-.82,2.78Z" fill="#aac8f9"/><rect x="218.29" y="212.8" width="70.54" height="70.54" fill="#e9f0fc"/><path d="M273.19,242.12v34.8c0,2.15-4.34,3.39-18.88,3.39s-18.86-1.24-18.86-3.39v-34.8c0-9.27,10.24-15.32,10.24-17.12v-7H263v7C263,226.8,273.19,232.85,273.19,242.12Z" fill="#d2e1f9"/><rect x="244.73" y="214.77" width="19.2" height="5.86" fill="#251860"/><rect x="235.45" y="251.32" width="37.73" height="18.81" fill="#aac8f9"/><path d="M240,289.66a.33.33,0,0,1,.33.31v.51a4.19,4.19,0,0,1,2.27.9.39.39,0,0,1,.18.31.34.34,0,0,1-.36.31.34.34,0,0,1-.2-.09,3.65,3.65,0,0,0-1.93-.83v3.59c2,.42,2.78,1.14,2.78,2.41a2.54,2.54,0,0,1-2.68,2.38h-.06v1a.32.32,0,0,1-.33.3.31.31,0,0,1-.3-.3v-1a4.86,4.86,0,0,1-2.89-1.25.37.37,0,0,1-.13-.28.34.34,0,0,1,.32-.32.33.33,0,0,1,.23.1,4.23,4.23,0,0,0,2.5,1.17V295.2c-1.92-.43-2.73-1.12-2.73-2.41a2.51,2.51,0,0,1,2.67-2.33h0V290A.32.32,0,0,1,240,289.66Zm-.27,4.82V291c-1.25,0-2.07.77-2.07,1.6s.42,1.58,2.07,2Zm.56.78v3.55a1.88,1.88,0,0,0,2.12-1.75c0-1-.45-1.35-2.12-1.72Z" fill="#aac8f9"/><path d="M250.14,291l-2.33,2.39a3,3,0,0,1,1.53,5.14,3.22,3.22,0,0,1-2.16.9,3.06,3.06,0,0,1-2.15-.9.32.32,0,0,1,.45-.45,2.45,2.45,0,0,0,3.41,0,2.41,2.41,0,0,0-1.71-4.11.31.31,0,0,1-.25-.13h0a.32.32,0,0,1,0-.46l2.23-2.3h-3.45a.32.32,0,1,1,0-.64h4.2a.32.32,0,0,1,.32.32.38.38,0,0,1,0,.15Z" fill="#aac8f9"/><path d="M253.52,298.19a.63.63,0,0,1,.65.61v0a.65.65,0,0,1-1.29,0,.62.62,0,0,1,.61-.64Z" fill="#aac8f9"/><path d="M255.43,295a5.75,5.75,0,0,1,.87-3.21,2.55,2.55,0,0,1,3.46-1,2.52,2.52,0,0,1,1,1,5.92,5.92,0,0,1,.87,3.21,5.78,5.78,0,0,1-.87,3.13,2.53,2.53,0,0,1-3.42,1.07,2.57,2.57,0,0,1-1.07-1.07A5.7,5.7,0,0,1,255.43,295Zm.65,0a5,5,0,0,0,.75,2.77,2.13,2.13,0,0,0,1.72,1.08,2.17,2.17,0,0,0,1.7-1.14,5.45,5.45,0,0,0,0-5.57,2.13,2.13,0,0,0-1.72-1.08,2.1,2.1,0,0,0-1.72,1.08A5.06,5.06,0,0,0,256,295Z" fill="#aac8f9"/><path d="M264.47,295a5.75,5.75,0,0,1,.87-3.21,2.54,2.54,0,0,1,3.45-1,2.6,2.6,0,0,1,1,1,6.21,6.21,0,0,1,0,6.34,2.53,2.53,0,0,1-3.42,1.07,2.57,2.57,0,0,1-1.07-1.07A5.7,5.7,0,0,1,264.47,295Zm.64,0a5,5,0,0,0,.76,2.77,2.13,2.13,0,0,0,1.71,1.08,2.17,2.17,0,0,0,1.72-1.08,5.41,5.41,0,0,0,0-5.57,2.12,2.12,0,0,0-1.72-1.07,2,2,0,0,0-1.71,1.07,5.08,5.08,0,0,0-.81,2.8Z" fill="#aac8f9"/><rect x="301.69" y="212.8" width="70.54" height="70.54" fill="#e9f0fc"/><rect x="322.62" y="228.08" width="29.44" height="52.15" fill="#fff"/><rect x="322.62" y="228.08" width="29.44" height="52.15" fill="#d2e1f9"/><rect x="322.62" y="247.36" width="29.44" height="21.91" fill="#aac8f9"/><polygon points="352.06 228.08 322.63 228.08 326.28 220.91 348.38 220.91 352.06 228.08" fill="#fff"/><polygon points="352.06 228.08 322.63 228.08 326.28 220.91 348.38 220.91 352.06 228.08" fill="#aac8f9"/><rect x="326.23" y="214.85" width="22.15" height="6.05" fill="#251860"/><path d="M323.69,289.66a.33.33,0,0,1,.31.31v.51a4.22,4.22,0,0,1,2.28.9.38.38,0,0,1,.19.31.33.33,0,0,1-.35.32.34.34,0,0,1-.23-.1,3.55,3.55,0,0,0-1.91-.83v3.59c1.95.42,2.76,1.14,2.76,2.41a2.53,2.53,0,0,1-2.68,2.38H324v1a.31.31,0,0,1-.61,0h0v-1a4.86,4.86,0,0,1-2.89-1.25.31.31,0,0,1-.14-.28.35.35,0,0,1,.32-.32.32.32,0,0,1,.22.1,4.23,4.23,0,0,0,2.51,1.17V295.2c-1.93-.43-2.72-1.12-2.72-2.41a2.5,2.5,0,0,1,2.64-2.33h.06V290A.32.32,0,0,1,323.69,289.66Zm-.28,4.82V291a1.87,1.87,0,0,0-2.06,1.6c0,1.05.4,1.58,2.06,2Zm.57.78v3.55a1.88,1.88,0,0,0,2.11-1.75c0-1-.45-1.35-2.11-1.72Z" fill="#aac8f9"/><path d="M328.38,298.91l4.19-3.79a2.27,2.27,0,0,0-1.52-4,2.27,2.27,0,0,0-1.61.59l-.43.4a.3.3,0,0,1-.44,0,.31.31,0,0,1,0-.44h0l.45-.42a3,3,0,0,1,2-.75,2.93,2.93,0,0,1,2,5.1l-3.59,3.21h4.25a.32.32,0,0,1,.32.33.33.33,0,0,1-.32.32h-5.06a.33.33,0,0,1-.24-.1.35.35,0,0,1,0-.48Z" fill="#aac8f9"/><path d="M337,298.19a.61.61,0,0,1,.64.61v0a.63.63,0,0,1-.61.64h0a.64.64,0,0,1-.64-.64.61.61,0,0,1,.61-.64Z" fill="#aac8f9"/><path d="M339.12,298.57a.3.3,0,0,1,0-.43l0,0a.34.34,0,0,1,.46,0,2.44,2.44,0,0,0,1.61.71,2.41,2.41,0,0,0,1.7-.71,2.45,2.45,0,0,0,.71-1.7,2.41,2.41,0,0,0-4.1-1.7.35.35,0,0,1-.45,0,.28.28,0,0,1-.08-.11h0v-.1h0l.44-3.63a.25.25,0,0,1,.13-.22.23.23,0,0,1,.2-.08h4.19a.32.32,0,0,1,.32.32.3.3,0,0,1-.28.32h-4l-.32,2.66a3,3,0,0,1,1.6-.4,3,3,0,0,1,3,3,3,3,0,0,1-.89,2.15,3.12,3.12,0,0,1-2.15.9A3.08,3.08,0,0,1,339.12,298.57Z" fill="#aac8f9"/><path d="M346.82,295a5.84,5.84,0,0,1,.85-3.21,2.55,2.55,0,0,1,4.5,0,6.15,6.15,0,0,1,0,6.34,2.8,2.8,0,0,1-2.25,1.36,2.85,2.85,0,0,1-2.25-1.36A5.76,5.76,0,0,1,346.82,295Zm.63,0a5.11,5.11,0,0,0,.75,2.77,1.91,1.91,0,0,0,2.56.88,1.88,1.88,0,0,0,.88-.88,5.45,5.45,0,0,0,0-5.57,1.92,1.92,0,0,0-2.56-.88,2,2,0,0,0-.88.88A5.1,5.1,0,0,0,347.45,295Z" fill="#aac8f9"/><rect x="385.09" y="212.8" width="70.54" height="70.54" fill="#e9f0fc"/><path d="M433.94,242.12v34.8c0,2.15-3.11,3.39-13.59,3.39s-13.58-1.24-13.58-3.39v-34.8c0-9.27,7.38-15.32,7.38-17.12v-7h12.41v7C426.56,226.8,433.94,232.85,433.94,242.12Z" fill="#d2e1f9"/><rect x="413.45" y="214.77" width="13.82" height="5.86" fill="#251860"/><rect x="410.64" y="253.98" width="19.45" height="13.47" fill="#aac8f9"/><path d="M406.16,289.66a.33.33,0,0,1,.32.31v.51a4.22,4.22,0,0,1,2.28.9.42.42,0,0,1,.18.31.35.35,0,0,1-.37.31.4.4,0,0,1-.2-.09,3.58,3.58,0,0,0-1.92-.83v3.59c2,.42,2.77,1.14,2.77,2.41a2.53,2.53,0,0,1-2.68,2.38h-.06v1a.32.32,0,0,1-.63,0v-1a4.83,4.83,0,0,1-2.88-1.25.32.32,0,0,1-.13-.28.34.34,0,0,1,.32-.32.32.32,0,0,1,.22.1,4.23,4.23,0,0,0,2.51,1.17V295.2c-1.93-.43-2.73-1.12-2.73-2.41a2.5,2.5,0,0,1,2.66-2.33h0V290A.33.33,0,0,1,406.16,289.66Zm-.27,4.82V291c-1.26,0-2.07.77-2.07,1.6s.41,1.58,2.07,2Zm.56.78v3.55a1.89,1.89,0,0,0,2.12-1.75c0-1-.45-1.35-2.12-1.72Z" fill="#aac8f9"/><path d="M410.86,298.91l4.19-3.79a2.31,2.31,0,1,0-3.1-3.42l-.45.4a.3.3,0,0,1-.43,0,.31.31,0,0,1,0-.44h0l.43-.41a3,3,0,0,1,2-.76,2.94,2.94,0,0,1,2,5.11l-3.58,3.21h4.24a.32.32,0,0,1,.32.32.34.34,0,0,1-.32.32h-5a.33.33,0,0,1-.23-.1A.35.35,0,0,1,410.86,298.91Z" fill="#aac8f9"/><path d="M419.43,298.19a.61.61,0,0,1,.64.61v0a.64.64,0,1,1-1.28,0h0a.61.61,0,0,1,.61-.64Z" fill="#aac8f9"/><path d="M421.26,295a5.75,5.75,0,0,1,.87-3.21,2.55,2.55,0,0,1,3.46-1,2.52,2.52,0,0,1,1,1,6.21,6.21,0,0,1,0,6.34,2.53,2.53,0,0,1-3.42,1.07,2.57,2.57,0,0,1-1.07-1.07A5.7,5.7,0,0,1,421.26,295Zm.64,0a5,5,0,0,0,.76,2.77,1.9,1.9,0,0,0,3.43,0,5.41,5.41,0,0,0,0-5.57,1.91,1.91,0,0,0-3.43,0A5.11,5.11,0,0,0,421.9,295Z" fill="#aac8f9"/><path d="M430.38,295a5.75,5.75,0,0,1,.87-3.21,2.53,2.53,0,0,1,3.45-1,2.6,2.6,0,0,1,1,1,6.21,6.21,0,0,1,0,6.34,2.53,2.53,0,0,1-3.42,1.07,2.57,2.57,0,0,1-1.07-1.07A5.7,5.7,0,0,1,430.38,295Zm.64,0a5,5,0,0,0,.76,2.77,2.11,2.11,0,0,0,1.71,1.08,2.14,2.14,0,0,0,1.7-1.14,5.41,5.41,0,0,0,0-5.57,2.13,2.13,0,0,0-1.71-1.08,2.09,2.09,0,0,0-1.72,1.08A5.13,5.13,0,0,0,431,295Z" fill="#aac8f9"/><rect x="218.29" y="344.96" width="70.54" height="70.54" fill="#e9f0fc"/><path d="M237.28,381.36c0,12.37,5,31.71,5.54,31.71h20.86c.6,0,7.76-16.61,7.76-33.24,0-17.35-12-20.32-12-21.52v-6.66H247.17v6.66C247.1,359.51,237.28,366,237.28,381.36Zm23.26-17.29c6,0,10.83,16.21,6.42,17.78-6.18,2.23-11.91-17.73-6.42-17.78Z" fill="#d2e1f9"/><path d="M254.74,364.07c.34-4.14-8.81-3.21-12.63,10.38-2.9,10.31.39,31.58,10.66,31.58,12.26,0,13-18,12.21-18.77S253.22,382.75,254.74,364.07Z" fill="#aac8f9"/><polygon points="244.54 355.45 261.79 355.45 260.6 347.84 245.71 347.84 244.54 355.45" fill="#251860"/><path d="M240,424.48a.31.31,0,0,1,.32.29v.53a4.25,4.25,0,0,1,2.28.9.34.34,0,0,1,.17.29.32.32,0,0,1-.32.32h0a.38.38,0,0,1-.23-.08,3.44,3.44,0,0,0-1.92-.83v3.57c2,.42,2.77,1.16,2.77,2.41a2.51,2.51,0,0,1-2.65,2.38h-.09v1a.31.31,0,0,1-.31.31h0a.31.31,0,0,1-.31-.31h0v-1a4.83,4.83,0,0,1-2.89-1.25.32.32,0,0,1,.19-.58h0a.36.36,0,0,1,.23.08,4,4,0,0,0,2.5,1.17V430c-1.92-.41-2.73-1.12-2.73-2.4a2.53,2.53,0,0,1,2.7-2.33v-.48a.31.31,0,0,1,.31-.31Zm-.28,4.82v-3.5a1.85,1.85,0,0,0-2.07,1.7C237.68,428.43,238.1,429,239.75,429.3Zm.57.78v3.55a1.88,1.88,0,0,0,2.11-1.75c0-1-.45-1.38-2.11-1.75Z" fill="#aac8f9"/><path d="M244.92,433.37a.31.31,0,0,1,0-.43l0,0a.35.35,0,0,1,.47,0,2.49,2.49,0,0,0,1.7.7,2.4,2.4,0,1,0-1.78-4.1h0a.3.3,0,0,1-.43,0l0,0a.21.21,0,0,1-.08-.11h0v-.1h0l.43-3.62a.26.26,0,0,1,.13-.23.32.32,0,0,1,.21-.08h4.17a.32.32,0,0,1,.32.32h0a.3.3,0,0,1-.29.32H245.8l-.32,2.67a3.23,3.23,0,0,1,1.61-.4,3,3,0,0,1,3,3v0a3,3,0,0,1-.89,2.17,3.08,3.08,0,0,1-4.31,0Z" fill="#aac8f9"/><path d="M253.49,433a.62.62,0,0,1,.64.61v0a.64.64,0,0,1-.64.64.64.64,0,0,1-.64-.64.63.63,0,0,1,.61-.65Z" fill="#aac8f9"/><path d="M255.32,429.76a5.79,5.79,0,0,1,.87-3.21,2.55,2.55,0,0,1,3.46-1,2.44,2.44,0,0,1,1,1,6,6,0,0,1,.87,3.21,5.84,5.84,0,0,1-.87,3.13,2.53,2.53,0,0,1-4.49,0A5.65,5.65,0,0,1,255.32,429.76Zm.64,0a5.11,5.11,0,0,0,.76,2.8,2.16,2.16,0,0,0,1.72,1.07,2.2,2.2,0,0,0,1.71-1.07,5.44,5.44,0,0,0,0-5.59,1.9,1.9,0,0,0-3.43,0,5.1,5.1,0,0,0-.76,2.79Z" fill="#aac8f9"/><path d="M264.44,429.76a5.79,5.79,0,0,1,.87-3.21,2.56,2.56,0,0,1,4.49,0,6,6,0,0,1,.87,3.21,5.84,5.84,0,0,1-.87,3.13,2.53,2.53,0,0,1-3.42,1.07,2.46,2.46,0,0,1-1.07-1.07A5.65,5.65,0,0,1,264.44,429.76Zm.64,0a5.19,5.19,0,0,0,.75,2.8,2.17,2.17,0,0,0,1.72,1.07,2.2,2.2,0,0,0,1.72-1.07,5.44,5.44,0,0,0,0-5.59,2.17,2.17,0,0,0-1.72-1.08,2.14,2.14,0,0,0-1.72,1.08,5.2,5.2,0,0,0-.77,2.79Z" fill="#aac8f9"/><rect x="301.69" y="344.96" width="70.54" height="70.54" fill="#e9f0fc"/><rect x="309.54" y="363.28" width="55.26" height="39.26" rx="7.32" fill="#d2e1f9"/><rect x="315.8" y="358.37" width="42.72" height="4.91" fill="#251860"/><rect x="309.54" y="372.8" width="55.61" height="20.21" fill="#aac8f9"/><path d="M354,382.91c0,4.71-7.54,8.51-16.85,8.51s-16.85-3.8-16.85-8.51,7.54-8.5,16.85-8.5S354,378.21,354,382.91Z" fill="#e9f0fc"/><path d="M323.21,424.48a.3.3,0,0,1,.32.29v.53a4.19,4.19,0,0,1,2.28.9.32.32,0,0,1,.15.43.31.31,0,0,1-.31.18.35.35,0,0,1-.22-.08,3.47,3.47,0,0,0-1.93-.83v3.57c2,.42,2.78,1.16,2.78,2.41a2.53,2.53,0,0,1-2.68,2.38h-.07v1a.3.3,0,0,1-.3.31h0a.3.3,0,0,1-.3-.31h0v-1A4.78,4.78,0,0,1,320,433a.34.34,0,0,1-.15-.26.35.35,0,0,1,.33-.32.43.43,0,0,1,.24.08,4,4,0,0,0,2.5,1.17V430c-1.93-.41-2.73-1.12-2.73-2.4a2.52,2.52,0,0,1,2.7-2.33v-.48a.3.3,0,0,1,.3-.31Zm-.27,4.82v-3.5a1.85,1.85,0,0,0-2.07,1.7C320.87,428.43,321.24,429,322.94,429.3Zm.56.78v3.55a1.88,1.88,0,0,0,2.12-1.75c0-1-.45-1.38-2.12-1.75Z" fill="#aac8f9"/><path d="M333.07,432.41h-4.91a.29.29,0,0,1-.32-.26.3.3,0,0,1,.09-.24l5.2-6.42h0a.29.29,0,0,1,.41,0l0,0a.51.51,0,0,1,.09.16h0v6.2h.61a.32.32,0,1,1,.14.63h-.75v1.6a.33.33,0,0,1-.32.31.32.32,0,0,1-.3-.31Zm0-.62v-5.25l-4.26,5.25Z" fill="#aac8f9"/><path d="M337.43,433a.63.63,0,0,1,.65.61v0a.65.65,0,0,1-1.29,0,.63.63,0,0,1,.61-.65Z" fill="#aac8f9"/><path d="M339.58,433.37a.3.3,0,0,1,0-.43v0a.35.35,0,0,1,.47,0,2.52,2.52,0,0,0,1.7.7,2.45,2.45,0,0,0,1.69-.71,2.4,2.4,0,0,0-3.39-3.39h0a.3.3,0,0,1-.43,0l0,0a.28.28,0,0,1-.08-.11h0v-.1h0l.43-3.62a.26.26,0,0,1,.13-.23.32.32,0,0,1,.21-.08h4.17a.3.3,0,0,1,.32.29v0a.3.3,0,0,1-.28.32h-4l-.32,2.67a3.2,3.2,0,0,1,1.6-.4,3,3,0,0,1,3,3v0a3,3,0,0,1-.88,2.17,3.1,3.1,0,0,1-4.32,0Z" fill="#aac8f9"/><path d="M347.29,429.76a5.87,5.87,0,0,1,.86-3.21,2.55,2.55,0,0,1,3.46-1,2.52,2.52,0,0,1,1,1,6,6,0,0,1,.87,3.21,5.84,5.84,0,0,1-.87,3.13,2.55,2.55,0,0,1-4.5,0A5.73,5.73,0,0,1,347.29,429.76Zm.64,0a5.19,5.19,0,0,0,.75,2.8,1.93,1.93,0,0,0,2.56.88,2,2,0,0,0,.88-.88,5.44,5.44,0,0,0,0-5.59,1.91,1.91,0,0,0-2.55-.88,2,2,0,0,0-.89.88,5.18,5.18,0,0,0-.75,2.79Z" fill="#aac8f9"/><rect x="385.09" y="344.96" width="70.54" height="70.54" fill="#e9f0fc"/><path d="M437.1,389.64v18.79H403.61V389.64c0-6.57,1.6-23.82,16.75-23.82S437.1,383.07,437.1,389.64Z" fill="#d2e1f9"/><path d="M438.07,410.87H402.66a1.72,1.72,0,0,1-1.72-1.72h0a1.7,1.7,0,0,1,1.7-1.7h35.43a1.7,1.7,0,0,1,1.7,1.7h0A1.72,1.72,0,0,1,438.07,410.87Z" fill="#aac8f9"/><rect x="415.07" y="361.98" width="10.56" height="8.09" fill="#d2e1f9"/><rect x="413.83" y="358.08" width="13.03" height="5.23" fill="#251860"/><rect x="417.97" y="352.95" width="4.75" height="6.03" fill="#251860"/><path d="M415.34,350.8a2.26,2.26,0,0,0,.14,4c1.61.95,10.18-1.15,11.09-1.06s3,1.06,3.33,1.06,1.23-.48,1.18-.91a11.17,11.17,0,0,0-5.18-3.1C423.67,350.24,417.17,349.4,415.34,350.8Z" fill="#251860"/><path d="M406.58,424.48a.31.31,0,0,1,.32.29v.53a4.25,4.25,0,0,1,2.28.9.34.34,0,0,1,.17.29.32.32,0,0,1-.32.32h0a.38.38,0,0,1-.23-.08,3.44,3.44,0,0,0-1.92-.83v3.57c1.95.42,2.77,1.16,2.77,2.41a2.51,2.51,0,0,1-2.65,2.38h-.09v1a.31.31,0,0,1-.31.31h0a.31.31,0,0,1-.31-.31h0v-1a4.83,4.83,0,0,1-2.89-1.25.32.32,0,0,1,.2-.58h0a.35.35,0,0,1,.22.08,4.09,4.09,0,0,0,2.5,1.17V430c-1.92-.41-2.72-1.12-2.72-2.4a2.51,2.51,0,0,1,2.69-2.33v-.48a.31.31,0,0,1,.31-.31Zm-.28,4.82v-3.5a1.85,1.85,0,0,0-2.07,1.7C404.23,428.43,404.7,429,406.3,429.3Zm.57.78v3.55a1.88,1.88,0,0,0,2.11-1.75c0-1-.45-1.38-2.11-1.75Z" fill="#aac8f9"/><path d="M416.72,425.83l-2.39,2.39a3,3,0,0,1,2.49,3,3.05,3.05,0,0,1-5.17,2.18l0,0a.32.32,0,0,1,.06-.45.32.32,0,0,1,.39,0,2.43,2.43,0,0,0,1.7.69,2.47,2.47,0,0,0,1.7-.69,2.36,2.36,0,0,0,.7-1.7,2.4,2.4,0,0,0-2.4-2.41.33.33,0,0,1-.26-.13h0a.34.34,0,0,1,0-.46l2.23-2.3h-3.45a.32.32,0,0,1,0-.64h4.21a.32.32,0,0,1,.32.32h0a.33.33,0,0,1,0,.14Z" fill="#aac8f9"/><path d="M420.11,433a.63.63,0,0,1,.64.61v0a.64.64,0,0,1-.64.64.65.65,0,0,1-.65-.64h0a.64.64,0,0,1,.61-.65Z" fill="#aac8f9"/><path d="M422.26,433.37a.3.3,0,0,1,0-.43l0,0a.34.34,0,0,1,.46,0,2.52,2.52,0,0,0,1.7.7,2.44,2.44,0,0,0,1.61-.71,2.4,2.4,0,0,0-3.39-3.39.3.3,0,0,1-.43,0l0,0a.44.44,0,0,1-.08-.11h0v-.1h0l.44-3.62a.26.26,0,0,1,.12-.23.34.34,0,0,1,.21-.08h4.29a.32.32,0,0,1,.32.32h0a.3.3,0,0,1-.29.32h-3.95l-.32,2.67a3.23,3.23,0,0,1,1.61-.4,3,3,0,0,1,3,3v0a3,3,0,0,1-.88,2.17,3.1,3.1,0,0,1-4.32,0Z" fill="#aac8f9"/><path d="M430,429.76a5.79,5.79,0,0,1,.87-3.21,2.54,2.54,0,0,1,3.45-1,2.46,2.46,0,0,1,1,1,6,6,0,0,1,.87,3.21,5.84,5.84,0,0,1-.87,3.13,2.53,2.53,0,0,1-4.49,0A5.65,5.65,0,0,1,430,429.76Zm.64,0a5.11,5.11,0,0,0,.76,2.8,2.16,2.16,0,0,0,1.72,1.07,2.2,2.2,0,0,0,1.71-1.07,5.44,5.44,0,0,0,0-5.59,1.9,1.9,0,0,0-3.43,0,5.1,5.1,0,0,0-.76,2.79Z" fill="#aac8f9"/><rect x="260.41" y="498.02" width="153.85" height="41.62" fill="#aac8f9" stroke="#6259b0" stroke-miterlimit="10"/><path d="M284.07,521.68h-4.43l-.9,2.38a1,1,0,1,1-1.91-.68l4-10.77a1.07,1.07,0,0,1,1.95,0l4,10.77a.89.89,0,0,1-.94,1.32,1,1,0,0,1-.93-.64Zm-.74-2-1.49-3.93-1.48,3.93Z" fill="#fff"/><path d="M289.35,523.69V512.92a1,1,0,0,1,1-1h2.15a6.42,6.42,0,1,1,0,12.84h-2.15a1,1,0,0,1-1-1Zm2-1h1.12a4.37,4.37,0,1,0,0-8.74h-1.12Z" fill="#fff"/><path d="M302,523.69V512.92a1,1,0,0,1,1-1h2.23a6.42,6.42,0,1,1,0,12.84h-2.25a1,1,0,0,1-1-1Zm2-1h1.19a4.37,4.37,0,0,0,0-8.74h-1.14Z" fill="#fff"/><path d="M328.38,513.94h-2.9v9.75a1,1,0,1,1-2,.25,1,1,0,0,1,0-.25v-9.75h-2.89a1,1,0,0,1,0-2h7.8a1,1,0,0,1,1,1h0A1,1,0,0,1,328.38,513.94Z" fill="#fff"/><path d="M341.48,513.5a6.71,6.71,0,0,1,0,9.24,6,6,0,0,1-4.37,2,6.2,6.2,0,0,1-4.48-2,6.85,6.85,0,0,1,0-9.24,6.1,6.1,0,0,1,4.48-1.95A5.92,5.92,0,0,1,341.48,513.5Zm-.23,4.62a4.66,4.66,0,0,0-1.25-3.21,3.93,3.93,0,0,0-5.55-.29l-.29.29a4.66,4.66,0,0,0-1.25,3.21,4.57,4.57,0,0,0,1.25,3.21,3.89,3.89,0,0,0,5.5.33,2.65,2.65,0,0,0,.34-.33A4.57,4.57,0,0,0,341.25,518.12Z" fill="#fff"/><path d="M351.85,518.12a6.7,6.7,0,0,1,6.71-6.57,7,7,0,0,1,4.22,1.42,1.06,1.06,0,0,1-1.29,1.6,4.54,4.54,0,0,0-2.93-1,4.77,4.77,0,0,0-3.3,1.32,4.53,4.53,0,0,0-1.33,3.21,4.47,4.47,0,0,0,1.33,3.21,4.81,4.81,0,0,0,3.3,1.31,4.58,4.58,0,0,0,2.93-1,1.1,1.1,0,0,1,1.46.19,1.07,1.07,0,0,1-.17,1.46,6.87,6.87,0,0,1-4.22,1.43A6.67,6.67,0,0,1,351.85,518.12Z" fill="#fff"/><path d="M372.74,521.68h-4.43l-.9,2.38a1,1,0,0,1-.94.64,1.09,1.09,0,0,1-.36,0,1,1,0,0,1-.59-1.32l4-10.77a1.05,1.05,0,0,1,1.39-.54,1,1,0,0,1,.55.54l4,10.77a1,1,0,0,1-.59,1.32,1.09,1.09,0,0,1-.36,0,1,1,0,0,1-.93-.64Zm-.73-2-1.5-3.93L369,519.67Z" fill="#fff"/><path d="M386.48,523.19a1,1,0,0,1-.58,1.25l0,0h-.41a1.43,1.43,0,0,1-.7-.21,1.7,1.7,0,0,1-.58-.64,4.7,4.7,0,0,1-.38-2.19,1.45,1.45,0,0,0-.23-.78,1.61,1.61,0,0,0-.54-.53,3.93,3.93,0,0,0-1-.45h-2.15v4a1,1,0,0,1-1,1,1,1,0,0,1-1-1V512.92a1,1,0,0,1,1-1H382a3.91,3.91,0,0,1,2.49,6.93,3.39,3.39,0,0,1,.64.67,3.51,3.51,0,0,1,.59,2,4.79,4.79,0,0,0,0,1.07A.94.94,0,0,1,386.48,523.19Zm-2.55-7.35a1.86,1.86,0,0,0-1.86-1.89h-2.26v3.75h2.24a1.86,1.86,0,0,0,1.88-1.84Z" fill="#fff"/><path d="M396.91,513.94H394v9.75a1,1,0,0,1-2,0v-9.75H389.1a1,1,0,0,1-1-1h0a1,1,0,0,1,1-1h7.83a1,1,0,0,1,0,2Z" fill="#fff"/><path d="M137.72,498.78a440.6,440.6,0,0,0-.64-46.54,593.64,593.64,0,0,0-14.6-94.95c-4.06-17.56-9.09-34.83-14.3-52.08-.16-.53-1-.39-.85.16,16.16,60.83,29.4,123.58,28.48,186.82-.24,17.65-2.29,35.07-4,52.66,0,.46.74.66.84.17C136,529.92,137.1,514.16,137.72,498.78Z" fill="#aac8f9"/><path d="M107.33,305.33s-24.46,62.12-19,76.72,16.77,17.66,16.77,17.66-15,21.41-4.51,41.45,35.81,19.6,37.42,42.32C138,483.48,137.15,388,107.33,305.33Z" fill="#aac8f9" stroke="#6259b0" stroke-miterlimit="10"/><path d="M133.2,443.75a.44.44,0,0,0,0-.32,569,569,0,0,0-23.82-124.95c0-.11-.22-.08-.19,0q7.26,27.28,12.84,54.79a27.12,27.12,0,0,0-11.67-6.51c-.1,0-.13.09,0,.13a30.81,30.81,0,0,1,12,8q1.08,5.41,2.09,10.82c-5.47-6.12-13-9.15-20.64-12a.1.1,0,0,0,0,.13l0,.05c7.9,3.21,15.78,7.35,21.14,14.17q2.79,15.45,4.91,31a29.71,29.71,0,0,0-14.59-8.36c-.18,0-.27.21-.1.26a30.72,30.72,0,0,1,14.8,9.48h.1q.72,5.46,1.38,11a37.57,37.57,0,0,0-10.23-6.17m0,.15a34.83,34.83,0,0,1,10.24,6.79h.15c.4,3.48.8,7,1.15,10.45a49.81,49.81,0,0,0-20.75-14.84.15.15,0,0,0-.15.14.17.17,0,0,0,0,.12,54,54,0,0,1,20.47,15.75.47.47,0,0,0,.51.16q.81,8,1.4,16.05a.07.07,0,0,0,.13,0q-.61-8-1.27-16.26Z" fill="#251860"/><path d="M202.05,383.05a166.08,166.08,0,0,0-28.33,24.75,101.75,101.75,0,0,0-19.87,33.7A251.89,251.89,0,0,0,139.06,522a196,196,0,0,0,4.36,45.31.44.44,0,0,0,.52.32.43.43,0,0,0,.33-.48,253.82,253.82,0,0,1,.42-79.16c4.2-25.68,10.8-53.64,27.14-74.52,8.89-11.38,20-20.32,30.94-29.57C203.37,383.43,202.65,382.63,202.05,383.05Z" fill="#aac8f9"/><path d="M140.54,504.28c5.89-9.53,14.93-19.11,22.77-27.12,12.24-12.24,22.55-20.94,24.07-29s-12.26-14.06-12.26-14.06,16.95,3.05,21.59-4.06,6.87-48.29,6.87-48.29-31.89,19.89-46.26,50.74S140.54,504.28,140.54,504.28Z" fill="#aac8f9" stroke="#6259b0" stroke-miterlimit="10"/><path d="M193,392.28c-12.95,12.72-26,26.3-33.71,43A166.85,166.85,0,0,0,152.52,453h0c-.4,1.22-.78,2.44-1.17,3.66a.67.67,0,0,0,0,.2,346.55,346.55,0,0,0-8.76,38c0,.08.11.11.13,0,1.33-6.42,2.79-12.84,4.43-19.37a.48.48,0,0,0,.17,0,27.85,27.85,0,0,1,8-2.06c.19,0,.17-.33,0-.32a30.08,30.08,0,0,0-8,1.46c1.49-5.82,3.12-11.65,5-17.38a85.74,85.74,0,0,1,18.26-2.39v-.1a68.76,68.76,0,0,0-18,1.53l1-2.94a94.59,94.59,0,0,1,12.17-2.07v-.13a59,59,0,0,0-11.91,1.45c1.6-5,3.5-9.86,5.51-14.61a87.79,87.79,0,0,1,5.82-11.23A71.46,71.46,0,0,1,175,425c.09,0,.08-.16,0-.16a26.86,26.86,0,0,0-9.23.91c1.6-2.61,3.32-5.18,5.15-7.67h0c6.9-1.52,13.91-2.95,21-1.6.12,0,.17-.18,0-.21-6.73-1.78-13.41-.76-20.11.56.73-1,1.47-1.93,2.24-2.87a45.5,45.5,0,0,1,12.84-2m0-.14a33.67,33.67,0,0,0-12,1.07c5.71-7.09,12-13.77,18.26-20.37.43-.3.21-.45-.11-.17Z" fill="#251860"/><path d="M192.63,420.35a27.34,27.34,0,0,0-6.13-.21c-.24,0-.22.42,0,.43,2,0,4.06-.09,6.1,0a.13.13,0,0,0,.08-.16A.1.1,0,0,0,192.63,420.35Z" fill="#251860"/><path d="M170.45,460.3a27.38,27.38,0,0,0-9.5,1.89v.14c3.21-.75,6.31-1.05,9.47-1.6A.22.22,0,1,0,170.45,460.3Z" fill="#251860"/><path d="M163.81,446.57a20.35,20.35,0,0,0-4.05.37.11.11,0,0,0-.11.11.11.11,0,0,0,.11.12,19.61,19.61,0,0,0,4.05-.18.2.2,0,0,0,.2-.21A.21.21,0,0,0,163.81,446.57Z" fill="#251860"/><path d="M52.32,426.74A139.86,139.86,0,0,1,81,440.23a85.55,85.55,0,0,1,23.85,22.67,212.26,212.26,0,0,1,30.61,61.77,165.41,165.41,0,0,1,6.93,37.69.37.37,0,0,1-.72,0,213.19,213.19,0,0,0-18.67-64c-9.34-19.7-21.13-40.85-39.19-54-9.82-7.14-20.86-11.83-31.86-16.77A.48.48,0,0,1,52.32,426.74Z" fill="#aac8f9"/><path d="M130.22,510c-7-6.35-16.6-11.4-24.79-16.08C92.69,486.87,82.34,482.22,79.17,476s6.68-14.2,6.68-14.2-13,6.42-18.39,1.68-16.73-37.47-16.73-37.47,31.19,9.6,50,31.25S130.22,510,130.22,510Z" fill="#aac8f9" stroke="#6259b0" stroke-miterlimit="10"/><path d="M126.67,503.78c-15-28.19-35.06-53.69-62.52-70.53h0A137.77,137.77,0,0,1,84.26,449a31.89,31.89,0,0,0-16.14,3.4.09.09,0,0,0-.05.13.08.08,0,0,0,.05.05,44.28,44.28,0,0,1,16.67-2.78.28.28,0,0,0,.18,0c1,.92,1.94,1.87,2.89,2.81a50,50,0,0,0-8.62,1.14v.13a43.51,43.51,0,0,1,9.11-.75,182.75,182.75,0,0,1,14.16,16.05,13.93,13.93,0,0,0-6,.43.11.11,0,1,0,0,.22,32.79,32.79,0,0,1,6.42-.08c.82,1,1.61,2.09,2.46,3.21a57.79,57.79,0,0,0-18.24,1.77m0,.14a73.9,73.9,0,0,1,18.72-1.22c.77,1,1.49,2.06,2.25,3.09A39.28,39.28,0,0,0,97.25,478a.11.11,0,0,0-.15.06.13.13,0,0,0,.06.15h.09a41.49,41.49,0,0,1,11.23-.87c3.21,4.44,6.32,9,9.31,13.59a10.22,10.22,0,0,0-4.82.29v.13a21.21,21.21,0,0,1,5.16.26q4,6.23,7.73,12.6c.44.17,1,0,.81-.4Z" fill="#251860"/><polygon id="b6b54ee6-b87f-48e7-9106-b9983fd704ef" data-name="SVGID" points="166.97 603.75 99.19 603.75 108.85 532.95 111.32 514.8 154.83 514.8 157.29 532.95 166.97 603.75" fill="#aac8f9"/><g clip-path="url(#bf65fc1a-6ed2-451a-a231-153dd9923092)"><polygon points="157.29 532.95 108.85 532.95 111.32 514.8 154.83 514.8 157.29 532.95" fill="#d2e1f9"/></g><polygon id="b19829c5-08c4-4abc-af49-7c5bfac6f7f4" data-name="SVGID" points="166.97 603.75 99.19 603.75 108.85 532.95 111.32 514.8 154.83 514.8 157.29 532.95 166.97 603.75" fill="none" stroke="#6259b0" stroke-miterlimit="10"/><rect x="105.09" y="508.51" width="55.95" height="15.38" fill="#aac8f9" stroke="#6259b0" stroke-miterlimit="10"/><path d="M486.48,384.53a14,14,0,0,0-2.73-8.61s-1.64-5-.75-8.12l62.61,11.83,1.07-8.14,31.51,13,.29,1.84s-17.71,24.85-35.42,30a14.14,14.14,0,0,1-11.44-1.63c-4.31-2.68-11.07-8.14-20.15-19.2,0,0-11.43-10.81-25.15-10.81" fill="#f9c7a5" stroke="#351d66" stroke-miterlimit="10"/><path d="M462.31,527.68a80.17,80.17,0,0,0,9.83,49.56c19,33.36,69.91,88.72,196,78.31,0,0,119.84-12,143.93-103.54a88.48,88.48,0,0,0-11.6-71.28,149.7,149.7,0,0,0-22.43-26.3c-27.08-25.5-61.67-41.5-98.49-46.8-52-7.47-138.76-7.75-193.09,57.38C486.48,465,466.85,490.69,462.31,527.68Z" fill="#7ddcf2" stroke="#351d66" stroke-miterlimit="10"/><path id="a8ed0032-9629-488a-b104-3f6702fb96e2" data-name="SVGID" d="M588.47,306.13s-20.15,26.79-9,85.93c0,0,11.57,57-.43,63.86,0,0,24,5.57,49.28,36,0,0,11.79,7.92,14.15,13.71,0,0,34.71-10.5,69.85-4.5,0,0,14-42,10-105.55,0,0,1.91-54-25.9-73.32,0,0-13.53-14.28-39.74-8.89l-55.35-10.88-8.78-3.43Z" fill="#686175" data-primary="true"/><g clip-path="url(#f960d2d8-a9ce-4426-8593-90b70bac7b1a)"><path d="M642.47,505.63s1-25.45,25.46-27.52c18.67-1.58,32.41-18.26,29.68-36.8-.06-.36-.12-.74-.18-1.12a59.09,59.09,0,0,1-.58-14.12c1.11-13.68,5.85-36.91,25.46-30.49,0,0,5.8,48.28-10,105.55Z" fill="#f09fdd"/></g><path id="b02a74a9-d9f0-422f-97a0-e54654cbc7ef" data-name="SVGID" d="M588.47,306.13s-20.15,26.79-9,85.93c0,0,11.57,57-.43,63.86,0,0,24,5.57,49.28,36,0,0,11.79,7.92,14.15,13.71,0,0,34.71-10.5,69.85-4.5,0,0,14-42,10-105.55,0,0,1.91-54-25.9-73.32,0,0-13.53-14.28-39.74-8.89l-55.35-10.88-8.78-3.43Z" fill="none" stroke="#351d66" stroke-miterlimit="10"/><path d="M498,554.92s41.79,68.05,106.48,30.3a100.63,100.63,0,0,0,19.38-15c11.51-11.19,46.64-39.67,101-33.24a71.24,71.24,0,0,0,25-1.23c15.91-3.84,34.83-14.79,28.87-45.6,0,0-1.84-30.6-45.43-55.71,0,0,54.43,21,50.58,75.43,0,0-.64,25-35.09,32.58a78.67,78.67,0,0,1-26.11,1.09c-14.74-1.72-52.88-2.35-90.14,28.9C632.56,572.49,555.9,650.92,498,554.92Z" opacity="0.1"/><path d="M594.75,303.34a87.16,87.16,0,0,0-9.72-16s8.09-8,11.44-14.88C596.47,272.5,598.74,293.56,594.75,303.34Z" fill="#f9c7a5" stroke="#351d66" stroke-miterlimit="10"/><path id="f25eb0a8-1820-436e-892b-ba1177035755" data-name="SVGID" d="M627,389.92s55.28,5.57,63,9c0,0,12.32-59,6.37-76.66a43.54,43.54,0,0,0-39.74-8.89s-26.63,6.26-27.49,52.12Z" fill="#686175" data-primary="true"/><g clip-path="url(#e0198f08-793c-4558-946e-696bf8d03e71)"><path d="M649.64,391.33s41.65-29.15,27.09-78.28c0,0,14.94,1.42,19.68,9.21,0,0,5.48,14.63-6.37,76.66Z" fill="#f09fdd"/></g><path id="a43e9df2-02bd-4d85-bb89-b95d79b6af56" data-name="SVGID" d="M627,389.92s55.28,5.57,63,9c0,0,12.32-59,6.37-76.66a43.54,43.54,0,0,0-39.74-8.89s-26.63,6.26-27.49,52.12Z" fill="none" stroke="#351d66" stroke-miterlimit="10"/><path id="ab207582-cc20-473d-b233-49aae4b1d756" data-name="SVGID" d="M539.18,369.34l74.14,43.72c15.43,12,16.31-22.88,16.31-22.88q15.81,1.45,32.81,3.81,12,1.69,23.34,3.7l-23.24,62.08s-17.79,25.72-47.93,0c0,0-49-36.86-76.92-66.33a20,20,0,0,0-9.61-5.59c-5.8-1.46-14.71-3.36-21.45-3.22a14.68,14.68,0,0,1-10.23-3.71c-1.53-1.39-3.41-3.21-5.65-5.58,0,0-14.63-15.54-24.17-19.24a1.79,1.79,0,0,1-.81-2.79,1.59,1.59,0,0,1,1.27-.54s-11.57-9.71-.14-7.71c0,0,20.85,9.14,28.57,9.14l8.39-.19a.57.57,0,0,0,.16-1.12c-7.35-2.2-22.69-7.75-19.41-15,0,0,1.71-3.43,10,0a146.82,146.82,0,0,1,22.12,6.41,34.73,34.73,0,0,1,18.38,16.87Z" fill="#f9c7a5"/><g clip-path="url(#b41e57bd-a72d-4d9c-9b2d-2e9ad9bc422a)"><rect x="480.16" y="342.8" width="1" height="28.57" transform="translate(-4.99 707.36) rotate(-72.41)" fill="#f7a091"/><rect x="490.18" y="361.71" width="1" height="15.71" transform="translate(12.37 755.01) rotate(-75.85)" fill="#f7a091"/></g><path id="af369da9-0136-475e-b562-6e0c2a5a94de" data-name="SVGID" d="M539.18,369.34l74.14,43.72c15.43,12,16.31-22.88,16.31-22.88q15.81,1.45,32.81,3.81,12,1.69,23.34,3.7l-23.24,62.08s-17.79,25.72-47.93,0c0,0-49-36.86-76.92-66.33a20,20,0,0,0-9.61-5.59c-5.8-1.46-14.71-3.36-21.45-3.22a14.68,14.68,0,0,1-10.23-3.71c-1.53-1.39-3.41-3.21-5.65-5.58,0,0-14.63-15.54-24.17-19.24a1.79,1.79,0,0,1-.81-2.79,1.59,1.59,0,0,1,1.27-.54s-11.57-9.71-.14-7.71c0,0,20.85,9.14,28.57,9.14l8.39-.19a.57.57,0,0,0,.16-1.12c-7.35-2.2-22.69-7.75-19.41-15,0,0,1.71-3.43,10,0a146.82,146.82,0,0,1,22.12,6.41,34.73,34.73,0,0,1,18.38,16.87Z" fill="none" stroke="#351d66" stroke-miterlimit="10"/><path id="b006a2b7-7884-4041-8135-2f7f0564b943" data-name="SVGID" d="M469.78,357.66s-9.74,10.83-4.88,15.11c0,0,7.42,8,10.57,8,0,0,2.77,5.49,7,6.87a3.13,3.13,0,0,0,4-3.12c-.06-2.41-.21-5.74-2.53-8.36a1.46,1.46,0,0,1-.29-.55,27.58,27.58,0,0,1-.66-7.81c.35-2.28-3.55-3.32-5.73-5A66.43,66.43,0,0,0,469.78,357.66Z" fill="#f9c7a5"/><g clip-path="url(#b8c0c328-4e80-4cbf-a620-f1867eb36858)"><path d="M475,381c-.23-.47-5.65-11.74-2-20.6l.92.38c-3.5,8.45,1.89,19.67,1.95,19.78Z" fill="#f7a091"/></g><path id="a6d31b55-b0f4-4237-a468-1eafcf5ba254" data-name="SVGID" d="M469.78,357.66s-9.74,10.83-4.88,15.11c0,0,7.42,8,10.57,8,0,0,2.77,5.49,7,6.87a3.13,3.13,0,0,0,4-3.12c-.06-2.41-.21-5.74-2.53-8.36a1.46,1.46,0,0,1-.29-.55,27.58,27.58,0,0,1-.66-7.81c.35-2.28-3.55-3.32-5.73-5A66.43,66.43,0,0,0,469.78,357.66Z" fill="none" stroke="#351d66" stroke-miterlimit="10"/><path id="bb5fef7c-bd4f-4677-9178-cd1ec0795e4e" data-name="SVGID" d="M542.71,369.13s14.32-43.16,45.76-63c0,0-17.77,26.43-10.28,78.4C578.19,384.53,551.51,374.77,542.71,369.13Z" fill="#686175" data-primary="true"/><g clip-path="url(#a0b29476-867b-4668-afd2-4b359a314e49)"><path d="M542.71,369.13,565,379.25s-4.43-45.53,23.5-73.12C588.47,306.13,560.3,323.86,542.71,369.13Z" fill="#f09fdd"/></g><path id="e6bed1db-e7c4-4d51-a590-1c39dfec458d" data-name="SVGID" d="M542.71,369.13s14.32-43.16,45.76-63c0,0-17.77,26.43-10.28,78.4C578.19,384.53,551.51,374.77,542.71,369.13Z" fill="none" stroke="#351d66" stroke-miterlimit="10"/><path d="M744,471.2s0-9.28,3.86-5.43c0,0,10.74,13.43,6.71,30.09a32.29,32.29,0,0,1-15.76,20.28,52.53,52.53,0,0,1-33,6.2s-33.07-2-57.7,17.11a48.84,48.84,0,0,0-5.11,4.64c-9,9.21-46.63,46.59-69.5,48.11,0,0-40.41,3.86-40.84-13.28,0,0,1.37-6.86,20.67-5.86A33.1,33.1,0,0,0,575.86,566a24.79,24.79,0,0,0,3.64-3.52,74.09,74.09,0,0,1,6.73-7.33c11.86-11,43.36-37.14,80.67-43.52C714.47,503.49,729,514.35,744,471.2Z" fill="#fff" opacity="0.2"/><path id="ec659d1d-c283-4147-8da9-e1810320a991" data-name="SVGID" d="M313.14,582.77l28.33,23.56a3.7,3.7,0,0,0,4.11.41l122.49-65.58s47.49,21.81,76.82,27.9c0,0,7.42-11.93,17-19.29,0,0-34.18-5.57-79.16-34.14l-89,3-80.42,58.36A3.69,3.69,0,0,0,313.14,582.77Z" fill="#f48225" data-secondary="true"/><g clip-path="url(#a8dd42e0-4472-41c0-844c-f7622b6727d5)"><path d="M327.59,595.25l15.8,12.67s83.45-28.79,119.92-72c0,0,50.35,33.3,81.58,33.19,0,0-56.13-25.55-74.79-62.88C470.1,506.18,396.3,597.8,327.59,595.25Z" opacity="0.1"/></g><path id="a6ee8b09-bf0b-4f2c-9780-90719d1c9acc" data-name="SVGID" d="M313.14,582.77l28.33,23.56a3.7,3.7,0,0,0,4.11.41l122.49-65.58s47.49,21.81,76.82,27.9c0,0,7.42-11.93,17-19.29,0,0-34.18-5.57-79.16-34.14l-89,3-80.42,58.36A3.69,3.69,0,0,0,313.14,582.77Z" fill="none" stroke="#351d66" stroke-miterlimit="10"/><path d="M256.4,586.2s-13.2,3.58,1.69,10.37c0,0,23.93,11.14,68,22.53,0,0-10,9.49-20.29,11.1,0,0-12.81,4.69-18,7.92l-5.17-3.86,4.15-5.65s-25.64-8.1-31.11-13.76l-38.3-26.59a.94.94,0,0,1-.36-1.06C217.89,584.46,223.49,575.12,256.4,586.2Z" fill="#251860"/><path d="M256.4,586.2S291,605,315,584.31l25.11,20.88s-8,9.08-14.06,13.91c0,0-53.18-14.16-71.31-24.28C254.73,594.82,245.65,589,256.4,586.2Z" fill="#f9c7a5" stroke="#351d66" stroke-miterlimit="10"/><path d="M467,352.77,447.67,337.4A.83.83,0,0,1,448,336l11.42-3.23a4.93,4.93,0,0,1,4.27.76l27.75,20.2a122.53,122.53,0,0,1-18.11-6s-5.34-2.14-6.39-2.65c0,0-4.46-.69-5,.71C461.92,345.77,461.22,347.67,467,352.77Z" fill="#c9c6cb" stroke="#351d66" stroke-miterlimit="10"/><path d="M495.47,354.2l-32.68-23.61a2.47,2.47,0,0,0-2.06-.38l-12,3.19a1.81,1.81,0,0,0-1.35,1.81l0,1.18,12.67-3.82s1.51-.57,4.07,1.3l27.22,19.81c.68.14,1.42.26,2.2.35S494.88,354.17,495.47,354.2Z" fill="#251860"/><path id="aa2c7d91-8f33-466f-97a0-f549cd9aa559" data-name="SVGID" d="M350.09,593.32l36.3,15.23a8,8,0,0,0,7.55-.73c14.13-9.48,65.8-45.94,85.27-84.3a8,8,0,0,1,11.13-3.38c14.51,8.37,46.58,25.78,67.92,29.18a8,8,0,0,0,6.22-1.6c8.92-7,39.31-29.77,66.09-39a8,8,0,0,0,2.12-14c-1-.71-2-1.41-3.11-2.09a8.39,8.39,0,0,1-2.12-1.82c-4.17-5.09-23.16-26.88-48-34.8-.27-.08-.53-.15-.81-.21-5.8-1.26-71.9-15.38-106.31-16.2,0,0-8.57-1.29-20.57,9.86,0,0-32.85,31.75-58,69.09l-47,62.55A8,8,0,0,0,350.09,593.32Z" fill="#f48225" data-secondary="true"/><g clip-path="url(#a0c5e1b9-1974-4f04-b79f-1065394200ea)"><path d="M390.32,610.2l-14.21-6.38s81.77-77.11,89.17-127.33A7.27,7.27,0,0,1,476,471.25c24.37,13.52,87.75,42.46,152.31,20.67,0,0,12.79,7.23,14.15,13.71,0,0-30.5,5.52-80.57,44.14,0,0-22.65-1.33-71.23-29.45a8.32,8.32,0,0,0-11.51,3.26C471.6,537.72,449.54,569.64,390.32,610.2Z" opacity="0.1"/></g><path id="f9f6dc07-65a8-4ed8-a6c0-9edcc59fdd4a" data-name="SVGID" d="M350.09,593.32l36.3,15.23a8,8,0,0,0,7.55-.73c14.13-9.48,65.8-45.94,85.27-84.3a8,8,0,0,1,11.13-3.38c14.51,8.37,46.58,25.78,67.92,29.18a8,8,0,0,0,6.22-1.6c8.92-7,39.31-29.77,66.09-39a8,8,0,0,0,2.12-14c-1-.71-2-1.41-3.11-2.09a8.39,8.39,0,0,1-2.12-1.82c-4.17-5.09-23.16-26.88-48-34.8-.27-.08-.53-.15-.81-.21-5.8-1.26-71.9-15.38-106.31-16.2,0,0-8.57-1.29-20.57,9.86,0,0-32.85,31.75-58,69.09l-47,62.55A8,8,0,0,0,350.09,593.32Z" fill="none" stroke="#351d66" stroke-miterlimit="10"/><path d="M349.81,593.2s-24.06,33.57-44.06,37c0,0-6.85,9.43,6.29,7.72,0,0,50-16,68.57-24.86l4.27-5.14Z" fill="#f9c7a5" stroke="#351d66" stroke-miterlimit="10"/><path d="M355.47,644.49v4.92a2.31,2.31,0,0,0,2.5,2.3l22.35-1.79s9.72-11.43.29-36.86L312,637.92s-7,1.36-8-2.39c0,0,0-3.33,1.72-5.33,0,0-31.57,10.57-30.71,21.72,0,0-2.14,4.71,11.86,3.28l40.53-2a17.69,17.69,0,0,0,4.67-.88Z" fill="#251860"/><path d="M597.87,269C595,278.21,585,287.38,585,287.38a17,17,0,0,1-11.72,4.21,22.1,22.1,0,0,1-16.1-7.41C526.81,250.74,529,225.29,529,225.29S598.13,217.69,597.87,269Z" fill="#f9c7a5" stroke="#351d66" stroke-miterlimit="10"/><path id="fb2861c1-3a67-4d10-ac8f-502bc27a0ca2" data-name="SVGID" d="M535,228.17s62.09-7.34,61.83,52.13c0,0-4.71,50,1,73.1,0,0,9.17,25.67-11.79,32.75,0,0,29.34,16,39.56-16.77l3.67-12.84s5.24-53.44,47.42-43.49c0,0,24.36.79,39,38.25a181,181,0,0,1,6.54,44.28s15.1-7.12,18.43-34.35a81.14,81.14,0,0,0-11.89-52.42,129.08,129.08,0,0,0-17.3-22.1A112.26,112.26,0,0,0,694,272.15c-8.07-5.47-21.55-14.39-30.1-18.95,0,0-13.35-7.78-25.75-25.32,0,0-28.25-51.82-62.11-48.39,0,0-29.07-5.15-47.11,30,0,0-10.52,13.69-1.4,37.71.84,2.22,1.6,4.47,2.3,6.74a76.1,76.1,0,0,0,5.83,13.84,54.44,54.44,0,0,0,6.07,9c3,3.65,9.44,14.21,6.45,36,0,0-9.57,38.56-3.79,51.85,0,0,13.47-36.85,44.08-58.49l4.07-7.07s-3.87-7.94-7.51-11.68c0,0-4.52,4.52-13.29,4.13,0,0-10.13.72-25.08-20.29,0,0-17.94-23.52-17.69-45.93C529,225.29,529.09,227.35,535,228.17Z" fill="#f48225" data-secondary="true"/><g clip-path="url(#a94f8196-c3d9-463b-8adc-c48f2e32a40b)"><g opacity="0.1"><path d="M591.88,387.35a22.09,22.09,0,0,1-6-.73l.3-.95a24,24,0,0,0,21.12-4.93c10.19-8.56,20.77-31.06,13.27-89.71v-.1c0-.5,3.39-49.77-23.25-68-15.26-10.42-37.39-8.81-65.76,4.78l-.43-.9c28.72-13.76,51.18-15.35,66.75-4.71,26.73,18.26,23.82,66.94,23.69,68.81,7.55,59.08-3.25,81.86-13.64,90.57A24.7,24.7,0,0,1,591.88,387.35Z"/></g><g opacity="0.1"><path d="M722.8,395.68l-1-.21a157,157,0,0,0,1.9-43.14c-2.17-20.79-10.52-47.85-38-58.64a66.44,66.44,0,0,1-30-23.67c-11.83-16.76-30.54-40-52.51-55.53C577,196,552.77,193.08,531.23,206l-.52-.86c21.91-13.11,46.51-10.23,73.12,8.57,22.08,15.6,40.87,38.94,52.74,55.77a65.55,65.55,0,0,0,29.58,23.31c22.09,8.69,35.43,29.26,38.58,59.49A157.48,157.48,0,0,1,722.8,395.68Z"/></g></g><path id="eb450860-b59c-48e4-8593-9845fbfe6058" data-name="SVGID" d="M535,228.17s62.09-7.34,61.83,52.13c0,0-4.71,50,1,73.1,0,0,9.17,25.67-11.79,32.75,0,0,29.34,16,39.56-16.77l3.67-12.84s5.24-53.44,47.42-43.49c0,0,24.36.79,39,38.25a181,181,0,0,1,6.54,44.28s15.1-7.12,18.43-34.35a81.14,81.14,0,0,0-11.89-52.42,129.08,129.08,0,0,0-17.3-22.1A112.26,112.26,0,0,0,694,272.15c-8.07-5.47-21.55-14.39-30.1-18.95,0,0-13.35-7.78-25.75-25.32,0,0-28.25-51.82-62.11-48.39,0,0-29.07-5.15-47.11,30,0,0-10.52,13.69-1.4,37.71.84,2.22,1.6,4.47,2.3,6.74a76.1,76.1,0,0,0,5.83,13.84,54.44,54.44,0,0,0,6.07,9c3,3.65,9.44,14.21,6.45,36,0,0-9.57,38.56-3.79,51.85,0,0,13.47-36.85,44.08-58.49l4.07-7.07s-3.87-7.94-7.51-11.68c0,0-4.52,4.52-13.29,4.13,0,0-10.13.72-25.08-20.29,0,0-17.94-23.52-17.69-45.93C529,225.29,529.09,227.35,535,228.17Z" fill="none" stroke="#351d66" stroke-miterlimit="10"/><path d="M531.38,227.3s-.15,5.63,24.21,10.44a43.53,43.53,0,0,1,11.72,4.09c9.05,4.7,22.36,14.76,23.44,33.62,0,0,2.5,13,0,20.35,0,0,2.84-1.7,1.72-17.4a48.93,48.93,0,0,0-7.83-23.59,40.13,40.13,0,0,0-24.32-17.32s-18.8-5.21-25.33-9.32A36.81,36.81,0,0,1,531.38,227.3Z" fill="#f48225" data-secondary="true" stroke="#351d66" stroke-miterlimit="10"/><ellipse cx="548.09" cy="254.16" rx="3.42" ry="5.59" transform="translate(-53.65 308.1) rotate(-30)" fill="#251860"/><path d="M543.71,266.79s-1.64,15.25,7.93,10" fill="none" stroke="#351d66" stroke-miterlimit="10"/><path d="M557.21,282.87s7.5-1.5,11.36-7.72" fill="none" stroke="#351d66" stroke-miterlimit="10"/></svg>