<svg xmlns="http://www.w3.org/2000/svg" xmlns:xlink="http://www.w3.org/1999/xlink" width="865.76" height="682.89" viewBox="0 0 865.76 682.89"><defs><clipPath id="a"><rect x="175.87" y="82.97" width="204.68" height="195.08" rx="37.85" fill="#fcd6ca"/></clipPath></defs><ellipse cx="403.17" cy="312.8" rx="340.83" ry="223.07" fill="#f48225" data-secondary="true"/><ellipse cx="403.17" cy="312.8" rx="340.83" ry="223.07" fill="#fff" opacity="0.7"/><line x1="179.02" y1="144.76" x2="627.22" y2="144.76" fill="none" stroke="#fff" stroke-miterlimit="10"/><line x1="100.1" y1="209.64" x2="705.43" y2="209.64" fill="none" stroke="#fff" stroke-miterlimit="10"/><line x1="67.34" y1="274.52" x2="739.64" y2="274.52" fill="none" stroke="#fff" stroke-miterlimit="10"/><line x1="63.82" y1="339.39" x2="741.51" y2="339.39" fill="none" stroke="#fff" stroke-miterlimit="10"/><line x1="90.79" y1="404.27" x2="715.05" y2="404.27" fill="none" stroke="#fff" stroke-miterlimit="10"/><line x1="158.36" y1="469.15" x2="645.46" y2="469.15" fill="none" stroke="#fff" stroke-miterlimit="10"/><line x1="292.61" y1="144.76" x2="292.61" y2="100.93" fill="none" stroke="#fff" stroke-miterlimit="10"/><line x1="426.64" y1="144.76" x2="426.64" y2="89.73" fill="none" stroke="#fff" stroke-miterlimit="10"/><line x1="564.26" y1="144.76" x2="564.26" y2="117.25" fill="none" stroke="#fff" stroke-miterlimit="10"/><line x1="231.44" y1="144.76" x2="231.44" y2="209.64" fill="none" stroke="#fff" stroke-miterlimit="10"/><line x1="292.61" y1="209.64" x2="292.61" y2="274.52" fill="none" stroke="#fff" stroke-miterlimit="10"/><line x1="213.45" y1="274.52" x2="213.45" y2="339.39" fill="none" stroke="#fff" stroke-miterlimit="10"/><line x1="356.47" y1="274.52" x2="356.47" y2="339.39" fill="none" stroke="#fff" stroke-miterlimit="10"/><line x1="340.28" y1="404.27" x2="340.28" y2="469.15" fill="none" stroke="#fff" stroke-miterlimit="10"/><line x1="474.31" y1="404.27" x2="474.31" y2="469.15" fill="none" stroke="#fff" stroke-miterlimit="10"/><line x1="387.96" y1="469.15" x2="387.96" y2="535.86" fill="none" stroke="#fff" stroke-miterlimit="10"/><line x1="509.06" y1="469.15" x2="509.06" y2="523.68" fill="none" stroke="#fff" stroke-miterlimit="10"/><line x1="267.6" y1="469.15" x2="267.6" y2="516.76" fill="none" stroke="#fff" stroke-miterlimit="10"/><line x1="594.84" y1="404.27" x2="594.84" y2="469.15" fill="none" stroke="#fff" stroke-miterlimit="10"/><line x1="213.45" y1="407.64" x2="213.45" y2="472.52" fill="none" stroke="#fff" stroke-miterlimit="10"/><line x1="487.8" y1="274.52" x2="487.8" y2="339.39" fill="none" stroke="#fff" stroke-miterlimit="10"/><line x1="610.13" y1="274.52" x2="610.13" y2="339.39" fill="none" stroke="#fff" stroke-miterlimit="10"/><line x1="539.07" y1="339.39" x2="539.07" y2="404.27" fill="none" stroke="#fff" stroke-miterlimit="10"/><line x1="415.84" y1="339.39" x2="415.84" y2="404.27" fill="none" stroke="#fff" stroke-miterlimit="10"/><line x1="276.42" y1="339.39" x2="276.42" y2="404.27" fill="none" stroke="#fff" stroke-miterlimit="10"/><line x1="158.36" y1="339.39" x2="158.36" y2="404.27" fill="none" stroke="#fff" stroke-miterlimit="10"/><line x1="664.1" y1="339.39" x2="664.1" y2="404.27" fill="none" stroke="#fff" stroke-miterlimit="10"/><line x1="426.64" y1="209.64" x2="426.64" y2="274.52" fill="none" stroke="#fff" stroke-miterlimit="10"/><line x1="560.66" y1="209.64" x2="560.66" y2="274.52" fill="none" stroke="#fff" stroke-miterlimit="10"/><line x1="680.29" y1="209.64" x2="680.29" y2="274.52" fill="none" stroke="#fff" stroke-miterlimit="10"/><line x1="145.99" y1="209.64" x2="145.99" y2="274.52" fill="none" stroke="#fff" stroke-miterlimit="10"/><line x1="360.97" y1="144.76" x2="360.97" y2="209.64" fill="none" stroke="#fff" stroke-miterlimit="10"/><line x1="498.6" y1="144.76" x2="498.6" y2="209.64" fill="none" stroke="#fff" stroke-miterlimit="10"/><line x1="610.13" y1="144.76" x2="610.13" y2="209.64" fill="none" stroke="#fff" stroke-miterlimit="10"/><polygon points="718.57 615.08 79.41 615.08 116.23 569.42 676.96 572.22 718.57 615.08" fill="#d6dfe4"/><polygon points="718.57 615.08 714.67 622.76 83.22 622.48 79.41 615.08 718.57 615.08" fill="#a5b9c5"/><path d="M524,572.4s1.63-27.54-33-26.18L313,542.94s-27-5.77-32.72,26.44c0,0-7.11-2.84,0-30.32l30.32-92.86s6.16-23.37,46-30.19a106.93,106.93,0,0,1,16.05-2.8l80.25,5.09,30,11.68s15.16,5.33,15.79,19.15l25.59,84.24S532.57,561,524,572.4Z" fill="#686175" data-primary="true"/><path d="M467.38,424l-10.74-4.19-3.79-1.47s-1.53-9.93-20.38-6.88l-41-2.54s-12.23-3.32-18.85,4.33c0,0-3.05.39-6.61.93a82,82,0,0,0-9.44,1.87s-13.5-12-5.35-17.32c0,0,17.73-8.15,17.14-17.07,0,0,.37-8-.12-9.09,1.07.2,6.28.5,13.56.82,13.4.61,33.81,1.34,48.41,1.82h0c10.32.36,17.73.59,17.73.59s-2,12.48,8.74,17.07c0,0,10.95,4.33,10.7,16.81Z" fill="#272727"/><path d="M456.8,419.83l-3.95-1.53s-1.53-9.93-20.38-6.88l-41-2.54s-12.23-3.32-18.85,4.33c0,0-3.05.39-6.61.93a18.17,18.17,0,0,0-4.93-6.67,11.76,11.76,0,0,1-3.13-3.5c-1.61-2.8-2.53-7,4.08-9.36,0,0,13.1-4.23,10.9-14l8.87-7.24,3.3-2.69,45.11,4.51h0l7.08.71,4.11,1.15s-2.81,9.43,4.32,13c0,0,12.49,6.38,11,19.37Z" fill="#231f20"/><path d="M394.25,388v14a9.27,9.27,0,0,1-2.44,6.24c-1.6,1.78-3.42,4.28-3.42,6.55,0,0,0,22.67,9.43,34.39h24.71s13.22-20.78,10.35-36a5.9,5.9,0,0,0-1.46-2.89l-2.7-2.91a9.47,9.47,0,0,1-2.52-6.67l.41-15Z" fill="#ffb8ca"/><path d="M376.93,449.13s-20.38-17.32-4.33-35.92c0,0,4.73-7.25,18.65-4.37,0,0-2.63,2.75-2.86,5.9,0,0-1,18.59,9.43,34.39Z" fill="#686175" data-primary="true"/><path d="M376.93,449.13s-20.38-17.32-4.33-35.92c0,0,4.73-7.25,18.65-4.37,0,0-2.63,2.75-2.86,5.9,0,0-1,18.59,9.43,34.39Z" fill="#fff" opacity="0.4"/><path d="M422.53,449.13H446s11.47-18.36,6.88-30.83c0,0-1.66-10.12-20.62-6.89C432.23,411.41,438.07,422.63,422.53,449.13Z" fill="#686175" data-primary="true"/><path d="M422.53,449.13H446s11.47-18.36,6.88-30.83c0,0-1.66-10.12-20.62-6.89C432.23,411.41,438.07,422.63,422.53,449.13Z" fill="#fff" opacity="0.4"/><polygon points="303.91 449.13 317.18 586.91 486.31 586.91 502.42 449.13 303.91 449.13" fill="#f48225" data-secondary="true"/><path d="M502.42,449.13,487.48,577H316.22l-2.36-24s93.8,2.86,136.92-103.82Z" fill="#fff" opacity="0.4"/><path d="M618.49,585c-.1.21-.21.41-.32.61-2.14,2-14.8,3.57-30.11,3.57-16.25,0-29.53-1.75-30.38-4h0a.52.52,0,0,1,0-.21c0-2.31,13.62-4.19,30.42-4.19S618.49,582.72,618.49,585Z" fill="#d1d3d4"/><path d="M618.17,585.64c-5,8.2-29.86,8.22-30.11,8.22-26.91.28-30-7.23-30.38-8.61.85,2.21,14.13,4,30.38,4C603.37,589.21,616,587.66,618.17,585.64Z" fill="#e6e7e8"/><polygon points="156.1 583.5 238.26 583.5 260.43 558.28 187.43 558.28 156.1 583.5" fill="#008fa3"/><rect x="156.1" y="583.5" width="82.16" height="16.89" fill="#008fa3"/><rect x="156.1" y="583.5" width="82.16" height="16.89" fill="#fff" opacity="0.4"/><polygon points="260.43 577.39 238.26 600.4 238.26 583.5 260.43 558.28 260.43 577.39" fill="#008fa3"/><polygon points="260.43 577.39 238.26 600.4 238.26 583.5 260.43 558.28 260.43 577.39" opacity="0.2"/><path d="M175,335H112.86a50.72,50.72,0,0,0-50.72,50.72h0a50.71,50.71,0,0,0,50.72,50.71H165c5.17,7.35,16.53,19,38.65,24,0,0-8.17-14.5-10.77-27.27a50.73,50.73,0,0,0,32.88-47.48h0A50.71,50.71,0,0,0,175,335Z" fill="#fddfd2"/><path d="M188.32,361.64H99.25a1.66,1.66,0,0,1,0-3.32h89.07a1.66,1.66,0,0,1,0,3.32Z" fill="#fff"/><path d="M188.47,378.69H99.41a1.66,1.66,0,1,1,0-3.31h89.06a1.66,1.66,0,1,1,0,3.31Z" fill="#fff"/><path d="M188.4,395.75H99.33a1.66,1.66,0,1,1,0-3.32H188.4a1.66,1.66,0,0,1,0,3.32Z" fill="#fff"/><path d="M188.55,412.8H99.49a1.66,1.66,0,1,1,0-3.31h89.06a1.66,1.66,0,1,1,0,3.31Z" fill="#fff"/><path d="M679.27,243.69h68.49a55.88,55.88,0,0,1,55.87,55.87h0a55.87,55.87,0,0,1-55.87,55.87H690.34c-5.69,8.09-18.21,20.95-42.58,26.47,0,0,9-16,11.87-30a55.89,55.89,0,0,1-36.22-52.31h0A55.87,55.87,0,0,1,679.27,243.69Z" fill="#fddfd2"/><path d="M762.75,272.92H664.63a1.66,1.66,0,0,1,0-3.31h98.12a1.66,1.66,0,0,1,0,3.31Z" fill="#fff"/><path d="M762.57,291.71H664.46a1.66,1.66,0,1,1,0-3.32h98.11a1.66,1.66,0,0,1,0,3.32Z" fill="#fff"/><path d="M762.66,310.5H664.55a1.66,1.66,0,1,1,0-3.32h98.11a1.66,1.66,0,1,1,0,3.32Z" fill="#fff"/><path d="M762.48,329.28H664.37a1.66,1.66,0,0,1,0-3.31h98.11a1.66,1.66,0,1,1,0,3.31Z" fill="#fff"/><path d="M608.54,112.14V252a52,52,0,0,1-52,52H309.65c-30.06,102.69-2.69,128.66-2.14,129.18C235,391,246.76,304,246.76,304H198.52a52,52,0,0,1-52-52V112.14a52,52,0,0,1,52-52h358A52,52,0,0,1,608.54,112.14Z" fill="#fddfd2"/><rect x="394.94" y="82.97" width="181.76" height="195.08" rx="18.08" fill="#fcd6ca"/><rect x="410.06" y="100.03" width="75.76" height="37.84" rx="1.69" fill="#fff"/><rect x="419.75" y="108.65" width="56.46" height="1.11" fill="#fddfd2"/><rect x="419.75" y="119.11" width="56.46" height="1.11" fill="#fddfd2"/><rect x="419.75" y="128.94" width="56.46" height="1.11" fill="#fddfd2"/><rect x="481.75" y="142.67" width="75.76" height="37.84" rx="1.69" fill="#fff"/><rect x="491.44" y="151.29" width="56.46" height="1.11" fill="#fcd6ca"/><rect x="491.44" y="161.75" width="56.46" height="1.11" fill="#fcd6ca"/><rect x="491.44" y="171.58" width="56.46" height="1.11" fill="#fcd6ca"/><rect x="411.64" y="183.72" width="75.76" height="37.84" rx="1.69" fill="#fff"/><rect x="421.33" y="192.35" width="56.46" height="1.11" fill="#fddfd2"/><rect x="421.33" y="202.81" width="56.46" height="1.11" fill="#fddfd2"/><rect x="421.33" y="212.64" width="56.46" height="1.11" fill="#fddfd2"/><rect x="481.75" y="227.72" width="75.76" height="37.84" rx="1.69" fill="#fff"/><rect x="491.44" y="236.34" width="56.46" height="1.11" fill="#fcd6ca"/><rect x="491.44" y="246.8" width="56.46" height="1.11" fill="#fcd6ca"/><rect x="491.44" y="256.63" width="56.46" height="1.11" fill="#fcd6ca"/><path d="M394.25,402V388l32.67-1.36-.83,15a54.35,54.35,0,0,1-17.3,2.57A60.61,60.61,0,0,1,394.25,402Z" fill="#f9aac0"/><ellipse cx="408.84" cy="334.95" rx="39.1" ry="59.66" fill="#ffb8ca"/><path d="M450.78,333s-1.11.08-2.87,0c-6.08-.2-19.87-2.12-21.53-15.19,0,0-9.95,9.24-21.79,7.11a10.85,10.85,0,0,0,4.25-6.4s-26.6,17.66-40.82,14c0,0-6.33-50.27,40.82-46C408.84,286.55,447,282.28,450.78,333Z" fill="#272727"/><path d="M447.93,335c-16.81,7.66-23-11.46-23-11.46-11.85,7.83-26,9.53-26,9.53a14.54,14.54,0,0,0,2.12-5.49c-15.39,11.84-32.69,5-32.69,5,14.22,3.63,40.5-14,40.5-14a10.85,10.85,0,0,1-4.25,6.4c11.84,2.13,21.79-7.11,21.79-7.11,1.66,13.07,15.45,15,21.53,15.19Z" fill="#f9aac0"/><path d="M462.23,337.19l4.07,1a5,5,0,0,1,3.62,6.3l-10.3,33.42A4.7,4.7,0,0,1,453.9,381L443,378.12l9.48-38.61L450.78,335l3.05-7.67L440.74,296s-14.93-11.26-29.08-11.26c0,0-37-5.28-43.32,24.89l-3.56,20.95L368,335v6.92s2.26,25.14,9.59,36.4c0,0-.82,1.91-7.87,2.92,0,0-8.63,3.63-10.46-5.53l-8.91-30.39s-2.78-7.49,6.41-8.42a1.7,1.7,0,0,0,1.56-1.81c-.73-9.85-2.28-58.89,39.18-61,0,0,66.13-9.53,63,60.83A2.28,2.28,0,0,0,462.23,337.19Z" fill="#686175" data-primary="true"/><path d="M377,297c-9.92,11.1-9,35.56-9,35.56,2.22-.56,1.72,1,1.72,1-.41,27,11.38,43.45,11.38,43.45-7.9,4-9.77-4.1-9.77-4.1l-9-30.64a6.13,6.13,0,0,1,3-7.34h-1.13a.93.93,0,0,1-.93-.85c-.58-7-2.81-55.26,46.11-50.87,0,0,39.49-1.66,45.88,38.37v10.49a2,2,0,0,1-1.95,2h-.54l1.11,1.19a5.45,5.45,0,0,1,1.31,5c-2,8.48-8.12,33.34-12.17,37.92a5.33,5.33,0,0,1-5.76-2.24S448.2,361.14,447.91,333l2.87,0s-1.3-47.85-41.94-46.43C408.84,286.55,389.19,283.36,377,297Z" fill="#686175" data-primary="true"/><path d="M377,297c-9.92,11.1-9,35.56-9,35.56,2.22-.56,1.72,1,1.72,1-.41,27,11.38,43.45,11.38,43.45-7.9,4-9.77-4.1-9.77-4.1l-9-30.64a6.13,6.13,0,0,1,3-7.34h-1.13a.93.93,0,0,1-.93-.85c-.58-7-2.81-55.26,46.11-50.87,0,0,39.49-1.66,45.88,38.37v10.49a2,2,0,0,1-1.95,2h-.54l1.11,1.19a5.45,5.45,0,0,1,1.31,5c-2,8.48-8.12,33.34-12.17,37.92a5.33,5.33,0,0,1-5.76-2.24S448.2,361.14,447.91,333l2.87,0s-1.3-47.85-41.94-46.43C408.84,286.55,389.19,283.36,377,297Z" fill="#fff" opacity="0.4"/><path d="M491.07,546.22q-1.53,11.34-2.88,23.08-1,8.91-1.88,17.61a68.23,68.23,0,0,0,16.24-2c8.22-1.81,17.27-5.26,21.19-11.85a3.61,3.61,0,0,0,.47-2C524,566,521.39,544.78,491.07,546.22Z" fill="#ffb8ca"/><path d="M317.18,586.91s-31.31-2.73-36.71-16.82a2.94,2.94,0,0,1-.13-1.5c.75-4.73,6-29.1,32.61-25.65,1.06,7.29,2,14.94,2.75,22.94C316.38,573.15,316.86,580.17,317.18,586.91Z" fill="#ffb8ca"/><polygon points="256.5 553.94 234.33 576.95 234.33 560.05 256.5 534.83 256.5 553.94" fill="#f48225" data-secondary="true"/><polygon points="256.5 553.94 234.33 576.95 234.33 560.05 256.5 534.83 256.5 553.94" opacity="0.2"/><rect x="152.17" y="560.05" width="82.16" height="16.89" fill="#f48225" data-secondary="true"/><rect x="152.17" y="560.05" width="82.16" height="16.89" fill="#f48225" data-secondary="true"/><rect x="152.17" y="560.05" width="82.16" height="16.89" fill="#fff" opacity="0.4"/><polygon points="152.17 560.05 234.33 560.05 256.5 534.83 183.5 534.83 152.17 560.05" fill="#f48225" data-secondary="true"/><ellipse cx="586.99" cy="552.6" rx="31.51" ry="4.94" fill="#d1d3d4"/><path d="M618.49,552.6c-4.37,37.26-34.3,32.57-34.3,32.57-26.55-1.73-28.71-32.57-28.71-32.57,0,2.73,14.11,4.94,31.51,4.94S618.49,555.33,618.49,552.6Z" fill="#e6e7e8"/><rect x="175.87" y="82.97" width="204.68" height="195.08" rx="37.85" fill="#fcd6ca"/><g clip-path="url(#a)"><path d="M146.51,278.05c4-7,18.09-69,42.53-81.41,0,0,18.75-8.37,22.06-10.79l47.47,1.75s9.66,4.94,19.07,9c15.08,3.13,32,46.49,39.6,60l-6.69,21.42Z" fill="#f48225" data-secondary="true"/><path d="M218.05,136c-.45,11.15-.08,16.05,6.38,23.81h0c13.38,16.12,27,10.06,27,10.06,18.57-9.59,12.33-35.85,10.86-47.81-2.79-4.38-13.26-7.38-12.68-7.33a58.66,58.66,0,0,1-13.37-6.68C230,118.72,220.68,129.22,218.05,136Z" fill="#ffb8ca"/><path d="M237,212.86c17.82-13.77,13.55-33,14.48-43,0,0-13.66,6.06-27-10.06h0c-.66-.8-1.32-1.65-2-2.55a62.74,62.74,0,0,0-1.79,25.59,48,48,0,0,0,2.79,11.27A46.86,46.86,0,0,0,237,212.86Z" fill="#ffb8ca"/><path d="M263.14,214.88c-14.57-8.83-9.54-9.16-26.15-2,0,0,12.43-4.56,14.48-32.52,1,1.3,7.36,6.65,7.55,8.32C260,192.34,263.14,204.78,263.14,214.88Z" fill="#f48225" data-secondary="true"/><path d="M263.14,214.88c-14.57-8.83-9.54-9.16-26.15-2,0,0,12.43-4.56,14.48-32.52,1,1.3,7.36,6.65,7.55,8.32C260,192.34,263.14,204.78,263.14,214.88Z" opacity="0.2"/><path d="M237,212.86c-.63.43-10.06-8-14.17-6.88-3.81,1.1-11.65,3.79-14.12,7.79.15.19-1.74-19.68,3.15-29.24l8.34-9.83S218.52,197.61,237,212.86Z" fill="#f48225" data-secondary="true"/><path d="M237,212.86c-.63.43-10.06-8-14.17-6.88-3.81,1.1-11.65,3.79-14.12,7.79.15.19-1.74-19.68,3.15-29.24l8.34-9.83S218.52,197.61,237,212.86Z" opacity="0.2"/><path d="M184.79,207.73c7.36,22.53,1.68,47.07,2,70.32C187.45,255.35,193,229.36,184.79,207.73Z" opacity="0.2"/><path d="M284.3,215.6c-.28,5-.26,10.23-1.67,15.09,0,0,.57,3,.58,3,2.92,14.7,6,29.71,9.35,44.32-2.81-15.76-6.06-31.74-9.41-47.4v.14C284.45,225.85,284.31,220.67,284.3,215.6Z" opacity="0.2"/><g opacity="0.2"><rect x="236.57" y="213.67" width="0.71" height="44.9" transform="translate(-21.72 24.02) rotate(-5.55)"/></g><path d="M239.08,227.07a1.62,1.62,0,0,0,3.24,0A1.62,1.62,0,0,0,239.08,227.07Z" opacity="0.2"/><path d="M242.32,253.43a1.62,1.62,0,0,0,3.23,0A1.62,1.62,0,0,0,242.32,253.43Z" opacity="0.2"/><path d="M224.43,159.85c6,24.49,27,20.49,27,20.49.2-2.35,0-10.43,0-10.43S237.81,176,224.43,159.85Z" fill="#f9aac0"/><path d="M262.33,122.1c4.23-19.79-50-39.86-57.46-2.9,0,0-5.64,44.42-15.2,61.14,0,0-9.44,21.24-14.91,30,6.4-10.3,22.44-16.32,36.77-24.53.23-.95,7.49-9.7,8.66-11.15l2.27-17.4c-5-7.27-4.3-12.32-4.41-21.26,3.36-7.85,10.53-15.4,18.23-27.95,0,0,7.94,5.06,11.79,6.12C248.07,114.21,259.6,117.81,262.33,122.1Z" fill="#272727"/><path d="M264.4,144.08l10.16,51.15-16-7.63-7.1-7.26V169.91S265,165,264.4,144.08Z" fill="#272727"/><path d="M255.76,145.21l-.85,0a9.19,9.19,0,0,1-7.08-7,6.45,6.45,0,0,1,2.73-6.8c6-3.71,17.49-1.42,18-1.32l.46.09-.07.46C267.64,140.29,263.21,145.21,255.76,145.21Zm4.53-15c-3.23,0-6.75.43-9.18,1.94a5.47,5.47,0,0,0-2.3,5.77,8.15,8.15,0,0,0,6.24,6.24c7.12.32,11.49-4.13,12.83-13.28A46.48,46.48,0,0,0,260.29,130.25Z" fill="#f48225" data-secondary="true"/><path d="M233.35,145.12a14.92,14.92,0,0,1-5-.93,16.06,16.06,0,0,1-8.92-13.64l0-.44.43-.08c16-3.14,20.85,1.7,22.18,3.93a6.6,6.6,0,0,1-.8,7.72A10,10,0,0,1,233.35,145.12Zm-12.91-14.2a14.77,14.77,0,0,0,8.27,12.34c5.62,2,9.75.18,11.71-2.22a5.6,5.6,0,0,0,.71-6.56C238.62,130.27,230.9,129,220.44,130.92Z" fill="#f48225" data-secondary="true"/><rect x="242.36" y="135.3" width="5.81" height="1" fill="#f48225" data-secondary="true"/><rect x="212.4" y="132.2" width="7.78" height="1" fill="#f48225" data-secondary="true"/><path d="M333,210l-22.42,68h33l4-54.51s9.23-4.27,18.14-15.81c.42,0,9.7-11,1.62-6.59.72.38,14.76-14.52,2.43-8.1,0,0,7.59-7,6.68-10,0,0-.81-2.13-5.06,1.11,2.34-1.54,5.55-10.29-3.75-2.63,0,0-16.1,11.95-22.48,12.66-.32-3.36,6.77-11.28-.4-17.12,0,0-1-.3-.61,3C343.85,189.56,333.76,191.14,333,210Z" fill="#ffb8ca"/><path d="M366,202.56a28.15,28.15,0,0,1-4.37,3.6,27.5,27.5,0,0,1-4.94,2.78,28.15,28.15,0,0,1,4.37-3.6A28.77,28.77,0,0,1,366,202.56Z" fill="#f9aac0"/><path d="M368.37,194.36a54.71,54.71,0,0,1-6,5,52.82,52.82,0,0,1-6.58,4.2,53.89,53.89,0,0,1,6-5A54.66,54.66,0,0,1,368.37,194.36Z" fill="#f9aac0"/><path d="M371.31,184.54a64.49,64.49,0,0,1-7.82,6.76c-1.39,1-2.81,2-4.29,2.89a20.35,20.35,0,0,1-4.7,2.2,47.31,47.31,0,0,0,4.27-2.85l4.13-3C365.66,188.46,368.41,186.42,371.31,184.54Z" fill="#f9aac0"/><path d="M353.89,194.36a10.33,10.33,0,0,1,1.35,2.4,15,15,0,0,1,.81,2.65,10.4,10.4,0,0,1-.24,5.48c-.1-.92-.16-1.8-.29-2.68s-.26-1.75-.45-2.61C354.73,197.87,354.28,196.16,353.89,194.36Z" fill="#f9aac0"/><path d="M343.55,210.87a13.93,13.93,0,0,0,2.09-3.86,15.24,15.24,0,0,0,.86-4.21,15.57,15.57,0,0,0,0-2.16,20,20,0,0,0-.25-2.17c-.11-.72-.32-1.43-.45-2.16s-.43-1.41-.6-2.15c.38.64.72,1.32,1.06,2a21.63,21.63,0,0,1,.75,2.14,14.87,14.87,0,0,1,.51,4.56,12.5,12.5,0,0,1-1.14,4.45A9.44,9.44,0,0,1,343.55,210.87Z" fill="#f9aac0"/><path d="M347.6,223.54a4.37,4.37,0,0,1-1.68,1,7.05,7.05,0,0,1-1.92.39,7.37,7.37,0,0,1-3.78-.7,18.24,18.24,0,0,1,1.89-.18c.62,0,1.22-.06,1.82-.11C345.14,223.86,346.31,223.75,347.6,223.54Z" fill="#f9aac0"/><path d="M208.14,143.52c6.11,10.8,17.06,4.48,10.76-6.21C212.79,126.5,201.84,132.83,208.14,143.52Z" fill="#ffb8ca"/><path d="M211,135.8a8.62,8.62,0,0,0,4.16,7.56c.37.25.77.45,1.15.72a9.35,9.35,0,0,1-1.36-.27,6.12,6.12,0,0,1-4-8Z" fill="#f9aac0"/></g><ellipse cx="393.18" cy="351.6" rx="3.17" ry="5.21" fill="#272727"/><ellipse cx="424.89" cy="351.6" rx="3.17" ry="5.21" fill="#272727"/><path d="M385.91,343.2a8.86,8.86,0,0,1,2.66-3.12,8,8,0,0,1,4-1.64,5.64,5.64,0,0,1,4.25,1.28,6.51,6.51,0,0,1,1.43,1.59,9.29,9.29,0,0,1,.83,1.89c-.59-.39-1-.86-1.55-1.22a8.93,8.93,0,0,0-1.56-1,5.66,5.66,0,0,0-3.21-.6,11,11,0,0,0-3.36,1C388.24,341.93,387.11,342.54,385.91,343.2Z" fill="#272727"/><path d="M418.32,343.2a9,9,0,0,1,2.66-3.12,8,8,0,0,1,4-1.64,5.61,5.61,0,0,1,4.25,1.28,6.51,6.51,0,0,1,1.43,1.59,9.33,9.33,0,0,1,.84,1.89c-.59-.39-1-.86-1.56-1.22a9.24,9.24,0,0,0-1.55-1,5.69,5.69,0,0,0-3.22-.6,11,11,0,0,0-3.36,1C420.65,341.93,419.52,342.54,418.32,343.2Z" fill="#272727"/><path d="M407.05,353.49a65.93,65.93,0,0,1-1,11.48l-.43-.48c1.62.07,3.24.2,4.86.43a53,53,0,0,1-5.32.45,67.27,67.27,0,0,1,1.89-11.88Z" fill="#f9aac0"/><path d="M400.77,376.49h17.55s-3,7.57-7.84,7.28C410.48,383.77,405.62,385.49,400.77,376.49Z" fill="#fff"/><ellipse cx="255.82" cy="137.79" rx="1.37" ry="2.5" fill="#272727"/><ellipse cx="232.07" cy="138.1" rx="1.29" ry="2.2" fill="#272727"/><path d="M246.56,139.38c.38.69.72,1.4,1,2.11s.62,1.43.9,2.15c.57,1.44,1.07,2.91,1.53,4.4l.12.4-.36.16a38.22,38.22,0,0,1-4.59,1.71,37.51,37.51,0,0,1,4.2-2.54l-.23.56c-.56-1.44-1.07-2.91-1.51-4.4-.23-.74-.43-1.49-.62-2.25S246.69,140.16,246.56,139.38Z" fill="#f9aac0"/><path d="M252.18,153.65l-17-1.82a9.16,9.16,0,0,0,3.73,4.55,9.63,9.63,0,0,0,13-2.37Z" fill="#fff"/><path d="M261,128.23c-1.36-.24-2.59-.63-3.83-.91a13.71,13.71,0,0,0-1.85-.36,5.16,5.16,0,0,0-1.91.06,2.83,2.83,0,0,1,1.91-.84,6.29,6.29,0,0,1,2.08.16,9,9,0,0,1,1.92.72A6.86,6.86,0,0,1,261,128.23Z" fill="#272727"/><path d="M239.13,127.31c-1.49.27-2.92.36-4.33.56a15.42,15.42,0,0,0-2.07.36,5.45,5.45,0,0,0-1.95.83,3.22,3.22,0,0,1,1.68-1.57,7.52,7.52,0,0,1,2.21-.62,10.67,10.67,0,0,1,2.26,0A8.48,8.48,0,0,1,239.13,127.31Z" fill="#272727"/></svg>