<svg id="e1a54ee7-1586-486e-8834-6c6b799e84a1" data-name="Layer 1" xmlns="http://www.w3.org/2000/svg" width="865.76" height="682.89" viewBox="0 0 865.76 682.89"><polygon points="714.42 207.84 638.4 282.49 638.4 322.9 732.4 226.22 714.42 207.84" fill="#ccc"/><polygon points="714.42 207.84 638.4 282.49 638.4 322.9 732.4 226.22 714.42 207.84" opacity="0.1"/><rect x="22.09" y="175.84" width="191.43" height="151.52" fill="#f48225" data-secondary="true"/><g opacity="0.2"><rect x="127.34" y="212.92" width="75.39" height="1.6"/><rect x="127.34" y="229.57" width="75.39" height="1.6"/><rect x="127.34" y="245.42" width="75.39" height="1.6"/><rect x="127.34" y="262.07" width="75.39" height="1.6"/><rect x="33.69" y="277.12" width="169.05" height="1.6"/><rect x="33.69" y="292.17" width="169.05" height="1.6"/><rect x="33.69" y="308.03" width="169.05" height="1.6"/></g><rect x="32.89" y="194.37" width="68.94" height="70.88" fill="#fff" opacity="0.4"/><path d="M170.09,439.89a16.67,16.67,0,0,0-3.24,0c-5.7,1.13-7.49-2.24-7.58-6.91-.08-4-2.32-5.32-5.51-6.87-3.87-1.88-5.86.71-8,2.47-3.54,2.88-6.32,2.77-9.06-.87a27,27,0,0,0-2.66-2.69c-6.78-6.79-6.78-6.79-1.94-15.17,1.93-3.35-.54-9.23-4.26-10.14-9.11-2.21-9.11-2.21-9.11-11.75a20.59,20.59,0,0,0,0-3.24c-.85-5.18,1.26-7.4,6.53-8,7.66-.86,10-6.62,5.2-12.84-3.25-4.2-3.23-7.24,1-10.33a26.05,26.05,0,0,0,2.7-2.66c7.08-7.06,5.94-7.29,14-1.71,4,2.75,10,0,10.86-4.85C160.6,336,160.6,336,169.33,336a24.9,24.9,0,0,0,4.32,0c5.69-1,7.58,2,8.28,7.06,1,7.18,6.67,9.6,12.45,5.07,4.36-3.4,7.6-3.36,10.84,1.11a25.84,25.84,0,0,0,2.65,2.69c7,7,7.07,5.65,1.61,13.54-2.85,4.11-.4,9.93,4.51,11.11,8.42,2,8.42,2,8.39,10.68a41.49,41.49,0,0,0,0,4.86c.55,4.44-1.14,6.33-5.74,7.06-8.94,1.42-10.9,6.35-5.56,13.64,2.65,3.62,2.88,6.31-.83,9.09a33.84,33.84,0,0,0-3.45,3.43c-6.32,6.32-6.32,6.32-13.85,1.48-3.62-2.33-9.7-.15-10.79,3.86C179.64,439.89,179.64,439.89,170.09,439.89Zm.69-77a25.17,25.17,0,0,0-25.63,25c0,13.89,11.6,25.58,25.39,25.55a25.72,25.72,0,0,0,25.34-25A25.14,25.14,0,0,0,170.78,362.87Z" fill="#ccc"/><path d="M170.09,439.89a16.67,16.67,0,0,0-3.24,0c-5.7,1.13-7.49-2.24-7.58-6.91-.08-4-2.32-5.32-5.51-6.87-3.87-1.88-5.86.71-8,2.47-3.54,2.88-6.32,2.77-9.06-.87a27,27,0,0,0-2.66-2.69c-6.78-6.79-6.78-6.79-1.94-15.17,1.93-3.35-.54-9.23-4.26-10.14-9.11-2.21-9.11-2.21-9.11-11.75a20.59,20.59,0,0,0,0-3.24c-.85-5.18,1.26-7.4,6.53-8,7.66-.86,10-6.62,5.2-12.84-3.25-4.2-3.23-7.24,1-10.33a26.05,26.05,0,0,0,2.7-2.66c7.08-7.06,5.94-7.29,14-1.71,4,2.75,10,0,10.86-4.85C160.6,336,160.6,336,169.33,336a24.9,24.9,0,0,0,4.32,0c5.69-1,7.58,2,8.28,7.06,1,7.18,6.67,9.6,12.45,5.07,4.36-3.4,7.6-3.36,10.84,1.11a25.84,25.84,0,0,0,2.65,2.69c7,7,7.07,5.65,1.61,13.54-2.85,4.11-.4,9.93,4.51,11.11,8.42,2,8.42,2,8.39,10.68a41.49,41.49,0,0,0,0,4.86c.55,4.44-1.14,6.33-5.74,7.06-8.94,1.42-10.9,6.35-5.56,13.64,2.65,3.62,2.88,6.31-.83,9.09a33.84,33.84,0,0,0-3.45,3.43c-6.32,6.32-6.32,6.32-13.85,1.48-3.62-2.33-9.7-.15-10.79,3.86C179.64,439.89,179.64,439.89,170.09,439.89Zm.69-77a25.17,25.17,0,0,0-25.63,25c0,13.89,11.6,25.58,25.39,25.55a25.72,25.72,0,0,0,25.34-25A25.14,25.14,0,0,0,170.78,362.87Z" fill="#fff" opacity="0.2"/><path d="M99.56,421.19c1.92,1.08,3.61,2.17,5.43,3,2.87,1.31,4,2.84,2.63,6.24-1.47,3.64.58,6.23,4.65,5.77,4.94-.54,4.66,3,5.58,5.86.86,2.72,1.45,4.92-2.09,6.53-4.09,1.86-4.44,4.71-1.09,7.54,2.46,2.08,2.74,3.87.81,6.31s-2.07,6.73-7.15,4.89c-4.14-1.51-6.42.24-6,4.72.54,5.18-3.49,4.43-6.13,5.43s-4.89,1.36-6.38-2.26c-1.6-3.87-5-4.27-7.62-.88-3,3.84-5.14,1.13-7.63-.15s-5-2.44-3.44-6.37-.38-6.55-4.68-6.08c-5.1.54-4.51-3.31-5.53-6s-1.12-4.86,2.31-6.36c3.84-1.68,4.23-5,.82-7.62s-1.76-4.55-.23-6.77,1.79-6,6.42-4.33,6.24,0,6.68-5.25c.12-1.39,1.46-3.52,2.62-3.83,2.69-.7,6.78-1.78,8.24-.44C93.76,426.55,93.47,426.86,99.56,421.19ZM75.15,448.83a14.3,14.3,0,1,0,14.24-14.18A14.63,14.63,0,0,0,75.15,448.83Z" fill="#ccc"/><rect x="199.18" y="84.9" width="457.02" height="375.01" fill="#ccc"/><rect x="199.18" y="84.9" width="457.02" height="38.7" fill="#808285"/><rect x="199.18" y="84.9" width="74.18" height="38.7" opacity="0.2"/><rect x="254.08" y="95.42" width="1.6" height="19.37" transform="translate(0.33 211.01) rotate(-45)" fill="#fff"/><rect x="245.19" y="104.31" width="19.37" height="1.6" transform="translate(0.33 211.01) rotate(-45)" fill="#fff"/><path d="M295.8,117.63a12.39,12.39,0,1,1,12.39-12.39A12.4,12.4,0,0,1,295.8,117.63Zm0-23.18a10.79,10.79,0,1,0,10.79,10.79A10.8,10.8,0,0,0,295.8,94.45Z" fill="#fff"/><rect x="295" y="96.42" width="1.6" height="16.94" fill="#fff"/><rect x="286.5" y="104.44" width="17.53" height="1.6" fill="#fff"/><rect x="576.26" y="97.46" width="13.73" height="13.73" fill="#fff"/><rect x="598.76" y="97.46" width="13.73" height="13.73" fill="#fff"/><rect x="620.75" y="97.46" width="13.73" height="13.73" fill="#fff"/><path d="M272.15,217.67h256a0,0,0,0,1,0,0v48.26a0,0,0,0,1,0,0h-256A24.13,24.13,0,0,1,248,241.8v0a24.13,24.13,0,0,1,24.13-24.13Z" opacity="0.2"/><path d="M528.2,217.67h53.3a24.13,24.13,0,0,1,24.13,24.13v0a24.13,24.13,0,0,1-24.13,24.13H528.2a0,0,0,0,1,0,0V217.67A0,0,0,0,1,528.2,217.67Z" fill="#ccc"/><path d="M528.2,217.67h53.3a24.13,24.13,0,0,1,24.13,24.13v0a24.13,24.13,0,0,1-24.13,24.13H528.2a0,0,0,0,1,0,0V217.67A0,0,0,0,1,528.2,217.67Z" fill="#808285"/><rect x="265.54" y="240.42" width="251.66" height="2.75" opacity="0.2"/><path d="M571.43,251.34a11.95,11.95,0,1,1,12-12A12,12,0,0,1,571.43,251.34Zm0-22.3a10.35,10.35,0,1,0,10.35,10.35A10.37,10.37,0,0,0,571.43,229Z" fill="#ccc"/><rect x="549.33" y="250.09" width="14.94" height="1.6" transform="translate(-35.57 399.46) rotate(-38.34)" fill="#ccc"/><rect x="644.04" y="351.37" width="199.63" height="151.36" fill="#f48225" data-secondary="true"/><rect x="644.04" y="351.37" width="199.63" height="14.86" fill="#fff" opacity="0.4"/><rect x="798.94" y="354.92" width="6.74" height="6.74" fill="#fff"/><circle cx="744.21" cy="421.62" r="26.1" opacity="0.2"/><path d="M732.4,409.89v24.38a4.3,4.3,0,0,0,4.3,4.3h0a4.32,4.32,0,0,0,2.46-.77l19.68-12.14a5.28,5.28,0,0,0,2.26-4.34h0a5.3,5.3,0,0,0-2.43-4.46l-18-11.51a5.4,5.4,0,0,0-2.9-.85h0A5.38,5.38,0,0,0,732.4,409.89Z" fill="#f48225" data-secondary="true"/><rect x="660.64" y="478.44" width="166.58" height="16.09" opacity="0.2"/><rect x="674.24" y="484.52" width="139.48" height="3.88" rx="1.94" fill="#fff"/><path d="M703,482v9.14a.67.67,0,0,0,1.08.52l5.33-4.2a1.14,1.14,0,0,0,0-1.78l-5.33-4.2A.67.67,0,0,0,703,482Z" fill="#f48225" data-secondary="true"/><path d="M676.18,484.52H703a0,0,0,0,1,0,0v3.88a0,0,0,0,1,0,0H676.18a1.94,1.94,0,0,1-1.94-1.94v0a1.94,1.94,0,0,1,1.94-1.94Z" fill="#f48225" data-secondary="true"/><path d="M426.32,218l6,7.86s2.93,4.51.65,5.48c-2,.85-3.32-1.68-3.32-1.68s-1.28-5.77-3.78-4.35c-.34.19.26,4.28.6,6.36a3,3,0,0,0,1.14,1.91l6.64,5.09a8.52,8.52,0,0,0,4.23,1.71l2.36.28,1.94,3.88,10.73-4.37-8.53-11-4.59-7a2.73,2.73,0,0,0-2.51-.6l-1.06.27-.79-.79a1.83,1.83,0,0,0-1.8-.48l-.66.19-1.79-1.78c-.59-.59-4.68-4.4-5.45-4.07C426.37,214.82,424.83,216,426.32,218Z" fill="#ffbf9d"/><path d="M438.48,225.42s-.18-.38-.62-.88a4,4,0,0,0-2.23-1.23,11.56,11.56,0,0,1-1.79-2,3.29,3.29,0,0,1-.53-1s.23.34.64.87a17.08,17.08,0,0,0,1.77,1.88l.7.21a3.25,3.25,0,0,1,.65.31,3.58,3.58,0,0,1,.9.79,2.81,2.81,0,0,1,.42.69A.71.71,0,0,1,438.48,225.42Z" fill="#ff9a6c"/><path d="M439.72,223.84a1.57,1.57,0,0,0-.36-.42,1.36,1.36,0,0,0-1.27-.23l0,0-.05,0-.13-.14a13.16,13.16,0,0,1-1.43-1.67,11.66,11.66,0,0,1,1.57,1.53l.14.15-.1,0a1.42,1.42,0,0,1,1.4.31C439.72,223.58,439.75,223.84,439.72,223.84Z" fill="#ff9a6c"/><polygon points="427.45 560.33 423.65 595.05 442.34 597.47 446.22 562.69 427.45 560.33" fill="#686175" data-primary="true"/><polygon points="423.92 592.65 442.62 595.02 442.34 597.47 423.65 595.05 423.92 592.65" fill="#2f2e41"/><g opacity="0.3"><polygon points="445.12 572.59 444.69 576.42 425.96 573.9 426.28 571.02 445.12 572.59"/></g><polygon points="400.54 562.63 402.02 597.52 420.86 597.1 419.45 562.13 400.54 562.63" fill="#686175" data-primary="true"/><polygon points="401.92 595.12 420.76 594.63 420.86 597.1 402.02 597.52 401.92 595.12" fill="#2f2e41"/><path d="M421.65,485.89l-.74-95.51H383.79s-2.93,23.7-1.53,33.26S393.54,486,393.54,486s3.2,70.13,4.78,88.15l23.17-2.09Z" fill="#2f2e41"/><path d="M444.36,370.23a47,47,0,0,1,14.14,26.48c2.58,16.63-5.22,83.15-5.22,83.15l-6.58,92.23H423.79l.74-88.8-4-66.14L418,396.23Z" fill="#2f2e41"/><path d="M394.23,271.39s-16.69,9.13-21.59,11.27l6.67,31.93,10.51,38.29-7.05,40.38s24.77,4.38,36.92,2.8c16.61-2.15,37.8-8.26,37.8-8.26L441,338.57l4.21-34-7.08-28.65-17.26-2.05Z" fill="#686175" data-primary="true"/><path d="M453,267.5,440,241.63,450.41,235s13,13.39,15.45,16c0,0,14.94,13.78,11,20.42a43.65,43.65,0,0,1-8.57,10Z" fill="#686175" data-primary="true"/><path d="M372.64,282.66c-.23.68-34.77,48.45-36.61,53.52-.1.28-.2.57-.29.87a19.76,19.76,0,0,0,4.33,19l28.47,31.77L381,373.41l-19.8-34.9,18.92-20.89Z" fill="#686175" data-primary="true"/><path d="M394.29,375.54c-1.15.07-3.26,1.67-4.19,2.42a1.56,1.56,0,0,1-1.1.34h0a1.57,1.57,0,0,1-1.4-1.12L386.37,373a3.86,3.86,0,0,0-3,1.89L382,377.27,379.63,375l-11.08,12.65s4.36,4.7,7.13,4.78,15.77-10.61,15.77-10.61l3.44-3S397.67,375.33,394.29,375.54Z" fill="#ffbf9d"/><path d="M430.18,275l9.8.44,14-10.67,19.76,10.83s-8.89,9.51-17.27,19.26c-6.77,7.88-11.6,12.81-11.6,12.81Z" fill="#686175" data-primary="true"/><path d="M396.18,281.06l24.5.35-2.29-22.15s1.81.91,2.17-8.17,1.2-24.47,1.2-24.47h0a31.55,31.55,0,0,0-31.8,3.12l-1.38,1Z" fill="#ffbf9d"/><path d="M391.12,242c-.15-.07-6.18-2-6.15,4.2s6.25,4.9,6.26,4.72S391.12,242,391.12,242Z" fill="#ffbf9d"/><path d="M420.3,241.47c.15-.06,5.72-1.4,5.36,4.8s-6.52,4.55-6.52,4.37S420.3,241.47,420.3,241.47Z" fill="#ffbf9d"/><path d="M405.74,215.74s-8.46-.31-11.49,1.24c-5,2.57-8.92,9.72-9,18.56s3.94,20.84,10.43,26.77,11.62,7,11.62,7,13.74-7.5,15.28-18.45,2.58-21.53-1.72-26.85S408.85,215.88,405.74,215.74Z" fill="#2f2e41"/><path d="M386.4,241.25c-.5-5.62-1-11.43.79-16.78s6.37-10.21,12-10.42c1.81-.07,3.63.33,5.41,0a22.73,22.73,0,0,0,4.39-1.62,11.38,11.38,0,0,1,7.83-.48,6.82,6.82,0,0,1,4.72,5.87,10.14,10.14,0,0,0,.13,3.26c.4,1,1.4,1.74,2.1,2.62a7,7,0,0,1,1.24,5,20.43,20.43,0,0,1-1.43,5.12L419,246.24" fill="#2f2e41"/><path d="M400.56,244.39a11.17,11.17,0,0,1,16,8.85c.4,3.67.4,4.26,2.77,7.09,1.47,1.75,2.88,1.64,4.6,3.14a6.86,6.86,0,0,1,1.57,8.06c4.44-.21,8.6-.5,10.12,3.69-6.64-1.37-13.28,4.82-19.91,3.45a14.57,14.57,0,0,1-6-2.19c-2-1.48-3-3.83-4-6.08l-5.34-12.14c-1.19-2.72-2.42-5.56-2.36-8.53s1.77-6.15,4.65-6.89" fill="#2f2e41"/><path d="M397.88,248.46a9.39,9.39,0,0,1,3.22-10.35,9.52,9.52,0,0,1,10.88.43,9,9,0,0,1,3.72,7.69,5.9,5.9,0,0,1-5.46,5.46" fill="#686175" data-primary="true"/><path d="M412.43,242.44a9.89,9.89,0,0,0-12.9.64c-3.17,3.17-3.48,9.7-2.52,14.08,1,4.71,3.91,9.26,2.95,14-.58,2.88-2.55,5.8-1.41,8.51.93,2.19,3.52,3.15,4.93,5.06,2.06,2.82,1,6.78-.35,10s-3.09,6.67-2.13,10c.75,2.61,2.95,4.48,4.7,6.55s3.16,5,2,7.43a6.92,6.92,0,0,0,10.92-7,8.19,8.19,0,0,1,2.33,5.32,11.15,11.15,0,0,0,8.43-17.1c-1.49-2.35-3.91-4.26-4.42-7-.61-3.26,1.76-6.46,1.45-9.76-.27-3-2.61-5.3-5-7.08s-5.07-3.36-6.62-5.9c-2.51-4.11-1.35-9.36-.37-14.08s1.43-10.29-2-13.71" fill="#2f2e41"/><path d="M398.12,245.32c-3.35,2.26-3.57,7.07-3.11,11.09s1.11,8.53-1.36,11.73c-1.66,2.16-4.58,3.41-5.43,6-1,3.16,1.56,6.33,1.85,9.64.22,2.39-.79,4.72-1.94,6.82s-2.5,4.16-3.06,6.5-.15,5.09,1.71,6.61a8.53,8.53,0,0,0,4.22,1.51,52.07,52.07,0,0,0,16.15-.05c1.6-6.57,3.2-13.22,3.2-20,0-13.43-6.35-26.23-6.52-39.66" fill="#2f2e41"/><g opacity="0.2"><path d="M418.24,313.38a3.39,3.39,0,0,1-.58-.49c-.36-.35-.89-.86-1.52-1.56a19.48,19.48,0,0,1-2.12-2.74,9.6,9.6,0,0,1-1.52-4.35,7.49,7.49,0,0,1,.36-2.7,14.72,14.72,0,0,1,1.25-2.64c1-1.71,2.2-3.52,2.26-5.7a12.11,12.11,0,0,0-1.9-6.47c-1.2-2.06-2.85-4-4.29-6.14a16.9,16.9,0,0,1-2.88-7,27.51,27.51,0,0,1-.12-7.06c.45-4.47,1.33-8.4,1.46-11.76a22.14,22.14,0,0,0-.76-7.86c-.57-1.78-1.14-2.68-1.07-2.71a4.14,4.14,0,0,1,.41.64,12.28,12.28,0,0,1,.89,2,21.11,21.11,0,0,1,1,8c-.08,3.4-.92,7.37-1.33,11.79a27.72,27.72,0,0,0,.15,6.91,16.43,16.43,0,0,0,2.79,6.77c1.42,2.12,3.07,4,4.31,6.19a12.63,12.63,0,0,1,1.94,6.8c-.09,2.37-1.41,4.26-2.39,5.93a14.39,14.39,0,0,0-1.24,2.53,7,7,0,0,0-.37,2.52,9.24,9.24,0,0,0,1.38,4.19,20.49,20.49,0,0,0,2,2.77c.6.72,1.1,1.26,1.43,1.63A3.39,3.39,0,0,1,418.24,313.38Z"/></g><path d="M607.36,597.67c0,.18-122,.32-272.46.32s-272.49-.14-272.49-.32,122-.31,272.49-.31S607.36,597.5,607.36,597.67Z" fill="#ccc"/><path d="M768.43,101.06a70.79,70.79,0,1,0,70.79,70.79A70.79,70.79,0,0,0,768.43,101.06Zm0,129.28a58.49,58.49,0,1,1,58.49-58.49A58.5,58.5,0,0,1,768.43,230.34Z" fill="#ccc"/><path d="M768.43,101.06a70.79,70.79,0,1,0,70.79,70.79A70.79,70.79,0,0,0,768.43,101.06Zm0,129.28a58.49,58.49,0,1,1,58.49-58.49A58.5,58.5,0,0,1,768.43,230.34Z" fill="#fff" opacity="0.2"/><path d="M567.92,490.6c5.68-2.93,12.38-3.31,18.69-2.27,3.39.56,6.92,1.58,9.23,4.12s2.75,7,.1,9.22c-1.58,1.31-3.78,1.5-5.82,1.48-5-.06-10.43-.93-14.38,2.05-2.25,1.69-3.75,4.51-6.44,5.35s-5.61-.74-7-3.12a10.88,10.88,0,0,1-.8-8A12.28,12.28,0,0,1,567.92,490.6Z" fill="#bcbec0"/><path d="M554.89,465.46c3.48,5,10.23,3.32,13.37.29s4.45-7.42,5.66-11.61c2.75-9.57,5.53-19.61,3.48-29.36a16.28,16.28,0,0,0-3.75-8,8.51,8.51,0,0,0-8.07-2.69c-3.41.9-5.53,4.24-7.06,7.41a70,70,0,0,0-6.91,30c0,4.84.55,9.92,3.28,13.91" fill="#bcbec0"/><path d="M545.34,472.58c3.78-4.48,4.49-11,2.82-16.62s-5.48-10.39-9.85-14.29a53.08,53.08,0,0,0-17.64-10.4,18.7,18.7,0,0,0-7.93-1.35,8.3,8.3,0,0,0-6.65,4c-1.86,3.54-.08,7.83,1.85,11.33a133.66,133.66,0,0,0,11.58,17.64c3.47,4.48,7.45,8.89,12.74,10.91S543,475.62,545.85,472" fill="#bcbec0"/><path d="M554.66,540.36a11.25,11.25,0,0,0,.31-2.26c.16-1.64.36-3.7.6-6.15a89.89,89.89,0,0,1,1.38-9,69.82,69.82,0,0,1,3.29-10.66,39.27,39.27,0,0,1,5.44-9.64,20.25,20.25,0,0,1,6.88-5.72,19.33,19.33,0,0,1,5.8-1.81,10.64,10.64,0,0,0,2.24-.32,9.78,9.78,0,0,0-2.28,0,17.53,17.53,0,0,0-6.05,1.58,20.21,20.21,0,0,0-7.25,5.77,38.07,38.07,0,0,0-5.65,9.84,66.14,66.14,0,0,0-3.26,10.83,78.11,78.11,0,0,0-1.2,9.15c-.19,2.61-.27,4.73-.3,6.19A10.1,10.1,0,0,0,554.66,540.36Z" fill="#ccc"/><path d="M555.08,535.62a4.74,4.74,0,0,0,.06-1c0-.78,0-1.77,0-3,0-2.6,0-6.36.14-11,.23-9.29,1-19.28,2.57-33.37,1.46-13.25,3.42-28.66,5.5-38.69.44-2.28.89-4.33,1.31-6.13s.74-3.35,1.07-4.61.52-2.14.7-2.91a4.77,4.77,0,0,0,.19-1,4.33,4.33,0,0,0-.37,1c-.23.76-.51,1.71-.87,2.87s-.78,2.79-1.23,4.58-1,3.84-1.45,6.11a340,340,0,0,0-5.78,35.91c-1.54,14.11-2.24,27-2.3,36.28-.06,4.65,0,8.42.16,11,.07,1.22.13,2.21.18,3A4.24,4.24,0,0,0,555.08,535.62Z" fill="#ccc"/><path d="M555.14,510.83a18.32,18.32,0,0,0,0-3.13c-.12-2-.39-4.91-1-8.47a113.29,113.29,0,0,0-2.75-12.35,101.36,101.36,0,0,0-5.17-14.6c-4.28-10.16-10.09-18.47-15.16-23.61a36,36,0,0,0-3.56-3.31c-.55-.47-1-.93-1.53-1.29l-1.38-1a18.59,18.59,0,0,0-2.63-1.68c-.15.2,3.73,2.48,8.63,7.7a81.91,81.91,0,0,1,14.78,23.52,114.57,114.57,0,0,1,5.19,14.47,123.81,123.81,0,0,1,2.93,12.22c.65,3.52,1,6.4,1.25,8.39A20.43,20.43,0,0,0,555.14,510.83Z" fill="#ccc"/><polygon points="531.18 554.57 533.66 588.6 577.39 588.6 579.87 554.57 531.18 554.57" fill="#ccc"/><rect x="526.95" y="541.15" width="58.14" height="13.42" fill="#bcbec0"/><g opacity="0.2"><rect x="597.75" y="541.15" width="58.14" height="13.42"/></g><polygon points="526.95 587.3 526.95 591.02 529.68 591.02 584.13 591.02 584.13 587.3 526.95 587.3" fill="#bcbec0"/><polygon points="532.36 597.56 529.68 591.02 582.05 591.02 578.92 597.56 532.36 597.56" fill="#ccc"/><path d="M579.06,565.69a1.5,1.5,0,0,1-.2.31l-.66.87-2.54,3.26-.12.14-.11-.15-6.25-8.65h.36c-1.87,2.63-3.94,5.57-6.17,8.72l-.19.27-.22-.25-7.3-8.7h.42l-.4.5-6.54,8.19-.22.28-.2-.29c-2.21-3.14-4.29-6.07-6.16-8.72l.36,0c-3,3.46-5.62,6.39-7.59,8.65l-.14.15-.1-.17-2.38-4-.61-1.06c-.13-.24-.2-.37-.18-.38a2.09,2.09,0,0,1,.25.34l.67,1,2.5,3.92-.24,0,7.47-8.75.19-.22.17.24,6.22,8.68h-.42l6.52-8.21c.14-.17.28-.34.4-.5l.21-.26.21.25,7.29,8.71-.41,0,6.22-8.68.19-.25.18.25,6.12,8.75h-.22l2.65-3.17.71-.83C579,565.77,579.05,565.68,579.06,565.69Z" fill="#fff"/><path d="M32.89,246.22s14-24.12,34.47-4.94c0,0,13.24-25.68,34.47-7.36v31.33H32.89Z" opacity="0.2"/><circle cx="67.27" cy="215.98" r="6.19" opacity="0.1"/></svg>