<svg xmlns="http://www.w3.org/2000/svg" xmlns:xlink="http://www.w3.org/1999/xlink" width="865.76" height="682.89" viewBox="0 0 865.76 682.89"><defs><clipPath id="ab7ba8ad-4d92-4493-aeb9-88608d5561fb"><rect id="af6631d5-b7ac-47be-81a5-8384a82c9baf" data-name="SVGID" x="3.22" y="0.72" width="862.54" height="681.46" fill="none"/></clipPath></defs><g style="isolation:isolate"><g id="bbdc995b-94b4-4c6c-baeb-df17aca48193" data-name="Layer 1"><g clip-path="url(#ab7ba8ad-4d92-4493-aeb9-88608d5561fb)"><path d="M882.26,175.31v12.27h-3.69V175.31h-3v12.27H845v8.88H833.76v1.48H830v19.74H815.29V155.86H813v40.86H797.55v-64.9h-7.94v-6h-1.78v-.93h-.73V123.2h-1.33V110.64h-.86l-.47-11h-.38l-.47,11h-.85V123.2H781.4v1.67h-.72v.93h-1.79v6H756.83L744.1,151.37V166.8h-7V181H733c-.12.25-.22.5-.36.76v25.13h-8.07V195.71l-10.25-6v-103h-32V49.1h-21.5V86.69H646V156.3H632.43v-7h-1V211h-5.11V169.56H598.9V211h-4.6V275h-1.69v-3.69H588V103.64H565.55V207.89H554.28v1.7h-3.76v21.88H526.14V187.58h-7.81V175.31h-3v12.27h-3.69V175.31h-3v12.27H478.09v8.88H466.81v1.48h-3.75v19.74H448.34V155.86h-2.28v40.86H430.6V137.94H385.9l-8.75,13.43V166.8H370.2V181h-4.15c-.12.25-.23.5-.36.76v25.13h-8.08V195.71l-10.25-6v-103h-32V49.1h-21.5V86.69H279.07V156.3H265.49v-7h-1V211h-5.1V169.56H232v38.33h-9.2V103.64H200.33v48.13H173V162H161.7v1.7H158v22.67h-1.11v-37h-1v7H142.3V73.78H84.61V189.7l-10.25,6v11.17H66.28V181.75c-.13-.26-.24-.51-.36-.76H61.77V166.8h-7V151.37L42.09,131.82H20v-6H18.24v-.93h-.73V123.2H16.18v-.43l-3,0v.47H11.82v1.67h-.73v.93H9.3v6H1.37v64.9H-14.1V155.86h-2.27v61.82H-31.09V197.94h-3.76v-1.48h-6V429.24H883.79V175.31Zm-98.21-52.58h-.4V111.48h.4Zm.81,0h-.41V111.48h.41Z" fill="#ccc" opacity="0.62" style="mix-blend-mode:multiply"/><polygon points="26.82 586.51 117.04 516.38 171.87 515.83 56.73 576.14 26.82 586.51" fill="#fff"/><polygon points="124.72 575.05 196 575.6 267.83 514.18 214.64 516.38 124.72 575.05" fill="#fff"/><polygon points="-50.93 304.42 179.94 407.23 -47.32 558.73 -50.93 304.42" opacity="0.2"/><polygon points="620.68 425.96 1321.81 332.67 1339.92 338.97 1333.88 615.23 868.41 480.78 620.68 425.96" opacity="0.2"/><path d="M-45.9,587.26,142.31,444.72s279.27-31.84,381.16-16.41l128.16,17s158.88,23.4,296,64.09c0,0,301.21,90.15,386.29,138v37.24H-45.34Z" fill="#58595b"/><path d="M527.78,429.18s31.43-12.41,56.24-4.55a152.16,152.16,0,0,0,38.86,5.79s77.74,7.44,103.79,15.71c1.15.38,16.92,2.19,28.44,7.42a26.76,26.76,0,0,0,7,2,123,123,0,0,0,25.85,1.3,26.17,26.17,0,0,0,6.86-1.51c7.78-2.76,30.53-8.8,51.37,5.65,0,0,14.05,12.41,36.8,15.3,0,0,114.12,24.81,167.87,48,0,0,15.71,4.13,31,2.07,0,0,32.26-9.1,49.21,12,0,0,14.47,14.47,34.32,20.26,0,0,126.94,39.28,168.29,64.5l.21,21.55s-41.71-24.27-164.28-65.45c0,0-86.07-29.22-95.9-31.72l-76.32-24.13L950,509.14s-39-11.56-46.87-13c0,0-67.1-17.73-121.2-28L678.41,449,594.9,437.45l-45.69-5.78S533.21,429.18,527.78,429.18Z" fill="#d1d3d4"/><path d="M521.33,428.21s31.24-16,70.08-6.47c0,0,19.14,3.94,29.27,4.22,0,0,65.58,3.38,119.62,17.73,0,0,35.46,13.79,58.25,6.76,0,0,25-9.17,49.75,4.12a37.12,37.12,0,0,1,6.73,4.74c3.43,2.94,11.93,8.82,28.8,13.09,0,0,84,17.24,132.89,34L1054.93,518s15.76,6.5,28.16,2.37c0,0,33.49-9.85,54,13.39,0,0,17.24,14.15,34,19a45.62,45.62,0,0,1,4.69,1.63c5.91,2.41,20.68,8.08,31.48,9.16,0,0,27,2.36,50.81,14.57,0,0,11.79,7.46,21.33,13.43a72.64,72.64,0,0,0,10.77,5.56l43.79,18.17-.21,7.87.21,12.62-230-94.54L814.05,465.42,584.79,428.78Z" fill="#bcbec0"/><path d="M459.1,446.09s52.81,31.69,77.9,85.16c0,0,58.1,102.33,75.92,149.21l45.55,1.32s-69.32-129.4-115.53-176.27c0,0-39-50.84-85.82-70C457.12,435.53,458,438.63,459.1,446.09Z" opacity="0.2"/><path d="M564,479.79,649.2,570c58.91,59.54,82.1,111.56,82.1,111.56H686.8c-20.68-41.37-69.57-106.54-69.57-106.54-21.81-32.48-49.24-64.58-60.55-77.46-2.69-3.06-5.3-6.19-7.68-9.49-26.37-36.65-92.84-57.83-92.84-57.83l-1.41-3.94S519.89,437.84,564,479.79Z" opacity="0.2"/><path d="M790.32,410.81s35.5-6.4,22.49-41.07c0,0-1.44-4.54,1.66-10.53,0,0,14.65-22.5.61-34.47,0,0-19.92-22.54-51.41.12,0,0-11.51,7.79-9.46,21.8a24.07,24.07,0,0,0,3.5,9.29c2.83,4.49,8.92,15.41,6,22.16,0,0-.74,1.7-2.4,4.9a22.8,22.8,0,0,0-2.57,9.34c-.38,7.83,3.17,19.24,27,19.24A27.82,27.82,0,0,0,790.32,410.81Z" fill="#d1d3d4"/><polygon points="784.73 446.51 786.29 392.16 766.91 371.22 786.07 388.15 787.63 338.47 788.97 368.1 812.13 352.73 788.52 371.89 791.19 446.42 784.73 446.51" fill="#bcbec0"/><polygon points="-45.47 596.92 130.84 460.96 131.72 468.85 -45.47 620.61 -45.47 596.92" opacity="0.2"/><path d="M523.47,428.26S999,524.62,1296.62,682l37.26-.6-.26-5s-267.86-144.83-620-211C713.6,465.42,591,436.4,523.47,428.26Z" opacity="0.2"/><path d="M-47.61,546.42c.57,2.11,1.36,21.41,1.36,21.41L133.37,440.6l1.18-16.15a26.27,26.27,0,0,0-14.7-3.28c-8.93.26-2.89,19.43-2.89,19.43,1.57,6.83-12.87,1.84-12.87,1.84-6.3-.27-.26,10.76-.26,10.76,2.1,3.68-4.73,1.32-4.73,1.32-11-6.31-12.61,5-12.61,5,0,6.54-5.09,7.84-7.58,8.09a8.7,8.7,0,0,1-2.16-.1c-7.86-1.18-12.91,5.37-15,8.75a15.92,15.92,0,0,0-1.26,2.86C58,486,39,482.88,39,482.88c-5,1.05,3.53,5.24,3.53,5.24-23.19,3-26.17,21.54-26.17,21.54-5,9.27-29.81,5-29.81,5-7-.33-1,7.62-1,7.62,2.65,6-5,8.28-5,8.28-10.93,2.32-28.16,15.9-28.16,15.9" fill="#bcbec0"/><path d="M-46.28,551.39s14.9-13.58,26.5-16.23c0,0,10.47-3.66,11.4-9.13a3.72,3.72,0,0,0-.92-3c-1.84-2.13-5.72-7.28,1.44-5.43,0,0,19.21,4,27.83-3.31A11.29,11.29,0,0,0,24,505.7a12.28,12.28,0,0,1,5.26-9.43,26.69,26.69,0,0,1,18.51-5.16s1.36-2-1.35-3.87a.61.61,0,0,1,.25-1.12,33.11,33.11,0,0,1,8.11-.35,10.49,10.49,0,0,0,8-2.42,28.41,28.41,0,0,0,4.85-5.49s4.3-9.28,15.89-7.95c0,0,4.64,1.65,7.62-9.28,0,0,.33-6.29,7.95-3.64,0,0,9.61,2.32,9.61-2,0,0-8.61-11.26.66-9.61a15.37,15.37,0,0,0,8.94.78,4.34,4.34,0,0,0,3.07-5.31c-1.55-5.86-4.12-17.58.42-16.74,1,.18,2,.42,3,.51,2.63.23,7.29,1,9.36,3.54l-1.65,23.52L-45.9,585.22Z" fill="#d1d3d4"/></g><path d="M411.29,335.13s7.68-16.28,10.45-19a33,33,0,0,1,14.71-8.38c6.91-1.75,10.81-1.15,10.81-1.15l16.21,6.87s13,9.7,13.54,17.42a38.68,38.68,0,0,1-1.65,10.8c-1.72,5.42-4.91,16.05-4.91,16.05Z" fill="#686175" data-primary="true"/><path d="M453,292.22l-5.53,15.09s2.86,14.38,14.5,7.58l3.2-7.11-11-15.8Z" fill="#f9b499"/><path d="M455.39,302.41s3.19,8.75,8.34,8.29l1.48-2.92S459.84,310.08,455.39,302.41Z" fill="#f7a78d"/><ellipse cx="466.85" cy="290.43" rx="18.14" ry="11.96" transform="translate(38.02 634.54) rotate(-70.63)" fill="#f9b499"/><path d="M491.16,287.13a1.11,1.11,0,0,0-.23-.8,3.4,3.4,0,0,0-1.51-.94,10,10,0,0,1-3.56-2.67,4.71,4.71,0,0,0,1.52-.33A3,3,0,0,0,489.3,280a.67.67,0,0,0-.17-.55c-.25-.21-.61,0-.9.1a2.55,2.55,0,0,1-2.6,0,4.1,4.1,0,0,1-1.44-1.18l0-.08c-.13-.33-.26-.64-.38-.95h0a15.7,15.7,0,0,0-3.09-5.21,16,16,0,0,0-7.62-3.92,6.48,6.48,0,0,0-6.44,2.75,5,5,0,0,0-4.43-2.36l0,0c-1.93-.11-3.63,1.27-4.85,2.77l-.19.25a7.14,7.14,0,0,1-3.19,1.26c-.2,0-.43.07-.53.25a.56.56,0,0,0,.1.56,3.59,3.59,0,0,0,1.12,1.14,8.66,8.66,0,0,1-1.05.95c-.33.24-.71.53-.69.93a.78.78,0,0,0,.61.64,2.25,2.25,0,0,0,.93,0l-1.13,1.11a4.4,4.4,0,0,0,1.88.65c-.31,1.75-1.29,4.83-1.33,6.09,1.14.5,1.47.49,2,.93.65.57-.19,1.78.94,1.81.58,0,2.14-1.55,2.52-2a27,27,0,0,0,5.47-10,8.65,8.65,0,0,1,3.2-.74h0c2.06,0,4.19.4,5.53,1.93,1,1.2,1.23,2.88,1.76,4.37,1,2.82,1.53,4.26,4.24,5.54-.56,2-.7,5.72-1.36,7.54l3-2.94v0a6,6,0,0,0,.59-.5l.06,0h0a12.17,12.17,0,0,1,.93-.8v0a1.21,1.21,0,0,0,2.26-.81,2.73,2.73,0,0,0-.32-.77,1.92,1.92,0,0,0,1.5,1.14,1.49,1.49,0,0,0,1.56-1,1.27,1.27,0,0,0-.31-1.24,4.26,4.26,0,0,0,2.48.45C490.46,288,491.08,287.76,491.16,287.13Z" fill="#2f2e41"/><path d="M432.08,314.76a10.74,10.74,0,0,1,1.26-3.11,11,11,0,0,1,1.72-2.89,21.76,21.76,0,0,1-3,6Z" fill="#1a2e35"/><g opacity="0.2"><path d="M474.53,327.66a31,31,0,0,1-3.07,7.32,31,31,0,0,1,3.07-7.32Z"/></g><path d="M426.46,447.93s-5.71-5.76-7.35,29.12c-1.55,32.91-3.81,80.37,4.1,100.73a10.87,10.87,0,0,0,4.38,5.33,18.41,18.41,0,0,0,6.86,2.47c6.88,1.07,34.09.47,34.09.47s15.43,0,15.67-12.71c.19-10.46,0-33.21,0-33.21Z" fill="#1a2e35"/><path d="M426.46,447.93s-5.71-5.76-7.35,29.12c-1.55,32.91-3.81,80.37,4.1,100.73a10.87,10.87,0,0,0,4.38,5.33,18.41,18.41,0,0,0,6.86,2.47c6.88,1.07,34.09.47,34.09.47s15.43,0,15.67-12.71c.19-10.46,0-33.21,0-33.21Z" fill="#2f2e41"/><path d="M426.46,447.93s-5.71-5.76-7.35,29.12c-1.55,32.91-3.81,80.37,4.1,100.73a10.87,10.87,0,0,0,4.38,5.33,18.41,18.41,0,0,0,6.86,2.47c6.88,1.07,34.09.47,34.09.47s15.43,0,15.67-12.71c.19-10.46,0-33.21,0-33.21Z" opacity="0.3"/><path d="M504.13,463.89s5.71-5.76,7.35,29.12c1.54,32.91,3.81,80.37-4.1,100.73a10.89,10.89,0,0,1-4.39,5.33,18.28,18.28,0,0,1-6.85,2.47c-6.89,1.07-34.09.47-34.09.47s-15.44,0-15.67-12.71c-.2-10.46,1.2-47.11,1.2-47.11Z" fill="#2f2e41"/><path d="M220.44,440.28s5.7-5.76,7.34,29.11c1.55,32.92,3.81,80.37-4.1,100.73a10.82,10.82,0,0,1-4.38,5.33,18.33,18.33,0,0,1-6.86,2.48c-6.88,1.07-34.08.47-34.08.47s-15.44,0-15.68-12.71c-.19-10.46,0-33.21,0-33.21Z" fill="#1a2e35"/><path d="M220.44,440.28s5.7-5.76,7.34,29.11c1.55,32.92,3.81,80.37-4.1,100.73a10.82,10.82,0,0,1-4.38,5.33,18.33,18.33,0,0,1-6.86,2.48c-6.88,1.07-34.08.47-34.08.47s-15.44,0-15.68-12.71c-.19-10.46,0-33.21,0-33.21Z" fill="#2f2e41"/><path d="M220.44,440.28s5.7-5.76,7.34,29.11c1.55,32.92,3.81,80.37-4.1,100.73a10.82,10.82,0,0,1-4.38,5.33,18.33,18.33,0,0,1-6.86,2.48c-6.88,1.07-34.08.47-34.08.47s-15.44,0-15.68-12.71c-.19-10.46,0-33.21,0-33.21Z" opacity="0.3"/><path d="M142.76,463.89s-5.71-5.76-7.34,29.12c-1.55,32.91-3.81,80.37,4.1,100.73a10.82,10.82,0,0,0,4.38,5.33,18.28,18.28,0,0,0,6.85,2.47c6.89,1.07,34.09.47,34.09.47s15.44,0,15.67-12.71c.2-10.46-1.2-47.11-1.2-47.11Z" fill="#2f2e41"/><path d="M511.9,357.25s-1.73,5.9-5.29,6.51S475,365.24,475,365.24l-2.74,5.64h-5.29l-3.85-22.65,3.28.68a3.49,3.49,0,0,1,2.51,2h0a3.49,3.49,0,0,0,2.84,2.1Z" fill="#2f2e41"/><path d="M510.72,358.13A3.62,3.62,0,0,0,514,354c-.92-6.47-4.31-19.05-16.8-20.91a85.74,85.74,0,0,0-23.33-.6c-1.95.25-2.91,2-3.14,4-1.06,8.9-.2,19.93,2.36,21.28S501.6,358.85,510.72,358.13Z" fill="#f48225" data-secondary="true"/><g opacity="0.2"><path d="M494,333.16a4.25,4.25,0,0,1,.73.87c.44.59,1,1.47,1.75,2.57a65.53,65.53,0,0,1,8.12,18.79c.32,1.27.55,2.31.67,3a4.2,4.2,0,0,1,.14,1.14c-.09,0-.47-1.56-1.21-4.06a88.26,88.26,0,0,0-3.47-9.59,86.47,86.47,0,0,0-4.61-9.09C494.78,334.57,493.9,333.21,494,333.16Z"/></g><path d="M130.7,358.64s1.73,5.89,5.29,6.51,31.64,1.47,31.64,1.47l2.74,5.65h5.29l3.85-22.65-3.28.67a3.5,3.5,0,0,0-2.51,2h0a3.46,3.46,0,0,1-2.84,2.09Z" fill="#2f2e41"/><path d="M131.88,359.52a3.63,3.63,0,0,1-3.31-4.13c.92-6.47,4.31-19,16.81-20.91a86,86,0,0,1,23.33-.59c1.94.25,2.9,2,3.13,4,1.07,8.89.21,19.92-2.36,21.28S141,360.24,131.88,359.52Z" fill="#f48225" data-secondary="true"/><g opacity="0.2"><path d="M148.63,334.54c.07,0-.81,1.41-2.13,3.67a83,83,0,0,0-8.07,18.67c-.75,2.51-1.13,4.08-1.22,4.06a4.12,4.12,0,0,1,.14-1.13c.12-.73.35-1.77.67-3A65.31,65.31,0,0,1,146.14,338c.71-1.11,1.31-2,1.75-2.57A4,4,0,0,1,148.63,334.54Z"/></g><path d="M326.55,261.18c12.71.25,65.09.49,80.2,0s20.63,2.91,27.95,11.68S458,322.32,467.29,356c11.64,18.5,21.85,37.37,27.16,50.45,0,0,19.1,23,20.08,31.78s-1,62.42-5.86,77.54-8.29,19-27.3,24.38c0,0-84,13-149.55,11.47l-5.65.12c-66.58,3-158.31-11.59-158.31-11.59-19-5.36-22.44-9.26-27.31-24.38S133.72,447,134.7,438.2s20.08-31.78,20.08-31.78c5.3-13.08,15.51-31.95,27.15-50.45,9.27-33.65,25.28-74.33,32.6-83.11s12.82-12.16,27.94-11.68,66.19.25,78.91,0Z" fill="#f48225" data-secondary="true"/><path d="M420.3,266.35c0-.81-4.92-7.6-7.61-10.76s-3.74-3.05-6.08-2.81c-2.91.3-9.85,4-10.2,5.38a53.54,53.54,0,0,0-.56,6l4.68-.12s-1-4.3.34-5.16c2.05-1.27,2.82-1.62,4.46-.92s3.74,6.32,3.74,6.32Z" fill="#ccc"/><path d="M229.93,261.35s-.07.07-.22.18L229,262a29.07,29.07,0,0,0-2.49,2,38.83,38.83,0,0,0-7.33,9.11c-.64,1.07-1.29,2.19-1.93,3.39l-1.88,3.79c-1.31,2.6-2.65,5.43-4,8.41-2.8,6-5.85,12.52-8.87,19.48a274.44,274.44,0,0,0-13.28,36.49c-1.32,4.8-2.21,8.72-2.79,11.44-.27,1.33-.48,2.38-.64,3.14l-.18.82a1.1,1.1,0,0,1-.09.27,1,1,0,0,1,0-.28c0-.22.07-.49.12-.83.13-.77.31-1.82.53-3.16.51-2.74,1.34-6.69,2.61-11.51A257.41,257.41,0,0,1,201.94,308c3-7,6.09-13.53,8.92-19.47,1.4-3,2.76-5.8,4.1-8.41l1.91-3.78q1-1.8,2-3.39a37.58,37.58,0,0,1,7.54-9.07A18.42,18.42,0,0,1,229.93,261.35Z" fill="#2f2e41"/><path d="M322.43,279.38s-39.55,0-60.16.14c-14.15.11-46.29-1.18-48,2.41-.77,1.62-7.91,15.9-14.71,32.37-8.21,19.9-16.11,42.81-14.05,48.05l132.34-2H457.78s1.56-4.68-1.34-13.15-22.18-60.46-25.52-64S371.14,280,322.43,279.38Z" fill="#2f2e41"/><path d="M199.85,355.77s11.34-17.11,18.23-17.93c3-.35,28.11-.69,59.73-1a4.41,4.41,0,0,1,3.46,1.63h0a4.61,4.61,0,0,1,3.53-1.69c22.88-.2,48.43-.38,71.19-.51a3.78,3.78,0,0,1,2.59,1h0a3.71,3.71,0,0,1,2.56-1.05c33.14-.19,59.19-.29,60.25-.25,5.79.18,30.95,21.91,30.95,21.91l-245.54-.29A19.06,19.06,0,0,1,199.85,355.77Z" opacity="0.3"/><path d="M244,495.87a4.75,4.75,0,0,0-4.79,5.09c.6,8.19,2.17,23.54,5.63,26.34,4.75,3.87,141.27,7.89,154.15.19,5.88-3.52,7.47-17.85,7.9-25.32a4.39,4.39,0,0,0-4.34-4.62Z" fill="#2f2e41"/><path d="M244,495.87a4,4,0,0,1,1-.08l2.9-.06,11.16-.05,41,.15,60.84.45,35.92.33,4.7,0c.4,0,.75,0,1.21,0a5.57,5.57,0,0,1,1.39.25,5.27,5.27,0,0,1,3.57,4.1,6,6,0,0,1,.06,1.39l-.07,1.21c-.12,1.6-.26,3.21-.45,4.83a67.16,67.16,0,0,1-1.8,9.68,31.4,31.4,0,0,1-1.71,4.75,13.83,13.83,0,0,1-2.94,4.35,8.33,8.33,0,0,1-2.33,1.51,17.28,17.28,0,0,1-2.48.78c-1.64.41-3.28.69-4.91.93-3.26.48-6.51.78-9.73,1-6.44.49-12.79.75-19,.93-12.48.35-24.51.35-36,.23-22.91-.27-43.54-1-60.83-2.18-4.33-.3-8.45-.63-12.34-1.06-1.94-.21-3.83-.44-5.66-.77-.46-.08-.92-.19-1.37-.29a3.8,3.8,0,0,1-3.15-2.8,24.21,24.21,0,0,1-1.58-4.82c-.38-1.57-.65-3.09-.9-4.55-.47-2.92-.77-5.6-1-8s-.39-4.56-.51-6.43a6.07,6.07,0,0,1,.22-2.64,4.84,4.84,0,0,1,3.78-3.21,4.47,4.47,0,0,1,.75,0c.17,0,.25,0,.25,0s-.34,0-1,.18a4.72,4.72,0,0,0-3.51,5.63c.18,1.86.39,4,.67,6.4s.65,5.06,1.17,7.95c.27,1.43.56,2.94,1,4.47a23.37,23.37,0,0,0,1.57,4.6,5,5,0,0,0,1.37,1.85,10.48,10.48,0,0,0,2.43.62c1.79.3,3.67.51,5.6.7,3.87.38,8,.66,12.3.92,17.27,1,37.88,1.62,60.77,1.8,11.44.07,23.46,0,35.9-.34,6.21-.19,12.54-.46,18.94-.95,3.19-.25,6.4-.55,9.6-1a45.92,45.92,0,0,0,4.73-.9,14.15,14.15,0,0,0,2.23-.7,6.19,6.19,0,0,0,1.79-1.16,12.17,12.17,0,0,0,2.54-3.8,28.29,28.29,0,0,0,1.61-4.47,64.39,64.39,0,0,0,1.75-9.41c.19-1.58.33-3.17.45-4.75l.08-1.18a4.53,4.53,0,0,0,0-1,3.43,3.43,0,0,0-.81-1.68,3.55,3.55,0,0,0-1.55-1,4.21,4.21,0,0,0-.93-.16c-.34,0-.77,0-1.15,0l-4.69-.05-35.93-.44-60.83-.83-41-.72-11.15-.29L245,496A4.56,4.56,0,0,1,244,495.87Z" fill="#2f2e41"/><path d="M511.22,456.92s-.24.23-.74.65l-2.21,1.86c-1,.84-2.29,1.68-3.79,2.77-.75.56-1.64,1-2.55,1.59s-1.88,1.17-3,1.68a75.83,75.83,0,0,1-16.39,6.32,142.12,142.12,0,0,1-22.93,3.93c-8.6.82-18,1.17-28.17,1.55s-21,.73-32.35,1c-22.79.58-47.85.88-74.16.79s-51.38-.6-74.17-1.35-43.31-2.07-60.4-4.53a263.75,263.75,0,0,1-39.91-8.54l-6.1-2c-1.77-.57-3.22-1.16-4.42-1.58l-2.71-1c-.61-.23-.91-.36-.91-.36s.32.09.93.3l2.73,1c1.2.4,2.66,1,4.44,1.52l6.11,1.92a269.88,269.88,0,0,0,39.9,8.34c17.07,2.4,37.58,3.72,60.36,4.4s47.84,1.19,74.15,1.3,51.36-.19,74.15-.74c11.39-.25,22.21-.6,32.34-1s19.57-.68,28.15-1.47a143.52,143.52,0,0,0,22.89-3.83,77.36,77.36,0,0,0,16.36-6.2c1.09-.51,2-1.12,3-1.66s1.81-1,2.56-1.55c1.5-1.08,2.85-1.91,3.82-2.72l2.24-1.82Z" fill="#2f2e41"/><path d="M234.87,459.72a6,6,0,0,1-1,0l-2.73,0c-2.38,0-5.82-.17-10.06-.42s-9.28-.68-14.87-1.29-11.7-1.49-18.09-2.58-12.44-2.39-17.91-3.67-10.36-2.59-14.44-3.78-7.36-2.22-9.61-3l-2.58-.89a5.41,5.41,0,0,1-.89-.35,5.4,5.4,0,0,1,.92.24l2.62.77c2.27.7,5.57,1.67,9.66,2.8s9,2.39,14.45,3.66,11.51,2.49,17.88,3.61,12.49,1.95,18.06,2.62,10.6,1.11,14.83,1.41,7.66.52,10,.62l2.73.15A6.07,6.07,0,0,1,234.87,459.72Z" fill="#2f2e41"/><path d="M167.52,394.64a2.8,2.8,0,0,0-3.45,1.26c-2,3.57-5.73,11.31-6.32,19.76-.81,11.59,0,32.64,0,32.64s41.11,9.58,58.11,9.84c0,0-5.26-29.27-9.58-40.32C202.61,408.41,175.52,397.64,167.52,394.64Z" fill="#f5f5f5"/><path d="M167.52,394.64a2.2,2.2,0,0,1,.42.12l1.21.44c1.07.39,2.64,1,4.65,1.79a176.83,176.83,0,0,1,16.77,7.69,68.06,68.06,0,0,1,10.85,6.94,18.23,18.23,0,0,1,4.79,5.45,63,63,0,0,1,2.47,7.29c1.44,5.07,2.71,10.47,3.94,16.11S215,452,216.15,458.09l.07.35h-.36A124,124,0,0,1,201.32,457c-7.94-1.13-15.6-2.56-22.9-4s-14.26-3-20.73-4.46l-.2-.05v-.2c-.28-8.54-.39-16.41-.28-23.42.06-3.5.16-6.78.41-9.82a40.91,40.91,0,0,1,1.65-8.22A54.62,54.62,0,0,1,163.91,396a2.88,2.88,0,0,1,2.56-1.61,2.21,2.21,0,0,1,1.05.23,3.92,3.92,0,0,0-1.05-.14,2.76,2.76,0,0,0-2.41,1.6,57.26,57.26,0,0,0-4.49,10.84A40.2,40.2,0,0,0,158,415.1c-.23,3-.31,6.31-.36,9.8-.06,7,.07,14.86.38,23.39l-.21-.25c6.47,1.47,13.42,3,20.72,4.41s15,2.86,22.87,4a121.69,121.69,0,0,0,14.47,1.4l-.3.35c-1.11-6.08-2.29-12-3.5-17.6s-2.47-11-3.9-16.08a60.49,60.49,0,0,0-2.41-7.22,17.74,17.74,0,0,0-4.64-5.31,68.22,68.22,0,0,0-10.74-7c-6.89-3.71-12.69-6.16-16.67-7.85l-4.6-1.88-1.19-.48C167.65,394.71,167.52,394.64,167.52,394.64Z" fill="#2f2e41"/><path d="M186.21,359.49a9.7,9.7,0,0,1-.9,1.42l-2.56,3.78c-2.14,3.2-5,7.7-8,12.76s-5.62,9.71-7.52,13.06l-2.27,4a10.45,10.45,0,0,1-.9,1.42,8.66,8.66,0,0,1,.69-1.53c.49-1,1.2-2.35,2.11-4.06,1.81-3.41,4.37-8.09,7.38-13.16s5.91-9.55,8.15-12.7c1.11-1.58,2-2.84,2.72-3.68A8.69,8.69,0,0,1,186.21,359.49Z" fill="#2f2e41"/><path d="M229.31,415.88a2,2,0,0,1-.31-.48l-.8-1.43c-.35-.63-.74-1.41-1.15-2.33s-.92-2-1.38-3.16a80.62,80.62,0,0,1-2.88-8.48c-.88-3.26-1.7-6.88-2.35-10.72s-1-7.53-1.28-10.9-.33-6.4-.29-8.95c0-1.27,0-2.42.07-3.43s.07-1.89.13-2.6.1-1.19.14-1.63a2.26,2.26,0,0,1,.09-.57,2.17,2.17,0,0,1,0,.58c0,.44,0,1,0,1.63s0,1.58,0,2.59,0,2.16,0,3.43c0,2.54.19,5.56.42,8.91s.71,7,1.32,10.84,1.45,7.42,2.3,10.67a86.29,86.29,0,0,0,2.74,8.48c.42,1.19.88,2.25,1.28,3.17s.74,1.73,1.06,2.36l.7,1.48A2,2,0,0,1,229.31,415.88Z" fill="#2f2e41"/><path d="M153.13,443.94s-4.66,10.73,24.3,17.17c29.32,6.52,51.88,9.53,51.88,9.53L217.79,459s-59.72-8.82-60-11.44c-.93-10.29-.44-26.74-.44-26.74Z" opacity="0.3"/><circle cx="173.61" cy="416.2" r="9.78" fill="#f5f5f5"/><path d="M183.39,416.2a23.76,23.76,0,0,0-.42-2.36,9.68,9.68,0,0,0-3.57-5.24,9.44,9.44,0,0,0-4-1.76,9.59,9.59,0,0,0-5,.44,8.76,8.76,0,0,0-2.4,1.3,8.92,8.92,0,0,0-2,2,9.46,9.46,0,0,0,0,11.21,8.72,8.72,0,0,0,2,2,9,9,0,0,0,2.4,1.3,9.58,9.58,0,0,0,9-1.32,9.69,9.69,0,0,0,3.57-5.25,23.2,23.2,0,0,0,.42-2.36,2.58,2.58,0,0,1,0,.63,7.87,7.87,0,0,1-.22,1.79,9.72,9.72,0,0,1-3.54,5.52,9.91,9.91,0,0,1-9.47,1.5,9.48,9.48,0,0,1-2.55-1.35,9.65,9.65,0,0,1-2.14-2.14,10,10,0,0,1,0-11.9,10,10,0,0,1,4.68-3.49,10.11,10.11,0,0,1,5.27-.41,9.92,9.92,0,0,1,4.2,1.91,9.77,9.77,0,0,1,3.54,5.53,7.75,7.75,0,0,1,.22,1.79A2.45,2.45,0,0,1,183.39,416.2Z" fill="#2f2e41"/><path d="M173.61,415.78a9.5,9.5,0,0,1,8.34,4.93,9.51,9.51,0,1,0-16.67,0A9.5,9.5,0,0,1,173.61,415.78Z" fill="#e1e1e1"/><circle cx="173.61" cy="415.88" r="4.21" fill="#fff"/><path d="M177.83,415.88c-.06,0-.06-.37-.25-1A4.24,4.24,0,0,0,176,412.7a4,4,0,0,0-3.77-.52,3.95,3.95,0,0,0,0,7.4,4,4,0,0,0,3.77-.52,4.11,4.11,0,0,0,1.54-2.18c.19-.62.19-1,.25-1a2.14,2.14,0,0,1,0,1.06,4.22,4.22,0,0,1-1.52,2.46,4.42,4.42,0,0,1-4.2.7,4.47,4.47,0,0,1,0-8.44,4.42,4.42,0,0,1,4.2.7,4.22,4.22,0,0,1,1.52,2.46A2.14,2.14,0,0,1,177.83,415.88Z" fill="#2f2e41"/><path d="M177.3,409.26c-.22.37-1.13.19-2.44.18a9.42,9.42,0,0,0-4.65,1,9.66,9.66,0,0,0-3.43,3.3c-.71,1.09-1.07,2-1.5,1.93s-.81-1-.47-2.69a7.94,7.94,0,0,1,10.52-5.61C176.9,408,177.51,408.94,177.3,409.26Z" fill="#fff"/><path d="M193.12,437.54A14.37,14.37,0,0,1,205.71,445a14.37,14.37,0,1,0-25.19,0A14.38,14.38,0,0,1,193.12,437.54Z" fill="#e1e1e1"/><path d="M199.31,437.6a6.2,6.2,0,1,1-6.19-6.19A6.2,6.2,0,0,1,199.31,437.6Z" fill="#fff"/><path d="M199.31,437.6c-.06,0-.05-.55-.31-1.48a6.15,6.15,0,0,0-2.27-3.27,5.93,5.93,0,1,0,0,9.51,6.18,6.18,0,0,0,2.26-3.27c.26-.93.25-1.49.31-1.49a1.17,1.17,0,0,1,0,.4,5,5,0,0,1-.12,1.14,6.19,6.19,0,0,1-2.24,3.55,6.4,6.4,0,0,1-9.1-1.25,6.43,6.43,0,0,1,0-7.67,6.42,6.42,0,0,1,9.1-1.26,6.22,6.22,0,0,1,2.24,3.55,5,5,0,0,1,.12,1.15C199.34,437.47,199.33,437.6,199.31,437.6Z" fill="#2f2e41"/><path d="M207.48,438.08a23.6,23.6,0,0,0-.56-3.48,14.3,14.3,0,0,0-5.24-7.78,14.15,14.15,0,0,0-13.36-2,13.16,13.16,0,0,0-3.57,1.92,13.42,13.42,0,0,0-3,3,14,14,0,0,0,0,16.63,13.42,13.42,0,0,0,3,3,13.16,13.16,0,0,0,3.57,1.92,14.22,14.22,0,0,0,18.6-9.76,23.83,23.83,0,0,0,.56-3.47,3.94,3.94,0,0,1,0,.91,6,6,0,0,1-.09,1.12,9.67,9.67,0,0,1-.26,1.5,14.48,14.48,0,0,1-11.34,10.82,14.57,14.57,0,0,1-7.68-.6,14.5,14.5,0,0,1-6.82-5.09,14.56,14.56,0,0,1,0-17.33,14.07,14.07,0,0,1,3.1-3.11,13.92,13.92,0,0,1,3.72-2,14.57,14.57,0,0,1,7.68-.6,14.48,14.48,0,0,1,11.34,10.82,9.67,9.67,0,0,1,.26,1.5,6,6,0,0,1,.09,1.12A4.07,4.07,0,0,1,207.48,438.08Z" fill="#2f2e41"/><path d="M198.54,427.88c-.23.38-1.5-.06-3.48-.23a12.23,12.23,0,0,0-12.45,6.63c-1,1.74-1.31,3-1.75,3s-.81-1.47-.22-3.79a11.61,11.61,0,0,1,14.88-7.92C197.78,426.39,198.75,427.57,198.54,427.88Z" fill="#fff"/><path d="M202.14,430.16c-.68.47-1.33.71-1.48.57s.08-.8.53-1.49,1.17-1,1.55-.65S202.82,429.69,202.14,430.16Z" fill="#fff"/><path d="M180,395.32c-.89,0,27.58,9.79,31.27,12.87l5.81-1.27-20.33-33.71-2.33-.54S187.45,395.36,180,395.32Z" fill="#fff" opacity="0.3"/><path d="M414.16,460.59a5.41,5.41,0,0,1,.91-.09l2.58-.14c2.25-.1,5.5-.27,9.51-.51,8-.5,19.11-1.44,31.22-3.36a289,289,0,0,0,30.68-6.69c3.87-1.08,7-2,9.15-2.65l2.48-.73a5.41,5.41,0,0,1,.88-.22,6.23,6.23,0,0,1-.84.33l-2.45.84c-2.13.74-5.24,1.71-9.11,2.84a262.06,262.06,0,0,1-30.69,6.87,292.87,292.87,0,0,1-31.29,3.19c-4,.19-7.28.3-9.53.32l-2.59,0A5.37,5.37,0,0,1,414.16,460.59Z" fill="#2f2e41"/><path d="M476.77,397.08a2.83,2.83,0,0,1,3.46,1.27c2,3.57,5.72,11.3,6.31,19.76.81,11.59,0,32.64,0,32.64s-41.11,9.58-58.11,9.84c0,0,5.27-29.27,9.58-40.33C441.68,410.86,468.77,400.09,476.77,397.08Z" fill="#f5f5f5"/><path d="M476.77,397.08a2,2,0,0,1-.4.18l-1.19.49-4.6,1.88c-4,1.69-9.78,4.14-16.67,7.85a68.16,68.16,0,0,0-10.73,6.95,17.86,17.86,0,0,0-4.65,5.3,61.26,61.26,0,0,0-2.41,7.23c-1.42,5-2.67,10.44-3.89,16.08s-2.39,11.52-3.51,17.6l-.29-.35a126,126,0,0,0,14.47-1.4c7.91-1.13,15.56-2.56,22.86-4S480,452,486.48,450.48l-.2.25c.3-8.52.44-16.39.37-23.38,0-3.5-.12-6.78-.35-9.8a41.62,41.62,0,0,0-1.57-8.16,57.26,57.26,0,0,0-4.49-10.84,2.78,2.78,0,0,0-2.42-1.6,3.83,3.83,0,0,0-1.05.13,2.32,2.32,0,0,1,1.06-.22,2.86,2.86,0,0,1,2.56,1.61A55.35,55.35,0,0,1,485,409.29a41,41,0,0,1,1.64,8.23c.26,3,.36,6.32.42,9.82.1,7,0,14.87-.29,23.42v.2l-.21.05c-6.47,1.49-13.42,3-20.72,4.45s-15,2.89-22.9,4a122,122,0,0,1-14.54,1.4h-.36l.06-.36c1.12-6.08,2.3-12,3.53-17.61s2.5-11.05,3.95-16.11a60.17,60.17,0,0,1,2.47-7.3,18.31,18.31,0,0,1,4.79-5.44,68.06,68.06,0,0,1,10.85-6.94,175.11,175.11,0,0,1,16.77-7.7c2-.8,3.58-1.39,4.64-1.78l1.22-.44Z" fill="#2f2e41"/><path d="M457.48,359.62a10.11,10.11,0,0,1,1.13,1.36c.7.9,1.68,2.23,2.82,3.91,2.31,3.36,5.26,8.15,8.32,13.56s5.68,10.39,7.55,14c.89,1.73,1.63,3.18,2.19,4.29a11.05,11.05,0,0,1,.74,1.61,9.86,9.86,0,0,1-.94-1.5l-2.36-4.2c-2-3.56-4.65-8.5-7.7-13.9s-5.94-10.22-8.15-13.62c-1.1-1.72-2-3.08-2.66-4A9.41,9.41,0,0,1,457.48,359.62Z" fill="#2f2e41"/><path d="M415,418.33a2.3,2.3,0,0,1,.22-.57c.2-.43.45-.95.74-1.59s.7-1.53,1.11-2.52l.67-1.59.66-1.81c1-2.53,1.88-5.62,2.82-9.08s1.7-7.31,2.4-11.39a157.07,157.07,0,0,0,2-21c.05-1.35.06-2.58.05-3.66s0-2,0-2.76,0-1.28,0-1.74a2.59,2.59,0,0,1,0-.62,1.69,1.69,0,0,1,.09.61c0,.47.08,1,.14,1.74s.09,1.69.12,2.77.05,2.31,0,3.67a137.4,137.4,0,0,1-1.86,21.14c-.7,4.09-1.55,8-2.46,11.43a89.78,89.78,0,0,1-3,9.09c-.25.63-.49,1.23-.71,1.81l-.71,1.57c-.44,1-.83,1.84-1.21,2.5l-.84,1.53A2.37,2.37,0,0,1,415,418.33Z" fill="#2f2e41"/><path d="M491.16,447.68s4.67,10.73-24.29,17.17c-29.33,6.52-51.89,9.53-51.89,9.53l11.66-12.8s59.7-6.95,59.91-12.1c.42-10.32.35-24.9.35-24.9Z" opacity="0.3"/><circle cx="470.68" cy="418.65" r="9.78" transform="translate(-158.17 455.44) rotate(-45)" fill="#f5f5f5"/><path d="M460.9,418.65a2.51,2.51,0,0,1,0-.63,8,8,0,0,1,.23-1.79,9.69,9.69,0,0,1,3.54-5.52,9.93,9.93,0,0,1,4.19-1.91,10,10,0,0,1,5.28.41,9.39,9.39,0,0,1,2.55,1.36,9.16,9.16,0,0,1,2.13,2.13,10,10,0,0,1,0,11.9,9.16,9.16,0,0,1-2.13,2.13,9.39,9.39,0,0,1-2.55,1.36,10,10,0,0,1-5.28.41,9.93,9.93,0,0,1-4.19-1.91,9.69,9.69,0,0,1-3.54-5.52,8,8,0,0,1-.23-1.79,2.51,2.51,0,0,1,0-.63c.08,0,0,.87.42,2.36a9.75,9.75,0,0,0,3.57,5.24,9.53,9.53,0,0,0,9,1.32,8.91,8.91,0,0,0,2.4-1.3,8.72,8.72,0,0,0,2-2,9.46,9.46,0,0,0,0-11.21,9.08,9.08,0,0,0-2-2,8.91,8.91,0,0,0-2.4-1.3,9.53,9.53,0,0,0-9,1.32,9.75,9.75,0,0,0-3.57,5.24C460.93,417.78,461,418.65,460.9,418.65Z" fill="#2f2e41"/><path d="M470.68,418.23a9.5,9.5,0,0,0-8.33,4.93,9.51,9.51,0,1,1,16.66,0A9.5,9.5,0,0,0,470.68,418.23Z" fill="#e1e1e1"/><path d="M466.47,418.33a4.21,4.21,0,1,0,4.21-4.21A4.2,4.2,0,0,0,466.47,418.33Z" fill="#fff"/><path d="M466.47,418.33a2,2,0,0,1,0-1.06,4.19,4.19,0,0,1,1.51-2.46,4.44,4.44,0,0,1,4.21-.7,4.48,4.48,0,0,1,0,8.44,4.44,4.44,0,0,1-4.21-.7,4.19,4.19,0,0,1-1.51-2.46,2,2,0,0,1,0-1.06s0,.37.24,1a4.27,4.27,0,0,0,1.55,2.18,4,4,0,1,0,0-6.36,4.19,4.19,0,0,0-1.55,2.18C466.52,418,466.52,418.33,466.47,418.33Z" fill="#2f2e41"/><path d="M467,411.71c-.21-.32.4-1.24,2-1.89a7.94,7.94,0,0,1,10.51,5.6c.35,1.67-.08,2.69-.46,2.7s-.79-.84-1.51-1.93a9.45,9.45,0,0,0-3.42-3.3,9.6,9.6,0,0,0-4.65-1C468.13,411.9,467.21,412.08,467,411.71Z" fill="#fff"/><path d="M451.18,440a14.35,14.35,0,0,0-12.59,7.45,14.37,14.37,0,1,1,25.18,0A14.35,14.35,0,0,0,451.18,440Z" fill="#e1e1e1"/><path d="M445,440.05a6.19,6.19,0,1,0,6.19-6.19A6.19,6.19,0,0,0,445,440.05Z" fill="#fff"/><path d="M445,440.05s0-.13,0-.4a4.5,4.5,0,0,1,.12-1.14A6.11,6.11,0,0,1,447.3,435a6.38,6.38,0,0,1,6.08-1,6.29,6.29,0,0,1,3,2.24,6.41,6.41,0,0,1,0,7.66,6.31,6.31,0,0,1-3,2.25,6.41,6.41,0,0,1-6.08-1,6.11,6.11,0,0,1-2.23-3.55,4.5,4.5,0,0,1-.12-1.14c0-.26,0-.4,0-.4s0,.55.3,1.48a6.18,6.18,0,0,0,2.27,3.27,5.93,5.93,0,1,0,0-9.5,6.18,6.18,0,0,0-2.27,3.27C445,439.5,445.05,440.05,445,440.05Z" fill="#2f2e41"/><path d="M436.81,440.52a5.81,5.81,0,0,1,0-.92,5.88,5.88,0,0,1,.08-1.11,9.79,9.79,0,0,1,.27-1.5,14.26,14.26,0,0,1,5.21-8.06,14.42,14.42,0,0,1,6.12-2.76,14.62,14.62,0,0,1,7.69.6,14.63,14.63,0,0,1,6.82,5.09,14.56,14.56,0,0,1,0,17.33,14.81,14.81,0,0,1-6.82,5.09,14.62,14.62,0,0,1-7.69.6,14.49,14.49,0,0,1-11.33-10.82,10.23,10.23,0,0,1-.27-1.5,6,6,0,0,1-.08-1.12,5.89,5.89,0,0,1,0-.92,27.94,27.94,0,0,0,.56,3.48,14.36,14.36,0,0,0,5.24,7.78,14.16,14.16,0,0,0,13.37,2,14.11,14.11,0,0,0,6.54-4.92,14,14,0,0,0,0-16.64,13,13,0,0,0-3-3,13.11,13.11,0,0,0-3.56-1.92,14.09,14.09,0,0,0-13.37,2,14.37,14.37,0,0,0-5.24,7.77A28.25,28.25,0,0,0,436.81,440.52Z" fill="#2f2e41"/><path d="M445.76,430.33c-.21-.31.76-1.49,3-2.3A11.59,11.59,0,0,1,463.65,436c.59,2.32.16,3.78-.22,3.78s-.78-1.27-1.75-3a12.2,12.2,0,0,0-12.44-6.62C447.26,430.27,446,430.71,445.76,430.33Z" fill="#fff"/><path d="M442.16,432.6c-.68-.46-1-1.2-.61-1.57s1.11,0,1.55.65.68,1.35.54,1.5S442.84,433.07,442.16,432.6Z" fill="#fff"/><path d="M464.29,397.77c.89,0-27.58,9.78-31.27,12.87l-5.82-1.27,20.33-33.71,2.33-.54S456.84,397.81,464.29,397.77Z" fill="#fff" opacity="0.3"/><path d="M229.31,388.08s4.43-1.5,3.55-4.82a63.56,63.56,0,0,0,30.27,7.25c17.45-.26,81.37,3.65,81.37,3.65l7.32,10.11s-115.54-.46-119.56,2.16Z" fill="#fff" opacity="0.3"/><path d="M435.58,515.42V493.14L495,486.6s-3,18.13-9.8,21.1S435.58,515.42,435.58,515.42Z" opacity="0.3"/><path d="M491.76,487s-3,11.53-5.35,14.83c-2.12,3-4.29,4-11,5.27-5.41,1-10.16,1.5-10.16,1.5l1.47-18.85Z" fill="#fff"/><path d="M213.44,518.68V496.4L154,489.86s3,18.13,9.8,21.1S213.44,518.68,213.44,518.68Z" opacity="0.3"/><path d="M157.26,490.22s3,11.54,5.35,14.83c2.12,3,4.3,4,11,5.27,5.41,1.05,10.16,1.5,10.16,1.5L182.26,493Z" fill="#fff"/><path d="M154,465.55s25.47,22.25,80.85,22.11,182.71-9.76,182.71-9.76-162.92.07-190.65-1.5A443.92,443.92,0,0,1,154,465.55Z" opacity="0.3"/><path d="M222.34,266.35c0-.81,4.91-7.6,7.6-10.76s3.74-3.05,6.08-2.81c2.91.3,9.86,4,10.21,5.38a52.94,52.94,0,0,1,.55,6L242.1,264s1-4.3-.34-5.16c-2-1.27-2.82-1.62-4.45-.92s-3.75,6.32-3.75,6.32Z" fill="#ccc"/><path d="M425.2,266.49c0,.17-45.89.3-102.48.3s-102.5-.13-102.5-.3,45.88-.3,102.5-.3S425.2,266.33,425.2,266.49Z" fill="#2f2e41"/><g opacity="0.3"><path d="M510.58,513.56s-.31.1-.93.26l-2.75.69-10.59,2.62L488.65,519l-9.18,1.93-10.54,2.22c-1.86.41-3.8.76-5.78,1.1l-6.1,1.08L444,527.65l-14.26,2.06-7.52,1.09c-2.55.35-5.15.6-7.78.91l-16.26,1.84c-22.29,2.08-46.89,3.49-72.73,3.66l-19.13-.13c-6.29-.14-12.49-.42-18.58-.62s-12.06-.61-17.91-1-11.58-.67-17.15-1.27l-16.28-1.55c-5.28-.52-10.38-1.25-15.33-1.84l-7.28-.9-3.54-.45-3.46-.53-13.14-2-6.12-.95c-2-.32-3.91-.71-5.79-1.05l-10.59-2c-3.31-.63-6.39-1.15-9.21-1.76l-7.7-1.67-10.66-2.34-2.76-.62c-.62-.14-.94-.23-.94-.23l.95.17,2.78.56,10.67,2.23L162,520.9c2.82.59,5.91,1.09,9.22,1.71l10.6,1.92c1.87.33,3.8.71,5.79,1l6.12.93,13.13,2,3.46.52,3.54.44,7.28.89c4.95.58,10,1.3,15.32,1.81l16.28,1.52c5.56.6,11.3.84,17.14,1.25s11.81.82,17.9,1,12.27.48,18.56.62l19.12.12c25.82-.17,50.4-1.56,72.68-3.6l16.25-1.82c2.63-.31,5.23-.55,7.78-.9l7.51-1.07,14.26-2L457,524.92l6.11-1.06c2-.34,3.91-.68,5.78-1.09l10.55-2.17,9.18-1.88,7.66-1.82,10.62-2.5,2.76-.64Z"/></g><path d="M338.91,330c0-3.55-1.22-13.58-4.15-16.26-2.27-2.06-7.63-2.68-10.27-2.85h-.25c-1.41,0-10.78.3-13.58,2.86S306.5,326.42,306.5,330v.1a3.8,3.8,0,0,0,3.57,4h25.28a3.8,3.8,0,0,0,3.56-4Z" opacity="0.3"/><path d="M401.67,330c0-3.55-1.22-13.58-4.15-16.26-2.27-2.06-7.63-2.68-10.28-2.85H387c-1.4,0-10.77.3-13.58,2.86s-4.15,12.71-4.15,16.26v.1a3.8,3.8,0,0,0,3.56,4H398.1a3.8,3.8,0,0,0,3.57-4Z" opacity="0.3"/><path d="M270.76,330c0-3.55-1.22-13.58-4.15-16.26-2.27-2.06-7.63-2.68-10.27-2.85h-.25c-1.41,0-10.78.3-13.58,2.86s-4.16,12.71-4.16,16.26v.1a3.8,3.8,0,0,0,3.57,4H267.2a3.8,3.8,0,0,0,3.56-4Z" opacity="0.3"/><path d="M305.58,282.62c.49,0,1.95,8.49,8.8,8.32s23.57,0,23.57,0V280.33Z" fill="#2f2e41"/><path d="M345.6,282.62c-.49,0-.08,8.48-6.94,8.32s-19.75,0-19.75,0l-5.67-10.61Z" fill="#2f2e41"/><path d="M342.57,293.88a3,3,0,0,1,2.41,1.23c1.63,2.23,4.9,6.84,5,8.28a3.3,3.3,0,0,1-3,3.73c-1.89.23-38,0-41.76,0a3.26,3.26,0,0,1-.69-.09c-1-.24-3.54-1.05-3.35-2.8s3-6.45,4.42-8.9a3,3,0,0,1,2.56-1.46Z" fill="#2f2e41"/><rect x="324.31" y="290.22" width="2.45" height="4.42" fill="#2f2e41"/><path d="M278.21,327.9c0-5.34-1.83-20.44-6.25-24.46-3.41-3.11-11.47-4-15.45-4.3h-.38c-2.11,0-16.21.46-20.43,4.31-4.42,4-6.26,19.12-6.25,24.46v.16c0,3.32,2.4,6,5.36,6h38c3,0,5.36-2.69,5.36-6Z" fill="#2f2e41"/><path d="M211.08,359.56s2-14.28,5.4-18.69c6-7.77,38.07-5,38.07-5s30.61-2,35,3.16,7,20,7,20Z" fill="#2f2e41"/><path d="M419.87,327.9c0-5.34-1.84-20.44-6.25-24.46-3.41-3.11-11.48-4-15.46-4.3h-.38c-2.11,0-16.21.46-20.43,4.31-4.41,4-6.25,19.12-6.25,24.46v.16c0,3.32,2.4,6,5.36,6h38c3,0,5.37-2.69,5.37-6Z" fill="#2f2e41"/><path d="M353.1,358.54s2-14.14,5.41-18.51c6-7.7,38.06-4.94,38.06-4.94s30.61-2,35,3.13,7,19.79,7,19.79Z" fill="#2f2e41"/><g opacity="0.41"><path d="M305.58,282.62c.49,0,1.95,8.49,8.8,8.32s23.57,0,23.57,0V280.33Z" fill="#fff"/><path d="M345.6,282.62c-.49,0-.08,8.48-6.94,8.32s-19.75,0-19.75,0l-5.67-10.61Z" fill="#fff"/><path d="M342.57,293.88a3,3,0,0,1,2.41,1.23c1.63,2.23,4.9,6.84,5,8.28a3.3,3.3,0,0,1-3,3.73c-1.89.23-38,0-41.76,0a3.26,3.26,0,0,1-.69-.09c-1-.24-3.54-1.05-3.35-2.8s3-6.45,4.42-8.9a3,3,0,0,1,2.56-1.46Z" fill="#fff"/><rect x="324.31" y="290.22" width="2.45" height="4.42" fill="#fff"/><path d="M278.21,327.9c0-5.34-1.83-20.44-6.25-24.46-3.41-3.11-11.47-4-15.45-4.3h-.38c-2.11,0-16.21.46-20.43,4.31-4.42,4-6.26,19.12-6.25,24.46v.16c0,3.32,2.4,6,5.36,6h38c3,0,5.36-2.69,5.36-6Z" fill="#fff"/><path d="M211.08,359.56s2-14.28,5.4-18.69c6-7.77,38.07-5,38.07-5s30.61-2,35,3.16,7,20,7,20Z" fill="#fff"/><path d="M419.87,327.9c0-5.34-1.84-20.44-6.25-24.46-3.41-3.11-11.48-4-15.46-4.3h-.38c-2.11,0-16.21.46-20.43,4.31-4.41,4-6.25,19.12-6.25,24.46v.16c0,3.32,2.4,6,5.36,6h38c3,0,5.37-2.69,5.37-6Z" fill="#fff"/><path d="M353.1,358.54s2-14.14,5.41-18.51c6-7.7,38.06-4.94,38.06-4.94s30.61-2,35,3.13,7,19.79,7,19.79Z" fill="#fff"/></g><path d="M218.1,287.25c-5.76,8.64-20.25,44.73-20.25,44.73s50.52,2,52.29-2,28.07-47.41,28.07-47.41S222.34,280.91,218.1,287.25Z" fill="#fff" opacity="0.3"/><polygon points="224.19 343.34 254.44 359.56 278.21 359.56 233.47 337.9 224.19 343.34" fill="#375a64"/><rect x="332.05" y="334.07" width="2.43" height="2.43" fill="#3f3d56" opacity="0.3"/><rect x="312.1" y="334.07" width="2.43" height="2.43" fill="#3f3d56" opacity="0.3"/><path d="M436.08,307a33,33,0,0,0-14.71,8.39c-2.77,2.71-23,42.52-23,42.52l54-.07s1.92-2.46-1.28-12.36Z" fill="#686175" data-primary="true"/><path d="M436.08,307a33,33,0,0,0-14.71,8.39c-2.77,2.71-23,42.52-23,42.52l54-.07s1.92-2.46-1.28-12.36Z" fill="#fff" opacity="0.2"/><polygon points="440.06 317.26 382.59 357.2 396.16 355.74 442.38 323.14 440.06 317.26" fill="#2f2e41"/><polygon points="440.06 317.26 382.59 357.2 396.16 355.74 442.38 323.14 440.06 317.26" opacity="0.2"/><path d="M370.89,346.7c0,.11.35,3-.55,4.52s-1,1.74-1,1.74l1.24,4.26-10.22,0h0L359,351.17l7.82-5.6,3.28-.55Z" fill="#f9b499"/><path d="M351.45,357.64l-2.86.08c3.17-8.6,12.94-13.31,24.83-13.31,10.6,0,19.64,5.06,23.61,13.21l-3,.06c-3.51-7.2-11-10.56-20.57-10.56C362.81,347.12,355.07,350.56,351.45,357.64Z" fill="#2f2e41"/><path d="M355.09,345.68c-.22.15-2,1.57-1.95,3.15s3.08,6.09,3.53,6.24.23.83,1.88,0c0,0,.6,2.63,4,1.35,0,0,2.1,1.58,2.7-1,0,0,2.86.52,2.93-1.81s0-7.59,0-7.59,2.41.53,3.39.08.45-2.11,0-3.09-2.64-1.27-2.64-1.27a3.59,3.59,0,0,0-1.05-.68,5,5,0,0,0-1.58.45s-2.75-1.35-3.67.15c0,0-3.09-.68-3.84,1,0,0-2,.15-2.63,1.65Z" fill="#f9b499"/><path d="M368.76,346.2c0,.07-.43,0-1-.3a3.54,3.54,0,0,1-1.51-2,2.71,2.71,0,0,1,.36-2.5c.49-.53,1-.48,1-.4s-.35.2-.64.66a2.62,2.62,0,0,0-.12,2.07,4.06,4.06,0,0,0,1.18,1.82C368.45,346,368.79,346.11,368.76,346.2Z" fill="#f7a78d"/><path d="M362.88,341.91c.17,0,.52,3,1.19,6.71s1.37,6.66,1.21,6.71a25.84,25.84,0,0,1-1.8-6.61C362.81,345,362.72,341.91,362.88,341.91Z" fill="#f7a78d"/><path d="M359,343.34c.18,0,.46,3,1.41,6.49s2.14,6.27,2,6.34a18.86,18.86,0,0,1-2.56-6.18A19.07,19.07,0,0,1,359,343.34Z" fill="#f7a78d"/><path d="M355.58,345.29c.17,0,.49,2.26,1.32,4.94s1.83,4.76,1.68,4.84a17.07,17.07,0,0,1-3-9.78Z" fill="#f7a78d"/><path d="M322.4,282.57s-38,0-57.77.13c-13.58.1-42.29-.13-46.27,4.07-1.81,1.91-18.69,35.07-25.24,55.14-2.82,8.63,5.53,15.57,14.6,15.72H318q44.47.56,88.95.37c15.14-.06,30.28.1,45.41-.08,1.29-3.2.41-7.7-1.28-12.48-2.78-7.85-19.91-54.05-24.75-56.83C419.53,284.72,369.17,283.16,322.4,282.57Z" fill="#3f3d56" opacity="0.24"/><ellipse cx="454.29" cy="288.79" rx="3.99" ry="2.43" transform="translate(94.77 689.44) rotate(-80.54)" fill="#f9b499"/><path d="M235.48,414.05s-9.1,0-8.52,11.09c.31,6.09-2.1,36.23,19.14,40.47s158.45,1.48,158.45,1.48,10.33-.47,13-15.83l1.71-26.6s-.73-7.09-6.5-8S235.48,414.05,235.48,414.05Z" fill="#ccc"/><path d="M241.25,420.68s-8.52,0-7.73,8.18c.43,4.44-2.09,26.3,17.54,29.39s140.15,1.89,140.15,1.89,15.08-.72,18.29-11.17l1.69-20.56s.56-4.42-4.77-5.08S241.25,420.68,241.25,420.68Z" fill="#2f2e41"/><path d="M393.78,420.68c-.25.6-4.39,42.05-4.39,42.05h6.95l5.24-42.05Z" fill="#ccc"/><path d="M370.62,420.64c-.2.62-1.52,42.25-1.52,42.25l6.93-.47,2.38-42.31Z" fill="#ccc"/><path d="M349.39,420.85c-.2.61-1.52,42.25-1.52,42.25l8.16-.55,1.15-42.23Z" fill="#ccc"/><path d="M251.85,419c.24.61,4.39,42.06,4.39,42.06h-7L244,419Z" fill="#ccc"/><path d="M275,419c.2.62,1.53,42.25,1.53,42.25l-6.94-.47-2.37-42.31Z" fill="#ccc"/><path d="M296.23,419.16c.2.62,1.53,42.26,1.53,42.26l-8.17-.56-1.14-42.22Z" fill="#ccc"/><path d="M298.93,420.11c.79,1.33,15.55,11.42,15.55,11.42h17.95l14.16-11.42Z" fill="#ccc"/><polygon points="312.49 425.82 316.28 461.44 329.64 461.44 333.43 425.82 312.49 425.82" fill="#ccc"/><polygon points="305.88 421.82 317.61 429.7 327.87 429.7 339.53 421.82 305.88 421.82" fill="#fff"/></g></g></svg>