<svg id="b268df5d-7873-4dc3-9a27-58729f53b178" data-name="Layer 1" xmlns="http://www.w3.org/2000/svg" width="865.76" height="682.89" viewBox="0 0 865.76 682.89"><path d="M397.71,110.92C350.6,143,160.76,78.43,153.16,303.43s284,272.7,353.1,279.22S713.55,422.14,728.74,290,640.36-54.21,397.71,110.92Z" fill="#e4e1f5"/><path d="M237,109.41c-1.22.83-6.14-.84-6.33,5s7.35,7.07,9.14,7.23,5.37-4.15,5.76-7.58S243.3,105.13,237,109.41Z" fill="#e4e1f5"/><path d="M269.51,124.11c-1.42.42-5.58-2.69-7.57,2.79s4.82,9,6.47,9.7,6.39-2.29,7.82-5.43S276.8,122,269.51,124.11Z" fill="#e4e1f5"/><path d="M222.47,508.82c-1.22.83-6.13-.84-6.33,5s7.36,7.06,9.15,7.23,5.36-4.16,5.76-7.58S228.76,504.55,222.47,508.82Z" fill="#e4e1f5"/><path d="M729.05,403.05c-1.22.83-6.13-.84-6.33,5s7.36,7.07,9.15,7.23,5.36-4.15,5.76-7.57S735.34,398.77,729.05,403.05Z" fill="#e4e1f5"/><path d="M693.19,403.29c-1.45.27-5.28-3.24-7.8,2s3.9,9.42,5.47,10.29,6.58-1.65,8.32-4.62S700.67,401.89,693.19,403.29Z" fill="#e4e1f5"/><path d="M530.07,538.75c-1.22.83-6.14-.84-6.33,5s7.35,7.06,9.14,7.23,5.37-4.16,5.76-7.58S536.35,534.48,530.07,538.75Z" fill="#fff"/><path d="M231.46,443.81c-1.46.2-5.14-3.46-7.88,1.68s3.49,9.58,5,10.52,6.65-1.36,8.51-4.26S239,442.74,231.46,443.81Z" fill="#fff"/><path d="M304.56,139.56c-1.47.2-5.14-3.46-7.89,1.68s3.49,9.58,5,10.52,6.65-1.36,8.52-4.26S312.08,138.49,304.56,139.56Z" fill="#fff"/><path d="M347.4,99.15c-1.95.33-7-4.44-10.5,2.58s5.07,12.71,7.16,13.91,8.87-2.1,11.25-6.07S357.46,97.41,347.4,99.15Z" fill="#e4e1f5"/><path d="M675.89,477.89c-1.86.32-6.7-4.23-10,2.46s4.84,12.12,6.83,13.27,8.46-2,10.73-5.79S685.48,476.23,675.89,477.89Z" fill="#e4e1f5"/><path d="M168.33,460.92c-1.37,1.18-7.61-.18-7,7s10,7.61,12.17,7.57,6-5.82,6-10.06S175.42,454.82,168.33,460.92Z" fill="#e4e1f5"/><path d="M205,426.32c-1.37,1.18-7.61-.18-7,7s10,7.61,12.17,7.57,6-5.82,6-10.05S212.11,420.22,205,426.32Z" fill="#fff"/><path d="M660.66,90.64c-1.68.69-7.17-2.57-8.88,4.39s7.05,10.36,9.16,11,7.51-3.64,8.85-7.65S669.3,87.1,660.66,90.64Z" fill="#fff"/><path d="M647.77,124.15c-1.37,1.18-7.61-.18-7,7s10,7.6,12.17,7.56,6-5.82,6-10.05S654.85,118.06,647.77,124.15Z" fill="#fff"/><ellipse cx="267.56" cy="629.94" rx="172.68" ry="14.62" fill="#e4e1f5"/><ellipse cx="576.13" cy="631.66" rx="172.68" ry="14.62" fill="#e4e1f5"/><path d="M325,282.06l-22.48-8.48L289,293.12a6.47,6.47,0,0,0-4.25-3.16c-3.09-.78-6.08.43-6.66,2.72s1.45,4.77,4.55,5.56c2.53.65,5.07-.05,6.19-1.69,2.8-4,5.6-8.11,8.4-12.16l19,7.15-6.38,9.22a6.43,6.43,0,0,0-4.26-3.16c-3.09-.79-6.07.42-6.65,2.71s1.45,4.78,4.54,5.57c2.54.64,5.08-.06,6.19-1.7C315,296.44,320.47,288.57,325,282.06ZM320.79,285l-2.12,3-19-7.16,2.13-3.08Z" fill="#fff"/><path d="M386.31,495.89l-22.41,8.68,3,23.56a6.45,6.45,0,0,0-5.27.48c-2.83,1.47-4.24,4.37-3.15,6.46s4.26,2.59,7.1,1.12c2.31-1.21,3.74-3.42,3.48-5.39-.6-4.88-1.23-9.78-1.84-14.67l18.93-7.35,1.39,11.12a6.44,6.44,0,0,0-5.27.48c-2.84,1.48-4.25,4.37-3.16,6.46s4.27,2.6,7.1,1.12c2.32-1.21,3.75-3.42,3.48-5.39C388.5,513.23,387.3,503.75,386.31,495.89Zm-1.18,4.95.46,3.69-18.94,7.34-.47-3.71Z" fill="#fff"/><path d="M665.52,346l-8.19,22.29a6.45,6.45,0,0,0-4.91-2c-3.19,0-5.77,1.93-5.76,4.28s2.6,4.27,5.79,4.26c2.62,0,4.9-1.32,5.57-3.18L664,355.48c7.58,6.1.75,13.18,0,14.27,3.62-2.35,6.59-7.93,4.1-13.45s-1.1-9.13-1.1-9.13Z" fill="#fff"/><path d="M306.63,562.27l12.1,20.44a6.44,6.44,0,0,0-4.65,2.54c-2,2.48-2.16,5.69-.33,7.18s4.95.68,7-1.8c1.65-2,2.08-4.63,1.06-6.33L313,569.48c9.52-2,10.68,7.76,11.08,9,.47-4.29-2-10.12-7.82-11.68s-7.77-4.93-7.77-4.93Z" fill="#e4e1f5"/><path d="M239.41,237.33,246.62,260a6.42,6.42,0,0,0-5.1,1.43c-2.52,2-3.38,5.07-1.93,6.92s4.67,1.78,7.19-.19c2.06-1.61,3.06-4,2.44-5.93-1.06-3.39-2.16-6.8-3.24-10.2,9.32.44,7.72,6,8.07,8,1.06-3,1.09-5.48-1.13-7.71.18-2.77-1-6.25-5.13-8.42-2.69-1.4-5.47-3.29-6.45-6.4Zm4.69,8.55c5.36.21,7.71,3.67,8.42,5.89C251.21,250.08,246.46,248.21,244.1,245.88Z" fill="#fff"/><path d="M621.26,163.89,638,180.75a6.43,6.43,0,0,0-3.88,3.6c-1.34,2.89-.7,6.05,1.45,7s5-.55,6.3-3.45c1.1-2.37.88-5-.53-6.39q-9.36-9.47-18.79-18.93Z" fill="#fff"/><path d="M286.44,363.81,265,374.55l5.16,23.18a6.43,6.43,0,0,0-5.2,1c-2.68,1.74-3.82,4.75-2.53,6.73s4.49,2.18,7.17.45c2.2-1.42,3.41-3.76,3-5.69q-2.46-11.13-5-22.28l18.18-9.06,4.16,18.75a6.46,6.46,0,0,0-5.21,1c-2.68,1.73-3.81,4.74-2.53,6.72s4.49,2.19,7.17.45c2.2-1.42,3.41-3.75,3-5.69C290.17,380.51,288.36,372.43,286.44,363.81Z" fill="#fff"/><path d="M460.09,161.88l-42.57-18.76s-29.17-1.54-53-6.14-13.05,9.21-58.35,26.1c5.37-14.59,7.68-21.5,21.88-42.61-8.45-8.45-15-20.35-21.88-27.26-15,18.81-41.47,63.35-46.84,73.33S259,200.32,267,204.93s63-4.61,92.94-4.61c2.65,16.51,11.87,57.59,8,72.95s-39.55,57.2-34.94,68.34,7.49,3.65,11.14,0c17.27,6.91,105.57,32.25,105.57,32.25s2.31-25,13.06-59.51c4.61,14.59,3.84,18.68,89.32,18.68,6.15-14.33,5.64-38.39,5.64-38.39S511.2,289,495.85,289c-2.56-18.43-6.66-60.4-6.66-79.34S478.91,180.69,460.09,161.88Z" fill="#f48225" data-secondary="true"/><path d="M306.19,163.08s-.15.4-.39,1.1-.65,1.68-1.16,2.82c-.25.58-.55,1.19-.86,1.83s-.69,1.3-1,2-.77,1.38-1.23,2.05a21.42,21.42,0,0,1-1.39,2,20.57,20.57,0,0,1-1.5,1.95c-.5.64-1.06,1.21-1.59,1.78s-1.08,1.07-1.59,1.56a19.46,19.46,0,0,1-1.51,1.33c-.5.38-.92.78-1.33,1.08l-1.09.77c-.6.43-.94.7-.94.7s.4-.15,1.09-.44l1.24-.54c.48-.22,1-.53,1.54-.86a11.27,11.27,0,0,0,1.73-1.15,16.22,16.22,0,0,0,1.81-1.49,18.39,18.39,0,0,0,1.76-1.77,22.69,22.69,0,0,0,1.63-2c.52-.7,1-1.44,1.41-2.17s.78-1.49,1.17-2.21a27.59,27.59,0,0,0,1.52-4.13,25.27,25.27,0,0,0,.62-3.05A9.71,9.71,0,0,0,306.19,163.08Z" opacity="0.2"/><path d="M360,200.32a7.78,7.78,0,0,0,1.1-.14,20.1,20.1,0,0,0,2.83-.78c.58-.19,1.18-.47,1.83-.75a21.66,21.66,0,0,0,1.94-1,19.67,19.67,0,0,0,2-1.3c.67-.45,1.27-1,1.91-1.52s1.16-1.15,1.74-1.71,1-1.22,1.52-1.8.86-1.23,1.25-1.81a14.43,14.43,0,0,0,1-1.7,11.75,11.75,0,0,0,.72-1.49c.19-.46.35-.85.48-1.18.26-.66.38-1,.38-1s-.25.32-.65.9l-.7,1c-.26.41-.63.82-1,1.3s-.72,1-1.17,1.5l-1.36,1.62a44.81,44.81,0,0,1-3.24,3.22c-.59.51-1.16,1-1.78,1.49s-1.2.94-1.81,1.34a37,37,0,0,1-3.4,2.12A27.81,27.81,0,0,1,360,200.32Z" opacity="0.2"/><path d="M462.83,314.35s.67-1.56,1.74-4.32,2.6-6.7,4.28-11.49,3.62-10.39,5.47-16.47,3.75-12.57,5.53-19.11c.81-3.29,1.67-6.56,2.41-9.81s1.53-6.44,2.13-9.56,1.28-6.11,1.72-9,1-5.58,1.31-8.1.62-4.83.89-6.88.36-3.84.5-5.32c.24-3,.38-4.63.38-4.63s-.25,1.67-.67,4.6c-.23,1.46-.42,3.25-.78,5.27s-.74,4.32-1.17,6.82-1,5.18-1.56,8-1.29,5.82-1.92,8.92-1.47,6.27-2.22,9.5-1.67,6.49-2.51,9.76c-1.7,6.54-3.5,13.05-5.31,19.12-.9,3-1.78,6-2.6,8.75L468,298.26c-1.54,4.83-2.79,8.87-3.74,11.67Z" opacity="0.2"/><path d="M461.36,292.72s-4.68,43.77-54.84,4.42C421.11,314.35,459.5,339.6,461.36,292.72Z" opacity="0.2"/><path d="M431.86,341.61s-1.08-1.77-2.88-4.29c-.9-1.26-2-2.71-3.16-4.25s-2.52-3.1-3.84-4.68-2.7-3.13-4-4.55-2.66-2.65-3.78-3.72-2.1-1.92-2.76-2.53-1.07-.94-1.07-.94.3.43.86,1.14,1.34,1.75,2.32,2.94,2.14,2.56,3.41,4,2.54,3.07,3.86,4.64l4,4.55c1.26,1.46,2.46,2.8,3.51,3.94s1.95,2.06,2.57,2.72S431.86,341.61,431.86,341.61Z" opacity="0.2"/><path d="M495.85,289a11.14,11.14,0,0,0-2.3.7,16.91,16.91,0,0,0-2.19,1.12,18.14,18.14,0,0,0-2.29,1.66,15.85,15.85,0,0,0-2,2.07,9.12,9.12,0,0,0-.74,1.09,9.07,9.07,0,0,0-1.14,2.69c-.1.42-.13.65-.13.65s.14-.19.41-.52.61-.78,1-1.31c.21-.27.49-.53.73-.83s.57-.56.85-.88.64-.58.94-.9.67-.6,1-.9c1.37-1.2,2.82-2.31,3.92-3.18S495.85,289,495.85,289Z" opacity="0.2"/><path d="M659.68,452.61s-13.52,36.86-66.75,52.22c9.72-25.09,26-68.26,26-68.26Z" fill="#686175" data-primary="true"/><path d="M659.68,452.61s-13.52,36.86-66.75,52.22c9.72-25.09,26-68.26,26-68.26Z" opacity="0.2"/><path d="M596.18,189.19s40.44,13.44,40.44,44.34C598.22,230.65,581.33,198.92,596.18,189.19Z" fill="#ffc596"/><path d="M694.72,623.79s9.6,2.69,9.6,10H672.45c-4.22,0-9.21-8.83-9.21-18.82s-9.09-30.33,1.79-36.47C678.72,592.18,694.72,623.79,694.72,623.79Z" fill="#686175" data-primary="true"/><path d="M670.15,414.94c15.93,14.2,22.45,23,22.45,54.87s-4.79,75.66-4.79,94.09,6.91,13.82,6.91,59.89c-3.65-1.72-15-3.26-21.76,0-5.88-19.19-11.77-36.85-7.93-45.3s1.79-14.33.51-24.31-15.36-65.53-15.36-91.64c-6.52-3.07-23.42-11.51-35.32-18.81C621.77,430.3,637.9,406.49,670.15,414.94Z" fill="#ffc596"/><path d="M664.09,591.39a1.57,1.57,0,0,0,.7-.17c13.21-6.8,27-.06,27.12,0a1.53,1.53,0,0,0,1.38-2.74c-.62-.31-15.28-7.53-29.9,0a1.52,1.52,0,0,0-.67,2.06A1.55,1.55,0,0,0,664.09,591.39Z" fill="#686175" data-primary="true"/><path d="M399.1,623.79s13,1.92,13,10H384c-10,0-8.71-18.18-10.63-39.17l-11.51,7.3-2.69-2.3s12-26.33,33.45-26.33C392.62,588.51,399.1,623.79,399.1,623.79Z" fill="#686175" data-primary="true"/><path d="M434.42,524s-16.9,21.5-35.32,47.1c-10.56,3.48-17.28,5.5-17.28,14.33s-2,31.27,4.22,34.36c4.42,2.21,6.19,2.59,13.06,4,2.3-12.67,4.6-27.64,12.67-35.7s52.9-45.64,72.94-55.29C467.82,525.51,434.42,524,434.42,524Z" fill="#ffc596"/><path d="M403.13,606.23a1.54,1.54,0,0,0,1-2.68c-.33-.3-8.3-7.23-23.1-4.56a1.53,1.53,0,1,0,.54,3c13.25-2.4,20.23,3.58,20.52,3.83A1.51,1.51,0,0,0,403.13,606.23Z" fill="#686175" data-primary="true"/><path d="M629.07,316.65a121.22,121.22,0,0,0-3.46,28.8c-11.9,5-61.14,9.31-84.85-14.4a186.45,186.45,0,0,0,7.3-24.76C553.24,301.1,600.66,293.23,629.07,316.65Z" fill="#ffc596"/><path d="M625.61,345.45c0,13.43-1.92,18-1.92,28.41a444.54,444.54,0,0,1,46.46,41.08c-8.45,0-37.63,1.15-49.91,48.37s-65.52,86.26-124.39,77.56-58.05-10.52-71-4.49c-9.36-9.35,8-28.28,31.58-38.51S509.67,439,525,405.21c-9.21-15.35-12.76-45.65,15.74-74.16C565,331.05,593.62,332.78,625.61,345.45Z" fill="#686175" data-primary="true"/><path d="M623.69,373.86s-2.27-2.44-6-5.74c-1.84-1.66-4-3.55-6.44-5.48-1.21-1-2.44-2-3.74-3l-3.93-3c-1.35-1-2.68-1.94-4-2.86s-2.69-1.79-4-2.66c-2.57-1.73-5.11-3.15-7.28-4.37a31.82,31.82,0,0,0-3-1.58c-.92-.44-1.73-.79-2.4-1.08-1.33-.58-2.1-.89-2.1-.89s.65.54,1.8,1.42l2.08,1.55c.82.57,1.69,1.3,2.67,2.05s2,1.59,3.16,2.43l3.52,2.69c1.24.92,2.48,1.91,3.8,2.85s2.61,1.95,3.93,2.92l4,2.86c1.3,1,2.62,1.86,3.88,2.75s2.5,1.71,3.67,2.52,2.29,1.53,3.33,2.2C620.78,372.23,623.69,373.86,623.69,373.86Z" opacity="0.2"/><path d="M600.27,436.57s-4.9-1.69-12.25-4.09l-12.53-4.13c-4.57-1.53-9.46-3.14-14.28-4.88-2.43-.84-4.84-1.72-7.2-2.61s-4.68-1.76-6.9-2.68-4.35-1.81-6.35-2.72-3.86-1.81-5.55-2.71-3.21-1.78-4.5-2.63a34.13,34.13,0,0,1-3.23-2.38l-1.1-1a10,10,0,0,1-.75-.81l-.61-.71.48.8a12.73,12.73,0,0,0,1.55,2.16,25.7,25.7,0,0,0,3,2.89,41.1,41.1,0,0,0,4.3,3.2,87.44,87.44,0,0,0,11.72,6.4c2.23,1,4.52,2,6.91,3s4.8,1.86,7.24,2.73,4.91,1.67,7.34,2.44,4.85,1.46,7.18,2.13c4.67,1.32,9.06,2.41,12.86,3.24C595.13,435.88,600.27,436.57,600.27,436.57Z" opacity="0.2"/><path d="M589,481c-13.31,17.92-64.24,46.59-113,23.55C497.89,504.52,540.38,516.29,589,481Z" opacity="0.2"/><path d="M614.86,433.37c-17.66,23-75,74.1-102.63,63.67s25.85-12.29,51.31-27.23S598.55,444.19,614.86,433.37Z" opacity="0.2"/><path d="M596.18,189.19h-50s-15.75,2.11-24.77,11.13-9.21,34.17,10.75,61.69,15.87,28.28,15.87,44.28c17.4,0,50.93-1.41,81,10.36,4.48-18.94,4-27.13,8.06-38.9s22-38.91,2-51.7S608.46,196.36,596.18,189.19Z" fill="#686175" data-primary="true"/><path d="M618.19,241.92S614.93,277.24,582,271.6C598.22,280.31,621.26,270.07,618.19,241.92Z" opacity="0.2"/><path d="M569.5,94.47s10.07-7.08,15.62,2c6-2.42,12.74,6.59,8.87,11.86,3.94,3.94,3.57,12.59-3.52,13.83C584.09,118.31,567.65,110.09,569.5,94.47Z" fill="#686175" data-primary="true"/><path d="M585,97.82s.36,8.88-6.54,13.65C583,110.36,587.35,105.88,585,97.82Z" opacity="0.2"/><path d="M592.85,110s-3.71,3.79-12.92,2.38C583.64,114.71,590.58,115,592.85,110Z" opacity="0.2"/><path d="M519.12,144.42s-34.79-40.85,5.14-58.63c6.39-3.33,47.86-19.75,54.51,24.29,1.29,1.29,2.3,3.48,4.14,5.32,16.85.54,31.59,13.43,25.3,33.35-7.68,24.32-25.34,18.43-42,6.4C552.15,151.31,519.12,144.42,519.12,144.42Z" fill="#2c2e63"/><path d="M578.77,110.08A31.5,31.5,0,0,1,573.18,123c3.22,3.22,5.32,2.18,5.32,2.18s3.72-5,4.41-9.8C583.14,112.74,580.74,109.53,578.77,110.08Z" fill="#686175" data-primary="true"/><path d="M545.37,175.75c1.92,7.68.84,10,.84,13.44,26.8,15.36,33.16,30.33,61,30.33,16.51,0-1.66-10-11-30.33S578.77,150,578.77,143.12c8.07,0,8.07-8.45,8.07-16.89s-10-16.13-14.59-1.92c-5.76-12.67-9.07-14.91-13.54-19.37s-22.44-7.75-31-4.8c-9.34,3.2-18.71,17.21-14.56,28.58C518.73,144.09,527.2,169.35,545.37,175.75Z" fill="#ffc596"/><path d="M545.37,175.75s26.49,9.09,30.08-22.91C576.47,163.85,568.79,190.73,545.37,175.75Z" fill="#ffa072"/><path d="M573.14,143.12a5.63,5.63,0,1,0,5.63-5.63A5.63,5.63,0,0,0,573.14,143.12Z" fill="#686175" data-primary="true"/><path d="M525.65,138.47a2.19,2.19,0,1,0,1.15-3.17A2.39,2.39,0,0,0,525.65,138.47Z" fill="#332d44"/><path d="M549.42,129.57a2.2,2.2,0,1,1-2.8-1.87A2.4,2.4,0,0,1,549.42,129.57Z" fill="#332d44"/><path d="M448.62,605.75s-3.45,15.74,0,28h83s9.21-10.95-15-15.28c-11.69-2.09-22.61-8.53-26.84-12.75Z" fill="#f48225" data-secondary="true"/><path d="M186.4,543.94c14.21,14.2,14.59,33.27,14.59,33.27s-21,28.67-21,40.44c5.12,5.12,14.34,5.18,14.34,16.13H162.6c-10.75,0-11.84-82.52-9-85.39S173.73,542.59,186.4,543.94Z" fill="#f48225" data-secondary="true"/><path d="M344.2,341.61c5.75-12.67,44.15-17,87.66,0,10.56,10.56,46.58,61.55,63.14,97.53,5.47,11.87,9.29,23.4,9.29,61.8s5.25,91.5,5.25,107.62c-20.73,0-43.85.64-64.37.64.44-54.53.25-87.13,3.07-117.48,1.59-17.09-22.14-45.94-49.14-72.94-17.77,17.76-44.68,54.79-79.83,87.51-37,34.46-68.37,63-108.3,90.63-15.35-15.36-20.73-39.16-24.57-53,19.2-12.29,36.65-30.92,51.24-45.51s37.32-31,47.3-41S322.31,381.15,344.2,341.61Z" fill="#2c2e63"/><path d="M399.1,418.78s-4.15-4.46-10.17-11.26c-3-3.4-6.47-7.4-10.09-11.76-1.83-2.16-3.63-4.46-5.5-6.77s-3.69-4.71-5.47-7.14-3.58-4.84-5.24-7.29-3.29-4.87-4.76-7.27a128.82,128.82,0,0,1-7.39-13.49c-.5-1-.89-2-1.3-3s-.79-1.85-1.09-2.71c-.67-1.71-1.15-3.24-1.55-4.5s-.62-2.28-.82-3-.28-1.06-.28-1.06,0,.38.11,1.09.13,1.77.39,3.08a47.77,47.77,0,0,0,1,4.71c.22.91.49,1.87.82,2.87s.64,2,1.06,3.12a93.58,93.58,0,0,0,6.69,14.2c.72,1.25,1.44,2.52,2.23,3.77s1.55,2.53,2.4,3.77c1.66,2.52,3.43,5,5.24,7.48s3.73,4.84,5.63,7.16,3.85,4.55,5.76,6.68,3.81,4.13,5.63,6,3.58,3.62,5.23,5.2A150.1,150.1,0,0,0,399.1,418.78Z" opacity="0.2"/><path d="M506.46,79.3a44.15,44.15,0,0,1-.25,27.73c0,12.67,9.22,27.64-6.14,21.88-4.22,10-7.68,18.94-16.89,18.94-4.61,0-10-2-15.36-4.86-3.81,8.58-6.91,13.95-13.44,38.14-10-10-20.15-21.31-36.86-38,7.3-7.3,12.29-10,16.51-22.65C430.58,107.8,413.94,29.39,506.46,79.3Z" fill="#ffc596"/><path d="M508.9,79c9.72-1.53,13.31-8.63,11.32-15-2.24-7.18-11.32-4.35-21.82-6.14s-27.4-14.24-50.74-9c-20.73,4.61-23,25.7-23,40.11,0,8.54.77,19.53,9.4,31.52,6-3.2,10.37-6,12.67-12.16-4.6-2-6.14-12-2.56-18.43s11,0,12.8,7.17c7.62-4.21,10.2-11.29,11.84-17.41,1.15-4.28,4.54-5.37,8.64-4.09S497.07,80.87,508.9,79Z" fill="#2c2e63"/><path d="M495.35,107.2c-.31,1.4.23,2.7,1.19,2.92s2-.75,2.31-2.15-.22-2.7-1.19-2.91S495.66,105.8,495.35,107.2Z" fill="#2c2e63"/><path d="M467.82,143c-.81,1.82-1.58,3.49-2.36,5.22-7.94-6.78-10.55-17.62-9-26.35A25.34,25.34,0,0,0,467.82,143Z" fill="#ffa072"/><path d="M310.93,98.69c5.94,8,10.42,15.06,17.14,21.78,6.72,2.88,18.66,4.75,31.91-1.2,5.86,1.86,11.28,4.46,11.28-2.83,3.65-1.35,4.42-4.23,1.15-8.45,2.63-1.06,4.61-4.22,0-8.83,0-3.84-.48-8.73-12.19-9.89s-18.9,1.06-26.2,2.4S316.23,93.39,310.93,98.69Z" fill="#ffc596"/><path d="M371.26,116.44a4.06,4.06,0,0,0-.41-.57,5.69,5.69,0,0,0-.55-.6,6,6,0,0,0-.77-.71,14,14,0,0,0-2.14-1.51,13.21,13.21,0,0,0-1.28-.72l-1.38-.63a20.84,20.84,0,0,0-2.81-1,14.81,14.81,0,0,0-2.53-.56,20.4,20.4,0,0,0-2.53-.26,22.24,22.24,0,0,0,2.28,1.1c.69.29,1.49.61,2.33,1s1.79.67,2.66,1.11,1.81.74,2.63,1.13c.41.2.84.35,1.21.54s.74.36,1.08.51.63.32.9.45.52.25.7.36C371,116.3,371.26,116.44,371.26,116.44Z" fill="#ffa072"/><path d="M372.41,108a9.45,9.45,0,0,0-1.71-2,8.15,8.15,0,0,0-1-.81c-.36-.26-.72-.57-1.14-.82s-.87-.51-1.33-.74a7.63,7.63,0,0,0-1.42-.65l-1.48-.52a7,7,0,0,0-1.48-.33c-.48-.09-.95-.16-1.4-.22a4.93,4.93,0,0,0-1.26,0,20.8,20.8,0,0,0-2.59.24,23.85,23.85,0,0,0,2.48.64,7.2,7.2,0,0,1,1.17.3c.4.13.83.28,1.27.4a12.52,12.52,0,0,1,1.36.43l1.36.53a8,8,0,0,1,1.35.56c.44.22.88.39,1.31.58.81.43,1.6.81,2.26,1.17s1.22.66,1.6.89Z" fill="#ffa072"/><path d="M372.41,99.16a13.21,13.21,0,0,0-1.8-1.69,19.78,19.78,0,0,0-4.68-2.72c-.46-.19-.94-.34-1.4-.5a14.51,14.51,0,0,0-1.41-.35,10.76,10.76,0,0,0-2.57-.21,9,9,0,0,0-1,.13,3.43,3.43,0,0,0-.77.2l-.64.24.68.07a13.61,13.61,0,0,1,1.7.24l1.09.27,1.2.37c.83.29,1.71.58,2.57,1s1.74.73,2.56,1.08l2.25,1C371.48,98.81,372.41,99.16,372.41,99.16Z" fill="#ffa072"/><path d="M536.57,191.59c12.74,12.73,26.85,27.93,15.33,41.94s-25.23,2.34-29.95,0c-16.64-2.11-100.51-11.81-114.5-17.58s-46.49-70-53.4-76.93S330,125,330,117.4c8.7-4.48,28.12,0,28.12,0s13.86,13.94,29.21,29.3,31.23,32.25,38.91,39.93C456.43,190.21,502.05,191.59,536.57,191.59Z" fill="#ffc596"/><path d="M426.23,186.63s-.34.57-.76,1.38c-.2.42-.47.88-.68,1.39s-.48,1-.77,1.56-.48,1.08-.75,1.56-.44,1-.67,1.38a9.35,9.35,0,0,0-.66,1.43,8.12,8.12,0,0,0,1.35-.89,6.65,6.65,0,0,0,1.13-1.21,9.16,9.16,0,0,0,1-1.6,9.48,9.48,0,0,0,.9-3.39A5.09,5.09,0,0,0,426.23,186.63Z" fill="#ffa072"/><path d="M360,119.27l-1.2.36c-.75.24-1.85.52-3.16.85s-2.84.68-4.48,1c-.82.17-1.68.29-2.54.45s-1.75.27-2.63.33-1.77.21-2.64.23-1.74.11-2.57.08-1.64,0-2.4,0-1.5,0-2.16-.15-1.28-.14-1.83-.18l-1.4-.26-1.23-.19s.41.19,1.15.48l1.35.52c.54.16,1.15.33,1.82.5a16.08,16.08,0,0,0,2.19.42,17.46,17.46,0,0,0,2.48.26,31.73,31.73,0,0,0,5.4-.14c.92-.08,1.83-.27,2.72-.4s1.76-.38,2.59-.59a38,38,0,0,0,4.45-1.48A26.19,26.19,0,0,0,360,119.27Z" fill="#ffa072"/><path d="M553,154.16a6.34,6.34,0,0,1,.43,1.22,7.14,7.14,0,0,1-.13,4,7.22,7.22,0,0,1-3.84,4.3,7.14,7.14,0,0,1-5.76.09,7.06,7.06,0,0,1-3.12-2.51,6.5,6.5,0,0,1-.64-1.12l0-.06,13.07-6Z" fill="#920e08"/><path d="M553,154.16a6.34,6.34,0,0,1,.43,1.22l-12.85,5.88a6.5,6.5,0,0,1-.64-1.12l0-.06,13.07-6Z" fill="#fff"/><path d="M553.27,159.38a7.22,7.22,0,0,1-3.84,4.3,7.14,7.14,0,0,1-5.76.09,7.9,7.9,0,0,1,9.6-4.39Z" fill="#f85c66"/><path d="M536.22,139.37l1.4,9.95a2.71,2.71,0,0,0,3.49,2.2l3.47-1.08" fill="none" stroke="#ffa072" stroke-miterlimit="10"/><path d="M529.34,139.67a2.25,2.25,0,0,1-3.73-1.3c-1.65.85-2.24-.1-2.24-.1.5.24,2.14-1.19,2.8-1.8h0l.19-.18h0l.08-.07a2.26,2.26,0,0,1,2.88,3.47Z" fill="#2c2e63"/><path d="M530.75,131.82h0a1,1,0,0,1-.94,1.23c-2,.17-6.32.79-8.28,3.11,0,0,.48-3.84,8-5.19A1.05,1.05,0,0,1,530.75,131.82Z" fill="#2c2e63"/><path d="M503.1,105.66h0a1.06,1.06,0,0,1-1.54.19c-1.56-1.34-5-3.94-8-3.71,0,0,3.07-2.36,9.31,2A1.06,1.06,0,0,1,503.1,105.66Z" fill="#2c2e63"/><path d="M541.2,124.78h0a1,1,0,0,0,1.43.59c1.86-.87,5.87-2.46,8.72-1.43,0,0-2.33-3.09-9.52-.51A1.06,1.06,0,0,0,541.2,124.78Z" fill="#2c2e63"/><path d="M547.68,132.76a2.24,2.24,0,0,0,1.49-2.81,2.21,2.21,0,0,0-.68-1c1.58-1,1.07-2,1.07-2,0,.56-2.12,1.21-3,1.47h0l-.26.07h0l-.1,0a2.25,2.25,0,0,0,1.49,4.25Z" fill="#2c2e63"/><path d="M484.41,130a7.13,7.13,0,0,0,4.66,6.06,4.38,4.38,0,0,0,5.3-1.3S489,137.53,484.41,130Z" fill="#f88968"/><path d="M448.77,97.16a1.94,1.94,0,0,0-.47,1.4,1.37,1.37,0,0,0,.49,1,7.16,7.16,0,0,1,1.2,1.3,2.17,2.17,0,0,1,.27,1,1,1,0,0,1-.49.88,1,1,0,0,0-.18-.74,1.87,1.87,0,0,0-.47-.5,13.51,13.51,0,0,1-1.32-1,2.38,2.38,0,0,1-.59-1,2,2,0,0,1,0-1.15A1.65,1.65,0,0,1,448.77,97.16Z" fill="#ffa072"/><path d="M446.5,97.61A2.9,2.9,0,0,1,446,95a3,3,0,0,1,2.13-2,2.66,2.66,0,0,1,1.6.09,2,2,0,0,1,1.17,1.2,2.74,2.74,0,0,1,.06,1.44c-.1.44-.24.82-.37,1.24a11,11,0,0,0-.68-2.23.94.94,0,0,0-.61-.41,1.71,1.71,0,0,0-.84,0,2.29,2.29,0,0,0-1.45,1.1A4.17,4.17,0,0,0,446.5,97.61Z" fill="#ffa072"/><path d="M579.08,128.68a2,2,0,0,0-.73,1.28,1.39,1.39,0,0,0,.28,1,6.67,6.67,0,0,1,.92,1.51,2,2,0,0,1,.06,1.06,1,1,0,0,1-.65.77,1,1,0,0,0,0-.77,2.2,2.2,0,0,0-.37-.58,10.91,10.91,0,0,1-1.1-1.24,2.35,2.35,0,0,1-.38-1.07,2,2,0,0,1,.25-1.13A1.64,1.64,0,0,1,579.08,128.68Z" fill="#ffa072"/><path d="M576.76,128.68a3,3,0,0,1,2.52-4.26,2.6,2.6,0,0,1,1.55.4,2,2,0,0,1,.92,1.41,2.84,2.84,0,0,1-.23,1.42,11.28,11.28,0,0,1-.61,1.14,10.44,10.44,0,0,0-.22-2.31.93.93,0,0,0-.52-.53,1.76,1.76,0,0,0-.83-.15,2.36,2.36,0,0,0-1.64.8A4.27,4.27,0,0,0,576.76,128.68Z" fill="#ffa072"/></svg>