<svg xmlns="http://www.w3.org/2000/svg" xmlns:xlink="http://www.w3.org/1999/xlink" width="865.76" height="682.89" viewBox="0 0 865.76 682.89"><defs><linearGradient id="f016a653-9ca0-4c3f-9d2a-7aab7d6a985b" x1="534.25" y1="-12.19" x2="389.88" y2="614.89" gradientUnits="userSpaceOnUse"><stop offset="0" stop-color="#f6ecea"/><stop offset="1" stop-color="#ddd7e2"/></linearGradient><linearGradient id="e7b38b6b-90a8-4022-b949-579610028961" x1="457.33" y1="684.25" x2="453.06" y2="576.8" gradientUnits="userSpaceOnUse"><stop offset="0.14" stop-color="#f6ecea"/><stop offset="0.62" stop-color="#eae2e6"/><stop offset="1" stop-color="#ddd7e2"/></linearGradient><linearGradient id="aca556d5-83e5-41f2-b182-8d9a12dd631b" x1="339.06" y1="847.47" x2="329.76" y2="697.18" gradientTransform="translate(1.5 -135.06) rotate(-0.07)" xlink:href="#f016a653-9ca0-4c3f-9d2a-7aab7d6a985b"/><linearGradient id="e6e89f6a-4d42-4c3f-a0d0-8134b16547b1" x1="639.64" y1="723.74" x2="625.77" y2="499.49" xlink:href="#f016a653-9ca0-4c3f-9d2a-7aab7d6a985b"/><linearGradient id="bbab8398-b402-4dce-a845-c47e1716dd78" x1="-715.54" y1="3644.81" x2="-715.95" y2="3592.65" gradientTransform="translate(1309.07 -3477.61) scale(0.88 1)" xlink:href="#f016a653-9ca0-4c3f-9d2a-7aab7d6a985b"/><clipPath id="ba982208-9365-436c-acf5-e35f5675ca6e"><polygon id="b436cae8-0743-4ce8-972e-4ca7db53c9cb" data-name="SVGID" points="173.38 214.03 173.91 221.77 177.83 279.84 183.95 370.15 188.89 443.43 192.25 489.13 193.09 497.12 193.09 497.13 197.04 560.24 203.18 655.53 416.85 655.53 410.25 555.46 410.25 555.39 404.28 464.98 404.28 464.94 403.51 459.71 399.51 406.74 399.51 406.73 396.64 360.01 392 288.98 388.96 243.54 387.03 214.03 173.38 214.03" fill="#f1f2f2"/></clipPath><clipPath id="a1353232-e83d-43b6-80a2-c89984d0e70c"><path id="ef546088-4ee9-44f5-a05f-a5acc1ad4234" data-name="SVGID" d="M218.82,263.53h0a8.74,8.74,0,0,0,1.32.6c7.38,2.69,16.91-4.82,21.26-16.79s1.9-23.84-5.49-26.53a7.73,7.73,0,0,0-1.41-.38c-7.14-1.36-15.77,5.95-19.84,17.17S212.48,260,218.82,263.53Z" fill="#fff"/></clipPath><clipPath id="e887d40e-cf7f-4c4d-970c-953722606203"><path id="f5c98534-b466-45f4-9a75-363a7085f1ed" data-name="SVGID" d="M211.76,251.07a5.81,5.81,0,0,1,2.65-.92A2.53,2.53,0,0,1,217,251.6a6.22,6.22,0,0,1-.18,4.71l-2.22,5.07s-1.72,3.86-5.13,2.76c0,0-2.27,7.42-2,10.19,0,0-.06,2.49-1,2,0,0-1-.11-.77,1.31a1.21,1.21,0,0,1-1.28,1.42s-1.71.48-1.85,1.59a1.88,1.88,0,0,1-.78,1.37,2.89,2.89,0,0,1-2.08.34s-10.79.65-15.35,9.09a36.77,36.77,0,0,1-11.7,13.23s-12.1,9.3-24.6,12.25c0,0-21.86,6-30.27,7.57l-16,3.09s-3,.36-9.46-1.11c0,0-4.36-1.29-3.55,2.92a9.77,9.77,0,0,1-.48,4.9s-.11,2.33,2.51,5.2c0,0,12.09,14.32,12.49,14.76a46,46,0,0,0,12.77,12.1,62.42,62.42,0,0,1,8,6.71c.22.6,7.61,6.78,9.1,5.1,0,0,1-1.37-1.25-5.4,0,0,1.5-3.43,1-6.12,0,0,1-.79,2.4-5.06l1.65-5s.9-3.21,6-8.15l9.08-8.91,0-.92,3-3s.71.78,1.58-1.6l2.09-1.9a6.78,6.78,0,0,0,5-2.68s10.45-4.1,14.76-5.32c0,0,31.75-8.53,36-20.67,0,0,3.06-4.69,8.6-23.45l2.2-2.48s9.24-1.4,6.08-12.39c0,0-10.25-4.27-10.91-8.12a10.76,10.76,0,0,0-.36-1.59l-.92-2.87a5.13,5.13,0,0,0-2.91-3.21C214.83,248.74,213,249,211.76,251.07Z" fill="#686175" data-primary="true"/></clipPath><clipPath id="b066b314-9714-4778-ad3e-e9009e9d8136"><path id="b8beeca1-fb9f-45ea-8a0f-d17c23788913" data-name="SVGID" d="M331.17,341.41a16.47,16.47,0,0,0-3.11-7.3,7.23,7.23,0,0,0-7.91-2.59c-2.74.92-6.29,3.35-9.49,9.38l-6.39,14.31s-4.8,11,4,16c0,0-11.2,18.89-17.61,23.51,0,0-5.13,4.87-2.31,5.9,0,0,2,1.79-1.28,4.1,0,0-3.33,2.31-.51,5.38,0,0,2.25,4.5.17,6.92a5.25,5.25,0,0,0-1.37,4.25,8.06,8.06,0,0,0,3.25,5s19.23,23.85,10.25,49.49a104.12,104.12,0,0,0-5.38,49.74s3.59,43.07,21.28,74.87c0,0,29.21,57.14,41.89,77.82l24,39.38s5,7,20.36,17.68c0,0,11,6.67.66,13a27.79,27.79,0,0,0-9.34,10.35s-4.67,4.67-15.68,4.67c0,0-53.05,2-54.72,2s-25,3.67-49.72-3.67c-1.66-.34-16.34-3.67-29.36-4-1.67.67-28.69-3-28-9.34,0,0,1-4.67,13.68-7.67,0,0,4.33-9.68,11-13.68,0,0-.34-3.67,6-14.68l7.34-13s5-8,5.67-28l1.34-36,2-1.67.67-12s-3,0,.33-6.34v-8s-5.34-5.34-4-15.69c0,0-11.35-29.69-17-41,0,0-42.71-82.74-25.36-114.77,0,0,4-15.35,32.7-62.73l1-9.34s-14.68-22,14.35-36.37c0,0,28.49,13.33,37.81,7.36a32.54,32.54,0,0,1,4-2.29l7.77-3.53a14.51,14.51,0,0,1,12.27,0C330.22,330.53,333.11,334.82,331.17,341.41Z" fill="#686175" data-primary="true"/></clipPath><clipPath id="ec20c8ba-38a0-45e7-97e6-eb68b2fe6afc"><path id="ad496b81-0a91-444c-a565-41d5170a4108" data-name="SVGID" d="M703.08,69.07h0a9.57,9.57,0,0,1-1.59.73C692.61,73,681.16,64,675.92,49.62S673.64,21,682.53,17.73a10.07,10.07,0,0,1,1.69-.46c8.59-1.63,19,7.15,23.86,20.64S710.7,64.77,703.08,69.07Z" fill="#fff"/></clipPath><clipPath id="f4e647b1-92cb-4108-8516-13755dc4967b"><path id="b9a6daa3-b121-4b65-95ad-aeb4a568753d" data-name="SVGID" d="M711.56,54.11A6.93,6.93,0,0,0,708.38,53a3.06,3.06,0,0,0-3.07,1.74c-.49,1.12-.74,2.93.23,5.66l2.67,6.09s2.07,4.64,6.16,3.32c0,0,2.73,8.92,2.35,12.25,0,0,.06,3,1.19,2.41,0,0,1.15-.13.92,1.57a1.45,1.45,0,0,0,1.54,1.7s2,.58,2.22,1.92a2.23,2.23,0,0,0,.94,1.65,3.44,3.44,0,0,0,2.49.4s13,.79,18.46,10.93a44.25,44.25,0,0,0,14.06,15.9s14.54,11.19,29.57,14.72c0,0,26.28,7.17,36.39,9.1l19.22,3.72s3.63.43,11.36-1.33c0,0,5.24-1.55,4.28,3.51a11.71,11.71,0,0,0,.57,5.88s.13,2.8-3,6.26c0,0-14.53,17.21-15,17.74s-6,8.9-15.35,14.54a73.76,73.76,0,0,0-9.65,8.07c-.27.71-9.14,8.14-10.94,6.12,0,0-1.18-1.65,1.5-6.48,0,0-1.8-4.13-1.15-7.37,0,0-1.24-.94-2.88-6.08l-2-6s-1.08-3.86-7.17-9.79l-10.92-10.71,0-1.11-3.57-3.64s-.86.94-1.9-1.92l-2.51-2.28s-3.2.14-6.06-3.23c0,0-12.56-4.93-17.74-6.39,0,0-38.17-10.25-43.26-24.85,0,0-3.67-5.64-10.33-28.18l-2.64-3s-11.11-1.68-7.31-14.89c0,0,12.32-5.13,13.11-9.76a13.88,13.88,0,0,1,.43-1.91l1.11-3.45a6.18,6.18,0,0,1,3.5-3.86C707.88,51.3,710.05,51.61,711.56,54.11Z" fill="#686175" data-primary="true"/></clipPath><clipPath id="b8109199-3ff3-45ce-92df-d1d4cd67e83c"><path id="a5451beb-7578-4916-aea8-4b05feca76b7" data-name="SVGID" d="M568,162.69a19.87,19.87,0,0,1,3.74-8.78,8.69,8.69,0,0,1,9.5-3.11c3.3,1.11,7.56,4,11.41,11.27l7.69,17.21s5.76,13.19-4.82,19.25c0,0,13.47,22.71,21.17,28.26,0,0,6.17,5.86,2.78,7.09,0,0-2.47,2.16,1.54,4.93,0,0,4,2.77.61,6.47,0,0-2.7,5.41-.21,8.32a6.32,6.32,0,0,1,1.66,5.11,9.81,9.81,0,0,1-3.91,6s-23.12,28.66-12.33,59.48c0,0,11.1,26.5,6.47,59.78,0,0-4.31,51.78-25.58,90,0,0-35.11,68.69-50.35,93.55l-28.87,47.33s-6,8.42-24.47,21.25c0,0-13.23,8-.8,15.64a33.34,33.34,0,0,1,11.23,12.44s5.61,5.61,18.85,5.61c0,0,63.77,2.41,65.77,2.41s30.08,4.41,59.76-4.41c2-.41,19.65-4.42,35.29-4.82,2,.81,34.49-3.61,33.69-11.23,0,0-1.2-5.61-16.44-9.22,0,0-5.22-11.63-13.24-16.44,0,0,.4-4.42-7.22-17.65l-8.82-15.64s-6-9.63-6.82-33.69l-1.6-43.31-2.41-2-.8-14.44s3.61,0-.4-7.62v-9.62s6.41-6.42,4.81-18.85c0,0,13.64-35.7,20.45-49.33,0,0,51.34-99.46,30.48-138,0,0-4.81-18.45-39.3-75.4l-1.2-11.23S683,162.84,648.1,145.59c0,0-34.24,16-45.44,8.86a38,38,0,0,0-4.84-2.76l-9.33-4.24a17.41,17.41,0,0,0-14.75,0C569.18,149.62,565.71,154.77,568,162.69Z" fill="#686175" data-primary="true"/></clipPath></defs><g style="isolation:isolate"><g id="b6b9f1cf-191f-4fa1-a7f8-6e5002534b14" data-name="Layer 1"><path d="M688,190.66c-1.89-10.6-7.26-21-16.35-27-17.43-11.55-41.12-3.87-59.77,5.78.34-7.11,3.68-13.29,5.74-20.12s.85-15.9-5.9-18.56c-4.86-1.9-10.39.44-14.54,3.56s-7.75,7.09-12.55,9.15c22.73-26.31,39.65-56.25,55.42-87,3.5-6.83,6.86-13.9,7.85-21.47s-.71-15.83-6.2-21.25c-8.69-8.59-23.22-7.29-35-3.53A118.14,118.14,0,0,0,552.5,46.43c-2.35,2.8-5.89,5-9.57,4.71a7.89,7.89,0,0,1-7-7.17c-.23-5,4.28-10.64.91-14.37-9.18-10.15-27.9-6.4-40.32-.31s-22.72,15.5-33.22,24.4S441.57,71.27,428.35,75.4c-4.87,1.52-10.32,2.35-14.94.24s-7.56-8.14-4.81-12.35c-2.38-4.54-8-3.39-12.66-1s-7.86,6.65-11.63,10.19A24,24,0,0,1,378,76.87c3.12-11,7.5-26.13,10.35-36.23,1.11-4,2-8.79-1-11.65-2.35-2.23-6.08-2.16-9.32-1.66-16.78,2.61-31.55,12.88-42.5,25.59-7.4,8.6-13.26,18.3-18.49,28.35a9.64,9.64,0,0,0,8.88,14.06l.79,0c-30.8,39.75-63.05,80.85-78.19,128.46-2.13,6.71-3.94,13.93-2,20.69s8.83,12.64,15.84,11.11c6.58-1.46,11.45-8.72,18.13-7.89,6.94.86,9.31,10.55,5.61,16.36s-10.77,8.53-17.35,10.88c-6.67,9.31-3.8,23.85,6,29.95-15.45,15.6-28.23,34.18-35.42,54.72-5.61,16-8,34.83,1.57,48.88,4.85,7.1,12.34,12.3,16.49,19.8,4.64,8.38,4.47,18.68,1.68,27.82s-7.93,17.38-13,25.52c-5.47,8.71-4.81,20.3-5.89,30.46S242,534,251.22,538.74c7.78,4,17.37,1.69,25.42-1.8a94.27,94.27,0,0,0,34.15-25.24c13.54.77,23,11.19,26.13,24.09s2.67,26.7,8.06,38.85c3.91,8.79,12.13,16.81,21.92,16.43,6.67-.26,12.51-4.29,17.7-8.41a203.45,203.45,0,0,0,35.3-36c8.13,6.77,12.09,17,18.69,25.2,8.08,10,23.58,11.93,35.8,7.38S496,565,504,554.87c11,17,34.45,22.46,54.46,17.5s36.6-18.63,50.37-33.69c34.9-38.16,56.17-88,59.32-139.11.67-10.8.11-22.78-7.47-30.64-9.16-9.5-24.46-9.05-37.78-7.91,33.3-39.37,55.15-87.91,63.9-138.27C688.64,212.15,689.89,201.25,688,190.66ZM326.21,405.49a321.38,321.38,0,0,0-37.87,56.9c-2.48,4.74-6.82,10.44-11.95,8.68-2.93-1-4.51-4.27-4.46-7.3s1.37-5.9,2.66-8.66c3.81-8.08,7.39-16.79,11.19-24.87-2.19,3.76-8.78,1.9-10.41-2.12s0-8.53,1.61-12.56q6.16-15.24,12.68-30.34l1.42.38c2.81-1.93,4.46-5.07,5.77-8.18s2.41-6.36,4.54-9,5.59-4.56,8.93-3.82,4.11,5.4,2.08,8.11a24.6,24.6,0,0,0,17.19,4C331.46,386.25,332.48,398,326.21,405.49ZM442,188l-14.4,20.4c-4.79,6.79-9.66,13.66-16,19.07s-14.53,9.3-22.95,9-18.14-4.56-20.37-12.51c1.75-4.41,3.52-9,2.94-13.73s-4.38-9.36-9.21-9.24c-3.61.09-6.6,2.67-9.12,5.21a131,131,0,0,0-14.25,17c-3.09,4.4-6.75,9.49-12.19,9.77-4.36.21-8.35-3.12-9.69-7.17s-.43-8.58,1.54-12.38a48.94,48.94,0,0,1,6.92-10.69c2.13-2.36,4.35-4.9,4.89-8s-.85-6.54-4.06-6.73c-1.75,2.65-3.65,5.43-6.55,6.8s-7.09.66-8.28-2.27c-1-2.39.36-5,1.68-7.28q5.55-9.41,11.56-18.56l-.43-1a202.93,202.93,0,0,1,33.27-42.66c3-2.92,6.21-5.84,10.2-7.19s9-.72,11.58,2.54,2.09,7.84,1,11.81a54.24,54.24,0,0,1-9.82,19.43c-1.23,1.54-2.62,3.3-2.32,5.23s4.27,3,4.92,1.18c1.94-1.54,4-3.1,6.46-3.57s5.37.5,6.26,2.78,1,4.56,2.36,6.48a51.59,51.59,0,0,1,23.81-20.92c5.22-2.26,11.2-3.66,16.63-1.94s10.72,7.57,9.24,13a9.73,9.73,0,0,0-.41,14.13c.7-.22.87-.21.25-.59l12.11.15C449.93,173.24,446.54,181.51,442,188ZM634,410.5c1.84,12.67-3.34,25.22-8.41,37l-17.89,41.68c-3.27,7.62-6.76,15.54-13.22,20.86s-16.85,7.05-23.16,1.58c-3.62,5.71-8.47,12.28-13.94,16.35s-13.11,6-19.3,3.14c-4.73-2.21-7.86-6.89-9.33-11.82s-1.52-10.14-1.55-15.28c8.33-11.4,13.55-22.89,19.12-35.8C540.53,456.57,539,444.42,543,432a52.41,52.41,0,0,1,24.62-29.58c1.56-8.25,7.37-14,15.24-17.33A27.2,27.2,0,0,1,607.46,387l.09,1C620.4,385.62,632.2,397.82,634,410.5Zm-3.28-203.13c-2.43,3.85-5.43,7.54-6.38,12,2.57-.14,2.32,4.1,2.72,6.58s-.45,5-1.33,7.34c-10.51,28.46-26.51,56.48-52.48,72.91-5.91,3.74-14.42,6.56-19.35,1.67-4.14-4.12-2.78-11.08.06-16.16s6.94-9.75,7.7-15.48c-6.31,5-19.45,7.36-25.53,2.08s-8.4-13.92-7.24-21.8,5.44-15.08,10.73-21.14,11.63-11.15,17.74-16.42a348.06,348.06,0,0,0,26.39-25.27c1.36-1.43,4.22-2.33,4.74-.45s0,3.9.27,5.83a6.8,6.8,0,0,0,6,5.45,6.92,6.92,0,0,0,6.89-4.35l-.14,3.24c3.9-5.7,8.12-11.67,14.5-14.49s15.49-.82,17.66,5.68C635.14,198.86,633.19,203.52,630.76,207.37Z" fill="url(#f016a653-9ca0-4c3f-9d2a-7aab7d6a985b)" style="mix-blend-mode:multiply"/><path d="M704.9,605c.07,4-4,7.93-11.33,11.51-18.08,8.82-56.15,15.65-101.86,17.76-6.48.29-13.12.49-19.87.59l-3.55,0c-2.06,1.87-6.49,1.8-8.76,1.76-2.66,0-4.19-.38-5.67.51-2.29,1.36-1.86,5.1.79,5.21,5.07.19,10.29.44,14.88,2.61s8.41,6.81,8.05,11.9-4.2,8.35-8.26,11.64l-18.53,1.33-147.13,5.67c-3.9.15-7.62.15-11.52,0-4.3-.15-6.91-4.38-7.41-8.27s.82-8.38,5.88-8.92c3.28-.34,6.77-1.22,6.95-4.53s-2.39-6.28-5.42-7.62-6.43-1.36-9.73-1.38c-30.63-.16-58.44-.5-90.35,1.28-11.84.67-24.5,1.45-36.33.63a17.9,17.9,0,0,1-7.59-1.75c-2.29-1.28-4.08-3.79-3.74-6.4.31-2.41,2.29-4.26,4.42-5.4s4.49-1.79,6.56-3c4.72-2.81,15.75-5.92,6.15-12a34,34,0,0,0-5-.7h0l-.62,0h-.07c-.58,0-1.17-.05-1.74-.05a192.53,192.53,0,0,1-27.36-2.69c-2.15-.4-4.19-.83-6.1-1.29-10.48-2.55-16.92-6.15-17.26-10.43-.41-5,7.55-9.92,20.75-13.89h0a161.61,161.61,0,0,1,17.74-4.14A271.28,271.28,0,0,1,276,581c4.51-.24,8.91-.36,13.2-.4,5.75,0,11.28.08,16.51.36,6,.32,11.7.85,16.83,1.57A105.44,105.44,0,0,1,338.7,586a163,163,0,0,0,37.67-6.19c-2.07-4.09,2.06-10,6.56-9.3q43.9-4.22,88.07-4.53c6.27,0,12.92.07,18.21,3.43s8.58,10.24,4.72,15.2q5.7-.54,11.44-1A563.39,563.39,0,0,1,571,579C644.75,577.94,704.69,589.56,704.9,605Z" fill="url(#e7b38b6b-90a8-4022-b949-579610028961)"/><ellipse cx="338.01" cy="654.46" rx="40.4" ry="6.15" transform="translate(-18.97 10.15) rotate(-1.67)" fill="url(#aca556d5-83e5-41f2-b182-8d9a12dd631b)"/><ellipse cx="634.71" cy="644.06" rx="52.67" ry="9.38" fill="url(#e6e89f6a-4d42-4c3f-a0d0-8134b16547b1)"/><ellipse cx="583.04" cy="590.19" rx="37.36" ry="5.08" fill="#fff"/><ellipse cx="373.66" cy="619.2" rx="41.82" ry="5.02" fill="#fff"/><path d="M489.52,643.82c1.23.43,1.9.9,1.9,1.37,0,2.5-18.09,4.51-40.4,4.51s-40.39-2-40.39-4.51c0-1.86,10-3.45,24.38-4.14-2-.65-3.14-1.35-3.14-2.09,0-3,18.09-5.37,40.39-5.37s40.4,2.41,40.4,5.37C512.66,641.11,503.19,643,489.52,643.82Z" fill="#fff"/><ellipse cx="677.4" cy="50.04" rx="36.15" ry="9.67" transform="translate(233.25 563.95) rotate(-53.39)" fill="url(#bbab8398-b402-4dce-a845-c47e1716dd78)" style="mix-blend-mode:multiply"/><path d="M136.33,662.73q9.1-53.84,18.2-107.67l28.8-170.29q3.31-19.63,6.64-39.28c1.2-7.09,12-4.08,10.8,3L182.56,456.13q-14.4,85.15-28.79,170.3-3.33,19.64-6.64,39.27c-1.2,7.09-12,4.09-10.8-3Z" fill="#f48225" data-secondary="true"/><path d="M163.19,190.8H391.82a11.33,11.33,0,0,1,11.33,11.33l30.36,456.29a11.33,11.33,0,0,1-11.33,11.33H193.56a11.33,11.33,0,0,1-11.33-11.33L151.86,202.13A11.33,11.33,0,0,1,163.19,190.8Z" fill="#f48225" data-secondary="true"/><path d="M163.19,190.8H391.82a11.33,11.33,0,0,1,11.33,11.33l30.36,456.29a11.33,11.33,0,0,1-11.33,11.33H193.56a11.33,11.33,0,0,1-11.33-11.33L151.86,202.13A11.33,11.33,0,0,1,163.19,190.8Z" opacity="0.2"/><path d="M169.79,190.8H398.41a11.33,11.33,0,0,1,11.33,11.33l30.37,456.29a11.33,11.33,0,0,1-11.33,11.33H200.15a11.33,11.33,0,0,1-11.33-11.33L158.46,202.13A11.33,11.33,0,0,1,169.79,190.8Z" fill="#f48225" data-secondary="true"/><polygon points="172.81 205.68 173.38 214.03 173.91 221.77 177.83 279.84 183.94 370.16 188.88 443.43 192.26 489.13 193.08 497.12 193.08 497.13 197.04 560.24 203.18 655.53 425.75 655.53 418.6 547.11 418.6 547.04 412.64 456.63 412.64 456.59 411.86 451.36 407.87 398.39 407.87 398.38 404.99 351.66 400.35 280.63 397.32 235.19 395.38 205.68 172.81 205.68" fill="#f1f2f2"/><polygon id="e36defec-5a6d-45a5-aefd-eff66e64d978" data-name="SVGID" points="173.38 214.03 173.91 221.77 177.83 279.84 183.95 370.15 188.89 443.43 192.25 489.13 193.09 497.12 193.09 497.13 197.04 560.24 203.18 655.53 416.85 655.53 410.25 555.46 410.25 555.39 404.28 464.98 404.28 464.94 403.51 459.71 399.51 406.74 399.51 406.73 396.64 360.01 392 288.98 388.96 243.54 387.03 214.03 173.38 214.03" fill="#f1f2f2"/><g clip-path="url(#ba982208-9365-436c-acf5-e35f5675ca6e)"><path d="M209.64,259h0a2.53,2.53,0,0,1,2.53,2.53v34.53a0,0,0,0,1,0,0h-5.07a0,0,0,0,1,0,0V261.58a2.53,2.53,0,0,1,2.53-2.53Z" transform="translate(282.85 617.63) rotate(-155.09)" fill="#f48225" data-secondary="true"/><path d="M218.11,265.16h0a9.76,9.76,0,0,0,1.43.65c8,2.9,18.22-5.2,22.91-18.09s2.05-25.69-5.92-28.59a8.88,8.88,0,0,0-1.51-.41c-7.7-1.46-17,6.41-21.39,18.5S211.28,261.3,218.11,265.16Z" fill="#f48225" data-secondary="true"/><path id="b0a5c57e-b59e-4718-b17b-477de7b6776a" data-name="SVGID" d="M218.82,263.53h0a8.74,8.74,0,0,0,1.32.6c7.38,2.69,16.91-4.82,21.26-16.79s1.9-23.84-5.49-26.53a7.73,7.73,0,0,0-1.41-.38c-7.14-1.36-15.77,5.95-19.84,17.17S212.48,260,218.82,263.53Z" fill="#fff"/><g clip-path="url(#a1353232-e83d-43b6-80a2-c89984d0e70c)"><path d="M189,240a9.52,9.52,0,0,0,3.17,3.48s2.37-.72,3,0a8,8,0,0,0,4.16.36s-.3,1.07-3.24,1.51l-2,.58a19.68,19.68,0,0,1,1.93,3.17,14.47,14.47,0,0,0,9.11-2.24s-1,3.12-7.76,3.72a3,3,0,0,0,1.28,1.23l2.85-.37-1.63,1,1.23.47a23.49,23.49,0,0,0,3.78-2.49s-.4,1.48-3,2.86l2.53,1.21,2.33-1.81-1.94,2.24,5.24,3.83s13.17-4.65,16.64-9.48l9.19-15.94-37.31,5.29Z" fill="#1d0031"/><path d="M189,240a9.52,9.52,0,0,0,3.17,3.48s2.37-.72,3,0a8,8,0,0,0,4.16.36s-.3,1.07-3.24,1.51l-2,.58a19.68,19.68,0,0,1,1.93,3.17,14.47,14.47,0,0,0,9.11-2.24s-1,3.12-7.76,3.72a3,3,0,0,0,1.28,1.23l2.85-.37-1.63,1,1.23.47a23.49,23.49,0,0,0,3.78-2.49s-.4,1.48-3,2.86l2.53,1.21,2.33-1.81-1.94,2.24,5.24,3.83s13.17-4.65,16.64-9.48l9.19-15.94-37.31,5.29Z" opacity="0.2"/><path d="M259.76,266.57l-.34,2.56a.88.88,0,0,1-.31.56L257.48,271c-1.43.8-.5-.55-.5-.55-2.12-.24-.2-1.48-.2-1.48-2.6-.48.5-2.1.5-2.1a5,5,0,0,0,1.54-1.2,4.82,4.82,0,0,0,.87-1.45c1-.11,1.92,0,2.05.43.22.67-2,1.9-2,1.9l-.34,2.61a1,1,0,0,1-.25.5c-4.32,4.1-6.4,2-6.4,2a66.23,66.23,0,0,1-7.93,12.64c-3.58,5.34-4.79,3.84-4.79,3.84-3.11-.15-9.32-14.67-9.32-14.67l-16.17-12.09c-2.12,4.32-5.13,2.76-5.13,2.76-2.05,1.46-6.75,4.09-9.87,5.79a19.09,19.09,0,0,0-4,2.92c-4.66,4.47-20.72,8.78-20.72,8.78-1.28.62-2.75,1.19-3.56,1.49a6.26,6.26,0,0,1-1.07.3A3,3,0,0,0,168,284.8a.38.38,0,0,1-.66,0c-.65-1.2,1.45-2.62,1.45-2.62l-2.22-.69c-4-1-5.08-1.9-5.4-2.25-4.12-2.78-.25-1.68-.25-1.68-2.45-1.12-1.58-1.91-1.58-1.91.8.7,3.93,1.52,3.93,1.52L174.63,279l18.52-11,17.42-15.87c4.46-4.54,8.42.15,8.42.15,5-1.19,4.74-6.87,4.74-6.87l4.2,4.1s-1.5,6.45,1.83,7.87c0,0,6.37,2,7.52,8.67,0,0,2,11.54,3.88,13.89l9.9-11.05s-.18-3.27,2-4.23l2-.94a2.16,2.16,0,0,1,1.6-.11,6.13,6.13,0,0,0,2.41.26s.35,1.08-1.6,1.46c-1,2.3-2,4.6-3,6.89a2.92,2.92,0,0,1,2.18-2.27" fill="#fccdc3"/><path id="e4d47487-2649-4543-ace1-72f4078d5d3f" data-name="SVGID" d="M211.76,251.07a5.81,5.81,0,0,1,2.65-.92A2.53,2.53,0,0,1,217,251.6a6.22,6.22,0,0,1-.18,4.71l-2.22,5.07s-1.72,3.86-5.13,2.76c0,0-2.27,7.42-2,10.19,0,0-.06,2.49-1,2,0,0-1-.11-.77,1.31a1.21,1.21,0,0,1-1.28,1.42s-1.71.48-1.85,1.59a1.88,1.88,0,0,1-.78,1.37,2.89,2.89,0,0,1-2.08.34s-10.79.65-15.35,9.09a36.77,36.77,0,0,1-11.7,13.23s-12.1,9.3-24.6,12.25c0,0-21.86,6-30.27,7.57l-16,3.09s-3,.36-9.46-1.11c0,0-4.36-1.29-3.55,2.92a9.77,9.77,0,0,1-.48,4.9s-.11,2.33,2.51,5.2c0,0,12.09,14.32,12.49,14.76a46,46,0,0,0,12.77,12.1,62.42,62.42,0,0,1,8,6.71c.22.6,7.61,6.78,9.1,5.1,0,0,1-1.37-1.25-5.4,0,0,1.5-3.43,1-6.12,0,0,1-.79,2.4-5.06l1.65-5s.9-3.21,6-8.15l9.08-8.91,0-.92,3-3s.71.78,1.58-1.6l2.09-1.9a6.78,6.78,0,0,0,5-2.68s10.45-4.1,14.76-5.32c0,0,31.75-8.53,36-20.67,0,0,3.06-4.69,8.6-23.45l2.2-2.48s9.24-1.4,6.08-12.39c0,0-10.25-4.27-10.91-8.12a10.76,10.76,0,0,0-.36-1.59l-.92-2.87a5.13,5.13,0,0,0-2.91-3.21C214.83,248.74,213,249,211.76,251.07Z" fill="#686175" data-primary="true"/><g clip-path="url(#e887d40e-cf7f-4c4d-970c-953722606203)"><path d="M157.83,332.78s-26.14,11.79-39.62,8.78c0,0,15.48,3.52,36.77-6,0,0,.83,1.08,1.58-1.6Z" opacity="0.2"/><path d="M135.69,343.43s9.38.85,16.92-5.22l.8-1.21A38.58,38.58,0,0,1,135.69,343.43Z" opacity="0.2"/><path d="M147.66,344.15S135.85,356,135.71,360.77c0,0-25.05-1.08-30.63-15.6C105.08,345.17,123.86,364.56,147.66,344.15Z" opacity="0.2"/><path d="M132.94,366.65s-7.48,1.07-18-6.35c0,0,10.17,8.9,18.19,8.6C133.08,368.9,133.58,367.18,132.94,366.65Z" opacity="0.2"/></g><path d="M209.43,264.14l5.55-3.7S213.37,265.41,209.43,264.14Z" fill="#fc9189"/><path d="M223.63,246.08a3.63,3.63,0,0,1-.27,1.84s2.8,2.16,4.57,1.56Z" fill="#fc9189"/><ellipse cx="230.63" cy="239.99" rx="10.06" ry="7.82" transform="translate(-80.06 359.39) rotate(-67.16)" fill="#fccdc3"/><path d="M235.92,233.33s-4.13,4.46-7,4.49c0,0-6.1,3-9.49,2.44,0,0-3.16,1.6-4.43.21,0,0-4-1.61-7.57-.44,0,0-5.68,2-8.18.12a4.82,4.82,0,0,0-4.15.41,5.61,5.61,0,0,1-3.26.66c-1.46-.18-3.14-.77-3.33-2.51a.19.19,0,0,1,.29-.17c1,.65,4.22,2.16,9.14-2.45,0,0,1.93-2.08,5.8-1,0,0,5.08,1.9,10.55-2.77,0,0,13-14.23,22.73-2.86,0,0,4.13,1,4.62,6.47,0,0,.82,3.53-3.75,7.07C237.84,243,239.76,237.49,235.92,233.33Z" fill="#1d0031"/><path d="M232.42,243.05l-.95,1.25c-.16.2-.17.47,0,.55l.68.35c.16.08.41-.14.45-.41l.27-1.6C232.9,242.87,232.63,242.78,232.42,243.05Z" fill="#fc9189"/><path d="M230.41,239.06a1.91,1.91,0,0,1,1.36-.34,1.71,1.71,0,0,1,1.12.71.23.23,0,0,1,0,.3h0a.23.23,0,0,1-.34,0A1.92,1.92,0,0,0,230.41,239.06Z"/><path d="M237.78,242.38a1.88,1.88,0,0,0-.72-1.2,1.75,1.75,0,0,0-1.3-.29.22.22,0,0,0-.18.23h0a.22.22,0,0,0,.26.22A1.94,1.94,0,0,1,237.78,242.38Z"/><ellipse cx="231.14" cy="240.64" rx="0.9" ry="0.51" transform="translate(-88.57 336.13) rotate(-62.78)"/><ellipse cx="236.01" cy="243.14" rx="0.9" ry="0.51" transform="translate(-88.15 341.82) rotate(-62.78)"/><path d="M229.92,246.25a2.1,2.1,0,0,0,2.79,1.16" fill="none" stroke="#fc9189" stroke-linecap="round" stroke-linejoin="round" stroke-width="0.5"/><ellipse cx="236.05" cy="243.18" rx="0.13" ry="0.06" transform="translate(-79.69 366.33) rotate(-67.16)" fill="#fff"/><ellipse cx="231.14" cy="240.64" rx="0.13" ry="0.06" transform="translate(-80.35 360.25) rotate(-67.16)" fill="#fff"/></g><path d="M216.61,264.74a9.83,9.83,0,0,0,1.5.42c-6.83-3.86-8.88-15.86-4.48-27.94s13.69-20,21.39-18.5a10.57,10.57,0,0,0-1.41-.65c-8-2.9-18.22,5.2-22.92,18.09S208.65,261.84,216.61,264.74Z" fill="#f48225" data-secondary="true"/><path d="M216.61,264.74a9.83,9.83,0,0,0,1.5.42c-6.83-3.86-8.88-15.86-4.48-27.94s13.69-20,21.39-18.5a10.57,10.57,0,0,0-1.41-.65c-8-2.9-18.22,5.2-22.92,18.09S208.65,261.84,216.61,264.74Z" opacity="0.2"/><path d="M397.69,367.89s-7.67,2-13.35,0c0,0-3-6.34-5.67-6.34,0,0-6-3-8.67-8,0,0-1.67,2.66,3,9.67l2.67,5.34s-6.67.67-10.35,2c0,0-9.67-7.67-12.67-23.35,0,0-4.68,8,7,23.35,0,0-1.67.67-5-.33L350,363.56l1,5.33-3.34-1.66s-2.33-9.68-2-12.68c0,0-2.34,3.67-.33,11.67l-7.34-3-.67-8.34-1,8.34-18-3.67s-15.38-36.44-11.86-52.92L322.25,257l60.09,88.21Z" fill="#1d0031"/><path d="M397.69,367.89s-7.67,2-13.35,0c0,0-3-6.34-5.67-6.34,0,0-6-3-8.67-8,0,0-1.67,2.66,3,9.67l2.67,5.34s-6.67.67-10.35,2c0,0-9.67-7.67-12.67-23.35,0,0-4.68,8,7,23.35,0,0-1.67.67-5-.33L350,363.56l1,5.33-3.34-1.66s-2.33-9.68-2-12.68c0,0-2.34,3.67-.33,11.67l-7.34-3-.67-8.34-1,8.34-18-3.67s-15.38-36.44-11.86-52.92L322.25,257l60.09,88.21Z" opacity="0.2"/><path d="M207.17,270.47l-4.7,5.58a2.52,2.52,0,0,0-.59,1.73l.32,6c1.06,4.53,2.13,0,2.13,0,4.53,4,3.46-2.39,3.46-2.39,6,4.53,3.46-5.07,3.46-5.07a14,14,0,0,1,.93-10.09c-1.71-2.37-3.72-4-4.79-3.48-1.84.82-.22,7.77-.22,7.77l-4.8,5.7a2.33,2.33,0,0,0-.56,1.47c-.37,16.86,8,17.18,8,17.18-8,18.35-11.34,40.71-11.34,40.71-4.34,17.68,1.11,17.35,1.11,17.35,6.23,6.23,48.49-8.45,48.49-8.45l56.17,10.78c-5,12.68,4,16,4,16,.85,7.06,4.31,21.92,6.69,31.69a53.8,53.8,0,0,1,1.52,14C316,435.16,337.63,477,337.63,477c1.14,3.86,2.74,8,3.64,10.3a18.56,18.56,0,0,0,1.43,2.81c2,3.3,1.76,5.79,1.29,7.21a1.08,1.08,0,0,0,1.27,1.4c3.73-.92,2.71-8,2.71-8l5.68,3.34c9.67,6.33,13.68,7,15,7,13.68,3.34,4-2.67,4-2.67,7,3,7-.33,7-.33-3-.33-10.67-5.34-10.67-5.34l-25.36-20.35L331.29,412.6V345.87c1-18-16.35-17.35-16.35-17.35-7-12.68,5.34-23,5.34-23l-16.6-1S293,320,283.7,315.7c0,0-16.24-9.59-32.49.79,0,0-28,17.85-36.49,18.38L219,293.06s7.19-5.86,5.06-12.26l-1.88-6a6.37,6.37,0,0,0-2.83-3.56,17.37,17.37,0,0,1-5.15-4.53s-2.93,1.33,0,6.12l-8.79,19.36s3.05-3.35.61-8.92" fill="#fccdc3"/><path id="a524d4eb-86d2-4799-814f-7500f2728ae7" data-name="SVGID" d="M331.17,341.41a16.47,16.47,0,0,0-3.11-7.3,7.23,7.23,0,0,0-7.91-2.59c-2.74.92-6.29,3.35-9.49,9.38l-6.39,14.31s-4.8,11,4,16c0,0-11.2,18.89-17.61,23.51,0,0-5.13,4.87-2.31,5.9,0,0,2,1.79-1.28,4.1,0,0-3.33,2.31-.51,5.38,0,0,2.25,4.5.17,6.92a5.25,5.25,0,0,0-1.37,4.25,8.06,8.06,0,0,0,3.25,5s19.23,23.85,10.25,49.49a104.12,104.12,0,0,0-5.38,49.74s3.59,43.07,21.28,74.87c0,0,29.21,57.14,41.89,77.82l24,39.38s5,7,20.36,17.68c0,0,11,6.67.66,13a27.79,27.79,0,0,0-9.34,10.35s-4.67,4.67-15.68,4.67c0,0-53.05,2-54.72,2s-25,3.67-49.72-3.67c-1.66-.34-16.34-3.67-29.36-4-1.67.67-28.69-3-28-9.34,0,0,1-4.67,13.68-7.67,0,0,4.33-9.68,11-13.68,0,0-.34-3.67,6-14.68l7.34-13s5-8,5.67-28l1.34-36,2-1.67.67-12s-3,0,.33-6.34v-8s-5.34-5.34-4-15.69c0,0-11.35-29.69-17-41,0,0-42.71-82.74-25.36-114.77,0,0,4-15.35,32.7-62.73l1-9.34s-14.68-22,14.35-36.37c0,0,28.49,13.33,37.81,7.36a32.54,32.54,0,0,1,4-2.29l7.77-3.53a14.51,14.51,0,0,1,12.27,0C330.22,330.53,333.11,334.82,331.17,341.41Z" fill="#686175" data-primary="true"/><g clip-path="url(#b066b314-9714-4778-ad3e-e9009e9d8136)"><path d="M263,610.18s25.19,77.25,57.22,99.71c0,0-36.92-25.69-57.61-88.42,0,0-3.84.34.33-6.34Z" opacity="0.2"/><path d="M282.91,676.86s-19.68-18-21.35-45.38l1-4A109.4,109.4,0,0,0,282.91,676.86Z" opacity="0.2"/><path d="M258.55,653.17s-2.33,47.38-12,56.72c0,0,50,50.38,91.09,34.37C337.63,744.26,261.22,741.92,258.55,653.17Z" opacity="0.2"/></g><path d="M308.27,371.23l-2.84-18.69S298.09,365.39,308.27,371.23Z" fill="#fc9189"/><path d="M319,307.05a10.39,10.39,0,0,0-3.34,4.07s-9.85-1.75-12-6.61Z" fill="#fc9189"/><ellipse cx="318.39" cy="280.76" rx="28.51" ry="22.14" transform="translate(-70.11 451.83) rotate(-65.17)" fill="#fccdc3"/><path d="M322.25,257s-1.47,17.15,4,23.32c0,0,5.34,18.52,13,24.52,0,0,2.67,9.68,8,9.68,0,0,11,5.34,15.35,15,0,0,6.67,15.68,15.34,17.35,0,0,5.11,2.05,7.06,9.49a15.79,15.79,0,0,0,4.84,8.06c3.16,2.73,7.6,5.14,11.6,2.2a.52.52,0,0,0-.2-.92c-3.2-.79-12.56-4.74-12.29-23.83,0,0,.67-8-9-14,0,0-13.68-7-14.35-27.36,0,0,5-54.38-37.37-53.05,0,0-10-6.67-22.36,2.67,0,0-8.94,5-7.64,21.35C298.29,271.46,306.21,256.87,322.25,257Z" fill="#1d0031"/><path d="M308.57,282.85l-.79,4.38c-.13.7-.68,1.26-1.1,1.1l-2-.76c-.47-.17-.47-1.11,0-1.72l2.82-3.62C308,281.5,308.74,281.89,308.57,282.85Z" fill="#fc9189"/><path d="M320.75,279.45a5.33,5.33,0,0,0-1.87-3.49,5,5,0,0,0-3.63-1,.66.66,0,0,0-.56.64h0a.66.66,0,0,0,.71.65A5.45,5.45,0,0,1,320.75,279.45Z"/><path d="M299.76,270.35a5.33,5.33,0,0,1,3.89-.78,5,5,0,0,1,3.08,2.16.66.66,0,0,1-.14.84h0a.65.65,0,0,1-.95-.13A5.46,5.46,0,0,0,299.76,270.35Z"/><ellipse cx="316.06" cy="280.92" rx="2.56" ry="1.45" transform="translate(-57.59 478.9) rotate(-69.55)"/><ellipse cx="301.53" cy="275.51" rx="2.56" ry="1.45" transform="translate(-61.97 461.76) rotate(-69.55)"/><path d="M306.64,294.18s-4.78,2.19-7.75-3.62" fill="none" stroke="#fc9189" stroke-linecap="round" stroke-linejoin="round"/><ellipse cx="316.06" cy="280.92" rx="0.48" ry="0.28" transform="translate(-71.61 449.81) rotate(-65.17)" fill="#fff"/><ellipse cx="301.53" cy="275.51" rx="0.48" ry="0.28" transform="translate(-61.97 461.76) rotate(-69.55)" fill="#fff"/></g><polygon points="173.64 221.5 177.7 279.71 412.27 456.59 411.68 451.36 407.87 398.39 407.87 398.38 173.64 221.5" fill="#d7f9ff" opacity="0.4" style="mix-blend-mode:screen"/><polygon points="184.03 370.16 188.92 443.43 191.99 489.13 192.52 497.12 402.35 655.39 402.53 655.53 425.75 655.53 418.6 547.11 418.6 547.04 184.03 370.16" fill="#d7f9ff" opacity="0.4" style="mix-blend-mode:screen"/><path d="M711.08,63.69h6.09a0,0,0,0,1,0,0v41.73a2.82,2.82,0,0,1-2.82,2.82h-.44a2.82,2.82,0,0,1-2.82-2.82V63.69a0,0,0,0,1,0,0Z" transform="translate(30.23 308.8) rotate(-24.91)" fill="#f48225" data-secondary="true"/><path d="M703.94,71h0a10.22,10.22,0,0,1-1.71.79c-9.56,3.48-21.9-6.25-27.54-21.75s-2.46-30.87,7.11-34.36a13,13,0,0,1,1.83-.5c9.25-1.75,20.42,7.72,25.7,22.25S712.15,66.4,703.94,71Z" fill="#f48225" data-secondary="true"/><path id="e0fd6b10-0190-4937-b25b-acc93ee88e58" data-name="SVGID" d="M703.08,69.07h0a9.57,9.57,0,0,1-1.59.73C692.61,73,681.16,64,675.92,49.62S673.64,21,682.53,17.73a10.07,10.07,0,0,1,1.69-.46c8.59-1.63,19,7.15,23.86,20.64S710.7,64.77,703.08,69.07Z" fill="#fff"/><g clip-path="url(#ec20c8ba-38a0-45e7-97e6-eb68b2fe6afc)"><path d="M738.88,40.81A11.41,11.41,0,0,1,735.07,45s-2.85-.87-3.61,0a9.52,9.52,0,0,1-5,.44s.36,1.28,3.89,1.82l2.44.69a23.63,23.63,0,0,0-2.33,3.81,17.34,17.34,0,0,1-11-2.69s1.18,3.75,9.33,4.47A3.51,3.51,0,0,1,727.31,55l-3.42-.44,2,1.21-1.48.57a28.18,28.18,0,0,1-4.55-3s.48,1.78,3.57,3.44l-3,1.45L717.54,56l2.33,2.7-6.3,4.61s-15.83-5.59-20-11.41L682.53,32.78l44.85,6.36Z" fill="#1d0031"/><path d="M738.88,40.81A11.41,11.41,0,0,1,735.07,45s-2.85-.87-3.61,0a9.52,9.52,0,0,1-5,.44s.36,1.28,3.89,1.82l2.44.69a23.63,23.63,0,0,0-2.33,3.81,17.34,17.34,0,0,1-11-2.69s1.18,3.75,9.33,4.47A3.51,3.51,0,0,1,727.31,55l-3.42-.44,2,1.21-1.48.57a28.18,28.18,0,0,1-4.55-3s.48,1.78,3.57,3.44l-3,1.45L717.54,56l2.33,2.7-6.3,4.61s-15.83-5.59-20-11.41L682.53,32.78l44.85,6.36Z" opacity="0.2"/><path d="M653.87,72.73l.41,3.08a1,1,0,0,0,.38.67l2,1.61c1.73,1,.61-.67.61-.67,2.55-.28.24-1.77.24-1.77,3.12-.58-.6-2.54-.6-2.54A5.86,5.86,0,0,1,655,71.68a6,6,0,0,1-1-1.74c-1.24-.14-2.31,0-2.46.5-.27.82,2.37,2.29,2.37,2.29l.42,3.14a1,1,0,0,0,.3.6c5.18,4.93,7.68,2.39,7.68,2.39a79.93,79.93,0,0,0,9.53,15.19c4.31,6.41,5.76,4.61,5.76,4.61C681.3,98.48,688.77,81,688.77,81l19.44-14.54c2.54,5.2,6.16,3.32,6.16,3.32,2.46,1.75,8.11,4.92,11.86,7A22.78,22.78,0,0,1,731,80.29C736.65,85.65,756,90.83,756,90.83c1.53.75,3.3,1.44,4.27,1.8a8.23,8.23,0,0,0,1.29.36,3.6,3.6,0,0,1,2.63,1.65.45.45,0,0,0,.8,0c.78-1.43-1.74-3.15-1.74-3.15l2.66-.82c4.76-1.23,6.11-2.29,6.49-2.71,5-3.34.31-2,.31-2,2.94-1.34,1.9-2.29,1.9-2.29-1,.84-4.73,1.82-4.73,1.82L756.2,87.61,733.93,74.42,713,55.34c-5.37-5.46-10.12.18-10.12.18-6-1.43-5.69-8.26-5.69-8.26l-5.06,4.93s1.8,7.75-2.2,9.46c0,0-7.65,2.36-9,10.42,0,0-2.4,13.88-4.67,16.7l-11.9-13.28s.22-3.94-2.4-5.09l-2.42-1.13a2.69,2.69,0,0,0-1.93-.14,7.12,7.12,0,0,1-2.89.32s-.42,1.3,1.92,1.75q1.78,4.15,3.56,8.29a3.53,3.53,0,0,0-2.62-2.74" fill="#fccdc3"/><path id="bbc3ac12-e63b-4ace-92b5-f72261012aac" data-name="SVGID" d="M711.56,54.11A6.93,6.93,0,0,0,708.38,53a3.06,3.06,0,0,0-3.07,1.74c-.49,1.12-.74,2.93.23,5.66l2.67,6.09s2.07,4.64,6.16,3.32c0,0,2.73,8.92,2.35,12.25,0,0,.06,3,1.19,2.41,0,0,1.15-.13.92,1.57a1.45,1.45,0,0,0,1.54,1.7s2,.58,2.22,1.92a2.23,2.23,0,0,0,.94,1.65,3.44,3.44,0,0,0,2.49.4s13,.79,18.46,10.93a44.25,44.25,0,0,0,14.06,15.9s14.54,11.19,29.57,14.72c0,0,26.28,7.17,36.39,9.1l19.22,3.72s3.63.43,11.36-1.33c0,0,5.24-1.55,4.28,3.51a11.71,11.71,0,0,0,.57,5.88s.13,2.8-3,6.26c0,0-14.53,17.21-15,17.74s-6,8.9-15.35,14.54a73.76,73.76,0,0,0-9.65,8.07c-.27.71-9.14,8.14-10.94,6.12,0,0-1.18-1.65,1.5-6.48,0,0-1.8-4.13-1.15-7.37,0,0-1.24-.94-2.88-6.08l-2-6s-1.08-3.86-7.17-9.79l-10.92-10.71,0-1.11-3.57-3.64s-.86.94-1.9-1.92l-2.51-2.28s-3.2.14-6.06-3.23c0,0-12.56-4.93-17.74-6.39,0,0-38.17-10.25-43.26-24.85,0,0-3.67-5.64-10.33-28.18l-2.64-3s-11.11-1.68-7.31-14.89c0,0,12.32-5.13,13.11-9.76a13.88,13.88,0,0,1,.43-1.91l1.11-3.45a6.18,6.18,0,0,1,3.5-3.86C707.88,51.3,710.05,51.61,711.56,54.11Z" fill="#686175" data-primary="true"/><g clip-path="url(#f4e647b1-92cb-4108-8516-13755dc4967b)"><path d="M776.39,152.32s31.43,14.17,47.63,10.55c0,0-18.61,4.24-44.2-7.2,0,0-1,1.3-1.9-1.92Z" opacity="0.2"/><path d="M803,165.11s-11.28,1-20.34-6.27l-1-1.45A46.37,46.37,0,0,0,803,165.11Z" opacity="0.2"/><path d="M788.62,166s14.19,14.28,14.36,20c0,0,30.11-1.3,36.81-18.75C839.79,167.21,817.22,190.51,788.62,166Z" opacity="0.2"/><path d="M806.31,193s9,1.29,21.7-7.62c0,0-12.23,10.69-21.87,10.34C806.14,195.74,805.54,193.66,806.31,193Z" opacity="0.2"/></g><path d="M714.37,69.81l-6.67-4.45S709.63,71.34,714.37,69.81Z" fill="#fc9189"/><path d="M697.31,48.11a4.38,4.38,0,0,0,.32,2.21s-3.37,2.59-5.5,1.87Z" fill="#fc9189"/><ellipse cx="688.88" cy="40.78" rx="9.4" ry="12.1" transform="translate(38.18 270.59) rotate(-22.84)" fill="#fccdc3"/><path d="M682.53,32.78s5,5.36,8.47,5.4c0,0,7.33,3.61,11.41,2.92,0,0,3.8,1.93,5.33.26,0,0,4.82-1.93,9.09-.53,0,0,6.83,2.39,9.83.15a5.8,5.8,0,0,1,5,.49,6.8,6.8,0,0,0,3.92.79c1.75-.21,3.78-.92,4-3a.22.22,0,0,0-.34-.2c-1.17.78-5.08,2.59-11-3,0,0-2.32-2.5-7-1.18,0,0-6.11,2.29-12.69-3.32,0,0-15.63-17.11-27.32-3.43,0,0-5,1.23-5.55,7.77,0,0-1,4.24,4.51,8.5C680.22,44.43,677.91,37.78,682.53,32.78Z" fill="#1d0031"/><path d="M686.73,44.46l1.15,1.5c.19.24.2.58,0,.66l-.82.42c-.19.1-.48-.17-.54-.49l-.33-1.92C686.16,44.24,686.48,44.13,686.73,44.46Z" fill="#fc9189"/><path d="M689.15,39.67a2.23,2.23,0,0,0-1.63-.41,2.06,2.06,0,0,0-1.35.85.28.28,0,0,0,0,.36h0a.28.28,0,0,0,.41,0A2.3,2.3,0,0,1,689.15,39.67Z"/><path d="M680.29,43.65a2.29,2.29,0,0,1,.87-1.44,2.12,2.12,0,0,1,1.56-.35.27.27,0,0,1,.22.29h0a.28.28,0,0,1-.31.26A2.31,2.31,0,0,0,680.29,43.65Z"/><ellipse cx="688.27" cy="41.56" rx="0.62" ry="1.09" transform="translate(57.19 319.38) rotate(-27.22)"/><ellipse cx="682.42" cy="44.57" rx="0.62" ry="1.09" transform="translate(55.17 317.04) rotate(-27.22)"/><path d="M689.74,48.31s-.68,2.12-3.35,1.39" fill="none" stroke="#fc9189" stroke-linecap="round" stroke-linejoin="round" stroke-width="0.5"/><ellipse cx="682.37" cy="44.62" rx="0.08" ry="0.15" transform="translate(36.18 268.37) rotate(-22.84)" fill="#fff"/><ellipse cx="688.27" cy="41.56" rx="0.08" ry="0.15" transform="translate(37.83 270.42) rotate(-22.84)" fill="#fff"/></g><path d="M705.74,70.54a12.61,12.61,0,0,1-1.8.49c8.21-4.63,10.67-19.06,5.38-33.57s-16.45-24-25.7-22.25a12.31,12.31,0,0,1,1.69-.77c9.56-3.49,21.9,6.25,27.54,21.74S715.31,67.05,705.74,70.54Z" fill="#f48225" data-secondary="true"/><path d="M705.74,70.54a12.61,12.61,0,0,1-1.8.49c8.21-4.63,10.67-19.06,5.38-33.57s-16.45-24-25.7-22.25a12.31,12.31,0,0,1,1.69-.77c9.56-3.49,21.9,6.25,27.54,21.74S715.31,67.05,705.74,70.54Z" opacity="0.2"/><path d="M488.08,194.52s9.23,2.41,16,0c0,0,3.61-7.62,6.82-7.62,0,0,7.22-3.61,10.43-9.62,0,0,2,3.21-3.61,11.63l-3.21,6.42s8,.8,12.43,2.4c0,0,11.64-9.22,15.24-28.07,0,0,5.62,9.62-8.42,28.07,0,0,2,.8,6-.4l5.61-8-1.2,6.42,4-2s2.81-11.63,2.41-15.24c0,0,2.8,4.41.4,14l8.82-3.61.8-10,1.21,10,21.65-4.41s18.49-43.8,14.26-63.61l-19-59.67-72.23,106Z" fill="#1d0031"/><path d="M488.08,194.52s9.23,2.41,16,0c0,0,3.61-7.62,6.82-7.62,0,0,7.22-3.61,10.43-9.62,0,0,2,3.21-3.61,11.63l-3.21,6.42s8,.8,12.43,2.4c0,0,11.64-9.22,15.24-28.07,0,0,5.62,9.62-8.42,28.07,0,0,2,.8,6-.4l5.61-8-1.2,6.42,4-2s2.81-11.63,2.41-15.24c0,0,2.8,4.41.4,14l8.82-3.61.8-10,1.21,10,21.65-4.41s18.49-43.8,14.26-63.61l-19-59.67-72.23,106Z" opacity="0.2"/><path d="M717.08,77.42l5.66,6.71a3,3,0,0,1,.7,2.08l-.38,7.15c-1.28,5.45-2.56,0-2.56,0-5.44,4.81-4.16-2.88-4.16-2.88-7.16,5.45-4.16-6.08-4.16-6.08a16.88,16.88,0,0,0-1.11-12.14c2-2.84,4.46-4.75,5.75-4.18,2.21,1,.26,9.34.26,9.34l5.78,6.85a2.87,2.87,0,0,1,.67,1.77c.44,20.26-9.65,20.65-9.65,20.65,9.62,22.06,13.63,48.93,13.63,48.93,5.21,21.26-1.34,20.86-1.34,20.86-7.48,7.48-58.28-10.16-58.28-10.16l-67.51,13c6,15.24-4.82,19.25-4.82,19.25-1,8.48-5.18,26.35-8,38.09a64.15,64.15,0,0,0-1.83,16.79c.55,22-25.43,72.26-25.43,72.26-1.36,4.64-3.29,9.65-4.37,12.38a22.75,22.75,0,0,1-1.72,3.37c-2.4,4-2.12,7-1.55,8.68a1.29,1.29,0,0,1-1.52,1.67c-4.49-1.11-3.27-9.66-3.27-9.66l-6.82,4c-11.63,7.62-16.44,8.42-18,8.42-16.44,4-4.81-3.21-4.81-3.21-8.42,3.61-8.42-.4-8.42-.4,3.61-.4,12.83-6.41,12.83-6.41l30.48-24.47,14.84-71.79V168.05c-1.2-21.65,19.65-20.85,19.65-20.85,8.43-15.24-6.41-27.67-6.41-27.67l20-1.19s12.81,18.56,24,13.44c0,0,19.53-11.52,39.06,1,0,0,33.62,21.45,43.86,22.09l-5.12-50.26s-8.64-7-6.08-14.73l2.26-7.23a7.67,7.67,0,0,1,3.4-4.29,20.54,20.54,0,0,0,6.18-5.45s3.53,1.6,0,7.37q5.29,11.63,10.57,23.27s-3.66-4-.73-10.72" fill="#fccdc3"/><path id="b499548e-f715-40dd-bfc2-f03fc1dbb46c" data-name="SVGID" d="M568,162.69a19.87,19.87,0,0,1,3.74-8.78,8.69,8.69,0,0,1,9.5-3.11c3.3,1.11,7.56,4,11.41,11.27l7.69,17.21s5.76,13.19-4.82,19.25c0,0,13.47,22.71,21.17,28.26,0,0,6.17,5.86,2.78,7.09,0,0-2.47,2.16,1.54,4.93,0,0,4,2.77.61,6.47,0,0-2.7,5.41-.21,8.32a6.32,6.32,0,0,1,1.66,5.11,9.81,9.81,0,0,1-3.91,6s-23.12,28.66-12.33,59.48c0,0,11.1,26.5,6.47,59.78,0,0-4.31,51.78-25.58,90,0,0-35.11,68.69-50.35,93.55l-28.87,47.33s-6,8.42-24.47,21.25c0,0-13.23,8-.8,15.64a33.34,33.34,0,0,1,11.23,12.44s5.61,5.61,18.85,5.61c0,0,63.77,2.41,65.77,2.41s30.08,4.41,59.76-4.41c2-.41,19.65-4.42,35.29-4.82,2,.81,34.49-3.61,33.69-11.23,0,0-1.2-5.61-16.44-9.22,0,0-5.22-11.63-13.24-16.44,0,0,.4-4.42-7.22-17.65l-8.82-15.64s-6-9.63-6.82-33.69l-1.6-43.31-2.41-2-.8-14.44s3.61,0-.4-7.62v-9.62s6.41-6.42,4.81-18.85c0,0,13.64-35.7,20.45-49.33,0,0,51.34-99.46,30.48-138,0,0-4.81-18.45-39.3-75.4l-1.2-11.23S683,162.84,648.1,145.59c0,0-34.24,16-45.44,8.86a38,38,0,0,0-4.84-2.76l-9.33-4.24a17.41,17.41,0,0,0-14.75,0C569.18,149.62,565.71,154.77,568,162.69Z" fill="#686175" data-primary="true"/><g clip-path="url(#b8109199-3ff3-45ce-92df-d1d4cd67e83c)"><path d="M650,485.75S619.76,578.6,581.26,605.6c0,0,44.38-30.88,69.25-106.28,0,0,4.61.4-.4-7.62Z" opacity="0.2"/><path d="M626,565.9s23.67-21.66,25.67-54.55l-1.2-4.81S647.3,537.82,626,565.9Z" opacity="0.2"/><path d="M655.32,537.42s2.81,57,14.44,68.18c0,0-60.16,60.56-109.49,41.31C560.27,646.91,652.11,644.1,655.32,537.42Z" opacity="0.2"/><path d="M678.18,626.06s-14.44,21.25-57.35,30.88c0,0,45.72-5.22,63.37-26.07C684.2,630.87,681,625.66,678.18,626.06Z" opacity="0.2"/></g><path d="M595.56,198.53,599,176.07S607.8,191.52,595.56,198.53Z" fill="#fc9189"/><path d="M582.68,121.4a12.42,12.42,0,0,1,4,4.88s11.85-2.1,14.39-7.94Z" fill="#fc9189"/><ellipse cx="583.4" cy="89.79" rx="26.61" ry="34.27" transform="translate(16.22 253.27) rotate(-24.83)" fill="#fccdc3"/><path d="M578.76,61.22s1.77,20.61-4.85,28c0,0-6.42,22.25-15.64,29.47,0,0-3.21,11.63-9.63,11.63,0,0-13.23,6.42-18.45,18.05,0,0-8,18.85-18.45,20.86,0,0-6.14,2.45-8.48,11.4a19,19,0,0,1-5.81,9.69c-3.8,3.28-9.14,6.18-13.95,2.64a.62.62,0,0,1,.24-1.1c3.85-.95,15.1-5.7,14.77-28.65,0,0-.8-9.62,10.83-16.84,0,0,16.44-8.43,17.24-32.89,0,0-6-65.37,44.92-63.77,0,0,12-8,26.87,3.21,0,0,10.75,6,9.19,25.66C607.56,78.61,598,61.07,578.76,61.22Z" fill="#1d0031"/><path d="M595.21,92.3l.94,5.26c.16.85.82,1.52,1.33,1.33l2.45-.91c.57-.21.56-1.34,0-2.07l-3.39-4.36C595.84,90.68,595,91.15,595.21,92.3Z" fill="#fc9189"/><path d="M580.56,88.21A6.43,6.43,0,0,1,582.81,84a6,6,0,0,1,4.37-1.2.77.77,0,0,1,.66.77h0a.78.78,0,0,1-.84.78A6.55,6.55,0,0,0,580.56,88.21Z"/><path d="M605.79,77.28a6.43,6.43,0,0,0-4.67-.94,6,6,0,0,0-3.71,2.6.79.79,0,0,0,.18,1h0a.78.78,0,0,0,1.14-.16C599.57,78.6,601.68,76.47,605.79,77.28Z"/><ellipse cx="586.2" cy="89.99" rx="1.75" ry="3.08" transform="translate(5.51 210.5) rotate(-20.45)"/><ellipse cx="603.67" cy="83.47" rx="1.75" ry="3.08" transform="translate(8.88 216.19) rotate(-20.45)"/><path d="M597.53,105.93s5.74,2.62,9.31-4.36" fill="none" stroke="#fc9189" stroke-linecap="round" stroke-linejoin="round"/><ellipse cx="586.2" cy="89.99" rx="0.34" ry="0.58" transform="translate(16.4 254.46) rotate(-24.83)" fill="#fff"/><ellipse cx="603.67" cy="83.47" rx="0.34" ry="0.58" transform="translate(8.88 216.19) rotate(-20.45)" fill="#fff"/></g></g></svg>