<svg xmlns="http://www.w3.org/2000/svg" width="865.76" height="682.89" viewBox="0 0 865.76 682.89"><path d="M361.08,112.49C314,144.55,124.13,80,116.53,305s284,272.7,353.1,279.23S676.92,423.71,692.11,291.58,603.73-52.63,361.08,112.49Z" fill="#e4e1f5"/><path d="M200.38,111c-1.22.83-6.13-.84-6.33,5s7.36,7.06,9.14,7.23,5.37-4.16,5.77-7.58S206.67,106.7,200.38,111Z" fill="#e4e1f5"/><path d="M232.88,125.69c-1.42.41-5.58-2.7-7.57,2.78s4.82,9,6.47,9.71,6.39-2.3,7.82-5.43S240.18,123.56,232.88,125.69Z" fill="#e4e1f5"/><path d="M185.85,510.4c-1.22.83-6.14-.85-6.34,5s7.36,7.06,9.15,7.23,5.37-4.15,5.76-7.58S192.13,506.12,185.85,510.4Z" fill="#e4e1f5"/><path d="M692.43,404.62c-1.22.83-6.14-.84-6.34,5s7.36,7.06,9.15,7.23,5.37-4.16,5.76-7.58S698.71,400.34,692.43,404.62Z" fill="#e4e1f5"/><path d="M656.56,404.86c-1.45.27-5.28-3.24-7.8,2s3.9,9.42,5.47,10.3,6.59-1.65,8.32-4.63S664,403.47,656.56,404.86Z" fill="#e4e1f5"/><path d="M493.44,540.33c-1.22.83-6.13-.85-6.33,5s7.35,7.06,9.14,7.23,5.37-4.15,5.77-7.58S499.73,536.05,493.44,540.33Z" fill="#fff"/><path d="M194.83,445.38c-1.46.21-5.13-3.46-7.88,1.68s3.49,9.59,5,10.53,6.65-1.37,8.51-4.27S202.36,444.31,194.83,445.38Z" fill="#fff"/><path d="M267.93,141.13c-1.46.21-5.14-3.46-7.89,1.68s3.49,9.58,5,10.52,6.66-1.36,8.52-4.26S275.45,140.06,267.93,141.13Z" fill="#fff"/><path d="M310.77,100.72c-1.95.34-7-4.43-10.5,2.58s5.07,12.71,7.16,13.91,8.87-2.1,11.25-6.06S320.83,99,310.77,100.72Z" fill="#e4e1f5"/><path d="M639.26,479.46c-1.86.33-6.7-4.22-10,2.46s4.83,12.13,6.83,13.27,8.45-2,10.72-5.78S648.85,477.81,639.26,479.46Z" fill="#e4e1f5"/><path d="M131.71,462.49c-1.38,1.18-7.61-.18-7.05,7s10,7.61,12.17,7.57,6-5.82,6-10S138.79,456.4,131.71,462.49Z" fill="#e4e1f5"/><path d="M168.4,427.89c-1.38,1.18-7.62-.18-7.05,7s10,7.6,12.17,7.56,6-5.82,6-10.05S175.48,421.8,168.4,427.89Z" fill="#fff"/><path d="M624,92.22c-1.68.68-7.16-2.58-8.88,4.38s7,10.36,9.16,11,7.51-3.63,8.85-7.65S632.68,88.67,624,92.22Z" fill="#fff"/><path d="M611.14,125.72c-1.37,1.19-7.61-.18-7,7s10,7.61,12.17,7.56,6-5.82,6-10.05S618.23,119.63,611.14,125.72Z" fill="#fff"/><ellipse cx="395.48" cy="631.52" rx="172.68" ry="14.62" fill="#e4e1f5"/><path d="M341.27,625.18s-3.76,10.09.7,13.38l21.94.63a7.8,7.8,0,0,0,4.13-1.12c1.73-1,5.12-1.81,10.56,1.66,0,0,52.35,10.33,47.19-5.16Z" fill="#2c2e63"/><path d="M393.86,591.37s16.9,22.54,33.34,23.48c0,0,15.32.95,13.79,9.12a6.7,6.7,0,0,1-2.86,4.24A20.91,20.91,0,0,1,425.79,632l-25.47-7a36,36,0,0,1-16.72-9.91c-4.17-4.44-7.3-10.18-4.06-16,0,0,8.84,1.33,12.28.54Z" fill="#f48225" data-secondary="true"/><path d="M393.86,591.37s16.9,22.54,33.34,23.48c0,0,15.07.94,13.83,8.92a6.94,6.94,0,0,1-3.07,4.56A21,21,0,0,1,425.79,632l-25.47-7a36,36,0,0,1-16.72-9.91c-4.17-4.44-7.3-10.18-4.06-16,0,0,8.84,1.33,12.28.54Z" opacity="0.2" style="isolation:isolate"/><path d="M415.93,627.29c7.39-1,14.91-2.09,21.77-5.13,1-.39,1.91-1,2.88-1.44-6.85,5.39-16.14,6.83-24.65,6.57Z" fill="#2c2e63"/><path d="M510.2,340.87s23.86-1.52,33.71-13.26c0,0-1.16,4.64,5.14,6.31a20.6,20.6,0,0,1,8,4c3,2.48,6.17,5.89,6.17,9,0,0-28,1.89-52.64,26.13l-5.31,5.31-1.13-3s3.41.75,5.3-17Z" fill="#ffc596"/><path d="M463.23,402.61s33.33,66.28,32.19,91.66c0,0,2.71,1.87,7.2,5.3,0,0,19.33,3.38,15.15-15.91a93.83,93.83,0,0,1-9.85-32.57s-5.68-43.18-20.83-57.57C487.09,393.52,471.94,401.09,463.23,402.61Z" fill="#ffc596"/><path d="M325.77,159.53s-.94,17.21,1.25,27.23c0,0-12.21-5.32-24.73-2.5l-3.44-14.09a39.87,39.87,0,0,1-4.7-10.64S312,168.6,325.77,159.53Z" fill="#ffc596"/><path d="M302.29,184.26s-27.86,8.76-9.39,52.59a220.14,220.14,0,0,0,21,34.43s11,15.34,6.88,24.11c0,0-.62,6.57,8.14,19.09,0,0,6.26,39.13,13.15,49.15,0,0,16.28-.63,31-10,0,0,20-11.89,31.93-10,0,0-2.19-27.39-7.82-43.82,0,0-3.07-8.44-4-22.55a9.62,9.62,0,0,0-3.12-6.53c-3.85-3.46-10.73-13.83-18.7-41.36,0,0,5.32-19.4-44.3-42.57A46.34,46.34,0,0,0,302.29,184.26Z" fill="#f48225" data-secondary="true"/><path d="M352.38,246.55s6.89,24.11-12.21,58.23" fill="none" stroke="#000" stroke-miterlimit="10" opacity="0.2" style="isolation:isolate"/><path d="M345.49,363s-1.88,12.84,13.15,28.18c0,0,9.39,5,11.27,50.08l-1,20.86a41.45,41.45,0,0,1-4.76,17.06,28.73,28.73,0,0,0-3,11.23l-12.21,99.24,21.75,7.43a40,40,0,0,0,6.74,1.68c4.16.67,10.73,1.51,14.39.9,0,0,19.18-67.22,32.56-163.72,0,0,14.71-67-19.41-92.35,0,0-9.08-2.81-31.93,10C373,353.61,359,362.69,345.49,363Z" fill="#2c2e63"/><path d="M351.13,590.19s1.41,15.5-4.93,25.36c0,0-11.51,13.15,1.64,14.56a169.11,169.11,0,0,1,35.45,4s29.12,6.81,42.5.47c0,0,2.82-4.93-9.86-7.28,0,0-40.62-14.56-36.39-28.17l-2.52-.44a41.35,41.35,0,0,1-6.56-1.71Z" fill="#f48225" data-secondary="true"/><path d="M393.86,598.41A93,93,0,0,1,405,607.84l2.58,2.57a27.47,27.47,0,0,0,2.42,2.41,3.76,3.76,0,0,0,3,.45,2.89,2.89,0,0,0,2-2.44c.57,4.18-5,4.92-7.37,2.15a104.21,104.21,0,0,1-13.76-14.57Z" opacity="0.2" style="isolation:isolate"/><path d="M376,598.65s-4,11.27,11.74,22.07c0,0,11.74,8.68,15,.94" fill="none" stroke="#000" stroke-miterlimit="10" opacity="0.2" style="isolation:isolate"/><path d="M364.15,479.18s1-3.44,5.42-6.23a30.81,30.81,0,0,0,9-8.58,25.32,25.32,0,0,0,4-8.24" fill="none" stroke="#000" stroke-miterlimit="10" opacity="0.2" style="isolation:isolate"/><path d="M376,479.14s23-8.92,33.34-21.13" fill="none" stroke="#000" stroke-miterlimit="10" opacity="0.2" style="isolation:isolate"/><path d="M370.38,394.15s7-7,16.43-21.13" fill="none" stroke="#000" stroke-miterlimit="10" opacity="0.2" style="isolation:isolate"/><path d="M405.28,400s-3.65-31.28-.31-56.36c0,0-3.48-32.27-8.4-45.9,0,0-3.83-10.64-3.43-20.47,0,0,.56-3.22-3.12-6.53,0,0-2.92,1.62-14.66-27.54,0,0-3.41-11.37-4.17-18.94,0,0,3-7.2-8.33-31.44,0,0-8-39-1.9-54.54,0,0,11.37-50,37.12-33.33,0,0,20.46,9.47,19.32,52.65,0,0-4.54,33.71,9.85,48.48,0,0,43.93,56.81,49.62,87.11,0,0,2.56,12.95,6.15,25.33a27.91,27.91,0,0,0,23.9,20,9.85,9.85,0,0,1,3.66.86s-1.14,11-1.14,18.94a70.33,70.33,0,0,1-2.32,11.85,16.21,16.21,0,0,0,1.18,12.77h0s-31.43,16.67-41.66,18.94C466.64,401.85,454.9,407.15,405.28,400Z" fill="#686175" data-primary="true"/><path d="M543.91,327.61s-1.52-13.63,5.68-17l45.07,37.12-22,1.51s-6.82,1.89-9.47-2.27c0,0,0-6.06-10.22-11.36C553,335.57,542.39,333.67,543.91,327.61Z" fill="#686175" data-primary="true"/><path d="M555.65,308.29s-10.18-.58-9.13,8.71a14.48,14.48,0,0,0,4.39,8.84c2.64,2.52,7.19,5.34,14.59,5.94,0,0,6.06.76,14.77,8.33,0,0,20.83,18.18,34.09,12.12,0,0,10.6-4.17-.76-19.32,0,0-6.44-11.36-22.35-12.87,0,0-11.74-1.14-19.69-6.44C571.56,313.6,561,307.16,555.65,308.29Z" fill="#2c2e63"/><path d="M491.64,501.84s-.38-9.47,3.78-7.57a29.52,29.52,0,0,1,3.59,2.24,13.51,13.51,0,0,0,11.82,2.2c2.28-.7,4.34-1.93,5.05-4.07,0,0,3.79-4.16,1.89-11a33.91,33.91,0,0,1,17.42,12.12L507.92,525.3s-20.29,22.84-29,20.85c-.59-.14-1.16-.34-1.37-.9-.71-2-1.36-7.07,6.5-14.64C484.06,530.63,493.15,525.7,491.64,501.84Z" fill="#686175" data-primary="true"/><path d="M477.56,545.26s.06,7.71,6.12,6.58c0,0,15.53-4.17,25-17.43l28.79-29.54s1.51-4.17-2.28-9.09l-27.27,29.54S481.67,551.56,477.56,545.26Z" fill="#2c2e63"/><path d="M388.69,108.19s-18.31-8.93-31.46,39c0,0-17.37,15.5-15.49,25.36l15,19.72s5.64,1.88,11.27-3.76c0,0,37.1,12.21,39.45-50.71C407.48,137.77,410.29,121.8,388.69,108.19Z" fill="#686175" data-primary="true"/><path d="M388.69,108.19s-18.31-8.93-31.46,39c0,0-17.37,15.5-15.49,25.36l15,19.72s5.64,1.88,11.27-3.76c0,0,37.1,12.21,39.45-50.71C407.48,137.77,410.29,121.8,388.69,108.19Z" opacity="0.2" style="isolation:isolate"/><path d="M294.52,173.42s27.49,4.73,47.22-.9l15,19.72s-7,5.16-18.78.47c0,0-14.1-11.87-33.72-7.92a20.5,20.5,0,0,0-14.85,11.59,17.7,17.7,0,0,0-.73,2s-7.83.39-10.62-11.68a6.34,6.34,0,0,1,1.93-6.14l9.42-8.51A22.22,22.22,0,0,0,294.52,173.42Z" fill="#ffc596"/><ellipse cx="346.41" cy="93.2" rx="17.73" ry="28.35" transform="translate(18.83 239.4) rotate(-39.11)" fill="#ffc596"/><path d="M388,101.14c.39-4.77,4.07-7.51,3.27-11.51a18.39,18.39,0,0,0-4.41-8.58,57.12,57.12,0,0,1-8.25-13c-4.32-13-16.2-18.31-16.2-18.31C335.16,38.22,323,66.86,323,66.86s-10.8,11.74-2.34,33.81a26.57,26.57,0,0,1,3.75,16s.71,22.77,15.5,10.33c0,0,12.44,4.23,16-8.92,0,0-11.5-.24-20.89-11.27,0,0-13.85-12.68-10.57-29.12,0,0,8.09-3.23,15.83,1.37a14,14,0,0,0,8.29,2.08,10.17,10.17,0,0,0,8.1-4.75l9.1,13.75a14.38,14.38,0,0,1-1.87,12.44s-8.69,12.45,3.28,14.56C367.09,117.11,387.05,112.65,388,101.14Z" fill="#2c2e63"/><path d="M368.27,102.79s-5.64,11,4,11.27" fill="none" stroke="#000" stroke-miterlimit="10" opacity="0.2" style="isolation:isolate"/><path d="M339.86,127s-8.92-3.29-8.45-12.68" fill="none" stroke="#000" stroke-miterlimit="10" opacity="0.2" style="isolation:isolate"/><path d="M382.35,82.36s0,5.33,2.35,9.11a15.73,15.73,0,0,1,2,4.44c.74,2.9.79,6.84-3.41,8.52" fill="none" stroke="#000" stroke-miterlimit="10" opacity="0.2" style="isolation:isolate"/><path d="M432.72,219.23s15.26.3,15.57,4.61c0,0,4.27,12.5,1.49,14.35l-1.66-2.37c-1.27-1.66-2.12-2.22-4.18-1.86-1.57.28-3.4.32-4.58-.57C439.36,233.39,440.12,228.16,432.72,219.23Z" fill="#ffc596"/><path d="M294.15,159.53s2.34,7.73,4.7,10.64c0,0,17.69-2,26.92-10.64Z" fill="#ffa072"/><ellipse cx="302.84" cy="136" rx="24.77" ry="33.37" transform="translate(19.89 309.64) rotate(-55.72)" fill="#ffc596"/><path d="M296.53,106.66c-1.8,1.36-4.14,3.74-3.94,6.85a23.55,23.55,0,0,1-5.64,6.57s-4.38,4.38,4.7,8.14c0,0,2.82.94,4.07,6.26,0,0,.63,4.38,4.38,6.26,0,0-.62,2.51-10,1.26l2.51,11.58a52.44,52.44,0,0,0,6.26,16.59s-.44,3-5.11,3.33a6.31,6.31,0,0,1-4.25-1.43,7.8,7.8,0,0,0-2.95-1.29,13.86,13.86,0,0,0-7.23.24c-3.45,1-9.85,1.89-13-4.18a.42.42,0,0,0-.56-.21.43.43,0,0,0-.23.28l-.63,2.26c-.29,1.06-1.37,1.19-1.77.46a21.62,21.62,0,0,0-4.34-5.41s-18.16-14.4-3.44-32.24c0,0-5-14.4,14.08-22.85,0,0,6.93-3,9.88-6.43a.38.38,0,0,1,.54,0,.37.37,0,0,1,.12.33c-.28,1.74-.41,4.11.73,4.87,0,0,4.18-10.87,15.7-3.94a1.64,1.64,0,0,1,.54,2.27A1.67,1.67,0,0,1,296.53,106.66Z" fill="#2c2e63"/><ellipse cx="292.5" cy="147.74" rx="5.46" ry="7.25" transform="translate(52.93 371.32) rotate(-69.82)" fill="#ffc596"/><ellipse cx="361.94" cy="82.6" rx="7.04" ry="8.22" transform="translate(33.37 255.42) rotate(-40.6)" fill="#ffc596"/><path d="M358.33,206.17a49.13,49.13,0,0,1,11.89,3.76c12.21-2.51,12.21,5.32,12.21,5.32,5-4.07,9.08-1.41,9.08-1.41,11.74,6.1,39.44,3.75,39.44,3.75a19.36,19.36,0,0,1,8,22.54L414.52,250c-19.72,6.58-33.81,2.35-33.81,2.35l-54.83-10.8a18.5,18.5,0,0,1-15-16.06,18,18,0,0,1,.45-6.29,18.87,18.87,0,0,1,15.31-13.85C333.32,204.23,344,203.57,358.33,206.17Z" fill="#f48225" data-secondary="true"/><path d="M358.33,206.17a49.13,49.13,0,0,1,11.89,3.76c12.21-2.51,12.21,5.32,12.21,5.32,5-4.07,9.08-1.41,9.08-1.41,11.74,6.1,39.44,3.75,39.44,3.75a19.36,19.36,0,0,1,8,22.54L414.52,250c-19.72,6.58-33.81,2.35-33.81,2.35l-54.83-10.8a18.5,18.5,0,0,1-15-16.06,18,18,0,0,1,.45-6.29,18.87,18.87,0,0,1,15.31-13.85C333.32,204.23,344,203.57,358.33,206.17Z" opacity="0.2" style="isolation:isolate"/><path d="M358.33,206.17c-8.42,4.73-17.93,9.46-27.86,7.83a80.63,80.63,0,0,0,14-3.43,101.55,101.55,0,0,1,13.9-4.4Z" opacity="0.2" style="isolation:isolate"/><path d="M368.66,232.15c4.6-4.72,9.7-8.35,13.46-13.77-1.07,6.55-7.53,11.6-13.46,13.77Z" opacity="0.2" style="isolation:isolate"/><path d="M316.58,120.66,322,121a1.46,1.46,0,0,1,1.37,1.54,1,1,0,0,1,0,.24l-.43,1.92" fill="none" stroke="#ffa072" stroke-miterlimit="10"/><path d="M305.6,114.87h0a.87.87,0,0,1,.07,1.21l-.07.07c-1.29,1.12-3.85,3.63-4,6.13,0,0-1.55-2.8,2.82-7.38A.87.87,0,0,1,305.6,114.87Z" fill="#2c2e63"/><path d="M319,138.5a5.93,5.93,0,0,0,6.06-1.92,3.7,3.7,0,0,0,.52-4.54S326.23,137.09,319,138.5Z" fill="#f88968"/><ellipse cx="306.39" cy="120.77" rx="1.02" ry="1.95" transform="translate(19.12 281.83) rotate(-50.79)" fill="#2c2e63"/><path d="M291,148a1.55,1.55,0,0,0,.94.68,1.06,1.06,0,0,0,.85-.13,5.25,5.25,0,0,1,1.27-.59,1.71,1.71,0,0,1,.84,0,.78.78,0,0,1,.54.58.78.78,0,0,0-.6,0,1.47,1.47,0,0,0-.49.23,7.91,7.91,0,0,1-1.07.75,1.9,1.9,0,0,1-.87.22,1.72,1.72,0,0,1-.87-.3A1.3,1.3,0,0,1,291,148Z" fill="#ffa072"/><path d="M290.81,149.8a2.31,2.31,0,0,1-2.1-.25,2.34,2.34,0,0,1-1-2.09,2.23,2.23,0,0,1,.45-1.19,1.58,1.58,0,0,1,1.19-.59,2.35,2.35,0,0,1,1.1.3,9.64,9.64,0,0,1,.84.58,9.43,9.43,0,0,0-1.84,0,.77.77,0,0,0-.45.36,1.3,1.3,0,0,0-.2.64,1.89,1.89,0,0,0,.49,1.36A3.25,3.25,0,0,0,290.81,149.8Z" fill="#ffa072"/><path d="M363.45,81.59a1.58,1.58,0,0,0,.41,1.09,1.15,1.15,0,0,0,.78.35,5.35,5.35,0,0,1,1.38.2,1.59,1.59,0,0,1,.68.49.81.81,0,0,1,.14.79.72.72,0,0,0-.48-.37,1.58,1.58,0,0,0-.53-.07,9.55,9.55,0,0,1-1.31,0,1.85,1.85,0,0,1-.85-.3,1.59,1.59,0,0,1-.56-.72A1.29,1.29,0,0,1,363.45,81.59Z" fill="#ffa072"/><path d="M362.28,83a2.35,2.35,0,0,1-1.67-2.87,2.43,2.43,0,0,1,.39-.81,2.11,2.11,0,0,1,1-.74,1.5,1.5,0,0,1,1.32.15,2.13,2.13,0,0,1,.75.85,8.47,8.47,0,0,1,.39.94c-.6-.35-1-.91-1.52-1a.73.73,0,0,0-.58,0,1.5,1.5,0,0,0-.51.43,1.89,1.89,0,0,0-.34,1.4A3.4,3.4,0,0,0,362.28,83Z" fill="#ffa072"/><path d="M335.56,105.28l1.7,4.31a1.26,1.26,0,0,0,1.62.71l.18-.09,1.44-.86" fill="none" stroke="#ffa072" stroke-miterlimit="10"/><path d="M336.78,96.54a1.61,1.61,0,0,1-2.19-.55,1.54,1.54,0,0,1-.22-.86c-1.27.37-1.55-.37-1.55-.37.32.23,1.65-.54,2.19-.88h0l.16-.1h.06a1.6,1.6,0,0,1,1.53,2.8Z" fill="#2c2e63"/><path d="M331,93.59h0a.75.75,0,0,0,1,.18l.06,0c1.1-1,3.53-2.82,5.67-2.67,0,0-2.19-1.65-6.59,1.5A.75.75,0,0,0,331,93.59Z" fill="#2c2e63"/><path d="M350.13,105.29a5.07,5.07,0,0,1-.58,5.4,3.16,3.16,0,0,1-3.71,1.21S350.17,111.57,350.13,105.29Z" fill="#f88968"/><path d="M660.68,227.8l-1.45,1.46-14.8,14.8-14.8-14.8-1.46-1.46A10.48,10.48,0,1,1,643,213l1.46,1.45,1.46-1.45a10.46,10.46,0,0,1,14.79,14.79Z" fill="#fff" stroke="#fff" stroke-miterlimit="10"/><path d="M573.46,439.93l-.81.81L564.4,449l-8.24-8.25-.81-.81a5.83,5.83,0,1,1,8-8.52l.28.28.81.81.82-.81a5.83,5.83,0,0,1,8.24,8.24Z" fill="#fff" stroke="#fff" stroke-miterlimit="10"/><path d="M469.76,103.8l-1.4,1.4-14.23,14.23L439.91,105.2l-1.4-1.4a10.06,10.06,0,0,1,14.22-14.23l1.4,1.4,1.4-1.4a10.06,10.06,0,0,1,14.23,14.23Z" fill="#fff" stroke="#fff" stroke-miterlimit="10"/><path d="M204.62,303l-1.48,1.48-15,15-15-15L171.56,303a10.64,10.64,0,1,1,15.05-15l1.48,1.48,1.48-1.48a10.64,10.64,0,0,1,15.05,15Z" fill="#fff" stroke="#fff" stroke-miterlimit="10"/></svg>