<svg id="be6b32c6-c020-466b-899e-af353feedca1" data-name="Layer 1" xmlns="http://www.w3.org/2000/svg" width="865.76" height="682.89" viewBox="0 0 865.76 682.89"><rect x="52.21" y="34.72" width="222.01" height="367.48" fill="#e0e0e0"/><rect x="44.84" y="34.72" width="222.01" height="367.48" fill="#ebebeb"/><rect x="54.29" y="42.18" width="203.09" height="352.57" fill="#fafafa"/><rect x="92.95" y="87.98" width="124.89" height="260.95" fill="#ebebeb"/><path d="M93,256.6c-.28-24.37,21.63-48.17,45.77-51.57,11.5-1.68,23.74.65,34.49-3.76,19.21-7.87,25.31-33.37,44.63-40.94l.87,188.6H92.93Z" fill="#e0e0e0"/><path d="M699,627.28H456.63a34.72,34.72,0,0,1-34.72-35.06L427,76.65a31.32,31.32,0,0,1,30.63-31L703,40.3a35.2,35.2,0,0,1,35.87,35l3,508.8A42.94,42.94,0,0,1,699,627.28Z" fill="#686175" data-primary="true"/><path d="M692.83,611.61l-238.71.61a24.66,24.66,0,0,1-24.73-24.79l5.33-504.84a24.58,24.58,0,0,1,23.8-24.31L694.06,50.8a26.61,26.61,0,0,1,26.61,26.61V583.7A27.91,27.91,0,0,1,692.83,611.61Z" fill="#f0f0ff"/><path d="M482.07,251.74l55.26-22.38s28,108.07,26.23,154.93l-5.25,16.79-54.9,1.75Z" fill="#f3e4cd"/><path d="M747.66,206.23s4.36,21,38.48,17c0,0-26.43,37.63-38.74,29,0,0-11.61-2.66-7-25.81A110.58,110.58,0,0,1,747.66,206.23Z" fill="#fbb040"/><path d="M747.66,206.23s4.36,21,38.48,17c0,0-26.43,37.63-38.74,29,0,0-11.61-2.66-7-25.81A110.58,110.58,0,0,1,747.66,206.23Z" opacity="0.2"/><line x1="735.33" y1="232.21" x2="768.78" y2="251.67" fill="none" stroke="#123a53" stroke-miterlimit="10" stroke-width="2"/><path d="M483.94,394.91S460.32,429.27,465.88,479c0,0,8.34,80.88,18.06,133.14h61.13l3.24-76.46,30.56,76.22,57.42-.15L587.77,389.27S527.93,403.24,483.94,394.91Z" fill="#f48225" data-secondary="true"/><path d="M481.11,460.76s22.17-5.66,29.86-26" fill="none" stroke="#000" stroke-miterlimit="10" opacity="0.2"/><line x1="550.66" y1="425.84" x2="548.31" y2="535.68" fill="none" stroke="#000" stroke-miterlimit="10" opacity="0.2"/><path d="M481.77,238.75l5.66-.83,6.42-14.83s-4.25.84-8.92,6.42Z" fill="#686175" data-primary="true"/><path d="M481.77,238.75l5.66-.83,6.42-14.83s-4.25.84-8.92,6.42Z" opacity="0.2"/><path d="M492.53,211.32v12.15s-5.25,12.24-8,14.74c0,0,1.25,11.75,4,16,0,0,13.6,12.68,26.81,14.69a16.69,16.69,0,0,0,12.47-3.05c5.6-4.2,12.36-13.77,8.45-34.88l-5.5-12.24s-5.93-.85-8-12.8L517,179.49l-5.93-4.2Z" fill="#ffad95"/><path d="M492.53,212.93v6s10.94-.22,17.34-18.48C509.87,200.49,504.27,211.63,492.53,212.93Z" fill="#e37961"/><path d="M492.53,223.47s-12,3.83-18.61,19.89a8,8,0,0,1-2.56,3.37c-4.43,3.35-16.2,13.26-23.4,28.71l23.75,111.89-5.42,20.72s-3.42,4,4,10.66c0,0,6.87,10,14.28,15,0,0,7.75,8.33,11.75-2.66,0,0,23-37.32,17-87.29l-5.67-33.66a255,255,0,0,0-9-28.32,259.18,259.18,0,0,1-10.08-27.57s-2.5-3.33-4-16C484.53,238.21,482.36,230.71,492.53,223.47Z" fill="#686175" data-primary="true"/><path d="M474.29,248.79s2.33,28.65,6.82,36.65c0,0,20.91,34.32,29.86,67.63" fill="none" stroke="#fff" stroke-miterlimit="10" stroke-width="2" opacity="0.2"/><path d="M530.76,218.72l12,3.46s18.83-7.37,28.49-3.21c0,0,6.16,4.94,15.16,1,0,0,7.58-2.52,22.32-2.24a134.78,134.78,0,0,0,36.74-8L709.68,185s-11.75,8,0,26.23c0,0,5.31,9,13.74,9.5l-60.72,26s-8,1.75-17.49,10c0,0-13.16,9.91-39.49,15.41,0,0-21.49,5.83-20,20.33l8.5,60.63s3.25-1.41,4.75,6.09c0,0,3.75,12.74-1.25,13,0,0,5.45,24.64,6.17,36.44a3.17,3.17,0,0,1-2.16,3.19,19.46,19.46,0,0,1-7.13,1,18.56,18.56,0,0,0-8.25,1.46,67.16,67.16,0,0,0-14.87,8.9s-10.75,8.24-13.49-4l.5-60.22s-3.75-31.74-7-49.23c0,0-11.26-69.85-15.24-78.72Z" fill="#686175" data-primary="true"/><path d="M542.75,222.18,558.36,254a22.55,22.55,0,0,1,2.3,10.4L559,340.66" fill="none" stroke="#fff" stroke-miterlimit="10" stroke-width="2" opacity="0.2"/><path d="M520,460.76s-3.93,5.26-3.76,10.34c0,0,.66,4.58,10.66-1.91Z" fill="#686175" data-primary="true"/><path d="M627.09,564.17s-13.43-2.28-30.21-20.21l-28.14-29.88s-11-10.58-11-24.14a16.23,16.23,0,0,1,8.15-13.7,4.71,4.71,0,0,0,2.34-3.57s-4.66-6.65,8.5-10.31c0,0,6.16-.67,13.16-8.33l40.65-43.65,56.14-111.95V261s.25-3,2.75-10a49.24,49.24,0,0,0-.74-15.38l34.72-14.86s6-.25,5.5-9.75l18.74-4.74s-16.37,35-1.5,45.23c0,0,9.24,8.49,27.49-13.75l12.49-14.49,16.74,33.23a89,89,0,0,1,4.25,31l1.25,69.47-2.75,180.41s2,15.49-11,11.75c0,0-18-3.5-17.5-13.5,0,0,3.75-37.23,9.5-59.47,0,0-4.5-15-8-22.24a204.69,204.69,0,0,1-6.74-38.73s-2.79-23.24-17-27.49c0,0-7.08,29.07-27.73,61.39,0,0-66.64,116-83,100C644.21,549,640.29,574,627.09,564.17Z" fill="#fbb040"/><path d="M569.34,476.57s1.83,3.68,7.4,6.77c0,0,4.79,2.16,8.43,10.67,0,0,1.05,4.47,8.44,9.38a21.93,21.93,0,0,0,2.65,1.45c.74.35,2.17,1.43,4.37,4.71a26,26,0,0,1,3.2,6.88c.66,2.11,2.69,5.7,8.82,10a38.65,38.65,0,0,0,6.6,3.66c1.62.72,4.49,2.37,8.86,6.13a23.62,23.62,0,0,1,3.68,4c2.11,2.88,6.79,8.32,12.42,8.73" fill="none" stroke="#000" stroke-miterlimit="10" opacity="0.2"/><path d="M630.55,410.38a585.61,585.61,0,0,0,72.23-86" fill="none" stroke="#000" stroke-miterlimit="10" opacity="0.2"/><line x1="686.69" y1="298.43" x2="720.67" y2="226.42" fill="none" stroke="#000" stroke-miterlimit="10" opacity="0.2"/><path d="M757.78,380a244,244,0,0,1,12-23A55.72,55.72,0,0,1,778.45,346c3.94-3.85,10.29-11.44,12.08-21.65,0,0,5.06-18.81,17.85-15.12" fill="none" stroke="#000" stroke-miterlimit="10" opacity="0.2"/><path d="M797.39,333.79s-6.71,122.9-10.75,142.31" fill="none" stroke="#000" stroke-miterlimit="10" opacity="0.2"/><ellipse cx="454.04" cy="77.66" rx="8" ry="8.62" fill="#123a53"/><ellipse cx="477.71" cy="76.44" rx="8" ry="8.62" fill="#123a53"/><path d="M728.45,206.23s3,13.67-5,14.49c0,0-6.25-.34-9.5-4.12Z" fill="#686175" data-primary="true"/><path d="M728.45,206.23s3,13.67-5,14.49c0,0-6.25-.34-9.5-4.12Z" opacity="0.2"/><path d="M709.68,185l29.76-10.66s17-3.8,28.86,0c0,0,6.17.71,7.83,5.45,0,0,7.36,7.12,9.73,8.78,0,0,7.35,5.7-1.66,11.39,0,0,2.61,4.49-8.78,6.28,0,0-6.4,2.26-11.62,1.07,0,0-3.56,2.83-8.54-1.07l-3.09-3.43a31.27,31.27,0,0,1-12.58-3.56l-25.89,17.4S695.67,197,709.68,185Z" fill="#ffad95"/><path d="M752.17,202.8s-3.32-7.12,3.09-6.41c0,0,1.34-5.25,5.57-1.64a8,8,0,0,1,1.7,2.25c.3.53,1.13,1.19,3.4,1.14a10.86,10.86,0,0,1,5.22,2.52" fill="none" stroke="#e37961" stroke-miterlimit="10"/><path d="M739.55,191.88s8.43,3.9,15.71,4.51" fill="none" stroke="#e37961" stroke-miterlimit="10"/><path d="M759.32,172.76s1.87,13.9,9.93,15.33c0,0,4.27,1.66,4.51,8.3" fill="none" stroke="#e37961" stroke-miterlimit="10"/><path d="M773.76,186.19s5.69,3.32,2.14,10.2c0,0-7.83,8.52-.48,9.84,0,0,10-.59,8.78-6.28" fill="none" stroke="#e37961" stroke-miterlimit="10"/><polyline points="747.66 206.23 772.35 200.48 786.14 223.22" fill="none" stroke="#123a53" stroke-miterlimit="10" stroke-width="2"/><path d="M774.71,193.48a51.93,51.93,0,0,1,15.18-16.07s11.1-7.33,11.19-16.64a4.28,4.28,0,0,0-4.5-4.35c-3.57.22-9.26,2.69-15.94,13.4" fill="none" stroke="#123a53" stroke-linecap="round" stroke-linejoin="round" stroke-width="2"/><path d="M303.27,585.2s-7.68-.21-4.85,10.78c0,0,2.34,11.6,4.85,16.83a77.07,77.07,0,0,1,2,9.49s.27,6.52,2.55,8.68a8.7,8.7,0,0,1,2.61-3l-7.83-29.65a18.58,18.58,0,0,1,.69-13.12Z" fill="#123a53"/><path d="M305.58,639.63s-3,6.66,2.56,7.33c0,0,8.77.5,20.1,1.83,0,0,38,4.67,32.32-4.33l-39.65-6.83Z" fill="#123a53"/><path d="M367.15,482.44s.74,17.09-12.26,54.32c0,0-25.23,71-26,84a31.44,31.44,0,0,0-7.25,7.41,6.19,6.19,0,0,1-7.25,2.5,10.92,10.92,0,0,1-4-2.66l5.67-26.82s-1.43-9.64,1.33-16.49l26.16-65s6.56-33.46,3.23-44.94" fill="#ffad95"/><path d="M311.24,485.07a141.25,141.25,0,0,0,2.64,18.65,8.7,8.7,0,0,1-.6,5.77c-2.4,5-6.81,17.6-6.2,41.68,0,0,1.17,29-2.33,35,0,0-2.67,2.67-.83,9.17,0,0,3,7.33,5.09,7.33a9.69,9.69,0,0,1,7.07-1.5,47.64,47.64,0,0,1,1.33-16.49l26.16-65s6.66-17.87,3.66-32.92C347.23,486.77,327.88,487.31,311.24,485.07Z" fill="#ffad95"/><path d="M350.68,248.5s18.49,18.08,6.5,24.58c0,0-16.46-7.11-11.07-22.07A13.65,13.65,0,0,0,350.68,248.5Z" fill="#123a53"/><path d="M326.31,240.07l-.07,15.36s-.4,6.49-7.3,11.57c0,0,11.74,16.26,27.74,17.25,0,0,14.28.25,8.84-12.34,0,0-14.45-7.8-9.41-20.9C346.11,251,334.3,254.07,326.31,240.07Z" fill="#ffad95"/><path d="M333,248.5s1.84,6.89,12.06,8c0,0-.05-4,1.59-5.69C346.63,250.83,340.31,253.73,333,248.5Z" fill="#e37961"/><ellipse cx="340.91" cy="232.09" rx="16.19" ry="19.65" transform="translate(-35.46 63.48) rotate(-10.11)" fill="#ffad95"/><path d="M327,232.09v-5.68s15.69-4.33,19.27-12.29a14,14,0,0,1,5.63,4.5s1.3-14.08-20.41-13.92a15.07,15.07,0,0,0-8.57,2.7c-4.92,3.43-12.26,10.24-10,19.26,0,0,1.5,15.24-4.24,17.49,0,0-28.52,10.74-9,37.47l19.79-15s7.41-4.29,7-14.75Z" fill="#123a53"/><path d="M312.5,271.75s14.66,23.37-6.08,43.86c0,0,16.75,25,2.09,62.07-1.74,4.41-3.37,8.86-4.76,13.4-6.87,22.43-24,82-14.08,88.46,0,0,13.25,8.74,65.22,7V481s44,6.74,40.23-5l-27-120.19s-4-17.25,1-27c0,0,10.16-13.48.6-27.32a29,29,0,0,1-2.1-3.57c-2.1-4.24-6.1-13.42-6.23-21.84,0,0-2.45-1.81-5.89-4.22,0,0,6.27,12.68-12.17,11.45,0,0-10.39-.25-24.41-16.36Z" fill="#f48225" data-secondary="true"/><path d="M361.41,276.13s15.47,11.25,20,35.24c0,0,6.1,22.74,13,33.94a15.62,15.62,0,0,1,2.29,6.84c.28,3.32-.49,7.33-5.07,9.25a11.17,11.17,0,0,1-7.2.36c-4-1.07-10.78-4.11-17.33-12.74,0,0-3-2.17-7.57,1.08,0,0-7.32,4-10.32-.5,0,0-8.72-.22-7.24-4.36l16.48-18.3s2.33,1.17,5,5l3.91,2.45a15.81,15.81,0,0,1,1.84-5.53s10.32-13.69.37-27.64a25.25,25.25,0,0,1-1.87-3.12C365.62,294.17,361.83,285.61,361.41,276.13Z" fill="#ffad95"/><path d="M341.91,345.24s10.48,2.86,12.48-.81a8.5,8.5,0,0,0,2.84-4.33s2.49-1,2.24-5.16c0,0,3.92-3.5-1.08-8Z" fill="#e37961"/><path d="M369.22,335.6l16.41,4.5a13,13,0,0,1,8.5,8.75" fill="none" stroke="#e37961" stroke-miterlimit="10"/><path d="M243.49,437.49l-7.93,29.39s48.52,8.79,74.85,8.33l2-33.82Z" fill="#00aeef"/><path d="M310.41,475.21s10-2.78,16.37-1.71a2.38,2.38,0,0,0,2.74-1.79c1.48-6.25,4.85-26.26,3.14-74.19l-20.22,43.87Z" fill="#00aeef"/><path d="M310.41,475.21s10-2.78,16.37-1.71a2.38,2.38,0,0,0,2.74-1.79c1.48-6.25,4.85-26.26,3.14-74.19l-20.22,43.87Z" opacity="0.2"/><path d="M305.41,584.6s-7.49.22-4.49,10.88c0,0,5.16,31,9.49,32.49l5.67-26.82a9.74,9.74,0,0,0-7.07,1.5s-1.95.12-5.09-7.33c0,0-2-6.17.83-9.17Z" fill="#f48225" data-secondary="true"/><path d="M305.58,639.63s.67-9.33,4.83-11.66c0,0,5.4,6.49,11.25.16,0,0,3.08-5.16,7.25-7.41,0,0,6.16.17,11.49,9.46,0,0,4.5,8.28,12.16,8.12,0,0,9,.33,8,6.16,0,0-25.32,2.83-32.15,0,0,0-7.67-4-11-4.16Z" fill="#f48225" data-secondary="true"/><path d="M316.08,601.15s-1.8-8.71,2.54-19.5l21.79-54.13s10.85-24.21,6.82-40.75" fill="none" stroke="#e37961" stroke-miterlimit="10"/><path d="M303.06,360.83s.94,4.1-.81,6.92l4.17.23a31.6,31.6,0,0,0,0-8.61Z" fill="#e6e7e8"/><path d="M321.77,352.73s-9.95,14.28-12.6,15.41l-2.75-.16s9-8.48,10.37-13.1Z" fill="#e6e7e8"/><circle cx="324.54" cy="236.54" r="5.11" fill="#ffad95"/><path d="M312.5,271.75s-24.5,14.43-25.79,32.37a30.39,30.39,0,0,1-.51,3.93l-8.27,39.55s-5.25,21.74,18.74,16L339.4,345.1s14.24,1.5,15-5c0,0,3.84-1.5,2.05-6.49,0,0,2.45-.25,1.95-5,0,0,1.61-.68.9-1.89a1.81,1.81,0,0,0-1.61-.85l-12.54.24s.39-2.11,1.83-2.63a5,5,0,0,0,1.81-1c1-.95,2.09-2.48.83-3.86a.75.75,0,0,0-.94-.1,30.22,30.22,0,0,1-7.09,3.53,12.12,12.12,0,0,0-6.08,4.1,11.51,11.51,0,0,0-2.35,4.5l-35.73,13.24,9-28.24S327.09,298.36,312.5,271.75Z" fill="#ffad95"/><line x1="356.44" y1="333.61" x2="346.15" y2="333.61" fill="none" stroke="#e37961" stroke-miterlimit="10"/><line x1="354.39" y1="340.1" x2="346.15" y2="340.1" fill="none" stroke="#e37961" stroke-miterlimit="10"/><line x1="358.39" y1="328.61" x2="346.15" y2="328.61" fill="none" stroke="#e37961" stroke-miterlimit="10"/><line x1="306.42" y1="313.12" x2="310.41" y2="301.62" fill="none" stroke="#e37961" stroke-miterlimit="10"/><path d="M284.55,367l-7.13-.16s13-20.4,20-23C297.42,343.85,285.76,358.43,284.55,367Z" fill="#e6e7e8"/><path d="M286,362.19l26.48-23.91,6-2.2L284.55,367A25.15,25.15,0,0,1,286,362.19Z" fill="#e6e7e8"/><path d="M354.89,481a378.82,378.82,0,0,0,3.5-88.46" fill="none" stroke="#000" stroke-miterlimit="10" opacity="0.2"/><path d="M219.61,416.75a48.3,48.3,0,0,0,12.27,20.06l86.58,5.05-8-21.61L335,370,305.19,418.5Z" fill="#686175" data-primary="true"/><path d="M219.61,416.75l85.58,1.75L335,370q-15.92-1.38-32.73-2.27c-17.72-.91-34.77-1.29-51.09-1.24Z" fill="#686175" data-primary="true"/><path d="M219.61,416.75a48.3,48.3,0,0,0,12.27,20.06l86.58,5.05-8-21.61L335,370,305.19,418.5Z" opacity="0.2"/><path d="M334.93,370.21a34.65,34.65,0,0,0-.89,6.29,2.81,2.81,0,0,0,2,2.68,11.41,11.41,0,0,0,2.36.4l-19.94,62.28-8-21.61,24.48-50.06A0,0,0,0,1,334.93,370.21Z" fill="#686175" data-primary="true"/><path d="M489.94,312.09c-2.66,14,9,35.2,9,35.2,5.66,12.86,5.33,16.78,5.33,16.78l4,14,34.48,65.56a32.19,32.19,0,0,0-15.24,9.24c-12,9.75-11.24,18.24-11.24,18.24-14.5-17.74-47.53-90.2-47.53-90.2-28.54-60-23.44-87.8-23.44-87.8s0-11,2.66-17.66C448,275.44,471.62,275.11,489.94,312.09Z" fill="#686175" data-primary="true"/><path d="M489.94,312.09c-2.66,14,9,35.2,9,35.2,5.66,12.86,5.33,16.78,5.33,16.78l4,14,34.48,65.56a32.19,32.19,0,0,0-15.24,9.24c-12,9.75-11.24,18.24-11.24,18.24-14.5-17.74-47.53-90.2-47.53-90.2-28.54-60-23.44-87.8-23.44-87.8s0-11,2.66-17.66C448,275.44,471.62,275.11,489.94,312.09Z" opacity="0.2"/><ellipse cx="485.71" cy="173.15" rx="28.78" ry="40.4" transform="translate(-26.09 110.24) rotate(-12.61)" fill="#ffad95"/><path d="M456.37,164s-18.57-16.47,4.92-30c0,0,17.49-25.49,45-12.49,0,0,18,3.49,21.49,31.48,0,0,30-5,33,16.49,0,0,1,9-8.49,20.49,0,0,9.49,11.5-5,20,0,0-21,13.12-24.58-4.66a128.79,128.79,0,0,0-3.38-14.12,104,104,0,0,0-10.45-23,30.73,30.73,0,0,1-4-3.09,34.86,34.86,0,0,1-7.35-9.64s-29,7.39-39.59-.93A45,45,0,0,0,456.37,164Z" fill="#123a53"/><ellipse cx="517.02" cy="169.49" rx="8.25" ry="10" fill="#ffad95"/><path d="M520,460.76l15.06,19.76,3.67,6s1,11.5,9.16,19a21.35,21.35,0,0,0,20.82,8.58l-5.5-5.74s.25-1.75,3-.25c0,0,17,3.49,18.49.75,0,0,3.25-2.5-8-6.5,0,0,3.5-3.75-4.5-11.5,0,0-3.5-3.24-2.25-10.24,0,0,.25-11-12.24-17l-15-20S533,444.41,520,460.76Z" fill="#ffad95"/><line x1="556.25" y1="501.01" x2="563.24" y2="508.34" fill="none" stroke="#e37961" stroke-miterlimit="10"/><path d="M576.74,502.34l-11.83-6.67s-5.33-2.66-5.16-10" fill="none" stroke="#e37961" stroke-miterlimit="10"/><rect x="525.61" y="68.07" width="132.73" height="10.91" transform="translate(-2.58 25.13) rotate(-2.43)" fill="#dcdcf9"/><rect x="574.89" y="88.1" width="84.34" height="10.77" transform="translate(-3.4 26.21) rotate(-2.43)" fill="#dcdcf9"/><g id="f3c602cd-b3af-403d-b5ca-83ac1f0a4559" data-name="freepik--Plant--inject-88"><path d="M162.46,490.3a1,1,0,0,0-.09-.21c-.09-.16-.2-.35-.32-.59-.29-.51-.75-1.26-1.39-2.17a23.56,23.56,0,0,0-6.88-6.5,17.21,17.21,0,0,0-6.16-2.26,15.16,15.16,0,0,0-7.49.79,12.06,12.06,0,0,0-6.41,5.24c-1.47,2.57-2,5.59-2.81,8.48a15.46,15.46,0,0,1-1.79,4,12.21,12.21,0,0,1-3,3c-1.15.84-2.35,1.61-3.43,2.49a15,15,0,0,0-2.79,3,18.59,18.59,0,0,0-2.86,7,24.89,24.89,0,0,0-.38,6.56,49,49,0,0,0,1.68,9.32c.28,1.08.52,1.92.69,2.48a4.23,4.23,0,0,0,.28.85,3.35,3.35,0,0,0-.18-.88c-.18-.58-.35-1.45-.6-2.5a54.14,54.14,0,0,1-1.5-9.3,24.87,24.87,0,0,1,.43-6.44,18.48,18.48,0,0,1,2.83-6.79A14.39,14.39,0,0,1,123,503c1.06-.86,2.25-1.61,3.42-2.47a12.87,12.87,0,0,0,3.17-3.12,16,16,0,0,0,1.86-4.18c.87-2.94,1.34-5.91,2.75-8.37a11.77,11.77,0,0,1,6.14-5.06,15,15,0,0,1,7.26-.8,16.49,16.49,0,0,1,6,2.15,24,24,0,0,1,6.89,6.3c.67.89,1.15,1.61,1.47,2.1A5,5,0,0,0,162.46,490.3Z" fill="#e0e0e0"/><path d="M124.73,500.88c.8-.74,1.18-.23,2.25,0a6.49,6.49,0,0,1,2.88,1.44A12.13,12.13,0,0,1,133.79,515a9.49,9.49,0,0,1-8.71-14.24" fill="#e0e0e0"/><path d="M157.37,486c.4-1,1-.71,2-1a6.54,6.54,0,0,1,3.23.06,12.14,12.14,0,0,1,9,9.81,9.48,9.48,0,0,1-14-9.11" fill="#e0e0e0"/><path d="M117.54,521a11,11,0,0,1,15.52-1,11.46,11.46,0,0,1,1.69,1.86,13.49,13.49,0,0,1-8.93,3.52,13.79,13.79,0,0,1-9-3.63" fill="#e0e0e0"/><path d="M120.22,506a11.08,11.08,0,0,1-11.4-10.76,10.75,10.75,0,0,1,.2-2.47,10,10,0,0,1,11.57,13.12" fill="#e0e0e0"/><path d="M131.71,488.32A11.09,11.09,0,0,1,117.35,482a11.48,11.48,0,0,1-.64-2.45A10,10,0,0,1,132,488.09" fill="#e0e0e0"/><path d="M135.56,482.56a11.08,11.08,0,0,1,14.35,6.29,11.25,11.25,0,0,1,.65,2.47,10,10,0,0,1-15.27-8.54" fill="#e0e0e0"/><path d="M140.15,479.45a11.08,11.08,0,0,1-5.9-16.3,10,10,0,0,1,6.28,16.33" fill="#e0e0e0"/><path d="M151.91,480A11.08,11.08,0,0,1,161,465.23a10,10,0,0,1-8.84,15.1" fill="#e0e0e0"/><polyline points="104.49 559.53 98.23 520.19 146.25 520.78 141.52 559.02" fill="#123a53"/><path d="M125.22,513a8.17,8.17,0,0,0,8,.67,8.62,8.62,0,0,0,4.36-6.89,9.84,9.84,0,0,0-8-.4,9.64,9.64,0,0,0-5.29,5.92" fill="#f48225" data-secondary="true"/><path d="M147.17,521.48a8.17,8.17,0,0,0,8,.67,8.6,8.6,0,0,0,4.36-6.89,9.8,9.8,0,0,0-8-.4,9.69,9.69,0,0,0-5.3,5.92" fill="#f48225" data-secondary="true"/><path d="M134.85,502.56a8.18,8.18,0,0,0,6.28,4.95,8.61,8.61,0,0,0,7.44-3.36,9.23,9.23,0,0,0-14.1-2.68" fill="#f48225" data-secondary="true"/><path d="M142.86,512.36a8.23,8.23,0,0,0-7.17,3.55,8.6,8.6,0,0,0-.16,8.15A9.21,9.21,0,0,0,144,512.49" fill="#f48225" data-secondary="true"/><path d="M150.6,527.85a8.17,8.17,0,0,0,.19,8,8.6,8.6,0,0,0,7.32,3.59,9.76,9.76,0,0,0-.46-8c-1.26-2.3-3.53-3.43-6.38-4.08" fill="#f48225" data-secondary="true"/><path d="M163.36,529.67a5.5,5.5,0,0,0-1.9-1.21,8.51,8.51,0,0,0-2.6-.46,35,35,0,0,0-3.55.21,10.22,10.22,0,0,1-4.36-.38,6.6,6.6,0,0,1-3.6-3.48A19.29,19.29,0,0,1,145.8,519a15.58,15.58,0,0,0-1.85-5.45,19.43,19.43,0,0,0-4.07-4.13,19.58,19.58,0,0,1-3.88-3.94,13,13,0,0,1-1.94-9,12.73,12.73,0,0,1,2.36-5.81,9.23,9.23,0,0,1,1.15-1.27,3.5,3.5,0,0,1,.46-.39,2.82,2.82,0,0,1-.38.46,12.86,12.86,0,0,0-1.26,15.78,19.75,19.75,0,0,0,3.82,3.82,19.28,19.28,0,0,1,4.17,4.24A15.49,15.49,0,0,1,146.3,519a19.13,19.13,0,0,0,1.49,5.2,6.25,6.25,0,0,0,3.32,3.29,10.07,10.07,0,0,0,4.19.41,30.6,30.6,0,0,1,3.58-.13,7.87,7.87,0,0,1,2.67.56,4.3,4.3,0,0,1,1.44.93,3.17,3.17,0,0,1,.3.34C163.34,529.62,163.37,529.66,163.36,529.67Z" fill="#f48225" data-secondary="true"/><path d="M163.36,529.67a5.5,5.5,0,0,0-1.9-1.21,8.51,8.51,0,0,0-2.6-.46,35,35,0,0,0-3.55.21,10.22,10.22,0,0,1-4.36-.38,6.6,6.6,0,0,1-3.6-3.48A19.29,19.29,0,0,1,145.8,519a15.58,15.58,0,0,0-1.85-5.45,19.43,19.43,0,0,0-4.07-4.13,19.58,19.58,0,0,1-3.88-3.94,13,13,0,0,1-1.94-9,12.73,12.73,0,0,1,2.36-5.81,9.23,9.23,0,0,1,1.15-1.27,3.5,3.5,0,0,1,.46-.39,2.82,2.82,0,0,1-.38.46,12.86,12.86,0,0,0-1.26,15.78,19.75,19.75,0,0,0,3.82,3.82,19.28,19.28,0,0,1,4.17,4.24A15.49,15.49,0,0,1,146.3,519a19.13,19.13,0,0,0,1.49,5.2,6.25,6.25,0,0,0,3.32,3.29,10.07,10.07,0,0,0,4.19.41,30.6,30.6,0,0,1,3.58-.13,7.87,7.87,0,0,1,2.67.56,4.3,4.3,0,0,1,1.44.93,3.17,3.17,0,0,1,.3.34C163.34,529.62,163.37,529.66,163.36,529.67Z" fill="#f48225" data-secondary="true"/><path d="M71.68,533.7a12.15,12.15,0,0,0-16.44-12,20.26,20.26,0,0,0,16,11.82" fill="#f48225" data-secondary="true"/><path d="M68.51,535.37c-2.35,2.58-2.2,6.73-.52,9.79s4.57,5.23,7.47,7.17a15.78,15.78,0,0,0-6.79-17.9" fill="#f48225" data-secondary="true"/><path d="M79.89,523.28a14,14,0,0,0,15.3,12.56l.6-.07c-.91-3.78-2.42-7.58-5.34-10.14s-7.52-3.52-10.74-1.36" fill="#f48225" data-secondary="true"/><path d="M79.79,519.43c-.59-3.44-4-5.93-7.45-6.26s-6.9,1.16-9.68,3.26a12.6,12.6,0,0,0,17.17,1.7" fill="#f48225" data-secondary="true"/><path d="M61.92,548.66c-3.3,2.81-4.12,7.83-2.75,11.94s4.58,7.39,8.18,9.8c1.39-4.08,2.26-8.45,1.53-12.7s-3.29-8.34-7.23-10.07" fill="#f48225" data-secondary="true"/><path d="M79.28,509.79a10.14,10.14,0,0,1,14.08-2.65,10.4,10.4,0,0,1,1.92,1.71,8.75,8.75,0,0,1-15.8.4" fill="#f48225" data-secondary="true"/><path d="M83.32,499.88a13.18,13.18,0,0,1-16.44-8.79,12.76,12.76,0,0,1-.36-1.51,29.66,29.66,0,0,1,7.93.11,13,13,0,0,1,7,3.46,7,7,0,0,1,1.84,6.73" fill="#f48225" data-secondary="true"/><path d="M90.94,497.31a10.78,10.78,0,0,1-1.51-15.17,11,11,0,0,1,1.44-1.45,22.62,22.62,0,0,1,4.71,10.05,8.33,8.33,0,0,1,0,4.15,3.81,3.81,0,0,1-2.9,2.72" fill="#f48225" data-secondary="true"/><g opacity="0.4"><path d="M71.68,533.7a12.15,12.15,0,0,0-16.44-12,20.26,20.26,0,0,0,16,11.82"/></g><g opacity="0.4"><path d="M68.51,535.37c-2.35,2.58-2.2,6.73-.52,9.79s4.57,5.23,7.47,7.17a15.78,15.78,0,0,0-6.79-17.9"/></g><g opacity="0.4"><path d="M79.89,523.28a14,14,0,0,0,15.3,12.56l.6-.07c-.91-3.78-2.42-7.58-5.34-10.14s-7.52-3.52-10.74-1.36"/></g><g opacity="0.4"><path d="M79.79,519.43c-.59-3.44-4-5.93-7.45-6.26s-6.9,1.16-9.68,3.26a12.6,12.6,0,0,0,17.17,1.7"/></g><g opacity="0.4"><path d="M61.92,548.66c-3.3,2.81-4.12,7.83-2.75,11.94s4.58,7.39,8.18,9.8c1.39-4.08,2.26-8.45,1.53-12.7s-3.29-8.34-7.23-10.07"/></g><g opacity="0.4"><path d="M79.28,509.79a10.14,10.14,0,0,1,14.08-2.65,10.4,10.4,0,0,1,1.92,1.71,8.75,8.75,0,0,1-15.8.4"/></g><g opacity="0.4"><path d="M83.32,499.88a13.18,13.18,0,0,1-16.44-8.79,12.76,12.76,0,0,1-.36-1.51,29.66,29.66,0,0,1,7.93.11,13,13,0,0,1,7,3.46,7,7,0,0,1,1.84,6.73"/></g><g opacity="0.4"><path d="M90.94,497.31a10.78,10.78,0,0,1-1.51-15.17,11,11,0,0,1,1.44-1.45,22.62,22.62,0,0,1,4.71,10.05,8.33,8.33,0,0,1,0,4.15,3.81,3.81,0,0,1-2.9,2.72"/></g><path d="M104.11,521.46a1.22,1.22,0,0,1,0-.27,4.82,4.82,0,0,1,0-.79c0-.7.11-1.72.13-3a27.27,27.27,0,0,0-1.78-10.91,16.7,16.7,0,0,0-4.39-6.18,11.75,11.75,0,0,0-8-2.94,10.06,10.06,0,0,0-4.5,1.13,9,9,0,0,0-3.48,3.32c-1.74,2.88-2.18,6.48-2,10s.63,7.12.24,10.56a16.27,16.27,0,0,1-1.32,4.89,10.16,10.16,0,0,1-3,3.87,15,15,0,0,1-4.12,2.11A21.88,21.88,0,0,0,68.06,535,14,14,0,0,0,63,540.56a13.49,13.49,0,0,0-1.47,6.07,14.11,14.11,0,0,0,.77,4.69A17,17,0,0,0,64.09,555a1.54,1.54,0,0,1-.18-.2,5.87,5.87,0,0,1-.46-.65,12,12,0,0,1-1.37-2.73,14,14,0,0,1-.87-4.76,13.53,13.53,0,0,1,1.43-6.24,14.46,14.46,0,0,1,5.19-5.75c2.38-1.58,5.51-2,7.93-3.87s3.69-5.15,4.06-8.45-.12-6.86-.25-10.48.27-7.32,2.1-10.32a9.41,9.41,0,0,1,3.69-3.5,10.62,10.62,0,0,1,4.72-1.17,12.14,12.14,0,0,1,8.28,3.09,17.06,17.06,0,0,1,4.45,6.36,23.07,23.07,0,0,1,1.51,6.23,33.89,33.89,0,0,1,.13,4.83,24,24,0,0,1-.23,3,4.53,4.53,0,0,1-.1.78A.82.82,0,0,1,104.11,521.46Z" fill="#f48225" data-secondary="true"/><g opacity="0.4"><path d="M104.11,521.46a1.22,1.22,0,0,1,0-.27,4.82,4.82,0,0,1,0-.79c0-.7.11-1.72.13-3a27.27,27.27,0,0,0-1.78-10.91,16.7,16.7,0,0,0-4.39-6.18,11.75,11.75,0,0,0-8-2.94,10.06,10.06,0,0,0-4.5,1.13,9,9,0,0,0-3.48,3.32c-1.74,2.88-2.18,6.48-2,10s.63,7.12.24,10.56a16.27,16.27,0,0,1-1.32,4.89,10.16,10.16,0,0,1-3,3.87,15,15,0,0,1-4.12,2.11A21.88,21.88,0,0,0,68.06,535,14,14,0,0,0,63,540.56a13.49,13.49,0,0,0-1.47,6.07,14.11,14.11,0,0,0,.77,4.69A17,17,0,0,0,64.09,555a1.54,1.54,0,0,1-.18-.2,5.87,5.87,0,0,1-.46-.65,12,12,0,0,1-1.37-2.73,14,14,0,0,1-.87-4.76,13.53,13.53,0,0,1,1.43-6.24,14.46,14.46,0,0,1,5.19-5.75c2.38-1.58,5.51-2,7.93-3.87s3.69-5.15,4.06-8.45-.12-6.86-.25-10.48.27-7.32,2.1-10.32a9.41,9.41,0,0,1,3.69-3.5,10.62,10.62,0,0,1,4.72-1.17,12.14,12.14,0,0,1,8.28,3.09,17.06,17.06,0,0,1,4.45,6.36,23.07,23.07,0,0,1,1.51,6.23,33.89,33.89,0,0,1,.13,4.83,24,24,0,0,1-.23,3,4.53,4.53,0,0,1-.1.78A.82.82,0,0,1,104.11,521.46Z"/></g><path d="M174,512.88a10.33,10.33,0,0,0,.72-3.52,8.72,8.72,0,0,0-.94-4.07,8.52,8.52,0,0,0-3.91-3.78,9,9,0,0,0-3.09-.83,10.33,10.33,0,0,0-3.45.4c-2.35.62-4.68,2-7.47,2.51a8.78,8.78,0,0,1-4.32-.1,6.57,6.57,0,0,1-3.53-2.82c-1.68-2.6-2.15-5.87-4.18-8.26a8.11,8.11,0,0,0-3.79-2.48,10.73,10.73,0,0,0-4.43-.45,11.36,11.36,0,0,0-7.37,3.83,17.13,17.13,0,0,0-3.66,6.77,20.61,20.61,0,0,0-.82,6.71,71.89,71.89,0,0,0,1.25,9.81l.45,2.66a3.56,3.56,0,0,0,.11.69v.24a.68.68,0,0,0-.07-.23l-.16-.68c-.13-.65-.32-1.53-.55-2.64a66.66,66.66,0,0,1-1.42-9.84,20.52,20.52,0,0,1,.77-6.84,17.57,17.57,0,0,1,3.72-7,13.31,13.31,0,0,1,3.37-2.7,11.67,11.67,0,0,1,8.95-.86,8.79,8.79,0,0,1,4,2.64c2.14,2.57,2.6,5.85,4.21,8.32a5.94,5.94,0,0,0,3.25,2.62,8.17,8.17,0,0,0,4.08.11c2.68-.51,5-1.83,7.45-2.45a10.36,10.36,0,0,1,3.59-.39,9.06,9.06,0,0,1,3.22.9,8.67,8.67,0,0,1,4.89,8.18,8.06,8.06,0,0,1-.52,2.66A4,4,0,0,1,174,512.88Z" fill="#f48225" data-secondary="true"/><path d="M146,495.45a9.32,9.32,0,0,0,8.57.56,8.65,8.65,0,0,0,4.36-6.89,9.88,9.88,0,0,0-8-.41,9.7,9.7,0,0,0-5.29,5.92" fill="#f48225" data-secondary="true"/><path d="M155.06,503.71a9.29,9.29,0,0,0,4,7.6,8.62,8.62,0,0,0,8.16.14,9.82,9.82,0,0,0-3.8-7,9.69,9.69,0,0,0-7.81-1.43" fill="#f48225" data-secondary="true"/><path d="M170.85,501.88a9.36,9.36,0,0,0,8.58-.36,8.61,8.61,0,0,0,3.6-7.31,9.21,9.21,0,0,0-12,5,9,9,0,0,0-.56,1.9" fill="#f48225" data-secondary="true"/><path d="M132.69,490c-2.3-2-3.85-5.47-3.41-8.08a8.67,8.67,0,0,1,5.3-6.21,9.84,9.84,0,0,1,2.74,7.48,9.71,9.71,0,0,1-4.09,6.81" fill="#f48225" data-secondary="true"/><path d="M71,478.67a1,1,0,0,1,.09-.21l.32-.59c.29-.51.74-1.25,1.39-2.17a23.4,23.4,0,0,1,6.87-6.5,17.26,17.26,0,0,1,6.17-2.26,15.16,15.16,0,0,1,7.49.79A12.23,12.23,0,0,1,99.76,473c1.47,2.57,1.94,5.59,2.8,8.48a15.46,15.46,0,0,0,1.79,4,12.25,12.25,0,0,0,3.05,3c1.14.84,2.34,1.61,3.43,2.49a15.27,15.27,0,0,1,2.79,3,18.64,18.64,0,0,1,2.85,7,24.47,24.47,0,0,1,.38,6.56,49.91,49.91,0,0,1-1.67,9.32c-.29,1.08-.53,1.92-.69,2.48a5,5,0,0,1-.28.85,4.44,4.44,0,0,1,.18-.88c.14-.61.34-1.45.59-2.5a54.15,54.15,0,0,0,1.51-9.3,24.44,24.44,0,0,0-.44-6.44,18.14,18.14,0,0,0-2.83-6.79,14.34,14.34,0,0,0-2.7-2.91c-1.06-.86-2.26-1.61-3.42-2.47a12.91,12.91,0,0,1-3.18-3.12,15.5,15.5,0,0,1-1.85-4.18c-.87-2.94-1.35-5.91-2.76-8.37a11.71,11.71,0,0,0-6.13-5.06,15.08,15.08,0,0,0-7.26-.8,16.49,16.49,0,0,0-6,2.15,24.13,24.13,0,0,0-6.9,6.3c-.67.89-1.14,1.61-1.46,2.11Q71.31,478.3,71,478.67Z" fill="#f48225" data-secondary="true"/><path d="M108.79,489.25c-.79-.74-1.18-.22-2.25,0a6.7,6.7,0,0,0-2.88,1.44,12.17,12.17,0,0,0-3.94,12.75,9.48,9.48,0,0,0,8.66-14.26" fill="#f48225" data-secondary="true"/><path d="M76.11,474.39c-.4-1-1-.71-2-1a6.75,6.75,0,0,0-3.22.06,12.15,12.15,0,0,0-9,9.81,9.48,9.48,0,0,0,13.9-9.08" fill="#f48225" data-secondary="true"/><path d="M115.93,509.35a11,11,0,0,0-17.2.84,13.47,13.47,0,0,0,8.92,3.52,13.79,13.79,0,0,0,9-3.63" fill="#f48225" data-secondary="true"/><path d="M113.25,494.34a11.08,11.08,0,0,0,11.41-10.74,11.53,11.53,0,0,0-.21-2.49,10,10,0,0,0-11.57,13.12" fill="#f48225" data-secondary="true"/><path d="M101.79,476.69a11.09,11.09,0,0,0,14.36-6.33,10.75,10.75,0,0,0,.64-2.43,10,10,0,0,0-15.27,8.53" fill="#f48225" data-secondary="true"/><path d="M97.91,470.93a11.09,11.09,0,0,0-14.36,6.34,10.67,10.67,0,0,0-.64,2.42,10,10,0,0,0,15.32-8.51" fill="#f48225" data-secondary="true"/><path d="M93.33,467.82a11.09,11.09,0,0,0,7-14.06,11.72,11.72,0,0,0-1-2.24,10,10,0,0,0-6.29,16.33" fill="#f48225" data-secondary="true"/><path d="M81.56,468.39a11.09,11.09,0,0,0-6.63-14.21,11.4,11.4,0,0,0-2.37-.58,9.95,9.95,0,0,0,8.83,15.1" fill="#f48225" data-secondary="true"/><polygon points="97.61 554.97 101.29 559.53 146.49 559.53 149.57 554.97 97.61 554.97" fill="#123a53"/><path d="M148.57,554.93c0,.14-11.1.26-24.8.26S99,555.07,99,554.93s11.11-.26,24.81-.26S148.57,554.79,148.57,554.93Z" fill="#455a64"/><path d="M143.49,537.77a2.64,2.64,0,0,1-.28.37,8.72,8.72,0,0,1-.92,1,16.84,16.84,0,0,1-4,2.8,17.65,17.65,0,0,1-7,1.81,17.41,17.41,0,0,1-4.32-.36,25.22,25.22,0,0,1-4.4-1.46c-2.91-1.24-5.56-2.65-8.14-3.48a14.13,14.13,0,0,0-7-.67,9,9,0,0,0-4.31,2c-.86.75-1.19,1.31-1.24,1.28a2.38,2.38,0,0,1,.23-.41,7.51,7.51,0,0,1,.87-1,9,9,0,0,1,4.37-2.21,14.23,14.23,0,0,1,7.26.58c2.64.81,5.31,2.22,8.19,3.45a25.07,25.07,0,0,0,4.31,1.44,16.86,16.86,0,0,0,4.19.38,17.79,17.79,0,0,0,6.91-1.66A21.29,21.29,0,0,0,143.49,537.77Z" fill="#455a64"/><path d="M143.94,534.24a1.73,1.73,0,0,1-.31.35,10.69,10.69,0,0,1-1,.9,18.62,18.62,0,0,1-4.18,2.6,19.39,19.39,0,0,1-7.1,1.69,19.05,19.05,0,0,1-4.33-.29,26.75,26.75,0,0,1-4.47-1.26c-3-1.08-5.72-2.33-8.34-3.06a16.69,16.69,0,0,0-7.09-.64,10.62,10.62,0,0,0-4.47,1.71c-.94.66-1.35,1.16-1.39,1.12s.08-.14.28-.37a7.21,7.21,0,0,1,1-.91,10.19,10.19,0,0,1,4.53-1.91,16.46,16.46,0,0,1,7.28.54c2.67.72,5.43,2,8.38,3a29.27,29.27,0,0,0,4.39,1.25,19.28,19.28,0,0,0,4.22.32,19.85,19.85,0,0,0,7-1.56A24.18,24.18,0,0,0,143.94,534.24Z" fill="#455a64"/></g><g id="a5a722c6-2a77-4454-a888-d5e49654ee29" data-name="freepik--Boxes--inject-88"><rect x="38.69" y="601.56" width="96.13" height="64.34" fill="#00aeef"/><g opacity="0.4"><rect x="38.69" y="601.56" width="96.13" height="64.34"/></g><rect x="115.32" y="601.65" width="7.63" height="13.05" fill="#ff725e"/><rect x="114.48" y="652.86" width="7.63" height="13.05" fill="#ff725e"/><path d="M66.2,665.77c-.14,0-.26-14.42-.26-32.21s.12-32.21.26-32.21.26,14.42.26,32.21S66.35,665.77,66.2,665.77Z" fill="#263238"/><path d="M100.28,636.6c0,.15-13.85.26-30.94.26s-30.95-.11-30.95-.26,13.85-.26,31-.26S100.28,636.46,100.28,636.6Z" fill="#263238"/><path d="M67.73,601.41A17.2,17.2,0,0,1,70,599.75a25.06,25.06,0,0,1,12.78-4,4.86,4.86,0,0,1,1.61.13,1.48,1.48,0,0,1,1.06,1.34,2.15,2.15,0,0,1-.68,1.64,4.3,4.3,0,0,1-1.56.91,30.4,30.4,0,0,1-15.83,1.54h-.2v-.2a38.66,38.66,0,0,1,2.31-10,36,36,0,0,1,2.32-5,6.59,6.59,0,0,1,1.9-2.17,3.56,3.56,0,0,1,2.92-.55,3.06,3.06,0,0,1,2,2.26,5,5,0,0,1-.31,3,25.84,25.84,0,0,1-3.15,5.15,33.49,33.49,0,0,1-9.23,8.32l-.1.06h-.1l-1.1-.28-1.12-.38a19.37,19.37,0,0,1-8.06-5.68,18.36,18.36,0,0,1-2.63-4.1,4.6,4.6,0,0,1-.62-2.4,1.32,1.32,0,0,1,.8-1.11,1.88,1.88,0,0,1,1.32.06,19.46,19.46,0,0,1,11.1,13.3l-.45.14A52.17,52.17,0,0,1,61.11,582a6,6,0,0,1,.4-2.25,2.4,2.4,0,0,1,.69-1,1.85,1.85,0,0,1,1.11-.37,2.23,2.23,0,0,1,1.81,1.18,6.33,6.33,0,0,1,.77,1.91,57.83,57.83,0,0,1,1,7.18,55,55,0,0,1-.25,10.18c-.14,1.18-.28,2.07-.39,2.67,0,.29-.1.51-.13.69s0,.23-.06.22v-.23a3.81,3.81,0,0,1,.09-.69c.09-.6.2-1.5.32-2.67a59.32,59.32,0,0,0,.12-10.15,57,57,0,0,0-1-7.12,5.66,5.66,0,0,0-.74-1.8,1.9,1.9,0,0,0-1.51-1,1.63,1.63,0,0,0-1.45,1.11,5.42,5.42,0,0,0-.36,2.11,52.23,52.23,0,0,0,3.88,19.59l-.45.14A19,19,0,0,0,54.1,588.78a1.44,1.44,0,0,0-1-.07.84.84,0,0,0-.49.71,4,4,0,0,0,.59,2.11,17.6,17.6,0,0,0,2.54,4,18.93,18.93,0,0,0,7.85,5.53l1.09.37,1.07.27h-.19a33.37,33.37,0,0,0,9.09-8.19,25.71,25.71,0,0,0,3.09-5A4.43,4.43,0,0,0,78,585.8a2.57,2.57,0,0,0-1.64-1.91,3.1,3.1,0,0,0-2.51.47,6.22,6.22,0,0,0-1.75,2,35.82,35.82,0,0,0-2.3,4.9,38,38,0,0,0-2.24,9.92l-.17-.23A30.22,30.22,0,0,0,83,599.52a4.28,4.28,0,0,0,1.45-.83,1.76,1.76,0,0,0,.59-1.38,1.15,1.15,0,0,0-.83-1.06,4.74,4.74,0,0,0-1.5-.12,24.64,24.64,0,0,0-5.54.75,25.31,25.31,0,0,0-7.18,3c-.78.47-1.34.87-1.72,1.14S67.73,601.41,67.73,601.41Z" fill="#263238"/><rect x="100.09" y="559.82" width="158.6" height="106.15" fill="#f48225" data-secondary="true"/><g opacity="0.2"><rect x="203.55" y="559.82" width="55.14" height="106.15"/></g><rect x="226.52" y="559.96" width="12.59" height="21.53" fill="#ff725e"/><rect x="225.14" y="644.45" width="12.59" height="21.53" fill="#ff725e"/><path d="M145.48,665.75c-.14,0-.26-23.79-.26-53.14s.12-53.14.26-53.14.26,23.79.26,53.14S145.63,665.75,145.48,665.75Z" fill="#263238"/></g></svg>