<svg id="eb289041-072a-46e3-8553-98a7a40932d9" data-name="Layer 1" xmlns="http://www.w3.org/2000/svg" width="865.76" height="682.89" viewBox="0 0 865.76 682.89"><path d="M574.83,367.66s-11.16,15.74-15.57,23.72a8.73,8.73,0,0,1-2.14,2.54c-2.6,2.12-8.32,7.4-11.18,14.88a12.63,12.63,0,0,1-3.43,4.95c-4,3.63-11.09,12.3-6.26,25.74,0,0,4,21.11,8.37,26.2,0,0,20.75,65.88,25.48,79.35l7.28,22.2s16.19,5.3,30.21-1.82l-6.43-38.94a14.72,14.72,0,0,1,.06-5.17c1.29-6.77,3.36-29.06-12.54-70.45a9.73,9.73,0,0,1,2-10.24c4.28-4.5,11-10.82,16.53-12.42,0,0,16-5.4,21.82-10L590.3,385.46S579.92,378.46,574.83,367.66Z" fill="#f9b499"/><path d="M676.19,410.25s3,40.69,10.73,52.55a13.67,13.67,0,0,1,1.93,4.53c.55,2.41,2.65,6.36,9.95,10.28a14.73,14.73,0,0,1,3.18,2.32c4.09,3.87,15.2,14.26,21.31,18.71A21.85,21.85,0,0,1,727,502c8.63,9.86,46,52.35,60.08,64.54l4.17,3.64s19.46.25,20.21-10.73l-17-30.94L785,512s-8.09-18.71-17.59-27a15.8,15.8,0,0,1-2.08-2.17c-2.83-3.58-11.62-14.19-22.89-22.34a25.06,25.06,0,0,1-7.95-9.22,8.05,8.05,0,0,1-1.13-4.11s4.74-26.94,4.74-31.93c0,0-6.32,13.32-30.34,8.73a56.69,56.69,0,0,1-21.55-8.87C683.3,413.11,678.8,410,676.19,410.25Z" fill="#f9b499"/><path d="M554.87,222.59s.58,19.91,9,26.26a18,18,0,0,1,4.9,5.77l4.78-3.38s-6.32-.16-17.45-27.27Z" fill="#f9b499"/><path d="M446.77,137s4.82-1.06,6.28-.42c0,0,.87-6.37,3.33-8.47C456.38,128.1,450.76,129.9,446.77,137Z" fill="#f48225" data-secondary="true"/><path d="M446.77,137s4.82-1.06,6.28-.42c0,0,.87-6.37,3.33-8.47C456.38,128.1,450.76,129.9,446.77,137Z" opacity="0.2"/><path d="M537.74,136.32s4.24,2,5.49,5.24H549s-7.75,8.55-6,18.21c0,0-4.46,12.46.75,22.2,0,0,.5,15.22,2,18,0,0-12.72-9.72-19.2-10.47,0,0-11-3.5-15.22-7a10.29,10.29,0,0,0-12.48,1.25s13.87-12.68,3.94-40.39c0,0,6.88-.36,3.72-15.66,0,0,2.12-2.28,9.64,9C516.12,136.65,519.66,143.93,537.74,136.32Z" fill="#f9b499"/><path d="M545.15,198.12s7.79,23.67,10.9,25.85c0,0,8,23.78,17.45,27.27l12-8.62a28.78,28.78,0,0,0,4.14-2.85,96.74,96.74,0,0,0,16-17.81l-5.9-3.22a63.37,63.37,0,0,1-9.89,2.71c-16.23,3.14-31.76-5.46-38.86-20.39-2.43-5.12-5.42-11.13-7.23-19.09C543.73,182,544.08,193.4,545.15,198.12Z" fill="#686175" data-primary="true"/><path d="M597.91,269.43s10.17,10.17,11.68,13.41a12.91,12.91,0,0,0,4.62,5.39,22.05,22.05,0,0,1,4.67,3.64,10.24,10.24,0,0,0,4,2.61,13.71,13.71,0,0,1,3.8,2.1c2.95,2.29,8.5,6.14,11.87,5.53,0,0-.21,1.94,3.25,3,0,0-5.55,7.05-10.53,9.86a47.11,47.11,0,0,0-4.33,2.81c-7.09,5-24,17.3-30.11,24.32,0,0-16.55,16.05-22,25.53,0,0,3.16,9.15,15.47,17.8l38.75,32.76s3.49.33,14-7.48c0,0,14.47-9.32,24.45-19.63l5.73-4.82S673,405,674.7,409a7.37,7.37,0,0,0,4.18,3.27,18.78,18.78,0,0,1,3.62,1.35,68.73,68.73,0,0,1,6,3.53,49.31,49.31,0,0,0,12.48,6c10.83,3.35,28.84,6,37.87-8.73a6.07,6.07,0,0,0,.85-3.46l-.66-12.18-1.24-32.18s.74-14.22,5.73-21c0,0,17.22-28.43,2.5-58.37a153.45,153.45,0,0,0-19-23.7l-14.22-16s-21.46-29.18-39.17-42.16c0,0-26.67-24.3-36.15-36a32.1,32.1,0,0,1,2,16.32S651,197.86,655,202.51c0,0,12.72,10.4,9.48,23.62,0,0-1.74,6.07-13,10.64,0,0-16.47,17.8-33.68,23.79Z" fill="#686175" data-primary="true"/><path d="M576.28,277.39s3.12,18.34,10.61,24.58c0,0-10.77,2.18-21,4.58a56.37,56.37,0,0,1-16.63,1.39c-8.34-.54-20.66-1.52-28.59-2.93a16.77,16.77,0,0,1-9.64-5.41,54.84,54.84,0,0,0-9.65-8.76,19.08,19.08,0,0,0-3.88-2c-2.26-.87-6.86-3.18-8.72-8.14a4.79,4.79,0,0,0-.74-1.35c-.06-.08-.13-.15-.2-.23a2.48,2.48,0,0,0-4.36,1.72c.11,2.81,1.39,6.94,6.57,11.29,0,0,5.12,4.12,1.62,4.24,0,0-6.23,2.12-10.22,2.12l-28.79.69a2.72,2.72,0,0,0-2.65,2.71h0a2.72,2.72,0,0,0,2.72,2.72h22.68a1.67,1.67,0,0,1,1.67,1.67h0a1.66,1.66,0,0,1-1.59,1.66c-5.15.25-21.45.84-27.79,1.07a2.65,2.65,0,0,0-2.55,2.65h0a2.66,2.66,0,0,0,2.8,2.65l25.83-1.41A1.13,1.13,0,0,1,475,314h0a1.12,1.12,0,0,1-1.06,1.12l-22.61,1.19a2.53,2.53,0,0,0-2.4,2.53h0a2.53,2.53,0,0,0,2.7,2.53l25.82-1.7a1.63,1.63,0,0,1,1.74,1.56h0a1.63,1.63,0,0,1-1.23,1.65l-17.74,4.54a2.22,2.22,0,0,0-1.65,2.47h0a2.22,2.22,0,0,0,2.69,1.86l22.1-5s13.72,3.24,30.18-3c0,0,58.63,15.34,85.57,9.85,0,0,18.21.75,22.95-6,0,0,3.49-19.71-5.74-38.17,0,0-5-2.07-6.73-6.65,0,0-6.9-9.28-11.68-13.41Z" fill="#f7ab94"/><path d="M820.91,569.28h0a35.89,35.89,0,0,0-7.57-8.32l-1.93-1.54s.21,6.53-10.74,9.42a43.73,43.73,0,0,1-9.47,1.31l-3.57-3.08s-6.75,6.39,1.58,13.15a7.82,7.82,0,0,1,1.61,1.74l3.3,4.89s19.59-1.43,27.64-5.25a6,6,0,0,0,3-3.14,5.16,5.16,0,0,0,.36-1.56,2.46,2.46,0,0,0-1.12-2.18Z" fill="#ccc"/><path d="M794.12,586.85c-.44,0,.69,2.09,1.63,3.68a1.44,1.44,0,0,1-1,2.16c-5.19.92-18.26,3.72-19.19,8.64,0,0-5.16,12.64,10.81,14.64,0,0,5.92,2,23.51-.87a6,6,0,0,1,3.35.42c4.36,1.89,16.9,6.7,26.36,4.27,0,0,13.3-3.66,9.15-13.47,0,0-.89-4.9-9.26-11.46a14.43,14.43,0,0,1-2.77-2.86L825,575.72s1.5,5.32-6.82,7.15A119.2,119.2,0,0,1,794.12,586.85Z" fill="#f48225" data-secondary="true"/><path d="M577.38,567.24s-3.38,3.38-3,5.3a8.76,8.76,0,0,1,.24,1.24l1.27,13.74S594.07,592,612,584.83L610.49,577a12.47,12.47,0,0,1,.26-5.33c.3-1.24-.08-3.27-3.16-6.23A47.69,47.69,0,0,1,577.38,567.24Z" fill="#ccc"/><path d="M575.92,587.52s3.8,6,1.2,7.79c-.48.33-1,.63-1.45,1-3.39,2.52-15.61,11.18-28.89,15.39a20.24,20.24,0,0,0-7.08,3.8l-.1.08a9.51,9.51,0,0,1-6.66,2.33c-7.28-.35-21.37,0-20.87,8.17,0,0-2.85,7,20.86,8.9l.87.07c24.65,1.79,86.26-1.35,86.26-1.35s5.38-.45,4.71-10.3c0,0-.68-11-5.16-17.26a43.47,43.47,0,0,1-4.32-13.66,15.63,15.63,0,0,0-3.29-7.62h0S601,591.55,575.92,587.52Z" fill="#f48225" data-secondary="true"/><path d="M328.85,98.07a73.65,73.65,0,0,1-10,10.32,6.26,6.26,0,0,1-4.29,1.3c-3.5-.25-10.52-.5-15.19,1a13.73,13.73,0,0,1-4.32.62c-5.11,0-16.11,0-20.76.7,0,0-13.3,4.16-9.81,8.48,0,0,1.83,2.29,21.06-4.12a85.69,85.69,0,0,1,22.31-4.61c10.14-.55,23.65-2.58,33.8,9.23l5.16,6.65s4.44-14,7.65-20.12c0,0-2.39-1.23-2.38-5.46a13.05,13.05,0,0,1,4.76-9.84,21.81,21.81,0,0,1,6.21-3.8,13.11,13.11,0,0,0-13,3.79S344.15,99.57,328.85,98.07Z" fill="#f9b499"/><path d="M274.3,112s-14.95-1.29-36.58,14.75l-19.39,15.29a60,60,0,0,0-19,25.73L190,182.72,173.21,217l-11.56,22.38s-8.21,18.64-11.56,22c0,0-19.77,23.49-13.05,53.7l-20.89,74.21s.38,19.76,22,25.36c0,0,16.41,4.1,26.11-5.22L169.48,399s16.41-25,18.65-32.45c0,0,7.83-10.81,13.05-11.93a68.87,68.87,0,0,1,27.22,12.68s10.07,5.59,15.66,12.3c0,0,15.67,16.41,29.84,24.24,0,0,9,9.7,12.68,8.58,0,0,8.18-4.37,27.47-20.5,0,0,19.29-15.8,22.95-21.62,0,0-17.54-23.95-27-34.67,0,0-11.48-12-20-16.72a63.08,63.08,0,0,1-23.15-40.79,6.52,6.52,0,0,0-.16-.74,70.24,70.24,0,0,0-3-8.69s-1.15-2.55-.21-4.08a5.5,5.5,0,0,0,.8-1.94c.33-2,.71-5.89-.59-7.79,0,0,5.32-2.83,16.63-21a33.6,33.6,0,0,0,8.32-7s9.64-3.66,14.3-9.15c0,0-15-7.4-24.78-18.12,0,0-21.87-6.16-5-27.78,0,0-8.57-16.38,2.66-34.59,0,0,4.49-16,27.94-18,0,0,10.23-5.24,20-.25,0,0,9.81-1.58,22.45,10.39l.67-1.83s-6.16-9.64-13.48-13.3c0,0-12.8-7.65-44.24.66,0,0-18.33,6.89-24,5.62a1.55,1.55,0,0,1-1.14-2C264.51,117.06,266.65,114.41,274.3,112Z" fill="#686175" data-primary="true"/><path d="M262.75,113.78s-4.95,4.07-3.45,7.55a3.28,3.28,0,0,0,2.36,1.85c2.21.48,7.27.73,16-4.42,0,0-9.05,2.54-12.42,1.86a1.38,1.38,0,0,1-1.08-.73c-.49-1.3.06-4.48,10.18-7.85C274.3,112,270.28,111.6,262.75,113.78Z" fill="#fff"/><path d="M269.94,176.73s-14.76-31.5,11.4-51.83c0,0,24.35-20.52,61.38-2l4.1,4.78-.67,1.83s-11-11-22.45-10.39c0,0-10.6-5.24-20,.25,0,0-22.78,2-27.94,18,0,0-11,14.8-2.66,34.59C273.14,171.91,270.3,176.22,269.94,176.73Z" fill="#fff"/><path d="M266.9,278.24c-3.14-6.89-11.3-14.46-16.26-18a55.17,55.17,0,0,0-7.4-4.41,31.68,31.68,0,0,1-3.8-2.31,76.72,76.72,0,0,0-20.18-10.25,202.24,202.24,0,0,0-36.09-8.4,30.52,30.52,0,0,0-17.78,3l-3.88,1.86.15-.32.18-.35,3.29-1.71a31.14,31.14,0,0,1,18.11-3.07,201.82,201.82,0,0,1,36.2,8.43A77.22,77.22,0,0,1,239.77,253a31.34,31.34,0,0,0,3.73,2.27,55.72,55.72,0,0,1,7.48,4.46c6.12,4.4,13.61,11.18,15.84,18Z" fill="#fff"/><path d="M233.4,249.72l-.52-.28c3.13-5.84,9.14-10.71,13.63-13.77a16.93,16.93,0,0,1,14.17-2.25c4.87,1.38,12.2,2.55,19.52.25l.18.55c-7.46,2.35-14.92,1.17-19.86-.24a16.36,16.36,0,0,0-13.69,2.18C242.4,239.17,236.47,244,233.4,249.72Z" fill="#fff"/><path d="M336.42,371.32s11.73,17.21,14.72,25.2c0,0,9,8.73,16.71,16,0,0,9.48,3.74,9.23,28.44,0,0-1.24,15.22,2.25,22.45,0,0,8.48,35.18,9.48,42.66,0,0,10.56,54.89,9.73,60.54,0,0-17.46,8.15-31.27,9.65,0,0-4.49-21.46-9.81-36.09,0,0-16.8-21.12-18.54-54.55,0,0-3.94-19.5-4.34-28.1A8.53,8.53,0,0,0,332,451.8L316,435.93l-29.38-23.49S316,393.77,336.42,371.32Z" fill="#f9b499"/><path d="M367.27,576.22s-.73,6.07.77,10.55a7.86,7.86,0,0,1,.31,4.32c-.34,1.4,0,3.79,2.92,7.57,0,0,24.31-3.21,36.18-9.42,0,0-1.32-13.94-7.16-18.47,0,0,1.21-3.69-1.75-4.2C398.54,566.57,381.73,574.88,367.27,576.22Z" fill="#ccc"/><path d="M371.27,598.66l.38,10a4.37,4.37,0,0,1,.38,4.71s-1.32,3.58.18,4.9c0,0-5.27,7.54-2.63,9.8,0,0-2.08,10.74,6,11.49l86.28-6s7.92-1.32,5.28-8.1c0,0,0-7.16-13.38-6.59,0,0-30.33-9.8-37.49-14.32l-6.22-8.29-2.63-7S396.71,595.45,371.27,598.66Z" fill="#f48225" data-secondary="true"/><path d="M401.61,572.85s7.91-1.51,10.17,3.39c0,0-.38,11.68-3.77,14.88l-.56-1.88S406.32,578.12,401.61,572.85Z" fill="#f48225" data-secondary="true"/><path d="M117.3,395.54S114.84,430.15,98.77,448l-8,10.72s-27,20.61-36,55.29c0,0-14.72,47.89-16.21,51.39,0,0,18.95,6.23,26.44,5,0,0,12-25.2,22.2-37.42a277.89,277.89,0,0,0,23-39.41A49,49,0,0,1,122,477.94c6.94-6.14,16.6-15.61,19.9-23.26a66,66,0,0,1,4.23-8c4.47-7.41,12.35-21.6,16.15-35.43A32,32,0,0,1,126.37,409S120.45,404.79,117.3,395.54Z" fill="#f9b499"/><path d="M38.56,565.41s-5.05,4.56-4.43,8.89a7.71,7.71,0,0,1-.87,4.78,4.52,4.52,0,0,1-1.61,1.81,7.27,7.27,0,0,0-3.11,3.1c-1,2.15-1.17,5,3.61,6.53l29.27,2.33.34-7.32s2.32-1.33,2.32-7c0,0,2.5-3,.92-8.14C65,570.4,62.59,571.89,38.56,565.41Z" fill="#ccc"/><path d="M27.83,586.86s-4,9.31-3.33,12c0,0-11.64,18.63-5.65,30.27,0,0,14,7.32,28.6,0,0,0,16.63,1.67,21.29-8,0,0,4.33-4.32-10.64-12.64,0,0,4-4,3.32-15.63l-29.27-2.33S30.49,591.52,27.83,586.86Z" fill="#f48225" data-secondary="true"/><path d="M324.78,273.71c9.8,3.27,23.86,5.31,23.86,5.31l18.47,8.9a2.8,2.8,0,0,0,3.57-1h0a2.79,2.79,0,0,0-1.15-4l-14.14-6.79a2.52,2.52,0,0,1-1.19-3.35h0a2.52,2.52,0,0,1,3-1.33l23.63,7.25a2.67,2.67,0,0,0,3.38-1.93h0a2.67,2.67,0,0,0-1.86-3.18l-22.3-6.43a1.67,1.67,0,0,1-1.2-1.6h0a1.66,1.66,0,0,1,2-1.63l25,4.58a3,3,0,0,0,3.51-2.47h0a3,3,0,0,0-2.47-3.47l-26.21-4.44a2.11,2.11,0,0,1-1.76-2.08h0a2.12,2.12,0,0,1,2-2.11l22.76-1.68a2.25,2.25,0,0,0,2.09-2.39h0a2.25,2.25,0,0,0-2.13-2.13l-34.16-1.88c-7.73-1.75-7.48-4.49-7.48-4.49-1.5-3.25,9-9.73,9-9.73l-10.73-1.75c-.75,3.49-11.22,11.73-11.22,11.73a12.52,12.52,0,0,0-5.24,3.49,27.31,27.31,0,0,1-9.23,5c-20.71,2.74-45.36.08-45.36.08a26.47,26.47,0,0,1-5.45,4.74,13.79,13.79,0,0,1,.59,7.79s-2.23,3.1-.59,6c0,0,1,9,6.82,8.48.79.39,31.84-3.09,44.59-4.54A22.39,22.39,0,0,1,324.78,273.71Z" fill="#f9b499"/><path d="M697.24,262c-10.38-23.69-59.42-12.2-59.91-12.08l-.14-.56a124.7,124.7,0,0,1,26.09-3.28c18-.17,30.11,5.68,34.5,15.69Z" fill="#fff"/><path d="M641.84,305.14l-.43-.16c.05-.11,5.79-10.94,23.91-18.84.17-.11,21.2-13.07,31.88-24.29a27.4,27.4,0,0,1,10-6.82c4.5-1.72,8.46-1.85,11.92-.39l.51.59c-3.32-1.4-7.86-1.32-12.22.35a26.78,26.78,0,0,0-9.83,6.67c-10.73,11.28-31.82,24.27-32,24.4C647.64,294.48,641.89,305,641.84,305.14Z" fill="#fff"/><path d="M507.81,181.09s-4.45-1.91-9.73,3.38c0,0,4.46-40.95,4.9-41.83S514.42,161.93,507.81,181.09Z" fill="#f7ab94"/><ellipse cx="479.28" cy="153.16" rx="25.58" ry="37.33" transform="translate(-23.68 167.34) rotate(-19.34)" fill="#f9b499"/><path d="M446.77,137s-12.47-16.64,19.62-40.75c0,0,25.28-21.46,47.24-4.49,0,0,12.41,5.57,16.69,27.77a13.16,13.16,0,0,0,1,3.18c1.62,3.48,5.44,11.29,7.88,13,0,0-18.13,8.81-23.12,1,0,0-7.15-10.64-9.64-9l-14.64-1.49s-4.13,4.53-2.85,9.06a1.08,1.08,0,0,1-1.22,1.38,12.71,12.71,0,0,1-8.09-4.58,13.91,13.91,0,0,0-8-5.08C465,125.34,454.37,125.27,446.77,137Z" fill="#f48225" data-secondary="true"/><ellipse cx="500.73" cy="129.89" rx="8.54" ry="13.54" transform="translate(-16.49 120.69) rotate(-13.52)" fill="#f9b499"/><path d="M526.92,267.85c-3.95-2.84-5.17-6.16-4.61-7.55a1.49,1.49,0,0,1,2.07-.79,116.73,116.73,0,0,0,11.55,5,45.87,45.87,0,0,0-4.67,1.5A32.57,32.57,0,0,0,526.92,267.85Z" fill="#f7ab94"/><path d="M543.73,182s9,41.87,32.1,40.79c0,0,15.83.27,23.88-4l5.9,3.22s-11.86,15.52-20.12,20.66c0,0-23.61,17.44-32.2,22,0,0-4.07,1.09-6.57.09,0,0-8.31-3.16-19.12,2.66L509,274.78a15.49,15.49,0,0,0-5.11,3.34c-4,4-11.35,12-7.4,14.87,0,0-5.66,7.31-1.33,9.64,0,0-2.17,4.33,3.32,4.66L510,297.48s9-7.65,12.8-4.33c0,0,2.17,1.17-.33,3.5l-13.3,16s-.67,2.16,1.16,3c0,0,2.16.66,5.16-1.67,0,0,11.64-13.3,13.13-16,0,0,18.8-2.83,31.44-15.14,0,0,49.47-13.8,75.17-31,0,0,12.31-10.06,16.3-15,0,0,16.13-5.82,13.47-16.46,0,0-.66-9.65-10-17.8,0,0-12.14-14.47-15.46-16.79,0,0,4.82-16-12.64-29.44,0,0-10.32-11.81-19.46-11.81,0,0-7-5.49-14.47-5.49,0,0-3.86-5.24-13.71-3.54a25.58,25.58,0,0,1-6.24.28,40.08,40.08,0,0,0-24.21,6.09s-8.06,7.65-5.82,18C543,159.77,537.74,172.24,543.73,182Z" fill="#f9b499"/><path d="M599.71,218.74s-9-3.92-11.66-7.16c0,0-12.37-12.08-18.85-11.2,0,0-10.32,1.77-9.43,10,0,0,.57,3.55,5,7.3a21.09,21.09,0,0,0,13.84,4.94C584.3,222.61,593.28,222,599.71,218.74Z" fill="#f7ab94"/><path d="M619,167.09s-15-9.72-19.15-18.86C599.84,148.23,615.45,151.47,619,167.09Z" fill="#f7ab94"/><path d="M352.39,103.56l6.86,5.19s-12.64,15.64-12.43,18.92C346.82,127.67,343.9,112.62,352.39,103.56Z" fill="#f7ab94"/><ellipse cx="380.59" cy="119.72" rx="45.36" ry="28.96" transform="translate(73.28 374.17) rotate(-57.09)" fill="#f9b499"/><path d="M367.77,92.58s3.45.75,3.51,11.52a12.66,12.66,0,0,0,1,4.9l0,.1a3,3,0,0,0,5.18.59c2.13-2.82,6.46-7.47,11.17-6.11a6.94,6.94,0,0,0,1.18.27c2.38.31,9.61.45,9.89-9.27,0,0,.75,9.72,9.62,7.18a3.31,3.31,0,0,1,3.5,1.09c1.29,1.61,2.82,4.74,3.18,10.69,0,0,9.15-.17,3.66-26.61a20.2,20.2,0,0,0-8.32-14.14S406,62.15,399.54,59.15c0,0-3.16-5.32-6.82-4,0,0-2.16-4.66-6.65-2.83,0,0-23.62-9-40.42,12.48,0,0-6.82,7.15-12.31,26.44,0,0-2.49,5.32-4.49,6.82,0,0,12.14,2.33,21.46-5.49C350.31,92.58,362.78,82.77,367.77,92.58Z" fill="#f48225" data-secondary="true"/><ellipse cx="360.12" cy="98.73" rx="10.81" ry="7.32" transform="translate(118.15 383.14) rotate(-64.94)" fill="#f9b499"/><path d="M275.8,137.32a36.4,36.4,0,0,0-2.66,34.59S261.5,184.38,269.48,194c0,0,4.49,4.49,8.65,5.66,0,0,21.37,22.95,57.54,29.18l28.44,5.74s7,9.23,27.69,5c0,0,12.73-2.24,18-.25,0,0,6.24,1.75,9.73,4.87a3,3,0,0,0,4.24-.25s1.25-.88-.24-3c0,0,3,2.62,5,.63,0,0,1.38-.63.5-2.87,0,0,1.87-1.87-3.11-5.87l-2.93-2.13a6.46,6.46,0,0,1-2.07-2.53,14.2,14.2,0,0,0-3.64-4.57,8.54,8.54,0,0,0-1.35-1,29.59,29.59,0,0,1-3.68-2.43c-2.55-2-9-3.58-9-3.58a20.8,20.8,0,0,1-5.78-2.57,6.9,6.9,0,0,0-3-1.44,7,7,0,0,0-6,1.64s-19.71,4.7-25.53,1.21l-15-8.82s-7.15-6.15-10.14-7.48c0,0-7.15-7.82-7.65-11.81,0,0,27.44-23.12,29.93-40.25,0,0,.17-7-6-10,0,0-5.33-5-7.82-7.65,0,0-11.23-11.14-22.45-10.39,0,0-11.56-5.41-20,.25C303.74,119.36,281,121.47,275.8,137.32Z" fill="#f7ab94"/><path d="M313.07,128.35s-1.94,4.51-13.54,14.83c0,0-21.51,16.84-26.39,28.73,0,0-9.14-17.24,2.66-34.59,0,0,8.1-18.83,26-11a19,19,0,0,1,2.14,1.13C305.09,128.1,308,129.31,313.07,128.35Z" fill="#f9b499"/></svg>