<svg xmlns="http://www.w3.org/2000/svg" xmlns:xlink="http://www.w3.org/1999/xlink" width="865.76" height="682.89" viewBox="0 0 865.76 682.89"><defs><linearGradient id="f005438e-2fad-471c-99c4-11fa145c6969" x1="-12320.04" y1="-2650.75" x2="-12320.04" y2="-2651.55" gradientTransform="matrix(-0.89, -0.45, -0.45, 0.89, -11638.17, -2843.6)" gradientUnits="userSpaceOnUse"><stop offset="0" stop-color="#401441"/><stop offset="0.49" stop-color="#431844"/><stop offset="0.98" stop-color="#4e244f"/><stop offset="1" stop-color="#4e254f"/></linearGradient><linearGradient id="baa109a5-c6f1-4ee6-b8d0-5cd4bdfd53dc" x1="-12381.96" y1="-2609.55" x2="-12370.56" y2="-2609.55" gradientTransform="matrix(-0.89, -0.45, -0.45, 0.89, -11638.17, -2843.6)" gradientUnits="userSpaceOnUse"><stop offset="0" stop-color="#fff"/><stop offset="1" stop-color="#bf4042"/></linearGradient><linearGradient id="a1d881cc-04ce-4509-b7ea-4b6dfc51fe53" x1="-12328.83" y1="-2420.92" x2="-12328.83" y2="-2423.01" xlink:href="#baa109a5-c6f1-4ee6-b8d0-5cd4bdfd53dc"/><linearGradient id="bd71bf71-173c-4caa-85ba-0bd359a7af16" x1="-12261.34" y1="-2558.19" x2="-12246.92" y2="-2558.19" gradientTransform="matrix(-0.89, -0.45, -0.45, 0.89, -11638.17, -2843.6)" gradientUnits="userSpaceOnUse"><stop offset="0" stop-color="#fff"/><stop offset="1" stop-color="#8b5c9a"/></linearGradient><linearGradient id="a05c4151-4c34-4818-a86f-934d2af5c19c" x1="-12316.12" y1="-2595.25" x2="-12294.76" y2="-2595.25" xlink:href="#bd71bf71-173c-4caa-85ba-0bd359a7af16"/><linearGradient id="f2c1584c-e7dd-4b0b-9bc0-220ffb622ce0" x1="-12296.62" y1="-2526.4" x2="-12288.54" y2="-2526.4" xlink:href="#f005438e-2fad-471c-99c4-11fa145c6969"/><linearGradient id="ad106ded-db78-4292-8b8a-2e767cac1c08" x1="-12314.22" y1="-2601.76" x2="-12277.52" y2="-2601.76" gradientTransform="matrix(-0.89, -0.45, -0.45, 0.89, -11638.17, -2843.6)" gradientUnits="userSpaceOnUse"><stop offset="0" stop-color="#fff"/><stop offset="1"/></linearGradient></defs><g style="isolation:isolate"><g id="fe55c1c9-3c86-4e50-8697-644cb3b386fc" data-name="Layer 1"><path d="M787,403.27S757.89,543.38,664.48,546.91c0,0-83.72-7.93-96.06,22,0,0-14.1,28.35-25,51.78,0,0-18.28,36-57.14,19.43l-31.78-14.83-11.08-5.17a89.54,89.54,0,0,0-10.57-4.07c-13.93-4.5-39.34-9.73-62.13,1.43-4.15,2-8.43,3.77-12.76,5.38l-17.49,6.52L328.18,634a45.08,45.08,0,0,1-5.27,1.79c-12.84,3.65-47.19,9.11-80.45-22.79l-17.14-15.86a44.67,44.67,0,0,0-6-6.19h0c-8.45-7.39-26.06-18.81-54.4-19.1,0,0-30.61.23-55.77-15.34A67.11,67.11,0,0,1,86,533.29a99.69,99.69,0,0,1-9.28-26.87c-2.8-15.82-.76-34.3,20-42.56,0,0,15.43-6,44.57.86,0,0,57,9.86,62.57-28.71,0,0,0-.06,0-.18.5-2.62,5.16-32.64-39.9-56.39,0,0-32.8-19.48-47.68-36.1,0,0-37.9-37,9.69-80.19,0,0,10.58-11.46,47.59-21.15,0,0,51.11-7.93,37.89-47.59,0,0-30.84-98.7,29.08-116.32,0,0,18.51-7.93,58.16,6.17,0,0,24.68,8.81,44.07-17.63,0,0,37.81-50.23,85.88-16.74,0,0,12.81,13.22,37.49,38.77,0,0,29.08,35.25,74,15,0,0,56.4-25.76,100.46,6.51,0,0,35.25,14.59,30.85,80.71,0,0-6.17,37,24.67,57.31C696.2,248.17,809.88,322.19,787,403.27Z" fill="#2bdee2"/><path d="M348,576.15l-7.52,53.26L328.18,634a45.08,45.08,0,0,1-5.27,1.79c-12.84,3.65-47.19,9.11-80.45-22.79l-17.14-15.86a44.67,44.67,0,0,0-6-6.19h0c-8.45-7.39-26.06-18.81-54.4-19.1,0,0-30.61.23-55.77-15.34A67.11,67.11,0,0,1,86,533.29a99.69,99.69,0,0,1-9.28-26.87c-2.8-15.82-.76-34.3,20-42.56,0,0,15.43-6,44.57.86,0,0,57,9.86,62.57-28.71,0,0,0-.06,0-.18L304.6,480.15S354.81,497.77,348,576.15Z" fill="#8bb4c6"/><path d="M454.54,625.32l-11.08-5.17s-39.18-19.06-72.7-2.64c-4.15,2-8.43,3.77-12.76,5.38l-17.49,6.52L328.18,634s-43.72,19.28-85.72-21l-4.29-4,21.27-23.16S309.85,557.07,366,575a45.75,45.75,0,0,1,5.36,2.15C383.59,582.94,434.19,607.31,454.54,625.32Z" fill="#7197aa"/><path d="M318,596.81a12.78,12.78,0,0,1-1.93-8.55l9.38,4.27h13L334,598.19l10.07,5.69h-12l-3.86,9.49-8-8.28-9.1,3.59S314,600.81,318,596.81Z" fill="#ffeb8a"/><path d="M233.89,547.87a9.53,9.53,0,0,1,2.34-10.39,12.73,12.73,0,0,1,7.74-3.66c5.81-.63,18.63-3,18.63-11.45,0,0-.43-7.07-9.86,0,0,0-13.71,10.36-9-4.79,0,0,2.57-11.28,15.43-16.43,0,0,18.86-5.33,17.68-21.6a.54.54,0,0,0-.9-.39c-3.05,2.74-14.08,12-18.49,8.13,0,0-2.76-2.24,3-13.14l10.07-23.78s5.14-12.22,1.93-21.86c0,0-2.15-10.71-5.57-2.36,0,0-7.68,29.82-14.22,38.42a3.79,3.79,0,0,1-5.81.19c-4-4.41-13-15.8-10.83-26.39a41.72,41.72,0,0,0,1.44-8,1.88,1.88,0,0,0-3.08-1.49c-2.58,2.19-6.2,6.9-5.95,16a34.7,34.7,0,0,0,2.7,12.24C233,461.51,236,469,238.39,475c0,0,4.59,9.19-.15,12.78a5.19,5.19,0,0,1-5,.57c-2.45-1-5.93-3.5-6.21-10.14,0,0,.64-7.92-1.93-7.28,0,0-4.25,3-3.54,10.91a23.35,23.35,0,0,0,7.13,14.46c4.16,4.06,10,11.66,6.25,19.71-.6,1.31-1.22,2.61-1.74,4-2,5.16-6.77,17.07-9.88,19.84l-8.44,8.06,9.36,16.5L235,556l1.5-1.93Z" fill="#7197aa"/><circle cx="267.04" cy="444.38" r="1" fill="#647b93"/><circle cx="244.04" cy="467.96" r="1.37" fill="#647b93"/><circle cx="256.02" cy="465.23" r="0.68" fill="#647b93"/><circle cx="238.6" cy="496.44" r="1.93" fill="#647b93"/><circle cx="259.52" cy="493.35" r="1.93" fill="#647b93"/><circle cx="238.03" cy="522.51" r="1.36" fill="#647b93"/><circle cx="248.36" cy="494.51" r="3.08" fill="#647b93"/><polygon points="275.17 527.64 279.95 519.84 277.56 510.55 285.23 515.82 291.51 513.01 288.75 519.84 295.03 525.88 287.49 526.13 285.1 534.01 281.46 527.38 275.17 527.64" fill="#aed8dc"/><path d="M225.21,387.87s10.2,25.49,9.18,41" fill="none" stroke="#8bb4c6" stroke-miterlimit="10"/><path d="M234.46,404.19c-2,3.45-1.29,10.58-1.29,10.58" fill="none" stroke="#8bb4c6" stroke-miterlimit="10"/><path d="M245.61,380.76s-14.43,11.61-11.61,25.1A27.47,27.47,0,0,0,245.61,380.76Z" fill="#8bb4c6"/><line x1="232.14" y1="431.27" x2="229.84" y2="426.15" fill="none" stroke="#8bb4c6" stroke-miterlimit="10"/><path d="M212.2,395.4s4.93,26.82,18.34,32.32C230.54,427.72,229.63,403.44,212.2,395.4Z" fill="#8bb4c6"/><path d="M225.79,389.38s9.77-15.23,0-26.94C225.79,362.44,217.59,372.91,225.79,389.38Z" fill="#8bb4c6"/><path d="M227.46,393.31s-10,1.48-16.61-12.55C210.85,380.76,220.22,382.43,227.46,393.31Z" fill="#8bb4c6"/><path d="M226.39,445.61c-8-18.93-13.94-24-13.94-24-.54,16,5.56,19.4,6.13,20.6Z" fill="#8bb4c6"/><path d="M387.31,584.93a20,20,0,0,0-1.11-15.79s-6.27-9.3-1.71-7.31c0,0,11.38,8,15.65,29.64Z" fill="#a2c130"/><path d="M470.16,616.65a39.25,39.25,0,0,1-3.94-.57A50.3,50.3,0,0,0,448.8,613a40.19,40.19,0,0,0-4.1.23h0a26.63,26.63,0,0,0-5.1,1c-9.64-7-26.4-16-34.62-20.25-3-1.54-4.82-2.46-4.82-2.46l-1.35-5.62c3.12-13.45-10.93-43.62-11.71-45.31l0,0v0s-5.41-13.09,0-7.68c0,0,13.1,15.37,16.23,24.48,0,0-.26-16.89,7.56-27.43h0a22,22,0,0,1,2.84-3.18l11.47-12.06a.35.35,0,0,1,.6.33c-3.31,13-6.5,35.73-6.5,35.73a80.35,80.35,0,0,1,7.33-13.41v0c9.12-13.26,18.59-16.66,21.52-17.44a.39.39,0,0,1,.42.59c-17.91,28.68-17.07,57.92-17.07,57.92a67.85,67.85,0,0,1,6.14-8.68h0c8-9.5,14.49-10.22,16.37-10.2a.64.64,0,0,1,.65.72c-.45,2.63-7.74,9-7.74,9-10.29,9.28-5.79,26.94-5.79,26.94A51,51,0,0,1,445,589c5.84-8.77,11.9-11.28,11.9-11.28,3.93-2.55,2.14,1.85.72,4.69a37,37,0,0,0-2.87,7.54c-3.76,15.31,4.74,22.34,4.74,22.34,2.8-7.62,7.13-9.54,9.3-10a.84.84,0,0,1,1,1C468.5,609,470.16,616.65,470.16,616.65Z" fill="#a2c130"/><path d="M405,593.93c-3-1.54-4.82-2.46-4.82-2.46l-1.35-5.62c3.16-13.64-11.33-44.49-11.74-45.36C387.49,541.13,401.33,561.9,405,593.93Z" fill="#7b911d"/><path d="M416.69,585.65l-13.41-28.38s-.26-16.89,7.56-27.43C400.91,549.8,415.29,582.53,416.69,585.65Z" fill="#7b911d"/><path d="M423.12,576.51c-4-11-3.87-25.86-3.87-25.86a80.35,80.35,0,0,1,7.33-13.41C419,549.85,423.12,576.51,423.12,576.51Z" fill="#7b911d"/><path d="M437.6,569.61c-2.33,5.68-4.83,13.7-4.71,21.86,0,0-1.88-4.46-1.43-13.18A67.85,67.85,0,0,1,437.6,569.61Z" fill="#7b911d"/><path d="M448.89,613.1l-4.08.27-.11-.16h0c-.68-1-4.21-6.5-3.59-17.13A51,51,0,0,1,445,589c-2,6.43-2.79,15.57,3.76,24Z" fill="#7b911d"/><path d="M507.7,614.87a177.4,177.4,0,0,0,15.16-19.94,83,83,0,0,0,13.63-43c.44-15.29-1.68-36.3-12.68-56.58" fill="none" stroke="#7b911d" stroke-miterlimit="10"/><path d="M500.67,583a35.1,35.1,0,0,0,.53,3.56,31.46,31.46,0,0,0,.83,3.48,30.93,30.93,0,0,0,2.69,6.54,21.08,21.08,0,0,0,4.37,5.48l1.36,1.14,1.5.95c.25.16.49.34.75.48l.81.38c.54.25,1.08.52,1.63.79a17.11,17.11,0,0,1-6.54-3.15,18.48,18.48,0,0,1-4.75-5.58,24.92,24.92,0,0,1-2.56-6.84A25.94,25.94,0,0,1,500.67,583Z" fill="#7b911d"/><path d="M507.9,601.56s1.13-4.91-3.16-15.91c0,0-4.07-18.83,0-24.13,0,0-11.1,3-10.06,18.41a31.94,31.94,0,0,0,5.86,16.31C502.65,599.22,505.32,601.91,507.9,601.56Z" fill="#7b911d"/><path d="M521.75,577.65c-18.55-5.35-17-37.16-17-37.16S524.62,561.37,521.75,577.65Z" fill="#7b911d"/><path d="M513.2,558.15c.45,1.24.89,2.47,1.39,3.68s.95,2.44,1.48,3.63c1,2.4,2.08,4.79,3.29,7.09a69.59,69.59,0,0,0,3.94,6.73c.35.55.76,1.05,1.14,1.58l.58.78.64.74a14.92,14.92,0,0,0,1.28,1.48c.46.46.92.93,1.37,1.4a26.83,26.83,0,0,1-5.63-5.53,45.86,45.86,0,0,1-4.21-6.72,59.8,59.8,0,0,1-3.12-7.27A53.82,53.82,0,0,1,513.2,558.15Z" fill="#7b911d"/><path d="M520.08,527.08c1.43,2.5,2.76,5,4.07,7.6s2.57,5.14,3.82,7.72,2.46,5.19,3.62,7.82l1.73,3.94c.54,1.33,1.12,2.65,1.64,4-.73-1.24-1.39-2.52-2.08-3.78l-2-3.82c-1.32-2.55-2.57-5.13-3.82-7.72s-2.46-5.19-3.61-7.82S521.14,529.76,520.08,527.08Z" fill="#7b911d"/><path d="M504.68,502.22s4.83,37.37,25.27,45.47C530,547.69,526.48,512.51,504.68,502.22Z" fill="#7b911d"/><path d="M534.33,525a25.27,25.27,0,0,1,1-8.55,37.46,37.46,0,0,1,3.25-8,42.61,42.61,0,0,1,5-7.07,18.47,18.47,0,0,1,1.46-1.6l1.5-1.54c1.07-1,2.16-1.9,3.26-2.81-1,1.08-2,2.07-2.9,3.15l-1.39,1.62a21,21,0,0,0-1.33,1.66c-.42.57-.85,1.14-1.28,1.7s-.8,1.17-1.2,1.76c-.82,1.15-1.49,2.4-2.22,3.61a48.24,48.24,0,0,0-3.39,7.76c-.23.67-.44,1.34-.61,2s-.35,1.38-.5,2.07A27.26,27.26,0,0,0,534.33,525Z" fill="#7b911d"/><path d="M555,479.08s-19.86,13.49-18.45,34.82a50.4,50.4,0,0,0,16.28-18.64,22.43,22.43,0,0,0,2.17-9.84Z" fill="#7b911d"/><path d="M523.88,459.14a56.08,56.08,0,0,0,0,36.75,38.33,38.33,0,0,0,4.66-21.52A37.63,37.63,0,0,0,523.88,459.14Z" fill="#7b911d"/><path d="M502.61,482.37a58.52,58.52,0,0,0,8.23,9.34,60.23,60.23,0,0,0,15.59,10.35,39.66,39.66,0,0,0-12-13.9A38.43,38.43,0,0,0,502.61,482.37Z" fill="#7b911d"/><path d="M588.42,552.94a60.89,60.89,0,0,1,32-16.88s-12.54-7.37-14.11-11.31a1,1,0,0,1,1.29-1.37c1.91.6,7.24,3.25,15,7.68,0,0-22.54-19.19-27.72-30.91,0,0-5.1-9.7-4.13-13.65a1.7,1.7,0,0,1,3-.54c1.06,1.45,3,4.82,6.1,12.61a29.08,29.08,0,0,0,3.69,6.66c4,5.47,12.55,16.2,20.44,21.49l2.14-1.42s-15.14-16-10.71-21.43c0,0,3-5.15,9,9.43,0,0,4,8.91,6.14,10.74l3.57-4.17s-18.28-18.57-11.86-24.15c0,0,4-6.08,10.72,9.68,0,0,1.57,5.38,5.71,8.5l3.57-3.32s-27.39-40.27-8.91-50.09c0,0,4-2.6,3.18,13.28,0,0,.28,26,9.23,32.62l2.31-1s-5.77-10.55-5.19-18.06c0,0,1.44-7.51,5.19.58,0,0,1.16,10.39,4.91,12.41l2.89-2.6s-15.59-35.51,0-43.59c0,0,2.73,2.27.92,10.65a41.33,41.33,0,0,0-1,8.94c0,6.17.07,17.09,2.28,22.28l2.29-1.57s-6-18.86,4.71-22.43c0,0,2.72-.14,1.72,5.29,0,0-2.72,9.71-1,14l5-.72s-7-27.57,1.57-30.86c0,0,2.71-1.14,2.14,3.72,0,0-2.57,24.86-1.71,26.43l3-.15s-4.29-13.57,2.14-17.14c0,0,2.57-.14,1.71,2.57,0,0-3.93,13.86.18,14l1.82-.14s3.43-10.14,5.86-14.14c0,0,6.43-16.86,11.43-15.86,0,0,4,1.57-1.43,9.86,0,0-9.29,16.28-8.86,19.85l5,.43s6.57-23.43,12.72-20.57c0,0,3,2-1.43,8.14,0,0-7.43,11.43-6.29,14.58l7.72-.15s7-28.57,16.43-28.57c0,0,4,0,0,9.72,0,0-6.29,13.28-5.86,16l35.54-.45s-29.74,57.5-88.09,59.06C664.48,546.91,615.52,542.16,588.42,552.94Z" fill="#7197aa"/><path d="M744.74,303.58s36,65.82,30.43,108.86c0,0-6.85,42.21-32.57,75.53" fill="none" stroke="#7b911d" stroke-miterlimit="10"/><path d="M751,316.08s-17.42,4.64-37.56-20.21A87.46,87.46,0,0,1,751,316.08Z" fill="#a2c130"/><path d="M727.35,413c.95,4.84,5.43,27.35,9.68,41.19,0,0,4.92,10.1,4.39,15.27,0,0-17-1.73-21.11-28.7,0,0-2.44-19.51,6.15-28A.54.54,0,0,1,727.35,413Z" fill="#a2c130"/><path d="M700,436.63S668.6,455.58,634.31,431c0,0-14.55-8.06-29.57-6.56a38.33,38.33,0,0,1-16.64-2.35c-8.14-2.91-24.55-2-54.21,23.71a20.17,20.17,0,0,1-16.8,4.78c-5.73-1.07-14.74-.09-27.2,8.86a45.11,45.11,0,0,1-26.35,8.7c-4.11,0-10.5,1.54-12.09-2.24C441.17,441.37,422.91,441,422.91,441c2.31-14.05-12.93-32.6-12.93-32.6-2.62-17.75-55.39-21.42-87.25-22-13.92-.26-23.85.07-23.85.07-38.28,8.56-47.44-8.27-47.44-8.27S233,361,216.74,353.3c0,0-12.84-7-16.92-11.85,0,0,1.49-10.87,6.63-19.44,0,0-8.57-.85-14.14,12.86,0,0-27-19.7-9.34-51.17A58.7,58.7,0,0,1,210.49,259a186.59,186.59,0,0,1,29.17-9.83s36.65-5.15,27.65-37.72c0,0-29.57-79.28,27-93.43,0,0,14.23-3.84,38.31,4.49A27.19,27.19,0,0,0,342.7,124l.43,0a24.37,24.37,0,0,0,23.21-25.31c-.22-4.8,1.82-9.32,10.26-9.32,0,0,31.42-12,56.28,1.14,0,0,12.29,6.57,32,28.86,0,0,20.62,26.06,52.59,23.69a52.45,52.45,0,0,0,16.13-4c11.47-4.73,46.32-16.3,75,3.44,0,0,37.14,18.29,28.57,70.29,0,0-4,30.28,26.28,47.43L688.6,281.3s-9.43,35.14,3.42,51c0,0,12.86-22.29,13.72-34.29C705.74,298,770.31,366.81,700,436.63Z" fill="#97e9ff"/><path d="M361.94,100.05S348.86,87,360.77,80.28c0,0,36.63-25.58,50.59-8.14,0,0,10.17,12.5-6.4,42.15,0,0-9.27,20.54-27.32,1.74Z" fill="#fff"/><path d="M373.19,103.6a21.27,21.27,0,0,1-5.36-9.76c-1.12-4.87-.48-10.58,8.35-11.24,0,0,16.57-2.32,23.26,7.85,0,0,7.27,9.31,0,18.61,0,0-9.6,12.21-19.19,2Z" fill="#97e9ff" opacity="0.5"/><path d="M274,113.5l46.69-16.8s7.12-2.71,17.09,2.06c0,0,13.05,11.71,24.18,1.29" fill="none" stroke="#fff" stroke-miterlimit="10"/><path d="M278.53,127.45s16.52-29.9,47.27-20.5c0,0,31.44,14,41.12-1.83" fill="none" stroke="#fff" stroke-miterlimit="10"/><path d="M335.19,179.84s-9.57-23.33,7.75-33a23.58,23.58,0,0,1,6.24-2.32c5.47-1.28,22.31-6.9,28.46-28.45" fill="none" stroke="#fff" stroke-miterlimit="10"/><path d="M310.14,156.49s22.45,2.77,36.73-21.64c0,0,10.12-21.81,24.28-25.42" fill="none" stroke="#fff" stroke-miterlimit="10"/><path d="M375.94,114.31c-3.35,7.19-25.39,5-34.38,3.75A23.38,23.38,0,0,0,327,120.57c-17.87,9.92-15.15,39.62-15.15,39.62" fill="none" stroke="#fff" stroke-miterlimit="10"/><path d="M280.81,137.25s11-31.41,46.56-23.45a38.06,38.06,0,0,0,5.72.81c8.64.58,30.34,1.17,36.37-6.9" fill="none" stroke="#fff" stroke-miterlimit="10"/><path d="M284.8,141.4s7.69-31.15,42.14-25.12c0,0,34.3,7.63,45.91-5.12" fill="none" stroke="#fff" stroke-miterlimit="10"/><path d="M291.63,154.21s1.21-32.52,37.19-27.93c0,0,28.52,2.38,39.37-19.87" fill="none" stroke="#fff" stroke-miterlimit="10"/><path d="M287.93,143.68s18,10.82,37.21,0c0,0,6.15-2.46,17.32-15.73a50.21,50.21,0,0,1,16.81-13.19c5.2-2.46,11-4.09,15.08-2.07" fill="none" stroke="#fff" stroke-miterlimit="10"/><path d="M623.13,337.34a77.94,77.94,0,0,1-13.72,41c-8.23,12.15-18.3,32.61-4.67,46.09a38.33,38.33,0,0,1-16.64-2.35c-8.14-2.91-24.55-2-54.21,23.71a20.17,20.17,0,0,1-16.8,4.78c-5.73-1.07-14.74-.09-27.2,8.86a45.11,45.11,0,0,1-26.35,8.7c-4.11,0-10.5,1.54-12.09-2.24C441.17,441.37,422.91,441,422.91,441c2.31-14.05-12.93-32.6-12.93-32.6-2.62-17.75-55.39-21.42-87.25-22,0-4.55-1.7-30-34.8-42.12,0,0-57.69-41.76,3.7-64.88,0,0,42.6-15.05,26.32-46.5,0,0-17.72-60,44-48.13,0,0,23.81,5.66,34.67-8.89,0,0,13.32-20.55,36.07-14.31a35.94,35.94,0,0,1,19.09,13.15c7.92,10.5,27.57,31.95,50.68,23.19,0,0,76.52-30.07,79.58,44.56,0,0-13.37,27.29,12.9,43.34C594.92,285.77,624.48,296.93,623.13,337.34Z" fill="#fff" opacity="0.74"/><path d="M452.38,84.29s8.4,62.84,85.78,34.65" fill="none" stroke="#fff" stroke-miterlimit="10"/><path d="M563.35,116.28s65.06-23.13,86.37,29.05c0,0,7.8,18,2.4,63,0,0-.6,24,21.59,37.79" fill="none" stroke="#fff" stroke-miterlimit="10"/><path d="M113.79,324.58s-16-43.53,26.06-60.56a64.89,64.89,0,0,1,16.24-4.12c8-1,24.73-3.77,40-9.93A45.23,45.23,0,0,0,224,204.58c-.92-12.16-2.48-28.07-5.06-44.39" fill="none" stroke="#fff" stroke-miterlimit="10"/><path d="M136.17,312.86s-3.41,20.91,10.28,28.59" fill="none" stroke="#fff" stroke-miterlimit="10"/><path d="M156,349.81s17,22.39,33.22,33.41a63.46,63.46,0,0,1,15.42,14.45c8.34,11.18,17.59,29.33,9.25,48.13a40.71,40.71,0,0,1-10.15,13.66c-6.39,5.72-18,14-32,13.51" fill="none" stroke="#fff" stroke-miterlimit="10"/><path d="M246.62,564.91c1.58,3.58,3.73,6.89,5.29,10.48,1.93,4.43,8,13.93,26.55,24.76,0,0,23.72,14.8,32.14,25.71,0,0,5.82,6.51,12.31,9.94-12.84,3.65-47.19,9.11-80.45-22.79l-17.14-15.86s-18.43-24.86-60.43-25.29c0,0-56.14.43-78.86-38.57a99.69,99.69,0,0,1-9.28-26.87,46.48,46.48,0,0,0,12.76-.31,113.6,113.6,0,0,1,18.15-1.22c17.6.35,51.81,2.85,86.39,15.62,0,0,15.13,4.7,24.53,10.24a9.59,9.59,0,0,1,3.24,13.47c-2.3,3.49-4.08,7.91-.33,10a6.28,6.28,0,0,0,7-.88C231.79,550.53,239,547.62,246.62,564.91Z" fill="#647b93"/><path d="M219.3,591h0c-8.45-7.39-26.06-18.81-54.4-19.1,0,0-30.61.23-55.77-15.34h0s50.7-33.51,81.2-19.8C190.32,536.71,220.78,547.63,219.3,591Z" fill="#a2c130"/><path d="M106.08,554.54s-8.59-14.88-8.83-21.3a1.61,1.61,0,0,1,2.8-1.15A79.13,79.13,0,0,1,111,547.92s-15.68-33.13-10.65-54.13c0,0,1.18-12,5.94-11.93a2.81,2.81,0,0,1,2.61,3.24l-1.75,13.42h0A166.48,166.48,0,0,0,111.42,533c2.74,11.74,6.5,25.25,10.13,29.84C121.55,562.88,110.86,558.11,106.08,554.54Z" fill="#7b911d"/><path d="M128.12,565.38a55.27,55.27,0,0,1-14.32-33c-.26-15.83,6.33-17.33,6.33-17.33s4-2.78,3.18,12.64c0,0-2.78,16.08,3.86,27l9,13.08Z" fill="#7b911d"/><path d="M141.81,497.07c.59,2.79.48,7.79-2.56,16.5a30.2,30.2,0,0,0-.94,3.21c-1.2,5.25-4,20.29.47,31,0,0,3.29,6.36.44,7.24,0,0-6.81,4-11.64-16.9,0,0-7.33-35.1,9.66-43.3A3.22,3.22,0,0,1,141.81,497.07Z" fill="#7b911d"/><path d="M149.76,489.16s6.36-11,13.17-8.35c0,0,4.39,1.67-2.41,13.68,0,0-14.27,20.29-13,30.42,0,0,2.64,13.6.86,19a2.37,2.37,0,0,1-4.22.49c-1.51-2.28-3.7-7.41-3.66-17.93C140.54,526.48,139.66,505.84,149.76,489.16Z" fill="#7b911d"/><path d="M155.3,522c.58-.75,1.12-1.52,1.65-2.31,1.28-1.93,3.63-4.91,3.79-1.09,0,0-2.28,14.38-1.37,22.94a17.14,17.14,0,0,0,.58,2.85c.51,1.8,1.19,5.52-1.32,6.75a2.6,2.6,0,0,1-3.4-1.27C152.93,545.26,147.51,532,155.3,522Z" fill="#7b911d"/><path d="M174.79,497.28s4.63-7.9,9.49-9.75a3.57,3.57,0,0,1,4.77,4c-.47,2.57-2.33,6.74-7.57,13.37a89.46,89.46,0,0,0-7.61,11.36,53.35,53.35,0,0,0-6.58,23.09c-.24,3.95-1.36,9.32-4.14,8.45,0,0-3.14,0,1.17-20.42A84.57,84.57,0,0,1,174.79,497.28Z" fill="#7b911d"/><path d="M181.91,513.5c-2.61,1.36-5.87,4.51-9.21,11.41,0,0-6.58,21.62-3.14,29a1.8,1.8,0,0,0,3.24.11c.5-1.06.75-2.92.3-6.17,0,0-.94-5.86,4.93-12.26,0,0,8.07-10.15,9.86-17.39A4.16,4.16,0,0,0,181.91,513.5Z" fill="#7b911d"/><path d="M180.88,561.64c-.81-2.79-2.16-9.86,2.41-16.36a5.24,5.24,0,0,0,.92-2.49c.59-6.15,4-30.42,21.95-38.15a2.12,2.12,0,0,1,2.94,1.9c0,1.56-.56,3.75-2.81,6.47,0,0-16.83,19-18.19,27.54a.6.6,0,0,0,.62.69c.94,0,2.36.3,1.37,3,0,0-7.19,11-6.79,16,0,0,1.48,2.52-.32,2.83A1.91,1.91,0,0,1,180.88,561.64Z" fill="#7b911d"/><path d="M190.09,563.07s-4.39-1.06,0-10.06c0,0,10.85-26.27,37.57-33.12a1.7,1.7,0,0,1,2,2.41,14.88,14.88,0,0,1-2.78,3.55,29.75,29.75,0,0,1-5.77,4.46c-5.71,3.44-20.83,13.23-25.68,23.09a11.35,11.35,0,0,0-1,3.37C194,559.34,192.94,564.31,190.09,563.07Z" fill="#7b911d"/><path d="M201,568.93a2.22,2.22,0,0,1-3.19-1.92c-.11-1.91.59-5.23,4.3-10.4,0,0,18.45-25.36,28.68-22.87a1.58,1.58,0,0,1,1.2,1.36c.16,1.61-.61,4.85-7.69,8.11A84.24,84.24,0,0,0,214,550.62,39.44,39.44,0,0,0,203.26,566,5.63,5.63,0,0,1,201,568.93Z" fill="#7b911d"/><path d="M211.54,578c-.22-3.31,1.19-10.31,11.34-23,0,0,21.6-22.19,29.39-16.8,0,0,2.74,3.27-5,9.66,0,0-14.51,11.69-23.54,20.4a29.57,29.57,0,0,0-5,6.43,22.31,22.31,0,0,1-3.5,4.74A2.2,2.2,0,0,1,211.54,578Z" fill="#7b911d"/><path d="M393.39,500.85s-4.95-2.72-9-4.51-9.24,1.84-9.24,1.84Z" fill="#f29981" fill-rule="evenodd"/><path d="M474.18,516.37a23.74,23.74,0,0,1-7.83-2.86c-3.93-2.3-5.94-3.15-5-.61C461.31,512.9,469.34,516.46,474.18,516.37Z" fill="#f29981" fill-rule="evenodd"/><path d="M404.61,505.74s1.25,4,2.27,4.94c0,0,25.31-8.48,37.54-20.39l4.62-7,.19-.28c2.57-3.9,5.87-8.93,9.12-13.95.56-.86,1.09-1.68,1.58-2.45L461,465l.07-.11,1.93-3c7.87-12.34,8.32-26.23,1.54-26-3.69,1.11-10.27,14.41-17.73,26.86-3.62,6-7.45,11.85-11.26,16C423.85,491.49,404.61,505.74,404.61,505.74Z" fill="#686175" data-primary="true" fill-rule="evenodd"/><path d="M369.89,499.57c.26,1.71,1.1,2.08,1.1,2.08l1.38.49a2.29,2.29,0,0,0,.34,1.56,112.33,112.33,0,0,1,13.1.94c3.74.7,8.3,3.94,9.41,4.77l.25.19a3.82,3.82,0,0,1-2.67,1,14.73,14.73,0,0,1-2.49-1,10.48,10.48,0,0,0-4.66-1.16,5.73,5.73,0,0,0-3.87,2.64l.41,1.15a45.9,45.9,0,0,1,8.14,0c.56.05,1.12.13,1.7.21a65.46,65.46,0,0,1,7.85,1.87l7-3.68a40.44,40.44,0,0,1-2.27-4.94c-3.09-.74-16.13-7.51-19.74-8.56a12,12,0,0,0-4.23,0A79.87,79.87,0,0,0,369.89,499.57Z" fill="#f9ad9b" fill-rule="evenodd"/><path d="M430.68,500.07s8.06-14.86,6.19-22.83l-11,11s3.11,5.26-3.48,16.06C422.37,504.34,428.48,501.35,430.68,500.07Z" fill="#f48225" data-secondary="true" fill-rule="evenodd"/><path d="M446.8,462.75A21.54,21.54,0,0,1,449,483.33a0,0,0,0,1,0,0l.19-.28c1-1.56,5.57-8.49,9.12-13.95.56-.86,1.09-1.68,1.58-2.45L461,465l.07-.11c3.71-5.85,8-19.29,8-19.29s-1.94-8.44-4.57-9.69C460.84,437,454.26,450.3,446.8,462.75Z" fill-rule="evenodd" opacity="0.2"/><path d="M536.24,390.16c-15.16,12.89-13.46,9.55-15.59,11.58l20.15,17.45s7,5.76,8.72-.72c0,0,1.54-2.39,4-6.3h0l0-.08a.64.64,0,0,1,.1-.13c3.52-5.64,8.86-14.31,14.16-23.54.11-.21.24-.41.35-.62,5.94-10.35,11.79-21.31,15-29.38,0,0,8.78-40.84,6.75-57.86-2-16.48-7-40.34-7.37-41.81.22,1.39,3.36,22.41,1.81,31-1.6,8.87-6.65,10.61-8.89,10l8,6.17a162.49,162.49,0,0,1-8.23,23.88c-.59,1.34-1.23,2.58-1.89,3.77-5.31,9.47-12,14.36-7.46,26.28C565.87,359.81,551.41,377.27,536.24,390.16Z" fill="#686175" data-primary="true" fill-rule="evenodd"/><path d="M464.58,443.24c-1.36,4.11-8,10.12-8.46,17.25v0l.08.21c.31.74,1.58,3.11,5.69,4.6,4.94,1.8,6.22-.21,11.15,2.55,4.51,2.51,7.78,5.82,11.68,6.65l.1,0a7.91,7.91,0,0,0,.85.13l.17,0a5.3,5.3,0,0,0,.69,0,.22.22,0,0,1,.11,0h0c2.23-.13,4.55-1.7,7.39-4.36,2.45-2.29,5.3-5.38,8.86-9.06,8.21-8.51,14.94-11.78,16.31-12.19s10.7,4.16,22.83,2.93a53.18,53.18,0,0,0,8.74-1.69h0c8.54-2.39,15.64-6.47,18-9.1,3-3.27,28.45-30.22,36.62-63.48.54-2.25,1-4.54,1.41-6.84,0,0-7.19-17.86-34.17-41.6a87.78,87.78,0,0,1-10.45-13.47,136,136,0,0,1,7,13.77c2.76,6.67.58,11-1.7,13.13l6.78-2.43a66.34,66.34,0,0,1,8.22,19.32c2.42,10.59,3.83,15.37,7.13,15.81,0,0-25.61,32.9-43,42.09l-3.09-1.41a23.08,23.08,0,0,0-4-8.37c-3-3.8-13.61-8.33-19-6s-5.52,19.64-8.12,25.11-23.67,6.11-32.6,1.26l1,2.16s-1.32,7.25-8.22,6.05l-1.47-2.39a29.58,29.58,0,0,0-6.69,2A11.22,11.22,0,0,1,464.58,443.24Z" fill="#686175" data-primary="true" fill-rule="evenodd"/><path d="M483.66,430.39s6.93,5.49,13.31,9.91,7.43,8.88,7.43,8.88,6.26-3.62,16.52-8.83,18.65-8.55,18.65-8.55A34.66,34.66,0,0,0,523,416.65C510.9,411.24,483.66,430.39,483.66,430.39Z" fill-rule="evenodd" opacity="0.2"/><path d="M477.81,424.85a24.8,24.8,0,0,0,3,4.36s1.36,10-8.16,7.11a41.26,41.26,0,0,0-3.36-5A78.37,78.37,0,0,0,477.81,424.85Z" fill="#f9ad9b" fill-rule="evenodd"/><path d="M489.42,433.72s15.61,9.18,22.5,7.74a13.9,13.9,0,0,0-2.57-13.65c-5.51-6.48-20.54-11.81-24.33-10.36s-1.59,12-1.59,12Z" fill="#bbc53d" fill-rule="evenodd"/><path d="M489.42,433.72s15.61,9.18,22.5,7.74a13.9,13.9,0,0,0-2.57-13.65c-5.51-6.48-20.54-11.81-24.33-10.36s-1.59,12-1.59,12Z" fill-rule="evenodd" opacity="0.3"/><path d="M511.92,441.46s17.21-4.37,29.59-12.66c0,0-.66-9.45-8.27-14s-18.86-7.27-18.86-7.27L485,417.45s11.21.77,23.35,10.39C514.25,432.5,511.92,441.46,511.92,441.46Z" fill="#bbc53d" fill-rule="evenodd"/><path d="M511.92,441.46s17.21-4.37,29.59-12.66c0,0-.66-9.45-8.27-14s-18.86-7.27-18.86-7.27L485,417.45s11.21.77,23.35,10.39C514.25,432.5,511.92,441.46,511.92,441.46Z" fill-rule="evenodd" opacity="0.2"/><path d="M535.19,416.18l-25.52,13.37s-10.42-10.64-24.65-12.1l29.36-9.94S528.19,410.71,535.19,416.18Z" fill="#bbc53d" fill-rule="evenodd"/><path d="M502.9,437.39s1.58-4.67.52-6.67l-2.25-.14a15.91,15.91,0,0,1-.78,6.44Z" fill-rule="evenodd" opacity="0.2"/><path d="M501.21,431.21a36.74,36.74,0,0,0-16.83-9.61l1.4-.33s8.4,1.15,17.64,9.45Z" fill="#bbc53d" fill-rule="evenodd"/><path d="M533.83,433.23s.29-8.54-5.21-13.61-20.21-10.09-20.21-10.09L504.2,411s15.3,3.33,21.73,9.79,5.82,13.49,5.82,13.49Z" fill="#fff" fill-rule="evenodd" opacity="0.4"/><path d="M520.05,439s1-7.27-4.18-12.65S494,414.42,494,414.42l-4,1.37s19.29,5.21,23.95,11.56S518,439.64,518,439.64Z" fill="#fff" fill-rule="evenodd" opacity="0.4"/><path d="M453.86,394.21h0c-.14.31-.26.59-.37.86-1.93,4.72-3.22,12.49-3.73,13.67s-4.07,2.33-5.49,5.16.41,9.67,1.8,13.66a14.29,14.29,0,0,0,1.23,2.82c.94,1.19,1.34,2.27,9.8,3.26,7.51.88,15.92-3,20.79-8.9a20.85,20.85,0,0,0,1.7-2.35,32.8,32.8,0,0,0,4.31-18,24.3,24.3,0,0,0-.86-5.16,20.37,20.37,0,0,0-7.87-11.21c-3.93-2.84-7.24-3.84-10-3.72C458.93,384.64,455.45,390.63,453.86,394.21Z" fill="#f9ad9b" fill-rule="evenodd"/><path d="M453.86,394.21c.15-.28,2.77-5.08,10.36-2.16,7.8,3,15.8,9.84,15.8,18s-6.38,12.81-8.73,13.18-13.63-4.34-13.63-4.34,7.33,6.38,14.07,6.74c0,0-2.84,5-5.79,6.08,0,0-4.28-7.43-7-9.29l-12.91,5.15a14.29,14.29,0,0,0,1.23,2.82c.94,1.19,1.34,2.27,9.8,3.26,7.51.88,15.92-3,20.79-8.9a10.18,10.18,0,0,0,.54-1,30.29,30.29,0,0,1,2.6-7.52c1.31-2.76,2.3-8.11,2.87-11.83.35-2.3.54-4,.54-4l-1.4-1.18-17.88-14.93C458.93,384.64,455.45,390.63,453.86,394.21Z" fill="#f29981" fill-rule="evenodd"/><path d="M447.46,515.59a1.63,1.63,0,0,0,.92,1.54,41.42,41.42,0,0,0,4.67-.73c1.38-.4,5-.86,5-.86s-3.95,1.35-5.11,1.84-6.65,4.93-6.65,4.93a1.83,1.83,0,0,0,.49,1.61h.68a2.09,2.09,0,0,0,1.9,1.08c1.44,0,7.84-2.24,11.26-2.4a38.09,38.09,0,0,1,8.44,1.09l.05,0h-.24a19.53,19.53,0,0,0-4.07.29l-.22,0-.29.09a2.08,2.08,0,0,0-.3.12,67.64,67.64,0,0,0-6.48,4.55c.3.75,1.72,1.39,1.72,1.39a39.9,39.9,0,0,1,8.38-2.43,24.07,24.07,0,0,0,10.16.66,10.84,10.84,0,0,0,2.5-.85h0a21.06,21.06,0,0,0,6.36-4.95,10.89,10.89,0,0,0-4.4-4.64c-6.18-.44-21.19-5.65-25.4-6h0a3.19,3.19,0,0,0-.63,0C452.84,512.4,447.46,515.59,447.46,515.59Z" fill="#f9ad9b" fill-rule="evenodd"/><path d="M561.46,314.44q.35.65.72,1.26C561.86,315.11,561.61,314.69,561.46,314.44Z" fill-rule="evenodd" fill="url(#f005438e-2fad-471c-99c4-11fa145c6969)"/><path d="M561.33,314.22s-17.73-25.12-32.19,17.07c0,0-20.51-8.58-36.12-6.36,0,0,10-12.29,28.91-20.51a140.62,140.62,0,0,0,21.73.93C554.89,305,558.45,309.59,561.33,314.22Z" fill="#f48225" data-secondary="true" fill-rule="evenodd"/><path d="M538.12,313.22a18.9,18.9,0,0,1,5,3.16h0c5.44,4.64,8.15,11.24,11.69,12.11a12.75,12.75,0,0,1,5.39,2.39c1.58,1.3,2.79,3.25,3.71,6.39,1.77,6.05,3.57,5.46,3.57,5.46,4.93-3.74,3.85-11.75-1.38-21.19a51.76,51.76,0,0,0-7-10l-.2-.23c-.57-.61-1.07-1.08-1.46-1.44l-.26-.23a8.92,8.92,0,0,0-.77-.62c-10.27-7.67-17.85,3.37-18.35,4.13Z" fill="#f48225" data-secondary="true" fill-rule="evenodd"/><path d="M501.54,171.79c.79.74,14.25,13.16,28.87,27.2h0s0,0,.06.06c14,13.4,28.94,28.24,35,35.78,7.11,8.85,8.46,19.39,8.34,27.29h0c-.08,6.12-1.05,10.64-.9,11.57.36,2.11,5,7,5.56,8.59s-2.29,7.2-3.11,11.48.07,5.93.07,5.93,3.72,1.74,5.56-.32c1.18-1.31,4.71-6.46,5-17.08a.45.45,0,0,1,0-.1c.18-6-.66-13.76-3.51-23.55-7.93-27.19-41.39-67-41.39-67C530.44,194.87,502.69,172.71,501.54,171.79Z" fill="#f48225" data-secondary="true" fill-rule="evenodd"/><path d="M541.12,191.65l-2.19.31s37.15,36.11,47.13,84.78C586.06,276.74,587.76,243.38,541.12,191.65Z" fill-rule="evenodd" opacity="0.2"/><path d="M484.73,474.52l.1,0a8.64,8.64,0,0,0,1,.15c2.5.23,5-1.38,8.2-4.36,2.45-2.29,5.3-5.38,8.86-9.06,8.21-8.51,14.94-11.78,16.31-12.19s10.7,4.16,22.83,2.93a53.18,53.18,0,0,0,8.74-1.69c-20.22,1.81-26.78-10.11-35.88-6.12S477.1,471.87,484.73,474.52Z" fill="#f48225" data-secondary="true" fill-rule="evenodd"/><path d="M500.39,445.34s3.25,1.9,7.36,8.58,20.45,36.89,20.45,36.89a98,98,0,0,1-21.3,20.25c-13.37,9.32-20.25,11.53-20.25,11.53s-2.46-.69-4.4-4.64c0,0,12.21-9.9,17.84-17.06a77.52,77.52,0,0,0,8.77-14s-5.43-14.14-13.56-24C485.72,451.21,500.39,445.34,500.39,445.34Z" fill="#686175" data-primary="true" fill-rule="evenodd"/><path d="M521.06,499s-12.65-2.06-22.82,4.07l-7.35,7.35s4.5-4.12,17.32-.3A88.62,88.62,0,0,0,521.06,499Z" fill="#f48225" data-secondary="true" fill-rule="evenodd"/><path d="M572.48,437.18s9.8-25.83-1.19-40.51l13.19-14.87s9.71,8.48,6.2,30.44C590.68,412.24,582.27,426.8,572.48,437.18Z" fill="#f48225" data-secondary="true" fill-rule="evenodd"/><path d="M565.69,392.1S554,382.35,540,386.81L555,372s12.35-4.07,19.42,4.55Z" fill="#f48225" data-secondary="true" fill-rule="evenodd"/><path d="M457,422s1,3.89-3,8.39c0,0-9.05-1.91-13.22-4.83a23.34,23.34,0,0,1,.64-9.86Z" fill="#bbc53d" fill-rule="evenodd"/><path d="M457,422l2,.39s1.24,2.12-1.13,6.45L454,430.42S457,425.67,457,422Z" fill="#bbc53d" fill-rule="evenodd"/><path d="M457,422l2,.39s1.24,2.12-1.13,6.45L454,430.42S457,425.67,457,422Z" fill-rule="evenodd" opacity="0.2"/><polygon points="458.99 422.42 444.28 416.38 441.43 415.73 456.81 422.39 458.99 422.42" fill="#bbc53d" fill-rule="evenodd"/><polygon points="458.99 422.42 444.28 416.38 441.43 415.73 456.81 422.39 458.99 422.42" fill="#fff" fill-rule="evenodd" opacity="0.4"/><path d="M451.29,422.52s.86,1.86-1,5.27l-1.31.13s1.56-3.21,1.21-5.47Z" fill-rule="evenodd" opacity="0.2"/><polygon points="450.24 422.45 443.31 419.53 444.04 419.61 451.29 422.52 450.24 422.45" fill-rule="evenodd" opacity="0.2"/><path d="M425.06,451.4c-2.8-1.66-4.15-3.43-4.16-5.41,0-1.8,1.18-3.56,3-5.25-5.07-7.87-9.66-17.11-5.71-23.31,9.23-14.45,26.2-4.08,26.38-4l-.57.9c-.66-.41-16.24-9.93-24.91,3.65-3.58,5.61.86,14.58,5.62,22a70.83,70.83,0,0,1,8.85-5.89c3.9-2.33,7.94-4.74,8.36-6.42,1.51-5.93,5.16-5.26,5.31-5.23l-.21,1c-.11,0-2.82-.45-4.07,4.45-.53,2.1-4.39,4.41-8.85,7.07a70.18,70.18,0,0,0-8.81,5.87c1.32,2,2.64,3.92,3.8,5.59,3.63,5.2,4.84,7.05,4,8-.37.4-1,.49-2.45-.1A45.72,45.72,0,0,1,425.06,451.4Zm3.15-4.3c-1.17-1.68-2.46-3.52-3.74-5.47-1.53,1.45-2.51,2.92-2.51,4.36s1.23,3.07,3.64,4.5c4.93,2.93,6.29,3.27,6.67,3.23C432.26,452.91,430.11,449.83,428.21,447.1Z" fill="#bbc53d"/><path d="M462.51,437.38s1.05.21,2.18,5.86,11.74,10.09,19.95,6.52S486,431.88,481.87,429l-1.94-.9-2.12-3.26a26.65,26.65,0,0,1-8.48,6.49l1.89,2.59a28.69,28.69,0,0,0-6.57,2A8.24,8.24,0,0,0,462.51,437.38Z" fill-rule="evenodd" opacity="0.2"/><path d="M494.05,470.33s1.1-7.84-1.34-11.72L498,466.4Z" fill-rule="evenodd" opacity="0.2"/><path d="M486.54,474.71a3.73,3.73,0,0,0-.47,0,1.13,1.13,0,0,0,.58-.05A.22.22,0,0,0,486.54,474.71Z" fill="#a4006d" fill-rule="evenodd"/><path d="M456.13,460.51l.08.21c.31.74,1.58,3.11,5.69,4.6,4.94,1.8,6.22-.21,11.15,2.55,4.51,2.51,7.78,5.82,11.68,6.65l.1,0a7.91,7.91,0,0,0,.85.13c-1.19-.26-3.7-1.37-8.64-5.26-8-6.32-14.68-4.52-17.18-5.42A7.5,7.5,0,0,1,456.13,460.51Z" fill-rule="evenodd" opacity="0.2"/><path d="M479.92,457.71a18,18,0,0,1-12.24,4.5S475.5,460.42,479.92,457.71Z" fill-rule="evenodd" opacity="0.2"/><path d="M508.86,486.87s3.92-2.93,9.62.85c0,0-5.22-6.77-11.06-4.28Z" fill-rule="evenodd" opacity="0.2"/><path d="M486.65,522.59s26.52-14.15,41.55-31.78A100.57,100.57,0,0,1,486.65,522.59Z" fill-rule="evenodd" opacity="0.2"/><path d="M557,423.09s-14.16-7.88-22-9.22l6.73.12a19.74,19.74,0,0,0-11.41-11.77s17.17,3.62,23.14,9.95l-3.85,4.38Z" fill-rule="evenodd" opacity="0.2"/><path d="M560.88,442.5s5.57-9.09,1.36-15C562.24,427.51,563.51,435.7,560.88,442.5Z" fill-rule="evenodd" opacity="0.2"/><path d="M589.66,375.43s2.66,1.47,11.73-1.17c0,0-8.07,7.2-16,6.43Z" fill-rule="evenodd" opacity="0.8" fill="url(#baa109a5-c6f1-4ee6-b8d0-5cd4bdfd53dc)" style="mix-blend-mode:multiply"/><path d="M606.88,370.9s-3.07,15.58-19.36,38.56-18.67,31.76-18.67,31.76S600.85,408.61,606.88,370.9Z" fill-rule="evenodd" opacity="0.2"/><path d="M565.87,359.81s3.94.2,4.75,6.22-16.74,45.42-17.09,46.13l0-.08a.64.64,0,0,1,.1-.13c1-1.53,7.06-10.95,14.16-23.54.11-.21.24-.41.35-.62,4.76-8.47,10-18.33,14.35-28.17,0,0-4.19-21.29-9.2-26.09C568,343,561.35,347.89,565.87,359.81Z" fill-rule="evenodd" opacity="0.2"/><path d="M554.86,328.49a12.75,12.75,0,0,1,5.39,2.39c.23.06,4.26,1.07,5.63-.52s-1.19-8.34-1.19-8.34S560.4,328.12,554.86,328.49Z" fill-rule="evenodd" opacity="0.2"/><path d="M543.17,316.38s6.28-11.59,16-4.81c0,0-10-12.6-21.07,1.65Z" fill-rule="evenodd" opacity="0.2"/><path d="M572.92,273.71c.36,2.11,5,7,5.56,8.59,3,1.44,7.55,0,7.55,0a.45.45,0,0,1,0-.1c0-.59-.53-3.44-5.18-4.53A17.44,17.44,0,0,1,572.92,273.71Z" fill-rule="evenodd" opacity="0.2"/><path d="M564.5,230.37c-9-8.27-32.55-30-34-31.31,14,13.4,28.94,28.24,35,35.78,7.11,8.85,8.46,19.39,8.34,27.29.24-.24,6.14-6.35,4.35-10.88S573.8,238.91,564.5,230.37Z" fill-rule="evenodd" opacity="0.2"/><path d="M574.31,340.3l-.28-3.71s3.37,6.33,3.59,9.62Z" fill-rule="evenodd" opacity="0.2"/><path d="M390.31,509.63a4.71,4.71,0,0,1,1.72,2.86,65.46,65.46,0,0,1,7.85,1.87l-4.41-4.76a3.82,3.82,0,0,1-2.67,1A14.73,14.73,0,0,1,390.31,509.63Z" fill="#f29981" fill-rule="evenodd"/><path d="M369.89,499.57c.26,1.71,1.1,2.08,1.1,2.08l1.38.49a2.29,2.29,0,0,0,.34,1.56,112.33,112.33,0,0,1,13.1.94c3.74.7,8.3,3.94,9.41,4.77-1.2-1-6.48-5-8.54-5.83a14.09,14.09,0,0,1-4.41-3.09l2-.68-2-.66a3.33,3.33,0,0,1-1.66-2A79.87,79.87,0,0,0,369.89,499.57Z" fill="#f29981" fill-rule="evenodd"/><path d="M468.88,523.69a19.53,19.53,0,0,0-4.07.29A30.47,30.47,0,0,1,468.88,523.69Z" fill-rule="evenodd" opacity="0.5" fill="url(#a1d881cc-04ce-4509-b7ea-4b6dfc51fe53)" style="mix-blend-mode:multiply"/><path d="M464,524.23a67.64,67.64,0,0,0-6.48,4.55c.3.75,1.72,1.39,1.72,1.39a39.9,39.9,0,0,1,8.38-2.43,24.07,24.07,0,0,0,10.16.66,10.84,10.84,0,0,0,2.5-.85c-3.61.9-12.39-.36-12.39-.36S463.06,524.76,464,524.23Z" fill="#f29981" fill-rule="evenodd"/><path d="M460.44,515.76l-2.38-.22s-3.95,1.35-5.11,1.84-6.65,4.93-6.65,4.93a1.83,1.83,0,0,0,.49,1.61h.68a2.09,2.09,0,0,0,1.9,1.08c1.44,0,7.84-2.24,11.26-2.4a38.09,38.09,0,0,1,8.44,1.09l-5.81-2a45,45,0,0,1-4.27-3.87,3.35,3.35,0,0,1-.69-1.78Z" fill="#f29981" fill-rule="evenodd"/><path d="M447.46,515.59a1.63,1.63,0,0,0,.92,1.54,41.42,41.42,0,0,0,4.67-.73c1.38-.4,5-.86,5-.86a5.74,5.74,0,0,1-1.21-3.53h0a3.19,3.19,0,0,0-.63,0C452.84,512.4,447.46,515.59,447.46,515.59Z" fill="#f29981" fill-rule="evenodd"/><path d="M447.47,523.91s6.46-4.2,7.79-4.72a48.24,48.24,0,0,1,5.87-1.25,47.67,47.67,0,0,0-6.28,1C453.4,519.51,447.47,523.91,447.47,523.91Z" fill="#ef8e78" fill-rule="evenodd"/><path d="M448.49,524.81s1.94-1,1.81-1.62-2.83.72-2.83.72A1.89,1.89,0,0,0,448.49,524.81Z" fill="#f9ad9b" fill-rule="evenodd"/><path d="M447.08,523.72s2.32-1.79,1.83-2.67c-.24-.44-2.37,1.16-2.37,1.16S446.38,523.33,447.08,523.72Z" fill="#f9ad9b" fill-rule="evenodd"/><path d="M448.5,516.64s1.39-.64,1.21-1.41-2.25.36-2.25.36S447.78,516.53,448.5,516.64Z" fill="#f9ad9b" fill-rule="evenodd"/><path d="M457.52,528.78s2.22-1.48,2.6-1.06-1.05,2.09-1.05,2.09A2.15,2.15,0,0,1,457.52,528.78Z" fill="#f9ad9b" fill-rule="evenodd"/><path d="M372.37,502.14a90.32,90.32,0,0,1,9.73-1.94,12.73,12.73,0,0,1,4.21.14S380.29,499,372.37,502.14Z" fill="#ef8e78" fill-rule="evenodd"/><path d="M372.43,503.07s2.93-.42,3.67-1.2-3.73.27-3.73.27Z" fill="#f9ad9b" fill-rule="evenodd"/><path d="M370.3,500.88s3.24-1.21,3.17-1.89-3.58.58-3.58.58Z" fill="#f9ad9b" fill-rule="evenodd"/><path d="M382.19,512.26s3.28-.11,2.85-1-3.26-.14-3.26-.14Z" fill="#f9ad9b" fill-rule="evenodd"/><path d="M549.4,305.68s-8.44-.57-16.16,13.58c0,0-23.63,5.08-37.76,3a91.68,91.68,0,0,1,26.45-17.85S529.8,305.5,549.4,305.68Z" fill="#fff" fill-rule="evenodd" opacity="0.63" style="mix-blend-mode:soft-light"/><path d="M503.9,447.89s-3.43,6.05-8.46,5.3-7.84-12.14-5.37-14.1S500.77,443,503.9,447.89Z" fill="#fff" fill-rule="evenodd" opacity="0.3" style="mix-blend-mode:soft-light"/><path d="M558.11,427.12c1.33,4.66-6.46,4.75-11.14,2.71s-10-12.43-8.89-13.33S556.19,420.4,558.11,427.12Z" fill="#fff" fill-rule="evenodd" opacity="0.3" style="mix-blend-mode:soft-light"/><path d="M487.92,348.22s4.43-12.24-5.79-18.5-12-3.44-12-3.44,2.06-17.09,18.82-13.56,18.09,11.42,18.32,19.28S490,347.34,487.92,348.22Z" fill="#682c31" fill-rule="evenodd"/><path d="M468.61,318.38s-.89-1.25-.31,14.82-12.82,12.74-12.82,12.74,16.19,8.92,18-2.83C474.89,334.26,467.9,330.75,468.61,318.38Z" fill="#7a383a" fill-rule="evenodd"/><path d="M455,391.9s-.28-2.07-3.43-12.42-3.15-17.8,24.49-26.87,30.54-16.25,29.12-26.08c-2.17-15-29.05-15.43-32.81-4.7s6.3,19.35-.92,25.9-20.21-4.91-20.21-4.91,14.49,11.09,20.08,3.61-4.69-17.63-2.72-28.05,31.84-19.15,38.9,8.74c0,0,25.35,25.76,24.5,45.3s-12.21,24.31-12.21,24.31-3.76,10.74-11.14,16.51-16.22,4-16.22,4-5.08-5.62-11.41-1c0,0,2.22-7.51.16-13.56a15,15,0,0,0-7.41-8.41l.87-.79-7.06-1.71v-.68l-.78.49a15.1,15.1,0,0,1-6.75-4.68A12.59,12.59,0,0,0,455,391.9Z" fill="#7a383a" fill-rule="evenodd"/><path d="M454.28,393.36s-.11-4-8.53-9.57S430,372.93,433.86,364.48s26.4-7.67,39.73-11l-7.35,5.2s-6,1.16-18.09.28-18.08,9.86-13.13,15.2,19,7.17,20,17.78Z" fill="#682c31" fill-rule="evenodd"/><path d="M469.47,392.26a26.55,26.55,0,0,1,9.79-15c8.19-6.17,16.7-8.11,22.66,3.13s10,19.07,17.88,16.31c0,0-7.51,7.06-13.53,5.45s-9.62-11.67-18.85-13.36-12.77,4.69-12.77,4.69Z" fill="#682c31" fill-rule="evenodd"/><path d="M474.9,394.91s5-6.15,17.92,2.43,12.4,18.07,21.45,9.87c0,0-3.79,4.65-6.84,3.52s-8.15-8.82-16.16-13.05A22,22,0,0,0,476,395.56Z" fill-rule="evenodd" opacity="0.2"/><path d="M477.38,396.82a12.81,12.81,0,0,1,8.13,7.77c2.64,6.5,10.31,14.48,19.34,11,0,0-4.31,2.7-12.41,1.7a102.2,102.2,0,0,0-11.41-1S484.54,404,477.38,396.82Z" fill-rule="evenodd" opacity="0.2"/><path d="M460.06,386.93A24.38,24.38,0,0,1,453.71,372c-.72-9.53,13.83-15.19,22.36-19.39,0,0-14.71,5.77-20.83,12.47s1.23,20.27,1.27,24.57Z" fill-rule="evenodd" opacity="0.5" fill="url(#bd71bf71-173c-4caa-85ba-0bd359a7af16)" style="mix-blend-mode:multiply"/><path d="M530.9,363.69s-.39,24.56-11.22,26.57-12.38-15.69-25.8-20.59-26.29,21.45-26.29,21.45,12-26.69,27.27-22.19,15.8,19.65,26.34,16.7,9.29-23.36,9.29-23.36Z" fill="#682c31" fill-rule="evenodd"/><path d="M466.26,391.42s-4.95-7.18-3.62-18.56A16.18,16.18,0,0,0,466.26,391.42Z" fill="#682c31" fill-rule="evenodd"/><path d="M507.51,327.12a21.78,21.78,0,0,1-1.91,15.08c-4.07,7.3-21.77,7.65-29.53,10.41a127.4,127.4,0,0,1,25.05-2.29C513.82,350.58,518,337.75,507.51,327.12Z" fill-rule="evenodd" opacity="0.2"/><path d="M519.8,396.73s-7.29,2.63-12.58-6.84c0,0,.9,9.43,5.33,10.33S519.8,396.73,519.8,396.73Z" fill-rule="evenodd" opacity="0.2"/><path d="M523,346.59s9,14.09,4.48,28.16c0,0,4.15-11.15-7.56-32.55Z" fill-rule="evenodd" opacity="0.5" fill="url(#a05c4151-4c34-4818-a86f-934d2af5c19c)" style="mix-blend-mode:multiply"/><path d="M467.06,391.68A61.48,61.48,0,0,1,472,379.93a35.46,35.46,0,0,1,7.82-10,18.71,18.71,0,0,1,5.42-3.25,15,15,0,0,1,6.23-.93,18.43,18.43,0,0,1,6.14,1.54,56.62,56.62,0,0,1,5.64,3c3.71,2.14,7.38,4.34,11,6.54a108.65,108.65,0,0,0,11.23,6.22,11,11,0,0,0,6.27,1.05,8.69,8.69,0,0,0,3-1.2,4.87,4.87,0,0,0,1.21-1.05,4.36,4.36,0,0,0,.75-1.43,6.27,6.27,0,0,0,0-3.19,13.62,13.62,0,0,0-1.16-3A27.64,27.64,0,0,0,531.9,369a27.63,27.63,0,0,1,3.61,5.29,13.29,13.29,0,0,1,1.14,3,6.05,6.05,0,0,1,0,3.16,4.38,4.38,0,0,1-.74,1.4,4.75,4.75,0,0,1-1.2,1,8.68,8.68,0,0,1-3,1.17,10.76,10.76,0,0,1-6.19-1.08,107.57,107.57,0,0,1-11.19-6.26c-3.65-2.23-7.32-4.44-11-6.6a56.09,56.09,0,0,0-5.66-3.07,18.7,18.7,0,0,0-6.24-1.59,15.42,15.42,0,0,0-6.38.91,19.13,19.13,0,0,0-5.55,3.29,36.11,36.11,0,0,0-8,10.08,61.84,61.84,0,0,0-5.05,11.84Z" fill="#682c31"/><path d="M466,390.82a66.47,66.47,0,0,1,5.3-11.77,39.63,39.63,0,0,1,7.94-10.11,20.57,20.57,0,0,1,5.36-3.48,13.49,13.49,0,0,1,3-.95,12,12,0,0,1,3.17-.05,21,21,0,0,1,6.16,1.78,48.07,48.07,0,0,1,5.7,3.06c3.68,2.28,7.16,4.87,10.64,7.45A106.2,106.2,0,0,0,524,384.08a22.75,22.75,0,0,0,3,1.38,9.68,9.68,0,0,0,3.18.72,9.87,9.87,0,0,0,3.24-.39,4.55,4.55,0,0,0,2.63-1.85,5,5,0,0,0,.63-3.16,10.73,10.73,0,0,0-.87-3.13,14.35,14.35,0,0,0-3.78-5.23,14.52,14.52,0,0,1,3.74,5.25,10.3,10.3,0,0,1,.83,3.12,4.84,4.84,0,0,1-.63,3.1,4.47,4.47,0,0,1-2.59,1.78,9.82,9.82,0,0,1-3.19.36,14.64,14.64,0,0,1-6-2.13,103.59,103.59,0,0,1-10.68-7.39c-3.47-2.6-6.93-5.23-10.61-7.55a48.83,48.83,0,0,0-5.73-3.13,21.78,21.78,0,0,0-6.28-1.87,13.1,13.1,0,0,0-3.31,0,13.7,13.7,0,0,0-3.17,1,21.3,21.3,0,0,0-5.54,3.53,40.79,40.79,0,0,0-8.14,10.21,66.87,66.87,0,0,0-5.46,11.88Z" fill="#682c31"/><path d="M475,393.75a38.07,38.07,0,0,1,6.79-6.63,25,25,0,0,1,8.41-4.32,16.76,16.76,0,0,1,9.34.08,11.18,11.18,0,0,1,4.09,2.26,11.31,11.31,0,0,1,2.78,3.78c1.37,2.88,1.87,6.08,2.53,9.22a28.23,28.23,0,0,0,1.28,4.66,8.19,8.19,0,0,0,2.85,3.86,6.56,6.56,0,0,0,2.21,1,6.34,6.34,0,0,0,2.41.25,4,4,0,0,0,2.23-.91,5.28,5.28,0,0,0,1.39-2,13.34,13.34,0,0,0,.87-4.72,27.59,27.59,0,0,0-.31-4.8,26.6,26.6,0,0,1,.26,4.8,13.34,13.34,0,0,1-.91,4.68,5.07,5.07,0,0,1-1.38,1.91,3.84,3.84,0,0,1-2.17.86,6.42,6.42,0,0,1-2.34-.26,6.69,6.69,0,0,1-2.15-1,7.94,7.94,0,0,1-2.73-3.8,29.08,29.08,0,0,1-1.22-4.62c-.62-3.13-1.09-6.36-2.46-9.33a11.3,11.3,0,0,0-7.08-6.34,17.22,17.22,0,0,0-9.65-.18,25.28,25.28,0,0,0-8.66,4.33,38.78,38.78,0,0,0-7,6.71Z" fill="#682c31"/><path d="M475.18,395.19a35.1,35.1,0,0,1,7.19-5.37,23,23,0,0,1,8.42-2.91,14.61,14.61,0,0,1,8.67,1.51,19,19,0,0,1,3.7,2.54,37.07,37.07,0,0,1,3.26,3.13,32.27,32.27,0,0,1,5.07,7.47c.69,1.35,1.28,2.74,1.93,4.12a7.92,7.92,0,0,0,2.72,3.64,4,4,0,0,0,2.24.46,4.82,4.82,0,0,0,2.22-.6,3.55,3.55,0,0,0,1.46-1.74,6.63,6.63,0,0,0,.46-2.24,16.76,16.76,0,0,0-.58-4.51,31.22,31.22,0,0,0-1.46-4.31,30.27,30.27,0,0,1,1.41,4.32,16.35,16.35,0,0,1,.53,4.5,4.5,4.5,0,0,1-1.9,3.85,4.59,4.59,0,0,1-2.15.56,3.79,3.79,0,0,1-2.14-.47,7.76,7.76,0,0,1-2.59-3.57c-.63-1.37-1.21-2.78-1.88-4.15a32.59,32.59,0,0,0-5.05-7.59,35.28,35.28,0,0,0-3.26-3.21,19.41,19.41,0,0,0-3.76-2.64,15.29,15.29,0,0,0-9-1.67,23.86,23.86,0,0,0-8.7,2.9,36,36,0,0,0-7.42,5.42Z" fill="#682c31"/><path d="M461.6,388.05a24.51,24.51,0,0,1-1.87-11.61,18.64,18.64,0,0,1,4.52-10.75,16.79,16.79,0,0,1,4.82-3.41,42,42,0,0,1,5.56-2.26c3.81-1.27,7.72-2.21,11.63-3.19s7.82-1.94,11.65-3.22,7.64-2.84,10.72-5.5c.4-.32.72-.71,1.09-1.06s.63-.8.94-1.19a13.66,13.66,0,0,0,1.62-2.56,11.55,11.55,0,0,0,1.07-5.9,13.34,13.34,0,0,0-2-5.67,19.73,19.73,0,0,0-3.88-4.61,20.07,20.07,0,0,1,3.84,4.63,13.51,13.51,0,0,1,1.91,5.66,11.54,11.54,0,0,1-1.11,5.82,14.43,14.43,0,0,1-1.62,2.52c-.32.39-.61.81-.95,1.17s-.68.73-1.08,1c-3.07,2.6-6.89,4.11-10.68,5.37s-7.74,2.17-11.66,3.11-7.84,1.86-11.69,3.11a42.7,42.7,0,0,0-5.64,2.24,17.51,17.51,0,0,0-5,3.49A19.27,19.27,0,0,0,459,376.37a25.27,25.27,0,0,0,1.85,12Z" fill="#682c31"/><path d="M459.75,387.51a11.19,11.19,0,0,0-1.46-3.12,29.33,29.33,0,0,0-2-2.7,46.57,46.57,0,0,0-4.64-4.78c-.8-.76-1.67-1.46-2.5-2.18l-2.57-2.08a14.11,14.11,0,0,1-2.29-2.28,5.41,5.41,0,0,1-1.27-2.81,3.8,3.8,0,0,1,1-2.84,9.78,9.78,0,0,1,2.47-2,30.2,30.2,0,0,1,6-2.64,98.47,98.47,0,0,1,12.81-3.13q3.25-.6,6.52-1.1c2.18-.34,4.36-.71,6.5-1.26a52.11,52.11,0,0,0,12.36-4.71,37.94,37.94,0,0,0,10.44-8.06,21.73,21.73,0,0,0,3.64-5.5,9.38,9.38,0,0,0,.77-6.43,9.34,9.34,0,0,1-.82,6.41,21.62,21.62,0,0,1-3.67,5.46,37.94,37.94,0,0,1-10.45,7.95,52.23,52.23,0,0,1-12.34,4.59c-2.13.53-4.3.88-6.48,1.2s-4.37.67-6.54,1.06a98.51,98.51,0,0,0-12.89,3.05,30,30,0,0,0-6.11,2.65,10.13,10.13,0,0,0-2.63,2.13,4.44,4.44,0,0,0-1.11,3.26,6.06,6.06,0,0,0,1.38,3.14,15.31,15.31,0,0,0,2.36,2.4l2.56,2.09c.82.73,1.67,1.42,2.46,2.18a47.22,47.22,0,0,1,4.54,4.74,30.48,30.48,0,0,1,1.91,2.64,10.89,10.89,0,0,1,1.33,2.84Z" fill="#682c31"/><path d="M470.53,314.35a9.3,9.3,0,0,0-2.71,5.73,15.26,15.26,0,0,0,.73,6.4,26.7,26.7,0,0,0,2.7,5.87c.56.92,1.12,1.84,1.68,2.72a25.47,25.47,0,0,1,1.45,2.79,11,11,0,0,1,1.15,6,5.32,5.32,0,0,1-1.23,2.69,6.42,6.42,0,0,1-2.48,1.71,13.56,13.56,0,0,1-6.18.72,27.38,27.38,0,0,1-6.23-1.28,25.42,25.42,0,0,0,6.19,1.67,14,14,0,0,0,6.44-.54,6.58,6.58,0,0,0,2.77-1.82,6,6,0,0,0,1.43-3,11.72,11.72,0,0,0-1.13-6.43,25.29,25.29,0,0,0-1.53-2.86c-.59-.91-1.15-1.81-1.71-2.7a29.71,29.71,0,0,1-2.74-5.68,14.87,14.87,0,0,1-.92-6.19A9.37,9.37,0,0,1,470.53,314.35Z" fill="#682c31"/><path d="M476.29,395.87a10,10,0,0,1,5.38-1.92,8.57,8.57,0,0,1,5.43,1.75,16.13,16.13,0,0,1,3.91,4.39c1.08,1.69,2.07,3.44,3.06,5.19s2,3.52,3.06,5.22a18.85,18.85,0,0,0,3.87,4.66,5.59,5.59,0,0,0,2.77,1.24,5.14,5.14,0,0,0,3-.57,15.36,15.36,0,0,0,4.52-4,15,15,0,0,1-4.57,3.86,5,5,0,0,1-2.89.51,5.38,5.38,0,0,1-2.65-1.25,19,19,0,0,1-3.72-4.66c-1-1.71-2-3.49-2.94-5.26s-1.92-3.54-3-5.27a16.73,16.73,0,0,0-4-4.62,9.33,9.33,0,0,0-5.83-1.94,10.76,10.76,0,0,0-5.85,2Z" fill="#682c31"/><path d="M477.19,396.62a1.31,1.31,0,0,1,.73-.33,2.42,2.42,0,0,1,.95.09,5.63,5.63,0,0,1,1.86.94,18.69,18.69,0,0,1,3.18,3,68.65,68.65,0,0,1,5.22,7.16,34.36,34.36,0,0,0,5.6,6.95,11.36,11.36,0,0,0,3.88,2.18A11.77,11.77,0,0,0,503,417a11.59,11.59,0,0,1-4.39-.46,11.38,11.38,0,0,1-3.78-2.23,33.6,33.6,0,0,1-5.39-7,70.22,70.22,0,0,0-5.11-7.33,19.72,19.72,0,0,0-3.22-3.17,6.79,6.79,0,0,0-2.08-1.1,2.4,2.4,0,0,0-2.49.48Z" fill="#682c31"/><path d="M451.26,399s-1.3,9-2.22,10.3a4.92,4.92,0,0,1-2.82,1.64l-3.71-1s-.45-6.11,1.29-10.67Z" fill="#ff6832" fill-rule="evenodd"/><path d="M443.86,398.32c-2,4.45-1.89,11.76-1.89,11.76l6.23,2.36c2.66-.53,4.28-1.37,5-1.17,4.21,1.12,5,7.47,5,7.47,9,4.82,14.48,4.75,14.48,4.75,4-4.8,5.16-11.46,5.16-11.46s-14.13-5.26-20.1-7.53S443.86,398.32,443.86,398.32Zm.33,1.4s20.75,10.26,31.88,12.9a21.18,21.18,0,0,1-4,9.33s-5.33.53-13-3.7c0,0-1.95-6.87-6.08-8.06a20.16,20.16,0,0,0-4.56,1.65l-5.6-2.12A20.48,20.48,0,0,1,444.19,399.72Z" fill="#ffd64d" fill-rule="evenodd"/><path d="M451.26,399l-7.4-.71s19.57,9.6,34,13.69l3.53.23S459.42,403.37,451.26,399Z" fill="#fff663" fill-rule="evenodd"/><path d="M472.73,423.49s4.44-1,6.69-3.4,2-7.84,2-7.84L477.9,412S477.36,417.25,472.73,423.49Z" fill="#ff6832" fill-rule="evenodd"/><path d="M472.15,422.14s-5.33.52-13-3.7c0,0-3.51-6.57-6.08-8.07a20.73,20.73,0,0,0-4.57,1.65l-4.94-2a18.65,18.65,0,0,1,1.08-10s19.75,9.58,31.45,12.79A21,21,0,0,1,472.15,422.14Z" fill="#8edeff" fill-rule="evenodd" opacity="0.69"/><path d="M483.86,414.85s-3-.09-6.59-.12l.63-2.71a9.3,9.3,0,0,1,7.87,2.33Z" fill-rule="evenodd" fill="url(#f2c1584c-e7dd-4b0b-9bc0-220ffb622ce0)"/><path d="M482.82,414.84s7.06-3.43,9.62,2.42c1.85,4.21-4.35,11.53-9.47,10.58a5.38,5.38,0,0,1-4.7-5.69S480.58,416,482.82,414.84Z" fill="#f9ad9b" fill-rule="evenodd"/><path d="M481.08,418.51s5.23-1.72,8.14-.5,1.78,4.46.47,6.16c0,0,.27-3.63-2-5.32,0,0-.23,3.26-1.49,4.7s-4.28.89-4.92.28a2.69,2.69,0,0,1-.59-1.81s2.28-.5,2.93-1.88S481.88,418.15,481.08,418.51Z" fill="#f29981" fill-rule="evenodd"/><path d="M481.08,418.51s2.49-.37,2.69,1.16-3,2.35-3,2.35a2.57,2.57,0,0,0,3,2.11c2.75-.18,4.91-4.33,1.94-6.52A22.12,22.12,0,0,0,481.08,418.51Z" fill="#f29981" fill-rule="evenodd"/><path d="M459.3,359.66s-1.06,1.83,1.77,2.95,5.11-.64,10.48,3.73,3.15,5.25,4.9,7.1,8,.61,8,.61-5,2.48-7.55,5.29c0,0,2.6-3.39,1.3-4s-2,.12-5.6-5.31-7.66-5.56-12-5.75-4.46-2.49-4.46-2.49Z" fill="#fff" fill-rule="evenodd" opacity="0.2"/><path d="M530.9,363.69a13.51,13.51,0,0,0-5.78-10.08c-5.69-4-4.88-1.16-11-4.55s-4-5.33-4.8-8.92-7-1.18-7-1.18a11.15,11.15,0,0,0,2.89-5.91s-.1,2,0,3.3,2.49.42,4.11,2.46-1.06,5.69,4.7,9,8.49,1,11.65,4.12C525.67,351.92,530.31,357.05,530.9,363.69Z" fill-rule="evenodd" opacity="0.3" fill="url(#ad106ded-db78-4292-8b8a-2e767cac1c08)" style="mix-blend-mode:screen"/><path d="M606.88,370.9s-4.62-10.44-17-22.71-21.52-22.72-27.61-32.36-13.71-10.16-13.71-10.16,6.28-1.21,12.49,7.68,14.21,18.42,26,29.79S603.36,363.2,606.88,370.9Z" fill="#95bbf9"/><path d="M589.91,317.7s2.42-28.81-9-62.61c-9.8-28.93-39.77-63.44-39.77-63.44S595.79,237.44,589.91,317.7Z" fill="#95bbf9"/><path d="M508,333.82a17.6,17.6,0,0,0-.33-5.86s5.7,5.76,8.37,9.08c0,0-6.28-8.4-8.84-11,0,0-.24-6.24-7.58-13.19s-19.58-6.49-26.76-.37c0,0,11.43-9.08,24.58-.38C509.22,319.88,508,333.82,508,333.82Z" fill="#95bbf9"/><path d="M545.25,305.34a83.62,83.62,0,0,1-14.86.51c-6.59-.56-8.46-1.43-8.46-1.43a59,59,0,0,0-13,7,50.32,50.32,0,0,1,13.28-7.65A96.49,96.49,0,0,0,545.25,305.34Z" fill="#95bbf9"/><path d="M439.14,411s-13.28-5.07-20.77,6.1C418.37,417.14,424.07,405.36,439.14,411Z" fill="#95bbf9" fill-rule="evenodd"/><path d="M458.52,355.88S437,358,433.86,364.48C433.86,364.48,434.6,357.74,458.52,355.88Z" fill="#95bbf9" fill-rule="evenodd"/><path d="M414.38,294.85a31.25,31.25,0,0,1,2.38,28.1,1.46,1.46,0,0,1-2.47.41l-21.62-25.24,8.57-5.84Z" fill="#7197aa"/><path d="M414.38,294.85a31.25,31.25,0,0,1,2.38,28.1,1.46,1.46,0,0,1-2.47.41l-21.62-25.24,8.57-5.84Z" opacity="0.2"/><path d="M513.2,616.65s54.58-24.47,55.92-71.39a210.83,210.83,0,0,0,3.35-38.87" fill="none" stroke="#7b911d" stroke-miterlimit="10"/><path d="M575.82,536.06s7.92-23.76,29.07-24A37.63,37.63,0,0,1,575.82,536.06Z" fill="#a2c130"/><path d="M556.43,562.44s-13.12-15.79-5.62-50.43c0,0,13.08,10.14,10.29,32.21C561.1,544.22,560.12,556,556.43,562.44Z" fill="#a2c130"/><path d="M572.49,509.08s3.82-22.71,14.32-33.21C586.81,475.87,588.81,497.08,572.49,509.08Z" fill="#a2c130"/><path d="M572.24,518.32s-12.89-6.24-15.87-25.85C556.37,492.47,569,503.13,572.24,518.32Z" fill="#a2c130"/><path d="M539.8,591.32s7.59-25.45-3.13-45.17C536.67,546.15,524.72,573.91,539.8,591.32Z" fill="#a2c130"/><path d="M516.9,604.8s2.84-1.51,3.7-15.83c0,0,3.41-16.47,7.71-21.76,0,0-17.66-1.32-16.39,27.51a14.26,14.26,0,0,0,1.55,6.08A11,11,0,0,0,516.9,604.8Z" fill="#a2c130"/><path d="M521.76,612.09a12.32,12.32,0,0,1-4.56-5.42,20.53,20.53,0,0,1-1.81-6.95,30.69,30.69,0,0,1-.12-3.59c0-1.19.16-2.38.29-3.56s.4-2.34.65-3.5.62-2.29,1-3.42c-.13,1.18-.33,2.34-.49,3.51s-.24,2.33-.36,3.49-.13,2.33-.12,3.5a30.9,30.9,0,0,0,.18,3.47,23.89,23.89,0,0,0,1.51,6.74c.22.53.46,1.06.71,1.58a17.3,17.3,0,0,0,.88,1.5A11,11,0,0,0,521.76,612.09Z" fill="#7b911d"/><path d="M542.84,596.6A15.71,15.71,0,0,1,539,590a30.92,30.92,0,0,1-1.5-7.55c-.14-1.28-.12-2.56-.16-3.85s.07-2.56.16-3.83.27-2.54.44-3.81.45-2.51.72-3.76c0,1.28-.16,2.55-.23,3.81s-.11,2.53-.16,3.8,0,2.52,0,3.78.06,2.53.22,3.77a40.33,40.33,0,0,0,1.23,7.42,24.46,24.46,0,0,0,1.24,3.55A13.49,13.49,0,0,0,542.84,596.6Z" fill="#7b911d"/><path d="M555.71,540.49c.32,3.33.53,6.67.71,10s.33,6.67.45,10,.19,6.68.21,10l0,5c0,1.67,0,3.34-.08,5-.16-1.66-.27-3.33-.41-5l-.3-5c-.2-3.33-.32-6.67-.44-10s-.19-6.67-.21-10S555.62,543.84,555.71,540.49Z" fill="#7b911d"/><path d="M569.12,545.26a40.33,40.33,0,0,1,4.72-7.49,42.56,42.56,0,0,1,6.16-6.43,40,40,0,0,1,3.59-2.65c1.25-.78,2.48-1.59,3.74-2.35L591.1,524c1.27-.74,2.53-1.51,3.82-2.22-1.17.9-2.37,1.75-3.55,2.63L587.76,527c-2.41,1.71-4.92,3.24-7.12,5.13a55.47,55.47,0,0,0-6.21,6.15q-1.45,1.63-2.76,3.41C570.77,542.83,569.93,544,569.12,545.26Z" fill="#7b911d"/><path d="M543.46,620.72s-18.28,36-57.14,19.43l-31.78-14.83-11.08-5.17a89.54,89.54,0,0,0-10.57-4.07s16.39-6.73,33.33,0c0,0,11.77,2.52,18.82-1.49,0,0,11.6-3.89,26.28,1.42a73.87,73.87,0,0,0,21.42,4.18Z" fill="#647b93"/><path d="M727.17,441.36a34.81,34.81,0,0,0,.85,5.58c.23.92.45,1.83.72,2.73s.54,1.79.91,2.66a37.49,37.49,0,0,0,5.39,9.78,22.87,22.87,0,0,0,1.75,2.18,20.5,20.5,0,0,0,1.9,2l2,1.93,2.2,1.75,1.1.87c.37.29.78.51,1.17.77l2.38,1.52c1.61,1,3.33,1.75,5,2.69l-2.63-1.09-1.31-.56a8.93,8.93,0,0,1-1.29-.61l-2.48-1.41c-.4-.25-.84-.46-1.23-.73l-1.16-.84c-.77-.56-1.56-1.1-2.3-1.7L738.06,467a18.52,18.52,0,0,1-2-2.08,21.44,21.44,0,0,1-1.84-2.2,35.81,35.81,0,0,1-5.31-10.13A31.87,31.87,0,0,1,727.17,441.36Z" fill="#7b911d"/><path d="M762.53,386.43s-27.64-13.85-42.22-61.85C720.31,324.58,755.88,337.09,762.53,386.43Z" fill="#a2c130"/><path d="M746,357.58c2.49,4.07,4.91,8.19,7.34,12.29l7.25,12.34c2.38,4.13,4.82,8.23,7.28,12.31q1.82,3.08,3.75,6.08c.64,1,1.25,2,2,3,.34.49.67,1,1,1.46l1.13,1.39c-3.34-3.44-5.88-7.55-8.52-11.51s-5-8.12-7.48-12.22-4.77-8.27-7.06-12.46S748.16,361.85,746,357.58Z" fill="#7b911d"/><path d="M725,378.15s7.44,49.66,35.86,58.47C760.89,436.62,758.89,406.44,725,378.15Z" fill="#a2c130"/><path d="M741.42,406.44c.79,1.66,1.59,3.31,2.45,4.94s1.69,3.25,2.61,4.84c1.82,3.18,3.67,6.35,5.76,9.35a81.49,81.49,0,0,0,6.74,8.62c.59.7,1.28,1.31,1.91,2l1,1,1,.88,1,.9a8.77,8.77,0,0,0,1.08.85c.75.52,1.5,1.05,2.25,1.6a36.42,36.42,0,0,1-8.84-6.63,62.3,62.3,0,0,1-7-8.6,84.63,84.63,0,0,1-5.61-9.55A81.17,81.17,0,0,1,741.42,406.44Z" fill="#7b911d"/><path d="M466.12,204.24s-12-14.74-26.59-.49l-7.46,8.85a62.26,62.26,0,0,0-4.46,6c-3.7,5.68-16.09,20.38-49.8,30.79,0,0-49.75,10-63.5-22-.72-1.65-1.48-3.29-2.33-4.87-1.31-2.44-3.11-6.66-2.74-10.91L307.9,184a6.32,6.32,0,0,0-1.09-3.26A61.23,61.23,0,0,0,285.53,162a24.4,24.4,0,0,0,2.85,14.3s1.15,4.57-1.14,7.72c0,0-6,4.28-1.86,12.57,0,0-6.71-9.14-17.57-6.86,0,0-11.43-1.6-15.14-3.65,0,0,6.86,28.45,27.71,25.62,0,0,18-3.11,23.43,14,0,0,13.15,44.57,64.29,66.29a48,48,0,0,1-22,14.85s21.09,19,49.83-8.94a26.2,26.2,0,0,0,4.72-7.46H394l59.56-36.88Z" fill="#7197aa"/><ellipse cx="423.25" cy="245.81" rx="5.85" ry="3.21" transform="translate(-64.68 207.24) rotate(-25.63)" opacity="0.2"/><path d="M462.53,204c-3.56,1.18-9.44,4-15.14,11,0,0-10.59,9.43-11.37,22.8,0,0,0,14.54-11.79,16.9,0,0-24.76,1.17-30.26,35.76h6.68a19.78,19.78,0,0,1-4.72,7.46s19.85,2.09,39-7a50.3,50.3,0,0,0,24.9-26.76c6.46-16,16.11-44.87,8.23-58.17A4.69,4.69,0,0,0,462.53,204Z" fill="#cce4e9"/><path d="M713.44,481.85c0,.74-.06,1.48-.12,2.21a28.64,28.64,0,0,1-.77,4.66h0a11.21,11.21,0,0,1-.76,2.11,4.09,4.09,0,0,1-.44.67c-2.42,2.75-9.25,1.21-15.2-3.42v-.51l0-1.73-.05-3.81,0-1.22.47-.39c2-1.65,9.92-8,13.85-7.87,1.36,0,2.2,1.51,2.66,3.63a17.12,17.12,0,0,1,.33,2.19A28.46,28.46,0,0,1,713.44,481.85Z" fill="#0b477d"/><path d="M713.35,478.37l-16.12,4.12a1,1,0,0,1-1.17-.46,1.06,1.06,0,0,1,.45-1.61l.14-.05L713,476.18A17.12,17.12,0,0,1,713.35,478.37Z" fill="#296091"/><path d="M713.44,481.85c0,.74-.06,1.48-.12,2.21-5.28.53-10.57.93-15.85,1.47-1.41.15-1.4-2.06,0-2.2C702.79,482.78,708.12,482.38,713.44,481.85Z" fill="#296091"/><path d="M711.79,490.83a108.81,108.81,0,0,1-15.28-3.08,1.28,1.28,0,0,1-.37-.18,1.14,1.14,0,0,1,0-1.73,1,1,0,0,1,1-.22,104.23,104.23,0,0,0,15.46,3.1Z" fill="#296091"/><path d="M693,467.15l-5.54.07h-.87l-21.68.25c2.75-5.72,7.27-9.47,8.81-10a30.18,30.18,0,0,1,8.3-.72c.89,0,1.82.09,2.76.2a25.74,25.74,0,0,1,4.44.91,17.29,17.29,0,0,1,2.09.74h0q.68.29,1.32.63a4.59,4.59,0,0,1,.36,7.93Z" fill="#0b477d"/><path d="M690.11,502a13.8,13.8,0,0,1-1.72.86,15.21,15.21,0,0,1-3.59,1.06,10.72,10.72,0,0,1-2.65.13,13.4,13.4,0,0,1-3-.59h0c-5-1.51-9.47-5.54-12-8.35l8.37-4.85s14.21-4,18.18,1.33C696.5,495.45,694.26,499.58,690.11,502Z" fill="#0b477d"/><path d="M682.15,504.07a13.4,13.4,0,0,1-3-.59h0a28.18,28.18,0,0,1-5-6.86c-.49-.94.93-1.77,1.42-.83A27.18,27.18,0,0,0,682.15,504.07Z" fill="#296091"/><path d="M690.11,502a13.8,13.8,0,0,1-1.72.86,52.38,52.38,0,0,1-7-5.4c-.79-.71.38-1.88,1.17-1.16A52.07,52.07,0,0,0,690.11,502Z" fill="#296091"/><path d="M684.74,456.94a121.1,121.1,0,0,0-11.59,8.13c-.83.65-2-.51-1.18-1.17q4.85-3.82,10-7.16C682.87,456.77,683.8,456.83,684.74,456.94Z" fill="#296091"/><path d="M691.27,458.59a50,50,0,0,0-9.19,6.15c-.8.69-2-.48-1.17-1.17a51.41,51.41,0,0,1,8.27-5.72A17.29,17.29,0,0,1,691.27,458.59Z" fill="#296091"/><path d="M694.89,462a30.2,30.2,0,0,0-7.36,5.1l-.11.09a.83.83,0,0,1-1.06-1.26,31.93,31.93,0,0,1,7.82-5.4A4.65,4.65,0,0,1,694.89,462Z" fill="#296091"/><path d="M688.66,497.08a20.65,20.65,0,0,1-2.49.6,28.21,28.21,0,0,1-4.64.39h-.44l-1.59,0a36.8,36.8,0,0,1-8.7-1.25c-.68-.2-1.33-.41-1.94-.64-8-3-9.84-8.94-9.94-13.49-.12-5.44,1.81-16.2,13.78-19.56a19.9,19.9,0,0,1,2-.48,30.31,30.31,0,0,1,4.61-.52q1,0,1.95,0c.74,0,1.44,0,2.12.1a21.68,21.68,0,0,1,5.33,1.1,15.09,15.09,0,0,1,2,.86c7.1,3.67,7.75,11.28,8,15S699.42,493.73,688.66,497.08Z" fill="#fad44b"/><path d="M659.66,477.73a4.61,4.61,0,0,1-3,2.25c-1.13.28-2.29.24-3.44.42a2,2,0,0,0-1.75,1.18,2.92,2.92,0,0,0,.34,2.53,3.15,3.15,0,0,0,1.71,1.19,15.65,15.65,0,0,0,6.64.05C659.83,482.77,659.87,480.34,659.66,477.73Z" fill="#fad44b"/><path d="M661.84,490.63a6.42,6.42,0,0,0-2.81-2,32.17,32.17,0,0,0-3.34-1c-.15,0-.32-.14-.29-.28s.13-.13.21-.18a9,9,0,0,1,3.69-1.65C661.32,485.92,662,488.41,661.84,490.63Z" fill="#fad44b"/><path d="M666.15,478.06a3.76,3.76,0,1,0,7.52.11c.06-1.42-2.14-1.42-2.2,0a1.56,1.56,0,1,1-3.12-.11,1.1,1.1,0,0,0-2.2,0Z" fill="#2a2d5a"/><path d="M692.78,492.16a36.35,36.35,0,0,0-3.86,4.44,4.3,4.3,0,0,0-.26.48,20.65,20.65,0,0,1-2.49.6l.12-.39c1.63-4.56,6.62-6.51,7.33-11.59,1.08-7.77-5.39-14.93-4.89-22.44a15.09,15.09,0,0,1,2,.86c-.16,6.15,4.44,12.57,5,18.55A12.37,12.37,0,0,1,692.78,492.16Z" fill="#fff"/><path d="M685.47,485.58a8.83,8.83,0,0,1,1,4.22,7.38,7.38,0,0,1-2,4.07c-.94,1.12-2.61,2.56-2.9,4.2h-.44l-1.59,0c.33-2.57,2.85-4.42,4.24-6.71s.06-4.17-.74-6.32a6.58,6.58,0,0,1-.08-5c.84-2.09,2.64-3.66,2.77-6.07.14-2.64-1.22-5.15-2.39-7.37a29.75,29.75,0,0,1-2-4.51c.74,0,1.44,0,2.12.1,1,2.53,2.68,5,3.51,7.27,1.35,3.74.77,6.6-1.23,9.84C684.24,481.59,684.43,483.1,685.47,485.58Z" fill="#fff"/><path d="M681.11,478.59c-.46,3.7-2.9,6.58-5.23,9.14-2.17,2.39-5,5.54-5.08,9-.68-.2-1.33-.41-1.94-.64a12.67,12.67,0,0,1,2.36-6.14c2.53-3.62,6.71-6.38,7.75-11,1.19-5.33-3.47-9.6-5.5-13.91a16.17,16.17,0,0,1-.77-2,19.9,19.9,0,0,1,2-.48,28.18,28.18,0,0,0,2.93,5.49C679.63,471.2,681.59,474.67,681.11,478.59Z" fill="#fff"/><path d="M288,501.65a19.12,19.12,0,0,0-.76-6.9c-.8-2.14-2.66-3.94-4.66-3.69s-3.7,2.63-5.82,2.82c-1.9.17-3.63-1.48-5.54-1.48s-3.75,1.86-4.51,4a20.32,20.32,0,0,0-.76,6.89C273.22,502.38,280.76,502.06,288,501.65Z" fill="#0a4883"/><path d="M264.07,504.17a9.54,9.54,0,0,0-3.2-3.74,4.22,4.22,0,0,0-4.68,0,4.92,4.92,0,0,0-1.58,3.5c-.11,1.31,0,2.63-.08,3.94A33.51,33.51,0,0,0,264.07,504.17Z" fill="#0a4883"/><path d="M267.42,529.57c.06,2.29.15,5.68,1.87,7.46s5.36,2.11,7.6,2c4.91-.36,10.43-4,12.06-8.78l1.71-.73A171.66,171.66,0,0,0,267.42,529.57Z" fill="#0a4883"/><path d="M235.5,506.37a8.59,8.59,0,0,0-5.24.08c-1.64.7-2.86,2.62-2.22,4.28.55,1.45,2.25,2.19,2.86,3.62.84,1.94-.66,4-1.8,5.81a9.26,9.26,0,0,0-1.73,5.13,4.53,4.53,0,0,0,2.9,4.26,6.38,6.38,0,0,0,3.77-.37,34.36,34.36,0,0,0,13.41-8.25c1.41-1.39,4.74-4.09,3.46-6-1.39-2.09-4.46-3.85-6.58-5.08A31.23,31.23,0,0,0,235.5,506.37Z" fill="#0a4883"/><path d="M307.43,516.67l3.54-.07a39.06,39.06,0,0,1-31.32,15.76c-14.57,0-26.51-7-33.06-11.9a5.8,5.8,0,0,1-.1-9.24c6.7-5.2,19-12.91,33.16-12.91,20.23,0,28.46,9.55,32.12,15.38Z" fill="#1cbcd6"/><path d="M294.24,516.56a2.87,2.87,0,0,1,5.46-.58c.75,1.48,3,.18,2.23-1.3a5.46,5.46,0,0,0-10.18,1.19c-.4,1.61,2.09,2.3,2.49.69Z" fill="#0a4883"/><path d="M284.67,516.86a3.63,3.63,0,0,0,0,5.61c.63.52,1.29.49,1.95.83l-.59-.77c0,.14-.32.79-.36,1a3.27,3.27,0,0,0,0,1.08,3.19,3.19,0,0,0,1.12,2,3.22,3.22,0,0,0,4.23-.31c1.24-1.12-.59-2.94-1.82-1.82a.57.57,0,0,1-1-.44c0-.21.26-.52.33-.74a1.93,1.93,0,0,0-.22-1.86c-.4-.51-.92-.49-1.46-.69a1.1,1.1,0,0,1-.34-2c1.24-1.11-.59-2.93-1.83-1.83Z" fill="#0a4883"/><path d="M249.6,513.08a3.53,3.53,0,0,0-1.24,2.61,1.76,1.76,0,0,0,1.76,1.66.65.65,0,0,0,0-1.29c-.54,0-.54-.62-.39-1a3.59,3.59,0,0,1,.78-1.08c.56-.61-.35-1.53-.91-.91Z" fill="#3ad0e5"/><path d="M255.31,510.18a2.33,2.33,0,0,0-1.53,2.23,2.29,2.29,0,0,0,1.77,2c.8.19,1.15-1.05.34-1.24a.93.93,0,0,1-.23-1.78c.75-.31.42-1.56-.35-1.25Z" fill="#3ad0e5"/><path d="M256.21,518.33a2.37,2.37,0,0,0,.59,4.69.65.65,0,0,0,0-1.29,1.09,1.09,0,0,1-.24-2.16c.8-.19.46-1.43-.35-1.24Z" fill="#3ad0e5"/><path d="M262.25,513.63A2.73,2.73,0,0,0,263,519c.82-.08.83-1.37,0-1.29a1.45,1.45,0,1,1-.41-2.87c.82-.15.47-1.39-.34-1.24Z" fill="#3ad0e5"/><path d="M263.61,505.93a3.35,3.35,0,0,0-2.14,2.48,1.76,1.76,0,0,0,1.86,2c.82-.08.83-1.37,0-1.29s-.65-.72-.35-1.14a3.26,3.26,0,0,1,1.28-.91c.74-.38.09-1.49-.65-1.12Z" fill="#3ad0e5"/><path d="M266.13,522.06c-1.05.62-2.21,1.51-2,2.88s1.68,1.8,2.91,1.89c.83.06.82-1.23,0-1.29-.62,0-1.76-.11-1.63-1,.09-.67.89-1.06,1.4-1.36a.65.65,0,0,0-.65-1.12Z" fill="#3ad0e5"/><path d="M269.27,511.46a2.05,2.05,0,0,0-.43,4.06c.81.2,1.15-1,.35-1.24a.77.77,0,0,1,.08-1.53c.83,0,.84-1.33,0-1.29Z" fill="#3ad0e5"/><path d="M271,518.62a1.92,1.92,0,1,0,1,3.7.65.65,0,0,0-.34-1.25.62.62,0,1,1-.29-1.2c.82-.18.47-1.42-.34-1.25Z" fill="#3ad0e5"/><path d="M273.64,502.38a2.63,2.63,0,1,0-.68,5.16c.83,0,.83-1.26,0-1.29a1.34,1.34,0,1,1,.34-2.63c.81.19,1.15-1.06.34-1.24Z" fill="#3ad0e5"/><path d="M275.25,524.38c-1.15.8-2.42,1.88-2.11,3.44s2.06,2.36,3.6,2.24c.82-.06.83-1.35,0-1.29s-2.29-.17-2.35-1.34c0-.89.86-1.49,1.51-1.93s0-1.59-.65-1.12Z" fill="#3ad0e5"/><path d="M275.89,513.72a2.77,2.77,0,1,0,.16,5.53.65.65,0,0,0,0-1.29,1.48,1.48,0,0,1-.16-3c.82,0,.83-1.35,0-1.29Z" fill="#3ad0e5"/><path d="M279.4,505.57a2.73,2.73,0,0,0-.83,5.34c.78.3,1.12-1,.35-1.24a1.45,1.45,0,0,1,.48-2.81c.83,0,.83-1.33,0-1.29Z" fill="#3ad0e5"/><path d="M285.16,501.51a2.8,2.8,0,0,0-.51,5.18c.74.38,1.39-.73.65-1.11a1.51,1.51,0,0,1,.2-2.83c.79-.25.45-1.5-.34-1.24Z" fill="#3ad0e5"/><path d="M419.46,556.43c-1.19-.18-2.63,0-3.27,1a2.39,2.39,0,0,0,.47,2.83,5,5,0,0,0,2.76,1.28,12,12,0,0,0,4.59-.08c.62-.14,1.33-.42,1.5-1C426.1,558.19,420.86,556.65,419.46,556.43Z" fill="#ed2027"/><path d="M419.73,560.34a5.19,5.19,0,0,0-3.1,2.7,2.92,2.92,0,0,0,1.19,3.68,3.4,3.4,0,0,0,2.49-.05,7.65,7.65,0,0,0,4.65-4.74C426,558.84,421.44,559.7,419.73,560.34Z" fill="#ed2027"/><path d="M436.24,541.89a14.7,14.7,0,0,1,9.93-1.62c1.76.27,3.68.92,4.46,2.51a4.54,4.54,0,0,1-.62,4.4c-1.95,2.92-5.64,4.08-9.1,4.68a15.67,15.67,0,0,1-4.92.24c-2.39-.35-4.54-1.42-4.06-4.06A9.44,9.44,0,0,1,436.24,541.89Z" fill="#ed2027"/><path d="M456.09,559.34a24.46,24.46,0,0,0,5.36,6.42c2.23,1.68,5.3,2.54,7.89,1.47a3.4,3.4,0,0,0,2.27-2.69,3.57,3.57,0,0,0-2-3c-1.1-.65-2.36-1-3.39-1.78a7.06,7.06,0,0,0,8-7.49,4,4,0,0,0-.88-2.4,4.26,4.26,0,0,0-2.31-1.19,11.29,11.29,0,0,0-9.13,2.31C459.29,552.94,457.41,556.38,456.09,559.34Z" fill="#ed2027"/><path d="M434.3,570.33a11.33,11.33,0,0,0,5.57,7.59c1.06.58,2.4,1,3.42.34a2.71,2.71,0,0,0,1.15-2.11,7.92,7.92,0,0,0-.31-2.46,8.12,8.12,0,0,0,3.38,1.63,4,4,0,0,0,3.62-1A4,4,0,0,0,452,571a10.24,10.24,0,0,0-1.39-3.37A107.35,107.35,0,0,0,434.3,570.33Z" fill="#ed2027"/><path d="M457.76,566.86c-.7.54-1.42,1-2.16,1.51a35.2,35.2,0,0,1-3.8,2.08c-.66.31-1.31.58-1.91.81-.2.08-.41.16-.61.22a24.28,24.28,0,0,1-5.79,1.29,26.15,26.15,0,0,1-4.15.09,28.54,28.54,0,0,1-9.29-2.09c-3.41-1.41-6.68-3.08-8.22-6.62-3.73-8.58,3.89-14.92,11.34-17a31.69,31.69,0,0,1,5.29-1c1-.11,2-.17,3-.18a33.82,33.82,0,0,1,4.5.21,32.49,32.49,0,0,1,4.21.74,26.72,26.72,0,0,1,7.33,2.9l.12.07a12.73,12.73,0,0,1,2.79,2.23,10.45,10.45,0,0,1,1.61,2.17C464.83,559.24,461.88,563.65,457.76,566.86Z" fill="#ee5631"/><path d="M426.93,556.27a4.85,4.85,0,0,0,5,4.32c2.66-.26,4-2.8,4.37-5.17.25-1.63-2.24-2.33-2.49-.69-.17,1.17-.49,2.76-1.77,3.21-1.56.54-2.45-1.08-2.66-2.35-.27-1.64-2.76-1-2.49.68Z" fill="#ffe6c8"/><path d="M444.2,564.77c-.39.31-.76.63-1.13,1-.82.82-.88,1.54-.19,2.18a12.67,12.67,0,0,1,1,2.22,4.27,4.27,0,0,1-.37,2.64,26.15,26.15,0,0,1-4.15.09c4-.43.88-3.55.49-5.19a3.43,3.43,0,0,1,.32-2.35c.63-1.25,2.14-1.75,2.78-2.88.74-1.3-.25-2.14-1.14-2.78a7.33,7.33,0,0,1-1.11-.81c-1.4-1.51-.76-3.39.54-4.71.94-1,2.28-1.18,1.34-3.35a6.84,6.84,0,0,0-1.69-1.79,11.18,11.18,0,0,1-2.41-2.86c1-.11,2-.17,3-.18,1.95,2.29,5.25,4.34,3.67,7.73-.87,1.86-3.35,2.17-1.15,4.33,1,1,1.89,1.68,2,3.15S445.27,563.78,444.2,564.77Z" fill="#ffe6c8"/><path d="M459.23,563.87c-.39.3-.77.62-1.13,1-.76.76-.87,1.44-.34,2-.7.54-1.42,1-2.16,1.51a7,7,0,0,1-.74-1.61,3.35,3.35,0,0,1,.32-2.34c.63-1.25,2.14-1.75,2.78-2.88.73-1.3-.25-2.14-1.14-2.78a6.86,6.86,0,0,1-1.11-.81c-1.4-1.51-.76-3.39.53-4.71.95-1,2.28-1.18,1.35-3.35a.35.35,0,0,0,0-.08l.12.07a12.73,12.73,0,0,1,2.79,2.23,5.71,5.71,0,0,1-.25.68c-.87,1.85-3.36,2.17-1.15,4.33,1,1,1.89,1.68,2,3.14S460.3,562.88,459.23,563.87Z" fill="#ffe6c8"/><path d="M452.82,563c-.58,1.92-3.07,3.26-2.18,5.5.28.72.84,1.24,1.16,1.91-.66.31-1.31.58-1.91.81-.2.08-.41.16-.61.22-.18-.72-1.44-2.62-1.54-3.05A4.05,4.05,0,0,1,448,566c.58-1.4,2.25-2.52,2.09-4.07s-1.36-1.74-2.12-2.87c-1.11-1.65-.62-3.17.45-4.65.8-1.1,2.32-2.25,1.62-4a5.43,5.43,0,0,0-1.56-1.64,13.33,13.33,0,0,1-2.49-2.6,32.49,32.49,0,0,1,4.21.74c1.53,1.37,3,2.71,2.58,5.18a8.23,8.23,0,0,1-2,3.52c-1.69,2.14.6,2.64,1.61,4.21A3.81,3.81,0,0,1,452.82,563Z" fill="#ffe6c8"/></g></g></svg>