<svg id="a8130473-e65f-4ffc-94cd-5b806870ee9e" data-name="e7f52d1a-6632-43bc-a35a-4fee2cd1763f" xmlns="http://www.w3.org/2000/svg" xmlns:xlink="http://www.w3.org/1999/xlink" width="865.76" height="682.89" viewBox="0 0 865.76 682.89"><defs><clipPath id="f940d4a9-d115-4c77-8ef8-06117fa3e413"><path d="M738.22,121.6C680.41,69.51,590.07,41.78,504.61,35Q467,32,429.23,32.43c-248.14,2.1-320.82,86.95-304.91,127.81s60.64,66-3.91,122.56S-16.92,424.18,20.05,509,210.12,659.89,431.88,649.41s365.61-11.52,411.82-90-54.77-132.46-69-199.8c-8.78-41.75,13.79-83.84,15.44-125.46C791.92,189.07,771.46,151.55,738.22,121.6Z" fill="none"/></clipPath></defs><g clip-path="url(#f940d4a9-d115-4c77-8ef8-06117fa3e413)"><rect x="-41.43" y="-12.18" width="1104.13" height="706.64" fill="#9ef6f7"/><path d="M707.51-12.18H1062.7V99.22C984.93,81.87,884.57,77.65,850.59,206S694.91,426.86,530,369.26c-142.16-49.65-285.78,69.35-383,99.35s-155.89,1.86-188.38-5.18V361.19c68.25-2,133.45-37.93,172.37-105.5,47.72-82.84,155.54-93.81,286.83-101.55S558,115.5,623.14,43.73C648,16.3,678.88-1.12,707.51-12.18Zm-748.94,0V231.43C40.27,23.85,442.44,158,522.66-12.18H354c-32.64,19.85-70.22,35.46-110.65,39C150.81,35,60.49,5.67,15.53-12.18ZM1062.7,161.17C1036,150.81,990,140.1,950,166.29,860.16,225.07,918,372,701,400.36c209-1.3,181.14-165.74,263.33-212.54,29.33-16.7,71.88-3,98.39,15V161.17ZM607.13-12.18c-39.25,51.61-63.07,126.42-202.61,136,167,11.26,162.81-85.86,250-136Z" fill="#aefbfc" fill-rule="evenodd"/><path d="M566.06,361.53h124.6c-35.44-11.14-34,0-61.54-7.85-10.08-2.88-18.12-7-25.48-2.41C584.54,361.53,573.18,352.72,566.06,361.53Z" fill="#fff" fill-rule="evenodd"/><path d="M798.94,427.41H715.28c23.79-7.48,22.84,0,41.32-5.27,6.77-1.94,12.16-4.69,17.1-1.62C786.53,427.41,794.16,421.5,798.94,427.41Z" fill="#fff" fill-rule="evenodd"/><path d="M555.08,100H679.67c-35.44-11.14-34,0-61.53-7.86-10.09-2.87-18.12-7-25.48-2.4C573.55,100,562.19,91.2,555.08,100Z" fill="#fff" fill-rule="evenodd"/><path d="M1062.7,498.8V600c-16-1.29-31.75,3.23-118.81,0s-95.77-2.65-207-7.09-219.26-71.58-153.28-72.29S674.33,502,689.16,500.73s23.22-9.67,29.67-11.61,49.66-7.74,78.68-21.28,52.23-40,56.75-42.56S864.57,429.15,871,424s20-23.86,23.86-10.32,38,60.62,62.56,67.71,41.27,3.23,54.81,11S1062.7,498.8,1062.7,498.8Z" fill="#76e6e8" fill-rule="evenodd"/><path d="M1062.7,498.8v33.68c-16-1.36-40.55-5-50.05-14.66-14.59-14.83-43.76-18.38-45.89-20.64s-24-3.54-45.29-29.34-28.31-56.68-28.31-56.68l-1-1.81c1.13.66,2.06,2,2.71,4.32,3.87,13.54,38,60.62,62.56,67.71s41.27,3.23,54.81,11,50.45,6.45,50.45,6.45ZM806.86,514.91s-5.16,5.16-17.42,7.42-11.28,5.48-15.15,8.71-28.37,14.51-28.37,14.51H762.2s9.83-6.45,14.67-11.45,5.8-8.06,12.9-9,14.67-5.64,17.09-10.16Zm72.22-48.68c-1.93,17.41,9.68,35.79,13.22,39.66s3.87,18.38,7.7,25.11,10.32,23.54,10.32,23.54,20.64,1,18.7-2.58-23.86-21.61-24.83-29-3.87-13.22-12.89-24.19-12.22-32.54-12.22-32.54Z" fill="#5bdcde" fill-rule="evenodd"/><path d="M828.78,476.22s-23.86,19.35-52.23,24.51S746.24,504,732.7,515.56s-75.61,25.07-75.61,25.07l39.17-1.85s31.92-8.06,40-17.42,16.12-14.18,37.08-15.47S819.43,486.86,828.78,476.22Z" fill="#5bdcde" fill-rule="evenodd"/><path d="M984.87-12.18h77.83V36.54c-33.91-8.18-98.05-16.76-156.9,13.81-85,44.17-108.21,130.29-119.25,162.31s-32,112.62-145.75,127c29.13-10,96.06-17.66,125.88-130.28S842.86,46.64,895.86,17.23C916.6,5.72,949.51-4.94,984.87-12.18Z" fill="#9ef6f7" fill-rule="evenodd"/><path d="M1177.55,587.8c-141.93-.26-299.92-19.55-439.24-55.81,238.49,40.32,386.06,33.89,439.24,29.15Z" fill="#47b8cf" fill-rule="evenodd"/><path d="M73.42,582.24V523.53c98.55-7.73,100.76-87.67,100.76-87.67C204.75,529.63,133.93,570.63,73.42,582.24Z" fill="#2fa3ba" fill-rule="evenodd"/><path d="M502.14,708.17H73.42V582.24c60.51-11.61,126.71-56.07,102.41-140.42-12-41.58-27.54-136.17-8.13-201.88C147,554.68,356.14,648.8,502.14,708.17Z" fill="#47b8cf" fill-rule="evenodd"/><path d="M371,708.17H114.15c105.45-41.56,108-147.74,82.81-201.9C245.08,590.19,312,658.48,371,708.17Z" fill="#2fa3ba" fill-rule="evenodd"/><path d="M1177.55,708.17H429.38C279,619.64,110.94,449.52,178.72,184.51c27.17-85.58,131.52-85.6,206.47-106l36.43,28.3C155.22,407.34,742.13,587,1177.55,587.8ZM727.63,521.89c-48.88-21.6-99.74-55.1-120.56-108.92-6.79-17.55-30.38-12.45-17,12.52S645,497.07,727.63,521.89Z" fill="#57ced9" fill-rule="evenodd"/><path d="M1177.55,703.76c-194.82-10.69-375.12-58.09-375.12-58.09,156.87,19.14,280.26,25.08,375.12,24.49v33.6Zm-486.38,4.41c-80.85-23.29-134.66-43.57-134.66-43.57,83,19,156.63,33.11,221.72,43.57Z" fill="#47b8cf" fill-rule="evenodd"/><path d="M328,131.17c-1.75-.33-4-.94-6.72-1.59,11.22-14.43,20.21-24.76-6.26-21.73-29,3.31-85-5.25-123.1,49l-3.26,8.77s22.21-18.16,38.58-24.65,21.84,9.5,12.83,18.66C134.3,275.45,196.1,544.1,427.89,682.68c-220.75-153.92-244.07-416-158.06-503.86,17.54-17.93,38.3-9.51,50.4,27.57s21.78,33.65,34.9,37c1.41-23.24,8.42-47.54,21.58-72.83-7.85-14.75-21.29-26.93-43.95-30.28Z" fill="#47b8cf" fill-rule="evenodd"/><path d="M178.72,184.51s24.29-65.14,85-60.73,63.49,75.08,71.77,89.44,30.92,20.42,39.2,3.86,41.85-21.18,66.75-4.52,81,25.57,84.51.11,31.47-29.26,70.12-6.08,67.9-13.25,53.55-41.4C578.56,25.8,225.91,11.67,178.72,184.51Z" fill="#fff" fill-rule="evenodd"/><path d="M525.57,75.27c-92.67-29.08-211.21-22.91-284.38,26C244,100,299.3,74.39,354.73,104c56.86,30.36,58,9.38,80.6.55s53-3.87,79.5,17.11S578,101.73,525.57,75.27Z" fill="#ebffff" fill-rule="evenodd"/><path d="M263.73,123.78c60.73,4.42,63.49,75.08,71.77,89.44s30.92,20.42,39.2,3.86,41.85-21.18,66.75-4.52,81,25.57,84.51.11,31.47-29.26,70.12-6.08,67.9-13.25,53.55-41.4c-9-17.58-22.42-33.16-39.16-46.63.92,1.36,38.61,57.81,2.07,63.27-37,5.52-53.55-27.05-99.37-8.83s-45.82-18.22-90-6.08-45.82,27.61-62.93,26S333.39,127.57,263.73,123.78Z" fill="#ebffff" fill-rule="evenodd"/><path d="M729.49,580.16S622.35,531.47,598,503.27s9.14-41.33,20.17-34,14.63,15.34,14.63,15.34,11.46-14.56,25.4-5.64,9.12,36.77,15.63,45.07,11.37-16.78,28.38-8.16S699.23,557.69,729.49,580.16Z" fill="#fff" fill-rule="evenodd"/><path d="M708.6,570.29c-32.45-15.7-93.06-46.69-110.64-67-21.91-25.34,2.93-38.51,16.2-35.63-.18.14-15.16,11.68,6.25,35,15.27,16.65,62.2,49.79,88.19,67.65Zm-75.84-85.72c6.56,25.81,34.29,44.85,34.29,44.85s-14.07-17.11-21-32.57,7.64-19.91,7.85-20c-11.95-4-21.17,7.69-21.17,7.69Zm38,31.4h0c1.25,28.24,32.69,40.5,32.69,40.5s-12.7-18.22-13.25-29.26,10.09-12.11,10.26-12.13C684.79,508.86,680,532,673.75,524c-1.41-1.85-2.3-4.67-3-8Z" fill="#d6fcff" fill-rule="evenodd"/><path d="M361.91,388.3s87.93,116,277.49,183.33,471.11,70.62,471.11,70.62S635.77,631.25,361.91,388.3Z" fill="#47b8cf" fill-rule="evenodd"/><path d="M311.66,234.34C298.39,422.24,358.76,490.75,445.82,570,361.22,477.93,318.29,405.48,311.66,234.34Z" fill="#47b8cf" fill-rule="evenodd"/><path d="M639.23,603.19l56.29,27s32.87,1.73,43.64,7.52-55.27,27.93-148.23,4.42S443,556.51,443,556.51Z" fill="#47b8cf" fill-rule="evenodd"/><path d="M265.3,279.54c-28,229.64,144.48,361.6,302.64,428.63h14.69C404.17,621.82,273.72,486.11,265.3,279.54Z" fill="#47b8cf" fill-rule="evenodd"/><path d="M301.23,539.38C347.17,608,433.82,668.05,523,708.17h7C419,654.6,355.33,599,317.79,535.3,302,508.52,286.21,516.94,301.23,539.38Z" fill="#9ef6f7" fill-rule="evenodd"/><path d="M678.62,631.71c-87.06,10.1-177.93-7.2-271.83-69C377.65,543.48,353,560,373.52,583.86c-26.87.67-19.59,31,7.15,35.4,28.8,4.69,56.83,3.35,77.87,12.91-19.29,0-24.17,21.51-2.76,22.64C501.09,657.21,571.53,663.37,678.62,631.71Z" fill="#fff" fill-rule="evenodd"/><path d="M380.07,554.39c-14,1.28-20.05,13.8-6.55,29.47C431.1,611.73,503,619.2,503,619.2s-90-23.55-114.32-35.33S380,554.46,380.07,554.39Zm-22.73,38.39c0,.06,5,15.94,37.27,20.62s50,2.49,72.32,11.32a425.6,425.6,0,0,0,46.93,14.91s-25.07-2.22-55.32-7.46c-21-9.56-49.07-8.22-77.87-12.91C363.09,616.4,353.93,602.26,357.34,592.78Zm86.15,46.31c-4.18,6.4-1,15,12.29,15.72,45.31,2.4,115.75,8.56,222.84-23.1C531.75,664.71,447.64,649.58,443.49,639.09Z" fill="#d6fcff" fill-rule="evenodd"/><path d="M385.11,491.79c-4.42-3.59-22.91-14.63-37.82-41.68s-29.53-27.88-37.54-22.91,1.66,20.42,1.66,20.42-9.66-5-13.53,2.21,21,19.05,21,19.05-14.63-3-16.56,3.86S312,490.41,385.11,491.79Z" fill="#fff" fill-rule="evenodd"/><path d="M309.75,427.2c-8,5,1.66,20.42,1.66,20.42,9.91,6,23.58,10.1,23.58,10.1S318.7,446,313,439.23s-3.29-12-3.29-12Zm-10.26,20.55c0,.1,1.07,8.21,13.83,13.7s34.37,12.42,34.37,12.42a205.45,205.45,0,0,1-28.83-5s-24.86-11.87-21-19A7.59,7.59,0,0,1,299.49,447.75Zm6.2,21.48a5.42,5.42,0,0,0-3.39,3.51c-1.93,6.9,9.66,17.67,82.81,19.05C303.89,486.38,305.69,469.25,305.69,469.23Z" fill="#d6fcff" fill-rule="evenodd"/><path d="M488.72,708.17s-39.2-10.4-66.8-29.17-21.26-35.06-35.34-44.17-35.8,10.2-46.37-6.62c-19.82-31.55-57.69-74.79-77.43-58.1s-2.07,43.47,39.89,70c46.88,29.6,109.3,57.21,148.53,68.09Z" fill="#d6fcff" fill-rule="evenodd"/><path d="M488.72,708.17s-39.2-10.4-66.8-29.17-21.26-35.06-35.34-44.17-35.8,10.2-46.37-6.62c-17-27.13-47.42-62.89-68.15-61.78.31,0,19.06,2.51,40.82,39.42C334.83,643.07,342.7,642,357.33,642s30.36-1.1,38.09,14.91,27.6,38.47,84.74,51.25Z" fill="#fff" fill-rule="evenodd"/><path d="M344.9,708.17s-51.34-.74-144.64-35.52-94.4-104.89-78.94-120.9,40.3-1.66,51.89,36.43c10.49-14.63,28.43-16,43.61,25.4,28.71-18.77,27.88,23.46,36.44,40.3,5-21.53,26.24-21.59,51.89,10.49,20.77,26,67.36,43.8,67.36,43.8Z" fill="#d6fcff" fill-rule="evenodd"/><path d="M129.23,546.42c15-5.57,34.21,9.67,44,41.76-7,11.05-7,17.67-7,17.67A296.51,296.51,0,0,0,153,566.38c-8.75-21.06-23.42-20-23.69-20ZM188,578.87c9.07-.09,19.48,9.17,28.84,34.71-7.59,7.73-9.79,14.35-9.79,14.35a78.1,78.1,0,0,0-3-24.56c-3.83-13.41-15.8-24.31-16-24.5Zm44.38,30.38c13.28,3.57,14.3,31.65,20.9,44.63a4.33,4.33,0,0,0,.19-.79c-.06.26-.13.52-.19.79A27.49,27.49,0,0,0,252,669.06a79.5,79.5,0,0,1-9.94-33.12c-1.35-18.92-9.39-26.39-9.72-26.69ZM266.61,639c9.65-1.36,23.32,6.36,38.54,25.39,20.77,26,67.36,43.8,67.36,43.8H353c-26.66-9.09-49.11-28.3-56.28-42.42C287.92,648.38,266.67,639,266.61,639Z" fill="#fff" fill-rule="evenodd"/><path d="M579.7,219s13,11.46,19.18,33.35,22.34,9.72,19-3.44c-4.57-17.83-25.47-34.31-31.12-38C580,206.4,573.5,212.81,579.7,219Z" fill="#fff" fill-rule="evenodd"/><path d="M658.65,209.32c3.13,3.89,4.79,7.67,9.46,14.42,7.76,11.21,20.23,1.52,14.64-7.93a60,60,0,0,0-14.27-15.65C662.33,195.44,653.13,202.43,658.65,209.32Z" fill="#fff" fill-rule="evenodd"/><path d="M303.84,207.58s3.81,16.93-4.08,38.26,12.37,21,17.38,8.36c6.77-17.1-.45-42.72-2.84-49C311.45,197.59,302.44,199,303.84,207.58Z" fill="#fff" fill-rule="evenodd"/><path d="M280.39,173.16s3.23,8.89.45,21,8.14,10.51,10,3.32c2.48-9.72-3.21-23.07-4.94-26.33C283.82,167.23,279,168.6,280.39,173.16Z" fill="#fff" fill-rule="evenodd"/><path d="M151.87,263.64c1.39-63.51,14.94-134.62,64.5-182,16.16-15.46-.19-39-21.48-12.92S141.39,161.62,151.87,263.64Z" fill="#57ced9" fill-rule="evenodd"/><path d="M651.59,669.68c72.16,22.18,156,29,231.38,26.86,0,0-85.31-4.89-104.75-11.06s-34.61-9.91-43.05-8.08-23.64,1-36.7-5.66C649.25,646.63,637.45,663.82,651.59,669.68Z" fill="#9ef6f7" fill-rule="evenodd"/><path d="M1108.43,708.17s-65.21,0-117.1-16.52S930.4,644,906.6,646.9s-18.09,24.75-18.09,24.75-36.18,8.57-67.6-4.76S770.45,626,754.27,639.28s18.67,38.83,18.67,38.83-16.77,18,12.75,30.06Z" fill="#d6fcff" fill-rule="evenodd"/><path d="M1108.43,708.17s-65.21,0-117.1-16.52S930.4,644,906.6,646.9A24.31,24.31,0,0,0,895,651c.22-.06,18.46-4.62,42.59,27.07,7.38,9.7,21.37,20.19,37.26,30.09ZM888.51,671.65c6.66,9.28,14,12.62,14,12.62S833,695.69,799.21,665.7s-45-26.42-45-26.42c16.18-13.33,35.23,14.28,66.64,27.61S888.51,671.65,888.51,671.65Z" fill="#fff" fill-rule="evenodd"/><path d="M853.05,592.29c97.66,26.53,210.31,31.91,311.2,25.78,0,0-114.52-2.79-140.83-10.2s-46.82-11.76-58-8.92-31.63,2.37-49.41-6C848.9,561.5,833.84,585.06,853.05,592.29Z" fill="#9ef6f7" fill-rule="evenodd"/><path d="M659.76,518.27s3.84,7-13.17,13.85a67.05,67.05,0,0,1-21,4.6c-22.2,1.32-83.83,1.48-153.23-28.89,0,0-40.84-20.42-63.53-36.3l11.8-10Z" fill="#686175" data-primary="true"/><path d="M659.76,518.27s3.84,7-13.17,13.85a67.05,67.05,0,0,1-21,4.6c-22.2,1.32-83.83,1.48-153.23-28.89,0,0-40.84-20.42-63.53-36.3l11.8-10Z" fill="#231f20" opacity="0.2" style="isolation:isolate"/><path d="M412.9,469.71l12.72,9.08c70.78,48.1,136.58,52.64,136.58,52.64,63.58,8.77,86.24-1.78,92.9-6.54a11.48,11.48,0,0,0,3.92-4.7c4.06-9.36-8.19-16.09-21-20.42a168.27,168.27,0,0,0-24.54-6l-.72-.11c-20.88-3.39-71.43-17.14-71.43-17.14-26.33-7.37-61.83-21.31-87-31.71-7.22-3-13.6-5.69-18.65-7.86-7.69-3.29-12.34-5.35-12.34-5.35Z" fill="#686175" data-primary="true"/><path d="M435.59,436.59a1.21,1.21,0,0,0,.1.36C448.08,486.59,496,504.2,496,504.2c87.77,29.62,129.26,5.9,142.07-4.43a168.27,168.27,0,0,0-24.54-6l-.72-.11c-29.27,18.65-86.41,4.65-86.41,4.65-57.69-12.31-70.57-48.8-72-53.5l-.14-.51Z" fill="#fff" opacity="0.2" style="isolation:isolate"/><path d="M513.64,383.39l-8.8,12.77a6.61,6.61,0,0,0-1.18,3.62c-.23,9.69-1.31,52-2.88,62.73a7.28,7.28,0,0,0,.63,4.19c1.27,2.69,2.64,7.59-1.73,11.2a10.14,10.14,0,0,1-3.81,1.91,27.87,27.87,0,0,0-11.74,7s-6.38,10-10.7,8.88c0,0-2.34-.72-.95-3.27a.58.58,0,0,0-.52-.86c-1,0-2.13-.33-1.72-2.25,0,0-2.28,1.6-2.73-2.05,0,0-3,.91-1.82-2.73,0,0-3.65,0-.69-3.64,0,0,10.26-10.44,16.5-14.13a4.56,4.56,0,0,0,2.24-4.18l-3.48-66.84s-2.4-13.23,8.36-27.22C488.62,368.53,491.7,378.31,513.64,383.39Z" fill="#f9ad9b"/><path d="M503.69,400.08s-5.8-13.79-11.34-10.86A2.82,2.82,0,0,0,491,391c-.61,2.08-2.28,7-5,9.36a8.76,8.76,0,0,0-2.74,5.13l-1.86,12.58-1.13-22.32s-2.78-12.42,8.36-27.22c0,0,4.66,10.69,25,14.85L505,395.89A6.79,6.79,0,0,0,503.69,400.08Z" fill="#f29981"/><path d="M550.39,390.68s-4.79,14.18-9.12,17.82c0,0,12.75,12.3,17.31,52.59,0,0,3.18,20.49,5.91,25.73a7.65,7.65,0,0,1-.22,8.42s-10.7,26.87-14.12,21.63c0,0-3.19,1.14-4.55-1.82,0,0-3.64.91-4.56-2.28,0,0-5.23.69-4.32-3.41a10.1,10.1,0,0,1-3.7.49,2.48,2.48,0,0,1-1.82-3.73c2.41-4.07,8.45-13.91,14.64-21a4.69,4.69,0,0,0,.72-5.05c-4.87-10.53-21.83-47.75-26.69-65.23,0,0-6.6-19.36.55-32C520.42,382.86,525.45,391.39,550.39,390.68Z" fill="#f9ad9b"/><path d="M541.24,408.48s4.64-14.27-10.39-11.14c0,0-9.82,0-4.18,16.07a4.31,4.31,0,0,1-.23,4.36A4,4,0,0,0,526,421c2.64,8.21,12.87,39.95,16.5,50.46,0,0-15.45-32.78-23.6-59.51,0,0-5-18.34,1.44-29.11,0,0,5.41,8.55,30,7.82C550.36,390.66,545.78,404.59,541.24,408.48Z" fill="#f29981"/><path d="M408.35,228.05s-10.49-.24-12,5.07L407,236.44l2.7-6.49Z" fill="#f29981"/><path d="M472,509.88s4,14.61,2.53,19.88a1.9,1.9,0,0,1-2.31,1.37,2.35,2.35,0,0,1-.37-.14,2.13,2.13,0,0,1-1-2.13l.28-19.17Z" fill="#f29981"/><path d="M470.38,527.69a3.08,3.08,0,0,1-3.7,1.74,2.17,2.17,0,0,1-1.45-2.69,1.88,1.88,0,0,1,.16-.39,5.48,5.48,0,0,1,.46-.72,7.43,7.43,0,0,0-.13-9.49,8.27,8.27,0,0,0-2.08-1.74l-8.29-5.08-2.23-6.87,11.51,3,4.82,6.5Z" fill="#f29981"/><path d="M198,458.56s-4.92,18.56-1.76,21.53c0,0,2,1.58,3-1.56L199,459.37Z" fill="#f29981"/><path d="M199.71,477.37a3.07,3.07,0,0,0,3.69,1.74,2.17,2.17,0,0,0,1.46-2.69,2.83,2.83,0,0,0-.17-.4,5.48,5.48,0,0,0-.46-.72,7.63,7.63,0,0,1-1.37-6.68,8.12,8.12,0,0,1,2.79-4.06l9.09-5.57,2.23-6.86-11.51,3-4.82,6.49Z" fill="#f29981"/><path d="M218.11,460.18c1.55-2.38,5.39-9.33,5.78-20.36L210.39,431s-3.32,16.73-9.26,22.66c0,0-4.21,1.74-3.46,10.89l-.22,12.27a1.66,1.66,0,0,0,1.63,1.7h.17a1.67,1.67,0,0,0,1.55-1.71c-.1-3.72.21-13,5.28-17.7l6-4.08a.55.55,0,0,1,.78.14.56.56,0,0,1,.1.36,38.49,38.49,0,0,1-.82,6.42s-2.49,5.76-.49,7.16a.58.58,0,0,0,.81-.13l.06-.11a5.24,5.24,0,0,1,1.57-2.28,6.41,6.41,0,0,0,1.72-1.39,7.7,7.7,0,0,0,1.46-3A6.18,6.18,0,0,1,218.11,460.18Z" fill="#f9ad9b"/><path d="M208.9,431.75l17.08,10s39.72-54.18,44.17-67.55l14.1-7.05S269.4,416.91,272,436.58c0,0,54.59-18.68,105.49-23.53l2.52-.23s-.37-20,20-47.87a92.11,92.11,0,0,0,9.88-20.24,52.74,52.74,0,0,0,3.07-18.5l-18.32-13.13-7.93-6.29-26.27-9.58-5.22,1.53c-10.33,3-33,9.82-40.79,13.24a15.43,15.43,0,0,0-2.14,1.1s-57.4,33.31-70,55.58Z" fill="#f48225" data-secondary="true"/><path d="M407.83,237.17l8.62,2.46.5.15L451.62,244l49,7c-2.25,6.56,2.51,15.28,5.36,19.65a19.93,19.93,0,0,1,2.9,6.86,121.14,121.14,0,0,1,1.9,29.45,65.91,65.91,0,0,1-5.39,23l-3.09,7.11L488.63,368.5c2.87,5.16,8.06,8.66,13,11h.07a54.65,54.65,0,0,0,7,2.64l.9.26c2.45.69,4.08,1,4.08,1v0l7.53-14,1.57.26v.14l-2.32,13.16a5.71,5.71,0,0,0,.39.47h0a13.29,13.29,0,0,0,1.9,1.85l.38.29a19.26,19.26,0,0,0,3.68,2.13l.25.12c.52.22,1,.43,1.58.63h0c9.44,3.41,21.71,2.28,21.71,2.28l9.12-13c10.71-15.86,14.59-29.17,15.77-38.58a49.56,49.56,0,0,0,.15-12.17,21.1,21.1,0,0,0-.54-2.94c1-29.28-5.28-60.08-5.46-61,3.69,4.7,24,16.4,24,16.4,6,2.34,13,10.68,13,10.68,5,6.52,24.24,23.2,24.24,23.2,2.87-5.22,11.73-7.56,11.73-7.56L617.08,277.3c-12.77-14.59-42-34.67-42-34.67-14.6-11.2-27-12.79-27-12.79l-9.83-.19-37.68,1.87L408.3,228Z" fill="#f48225" data-secondary="true"/><path d="M642.39,305.72s19.05,19.63,15.33,25.71c0,0-1.21,1.6-2.7-6l-.56.93s1.67,6.68,0,8.91c0,0-1.48,1.48-2-3.9a8.85,8.85,0,0,0-1.11-4.83l-.74.93s1.48,8.72-1.12,9.65c0,0-1.48.74-1.67-3.34,0,0-.92-6.49-2.41-6.31l-.93.37s1.86,6.31,0,8.17c0,0-2,1.11-3-2.6,0,0-5.19-15.77-7.42-11.51,0,0-.18,5.2-3.71,6.87h0a1.93,1.93,0,0,1-1.72-1.89c-.08-3.6,0-11.79,2-13.59C630.66,313.28,632,308.66,642.39,305.72Z" fill="#f9ad9b"/><path d="M391.39,293.11l-4.65,13.68S376.35,318,369,307.88l-8.48-10.67s3.75-11,3.28-14.22Z" fill="#f9ad9b"/><path d="M314.47,312c3.56,5.37,5,13.25,5,13.25l40.82-14.47-5.07-12C344.93,301.76,322.22,308.56,314.47,312Z" fill="#686175" data-primary="true"/><path d="M217.64,436.29c.32-.74,32.15-74.25,54.81-83.39l47.17-27.48-.22-.37-47.14,27.46c-22.8,9.19-54.69,82.87-55,83.61Z" fill="#686175" data-primary="true"/><path d="M296.13,534.93l16,21.15L360,545.69a238.19,238.19,0,0,0,36.5-9.59c14.71-5.24,24-10.63,29.11-14.1a13.21,13.21,0,0,0,4.8-16.05c-2.84-6.72-9.4-13.84-16.94-20.38-15.55-13.48-35.28-24.5-35.28-24.5l-5.57-2.59-61.24,20.41,57.53,32.66c-10.43,0-17,2.9-20.38,5.07a61.36,61.36,0,0,1-12.86,6.11C320.05,528.13,296.13,534.93,296.13,534.93Z" fill="#f48225" data-secondary="true"/><rect x="310.7" y="531.73" width="63.27" height="0.43" transform="matrix(0.94, -0.33, 0.33, 0.94, -155.76, 142)" fill="#686175" data-primary="true"/><rect x="366.8" y="467.56" width="0.43" height="24.58" transform="translate(-237.03 470.89) rotate(-51.74)" fill="#686175" data-primary="true"/><path d="M396.33,532.7l.13,3.4c14.71-5.24,24-10.63,29.11-14.1a13.21,13.21,0,0,0,4.8-16.05c-2.84-6.72-9.4-13.84-16.94-20.38h0l-1.12,5.19s21.16,14.11,8.17,27.84c0,0-3,3.34-20,12.25Z" opacity="0.2" style="isolation:isolate"/><path d="M443.59,491.22l16.85-7.28s-6.51-54.37-13-69.69c0,0-15.31-34.08-19.91-56.28,0,0-5.65-24.45-14.5-31.76,0,0,1.31,15.85-13,38.74,0,0,14.06,23.65,22.1,49.3C422.15,414.25,440.15,485.09,443.59,491.22Z" fill="#f48225" data-secondary="true"/><path d="M452,510.51c-1.55-2.38-5.39-9.33-5.79-20.36l14.25-6.21S463,498.06,469,504c0,0,4.2,1.73,3.46,10.89l.21,12.27a1.66,1.66,0,0,1-1.64,1.7h-.15a1.67,1.67,0,0,1-1.56-1.71c.1-3.72-.2-13-5.27-17.71l-6-4.07a.56.56,0,0,0-.78.16.53.53,0,0,0-.09.33,38.72,38.72,0,0,0,.81,6.43s2.49,5.76.49,7.15a.57.57,0,0,1-.79-.1.54.54,0,0,1-.07-.13,5.27,5.27,0,0,0-1.57-2.29,6.79,6.79,0,0,1-1.73-1.38,7.68,7.68,0,0,1-1.45-3A6.53,6.53,0,0,0,452,510.51Z" fill="#f9ad9b"/><path d="M452.11,486.85l.43-.08c-.14-.73-13.8-73-18.33-86.27L411.7,340.59l-.41.15,22.52,59.91C438.33,413.83,452,486.12,452.11,486.85Z" fill="#686175" data-primary="true"/><path d="M369.78,531.32s-6.63,10.46-7.57,40.06c0,0,66.23,8.93,85,5.17,0,0-.47-6.11-15-9.4,0,0-34.76-11.74-33.82-28.65Z" fill="#f9ad9b"/><path d="M296.13,534.93l-4.34,2.6a20.26,20.26,0,0,1-9.05,2.76c-3.3.22-7.36,1.22-7.91,4.78l43.69,16-6.43-5Z" fill="#f9ad9b"/><path d="M179.71,527.76C238.6,598,376.17,603,376.17,603c144,6.43,161.32-25.24,161.32-25.24,2.27-4.12,1.36-5.92-.48-6.62-2.56-1-6.94.19-6.94.19s-43.18,6.92-101.05,5.34c-8.81-.23-18-.66-27.36-1.36-9.83-.72-19.93-1.7-30.16-3q-7-.9-14-2h0c-3.66-.58-7.34-1.22-11-1.89,0,0-33.66-5.44-103.43-36.12a45.45,45.45,0,0,0-14.71-5,18.62,18.62,0,0,0-8.13.57s-1.89,3.16-7.59-1.89c0,0-8.86-1.91-14.56,1.89l-3.81,1.32a8.37,8.37,0,0,1-3.65.4Z" fill="#686175" data-primary="true"/><path d="M382.23,592.33c64.26,7.73,145.3-18.1,154.78-21.22-2.56-1-6.94.19-6.94.19s-43.18,6.92-101.05,5.34C411,588.85,382.23,592.33,382.23,592.33Z" fill="#fff" opacity="0.2" style="isolation:isolate"/><path d="M324.65,585.36c46.1,6.18,68.64-4.41,77-10.08-9.83-.72-19.93-1.7-30.16-3C356,582.71,324.65,585.36,324.65,585.36Z" fill="#fff" opacity="0.2" style="isolation:isolate"/><path d="M228.34,527.2c38,42.64,115.88,43.24,129.16,43-3.66-.58-7.34-1.22-11-1.89,0,0-33.66-5.44-103.43-36.12A45.3,45.3,0,0,0,228.34,527.2Z" fill="#fff" opacity="0.2" style="isolation:isolate"/><path d="M391.39,293.11,387.77,304s-14.24-2-19.55-14Z" fill="#f29981"/><ellipse cx="383.79" cy="269.3" rx="27.14" ry="20.9" transform="matrix(0.2, -0.98, 0.98, 0.2, 43.49, 591.82)" fill="#f9ad9b"/><path d="M400.15,283.87s3,2.94,7.53-5.25c0,0-.65-3.27,6.23-3.6,0,0,9.17-1.64,4.58-14.41a17.33,17.33,0,0,0-4.09-6.49,8,8,0,0,1-2.13-7.91,5.88,5.88,0,0,1,1-2s7.21-7.54,0-12.78c0,0-3.56-4.66-10.94.06a10.52,10.52,0,0,1-5.93,1.61,78.9,78.9,0,0,1-8.68-.69s-23.92-6.55-27.85,17.36c0,0-4.91,15.07-1.31,25.56l6.88-1s5.57-1.63,4.26-11.13c0,0-.33-13.76,8.85-11.8,0,0,2.94-1,11.13,5.24a14.44,14.44,0,0,0,9.36,3,5.17,5.17,0,0,1,5,3.35C405.46,266.76,406,273.51,400.15,283.87Z" fill="#7a383a"/><ellipse cx="363.29" cy="279.77" rx="5.08" ry="7.04" transform="translate(-91.21 219.13) rotate(-30)" fill="#f9ad9b"/><path d="M278.31,468.5c39.35,33.4,109.49-13.74,109.49-13.74-7.43,16.71-11.88,55.3-11.88,55.3,0,7.65-4,16.91-6.14,21.26a5.67,5.67,0,0,0,.26,5.5,19.8,19.8,0,0,0,9.21,7.75h0a18.38,18.38,0,0,0,9.17.23,15.32,15.32,0,0,0,11.16-10.7l23.09-78.6c11.89-47.14-21.52-43.06-21.52-43.06-28.63-2-69.65,7.16-97.74,14.76-.57.17-1.14.32-1.71.47-16.93,4.64-28.77,8.58-29.66,8.88H272C264.21,455.13,278.31,468.5,278.31,468.5Z" fill="#f48225" data-secondary="true"/><path d="M278.31,468.5c39.35,33.4,109.49-13.74,109.49-13.74-7.43,16.71-11.88,55.3-11.88,55.3,0,7.65-4,16.91-6.14,21.26a5.67,5.67,0,0,0,.26,5.5,19.8,19.8,0,0,0,9.21,7.75h0c13.37-43.8,18.93-93.52,18.93-93.52,3.71-26.36-5.19-20.79-5.19-20.79-11.87,8.83-47.22,22.4-59.55,27A28.14,28.14,0,0,1,320.53,459c-22.89-2.52-17.36-30.55-17.11-31.78h0l-1.72.51L272,436.61H272C264.21,455.13,278.31,468.5,278.31,468.5Z" opacity="0.2" style="isolation:isolate"/><path d="M381.33,539.81c1.05-4.17,25.7-102.1,15.34-109.92-1-.75-2.27-.69-3.78.19l-63.06,20.39c-.32.12-31.71,11-46.84,2a16.07,16.07,0,0,1-7.8-11.87l-.43.06a16.52,16.52,0,0,0,8,12.19c15.3,9.09,46.89-1.88,47.2-2l63.09-20.41c1.41-.81,2.49-.88,3.34-.24,10.14,7.65-15.23,108.45-15.49,109.47Z" fill="#686175" data-primary="true"/><polygon points="521.96 370.24 522.36 370.3 521.96 370.23 521.96 370.24" opacity="0.2" style="isolation:isolate"/><path d="M416.45,239.63l.5.15L451.62,244l49,7c-2.25,6.56,2.51,15.28,5.36,19.65a19.93,19.93,0,0,1,2.9,6.86,121.14,121.14,0,0,1,1.9,29.45,65.91,65.91,0,0,1-5.39,23l-3.09,7.11c2.19,5.25,10.08,12.25,10.08,12.25,7,5.74-9.62,28.3-10.78,29.89a1,1,0,0,0,0,.24v.12a47.6,47.6,0,0,0,7.06,2.56l.9.26c1.81.47,3.28.78,4.11.92l7.53-14,1.57.26v.14l-2.32,13.16a5.71,5.71,0,0,0,.39.47h0a9,9,0,0,0,1.9,1.85l.38.29a26.45,26.45,0,0,0,3.68,2.13l.25.12a15.29,15.29,0,0,0,1.58.63h0l.38.1,10.77-22.64c9.32-17.95,32.31-25.79,35.45-26.8a49.56,49.56,0,0,0,.15-12.17c-10.7.91-17.8.35-23-.93a19.38,19.38,0,0,1-14-13.73,31.3,31.3,0,0,1,8.21-30.75c9-11.26-19.83.45-19.83.45-7.94,1.81-12.71-8-14.28-11.91q-.61-1.53-1.35-3c-7.52-14.76,3.91-27.89,3.91-27.89,13.07,11.71,23.44-1.8,23.44-1.8a9.42,9.42,0,0,1-3.11-3.63l-17.76-2.84-5.75.27-3.6,9.08-40.2,1.94c-5.45-2.48,2.72-5.45,2.72-5.45L416,234.34A8.36,8.36,0,0,1,416.45,239.63Z" opacity="0.2" style="isolation:isolate"/><path d="M544.15,340.39s-20.47-1.67-28-5.22c0,0,10.23,11.06,9.18,24.22C525.35,359.39,534.75,344.77,544.15,340.39Z" opacity="0.2" style="isolation:isolate"/><path d="M335.91,419.2s-4.55-9.11-16.27-18.55c0,0-8-5.48-4.08-16.44a21.54,21.54,0,0,1,4.18-6.95c4.71-5.38,17.73-21.14,21.7-35.17,0,0-15.29,9.76-27.33,12,0,0,30-29.74,19-29.71A7.51,7.51,0,0,0,329,325.8l-60.43,41.34s-13.66,7.81-2.92,8.46c0,0,7.48-2.28-13.67,22.77l-29.28,42,3.52,1.61s38.5-52.15,44.17-67.54c0,0,20.78-9.65,37.86-21.9,0,0-24.87,28.58-21.16,79.42Z" opacity="0.2" style="isolation:isolate"/><path d="M370.84,413.64l6.65-.59,2.52-.23s-.37-20,20-47.87a91.89,91.89,0,0,0,9.88-20.24l-4-5.35s1,10-19.26,37.49C386.66,376.85,370.5,396.45,370.84,413.64Z" opacity="0.2" style="isolation:isolate"/><ellipse cx="516.32" cy="208.49" rx="15.08" ry="20.11" fill="#f9ad9b"/><path d="M531.52,207.5s-6.18-3.39-8.8-14.51c0,0-2.78-1.08-8.19,3.24,0,0-5.56,4.48-11.89,3.86A25.6,25.6,0,0,0,504,219.83s4.41,9.93,13.92,8.62l-.19,2.89-17.07.18s-1.86-13.55-.75-25.42c0,0-5.38-9.09-.55-18,0,0,7.61-17.63,33.59-8.17,0,0,16.36,6.65,16.09,27a22.63,22.63,0,0,1-.5,4.1c-.53,2.58-.86,8.13,5,11.06,0,0,8.35,3.34,7.61,12.25,0,0-9.46-4.46-13-4.46l-9.83-.18-5.57-12.81S534.58,209.65,531.52,207.5Z" fill="#7a383a"/><path d="M517.88,228.55a16.57,16.57,0,0,0,.14,6.87,4.44,4.44,0,0,0,4,3.06,16.7,16.7,0,0,0,13.26-4.95s-.13-2.44,3-3.86l-5.57-12.81a3.08,3.08,0,0,1-2.36-1.24s-8.34,2.35-8.84,2.6S517.88,228.55,517.88,228.55Z" fill="#f9ad9b"/><path d="M532.73,216.86l2.29,5.3s-5.32,9.18-17.14,6.39c0,0,9.47-1.42,12.44-12.68A2.33,2.33,0,0,0,532.73,216.86Z" fill="#f29981"/><ellipse cx="535.2" cy="208.78" rx="6.54" ry="4.49" transform="translate(87.5 568.77) rotate(-60.11)" fill="#f9ad9b"/><path d="M550.15,516.87a22.5,22.5,0,0,1,1.81-4.74,22.89,22.89,0,0,1,2.71-4.3,23.64,23.64,0,0,1-1.81,4.74A22.89,22.89,0,0,1,550.15,516.87Z" fill="#f29981"/><path d="M545.6,515.05a27.68,27.68,0,0,1,5.28-9.12A28.06,28.06,0,0,1,545.6,515.05Z" fill="#f29981"/><path d="M541,512.77a19.82,19.82,0,0,1,1.83-4.32,19.11,19.11,0,0,1,2.7-3.84A22.16,22.16,0,0,1,541,512.77Z" fill="#f29981"/><path d="M536.72,509.36a13.34,13.34,0,0,1,1.53-3.58,13.7,13.7,0,0,1,2.39-3.07,13.34,13.34,0,0,1-1.53,3.58A13.7,13.7,0,0,1,536.72,509.36Z" fill="#f29981"/><path d="M472.81,491.53a21,21,0,0,1,2.86-3.84,19.7,19.7,0,0,1,3.59-3.17,23.07,23.07,0,0,1-6.45,7Z" fill="#f29981"/><path d="M470.24,489.32a15.1,15.1,0,0,1,2.23-3.47,14.7,14.7,0,0,1,3-2.84A17.11,17.11,0,0,1,470.24,489.32Z" fill="#f29981"/><path d="M467.51,487.27a9.49,9.49,0,0,1,1.6-2.82,9.24,9.24,0,0,1,2.38-2.2,10.52,10.52,0,0,1-4,5Z" fill="#f29981"/><path d="M465.69,484.54A9.59,9.59,0,0,1,467,481.6a9.32,9.32,0,0,1,2.18-2.38,9.06,9.06,0,0,1-1.34,2.93A9.6,9.6,0,0,1,465.69,484.54Z" fill="#f29981"/><path d="M572.31,319.2c-2.67-4.48-9.79-17.47-11.25-31.06a33,33,0,0,1,.48-9.87c1.11-5.56,3.39-15.32,6.31-18.42,0,0,1.93,2.12,2.87,10.16s5,29.47,4.24,51.62h0A6.28,6.28,0,0,1,572.31,319.2Z" fill="#686175" data-primary="true"/><path d="M583,248.12s-38.31,1-47.7-14.59c0,0-.47-2,3-3.86l9.83.18S560.82,230.66,583,248.12Z" fill="#686175" data-primary="true"/><path d="M511.56,231.44l-3.39,8.6s-12.51-3.39-16.42-8.86Z" fill="#686175" data-primary="true"/><path d="M508.56,276.13a120.6,120.6,0,0,1,1.88,34.8s7.63-5.06,6-17.67a29.13,29.13,0,0,0-2-7.15A50.8,50.8,0,0,0,508.56,276.13Z" fill="#686175" data-primary="true"/><path d="M284.25,367.17,308,352.33s-25.61,31.54-21.15,79.42L272,436.58S269,418.39,284.25,367.17Z" fill="#686175" data-primary="true"/><path d="M413,326.21l-18.33-13.13-6.88,5.47,21.9,26A49.34,49.34,0,0,0,413,326.21Z" fill="#686175" data-primary="true"/><path d="M276.08,593.88S168.94,545.19,144.55,517s9.14-41.33,20.17-34,14.63,15.34,14.63,15.34,11.47-14.56,25.4-5.64,9.12,36.77,15.63,45.07,11.37-16.78,28.38-8.16S245.83,571.42,276.08,593.88Z" fill="#fff" fill-rule="evenodd"/><path d="M255.19,584c-32.45-15.7-93.05-46.69-110.64-67-21.91-25.33,2.94-38.5,16.2-35.63-.18.14-15.16,11.68,6.25,35C182.27,533,229.2,566.16,255.19,584Zm-75.84-85.72c6.56,25.81,34.3,44.85,34.3,44.85s-14.08-17.11-21-32.57,7.64-19.91,7.85-20c-12-4-21.17,7.69-21.17,7.69Zm38,31.4h0c1.25,28.23,32.7,40.49,32.7,40.49S237.35,552,236.8,540.91s10.08-12.11,10.25-12.12c-15.66-6.22-20.41,16.93-26.71,8.91-1.4-1.83-2.29-4.65-3-8Z" fill="#d6fcff" fill-rule="evenodd"/><path d="M149.42,349.93c-1.91-5.35-12-24.39-10.72-55.25s-10.79-39.15-20.21-39.05S109.31,274,109.31,274s-5.68-9.26-12.71-5.13S104.66,296,104.66,296s-10.93-10.19-16.16-5.3S87.6,310.82,149.42,349.93Z" fill="#fff" fill-rule="evenodd"/><path d="M118.49,255.63c-9.42.09-9.18,18.32-9.18,18.32,5.38,10.24,14.92,20.86,14.92,20.86s-7.84-18.47-9.17-27.19,3.43-12,3.43-12ZM99.05,267.88c0,.09-3.34,7.57,4.73,18.88s22.94,28.45,22.94,28.45A205.54,205.54,0,0,1,104.66,296s-15.08-23-8.06-27.17a7.78,7.78,0,0,1,2.45-.94Zm-5.83,21.58a5.41,5.41,0,0,0-4.72,1.24c-5.23,4.9-.9,20.12,60.92,59.23C82.78,303.19,93.21,289.48,93.22,289.46Z" fill="#d6fcff" fill-rule="evenodd"/></g></svg>