<svg id="fa5cb6f5-4694-4a78-a3a2-a9d2d54b24b2" data-name="Layer 1" xmlns="http://www.w3.org/2000/svg" width="865.76" height="682.89" viewBox="0 0 865.76 682.89"><rect x="250.05" y="83.23" width="382.04" height="554.66" rx="14.71" fill="#2f2e41"/><rect x="269.88" y="102.8" width="346.5" height="512.78" rx="7.36" fill="#fff"/><path d="M370.23,118.4s72.38,18.56,142.91,0c0,0,9.15-26.56-23.58-31.55,0,0-2.47-42.69-47.29-42.69,0,0-35.15-3.39-48.29,42.47C394,86.63,367.14,94.27,370.23,118.4Z" fill="#2f2e41"/><rect x="318.58" y="151.14" width="249.1" height="55.98" fill="#ccc"/><rect x="318.58" y="239.9" width="171.43" height="1.6" fill="#ccc"/><rect x="318.58" y="269.29" width="171.43" height="1.6" fill="#ccc"/><rect x="318.58" y="300.08" width="171.43" height="1.6" fill="#ccc"/><path d="M534.82,299.55c-1.14-1.06-2.24-2.11-3.38-3.13q-4.8-4.26-9.63-8.5c-2.62-2.31-5.28-4.57-7.72-7.07a27.45,27.45,0,0,1-4.84-6.45,20.88,20.88,0,0,1-2-6.31,29.39,29.39,0,0,1-.35-5.85,13.93,13.93,0,0,1,9.43-12.91c6-2,11.2-.6,15.69,3.73a17.22,17.22,0,0,1,2.65,3.35,2.83,2.83,0,0,0,.17.25l.2-.32a17.19,17.19,0,0,1,6.67-6.27,14.36,14.36,0,0,1,7.83-1.55,14.09,14.09,0,0,1,13.09,12.15,24.65,24.65,0,0,1,0,5.63,23.24,23.24,0,0,1-1.14,5.53,22.12,22.12,0,0,1-4.28,7.2,66.52,66.52,0,0,1-6.63,6.48c-3.44,3-6.91,6-10.34,9.07-1.77,1.56-3.48,3.19-5.21,4.79Z" fill="#ccc"/><rect x="317.53" y="334.46" width="249.1" height="167.93" fill="#ccc"/><rect x="394.05" y="334.46" width="1.6" height="166.53" fill="#c1c1c1"/><path d="M448.46,578.18a.8.8,0,0,1-.19-1.58,41,41,0,0,0,18.77-11c-4-9.26-5-16.59-3.13-21.77a11.32,11.32,0,0,1,6.1-6.58,4.76,4.76,0,0,1,4.4.24,4.61,4.61,0,0,1,2.29,3.69c.75,11-2.92,19-7.84,24.59.21.47.42.95.64,1.43a5.88,5.88,0,0,0,4.43,3.2c4.73.86,14-2,31.16-20.35a1.66,1.66,0,0,1,2-.36,1.64,1.64,0,0,1,.92,1.76c-.94,5.88-.42,9.8,1.41,10.74,1.26.65,4.61.53,12.93-7.6a1.76,1.76,0,0,1,2.62.19,7,7,0,0,0,4.52,2.94c1.81.21,3.76-.58,5.8-2.33a.8.8,0,0,1,.41-.18c.15,0,15.26-2.25,23.77-9.17a.82.82,0,0,1,1.13.12.8.8,0,0,1-.12,1.12c-8.37,6.81-22.29,9.16-24.33,9.48-2.33,1.94-4.63,2.8-6.84,2.55a8.58,8.58,0,0,1-5.63-3.57.09.09,0,0,0-.08-.05.15.15,0,0,0-.14.05c-7,6.82-11.82,9.4-14.78,7.87-3.22-1.66-3-7.67-2.25-12.41,0,0,0-.06,0-.08a.08.08,0,0,0-.11,0c-17.72,18.95-27.54,21.78-32.66,20.82a7.38,7.38,0,0,1-5.55-4.13l-.36-.78a43.9,43.9,0,0,1-19,11.14ZM472,538.38a3.12,3.12,0,0,0-1.3.29,9.74,9.74,0,0,0-5.27,5.67c-1.72,4.66-.77,11.34,2.8,19.88,4.4-5.32,7.59-12.74,6.89-23a3,3,0,0,0-1.5-2.42A3.15,3.15,0,0,0,472,538.38Z" fill="#ccc"/><path d="M111.3,62s-22.08,5.23-23,36.31L87.26,224.05s34.86,17.45,69-1.88l-3.88-143S149.85,54.55,111.3,62Z" fill="#2f2e41"/><path d="M142.37,180.71l40.32,71.86s10.68,16.34,22.14,7c0,0,1-4.38-10-29.46l-21.17-60.39s-15.9-32.74-35.48-12.11C138.15,157.62,133.83,167.13,142.37,180.71Z" fill="#f6b5a0"/><path d="M274.9,324.24c-5-1.56-22.26-23.39-19.58-27.72,4.66-7.54,23.78-2.57,29.51.24-3.81,2.09-9.53-.14-14,.22,5.14,6.64,12.36,11.6,16.73,18.09-2.4,2.22-9.53-4.68-12.37-6.49,2.43,4.59,8.29,5.5,10.6,9.64-2.07,1.7-11.06-3.12-12.57-7,.8,3.29,8.34,9.89,8.34,9.89-1.69,3.6-9.47-4.54-10.81-6.43C271.07,316.83,278.22,323.92,274.9,324.24Z" fill="#f6b5a0"/><path d="M182.39,249.64s4.62,18.85,28.93,30.1l44.75,22,4.38-7.91-60-49.91S188.73,236.76,182.39,249.64Z" fill="#f6b5a0"/><path d="M151.16,148.59a33.5,33.5,0,0,1,23.27,21.9l26.95,69.83s6.78,14-10.52,24.34c0,0-32.46-33.23-47.05-75.11,0,0-13.72-27.43,6.28-41" fill="#f48225" data-secondary="true"/><path d="M151.16,148.59a33.5,33.5,0,0,1,23.27,21.9l26.95,69.83s6.78,14-10.52,24.34c0,0-32.46-33.23-47.05-75.11,0,0-13.72-27.43,6.28-41" opacity="0.2"/><path d="M155.69,249.11c13.78-49.72-.77-98.86-.77-98.86-14.14-4.24-21.36-4.87-21.36-4.87L111.16,148S88.94,156,72,167.76l34.28,87.06Z" fill="#f6b5a0"/><path d="M109.92,631.24h-9.24l-5.16,15.34s0,5.52,11.62,5.52H117Z" fill="#f9b499"/><path d="M120.73,651.18,116.55,643l-5.09-6.79,1.23,7.31s.43,2.72-2.17,3.1H102c-6.37-.31-3-12.35-3-12.35L95.25,643l-3.2,9.66v4.3h28.68Z" fill="#f48225" data-secondary="true"/><rect x="108.44" y="111.84" width="25.39" height="37.65" transform="translate(-0.2 0.18) rotate(-0.09)" fill="#f6b5a0"/><path d="M115.37,132.37c-3.41-6.23-4.45-13-4.88-20.51l23.31,0,0,32.72C127.17,143.33,118.82,138.67,115.37,132.37Z" fill="#f1927c"/><path d="M135,360.69h52s1.84,75.63,11.79,278.76l-12,.52S149.94,444.22,135,360.69Z" fill="#f6b5a0"/><path d="M78.46,378c-6.41-41.89,13.59-102.78,24.17-115.24,42.35,5.78,64.86-.72,64.86-.72,12.26,21.79,22.77,55.25,20.93,100.06Z" fill="#2f2e41"/><path d="M135.24,396S139.66,464.2,117,631.77c0,0-12.15,4.45-21.44,0-10-100.86-8.17-156-8.17-156L77,362.05S150.18,325.21,135.24,396Z" fill="#2f2e41"/><path d="M204.87,632c.31,11.93-23.48,1.94-23.48,1.94-23.47-72-25.54-149.46-25.54-149.46L128.74,365c3.48-39,59.26-33.84,59.26-33.84S198.77,397.7,204.87,632Z" fill="#2f2e41"/><path d="M198.67,639.45l28.82,10.36s3,1.6,3.1,3.9l-45.47-2,1.68-12.31Z" fill="#f9b499"/><path d="M213.79,656.31c-5.33-.14-11-2.42-16.33-2.35-1.36,0-2.72.2-4.08.2,0,0-9,.15-8.48-2.4l1.61-10.92,22.9,7.82c6.83,1.84,9.7-2,9.7-2L230.59,651s2.61,1.46,3.06,3.81C233.65,654.76,229.55,658.3,213.79,656.31Z" fill="#f48225" data-secondary="true"/><path d="M97.12,103.08c0,4.67,2.58,10,6.79,11.86,5.71,2.6,7.87-2.64,7.85-7.75,0-4.12-1.87-11.2-6.55-12.64C100.8,93.19,97.16,99.26,97.12,103.08Z" fill="#f6b5a0"/><path d="M108.87,115.71c2.71,6.71,6.39,12.21,12.74,16.07s12.62,5.69,18.58.72c4.74-3.95,7.79-9.7,9.49-15.48,3.92-13.31.79-31.69-7.71-42.36-9.33-11.71-27.25-9-34.11,4.15C102.27,89.52,104.5,104.87,108.87,115.71Z" fill="#f6b5a0"/><path d="M111.43,104c-3.59-2-4.23-4-4.84-3.65h0a4.75,4.75,0,0,0-4.68-4.52c-2-.07-4,3-4.54,5-.14-2.15-.1-5.24-.14-7.54a53.3,53.3,0,0,1,.35-6.75c.61-5.2,1-8,3.48-12.94,2.65-5.26,6.81-9.34,12.72-10.85,7.12-1.81,18.77-3.3,24.85,1.06,3.11,2.24.53,2.81.09,12.61C138.72,76.45,110.74,69.79,111.43,104Z" fill="#2f2e41"/><path d="M150.07,92.78c3.76-8.79,5.09-23.66-11.16-29.51-4-1.43-13.72-2.34-17,1.21-7.14,7.87,8.94,11,13.24,11.4C142.06,76.57,146.72,78.44,150.07,92.78Z" fill="#18294f"/><path d="M111,90.24s5.08-2.81,16.39-3.21l3-6.53.42,6.53H138c.72,0,1.35-3.21,1.35-3.21L140.51,87s6.81.4,10.14.4c0,0,.46-20.31-23.24-18.05C127.41,69.38,111,70.18,111,90.24Z" fill="#2f2e41"/><path d="M150.26,148.7l4.66,1.55s14.64,22.36,24.46,45.53c5.6,16.42-1.45,39.88-9.35,61.49-5.05,13.8-56.69,16.5-66.85,10.19-3.43-2.12-26.42-40.11-27.79-43.44-2.9-7.08,15-14.89,17.35-29.57,1.43-9,5.39-24.89-7.58-35l6-2.87c1.15-.58,17.52,10.65,19.49,11.55C129.79,176.86,157.94,176.28,150.26,148.7Z" fill="#fff"/><path d="M117.91,430.15l1.1-161,7.67-74c-13.49-33.73-23.52-44-23.52-44C54,167.7,66,196.63,66,196.63L81,275.05,60.75,418.56S87,433.05,117.91,430.15Z" fill="#f48225" data-secondary="true"/><path d="M182.39,205.67,177.24,262l31.87,151.6c-12.17,6-38.82,8.86-38.82,8.86L151.36,267.77V190.93L138.43,146a70.91,70.91,0,0,1,16.49,4.24S181.68,182.49,182.39,205.67Z" fill="#f48225" data-secondary="true"/><path d="M189.18,262.46s7.61,14.19,36.73,28.21L252.43,306s10.86-4.89,10.86-15.32l-61.72-50.24S192,235.88,189.18,262.46Z" fill="#f48225" data-secondary="true"/><path d="M189.18,262.46s7.61,14.19,36.73,28.21L252.43,306s10.86-4.89,10.86-15.32l-61.72-50.24S192,235.88,189.18,262.46Z" opacity="0.2"/><path d="M168.83,240.43c-7.21,7.75-31.65,9.27-33.86,4.68-1.52-3.17,3.83-15.57,7.43-21,2.2,0,3.25,0,1.61,9.85,8.38-.53,15-8.14,22.8-8.11.49,3.22-7.6,8.18-10.68,9.51,2.77-.47,9.43-7.6,14.16-7.19.25,2.66-9,11.23-13.11,10.29,3.17,1.18,13.77-6.19,13.77-6.19,2,3.42-10,10.13-12.29,10.18C160.62,243.45,170.43,237.5,168.83,240.43Z" fill="#f6b5a0"/><path d="M61.92,187.77,51.07,270.15s-1.64,8.49,4.2,9.07c0,0,15.51,0,21-29.91l16.44-54.86s7-38.85-19.76-27.39C73,167.06,63.69,171.82,61.92,187.77Z" fill="#f6b5a0"/><path d="M55.27,279.22s18.2,6.74,41.14-7.08l43.3-24.72-1.92-7-70.5,18.64S49,264.69,55.27,279.22Z" fill="#f6b5a0"/><path d="M82.33,160.59s-17.67,3.8-21.58,22.23L47.28,277.3s22.6,7.39,33-25.21L96.83,187S101.3,164.26,82.33,160.59Z" fill="#f48225" data-secondary="true"/><path d="M47.28,277.3S67,296,93.56,277.3l44.87-22.48-3.79-14.39L67.71,254.82S50.32,258.61,47.28,277.3Z" fill="#f48225" data-secondary="true"/><g opacity="0.2"><path d="M82.33,160.59s-17.67,3.8-21.58,22.23L47.28,277.3s22.6,7.39,33-25.21L96.83,187S101.3,164.26,82.33,160.59Z"/><path d="M47.28,277.3S67,296,93.56,277.3l44.87-22.48-3.79-14.39L67.71,254.82S50.32,258.61,47.28,277.3Z"/></g><rect x="317.26" y="375.64" width="249.71" height="1.6" fill="#c1c1c1"/><rect x="317.26" y="420.43" width="249.71" height="1.6" fill="#c1c1c1"/><rect x="317.26" y="459.61" width="249.71" height="1.6" fill="#c1c1c1"/><polygon points="570.48 335.35 565.94 344.85 575.85 342.37 570.48 335.35" fill="#2f2e41"/><path d="M771.85,584.92l3.78,21.53s-15.14,10.07-31.94,9.58c0,0,5.43-15,6.38-28.74C750.07,587.29,763.6,589.91,771.85,584.92Z" fill="#f9b499"/><path d="M723.49,609.81s-28.63,4.19-24.2,10.32c0,0,1.47,7.53,23.91,7.81a148.11,148.11,0,0,0,38.38-1.14,149.72,149.72,0,0,0,17-3.78,5.31,5.31,0,0,0,3.89-4.7c0-.13,0-.25,0-.37,0-2.74-1.44-6.69-6.85-11.5,0,0-14.84,10.82-43,10.31C732.6,616.76,722.62,617.38,723.49,609.81Z" fill="#686175" data-primary="true"/><path d="M747.2,586.63s15.07,3.77,24.65-1.71c0,0,5.82-62.64.34-92.08,0,0-.6-11.44,2.15-17.1.45-.94.92-1.86,1.31-2.83,2.6-6.4,11.71-28.34,18.11-37.93,0,0,26.7-41.76,13.69-83.87l-22.93,12L741.38,486.67Z" fill="#2f2e41"/><path d="M757.62,588.17l-7.55-.88-5-87-.41-20.93,13-24.28L784,426.19s-14.57,32.6-25.36,48.24A19.92,19.92,0,0,0,755,485.5a18.27,18.27,0,0,0,.8,5.63,54.8,54.8,0,0,1,1.81,7.38C759.86,512.34,765.11,552.75,757.62,588.17Z" opacity="0.2"/><path d="M717.76,609.91l30.13,1.37s16.77-75,.34-112.62c0,0-6.5-15.07,2.74-26.36,0,0,54.66-58.43,50.09-112.29l-53.57,20.2-39.66-3.43s-18.43,91.86-11.19,116.66c.15.52.31,1,.43,1.56C699.16,503.55,717.44,579.25,717.76,609.91Z" fill="#2f2e41"/><path d="M621.58,327.7l-15.48-.31s-.22,6.08-4.72,1.13c0,0-3.15,4.5-4.73-1.13,0,0-2.48,5.4-4,.68,0,0-6.53-3.83-3.6-8.78,0,0,2.7-14.41,17.55-11.93l14,4.28Z" fill="#f9b499"/><path d="M638.51,234.89s6.34.51,8.9,2.22l12.16-15.4s-2.23.34-3.09,1.37c0,0-8.21,4.11-13.35,2.56Z" fill="#f7a78d"/><path d="M643,262.59s-4.66-15.59,4.42-25.48l12.16-15.4s33.09-17.93,65.67,9.49c0,0,16.69,14.31,26.22,27,0,0,26.63,30.6,38.55,43.71,0,0,39.73,39.34,25,49.67,0,0-36.56,19.87-67.55,28.61L720.87,396.1s-8,4-9.94-6.75c0,0-8.74-25-10.72-47.29Z" fill="#686175" data-primary="true"/><ellipse cx="620.91" cy="212.62" rx="20.29" ry="30.17" transform="translate(31.51 501.33) rotate(-45)" fill="#f9b499"/><path d="M594.86,201.85s-5.47-8.9,3.43-25.67c0,0,13-29.79,41.08-18.15,0,0,22.25,11.64,29.78,20.89,0,0,40.05,38.68,45.87,40.05,0,0,.69,6.5-12,11.3,0,0-15.06,8.55-19.85,5.13,0,0-18.15-18.14-26.71-12.32,0,0-12.32,6.16-14.37,1,0,0-5.45-6.65-5-14.85a15,15,0,0,0-.73-5.84c-.75-2.14-2.11-4.39-4.59-4.88a5.18,5.18,0,0,0-5.46,2.62c-1,1.88-1.73,5.14-.35,10.63,0,0-3.82.82-7.32-2.9a9,9,0,0,0-7.12-3c-.42,0-.86.09-1.32.18a11.74,11.74,0,0,1-6.74-.55,5,5,0,0,1-2.89-2.47,5.44,5.44,0,0,0-.94-1.7C598.28,199.77,595.38,197.13,594.86,201.85Z" fill="#2f2e41"/><path d="M682.32,238.35l30.2,46.89c16.3,23.44,10.73,39.74,10.73,39.74C717.69,368.69,643,388.55,643,388.55l-14.71-23.44,50.07-47.29s-46.49-45.69-35-74.3" fill="#686175" data-primary="true"/><path d="M704.18,365.72s16.1-8.88,24.34-26.51a46.82,46.82,0,0,0-1.1-41.29c-7-13.47-21-37-39.93-51.62l27.42,42.12s23.84,35.36-4,62.78a81.11,81.11,0,0,1-8.23,7.67Z" opacity="0.1"/><path d="M630.21,368.88s-20.05,3-23.39,9.35l-1.3,1.69a21,21,0,0,0-4.38,12.83v5.14a1.7,1.7,0,0,0,1.37,1.67h0a1.71,1.71,0,0,0,2-1.62l.26-7.68s1.35,3,3.75,1.93c0,0-1.37,3.25,1.54,3.59,0,0,.34,4.45,4.45,4.28,0,0,7.7-.17,8-5.82,0,0,11.64-5.82,13.53-8.21l4.79-1.14Z" fill="#f9b499"/><path d="M620.41,310.53l1.31,27,34.87.79,21.76-20.5s-11-11-15.59-18.06c-5.09,1.67-10.44,3.28-16,4.79C637.51,307.05,628.71,309,620.41,310.53Z" fill="#686175" data-primary="true"/><path d="M646.9,274.77s-3.6,30,24.82,35.94C671.72,310.71,653.92,290.52,646.9,274.77Z" fill="#2f2e41"/><path d="M618.13,297.38l-47.65,38,5.37,7,47.71-38.19a4.35,4.35,0,0,0,.36-6.48h0A4.35,4.35,0,0,0,618.13,297.38Z" fill="#2f2e41"/><path d="M620.89,321.31s-10.86,2.48-14.88,0a7.85,7.85,0,0,0-6.24-.85c-2,.55-4.2,1.18-5.46,1.66a1.86,1.86,0,0,1-2.19-.6c-.48-.67-.53-1.74,1.15-3.32,0,0,13.73-8.32,27.24-6.52" fill="#f7a78d"/><path d="M717.76,609.91s2.29,17.94-27.41,26.25c0,0-2.24,8,11.81,9.26,0,0,27.47,1.28,47-11.82,0,0-1.18-13-1.23-22.32Z" fill="#f9b499"/><path d="M690.35,636.16s-31,4.79-26.2,11.81c0,0,1.6,8.63,25.88,8.95l56.21-1.6s14.83-.77,2.88-21.72c0,0-16.45,12.4-47,11.82C702.16,645.42,689.4,644.82,690.35,636.16Z" fill="#686175" data-primary="true"/><path d="M389.92,157.86l4.38,12.36,4.35-12.36h4.61v17h-3.52v-4.66l.35-8-4.6,12.7h-2.41l-4.59-12.69.35,8v4.66h-3.51v-17Z" fill="#fff"/><path d="M418.38,167.52h-6.74v4.56h7.91v2.82H408.13v-17h11.39v2.85h-7.88v4.06h6.74Z" fill="#fff"/><path d="M423.41,174.9v-17h5.24a8,8,0,0,1,4,1,7.09,7.09,0,0,1,2.76,2.88,8.82,8.82,0,0,1,1,4.24v.79a8.91,8.91,0,0,1-1,4.22,7,7,0,0,1-2.75,2.87,8.07,8.07,0,0,1-4,1Zm3.51-14.19v11.37h1.69a3.8,3.8,0,0,0,3.15-1.35,6,6,0,0,0,1.11-3.85V166A6.25,6.25,0,0,0,431.8,162a3.81,3.81,0,0,0-3.15-1.33Z" fill="#fff"/><path d="M444.51,174.9H441v-17h3.51Z" fill="#fff"/><path d="M462.94,169.22a6,6,0,0,1-2,4.33,7.1,7.1,0,0,1-4.83,1.58,6.4,6.4,0,0,1-5.15-2.2,9.06,9.06,0,0,1-1.88-6.06v-1a10.17,10.17,0,0,1,.87-4.33,6.51,6.51,0,0,1,2.47-2.87,7.74,7.74,0,0,1,8.49.58,6.44,6.44,0,0,1,2.08,4.43h-3.51a3.54,3.54,0,0,0-.91-2.39,3.39,3.39,0,0,0-2.41-.74,3,3,0,0,0-2.63,1.25,7.12,7.12,0,0,0-.89,3.91V167a7.53,7.53,0,0,0,.84,4,2.91,2.91,0,0,0,2.63,1.28,3.43,3.43,0,0,0,2.43-.75,3.33,3.33,0,0,0,.92-2.3Z" fill="#fff"/><path d="M476.67,171.39h-6.16l-1.17,3.51h-3.73l6.34-17h3.25l6.38,17h-3.73Zm-5.21-2.85h4.26l-2.14-6.37Z" fill="#fff"/><path d="M488.48,172.08h7.46v2.82H485v-17h3.51Z" fill="#fff"/><path d="M375.2,198.11h-3.51v-17h3.51Z" fill="#fff"/><path d="M394.11,198.11H390.6l-6.83-11.21v11.21h-3.51v-17h3.51l6.84,11.24V181.07h3.5Z" fill="#fff"/><path d="M407.81,193.64a1.81,1.81,0,0,0-.7-1.53,9.26,9.26,0,0,0-2.53-1.12,16.75,16.75,0,0,1-2.89-1.17q-2.9-1.56-2.9-4.22a4.1,4.1,0,0,1,.78-2.46,5,5,0,0,1,2.23-1.69,8.32,8.32,0,0,1,3.27-.61,7.64,7.64,0,0,1,3.25.66,5.06,5.06,0,0,1,2.22,1.87,4.83,4.83,0,0,1,.79,2.73h-3.51a2.28,2.28,0,0,0-.74-1.82,3,3,0,0,0-2.07-.65,3.28,3.28,0,0,0-2,.55,1.72,1.72,0,0,0-.71,1.43,1.63,1.63,0,0,0,.84,1.39,9.1,9.1,0,0,0,2.46,1.06,10.57,10.57,0,0,1,4.36,2.23,4.43,4.43,0,0,1,1.37,3.33,4.12,4.12,0,0,1-1.67,3.47,7.4,7.4,0,0,1-4.51,1.25,8.71,8.71,0,0,1-3.58-.72,5.68,5.68,0,0,1-2.46-2,5,5,0,0,1-.85-2.9h3.52c0,1.88,1.13,2.82,3.37,2.82a3.29,3.29,0,0,0,2-.51A1.65,1.65,0,0,0,407.81,193.64Z" fill="#fff"/><path d="M428.4,181.07v11.22a5.75,5.75,0,0,1-1.75,4.43,7.88,7.88,0,0,1-9.52,0,5.66,5.66,0,0,1-1.79-4.34V181.07h3.51v11.25a3.23,3.23,0,0,0,.81,2.44,3.06,3.06,0,0,0,2.21.76c2,0,3-1,3-3.11V181.07Z" fill="#fff"/><path d="M439.39,191.87h-2.8v6.24h-3.51v-17h6.33a7.15,7.15,0,0,1,4.66,1.35,4.65,4.65,0,0,1,1.64,3.8,5.21,5.21,0,0,1-.76,2.91,5.12,5.12,0,0,1-2.29,1.85l3.69,7v.17h-3.77Zm-2.8-2.84h2.83a2.88,2.88,0,0,0,2.05-.67,2.4,2.4,0,0,0,.73-1.86,2.55,2.55,0,0,0-.69-1.89,2.83,2.83,0,0,0-2.1-.69h-2.82Z" fill="#fff"/><path d="M459.79,194.6h-6.15l-1.17,3.51h-3.73l6.34-17h3.25l6.38,17H461Zm-5.2-2.84h4.26l-2.15-6.38Z" fill="#fff"/><path d="M482,198.11h-3.51l-6.83-11.21v11.21H468.1v-17h3.51l6.85,11.24V181.07H482Z" fill="#fff"/><path d="M500.2,192.43a6,6,0,0,1-2,4.33,7.12,7.12,0,0,1-4.83,1.58,6.42,6.42,0,0,1-5.16-2.2,9.06,9.06,0,0,1-1.87-6.06v-1a10.17,10.17,0,0,1,.86-4.33,6.47,6.47,0,0,1,2.48-2.87,7.74,7.74,0,0,1,8.49.58,6.48,6.48,0,0,1,2.08,4.43h-3.51a3.56,3.56,0,0,0-.92-2.39,3.38,3.38,0,0,0-2.4-.74,3,3,0,0,0-2.63,1.25,7.11,7.11,0,0,0-.9,3.91v1.28a7.53,7.53,0,0,0,.84,4,2.94,2.94,0,0,0,2.64,1.28,3.47,3.47,0,0,0,2.43-.75,3.32,3.32,0,0,0,.91-2.3Z" fill="#fff"/><path d="M514.55,190.73h-6.74v4.56h7.91v2.82H504.3v-17h11.4v2.85h-7.89V188h6.74Z" fill="#fff"/></svg>