<svg id="b2b7bef6-0858-46cc-a7b4-89fc0685ec84" data-name="Layer 1" xmlns="http://www.w3.org/2000/svg" width="865.76" height="682.89" viewBox="0 0 865.76 682.89"><path d="M554.31,358.86C518,438.88,443.07,458,443.07,458c-60.13,20.62-113.54-1.42-113.54-1.42-122.7-41.55-124.11-159-124.11-159s14.83-62.35,70.34-37.31a91,91,0,0,1,31.7,24c18.61,21.86,69,74.32,111.55,57.4,0,0,25.55-9.67,38.42-61.66a78.59,78.59,0,0,1,14.29-29.79c15.14-19.3,45-40.13,94.21-6.88C565.93,243.38,582.35,299.61,554.31,358.86Z" fill="#e6e7e8"/><rect x="635.71" y="180.42" width="6.21" height="123.86" fill="#d1d3d4"/><path d="M387.65,467.25A183.5,183.5,0,1,1,517.4,413.51,182.29,182.29,0,0,1,387.65,467.25Zm0-365.51c-100.36,0-182,81.65-182,182s81.65,182,182,182,182-81.66,182-182S488,101.74,387.65,101.74Z" fill="#bcbec0"/><path d="M517.3,477.18a5.8,5.8,0,0,0-8.23-2.6,228.65,228.65,0,0,1-115.55,31.06c-124.88,0-226.12-99.17-226.12-221.49,0-114,88-207.92,201-220.15a5.75,5.75,0,0,0,5.15-5.72h0a5.76,5.76,0,0,0-6.35-5.74c-119,12.81-211.6,111.62-211.6,231.61,0,128.69,106.51,233,237.89,233a240.46,240.46,0,0,0,121.41-32.59,5.81,5.81,0,0,0,2.37-7.39Z" fill="#d1d3d4"/><path d="M416.17,461a136.4,136.4,0,0,1-57.46-12.32c-20.5-9.4-39.26-24.15-55.76-43.85a236.82,236.82,0,0,1-40.15-70.61C250,300,245,267.06,247.67,236.46A167.85,167.85,0,0,1,269,167.88c20.37-35.79,48-53.43,48.26-53.6l.14-.09.16,0c.38,0,37.86-4.21,79.89,9.57,24.7,8.1,46.13,20.71,63.69,37.49,21.94,21,37.85,48.54,47.3,81.93C521.21,283,525.75,319,521.94,350.4c-3.06,25.14-11.47,47.33-25,66-23,31.72-53.36,42.2-53.66,42.3l-.11,0A162.5,162.5,0,0,1,416.17,461ZM317.89,115.61c-2.14,1.4-28.22,18.88-47.65,53.06-18.62,32.73-34.78,88-6.05,165.07a235.39,235.39,0,0,0,39.92,70.18c25.68,30.65,70.61,64.78,138.77,53.32,1.43-.5,30.64-11.07,52.93-41.82,21-29,40-82.28,11.21-171.82v0c-21.23-75-71.55-105.83-110-118.44C356.69,111.93,320.65,115.32,317.89,115.61Z" fill="#bcbec0"/><path d="M442.79,458.7c-2.45,0-18.89-.66-41.91-17.21-22.47-16.15-55.63-51.25-86-126.71a323.37,323.37,0,0,1-20.95-71.65c-4-23.57-4.64-45.53-2-65.29,3.27-24.74,11.73-46.07,25.17-63.39l.23-.3h.38c.24,0,24.14,1.15,53,19.79,16.94,10.93,32.27,25.66,45.58,43.78,16.61,22.63,30.08,50.63,40,83.23a357,357,0,0,1,19.57,77.2c3.19,24.52,2.82,46.46-1.09,65.22-4.9,23.52-15.42,42.07-31.26,55.14l-.19.16h-.55ZM318,115.66c-29.82,38.74-28.77,90.53-22.62,127.19a321.51,321.51,0,0,0,20.86,71.33v0c30.24,75.15,63.19,110.05,85.51,126.09,22.51,16.18,38.9,16.9,41.06,16.92,35.1-29.16,36.58-80.7,31.63-118.84a356,356,0,0,0-19.51-76.93C432.5,188,396.36,152.29,370,135.24,343.38,118.05,321.11,115.88,318,115.66Z" fill="#bcbec0"/><rect x="376.71" y="-1.74" width="1.47" height="557.71" transform="translate(-72.56 147.66) rotate(-20.24)" fill="#bcbec0"/><rect x="206.01" y="286.05" width="365.55" height="1.47" transform="translate(-75.87 154.51) rotate(-20.52)" fill="#bcbec0"/><path d="M285.58,159.34c-16.31,0-29.56-1.42-29.8-1.45l.16-1.46c.46,0,46.76,5,72.77-3.77,1.6-.54,3.49-1.17,5.41-1.75,12.19-3.69,53.62-18.14,75.17-49l1.2.85c-21.81,31.23-63.64,45.82-75.94,49.55-1.91.58-3.78,1.2-5.37,1.74C316.83,158.23,300,159.34,285.58,159.34Z" fill="#bcbec0"/><rect x="90.8" y="185.86" width="1.47" height="4.42" fill="#d1d3d4"/><path d="M215,308.59h-8.64v-1.47H215Zm-17.29,0H189.1v-1.47h8.64Zm-17.28,0h-8.64v-1.47h8.64Zm-17.29,0h-8.64v-1.47h8.64Zm-17.28,0h-8.64v-1.47h8.64Zm-17.31,0a39.1,39.1,0,0,1-8.69-1.24l.37-1.43a38,38,0,0,0,8.37,1.2Zm-16.89-4.41a39.33,39.33,0,0,1-7.28-4.93l1-1.12a37.68,37.68,0,0,0,7,4.75ZM98.43,292.81A39.28,39.28,0,0,1,94,285.2l1.35-.59a37.61,37.61,0,0,0,4.24,7.32Zm-7-16a39.59,39.59,0,0,1-.65-7.14v-1.6h1.47v1.6a37.52,37.52,0,0,0,.63,6.87Zm.82-17.38H90.8v-8.64h1.47Zm0-17.29H90.8v-8.64h1.47Zm0-17.28H90.8v-8.64h1.47Zm0-17.28H90.8v-8.65h1.47Z" fill="#d1d3d4"/><rect x="223.71" y="307.12" width="4.42" height="1.47" fill="#d1d3d4"/><circle cx="238.27" cy="307.33" r="4.31" fill="#d1d3d4"/><polygon points="654.33 625.19 655.91 632.97 674.2 632.97 672.31 625.19 654.33 625.19" fill="#f9b499"/><polygon points="552.14 625.67 553.72 633.44 572.02 633.44 570.13 625.67 552.14 625.67" fill="#f9b499"/><path d="M576.49,242.58l2.1,34.42-8.44,2.47s2.5,19.61,21.41,15.14c0,0,15.42,1.26,16.4-14.83L602.6,277l-3.15-13.3s-9,3.94-16.89-6.43C582.56,257.27,577.88,249,576.49,242.58Z" fill="#f9b499"/><path d="M745.46,449.63l2.23,13.64s6.45-1.63,4.85-10.1a33.78,33.78,0,0,0-3-1.79A31.36,31.36,0,0,0,745.46,449.63Z" fill="#f48225" data-secondary="true"/><path d="M745.46,449.63l2.23,13.64s6.45-1.63,4.85-10.1a33.78,33.78,0,0,0-3-1.79A31.36,31.36,0,0,0,745.46,449.63Z" opacity="0.3"/><path d="M657.07,453.17s1,8.46,8.68,11.8l-3.42-20.46A22.23,22.23,0,0,0,657.07,453.17Z" fill="#f48225" data-secondary="true"/><path d="M657.07,453.17s1,8.46,8.68,11.8l-3.42-20.46A22.23,22.23,0,0,0,657.07,453.17Z" opacity="0.3"/><path d="M641.92,298.82s3.79-25.66,32-32.6c0,0,21.63-6.81,45.74,7a69.05,69.05,0,0,1,25.67,26.22c6.43,11.43,14.47,29.75,11.32,45.68a13.1,13.1,0,0,1-9.56,10.2l-.29.07a13,13,0,0,0-9.92,15l15.69,82.72s-78.23-42.48-95.47,0l-1.23-126.75A13.07,13.07,0,0,0,654.1,320Z" fill="#f48225" data-secondary="true"/><path d="M680.74,252.83l-1.8,11.5-5.05,1.89s13.47,23.37,32.6,1.28c0,0-3.74-1.12-7-1.91l1.16-28s-2.6,14.3-13.53,16.07C687.07,253.62,684.59,254.43,680.74,252.83Z" fill="#f9b499"/><g opacity="0.2"><path d="M708.63,351.15l-.41-.61c9.84-6.65,8.7-21.43,8.68-21.57l.74-.07C717.65,329.06,718.83,344.27,708.63,351.15Z"/></g><path d="M709.22,327.41s-21.47-14.4-26-2.43a10.49,10.49,0,0,0-.14,6.69c1,3.35,3.23,8.72,7.7,9.86a2.77,2.77,0,0,0,3.4-3.31,12,12,0,0,0-1.66-3.55l9.77,10.61S713.63,339.09,709.22,327.41Z" fill="#f9b499"/><path d="M662.33,444.51l24.18,144.72H708c0-2.54,0-5.09-.08-7.63-.64-48.16-3.46-95.23-8.17-141.16a2.6,2.6,0,0,1,2.47-2.62,2.47,2.47,0,0,1,2.4,1.86l38.64,149.55h22.08L745.81,449.81s-30-16.84-60.6-15.36C685.21,434.45,671.6,434.17,662.33,444.51Z" fill="#2f2e41"/><path d="M741.78,583.4l20.43,75.44H794.6a12.63,12.63,0,0,0-7.23-11.41l-15.91-7.52-6.91-56.51Z" fill="#f48225" data-secondary="true"/><path d="M685.13,581l9.37,58.93-12.39,6.16a14.28,14.28,0,0,0-7.91,12.77h34.6L707.94,581Z" fill="#f48225" data-secondary="true"/><path d="M538.88,365.9v23.34h110.4v-77.6l-7.36-12.82s-13.66-25.45-34-19c0,0,.11,13.57-16.4,14.83,0,0-16.64,5.05-21.41-15.14,0,0-24.54-4.21-33.37,31.54S524.58,359.8,538.88,365.9Z" fill="#686175" data-primary="true"/><path d="M552.76,324.89l58.88-4.67,4.63,16-59.15,29.17a21.86,21.86,0,0,1-11.48,2.26,20.17,20.17,0,0,1-6.76-1.78s-13.22-3.35-9.13-23.11l3.45-17.1Z" fill="#686175" data-primary="true"/><path d="M652.32,316.92l-3-5.28a52.84,52.84,0,0,1-26.14,22.69l-6.87,1.92L590.5,349s62.17,23.26,71.83,13.48c0,0,10.61-8.8,2.73-22.54L655.8,323Z" fill="#686175" data-primary="true"/><polygon points="618.36 317.89 653.07 332.75 623.14 334.33 618.36 317.89" fill="#f9b499"/><path d="M555.23,324.7c-5.09-1.46-4.15-6.81-4.15-6.81s-7.15,1.53-5.26-6.46c0,0-3.15-5.68,2.52-7.15l11.23,1.06a6.43,6.43,0,0,1,3.86,1.75l16.5,15.65Z" fill="#f9b499"/><polygon points="632.25 389.24 674.2 615.1 644.87 615.1 599.45 407.54 584.93 409.43 572.62 617.62 542.25 617.62 548.98 389.24 632.25 389.24" fill="#2f2e41"/><path d="M674.05,627.08H647.18a7,7,0,0,1-6.65-4.93l-2.1-6.92a4.51,4.51,0,0,1,4.32-5.81h31.3a6.46,6.46,0,0,1,6.46,6.46v4.74A6.46,6.46,0,0,1,674.05,627.08Z" fill="#2f2e41"/><path d="M674.05,627.08H647.18a7,7,0,0,1-6.65-4.93l-2.1-6.92a4.51,4.51,0,0,1,4.32-5.81h31.3a6.46,6.46,0,0,1,6.46,6.46v4.74A6.46,6.46,0,0,1,674.05,627.08Z" opacity="0.2"/><path d="M572.48,627.08H545.61a7,7,0,0,1-6.65-4.93l-2.1-6.92a4.5,4.5,0,0,1,4.31-5.81h31.31a6.46,6.46,0,0,1,6.46,6.46v4.74A6.46,6.46,0,0,1,572.48,627.08Z" fill="#2f2e41"/><path d="M572.48,627.08H545.61a7,7,0,0,1-6.65-4.93l-2.1-6.92a4.5,4.5,0,0,1,4.31-5.81h31.31a6.46,6.46,0,0,1,6.46,6.46v4.74A6.46,6.46,0,0,1,572.48,627.08Z" opacity="0.2"/><path d="M650.23,635.44v15.77a2.37,2.37,0,0,0,2.37,2.37h52.2a7.62,7.62,0,0,0-7.67-7.62l-1.64,0a10.08,10.08,0,0,1-6.92-2.68l-11.05-10.22H652.6A2.36,2.36,0,0,0,650.23,635.44Z" fill="#686175" data-primary="true"/><path d="M650.23,635.44v15.77a2.37,2.37,0,0,0,2.37,2.37h52.2a7.62,7.62,0,0,0-7.67-7.62l-1.64,0a10.08,10.08,0,0,1-6.92-2.68l-11.05-10.22H652.6A2.36,2.36,0,0,0,650.23,635.44Z" opacity="0.2"/><rect x="648.34" y="653.58" width="58.04" height="5.26" rx="2.42" fill="#2f2e41"/><path d="M548,635.81v15.77a2.37,2.37,0,0,0,2.37,2.37h52.2a7.62,7.62,0,0,0-7.67-7.62h-1.63a10,10,0,0,1-6.93-2.68l-11-10.22H550.41A2.37,2.37,0,0,0,548,635.81Z" fill="#686175" data-primary="true"/><path d="M548,635.81v15.77a2.37,2.37,0,0,0,2.37,2.37h52.2a7.62,7.62,0,0,0-7.67-7.62h-1.63a10,10,0,0,1-6.93-2.68l-11-10.22H550.41A2.37,2.37,0,0,0,548,635.81Z" opacity="0.2"/><rect x="546.15" y="653.95" width="58.04" height="5.26" rx="2.42" fill="#2f2e41"/><polygon points="488.83 636.13 503.13 636.13 521.85 540.23 531.31 540.23 539.3 636.13 557.8 636.13 554.44 528.88 497.24 528.88 488.83 636.13" fill="#2f2e41"/><polygon points="488.83 636.13 503.13 636.13 521.85 540.23 531.31 540.23 539.3 636.13 557.8 636.13 554.44 528.88 497.24 528.88 488.83 636.13" fill="#fff" opacity="0.1"/><path d="M506.63,449.81h35.71a5.46,5.46,0,0,1,5.42,4.82l8.79,74.25H494.3l6.9-74.12A5.45,5.45,0,0,1,506.63,449.81Z" fill="#f48225" data-secondary="true"/><path d="M554.75,538.77l9.37-1.9-9.37-69.4s-1-11.49-7-12.84l8.79,74.25h-2.11Z" fill="#f48225" data-secondary="true"/><path d="M499.28,475.34l-63.55-77.9,6.63-4.73,61.2,58.05s-2.05.64-2.36,4Z" fill="#f48225" data-secondary="true"/><path d="M519.42,441.45V452.1a6,6,0,0,0,5.85,6l7.93.21s1-16.25-3-28.25C530.22,430.07,528,439.31,519.42,441.45Z" fill="#f9b499"/><path d="M490.93,636.12l-2.1,10.52H475.64a8,8,0,0,0-8.05,8v4.16h37.54l-2-22.72Z" fill="#686175" data-primary="true"/><path d="M554.23,636.12l2.11,10.52h13.19a8,8,0,0,1,8,8v4.16H540l2-22.72Z" fill="#686175" data-primary="true"/><path d="M435.73,397.44s-9.15-4.83-4.52-9.25l-3.73-7.13a2.35,2.35,0,0,1,.6-2.92h0a2.36,2.36,0,0,1,3.34.39l10.94,14.18Z" fill="#f9b499"/><path d="M564.12,536.87s5.4,15.45-8.18,16.4l-1.19-14.5Z" fill="#f9b499"/><rect x="403.56" y="511.79" width="12.3" height="124.33" fill="#d1d3d4"/><rect x="401.42" y="589.35" width="12.3" height="93.55" rx="5.65" transform="translate(1043.69 228.56) rotate(90)" fill="#cecece"/><rect x="140.17" y="430.07" width="135.01" height="209.32" rx="29.57" fill="#ccc"/><rect x="152.78" y="442.23" width="109.14" height="183.9" rx="9.21" opacity="0.2"/><rect x="164.32" y="503.11" width="86.25" height="105.36" rx="9.21" fill="#ccc"/><path d="M241.11,468.63H173.92v1.47h57v7.78a.74.74,0,1,0,1.47,0V470.1h8.73Z" fill="#ccc"/><rect x="134.17" y="486.4" width="5.99" height="16.72" fill="#ccc"/><rect x="134.17" y="572.98" width="5.99" height="16.72" fill="#ccc"/><path d="M225.65,515.31H191.9v1.47h5.78v7.78a.74.74,0,1,0,1.47,0v-7.78h26.5Z" opacity="0.2"/><circle cx="177.55" cy="649.22" r="9.99" fill="#ccc"/><circle cx="177.55" cy="649.22" r="9.99" opacity="0.2"/><circle cx="177.55" cy="649.22" r="3.76" fill="#ccc"/><path d="M86.16,168.87,65.83,133.54s-9.59-17.27,1-33.12a25.46,25.46,0,0,1,14-10.25,35.14,35.14,0,0,1,27.83,3.41s6.91,3.39,10.65,12.87a30.16,30.16,0,0,1-2.31,26.35L95.69,168.87S90.54,176.48,86.16,168.87Z" fill="#d1d3d4"/><circle cx="91.53" cy="117.92" r="12.56" fill="#fff"/><path d="M463.91,180.42S497.24,48.57,638.56,41.63c0,0,139.42-1.9,171,138.79Z" fill="#d1d3d4"/><path d="M542.25,180.42S551.5,71.28,638.56,41.63c0,0,78.23,18.29,96.52,138.79" opacity="0.2"/><rect x="637.88" y="41.63" width="1.47" height="138.79" fill="#d1d3d4"/><path d="M638.57,20.18h.5A2.85,2.85,0,0,1,641.92,23V41.63a0,0,0,0,1,0,0h-6.21a0,0,0,0,1,0,0V23a2.85,2.85,0,0,1,2.85-2.85Z" fill="#d1d3d4"/><path d="M680.87,251.08l-.52,4.26s11.7,3.4,19.75-5.83l.5-12S687.26,251.71,680.87,251.08Z" fill="#f4a58c"/><ellipse cx="685.78" cy="230.79" rx="15.48" ry="23.32" fill="#f9b499"/><path d="M699.38,219.63h-8.17s-4-6.33-7.24,0H666.28s0-25.83,24.53-24.22a37.56,37.56,0,0,1,27.74,27.74,223.14,223.14,0,0,1,5.63,53.07,68.42,68.42,0,0,0-24.74-10.63l1.16-28s1.21-6.67.41-10.93C701,226.62,700,221.11,699.38,219.63Z" fill="#2f2e41"/><ellipse cx="702.27" cy="232.19" rx="4.22" ry="5.83" fill="#f9b499"/><path d="M740.27,356.72a29,29,0,0,1-6.58-.75c-16.27,1.39-34.38-8.78-34.56-8.89l-.6-.34.62-.31c14.72-7.32,9.47-18.74,9.42-18.86l-.35-.73.78.22c.17.05,17.23,4.68,31.33,0l.23.69c-12.68,4.2-27.68,1-31.06.19.91,2.63,3.14,12.24-9.4,18.82,3.28,1.74,19.2,9.72,33.58,8.46h.07l.06,0c.1,0,10.55,2.68,17.2-2.36,3.59-2.72,5.47-7.18,5.58-13.27h.74c-.12,6.33-2.1,11-5.87,13.85C748,356.05,743.78,356.72,740.27,356.72Z" fill="#f48225" data-secondary="true"/><g opacity="0.3"><path d="M740.27,356.72a29,29,0,0,1-6.58-.75c-16.27,1.39-34.38-8.78-34.56-8.89l-.6-.34.62-.31c14.72-7.32,9.47-18.74,9.42-18.86l-.35-.73.78.22c.17.05,17.23,4.68,31.33,0l.23.69c-12.68,4.2-27.68,1-31.06.19.91,2.63,3.14,12.24-9.4,18.82,3.28,1.74,19.2,9.72,33.58,8.46h.07l.06,0c.1,0,10.55,2.68,17.2-2.36,3.59-2.72,5.47-7.18,5.58-13.27h.74c-.12,6.33-2.1,11-5.87,13.85C748,356.05,743.78,356.72,740.27,356.72Z"/></g><path d="M600,266l-1-5.42-22.45-18,.82,13.37S584.47,269.48,600,266Z" fill="#f4a58c"/><ellipse cx="594.99" cy="233.47" rx="19.34" ry="31.08" fill="#f9b499"/><ellipse cx="574.37" cy="237.55" rx="4.22" ry="5.83" fill="#f9b499"/><path d="M586.2,222.87s27.56,9.36,39.23-12.9c.28-.53.56-1.05.85-1.57,1-1.68,3.3-6.75-1.26-9.61a7,7,0,0,0-3.72-1H588.45a9.79,9.79,0,0,0-6.36,2.3,9.91,9.91,0,0,0-3.5,8.88s-12.58-3.54-11,13.2a16.73,16.73,0,0,0,1.82,6c2.76,5.15,9,6.22,12.93,2.18A16.4,16.4,0,0,0,586.2,222.87Z" fill="#2f2e41"/><rect x="610.15" y="316.42" width="10.82" height="22.4" rx="3.58" transform="translate(-67.01 184.98) rotate(-16.22)" fill="#686175" data-primary="true"/><rect x="610.15" y="316.42" width="10.82" height="22.4" rx="3.58" transform="translate(-67.01 184.98) rotate(-16.22)" opacity="0.2"/><path d="M519.42,445.49v-4s9.39-4.8,10.31-12.16c0,0,2,8.58,2.39,11.26a32.36,32.36,0,0,1-6.84,3.42A31.81,31.81,0,0,1,519.42,445.49Z" fill="#f4a58c"/><ellipse cx="517.75" cy="420.23" rx="14.19" ry="21.37" fill="#f9b499"/><path d="M504.29,426.51s.52,16.69-7.68,23.3c0,0,0,10.72,19.56,7.57V441.47S508,440.85,504.29,426.51Z" fill="#2f2e41"/><path d="M523.21,410.47s11.25,24.19,10,47.85c0,0,19.56,4.42,18.61-6.94,0,0-1.61-17.4-14.23-37.9Z" fill="#2f2e41"/><path d="M507.72,395.54s4.73-14.25,17.94-13.67a13.62,13.62,0,0,1,7.08,2.29c3.63,2.48,8.31,7.88,6.31,18.84Z" fill="#f48225" data-secondary="true"/><ellipse cx="536.15" cy="383.46" rx="6.1" ry="5.78" fill="#f48225" data-secondary="true"/><rect x="500.56" y="398.97" width="42.21" height="10.99" rx="5.05" transform="translate(106.42 -108.66) rotate(13.23)" fill="#f48225" data-secondary="true"/><rect x="500.56" y="398.97" width="42.21" height="10.99" rx="5.05" transform="translate(106.42 -108.66) rotate(13.23)" opacity="0.2"/><path d="M336.72,266l-20.33-35.33s-9.59-17.26,1.05-33.12a25.44,25.44,0,0,1,14-10.24,35.12,35.12,0,0,1,27.83,3.4s6.92,3.4,10.66,12.88a30.11,30.11,0,0,1-2.32,26.34L346.25,266S341.1,273.62,336.72,266Z" fill="#d1d3d4"/><circle cx="343.55" cy="284.6" r="3.79" fill="#d1d3d4"/><circle cx="342.1" cy="215.07" r="12.56" fill="#fff"/><rect x="200.73" y="538.77" width="195.99" height="125.01" rx="22.93" fill="#bcbec0"/><path d="M227.65,538.77s6.31,35.11-26.92,37.63V562.48a23.68,23.68,0,0,1,23.46-23.68Z" fill="#a7a9ac"/><path d="M236.9,663.78c2.94-32.91-36.17-27.66-36.17-27.66V640a23.83,23.83,0,0,0,23.83,23.83Z" fill="#a7a9ac"/><rect x="329.25" y="534.34" width="15.14" height="133.33" rx="3.31" fill="#a7a9ac"/><rect x="250.57" y="534.34" width="15.14" height="133.33" rx="3.31" fill="#a7a9ac"/><rect x="244.47" y="571.99" width="27.34" height="18.72" rx="6.43" fill="#d1d3d4"/><rect x="246.36" y="597.01" width="24.18" height="7.99" rx="3.67" fill="#d1d3d4"/><rect x="212.4" y="590.7" width="26.5" height="12.72" fill="#fff" opacity="0.2"/><g opacity="0.2"><rect x="212.4" y="614.67" width="26.5" height="1.47" fill="#fff"/></g><circle cx="257.9" cy="546.72" r="2.6" fill="#fff" opacity="0.2"/><circle cx="257.9" cy="655.29" r="2.6" fill="#fff" opacity="0.2"/><g opacity="0.2"><rect x="212.4" y="607.74" width="26.5" height="1.47" fill="#fff"/></g><rect x="322.84" y="571.99" width="27.34" height="18.72" rx="6.43" fill="#d1d3d4"/><rect x="324.73" y="597.01" width="24.18" height="7.99" rx="3.67" fill="#d1d3d4"/><path d="M396.72,576.4c-35.22-1.79-26.28-37.63-26.28-37.63h2.61a23.66,23.66,0,0,1,23.67,23.66Z" fill="#a7a9ac"/><path d="M396.72,637.49c-42.48-4.78-37.64,26.29-37.64,26.29h14.06a23.59,23.59,0,0,0,23.58-23.59Z" fill="#a7a9ac"/><circle cx="336.82" cy="655.29" r="2.6" fill="#fff" opacity="0.2"/><circle cx="336.82" cy="546.72" r="2.6" fill="#fff" opacity="0.2"/></svg>