<svg id="fd4384df-b3ab-4429-b194-6e84d8897a1f" data-name="Layer 1" xmlns="http://www.w3.org/2000/svg" width="865.76" height="682.89" viewBox="0 0 865.76 682.89"><rect x="80.42" y="36.98" width="222.01" height="367.48" fill="#e0e0e0"/><rect x="73.04" y="36.98" width="222.01" height="367.48" fill="#ebebeb"/><rect x="82.5" y="44.44" width="203.09" height="352.57" fill="#fafafa"/><rect x="121.16" y="90.24" width="124.89" height="260.95" fill="#ebebeb"/><path d="M121.16,258.86c-.29-24.37,21.63-48.17,45.76-51.57,11.51-1.68,23.75.65,34.5-3.76,19.2-7.87,25.31-33.37,44.63-40.94l.87,188.61H121.14Z" fill="#e0e0e0"/><rect x="395.13" y="113.04" width="303.51" height="523.63" rx="8.29" fill="#686175" data-primary="true"/><rect x="402.88" y="125.64" width="287.99" height="500.35" rx="4" fill="#f0f0ff"/><rect x="451.37" y="502.31" width="191.03" height="25.21" rx="3.75" fill="#686175" data-primary="true"/><rect x="463.97" y="179.91" width="175.51" height="2" fill="#dcdcf9"/><rect x="466.88" y="204.15" width="155.15" height="2" fill="#dcdcf9"/><rect x="431" y="169.75" width="15.51" height="1" fill="#dcdcf9"/><rect x="431" y="175.56" width="15.51" height="1" fill="#dcdcf9"/><rect x="431" y="180.29" width="15.51" height="1" fill="#dcdcf9"/><rect x="450.4" y="436.88" width="185.21" height="2" fill="#dcdcf9"/><rect x="450.4" y="449.48" width="185.21" height="2" fill="#dcdcf9"/><rect x="463.97" y="461.12" width="154.18" height="2" fill="#dcdcf9"/><polygon points="434.88 28.67 657.91 28.67 708.33 113.03 385.43 113.03 434.88 28.67" fill="#686175" data-primary="true"/><path d="M385.43,113h54.42a0,0,0,0,1,0,0v14.64a27.21,27.21,0,0,1-27.21,27.21h0a27.21,27.21,0,0,1-27.21-27.21V113a0,0,0,0,1,0,0Z" fill="#686175" data-primary="true"/><path d="M651.81,113h57a0,0,0,0,1,0,0v13.34a28.51,28.51,0,0,1-28.51,28.51h0a28.51,28.51,0,0,1-28.51-28.51V113A0,0,0,0,1,651.81,113Z" fill="#686175" data-primary="true"/><path d="M510.28,113.6H582a0,0,0,0,1,0,0v5.56A35.86,35.86,0,0,1,546.14,155h0a35.86,35.86,0,0,1-35.86-35.86V113.6A0,0,0,0,1,510.28,113.6Z" fill="#686175" data-primary="true"/><path d="M385.43,113h54.42a0,0,0,0,1,0,0v14.64a27.21,27.21,0,0,1-27.21,27.21h0a27.21,27.21,0,0,1-27.21-27.21V113a0,0,0,0,1,0,0Z" opacity="0.2"/><path d="M651.81,113h57a0,0,0,0,1,0,0v13.34a28.51,28.51,0,0,1-28.51,28.51h0a28.51,28.51,0,0,1-28.51-28.51V113A0,0,0,0,1,651.81,113Z" opacity="0.2"/><path d="M510.28,113.6H582a0,0,0,0,1,0,0v5.56A35.86,35.86,0,0,1,546.14,155h0a35.86,35.86,0,0,1-35.86-35.86V113.6A0,0,0,0,1,510.28,113.6Z" opacity="0.2"/><path d="M475.13,154.88h0a35.2,35.2,0,0,1-35.21-35.21l.3-7.12,70.12.92v6.2A35.2,35.2,0,0,1,475.13,154.88Z" fill="#f3e4cd"/><path d="M581.75,113.47h70.42a0,0,0,0,1,0,0v6.2A35.21,35.21,0,0,1,617,154.88h0a35.21,35.21,0,0,1-35.21-35.21v-6.2A0,0,0,0,1,581.75,113.47Z" fill="#f3e4cd"/><g opacity="0.2"><path d="M475.13,154.88h0a35.2,35.2,0,0,1-35.21-35.21l.3-7.12,70.12.92v6.2A35.2,35.2,0,0,1,475.13,154.88Z"/><path d="M581.75,113.47h70.42a0,0,0,0,1,0,0v6.2A35.21,35.21,0,0,1,617,154.88h0a35.21,35.21,0,0,1-35.21-35.21v-6.2A0,0,0,0,1,581.75,113.47Z"/></g><polygon points="440.22 112.55 510.34 113.47 523.25 28.67 470.28 28.67 440.22 112.55" fill="#f3e4cd"/><polygon points="581.75 113.47 652.18 113.37 620.61 28.18 569.06 28.49 581.75 113.47" fill="#f3e4cd"/><path d="M488.4,350a1.87,1.87,0,0,1-.13-.42c-.36-2.2.43-4.12.55-6.27.1-1.74-.85-3.49-.53-5.2.43-2.28,1.29-3.49,1.2-5.81a22.6,22.6,0,0,1,1.19-7.9c.74-2.19.61-4.59,1-6.88.31-1.93.43-4.32.93-6.13a32.86,32.86,0,0,0,1.19-3.09c.17-.94-.31-1.79-.15-2.76.54-3.09,1.89-6.84,4.15-9.09,4-4,12.7-9.4,29-9.4H556.6c19.26,0,30.47,3.26,34.28,8.34,1.93,2.57,3.73,4.29,4.81,7.37.81,2.29.76,4.65,1.31,7,.37,1.62,1.23,3.05,1.67,4.65,1.45,5.19,1.43,11,2,16.31a49.06,49.06,0,0,1,.63,7.45c-.13,2.54-.79,5-.85,7.57A50.83,50.83,0,0,0,601,352c.42,4,.76,8.08-.24,12.07-.4,1.61.39,2.7.6,4.06a18.06,18.06,0,0,1-.61,6.93c-.35,1.29.18,2.36-.09,3.68s-.88,1.89-.92,3.19c0,1.05.32,2.32.27,3.47-.17,3.88-.57,7.74-.83,11.58-.07,1-.74,1.48-.9,2.26a3.85,3.85,0,0,0,.11,2,6,6,0,0,1-.68,4.45,49.38,49.38,0,0,0-2.17,5.29c-.36,1.12-.21,3.6-1.46,4.22-1.69.85-9.52-1.06-9.94-2.54-.55-1.91.49-4.14.4-6.08s-1.53-2.65-1.87-4.31c-.46-2.28,2.29-4.77,1.33-7.24-.85-2.18-1.65-3-1.64-5.56,0-2.91.5-5.85-.38-8.7-1-3.16.29-6.56-.2-9.79a28.63,28.63,0,0,1-.12-4.5c0-2.29-1-4.54-.94-6.78,0-1.7.71-3.05.32-4.84a32.29,32.29,0,0,1-1.07-5,11.14,11.14,0,0,0-.53-3.35c-.88-2.72.26-6.13-.67-8.54-3.31.63-2,10.46-1.8,12.89.16,1.8.75,3.49,1,5.23.28,2.21-.36,4.42.16,6.62s1,4.05.57,6.55c-.36,1.9-1.21,3.53-1.08,5.55.11,1.75.72,3.39.77,5.15.06,2.05-.31,3.95.29,6a11.62,11.62,0,0,1,0,4.7c-.45,2.77,1.53,5.4.68,8-.66,2-1.12,2.67-.91,4.81.18,1.84.43,3.78-1,5.22-2.75,2.75-31.32,4.44-34.7,3.6-4.87,0-28.57-.21-29.84-1.91s-2.54-3.81-1.9-5.71c.87-2.63-.57-3.77-.61-6.13,0-1.9,1.32-3.31,1-5.32s-1.63-3.45-1-5.49c.35-1.18,1.19-2,1.27-3.19.06-.82-.59-2-.63-3-.16-4,1.25-7.69,1.06-11.61-.11-2.24-.47-4.41.18-6.6s.54-3.88.66-6.34c.11-2.27.55-4.15.08-6.42-.55-2.66.82-9.31-1.35-11.27-1,1-.22,3.68-.42,5.09-.4,2.89-.44,5.61-.91,8.45-.19,1.14,0,2.3-.2,3.42s-1.22,2.4-1.23,3.7c0,.86.6,1.47.64,2.4.2,4.26-2.7,8.43-2.34,12.73.16,2-.67,3.84-.61,5.81,0,1.33.86,1.51,1.09,2.32.93,3.33-1.72,7.65-1.52,11.23a10.73,10.73,0,0,1,.24,1.74c-.05.62-.71.9-.67,1.61,0,.51.79,1,.92,1.6.32,1.47-.69,1.64-1.26,2.67a4.66,4.66,0,0,0-.68,3.09c.06,1.33,1.39,6.14.37,7.17-.63.63-9.09,3.81-11,1.9-2.4-2.4.64-7.14-.75-9.89-.94-1.88-2.61-2.34-2.76-4.89-.13-2.19.66-4.35.54-6.56-1.73-.26-1.17-6.68-1.45-8.23-.24-1.34-1-2.81-.79-4.22.15-.86,1-1.36,1-2.4-.05-1.31-.95-1.36-1.27-2.51-.46-1.67.37-5.12.5-6.9.19-2.77.7-5.52.66-8.3,0-2.11-1.8-4.09-1.65-6C488.18,351.92,489.48,352.46,488.4,350Z" fill="#cd3636"/><path d="M601.33,368.15c-.21-1.36-1-2.45-.6-4.06,1-4,.66-8,.24-12.07a50.83,50.83,0,0,1-.53-6.27c.06-2.55.72-5,.85-7.57a49.06,49.06,0,0,0-.63-7.45c-.56-5.34-.54-11.12-2-16.31-.44-1.6-1.3-3-1.67-4.65-.55-2.33-.55-4.67-1.31-7-1-3-2.72-4.21-2.73-4.72,0,2.71,1.34,5.3.86,8a65.32,65.32,0,0,1-1.45,7.32c-.58,1.94-2.86,4.74-2.69,6.7,1.67.23,2.65-.55,4-1.43s1.75-1.1,2.13.51a19.64,19.64,0,0,1-.29,7.44,14.63,14.63,0,0,0,0,6.68,25.05,25.05,0,0,1,.09,3.36,9.65,9.65,0,0,0,.86,2.81c.93,2.67-.84,5.65-1.34,8.24-.34,1.73-2.65,4.2-2.14,5.91.43,1.42,2.73.49,3.56,0,.21,3.12-.63,6.42-1.34,9.41-.28,1.18-.13,2.36-.37,3.54-.38,1.8-.38,1.54.89,2.6,1.51,1.27,1.42,5.6.89,7.53a39.48,39.48,0,0,1-3.44,8.93c-.54,1-2,2.45-.5,3,1,.38,3.11-.64,4.14-.91a16.7,16.7,0,0,1-6.07,13.19c-3.4,2.57.95,2.52,2.91,2.63-.34,1.77-1.1,5.93-2.92,6.81-1.09.52-2-.17-1.28-1.31.56-.85,2.21-.95,3.1-1.28.44-1.81-3-3-4-3.94-1.66-1.48-1.15-3-1-5.09.77.09,1.54.27,2.31.35,3.32.33,3.33-2.7,2.17-4.95a26.77,26.77,0,0,1-2.24-4.56c-.48-1.66.28-2.29,1.18-3.56,2.54-3.57.25-4.82-1.33-8a9.38,9.38,0,0,1-.46-8.5c.79-2.19,2.12-.68,3.55-1.65,1-.67.5-2.91.09-3.86s-2.2-2-1.6-3.27,2.36-.89.67-2.58c-2-1.95-5.87-3.07-6.18-6.32-.15-1.64,1.36-2.73,1.38-4.25s-1.15-2.74-1.31-4.18c-.33-3.15-2.43-6.11-1.27-9.36.56-1.56,1.65-2.77,2-4.43a24.67,24.67,0,0,0,.43-4.62c-2-.57-4.71,3.61-4.53.28a10.48,10.48,0,0,1,.73-3.36c.39-.93,1.16-1.61.91-2.7a4.22,4.22,0,0,0-2.44,1.45c.07-1.13.84-2.26,1.13-3.39.42-1.62.63-3.33.9-5,.39-2.43,4.28-12.5,3.33-16.86-3.77,14.13-9.13,15.45-10.19,18.3a61.67,61.67,0,0,0-2.28,8.53c-.35,1.58-.89,2-2.12,3s-1.38,1.71-1.61,3.22c-.38,2.58-.15,5.14-.53,7.68-.19,1.32-3.43,6.4-1.32,6.47-.45,1.95-1.72,3.61-2.06,5.61a2.66,2.66,0,0,0,.46,2.5c.56.64,1.88.7,2.33,1.34s.23,1.67.19,2.41c-.22,3.34-.32,6.7-.24,10.05a8.6,8.6,0,0,0,.87,3.87c.65,1.22,1.48,2,1.63,3.43a25.31,25.31,0,0,1-.78,8.08c-.53,2.24-1.79,4.81-1.82,7.11,2.33-.89,1.61,1.16.48,2.12-.87.74-4.57,2.13-4.78,3.12-.55,2.65,6.62,1.63,8,1.68-2,2.69-5.81,3.9-8.89,5a70.39,70.39,0,0,1-11.47,3.46c-3.54.61-7.31.78-10.89,1.18a79.31,79.31,0,0,1-12.32.65,51.62,51.62,0,0,1-8.3-1.23,6.7,6.7,0,0,1-4.6-3.89c-.29-.72-.69-2.35-.06-3s1.74.15,2.33-.49c1.07-1.15-1.43-3.76-1.62-5,1.41-.63,2.25.95,3.53.78.26-2.42-2-4.31-3.07-6.26a15.88,15.88,0,0,1-1.34-7.4c.05-1.08.23-3.17,1.18-3.87s2.41.13,3.51.34c-.31-3.44-2-6.42-2-9.78,0-1.53-.61-6.49,2.43-5.63-.16-2.11-1.27-4.29-1.95-6.27-1.53-4.39-4.11-8.45-4.89-13.12-.4-2.38-.09-4.77-.59-7.16-1-4.95-3.17-9.52-4.72-14.3-1.25-3.84-4.07-7.15-5.34-11.06-1-2.92-2.8-6-2.54-9.16a28.87,28.87,0,0,0,.43,4.47c.34,3.27.62,6.61,1.1,9.9.59,4,2,7.78,2.56,11.81a32.1,32.1,0,0,0,.53,4.08c-2.18-1.95-3.34-4.66-5.34-6.75-2.42-2.54-2,.73-1.56,2.48.32,1.18.49,2.5.91,3.64.56,1.49,2.27,3,2,4.75-1.32-.75-2.3-2.27-3.54-3.21-1-.73-2.68-2.84-4-2.53a24.26,24.26,0,0,0,2.62,8.18c1.18,2.48,3.37,4.6,4.36,7.1.83,2.11.23,4.85.34,7.07a16.39,16.39,0,0,1-1.44,7.56c-1.08,2.42-2.81,3.89-4.2,6-1,1.56.16,1.57.51,2.88.12.45-.38,1.07-.21,1.44.37.83.53.19,1.2.42s.52-.38.95.3a8.89,8.89,0,0,1,.11,1.59c0,1.23-.71,1.8-.91,3a1.89,1.89,0,0,0,.39,1.7c.6.47,1-.11,1.51,0,1.37.36.78,1.44.43,2.8a41.91,41.91,0,0,0-1.1,4.24c-.37,2.67,1,4.46,1.44,7a11.93,11.93,0,0,1-.29,4.12c-.17.85-.93,2.91.85,2.27,0,1.6-.64,3.23-.82,4.83a3.82,3.82,0,0,1-.48,2.14c-.41.71-.89,1.13-.72,2a2.35,2.35,0,0,0,1.61,0c.09,1.08-.64,1.87-.37,2.84s1.38,1,1.06,2.13-2.7,2.47-3.78,2.92c-1.65.69-1.71.1-1.37-1.49.43-2,1.06-1.38,2.48-2.38,1.85-1.31-.61-3-1.88-3.41-1.48-.49-4.39-1.49-2-3.22.74-.53,1.45-.2,1.79-1.15.28-.77-.41-1.85-.68-2.52-.37-.93-.44-2-.81-2.88s-1-1.2-1.62-1.94a9.41,9.41,0,0,1-1.47-5.27c1.25-.16,2,1.9,3,1a12.17,12.17,0,0,0-.86-5.09c-.46-1.3-1.55-2.42-1.86-3.74s.41-2.3.13-3.49c-.34-1.44-1.59-2.35-1.45-3.94.24-2.7,1.83-5.54,1.61-8.32-.08-1.14-4-6.5-2-7.2,1-.36,2,2.39,3.23,1.9.92-.37.58-1.87,1.93-2a36,36,0,0,0-1.64-8.16c-.89-2.66-2.25-4.62-3.45-7.09-1.29-2.65.43-3.93,1.37-6.26s.2-4.46.49-6.71c.32-2.55,2-4.67,2.08-7.24,0-1.41-.48-5.33,2.09-3.84,1.2.71,2.75,4.52,4.73,3,1.5-1.16-.92-4.18-1.53-5.33-1.42-2.69-3.31-5.22-4.11-8.2-.58-2.16-.65-6.33.87-8.21a17.2,17.2,0,0,0-3.07,7.76c-.16,1,.32,1.82.15,2.76a32.86,32.86,0,0,1-1.19,3.09c-.5,1.81-.62,4.2-.93,6.13-.37,2.29-.24,4.69-1,6.88a22.6,22.6,0,0,0-1.19,7.9c.09,2.32-.77,3.53-1.2,5.81-.32,1.71.63,3.46.53,5.2-.12,2.15-.91,4.07-.55,6.27a1.87,1.87,0,0,0,.13.42c1.08,2.43-.22,1.89-.4,4.21-.15,1.89,1.62,3.87,1.65,6,0,2.78-.47,5.53-.66,8.3-.13,1.78-1,5.23-.5,6.9.32,1.15,1.22,1.2,1.27,2.51,0,1-.85,1.54-1,2.4-.25,1.41.55,2.88.79,4.22.28,1.55-.28,8,1.45,8.23.12,2.21-.67,4.37-.54,6.56.15,2.55,1.82,3,2.76,4.89,1.39,2.75-1.65,7.49.75,9.89,1.91,1.91,10.37-1.27,11-1.9,1-1-.31-5.84-.37-7.17a4.66,4.66,0,0,1,.68-3.09c.57-1,1.58-1.2,1.26-2.67-.13-.57-.89-1.09-.92-1.6,0-.71.62-1,.67-1.61a10.73,10.73,0,0,0-.24-1.74c-.2-3.58,2.45-7.9,1.52-11.23-.23-.81-1.05-1-1.09-2.32-.06-2,.77-3.84.61-5.81-.36-4.3,2.54-8.47,2.34-12.73,0-.93-.65-1.54-.64-2.4,0-1.3,1-2.45,1.23-3.7s0-2.28.2-3.42c.47-2.84.51-5.56.91-8.45.2-1.41-.56-4.08.42-5.09,2.17,2,.8,8.61,1.35,11.27.47,2.27,0,4.15-.08,6.42-.12,2.46,0,4-.66,6.34s-.29,4.36-.18,6.6c.19,3.92-1.22,7.64-1.06,11.61,0,1.08.69,2.22.63,3-.08,1.24-.92,2-1.27,3.19-.59,2,.76,3.57,1,5.49s-1.06,3.42-1,5.32c0,2.36,1.48,3.5.61,6.13-.64,1.9.63,4,1.9,5.71s25,1.91,29.84,1.91c3.38.84,32-.85,34.7-3.6,1.44-1.44,1.19-3.38,1-5.22-.21-2.14.25-2.78.91-4.81.85-2.61-1.13-5.24-.68-8a11.62,11.62,0,0,0,0-4.7c-.6-2-.23-3.91-.29-6-.05-1.76-.66-3.4-.77-5.15-.13-2,.72-3.65,1.08-5.55.47-2.5,0-4.25-.57-6.55s.12-4.41-.16-6.62c-.23-1.74-.82-3.43-1-5.23-.21-2.43-1.51-12.26,1.8-12.89.93,2.41-.21,5.82.67,8.54a11.14,11.14,0,0,1,.53,3.35,32.29,32.29,0,0,0,1.07,5c.39,1.79-.3,3.14-.32,4.84,0,2.24.94,4.49.94,6.78a28.63,28.63,0,0,0,.12,4.5c.49,3.23-.78,6.63.2,9.79.88,2.85.39,5.79.38,8.7,0,2.57.79,3.38,1.64,5.56,1,2.47-1.79,5-1.33,7.24.34,1.66,1.77,2.42,1.87,4.31s-1,4.17-.4,6.08c.42,1.48,8.25,3.39,9.94,2.54,1.25-.62,1.1-3.1,1.46-4.22a49.38,49.38,0,0,1,2.17-5.29,6,6,0,0,0,.68-4.45,3.85,3.85,0,0,1-.11-2c.16-.78.83-1.3.9-2.26.26-3.84.66-7.7.83-11.58,0-1.15-.3-2.42-.27-3.47,0-1.3.66-1.92.92-3.19s-.26-2.39.09-3.68A18.06,18.06,0,0,0,601.33,368.15Z" fill="#c6322f"/><path d="M601.33,368.15c-.21-1.36-1-2.45-.6-4.06,1-4,.66-8,.24-12.07a50.83,50.83,0,0,1-.53-6.27c.06-2.55.72-5,.85-7.57a49.06,49.06,0,0,0-.63-7.45c-.56-5.34-.54-11.12-2-16.31-.44-1.6-1.3-3-1.67-4.65-.55-2.33-.55-4.67-1.31-7-1-3-2.72-4.21-2.73-4.72,0,3,1.54,6.63,1.53,10a20.33,20.33,0,0,1-.18,5c-.39,1.45-1.6,2.53-1.59,4.06a7,7,0,0,0,3.34-3.78c1.75,1.95.87,5.26,1.37,7.74a35.41,35.41,0,0,1,.7,8.15c0,1.34-.57,2.76-.52,4.05.07,1.56.81,2,1.19,3.42.67,2.52-.34,5.81-1.07,8.23-.67,2.17-2.91,5.29-2.42,7.51,1.61,0,2.67-2.45,3.28-3.78.25,3-.35,6.22-.46,9.38-.11,3-2.49,5.86-2.3,8.69a3.85,3.85,0,0,0,2.24-1.7c1.38,4.17.1,7.89-.21,12.23a9.74,9.74,0,0,1-2,5.61c-1,1.4-3.17,2.74-2.86,4.64,1.68-.45,3.26-2.09,4.58-3.25a26,26,0,0,1-1.09,9.05c-.51,2-.11,4.12-1.4,5.8-.35.45-4.43,2.83-4.44,2.5,0,2.2,4.24.35,5.64.52.21,2.82-1.92,6.57-3,9.1s-2.57,3.83-5.32,2.07c-1.45-.94-3.15-3.54-1.38-5.23,1.26-1.21,3.44.06,5.05-.07-1.37-1.41-4-1.54-5.07-3.62s1.71-4.95-.3-5.72c-.07-1.31,0-2.68-.05-4,1.13,1.64,3.84,3.64,5.94,3.24,0-2.15-2.29-3.85-3.32-5.63-.82-1.42-2.18-3.72-1.75-5.42s3.64-2.86,3.11-4.58c-.34-1.13-1.39-.77-2.14-1.37-1.55-1.23-.78-.75-1.59-2.45-.88-1.87-2.09-3.06.24-4.73-.46-1.61-.65-4.13.44-5.51.71-.89,5-1.58,5-1.74,1-3.44-4.58-3.77-5.12-5.95,1.12-.41,4,.4,3.45-1.55-.24-.78-2.48-1.38-3.13-1.88-4.34-3.35-3-7.5-2.48-12.1.23-2.2-.6-2.85-1.3-4.65-.64-1.62.1-7,.7-8.55.37-1,2.4-2.6,1.63-3.74-1.61-2.37-3.34,4.39-5.15.56-.48-1-.38-5.47,1-6-.86.31-1.47,1.11-2.24,1.49-.35-13.4,4.62-10.95,6.9-26.54-2.44,8.65-8,17.46-8.89,19.94-1.07,3.09-1.11,6.53-2.25,9.45-2.15-.31-2.35,7-2.49,8.21a25.48,25.48,0,0,1-.83,5.51c-.67,1.9-2.31,3.18-2.86,5.16-.62,2.22.29,1.76,1.38,3.4s.84,2.05.9,4c.1,3,.21,5.74.07,8.71-.18,3.87.84,4.71,2.57,7.71,1.94,3.36-1.42,11.34-2.56,15,.61-.11,1.42.19,2,.07-.33,3.25-3,5.5-5.91,6.76-.64,3,5.63.52,7.19.78.62,3.38-1.63,5.85-4.44,7a65.06,65.06,0,0,1-15.58,4.26c-7.78,1.37-20,.72-27.92,1.06,10.42,4.24,26.4,2,31.1,1.2,4-.72,7.41-1,11.25-2.58,2.26-.91,4.57-.89,6.73-2.14-.65,6-5.4,6.29-10.43,7.4a89.87,89.87,0,0,1-12.83,2.12c-4.14.32-20.61.08-24.59-1s-10.85-.65-12.34-5.76c1,.79,9.09,2.68,9.13.66-2.67-.62-8.24-1.75-9.53-4.49-.16-.35.21-.92,0-1.29-.1-.16-1.14-.91-1.14-.77,0-.47.36-3.09.73-3.4.72-.63,2.44.37,3.37.29-.07-2.2-2.92-2.35-3-4.48,0-3,2.28-.91,3.81-1.06.11-1.52-2.21-3.31-3.11-4.38a5.44,5.44,0,0,1-1.17-4.67,20.91,20.91,0,0,0,.34-5.42c-.18-1.68-.41-3.63.37-5.22,1.6-.33,2.18,2.83,4.1,1.84a30.24,30.24,0,0,1-1.89-6.52c-.21-.87-.93-1.84-1-2.64-.32-2.55,2.65-4.09,2.08-7.24a24.17,24.17,0,0,0-3-7.38c-2.61-4.55-1.44-9.85-2.42-14.73-.94-4.7-3.58-8.56-5-13.09-1-3.31-4.49-12.12-5.57-16.61-.31,3.69,1.83,11.37,2,12,1.13,4.55,3.45,9.13,3.72,13.83-5,.6-6.24-8.47-10.25-9.73.3,1.92,7.48,15.63,6.68,15.79-4,.8-5-5.47-8.25-6.43.52,2.89,3.17,6.65,5.35,8.52,1,.89,2.83,1.3,3.29,2.56.67,1.82-1.07,5.09-1.26,7-.29,2.91-.58,5.82-1.08,8.7-.25,1.46-.36,3.23-1.17,4.52-.91,1.47-3,1.39-3.8,2.8-1.62,2.87,4.26,1,5.38.78-.36,1.19-2.08,1.71-2.69,2.89a5.49,5.49,0,0,0,2.52-.3c-.42,2-2.44,3.64-2.9,5.66,1.15.09,2-1,2.92-1.54,1,.91-.53,3.71-.87,4.68-.71,2-.41,3.71-.51,5.84a31.61,31.61,0,0,0,.34,8.36A14.43,14.43,0,0,1,502,396c-.32,1.22-.12,2.63-.57,3.77s-1.55,1.76-2,2.66c1.13.09,2.11-.37,2.41.82.13.52-.53,1.8-.4,2.62.19,1.16,1,2.53.78,3.73-.41,2.12-1.77,1.12-3.36,1.66-1.77.61-3.92,2.87-4.48-.08-.5-2.67-.73-5.14,2.47-4.91,1.06.08,2.86.17,3.7-.49,0-1-2.23-.71-3-.91-2.39-.61-5.45-2.73-6.22-5.17-.19-.62-.64-3.66.32-3.93.7-.2,1.56,1.29,1.86,1.78.61,1,1.13,2.6,2.62,2.27-.24-2.23-1.49-4.14-2.69-6a11.29,11.29,0,0,1-1.49-2.46c-.37-1.13-.2-2.37-.6-3.51-.61-1.68-1.78-4.18-1.25-6,1.54.26,1.47,3.5,3.26,3.27,2.12-.27-2.68-7.86-3-8.61-1-2.54-.48-4.34-.17-6.94.37-3.12,1.49-6.15,1-9.33-.23-1.56-3.27-5.21-1.93-6.64s3.08,2.52,4.59,2.54c.4-3.68-7.14-6.33-4.31-10.52a18.18,18.18,0,0,1,1.36,2.66c.84,2,2.16,5.21,4.12,6.32.37-3.87-1.34-8.09-3.45-11.24-1-1.44-2.26-2.71-2.32-4.51a13.34,13.34,0,0,1,.43-3.72c.1-.36.22-1.08.59-1.28a2.41,2.41,0,0,1,.7-.07c1.59-1.67-.27-5.58.44-7.77a24.56,24.56,0,0,0,1-8c0-1.29-.58-6.48,1.83-5.87,1.5.38,2,2.57,2.79,3.7,1.08,1.58,2.44,2.28,4,3.33a6.64,6.64,0,0,0-.65-1.82c-.68-2.15-.92-3.64-2.22-5.52s-2.88-2.81-3.22-5.44a13.51,13.51,0,0,1,.43-4.44c.31-1.49,1.11-2.71,1.41-4.17a17.28,17.28,0,0,0-3.07,7.77c-.16,1,.32,1.82.15,2.76a32.86,32.86,0,0,1-1.19,3.09c-.5,1.81-.62,4.2-.93,6.13-.37,2.29-.24,4.69-1,6.88a22.6,22.6,0,0,0-1.19,7.9c.09,2.32-.77,3.53-1.2,5.81-.32,1.71.63,3.46.53,5.2-.12,2.15-.91,4.07-.55,6.27a1.87,1.87,0,0,0,.13.42c1.08,2.43-.22,1.89-.4,4.21-.15,1.89,1.62,3.87,1.65,6,0,2.78-.47,5.53-.66,8.3-.13,1.78-1,5.23-.5,6.9.32,1.15,1.22,1.2,1.27,2.51,0,1-.85,1.54-1,2.4-.25,1.41.55,2.88.79,4.22.28,1.55-.28,8,1.45,8.23.12,2.21-.67,4.37-.54,6.56.15,2.55,1.82,3,2.76,4.89,1.39,2.75-1.65,7.49.75,9.89,1.91,1.91,10.37-1.27,11-1.9,1-1-.31-5.84-.37-7.17a4.66,4.66,0,0,1,.68-3.09c.57-1,1.58-1.2,1.26-2.67-.13-.57-.89-1.09-.92-1.6,0-.71.62-1,.67-1.61a10.73,10.73,0,0,0-.24-1.74c-.2-3.58,2.45-7.9,1.52-11.23-.23-.81-1.05-1-1.09-2.32-.06-2,.77-3.84.61-5.81-.36-4.3,2.54-8.47,2.34-12.73,0-.93-.65-1.54-.64-2.4,0-1.3,1-2.45,1.23-3.7s0-2.28.2-3.42c.47-2.84.51-5.56.91-8.45.2-1.41-.56-4.08.42-5.09,2.17,2,.8,8.61,1.35,11.27.47,2.27,0,4.15-.08,6.42-.12,2.46,0,4-.66,6.34s-.29,4.36-.18,6.6c.19,3.92-1.22,7.64-1.06,11.61,0,1.08.69,2.22.63,3-.08,1.24-.92,2-1.27,3.19-.59,2,.76,3.57,1,5.49s-1.06,3.42-1,5.32c0,2.36,1.48,3.5.61,6.13-.64,1.9.63,4,1.9,5.71s25,1.91,29.84,1.91c3.38.84,32-.85,34.7-3.6,1.44-1.44,1.19-3.38,1-5.22-.21-2.14.25-2.78.91-4.81.85-2.61-1.13-5.24-.68-8a11.62,11.62,0,0,0,0-4.7c-.6-2-.23-3.91-.29-6-.05-1.76-.66-3.4-.77-5.15-.13-2,.72-3.65,1.08-5.55.47-2.5,0-4.25-.57-6.55s.12-4.41-.16-6.62c-.23-1.74-.82-3.43-1-5.23-.21-2.43-1.51-12.26,1.8-12.89.93,2.41-.21,5.82.67,8.54a11.14,11.14,0,0,1,.53,3.35,32.29,32.29,0,0,0,1.07,5c.39,1.79-.3,3.14-.32,4.84,0,2.24.94,4.49.94,6.78a28.63,28.63,0,0,0,.12,4.5c.49,3.23-.78,6.63.2,9.79.88,2.85.39,5.79.38,8.7,0,2.57.79,3.38,1.64,5.56,1,2.47-1.79,5-1.33,7.24.34,1.66,1.77,2.42,1.87,4.31s-1,4.17-.4,6.08c.42,1.48,8.25,3.39,9.94,2.54,1.25-.62,1.1-3.1,1.46-4.22a49.38,49.38,0,0,1,2.17-5.29,6,6,0,0,0,.68-4.45,3.85,3.85,0,0,1-.11-2c.16-.78.83-1.3.9-2.26.26-3.84.66-7.7.83-11.58,0-1.15-.3-2.42-.27-3.47,0-1.3.66-1.92.92-3.19s-.26-2.39.09-3.68A18.06,18.06,0,0,0,601.33,368.15Z" fill="#bb2a29"/><path d="M488.3,346.9c0-.31.09-.62.15-.94A2.47,2.47,0,0,0,488.3,346.9Z" fill="#951918"/><path d="M492.1,348.8c.06-1.87-1.29-3.66-2-5.33a13.6,13.6,0,0,1-.46-8.34c.1-.36.22-1.08.59-1.28a2.41,2.41,0,0,1,.7-.07c1.59-1.67-.27-5.58.44-7.77a24.56,24.56,0,0,0,1-8c0-1.2-.39-7.53,1.53-7.52.78,0,1.66,1.66,2.42,1.94-.21-1.46-1.53-2.57-2-4a8.5,8.5,0,0,1-.19-3.37,14.69,14.69,0,0,1,.72-3.41c.48-1.34,1.54-2.42,1.83-3.85a17.28,17.28,0,0,0-3.07,7.77c-.16,1,.32,1.82.15,2.76a32.86,32.86,0,0,1-1.19,3.09c-.5,1.81-.62,4.2-.93,6.13-.37,2.29-.24,4.69-1,6.88a22.6,22.6,0,0,0-1.19,7.9c.09,2.32-.77,3.53-1.2,5.81-.32,1.71.63,3.46.53,5.2a22.33,22.33,0,0,1-.37,2.62,2,2,0,0,1,.54-.77C490.11,346.26,490.82,347.86,492.1,348.8Z" fill="#951918"/><path d="M601.33,368.15c-.21-1.36-1-2.45-.6-4.06,1-4,.66-8,.24-12.07a50.83,50.83,0,0,1-.53-6.27c.06-2.55.72-5,.85-7.57a49.06,49.06,0,0,0-.63-7.45c-.56-5.34-.54-11.12-2-16.31-.44-1.6-1.3-3-1.67-4.65-.55-2.33-.55-4.67-1.31-7-1-3-2.72-4.21-2.73-4.72,0,1.67,1.3,2.1,1.89,3.52a20.57,20.57,0,0,1,1.38,6.58c.16,2.38-1.6,4.44-2.15,6.7.86-.48,1.65-2.68,2.5-2.78,1.32-.15,2.42,6.71,2.5,7.69.31,3.67,1.13,7.3,1.22,11,0,1.63,0,3.2.09,4.84a27.52,27.52,0,0,1-.2,5.52,12.55,12.55,0,0,1-1,3.87c-.47.93-1.58,2-1.31,3.12,1-.39,1.47-1.23,2,0,.76,1.72.76,4.05.91,5.9.21,2.46.53,5.51-1,7.66-.36.52-3.05,2.61-2.56,3s1.29-.76,1.84-.58,1,1.65,1.18,2.25a11.51,11.51,0,0,1,.63,3.53c0,2.58-.7,5.2-.89,7.78-.22,2.89-2.76,4.65-4.6,6.56.52-.35,1.19-.3,1.77-.63s1-.83,1.5-.9a45.61,45.61,0,0,1,.08,5,22,22,0,0,1-1.74,8.78c-.47,1.08-.65,2.53-1.6,3.32s-2,.82-2.87,1.61a17.2,17.2,0,0,0,2.5-.25c.82,0,1.65.34,2.42.28a10.08,10.08,0,0,1-1.42,5.33c-.23.45-.45.93-.7,1.39-2.85.76-9.19-2.06-9.6-2.48a19.74,19.74,0,0,1-2.53-3.31c-.37-.8-.16-2.54.84-2.9s1.66,1.35,2.06,2a8.14,8.14,0,0,0-.49-3.26,41.14,41.14,0,0,0-1.76-5c-.56-1.26-1.39-3.62-.48-4.92.69.54.77,1.64,1.43,2.24a17.32,17.32,0,0,0-1-3.67c-.61-1.95-.55-4-1.28-5.87s-.06-4,.24-6-.22-3.82.1-5.72a27.93,27.93,0,0,0,.41-3.86,11.55,11.55,0,0,1,.08-2.94c.65.06,1.19.57,1.88.58-.38-.88-.85-1.7-1.29-2.56s-2.45-3.45-1.46-4.28c.71-.59,1.88,1,2.33,1.39a8.31,8.31,0,0,0,2.94,1.73,31.72,31.72,0,0,0-2.87-3.26c-2-2.3-3.63-4.48-4.24-7.55a22.76,22.76,0,0,1-.4-6.05,20,20,0,0,1,.35-2.55A1.65,1.65,0,0,1,581,339c.06-.06.83-.5.84-.42-.1-1-1.61-.67-1.63-1.94a6.19,6.19,0,0,1,1.25-2.95c.41-.7.81-1.38,1.27-2s1.32-1.39,1.36-2.07c-.72,0-1.71,1.27-2.2,1.77-.9.9-1.64,2-2.45,3-.11-1.95.37-3.86.23-5.84-.73,2.2-.83,4.78-1.63,6.83a69.64,69.64,0,0,1,.5-9.36c.24-1.88.53-3.76.82-5.63.39-2.44.71-5,1.31-7.36.16-.64,5.94-13.22,6.77-20.53-1.05,6.28-7.57,21.83-8,22.11-.64,2.42-2.23,8.41-2.72,11a46.52,46.52,0,0,0-.85,6.65,40.29,40.29,0,0,0,.4,4.9c-.78.43-3.21,1.39-3.08,2.51.9.14,1.76-.56,2.66-.49-.59,1.05-1.34,2-1.91,3.1-.46.88-1.78,2.52-1.62,3.54,1.44-.06,1.92-1.76,2.83-2.49.37,1.29.11,2.77.36,4.1.34,1.77.45,3.53.69,5.3a26,26,0,0,1,.52,3.49c0,2.62-.65,5.2-.61,7.85a11.13,11.13,0,0,0,.85-2.28,16.33,16.33,0,0,1,.75,4.09c.29,2.41-.59,4.77-1.3,7-.31,1-.57,2-.85,3-.33,1.22-1.11,2.65-1,3.92.69,0,.94-.88,1.2-1.39s1-1.18,1-1.75c.59.65.31,1.71.32,2.51a29.32,29.32,0,0,1-.31,6,8.71,8.71,0,0,1-.79,2.44c-.37.66-1.16,1.33-1,2.15.56-.3,2-1.42,2.57-1.36-.1,2.4.12,5-.63,7.33-2,6.14-10.21,6.85-15.5,7.78-6.83,1.2-31,5.75-50.24-2.75a4.14,4.14,0,0,1-.49-2.37c.18-.85.82-1.62,1.09-2.46.68-.1,1.12.72,1.87.58,0-.76-.75-1.65-1.08-2.3-1.29-2.52-2.61-6-.37-8.43,1.08.91,2,2.65,3.53,2.68a9,9,0,0,0-1.76-3.62c-.74-1.15-2-2.39-2.26-3.75a12.22,12.22,0,0,1,0-3.14c.1-1.26.48-2.46.54-3.72s0-2.51.09-3.75a13.8,13.8,0,0,1,.08-3.09c.68-2,3.28,1.51,4.44,1.94,0-1-1.27-2.09-1.8-2.92a13.55,13.55,0,0,1-1.48-3.18,6,6,0,0,1,0-2.67c.18-1.78-.13-3.87.47-5.57.53.41.78,1.64,1.46,1.7a10.09,10.09,0,0,0-.62-3.21,12.64,12.64,0,0,1-.49-3.5c.94,1.18,1.39,3.2,2.58,4.12.19-1.08-.83-2.31-1.22-3.28a21.1,21.1,0,0,1-1.88-6.69,13.51,13.51,0,0,0-.54-2.92,44.06,44.06,0,0,1-1.07-8.09c-.27-3.16-1.77-6.58-2.85-9.54-.55-1.5-1.32-2.9-1.86-4.41a23.9,23.9,0,0,1-.7-2.37c-.16-.6-5.12-12.62-5.24-23.37-.67,9.64,5.53,25.84,6.34,28,1.32,3.58,4.23,8.24,2.79,12.21-.73,2-2.3-.17-3-1.11-1-1.31-1.89-2.65-2.87-4-.86-1.14-2-2-2.76-3.19-.51-.79-1-2.43-1.83-2.89.08,1.18,1.16,2.57,1.8,3.54a43.16,43.16,0,0,1,3.92,6.5,9.17,9.17,0,0,0,2,3c.65.66,2.17,2.17,2,3.18-1,.45-3.53-.8-4.5-1.19a12.22,12.22,0,0,1-3.6-2.72c-.33-.31-2.8-2.2-2.69-2.64-.05.7.79,1.86,1.19,2.43,1.47,2.13,3.79,3.29,5.85,4.75a7.53,7.53,0,0,1,2.53,2.39,7.9,7.9,0,0,1,.38,3.86c-.1,2.16-.72,4.22-.87,6.36-.18,2.36-.5,5.13-2.27,6.9a12.65,12.65,0,0,1-3.4,2.18c-.82.41-2.72,1.74-3.63,1.68a21.66,21.66,0,0,0,7.95-1.3c-1.1,1.33-2.74,2.28-3.76,3.74a8.51,8.51,0,0,0,4.33-2.36c-.84,1.33-1.59,2.69-2.52,3.93-.65.88-2.69,2.53-2.61,3.58,2.73-1.55,4.32-3.53,6.18-5.92a39.64,39.64,0,0,1-1.34,5c-1,3-.29,6.24-1.24,9.19-.42,1.29-.87,2.5-1.22,3.78s-1.16,3.06-1,4.33c1.38-.65,1.86-2.78,2.92-3.76.87,1.27.08,3-.19,4.28-.55,2.53-.53,5.15-1.09,7.66a8.19,8.19,0,0,1-1.71,3.39c-.54.7-2.14,1.95-2.1,2.77a3.49,3.49,0,0,0,3.5-2,11.38,11.38,0,0,1-1.12,3.93,4.72,4.72,0,0,1-2.67,2.47,10.08,10.08,0,0,1-6.33-.93,9.88,9.88,0,0,1-3.5-4c-.71-1.37-.86-5.22.88-5.93,0-1.13-1.24-2-1.65-3a17,17,0,0,1-.77-4.77,19.71,19.71,0,0,0-.36-3.25,3.84,3.84,0,0,1,.12-3.15c1-.3,1.71.61,2.26,1.31a23.31,23.31,0,0,0-1.45-3.89,16.2,16.2,0,0,1-1.14-9.8c.23-1.55.56-3.24.87-4.81.13,0,.23.1.36.11.7-2-.6-4-1.35-5.76a6.75,6.75,0,0,1-.78-3.1c.07-1.55.5-1.23,1.86-1.57.11-1.5-1.83-4-1.88-6a9.09,9.09,0,0,0,0,2.71,1.87,1.87,0,0,0,.13.42c1.08,2.43-.22,1.89-.4,4.21-.15,1.89,1.62,3.87,1.65,6,0,2.78-.47,5.53-.66,8.3-.13,1.78-1,5.23-.5,6.9.32,1.15,1.22,1.2,1.27,2.51,0,1-.85,1.54-1,2.4-.25,1.41.55,2.88.79,4.22.28,1.55-.28,8,1.45,8.23.12,2.21-.67,4.37-.54,6.56.15,2.55,1.82,3,2.76,4.89,1.39,2.75-1.65,7.49.75,9.89,1.91,1.91,10.37-1.27,11-1.9,1-1-.31-5.84-.37-7.17a4.66,4.66,0,0,1,.68-3.09c.57-1,1.58-1.2,1.26-2.67-.13-.57-.89-1.09-.92-1.6,0-.71.62-1,.67-1.61a10.73,10.73,0,0,0-.24-1.74c-.2-3.58,2.45-7.9,1.52-11.23-.23-.81-1.05-1-1.09-2.32-.06-2,.77-3.84.61-5.81-.36-4.3,2.54-8.47,2.34-12.73,0-.93-.65-1.54-.64-2.4,0-1.3,1-2.45,1.23-3.7s0-2.28.2-3.42c.47-2.84.51-5.56.91-8.45.2-1.41-.56-4.08.42-5.09,2.17,2,.8,8.61,1.35,11.27.47,2.27,0,4.15-.08,6.42-.12,2.46,0,4-.66,6.34s-.29,4.36-.18,6.6c.19,3.92-1.22,7.64-1.06,11.61,0,1.08.69,2.22.63,3-.08,1.24-.92,2-1.27,3.19-.59,2,.76,3.57,1,5.49s-1.06,3.42-1,5.32c0,2.36,1.48,3.5.61,6.13-.64,1.9.63,4,1.9,5.71s25,1.91,29.84,1.91c3.38.84,32-.85,34.7-3.6,1.44-1.44,1.19-3.38,1-5.22-.21-2.14.25-2.78.91-4.81.85-2.61-1.13-5.24-.68-8a11.62,11.62,0,0,0,0-4.7c-.6-2-.23-3.91-.29-6-.05-1.76-.66-3.4-.77-5.15-.13-2,.72-3.65,1.08-5.55.47-2.5,0-4.25-.57-6.55s.12-4.41-.16-6.62c-.23-1.74-.82-3.43-1-5.23-.21-2.43-1.51-12.26,1.8-12.89.93,2.41-.21,5.82.67,8.54a11.14,11.14,0,0,1,.53,3.35,32.29,32.29,0,0,0,1.07,5c.39,1.79-.3,3.14-.32,4.84,0,2.24.94,4.49.94,6.78a28.63,28.63,0,0,0,.12,4.5c.49,3.23-.78,6.63.2,9.79.88,2.85.39,5.79.38,8.7,0,2.57.79,3.38,1.64,5.56,1,2.47-1.79,5-1.33,7.24.34,1.66,1.77,2.42,1.87,4.31s-1,4.17-.4,6.08c.42,1.48,8.25,3.39,9.94,2.54,1.25-.62,1.1-3.1,1.46-4.22a49.38,49.38,0,0,1,2.17-5.29,6,6,0,0,0,.68-4.45,3.85,3.85,0,0,1-.11-2c.16-.78.83-1.3.9-2.26.26-3.84.66-7.7.83-11.58,0-1.15-.3-2.42-.27-3.47,0-1.3.66-1.92.92-3.19s-.26-2.39.09-3.68A18.06,18.06,0,0,0,601.33,368.15ZM504.43,410c-.74,3.36-5.95,4.91-8.79,3.89-3.32-1.19-2-6-1.62-8.59,1,.59,5.53,1.41,8.35-.15.35-.13.68-.27.93-.39.31,1.14.6,2.31.82,3.44A5.09,5.09,0,0,1,504.43,410Zm73.27-6.54a5.18,5.18,0,0,1-.76,4.06c-1.49,1.89-4,2.13-6.18,2.47-4,.61-8,.73-12,1.19a82.25,82.25,0,0,1-11.84.69c-1.63-.06-3.24-.28-4.87-.25-1.81,0-3.6.21-5.41.15a46.79,46.79,0,0,0-5.16-.13,25.7,25.7,0,0,1-9-.85c-3-.94-6.34-.28-8.68-2.95-.43-.49-2-1.86-2-2.51,0-1,1.42-.34,2-.06-.13-.68-.82-1.2-1.15-1.8s-1-1.69-1.5-2.7c12.19,6.67,28.72,5.39,30.31,5.3,6.51-.38,17.25-1.23,23.63-2.51a52,52,0,0,0,7.88-2.42c1.48-.57,2.93-1.64,4.46-2C577.5,400.6,577.52,402,577.7,403.45Zm15.94,7.69c.27,0,.57.05.84,0-.47,1.16-1,2.57-2.13,3.18-1.87,1-5.31,0-6.63-1.54-.54-.63-1.72-7.35.07-6.64,5.63,2.21,8.29,2.59,9.5,2.13a7.91,7.91,0,0,1-.48.79C594.43,409.63,593.21,410.4,593.64,411.14Z" fill="#951918"/><path d="M579.5,314.26c-.07.23-.08.33,0,.3C579.76,313.41,579.85,313.06,579.5,314.26Z" fill="#951918"/><path d="M592.72,415.65c-2.81,0-8.45-1.51-8.86-2.94A8,8,0,0,1,584,409a11.51,11.51,0,0,0,.27-2.47,4.43,4.43,0,0,0-.93-2.31,5.67,5.67,0,0,1-.94-2,6.06,6.06,0,0,1,.74-3.39c.54-1.26,1.09-2.56.61-3.8-.22-.57-.44-1-.65-1.49a8.49,8.49,0,0,1-1-4.17c0-.77,0-1.54.07-2.29a18.25,18.25,0,0,0-.44-6.33,14.57,14.57,0,0,1-.25-5.58,17.79,17.79,0,0,0,0-4.25,18.56,18.56,0,0,1-.13-3.37c0-.39,0-.78,0-1.17a16.3,16.3,0,0,0-.47-3.31,15.68,15.68,0,0,1-.47-3.48,11.23,11.23,0,0,1,.23-1.9,6.89,6.89,0,0,0,.1-2.87c-.12-.53-.26-1.06-.4-1.58a17.71,17.71,0,0,1-.68-3.48l0-.23a10.15,10.15,0,0,0-.49-3.06,12.82,12.82,0,0,1-.34-4.43,11.24,11.24,0,0,0-.26-3.87c-2.52.89-1.75,8.74-1.45,11.74,0,.32.06.59.08.81a20.58,20.58,0,0,0,.51,2.84,23.8,23.8,0,0,1,.46,2.38,16.5,16.5,0,0,1,0,3,12.51,12.51,0,0,0,.14,3.61l.11.45a13.38,13.38,0,0,1,.46,6.2c-.12.67-.31,1.31-.48,1.92a10,10,0,0,0-.59,3.58,17,17,0,0,0,.37,2.37,14.89,14.89,0,0,1,.4,2.79c0,.63,0,1.25,0,1.85a11.9,11.9,0,0,0,.31,4,12,12,0,0,1,0,4.82,9,9,0,0,0,.42,3.68,7.84,7.84,0,0,1,.25,4.37c-.13.4-.25.74-.36,1.05a6.81,6.81,0,0,0-.54,3.66l0,.17c.17,1.77.37,3.77-1.11,5.25-2.42,2.43-22.75,3.9-31,3.9a20.69,20.69,0,0,1-3.91-.23c-1.11,0-28.49,0-30-2-1.27-1.69-2.64-3.89-2-6a5.08,5.08,0,0,0-.14-3.6,8.32,8.32,0,0,1-.48-2.45,6.92,6.92,0,0,1,.55-2.48,5.65,5.65,0,0,0,.48-2.8,9,9,0,0,0-.57-1.93,5.54,5.54,0,0,1-.46-3.67,7.29,7.29,0,0,1,.62-1.38,4.07,4.07,0,0,0,.64-1.76,4.28,4.28,0,0,0-.27-1.36,6.24,6.24,0,0,1-.36-1.65,28.82,28.82,0,0,1,.54-5.83,27.82,27.82,0,0,0,.52-5.78c0-.44-.05-.87-.09-1.31a15,15,0,0,1,.28-5.37,17,17,0,0,0,.6-4.76c0-.47,0-1,0-1.52s.09-1.25.14-1.84a14.62,14.62,0,0,0-.06-4.52,20.43,20.43,0,0,1-.11-3.9c.08-2.68.17-5.69-.95-7a5.8,5.8,0,0,0-.22,2.87,9,9,0,0,1,0,1.86c-.18,1.3-.29,2.58-.39,3.82-.13,1.51-.26,3.06-.52,4.63a10,10,0,0,0-.09,1.64,9.84,9.84,0,0,1-.11,1.79,6.89,6.89,0,0,1-.61,1.64,4.92,4.92,0,0,0-.62,2,2.81,2.81,0,0,0,.29,1.09,3.66,3.66,0,0,1,.35,1.3,18.38,18.38,0,0,1-1.19,6.26,17.53,17.53,0,0,0-1.15,6.46,11.68,11.68,0,0,1-.3,3.13,12.2,12.2,0,0,0-.31,2.69,2,2,0,0,0,.57,1.39,2.33,2.33,0,0,1,.51.87c.53,1.92-.07,4.15-.66,6.31a16.43,16.43,0,0,0-.85,5,2.93,2.93,0,0,0,.12.68,3.59,3.59,0,0,1,.12,1.1,1.56,1.56,0,0,1-.38.83,1.14,1.14,0,0,0-.29.73,1.54,1.54,0,0,0,.39.67,2.28,2.28,0,0,1,.52.9,2,2,0,0,1-.68,2.09,3.6,3.6,0,0,0-.6.76,4.32,4.32,0,0,0-.65,3,17.27,17.27,0,0,0,.27,1.76c.47,2.61.79,4.83,0,5.6-.56.56-5.8,2.58-9.06,2.58a3.2,3.2,0,0,1-2.31-.68c-1.42-1.42-1.07-3.55-.74-5.61.27-1.64.52-3.19-.06-4.34a7.08,7.08,0,0,0-1.19-1.62,5,5,0,0,1-1.6-3.38,16.82,16.82,0,0,1,.27-3.33,17.19,17.19,0,0,0,.28-3c-1.26-.51-1.31-3.68-1.36-6.25a15.73,15.73,0,0,0-.1-2.14,9.72,9.72,0,0,0-.36-1.35,6.56,6.56,0,0,1-.43-3,3.08,3.08,0,0,1,.51-1.08,2.06,2.06,0,0,0,.49-1.26,1.79,1.79,0,0,0-.57-1.27,2.9,2.9,0,0,1-.69-1.19,14.64,14.64,0,0,1,.23-5c.11-.76.22-1.47.26-2,.07-1,.18-2,.29-3a39.65,39.65,0,0,0,.37-5.24,8.21,8.21,0,0,0-.84-2.9,6.73,6.73,0,0,1-.81-3.1,4.18,4.18,0,0,1,.56-1.89c.28-.53.46-.85-.14-2.19a2.13,2.13,0,0,1-.15-.49,11.75,11.75,0,0,1,.24-4,19,19,0,0,0,.31-2.28,8.36,8.36,0,0,0-.29-2.31,7.42,7.42,0,0,1-.24-2.93,21.88,21.88,0,0,1,.6-2.25,9.34,9.34,0,0,0,.6-3.5,22.74,22.74,0,0,1,1.2-8,17.89,17.89,0,0,0,.7-4.27c.06-.84.14-1.71.27-2.57.11-.67.2-1.4.29-2.16a28.91,28.91,0,0,1,.65-4,9.55,9.55,0,0,1,.57-1.4,6.52,6.52,0,0,0,.61-1.66,3.53,3.53,0,0,0-.07-1.29,4.26,4.26,0,0,1-.07-1.48c.65-3.79,2.23-7.24,4.22-9.23,3.54-3.53,12-9.47,29.17-9.47H556.6c18.42,0,30.34,2.92,34.49,8.44.45.61.89,1.16,1.32,1.7a18.35,18.35,0,0,1,3.52,5.74,20.06,20.06,0,0,1,.85,4.17,28.49,28.49,0,0,0,.47,2.84,16,16,0,0,0,.87,2.46,20.85,20.85,0,0,1,.81,2.18,60.2,60.2,0,0,1,1.6,11.65c.11,1.56.23,3.17.39,4.71.07.66.15,1.33.24,2a30.63,30.63,0,0,1,.39,5.48,35.13,35.13,0,0,1-.42,3.57,31,31,0,0,0-.43,4,34.22,34.22,0,0,0,.34,4.63c.07.54.14,1.08.19,1.61.43,4.15.74,8.21-.25,12.16a4.57,4.57,0,0,0,.26,2.64,8.79,8.79,0,0,1,.35,1.32,18.56,18.56,0,0,1-.62,7,5,5,0,0,0-.06,1.81,5.76,5.76,0,0,1,0,1.85,7.16,7.16,0,0,1-.47,1.4A4.56,4.56,0,0,0,600,382a11.71,11.71,0,0,0,.13,1.59,11.9,11.9,0,0,1,.14,1.88c-.11,2.44-.31,4.91-.5,7.3q-.18,2.14-.33,4.29a3.16,3.16,0,0,1-.53,1.44,3.22,3.22,0,0,0-.38.85,2.36,2.36,0,0,0,0,1.22c0,.17.07.38.11.65a6.19,6.19,0,0,1-.7,4.6l-.07.16a47,47,0,0,0-2.08,5.1,8.74,8.74,0,0,0-.23,1.21c-.16,1.19-.36,2.66-1.36,3.16A3.36,3.36,0,0,1,592.72,415.65Zm-13.82-78,.08.2a10.93,10.93,0,0,1,.37,4.3,12.7,12.7,0,0,0,.31,4.25,10.63,10.63,0,0,1,.52,3.18l0,.24a17.77,17.77,0,0,0,.66,3.37c.15.54.29,1.07.41,1.61a7.45,7.45,0,0,1-.1,3.07,10.54,10.54,0,0,0-.22,1.82,15.25,15.25,0,0,0,.46,3.36,16.3,16.3,0,0,1,.48,3.42c0,.39,0,.79,0,1.18a18.36,18.36,0,0,0,.12,3.28,18.34,18.34,0,0,1,0,4.38,14.1,14.1,0,0,0,.23,5.38,18.83,18.83,0,0,1,.46,6.5c0,.74-.07,1.52-.07,2.27a8,8,0,0,0,1,3.95c.21.44.43.93.66,1.52.56,1.44,0,2.84-.61,4.19a5.6,5.6,0,0,0-.71,3.08,4.83,4.83,0,0,0,.86,1.78,4.85,4.85,0,0,1,1,2.58,11.49,11.49,0,0,1-.27,2.58,7.9,7.9,0,0,0-.13,3.44c.28,1,5.43,2.56,8.36,2.56a2.92,2.92,0,0,0,1.22-.18c.75-.38.93-1.7,1.08-2.77a9,9,0,0,1,.24-1.3,46.35,46.35,0,0,1,2.11-5.15l.07-.17a5.78,5.78,0,0,0,.66-4.3c0-.27-.08-.46-.11-.62a2.84,2.84,0,0,1,0-1.43,3.28,3.28,0,0,1,.43-1,2.66,2.66,0,0,0,.46-1.21c.1-1.44.21-2.87.33-4.3.2-2.39.4-4.85.5-7.28a11.17,11.17,0,0,0-.14-1.8,12.31,12.31,0,0,1-.13-1.66,5.25,5.25,0,0,1,.49-1.94,6.69,6.69,0,0,0,.44-1.31,5.64,5.64,0,0,0,0-1.69,5.45,5.45,0,0,1,.07-2,17.38,17.38,0,0,0,.6-6.82,7.91,7.91,0,0,0-.32-1.25,4.93,4.93,0,0,1-.27-2.92c1-3.87.66-7.87.23-12-.05-.53-.12-1.07-.18-1.6a33.71,33.71,0,0,1-.35-4.71,31.91,31.91,0,0,1,.44-4.06c.17-1.15.35-2.34.41-3.51a30.61,30.61,0,0,0-.38-5.39c-.09-.68-.18-1.36-.25-2-.16-1.55-.28-3.16-.39-4.72a59.73,59.73,0,0,0-1.59-11.55,18,18,0,0,0-.78-2.12,16.24,16.24,0,0,1-.9-2.54c-.22-1-.35-1.94-.47-2.89a20,20,0,0,0-.83-4.07,18.28,18.28,0,0,0-3.43-5.59c-.44-.54-.88-1.1-1.34-1.7-4-5.31-16.08-8.24-34.07-8.24H526.77c-17,0-25.32,5.84-28.8,9.32-1.92,1.91-3.44,5.26-4.08,8.95a3.87,3.87,0,0,0,.07,1.31,3.93,3.93,0,0,1,.07,1.46,7.48,7.48,0,0,1-.65,1.79,8.09,8.09,0,0,0-.53,1.32,27.24,27.24,0,0,0-.65,3.91c-.09.77-.17,1.5-.28,2.19s-.21,1.69-.28,2.53a17.29,17.29,0,0,1-.72,4.39,22.59,22.59,0,0,0-1.17,7.81,10,10,0,0,1-.62,3.68,16.83,16.83,0,0,0-.58,2.19,6.78,6.78,0,0,0,.23,2.73,9.07,9.07,0,0,1,.3,2.44,17.58,17.58,0,0,1-.32,2.34,11.16,11.16,0,0,0-.23,3.87,1.24,1.24,0,0,0,.11.36c.66,1.49.48,2,.12,2.65a3.47,3.47,0,0,0-.5,1.68,6.48,6.48,0,0,0,.76,2.86,8.3,8.3,0,0,1,.89,3.1,40.44,40.44,0,0,1-.37,5.3c-.11,1-.22,2-.3,3,0,.56-.14,1.28-.26,2a14.75,14.75,0,0,0-.24,4.76,2.36,2.36,0,0,0,.59,1,2.32,2.32,0,0,1,.69,1.59,2.57,2.57,0,0,1-.57,1.57,2.25,2.25,0,0,0-.43.88,5.93,5.93,0,0,0,.41,2.72,12.77,12.77,0,0,1,.37,1.41,15.32,15.32,0,0,1,.11,2.22c0,2.11.09,5.65,1.13,5.81l.21,0v.21a16,16,0,0,1-.28,3.33,15.85,15.85,0,0,0-.26,3.22,4.49,4.49,0,0,0,1.47,3.06,7.65,7.65,0,0,1,1.26,1.73c.66,1.31.39,3,.12,4.66-.33,2-.65,3.93.58,5.17a2.83,2.83,0,0,0,2,.52,22.94,22.94,0,0,0,8.69-2.43c.64-.64.13-3.45-.17-5.14a17.8,17.8,0,0,1-.28-1.83,4.89,4.89,0,0,1,.71-3.23,4.53,4.53,0,0,1,.68-.86,1.47,1.47,0,0,0,.55-1.62,1.78,1.78,0,0,0-.42-.69,1.9,1.9,0,0,1-.5-1,1.59,1.59,0,0,1,.39-1.06,1.2,1.2,0,0,0,.28-.58,2.73,2.73,0,0,0-.11-.93,3.33,3.33,0,0,1-.13-.77,16.71,16.71,0,0,1,.87-5.15c.57-2.09,1.16-4.25.66-6a1.91,1.91,0,0,0-.41-.68,2.47,2.47,0,0,1-.69-1.7,13.08,13.08,0,0,1,.32-2.81,11.32,11.32,0,0,0,.29-3,17.75,17.75,0,0,1,1.18-6.65,18.37,18.37,0,0,0,1.17-6.09,3.29,3.29,0,0,0-.32-1.12,3.36,3.36,0,0,1-.33-1.29,5.41,5.41,0,0,1,.67-2.22,7.17,7.17,0,0,0,.57-1.53,9.37,9.37,0,0,0,.1-1.69,10,10,0,0,1,.1-1.72c.25-1.55.38-3.1.51-4.59.11-1.25.22-2.54.4-3.85a9.64,9.64,0,0,0,0-1.76c-.1-1.34-.2-2.74.52-3.48l.17-.18.19.17c1.5,1.36,1.41,4.69,1.32,7.62a20.12,20.12,0,0,0,.1,3.79,15,15,0,0,1,.07,4.67c-.05.58-.11,1.18-.14,1.81s0,1-.05,1.52a17.4,17.4,0,0,1-.62,4.89,14.27,14.27,0,0,0-.26,5.18c0,.44.07.88.09,1.33a28,28,0,0,1-.53,5.88,28.69,28.69,0,0,0-.53,5.73,6.59,6.59,0,0,0,.33,1.52,4.37,4.37,0,0,1,.3,1.55,4.64,4.64,0,0,1-.7,2,6.67,6.67,0,0,0-.58,1.27,5.1,5.1,0,0,0,.45,3.35,10.16,10.16,0,0,1,.6,2,6.21,6.21,0,0,1-.51,3.05,6.63,6.63,0,0,0-.52,2.3,7.51,7.51,0,0,0,.46,2.3,5.7,5.7,0,0,1,.13,3.92c-.61,1.86.77,4,1.87,5.48.93,1.24,17.88,1.8,29.63,1.8a19.78,19.78,0,0,0,3.84.22c9,0,28.55-1.62,30.67-3.74,1.31-1.31,1.13-3.1,1-4.84l0-.17a7.43,7.43,0,0,1,.57-3.89c.11-.3.23-.64.35-1a7.27,7.27,0,0,0-.26-4.08,9.61,9.61,0,0,1-.42-3.89,11.63,11.63,0,0,0,0-4.59,12.59,12.59,0,0,1-.33-4.2c0-.59.05-1.2,0-1.82a15,15,0,0,0-.39-2.69,17.86,17.86,0,0,1-.38-2.45,10.85,10.85,0,0,1,.61-3.75c.17-.61.35-1.23.47-1.87a12.93,12.93,0,0,0-.46-6l-.1-.45a12.88,12.88,0,0,1-.16-3.76,16.3,16.3,0,0,0,0-2.88c-.1-.78-.28-1.57-.45-2.33a20.93,20.93,0,0,1-.53-2.92c0-.21,0-.48-.07-.8-.35-3.51-1.17-11.75,2.08-12.36Z" fill="#631f1f"/><path d="M565.5,284.84c0,7.43-9,13.46-20,13.46s-20-6-20-13.46c0-1.73-2.52-5.75-3.23-10.88-2.34-16.88-2-45.86,23.24-45.86s25.92,27.49,23.5,44.52C568.18,278.39,565.5,283,565.5,284.84Z" fill="#cd3636"/><path d="M565.5,284.84c0,7.43-9,13.46-20,13.46s-20-6-20-13.46c0-1.73-2.52-5.75-3.23-10.88-2.34-16.88-2-45.86,23.24-45.86s25.92,27.49,23.5,44.52C568.18,278.39,565.5,283,565.5,284.84Z" fill="#cd3636"/><path d="M562,259.87c0-14.63-7.43-20.54-16.61-20.54s-16.62,5.91-16.62,20.54a85.2,85.2,0,0,0,2.93,21.56c3,10,9.48,3.53,13.69,16.17,3.51-12.64,10.71-6.32,13.76-16.38C561.07,274.83,562,265.55,562,259.87Z" fill="#591d1c"/><path d="M545.38,236.56c5.35,0,10.19,1.44,13.73,4.64-3.18-4.54-8.15-6.55-13.73-6.55s-10.55,2-13.73,6.55C535.19,238,540,236.56,545.38,236.56Z" fill="#c6322f"/><path d="M560.52,243.24c2.47,3.67,3.94,8.79,3.94,15.59a87.19,87.19,0,0,1-2.71,21.93,18.9,18.9,0,0,1-2.3,5.92c-.86,1.26-2.77,1.84-4.18,2.32a15.79,15.79,0,0,0-5.27,2.7c-1.73,1.47-2.8,3.49-4.09,5.32-.16.23-.88,1-.79,1.28.3.82,7.28-1,8-1.26a22.16,22.16,0,0,0,7.87-3.86,12.6,12.6,0,0,0,3-3.55,9.62,9.62,0,0,0,1-2.89c.19-1-.06-2.41.29-3.33,2.58-6.86,4.93-10.39,4.15-25.2C568.26,234.27,564.86,246.77,560.52,243.24Z" fill="#c6322f"/><path d="M555.65,290.17a30.81,30.81,0,0,0,2.75-1.55,6.87,6.87,0,0,0,2.55-3.38,30.18,30.18,0,0,0,1.52-4.72A92.63,92.63,0,0,0,565,258.83a31.75,31.75,0,0,0-2.29-12.68c2.9,3.6,4.37,8.45,4.37,14.48,0,2,0,3.93-.06,5.89,0,.73-.8,3.49-.24,4.11s.68-.49,1-.76c.64,1.74,1.39-1.52,1.71-1.65a8.29,8.29,0,0,1-.47,4.52c-.46,1.55-.64,3.17-1,4.73-.43,1.76-1.4,3.34-1.94,5.1-.65,2.15-.43,4.3-1.4,6.36a12.5,12.5,0,0,1-3.92,4.62,17.11,17.11,0,0,1-5.43,3.17,20.67,20.67,0,0,1-5.46,1.28c-1.07,0-2.29.53-3.34.28a12,12,0,0,1,1.83-1.52,8.86,8.86,0,0,0,1.78-2,17.82,17.82,0,0,1,4.51-4C554.9,290.58,555.27,290.37,555.65,290.17Z" fill="#bb2a29"/><path d="M560.14,287.36a14.73,14.73,0,0,0,2-4.28c2.18-7.06,3.33-17.54,3.33-24.25a37.38,37.38,0,0,0-.92-8.58c1.3,2.91,1.46,6.17,1.46,10.16,0,6.26-1.12,16.11-3.59,22.65A11,11,0,0,1,560.14,287.36Z" fill="#951918"/><path d="M530.5,243.24c-2.46,3.67-3.93,8.79-3.93,15.59a87.64,87.64,0,0,0,2.7,21.93,18.92,18.92,0,0,0,2.31,5.92c.85,1.26,2.77,1.84,4.18,2.32a15.65,15.65,0,0,1,5.26,2.7c1.73,1.47,2.81,3.49,4.09,5.32.16.23.89,1,.79,1.28-.3.82-7.27-1-8-1.26a22.16,22.16,0,0,1-7.87-3.86,12.47,12.47,0,0,1-3-3.55,9.6,9.6,0,0,1-1-2.89c-.19-1,0-2.41-.29-3.33-2.58-6.86-4.16-10.37-4.16-25.2C521.5,247.17,526.16,246.77,530.5,243.24Z" fill="#c6322f"/><path d="M535.38,290.17a30.81,30.81,0,0,1-2.75-1.55,6.87,6.87,0,0,1-2.55-3.38,29.17,29.17,0,0,1-1.52-4.72,92.1,92.1,0,0,1-2.51-21.69,31.76,31.76,0,0,1,2.28-12.68c-2.9,3.6-4.36,8.45-4.36,14.48,0,2,0,3.93.06,5.89,0,.73.79,3.49.24,4.11s-.68-.49-.95-.76c-.64,1.74-1.4-1.52-1.71-1.65a8.1,8.1,0,0,0,.47,4.52c.46,1.55.64,3.17,1,4.73.44,1.76,1.41,3.34,1.94,5.1.66,2.15.44,4.3,1.4,6.36a12.53,12.53,0,0,0,3.93,4.62,17,17,0,0,0,5.43,3.17,20.69,20.69,0,0,0,5.45,1.28c1.08,0,2.3.53,3.35.28a12.55,12.55,0,0,0-1.83-1.52,8.62,8.62,0,0,1-1.78-2,18.17,18.17,0,0,0-4.51-4C536.13,290.58,535.75,290.37,535.38,290.17Z" fill="#bb2a29"/><path d="M530.89,287.36a15,15,0,0,1-2-4.28c-2.18-7.06-3.32-17.54-3.32-24.25a38,38,0,0,1,.91-8.58c-1.3,2.91-1.46,6.17-1.46,10.16,0,6.26,1.13,16.11,3.59,22.65A11.14,11.14,0,0,0,530.89,287.36Z" fill="#951918"/><path d="M567,287.72c-.41,0-1.5-.12-1.74-.17-1.2-.23.13-.65.24-1.74a10.47,10.47,0,0,0,.15-1.36c-1.32,1.31-1.56,3.68-2.69,5.17a24.42,24.42,0,0,1-3,3.26,15.88,15.88,0,0,1-7.84,3.74c-1.44.32-2.86.74-4.3,1a5.4,5.4,0,0,0-2.26,1.06,5.31,5.31,0,0,0-2.25-1.06c-1.45-.22-2.87-.64-4.3-1a27.23,27.23,0,0,1-4.84-1.45,13.59,13.59,0,0,1-6.3-5,14.44,14.44,0,0,1-1.22-3.12c-.08-.24-.16-.48-.25-.72a5.65,5.65,0,0,0-.94-2,16.68,16.68,0,0,0,.32,2.72c.12.42-2.12.13-3.17.42.45,1.27,3.47,5.25,4.31,6.29,1.74,2.18,5.32,3.45,7.85,4.56a29.21,29.21,0,0,0,13.05,2.44,20.16,20.16,0,0,0,7.17-1.69,19.31,19.31,0,0,0,3.77-2.28c.53-.42,1.17-.79,1.72-1.21a16.44,16.44,0,0,0,3-2.73C564.66,291.5,567.48,289.73,567,287.72Z" fill="#bb2a29"/><path d="M545.5,298.56c-11.18,0-20.27-6.16-20.27-13.72a11.83,11.83,0,0,0-1-3.21A33.19,33.19,0,0,1,522,274c-1.41-10.19-2.45-28.82,6.51-39.11,4.07-4.67,9.79-7,17-7,7.42,0,13.27,2.41,17.41,7.17,8.75,10.08,7.73,27.91,6.35,37.64a40.78,40.78,0,0,1-2.43,8.59,13.75,13.75,0,0,0-1.07,3.6C565.76,292.4,556.67,298.56,545.5,298.56Zm0-70.2c-7,0-12.63,2.31-16.6,6.86-8.82,10.14-7.79,28.6-6.38,38.7a32.29,32.29,0,0,0,2.2,7.52,12,12,0,0,1,1,3.4c0,7.28,8.86,13.2,19.75,13.2s19.75-5.92,19.75-13.2a13.87,13.87,0,0,1,1.09-3.78,40.1,40.1,0,0,0,2.41-8.48c1.37-9.64,2.38-27.31-6.24-37.23C558.49,230.71,552.76,228.36,545.5,228.36Z" fill="#631f1f"/><path d="M545.38,238c-9.68,0-17.52,6-17.52,20.94,0,5.86,1,15.42,3.08,22,1.07,3.39,2.54,4.92,4.19,5.93-1.35-1-2.54-2.51-3.44-5.45a85.2,85.2,0,0,1-2.93-21.56c0-14.63,7.44-20.54,16.62-20.54S562,245.24,562,259.87c0,5.68-.92,15-2.85,21.35a9.85,9.85,0,0,1-3.46,5.44c1.68-1.05,3.17-2.61,4.21-5.93,2-6.5,3-16,3-21.76C562.9,244.06,555.06,238,545.38,238Z" fill="#bb2a29"/><path d="M543.55,294.71c.42.75.56,1.47.31,1.61s-.8-.36-1.22-1.11-.55-1.47-.3-1.61S543.13,294,543.55,294.71Z" fill="#591d1c"/><path d="M547.12,294.71c-.42.75-.55,1.47-.3,1.61s.79-.36,1.21-1.11.56-1.47.31-1.61S547.54,294,547.12,294.71Z" fill="#591d1c"/><path d="M543.42,326.81a.42.42,0,0,1-.42.43h0a.42.42,0,0,1-.42-.43v-4.09a.42.42,0,0,1,.42-.42h0a.42.42,0,0,1,.42.42Z" fill="#591d1c"/><path d="M543.89,323.7c-.06.39-1.6.39-1.6,0V294.28l1.6,1.67A99,99,0,0,1,543.89,323.7Z" fill="#fff"/><path d="M547.34,326.81a.42.42,0,0,0,.42.43h0a.42.42,0,0,0,.42-.43v-4.09a.42.42,0,0,0-.42-.42h0a.42.42,0,0,0-.42.42Z" fill="#591d1c"/><path d="M546.87,323.7c.08.39,1.61.39,1.6,0-.44-14.51-.31-29.45-.31-29.45l-1.46,1.86S544.27,310,546.87,323.7Z" fill="#fff"/><path d="M542.62,294.62l-.33-.34V323.7c0,.11.14.2.33.24Z" fill="#eaeaea"/><path d="M548.16,294.25l-.24.3c-.52,6.1-.28,18.34.44,29.31a.21.21,0,0,0,.11-.16C548,309.19,548.16,294.25,548.16,294.25Z" fill="#eaeaea"/><path d="M546.73,369.82c-3.07.31-7.13,1.1-10.17.34-2.62-.66-5.25-3-7.31,0-1.94,2.75-2.92,6.41-4.3,9.46-1,2.28-2.6,4.47-2.88,7-.25,2.19.69,4.3.44,6.46-.3,2.62-.93,4.62,2.19,5.53a38.36,38.36,0,0,0,8.15,1.87c4.27.23,8.69.19,13,.29a53.25,53.25,0,0,0,11.21-.9c1.23-.23,2.67-.47,3.88-.57a22.31,22.31,0,0,0,3.88-.28c1.09-.27,2.47-.52,3-1.53s.14-3,.17-4.22c.07-3.8.19-7.25-1.41-10.77-1.23-2.71-2.61-5.34-3.85-8.05-1.49-3.24-1.1-5.63-5.33-5.82C553.66,368.45,550.37,369.45,546.73,369.82Z" fill="#bb2a29"/><path d="M560.84,375.31a28.36,28.36,0,0,1-1-6.58H530.31a28.36,28.36,0,0,1-1,6.58c-1.42,5.27-4.13,9.6-7.26,12.15v9.67s3.11,1.56,22.85,1.56c17.73,0,23.16-1.56,23.16-1.56v-9.67C565,384.91,562.25,380.58,560.84,375.31Z" fill="#cd3636"/><path d="M565,385.62c.07.05-2.35,6-2.64,6.46-.44.67-1.43,2-2.33,2.07-2,.24-.17-.74-1-1.56-1.16-1.07-2.27,1.35-3,1.86-1.33.95-2.06.21-3.36.25-.35,0-.85.46-1.11.43-1.22-.14-1.08-1.36-2-1.62-1.16-.31-.9,1.14-1.58,1.83s-1.48.67-2.58.6c-1.87-.12-3.49-.2-5-1.37-1-.79-2.18-3.12-3.64-3-.22,1,.38,1.61.29,2.54a3.07,3.07,0,0,1-3,0c-.92-.58-.84-1.65-1.81-1.82-1.28-.22-1,1-1.79,1.39a3.55,3.55,0,0,1-4.28-1.2c-1.07-2.1.84-4.73.29-6.93-.24-1,.08-1.15-1-1.09-.69,0-3.27,2.35-3.27,3v9.67s3.11,1.56,22.85,1.56c17.73,0,23.15-1.56,23.16-1.56.44-.13,0-8.65,0-9.65C567.13,386.45,566.05,386.4,565,385.62Z" fill="#c6322f"/><path d="M567.67,392c-.32.24-2,4.43-2.17,4.25a9.43,9.43,0,0,1-.78-1.2c-.68.53-1.17,1.27-1.89,1.75-1,.66-1.39.38-2.41.33-1.53-.07-4.27,2.15-4-.63-1.39.55-2.5,1.56-4,1.78a4.77,4.77,0,0,1-2.06,0c-.73-.37-.43-1-1.23-1-.58,0-1,.89-1.63.95s-1.09-.57-1.74-.57c-1.13,0-2.11.76-3.41.67-1.66-.11-1.88-1.2-3.25-1.67a1.83,1.83,0,0,0-.43,1.39,19,19,0,0,1-3.05-.39c-.9-.34-1.83-1.56-2.63-1.65,0,.63.47,1.07.61,1.65-1.31-.2-2.8.06-4.07-.31s-1.82-1.32-2.77-1.95a9.71,9.71,0,0,1-2.56-1.89c-1.63-2-1.33-4.15-1.41-6.56-1.19.08-.63,4-.63,4.93,0,.47-.35,5.08,0,5.24.16.08,3.6,1.56,22.85,1.56,17.73,0,23.15-1.56,23.16-1.56C569,396.87,567.83,392.69,567.67,392Z" fill="#bb2a29"/><path d="M544.94,399c-19.58,0-22.84-1.52-23-1.59l-.14-.07v-10l.09-.08c3.22-2.61,5.83-7,7.17-12a27.42,27.42,0,0,0,1-6.52v-.25h30.08v.25a27.91,27.91,0,0,0,1,6.52c1.35,5,4,9.4,7.17,12l.1.08v10l-.19.06C568,397.44,562.51,399,544.94,399Zm-22.59-2c.8.27,5.36,1.48,22.59,1.48,15.72,0,21.8-1.24,22.9-1.5v-9.35c-3.25-2.69-5.89-7.13-7.25-12.21a28.41,28.41,0,0,1-1-6.38H530.56a28.41,28.41,0,0,1-1,6.38c-1.36,5.08-4,9.52-7.25,12.21Z" fill="#631f1f"/><polygon points="100.37 630.83 110.95 577.25 133.44 580.56 110.29 632.15 100.37 630.83" fill="#7a6640"/><polygon points="185.7 636.78 196.28 583.2 221.32 582.53 195.62 638.1 185.7 636.78" fill="#7a6640"/><polygon points="376.2 632.81 369.58 579.89 347.09 582.54 366.28 634.13 376.2 632.81" fill="#7a6640"/><path d="M65,315.07s185.84-23.53,221.71,7.63c0,0,5.29,2.94,11.17,43.5l11.76,64.09s70-10.58,93.48-1.76c0,0,21.75-1.18,20.58,69.37l-4.12,82.9-41.1,7.37L170.28,585.5S42,435.62,65,315.07Z" fill="#7a6640"/><path d="M522.16,595.21s10.22,3.37,6.78,10.26c0,0-11.66,21.72-35,30.73l.53-11.92S517.49,618.59,522.16,595.21Z" fill="#e6e7e8"/><path d="M471.69,593.15s2.35-3.14,13.52,1.76c0,0,11.76,5.49,17.64,1.37,0,0,12.25-5.19,19.31-1.07,0,0-1.33,17.78-26,29.39,0,0-34-5.72-35.81-12.05,0,0-3.53-3.92.19-8.82Z" fill="#f48225" data-secondary="true"/><path d="M471.69,593.15s2.35-3.14,13.52,1.76c0,0,11.76,5.49,17.64,1.37,0,0,12.25-5.19,19.31-1.07,0,0-1.33,17.78-26,29.39,0,0-34-5.72-35.81-12.05,0,0-3.53-3.92.19-8.82Z" opacity="0.2"/><path d="M387,611.63s3.27,2.8,9.54-1.9L394,604S386.9,608.76,387,611.63Z" fill="#686175" data-primary="true"/><path d="M401.63,639.6V622.25l25.28-9.7s4.38-2.63,4.69-4.55l-1.85-1.72s5.49-1.28,12.35,3.53c0,0,8.43,6.86,18.23,2.74a7.5,7.5,0,0,0,3.62,3.23s-20.28,16.47-40.57,15.58C423.38,631.36,408.39,631.07,401.63,639.6Z" fill="#f48225" data-secondary="true"/><path d="M394,604l7.64,18.23s22.05,5.59,25.28-9.7l-17.34-18.81Z" fill="#ffad95"/><path d="M387,611.63s-13.51-17.37-7.23-20.26l41-24.61L429,582.68S391.31,604.4,387,611.63Z" fill="#686175" data-primary="true"/><path d="M387,611.63s-13.51-17.37-7.23-20.26l41-24.61L429,582.68S391.31,604.4,387,611.63Z" opacity="0.3"/><path d="M379.73,591.37,315.06,442.74,375.87,435s7.72,1.45,13.51,24.13l31.36,107.61Z" fill="#686175" data-primary="true"/><path d="M379.73,591.37,315.06,442.74,375.87,435s7.72,1.45,13.51,24.13l31.36,107.61Z" opacity="0.2"/><path d="M240.21,479.17s42,18.61,37.75,109.53l100.5-.53L371,540.85,288.6,481.3Z" fill="#fff" opacity="0.05"/><path d="M214.5,438.83s10,11.35,10,35.79l63.71,18.76S356.77,575.86,403,600.74l38.84-33.17s-34-22.26-96.89-100.37c0,0-15.71-24.44-35.34-25.75l-71.57-6.11Z" fill="#686175" data-primary="true"/><path d="M419.9,614.68s8.23-.64,11.9-6.65l-5.88-5A108.78,108.78,0,0,0,419.9,614.68Z" fill="#686175" data-primary="true"/><path d="M425.92,603l5.68,5s3.64-2.31,10.5,1.81c0,0,9.84,7.55,18.23,2.74,0,0-3.34-3.33.19-8.82l11.17-10.58-17.36-12.89S443.34,578.26,425.92,603Z" fill="#ffad95"/><path d="M401.63,639.6s-3.82,8.52,2.65,11.46c0,0-10.88-15.29,32.63-16.46,0,0,12.64-1.18,21.46-7.65l19.1-10.87s18.23-7.35,17.94,12.34a13.73,13.73,0,0,0,.11-11,14.78,14.78,0,0,0-16.88-8.59c-3.9.83-8.83,2.79-14.69,6.91a73.62,73.62,0,0,1-29.1,14.41s-4.12,1.47-11.47,1.17C423.38,631.36,407.8,631.07,401.63,639.6Z" fill="#e6e7e8"/><path d="M495.41,628.42c-.28,28.41-55.86,25.58-55.86,25.58-30,2.65-35.27-2.94-35.27-2.94s-6.47-8.92,10.19-13.62a93,93,0,0,1,22.44-2.84s14-1.86,21.46-7.65l19.1-10.87S495.6,608.43,495.41,628.42Z" fill="#123a53"/><path d="M419.9,614.68s-23.39-8-16.37-17c0,0,30.08-36.76,41.1-30.41,0,0,9.7,3,9.7,13,0,0-9.7-.33-25.4,18.72C428.93,599,421.91,609,419.9,614.68Z" fill="#686175" data-primary="true"/><path d="M419.9,614.68s-23.39-8-16.37-17c0,0,30.08-36.76,41.1-30.41,0,0,9.7,3,9.7,13,0,0-9.7-.33-25.4,18.72C428.93,599,421.91,609,419.9,614.68Z" opacity="0.2"/><polygon points="234.75 433.03 315.5 411.18 300.62 440.79 234.75 433.03" fill="#123a53"/><polygon points="234.75 433.03 315.5 411.18 300.62 440.79 234.75 433.03" opacity="0.2"/><path d="M259.06,414.12s12.12-.92,17.05-3.82c0,0-5-1.55-6.28-12.68l-2.54-39.35s-4.23,14.29-9.07,23.33c0,0-3.32,7.64-.3,14.55C257.92,396.15,266.92,405.8,259.06,414.12Z" fill="#f48225" data-secondary="true"/><path d="M259.06,414.12s12.12-.92,17.05-3.82c0,0-5-1.55-6.28-12.68l-2.54-39.35s-4.23,14.29-9.07,23.33c0,0-3.32,7.64-.3,14.55C257.92,396.15,266.92,405.8,259.06,414.12Z" opacity="0.2"/><path d="M202,281.05s-25.67,7.53-44.53,20.64c0,0-11.28,7.78-14.22,13.66l34.69,95.54,64.67,2.35a61,61,0,0,0,16.47.88s7.64-6.47.58-18.22a18.5,18.5,0,0,1-.29-14.12s7.35-16.46,7.94-23.51l1.47,39.09s.29,9.12,7.35,12.94l31.45,17.05,7.94-16.17-20.33-16.37a5.08,5.08,0,0,1-1.85-4.55c.44-3.93.39-11.34-5-16.48a6.88,6.88,0,0,1-2-4.13l-5.85-48.42s-4.4-12.35-18.81-20.29l-20.48-14.11Z" fill="#f48225" data-secondary="true"/><path d="M214.82,248.87s1.88,20.2-12.84,32.18c0,0,27.29,32.63,34.73,44.59,0,0,6.67-16.27,4.51-38.81,0,0-16.27-7.44-18.62-25.67l-3.16-16.4Z" fill="#ffad95"/><path d="M219.47,262.34s-2.16,30.18,22.34,32.53l-.59-8Z" fill="#e37961"/><path d="M267.53,226.18a24.13,24.13,0,0,0,7-.41,15.46,15.46,0,0,0,6.37-2.82,11.63,11.63,0,0,0,2.41-2.54,12.75,12.75,0,0,0,1.54-3.17,18.86,18.86,0,0,0,.69-7.06,19.06,19.06,0,0,1-.45,7.13,13.4,13.4,0,0,1-1.46,3.31,12.51,12.51,0,0,1-2.41,2.72,16.11,16.11,0,0,1-6.52,3.16,24.84,24.84,0,0,1-7.25.68Z" fill="#123a53"/><ellipse cx="247.22" cy="241.75" rx="37.86" ry="22.46" transform="translate(-24.88 455.12) rotate(-82.46)" fill="#ffad95"/><path d="M227.31,236.2s-1,21.91,13.36,23.28c0,0,25-5.13,22.6,9.25,0,0-2.4,23.62-26.37,16.78,0,0-21.23-4.46-17.46-40.75,0,0,6.16-12.67-4.45-17.12a21.28,21.28,0,0,1,9.93-21.91s26.7-25.34,40.74-3.08c0,0,11.14-3,14.5,3.66a7.54,7.54,0,0,1,.72,2.54c.44,3.62,1,15.28-9.33,17.78a13.86,13.86,0,0,1-12.8-3.4,13.56,13.56,0,0,1-2.67-3.46s-7.54,1-13.36-1.37l-11.3,9.24S232.45,234.83,227.31,236.2Z" fill="#123a53"/><ellipse cx="214.82" cy="238.25" rx="7.02" ry="10.61" fill="#ffad95"/><path d="M300.62,440.79l37.63-81.15s77.07-10.88,90.67-5.9c0,0-30.63,70.63-38.27,79.74l-84.86,10.29s-20.47.42-70.68-7a2,2,0,0,1-1.65-2.74,1.81,1.81,0,0,1,1.29-1Z" fill="#123a53"/><line x1="340.39" y1="362.09" x2="305.5" y2="440.87" fill="none" stroke="#000" stroke-miterlimit="10" opacity="0.2"/><path d="M194.1,284.27l12.65,30.81a4.25,4.25,0,0,0,6.68,1.63l10.41-8.81" fill="none" stroke="#000" stroke-miterlimit="10" opacity="0.2"/><path d="M241,308.28l8.42,7.8a1,1,0,0,0,1.72-.83c-.35-4.62-1.42-14.71-4.53-23.75" fill="none" stroke="#000" stroke-miterlimit="10" opacity="0.2"/><path d="M236.8,328.49a58.74,58.74,0,0,1,.38,34.69l-1.53,16.4s2.67,10.29-.76,19.06l-.76,10.67" fill="none" stroke="#000" stroke-miterlimit="10" opacity="0.2"/><path d="M179.39,398.83l63.2,14.41c-7.35,10-4.41,24.1-4.41,24.1-57,6.77-101.42-16.46-101.42-16.46-4.54-5.3-4.21-13-3.39-17.87a30.94,30.94,0,0,1,1.76-6.09,22.49,22.49,0,0,0,1.05-11.61c-8.82-45.56,3.82-65,3.82-65s2.94-13.53,22.05-6.18c0,0,21.46,6.18,17.34,48.51,0,0-.59,12.64-2.35,18.52,0,0-1.3,1.94,1.3,4.54a9.35,9.35,0,0,1,2.78,5.23A10.57,10.57,0,0,1,179.39,398.83Z" fill="#f48225" data-secondary="true"/><path d="M179.39,398.83l63.2,14.41c-7.35,10-4.41,24.1-4.41,24.1-57,6.77-101.42-16.46-101.42-16.46-4.54-5.3-4.21-13-3.39-17.87a30.94,30.94,0,0,1,1.76-6.09,22.49,22.49,0,0,0,1.05-11.61c-8.82-45.56,3.82-65,3.82-65s2.94-13.53,22.05-6.18c0,0,21.46,6.18,17.34,48.51,0,0-.59,12.64-2.35,18.52,0,0-1.3,1.94,1.3,4.54a9.35,9.35,0,0,1,2.78,5.23A10.57,10.57,0,0,1,179.39,398.83Z" opacity="0.2"/><path d="M270.42,432.84s12.15,1.86,12.74-2.26l-2.94-2.05s-2.94-4.41-7.94,2.05Z" fill="#e37961"/><path d="M237.69,432.05l24.3,3.24s7.06.88,10.29-4.71c0,0,3.53-5.88,7.94-2.05l10,6.46s4.7,2.35,5.29-3.23c0,0,5.58,3.53,7.35-.88,0,0,3.82,1.47,3.52-4.12,0,0,5.59-.59-2.35-6.47,0,0,4.36,1.31,4.07-1a2.35,2.35,0,0,0-1.4-1.79l-15.31-7s-3.82-4.41-15.28-.29c0,0-10.88,6.17-33.52,2.94A23.28,23.28,0,0,0,237.69,432.05Z" fill="#ffad95"/><line x1="295.51" y1="431.76" x2="283.89" y2="421.96" fill="none" stroke="#e37961" stroke-miterlimit="10"/><line x1="302.86" y1="430.88" x2="290.42" y2="418.57" fill="none" stroke="#e37961" stroke-miterlimit="10"/><line x1="306.38" y1="426.76" x2="292.84" y2="415.9" fill="none" stroke="#e37961" stroke-miterlimit="10"/><line x1="304.03" y1="420.29" x2="290.91" y2="412.27" fill="none" stroke="#e37961" stroke-miterlimit="10"/><path d="M280.09,568.5s-32.43-4.26-48.39-12.23-7.16-81.65-7.16-81.65C221.09,402,149.82,418,149.82,418c-25.52,7.45-52.36-2.66-52.36-2.66l69.77,169.71,74.08,1.18,42.33.78S296.53,574.66,280.09,568.5Z" fill="#7a6640"/><path d="M280.09,568.5s-32.43-4.26-48.39-12.23-7.16-81.65-7.16-81.65C221.09,402,149.82,418,149.82,418c-25.52,7.45-52.36-2.66-52.36-2.66l69.77,169.71,74.08,1.18,42.33.78S296.53,574.66,280.09,568.5Z" opacity="0.2"/><path d="M65,315.07a5.48,5.48,0,0,0-3.27,2.12c-2.56,3.5-6.58,13.7-5.47,42.88,0,0,.53,80.28,15.95,149.94,0,0,11.7,61.15,22.86,65.93,0,0,6.91,5.32,24.46,5.85l48.92,3.72s16.48,1.07,11.17-34c0,0-7.19-102.06-42.2-119.31a11.55,11.55,0,0,0-3.6-1c-8.23-1.05-44.37-7.46-47.6-39.16a29.3,29.3,0,0,1-.06-4.59C86.87,375.23,89.68,309.93,65,315.07Z" fill="#a98c5d"/><circle cx="648.53" cy="325.03" r="17.22" fill="#dcdcf9"/><path d="M644,319.53l9.28,4.92a.69.69,0,0,1,0,1.21L644,331.15" fill="none" stroke="#fff" stroke-linecap="round" stroke-linejoin="round"/><circle cx="445.11" cy="325.03" r="17.22" fill="#dcdcf9"/><path d="M449.62,330.53l-9.28-4.92a.7.7,0,0,1,0-1.21l9.31-5.49" fill="none" stroke="#fff" stroke-linecap="round" stroke-linejoin="round"/><g id="a85dbc6a-b4ac-4786-9b30-dce7202cc6d2" data-name="freepik--Plant--inject-88"><path d="M736.62,462.55a.72.72,0,0,0-.1-.24c-.11-.18-.23-.4-.37-.67-.33-.58-.85-1.43-1.58-2.47a26.82,26.82,0,0,0-7.83-7.4,19.18,19.18,0,0,0-7-2.57,17.11,17.11,0,0,0-8.53.9,13.66,13.66,0,0,0-7.29,6c-1.68,2.93-2.28,6.37-3.2,9.66a17.72,17.72,0,0,1-2,4.55,13.89,13.89,0,0,1-3.42,3.42c-1.31.95-2.67,1.83-3.9,2.83a16.92,16.92,0,0,0-3.18,3.42,21.18,21.18,0,0,0-3.26,8,28.35,28.35,0,0,0-.43,7.47A57,57,0,0,0,686.38,506c.32,1.23.6,2.18.79,2.82a4.79,4.79,0,0,0,.32,1,3.73,3.73,0,0,0-.21-1c-.2-.66-.39-1.65-.68-2.85a63,63,0,0,1-1.71-10.59,28.62,28.62,0,0,1,.49-7.33,21.08,21.08,0,0,1,3.22-7.73,16.18,16.18,0,0,1,3.09-3.31c1.21-1,2.56-1.84,3.89-2.82a14.33,14.33,0,0,0,3.61-3.55,18.14,18.14,0,0,0,2.12-4.76c1-3.35,1.53-6.73,3.13-9.53a13.4,13.4,0,0,1,7-5.76,17,17,0,0,1,8.27-.91,19,19,0,0,1,6.83,2.45,27.28,27.28,0,0,1,7.85,7.17c.76,1,1.31,1.83,1.67,2.39A5.26,5.26,0,0,0,736.62,462.55Z" fill="#e0e0e0"/><path d="M693.66,474.6c.91-.84,1.34-.26,2.56,0a7.43,7.43,0,0,1,3.28,1.64A13.83,13.83,0,0,1,704,490.72a10.8,10.8,0,0,1-9.92-16.21" fill="#e0e0e0"/><path d="M730.82,457.68c.46-1.14,1.14-.81,2.28-1.14a7.4,7.4,0,0,1,3.68.07A13.81,13.81,0,0,1,747,467.78a10.79,10.79,0,0,1-15.94-10.38" fill="#e0e0e0"/><path d="M685.47,497.48a12.52,12.52,0,0,1,19.6,1,15.44,15.44,0,0,1-10.17,4,15.76,15.76,0,0,1-10.25-4.14" fill="#e0e0e0"/><path d="M688.53,480.39a12.64,12.64,0,0,1-12.76-15.06A11.39,11.39,0,0,1,689,480.27" fill="#e0e0e0"/><path d="M701.61,460.3a12.62,12.62,0,0,1-17.08-10A11.38,11.38,0,0,1,701.91,460" fill="#e0e0e0"/><path d="M706,453.74a12.62,12.62,0,0,1,17.08,10A11.38,11.38,0,0,1,705.68,454" fill="#e0e0e0"/><path d="M711.22,450.2a12.63,12.63,0,0,1-7.93-16,12.83,12.83,0,0,1,1.21-2.57,11.39,11.39,0,0,1,7.15,18.59" fill="#e0e0e0"/><path d="M724.61,450.85a12.62,12.62,0,0,1,7.56-16.18,12.39,12.39,0,0,1,2.75-.66,11.38,11.38,0,0,1-10.06,17.19" fill="#e0e0e0"/><polyline points="670.62 541.38 663.49 496.58 718.16 497.26 712.78 540.8" fill="#123a53"/><path d="M694.22,488.41a9.3,9.3,0,0,0,9.11.76,9.83,9.83,0,0,0,5-7.84,11.14,11.14,0,0,0-9.11-.46,11,11,0,0,0-6,6.74" fill="#f48225" data-secondary="true"/><path d="M719.21,498.05a9.33,9.33,0,0,0,9.11.77,9.8,9.8,0,0,0,5-7.85,11.14,11.14,0,0,0-9.11-.45,11,11,0,0,0-6,6.74" fill="#f48225" data-secondary="true"/><path d="M705.18,476.51a9.34,9.34,0,0,0,7.15,5.64,9.84,9.84,0,0,0,8.47-3.83A10.5,10.5,0,0,0,706.58,474a10.33,10.33,0,0,0-1.83,1.24" fill="#f48225" data-secondary="true"/><path d="M714.3,487.67a9.36,9.36,0,0,0-8.16,4A9.82,9.82,0,0,0,706,501,10.48,10.48,0,0,0,716,490a9.77,9.77,0,0,0-.34-2.22" fill="#f48225" data-secondary="true"/><path d="M723.12,505.31a9.28,9.28,0,0,0,.21,9.1,9.79,9.79,0,0,0,8.34,4.09,11.09,11.09,0,0,0-.53-9.05c-1.43-2.62-4-3.91-7.26-4.65" fill="#f48225" data-secondary="true"/><path d="M737.64,507.38a6.29,6.29,0,0,0-2.16-1.38,9.31,9.31,0,0,0-3-.52,34.09,34.09,0,0,0-4,.24,11.78,11.78,0,0,1-5-.44,7.52,7.52,0,0,1-4.09-4,22,22,0,0,1-1.77-6.05,17.54,17.54,0,0,0-2.11-6.2,22,22,0,0,0-4.63-4.7,22.39,22.39,0,0,1-4.42-4.49,14.92,14.92,0,0,1-2.21-10.25A14.4,14.4,0,0,1,707,463a10.59,10.59,0,0,1,1.31-1.45,3.67,3.67,0,0,1,.52-.44,2.64,2.64,0,0,1-.43.52,14.43,14.43,0,0,0-1.21,1.5,15,15,0,0,0-.22,16.47,22.41,22.41,0,0,0,4.35,4.35A21.72,21.72,0,0,1,716,488.8a17.56,17.56,0,0,1,2.19,6.41,22.29,22.29,0,0,0,1.7,5.92,7.09,7.09,0,0,0,3.78,3.74,11.49,11.49,0,0,0,4.77.47,34.53,34.53,0,0,1,4.07-.15,9,9,0,0,1,3,.64,4.92,4.92,0,0,1,1.64,1.06,2.5,2.5,0,0,1,.34.39C737.62,507.32,737.66,507.37,737.64,507.38Z" fill="#f48225" data-secondary="true"/><path d="M737.64,507.38a6.29,6.29,0,0,0-2.16-1.38,9.31,9.31,0,0,0-3-.52,34.09,34.09,0,0,0-4,.24,11.78,11.78,0,0,1-5-.44,7.52,7.52,0,0,1-4.09-4,22,22,0,0,1-1.77-6.05,17.54,17.54,0,0,0-2.11-6.2,22,22,0,0,0-4.63-4.7,22.39,22.39,0,0,1-4.42-4.49,14.92,14.92,0,0,1-2.21-10.25A14.4,14.4,0,0,1,707,463a10.59,10.59,0,0,1,1.31-1.45,3.67,3.67,0,0,1,.52-.44,2.64,2.64,0,0,1-.43.52,14.43,14.43,0,0,0-1.21,1.5,15,15,0,0,0-.22,16.47,22.41,22.41,0,0,0,4.35,4.35A21.72,21.72,0,0,1,716,488.8a17.56,17.56,0,0,1,2.19,6.41,22.29,22.29,0,0,0,1.7,5.92,7.09,7.09,0,0,0,3.78,3.74,11.49,11.49,0,0,0,4.77.47,34.53,34.53,0,0,1,4.07-.15,9,9,0,0,1,3,.64,4.92,4.92,0,0,1,1.64,1.06,2.5,2.5,0,0,1,.34.39C737.62,507.32,737.66,507.37,737.64,507.38Z" fill="#f48225" data-secondary="true"/><path d="M633.26,512a13.83,13.83,0,0,0-18.72-13.67,23.06,23.06,0,0,0,18.22,13.46" fill="#f48225" data-secondary="true"/><path d="M629.65,513.87c-2.68,2.94-2.51,7.66-.59,11.14s5.2,6,8.5,8.17a18,18,0,0,0-7.73-20.38" fill="#f48225" data-secondary="true"/><path d="M642.61,500.1A15.93,15.93,0,0,0,660,514.4c.23,0,.45,0,.68-.08-1-4.3-2.76-8.63-6.08-11.54s-8.56-4-12.23-1.55" fill="#f48225" data-secondary="true"/><path d="M642.49,495.72c-.67-3.92-4.55-6.75-8.48-7.13s-7.86,1.32-11,3.71a14.34,14.34,0,0,0,19.55,1.94" fill="#f48225" data-secondary="true"/><path d="M622.14,529c-3.75,3.2-4.69,8.91-3.13,13.59s5.22,8.42,9.32,11.16c1.58-4.64,2.57-9.62,1.74-14.46s-3.75-9.49-8.23-11.46" fill="#f48225" data-secondary="true"/><path d="M641.91,484.74a11.55,11.55,0,0,1,18.22-1.07,10,10,0,0,1-18,.46" fill="#f48225" data-secondary="true"/><path d="M646.51,473.46a15,15,0,0,1-18.71-10,14.38,14.38,0,0,1-.42-1.72,33.71,33.71,0,0,1,9,.13,14.65,14.65,0,0,1,8,3.94,8,8,0,0,1,2.1,7.66" fill="#f48225" data-secondary="true"/><path d="M655.19,470.53a12.26,12.26,0,0,1-.08-18.92,25.75,25.75,0,0,1,5.36,11.44,9.71,9.71,0,0,1,0,4.73,4.33,4.33,0,0,1-3.3,3.09" fill="#f48225" data-secondary="true"/><g opacity="0.4"><path d="M633.26,512a13.83,13.83,0,0,0-18.72-13.67,23.06,23.06,0,0,0,18.22,13.46"/></g><g opacity="0.4"><path d="M629.65,513.87c-2.68,2.94-2.51,7.66-.59,11.14s5.2,6,8.5,8.17a18,18,0,0,0-7.73-20.38"/></g><g opacity="0.4"><path d="M642.61,500.1A15.93,15.93,0,0,0,660,514.4c.23,0,.45,0,.68-.08-1-4.3-2.76-8.63-6.08-11.54s-8.56-4-12.23-1.55"/></g><g opacity="0.4"><path d="M642.49,495.72c-.67-3.92-4.55-6.75-8.48-7.13s-7.86,1.32-11,3.71a14.34,14.34,0,0,0,19.55,1.94"/></g><g opacity="0.4"><path d="M622.14,529c-3.75,3.2-4.69,8.91-3.13,13.59s5.22,8.42,9.32,11.16c1.58-4.64,2.57-9.62,1.74-14.46s-3.75-9.49-8.23-11.46"/></g><g opacity="0.4"><path d="M641.91,484.74a11.55,11.55,0,0,1,18.22-1.07,10,10,0,0,1-18,.46"/></g><g opacity="0.4"><path d="M646.51,473.46a15,15,0,0,1-18.71-10,14.38,14.38,0,0,1-.42-1.72,33.71,33.71,0,0,1,9,.13,14.65,14.65,0,0,1,8,3.94,8,8,0,0,1,2.1,7.66"/></g><g opacity="0.4"><path d="M655.19,470.53a12.26,12.26,0,0,1-.08-18.92,25.75,25.75,0,0,1,5.36,11.44,9.71,9.71,0,0,1,0,4.73,4.33,4.33,0,0,1-3.3,3.09"/></g><path d="M670.18,498a1.61,1.61,0,0,1,0-.31,5.24,5.24,0,0,1,.06-.9c0-.79.12-2,.15-3.41a30.94,30.94,0,0,0-2-12.42,18.87,18.87,0,0,0-5-7,13.38,13.38,0,0,0-9.11-3.35,11.29,11.29,0,0,0-5.12,1.29,10.07,10.07,0,0,0-4,3.78c-2,3.28-2.48,7.38-2.28,11.38s.72,8.11.27,12a18.63,18.63,0,0,1-1.5,5.57,11.6,11.6,0,0,1-3.42,4.4,16.92,16.92,0,0,1-4.69,2.4,24,24,0,0,0-4.41,2,15.9,15.9,0,0,0-5.8,6.32,15.24,15.24,0,0,0-1.67,6.91,16.46,16.46,0,0,0,.87,5.34,19,19,0,0,0,2.08,4.15,1.4,1.4,0,0,1-.21-.22,9,9,0,0,1-.52-.74,14.15,14.15,0,0,1-1.56-3.11,15.93,15.93,0,0,1,.63-12.53,16.42,16.42,0,0,1,5.91-6.54c2.71-1.8,6.28-2.28,9-4.41s4.2-5.86,4.63-9.62-.14-7.81-.29-11.93.31-8.34,2.39-11.75a10.74,10.74,0,0,1,4.2-4,11.89,11.89,0,0,1,5.38-1.33,13.83,13.83,0,0,1,9.43,3.52,19.42,19.42,0,0,1,5.06,7.24,26.25,26.25,0,0,1,1.72,7.09,38.87,38.87,0,0,1,.15,5.5,27.32,27.32,0,0,1-.26,3.47,4.56,4.56,0,0,1-.12.89A.81.81,0,0,1,670.18,498Z" fill="#f48225" data-secondary="true"/><g opacity="0.4"><path d="M670.18,498a1.61,1.61,0,0,1,0-.31,5.24,5.24,0,0,1,.06-.9c0-.79.12-2,.15-3.41a30.94,30.94,0,0,0-2-12.42,18.87,18.87,0,0,0-5-7,13.38,13.38,0,0,0-9.11-3.35,11.29,11.29,0,0,0-5.12,1.29,10.07,10.07,0,0,0-4,3.78c-2,3.28-2.48,7.38-2.28,11.38s.72,8.11.27,12a18.63,18.63,0,0,1-1.5,5.57,11.6,11.6,0,0,1-3.42,4.4,16.92,16.92,0,0,1-4.69,2.4,24,24,0,0,0-4.41,2,15.9,15.9,0,0,0-5.8,6.32,15.24,15.24,0,0,0-1.67,6.91,16.46,16.46,0,0,0,.87,5.34,19,19,0,0,0,2.08,4.15,1.4,1.4,0,0,1-.21-.22,9,9,0,0,1-.52-.74,14.15,14.15,0,0,1-1.56-3.11,15.93,15.93,0,0,1,.63-12.53,16.42,16.42,0,0,1,5.91-6.54c2.71-1.8,6.28-2.28,9-4.41s4.2-5.86,4.63-9.62-.14-7.81-.29-11.93.31-8.34,2.39-11.75a10.74,10.74,0,0,1,4.2-4,11.89,11.89,0,0,1,5.38-1.33,13.83,13.83,0,0,1,9.43,3.52,19.42,19.42,0,0,1,5.06,7.24,26.25,26.25,0,0,1,1.72,7.09,38.87,38.87,0,0,1,.15,5.5,27.32,27.32,0,0,1-.26,3.47,4.56,4.56,0,0,1-.12.89A.81.81,0,0,1,670.18,498Z"/></g><path d="M749.8,488.26a11.48,11.48,0,0,0,.82-4,9.78,9.78,0,0,0-1.07-4.63,9.63,9.63,0,0,0-4.45-4.31,10.21,10.21,0,0,0-3.52-.94,11.31,11.31,0,0,0-3.92.46c-2.68.7-5.33,2.27-8.51,2.85a10,10,0,0,1-4.92-.11,7.48,7.48,0,0,1-4-3.21c-1.91-3-2.45-6.68-4.76-9.41a9.24,9.24,0,0,0-4.31-2.82,12.17,12.17,0,0,0-5-.51A12.84,12.84,0,0,0,697.7,466a19.65,19.65,0,0,0-4.17,7.71,23.2,23.2,0,0,0-.93,7.64A84,84,0,0,0,694,492.5l.52,3a4.42,4.42,0,0,0,.12.79,1.22,1.22,0,0,1,0,.27.75.75,0,0,0-.08-.26l-.18-.77c-.15-.74-.36-1.74-.63-3a74.25,74.25,0,0,1-1.61-11.2,23.55,23.55,0,0,1,.87-7.79,20.1,20.1,0,0,1,4.24-8,15,15,0,0,1,3.84-3.07,13.25,13.25,0,0,1,10.19-1,9.84,9.84,0,0,1,4.55,3c2.44,2.93,3,6.66,4.79,9.48a6.85,6.85,0,0,0,3.71,3,9.35,9.35,0,0,0,4.64.12c3-.58,5.69-2.08,8.48-2.79a12,12,0,0,1,4.09-.44,10.21,10.21,0,0,1,3.67,1,9.86,9.86,0,0,1,5.56,9.32,9,9,0,0,1-.59,3A4.62,4.62,0,0,1,749.8,488.26Z" fill="#f48225" data-secondary="true"/><path d="M717.82,468.42a10.66,10.66,0,0,0,9.76.63,9.83,9.83,0,0,0,5-7.84,11.22,11.22,0,0,0-9.11-.47,11.1,11.1,0,0,0-6,6.74" fill="#f48225" data-secondary="true"/><path d="M728.19,477.82a10.6,10.6,0,0,0,4.56,8.65,9.81,9.81,0,0,0,9.29.16,11.16,11.16,0,0,0-4.33-8,11,11,0,0,0-8.89-1.63" fill="#f48225" data-secondary="true"/><path d="M746.17,475.74a10.67,10.67,0,0,0,9.77-.41A9.85,9.85,0,0,0,760,467a10.49,10.49,0,0,0-13.7,5.68,10.19,10.19,0,0,0-.63,2.17" fill="#f48225" data-secondary="true"/><path d="M702.72,462.19c-2.62-2.28-4.38-6.23-3.88-9.2a9.82,9.82,0,0,1,6-7.07,10.5,10.5,0,0,1-1.54,16.27" fill="#f48225" data-secondary="true"/><path d="M632.51,449.31a.51.51,0,0,1,.1-.24l.36-.67c.33-.58.85-1.42,1.59-2.47a26.29,26.29,0,0,1,7.82-7.4,19.44,19.44,0,0,1,7-2.58,17.31,17.31,0,0,1,8.53.9,13.91,13.91,0,0,1,7.3,6c1.67,2.93,2.21,6.36,3.19,9.65a17.3,17.3,0,0,0,2,4.56,13.72,13.72,0,0,0,3.47,3.41c1.3,1,2.66,1.84,3.9,2.84A17.2,17.2,0,0,1,681,466.7a21.16,21.16,0,0,1,3.25,8,28.32,28.32,0,0,1,.43,7.47,57.17,57.17,0,0,1-1.9,10.61c-.33,1.23-.61,2.18-.79,2.82a6.88,6.88,0,0,1-.32,1,5.55,5.55,0,0,1,.21-1c.16-.7.38-1.65.67-2.85a62.19,62.19,0,0,0,1.72-10.59,27.75,27.75,0,0,0-.5-7.33,20.6,20.6,0,0,0-3.23-7.73,16.4,16.4,0,0,0-3.07-3.32c-1.21-1-2.57-1.83-3.89-2.81a14.54,14.54,0,0,1-3.62-3.55,17.79,17.79,0,0,1-2.11-4.76c-1-3.35-1.54-6.73-3.14-9.53a13.42,13.42,0,0,0-7-5.76,17.12,17.12,0,0,0-8.27-.91,18.55,18.55,0,0,0-6.83,2.45,27.45,27.45,0,0,0-7.86,7.17c-.76,1-1.29,1.83-1.66,2.4A10.77,10.77,0,0,1,632.51,449.31Z" fill="#f48225" data-secondary="true"/><path d="M675.51,461.36c-.9-.85-1.34-.25-2.56,0a7.43,7.43,0,0,0-3.28,1.64,13.84,13.84,0,0,0-4.49,14.51A10.79,10.79,0,0,0,675,461.28" fill="#f48225" data-secondary="true"/><path d="M638.3,444.44c-.45-1.14-1.14-.81-2.28-1.14a7.44,7.44,0,0,0-3.66.07,13.84,13.84,0,0,0-10.25,11.17,10.82,10.82,0,0,0,15.83-10.34" fill="#f48225" data-secondary="true"/><path d="M683.64,484.24A12.52,12.52,0,0,0,666,483.09a12.31,12.31,0,0,0-1.91,2.11,15.39,15.39,0,0,0,10.15,4,15.77,15.77,0,0,0,10.25-4.14" fill="#f48225" data-secondary="true"/><path d="M680.59,467.15a12.62,12.62,0,0,0,13-12.23,12.79,12.79,0,0,0-.24-2.83A11.38,11.38,0,0,0,680.17,467" fill="#f48225" data-secondary="true"/><path d="M667.54,447.06a12.64,12.64,0,0,0,16.35-7.22,12.48,12.48,0,0,0,.73-2.76,11.34,11.34,0,0,0-17.39,9.71" fill="#f48225" data-secondary="true"/><path d="M663.12,440.5a12.65,12.65,0,0,0-17.08,10,11.39,11.39,0,0,0,17.45-9.69" fill="#f48225" data-secondary="true"/><path d="M657.91,437a12.63,12.63,0,0,0,7.91-16,12.35,12.35,0,0,0-1.19-2.55A11.39,11.39,0,0,0,657.46,437" fill="#f48225" data-secondary="true"/><path d="M644.51,437.6a12.64,12.64,0,0,0-10.25-16.84,11.34,11.34,0,0,0,10,17.2" fill="#f48225" data-secondary="true"/><polygon points="662.78 536.18 666.97 541.38 718.44 541.38 721.94 536.18 662.78 536.18" fill="#123a53"/><path d="M720.8,536.14c0,.16-12.63.29-28.23.29s-28.25-.13-28.25-.29,12.65-.3,28.25-.3S720.8,536,720.8,536.14Z" fill="#455a64"/><path d="M715,516.6a2.78,2.78,0,0,1-.32.42,11.25,11.25,0,0,1-1.05,1.14,19.22,19.22,0,0,1-4.55,3.19,20.39,20.39,0,0,1-8,2.06,19.84,19.84,0,0,1-4.92-.41,29.72,29.72,0,0,1-5-1.66c-3.31-1.41-6.33-3-9.26-4a16.13,16.13,0,0,0-8-.76,10.24,10.24,0,0,0-4.91,2.28,18.52,18.52,0,0,0-1.41,1.46,2.16,2.16,0,0,1,.26-.47,7.64,7.64,0,0,1,1-1.14,10.13,10.13,0,0,1,5-2.52,16,16,0,0,1,8.27.67,101,101,0,0,1,9.33,3.92,29.07,29.07,0,0,0,4.9,1.64,19.15,19.15,0,0,0,4.77.44A20.39,20.39,0,0,0,709,521,24.41,24.41,0,0,0,715,516.6Z" fill="#455a64"/><path d="M715.53,512.58a1.9,1.9,0,0,1-.35.4,10.94,10.94,0,0,1-1.14,1,20.94,20.94,0,0,1-4.76,3,22.15,22.15,0,0,1-8.08,1.93,21.42,21.42,0,0,1-4.93-.33,31.79,31.79,0,0,1-5.09-1.44c-3.42-1.23-6.51-2.65-9.5-3.48a19,19,0,0,0-8.07-.73,12,12,0,0,0-5.09,2c-1.07.75-1.54,1.32-1.58,1.27s.09-.16.32-.42a7.9,7.9,0,0,1,1.13-1,11.55,11.55,0,0,1,5.16-2.18,18.61,18.61,0,0,1,8.29.62c3,.82,6.18,2.27,9.54,3.41a33.54,33.54,0,0,0,5,1.43,22.14,22.14,0,0,0,4.81.36,22.37,22.37,0,0,0,8-1.78A27.26,27.26,0,0,0,715.53,512.58Z" fill="#455a64"/></g><g id="a2423130-1f54-483b-a245-50b6067ffa56" data-name="freepik--Boxes--inject-88"><rect x="595.7" y="589.23" width="109.45" height="73.26" fill="#00aeef"/><g opacity="0.4"><rect x="595.7" y="589.23" width="109.45" height="73.26"/></g><rect x="682.95" y="589.33" width="8.69" height="14.86" fill="#ff725e"/><rect x="681.99" y="647.64" width="8.69" height="14.86" fill="#ff725e"/><path d="M627,662.34c-.16,0-.3-16.42-.3-36.67s.14-36.68.3-36.68.29,16.42.29,36.68S627.19,662.34,627,662.34Z" fill="#263238"/><path d="M665.82,629.13c0,.17-15.77.29-35.23.29s-35.24-.12-35.24-.29,15.77-.3,35.3-.3S665.82,629,665.82,629.13Z" fill="#263238"/><path d="M628.76,589.06a18.81,18.81,0,0,1,2.54-1.89,28.45,28.45,0,0,1,14.55-4.55,5.34,5.34,0,0,1,1.83.14,1.68,1.68,0,0,1,1.21,1.53,2.43,2.43,0,0,1-.77,1.87,5.13,5.13,0,0,1-1.78,1,34.6,34.6,0,0,1-18,1.76h-.23v-.23a43.67,43.67,0,0,1,2.63-11.39,40.19,40.19,0,0,1,2.64-5.69,7.54,7.54,0,0,1,2.16-2.47,4,4,0,0,1,3.33-.63,3.51,3.51,0,0,1,2.28,2.58,5.7,5.7,0,0,1-.36,3.41,29.83,29.83,0,0,1-3.58,5.87,38.47,38.47,0,0,1-10.51,9.47l-.12.07h-.11l-1.25-.32-1.28-.43a22.2,22.2,0,0,1-9.18-6.47,21.2,21.2,0,0,1-3-4.67,5.23,5.23,0,0,1-.71-2.73,1.53,1.53,0,0,1,.91-1.27,2.18,2.18,0,0,1,1.51.07,22.17,22.17,0,0,1,12.64,15.15l-.52.16a59.6,59.6,0,0,1-4.36-22.53,6.82,6.82,0,0,1,.46-2.56,2.81,2.81,0,0,1,.78-1.08,2,2,0,0,1,1.27-.42,2.54,2.54,0,0,1,2.06,1.34,7.51,7.51,0,0,1,.88,2.18,66.2,66.2,0,0,1,1.08,8.17,63.19,63.19,0,0,1-.29,11.59c-.16,1.35-.32,2.36-.44,3-.06.33-.12.58-.15.79s0,.26-.07.25v-.26a5.09,5.09,0,0,1,.1-.79c.11-.68.23-1.71.37-3a68.65,68.65,0,0,0,.14-11.56,65,65,0,0,0-1.14-8.1,6.59,6.59,0,0,0-.85-2.05,2.14,2.14,0,0,0-1.72-1.14,1.85,1.85,0,0,0-1.65,1.26,6.4,6.4,0,0,0-.41,2.41,59.62,59.62,0,0,0,4.42,22.3l-.51.16a21.66,21.66,0,0,0-12.31-14.71,1.66,1.66,0,0,0-1.14-.08,1,1,0,0,0-.56.81,4.7,4.7,0,0,0,.68,2.4,20,20,0,0,0,2.89,4.56,21.62,21.62,0,0,0,8.94,6.29l1.24.42,1.22.31h-.22a38.21,38.21,0,0,0,10.35-9.32,30.06,30.06,0,0,0,3.52-5.7,5,5,0,0,0,.33-3.08,2.92,2.92,0,0,0-1.87-2.18,3.54,3.54,0,0,0-2.86.54,7,7,0,0,0-2,2.27,41.66,41.66,0,0,0-2.62,5.58,43.47,43.47,0,0,0-2.55,11.3l-.19-.26a34.39,34.39,0,0,0,17.78-1.63,4.94,4.94,0,0,0,1.65-.95,2,2,0,0,0,.67-1.57,1.29,1.29,0,0,0-.94-1.2,4.94,4.94,0,0,0-1.71-.14,29.08,29.08,0,0,0-14.48,4.27c-.89.53-1.53,1-2,1.3S628.76,589.06,628.76,589.06Z" fill="#263238"/><rect x="665.61" y="541.71" width="180.58" height="120.86" fill="#f48225" data-secondary="true"/><g opacity="0.2"><rect x="783.4" y="541.71" width="62.78" height="120.86"/></g><rect x="809.56" y="541.87" width="14.33" height="24.51" fill="#ff725e"/><rect x="807.99" y="638.07" width="14.33" height="24.51" fill="#ff725e"/><path d="M717.29,662.32c-.16,0-.3-27.09-.3-60.51s.14-60.5.3-60.5.29,27.09.29,60.5S717.46,662.32,717.29,662.32Z" fill="#263238"/></g></svg>