<svg id="bbed88dc-cd66-4e7c-802c-000d8e63c85b" data-name="Layer 1" xmlns="http://www.w3.org/2000/svg" width="865.76" height="682.89" viewBox="0 0 865.76 682.89"><path d="M447.2,13.55s-84.85,108.2-202.89,108.2c0,0-50.41-8.6-49.18,13.53,0,0-43,402.07,252.07,493.06,0,0,170-29.38,231.34-249.09,0,0,35.13-110.49,22.67-245.57,0,0,1-10.54-22-12.45C679.18,121.23,559.14,138.68,447.2,13.55Z" fill="#e6e7e8"/><path d="M448.56,157.52A149.51,149.51,0,1,0,598.07,307,149.5,149.5,0,0,0,448.56,157.52Zm0,287.84A138.33,138.33,0,1,1,586.89,307,138.33,138.33,0,0,1,448.56,445.36Z" fill="#fff"/><path d="M529.87,284H471.4V225.61a23,23,0,0,0-23-23h0a23,23,0,0,0-23,23V284H367a23,23,0,0,0-23,23h0a23,23,0,0,0,23,23h58.47v58.51a23,23,0,0,0,23,23h0a23,23,0,0,0,23-23V330h58.47a23,23,0,0,0,23-23h0A23,23,0,0,0,529.87,284Z" fill="#fff"/><rect x="328.33" y="303.17" width="25.73" height="30.61" fill="#f9b499"/><path d="M354.06,303.17v9.42c-6.4,5.18-15.05,8.67-25.73,9.41V303.17Z" fill="#f4a790"/><ellipse cx="340.87" cy="285.58" rx="20.36" ry="29.29" fill="#f9b499"/><path d="M389.83,335.7c2.81,2.19,7.65,6.7,7.93,9.12s9.49,66.66,10.06,70.82c1.15,8.34-25.44-.22-26.44-5.66s-12.12-45.05-12.12-45.05L380,333.48S386.86,333.39,389.83,335.7Z" fill="#686175" data-primary="true"/><path d="M306,668.48c5-2.38,9.38-4.9,10.62-7.46l.55-22.68c.19-1.69.56-3.75-1.09-4l-7.49-1a2.93,2.93,0,0,0-3.23,2.17c-.83,3.13-3.77,13.47-3.77,13.47L287,663.39c-1.49,1.47-3.07,3-3.21,5.09C283.73,668.55,306,668.48,306,668.48Z" fill="#f9b499"/><path d="M317,644.33c-.48-.07,1.22,12.12-4.34,13a9.83,9.83,0,0,1-1.08.09l-.44-5.15s-7.89-3.65-13.81-3.18l-1.36,2.8-16.82,9.26c-1.39,1.37-3.49,3.44-3.69,6.3a2.29,2.29,0,0,0,.48,1.35h42.5S317.48,644.4,317,644.33Z" fill="#686175" data-primary="true"/><path d="M390.77,668.4a20.64,20.64,0,0,0-2.15-5.07l-11.11-14.56s-1.4-9.41-1.78-12.25a2.64,2.64,0,0,0-2.56-2.34l-6.63-.11a2.67,2.67,0,0,0-2.68,2.67l-.76,20.5a106.92,106.92,0,0,0,4.5,11.1Z" fill="#f9b499"/><path d="M389.73,662.44l-7.52-9.85-1-3.12c-5.09-1.2-12.36.91-12.36.91l-.95,4.43a7,7,0,0,1-.93-.22c-4.73-1.55-3.22-9.66-3.63-9.66s-5.38,23.9-5.38,23.9h34.27a2.58,2.58,0,0,0,0-.39C392.38,665.92,390.78,663.83,389.73,662.44Z" fill="#686175" data-primary="true"/><path d="M375.3,430.21c6.75,41.4.91,117.71-.84,128.94s-25.22-7.4-26-18.85c-.27-4.11.81-8.21.82-12.33,0-3.65-1.59-7.15-1.65-10.8-.52-31.92-6.81-36.41-11.37-56.09l-7.39-30.87Z" fill="#2f2e41"/><path d="M307.8,427.84c-6.89,41.41-3.48,117.72-1.69,129s25.77-7.4,26.54-18.85c.28-4.11-.82-8.21-.83-12.33a47,47,0,0,1,1.68-10.81c4.67-19.68,14.51-39.37,19.18-59V427.84Z" fill="#2f2e41"/><path d="M301.8,641.47c-.29-16.31,0-32.62.27-48.93q.21-12.28.41-24.58c.2-11.54.88-23.24,5.13-34.13,1.26-3.24,21.69-11.63,24.21-8.22,0,0,1.7,16.06,2.77,23.33.7,4.79-.26,9.64-1.2,14.39-5.16,25.82-7.85,52.31-13,78.14Z" fill="#2f2e41"/><path d="M379.08,642.78c.29-16.31-.39-31.57-.66-47.88q-.21-12.28-.41-24.58c-.19-11.54-.85-23.23-5-34.12-1.24-3.25-21.23-11.64-23.7-8.23,0,0-1.66,16.06-2.7,23.33-.69,4.79.24,9.64,1.17,14.39,5,25.83,7.45,51.33,12.49,77.16Z" fill="#2f2e41"/><path d="M375.3,430.21c6.75,41.4.91,117.71-.84,128.94s-25.22-7.4-26-18.85c-.27-4.11.81-8.21.82-12.33,0-3.65-1.59-7.15-1.65-10.8-.52-31.92-6.81-36.41-11.37-56.09l-7.39-30.87Z" fill="#2f2e41"/><path d="M307.8,427.84c-6.89,41.41-3.48,117.72-1.69,129s25.77-7.4,26.54-18.85c.28-4.11-.82-8.21-.83-12.33a47,47,0,0,1,1.68-10.81c4.67-19.68,14.51-39.37,19.18-59V427.84Z" fill="#2f2e41"/><path d="M301.8,641.47c-.29-16.31,0-32.62.27-48.93q.21-12.28.41-24.58c.2-11.54.88-23.24,5.13-34.13,1.26-3.24,21.69-11.63,24.21-8.22,0,0,1.7,16.06,2.77,23.33.7,4.79-.26,9.64-1.2,14.39-5.16,25.82-7.85,52.31-13,78.14Z" fill="#2f2e41"/><path d="M379.08,642.78c.29-16.31-.39-31.57-.66-47.88q-.21-12.28-.41-24.58c-.19-11.54-.85-23.23-5-34.12-1.24-3.25-21.23-11.64-23.7-8.23,0,0-1.66,16.06-2.7,23.33-.69,4.79.24,9.64,1.17,14.39,5,25.83,7.45,51.33,12.49,77.16Z" fill="#2f2e41"/><path d="M323.18,445.07h-1.47c-3.83-.05-15.24-3.36-16.89-5.94,4.25-21.95,1.66-35.19-.84-48-1.4-7.2-3-22.8-3-22.8-1.53-2.89-3.31-24.43-2-33.32l28.23-11.86,13.07,3.91h2.63L356,323.15,384.2,335c1.3,8.89-.47,30.43-2,33.32,0,0-2,16-3.78,23.24-3,12.3-6.19,25-1.92,46.76l0,.1c-.85,1.28-7.2,4.56-10.29,5.05C356.28,445.05,324.53,445.07,323.18,445.07Z" fill="#ccc"/><polygon points="346.55 339.13 351.48 334.35 348.55 326.33 341.58 325.71 334.62 326.33 331.69 334.35 336.62 339.13 328.89 414.27 341.58 429.11 354.28 414.27 346.55 339.13" fill="#2f2e41"/><polygon points="355.15 316.68 341.58 325.71 346.55 326.73 350.53 347.33 363.77 326.5 355.15 316.68" fill="#2f2e41"/><polygon points="328.01 316.68 341.58 325.71 336.62 326.73 332.64 347.33 319.4 326.5 328.01 316.68" fill="#2f2e41"/><path d="M293.5,335.34c-2.81,2.19-7.65,6.7-7.94,9.11S279.09,398,277.49,412c-1,13.52,24.6,13.68,26.18,9.94s10.4-57.4,10.4-57.4l-10.73-31.46S296.47,333,293.5,335.34Z" fill="#686175" data-primary="true"/><path d="M387.55,334.54l-25.91-10.47-8,61.43-1,76.36c9.94,6.78,28.27,4.44,30.28,1.9s-1.27-19.66-1.7-22.94c-4.5-34.76,2.12-71.86,2.12-71.86S389.08,343,387.55,334.54Z" fill="#686175" data-primary="true"/><path d="M330.49,385l-9-60.91L296.32,334c-1.53,8.43,3.46,35,3.46,35s8.77,36.49,3.15,70.73c-.24,3-3.73,21.66-2.28,23.74s23.1,6.85,31.91,1Z" fill="#686175" data-primary="true"/><path d="M400.68,420.06c.25-1.7-5.44-18.11-12.19-20.45s-71-9-71-9-3.33,5.57-2.19,9.9c0,0,47.45,16,53.73,18S400.42,421.76,400.68,420.06Z" fill="#f9b499"/><path d="M320.24,391.45s-12.94-5.21-13.77-5.64v18.82l11.91-4Z" fill="#f9b499"/><path d="M327.65,388.06l-4.11,19s42.89,13.27,60.5,17,25-2.93,23.55-8.95a24.11,24.11,0,0,0-17.5-17.6C379.18,394.84,327.65,388.06,327.65,388.06Z" fill="#686175" data-primary="true"/><path d="M286.64,420.75c.06-1.72,5.58-21.13,12.65-22.18s79.18,9.61,79.18,9.61-3.21,9.91-5.85,11c0,0-36.14,1.37-49,2.95C317.1,422.91,286.57,422.47,286.64,420.75Z" fill="#f9b499"/><path d="M367.13,418c3.91,2.13,8.38,2.67,12.6,3.87,1.72.48,3.78.88,5-.32a5,5,0,0,0,1.1-2.65c.64-3.1-2.06-7.55-1.42-11.61.44-2.84.6-8.89-.86-8.73-3.85.45-10.13,6.65-14.17,8.69a3.42,3.42,0,0,0-1.41,1.31C366.63,410.73,363.82,416.16,367.13,418Z" fill="#f9b499"/><path d="M383.44,409.77a36.45,36.45,0,0,0,10.09-.85c2-.47,4.24-2.23,10.34-5.87,2.26-1.36-.82-3-3.23-1.93a40.73,40.73,0,0,1-7.35,3c-3.61,1.17-7-.33-10.52.21C380.37,404.66,381,409.71,383.44,409.77Z" fill="#f9b499"/><path d="M383.73,414.37c5.75-.4,7.73.21,11.39-.74,2.78-.72,4.14-1.87,8.61-3.57,3.06-1.16,1.18-4.53-1.88-3.37-4.57,1.74-6.17,2.4-6.17,2.4-4.69,1.3-9.55.17-14.3.89C378.18,410.47,380.49,414.59,383.73,414.37Z" fill="#f9b499"/><path d="M383.4,418c4.88.93,9.52,1.32,11.84.94,1.07-.18,5.58-2,6.83-2.44a11.11,11.11,0,0,0,3.43-2.06c.84-1-.25-2.57-1.58-2.26-1.55.36-6.53,2.15-9.91,2.72-4.78.82-7.58-1.76-12.36-1.52C378.44,413.57,380.21,417.42,383.4,418Z" fill="#f9b499"/><path d="M381.73,422.29a39.24,39.24,0,0,0,7.73.47c.87,0,4.06-.54,6-.61,1.07,0,4-.58,4-.58a1.22,1.22,0,0,0-.95-2c-1.28.06-3.66.24-6.41.18-3.9-.1-7.53-1.92-11.37-2.53C378.21,416.77,379.15,421.88,381.73,422.29Z" fill="#f9b499"/><path d="M382.19,408.58c1.77-3.5,2.81-5.91,4.46-6.51a38.47,38.47,0,0,0,5.24-2.21,5.3,5.3,0,0,0,2.24-3.46c.23-2.56-4.47-.85-8-.19a9.84,9.84,0,0,0-5.49,2.7c-1.52,1.46-6.72,6.66-6.72,6.66Z" fill="#f9b499"/><path d="M363.77,422.49l4.13-19.67s-63.93-7-69.38-7.67-14.5,6.47-15.66,13.67-.23,13.05,7.19,14.64S363.77,422.49,363.77,422.49Z" fill="#686175" data-primary="true"/><path d="M364.8,277.08a22.76,22.76,0,0,0,.28-7.93c-.68-4.11-3.26-8.14-7.26-9.48,2.18-1.44,2.38-4.74,1-7s-3.81-3.55-6.26-4.49c-8.25-3.19-18.07-3.05-25.61,1.54s-11.73,15.39-10,22.34,2.49,10.55,7.28,10.28c4.25-.24,8-2.73,11.24-5.45s8.08-7.63,11.9-9.46a14.75,14.75,0,0,1,2.84-1,7.14,7.14,0,0,1,8.65,5.34c1.49,6.35,1,13.28,1.29,20.38,1.08-3.29,2.68-7.3,3.6-10.72C364.17,280,364.53,278.55,364.8,277.08Z" fill="#2f2e41"/><path d="M321.05,291.83l2.09-22.9s-3.29-2.92-4.92-1.56S321.05,291.83,321.05,291.83Z" fill="#2f2e41"/><path d="M407.9,436.78s-2.77,1.91-6.12-.64c0,0,.21-48.47,1.22-52.88s7.91-9.44,11.12-6.57c2.82,2.53,5.07,5.46,4.79,11.82S407.9,436.78,407.9,436.78Z" fill="#f9b499"/><path d="M411.45,434.66s-1.38,9.17-1.09,10.46,3.32,10.41,2.62,11.95-2.81.29-3.65-2.39-2.82-9.33-2.7-10.48-.56-5.55-.41-6.81S409.52,430.4,411.45,434.66Z" fill="#f9b499"/><path d="M407.12,438.25c1.34,1.56.66,7.38,1,7.85s3.93,6.46,4.93,8.61-1.2,2.42-3.13.18a46.82,46.82,0,0,1-4.88-7.46c-.34-.84-2.9-7.59-3.23-9.37S405.19,436,407.12,438.25Z" fill="#f9b499"/><path d="M404.37,437.66c1.34,1.56,1.22,7.53,1.53,8s5,5,6,7.14-1.19,2.42-3.12.18-6.31-5.71-6.66-6.55-1.62-7.12-1.94-8.91S402.44,435.42,404.37,437.66Z" fill="#f9b499"/><path d="M412.44,434.87a11.64,11.64,0,0,1-1.68,4.46c-.64-.13-1.28-.24-1.92-.34-2.37-.36-4.74-.57-7.11-1-.53-.09-1.06-.19-1.59-.31-.71-4.63.53-15.34,6.89-12.86C407,424.84,412.33,432.93,412.44,434.87Z" fill="#f9b499"/><path d="M406.89,424.79s4.38,3.48,5.85,4.87c1.06,1,3.79,4.57,4.16,4.88s-1,6.59-1.46,7.42-1.89.56-3-1.51-.06-5.2-.06-5.2-5.67-3-7-5.37S406.89,424.79,406.89,424.79Z" fill="#f9b499"/><path d="M472.72,261.7c4.69,11.11,5.14,34,7.72,57.95l-5.45-.14L471.25,265Z" fill="#2f2e41"/><path d="M423.61,263.31c-3.08,22.7-1.23,47.77-1.23,72.85a179.88,179.88,0,0,0,54.95,1.32,480.31,480.31,0,0,0-5.25-66s-5.79-17.2-20.17-16.38S423.61,263.31,423.61,263.31Z" fill="#2f2e41"/><path d="M504.62,387.27c1.49-1.7,3.88-7.24,3.74-10.39s-13.54-37.28-13.54-37.28-15.63,5-16.19,11.64c0,0,14.51,33.6,15.72,34.68C497.06,388.32,503,389.07,504.62,387.27Z" fill="#f9b499"/><path d="M480,314c3,1.34,8.32,4.31,9.11,6.41s11.31,27.16,15.84,39.35c-3.71,7.33-11.82,8.46-19.83,10.3-6.12-8.84-8.73-18-12.17-28.2l-2.4-27.72S476.84,312.55,480,314Z" fill="#f48225" data-secondary="true"/><path d="M420.38,514.33c1.18-11.45,1.29-19.91,12.54-20.29,7.61-.26,12.07.54,12.57,7.56,0,0-5.31,36.47-7.69,56.54-2.14,18.13-5.17,52.22-6.72,76.57l-9.46-.42c-.49-7.54-5.95-60.49-7.21-74C411.44,528.32,419.28,525,420.38,514.33Z" fill="#f9b499"/><path d="M444.05,510.8l13.62-75.65s-14.13-3.58-21.27-5.63C413.74,423,424.54,501,424.57,507.61,424.61,517.85,440.88,519.87,444.05,510.8Z" fill="#f8a588"/><path d="M435.1,633.36c-.06-5.16-3.35-6.24-3.35-6.24l-10.82,4.24s-17.81,36-15.13,36.83l19.25.52c5.55.12,4.11-8.69,6.25-13.36l-.1,13.48h2.42l1.12-18.77a11,11,0,0,0,.36-1.65C435.37,646.2,435.18,640.27,435.1,633.36Z" fill="#f48225" data-secondary="true"/><path d="M422.7,626.1c-.95,2.64-5,12.87-6,16.12L413,653.48a3.21,3.21,0,0,0,2.94,4.2l8.24.28,8.56-28.6c.11-.85.17-5.19-1.65-6.27S423.64,623.45,422.7,626.1Z" fill="#f9b499"/><path d="M456.5,511.62c0-3.39.64-10.86,11.89-11.24,7.6-.26,10.64,2.71,11.15,9.72,0,0,3.08,13.45,7.25,31.89,3.88,17.15-14.43,54-11.19,88.55l-9.47-.42c-.48-7.55-2-44.15-3.3-57.69C459.85,540.48,456.5,511.62,456.5,511.62Z" fill="#f9b499"/><path d="M477.05,626.82s6.57,25.39,7.49,29.56-.58,9.83-2,11.39-15.45,1.16-18.42.29,2-39.72,2-39.72Z" fill="#f48225" data-secondary="true"/><path d="M466,622.66c0,2.85-.39,13.88-.27,17.38.14,4.21.53,16.52.53,16.52s10.78.75,12.11-.54c3.77-3.65,2.08-11.31,2.08-11.31l-3.2-18.54c-.2-.91-1.68-5.59-3.89-6.75S466,619.81,466,622.66Z" fill="#f9b499"/><path d="M457.14,516.23l-.64-76.87s14.53-1.13,21.92-1.95c23.44-2.61-2.61,68.63-2.32,75.26C476.45,520.92,458.73,525.7,457.14,516.23Z" fill="#f8c8b8"/><path d="M482.87,344.65c-2.59-2.71-9.28-30.94-9.28-30.94H429.1s-6.7,28.23-9.29,30.94c-9.26,9.7,1.28,28.85,4.81,34.38,4.88,16,3.57,23.1,3.66,37.87a163.46,163.46,0,0,0,23.06,2.26,163.32,163.32,0,0,0,23.06-2.26c.09-14.77-1.22-21.9,3.66-37.87C481.59,373.5,492.14,354.35,482.87,344.65Z" fill="#2f2e41"/><path d="M489.93,520c3-26.87.11-77.69-.9-86.86s-10.12-22.06-14.7-31.48c-17.4,0-28-1.45-44.71,3.32-4.45,7.64-11.64,15.76-14.43,25.56s-1.36,59.78-4,88.28C431.67,522.52,483.59,523.94,489.93,520Z" fill="#2f2e41"/><rect x="437.03" y="294.51" width="26.24" height="31.21" fill="#f9b499"/><path d="M463.18,298.56v9.6c-6.53,5.28-15.35,8.85-26.24,9.6v-19.2Z" fill="#f4a790"/><path d="M437.61,316.51s-3.6,5.06-3.64,8c0,2.15,14.83,21.61,17.32,21.61s17.56-21.14,17.93-22.52a5.24,5.24,0,0,0-2.19-5.22,15.35,15.35,0,0,0-5.51-2.29Z" fill="#f9b499"/><path d="M428.69,313.41s-7.46,29.38-9.23,31.23c-4.2,4.4-5.08,11-2.61,19.64A65.55,65.55,0,0,0,424.1,380s1.79,15-.61,23.19-10.75,26.43-10.75,26.43,23.68.75,24.29.85c.88-35.25,2.05-83.82,0-118.47Z" fill="#f48225" data-secondary="true"/><path d="M483.85,344.64c-1.76-1.85-8-30.93-8-30.93l-12.56-2.21c-2,35.61-6.26,82.91,0,117.63,1.07-.16,25.59-.67,26.66-.86,0,0-9.49-20.68-11.3-25.44a41.29,41.29,0,0,1,.58-22.79,65.15,65.15,0,0,0,7.25-15.76C488.93,355.65,488.06,349,483.85,344.64Z" fill="#f48225" data-secondary="true"/><path d="M409.36,392.15c-1.82-1.34-5.35-6.23-5.9-9.34s5.19-39.32,5.19-39.32S425,345,427,351.36c0,0-7.66,36.32-8.86,37.42S411.29,393.57,409.36,392.15Z" fill="#f9b499"/><path d="M417.15,315.67c-2.88,1.56-6.75,5.59-7.07,7.81s-5.19,29-7,41.84c5.19,6.36,14.95,11.05,23.17,11.12,4.07-10,3.05-24.8,4.21-35.5l-.39-27.58S420.7,313.74,417.15,315.67Z" fill="#f48225" data-secondary="true"/><path d="M450.06,337.57l-4.29-3.34-43.2,38,8.33-.66S428.55,369.29,450.06,337.57Z" fill="#a7a9ac"/><polygon points="467.38 414.51 458.38 414.46 402.57 372.21 411.7 371.25 467.38 414.51" fill="#bcbec0"/><polygon points="432.49 389.13 411.84 373.08 406.12 373.69 428.79 390.84 432.49 389.13" fill="#fff"/><path d="M411.15,371.31S431,349,450.49,334.19l47.25,53.17-30.35,27.15Z" fill="#d1d3d4"/><path d="M438.16,387.42c-3.16,1-1.08,3.16-3,15.05-.07.46,11.31,1.94,16.86-2.59C458.1,394.9,451.49,383.29,438.16,387.42Z" fill="#f9b499"/><path d="M438.48,393.62l-8.08,4.2a2.9,2.9,0,0,1-3.71-.68h0a2.28,2.28,0,0,1,1.16-3.21l10-4.95C439.17,388.28,439.82,392.92,438.48,393.62Z" fill="#f9b499"/><path d="M426.38,396.09a1.61,1.61,0,0,0,.17.54,2.46,2.46,0,0,0,2.86,1.11c1.59-.41,3.45-1.64,5.38-2.59,1.71-.85,3.28-1.85,4.93-2.76a2.88,2.88,0,0,1-1.24,1.23l-8.08,4.2a2.9,2.9,0,0,1-3.71-.68h0A1.89,1.89,0,0,1,426.38,396.09Z" fill="#f9b499"/><path d="M440.75,397.47l-8.08,4.21A2.91,2.91,0,0,1,429,401h0a2.29,2.29,0,0,1,1.16-3.22l8.08-4.2a2.88,2.88,0,0,1,3.71.68h0A2.28,2.28,0,0,1,440.75,397.47Z" fill="#f9b499"/><path d="M428.65,400a1.82,1.82,0,0,0,.17.53,2.37,2.37,0,0,0,2.86,1.12c1.62-.58,3.41-1.69,5.35-2.64a19.18,19.18,0,0,1,3.72-1.49l-8.08,4.21A2.91,2.91,0,0,1,429,401h0A1.94,1.94,0,0,1,428.65,400Z" fill="#f9b499"/><path d="M443.74,400.69l-8.13,3.9a3.07,3.07,0,0,1-3.69-.56h0c-.69-1-.15-2.27,1.2-2.92l8.12-3.9a3.08,3.08,0,0,1,3.7.56h0C445.62,398.73,445.08,400,443.74,400.69Z" fill="#f9b499"/><path d="M431.62,403.08a1.54,1.54,0,0,0,.17.48,2.5,2.5,0,0,0,2.83,1c1.6-.39,3.51-1.74,5.46-2.63,1.71-.78,4.24-1.49,3.66-1.21l-8.13,3.9a3.07,3.07,0,0,1-3.69-.56h0A1.6,1.6,0,0,1,431.62,403.08Z" fill="#f9b499"/><path d="M445.69,403.41l-6.29,3.35a2.23,2.23,0,0,1-2.9-.58h0a1.84,1.84,0,0,1,.88-2.6l6.28-3.35c1-.56,7.19-1.3,7.75-.43C451.41,399.8,451.92,400.36,445.69,403.41Z" fill="#f9b499"/><path d="M448.4,388.25s-2.67-2.88-4.44-3.66-8.77-.67-11.52-1.12-1.82,3.3,1.2,4.17,3.5,4.18,3.5,4.18Z" fill="#f9b499"/><path d="M504.19,375c-.66-1.32-11.57-3.7-17.15-3s-42.45,16.63-42.45,16.63-1.1,7.06,1.86,9.92c0,0,50.92-6.28,55.31-8.95C510.55,384.19,504.85,376.26,504.19,375Z" fill="#f9b499"/><ellipse cx="449.27" cy="280.61" rx="21.79" ry="27.55" fill="#f9b499"/><path d="M468.8,270.48a3.09,3.09,0,0,0-.15-1c-.62-.75-1.08,8.73-1.08,8.73-10-1-35.86.45-35.86.45l-1.12-9.29c-1.73,2-.75,22.31-.75,22.31-2.56-7-5.91-19.26-6.38-26.45a7.15,7.15,0,0,1,5.6-7.32c1.57-6.67,7.18-9.06,14-11,7.91-2.31,16.88.17,23,5.63s9.38,11.55,7.82,19.47c-1.63,8.27-1.49,14.93-5.91,21.74C467.88,293.74,469.09,275,468.8,270.48Z" fill="#2f2e41"/><ellipse cx="541.28" cy="291.9" rx="4.19" ry="6.8" transform="translate(-59.5 160.57) rotate(-16.01)" fill="#f9b499"/><ellipse cx="583.77" cy="291.9" rx="6.8" ry="4.19" transform="translate(142.22 772.55) rotate(-73.99)" fill="#f9b499"/><rect x="550.14" y="306.33" width="25.51" height="30.34" fill="#f9b499"/><path d="M575.65,306.33v9.33c-6.34,5.14-14.92,8.6-25.51,9.33V306.33Z" fill="#f4a790"/><ellipse cx="562.53" cy="285.19" rx="21.25" ry="30.47" fill="#f9b499"/><path d="M606.37,335.78c3.13,1.62,8.68,5.13,9.4,7.43s21.45,63.22,22.77,67.17c2.65,7.91-22.85,9.55-24.83,4.44s-22-46.79-22-46.79l4.7-32.61S603.06,334.07,606.37,335.78Z" fill="#686175" data-primary="true"/><path d="M596.71,432.26c6.69,41.05.9,116.7-.83,127.84s-25-7.34-25.76-18.69c-.27-4.08.8-8.14.81-12.23,0-3.61-1.46-7.08-1.63-10.7-1.29-26.37-8.2-36.28-12.72-55.79l-5.88-30.43Z" fill="#2f2e41"/><path d="M528,668.49c4.94-2.37,9.3-4.86,10.53-7.41l.55-22.48c.19-1.67.55-3.71-1.08-3.94l-7.43-1a2.9,2.9,0,0,0-3.2,2.16c-.83,3.1-3.73,13.35-3.73,13.35l-14.5,14.3c-1.48,1.45-3,2.93-3.19,5C505.93,668.55,528,668.49,528,668.49Z" fill="#f9b499"/><path d="M538.91,644.54c-.47-.07,1.21,12-4.3,12.92a9.47,9.47,0,0,1-1.06.09l-.44-5.11s-7.82-3.61-13.69-3.15l-1.35,2.78-16.67,9.17c-1.38,1.36-3.47,3.42-3.66,6.26a2.2,2.2,0,0,0,.48,1.33h42.13S539.38,644.61,538.91,644.54Z" fill="#686175" data-primary="true"/><path d="M612,668.41a20.49,20.49,0,0,0-2.13-5L598.9,649s-1.39-9.34-1.76-12.15a2.64,2.64,0,0,0-2.55-2.32l-6.57-.11a2.65,2.65,0,0,0-2.66,2.64l-.75,20.33a108.32,108.32,0,0,0,4.46,11Z" fill="#f9b499"/><path d="M611,662.5l-7.45-9.77-1-3.09c-5-1.19-12.26.9-12.26.9l-.95,4.39a5.74,5.74,0,0,1-.91-.22c-4.69-1.53-3.19-9.57-3.61-9.57s-5.33,23.69-5.33,23.69h34c0-.13,0-.26,0-.38C613.64,666,612.06,663.87,611,662.5Z" fill="#686175" data-primary="true"/><path d="M529.79,429.92c-6.83,41.05-3.45,116.7-1.68,127.84s25.55-7.34,26.32-18.69c.27-4.08-.82-8.14-.83-12.23a46.2,46.2,0,0,1,1.67-10.71c4.62-19.51,14.38-39,19-58.54V429.92Z" fill="#2f2e41"/><path d="M523.84,641.7c-.29-16.16,0-32.33.26-48.5l.42-24.37c.19-11.44.86-23,5.07-33.83,1.26-3.22,21.51-11.54,24-8.16,0,0,1.69,15.93,2.74,23.14.7,4.74-.25,9.55-1.19,14.26-5.11,25.6-7.78,51.86-12.89,77.46Z" fill="#2f2e41"/><path d="M600.46,643c.28-16.17-.4-31.3-.67-47.47q-.19-12.18-.4-24.37c-.19-11.44-.85-23-5-33.83-1.23-3.22-21-11.53-23.49-8.16,0,0-1.65,15.93-2.68,23.14-.68,4.74.24,9.55,1.16,14.26,5,25.6,7.39,50.89,12.39,76.49Z" fill="#2f2e41"/><path d="M545,447h-1.47c-3.79,0-15.1-3.33-16.74-5.88,4.21-21.77,1.65-34.89-.83-47.58-1.39-7.14-3-22.61-3-22.61-1.52-2.86-3.28-24.22-2-33l28-11.76L562,330h2.62l12.95-3.88,28,11.76c1.3,8.81-.46,30.17-2,33,0,0-2,15.84-3.75,23-3,12.19-6.14,24.8-1.91,46.36l0,.09c-.84,1.27-7.13,4.53-10.2,5C577.85,447,546.37,447,545,447Z" fill="#fff"/><polygon points="568.2 341.97 573.09 337.23 570.18 329.29 563.28 328.68 556.37 329.29 553.47 337.23 558.36 341.97 550.7 416.47 563.28 431.18 575.86 416.47 568.2 341.97" fill="#2f2e41"/><polygon points="576.73 319.72 563.28 328.68 568.2 329.68 572.15 350.11 585.27 329.45 576.73 319.72" fill="#2f2e41"/><polygon points="549.83 319.72 563.28 328.68 558.36 329.68 554.41 350.11 541.28 329.45 549.83 319.72" fill="#2f2e41"/><path d="M501.38,480s0-10.68.1-12.15,4.27-6,5.28-6.27c1.42-.34,7.75.43,7.75.43a70.44,70.44,0,0,1,3.38,8.52c.91,3.3-5.67,9.14-5.67,9.14Z" fill="#f9b499"/><path d="M511.74,470.54c2.2,2.51,3.79,4.08,3.58,5.68a31.78,31.78,0,0,0-.42,5.14c.09,1.08-.34,3.14.69,3.6,2.08.91,3.95-4.3,4.94-7.52.78-2.55,1.05-4.36.11-5.49s-4.73-4.74-4.73-4.74Z" fill="#f9b499"/><path d="M518.92,487.41l-9.1-.49s-6,73.73-6,78.86,20.39,4.9,20.39-.51S518.92,487.41,518.92,487.41Z" fill="#d1d3d4"/><path d="M521.24,563.58c-1.15,2.78-10.92.75-12.24-2.69-2.46-6.57-.9-12.37-.82-18.84,0-1.1,2.06-.23,2.38-1.54-.87-16.87.78-30.09-.47-44.29a8.19,8.19,0,0,0-.83-2.44c-1.49,18.42-5.45,67.83-5.45,72,0,5.14,20.39,4.9,20.39-.51,0-1.57-.44-8.81-1.08-18.28C523.12,547,523.23,558.59,521.24,563.58Z" opacity="0.2"/><path d="M511.34,487.64c-1.36-1.36-3.48-.69-4.7.85a15.11,15.11,0,0,0-2.26,5.8c-1.53,6.33-3.33,43.43-2.36,45.44.85,1.76,5,0,5,0Z" fill="#d1d3d4"/><path d="M502.94,538a5.68,5.68,0,0,0,2.35,6.43.74.74,0,0,0,1-.26.75.75,0,0,0-.26-1c-.12-.08-.23-.15-.33-.23.14.1,0,0,0,0l-.17-.15-.24-.24-.14-.15s-.15-.2,0,0a6,6,0,0,1-.41-.62c-.06-.12-.12-.24-.17-.36s.05.14,0,0l-.07-.18a5.2,5.2,0,0,1-.2-.75l0-.17c0-.17,0,.13,0,0s0-.26,0-.4,0-.26,0-.4a1,1,0,0,1,0-.17s0-.22,0,0a3,3,0,0,1,.19-.77.75.75,0,0,0-.52-.91.75.75,0,0,0-.91.52Z" fill="#ccc"/><path d="M510.48,489.6V476.27a2.39,2.39,0,0,1,4.78,0V489.6h2.3V476.27a4.7,4.7,0,0,0-4.69-4.69h0a4.7,4.7,0,0,0-4.69,4.69V489.6Z" fill="#ccc"/><path d="M511.36,471.18a96.29,96.29,0,0,0-.79,12.88,2.34,2.34,0,0,0,.36,1.51,2.49,2.49,0,0,0,1.72.6,2.72,2.72,0,0,0,3-1.63c.32-.63.19-3.08.16-3.88a87.4,87.4,0,0,1,.28-9.69Z" fill="#f9b499"/><path d="M507.51,470.82a87.53,87.53,0,0,0-.75,12.28,2.4,2.4,0,0,0,.36,1.51,2.48,2.48,0,0,0,1.72.59,4.94,4.94,0,0,0,2.9-.53c1.09-.5.29-4.18.26-5a72.3,72.3,0,0,1,.21-8.82Z" fill="#f9b499"/><path d="M504.05,469.05a101.6,101.6,0,0,0-.77,12.28,2.67,2.67,0,0,0,.3,1.51,1.94,1.94,0,0,0,1.47.61,3.68,3.68,0,0,0,2.5-.52c.95-.49.29-4.17.27-5a84.28,84.28,0,0,1,.28-8.83Z" fill="#f9b499"/><path d="M501.61,468a104.4,104.4,0,0,0-.75,11.93,2.7,2.7,0,0,0,.27,1.47,1.67,1.67,0,0,0,1.36.6c2.52.13,2.6-4.56,2.59-5.34a84.89,84.89,0,0,1,.28-8.57Z" fill="#f9b499"/><path d="M515.61,338.21c-2.78,2.18-7.58,6.65-7.87,9s-6.41,96.29-8,110.2c-1,13.41,19.28,8.73,20.84,5s10.49-95.34,10.49-95.34L525.36,336S518.55,335.92,515.61,338.21Z" fill="#686175" data-primary="true"/><path d="M608.85,337.43,583.16,327l-7.89,60.9-1,75.71c9.85,6.72,28,4.4,30,1.88S603,446,602.61,442.78c-4.46-34.45,2.11-71.23,2.11-71.23S610.37,345.78,608.85,337.43Z" fill="#686175" data-primary="true"/><path d="M552.28,387.43,543.4,327l-25,9.85c-1.52,8.35,3.43,34.66,3.43,34.66s8.69,36.18,3.12,70.12c-.24,3-3.7,21.47-2.26,23.53s22.89,6.8,31.63,1Z" fill="#686175" data-primary="true"/><path d="M635.89,413.1c-1.55-.52-18.74.28-22.77,4.69s-27.52,49.49-27.52,49.49,4.43,3.53,8.87,3.57c0,0,27.95-31.05,31.47-35.2S637.45,413.63,635.89,413.1Z" fill="#f9b499"/><path d="M587.62,463.42s-8.54,3.7-7.45,5.57,15,6.9,15,6.9l.25-7.24Z" fill="#f9b499"/><path d="M585.88,459.43,603.31,469s21.54-28.27,29.75-40.25,7.43-19.48,2.15-22.63c-6.1-3.65-17.54-2-23,5.35S585.88,459.43,585.88,459.43Z" fill="#686175" data-primary="true"/><path d="M594.37,282.46a5.17,5.17,0,0,0,.59-2.12,4.67,4.67,0,0,0,0-.84,2.19,2.19,0,0,0,.53-1.72,2.5,2.5,0,0,0-1-1.67,4.69,4.69,0,0,0,.5-2.49,4.77,4.77,0,0,0-1.1-2.72,2.07,2.07,0,0,0,.16-1.13,2.41,2.41,0,0,0-1.79-2,4.19,4.19,0,0,0-1.11-3.55,6.42,6.42,0,0,0-.62-.55,2.34,2.34,0,0,0,.3-2.2A2.32,2.32,0,0,0,588,260a6.44,6.44,0,0,0-.4-.73l1-.88A2.23,2.23,0,0,0,586,254.8l-1.62,1.42a2.58,2.58,0,0,0-.08-.26,2.44,2.44,0,0,0-.14-.28l.31-.45a2.23,2.23,0,0,0-3.49-2.78l-.11.16c0-.09,0-.18-.05-.27a1.69,1.69,0,0,0-.58-.88,2.1,2.1,0,0,0-.81-1.73,2.27,2.27,0,0,0-3.14.35,3.76,3.76,0,0,1-.25.31,5.64,5.64,0,0,1-5.65-2.7,2.16,2.16,0,0,0-1.61.4,2.35,2.35,0,0,0-1.9-2,2.28,2.28,0,0,0-2.55,1.85l-.23,1a2.17,2.17,0,0,1-.07-.24,2.21,2.21,0,0,0-4.28.91l-.22-.49a2.2,2.2,0,0,0-3.75-.69,2.24,2.24,0,0,0-3-.3,2.26,2.26,0,0,0-.5,3.11l.23.33a1.78,1.78,0,0,0-.55.51l-.08.12A2.21,2.21,0,0,0,550,250a2.25,2.25,0,0,0-2.55,1.85,5.79,5.79,0,0,0,0,.83,2,2,0,0,0-1.47-.39,2.25,2.25,0,0,0-2,2.44,9,9,0,0,0,.34,1.49,2.26,2.26,0,0,0-.47,1.08,2.3,2.3,0,0,0,.09,1.07l-2-.36c-2-.35-3,1.69-2.44,3.19a2.33,2.33,0,0,0-2.56,2,2.42,2.42,0,0,0,0,.76,2.48,2.48,0,0,0-1.47,1.16,2.24,2.24,0,0,0-3,.43,2.26,2.26,0,0,0,.35,3.13,8.33,8.33,0,0,0,1,.7,2.33,2.33,0,0,0-1.89,1.4,2.49,2.49,0,0,0,.07,2,2.51,2.51,0,0,0-1,1.56A2.4,2.4,0,0,0,533,277l.3.09a6,6,0,0,0,.38,4.53,2.1,2.1,0,0,0-.87,2.06,6.37,6.37,0,0,0,7.06,5.66,2.38,2.38,0,0,0,1.25,2.78,2.29,2.29,0,0,0,3-1.21,14.49,14.49,0,0,0,.64-4.52,4.86,4.86,0,0,0,2.44-4,4.5,4.5,0,0,0-1.3-3.44,5.32,5.32,0,0,0,.48-3.59,4.2,4.2,0,0,0,1.71-3,4.32,4.32,0,0,0-.1-1.48,6.31,6.31,0,0,0,2.18-2.76,5.37,5.37,0,0,0,6-2.76,6.26,6.26,0,0,0,5-.69c1.9,1.12,4.47.7,6.72-.23a5.53,5.53,0,0,0,4.7,1.38,5.49,5.49,0,0,0,3.79,2.87,6,6,0,0,0,4.41,5.42,5,5,0,0,0,1.38,3.41,4.28,4.28,0,0,0-2,3.58,4.67,4.67,0,0,0,1.11,3.08,4.46,4.46,0,0,0,.74,4.78,4.11,4.11,0,0,0,3.63,3.83,2.22,2.22,0,0,0,3.89-1.95c2.29-.76,4.41-2.26,4.61-4.9a1.7,1.7,0,0,0,.29-.31,2.36,2.36,0,0,0,.49-1.7A2.49,2.49,0,0,0,594.37,282.46Z" fill="#2f2e41"/></svg>