<svg xmlns="http://www.w3.org/2000/svg" xmlns:xlink="http://www.w3.org/1999/xlink" width="865.76" height="682.89" viewBox="0 0 865.76 682.89"><defs><linearGradient id="a27bf6e9-77bb-429a-b867-f4e46c3ba32d" x1="509.65" y1="-12.19" x2="365.28" y2="614.89" gradientUnits="userSpaceOnUse"><stop offset="0" stop-color="#f6ecea"/><stop offset="1" stop-color="#ddd7e2"/></linearGradient><linearGradient id="e69a93ab-567a-4e8b-88ae-bae0890f8793" x1="432.72" y1="684.25" x2="428.45" y2="576.8" gradientUnits="userSpaceOnUse"><stop offset="0.14" stop-color="#f6ecea"/><stop offset="0.62" stop-color="#eae2e6"/><stop offset="1" stop-color="#ddd7e2"/></linearGradient><linearGradient id="b19dd4ef-9499-4f7a-b17c-c9257ec35558" x1="315.7" y1="765.7" x2="306.4" y2="615.41" gradientTransform="translate(0.36 -53.33) rotate(-0.07)" xlink:href="#a27bf6e9-77bb-429a-b867-f4e46c3ba32d"/><linearGradient id="b222ac43-5d13-4e4b-b9be-3a9c5840cd1f" x1="615.04" y1="723.74" x2="601.16" y2="499.49" xlink:href="#a27bf6e9-77bb-429a-b867-f4e46c3ba32d"/><linearGradient id="fbdeaee1-2d7a-47dc-b262-2e7619b58f7e" x1="127.63" y1="1492.05" x2="127.23" y2="1439.89" gradientTransform="translate(541.07 -1324.85) scale(0.88 1)" xlink:href="#a27bf6e9-77bb-429a-b867-f4e46c3ba32d"/><clipPath id="b64993e5-f018-413e-b787-e7f408875256"><path id="bf0794d8-63d1-4753-ae60-56801076b64c" data-name="SVGID" d="M509.67,115.17s.7-4.17,3.48-4.17c0,0,65.7-.35,94.2,12.69,0,0,6.26,24.16-7.3,93.33l-9.39,47.27s-47.62,1-71.25,8L520.1,233a24.43,24.43,0,0,0,1.24-4.16,5.47,5.47,0,0,0-1.44-4.95c-1.15-1.13-2.42-3.81-.49-10,0,0,.26-16.55-2.48-27.11,0,0-4.13,10.25-16.12,17.9,0,0,2.26-7-22.6-28.16,0,0-23.63-20.68-18.77-3,0,0-2.51,1.25-2.62-3.6a14.7,14.7,0,0,1,.68-4.7,25.93,25.93,0,0,0,1.25-6s3.23-17,9.85-13.82a1.26,1.26,0,0,0,1.41-.2C473.53,142,490.77,125.94,509.67,115.17Z" fill="#f48225" data-secondary="true"/></clipPath><clipPath id="b8e4a659-9b05-493e-881a-dd1bad972fe7"><path id="ea08aa2e-bec9-4b13-bb6e-b873ee0c5a7a" data-name="SVGID" d="M607.35,123.69s4-5.87,6.18-2c0,0,2.09,6.26,2.83,17.69a16.62,16.62,0,0,0,2.93,8.39A64.44,64.44,0,0,0,633,162.36s5.84,3.68,6,10.16c-.24.09,6.41,30,10,32,0,0-19.46,2.6-34.16,11.89l-.22-9.72s-5.67-1.94-4.62-4.93a18.93,18.93,0,0,0,1.1-9.38l-3.83-23.32S609.59,143.87,607.35,123.69Z" fill="#f48225" data-secondary="true"/></clipPath></defs><g style="isolation:isolate"><g id="b56fa91f-5ac1-44b4-9453-37cf299ec987" data-name="Layer 1"><path d="M663.4,190.66c-1.89-10.6-7.26-21-16.35-27-17.42-11.55-41.12-3.87-59.76,5.78.34-7.11,3.68-13.29,5.74-20.12s.84-15.9-5.91-18.56c-4.85-1.9-10.39.44-14.54,3.56s-7.75,7.09-12.54,9.15c22.72-26.31,39.65-56.25,55.41-87,3.51-6.83,6.87-13.9,7.86-21.47s-.71-15.83-6.21-21.25c-8.69-8.59-23.22-7.29-35-3.53a118.19,118.19,0,0,0-54.23,36.26c-2.35,2.8-5.88,5-9.56,4.71a7.88,7.88,0,0,1-7-7.17c-.24-5,4.27-10.64.9-14.37-9.18-10.15-27.89-6.4-40.31-.31s-22.73,15.5-33.23,24.4S417,71.27,403.74,75.4c-4.86,1.52-10.32,2.35-14.93.24S381.24,67.5,384,63.29c-2.38-4.54-8-3.39-12.65-1s-7.87,6.65-11.64,10.19a23.8,23.8,0,0,1-6.33,4.42c3.13-11,7.51-26.13,10.35-36.23,1.11-4,2-8.79-1-11.65-2.35-2.23-6.08-2.16-9.32-1.66-16.77,2.61-31.54,12.88-42.5,25.59-7.4,8.6-13.26,18.3-18.48,28.35a9.63,9.63,0,0,0,8.88,14.06l.78,0c-30.8,39.75-63,80.85-78.19,128.46-2.13,6.71-3.93,13.93-2,20.69s8.84,12.64,15.85,11.11c6.57-1.46,11.45-8.72,18.12-7.89,6.94.86,9.31,10.55,5.61,16.36s-10.77,8.53-17.34,10.88c-6.67,9.31-3.81,23.85,6,29.95-15.45,15.6-28.23,34.18-35.42,54.72-5.61,16-8,34.83,1.58,48.88,4.84,7.1,12.33,12.3,16.49,19.8,4.64,8.38,4.46,18.68,1.68,27.82s-7.94,17.38-13,25.52c-5.46,8.71-4.8,20.3-5.89,30.46s1.9,21.94,11.15,26.68c7.78,4,17.36,1.69,25.41-1.8a94.39,94.39,0,0,0,34.16-25.24c13.53.77,23,11.19,26.12,24.09s2.67,26.7,8.06,38.85c3.91,8.79,12.13,16.81,21.92,16.43,6.67-.26,12.52-4.29,17.7-8.41a203.1,203.1,0,0,0,35.3-36c8.13,6.77,12.09,17,18.7,25.2,8.08,10,23.58,11.93,35.79,7.38S471.42,565,479.4,554.87c11,17,34.45,22.46,54.46,17.5s36.61-18.63,50.38-33.69c34.89-38.16,56.17-88,59.31-139.11.67-10.8.11-22.78-7.46-30.64-9.17-9.5-24.47-9.05-37.79-7.91,33.3-39.37,55.15-87.91,63.9-138.27C664,212.15,665.28,201.25,663.4,190.66ZM301.6,405.49a321.93,321.93,0,0,0-37.87,56.9c-2.47,4.74-6.82,10.44-12,8.68-2.93-1-4.51-4.27-4.46-7.3s1.37-5.9,2.67-8.66c3.8-8.08,7.38-16.79,11.18-24.87-2.19,3.76-8.78,1.9-10.41-2.12s0-8.53,1.61-12.56q6.17-15.24,12.69-30.34l1.42.38c2.81-1.93,4.46-5.07,5.76-8.18s2.42-6.36,4.54-9,5.6-4.56,8.94-3.82,4.11,5.4,2.08,8.11a24.58,24.58,0,0,0,17.18,4C306.85,386.25,307.87,398,301.6,405.49ZM417.37,188,403,208.37c-4.79,6.79-9.66,13.66-16,19.07s-14.52,9.3-22.94,9-18.15-4.56-20.37-12.51c1.74-4.41,3.52-9,2.93-13.73s-4.38-9.36-9.2-9.24c-3.61.09-6.6,2.67-9.13,5.21a130.88,130.88,0,0,0-14.24,17c-3.1,4.4-6.76,9.49-12.2,9.77-4.35.21-8.34-3.12-9.69-7.17s-.43-8.58,1.55-12.38a48.9,48.9,0,0,1,6.91-10.69c2.14-2.36,4.36-4.9,4.89-8s-.85-6.54-4.06-6.73c-1.75,2.65-3.64,5.43-6.55,6.8s-7.09.66-8.28-2.27c-1-2.39.36-5,1.68-7.28q5.55-9.41,11.57-18.56l-.43-1a202.28,202.28,0,0,1,33.27-42.66c3-2.92,6.2-5.84,10.2-7.19s9-.72,11.58,2.54,2.08,7.84,1,11.81a54.27,54.27,0,0,1-9.83,19.43c-1.22,1.54-2.62,3.3-2.31,5.23s4.26,3,4.92,1.18c1.93-1.54,4-3.1,6.45-3.57s5.37.5,6.27,2.78,1,4.56,2.36,6.48a51.57,51.57,0,0,1,23.8-20.92c5.23-2.26,11.2-3.66,16.63-1.94s10.72,7.57,9.24,13a9.73,9.73,0,0,0-.4,14.13c.7-.22.86-.21.24-.59l12.11.15C425.32,173.24,421.93,181.51,417.37,188ZM609.43,410.5c1.84,12.67-3.34,25.22-8.41,37l-17.89,41.68c-3.27,7.62-6.76,15.54-13.22,20.86s-16.85,7.05-23.15,1.58c-3.63,5.71-8.48,12.28-14,16.35s-13.11,6-19.3,3.14c-4.73-2.21-7.86-6.89-9.33-11.82s-1.52-10.14-1.54-15.28c8.32-11.4,13.54-22.89,19.12-35.8-5.84-11.68-7.37-23.83-3.38-36.26A52.44,52.44,0,0,1,543,402.41c1.56-8.25,7.38-14,15.24-17.33A27.2,27.2,0,0,1,582.85,387l.09,1C595.8,385.62,607.59,397.82,609.43,410.5Zm-3.28-203.13c-2.43,3.85-5.43,7.54-6.37,12,2.56-.14,2.31,4.1,2.72,6.58s-.46,5-1.33,7.34c-10.52,28.46-26.52,56.48-52.49,72.91-5.91,3.74-14.42,6.56-19.35,1.67-4.14-4.12-2.77-11.08.06-16.16s6.94-9.75,7.71-15.48c-6.32,5-19.45,7.36-25.53,2.08s-8.41-13.92-7.24-21.8,5.43-15.08,10.72-21.14,11.63-11.15,17.75-16.42a350,350,0,0,0,26.39-25.27c1.35-1.43,4.22-2.33,4.73-.45s0,3.9.27,5.83a6.8,6.8,0,0,0,6,5.45,6.91,6.91,0,0,0,6.89-4.35l-.14,3.24c3.9-5.7,8.12-11.67,14.51-14.49s15.49-.82,17.65,5.68C610.53,198.86,608.58,203.52,606.15,207.37Z" fill="url(#a27bf6e9-77bb-429a-b867-f4e46c3ba32d)" style="mix-blend-mode:multiply"/><path d="M680.3,605c.06,4-4,7.93-11.33,11.51-18.09,8.82-56.15,15.65-101.87,17.76q-9.72.43-19.87.59l-3.55,0c-2.06,1.87-6.49,1.8-8.76,1.76-2.65,0-4.19-.38-5.66.51-2.3,1.36-1.87,5.1.79,5.21,5.06.19,10.28.44,14.87,2.61s8.42,6.81,8.05,11.9-4.2,8.35-8.25,11.64l-18.54,1.33-147.13,5.67c-3.9.15-7.62.15-11.51,0-4.3-.15-6.92-4.38-7.42-8.27s.82-8.38,5.88-8.92c3.29-.34,6.77-1.22,7-4.53s-2.39-6.28-5.42-7.62-6.44-1.36-9.73-1.38c-30.63-.16-58.44-.5-90.35,1.28-11.85.67-24.51,1.45-36.34.63a17.82,17.82,0,0,1-7.58-1.75c-2.3-1.28-4.09-3.79-3.75-6.4.31-2.41,2.3-4.26,4.42-5.4s4.49-1.79,6.56-3c4.73-2.81,15.75-5.92,6.16-12a34.36,34.36,0,0,0-5-.7h0l-.62,0h-.07c-.58,0-1.16-.05-1.74-.05a192.53,192.53,0,0,1-27.36-2.69c-2.15-.4-4.19-.83-6.1-1.29-10.47-2.55-16.92-6.15-17.26-10.43-.41-5,7.55-9.92,20.75-13.89h0a162.16,162.16,0,0,1,17.74-4.14A271.24,271.24,0,0,1,251.43,581c4.5-.24,8.9-.36,13.19-.4,5.75,0,11.28.08,16.51.36,6.05.32,11.7.85,16.83,1.57A105.59,105.59,0,0,1,314.1,586a163.14,163.14,0,0,0,37.67-6.19c-2.07-4.09,2.06-10,6.55-9.3q43.9-4.22,88.07-4.53c6.27,0,12.92.07,18.21,3.43s8.58,10.24,4.72,15.2q5.71-.54,11.45-1A563.21,563.21,0,0,1,546.42,579C620.15,577.94,680.08,589.56,680.3,605Z" fill="url(#e69a93ab-567a-4e8b-88ae-bae0890f8793)"/><ellipse cx="313.4" cy="654.46" rx="40.4" ry="6.15" transform="translate(-18.98 9.43) rotate(-1.67)" fill="url(#b19dd4ef-9499-4f7a-b17c-c9257ec35558)"/><ellipse cx="610.11" cy="644.06" rx="52.67" ry="9.38" fill="url(#b222ac43-5d13-4e4b-b9be-3a9c5840cd1f)"/><ellipse cx="558.43" cy="590.19" rx="37.36" ry="5.08" fill="#fff"/><ellipse cx="349.06" cy="619.2" rx="41.82" ry="5.02" fill="#fff"/><path d="M464.91,643.82c1.24.43,1.9.9,1.9,1.37,0,2.5-18.09,4.51-40.39,4.51s-40.4-2-40.4-4.51c0-1.86,10-3.45,24.38-4.14-2-.65-3.13-1.35-3.13-2.09,0-3,18.08-5.37,40.39-5.37S488.05,636,488.05,639C488.05,641.11,478.59,643,464.91,643.82Z" fill="#fff"/><ellipse cx="652.8" cy="50.04" rx="36.15" ry="9.67" transform="translate(223.32 544.2) rotate(-53.39)" fill="url(#fbdeaee1-2d7a-47dc-b262-2e7619b58f7e)" style="mix-blend-mode:multiply"/><ellipse cx="585.36" cy="75.8" rx="6" ry="3.04" transform="translate(408.09 638.81) rotate(-79.9)" fill="#fccdc3"/><path d="M585.28,78.2a.46.46,0,0,0,.27-.55c-1-3.61.85-5,.93-5a.45.45,0,0,0,.11-.64.46.46,0,0,0-.64-.12c-.1.07-2.46,1.75-1.29,6a.46.46,0,0,0,.57.32Z" fill="#fc9189"/><path d="M587.09,75.53a.45.45,0,0,0,.24-.23.47.47,0,0,0-.21-.62,2.66,2.66,0,0,0-2.56.26.46.46,0,0,0-.12.64.46.46,0,0,0,.64.12,1.71,1.71,0,0,1,1.63-.19A.5.5,0,0,0,587.09,75.53Z" fill="#fc9189"/><ellipse cx="541.22" cy="75.28" rx="3.04" ry="6" transform="translate(-4.06 110.76) rotate(-11.64)" fill="#fccdc3"/><path d="M541.19,78a.47.47,0,0,1-.28-.55c1-3.62-.84-5-.92-5a.48.48,0,0,1-.12-.65.46.46,0,0,1,.64-.11c.1.06,2.47,1.74,1.3,6a.46.46,0,0,1-.57.32Z" fill="#fc9189"/><path d="M539.38,75.31a.47.47,0,0,1-.24-.22.45.45,0,0,1,.2-.62,2.62,2.62,0,0,1,2.56.25.46.46,0,0,1-.52.77,1.68,1.68,0,0,0-1.62-.2A.46.46,0,0,1,539.38,75.31Z" fill="#fc9189"/><ellipse cx="563.5" cy="70.23" rx="22.36" ry="33.44" fill="#fccdc3"/><path d="M233.28,128.85A106.47,106.47,0,0,0,130.81,247q1.09,10,2.26,20.35c2.06,18.48,4.24,37.82,6.44,57.32,12.05,106.53,25,217.65,25,217.65H326.14S336.2,364.51,343,241.08A106.46,106.46,0,0,0,233.28,128.85Z" fill="#dad4f9"/><path d="M333.35,240.55c-5.81,106.18-14.16,254.31-16.3,292.15h-144c-3.25-28-14-120.66-24-209.11q-.33-2.88-.64-5.68c-2.19-19.4-4.1-36.34-5.8-51.62-.18-1.58-.35-3.15-.53-4.71q-.89-8-1.73-15.64a96.74,96.74,0,0,1,93.21-107.48c1,0,2.09-.05,3.13-.05a96,96,0,0,1,38.9,8.14,97.09,97.09,0,0,1,51.73,54.62A96.23,96.23,0,0,1,333.35,240.55Z" fill="#e6e7e8"/><g opacity="0.2"><path d="M295.84,532.7,262.75,231.16l58-44a97.89,97.89,0,0,0-30.29-32.46L142.1,261.58c.18,1.56.35,3.13.53,4.71,1.7,15.28,3.61,32.22,5.8,51.62l4.43-3.37,62,218.16h23.66L187.16,288.52,245.79,244,277.47,532.7Z" fill="#fff" style="mix-blend-mode:screen"/></g><polygon points="192.85 591.56 191.22 598.92 204.85 600.56 206.76 592.65 192.85 591.56" fill="#fccdc3"/><path d="M192.39,580s-8.26-1.78-8,2.31l3.82,11.45,26.18,1.36s2.39-5.14-.72-9.79Z" fill="#21224f"/><path d="M192.39,580s-8.26-1.78-8,2.31l3.82,11.45,26.18,1.36s2.39-5.14-.72-9.79Z" opacity="0.2"/><path d="M189,598.1l-.63,7.43a2.78,2.78,0,0,1-2.28,2.5l-25.49,4.69a4,4,0,0,0-3.23,3.7h0a4,4,0,0,0,4,4.14l42.2-.3a3,3,0,0,0,2.87-3.61l-.55-2.41a14.08,14.08,0,0,1,1-9.19l2.74-5.67Z" fill="#21224f"/><rect x="367.77" y="501.88" width="11.74" height="77.12" fill="#686175" data-primary="true"/><rect x="367.77" y="501.88" width="11.74" height="77.12" opacity="0.2" style="mix-blend-mode:multiply"/><rect x="364.42" y="501.88" width="11.74" height="77.12" fill="#686175" data-primary="true"/><polygon points="382.86 499.79 392.92 515.29 428.55 515.29 428.55 511.52 395.02 511.52 387.47 498.53 382.86 499.79" fill="#686175" data-primary="true"/><path d="M437.27,517.63l-8.44-.57a3.89,3.89,0,0,1-3.62-3.68h0a3.89,3.89,0,0,1,3.48-4.06l8.49-.87a2.43,2.43,0,0,1,2.69,2.42v4.33A2.44,2.44,0,0,1,437.27,517.63Z" fill="#686175" data-primary="true"/><path d="M437.27,517.63l-8.44-.57a3.89,3.89,0,0,1-3.62-3.68h0a3.89,3.89,0,0,1,3.48-4.06l8.49-.87a2.43,2.43,0,0,1,2.69,2.42v4.33A2.44,2.44,0,0,1,437.27,517.63Z" opacity="0.2" style="mix-blend-mode:multiply"/><path d="M368.53,571.53h7.64a9.71,9.71,0,0,1,9.71,9.71V595.5a0,0,0,0,1,0,0H358.81a0,0,0,0,1,0,0V581.25A9.71,9.71,0,0,1,368.53,571.53Z" fill="#686175" data-primary="true"/><path d="M368.53,571.53h7.64a9.71,9.71,0,0,1,9.71,9.71V595.5a0,0,0,0,1,0,0H358.81a0,0,0,0,1,0,0V581.25A9.71,9.71,0,0,1,368.53,571.53Z" fill="#fff" opacity="0.2"/><path d="M385.89,595.5l66.48,26.57a.49.49,0,0,1-.18.94l-164.34-.33a.49.49,0,0,1-.17-.95l71.13-26.23Z" fill="#686175" data-primary="true"/><path d="M312.23,622.67l122.57-7.6,17.57,7s.77.68-.18.94Z" opacity="0.2" style="mix-blend-mode:multiply"/><path d="M403.65,485.72l23,1-.29-29.13a45.1,45.1,0,0,0-10.84,7.93A46.44,46.44,0,0,0,403.65,485.72Z" fill="#686175" data-primary="true"/><path d="M403.65,485.72l23,1-.29-29.13a45.1,45.1,0,0,0-10.84,7.93A46.44,46.44,0,0,0,403.65,485.72Z" opacity="0.2" style="mix-blend-mode:multiply"/><polyline points="432.87 450.18 466.92 294.53 481.17 294.88 464.83 446.44" fill="#686175" data-primary="true"/><polyline points="432.87 450.18 466.92 294.53 481.17 294.88 464.83 446.44" opacity="0.2" style="mix-blend-mode:multiply"/><polygon points="474.91 288.28 463.43 288.98 470.27 248.48 475.26 247.96 474.91 288.28" fill="#686175" data-primary="true"/><polygon points="474.91 288.28 463.43 288.98 470.27 248.48 475.26 247.96 474.91 288.28" opacity="0.2" style="mix-blend-mode:multiply"/><polygon points="470.27 248.48 463.43 288.98 390.79 280.63 425.9 254.56 470.27 248.48" fill="#686175" data-primary="true"/><path d="M310.58,395.75H227.73a7.13,7.13,0,0,1-7.13-7.13h0a3.83,3.83,0,0,1,3.83-3.82h88a1.37,1.37,0,0,1,1.34,1.67l-1.83,8.2A1.36,1.36,0,0,1,310.58,395.75Z" fill="#926ef6"/><polygon points="283.67 597.29 285.58 602.74 300.58 604.81 297.57 592.92 283.67 597.29" fill="#fccdc3"/><path d="M195.61,465.47,259.85,472l51,46s3.84-42.55-2.86-80.21l-71.7-23.72-3.39,6.26-7.56,1.56,1.31,4.17-6.52,1.83-2.61,15.12S198.32,448.94,195.61,465.47Z" fill="#bbb9ef"/><path d="M202.77,453.28s33,63.62,47.11,80.39c0,0,26.89,41.79,29,56.69l-.29.16a1.86,1.86,0,0,0-.69,2.5l3.1,5.59s14.22-2.75,19.92-2.4a.66.66,0,0,0,.56-1.05c-1.19-1.61-2.81-4.43-1.91-6.86a6.24,6.24,0,0,0-.31-4.77l-2.48-5.35a20.88,20.88,0,0,1-1.61-5.12l-14.7-82.51s-2.93-14.38-17.83-24.49l-45.15-23S202.77,448.76,202.77,453.28Z" fill="#21224f"/><path d="M202.77,453.28s33,63.62,47.11,80.39c0,0,26.89,41.79,29,56.69l-.29.16a1.86,1.86,0,0,0-.69,2.5l3.1,5.59s14.22-2.75,19.92-2.4a.66.66,0,0,0,.56-1.05c-1.19-1.61-2.81-4.43-1.91-6.86a6.24,6.24,0,0,0-.31-4.77l-2.48-5.35a20.88,20.88,0,0,1-1.61-5.12l-14.7-82.51s-2.93-14.38-17.83-24.49l-45.15-23S202.77,448.76,202.77,453.28Z" opacity="0.2"/><rect x="549.97" y="96.63" width="27.25" height="24.29" fill="#fccdc3"/><path d="M679.65,323.73s5.56-.87,5.74,5l-.11,3.28a2.85,2.85,0,0,1-2.81,2.8,1.51,1.51,0,0,1-1.6-1.38S682.08,327.73,679.65,323.73Z" fill="#fccdc3"/><path d="M656.68,218.63s-1.9,2.73-8.12,5.72l-.23-8.52Z" fill="#f48225" data-secondary="true"/><polygon points="593.47 121.62 583.71 121.62 583.71 114.13 593.45 116.21 593.47 121.62" fill="#5f2e9b"/><path id="fdf23c24-d5a9-4827-85df-cdfa7a240ffa" data-name="SVGID" d="M509.67,115.17s.7-4.17,3.48-4.17c0,0,65.7-.35,94.2,12.69,0,0,6.26,24.16-7.3,93.33l-9.39,47.27s-47.62,1-71.25,8L520.1,233a24.43,24.43,0,0,0,1.24-4.16,5.47,5.47,0,0,0-1.44-4.95c-1.15-1.13-2.42-3.81-.49-10,0,0,.26-16.55-2.48-27.11,0,0-4.13,10.25-16.12,17.9,0,0,2.26-7-22.6-28.16,0,0-23.63-20.68-18.77-3,0,0-2.51,1.25-2.62-3.6a14.7,14.7,0,0,1,.68-4.7,25.93,25.93,0,0,0,1.25-6s3.23-17,9.85-13.82a1.26,1.26,0,0,0,1.41-.2C473.53,142,490.77,125.94,509.67,115.17Z" fill="#f48225" data-secondary="true"/><g clip-path="url(#b64993e5-f018-413e-b787-e7f408875256)"><path d="M516.93,186.78l3-3.52a.39.39,0,0,1,.69.18,69.22,69.22,0,0,0,3.12,11.66,14.94,14.94,0,0,1,.45,9.3A29.14,29.14,0,0,1,522,210a11.15,11.15,0,0,0-1.21,5,20.68,20.68,0,0,0,1.14,7.52,10.48,10.48,0,0,1,.26,7.8,5.44,5.44,0,0,1-2.1,2.76l-3.82-18.6Z" opacity="0.2" style="mix-blend-mode:multiply"/></g><path d="M509.67,115.17s14.95,18.16,14.43,46.06c0,0-3.26-31.81-17.21-44.58Z" opacity="0.2" style="mix-blend-mode:multiply"/><path d="M491.67,199s6,7.36,9.14,5.69c0,0,1-6.33-10.17-16.43Z" fill="#f48225" data-secondary="true"/><path d="M459.44,173.57l2.37,1.19,1-8.39S456.73,164.32,459.44,173.57Z" fill="#f48225" data-secondary="true"/><path id="e6e1f54b-ce4f-4c63-9dd3-955e172c61b2" data-name="SVGID" d="M607.35,123.69s4-5.87,6.18-2c0,0,2.09,6.26,2.83,17.69a16.62,16.62,0,0,0,2.93,8.39A64.44,64.44,0,0,0,633,162.36s5.84,3.68,6,10.16c-.24.09,6.41,30,10,32,0,0-19.46,2.6-34.16,11.89l-.22-9.72s-5.67-1.94-4.62-4.93a18.93,18.93,0,0,0,1.1-9.38l-3.83-23.32S609.59,143.87,607.35,123.69Z" fill="#f48225" data-secondary="true"/><g clip-path="url(#b8e4a659-9b05-493e-881a-dd1bad972fe7)"><path d="M607.26,169.06s1.13-8.7,1.13-13.91l7.16,18.15a30.71,30.71,0,0,1,2.1,9.92l0,.57a6.81,6.81,0,0,0,1.3,3.74,16.48,16.48,0,0,1,3.32,11.07l-1.39,14.94-6.08,2.87-.22-9.72s-6-2.18-4.37-5.35a10.74,10.74,0,0,0,1.24-6.63Z" opacity="0.2"/></g><path d="M615.3,228.49l-.47-12.08S632.71,205,652,204.35a1.26,1.26,0,0,1,1.18.71,36.51,36.51,0,0,1,3.72,12.72,1.27,1.27,0,0,1-1.17,1.36C650.57,219.54,630.08,221.5,615.3,228.49Z" fill="#f48225" data-secondary="true"/><path d="M615.3,228.49l-.47-12.08S632.71,205,652,204.35a1.26,1.26,0,0,1,1.18.71,36.51,36.51,0,0,1,3.72,12.72,1.27,1.27,0,0,1-1.17,1.36C650.57,219.54,630.08,221.5,615.3,228.49Z" opacity="0.2"/><path d="M677.72,322.5c-1.72-.69-2.3-.94-2.32-1.82a33.23,33.23,0,0,0-.33-4.67c-3.19-19.62-10.51-48.26-10.51-48.26C658.69,241.2,650,226.16,650,226.16l.24-6.34c-22.32,1.64-34.93,8.67-34.93,8.67l1.33,10.36a8.06,8.06,0,0,1,5.55,7,30.78,30.78,0,0,0,4,12.75l37.32,63.11a7.5,7.5,0,0,1,1,4.09c-.15,4.08-.18,12.63,2.19,14,0,0,11.21,3.39,14.52-3.39C681.22,336.42,685.52,325.61,677.72,322.5Z" fill="#fccdc3"/><path d="M668.1,342.69h0a1.71,1.71,0,0,1-2-1.47l-.52-4.34a1.35,1.35,0,0,1,1-1.47h0a1.37,1.37,0,0,1,1.69.93l1.2,4.2A1.71,1.71,0,0,1,668.1,342.69Z" fill="#fccdc3"/><path d="M672.7,343.82h0a1.91,1.91,0,0,1-2.1-1.79l-.67-5.1a1.51,1.51,0,0,1,.93-1.7h0a1.46,1.46,0,0,1,1.74,1.16l1.35,5A1.91,1.91,0,0,1,672.7,343.82Z" fill="#fccdc3"/><path d="M679.07,345.57h0c-1,.27-2-.58-2.28-1.86l-1.24-5.57a1.62,1.62,0,0,1,.74-1.91h0c.7-.28,1.52.24,1.85,1.17l1.89,5.38C680.46,344,680,345.3,679.07,345.57Z" fill="#fccdc3"/><path d="M681.22,336.42l10,8a1.6,1.6,0,0,0,2.09-.07h0a1.61,1.61,0,0,0,0-2.34l-8-7.85s-.7,1.74-4,1.8Z" fill="#fccdc3"/><path d="M684.86,334.86v2.6l14.1,5.81a7.63,7.63,0,0,0,1.39.41l35.27,6.47-26.75-2.33a.27.27,0,0,0-.16.5L732,361.27l-6.35-2.3-27.48-12a4,4,0,0,0-1.23-.31l-14.83-1.16-.86-2.43,12.56,1.37a.3.3,0,0,0,.16-.56l-10.12-5-.43-3.08Z" fill="#d1d3d4"/><path d="M678.09,341.59a5.3,5.3,0,1,0,5.3,5.3A5.3,5.3,0,0,0,678.09,341.59Zm0,9a4,4,0,1,1,4-4A4,4,0,0,1,678.14,350.62Z" fill="#d1d3d4"/><path d="M682.39,325.49a5.3,5.3,0,1,0,5.3,5.3A5.3,5.3,0,0,0,682.39,325.49Zm.05,9a4,4,0,1,1,4-4A4,4,0,0,1,682.44,334.53Z" fill="#d1d3d4"/><path d="M525.31,111.35s23.64,85.51,6.26,158.16l6.26-1.05S552.78,123.86,525.31,111.35Z" fill="#5f2e9b"/><path d="M511.64,290l-4-11.66s9-8,25.69-9.19l-2.06,13.18S518.7,284.2,511.64,290Z" fill="#f48225" data-secondary="true"/><path d="M511.64,290l-4-11.66s9-8,25.69-9.19l-2.06,13.18S518.7,284.2,511.64,290Z" opacity="0.2" style="mix-blend-mode:multiply"/><path d="M514.89,287.58s-9.74,27.46-8.35,38.24v61.52S501.68,451,506.2,461c0,0-14.26,36.84-5.57,59.78,0,0,10.43,40.33,10.43,49.71,0,0,17,.7,21.55,2.09,0,0-2.43-29.2,4.87-46.23,0,0,10.43-17.38,3.48-41.72,0,0-3.48-19.11-1.05-30.59l5-173.71S528.44,281.33,514.89,287.58Z" fill="#21224f"/><polygon points="528.36 600.08 515.41 600.08 511.76 574.36 530.18 574.36 528.36 600.08" fill="#fccdc3"/><path d="M596.23,459.65s15.64,30.24,12.16,49c0,0-5.91,31.63,30.59,73a114,114,0,0,1,19.12-1.74S646.63,523.61,648,510.74c0,0,3.82-3.12-1.39-12.86,0,0-5.91-4.17-.7-12.86,0,0,2.44-1.74-1.39-5.21,0,0-6.68-14.58-7-18.06C637.51,461.75,623,461,596.23,459.65Z" fill="#21224f"/><polygon points="641.07 585.48 650.45 612.24 665.75 608.07 657.4 582 641.07 585.48" fill="#fccdc3"/><path d="M646.19,603c.58,1.42,2.89,7.7.35,13.43,0,0-1.44,4.57,0,6.26h55.24a1.48,1.48,0,0,0,1.16-2.4c-1.18-1.5-4.15-3.44-11.38-5.06l-22-6.12a2.35,2.35,0,0,1-1.66-1.77l-2.3-10.71a4.66,4.66,0,0,0-5.72-3.54l-3.22.84a4.65,4.65,0,0,0-3.16,6.2l1.76,4.5a2.15,2.15,0,0,1-.89,2.62h0a2.14,2.14,0,0,1-3-.78c-.92-1.66-2.56-3.73-5-3.77A.21.21,0,0,0,646.19,603Z" fill="#21224f"/><path d="M512,594.21l18.65.54a.89.89,0,0,1,.84,1l-2.28,11.51a5.48,5.48,0,0,0,1.13,4.5,15.92,15.92,0,0,1,3.47,11.56H499.5s1.39-10.48,11.9-14.25a3.67,3.67,0,0,0,2.28-4.42l-2.52-9.38A.88.88,0,0,1,512,594.21Z" fill="#21224f"/><path d="M516.41,589.89l3.88,14.7a2.5,2.5,0,0,0,2.49,1.86l1.74-.05A2.51,2.51,0,0,0,527,604l.41-14a1.37,1.37,0,0,0-1.31-1.41l-8.25-.38A1.37,1.37,0,0,0,516.41,589.89Z" fill="#21224f"/><path d="M516.41,589.89l3.88,14.7a2.5,2.5,0,0,0,2.49,1.86l1.74-.05A2.51,2.51,0,0,0,527,604l.41-14a1.37,1.37,0,0,0-1.31-1.41l-8.25-.38A1.37,1.37,0,0,0,516.41,589.89Z" opacity="0.2"/><path d="M375,253.78s0-3.65,22.42-7c0,0,16.94-5,21.37.26L393,253.26Z" fill="#f48225" data-secondary="true"/><path d="M375,253.78s0-3.65,22.42-7c0,0,16.94-5,21.37.26L393,253.26Z" opacity="0.2"/><path d="M423.73,253.52l8.19,1.37a20.1,20.1,0,0,1,10.79,5.53l17.62,17.47a20.63,20.63,0,0,1,6,13,215,215,0,0,1-7.45,73.14s-13.37,69.48-32.85,93.42a57.42,57.42,0,0,0-4,5.53L403.7,492.15a16.73,16.73,0,0,1-9,7c-11.34,3.71-23.72,7.27-37.06,10.42a458,458,0,0,1-46.83,8.5c.49-9.1.64-18.67.62-28.66,0-16.24-.75-36.29-3.48-51.55l-71.7-23.72-3.39,6.26-7.56,1.56,1.31,4.17-6.52,1.83-2.61,15.12s-17.73,6.52-21.9,22.42c0,0-14.08-26.33,3.13-63.87L234.29,388A52.8,52.8,0,0,0,259,368.5c10.5-15.32,30-41.15,55.19-62.47a10.45,10.45,0,0,1,6.71-2.46h1.91a.66.66,0,0,0,.51-1.07l-1.67-2.05a.67.67,0,0,1,.5-1.1l5.69-.21-1.42-5.66a8.51,8.51,0,0,1,2.44-8.27c7.69-7.2,26.54-23.62,46.17-31.43C375,253.78,415.65,246.22,423.73,253.52Z" fill="#e6dffe"/><path d="M246.42,417.62l-21.09,4.31,1.31,4.17-6.52,1.83s-17.62,63.95-20,96.95L192.39,580l21.29,5.33s13.58-50.84,30.61-69.74c0,0,27.68-24.49,25-59.36,0,0-1.59-6.12,7.19-5.06,0,0,27.15.54,32.74-3.46L308,437.83Z" fill="#21224f"/><path d="M311.36,495.19l71.84-4.36a15.35,15.35,0,0,0,11.43-6.2l37.75-51.11,30.75-119.4L458,281.32l8.91,23.47s1.39,25.2-8,59.27c0,0-12.53,67.61-32.85,93.42,0,0-7.82,10.68-15.81,24.41l-6.56,10.26s-1.73,4.39-9,7c0,0-33.83,12.06-83.89,18.92C310.84,518,311.89,499.62,311.36,495.19Z" fill="#cbc6f4"/><path d="M423.73,253.52l12.67,2.57a9.19,9.19,0,0,1,4.66,2.51l19.27,19.29c8.7,5.61,6.59,26.9,6.59,26.9L458,281.32l5.12,32.8-30.75,119.4-37.75,51.11a13.58,13.58,0,0,1-11.43,6.2l-71.84,4.36c1.57-28.42-3.38-57.36-3.38-57.36l-71.7-23.72-3.39,6.26.79-11.13,65.69,11.13-7.65-21.21-28.85-4.86,30.94-2.44L404.7,424.54l35.1-135.91c1.8-5.2,1.65-11,1.08-15.48a12.12,12.12,0,0,0-7.23-9.62l-14.35-6.19L387.66,270.9l-7-11.13s3.15,5.39,7.66,3.74C388.37,263.51,415.3,251.78,423.73,253.52Z" fill="#dad4f9"/><path d="M455.39,395.34H372.54a7.13,7.13,0,0,1-7.12-7.13h0a3.82,3.82,0,0,1,3.82-3.82h88a1.37,1.37,0,0,1,1.34,1.67l-1.82,8.21A1.38,1.38,0,0,1,455.39,395.34Z" fill="#686175" data-primary="true"/><path d="M480.12,446.43l.35,40.32H426.59l-.28-29.13a7.35,7.35,0,0,1,3.06-6.06,7.24,7.24,0,0,1,3.5-1.38l1.72-.2,30.24-3.55,16.34-151.55h13.55Z" fill="#686175" data-primary="true"/><path d="M522.88,111.1s5.56-.45,8.34,10.68c0,0,16.69,45.18,5.91,123.05,0,0-15.19,100.42-23.36,135.42a4.58,4.58,0,0,0,1.34,4.41h0a8.18,8.18,0,0,1,2.28,8.14l-17.24,61.92a5,5,0,0,0,5.26,6.37c23.46-1.91,98.05-6.6,131.26,7.72a2.68,2.68,0,0,0,3.75-2.62l-4.27-65.28a5.71,5.71,0,0,0-4.78-5.27h0a2,2,0,0,1-1.62-2.1l1.59-18.79a6.2,6.2,0,0,0-3.29-6h0a6,6,0,0,1-3.19-4.92l-8.23-125-1.15-29.92a6,6,0,0,0-2.7-4.66c-1.47-1-3.22-1.71-2.13-3.36a7.54,7.54,0,0,0,1-5.29c-2.12-14.3-10.19-65.68-18.24-79.41l-9.74-2.08s12.86,21.55,11.47,51.1l-46.92-2.79s-2.44-37.88-14.26-51.09C534,111.35,522.18,108.32,522.88,111.1Z" fill="#926ef6"/><polygon points="548.17 109.3 548.17 121.92 562.25 117.59 562.39 113.96 548.17 109.3" fill="#f48225" data-secondary="true"/><polygon points="582.02 109.9 581.42 119.32 569.51 116.98 569.42 113.92 582.02 109.9" fill="#f48225" data-secondary="true"/><g opacity="0.2" style="mix-blend-mode:multiply"><polygon points="548.17 109.3 548.17 121.92 562.25 117.59 562.39 113.96 548.17 109.3"/><polygon points="582.02 109.9 581.42 119.32 569.51 116.98 569.42 113.92 582.02 109.9"/></g><path d="M462.81,166.37s-2.13,21.74-10.74,29.15a8.4,8.4,0,0,0-2.9,5.56c-.75,7.7-1.64,24.52,3.94,30.71a5.88,5.88,0,0,0,1.68,1.26,623.32,623.32,0,0,0,81.26,35.06l10.89-15S525.27,238,491.79,208a1.36,1.36,0,0,1-.08-2c1-1,1.75-2.76-1.16-5.25,0,0-.65-2.14,7.62-4.1C498.17,196.73,481.9,174.31,462.81,166.37Z" fill="#fccdc3"/><path d="M549.91,256.38s10.69,9.39,12.77,15.39L545,280.37l-.52-8.86-2.34-1.31Z" fill="#fccdc3"/><polygon points="534.27 269.16 541.83 272.29 552.51 254.56 546.52 250.65 534.27 269.16" fill="#f48225" data-secondary="true"/><path d="M469.31,145.49l23.77,22.41a36.29,36.29,0,0,1,6.32,11.17,30.19,30.19,0,0,0,4.32,8.48c2.2,3,5,6.53,7.29,8,0,0,4.54,5.16-10.2,9.11,0,0,1.63-9.69-28.38-32.49,0,0-17.2-14.19-13,1.38,0,0-4.4,1.73-1.94-8.3a16.77,16.77,0,0,0,1.25-6S461.9,141.4,469.31,145.49Z" fill="#f48225" data-secondary="true"/><path d="M469.31,145.49l23.77,22.41a36.29,36.29,0,0,1,6.32,11.17,30.19,30.19,0,0,0,4.32,8.48c2.2,3,5,6.53,7.29,8,0,0,4.54,5.16-10.2,9.11,0,0,1.63-9.69-28.38-32.49,0,0-17.2-14.19-13,1.38,0,0-4.4,1.73-1.94-8.3a16.77,16.77,0,0,0,1.25-6S461.9,141.4,469.31,145.49Z" opacity="0.2" style="mix-blend-mode:multiply"/><path d="M533.67,582.88a36.77,36.77,0,0,0-11.45-3.47,36.39,36.39,0,0,0-13.74.88c.36-3.52.73-7,1.09-10.58a42.86,42.86,0,0,1,25.19,2.59Z" fill="#21224f"/><path d="M533.67,582.88a36.77,36.77,0,0,0-11.45-3.47,36.39,36.39,0,0,0-13.74.88c.36-3.52.73-7,1.09-10.58a42.86,42.86,0,0,1,25.19,2.59Z" opacity="0.2"/><path d="M661.26,584.36a76.49,76.49,0,0,0-23,3c-.32-2.47-.65-4.94-1-7.41a28.83,28.83,0,0,1,23-3C660.61,579.42,660.93,581.89,661.26,584.36Z" fill="#21224f"/><path d="M661.26,584.36a76.49,76.49,0,0,0-23,3c-.32-2.47-.65-4.94-1-7.41a28.83,28.83,0,0,1,23-3C660.61,579.42,660.93,581.89,661.26,584.36Z" opacity="0.2"/><polygon points="380.45 249.09 380.71 253.78 392.96 254.56 414.86 249.09 406.78 221.19 403.39 219.89 380.45 249.09" fill="#fccdc3"/><path d="M380.5,250l.21,3.79s23.23,1,22.68-33.89Z" fill="#fc9189"/><path d="M403.92,211.12c0,22-9.48,39.79-21.19,39.79s-21.18-17.82-21.18-39.79a71.22,71.22,0,0,1,1.5-14.75c1.86-8.73,5.31-15.92,9.69-20.33l.36-.36a17.81,17.81,0,0,1,2.45-2c.3.23.63.5,1,.82,0,0,2-7.89,13.54,4.57a8.72,8.72,0,0,0,5,2.76,5.49,5.49,0,0,1,2.63,1.07c.31.58.61,1.17.9,1.79C401.89,191.72,403.92,201,403.92,211.12Z" fill="#fccdc3"/><path d="M391.66,181l14.48-1.81a3.54,3.54,0,0,1,4,3.23c.42,5.47.77,16.77-2,25.71,0,0-2-1.41-5.29,2.59,0,0,.7-21.35-9.82-16.93Z" fill="#1d0031"/><path d="M391.66,181l14.48-1.81a3.54,3.54,0,0,1,4,3.23c.42,5.47.77,16.77-2,25.71,0,0-2-1.41-5.29,2.59,0,0,.7-21.35-9.82-16.93Z" opacity="0.2" style="mix-blend-mode:multiply"/><path d="M393,193.83s-11.81,4-29.69,2.88l-.22-.34c-1.41-2.24-8.93-14.88-2.37-20.13,0,0,6.19-4.57,12.06-.2.21.15-.21-.18,0,0,0,0,.5.14.36-.36-.43-1.59-1-4.66,2.45-2,.3.23.63.5,1,.82,0,0,2-7.89,13.54,4.57a8.72,8.72,0,0,0,5,2.76,5.49,5.49,0,0,1,2.63,1.07,2.51,2.51,0,0,1,.9,1.79C398.71,186.49,397.37,189.33,393,193.83Z" fill="#1d0031"/><ellipse cx="405.91" cy="214.41" rx="4.17" ry="7.3" fill="#fccdc3"/><path d="M380.71,253.78l0-.95c-1,.14-2,.3-3,.47s-1.8.31-2.67.48l8.59,8.8a4.29,4.29,0,0,0,4.8.93c7.17-3.15,26.72-11.26,35.36-10l-5-6.52L393,253.26Z" fill="#f48225" data-secondary="true"/><path d="M285.32,601.93l-.64,7.42a2.79,2.79,0,0,1-2.27,2.51l-25.49,4.68a4,4,0,0,0-3.23,3.7h0a3.94,3.94,0,0,0,4,4.14l42.2-.29a3,3,0,0,0,2.87-3.62l-.54-2.4a14,14,0,0,1,1.05-9.2l2.74-5.66Z" fill="#21224f"/><path d="M434.59,400.55V450l-1.72.2a7.24,7.24,0,0,0-3.5,1.38v-51Z" fill="#686175" data-primary="true"/><path d="M373.76,391.17H477a0,0,0,0,1,0,0v10.78a0,0,0,0,1,0,0H384.26a10.5,10.5,0,0,1-10.5-10.5v-.27A0,0,0,0,1,373.76,391.17Z" fill="#686175" data-primary="true"/><g opacity="0.2"><path d="M434.59,400.55V450l-1.72.2a7.24,7.24,0,0,0-3.5,1.38v-51Z" fill="#fff"/><path d="M373.76,391.17H477a0,0,0,0,1,0,0v10.78a0,0,0,0,1,0,0H384.26a10.5,10.5,0,0,1-10.5-10.5v-.27A0,0,0,0,1,373.76,391.17Z" fill="#fff"/></g><ellipse cx="550.54" cy="70.35" rx="2.27" ry="3.66"/><ellipse cx="574.25" cy="70.35" rx="2.27" ry="3.66"/><path d="M562,74.25l-1.07,5.26c-.18.85.26,1.71.88,1.71h3c.69,0,1.14-1.06.82-1.94L563.68,74C563.3,73,562.22,73.1,562,74.25Z" fill="#fc9189"/><path d="M373.84,222.12l-.95,5.26c-.15.86.24,1.71.78,1.71h2.61c.61,0,1-1.06.72-1.94l-1.66-5.26C375,220.82,374.05,221,373.84,222.12Z" fill="#fc9189"/><path d="M577.27,30.86c0,4.89-6.18,8.86-13.81,8.86s-13.81-4-13.81-8.86S555.83,22,563.46,22,577.27,26,577.27,30.86Z" fill="#1d0031"/><path d="M573.94,32.48c0,2.88-4.7,5.21-10.48,5.21S553,35.36,553,32.48s4.69-5.22,10.48-5.22S573.94,29.6,573.94,32.48Z" fill="#f48225" data-secondary="true"/><path d="M541.22,72.91s.09-18,7-27.39l-2.59-7.43S532.53,43.37,541.22,72.91Z" fill="#1d0031"/><path d="M585.77,73.18s-.67-18.49-7.62-27.89l2.45-7.6S594.46,43.65,585.77,73.18Z" fill="#1d0031"/><path d="M577.25,33c-11.13-2.88-16.68-2.88-27.81,0s-1.18,12.5-1.18,12.5a30,30,0,0,0,15.07,4.22h0a30,30,0,0,0,15.07-4.22S588.37,35.9,577.25,33Z" fill="#1d0031"/><path d="M585.62,84.13c-1-4.94.1-8,.15-10.95h-.27a15.18,15.18,0,0,1-4.18,10.91,7.09,7.09,0,0,1-6.26,1.39c-4.22-1.3-7.21-2.78-11.52-2.78s-7.3,1.48-11.53,2.78a7.07,7.07,0,0,1-6.25-1.39c-3-3-4.12-7.3-4.15-11.18h-.39c.45,2.8-.09,6.66.23,11.22.75,10.67,11.6,20.58,22.09,20.58h0C574,104.71,587.83,94.59,585.62,84.13Z" fill="#1d0031"/><path d="M573.58,87.78c-2.16-2.38-7.35-2.6-9.93-2.6s-7.78.22-9.93,2.6,2.13,10.61,6.3,7.58c1.4-1,2.09-1.54,2.4-1.8,0,0,.92.14,1.23.14s1.22-.14,1.22-.14c.31.26,1,.79,2.4,1.8C571.44,98.39,575.74,90.16,573.58,87.78Z" fill="#fccdc3"/><path d="M557.66,89.29s5.58,5.9,12.31,0" fill="none" stroke="#fc9189" stroke-linecap="round" stroke-linejoin="round"/><rect x="562.19" y="111.51" width="7.41" height="7.21" fill="#f48225" data-secondary="true"/><rect x="562.19" y="111.51" width="7.41" height="7.21" fill="#fff" opacity="0.2"/><rect x="563.81" y="113.07" width="4.17" height="4.08" fill="#f48225" data-secondary="true"/><path d="M406.37,218.15a.53.53,0,0,1-.28-.66c1.42-4.13-.61-5.84-.7-5.91a.54.54,0,0,1,.67-.85c.11.09,2.73,2.22,1.05,7.11a.54.54,0,0,1-.69.33Z" fill="#fc9189"/><path d="M404.46,214.9a.55.55,0,0,1-.26-.28.53.53,0,0,1,.28-.7,3,3,0,0,1,3,.49.53.53,0,0,1,.1.75.54.54,0,0,1-.76.1,2,2,0,0,0-1.88-.35A.56.56,0,0,1,404.46,214.9Z" fill="#fc9189"/><ellipse cx="550.54" cy="70.35" rx="0.21" ry="0.45" fill="#fff"/><ellipse cx="574.25" cy="70.35" rx="0.21" ry="0.45" fill="#fff"/><path d="M545.32,66.69a7.24,7.24,0,0,1,4-3.54,6.75,6.75,0,0,1,5.08.45.87.87,0,0,1,.39,1.08h0a.88.88,0,0,1-1.2.49C552.14,64.48,548.87,63.59,545.32,66.69Z"/><path d="M361.55,213.18a6.41,6.41,0,0,1,3.57-3.15,6,6,0,0,1,4.51.4.79.79,0,0,1,.36,1h0a.79.79,0,0,1-1.07.44C367.6,211.21,364.7,210.43,361.55,213.18Z"/><path d="M389,211.74a6.41,6.41,0,0,0-4.05-2.51,6,6,0,0,0-4.38,1.15.79.79,0,0,0-.19,1h0a.79.79,0,0,0,1.13.26C382.71,210.81,385.44,209.55,389,211.74Z"/><path d="M579.24,66a7.25,7.25,0,0,0-4-3.55,6.79,6.79,0,0,0-5.08.46.87.87,0,0,0-.39,1.08h0a.88.88,0,0,0,1.2.49C572.42,63.74,575.69,62.85,579.24,66Z"/><ellipse cx="366.22" cy="216.81" rx="1.75" ry="3.08"/><ellipse cx="384.85" cy="216.81" rx="1.75" ry="3.08"/><path d="M371.26,235.7s4.46,4.46,10.24-.82" fill="none" stroke="#fc9189" stroke-linecap="round" stroke-linejoin="round"/><ellipse cx="366.22" cy="216.81" rx="0.28" ry="0.41" fill="#fff"/><ellipse cx="384.85" cy="216.81" rx="0.28" ry="0.41" fill="#fff"/></g></g></svg>