<svg id="f4f4fc8b-d41c-434d-a872-9d963b2814f7" data-name="Layer 1" xmlns="http://www.w3.org/2000/svg" xmlns:xlink="http://www.w3.org/1999/xlink" width="865.76" height="682.89" viewBox="0 0 865.76 682.89"><defs><clipPath id="b23e0b4f-17b2-4faf-8fbe-593420e3e24a"><circle id="e948b682-1f17-4b1f-81e8-cd7409bb38ce" data-name="SVGID" cx="340.41" cy="330.31" r="56.76" fill="#686175" data-primary="true"/></clipPath></defs><path d="M294.24,205.79c1.52-1.43,5.78-5.15,6.85-5.86,1.93-1.52,4-2.92,5.31-3.77s2.88-1.86,3.89-2.53c2.41-1.56,1.18-4.5-1.57-3-.72.4-3,1.68-4.78,2.73l-5.13,3a39.08,39.08,0,0,0-6.21,4C291.92,202.13,294.24,205.79,294.24,205.79Z" fill="#fed0bc"/><path d="M298.81,196.36a39.08,39.08,0,0,0-6.21,4,2.28,2.28,0,0,0,.62,2.13c2.17-3.24,5.73-5.4,8.68-7.94Z" fill="#f4a57f"/><path d="M294.19,200.33a59.28,59.28,0,0,1,5.62-4.65c1.91-1.56,3.9-3,5.25-3.87l3.92-2.74c2.4-1.6,1.31-4.56-1.41-3-.7.41-3.31,1.9-5,3s-3.74,2.31-5.08,3.12a39.76,39.76,0,0,0-6.14,4.11C290.68,198.06,294.19,200.33,294.19,200.33Z" fill="#fed0bc"/><path d="M301.53,189.65c-1.43.88-3,1.85-4.07,2.5a39.76,39.76,0,0,0-6.14,4.11,2.33,2.33,0,0,0,.7,2.16A68.76,68.76,0,0,0,301.53,189.65Z" fill="#f4a57f"/><path d="M293.32,196.94a61.87,61.87,0,0,1,5.19-4.87c1.78-1.65,3.69-3.2,5-4.17s2.57-2,3.54-2.75c2.35-1.73,1.13-4.7-1.51-3-.69.46-3.09,2-4.73,3.2s-3.59,2.53-4.85,3.41a38.88,38.88,0,0,0-5.77,4.47C289.69,195,293.34,196.92,293.32,196.94Z" fill="#fed0bc"/><path d="M298.13,187.22c-.81.58-1.58,1.13-2.19,1.54a38.88,38.88,0,0,0-5.77,4.47,1.53,1.53,0,0,0,.24,1.22C293.29,192.46,295.53,189.59,298.13,187.22Z" fill="#f4a57f"/><path d="M289.34,196.31a66.87,66.87,0,0,1,4.63-5.56,64,64,0,0,1,4.55-4.85c1.25-1.25,2.66-2.3,3.57-3.19,2.18-2,.61-4.79-1.86-2.73-.64.55-3.24,2.28-4.78,3.69s-3.32,3-4.48,4.09A38.46,38.46,0,0,0,285.7,193C285.44,194.81,289.37,196.28,289.34,196.31Z" fill="#fed0bc"/><path d="M287.11,195.26s-8.05,13.35-8.4,8.77c-.41-5.31,2.05-11.76,5.77-16.79,2.26-3.05,3.74-6.07,5.41-4.6,1.47,1.32-.33,3.58-2.08,6.64A8.13,8.13,0,0,0,287.11,195.26Z" fill="#fed0bc"/><path d="M284.07,210c3.5.47,9-2,11.91-6.32,0,0,1.58-3.41.15-6.3-1.66-3.35-5.73-5-7.65-4.62-3.23.63-5.06,4.8-8.13,7.73C275.67,205,282.29,209.79,284.07,210Z" fill="#fed0bc"/><path d="M287.66,194.17a.07.07,0,0,1,.13,0c1.2,3.49-.56,8.78-3.93,10.24a.19.19,0,0,1-.22-.3,20.73,20.73,0,0,0,3-4.17A13.91,13.91,0,0,0,287.66,194.17Z" fill="#f4a57f"/><path d="M289.55,201.57c1-.48,2.81.7,3.33,1.58a7.56,7.56,0,0,1-1.58-.73c-.58-.27-1.16-.37-1.74-.58A.15.15,0,0,1,289.55,201.57Z" fill="#f4a57f"/><circle cx="565.13" cy="160.07" r="32.5" fill="#686175" data-primary="true"/><path d="M395.29,215a87.4,87.4,0,1,1,87.37-87.42v0A87.51,87.51,0,0,1,395.29,215Zm0-172a84.59,84.59,0,1,0,84.56,84.61v0A84.67,84.67,0,0,0,395.29,43Z" fill="#686175" data-primary="true"/><g opacity="0.5"><path d="M395.29,215a87.4,87.4,0,1,1,87.37-87.42v0A87.51,87.51,0,0,1,395.29,215Zm0-172a84.59,84.59,0,1,0,84.56,84.61v0A84.67,84.67,0,0,0,395.29,43Z" fill="#fff"/></g><circle cx="395.3" cy="127.62" r="73.96" transform="translate(25.54 316.9) rotate(-45)" fill="#686175" data-primary="true"/><path d="M423.14,158.59c10.56-11.22,8.23-25.83,4-44-2.22-9.38,9.87-16.14,1.44-29.93-7.88-13.28-54.22-26.1-55.35-2.21-16.29,4.69-16.71,19.32-15.12,42.66.6,8.85-1.95,13.28-5.29,16.38a14.43,14.43,0,0,0,6.89,24.84C379.9,170.08,409.9,172.69,423.14,158.59Z"/><path d="M406.51,164.86l-30.79-4.54c-18.09-1.9-28.78,5.78-35.09,17.11a73.89,73.89,0,0,0,92.27,13.86C429.29,164.44,406.51,164.86,406.51,164.86Z" fill="#f48225" data-secondary="true"/><path d="M383.91,126.1c.47,10.18-.27,28.62-8.19,34.22,0,0,10,19.79,24.71,26.39,9.05-6.13,6.08-21.85,6.08-21.85-10.65-4.25-9.14-12.42-6.08-19.93Z" fill="#fed0bc"/><path d="M390.73,133.82,400.51,145a33.23,33.23,0,0,0-1.81,5.34c-4.12-1.22-9.23-6.65-9-11.21A14.25,14.25,0,0,1,390.73,133.82Z" fill="#f4a57f"/><path d="M376.38,107.41c1.33,16.71,1.53,23.82,10.12,32.23,12.93,12.67,33.21,7.42,36.86-9.34,3.32-15.07.62-39.85-15.87-46.24a22.87,22.87,0,0,0-31,23.35Z" fill="#fed0bc"/><path d="M387.92,82.44c21.69,7.13-18.75,38.52-18.29,56.89C360.91,117.77,364.16,74.65,387.92,82.44Z"/><path d="M379.06,82.42c-6.64,12.28,12.67,5.31,28.25,10.38,14.48,4.69,21.81,14.08,20.21.47C425.57,76.46,389.6,63.07,379.06,82.42Z"/><path d="M409.13,125.38c-.5,0-1.07,0-1.66,0s-1.18-.11-1.74-.19c-1.59-.2-3.08-.4-3.69.74a2.69,2.69,0,0,0,.14,2.16,4.72,4.72,0,0,0,3.17,2.68,6.36,6.36,0,0,0,1.54.23,5.32,5.32,0,0,0,4.1-1.71,3.48,3.48,0,0,0,1.07-2.65,1.28,1.28,0,0,0-1-1.14A7,7,0,0,0,409.13,125.38Z" fill="#f4a57f"/><path d="M407.44,125.84c-2.25-.12-4.35-.86-5,.3-.46.83.41,4.24,4.44,4.38,2.82.09,4.87-2.23,4.68-3.84C411.45,125.47,409.68,126,407.44,125.84Z"/><path d="M402.46,126.14a1.12,1.12,0,0,0-.09.32c3.08,2.15,7.39,2,8.43-.54-.74-.16-2,0-3.36-.08C405.19,125.72,403.09,125,402.46,126.14Z" fill="#fff"/><path d="M578.8,420.38c1.58-.12-3.82-2.91-7.55-3.79-4.58-1.07-15.91-3.63-9.19,1.56C565.18,419.29,577.94,420.45,578.8,420.38Z" fill="#f4a57f"/><ellipse cx="661.38" cy="277.25" rx="32.46" ry="24.09" transform="translate(268.63 877.28) rotate(-79.54)" fill="#fed0bc"/><path d="M625,562.52l24.7,32.62s-3.84,10.48-14.21,11.29l-23.53-28Z" fill="#fed0bc"/><path d="M614.17,642.78l45.21-38.48-11.09-13a1.51,1.51,0,0,0-1.94-.31,4.32,4.32,0,0,0-2.25,3.37,4.22,4.22,0,0,1-1.78,3.45c-1.55,1-3.94,1.73-7,0,0,0-8.24-4-8.09,5.22l-2.6,20.52a9.71,9.71,0,0,1-4.45,7C616.79,632.59,612.63,636.53,614.17,642.78Z" fill="#686175" data-primary="true"/><rect x="606.18" y="622.98" width="64.76" height="6.1" rx="2.6" transform="translate(-253.47 563.18) rotate(-40.4)" fill="#373660"/><path d="M500.05,590l-22.24,34.35s-11.17,0-15.46-9.51l18.34-31.69Z" fill="#fed0bc"/><path d="M420.9,607.17l51.59,29.37L481,621.67a1.51,1.51,0,0,0-.36-1.93,4.34,4.34,0,0,0-3.94-1,4.23,4.23,0,0,1-3.85-.49c-1.49-1.11-3-3.12-2.35-6.62,0,0,1-9.12-7.67-5.82l-20.17,4.55a9.68,9.68,0,0,1-8.12-1.79C431.38,606.16,426.25,603.59,420.9,607.17Z" fill="#686175" data-primary="true"/><rect x="412.6" y="621.33" width="64.76" height="6.1" rx="2.6" transform="translate(367.15 -138.38) rotate(29.65)" fill="#373660"/><path d="M211.66,584.46l14.47,36.12s10.43,2,16.17-6L231,581.61Z" fill="#fed0bc"/><path d="M107,580.11l3,38.8s9.34,5,17.23-.92l-.92-34.8Z" fill="#fed0bc"/><path d="M278.16,630.45l-56.45,1.08-.31-16.25a1.42,1.42,0,0,1,1.18-1.45,4.09,4.09,0,0,1,3.73,1,4,4,0,0,0,3.44,1.34,6,6,0,0,0,5-4.46s3.33-8.07,9.06-1.38l14.78,13a9.18,9.18,0,0,0,7.6,2.2C269.86,624.84,275.31,625,278.16,630.45Z" fill="#f48225" data-secondary="true"/><rect x="218.7" y="630.99" width="61.58" height="5.8" rx="2.6" transform="translate(511.17 1262.84) rotate(178.89)" fill="#373660"/><polygon points="587.25 622.92 550.3 438.86 544.32 438.86 578.74 622.92 587.25 622.92" fill="#f48225" data-secondary="true"/><polygon points="333.47 622.92 370.43 438.86 376.41 438.86 341.99 622.92 333.47 622.92" fill="#f48225" data-secondary="true"/><g opacity="0.4"><polygon points="587.25 622.92 550.3 438.86 544.32 438.86 578.74 622.92 587.25 622.92"/><polygon points="333.47 622.92 370.43 438.86 376.41 438.86 341.99 622.92 333.47 622.92"/></g><rect x="309.26" y="435.53" width="302.21" height="11.13" fill="#f48225" data-secondary="true"/><path d="M654.7,448.29s-82.21-2.15-114.8,24.59c-19.06,28.91-65.18,114.18-68.76,123.58,2.46,2.46,16.69,8.67,22.33,8.67,18.14-21.63,42.23-42.72,51.77-59.68,11.75-20.91,15.37-31.36,34.43-33.21s62.11-8,75-8S654.7,448.29,654.7,448.29Z" fill="#373660"/><path d="M654.7,448.29s-82.21-2.15-114.8,24.59c-19.06,28.91-65.18,114.18-68.76,123.58,2.46,2.46,16.48,7.89,22.33,8.67,18.14-21.63,42.23-42.72,51.77-59.68,11.75-20.91,15.37-31.36,34.43-33.21s62.11-8,75-8S654.7,448.29,654.7,448.29Z" opacity="0.2"/><polygon points="726.38 648.52 722.07 648.52 691.17 519.61 700.65 519.61 726.38 648.52" fill="#f48225" data-secondary="true"/><polygon points="597.3 648.52 601.61 648.52 637.07 515.05 627.59 515.05 597.3 648.52" fill="#f48225" data-secondary="true"/><g opacity="0.2"><polygon points="726.38 648.52 722.07 648.52 691.17 519.61 700.65 519.61 726.38 648.52"/><polygon points="597.3 648.52 601.61 648.52 637.07 515.05 627.59 515.05 597.3 648.52"/></g><path d="M701.53,442.66l-47.79,8.24s-63.51.59-92.54,6c-26.42,4.91-30.31,34.92,0,76.25,17.21,23.47,31.77,42.2,61.53,63.31,6.93-6.71,9.72-11.22,15.44-19.37-2.15-3-10.61-23.11-12.34-26.72-16.46-34.42-38.44-46.93-38.74-50.32,3.69-6,97.73,31.25,116.42,9.34C721.37,488.47,701.53,442.66,701.53,442.66Z" fill="#373660"/><path d="M703.51,334.46a50,50,0,0,0-37.39,9.3c-10.48,10.68-22.33,28.29-21.61,57.34.93,36.9-5.71,39.27,1.21,49.41,28.85,11.92,78.2,63.11,66.58,8.23-8.41-39.74,18.46-69.36-3.22-113.44C707.32,341.71,705.11,338.23,703.51,334.46Z" fill="#686175" data-primary="true"/><path d="M701.09,333.28c-4.68-21.92-2.42-45.12-2.42-45.12L675,290.5s7.27,31-6.91,38.84c-3,1.67,1.64,5.79-2.1,8.38C681.05,330.66,687.55,328.66,701.09,333.28Z" fill="#fed0bc"/><path d="M698.31,293.7c-1.1-1.44-2.48-3.24-3.94-5.11L675,290.49l-.06.09c.25,1.1,2.83,12.86,1.44,23.44,6.09-2.26,13.09-6.51,21.72-14.63C698.17,297.23,698.23,295.31,698.31,293.7Z" fill="#f4a57f"/><path d="M678.48,525c-1.29,0-2.62,0-4-.05a198.87,198.87,0,0,1-37.94-4.67c-10.88-2.21-16.87-3.43-23.85-.1a5.37,5.37,0,1,1-4.63-9.69c10.22-4.89,18.78-3.15,30.62-.74a189.44,189.44,0,0,0,36.07,4.46c18,.45,29-2.22,34.54-8.39,5-5.5,6.41-14.74,4.57-29.07-.64-4.91-1.27-9-1.82-12.59-1.57-10.16-2.61-16.87-1.33-27.24,1.2-9.63,4.39-22.46,11.77-47.34a5.37,5.37,0,0,1,10.3,3.06C719,439,719.73,443.49,722.67,462.5c.56,3.66,1.2,7.81,1.85,12.86,2.28,17.67,0,29.63-7.24,37.63C709.85,521.23,697.8,525,678.48,525Z" fill="#f48225" data-secondary="true"/><path d="M701.43,317.71l2.08,16.75s-18.3,1.09-27.41,6.21-22.54,19.93-22.54,19.93l11-18.9,1.58-12.1Z" fill="#686175" data-primary="true"/><path d="M701.43,317.71l2.08,16.75s-18.3,1.09-27.41,6.21-22.54,19.93-22.54,19.93l11-18.9,1.58-12.1Z" opacity="0.2"/><path d="M666.75,233.39c-28.07-7.18-36.52,35.77-36.52,35.77s6.5,4.42,22.31,6.57c.22-4.82,4.22-16.08,4.22-16.08s-1.09,9.8-.6,16.1c2.73,2.44,6.73,2.25,13.3,2.66-.92,14.18,6.24,22.5,11.74,26.28,6.07,4.18,12.4,8.88,21.56,7.35s17.27-43.45,15.56-52.9c-2.56-14.2-9.71-28.39-29.68-28.19A140.43,140.43,0,0,0,666.75,233.39Z"/><path d="M698.27,300.51l10.51,15.36S697.13,345,731,358.16c26.54,10.33,23.41,28.53,11.42,46.83s7.17,34.28,7.17,34.28,2.93-20.27,28.71-24.1c35.15-5.22,45.11-52.41,18.85-76-21.73-19.53-28.34-3.36-43-20.88s-42.47-5.69-42.47-5.69l-10.18-14.84Z"/><path d="M809.25,386.7a.93.93,0,0,1-.45-.11,1,1,0,0,1-.37-1.27c8.84-16.16,1.63-35.73-2-41-.38-.56-.75-1.13-1.13-1.73-3.57-5.57-8-12.49-31.67-16.75-5.7-1-10.32-4.42-15.21-8C748.33,310.4,736.89,302,712,313.44a.94.94,0,0,1-.78-1.7c25.86-11.9,37.77-3.16,48.28,4.56,4.71,3.45,9.15,6.72,14.43,7.67,24.47,4.4,29.15,11.71,32.91,17.58.38.59.74,1.15,1.11,1.68,3.8,5.56,11.35,26.06,2.09,43A.93.93,0,0,1,809.25,386.7Z"/><path d="M688.42,312.67a42.57,42.57,0,0,1-5.73-2.28c-9.23-4.43-20.52-13.92-12.05-45.11a1.05,1.05,0,0,1,2,.55c-3.49,12.86-3.86,23.05-1.1,30.3,2.1,5.51,5.92,9.43,12,12.36,8.54,4.09,15,4.27,19.15.51a1.05,1.05,0,1,1,1.41,1.56C700.34,314,695.06,314.71,688.42,312.67Z"/><polygon points="578.83 419.37 594.1 417.21 595.13 430.15 577.78 428.4 578.83 419.37" fill="#fed0bc"/><polygon points="549.59 428.99 548.43 432.86 552.16 431.26 578.17 401.02 576.5 399.53 549.59 428.99" fill="#f48225" data-secondary="true"/><path d="M577.07,399.55c-.53.6-.74,1.29-.46,1.54s.94,0,1.48-.64.74-1.3.46-1.55S577.61,398.94,577.07,399.55Z" fill="#f48225" data-secondary="true"/><polygon points="547.99 433.16 548.21 433.35 549.08 432.55 548.68 432.2 547.99 433.16" fill="#f48225" data-secondary="true"/><rect x="500.81" y="433.5" width="72.5" height="2.03" transform="translate(1074.12 869.03) rotate(-180)" fill="#bcbec0"/><rect x="508.57" y="432.88" width="8.05" height="0.96" transform="translate(1025.19 866.71) rotate(-180)" fill="#bcbec0"/><rect x="521.54" y="432.88" width="8.05" height="0.96" transform="translate(1051.13 866.71) rotate(-180)" fill="#bcbec0"/><path d="M463,433.83h8.69c2.36-15.09,7.95-26,16.9-34.42h-7.06C474.18,406.68,468.93,419.8,463,433.83Z" fill="#d1d3d4"/><polygon points="460.36 435.47 495.43 435.47 495.43 433.5 460.36 431.7 460.36 435.47" fill="#d1d3d4"/><polygon points="468.28 346.35 475.08 331.64 487.08 415.12 475.57 415.12 468.28 346.35" fill="#bcbec0"/><path d="M476.86,293.08c1,.25,3.57,32.74,7.06,64.89s7.9,63.95,6.85,64.4c-2.08.9-8,1.49-15.5-64.35C468.19,296.15,474.87,292.58,476.86,293.08Z" fill="#d1d3d4"/><path d="M693.64,338.21c-13.59-2.55-19.88,9.64-28.69,29.52s-23.86,44-26.86,47.14-50.42,0-50.42,0-1.44,13.74,0,15.38,9.63,1.43,9.63,1.43,3.28,2.62,6.36,4.69,29.1,6,41.2,5.36,23.16-1.64,24.8-3.49,34.64-52.68,36.69-70.92S700.58,339.51,693.64,338.21Z" fill="#686175" data-primary="true"/><path d="M693.64,338.21c-13.59-2.55-19.88,9.64-28.69,29.52s-23.86,44-26.86,47.14-50.42,0-50.42,0-1.44,13.74,0,15.38,9.63,1.43,9.63,1.43,3.28,2.62,6.36,4.69,29.1,6,41.2,5.36,23.16-1.64,24.8-3.49,34.64-52.68,36.69-70.92S700.58,339.51,693.64,338.21Z" opacity="0.2"/><path d="M569.4,417.46c-4.61-.47-11.34-1-14.64,1.73-1.91,1.65-5.24,6.28-.13,4.6,3.06-4.69,8.69-3.19,13.81-1.53C569.76,421.74,569.4,417.46,569.4,417.46Z" fill="#fed0bc"/><path d="M569.44,418.42c0,1.29-.08,3.48-1,3.84-5.11-1.67-10.75-3.16-13.81,1.53-2.31.7-3.69.35-2.26-1.52C556.54,417.36,563.57,418.8,569.44,418.42Z" fill="#f4a57f"/><path d="M567.57,419.09a28.91,28.91,0,0,0-12.67,1.43c-2.08.61-7,9.56-1.69,6.33,2.61-4.79,8.87-3.84,14-3.41C568.42,422.73,567.57,419.09,567.57,419.09Z" fill="#fed0bc"/><path d="M567.75,421.27c0,.89,0,1.85-.59,2.15-4.68-.39-10.45-1.26-12.84,3.13a1.41,1.41,0,0,1-1.43.65C555.58,421.85,561.69,420.68,567.75,421.27Z" fill="#f4a57f"/><path d="M568.31,421.45a42.89,42.89,0,0,0-11.46,1.49c-2.24.85-7.44,7.15-2.05,5.33,3-3.82,8.36-2.81,13.17-2.52C569.16,425,568.31,421.45,568.31,421.45Z" fill="#fed0bc"/><path d="M568.45,424a1.76,1.76,0,0,1-.58,1.51c-4-.33-6.13-.59-9.66.38C561.25,423.52,565,424.17,568.45,424Z" fill="#f4a57f"/><path d="M568.39,424.36a1.52,1.52,0,0,1-.48,1.26c-3.33-.27-5.13-.5-8.06.32C562.38,423.94,565.55,424.47,568.39,424.36Z" fill="#f69a6f"/><path d="M568.21,424.76c-14.26-2.93-17.7,12.56-9.07,4.26,3.23-.78,4.46-1.12,8-.72C568.27,427.7,568.21,424.76,568.21,424.76Z" fill="#fed0bc"/><path d="M581.12,420.05c-1.21-.46-9.26-2.6-13.63-2.81-.66,1.46-1.84,10-.4,11.06,6.74.16,12.08.14,12.6-.13C584.7,425,582.39,421.08,581.12,420.05Z" fill="#fed0bc"/><path d="M154.44,184.65c1.66-3.44,3.53-9.56,4.44-20.47-.14,1.09-2,14.84-7.31,22.63C129.85,201.07,88.21,248.7,89,257.72c0,0-4.6-4.31-11.27-10.44L76.22,238c-.82,1.68-.9,4.85-.85,7.08C62.91,233.65,45,217.54,35.46,210.27A113.66,113.66,0,0,1,40,199.33c-2.79.77-6.1,5.89-7.71,8.61-.28-.19-.54-.36-.8-.51,0,0,2.85-22.48,35.26-39.27,17-8.8,28.64-12.45,28-23.62s4.45-59.24,37.1-46.66c0,0,5.24-2.32,7.58-2a6.37,6.37,0,0,0-2.89,1.37c3.79-.23,9.2,0,13.71,2.62C162.12,106.7,172.83,167.72,154.44,184.65Z"/><path d="M150.29,187.52c.11,0-10.49,5.55-18.46,3.37-7.5-2-12.4-11.77-12.3-11.79,3.18-.63,3-7.34,3-26.09l2.49,2.62,24.14,4.78s-.55,7.6-.57,14.76C148.55,181.18,148.91,186.88,150.29,187.52Z" fill="#fed0bc"/><path d="M149.13,160.41s-.55,7.6-.57,14.76c-13.5-.38-20.64-12.71-23.57-19.54Z" fill="#f4a57f"/><path d="M122.5,153s-7.08-11.19-8.78-20.75c-1.21-6.83,2.26-32.14,27.7-28.49a34.5,34.5,0,0,1,14.33,5.41c5.52,3.73,13.49,11.78,4.58,33.87L158,150.51Z"/><path d="M240.55,598l-8,.25-16.08.42S186.7,563.09,168.76,506c-.42-1.32-.86-2.66-1.33-4-9.82-28.64-30.18-64.58-40.91-97.12-1.71-5.18-3.24-10.06-4.62-14.68-.44-1.47-.87-2.93-1.27-4.36-7.91-27.47-10.2-45.51-12.31-64.78l77.47.62S193.51,453.39,240.55,598Z" fill="#373660"/><path d="M175,277.13c-.2,36.87,5.41,52.69,5.41,52.69s-33.17,16.85-72.6,4.45c-.46-.15-29.65-6-29.65-6,.66-1.49,8.71-27,9.35-28.36,8.33-17.88,9.47-26.54,10.46-32a117.07,117.07,0,0,0,1-30.89,248.22,248.22,0,0,0-9.56-48.5c10.74-2.44,20.8-6.74,32-10.93,2.57,3.2,10.43,6.55,17.25,6.4,7.86-.18,10.4-3.54,10-7.21,8.37,4.66,15.05,9.06,15.05,9.06,7.11,12.35,21.54,24.35,22.58,43.3C186.43,233.75,175,276.1,175,277.13Z" fill="#e7f1fd"/><path d="M219.93,222.37c-11.38-13.29-40.84-42.1-71.25-45.64l26.24,51.12a22.66,22.66,0,0,0,9.24,13.87c19,12.5,43.24,18,43.24,18s16.38-7.15,38.79-23.56c7-5.16,19.38-24.81,19.38-24.81l-3.33-11.15s-21,11.73-28.47,15.11c-4.27,1.93-14.1,6.53-21,9.79A10.82,10.82,0,0,1,219.93,222.37Z" fill="#f48225" data-secondary="true"/><ellipse cx="141.91" cy="137.07" rx="22.38" ry="31.85" fill="#fed0bc"/><path d="M154.86,111.11s-10.49,24.9-24.74,28.56-20.42-.15-20.42-.15a40.31,40.31,0,0,0,13.19-23.84S145.87,90.55,154.86,111.11Z"/><path d="M151.58,114.2s6.53,5.21,8.12,10.28S162,140,165.06,139.63c0,0,6.59-15.87-.82-24.85C156.38,105.26,151.58,114.2,151.58,114.2Z"/><path d="M148.54,176.73s18.5,45.68,19,54.93,2.17,151.17,2.17,151.17-1.08,6.52,11.42,3.8,15.77-5.43,15.77-5.43-12-87.55-8.7-118-25-80.12-25-80.12Z" fill="#f48225" data-secondary="true"/><path d="M232.54,598.29l-16.08.42S186.7,563.09,168.76,506c-.42-1.32-.86-2.66-1.33-4-9.82-28.64-30.18-64.58-40.91-97.12-1.71-5.18-3.24-10.06-4.62-14.68-.44-1.47-.87-2.93-1.27-4.36L132,377.16s34.25,55.46,44.85,107.66C186.1,530.16,223,584.72,232.54,598.29Z" opacity="0.2"/><path d="M133.23,489.68c.19,25.38-1.09,83.74-4.4,107.9H116.56c-6.78,0-10.16-.09-10.16-.09-8.29-42-14.19-76.77-18.49-106.72-3.52-24.58-6.65-45.65-9.06-63.79s-4.11-33.54-4.72-46.46q-.13-3-.2-5.93c0-1.93-.05-3.81,0-5.63l66.94-6.52C140,406.91,133.12,474.93,133.23,489.68Z" fill="#373660"/><path d="M116.56,597.58c-6.78,0-10.16-.09-10.16-.09-8.29-42-14.19-76.77-18.49-106.72-3.52-24.58-6.65-45.65-9.06-63.79s-4.11-33.54-4.72-46.46L98.7,395S83,400.5,89,442.37,108.24,591.66,116.56,597.58Z" opacity="0.2"/><path d="M119.73,380.11s-4.72,17-21,14.86-39.51-12-39.51-12,7-22,15.64-51c10.49-35,23.48-80.2,29.6-108.69a174.84,174.84,0,0,0,3.33-19.43l13.54-26.26s20.18,45.3,21.26,56.71S119.73,380.11,119.73,380.11Z" fill="#f48225" data-secondary="true"/><path d="M119,258.3c-.73,18.49-5.08,54.38-43.86,73.59l-.31.15c10.49-35,23.48-80.2,29.6-108.69C111.56,234,119.4,248.12,119,258.3Z" opacity="0.4"/><rect x="300.08" y="166.39" width="7.85" height="34.07" transform="translate(306.18 538.48) rotate(-121.46)" fill="#373660"/><rect x="300.08" y="166.39" width="7.85" height="34.07" transform="translate(306.18 538.48) rotate(-121.46)" opacity="0.2"/><rect x="209.6" y="148.21" width="22.26" height="172.32" rx="11.13" transform="translate(135.98 544.97) rotate(-121.46)" fill="#373660"/><path d="M346.9,48a92.35,92.35,0,1,0,127,30.59A92.35,92.35,0,0,0,346.9,48Zm5.31,8.68a82.17,82.17,0,1,1-27.22,113A82.18,82.18,0,0,1,352.21,56.63Z" fill="#373660"/><ellipse cx="120.34" cy="140.77" rx="4.49" ry="5.42" fill="#fed0bc"/><path d="M108.32,608.35s-2.8,11.76-6.38,16.89c-3.07,4.41-1.93,7.17,2.46,9.8,4.82.55,11.8.38,21.84-.76,3.7-3,6.09-5.53,3.58-9.41-1.78-3.56-1.64-16.08-1.64-16.08Z" fill="#f48225" data-secondary="true"/><path d="M108.32,608.35s-2.8,11.76-6.38,16.89c-3.07,4.41-1.93,7.17,2.46,9.8,4.82.55,11.8.38,21.84-.76,3.7-3,6.09-5.53,3.58-9.41-1.78-3.56-1.64-16.08-1.64-16.08Z" opacity="0.4"/><path d="M116,618.69c-8.95,0-16.22,5.86-16.22,13.1h32.46C132.23,624.55,125,618.69,116,618.69Z" fill="#f48225" data-secondary="true"/><rect x="98.56" y="631.31" width="34.62" height="5.8" rx="2.6" transform="translate(243.96 1266.07) rotate(178.89)" fill="#373660"/><path d="M416.5,120.09l0,0,.17-.15-.16-.15c-2.51-2.41-4.47-8.64-4.49-8.7l-.4.12c.08.25,1.93,6.14,4.43,8.71a4.55,4.55,0,0,1-2.46,1.07l0,.42A5.17,5.17,0,0,0,416.5,120.09Z" fill="#f4a57f"/><ellipse cx="402.73" cy="109.95" rx="1.57" ry="2.32" transform="translate(-14.48 95.13) rotate(-13.24)"/><ellipse cx="417.36" cy="109.3" rx="1.57" ry="2.32" transform="translate(-13.94 98.47) rotate(-13.24)"/><path d="M421.34,101a9.32,9.32,0,0,0-5.13-2.9c-1.41-.25-2.76-.16-3.06,1,0,0-.82,1.36,8.44,2.18Z"/><path d="M396.39,103.81a10.64,10.64,0,0,1,4.46-4.5c1.37-.71,2.79-1.07,3.41,0,0,0,1.21,1-8.06,4.91Z"/><path d="M149.13,155.45c-.5,0-1.07-.11-1.65-.22s-1.15-.26-1.7-.41c-1.55-.4-3-.79-3.76.26a2.74,2.74,0,0,0-.13,2.16,4.69,4.69,0,0,0,2.8,3.07,6.88,6.88,0,0,0,1.5.42,5.3,5.3,0,0,0,4.28-1.17,3.48,3.48,0,0,0,1.4-2.49,1.28,1.28,0,0,0-.87-1.27A7.16,7.16,0,0,0,149.13,155.45Z" fill="#f4a57f"/><path d="M147.39,155.69c-2.21-.41-4.21-1.41-5-.33-.56.76-.13,4.25,3.85,4.9,2.78.46,5.11-1.58,5.13-3.2C151.42,155.84,149.6,156.11,147.39,155.69Z"/><path d="M142.41,155.36a1,1,0,0,0-.12.29c2.77,2.53,7.07,2.95,8.42.55-.72-.25-1.94-.25-3.32-.51C145.18,155.28,143.18,154.28,142.41,155.36Z" fill="#fff"/><path d="M157.12,151.15h0l.18-.13-.14-.18c-2.18-2.71-3.32-9.14-3.33-9.2l-.41.07c0,.26,1.12,6.34,3.27,9.21a4.64,4.64,0,0,1-2.57.75l0,.41A5.12,5.12,0,0,0,157.12,151.15Z" fill="#f4a57f"/><ellipse cx="144.75" cy="139.33" rx="1.57" ry="2.32" transform="translate(-13.49 15.53) rotate(-5.87)"/><ellipse cx="159.35" cy="140.57" rx="1.57" ry="2.32" transform="translate(-13.54 17.03) rotate(-5.87)"/><path d="M164.35,132.87a9.15,9.15,0,0,0-4.71-3.53c-1.36-.43-2.72-.52-3.16.6,0,0-1,1.23,8.09,3.24Z"/><path d="M139.25,132.43a10.62,10.62,0,0,1,5-3.89c1.45-.53,2.9-.71,3.39.39,0,0,1.06,1.18-8.63,3.83Z"/><circle id="ac22b0a5-f884-48f8-8ecb-45e524922cb6" data-name="SVGID" cx="340.41" cy="330.31" r="56.76" fill="#686175" data-primary="true"/><g clip-path="url(#b23e0b4f-17b2-4faf-8fbe-593420e3e24a)"><path d="M321.36,328.53c-.13-.4-3.47-19.58-3.87-27s12-8.52,12-8.52,10.12-5.46,17.45-2.66a29.46,29.46,0,0,1,15.63,13.36c3.33,5.86-2.92,24.12-2.92,24.12Z" fill="#2e2d3d"/><path d="M298.4,390.14c0-.32.86-7.87.89-8.17,1.69-15.89,21.27-20.36,40.82-20.36,23,0,38.54,4.2,41,20.71.07.49,1.4,8.05,1.33,8.56C339.91,391.47,298.4,390.14,298.4,390.14Z" fill="#f48225" data-secondary="true"/><path d="M344.05,373.94c-2.27,3.36-3.94,3.5-6.41,0-2-2.78-8.52-9.12-8.52-12.33l2.69-32a5.84,5.84,0,0,1,5.83-5.83h6.41a5.84,5.84,0,0,1,5.83,5.83l1.25,32C351.13,364.82,346.09,370.93,344.05,373.94Z" fill="#fed0bc"/><path d="M344.05,323.8h-6.41a5.84,5.84,0,0,0-5.83,5.83L329.47,358c7.2,2.29,16.93-2.37,21.23-7.5l-.82-20.87A5.84,5.84,0,0,0,344.05,323.8Z" fill="#f4a57f"/><path d="M318.84,363.94l10.28,19s5.5-4.52,6-3.63-1,12.09-1,12.09,12.25.16,12.78-.37-2.48-12.17-1.24-12.17,5,3.37,5,3.37l11.48-18.29-2.52-.61-18.81,10.12-20.12-9.9Z" fill="#e7f1fd" opacity="0.2"/><polygon points="330.6 372.7 338.23 377.82 335.87 391.42 346.16 390.85 343.59 378.48 349.92 372.7 346.95 369.89 333.57 369.89 330.6 372.7" fill="#f48225" data-secondary="true"/><polygon points="330.6 372.7 338.23 377.82 335.87 391.42 346.16 390.85 343.59 378.48 349.92 372.7 346.95 369.89 333.57 369.89 330.6 372.7" opacity="0.4"/><path d="M329.65,354.63l-9.44,9s9.62,17.12,10.15,17.12,8.17-9.44,8.17-9.44l4.88-.08,7.72,8.1,9-15.88L351,353.74s-7.82,15.09-9.24,15.44-1.43.54-2.58-.35S329.65,354.63,329.65,354.63Z" fill="#f48225" data-secondary="true"/><ellipse cx="340.85" cy="324.12" rx="19.39" ry="26.42" fill="#fed0bc"/><path d="M323.44,323.72c1.82,3.81,1.22,7.89-1.32,9.1s-6.08-.91-7.89-4.73-1.22-7.89,1.32-9.1S321.63,319.9,323.44,323.72Z" fill="#fed0bc"/><path d="M357.37,323.72c-1.81,3.81-1.22,7.89,1.33,9.1s6.08-.91,7.89-4.73,1.22-7.89-1.32-9.1S359.19,319.9,357.37,323.72Z" fill="#fed0bc"/><path d="M329.47,306.15c8-5.59,11.59-4.66,17.58,4.53S360.23,320,360.23,320l.94-9.53s-8.93-17.26-20.91-15-18.8,13.05-18.8,13.05-.58,20.22,1.09,20.91,1.86-6.53,3.06-8-1.2-8.39.4-11.59S329.47,306.15,329.47,306.15Z" fill="#2e2d3d"/><path d="M355.17,316.54c2.79,3.06,1.73,15.18,3.2,15s2-11.59,1.6-12.78S355.17,316.54,355.17,316.54Z" fill="#2e2d3d"/><path d="M337.4,334.7h0l-.28-.12.13-.26c2-4.18,1.54-12.88,1.53-13l.56,0c0,.35.46,8.57-1.46,13a6.25,6.25,0,0,0,3.58.18l.17.53A6.88,6.88,0,0,1,337.4,334.7Z" fill="#f4a57f"/><ellipse cx="347.34" cy="322.92" rx="2.5" ry="1.7" transform="translate(-35.14 603.34) rotate(-79.16)"/><ellipse cx="333.04" cy="322.92" rx="1.7" ry="2.5" transform="translate(-24.44 27.28) rotate(-4.52)"/><path d="M350.88,318a8.71,8.71,0,0,0-5-2.42c-1.34-.15-2.61,0-2.82,1.12,0,0-.69,1.32,8.07,1.55Z"/><path d="M327.8,319a8.71,8.71,0,0,1,4.79-2.8c1.32-.25,2.61-.18,2.9.91,0,0,.79,1.26-7.93,2.16Z"/><path d="M342.67,338.49c-.54,0-1.15.05-1.79,0s-1.27-.09-1.87-.16c-1.71-.18-3.31-.36-3.95.88a2.92,2.92,0,0,0,.21,2.32,5,5,0,0,0,3.46,2.8,7.48,7.48,0,0,0,1.67.21,5.7,5.7,0,0,0,4.36-1.93,3.79,3.79,0,0,0,1.08-2.87,1.39,1.39,0,0,0-1.13-1.21A7.71,7.71,0,0,0,342.67,338.49Z" fill="#f4a57f"/><path d="M340.86,339c-2.41-.08-4.69-.82-5.34.44-.47.9.55,4.54,4.88,4.59,3,0,5.16-2.51,4.93-4.23C345.16,338.54,343.27,339.11,340.86,339Z"/><path d="M335.52,339.47a1.06,1.06,0,0,0-.08.34c3.35,2.23,8,2,9-.78-.8-.15-2.1.05-3.61,0C338.45,339,336.17,338.21,335.52,339.47Z" fill="#fff"/></g><path d="M275.93,330.32a64.56,64.56,0,1,1,64.64,64.48h-.17A64.56,64.56,0,0,1,275.93,330.32Zm2.09,0a62.39,62.39,0,1,0,62.38-62.4A62.38,62.38,0,0,0,278,330.32Z" fill="#686175" data-primary="true"/><polygon points="392.37 283.52 396.79 287.78 402.86 286.92 403.93 292.96 409.35 295.83 406.64 301.34 409.35 306.86 403.93 309.73 402.86 315.78 396.79 314.91 392.37 319.18 387.97 314.91 381.89 315.78 380.84 309.73 375.42 306.86 378.12 301.34 375.42 295.83 380.84 292.96 381.89 286.92 387.97 287.78 392.37 283.52" fill="#f48225" data-secondary="true"/><g opacity="0.9"><path d="M389.09,308.32l-6.32-6.93a1.33,1.33,0,0,1,.17-1.85h0a1.29,1.29,0,0,1,1.83,0h0l4.64,5.1,10.72-9.86a1.31,1.31,0,0,1,1.85,0h0a1.32,1.32,0,0,1-.17,1.85Z" fill="#fff"/></g><path d="M528.2,160.08a37,37,0,1,1,37,36.92h-.09A37,37,0,0,1,528.2,160.08Zm1.2,0a35.73,35.73,0,1,0,35.73-35.74,35.73,35.73,0,0,0-35.73,35.74Z" fill="#686175" data-primary="true"/><path d="M545.18,181.6c2.71-3.18,14.44-2.12,14.44-2.12l11.47-1.1c9.41-1.95,14.34.65,17.35,4.23l0,.06a32.47,32.47,0,0,1-44.75,2A8.89,8.89,0,0,1,545.18,181.6Z" fill="#373660"/><path d="M553.68,139.67s-6.81.62-2.66,9.94l4.69-2.7.76-5.66Z" fill="#263238"/><path d="M553.68,139.67s-6.81.62-2.66,9.94l4.69-2.7.76-5.66Z"/><path d="M572.58,178.46c-1.11,2.23-4.18,6.14-12.29,6.14-4.91,0-5.26-2-3.8-4.31,4.76-2.32,4.79-7,3.52-11.07L570.62,159c-.7,5.22-1.18,14.25,1.68,18.81A3.46,3.46,0,0,1,572.58,178.46Z" fill="#fed0bc"/><path d="M566.3,163.18l-6.24,6a20.54,20.54,0,0,1,.66,3.21c2.47-.51,5.55-2.81,6.37-5.6C567.58,165.13,567,163.37,566.3,163.18Z" fill="#f4a57f"/><path d="M572.32,150.44c-.56,7.95-1.55,12.64-5.61,16.65-6.09,6.08-14.82,2.33-16.63-5.6-1.63-7.2-.42-19,7.38-22a10.86,10.86,0,0,1,14.12,6h0A10.8,10.8,0,0,1,572.32,150.44Z" fill="#fed0bc"/><path d="M559.86,152.62c0,.65-.35,1.16-.78,1.16s-.75-.53-.75-1.18.35-1.16.78-1.16S559.87,152,559.86,152.62Z"/><path d="M552.55,152.55c0,.64-.35,1.16-.78,1.16s-.76-.54-.75-1.18.35-1.17.78-1.17S552.56,151.9,552.55,152.55Z"/><path d="M570.65,156.88s-3.63.56-3.4-1,2.11-6.77,1.7-9c-.2-1-1.31-3.15-2.27-3.62-3.48-1.75-30.16,2.47-8.35-13.16v2s4.36-3,5.3-2c.69.78-1.89,3.71-1.89,3.71s5.71-3.14,6.57-1.68c.55,1-3,3.18-3,3.18S591,142.66,570.65,156.88Z"/><polygon points="594.89 133.28 597.42 135.72 600.89 135.22 601.5 138.69 604.61 140.33 603.06 143.48 604.61 146.64 601.5 148.29 600.89 151.75 597.42 151.25 594.89 153.7 592.37 151.25 588.88 151.75 588.28 148.29 585.18 146.64 586.72 143.48 585.18 140.33 588.28 138.69 588.88 135.22 592.37 135.72 594.89 133.28" fill="#f48225" data-secondary="true"/><g opacity="0.9"><path d="M593,147.48l-3.62-4a.76.76,0,0,1,.1-1.06h0a.74.74,0,0,1,1,0h0l2.65,2.92,6.14-5.64a.75.75,0,0,1,1.06,0h0a.76.76,0,0,1-.09,1.06Z" fill="#fff"/></g><ellipse cx="572.36" cy="156.68" rx="3.19" ry="2.22" transform="translate(115.02 534.82) rotate(-54.89)" fill="#fed0bc"/><path d="M554.58,160.82c.35,0,.74,0,1.15,0s.82-.08,1.2-.13c1.1-.14,2.13-.28,2.56.51a1.89,1.89,0,0,1-.1,1.49,3.27,3.27,0,0,1-2.19,1.86,5.31,5.31,0,0,1-1.07.16,3.7,3.7,0,0,1-2.83-1.18,2.43,2.43,0,0,1-.74-1.84.89.89,0,0,1,.71-.79A4.73,4.73,0,0,1,554.58,160.82Z" fill="#f4a57f"/><path d="M555.75,161.14c1.55-.08,3-.59,3.45.21.31.58-.29,2.93-3.08,3-2,.06-3.36-1.54-3.23-2.65C553,160.89,554.2,161.23,555.75,161.14Z"/><path d="M559.2,161.35a.71.71,0,0,1,.06.22c-2.13,1.49-5.12,1.39-5.83-.37.51-.11,1.35,0,2.32-.06C557.3,161.06,558.76,160.55,559.2,161.35Z" fill="#fff"/><path d="M552.19,158.4h0l-.1-.1.1-.1c1.61-1.54,2.86-5.53,2.87-5.57l.26.08c0,.16-1.23,3.93-2.84,5.58A3,3,0,0,0,554,159v.27A3.33,3.33,0,0,1,552.19,158.4Z" fill="#f4a57f"/><path d="M641,296.53h0l-.18-.06.07-.17c1-2.68.32-8,.31-8.09l.35,0c0,.22.7,5.28-.27,8.08a3.72,3.72,0,0,0,2.21-.06l.14.32A4.26,4.26,0,0,1,641,296.53Z" fill="#f4a57f"/><path d="M549.27,149.18a4.33,4.33,0,0,1,1.8-1.82c.56-.28,1.13-.43,1.38,0,0,0,.49.42-3.26,2Z"/><path d="M562.53,149.43a4.4,4.4,0,0,0-1.91-1.71c-.57-.25-1.15-.36-1.38.07,0,0-.46.45,3.37,1.78Z"/><path d="M164.82,269.83c-31.13,14.34.5-17.93,8.81-12.92C175.43,259.64,163.32,265.86,164.82,269.83Z" fill="#fed0bc"/><path d="M169.25,272.13a39,39,0,0,0,16.12-2.71c4.22-.92,10.64-7.34,2.34-5.68-5.44,2.65-11.73,3.33-18.36,3.55C167.81,268.28,169.25,272.13,169.25,272.13Z" fill="#fed0bc"/><path d="M171.85,268.5c-2-.36-.51,2.64,0,3.64a34,34,0,0,0,18.71-5.57A35.44,35.44,0,0,1,171.85,268.5Z" fill="#f4a57f"/><path d="M172,274.81a37.92,37.92,0,0,0,15.92-2.11c4.18-.73,10.71-6.83,2.52-5.47-5.39,2.52-11.4,2.85-17.86,1.86C171,270,172,274.81,172,274.81Z" fill="#fed0bc"/><path d="M194.25,269c-3.89,1.12-14.51,3.9-19.35,3.55-1.66-.1-1.37,1-1,2.35C181.61,274.92,189.11,273.6,194.25,269Z" fill="#f4a57f"/><path d="M171.38,278.64a38.66,38.66,0,0,0,16-2.69c4.2-.91,10.61-7.3,2.33-5.65-5.35,2.76-11.43,3.29-18,2.52C170.22,273.8,171.38,278.64,171.38,278.64Z" fill="#fed0bc"/><path d="M153.06,278.42c3.5,2,21.55,5.69,21.12-.93C181.52,260.4,142.21,263.94,153.06,278.42Z" fill="#fed0bc"/><path d="M169.5,281a38.31,38.31,0,0,0,16-2.68c4.19-.88,10.63-7.31,2.35-5.62-5.38,2.72-11.43,3.27-18,2.48C168.34,276.15,169.5,281,169.5,281Z" fill="#fed0bc"/><path d="M171,275.27c-5.17-1.13-15.82-5.16-18.9,1.7,3.64,5.12,12.19,3.36,18.26,4A18.72,18.72,0,0,0,171,275.27Z" fill="#fed0bc"/><path d="M103.44,232.67l17.86-55s-22.56,6.7-33.89,12.42c0,0-7.07,9.13-11.45,30.18,0,0-4.63,50.55,5.7,69,0,0,32.63,6.52,84.83-11.42v-12s-57.1,3-68.79,4.35Z" fill="#fed0bc"/><path d="M121.3,177.66S88.19,180,80.21,197.76,69.7,274.61,79.85,292c0,0,14,4,38.69-.65l.91-.17s7.89-19.3.82-23.11c0,0-20.85,1.09-18.67-5.8S121.3,177.66,121.3,177.66Z" fill="#f48225" data-secondary="true"/><path d="M645.44,284.7c.22.93,0,1.78-.47,1.9s-1.06-.54-1.29-1.47,0-1.78.46-1.89S645.21,283.77,645.44,284.7Z"/><polygon points="634.12 284.81 634.09 284.29 637.57 283 637.81 283.44 634.12 284.81" fill="#686175" data-primary="true"/><path d="M638.54,291.33a3.29,3.29,0,0,1-2.38-1.53,13.34,13.34,0,0,1-2.29-9.31c.26-1.46.89-2.38,1.77-2.6s1.86.31,2.77,1.48a13.28,13.28,0,0,1,2.3,9.31c-.27,1.46-.89,2.39-1.77,2.6A1.33,1.33,0,0,1,638.54,291.33ZM636,278.39a1.07,1.07,0,0,0-.25,0c-.65.16-1.15.95-1.37,2.17a12.88,12.88,0,0,0,2.19,8.88c.76,1,1.57,1.45,2.22,1.29s1.14-.95,1.36-2.17a11.6,11.6,0,0,0-.27-4.65h0A11.88,11.88,0,0,0,638,279.7,2.84,2.84,0,0,0,636,278.39Z" fill="#686175" data-primary="true"/><path d="M645.07,291a3.29,3.29,0,0,1-2.39-1.53,13.34,13.34,0,0,1-2.29-9.31c.26-1.46.89-2.39,1.77-2.6,1.75-.43,3.86,2.17,4.79,5.92h0c.92,3.76.27,7-1.49,7.47A1.74,1.74,0,0,1,645.07,291Zm-2.51-13a.84.84,0,0,0-.27,0c-.65.15-1.15.95-1.37,2.17a12.88,12.88,0,0,0,2.19,8.88c.76,1,1.57,1.45,2.22,1.29,1.42-.35,1.92-3.47,1.09-6.82C645.65,280.44,643.94,278,642.56,278Z" fill="#686175" data-primary="true"/><rect x="646.34" y="279.89" width="17.86" height="0.54" transform="translate(-47.89 164.24) rotate(-13.79)" fill="#686175" data-primary="true"/><g opacity="0.2"><polygon points="634.12 284.81 634.09 284.29 637.57 283 637.81 283.44 634.12 284.81"/><path d="M638.54,291.33a3.29,3.29,0,0,1-2.38-1.53,13.34,13.34,0,0,1-2.29-9.31c.26-1.46.89-2.38,1.77-2.6s1.86.31,2.77,1.48a13.28,13.28,0,0,1,2.3,9.31c-.27,1.46-.89,2.39-1.77,2.6A1.33,1.33,0,0,1,638.54,291.33ZM636,278.39a1.07,1.07,0,0,0-.25,0c-.65.16-1.15.95-1.37,2.17a12.88,12.88,0,0,0,2.19,8.88c.76,1,1.57,1.45,2.22,1.29s1.14-.95,1.36-2.17a11.6,11.6,0,0,0-.27-4.65h0A11.88,11.88,0,0,0,638,279.7,2.84,2.84,0,0,0,636,278.39Z"/><path d="M645.07,291a3.29,3.29,0,0,1-2.39-1.53,13.34,13.34,0,0,1-2.29-9.31c.26-1.46.89-2.39,1.77-2.6,1.75-.43,3.86,2.17,4.79,5.92h0c.92,3.76.27,7-1.49,7.47A1.74,1.74,0,0,1,645.07,291Zm-2.51-13a.84.84,0,0,0-.27,0c-.65.15-1.15.95-1.37,2.17a12.88,12.88,0,0,0,2.19,8.88c.76,1,1.57,1.45,2.22,1.29,1.42-.35,1.92-3.47,1.09-6.82C645.65,280.44,643.94,278,642.56,278Z"/><rect x="646.34" y="279.89" width="17.86" height="0.54" transform="translate(-47.89 164.24) rotate(-13.79)"/></g><path d="M644.91,297.92a13.2,13.2,0,0,0,1.22-.58c.43-.22.83-.48,1.22-.73,1.09-.69,2.12-1.35,3-.73a2.18,2.18,0,0,1,.64,1.65,3.81,3.81,0,0,1-1.41,3.06,6.19,6.19,0,0,1-1,.7,4.35,4.35,0,0,1-3.6.15,2.86,2.86,0,0,1-1.7-1.59,1,1,0,0,1,.36-1.19A5.84,5.84,0,0,1,644.91,297.92Z" fill="#f4a57f"/><path d="M646.32,297.68c1.6-.86,2.9-2.12,3.76-1.48.62.45,1.15,3.25-1.76,4.74-2.05,1-4.35,0-4.76-1.21C643.24,298.79,644.71,298.55,646.32,297.68Z"/><path d="M650.47,296.9a3.55,3.55,0,0,1-2.15,4,4,4,0,0,1-3,.26A5.43,5.43,0,0,1,650.47,296.9Z"/><path d="M650.08,296.2a.58.58,0,0,1,.17.2c-1.52,2.64-4.74,4-6.38,2.49.49-.37,1.44-.67,2.45-1.21C647.92,296.82,649.22,295.56,650.08,296.2Z" fill="#fff"/><path d="M790,523.33c0-.05,0-.1,0-.15a4.28,4.28,0,0,0-4.9-3.56,8.32,8.32,0,0,1-5.72-1.12c-3.61-2.23-6-11.41-7.45-19.21a4.23,4.23,0,0,0-.72-1.67,4.28,4.28,0,0,0-6-1,2.44,2.44,0,0,1-2.67.13,123.63,123.63,0,0,1-11.15-8.58,4.25,4.25,0,0,0-6.79,4.52c1.16,3.86,2.23,7.4,2.71,8.79a2.68,2.68,0,0,1-.62,2.62,4.49,4.49,0,0,0-.63,1,4.3,4.3,0,0,0,2,5.73c4.61,2.19,9.61,5,9.52,7.27,0,1.49-1.51,3-3.35,4.36a4.32,4.32,0,0,0-1.37,1.68,4.27,4.27,0,0,0,2.11,5.66c5.75,2.63,12.52,6.4,12.85,9.63.3,3.06-2.78,6.53-5.66,9.06a4.34,4.34,0,0,0-.87,1,4.26,4.26,0,0,0,1.49,5.84c5.57,3.28,14.15,7.93,19,8.66,3,.45,2.29-.59,2.43-.74C792.4,554.11,791.16,533.21,790,523.33Z" fill="#f5f5f5"/><path d="M760.92,518.14a.41.41,0,0,0-.43.4.43.43,0,0,0,.38.45,23,23,0,0,1,7.39,1.73,93.58,93.58,0,0,1,9.52,19.33,15.8,15.8,0,0,0-8.12-4h0a.41.41,0,0,0-.46.35.43.43,0,0,0,.35.48,15.36,15.36,0,0,1,8.93,5.07c4.14,12.21,7.14,28.28,5.76,48.35a.58.58,0,0,0,.46.6h.07a.57.57,0,0,0,.59-.53,129.85,129.85,0,0,0-2.84-38.42,38.39,38.39,0,0,0,5-18.17.45.45,0,0,0-.41-.44h0a.41.41,0,0,0-.41.41,38.27,38.27,0,0,1-4.46,17,104.6,104.6,0,0,0-6.35-18.65q-1.2-2.49-2.31-4.72c2.89-15-3.49-28.27-3.56-28.41h0a.42.42,0,0,0-.56-.19.43.43,0,0,0-.19.56c.07.09,6,12.59,3.67,26.86a65.7,65.7,0,0,0-9.27-13.45h0a.56.56,0,0,0-.79,0h0a.55.55,0,0,0,0,.77,51,51,0,0,1,4.63,6,25.82,25.82,0,0,0-6.5-1.33Z" fill="#e0e0e0"/><path d="M790.87,538.65a3.66,3.66,0,0,1,4.67-3.69,5.46,5.46,0,0,0,3.78-.07c3.88-1.58,6.72-13.74,8.19-21.79a3.73,3.73,0,0,1,.68-1.57,3.69,3.69,0,0,1,5.16-.75c1.64,1.28,3.48,2.17,5,1.62a94.81,94.81,0,0,0,9.67-5.1,3.7,3.7,0,0,1,5.16,4.87c-1.35,2.73-2.52,5.07-3.11,6.17s.63,2.21,2.33,3.17a3.64,3.64,0,0,1,1.41,1.37,3.69,3.69,0,0,1-1.3,5.07c-5.14,3-11.43,7.14-11.68,9.08a4.8,4.8,0,0,0,1.46,3.22,3.71,3.71,0,0,1-2.72,6c-5.14.22-10.44,1-11.07,3.27a4.08,4.08,0,0,0,1.75,4.3,3.48,3.48,0,0,1,.77.81,3.65,3.65,0,0,1-.91,5.09c-4.91,3.34-12.3,7.87-16.25,7.81C792,567.53,791.18,549.08,790.87,538.65Z" fill="#e6e6e6"/><path d="M789.41,593h0a.56.56,0,0,0,.53.58h0a.55.55,0,0,0,.56-.53,113.28,113.28,0,0,1,12.06-45.82,13.48,13.48,0,0,1,12.33-3h0a.42.42,0,0,0,.51-.29.43.43,0,0,0-.3-.51,14.12,14.12,0,0,0-11.67,2.05,130,130,0,0,1,6.8-11.7,32.15,32.15,0,0,1,12.62-2.46h0a.42.42,0,0,0,.41-.41h0a.42.42,0,0,0-.41-.43A32.92,32.92,0,0,0,811,532.54a109.22,109.22,0,0,1,12.27-15.43.56.56,0,0,0-.78-.79,116.79,116.79,0,0,0-16,21.38,43.47,43.47,0,0,1,5.8-22.8.42.42,0,0,0-.13-.58h0a.42.42,0,0,0-.57.14c-.06.12-7,11.16-5.84,24.54a128,128,0,0,0-9.52,20.16,33.37,33.37,0,0,1-2.54-15.94.43.43,0,0,0-.39-.46.42.42,0,0,0-.44.39,32.84,32.84,0,0,0,2.8,16.73.45.45,0,0,0,.22.19A110.24,110.24,0,0,0,789.41,593Z" fill="#f5f5f5"/><path d="M768.43,584.27l5,33.17a4.62,4.62,0,0,0,4.55,3.92h21.11a4.6,4.6,0,0,0,4.54-3.92l5-33.17H768.43Z" fill="#f0f0f0"/><polygon points="807.61 590.87 808.6 584.27 789.62 584.27 787.41 584.27 768.43 584.27 769.42 590.87 807.61 590.87" fill="#e0e0e0"/><path d="M764.51,587a1.59,1.59,0,0,1-.87-2.05l1-2.42a1.56,1.56,0,0,1,1.47-1H811a1.56,1.56,0,0,1,1.47,1l1,2.42a1.62,1.62,0,0,1,.11.58,1.58,1.58,0,0,1-1.58,1.58H765.1A1.71,1.71,0,0,1,764.51,587Z" fill="#f0f0f0"/></svg>