<svg xmlns="http://www.w3.org/2000/svg" xmlns:xlink="http://www.w3.org/1999/xlink" width="865.76" height="682.89" viewBox="0 0 865.76 682.89"><defs><clipPath id="bbd1c5dd-7e63-4566-98ca-558a1c732069"><rect id="ec265f1d-53b7-4c13-92c7-ade83f518869" data-name="SVGID" x="1.61" y="1.44" width="862.54" height="681.46" fill="none"/></clipPath></defs><g style="isolation:isolate"><g id="e536a15c-6c97-4c00-8a1d-32ef580a1412" data-name="Layer 1"><path d="M210.83,273.4c14.71-1.32,123.25-10.36,228.45.16,0,0,33.31,50,46.31,87.36,0,0-259.61-5.7-321.42,0,0,0,8.35-28.13,44.09-85.93A3.4,3.4,0,0,1,210.83,273.4Z" opacity="0.3"/><path d="M211.22,275.89s-30,46.47-42.67,81.43l117-2.08s65.12-.56,85.82.55l108.44.83s-18.76-48.29-42.77-80.85l-70.64-3.59-70.64-.28q-20.34.11-42.22,1.11T211.22,275.89Z" fill="#fff" opacity="0.13"/><g clip-path="url(#bbd1c5dd-7e63-4566-98ca-558a1c732069)"><path d="M880.65,176V188.3H877V176h-3V188.3H843.42v8.88H832.15v1.48h-3.76V218.4H813.68V156.58H811.4v40.85H795.94V132.54H788v-6h-1.78v-.93h-.73v-1.68h-1.33V111.36h-.86l-.47-11h-.38l-.47,11h-.85v12.55h-1.34v1.68h-.72v.93h-1.79v6H755.22l-12.73,19.55v15.43h-7V181.7h-4.16c-.12.26-.22.51-.36.76V207.6H723V196.43l-10.25-6v-103h-32V49.82h-21.5V87.41H644.4V157H630.82v-7h-1v61.69h-5.11V170.28H597.29v41.47h-4.6v63.92H591V272h-4.64V104.35H563.94V208.61H552.67v1.7h-3.76v21.88H524.53V188.3h-7.81V176h-3V188.3H510V176h-3V188.3H476.48v8.88H465.2v1.48h-3.75V218.4H446.73V156.58h-2.28v40.85H429V138.66h-44.7l-8.75,13.43v15.43h-7V181.7h-4.15c-.12.26-.23.51-.36.76V207.6H356V196.43l-10.25-6v-103h-32V49.82h-21.5V87.41H277.46V157H263.88v-7h-1v61.69h-5.1V170.28H230.34v38.33h-9.2V104.35H198.72v48.13H171.37v10.2H160.09v1.7h-3.76v22.67h-1.1v-37h-1v7H140.69V74.49H83V190.42l-10.25,6V207.6H64.67V182.46c-.13-.25-.24-.5-.36-.76H60.15V167.52H53.2V152.09L40.48,132.54H18.42v-6H16.63v-.93H15.9v-1.68H14.57v-.42l-3,0v.46H10.21v1.68H9.48v.93H7.69v6H-.24v64.89H-15.71V156.58H-18V218.4H-32.7V198.66h-3.76v-1.48h-6V430H882.18V176Zm-98.21-52.58H782V112.2h.4Zm.81,0h-.41V112.2h.41Z" fill="#ccc" opacity="0.62" style="mix-blend-mode:multiply"/><polygon points="25.21 587.23 115.43 517.09 170.26 516.54 55.12 576.86 25.21 587.23" fill="#fff"/><polygon points="123.11 575.76 194.39 576.31 266.22 514.9 213.03 517.09 123.11 575.76" fill="#fff"/><polygon points="-52.54 305.14 178.33 407.94 -48.93 559.45 -52.54 305.14" opacity="0.2"/><polygon points="619.07 426.68 1320.19 333.38 1338.31 339.69 1332.27 615.95 866.8 481.5 619.07 426.68" opacity="0.2"/><path d="M-47.51,588,140.7,445.44S420,413.6,521.86,429l128.16,17s158.88,23.4,296,64.09c0,0,301.21,90.15,386.29,138v37.23H-46.95Z" fill="#58595b"/><path d="M526.17,429.89s31.43-12.4,56.24-4.54a151.91,151.91,0,0,0,38.86,5.78s77.74,7.45,103.79,15.72c1.15.38,16.92,2.19,28.44,7.41a26,26,0,0,0,7,2,123.62,123.62,0,0,0,25.85,1.31,26,26,0,0,0,6.85-1.51c7.79-2.76,30.54-8.8,51.38,5.65,0,0,14.05,12.41,36.8,15.3,0,0,114.12,24.81,167.87,48,0,0,15.71,4.13,31,2.06,0,0,32.26-9.09,49.21,12,0,0,14.47,14.48,34.32,20.27,0,0,126.94,39.28,168.29,64.5l.21,21.54S1290.56,621.1,1168,579.92c0,0-86.07-29.22-95.9-31.72l-76.32-24.13-47.43-14.21s-39-11.56-46.87-13c0,0-67.1-17.73-121.2-28L676.8,449.72l-83.51-11.55-45.69-5.78S531.6,429.9,526.17,429.89Z" fill="#d1d3d4"/><path d="M519.72,428.93s31.24-16,70.08-6.47c0,0,19.14,3.94,29.27,4.22,0,0,65.58,3.38,119.62,17.73,0,0,35.46,13.79,58.25,6.75,0,0,25-9.17,49.75,4.13a37.12,37.12,0,0,1,6.73,4.74c3.43,2.93,11.93,8.82,28.8,13.09,0,0,84,17.24,132.89,34l38.21,11.62s15.76,6.5,28.16,2.36c0,0,33.49-9.84,54,13.4,0,0,17.24,14.15,34,18.95a45.62,45.62,0,0,1,4.69,1.63c5.91,2.41,20.68,8.08,31.48,9.16,0,0,27,2.36,50.81,14.57,0,0,11.79,7.46,21.33,13.43a72.64,72.64,0,0,0,10.77,5.56L1332.27,616l-.21,7.87.21,12.61-230-94.53L812.44,466.13,583.18,429.5Z" fill="#bcbec0"/><path d="M457.49,446.81S510.3,478.5,535.39,532c0,0,58.1,102.33,75.92,149.2l45.55,1.33S587.54,553.1,541.33,506.23c0,0-39-50.84-85.82-70C455.51,436.25,456.34,439.35,457.49,446.81Z" opacity="0.2"/><path d="M562.35,480.51l85.24,90.25c58.91,59.54,82.1,111.56,82.1,111.56h-44.5C664.51,641,615.62,575.77,615.62,575.77c-21.81-32.47-49.24-64.57-60.55-77.45-2.69-3.06-5.3-6.19-7.68-9.5C521,452.17,454.55,431,454.55,431l-1.41-3.94S518.28,438.56,562.35,480.51Z" opacity="0.2"/><path d="M788.71,411.53s35.5-6.4,22.49-41.08c0,0-1.44-4.54,1.66-10.52,0,0,14.65-22.5.61-34.47,0,0-19.92-22.55-51.41.12,0,0-11.51,7.79-9.46,21.8a24.13,24.13,0,0,0,3.5,9.29c2.83,4.49,8.92,15.4,6,22.16,0,0-.74,1.69-2.4,4.9a22.76,22.76,0,0,0-2.57,9.33c-.38,7.84,3.17,19.24,27,19.24A27.25,27.25,0,0,0,788.71,411.53Z" fill="#d1d3d4"/><polygon points="783.12 447.23 784.68 392.87 765.3 371.94 784.46 388.87 786.02 339.19 787.36 368.82 810.52 353.45 786.91 372.6 789.58 447.13 783.12 447.23" fill="#bcbec0"/><polygon points="-47.08 597.64 129.24 461.68 130.11 469.57 -47.08 621.32 -47.08 597.64" opacity="0.2"/><path d="M521.86,429S997.4,525.34,1295,682.73l37.26-.6-.26-5s-267.86-144.83-620-211C712,466.13,589.35,437.11,521.86,429Z" opacity="0.2"/><path d="M-49.22,547.14c.57,2.11,1.36,21.41,1.36,21.41L131.76,441.32l1.18-16.15a26.23,26.23,0,0,0-14.7-3.29c-8.93.27-2.89,19.44-2.89,19.44,1.57,6.82-12.87,1.83-12.87,1.83-6.3-.26-.26,10.77-.26,10.77,2.1,3.68-4.73,1.31-4.73,1.31-11-6.3-12.61,5-12.61,5,0,6.55-5.09,7.85-7.58,8.1a9.21,9.21,0,0,1-2.16-.1c-7.86-1.19-12.91,5.37-15,8.74a16.33,16.33,0,0,0-1.26,2.87c-2.51,6.9-21.57,3.77-21.57,3.77-5,1,3.53,5.24,3.53,5.24-23.19,3-26.17,21.53-26.17,21.53-5,9.28-29.81,5-29.81,5-7-.33-1,7.62-1,7.62,2.65,6-5,8.28-5,8.28-10.93,2.32-28.16,15.9-28.16,15.9" fill="#bcbec0"/><path d="M-47.89,552.11s14.9-13.58,26.5-16.23c0,0,10.47-3.67,11.4-9.13a3.71,3.71,0,0,0-.92-3c-1.84-2.13-5.72-7.28,1.44-5.43,0,0,19.21,4,27.83-3.31a11.3,11.3,0,0,0,4.05-8.6A12.27,12.27,0,0,1,27.67,497a26.75,26.75,0,0,1,18.51-5.17s1.36-2-1.35-3.86a.61.61,0,0,1,.25-1.12,33.11,33.11,0,0,1,8.11-.35,10.49,10.49,0,0,0,8-2.42,28.2,28.2,0,0,0,4.85-5.5s4.3-9.27,15.89-7.95c0,0,4.64,1.66,7.62-9.27,0,0,.33-6.29,8-3.64,0,0,9.61,2.31,9.61-2,0,0-8.61-11.26.66-9.61a15.41,15.41,0,0,0,8.94.77,4.33,4.33,0,0,0,3.07-5.31c-1.55-5.85-4.12-17.57.42-16.74,1,.19,2,.42,3,.52,2.63.23,7.29,1,9.36,3.54L131,452.41-47.51,585.94Z" fill="#d1d3d4"/></g><path d="M174.79,550.09l24.65.33a5.05,5.05,0,0,0,5.11-4.63H445.68a4.92,4.92,0,0,0,4.92,4.92h23.3V537.44L172.48,535.2Z" fill="#2f2e41"/><path d="M174.79,550.09l24.65.33a5.05,5.05,0,0,0,5.11-4.63H445.68a4.92,4.92,0,0,0,4.92,4.92h23.3V537.44L172.48,535.2Z" opacity="0.2"/><path d="M470.81,494.32h55.57a0,0,0,0,1,0,0V555.1a22.07,22.07,0,0,1-22.07,22.07H492.88a22.07,22.07,0,0,1-22.07-22.07V494.32A0,0,0,0,1,470.81,494.32Z" fill="#2f2e41"/><path d="M122.92,493.47h55.57a0,0,0,0,1,0,0v60.78a22.07,22.07,0,0,1-22.07,22.07H145a22.07,22.07,0,0,1-22.07-22.07V493.47a0,0,0,0,1,0,0Z" fill="#2f2e41"/><path d="M213.47,266.77s125.48-11.28,205.6-1.54a36.07,36.07,0,0,0,4.28.3c3.83.05,12.62.5,16.44,3.44,0,0,52.95,62.08,58.66,104.36,0,0,30.09,38.85,27.8,62.47l1.53,44.94s-2.29,29.71-9.14,48.75c0,0-1.91,7.62-11.43,8.38l-85.4,2.1-110.06.56L244.64,540l-93.78-3.09-4.21.28s-14,2.25-16-8.7c0,0-8.14-22.74-7.86-37.34l-.28-54.76s-.28-16.28,10.95-35.66c0,0,9-15.72,12.64-20.77a38,38,0,0,0,6.17-14.32s1.69-11.8,12.36-29.49C164.62,336.12,198.59,269.58,213.47,266.77Z" fill="#f48225" data-secondary="true"/><path d="M493.62,356.54h4.61V340.09s-.57-4.62,4.62-4.91c0,0,21.94-4.62,33.2,8.09a15.1,15.1,0,0,1,5.48,13s-.69,3.47-5.57,6.38a18.9,18.9,0,0,1-8,2.51l-31,2.57A51.2,51.2,0,0,0,493.62,356.54Z" fill="#f48225" data-secondary="true"/><path d="M498.23,356.54l41.44-1.46s-1,9.68-18.81,9.26L496.71,366s-1.84-6.33-3.09-9.49Z" opacity="0.3"/><path d="M519.1,451.16s1.11,38.36-5.31,57.53a4.48,4.48,0,0,1-2.67,2.79c-7.31,2.75-35,11.74-78,9.3,0,0,18.41-18.13,27-30.21,0,0,5.47-8.63,12.37-13.52C472.5,477.05,493.79,456.92,519.1,451.16Z" opacity="0.4"/><path d="M154.9,357.08h-4.62V340.63s.58-4.62-4.62-4.91c0,0-21.93-4.62-33.19,8.08a15.13,15.13,0,0,0-5.49,13s.7,3.47,5.58,6.38a18.85,18.85,0,0,0,8,2.51l31.16,2.65A85.48,85.48,0,0,1,154.9,357.08Z" fill="#f48225" data-secondary="true"/><path d="M150.28,357.08l-41.43-1.46s1,9.68,18.81,9.26l24.15,1.69a90.43,90.43,0,0,1,2.74-9.47Z" opacity="0.3"/><path d="M219.78,286.64a331,331,0,0,0-38.35,71l-12.74-.14s20.37-49.14,42.68-81.42c0,0,52-4.33,70.89-4h63l27.2.59,64.76,3.31s24.3,32.51,42.77,80.85l-12.29.13s-19.82-47.62-37.56-69.8c0,0-66.25-5-117.71-3.84C312.43,283.25,244.25,284.7,219.78,286.64Z" opacity="0.2"/><path d="M473.62,440.8a39.72,39.72,0,0,1-24.76-1.09,22.56,22.56,0,0,0-2.2-1,42,42,0,0,0-19.48-2.61c-21.16,2.12-56.05,12-56.05,12-46.06,14-90.85.36-90.85.36l-49-11.65c-14.15-3.22-24.93,0-30.05,2.19a35.56,35.56,0,0,1-15.75,2.77c-17.78-.92-40.13-9.51-40.13-9.51-6.92-1.82-6.56-11.11-6.56-11.11L122.5,436.36l.3,13.18s45.76,8.17,79,55.42a102.6,102.6,0,0,0,17,18.94c7.77,6.65,18.12,13.88,28.29,16H404.45s21.8-4.88,58.15-52.62a64,64,0,0,1,7.77-8.52c9.36-8.56,30.55-25.33,56.31-29.05l-.43-13.9L511.1,421.48s-2.32,12.22-14.53,13.27Z" opacity="0.2"/><path d="M193.75,441.38c14.26,43.26,38.19,60.9,46.37,65.85,1.55.94,3,1.95,4.56,3,9.86,6.64,37,7.87,37,7.87,32.85,2.53,75.61.81,75.61.81l25.78-2.27c21.24-2.06,35.35-16.79,35.35-16.79,20.43-13.27,36.79-58.26,36.79-58.26l1.94.29c-4.5,19.94-22.72,48.7-22.72,48.7-28.36,40.72-67.6,35.59-67.6,35.59-39.17,4.21-102-2.32-102-2.32-57.69-9.44-72.43-82.12-72.43-82.12Z" opacity="0.2"/><path d="M201,460.36s219.87,8,246.1-.29c0,0-12,28.22-28.69,39.75,0,0-14.81,15.28-35.35,16.79l-25.78,2.27-37.21.72-38.4-1.53s-25.51-.77-37-7.87C244.68,510.2,219.6,498.09,201,460.36Z" fill="#2f2e41"/><path d="M438.67,466.26l-3.13,6.27s-78,6.23-130.81,4l-90.13-3.93-4.22-5.89s70.76,5.33,119.9,4.21C330.28,470.9,352.77,472.58,438.67,466.26Z" opacity="0.2"/><path d="M218.25,479.32l4.49,6.46s64.3,9.83,203.56-.28l4.22-5.9S293.29,487.46,218.25,479.32Z" opacity="0.2"/><path d="M419.57,493.36l-6.18,5.9c-44.65,6.17-177.19.1-177.19.1L230,493.14S356.67,499,419.57,493.36Z" opacity="0.2"/><path d="M248,507.12H401a57.9,57.9,0,0,1-28.92,7.58l-102.2-.84S257.56,513.3,248,507.12Z" opacity="0.2"/><path d="M157.43,362.3S155.2,378.25,146,388.6a43,43,0,0,0-7.14,32.54s-1,8.59,6.56,11.11c0,0,21.75,9.06,41.65,9.31a37.38,37.38,0,0,0,15-3,45,45,0,0,1,29.28-1.77l24.61,5.8,24.36,5.85s29.08,9.82,71.61,4.22l12.31-2.8,25.18-6.71s27.7-6.16,41.13-7.28c0,0,10.19.1,16.15,2.85a38.75,38.75,0,0,0,27,2.07l22.95-6.05a16.67,16.67,0,0,0,14.53-13.27s1.39-22.25-10.08-35.4c0,0-8.39-10.35-10.63-23.5,0,0-5.6,15.95-26.58,24.9,0,0-26,12-41.69,22.94a51.79,51.79,0,0,1-17.91,4.76s-78.06,7.55-155.28,0a44.87,44.87,0,0,1-23.23-5S201,393,186.82,387.78a51.41,51.41,0,0,1-13.51-7.46C167.68,376,160.92,369.7,157.43,362.3Z" fill="#fff" opacity="0.2"/><path d="M153.57,385.69c-3.92,3.9-14.36,16.53-10.49,37.61,0,0,1.58,4.38,8.94,6.66s26.11,7,26.11,7,14.9,2.1,27.34-3.16c0,0,20.33-5.43,21.38-14.37,0,0,1.41-3.68-14-12.09,0,0-41-23.17-55.2-23.31A5.71,5.71,0,0,0,153.57,385.69Z" opacity="0.3"/><path d="M166.92,389.65s-9.64-5.16-13.85,2.63c0,0-8.68,9.33-7.18,26.64,0,0,.52,7.36,12.44,11l16.82,4.2s15.08,2.81,29.8-2.8c0,0,17.7-5.43,18.05-11.22,0,0,1.93-6.31-19.63-15.42Z" fill="#fff"/><path d="M166.92,389.65S150.44,410,158.33,430c0,0-11.25-3-12.44-11,0,0-2.46-14.9,7.53-27.17C153.42,391.75,155.88,384.92,166.92,389.65Z" fill="#2f2e41"/><circle cx="174.8" cy="411.59" r="11.57" fill="#ccc"/><circle cx="198.46" cy="416.85" r="8.06" fill="#ccc"/><path d="M496.09,385.8c3.93,3.9,14.37,16.53,10.5,37.61,0,0-1.58,4.38-8.94,6.66s-26.12,7-26.12,7-14.89,2.1-27.33-3.16c0,0-20.33-5.43-21.39-14.37,0,0-1.4-3.68,14-12.09,0,0,41-23.17,55.21-23.31A5.69,5.69,0,0,1,496.09,385.8Z" opacity="0.3"/><path d="M482.75,389.76s10.07-4.71,13.85,2.63A39.53,39.53,0,0,1,503.78,419s-.52,7.36-12.44,11.05l-16.83,4.2s-15.07,2.81-29.79-2.8c0,0-17.7-5.44-18.05-11.22,0,0-1.93-6.31,19.63-15.42Z" fill="#fff"/><path d="M482.75,389.76s16.47,20.33,8.59,40.31c0,0,10.51-2.11,12.44-11.05,0,0,2.46-14.89-7.53-27.16C496.25,391.86,493.79,385,482.75,389.76Z" fill="#2f2e41"/><circle cx="474.86" cy="411.7" r="11.57" fill="#ccc"/><circle cx="451.21" cy="416.96" r="8.06" fill="#ccc"/><g opacity="0.3"><path d="M218.13,405.08l-.67-.41c1.09-.07,111.77-7.81,214.66-.64l-.77.5C328.5,397.37,219.22,405,218.13,405.08Z"/></g><path d="M444.85,360.31c-9.59,3.19-39.24,33.13-39.24,33.13-38.08-6.1-161.9-.29-161.9-.29-17.15-19.18-39-34.3-39-34.3s101-1.22,120.91-.07C325.67,358.78,410.47,358.94,444.85,360.31Z" fill="#fff" opacity="0.09"/><path d="M215,520.18c-47.77,1.33-71-6.46-76.7-8.75a4.22,4.22,0,0,1-2.23-2.07c-7.77-15.8-5.9-57.95-5.9-57.95s30.18,9.17,52.39,31.17c0,0,10.61,10.06,17.47,19.78C200.05,502.36,208,514.34,215,520.18Z" opacity="0.4"/><path d="M139.81,463s-3,29.84,11.6,37.13c0,0,14,8.4,39.9,8.18C191.31,508.33,171.64,473.41,139.81,463Z" fill="#ccc"/><path d="M144.52,464.75s-2.83,23.47,8.33,31.53c0,0,12.93,9.18,36.92,9.62l1.54,2.43s-26.41.89-42.33-9.84c0,0-11.27-6-9.17-35.47Z" opacity="0.3"/><path d="M509.44,463.27s3,29.84-11.6,37.14c0,0-14,8.4-39.9,8.18C457.94,508.59,477.61,473.66,509.44,463.27Z" fill="#ccc"/><path d="M504.73,465s2.83,23.46-8.33,31.53c0,0-12.93,9.17-36.92,9.62l-1.54,2.43s26.41.88,42.33-9.84c0,0,11.27-6,9.17-35.48Z" opacity="0.3"/><path d="M431.83,428.83,395.77,434c-13.49.25-48.31,11.53-48.31,11.53-26.25,7.85-58.87-3.19-58.87-3.19-29.92-11-72.11-13-72.11-13,11-4.49,10.37-9.88,10.37-9.88s74.74,10.62,196,.11C422.81,419.55,423,424.91,431.83,428.83Z" fill="#2f2e41"/><path d="M418.82,424.64c-80.82,7.87-188.76.27-188.76.27v2.17s35.53,3.53,47.46,8.14c0,0,33.9,15.73,81.09,2.71,0,0,50.72-11.12,59.94-12.2Z" opacity="0.2"/><ellipse cx="324.3" cy="435.78" rx="11.53" ry="5.83" fill="#fff"/><path d="M283.2,340.2h-12v-9.52A13.28,13.28,0,0,0,279,317.61l-1-14.09a13.28,13.28,0,0,0-13.25-12.33H245.2a13.3,13.3,0,0,0-13.23,12l-1.36,14.1A13.31,13.31,0,0,0,239,331v9.23H224.7c-8.52,0-15.38,7.88-15.38,16.4l89.29-1.29A15.15,15.15,0,0,0,283.2,340.2Zm-40.63-8.4q.63.06,1.26.06H265.7a13.73,13.73,0,0,0,1.94-.14v8.48H242.57Z" opacity="0.2"/><path d="M428.83,335.7H412.7v-5a13.27,13.27,0,0,0,7.78-13.07l-1-14.09a13.29,13.29,0,0,0-13.25-12.33H386.72a13.29,13.29,0,0,0-13.22,12l-1.36,14.1A13.31,13.31,0,0,0,380.56,331v4.73H367.09c-9,0-16.29,8.75-16.29,19.53l.15.22,94.33,1.31-.16-1.53C445.12,344.45,437.83,335.7,428.83,335.7Zm-44.73-3.9q.61.06,1.26.06h21.87a13.84,13.84,0,0,0,1.94-.14v4H384.1Z" opacity="0.2"/><path d="M347.3,307.49l-1.65-10.92a1.05,1.05,0,0,0-1-.89l-17.78-.21v-3.13a3.59,3.59,0,1,0-4.09.08c0,.92,0,2.08,0,3l-17.91-.21a1,1,0,0,0-1.05.9l-1.66,11.39a1.05,1.05,0,0,0,1,1.2h43.05A1.05,1.05,0,0,0,347.3,307.49Z" opacity="0.2"/><path d="M355.51,355.52a36.86,36.86,0,0,1,7.76-13.64c3.5-4.08,10.57-7,16.54-8.77a65,65,0,0,1,21.2-2.76c10.21.36,24.66,2.65,30.52,12.13.25.4.49.8.75,1.19,1.39,2.08,6.22,9,6.1,12.77Z" fill="#686175" data-primary="true"/><path d="M415.75,356.13c-4.92-5.33-16.26-5.12-16.26-5.12-13.9,0-20.92,4.91-20.92,4.91l-13.33-.14s19.09-13.76,35.51-11.23c0,0,18.68,1.4,26.82,11.93Z" fill="#2f2e41"/><path d="M381.1,356.06l-5.18-7.83a2.18,2.18,0,0,0-3.29-.46,2,2,0,0,0-.52,2s-3.79-.42-3.51,3.09c0,0-3.51-.56-3.36,2.95Z" fill="#f9b499"/><path d="M413.26,356.13l5-7.48a2.17,2.17,0,0,1,3.28-.46,2,2,0,0,1,.52,2s3.79-.42,3.51,3.09c0,0,3.78-.38,3.64,3.13Z" fill="#f9b499"/><ellipse cx="397.1" cy="307.63" rx="16.71" ry="21.48" fill="#f9b499"/><ellipse cx="414.69" cy="309.82" rx="4.17" ry="2.7" transform="translate(-24.74 583.43) rotate(-68.67)" fill="#f9b499"/><ellipse cx="379.88" cy="309.54" rx="2.7" ry="4.17" transform="translate(-47.77 70.29) rotate(-9.95)" fill="#f9b499"/><path d="M378.29,305.52s-6.88-20.08,10.39-27.1c0,0,13.48-4.35,22.46,2.53,0,0,12.8,7.58,5.07,25,0,0-1.7-.7-2.4.56a34.26,34.26,0,0,0-4.07-13.19s-12.36,5.47-24.15-1c0,0-4.49,3.51-5,13.76C380.54,306.08,380.26,305.1,378.29,305.52Z" fill="#2f2e41"/><path d="M389.94,323.35h14.88a0,0,0,0,1,0,0v11.36a5.91,5.91,0,0,1-5.91,5.91h-3.06a5.91,5.91,0,0,1-5.91-5.91V323.35A0,0,0,0,1,389.94,323.35Z" fill="#f9b499"/><path d="M353,356s63.08-25.94,94.5-45.66l1.15,2.57S392.1,346.63,359,355.77Z" fill="#2f2e41"/></g></g></svg>