<svg id="aa5f92d5-8c7f-4c79-88c3-0be2ec4a8dc5" data-name="Layer 1" xmlns="http://www.w3.org/2000/svg" width="865.76" height="682.89" viewBox="0 0 865.76 682.89"><rect x="692.29" y="302.86" width="11.91" height="307.33" fill="#4b83a8"/><path d="M747.8,310.8H647.32a5.49,5.49,0,0,1-5.38-6.53L662,200.93a5.47,5.47,0,0,1,5.44-4.43l63.87.69a5.48,5.48,0,0,1,5.35,4.61l16.52,102.65A5.49,5.49,0,0,1,747.8,310.8Z" fill="#273956"/><polygon points="214.92 177.72 226.19 310.14 458.35 334.37 453.84 145.04 214.92 177.72" fill="#ddeef8"/><polygon points="458.82 139.41 457.13 295.49 453.18 145.04 292.59 167.58 458.82 139.41" fill="#d3e9f4"/><polygon points="222.25 312.39 218.37 222.51 226.19 310.14 317.79 319.64 222.25 312.39" fill="#d3e9f4"/><ellipse cx="396.03" cy="213.73" rx="22.49" ry="8.68" transform="translate(105.93 557.78) rotate(-78.22)" fill="none" stroke="#4b83a8" stroke-miterlimit="10"/><polygon points="404.9 328.67 454.66 186.18 458.35 334.37 404.9 328.67" fill="#fff" opacity="0.2"/><polygon points="226.19 310.14 214.92 177.72 299.73 164.69 243.19 312.27 226.19 310.14" fill="#fff" opacity="0.2"/><polygon points="315.03 166.45 315.15 206.86 273.33 231.01 273.22 190.6 315.03 166.45" fill="#d3e9f4"/><g style="isolation:isolate"><polygon points="310.99 224.35 297.87 216.73 297.81 196.48 310.93 204.1 310.99 224.35" fill="#bde5ef"/><polygon points="310.93 204.1 297.81 196.48 315.07 186.51 328.19 194.13 310.93 204.1" fill="#c9e7f2"/><polygon points="328.19 194.13 328.25 214.39 310.99 224.35 310.93 204.1 328.19 194.13" fill="#d3e9f4"/></g><polygon points="277.84 233.47 277.78 213.22 273.27 210.69 273.22 190.6 244.8 174.08 244.91 214.49 273.33 231.01 273.33 230.94 277.84 233.47" fill="#bde5ef"/><polygon points="301.81 198.82 301.86 219.07 277.84 233.47 277.78 213.22 301.81 198.82" fill="#d3e9f4"/><polygon points="310.73 205.26 295.82 196.59 315.25 185.32 330.16 193.99 310.73 205.26" fill="#4b83a8"/><g opacity="0.2"><polygon points="310.73 205.26 295.82 196.59 315.25 185.32 330.16 193.99 310.73 205.26"/></g><polygon points="310.73 205.26 312.66 189.53 330.16 193.99 310.73 205.26" fill="#4b83a8"/><polygon points="295.82 196.59 312.66 189.53 315.25 185.32 295.82 196.59" fill="#4b83a8"/><g opacity="0.4"><polygon points="295.82 196.59 312.66 189.53 315.25 185.32 295.82 196.59"/></g><polygon points="274.42 191.35 241.97 172.49 284.23 147.97 316.68 166.82 274.42 191.35" fill="#4b83a8"/><g opacity="0.2"><polygon points="274.42 191.35 241.97 172.49 284.23 147.97 316.68 166.82 274.42 191.35"/></g><polygon points="274.42 191.35 278.61 157.13 316.68 166.82 274.42 191.35" fill="#4b83a8"/><polygon points="241.97 172.49 278.61 157.13 284.23 147.97 241.97 172.49" fill="#4b83a8"/><g opacity="0.4"><polygon points="241.97 172.49 278.61 157.13 284.23 147.97 241.97 172.49"/></g><polygon points="302.34 199.65 276.01 215.02 272.36 210.14 298.69 194.78 302.34 199.65" fill="#4b83a8"/><polygon points="276.04 215.02 272.39 210.14 271.47 211.73 276.04 215.02" fill="#4b83a8"/><polygon points="276.04 215.02 272.39 210.14 271.47 211.73 276.04 215.02" opacity="0.2"/><polygon points="293.92 151.34 293.91 154.57 290.36 156.83 290.38 149.3 293.92 151.34" fill="#4b83a8"/><g opacity="0.4"><polygon points="293.92 151.34 293.91 154.57 290.36 156.83 290.38 149.3 293.92 151.34"/></g><polygon points="290.38 149.3 290.36 156.83 286.86 155.29 286.87 151.34 290.38 149.3" fill="#4b83a8"/><polygon points="290.41 153.99 290.39 158.78 285.81 155.6 285.83 151.34 290.41 153.99" fill="#4b83a8"/><g opacity="0.4"><polygon points="290.41 153.99 290.39 158.78 285.81 155.6 285.83 151.34 290.41 153.99"/></g><polygon points="294.96 151.34 294.96 157.65 290.39 158.78 290.41 153.99 294.96 151.34" fill="#4b83a8"/><polygon points="293.94 151.17 293.93 152.11 290.4 150.07 290.41 149.13 293.94 151.17" fill="#4b83a8"/><polygon points="290.41 149.13 290.4 150.07 286.89 152.11 286.89 151.17 290.41 149.13" fill="#4b83a8"/><g opacity="0.2"><polygon points="290.41 149.13 290.4 150.07 286.89 152.11 286.89 151.17 290.41 149.13"/></g><polygon points="290.43 154.37 290.43 155.31 284.88 152.11 284.88 151.17 290.43 154.37" fill="#4b83a8"/><g opacity="0.3"><polygon points="290.43 154.37 290.43 155.31 284.88 152.11 284.88 151.17 290.43 154.37"/></g><polygon points="295.94 151.17 295.94 152.11 290.43 155.31 290.43 154.37 295.94 151.17" fill="#4b83a8"/><g opacity="0.2"><polygon points="295.94 151.17 295.94 152.11 290.43 155.31 290.43 154.37 295.94 151.17"/></g><path d="M290.39,148l-5.51,3.2,5.55,3.2,5.51-3.2Zm0,5.24-3.53-2,3.52-2,3.53,2Z" fill="#4b83a8"/><path d="M290.39,148l-5.51,3.2,5.55,3.2,5.51-3.2Zm0,5.24-3.53-2,3.52-2,3.53,2Z" opacity="0.4"/><polygon points="302.96 220.31 302.9 218.24 278.93 232.09 278.93 232.1 277.84 232.73 277.84 234.74 278.93 234.1 278.94 234.09 278.94 234.11 302.96 220.31" fill="#4b83a8"/><polygon points="243.81 213.06 243.8 215.07 277.84 234.74 277.84 232.73 243.81 213.06" fill="#4b83a8"/><polygon points="243.81 213.06 243.8 215.07 277.84 234.74 277.84 232.73 243.81 213.06" opacity="0.4"/><polygon points="329.35 215.02 329.34 213 312.08 222.96 312.08 222.97 310.99 223.6 310.99 225.61 312.08 224.97 312.08 224.96 312.08 224.99 329.35 215.02" fill="#4b83a8"/><polygon points="329.35 215.02 329.34 213 312.08 222.96 312.08 222.97 310.99 223.6 310.99 225.61 312.08 224.97 312.08 224.96 312.08 224.99 329.35 215.02" opacity="0.2"/><polygon points="329.34 213 328.25 212.36 310.92 222.36 301.91 217.65 301.89 217.66 301.86 217.65 277.84 231.45 277.84 231.46 244.9 212.43 243.81 213.06 277.84 232.73 278.94 232.09 278.92 232.09 278.93 232.09 301.94 218.87 310.99 223.6 312.08 222.96 312.08 222.96 329.34 213" fill="#4b83a8"/><polygon points="329.34 213 328.25 212.36 310.92 222.36 301.91 217.65 301.89 217.66 301.86 217.65 277.84 231.45 277.84 231.46 244.9 212.43 243.81 213.06 277.84 232.73 278.94 232.09 278.92 232.09 278.93 232.09 301.94 218.87 310.99 223.6 312.08 222.96 312.08 222.96 329.34 213" opacity="0.3"/><polygon points="310.99 223.6 310.99 225.61 301.9 220.92 301.88 218.84 310.99 223.6" fill="#4b83a8"/><g opacity="0.4"><polygon points="310.99 223.6 310.99 225.61 301.9 220.92 301.88 218.84 310.99 223.6"/></g><polygon points="312.96 171.35 313 182.74 302.81 188.62 302.78 177.23 312.96 171.35" fill="#ebfdff"/><polygon points="312.71 182.57 307.86 185.37 308.44 185.71 313.29 182.91 312.71 182.57" fill="#4b83a8"/><polygon points="302.52 188.45 303.1 188.79 307.96 185.99 307.38 185.65 302.52 188.45" fill="#4b83a8"/><g opacity="0.4"><polygon points="312.71 182.57 307.86 185.37 308.44 185.71 313.29 182.91 312.71 182.57"/><polygon points="302.52 188.45 303.1 188.79 307.96 185.99 307.38 185.65 302.52 188.45"/></g><polygon points="313.25 171.52 312.68 171.18 312.71 182.57 313.29 182.91 313.25 171.52" fill="#4b83a8"/><polygon points="307.35 174.26 307.38 185.65 307.96 185.99 307.93 174.6 307.35 174.26" fill="#4b83a8"/><g opacity="0.2"><polygon points="313.25 171.52 312.68 171.18 312.71 182.57 313.29 182.91 313.25 171.52"/><polygon points="307.35 174.26 307.38 185.65 307.96 185.99 307.93 174.6 307.35 174.26"/></g><polygon points="302.46 189.85 301.88 189.51 301.84 176.75 302.42 177.09 302.46 189.85" fill="#4b83a8"/><g opacity="0.2"><polygon points="302.46 189.85 301.88 189.51 301.84 176.75 302.42 177.09 302.46 189.85"/></g><path d="M313.91,170.45l-5.5,3.18-.48.28-5.51,3.18,0,12.76,5.5-3.18.48-.28,5.51-3.18ZM303.1,188.79l0-11.39,4.86-2.8L308,186Zm5.34-3.08,0-11.39,4.84-2.8,0,11.39Z" fill="#4b83a8"/><polygon points="313.33 170.12 307.83 173.3 307.35 173.57 301.84 176.75 302.42 177.09 307.93 173.91 308.41 173.63 313.91 170.46 313.33 170.12" fill="#4b83a8"/><polygon points="313.33 170.12 307.83 173.3 307.35 173.57 301.84 176.75 302.42 177.09 307.93 173.91 308.41 173.63 313.91 170.46 313.33 170.12" opacity="0.4"/><polygon points="299.25 179.46 299.28 190.85 289.1 196.73 289.07 185.34 299.25 179.46" fill="#ebfdff"/><polygon points="299 190.68 294.15 193.48 294.73 193.81 299.57 191.02 299 190.68" fill="#4b83a8"/><polygon points="288.81 196.56 289.39 196.9 294.25 194.09 293.67 193.76 288.81 196.56" fill="#4b83a8"/><g opacity="0.4"><polygon points="299 190.68 294.15 193.48 294.73 193.81 299.57 191.02 299 190.68"/><polygon points="288.81 196.56 289.39 196.9 294.25 194.09 293.67 193.76 288.81 196.56"/></g><polygon points="299.54 179.63 298.96 179.29 299 190.68 299.57 191.02 299.54 179.63" fill="#4b83a8"/><polygon points="293.64 182.37 293.67 193.76 294.25 194.09 294.21 182.7 293.64 182.37" fill="#4b83a8"/><g opacity="0.2"><polygon points="299.54 179.63 298.96 179.29 299 190.68 299.57 191.02 299.54 179.63"/><polygon points="293.64 182.37 293.67 193.76 294.25 194.09 294.21 182.7 293.64 182.37"/></g><polygon points="288.74 197.96 288.17 197.62 288.13 184.86 288.71 185.2 288.74 197.96" fill="#4b83a8"/><g opacity="0.2"><polygon points="288.74 197.96 288.17 197.62 288.13 184.86 288.71 185.2 288.74 197.96"/></g><path d="M300.2,178.56l-5.51,3.18-.48.28-5.5,3.18,0,12.76,5.51-3.18.48-.28,5.51-3.18ZM289.39,196.9l0-11.39,4.85-2.81,0,11.39Zm5.34-3.09,0-11.38,4.84-2.8,0,11.39Z" fill="#4b83a8"/><polygon points="299.62 178.23 294.12 181.4 293.63 181.68 288.13 184.86 288.71 185.2 294.21 182.02 294.69 181.74 300.2 178.56 299.62 178.23" fill="#4b83a8"/><polygon points="299.62 178.23 294.12 181.4 293.63 181.68 288.13 184.86 288.71 185.2 294.21 182.02 294.69 181.74 300.2 178.56 299.62 178.23" opacity="0.4"/><polygon points="285.83 187.39 285.86 198.78 275.68 204.66 275.64 193.27 285.83 187.39" fill="#ebfdff"/><polygon points="285.57 198.62 280.73 201.41 281.31 201.75 286.15 198.95 285.57 198.62" fill="#4b83a8"/><polygon points="275.39 204.5 275.97 204.83 280.82 202.03 280.25 201.69 275.39 204.5" fill="#4b83a8"/><g opacity="0.4"><polygon points="285.57 198.62 280.73 201.41 281.31 201.75 286.15 198.95 285.57 198.62"/><polygon points="275.39 204.5 275.97 204.83 280.82 202.03 280.25 201.69 275.39 204.5"/></g><polygon points="286.12 187.56 285.54 187.23 285.57 198.62 286.15 198.95 286.12 187.56" fill="#4b83a8"/><polygon points="280.21 190.3 280.25 201.69 280.82 202.03 280.79 190.64 280.21 190.3" fill="#4b83a8"/><g opacity="0.2"><polygon points="286.12 187.56 285.54 187.23 285.57 198.62 286.15 198.95 286.12 187.56"/><polygon points="280.21 190.3 280.25 201.69 280.82 202.03 280.79 190.64 280.21 190.3"/></g><polygon points="275.32 205.89 274.74 205.56 274.71 192.79 275.29 193.13 275.32 205.89" fill="#4b83a8"/><g opacity="0.2"><polygon points="275.32 205.89 274.74 205.56 274.71 192.79 275.29 193.13 275.32 205.89"/></g><path d="M286.78,186.5l-5.51,3.17-.48.28-5.51,3.18,0,12.76,5.51-3.18.48-.28,5.5-3.17ZM276,204.83l0-11.39,4.85-2.8,0,11.39Zm5.34-3.08,0-11.39,4.85-2.8,0,11.39Z" fill="#4b83a8"/><polygon points="286.2 186.16 280.69 189.34 280.21 189.62 274.71 192.79 275.29 193.13 280.79 189.95 281.27 189.67 286.78 186.5 286.2 186.16" fill="#4b83a8"/><polygon points="286.2 186.16 280.69 189.34 280.21 189.62 274.71 192.79 275.29 193.13 280.79 189.95 281.27 189.67 286.78 186.5 286.2 186.16" opacity="0.4"/><polygon points="325.52 200.61 325.55 212 315.37 217.88 315.33 206.49 325.52 200.61" fill="#ebfdff"/><polygon points="325.26 211.83 320.42 214.63 320.99 214.97 325.84 212.17 325.26 211.83" fill="#4b83a8"/><polygon points="315.08 217.71 315.66 218.05 320.51 215.24 319.94 214.91 315.08 217.71" fill="#4b83a8"/><g opacity="0.4"><polygon points="325.26 211.83 320.42 214.63 320.99 214.97 325.84 212.17 325.26 211.83"/><polygon points="315.08 217.71 315.66 218.05 320.51 215.24 319.94 214.91 315.08 217.71"/></g><polygon points="325.81 200.78 325.23 200.44 325.26 211.83 325.84 212.17 325.81 200.78" fill="#4b83a8"/><polygon points="319.9 203.52 319.94 214.91 320.51 215.24 320.48 203.85 319.9 203.52" fill="#4b83a8"/><g opacity="0.2"><polygon points="325.81 200.78 325.23 200.44 325.26 211.83 325.84 212.17 325.81 200.78"/><polygon points="319.9 203.52 319.94 214.91 320.51 215.24 320.48 203.85 319.9 203.52"/></g><polygon points="315.01 219.11 314.43 218.77 314.39 206.01 314.97 206.35 315.01 219.11" fill="#4b83a8"/><g opacity="0.2"><polygon points="315.01 219.11 314.43 218.77 314.39 206.01 314.97 206.35 315.01 219.11"/></g><path d="M326.46,199.71l-5.5,3.18-.48.28L315,206.35l0,12.76,5.5-3.18.49-.28,5.5-3.18Zm-10.8,18.34,0-11.39,4.86-2.8,0,11.38ZM321,215l0-11.39,4.85-2.8,0,11.39Z" fill="#4b83a8"/><polygon points="325.89 199.38 320.38 202.56 319.9 202.84 314.39 206.01 314.97 206.35 320.48 203.17 320.96 202.89 326.46 199.71 325.89 199.38" fill="#4b83a8"/><polygon points="325.89 199.38 320.38 202.56 319.9 202.84 314.39 206.01 314.97 206.35 320.48 203.17 320.96 202.89 326.46 199.71 325.89 199.38" opacity="0.4"/><polygon points="303.61 204.36 303.64 215.75 293.46 221.63 293.43 210.24 303.61 204.36" fill="#ebfdff"/><polygon points="303.36 215.59 298.51 218.38 299.09 218.72 303.93 215.92 303.36 215.59" fill="#4b83a8"/><polygon points="293.17 221.47 293.75 221.8 298.61 219 298.03 218.66 293.17 221.47" fill="#4b83a8"/><g opacity="0.4"><polygon points="303.36 215.59 298.51 218.38 299.09 218.72 303.93 215.92 303.36 215.59"/><polygon points="293.17 221.47 293.75 221.8 298.61 219 298.03 218.66 293.17 221.47"/></g><polygon points="303.9 204.53 303.32 204.2 303.36 215.59 303.93 215.92 303.9 204.53" fill="#4b83a8"/><polygon points="298 207.27 298.03 218.66 298.61 219 298.57 207.61 298 207.27" fill="#4b83a8"/><g opacity="0.2"><polygon points="303.9 204.53 303.32 204.2 303.36 215.59 303.93 215.92 303.9 204.53"/><polygon points="298 207.27 298.03 218.66 298.61 219 298.57 207.61 298 207.27"/></g><polygon points="293.1 222.86 292.52 222.53 292.49 209.77 293.07 210.1 293.1 222.86" fill="#4b83a8"/><g opacity="0.2"><polygon points="293.1 222.86 292.52 222.53 292.49 209.77 293.07 210.1 293.1 222.86"/></g><path d="M304.56,203.47l-5.51,3.18-.48.27-5.5,3.18,0,12.76,5.51-3.18.48-.27,5.5-3.18ZM293.75,221.8l0-11.39,4.85-2.8,0,11.39Zm5.34-3.08,0-11.39,4.84-2.8,0,11.39Z" fill="#4b83a8"/><polygon points="303.98 203.13 298.48 206.31 297.99 206.59 292.49 209.77 293.07 210.1 298.57 206.93 299.05 206.65 304.56 203.47 303.98 203.13" fill="#4b83a8"/><polygon points="303.98 203.13 298.48 206.31 297.99 206.59 292.49 209.77 293.07 210.1 298.57 206.93 299.05 206.65 304.56 203.47 303.98 203.13" opacity="0.4"/><g style="isolation:isolate"><polygon points="280.8 214.54 279.94 214.04 279.98 229.24 280.84 229.74 280.8 214.54" fill="#4b83a8"/><polygon points="280.8 214.54 279.94 214.04 279.98 229.24 280.84 229.74 280.8 214.54" opacity="0.4"/><polygon points="285.94 210.58 279.94 214.04 280.8 214.54 286.8 211.08 285.94 210.58" fill="#4b83a8"/><polygon points="285.94 210.58 279.94 214.04 280.8 214.54 286.8 211.08 285.94 210.58" opacity="0.2"/><polygon points="286.8 211.08 280.8 214.54 280.84 229.74 286.84 226.28 286.8 211.08" fill="#4b83a8"/></g><g style="isolation:isolate"><path d="M282.07,221.31a.64.64,0,0,1,.24-.25.26.26,0,0,1,.25,0l-.43-.25h-.2l-.05,0a.31.31,0,0,0-.11.09s0,0,0,0l0,0,0,0,0,0,0,0h0v0l0,0v.06l0,0v.12a.17.17,0,0,0,0,.07.25.25,0,0,0,.1.22l.43.25a.25.25,0,0,1-.1-.22.74.74,0,0,1,.1-.34Z" fill="#4b83a8"/><path d="M282.07,221.31a.64.64,0,0,1,.24-.25.26.26,0,0,1,.25,0l-.43-.25h-.2l-.05,0a.31.31,0,0,0-.11.09s0,0,0,0l0,0,0,0,0,0,0,0h0v0l0,0v.06l0,0v.12a.17.17,0,0,0,0,.07.25.25,0,0,0,.1.22l.43.25a.25.25,0,0,1-.1-.22.74.74,0,0,1,.1-.34Z" opacity="0.4"/><path d="M282.31,221.06c.19-.11.35,0,.35.19a.78.78,0,0,1-.34.6c-.19.1-.35,0-.35-.2A.76.76,0,0,1,282.31,221.06Z" fill="#4b83a8"/></g><path d="M286.26,220v-.46l0-7.59-5.14,3,0,7.58V223l0,5.83,5.14-3Zm-4.81-4.88,4.45-2.57,0,7.18-4.45,2.57Zm0,13.08V222.8l4.45-2.57,0,5.43Z" opacity="0.4"/><circle cx="492.01" cy="611.81" r="9.51" fill="#4b83a8"/><circle cx="557.69" cy="612.71" r="9.51" fill="#4b83a8"/><rect x="518.73" y="511.25" width="9.97" height="89.23" fill="#4b83a8"/><rect x="479.78" y="596.86" width="88.78" height="9.06" rx="3.96" fill="#273956"/><path d="M502.43,497.66h45.75a0,0,0,0,1,0,0v2.29a15.83,15.83,0,0,1-15.83,15.83H518.26a15.83,15.83,0,0,1-15.83-15.83v-2.29A0,0,0,0,1,502.43,497.66Z" fill="#273956"/><path d="M636.72,358.47s-8,59.84-41.42,128.3c0,0,.58,13.23-23.59,13.23l-96.65,1.73,24.16-16.68,26.91-48.36L595.88,311.3a46.45,46.45,0,0,1,16.82,2.45C625,317.94,639.06,329.11,636.72,358.47Z" fill="#4b83a8"/><path d="M571.71,473c-25.31,12.09-54.66,11.51-54.66,11.51l9.08-47.78L595.88,311.3a46.45,46.45,0,0,1,16.82,2.45C626,379.87,571.71,473,571.71,473Z" opacity="0.2"/><path d="M342.2,620.82l-26.47,6.83,13.45,6.15,46.33-.59s8.12,1.28,5.56-14.1Z" fill="#686175" data-primary="true"/><path d="M342.2,620.82l-26.47,6.83,13.45,6.15,46.33-.59s8.12,1.28,5.56-14.1Z" opacity="0.2"/><path d="M357.51,603.2s0,.06,0,.15a13.34,13.34,0,0,1-9.12,15.54l-6.23,1.93s.43,4.27,8.12,3.42l17.93-.86s9,.43,12.82-4.27V603.74l-16.66-6.83Z" fill="#ffcdc6"/><path d="M328.4,589.5s-16.23,27.76-39.29,32c0,0,1.28,4.7,13.24,4.7l23.06-1.71,17.51-22.2Z" fill="#ffcdc6"/><path d="M276.72,636.48s-11.1,0-3-5.55l15.38-9.4s3,5.13,13.24,4.7l23.06-1.71s8.17,4.91,2.78,9.57a8.61,8.61,0,0,1-5.57,2Z" fill="#686175" data-primary="true"/><path d="M435.3,418.08S346.46,469,357.05,511.37l-.53,92.12,27,2.65,7.41-73.06,77.82-102.71-6.19-1.51S442.16,425.69,435.3,418.08Z" fill="#273956"/><path d="M356.52,603.49l18,1.59s-.53-29.65,5.29-38.65l12.71-68.3,65.12-65.65v-4.76l-75.18,59.82s-22.49,15-21.75-.46c0,0-7.57,12-3.66,24.29Z" opacity="0.2"/><path d="M326.32,587.91,343.57,603a2.42,2.42,0,0,0,3.4-.23c6.88-7.91,34.86-39.74,56.81-59.48a59.5,59.5,0,0,1,15-9.74c4.47-2,9.87-5.58,10.78-11,0,0,.53-5.3,8.47-5.83,0,0,69.88-19.59,106.94-49.76L525.93,433l-64.06-8.47-56.65,50.3a130.81,130.81,0,0,0-33.88,38.65L325.87,584.8A2.4,2.4,0,0,0,326.32,587.91Z" fill="#273956"/><path d="M542.06,469.23s-19.77,6.27-33.26-11c0,0-20.18-20-40.05-27.88,0,0,21.3,7.18,39.46,19.41,0,0,15,16,33.53,11.29.94.31,3.25,5.83,3.25,5.83Z" opacity="0.2"/><rect x="529.16" y="229.67" width="22.71" height="35.24" fill="#ffcdc6"/><path d="M529.16,264.91v-14.1l18-13.7h2.75S544,261.39,529.16,264.91Z" fill="#f7a79e"/><path d="M435.3,418.08s3.17,6.34,27.26,10.78c0,0,26,7,45.65,20.92,1.9,3.17,17.75,15.85,32.33,11.41L562.1,271.35a37.18,37.18,0,0,1-5.54-12.18l-33.73,1.27s3,13-11.76,16.36c0,0-34.35,40.22-31.73,64.42l-2.87,49.72Z" fill="#f48225" data-secondary="true"/><path d="M435.3,418.08s2.56,6.22,27.26,10.78c0,0,20.93-21.4,18.83-57.39,0,0,1.18-60.09,29.68-94.67,0,0-27,16.4-36.58,53.89l2,60.25Z" opacity="0.2"/><ellipse cx="528.57" cy="223.79" rx="20.95" ry="29.76" fill="#ffcdc6"/><path d="M594.21,301.26s1.11-8.87-8.86-14.4L562.1,271.35s-3.32-3-5.54-12.18l-4.7.17.07-23.06-.06-6.61-2.79-.13s3.19-34.18-28.2-29.92c0,0-14.51.78-12.87,28.9,0,0,1.92,23.68,21.14,25l.23,6.89h-6.55s2.95,13.09-11.76,16.36c0,0-13.42,3.92-19.3,10.78,0,0-7.94-12.16-.93-19.92,0,0,8.86-8.86,7.75-18.83,0,0-2.27-11.36,2.92-16.73a12.53,12.53,0,0,0,2.67-3.83c1.15-2.72,2-6.89-1.16-10.08,0,0-20.67-14-2.95-21a83.29,83.29,0,0,0,14.35-5.65,48.22,48.22,0,0,1,12.41-4.77c9.79-2.19,25-3.43,32.68,7.09,0,0,5.62,7.36,11.38,13.53a53.47,53.47,0,0,0,9.07,7.71c4.46,3,12.84,10.14,13,20.88a22.15,22.15,0,0,1-.56,4.79c-.61,2.91-1.19,11,8.27,19.51a32,32,0,0,1,8.53,12.18C612.6,281.1,613,293.51,594.21,301.26Z" fill="#273956"/><path d="M594.21,301.26s1.11-8.87-8.86-14.4L562.1,271.35s-3.32-3-5.54-12.18l-4.7.17.07-23.06,6.23-1.35s0,.5,0,1.39a45,45,0,0,0,19.56,34.48C586.21,276.62,600.67,288.89,594.21,301.26Z" opacity="0.2"/><path d="M594.21,301.26l-9.89,74.3c3.36,18.63,6.73,77.42,8,101.13a10.3,10.3,0,0,1-10.71,10.82c-23.23-.87-39.52-17-46.34-25.16a54.77,54.77,0,0,1-3.58-4.7c-15.37-28.79-10.79-99.42-10.79-99.42.65-32.88,40.84-86.38,41.21-86.88h0L584,286C595.11,291.19,594.21,301.26,594.21,301.26Z" fill="#686175" data-primary="true"/><path d="M455.64,375.28c2.38-14.9,13.86-79,36.13-87.7a42.74,42.74,0,0,1,19.3-10.78S481,310.6,479.62,338.89l-3.15,52.05-27.94,1.39-4.19-13.62,7.68-.25A3.79,3.79,0,0,0,455.64,375.28Z" fill="#686175" data-primary="true"/><path d="M474.83,389.32l-23.5-.13,3.14,7,21.31.35A17,17,0,0,0,474.83,389.32Z" fill="#ffcdc6"/><g opacity="0.2"><path d="M524.27,278.21c1.22,0,2.44.08,3.65.06s2.43,0,3.64,0c2.42-.07,4.84-.19,7.24-.42s4.8-.55,7.18-.95l1.78-.34c.6-.12,1.18-.28,1.77-.42,1.2-.21,2.34-.63,3.53-.91a36.38,36.38,0,0,1-6.92,2.42,48.09,48.09,0,0,1-7.25,1.2,56.19,56.19,0,0,1-7.34.19A46.88,46.88,0,0,1,524.27,278.21Z"/></g><g opacity="0.2"><path d="M498.48,316.59c1.2-.13,2.39-.25,3.58-.45s2.36-.36,3.54-.58c2.34-.46,4.67-1,7-1.63a61.77,61.77,0,0,0,6.76-2.29L521,311c.54-.25,1.07-.53,1.61-.79,1.11-.46,2.1-1.13,3.19-1.66a31.64,31.64,0,0,1-6.14,3.84,40.94,40.94,0,0,1-6.8,2.56,48,48,0,0,1-7.12,1.42A39.73,39.73,0,0,1,498.48,316.59Z"/></g><path d="M531.67,457.65a54.77,54.77,0,0,0,3.58,4.7c-4.54.31-11.79-.61-20.87-6.61,0,0-11.1-72.27,6.9-118.76,0,0,16.25-42.46,40.78-65.59-1.22,1.65-40.54,54.32-41.18,86.84C520.88,358.23,516.3,428.86,531.67,457.65Z" opacity="0.2"/><polygon points="228.97 616.3 257.01 416.3 271.34 416.3 242.05 616.3 228.97 616.3" fill="#273956"/><polygon points="645.79 616.3 616.51 413.81 633.33 413.81 660.12 616.92 645.79 616.3" fill="#273956"/><ellipse cx="581.66" cy="100.11" rx="53.38" ry="53.7" fill="#273956"/><ellipse cx="581.66" cy="100.11" rx="48.99" ry="49.28" fill="#fff"/><circle cx="582.52" cy="101.02" r="5.72" fill="#273956"/><path d="M581.38,102.65a1.34,1.34,0,0,1-.35-.05,1.15,1.15,0,0,1-.7-.63l-9.81-21.91a1.14,1.14,0,1,1,2.09-.93l9.28,20.73,33.23-19.94a1.14,1.14,0,1,1,1.18,2L582,102.49A1.1,1.1,0,0,1,581.38,102.65Z" fill="#273956"/><ellipse cx="538.21" cy="100.03" rx="2.29" ry="2.45" fill="#273956"/><ellipse cx="581.7" cy="58.17" rx="2.29" ry="2.45" fill="#273956"/><ellipse cx="623.56" cy="97.75" rx="2.29" ry="2.45" fill="#273956"/><ellipse cx="581.7" cy="142.22" rx="2.29" ry="2.45" fill="#273956"/><polygon points="669.51 611.35 669.51 616.58 730.83 616.58 730.83 611.19 704.83 604.81 692.08 604.81 669.51 611.35" fill="#273956"/><line x1="670.53" y1="201.42" x2="654.28" y2="303.89" stroke="#000" stroke-miterlimit="10" opacity="0.2"/><line x1="680.91" y1="202.32" x2="669.63" y2="303.89" stroke="#000" stroke-miterlimit="10" opacity="0.2"/><line x1="689.04" y1="200.52" x2="685.43" y2="303.89" stroke="#000" stroke-miterlimit="10" opacity="0.2"/><line x1="698.07" y1="202.32" x2="698.52" y2="304.34" stroke="#000" stroke-miterlimit="10" opacity="0.2"/><line x1="708" y1="202.32" x2="712.96" y2="303.89" stroke="#000" stroke-miterlimit="10" opacity="0.2"/><line x1="716.57" y1="202.32" x2="727.41" y2="303.43" stroke="#000" stroke-miterlimit="10" opacity="0.2"/><line x1="726.95" y1="201.87" x2="742.75" y2="302.53" stroke="#000" stroke-miterlimit="10" opacity="0.2"/><ellipse cx="551.68" cy="232.8" rx="6.46" ry="7.83" fill="#ffcdc6"/><path d="M521.53,406c1.05.33,56.59,12.91,67.41-44,0,0,10.89-42.07,5.27-60.68,0,0,1.59-9.57-10.22-15.31,0,0-16.35-6.79-22.29,21.51,0,0-6,24.08-7.16,43.9a61.44,61.44,0,0,0,.24,10.06c.64,6.16.24,21.07-18.58,22.18l-60.07-.33a2.39,2.39,0,0,0-2.34,3c1.32,5.23,3.53,15.83.94,19.71Z" fill="#686175" data-primary="true"/><path d="M521.53,406c1.05.33,56.59,12.91,67.41-44,0,0,10.89-42.07,5.27-60.68,0,0,1.59-9.57-10.22-15.31,0,0-16.35-6.79-22.29,21.51,0,0-5.08,20.31-6.79,39a99.76,99.76,0,0,0,0,16c.46,6.65-.85,20.07-18.67,21.12l-59.88-.33a2.53,2.53,0,0,0-2.48,3.15c1.32,5.29,3.45,15.69.89,19.53Z" opacity="0.2"/><path d="M452.23,396.46h69.62a4.29,4.29,0,0,1,4.29,4.29v1.65a4.29,4.29,0,0,1-4.29,4.29H452.23a0,0,0,0,1,0,0V396.46a0,0,0,0,1,0,0Z" fill="#273956"/><rect x="234.07" y="406.63" width="412.72" height="11.77" fill="#273956"/><rect x="234.07" y="406.63" width="412.72" height="11.77" opacity="0.4"/><path d="M344,401.89l-33.24-82.83a6.25,6.25,0,0,1,5.8-8.58h97.28a6.25,6.25,0,0,1,5.68,3.64l42.61,92.54L351,406.6A7.51,7.51,0,0,1,344,401.89Z" fill="#f48225" data-secondary="true"/><path d="M344,401.89l-33.24-82.83a6.25,6.25,0,0,1,5.8-8.58h97.28a6.25,6.25,0,0,1,5.68,3.64l42.61,92.54L351,406.6A7.51,7.51,0,0,1,344,401.89Z" fill="#f48225" data-secondary="true"/><path d="M328.06,277.09c4.15-2.19,6.73-5.24,6.73-8.62,0-6.66-10-12.06-22.4-12.06s-22.4,5.4-22.4,12.06,10,12.06,22.4,12.06c1,0,1.92,0,2.85-.1,7.49,8.89,19,5,19,5C329.44,283.06,328.27,279.45,328.06,277.09Z" fill="#4b83a8"/><circle cx="301.93" cy="268.13" r="2.45" fill="#fdffff"/><circle cx="312.72" cy="268.13" r="2.45" fill="#fdffff"/><circle cx="322.2" cy="268.13" r="2.45" fill="#fdffff"/><ellipse cx="396.44" cy="213.84" rx="22.77" ry="22.4" fill="none" stroke="#4b83a8" stroke-miterlimit="10"/><path d="M374.37,219.47a91.67,91.67,0,0,0,18,6.15,85.7,85.7,0,0,0,21.75,1.86" fill="none" stroke="#4b83a8" stroke-miterlimit="10"/><path d="M377,202.24s20-5.17,41.76,6.89" fill="none" stroke="#4b83a8" stroke-miterlimit="10"/><path d="M228.76,382.13c-12.13,6.28-21.43,17.1-28.12,29s-11,25-15.26,38l-3.74,66.92c14.11-24,25.44-52.24,28.5-79.92l-9.39-.84c6.3-1,11.58-5.52,14.95-10.93s5.09-11.65,6.78-17.79L211,408.27A42.49,42.49,0,0,0,228.76,382.13Z" fill="#f48225" data-secondary="true"/><g opacity="0.3"><path d="M228.76,382.13c-12.13,6.28-21.43,17.1-28.12,29s-11,25-15.26,38l-3.74,66.92c14.11-24,25.44-52.24,28.5-79.92l-9.39-.84c6.3-1,11.58-5.52,14.95-10.93s5.09-11.65,6.78-17.79L211,408.27A42.49,42.49,0,0,0,228.76,382.13Z"/></g><path d="M179.55,531.7S148.92,495,149.27,460h12.38s-13.45-8.84-12.38-13.79,1.42-23.69,1.42-23.69L162,425.38s-8.49-4.24-9.55-11,2.48-37.83,2.48-37.83,13.79,14.5,18,29.35,15.38,32.17,12.11,77.42S179.55,531.7,179.55,531.7Z" fill="#f48225" data-secondary="true"/><path d="M195.08,535.16s33.19-22.11,40.56-50.33l-9.95-2.71s12.74-4.16,13-8.37,4-19.36,4-19.36l-9.71-.2s7.75-1.55,10.07-6.72,6.29-31,6.29-31-14.26,8.64-20.92,19.65-19.4,22.5-26.67,59.6S195.08,535.16,195.08,535.16Z" fill="#f48225" data-secondary="true"/><path d="M163.3,408.56c0,.13.07.25.1.38l.27,1.13c.23,1,.55,2.48,1,4.35s.91,4.21,1.44,6.9,1.18,5.77,1.8,9.17c1.31,6.8,2.69,14.93,4.12,24s2.76,19,4,29.51,2.14,20.52,2.86,29.65,1.18,17.36,1.46,24.28c.17,3.46.25,6.59.34,9.33s.14,5.12.16,7.06,0,3.4.06,4.45v1.16a2.67,2.67,0,0,1,0,.4,2.67,2.67,0,0,1,0-.4v-1.16c0-1-.09-2.54-.15-4.45s-.13-4.3-.25-7-.22-5.87-.42-9.32c-.32-6.92-.87-15.14-1.57-24.26s-1.7-19.14-2.9-29.63-2.58-20.45-3.94-29.5-2.74-17.17-4-24c-.6-3.41-1.2-6.48-1.72-9.18s-1-5-1.36-6.92-.67-3.34-.87-4.37c-.09-.48-.17-.86-.22-1.14A1.78,1.78,0,0,1,163.3,408.56Z" fill="#273956"/><path d="M175.3,554.15s-28-31.81-36.74-51l6.58-2.8c-4.77.78-9.65-1.26-13.34-4.37s-6.42-7.28-9.06-11.28l8.64-1.45a32.14,32.14,0,0,1-18.9-14.65c10.21,1.68,19.45,7.29,27.07,14.3,6.17,5.68,11.39,12.27,16.4,19a64.31,64.31,0,0,1,6.37,10.47C167,522.12,175.32,542.47,175.3,554.15Z" fill="#f48225" data-secondary="true"/><path d="M236.08,435a1.2,1.2,0,0,1-.13.33l-.43.92-1.71,3.53c-.76,1.52-1.67,3.39-2.7,5.58s-2.25,4.66-3.52,7.42c-2.59,5.51-5.56,12.12-8.76,19.5s-6.54,15.57-9.9,24.22-6.34,17-9,24.59-4.85,14.51-6.64,20.32c-.92,2.9-1.69,5.55-2.39,7.86s-1.29,4.31-1.76,6l-1.1,3.76c-.13.4-.23.72-.3,1l-.12.33a1,1,0,0,1,.06-.34c.07-.25.15-.58.25-1,.24-.9.58-2.17,1-3.79s1-3.65,1.67-6,1.42-5,2.32-7.88c1.75-5.84,4-12.74,6.53-20.37s5.6-15.95,8.94-24.63,6.76-16.83,10-24.22,6.24-14,8.87-19.47c1.29-2.75,2.52-5.22,3.58-7.39s2-4,2.79-5.54,1.37-2.66,1.79-3.49l.48-.9A1.85,1.85,0,0,1,236.08,435Z" fill="#273956"/><path d="M177.68,567.78a2.4,2.4,0,0,1-.13-.59l-.27-1.69c-.1-.73-.24-1.63-.43-2.66s-.37-2.23-.65-3.52c-.5-2.61-1.22-5.68-2.14-9.07s-2.11-7-3.53-10.83-3-7.31-4.51-10.47-3-5.93-4.39-8.21c-.64-1.16-1.29-2.17-1.84-3.07s-1-1.67-1.43-2.29l-.92-1.45a3.29,3.29,0,0,1-.29-.52,2.82,2.82,0,0,1,.38.46l1,1.39a27,27,0,0,1,1.52,2.25c.52.89,1.24,1.89,1.91,3,1.39,2.27,2.92,5,4.5,8.19s3.13,6.7,4.57,10.49,2.58,7.5,3.5,10.9a90.06,90.06,0,0,1,2,9.12c.26,1.3.41,2.5.58,3.54s.27,2,.34,2.69.13,1.26.18,1.7A2.76,2.76,0,0,1,177.68,567.78Z" fill="#273956"/><rect x="153.32" y="560.3" width="61.35" height="12.52" fill="#686175" data-primary="true"/><polygon points="159.16 572.81 165.8 614.91 202.87 614.91 209.06 572.81 159.16 572.81" fill="#686175" data-primary="true"/><path d="M210.91,572.81c0,.15-11.61.26-25.92.26s-25.93-.11-25.93-.26,11.61-.26,25.93-.26S210.91,572.7,210.91,572.81Z" opacity="0.2"/><path d="M512.79,223.8a2,2,0,0,0,1.85,2.06,1.86,1.86,0,0,0,2.08-1.64.22.22,0,0,0,0-.08,2,2,0,0,0-1.85-2.06,1.88,1.88,0,0,0-2.09,1.64Z" fill="#273956"/><path d="M511.34,216.51c.23.27,1.77-.8,3.91-.73s3.67,1.17,3.9.92-.12-.59-.79-1.11a5.6,5.6,0,0,0-3.08-1.06,5.12,5.12,0,0,0-3.08.92C511.45,215.93,511.22,216.39,511.34,216.51Z" fill="#273956"/><path d="M532.27,224.11a2,2,0,0,0,1.85,2.06,1.9,1.9,0,0,0,2.09-1.71v0a2,2,0,0,0-1.85-2.05,1.89,1.89,0,0,0-2.09,1.65S532.27,224.08,532.27,224.11Z" fill="#273956"/><path d="M532.32,217.5c.23.28,1.77-.8,3.9-.74s3.68,1.19,3.91.93-.11-.59-.79-1.1a5.43,5.43,0,0,0-3.08-1.06,5.22,5.22,0,0,0-3.08.91C532.43,216.93,532.13,217.39,532.32,217.5Z" fill="#273956"/><path d="M524.11,233.12a14.13,14.13,0,0,0-3.45-.72c-.54-.08-1-.2-1.14-.57a2.85,2.85,0,0,1,.41-1.54l1.73-4.12a71.3,71.3,0,0,0,3.94-10.78c-.24-.09-2.38,4.62-4.79,10.41l-1.66,4.13a3.07,3.07,0,0,0-.34,2.14,1.3,1.3,0,0,0,.86.82,2.92,2.92,0,0,0,.93.15A13.31,13.31,0,0,0,524.11,233.12Z" fill="#f7a79e"/><path d="M549.62,235.8a4.61,4.61,0,0,0,.43.26,1.77,1.77,0,0,0,1.22.08,4.06,4.06,0,0,0,2-3.56,5.3,5.3,0,0,0-.37-2.36,1.9,1.9,0,0,0-1.17-1.31.87.87,0,0,0-1,.4c-.14.27-.09.45-.14.47s-.2-.16-.1-.54a1,1,0,0,1,.4-.59,1.26,1.26,0,0,1,.91-.2,2.33,2.33,0,0,1,1.64,1.54,5.6,5.6,0,0,1,.47,2.65,4.26,4.26,0,0,1-2.56,4,1.78,1.78,0,0,1-1.54-.31C549.64,236,549.59,235.81,549.62,235.8Z" fill="#f7a79e"/><path d="M528.31,237.31a30,30,0,0,0-7.22,2.61c-.2,1.09,1.54,3.54,2.65,4a3.87,3.87,0,0,0,3.48-.39,4.7,4.7,0,0,0,1.66-2.94A7,7,0,0,0,528.31,237.31Z" fill="#fff"/></svg>