<svg id="fd8c4c90-d180-4ef7-8219-716a5e245289" data-name="Layer 1" xmlns="http://www.w3.org/2000/svg" width="865.76" height="682.89" viewBox="0 0 865.76 682.89"><rect x="154.15" y="315" width="557.47" height="91.34" rx="15" fill="#686175" data-primary="true"/><rect x="180.97" y="335.56" width="503.82" height="50.21" rx="5.31" fill="#f1f2f2"/><rect x="255.94" y="450.2" width="359.78" height="50.21" rx="5.31" fill="#ccc"/><rect x="257.93" y="518.43" width="359.78" height="50.21" rx="5.31" fill="#ccc"/><rect x="257.93" y="596.95" width="359.78" height="50.21" rx="5.31" fill="#bcbec0"/><path d="M616.5,318.29s10.74-9.55,25.83-6a3.68,3.68,0,0,1,2.65,2.29,2.37,2.37,0,0,1-.5,2.48,3.57,3.57,0,0,1-3,1.08c-4.37-.38-18.74-.56-20.16,13l.84,62.46s1.89,9.45,10.08,8.82h8.65a4.23,4.23,0,0,1,4.23,4.23h0a4.21,4.21,0,0,1-3.78,4.21c-6,.6-17.67.44-23.59-8.44,0,0-3.7,10.23-24,7.74a3.83,3.83,0,0,1-3.35-3.81h0a3.83,3.83,0,0,1,4-3.83c6.33.33,17.94-.45,18.62-10.49V331.2s1.11-13-18.4-12.3a4.12,4.12,0,0,1-4.27-4.1h0a4.09,4.09,0,0,1,3.35-4.05C598.9,309.85,609.07,309.51,616.5,318.29Z" fill="#686175" data-primary="true"/><path d="M616.5,318.29s10.74-9.55,25.83-6a3.68,3.68,0,0,1,2.65,2.29,2.37,2.37,0,0,1-.5,2.48,3.57,3.57,0,0,1-3,1.08c-4.37-.38-18.74-.56-20.16,13l.84,62.46s1.89,9.45,10.08,8.82h8.65a4.23,4.23,0,0,1,4.23,4.23h0a4.21,4.21,0,0,1-3.78,4.21c-6,.6-17.67.44-23.59-8.44,0,0-3.7,10.23-24,7.74a3.83,3.83,0,0,1-3.35-3.81h0a3.83,3.83,0,0,1,4-3.83c6.33.33,17.94-.45,18.62-10.49V331.2s1.11-13-18.4-12.3a4.12,4.12,0,0,1-4.27-4.1h0a4.09,4.09,0,0,1,3.35-4.05C598.9,309.85,609.07,309.51,616.5,318.29Z" fill="#fff" opacity="0.2"/><circle cx="242.97" cy="203.72" r="52.07" fill="#f48225" data-secondary="true"/><circle cx="242.97" cy="203.72" r="38.63" fill="#fff"/><circle cx="242.97" cy="203.72" r="27.32" fill="#2f2e41"/><path d="M240,214.22a1.46,1.46,0,0,1-1.06-.46l-10.92-11.33a1.47,1.47,0,0,1,2.12-2L240,210.61l15.32-16.5a1.47,1.47,0,1,1,2.15,2L241.1,213.75a1.51,1.51,0,0,1-1.06.47Z" fill="#f48225" data-secondary="true"/><circle cx="499.72" cy="103.15" r="52.07" fill="#f48225" data-secondary="true"/><circle cx="499.72" cy="103.15" r="38.63" fill="#fff"/><circle cx="499.72" cy="103.15" r="27.32" fill="#2f2e41"/><circle cx="339.56" cy="74.37" r="38.63" fill="#2f2e41"/><circle cx="339.56" cy="74.37" r="27.32" fill="#fff" opacity="0.2"/><path d="M336.62,84.86a1.47,1.47,0,0,1-1.06-.45L324.64,73.08a1.47,1.47,0,1,1,2.12-2l9.84,10.22,15.32-16.5a1.47,1.47,0,1,1,2.15,2L337.7,84.4a1.48,1.48,0,0,1-1.07.46Z" fill="#fff"/><circle cx="424.38" cy="242.35" r="38.63" fill="#2f2e41"/><circle cx="424.38" cy="242.35" r="27.32" fill="#fff" opacity="0.2"/><path d="M421.44,252.85a1.47,1.47,0,0,1-1.06-.45l-10.92-11.34a1.47,1.47,0,1,1,2.12-2l9.84,10.22,15.32-16.5a1.47,1.47,0,1,1,2.15,2l-16.37,17.64a1.53,1.53,0,0,1-1.07.47Z" fill="#fff"/><circle cx="641.07" cy="176.4" r="38.63" fill="#f48225" data-secondary="true"/><circle cx="641.07" cy="176.4" r="27.32" fill="#fff" opacity="0.2"/><path d="M488,114.47a1.44,1.44,0,0,1-1-.43,1.46,1.46,0,0,1,0-2.08l22.35-22.35a1.47,1.47,0,1,1,2.07,2.08L489,114A1.47,1.47,0,0,1,488,114.47Z" fill="#f48225" data-secondary="true"/><path d="M511.72,115.84a1.44,1.44,0,0,1-1-.43L487,91.69a1.46,1.46,0,0,1,0-2.08,1.48,1.48,0,0,1,2.08,0l23.72,23.72a1.47,1.47,0,0,1-1,2.51Z" fill="#f48225" data-secondary="true"/><path d="M654,187.76l-11.5-11.5,10.13-10.14a1.46,1.46,0,0,0,0-2.08,1.48,1.48,0,0,0-2.08,0l-10.13,10.14L630.24,164a1.47,1.47,0,1,0-2.07,2.08l10.13,10.14-10.13,10.13a1.46,1.46,0,0,0,0,2.08,1.46,1.46,0,0,0,2.07,0l10.14-10.14,11.51,11.51a1.46,1.46,0,0,0,2.07,0A1.46,1.46,0,0,0,654,187.76Z" fill="#fff"/></svg>