<svg id="f02933bf-7ee0-43cb-a506-5c82fcea89d0" data-name="Layer 1" xmlns="http://www.w3.org/2000/svg" width="865.76" height="682.89" viewBox="0 0 865.76 682.89"><rect x="616.16" y="104.43" width="27.82" height="24.34" fill="#2f2e41"/><rect x="506.99" y="261.79" width="243.55" height="45.83" rx="22.91" fill="#686175" data-primary="true"/><rect x="499.92" y="307.62" width="255.97" height="12.3" rx="6.15" fill="#ccc"/><rect x="27.66" y="91.99" width="722.88" height="157.84" rx="78.92" fill="none" stroke="#ccc" stroke-miterlimit="10" stroke-width="5" stroke-dasharray="11.96 11.96"/><polygon points="195.72 319.71 195.72 455.33 308.99 469.49 308.99 333.37 195.72 319.71" fill="#f48225" data-secondary="true"/><polygon points="195.72 319.71 283.82 298.22 393.1 312.75 308.99 333.37 195.72 319.71" fill="#f48225" data-secondary="true"/><polygon points="195.72 319.71 283.82 298.22 393.1 312.75 308.99 333.37 195.72 319.71" fill="#fff" opacity="0.2"/><polygon points="393.1 448.68 308.99 469.49 308.99 333.37 393.1 312.75 393.1 448.68" fill="#f48225" data-secondary="true"/><polygon points="393.1 448.68 308.99 469.49 308.99 333.37 393.1 312.75 393.1 448.68" opacity="0.2"/><polygon points="280.46 175.92 280.46 311.93 373.18 328.99 373.18 194.46 280.46 175.92" fill="#2f2e41"/><polygon points="280.46 175.92 396.17 158.5 485.96 173.78 373.18 194.46 280.46 175.92" fill="#2f2e41"/><polygon points="280.46 175.92 396.17 158.5 485.96 173.78 373.18 194.46 280.46 175.92" fill="#fff" opacity="0.2"/><polygon points="373.18 328.99 373.18 194.46 485.96 173.78 485.96 312.64 373.18 328.99" fill="#2f2e41"/><polygon points="373.18 328.99 373.18 194.46 485.96 173.78 485.96 312.64 373.18 328.99" opacity="0.2"/><polygon points="423.46 299.15 450.77 427.04 571.87 421.82 544.67 294.39 423.46 299.15" fill="#f48225" data-secondary="true"/><polygon points="386.69 484.29 358.87 357.73 423.46 299.15 450.77 427.04 386.69 484.29" fill="#f48225" data-secondary="true"/><polygon points="386.69 484.29 358.87 357.73 423.46 299.15 450.77 427.04 386.69 484.29" fill="#fff" opacity="0.2"/><polygon points="508.9 479.94 571.87 421.82 450.77 427.04 386.69 484.29 508.9 479.94" fill="#f48225" data-secondary="true"/><polygon points="508.9 479.94 571.87 421.82 450.77 427.04 386.69 484.29 508.9 479.94" opacity="0.2"/><rect x="528.98" y="215.96" width="202.69" height="45.83" rx="22.91" fill="#ccc"/><rect x="547.86" y="169.89" width="165.68" height="45.83" rx="22.91" fill="#f48225" data-secondary="true"/><rect x="574.18" y="123.81" width="113.02" height="45.83" rx="22.91" fill="#ccc"/><circle cx="630.2" cy="89.16" r="21.49" fill="#ccc"/><circle cx="774.51" cy="416.79" r="63.59" fill="#ccc"/><circle cx="561.52" cy="590.96" r="24.26" fill="#ccc"/><polygon points="596.17 431.26 596.17 564.4 683.6 584.27 683.6 449.64 596.17 431.26" fill="#2f2e41"/><polygon points="596.17 431.26 596.17 564.4 683.6 584.27 683.6 449.64 596.17 431.26" opacity="0.2"/><polygon points="683.6 584.27 683.6 449.64 796.13 436.23 796.13 572.23 683.6 584.27" fill="#2f2e41"/><polygon points="707.08 414.62 596.17 431.26 683.6 449.64 796.13 436.23 707.08 414.62" fill="#2f2e41"/><polygon points="707.08 414.62 596.17 431.26 683.6 449.64 796.13 436.23 707.08 414.62" fill="#fff" opacity="0.2"/><polygon points="313.95 227.56 313.95 270.55 334.73 274.83 334.73 264.9 321.07 262.41 320.82 254.22 331.75 256.7 331.75 247.01 320.57 244.78 320.82 237.57 334.73 241.05 334.73 231.61 313.95 227.56" fill="#fff"/><polygon points="420.86 234.34 429.44 230.05 436.59 243.63 442.07 226.48 452.31 226.48 440.88 253.88 440.88 273.18 431.11 273.18 431.11 253.88 420.86 234.34" fill="#fff"/><polygon points="229.91 365.99 229.91 410.7 241.34 410.7 241.34 400.27 246.55 395.06 254.75 412.69 268.41 412.69 254.75 386.36 271.14 369.97 255 369.97 242.21 382.76 242.21 365.99 229.91 365.99" fill="#fff"/><polygon points="374.09 383.11 395.05 415.3 400.97 412.69 398.75 386.07 410.22 403.83 417.25 399.21 412.44 352.4 403.93 358.32 408 383.85 396.9 365.99 390.61 370.16 392.83 395.32 381.73 376.82 374.09 383.11" fill="#fff"/><path d="M489.4,442H468.68l-13.32,23.31h10.73l2.13-4.26a5,5,0,0,1,9.32.71l1.13,3.55h11.1l-2.59-7.77c3.7,0,9.25-3.89,9.25-3.89C501.62,444.53,489.4,442,489.4,442Zm-8.49,9.86c-3.5,0-6.33-1.25-6.33-2.79s2.83-2.8,6.33-2.8,6.34,1.26,6.34,2.8S484.41,451.81,480.91,451.81Z" fill="#fff"/><path d="M499.92,337a20.9,20.9,0,1,0,20.89,20.9A20.9,20.9,0,0,0,499.92,337Zm.59,31.91a11,11,0,1,1,11-11A11,11,0,0,1,500.51,368.9Z" fill="#fff"/><path d="M654.17,494.41s-5.22-9.68-26.58-14v44.83s21.25,6.93,28.56-5a13,13,0,0,0,1.38-3.3A28.8,28.8,0,0,0,654.17,494.41Zm-5.45,17C646.17,520,637,516.77,637,516.77V494.16c9.55.91,11.65,8.35,12.08,12.36A12.3,12.3,0,0,1,648.72,511.39Z" fill="#fff"/><path d="M748.52,502.39c-8.11-3.38-9.83-2.91-9.61-4.78a3.35,3.35,0,0,1,.79-1.74c4.26-5,10.47.76,10.47.76l7.81-7.8c-12.14-9-21.14-6-25.78-3a16.13,16.13,0,0,0-5.79,6.57c-6.55,13.69,15.25,19.14,15.25,19.14,3.12.39,3.74,2.07,3.66,3.5a5,5,0,0,1-2.48,3.88c-5.44,3.27-12.78-4.07-12.78-4.07L723,522s13.1,11,26.5,6.62a14.29,14.29,0,0,0,10.06-12C759.93,511.94,758,506.34,748.52,502.39Z" fill="#fff"/><path d="M138.21,338.92h0a14.41,14.41,0,0,1,12,6.45l78.15,117.89c14.66,22.12-18.64,46.7-45.17,46.3l-100.6-.74c-10.9-.16-22-6.23-29.5-14.19A25.15,25.15,0,0,1,50.53,464l75.52-118.39A14.43,14.43,0,0,1,138.21,338.92Z" fill="#686175" data-primary="true"/><path d="M93.05,469.57c-4.72,13.17-16.46,10.28-16.46,10.28-5.27-1.09-7.33-4.84-8-8.51a16.7,16.7,0,0,1,2.19-11.64l55.9-93.91a3.67,3.67,0,0,1,4.9-1.35h0a3.66,3.66,0,0,1,1.65,4.58Z" fill="#fff" opacity="0.2"/></svg>