<svg id="b5c336b6-b992-4eaa-9917-ea9172db413d" data-name="Layer 1" xmlns="http://www.w3.org/2000/svg" width="865.76" height="682.89" viewBox="0 0 865.76 682.89"><path d="M572.18,612.35,286,594.31l-3-100.76s415.3-25,417.71-23.77c-36.25-15.76-167-9-199.39-7a121.33,121.33,0,0,1-13.35,0c-51-2.51-205.6,11.85-205.6,11.85-126.27,9.62-214.65,38-214.65,38-37.18,13-29,26.87-25.33,31.08a31.81,31.81,0,0,1,2.36,3.08c6.28,9.28,43.81,51.92,210.56,68C255.32,614.75,459.09,631,572.18,612.35Z" fill="#58595b"/><polygon points="648.03 602.25 285.56 583.93 285.56 588.39 633.17 605.72 648.03 602.25" fill="#bcbcbc"/><path d="M285.56,588.39l.43,5.92,286.19,18s37.23-4.15,53.07-7.13Z" fill="#ccc"/><path d="M283,500.92l2.55,83,367.14,18.4s182.51-19.11,179.11-56.41a11.35,11.35,0,0,0-2.1-5.43c-5.62-8-32-41.18-94-58.21Z" fill="#a7a9ac"/><path d="M390,372.59c-.23.41-.44.84-.64,1.26-1,2-3.79,7.5-7,10.78a14.18,14.18,0,0,1-1.31,1.15,48.79,48.79,0,0,0-8.71,9.13,37.19,37.19,0,0,1-2.69,3.19c-5.74,6.16-18.72,19.73-24.16,25.42a23.1,23.1,0,0,0-3.43,4.71c-.81,1.45-1.56,1.93-2.13,2a1.5,1.5,0,0,0-1.22,1.05,3.35,3.35,0,0,1-1.86,2.13l-2.17,3.34-.4-.27c-3.74-2.56-11.28-9.92-11.75-10.38l0,0c-1.51-1.51.83-3.18.83-3.18-.33-1.16,2.17-3.5,2.17-3.5.23-1.86,1.31-2.33,2.15-2.41a2.49,2.49,0,0,0,1.8-1l.64-.89a1.38,1.38,0,0,0,.25-.71c.29-4,7.5-11.81,7.5-11.81,3.34-7,11.58-18.6,11.58-18.6s-13.33,6.41-20,8.76l2.09-4.69s3.87-12.85,4.72-24.3c0,0,6.85-6.87,4.89-11.45,0,0,11.18-3.35,36.29,1.61a25.59,25.59,0,0,1,11.17,5.21l.11.09S394.68,364,390,372.59Z" fill="#2f2e41"/><path d="M334.29,436.5l-1,1.69c-.41.58-.83.33-.83.33-7-2.67-9.42-7.59-9.42-7.59-2-4-.5-4.83-.5-4.83l0,0C323,426.58,330.55,433.94,334.29,436.5Z" fill="#f9b499"/><path d="M336.08,444.29a4.33,4.33,0,0,1-1.72,1.4,3.22,3.22,0,0,1-3.67,1.92l-2.75,5.84a3.24,3.24,0,0,1-.85,1.46,2.82,2.82,0,0,0-.83,1.07l-.91,2c-1,2.76-2.83,11.26-2.83,11.26-.5,2.25-.08,8.92-.08,8.92a1.36,1.36,0,0,1,.06.64c-.12.72-1,.78-1,.78-1.84.33-5.59-9.17-5.59-9.17a4.17,4.17,0,0,1-.67-3,37,37,0,0,0,.59-3.84,8.66,8.66,0,0,0-2.92-6.5,3.87,3.87,0,0,1-.84-2.59l-2.08-17-.09-.49a15.66,15.66,0,0,1,.6-7.25c1.25-4-1.27-6-1.4-6.1h0l3-.33a10.59,10.59,0,0,1,5.82.31,2.34,2.34,0,0,0,1.78,0,3.88,3.88,0,0,1,2.91.11c-1.29,1.54-.08,2.42-.08,2.42a1.94,1.94,0,0,0-.5.79,4.5,4.5,0,0,0-2.34,3.54c-.33,3.35,3.67,7.27,5.38,8.78a6.88,6.88,0,0,0,1,.79,3,3,0,0,1,1.49,2.52c2.09-1.33,3.21-.66,3.21-.66a3.13,3.13,0,0,0,1.11.26,2.72,2.72,0,0,0,.94-.07,3.11,3.11,0,0,1,3,.49A1.37,1.37,0,0,1,336.08,444.29Z" fill="#f48225" data-secondary="true"/><path d="M333.27,438.19s.46.46-.2,1.21l-1.67,2.67a2.06,2.06,0,0,1-.63-.21s-1-.63-3.21.66a2.94,2.94,0,0,0-1.75-2.66s-5.38-4.17-6.1-8.29a4.43,4.43,0,0,1,2.31-4.68,7.13,7.13,0,0,0,.28,2.19,9,9,0,0,0,1.42,2.92,16.54,16.54,0,0,0,5.2,4.7,19.9,19.9,0,0,0,3.54,1.77S332.81,438.77,333.27,438.19Z" fill="#ccc"/><path d="M322.26,480.76c-2.49,1.29-3.35.34-3.35.34-5.6-3.87-9.82-19.36-9.82-19.36L305.15,444a17.78,17.78,0,0,0-.56-2,36.56,36.56,0,0,1-1.86-16.91c1.55-4.39,6.39-1.5,6.39-1.5h0c.13.1,2.65,2.08,1.4,6.1a15.66,15.66,0,0,0-.6,7.25l.09.49,2.08,17a3.87,3.87,0,0,0,.84,2.59,8.66,8.66,0,0,1,2.92,6.5,37,37,0,0,1-.59,3.84,4.17,4.17,0,0,0,.67,3s3.75,9.5,5.59,9.17c0,0,.86-.06,1-.78l0,.07C324.06,479.47,322.26,480.76,322.26,480.76Z" fill="#2f2e41"/><path d="M231.64,545s-1.42,8.88-2.91,9.51c0,0,.15-1.18-1.73-2,0,0-10.62-3.7-9.28-10l.94-4.4h0a11.54,11.54,0,0,1,2.22,2.41,9.45,9.45,0,0,0,4.51,2.91,7.9,7.9,0,0,1,1.65.69,8.93,8.93,0,0,0,4,1.06.9.9,0,0,0,.54-.15Z" fill="#ccc"/><path d="M233.84,553.05a3.41,3.41,0,0,1-1.18,2.87,7,7,0,0,0-2.13,3.72,17.32,17.32,0,0,1-1.55,4.67,6.4,6.4,0,0,0-.69,1.29c-.75,2-2.32,6.95-1.55,11.4a22.28,22.28,0,0,1,.32,2.42c.14,2.17.58,6.55,1.91,9.25,0,0,0,1.81-.79,1.57,0,0-5-6.44-5.11-8.25,0,0,.63-5.43-1.26-7a14.55,14.55,0,0,0-2.9-2.43,3.93,3.93,0,0,1-1.62-1.8c-.59-1.38-1.65-3.37-2.87-3.47a2.5,2.5,0,0,1-2.28-1.5l-3-7.15s2.67-1.18,1.89-3c0,0-2.12-4.17-2-7.07,0,0,1.26-5-4.95-7.87a15.51,15.51,0,0,1,3.49-1.89,7.69,7.69,0,0,0,1.5-.66,4,4,0,0,1,1.78-.53,3.35,3.35,0,0,0,1.73-.59l2.43-1.67s0,.45,1.06,1c0,0,1.77,1.07,2.55,1.7l-.94,4.4s-.78,2.44,1.57,5.11a12.7,12.7,0,0,0,3.7,2.91,22.56,22.56,0,0,0,4,2,2.42,2.42,0,0,1,1.73,2s.86-.31,1.73-3.7C230.46,550.77,234.55,550.46,233.84,553.05Z" fill="#f48225" data-secondary="true"/><path d="M227.39,591.89c-1.1.79-3-.94-3-.94C217.64,587.1,210.49,573,210.49,573L205,560.53a50.1,50.1,0,0,1-6.13-15.34c-2.43-5.74,5.27-4.48,5.27-4.48,6.21,2.91,4.95,7.87,4.95,7.87-.15,2.9,2,7.07,2,7.07.78,1.81-1.89,3-1.89,3l3,7.15a2.5,2.5,0,0,0,2.28,1.5c1.22.1,2.28,2.09,2.87,3.47a3.93,3.93,0,0,0,1.62,1.8,14.55,14.55,0,0,1,2.9,2.43c1.89,1.57,1.26,7,1.26,7,.15,1.81,5.11,8.25,5.11,8.25.79.24.79-1.57.79-1.57C231.64,589.46,227.39,591.89,227.39,591.89Z" fill="#2f2e41"/><path d="M341.19,360.55a30.75,30.75,0,0,0-.89,4.57c-1,8.86-6.38,19-8.22,22.32a18.33,18.33,0,0,0-1.06,2.24,29,29,0,0,1-5.13,8.65c-.94.71-4.14-.47-4.14-.47a23.67,23.67,0,0,0-4.85-.59c-3.79.71-11.72,1.66-11.72,1.66l-6,12.42a8.8,8.8,0,0,0-.59,3.43,8.24,8.24,0,0,0-1.79,0,4.15,4.15,0,0,0-1.41.37c-14,17.28-38.11,12.19-38.11,12.19,1.19-5.33,7.46-21.66,7.46-21.66,1.77-5.68-3.2-13.49-3.2-13.49-9-16.22,1.54-27.1,1.54-27.1-.71-5.33,6.87-8.31,6.87-8.31h0a3.76,3.76,0,0,0,.75-.41,6.15,6.15,0,0,1,2.79-1.06c.59-.08,1.29-.19,2.08-.36a15.37,15.37,0,0,1,3.64-.32c2.2.08,5.78.2,8.64.27l2.11-.67s3.22-3.44,6.56-3.22c0,0,3.67-1.67,6.34.44,0,0,6.45-.33,8.11,3.45,0,0,1.28,2.1,3.34,1.25a14.34,14.34,0,0,1,2.09-.72,31.62,31.62,0,0,1,5.47-1l8.78-1.19a34.19,34.19,0,0,1,10.53-.94A14.06,14.06,0,0,1,341.19,360.55Z" fill="#686175" data-primary="true"/><path d="M296.77,414.77c-5.45,16.81-17.32,37.48-21.1,43.87a24.74,24.74,0,0,0-1.79,3.61A44.65,44.65,0,0,1,267.71,473c-.25.31-.48.62-.71.93-4.8,6.75-13.53,24.37-13.53,24.37a160.31,160.31,0,0,1-12,21.42,15.73,15.73,0,0,0-1.72,3.49,84.36,84.36,0,0,1-4.31,9.12,7.54,7.54,0,0,0-.89,2.84,7.49,7.49,0,0,1-.89,2.65,8.83,8.83,0,0,0-1,3.76,8,8,0,0,1-.64,3,.75.75,0,0,1-.31.37.9.9,0,0,1-.54.15,8.93,8.93,0,0,1-4-1.06,7.9,7.9,0,0,0-1.65-.69,9.45,9.45,0,0,1-4.51-2.91,11.54,11.54,0,0,0-2.22-2.41h0a13.65,13.65,0,0,0-2.55-1.7c-2.12-1.11-.22-1.67-.22-1.67,1.66,0,1.11-1,1.11-1a1.85,1.85,0,0,1,.38-1.79,6.53,6.53,0,0,0,1.49-3.23A14.11,14.11,0,0,1,222,522c.67-2.67,4.12-10.45,4.12-10.45l4.11-15.68c3.11-13.68,11.53-24.61,11.53-24.61,1.33-2,4.1-7.16,4.1-7.16,1.72-3.91,5.25-12.6,5.25-12.6a61.06,61.06,0,0,0,3.53-11.17c0-3.91,2.86-14.23,2.86-14.23s23.69,5.39,37.66-11.89A2.12,2.12,0,0,0,296.77,414.77Z" fill="#2f2e41"/><path d="M298.56,414.78c-.37,0-2.26,4-3.4,4.43l1.61-4.44a2.66,2.66,0,0,1,1.79,0Z" fill="#2f2e41"/><path d="M298.56,414.78c-.37,0-2.26,4-3.4,4.43l1.61-4.44a2.66,2.66,0,0,1,1.79,0Z" opacity="0.2"/><path d="M407.66,219.09c-1.83,3.84-13.84,19.18-13.84,19.18-2.38,1.88-8.34,8.66-11.16,11.91a25.94,25.94,0,0,0-2.11,2.88C379.32,255,378,255,378,255c-4.67,1.17-20.51,6.67-20.51,6.67s.3.53-.25,2c0,0-1.34,10.51-9.23,15.73,0,0,12.95-.22,17.07-1.83a17.83,17.83,0,0,0,5.42-1.51,10.67,10.67,0,0,1,2.64-.89c3.07-.61,9.92-2.16,13.51-4.56a12.32,12.32,0,0,1,2.56-1.36c1-.37,2.67-1.37,4.94-4a53.12,53.12,0,0,1,5.14-6.46,26.51,26.51,0,0,0,2.54-3.15,80.79,80.79,0,0,0,9.44-17.74c.4-1.13.85-2.24,1.33-3.34,1.51-3.46,4.38-9.74,6.13-11.56Z" fill="#f9b499"/><path d="M301.17,246.3a5.51,5.51,0,0,0-.84,2.34l-1.05,1,.33.33a2,2,0,0,1,1.67,1.22,9,9,0,0,1,2.22,2.17A30.65,30.65,0,0,1,308,257.7a20,20,0,0,1,2.73,5.56s.89,5.22,4,8.23c0,0,2.5-1.78,3.22-1.84a2,2,0,0,1,1.67-.72s2-6.59,2.78-7.87c0,0-7-4.75-8-19.43,0,0-3.05-2-3.46-7.09a9.29,9.29,0,0,1-2.24,3.39,9.51,9.51,0,0,0-1.92,2,24.15,24.15,0,0,1-2.35,2.55Z" fill="#f9b499"/><path d="M321.77,262.56l.71-1.75s-6.05-11.17-7.72-19.51C314.76,241.3,310.09,251.14,321.77,262.56Z" fill="#f7ad92"/><path d="M170.13,285.47s-4.11,5-.93,6.16c0,0,1.54,1.23,4.21-4.11Z" fill="#f7ad92"/><path d="M178.44,272.53s7.09-1.95,10.47-3.28c0,0,17-8.11,30.7-10.78,0,0,6.19-1.66,8.6-1.62a16.9,16.9,0,0,0,3.18-.23c5.57-1,19.42-3.37,22.93-3.7l3.38,21.67s-15.32.17-22.56-2.13a8.35,8.35,0,0,0-4.15-.26c-.82.16-1.74.32-2.56.42a22,22,0,0,0-3.3.69c-4.27,1.26-15,4.23-22.77,4.87,0,0-4.46.7-15.4,3.31a22.37,22.37,0,0,0-4.64,1.68,9.65,9.65,0,0,1-3.47,1.07Z" fill="#f9b499"/><path d="M178.44,272.53a5.08,5.08,0,0,0-3.53-2.5,5.18,5.18,0,0,1-2.1-1.13l-.14-.12a2.4,2.4,0,0,1-.89-1.57c-.18-1.49-.73-4.12-2.27-4.12,0,0-1.33-.21-.72,4.72,0,0-3-4.11-4.82-2.46,0,0-1,.82.2,2,0,0-2.46,1.13-.51,2.77a21.68,21.68,0,0,0,1.13,3.49s-3,0-2.06,1.95a10,10,0,0,0,2.64,5.65,12.06,12.06,0,0,1,1.58,1.91,5.8,5.8,0,0,0,1.84,1.68,17.56,17.56,0,0,0,4.62,3.08,3,3,0,0,0,3.39-.61s1.85-.52,2.87-3.49Z" fill="#f9b499"/><path d="M357.21,263.59a24,24,0,0,1-10,16.42,7.67,7.67,0,0,0-1.75,1.66,3.55,3.55,0,0,1-2.65,1.35,3.94,3.94,0,0,0-2.31.93l-3.37,2.88c-5.76,6.36-11.85,21-14.32,27.27a27.18,27.18,0,0,0-1.5,5.54c-.6,3.65-1.41,6.88-1.41,6.88a40.87,40.87,0,0,1-2.34,11.57c.23,1.78.34,6.67.34,6.67a58.24,58.24,0,0,1,4,9.67,31.62,31.62,0,0,0-5.47,1,14.34,14.34,0,0,0-2.09.72c-2.06.85-3.34-1.25-3.34-1.25-1.66-3.78-8.11-3.45-8.11-3.45-2.67-2.11-6.34-.44-6.34-.44-3.34-.22-6.56,3.22-6.56,3.22l-2.11.67c-2.86-.07-6.44-.19-8.64-.27a15.37,15.37,0,0,0-3.64.32c-.79.17-1.49.28-2.08.36a6.15,6.15,0,0,0-2.79,1.06,3.76,3.76,0,0,1-.75.41h0c-1.24-3.55-.81-5.71-.19-6.91a5.29,5.29,0,0,0,.56-2.87,5,5,0,0,1,.25-2,6.22,6.22,0,0,0,.1-3.12c-.45-2.25.21-5.47.71-7.39a4.77,4.77,0,0,0,0-2.57,3.59,3.59,0,0,1-.1-1.5,11.77,11.77,0,0,0,.11-2.37c-.21-3.54-.21-9.64-.21-9.64.22-4.9-.78-21.35-.78-21.35-.11-5.12-.78-6.9-.78-6.9-2-5.55-2.22-13.34-2.22-13.34-.11-2.22-7.12.23-7.12.23-1.09.39-2.07-1.13-2.56-2.08a4.25,4.25,0,0,0-.75-1c-1.76-1.81-2.92-8.24-2.92-8.24-1.78-6.55-1.3-10-.48-11.8a3.52,3.52,0,0,1,2.8-2l3.69-.43c20-5.45,25.57.45,25.57.45,2.67-2.34,8.84-1.34,8.84-1.34,1.73-2.94,4.84-.94,4.84-.94l.33.33c1.67.28,1.67,1.22,1.67,1.22a9,9,0,0,1,2.22,2.17c6.23,4.67,7.17,9.9,7.17,9.9a17.6,17.6,0,0,0,4,8.22c1.61-1.11,2.87-1.81,2.87-1.81a2.7,2.7,0,0,1,2-.74c.39-1.26.75-2.59,1.2-3.91s1-2.67,1.48-3.94a9.23,9.23,0,0,0,6.36,2.38,9.62,9.62,0,0,0,6.31-3,1.21,1.21,0,0,1,.43-.35c3.31-1.7,8.88-.9,11.26-.43a3,3,0,0,0,1.92-.3,1.48,1.48,0,0,1,1.3-.08,5.74,5.74,0,0,0,2.21.6,5.49,5.49,0,0,1,2,.46,7.48,7.48,0,0,0,2.38.53C358.29,261,357.21,263.59,357.21,263.59Z" fill="#f48225" data-secondary="true"/><path d="M400.91,206.23c.91.49,2.61,1.93,2.77,5.87a7.08,7.08,0,0,0,.57,2.65,3.92,3.92,0,0,0,.88,1.31,4,4,0,0,1,.78.95c.85,1.53,3.25,5.27,6.71,5.59a2.64,2.64,0,0,1,.68.13c1.11.41,5.07,1.63,7.35-.94a9.9,9.9,0,0,1,.72-.73,12.5,12.5,0,0,0,3.56-7.38,3.84,3.84,0,0,1,.4-1.27,5.66,5.66,0,0,0,.61-2.93,3.89,3.89,0,0,1,.14-1.44c.55-1.72,1.77-6.06,1-8.24a1.07,1.07,0,0,0-1.91-.19,7.91,7.91,0,0,0-.85,2.41,10,10,0,0,1-.9,2.49,1.89,1.89,0,0,0-.25,1.05.75.75,0,0,1-.36.76c-.15.08-.29.09-.35-.1,0,0-.39-1.23.28-1.67a15.62,15.62,0,0,0,.49-1.62,7.65,7.65,0,0,1,.64-1.79,6.82,6.82,0,0,0,.59-1.76s1.56-2.5-.45-3.06c0,0-1.5-.39-2.83,2.45,0,0,1.22-3.62.33-4.17,0,0-1.92-1.37-3.57,2.09a16.12,16.12,0,0,1-1,1.81,6.85,6.85,0,0,0-1.19,3.32s-.28,2.28-.94,1.62a2.63,2.63,0,0,1,.44-1.84,24.08,24.08,0,0,0,.83-2.78s1.45-1.94.67-3.39c0,0-1.67-1.72-3.95,2.34a40.09,40.09,0,0,0-2.83,6.78s-1.72,4.89-2.61,5.17a7.62,7.62,0,0,0-4.1-5.4,2.82,2.82,0,0,0-1.84-.35,1.27,1.27,0,0,0-1.13.87A1.24,1.24,0,0,0,400.91,206.23Z" fill="#f9b499"/><path d="M305.18,398.93l-1.6,3.33s-28.51,6-36-16.12C267.61,386.14,278.12,406.34,305.18,398.93Z" opacity="0.2"/><ellipse cx="328.25" cy="238.67" rx="14.1" ry="24.8" fill="#f9b499"/><ellipse cx="315.26" cy="235.69" rx="4.17" ry="6.73" transform="translate(-46.08 79.57) rotate(-13.41)" fill="#f9b499"/><path d="M301.87,239.76c-.63-4.32-2.13-16.48.5-19.1h0a22.06,22.06,0,0,1,7.3-9h0s8.22-4.39,15.48-1a14.58,14.58,0,0,0,2.63.9,6,6,0,0,1,2.35,1.18,11.83,11.83,0,0,0,2.3,1.41c2.32,1.1,6.56,3.47,6.86,6.28a5.79,5.79,0,0,0,.38,1.54c.33.79.5,1.8-1.16,1.14h0s-.73-.79-1.42-.68a3.64,3.64,0,0,1-2.58-.46l-2.77-1.73a.71.71,0,0,0-1.09.65,8.93,8.93,0,0,0,1.32,3.37s1.8,3.33-1.67,2.05h0s-2.17,2.31-3.71,1.54h0s-2.31,1.15-1.67,5.89h0l-3.59.77h0s-.72-3-5.8-5.18a3,3,0,0,0-1.54-.26c-1.28.15-2.65,1.11-3.06,5.48h0a9.86,9.86,0,0,1-2.24,3.39,13.81,13.81,0,0,0-1.92,2,15.32,15.32,0,0,1-2.35,2.55h0l-3.25,3.84h0a6.59,6.59,0,0,1,.41-3.87A5.28,5.28,0,0,0,301.87,239.76Z" fill="#2f2e41"/><path d="M272.15,475.53,255.31,614.78s23.8,1.86,31.22,1.86Q285,554.6,283,492.58l-.6-17.9-6.77.54Z" fill="#bcbcbc"/><path d="M283,496.35l427.13-22.59s-3.42-1.57-10.5-4.51c-53.22,2.82-108.71,5.2-161.94,8-85.65,4.54-169.17,9.54-254.83,14.08C283.06,493,282.92,495.3,283,496.35Z" fill="#bcbcbc"/><path d="M735.71,482.28,283,500.92l.09-4.61,427.05-22.55A194.9,194.9,0,0,1,735.71,482.28Z" fill="#ccc"/><rect x="119.36" y="241.13" width="9.87" height="286" fill="#bcbec0"/><path d="M157.27,548.44H90.6v-1.33a7.45,7.45,0,0,1,.29-2.07h-8l2.46,6.31,72,0h2.71l2.37-6.18H157a7.65,7.65,0,0,1,.28,2Z" fill="#e6e7e8"/><polygon points="86.53 73.74 84.17 73.78 71.89 74.02 80.91 88.88 88.6 101.55 86.53 73.74" fill="#2f2e41"/><polygon points="159.57 73.83 154.62 73.74 153.08 105 162.83 88.93 171.84 74.07 159.57 73.83" fill="#2f2e41"/><g opacity="0.2"><polygon points="86.53 73.74 84.17 73.78 71.89 74.02 80.91 88.88 88.6 101.55 86.53 73.74"/><polygon points="159.57 73.83 154.62 73.74 153.08 105 162.83 88.93 171.84 74.07 159.57 73.83"/></g><polygon points="90.21 123.14 87.09 123.2 74.81 123.44 83.83 138.3 92.39 152.41 90.21 123.14" fill="#2f2e41"/><polygon points="156.65 123.23 152.18 123.14 150.69 153.52 159.91 138.33 168.93 123.47 156.65 123.23" fill="#2f2e41"/><g opacity="0.2"><polygon points="90.21 123.14 87.09 123.2 74.81 123.44 83.83 138.3 92.39 152.41 90.21 123.14"/><polygon points="156.65 123.23 152.18 123.14 150.69 153.52 159.91 138.33 168.93 123.47 156.65 123.23"/></g><polygon points="93.89 172.55 90.01 172.63 77.73 172.86 86.75 187.72 96.19 203.27 93.89 172.55" fill="#2f2e41"/><polygon points="153.73 172.63 149.75 172.55 148.3 202.05 156.99 187.73 166.01 172.87 153.73 172.63" fill="#2f2e41"/><g opacity="0.2"><polygon points="93.89 172.55 90.01 172.63 77.73 172.86 86.75 187.72 96.19 203.27 93.89 172.55"/><polygon points="153.73 172.63 149.75 172.55 148.3 202.05 156.99 187.73 166.01 172.87 153.73 172.63"/></g><path d="M110.39,227.13v4.25a4.25,4.25,0,0,0,.38,1.74,4.48,4.48,0,0,0,2.49,2.29v2.75a2.92,2.92,0,0,0,.86,2.05,3.1,3.1,0,0,0,2.22.92h13.77a3,3,0,0,0,3.08-3v-2.84a4.33,4.33,0,0,0,2.64-3.94v-4.6Z" fill="#2f2e41"/><path d="M152.18,123.14l.9-18.14,1.54-31.26.52-10.54-.15.11L85.78,64.57l.74,9.92,2.08,27.82,1.61,21.57,2.18,29.26,1.5,20.12L96.18,204l1.08,14.4,50.34-2.12.7-14.21,1.45-29.5.94-19Zm-11.18,74a18.14,18.14,0,0,1-1.49,3.26,18.88,18.88,0,0,1-16.33,9.21c-10.37,0-18.78-8.13-18.78-18.15a18.08,18.08,0,0,1,10.08-16.09,19.18,19.18,0,0,1,8.7-2.07,19.45,19.45,0,0,1,5.65.84A18.26,18.26,0,0,1,142,191.49,17.58,17.58,0,0,1,141,197.17Zm1.19-45.71a19.46,19.46,0,0,1-1.63,3.56A20.63,20.63,0,0,1,122.7,165.1c-11.33,0-20.52-8.89-20.52-19.85a19.78,19.78,0,0,1,11-17.59,21,21,0,0,1,9.5-2.25,21.35,21.35,0,0,1,6.19.91,20,20,0,0,1,14.33,18.93A19.08,19.08,0,0,1,142.19,151.46Zm1.44-48.23a22.14,22.14,0,0,1-1.79,3.93,22.76,22.76,0,0,1-19.68,11.1c-12.5,0-22.62-9.79-22.62-21.88A21.79,21.79,0,0,1,111.68,77,23.36,23.36,0,0,1,129,75.52a22,22,0,0,1,15.8,20.86A21,21,0,0,1,143.63,103.23Z" fill="#2f2e41"/><path d="M129,75.52A23.36,23.36,0,0,0,111.68,77,21.79,21.79,0,0,0,99.54,96.38c0,12.09,10.12,21.88,22.62,21.88a22.76,22.76,0,0,0,19.68-11.1,22.14,22.14,0,0,0,1.79-3.93,21,21,0,0,0,1.14-6.85A22,22,0,0,0,129,75.52ZM140.47,102a18,18,0,0,1-2.36,4.75,19.32,19.32,0,0,1-16,8.25c-10.61,0-19.2-8.31-19.2-18.57a18.37,18.37,0,0,1,8.15-15.18,19.56,19.56,0,0,1,11-3.38,19.82,19.82,0,0,1,5.48.77,18.67,18.67,0,0,1,13.71,17.79A18,18,0,0,1,140.47,102Z" fill="#2f2e41"/><path d="M129,75.52A23.36,23.36,0,0,0,111.68,77,21.79,21.79,0,0,0,99.54,96.38c0,12.09,10.12,21.88,22.62,21.88a22.76,22.76,0,0,0,19.68-11.1,22.14,22.14,0,0,0,1.79-3.93,21,21,0,0,0,1.14-6.85A22,22,0,0,0,129,75.52ZM140.47,102a18,18,0,0,1-2.36,4.75,19.32,19.32,0,0,1-16,8.25c-10.61,0-19.2-8.31-19.2-18.57a18.37,18.37,0,0,1,8.15-15.18,19.56,19.56,0,0,1,11-3.38,19.82,19.82,0,0,1,5.48.77,18.67,18.67,0,0,1,13.71,17.79A18,18,0,0,1,140.47,102Z" opacity="0.2"/><path d="M127.64,78.59a19.82,19.82,0,0,0-5.48-.77,19.56,19.56,0,0,0-11,3.38A18.37,18.37,0,0,0,103,96.38c0,10.26,8.59,18.57,19.2,18.57a19.32,19.32,0,0,0,16-8.25,18,18,0,0,0,3.24-10.32A18.67,18.67,0,0,0,127.64,78.59Z" fill="#fe4f4a"/><path d="M128.89,126.32a21.35,21.35,0,0,0-6.19-.91,21,21,0,0,0-9.5,2.25,19.78,19.78,0,0,0-11,17.59c0,11,9.19,19.85,20.52,19.85A20.63,20.63,0,0,0,140.56,155a19.46,19.46,0,0,0,1.63-3.56,19.08,19.08,0,0,0,1-6.21A20,20,0,0,0,128.89,126.32Zm10.43,24a16.59,16.59,0,0,1-2.14,4.32,17.55,17.55,0,0,1-14.48,7.48c-9.62,0-17.41-7.54-17.41-16.85a16.67,16.67,0,0,1,7.39-13.77,17.94,17.94,0,0,1,15-2.37,16.93,16.93,0,0,1,12.44,16.14A16.23,16.23,0,0,1,139.32,150.3Z" fill="#2f2e41"/><path d="M128.89,126.32a21.35,21.35,0,0,0-6.19-.91,21,21,0,0,0-9.5,2.25,19.78,19.78,0,0,0-11,17.59c0,11,9.19,19.85,20.52,19.85A20.63,20.63,0,0,0,140.56,155a19.46,19.46,0,0,0,1.63-3.56,19.08,19.08,0,0,0,1-6.21A20,20,0,0,0,128.89,126.32Zm10.43,24a16.59,16.59,0,0,1-2.14,4.32,17.55,17.55,0,0,1-14.48,7.48c-9.62,0-17.41-7.54-17.41-16.85a16.67,16.67,0,0,1,7.39-13.77,17.94,17.94,0,0,1,15-2.37,16.93,16.93,0,0,1,12.44,16.14A16.23,16.23,0,0,1,139.32,150.3Z" opacity="0.2"/><path d="M127.68,129.11a17.94,17.94,0,0,0-15,2.37,16.67,16.67,0,0,0-7.39,13.77c0,9.31,7.79,16.85,17.41,16.85a17.54,17.54,0,0,0,14.48-7.49,16.4,16.4,0,0,0,2.94-9.36A16.93,16.93,0,0,0,127.68,129.11Z" fill="#f9e014"/><path d="M128.83,174.17a19.45,19.45,0,0,0-5.65-.84,19.18,19.18,0,0,0-8.7,2.07,18.08,18.08,0,0,0-10.08,16.09c0,10,8.41,18.15,18.78,18.15a18.88,18.88,0,0,0,16.33-9.21,18.14,18.14,0,0,0,1.49-3.26,17.58,17.58,0,0,0,.95-5.68A18.26,18.26,0,0,0,128.83,174.17Zm9.54,21.94a14.93,14.93,0,0,1-2,3.94,16.06,16.06,0,0,1-13.24,6.85,15.68,15.68,0,0,1-15.94-15.41,15.25,15.25,0,0,1,6.77-12.6,16.2,16.2,0,0,1,9.17-2.81,16.62,16.62,0,0,1,4.55.64,15.5,15.5,0,0,1,11.38,14.77A14.75,14.75,0,0,1,138.37,196.11Z" fill="#2f2e41"/><path d="M128.83,174.17a19.45,19.45,0,0,0-5.65-.84,19.18,19.18,0,0,0-8.7,2.07,18.08,18.08,0,0,0-10.08,16.09c0,10,8.41,18.15,18.78,18.15a18.88,18.88,0,0,0,16.33-9.21,18.14,18.14,0,0,0,1.49-3.26,17.58,17.58,0,0,0,.95-5.68A18.26,18.26,0,0,0,128.83,174.17Zm9.54,21.94a14.93,14.93,0,0,1-2,3.94,16.06,16.06,0,0,1-13.24,6.85,15.68,15.68,0,0,1-15.94-15.41,15.25,15.25,0,0,1,6.77-12.6,16.2,16.2,0,0,1,9.17-2.81,16.62,16.62,0,0,1,4.55.64,15.5,15.5,0,0,1,11.38,14.77A14.75,14.75,0,0,1,138.37,196.11Z" opacity="0.2"/><path d="M127.73,176.72a16.62,16.62,0,0,0-4.55-.64,16.2,16.2,0,0,0-9.17,2.81,15.25,15.25,0,0,0-6.77,12.6,15.68,15.68,0,0,0,15.94,15.41,16.06,16.06,0,0,0,13.24-6.85,14.93,14.93,0,0,0,2-3.94,14.75,14.75,0,0,0,.74-4.62A15.5,15.5,0,0,0,127.73,176.72Z" fill="#a3dc7e"/><polygon points="155.13 63.2 160.87 59.07 79.34 60.92 85.78 64.57 85.78 64.57 154.99 63.31 155.13 63.2" fill="#2f2e41"/><polygon points="155.13 63.2 160.87 59.07 79.34 60.92 85.78 64.57 85.78 64.57 154.99 63.31 155.13 63.2" opacity="0.2"/><polygon points="97.26 218.38 92.88 222.61 151.43 220.49 147.6 216.26 97.26 218.38" fill="#2f2e41"/><polygon points="97.26 218.38 92.88 222.61 151.43 220.49 147.6 216.26 97.26 218.38" opacity="0.2"/><polygon points="92.88 222.61 93.15 227.37 110.39 227.13 135.84 226.78 150.34 226.58 151.43 220.49 92.88 222.61" fill="#2f2e41"/><polygon points="159.64 54.48 80.48 56.25 79.06 60.92 160.73 59.07 159.64 54.48" fill="#2f2e41"/><path d="M130.33,523.73h-12.8a4.27,4.27,0,0,0-3.6,1.93,4,4,0,0,0-.67,2.2v3.62H134.6v-3.62A4.2,4.2,0,0,0,130.33,523.73Z" fill="#2f2e41"/><path d="M104.92,534.21a5.46,5.46,0,0,0-.84,2.9v2.58H98a7.4,7.4,0,0,0-7.41,7.42v1.33h66.67v-1.33a7.65,7.65,0,0,0-.28-2,7.42,7.42,0,0,0-7.14-5.43h-6.07v-2.58a5.72,5.72,0,0,0-5.82-5.63H109.9a5.85,5.85,0,0,0-5,2.73" fill="#2f2e41"/><path d="M159.75,551.3h-2.41l-72,0-2.73,5.43,79.48.26-2-5.73Z" fill="#d1d3d4"/><g opacity="0.2"><path d="M96.35,94.36s20.24-14.82,50-4.41c-7.29-13.06-8.75-18.53-27.54-18.18S96.35,94.36,96.35,94.36Z" fill="#2f2e41"/></g><path d="M148.9,95.94h-2.6c0-13-10.91-23.48-24.33-23.48S97.65,83,97.65,95.94h-2.6c0-14.38,12.08-26.08,26.92-26.08S148.9,81.56,148.9,95.94Z" fill="#fff"/><g opacity="0.2"><path d="M99.63,143.07s18.3-13.4,45.17-4c-6.59-11.8-7.91-16.74-24.89-16.42S99.63,143.07,99.63,143.07Z" fill="#2f2e41"/></g><path d="M147.13,144.5h-2.35c0-11.7-9.86-21.23-22-21.23s-22,9.53-22,21.23H98.46c0-13,10.91-23.58,24.33-23.58S147.13,131.5,147.13,144.5Z" fill="#fff"/><g opacity="0.2"><path d="M101.64,190.05s17.07-12.5,42.15-3.72c-6.16-11-7.39-15.63-23.23-15.33S101.64,190.05,101.64,190.05Z" fill="#2f2e41"/></g><path d="M146,191.39h-2.19c0-10.93-9.21-19.81-20.52-19.81s-20.52,8.88-20.52,19.81h-2.19c0-12.14,10.19-22,22.71-22S146,179.25,146,191.39Z" fill="#fff"/></svg>