<svg id="f210ecec-94fd-4dfb-90f5-a025a2e393e1" data-name="Layer 1" xmlns="http://www.w3.org/2000/svg" width="865.76" height="682.89" viewBox="0 0 865.76 682.89"><polygon points="623.29 453.47 600.18 614.73 605.25 614.73 639.08 451.21 623.29 453.47" fill="#273956"/><polygon points="666.71 451.77 659.95 615.29 665.02 615.29 680.81 452.9 666.71 451.77" fill="#273956"/><polygon points="705.05 453.47 721.4 615.29 716.33 615.29 690.96 450.08 705.05 453.47" fill="#273956"/><polygon points="762 614.16 730.43 447.26 746.21 443.88 767.64 614.16 762 614.16" fill="#273956"/><path d="M778.35,415.69s0,32.7-16.35,33.83c0,0-33.83,10.15-91.9,9.58,0,0-71.62,2.21-87.64-9.8a5.56,5.56,0,0,1,.19-8.91,16.22,16.22,0,0,1,1.68-1c2.92-1.56,7.3-2.68,13.59-1.68,0,0,25.28.42,34-1.28,2.71-.54,5.42-1,8.15-1.32,9.92-1.3,30.72-7.25,40-34.07A67,67,0,0,0,683,388.47c2.49-17.76,15.66-96.58,53.67-99.09a59.43,59.43,0,0,1,20.18-1.19c12.43,1.56,26.44,8.37,28.87,30.52C785.68,318.71,789.63,336.75,778.35,415.69Z" fill="#273956"/><path d="M778.35,415.69s0,32.7-16.35,33.83c0,0-33.83,10.15-91.9,9.58,0,0-71.62,2.21-87.64-9.8a5.56,5.56,0,0,1,.19-8.91,16.22,16.22,0,0,1,1.68-1h.06s87.1,20.47,139.43,4.86A57.21,57.21,0,0,0,760,411.55c14.14-33.42,41.24-110.55-3.59-123.29l.45-.07c12.43,1.56,26.44,8.37,28.87,30.52C785.68,318.71,789.63,336.75,778.35,415.69Z" opacity="0.2"/><path d="M765,335.6c-.32,8.21-5.58,8.8-10.42,7.57l-.06-.21s12.75-2.74,7.08-22.22A22.21,22.21,0,0,1,765,335.6Z" fill="#f7a79e"/><path d="M633,576.3a6.37,6.37,0,0,0-2.64-3.34l-10.21-6.46s-16.69,42.17-22.39,43.67c0,0-17.4,18-9.9,16.51,0,0,31.51-8.4,35.41-23.41.6-.9,5.7-17.4,5.7-17.4l9,17.4,3.6-1.8Z" fill="#686175" data-primary="true"/><path d="M597.78,610.18s8.85-16.81,5.5-47.79a9,9,0,0,0-.34-1.62l-13.26-42.72,2.7-62.72L614,466.74s-2.7,31.5-1.8,43.51l2.81,47a8.33,8.33,0,0,0,2.41,5.37l1.65,1.64a3.94,3.94,0,0,1,1.11,2.27C621.2,574.49,625.14,615.32,597.78,610.18Z" fill="#ffcdc6"/><path d="M599,545.66l-9.3-27.61,2.7-62.72L614,466.74l-1.8,32.91S599,534.45,599,545.66Z" fill="#f7a79e"/><path d="M579.18,584.27l-20.41,27.41-13.26,7.14s-19.45,12.36-14.35,13c0,0,33.31,3.3,41.72-12.6L580,608.85l1,17.23,3.6-.6,2.77-21.94a17,17,0,0,0-3-12Z" fill="#686175" data-primary="true"/><path d="M567.47,455.93s1.38,108.61-3.5,124.9c0,0-4.89,25-18.46,38,0,0,13.8,9.53,24.73-6.62A34.32,34.32,0,0,0,575.12,601l4.06-16.7-2.6-4.8a16.44,16.44,0,0,1,.6-8.61s26.6-80.72,21.5-110.43C598.68,460.43,587.28,455.94,567.47,455.93Z" fill="#ffcdc6"/><path d="M638.86,182.19s-10.67-1.83-7.87,11c0,0,7.6,34,5.4,45.22a96.59,96.59,0,0,0,3.2-17.41s4.6,34.81,13.41,41.81c.6-.2,40.41-33.81,40.41-33.81l-6.2-18.6Z" fill="#273956"/><path d="M638.86,182.19s-10.67-1.83-7.87,11c0,0,7.6,34,5.4,45.22a96.59,96.59,0,0,0,3.2-17.41s4.6,34.81,13.41,41.81c.6-.2,40.41-33.81,40.41-33.81l-6.2-18.6Z" opacity="0.2"/><path d="M650.7,262l5.12-7.55s-.44-7,5.17-6.17l7.77,6.71-4.31,8.09Z" fill="#686175" data-primary="true"/><path d="M650.7,262l5.12-7.55s-.44-7,5.17-6.17l7.77,6.71-4.31,8.09Z" opacity="0.2"/><path d="M661.5,249.15a.7.7,0,0,1-.51-.88c.71-2.41,3.58-10.22,11-10.9.81.17,11.91-4.62,16.16-6.48a2.63,2.63,0,0,0,1.59-2.6c-.15-2.33-.72-6.23-2.74-8.12l8.38-23.29s2,21.69,20.22,36.89c0,0,.8,2.2-2.4,4.2C713.21,238,686.32,254.86,661.5,249.15Z" fill="#ffcdc6"/><path d="M689.75,228.29s-.43-7.5-3.59-8.74l7.29-24.77S699.68,218.74,689.75,228.29Z" fill="#f7a79e"/><ellipse cx="665.91" cy="196.9" rx="28.36" ry="33.05" transform="translate(-20.04 304.97) rotate(-25.43)" fill="#ffcdc6"/><path d="M631,261.38s-3.8-6.6,1.2-19.8c0,0,4.4-17.81.2-32,0,0-8.06-21.86-1.13-32.35a11,11,0,0,1,2.25-2.41c2.49-2.05,9.57-7.87,15-12.5a43.08,43.08,0,0,1,22.14-10.15c6.61-.9,13.79-.19,18.81,5,0,0,9.4,12,20.4,42.61l9.8,32s-3.6.4-4,2c0,0-16.1-11.33-20.15-35.27,0,0-8.29-12.06-13.68-17.15a6.45,6.45,0,0,0-3-1.6c-6-1.41-27.09-5.52-40.41,2.45,0,0-10.07-1-7.35,11,0,0,6.81,29.75,5.67,43.11a68.44,68.44,0,0,0-.18,6.87l.51,17.61Z" fill="#273956"/><path d="M761.63,320.74c-.45-7.35-29.71-14.4-29.71-14.4-3.15-3.6,1.3-3.95,1.3-3.95,1-12-10.6-23.4-10.6-23.4.59,2.6-2.8,10.2-2.8,10.2-4.29,19.53-4.93,42.69-5,45.85a1,1,0,0,0,.23.64c4.62,5.56.16,6.52.16,6.52-2-.39-45.81,4.4-46.41,4.4-4.8-4.6,3-4.4,3-4.4l4.4-17c6.21-16.81-15.2-71.62-15.2-71.62-2-4,0-5.31,0-5.31l54.63-14.5c.39-2.18,4-2,4-2a3.35,3.35,0,0,1,2.77.24c1.52,1.08.9,4.07.38,5.82a1.79,1.79,0,0,0,.75,2c6.24,4.07,7.69,9.05,8,10.79A5.27,5.27,0,0,0,732,252l15.53,29.89C759.08,302.44,764,317.45,764,317.45,765.38,321.65,761.63,320.74,761.63,320.74Z" fill="#686175" data-primary="true"/><path d="M686.61,442.43,663,443.54l-24.83,1.17L611,446a.76.76,0,0,0-.71.94l4.61,19.89a.41.41,0,0,1-.62.44,49.63,49.63,0,0,0-7.65-3.82h0a105.59,105.59,0,0,0-28.25-6.88l-1-.1q-1.32-.12-2.67-.21l-1.47-.1-2.79-.14-.53,0-.72,0h-.49l-1.22,0,.3,19.8-14.7-15.6a6.09,6.09,0,0,1-2.42-3.39,4.77,4.77,0,0,1,0-2.49,1.11,1.11,0,0,1,0-.13c6.63-10.66,11.46-28.86,13.2-36.05v0a.19.19,0,0,0,0-.07c0-.2.09-.4.12-.6a12,12,0,0,0,.2-1.34c0-.23,0-.48.07-.74a16.51,16.51,0,0,0,0-2.11c0-.09,0-.18,0-.26s0-.3,0-.44,0-.19,0-.28a12.48,12.48,0,0,1,.46-3.19c0-.1,0-.2.08-.3a19.84,19.84,0,0,1,2.51-5.28c.24-.36.48-.71.75-1.05a.64.64,0,0,1,.1-.13,16.2,16.2,0,0,1,7.06-5.09c22.46-8.34,60.51-12.06,74.23-13.18a10,10,0,0,0,7.65-4.67,10.5,10.5,0,0,0,.57-1c.19-.4.38-.82.57-1.25C663.18,366,668.8,346.6,668.8,346.6q16.4-2.21,34.1-3.58c4.15-.32,10.05-.82,12.31-.82.08,0,.07.15.12.22l.11.2c1,1.76,2,3.53,2.87,5.28.11.22.23.44.35.66,2,3.94,3.75,7.83,5.27,11.63,11.39,28.31,10.29,51.43,10.29,51.43C737.42,446.83,686.61,442.43,686.61,442.43Z" fill="#f48225" data-secondary="true"/><path d="M720,426.83s-22.57,13.35-57,16.71l-24.83,1.17c-11.95-1-25-4.82-30.5-16A34.74,34.74,0,0,0,596.85,416l-8.44-6.18A75.16,75.16,0,0,1,602.18,433l10.61,33.26a53,53,0,0,0-6.76-3h0a113.17,113.17,0,0,0-27.65-6.73l-1-.1q-3.36-.31-6.93-.45l-.53,0-.72,0h-.49l-1.22,0s-13.09-.29-16.82.81l-.28.08s-1.13-1.59.26-2.57a5.3,5.3,0,0,1,2.74-.73l14.1-1.19s-.61-26.5-3.6-34.26v0l0-.07c0-.2.09-.4.12-.6l.06-.32c0-.3.09-.64.14-1,0-.16,0-.33,0-.5a18.94,18.94,0,0,0,0-2.29c0-.1,0-.21,0-.32s0-.16,0-.44c0-.09,0-.19,0-.28a16.09,16.09,0,0,1,.46-3.19c0-.1,0-.2.08-.3a16.3,16.3,0,0,1,3.26-6.33.64.64,0,0,1,.1-.13,18.33,18.33,0,0,1,5.49-4.35s42.91,4.9,69.72,2.5l66-6.8a134.92,134.92,0,0,0-14-4,139.62,139.62,0,0,0,19.84-9c-12,1-25.59,4.75-31.75,6.6a3.26,3.26,0,0,1-1.35.12A70.88,70.88,0,0,0,668.6,387a5.89,5.89,0,0,1-4.3-1.41l-7.18-6.24-.07-.06,1.14-2.26.07,0c.94.39,12.43,4.84,27.94-2.63,0,0,22.28-16,26.88-32.21h2.13l.12.22.11.2c.46.84,1.58,2.86,2.87,5.28.11.22.23.44.35.66,2,3.73,4.22,8.17,5.16,10.65l.11,1c.77,6.42,5.08,42.83,5.08,51C729,411.22,732,423.22,720,426.83Z" opacity="0.2"/><path d="M707,291.1s11.05-10.52,11.05-17.79c0,0,3.41,3.27,4.54,5.68C722.62,279,724,294.33,707,291.1Z" opacity="0.2"/><path d="M722.38,232c-11.32,16.7-38,17-38,17,35.57-9.16,31.23-15.28,31.23-15.28.39-2.18,4-2,4-2A3.35,3.35,0,0,1,722.38,232Z" opacity="0.2"/><path d="M733.22,302.39s15.31,4.07,21,7.57l-8.89.27-13.38-3.89S729,303.18,733.22,302.39Z" opacity="0.2"/><path d="M631.81,317.68,597,264.27a2.37,2.37,0,0,1,2-3.65h77.24a2.37,2.37,0,0,1,2,1.14l33.06,54.88a1,1,0,0,1-.9,1.59l-76.55.52A2.38,2.38,0,0,1,631.81,317.68Z" fill="#f48225" data-secondary="true"/><path d="M631.81,317.68,597,264.27a2.37,2.37,0,0,1,2-3.65h77.24a2.37,2.37,0,0,1,2,1.14l33.06,54.88a1,1,0,0,1-.9,1.59l-76.55.52A2.38,2.38,0,0,1,631.81,317.68Z" opacity="0.2"/><ellipse cx="695.46" cy="188.12" rx="7.17" ry="10.38" fill="#ffcdc6"/><path d="M630.51,317.7l-33.83-51.95a2.3,2.3,0,0,1,1.93-3.56h74.95a2.32,2.32,0,0,1,2,1.12l32.08,53.38a1,1,0,0,1-.87,1.55l-74.29.5A2.29,2.29,0,0,1,630.51,317.7Z" fill="#f48225" data-secondary="true"/><path d="M765,335.6c-.32,8.21-5.58,8.8-10.42,7.57a32.78,32.78,0,0,1-8.19-3.57c-19-11-50.21-44.21-50.21-44.21-14.24,10.68-21.67,9.26-24.55,7.81a12.19,12.19,0,0,0-3.74-1.09c-2.79-.37-2.52-1.72-2.52-1.72,2-3.8,9-.6,9-.6,2.3.1,3.35-.4,3.83-.93a.66.66,0,0,0-.51-1.08l-11.52-.19c-7.2,0-4.6-3.4-4.6-3.4a6.42,6.42,0,0,1-3.81-.6c-3.39-2.2,2.61-5.4,2.61-5.4-3.86-2-1.4-3.79,1.71-5a24.54,24.54,0,0,1,8.83-1.49c8.85,0,13.81-3.64,15.33-5a.86.86,0,0,0,.17-1.09l-1.88-3.17,7.65.91c8,.8,6,12.41,6,12.41,2.2,8.8,33.71,20.55,33.71,20.55a113.17,113.17,0,0,1,22.89,7.88c6.6,2.41,6.82,6.52,6.82,6.52A22.21,22.21,0,0,1,765,335.6Z" fill="#ffcdc6"/><path d="M660.4,288.19l8.58-.51c2.86-.14,5.71-.32,8.6-.29a34.24,34.24,0,0,1-4.24.86c-1.43.22-2.86.34-4.3.43A34.75,34.75,0,0,1,660.4,288.19Z" fill="#f7a79e"/><path d="M661.6,294.19c2.83-.27,5.64-.34,8.44-.46,1.4,0,2.8-.11,4.2-.18a31.2,31.2,0,0,0,4.18-.44,13.87,13.87,0,0,1-4.1,1.22,33.42,33.42,0,0,1-4.24.4A40.14,40.14,0,0,1,661.6,294.19Z" fill="#f7a79e"/><path d="M605.55,290.07c-.8,2.13-.9,4.83,4,4.49,0,0-.28,7.18,6.35,5.8,0,0-1.11,5,5.24,2.76,0,0-1.38,5,3.59,3.59a6,6,0,0,0,5.25-6.35s-1.2-3.13-3.61.49a8.56,8.56,0,0,1-2.58,2.54,4.22,4.22,0,0,1-1.27.56s-2.2-.56.28-6.35c0,0,3.59-6.63-1.66-7.18,0,0,.83-6.91-4.14-2.21l-3.22,3.43a1.1,1.1,0,0,1-1.7-.11h0a1.11,1.11,0,0,1,.16-1.47c1.3-1.16,3.71-3.69,2.66-5.72a1.53,1.53,0,0,0-1.32-.87c-.94,0-2.68.48-5.6,3.1A9.09,9.09,0,0,0,605.55,290.07Z" fill="#ffcdc6"/><path d="M612.12,291.53a4.22,4.22,0,0,1-2.53,3,4.12,4.12,0,0,1,2.53-3Z" fill="#f7a79e"/><path d="M621.18,290.42a15,15,0,0,1-.85,2.71,26,26,0,0,1-1.2,2.56,23.68,23.68,0,0,1-3.19,4.67,22.56,22.56,0,0,1,1.06-2.63c.39-.85.82-1.68,1.25-2.51A42.48,42.48,0,0,1,621.18,290.42Z" fill="#f7a79e"/><path d="M397.43,60.41C293.1,60.41,208.52,145,208.52,249.32S293.1,438.23,397.43,438.23s188.91-84.58,188.91-188.91S501.76,60.41,397.43,60.41Zm0,368.3a179.4,179.4,0,1,1,179.4-179.39A179.4,179.4,0,0,1,397.43,428.71Z" fill="#f48225" data-secondary="true"/><path d="M649.7,50.83a48.68,48.68,0,0,0-40.54,75.64l-9.86,17.75,14.49-11.83A48.68,48.68,0,1,0,649.7,50.83Z" fill="#ddeef8"/><rect x="93.68" y="87.42" width="180.23" height="52.78" fill="#ddeef8"/><rect x="114.6" y="91.7" width="29.01" height="29.01" fill="#fff"/><rect x="148.36" y="91.7" width="29.01" height="29.01" fill="#fff"/><rect x="183.55" y="92.17" width="29.01" height="29.01" fill="#fff"/><rect x="226.35" y="92.65" width="43.27" height="41.85" fill="#fff"/><line x1="119.83" y1="125.93" x2="136.95" y2="125.93" fill="none" stroke="#fff" stroke-miterlimit="10"/><line x1="154.54" y1="125.93" x2="171.66" y2="125.93" fill="none" stroke="#fff" stroke-miterlimit="10"/><line x1="188.31" y1="125.46" x2="205.43" y2="125.46" fill="none" stroke="#fff" stroke-miterlimit="10"/><rect x="79.41" y="70.3" width="31.86" height="27.58" fill="#273956"/><polygon points="86.1 80.34 89.04 76.6 96 81.95 101.88 76.33 105.36 80.08 99.74 84.89 105.09 89.44 102.42 92.65 96 87.83 89.58 92.92 86.36 89.7 91.98 84.62 86.1 80.34" fill="#fff"/><rect x="93.8" y="156.13" width="24.86" height="15.43" fill="#ddeef8"/><rect x="132.37" y="156.99" width="60.86" height="15.43" fill="#ddeef8"/><rect x="92.51" y="183.56" width="139.29" height="15.43" fill="#ddeef8"/><path d="M266.33,111.6a16.68,16.68,0,1,1-18-15.23h.06a16.64,16.64,0,0,1,18,15.22Z" fill="#f48225" data-secondary="true"/><path d="M262.37,111.91a12.71,12.71,0,1,1-13.73-11.6h.05a12.67,12.67,0,0,1,13.68,11.59Z" fill="#f48225" data-secondary="true"/><path d="M262.37,111.91a1.42,1.42,0,0,1,0-.2q0-.22-.09-.6a2.65,2.65,0,0,0-.07-.44,4.09,4.09,0,0,0-.12-.51,9.65,9.65,0,0,0-.37-1.3,11.83,11.83,0,0,0-1.68-3.23,12.63,12.63,0,0,0-15.51-4.14,15.11,15.11,0,0,0-1.58.87l-.74.53a6.53,6.53,0,0,0-.72.58,14.73,14.73,0,0,0-1.32,1.3,12.89,12.89,0,0,0-1.11,1.55,12.1,12.1,0,0,0-1.52,3.59,13.37,13.37,0,0,0-.33,4,13.18,13.18,0,0,0,1,3.91,12.31,12.31,0,0,0,2.07,3.3,14.33,14.33,0,0,0,1.35,1.35,13.57,13.57,0,0,0,1.52,1.09,11.87,11.87,0,0,0,1.61.87A12.8,12.8,0,0,0,261,118.49a12.09,12.09,0,0,0,1.14-3.47,9.58,9.58,0,0,0,.17-1.31c0-.19,0-.36,0-.53s0-.31,0-.43v-.81a.67.67,0,0,1,0,.2,5,5,0,0,0,0,.61,2.17,2.17,0,0,0,0,.43,2.07,2.07,0,0,1,0,.54,9.83,9.83,0,0,1-.14,1.33,12.22,12.22,0,0,1-1.11,3.5,12.81,12.81,0,0,1-8.1,6.71,13.2,13.2,0,0,1-8.48-.59,16.18,16.18,0,0,1-1.65-.87,11.88,11.88,0,0,1-2.93-2.49,12.21,12.21,0,0,1-2.12-3.37,12.53,12.53,0,0,1-.63-8.08,12.11,12.11,0,0,1,1.56-3.66,14.64,14.64,0,0,1,1.13-1.58,14.34,14.34,0,0,1,1.36-1.34,5.89,5.89,0,0,1,.73-.59c.25-.18.5-.37.76-.54a13,13,0,0,1,1.61-.86,12.77,12.77,0,0,1,15.73,4.25,11.92,11.92,0,0,1,1.66,3.28,9.58,9.58,0,0,1,.35,1.3c0,.19.08.37.11.53a4.08,4.08,0,0,1,.05.43c0,.25,0,.44.07.6A.89.89,0,0,1,262.37,111.91Z" fill="#273956"/><g opacity="0.3"><path d="M262.28,112.05a7.76,7.76,0,0,1-.43-1.5,13.88,13.88,0,0,0-1.76-3.76,13.19,13.19,0,0,0-1.85-2.17,12.7,12.7,0,0,0-2.64-1.89,12.44,12.44,0,0,0-3.35-1.21,11.67,11.67,0,0,0-1.87-.24,13.93,13.93,0,0,0-1.94.07,12.6,12.6,0,0,0-1.91.36,13.84,13.84,0,0,0-1.77.64,11.76,11.76,0,0,0-1.6.87,12.17,12.17,0,0,0-1.4,1,12.51,12.51,0,0,0-2.17,2.43,12.84,12.84,0,0,0-1.31,2.52,14.09,14.09,0,0,0-.87,4.06,7.19,7.19,0,0,1-.11,1.56c-.08,0-.21-.54-.26-1.56a11.79,11.79,0,0,1,.62-4.29,12.69,12.69,0,0,1,3.52-5.38,11,11,0,0,1,1.49-1.16,12.53,12.53,0,0,1,1.71-1,13.3,13.3,0,0,1,1.91-.71,12.88,12.88,0,0,1,4.16-.46,13.8,13.8,0,0,1,2,.27,11.56,11.56,0,0,1,1.88.56,12,12,0,0,1,1.7.8,12.64,12.64,0,0,1,4.63,4.47,11.77,11.77,0,0,1,1.55,4A4,4,0,0,1,262.28,112.05Z"/></g><g opacity="0.3"><path d="M251.74,120.35l.21,2.21-2,.18-.2-2.14a9.32,9.32,0,0,1-5.05-1.11l.87-2.5a8,8,0,0,0,4,1l-.31-3.29c-2.24-.32-4.75-.82-5-3.63-.2-2.08,1.14-4,4.22-4.66l-.21-2.17,2-.18.21,2.14a9,9,0,0,1,4.1.82l-.75,2.51a8.2,8.2,0,0,0-3.11-.74l.32,3.34c2.23.31,4.7.81,5,3.58C256.13,117.78,254.8,119.69,251.74,120.35ZM249,111.86l-.27-2.8c-1,.34-1.37,1-1.3,1.6S248.06,111.66,249,111.86Zm3.84,4.41c-.07-.69-.68-1-1.55-1.22l.26,2.71C252.46,117.45,252.84,116.9,252.79,116.27Z"/></g><rect x="105.46" y="381.66" width="85.19" height="15.47" fill="#f48225" data-secondary="true"/><path d="M113.81,397.24c-.2,0-.35-3.44-.35-7.67s.15-7.68.35-7.68.35,3.44.35,7.68S114,397.24,113.81,397.24Z" fill="#273956"/><path d="M109.15,397.24c-.2,0-.35-3.44-.35-7.67s.15-7.68.35-7.68.36,3.44.36,7.68S109.35,397.24,109.15,397.24Z" fill="#273956"/><path d="M124.05,397.24c-.2,0-.36-3.44-.36-7.67s.16-7.68.36-7.68.35,3.44.35,7.68S124.24,397.24,124.05,397.24Z" fill="#273956"/><path d="M119.39,397.24c-.2,0-.36-3.44-.36-7.67s.16-7.68.36-7.68.35,3.44.35,7.68S119.58,397.24,119.39,397.24Z" fill="#273956"/><path d="M134.28,397.24c-.19,0-.35-3.44-.35-7.67s.16-7.68.35-7.68.36,3.44.36,7.68S134.48,397.24,134.28,397.24Z" fill="#273956"/><path d="M129.62,397.24c-.19,0-.35-3.44-.35-7.67s.16-7.68.35-7.68.36,3.44.36,7.68S129.82,397.24,129.62,397.24Z" fill="#273956"/><path d="M144.52,397.24c-.2,0-.36-3.44-.36-7.67s.16-7.68.36-7.68.35,3.44.35,7.68S144.72,397.24,144.52,397.24Z" fill="#273956"/><path d="M139.86,397.24c-.2,0-.36-3.44-.36-7.67s.16-7.68.36-7.68.35,3.44.35,7.68S140.05,397.24,139.86,397.24Z" fill="#273956"/><path d="M154.72,397.24c-.19,0-.35-3.44-.35-7.67s.16-7.68.35-7.68.36,3.44.36,7.68S155,397.24,154.72,397.24Z" fill="#273956"/><path d="M150.09,397.24c-.19,0-.35-3.44-.35-7.67s.16-7.68.35-7.68.36,3.44.36,7.68S150.29,397.24,150.09,397.24Z" fill="#273956"/><path d="M165,397.24c-.2,0-.36-3.44-.36-7.67s.16-7.68.36-7.68.35,3.44.35,7.68S165.18,397.24,165,397.24Z" fill="#273956"/><path d="M160.33,397.24c-.2,0-.36-3.44-.36-7.67s.16-7.68.36-7.68.35,3.44.35,7.68S160.52,397.24,160.33,397.24Z" fill="#273956"/><path d="M175.22,397.24c-.19,0-.35-3.44-.35-7.67s.16-7.68.35-7.68.36,3.44.36,7.68S175.42,397.24,175.22,397.24Z" fill="#273956"/><path d="M170.56,397.24c-.19,0-.35-3.44-.35-7.67s.16-7.68.35-7.68.36,3.44.36,7.68A45.55,45.55,0,0,1,170.56,397.24Z" fill="#273956"/><path d="M185.46,397.24c-.2,0-.36-3.44-.36-7.67s.16-7.68.36-7.68.35,3.44.35,7.68S185.66,397.24,185.46,397.24Z" fill="#273956"/><path d="M180.8,397.24c-.2,0-.35-3.44-.35-7.67s.15-7.68.35-7.68.35,3.44.35,7.68S181,397.24,180.8,397.24Z" fill="#273956"/><path d="M190.65,381.66c0,.2-19.16.36-42.79.36s-42.79-.16-42.79-.36,19.15-.35,42.79-.35S190.65,381.47,190.65,381.66Z" fill="#273956"/><rect x="99.89" y="397.38" width="85.19" height="15.47" fill="#f48225" data-secondary="true"/><path d="M108.23,413c-.19,0-.35-3.43-.35-7.67s.16-7.67.35-7.67.36,3.43.36,7.67S108.43,413,108.23,413Z" fill="#273956"/><path d="M103.57,413c-.19,0-.35-3.43-.35-7.67s.16-7.67.35-7.67.36,3.43.36,7.67S103.77,413,103.57,413Z" fill="#273956"/><path d="M118.47,413c-.2,0-.36-3.43-.36-7.67s.16-7.67.36-7.67.35,3.43.35,7.67S118.72,413,118.47,413Z" fill="#273956"/><path d="M113.81,413c-.2,0-.35-3.43-.35-7.67s.15-7.67.35-7.67.35,3.43.35,7.67S114,413,113.81,413Z" fill="#273956"/><path d="M128.72,413c-.2,0-.36-3.43-.36-7.67s.16-7.67.36-7.67.35,3.43.35,7.67S128.9,413,128.72,413Z" fill="#273956"/><path d="M124.05,413c-.2,0-.36-3.43-.36-7.67s.16-7.67.36-7.67.35,3.43.35,7.67S124.24,413,124.05,413Z" fill="#273956"/><path d="M138.94,413c-.19,0-.35-3.43-.35-7.67s.16-7.67.35-7.67.36,3.43.36,7.67S139.14,413,138.94,413Z" fill="#273956"/><path d="M134.28,413c-.19,0-.35-3.43-.35-7.67s.16-7.67.35-7.67.36,3.43.36,7.67S134.48,413,134.28,413Z" fill="#273956"/><path d="M149.18,413c-.2,0-.36-3.43-.36-7.67s.16-7.67.36-7.67.35,3.43.35,7.67S149.37,413,149.18,413Z" fill="#273956"/><path d="M144.52,413c-.2,0-.36-3.43-.36-7.67s.16-7.67.36-7.67.35,3.43.35,7.67S144.72,413,144.52,413Z" fill="#273956"/><path d="M159.41,413c-.19,0-.35-3.43-.35-7.67s.16-7.67.35-7.67.36,3.43.36,7.67S159.61,413,159.41,413Z" fill="#273956"/><path d="M154.72,413c-.19,0-.35-3.43-.35-7.67s.16-7.67.35-7.67.36,3.43.36,7.67S155,413,154.72,413Z" fill="#273956"/><path d="M169.65,413c-.2,0-.36-3.43-.36-7.67s.16-7.67.36-7.67.35,3.43.35,7.67S169.84,413,169.65,413Z" fill="#273956"/><path d="M165,413c-.2,0-.36-3.43-.36-7.67s.16-7.67.36-7.67.35,3.43.35,7.67S165.18,413,165,413Z" fill="#273956"/><path d="M179.88,413c-.19,0-.35-3.43-.35-7.67s.16-7.67.35-7.67.36,3.43.36,7.67S180.08,413,179.88,413Z" fill="#273956"/><path d="M175.22,413c-.19,0-.35-3.43-.35-7.67s.16-7.67.35-7.67.36,3.43.36,7.67S175.42,413,175.22,413Z" fill="#273956"/><path d="M185.07,397.38c0,.19-19.16.35-42.79.35s-42.79-.16-42.79-.35,19.16-.36,42.79-.36S185.07,397.18,185.07,397.38Z" fill="#273956"/><rect x="106.85" y="412.95" width="85.19" height="15.47" fill="#f48225" data-secondary="true"/><path d="M115.2,428.53c-.2,0-.36-3.44-.36-7.67s.16-7.68.36-7.68.35,3.44.35,7.68S115.39,428.53,115.2,428.53Z" fill="#273956"/><path d="M110.54,428.53c-.2,0-.36-3.44-.36-7.67s.16-7.68.36-7.68.35,3.44.35,7.68S110.72,428.53,110.54,428.53Z" fill="#273956"/><path d="M125.43,428.53c-.19,0-.35-3.44-.35-7.67s.16-7.68.35-7.68.36,3.44.36,7.68S125.63,428.53,125.43,428.53Z" fill="#273956"/><path d="M120.77,428.53c-.19,0-.35-3.44-.35-7.67s.16-7.68.35-7.68.36,3.44.36,7.68S121,428.53,120.77,428.53Z" fill="#273956"/><path d="M135.72,428.53c-.2,0-.36-3.44-.36-7.67s.16-7.68.36-7.68.35,3.44.35,7.68A49,49,0,0,1,135.72,428.53Z" fill="#273956"/><path d="M131,428.53c-.2,0-.36-3.44-.36-7.67s.16-7.68.36-7.68.35,3.44.35,7.68S131.2,428.53,131,428.53Z" fill="#273956"/><path d="M145.9,428.53c-.19,0-.35-3.44-.35-7.67s.16-7.68.35-7.68.36,3.44.36,7.68S146.1,428.53,145.9,428.53Z" fill="#273956"/><path d="M141.24,428.53c-.19,0-.35-3.44-.35-7.67s.16-7.68.35-7.68.36,3.44.36,7.68S141.44,428.53,141.24,428.53Z" fill="#273956"/><path d="M156.14,428.53c-.2,0-.36-3.44-.36-7.67s.16-7.68.36-7.68.35,3.44.35,7.68S156.33,428.53,156.14,428.53Z" fill="#273956"/><path d="M151.48,428.53c-.2,0-.36-3.44-.36-7.67s.16-7.68.36-7.68.35,3.44.35,7.68S151.72,428.53,151.48,428.53Z" fill="#273956"/><path d="M166.37,428.53c-.19,0-.35-3.44-.35-7.67s.16-7.68.35-7.68.36,3.44.36,7.68S166.57,428.53,166.37,428.53Z" fill="#273956"/><path d="M161.72,428.53c-.19,0-.35-3.44-.35-7.67s.16-7.68.35-7.68.36,3.44.36,7.68S161.91,428.53,161.72,428.53Z" fill="#273956"/><path d="M176.61,428.53c-.2,0-.36-3.44-.36-7.67s.16-7.68.36-7.68.35,3.44.35,7.68S176.81,428.53,176.61,428.53Z" fill="#273956"/><path d="M172,428.53c-.2,0-.35-3.44-.35-7.67s.15-7.68.35-7.68.35,3.44.35,7.68S172.15,428.53,172,428.53Z" fill="#273956"/><path d="M186.84,428.53c-.19,0-.35-3.44-.35-7.67s.16-7.68.35-7.68.36,3.44.36,7.68S187,428.53,186.84,428.53Z" fill="#273956"/><path d="M182.19,428.53c-.2,0-.36-3.44-.36-7.67s.16-7.68.36-7.68.35,3.44.35,7.68S182.38,428.53,182.19,428.53Z" fill="#273956"/><path d="M192,413c0,.2-19.2.36-42.89.36s-42.89-.16-42.89-.36,19.2-.35,42.89-.35S192,412.76,192,413Z" fill="#273956"/><rect x="100.17" y="428.3" width="85.19" height="15.47" fill="#f48225" data-secondary="true"/><path d="M108.52,443.88c-.2,0-.36-3.44-.36-7.68s.16-7.67.36-7.67.35,3.43.35,7.67S108.72,443.88,108.52,443.88Z" fill="#273956"/><path d="M103.86,443.88c-.2,0-.36-3.44-.36-7.68s.16-7.67.36-7.67.35,3.43.35,7.67S104.05,443.88,103.86,443.88Z" fill="#273956"/><path d="M118.72,443.88c-.19,0-.35-3.44-.35-7.68s.16-7.67.35-7.67.36,3.43.36,7.67S119,443.88,118.72,443.88Z" fill="#273956"/><path d="M114.09,443.88c-.19,0-.35-3.44-.35-7.68s.16-7.67.35-7.67.36,3.43.36,7.67S114.29,443.88,114.09,443.88Z" fill="#273956"/><path d="M129,443.88c-.2,0-.36-3.44-.36-7.68s.16-7.67.36-7.67.35,3.43.35,7.67S129.18,443.88,129,443.88Z" fill="#273956"/><path d="M124.33,443.88c-.2,0-.36-3.44-.36-7.68s.16-7.67.36-7.67.35,3.43.35,7.67S124.53,443.88,124.33,443.88Z" fill="#273956"/><path d="M139.22,443.88c-.19,0-.35-3.44-.35-7.68s.16-7.67.35-7.67.36,3.43.36,7.67S139.42,443.88,139.22,443.88Z" fill="#273956"/><path d="M134.57,443.88c-.2,0-.36-3.44-.36-7.68s.16-7.67.36-7.67.35,3.43.35,7.67A47.77,47.77,0,0,1,134.57,443.88Z" fill="#273956"/><path d="M149.46,443.88c-.2,0-.35-3.44-.35-7.68s.15-7.67.35-7.67.35,3.43.35,7.67S149.66,443.88,149.46,443.88Z" fill="#273956"/><path d="M144.8,443.88c-.2,0-.35-3.44-.35-7.68s.15-7.67.35-7.67.36,3.43.36,7.67S145,443.88,144.8,443.88Z" fill="#273956"/><path d="M159.72,443.88c-.2,0-.36-3.44-.36-7.68s.16-7.67.36-7.67.35,3.43.35,7.67S159.89,443.88,159.72,443.88Z" fill="#273956"/><path d="M155,443.88c-.2,0-.36-3.44-.36-7.68s.16-7.67.36-7.67.35,3.43.35,7.67S155.23,443.88,155,443.88Z" fill="#273956"/><path d="M169.93,443.88c-.19,0-.35-3.44-.35-7.68s.16-7.67.35-7.67.36,3.43.36,7.67S170.13,443.88,169.93,443.88Z" fill="#273956"/><path d="M165.27,443.88c-.19,0-.35-3.44-.35-7.68s.16-7.67.35-7.67.36,3.43.36,7.67S165.47,443.88,165.27,443.88Z" fill="#273956"/><path d="M180.17,443.88c-.2,0-.36-3.44-.36-7.68s.16-7.67.36-7.67.35,3.43.35,7.67S180.36,443.88,180.17,443.88Z" fill="#273956"/><path d="M175.51,443.88c-.2,0-.36-3.44-.36-7.68s.16-7.67.36-7.67.35,3.43.35,7.67S175.72,443.88,175.51,443.88Z" fill="#273956"/><path d="M185.36,428.3c0,.2-19.16.35-42.79.35s-42.8-.15-42.8-.35,19.16-.36,42.8-.36S185.36,428.1,185.36,428.3Z" fill="#273956"/><rect x="108.71" y="443.99" width="85.19" height="15.47" fill="#f48225" data-secondary="true"/><path d="M117.05,459.53c-.19,0-.35-3.44-.35-7.68s.16-7.67.35-7.67.36,3.44.36,7.67S117.25,459.53,117.05,459.53Z" fill="#273956"/><path d="M112.4,459.53c-.2,0-.36-3.44-.36-7.68s.16-7.67.36-7.67.35,3.44.35,7.67S112.59,459.53,112.4,459.53Z" fill="#273956"/><path d="M127.29,459.53c-.2,0-.35-3.44-.35-7.68s.15-7.67.35-7.67.36,3.44.36,7.67S127.49,459.53,127.29,459.53Z" fill="#273956"/><path d="M122.63,459.53c-.19,0-.35-3.44-.35-7.68s.16-7.67.35-7.67.36,3.44.36,7.67S122.83,459.53,122.63,459.53Z" fill="#273956"/><path d="M137.53,459.53c-.2,0-.36-3.44-.36-7.68s.16-7.67.36-7.67.35,3.44.35,7.67S137.72,459.53,137.53,459.53Z" fill="#273956"/><path d="M132.87,459.53c-.2,0-.36-3.44-.36-7.68s.16-7.67.36-7.67.35,3.44.35,7.67S133.06,459.53,132.87,459.53Z" fill="#273956"/><path d="M147.72,459.53c-.19,0-.35-3.44-.35-7.68s.16-7.67.35-7.67.36,3.44.36,7.67S148,459.53,147.72,459.53Z" fill="#273956"/><path d="M143.1,459.53c-.19,0-.35-3.44-.35-7.68s.16-7.67.35-7.67.36,3.44.36,7.67S143.3,459.53,143.1,459.53Z" fill="#273956"/><path d="M158,459.53c-.2,0-.36-3.44-.36-7.68s.16-7.67.36-7.67.35,3.44.35,7.67S158.19,459.53,158,459.53Z" fill="#273956"/><path d="M153.34,459.53c-.2,0-.36-3.44-.36-7.68s.16-7.67.36-7.67.35,3.44.35,7.67S153.53,459.53,153.34,459.53Z" fill="#273956"/><path d="M168.23,459.53c-.19,0-.35-3.44-.35-7.68s.16-7.67.35-7.67.36,3.44.36,7.67S168.43,459.53,168.23,459.53Z" fill="#273956"/><path d="M163.57,459.53c-.19,0-.35-3.44-.35-7.68s.16-7.67.35-7.67.36,3.44.36,7.67S163.77,459.53,163.57,459.53Z" fill="#273956"/><path d="M178.47,459.53c-.2,0-.36-3.44-.36-7.68s.16-7.67.36-7.67.35,3.44.35,7.67S178.66,459.53,178.47,459.53Z" fill="#273956"/><path d="M173.81,459.53c-.2,0-.36-3.44-.36-7.68s.16-7.67.36-7.67.35,3.44.35,7.67S174,459.53,173.81,459.53Z" fill="#273956"/><path d="M188.72,459.53c-.19,0-.35-3.44-.35-7.68s.16-7.67.35-7.67.36,3.44.36,7.67S188.9,459.53,188.72,459.53Z" fill="#273956"/><path d="M184,459.53c-.19,0-.35-3.44-.35-7.68s.16-7.67.35-7.67.36,3.44.36,7.67S184.24,459.53,184,459.53Z" fill="#273956"/><path d="M193.89,444c0,.2-19.16.36-42.79.36s-42.79-.16-42.79-.36,19.16-.35,42.79-.35S193.89,443.79,193.89,444Z" fill="#273956"/><rect x="103.37" y="459.64" width="85.19" height="15.47" fill="#f48225" data-secondary="true"/><path d="M111.72,475.21c-.19,0-.35-3.43-.35-7.67s.16-7.67.35-7.67.36,3.43.36,7.67S111.91,475.21,111.72,475.21Z" fill="#273956"/><path d="M107.05,475.21c-.19,0-.35-3.43-.35-7.67s.16-7.67.35-7.67.36,3.43.36,7.67S107.25,475.21,107.05,475.21Z" fill="#273956"/><path d="M122,475.21c-.2,0-.36-3.43-.36-7.67s.16-7.67.36-7.67.35,3.43.35,7.67S122.14,475.21,122,475.21Z" fill="#273956"/><path d="M117.29,475.21c-.2,0-.36-3.43-.36-7.67s.16-7.67.36-7.67.35,3.43.35,7.67S117.49,475.21,117.29,475.21Z" fill="#273956"/><path d="M132.18,475.21c-.19,0-.35-3.43-.35-7.67s.16-7.67.35-7.67.36,3.43.36,7.67S132.38,475.21,132.18,475.21Z" fill="#273956"/><path d="M127.53,475.21c-.2,0-.36-3.43-.36-7.67s.16-7.67.36-7.67.35,3.43.35,7.67S127.72,475.21,127.53,475.21Z" fill="#273956"/><path d="M142.42,475.21c-.2,0-.35-3.43-.35-7.67s.15-7.67.35-7.67.35,3.43.35,7.67S142.62,475.21,142.42,475.21Z" fill="#273956"/><path d="M137.72,475.21c-.19,0-.35-3.43-.35-7.67s.16-7.67.35-7.67.36,3.43.36,7.67S138,475.21,137.72,475.21Z" fill="#273956"/><path d="M152.66,475.21c-.2,0-.36-3.43-.36-7.67s.16-7.67.36-7.67.35,3.43.35,7.67S152.85,475.21,152.66,475.21Z" fill="#273956"/><path d="M148,475.21c-.2,0-.36-3.43-.36-7.67s.16-7.67.36-7.67.35,3.43.35,7.67S148.19,475.21,148,475.21Z" fill="#273956"/><path d="M162.89,475.21c-.19,0-.35-3.43-.35-7.67s.16-7.67.35-7.67.36,3.43.36,7.67S163.09,475.21,162.89,475.21Z" fill="#273956"/><path d="M158.23,475.21c-.19,0-.35-3.43-.35-7.67s.16-7.67.35-7.67.36,3.43.36,7.67S158.43,475.21,158.23,475.21Z" fill="#273956"/><path d="M173.13,475.21c-.2,0-.36-3.43-.36-7.67s.16-7.67.36-7.67.35,3.43.35,7.67S173.32,475.21,173.13,475.21Z" fill="#273956"/><path d="M168.47,475.21c-.2,0-.36-3.43-.36-7.67s.16-7.67.36-7.67.35,3.43.35,7.67S168.66,475.21,168.47,475.21Z" fill="#273956"/><path d="M183.36,475.21c-.19,0-.35-3.43-.35-7.67s.16-7.67.35-7.67.36,3.43.36,7.67S183.56,475.21,183.36,475.21Z" fill="#273956"/><path d="M178.72,475.21c-.19,0-.35-3.43-.35-7.67s.16-7.67.35-7.67.36,3.43.36,7.67S178.9,475.21,178.72,475.21Z" fill="#273956"/><path d="M188.55,459.64c0,.19-19.2.35-42.89.35s-42.89-.16-42.89-.35,19.2-.36,42.89-.36S188.55,459.44,188.55,459.64Z" fill="#273956"/><rect x="96.69" y="474.98" width="85.19" height="15.47" fill="#f48225" data-secondary="true"/><path d="M105,490.53c-.2,0-.36-3.44-.36-7.67s.16-7.68.36-7.68.35,3.44.35,7.68S105.23,490.53,105,490.53Z" fill="#273956"/><path d="M100.38,490.53c-.2,0-.36-3.44-.36-7.67s.16-7.68.36-7.68.35,3.44.35,7.68S100.57,490.53,100.38,490.53Z" fill="#273956"/><path d="M115.27,490.53c-.19,0-.35-3.44-.35-7.67s.16-7.68.35-7.68.36,3.44.36,7.68S115.47,490.53,115.27,490.53Z" fill="#273956"/><path d="M110.61,490.53c-.19,0-.35-3.44-.35-7.67s.16-7.68.35-7.68.36,3.44.36,7.68S110.81,490.53,110.61,490.53Z" fill="#273956"/><path d="M125.51,490.53c-.2,0-.36-3.44-.36-7.67s.16-7.68.36-7.68.35,3.44.35,7.68S125.72,490.53,125.51,490.53Z" fill="#273956"/><path d="M120.85,490.53c-.2,0-.36-3.44-.36-7.67s.16-7.68.36-7.68.35,3.44.35,7.68S121,490.53,120.85,490.53Z" fill="#273956"/><path d="M135.72,490.53c-.19,0-.35-3.44-.35-7.67s.16-7.68.35-7.68.36,3.44.36,7.68S135.94,490.53,135.72,490.53Z" fill="#273956"/><path d="M131.08,490.53c-.19,0-.35-3.44-.35-7.67s.16-7.68.35-7.68.36,3.44.36,7.68S131.28,490.53,131.08,490.53Z" fill="#273956"/><path d="M146,490.53c-.2,0-.36-3.44-.36-7.67s.16-7.68.36-7.68.35,3.44.35,7.68S146.17,490.53,146,490.53Z" fill="#273956"/><path d="M141.32,490.53c-.2,0-.36-3.44-.36-7.67s.16-7.68.36-7.68.35,3.44.35,7.68S141.51,490.53,141.32,490.53Z" fill="#273956"/><path d="M156.21,490.53c-.19,0-.35-3.44-.35-7.67s.16-7.68.35-7.68.36,3.44.36,7.68S156.41,490.53,156.21,490.53Z" fill="#273956"/><path d="M151.55,490.53c-.19,0-.35-3.44-.35-7.67s.16-7.68.35-7.68.36,3.44.36,7.68S151.72,490.53,151.55,490.53Z" fill="#273956"/><path d="M166.45,490.53c-.2,0-.36-3.44-.36-7.67s.16-7.68.36-7.68.35,3.44.35,7.68S166.65,490.53,166.45,490.53Z" fill="#273956"/><path d="M161.79,490.53c-.2,0-.35-3.44-.35-7.67s.15-7.68.35-7.68.35,3.44.35,7.68S162,490.53,161.79,490.53Z" fill="#273956"/><path d="M176.72,490.53c-.2,0-.36-3.44-.36-7.67s.16-7.68.36-7.68.35,3.44.35,7.68A46.25,46.25,0,0,1,176.72,490.53Z" fill="#273956"/><path d="M172,490.53c-.2,0-.36-3.44-.36-7.67s.16-7.68.36-7.68.35,3.44.35,7.68S172.22,490.53,172,490.53Z" fill="#273956"/><path d="M181.87,475c0,.2-19.16.36-42.78.36s-42.8-.16-42.8-.36,19.16-.35,42.8-.35S181.87,474.79,181.87,475Z" fill="#273956"/><g opacity="0.3"><path d="M106.85,413c12.72,3.13,26.28,3.73,39.35,2.86s26.27-2.79,39.37-2.63Z"/></g><g opacity="0.3"><path d="M107.62,397.53c12.72,3.13,26.28,3.73,39.35,2.87s26.27-2.8,39.37-2.64Z"/></g><g opacity="0.3"><path d="M111.72,428.45c12.72,3.13,26.28,3.74,39.35,2.87s26.27-2.79,39.37-2.64Z"/></g><g opacity="0.3"><path d="M108.4,443.9c12.72,3.12,26.28,3.73,39.35,2.86S174,444,187.12,444.13Z"/></g><g opacity="0.3"><path d="M109.41,459.28c12.73,3.13,26.28,3.73,39.35,2.86s26.28-2.79,39.38-2.63Z"/></g><g opacity="0.3"><path d="M105.25,475c12.72,3.12,26.28,3.73,39.35,2.86S170.88,475,184,475.19Z"/></g><path d="M107,392.24c-.19,0-.35-1.89-.35-4.23s.16-4.24.35-4.24.36,1.9.36,4.24S107.22,392.24,107,392.24Z" fill="#fff"/><path d="M101.65,408.77c-.19,0-.35-2-.35-4.54s.16-4.55.35-4.55.36,2,.36,4.55S101.85,408.77,101.65,408.77Z" fill="#fff"/><path d="M109.3,424.68c-.2,0-.36-1.8-.36-4s.16-4,.36-4,.35,1.81.35,4S109.49,424.68,109.3,424.68Z" fill="#fff"/><path d="M101.45,439.35c-.2,0-.36-1.62-.36-3.61s.16-3.62.36-3.62.35,1.62.35,3.62S101.64,439.35,101.45,439.35Z" fill="#fff"/><path d="M132.64,398.65c0,.19-6.29.35-14,.35s-14-.16-14-.35,6.28-.36,14-.36S132.64,398.45,132.64,398.65Z" fill="#fff"/><path d="M141.72,383.77c0,.2-6.34.36-14.16.36s-14.15-.16-14.15-.36,6.34-.35,14.15-.35S141.72,383.58,141.72,383.77Z" fill="#fff"/><path d="M155.37,384c0,.2-2.08.35-4.65.35s-4.65-.15-4.65-.35,2.09-.35,4.65-.35S155.37,383.78,155.37,384Z" fill="#fff"/><path d="M109.92,458.9a66.77,66.77,0,0,1,0-11.83A66.77,66.77,0,0,1,109.92,458.9Z" fill="#fff"/><path d="M174.65,442.16c0,.15-15.49.26-34.6.26s-34.6-.11-34.6-.26,15.49-.26,34.6-.26S174.65,442,174.65,442.16Z" fill="#fff"/><path d="M160.81,473.41c0,.15-12.24.26-27.34.26s-27.35-.11-27.35-.26,12.24-.26,27.35-.26S160.81,473.27,160.81,473.41Z" fill="#fff"/><path d="M97.87,487.47a21.44,21.44,0,0,1,0-6.69A21.44,21.44,0,0,1,97.87,487.47Z" fill="#fff"/><path d="M158.13,488.81c0,.15-12.69.26-28.34.26s-28.35-.11-28.35-.26,12.69-.26,28.35-.26S158.13,488.67,158.13,488.81Z" fill="#fff"/><path d="M96.72,490.45a1.31,1.31,0,0,1,0-.28v-.81c0-.77,0-1.82-.06-3.13,0-2.76,0-6.65-.09-11.39v-.2h6.23l-.23.23V459.16h5.89l-.26.26V443.73l.24.23H100v-.2c0-4.7.06-8.56.09-11.29v-3.9a.15.15,0,0,1-.11-.17.16.16,0,0,1,.17-.11.15.15,0,0,1,.11.17.17.17,0,0,1-.11.11v3.9c0,2.73.06,6.59.09,11.29l-.2-.2h8.47v16.19h-5.89l.25-.26v15.68h-.16l-6.07-.09.2-.21c0,4.74-.07,8.63-.09,11.39,0,1.31,0,2.36-.05,3.13v.81A1,1,0,0,1,96.72,490.45Z" fill="#273956"/><path d="M109.09,479.79a1.77,1.77,0,0,1,1.93,1.38,1.72,1.72,0,0,1-1.35,1.93,1.89,1.89,0,0,1-2-1.48,1.77,1.77,0,0,1,1.63-1.84" fill="#e0e0e0"/><path d="M260.62,334.14s-5.33-9.88,3-11c0,0-1.09-15.28,10.19-14.18h5.81l.09,25.2Z" fill="#39b54a"/><rect x="275.96" y="225.17" width="99.72" height="109.01" fill="#d3e9f4"/><line x1="276.21" y1="236.77" x2="369.97" y2="236.77" fill="none" stroke="#ddeef8" stroke-miterlimit="10"/><line x1="276.21" y1="247.05" x2="369.97" y2="247.05" fill="none" stroke="#ddeef8" stroke-miterlimit="10"/><line x1="276.21" y1="256.73" x2="369.97" y2="256.73" fill="none" stroke="#ddeef8" stroke-miterlimit="10"/><line x1="276.21" y1="267.01" x2="369.97" y2="267.01" fill="none" stroke="#ddeef8" stroke-miterlimit="10"/><line x1="276.21" y1="276.69" x2="369.97" y2="276.69" fill="none" stroke="#ddeef8" stroke-miterlimit="10"/><line x1="276.21" y1="286.98" x2="369.97" y2="286.98" fill="none" stroke="#ddeef8" stroke-miterlimit="10"/><line x1="276.21" y1="296.65" x2="369.97" y2="296.65" fill="none" stroke="#ddeef8" stroke-miterlimit="10"/><line x1="275.9" y1="316.01" x2="369.67" y2="316.01" fill="none" stroke="#ddeef8" stroke-miterlimit="10"/><line x1="275.9" y1="325.69" x2="369.67" y2="325.69" fill="none" stroke="#ddeef8" stroke-miterlimit="10"/><line x1="276.21" y1="306.94" x2="369.97" y2="306.94" fill="none" stroke="#ddeef8" stroke-miterlimit="10"/><path d="M295.82,232.41h0a13.74,13.74,0,0,1,13.74,13.74v28a0,0,0,0,1,0,0H282.08a0,0,0,0,1,0,0v-28A13.74,13.74,0,0,1,295.82,232.41Z" fill="#fff"/><rect x="283.88" y="248.33" width="10.96" height="24.33" fill="#d3e9f4"/><rect x="296.5" y="248.33" width="10.96" height="24.33" fill="#d3e9f4"/><path d="M296.4,246.78V234s11.54,1.48,11.22,12.91Z" fill="#d3e9f4"/><path d="M295,246.67v-12.8s-11.53,1.48-11.22,12.91Z" fill="#d3e9f4"/><polygon points="294.85 250.39 294.85 255.56 283.88 259.6 283.88 254.23 294.85 250.39" fill="#fff" opacity="0.2"/><polygon points="294.84 262.88 294.84 268.05 283.88 272.09 283.88 266.71 294.84 262.88" fill="#fff" opacity="0.2"/><polygon points="307.47 249.58 307.47 254.75 296.5 258.79 296.5 253.42 307.47 249.58" fill="#fff" opacity="0.2"/><polygon points="307.45 262.07 307.45 267.24 296.5 271.28 296.5 265.9 307.45 262.07" fill="#fff" opacity="0.2"/><path d="M328.4,232.41h0a13.74,13.74,0,0,1,13.74,13.74v28a0,0,0,0,1,0,0H314.66a0,0,0,0,1,0,0v-28a13.74,13.74,0,0,1,13.74-13.74Z" fill="#fff"/><rect x="316.46" y="248.33" width="10.96" height="24.33" fill="#d3e9f4"/><rect x="329.08" y="248.33" width="10.96" height="24.33" fill="#d3e9f4"/><path d="M329,246.78V234s11.54,1.48,11.22,12.91Z" fill="#d3e9f4"/><path d="M327.61,246.67v-12.8s-11.54,1.48-11.22,12.91Z" fill="#d3e9f4"/><polygon points="327.43 250.39 327.43 255.56 316.46 259.6 316.46 254.23 327.43 250.39" fill="#fff" opacity="0.2"/><polygon points="327.42 262.88 327.42 268.05 316.46 272.09 316.46 266.71 327.42 262.88" fill="#fff" opacity="0.2"/><polygon points="340.05 249.58 340.05 254.75 329.08 258.79 329.08 253.42 340.05 249.58" fill="#fff" opacity="0.2"/><polygon points="340.03 262.07 340.03 267.24 329.08 271.28 329.08 265.9 340.03 262.07" fill="#fff" opacity="0.2"/><path d="M361,232.41h0a13.74,13.74,0,0,1,13.74,13.74v28a0,0,0,0,1,0,0H347.24a0,0,0,0,1,0,0v-28A13.74,13.74,0,0,1,361,232.41Z" fill="#fff"/><rect x="349.04" y="248.33" width="10.96" height="24.33" fill="#d3e9f4"/><rect x="361.66" y="248.33" width="10.96" height="24.33" fill="#d3e9f4"/><path d="M361.56,246.78V234s11.54,1.48,11.22,12.91Z" fill="#d3e9f4"/><path d="M360.19,246.67v-12.8s-11.54,1.48-11.22,12.91Z" fill="#d3e9f4"/><polygon points="360.01 250.39 360.01 255.56 349.04 259.6 349.04 254.23 360.01 250.39" fill="#fff" opacity="0.2"/><polygon points="359.99 262.88 359.99 268.05 349.04 272.09 349.04 266.71 359.99 262.88" fill="#fff" opacity="0.2"/><polygon points="372.63 249.58 372.63 254.75 361.66 258.79 361.66 253.42 372.63 249.58" fill="#fff" opacity="0.2"/><polygon points="372.61 262.07 372.61 267.24 361.66 271.28 361.66 265.9 372.61 262.07" fill="#fff" opacity="0.2"/><polygon points="275.71 186.74 401.29 186.74 375.68 225.17 263.15 225.17 275.71 186.74" fill="#273956"/><polygon points="368.82 213.25 368.82 334.32 501.44 334.32 501.44 213.25 434.63 155.49 368.82 213.25" fill="#ddeef8"/><polygon points="363.87 221.65 369.14 221.65 369.14 216.63 363.87 221.65" fill="#4b83a8"/><polygon points="363.87 221.65 369.14 221.65 369.14 216.63 363.87 221.65" opacity="0.2"/><polygon points="303.06 334.13 303.06 306.33 305.58 303.1 307.58 306.58 307.58 334.13 303.06 334.13" fill="#4b83a8"/><polygon points="321.78 334.13 321.78 306.33 324.29 303.1 326.3 306.58 326.3 334.13 321.78 334.13" fill="#4b83a8"/><polygon points="265.63 334.13 265.63 306.33 268.14 303.1 270.15 306.58 270.15 334.13 265.63 334.13" fill="#4b83a8"/><polygon points="284.35 334.13 284.35 306.33 286.86 303.1 288.87 306.58 288.87 334.13 284.35 334.13" fill="#4b83a8"/><polygon points="340.5 334.13 340.5 306.33 343.01 303.1 345.02 306.58 345.02 334.13 340.5 334.13" fill="#4b83a8"/><polygon points="359.22 334.13 359.22 306.33 361.73 303.1 363.74 306.58 363.74 334.13 359.22 334.13" fill="#4b83a8"/><polygon points="377.94 334.13 377.94 306.33 380.45 303.1 382.46 306.58 382.46 334.13 377.94 334.13" fill="#4b83a8"/><rect x="259.13" y="308.05" width="128.1" height="2.76" fill="#273956"/><rect x="259.13" y="318.85" width="128.1" height="2.76" fill="#273956"/><path d="M435.58,197.49h0A15.55,15.55,0,0,1,451.13,213v23.09a1.3,1.3,0,0,1-1.3,1.3h-28.5a1.3,1.3,0,0,1-1.3-1.3V213A15.55,15.55,0,0,1,435.58,197.49Z" fill="#fff"/><rect x="422.07" y="215.73" width="12.4" height="20.27" fill="#d3e9f4"/><rect x="436.34" y="215.73" width="12.4" height="20.27" fill="#d3e9f4"/><path d="M448.93,213.93l-5.3-.05h-.08l-4,0h-.08l-3.2,0V199a15.34,15.34,0,0,1,3.2.87,16.58,16.58,0,0,1,4.11,2.22C446.46,204.26,449.09,207.9,448.93,213.93Z" fill="#d3e9f4"/><path d="M434.69,198.88v14.81l-6.89.06-5.8.06c-.17-6.23,2.64-9.9,5.66-12.05A17.47,17.47,0,0,1,434.69,198.88Z" fill="#d3e9f4"/><rect x="447.41" y="260.9" width="38.93" height="69.06" fill="#fff"/><rect x="467.59" y="296.42" width="17.05" height="31.83" fill="#d3e9f4"/><rect x="449.12" y="296.42" width="17.05" height="31.83" fill="#d3e9f4"/><rect x="467.59" y="263.18" width="17.05" height="31.83" fill="#d3e9f4"/><rect x="449.12" y="263.18" width="17.05" height="31.83" fill="#d3e9f4"/><rect x="411.27" y="261.07" width="26.68" height="41.51" fill="#fff"/><rect x="378.23" y="261.07" width="26.68" height="41.51" fill="#fff"/><circle cx="345.57" cy="165.53" r="13.68" fill="#f48225" data-secondary="true"/><path d="M301.29,159.5a2.94,2.94,0,0,1,1.57.22,3.32,3.32,0,0,1,1.35,1,3.54,3.54,0,0,1,.72,1.62,4.9,4.9,0,0,1,0,1.71L303,163.6a3.71,3.71,0,0,1,.78-1.21,3,3,0,0,1,1.2-.78,2.46,2.46,0,0,1,1.39-.08,2.35,2.35,0,0,1,1.1.62,4.28,4.28,0,0,0-1.07.27,1.92,1.92,0,0,0-.73.47,2.69,2.69,0,0,0-.48.63,4.45,4.45,0,0,0-.31.7l-1.91-.47a7,7,0,0,0,0-1.11,3.46,3.46,0,0,0-.22-1A5.68,5.68,0,0,0,301.29,159.5Z" fill="#273956"/><path d="M367.78,151.26a6,6,0,0,1,2.2-.68,6.15,6.15,0,0,1,2.4.2,5.27,5.27,0,0,1,2.2,1.25,6.22,6.22,0,0,1,1.47,2.07l-1.77.9a6.3,6.3,0,0,1-.78-2.69,5,5,0,0,1,.62-2.74,5.25,5.25,0,0,1,1.89-1.91,10.79,10.79,0,0,1,1.15-.53,11.07,11.07,0,0,1,1.21-.28c-.31.28-.62.53-.92.78s-.57.53-.8.82a4.74,4.74,0,0,0-.64.87,3.81,3.81,0,0,0-.44.91,4.13,4.13,0,0,0-.15,1.91A5.73,5.73,0,0,0,376,154l-1.77.91a6.5,6.5,0,0,0-1-1.56,4.74,4.74,0,0,0-1.43-1.15A9.51,9.51,0,0,0,367.78,151.26Z" fill="#273956"/><polygon points="358.85 215.12 363.87 221.65 434.95 160.62 507.04 222.66 512.56 216.88 434.7 149.31 358.85 215.12" fill="#4b83a8"/><path d="M427.8,213.75l-5.8.06c-.17-6.23,2.64-9.9,5.66-12.05h.06Z" fill="#fff" opacity="0.4"/><rect x="422.16" y="215.98" width="5.75" height="20.27" fill="#ddeef8"/><path d="M443.63,202.34v11.54h-.08l-4,0V200.12A16.74,16.74,0,0,1,443.63,202.34Z" fill="#ddeef8"/><rect x="439.52" y="215.98" width="4.11" height="20.27" fill="#ddeef8"/><rect x="412.96" y="262.5" width="10.79" height="38.85" fill="#d3e9f4"/><rect x="425.46" y="262.38" width="10.79" height="38.85" fill="#d3e9f4"/><rect x="379.92" y="262.5" width="10.79" height="38.85" fill="#d3e9f4"/><rect x="392.42" y="262.39" width="10.79" height="38.85" fill="#d3e9f4"/><polygon points="423.75 270.07 423.75 275.98 412.96 280.59 412.96 274.45 423.75 270.07" fill="#fff" opacity="0.2"/><polygon points="436.26 264.99 436.26 270.63 425.46 275.25 425.46 269.37 436.26 264.99" fill="#fff" opacity="0.2"/><polygon points="423.86 284.33 423.86 290.24 413.07 294.86 413.07 288.72 423.86 284.33" fill="#fff" opacity="0.2"/><polygon points="436.36 279.26 436.36 284.9 425.57 289.51 425.57 283.64 436.36 279.26" fill="#fff" opacity="0.2"/><polygon points="390.67 272.59 390.67 278.5 379.87 283.11 379.87 276.97 390.67 272.59" fill="#fff" opacity="0.2"/><polygon points="403.17 267.51 403.17 273.15 392.38 277.77 392.38 271.89 403.17 267.51" fill="#fff" opacity="0.2"/><polygon points="390.77 286.85 390.77 292.76 379.98 297.38 379.98 291.24 390.77 286.85" fill="#fff" opacity="0.2"/><polygon points="403.28 281.78 403.28 287.42 392.48 292.03 392.48 286.16 403.28 281.78" fill="#fff" opacity="0.2"/><polygon points="473.72 296.42 471.98 328.25 469.46 328.25 471.09 296.42 473.72 296.42" fill="#fff" opacity="0.2"/><polygon points="475.54 263.18 473.8 295 471.16 295 472.79 263.18 475.54 263.18" fill="#fff" opacity="0.2"/><polygon points="484.64 296.42 484.64 328.25 475.54 328.25 477.34 296.42 484.64 296.42" fill="#fff" opacity="0.2"/><polygon points="484.64 263.18 484.64 295 477.42 295 479.22 263.18 484.64 263.18" fill="#fff" opacity="0.2"/><polygon points="455.24 296.42 453.5 328.25 450.99 328.25 452.62 296.42 455.24 296.42" fill="#fff" opacity="0.2"/><polygon points="457.06 263.18 455.32 295 452.69 295 454.32 263.18 457.06 263.18" fill="#fff" opacity="0.2"/><polygon points="466.17 296.42 466.17 328.25 457.07 328.25 458.87 296.42 466.17 296.42" fill="#fff" opacity="0.2"/><polygon points="466.17 263.18 466.17 295 458.95 295 460.75 263.18 466.17 263.18" fill="#fff" opacity="0.2"/><rect x="443.18" y="329.65" width="47.22" height="4.66" fill="#545257"/><path d="M465.28,256c0,16,16.41,22.11,36.65,22.11S538.58,272,538.58,256,522.17,227,501.93,227,465.28,240,465.28,256Z" fill="#009444"/><path d="M465.28,256c0,16,16.41,22.11,36.65,22.11S538.58,272,538.58,256,522.17,227,501.93,227,465.28,240,465.28,256Z" opacity="0.2"/><path d="M509.5,269.21s-4.35,36.12,12,65.05H494.78s13.38-19.4,6.86-65.05Z" fill="#994507"/><path d="M485.84,275.14s-.45,23.19,18.84,13.82v5.24s-22.3,9.36-21-19.06Z" fill="#994507"/><path d="M523.8,271.68s.4,18.46-16.85,11v4.17s19.94,7.45,18.74-15.17Z" fill="#994507"/><path d="M462.56,247.94c0,17.17,17.63,23.74,39.37,23.74s39.37-6.57,39.37-23.74-17.63-31.1-39.37-31.1S462.56,230.76,462.56,247.94Z" fill="#39b54a"/><path d="M472.51,242.14c0,12.83,13.17,17.74,29.42,17.74s29.42-4.91,29.42-17.74-13.17-23.24-29.42-23.24S472.51,229.31,472.51,242.14Z" fill="#009444"/><path d="M476.54,230.41c9.59-8.31,23.29-11.31,36.12-8.64a35.49,35.49,0,0,1,10,3.91,33.65,33.65,0,0,0-20.76-6.78C491.1,218.9,481.64,223.53,476.54,230.41Z" opacity="0.2"/><path d="M511.64,269.07c0,9.71,10,13.43,22.26,13.43s22.27-3.72,22.27-13.43-10-17.59-22.27-17.59S511.64,259.35,511.64,269.07Z" fill="#009444"/><path d="M456.11,272.64c1,9.66,11.27,12.35,23.51,11.12s21.78-5.94,20.8-15.61-11.69-16.49-23.93-15.25S455.13,263,456.11,272.64Z" fill="#009444"/><path d="M518.29,266.47c0,6.89,7.07,9.52,15.78,9.52s15.79-2.63,15.79-9.52S542.79,254,534.07,254,518.29,259.58,518.29,266.47Z" fill="#39b54a"/><path d="M461,270.25c.75,7.44,8.67,9.51,18.09,8.56s16.75-4.57,16-12-9-12.69-18.41-11.74S460.2,262.81,461,270.25Z" fill="#39b54a"/><path d="M485.15,267.11c.31,3.05,3.56,3.9,7.41,3.51s6.87-1.87,6.57-4.92-3.69-5.2-7.55-4.81S484.84,264.06,485.15,267.11Z" fill="#009444"/><path d="M515.7,269.71c.31,3.05,3.56,3.9,7.42,3.51s6.86-1.88,6.56-4.93-3.69-5.2-7.55-4.81S515.39,266.66,515.7,269.71Z" fill="#009444"/><path d="M529.59,277.35c.2,2,2.35,2.58,4.91,2.32s4.55-1.24,4.35-3.26-2.44-3.45-5-3.19S529.39,275.33,529.59,277.35Z" fill="#009444"/><path d="M476.61,274.1c.21,2,2.39,2.61,5,2.35s4.6-1.26,4.39-3.3-2.47-3.49-5.05-3.23S476.41,272.05,476.61,274.1Z" fill="#009444"/><ellipse cx="528.53" cy="239.39" rx="7.65" ry="5.86" fill="#39b54a"/><ellipse cx="476.1" cy="242.43" rx="7.65" ry="5.86" fill="#39b54a"/><ellipse cx="482.8" cy="232.87" rx="3.2" ry="2.45" fill="#39b54a"/><path d="M516.35,229.94c0,1.62,1.71,2.93,3.82,2.93s3.82-1.31,3.82-2.93-1.71-2.92-3.82-2.92S516.35,228.33,516.35,229.94Z" fill="#39b54a"/><path d="M515.13,236a2.43,2.43,0,1,0,2.35-1.81A2.14,2.14,0,0,0,515.13,236Z" fill="#39b54a"/><rect x="630.08" y="72.8" width="31.59" height="54.69" transform="translate(-7.69 94.17) rotate(-8.29)" fill="#4b83a8"/><rect x="630.08" y="72.8" width="31.59" height="54.69" transform="translate(-7.69 94.17) rotate(-8.29)" opacity="0.2"/><path d="M655.65,79a3.81,3.81,0,0,1-4.32-3.22h0c0-.16,0-.32,0-.47l-17.94,2.61c0,.15.07.3.1.46a3.81,3.81,0,0,1-3.23,4.32l-.23,0,5.63,38.67.23,0a3.81,3.81,0,0,1,4.32,3.22h0a2.59,2.59,0,0,1,0,.48l17.95-2.62a2.52,2.52,0,0,1-.1-.46,3.8,3.8,0,0,1,3.21-4.32h0l.47,0L656.11,78.9Zm-8.88,27.32a6.25,6.25,0,1,1,5.28-7.08,6.23,6.23,0,0,1-5.28,7.08h0Z" fill="#fff"/><rect x="628.3" y="75.14" width="31.72" height="54.92" transform="translate(-4.6 170.27) rotate(-15)" fill="#4b83a8"/><path d="M650.43,80.3a3.82,3.82,0,0,1-4.67-2.7c0-.15-.07-.3-.09-.46l-17.52,4.69a3.29,3.29,0,0,1,.16.44,3.82,3.82,0,0,1-2.7,4.67h0l-.23,0,10.1,37.74.22-.07a3.82,3.82,0,0,1,4.67,2.69h0a3.73,3.73,0,0,1,.09.46L658,123.14c-.06-.15-.11-.3-.16-.45a3.83,3.83,0,0,1,2.7-4.67,3.55,3.55,0,0,1,.47-.09L650.88,80.15A4,4,0,0,1,650.43,80.3Zm-5.65,28.18a6.25,6.25,0,1,1,4.44-7.64,6.25,6.25,0,0,1-4.44,7.64Z" fill="#fff"/><line x1="205.25" y1="436.5" x2="205.25" y2="491.53" fill="none" stroke="#ed1c24" stroke-miterlimit="10"/><rect x="165.94" y="436.5" width="111.95" height="55.41" fill="#4b83a8"/><line x1="238.2" y1="436.5" x2="238.2" y2="491.53" fill="none" stroke="#ed1c24" stroke-miterlimit="10"/><rect x="240.07" y="436.42" width="6.74" height="55.43" opacity="0.2"/><line x1="165.94" y1="446.98" x2="278.26" y2="446.98" fill="none" stroke="#000" stroke-miterlimit="10" opacity="0.2"/><line x1="165.57" y1="458.59" x2="277.88" y2="458.59" fill="none" stroke="#000" stroke-miterlimit="10" opacity="0.2"/><line x1="166.31" y1="469.82" x2="278.63" y2="469.82" fill="none" stroke="#000" stroke-miterlimit="10" opacity="0.2"/><line x1="165.94" y1="481.42" x2="278.26" y2="481.42" fill="none" stroke="#000" stroke-miterlimit="10" opacity="0.2"/><polygon points="242.32 491.91 200.38 491.91 200.38 436.5 205.25 436.5 242.32 436.5 242.32 491.91" fill="#f48225" data-secondary="true"/><path d="M646.46,206.57a2.27,2.27,0,0,0,2.91,1.32,2.17,2.17,0,0,0,1.44-2.71l0-.08a2.29,2.29,0,0,0-2.91-1.33,2.17,2.17,0,0,0-1.44,2.71A.32.32,0,0,0,646.46,206.57Z" fill="#273956"/><path d="M641.53,199.55c.37.17,1.5-1.67,3.79-2.6s4.42-.47,4.55-.84-.4-.56-1.35-.81a6.38,6.38,0,0,0-3.74.32A5.9,5.9,0,0,0,642,198C641.38,198.88,641.35,199.48,641.53,199.55Z" fill="#273956"/><path d="M667.18,197.83a2.29,2.29,0,0,0,2.92,1.32,2.21,2.21,0,0,0,1.41-2.78v0a2.27,2.27,0,0,0-2.91-1.31,2.18,2.18,0,0,0-1.44,2.71Z" fill="#273956"/><path d="M664.16,190.83c.37.18,1.5-1.67,3.77-2.6s4.44-.46,4.56-.84-.38-.57-1.34-.79a6.18,6.18,0,0,0-3.75.31,6.06,6.06,0,0,0-2.83,2.39C664,190.17,663.91,190.8,664.16,190.83Z" fill="#273956"/><path d="M662.75,211.15a16,16,0,0,0-4,.84c-.6.17-1.2.28-1.47-.07a3.35,3.35,0,0,1-.28-1.82l-.09-5.15a82.45,82.45,0,0,0-.85-13.23c-.3,0-.37,6-.21,13.23l.16,5.14a3.53,3.53,0,0,0,.64,2.42A1.51,1.51,0,0,0,658,213a3.87,3.87,0,0,0,1-.27A15.31,15.31,0,0,0,662.75,211.15Z" fill="#f7a79e"/><path d="M694.24,193.31a5.2,5.2,0,0,0,.66.09,2.34,2.34,0,0,0,1.52-.56,5.37,5.37,0,0,0,.54-5.37,7.05,7.05,0,0,0-1.7-2.66,2.49,2.49,0,0,0-2.12-1,1.12,1.12,0,0,0-1,1c0,.39.12.59.07.64s-.32-.08-.41-.6A1.4,1.4,0,0,1,692,184a1.69,1.69,0,0,1,1-.73,3.06,3.06,0,0,1,2.81,1,7.24,7.24,0,0,1,2,3,5.58,5.58,0,0,1-1,6.14,2.31,2.31,0,0,1-2,.45C694.38,193.58,694.21,193.35,694.24,193.31Z" fill="#f7a79e"/><path d="M674.31,216.08a34.86,34.86,0,0,0-8.56,2.3c-.33,1.24,1.43,4.22,2.67,4.83a4.46,4.46,0,0,0,4-.11,5.5,5.5,0,0,0,2.2-3.23A8.13,8.13,0,0,0,674.31,216.08Z" fill="#fff"/></svg>