<svg id="a3a3a673-91d5-4c9d-9a4e-3c72a69c0056" data-name="Layer 1" xmlns="http://www.w3.org/2000/svg" width="865.76" height="682.89" viewBox="0 0 865.76 682.89"><path d="M221.68,272.88l1-3.52s-13-14.08-16.72-15.82S179.26,256,178,258s-.81,10.87-.51,12.43,20.74,5.16,24.17,5.34S221.68,272.88,221.68,272.88Z" fill="#686175" data-primary="true"/><path d="M222.73,269.36l-1,3.52s8.67,6.61,9,7-.22,2.26-.22,2.26l8.81.05.07-12.73a20.91,20.91,0,0,1-4.12,1.74C233.93,271.39,222.73,269.36,222.73,269.36Z" fill="#686175" data-primary="true"/><g opacity="0.1"><path d="M221.68,272.88l1-3.52s-13-14.08-16.72-15.82S179.26,256,178,258s-.81,10.87-.51,12.43,20.74,5.16,24.17,5.34S221.68,272.88,221.68,272.88Z" fill="#686175" data-primary="true"/><path d="M222.73,269.36l-1,3.52s8.67,6.61,9,7-.22,2.26-.22,2.26l8.81.05.07-12.73a20.91,20.91,0,0,1-4.12,1.74C233.93,271.39,222.73,269.36,222.73,269.36Z" fill="#686175" data-primary="true"/></g><path d="M383.41,409.05c.75,34.29,14.09,76.41,44.33,76.58,3,0,43.47,1,46.12.16,24.42-8,39.11-52.55,36.59-91.91-2-30.65-11.48-65-36.95-69.28-1.7-.29-44.3-.25-46.15-.26C396.82,324.18,382.6,372.17,383.41,409.05Z" fill="#2f2e41"/><path d="M432,409.32c.76,34.29,14.1,76.41,44.34,76.58s44.35-48.35,41.55-92c-2.1-32.7-12.41-69.15-41.94-69.31C445.37,324.44,431.14,372.43,432,409.32Z" fill="#2f2e41"/><path d="M432,409.32c.76,34.29,14.1,76.41,44.34,76.58s44.35-48.35,41.55-92c-2.1-32.7-12.41-69.15-41.94-69.31C445.37,324.44,431.14,372.43,432,409.32Z" opacity="0.2"/><path d="M444.55,408.4c.63,26.4,10.57,58.83,32.92,59s32.68-37.23,30.53-70.82c-1.62-25.18-9.31-53.25-31.14-53.37C454.3,343,443.88,380,444.55,408.4Z" fill="#ccc"/><path d="M484,348.9c-.52,10.73-2.31,44.9-4.63,44.88-2,0-7.52-32.3-9.47-44a17,17,0,0,1,7.91-1.91A19.88,19.88,0,0,1,484,348.9Z" fill="#2f2e41"/><path d="M475.15,395.8c-1.24.92-12.11-14.56-20-26.16a49.23,49.23,0,0,1,7.24-13.42C467.48,369.48,476.83,394.55,475.15,395.8Z" fill="#2f2e41"/><path d="M473.05,399.76c-.56,1.39-12.31-4.08-22.89-9.33a107.39,107.39,0,0,1,2.47-12.76C462.29,386.76,473.74,398,473.05,399.76Z" fill="#2f2e41"/><path d="M471.92,404.57c.1,1.61-11.82,3.82-22.65,5.49,0-.64,0-1.26-.07-1.89-.09-3.44,0-7,.25-10.61C460.26,399.86,471.8,402.76,471.92,404.57Z" fill="#2f2e41"/><path d="M452.52,432.45a105.24,105.24,0,0,1-2.66-14.63c10.39-4.77,22.54-9.91,23.43-8.23S461.62,423.72,452.52,432.45Z" fill="#2f2e41"/><path d="M465.24,457.08c-3.91-3.61-7.07-8.79-9.5-14.78,6.74-11.39,18.25-30.25,20-29S468.19,447,465.24,457.08Z" fill="#2f2e41"/><path d="M488.56,459.36a16.5,16.5,0,0,1-9.95,3.28,17.24,17.24,0,0,1-4.1-.48c.41-9,2.25-46.14,4.69-46.13C481.12,416,486.52,447.18,488.56,459.36Z" fill="#2f2e41"/><path d="M501.57,437.72a56.14,56.14,0,0,1-6.14,14.06c-5.1-13.32-13.31-35.54-11.72-36.72C484.87,414.21,494.05,426.9,501.57,437.72Z" fill="#2f2e41"/><path d="M505.26,418.13a109.51,109.51,0,0,1-1.73,11.69c-8.44-8.09-17.09-16.91-16.47-18.46C487.54,410.14,496.27,413.88,505.26,418.13Z" fill="#2f2e41"/><path d="M505.77,400.83c.14,3.61.12,7.26,0,10.87-9-1.95-17.33-4.18-17.43-5.76C488.21,404.54,496.75,402.55,505.77,400.83Z" fill="#2f2e41"/><path d="M505.35,393.94c-8.72,4.11-17.46,7.75-18.22,6.3s8.35-11.4,16.37-19.73A120.14,120.14,0,0,1,505.35,393.94Z" fill="#2f2e41"/><path d="M501.06,370.76s0,0,0,0c-6.5,11.12-15.63,26.1-17.21,25s5.69-29.12,8.89-40.85C496.35,359,499.07,364.5,501.06,370.76Z" fill="#2f2e41"/><path d="M42.07,406.57c.75,34.05,14,75.87,44.19,76,2.95,0,43.32,1,46,.16,24.34-7.93,39-52.17,36.46-91.25-2-30.44-11.43-64.56-36.82-68.79-1.69-.28-44.16-.24-46-.25C55.43,322.3,41.26,370,42.07,406.57Z" fill="#2f2e41"/><path d="M90.46,406.84c.75,34,14,75.86,44.19,76s44.19-48,41.4-91.32c-2.09-32.46-12.37-68.66-41.8-68.82C103.82,322.57,89.65,370.22,90.46,406.84Z" fill="#2f2e41"/><path d="M90.46,406.84c.75,34,14,75.86,44.19,76s44.19-48,41.4-91.32c-2.09-32.46-12.37-68.66-41.8-68.82C103.82,322.57,89.65,370.22,90.46,406.84Z" opacity="0.2"/><path d="M103,405.92c.62,26.22,10.53,58.42,32.81,58.54s32.58-37,30.43-70.32c-1.61-25-9.28-52.87-31-53C112.72,341,102.34,377.72,103,405.92Z" fill="#ccc"/><path d="M142.31,346.86c-.52,10.64-2.31,44.57-4.62,44.55-1.95,0-7.49-32.07-9.44-43.66a17.05,17.05,0,0,1,7.89-1.9A19.23,19.23,0,0,1,142.31,346.86Z" fill="#2f2e41"/><path d="M133.5,393.41c-1.23.92-12.06-14.45-19.93-26a48.76,48.76,0,0,1,7.22-13.33C125.86,367.29,135.18,392.18,133.5,393.41Z" fill="#2f2e41"/><path d="M131.42,397.34c-.57,1.39-12.27-4-22.82-9.25a104,104,0,0,1,2.47-12.67C120.69,384.44,132.11,395.63,131.42,397.34Z" fill="#2f2e41"/><path d="M130.29,402.12c.1,1.6-11.78,3.8-22.58,5.45,0-.63,0-1.24-.07-1.87-.08-3.41,0-6.95.25-10.54C118.67,397.45,130.17,400.33,130.29,402.12Z" fill="#2f2e41"/><path d="M111,429.81a105.3,105.3,0,0,1-2.65-14.53c10.36-4.74,22.46-9.84,23.35-8.18S120,421.13,111,429.81Z" fill="#2f2e41"/><path d="M123.63,454.26c-3.9-3.59-7-8.73-9.46-14.67,6.71-11.31,18.18-30,19.93-28.84S126.57,444.29,123.63,454.26Z" fill="#2f2e41"/><path d="M146.88,456.52a16.5,16.5,0,0,1-9.92,3.26,18.18,18.18,0,0,1-4.09-.47c.41-8.9,2.24-45.82,4.67-45.81C139.45,413.51,144.84,444.42,146.88,456.52Z" fill="#2f2e41"/><path d="M159.84,435a55.52,55.52,0,0,1-6.12,14c-5.08-13.23-13.26-35.29-11.68-36.46C143.19,411.69,152.34,424.3,159.84,435Z" fill="#2f2e41"/><path d="M163.52,415.59a110.78,110.78,0,0,1-1.72,11.6c-8.42-8-17-16.78-16.43-18.33C145.86,407.65,154.56,411.37,163.52,415.59Z" fill="#2f2e41"/><path d="M164,398.41c.14,3.59.13,7.21,0,10.79-8.94-1.93-17.27-4.15-17.37-5.71C146.52,402.1,155,400.12,164,398.41Z" fill="#2f2e41"/><path d="M163.61,391.57c-8.69,4.08-17.4,7.7-18.16,6.25s8.31-11.31,16.32-19.59A120.88,120.88,0,0,1,163.61,391.57Z" fill="#2f2e41"/><path d="M159.33,368.55s0,0,0,0c-6.48,11.05-15.57,25.92-17.15,24.82s5.67-28.91,8.85-40.56C154.64,356.84,157.34,362.34,159.33,368.55Z" fill="#2f2e41"/><path d="M693.93,410.15c.75,34,14.05,75.86,44.19,76,3,0,43.32,1,46,.16,24.34-7.94,39-52.18,36.46-91.25-2-30.44-11.44-64.56-36.83-68.79-1.69-.28-44.15-.24-46-.25C707.3,325.88,693.12,373.53,693.93,410.15Z" fill="#2f2e41"/><path d="M742.32,410.42c.75,34,14,75.86,44.19,76s44.2-48,41.4-91.32c-2.09-32.47-12.36-68.66-41.8-68.82C755.68,326.14,741.51,373.79,742.32,410.42Z" fill="#2f2e41"/><path d="M742.32,410.42c.75,34,14,75.86,44.19,76s44.2-48,41.4-91.32c-2.09-32.47-12.36-68.66-41.8-68.82C755.68,326.14,741.51,373.79,742.32,410.42Z" opacity="0.2"/><path d="M754.87,409.5c.63,26.21,10.54,58.41,32.82,58.54s32.57-37,30.42-70.32c-1.61-25-9.28-52.87-31-53C764.58,344.61,754.2,381.3,754.87,409.5Z" fill="#ccc"/><path d="M794.17,350.43c-.52,10.65-2.3,44.57-4.62,44.56-1.95,0-7.49-32.07-9.44-43.66a16.81,16.81,0,0,1,7.89-1.9A19.51,19.51,0,0,1,794.17,350.43Z" fill="#2f2e41"/><path d="M785.37,397c-1.24.91-12.07-14.45-19.94-26a48.7,48.7,0,0,1,7.22-13.32C777.72,370.87,787,395.75,785.37,397Z" fill="#2f2e41"/><path d="M783.28,400.92c-.56,1.39-12.27-4-22.82-9.26A106.29,106.29,0,0,1,762.93,379C772.56,388,784,399.21,783.28,400.92Z" fill="#2f2e41"/><path d="M782.15,405.7c.1,1.6-11.78,3.79-22.57,5.45,0-.63-.06-1.25-.07-1.88-.09-3.41,0-6.95.25-10.53C770.53,401,782,403.9,782.15,405.7Z" fill="#2f2e41"/><path d="M762.81,433.39a105.57,105.57,0,0,1-2.65-14.53c10.36-4.74,22.47-9.85,23.36-8.18S771.89,424.71,762.81,433.39Z" fill="#2f2e41"/><path d="M775.5,457.84c-3.91-3.59-7-8.73-9.47-14.68,6.71-11.3,18.18-30,19.93-28.83S778.44,447.87,775.5,457.84Z" fill="#2f2e41"/><path d="M798.74,460.1a16.5,16.5,0,0,1-9.92,3.26,17.6,17.6,0,0,1-4.08-.48c.4-8.9,2.23-45.81,4.67-45.8C791.32,417.09,796.71,448,798.74,460.1Z" fill="#2f2e41"/><path d="M811.71,438.61a56.49,56.49,0,0,1-6.12,14c-5.09-13.23-13.27-35.29-11.68-36.46C795.05,415.27,804.21,427.88,811.71,438.61Z" fill="#2f2e41"/><path d="M815.38,419.16a108.38,108.38,0,0,1-1.72,11.61c-8.41-8-17-16.78-16.42-18.33C797.72,411.23,806.42,414.94,815.38,419.16Z" fill="#2f2e41"/><path d="M815.88,402c.14,3.59.13,7.21,0,10.79-9-1.94-17.28-4.15-17.38-5.72C798.38,405.67,806.9,403.7,815.88,402Z" fill="#2f2e41"/><path d="M815.47,395.15c-8.69,4.07-17.4,7.69-18.16,6.25s8.32-11.31,16.32-19.59A120.88,120.88,0,0,1,815.47,395.15Z" fill="#2f2e41"/><path d="M811.19,372.13s0,0,0,0c-6.48,11.05-15.57,25.91-17.14,24.82s5.66-28.91,8.85-40.56C806.5,360.42,809.21,365.92,811.19,372.13Z" fill="#2f2e41"/><path d="M517.44,459.91,720.69,461s18.74-30.15,19.83-34.92-3-101.11,46.76-100.84c43.35.24,40.9,96.92,40.9,96.92l5.35-8.1L834.8,400l-3.34-8.37s6.7-59.27,3.76-67.45-29.23-42.55-31-44.35-31-6.94-33-8.74-83.4-69.72-119.77-77.88-115.82-15-166.86-15.24-167.88,12.88-177.45,16-97.58,84.91-97.58,84.91-93.4,11.49-106,14.21-60.29,34.1-62.3,38.07-8.42,48.31-8.42,48.31S28,390.35,27.83,392.94s5.52,44.81,6.31,47,9.48,12.19,11.47,13,333.4,7,337.47,6.23,23.21-6.24,26.41-8.35,10-126.52,67-126.21C526.14,324.88,521.64,419.93,517.44,459.91Z" fill="#686175" data-primary="true"/><path d="M240.13,457.12c-91.53-1.66-193.43-3.75-194.52-4.18-2-.8-10.69-10.81-11.47-13s-6.53-44.42-6.3-47,5-13.52,5-13.52,6.42-44.35,8.43-48.31S91,295.76,103.6,293.06s106-14.22,106-14.22-84.66,18.44-89,22.2-37.32,39.23-41.11,44.5-4.6,45.34-5.82,48.64-9.3,24-10.11,27.54,2.68,17.95,3.87,19.13S232.45,456.45,240.13,457.12Z" opacity="0.1"/><path d="M517.43,459.91c3.84-36.3,7.87-118-28.5-132.9,18.6,3.48,44.43,34.14,45.07,113.88L720.69,461Z" opacity="0.1"/><g opacity="0.6"><path d="M716.2,409.45A226,226,0,0,1,728.8,353a130.08,130.08,0,0,1,5.81-13.33,94.86,94.86,0,0,1,7.45-12.53,63.76,63.76,0,0,1,9.61-11,55.37,55.37,0,0,1,5.76-4.58,45.59,45.59,0,0,1,6.48-3.52,37.5,37.5,0,0,1,14.32-3.3A34.48,34.48,0,0,1,792.75,307c9.29,3.65,16.34,11.26,21.31,19.54a107.69,107.69,0,0,1,11,26.85,167.66,167.66,0,0,1,5.06,28.51,166.86,166.86,0,0,0-5.9-28.27c-2.75-9.2-6.25-18.25-11.34-26.36S801,311.92,792.15,308.52a32.78,32.78,0,0,0-13.84-2.09,35.93,35.93,0,0,0-13.68,3.23A44.46,44.46,0,0,0,758.4,313a53.58,53.58,0,0,0-5.58,4.39,61.7,61.7,0,0,0-9.43,10.7c-5.61,7.75-9.71,16.51-13.3,25.4A211.16,211.16,0,0,0,721.53,381,252.93,252.93,0,0,0,716.2,409.45Z" fill="#fff"/><path d="M408,407.76a227.28,227.28,0,0,1,12.14-55.22,120.91,120.91,0,0,1,12.57-25.47,77.82,77.82,0,0,1,9-11.07,53.47,53.47,0,0,1,11.52-8.56A44,44,0,0,1,467,303.2a42.93,42.93,0,0,1,14.34.91c9.43,2.28,17.52,8.39,23.42,15.82a90.64,90.64,0,0,1,13.65,24.85,142.1,142.1,0,0,1,7.11,27.38,141.69,141.69,0,0,0-7.93-27.06c-3.49-8.71-7.91-17.12-13.9-24.3s-13.69-13-22.74-15.1a40.93,40.93,0,0,0-13.74-.79A42,42,0,0,0,454,309a51.59,51.59,0,0,0-11.15,8.19A75.8,75.8,0,0,0,434,328a126.8,126.8,0,0,0-12.63,25,211.82,211.82,0,0,0-8.24,27A251,251,0,0,0,408,407.76Z" fill="#fff"/><path d="M520.89,338.07c13-3.68,26-7.48,39-11.06h.06l72.65-6.51,72.7-6.06-.09,0L729,306.37l23.88-8-23.72,8.43-23.75,8.3,0,0h0l-72.66,6.48-72.69,6h.06C547,331.23,533.94,334.59,520.89,338.07Z" fill="#fff"/><path d="M219.92,278.93l-39.53,16.61L140.82,312l.18-.17L125.09,341.3l-.37-.64c38.07.55,76.14.9,114.21,1.63l-.28.07,45.51-26.44,0,0,.05,0,56.63-16.51,56.68-16.32L341.06,300,284.5,316.71l.1,0-45.41,26.62-.13.07h-.15c-38.07-.43-76.13-1.22-114.2-1.83H124l.34-.63,16-29.37.06-.11.12-.05,39.66-16.27Z" fill="#fff"/></g><g opacity="0.3"><path d="M217,278.88,137.3,297.34l-9.93,2.38c-1.66.39-3.29.85-4.94,1.28l-1.14.37a2.69,2.69,0,0,0-.56.21l-.42.36a15.76,15.76,0,0,0-1.72,1.74c-4.47,5.08-8.56,10.56-12.75,15.92-8.3,10.81-16.48,21.72-24.65,32.63C89,341.06,96.93,330,105.1,319c4.1-5.46,8.19-10.9,12.69-16.09a16.66,16.66,0,0,1,1.87-1.9l.55-.45a4.86,4.86,0,0,1,.63-.25l1.29-.43c1.65-.44,3.3-.91,5-1.31l9.94-2.43Q157,291.59,177,287.24T217,278.88Z"/><path d="M473.73,283.47,449.48,291l-24.29,7.37-48.5,15c-8.09,2.48-16.18,5-24.19,7.65-4,1.2-7.71,3.27-11.51,5.15l-11.35,5.68L307,343.15l-22.78,11.19,22.52-11.72,22.61-11.55,11.3-5.78c3.76-1.9,7.48-4,11.58-5.28,8-2.76,16.08-5.31,24.15-7.85L425,297.58l24.35-7.17Z"/><path d="M534,434.68l23.37-.38,23.37-.2,46.74-.46,46.75-.18,23.36-.24,5.85-.07,2.91-.08c.47,0,1,0,1.4-.1s.74-.5,1.09-.8c2.61-2.87,4.92-6,7.26-9.14-2.26,3.18-4.48,6.38-7,9.34-.36.32-.62.83-1.18.91a12,12,0,0,1-1.51.15l-2.92.16-5.84.22-23.37.44-46.75.58-46.75.06H557.4Z"/><path d="M698.74,279q3.59,17.82,7,35.69v.15l-4.81,28.21-5,28.18c-3.3,18.79-6.81,37.54-10.41,56.27,3-18.84,6-37.67,9.33-56.46l4.91-28.19,5-28.16v.16Q701.69,297,698.74,279Z"/><path d="M569.77,280.68q-4.5,23.42-9.3,46.76v-.09q-.43,25.5-1.07,51l-.71,25.51-.89,25.5.18-25.52.36-25.51q.42-25.51,1.09-51v-.1Q564.46,303.92,569.77,280.68Z"/><path d="M744.61,267.58c1.66,5.07,3.14,10.18,4.64,15.28s2.89,10.24,4.19,15.4l0,.14,0,.13c-.85,3.75-1.67,7.5-2.59,11.23S749,317.22,748,320.93c.61-3.8,1.3-7.58,2-11.35s1.51-7.53,2.29-11.29v.27c-1.46-5.12-2.72-10.29-4.08-15.43S745.72,272.79,744.61,267.58Z"/><polygon points="530.13 372.19 554.26 370.48 578.41 368.96 626.71 365.93 675.03 363.3 699.19 361.99 723.37 360.87 699.23 362.58 675.08 364.1 626.78 367.13 578.46 369.75 554.3 371.06 530.13 372.19"/><path d="M668.25,285.94c.46,2,.84,3.95,1.26,5.93l-.32-.26c3.77-.41,7.55-.85,11.33-1.17s7.56-.69,11.35-.94l-.5.66-1.1-5.47.52.39c-4.19.22-8.38.45-12.59.51,4.16-.6,8.34-1,12.51-1.48l.41,0,.1.42,1.23,5.44.14.6-.63.07c-3.78.37-7.57.66-11.35.92s-7.58.48-11.37.69l-.29,0,0-.27C668.7,290,668.43,288,668.25,285.94Z"/><path d="M53.86,363.38c-1.49,7.84-3.43,15.56-5.31,23.3l-.75,2.89-.18.72-.09.36c0,.17,0,0-.14,0,0,.43.06,1,.08,1.48.15,2,.34,4,.44,6.06.24,4.05.45,8.09.52,12.08-.57-4-1-7.84-1.37-11.73-.22-1.93-.35-3.9-.52-5.85l-.13-1.5a1.83,1.83,0,0,1,0-.76l.09-.37.17-.73.7-2.9C49.41,378.68,51.41,371,53.86,363.38Z"/><path d="M350.78,365c1.58,4,3,8,4.4,12s2.74,8.05,4,12.13l0,.09v.08c0,3-.07,6.06-.2,9.09s-.24,6.06-.46,9.09c-.18-3-.29-6.06-.35-9.09s-.1-6.06-.11-9.09l0,.17c-1.39-4-2.58-8.11-3.87-12.16S351.82,369.15,350.78,365Z"/><path d="M27.92,394.72l22.37,22.49-.13-.06,80.41,3.13c13.41.5,26.81,1.13,40.21,1.53L211,422,372,423.22h0l32.73-7.73L372,423.62H372l-161-.49-40.23-.31c-13.41-.45-26.81-1.14-40.21-1.69l-80.4-3.61h-.08l0,0Z"/></g><path d="M590.35,277.74c2.64,2.73,107.48-2.86,109.87-3.11s42.5-7.73,44.37-9.58-63.41-49.43-69-51.85-66.24-6.73-74.62-3.4C594.45,212.41,587.31,274.61,590.35,277.74Z" fill="#2f2e41"/><path d="M597.17,274.9c2.42,2.49,98.21-2.61,100.39-2.84s38.83-7.06,40.54-8.75-57.94-45.17-63-47.38-60.52-6.15-68.17-3.1C600.92,215.21,594.4,272,597.17,274.9Z" fill="#e6e7e8"/><g opacity="0.1"><path d="M664,214.16,597.46,254.6c1.21-12,3.42-26.36,5.89-34.76l13.29-8.07C629.44,211.44,650.89,212.74,664,214.16Z" fill="#fff"/><path d="M715.79,244.8l-47.37,28.78c-8.63.41-18.27.83-27.62,1.18l63.45-38.54C708.13,239.06,712.06,242,715.79,244.8Z" fill="#fff"/><path d="M735.11,260l-11.63,7.07c-2.77.59-5.7,1.19-8.56,1.76L732.75,258C733.64,258.76,734.44,259.43,735.11,260Z" fill="#fff"/></g><path d="M670.56,215c1.87.3,23.23,56.36,22.82,57.46s4.28.21,3.88-.07S673.83,218,674.53,215.74C674.9,214.53,670.56,215,670.56,215Z" fill="#2f2e41"/><path d="M217,278.88c2.65.05,250.27,4.55,256.74,4.59s95.84-3.79,96.94-4.38,10.21-65.42,7.59-70.72c-.72-1.45-120.69-8.31-135.42-8.39S307.35,204.5,301,205.57,212.59,278.79,217,278.88Z" fill="#2f2e41"/><path d="M224.72,275.79c2.49,0,235.17,4.28,241.25,4.32s92.55-3.55,93.58-4.1,7.17-57.91,4.7-62.89c-.67-1.36-115.89-7.82-129.73-7.9s-127.32,4.25-133.31,5.26S220.59,275.71,224.72,275.79Z" fill="#e6e7e8"/><path d="M401.13,206.11,284.65,276.87c-21.41-.37-39.35-.71-49.87-.9l111.6-67.79C364.27,207.45,384.45,206.69,401.13,206.11Zm74.91,1-117.1,71.13,24.94.44,115.66-70.26C491.57,208,483.58,207.51,476,207.1ZM521.62,278c10.71-.46,20.76-.93,27.82-1.3l11.22-6.82c.55-4.21,1.25-10.21,1.9-16.74Zm13.09-67.4-113.2,68.76,5.5.09,112.8-68.51Zm-212.08-1.37h0l-79.44,48.25c-4.37,3.89-8.27,7.44-11.36,10.36l96.94-58.88C326.62,209,324.57,209.13,322.63,209.21Z" fill="#fff" opacity="0.1"/><path d="M314.54,344.16c-3.47,3.44,2.52,25,7.82,26.58S364,367.52,368,366.48s44.92-13,48.39-16.72,6.82-34.19,3.12-36.34-65.09,13.44-71.73,15.27S317.48,341.26,314.54,344.16Z" fill="#fff"/><path d="M38.19,353.67c1.4,2.77,11.27,13.07,13.26,14.49s13.91,3.49,15.3,2.7,9.06-17.26,8.87-20.05-15.73-33.12-18.53-32.54-18,9.85-18.78,12.83S36.67,350.66,38.19,353.67Z" fill="#fff"/><path d="M39.09,352.71c-.15,2,5.08,8.16,5.72,8.93-3-3.17-5.9-6.56-6.61-8-1.54-3-.7-19.59.13-22.55s16-12.26,18.76-12.85c-3,1.33-15.14,11.12-15.8,13.56S39.25,350.58,39.09,352.71Z" fill="#dcdcdc"/><path d="M81.19,352.23c3.5-1.19,75.44-3,89.57-2.89s107.06,2.78,113.41,5-8.18,40-13.77,42.71-95.18,9.43-101.35,9.4-76-10.29-80.18-13.1S75.4,354.19,81.19,352.23Z" fill="#2f2e41"/><path d="M281,377.62c-.29.76-.58,1.52-.89,2.29L81.94,375.23c-.21-.77-.37-1.56-.54-2.35Z" fill="#686175" data-primary="true"/><path d="M90.27,438.46l187.27,1c4,0-16.26-12.23-19.45-12.44s-150-.83-153-.84S86.88,438.44,90.27,438.46Z" fill="#2f2e41"/><path d="M42.88,430.17c2,.35,22.82.86,26.27.15s11.51-18.85,11-21.58-15.93-12-17.91-12.63-16-1.48-17.51-.1S41,429.86,42.88,430.17Z" fill="#2f2e41"/><path d="M312.34,407.23c-2.5,3.21,14.47,22.71,21,25.13s46.35,2.71,47.75,2.32,1.64-20.36.86-23.41S373.76,397,372.11,396s-37.36,1.85-42.21,3.09S313.48,405.78,312.34,407.23Z" fill="#2f2e41"/><path d="M606.28,271.67l-1-3.53s13.14-13.94,16.89-15.64,26.72,2.74,28,4.77.7,10.88.38,12.44-20.8,4.93-24.23,5.07S606.28,271.67,606.28,271.67Z" fill="#686175" data-primary="true"/><path d="M605.27,268.14l1,3.53s-8.74,6.52-9.06,6.9.2,2.26.2,2.26l-8.81-.05.07-12.73a21.3,21.3,0,0,0,4.1,1.78C594.05,270.05,605.27,268.14,605.27,268.14Z" fill="#686175" data-primary="true"/><path d="M549,319.54s0,74.48,38.07,98.19L578.88,337l-5.55-15.78s-2.78-2.95-10.72,0C562.61,321.19,553.8,318.87,549,319.54Z" fill="#f48225" data-secondary="true"/><path d="M532.05,390.29s-18.48,26.17-30,33.37c0,0-20.89,7.44-18.25,16.57l4.08-1.92,1.44-3.37a15.26,15.26,0,0,0,8.66,1.87l5.51-1.87,12.36-1.41,38.44-32S554.43,397.15,532.05,390.29Z" fill="#f9b499"/><path d="M639.91,444s3.85.21,8.85-5.73c0,0,12.91-1.67,19.16-7.29,0,0-22.39-3.54-39.58-13.85Z" fill="#2f2e41"/><path d="M639.91,444s3.85.21,8.85-5.73c0,0,12.44-1.32,18.69-6.95,0,0-21.92-3.88-39.11-14.19Z" opacity="0.4"/><path d="M663.65,433.35l-17.81,5.32s12.5,6.87,16.56,18.74l1.88-1.56s.61-3.92,1.92-5.83a1.17,1.17,0,0,0-.49-1.73C662.5,446.87,657,442.93,663.65,433.35Z" fill="#f9b499"/><path d="M689.27,426.79l13.13,2.82A59.09,59.09,0,0,1,699.59,448a71.37,71.37,0,0,0-1.06,16.61,8.61,8.61,0,0,1-.3,3.07c-1.45,5-7.59,18.25-31.77,14.69,0,0-6-8.08,11.64-9a.46.46,0,0,0,.28-.8c-2.1-1.81-7.24-6.55-8.48-10.5,0,0-3.75-5-7.5-4.69l0,0a5.77,5.77,0,0,0,2-3.58,7.87,7.87,0,0,1,1.41-3.72,1.15,1.15,0,0,0-.45-1.77c-3.22-1.39-8.53-5.32-1.75-15l.11-2.7S678.86,433.88,689.27,426.79Z" fill="#f48225" data-secondary="true"/><path d="M702.4,429.61s4.06-1.05,4.48.83l-2.3,17.39a5.53,5.53,0,0,1-1,2.56A14.4,14.4,0,0,0,701,461.68s3,26.75-33.65,24.49a2,2,0,0,1-1-3.71l.07,0s28.31,5.83,32.07-17.76A58.9,58.9,0,0,1,699.59,448S703.13,436.06,702.4,429.61Z" fill="#2f2e41"/><path d="M656.78,463.66s5.94-.62,7.5-2.5a41.3,41.3,0,0,0-18.44-22.49L639.91,444l4.06,7.5-4.06,2.81L654.3,454a3.1,3.1,0,0,1,2.64,2.43Z" fill="#2f2e41"/><path d="M656.78,463.66s5.94-.62,7.5-2.5a41.3,41.3,0,0,0-18.44-22.49L639.91,444l4.06,7.5-4.06,2.81L654.3,454a3.1,3.1,0,0,1,2.64,2.43Z" opacity="0.2"/><path d="M587.1,417.73l-33.75,48.43s-12.81,13.44.32,24.69c0,0,8.75,8.43,33.43-3.75,0,0,11.25-7.5,24.06-7.5,0,0,10.31-9.06,1.56-23.44,0,0-9.91-8.23-18-24.79Z" fill="#2f2e41"/><path d="M587.1,417.73l-33.75,48.43s-12.81,13.44.32,24.69c0,0,8.75,8.43,33.43-3.75,0,0,11.25-7.5,24.06-7.5,0,0,10.31-9.06,1.56-23.44,0,0-9.91-8.23-18-24.79Z" opacity="0.2"/><ellipse cx="529.43" cy="323.59" rx="25.62" ry="15.16" fill="#f9b499"/><path d="M558.82,293.92l5.65,1.13s-.08,12.7,1.8,21l-3.13,6.25s-4.72-2.48-8.08,1.26a9.4,9.4,0,0,0-1.91-5.43s2.32-1.13.76-3.94c0,0-1.91-3.14-7.33-1.89,0,0,.16-2.79,4.49-3.39a8.91,8.91,0,0,0,4.07-1.7C558.05,305.08,562,300.64,558.82,293.92Z" fill="#f7a88f"/><path d="M519,324.62a5.45,5.45,0,0,0-4.39.14c-6.54,3.16-25.6,10.43-34-7,0,0-5.84-12.7,10-18.12,0,0-1.46-26.26,26.64-27.81a46.31,46.31,0,0,1,34.38,13,35.26,35.26,0,0,1,7.15,9.08s4.57,7.4-3.68,13.32a10.27,10.27,0,0,1-4.07,1.7s-4.17.89-4.49,3.39c0,0-5,2.08-5.49,7.21a4.13,4.13,0,0,1-1.45,2.74l-1.53,1.29a1.58,1.58,0,0,1-1.92.09c-1.63-1.12-5.28-2.76-9.71.75C526.48,324.41,523.76,326.49,519,324.62Z" fill="#2f2e41"/><path d="M519,324.62a5.45,5.45,0,0,0-4.39.14c-6.54,3.16-25.6,10.43-34-7,0,0-5.84-12.7,10-18.12,0,0-1.46-26.26,26.64-27.81a46.31,46.31,0,0,1,34.38,13,35.26,35.26,0,0,1,7.15,9.08s4.57,7.4-3.68,13.32a10.27,10.27,0,0,1-4.07,1.7s-4.17.89-4.49,3.39c0,0-5,2.08-5.49,7.21a4.13,4.13,0,0,1-1.45,2.74l-1.53,1.29a1.58,1.58,0,0,1-1.92.09c-1.63-1.12-5.28-2.76-9.71.75C526.48,324.41,523.76,326.49,519,324.62Z" opacity="0.2"/><path d="M558,292.75s5.31-.63,8.44-2.81c0,0,7.17-6.64,19.79-2.78a25.87,25.87,0,0,0,7,1.15c6.35.15,19.7,1.62,29.66,10.57a40.54,40.54,0,0,0,7.1,5c12.92,7.3,50.46,31,67.39,67.89,0,0,4.57,6.35,6,11.76a3.85,3.85,0,0,1-2.07,4.44,60,60,0,0,0-9.64,6.19l-24.16,21.46s-11.25,8.75-19,8.75c0,0-9-14.17-6-28.33,0,0,8.75-30-26.87-32.91,0,0,9.83-15.41,11.51-28.12A19.9,19.9,0,0,0,625,323.33c-3.45-6.72-12-18.88-30.65-26.42,0,0-9-3.54-14.79,2.3,0,0,.37-10.4-15.13-4.16l-5.65-1.13Z" fill="#f48225" data-secondary="true"/><path d="M686.77,398.36s12.29,11.9,18.44,0c0,0,5.25-10.24-1.83-14.8,0,0,.59,1.91-2.85,4.15a62,62,0,0,0-5.56,3.6A80,80,0,0,0,686.77,398.36Z" fill="#fff"/><path d="M664.28,485.22c-6.56,5-35,12.19-35,12.19-21.87,5.31-38.43.31-38.43.31-4.55-4.13,6.07-9.9,13.79-13.34a18.89,18.89,0,0,0,10.58-22.49,23.33,23.33,0,0,0-2.5-5.73l16.08,3.75a5.91,5.91,0,0,0,4.87-1l6.24-4.62L654.3,454a2.6,2.6,0,0,1,2.64,2.43l.25,3.89a19.81,19.81,0,0,0,1.45,6.2A94.27,94.27,0,0,1,664.28,485.22Z" fill="#f48225" data-secondary="true"/><path d="M615.22,461.89l-24.71,14.76,22.21-20.49A25.84,25.84,0,0,1,615.22,461.89Z" opacity="0.2"/><path d="M662.53,493.12l-7.83,2.82h-3.33l-18,5c-12.3,4.32-41.24,2-41.24,2-4.32-.67-1.32-5.21-1.32-5.21s16.56,5,38.43-.31c0,0,28.44-7.19,35-12.19l.85,2.28A4.36,4.36,0,0,1,662.53,493.12Z" fill="#2f2e41"/><path d="M554.65,399.53l8.91-10.22c-5.64-14.29-9.38-27.82-9.38-27.82-3.75.08-13.76,11-13.93,14a3.48,3.48,0,0,1-1.08,2.27,4.85,4.85,0,0,0-1.46,3.58,2.78,2.78,0,0,1-.73,1.85l-5.68,6.32a.81.81,0,0,0,.39,1.32c4.18,1.1,17.4,4.94,22.46,10.57a.08.08,0,0,0,.14-.07C554.16,400.73,554,399.62,554.65,399.53Z" fill="#f48225" data-secondary="true"/><path d="M554.55,401.37s-18.93,21.79-34.2,30.68a11.55,11.55,0,0,1-4.5,1.48l-12.36,1.41-9.85,3.13,2.44,4.44,7.17-2.76s-6.49,7-13.69,10.8l-9.76-.78a1.26,1.26,0,0,0-1.2,1.87c1.59,2.8,4.91,7.41,9.28,7.07,0,0,12.24-1,21.85-7.92,0,0,7.11-3.47,11.6-4.07a15.77,15.77,0,0,0,5.52-1.75c4-2.19,10.57-6.19,15.29-10.75,0,0,28.44-21,33.48-27.26C575.62,407,565.74,410.65,554.55,401.37Z" fill="#f9b499"/><path d="M496.28,443.15c0,4.09-3.6,7.4-8,7.4a8.27,8.27,0,0,1-6.44-3,7,7,0,0,1-1.6-4.26v-.18c0-4.09,3.6-7.4,8-7.4S496.28,439.06,496.28,443.15Z" fill="#6d6e71"/><circle cx="488.25" cy="442.89" r="4.8" opacity="0.2"/><path d="M482.35,447.78a49.11,49.11,0,0,1-9.51,1.35,1.1,1.1,0,0,1-1.11-1l-.09-1.42a1.1,1.1,0,0,1,1.25-1.16,11.21,11.21,0,0,0,7.31-1.4A11.59,11.59,0,0,0,482.35,447.78Z" fill="#6d6e71"/><ellipse cx="549.03" cy="315.77" rx="5.65" ry="3.77" fill="#f9b499"/><path d="M563.14,322.33s-.89,5.88,2.94,8.41a5.14,5.14,0,0,1,2.35,5.16,8.28,8.28,0,0,1-.91,2.47s-1.82,7.27,3.38,6.94A1.16,1.16,0,0,1,572,347c-1,2-2.13,4.82-1.75,6.59,0,0-5.21,3.75-4.38,7.71,0,0,6.88-6.67,22.71-3.12l27.08,5s10.53-16.87,11.51-28.12c0,0,.84-7.17-2.11-11.71,0,0-4.19-11.21-20-21.21,0,0-15.83-11.87-25.41-2.91,0,0,1-10.75-15.13-4.16a91.89,91.89,0,0,0,1.8,21Z" fill="#f48225" data-secondary="true"/><path d="M565.85,361.28s-10.88,9.82-1.61,24.53a26.33,26.33,0,0,0,6.75,7.13c3.59,2.63,10.58,9.26,15.49,23.54,0,0,10,25.94,26.24,39.68l18.75,4.38,12.5-9.06-15.63-34.37s42.81,26.56,64.37,7.18c0,0,14.06-10.93,11.87-25,0,0-4.37,10.31-17.81-.94l-19.26,17.29s-10,8.23-19,8.75c0,0-8.75-13.75-6-28.33,0,0,8.23-30.94-26.87-32.91l-27.08-5S573.66,354.2,565.85,361.28Z" fill="#2f2e41"/><path d="M565.85,361.28s-10.88,9.82-1.61,24.53a26.33,26.33,0,0,0,6.75,7.13c3.59,2.63,10.58,9.26,15.49,23.54,0,0,10,25.94,26.24,39.68l18.75,4.38,12.5-9.06-15.63-34.37s42.81,26.56,64.37,7.18c0,0,14.06-10.93,11.87-25,0,0-4.37,10.31-17.81-.94l-19.26,17.29s-10,8.23-19,8.75c0,0-8.75-13.75-6-28.33,0,0,8.23-30.94-26.87-32.91l-27.08-5S573.66,354.2,565.85,361.28Z" opacity="0.2"/><path d="M571,392.94a38.69,38.69,0,0,1,10,11.55c-11.83,7.71-22.83.1-26.3-2.88a1.55,1.55,0,0,1-.14-2.2l10.76-12.09A20.89,20.89,0,0,0,571,392.94Z" fill="#f48225" data-secondary="true"/><path d="M554.76,399.76l8.92-10.23c-5.65-14.29-9.39-27.82-9.39-27.82-3.75.08-13.75,11.05-13.93,14a3.46,3.46,0,0,1-1.08,2.26,4.87,4.87,0,0,0-1.46,3.58,2.75,2.75,0,0,1-.72,1.85l-5.69,6.33a.8.8,0,0,0,.39,1.31c4.18,1.1,17.4,4.94,22.46,10.57a.08.08,0,0,0,.14-.06C554.27,401,554.11,399.84,554.76,399.76Z" opacity="0.1"/><path d="M563.26,322.55s-.89,5.88,2.93,8.42a5.14,5.14,0,0,1,2.35,5.16,8.23,8.23,0,0,1-.91,2.46s-1.82,7.27,3.38,7a1.15,1.15,0,0,1,1.08,1.67c-1,2-2.13,4.81-1.75,6.59,0,0-5.21,3.75-4.38,7.71,0,0,6.88-6.67,22.71-3.13l27.08,5s10.53-16.86,11.51-28.12c0,0,.84-7.17-2.11-11.71,0,0-4.19-11.2-20-21.2,0,0-15.83-11.88-25.42-2.92,0,0,1-10.75-15.12-4.16a91.53,91.53,0,0,0,1.79,21Z" opacity="0.1"/><path d="M571.11,393.17a38.61,38.61,0,0,1,10,11.55c-11.83,7.71-22.82.1-26.29-2.88a1.54,1.54,0,0,1-.14-2.2l10.75-12.1A21,21,0,0,0,571.11,393.17Z" opacity="0.1"/></svg>