<svg xmlns="http://www.w3.org/2000/svg" xmlns:xlink="http://www.w3.org/1999/xlink" width="865.76" height="682.89" viewBox="0 0 865.76 682.89"><defs><linearGradient id="a10eb51e-f45c-4ec8-8b95-c62979704ebc" x1="764.71" y1="406.42" x2="837.78" y2="406.42" gradientUnits="userSpaceOnUse"><stop offset="0" stop-color="#fff" stop-opacity="0"/><stop offset="1" stop-color="#fff"/></linearGradient><linearGradient id="aa581cf2-4cdd-4a4a-8ed1-6a1f4c66a07f" x1="483.32" y1="358.92" x2="471.69" y2="206.44" xlink:href="#a10eb51e-f45c-4ec8-8b95-c62979704ebc"/><linearGradient id="b4348623-cbdb-4a9d-a3f7-88995f220bc3" x1="650.98" y1="346.52" x2="640.44" y2="208.39" xlink:href="#a10eb51e-f45c-4ec8-8b95-c62979704ebc"/></defs><g style="isolation:isolate"><g id="e076a2d3-1a59-44e2-90d3-2e9e882e4168" data-name="Layer 1"><rect width="863.78" height="442.95" fill="#e6e7e8"/><path d="M863.78,211.13v11.18h-3.44V211.13h-2.81v11.18H829.09v8.09H818.58v1.35h-3.5v18H801.36V193.42h-2.12v37.22H784.83V171.51h-7.4V166h-1.66v-.84h-.68v-1.53h-1.24V152.21h-.8l-.44-10h-.35l-.44,10H771v11.44h-1.24v1.53h-.68V166h-1.66v5.49H746.87L735,189.32v14.06h-6.47V216.3h-3.88c-.11.24-.21.47-.33.7v22.9H716.8V229.72l-9.55-5.48V130.39H677.39V96.14h-20v34.25H643.6v63.42H630.94v-6.33H630v56.2h-4.76V205.89H599.69v37.79H595.4v58.24h-1.57v-3.36h-4.32V145.83h-20.9v95H558.1v1.56h-3.5V262.3H531.88v-40H524.6V211.13h-2.82v11.18h-3.43V211.13h-2.82v11.18H487.09v8.09H476.58v1.35h-3.5v18H459.37V193.42h-2.12v37.22H442.83V177.08H401.17L393,189.32v14.06h-6.48V216.3h-3.87c-.11.24-.21.47-.34.7v22.9h-7.52V229.72l-9.56-5.48V130.39H335.4V96.14h-20v34.25H301.6v63.42H289v-6.33h-.9v56.2h-4.76V205.89h-25.6v34.92h-8.57v-95h-20.9v43.85H202.73V199H192.22v1.55h-3.5v20.65h-1V187.48h-.9v6.33H174.13V118.62H120.37V224.24l-9.56,5.48V239.9h-7.52V217c-.13-.23-.23-.46-.34-.7H99.08V203.38H92.6V189.32L80.74,171.51H60.18V166H58.51v-.84h-.68v-1.53H56.59v-.38l-2.82,0v.42H52.53v1.53h-.68V166H50.18v5.49H42.79v59.13H28.38V193.42H26.25v56.32H12.54v-18H9V230.4H3.42V442.49H865.21V211.13Zm-91.53-47.9h-.38V153h.38Zm.75,0h-.38V153H773Z" fill="#a3b4c8" opacity="0.22" style="mix-blend-mode:multiply"/><rect x="0.56" y="441.53" width="861.79" height="239.89" fill="#f2f2f2"/><path d="M651.23,367.61c8.81-11.18,15.52-23.45,21.06-31.74s4.23-11.41,10.36-14.51,9.45-.39,14.51,3.72,47.62,25.74,47.62,25.74l-24.46,35.29Z" fill="#2f2e41"/><path d="M566.79,304.37c-5.91,3.21-11.18,10.42-10.72,17s-1.1,31.21-12.15,56.84-25.49,46.16-24.58,48.92S528,433,540.89,432A259.46,259.46,0,0,1,570,432s5.47-57.54,5.61-76.11S572.4,301.32,566.79,304.37Z" fill="#2f2e41"/><path d="M370.81,367.05l27-26.84S418.41,353.5,427,354.65c4.22.57,13.66-4.44,13.66-4.44l3.36,35.9H368.64Z" fill="#2f2e41"/><path d="M448,377.12h0a3.74,3.74,0,0,1-4.44-2.9l-7.11-34a3.76,3.76,0,0,1,2.91-4.44h0a3.75,3.75,0,0,1,4.43,2.91l7.11,34A3.75,3.75,0,0,1,448,377.12Z" fill="#2f2e41"/><g opacity="0.2"><path d="M370.81,367.05l27-26.84S418.41,353.5,427,354.65c4.22.57,13.66-4.44,13.66-4.44l3.36,35.9H368.64Z"/><path d="M448,377.12h0a3.74,3.74,0,0,1-4.44-2.9l-7.11-34a3.76,3.76,0,0,1,2.91-4.44h0a3.75,3.75,0,0,1,4.43,2.91l7.11,34A3.75,3.75,0,0,1,448,377.12Z"/></g><path d="M504.89,398.33s-35,5.33-48.36,7.41-15.43,11.48-16.62,14.78c0,0,49.49,10.56,40.81,9.44,0,0,25.66,6.44,39.34,6.2S540.89,432,540.89,432Z" fill="#003d7d"/><path d="M544.12,321.36a112.63,112.63,0,0,1,5.76,10.51c.87,1.95.74,2.25,2.82,3l-22.28,12.54s3.2-7.06,3.35-10.65c.14-3.22-1.5-11.38-3.56-14.55Z" fill="#f9b499"/><path d="M530.42,347.45l11.06-6.23A89.35,89.35,0,0,0,546,324.57c-1.08-1.87-1.91-3.21-1.91-3.21l-13.91.89c2.06,3.17,3.7,11.33,3.56,14.55C533.62,340.39,530.42,347.45,530.42,347.45Z" fill="#f7a88f"/><path d="M525.13,335c1.57,2.4,8,.3,10.85-1.11,6.65-3.36,11.77-10.61,10.09-19.62-.6-3.22-3-6.68-5.31-9-2.77-2.73-7.77-3-10.83-2.23a10.72,10.72,0,0,0-4.75,3.3c-1.12,1.23-2.95,2.89-3.39,4.62A28.48,28.48,0,0,0,525.13,335Z" fill="#f9b499"/><path d="M549.63,304.68s.19-1-1.31-3.87c-2.52-4.75-13.61-4.77-21.64-3.23-2.68.51-5.36-1.56-6.81.1-1.11,1.27-.39,9.42,1.35,11.15,2.91,2.89,11.65.3,15-1.07,2.38-1-.69,2.76-1.17,4.62-.31,1.22,1.34,5.53,1.5,6.37,2.72-.68,1.62-3,3.58-4.68s3.73.86,3.15,2.87a4.36,4.36,0,0,1-3.32,3.42,7.82,7.82,0,0,0,1.25,3.36s5,2.13,6.09,1.06c.79-.81,4.31-7.79,5.2-9.77C554.38,310.77,553.24,307.26,549.63,304.68Z" fill="#2f2e41"/><path d="M550.74,331.31s6,.89,6.59,10.11c.93,13.71-2.33,32.67-4,44.69-3.91,29-12.49,45.93-12.49,45.93s-25.36-4.06-32.63-37.47c0,0,3.67-2.52,8.52-13.91,6.45-15.14,10.32-25,13-38,.6-3,2.83-2.94,6.45-4.16A61.9,61.9,0,0,0,550.74,331.31Z" fill="#686175" data-primary="true"/><path d="M550.74,331.31s6,.89,6.59,10.11c.93,13.71-2.33,32.67-4,44.69-3.91,29-12.49,45.93-12.49,45.93s-25.36-4.06-32.63-37.47c0,0,3.67-2.52,8.52-13.91,6.45-15.14,10.32-25,13-38,.6-3,2.83-2.94,6.45-4.16A61.9,61.9,0,0,0,550.74,331.31Z" fill="#fff" opacity="0.2"/><polygon points="454.15 357.66 449 351.61 444.87 349.22 440.61 350.2 442.11 353.38 454.15 357.66" fill="#f9b499"/><path d="M459.9,358.08a71.64,71.64,0,0,1-8-2.2c-1.85-.84-6.31-1.48-8-2.63a14.25,14.25,0,0,1-3.36-3l-1.08,2.32.3,1.24-.27,3.46.89,3.86a3.38,3.38,0,0,0-.17,2.39l3.68,2.27s7,.21,8.7.16a66.72,66.72,0,0,1,7.85,1.14Z" fill="#f9b499"/><path d="M537.67,340.18c-11,2.58-27.28,11.63-42.69,14.79-9.51,1.94-35.08,3.11-35.08,3.11L458,368.9s33.92,3.28,45.92,1.61c15.15-2.11,34-2.77,43.38-11.13C551.26,355.81,555.55,336,537.67,340.18Z" fill="#686175" data-primary="true"/><path d="M453.08,357.39c1.72-1.76-2.76-5.47-2.76-5.47l-.16,2.18A13.16,13.16,0,0,1,447,356Z" fill="#f9b499"/><path d="M804.07,365.25S753.2,347,749.77,346.16s-74.39-60.93-92.42-66.08-167.69-1.71-191.73,7.73-95.29,65.57-95.29,65.57c-74.69-2.58-139,24-139,24l-27.47,22.32-6.71,21.64a56.33,56.33,0,0,0,9.41,51.39l3.31,4.24,43.45.16c-.43-5.19-.67-9.75-.67-12.7,0-36.69,17.57-66.44,54.27-66.44a66.44,66.44,0,0,1,66.44,66.44c0,3.09.46,7.9.93,13.22l256.12,1,1.08,0c-.51-5.81-.79-11-.79-14.2A66.44,66.44,0,0,1,697.09,398c35.29,0,48.29,36.93,50.45,71.68l58.81-9.87,9.44-6Zm-419-6.79,77.45-58.09a54.19,54.19,0,0,1,25.33-7.49c18.32-.77,74.56-3.36,74.56-3.36l4.42,64.78ZM698.41,352l-120.63,2.1L570,289.52s19.65-.38,20.66-.42c24.78-1.07,64,.42,75.14,10.53l52.92,43Z" fill="#f48225" data-secondary="true"/><polygon points="232.83 447.38 253.26 477.16 311.43 477.11 362.51 469.13 404.88 471.82 571.57 464.55 630.36 478.71 692.74 477.07 747.54 469.7 756.99 468.84 815.79 453.82 728.79 382.58 575.83 418.02 275.82 383.85 232.83 447.38" fill="#2f2e41"/><g opacity="0.2"><polygon points="232.83 447.38 253.26 477.16 311.43 477.11 362.51 469.13 404.88 471.82 571.57 464.55 630.36 478.71 692.74 477.07 747.54 469.7 756.99 468.84 815.79 453.82 728.79 382.58 575.83 418.02 275.82 383.85 232.83 447.38"/></g><circle cx="724.15" cy="456.61" r="51.85" transform="translate(-101.97 232.09) rotate(-17.03)" fill="#2f2e41"/><polygon points="725.48 464.58 728.14 463.48 738.62 490.9 737.55 491.34 725.48 464.58" fill="#ccc"/><polygon points="722.86 450.76 720.19 451.87 709.72 424.44 710.78 424 722.86 450.76" fill="#ccc"/><polygon points="731.08 456.36 729.97 453.69 757.4 443.22 757.84 444.29 731.08 456.36" fill="#ccc"/><polygon points="717.26 458.99 718.37 461.65 690.94 472.12 690.5 471.06 717.26 458.99" fill="#ccc"/><polygon points="729.99 461.63 731.09 458.96 757.88 470.95 757.44 472.02 729.99 461.63" fill="#ccc"/><polygon points="718.35 453.71 717.25 456.38 690.46 444.39 690.9 443.33 718.35 453.71" fill="#ccc"/><polygon points="728.13 451.85 725.46 450.75 737.45 423.96 738.51 424.4 728.13 451.85" fill="#ccc"/><polygon points="720.21 463.49 722.88 464.59 710.89 491.38 709.83 490.94 720.21 463.49" fill="#ccc"/><polygon points="728.02 463.56 730.06 461.52 750.19 482.88 749.38 483.7 728.02 463.56" fill="#ccc"/><polygon points="720.32 451.78 718.28 453.82 698.14 432.46 698.96 431.65 720.32 451.78" fill="#ccc"/><polygon points="730.06 453.82 728.02 451.78 749.38 431.65 750.19 432.46 730.06 453.82" fill="#ccc"/><polygon points="718.28 461.52 720.32 463.56 698.96 483.7 698.14 482.88 718.28 461.52" fill="#ccc"/><polygon points="731.06 459.11 731.06 456.23 760.4 457.1 760.4 458.25 731.06 459.11" fill="#ccc"/><polygon points="717.28 456.23 717.28 459.11 687.94 458.25 687.94 457.1 717.28 456.23" fill="#ccc"/><polygon points="725.61 450.78 722.73 450.78 723.59 421.44 724.75 421.44 725.61 450.78" fill="#ccc"/><polygon points="722.73 464.56 725.61 464.56 724.75 493.9 723.59 493.9 722.73 464.56" fill="#ccc"/><path d="M724.14,468.66h0a1,1,0,0,1-1-1h0a1,1,0,0,1,1-1h0a1,1,0,0,1,0,2Zm5.5-1.46h0a1,1,0,0,1-.85-.49h0a1,1,0,0,1,.36-1.35h0a1,1,0,0,1,1.35.36h0a1,1,0,0,1-.37,1.34A.87.87,0,0,1,729.64,467.2Zm-11,0h0a.87.87,0,0,1-.49-.14h0a1,1,0,0,1-.37-1.34h0a1,1,0,0,1,1.35-.36h0a1,1,0,0,1,.35,1.35A1,1,0,0,1,718.64,467.19Zm15-4h0a1,1,0,0,1-.49-.14h0a1,1,0,0,1-.35-1.34h0a1,1,0,0,1,1.33-.36h0a1,1,0,0,1,.37,1.34h0A1,1,0,0,1,733.67,463.18Zm-19,0h0a1,1,0,0,1-.86-.49h0a1,1,0,0,1,.35-1.35h0a1,1,0,0,1,1.35.36h0a1,1,0,0,1-.36,1.34A.86.86,0,0,1,714.62,463.16Zm20.54-5.48h0a1,1,0,0,1-1-1h0a1,1,0,0,1,1-1h0a1,1,0,0,1,0,2Zm-22,0h0a1,1,0,0,1-1-1h0v0h0v0h0a1,1,0,0,1,1-1h0a1,1,0,0,1,1,1h0v.07A1,1,0,0,1,713.14,457.65Zm20.56-5.48h0a1,1,0,0,1-.85-.49h0a1,1,0,0,1,.36-1.34h0a1,1,0,0,1,1.34.37h0a1,1,0,0,1-.36,1.34A1.05,1.05,0,0,1,733.7,452.17Zm-19.06-.06h0a1.17,1.17,0,0,1-.51-.13h0a1,1,0,0,1-.35-1.35h0a1,1,0,0,1,1.35-.35h0a1,1,0,0,1-.49,1.83Zm15-4h0a.9.9,0,0,1-.5-.14h0a1,1,0,0,1-.35-1.33h0a1,1,0,0,1,1.34-.36h0a1,1,0,0,1-.49,1.83Zm-11,0h0a1,1,0,0,1-.86-.49h0a1,1,0,0,1,.37-1.35h0a1,1,0,0,1,1.33.37h0a1,1,0,0,1-.35,1.33A1,1,0,0,1,718.68,448.1Zm5.49-1.45h0a1,1,0,0,1-1-1h0a1,1,0,0,1,1-1h0a1,1,0,0,1,1,1A1,1,0,0,1,724.17,446.65Z" fill="#4a4a4a"/><path d="M705.83,456.67a18.32,18.32,0,1,0,18.32-18.32A18.32,18.32,0,0,0,705.83,456.67Z" fill="#ccc"/><circle cx="724.15" cy="456.67" r="14.65" transform="translate(-110.82 645.8) rotate(-45)" fill="#2f2e41"/><circle cx="724.15" cy="456.67" r="12.75" transform="translate(112.71 1055.9) rotate(-76.66)" fill="#ccc"/><path d="M719.94,456.67a4.21,4.21,0,1,0,4.21-4.21A4.2,4.2,0,0,0,719.94,456.67Z" fill="#2f2e41"/><path d="M724.15,418.23a38.44,38.44,0,1,0,38.44,38.44A38.44,38.44,0,0,0,724.15,418.23Zm0,73.67a35.23,35.23,0,1,1,35.23-35.23A35.23,35.23,0,0,1,724.15,491.9Z" fill="#ccc"/><circle cx="316.79" cy="456.61" r="51.85" transform="translate(-119.83 112.79) rotate(-17.03)" fill="#2f2e41"/><polygon points="318.13 464.58 320.79 463.48 331.26 490.9 330.19 491.34 318.13 464.58" fill="#ccc"/><polygon points="315.5 450.76 312.83 451.87 302.36 424.44 303.43 424 315.5 450.76" fill="#ccc"/><polygon points="323.72 456.36 322.62 453.69 350.04 443.22 350.48 444.29 323.72 456.36" fill="#ccc"/><polygon points="309.9 458.99 311 461.65 283.58 472.12 283.14 471.06 309.9 458.99" fill="#ccc"/><polygon points="322.63 461.63 323.73 458.96 350.52 470.95 350.08 472.02 322.63 461.63" fill="#ccc"/><polygon points="310.99 453.71 309.89 456.38 283.1 444.39 283.54 443.33 310.99 453.71" fill="#ccc"/><polygon points="320.77 451.85 318.1 450.75 330.09 423.96 331.15 424.4 320.77 451.85" fill="#ccc"/><polygon points="312.85 463.49 315.52 464.59 303.53 491.38 302.46 490.94 312.85 463.49" fill="#ccc"/><polygon points="320.66 463.56 322.7 461.52 342.83 482.88 342.02 483.7 320.66 463.56" fill="#ccc"/><polygon points="312.96 451.78 310.92 453.82 290.79 432.46 291.6 431.65 312.96 451.78" fill="#ccc"/><polygon points="322.7 453.82 320.66 451.78 342.02 431.65 342.83 432.46 322.7 453.82" fill="#ccc"/><polygon points="310.92 461.52 312.96 463.56 291.6 483.7 290.79 482.88 310.92 461.52" fill="#ccc"/><polygon points="323.7 459.11 323.7 456.23 353.04 457.1 353.04 458.25 323.7 459.11" fill="#ccc"/><polygon points="309.92 456.23 309.92 459.11 280.58 458.25 280.58 457.1 309.92 456.23" fill="#ccc"/><polygon points="318.25 450.78 315.37 450.78 316.23 421.44 317.38 421.44 318.25 450.78" fill="#ccc"/><polygon points="315.37 464.56 318.25 464.56 317.38 493.9 316.23 493.9 315.37 464.56" fill="#ccc"/><path d="M316.78,468.66h0a1,1,0,0,1-1-1h0a1,1,0,0,1,1-1h0a1,1,0,0,1,0,2Zm5.5-1.46h0a1,1,0,0,1-.85-.49h0a1,1,0,0,1,.36-1.35h0a1,1,0,0,1,1.35.36h0a1,1,0,0,1-.37,1.34A.87.87,0,0,1,322.28,467.2Zm-11,0h0a.87.87,0,0,1-.49-.14h0a1,1,0,0,1-.37-1.34h0a1,1,0,0,1,1.35-.36h0a1,1,0,0,1,.35,1.35A1,1,0,0,1,311.28,467.19Zm15-4h0a1,1,0,0,1-.49-.14h0a1,1,0,0,1-.35-1.34h0a1,1,0,0,1,1.34-.36h0a1,1,0,0,1,.36,1.34h0A1,1,0,0,1,326.31,463.18Zm-19.05,0h0a1,1,0,0,1-.86-.49h0a1,1,0,0,1,.35-1.35h0a1,1,0,0,1,1.35.36h0a1,1,0,0,1-.36,1.34A.86.86,0,0,1,307.26,463.16Zm20.54-5.48h0a1,1,0,0,1-1-1h0a1,1,0,0,1,1-1h0a1,1,0,0,1,0,2Zm-22,0h0a1,1,0,0,1-1-1h0v0h0v0h0a1,1,0,0,1,1-1h0a1,1,0,0,1,1,1h0v.07A1,1,0,0,1,305.78,457.65Zm20.56-5.48h0a1,1,0,0,1-.85-.49h0a1,1,0,0,1,.36-1.34h0a1,1,0,0,1,1.34.37h0a1,1,0,0,1-.36,1.34A1.05,1.05,0,0,1,326.34,452.17Zm-19.06-.06h0a1.09,1.09,0,0,1-.5-.13h0a1,1,0,0,1-.36-1.35h0a1,1,0,0,1,1.35-.35h0a1,1,0,0,1-.49,1.83Zm15-4h0a.9.9,0,0,1-.5-.14h0a1,1,0,0,1-.35-1.33h0a1,1,0,0,1,1.34-.36h0a1,1,0,0,1-.49,1.83Zm-11,0h0a1,1,0,0,1-.86-.49h0a1,1,0,0,1,.37-1.35h0a1,1,0,0,1,1.33.37h0a1,1,0,0,1-.35,1.33A1,1,0,0,1,311.32,448.1Zm5.5-1.45h0a1,1,0,0,1-1-1h0a1,1,0,0,1,1-1h0a1,1,0,1,1,0,2Z" fill="#4a4a4a"/><path d="M298.47,456.67a18.32,18.32,0,1,0,18.32-18.32A18.32,18.32,0,0,0,298.47,456.67Z" fill="#ccc"/><circle cx="316.79" cy="456.67" r="14.65" transform="translate(-230.13 357.76) rotate(-45)" fill="#2f2e41"/><circle cx="316.79" cy="456.67" r="12.75" transform="translate(-200.66 659.53) rotate(-76.66)" fill="#ccc"/><path d="M312.58,456.67a4.21,4.21,0,1,0,4.21-4.21A4.2,4.2,0,0,0,312.58,456.67Z" fill="#2f2e41"/><path d="M316.79,418.23a38.44,38.44,0,1,0,38.44,38.44A38.44,38.44,0,0,0,316.79,418.23Zm0,73.67A35.23,35.23,0,1,1,352,456.67,35.23,35.23,0,0,1,316.79,491.9Z" fill="#ccc"/><path d="M764.71,398.16s7.44,9.16,25.76,13.74c11.19,2.79,26.37,3,36.48,2.68V404.42c-4.84-.08-14.4-.32-26.18-1.11A298.3,298.3,0,0,1,764.71,398.16Z" fill="url(#a10eb51e-f45c-4ec8-8b95-c62979704ebc)"/><polygon points="568.16 354.89 568.02 352.88 398.61 358.64 398.17 358.97 568.16 354.89" fill="url(#aa581cf2-4cdd-4a4a-8ed1-6a1f4c66a07f)"/><path d="M808.49,349.51l-58.72-3.35-41.89,1.43L594.57,352l-26.55.91-169.41,5.76-21.91.75-6.47-6c-74.64-2.54-139,24-139,24l-27.47,22.32-12,38.72a22.14,22.14,0,0,0,3.7,20.21L209.82,477l43.45.16c-.43-5.19-.67-9.75-.67-12.7,0-36.69,20.28-66.44,57-66.44s63.74,29.75,63.74,66.44c0,3.09.46,7.9.93,13.22l256.12,1,32.44,0c-.51-5.81-.79-11-.79-14.2,0-36.69,21.53-69.47,58.23-69.47,35.29,0,57.38,27.49,57.38,73.85l30.62-5.57a20.2,20.2,0,0,0,15.58-13.6l3.13-9.62V391.58Z" fill="#f48225" data-secondary="true"/><g opacity="0.56" style="mix-blend-mode:multiply"><path d="M205.46,471.42l4.36,5.58,43.45.16c-.16-1.93-.57-11-.67-12.7C236.77,465.2,214,469.42,205.46,471.42Z" fill="#a3b4c8"/><path d="M823.15,430.79q-24.23,5.73-48.32,11.72a117.65,117.65,0,0,1,2.79,26.33l30.62-5.57a20.2,20.2,0,0,0,15.58-13.6l3.13-9.62V429.86C825.68,430.18,824.42,430.49,823.15,430.79Z" fill="#a3b4c8"/><path d="M373.29,463.56c0,.3,0,.6,0,.9,0,3.09.46,7.9.93,13.22l256.12,1,32.44,0c-.35-4.06-1.1-19.7-1.1-19.7S373.31,464.46,373.29,463.56Z" fill="#a3b4c8"/></g><polygon points="698.41 351.95 707.88 347.59 594.57 351.97 594.73 354.05 698.41 351.95" fill="url(#b4348623-cbdb-4a9d-a3f7-88995f220bc3)"/><polygon points="792.18 359.81 794.99 364.34 813.64 372.69 819.88 388.4 826.95 391.58 821.37 361.96 808.49 349.51 792.18 359.81" fill="#fff"/><polygon points="792.18 359.81 794.99 364.34 813.64 372.69 819.88 388.4 826.95 391.58 822.78 369.43 792.18 359.81" fill="#2f2e41"/><polyline points="385.03 358.46 385.03 396.29 423.08 470.13 561.02 470.82 575.83 354.3" fill="none" stroke="#fff" stroke-miterlimit="10" stroke-width="0.85" opacity="0.32"/><path d="M397.48,353.79l-6.77,11.61s.05,4.78,12.12.29c3.28-1.22,1.75-12.22,1.75-12.22Z" fill="#2f2e41"/><path d="M395.07,350.24a4.24,4.24,0,0,0,.75,5.71,19.9,19.9,0,0,0,7.47,4.29c3.87,1,17.9-.48,17.9-.48s1.45-13.07-1-16.94-6-4.91-8.23-4.35A29.59,29.59,0,0,0,395.07,350.24Z" fill="#2f2e41"/><path d="M536,386.11H509.18a4.4,4.4,0,0,1-4.41-4.41h0a4.41,4.41,0,0,1,4.41-4.41H536a4.42,4.42,0,0,1,4.41,4.41h0A4.41,4.41,0,0,1,536,386.11Z" fill="none" stroke="#fff" stroke-miterlimit="10" stroke-width="0.86" opacity="0.32"/><path d="M626.36,386.11H599.51a4.41,4.41,0,0,1-4.41-4.41h0a4.42,4.42,0,0,1,4.41-4.41h26.85a4.42,4.42,0,0,1,4.41,4.41h0A4.41,4.41,0,0,1,626.36,386.11Z" fill="none" stroke="#fff" stroke-miterlimit="10" stroke-width="0.86" opacity="0.32"/><path d="M707.88,347.59s-30.82,35.64-39.49,52.71c-8.19,16.12-15.95,70.54-15.95,70.54l-91.42,0" fill="none" stroke="#fff" stroke-miterlimit="10" stroke-width="0.85" opacity="0.32"/><polygon points="203.81 399.73 213.07 391.43 231.8 385.48 240.74 384.37 225.84 405.41 214.77 408.73 196.69 422.68 203.81 399.73" fill="#fff"/><polygon points="222.85 395.65 225.84 405.41 240.74 384.37 231.8 385.48 213.95 391.15 222.85 395.65" fill="#2f2e41"/><path d="M143.32,406l-.55,1.41s-1.18-.07-1.67,1.47a2.53,2.53,0,0,0-2.51,1.81s-10,1-16.79,8.22a61.27,61.27,0,0,0-19.48,16.11S97.49,439,96,441.37c0,0-7.61,2.79-4.64,12.08,0,0,3.53,28.23,2.23,42.54,0,0-1.3,11,.93,12.26l19,3.53s5.38-36.6,2.6-52.39c0,0,3.16-.74,5.76-5.2,0,0,13.93-4.27,19.69-8.73l11.7-36.6S146,410.26,143.32,406Z" fill="#2f2e41"/><path d="M134.46,438.77a16.51,16.51,0,0,0,.2,3.34,27.06,27.06,0,0,1,.47,6.1,91.8,91.8,0,0,0,.31,12.61,15.66,15.66,0,0,1,.17,3.35c-.14,2.14-.24,5.38.24,6.46,0,0-3.43,10.31,1.49,13.47,0,0,.83,5.67,8,6.78a41.83,41.83,0,0,0,17.83,1.49s19.32.28,35.21,2.88c0,0,12.19,3,16.31.78a2.81,2.81,0,0,1,1.3-.32h2.2a.63.63,0,0,0,.59-.41c.83-2.21,4.52-12.83,1.8-19.25a.64.64,0,0,0-.31-.32c-1.82-.86-14.71-6.68-23.84-4.36a36.23,36.23,0,0,0-11.8-3s-9.75-3.16-18.49-1.3a3.12,3.12,0,0,0-1.55-1s-.42-.45.69-.35c0,0,1.5.19,1.73-1.18a1.85,1.85,0,0,0-.1-.9l-.16-.5a13.16,13.16,0,0,0,4.87-5.05s7.32-10.52,9-15.12c0,0,1.26.28,2.37-4.18,0,0,3.13-2.43,3.62-5.36,0,0,2.37-1.67,2.58-3.9a32,32,0,0,0,7.25-19.79l-15-12.77-30.84,9.48S131.11,428.92,134.46,438.77Z" fill="#2f2e41"/><path d="M132.53,348a6.11,6.11,0,0,1-4.11-2.72s-2.32,1.13-12.08-1.12c0,0-4.31,7.55-4.44,12.6a8.45,8.45,0,0,1-.93,3.79,4,4,0,0,1-2.8,2.38s-6.45,2.5-6.85,2.74a60.75,60.75,0,0,0-10.79,2.16,15.76,15.76,0,0,1-3.72.76l-9.66.79a40.28,40.28,0,0,0-6.72-.71,1.23,1.23,0,0,1-1.05-.55,29.86,29.86,0,0,0-2-2.84,9.42,9.42,0,0,1-1.67-3.12,3,3,0,0,0-1.95-1.95s-5.56-2.52-6.68-5.63a1.36,1.36,0,0,0-.68-.77c-.41-.2-.92-.19-1.23.83,0,0-1.26,3,3.06,6.5,0,0,2.7,2.74,1.49,3.35,0,0-1.53,1.3-6.13.14l-4.74-1.77s.14-1.72-1.81-.74c0,0-1.76,1.53-.32,2.92,0,0-2.47.51-2.42,2.79a9.06,9.06,0,0,0,.32,2.15.94.94,0,0,0,.58.59l4.86,1.72s0,.65-2.32.37a31.1,31.1,0,0,1-6.28-3.08s-1.89-1.73-2.64-.05c0,0-.87,1,2.11,2.89a13.08,13.08,0,0,1,1.35,1,14,14,0,0,0,8.67,3,.7.7,0,0,1,.7.6.65.65,0,0,1-.19.54s-1.55,1.72-6.13,1c0,0-4.33-1.94-4.79-.13-.08.13-.55,1.34,4.58,2.44,0,0,3.7,1.38,5.59.33a9,9,0,0,1,4-.42l4.53-.08s2.82.71,7.35-1.35a3.44,3.44,0,0,0,2.82.13,6.69,6.69,0,0,1,2.77,0,16.74,16.74,0,0,0,4.3-.5,25.07,25.07,0,0,1,5.78.21,17.42,17.42,0,0,0,2.48.35c3.74.27,12.9.68,20.51-1,0,0,8.43-1.18,10-1l1.43,0a5.48,5.48,0,0,0,5.24-4.31s0-.08,0-.12a23.14,23.14,0,0,1,2.5-5.2s7.08-12.47,8.74-18A4.85,4.85,0,0,1,132.53,348ZM51.4,368.9l-1.29-.16L48,368.13l-.29-.22c.64-.13.8-1.15.8-1.15a8.5,8.5,0,0,1,3.21,1.31A1.4,1.4,0,0,1,51.4,368.9Z" fill="#f9b499"/><path d="M190,329.91s1.79,11.2-1.93,26.19a16.86,16.86,0,0,0-.51,4.85c.05,1.11.15,2.57.35,4.42l5.15,26.33s5.3,13.24,5.09,17.83a15.84,15.84,0,0,1-6.69,3.63.92.92,0,0,1-.77.83,9.07,9.07,0,0,1-2.51-5.15s.33-.72-.74-1.93a16.25,16.25,0,0,1-1.62-3.48,10.41,10.41,0,0,0-.93,6.45,6.39,6.39,0,0,1-2.42-.46s-.37.51-1.53.42L163,407.7a8.57,8.57,0,0,0-3.53.28s-2.72,1.52-11.23,1a6.06,6.06,0,0,1-4.2-2c-.7-.81-1.25-1.73-1-2.5l1-2.28a5.62,5.62,0,0,1-.18-3.76s.37-4.78,3.2-4.92c0,0-3.2-6.11-1.67-12.38l-.35-1.74s-3.41-5.16-4.53-9.41c0,0-2.09-3.48-3.27-6.13,0,0-3.21-7.8-4-13.58a4.43,4.43,0,0,1-.7-2.23s-3-.56-4.11-2.72c0,0-9.41-12.43-9.43-23.49a4,4,0,0,1,.49-1.9c1-1.87,3.92-6.32,10.47-11l25.71-11.29s2.45-1.72,3.29.16a2.41,2.41,0,0,0,1.6,1.32,3.62,3.62,0,0,1,1.43.71,2.67,2.67,0,0,0,1.36.58,2.76,2.76,0,0,1,1.78,1.15,1.54,1.54,0,0,0,1.71.42,3.39,3.39,0,0,1,2.43,0,1.48,1.48,0,0,0,1.44-.24c.85-.64,2.89-1,7.66,2.08a6.37,6.37,0,0,0,2.32.95,9.26,9.26,0,0,1,5.94,3.69,3,3,0,0,0,2.1,1.32,1.4,1.4,0,0,1,1.36,1.27s.29.72.87.44a.85.85,0,0,0,.41-.55c.11-.41.6-1,2.69.66a25.23,25.23,0,0,0,3.9,1.47s-3,14.85-8,19.6a2.76,2.76,0,0,1-2.87.58l-2.55-1a2.9,2.9,0,0,1-1.61-.2,7.21,7.21,0,0,0-2.26-.89l-3.23-.58" fill="#686175" data-primary="true"/><path d="M149.46,295.06c-.56,4-3.62,9.49-3.62,9.49a10.25,10.25,0,0,0-.69,1.79,10.54,10.54,0,0,1-1,2.53c-.45.77-1,1.6-1.42,2.29A6.9,6.9,0,0,1,141,313a5.92,5.92,0,0,0-1.57,2.41c-.42,1.33-1.19,3.07-1.19,3.07l-.08-.07a11.23,11.23,0,0,1-2-2.25c-.1-.14-.21-.27-.32-.4a10.57,10.57,0,0,1-2.11-3.7,1.8,1.8,0,0,1-.09-.28,5.33,5.33,0,0,0-.86-1.61,11.43,11.43,0,0,1-1.86-4.88,17.1,17.1,0,0,1-2.77-6.31h0c2.15,3.09,4.95,5.15,8.16,5.45C141.38,304.9,146,301,149.46,295.06Z" fill="#f9b499"/><path d="M119.09,320.85S114.63,334,116,344.26c0,0,8.5,2.43,12.4,1C128.42,345.3,119.62,333.43,119.09,320.85Z" fill="#686175" data-primary="true"/><path d="M119.09,320.85S114.63,334,116,344.26c0,0,8.5,2.43,12.4,1C128.42,345.3,119.62,333.43,119.09,320.85Z" opacity="0.2"/><path d="M114.63,512.68a23.36,23.36,0,0,0-.85,4.13.92.92,0,0,1-.89.47,3,3,0,0,0-1.26.15l-.39.11a6.91,6.91,0,0,1-5.22-.73,3.63,3.63,0,0,0-2.16-.49,9.06,9.06,0,0,1-3.81-.65A3.64,3.64,0,0,0,98,515.5a1.29,1.29,0,0,0-.75.37.89.89,0,0,1-.49.29.9.9,0,0,1-.46,0l-1.09-.24c-.8-.25-1.15-3.48-1.15-3.48-.45-2.84.5-4.19.5-4.19a28,28,0,0,0,4.23.15c3.58-.89,7.27,1.69,7.27,1.69,2.49,1.2,7.22.7,7.22.7C115.63,510.24,114.63,512.68,114.63,512.68Z" fill="#2f2e41"/><path d="M114.63,512.68a23.36,23.36,0,0,0-.85,4.13.92.92,0,0,1-.89.47,3,3,0,0,0-1.26.15l-.39.11a6.91,6.91,0,0,1-5.22-.73,3.63,3.63,0,0,0-2.16-.49,9.06,9.06,0,0,1-3.81-.65A3.64,3.64,0,0,0,98,515.5a1.29,1.29,0,0,0-.75.37.89.89,0,0,1-.49.29.9.9,0,0,1-.46,0l-1.09-.24c-.8-.25-1.15-3.48-1.15-3.48-.45-2.84.5-4.19.5-4.19a28,28,0,0,0,4.23.15c3.58-.89,7.27,1.69,7.27,1.69,2.49,1.2,7.22.7,7.22.7C115.63,510.24,114.63,512.68,114.63,512.68Z" opacity="0.2"/><path d="M225.49,488.42a12.3,12.3,0,0,1-2.69,6.52.72.72,0,0,1-.24.19.76.76,0,0,1-.77,0,2.64,2.64,0,0,1-1.18.35,1.08,1.08,0,0,1-.89-.4s-.56,1.42-2.54.71c0,0,2.49-15.85.41-21.17a1.92,1.92,0,0,1,2.68-.36,3.29,3.29,0,0,0,2.43-.25.77.77,0,0,1,1,.3,11.92,11.92,0,0,1,1.35,3.57,13.25,13.25,0,0,1,.19,4.07,12.44,12.44,0,0,0,0,2.44,9.06,9.06,0,0,0,.16,1.18A9.61,9.61,0,0,1,225.49,488.42Z" fill="#2f2e41"/><path d="M225.49,488.42a12.3,12.3,0,0,1-2.69,6.52.72.72,0,0,1-.24.19.76.76,0,0,1-.77,0,2.64,2.64,0,0,1-1.18.35,1.08,1.08,0,0,1-.89-.4s-.56,1.42-2.54.71c0,0,2.49-15.85.41-21.17a1.92,1.92,0,0,1,2.68-.36,3.29,3.29,0,0,0,2.43-.25.77.77,0,0,1,1,.3,11.92,11.92,0,0,1,1.35,3.57,13.25,13.25,0,0,1,.19,4.07,12.44,12.44,0,0,0,0,2.44,9.06,9.06,0,0,0,.16,1.18A9.61,9.61,0,0,1,225.49,488.42Z" opacity="0.2"/><path d="M233.1,487,230,495.57a1.62,1.62,0,0,1-.45.65c-1.66,1.42-2.81,1.06-3.45.58a8.11,8.11,0,0,0-2.16-1.18l-1.39-.48h0a.72.72,0,0,0,.24-.19,12.3,12.3,0,0,0,2.69-6.52,9.61,9.61,0,0,0-.15-2.88,9.06,9.06,0,0,1-.16-1.18,12.44,12.44,0,0,1,0-2.44,13.25,13.25,0,0,0-.19-4.07,3.72,3.72,0,0,1,2.14,2.16c.15,3.07,5.69,3.17,5.69,3.17a4.56,4.56,0,0,1,.5,2.54A4.47,4.47,0,0,1,233.1,487Z" fill="#f9b499"/><path d="M225.48,477.93s-.74-2.8,7.37-7.83a4.32,4.32,0,0,0,1.34-1.35,3.79,3.79,0,0,1,1.62-1.51,4.4,4.4,0,0,0,1.5-1.14c.88-1,2.75-2.2,5.87.12,0,0,6.27,4.15,9.4,18.69l5.28,11.48-.26,1.5.85.59s1.95,6.26,1.56,8.68c0,0-.91.65,0,1.76,0,0-2.15,13.56-8.54,11,0,0-3.85,1.7-7.31-7.11,0,0-6.78-7.43-11.22-9.46,0,0-8.74,1.57-10.37-3.65,0,0-.3-1.83,2.72-1.59a5.07,5.07,0,0,1,1.81.55c.43.2,1.19.3,2.32-.53a7.74,7.74,0,0,1,6.78-.65s-1.3-5.41.4-8.67c0,0,1.56-3.28-3.75-5.65,0,0-5.5,0-5.69-3.17A5.12,5.12,0,0,0,225.48,477.93Z" fill="#686175" data-primary="true"/><path d="M227.1,498.68l.11-1.44a3.44,3.44,0,0,0,2.8-1.67l3.28-9.19s.32-2.22-.44-3.2c0,0,5.1,2.11,3.75,5.65,0,0-1.57,3-.4,8.67,0,0-2.75-1.55-6.78.65A2.5,2.5,0,0,1,227.1,498.68Z" fill="#fff"/><path d="M111.76,524.57a2.29,2.29,0,0,0-2.5.85,2.54,2.54,0,0,0-.5,1.52,11.54,11.54,0,0,1-.61,3,2.12,2.12,0,0,1-1.6,1.55c-5.07,1.7-12.69-.4-12.69-.4a28.9,28.9,0,0,0,2.86-15,.89.89,0,0,0,.49-.29,1.49,1.49,0,0,1,.94-.41,3.56,3.56,0,0,1,1.88.2,9,9,0,0,0,3.83.66,3.63,3.63,0,0,1,2.16.49,6.91,6.91,0,0,0,5.22.73Z" fill="#f9b499"/><path d="M89.26,531.16A2.54,2.54,0,0,1,91,528.77a1.86,1.86,0,0,1,2.4.8,4.82,4.82,0,0,1,.51,1.57s7,2.15,12.69.4c0,0,2.06,0,2.21-4.6,0,0-.11-2.77,3-2.37,0,0,2.45.95,3.15,2.91,0,0,5.42,3.41,7,6.56,0,0,2.36,1.06,2.36,2.76a4.45,4.45,0,0,0,2,1.65s1.36.46,1,1.26a97.22,97.22,0,0,1-11.08,8.94c-.49.31-1,.64-1.42,1-4.05,3-23.11,17-33.45,19.41,0,0-4,1.09-4.81-2.26a2.82,2.82,0,0,0-.24-.63c-.41-.81-1.1-3.28,3.2-6.8a19.32,19.32,0,0,0,5.29-8.17l4.33-13.4a3.51,3.51,0,0,0,.13-1.86,5.7,5.7,0,0,1-.09-2.95A12.27,12.27,0,0,0,89.26,531.16Z" fill="#686175" data-primary="true"/><path d="M276.91,362a.61.61,0,0,0-.36-.47c-.42-.16-1.22-.12-2.33,1.62a1,1,0,0,1-.08.11,7.49,7.49,0,0,1-1.71,1.59s-.57-.21-.57-.71a4.74,4.74,0,0,0,1.82-1.54,1.29,1.29,0,0,1,.4-.47,4.75,4.75,0,0,0,1.53-1.78s1.21-.78,1.07-1.71c0,0-.5-1.75-2.25-.18a31.33,31.33,0,0,1-6.1,3.71,16.57,16.57,0,0,1-3.64-.35c-.93-.36-6.1-2-10.1-1.25a4.57,4.57,0,0,1-2.43-1.11,23.6,23.6,0,0,1-3.22-3.67,26.27,26.27,0,0,0-3.62-5.37s-6.41-9-10.94-12.92l-5.08-5.57a17.28,17.28,0,0,0-5.2-5,5.41,5.41,0,0,1-1.41-1.11,6.53,6.53,0,0,0-4.38-2.09,2.34,2.34,0,0,1-.78-.23l-15.17-7a16.77,16.77,0,0,0-4.41-3.41s-2.78,14.34-8,19.6c-.27.28,12.32,4.14,19.56,3.55a3.81,3.81,0,0,1,1.88.35,3.89,3.89,0,0,0,1.1.3,2.53,2.53,0,0,1,1.54.87c2.54,3,11.8,13.78,19,17.72a52.45,52.45,0,0,1,4.93,4.92s1.92,3,3.53,3.64c0,0,2.48,4.49,5.73,6a2.45,2.45,0,0,1,1,.82,21.73,21.73,0,0,1,2.51,4.26,3.9,3.9,0,0,0,.49,1.08,3.76,3.76,0,0,0,1.29,1.14,4.64,4.64,0,0,1,1.69,1.48c.9,1.39,2.2,3.75,2,5.76a1,1,0,0,0,1,1.1c.55,0,1.2-.51,1.63-2.37a4.75,4.75,0,0,1,.2-.64c.22-.62.48-2.5-2.15-6.4a7.84,7.84,0,0,0,2.54-.22,8.46,8.46,0,0,0,4.21,0s7.13-.28,6.13-3.25c0,0,3.47.11,3.89-1.78a5.33,5.33,0,0,0,0-3,6.23,6.23,0,0,0,1.1-1.25,4.78,4.78,0,0,1,.44-.72,6.73,6.73,0,0,0,1-1.78,4.47,4.47,0,0,1,.51-1.11A1.78,1.78,0,0,0,276.91,362Zm-8.18,4.07a.3.3,0,0,1-.11-.29c.05-.2.28-.53,1.13-.85A2.2,2.2,0,0,1,270,366,1.2,1.2,0,0,1,268.73,366.07Z" fill="#f9b499"/><path d="M128,298.69s1.51,5.27,2.92,6.6c0,0,10.07,1.48,17.11-4.85,0,0,1-3.4,1.42-5.28Z" fill="#f7a88f"/><path d="M153.51,279.37c0,.28,0,.55,0,.83s-.06.8-.1,1.21a38.18,38.18,0,0,1-2.32,10.16,32.91,32.91,0,0,1-1.59,3.49c-3.26,6.1-8.08,9.84-13.11,9.36-3.21-.31-6-2.29-8.18-5.41a27,27,0,0,1-4.13-11.6,38.4,38.4,0,0,1-.16-8.81c.08-.82.18-1.64.3-2.44a37.38,37.38,0,0,1,2.39-8.63l0,0a28.14,28.14,0,0,1,1.43-3,9.33,9.33,0,0,1,4.6-4.1c8.43-3.49,15.22,1.16,17.43,3a4.17,4.17,0,0,1,1.15,1.51h0a28.47,28.47,0,0,1,1.71,5.8c0,.17.07.35.1.52A38.16,38.16,0,0,1,153.51,279.37Z" fill="#f9b499"/><path d="M124.16,287.63a3.41,3.41,0,0,1-1,.11c-2.08,0-3.77-2.57-3.77-5.75s1.69-5.76,3.77-5.76a2.41,2.41,0,0,1,1,.22c-.12.79-.22,1.6-.3,2.42A37.8,37.8,0,0,0,124.16,287.63Z" fill="#f9b499"/><path d="M156,286.89c-.69,3.09-3,5.12-5,4.7a37.16,37.16,0,0,0,2.33-10c0-.4.2-.74.23-1.14h0C155.54,280.9,156.63,283.78,156,286.89Z" fill="#f9b499"/><path d="M156.2,266.93a31.1,31.1,0,0,1-1.49,7.24,15.19,15.19,0,0,1-1.2,5.46,37.4,37.4,0,0,0-.5-8c0-.17-.06-.35-.1-.52a25.45,25.45,0,0,0-1.71-5.74l0-.08a4.14,4.14,0,0,0-1-1.37,16.08,16.08,0,0,0-19.88-1.51l-.11.06a15.22,15.22,0,0,0-3.58,5.43l0,0a36.62,36.62,0,0,0-2.39,8.54s-1-2-.4-3.39c0,0,.18-2.42-.37-2.88a1.75,1.75,0,0,1,.18-1.77,15.28,15.28,0,0,1,.27-1.94,2,2,0,0,0-.33-1.64,1.71,1.71,0,0,1,0-2s-1.2-1.76-.26-2.76a1.17,1.17,0,0,0,.3-.7c.21-1.85,1.41-8.45,8-9.73,0,0,1-2.23,4.45-1.39,0,0,2.68-2.11,4.39-1.19a2.58,2.58,0,0,0,2.25.13,1.56,1.56,0,0,1,2.18.48,2.29,2.29,0,0,0,1.84,1.06c1.88.11,5,.62,5.52,2.69a1.9,1.9,0,0,0,1,1.25,6.28,6.28,0,0,1,3.55,6.07S159,261.54,156.2,266.93Z" fill="#2f2e41"/><path d="M130.37,304.53a15.31,15.31,0,0,0,1.46,11.37s.42.63-.83,1.4c0,0,2.23.2,1.88-2.65,0,0,.35-1.6,1.6-.77a15.93,15.93,0,0,0-1.69-3.71,10.46,10.46,0,0,1-1.86-4.88Z" fill="#686175" data-primary="true"/><path d="M130.37,304.53a15.31,15.31,0,0,0,1.46,11.37s.42.63-.83,1.4c0,0,2.23.2,1.88-2.65,0,0,.35-1.6,1.6-.77a15.93,15.93,0,0,0-1.69-3.71,10.46,10.46,0,0,1-1.86-4.88Z" opacity="0.2"/><path d="M150.71,292.77l4.95,4.88s1.26,1.2-.47,3.39a7.2,7.2,0,0,0-1.23,2.42,20.61,20.61,0,0,0-.74,3.32c-.07.55-1.74,5.5-2.51,6.41,0,0-9.89-.56-9.82,1.18l.7,1.6-3.35,2.51s1.41-4.55,2.76-5.48a16.75,16.75,0,0,0,4.15-6.66,9.35,9.35,0,0,1,1.31-3,36.15,36.15,0,0,0,3-8.2Z" fill="#686175" data-primary="true"/><path d="M150.71,292.77l4.95,4.88s1.26,1.2-.47,3.39a7.2,7.2,0,0,0-1.23,2.42,20.61,20.61,0,0,0-.74,3.32c-.07.55-1.74,5.5-2.51,6.41,0,0-9.89-.56-9.82,1.18l.7,1.6-3.35,2.51s1.41-4.55,2.76-5.48a16.75,16.75,0,0,0,4.15-6.66,9.35,9.35,0,0,1,1.31-3,36.15,36.15,0,0,0,3-8.2Z" opacity="0.2"/></g></g></svg>