<svg id="b4ff0444-b74f-4ba3-a54d-a9035e98c77d" data-name="Layer 1" xmlns="http://www.w3.org/2000/svg" width="865.76" height="682.89" viewBox="0 0 865.76 682.89"><path d="M352.87,540s3.27,6.09-4.61,7.72c0,0-27.16,2.5-37.67-.13-1-.11-6.4-1.12-10.49-.17a32.26,32.26,0,0,1-4.14.71c-6.38.59-22.14,1.59-28.45-2.15a2.75,2.75,0,0,1-1.31-2.58,13,13,0,0,1,2.62-7.35s3.56,1.82,19.61,2.86c0,0,6.42-.85,28.81,2.85l31.55,1.77S348.56,541.54,352.87,540Z" fill="#f48225" data-secondary="true"/><path d="M319.16,492l-10.49,16.17s-21.49,3.95-23.66-.54a115.37,115.37,0,0,0,10.81-25.86Z" fill="#f9b499"/><path d="M278.07,519.74l6.94-12.1s-.27,2.58,10.74,2l12.92-1.5-.54,5.31a8.22,8.22,0,0,0-3.8,3,26.12,26.12,0,0,1-3.08,3.4c-3.81,3.45-11.77,9.4-18.42,6.22a12,12,0,0,1-2.85-2.72A12.21,12.21,0,0,1,278.07,519.74Z" fill="#d1d3d4"/><path d="M308.13,513.49s1.64,0,2.33,2.22a13.08,13.08,0,0,0,5,6.84c6.54,4.63,18.85,12.21,31,13.51,0,0,4.9-.54,6.4,4,0,0-3.95,1.22-4.08,3.53l-31.55-1.77s-20-3.4-28.83-2.72c0,0-16.73-1.08-19.59-3,0,0,6.4-20,9.25-16.32,0,0,2.52,8.59,10,7.18,0,0,5.09.44,13.28-7.21a19,19,0,0,0,1.73-1.86C304.25,516.46,306.63,513.75,308.13,513.49Z" fill="#686175" data-primary="true"/><path d="M300.26,330.61a222.9,222.9,0,0,1,49.06,42.05s17,14.52,16,21c0,0,1.25,12.77-9,31.54,0,0-19.77,37.79-25.53,44.3l-13.26,23s-20-8.26-23-10.76l8.91-21.07a16,16,0,0,0,1.27-6.09c.06-7.7,2.11-29.09,21.92-43.1a2.28,2.28,0,0,0,.8-2.15,4.09,4.09,0,0,1,.13-1.36,2.18,2.18,0,0,0-.72-2.27,2.35,2.35,0,0,1-.95-1.34,2.29,2.29,0,0,0-1.06-1.59l-16.53-9.38s-26.78-11.51-38-21.52L252,359.39s9.63-16.76,9.57-22.14Z" fill="#f48225" data-secondary="true"/><path d="M279.18,346.63,260.63,335.4l-7.36,23.19S265.55,359.5,279.18,346.63Z" opacity="0.21"/><path d="M228,291.23c11.89,26.45,36.8,39.17,36.8,39.17a54,54,0,0,1-11.54,29c-8.65,13.47-30.11,31.67-43,41.93A107.12,107.12,0,0,0,195,416.42a42.21,42.21,0,0,1-11.3,9.76,73.93,73.93,0,0,0-10.62,7.28,30,30,0,0,1-6.67,4.3c-6.13,3.07-13.92,12.5-13.92,12.5l-46.95,43.42c-15.34-2.12-23.13-16.52-23.13-16.52l22.45-29.92a32.24,32.24,0,0,0,4.72-8.63c6-17.33,28.52-22.56,28.52-22.56A57.38,57.38,0,0,0,152,404.49c9.67-5.9,19.58-22.42,19.58-22.42a65,65,0,0,1,5.64-8.93,35.9,35.9,0,0,0,7.18-20.09c.75-20.63,6.86-61.51,43.57-60.95Z" fill="#f48225" data-secondary="true"/><path d="M457.6,226.26c2.33,3,3.49,7.28,4.06,10.42a15.27,15.27,0,0,1-.09,6.17c-1.39,5.85,2,9.21,4.82,10.92a23.14,23.14,0,0,1,8.11,8.7c2.65,4.82,4.78,9.88,4.78,9.88-2,12.81,8.31,16.19,8.31,16.19,8.1,7.19,16,26.08,16,26.08-2.47,16,10.57,20.46,10.57,20.46,11,7.87,24.06,39.35,24.06,39.35-1.58,20.46,12.36,20.91,12.36,20.91,12.37,9.67,28.11,42.49,28.11,42.49.22,15.07,11.69,19.12,11.69,19.12,8.49,7.94,16.49,20.15,21.44,28.47a44.51,44.51,0,0,1,5.59,14.36c2,10.73,9.62,10.91,9.62,10.91,13.27,7.64,19.79,24.28,19.79,24.28.67,12.59,7.19,11.92,7.19,11.92,1.58,1.12,5.84,6.16,5.84,6.16,8,14.37,18.59,11,18.59,11,95.49-15.64,145.34-87.89,145.34-87.89,5.07-9.71-3-12.67-3-12.67l5.49-10.14-16.48-24.51,3.8-17.74-10.56-11.83c-3.8-1.27-18.17-24.09-18.17-24.09,4.23-15.63-10.56-30.42-10.56-30.42-10.14-4.64-26.2-30-26.2-30l2.54-13.53-16.9-18.59-5.49-.42L710.1,260.67c-4.23-4.22-1.69-13.52-1.69-13.52,1.27-10.56-13.94-16.47-13.94-16.47-16.48-2.54-23.77-23.77-23.77-23.77-1-7.29-4.44-10.14-4.44-10.14-5.7-13.94-18.69-6.66-18.69-6.66l-16.16-28.2-16.17.64-9.5-17.43s-37,4.91-89.59,34.81c0,0-42,25.35-58,39.95A4.75,4.75,0,0,0,457.6,226.26Z" fill="#f48225" data-secondary="true"/><path d="M461.67,241.81S458,250.16,468,255c0,0,13.42-12.85,52.55-16.85,0,0,41.7-.52,46.93-12.88.51-1.21,1-2.43,1.54-3.6,1.38-2.81,3.21-8.08-.21-11.51,0,0-3.1-1.85-11.92,3.38a23.77,23.77,0,0,1-11.84,3.37C530.07,217.1,492.39,219.9,461.67,241.81Z" fill="#fff" opacity="0.13"/><path d="M479.28,272.35s27.67-11.81,65-13l40.2.24s6.73,0,9-5.32A6.52,6.52,0,0,1,596.1,251a5.72,5.72,0,0,1,4.56-.54,6.86,6.86,0,0,1,4.47,4.28c1.19,3.22,2.68,9.26.1,14.86a13,13,0,0,1-7.85,6.87,34.85,34.85,0,0,1-12.65,1.28s-55.71-3.6-97.14,10.77C487.59,288.54,477,285.59,479.28,272.35Z" fill="#fff" opacity="0.13"/><path d="M631.41,161.91C613,171,593.17,221.08,588.75,232.74c-.5,1.32-.89,2.67-1.28,4-3.14,11.17-15.74,12.47-20.52,12.55a9.65,9.65,0,0,1-4.39-.91c-3.54-1.7-2.94-4.33-1.9-6.15a9.38,9.38,0,0,1,2.2-2.54c1.74-1.47,6.86-6.49,11.34-18.19,0,0,20.58-47.37,41-59Z" fill="#fff" opacity="0.13"/><path d="M630.44,293.8c-1.94,10.73-5.74,10.77-5.74,10.77H612a15.7,15.7,0,0,1-5.52-.93c-8.49-3.16-2.15-10.08-2.15-10.08s1.4-2.66,3.37-7.37a126,126,0,0,0,6.93-22.46c3-14.08,12-48.54,32.91-73.62,0,0,13.83-7.09,18.69,6.66C666.26,196.77,642.41,227.75,630.44,293.8Z" fill="#fff" opacity="0.13"/><path d="M503.56,314.62s51.63-9.58,109.27.68c2.29.41,4.57.93,6.82,1.49,3.33.84,10.07,1.82,13.28-2.69a11.87,11.87,0,0,1,2.42-2.63c2.87-2.19,8.58-5.11,12.47,2.21,0,0,4.16,28-9.7,28.84a10.56,10.56,0,0,1-2.31-.15c-9.85-1.66-96.41-15.8-121.68-7.29C514.13,335.08,501.26,331.08,503.56,314.62Z" fill="#fff" opacity="0.13"/><path d="M694.47,230.68s-24.72,34.05-35.39,93.83a123.29,123.29,0,0,1-12.53,38s-6.34,7,8.87,8.24c0,0,17.43,3.49,18.38-8.55S689,266.47,708.66,244.6C708.66,244.6,708.79,237,694.47,230.68Z" fill="#fff" opacity="0.13"/><path d="M538.19,374.43s98.22-.86,128,8c0,0,11.72,4.43,15.52-5.71,0,0,.87-5,5.26-4a6.23,6.23,0,0,1,4.46,4c1.32,3.57,2.95,10.85-.19,21a11.93,11.93,0,0,1-9.88,8.38c-4.24.52-10.57.16-19.93-2.39,0,0-55.42-10.66-110.89-8.34C550.55,395.34,536.61,394.93,538.19,374.43Z" fill="#fff" opacity="0.13"/><path d="M733.76,282.64s-17.85,45.35-25.9,86.75c-.63,3.23-1.4,6.41-2.31,9.57-3.54,12.35-12.36,42-16.86,47.53,0,0-5.07,6.34,6.66,8.24,0,0,18.38,4.44,19.65-6.33l33.12-113.64,2.54-13.53Z" fill="#fff" opacity="0.13"/><path d="M774.32,344.75s-26.69,88.4-39.68,113.43c0,0-7.29,16.48-15.52,21.55,0,0-6.66,6,4.11,7.61,0,0,15.53,3.8,21.55-9.83,0,0,36.26-76,40.1-102.34C784.88,375.17,788.86,358.61,774.32,344.75Z" fill="#fff" opacity="0.13"/><path d="M578.66,437.83s77.19-2,117,6.36c0,0,20.44,5.39,23-.63,0,0,3.66-5.72,7.29-4.42a3.34,3.34,0,0,1,2.11,2.73,35.41,35.41,0,0,1-.29,12.38,12.6,12.6,0,0,1-13.63,9.61c-18.66-2-94.31-9.75-123.73-6.91C590.35,457,578.94,453.34,578.66,437.83Z" fill="#fff" opacity="0.13"/><path d="M616.09,495l74.38-.52s55.52,5.76,57.88-6.55c0,0,1-5.24,3.66-2.36,0,0,8.12,19.65-21.21,24.36l-103.8.78S617.66,511.48,616.09,495Z" fill="#fff" opacity="0.13"/><path d="M804.39,401s-38.9,89.65-51.58,103c0,0-17.32,17.53-8.87,18a18.4,18.4,0,0,0,16.26-5.29s32.67-44.12,49.61-87.76l3.8-17.74Z" fill="#fff" opacity="0.13"/><path d="M647,536.66s101.19-4,110.7-14.36c0,0,4.86-7.18,6.13-2.75,0,0,1.69,12.47-23,15.85,0,0-61.61,14.47-86.79,11.49C654,546.89,648,547.65,647,536.66Z" fill="#fff" opacity="0.13"/><path d="M821.47,446.14s-41.83,67.5-53.24,78.27c0,0,36.68-31.87,52.57-60.93l5.49-10.14Z" fill="#fff" opacity="0.13"/><path d="M605.74,145.12s-31.39,16.06-51.59,56.51a8,8,0,0,1-5.17,4.22l-.32.08a21.86,21.86,0,0,0-3.52,1.13c-4.18,1.75-13.66,5.3-14.56,1.91a1.86,1.86,0,0,1,.57-1.79,57.52,57.52,0,0,1,4.88-4.11,27.81,27.81,0,0,0,7.26-8.38,138,138,0,0,1,41.27-44.79S597.21,146.28,605.74,145.12Z" fill="#fff" opacity="0.13"/><path d="M471.63,209.32l54-20.44a57.75,57.75,0,0,0,11.86-6.39c1.72-1.16,3.78-1.58,5.15,1.38,0,0,3,7.18-10.35,12l-75.21,29.15s-1.74-2.54,1.14-5.18Z" fill="#fff" opacity="0.13"/><path d="M344.08,243.19c15.55,15.28,38.86,25.91,38.86,25.91,2.85,3.62,8,1.81,8,1.81,26.42,1.55,69.17-6.48,69.17-6.48,13-2.33,4.15-18.65,4.15-18.65,1.81-2.08,0-11.14,0-11.14l-8,1v14.51c.25,2.85-3.63,3.89-3.63,3.89-9.59,2.59-57.26-2.85-57.26-2.85-4.66,1.81-9.85-2.07-9.85-2.07-2.85-4.15-20.88-18-20.88-18s-13.27-5.26-22.4-11.77C342.25,219.36,346,231.59,344.08,243.19Z" fill="#f9b499"/><path d="M88.12,523.78c3,6.74,16.3,12.16,22.34,14.32a20.34,20.34,0,0,0,4.87,1.1,10.42,10.42,0,0,1,5.84,2.27c-3.1-.75-9.33,4.37-9.33,4.37a13.1,13.1,0,0,1-4.25,1.55,119.91,119.91,0,0,1-25.57.9s-11.58,1.21-26.27-6.39a11.45,11.45,0,0,0-6.63-.84s-7.71-.37-8-1.31c0,0,2-4.79.93-7,0,0-2.41-4.1,2.35-7.35a6.06,6.06,0,0,0,1.87-2c.75-1.34,2.3-3.24,4.84-2.83,0,0-3.07,3.19-.86,5.29,0,0,3.83,3.67,10.6,1.22a14.74,14.74,0,0,0,4.65-2.84c1.86-1.64,6.94-4.88,19.25-6.69a20.19,20.19,0,0,1,3.08,5.35C87.91,523.21,88,523.5,88.12,523.78Z" fill="#686175" data-primary="true"/><path d="M59.18,543.1c-7-3.51-8.88-2.5-8.88-2.5a21.78,21.78,0,0,1-9.43-.85c-3.93,4.16-2.08,9.86-2.08,9.86,3.13,3,29,2.62,29,2.62,25.28,6.89,54.43-4.13,54.43-4.13,3-3.75-1.31-6.63-1.31-6.63s-3-.85-9.33,4.37a21.47,21.47,0,0,1-4.49,1.33S75.92,551.84,59.18,543.1Z" fill="#f48225" data-secondary="true"/><path d="M104.89,493.42l-19.7,20.36s-3.38,1.29-12.31-.39c-.69-.1-11.15-1.2-13-3.48,0,0,11.06-12.8,17.9-24.9l5-8.08S89.41,490.05,104.89,493.42Z" fill="#f9b499"/><path d="M345.81,154s-5.44,12.27-26.34,16.52c0,0,13.89,4.26,26,20.4l3.26-.13s-2.76-6.72,2.74-18.74c0,0,4.08-12.32,19.37-19.08,0,0-3.75-8.07-11.54-2.72,0,0-3.28,1.5-8.82,7.69Z" fill="#f9b499"/><path d="M403,142.56a6.35,6.35,0,0,0-.33-3.53,2.68,2.68,0,0,1,.91-3.09c2.38-1.81,5.53-5.6.85-11.18,0,0-6-9.28-17.06-6.46a3.9,3.9,0,0,1-2.74-.34c-1.36-.71-3.6-1.35-5.27.84a3.65,3.65,0,0,1-2.46,1.45,5.68,5.68,0,0,0-5,4.6,12.2,12.2,0,0,1-1.35,3.35c-.79,1.28-1.42,3.5.81,6.32a10.1,10.1,0,0,0,6.2,1.5,6.13,6.13,0,0,0,8.44,3s1.22,7.53,8.76,8.93A7,7,0,0,0,403,142.56Z" fill="#f48225" data-secondary="true"/><path d="M403,142.56a6.35,6.35,0,0,0-.33-3.53,2.68,2.68,0,0,1,.91-3.09c2.38-1.81,5.53-5.6.85-11.18,0,0-6-9.28-17.06-6.46a3.9,3.9,0,0,1-2.74-.34c-1.36-.71-3.6-1.35-5.27.84a3.65,3.65,0,0,1-2.46,1.45,5.68,5.68,0,0,0-5,4.6,12.2,12.2,0,0,1-1.35,3.35c-.79,1.28-1.42,3.5.81,6.32a10.1,10.1,0,0,0,6.2,1.5,6.13,6.13,0,0,0,8.44,3s1.22,7.53,8.76,8.93A7,7,0,0,0,403,142.56Z" opacity="0.04"/><path d="M303.22,173.43a19.14,19.14,0,0,0,3.39-1.09c2.87-1.26,8.62-3.32,12.86-1.78,5.88,2.13,14.64,6.13,26,20.4,0,0,8.15,9.1,19,13.58,1.6.67,3.19,1.38,4.72,2.19,2.92,1.54,7.78,4.21,12.89,7.4a27.37,27.37,0,0,0,10,3.84,19.21,19.21,0,0,0,3.76.27s17.27.75,28.78,3l38.8,2s2.74-1.35,2.34-4a14.56,14.56,0,0,1,1.33-7.7s.26-4.78,1.59-6.77c0,0-2.65-4.38,4.51-4,0,0,12.22-8.1,22-5.71,0,0,3.71-.53.79,1.73,0,0-15.13,11.41-16.06,11.94s.14,20.71-6.37,24.29l-43.93,6.37s-25.62,5.05-39.55,2.79a14.3,14.3,0,0,1-7.17-3.45S352,226.54,343.74,220.56l-11.63-8.14s-7.13,7.88-20.83,6.38c0,0-24-6.19-27.78-10.13a1.39,1.39,0,0,1-1.88-.94s1.35-9.46,5.66-15.21a24.46,24.46,0,0,0,2.83-4.91C292.06,183.1,296.44,175,303.22,173.43Z" fill="#f7a78d"/><path d="M283.5,208.67c6,4.31,20.46,8.07,20.46,8.07a35.52,35.52,0,0,0,9.38,2.25c12.2.94,18.77-6.57,18.77-6.57l10.14,6.94s25.62,28.71-3.54,45.81a14.19,14.19,0,0,0-5.48,5.78L320.1,296.7s-10.7,39.61-40.92,49.93l-16.33-9.38s-15-8.26-23.09-19.34c0,0-11.93-13.64-11.76-25.81a3.2,3.2,0,0,1,1.54-2.66l2.52-1.56a1.56,1.56,0,0,1,1.48-1.2,14.25,14.25,0,0,0,5.21-1.46c5.91-2.73,17.29-8.46,25.11-15.22a16.68,16.68,0,0,0,5.22-8.56,24.31,24.31,0,0,1,2.15-5.81,27.76,27.76,0,0,0,2.48-5.57c2.46-8.14,8-27.95,7.91-42.33C281.62,207.73,281.68,208.79,283.5,208.67Z" fill="#686175" data-primary="true"/><path d="M84.73,517.57s3.13-3.53.46-3.79c0,0-3.19.87-9.12-.27,0,0-14.15-1.23-15.88-4l-9.33,11.08s-2.8,2.89-.86,5.29a3.71,3.71,0,0,0,1.34,1,11.72,11.72,0,0,0,6.78.9,14.33,14.33,0,0,0,7.12-3.35C67.41,522.6,73.35,519.12,84.73,517.57Z" fill="#d1d3d4"/><path d="M349.86,190.8l-3.44.12s-3.07-20.2,11.56-28.64Z" fill="#f7a78d"/><ellipse cx="372.98" cy="176.35" rx="29.11" ry="20.9" transform="translate(-15.46 315.39) rotate(-45)" fill="#f9b499"/><ellipse cx="364.01" cy="158.07" rx="8.59" ry="5.4" transform="translate(-5.16 303.69) rotate(-45)" fill="#f9b499"/><path d="M396.81,177.69s8.13-9.38.62-26.84c0,0,4.51-4.5,1.88-7.88,0,0-9.2-2.07-14.08-7.14,0,0-1.69,3.2-6.19-.18,0,0-2.82-3.76-6.38-2.63,0,0-5.82-4.88-16.52,5.07A77.83,77.83,0,0,0,345.81,154l4.7,3.94s13-15.95,19.14-6.38c0,0,4.52,3-1.82,10.29l4.73,6.32s-.18-5.06,5.35-8.63c0,0,1.69,11.92,11.83,10,0,0-.83-2.59.72-7.76a2.52,2.52,0,0,1,2.18-1.83c1-.07,2.07.49,2.54,3A36.56,36.56,0,0,1,396.81,177.69Z" fill="#f48225" data-secondary="true"/></svg>