<svg id="ad67d4b5-dc3c-4362-8f31-c2c19fa11aef" data-name="Layer 1" xmlns="http://www.w3.org/2000/svg" xmlns:xlink="http://www.w3.org/1999/xlink" width="865.76" height="682.89" viewBox="0 0 865.76 682.89"><defs><clipPath id="e7d2c9ab-9b37-424c-a2f2-805511546f96"><path id="f4f71189-11a5-45d1-a135-30233900d15a" data-name="SVGID" d="M480.3,619.91l-36.67,23a392,392,0,0,1-47.81-12.39h0c-15.66-5.4-29.17-12.21-29.17-19.6,0-11.24,12.19-13,26.25-11.1,2.62.35,5.31.84,8,1.4,22.3,4.8,52.31-4.63,52.31-4.63Z" fill="none"/></clipPath><clipPath id="aed95f67-ee7c-464a-9c7b-7e224e18d505"><path id="b2640326-b2bb-4291-8021-5d88d3789f9d" data-name="SVGID" d="M533,629.41c-6.15,1,.6,13.62,8.92,9.73S539.14,628.4,533,629.41Z" fill="none"/></clipPath><clipPath id="a0ffe7c7-e704-4a5e-acdf-c5138c4c6954"><path id="b4fa5ea4-7b82-462d-a136-024548e29d25" data-name="SVGID" d="M584.16,638.28c16.14-3.73,30.23-9.08,31-16.43,1.19-11.16-10.75-14.21-24.93-13.79C589.6,608.67,575.85,622,584.16,638.28Z" fill="#ccc"/></clipPath><clipPath id="a63ed2b4-1e00-4d9a-ad6d-bca47121cb81"><path id="e0d85376-7778-4669-a64d-05eb2509dec6" data-name="SVGID" d="M635.9,600.29c-13.17,21.39-80,31.52-116.42,30.56S378.12,580.3,371,569.72c-6.59-9.72-22.78-41.94,2.18-61.41a48.62,48.62,0,0,1,6.73-4.35c17.09-9.26,130.76,19.93,130.76,19.93s7-4.45,9.63-4.12c7.93,1,13.61,7.42,29.63,12,11.22,3.21,41.85-9.12,61.41,1.48a26.86,26.86,0,0,1,5.95,4.32C635.57,555,649,578.84,635.9,600.29Z" fill="none"/></clipPath></defs><path d="M366.77,608.69l-2.44,7.11s3.12,13.09,22.44,17.21,30.45,9.72,39.79,11.24a79.13,79.13,0,0,0,14.89,1.32l2.24-2.66Z" fill="#686175" data-primary="true"/><path d="M366.77,608.69l-2.44,7.11s3.12,13.09,22.44,17.21,30.45,9.72,39.79,11.24a79.13,79.13,0,0,0,14.89,1.32l2.24-2.66Z" opacity="0.2"/><path d="M480.3,619.91l-36.67,23a392,392,0,0,1-47.81-12.39h0c-15.66-5.4-29.17-12.21-29.17-19.6,0-11.24,12.19-13,26.25-11.1,2.62.35,5.31.84,8,1.4,22.3,4.8,52.31-4.63,52.31-4.63Z" fill="#686175" data-primary="true"/><g clip-path="url(#e7d2c9ab-9b37-424c-a2f2-805511546f96)"><path d="M480.3,619.91l-21.56,13.61a87.23,87.23,0,0,1-43.83-30.86,146.21,146.21,0,0,0,38.36-6Z" fill-opacity="0.7" opacity="0.3" style="isolation:isolate"/></g><path d="M395.82,630.5c-15.66-5.4-29.17-12.21-29.17-19.6,0-11.24,12.19-13,26.25-11.1C393.52,600.46,405.79,615.14,395.82,630.5Z" fill="#ccc"/><path d="M447.62,627c6,1.66-1.95,13.42-9.9,8.75S441.63,625.41,447.62,627Z" fill="#fff"/><path d="M615.4,619.65l1.68,7.33S612.6,639.66,593,641.74s-31.31,6.42-40.84,7a78.6,78.6,0,0,1-15-.23l-1.95-2.88Z" fill="#686175" data-primary="true"/><path d="M615.4,619.65l1.68,7.33S612.6,639.66,593,641.74s-31.31,6.42-40.84,7a78.6,78.6,0,0,1-15-.23l-1.95-2.88Z" opacity="0.2"/><path d="M501.24,618.88l34.07,26.73a388.94,388.94,0,0,0,48.85-7.31h0c16.14-3.73,30.23-9.08,31-16.43,1.19-11.16-10.75-14.21-24.93-13.79-2.64,0-5.36.28-8.11.55-22.69,2.43-51.54-10.09-51.54-10.09Z" fill="#686175" data-primary="true"/><path d="M533,629.41c-6.15,1,.6,13.62,8.92,9.73S539.14,628.4,533,629.41Z" fill="#fff"/><g clip-path="url(#aed95f67-ee7c-464a-9c7b-7e224e18d505)"><path d="M544.53,637.13a129,129,0,0,1-13.24-2.31c-1.17-2.47-.9-5,1.71-5.41C538.15,628.56,546.82,633.32,544.53,637.13Z" fill-opacity="0.7" opacity="0.2" style="isolation:isolate"/></g><path d="M533,629.41c-6.15,1,.6,13.62,8.92,9.73S539.14,628.4,533,629.41Z" fill="none"/><path d="M584.16,638.28c16.14-3.73,30.23-9.08,31-16.43,1.19-11.16-10.75-14.21-24.93-13.79C589.6,608.67,575.85,622,584.16,638.28Z" fill="#fff"/><path d="M584.16,638.28c16.14-3.73,30.23-9.08,31-16.43,1.19-11.16-10.75-14.21-24.93-13.79C589.6,608.67,575.85,622,584.16,638.28Z" fill="#fff"/><path id="e8f06ea7-4269-4eb1-aa79-d7074f83f661" data-name="SVGID" d="M584.16,638.28c16.14-3.73,30.23-9.08,31-16.43,1.19-11.16-10.75-14.21-24.93-13.79C589.6,608.67,575.85,622,584.16,638.28Z" fill="#ccc"/><g clip-path="url(#a0ffe7c7-e704-4a5e-acdf-c5138c4c6954)"><path d="M615.17,621.6a104.42,104.42,0,0,0-18.94,9.33,63.19,63.19,0,0,1-13.32,4.45c-5.44-15,6.73-26.75,7.31-27.32C604.3,607.64,616.14,610.63,615.17,621.6Z" fill-opacity="0.7" opacity="0.3" style="isolation:isolate"/></g><path d="M325.52,166.22H195.8a9.8,9.8,0,0,1-9.78-9.79V74.58a9.8,9.8,0,0,1,9.78-9.79H325.52a9.8,9.8,0,0,1,9.78,9.79v81.85A9.8,9.8,0,0,1,325.52,166.22ZM195.8,66.79A7.79,7.79,0,0,0,188,74.58v81.85a7.79,7.79,0,0,0,7.78,7.79H325.52a7.79,7.79,0,0,0,7.78-7.79V74.58a7.79,7.79,0,0,0-7.78-7.79Z" fill="#ccc"/><polygon points="203.91 326.88 203.91 204.61 88.83 204.61 88.83 357.72 173.91 357.72 203.91 326.88" fill="#ccc"/><rect x="104.6" y="281.16" width="3.71" height="68.31" rx="1.86" opacity="0.2"/><rect x="116.31" y="281.16" width="74" height="4.31" rx="2.15" opacity="0.2"/><rect x="116.31" y="294.31" width="74" height="4.31" rx="2.15" opacity="0.2"/><rect x="116.31" y="307.03" width="74" height="4.31" rx="2.15" opacity="0.2"/><rect x="116.31" y="319.76" width="74" height="4.31" rx="2.15" opacity="0.2"/><path d="M172.91,331.48H118.47a2.16,2.16,0,0,0-2.16,2.16h0a2.16,2.16,0,0,0,2.16,2.15h54.44Z" opacity="0.2"/><path d="M172.91,344.16H118.47a2.16,2.16,0,0,0-2.16,2.16h0a2.16,2.16,0,0,0,2.16,2.15h54.44Z" opacity="0.2"/><rect x="101.17" y="214.33" width="93.43" height="57.71" opacity="0.2"/><circle cx="167.96" cy="226.83" r="8.5" opacity="0.3"/><rect x="181.87" y="56.79" width="147.29" height="99.43" rx="8.79" fill="#ccc"/><polygon points="195.87 143.22 195.87 73.08 192.87 73.08 192.87 143.22 192.87 145.94 195.87 145.94 312.16 145.94 312.16 143.22 195.87 143.22" opacity="0.2"/><rect x="203.37" y="114.63" width="8.36" height="27.09" opacity="0.2"/><rect x="226.52" y="95.78" width="8.36" height="45.94" opacity="0.2"/><rect x="250.3" y="103.95" width="8.36" height="37.77" opacity="0.2"/><rect x="274.09" y="89.08" width="8.36" height="52.64" opacity="0.2"/><rect x="297.23" y="76.72" width="8.36" height="64.99" opacity="0.2"/><rect x="408.52" y="33.92" width="296.79" height="225.59" rx="20.46" fill="#f48225" data-secondary="true"/><path d="M427.61,33.92H686.21A19.1,19.1,0,0,1,705.31,53V74.58a0,0,0,0,1,0,0H408.52a0,0,0,0,1,0,0V53A19.1,19.1,0,0,1,427.61,33.92Z" opacity="0.2"/><rect x="454.23" y="45.15" width="218.64" height="17.6" rx="8.8" fill="#fff" opacity="0.2"/><rect x="421.66" y="83.43" width="178.29" height="77.14" rx="11.14" opacity="0.2"/><rect x="421.66" y="169.43" width="178.29" height="77.14" rx="11.14" opacity="0.2"/><rect x="610.23" y="83.43" width="79.43" height="162.63" rx="11.43" opacity="0.2"/><rect x="617.66" y="90.86" width="64.57" height="11.43" rx="5.71" fill="#fff" opacity="0.2"/><rect x="617.66" y="111.01" width="64.57" height="38.71" rx="5.71" fill="#fff" opacity="0.2"/><rect x="617.66" y="155.01" width="64.57" height="38.71" rx="5.71" fill="#fff" opacity="0.2"/><rect x="617.66" y="200.86" width="64.57" height="38.71" rx="5.71" fill="#fff" opacity="0.2"/><path d="M337.35,209.88c-10.29.87-23.34-11.42-23.34-11.42a2.31,2.31,0,0,1-3.27.06,2.49,2.49,0,0,1-.4-.52c-1.68-2.41-8.93-8-9.34-12.82s8.15-12.64,8.15-12.64c-6.59,1.79-7.29-2.08-7.29-2.08s11.1-9.16,15-9.41c1.52-.1,8.13,3.72,14.53,8.85,6.69,5.39,19.25,24.34,19.25,24.34S393.11,225.1,403.85,233c14.17,10.42,31,28.91,31,28.91s56.39,25.43,71.95,39.42l-21,49.81s-51.28-34.36-56.39-43.07-10.25-3.48-15.38-9.17-10.06-12.22-10.06-12.22A86.6,86.6,0,0,1,379.42,269c-12-12.31-22.53-31.11-29.16-42.43A70.22,70.22,0,0,0,337.35,209.88Z" fill="#f9b499"/><path d="M340.48,202.61s-15.31-3.72-16.63-13.81a18.43,18.43,0,0,0-3.29-7.06s-14.27-.7-13.37-6.51l19.05-1.69a33.14,33.14,0,0,1,16.59,14" fill="#f9b499"/><path d="M641.17,340.58a459.77,459.77,0,0,0-67.88-22.67c-34.15-8-89.45-15.13-89.45-15.13S499.05,458,495,467.29,467,508,467,508s130.07,50.72,152.74,55,10.85-74.37,10.85-74.37S654.55,388.59,641.17,340.58Z" fill="#686175" data-primary="true"/><path d="M594.48,323.92s3.09,5.83-5,8.89c-21.06,7.77-43.5.91-41.11-7.33.91-3.15,6.12,0,5.83-11.67a14.13,14.13,0,0,0-1.42-5.17,53.08,53.08,0,0,0-5.34-9,111.5,111.5,0,0,0-7.22-9s33.43-21.39,58.22,0C598.37,290.57,589.15,295.24,594.48,323.92Z" fill="#f9b499"/><path d="M635.9,600.29c-13.17,21.39-80,31.52-116.42,30.56S378.12,580.3,371,569.72c-6.59-9.72-22.78-41.94,2.18-61.41a48.62,48.62,0,0,1,6.73-4.35c17.09-9.26,130.76,19.93,130.76,19.93s7-4.45,9.63-4.12c7.93,1,13.61,7.42,29.63,12,11.22,3.21,41.85-9.12,61.41,1.48a26.86,26.86,0,0,1,5.95,4.32C635.57,555,649,578.84,635.9,600.29Z" fill="#2f2e41"/><g clip-path="url(#a63ed2b4-1e00-4d9a-ad6d-bca47121cb81)"><path d="M611.34,533.24c-20.05-1.34-37.92,2.86-50.4,10.23-14.8,8.75-84.68,42.41-84.68,42.41.15-3.62,4-10.91,4-10.91-6.57-5.83-23.76-10.4-23.76-10.4-13.32-11.38-66.11-45.31-83.36-56.26a48.62,48.62,0,0,1,6.73-4.35c17.09-9.26,130.76,19.93,130.76,19.93s7-4.45,9.63-4.12c7.93,1,13.61,7.42,29.63,12C561.21,535,591.78,522.64,611.34,533.24Z" fill-opacity="0.7" opacity="0.3" style="isolation:isolate"/></g><path d="M655.17,427.68s-4.57,79.72-10,84.29-13.88,6-30,7.33S528,525,528,525l-7.66-22.85s37.82-3.89,54.6-10a279.85,279.85,0,0,1,38.73-10.23s-3.19-20.05-3.19-28.68v-40.6" fill="#f9b499"/><path d="M641.17,340.58c17.32,10.68,22.44,35.35,16.45,88,0,0,5.11,6.22-2.45,9.33,0,0-28.33-10.59-41.5-3.28S604,424.57,604,424.57s-5.42-48.46,6.57-57.23" fill="#686175" data-primary="true"/><g opacity="0.2"><path d="M609.06,436.89l-.17,0c-.18-.07-4.35-1.68-4.35-4.93a72.09,72.09,0,0,1,1.92-10.87c-14.56-43.46,1.94-61.3,2.11-61.47a.49.49,0,0,1,.7,0,.5.5,0,0,1,0,.71c-.17.17-16.27,17.67-1.83,60.61a.53.53,0,0,1,0,.28A71,71,0,0,0,605.54,432c0,2.51,3.66,3.93,3.7,3.94a.5.5,0,0,1-.18,1Z"/></g><g opacity="0.2"><path d="M603.91,420.44a.47.47,0,0,1-.28-.09C590.32,411,589,389.52,589,389.3a.5.5,0,0,1,.47-.53.47.47,0,0,1,.52.48c0,.21,1.35,21.25,14.26,30.28a.5.5,0,0,1,.12.69A.5.5,0,0,1,603.91,420.44Z"/></g><g opacity="0.2"><path d="M569.86,344.18a48.25,48.25,0,0,1-22.77-5.2c-12.47-6.64-7.44-17.48-7.39-17.59a.5.5,0,0,1,.67-.23.49.49,0,0,1,.23.66c-.19.41-4.65,10.1,7,16.28,20.11,10.73,45.73,1.14,46,1a.5.5,0,1,1,.36.93A75.65,75.65,0,0,1,569.86,344.18Z"/></g><path d="M407.89,540.59H548.55a36.87,36.87,0,0,0,9.41-1.22l27.75-7.28a1.78,1.78,0,0,0,1.34-1.73h0a1.81,1.81,0,0,0-1.81-1.8H402.08a1.8,1.8,0,0,0-1.79,1.8V533a7.6,7.6,0,0,0,7.6,7.6Z" fill="#ccc"/><path d="M407.89,540.59H548.55a36.87,36.87,0,0,0,9.41-1.22l27.75-7.28a1.78,1.78,0,0,0,1.34-1.73h0a1.81,1.81,0,0,0-1.81-1.8H402.08a1.8,1.8,0,0,0-1.79,1.8V533a7.6,7.6,0,0,0,7.6,7.6Z" opacity="0.2"/><path d="M394,533.59H535a3.34,3.34,0,0,0,3.49-3.19,3.48,3.48,0,0,0-.2-1.32L512.17,427.33a6.22,6.22,0,0,0-5.64-4.53H365.44A3.36,3.36,0,0,0,362,426a3.23,3.23,0,0,0,.21,1.3l26.17,101.75A6.19,6.19,0,0,0,394,533.59Z" fill="#ccc"/><g opacity="0.2"><path d="M370.42,426.91h-2.66a.5.5,0,0,1-.5-.5.5.5,0,0,1,.5-.5h2.66a.5.5,0,0,1,.5.5A.5.5,0,0,1,370.42,426.91Z"/></g><g opacity="0.2"><path d="M391.09,426.91H377.32a.5.5,0,0,1-.5-.5.51.51,0,0,1,.5-.5h13.77a.5.5,0,0,1,.5.5A.5.5,0,0,1,391.09,426.91Z"/></g><g opacity="0.2"><path d="M531.62,521.24a.5.5,0,0,1-.49-.38L508,431.07a5.71,5.71,0,0,0-5.16-4.16H394.2a.5.5,0,0,1-.5-.5.51.51,0,0,1,.5-.5H502.9a6.72,6.72,0,0,1,6.1,4.9l23.1,89.8a.5.5,0,0,1-.36.61Z"/></g><g opacity="0.2"><path d="M533.62,529.06a.5.5,0,0,1-.48-.38l-.59-2.23a.5.5,0,0,1,.36-.61.49.49,0,0,1,.61.35l.58,2.24a.5.5,0,0,1-.35.61Z"/></g><path d="M436.93,481a10.19,10.19,0,0,0,.45,2c1.7,5.82,7.15,9.37,12.16,7.89s7.68-7.39,6-13.21-7.19-9.37-12.19-7.89a5.54,5.54,0,0,0-1.4.49A11.31,11.31,0,0,1,436.93,481Z" fill="#fff"/><path d="M447.26,492.34a10,10,0,0,1-4.8-1.26,12.92,12.92,0,0,1-6-7.75,14.16,14.16,0,0,1-.52-2.51.51.51,0,0,1,.23-.48,10.39,10.39,0,0,0,4.77-10.22.5.5,0,0,1,.25-.51,9.26,9.26,0,0,1,9.28.1,12.9,12.9,0,0,1,6.05,7.74c1.86,6.38-1.12,12.89-6.64,14.52A9,9,0,0,1,447.26,492.34ZM436.93,481a14.29,14.29,0,0,0,.45,2,12,12,0,0,0,5.56,7.16,8.63,8.63,0,0,0,6.61.8c5-1.47,7.68-7.43,6-13.28a11.91,11.91,0,0,0-5.57-7.14,8.65,8.65,0,0,0-6.65-.82,8.05,8.05,0,0,0-1.37.56A11.38,11.38,0,0,1,436.93,481Z" opacity="0.2"/><path d="M498.66,290.07c-12.21-1.32-18.86-12.93-26.21-14.74a80.62,80.62,0,0,1-12-3.89s-2.53-8.83-6.32-5.83-8.77,69-3.89,66.94,4.9,5.72,4.9,5.72l45.33,39.94,38-67.28S510.87,291.41,498.66,290.07Z" fill="#686175" data-primary="true"/><g opacity="0.2"><path d="M493.72,363.37h0a.5.5,0,0,1-.48-.52c1.37-33,13-55,13.11-55.17a.49.49,0,0,1,.67-.2.49.49,0,0,1,.21.67c-.12.22-11.63,22-13,54.74A.5.5,0,0,1,493.72,363.37Z"/></g><g opacity="0.2"><path d="M486.08,355.3a.51.51,0,0,1-.4-.2C475.59,341.78,472,323.23,472,323a.48.48,0,0,1,.39-.58.5.5,0,0,1,.59.4c0,.18,3.58,18.51,13.52,31.64a.51.51,0,0,1-.1.7A.57.57,0,0,1,486.08,355.3Z"/></g><g opacity="0.2"><path d="M575.89,474.07a.46.46,0,0,1-.2-.05c-37.79-16.81-55.61-74.13-55.79-74.7a.5.5,0,1,1,1-.29c.17.57,17.87,57.45,55.24,74.08a.5.5,0,0,1-.21,1Z"/></g><path d="M567.36,297.31s-1.65,12.54-13.71,13.41a54.12,54.12,0,0,0-5.35-9A168.32,168.32,0,0,1,567.36,297.31Z" fill="#f4a58c"/><polygon points="173.91 326.32 203.91 326.88 173.91 357.72 173.91 326.32" opacity="0.2"/><path d="M170.18,246.37a11.92,11.92,0,0,1-3.17,2.39c-3.18,1.6-4.45.77-4.5.73A96.24,96.24,0,0,1,152.17,241a22.09,22.09,0,0,0-3.19-2.6c-6.18-4-24.83-12.73-47.81,9.33V272H194.6V247.47C186.69,231.2,173.85,242.59,170.18,246.37Z" opacity="0.2"/><rect x="220.8" y="405.91" width="117.81" height="73.83" fill="#f48225" data-secondary="true"/><rect x="220.8" y="405.91" width="117.81" height="11.22" opacity="0.2"/><line x1="232.83" y1="426.61" x2="262.93" y2="426.61" fill="none" stroke="#fff" stroke-linecap="round" stroke-linejoin="round"/><line x1="247.87" y1="435" x2="299.99" y2="435" fill="none" stroke="#fff" stroke-linecap="round" stroke-linejoin="round"/><line x1="241.22" y1="442.83" x2="256.57" y2="442.83" fill="none" stroke="#fff" stroke-linecap="round" stroke-linejoin="round"/><line x1="247.87" y1="452.08" x2="282.98" y2="452.08" fill="none" stroke="#fff" stroke-linecap="round" stroke-linejoin="round"/><line x1="232.83" y1="460.49" x2="262.93" y2="460.49" fill="none" stroke="#fff" stroke-linecap="round" stroke-linejoin="round"/><rect x="659.12" y="109.02" width="117.81" height="73.83" fill="#d1d3d4"/><rect x="659.12" y="109.02" width="117.81" height="11.22" fill="#a7a9ac" fill-opacity="0.7" style="isolation:isolate"/><line x1="671.15" y1="129.72" x2="701.25" y2="129.72" fill="none" stroke="#fff" stroke-linecap="round" stroke-linejoin="round"/><line x1="686.19" y1="138.11" x2="738.31" y2="138.11" fill="none" stroke="#fff" stroke-linecap="round" stroke-linejoin="round"/><line x1="679.54" y1="145.95" x2="694.88" y2="145.95" fill="none" stroke="#fff" stroke-linecap="round" stroke-linejoin="round"/><line x1="686.19" y1="155.19" x2="721.3" y2="155.19" fill="none" stroke="#fff" stroke-linecap="round" stroke-linejoin="round"/><line x1="671.15" y1="163.6" x2="701.25" y2="163.6" fill="none" stroke="#fff" stroke-linecap="round" stroke-linejoin="round"/><ellipse cx="557.83" cy="263.59" rx="45.41" ry="29.3" transform="translate(115.07 693.26) rotate(-69.43)" fill="#f9b499"/><path d="M621.61,228.56A32.1,32.1,0,0,0,608.93,209a59.26,59.26,0,0,0-24.38-10s6.43,2.82,8.88,6.53c0,0-16.66-12.52-36.46-4.3s-17.32,29.6-17.32,29.6l2.88-5.6s-.34,6.67,3.16,9.12A44,44,0,0,1,550,225s5.25,15.77,19.7,21.12a11.49,11.49,0,0,1-.23-7.78s8,17.33,5.68,25.79l2.54,4.43s9.2-9.31,16.69-1.56c4.29,4.48-8.23,21.39-10,21.39l7.57,11.11s18.9,2.7,29.78-17.78,8.23-29.16,8.23-29.16,3.56,5,3.89,7.78C633.82,260.34,637.05,238.34,621.61,228.56Z" fill="#2f2e41"/><path d="M577.14,270.56S583,251,595.38,257.87s3.55,17.36-.9,21.39-7.78,11.33-10.67,11.33-3.54-3.56-3.54-3.56" fill="#f9b499"/></svg>