<svg id="a6d64b75-43ac-4791-9d90-80b8b834369d" data-name="Layer 1" xmlns="http://www.w3.org/2000/svg" width="865.76" height="682.89" viewBox="0 0 865.76 682.89"><polygon points="564.37 618.18 562.14 635.4 597.69 635.4 595.46 618.18 564.37 618.18" fill="#2f2e41"/><rect x="500.78" y="578.45" width="26.82" height="32.31" fill="#f9b499"/><rect x="566.5" y="578.45" width="26.82" height="32.31" fill="#f9b499"/><polygon points="480.55 320.86 468.12 335.89 455.57 323.77 469.79 314.63 480.55 320.86" fill="#f9b499"/><path d="M483.37,528.77s46.71-26.76,88-23.74L569,469.89s-2.68-15.2,3.73-28.14c0,0,14.81-28.73-1.32-56.93l-49.77,3S515.71,409,509,426.38c0,0-6.55,22.22-10.84,41.43Z" fill="#686175" data-primary="true"/><path d="M483.37,528.77s46.71-26.76,88-23.74L569,469.89s-2.68-15.2,3.73-28.14c0,0,14.81-28.73-1.32-56.93l-49.77,3S515.71,409,509,426.38c0,0-6.55,22.22-10.84,41.43Z" opacity="0.2"/><path d="M592.3,589.73H563.05A3.1,3.1,0,0,1,560,586.9L547.71,447.81,534.36,588.39a4,4,0,0,1-4.15,3.59L502,590.54a4,4,0,0,1-3.76-4.09L504.94,376l87-10,3.51,220.55A3.1,3.1,0,0,1,592.3,589.73Z" fill="#2f2e41"/><path d="M516.92,378.48s22.16,9.5,49.79-7.16l-5.28-153.61-25.84-4.47q-3.36,9-6.33,18.62C512.79,285.37,512,336.06,516.92,378.48Z" fill="#ccc"/><path d="M453.23,33.35l-8.53.15L446,13.14a2.7,2.7,0,0,1,2.69-2.52h0a2.69,2.69,0,0,1,2.68,2.44Z" fill="#f48225" data-secondary="true"/><path d="M453.23,33.35l-8.53.15L446,13.14a2.7,2.7,0,0,1,2.69-2.52h0a2.69,2.69,0,0,1,2.68,2.44Z" fill="#231f20" opacity="0.2"/><path d="M294.35,113.48s16.25,3.5,13.51,14.17c0,0,48.46-10.36,83.81,7.62,0,0,69.14-23.26,116.55,0,0,0,47.11-19,84.9-11.61,0,0-3.66-10,14-14.9,0,0-31.93-8-82.9-5.49,0,0-75-19.81-149.33,2.74C374.91,106,348.6,103.37,294.35,113.48Z" fill="#f48225" data-secondary="true"/><path d="M294.35,113.48s16.25,3.5,13.51,14.17c0,0,48.46-10.36,83.81,7.62,0,0,69.14-23.26,116.55,0,0,0,47.11-19,84.9-11.61,0,0-3.66-10,14-14.9,0,0-31.93-8-82.9-5.49,0,0-75-19.81-149.33,2.74C374.91,106,348.6,103.37,294.35,113.48Z" fill="#fff" opacity="0.2"/><path d="M406.74,38.48c-36.46,8.25-87.1,28-112.39,75,0,0,49.68-9.4,80.56-7.47,0,0,62.17-22.25,149.33-2.74,0,0,47.55-2.24,82.9,5.49,0,0-28.72-53.74-111.85-71A208.67,208.67,0,0,0,406.74,38.48Z" fill="#f48225" data-secondary="true"/><g opacity="0.1"><path d="M375.38,106.13l-.94-.24a135.19,135.19,0,0,1,15.11-33.8c9.94-15.85,27.63-34.89,55.15-38.59l8.53-.15c29,4.23,46.84,22.64,56.75,37.74a118.25,118.25,0,0,1,14.74,32.06l-1,.24A116.78,116.78,0,0,0,509.15,71.6c-9.8-14.92-27.47-33.59-56-37.77H444.7C392.78,40.82,375.55,105.48,375.38,106.13Z" fill="#231f20"/></g><path d="M556.17,222l-9.47,9.46a5.49,5.49,0,0,1-6.23,1.11c-3.31-1.57-4.88-4.93-4.88-8.83V183.27h21.16l1.32,33.85A6.52,6.52,0,0,1,556.17,222Z" fill="#f9b499"/><path d="M535.59,213.24a106.54,106.54,0,0,0-2,51.6c3.4,49.21-2.68,80-6,97.23a372.4,372.4,0,0,1-16.74,59.12c-2.57,6.87-3.89,14.69-5.62,21.82C497,476.85,488,509.88,479.75,543.71l-16.29-8.27a5,5,0,0,1-2.59-5.62q4.59-19.12,8.59-39.79c5-25.87,8.54-50.5,11-73.66,1.7-8.07,2.84-20.41,7.46-34.49a290.45,290.45,0,0,0,12.23-54.44c3.77-30,1.14-54.93-.4-75.52a6.94,6.94,0,0,1,2.4-6c3.28-2.66,6-5.13,8.25-7.25,3.25-3.12,6.12-6.19,8.63-9.11.9-1,1.76-2.11,2.59-3.21a56.94,56.94,0,0,1,13.94-13.08" fill="#686175" data-primary="true"/><path d="M649.6,519.35c-18.68,11.3-75.68,27.1-75.68,27.1L568.23,473c-2.75-17.37,3.25-28.66,3.25-28.66a68.72,68.72,0,0,0,6.46-21.83,66.51,66.51,0,0,0-10.2-44.11c-3.84-6-8-13.49-11.71-20.31a106.7,106.7,0,0,1-12.76-50.55c0-30.17,8.1-50.94,8.1-50.94,8.84-22.86,6.25-51,6.25-51a240.2,240.2,0,0,1,30,19,237.29,237.29,0,0,1,23.77,20.52l6.09,114.19s30.21,109.43,35.51,153A7.15,7.15,0,0,1,649.6,519.35Z" fill="#686175" data-primary="true"/><path d="M491.49,370.28h0L458.36,347a2.87,2.87,0,0,1-.7-4l19.72-28.12a2.89,2.89,0,0,1,4-.72l2.19,1.49s8.83-67.73,16.73-67.31a10,10,0,0,0-.5,3.55s6.08,48.68-.25,80.34C499.53,332.26,496.44,354.05,491.49,370.28Z" fill="#686175" data-primary="true"/><path d="M491.49,370.28h0L458.36,347a2.87,2.87,0,0,1-.7-4l19.72-28.12a2.89,2.89,0,0,1,4-.72l2.19,1.49s8.83-67.73,16.73-67.31a10,10,0,0,0-.5,3.55s6.08,48.68-.25,80.34C499.53,332.26,496.44,354.05,491.49,370.28Z" opacity="0.2"/><rect x="564.37" y="597.45" width="31.09" height="20.72" fill="#686175" data-primary="true"/><path d="M574.45,623.36h21a0,0,0,0,1,0,0v35.56a0,0,0,0,1,0,0h-21a10.08,10.08,0,0,1-10.08-10.08V633.44A10.08,10.08,0,0,1,574.45,623.36Z" transform="translate(1221.05 61.22) rotate(90)" fill="#686175" data-primary="true"/><path d="M498.54,597.45v28.14H477.46a16,16,0,0,0-16,16v11.53h68.17V597.45Z" fill="#686175" data-primary="true"/><polygon points="575.14 393.46 585 380.21 569.38 365.79 561.89 373.99 575.14 393.46" fill="#f9b499"/><path d="M617.1,251.44c-.82-2.6-3.6-4.23-5.69-6.3l-18.24-16.21,1.42,99.37a16.06,16.06,0,0,1-4.17,11l-21.79,24a2.24,2.24,0,0,0,.15,3.16L595,390.32a2.24,2.24,0,0,0,3.24-.24,205.22,205.22,0,0,0,32.71-56,25.37,25.37,0,0,0,1.25-13.88C629.1,303.6,625.38,277.9,617.1,251.44Z" fill="#686175" data-primary="true"/><path d="M617.1,251.44c-.82-2.6-3.6-4.23-5.69-6.3l-18.24-16.21,1.42,99.37a16.06,16.06,0,0,1-4.17,11l-21.79,24a2.24,2.24,0,0,0,.15,3.16L595,390.32a2.24,2.24,0,0,0,3.24-.24,205.22,205.22,0,0,0,32.71-56,25.37,25.37,0,0,0,1.25-13.88C629.1,303.6,625.38,277.9,617.1,251.44Z" opacity="0.2"/><path d="M453.23,292.89h-2.74l-1.41-196a1.49,1.49,0,0,1,1.37-1.6h0a1.48,1.48,0,0,1,1.37,1.57Z" fill="#f48225" data-secondary="true"/><path d="M454.55,289.64a31.54,31.54,0,0,1,13.21,15.24,29.7,29.7,0,0,1,2,9.75l-14.22,9.14Z" fill="#f9b499"/><polygon points="443.48 314.63 449.07 319.1 449.07 313.82 443.48 314.63" fill="#f4a68e"/><path d="M449.08,342V290h6.49v50.46c0,7.52,6.41,15.85,13.92,15.85h4.88c7.52,0,13.3-8.33,13.3-15.85h7.11V342A21.89,21.89,0,0,1,472.9,363.9H471A21.89,21.89,0,0,1,449.08,342Z" fill="#f48225" data-secondary="true"/><path d="M449.08,342V290h6.49v50.46c0,7.52,6.41,15.85,13.92,15.85h4.88c7.52,0,13.3-8.33,13.3-15.85h7.11V342A21.89,21.89,0,0,1,472.9,363.9H471A21.89,21.89,0,0,1,449.08,342Z" fill="#231f20" opacity="0.2"/><path d="M443.48,314.63,456,312.81a3.59,3.59,0,0,0,2.56-5.19c-1.33-2.57-2.87-5.26-4.64-8-2.21-3.47-6.6-6.55-8.76-9.25a.94.94,0,0,0-1-.4.91.91,0,0,0-.67.89Z" fill="#f9b499"/><path d="M535.59,211.64v-6l21.16-18.69S559.7,211.68,535.59,211.64Z" fill="#f4a68e"/><ellipse cx="539.13" cy="181.55" rx="17.63" ry="27.63" fill="#f9b499"/><path d="M556.75,199.63c6.55-1.52,7.85-4.88,8.09-6.46a47.43,47.43,0,0,1,1.15-5.79c.18-.66.37-1.3.57-1.9a41.59,41.59,0,0,1,3.91-8.46c6.55-11.13-2.67-17.09-2.67-17.09-2.57-.88-.89-3-.89-3,5.18-11-14-17.67-14-17.67-7.31-3.66-25,4.26-25,4.26-8.53,4.27-12.59-4.26-12.59-4.26-16.85,18,1.61,24.68,1.61,24.68s-5.78,12,4.58,17.58c0,0-.26-10.5,5.07-19.13a12.94,12.94,0,0,1,16.52-5.14c4.35,2.06,9.08,6.66,12.55,16.38a19.92,19.92,0,0,1,1.11,6.62Z" fill="#2f2e41"/><ellipse cx="559.7" cy="182.56" rx="4.27" ry="7.52" fill="#f9b499"/><path d="M230.5,620.43c-.13.26-1.41-.19-3.14-.14s-3,.54-3.12.27,1.14-1.25,3.11-1.29S230.65,620.19,230.5,620.43Z" fill="#263238"/><path d="M230.83,614.16a5.45,5.45,0,0,1-3-.13,12.82,12.82,0,0,1-3.12-1.08,12,12,0,0,1-1.71-1,3.89,3.89,0,0,1-.88-.74,1.29,1.29,0,0,1-.09-1.57,1.67,1.67,0,0,1,1.33-.63,4.24,4.24,0,0,1,1.12.19,12.33,12.33,0,0,1,1.86.72,10.79,10.79,0,0,1,2.71,1.93c1.41,1.4,1.8,2.46,1.69,2.52s-.79-.86-2.16-2a11.55,11.55,0,0,0-2.65-1.6,10.34,10.34,0,0,0-1.72-.61c-.63-.18-1.16-.21-1.4.07s0,.14,0,.34a3.51,3.51,0,0,0,.66.55,15.53,15.53,0,0,0,1.56,1,17.05,17.05,0,0,0,2.81,1.22A20.61,20.61,0,0,1,230.83,614.16Z" fill="#263238"/><path d="M293.56,620.25c-.13.27-1.41-.18-3.14-.14s-3,.52-3.12.27,1.14-1.27,3.11-1.3S293.71,620,293.56,620.25Z" fill="#263238"/><path d="M293.91,614a5.6,5.6,0,0,1-3-.13,13.28,13.28,0,0,1-3.12-1.09,13.7,13.7,0,0,1-1.7-1,4.55,4.55,0,0,1-.89-.74,1.29,1.29,0,0,1-.07-1.58,1.59,1.59,0,0,1,1.31-.62,4,4,0,0,1,1.14.2,10.33,10.33,0,0,1,1.84.72,10.56,10.56,0,0,1,2.72,1.92c1.4,1.41,1.78,2.48,1.68,2.54s-.78-.86-2.16-2A12.42,12.42,0,0,0,289,610.6a11.4,11.4,0,0,0-1.7-.59c-.63-.2-1.18-.22-1.41,0s-.08.14,0,.34a3.86,3.86,0,0,0,.66.55c.51.35,1,.67,1.57,1a16.73,16.73,0,0,0,2.81,1.23A23.73,23.73,0,0,1,293.91,614Z" fill="#263238"/><path d="M456.3,648.36c-.32,7.36,22.92,14.3,51.78,15.54s52.72-3.73,53-11.08-22.92-14.26-51.78-15.51S456.61,641,456.3,648.36Z" fill="#cecece"/><rect x="502.4" y="591.39" width="13.29" height="105.03" transform="translate(-155.87 1125.19) rotate(-87.57)" fill="#cecece"/><path d="M456.85,635.07c-.31,7.35,22.92,14.29,51.79,15.54s52.72-3.73,53-11.09-22.93-14.25-51.79-15.5S457.16,627.75,456.85,635.07Z" fill="#cecece"/><path d="M456.85,635.07c-.31,7.35,22.92,14.29,51.79,15.54s52.72-3.73,53-11.09-22.93-14.25-51.79-15.5S457.16,627.75,456.85,635.07Z" fill="#fff" opacity="0.4" style="isolation:isolate"/><path d="M463.55,634.86a2.16,2.16,0,0,0,.44,1.32c3.46-4.32,22.69-6.91,45.61-5.91s41.88,5.15,44.89,9.74a1.87,1.87,0,0,0,.55-1.28c.2-5-20.1-9.94-45.4-11S463.75,629.89,463.55,634.86Z" fill="#cecece"/><path d="M463.55,634.86a2.16,2.16,0,0,0,.44,1.32c3.46-4.32,22.69-6.91,45.61-5.91s41.88,5.15,44.89,9.74a1.87,1.87,0,0,0,.55-1.28c.2-5-20.1-9.94-45.4-11S463.75,629.89,463.55,634.86Z" fill="#cecece" opacity="0.4" style="isolation:isolate"/><path d="M464,636.18c3.15,4.59,22,8.73,44.89,9.7S551,644.32,554.49,640c-3.08-4.59-22-8.74-44.89-9.74S467.52,631.86,464,636.18Z" fill="#cecece" opacity="0.4" style="isolation:isolate"/><path d="M445.14,628.23c-.31,7.36,22.93,14.3,51.79,15.54s52.72-3.73,53-11S527,618.43,498.17,617.19,445.59,620.91,445.14,628.23Z" fill="#cecece"/><rect x="491.38" y="571.33" width="13.29" height="105.03" transform="matrix(0.04, -1, 1, 0.04, -146.37, 1094.98)" fill="#cecece"/><path d="M445.83,615c-.31,7.32,22.93,14.26,51.79,15.5s52.72-3.73,53-11.05-22.92-14.29-51.79-15.54S446.14,607.62,445.83,615Z" fill="#cecece"/><path d="M445.83,615c-.31,7.32,22.93,14.26,51.79,15.5s52.72-3.73,53-11.05-22.92-14.29-51.79-15.54S446.14,607.62,445.83,615Z" fill="#fff" opacity="0.4" style="isolation:isolate"/><path d="M452.53,614.73a2,2,0,0,0,.45,1.32c3.45-4.32,22.68-6.91,45.61-5.87s41.88,5.11,44.88,9.7a2.07,2.07,0,0,0,.55-1.24c.21-5-20.09-10-45.4-11S452.74,609.76,452.53,614.73Z" fill="#cecece"/><path d="M452.53,614.73a2,2,0,0,0,.45,1.32c3.45-4.32,22.68-6.91,45.61-5.87s41.88,5.11,44.88,9.7a2.07,2.07,0,0,0,.55-1.24c.21-5-20.09-10-45.4-11S452.74,609.76,452.53,614.73Z" fill="#cecece" opacity="0.4" style="isolation:isolate"/><path d="M453,616.05c3.11,4.59,22,8.73,44.88,9.7s42.16-1.56,45.61-5.87c-3.07-4.59-22-8.74-44.88-9.7S456.47,611.73,453,616.05Z" fill="#cecece" opacity="0.4" style="isolation:isolate"/><path d="M446.7,604c-.31,7.35,22.92,14.29,51.78,15.53s52.73-3.72,53-11.08-22.93-14.26-51.79-15.5S447,596.68,446.7,604Z" fill="#cecece"/><rect x="492.81" y="547.07" width="13.29" height="105.03" transform="translate(-120.76 1073.17) rotate(-87.57)" fill="#cecece"/><path d="M447.25,590.71c-.31,7.35,22.92,14.29,51.79,15.53s52.68-3.73,53-11-22.92-14.29-51.78-15.53S447.56,583.39,447.25,590.71Z" fill="#cecece"/><path d="M447.25,590.71c-.31,7.35,22.92,14.29,51.79,15.53s52.68-3.73,53-11-22.92-14.29-51.78-15.53S447.56,583.39,447.25,590.71Z" fill="#fff" opacity="0.4" style="isolation:isolate"/><path d="M454,590.5a2.16,2.16,0,0,0,.45,1.31c3.45-4.32,22.68-6.9,45.6-5.87s41.88,5.11,44.89,9.7a1.76,1.76,0,0,0,.55-1.24c.21-5-20.09-10-45.4-11S454.15,585.53,454,590.5Z" fill="#cecece"/><path d="M454,590.5a2.16,2.16,0,0,0,.45,1.31c3.45-4.32,22.68-6.9,45.6-5.87s41.88,5.11,44.89,9.7a1.76,1.76,0,0,0,.55-1.24c.21-5-20.09-10-45.4-11S454.15,585.53,454,590.5Z" fill="#cecece" opacity="0.4" style="isolation:isolate"/><path d="M454.4,591.81c3.14,4.59,22,8.74,44.88,9.7s42.15-1.55,45.61-5.87c-3.08-4.59-22-8.73-44.89-9.7S457.92,587.56,454.4,591.81Z" fill="#cecece" opacity="0.4" style="isolation:isolate"/><path d="M435.68,583.9c-.31,7.32,22.93,14.26,51.79,15.51s52.72-3.73,53-11-22.92-14.3-51.79-15.54S436,576.55,435.68,583.9Z" fill="#cecece"/><rect x="481.76" y="526.87" width="13.29" height="105.03" transform="translate(-111.16 1042.79) rotate(-87.57)" fill="#cecece"/><path d="M436.24,570.61c-.31,7.32,22.92,14.26,51.78,15.5s52.72-3.73,53-11-22.92-14.3-51.78-15.54S436.55,563.4,436.24,570.61Z" fill="#cecece"/><path d="M436.24,570.61c-.31,7.32,22.92,14.26,51.78,15.5s52.72-3.73,53-11-22.92-14.3-51.78-15.54S436.55,563.4,436.24,570.61Z" fill="#fff" opacity="0.4" style="isolation:isolate"/><path d="M442.93,570.3a1.89,1.89,0,0,0,.45,1.31c3.46-4.31,22.69-6.9,45.61-5.87s41.88,5.11,44.88,9.71a2.17,2.17,0,0,0,.56-1.25c.2-5-20.1-10-45.4-11.05S443.14,565.4,442.93,570.3Z" fill="#cecece"/><path d="M442.93,570.3a1.89,1.89,0,0,0,.45,1.31c3.46-4.31,22.69-6.9,45.61-5.87s41.88,5.11,44.88,9.71a2.17,2.17,0,0,0,.56-1.25c.2-5-20.1-10-45.4-11.05S443.14,565.4,442.93,570.3Z" fill="#cecece" opacity="0.4" style="isolation:isolate"/><path d="M443.38,571.68c3.11,4.59,22,8.74,44.89,9.7s42.15-1.55,45.6-5.87c-3.07-4.59-21.95-8.73-44.88-9.7S446.87,567.37,443.38,571.68Z" fill="#cecece" opacity="0.4" style="isolation:isolate"/><path d="M444.25,658.28c-.53,7.35-24.41,11.58-53.22,9.51s-51.95-9.74-51.42-17.08,24.41-11.54,53.23-9.47S444.78,651,444.25,658.28Z" fill="#cecece"/><rect x="385.72" y="595.3" width="13.29" height="105.03" transform="translate(-282.11 992.35) rotate(-85.86)" fill="#cecece"/><path d="M445.23,645c-.54,7.34-24.41,11.57-53.23,9.5s-51.95-9.74-51.41-17.08S365,625.9,393.81,628,445.76,637.71,445.23,645Z" fill="#cecece"/><path d="M445.23,645c-.54,7.34-24.41,11.57-53.23,9.5s-51.95-9.74-51.41-17.08S365,625.9,393.81,628,445.76,637.71,445.23,645Z" fill="#fff" opacity="0.4" style="isolation:isolate"/><path d="M438.6,644a2.19,2.19,0,0,1-.6,1.26c-2.94-4.69-21.74-9.46-44.63-11.09s-42.2.32-45.7,4.53a1.83,1.83,0,0,1-.41-1.33c.37-5,21.1-7.58,46.37-5.74S439,639.08,438.6,644Z" fill="#cecece"/><path d="M438.6,644a2.19,2.19,0,0,1-.6,1.26c-2.94-4.69-21.74-9.46-44.63-11.09s-42.2.32-45.7,4.53a1.83,1.83,0,0,1-.41-1.33c.37-5,21.1-7.58,46.37-5.74S439,639.08,438.6,644Z" fill="#cecece" opacity="0.4" style="isolation:isolate"/><path d="M438,645.3c-3.65,4.2-22.88,6.15-45.7,4.49s-41.7-6.36-44.63-11c3.57-4.21,22.81-6.16,45.7-4.53S435,640.6,438,645.3Z" fill="#cecece" opacity="0.4" style="isolation:isolate"/><path d="M457.64,639.56c-.54,7.35-24.41,11.58-53.23,9.51s-52-9.74-51.42-17.05,24.41-11.57,53.23-9.5S458,632.24,457.64,639.56Z" fill="#cecece"/><rect x="398.95" y="576.64" width="13.29" height="105.03" transform="translate(-251.21 988.23) rotate(-85.86)" fill="#cecece"/><path d="M458.47,626.32c-.53,7.3-24.41,11.54-53.22,9.47s-51.95-9.74-51.42-17,24.41-11.58,53.22-9.51S459,619,458.47,626.32Z" fill="#cecece"/><path d="M458.47,626.32c-.53,7.3-24.41,11.54-53.22,9.47s-51.95-9.74-51.42-17,24.41-11.58,53.22-9.51S459,619,458.47,626.32Z" fill="#fff" opacity="0.4" style="isolation:isolate"/><path d="M451.84,625.31a2,2,0,0,1-.59,1.25c-2.94-4.68-21.75-9.46-44.64-11s-42.19.28-45.7,4.5a2.23,2.23,0,0,1-.41-1.3c.37-5,21.11-7.61,46.37-5.78S452.2,620.35,451.84,625.31Z" fill="#cecece"/><path d="M451.84,625.31a2,2,0,0,1-.59,1.25c-2.94-4.68-21.75-9.46-44.64-11s-42.19.28-45.7,4.5a2.23,2.23,0,0,1-.41-1.3c.37-5,21.11-7.61,46.37-5.78S452.2,620.35,451.84,625.31Z" fill="#cecece" opacity="0.4" style="isolation:isolate"/><path d="M451.25,626.56c-3.62,4.21-22.89,6.16-45.7,4.5s-41.7-6.37-44.64-11c3.58-4.21,22.81-6.17,45.7-4.5S448.28,621.87,451.25,626.56Z" fill="#cecece" opacity="0.4" style="isolation:isolate"/><path d="M458.87,615.31c-.54,7.34-24.41,11.57-53.23,9.51s-51.95-9.74-51.41-17.09,24.4-11.54,53.22-9.47S459.4,608,458.87,615.31Z" fill="#cecece"/><rect x="400.31" y="552.37" width="13.29" height="105.03" transform="translate(-225.75 967.07) rotate(-85.86)" fill="#cecece"/><path d="M459.84,602c-.53,7.34-24.41,11.58-53.23,9.51s-51.91-9.74-51.38-17,24.41-11.57,53.23-9.5S460.37,594.73,459.84,602Z" fill="#cecece"/><path d="M459.84,602c-.53,7.34-24.41,11.58-53.23,9.51s-51.91-9.74-51.38-17,24.41-11.57,53.23-9.5S460.37,594.73,459.84,602Z" fill="#fff" opacity="0.4" style="isolation:isolate"/><path d="M453.21,601.07a2.08,2.08,0,0,1-.6,1.25c-2.93-4.68-21.74-9.46-44.63-11.05s-42.19.28-45.7,4.5a1.8,1.8,0,0,1-.41-1.3c.37-5,21.11-7.61,46.37-5.78S453.57,596.11,453.21,601.07Z" fill="#cecece"/><path d="M453.21,601.07a2.08,2.08,0,0,1-.6,1.25c-2.93-4.68-21.74-9.46-44.63-11.05s-42.19.28-45.7,4.5a1.8,1.8,0,0,1-.41-1.3c.37-5,21.11-7.61,46.37-5.78S453.57,596.11,453.21,601.07Z" fill="#cecece" opacity="0.4" style="isolation:isolate"/><path d="M452.61,602.32c-3.64,4.2-22.88,6.16-45.69,4.5s-41.71-6.37-44.64-11.05c3.58-4.21,22.81-6.17,45.7-4.5S449.6,597.7,452.61,602.32Z" fill="#cecece" opacity="0.4" style="isolation:isolate"/><path d="M472.11,596.61c-.53,7.31-24.41,11.54-53.22,9.47s-51.95-9.74-51.42-17.05,24.41-11.57,53.23-9.5S472.64,589.27,472.11,596.61Z" fill="#cecece"/><rect x="413.6" y="533.57" width="13.29" height="105.03" transform="translate(-194.67 962.89) rotate(-85.86)" fill="#cecece"/><path d="M473.08,583.34c-.53,7.31-24.4,11.54-53.22,9.47s-51.95-9.74-51.42-17,24.41-11.58,53.23-9.51S473.6,576.14,473.08,583.34Z" fill="#cecece"/><path d="M473.08,583.34c-.53,7.31-24.4,11.54-53.22,9.47s-51.95-9.74-51.42-17,24.41-11.58,53.23-9.51S473.6,576.14,473.08,583.34Z" fill="#fff" opacity="0.4" style="isolation:isolate"/><path d="M465.86,583.59c-3.61,4.2-22.88,6.15-45.7,4.5s-41.7-6.37-44.64-11.06c3.58-4.21,22.82-6.16,45.7-4.5S462.89,578.9,465.86,583.59Z" fill="#cecece" opacity="0.4" style="isolation:isolate"/><path d="M452.5,566.85c-.31,7.32,22.92,14.26,51.79,15.5s52.72-3.73,53-11.05S534.39,557,505.53,555.77,452.81,559.49,452.5,566.85Z" fill="#cecece"/><rect x="498.62" y="509.9" width="13.29" height="105.03" transform="translate(-78.07 1043.38) rotate(-87.57)" fill="#cecece"/><path d="M453.08,553.56c-.31,7.32,22.93,14.25,51.79,15.5s52.72-3.73,53-11S535,543.72,506.12,542.47,453.39,546.13,453.08,553.56Z" fill="#cecece"/><path d="M453.08,553.56c-.31,7.32,22.93,14.25,51.79,15.5s52.72-3.73,53-11S535,543.72,506.12,542.47,453.39,546.13,453.08,553.56Z" fill="#fff" opacity="0.4" style="isolation:isolate"/><path d="M459.75,553.31a2.31,2.31,0,0,0,.45,1.32c3.45-4.32,22.71-6.91,45.6-5.87s41.92,5.11,44.89,9.7a2,2,0,0,0,.58-1.24c.21-5-20.09-10-45.4-11.05S460,548.34,459.75,553.31Z" fill="#cecece"/><path d="M459.75,553.31a2.31,2.31,0,0,0,.45,1.32c3.45-4.32,22.71-6.91,45.6-5.87s41.92,5.11,44.89,9.7a2,2,0,0,0,.58-1.24c.21-5-20.09-10-45.4-11.05S460,548.34,459.75,553.31Z" fill="#cecece" opacity="0.4" style="isolation:isolate"/><path d="M460.2,554.63c3.14,4.59,22,8.73,44.88,9.7s42.19-1.56,45.61-5.87c-3-4.59-22-8.74-44.89-9.7S463.72,550.31,460.2,554.63Z" fill="#cecece" opacity="0.4" style="isolation:isolate"/><path d="M441.48,546.72c-.31,7.32,22.93,14.29,51.79,15.5s52.72-3.73,53-11.05-22.92-14.29-51.79-15.53S441.69,539.23,441.48,546.72Z" fill="#cecece"/><rect x="487.57" y="489.74" width="13.29" height="105.03" transform="translate(-68.51 1013.03) rotate(-87.57)" fill="#cecece"/><path d="M442,533.43c-.31,7.32,22.92,14.29,51.78,15.5s52.72-3.69,53-11-22.93-14.29-51.79-15.53S442.35,526.07,442,533.43Z" fill="#cecece"/><path d="M442,533.43c-.31,7.32,22.92,14.29,51.78,15.5s52.72-3.69,53-11-22.93-14.29-51.79-15.53S442.35,526.07,442,533.43Z" fill="#fff" opacity="0.4" style="isolation:isolate"/><path d="M448.6,533.19a2,2,0,0,0,.44,1.31c3.46-4.32,22.69-6.91,45.61-5.87s41.88,5.11,44.89,9.73a1.94,1.94,0,0,0,.55-1.27c.21-5-20.1-10-45.4-11.05S448.94,528.21,448.6,533.19Z" fill="#cecece"/><path d="M448.6,533.19a2,2,0,0,0,.44,1.31c3.46-4.32,22.69-6.91,45.61-5.87s41.88,5.11,44.89,9.73a1.94,1.94,0,0,0,.55-1.27c.21-5-20.1-10-45.4-11.05S448.94,528.21,448.6,533.19Z" fill="#cecece" opacity="0.4" style="isolation:isolate"/><path d="M449.18,534.5c3.14,4.59,22,8.73,44.89,9.73s42.15-1.55,45.6-5.87c-3.07-4.62-21.95-8.76-44.88-9.73S452.7,530.18,449.18,534.5Z" fill="#cecece" opacity="0.4" style="isolation:isolate"/><path d="M306.58,624.75c-.35,7.36,22.89,14.29,51.79,15.5s52.68-3.69,53-11-22.89-14.29-51.78-15.5S306.89,617.4,306.58,624.75Z" fill="#cecece"/><rect x="352.65" y="567.75" width="13.29" height="105.03" transform="translate(-275.64 952.93) rotate(-87.57)" fill="#cecece"/><path d="M307.13,611.46c-.31,7.35,22.93,14.29,51.79,15.54s52.72-3.73,53-11.09-22.92-14.29-51.79-15.5S307.44,604.1,307.13,611.46Z" fill="#cecece"/><path d="M307.13,611.46c-.31,7.35,22.93,14.29,51.79,15.54s52.72-3.73,53-11.09-22.92-14.29-51.79-15.5S307.44,604.1,307.13,611.46Z" fill="#fff" opacity="0.4" style="isolation:isolate"/><path d="M313.8,611.22a1.83,1.83,0,0,0,.44,1.31c3.46-4.32,22.69-6.91,45.61-5.87s41.88,5.14,44.88,9.74a2.29,2.29,0,0,0,.56-1.28c.2-5-20.1-9.94-45.4-11S314,606.25,313.8,611.22Z" fill="#cecece"/><path d="M313.8,611.22a1.83,1.83,0,0,0,.44,1.31c3.46-4.32,22.69-6.91,45.61-5.87s41.88,5.14,44.88,9.74a2.29,2.29,0,0,0,.56-1.28c.2-5-20.1-9.94-45.4-11S314,606.25,313.8,611.22Z" fill="#cecece" opacity="0.4" style="isolation:isolate"/><path d="M314.28,612.53c3.11,4.59,22,8.77,44.88,9.74s42.16-1.56,45.61-5.87c-3.07-4.6-22-8.77-44.88-9.74S317.77,608.35,314.28,612.53Z" fill="#cecece" opacity="0.4" style="isolation:isolate"/><path d="M352.22,611.8c-1.72,7.15,19.78,18.37,48,25.07s52.48,6.35,54.17-.79-19.82-18.37-48-25.07S353.91,604.66,352.22,611.8Z" fill="#cecece"/><rect x="398.19" y="565.04" width="13.29" height="105.03" transform="translate(-289.64 868.5) rotate(-76.62)" fill="#cecece"/><path d="M355.23,598.86c-1.73,7.14,19.78,18.36,48,25.1s52.47,6.35,54.17-.8-19.72-18.26-48-25.17S357,591.71,355.23,598.86Z" fill="#cecece"/><path d="M355.23,598.86c-1.73,7.14,19.78,18.36,48,25.1s52.47,6.35,54.17-.8-19.72-18.26-48-25.17S357,591.71,355.23,598.86Z" fill="#fff" opacity="0.4" style="isolation:isolate"/><path d="M361.89,599.89a2,2,0,0,0,.21,1.38c4.24-3.45,23.58-2.41,45.88,2.9s40.15,13,42.29,18.06a2.07,2.07,0,0,0,.8-1.14c1.14-4.83-17.85-13.57-42.5-19.44S363.06,595.06,361.89,599.89Z" fill="#cecece"/><path d="M361.89,599.89a2,2,0,0,0,.21,1.38c4.24-3.45,23.58-2.41,45.88,2.9s40.15,13,42.29,18.06a2.07,2.07,0,0,0,.8-1.14c1.14-4.83-17.85-13.57-42.5-19.44S363.06,595.06,361.89,599.89Z" fill="#cecece" opacity="0.4" style="isolation:isolate"/><path d="M362.13,601.45c2.21,5.11,20,12.77,42.29,18s41.68,6.49,45.89,2.9c-2.14-5.07-19.92-12.74-42.3-18S366.34,597.68,362.13,601.45Z" fill="#cecece" opacity="0.4" style="isolation:isolate"/><circle cx="494.72" cy="497.78" r="47.3" fill="#cecece"/><circle cx="500.38" cy="497.78" r="47.3" fill="#cecece"/><circle cx="500.38" cy="497.78" r="47.3" fill="#fff" opacity="0.5" style="isolation:isolate"/><circle cx="500.39" cy="497.78" r="35.42" transform="translate(-205.42 499.62) rotate(-45)" fill="#cecece"/><path d="M514.71,509.48A14.7,14.7,0,0,1,503.63,514a15.4,15.4,0,0,1-14.78-9.63h19.06v-4.07H487.82a14.59,14.59,0,0,1,0-1.87,14.43,14.43,0,0,1,0-1.86h20.06v-4.08h-19a15.41,15.41,0,0,1,14.81-9.63,14.74,14.74,0,0,1,11.09,4.45l.55.56,3.83-3.77-.52-.55a20.05,20.05,0,0,0-15.15-6,20.74,20.74,0,0,0-20.72,14.95H476v4.08H482v3.73h-6v4.07h6.73a20.74,20.74,0,0,0,20.72,14.95,20,20,0,0,0,15.15-6.08l.52-.55-3.83-3.76Z" fill="#fff" opacity="0.3" style="isolation:isolate"/><path d="M303.34,636.36c-1.07,4.32-15.71,4.36-32.7,0s-29.9-11.22-28.83-15.5,15.75-4.35,32.73,0S304.37,632.15,303.34,636.36Z" fill="#407bff"/><rect x="269.57" y="593.09" width="8.04" height="63.42" transform="translate(-398.96 738.41) rotate(-75.94)" fill="#407bff"/><path d="M305.31,628.7c-1.11,4.32-15.75,4.35-32.73,0s-29.87-11.19-28.8-15.5,15.71-4.35,32.7,0S306.38,624.28,305.31,628.7Z" fill="#407bff"/><path d="M305.31,628.7c-1.11,4.32-15.75,4.35-32.73,0s-29.87-11.19-28.8-15.5,15.71-4.35,32.7,0S306.38,624.28,305.31,628.7Z" fill="#fff" opacity="0.4" style="isolation:isolate"/><path d="M301.44,627.28a1.09,1.09,0,0,1-.48.7c-1.28-3.11-11.95-7.88-25.38-11.23s-25.13-4.21-27.62-2.07a1.67,1.67,0,0,1,0-.83c.76-2.93,13.36-2.31,28.21,1.39S302.2,624.38,301.44,627.28Z" fill="#407bff"/><path d="M301.44,627.28a1.09,1.09,0,0,1-.48.7c-1.28-3.11-11.95-7.88-25.38-11.23s-25.13-4.21-27.62-2.07a1.67,1.67,0,0,1,0-.83c.76-2.93,13.36-2.31,28.21,1.39S302.2,624.38,301.44,627.28Z" fill="#407bff" opacity="0.4" style="isolation:isolate"/><path d="M300.92,628c-2.59,2.1-14.22,1.27-27.62-2.08s-24.17-8.14-25.41-11.22c2.59-2.14,14.23-1.31,27.62,2.07S299.68,624.87,300.92,628Z" fill="#407bff" opacity="0.4" style="isolation:isolate"/><path d="M332.89,650.52c.21,4.42-13.81,8.63-31.35,9.36s-31.83-2.25-32-6.67,13.81-8.63,31.35-9.39S332.72,646,332.89,650.52Z" fill="#cecece"/><rect x="269.26" y="643.9" width="63.42" height="8.04" transform="matrix(1, -0.04, 0.04, 1, -27.2, 13.34)" fill="#cecece"/><path d="M332.55,642.51c.2,4.45-13.81,8.63-31.32,9.39s-31.83-2.24-32-6.7,13.81-8.63,31.35-9.35S332.37,638.06,332.55,642.51Z" fill="#cecece"/><path d="M332.55,642.51c.2,4.45-13.81,8.63-31.32,9.39s-31.83-2.24-32-6.7,13.81-8.63,31.35-9.35S332.37,638.06,332.55,642.51Z" fill="#fff" opacity="0.4" style="isolation:isolate"/><path d="M328.54,642.51a1,1,0,0,1-.27.79c-2.11-2.58-13.81-4.14-27.62-3.45s-25.31,3.11-27.18,5.87a1.2,1.2,0,0,1-.31-.76c0-3,12.12-6,27.42-6.66S328.54,639.33,328.54,642.51Z" fill="#cecece"/><path d="M328.54,642.51a1,1,0,0,1-.27.79c-2.11-2.58-13.81-4.14-27.62-3.45s-25.31,3.11-27.18,5.87a1.2,1.2,0,0,1-.31-.76c0-3,12.12-6,27.42-6.66S328.54,639.33,328.54,642.51Z" fill="#cecece" opacity="0.4" style="isolation:isolate"/><path d="M328.23,643.13c-1.86,2.76-13.29,5.28-27.14,5.87s-25.44-.93-27.62-3.45c1.87-2.76,13.3-5.28,27.18-5.87S326.13,640.54,328.23,643.13Z" fill="#cecece" opacity="0.4" style="isolation:isolate"/><circle cx="260" cy="608.75" r="47.3" fill="#cecece"/><path d="M299.61,644.17a47.3,47.3,0,1,1-3.84-66.78h0A47.3,47.3,0,0,1,299.61,644.17Z" fill="#cecece"/><path d="M299.61,644.17a47.3,47.3,0,1,1-3.84-66.78h0A47.3,47.3,0,0,1,299.61,644.17Z" fill="#fff" opacity="0.4" style="isolation:isolate"/><path d="M290.56,636.26a35.42,35.42,0,1,1-2.88-50l0,0a35.39,35.39,0,0,1,2.89,50Z" fill="#cecece"/><g opacity="0.3"><path d="M270.88,628.7c-4.21,6.91-11.7,7.08-19.47,1.24L247,634.67l-4.42-3.9L247,626a32.43,32.43,0,0,1-7.7-12.91l6.9-3.69a27.09,27.09,0,0,0,6.08,11l6.91-7.25c-3.22-5-6.53-11-2.73-17.09,4.18-6.73,11.81-6.91,19.64-1l4.46-4.73,4.38,3.93-4.45,4.77a29.59,29.59,0,0,1,6.28,10.11l-6.59,3.87a23,23,0,0,0-4.91-8.49l-7.07,7.59C271.26,617.13,274.48,622.83,270.88,628.7Zm-6.07-21.65,5.8-6.18c-2.87-1.69-5.25-1.38-6.49.52a5.67,5.67,0,0,0,.69,5.63Zm-1.87,16.64a5.25,5.25,0,0,0-.65-5.31l-5.53,5.87c2.73,1.52,5,1.31,6.18-.59Z" fill="#fff"/></g><path d="M337.23,591.75c-.17,4.42,13.81,8.63,31.35,9.35s31.83-2.24,32-6.66-13.81-8.63-31.31-9.39S337.44,587.29,337.23,591.75Z" fill="#cecece"/><rect x="365.08" y="557.39" width="8.04" height="63.42" transform="translate(-235.11 932.9) rotate(-87.57)" fill="#cecece"/><path d="M337.57,583.7c-.2,4.46,13.81,8.63,31.35,9.39s31.84-2.24,32-6.69-13.81-8.64-31.35-9.36S337.75,579.35,337.57,583.7Z" fill="#cecece"/><path d="M337.57,583.7c-.2,4.46,13.81,8.63,31.35,9.39s31.84-2.24,32-6.69-13.81-8.64-31.35-9.36S337.75,579.35,337.57,583.7Z" fill="#fff" opacity="0.4" style="isolation:isolate"/><path d="M341.61,583.56a1.36,1.36,0,0,0,.28.8c2.11-2.59,13.81-4.14,27.62-3.45s25.27,3.1,27.14,5.9A1.44,1.44,0,0,0,397,586c0-3-12.15-6-27.41-6.63S341.75,580.56,341.61,583.56Z" fill="#cecece"/><path d="M341.61,583.56a1.36,1.36,0,0,0,.28.8c2.11-2.59,13.81-4.14,27.62-3.45s25.27,3.1,27.14,5.9A1.44,1.44,0,0,0,397,586c0-3-12.15-6-27.41-6.63S341.75,580.56,341.61,583.56Z" fill="#cecece" opacity="0.4" style="isolation:isolate"/><path d="M341.89,584.36c1.9,2.8,13.29,5.28,27.14,5.87s25.48-.93,27.62-3.45c-1.87-2.8-13.26-5.29-27.14-5.91S344,581.77,341.89,584.36Z" fill="#cecece" opacity="0.4" style="isolation:isolate"/><path d="M330.57,579.59c0,4.42,13.81,8.64,31.34,9.36s31.84-2.24,32-6.66-13.81-8.63-31.32-9.39S330.77,575.18,330.57,579.59Z" fill="#cecece"/><rect x="358.36" y="545.13" width="8.04" height="63.42" transform="translate(-229.31 914.44) rotate(-87.57)" fill="#cecece"/><path d="M331.08,571.55c0,4.45,13.81,8.63,31.35,9.39s31.83-2.24,32-6.7-13.81-8.63-31.32-9.35S331.08,567.13,331.08,571.55Z" fill="#cecece"/><path d="M331.08,571.55c0,4.45,13.81,8.63,31.35,9.39s31.83-2.24,32-6.7-13.81-8.63-31.32-9.35S331.08,567.13,331.08,571.55Z" fill="#fff" opacity="0.4" style="isolation:isolate"/><path d="M335,571.41a1.3,1.3,0,0,0,.28.8c2.1-2.59,13.81-4.11,27.62-3.46s25.27,3.08,27.13,5.87a1.39,1.39,0,0,0,.35-.79c0-3-12.15-6-27.41-6.63S335.09,568.41,335,571.41Z" fill="#cecece"/><path d="M335,571.41a1.3,1.3,0,0,0,.28.8c2.1-2.59,13.81-4.11,27.62-3.46s25.27,3.08,27.13,5.87a1.39,1.39,0,0,0,.35-.79c0-3-12.15-6-27.41-6.63S335.09,568.41,335,571.41Z" fill="#cecece" opacity="0.4" style="isolation:isolate"/><path d="M335.23,572.21c1.89,2.79,13.29,5.28,27.13,5.87s25.48-.94,27.62-3.46c-1.86-2.79-13.25-5.28-27.13-5.87S337.33,569.62,335.23,572.21Z" fill="#cecece" opacity="0.4" style="isolation:isolate"/><path d="M331.43,565c0,4.41,13.81,8.63,31.35,9.35s31.83-2.24,32-6.66S381,559,363.47,558.26,331.64,560.54,331.43,565Z" fill="#cecece"/><rect x="359.2" y="530.49" width="8.04" height="63.42" transform="translate(-213.88 901.26) rotate(-87.57)" fill="#cecece"/><path d="M331.77,556.91c0,4.46,13.81,8.63,31.35,9.39s31.83-2.24,32-6.7-13.81-8.63-31.32-9.35S332,552.49,331.77,556.91Z" fill="#cecece"/><path d="M331.77,556.91c0,4.46,13.81,8.63,31.35,9.39s31.83-2.24,32-6.7-13.81-8.63-31.32-9.35S332,552.49,331.77,556.91Z" fill="#fff" opacity="0.4" style="isolation:isolate"/><path d="M335.81,556.77a1.36,1.36,0,0,0,.28.8c2.11-2.59,13.81-4.11,27.62-3.46S389,557.19,390.85,560a1.44,1.44,0,0,0,.34-.79c0-3-12.15-6-27.41-6.63S336,553.8,335.81,556.77Z" fill="#cecece"/><path d="M335.81,556.77a1.36,1.36,0,0,0,.28.8c2.11-2.59,13.81-4.11,27.62-3.46S389,557.19,390.85,560a1.44,1.44,0,0,0,.34-.79c0-3-12.15-6-27.41-6.63S336,553.8,335.81,556.77Z" fill="#cecece" opacity="0.4" style="isolation:isolate"/><path d="M336.09,557.57c1.9,2.79,13.29,5.28,27.14,5.87s25.48-.94,27.62-3.46c-1.87-2.79-13.26-5.28-27.14-5.87S338.2,555,336.09,557.57Z" fill="#cecece" opacity="0.4" style="isolation:isolate"/><path d="M324.76,552.8c0,4.42,13.81,8.63,31.35,9.36s31.84-2.24,32-6.66-13.81-8.64-31.35-9.4S325,548.28,324.76,552.8Z" fill="#cecece"/><rect x="352.58" y="518.37" width="8.04" height="63.42" transform="translate(-208.11 883.04) rotate(-87.57)" fill="#cecece"/><path d="M325.11,544.83c-.17,4.45,13.81,8.63,31.35,9.39s31.83-2.25,32-6.7-13.81-8.6-31.31-9.36S325.32,540.34,325.11,544.83Z" fill="#cecece"/><path d="M325.11,544.83c-.17,4.45,13.81,8.63,31.35,9.39s31.83-2.25,32-6.7-13.81-8.6-31.31-9.36S325.32,540.34,325.11,544.83Z" fill="#fff" opacity="0.4" style="isolation:isolate"/><path d="M329.15,544.62a1.25,1.25,0,0,0,.28.79c2.14-2.58,13.81-4.1,27.62-3.45s25.3,3.07,27.13,5.87a1.15,1.15,0,0,0,.35-.76c0-3-12.15-6-27.41-6.66S329.29,541.65,329.15,544.62Z" fill="#cecece"/><path d="M329.15,544.62a1.25,1.25,0,0,0,.28.79c2.14-2.58,13.81-4.1,27.62-3.45s25.3,3.07,27.13,5.87a1.15,1.15,0,0,0,.35-.76c0-3-12.15-6-27.41-6.66S329.29,541.65,329.15,544.62Z" fill="#cecece" opacity="0.4" style="isolation:isolate"/><path d="M329.43,545.41c1.89,2.8,13.29,5.29,27.13,5.87s25.48-.93,27.62-3.45c-1.83-2.8-13.25-5.28-27.13-5.87S331.57,542.83,329.43,545.41Z" fill="#cecece" opacity="0.4" style="isolation:isolate"/><path d="M335,542.51c-.21,4.42,13.81,8.64,31.35,9.36s31.83-2.24,32-6.66-13.81-8.63-31.35-9.39S335.12,537.92,335,542.51Z" fill="#cecece"/><rect x="362.72" y="508.03" width="8.04" height="63.42" transform="translate(-188.07 883.27) rotate(-87.57)" fill="#cecece"/><path d="M335.3,534.47c-.21,4.45,13.81,8.63,31.31,9.39s31.83-2.24,32-6.7-13.81-8.63-31.35-9.35S335.47,530.05,335.3,534.47Z" fill="#cecece"/><path d="M335.3,534.47c-.21,4.45,13.81,8.63,31.31,9.39s31.83-2.24,32-6.7-13.81-8.63-31.35-9.35S335.47,530.05,335.3,534.47Z" fill="#fff" opacity="0.4" style="isolation:isolate"/><path d="M339.33,534.47a1,1,0,0,0,.28.79c2.11-2.59,13.81-4.14,27.62-3.45s25.31,3.11,27.17,5.87a1.2,1.2,0,0,0,.31-.76c0-3-12.12-6-27.41-6.66S339.44,531.33,339.33,534.47Z" fill="#cecece"/><path d="M339.33,534.47a1,1,0,0,0,.28.79c2.11-2.59,13.81-4.14,27.62-3.45s25.31,3.11,27.17,5.87a1.2,1.2,0,0,0,.31-.76c0-3-12.12-6-27.41-6.66S339.44,531.33,339.33,534.47Z" fill="#cecece" opacity="0.4" style="isolation:isolate"/><path d="M339.61,535.13c1.87,2.76,13.29,5.28,27.14,5.87s25.44-.94,27.62-3.46c-1.87-2.76-13.29-5.28-27.17-5.87S341.72,532.54,339.61,535.13Z" fill="#cecece" opacity="0.4" style="isolation:isolate"/><path d="M290.27,591c1.07,4.32,15.75,4.35,32.73,0s29.87-11.18,28.8-15.5-15.71-4.35-32.7,0S289.2,586.74,290.27,591Z" fill="#cecece"/><rect x="288.36" y="575.4" width="63.42" height="8.04" transform="translate(-131.17 95.12) rotate(-14.06)" fill="#cecece"/><path d="M288.34,583.25c1.07,4.29,15.71,4.35,32.7,0s29.9-11.18,28.79-15.46-15.71-4.35-32.7,0S287.24,578.94,288.34,583.25Z" fill="#cecece"/><path d="M288.34,583.25c1.07,4.29,15.71,4.35,32.7,0s29.9-11.18,28.79-15.46-15.71-4.35-32.7,0S287.24,578.94,288.34,583.25Z" fill="#fff" opacity="0.4" style="isolation:isolate"/><path d="M292.17,582a1.14,1.14,0,0,0,.49.65c1.27-3.07,11.94-7.83,25.41-11.22s25.1-4.21,27.62-2.07a1.19,1.19,0,0,0,0-.83c-.73-2.9-13.36-2.31-28.18,1.42S291.45,579,292.17,582Z" fill="#cecece"/><path d="M292.17,582a1.14,1.14,0,0,0,.49.65c1.27-3.07,11.94-7.83,25.41-11.22s25.1-4.21,27.62-2.07a1.19,1.19,0,0,0,0-.83c-.73-2.9-13.36-2.31-28.18,1.42S291.45,579,292.17,582Z" fill="#cecece" opacity="0.4" style="isolation:isolate"/><path d="M292.66,582.81c2.59,2.14,14.26,1.31,27.62-2.08s24.16-8.11,25.41-11.22c-2.59-2.14-14.23-1.27-27.62,2.07S293.93,579.56,292.66,582.81Z" fill="#cecece" opacity="0.4" style="isolation:isolate"/><path d="M290.72,617.39c0,4.42,13.81,8.64,31.34,9.36s31.84-2.24,32-6.66-13.81-8.63-31.31-9.39S290.92,612.94,290.72,617.39Z" fill="#cecece"/><rect x="318.51" y="582.93" width="8.04" height="63.42" transform="translate(-305.23 910.83) rotate(-87.57)" fill="#cecece"/><path d="M291.06,609.35c-.17,4.45,13.81,8.63,31.35,9.39s31.83-2.24,32-6.7-13.81-8.63-31.32-9.35S291.27,605,291.06,609.35Z" fill="#cecece"/><path d="M291.06,609.35c-.17,4.45,13.81,8.63,31.35,9.39s31.83-2.24,32-6.7-13.81-8.63-31.32-9.35S291.27,605,291.06,609.35Z" fill="#fff" opacity="0.4" style="isolation:isolate"/><path d="M295.1,609.21a1.3,1.3,0,0,0,.28.8c2.1-2.59,13.81-4.15,27.62-3.46s25.27,3.11,27.13,5.91a1.39,1.39,0,0,0,.35-.8c0-3-12.15-6-27.41-6.63S295.31,606.21,295.1,609.21Z" fill="#cecece"/><path d="M295.1,609.21a1.3,1.3,0,0,0,.28.8c2.1-2.59,13.81-4.15,27.62-3.46s25.27,3.11,27.13,5.91a1.39,1.39,0,0,0,.35-.8c0-3-12.15-6-27.41-6.63S295.31,606.21,295.1,609.21Z" fill="#cecece" opacity="0.4" style="isolation:isolate"/><path d="M295.31,610c1.9,2.79,13.29,5.28,27.13,5.87s25.48-.94,27.63-3.46c-1.87-2.79-13.26-5.28-27.14-5.9S297.48,607.42,295.31,610Z" fill="#cecece" opacity="0.4" style="isolation:isolate"/><path d="M349,623c.17,4.42-13.81,8.63-31.35,9.35s-31.84-2.24-32-6.66,13.81-8.63,31.32-9.39S348.77,618.53,349,623Z" fill="#cecece"/><rect x="285.39" y="616.32" width="63.42" height="8.04" transform="translate(-26.02 14) rotate(-2.43)" fill="#cecece"/><path d="M348.63,614.94c.21,4.46-13.81,8.63-31.35,9.39s-31.83-2.24-32-6.69,13.81-8.64,31.35-9.36S348.46,610.59,348.63,614.94Z" fill="#cecece"/><path d="M348.63,614.94c.21,4.46-13.81,8.63-31.35,9.39s-31.83-2.24-32-6.69,13.81-8.64,31.35-9.36S348.46,610.59,348.63,614.94Z" fill="#fff" opacity="0.4" style="isolation:isolate"/><path d="M344.59,614.81a1.35,1.35,0,0,1-.27.79c-2.11-2.59-13.82-4.14-27.63-3.45s-25.27,3.1-27.13,5.9a1.39,1.39,0,0,1-.35-.79c0-3,12.16-6,27.42-6.63S344.45,611.8,344.59,614.81Z" fill="#cecece"/><path d="M344.59,614.81a1.35,1.35,0,0,1-.27.79c-2.11-2.59-13.82-4.14-27.63-3.45s-25.27,3.1-27.13,5.9a1.39,1.39,0,0,1-.35-.79c0-3,12.16-6,27.42-6.63S344.45,611.8,344.59,614.81Z" fill="#cecece" opacity="0.4" style="isolation:isolate"/><path d="M344.32,615.6c-1.9,2.8-13.3,5.28-27.14,5.87s-25.48-.93-27.62-3.45c1.86-2.8,13.26-5.29,27.13-5.91S342.21,613,344.32,615.6Z" fill="#cecece" opacity="0.4" style="isolation:isolate"/><path d="M355.64,610.83c0,4.42-13.81,8.64-31.35,9.36s-31.83-2.24-32-6.66,13.81-8.63,31.31-9.39S355.43,606.42,355.64,610.83Z" fill="#cecece"/><rect x="292.11" y="604.06" width="63.42" height="8.04" transform="translate(-25.49 14.28) rotate(-2.43)" fill="#cecece"/><path d="M355.12,602.79c0,4.45-13.81,8.63-31.35,9.39s-31.83-2.24-32-6.7,13.81-8.63,31.31-9.35S355.12,598.37,355.12,602.79Z" fill="#cecece"/><path d="M355.12,602.79c0,4.45-13.81,8.63-31.35,9.39s-31.83-2.24-32-6.7,13.81-8.63,31.31-9.35S355.12,598.37,355.12,602.79Z" fill="#fff" opacity="0.4" style="isolation:isolate"/><path d="M351.25,602.65a1.29,1.29,0,0,1-.27.8c-2.11-2.59-13.81-4.11-27.62-3.46s-25.27,3.08-27.14,5.87a1.31,1.31,0,0,1-.34-.79c0-3,12.15-6,27.41-6.63S351.12,599.65,351.25,602.65Z" fill="#cecece"/><path d="M351.25,602.65a1.29,1.29,0,0,1-.27.8c-2.11-2.59-13.81-4.11-27.62-3.46s-25.27,3.08-27.14,5.87a1.31,1.31,0,0,1-.34-.79c0-3,12.15-6,27.41-6.63S351.12,599.65,351.25,602.65Z" fill="#cecece" opacity="0.4" style="isolation:isolate"/><path d="M351,603.45c-1.9,2.79-13.29,5.28-27.14,5.87s-25.48-.94-27.62-3.46c1.87-2.79,13.26-5.28,27.14-5.87S348.87,600.86,351,603.45Z" fill="#cecece" opacity="0.4" style="isolation:isolate"/><path d="M354.78,596.2c0,4.42-13.81,8.63-31.35,9.35s-31.84-2.24-32-6.66,13.81-8.63,31.32-9.39S354.57,591.78,354.78,596.2Z" fill="#cecece"/><rect x="291.27" y="589.42" width="63.42" height="8.04" transform="translate(-24.87 14.23) rotate(-2.43)" fill="#cecece"/><path d="M354.43,588.15c0,4.46-13.81,8.63-31.35,9.39s-31.83-2.24-32-6.7,13.81-8.63,31.31-9.35S354.22,583.73,354.43,588.15Z" fill="#cecece"/><path d="M354.43,588.15c0,4.46-13.81,8.63-31.35,9.39s-31.83-2.24-32-6.7,13.81-8.63,31.31-9.35S354.22,583.73,354.43,588.15Z" fill="#fff" opacity="0.4" style="isolation:isolate"/><path d="M350.39,588a1.35,1.35,0,0,1-.27.8c-2.11-2.59-13.81-4.11-27.62-3.45s-25.28,3.07-27.14,5.86a1.36,1.36,0,0,1-.35-.79c0-3,12.16-6,27.42-6.63S350.25,585,350.39,588Z" fill="#cecece"/><path d="M350.39,588a1.35,1.35,0,0,1-.27.8c-2.11-2.59-13.81-4.11-27.62-3.45s-25.28,3.07-27.14,5.86a1.36,1.36,0,0,1-.35-.79c0-3,12.16-6,27.42-6.63S350.25,585,350.39,588Z" fill="#cecece" opacity="0.4" style="isolation:isolate"/><path d="M350.12,588.81c-1.9,2.79-13.3,5.28-27.14,5.87s-25.48-.94-27.62-3.46c1.86-2.79,13.26-5.28,27.14-5.86S348,586.22,350.12,588.81Z" fill="#cecece" opacity="0.4" style="isolation:isolate"/><path d="M361.44,584c0,4.42-13.81,8.63-31.35,9.36s-31.83-2.24-32-6.66,13.81-8.64,31.35-9.39S361.23,579.52,361.44,584Z" fill="#cecece"/><rect x="297.89" y="577.3" width="63.42" height="8.04" transform="translate(-24.35 14.5) rotate(-2.43)" fill="#cecece"/><path d="M361.09,576.07c.18,4.45-13.81,8.63-31.34,9.39s-31.84-2.25-32-6.7,13.81-8.6,31.31-9.36S360.89,571.58,361.09,576.07Z" fill="#cecece"/><path d="M361.09,576.07c.18,4.45-13.81,8.63-31.34,9.39s-31.84-2.25-32-6.7,13.81-8.6,31.31-9.36S360.89,571.58,361.09,576.07Z" fill="#fff" opacity="0.4" style="isolation:isolate"/><path d="M357.05,575.86a1.24,1.24,0,0,1-.27.79c-2.14-2.58-13.81-4.1-27.62-3.45s-25.31,3.08-27.14,5.87a1.14,1.14,0,0,1-.34-.76c0-3,12.15-6,27.41-6.66S356.92,572.89,357.05,575.86Z" fill="#cecece"/><path d="M357.05,575.86a1.24,1.24,0,0,1-.27.79c-2.14-2.58-13.81-4.1-27.62-3.45s-25.31,3.08-27.14,5.87a1.14,1.14,0,0,1-.34-.76c0-3,12.15-6,27.41-6.66S356.92,572.89,357.05,575.86Z" fill="#cecece" opacity="0.4" style="isolation:isolate"/><path d="M356.78,576.65c-1.9,2.8-13.29,5.29-27.14,5.87s-25.48-.93-27.62-3.45c1.83-2.79,13.26-5.28,27.14-5.87S354.64,574.07,356.78,576.65Z" fill="#cecece" opacity="0.4" style="isolation:isolate"/><path d="M351.25,573.75c.21,4.42-13.81,8.64-31.34,9.36s-31.84-2.24-32-6.66,13.81-8.63,31.35-9.39S351.08,569.16,351.25,573.75Z" fill="#cecece"/><rect x="287.75" y="566.96" width="63.42" height="8.04" transform="translate(-23.92 14.06) rotate(-2.43)" fill="#cecece"/><path d="M350.91,565.71c.21,4.45-13.81,8.63-31.32,9.39s-31.83-2.24-32-6.7,13.81-8.63,31.34-9.35S350.74,561.29,350.91,565.71Z" fill="#cecece"/><path d="M350.91,565.71c.21,4.45-13.81,8.63-31.32,9.39s-31.83-2.24-32-6.7,13.81-8.63,31.34-9.35S350.74,561.29,350.91,565.71Z" fill="#fff" opacity="0.4" style="isolation:isolate"/><path d="M346.87,565.71a1,1,0,0,1-.28.79c-2.1-2.59-13.81-4.14-27.62-3.45s-25.3,3.11-27.17,5.87a1.2,1.2,0,0,1-.31-.76c0-3,12.12-6,27.41-6.66S346.77,562.57,346.87,565.71Z" fill="#cecece"/><path d="M346.87,565.71a1,1,0,0,1-.28.79c-2.1-2.59-13.81-4.14-27.62-3.45s-25.3,3.11-27.17,5.87a1.2,1.2,0,0,1-.31-.76c0-3,12.12-6,27.41-6.66S346.77,562.57,346.87,565.71Z" fill="#cecece" opacity="0.4" style="isolation:isolate"/><path d="M346.59,566.37c-1.86,2.76-13.29,5.28-27.13,5.87s-25.45-.94-27.62-3.46c1.86-2.76,13.29-5.28,27.17-5.87S344.49,563.78,346.59,566.37Z" fill="#cecece" opacity="0.4" style="isolation:isolate"/><path d="M366.11,596.62c-1.07,4.31-15.75,4.35-32.73,0s-29.87-11.19-28.8-15.51,15.71-4.35,32.7,0S367.18,592.33,366.11,596.62Z" fill="#cecece"/><rect x="332.28" y="553.3" width="8.04" height="63.42" transform="translate(-312.88 769.12) rotate(-75.94)" fill="#cecece"/><path d="M368,588.85c-1.07,4.28-15.71,4.35-32.69,0s-29.9-11.19-28.8-15.47,15.71-4.35,32.7,0S369.15,584.53,368,588.85Z" fill="#cecece"/><path d="M368,588.85c-1.07,4.28-15.71,4.35-32.69,0s-29.9-11.19-28.8-15.47,15.71-4.35,32.7,0S369.15,584.53,368,588.85Z" fill="#fff" opacity="0.4" style="isolation:isolate"/><path d="M364.21,587.57a1.23,1.23,0,0,1-.48.66c-1.28-3.08-12-7.84-25.42-11.22s-25.1-4.22-27.62-2.08a1.19,1.19,0,0,1,0-.83c.73-2.9,13.37-2.31,28.18,1.42S364.93,584.64,364.21,587.57Z" fill="#cecece"/><path d="M364.21,587.57a1.23,1.23,0,0,1-.48.66c-1.28-3.08-12-7.84-25.42-11.22s-25.1-4.22-27.62-2.08a1.19,1.19,0,0,1,0-.83c.73-2.9,13.37-2.31,28.18,1.42S364.93,584.64,364.21,587.57Z" fill="#cecece" opacity="0.4" style="isolation:isolate"/><path d="M363.73,588.4c-2.59,2.14-14.26,1.31-27.63-2.07s-24.16-8.12-25.41-11.22c2.59-2.14,14.23-1.28,27.62,2.07S362.45,585.15,363.73,588.4Z" fill="#cecece" opacity="0.4" style="isolation:isolate"/><path d="M395.92,597.34c0,4.42-13.81,8.63-31.35,9.36s-31.83-2.25-32-6.67,13.81-8.63,31.32-9.39S395.71,592.89,395.92,597.34Z" fill="#cecece"/><rect x="331.96" y="590.57" width="63.42" height="8.04" transform="translate(-24.88 15.95) rotate(-2.43)" fill="#cecece"/><path d="M395.14,589.3c.18,4.45-13.81,8.63-31.35,9.39s-31.83-2.25-32-6.7,13.81-8.63,31.31-9.36S394.94,585,395.14,589.3Z" fill="#cecece"/><path d="M395.14,589.3c.18,4.45-13.81,8.63-31.35,9.39s-31.83-2.25-32-6.7,13.81-8.63,31.31-9.36S394.94,585,395.14,589.3Z" fill="#fff" opacity="0.4" style="isolation:isolate"/><path d="M391.1,589.16a1.32,1.32,0,0,1-.27.79c-2.11-2.59-13.81-4.14-27.62-3.45s-25.28,3.11-27.14,5.9a1.31,1.31,0,0,1-.34-.79c0-3,12.15-6,27.41-6.63S390.9,586.15,391.1,589.16Z" fill="#cecece"/><path d="M391.1,589.16a1.32,1.32,0,0,1-.27.79c-2.11-2.59-13.81-4.14-27.62-3.45s-25.28,3.11-27.14,5.9a1.31,1.31,0,0,1-.34-.79c0-3,12.15-6,27.41-6.63S390.9,586.15,391.1,589.16Z" fill="#cecece" opacity="0.4" style="isolation:isolate"/><path d="M390.9,590c-1.9,2.8-13.3,5.28-27.14,5.87s-25.48-.93-27.62-3.45c1.86-2.8,13.26-5.28,27.14-5.9S388.72,587.36,390.9,590Z" fill="#cecece" opacity="0.4" style="isolation:isolate"/><path d="M359.54,577.38c-1.9,4,9.43,13.33,25.27,20.72s30.25,10.36,32.11,6.21S407.5,591,391.65,583.6,361.4,573.38,359.54,577.38Z" fill="#cecece"/><rect x="385.94" y="555.65" width="8.04" height="63.42" transform="translate(-307.48 690.49) rotate(-64.83)" fill="#cecece"/><path d="M363,570.13c-1.9,4,9.42,13.3,25.27,20.72s30.24,10.36,32.11,6.21-9.43-13.32-25.27-20.71S364.82,566.1,363,570.13Z" fill="#cecece"/><path d="M363,570.13c-1.9,4,9.42,13.3,25.27,20.72s30.24,10.36,32.11,6.21-9.43-13.32-25.27-20.71S364.82,566.1,363,570.13Z" fill="#fff" opacity="0.4" style="isolation:isolate"/><path d="M366.72,571.55a1.19,1.19,0,0,0,0,.83c2.94-1.56,14.23,1.48,26.76,7.39s22.13,12.63,22.78,15.91a1.19,1.19,0,0,0,.59-.58c1.28-2.73-8.87-10.36-22.72-16.75S368,568.86,366.72,571.55Z" fill="#cecece"/><path d="M366.72,571.55a1.19,1.19,0,0,0,0,.83c2.94-1.56,14.23,1.48,26.76,7.39s22.13,12.63,22.78,15.91a1.19,1.19,0,0,0,.59-.58c1.28-2.73-8.87-10.36-22.72-16.75S368,568.86,366.72,571.55Z" fill="#cecece" opacity="0.4" style="isolation:isolate"/><path d="M366.69,572.38c.65,3.45,10.35,10,22.75,15.91s23.86,9,26.79,7.39c-.66-3.28-10.36-10-22.79-15.91S369.62,570.83,366.69,572.38Z" fill="#cecece" opacity="0.4" style="isolation:isolate"/><path d="M261.39,504.71,264.8,477a3.92,3.92,0,0,1,.71-1.81v0a3.72,3.72,0,0,1,1.87-1.35,41.82,41.82,0,0,0,7.1-3l.08-.05a20.59,20.59,0,0,0,8.66-9c13.32-27,42.42-45.76,76.19-45.76,46.35,0,83.92,35.31,83.92,78.86,0,23.7-11.12,45-28.72,59.41a18.51,18.51,0,0,0-6.73,12c0,.3-.07.61-.09.92a67.38,67.38,0,0,0,0,9.44,3.78,3.78,0,0,1-3.78,4.21H372.27a2.31,2.31,0,0,1-2.2-1.59c-.19-1-.39-1.93-.61-2.91s-.48-2.09-.73-3.13a89.41,89.41,0,0,1-9.31.48q-4.55,0-9-.44c-.25,1-.5,2-.73,3.09s-.41,1.94-.6,2.91a2.33,2.33,0,0,1-2.2,1.59H315.16a3.78,3.78,0,0,1-3.78-4.21,65.88,65.88,0,0,0,0-9.44c0-.3-.05-.59-.08-.88a17.76,17.76,0,0,0-6.54-11.64A79.45,79.45,0,0,1,282,525.31a19.39,19.39,0,0,0-8.84-9.35l-1-.52c-2.44-1.23-4.82-2.32-7.12-3.29A6.79,6.79,0,0,1,261.39,504.71Z" fill="#d1d3d4"/><path d="M332.86,506.55c53.74-11.37,64.58-43,64.58-43,10.93-33.67-21-44.5-21.61-44.6A73.31,73.31,0,0,0,329.59,421a57.93,57.93,0,0,1,16.22,14.34A19,19,0,0,1,352,452,25,25,0,0,1,342.56,469c-12.77,10.1-31.63,7-31.63,7-1.66-14.77-12.05-33.32-12.05-33.32-12.73,11.56-18.46,29.85-18.46,29.85-.23,1.4-.73,2-1.16,2.17a.55.55,0,0,1-.77-.45c-.33-4-2.88-2.77-2.88-2.77-.82.52-3.23,1.73-4.58,2.4a10.19,10.19,0,0,1-1.68.6,2.91,2.91,0,0,0-2.05,2.11L265,497.08c0,3.88,10.2-7.49,10.2-7.49S297.85,514,332.86,506.55Z" fill="#fff" opacity="0.2"/><path d="M290,414s20-2.84,39.55,7c0,0,7.47,3.46,16.22,14.34a19.26,19.26,0,0,1,5.32,20.95s-3,15.08-23.31,19.12a54.23,54.23,0,0,1-16.89.54s-2.36-18.29-17.4-43.2c-.72-1.21-1.48-2.4-2.26-3.56C289,425.88,282.26,414.87,290,414Z" fill="#d1d3d4"/><path d="M443.32,493.25S421.2,563.43,334,555.08c0,0-37.31-2-54.79-47.12,0,0-1-3-2.72,1.26,0,0-3,4.57-11,3.11,0,0,7.12,3,9.14,4.44a20.85,20.85,0,0,1,7.42,8.54S286.94,539,302.77,553a18.61,18.61,0,0,1,8.62,14.18v9.44s0,4.21,3.78,4.21h31.77a2.16,2.16,0,0,0,2.2-1.59c.55-1.74,1.33-6,1.33-6s11.7.94,18.27,0l1.34,6a2.38,2.38,0,0,0,2.2,1.59H404a3.81,3.81,0,0,0,3.79-3.84s-.24-3.25-.18-5.65c0,0-.61-10.27,5.26-15.52l4.59-4.06s7.87-5.59,17.12-21.88C434.61,529.83,443.1,517.12,443.32,493.25Z" opacity="0.2"/><path d="M457.28,428.29c-15.81-4.79-19.35,2.4-19.35,2.4-8.82-.38-18.65,8.81-18.65,8.81,2.11,1.95,4.87,5.08,4.87,5.08.11-7.48,11.77-10.15,11.77-10.15-.25,16.59,7.4,16.18,11.74,14.63a8.91,8.91,0,0,0,5.12-4.49c3.82-8.21-10.16-13.4-10.16-13.4C446.07,428.1,457.28,428.29,457.28,428.29Zm-7.74,13a4.69,4.69,0,0,1-2.69,4.42,4,4,0,0,1-4.76-.42s-4.28-3.11-2.33-10.78C439.76,434.51,449.16,436.19,449.54,441.29Z" fill="#d1d3d4"/><path d="M396.28,430.44l.83-2.11s-25.73-5.59-44.12,0l1,2.11S371.93,425.84,396.28,430.44Z" opacity="0.2"/><path d="M290,417.7s2.27-2.28,9.78,2c.86.49,1.72,1,2.6,1.41,5.93,3,29.57,16.06,28.64,33.31a18.14,18.14,0,0,1-14.28,15.89,6.11,6.11,0,0,1-3.34-.08c-1.47-.49-3.19-1.73-3.69-4.76a105.61,105.61,0,0,0-9.18-22.63c-.39-.71-.81-1.42-1.24-2.12C296.76,436.7,286.94,420.27,290,417.7Z" fill="#fff" opacity="0.2"/><path d="M451.61,565.58h0a18.93,18.93,0,0,1,18.93-18.93h10.23a18.93,18.93,0,0,1,18.93,18.93h-5.37a13.81,13.81,0,0,0-13.81-13.81h-10a13.81,13.81,0,0,0-13.82,13.81h-5.11Z" fill="#2f2e41"/><path d="M451.61,565.58h0a18.93,18.93,0,0,1,18.93-18.93h10.23a18.93,18.93,0,0,1,18.93,18.93h-5.37a13.81,13.81,0,0,0-13.81-13.81h-10a13.81,13.81,0,0,0-13.82,13.81h-5.11Z" opacity="0.2"/><path d="M424.41,563.29H528.1a23.56,23.56,0,0,1,23.56,23.56v63a22.43,22.43,0,0,1-22.43,22.43H424.29a22.43,22.43,0,0,1-22.43-22.43v-64A22.56,22.56,0,0,1,424.41,563.29Z" fill="#2f2e41"/><path d="M424.41,563.29H528.1a23.56,23.56,0,0,1,23.56,23.56v63a22.43,22.43,0,0,1-22.43,22.43H424.29a22.43,22.43,0,0,1-22.43-22.43v-64A22.56,22.56,0,0,1,424.41,563.29Z" opacity="0.2"/><path d="M423.77,563.29h105a22.92,22.92,0,0,1,22.92,22.92v21.49a0,0,0,0,1,0,0H401.85a0,0,0,0,1,0,0V585.2A21.91,21.91,0,0,1,423.77,563.29Z" opacity="0.2"/><path d="M477.32,615.24h-1.79a10.91,10.91,0,0,1-10.9-10.9V590.91h1.08v13.43a9.83,9.83,0,0,0,9.82,9.82h1.79a9.84,9.84,0,0,0,9.82-9.82V591.16h1.08v13.18A10.91,10.91,0,0,1,477.32,615.24Z" fill="#ccc"/><path d="M490.24,624.71a.54.54,0,0,1-.54-.54V613.42a13.28,13.28,0,0,0-26.55,0v10.75a.54.54,0,0,1-1.08,0V613.42a14.36,14.36,0,0,1,28.71,0v10.75A.54.54,0,0,1,490.24,624.71Z" fill="#ccc"/><rect x="463" y="543.16" width="25.37" height="13.7" rx="2.12" fill="#2f2e41"/></svg>