<svg id="a4d7f3f8-3dfa-4e52-bd27-d7905e71cdf0" data-name="Layer 1" xmlns="http://www.w3.org/2000/svg" width="865.76" height="682.89" viewBox="0 0 865.76 682.89"><path d="M306.32,433.69s30.65.55,43.1,6.94a9.68,9.68,0,0,1,5.19,7.85c1.12,14.28,5.54,75.06,4.4,132.37l-15.14,2.72-12.81-58.82Z" fill="#2f2e41"/><rect x="174.22" y="428.67" width="13.46" height="174.96" fill="#dedede"/><path d="M243.32,472.92s-11-6.14-4.91-21.22c0,0-8.64-11.35-15.8-14.36,0,0-12.17-3.56-12.17-23.29,0,0-20.39-3-12.77-21.59,0,0,5.31-18.76,27.5-49.89a56.34,56.34,0,0,1,20.59-15c-5.1-9-12.16-14.84-13.27-15.44l-.52-.3c-23.71-13.6-39.78,14.68-39.89,14.63S137.47,423.49,146,464.9c0,0,9.58,40.89,77.65,25.11C223.66,490,239,486.06,243.32,472.92Z" fill="#ccc"/><path d="M276.19,379s7.77,21.48,23.3,31.83H277.75Z" fill="#686175" data-primary="true"/><path d="M276.19,379s7.77,21.48,23.3,31.83H277.75Z" opacity="0.2"/><rect x="156.68" y="91.59" width="123.83" height="74.71" rx="5.3" fill="#ccc"/><path d="M311.11,587.71v7.18c0,2.11,2.3,3.82,5.14,3.82h0c2.83,0,5.13-1.71,5.13-3.82v-7.18Z" fill="#f9b499"/><path d="M347.05,588.52l1.14,7.09c.33,2.08,2.91,3.4,5.74,2.94h0c2.84-.46,4.87-2.51,4.54-4.6l-1.14-7.09Z" fill="#f9b499"/><rect x="112.93" y="428.67" width="13.46" height="174.96" fill="#dedede"/><rect x="397.84" y="428.67" width="13.46" height="174.96" fill="#dedede"/><rect x="459.13" y="428.67" width="13.46" height="174.96" fill="#dedede"/><rect x="227.8" y="491.17" width="11.26" height="107.54" fill="#dedede"/><path d="M312.43,491.17s-65.11,4.27-106.37,0l4.38-17.86h102Z" fill="#ccc"/><path d="M291.63,274.67s-.74,37.6-20,47.63c-16.8,8.75-30.2-21.89-30.2-21.89L237,295.2l-2.74-10.95L246,269Z" fill="#f9b499"/><path d="M279.62,396.58c-5.72-62.34-12.27-70.11-13.55-71.05-.22-.16-.43-.32-.63-.49C251.23,312.5,227.8,338.6,227.8,338.6S203.93,393.21,212.16,426A16,16,0,0,0,222,437.07l.15.06a3.48,3.48,0,0,1,.48.21,53.33,53.33,0,0,1,15.8,14.36S269,445,280.08,432.55V406.67C280.08,403.3,279.92,399.93,279.62,396.58Z" fill="#686175" data-primary="true"/><path d="M229,389.83l12.27-23.23A20.6,20.6,0,0,0,243.62,355a19.78,19.78,0,0,0-9.35-14.83c-6-4.14-9.58,1-9.58,1s-36.23,52.8-26.92,65.74c0,0,3.63,12.61,51.38,7.76l19.22-3.1s-2.72-8.16-1.36-11.46c0,0-25.48-1.92-37.37-8.23A1.52,1.52,0,0,1,229,389.83Z" fill="#686175" data-primary="true"/><path d="M229,389.83l12.27-23.23A20.6,20.6,0,0,0,243.62,355a19.78,19.78,0,0,0-9.35-14.83c-6-4.14-9.58,1-9.58,1s-36.23,52.8-26.92,65.74c0,0,3.63,12.61,51.38,7.76l19.22-3.1s-2.72-8.16-1.36-11.46c0,0-25.48-1.92-37.37-8.23A1.52,1.52,0,0,1,229,389.83Z" opacity="0.2"/><g opacity="0.2"><path d="M266.86,441.4l-1-.11c4.6-41.63-5.07-104.41-5.17-105l1-.15C261.78,336.73,271.47,399.63,266.86,441.4Z"/></g><path d="M249.22,474.48h59.84l-1.29,106.37h17.6s.52-7.77,1.29-12.17c0,0,20.19-95,19.41-112.58,0,0,4.48-11.63-13.82-17.84a43.08,43.08,0,0,0-6.71-1.69c-8.58-1.49-40.3-6.66-51.67-3.76l-30.7,14.84a12,12,0,0,0-6.52,13.18l.83,4.07A12,12,0,0,0,249.22,474.48Z" fill="#2f2e41"/><path d="M324.89,589.13h-18a1.31,1.31,0,0,1-1.36-1.26v-5.76a1.31,1.31,0,0,1,1.36-1.26h19.81a1.21,1.21,0,0,1,1.26,1.37l-.89,5.17A2.19,2.19,0,0,1,324.89,589.13Z" fill="#2f2e41"/><path d="M324.89,589.13h-18a1.31,1.31,0,0,1-1.36-1.26v-5.76a1.31,1.31,0,0,1,1.36-1.26h19.81a1.21,1.21,0,0,1,1.26,1.37l-.89,5.17A2.19,2.19,0,0,1,324.89,589.13Z" opacity="0.2"/><path d="M361.69,588.53l-17.82,2.39a1.32,1.32,0,0,1-1.52-1.07l-.76-5.71a1.32,1.32,0,0,1,1.18-1.43l19.64-2.63a1.21,1.21,0,0,1,1.43,1.19l-.2,5.24A2.17,2.17,0,0,1,361.69,588.53Z" fill="#2f2e41"/><path d="M361.69,588.53l-17.82,2.39a1.32,1.32,0,0,1-1.52-1.07l-.76-5.71a1.32,1.32,0,0,1,1.18-1.43l19.64-2.63a1.21,1.21,0,0,1,1.43,1.19l-.2,5.24A2.17,2.17,0,0,1,361.69,588.53Z" opacity="0.2"/><path d="M190.92,603.62h87.35S239.06,581.75,190.92,603.62Z" fill="#dedede"/><path d="M61,603.62H795.49c5.14,0,9.3,3.33,9.3,7.44h0c0,4.11-4.16,7.44-9.3,7.44H61Z" fill="#dedede"/><path d="M265.07,410.81H282a2.43,2.43,0,0,0,2.43-2.57c-.21-4-2.84-10.86-19.35-7.37Z" fill="#f9b499"/><path d="M395.51,354.91,362.9,417l-98.5-1.22.67-6.28,34.42,1.29,29.24-55.9s2.33-7.51,10.36-6l55.12,1S398.74,348.75,395.51,354.91Z" fill="#2f2e41"/><rect x="405.93" y="367.64" width="71.77" height="15.85" rx="4.06" fill="#ccc"/><circle cx="415.53" cy="375.86" r="3.72" fill="#bcbec0"/><rect x="461.95" y="371.38" width="15.74" height="8.05" fill="#bcbec0"/><rect x="417.89" y="383.79" width="71.77" height="15.85" rx="4.06" fill="#bcbec0"/><circle cx="427.5" cy="391.71" r="3.72" fill="#ccc"/><rect x="473.92" y="387.54" width="15.74" height="8.34" fill="#ccc"/><rect x="405.93" y="399.94" width="71.77" height="15.85" rx="4.06" fill="#ccc"/><circle cx="415.53" cy="407.86" r="3.72" fill="#bcbec0"/><rect x="461.95" y="403.69" width="15.74" height="8.34" fill="#bcbec0"/><path d="M239.83,247s5-5.82,17.86,2.72c0,0,6.6,5.82,14.36,3.11,0,0,21.36-6.6,28.73,5,0,0,7.47,9.89-.26,16.49a12.57,12.57,0,0,1-5.09,2.59c-5.37,1.38-21.08,4.2-40.07-3.42a4.49,4.49,0,0,0-4.86,0,5.21,5.21,0,0,0-1.07.92c-1.13,1.23-4.49,5.22-5.46,9.83,0,0-3.82-4.89-6.56.65a10.38,10.38,0,0,0-1,3.78c-.26,3-.12,8.7,5,7,0,0,.78,9.57-1.42,5.95,0,0-5.82-7.63-7.38-31.83C232.58,269.76,232.07,252.68,239.83,247Z" fill="#2f2e41"/><path d="M249.93,312l-4.17,15.54a1.71,1.71,0,0,0,0,.81v.05a9.89,9.89,0,0,0,8.56,7.66c.39,0,.82.08,1.25.1a6.2,6.2,0,0,0,6.19-4.38l3.32-10.66Z" fill="#f9b499"/><ellipse cx="242.93" cy="463.09" rx="10.62" ry="12.73" fill="#ccc"/><rect x="90" y="415.8" width="402.41" height="16.14" rx="7.4" fill="#dedede"/><path d="M308.88,608.1l7.5.34.89-4.76,2.31,4.76h13.35a3,3,0,0,0,1.7-5.48L323,595.73v-4.8l-12.72.2Z" fill="#686175" data-primary="true"/><path d="M345.37,609.47l7.5.34.9-4.76,2.3,4.76h13.35a3,3,0,0,0,1.7-5.47L359.5,597.1v-4.8l-12.71.2Z" fill="#686175" data-primary="true"/><rect x="324.96" y="64.39" width="346.66" height="254.38" fill="#ccc"/><rect x="330.26" y="70" width="336.06" height="243.16" fill="#fff"/><path d="M403.27,106.39a32.81,32.81,0,0,0-32.82,32.82,34.08,34.08,0,0,0,9.8,23.69l6.25-6.49a24,24,0,0,1,16.77-41.22Z" fill="#ccc"/><path d="M426.47,162.41a32.7,32.7,0,0,1-23.2,9.61,34.76,34.76,0,0,1-21.92-8.26l5.93-6.51a26,26,0,0,0,16,6,24,24,0,0,0,17.64-7.73Z" fill="#ccc"/><path d="M427.29,161.57a32.82,32.82,0,0,0-23-55.16l.11,8.81c12.93.38,22.83,11,22.83,24a23.9,23.9,0,0,1-5.65,15.48Z" fill="#ccc"/><path d="M365.65,138.88c0-.51,0-1,.05-1.53a38.5,38.5,0,0,1,36.51-36.14l1.64,0a1.59,1.59,0,0,0,1.61-1.51v-.09a1.59,1.59,0,0,0-1.56-1.67c-.61,0-1.22,0-1.83,0a41.78,41.78,0,0,0-39.64,39.15c0,.58-.06,1.16-.07,1.73a1.65,1.65,0,0,0,1.64,1.64h0A1.64,1.64,0,0,0,365.65,138.88Z" fill="#ccc"/><path d="M363.59,149.58a41.68,41.68,0,0,0,10.12,18.5,1.63,1.63,0,0,0,2.05.24h0a1.62,1.62,0,0,0,.33-2.49,38.33,38.33,0,0,1-9.31-17,1.65,1.65,0,0,0-2-1.23h0A1.64,1.64,0,0,0,363.59,149.58Z" fill="#ccc"/><path d="M385.24,176.68a41.36,41.36,0,0,0,20.42,4.42,41.62,41.62,0,0,0,11.75-81,1.65,1.65,0,0,0-2.14,1.15h0a1.64,1.64,0,0,0,1.09,1.95,38.35,38.35,0,1,1-29.65,70.55,1.66,1.66,0,0,0-2.08.48h0A1.65,1.65,0,0,0,385.24,176.68Z" fill="#ccc"/><rect x="463.41" y="115.96" width="10.04" height="3.22" rx="1.47" fill="#ccc"/><rect x="463.41" y="159.32" width="10.04" height="3.22" rx="1.47" fill="#ccc"/><rect x="463.41" y="126.8" width="10.04" height="3.22" rx="1.47" fill="#ccc"/><rect x="463.41" y="137.64" width="10.04" height="3.22" rx="1.47" fill="#ccc"/><rect x="463.41" y="148.48" width="10.04" height="3.22" rx="1.47" fill="#ccc"/><path d="M481.43,169.44V111.8a1.29,1.29,0,0,0-1.29-1.29h0a1.29,1.29,0,0,0-1.29,1.29V172h94.68a1.29,1.29,0,0,0,1.29-1.29h0a1.29,1.29,0,0,0-1.29-1.29Z" fill="#ccc"/><rect x="487.85" y="119.18" width="5.61" height="43.36" fill="#ccc"/><rect x="510.91" y="130.02" width="5.61" height="32.52" fill="#ccc"/><rect x="522.76" y="110.92" width="5.61" height="51.61" fill="#ccc"/><rect x="534.14" y="125.18" width="5.61" height="37.36" fill="#ccc"/><rect x="545.83" y="121.9" width="5.61" height="40.63" fill="#ccc"/><rect x="557.21" y="125.18" width="5.61" height="37.36" fill="#ccc"/><rect x="569.21" y="138.27" width="5.61" height="24.26" fill="#ccc"/><rect x="499.38" y="140.58" width="5.61" height="21.95" fill="#ccc"/><rect x="613.85" y="86.73" width="145.81" height="61.74" rx="4.54" fill="#ccc"/><g opacity="0.2"><rect x="613.85" y="102.29" width="145.81" height="1.09"/></g><g opacity="0.2"><rect x="613.85" y="117.06" width="145.81" height="1.09"/></g><g opacity="0.2"><rect x="613.85" y="131.83" width="145.81" height="1.09"/></g><g opacity="0.2"><polygon points="712.78 133.07 686.65 103.53 636.11 132.85 635.56 131.91 686.87 102.14 713.02 131.69 739.26 117.13 739.79 118.08 712.78 133.07"/></g><rect x="365.12" y="219.54" width="13.67" height="71.8" rx="6.26" fill="#ccc"/><path d="M365.12,247.38h13.67a0,0,0,0,1,0,0v37.69a6.26,6.26,0,0,1-6.26,6.26h-1.14a6.26,6.26,0,0,1-6.26-6.26V247.38A0,0,0,0,1,365.12,247.38Z" opacity="0.2"/><rect x="386.86" y="219.54" width="13.67" height="71.8" rx="6.26" fill="#ccc"/><rect x="408.13" y="219.54" width="13.67" height="71.8" rx="6.26" fill="#ccc"/><rect x="458.2" y="227.98" width="116.63" height="6.07" fill="#ccc"/><rect x="458.2" y="227.98" width="58.33" height="6.07" opacity="0.2"/><rect x="458.2" y="250.57" width="116.63" height="6.07" transform="translate(1033.02 507.22) rotate(180)" fill="#ccc"/><rect x="529.54" y="250.57" width="45.28" height="6.07" transform="translate(1104.36 507.22) rotate(180)" opacity="0.2"/><rect x="458.2" y="262.27" width="116.63" height="6.07" transform="translate(1033.02 530.61) rotate(180)" fill="#ccc"/><rect x="463.84" y="262.27" width="32.97" height="6.07" transform="translate(960.65 530.61) rotate(180)" opacity="0.2"/><rect x="458.21" y="273.97" width="116.63" height="6.07" transform="translate(1033.05 554.01) rotate(180)" fill="#ccc"/><rect x="516.53" y="273.97" width="32.97" height="6.07" transform="translate(1066.02 554.01) rotate(180)" opacity="0.2"/><rect x="458.21" y="239.28" width="116.63" height="6.07" fill="#ccc"/><rect x="484.09" y="239.28" width="58.33" height="6.07" opacity="0.2"/><circle cx="185.2" cy="128.8" r="19.16" fill="#fff"/><path d="M170.65,141.27S174.89,128,185.2,128.8c0,0,9.11-.66,15.2,11.66,0,0-4.52,7.89-15.84,7.48A19.17,19.17,0,0,1,170.65,141.27Z" fill="#a7a9ac" fill-rule="evenodd"/><circle cx="184.99" cy="120.35" r="6.23" fill="#a7a9ac"/><path d="M217.83,178.16h96.54a4.39,4.39,0,0,1,3.09,1.27l54.32,53.87a1.23,1.23,0,0,0,1.75,0h0a1.23,1.23,0,0,0,0-1.72l-54.6-54.9a4.36,4.36,0,0,0-3.11-1.29h-98a1.39,1.39,0,0,0-1.39,1.39h0A1.4,1.4,0,0,0,217.83,178.16Z" fill="#a7a9ac" fill-rule="evenodd"/><path d="M408.13,239.28H421.8a0,0,0,0,1,0,0v45.8a6.26,6.26,0,0,1-6.26,6.26h-1.14a6.26,6.26,0,0,1-6.26-6.26v-45.8A0,0,0,0,1,408.13,239.28Z" opacity="0.2"/><path d="M386.86,261.72h13.67a0,0,0,0,1,0,0v23.35a6.26,6.26,0,0,1-6.26,6.26h-1.14a6.26,6.26,0,0,1-6.26-6.26V261.72A0,0,0,0,1,386.86,261.72Z" opacity="0.2"/><circle cx="634.11" cy="132.57" r="4.16" fill="#a7a9ac"/><circle cx="660.2" cy="117.61" r="4.16" fill="#a7a9ac"/><circle cx="686.76" cy="102.64" r="4.16" fill="#a7a9ac"/><circle cx="712.9" cy="132.38" r="4.16" fill="#a7a9ac"/><circle cx="739.53" cy="117.61" r="4.16" fill="#a7a9ac"/><rect x="588.69" y="194.7" width="19.02" height="19.02" fill="#ccc"/><rect x="633.02" y="194.7" width="19.02" height="19.02" fill="#ccc"/><rect x="218.59" y="114.11" width="34.12" height="6.23" rx="2.86" fill="#a7a9ac"/><rect x="218.59" y="137.18" width="34.12" height="6.23" rx="2.86" fill="#a7a9ac"/><rect x="218.59" y="125.65" width="22.9" height="6.23" rx="2.86" fill="#a7a9ac"/><path d="M707,280l-13.9,42.4-17.37,6.2a11.11,11.11,0,0,1-9.74-1.13L610.47,289s-5.76-3.09-7.13-3.09-4.56-2.27-4.56-2.27l-11.4-2.73s-.91-2.72.91-2.72h10.43l-.91-7.28a66.77,66.77,0,0,0-7.75-3.65c-2.72-.91-7.71-5.92-4.08-5.92s16.4,5.44,16.4,5.44l10.73,12.58,57.45,24.22Z" fill="#f9b499"/><path d="M693.12,322.35l-17.42,6.17a11.06,11.06,0,0,1-9.73-1.13L641.9,310.48l5.71-16.58,22.95,9.64L707,280Z" fill="#f48225" data-secondary="true"/><path d="M690.54,584s0,11-1.49,15-6,.5-12.46.5-28.4-.46-32.88-5.44,0-6,5-7.48,25.86-8.46,25.86-8.46Z" fill="#f48225" data-secondary="true"/><path d="M689,599c-1.49,4-6,.5-12.45.5s-28.4-.46-32.88-5.44c-1.74-1.92-2.12-3.26-1.66-4.25,3.2,1.4,9,3.16,19.06,4.52,12.5,1.61,23,2.12,28.59,2.3A13.88,13.88,0,0,1,689,599Z" fill="#fff"/><path d="M754.77,584.56s6.45,14.45,2,17.43-36.89,2-40.84,2-3-4,1.5-6.48,20.42-14.44,20.42-14.44C742.82,583.06,754.77,584.56,754.77,584.56Z" fill="#f48225" data-secondary="true"/><path d="M715.9,604c-2.79,0-3.13-2-1.52-4a195.32,195.32,0,0,0,43.93-2.72c.09,2.1-.27,3.88-1.55,4.72C752.28,605,719.89,603.94,715.9,604Z" fill="#fff"/><path d="M714.15,392c1.21,34.07-1.23,53-2.72,58.94s-5.49,34.35-7.48,41.35-3,21.94-4.48,35.39-9,56.33-9,56.33l-15.94-6V563.63c0-4.48,1-86.21,2-104.15S695,360.39,695,360.39C699.23,352,712.94,358,714.15,392Z" fill="#2f2e41"/><path d="M736.88,356.79a54.27,54.27,0,0,1,13.75,26.3c3.6,16.75-10.75,43.05-10.75,43.05s-10.53,45.78-8,52.26,14.45,33.38,15.45,52.32,7.47,53.84,7.47,53.84c-6.55,1.49-17.44.5-17.44.5s-7-8.9-9-17.37S707,507.3,702,483.38A426.2,426.2,0,0,1,693.24,407C695,360.39,736.88,356.79,736.88,356.79Z" fill="#2f2e41"/><path d="M747,293.38c.51,15.51-7,35.33-8,46.29s6.74,19,2,21.44-38.39,5.74-45.57,3.35-6.69-6.09-6.69-12.06.09-32.73,1.45-43.21c1.32-9.93,11.27-29.57,24.22-39s18.92-5,18.92-5C735.32,267.16,746.52,277.88,747,293.38Z" fill="#f48225" data-secondary="true"/><path d="M701.29,221.2c0-5,7.64-12.82,7.64-12.82,4.48-8.46,18,1.5,25.92,13.45s1.49,18.93-.5,24.41-1,23.42-3,23.42-16.94,2-16.94.5,2-16.43.49-15.94-10.18,4.23-12.21.27a20.5,20.5,0,0,1-1.39-4,50.15,50.15,0,0,1-1.23-18.06Z" fill="#f9b499"/><path d="M727.73,268.16c-3.63.79-17.05,9.83-20.16,9.83s-1.54-5.18.52-8.28,15-7.75,15-7.75C727.69,257.31,731.37,267.37,727.73,268.16Z" fill="#f48225" data-secondary="true"/><path d="M727.73,268.16c-3.63.79-17.05,9.83-20.16,9.83s-1.54-5.18.52-8.28,15-7.75,15-7.75C727.69,257.31,731.37,267.37,727.73,268.16Z" opacity="0.2"/><path d="M702.07,218.24c-15.94-3.49-10.6-20.28-1.63-23.77s11.46,4,15.94,3,17.45-7.48,28.9,0,10.5,25.9,15.94,36.86,26.43,19.41,35.4,51.31-17,40.85-19.93,52.31,5,30.4-8,36.38-29.89,1.48-36.37-15.45,1-31.4,6-49.32.49-19.44-1.5-23.92-11.94-6.45-16.43-17.43,6.46-20.93,8-27.9-5-5-11.45-13.45a45,45,0,0,1-8-18.48C705,211.88,702.1,218.2,702.07,218.24Z" fill="#2f2e41"/><path d="M702.07,218.24c-15.94-3.49-10.6-20.28-1.63-23.77s11.46,4,15.94,3,17.45-7.48,28.9,0,10.5,25.9,15.94,36.86,26.43,19.41,35.4,51.31-17,40.85-19.93,52.31,5,30.4-8,36.38-29.89,1.48-36.37-15.45,1-31.4,6-49.32.49-19.44-1.5-23.92-11.94-6.45-16.43-17.43,6.46-20.93,8-27.9-5-5-11.45-13.45a45,45,0,0,1-8-18.48C705,211.88,702.1,218.2,702.07,218.24Z" opacity="0.2"/><path d="M733.66,287.78c4.37,5.82,2.34,16.75-.14,28.16-2.68,12.33-10.73,51.47-10.73,51.47a82.27,82.27,0,0,1-12.33,5.37c-5.36,1.62-49.33,19.71-49.33,19.71a19.08,19.08,0,0,1-6.43,4.79c-4.55,2.27-19.14,4.56-19.14,4.56s-4.59,3.17-5.45.45,11.4-13.61,11.4-13.61l14.65-4.09h.15a109.51,109.51,0,0,1,12.87-10c8.58-5.87,33.79-26.29,33.79-26.29s5.47-27.91,5.47-37,6-25.19,6-25.19" fill="#f9b499"/><path d="M601.28,272.56s-5.2,4.24-7.55,4.76-.85-3.33-.85-3.33-4.2,3.48-5.46,2.8,1.58-4.32,1.58-4.32a32.37,32.37,0,0,1-6.64,1.7c-3.27.42,3.94-4.84,3.94-4.84l9.18-3.6C598.23,265.71,601.28,272.56,601.28,272.56Z" fill="#f9b499"/><circle cx="351.59" cy="382.36" r="5.19" opacity="0.2"/><path d="M733.89,287.64c3.81,6.21,2.34,16.76-.14,28.17C731.07,328.14,723,367.28,723,367.28a81.32,81.32,0,0,1-12.34,5.36c-1.55.48-6.38,2.35-12.44,4.76l-14.82-13.71C693,356.15,703.19,348,703.19,348s3.22-27.87,3.22-37c0-7.62,4.91-21,6.54-25.19v0a6,6,0,0,1,1.8-2.48C717.94,280.68,726.47,275.54,733.89,287.64Z" fill="#f48225" data-secondary="true"/><path d="M733.89,287.64c3.81,6.21,2.34,16.76-.14,28.17C731.07,328.14,723,367.28,723,367.28a81.32,81.32,0,0,1-12.34,5.36c-1.55.48-6.38,2.35-12.44,4.76l-14.82-13.71C693,356.15,703.19,348,703.19,348s3.22-27.87,3.22-37c0-7.62,4.91-21,6.54-25.19v0a6,6,0,0,1,1.8-2.48C717.94,280.68,726.47,275.54,733.89,287.64Z" opacity="0.2"/></svg>