<svg xmlns="http://www.w3.org/2000/svg" width="865.76" height="682.89" viewBox="0 0 865.76 682.89"><g style="isolation:isolate"><g id="fced98cf-f247-47f2-9442-839a345dbad9" data-name="Layer 1"><path d="M863.16,197.81v11.62h-3.45V197.81h-2.83v11.62H828.33v8.41H817.78v1.41h-3.52v18.69H800.49V179.4h-2.13v38.68H783.89V156.63h-7.42v-5.71h-1.68V150h-.68v-1.58h-1.24V136.57h-.81l-.44-10.39h-.35l-.44,10.39H770v11.89h-1.25V150h-.68v.88h-1.67v5.71H745.78l-11.9,18.51v14.61h-6.51v13.44h-3.89c-.11.24-.21.48-.33.72v23.8h-7.56V217.13L706,211.44V113.89H676V78.29H655.91v35.6H642.09v65.92h-12.7v-6.59h-.91v58.42h-4.77V192.37H598v39.27H593.7v60.54h-1.58v-3.49h-4.34V129.93h-21v98.73H556.26v1.62h-3.52V251H529.92V209.43h-7.31V197.81h-2.82v11.62h-3.45V197.81h-2.82v11.62H485v8.41H474.41v1.41h-3.52v18.69H457.13V179.4H455v38.68H440.52V162.42H398.69l-8.18,12.72v14.61H384v13.44h-3.89c-.11.24-.21.48-.34.72v23.8h-7.56V217.13l-9.59-5.69V113.89h-30V78.29H312.54v35.6H298.73v65.92H286v-6.59h-.91v58.42h-4.77V192.37h-25.7v36.29H246V129.93h-21v45.58H199.46v9.66H188.91v1.61h-3.52v21.47h-1v-35h-.91v6.59h-12.7V101.65h-54V211.44l-9.59,5.69v10.58H99.62v-23.8c-.13-.24-.23-.48-.34-.72H95.39V189.75h-6.5V175.14L77,156.63H56.33v-5.71H54.66V150H54v-1.58H52.73v-.4l-2.83,0v.44H48.65V150H48v.88H46.3v5.71H38.88v61.45H24.4V179.4H22.27v58.54H8.5V219.25H5v-1.41H-.65V438.29H864.59V197.81ZM771.26,148h-.38V137.36h.38Zm.76,0h-.38V137.36H772Z" fill="#ccc" opacity="0.62" style="mix-blend-mode:multiply"/><polygon points="-0.53 540.73 212.11 434.8 663.72 435.45 867.74 528.5 867.74 682.85 0.7 683.85 -0.53 540.73" fill="#ccc"/><polygon points="-0.53 540.73 212.11 434.8 663.72 435.45 867.74 528.5 867.74 682.85 0.7 683.85 -0.53 540.73" fill="#58595b"/><polygon points="212.11 434.8 -0.33 434.07 -0.53 540.73 212.11 434.8" fill="#ccc"/><polygon points="663.72 435.45 865.8 435.88 867.74 528.5 663.72 435.45" fill="#ccc"/><polygon points="32.13 576.51 117.9 515.97 172.73 515.42 87.42 576.51 32.13 576.51" fill="#fff"/><polygon points="125.58 574.64 196.86 575.18 268.69 513.77 215.5 515.97 125.58 574.64" fill="#fff"/><polygon points="263.21 574.09 313.65 516.51 363.55 515.42 333.94 574.55 263.21 574.09" fill="#fff"/><polygon points="400.84 575.1 412.35 515.5 461.7 515.97 473.22 574.09 400.84 575.1" fill="#fff"/><polygon points="509.96 516.51 540.66 574.72 611.4 574.09 559.86 515.5 509.96 516.51" fill="#fff"/><polygon points="608.66 516.51 678.84 574.64 751.22 574.64 660.75 515.97 608.66 516.51" fill="#fff"/><polygon points="706.81 516.51 815.93 574.09 870.56 574.64 758.9 515.97 706.81 516.51" fill="#fff"/><path d="M91.57,405S78.23,409.22,74,429s2.67,55.32-2.67,71.94c0,0,5.61-5.51,5.34-17.78s-2.32-54.5,10.48-62.1Z" fill="#878a8c"/><path d="M62.29,505.63a18.26,18.26,0,0,0,3.37-3.25c-.9,1.93-2.87,9.5-2.58,9.42h.06a9.15,9.15,0,0,0,2.69-1.2c-1.09,3.21-1.23,6.9.88,9.25.08.09.44.33.44,0,0-4.23,2.39-7.56,4.06-11.22-.26,1.24-.07,4.84.18,4.54a13,13,0,0,0,2.74-7.57c.38.58,1.77,1.47,1.75,1.28-.28-3.37-.13-6.93,1.5-10a19.2,19.2,0,0,0,2.44-7.57c0,.45.93,2.68,1,2.07a34.41,34.41,0,0,0,.15-9.78c.25.79,1.67,3.2,1.7,2.67.42-8.65-6-15.62-6.15-24.14v-.15a14.33,14.33,0,0,1,0-1.6s-.08-.12-.09-.07,0,.05,0,.07c-.15-1.34-.62-2.31-1.87-1.64-5.27,2.83-5.94,10.15-5.43,15.48,0,.15.48.82.62.51.29-.63.59-1.25.89-1.87l-.39,1.32c-1,3.31-2.2,6-4.9,8.31-.16.13,2.83.33,3.88-.65-.08.22-.16.44-.25.66-1.18,3-4.28,8.54-4.75,11.7a24.14,24.14,0,0,0,2.79-2,50.85,50.85,0,0,1-2.7,4.46c-.16.24,1.66.23,2.17-.05a31.23,31.23,0,0,0-4.24,10.89S62.29,505.61,62.29,505.63Z" fill="#231f20"/><path d="M230.3,563s4.19,8.2,4.39,10.73-8.14,4.95-16.09,1.16a3.52,3.52,0,0,1-1.94-2.19c-.3-1.5.41-10.94.41-10.94Z" fill="#231f20"/><path d="M216.59,562.19a9.08,9.08,0,0,1-.05-1.16c0-1,.23-2.43-.33-3.38-.9-1.54-2.42-2-3.61-3.35a6.31,6.31,0,0,1-1.67-5.22c3-9.23,3.65-26.11,1.09-37.23a2.69,2.69,0,0,1-1-.86c-4-6.32-2.68-10.86,1.24-17.08,4.14-6.58,1.6-16.46,1-23.66-1.08-13.72,2.21-28.45,11.23-39.15,6-7.06,17.11-14.05,23.46-2.91,6,10.5,5,22.79,1.13,33.79-5.27,14.84-23.55,24.68-21.56,42.06.5,4.37-.29,8.5-3.75,11.14-2.5,11.1,6.1,44.27,7.09,48.55a17.26,17.26,0,0,1-9.28,2.7C220.06,566.46,218.32,564.58,216.59,562.19Z" fill="#9ea0a2"/><path d="M216.59,562.19a9.08,9.08,0,0,1-.05-1.16c0-1,.23-2.43-.33-3.38-.9-1.54-2.42-2-3.61-3.35a6.31,6.31,0,0,1-1.67-5.22c3-9.23,3.65-26.11,1.09-37.23a2.69,2.69,0,0,1-1-.86c-4-6.32-2.68-10.86,1.24-17.08,4.14-6.58,1.6-16.46,1-23.66-1.08-13.72,2.21-28.45,11.23-39.15,6-7.06,17.11-14.05,23.46-2.91,6,10.5,5,22.79,1.13,33.79-5.27,14.84-23.55,24.68-21.56,42.06.5,4.37-.29,8.5-3.75,11.14-2.5,11.1,6.1,44.27,7.09,48.55a17.26,17.26,0,0,1-9.28,2.7C220.06,566.46,218.32,564.58,216.59,562.19Z" fill="#9ea0a2"/><path d="M240.26,476.2a105.23,105.23,0,0,0-8.92,12.06,47.16,47.16,0,0,1-6.12-.67C228.82,482.19,235.05,479.83,240.26,476.2Z" fill="#343537"/><path d="M220.46,502c-1.8-1.15,5.12-4.08,5.72-4.32l1.66-.59a22.57,22.57,0,0,0-.43,4l-.17.06C225.62,501.6,222.08,503,220.46,502Z" fill="#343537"/><path d="M220.54,514.06a14.08,14.08,0,0,1,2.39-2.3,28.49,28.49,0,0,0,4.6-3.38,9.82,9.82,0,0,1-3.74,6.8c-.06.28-.11.57-.16.87a7,7,0,0,1-3-1C219.69,514.53,219.84,514.84,220.54,514.06Z" fill="#343537"/><path d="M225.63,552.31c-5.41-.41-10.1-3.42-13.59-7.48.26-1.24.49-2.56.68-3.93,3.93,2.91,9.29,5.57,14.3,6,.4,1.92.8,3.77,1.19,5.49C227.35,552.4,226.48,552.38,225.63,552.31Z" fill="#343537"/><path d="M221.82,560.71c2.54.68,5.57.25,8.4.31.31,1.25.54,2.2.66,2.71a17.26,17.26,0,0,1-9.28,2.7c-1.54,0-3.28-1.85-5-4.24a9.08,9.08,0,0,1-.05-1.16,20.47,20.47,0,0,0,0-2.08A46.52,46.52,0,0,0,221.82,560.71Z" fill="#343537"/><path d="M213.58,530.73c.06-2.42,0-4.87-.08-7.27,3.18,2,7.11,2.75,10.35,4.73.15,1.33.33,2.69.53,4.07C220.64,532.13,216.86,532.24,213.58,530.73Z" fill="#343537"/><path d="M214.74,506.65a14.23,14.23,0,0,1-5.59.44,10.83,10.83,0,0,1-.41-5.14A38.28,38.28,0,0,0,214.74,506.65Z" fill="#343537"/><path d="M212.88,492.76a15,15,0,0,0,1.08-3,15.09,15.09,0,0,1,5.11,1.78A56.93,56.93,0,0,1,212.88,492.76Z" fill="#343537"/><path d="M237.63,472.38c-6.64,7.46-14.62,12.41-23.39,16,1-5.88-.54-12.75-1-18.14-1.08-13.72,2.21-28.45,11.23-39.15,6-7.06,17.11-14.05,23.46-2.91a32.63,32.63,0,0,1,4.08,13.13A61.93,61.93,0,0,1,237.63,472.38Z" fill="#afb1b4" opacity="0.6" style="mix-blend-mode:multiply"/><path d="M149.72,548.19s3.44,8.54,3.42,11.08-8.56,4.2-16.14-.29a3.49,3.49,0,0,1-1.73-2.35c-.17-1.52,1.39-10.85,1.39-10.85Z" fill="#231f20"/><path d="M136.14,546.17a9.08,9.08,0,0,1,.05-1.16c.11-1,.44-2.4,0-3.39-.76-1.62-2.23-2.24-3.3-3.66a6.32,6.32,0,0,1-1.2-5.35c1.81-45.22-13.08-40.41-9.5-53.47,1.41-5.13,10.48-21,8.26-50.15-2.92-38.21,39-24,43.31-17.57,8.18,10.57,8.91,24.51,4.71,36.32a36.82,36.82,0,0,1-5.85,10.79c-5.06,6.25-28.28,20.62-31.13,28.23-4.08,10.93-3.41,32.5,4.45,51.71.71,1.74,3.51,8.93,4.31,10.52a17.23,17.23,0,0,1-9.48,1.85C139.21,550.74,137.65,548.71,136.14,546.17Z" fill="#9ea0a2"/><path d="M136.14,546.17a9.08,9.08,0,0,1,.05-1.16c.11-1,.44-2.4,0-3.39-.76-1.62-2.23-2.24-3.3-3.66a6.32,6.32,0,0,1-1.2-5.35c1.81-45.22-13.08-40.41-9.5-53.47,1.41-5.13,10.48-21,8.26-50.15-2.92-38.21,39-24,43.31-17.57,8.18,10.57,8.91,24.51,4.71,36.32a36.82,36.82,0,0,1-5.85,10.79c-5.06,6.25-28.28,20.62-31.13,28.23-4.08,10.93-3.41,32.5,4.45,51.71.71,1.74,3.51,8.93,4.31,10.52a17.23,17.23,0,0,1-9.48,1.85C139.21,550.74,137.65,548.71,136.14,546.17Z" fill="#9ea0a2"/><path d="M124.6,490.77c-1.47-2.55-2.65-4.44-2.92-6.88,3.06,3,6.31,5.86,9.55,8.72A22.4,22.4,0,0,1,124.6,490.77Z" fill="#343537"/><path d="M131.24,512.84c-.15-1.48-.32-2.88-.52-4.17a79.26,79.26,0,0,0,9,6.07c.19,1.51.44,3.06.71,4.61A54.07,54.07,0,0,1,131.24,512.84Z" fill="#343537"/><path d="M139.37,530.84a67.28,67.28,0,0,1-7.58-2c0-1.64,0-3.21,0-4.7,3.34.62,6.57,1.47,9.92,1.25.5,2.09,1.08,4.19,1.74,6.28C141.9,531.42,140.45,531.08,139.37,530.84Z" fill="#343537"/><path d="M136.27,546.39l-.13-.22a9.08,9.08,0,0,1,.05-1.16,8.12,8.12,0,0,0,.06-3.07,24.71,24.71,0,0,0,10.65-1c.44,1.11,1,2.42,1.47,3.67C144.53,546.23,140.14,547.16,136.27,546.39Z" fill="#343537"/><path d="M132.07,497.94c2.43-.66,4.88-1.22,7.34-1.72a68.16,68.16,0,0,0-.39,7.2A50.91,50.91,0,0,1,132.07,497.94Z" fill="#343537"/><path d="M172.6,458.53c-5.06,6.25-28.28,20.62-31.13,28.23a43.53,43.53,0,0,0-2.26,11.77,61.13,61.13,0,0,1-12.43-3.63c-3.24-6.94-6.5-8.86-4.61-15.76,1.41-5.13,10.48-21,8.26-50.15-2.92-38.21,39-24,43.31-17.57,8.18,10.57,8.91,24.51,4.71,36.32A36.82,36.82,0,0,1,172.6,458.53Z" fill="#afb1b4" opacity="0.6" style="mix-blend-mode:multiply"/><path d="M277.5,313.31a23.79,23.79,0,0,1-1.71-16c2.29-8.57,10.56-17.35,12.84-13.21s7.93,16.42-2.23,27.66C286.4,311.78,279.37,318.81,277.5,313.31Z" fill="#878a8c"/><path d="M279.16,313.92a23.49,23.49,0,0,1,0-13.1c2.07-7.24,8-15.07,9.16-11.81A24.31,24.31,0,0,1,285,312S280,318.34,279.16,313.92Z" fill="#b8babc"/><path d="M82,448.67c4.09,13.41,18.07,22.14,29.87,28.1,15.17,7.68,31.64,12.47,48.4,15.14s33.26-3,49.74-8.43c24.09-8,43.24-33.51,40.82-59.21-1.85-19.63-1.38-27.73,1.12-47.12,1.46-11.39,3.17-29.2,11-38.24a30.27,30.27,0,0,0,4.82-6.89c2.65-5.61,2.29-10.82.35-16.59-2.26-6.76-11.37-19.82-19.73-13.29a.66.66,0,0,0-.17.24c-11.36,3.93-19.26,15.95-24.53,26.27-4,7.81-7.41,15.89-10.95,23.91-.4.89-.84,1.8-1.3,2.7-7.2,13-16.38,25.75-30.19,32-17.25,7.84-36.2,8.5-54.83,9.07-14.12.44-30.14-2.91-38.94,11.21A51.39,51.39,0,0,0,82,448.67Z" fill="#dcddde"/><path d="M244.88,361.48c-9.63-4.28-15.58-12.6-17.61-23.2a94.2,94.2,0,0,1-1.21-14,65.85,65.85,0,0,1,10.6-14.35c-.5,1.38-.95,2.77-1.37,4.13-1.85,6-4,12.14-4.36,18.44s.81,12.3,4.41,17.52C238.18,354.11,241.69,357.66,244.88,361.48Z" fill="#343537"/><path d="M225.42,352.33c3.33,5.46,8.6,8.49,13.12,12.66a31.2,31.2,0,0,1-22.34-20.27c1.49-3.4,3-6.79,4.59-10.15C221.49,340.67,222.2,347.05,225.42,352.33Z" fill="#343537"/><path d="M228.16,368.56c3.93,3.59,6.25,8.35,10,12,2.1,2.07,4,3.66,5.46,5.78a46.08,46.08,0,0,0-6.77-4.46c-2.35-1.37-4.9-2.81-6.63-5a65.43,65.43,0,0,0-4.94-5.82c-4.79-4.74-10.34-8.55-15.69-12.61.64-1.09,1.27-2.17,1.87-3.27.46-.9.9-1.81,1.3-2.7l.44-1a27.73,27.73,0,0,0,3.42,6.09C219.93,361.89,224.21,365,228.16,368.56Z" fill="#343537"/><path d="M206.87,382a158,158,0,0,0,13.37,14.26c8.08,8,19,18.38,15.82,30.64-1.32-3.31-2.27-6.81-4.05-9.89a34.76,34.76,0,0,0-7.33-8.44c-5.14-4.47-10.57-8.57-15.66-13.1s-11.25-9.93-15.69-16.17a65.57,65.57,0,0,0,8-8.51A36.44,36.44,0,0,0,206.87,382Z" fill="#343537"/><path d="M247.06,414a41.69,41.69,0,0,1,2.76-4.08c.11,3,.32,6.31.62,10a66.54,66.54,0,0,0-6.49,9.37C244.06,424,244.53,418.4,247.06,414Z" fill="#343537"/><path d="M249.92,397c-.08,1.4-.13,2.78-.17,4.16-1.45.67-2.95,1.25-4.45,1.83A21.79,21.79,0,0,1,249.92,397Z" fill="#343537"/><path d="M252.38,373.71c-.15,1.19-.29,2.35-.43,3.44-.07.54-.14,1.07-.2,1.59-1.27.54-2.55,1.05-3.85,1.51C249.35,378,251,375.93,252.38,373.71Z" fill="#343537"/><path d="M212.33,407c5.23,5.15,11,11.42,14.31,18,2.32,4.62,2.7,9.89,3.07,15.09a82,82,0,0,0-5.9-13.09c-3.81-6.59-8.83-11.6-14.28-16.84-6.15-5.91-12.41-11.7-18.53-17.64-2.29-2.21-4.61-4.43-6.81-6.73a48.91,48.91,0,0,0,4.86-3.11,75.61,75.61,0,0,0,8,10.21C201.79,398,207.38,402.16,212.33,407Z" fill="#343537"/><path d="M172.47,456.37c4.21-11.48,11.1-21.67,16.11-32.79,8,10.78,12.52,27.2,10.36,40.33A75.14,75.14,0,0,1,191.18,486c-.66,1.27-1.33,2.54-2,3.81a80.69,80.69,0,0,1-21.54,2.71A86.07,86.07,0,0,1,172.47,456.37Z" fill="#343537"/><path d="M206,466.1a85.47,85.47,0,0,0,0-16.85c-.48-4.17-2.49-8.15-3.18-12.26,5.76,7.82,8.52,17.86,9.65,27.37a93.16,93.16,0,0,1,.47,18.06c-1,.38-1.93.74-2.92,1.06q-4.11,1.38-8.22,2.7A89.17,89.17,0,0,0,206,466.1Z" fill="#343537"/><path d="M159.47,468.17a102.68,102.68,0,0,1,8.73-33c3.74-8.56,9.62-16.68,11.66-25.9.85-3.82,1.2-7.54-.19-11.29-1.09-2.93-2.58-5.72-3.41-8.7.76-.29,1.53-.57,2.29-.88,6.89,15.36,22.53,24.1,33.88,35.86,7.59,7.85,7.37,19.22,9,29.42,1.17,7.14,3.25,14.67,3.6,22.1-.63.45-1.3.85-1.95,1.28-.6-5.31-3.07-10.45-4.43-15.56-2.22-8.31-2.58-17.44-5.72-25.45-4.86-12.35-19.07-17.38-26.78-27.54-.38-.49-1.32-.57-1.47.19-3.05,16.05-15.14,28.3-20,43.78-4,12.91-4.57,26.21-3.51,39.51-.33,0-.65-.07-1-.12l-1.9-.34C158.68,483.76,158.84,476,159.47,468.17Z" fill="#343537"/><path d="M165.78,392.46q2.72-.65,5.39-1.45c1.48,6.26,3.18,12.57,1.87,19-1.49,7.31-4.78,14.41-8.36,20.94-3.27,6-7.18,11.63-8.87,18.32A75.25,75.25,0,0,0,154,460.38a85.3,85.3,0,0,1-1-15.93c.48-8.91,3.53-16.42,8.73-23.58,3.94-5.41,6.39-10.25,5.9-17.07A76.26,76.26,0,0,0,165.78,392.46Z" fill="#343537"/><path d="M159.74,393.69c1.3,7.13-.14,13.74-3.68,20.42a112.91,112.91,0,0,0-6.44,15.57,67.72,67.72,0,0,1,.72-12.5c.72-4.14,2-8.14,2.86-12.25a36.37,36.37,0,0,0,1-10.39Q157,394.17,159.74,393.69Z" fill="#343537"/><path d="M143.45,431.54c1.07,12,3.69,23.76,2.37,35.69-1.6-12.07-3.33-23.8-6.89-35.59-2.17-7.17-3.47-14.26-2.91-21.78.35-4.65.94-9.29,1.4-13.93,2.94-.15,5.89-.32,8.82-.56C146.51,407.47,142.36,419.36,143.45,431.54Z" fill="#343537"/><path d="M137.46,461.64c1.06,3.92.88,8.15,1.35,12.16.54,4.53,1.15,9.05.58,13.55-3.27-.92-6.5-2-9.69-3.06C134.41,477.89,136,469.59,137.46,461.64Z" fill="#343537"/><path d="M149.85,476.33a85.79,85.79,0,0,1-.93,13.39c-1.49-.33-3-.73-4.44-1.1C146.09,484.45,147.83,480.33,149.85,476.33Z" fill="#343537"/><path d="M127.55,407.86c-.5,6.6.6,12.9,1.13,19.35-2.51-5.43-5.39-10.89-5.73-16.85-.26-4.76.62-9.36,1.52-14l2,0,2.79-.1A99,99,0,0,0,127.55,407.86Z" fill="#343537"/><path d="M116.67,422.36C113,417.94,111,412,110,406.46a46.77,46.77,0,0,1-.85-10c3-.18,6-.15,9-.11C115.78,404.72,116.66,413.6,116.67,422.36Z" fill="#343537"/><path d="M104.51,418.44c-3.56-5-6.65-12.89-6.58-19.78a28.44,28.44,0,0,1,5.52-1.58C103,404.21,104.06,411.31,104.51,418.44Z" fill="#343537"/><path d="M80,432.46a52.59,52.59,0,0,1,2.89-15.18c.2,2.2.48,4.4.7,6.62.54,5.18,2.38,10.6,2.41,15.81A26.72,26.72,0,0,1,80,432.46Z" fill="#343537"/><path d="M94.1,419.72a128.5,128.5,0,0,1-1.55,19.52c-2.18-11.08-4.43-22.34-3.75-33.57a21.61,21.61,0,0,1,3.88-4C92.79,407.71,94,413.65,94.1,419.72Z" fill="#343537"/><path d="M229.21,391.21a77.6,77.6,0,0,0,8.19,7.19c-10.72-1.27-14.7-10.76-21.41-18.4-3.85-4.38-8.18-8.49-11.77-13.09,1.18-1.68,2.33-3.4,3.41-5.15,4.39,6,10.17,10.93,13.84,17.52C223.76,383.41,225.9,387.78,229.21,391.21Z" fill="#343537"/><path d="M232.5,337l-.08-.2a19,19,0,0,1,.37-11c2.17-6.14,4.56-12.23,8.71-17.32,1.35-1.66,2.78-3.3,4.08-5a24.28,24.28,0,0,1,2.65-1.1.66.66,0,0,1,.17-.24c8.36-6.53,17.47,6.53,19.73,13.29,1.94,5.77,2.3,11-.35,16.59a30.27,30.27,0,0,1-4.82,6.89c-4.22,4.88-6.66,12.3-8.24,19.89C245,356.06,236.36,345.89,232.5,337Z" fill="#afb1b4" opacity="0.6" style="mix-blend-mode:multiply"/><path d="M202.31,486c-11.17,3.6-22.35,6.66-33.68,6.56-2.48-15.06-2.56-30.93,5.4-44.46,4.06-6.91,9.75-12.42,17.54-14.86,6.55-2.05,10.91.07,14.17,4.13C213.8,452,212.53,473.08,202.31,486Z" fill="#afb1b4" opacity="0.6" style="mix-blend-mode:multiply"/><path d="M84,442.55c0-7.12.94-22.89,14.21-27.25,6.94-2.28,24.43-.46,30,3.34,9.5,6.44,11.58,20.28,11.25,30.93-.19,6.57-1.13,14-4.73,19.71-2.67,4.21-7.41,9.76-12.27,12.31-3.61-1.47-7.16-3.06-10.65-4.82C101.53,471.55,89.53,464.2,84,453.44,84.08,449.83,84,446.19,84,442.55Z" fill="#afb1b4" opacity="0.6" style="mix-blend-mode:multiply"/><path d="M252,299.42c2.42-3.73,8.89-3.08,15.06-2.44,8.74.94,19.77,7.65,25,14.77A62.27,62.27,0,0,1,299.84,327c3.15,8.66,12.34,19.69,18.71,27.36.28,5.38-2.29,11.54-4.4,15.87a41.16,41.16,0,0,1-3.58,6.13,29.06,29.06,0,0,1-15,3.16,8.65,8.65,0,0,1-1.17-.47c-1.87-2-3.19-4.8-5-6.7a20,20,0,0,0-9.61-5.62c-1.63-.47-3.29-.86-4.95-1.22C262,359.9,242.6,353,237,338.19,231.62,324.18,240.65,316.89,252,299.42Z" fill="#dcddde"/><path d="M282,302.75a43.93,43.93,0,0,1,5.56,4.19c3.58,5.41,6.29,11.93,6.27,17.87C289.29,315.81,285.86,309.31,282,302.75Z" fill="#343537"/><path d="M285.18,316.88c2.17,4.74,5.66,11.34,4.42,16.82-5.85-5.62-9.28-13.36-13.5-20.17-2.56-4.12-5.07-8.28-7.31-12.58-.62-1.21-1.49-2.59-2.29-4l.55.05a27.63,27.63,0,0,1,6.14,1.48A81,81,0,0,1,285.18,316.88Z" fill="#343537"/><path d="M275.93,326.12c-4.08-1.78-7.15-5.86-9.81-9.25-1.94-2.47-3.9-4.92-5.72-7.48-1.6-2.25-5.21-6.86-7.15-11.26,2-1.48,5-1.75,8.43-1.59C264.92,307.08,270.09,316.79,275.93,326.12Z" fill="#343537"/><path d="M303.24,333.93a18.81,18.81,0,0,0-3.51.69c.26-2.05.49-4.18.62-6.33A43.81,43.81,0,0,0,303.24,333.93Z" fill="#343537"/><path d="M307.9,340.94c2.16,3,4.48,5.92,6.7,8.64a111.84,111.84,0,0,0-12.78-9.52A34.28,34.28,0,0,1,307.9,340.94Z" fill="#343537"/><path d="M277.4,336.47c-4.83,4.2-10.11,7.89-13.17,13.72a33,33,0,0,0-3.37,9.17,93.42,93.42,0,0,1-8.64-4.68C255.53,344.1,266.26,337.18,277.4,336.47Z" fill="#343537"/><path d="M253.25,332.62c.17-.37-11.34-6.5-13.14-15.79.21-.34.43-.67.64-1a45.72,45.72,0,0,0,7.22,7.67c3.92,3,8.92,4.92,12.39,8.48,1.95,2-2.63,4-4.19,5.19a21.43,21.43,0,0,0-4.48,4.44A37.3,37.3,0,0,0,247,351c-.51-.4-1-.82-1.49-1.24C245.91,337.46,250.49,338.87,253.25,332.62Z" fill="#343537"/><path d="M240.94,333.58c-.77-2.85-3-4.66-5.24-6.47a20.58,20.58,0,0,1,1-3.53c1.56,1.68,3.17,3.3,4.74,5,2.43,2.6,7,2.49,5,6.06-1.25,2.26-5.33,6.55-6.83,8.62-.46-.67-.87-1.38-1.27-2.1C240,338.77,241.58,335.94,240.94,333.58Z" fill="#343537"/><path d="M279.33,345.31a48.91,48.91,0,0,0-8.6,13.33c-.56,1.35-1.21,2.84-1.69,4.38-1.3-.56-2.64-1.14-4-1.74C267.23,354.59,272.47,346.93,279.33,345.31Z" fill="#343537"/><path d="M249.83,316.23a77.18,77.18,0,0,1-5.92-5.07c1.5-2.13,3.13-4.43,4.85-6.93,4.4,7.42,9.6,14.33,14.68,21.32C258.35,324.39,253.69,319.31,249.83,316.23Z" fill="#343537"/><path d="M273.35,364.87c-1.33-1.92-1.91-4.21,1-5.88a24.36,24.36,0,0,1,4.11-1.74c1.65-.58,2.58-2.38,3.22-3.87,1.91-4.46,4.77-9.57,9.81-11a24.9,24.9,0,0,1,18.12,2.08l1.7,1c2.51,3.22,5.06,6.28,7.26,8.93.28,5.38-2.29,11.54-4.4,15.87a41.16,41.16,0,0,1-3.58,6.13,29.06,29.06,0,0,1-15,3.16,8.65,8.65,0,0,1-1.17-.47c-1.87-2-3.19-4.8-5-6.7a20,20,0,0,0-9.61-5.62c-1.63-.47-3.29-.86-4.95-1.22Z" fill="#433d3f"/><path d="M186.81,576s4.19,8.21,4.4,10.74-8.16,4.94-16.1,1.15a3.49,3.49,0,0,1-1.94-2.19c-.3-1.49.41-10.93.41-10.93Z" fill="#231f20"/><path d="M173.1,575.16a8.93,8.93,0,0,1,0-1.16c0-1,.23-2.43-.32-3.37-.91-1.55-2.43-2-3.62-3.36a6.29,6.29,0,0,1-1.67-5.21c3-9.24,3.65-26.12,1.09-37.24a2.85,2.85,0,0,1-1-.85c-4-6.33-2.68-10.87,1.24-17.09,4.15-6.58,1.6-16.45,1-23.66C168.71,469.5,172,454.77,181,444.08c6-7.06,17.11-14.05,23.46-2.92,6,10.5,5,22.79,1.13,33.8-5.27,14.83-23.55,24.67-21.56,42.05.5,4.37-.29,8.5-3.74,11.15-2.51,11.09,6.09,44.26,7.08,48.55-2.56,1.86-6.32,2.63-9.28,2.69C176.57,579.43,174.83,577.56,173.1,575.16Z" fill="#cccdce"/><path d="M188.81,465.31c-5.9.7-11.81,2.08-17.75.81l-.24-.05c.28-1.38.6-2.75,1-4.11,6.21-.45,12-3.89,18.52-3.41,8.06.59,12.42,5.95,16.69,11.84-.18.68-.37,1.35-.57,2C202.28,466.86,196.11,464.43,188.81,465.31Z" fill="#343537"/><path d="M183.53,487.85c-4.24-2.5-9-3.3-13.73-4.51a.49.49,0,0,0,0-.12c0-.58,0-1.16-.08-1.75,2,.45,4,1,6,1.35,2.46.47,5,.54,7.45,1.15,5,1.25,8.38,4.72,10.41,9.15-.87,1.09-1.72,2.2-2.54,3.3C188.85,493.27,186.94,489.85,183.53,487.85Z" fill="#343537"/><path d="M183.64,503c-2.57-.51-5.79-.57-8.13-1.81-1.4-.74-2.89-1.88-4.46-2.65,0-1.18,0-2.37,0-3.56a83.16,83.16,0,0,0,8.1,3.69c2.8,1,5.77,1.87,8.23,3.46-.3.54-.59,1.09-.86,1.65A22.74,22.74,0,0,0,183.64,503Z" fill="#343537"/><path d="M184,515.55a26.82,26.82,0,0,1-10.81,2.91,15.09,15.09,0,0,1-8-2.52,17.25,17.25,0,0,1,2.62-7.4c3,2,6.07,3.92,9.67,4.61a14,14,0,0,0,6.56-.72A23.12,23.12,0,0,0,184,515.55Z" fill="#343537"/><path d="M180.31,528.16a23.9,23.9,0,0,0-.45,5.43,20.23,20.23,0,0,1-10.12-.83c-.15-1.7-.36-3.35-.62-4.92A30.65,30.65,0,0,0,184,521.6,9.74,9.74,0,0,1,180.31,528.16Z" fill="#343537"/><path d="M169.9,547.6c.11-1.66.18-3.36.21-5.07a48.34,48.34,0,0,0,10.31-.9c.11,1,.26,2,.4,3.1C177.3,546.21,173.64,547.61,169.9,547.6Z" fill="#343537"/><path d="M172.15,559.88a15.89,15.89,0,0,0-4.43,1.21,56.26,56.26,0,0,0,1.77-9.13c4.27.54,8.78,1.53,12.49,0,.38,2.11.79,4.22,1.2,6.26C179.68,559.4,176,559.5,172.15,559.88Z" fill="#343537"/><path d="M179,572.67c-1.84.82-3.67,2-5.57,2.89-.09-.14-.19-.26-.29-.4a8.93,8.93,0,0,1,0-1.16c0-1,.23-2.43-.32-3.37-.91-1.55-2.43-2-3.62-3.36a4.2,4.2,0,0,1-.37-.49c3.46,0,6.75.6,10.25-.5a27.32,27.32,0,0,0,5.39-2.41c.46,2,.89,3.94,1.29,5.65C183.5,570.68,181.25,571.65,179,572.67Z" fill="#343537"/><path d="M196,479.53a19.2,19.2,0,0,0-7.75-4c-6.08-1.55-12.36-.42-18.48-1.41,0-.62.09-1.23.14-1.84,5.27.5,10.61-.12,16.05.19,6.52.36,13.5,2.94,16.55,8.82-.7,1.15-1.47,2.26-2.27,3.37A45.87,45.87,0,0,0,196,479.53Z" fill="#343537"/><path d="M195.34,447.93c-4-.82-8.64,1.16-12.28,2.44a64.43,64.43,0,0,1-7.68,2.4c.33-.67.65-1.35,1-2,5.44-.75,10.25-5.39,15.75-6.28,8.14-1.31,12.43,7.49,16.61,13.73,0,.9-.05,1.8-.11,2.7C205.32,455.57,201.74,449.26,195.34,447.93Z" fill="#343537"/><path d="M106.24,561.16s3.43,8.55,3.41,11.09-8.56,4.19-16.14-.3a3.46,3.46,0,0,1-1.73-2.35c-.17-1.52,1.39-10.85,1.39-10.85Z" fill="#231f20"/><path d="M92.65,559.14a9,9,0,0,1,0-1.16c.12-1,.44-2.39,0-3.39-.76-1.61-2.23-2.24-3.3-3.66a6.26,6.26,0,0,1-1.19-5.34c1.81-45.23-13.09-40.41-9.51-53.48,1.41-5.12,10.49-21,8.26-50.15-2.92-38.2,39-24,43.31-17.57,8.19,10.57,8.91,24.52,4.71,36.32a36.69,36.69,0,0,1-5.85,10.79c-5.05,6.25-28.28,20.62-31.12,28.24-4.09,10.93-3.42,32.5,4.44,51.71.71,1.74,3.51,8.92,4.31,10.51-2.71,1.62-6.53,2.06-9.48,1.86C95.72,563.71,94.16,561.68,92.65,559.14Z" fill="#cccdce"/><path d="M114.32,424.28c3.55,2.52,7,4.78,11.3,5.87,3,.76,6.08,1.29,9.11,2,.38.93.73,1.88,1,2.85a26.7,26.7,0,0,0-2.65-.75,42.53,42.53,0,0,0-6.87-.53c-6.78-.34-11.14-2.38-16.15-6.86a56.79,56.79,0,0,0-12.59-8.59,21.49,21.49,0,0,1,5.54-1.49A106.8,106.8,0,0,1,114.32,424.28Z" fill="#343537"/><path d="M123.65,448.82c-7.29,1.08-13.32,1.27-20-2.37-5.76-3.16-11-7.35-16.85-10.25.28-5.19,1.57-9.13,3.56-12.08,5.38,3.86,10.23,9,14.88,12.92,4.49,3.76,9,6.89,14.93,7.8,5.66.87,11.45-.31,17.14-1,.06,1,.08,2,.07,2.95C133.24,448.4,128,448.18,123.65,448.82Z" fill="#343537"/><path d="M133.26,464.77c-5.18.55-10.52.77-15.55-.57-5.78-1.55-10.52-4.87-15.72-7.65a71.66,71.66,0,0,0-14.74-6.32c0-.38,0-.74,0-1.12.68.36,1.32.69,1.9.94,5.15,2.27,10.28,4.73,15.63,6.51,10.25,3.41,20.79,2.83,31.22.73-.3,1.15-.64,2.3-1,3.42A43.53,43.53,0,0,1,133.26,464.77Z" fill="#343537"/><path d="M93.6,472c3.47,1,7.88,3.11,11.54,2,4-1.21-.9-5.6-2.33-6.5-5.15-3.2-10.52-6.14-15.86-9.09,0-.52.09-1,.12-1.54a103,103,0,0,1,16.37,9.2,62.59,62.59,0,0,1,6.46,5.15c2,1.9,4.71,4.91.1,5.12-5.28.24-10.39-1-15.54-2A67,67,0,0,1,85.07,472c.14-.63.26-1.31.39-2C88.19,470.66,90.93,471.22,93.6,472Z" fill="#343537"/><path d="M117.67,470.25a102.73,102.73,0,0,0,10.71,2.07,83.85,83.85,0,0,1-8.54,7.27A18.18,18.18,0,0,0,117.67,470.25Z" fill="#343537"/><path d="M84.69,501.33c-1.74-.28-3.48-.39-5.21-.51a10.87,10.87,0,0,1-1.35-4.73c6.57,1.77,13.06,3.63,19.79,3.84a33.7,33.7,0,0,0-1.2,4.28A114.91,114.91,0,0,0,84.69,501.33Z" fill="#343537"/><path d="M95.58,517.55c-3,.15-6,.07-9,.39A51.65,51.65,0,0,0,85,512q5.39,0,10.77-.33C95.59,513.52,95.56,515.51,95.58,517.55Z" fill="#343537"/><path d="M96.54,553.26c-1.76-1.41-3.5-2.86-5.36-4.14-1-.67-2.07-1.26-3.14-1.9a7.61,7.61,0,0,1,.15-1.63v0c4.72.83,9.23,3.16,13.79,4.69.15.4.29.8.45,1.2.51,1.26,2.12,5.35,3.27,8.13A50.68,50.68,0,0,1,96.54,553.26Z" fill="#343537"/><path d="M88.3,541.34c.06-3.37,0-6.44-.1-9.24a28,28,0,0,0,8.62-.71A99.12,99.12,0,0,0,99,541.47,42.26,42.26,0,0,1,88.3,541.34Z" fill="#343537"/><path d="M88,491.51a38.11,38.11,0,0,1-8.29-2.3c.74-1.92,1.74-4.43,2.77-7.56,4,.9,7.91,2.08,12,2.83a51.23,51.23,0,0,0,19.8-.57c-1.71,1.34-3.43,2.69-5.08,4C102.3,489.84,95.05,492.25,88,491.51Z" fill="#343537"/><path d="M301.35,376.48s-15.75-7.86-16.36-15c0,0,.59,6.25,7.12,11.41S301.35,376.48,301.35,376.48Z" fill="#fff"/><path d="M310.68,365s4.57-7.41,5.67-6.35c1.56,1.5-2.91,10.27-5,9.35C309.55,367.24,310.68,365,310.68,365Z" fill="#231f20" style="mix-blend-mode:multiply"/><path d="M299.48,361.49s4.57-7.41,5.67-6.35c1.56,1.5-2.92,10.27-5,9.35C298.35,363.69,299.48,361.49,299.48,361.49Z" fill="#231f20" style="mix-blend-mode:multiply"/><path d="M317.85,358.59s.9-3.75-.6-4.45-5.2,3.8-5.2,3.8,3.89-3.32,4.85-3.16C318.24,355,317.85,358.59,317.85,358.59Z" fill="#231f20" style="mix-blend-mode:multiply"/><path d="M307.4,356s.89-3.76-.61-4.46-5.2,3.8-5.2,3.8,3.88-3.32,4.85-3.15C307.78,352.41,307.4,356,307.4,356Z" fill="#231f20" style="mix-blend-mode:multiply"/><path d="M228.94,468.52a53.88,53.88,0,0,0,6.92-8.37c.58-.81,1.14-1.64,1.69-2.47,4.26-6.58,8.19-14.25,9.45-22.07,1-6.27.64-12.57.63-18.89,2.08,12.2,2.28,20.85-4.21,34.27-6.25,12.95-16.9,24.56-29.82,29.81A74.17,74.17,0,0,0,228.94,468.52Z" fill="#fff" opacity="0.6" style="mix-blend-mode:screen"/><path d="M250.83,282.37s1.2-.21,3.2-.4a29.9,29.9,0,0,1,2,4.21c.65,1.87,1.13,3.78,1.89,5.61.26.64.19-6.82-.56-10.16,1.43,0,6,0,7.63,0,1.3,3.66.68,10.54,1,9.72a28.05,28.05,0,0,0,1.52-9.29c1.16.14,4.62.73,5.81,1-1,7.32-1.28,11.11-4,16.22-.48.91,6-9.56,6.87-15.24,2.21.76,5.88,3.36,7.89,4.64-.3,4.5-5.47,13-4.88,12.14,2.41-3.37,6.08-6.72,7.29-10.7a23,23,0,0,1,4.66,6.36s-4.58,9.9-11,13.24c0,0,7.42-2.12,10.72-8.4l.89,2s-2.61,4.79-6.77,6.4c0,0,5.71,1.07,6.17,3.6l-1.27,2.09s-5.07-4.76-12.67-1.43c0,0-4.53-8.93-22.67-9.2l1.2-7.33Z" fill="#231e20"/><path d="M187.89,377.85a19.33,19.33,0,0,1-3.32-1.64c.27-.93.6-2,1-3.26a20.5,20.5,0,0,0,7.66,1.2c.76,0-5.26-1.09-7.07-3.07.48-1.47,1.73-5.31,2.31-7,1.4.4,2.77.89,4.15,1.35.93.32-2.3-1.56-3.52-2.5.18-.53,1.53-4.52,1.73-5.07,2.1.58,6.73,1.73,6,1.31a51.54,51.54,0,0,1-5.45-3.16q.81-2.17,1.71-4.46a38.67,38.67,0,0,0,11.2,3.38c.89.09-7.26-3.63-9.87-6.67.6-1.42,2-4.78,2.63-6.23,1.92.77,3.8,1.74,5.91,1.83.81,0-3.17-3.24-4.77-4.38.17-.4,1.25-2.43,1.43-2.83,2.9,1,9.38,3.2,8.54,2.77a63.07,63.07,0,0,1-7.79-4.65c1-2.18,2.11-4.37,3.24-6.55a35.19,35.19,0,0,0,8.34,4c.74.27-4.91-3.56-7.13-5.84,1-1.87,2.75-5.44,3.83-7.27,2,1.47,7.51,3.74,6.88,3.11a40.3,40.3,0,0,1-5.08-5.84l-.09-.09c.66-1.07,1.33-2.13,2-3.17,3,3.15,6.64,6,10.77,7.1.79.21-6.46-5.78-9-9.44.77-1.07,2.86-4.32,3.65-5.35,1.46,1.59,6.33,3.95,6.06,3.27-.91-2.27-2.44-4.13-3.72-6.19,1.54-1.86,3.13-3.64,4.77-5.32,1.44,3.21,8,8.24,7.41,7.44-2.21-3.07-3.16-6.8-4.32-10.34l0-.05a60.5,60.5,0,0,1,6.21-5c0,3.42,3,10.83,2.92,9.89a31.51,31.51,0,0,1,.62-12.12,38.6,38.6,0,0,1,9.9-4l-2,20.42s-11.83,8.25-19.56,25.39-23,46.84-37,53.87l-5.47-3.15s.12-.45.35-1.25C185,378.71,188.73,378.22,187.89,377.85Z" fill="#231e20"/><path d="M247.36,311.41a23.76,23.76,0,0,1-6.67-14.63c-.53-8.84,4.53-19.79,8-16.58s12.72,13.07,6.63,26.94C255.32,307.14,250.87,316,247.36,311.41Z" fill="#878a8c"/><path d="M248.35,310.75a19.82,19.82,0,0,1-4.8-11.7c-.39-7.08,3.26-15.82,5.76-13.26s9.17,10.46,4.78,21.54C254.09,307.33,250.88,314.45,248.35,310.75Z" fill="#b8babc"/><path d="M266.5,332.62c0,.56.93,1,2.06,1H296.3c1.13,0,2.05-.46,2.05-1h0c0-.55-.92-1-2.05-1H268.56c-1.13,0-2.06.46-2.06,1Z" fill="#afb1b4" opacity="0.6" style="mix-blend-mode:multiply"/><path d="M291.25,329.84a2.78,2.78,0,1,0,2.78-2.78A2.77,2.77,0,0,0,291.25,329.84Z" fill="#260900"/><path d="M294.63,328.87a.76.76,0,0,0,1.52,0,.76.76,0,0,0-1.52,0Z" fill="#fff"/><path d="M267.14,329.84a2.78,2.78,0,1,0,2.78-2.78A2.77,2.77,0,0,0,267.14,329.84Z" fill="#260900"/><path d="M270.52,328.87a.76.76,0,0,0,.77.75.75.75,0,0,0,.75-.75.76.76,0,0,0-.75-.76A.77.77,0,0,0,270.52,328.87Z" fill="#fff"/><path d="M404,456.74l17.59.24a3.62,3.62,0,0,0,3.65-3.31H597.29a3.51,3.51,0,0,0,3.52,3.51h16.62v-9.46l-215.1-1.61Z" fill="#2f2e41"/><path d="M404,456.74l17.59.24a3.62,3.62,0,0,0,3.65-3.31H597.29a3.51,3.51,0,0,0,3.52,3.51h16.62v-9.46l-215.1-1.61Z" opacity="0.2"/><path d="M615.22,416.94h39.65a0,0,0,0,1,0,0v39.3A19.83,19.83,0,0,1,635,476.06h0a19.83,19.83,0,0,1-19.83-19.83v-39.3A0,0,0,0,1,615.22,416.94Z" fill="#2f2e41"/><path d="M367,416.34h39.65a0,0,0,0,1,0,0v39.3a19.83,19.83,0,0,1-19.83,19.83h0A19.83,19.83,0,0,1,367,455.64v-39.3A0,0,0,0,1,367,416.34Z" fill="#2f2e41"/><path d="M431.59,254.56s89.54-8.05,146.71-1.1a28.43,28.43,0,0,0,3.06.22c2.73,0,9,.35,11.73,2.45,0,0,37.78,44.3,41.86,74.47,0,0,21.47,27.73,19.84,44.58l1.09,32.07s-1.63,21.2-6.53,34.79c0,0-1.36,5.44-8.15,6l-60.94,1.5-78.55.4-47.88-.4-66.93-2.21-3,.2s-10,1.61-11.42-6.21c0,0-5.81-16.23-5.61-26.65l-.2-39.07s-.21-11.62,7.81-25.44c0,0,6.41-11.23,9-14.83a27.16,27.16,0,0,0,4.4-10.22s1.21-8.42,8.82-21C396.72,304.05,421,256.56,431.59,254.56Z" fill="#686175" data-primary="true"/><path d="M631.5,318.62h3.29V306.88a3.13,3.13,0,0,1,3.3-3.5s15.66-3.3,23.69,5.77a10.77,10.77,0,0,1,3.91,9.27s-.49,2.47-4,4.54a13.47,13.47,0,0,1-5.72,1.8l-22.09,1.83A36.09,36.09,0,0,0,631.5,318.62Z" fill="#686175" data-primary="true"/><path d="M634.79,318.62l29.57-1s-.7,6.91-13.42,6.61l-17.23,1.2s-1.31-4.52-2.21-6.77Z" opacity="0.3"/><path d="M649.69,386.14s.79,27.38-3.79,41.06a3.2,3.2,0,0,1-1.91,2c-5.21,2-25,8.38-55.68,6.63,0,0,13.13-12.93,19.29-21.55,0,0,3.9-6.16,8.83-9.65C616.43,404.62,631.62,390.25,649.69,386.14Z" opacity="0.4"/><path d="M389.79,319h-3.3V307.26a3.13,3.13,0,0,0-3.3-3.5s-15.65-3.29-23.68,5.77a10.79,10.79,0,0,0-3.92,9.27s.5,2.47,4,4.55a13.41,13.41,0,0,0,5.72,1.79L387.52,327A60.66,60.66,0,0,1,389.79,319Z" fill="#686175" data-primary="true"/><path d="M386.49,319,356.92,318s.7,6.91,13.43,6.61l17.23,1.2a66.7,66.7,0,0,1,1.95-6.75Z" opacity="0.3"/><path d="M436.09,268.74a235.9,235.9,0,0,0-27.37,50.63l-9.09-.09s14.54-35.07,30.45-58.11c0,0,37.09-3.08,50.59-2.87h45l19.41.42,46.21,2.36s17.35,23.2,30.52,57.7l-8.77.09s-14.14-34-26.8-49.81c0,0-47.28-3.59-84-2.74C502.2,266.32,453.55,267.35,436.09,268.74Z" opacity="0.2"/><path d="M617.23,378.75a28.37,28.37,0,0,1-17.67-.78,16.08,16.08,0,0,0-1.57-.7,29.92,29.92,0,0,0-13.9-1.86c-15.1,1.51-40,8.54-40,8.54-32.87,10-64.83.26-64.83.26l-34.95-8.32a35.06,35.06,0,0,0-21.44,1.57,25.3,25.3,0,0,1-11.24,2c-12.69-.65-28.64-6.79-28.64-6.79-4.94-1.29-4.68-7.92-4.68-7.92l-11.64,10.86.21,9.41s32.66,5.83,56.37,39.54a73,73,0,0,0,12.16,13.52c5.54,4.75,12.93,9.91,20.18,11.41H567.87s15.55-3.48,41.49-37.55a45.72,45.72,0,0,1,5.55-6.08c6.68-6.11,21.8-18.07,40.19-20.73l-.31-9.92L644,365s-1.66,8.72-10.37,9.47Z" opacity="0.2"/><path d="M417.51,379.16c10.18,30.87,27.25,43.46,33.09,47,1.1.67,2.18,1.39,3.25,2.11,7,4.74,26.42,5.62,26.42,5.62,23.45,1.8,54,.58,54,.58l18.39-1.62c15.17-1.47,25.23-12,25.23-12,14.58-9.47,26.25-41.58,26.25-41.58l1.39.21c-3.21,14.23-16.21,34.75-16.21,34.75C569,443.31,541,439.65,541,439.65c-27.95,3-72.82-1.66-72.82-1.66-41.17-6.73-51.69-58.6-51.69-58.6Z" opacity="0.2"/><path d="M422.71,392.71s156.9,5.68,175.61-.21c0,0-8.55,20.14-20.47,28.37,0,0-10.56,10.9-25.23,12l-18.39,1.62-26.55.51-27.41-1.09s-18.2-.55-26.42-5.62C453.85,428.27,436,419.63,422.71,392.71Z" fill="#2f2e41"/><path d="M592.29,396.92l-2.23,4.47s-55.69,4.45-93.35,2.85l-64.32-2.81-3-4.21s50.49,3.81,85.56,3C514.94,400.23,531,401.43,592.29,396.92Z" opacity="0.2"/><path d="M435,406.24l3.21,4.61s45.88,7,145.27-.2l3-4.21S488.54,412.05,435,406.24Z" opacity="0.2"/><path d="M578.66,416.26l-4.41,4.2c-31.86,4.41-126.45.08-126.45.08l-4.43-4.44S533.77,420.26,578.66,416.26Z" opacity="0.2"/><path d="M456.23,426.08h109.2a41.3,41.3,0,0,1-20.64,5.41l-72.93-.61S463,430.48,456.23,426.08Z" opacity="0.2"/><path d="M391.59,322.73s-1.59,11.38-8.18,18.77a30.68,30.68,0,0,0-5.1,23.22s-.73,6.13,4.68,7.92c0,0,15.52,6.48,29.72,6.65a26.81,26.81,0,0,0,10.71-2.13,32.12,32.12,0,0,1,20.89-1.27L461.88,380l17.38,4.18s20.75,7,51.1,3l8.79-2,18-4.79s19.76-4.39,29.35-5.19c0,0,7.27.07,11.52,2a27.65,27.65,0,0,0,19.24,1.48l16.38-4.32A11.91,11.91,0,0,0,644,365s1-15.88-7.2-25.26a40.78,40.78,0,0,1-7.58-16.77s-4,11.38-19,17.77c0,0-18.57,8.58-29.75,16.37a36.82,36.82,0,0,1-12.78,3.39s-55.71,5.4-110.81,0a32,32,0,0,1-16.58-3.59s-17.65-12.22-27.74-15.95a37,37,0,0,1-9.65-5.33C398.9,332.51,394.08,328,391.59,322.73Z" fill="#fff" opacity="0.2"/><path d="M388.84,339.42c-2.8,2.79-10.25,11.8-7.49,26.84,0,0,1.13,3.12,6.38,4.75s18.64,5,18.64,5,10.63,1.5,19.51-2.25c0,0,14.5-3.88,15.25-10.25,0,0,1-2.63-10-8.63,0,0-29.26-16.54-39.39-16.64A4.07,4.07,0,0,0,388.84,339.42Z" opacity="0.3"/><path d="M398.36,342.25s-6.87-3.69-9.88,1.87c0,0-6.19,6.66-5.13,19,0,0,.38,5.25,8.88,7.88l12,3a44.1,44.1,0,0,0,21.26-2s12.63-3.88,12.88-8c0,0,1.38-4.51-14-11Z" fill="#fff"/><path d="M398.36,342.25s-11.75,14.5-6.13,28.76c0,0-8-2.17-8.88-7.88,0,0-1.75-10.63,5.38-19.38C388.73,343.75,390.48,338.87,398.36,342.25Z" fill="#2f2e41"/><circle cx="403.99" cy="357.9" r="8.25" fill="#ccc"/><circle cx="420.87" cy="361.65" r="5.75" fill="#ccc"/><path d="M633.27,339.5c2.8,2.78,10.25,11.8,7.48,26.84,0,0-1.12,3.12-6.37,4.75s-18.64,5-18.64,5-10.63,1.5-19.51-2.25c0,0-14.51-3.88-15.26-10.26,0,0-1-2.62,10-8.63,0,0,29.26-16.53,39.39-16.63A4.07,4.07,0,0,1,633.27,339.5Z" opacity="0.3"/><path d="M623.75,342.32s7.18-3.35,9.88,1.88a28.27,28.27,0,0,1,5.12,19s-.37,5.25-8.88,7.88l-12,3a44.1,44.1,0,0,1-21.26-2s-12.63-3.88-12.88-8c0,0-1.38-4.5,14-11Z" fill="#fff"/><path d="M623.75,342.32s11.75,14.51,6.12,28.77c0,0,7.51-1.5,8.88-7.88,0,0,1.75-10.63-5.37-19.39C633.38,343.82,631.63,339,623.75,342.32Z" fill="#2f2e41"/><circle cx="618.12" cy="357.98" r="8.25" fill="#ccc"/><circle cx="601.23" cy="361.73" r="5.75" fill="#ccc"/><g opacity="0.3"><path d="M434.91,353.26l-.48-.29c.78-.06,79.76-5.58,153.18-.46l-.54.35C513.67,347.75,435.69,353.2,434.91,353.26Z"/></g><path d="M596.7,321.31c-6.84,2.28-28,23.64-28,23.64-27.17-4.35-115.54-.2-115.54-.2-12.24-13.69-27.79-24.48-27.79-24.48s72.07-.88,86.28,0C511.65,320.22,572.16,320.33,596.7,321.31Z" fill="#fff" opacity="0.09"/><path d="M432.69,435.39c-34.09.95-50.65-4.61-54.74-6.24a3.06,3.06,0,0,1-1.59-1.48c-5.54-11.27-4.21-41.35-4.21-41.35s21.54,6.55,37.39,22.24A113.53,113.53,0,0,1,422,422.68S427.68,431.22,432.69,435.39Z" opacity="0.4"/><path d="M379,394.6s-2.13,21.3,8.28,26.5c0,0,10,6,28.47,5.84C415.77,426.94,401.73,402,379,394.6Z" fill="#ccc"/><path d="M382.38,395.84s-2,16.75,5.94,22.5c0,0,9.23,6.55,26.35,6.87l1.1,1.73s-18.85.63-30.21-7c0,0-8-4.26-6.54-25.32Z" opacity="0.3"/><path d="M642.79,394.78s2.13,21.3-8.28,26.51c0,0-10,6-28.47,5.83C606,427.12,620.08,402.2,642.79,394.78Z" fill="#ccc"/><path d="M639.43,396s2,16.75-5.94,22.51c0,0-9.23,6.54-26.35,6.86l-1.1,1.73s18.85.63,30.21-7c0,0,8-4.26,6.54-25.32Z" opacity="0.3"/><path d="M587.41,370.21l-25.73,3.67c-9.63.18-34.48,8.23-34.48,8.23-18.73,5.6-42-2.28-42-2.28-21.35-7.87-51.46-9.27-51.46-9.27,7.86-3.21,7.4-7.05,7.4-7.05s53.34,7.57,139.84.07C581,363.58,581.11,367.41,587.41,370.21Z" fill="#2f2e41"/><path d="M578.12,367.22c-57.67,5.61-134.7.19-134.7.19V369s25.35,2.52,33.87,5.81c0,0,24.19,11.22,57.87,1.93,0,0,36.19-7.93,42.77-8.71Z" opacity="0.2"/><ellipse cx="510.68" cy="375.17" rx="8.23" ry="4.16" fill="#fff"/><path d="M481.34,307h-8.58v-6.79a9.49,9.49,0,0,0,5.55-9.33l-.73-10.06a9.47,9.47,0,0,0-9.45-8.79H454.22a9.47,9.47,0,0,0-9.43,8.56l-1,10.06a9.47,9.47,0,0,0,6,9.76V307H439.6c-6.08,0-11,5.62-11,11.7l63.72-.92A10.81,10.81,0,0,0,481.34,307Zm-29-6c.3,0,.6.05.9.05h15.61a9,9,0,0,0,1.38-.11V307H452.35Z" opacity="0.2"/><path d="M585.27,303.75H573.76v-3.58a9.49,9.49,0,0,0,5.55-9.33l-.73-10.06a9.48,9.48,0,0,0-9.46-8.79h-13.9a9.48,9.48,0,0,0-9.44,8.56l-1,10.06a9.5,9.5,0,0,0,6,9.76v3.38h-9.61c-6.42,0-11.62,6.24-11.62,13.94l.1.15,67.32.93-.12-1.08C596.89,310,591.69,303.75,585.27,303.75ZM553.34,301a9.08,9.08,0,0,0,.91.05h15.6a9,9,0,0,0,1.38-.11v2.85H553.34Z" opacity="0.2"/><path d="M527.09,283.62l-1.18-7.79a.75.75,0,0,0-.73-.64l-12.7-.15V272.8a2.53,2.53,0,0,0,1.06-2.06,2.56,2.56,0,1,0-4,2.12c0,.66,0,1.48,0,2.14l-12.78-.15a.76.76,0,0,0-.75.64l-1.18,8.13a.75.75,0,0,0,.74.86h30.73A.76.76,0,0,0,527.09,283.62Z" opacity="0.2"/><path d="M533,317.89a26.22,26.22,0,0,1,5.53-9.73c2.5-2.92,7.54-5,11.81-6.26a46.32,46.32,0,0,1,15.12-2c7.29.26,17.6,1.89,21.79,8.66.17.28.34.57.53.85,1,1.48,4.44,6.44,4.35,9.11Z" fill="#f48225" data-secondary="true"/><path d="M575.93,318.33c-3.5-3.81-11.6-3.66-11.6-3.66-9.92,0-14.93,3.51-14.93,3.51l-9.52-.1s13.63-9.82,25.35-8c0,0,13.33,1,19.14,8.52Z" fill="#2f2e41"/><path d="M551.21,318.28l-3.7-5.59a1.55,1.55,0,0,0-2.35-.33,1.44,1.44,0,0,0-.37,1.41s-2.7-.3-2.5,2.2c0,0-2.51-.4-2.41,2.11Z" fill="#f9b499"/><path d="M574.16,318.33l3.58-5.34a1.56,1.56,0,0,1,2.35-.33,1.44,1.44,0,0,1,.37,1.41s2.7-.3,2.5,2.2c0,0,2.7-.27,2.6,2.24Z" fill="#f9b499"/><ellipse cx="562.63" cy="283.71" rx="11.92" ry="15.33" fill="#f9b499"/><ellipse cx="575.18" cy="285.28" rx="2.97" ry="1.93" transform="translate(100.24 717.31) rotate(-68.67)" fill="#f9b499"/><ellipse cx="550.33" cy="285.08" rx="1.93" ry="2.97" transform="translate(-40.98 99.37) rotate(-9.95)" fill="#f9b499"/><path d="M549.2,282.21s-4.91-14.33,7.42-19.34c0,0,9.61-3.1,16,1.81,0,0,9.13,5.41,3.61,17.83,0,0-1.21-.5-1.71.4a24.45,24.45,0,0,0-2.91-9.42s-8.81,3.91-17.23-.7c0,0-3.2,2.51-3.61,9.82C550.8,282.61,550.6,281.91,549.2,282.21Z" fill="#2f2e41"/><path d="M557.52,294.93h10.62a0,0,0,0,1,0,0v7a5.31,5.31,0,0,1-5.31,5.31h0a5.31,5.31,0,0,1-5.31-5.31v-7A0,0,0,0,1,557.52,294.93Z" fill="#f9b499"/><path d="M531.16,318.24s45-18.52,67.45-32.59l.81,1.84s-40.37,24.06-64,30.58Z" fill="#2f2e41"/><rect x="786.89" y="230.04" width="7.07" height="204.89" fill="#bcbec0"/><path d="M814,450.19H766.28v-.95a5.14,5.14,0,0,1,.22-1.48h-5.74l1.77,4.52,51.57,0H816l1.7-4.43h-3.89a5.15,5.15,0,0,1,.2,1.43Z" fill="#e6e7e8"/><polygon points="763.37 110.11 761.68 110.14 752.88 110.32 759.34 120.96 764.85 130.04 763.37 110.11" fill="#2f2e41"/><polygon points="815.69 110.18 812.15 110.11 811.04 132.51 818.03 121 824.49 110.35 815.69 110.18" fill="#2f2e41"/><g opacity="0.2"><polygon points="763.37 110.11 761.68 110.14 752.88 110.32 759.34 120.96 764.85 130.04 763.37 110.11"/><polygon points="815.69 110.18 812.15 110.11 811.04 132.51 818.03 121 824.49 110.35 815.69 110.18"/></g><polygon points="766 145.51 763.77 145.55 754.97 145.72 761.43 156.37 767.57 166.47 766 145.51" fill="#2f2e41"/><polygon points="813.6 145.57 810.4 145.51 809.33 167.27 815.94 156.39 822.4 145.74 813.6 145.57" fill="#2f2e41"/><g opacity="0.2"><polygon points="766 145.51 763.77 145.55 754.97 145.72 761.43 156.37 767.57 166.47 766 145.51"/><polygon points="813.6 145.57 810.4 145.51 809.33 167.27 815.94 156.39 822.4 145.74 813.6 145.57"/></g><polygon points="768.64 180.9 765.86 180.96 757.06 181.13 763.52 191.77 770.28 202.91 768.64 180.9" fill="#2f2e41"/><polygon points="811.51 180.96 808.66 180.9 807.62 202.03 813.85 191.77 820.31 181.13 811.51 180.96" fill="#2f2e41"/><g opacity="0.2"><polygon points="768.64 180.9 765.86 180.96 757.06 181.13 763.52 191.77 770.28 202.91 768.64 180.9"/><polygon points="811.51 180.96 808.66 180.9 807.62 202.03 813.85 191.77 820.31 181.13 811.51 180.96"/></g><path d="M780.46,220v3a2.9,2.9,0,0,0,.28,1.25,3.19,3.19,0,0,0,1.78,1.64v2a2.11,2.11,0,0,0,.61,1.47,2.25,2.25,0,0,0,1.6.67h9.86a2.18,2.18,0,0,0,2.21-2.14v-2a3.11,3.11,0,0,0,1.89-2.83v-3.29Z" fill="#2f2e41"/><path d="M810.4,145.51l.64-13,1.11-22.4.37-7.55-.11.08-49.58.9.54,7.11,1.48,19.93L766,146l1.57,21,1.07,14.41,1.65,22,.76,10.31,36.07-1.51.5-10.19,1-21.13.67-13.63Zm-8,53a12.63,12.63,0,0,1-1.07,2.33,13.52,13.52,0,0,1-11.7,6.6,13.23,13.23,0,0,1-13.45-13,13,13,0,0,1,7.22-11.53,13.82,13.82,0,0,1,6.23-1.48,13.5,13.5,0,0,1,4,.61,13.06,13.06,0,0,1,9.4,12.4A12.5,12.5,0,0,1,802.39,198.54Zm.85-32.74a14,14,0,0,1-1.16,2.55,14.8,14.8,0,0,1-12.8,7.21,14.46,14.46,0,0,1-14.7-14.21,14.19,14.19,0,0,1,7.9-12.61,15.18,15.18,0,0,1,11.23-1A14.27,14.27,0,0,1,804,161.35,13.71,13.71,0,0,1,803.24,165.8Zm1-34.56a15.25,15.25,0,0,1-1.29,2.81,16.28,16.28,0,0,1-14.1,8,15.94,15.94,0,0,1-16.2-15.67,15.61,15.61,0,0,1,8.7-13.89,16.49,16.49,0,0,1,7.5-1.79,16.7,16.7,0,0,1,4.88.73,15.75,15.75,0,0,1,11.32,15A15.3,15.3,0,0,1,804.28,131.24Z" fill="#2f2e41"/><path d="M793.77,111.39a16.7,16.7,0,0,0-4.88-.73,16.49,16.49,0,0,0-7.5,1.79,15.61,15.61,0,0,0-8.7,13.89A15.94,15.94,0,0,0,788.89,142a16.28,16.28,0,0,0,14.1-8,15.17,15.17,0,0,0,2.1-7.71A15.75,15.75,0,0,0,793.77,111.39ZM802,130.33a13.17,13.17,0,0,1-1.69,3.4,13.85,13.85,0,0,1-11.43,5.91,13.54,13.54,0,0,1-13.75-13.3A13.17,13.17,0,0,1,781,115.46a14.19,14.19,0,0,1,11.84-1.87,13.37,13.37,0,0,1,9.82,12.75A12.87,12.87,0,0,1,802,130.33Z" fill="#2f2e41"/><path d="M793.77,111.39a16.7,16.7,0,0,0-4.88-.73,16.49,16.49,0,0,0-7.5,1.79,15.61,15.61,0,0,0-8.7,13.89A15.94,15.94,0,0,0,788.89,142a16.28,16.28,0,0,0,14.1-8,15.17,15.17,0,0,0,2.1-7.71A15.75,15.75,0,0,0,793.77,111.39ZM802,130.33a13.17,13.17,0,0,1-1.69,3.4,13.85,13.85,0,0,1-11.43,5.91,13.54,13.54,0,0,1-13.75-13.3A13.17,13.17,0,0,1,781,115.46a14.19,14.19,0,0,1,11.84-1.87,13.37,13.37,0,0,1,9.82,12.75A12.87,12.87,0,0,1,802,130.33Z" opacity="0.2"/><path d="M792.82,113.59A14.19,14.19,0,0,0,781,115.46a13.17,13.17,0,0,0-5.84,10.88,13.54,13.54,0,0,0,13.75,13.3,13.85,13.85,0,0,0,11.43-5.91,13.17,13.17,0,0,0,1.69-3.4,12.87,12.87,0,0,0,.63-4A13.37,13.37,0,0,0,792.82,113.59Z" fill="#fe4f4a"/><path d="M793.71,147.79a15.18,15.18,0,0,0-11.23,1,14.19,14.19,0,0,0-7.9,12.61,14.46,14.46,0,0,0,14.7,14.21,14.8,14.8,0,0,0,12.8-7.21,14,14,0,0,0,1.16-2.55,13.71,13.71,0,0,0,.74-4.45A14.27,14.27,0,0,0,793.71,147.79ZM801.19,165a11.6,11.6,0,0,1-1.54,3.09,12.56,12.56,0,0,1-10.37,5.36,12.27,12.27,0,0,1-12.47-12.06,11.92,11.92,0,0,1,5.3-9.87,12.85,12.85,0,0,1,10.74-1.7,12.14,12.14,0,0,1,8.91,11.57A11.66,11.66,0,0,1,801.19,165Z" fill="#2f2e41"/><path d="M793.71,147.79a15.18,15.18,0,0,0-11.23,1,14.19,14.19,0,0,0-7.9,12.61,14.46,14.46,0,0,0,14.7,14.21,14.8,14.8,0,0,0,12.8-7.21,14,14,0,0,0,1.16-2.55,13.71,13.71,0,0,0,.74-4.45A14.27,14.27,0,0,0,793.71,147.79ZM801.19,165a11.6,11.6,0,0,1-1.54,3.09,12.56,12.56,0,0,1-10.37,5.36,12.27,12.27,0,0,1-12.47-12.06,11.92,11.92,0,0,1,5.3-9.87,12.85,12.85,0,0,1,10.74-1.7,12.14,12.14,0,0,1,8.91,11.57A11.66,11.66,0,0,1,801.19,165Z" opacity="0.2"/><path d="M792.85,149.78a12.85,12.85,0,0,0-10.74,1.7,11.92,11.92,0,0,0-5.3,9.87,12.27,12.27,0,0,0,12.47,12.06,12.56,12.56,0,0,0,10.37-5.36,11.67,11.67,0,0,0,2.11-6.7A12.14,12.14,0,0,0,792.85,149.78Z" fill="#f9e014"/><path d="M793.67,182.07a13.5,13.5,0,0,0-4-.61,13.82,13.82,0,0,0-6.23,1.48,13,13,0,0,0-7.22,11.53,13.23,13.23,0,0,0,13.45,13,13.52,13.52,0,0,0,11.7-6.6,12.63,12.63,0,0,0,1.07-2.33,12.5,12.5,0,0,0,.68-4.07A13.06,13.06,0,0,0,793.67,182.07Zm6.84,15.71a10.77,10.77,0,0,1-1.4,2.82,11.5,11.5,0,0,1-9.49,4.91,11.23,11.23,0,0,1-11.41-11,10.91,10.91,0,0,1,4.85-9,11.73,11.73,0,0,1,9.82-1.55A11.09,11.09,0,0,1,801,194.47,10.71,10.71,0,0,1,800.51,197.78Z" fill="#2f2e41"/><path d="M793.67,182.07a13.5,13.5,0,0,0-4-.61,13.82,13.82,0,0,0-6.23,1.48,13,13,0,0,0-7.22,11.53,13.23,13.23,0,0,0,13.45,13,13.52,13.52,0,0,0,11.7-6.6,12.63,12.63,0,0,0,1.07-2.33,12.5,12.5,0,0,0,.68-4.07A13.06,13.06,0,0,0,793.67,182.07Zm6.84,15.71a10.77,10.77,0,0,1-1.4,2.82,11.5,11.5,0,0,1-9.49,4.91,11.23,11.23,0,0,1-11.41-11,10.91,10.91,0,0,1,4.85-9,11.73,11.73,0,0,1,9.82-1.55A11.09,11.09,0,0,1,801,194.47,10.71,10.71,0,0,1,800.51,197.78Z" opacity="0.2"/><path d="M792.88,183.89a11.73,11.73,0,0,0-9.82,1.55,10.91,10.91,0,0,0-4.85,9,11.23,11.23,0,0,0,11.41,11,11.5,11.5,0,0,0,9.49-4.91,10.7,10.7,0,0,0,1.92-6.13A11.09,11.09,0,0,0,792.88,183.89Z" fill="#a3dc7e"/><polygon points="812.52 102.56 816.63 99.61 758.22 100.93 762.83 103.54 762.84 103.54 812.41 102.64 812.52 102.56" fill="#2f2e41"/><polygon points="812.52 102.56 816.63 99.61 758.22 100.93 762.83 103.54 762.84 103.54 812.41 102.64 812.52 102.56" opacity="0.2"/><polygon points="771.05 213.73 767.92 216.76 809.86 215.25 807.12 212.22 771.05 213.73" fill="#2f2e41"/><polygon points="771.05 213.73 767.92 216.76 809.86 215.25 807.12 212.22 771.05 213.73" opacity="0.2"/><polygon points="767.92 216.76 768.12 220.18 780.46 220.01 798.69 219.75 809.08 219.61 809.86 215.25 767.92 216.76" fill="#2f2e41"/><polygon points="815.74 96.32 759.03 97.58 758.02 100.93 816.53 99.61 815.74 96.32" fill="#2f2e41"/><path d="M794.75,432.49h-9.17a3.09,3.09,0,0,0-2.59,1.38,2.93,2.93,0,0,0-.47,1.57V438h15.29v-2.6A3,3,0,0,0,794.75,432.49Z" fill="#2f2e41"/><path d="M776.54,440a3.92,3.92,0,0,0-.6,2.08v1.85H771.6a5.31,5.31,0,0,0-5.1,3.84,5.14,5.14,0,0,0-.22,1.48v.95H814v-.95a5.15,5.15,0,0,0-.2-1.43,5.31,5.31,0,0,0-5.11-3.89h-4.34v-1.85a4.1,4.1,0,0,0-4.17-4H780.11a4.19,4.19,0,0,0-3.57,1.95" fill="#2f2e41"/><path d="M815.82,452.24H814.1l-51.57,0-2,3.88,56.94.19-1.48-4.1Z" fill="#d1d3d4"/><g opacity="0.2"><path d="M770.4,124.88s14.51-10.61,35.8-3.16c-5.22-9.35-6.27-13.27-19.73-13S770.4,124.88,770.4,124.88Z" fill="#2f2e41"/></g><path d="M808.05,126h-1.86c0-9.28-7.82-16.83-17.43-16.83s-17.43,7.55-17.43,16.83h-1.86c0-10.3,8.65-18.69,19.29-18.69S808.05,115.72,808.05,126Z" fill="#fff"/><g opacity="0.2"><path d="M772.75,159.78s13.11-9.6,32.37-2.86c-4.73-8.45-5.67-12-17.84-11.76S772.75,159.78,772.75,159.78Z" fill="#2f2e41"/></g><path d="M806.78,160.81H805.1c0-8.39-7.07-15.21-15.75-15.21s-15.76,6.82-15.76,15.21h-1.68c0-9.32,7.82-16.89,17.44-16.89S806.78,151.49,806.78,160.81Z" fill="#fff"/><g opacity="0.2"><path d="M774.19,193.44s12.23-9,30.2-2.67c-4.41-7.89-5.29-11.19-16.64-11S774.19,193.44,774.19,193.44Z" fill="#2f2e41"/></g><path d="M805.94,194.4h-1.57a14.7,14.7,0,0,0-29.39,0h-1.57a16.27,16.27,0,0,1,32.53,0Z" fill="#fff"/></g></g></svg>