<svg xmlns="http://www.w3.org/2000/svg" xmlns:xlink="http://www.w3.org/1999/xlink" width="865.76" height="682.89" viewBox="0 0 865.76 682.89"><defs><clipPath id="a6411850-1448-4dd9-95ad-1e16b199b743"><rect id="ababa3ec-6bfc-4b4e-a997-84142b880dbe" data-name="SVGID" width="865.76" height="683.45" fill="none"/></clipPath><clipPath id="a13ad191-4bd4-4dab-ae9b-89a4babee9eb"><circle id="bd893f7c-96db-4224-b119-b4436a040def" data-name="SVGID" cx="663.23" cy="254.35" r="63.55" fill="none"/></clipPath><linearGradient id="eb96f1d4-b4bd-46e6-980c-c80f1d8dc8df" x1="563.1" y1="463.71" x2="667.9" y2="244.59" gradientUnits="userSpaceOnUse"><stop offset="0" stop-color="#959fb0"/><stop offset="1" stop-color="#fff"/></linearGradient><linearGradient id="bb250961-b4cf-448e-bcb7-0c6b6f58487d" x1="607.85" y1="607.72" x2="649.96" y2="607.72" gradientUnits="userSpaceOnUse"><stop offset="0" stop-color="#e2eaff"/><stop offset="1" stop-color="#97aebd"/></linearGradient><linearGradient id="f17fe863-85b5-4e24-aef2-8147b2e481e6" x1="627.76" y1="611.44" x2="627.76" y2="640.02" xlink:href="#bb250961-b4cf-448e-bcb7-0c6b6f58487d"/><linearGradient id="f06f005b-1e68-459b-9cad-8a721036ac89" x1="674.61" y1="607.72" x2="716.72" y2="607.72" xlink:href="#bb250961-b4cf-448e-bcb7-0c6b6f58487d"/><linearGradient id="f5d91cd1-c8ea-4c01-b15d-20744952e9df" x1="698.83" y1="611.44" x2="698.83" y2="640.02" xlink:href="#bb250961-b4cf-448e-bcb7-0c6b6f58487d"/></defs><g style="isolation:isolate"><g id="e94bb308-7599-4661-b000-bffd0cd5d866" data-name="Layer 1"><g clip-path="url(#a6411850-1448-4dd9-95ad-1e16b199b743)"><rect x="-68.3" y="534.68" width="1106.33" height="148.22" fill="#58595b"/><path d="M1037.1,232.42v14.69h-4.42V232.42h-3.61v14.69H992.53v10.63H979v1.78h-4.5v23.64H956.91v-74h-2.73v48.91H935.66v-77.7h-9.5v-7.22H924V172h-.87v-2h-1.6V155h-1L920,141.85h-.45L919,155h-1v15h-1.6v2h-.87v1.11h-2.14v7.22H886.9l-15.24,23.4v18.48h-8.32v17h-5c-.14.3-.27.61-.43.91v30.1h-9.67V256.85L836,249.65V126.31H797.63v-45H771.88v45H754.21v83.35H738v-8.33h-1.16v73.86h-6.11V225.53H697.79v49.66h-5.51v76.55h-2v-4.41h-5.55V146.6H657.86V271.43h-13.5v2h-4.5v26.2H610.67V247.11h-9.36V232.42H597.7v14.69h-4.42V232.42h-3.61v14.69H553.13v10.63h-13.5v1.78h-4.5v23.64H517.51v-74h-2.73v48.91H496.26V187.67H442.73l-10.47,16.08v18.48h-8.32v17h-5c-.14.3-.27.61-.43.91v30.1h-9.67V256.85l-12.27-7.2V126.31H358.23v-45H332.48v45H314.81v83.35H298.55v-8.33h-1.16v73.86h-6.11V225.53H258.39v45.9h-11V146.6H220.53v57.63H187.77v12.2h-13.5v2h-4.5v27.15h-1.32V201.33h-1.16v8.33H151V110.84H82V249.65l-12.27,7.2v13.38H60v-30.1c-.16-.3-.29-.61-.43-.91h-5v-17H46.28V203.75L31,180.35H4.62v-7.22H2.48V172H1.61v-2H0v-.51l-3.62,0V170h-1.6v2h-.87v1.11H-8.22v7.22h-9.5v77.7H-36.24V209.14H-39v74H-56.58V259.52h-4.5v-1.78H-68.3V536.49H1038.94V232.42Zm-117.6-63H919V156h.48Zm1,0H920V156h.49Z" fill="#ccc" opacity="0.62" style="mix-blend-mode:multiply"/></g><path d="M426.48,468.3l-1.25-1.56c1.62-1.3,39.61-31.85,41.66-33.11.89-.55,2.87-.08,13.55,3.92,1.25.46,2.52.94,3.18,1.17,1.82-1.85,9.8-10.64,10.27-11.21.31-.38.55-.69,12-2l.24,2c-4.62.55-9.74,1.24-10.82,1.52-1.44,1.63-10.33,11.57-11.07,11.81-.44.14-.44.14-4.46-1.36-3.16-1.19-10.45-3.92-11.95-4C465.06,437.34,437.22,459.66,426.48,468.3Zm69-39.55-.06.08Z" fill="#686175" data-primary="true"/><path d="M81.11,543.93l105.65.51S175.42,495,134.17,494.83,83,532.91,81.11,543.93Z" fill="#2f2e41"/><path d="M81.11,543.93l105.65.51S175.42,495,134.17,494.83,83,532.91,81.11,543.93Z" opacity="0.2"/><path d="M387.69,550.73l105.65.5s-11.34-49.41-52.59-49.6S389.56,539.71,387.69,550.73Z" fill="#2f2e41"/><path d="M387.69,550.73l105.65.5s-11.34-49.41-52.59-49.6S389.56,539.71,387.69,550.73Z" opacity="0.2"/><path d="M57.39,453.79c-2.29,3.58-6.45,43.2-6.69,44.59s-3.56,7.44-3.63,8.59-1,19-.5,20.17a50.75,50.75,0,0,0,3.61,6.09c.58.69,15.49,13.65,17.16,13.84s17.17.37,17.46.08,2.31-48,49.3-47.74,46.23,50.86,47.09,51,211.17,6,211.17,6c0-7.75.87-53.87,47-53.65,30,.15,43.95,25,44.39,43.24.18,7.6-1.14,16-.72,16,1.39,0,6.13.38,6.94,0s-.63-6.6.18-6.83,6.47-.32,7.86-.66,11.41-11,11.58-11.37-.8-26.81-.79-27.91c0-.43-1.83-6.26-4.3-13.35-.6-1.74-4-3.1-4.72-4.92-3.51-9.66-6.37-21.07-8.95-21.72-.88-.22-8.16,4.55-9.17,3.95-1.52-.89-3.17-4-5.82-6.42-.15-.12-4.38,0-4.53-.18s-2.74-7-3.3-6.94c-1.75.13-6.84,3.72-7.92,3.63-.91-.08-3.94-5.81-4-5.83-1.72-.42-3.63-.45-5.51-.9-4.53-1.08-19.3,3.23-21.55,3.05-3.88-.3-17.26-9.67-17.9-10.13-1.73-1.22-82.89-48.29-97-51.79-11.43-2.83-143.93.35-150.86.67S137,408,135.17,408s-23.12-.23-24.39.34,0,5.67,1.59,6.6S61.35,447.56,57.39,453.79Z" fill="#686175" data-primary="true"/><path d="M401.38,521.56S194.24,515.83,193,517.61,397,530.2,397,530.2a51.84,51.84,0,0,1,2.16-4.81C399.91,524,400.65,522.71,401.38,521.56Z" fill="#fff" opacity="0.2"/><path d="M57.39,453.78s94,10.41,98.19,10.33,227.65,8.3,231.7,8.07S429,465.61,429,465.61c-3.88-.3-17.26-9.67-17.9-10.12-1.74-1.23-82.89-48.3-97-51.8-11.44-2.83-143.93.35-150.87.67S137,408,135.17,408s-23.11-.23-24.39.34,0,5.67,1.59,6.59S61.35,447.56,57.39,453.78Z" fill="#fff" opacity="0.2"/><path d="M448.11,473.57c0,.42,4.33-.07,4.7-.07s7.24-4.21,7.24-4.21c-.92-.08-3.94-5.81-4-5.83S448.1,473.14,448.11,473.57Z" opacity="0.1"/><path d="M471.31,480.86c.19.56,4.27.17,4.45.22s5.86-1.87,5.86-1.87c-1.52-.89-3.17-4-5.83-6.42C475.79,472.79,471.11,480.28,471.31,480.86Z" opacity="0.1"/><path d="M468,465.66l.36,7.52,2.95-.58C471.15,472.5,468.54,465.65,468,465.66Z" opacity="0.1"/><path d="M60.43,450.79c.51.47,8.79.71,9.66.37s53.2-34.8,53.25-35.81c0-.51-9.79-.42-11-.37S59.48,449.92,60.43,450.79Z" fill="#fff"/><path d="M118.55,450.52c2.23,6.69,266.33,17.92,267.85,14.69,1.12-2.39-13.45-19.62-24.86-26.09S317.45,413.94,301.33,412s-48.83-2-77.33-1.58c-28.27.38-61.56.92-73.38,5.89C140.26,420.62,116.77,445.21,118.55,450.52Z" fill="#2f2e41"/><path d="M126.2,446.66c.68,2.51,61.17,9.31,132.07,12.95s105.93,4.32,106.8,4-2.34-19.26-3.55-20.83-51.88-27.82-59.86-28.55-51.06-1-72.82-.78-67.12,2.63-74.85,5.71C147.19,421.85,125.52,444.15,126.2,446.66Z" fill="#e6e7e8"/><g opacity="0.1"><path d="M220.24,413.6,179.43,454c-7.25-.68-13.94-1.34-20-2l37.85-37.48C205.34,414.11,213.35,413.79,220.24,413.6Z" fill="#fff"/><path d="M365,459.58l-4.12,4.08c-4.12,0-11.25-.19-21.44-.51l21.23-21a5.22,5.22,0,0,1,.9.64C362.38,443.88,364.27,453.85,365,459.58Z" fill="#fff"/><path d="M250.55,413.36l-43.41,43c-3.46-.26-6.86-.52-10.17-.8l42.6-42.19C243.05,413.35,246.75,413.34,250.55,413.36Z" fill="#fff"/><path d="M343.18,432.73l-29.74,29.45-10.53-.45,33-32.67C338.4,430.3,340.85,431.53,343.18,432.73Z" fill="#fff"/><path d="M190,415l-36.72,36.38h0l-2.78-.33,36.18-35.84Z" fill="#fff"/><path d="M349.46,436l-26.81,26.56-3-.12,27.77-27.51Z" fill="#fff"/><path d="M311.21,417.47l-43,42.63-3-.14L309,416.56C309.7,416.84,310.44,417.14,311.21,417.47Z" fill="#fff"/><path d="M161,417.61,130.3,448c-1-.21-1.86-.41-2.51-.6l29.47-29.18C158.34,418,159.61,417.83,161,417.61Z" fill="#fff"/></g><path d="M164.31,417.17c.28,0,.41.38.16,1-1.44,3.93-12.64,26.15-15.44,31.34a2.37,2.37,0,0,1-1.57,1.09L167,452.83a1.6,1.6,0,0,1-1-1.78c.2-1.23,7.58-27.38,9.88-33.8a2.78,2.78,0,0,1,1.32-1.37c.39,0-3.33,0-6.86.39C167.27,416.58,164.31,417.17,164.31,417.17Z" fill="#2f2e41"/><path d="M190.08,415s.36.2.37.91c.1,6.16.64,37,0,38.7a.64.64,0,0,1-.28.41l3.69.31a1.75,1.75,0,0,1-.33-.93c-.39-5.22-.63-33.5-.54-38.73a1.58,1.58,0,0,1,.36-.87Z" fill="#2f2e41"/><path d="M250.83,414.63c.43,1.37.95,41.65.95,42.95s-1.48,1.6-1.48,1.6l22.89,1.18s-1.48-.43-1.74-1.12-7.24-44.17-7.2-44.73,1.18-1.1,1.18-1.1l-16-.06A2.39,2.39,0,0,1,250.83,414.63Z" fill="#2f2e41"/><path d="M61.4,459.47c-2.81.35-9.16,6.89-9.63,8.28s-2.25,10.74-1.33,12.13,4.25,4.87,7.14,5,17-6.5,18.3-7.65,2.24-8.19.75-10.46S65,459,61.4,459.47Z" fill="#fff"/><path d="M75.88,477.23c-1.27,1.15-15.41,7.78-18.3,7.65-2.2-.09-4.67-2.15-6.11-3.74A9.37,9.37,0,0,0,57.1,483c1.56-.14,14.8-5.76,16.5-7.3s1.8-7.4,1.59-8.46-8.73-6.59-8.73-6.59c4.21,1.64,9.16,4.63,10.17,6.16C78.12,469.05,77.16,476.07,75.88,477.23Z" fill="#ececec"/><path d="M49.48,511.72c-.79.78-1.07,6.64-.27,7.17s5.55.49,6.48,0,3.31-4.84,3.15-6.34S50.41,510.8,49.48,511.72Z" fill="#fff"/><path d="M475,489.35c1,2.82,14.85,7.18,21.58,7.12,2.19,0,3.21-2.06,4.05-3.12l-.95-2.35H499l-.66-1.56-.66.13L497,486.9l-.9-1.49,1.1-1.26a8,8,0,0,0-1.44-1.72c-1.33-1.07-7-3-12.08-3C482,479.44,473.49,484.93,475,489.35Z"/><path d="M475,489.35c1,2.82,14.85,7.18,21.58,7.12a4.33,4.33,0,0,0,3.38-2.18l-.7-.38-2.52-.24-6.31-.19-2-4.73-1,1.34-1.71-2.35,1.75-1.71-1.8-1.44,3-2.08,4.52-.28,1.31,1,.62-.89,1.89,1.53a7.41,7.41,0,0,0-1.24-1.44c-1.33-1.07-7-3-12.08-3C482,479.44,473.49,484.93,475,489.35Z" fill="#fff"/><polygon points="492.57 500.53 489.59 498.21 489.05 499.86 487.88 500.07 489.66 502.77 491.34 500.99 492.57 500.53" fill="#fff"/><polygon points="485.69 498.34 484.18 497.6 483.45 499.29 485.69 498.34" fill="#fff"/><polygon points="499.16 497.36 499.52 497.92 498.77 497.65 499.16 497.36" fill="#fff"/><polygon points="498.7 498.25 498.42 501.01 497.48 500 497.02 499.91 497.33 498.78 498.7 498.25" fill="#fff"/><polygon points="488.5 505.14 487.7 505.88 487.16 505.35 486.19 505.18 487.64 503.9 488.5 505.14" fill="#fff"/><path d="M479,490.23c1.83.3,3.64.68,5.46,1.06h0l0,0c1.09.7,2.19,1.41,3.27,2.14l-.05,0c.89,0,1.77,0,2.66.05-.89,0-1.77.1-2.66.13h0l0,0c-1.11-.67-2.21-1.38-3.3-2.08l0,0C482.63,491.12,480.82,490.71,479,490.23Z" fill="#dcdcdc"/><path d="M481.13,488.09a11.66,11.66,0,0,1,1,1.43,10.49,10.49,0,0,1,.81,1.56,12,12,0,0,1-1-1.43A11.49,11.49,0,0,1,481.13,488.09Z" fill="#dcdcdc"/><path d="M485.65,484.59c-.48.36-1,.69-1.47,1l0,0h0a38.41,38.41,0,0,1-4.11-.85,36.15,36.15,0,0,1,4.15.64l-.08,0C484.59,485.13,485.11,484.85,485.65,484.59Z" fill="#dcdcdc"/><g opacity="0.1"><path d="M119.83,478.63a9.36,9.36,0,0,1-2.71,6.59,9.47,9.47,0,0,1-13.4.13,9.47,9.47,0,0,1,.07-13.59,9.47,9.47,0,0,1,13.39.26A9.31,9.31,0,0,1,119.83,478.63Zm0,0a9.29,9.29,0,0,0-2.73-6.53,9.08,9.08,0,0,0-12.84.14,9.08,9.08,0,0,0,6.25,15.43,9.1,9.1,0,0,0,6.53-2.53A9.29,9.29,0,0,0,119.83,478.63Z"/><path d="M81.29,506.61c-.93-2.09-1.78-4.21-2.62-6.34s-1.61-4.28-2.42-6.41-1.54-4.31-2.26-6.48-1.43-4.35-2-6.55c.93,2.09,1.78,4.22,2.62,6.34s1.61,4.28,2.42,6.42,1.54,4.31,2.26,6.48S80.66,504.41,81.29,506.61Z"/><path d="M48.78,506.46c4.55-.06,9.1,0,13.65,0l13.65.21,13.64.4c4.55.16,9.1.34,13.64.6-4.55.06-9.1,0-13.65,0l-13.65-.22-13.64-.39C57.87,506.9,53.32,506.72,48.78,506.46Z"/><path d="M263.84,463.22l1.51,11.09.65,5.56c.1.93.2,1.86.26,2.8s0,1.87,0,2.81L266,507.87l-.24,11.2-.11,5.6-.06,2.8-.23,2.79-.92,11.16-1,11.15L264,541.4l.7-11.17.17-2.79,0-2.8.08-5.59.17-11.19.49-22.37c0-.93.09-1.87,0-2.79s-.13-1.85-.21-2.78l-.54-5.57Z"/><path d="M386.77,468.89l1.83,11.16.92,5.58.23,1.39a8.34,8.34,0,0,1,.16,1.41c0,.95,0,1.89,0,2.83-.1,7.54-.32,15.07-.59,22.61-.07,1.88-.15,3.76-.26,5.65a21,21,0,0,1-1.11,5.56c-1.05,3.63-2.25,7.21-3.56,10.75a81.63,81.63,0,0,1-4.57,10.37l-.7,1.23c-.24.41-.52.8-.78,1.2a10.41,10.41,0,0,1-.87,1.14l-.46.56a1.74,1.74,0,0,1-.83.24c-1.9.19-3.78.21-5.67.26-15.08.24-30.15,0-45.22-.14s-30.15-.48-45.22-.82-30.13-.84-45.19-1.47c-7.54-.35-15.07-.63-22.59-1.34a17.56,17.56,0,0,1-2.86-.47c-.53-.2-.84-.45-1.28-.65s-.84-.41-1.27-.61c-1.7-.78-3.46-1.47-5.16-2.33a20.06,20.06,0,0,1-4.73-3.19,44.81,44.81,0,0,1-3.41-4.57c-4.21-6.26-8.24-12.63-12.26-19s-8-12.78-11.95-19.2-7.87-12.86-11.72-19.34l-1.42-2.44c-.12-.2-.23-.43-.35-.64l-.16-.32a2.14,2.14,0,0,1-.06-.35l-.12-1.41c-.16-1.88-.29-3.76-.35-5.65,0-.47,0-.94,0-1.41a8.22,8.22,0,0,1,.31-1.39c.27-.9.58-1.79.89-2.68.64-1.77,1.33-3.53,2-5.27-.7,1.75-1.37,3.51-2,5.29-.31.89-.61,1.78-.87,2.68a9.31,9.31,0,0,0-.3,1.37c0,.47,0,.94,0,1.41.07,1.88.22,3.76.39,5.64l.14,1.4a3.07,3.07,0,0,0,.05.34l.17.3c.11.21.21.4.33.61l1.45,2.42c3.9,6.45,7.88,12.85,11.87,19.24,8,12.78,15.93,25.6,24.32,38.1a45,45,0,0,0,3.34,4.48,19.54,19.54,0,0,0,4.62,3.09c1.67.84,3.42,1.52,5.15,2.3.43.2.86.4,1.29.62s.87.5,1.22.62a17.76,17.76,0,0,0,2.72.43c7.49.69,15,.95,22.55,1.27,15.06.58,30.13,1,45.19,1.34s30.14.7,45.21.95,30.14.47,45.2.28c1.88-.05,3.78-.07,5.62-.25a4.89,4.89,0,0,0,.53-.09l.44-.53a8.2,8.2,0,0,0,.84-1.1c.26-.39.53-.77.77-1.17l.7-1.22A80.85,80.85,0,0,0,384,535.67c1.32-3.53,2.53-7.09,3.58-10.7a20.4,20.4,0,0,0,1.12-5.48l.28-5.64c.34-7.53.62-15.06.78-22.59,0-.94,0-1.88,0-2.82a7.4,7.4,0,0,0-.15-1.4l-.21-1.39-.87-5.59Z"/><path d="M479.07,492.63a43.31,43.31,0,0,1-5.18,3.3c-1.78,1-3.6,2-5.41,3s-3.66,1.9-5.51,2.81-3.72,1.81-5.62,2.65c1.77-1.05,3.57-2,5.37-3l5.43-2.92,5.49-2.85,2.74-1.43A26,26,0,0,0,479.07,492.63Z"/><polygon points="166.3 509.04 195.66 509.95 225.01 510.99 283.72 513.06 342.41 515.4 371.76 516.57 401.1 517.86 371.75 516.95 342.39 515.91 283.69 513.84 224.99 511.5 195.64 510.33 166.3 509.04"/><path d="M164.77,467l-1.14.05h-.29c-.06,0-.07.06-.11.15a3.23,3.23,0,0,0-.11.54,15.65,15.65,0,0,0-.06,2.27,10.13,10.13,0,0,0,.1,1.12,1.68,1.68,0,0,0,.12.49l0,0h.09l.21,0c.75.08,1.52.1,2.28.13,3.05.11,6.1.22,9.16.29l4.58.15,2.29.05h.94c.05,0,.08,0,0,0A.92.92,0,0,0,183,472c0-.16.08-.34.11-.52a12.73,12.73,0,0,0,.11-2.23,10.36,10.36,0,0,0-.1-1.12,1.71,1.71,0,0,0-.12-.42c0-.05-.26-.1-.43-.13-1.48-.26-3-.36-4.54-.52,1.53,0,3.06,0,4.61.14a1.36,1.36,0,0,1,.64.21,1.3,1.3,0,0,1,.27.64,11.74,11.74,0,0,1,.16,1.17,13.07,13.07,0,0,1,0,2.34,4.55,4.55,0,0,1-.1.61,1,1,0,0,1-.42.69.36.36,0,0,1-.23.08h-.17l-.31,0h-.58l-2.3,0-4.59-.08c-3.06-.13-6.12-.23-9.18-.47-.77-.07-1.52-.13-2.3-.24A1.59,1.59,0,0,1,163,472a.59.59,0,0,1-.15-.21,2.6,2.6,0,0,1-.14-.62,9.37,9.37,0,0,1,0-1.18,14.83,14.83,0,0,1,.24-2.3,3,3,0,0,1,.16-.57.39.39,0,0,1,.08-.14c0-.06.15-.11.18-.09l.29,0Z"/><path d="M277.13,470.28l-1.15.05h-.29c-.06,0-.07.06-.11.14a4.46,4.46,0,0,0-.11.55,14.32,14.32,0,0,0-.05,2.27,8.32,8.32,0,0,0,.09,1.12,2.58,2.58,0,0,0,.12.48s0,.05,0,0h.09l.22,0c.74.07,1.51.1,2.27.13,3,.11,6.11.22,9.16.29l4.59.15,2.28.05h1c0,.06.08-.14.12-.28s.08-.34.11-.52a12.84,12.84,0,0,0,.11-2.24,10.17,10.17,0,0,0-.1-1.11,1.82,1.82,0,0,0-.11-.42,1.09,1.09,0,0,0-.43-.13c-1.49-.27-3-.36-4.55-.52a44.45,44.45,0,0,1,4.61.14,1.26,1.26,0,0,1,.65.2,1.4,1.4,0,0,1,.26.65,7.88,7.88,0,0,1,.16,1.16,12.3,12.3,0,0,1,0,2.35,3.37,3.37,0,0,1-.1.61,1,1,0,0,1-.42.69.49.49,0,0,1-.22.08H292l-4.59-.08c-3.06-.13-6.12-.24-9.18-.48-.76-.06-1.52-.12-2.3-.23a1.46,1.46,0,0,1-.34-.08.73.73,0,0,1-.19-.07.5.5,0,0,1-.15-.2,2.21,2.21,0,0,1-.13-.63,7.63,7.63,0,0,1,0-1.17,14.81,14.81,0,0,1,.23-2.3,3,3,0,0,1,.16-.57.55.55,0,0,1,.08-.15s.15-.1.18-.08H276Z"/></g><circle cx="132.15" cy="548.3" r="43.7" transform="translate(-349 254.03) rotate(-45)" fill="#2f2e41"/><path d="M168.54,549.2a36.4,36.4,0,1,1-35.67-37.12A36.05,36.05,0,0,1,168.54,549.2Z" opacity="0.2"/><circle cx="132.14" cy="548.3" r="31.91" transform="translate(-416.91 419.32) rotate(-63.23)" fill="#dcdcdc"/><circle cx="132.14" cy="548.3" r="29.42" transform="translate(-349 254.03) rotate(-45)" fill="#ccc"/><path d="M136.91,541l-9.24-.18c3.21-4.45-7.34-20.38-7.34-20.38l4.89-1.53c3.12,5.62,4.7,7.27,7.36,7.33s4.31-1.54,7.66-7l4.82,1.73S133.88,536.45,136.91,541Z" fill="#dcdcdc"/><path d="M126.89,541.38l-3,8.73c-3.24-4.42-21.65.69-21.65.69l.06-5.12c6.3-1.24,8.37-2.23,9.24-4.75s-.13-4.57-4.31-9.45l3.12-4.05S121.61,542.85,126.89,541.38Z" fill="#dcdcdc"/><path d="M124.13,551l7.37,5.57c-5.21,1.71-6,20.8-6,20.8l-4.86-1.64c.77-6.37.47-8.64-1.65-10.25s-4.39-1.28-10.33,1.18l-2.88-4.22S123.9,556.5,124.13,551Z" fill="#dcdcdc"/><path d="M132.46,556.62l7.58-5.28c0,5.48,17.91,12.17,17.91,12.17l-3,4.11c-5.83-2.71-8.08-3.12-10.27-1.6s-2.58,3.78-2.07,10.19l-4.9,1.43S137.59,558.54,132.46,556.62Z" fill="#dcdcdc"/><path d="M140.35,550.44l-2.68-8.84c5.22,1.67,17.11-13.28,17.11-13.28l3,4.18c-4.37,4.7-5.46,6.72-4.69,9.26s2.8,3.62,9,5.12L162,552S143.76,546.15,140.35,550.44Z" fill="#dcdcdc"/><path d="M140.69,548.27a8.54,8.54,0,1,1-8.37-8.71A8.56,8.56,0,0,1,140.69,548.27Z" fill="#dcdcdc"/><path d="M406.33,591.69h63c5.78,0,2.13-3,.92-3-1,0-1-2-1.69-2.63a2.7,2.7,0,0,1-.22-.19l-30.49-1.55-30.5,1.55a1.64,1.64,0,0,0-.15.15c-.61.55-.7,2.67-1.75,2.67C404.21,588.69,400.56,591.69,406.33,591.69Z" fill="#2f2e41"/><path d="M394.13,554.26a43.12,43.12,0,0,0,20.27,37.43h47A43.06,43.06,0,0,0,481.5,556a43.69,43.69,0,0,0-87.37-1.74Z" fill="#2f2e41"/><path d="M474.22,555.83a36.41,36.41,0,0,1-72.8-1.45,36.41,36.41,0,1,1,72.8,1.45Z" opacity="0.1"/><circle cx="437.82" cy="555.14" r="31.91" transform="translate(-245.82 735.41) rotate(-66.51)" fill="#dcdcdc"/><circle cx="437.82" cy="555.14" r="29.42" transform="translate(-264.31 472.18) rotate(-45)" fill="#ccc"/><path d="M442.59,547.85l-9.24-.18c3.2-4.44-7.35-20.37-7.35-20.37l4.89-1.53c3.13,5.61,4.71,7.27,7.37,7.32s4.31-1.54,7.66-7l4.81,1.72S439.56,543.29,442.59,547.85Z" fill="#dcdcdc"/><path d="M432.56,548.21l-3,8.73c-3.23-4.42-21.64.69-21.64.69l.06-5.12c6.3-1.24,8.36-2.23,9.24-4.74s-.14-4.58-4.32-9.46l3.13-4S427.28,549.68,432.56,548.21Z" fill="#dcdcdc"/><path d="M429.81,557.86l7.37,5.58c-5.21,1.71-6,20.79-6,20.79l-4.85-1.63c.77-6.38.46-8.65-1.66-10.26s-4.39-1.28-10.32,1.18l-2.88-4.22S429.58,563.33,429.81,557.86Z" fill="#dcdcdc"/><path d="M438.13,563.46l7.58-5.29c0,5.48,17.92,12.17,17.92,12.17l-3.06,4.11c-5.82-2.7-8.08-3.11-10.26-1.59s-2.58,3.77-2.07,10.18l-4.91,1.44S443.27,565.37,438.13,563.46Z" fill="#dcdcdc"/><path d="M446,557.27l-2.68-8.84c5.21,1.68,17.1-13.28,17.1-13.28l3,4.18c-4.37,4.7-5.46,6.72-4.69,9.26s2.8,3.62,9,5.12l-.15,5.11S449.43,553,446,557.27Z" fill="#dcdcdc"/><path d="M446.36,555.1a8.54,8.54,0,1,1-8.36-8.71A8.54,8.54,0,0,1,446.36,555.1Z" fill="#dcdcdc"/><path d="M355.11,447.24c-1.6,1.58-1.52,15.83-.37,17s17,2.28,18.3-6.56S357.61,444.77,355.11,447.24Z" fill="#686175" data-primary="true"/><path d="M320.66,411.59S366.57,433.69,400,456l11.82.06-.73-.51,0,0-.29-.18c-.07,0-.15-.1-.25-.15L408.6,454c-.24-.13-.49-.29-.77-.45s-.28-.17-.44-.25l-.88-.52-.55-.32-3.49-2-1.73-1-.69-.4-1.41-.81-.74-.43-2.18-1.25a1.49,1.49,0,0,1-.24-.14l-2.3-1.31-.24-.13-3.18-1.83-2.69-1.53c-.42-.23-.86-.47-1.29-.73l-1.52-.86-3.11-1.76-1.71-1c-2-1.1-4-2.23-6-3.39-.67-.37-1.36-.74-2-1.13L368,430.9l-2.92-1.62-1.05-.58-2.1-1.16-2.09-1.15c-3.15-1.73-6.29-3.43-9.37-5.09l-2-1.1-1-.55-1.29-.68c-.23-.14-.47-.26-.71-.39l-2-1.05-1-.52-1.94-1-1-.51c-1-.48-1.89-1-2.82-1.46h0l-1.81-.93-1.13-.57-2.39-1.21c-1.06-.54-2.09-1-3.1-1.54Z" fill="#fff"/><g opacity="0.5"><path d="M81.24,517.71a56.32,56.32,0,0,1,9.85-12,61.9,61.9,0,0,1,12.63-9.1,61.11,61.11,0,0,1,30.09-7.25l3.9.2,2,.1c.64.08,1.29.19,1.93.28l3.87.57c1.28.27,2.54.61,3.81.92a48,48,0,0,1,14.3,6.21,50.56,50.56,0,0,1,11.55,10.43,69.45,69.45,0,0,1,8.13,13.23,72.94,72.94,0,0,0-8.52-12.9,50,50,0,0,0-11.59-10.08c-8.73-5.5-19.11-7.78-29.35-7.92A62.9,62.9,0,0,0,118.51,492a61.35,61.35,0,0,0-27.07,14.12A58.16,58.16,0,0,0,81.24,517.71Z" fill="#fff"/><path d="M387.38,519.18a56.32,56.32,0,0,1,9.85-12,61.9,61.9,0,0,1,12.63-9.1A61.11,61.11,0,0,1,440,490.85l3.9.2,2,.1c.64.08,1.29.19,1.93.28l3.87.57c1.28.27,2.54.61,3.81.92a48,48,0,0,1,14.3,6.21,50.56,50.56,0,0,1,11.55,10.43,69.45,69.45,0,0,1,8.13,13.23,73,73,0,0,0-8.53-12.9,49.74,49.74,0,0,0-11.58-10.08c-8.73-5.5-19.11-7.78-29.35-7.92a62.9,62.9,0,0,0-15.29,1.57,60.78,60.78,0,0,0-14.41,5.34,61.66,61.66,0,0,0-12.67,8.78A58.43,58.43,0,0,0,387.38,519.18Z" fill="#fff"/><path d="M87.91,445.23c6.83-5.31,13.77-10.48,20.75-15.59s14-10.12,21.28-14.87c.92-.58,1.84-1.15,2.79-1.7.47-.27,1-.54,1.46-.78a8.81,8.81,0,0,1,1.59-.59c2.1-.61,4.2-1.13,6.3-1.64,4.21-1,8.43-2,12.69-2.8A75.16,75.16,0,0,1,167.72,406c4.33-.07,8.65,0,13,.18-4.32,0-8.64.09-12.95.33A75.21,75.21,0,0,0,154.93,408c-4.22.93-8.43,1.88-12.62,2.94-2.09.52-4.19,1.06-6.24,1.67a8.43,8.43,0,0,0-1.44.54c-.46.24-.93.49-1.39.77-.92.53-1.83,1.11-2.74,1.69-7.26,4.65-14.29,9.69-21.38,14.64Z" fill="#fff"/></g><path d="M426.58,504.08c-33.51,7.49-34.18,45.4-34.22,52.35,0,0-210.31-5.81-211.17-6-.7-.15-.33-33.34-25.09-46.11,11.12,5.57,25.35,19,30.66,38.52.58,2.07,31.19,5.49,83.54,7.41s97.87,1.08,106.51-.09S395.81,503.79,426.58,504.08Z" opacity="0.1"/><path d="M484.84,546c.18,7.59-1.13,15.94-.72,15.94.89,0,3.14.16,4.86.18h0a2.85,2.85,0,0,0,.92-.13c.81-.34-.63-6.59.18-6.83s6.47-.31,7.85-.65,11.42-11,11.59-11.37c-2.07.52-13.26,6.55-14.6,5.09s.15-2.36-5.61-14.53-20.06-24-28.68-25.88C476.51,516.05,484.52,532.77,484.84,546Z" opacity="0.1"/><rect x="516.21" y="69.91" width="290.61" height="516.65" rx="15.78" fill="#ccc" opacity="0.99"/><path d="M788.3,69.91a18.53,18.53,0,0,1,18.53,18.53V568a18.53,18.53,0,0,1-18.53,18.53H534.74A18.53,18.53,0,0,1,516.21,568V88.44a18.53,18.53,0,0,1,18.53-18.53H788.3m0-6.64H534.74a25.2,25.2,0,0,0-25.17,25.17V568a25.2,25.2,0,0,0,25.17,25.17H788.3A25.2,25.2,0,0,0,813.47,568V88.44A25.2,25.2,0,0,0,788.3,63.27Z" fill="#2f2e41"/><g clip-path="url(#a13ad191-4bd4-4dab-ae9b-89a4babee9eb)"><circle cx="663.23" cy="254.35" r="63.55" fill="url(#eb96f1d4-b4bd-46e6-980c-c80f1d8dc8df)"/><path d="M738.39,392.17c0-1.51-1.19-37.08-9.35-56.22-.06-.23-.13-.47-.21-.7.35-3.65,2.1-28-9.4-52.25a13.5,13.5,0,0,0-6.34-8.08v-.13l-.59-.22-.31-.11a13.39,13.39,0,0,0-2.51-.89l-29.59-10.46-3.55.46-1.34-.46-11.29,1.48-11.3-1.48-1.34.46-3.54-.46-29.59,10.46a13.49,13.49,0,0,0-2.52.89l-.31.11-.59.22v.13a13.5,13.5,0,0,0-6.34,8.08c-11.5,24.24-9.75,48.6-9.4,52.25-.08.23-.15.47-.21.7-8.16,19.14-9.31,54.71-9.35,56.22l0,.76.17,0a31,31,0,0,1,8.37-1.12,31.83,31.83,0,0,1,5.26.43c3.47-6.61,11-22.68,12.91-40.86a78.15,78.15,0,0,1,1.53-9.14,11.1,11.1,0,0,0,1.76-4.11,18.54,18.54,0,0,1,3.93-7.85c1.92,4.87,3.48,8,3.89,8.76l2,48.85h69.47l2-48.85c.41-.8,2-3.89,3.89-8.76a18.54,18.54,0,0,1,3.93,7.85,11.1,11.1,0,0,0,1.76,4.11,78.15,78.15,0,0,1,1.53,9.14c1.93,18.18,9.44,34.25,12.91,40.86a31.83,31.83,0,0,1,5.26-.43,31,31,0,0,1,8.37,1.12l.17,0Z" fill="#f48225" data-secondary="true"/><path d="M677.84,269l-2.88-21L662.89,248v0h-.12v0l-12.21.53L647.82,269s9.29,6.54,15.07,6.8h0S669.24,275.69,677.84,269Z" fill="#f7aa92"/><ellipse cx="680.36" cy="237.32" rx="7.95" ry="4.17" transform="translate(332.49 868.35) rotate(-80.36)" fill="#f9b499"/><ellipse cx="644.84" cy="238.1" rx="4.17" ry="7.95" transform="translate(-39.7 175.5) rotate(-15.04)" fill="#f9b499"/><ellipse cx="662.91" cy="233.85" rx="16.21" ry="24.09" fill="#f9b499"/><path d="M679.26,213.21h0a10.11,10.11,0,0,0-5-5.93,31.76,31.76,0,0,0-19.07-3.45,9.92,9.92,0,0,0-7.78,5.84l-1.11,3.54-1,1.23a15.07,15.07,0,0,0-2.49,14.32l1,2.85s3.61,8.68,3.61,14.65l1.32-.35s-1.73-8.33-.28-12a35.22,35.22,0,0,1,3.34-6.39l-.83-8.18a.58.58,0,0,1,.69-.63l6.71,1.34a22.42,22.42,0,0,0,8.79,0l6.72-1.34a.58.58,0,0,1,.68.63l-.82,8.18a35.58,35.58,0,0,1,3.33,6.39c1.46,3.68-.28,12-.28,12l1.32.35c0-6,3.61-14.65,3.61-14.65l1.21-3.5A13.79,13.79,0,0,0,680.68,215Z" fill="#2f2e41"/><path d="M648,592l-1.16,9.51H642a12,12,0,0,0-10.44-6.06h-4.82L610.5,607.94a6.79,6.79,0,0,0-2.65,5.38v6.51h0a12.19,12.19,0,0,0,8.63,3.57h7a30.1,30.1,0,0,0,20.69-8.24h0a16.13,16.13,0,0,0,5-10.58l.78-10.84h0a1.72,1.72,0,0,0-1.71-1.71Z" fill="url(#bb250961-b4cf-448e-bcb7-0c6b6f58487d)"/><path d="M623.47,623.4a30.1,30.1,0,0,0,20.69-8.24h0a16.22,16.22,0,0,0,3.51-4.82c-10,11-16.74,8.58-16.74,8.58l-1-1.63a12.1,12.1,0,0,0-10.37-5.85h0a12.09,12.09,0,0,0-10.69,6.43l-1,2a12.19,12.19,0,0,0,8.63,3.57Z" fill="url(#f17fe863-85b5-4e24-aef2-8147b2e481e6)"/><path d="M676.62,592l1.16,9.51h4.84a12,12,0,0,1,10.44-6.06h4.82l16.2,12.46a6.81,6.81,0,0,1,2.64,5.38v6.51h0a12.17,12.17,0,0,1-8.62,3.57h-7a30.12,30.12,0,0,1-20.7-8.24h0a16.16,16.16,0,0,1-5-10.58l-.79-10.84h0a1.72,1.72,0,0,1,1.72-1.71Z" fill="url(#f06f005b-1e68-459b-9cad-8a721036ac89)"/><path d="M703.12,623.4a30.1,30.1,0,0,1-20.69-8.24h0a16.22,16.22,0,0,1-3.51-4.82c10.05,11,16.74,8.58,16.74,8.58l1-1.63A12.1,12.1,0,0,1,707,611.44h0a12.09,12.09,0,0,1,10.69,6.43l1,2a12.19,12.19,0,0,1-8.63,3.57Z" fill="url(#f5d91cd1-c8ea-4c01-b15d-20744952e9df)"/><path d="M648.52,264.1s2.83,6.88,14.37,11.74l-12.12,10.94s-8.65-9-9.45-21.41l7.46-3Z" fill="#fff"/><path d="M677.12,264.1s-2.7,6.88-14.23,11.74L675,286.78s8.65-9,9.45-21.41l-7.57-3Z" fill="#fff"/></g><path d="M663.23,328.43a74.08,74.08,0,1,1,74.08-74.08A74.16,74.16,0,0,1,663.23,328.43Zm0-146.6a72.53,72.53,0,1,0,72.52,72.52A72.61,72.61,0,0,0,663.23,181.83Z" fill="#a7a9ac"/><path d="M650.1,387.87a3.77,3.77,0,0,1,0,4.14,2.5,2.5,0,0,1-3.51,0,3.82,3.82,0,0,1,0-4.14,2.47,2.47,0,0,1,3.51,0Zm-2.72.58a3.74,3.74,0,0,0,0,3,1.08,1.08,0,0,0,1,.48,1.09,1.09,0,0,0,1-.48,3.74,3.74,0,0,0,0-3,1.1,1.1,0,0,0-1-.47A1.09,1.09,0,0,0,647.38,388.45Z" fill="#2f2e41"/><path d="M655.65,387.87a3.82,3.82,0,0,1,0,4.14,2.5,2.5,0,0,1-3.51,0,3.82,3.82,0,0,1,0-4.14,2.47,2.47,0,0,1,3.51,0Zm-2.72.58a3.63,3.63,0,0,0,0,3,1.06,1.06,0,0,0,1,.48,1.08,1.08,0,0,0,1-.48,3.74,3.74,0,0,0,0-3,1.09,1.09,0,0,0-1-.47A1.07,1.07,0,0,0,652.93,388.45Z" fill="#2f2e41"/><path d="M659.84,389.46a.54.54,0,0,1,.15.4.59.59,0,0,1-.15.41.5.5,0,0,1-.39.16.49.49,0,0,1-.38-.16.59.59,0,0,1-.15-.41.54.54,0,0,1,.15-.4.49.49,0,0,1,.38-.16A.5.5,0,0,1,659.84,389.46Zm0,2.33a.57.57,0,0,1,.15.4.56.56,0,0,1-.15.41.51.51,0,0,1-.39.17.5.5,0,0,1-.38-.17.59.59,0,0,1-.15-.41.57.57,0,0,1,.15-.4.53.53,0,0,1,.38-.16A.53.53,0,0,1,659.84,391.79Z" fill="#2f2e41"/><path d="M666.79,387.87a3.82,3.82,0,0,1,0,4.14,2.5,2.5,0,0,1-3.51,0,3.82,3.82,0,0,1,0-4.14,2.47,2.47,0,0,1,3.51,0Zm-2.72.58a3.63,3.63,0,0,0,0,3,1.21,1.21,0,0,0,1.93,0,3.63,3.63,0,0,0,0-3,1.23,1.23,0,0,0-1.93,0Z" fill="#2f2e41"/><path d="M672.33,387.87a3.77,3.77,0,0,1,0,4.14,2.5,2.5,0,0,1-3.51,0,3.82,3.82,0,0,1,0-4.14,2.47,2.47,0,0,1,3.51,0Zm-2.72.58a3.74,3.74,0,0,0,0,3,1.08,1.08,0,0,0,1,.48,1.09,1.09,0,0,0,1-.48,3.74,3.74,0,0,0,0-3,1.1,1.1,0,0,0-1-.47A1.09,1.09,0,0,0,669.61,388.45Z" fill="#2f2e41"/><path d="M676.53,389.46a.54.54,0,0,1,.15.4.59.59,0,0,1-.15.41.5.5,0,0,1-.39.16.49.49,0,0,1-.38-.16.56.56,0,0,1-.16-.41.51.51,0,0,1,.16-.4.49.49,0,0,1,.38-.16A.5.5,0,0,1,676.53,389.46Zm0,2.33a.57.57,0,0,1,.15.4.56.56,0,0,1-.15.41.51.51,0,0,1-.39.17.5.5,0,0,1-.38-.17.56.56,0,0,1-.16-.41.54.54,0,0,1,.16-.4.53.53,0,0,1,.38-.16A.53.53,0,0,1,676.53,391.79Z" fill="#2f2e41"/><path d="M683.47,387.87a3.77,3.77,0,0,1,0,4.14,2.49,2.49,0,0,1-3.5,0,3.77,3.77,0,0,1,0-4.14,2.46,2.46,0,0,1,3.5,0Zm-2.72.58a3.74,3.74,0,0,0,0,3,1.09,1.09,0,0,0,1,.48,1.08,1.08,0,0,0,1-.48,3.74,3.74,0,0,0,0-3,1.09,1.09,0,0,0-1-.47A1.1,1.1,0,0,0,680.75,388.45Z" fill="#2f2e41"/><path d="M689,387.87a3.82,3.82,0,0,1,0,4.14,2.5,2.5,0,0,1-3.51,0,3.82,3.82,0,0,1,0-4.14,2.47,2.47,0,0,1,3.51,0Zm-2.72.58a3.63,3.63,0,0,0,0,3,1.21,1.21,0,0,0,1.93,0,3.63,3.63,0,0,0,0-3,1.23,1.23,0,0,0-1.93,0Z" fill="#2f2e41"/><path d="M691.44,400.71H643.6a10.53,10.53,0,0,1,0-21h47.84a10.53,10.53,0,1,1,0,21ZM643.6,380.3a9.89,9.89,0,0,0,0,19.77h47.84a9.89,9.89,0,1,0,0-19.77Z" fill="#a7a9ac"/><path d="M591.82,342.84H594v9.53h5v2h-7.18Z" fill="#2f2e41"/><path d="M606.91,346.05a4,4,0,0,1,1.63,1.57,4.55,4.55,0,0,1,.58,2.33,4.63,4.63,0,0,1-.58,2.35,4,4,0,0,1-1.63,1.58,5,5,0,0,1-2.41.56,5.05,5.05,0,0,1-2.44-.56,4,4,0,0,1-1.64-1.58,4.63,4.63,0,0,1-.58-2.35,4.55,4.55,0,0,1,.58-2.33,4,4,0,0,1,1.64-1.57,5.05,5.05,0,0,1,2.44-.56A5,5,0,0,1,606.91,346.05Zm-4.22,2a3,3,0,0,0,0,3.86,2.55,2.55,0,0,0,3.59,0,3,3,0,0,0,0-3.86,2.55,2.55,0,0,0-3.59,0Z" fill="#2f2e41"/><path d="M614.33,345.94a3.58,3.58,0,0,1,1.79-.47v2.07a2.91,2.91,0,0,0-2.18.64,2.46,2.46,0,0,0-.82,1.93v4.25H611v-8.81h2.14v1.7A3.2,3.2,0,0,1,614.33,345.94Z" fill="#2f2e41"/><path d="M624.46,346.69a4.9,4.9,0,0,1,1.06,3.37,5.66,5.66,0,0,1,0,.65H619a2.57,2.57,0,0,0,.88,1.47,2.52,2.52,0,0,0,1.64.53,3.27,3.27,0,0,0,2.37-1l1.15,1.2a4.58,4.58,0,0,1-1.6,1.12,5.46,5.46,0,0,1-2.1.39,4.84,4.84,0,0,1-2.38-.56,3.82,3.82,0,0,1-1.59-1.57,5.11,5.11,0,0,1,0-4.67,4.05,4.05,0,0,1,1.59-1.59,4.77,4.77,0,0,1,2.32-.56A4,4,0,0,1,624.46,346.69Zm-.9,2.58a2.1,2.1,0,0,0-.64-1.54,2.23,2.23,0,0,0-1.61-.58,2.29,2.29,0,0,0-1.58.57,2.51,2.51,0,0,0-.78,1.55Z" fill="#2f2e41"/><path d="M641.26,346.38a3.5,3.5,0,0,1,.86,2.48v5.5H640v-4.87a2,2,0,0,0-.52-1.48,1.89,1.89,0,0,0-1.41-.53,2.11,2.11,0,0,0-1.62.74,2.67,2.67,0,0,0-.6,1.79v4.35h-2.16v-4.87a2.06,2.06,0,0,0-.51-1.48,1.85,1.85,0,0,0-1.4-.53,2.11,2.11,0,0,0-1.63.74,2.63,2.63,0,0,0-.61,1.79v4.35h-2.14v-8.81h2.14v1.63a3.66,3.66,0,0,1,5-1.16,2.88,2.88,0,0,1,1.1,1.56,3.25,3.25,0,0,1,3.28-2.11A3.07,3.07,0,0,1,641.26,346.38Z" fill="#2f2e41"/><path d="M650.46,342.13a1.37,1.37,0,0,1,0,1.83,1.23,1.23,0,0,1-1.74,0,1.37,1.37,0,0,1,0-1.83,1.23,1.23,0,0,1,1.74,0Zm-1.92,3.42h2.14v8.81h-2.14Z" fill="#2f2e41"/><path d="M660.69,346.05a3.9,3.9,0,0,1,1.47,1.59,5.22,5.22,0,0,1,.52,2.36,5,5,0,0,1-.51,2.32,3.77,3.77,0,0,1-1.45,1.56,4.12,4.12,0,0,1-2.18.56,3.87,3.87,0,0,1-1.74-.38,3.3,3.3,0,0,1-1.25-1.13v4.62h-2.14v-12h2.14V347a3.25,3.25,0,0,1,1.23-1.13,3.77,3.77,0,0,1,1.73-.38A4.21,4.21,0,0,1,660.69,346.05Zm-.88,5.8a3,3,0,0,0,0-3.83,2.52,2.52,0,0,0-3.57,0,2.7,2.7,0,0,0-.69,1.91,2.73,2.73,0,0,0,.69,1.93,2.35,2.35,0,0,0,1.79.74A2.3,2.3,0,0,0,659.81,351.85Z" fill="#2f2e41"/><path d="M668.43,347.35a4,4,0,0,0-1.26-.22,1.74,1.74,0,0,0-.86.19.63.63,0,0,0-.32.59.69.69,0,0,0,.4.63,6.6,6.6,0,0,0,1.28.47,13.67,13.67,0,0,1,1.51.55,2.77,2.77,0,0,1,1,.81,2.14,2.14,0,0,1,.44,1.41,2.26,2.26,0,0,1-1,2,4.25,4.25,0,0,1-2.49.69,6.14,6.14,0,0,1-2-.32,4.7,4.7,0,0,1-1.65-.91l.74-1.5a4.37,4.37,0,0,0,1.42.8,4.8,4.8,0,0,0,1.56.29,1.86,1.86,0,0,0,1-.21.66.66,0,0,0,.35-.62.75.75,0,0,0-.41-.69,7.79,7.79,0,0,0-1.33-.51,10.56,10.56,0,0,1-1.45-.52,2.65,2.65,0,0,1-1-.77,2.1,2.1,0,0,1-.41-1.36,2.28,2.28,0,0,1,.94-2,4,4,0,0,1,2.38-.69,6.22,6.22,0,0,1,1.72.25,5.66,5.66,0,0,1,1.51.69l-.77,1.55A6.28,6.28,0,0,0,668.43,347.35Z" fill="#2f2e41"/><path d="M680.61,345.55v8.81h-2.16v-1.63a3.16,3.16,0,0,1-3.06,1.71,3.07,3.07,0,0,1-2.34-.9,3.47,3.47,0,0,1-.86-2.47v-5.52h2.16v4.89a2,2,0,0,0,.5,1.45,1.85,1.85,0,0,0,1.39.53,2,2,0,0,0,1.62-.73,2.72,2.72,0,0,0,.59-1.79v-4.35Z" fill="#2f2e41"/><path d="M697.17,346.38a3.49,3.49,0,0,1,.85,2.48v5.5h-2.15v-4.87a2.07,2.07,0,0,0-.52-1.48,1.91,1.91,0,0,0-1.41-.53,2.11,2.11,0,0,0-1.62.74,2.67,2.67,0,0,0-.6,1.79v4.35h-2.16v-4.87a2.06,2.06,0,0,0-.51-1.48,1.87,1.87,0,0,0-1.4-.53,2.14,2.14,0,0,0-1.64.74,2.67,2.67,0,0,0-.6,1.79v4.35h-2.14v-8.81h2.14v1.63a3.66,3.66,0,0,1,5-1.16,2.93,2.93,0,0,1,1.1,1.56,3.25,3.25,0,0,1,3.27-2.11A3.07,3.07,0,0,1,697.17,346.38Z" fill="#2f2e41"/><path d="M712.94,342.14v12.22H710.8v-1.42a3.17,3.17,0,0,1-1.23,1.13,3.72,3.72,0,0,1-1.74.39,4.16,4.16,0,0,1-2.19-.57,3.88,3.88,0,0,1-1.48-1.6,5.09,5.09,0,0,1-.52-2.36,5,5,0,0,1,.52-2.33,3.76,3.76,0,0,1,1.46-1.57,4.2,4.2,0,0,1,2.17-.56,3.71,3.71,0,0,1,1.76.4A3.38,3.38,0,0,1,710.8,347v-4.86Zm-2.84,9.78a3,3,0,0,0,0-3.87,2.36,2.36,0,0,0-1.8-.75,2.33,2.33,0,0,0-1.8.75,3,3,0,0,0,0,3.87,2.36,2.36,0,0,0,1.8.74A2.39,2.39,0,0,0,710.1,351.92Z" fill="#2f2e41"/><path d="M722,346.05a4,4,0,0,1,1.63,1.57,4.56,4.56,0,0,1,.59,2.33,4.63,4.63,0,0,1-.59,2.35,4,4,0,0,1-1.63,1.58,5,5,0,0,1-2.41.56,5.08,5.08,0,0,1-2.44-.56,3.94,3.94,0,0,1-1.63-1.58,4.63,4.63,0,0,1-.59-2.35,4.56,4.56,0,0,1,.59-2.33,3.92,3.92,0,0,1,1.63-1.57,5.08,5.08,0,0,1,2.44-.56A5,5,0,0,1,722,346.05Zm-4.22,2a3,3,0,0,0,0,3.86,2.55,2.55,0,0,0,3.59,0,3,3,0,0,0,0-3.86,2.55,2.55,0,0,0-3.59,0Z" fill="#2f2e41"/><path d="M726.11,342.14h2.14v12.22h-2.14Z" fill="#2f2e41"/><path d="M737.26,346.05a4,4,0,0,1,1.63,1.57,4.56,4.56,0,0,1,.59,2.33,4.63,4.63,0,0,1-.59,2.35,4,4,0,0,1-1.63,1.58,5,5,0,0,1-2.41.56,5.08,5.08,0,0,1-2.44-.56,3.94,3.94,0,0,1-1.63-1.58,4.63,4.63,0,0,1-.59-2.35,4.56,4.56,0,0,1,.59-2.33,3.92,3.92,0,0,1,1.63-1.57,5.08,5.08,0,0,1,2.44-.56A5,5,0,0,1,737.26,346.05Zm-4.22,2a3,3,0,0,0,0,3.86,2.55,2.55,0,0,0,3.59,0,3,3,0,0,0,0-3.86,2.55,2.55,0,0,0-3.59,0Z" fill="#2f2e41"/><path d="M744.69,345.94a3.55,3.55,0,0,1,1.78-.47v2.07a2.92,2.92,0,0,0-2.18.64,2.45,2.45,0,0,0-.81,1.93v4.25h-2.14v-8.81h2.14v1.7A3.14,3.14,0,0,1,744.69,345.94Z" fill="#2f2e41"/><path d="M626.39,363.89h1.18V369h2.66v1.06h-3.84Z" fill="#2f2e41"/><path d="M634.46,365.61a2.16,2.16,0,0,1,.88.84,2.7,2.7,0,0,1,0,2.51,2.12,2.12,0,0,1-.88.85,2.67,2.67,0,0,1-1.29.3,2.71,2.71,0,0,1-1.3-.3A2.12,2.12,0,0,1,631,369a2.7,2.7,0,0,1,0-2.51,2.16,2.16,0,0,1,.88-.84,2.71,2.71,0,0,1,1.3-.3A2.67,2.67,0,0,1,634.46,365.61Zm-2.26,1.08a1.62,1.62,0,0,0,0,2.06,1.29,1.29,0,0,0,1,.4,1.24,1.24,0,0,0,1-.4,1.62,1.62,0,0,0,0-2.06,1.21,1.21,0,0,0-1-.4A1.25,1.25,0,0,0,632.2,366.69Z" fill="#2f2e41"/><path d="M638.44,365.56a1.85,1.85,0,0,1,.95-.26v1.11a1.61,1.61,0,0,0-1.16.34,1.29,1.29,0,0,0-.44,1v2.27h-1.15v-4.71h1.15v.91A1.64,1.64,0,0,1,638.44,365.56Z" fill="#2f2e41"/><path d="M643.86,366a2.62,2.62,0,0,1,.56,1.8v.35h-3.48a1.36,1.36,0,0,0,.47.79,1.34,1.34,0,0,0,.87.28,1.89,1.89,0,0,0,.7-.13,1.78,1.78,0,0,0,.57-.4l.62.65a2.51,2.51,0,0,1-.86.6,2.9,2.9,0,0,1-1.12.21,2.63,2.63,0,0,1-1.28-.3,2.15,2.15,0,0,1-.85-.84,2.57,2.57,0,0,1-.3-1.25,2.44,2.44,0,0,1,.31-1.25,2,2,0,0,1,.85-.85,2.43,2.43,0,0,1,1.24-.31A2.16,2.16,0,0,1,643.86,366Zm-.48,1.38a1.18,1.18,0,0,0-.35-.83,1.21,1.21,0,0,0-.86-.31,1.16,1.16,0,0,0-.84.31,1.3,1.3,0,0,0-.42.83Z" fill="#2f2e41"/><path d="M652.85,365.79a1.9,1.9,0,0,1,.46,1.33v2.94h-1.16v-2.61a1.09,1.09,0,0,0-.27-.78,1,1,0,0,0-.76-.29,1.12,1.12,0,0,0-.87.4,1.44,1.44,0,0,0-.32,1v2.32h-1.15v-2.61a1.09,1.09,0,0,0-.27-.78,1,1,0,0,0-.75-.29,1.11,1.11,0,0,0-.88.4,1.39,1.39,0,0,0-.32,1v2.32h-1.15v-4.71h1.15v.87a1.94,1.94,0,0,1,2.69-.62,1.59,1.59,0,0,1,.59.83,1.75,1.75,0,0,1,1.75-1.13A1.68,1.68,0,0,1,652.85,365.79Z" fill="#2f2e41"/><path d="M657.78,363.52a.67.67,0,0,1,.18.49.68.68,0,0,1-.18.48.63.63,0,0,1-.47.2.62.62,0,0,1-.47-.2.68.68,0,0,1-.18-.48.67.67,0,0,1,.18-.49.62.62,0,0,1,.47-.2A.63.63,0,0,1,657.78,363.52Zm-1,1.83h1.15v4.71h-1.15Z" fill="#2f2e41"/><path d="M663.25,365.62a2,2,0,0,1,.79.85,2.78,2.78,0,0,1,.27,1.26A2.73,2.73,0,0,1,664,369a2,2,0,0,1-.78.84,2.2,2.2,0,0,1-1.16.3,2,2,0,0,1-.93-.21,1.76,1.76,0,0,1-.67-.6v2.47h-1.15v-6.42h1.15v.77a1.78,1.78,0,0,1,.65-.6,2,2,0,0,1,.93-.21A2.18,2.18,0,0,1,663.25,365.62Zm-.47,3.1a1.45,1.45,0,0,0,.37-1,1.42,1.42,0,0,0-.37-1,1.34,1.34,0,0,0-1.91,0,1.6,1.6,0,0,0,0,2.05,1.34,1.34,0,0,0,1.91,0Z" fill="#2f2e41"/><path d="M667.39,366.31a2.11,2.11,0,0,0-.67-.12.87.87,0,0,0-.46.11.32.32,0,0,0-.18.31.38.38,0,0,0,.22.34,3.46,3.46,0,0,0,.68.25,7.87,7.87,0,0,1,.81.29,1.59,1.59,0,0,1,.56.44,1.18,1.18,0,0,1,.23.75,1.23,1.23,0,0,1-.53,1.06,2.32,2.32,0,0,1-1.33.37,3.57,3.57,0,0,1-1.07-.17,2.68,2.68,0,0,1-.88-.49l.4-.81a2.09,2.09,0,0,0,.76.43,2.59,2.59,0,0,0,.83.16,1.07,1.07,0,0,0,.51-.11.37.37,0,0,0,.19-.33.39.39,0,0,0-.22-.37,3.58,3.58,0,0,0-.71-.28,4.55,4.55,0,0,1-.78-.28,1.35,1.35,0,0,1-.52-.41,1.12,1.12,0,0,1-.22-.73,1.23,1.23,0,0,1,.51-1.06,2.12,2.12,0,0,1,1.27-.36,3.2,3.2,0,0,1,.92.13,3,3,0,0,1,.81.37l-.42.83A3.22,3.22,0,0,0,667.39,366.31Z" fill="#2f2e41"/><path d="M673.91,365.35v4.71h-1.15v-.87a1.71,1.71,0,0,1-1.64.92,1.61,1.61,0,0,1-1.25-.49,1.81,1.81,0,0,1-.46-1.32v-2.95h1.15V368a1.08,1.08,0,0,0,.27.77,1,1,0,0,0,.74.28,1.08,1.08,0,0,0,.87-.38,1.48,1.48,0,0,0,.32-1v-2.33Z" fill="#2f2e41"/><path d="M682.78,365.79a1.9,1.9,0,0,1,.45,1.33v2.94h-1.15v-2.61a1.05,1.05,0,0,0-.28-.78,1,1,0,0,0-.75-.29,1.09,1.09,0,0,0-.87.4,1.44,1.44,0,0,0-.32,1v2.32H678.7v-2.61a1.09,1.09,0,0,0-.27-.78,1,1,0,0,0-.75-.29,1.13,1.13,0,0,0-.88.4,1.44,1.44,0,0,0-.32,1v2.32h-1.14v-4.71h1.14v.87a2,2,0,0,1,2.7-.62,1.57,1.57,0,0,1,.58.83,1.77,1.77,0,0,1,1.76-1.13A1.68,1.68,0,0,1,682.78,365.79Z" fill="#2f2e41"/><path d="M691.22,363.52v6.54h-1.15v-.75a1.78,1.78,0,0,1-.65.6,2,2,0,0,1-.93.21,2.28,2.28,0,0,1-1.18-.31,2.09,2.09,0,0,1-.79-.85,2.73,2.73,0,0,1-.28-1.27,2.61,2.61,0,0,1,.28-1.24,2,2,0,0,1,.78-.85,2.23,2.23,0,0,1,1.16-.3,2,2,0,0,1,.94.22,1.76,1.76,0,0,1,.67.6v-2.6Zm-1.52,5.23a1.43,1.43,0,0,0,.37-1,1.47,1.47,0,0,0-.37-1,1.36,1.36,0,0,0-1.93,0,1.58,1.58,0,0,0-.38,1,1.53,1.53,0,0,0,.38,1,1.34,1.34,0,0,0,1.93,0Z" fill="#2f2e41"/><path d="M696,365.61a2.13,2.13,0,0,1,.87.84,2.62,2.62,0,0,1,0,2.51,2.1,2.1,0,0,1-.87.85,2.67,2.67,0,0,1-1.29.3,2.71,2.71,0,0,1-1.3-.3,2.12,2.12,0,0,1-.88-.85,2.7,2.7,0,0,1,0-2.51,2.16,2.16,0,0,1,.88-.84,2.71,2.71,0,0,1,1.3-.3A2.67,2.67,0,0,1,696,365.61Zm-2.26,1.08a1.62,1.62,0,0,0,0,2.06,1.29,1.29,0,0,0,1,.4,1.24,1.24,0,0,0,1-.4,1.62,1.62,0,0,0,0-2.06,1.21,1.21,0,0,0-1-.4A1.25,1.25,0,0,0,693.78,366.69Z" fill="#2f2e41"/><path d="M698.27,363.52h1.14v6.54h-1.14Z" fill="#2f2e41"/><path d="M704.24,365.61a2.2,2.2,0,0,1,.87.84,2.7,2.7,0,0,1,0,2.51,2.16,2.16,0,0,1-.87.85,3,3,0,0,1-2.6,0,2.1,2.1,0,0,1-.87-.85,2.62,2.62,0,0,1,0-2.51,2.13,2.13,0,0,1,.87-.84,3,3,0,0,1,2.6,0ZM702,366.69a1.62,1.62,0,0,0,0,2.06,1.35,1.35,0,0,0,1.92,0,1.62,1.62,0,0,0,0-2.06,1.35,1.35,0,0,0-1.92,0Z" fill="#2f2e41"/><path d="M708.21,365.56a1.86,1.86,0,0,1,1-.26v1.11a1.62,1.62,0,0,0-1.17.34,1.32,1.32,0,0,0-.44,1v2.27h-1.14v-4.71h1.14v.91A1.7,1.7,0,0,1,708.21,365.56Z" fill="#2f2e41"/><circle cx="580.69" cy="350.08" r="4.28" fill="#a7a9ac"/><circle cx="738.33" cy="528.43" r="21.1" fill="#2f2e41"/><path d="M745.93,518.29a5.41,5.41,0,0,1,2.86.8,3.41,3.41,0,0,1,.26,5.6l-1.56,1.2a2.41,2.41,0,0,1-1,.45,2,2,0,0,1-.42,0,2.34,2.34,0,0,1-1.44-.49l-.83-.63a1.35,1.35,0,0,0-1.13-.4c-.94,0-2.56.47-5.26,2.43-5,4-3.64,5.64-3.64,5.64l.39,1a2.34,2.34,0,0,1,0,1.92,2.26,2.26,0,0,1-.7.86l-1.57,1.2a3.34,3.34,0,0,1-2.07.7,3.44,3.44,0,0,1-1.53-.36,3.38,3.38,0,0,1-1.73-2.06c-1.27-4.27,3.25-7.5,3.25-7.5l4.87-3.72,1.22-.93,4.87-3.73a9.41,9.41,0,0,1,5.23-2m0-1.59a11,11,0,0,0-6.22,2.32l-4.85,3.71-1.22.93-4.85,3.71c-.45.33-5.36,4.06-3.83,9.23a5,5,0,0,0,7.83,2.54l1.57-1.2a4,4,0,0,0,1.16-1.44,3.91,3.91,0,0,0,.09-3.21l-.39-1,0-.1c.06-.28.45-1.47,3.17-3.67,2.63-1.9,3.88-2.11,4.3-2.11h.08l.08.06.83.63a4,4,0,0,0,2.41.82,4.25,4.25,0,0,0,.71-.06,4.16,4.16,0,0,0,1.69-.75L750,526a5,5,0,0,0,1.86-5,5,5,0,0,0-2.26-3.24,6.93,6.93,0,0,0-3.69-1Z" fill="#fff"/><circle cx="685.91" cy="526.79" r="21.1" fill="#fff"/><path d="M685.91,520.34a.38.38,0,0,0-.38.38v.87a.38.38,0,0,0,.76,0v-.87A.38.38,0,0,0,685.91,520.34Zm-2,0a.38.38,0,0,0-.38.38v.87a.38.38,0,0,0,.76,0v-.87A.38.38,0,0,0,683.92,520.34Zm0-2.49a.38.38,0,0,0-.38.38v.87a.38.38,0,0,0,.76,0v-.87A.38.38,0,0,0,683.92,517.85Zm2,0a.38.38,0,0,0-.38.38v.87a.38.38,0,0,0,.76,0v-.87A.38.38,0,0,0,685.91,517.85Zm2,2.49a.38.38,0,0,0-.38.38v.87a.38.38,0,0,0,.76,0v-.87A.38.38,0,0,0,687.9,520.34Zm5.19,2.24a.64.64,0,0,0-.64.64v5.23a6.54,6.54,0,1,1-13.08,0v-5.23a.64.64,0,0,0-.64-.64.64.64,0,0,0-.63.64v5.23a7.81,7.81,0,0,0,7.18,7.78v2.25H681v1.27h9.85v-1.27h-4.29v-2.25a7.81,7.81,0,0,0,7.18-7.78v-5.23A.64.64,0,0,0,693.09,522.58Zm-7.18,10.72h0a5,5,0,0,0,5-4.95v-9.57a5,5,0,0,0-5-4.95h0a5,5,0,0,0-4.95,4.95v9.57A5,5,0,0,0,685.91,533.3Zm-3.68-14.52a3.68,3.68,0,0,1,7.36,0v4.79h-7.36Zm5.67-.93a.38.38,0,0,0-.38.38v.87a.38.38,0,0,0,.76,0v-.87A.38.38,0,0,0,687.9,517.85Z" fill="#2f2e41"/><circle cx="634.79" cy="526.79" r="21.1" fill="#2f2e41"/><path d="M638.94,535H624.11a1.93,1.93,0,0,1-1.93-1.9V520.66a1.92,1.92,0,0,1,1.93-1.9h14.83a1.91,1.91,0,0,1,1.93,1.9v1.55l3.21-2.09a1.6,1.6,0,0,1,.86-.25h1.19a1.57,1.57,0,0,1,1.58,1.55v11a1.57,1.57,0,0,1-1.58,1.56H644.9a1.63,1.63,0,0,1-.89-.27l-3.14-2.13v1.53A1.92,1.92,0,0,1,638.94,535Zm-14.55-14.74a.55.55,0,0,0-.55.55v12.31a.55.55,0,0,0,.55.55h14.66a.55.55,0,0,0,.55-.55v-4l5.22,3.54a.2.2,0,0,0,.11,0h1.22a.21.21,0,0,0,.21-.21V521.58a.21.21,0,0,0-.21-.2H645a.17.17,0,0,0-.1,0l-5.27,3.43v-4a.55.55,0,0,0-.55-.55Zm7.28,11.62a4.92,4.92,0,1,1,5-4.91A5,5,0,0,1,631.67,531.9Z" fill="#e6e7e8" opacity="0.99"/><rect x="618.38" y="526.19" width="33.54" height="1.59" transform="translate(-182.9 636.19) rotate(-47.29)" fill="#fff"/><path d="M584.36,548.27a21.38,21.38,0,1,1,21.38-21.38A21.4,21.4,0,0,1,584.36,548.27Zm0-41.5a20.12,20.12,0,1,0,20.11,20.12A20.15,20.15,0,0,0,584.36,506.77Z" fill="#fff"/><path d="M581.14,541.74v-7.2h-5.67a4.25,4.25,0,0,1-4.26-4.25v-8.38a4.26,4.26,0,0,1,4.26-4.25h17.78a4.26,4.26,0,0,1,4.25,4.25v8.38a4.25,4.25,0,0,1-4.25,4.25h-6Zm-5.67-22.52a2.69,2.69,0,0,0-2.69,2.69v8.38a2.69,2.69,0,0,0,2.69,2.69h7.23v4.51l3.84-4.51h6.71a2.7,2.7,0,0,0,2.69-2.69v-8.38a2.7,2.7,0,0,0-2.69-2.69Z" fill="#fff"/><path d="M580.6,526.63A1.63,1.63,0,1,1,579,525,1.63,1.63,0,0,1,580.6,526.63Z" fill="#fff"/><path d="M586,526.63a1.62,1.62,0,1,1-1.62-1.63A1.63,1.63,0,0,1,586,526.63Z" fill="#fff"/><path d="M591.36,526.63a1.62,1.62,0,1,1-1.62-1.63A1.62,1.62,0,0,1,591.36,526.63Z" fill="#fff"/><rect x="767.55" y="82.6" width="27.27" height="27.27" rx="13.64" fill="#2f2e41"/><rect x="780.34" y="88.23" width="1.68" height="16.01" transform="translate(148.55 564.51) rotate(-43.53)" fill="#fff"/><rect x="773.18" y="95.39" width="16.01" height="1.68" transform="translate(173.4 596.34) rotate(-46.47)" fill="#fff"/><rect x="531.66" y="82.6" width="27.27" height="27.27" rx="13.64" fill="#2f2e41"/><circle cx="538.96" cy="96.24" r="1.95" fill="#fff"/><circle cx="545.3" cy="96.24" r="1.95" fill="#fff"/><path d="M553.59,96.24a1.95,1.95,0,1,1-2-1.95A1.94,1.94,0,0,1,553.59,96.24Z" fill="#fff"/></g></g></svg>