<svg id="ffb4a056-53b5-4590-b4f5-dab641b0b3ba" data-name="Layer 1" xmlns="http://www.w3.org/2000/svg" width="865.76" height="682.89" viewBox="0 0 865.76 682.89"><polygon points="602.7 626.46 600.4 644.16 636.95 644.16 634.66 626.46 602.7 626.46" fill="#2f2e41"/><rect x="537.33" y="585.62" width="27.57" height="33.21" fill="#f9b499"/><rect x="604.89" y="585.62" width="27.57" height="33.21" fill="#f9b499"/><polygon points="516.53 320.81 503.75 336.26 490.85 323.81 505.47 314.41 516.53 320.81" fill="#f9b499"/><path d="M519.43,534.55s48-27.51,90.45-24.41L607.42,474s-2.74-15.63,3.84-28.93c0,0,15.22-29.53-1.36-58.52l-51.16,3s-6.06,21.82-13,39.68c0,0-6.73,22.85-11.15,42.59Z" fill="#686175" data-primary="true"/><path d="M519.43,534.55s48-27.51,90.45-24.41L607.42,474s-2.74-15.63,3.84-28.93c0,0,15.22-29.53-1.36-58.52l-51.16,3s-6.06,21.82-13,39.68c0,0-6.73,22.85-11.15,42.59Z" opacity="0.2"/><path d="M631.41,597.21H601.34a3.2,3.2,0,0,1-3.18-2.91l-12.59-143L571.84,595.84a4.06,4.06,0,0,1-4.26,3.68l-29-1.48a4.07,4.07,0,0,1-3.87-4.19l6.85-216.31L631,367.25,634.61,594A3.2,3.2,0,0,1,631.41,597.21Z" fill="#2f2e41"/><path d="M553.92,380.05s22.78,9.76,51.18-7.37l-5.43-157.9-26.56-4.59q-3.45,9.26-6.51,19.13C549.68,284.33,548.81,336.45,553.92,380.05Z" fill="#ccc"/><path d="M488.45,25.26l-8.77.15L481,4.48a2.77,2.77,0,0,1,2.76-2.59h0a2.76,2.76,0,0,1,2.75,2.51Z" fill="#f48225" data-secondary="true"/><path d="M488.45,25.26l-8.77.15L481,4.48a2.77,2.77,0,0,1,2.76-2.59h0a2.76,2.76,0,0,1,2.75,2.51Z" opacity="0.2"/><path d="M325.12,107.63s16.71,3.6,13.89,14.57c0,0,49.81-10.66,86.15,7.83,0,0,71.08-23.92,119.81,0,0,0,48.44-19.48,87.28-11.93,0,0-3.75-10.31,14.42-15.33,0,0-32.82-8.26-85.22-5.64,0,0-77.07-20.36-153.52,2.82C407.93,100,380.88,97.24,325.12,107.63Z" fill="#f48225" data-secondary="true"/><path d="M325.12,107.63s16.71,3.6,13.89,14.57c0,0,49.81-10.66,86.15,7.83,0,0,71.08-23.92,119.81,0,0,0,48.44-19.48,87.28-11.93,0,0-3.75-10.31,14.42-15.33,0,0-32.82-8.26-85.22-5.64,0,0-77.07-20.36-153.52,2.82C407.93,100,380.88,97.24,325.12,107.63Z" opacity="0.2"/><path d="M440.66,30.53c-37.49,8.49-89.54,28.76-115.54,77.1,0,0,51.07-9.66,82.81-7.68,0,0,63.92-22.87,153.52-2.82,0,0,48.87-2.29,85.22,5.64,0,0-29.53-55.24-115-73A214.27,214.27,0,0,0,440.66,30.53Z" fill="#f48225" data-secondary="true"/><g opacity="0.1"><path d="M408.42,100.08l-1-.25A138.62,138.62,0,0,1,423,65.08c10.21-16.3,28.4-35.87,56.69-39.67l8.77-.15c29.77,4.35,48.15,23.27,58.34,38.8a121.07,121.07,0,0,1,15.14,33l-1,.24a120.27,120.27,0,0,0-15-32.67C535.86,49.23,517.69,30,488.38,25.75h-8.7C426.31,32.93,408.59,99.41,408.42,100.08Z" fill="#231f20"/></g><path d="M594.27,219.13l-9.73,9.73a5.66,5.66,0,0,1-6.41,1.14c-3.4-1.61-5-5.07-5-9.07V179.38h21.76l1.35,34.79A6.67,6.67,0,0,1,594.27,219.13Z" fill="#f9b499"/><path d="M573.11,210.19a109.51,109.51,0,0,0-2,53c3.49,50.58-2.76,82.27-6.21,99.95A383,383,0,0,1,547.69,424c-2.64,7.07-4,15.1-5.78,22.43-8.44,34.79-17.76,68.74-26.2,103.53L499,541.4a5.12,5.12,0,0,1-2.66-5.78q4.71-19.65,8.84-40.9c5.11-26.59,8.77-51.92,11.33-75.72,1.75-8.3,2.92-21,7.67-35.46a299.84,299.84,0,0,0,12.57-56c3.88-30.87,1.18-56.47-.4-77.64a7.12,7.12,0,0,1,2.45-6.19c3.38-2.73,6.21-5.27,8.49-7.46,3.34-3.2,6.29-6.36,8.87-9.36.93-1.07,1.8-2.17,2.66-3.3a59.05,59.05,0,0,1,6-6.76,58.35,58.35,0,0,1,8.32-6.68" fill="#686175" data-primary="true"/><path d="M690.32,524.86c-19.21,11.62-77.8,27.87-77.8,27.87l-5.86-75.49c-2.82-17.86,3.35-29.47,3.35-29.47a70.45,70.45,0,0,0,6.63-22.44A68.33,68.33,0,0,0,606.17,380c-3.95-6.18-8.28-13.87-12-20.88a109.78,109.78,0,0,1-13.12-52c0-31,8.33-52.36,8.33-52.36,9.09-23.5,6.43-52.43,6.43-52.43A232.4,232.4,0,0,1,651.05,243l6.27,117.38s31,112.5,36.5,157.32A7.35,7.35,0,0,1,690.32,524.86Z" fill="#686175" data-primary="true"/><path d="M527.77,371.62h0l-34-23.89a3,3,0,0,1-.72-4.12l20.27-28.91a3,3,0,0,1,4.09-.74l2.26,1.53s9.07-69.63,17.2-69.19a9.91,9.91,0,0,0-.51,3.64s6.24,50.05-.26,82.59C536.05,332.53,532.87,354.93,527.77,371.62Z" fill="#686175" data-primary="true"/><path d="M527.77,371.62h0l-34-23.89a3,3,0,0,1-.72-4.12l20.27-28.91a3,3,0,0,1,4.09-.74l2.26,1.53s9.07-69.63,17.2-69.19a9.91,9.91,0,0,0-.51,3.64s6.24,50.05-.26,82.59C536.05,332.53,532.87,354.93,527.77,371.62Z" opacity="0.2"/><rect x="602.7" y="605.15" width="31.96" height="21.3" fill="#686175" data-primary="true"/><path d="M612.78,631.78h21.87a0,0,0,0,1,0,0v36.55a0,0,0,0,1,0,0H612.78a10.08,10.08,0,0,1-10.08-10.08V641.86A10.08,10.08,0,0,1,612.78,631.78Z" transform="translate(1268.74 31.38) rotate(90)" fill="#686175" data-primary="true"/><path d="M535,605.15v28.93H513.36a16.44,16.44,0,0,0-16.45,16.45v11.85H567V605.15Z" fill="#686175" data-primary="true"/><polygon points="613.77 395.45 623.91 381.82 607.85 367.01 600.15 375.43 613.77 395.45" fill="#f9b499"/><path d="M656.9,249.45c-.83-2.67-3.69-4.35-5.85-6.47l-18.74-16.67,1.45,102.16a16.48,16.48,0,0,1-4.29,11.33l-22.39,24.63a2.3,2.3,0,0,0,.15,3.25l27,24.54a2.3,2.3,0,0,0,3.33-.24,211.5,211.5,0,0,0,33.62-57.55,26.11,26.11,0,0,0,1.29-14.27C669.24,303.07,665.42,276.66,656.9,249.45Z" fill="#686175" data-primary="true"/><path d="M656.9,249.45c-.83-2.67-3.69-4.35-5.85-6.47l-18.74-16.67,1.45,102.16a16.48,16.48,0,0,1-4.29,11.33l-22.39,24.63a2.3,2.3,0,0,0,.15,3.25l27,24.54a2.3,2.3,0,0,0,3.33-.24,211.5,211.5,0,0,0,33.62-57.55,26.11,26.11,0,0,0,1.29-14.27C669.24,303.07,665.42,276.66,656.9,249.45Z" opacity="0.2"/><path d="M488.45,292.06h-2.82L484.18,90.57a1.53,1.53,0,0,1,1.41-1.64h0A1.54,1.54,0,0,1,487,90.55Z" fill="#f48225" data-secondary="true"/><path d="M489.81,288.72a32.45,32.45,0,0,1,13.57,15.66,30.37,30.37,0,0,1,2.09,10l-14.62,9.4Z" fill="#f9b499"/><polygon points="478.43 314.41 484.17 319 484.17 313.58 478.43 314.41" fill="#f4a68e"/><path d="M484.18,342.56v-53.5h6.67v51.88c0,7.72,6.59,16.29,14.32,16.29h5c7.73,0,13.67-8.57,13.67-16.29h7.31v1.62a22.5,22.5,0,0,1-22.5,22.5h-2A22.5,22.5,0,0,1,484.18,342.56Z" fill="#f48225" data-secondary="true"/><path d="M484.18,342.56v-53.5h6.67v51.88c0,7.72,6.59,16.29,14.32,16.29h5c7.73,0,13.67-8.57,13.67-16.29h7.31v1.62a22.5,22.5,0,0,1-22.5,22.5h-2A22.5,22.5,0,0,1,484.18,342.56Z" opacity="0.2"/><path d="M478.42,314.41l12.89-1.87A3.69,3.69,0,0,0,494,307.2c-1.37-2.63-2.95-5.4-4.77-8.25-2.28-3.57-6.79-6.73-9-9.51a1,1,0,0,0-1.06-.41.94.94,0,0,0-.69.91Z" fill="#f9b499"/><path d="M573.11,208.54v-6.19l21.76-19.21S597.9,208.58,573.11,208.54Z" fill="#f4a68e"/><ellipse cx="576.75" cy="177.6" rx="18.12" ry="28.41" fill="#f9b499"/><path d="M594.87,196.19c6.73-1.56,8.07-5,8.31-6.64a50.08,50.08,0,0,1,1.18-6c.19-.68.39-1.34.59-2a42.53,42.53,0,0,1,4-8.69c6.73-11.44-2.75-17.57-2.75-17.57-2.64-.91-.91-3-.91-3,5.33-11.28-14.41-18.17-14.41-18.17-7.52-3.76-25.69,4.38-25.69,4.38-8.77,4.39-12.94-4.38-12.94-4.38-17.33,18.48,1.65,25.38,1.65,25.38s-5.94,12.32,4.71,18.06c0,0-.27-10.79,5.21-19.66a13.32,13.32,0,0,1,17-5.29c4.47,2.12,9.34,6.85,12.9,16.85a20.2,20.2,0,0,1,1.15,6.8Z" fill="#2f2e41"/><ellipse cx="597.9" cy="178.65" rx="4.39" ry="7.73" fill="#f9b499"/><path d="M471.6,296.8V258.36h-3.42V209.12a30.33,30.33,0,0,0-30.33-30.34H274.79a30.34,30.34,0,0,0-30.35,30.34v387.5A30.35,30.35,0,0,0,274.79,627h163a30.34,30.34,0,0,0,30.4-30.28V329.57h3.48V306.86h-3.48V296.8Z" fill="#2f2e41"/><path d="M432.46,622.83H280.11A32.15,32.15,0,0,1,248,590.68V215.11c0-17.75,9.1-32.15,32.15-32.15H432.46c21.13-.29,32.15,14.4,32.15,32.15V590.64a32.15,32.15,0,0,1-32.11,32.19Z" opacity="0.2"/><path d="M368.08,187.91l-.06.22c-1.79,6.64-5.89,11-10.43,11H355c-4.54,0-8.64-4.31-10.43-11l-.06-.22-63.57-.23a26.76,26.76,0,0,0-26.86,26.66v.08L254,586.67c0,17.36,13.57,31.42,30.33,31.42H428.24c16.74,0,30.33-14.06,30.33-31.42V211.75a23.2,23.2,0,0,0-22.92-23.2Z" fill="#fff"/><path d="M276.89,271H435.7a22.87,22.87,0,0,1,22.87,22.87V494.18a0,0,0,0,1,0,0H254a0,0,0,0,1,0,0V293.91A22.87,22.87,0,0,1,276.89,271Z" fill="#ccc" opacity="0.43"/><circle cx="345.2" cy="518.41" r="2.22" fill="#3f3d56"/><circle cx="356.32" cy="518.41" r="2.22" fill="#ccc"/><circle cx="366.8" cy="518.41" r="2.22" fill="#ccc"/><rect x="281.59" y="532.59" width="149.28" height="18.06" rx="8.49" fill="#ccc"/><rect x="281.68" y="558.48" width="149.28" height="18.06" rx="8.49" fill="#2f2e41"/><path d="M352.57,539.84H351a1.77,1.77,0,0,0-.67-.58,2,2,0,0,0-.89-.19,1.92,1.92,0,0,0-1.41.59,2.08,2.08,0,0,0-.46.7,2.05,2.05,0,0,0-.16.81,2.14,2.14,0,0,0,.59,1.54,1.91,1.91,0,0,0,1.44.62,2,2,0,0,0,.88-.19,1.48,1.48,0,0,0,.63-.53h1.6a3.52,3.52,0,0,1-1.24,1.54,3.32,3.32,0,0,1-1.86.51,3.36,3.36,0,0,1-1.39-.29,3.54,3.54,0,0,1-1.14-.85,3.29,3.29,0,0,1-.64-1.08,3.64,3.64,0,0,1-.22-1.29,3.49,3.49,0,0,1,.26-1.32,3.62,3.62,0,0,1,.78-1.14,3.3,3.3,0,0,1,1.08-.72,3.39,3.39,0,0,1,1.28-.25,3.26,3.26,0,0,1,1.87.53A3.76,3.76,0,0,1,352.57,539.84Z" fill="#3f3d56"/><path d="M354.32,543.13l-.51,1.4h-1.36l2.59-6.67h1.13l2.55,6.67h-1.4l-.52-1.4Zm2.05-1.24-.79-2.14-.81,2.14Z" fill="#3f3d56"/><path d="M362.39,544.53H359v-6.67h1.29v5.5h2.09Z" fill="#3f3d56"/><path d="M366.52,544.53h-3.39v-6.67h1.3v5.5h2.09Z" fill="#3f3d56"/><path d="M338.48,570.41h-1.29v-6.67h1.73l1.69,4.85,1.69-4.85H344v6.67h-1.29l.05-4.84-1.69,4.84h-1l-1.69-4.84Z" fill="#ccc"/><path d="M348.74,570.41h-3.6v-6.67h3.6v1.17h-2.31v1.53h2.31v1.15h-2.31v1.65h2.31Z" fill="#ccc"/><path d="M349.43,568.34h1.19v.09a1,1,0,0,0,.22.68.74.74,0,0,0,.59.25.85.85,0,0,0,.62-.23.9.9,0,0,0,.23-.64q0-.65-.93-.93l-.19-.06a2.39,2.39,0,0,1-1.15-.69,1.68,1.68,0,0,1-.38-1.13,2.17,2.17,0,0,1,.52-1.5,1.79,1.79,0,0,1,1.39-.57,1.72,1.72,0,0,1,1.29.5,2.21,2.21,0,0,1,.54,1.42h-1.18v0a.7.7,0,0,0-.2-.52.65.65,0,0,0-.5-.2.69.69,0,0,0-.51.2.81.81,0,0,0-.18.55.68.68,0,0,0,0,.26.45.45,0,0,0,.12.21,1.89,1.89,0,0,0,.8.38l.43.12a2.11,2.11,0,0,1,1,.67,1.79,1.79,0,0,1,.33,1.11,2.37,2.37,0,0,1-.57,1.66,2,2,0,0,1-1.53.62,1.87,1.87,0,0,1-1.44-.6A2.37,2.37,0,0,1,349.43,568.34Z" fill="#ccc"/><path d="M353.92,568.34h1.19v.09a1,1,0,0,0,.22.68.75.75,0,0,0,.59.25.8.8,0,0,0,.85-.87c0-.43-.31-.74-.92-.93l-.19-.06a2.38,2.38,0,0,1-1.16-.69,1.67,1.67,0,0,1-.37-1.13,2.12,2.12,0,0,1,.52-1.5,1.79,1.79,0,0,1,1.38-.57,1.72,1.72,0,0,1,1.3.5,2.15,2.15,0,0,1,.53,1.42h-1.18v0a.67.67,0,0,0-.7-.72.65.65,0,0,0-.5.2.77.77,0,0,0-.19.55,1,1,0,0,0,0,.26.72.72,0,0,0,.12.21,2,2,0,0,0,.81.38l.42.12a2.1,2.1,0,0,1,1,.67,1.85,1.85,0,0,1,.32,1.11,2.37,2.37,0,0,1-.57,1.66,2,2,0,0,1-1.52.62,1.84,1.84,0,0,1-1.44-.6A2.33,2.33,0,0,1,353.92,568.34Z" fill="#ccc"/><path d="M360,569l-.52,1.4h-1.35l2.59-6.67h1.13l2.55,6.67H363l-.52-1.4Zm2-1.23-.78-2.15-.81,2.15Z" fill="#ccc"/><path d="M371,566.87s0,.06,0,.11v.11a4,4,0,0,1-.07.8,3.5,3.5,0,0,1-.24.69,3.58,3.58,0,0,1-1.29,1.45,3.58,3.58,0,0,1-3.23.23,3.54,3.54,0,0,1-1.16-.86,3.5,3.5,0,0,1-.65-1.08,3.67,3.67,0,0,1-.22-1.28,3.33,3.33,0,0,1,.27-1.33,3.56,3.56,0,0,1,.79-1.13,3.25,3.25,0,0,1,1.1-.73,3.59,3.59,0,0,1,1.34-.24,3.18,3.18,0,0,1,1.86.53,3.28,3.28,0,0,1,1.21,1.53h-1.58a1.85,1.85,0,0,0-.68-.54,2.07,2.07,0,0,0-.88-.18,2,2,0,0,0-1.45.62,2.19,2.19,0,0,0,0,3,2,2,0,0,0,1.48.61,2,2,0,0,0,1.1-.33,1.9,1.9,0,0,0,.74-.89h-2.62v-1.11Z" fill="#ccc"/><path d="M375.47,570.41h-3.61v-6.67h3.61v1.17h-2.31v1.53h2.31v1.15h-2.31v1.65h2.31Z" fill="#ccc"/><rect x="277.56" y="322.89" width="149.28" height="12.98" rx="6.1" opacity="0.2"/><rect x="278.36" y="368.13" width="149.28" height="12.98" rx="6.1" opacity="0.2"/><rect x="278.36" y="390.21" width="149.28" height="12.98" rx="6.1" opacity="0.2"/><path d="M233.76,627.6h14.86a0,0,0,0,1,0,0v4.88a7,7,0,0,1-7,7h-.89a7,7,0,0,1-7-7V627.6a0,0,0,0,1,0,0Z" fill="#ccc"/><path d="M339.05,627.6h14.86a0,0,0,0,1,0,0v4.88a7,7,0,0,1-7,7H346a7,7,0,0,1-7-7V627.6A0,0,0,0,1,339.05,627.6Z" fill="#ccc"/><path d="M427.84,473.71A11.73,11.73,0,0,0,416.11,462h-5.8V584.09h7.38A10.33,10.33,0,0,0,428,573.75Zm-16.9-2.17v-2.65h5.63a6.46,6.46,0,0,1,6.46,6.46v97.86a7,7,0,0,1-7,7h-5.05" fill="#ccc"/><rect x="226.32" y="440.12" width="134.88" height="189.4" rx="6.79" fill="#ccc"/><rect x="226.32" y="440.12" width="134.88" height="189.4" rx="6.79" opacity="0.2"/><rect x="233.76" y="447.43" width="120.31" height="54.36" fill="#ccc"/><rect x="233.6" y="506.87" width="120.31" height="56.9" fill="#ccc"/><rect x="233.6" y="568.85" width="120.31" height="54.91" fill="#ccc"/><rect x="264.25" y="492.67" width="35.3" height="9.11" fill="#bcbec0"/><rect x="273.53" y="492.67" width="18.12" height="9.11" opacity="0.2"/><rect x="274.64" y="492.67" width="1.55" height="9.11" fill="#fff"/><rect x="288.64" y="492.67" width="1.55" height="9.11" fill="#fff"/><rect x="234.68" y="554.59" width="35.3" height="9.11" fill="#bcbec0"/><rect x="243.96" y="554.59" width="18.12" height="9.11" opacity="0.2"/><rect x="245.07" y="554.59" width="1.55" height="9.11" fill="#fff"/><rect x="259.07" y="554.59" width="1.55" height="9.11" fill="#fff"/><rect x="275.8" y="554.59" width="35.3" height="9.11" fill="#bcbec0"/><rect x="285.08" y="554.59" width="18.12" height="9.11" opacity="0.2"/><rect x="286.18" y="554.59" width="1.55" height="9.11" fill="#fff"/><rect x="300.18" y="554.59" width="1.55" height="9.11" fill="#fff"/><rect x="315.49" y="536.37" width="35.3" height="9.11" fill="#bcbec0"/><rect x="324.77" y="536.37" width="18.12" height="9.11" opacity="0.2"/><rect x="325.87" y="536.37" width="1.55" height="9.11" fill="#fff"/><rect x="339.87" y="536.37" width="1.55" height="9.11" fill="#fff"/><rect x="313.17" y="545.48" width="35.3" height="9.11" fill="#bcbec0"/><rect x="322.45" y="545.48" width="18.12" height="9.11" opacity="0.2"/><rect x="323.55" y="545.48" width="1.55" height="9.11" fill="#fff"/><rect x="337.55" y="545.48" width="1.55" height="9.11" fill="#fff"/><rect x="317.42" y="554.59" width="35.3" height="9.11" fill="#bcbec0"/><rect x="326.7" y="554.59" width="18.12" height="9.11" opacity="0.2"/><rect x="327.8" y="554.59" width="1.55" height="9.11" fill="#fff"/><rect x="341.81" y="554.59" width="1.55" height="9.11" fill="#fff"/><rect x="282.04" y="536.37" width="35.3" height="9.11" transform="translate(-247.4 252.64) rotate(-33.23)" fill="#bcbec0"/><rect x="291.21" y="535.99" width="18.12" height="9.11" transform="translate(-247.1 252.89) rotate(-33.23)" opacity="0.2"/><rect x="293.48" y="539.93" width="1.55" height="9.11" transform="translate(-250.24 250.24) rotate(-33.23)" fill="#fff"/><rect x="305.2" y="532.26" width="1.55" height="9.11" transform="translate(-244.12 255.41) rotate(-33.23)" fill="#fff"/><rect x="244.94" y="545.48" width="35.3" height="9.11" fill="#bcbec0"/><rect x="254.22" y="545.48" width="18.12" height="9.11" opacity="0.2"/><rect x="255.32" y="545.48" width="1.55" height="9.11" fill="#fff"/><rect x="269.33" y="545.48" width="1.55" height="9.11" fill="#fff"/><rect x="239.22" y="536.36" width="35.3" height="9.11" fill="#bcbec0"/><rect x="248.5" y="536.36" width="18.12" height="9.11" opacity="0.2"/><rect x="249.61" y="536.36" width="1.55" height="9.11" fill="#fff"/><rect x="263.61" y="536.36" width="1.55" height="9.11" fill="#fff"/><rect x="235.49" y="527.25" width="35.3" height="9.11" fill="#bcbec0"/><rect x="244.77" y="527.25" width="18.12" height="9.11" opacity="0.2"/><rect x="245.88" y="527.25" width="1.55" height="9.11" fill="#fff"/><rect x="259.88" y="527.25" width="1.55" height="9.11" fill="#fff"/><rect x="242.97" y="518.14" width="35.3" height="9.11" fill="#bcbec0"/><rect x="252.25" y="518.14" width="18.12" height="9.11" opacity="0.2"/><rect x="253.35" y="518.14" width="1.55" height="9.11" fill="#fff"/><rect x="267.36" y="518.14" width="1.55" height="9.11" fill="#fff"/><rect x="306.43" y="492.67" width="35.3" height="9.11" fill="#bcbec0"/><rect x="315.71" y="492.67" width="18.12" height="9.11" opacity="0.2"/><rect x="316.81" y="492.67" width="1.55" height="9.11" fill="#fff"/><rect x="330.81" y="492.67" width="1.55" height="9.11" fill="#fff"/><rect x="310.68" y="483.55" width="35.3" height="9.11" fill="#bcbec0"/><rect x="319.96" y="483.55" width="18.12" height="9.11" opacity="0.2"/><rect x="321.06" y="483.55" width="1.55" height="9.11" fill="#fff"/><rect x="335.07" y="483.55" width="1.55" height="9.11" fill="#fff"/><rect x="273.61" y="483.55" width="35.3" height="9.11" fill="#bcbec0"/><rect x="282.89" y="483.55" width="18.12" height="9.11" opacity="0.2"/><rect x="284" y="483.55" width="1.55" height="9.11" fill="#fff"/><rect x="298" y="483.55" width="1.55" height="9.11" fill="#fff"/><rect x="291.26" y="474.44" width="35.3" height="9.11" fill="#bcbec0"/><rect x="300.54" y="474.44" width="18.12" height="9.11" opacity="0.2"/><rect x="301.65" y="474.44" width="1.55" height="9.11" fill="#fff"/><rect x="315.65" y="474.44" width="1.55" height="9.11" fill="#fff"/><rect x="303.42" y="465.33" width="35.3" height="9.11" fill="#bcbec0"/><rect x="312.7" y="465.33" width="18.12" height="9.11" opacity="0.2"/><rect x="313.8" y="465.33" width="1.55" height="9.11" fill="#fff"/><rect x="327.8" y="465.33" width="1.55" height="9.11" fill="#fff"/><rect x="235.11" y="486.91" width="35.3" height="9.11" transform="translate(-134.84 97.52) rotate(-17.32)" fill="#bcbec0"/><rect x="244.36" y="486.7" width="18.12" height="9.11" transform="translate(-134.74 97.7) rotate(-17.32)" opacity="0.2"/><rect x="245.79" y="488.84" width="1.55" height="9.11" transform="translate(-135.69 95.76) rotate(-17.32)" fill="#fff"/><rect x="259.15" y="484.67" width="1.55" height="9.11" transform="translate(-133.84 99.55) rotate(-17.32)" fill="#fff"/><polygon points="247.43 591.94 256.87 576.25 274.63 576.25 284 591.94 247.43 591.94" fill="#bcbec0"/><path d="M256.1,584.09s-2.24,7,14.77,7.85H247.43l9.44-15.69Z" opacity="0.2"/><polygon points="236.71 607.63 246.16 591.94 263.92 591.94 273.28 607.63 236.71 607.63" fill="#bcbec0"/><path d="M245.38,599.78s-2.24,7,14.78,7.84H236.71l9.45-15.68Z" opacity="0.2"/><polygon points="271.34 607.63 280.79 591.94 298.55 591.94 307.92 607.63 271.34 607.63" fill="#bcbec0"/><path d="M280,599.78s-2.24,7,14.78,7.84H271.34l9.45-15.68Z" opacity="0.2"/><polygon points="236.71 623.75 246.16 608.07 263.92 608.07 273.28 623.75 236.71 623.75" fill="#bcbec0"/><path d="M245.38,615.91s-2.24,7,14.78,7.85H236.71l9.45-15.69Z" opacity="0.2"/><polygon points="272.89 623.75 282.33 608.07 300.1 608.07 309.46 623.75 272.89 623.75" fill="#ccc"/><path d="M281.56,615.91s-2.24,7,14.78,7.85H272.89l9.44-15.69Z" opacity="0.2"/><polygon points="311.89 623.7 321.34 608.01 339.1 608.01 348.46 623.7 311.89 623.7" fill="#bcbec0"/><path d="M320.56,615.86s-2.24,7,14.78,7.84H311.89L321.34,608Z" opacity="0.2"/><polygon points="398.04 417.93 354.07 447.43 353.91 623.75 398.04 629.52 398.04 417.93" fill="#ccc"/><rect x="398.04" y="417.93" width="14.2" height="211.59" fill="#ccc"/><rect x="398.04" y="417.93" width="14.2" height="211.59" opacity="0.2"/><polygon points="370.17 625.87 353.91 447.43 353.91 623.59 370.17 625.87" opacity="0.2"/><circle cx="405.44" cy="486.26" r="5.28" fill="#ccc"/><circle cx="405.44" cy="486.26" r="3.83" opacity="0.2"/><circle cx="405.44" cy="532.44" r="5.28" fill="#ccc"/><circle cx="405.44" cy="532.44" r="3.83" opacity="0.2"/><circle cx="405.44" cy="580.25" r="5.28" fill="#ccc"/><circle cx="405.44" cy="580.25" r="3.83" opacity="0.2"/><path d="M331,656.41c-.15,3.7,11.52,7.18,26,7.81s26.48-1.87,26.64-5.57-11.52-7.16-26-7.79S331.18,652.74,331,656.41Z" fill="#ccc"/><rect x="354.18" y="627.8" width="6.68" height="52.76" transform="translate(-311.22 983.64) rotate(-87.57)" fill="#ccc"/><path d="M331.3,649.74c-.15,3.69,11.52,7.18,26,7.8S383.8,655.67,384,652s-11.52-7.16-26-7.78S331.46,646.06,331.3,649.74Z" fill="#ccc"/><path d="M331.3,649.74c-.15,3.69,11.52,7.18,26,7.8S383.8,655.67,384,652s-11.52-7.16-26-7.78S331.46,646.06,331.3,649.74Z" fill="#fff" opacity="0.4" style="isolation:isolate"/><path d="M334.67,649.63a1.11,1.11,0,0,0,.22.66c1.74-2.17,11.4-3.47,22.91-3s21,2.58,22.55,4.89a1,1,0,0,0,.28-.64c.1-2.5-10.1-5-22.81-5.54S334.77,647.14,334.67,649.63Z" fill="#ccc"/><path d="M334.67,649.63a1.11,1.11,0,0,0,.22.66c1.74-2.17,11.4-3.47,22.91-3s21,2.58,22.55,4.89a1,1,0,0,0,.28-.64c.1-2.5-10.1-5-22.81-5.54S334.77,647.14,334.67,649.63Z" fill="#ccc" opacity="0.4" style="isolation:isolate"/><path d="M334.89,650.29c1.58,2.31,11.07,4.39,22.55,4.88s21.18-.78,22.91-2.95c-1.54-2.31-11-4.39-22.55-4.89S336.66,648.12,334.89,650.29Z" fill="#ccc" opacity="0.4" style="isolation:isolate"/><path d="M325.42,646.3c-.15,3.7,11.52,7.18,26,7.81s26.48-1.88,26.64-5.55-11.52-7.18-26-7.81S325.65,642.63,325.42,646.3Z" fill="#ccc"/><rect x="348.65" y="617.72" width="6.68" height="52.76" transform="translate(-306.45 968.46) rotate(-87.57)" fill="#ccc"/><path d="M325.77,639.64c-.16,3.68,11.52,7.17,26,7.79s26.48-1.87,26.63-5.55-11.51-7.18-26-7.8S325.93,636,325.77,639.64Z" fill="#ccc"/><path d="M325.77,639.64c-.16,3.68,11.52,7.17,26,7.79s26.48-1.87,26.63-5.55-11.51-7.18-26-7.8S325.93,636,325.77,639.64Z" fill="#fff" opacity="0.4" style="isolation:isolate"/><path d="M329.13,639.52a1,1,0,0,0,.23.66c1.73-2.17,11.39-3.47,22.91-2.95s21,2.57,22.55,4.88a1.08,1.08,0,0,0,.27-.63c.11-2.5-10.09-5-22.8-5.55S329.24,637,329.13,639.52Z" fill="#ccc"/><path d="M329.13,639.52a1,1,0,0,0,.23.66c1.73-2.17,11.39-3.47,22.91-2.95s21,2.57,22.55,4.88a1.08,1.08,0,0,0,.27-.63c.11-2.5-10.09-5-22.8-5.55S329.24,637,329.13,639.52Z" fill="#ccc" opacity="0.4" style="isolation:isolate"/><path d="M329.36,640.18c1.56,2.31,11.07,4.39,22.55,4.87s21.17-.78,22.91-2.94c-1.55-2.31-11-4.39-22.55-4.88S331.11,638,329.36,640.18Z" fill="#ccc" opacity="0.4" style="isolation:isolate"/><path d="M326.2,634.13c-.15,3.69,11.52,7.18,26,7.8s26.48-1.87,26.64-5.56-11.52-7.17-26-7.79S326.36,630.45,326.2,634.13Z" fill="#ccc"/><rect x="349.37" y="605.53" width="6.68" height="52.76" transform="translate(-293.59 957.51) rotate(-87.57)" fill="#ccc"/><path d="M326.48,627.45c-.16,3.69,11.52,7.18,26,7.81s26.46-1.88,26.62-5.55-11.52-7.19-26-7.81S326.64,623.77,326.48,627.45Z" fill="#ccc"/><path d="M326.48,627.45c-.16,3.69,11.52,7.18,26,7.81s26.46-1.88,26.62-5.55-11.52-7.19-26-7.81S326.64,623.77,326.48,627.45Z" fill="#fff" opacity="0.4" style="isolation:isolate"/><path d="M329.85,627.35a1.05,1.05,0,0,0,.22.66c1.74-2.17,11.4-3.47,22.91-3s21,2.56,22.55,4.87a.92.92,0,0,0,.28-.62c.1-2.5-10.1-5-22.81-5.55S330,624.85,329.85,627.35Z" fill="#ccc"/><path d="M329.85,627.35a1.05,1.05,0,0,0,.22.66c1.74-2.17,11.4-3.47,22.91-3s21,2.56,22.55,4.87a.92.92,0,0,0,.28-.62c.1-2.5-10.1-5-22.81-5.55S330,624.85,329.85,627.35Z" fill="#ccc" opacity="0.4" style="isolation:isolate"/><path d="M330.07,628c1.58,2.3,11.07,4.38,22.55,4.87s21.17-.78,22.91-3c-1.55-2.31-11-4.39-22.55-4.87S331.84,625.87,330.07,628Z" fill="#ccc" opacity="0.4" style="isolation:isolate"/><path d="M320.67,624c-.16,3.68,11.52,7.17,26,7.79s26.48-1.87,26.64-5.55-11.52-7.18-26-7.8S320.83,620.34,320.67,624Z" fill="#ccc"/><rect x="343.82" y="595.39" width="6.68" height="52.76" transform="matrix(0.04, -1, 1, 0.04, -288.77, 942.25)" fill="#ccc"/><path d="M321,617.36c-.16,3.67,11.51,7.16,26,7.78s26.49-1.87,26.64-5.55-11.51-7.18-26-7.8S321.1,613.73,321,617.36Z" fill="#ccc"/><path d="M321,617.36c-.16,3.67,11.51,7.16,26,7.78s26.49-1.87,26.64-5.55-11.51-7.18-26-7.8S321.1,613.73,321,617.36Z" fill="#fff" opacity="0.4" style="isolation:isolate"/><path d="M324.31,617.2a.94.94,0,0,0,.23.66c1.73-2.17,11.39-3.47,22.91-3s21,2.57,22.55,4.87a1.09,1.09,0,0,0,.27-.62c.11-2.5-10.09-5-22.8-5.55S324.42,614.74,324.31,617.2Z" fill="#ccc"/><path d="M324.31,617.2a.94.94,0,0,0,.23.66c1.73-2.17,11.39-3.47,22.91-3s21,2.57,22.55,4.87a1.09,1.09,0,0,0,.27-.62c.11-2.5-10.09-5-22.8-5.55S324.42,614.74,324.31,617.2Z" fill="#ccc" opacity="0.4" style="isolation:isolate"/><path d="M324.54,617.89c1.56,2.31,11.06,4.39,22.55,4.88s21.17-.78,22.91-2.95c-1.55-2.31-11-4.39-22.55-4.87S326.29,615.73,324.54,617.89Z" fill="#ccc" opacity="0.4" style="isolation:isolate"/><path d="M325,661.4c-.27,3.69-12.27,5.81-26.74,4.77s-26.1-4.89-25.83-8.58,12.26-5.79,26.74-4.75S325.24,657.73,325,661.4Z" fill="#ccc"/><rect x="295.57" y="629.76" width="6.68" height="52.76" transform="translate(-377.11 906.86) rotate(-85.86)" fill="#ccc"/><path d="M325.46,654.73c-.26,3.69-12.26,5.82-26.73,4.78s-26.1-4.89-25.83-8.58,12.26-5.8,26.74-4.76S325.73,651.06,325.46,654.73Z" fill="#ccc"/><path d="M325.46,654.73c-.26,3.69-12.26,5.82-26.73,4.78s-26.1-4.89-25.83-8.58,12.26-5.8,26.74-4.76S325.73,651.06,325.46,654.73Z" fill="#fff" opacity="0.4" style="isolation:isolate"/><path d="M322.13,654.24a1,1,0,0,1-.3.63c-1.47-2.35-10.92-4.75-22.42-5.57s-21.19.16-23,2.28a.92.92,0,0,1-.21-.67c.19-2.49,10.6-3.8,23.29-2.88S322.32,651.75,322.13,654.24Z" fill="#ccc"/><path d="M322.13,654.24a1,1,0,0,1-.3.63c-1.47-2.35-10.92-4.75-22.42-5.57s-21.19.16-23,2.28a.92.92,0,0,1-.21-.67c.19-2.49,10.6-3.8,23.29-2.88S322.32,651.75,322.13,654.24Z" fill="#ccc" opacity="0.4" style="isolation:isolate"/><path d="M321.83,654.87c-1.83,2.11-11.49,3.1-22.95,2.26s-20.95-3.2-22.42-5.55c1.79-2.11,11.46-3.09,23-2.28S320.33,652.52,321.83,654.87Z" fill="#ccc" opacity="0.4" style="isolation:isolate"/><path d="M331.7,652c-.27,3.69-12.26,5.82-26.74,4.78s-26.09-4.89-25.83-8.56,12.26-5.82,26.74-4.78S331.9,648.32,331.7,652Z" fill="#ccc"/><rect x="302.22" y="620.38" width="6.68" height="52.76" transform="translate(-361.59 904.79) rotate(-85.86)" fill="#ccc"/><path d="M332.12,645.34c-.27,3.67-12.26,5.8-26.74,4.76s-26.09-4.9-25.83-8.57,12.26-5.81,26.74-4.77S332.38,641.65,332.12,645.34Z" fill="#ccc"/><path d="M332.12,645.34c-.27,3.67-12.26,5.8-26.74,4.76s-26.09-4.9-25.83-8.57,12.26-5.81,26.74-4.77S332.38,641.65,332.12,645.34Z" fill="#fff" opacity="0.4" style="isolation:isolate"/><path d="M328.79,644.83a1,1,0,0,1-.3.63c-1.48-2.35-10.92-4.75-22.42-5.55s-21.2.14-23,2.26a1.1,1.1,0,0,1-.21-.65c.19-2.49,10.61-3.83,23.3-2.9S329,642.34,328.79,644.83Z" fill="#ccc"/><path d="M328.79,644.83a1,1,0,0,1-.3.63c-1.48-2.35-10.92-4.75-22.42-5.55s-21.2.14-23,2.26a1.1,1.1,0,0,1-.21-.65c.19-2.49,10.61-3.83,23.3-2.9S329,642.34,328.79,644.83Z" fill="#ccc" opacity="0.4" style="isolation:isolate"/><path d="M328.49,645.46c-1.82,2.11-11.5,3.09-23,2.26s-20.95-3.2-22.42-5.55c1.8-2.11,11.46-3.1,23-2.26S327,643.11,328.49,645.46Z" fill="#ccc" opacity="0.4" style="isolation:isolate"/><path d="M332.32,639.81c-.27,3.69-12.27,5.81-26.74,4.78s-26.1-4.9-25.83-8.59,12.26-5.79,26.74-4.75S332.58,636.14,332.32,639.81Z" fill="#ccc"/><rect x="302.9" y="608.19" width="6.68" height="52.76" transform="translate(-348.8 894.16) rotate(-85.86)" fill="#ccc"/><path d="M332.81,633.15c-.27,3.68-12.27,5.81-26.74,4.77S280,633,280.26,629.36s12.26-5.82,26.73-4.78S333.07,629.47,332.81,633.15Z" fill="#ccc"/><path d="M332.81,633.15c-.27,3.68-12.27,5.81-26.74,4.77S280,633,280.26,629.36s12.26-5.82,26.73-4.78S333.07,629.47,332.81,633.15Z" fill="#fff" opacity="0.4" style="isolation:isolate"/><path d="M329.48,632.66a1.19,1.19,0,0,1-.3.63c-1.48-2.36-10.93-4.75-22.43-5.56s-21.19.15-22.95,2.26a.9.9,0,0,1-.21-.65c.18-2.49,10.6-3.82,23.29-2.9S329.66,630.16,329.48,632.66Z" fill="#ccc"/><path d="M329.48,632.66a1.19,1.19,0,0,1-.3.63c-1.48-2.36-10.93-4.75-22.43-5.56s-21.19.15-22.95,2.26a.9.9,0,0,1-.21-.65c.18-2.49,10.6-3.82,23.29-2.9S329.66,630.16,329.48,632.66Z" fill="#ccc" opacity="0.4" style="isolation:isolate"/><path d="M329.18,633.29c-1.84,2.11-11.5,3.09-23,2.26s-21-3.2-22.42-5.56c1.79-2.11,11.46-3.09,22.95-2.26S327.66,631,329.18,633.29Z" fill="#ccc" opacity="0.4" style="isolation:isolate"/><path d="M339,630.42c-.27,3.67-12.26,5.79-26.74,4.75s-26.09-4.89-25.83-8.56,12.27-5.81,26.74-4.77S339.24,626.73,339,630.42Z" fill="#ccc"/><rect x="309.58" y="598.75" width="6.68" height="52.76" transform="matrix(0.07, -1, 1, 0.07, -333.19, 892.06)" fill="#ccc"/><path d="M339.46,623.75c-.27,3.67-12.26,5.8-26.74,4.76s-26.09-4.89-25.83-8.56,12.26-5.82,26.74-4.78S339.72,620.13,339.46,623.75Z" fill="#ccc"/><path d="M339.46,623.75c-.27,3.67-12.26,5.8-26.74,4.76s-26.09-4.89-25.83-8.56,12.26-5.82,26.74-4.78S339.72,620.13,339.46,623.75Z" fill="#fff" opacity="0.4" style="isolation:isolate"/><path d="M335.83,623.87c-1.82,2.12-11.5,3.1-23,2.26s-20.95-3.2-22.42-5.55c1.8-2.11,11.46-3.09,23-2.26S334.34,621.52,335.83,623.87Z" fill="#ccc" opacity="0.4" style="isolation:isolate"/><path d="M329.12,615.47c-.16,3.67,11.51,7.16,26,7.78s26.49-1.87,26.64-5.55-11.51-7.18-26-7.8S329.27,611.77,329.12,615.47Z" fill="#ccc"/><rect x="352.28" y="586.86" width="6.68" height="52.76" transform="translate(-272.14 942.54) rotate(-87.57)" fill="#ccc"/><path d="M329.41,608.79c-.15,3.68,11.52,7.16,26,7.79s26.48-1.88,26.64-5.55-11.52-7.18-26-7.81S329.57,605.06,329.41,608.79Z" fill="#ccc"/><path d="M329.41,608.79c-.15,3.68,11.52,7.16,26,7.79s26.48-1.88,26.64-5.55-11.52-7.18-26-7.81S329.57,605.06,329.41,608.79Z" fill="#fff" opacity="0.4" style="isolation:isolate"/><path d="M332.76,608.67a1.24,1.24,0,0,0,.22.66c1.74-2.17,11.42-3.47,22.92-3s21.05,2.56,22.54,4.87a1,1,0,0,0,.3-.62c.1-2.5-10.1-5-22.81-5.55S332.88,606.17,332.76,608.67Z" fill="#ccc"/><path d="M332.76,608.67a1.24,1.24,0,0,0,.22.66c1.74-2.17,11.42-3.47,22.92-3s21.05,2.56,22.54,4.87a1,1,0,0,0,.3-.62c.1-2.5-10.1-5-22.81-5.55S332.88,606.17,332.76,608.67Z" fill="#ccc" opacity="0.4" style="isolation:isolate"/><path d="M333,609.33c1.58,2.3,11.07,4.38,22.55,4.87s21.2-.78,22.91-3c-1.52-2.31-11-4.39-22.54-4.87S334.75,607.16,333,609.33Z" fill="#ccc" opacity="0.4" style="isolation:isolate"/><path d="M323.58,605.35c-.15,3.68,11.52,7.19,26,7.79s26.48-1.87,26.64-5.55-11.52-7.18-26-7.8S323.69,601.59,323.58,605.35Z" fill="#ccc"/><rect x="346.73" y="576.73" width="6.68" height="52.76" transform="translate(-267.34 927.3) rotate(-87.57)" fill="#ccc"/><path d="M323.86,598.68c-.15,3.67,11.52,7.18,26,7.78s26.48-1.85,26.64-5.55-11.52-7.18-26-7.8S324,595,323.86,598.68Z" fill="#ccc"/><path d="M323.86,598.68c-.15,3.67,11.52,7.18,26,7.78s26.48-1.85,26.64-5.55-11.52-7.18-26-7.8S324,595,323.86,598.68Z" fill="#fff" opacity="0.4" style="isolation:isolate"/><path d="M327.16,598.56a1,1,0,0,0,.22.66c1.74-2.17,11.4-3.47,22.91-3s21,2.56,22.55,4.89a1,1,0,0,0,.28-.64c.1-2.5-10.1-5-22.81-5.55S327.33,596.06,327.16,598.56Z" fill="#ccc"/><path d="M327.16,598.56a1,1,0,0,0,.22.66c1.74-2.17,11.4-3.47,22.91-3s21,2.56,22.55,4.89a1,1,0,0,0,.28-.64c.1-2.5-10.1-5-22.81-5.55S327.33,596.06,327.16,598.56Z" fill="#ccc" opacity="0.4" style="isolation:isolate"/><path d="M327.45,599.22c1.58,2.3,11.07,4.38,22.55,4.89s21.18-.78,22.91-3c-1.54-2.33-11-4.41-22.55-4.89S329.22,597.05,327.45,599.22Z" fill="#ccc" opacity="0.4" style="isolation:isolate"/><path d="M255.82,644.55c-.18,3.7,11.49,7.18,26,7.79s26.47-1.86,26.62-5.55-11.5-7.18-26-7.79S256,640.86,255.82,644.55Z" fill="#ccc"/><rect x="278.96" y="615.92" width="6.68" height="52.76" transform="translate(-371.39 897.11) rotate(-87.57)" fill="#ccc"/><path d="M256.09,637.88c-.15,3.69,11.52,7.18,26,7.8s26.48-1.87,26.64-5.57-11.52-7.18-26-7.78S256.25,634.18,256.09,637.88Z" fill="#ccc"/><path d="M256.09,637.88c-.15,3.69,11.52,7.18,26,7.8s26.48-1.87,26.64-5.57-11.52-7.18-26-7.78S256.25,634.18,256.09,637.88Z" fill="#fff" opacity="0.4" style="isolation:isolate"/><path d="M259.44,637.75a.92.92,0,0,0,.23.66c1.73-2.16,11.39-3.47,22.91-2.94s21,2.58,22.54,4.89a1.12,1.12,0,0,0,.28-.65c.11-2.49-10.09-5-22.81-5.53S259.56,635.26,259.44,637.75Z" fill="#ccc"/><path d="M259.44,637.75a.92.92,0,0,0,.23.66c1.73-2.16,11.39-3.47,22.91-2.94s21,2.58,22.54,4.89a1.12,1.12,0,0,0,.28-.65c.11-2.49-10.09-5-22.81-5.53S259.56,635.26,259.44,637.75Z" fill="#ccc" opacity="0.4" style="isolation:isolate"/><path d="M259.68,638.41c1.56,2.31,11.07,4.41,22.55,4.89s21.18-.78,22.91-2.94c-1.54-2.31-11-4.41-22.55-4.89S261.44,636.32,259.68,638.41Z" fill="#ccc" opacity="0.4" style="isolation:isolate"/><path d="M278.74,638.05c-.86,3.59,9.94,9.23,24.11,12.59s26.36,3.19,27.21-.4-9.95-9.22-24.12-12.59S279.59,634.46,278.74,638.05Z" fill="#ccc"/><rect x="301.84" y="614.56" width="6.68" height="52.76" transform="translate(-388.99 789.51) rotate(-76.62)" fill="#ccc"/><path d="M280.25,631.55c-.86,3.59,9.94,9.22,24.11,12.6s26.36,3.2,27.21-.39-9.9-9.18-24.09-12.65S281.14,628,280.25,631.55Z" fill="#ccc"/><path d="M280.25,631.55c-.86,3.59,9.94,9.22,24.11,12.6s26.36,3.2,27.21-.39-9.9-9.18-24.09-12.65S281.14,628,280.25,631.55Z" fill="#fff" opacity="0.4" style="isolation:isolate"/><path d="M283.6,632.07a1,1,0,0,0,.1.69c2.14-1.73,11.85-1.21,23.05,1.46s20.17,6.52,21.25,9.07a1,1,0,0,0,.4-.58c.57-2.42-9-6.81-21.35-9.76S284.19,629.64,283.6,632.07Z" fill="#ccc"/><path d="M283.6,632.07a1,1,0,0,0,.1.69c2.14-1.73,11.85-1.21,23.05,1.46s20.17,6.52,21.25,9.07a1,1,0,0,0,.4-.58c.57-2.42-9-6.81-21.35-9.76S284.19,629.64,283.6,632.07Z" fill="#ccc" opacity="0.4" style="isolation:isolate"/><path d="M283.72,632.85c1.11,2.56,10,6.41,21.25,9.07s20.93,3.26,23,1.45c-1.08-2.55-10-6.4-21.25-9.07S285.84,631,283.72,632.85Z" fill="#ccc" opacity="0.4" style="isolation:isolate"/><circle cx="350.33" cy="580.77" r="23.76" fill="#ccc"/><circle cx="353.17" cy="580.77" r="23.76" fill="#ccc"/><circle cx="353.17" cy="580.77" r="23.76" fill="#fff" opacity="0.5" style="isolation:isolate"/><circle cx="353.17" cy="580.77" r="17.79" transform="translate(-307.22 419.84) rotate(-45)" fill="#ccc"/><path d="M360.37,586.65a7.41,7.41,0,0,1-5.57,2.25,7.72,7.72,0,0,1-7.42-4.83H357V582H346.86a7.37,7.37,0,0,1,0-.94,7.21,7.21,0,0,1,0-.93h10.08v-2h-9.56a7.74,7.74,0,0,1,7.44-4.84,7.42,7.42,0,0,1,5.57,2.24l.28.27,1.92-1.89-.26-.27a10,10,0,0,0-7.61-3,10.4,10.4,0,0,0-10.41,7.51h-3.38v2h3V582h-3v2.05h3.39a10.39,10.39,0,0,0,10.4,7.5,10.08,10.08,0,0,0,7.62-3.05l.26-.28-1.93-1.89Z" fill="#fff" opacity="0.3" style="isolation:isolate"/><path d="M254.19,650.39c-.54,2.17-7.89,2.18-16.43,0s-15-5.64-14.48-7.79,7.91-2.19,16.44,0S254.71,648.27,254.19,650.39Z" fill="#407bff"/><rect x="237.22" y="628.65" width="4.04" height="31.86" transform="translate(-444.14 720.06) rotate(-75.94)" fill="#407bff"/><path d="M255.18,646.54c-.56,2.17-7.91,2.18-16.45,0s-15-5.62-14.46-7.79,7.89-2.19,16.42,0S255.71,644.32,255.18,646.54Z" fill="#407bff"/><path d="M255.18,646.54c-.56,2.17-7.91,2.18-16.45,0s-15-5.62-14.46-7.79,7.89-2.19,16.42,0S255.71,644.32,255.18,646.54Z" fill="#fff" opacity="0.4" style="isolation:isolate"/><path d="M253.23,645.83a.5.5,0,0,1-.24.34c-.64-1.56-6-3.95-12.75-5.63s-12.62-2.12-13.87-1a1,1,0,0,1,0-.42c.38-1.47,6.71-1.16,14.17.69S253.62,644.37,253.23,645.83Z" fill="#407bff"/><path d="M253.23,645.83a.5.5,0,0,1-.24.34c-.64-1.56-6-3.95-12.75-5.63s-12.62-2.12-13.87-1a1,1,0,0,1,0-.42c.38-1.47,6.71-1.16,14.17.69S253.62,644.37,253.23,645.83Z" fill="#407bff" opacity="0.4" style="isolation:isolate"/><path d="M253,646.17c-1.3,1.06-7.14.64-13.87-1S227,641,226.33,639.5c1.31-1.08,7.15-.66,13.88,1S252.35,644.61,253,646.17Z" fill="#407bff" opacity="0.4" style="isolation:isolate"/><path d="M269,657.5c.11,2.22-6.93,4.33-15.74,4.7s-16-1.13-16.08-3.35,6.94-4.33,15.75-4.72S269,655.21,269,657.5Z" fill="#ccc"/><rect x="237.07" y="654.17" width="31.86" height="4.04" transform="translate(-27.59 11.32) rotate(-2.43)" fill="#ccc"/><path d="M268.86,653.47c.1,2.24-6.94,4.34-15.73,4.72s-16-1.13-16.09-3.36,6.93-4.34,15.74-4.7S268.77,651.24,268.86,653.47Z" fill="#ccc"/><path d="M268.86,653.47c.1,2.24-6.94,4.34-15.73,4.72s-16-1.13-16.09-3.36,6.93-4.34,15.74-4.7S268.77,651.24,268.86,653.47Z" fill="#fff" opacity="0.4" style="isolation:isolate"/><path d="M266.85,653.47a.52.52,0,0,1-.14.4c-1.06-1.3-6.94-2.08-13.87-1.73s-12.72,1.56-13.65,3a.57.57,0,0,1-.16-.38c0-1.51,6.09-3,13.77-3.35S266.85,651.88,266.85,653.47Z" fill="#ccc"/><path d="M266.85,653.47a.52.52,0,0,1-.14.4c-1.06-1.3-6.94-2.08-13.87-1.73s-12.72,1.56-13.65,3a.57.57,0,0,1-.16-.38c0-1.51,6.09-3,13.77-3.35S266.85,651.88,266.85,653.47Z" fill="#ccc" opacity="0.4" style="isolation:isolate"/><path d="M266.69,653.79c-.93,1.38-6.67,2.65-13.63,3s-12.78-.47-13.87-1.74c.93-1.39,6.67-2.65,13.65-3S265.63,652.49,266.69,653.79Z" fill="#ccc" opacity="0.4" style="isolation:isolate"/><circle cx="232.42" cy="636.51" r="23.76" fill="#ccc"/><path d="M252.31,654.31a23.76,23.76,0,1,1-1.93-33.55h0A23.77,23.77,0,0,1,252.31,654.31Z" fill="#ccc"/><path d="M252.31,654.31a23.76,23.76,0,1,1-1.93-33.55h0A23.77,23.77,0,0,1,252.31,654.31Z" fill="#fff" opacity="0.4" style="isolation:isolate"/><path d="M247.77,650.34a17.8,17.8,0,1,1-1.45-25.13h0a17.78,17.78,0,0,1,1.45,25.1Z" fill="#ccc"/><g opacity="0.3"><path d="M237.89,646.54c-2.12,3.47-5.88,3.55-9.79.62l-2.22,2.38-2.22-2,2.24-2.38a16.38,16.38,0,0,1-3.87-6.48l3.47-1.86a13.68,13.68,0,0,0,3.05,5.53l3.47-3.64c-1.61-2.53-3.28-5.5-1.37-8.59,2.1-3.38,5.93-3.46,9.87-.5l2.24-2.37,2.2,2-2.24,2.4a14.83,14.83,0,0,1,3.16,5.08l-3.31,1.94a11.78,11.78,0,0,0-2.46-4.27l-3.56,3.82C238.08,640.73,239.69,643.59,237.89,646.54Zm-3.06-10.88,2.92-3.1c-1.44-.85-2.64-.7-3.26.26a2.85,2.85,0,0,0,.34,2.83ZM233.9,644a2.68,2.68,0,0,0-.33-2.67l-2.78,2.95c1.37.76,2.5.66,3.11-.3Z" fill="#fff"/></g><path d="M271.21,628c-.08,2.22,6.94,4.34,15.75,4.7s16-1.12,16.08-3.34-6.94-4.34-15.73-4.72S271.32,625.74,271.21,628Z" fill="#ccc"/><rect x="285.21" y="610.71" width="4.04" height="31.86" transform="translate(-351.03 887.04) rotate(-87.57)" fill="#ccc"/><path d="M271.39,623.93c-.11,2.24,6.93,4.34,15.74,4.72s16-1.13,16.08-3.36-6.94-4.34-15.75-4.7S271.47,621.75,271.39,623.93Z" fill="#ccc"/><path d="M271.39,623.93c-.11,2.24,6.93,4.34,15.74,4.72s16-1.13,16.08-3.36-6.94-4.34-15.75-4.7S271.47,621.75,271.39,623.93Z" fill="#fff" opacity="0.4" style="isolation:isolate"/><path d="M273.42,623.86a.68.68,0,0,0,.13.4c1.06-1.3,6.94-2.08,13.88-1.73s12.69,1.56,13.63,3a.66.66,0,0,0,.17-.4c0-1.5-6.1-3-13.77-3.33S273.48,622.35,273.42,623.86Z" fill="#ccc"/><path d="M273.42,623.86a.68.68,0,0,0,.13.4c1.06-1.3,6.94-2.08,13.88-1.73s12.69,1.56,13.63,3a.66.66,0,0,0,.17-.4c0-1.5-6.1-3-13.77-3.33S273.48,622.35,273.42,623.86Z" fill="#ccc" opacity="0.4" style="isolation:isolate"/><path d="M273.55,624.26c1,1.41,6.68,2.66,13.64,3s12.8-.47,13.87-1.73c-.94-1.41-6.66-2.66-13.63-3S274.61,623,273.55,624.26Z" fill="#ccc" opacity="0.4" style="isolation:isolate"/><path d="M267.87,621.87c0,2.22,6.93,4.33,15.74,4.7s16-1.13,16.08-3.35-6.94-4.33-15.73-4.72S268,619.65,267.87,621.87Z" fill="#ccc"/><rect x="281.83" y="604.56" width="4.04" height="31.86" transform="translate(-348.12 877.77) rotate(-87.57)" fill="#ccc"/><path d="M268.13,617.83c0,2.24,6.93,4.33,15.74,4.72s16-1.13,16.08-3.37-6.94-4.34-15.73-4.7S268.13,615.61,268.13,617.83Z" fill="#ccc"/><path d="M268.13,617.83c0,2.24,6.93,4.33,15.74,4.72s16-1.13,16.08-3.37-6.94-4.34-15.73-4.7S268.13,615.61,268.13,617.83Z" fill="#fff" opacity="0.4" style="isolation:isolate"/><path d="M270.07,617.76a.67.67,0,0,0,.14.4c1.05-1.3,6.93-2.07,13.87-1.74s12.7,1.55,13.63,3a.73.73,0,0,0,.18-.4c0-1.49-6.11-3-13.77-3.33S270.14,616.25,270.07,617.76Z" fill="#ccc"/><path d="M270.07,617.76a.67.67,0,0,0,.14.4c1.05-1.3,6.93-2.07,13.87-1.74s12.7,1.55,13.63,3a.73.73,0,0,0,.18-.4c0-1.49-6.11-3-13.77-3.33S270.14,616.25,270.07,617.76Z" fill="#ccc" opacity="0.4" style="isolation:isolate"/><path d="M270.21,618.16c1,1.4,6.67,2.65,13.63,3s12.8-.47,13.87-1.74c-.93-1.4-6.66-2.65-13.63-3S271.26,616.86,270.21,618.16Z" fill="#ccc" opacity="0.4" style="isolation:isolate"/><path d="M268.3,614.52c0,2.22,6.94,4.33,15.75,4.7s16-1.13,16.07-3.35-6.93-4.34-15.73-4.72S268.4,612.3,268.3,614.52Z" fill="#ccc"/><rect x="282.25" y="597.2" width="4.04" height="31.86" transform="translate(-340.36 871.15) rotate(-87.57)" fill="#ccc"/><path d="M268.47,610.47c0,2.24,6.94,4.34,15.75,4.72s16-1.13,16.08-3.36-6.94-4.34-15.73-4.7S268.58,608.25,268.47,610.47Z" fill="#ccc"/><path d="M268.47,610.47c0,2.24,6.94,4.34,15.75,4.72s16-1.13,16.08-3.36-6.94-4.34-15.73-4.7S268.58,608.25,268.47,610.47Z" fill="#fff" opacity="0.4" style="isolation:isolate"/><path d="M270.5,610.4a.63.63,0,0,0,.14.4c1.06-1.3,6.94-2.06,13.87-1.73s12.7,1.54,13.64,2.95a.66.66,0,0,0,.17-.4c0-1.49-6.1-3-13.77-3.33S270.57,608.91,270.5,610.4Z" fill="#ccc"/><path d="M270.5,610.4a.63.63,0,0,0,.14.4c1.06-1.3,6.94-2.06,13.87-1.73s12.7,1.54,13.64,2.95a.66.66,0,0,0,.17-.4c0-1.49-6.1-3-13.77-3.33S270.57,608.91,270.5,610.4Z" fill="#ccc" opacity="0.4" style="isolation:isolate"/><path d="M270.64,610.8c.95,1.41,6.68,2.66,13.63,3s12.8-.47,13.88-1.73c-.94-1.41-6.66-2.66-13.64-2.95S271.7,609.5,270.64,610.8Z" fill="#ccc" opacity="0.4" style="isolation:isolate"/><path d="M247.63,627.61c.53,2.17,7.9,2.19,16.44,0s15-5.62,14.46-7.79-7.89-2.18-16.42,0S247.09,625.46,247.63,627.61Z" fill="#ccc"/><rect x="246.67" y="619.76" width="31.86" height="4.04" transform="translate(-143.19 82.42) rotate(-14.06)" fill="#ccc"/><path d="M246.65,623.71c.54,2.15,7.9,2.18,16.43,0s15-5.62,14.46-7.77-7.89-2.19-16.42,0S246.1,621.54,246.65,623.71Z" fill="#ccc"/><path d="M246.65,623.71c.54,2.15,7.9,2.18,16.43,0s15-5.62,14.46-7.77-7.89-2.19-16.42,0S246.1,621.54,246.65,623.71Z" fill="#fff" opacity="0.4" style="isolation:isolate"/><path d="M248.58,623.07a.61.61,0,0,0,.24.33c.64-1.55,6-3.94,12.77-5.64s12.61-2.12,13.87-1a.61.61,0,0,0,0-.42c-.36-1.46-6.71-1.16-14.15.71S248.21,621.59,248.58,623.07Z" fill="#ccc"/><path d="M248.58,623.07a.61.61,0,0,0,.24.33c.64-1.55,6-3.94,12.77-5.64s12.61-2.12,13.87-1a.61.61,0,0,0,0-.42c-.36-1.46-6.71-1.16-14.15.71S248.21,621.59,248.58,623.07Z" fill="#ccc" opacity="0.4" style="isolation:isolate"/><path d="M248.82,623.48c1.3,1.08,7.16.66,13.88-1s12.14-4.07,12.76-5.64c-1.3-1.07-7.14-.64-13.87,1.05S249.46,621.85,248.82,623.48Z" fill="#ccc" opacity="0.4" style="isolation:isolate"/><path d="M247.85,640.86c0,2.22,6.93,4.33,15.75,4.7s16-1.13,16.07-3.35-6.93-4.34-15.73-4.72S248,638.62,247.85,640.86Z" fill="#ccc"/><rect x="261.81" y="623.55" width="4.04" height="31.86" transform="translate(-386.26 875.96) rotate(-87.57)" fill="#ccc"/><path d="M248,636.82c-.09,2.23,6.94,4.33,15.75,4.71s16-1.12,16.08-3.36-6.94-4.34-15.73-4.7S248.12,634.63,248,636.82Z" fill="#ccc"/><path d="M248,636.82c-.09,2.23,6.94,4.33,15.75,4.71s16-1.12,16.08-3.36-6.94-4.34-15.73-4.7S248.12,634.63,248,636.82Z" fill="#fff" opacity="0.4" style="isolation:isolate"/><path d="M250.05,636.75a.67.67,0,0,0,.14.4c1.06-1.3,6.94-2.09,13.87-1.74s12.7,1.56,13.64,3a.72.72,0,0,0,.17-.4c0-1.51-6.11-3-13.77-3.33S250.15,635.24,250.05,636.75Z" fill="#ccc"/><path d="M250.05,636.75a.67.67,0,0,0,.14.4c1.06-1.3,6.94-2.09,13.87-1.74s12.7,1.56,13.64,3a.72.72,0,0,0,.17-.4c0-1.51-6.11-3-13.77-3.33S250.15,635.24,250.05,636.75Z" fill="#ccc" opacity="0.4" style="isolation:isolate"/><path d="M250.15,637.15c1,1.4,6.68,2.65,13.64,2.94s12.8-.46,13.87-1.73c-.94-1.4-6.66-2.65-13.63-3S251.25,635.85,250.15,637.15Z" fill="#ccc" opacity="0.4" style="isolation:isolate"/><path d="M277.11,643.67c.09,2.22-6.93,4.33-15.74,4.7s-16-1.13-16.08-3.35,6.94-4.34,15.73-4.72S277,641.43,277.11,643.67Z" fill="#ccc"/><rect x="245.17" y="640.32" width="31.86" height="4.04" transform="matrix(1, -0.04, 0.04, 1, -27, 11.65)" fill="#ccc"/><path d="M276.94,639.63c.1,2.23-6.94,4.33-15.75,4.71s-16-1.12-16.08-3.36,6.94-4.34,15.75-4.7S276.85,637.44,276.94,639.63Z" fill="#ccc"/><path d="M276.94,639.63c.1,2.23-6.94,4.33-15.75,4.71s-16-1.12-16.08-3.36,6.94-4.34,15.75-4.7S276.85,637.44,276.94,639.63Z" fill="#fff" opacity="0.4" style="isolation:isolate"/><path d="M274.91,639.56a.67.67,0,0,1-.14.4c-1.06-1.3-6.94-2.09-13.87-1.74s-12.7,1.56-13.63,3a.73.73,0,0,1-.18-.4c0-1.51,6.11-3,13.77-3.33S274.84,638.05,274.91,639.56Z" fill="#ccc"/><path d="M274.91,639.56a.67.67,0,0,1-.14.4c-1.06-1.3-6.94-2.09-13.87-1.74s-12.7,1.56-13.63,3a.73.73,0,0,1-.18-.4c0-1.51,6.11-3,13.77-3.33S274.84,638.05,274.91,639.56Z" fill="#ccc" opacity="0.4" style="isolation:isolate"/><path d="M274.77,640c-.95,1.4-6.68,2.65-13.63,2.94s-12.8-.46-13.87-1.73c.93-1.4,6.66-2.65,13.63-3S273.71,638.66,274.77,640Z" fill="#ccc" opacity="0.4" style="isolation:isolate"/><path d="M280.46,637.56c0,2.22-6.94,4.34-15.75,4.7s-16-1.12-16.07-3.34,6.93-4.34,15.73-4.72S280.36,635.34,280.46,637.56Z" fill="#ccc"/><rect x="248.55" y="634.16" width="31.86" height="4.04" transform="translate(-26.74 11.79) rotate(-2.43)" fill="#ccc"/><path d="M280.2,633.52c0,2.24-6.94,4.34-15.75,4.72s-16-1.13-16.07-3.37,6.93-4.33,15.73-4.7S280.2,631.3,280.2,633.52Z" fill="#ccc"/><path d="M280.2,633.52c0,2.24-6.94,4.34-15.75,4.72s-16-1.13-16.07-3.37,6.93-4.33,15.73-4.7S280.2,631.3,280.2,633.52Z" fill="#fff" opacity="0.4" style="isolation:isolate"/><path d="M278.26,633.45a.63.63,0,0,1-.14.4c-1.06-1.3-6.94-2.06-13.88-1.73s-12.69,1.54-13.63,3a.71.71,0,0,1-.17-.4c0-1.5,6.1-3,13.77-3.33S278.19,631.94,278.26,633.45Z" fill="#ccc"/><path d="M278.26,633.45a.63.63,0,0,1-.14.4c-1.06-1.3-6.94-2.06-13.88-1.73s-12.69,1.54-13.63,3a.71.71,0,0,1-.17-.4c0-1.5,6.1-3,13.77-3.33S278.19,631.94,278.26,633.45Z" fill="#ccc" opacity="0.4" style="isolation:isolate"/><path d="M278.12,633.85c-.95,1.41-6.68,2.65-13.63,2.95s-12.8-.47-13.88-1.74c.94-1.4,6.66-2.65,13.63-2.94S277.06,632.55,278.12,633.85Z" fill="#ccc" opacity="0.4" style="isolation:isolate"/><path d="M280,630.21c0,2.22-6.94,4.33-15.75,4.7s-16-1.13-16.08-3.35,6.94-4.33,15.73-4.72S279.92,628,280,630.21Z" fill="#ccc"/><rect x="248.13" y="626.81" width="31.86" height="4.04" transform="translate(-26.42 11.76) rotate(-2.43)" fill="#ccc"/><path d="M279.85,626.17c0,2.24-6.93,4.33-15.74,4.72s-16-1.13-16.08-3.37,6.94-4.34,15.73-4.7S279.75,624,279.85,626.17Z" fill="#ccc"/><path d="M279.85,626.17c0,2.24-6.93,4.33-15.74,4.72s-16-1.13-16.08-3.37,6.94-4.34,15.73-4.7S279.75,624,279.85,626.17Z" fill="#fff" opacity="0.4" style="isolation:isolate"/><path d="M277.82,626.1a.73.73,0,0,1-.13.4c-1.06-1.3-6.94-2.07-13.88-1.74s-12.69,1.55-13.63,3a.66.66,0,0,1-.17-.4c0-1.49,6.1-3,13.77-3.33S277.76,624.61,277.82,626.1Z" fill="#ccc"/><path d="M277.82,626.1a.73.73,0,0,1-.13.4c-1.06-1.3-6.94-2.07-13.88-1.74s-12.69,1.55-13.63,3a.66.66,0,0,1-.17-.4c0-1.49,6.1-3,13.77-3.33S277.76,624.61,277.82,626.1Z" fill="#ccc" opacity="0.4" style="isolation:isolate"/><path d="M277.69,626.5c-1,1.4-6.68,2.65-13.64,3s-12.8-.47-13.87-1.74c.94-1.4,6.66-2.65,13.63-3S276.63,625.2,277.69,626.5Z" fill="#ccc" opacity="0.4" style="isolation:isolate"/><path d="M283.37,624.1c0,2.22-6.93,4.34-15.74,4.7s-16-1.12-16.1-3.34,6.94-4.34,15.75-4.72S283.27,621.83,283.37,624.1Z" fill="#ccc"/><rect x="251.45" y="620.72" width="31.86" height="4.04" transform="translate(-26.16 11.9) rotate(-2.43)" fill="#ccc"/><path d="M283.2,620.1c.09,2.23-6.94,4.33-15.75,4.71s-16-1.12-16.07-3.36,6.93-4.32,15.73-4.7S283.1,617.84,283.2,620.1Z" fill="#ccc"/><path d="M283.2,620.1c.09,2.23-6.94,4.33-15.75,4.71s-16-1.12-16.07-3.36,6.93-4.32,15.73-4.7S283.1,617.84,283.2,620.1Z" fill="#fff" opacity="0.4" style="isolation:isolate"/><path d="M281.17,620a.63.63,0,0,1-.14.4c-1.07-1.3-6.93-2.06-13.87-1.73s-12.71,1.54-13.63,3a.59.59,0,0,1-.18-.39c0-1.5,6.11-3,13.77-3.34S281.1,618.5,281.17,620Z" fill="#ccc"/><path d="M281.17,620a.63.63,0,0,1-.14.4c-1.07-1.3-6.93-2.06-13.87-1.73s-12.71,1.54-13.63,3a.59.59,0,0,1-.18-.39c0-1.5,6.11-3,13.77-3.34S281.1,618.5,281.17,620Z" fill="#ccc" opacity="0.4" style="isolation:isolate"/><path d="M281,620.39c-.95,1.41-6.67,2.66-13.63,3s-12.8-.47-13.87-1.73c.92-1.41,6.66-2.66,13.63-3S280,619.09,281,620.39Z" fill="#ccc" opacity="0.4" style="isolation:isolate"/><path d="M278.26,618.94c.1,2.22-6.94,4.33-15.75,4.7s-16-1.13-16.08-3.35,6.94-4.34,15.75-4.72S278.17,616.63,278.26,618.94Z" fill="#ccc"/><rect x="246.36" y="615.52" width="31.86" height="4.04" transform="translate(-25.95 11.68) rotate(-2.43)" fill="#ccc"/><path d="M278.08,614.89c.11,2.24-6.93,4.34-15.73,4.72s-16-1.13-16.09-3.36,6.94-4.34,15.75-4.7S278,612.67,278.08,614.89Z" fill="#ccc"/><path d="M278.08,614.89c.11,2.24-6.93,4.34-15.73,4.72s-16-1.13-16.09-3.36,6.94-4.34,15.75-4.7S278,612.67,278.08,614.89Z" fill="#fff" opacity="0.4" style="isolation:isolate"/><path d="M276.06,614.89a.52.52,0,0,1-.14.4c-1.06-1.3-6.94-2.08-13.88-1.73s-12.71,1.56-13.65,3a.61.61,0,0,1-.15-.38c0-1.51,6.08-3,13.77-3.35S276,613.32,276.06,614.89Z" fill="#ccc"/><path d="M276.06,614.89a.52.52,0,0,1-.14.4c-1.06-1.3-6.94-2.08-13.88-1.73s-12.71,1.56-13.65,3a.61.61,0,0,1-.15-.38c0-1.51,6.08-3,13.77-3.35S276,613.32,276.06,614.89Z" fill="#ccc" opacity="0.4" style="isolation:isolate"/><path d="M275.92,615.22c-.94,1.39-6.68,2.66-13.64,2.95s-12.78-.47-13.87-1.73c.94-1.39,6.68-2.66,13.65-3S274.86,613.92,275.92,615.22Z" fill="#ccc" opacity="0.4" style="isolation:isolate"/><path d="M285.72,630.42c-.54,2.17-7.91,2.18-16.44,0s-15-5.62-14.47-7.79,7.89-2.18,16.43,0S286.26,628.27,285.72,630.42Z" fill="#ccc"/><rect x="268.73" y="608.66" width="4.04" height="31.86" transform="translate(-400.91 735.49) rotate(-75.94)" fill="#ccc"/><path d="M286.69,626.52c-.54,2.15-7.89,2.18-16.42,0s-15-5.62-14.47-7.77,7.89-2.19,16.43,0S287.25,624.35,286.69,626.52Z" fill="#ccc"/><path d="M286.69,626.52c-.54,2.15-7.89,2.18-16.42,0s-15-5.62-14.47-7.77,7.89-2.19,16.43,0S287.25,624.35,286.69,626.52Z" fill="#fff" opacity="0.4" style="isolation:isolate"/><path d="M284.77,625.88a.57.57,0,0,1-.25.32c-.64-1.54-6-3.93-12.76-5.63s-12.61-2.12-13.88-1a.61.61,0,0,1,0-.42c.37-1.46,6.72-1.16,14.16.71S285.13,624.4,284.77,625.88Z" fill="#ccc"/><path d="M284.77,625.88a.57.57,0,0,1-.25.32c-.64-1.54-6-3.93-12.76-5.63s-12.61-2.12-13.88-1a.61.61,0,0,1,0-.42c.37-1.46,6.72-1.16,14.16.71S285.13,624.4,284.77,625.88Z" fill="#ccc" opacity="0.4" style="isolation:isolate"/><path d="M284.52,626.29c-1.3,1.08-7.16.66-13.87-1s-12.14-4.07-12.77-5.64c1.3-1.07,7.15-.64,13.88,1S283.88,624.66,284.52,626.29Z" fill="#ccc" opacity="0.4" style="isolation:isolate"/><path d="M300.7,630.78c0,2.22-6.94,4.34-15.75,4.7s-16-1.12-16.08-3.34,6.94-4.34,15.73-4.72S300.59,628.55,300.7,630.78Z" fill="#ccc"/><rect x="268.57" y="627.38" width="31.86" height="4.04" transform="translate(-26.43 12.63) rotate(-2.43)" fill="#ccc"/><path d="M300.31,626.74c.08,2.24-6.94,4.34-15.75,4.72s-16-1.13-16.08-3.36,6.94-4.34,15.73-4.7S300.2,624.56,300.31,626.74Z" fill="#ccc"/><path d="M300.31,626.74c.08,2.24-6.94,4.34-15.75,4.72s-16-1.13-16.08-3.36,6.94-4.34,15.73-4.7S300.2,624.56,300.31,626.74Z" fill="#fff" opacity="0.4" style="isolation:isolate"/><path d="M298.28,626.67a.63.63,0,0,1-.14.4c-1.06-1.3-6.94-2.08-13.88-1.73s-12.69,1.56-13.63,3a.66.66,0,0,1-.17-.4c0-1.5,6.1-3,13.77-3.33S298.17,625.16,298.28,626.67Z" fill="#ccc"/><path d="M298.28,626.67a.63.63,0,0,1-.14.4c-1.06-1.3-6.94-2.08-13.88-1.73s-12.69,1.56-13.63,3a.66.66,0,0,1-.17-.4c0-1.5,6.1-3,13.77-3.33S298.17,625.16,298.28,626.67Z" fill="#ccc" opacity="0.4" style="isolation:isolate"/><path d="M298.17,627.07c-.95,1.41-6.68,2.66-13.63,2.95s-12.8-.47-13.87-1.73c.93-1.41,6.66-2.66,13.63-3S297.08,625.77,298.17,627.07Z" fill="#ccc" opacity="0.4" style="isolation:isolate"/><path d="M282.42,620.76c-.95,2,4.74,6.69,12.7,10.41s15.19,5.2,16.13,3.12-4.74-6.68-12.7-10.41S283.36,618.75,282.42,620.76Z" fill="#ccc"/><rect x="295.68" y="609.84" width="4.04" height="31.86" transform="translate(-395.27 629.06) rotate(-64.83)" fill="#ccc"/><path d="M284.14,617.12c-1,2,4.73,6.67,12.69,10.4s15.2,5.21,16.13,3.12-4.73-6.69-12.69-10.4S285.07,615.09,284.14,617.12Z" fill="#ccc"/><path d="M284.14,617.12c-1,2,4.73,6.67,12.69,10.4s15.2,5.21,16.13,3.12-4.73-6.69-12.69-10.4S285.07,615.09,284.14,617.12Z" fill="#fff" opacity="0.4" style="isolation:isolate"/><path d="M286,617.83a.58.58,0,0,0,0,.41c1.47-.78,7.14.75,13.44,3.72s11.12,6.34,11.45,8a.58.58,0,0,0,.29-.29c.64-1.37-4.46-5.21-11.41-8.42S286.67,616.48,286,617.83Z" fill="#ccc"/><path d="M286,617.83a.58.58,0,0,0,0,.41c1.47-.78,7.14.75,13.44,3.72s11.12,6.34,11.45,8a.58.58,0,0,0,.29-.29c.64-1.37-4.46-5.21-11.41-8.42S286.67,616.48,286,617.83Z" fill="#ccc" opacity="0.4" style="isolation:isolate"/><path d="M286,618.24c.33,1.74,5.2,5,11.43,8s12,4.51,13.46,3.71c-.33-1.65-5.2-5-11.45-8S287.48,617.46,286,618.24Z" fill="#ccc" opacity="0.4" style="isolation:isolate"/><path d="M305,227.53h-2.56v-12.4H305Z" fill="#ccc"/><path d="M318,227.53h-2.56l-5-8.16v8.16h-2.55v-12.4h2.55l5,8.18v-8.18H318Z" fill="#ccc"/><path d="M325.43,224.46l2.81-9.33h2.84l-4.31,12.4H324.1l-4.3-12.4h2.84Z" fill="#ccc"/><path d="M340.32,222.16h-4.91v3.32h5.76v2.05h-8.31v-12.4h8.29v2.07h-5.74v3h4.91Z" fill="#ccc"/><path d="M349.71,224.28a1.29,1.29,0,0,0-.51-1.11,6.52,6.52,0,0,0-1.84-.82,13.22,13.22,0,0,1-2.11-.85,3.44,3.44,0,0,1-2.11-3.07,3,3,0,0,1,.57-1.79,3.63,3.63,0,0,1,1.63-1.23,6,6,0,0,1,2.37-.45,5.57,5.57,0,0,1,2.37.48,3.86,3.86,0,0,1,1.61,1.36,3.52,3.52,0,0,1,.58,2h-2.55a1.68,1.68,0,0,0-.54-1.32,2.24,2.24,0,0,0-1.51-.47,2.36,2.36,0,0,0-1.45.39,1.26,1.26,0,0,0-.52,1.05,1.18,1.18,0,0,0,.61,1,6.88,6.88,0,0,0,1.79.77,7.59,7.59,0,0,1,3.17,1.62,3.22,3.22,0,0,1,1,2.42,3,3,0,0,1-1.22,2.52,5.32,5.32,0,0,1-3.28.92,6.29,6.29,0,0,1-2.6-.53,4,4,0,0,1-1.79-1.43,3.69,3.69,0,0,1-.62-2.11h2.56c0,1.37.82,2.05,2.45,2.05a2.38,2.38,0,0,0,1.43-.37A1.2,1.2,0,0,0,349.71,224.28Z" fill="#ccc"/><path d="M363.94,217.2h-3.8v10.33h-2.55V217.2h-3.75v-2.07h10.1Z" fill="#ccc"/><path d="M369.35,215.13l3.18,9,3.17-9h3.35v12.4h-2.56v-3.39l.25-5.85-3.34,9.24h-1.76l-3.33-9.23.25,5.84v3.39H366v-12.4Z" fill="#ccc"/><path d="M389.35,222.16h-4.9v3.32h5.75v2.05h-8.31v-12.4h8.29v2.07h-5.73v3h4.9Z" fill="#ccc"/><path d="M402.39,227.53h-2.55l-5-8.16v8.16h-2.56v-12.4h2.56l5,8.18v-8.18h2.54Z" fill="#ccc"/><path d="M414.32,217.2h-3.8v10.33H408V217.2h-3.75v-2.07h10.1Z" fill="#ccc"/><path d="M277.28,248.45h-2.55v-12.4h2.55Z" fill="#ccc"/><path d="M290.34,248.45h-2.55l-5-8.16v8.16h-2.56v-12.4h2.56l5,8.18v-8.18h2.54Z" fill="#ccc"/><path d="M299.61,245.2a1.29,1.29,0,0,0-.51-1.11,6.67,6.67,0,0,0-1.84-.82,13.45,13.45,0,0,1-2.1-.85,3.42,3.42,0,0,1-2.11-3.07,3,3,0,0,1,.56-1.79,3.63,3.63,0,0,1,1.63-1.23,6,6,0,0,1,2.38-.45,5.64,5.64,0,0,1,2.37.48,3.86,3.86,0,0,1,1.61,1.36,3.6,3.6,0,0,1,.57,2h-2.55a1.68,1.68,0,0,0-.54-1.33,2.21,2.21,0,0,0-1.5-.47,2.39,2.39,0,0,0-1.46.39,1.26,1.26,0,0,0-.52,1.05,1.18,1.18,0,0,0,.61,1,7,7,0,0,0,1.79.77,7.83,7.83,0,0,1,3.18,1.62,3.27,3.27,0,0,1,1,2.42A3,3,0,0,1,301,247.7a5.36,5.36,0,0,1-3.28.92,6.5,6.5,0,0,1-2.61-.52,4.12,4.12,0,0,1-1.79-1.44,3.69,3.69,0,0,1-.62-2.11h2.57c0,1.37.81,2,2.45,2a2.35,2.35,0,0,0,1.42-.37A1.2,1.2,0,0,0,299.61,245.2Z" fill="#ccc"/><path d="M313.89,236.05v8.17a4.19,4.19,0,0,1-1.27,3.22,5.72,5.72,0,0,1-6.92,0,4.14,4.14,0,0,1-1.31-3.16v-8.26H307v8.18a2.35,2.35,0,0,0,.58,1.78,2.25,2.25,0,0,0,1.61.56c1.44,0,2.17-.76,2.19-2.27v-8.25Z" fill="#ccc"/><path d="M321.19,243.91h-2v4.54H316.6v-12.4h4.61a5.2,5.2,0,0,1,3.38,1,3.39,3.39,0,0,1,1.2,2.77,3.88,3.88,0,0,1-.55,2.12,3.73,3.73,0,0,1-1.67,1.34l2.68,5.07v.12h-2.74Zm-2-2.07h2.06a2.11,2.11,0,0,0,1.49-.49,1.73,1.73,0,0,0,.52-1.35,1.82,1.82,0,0,0-.5-1.37,2,2,0,0,0-1.52-.51h-2Z" fill="#ccc"/><path d="M335.34,245.89h-4.48l-.85,2.56h-2.72l4.62-12.4h2.36l4.64,12.4H336.2Zm-3.79-2.06h3.1l-1.56-4.64Z" fill="#ccc"/><path d="M350.76,248.45h-2.55l-5-8.16v8.16h-2.56v-12.4h2.56l5,8.18v-8.18h2.54Z" fill="#ccc"/><path d="M363.34,244.32a4.41,4.41,0,0,1-1.48,3.15,5.17,5.17,0,0,1-3.51,1.15A4.67,4.67,0,0,1,354.6,247a6.57,6.57,0,0,1-1.37-4.4v-.76a7.44,7.44,0,0,1,.63-3.15,4.74,4.74,0,0,1,1.8-2.09,5.62,5.62,0,0,1,6.18.42,4.73,4.73,0,0,1,1.51,3.23H360.8a2.59,2.59,0,0,0-.67-1.74,2.48,2.48,0,0,0-1.75-.54,2.16,2.16,0,0,0-1.91.91,5.15,5.15,0,0,0-.65,2.84v.94a5.46,5.46,0,0,0,.61,2.94,2.13,2.13,0,0,0,1.92.92,2.51,2.51,0,0,0,1.76-.54,2.43,2.43,0,0,0,.67-1.67Z" fill="#ccc"/><path d="M373.08,243.08h-4.9v3.32h5.75v2h-8.31v-12.4h8.3v2.07h-5.74v3h4.9Z" fill="#ccc"/><path d="M382.94,244.08v4.37h-2.55v-12.4h4.83a5.5,5.5,0,0,1,2.46.52,3.77,3.77,0,0,1,1.63,1.45,4,4,0,0,1,.57,2.14,3.56,3.56,0,0,1-1.25,2.87,5.19,5.19,0,0,1-3.45,1.05Zm0-2.07h2.28a2.3,2.3,0,0,0,1.55-.47,1.76,1.76,0,0,0,.53-1.37,2.05,2.05,0,0,0-.54-1.47,2,2,0,0,0-1.48-.58h-2.34Z" fill="#ccc"/><path d="M402.42,242.53a7.51,7.51,0,0,1-.64,3.21,4.88,4.88,0,0,1-1.85,2.13,5.16,5.16,0,0,1-2.77.75,5.22,5.22,0,0,1-2.75-.74,5,5,0,0,1-1.87-2.12,7.2,7.2,0,0,1-.67-3.16V242a7.41,7.41,0,0,1,.66-3.22,4.94,4.94,0,0,1,1.86-2.14,5.44,5.44,0,0,1,5.51,0,5,5,0,0,1,1.87,2.14,7.54,7.54,0,0,1,.65,3.21Zm-2.58-.56a5.24,5.24,0,0,0-.7-3,2.47,2.47,0,0,0-4,0,5.13,5.13,0,0,0-.7,2.93v.6a5.25,5.25,0,0,0,.7,2.95,2.45,2.45,0,0,0,4,0,5.33,5.33,0,0,0,.7-3Z" fill="#ccc"/><path d="M407.45,246.4h5.42v2h-8v-12.4h2.56Z" fill="#ccc"/><path d="M417.66,248.45h-2.55v-12.4h2.55Z" fill="#ccc"/><path d="M430.37,244.32a4.41,4.41,0,0,1-1.48,3.15,5.14,5.14,0,0,1-3.51,1.15,4.67,4.67,0,0,1-3.75-1.61,6.56,6.56,0,0,1-1.36-4.4v-.76a7.44,7.44,0,0,1,.63-3.15,4.74,4.74,0,0,1,1.8-2.09,5.61,5.61,0,0,1,6.17.42,4.73,4.73,0,0,1,1.52,3.23h-2.55a2.64,2.64,0,0,0-.67-1.74,2.49,2.49,0,0,0-1.75-.54,2.16,2.16,0,0,0-1.91.91,5.07,5.07,0,0,0-.65,2.84v.94a5.57,5.57,0,0,0,.6,2.94,2.15,2.15,0,0,0,1.92.92,2.53,2.53,0,0,0,1.77-.54,2.43,2.43,0,0,0,.67-1.67Z" fill="#ccc"/><path d="M436.93,241.64l2.58-5.59h2.8l-4.07,7.9v4.5h-2.6V244l-4.07-7.9h2.8Z" fill="#ccc"/><path d="M380.26,563h0a19.47,19.47,0,0,1,19.46-19.47h10.52A19.47,19.47,0,0,1,429.7,563h-5.52A14.21,14.21,0,0,0,410,548.78H399.72A14.2,14.2,0,0,0,385.52,563h-5.26Z" fill="#2f2e41"/><path d="M380.26,563h0a19.47,19.47,0,0,1,19.46-19.47h10.52A19.47,19.47,0,0,1,429.7,563h-5.52A14.21,14.21,0,0,0,410,548.78H399.72A14.2,14.2,0,0,0,385.52,563h-5.26Z" opacity="0.2"/><path d="M351.67,560.63H459.55a23.56,23.56,0,0,1,23.56,23.56v66a22.43,22.43,0,0,1-22.43,22.43H351.54a22.43,22.43,0,0,1-22.43-22.43v-67A22.56,22.56,0,0,1,351.67,560.63Z" fill="#2f2e41"/><path d="M351.67,560.63H459.55a23.56,23.56,0,0,1,23.56,23.56v66a22.43,22.43,0,0,1-22.43,22.43H351.54a22.43,22.43,0,0,1-22.43-22.43v-67A22.56,22.56,0,0,1,351.67,560.63Z" opacity="0.2"/><path d="M351,560.63H460.19a22.92,22.92,0,0,1,22.92,22.92v22.73a0,0,0,0,1,0,0h-154a0,0,0,0,1,0,0V582.54A21.91,21.91,0,0,1,351,560.63Z" opacity="0.2"/><path d="M406.69,614h-1.84a11.22,11.22,0,0,1-11.21-11.21V589h1.11v13.81a10.11,10.11,0,0,0,10.1,10.09h1.84a10.11,10.11,0,0,0,10.09-10.09V589.28h1.11v13.55A11.22,11.22,0,0,1,406.69,614Z" fill="#ccc"/><path d="M420,623.77a.56.56,0,0,1-.56-.56V612.16a13.65,13.65,0,0,0-27.29,0v11.05a.56.56,0,1,1-1.11,0V612.16a14.76,14.76,0,0,1,29.51,0v11.05A.56.56,0,0,1,420,623.77Z" fill="#ccc"/><rect x="391.97" y="539.94" width="26.08" height="14.09" rx="2.12" fill="#2f2e41"/></svg>