<svg id="bcd58659-dc88-4148-b73f-ad74cc301b0d" data-name="f80dd19b-25f4-4d30-83fb-b3508430d84a" xmlns="http://www.w3.org/2000/svg" width="865.76" height="682.89" viewBox="0 0 865.76 682.89"><polygon points="557.96 408.86 541.27 455.02 530.96 454.53 541.27 408.37 557.96 408.86" fill="#273956"/><polygon points="583.5 454.04 593.81 410.34 615.42 410.83 594.3 455.02 583.5 454.04" fill="#273956"/><polygon points="689.07 454.04 670.41 409.36 689.07 409.36 700.86 453.55 689.07 454.04" fill="#273956"/><polygon points="741.62 454.53 722.47 406.41 740.14 406.41 752.42 453.55 741.62 454.53" fill="#273956"/><path d="M571.84,322.19l12.43-44.37a10.87,10.87,0,0,1,10.65-7.95L757,272.36,718.17,412.92,550.34,414Z" fill="#273956"/><path d="M533.56,322.71l74-.52s13.11-1.05,15.73,13.63L634,369.24l-74.74.67-10-35.66S548.24,325.33,533.56,322.71Z" fill="#4b83a8"/><path d="M701.91,322.19l24.65,1.05s12.07-.53,15.21-18.88l3.9-18.17a19.79,19.79,0,0,1,7.51-11.93c4.59-3.34,11.67-5.31,21.64.2,0,0,16.25,10.49,11.53,29.37l-24.29,91.1a25.31,25.31,0,0,1-3.78,8.14l-.14.19a25.66,25.66,0,0,1-21.31,10.56l-49.6-.9Z" fill="#4b83a8"/><path d="M533.56,322.71s-25.7-6.82-23.6,8.92l17.3,68.18s3.15,13.64,15.21,13.64l144.76-.53s11.54-.52,13.11-15.73L715,342.12s5.76-16.79-13.12-19.93H683.56s-9.44-.53-13.64,18.88l-6.82,27.8-103.84,1-10-35.66S548.77,325.33,533.56,322.71Z" fill="#4b83a8"/><path d="M533.56,322.71s-25.7-6.82-23.6,8.92l17.3,68.18s3.15,13.64,15.21,13.64l144.76-.53s11.54-.52,13.11-15.73L715,342.12s5.76-16.79-13.12-19.93H683.56s-9.44-.53-13.64,18.88l-6.82,27.8-103.84,1-10-35.66S548.77,325.33,533.56,322.71Z" opacity="0.2" style="isolation:isolate"/><rect x="556.78" y="368.77" width="108.57" height="26.22" rx="6.4" fill="#273956"/><rect x="556.78" y="368.77" width="108.57" height="26.22" rx="6.4" opacity="0.2" style="isolation:isolate"/><rect x="565.69" y="368.92" width="108.57" height="26.6" rx="6.4" fill="#273956"/><rect x="310.03" y="75.1" width="155.28" height="338.98" fill="#273956"/><rect x="310.03" y="75.1" width="155.28" height="338.98" opacity="0.2" style="isolation:isolate"/><rect x="326.22" y="95.25" width="54.9" height="123.54" fill="#fff"/><rect x="393.32" y="96.01" width="54.9" height="123.54" fill="#fff"/><polyline points="330.79 214.21 330.79 102.11 373.5 102.11" fill="none" stroke="#273956" stroke-miterlimit="10"/><polyline points="397.9 214.97 397.9 101.35 442.89 101.35" fill="none" stroke="#273956" stroke-miterlimit="10"/><rect x="326.98" y="269.88" width="54.9" height="123.54" fill="#fff"/><rect x="394.09" y="270.64" width="54.9" height="123.54" fill="#fff"/><polyline points="331.56 388.84 331.56 276.74 374.26 276.74" fill="none" stroke="#273956" stroke-miterlimit="10"/><polyline points="398.66 389.6 398.66 275.98 443.65 275.98" fill="none" stroke="#273956" stroke-miterlimit="10"/><rect x="326.22" y="237.2" width="54.9" height="17.64" fill="#fff"/><rect x="393.32" y="236.31" width="54.9" height="17.64" fill="#fff"/><polyline points="282.55 12.76 282.55 413.7 742.93 413.7" fill="none" stroke="#273956" stroke-miterlimit="10"/><line x1="86.51" y1="461.76" x2="282.55" y2="413.7" fill="none" stroke="#273956" stroke-miterlimit="10"/><polygon points="78.55 128.24 257.2 85.75 257.78 264.41 79.13 308.63 78.55 128.24" fill="#273956"/><polygon points="91.94 136.97 161.18 120.67 161.18 276.63 91.94 295.25 91.94 136.97" fill="#fff"/><polygon points="173.99 116.6 243.24 100.3 244.4 256.26 173.99 274.88 173.99 116.6" fill="#fff"/><polygon points="128.01 143.95 138.49 142.2 111.72 245.78 101.83 246.95 128.01 143.95" fill="#273956" opacity="0.1" style="isolation:isolate"/><polygon points="123.94 226.58 139.07 167.22 148.96 166.64 134.42 226 123.94 226.58" fill="#273956" opacity="0.1" style="isolation:isolate"/><polygon points="205.99 167.81 225.2 163.15 207.16 235.89 187.37 237.06 205.99 167.81" fill="#273956" opacity="0.1" style="isolation:isolate"/><path d="M579.47,552.86c18.09,10.08,32.58,5.07,32.58,5.07,8.84-3.47,10.54-8.15,10.18-11.79a9.31,9.31,0,0,0-4.61-7c-53.88-31.79-119.95-29-119.95-29-118,0-155.64,54.29-155.64,54.29l-53.57-2.17,64.43,38.37,76-32.58-41.27-1.45s35.48-33.3,102.08-33.3C489.71,533.31,541.83,531.86,579.47,552.86Z" fill="#d3e9f4"/><path d="M401.48,627.36c-18.08-10.09-32.57-5.07-32.57-5.07-8.85,3.46-10.54,8.15-10.19,11.78a9.31,9.31,0,0,0,4.61,7c53.88,31.78,120,29,120,29,118,0,155.65-54.29,155.65-54.29L692.5,618l-64.43-38.37-76,32.58,41.26,1.44S557.86,647,491.26,647C491.25,646.9,439.13,648.35,401.48,627.36Z" fill="#d3e9f4"/><path d="M542.73,610.94s3.57,2-.15,4.29a45.31,45.31,0,0,1-24.28-.86L503.44,608a9.3,9.3,0,0,0-2.64-.71c-3.21-.38-11.5-2-8.56-9.15Z" fill="#273956"/><rect x="493.72" y="575.66" width="17.43" height="17.71" fill="#ffcdc6"/><path d="M429.14,610.37s-3.57,2,.14,4.29a45.35,45.35,0,0,0,24.29-.86l14.86-6.39a9.6,9.6,0,0,1,2.63-.72c3.22-.37,11.51-2,8.56-9.15Z" fill="#273956"/><rect x="460.71" y="575.08" width="17.43" height="17.71" fill="#ffcdc6"/><path d="M440.57,370.29l16.7,206.84a3.49,3.49,0,0,0,3.54,3.21l18.46-.3a3.48,3.48,0,0,0,3.43-3.37l5.95-172,2.83.41-1.2,172.69A2.24,2.24,0,0,0,492.5,580h20.27a2.23,2.23,0,0,0,2.23-2c2.63-18.32,23-163.1,18.51-213.4l-13.74-25.05L441,361Z" fill="#273956"/><path d="M464.18,159.55s-13.05,16.14,10,42.57L475.61,180s-.79-14.64,3-16.36l-4.46-8.24Z" fill="#273956"/><path d="M464.18,159.55s-13.05,16.14,10,42.57L475.61,180s-.79-14.64,3-16.36l-4.46-8.24Z" opacity="0.2" style="isolation:isolate"/><ellipse cx="471.73" cy="181.02" rx="4.01" ry="6.55" transform="translate(-30.07 121.95) rotate(-14.28)" fill="#ffcdc6"/><path d="M473.22,185.78l1.06,30.8,13.07,14.58s3.22,7.07,4.29,8.78v-9.86a12.5,12.5,0,0,0,5.78-10.71v-15Z" fill="#ffcdc6"/><path d="M497.28,205.85v10.73s-18.85-3.66-18.64-18.66Z" fill="#f7a79e"/><ellipse cx="493.76" cy="175.92" rx="21.3" ry="33.14" fill="#ffcdc6"/><polygon points="478.14 245.08 487.35 231.16 474.28 216.58 463.35 218.51 478.14 245.08" fill="#686175" data-primary="true"/><path d="M460.35,219.16l3-.65,14.79,26.57,9.21-13.92,4.29,8.78v-9.86l7.71,9.65s4.95-14.26,4.29-21.43l2.14,1.28s-2.4,56.81-3,67.95c0,0-3.27,49.7-3,72.55,0,0-15.38.66-19.66-1.62,0,0,8-37.95,5.41-48.8l-9.89-6.13S479.85,261.37,460.35,219.16Z" fill="#e6e7e8"/><path d="M499,359.94s-3.53,12.39,6,12.66c0,0,16.28-2.44,26-1.63,0,0,9.76,3,5.42-19.8,0,0-9.76-46.65-6.51-72.42,0,0,13.3,18.45,50.18,22.51,0,0,7.33,1.36,9.23-13.29,0,0,6.51-44.75,4.61-68.35a32.5,32.5,0,0,1-22.52,2.44L566,263.83l-36.9-34.72a29.7,29.7,0,0,0-13.89-5.87L507.4,242.4,500.82,302S499,338.33,499,359.94Z" fill="#686175" data-primary="true"/><polygon points="491.64 239.94 496.55 236.98 491.64 230.08 491.64 239.94" fill="#686175" data-primary="true"/><polygon points="491.64 239.94 496.55 236.98 491.64 230.08 491.64 239.94" fill="#fff" opacity="0.5" style="isolation:isolate"/><polygon points="483.26 237.25 491.64 239.94 487.35 231.16 483.26 237.25" fill="#686175" data-primary="true"/><polygon points="483.26 237.25 491.64 239.94 487.35 231.16 483.26 237.25" fill="#fff" opacity="0.5" style="isolation:isolate"/><polygon points="487.87 245.39 481.09 240.51 483.26 237.25 491.64 239.94 496.55 236.98 498.72 238.88 494.93 243.76 502.52 285.53 499.81 321.88 495.74 332.46 479.74 303.16 487.87 245.39" fill="#4b83a8"/><path d="M530.46,229.66a162.4,162.4,0,0,1-.27,40.14" opacity="0.2" style="isolation:isolate"/><path d="M572.77,222.6,573,218l17.9-2.17-.27,4.89S585,224.5,572.77,222.6Z" fill="#f48225" data-secondary="true"/><polygon points="493.84 299.09 496.82 298.01 497.37 317 493.3 317.54 493.84 299.09" fill="#f48225" data-secondary="true"/><path d="M573.58,218.08a5.72,5.72,0,0,0,0-3.61s-7.22-7.05-2.63-11.81c0,0-1.64-5.42,1.81-9l14-17.92a2.1,2.1,0,0,1,2.9-.39h0a2.09,2.09,0,0,1,.6,2.69L582,193.3s6.23-3.11,6.72,2.63c0,0,2.79.16,3,2.3,0,0,3.94-1.32,2.46,3,0,0-3,10.17-5.09,12.14L588.6,216Z" fill="#ffcdc6"/><path d="M571,202.66s-.82-3.12,3-4.43a21.35,21.35,0,0,0,8-4.93s1.31,1-.82,3.45A78.17,78.17,0,0,1,571,202.66Z" fill="#f7a79e"/><path d="M588.67,195.93s-2.13,6.23-5.08,9.19c0,0-2.79,2.13-3.28-1" fill="none" stroke="#f7a79e" stroke-miterlimit="10"/><path d="M583.59,205.12s.49,4.1,3.77,1.31a13.92,13.92,0,0,0,4.27-8.2" fill="none" stroke="#f7a79e" stroke-miterlimit="10"/><path d="M586.71,206.66s1.14,4.28,4.57,2.14" fill="none" stroke="#f7a79e" stroke-miterlimit="10"/><path d="M430.71,611.37s-4.71-1.43,1.43-4.29c0,0,12-3.71,18.28-10.28l5.54-5.33a13.74,13.74,0,0,0,2.44-3.27c1.1-2,4.3-4.87,13.31-1.83a3.66,3.66,0,0,1,1.38,1.61,1.53,1.53,0,0,0,.79,1c.83.37,2.3.59,4.12-1,0,0,2.14-1.28,1.85,3.57l-.23,6a2.56,2.56,0,0,1-1.26,2.11c-4.75,2.75-22.3,12.55-32.36,13.29C446,612.94,435.14,614.08,430.71,611.37Z" fill="#686175" data-primary="true"/><path d="M447.6,599.32s6.87,3.59,12.42-1l11.69-12s-10.1-4-13.31,1.83a14.29,14.29,0,0,1-2.95,3.79C453.64,593.7,449.37,598,447.6,599.32Z" opacity="0.2" style="isolation:isolate"/><path d="M541.16,611.94s4.71-1.43-1.43-4.28c0,0-12-3.72-18.29-10.29l-5.54-5.32a14.16,14.16,0,0,1-2.44-3.27c-1.1-2-4.3-4.87-13.3-1.84,0,0-1.58,1-1.43,2.15,0,0-2,2-4.86-.58,0,0-2.14-1.28-1.86,3.58l.23,6a2.53,2.53,0,0,0,1.27,2.1c4.74,2.75,22.29,12.56,32.36,13.29C525.87,613.51,536.73,614.66,541.16,611.94Z" fill="#686175" data-primary="true"/><path d="M524.27,599.85s-6.88,3.64-12.42-1l-11.69-12s9.37-4.46,13.3,1.84C513.46,588.78,516.44,593.55,524.27,599.85Z" opacity="0.2" style="isolation:isolate"/><path d="M461.64,172.48h17v9h-17a3.38,3.38,0,0,1-3.38-3.38h0v-2.2a3.38,3.38,0,0,1,3.34-3.42Z" fill="#f48225" data-secondary="true"/><path d="M483.64,165.58h14.72v20.85H483.64a6.28,6.28,0,0,1-6.28-6.28v-8.29a6.28,6.28,0,0,1,6.28-6.28Z" fill="#686175" data-primary="true"/><path d="M491,165.57h13.7v21H491a5.25,5.25,0,0,1-5.25-5.25h0v-10.5A5.25,5.25,0,0,1,491,165.57Z" fill="#f48225" data-secondary="true"/><path d="M495.35,165.57h28.71a4.55,4.55,0,0,1,4.55,4.55v12a4.55,4.55,0,0,1-4.55,4.55H495.35a6.39,6.39,0,0,1-6.39-6.39h0V172a6.39,6.39,0,0,1,6.39-6.39h0Z" fill="#686175" data-primary="true"/><path d="M498.58,167H522a4.55,4.55,0,0,1,4.55,4.55v8.67a4.55,4.55,0,0,1-4.55,4.55H498.58a6.39,6.39,0,0,1-6.39-6.39h0v-5a6.39,6.39,0,0,1,6.39-6.39h0Z" fill="#fff"/><path d="M496.45,184.37,501.59,167h3.23l-5.28,18A9.61,9.61,0,0,1,496.45,184.37Z" fill="#686175" data-primary="true" opacity="0.11" style="isolation:isolate"/><polygon points="504.53 184.81 509.96 166.9 519.95 167.04 515.4 184.67 504.53 184.81" fill="#686175" data-primary="true" opacity="0.11" style="isolation:isolate"/><path d="M464.18,159.55s-6.87-5.84-.34-8.92L481.09,143a28.92,28.92,0,0,1,13.25-2.52,23.66,23.66,0,0,1,14.47,5.66,14.33,14.33,0,0,1,5.84,11.67s-5.93-5.15-13.92-.28a33.8,33.8,0,0,1-4.57,2.32C489.29,162.76,475.29,166.79,464.18,159.55Z" fill="#273956"/><path d="M489.59,162s6.29,2.4,15.23-.36a15.13,15.13,0,0,1,6.78-.59,10.31,10.31,0,0,1,1.23.25,2,2,0,0,0,1.91-3.33l-.09-.09a11.82,11.82,0,0,0-13.93-.43A38.74,38.74,0,0,1,489.59,162Z" fill="#273956"/><path d="M489.59,162s6.29,2.4,15.23-.36a15.13,15.13,0,0,1,6.78-.59,10.31,10.31,0,0,1,1.23.25,2,2,0,0,0,1.91-3.33l-.09-.09a11.82,11.82,0,0,0-13.93-.43A38.74,38.74,0,0,1,489.59,162Z" opacity="0.2" style="isolation:isolate"/><path d="M505.78,219.58l9.43,3.66,3.49,23.33s.65,4.79-2.83,12.42l-15.05,43Z" fill="#f48225" data-secondary="true"/><path d="M491.64,230.08a31.81,31.81,0,0,0,4.64,6.7,34.19,34.19,0,0,0,3.07,2.95,79,79,0,0,0,2.39-7.66c1.15-4.34,2.22-9.7,1.9-13.77l-6.22-1.78S498,226.32,491.64,230.08Z" fill="#686175" data-primary="true"/><path d="M453.6,223.23a108.71,108.71,0,0,0-22.26,10.93s12,97.88,8.09,127.32c0,0-2.94,13,3.68,13.49,0,0,36.8.73,39-13l.59-4s4.84-30.44,2.86-48.28L456.11,224.6Z" fill="#686175" data-primary="true"/><path d="M445.14,295l.64,12.86s25.15-11.22,34.36-11.86c0,0,2.37,4.24,2.59,6.38,0,0-26.45,3.34-40.16,11.69Z" opacity="0.2" style="isolation:isolate"/><path d="M439.83,349.49l.25,5.19s39.27-21,45.69-25.69l.5-6.18-24.7,14.82S444.28,349,439.83,349.49Z" opacity="0.2" style="isolation:isolate"/><path d="M460.35,219.16l-6.75,4.07a109.58,109.58,0,0,1,3.19,26.38,54.79,54.79,0,0,1-.71,7,9.93,9.93,0,0,0,2,7.88,45.37,45.37,0,0,1,3.79,5.06c4.49,7.24,17.24,22.61,20.63,31.32C482.5,300.88,478.85,259.23,460.35,219.16Z" fill="#f48225" data-secondary="true"/><path d="M431.34,234.16c-11.06-.22-17.06,28.92-17.06,28.92s-13.28,82.72-3,87.86c0,0,2.11,7.25,20.78,1.72a80.09,80.09,0,0,0,18.52-8.27l43-26V298.23s-40.72,7.71-51,15.85C442.57,314.08,455.71,234.65,431.34,234.16Z" fill="#686175" data-primary="true"/><path d="M514.76,291.67c2.09-.25,5.83-1.14,6.18-4.29a1.74,1.74,0,0,0-.37-1.35c-.8-.91-3.22-1.77-10.46,1.94,0,0-8.68,5.43-11.66,12.21l-1.36.54.28,14.11a14.71,14.71,0,0,1,9.22-.55s11.66.82,11.93-6.24c0,0,3.26-1.89,1.9-6.78,0,0,2.17-1.08.54-4.88,0,0,2.38-3.24-.78-3.74a4,4,0,0,0-2.3.36l-4.7,2.17a2.33,2.33,0,0,1-2.06,0c-.66-.34-1-1,.62-2.3A6,6,0,0,1,514.76,291.67Z" fill="#ffcdc6"/><path d="M521,296.38a5.43,5.43,0,0,1-1.19,2.15,8.75,8.75,0,0,1-1.86,1.63,9.1,9.1,0,0,1-4.63,1.49c.71-.42,1.41-.76,2.1-1.14s1.34-.77,2-1.19A20.6,20.6,0,0,0,521,296.38Z" fill="#f7a79e"/><path d="M520.42,301.26a6.61,6.61,0,0,1-1.31,1.58,12,12,0,0,1-1.61,1.23,9.47,9.47,0,0,1-3.79,1.44,15.74,15.74,0,0,1,1.61-1.21l1.64-1.08C518.08,302.54,519.18,301.86,520.42,301.26Z" fill="#f7a79e"/><path d="M518.52,308a5,5,0,0,1-1.37,1,8,8,0,0,1-1.55.56,7.13,7.13,0,0,1-3.28.13,9.12,9.12,0,0,1,1.51-.64c.51-.18,1-.32,1.52-.45A19.05,19.05,0,0,1,518.52,308Z" fill="#f7a79e"/><path d="M578,213.16c1.8-3.28,0-4.43,0-4.43-1.48-2.63,1.8-4.6,1.8-4.6,4.26-3.23,4.65-5.74,4.19-7.31a1.4,1.4,0,0,0-1.77-.89,1.37,1.37,0,0,0-.53.32c-3,2.79-10.75,6.41-10.75,6.41" fill="none" stroke="#f7a79e" stroke-miterlimit="10"/><rect x="540.6" y="25.9" width="224.18" height="166.94" rx="14.95" fill="#fff" stroke="#273956" stroke-miterlimit="10" stroke-width="2" opacity="0.54" style="isolation:isolate"/><rect x="558.88" y="41.8" width="186.02" height="135.94" rx="14.95" fill="#ddeef8" opacity="0.54" style="isolation:isolate"/><path d="M557.29,139.58l63.54-61.35a7.89,7.89,0,0,1,11.1.16l28.39,29a8.55,8.55,0,0,0,12,.23l3-2.81a8.52,8.52,0,0,1,11.9.18l57.68,58s.8,13.91-14.7,14.71H573.59S560.47,179.3,558.88,163Z" fill="#d3e9f4" opacity="0.54" style="isolation:isolate"/><circle cx="689.26" cy="74.4" r="13.51" fill="#d3e9f4"/><circle cx="583.93" cy="124.88" r="36.97" fill="#fff"/><path d="M583.93,162.84a38,38,0,1,1,38-38h0A38,38,0,0,1,583.93,162.84Zm0-73.93a36,36,0,1,0,36,36A36,36,0,0,0,583.93,88.91Z" fill="#f48225" data-secondary="true"/><path d="M570.81,136.62V113.55a2.74,2.74,0,0,1,3.84-2.53l24.22,10.38a2.75,2.75,0,0,1,.19,5l-24.22,12.69a2.74,2.74,0,0,1-3.71-1.15A2.66,2.66,0,0,1,570.81,136.62Z" fill="#686175" data-primary="true"/><path d="M214,584.63l-1.55,3.63s3.37,1.29,3.89,6a7,7,0,0,0,8.55,1,21.88,21.88,0,0,1,5.19-7.78Z" fill="#ffcdc6"/><path d="M205.42,602.26s-4.67-15.3,7-14c0,0,2.6-.24,3.74,5.17a2.53,2.53,0,0,0,1,1.53,6.73,6.73,0,0,0,7,.68,1.76,1.76,0,0,0,1-1c.72-2.12,3.62-8.25,11.47-1.93,0,0,6,7.77,20.74,14.52,0,0,15.3,7.52,3.63,11.41,0,0-14,4.66-32.15-.52l-14.52-3.63s-10.24-.22-11.15-5.25a4,4,0,0,1,.33-2.26Z" fill="#f48225" data-secondary="true"/><path d="M205.42,602.26a18.87,18.87,0,0,1,11.5,2.88,14.79,14.79,0,0,0,1.59,1c4.35,2.42,23.62,12.32,40.06,7.52,0,0-4.9,6.86-23.26,2a22,22,0,0,1-2.82-1c-4.51-2-20.81-8.64-29.08-7.77Z" fill="#273956"/><path d="M127.11,578.66l-3.37,15.82a8.67,8.67,0,0,1,3.63,6.74s2.33-9.59,14-7.26L146,574.52Z" fill="#ffcdc6"/><path d="M115.12,607.73l2.91-7.29s.78-10.11,5.71-6c0,0,3.32,1.8,3.63,6.74,0,0,2.59-10.63,14-7.26,0,0,4.81,1.1,4.39,8.7a9.49,9.49,0,0,0,.88,4.63c2.26,4.78,7.51,15.38,12.06,20.77a12.05,12.05,0,0,1,2.9,6.45c.36,3.41-.69,7.42-7.52,7.42,0,0-12.19,1.3-24.38-12.44,0,0-10.69-11.32-14.35-17.94A4.43,4.43,0,0,1,115.12,607.73Z" fill="#f48225" data-secondary="true"/><path d="M115.85,605.92s7.11-.81,9.7,8.53c0,0,4.93,14.26,25.93,25.41,0,0-9.2,0-19.5-11.48a31.23,31.23,0,0,1-2.37-3c-2.61-3.7-10.27-14.85-14.76-16.56a4.23,4.23,0,0,1,.13-.71,9,9,0,0,1,.44-1.12C115.53,606.74,115.68,606.37,115.85,605.92Z" fill="#273956"/><path d="M172.43,353.68s-15.35,66.65-21,108.2c0,0-1.87,16.48-9.73,30.33,0,0-42.68,63.65-33.7,77.87a61.85,61.85,0,0,0,47.18,16.85s4.11.37,9.36-10.48c0,0,47.92-113.82,53.53-144.89L238,469.75s4.49,4.86-2.25,24c0,0-32.95,86.86-24.71,90.6,0,0,44.18,14.6,48.67,1.87L277.31,511s13.48-48.67,5.61-66.64c0,0-30.29-67.45-33.12-92.51l-45.5-17.94Z" fill="#273956"/><polygon points="228.21 393 218.1 431.56 231.21 456.64 228.21 393" opacity="0.2" style="isolation:isolate"/><path d="M182.61,376.12l-11,78.6s-3.89,30.34-15.56,50.56L122.18,571.4" fill="none" stroke="#fff" stroke-miterlimit="10" stroke-width="0.5"/><path d="M225.25,579.31s1.56-24.11,7.78-42.39l18.28-52.51s5.06-10.5-.78-23.72L235,424.52" fill="none" stroke="#fff" stroke-miterlimit="10" stroke-width="0.5"/><path d="M169.89,365.27s12.45-7.52,36.56-5.19L250.53,358l-.78-6.23S175,360,172.43,353.68Z" opacity="0.2" style="isolation:isolate"/><path d="M136.18,323.2s1.75-11.09,6.81-17.31l9.53,7.26-.58,7.52Z" fill="#f7a79e"/><path d="M184.61,243.85s.39-2.52,3.69-2.52c0,0,1.75,0,1.75,2.51l34.81-3.29s1.95-3.7,4.67-.39a10.6,10.6,0,0,1,.58,3.3s15,2.79,27.42,9.27l30.08,17.64a87.59,87.59,0,0,1-13.22,34.48c-2.81-1.16-5.63-2.37-8.49-3.6-4.61-2-9.92-4.31-12.77-5.73,0,0,1.29,11.67-3.63,18.67,0,0-1.56,3.37,1,10.37,0,0,11.41,22.82-.78,27.22,0,0-63.26,7.26-75.71,2.86,0,0-5.66-2.18-2.61-8.74a11.39,11.39,0,0,0,1.12-5.13c0-1.22-.14-2.43-.3-3.64a17.6,17.6,0,0,0-5.32-10.22l-14.41-13.76-20-7S141.76,262.2,184.61,243.85Z" fill="#f48225" data-secondary="true"/><path d="M190.05,243.84l6.94-4.46s5.25-3.69,1.36-5.9a39.1,39.1,0,0,1-2.85-11.41l25.67,13.42,1.75.2,1.94,4.86S212.22,263.27,190.05,243.84Z" fill="#ffcdc6"/><path d="M224.86,240.55l-2.53-6.36L195.69,222l-.39,8.49,4.09,4.47S210.67,244.37,224.86,240.55Z" fill="#f7a79e"/><path d="M184.61,243.85l-2.79,1.24s8.43,15,23.6,16.46c0,0,16.59,2.72,26.05-17.76l-1.36-.33s-4.34,11.74-15.62,13.94C214.49,257.4,196.21,263.11,184.61,243.85Z" opacity="0.2" style="isolation:isolate"/><path d="M253.13,295.52l-5.45-13.75s14.26,17.9,17.37,19.19Z" opacity="0.2" style="isolation:isolate"/><path d="M233.94,315s11.67,1.3,15.56-.77a8.71,8.71,0,0,0-.33,4.24S239,318,233.94,315Z" opacity="0.2" style="isolation:isolate"/><path d="M152.52,313.15s28.78-18.67,31.37-29.3c0,0-4.14,28.78,23.6,31.89,0,0-16.59,0-20.74,8.82l-14,17.11a40.49,40.49,0,0,0-.61-5.27,17.69,17.69,0,0,0-5.2-9.49Z" opacity="0.2" style="isolation:isolate"/><path d="M278.35,298.37s23.84,13.95,33.51.23c0,0,14.63-18.67,14.4-62.31,0,0,12.37-8.32,22.5-29.92,0,0,3.82-8.1-1.58-3.82,0,0,4.95-6.53,1.8-8.33,0,0-1.89-1.72-4.93,3.58a42.61,42.61,0,0,1-4.16,6.07l-1.71,2s9-14.62,7-16.42c0,0-1.8-2.47-5.18,4.72L336.67,199a.38.38,0,0,1-.53.08.39.39,0,0,1-.14-.41c1.18-3.51,2.83-9.26,1.28-9.88,0,0-2-1.8-4.95,4.94l-7.63,15.49a1.77,1.77,0,0,1-2,1c-.68-.17-1.18-.73-.51-2.3,0,0,5.4-7.88,3.83-12.83,0,0-1.58-4.5-3.83,1.35a98.26,98.26,0,0,1-5.62,8.78s-4.95,4.72-4.5,27.44L295,273.18l-7.38-2.81S286.45,282.63,278.35,298.37Z" fill="#ffcdc6"/><path d="M295,273.18a21.71,21.71,0,0,0,3.15,11.7" fill="none" stroke="#f7a79e" stroke-miterlimit="10"/><polyline points="327.84 224.14 324.91 211.32 329.86 217.17" fill="none" stroke="#f7a79e" stroke-miterlimit="10"/><path d="M239.53,208a36.85,36.85,0,0,1-3.25,15.34c-4.08,8.84-11.57,14.77-20.14,14.77-12.92,0-23.41-13.48-23.41-30.11,0-15.81,9.49-28.79,21.53-30a16.79,16.79,0,0,1,1.88-.1C229.06,177.86,239.53,191.34,239.53,208Z" fill="#ffcdc6"/><path d="M236.28,223.31A36.72,36.72,0,0,0,239.53,208c0-16.63-10.47-30.11-23.39-30.11a16.79,16.79,0,0,0-1.88.1l-.09-.19s-15.11,2.65-12.73-5.51c0,0,11.29-9.6,22.67,1.16,0,0,15.32,8.89,17,37.46C241.08,210.88,250.12,224.43,236.28,223.31Z" fill="#273956"/><path d="M179.86,212.69c-2.85,2.49-7.27,8.05-5.86,17.93a3.11,3.11,0,0,0,1.48,2.26,8,8,0,0,0,5.57,1s6.21,3.31,11.18,3.51c0,0,1,1.45,6,.83,0,0,3-2.06,1.29-4.16a12.75,12.75,0,0,1-2.34-3.91,42.22,42.22,0,0,1-1.49-8.12,8.45,8.45,0,0,1-1-7.2s2.49-6.21,2.07-10.14c0,0,17.18-18.63,17.39-25.87,0,0,2.48-7-9.31-5.59a3.1,3.1,0,0,1-3.42-1,8.46,8.46,0,0,0-6.92-2.3c-5,.56-12.08,3.78-14.81,16.69a15.43,15.43,0,0,0-.31,3.25,103.42,103.42,0,0,0,2,18.14A4.85,4.85,0,0,1,179.86,212.69Z" fill="#273956"/><path d="M180.11,201.25c4.33-.39,18.55-1.84,18.55-1.84l.19,9.3-18.3.72a1.27,1.27,0,0,1-1.33-1.21h0l-.27-5.64A1.28,1.28,0,0,1,180.11,201.25Z" fill="#686175" data-primary="true"/><path d="M187.3,211.73h-1.69a3.53,3.53,0,0,1-3.53-3.53v-6.54a3.53,3.53,0,0,1,3.53-3.53h1.69a3.53,3.53,0,0,1,3.53,3.53v6.54A3.53,3.53,0,0,1,187.3,211.73Zm-1.69-12.6a2.53,2.53,0,0,0-2.53,2.53v6.54a2.53,2.53,0,0,0,2.53,2.53h1.69a2.53,2.53,0,0,0,2.53-2.53v-6.54a2.54,2.54,0,0,0-2.53-2.53Z" fill="#f48225" data-secondary="true"/><path d="M135.37,325.34c-1.23,4.22-1.92,10.23,1.07,16.07,0,0,8.82,13.49,29.3-4.41,0,0,20.49-17.11,29.3-35.26,0,0,14.85-4.79,23.75-11.36a15.89,15.89,0,0,0,6.55-13.22c-.06-2.05-.57-3.88-2-4.46,0,0,1.75-4.86-.48-6.33a1.43,1.43,0,0,0-2,.4l0,.05a35.21,35.21,0,0,0-2.22,4.32s3.11-7-1-8c0,0-1.81-1-2.85,4.14,0,0-3.7,8.11-11.57,10.15,0,0-1.27-.2.49-2.33l4.57-3.27a2.53,2.53,0,0,0,1.08-2.34c-.11-.81-.65-1.54-2.35-1.2,0,0-5.25-.68-10.89,8.75a43.37,43.37,0,0,0-4.34,9.86,4.07,4.07,0,0,1-1.32,1.94,264,264,0,0,1-32.26,21.55s-9.12,3.72-16,7A12.8,12.8,0,0,0,135.37,325.34Z" fill="#ffcdc6"/><rect x="195.18" y="184.82" width="55.88" height="27.49" rx="12.78" transform="translate(-31.75 42.83) rotate(-10.24)" fill="#686175" data-primary="true"/><rect x="204.8" y="181.43" width="52.8" height="26.44" rx="12.29" transform="translate(-30.92 44.2) rotate(-10.24)" fill="#f48225" data-secondary="true"/><rect x="210.7" y="183.2" width="44.6" height="22.02" rx="10.23" transform="translate(-30.81 44.51) rotate(-10.24)" fill="#fff"/><polygon points="225.64 206.71 226.03 184.28 230.18 183.5 230.18 205.93 225.64 206.71" fill="#f48225" data-secondary="true" opacity="0.2" style="isolation:isolate"/><polygon points="236.27 204.9 236.92 182.34 242.17 181.37 241.85 203.86 236.27 204.9" fill="#f48225" data-secondary="true" opacity="0.2" style="isolation:isolate"/><path d="M218.8,270s-2.13,6.57-10.48,11.37" fill="none" stroke="#f7a79e" stroke-miterlimit="10"/><path d="M223.31,272.7s-3.8,8.89-9.84,11.91" fill="none" stroke="#f7a79e" stroke-miterlimit="10"/><path d="M809,288.09c-8.84,4.57-15.63,12.46-20.5,21.14s-8,18.23-11.13,27.71l-2.73,48.79c10.29-17.5,18.55-38.09,20.78-58.27l-6.84-.61c4.59-.73,8.44-4,10.9-8s3.71-8.5,4.94-13l-8.36,1.24A31,31,0,0,0,809,288.09Z" fill="#f48225" data-secondary="true"/><g opacity="0.3"><path d="M809,288.09c-8.84,4.57-15.63,12.46-20.5,21.14s-8,18.23-11.13,27.71l-2.73,48.79c10.29-17.5,18.55-38.09,20.78-58.27l-6.84-.61c4.59-.73,8.44-4,10.9-8s3.71-8.5,4.94-13l-8.36,1.24A31,31,0,0,0,809,288.09Z"/></g><path d="M773.14,397.15s-22.34-26.74-22.08-52.26h9s-9.81-6.45-9-10.06,1-17.27,1-17.27l8.25,2.06s-6.19-3.09-7-8S755.19,284,755.19,284s10,10.57,13.12,21.4,11.22,23.45,8.83,56.45S773.14,397.15,773.14,397.15Z" fill="#f48225" data-secondary="true"/><path d="M784.46,399.67S808.66,383.55,814,363l-7.26-2s9.29-3,9.48-6.1,2.92-14.12,2.92-14.12l-7.08-.14s5.65-1.13,7.34-4.9,4.6-22.62,4.6-22.62-10.4,6.3-15.26,14.33-14.14,16.41-19.44,43.46S784.46,399.67,784.46,399.67Z" fill="#f48225" data-secondary="true"/><path d="M761.29,307.36a2.68,2.68,0,0,1,.07.27l.2.83c.17.73.4,1.81.73,3.17s.66,3.07,1.05,5,.86,4.21,1.31,6.69c1,5,2,10.88,3,17.5s2,13.85,2.92,21.51,1.56,15,2.09,21.62.86,12.66,1.06,17.71c.13,2.52.18,4.8.25,6.8s.1,3.74.12,5.15,0,2.48,0,3.24v.85a1.41,1.41,0,0,1,0,.29,1.41,1.41,0,0,1,0-.29v-.85c0-.72-.07-1.85-.11-3.24s-.09-3.14-.18-5.1-.16-4.28-.31-6.8c-.23-5-.63-11-1.14-17.69s-1.24-14-2.12-21.6-1.88-14.92-2.87-21.52-2-12.51-2.92-17.49c-.43-2.49-.87-4.73-1.25-6.7s-.73-3.64-1-5-.49-2.44-.64-3.19c-.06-.35-.12-.63-.16-.83A2.07,2.07,0,0,1,761.29,307.36Z" fill="#273956"/><path d="M770,413.52s-20.42-23.2-26.79-37.19l4.8-2c-3.48.57-7-.92-9.73-3.19s-4.68-5.31-6.61-8.22l6.3-1.06a23.47,23.47,0,0,1-13.78-10.68c7.45,1.22,14.19,5.31,19.74,10.42a97.2,97.2,0,0,1,12,13.86,46.37,46.37,0,0,1,4.64,7.63C764,390.16,770.05,405,770,413.52Z" fill="#f48225" data-secondary="true"/><path d="M814.36,326.65a.64.64,0,0,1-.1.24l-.31.67-1.25,2.58c-.55,1.1-1.22,2.47-2,4.06s-1.64,3.4-2.56,5.42c-1.89,4-4.06,8.83-6.39,14.21s-4.77,11.36-7.22,17.66-4.62,12.4-6.56,17.93-3.54,10.58-4.84,14.82c-.67,2.12-1.24,4.05-1.75,5.73s-.94,3.14-1.28,4.38l-.8,2.74c-.1.29-.17.52-.22.73l-.09.24a1,1,0,0,1,0-.25,5,5,0,0,1,.18-.73l.73-2.76c.3-1.18.73-2.66,1.22-4.38s1-3.64,1.69-5.74c1.27-4.26,2.91-9.29,4.76-14.86s4.08-11.63,6.52-18,4.93-12.27,7.25-17.66,4.55-10.2,6.47-14.19c.94-2,1.84-3.81,2.61-5.39s1.46-2.92,2-4l1.31-2.55.35-.65A1.37,1.37,0,0,1,814.36,326.65Z" fill="#273956"/><path d="M771.77,423.45a1.57,1.57,0,0,1-.09-.43l-.2-1.23c-.07-.53-.17-1.19-.31-1.94s-.27-1.62-.47-2.56c-.37-1.91-.89-4.15-1.57-6.62s-1.53-5.14-2.57-7.89-2.19-5.34-3.29-7.64-2.19-4.32-3.2-6c-.47-.84-.94-1.58-1.34-2.23s-.73-1.22-1-1.67l-.67-1.06a2.08,2.08,0,0,1-.22-.38,1.54,1.54,0,0,1,.28.34l.73,1a18.14,18.14,0,0,1,1.11,1.64c.38.65.9,1.38,1.39,2.19,1,1.65,2.13,3.64,3.28,6a82.33,82.33,0,0,1,3.34,7.65c1,2.76,1.88,5.47,2.55,7.95a65.69,65.69,0,0,1,1.46,6.65c.19.94.29,1.82.42,2.58s.2,1.45.25,2,.09.92.13,1.24A1.88,1.88,0,0,1,771.77,423.45Z" fill="#273956"/><rect x="754.01" y="418" width="44.73" height="9.13" fill="#686175" data-primary="true"/><polygon points="758.27 427.12 763.11 457.82 790.14 457.82 794.65 427.12 758.27 427.12" fill="#686175" data-primary="true"/><path d="M796,427.12c0,.11-8.46.19-18.9.19s-18.9-.08-18.9-.19,8.46-.19,18.9-.19S796,427,796,427.12Z" opacity="0.2" style="isolation:isolate"/></svg>