<svg id="bcdf5f76-2cf9-49f3-b19f-e90432c95d76" data-name="Layer 1" xmlns="http://www.w3.org/2000/svg" width="865.76" height="682.89" viewBox="0 0 865.76 682.89"><path d="M433.41,629.29l63-51.86L470.59,471H389l-11.36-36.15L367.3,471H309.46l-31-156L232,445.22S311.53,531.38,433.41,629.29Z" fill="#ccc" opacity="0.41"/><path d="M211.34,421.46l73.33-207.61,47.51,231.37h16.53l26.86-115.69,32,115.69h88.83l5.17,36.15,10.33-40.28h39.24l69.21-227.24,65.07,170.43s15.54-25.06,19.38-64.71c4.68-48.36-14.57-96.49-53.31-125.81-22.4-16.95-53.87-30.26-97.25-29.49,0,0-75.4,3.1-117.74,84.7,0,0-60.94-117.75-183.86-74.37C252.65,174.6,86.36,239.67,211.34,421.46Z" fill="#ccc" opacity="0.41"/><path d="M503.64,572.26l27.89-104.32h42.35l49.58-169.39L664.77,410.1S579.63,519.88,503.64,572.26Z" fill="#ccc" opacity="0.41"/><path d="M605.19,386.4l26.65,232.13,21.63,10L647,432l9.51-4.35,19.28,200.81,20.51-6.22s1.56-3.73-3.11-2.48L700,419.9s3.76-32.78-4.49-45.3Z" fill="#2f2e41"/><path d="M276,133.63s35.1.87,40.14,35c0,0,54.4-12.41,88.13,17.08,0,0,53.9-35.23,126.85-3.26,1.94.54,35.31-27.4,89.25-19.25,0,0,7.66-40.39,38-34.55,0,0-64.52-44.61-103.2-31.83,0,0-101.47-18.79-174.7,3.23C380.44,100.06,353.21,81.78,276,133.63Z" fill="#f48225" data-secondary="true"/><path d="M276,133.63s35.1.87,40.14,35c0,0,54.4-12.41,88.13,17.08,0,0,53.9-35.23,126.85-3.26,1.94.54,35.31-27.4,89.25-19.25,0,0,7.66-40.39,38-34.55,0,0-64.52-44.61-103.2-31.83,0,0-101.47-18.79-174.7,3.23C380.44,100.06,353.21,81.78,276,133.63Z" opacity="0.2"/><path d="M377.45,471.5l.06-29.48-.06-22.63-6.94,1.25S362.76,436.38,377.45,471.5Z" fill="#bcbec0"/><polygon points="371.79 614.81 468.04 614.81 472 624.94 376.07 624.94 371.79 614.81" fill="#d1d3d4"/><path d="M284,367.37H262.86v129s-6.56,26.23,18.05,26.42l64.73.05s7,5.77,18.54,15.89l63.35,73.44h60.32l-21.57-55L371.79,474.3Z" fill="#bcbec0"/><path d="M287.08,312.31c10.35-4,5.72-6.6,5.72-6.6-8.58,4.18-24,3.52-24,3.52L214,269.38s2.2-13.2,0-15.63l-8.59,39.62,57.12,21.41c1.83.67,3.69,1.24,5.58,1.74a18.38,18.38,0,0,1,6.07,3.31,36,36,0,0,0,7.59,4.47l3.92,1.7a6.45,6.45,0,0,0,7.36-1.63h0a6.44,6.44,0,0,0-1.93-10Z" fill="#f9b499"/><path d="M205.62,292.28l5.07,21.52L199.42,315l-42.13-27-.54-3.42S184.2,290.79,205.62,292.28Z" fill="#f9b499"/><path d="M175.81,180.26h8.74l.78-3.79a20.52,20.52,0,0,0,4.25-2v4.07l16.66-2.14,1-7.16h1.43V176l10.24-.66s.14-3-4.78-6.44a11.08,11.08,0,0,1-5-9s1.34-9.22-10.78-12.49c0,0,2.76,18-7.71,26.3a15.52,15.52,0,0,1-15.22,2Z" fill="#2f2e41"/><path d="M175.81,180.26h8.74l.78-3.79a20.52,20.52,0,0,0,4.25-2v4.07l16.66-2.14,1-7.16h1.43V176l10.24-.66s.14-3-4.78-6.44a11.08,11.08,0,0,1-5-9s1.34-9.22-10.78-12.49c0,0,2.76,18-7.71,26.3a15.52,15.52,0,0,1-15.22,2Z" opacity="0.2"/><path d="M157.57,159.15l3.76,38.74h16.16l-2-22.15s-7.75-2.6-15.41-16.59Z" fill="#f9b499"/><path d="M326.21,341c-8.11-1.19-18.31,1.95-25.4,4.77a31.35,31.35,0,0,0-17.34,17c-7.51,17.92-10.7,45.7-10.7,45.7s10.56,4.63,20.8,3.64c0,0-6.6,47.55-3,69,0,0,64.49,4.25,85.53-12.88,0,0-11.56-32.69-5.62-47.55,0,0,17.5-1.62,25.43-9.56l-7.8-39.43A34.26,34.26,0,0,0,369,347a30.36,30.36,0,0,0-11.74-2.84Z" fill="#686175" data-primary="true"/><g opacity="0.2"><rect x="354.23" y="401.7" width="40.22" height="0.77" transform="translate(-98.25 682.19) rotate(-77.7)"/></g><rect x="377.45" y="456.31" width="67.68" height="8.72" fill="#d1d3d4"/><rect x="262.86" y="458.51" width="73.53" height="9.61" fill="#d1d3d4"/><path d="M388.78,614.81l-29-75.43a15.57,15.57,0,0,0-14.53-10h-67.9a21.57,21.57,0,0,1-21.58-21.57V335a9.46,9.46,0,0,0-9.46-9.46h-30.6a4.42,4.42,0,0,1-4.41-4.41h0a4.41,4.41,0,0,1,4.41-4.41h28.5a18.61,18.61,0,0,1,18.61,18.61V505.62a17.11,17.11,0,0,0,17.06,17.06h64.35A22.64,22.64,0,0,1,365.32,537l30.62,77.8Z" fill="#d1d3d4"/><path d="M262.86,549.21v-7.05H339a9.79,9.79,0,0,1,9.1,6.21l35,89.34h-5.61l-33.94-83.77a8.87,8.87,0,0,0-8.33-5.54Z" fill="#bcbec0"/><polygon points="474.2 637.71 468.26 622.08 474.2 622.08 480.81 637.71 474.2 637.71" fill="#bcbec0"/><ellipse cx="477.67" cy="650.67" rx="11.72" ry="15.33" fill="#bcbec0"/><ellipse cx="476.9" cy="650.81" rx="7.1" ry="8.59" fill="#fff"/><ellipse cx="379.82" cy="650.81" rx="11.72" ry="15.33" fill="#bcbec0"/><ellipse cx="379.05" cy="650.94" rx="7.1" ry="8.59" fill="#fff"/><path d="M293.63,481.21V499s9.31,5.89,14.62,14.77c0,0,40,9,56.22,9.35l3.63,20.94,41.2-6.62-4.14-22.23,16.73,5.27L439.82,594s21.59,1.24,30-2.6c0,0-9.64-90.65-16.42-98.08L377.45,471.5l-1.32-3.31S361,483.34,293.63,481.21Z" fill="#2f2e41"/><path d="M447.34,594.16v1.75s1.09.71,1.79,1.23c0,0,3.61,3.69,9.88.83,0,0-1.31-3-.33-4.26C458.68,593.71,451.2,594.22,447.34,594.16Z" fill="#f9b499"/><path d="M154.22,197.89l8.25-8.91,14.63,1,10.8,7.92S175,212.59,154.22,197.89Z" fill="#f9b499"/><path d="M125.05,246.93l2-27.27a7.32,7.32,0,0,1,3.21-5.55l24-16.22s18.82,14.59,33.68,0l25.38,12.6a7.33,7.33,0,0,1,4,7.49L216,228.44s6.38,15.85-2,25.31l-8.37,38.53s-30.38-2.2-48.87-7.71c0,0,.88-22.89-5.06-35.22l-.22,5.28S143.54,247.15,125.05,246.93Z" fill="#f48225" data-secondary="true"/><path d="M143.14,305s-19.63,27.17-9.95,62l20.26,91.14h28.18l8.8-107.87,12.33-11-1.63-13.91Z" fill="#2f2e41"/><path d="M210.69,465.54l18.49-3.09-6.09-87.72q-.24-3.59-.31-7.19c-.18-8.5-1.6-34.07-12.09-53.74L199.42,315l3.34,24.17-12.33,11-5.76,70.61S204.08,458.27,210.69,465.54Z" fill="#2f2e41"/><path d="M210.69,465.54l18.49-3.09-6.09-87.72q-.24-3.59-.31-7.19c-.18-8.5-1.6-34.07-12.09-53.74L199.42,315l3.34,24.17-12.33,11-5.76,70.61S204.08,458.27,210.69,465.54Z" fill="#2f2e41"/><path d="M210.69,465.54s-15.19,15.52,0,65.05L226.57,587a8,8,0,0,0,9.1,5.79,8.39,8.39,0,0,0,1.3-.35,8,8,0,0,0,5.27-8.47L229.18,462.45Z" fill="#f9b499"/><path d="M153.45,458.05s-12.49,47.57-2,144.1c.44,4.06,3.89,7.91,8,7.91h0c4.11,0,7.55-3.87,8-8l14.24-144Z" fill="#f9b499"/><path d="M139,635.27l10.55-32.69a9.63,9.63,0,0,1,9.16-6.66h0a9.6,9.6,0,0,1,9.48,8c1.3,7.77,3.78,19.5,7.86,27.36a10.87,10.87,0,0,1,1.21,5.51v.07a2,2,0,0,1-1.83,1.86c-3.09.26-10.14.57-15.29-1.31C160.16,637.42,147.61,634,139,635.27Z" fill="#f48225" data-secondary="true"/><path d="M139,635.27a7,7,0,0,0,4.19,8.22,7.42,7.42,0,0,0,2.71.56l27.94.56a4.33,4.33,0,0,0,4.39-5,9.86,9.86,0,0,0-1-2.82s1,2.4-5.4,2.11a65.33,65.33,0,0,1-11.73-1.49S147.12,634,139,635.27Z" fill="#2f2e41"/><path d="M228.41,590.27a15.61,15.61,0,0,0-.77,6.57,8,8,0,0,1-.6,4.88l-3.93,8.34s5.64,7.17,17.43,3.65a24.83,24.83,0,0,1,13,2.72,9.64,9.64,0,0,0,3.93,1.1l33,1.56s3.32-9-9.35-10.22a23.19,23.19,0,0,1-5.87-1.3c-7.59-2.8-25.69-10.49-32.87-22.61a7.79,7.79,0,0,1-2.79,6,8.17,8.17,0,0,1-8.09,1.38A8.39,8.39,0,0,1,228.41,590.27Z" fill="#f48225" data-secondary="true"/><path d="M223.11,610.06s-6.73,6.22,0,9c5,2.11,12.53-.34,16-1.69a11.7,11.7,0,0,1,6.24-.75,9.66,9.66,0,0,1,2.17.61,9.88,9.88,0,0,0,4.41.64l5.53-.37a11.8,11.8,0,0,1-5.36-1.78s-6.11-2.63-11.52-2C240.54,613.71,229.59,617.3,223.11,610.06Z" fill="#2f2e41"/><path d="M580.76,249l-3-3.82L531.49,277.6l9.93,55.67s-10.29-2.12-3.9,3.55l-48.94-3.55V354.2s52.48,30.49,91.13,11c0,0,11,44.33,23.41,47.52,0,0,24.47-.36,41.49-13.83l-.67-16.39,8.11,13.9s32.4-12.18,56.31-30.76a5,5,0,0,0,1-6.72l-17.61-25.64s3-96.79-2.48-102.48c-5.68-5.83-86.37,2.13-86.37,2.13l1,4.15" fill="#686175" data-primary="true"/><polyline points="589.83 248.18 580.42 266.25 573.51 248.17 577.74 245.21 589.83 248.18" fill="#686175" data-primary="true"/><polyline points="589.83 248.18 580.42 266.25 573.51 248.17 577.74 245.21 589.83 248.18" fill="#fff" opacity="0.2"/><polygon points="608.79 232.37 609.5 257.21 593.82 245.02 602.92 232.92 608.79 232.37" fill="#686175" data-primary="true"/><polygon points="608.79 232.37 609.5 257.21 593.82 245.02 602.92 232.92 608.79 232.37" fill="#fff" opacity="0.2"/><circle cx="634.44" cy="346.78" r="2.6" opacity="0.2"/><circle cx="611.95" cy="288" r="2.6" opacity="0.2"/><circle cx="601.6" cy="266.25" r="2.6" opacity="0.2"/><circle cx="644.37" cy="369.67" r="2.6" opacity="0.2"/><polygon points="577.2 344.18 537.51 285.4 577.2 338.4 577.2 344.18" opacity="0.2"/><path d="M575.62,369.65l4.32-67.74a2.1,2.1,0,0,1,2.1-2h25.21a2.1,2.1,0,0,1,2.1,2.24L604.69,370a2.46,2.46,0,0,1-2.45,2.29H578.08A2.47,2.47,0,0,1,575.62,369.65Z" fill="#ccc"/><path d="M615.17,316.3s-16.31,4.92-17-9.62c0,0-9.19-.36-8.32-6.74,0,0-3.35-2.48,0-6,0,0-4.06-4.25,0-6.38,0,0,18.25-6.74,19.67,12.41,0,0,3.19,7.8,5.67,3.55Z" fill="#f9b499"/><path d="M631.84,618.53s-15.79,8.94-41.11,14a7.23,7.23,0,0,0-5.57,5c-.94,3.29.62,7.15,13.5,6.79,0,0,30.39-2.83,42.58-9.94v6.83l12.13-.62.1-12.12Z" fill="#686175" data-primary="true"/><path d="M696.73,622.27s15.78,8.94,41.1,14a7.2,7.2,0,0,1,5.57,5c.94,3.28-.61,7.15-13.49,6.79,0,0-30.4-2.84-42.59-10V645l-12.12-.62.55-15.86Z" fill="#686175" data-primary="true"/><path d="M488.58,349.37s-22.55-6-30-5.19l-1.66-5.78,13.67-17.76s10.78,4.45,11.2,10.67l6.8,2Z" fill="#f7a88f"/><path d="M464.58,98.79h0a2.69,2.69,0,0,1,2.69,2.69V314.79a0,0,0,0,1,0,0h-5.39a0,0,0,0,1,0,0V101.48A2.69,2.69,0,0,1,464.58,98.79Z" fill="#f48225" data-secondary="true"/><path d="M435.15,343.46v5.05a16.06,16.06,0,0,0,16.06,16.06h0a16.06,16.06,0,0,0,16.06-16.06v-12.4h-5.39v11.83a10.41,10.41,0,0,1-10.41,10.41h0a10.42,10.42,0,0,1-10.42-10.41v-4.48Z" fill="#f48225" data-secondary="true"/><path d="M276,133.63s72.74-49.73,104.45-33.57c0,0,65.9-21.38,174.7-3.23,0,0,28-14.8,103.2,31.83,0,0-32.65-57.2-87.2-86.42,0,0-19.73-10.57-57-13.68,0,0-6-15.37-25.85-11a90.69,90.69,0,0,1-12.71,1.82c-3.77.28-8.37.57-13,.73a91.4,91.4,0,0,1-19.89-1.38c-6.11-1.13-17.33-1.26-24.3,10.49C418.36,29.19,339.41,27.32,276,133.63Z" fill="#f48225" data-secondary="true"/><path d="M383.55,98.79,425,25a25.62,25.62,0,0,0-6.61,7.29A232.08,232.08,0,0,0,383.55,98.79Z" opacity="0.2"/><path d="M506.58,20s40.05,61.77,43.54,70.31c0,0-21.17-50.26-36-61.7A13.92,13.92,0,0,0,506.58,20Z" opacity="0.2"/><path d="M175.72,178l-.14-3.76s-11.23-18.18-17.5-15.26C158.08,159,162.87,174.29,175.72,178Z" fill="#f7aa92"/><ellipse cx="177.38" cy="147.44" rx="20.56" ry="30.09" transform="translate(-32.64 52.08) rotate(-15.31)" fill="#f9b499"/><path d="M156.66,148.87c7.11-5.64,9.05-28.84,9.05-28.84s15.78,6.23,23.91,7c0,0,6,6.08,8.71,20.42,0,0,10.52,2.52,10.72,11.27a15.52,15.52,0,0,0,.47,4.57,10.78,10.78,0,0,0,3.95,5.23,15.88,15.88,0,0,1,3.95,3.69,7.51,7.51,0,0,1,1.48,3.13h2.31s.33-5.84-3.42-8c0,0-4.4-2.2-4-7l-.12-6.13a10.13,10.13,0,0,0-9.73-9.94h-.27s-6.83-.89-7.05-11.67c0,0-4.18-24.66-24.44-17.83,0,0-30.16-7.27-34.34,22.89,0,0,1.76,6.38-3.08,10.79,0,0-8.81,2.42-7.27,16.07,0,0,2.65,8.58-2.86,10.9,0,0-4,3-2,8.69,0,0,13.65,1.32,14.31-4.4l.22-3.52,1.76.22.22,5.94h11v-5.5H152l.22,5.28,7.64-.75-1.84-22Z" fill="#2f2e41"/><ellipse cx="155.83" cy="153.34" rx="3.85" ry="7.22" transform="translate(-62.32 138.91) rotate(-40.75)" fill="#f9b499"/><path d="M125.05,246.93s2.86,45.57,6.38,53.94l69.7,24.39a6.66,6.66,0,0,1,1.42.69l13,8.34a13.78,13.78,0,0,0,9,2.21c3.21-.36,6.7-1.84,7.8-6.35a34.38,34.38,0,0,0,.2-3.77,4.5,4.5,0,0,0-3.33-4.33c-2.32-.62-5.52-1.13-8.1-.27,0,0,7.93-2.64,6.39-6.82,0,0-7.93,3.08-12.77,3.52L203.79,317a7.75,7.75,0,0,1-3.12-1.15L147.5,281.71l4-27.08S144.2,247.15,125.05,246.93Z" fill="#f9b499"/><g opacity="0.2"><rect x="383.49" y="476.52" width="0.77" height="50.42" transform="matrix(0.54, -0.84, 0.84, 0.54, -245.45, 556.93)"/></g><path d="M466,592.62c1-.28,1.4,1.6,2.26,2.46a52.19,52.19,0,0,0,22,13c6.74,2,10,4.29,11.41,5.59a3,3,0,0,1,.48,4l-.08.11a6.69,6.69,0,0,1-4.14,2.53c-23.53,4.74-53.36-6.78-53.36-6.78V596.32s2.29-1.38,4,.27a8,8,0,0,0,4.87,2.38,11.86,11.86,0,0,0,5.65-1s-1.77-4.11-.33-4.26A51.59,51.59,0,0,0,466,592.62Z" fill="#686175" data-primary="true"/><path d="M502.37,614.81s4.78,3.5.26,7.8a11.1,11.1,0,0,1-5.83,2.82c-4.53.77-14.45,2-23.27-.49l-29-6.58v-4.87a149.28,149.28,0,0,0,25.64,6.64S504.57,624.94,502.37,614.81Z" fill="#2f2e41"/><path d="M409.3,537.47h2.6l15.85,61.59s22.49,10.32,23.78,15.75c0,0,4,7.93-21.12,7.27l-34-2a4.45,4.45,0,0,1-4-3l-24.35-73Z" fill="#fff"/><path d="M430,619.88s4.18-6.83,15.85-9c0,0,4.9,2.17,3.35,5.2a3.25,3.25,0,0,1-1.48,1.38C445.61,618.46,439.48,620.93,430,619.88Z" fill="#f9b499"/><rect x="280.03" y="575.63" width="97.48" height="6.6" fill="#d1d3d4"/><rect x="272.77" y="526.75" width="7.26" height="48.87" fill="#d1d3d4"/><ellipse cx="274.75" cy="580.58" rx="9.25" ry="10.79" fill="#bcbec0"/><path d="M275.38,493.29c-28.07,0-50.83,38.69-50.83,86.42s22.76,86.42,50.83,86.42,50.83-38.69,50.83-86.42S303.46,493.29,275.38,493.29Zm-.63,162.47c-23.74,0-43-33.56-43-75s19.24-74.95,43-74.95,43,33.55,43,74.95S298.48,655.76,274.75,655.76Z" fill="#bcbec0"/><path d="M334.09,316.72S333,336.22,326.21,341c0,0,11.26,12.67,21.11,12.67,0,0,10.65.16,10-9.48a2.5,2.5,0,0,1-2.64-2.14l.15-6.86,0-1.82s-6.51,2.85-13.1-4a20.75,20.75,0,0,1-3.49-5,37.41,37.41,0,0,1-3-7.71Z" fill="#f9b499"/><path d="M354.67,330.87,336,316.3l-1.9.42s-2.69,20.51,20.69,19.76Z" fill="#f7a88f"/><ellipse cx="351.26" cy="307.09" rx="17.17" ry="26.88" fill="#f9b499"/><ellipse cx="369.2" cy="308.95" rx="5.39" ry="3.38" transform="translate(2.53 620.9) rotate(-80.31)" fill="#f9b499"/><path d="M328.13,309c-8.11-17.48,2.3-28.74,2.3-28.74a20.61,20.61,0,0,1,9.57-7.07,14.41,14.41,0,0,1,3.45-.59c3.2-.19,11.93-.82,15.13-2.19,0,0-1.69,5.91-6.19,5.91,0,0,9.28,2.53,16-1.13a8.33,8.33,0,0,1-3.66,5.07s7.6.85,9.57-1.41c0,0-2.82,7.6-5.91,7.6,0,0,3.38,1.41,4.78-.84,0,0-1.91,4.59-4.78,5.63,0,0,3.83,4.29-.11,12.87l-2.66-11.6s-9.09,1.06-14.44-1.79a11.17,11.17,0,0,0-5.55-1.4,12.22,12.22,0,0,0-9.28,4.39s3.18,9.41-2.3,14.11C334.09,307.77,328.64,304.48,328.13,309Z" fill="#2f2e41"/><ellipse cx="332.61" cy="311.53" rx="3.66" ry="5.84" transform="translate(-118.88 249.58) rotate(-35.31)" fill="#f9b499"/><path d="M371.85,420.48S370,434.68,385.94,455h45.25a3.28,3.28,0,0,1,2.71,1.4,24.91,24.91,0,0,0,17,10.13.57.57,0,0,0,.4-1.05c-2.31-1.43-5.77-3.88-7.71-6.62,0,0,9.19,1.74,13.14,8.74a1,1,0,0,0,1.4.36h0a1,1,0,0,0,.42-1.25c-.69-1.69-2.51-5.51-5.31-6.78l1.16-1s3.81,3.15,5.22,6.53a.89.89,0,0,0,1.42.31h0a.9.9,0,0,0,.25-1c-.64-1.73-2.87-6.9-7.22-9.49,0,0,4.12,1,7.77,6a1.14,1.14,0,0,0,1.59.24h0a1.15,1.15,0,0,0,.26-1.59,25.92,25.92,0,0,0-13.75-9.44,28.29,28.29,0,0,1,8.78,2.08,1,1,0,0,0,1.24-.42h0a1,1,0,0,0-.53-1.38c-3.44-1.16-14.53-4.6-25.51-4.74l-34.34-12.55s-1.65-8.36-5.45-20.86C394.12,412.66,389.54,417.52,371.85,420.48Z" fill="#f9b499"/><path d="M277.72,409.74l-1.86,38.19a4.8,4.8,0,0,0,2.83,4.64c4.66,2.08,16.68,4.81,47.52,4.4,0,0,4.84,7.43,12.11,7.59l3.9,8.86a1.48,1.48,0,0,0,1.35.88h0a1.48,1.48,0,0,0,1.42-1.91l-1.83-5.87a.26.26,0,0,1,.46-.21l4.68,7.34a1.4,1.4,0,0,0,1.19.65h0a1.4,1.4,0,0,0,1.34-1.79L349,466.32a.2.2,0,0,1,.36-.16l3.28,5.72a1.2,1.2,0,0,0,1,.61h0a1.2,1.2,0,0,0,1.15-1.55l-2.22-7.34a.43.43,0,0,1,.74-.39l3.7,4.44a1.45,1.45,0,0,0,1.75.39h0a1.47,1.47,0,0,0,.66-2.06l-5.87-10.21a7.13,7.13,0,0,0-4.71-3.43l-9.46-2a9.07,9.07,0,0,1-2.32-.84c-12.37-6.52-38.27-14.63-38.27-14.63,2-3.3,5-22.79,5-22.79" fill="#f9b499"/><path d="M595.59,215.19,603.77,235a3.28,3.28,0,0,1-.58,3.45c-3.15,3.51-11.47,11.55-21.57,11.3A2.92,2.92,0,0,1,579,248l-1.81-4S596,244.84,595.59,215.19Z" fill="#f9b499"/><g opacity="0.2"><path d="M665.2,338.74c-29.16,0-50-17.58-50.28-17.81l-.13-.11V297l45.75,3.84c-1.06-1-2.31-2.51-1.81-3.33.37-.6,1.47-.94,6.6,1.05l-10.1-41.12.74-.18,10.47,42.57-.7-.28c-5.84-2.33-6.33-1.67-6.35-1.63-.17.28.88,1.7,2.49,3.11l.89.77-47.21-4v22.58c2.38,2,35.56,28.32,76.07,12.46l.28.71A72.7,72.7,0,0,1,665.2,338.74Z"/></g><path d="M452.76,317.1s-1.24,13.48,4.15,21.3c0,0,15.57-.69,18.65-6.68,0,0,.21-5.74-5.8-4,0,0,4.56-7.92-2.49-13C467.27,314.79,460.22,310.36,452.76,317.1Z" fill="#f9b499"/><path d="M578.15,246.12l-1.43-3.83s16.93-12.2,18.87-27.64l1.87,5.08S601.66,241.93,578.15,246.12Z" fill="#f7a88f"/><ellipse cx="573.51" cy="212.71" rx="21.81" ry="31.91" transform="translate(-35.73 158.03) rotate(-15.22)" fill="#f9b499"/><path d="M556.46,200.53c6.48-2.41,16.78-7.79,18.67-18,0,0,6,19,14.7,19.67l4-5.91L579,171.31a4.9,4.9,0,0,0-5.27-2.27c-8.53,1.92-29.26,8.59-24.56,27.58A5.56,5.56,0,0,0,556.46,200.53Z" fill="#2f2e41"/><ellipse cx="595.59" cy="205.49" rx="5.76" ry="9.7" fill="#f9b499"/><path d="M445.29,31.48s15.69.82,22-5.64c0,0,8.07,6.16,22,5.66V61s-.36,9.74-10.84,15.94l-11.14,7.39-12.93-8.71a15.82,15.82,0,0,1-1.78-1.32,20.55,20.55,0,0,1-7.27-15.73Z" opacity="0.2"/><path d="M451,37.85s10.8.46,16.28-4.33a25.93,25.93,0,0,0,16.11,4.34l.49,20.86a15.13,15.13,0,0,1-5.05,10.77,12.92,12.92,0,0,1-1.7,1.35c-2.06,1.38-7.77,5.23-9.69,6.59l-8.84-5.84a18.73,18.73,0,0,1-4.72-4.42A13,13,0,0,1,451,59.12Z" fill="#f48225" data-secondary="true"/><path d="M466.25,59.31l18.54-22.67a1.91,1.91,0,0,1,2.84-.13h0a1.91,1.91,0,0,1,.12,2.54L467.43,64.24a2,2,0,0,1-2.76,0l-11.91-14.3a2.15,2.15,0,0,1,.27-3h0a2.15,2.15,0,0,1,3,.27Z" fill="#fff"/><path d="M309.94,386.3l-.38-.67c6.64-3.79,5.76-13.4,5.75-13.49l.77-.08C316.09,372.16,317,382.26,309.94,386.3Z" fill="#686175" data-primary="true"/><g opacity="0.2"><path d="M309.94,386.3l-.38-.67c6.64-3.79,5.76-13.4,5.75-13.49l.77-.08C316.09,372.16,317,382.26,309.94,386.3Z"/></g><path d="M300.5,411.74c-7.51,0-18.36-.51-27.83-2.94l.19-.75c15.08,3.87,33.71,2.85,36.51,2.67V370.78h.77v40.65l-.36,0C309.69,411.47,306,411.74,300.5,411.74Z" fill="#686175" data-primary="true"/><g opacity="0.2"><path d="M300.5,411.74c-7.51,0-18.36-.51-27.83-2.94l.19-.75c15.08,3.87,33.71,2.85,36.51,2.67V370.78h.77v40.65l-.36,0C309.69,411.47,306,411.74,300.5,411.74Z"/></g></svg>