<svg id="a5810bc2-fc98-455a-8102-fb9aa8beec72" data-name="Layer 1" xmlns="http://www.w3.org/2000/svg" width="865.76" height="682.89" viewBox="0 0 865.76 682.89"><path d="M385.25,104.79C338.14,136.85,148.3,72.3,140.7,297.3s284,272.7,353.1,279.23S701.09,416,716.28,283.88,627.9-60.33,385.25,104.79Z" fill="#e4e1f5"/><path d="M224.55,103.28c-1.22.83-6.13-.84-6.33,5s7.35,7.06,9.14,7.23,5.37-4.16,5.77-7.58S230.84,99,224.55,103.28Z" fill="#e4e1f5"/><path d="M257.05,118c-1.42.41-5.58-2.7-7.57,2.78s4.82,9,6.47,9.71,6.39-2.3,7.82-5.43S264.35,115.86,257.05,118Z" fill="#e4e1f5"/><path d="M210,502.7c-1.22.83-6.14-.84-6.34,5s7.36,7.07,9.15,7.23,5.37-4.15,5.76-7.58S216.3,498.42,210,502.7Z" fill="#e4e1f5"/><path d="M716.59,396.92c-1.22.83-6.13-.84-6.33,5s7.36,7.06,9.15,7.23,5.36-4.16,5.76-7.58S722.88,392.65,716.59,396.92Z" fill="#e4e1f5"/><path d="M680.73,397.16c-1.45.27-5.28-3.24-7.8,2s3.9,9.42,5.47,10.3,6.59-1.65,8.32-4.63S688.21,395.77,680.73,397.16Z" fill="#e4e1f5"/><path d="M517.61,532.63c-1.22.83-6.14-.84-6.33,5s7.35,7.07,9.14,7.23,5.37-4.15,5.77-7.57S523.9,528.35,517.61,532.63Z" fill="#fff"/><path d="M219,437.68c-1.46.21-5.13-3.46-7.88,1.68s3.49,9.59,5,10.53,6.65-1.37,8.51-4.27S226.53,436.61,219,437.68Z" fill="#fff"/><path d="M292.1,133.43c-1.46.21-5.14-3.46-7.89,1.68s3.49,9.59,5,10.53,6.66-1.37,8.52-4.27S299.62,132.36,292.1,133.43Z" fill="#fff"/><path d="M334.94,93c-1.95.34-7-4.43-10.5,2.58s5.07,12.71,7.16,13.91,8.87-2.1,11.25-6.06S345,91.28,334.94,93Z" fill="#e4e1f5"/><path d="M663.43,471.77c-1.86.32-6.7-4.23-10,2.45s4.83,12.13,6.83,13.27,8.45-2,10.72-5.78S673,470.11,663.43,471.77Z" fill="#e4e1f5"/><path d="M155.88,454.79c-1.38,1.18-7.62-.18-7,7s10,7.6,12.17,7.56,6-5.82,6-10.05S163,448.7,155.88,454.79Z" fill="#e4e1f5"/><path d="M192.57,420.19c-1.38,1.18-7.62-.18-7,7s10,7.61,12.17,7.56,6-5.82,6-10.05S199.65,414.1,192.57,420.19Z" fill="#fff"/><path d="M648.2,84.52c-1.68.69-7.16-2.58-8.88,4.38s7,10.37,9.16,11,7.51-3.63,8.85-7.65S656.85,81,648.2,84.52Z" fill="#fff"/><path d="M635.31,118c-1.37,1.19-7.61-.17-7,7s10,7.61,12.17,7.57,6-5.82,6-10.06S642.4,111.93,635.31,118Z" fill="#fff"/><ellipse cx="424.82" cy="623.82" rx="172.68" ry="14.62" fill="#e4e1f5"/><path d="M693.48,237.73l-7,.27h-.72c-4.43-.13-8.86-.24-13.27-.27-1.81,0-3.6,0-5.41-.05,0-2.88,0-5.78,0-8.67,0-3.11.18-6.23.28-9.34l6.23.24,7,.18,13.93.22c4.63.06,9.28.06,13.92,0l5.44-.08c0-.89-.06-1.78-.11-2.68l-5.33-.08c-4.64-.06-9.29-.06-13.92,0l-13.93.22-7,.18-7,.27h0a.74.74,0,0,0-.71.75c.11,3.38.26,6.75.3,10.13q.07,4.33,0,8.66-3.8,0-7.61.05l-13.92.22-7,.18-7,.27h-.06a.73.73,0,0,0-.7.75c.1,3.37.26,6.75.3,10.12s.05,6.76,0,10.14h0a.45.45,0,0,0,.45.45h0c4.66.1,9.37.37,14.11.52s9.5.22,14.2.13,9.37-.18,14-.36h0c.11,3.12.24,6.25.27,9.37q.09,5.07,0,10.14a.46.46,0,0,0,.45.46h0c4.67.09,9.37.37,14.11.52s9.5.22,14.2.13l1.32,0c.16-.72.32-1.43.49-2.16-.92,0-1.83,0-2.74-.05-4.58-.09-9.12-.09-13.64.13s-8.82.4-13.28.5c-.06-3.22-.06-6.43,0-9.65s.17-6.23.28-9.34l6.23.24,7,.18,13.93.22c2.16,0,4.34,0,6.51,0l.72-3c-2.77,0-5.52,0-8.28.17l-12.88.2-.74,0c0-1.89,0-3.79,0-5.69.06-1,.12-2,.17-3,.14-3,.31-6.13.41-9.25q3.74,0,7.45,0c3.48-.06,6.94-.15,10.38-.25l7.07.11c.15-.94.29-1.86.41-2.8l-12.4.2Zm-7.43,20.53-5.29.14-7,.27h0a.61.61,0,0,0-.24.06l-1.5-.06c-4.69-.18-9.3-.3-13.87-.36s-9.11-.08-13.65.14-8.81.39-13.27.49c-.06-3.22-.06-6.43,0-9.65s.17-6.23.27-9.34l6.24.23,7,.19,13.92.22c4.65.06,9.28.06,13.93,0q6.42-.08,12.84-.28c.1,2.87.26,5.76.41,8.71l.32,5.69C686.09,255.89,686.08,257.08,686.05,258.26Z" fill="#dad7f2"/><path d="M160.05,336.25l-12.4-.19c.13.94.26,1.86.41,2.8l7.07-.11c3.44.1,6.9.19,10.38.24q3.72.08,7.45,0c.1,3.12.27,6.21.42,9.25,0,1,.11,2,.16,3,0,1.9,0,3.8,0,5.68h-.74l-12.88-.21c-2.76-.11-5.51-.16-8.28-.16l.72,3.05c2.17,0,4.35,0,6.51-.05l13.93-.22,7-.18,6.23-.25c.1,3.12.23,6.23.27,9.35s0,6.43,0,9.65c-4.46-.1-8.89-.36-13.28-.5s-9.06-.22-13.64-.13c-.91,0-1.82,0-2.74.05.17.72.33,1.44.49,2.16l1.33,0c4.69.08,9.44.08,14.19-.14s9.45-.42,14.11-.51h0a.47.47,0,0,0,.46-.47c-.08-3.37-.08-6.75,0-10.13,0-3.12.16-6.25.27-9.37h0c4.6.18,9.27.29,14,.36s9.45.08,14.21-.13,9.44-.43,14.11-.52h0a.45.45,0,0,0,.45-.45h0c-.06-3.39-.06-6.76,0-10.14s.2-6.75.3-10.12a.72.72,0,0,0-.7-.75h0l-7-.27-7-.18-13.92-.22q-3.81,0-7.61-.05-.08-4.32,0-8.66c0-3.38.19-6.75.3-10.13a.73.73,0,0,0-.71-.75h-.05l-7-.27-7-.18L166,316.19c-4.63-.07-9.28-.07-13.92,0-1.77,0-3.55,0-5.33.08-.05.9-.09,1.79-.11,2.68l5.44.08c4.64.07,9.29.07,13.92,0l13.93-.22,7-.19,6.23-.23c.11,3.11.24,6.23.28,9.34,0,2.89,0,5.78,0,8.67-1.81,0-3.6,0-5.41,0-4.41,0-8.84.14-13.26.27H174l-7-.27Zm14.34,17.17.32-5.69c.15-3,.32-5.84.41-8.71,4.29.13,8.56.23,12.84.28q7,.09,13.93,0l13.92-.22,7-.19,6.24-.23c.1,3.11.23,6.23.27,9.34s.05,6.43,0,9.65c-4.45-.1-8.88-.36-13.27-.5s-9.06-.22-13.65-.13-9.18.18-13.87.36l-1.5.06a.61.61,0,0,0-.24-.06h-.05l-6.95-.27-5.3-.14C174.41,355.79,174.4,354.6,174.39,353.42Z" fill="#dad7f2"/><path d="M555.83,91.38A1.37,1.37,0,0,1,554.46,90V50.82a1.38,1.38,0,1,1,2.75,0V90A1.38,1.38,0,0,1,555.83,91.38Z" fill="#d4d3ef"/><path d="M626.41,384.74c-3.71.22-7.53.41-11.43.55s-7.84.25-11.82.31-8,.07-12-.11-8-.36-11.94-.44h0a.39.39,0,0,1-.39-.39h0c.06-2.86.06-5.72,0-8.58s-.17-5.71-.26-8.57a.63.63,0,0,1,.6-.64h0l5.89-.23,5.89-.15,11.79-.19q5.88-.07,11.78,0t11.78.25h0a.93.93,0,0,1,.9.95c-.07,3-.24,5.92-.38,8.81-.07,1.44-.16,2.87-.24,4.27Zm-.16-.17-.48-8.72c-.14-2.83-.32-5.6-.39-8.34l1,.95q-5.9.18-11.78.25t-11.78,0L591,368.53l-5.89-.15-5.89-.23.64-.64c-.09,2.86-.22,5.71-.25,8.57s-.05,5.72,0,8.58l-.4-.4c3.91-.08,7.78-.31,11.62-.44s7.67-.18,11.55-.11,7.78.16,11.75.31S622.11,384.35,626.25,384.57Z" fill="#dad7f2"/><path d="M648.36,401.89c-3.71.22-7.53.41-11.43.55s-7.84.25-11.82.31-8,.07-12-.12-8-.35-11.94-.43h0a.39.39,0,0,1-.38-.4h0q.09-4.28,0-8.57c0-2.86-.16-5.72-.25-8.57a.62.62,0,0,1,.59-.64h0l5.89-.23,5.89-.15,11.78-.19c3.93-.05,7.86-.06,11.79,0s7.85.13,11.78.26h.05a.93.93,0,0,1,.9,1c-.07,3-.25,5.92-.39,8.8-.06,1.45-.15,2.88-.24,4.28Zm-.16-.17-.48-8.72c-.14-2.83-.32-5.6-.39-8.34l.95.95q-5.89.18-11.78.25c-3.93.06-7.86.05-11.79,0l-11.78-.18-5.89-.16-5.89-.23.64-.63c-.09,2.85-.22,5.71-.26,8.57s0,5.72,0,8.57l-.4-.39c3.91-.08,7.78-.31,11.62-.44s7.67-.18,11.55-.11,7.77.15,11.74.3S644.06,401.5,648.2,401.72Z" fill="#dad7f2"/><path d="M607.13,419c-3.72.23-7.54.42-11.43.56s-7.85.25-11.83.31-8,.06-12-.12-8-.36-11.94-.43h0a.38.38,0,0,1-.38-.4h0q.08-4.29,0-8.57c0-2.86-.16-5.72-.25-8.58a.61.61,0,0,1,.59-.63h0l5.89-.23,5.9-.16,11.78-.18c3.93-.05,7.85-.06,11.78,0s7.86.13,11.78.25h.06a.91.91,0,0,1,.89.94c-.07,3-.24,5.92-.38,8.81-.07,1.45-.15,2.87-.24,4.27Zm-.17-.16-.48-8.73c-.14-2.83-.31-5.59-.38-8.34l.94.95c-3.92.12-7.85.22-11.78.26s-7.85.05-11.78,0l-11.78-.19-5.9-.15-5.89-.23.64-.64c-.09,2.86-.22,5.72-.25,8.58s0,5.71,0,8.57l-.4-.4c3.91-.07,7.78-.31,11.63-.43s7.67-.19,11.55-.12,7.77.16,11.74.31S602.82,418.64,607,418.87Z" fill="#dad7f2"/><path d="M601.23,401.89c-3.71.22-7.54.41-11.43.55s-7.85.25-11.82.31-8,.07-12-.12-8-.35-11.94-.43h0a.39.39,0,0,1-.38-.4h0q.09-4.28,0-8.57c0-2.86-.16-5.72-.25-8.57A.62.62,0,0,1,554,384h0l5.89-.23,5.89-.15,11.78-.19c3.93-.05,7.86-.06,11.79,0s7.85.13,11.78.26h.05a.93.93,0,0,1,.9,1c-.07,3-.25,5.92-.39,8.8-.06,1.45-.15,2.88-.24,4.28Zm-.16-.17-.49-8.72c-.13-2.83-.31-5.6-.38-8.34l.95.95q-5.89.18-11.78.25c-3.93.06-7.86.05-11.79,0l-11.78-.18-5.89-.16-5.89-.23.63-.63c-.09,2.85-.21,5.71-.25,8.57s0,5.72,0,8.57l-.4-.39c3.9-.08,7.78-.31,11.62-.44s7.67-.18,11.55-.11,7.77.15,11.74.3S596.93,401.5,601.07,401.72Z" fill="#dad7f2"/><path d="M574.76,131.24H536.9a2.25,2.25,0,0,1-2.25-2.25l5.63-37.86a2.26,2.26,0,0,1,2.26-2.25h26.59a2.25,2.25,0,0,1,2.25,2.25L577,129A2.25,2.25,0,0,1,574.76,131.24Z" fill="#dad7f2"/><path d="M544.31,131.24a11.64,11.64,0,1,0,23,0Z" fill="#d4d3ef"/><path d="M199.78,196.91a1.38,1.38,0,0,1-1.38-1.38V156.35a1.38,1.38,0,1,1,2.75,0v39.18A1.37,1.37,0,0,1,199.78,196.91Z" fill="#d4d3ef"/><path d="M218.71,236.77H180.85a2.26,2.26,0,0,1-2.26-2.25l5.64-37.86a2.26,2.26,0,0,1,2.25-2.26h26.59a2.26,2.26,0,0,1,2.26,2.26L221,234.52A2.25,2.25,0,0,1,218.71,236.77Z" fill="#dad7f2"/><path d="M188.26,236.77a11.45,11.45,0,0,0-.12,1.56,11.64,11.64,0,0,0,23.27,0,13.32,13.32,0,0,0-.11-1.56Z" fill="#d4d3ef"/><path d="M486.85,566.65s-4-2.71-8.49,8.24c0,0-18.41,22.88-30.85,21.88,0,0-14.42,5.48-8.45,15.92s64.67-10,64.67-10l-5.47-18.4-.5-6.47-4.48-.5-.83-9.28Z" fill="#f48225" data-secondary="true"/><path d="M486.85,566.65s-4-2.71-8.49,8.24c0,0-18.41,22.88-30.85,21.88,0,0-14.42,5.48-8.45,15.92s64.67-10,64.67-10l-5.47-18.4-.5-6.47-4.48-.5-.83-9.28Z" opacity="0.2"/><path d="M497.76,577.87l.5,6.47s-2,9.95,12.93,9.45l8.46-5.47,1-14.93Z" fill="#ffc596"/><path d="M448.3,615.13s-5.93,8-1.75,13a6.67,6.67,0,0,0,4,2.22c6,1.1,28.7,4.58,43.27-2.28,0,0,13.93-3,20.89-2.48,0,0,25.87,1.49,15.42-17.91Z" fill="#2c2e63"/><path d="M486.85,566.65l7.92,2.27L486.32,455.5s-11.25,16.19-6.36,39.17a53.73,53.73,0,0,1,1.13,8.46l3.1,60.18A3.67,3.67,0,0,0,486.85,566.65Z" fill="#2c2e63"/><path d="M486.85,566.65l7.92,2.27L486.32,455.5s-11.25,16.19-6.36,39.17a53.73,53.73,0,0,1,1.13,8.46l3.1,60.18A3.67,3.67,0,0,0,486.85,566.65Z" opacity="0.2"/><path d="M437.07,324.66S452.18,395,468,439.47a388.39,388.39,0,0,1,20.44,90.28l4.87,47.62s23.88,5.47,39.8-3.48c0,0,3.48-57.21-12.44-120.88,0,0-9.45-28.36-8-65.17l4-30.84s7-23.38-2.49-50.74l-15.42-30.84Z" fill="#2c2e63"/><path d="M400.18,329.2,412,338.26s8.47-6,7.3-16.91c0,0-6.9-2-11.11-4.64Z" fill="#ffc596"/><path d="M388.41,130.27s14.67,10.67,16.65,17.3c0,0-3.64,14.92,2.33,12.27,0,0,11.94-13.93,22.22-38.14l-3.32-3.31-6-16.25-12.27-1.83-6.72,8S399.35,124,388.41,130.27Z" fill="#ffc596"/><path d="M350.68,183.06l5.39-17s-12,.25-16.84-18.32c0,0-3.49,6.87,0,24.61,0,0,.67,2.91,1.17,5.73Z" fill="#ffc596"/><path d="M357.31,191l2.36-2.6a1.16,1.16,0,0,1,1.81.12,25.3,25.3,0,0,1,3.32,7.06l-6.46.34Z" fill="#2c2e63"/><path d="M313.2,449s4,29.85-3.48,50.24c0,0-6.47,20.9,0,47.76,0,0,8.46,38.3,3.48,53.23,0,0,22.88,23.87,30.35,1,0,0-7.47-2.49-6-13.93,0,0,4.7-53.23,4.23-78.13A48.83,48.83,0,0,1,345,490.7a100,100,0,0,0,6.49-35.7S337.58,456.49,313.2,449Z" fill="#ffc596"/><path d="M333.6,193.34s-4.51,4.6-13.2,7.77c0,0-18,4-7.53,34.34,0,0,1.33,6.31-3.48,9,0,0,8.29,29.85,2.48,47.92,0,0-18.57,45.27-10.61,100l3,53.72s44.77,19.4,76.11,2l-.5-5.47s11.44,0,16.42-5l-3.49-61.19s-2-12.52-4-29.24a288.18,288.18,0,0,0-8.2-41.38c-2.61-9.46-4.95-23.57-3.68-41.8l.3-2.55a70.77,70.77,0,0,1,1.74-9.25l.12-.5a36.89,36.89,0,0,0-10.19-34.91L358.47,206.6s-4.23-1.41-10-7C348.52,199.64,347.28,194.58,333.6,193.34Z" fill="#686175" data-primary="true"/><path d="M341.79,209.62c-7.61,1.54-16.73,7.35-18.14,26,0,0,.5,8.95,6.46,19.9,0,0,7,39.79,21.4,49.25,0,0,6.46,4,11.44,15.42,0,0,8.45,11.44,26.86,6l9.45,4.47s6.47-6.46,9-13.92c0,0-8-1.5-9.46-9,0,0,4-7-21.88-19.9,0,0-10.95-.49-13.93-25.86,0,0-5-18.41-4.48-32.84a39,39,0,0,0-.5-8.43A13.64,13.64,0,0,0,341.79,209.62Z" fill="#686175" data-primary="true"/><path d="M342.07,209.57c-5.76,1.09-12.46,4.59-16,14.28a33.35,33.35,0,0,0-.11,22.07,60.75,60.75,0,0,0,4.19,9.6s7,39.79,21.4,49.25c0,0,6.46,4,11.44,15.42,0,0,8.45,11.44,26.86,6l9.45,4.47s6.47-6.46,9-13.92c0,0-8-1.5-9.46-9,0,0,4-7-21.88-19.9,0,0-10.95-.49-13.93-25.86,0,0-5-18.41-4.48-32.84A39,39,0,0,0,358,221,13.74,13.74,0,0,0,342.07,209.57Z" opacity="0.2"/><line x1="379.86" y1="442.56" x2="380.36" y2="382.37" fill="none" stroke="#000" stroke-miterlimit="10" opacity="0.2"/><path d="M308,615.93s3.73,10.94,2.24,18.4c0,0,7,1.1,11.29.15a2.19,2.19,0,0,0,1.72-2.28c-.22-3.28,0-10.09,6.14-6.82,0,0,13.68,11.94,32.58,9.45,0,0,27.91-.37,20.17-10.76l-11.46,1.06s-37.06-8.21-37.81-8-14.92-3.23-14.92-3.23Z" fill="#2c2e63"/><path d="M354.74,611.45s4.34,5.48,14.34,4.62a6.28,6.28,0,0,1,4.93,1.68,6.54,6.54,0,0,1,1.87,4.89S361.21,622.64,354.74,611.45Z" fill="#686175" data-primary="true"/><path d="M354.74,611.45s4.34,5.48,14.34,4.62a6.28,6.28,0,0,1,4.93,1.68,6.54,6.54,0,0,1,1.87,4.89S361.21,622.64,354.74,611.45Z" opacity="0.2"/><path d="M369.91,218s3.72,2.85,5.11-3.07a8.5,8.5,0,0,0,.19-2.36h0A3.64,3.64,0,0,0,374,210l-5.93-5.2s-2.54,3.09-4,3.46Z" fill="#2c2e63"/><path d="M369.91,218s3.72,2.85,5.11-3.07a8.5,8.5,0,0,0,.19-2.36h0A3.64,3.64,0,0,0,374,210l-5.93-5.2s-2.54,3.09-4,3.46Z" opacity="0.2"/><path d="M353.33,110.43s-1.66,5.63-17.25,12.27" fill="none" stroke="#ed1c24" stroke-miterlimit="10"/><path d="M404.22,158.19s-5.46,50.73,8.47,94.18l11.94,55.71s6,19.9,22.22,18.91l19.64.28a10.57,10.57,0,0,0,10.08-6.69,19.68,19.68,0,0,0,1.12-4.87L481,294.82s15.92,32.83,25.87,28.19c0,0,17.57-4.65,21.22-12.27l-23.54-73.3S486,174.1,470.4,150.55a71.06,71.06,0,0,0-18.57-18.24s-22.56-21.22-22.22-10.61c0,0-15.27,31.73-22.57,38C407,159.73,404.82,161,404.22,158.19Z" fill="#f48225" data-secondary="true"/><path d="M434.58,156.86s-15.92,7.29-3.65,35.81c0,0,13,25.28,17.34,46.94a22.61,22.61,0,0,1-.55,11.23c-.45,1.45-.39,3.59,1.45,6.5,0,0,1.33,6.64-.33,10.28,0,0-3.32,1.66-4.64,10.62,0,0-7.23,20.53-19.53,26.22a3,3,0,0,0-1.47,3.94c2.94,6.32,11.29,19.94,26.3,13,0,0,28.64-25.52,36.16-63.6a42,42,0,0,0,.74-7.51c.22-16.28-.63-80.29-26.61-97C459.79,153.21,453.15,147.57,434.58,156.86Z" fill="#f48225" data-secondary="true"/><path d="M434.58,156.86s-15.92,7.29-3.65,35.81c0,0,13,25.28,17.34,46.94a22.61,22.61,0,0,1-.55,11.23c-.45,1.45-.39,3.59,1.45,6.5,0,0,1.33,6.64-.33,10.28,0,0-3.32,1.66-4.64,10.62,0,0-7.23,20.53-19.53,26.22a3,3,0,0,0-1.47,3.94c2.94,6.32,11.29,19.94,26.3,13,0,0,28.64-25.52,36.16-63.6a42,42,0,0,0,.74-7.51c.22-16.28-.63-80.29-26.61-97C459.79,153.21,453.15,147.57,434.58,156.86Z" opacity="0.2"/><path d="M451.16,188c-.4,1-.82,2-1.2,3s-.8,2-1.17,3c-.74,2-1.46,4-2.06,6a42.73,42.73,0,0,0-1.48,6.18,12,12,0,0,0-.2,1.57,14.12,14.12,0,0,0-.09,1.59c0,.52,0,1.06,0,1.59s.15,1.05.21,1.59a14.28,14.28,0,0,1-.7-6.43,27.29,27.29,0,0,1,.46-3.23c.25-1,.5-2.11.82-3.15a46.53,46.53,0,0,1,2.31-6A44.43,44.43,0,0,1,451.16,188Z" fill="#f48225" data-secondary="true"/><path d="M457.13,236.45a11.15,11.15,0,0,1-.84,4.37,18.94,18.94,0,0,1-2.12,3.94,23,23,0,0,1-2.93,3.37c-.54.52-1.12,1-1.69,1.45s-1.2.87-1.83,1.26c.49-.57,1-1.08,1.5-1.62l1.45-1.63c.45-.57,1-1.09,1.38-1.67s.89-1.14,1.3-1.73a30,30,0,0,0,2.23-3.68A18.92,18.92,0,0,0,457.13,236.45Z" fill="#f48225" data-secondary="true"/><path d="M463.1,258a22,22,0,0,1-6.14,6.28,21.16,21.16,0,0,1-3.87,2.14,16.71,16.71,0,0,1-4.25,1.19c1.34-.6,2.66-1.18,3.91-1.89a40.28,40.28,0,0,0,3.65-2.26c1.18-.81,2.31-1.69,3.43-2.6S462,259,463.1,258Z" fill="#f48225" data-secondary="true"/><g opacity="0.2"><path d="M418.33,179.74l2.74,6.9c.92,2.29,1.83,4.59,2.79,6.86s1.95,4.52,3,6.74a35.31,35.31,0,0,0,3.73,6.36c-.43-.44-.88-.88-1.29-1.35l-1.15-1.47c-.69-1-1.37-2.09-2-3.18a64.85,64.85,0,0,1-3.24-6.72c-.95-2.29-1.83-4.61-2.59-7S418.87,182.16,418.33,179.74Z"/></g><path d="M423.2,308.4s-11.83.68-11.83,10.3l8,2.65S421,329,412,338.26c0,0-3.65,5.64,4.64,2.65,0,0,.33,3,6.64.34,0,0,1.32,4.31,6.3.33,0,0,1.34,2,4.58.34a8.35,8.35,0,0,0,3.37-3.32,56.09,56.09,0,0,0,6-15.26S431.51,326,423.2,308.4Z" fill="#ffc596"/><path d="M424,333.62a9.58,9.58,0,0,1-1.08,2.45,12.93,12.93,0,0,1-1.63,2.13,8.87,8.87,0,0,1-4.59,2.71c.71-.55,1.4-1.06,2-1.63s1.26-1.14,1.84-1.77C421.72,336.29,422.8,335,424,333.62Z" fill="#ffa072"/><path d="M423.3,341.25c1.39-1.14,2.8-2.13,4.12-3.24a23.51,23.51,0,0,0,1.89-1.71,13,13,0,0,0,1.62-2,5.5,5.5,0,0,1-1,2.52,10,10,0,0,1-1.86,2,12.64,12.64,0,0,1-2.24,1.49A10.48,10.48,0,0,1,423.3,341.25Z" fill="#ffa072"/><path d="M429.61,341.58c.7-.59,1.34-1.19,2-1.81s1.22-1.26,1.78-1.93,1.11-1.34,1.63-2,1-1.44,1.59-2.17a9.83,9.83,0,0,1-.93,2.58,11.73,11.73,0,0,1-1.53,2.29,11.3,11.3,0,0,1-2,1.87A7.66,7.66,0,0,1,429.61,341.58Z" fill="#ffa072"/><path d="M313.2,600.26s-2.49-3-4.23,4.72c0,0-2.73,6.47-1,10.95,0,0,15.92.49,28.1,6.71,0,0,25.07,14.46,46,3.05a.93.93,0,0,0,0-1.62c-1.33-.77-4.48-1.75-12-2.18,0,0-10-1.24-17.66-13.43,0,0-8.46-15.42-8.95-7.21,0,0-3.24,12.19-13.93,9.45C329.62,610.7,321.66,610,313.2,600.26Z" fill="#686175" data-primary="true"/><path d="M358.44,207.06s5.17,2.86,5.17,20.43l7,1-.52-8.65a9.3,9.3,0,0,0-1.33-4.26l-4.45-7.32L358.64,201Z" fill="#2c2e63"/><path d="M358.54,195.59l9.58-.57a.9.9,0,0,1,.92.78c.31,2.39,1.61,9.61-4.77,12.46L358.64,201Z" fill="#2c2e63"/><path d="M358.54,201.68l0-2.05,4.31-.26a1,1,0,0,1,1.06.93h0a1,1,0,0,1-.93,1.07Z" fill="#686175" data-primary="true"/><path d="M354.5,170.94l1.57-4.88s-13.37-9.45-15.19-21.56C340.88,144.5,337.65,159.43,354.5,170.94Z" fill="#ffa072"/><ellipse cx="356.07" cy="135.89" rx="18.41" ry="30.18" fill="#ffc596"/><path d="M348.75,129.24c6.76-4.23,24.77-17.18,12.21-28.1,0,0-31.18-22.88-52.07,10,0,0-11.28,12.6-3.65,44.77,0,0,4,12.6-3.31,20.56,0,0-19.9,20.9-2.66,48.75,0,0,8,15.26-8.95,18.91,0,0,24.54,8.62,22.55-8.63,0,0-9-21.86,3.22-32a14.52,14.52,0,0,1,4.31-2.37c5.17-1.86,21.59-8.54,20-23.69,0,0-6.31-24.88,1.32-34.16l3.62-9.81A8.36,8.36,0,0,1,348.75,129.24Z" fill="#2c2e63"/><ellipse cx="342.01" cy="134.86" rx="6.39" ry="9.21" transform="translate(-25.15 153.57) rotate(-24.44)" fill="#ffc596"/><path d="M325.14,155.53s6.06,12.66-5.79,30.92a56.52,56.52,0,0,1-6.94,8.58c-4,4.17-13.07,15.7-6.5,30.14" fill="none" stroke="#000" stroke-miterlimit="10" opacity="0.2"/><path d="M393.25,134.1l-4.84-3.83s13.52-27.85,13.52-28.46S406.17,124.42,393.25,134.1Z" fill="#ffa072"/><ellipse cx="383.84" cy="100.81" rx="18.9" ry="31.51" fill="#ffc596"/><path d="M421,114.74c-7,2-12.93-14.43-12.93-14.43l-9.95-4.48a34.2,34.2,0,0,1-6.3,5.31,56.39,56.39,0,0,0-1.33-8c-1.41-5.43-3.92-6.35-5.67-6.23A7.93,7.93,0,0,1,379,85.18C373,80,375.88,72,375.88,72c-8.62,8.62-7.63,12.27-7.63,12.27s-12.27-4.31-2-16.92c0,0-7.62-11.94,15.59-11.6,0,0,4,2,8.95-1,0,0,27.2-9.28,28.19,3.65,0,0,14.93.66,16.59,13.93,0,0,2,13.6-3,25.87a22.65,22.65,0,0,0-.16,6.8.75.75,0,0,1-1.05.82c-1.54-.71-3.64-.79-3.43,4.32,0,0-.67,4.64,1.32,7.29a6.17,6.17,0,0,1-5.3.33A6,6,0,0,1,421,114.74Z" fill="#2c2e63"/><ellipse cx="402.58" cy="100.31" rx="5.47" ry="7.79" fill="#ffc596"/><path d="M498.26,584.34s-5-4-19.41,11.44c0,0-8,9.45-23.38,15.42,0,0-4.55,1.2-7.17,3.93a3.82,3.82,0,0,0,1.15,6.09c5.9,2.74,20.17,7.46,37.86-.07,0,0,14.92-8.46,30.35-7,0,0,9.45,0,12.43-6.46l-8-19.4h-2.48l-8.46,5.47S497.26,594.78,498.26,584.34Z" fill="#f48225" data-secondary="true"/><path d="M358.47,206.6s2.65-22-7.79-23.54l-10.28-5s1.53,7.82-6.53,15.37c0,0,9.64.19,14.65,6.19C348.52,199.64,353.83,205.11,358.47,206.6Z" fill="#686175" data-primary="true"/><path d="M358.47,206.6s2.65-22-7.79-23.54l-10.28-5s1.53,7.82-6.53,15.37c0,0,9.64.19,14.65,6.19C348.52,199.64,353.83,205.11,358.47,206.6Z" opacity="0.2"/><path d="M372.43,142.54l1.84,4.71a1.36,1.36,0,0,1-1,1.82l-1.79.38" fill="none" stroke="#ffa072" stroke-miterlimit="10"/><path d="M367.77,136.58a1.25,1.25,0,0,0,1.74-.34,1.23,1.23,0,0,0,.21-.66c1,.35,1.23-.22,1.23-.22-.26.17-1.27-.5-1.68-.78h0l-.12-.09h0l-.05,0a1.25,1.25,0,0,0-1.32,2.13Z" fill="#2c2e63"/><path d="M372,133.24h0a.58.58,0,0,1-.8.31c-1-.52-3.23-1.46-4.83-.93,0,0,1.34-1.68,5.3-.14A.59.59,0,0,1,372,133.24Z" fill="#2c2e63"/><path d="M362.16,152.42a4,4,0,0,0,2.74,3.25,2.49,2.49,0,0,0,3-.84S364.88,156.52,362.16,152.42Z" fill="#f88968"/><path d="M341.29,134.14a1.76,1.76,0,0,0,0,1.3,1.26,1.26,0,0,0,.68.68,5.88,5.88,0,0,1,1.36.76,1.8,1.8,0,0,1,.51.79.86.86,0,0,1-.16.87.88.88,0,0,0-.36-.57,2,2,0,0,0-.53-.29,9.24,9.24,0,0,1-1.38-.48,2,2,0,0,1-.77-.65,1.79,1.79,0,0,1-.3-1A1.45,1.45,0,0,1,341.29,134.14Z" fill="#ffa072"/><path d="M339.51,135.14a2.6,2.6,0,0,1,.08-4.36,2.25,2.25,0,0,1,1.37-.37,1.72,1.72,0,0,1,1.31.68,2.44,2.44,0,0,1,.45,1.2,10.7,10.7,0,0,1,0,1.13c-.48-.61-.72-1.37-1.17-1.67a.8.8,0,0,0-.63-.18,1.54,1.54,0,0,0-.7.24,2.09,2.09,0,0,0-.92,1.33A3.83,3.83,0,0,0,339.51,135.14Z" fill="#ffa072"/><path d="M366.26,109l-.85,4.7a1.29,1.29,0,0,0,1.25,1.52l1.73,0" fill="none" stroke="#ffa072" stroke-miterlimit="10"/><path d="M368.22,97h0a.75.75,0,0,0,1,.41c1.36-.66,4.27-1.85,6.36-1.13,0,0-1.73-2.24-6.95-.28A.77.77,0,0,0,368.22,97Z" fill="#2c2e63"/><path d="M379,116.84a5.22,5.22,0,0,1-3.43,4.42,3.24,3.24,0,0,1-3.91-.94S375.67,122.37,379,116.84Z" fill="#f88968"/><ellipse cx="371.73" cy="100.11" rx="0.9" ry="1.72" transform="translate(-3.68 14.83) rotate(-2.27)" fill="#2c2e63"/></svg>