<svg id="b1d19c20-e6be-4ebd-8786-0bd9f0080706" data-name="Layer 1" xmlns="http://www.w3.org/2000/svg" width="865.76" height="682.89" viewBox="0 0 865.76 682.89"><g id="a48196d2-70b8-4051-941f-c4e4765b3c97" data-name="freepik--background-complete--inject-4"><path d="M811.45,527.21a41.58,41.58,0,0,1-5.53,1c-1.86.24-3.72.43-5.58.64l-11.18,1.09-22.39,1.82L722,535c-14.93,1-29.87,2.1-44.77,3.46-3.72.36-7.45.72-11.13,1.28a34.84,34.84,0,0,0-5.43,1.19,20.57,20.57,0,0,0-5.09,2.16,4.07,4.07,0,0,0-1.72,1.9,2.52,2.52,0,0,0,.6,2.36,15.15,15.15,0,0,0,4.34,3.37A80.92,80.92,0,0,0,669,555.32,73.5,73.5,0,0,1,658.57,551a15.41,15.41,0,0,1-4.56-3.36,3.12,3.12,0,0,1-.76-2.83,4.67,4.67,0,0,1,1.9-2.24,20.76,20.76,0,0,1,5.2-2.33,35.93,35.93,0,0,1,5.52-1.28c3.72-.6,7.44-1,11.16-1.44,14.9-1.55,29.84-2.62,44.77-3.76l44.82-3L789,529.35l11.2-.8,5.59-.5A38.44,38.44,0,0,0,811.45,527.21Z" fill="#ebebeb"/><path d="M92.23,525.68A62.82,62.82,0,0,0,101,527c2.93.31,5.87.56,8.8.82q8.82.72,17.65,1.27l35.3,2.42,70.64,4.78c23.53,1.76,47.07,3.43,70.56,5.84,5.86.63,11.74,1.27,17.58,2.21a52.26,52.26,0,0,1,8.65,2,32,32,0,0,1,8.16,3.6,7.11,7.11,0,0,1,2.94,3.44,3.86,3.86,0,0,1,0,2.33,6.36,6.36,0,0,1-1.12,2,16,16,0,0,1-3.33,3A37,37,0,0,1,333,563a120.29,120.29,0,0,1-16.32,6.85,120.64,120.64,0,0,0,16.17-7.13,35.93,35.93,0,0,0,3.72-2.36,14.81,14.81,0,0,0,3.18-2.94,5.7,5.7,0,0,0,1-1.86,3.44,3.44,0,0,0,0-2,6.64,6.64,0,0,0-2.78-3.1,32.46,32.46,0,0,0-8-3.44,55.83,55.83,0,0,0-8.57-1.91c-5.82-.86-11.7-1.45-17.56-2-23.48-2.21-47-3.83-70.56-5.55l-70.6-5.09c-11.77-.89-23.53-1.78-35.29-2.78q-8.82-.76-17.63-1.63c-2.93-.32-5.86-.62-8.79-1A62.71,62.71,0,0,1,92.23,525.68Z" fill="#ebebeb"/><path d="M832.09,461.9A81.62,81.62,0,0,1,821,463.72c-3.72.42-7.46.74-11.19,1-7.45.57-14.93,1-22.39,1.37-15,.72-29.92,1.28-44.86,1.76s-29.91,1.07-44.84,1.9c-7.45.44-14.94.86-22.32,1.83a35.5,35.5,0,0,0-5.39,1.09,7.44,7.44,0,0,0-2.32,1.08,1,1,0,0,0-.24.3.23.23,0,0,0,0,.2,2.71,2.71,0,0,0,.8.71,25,25,0,0,0,5,2.09c1.76.58,3.56,1.12,5.34,1.64,3.59,1.07,7.19,2.12,10.75,3.34,1.77.62,3.54,1.27,5.28,2.06a18.4,18.4,0,0,1,4.93,3A4.25,4.25,0,0,1,701,490a3,3,0,0,1-.09.85,2.33,2.33,0,0,1-.42.83,4.64,4.64,0,0,1-1.27,1,23,23,0,0,1-5.43,1.92c-3.67.88-7.39,1.46-11.1,2-14.88,1.95-29.81,2.92-44.74,4s-29.86,1.9-44.76,3.19c-3.72.32-7.45.65-11.16,1.08a83.79,83.79,0,0,0-11,1.85,8.44,8.44,0,0,0-2.55,1,10.91,10.91,0,0,0-2,1.92,8,8,0,0,0-1.6,5.18,13.32,13.32,0,0,0,1.54,5.33,21.66,21.66,0,0,0,3.1,4.65,22.13,22.13,0,0,1-3.18-4.61,13.48,13.48,0,0,1-1.59-5.36,8.14,8.14,0,0,1,1.57-5.35,10.88,10.88,0,0,1,2-2,8.66,8.66,0,0,1,2.62-1.11,84.67,84.67,0,0,1,11.06-2c3.72-.47,7.44-.86,11.16-1.27,14.92-1.36,29.85-2.31,44.77-3.4s29.86-2.17,44.65-4.18a110.86,110.86,0,0,0,11-2,21.92,21.92,0,0,0,5.09-1.82,3.7,3.7,0,0,0,.92-.74.93.93,0,0,0,.2-.41,1.57,1.57,0,0,0,0-.53,3.06,3.06,0,0,0-1.12-2,17.21,17.21,0,0,0-4.61-2.79c-1.68-.75-3.41-1.38-5.17-2-3.53-1.2-7.12-2.22-10.71-3.28-1.8-.53-3.6-1.07-5.38-1.67a26.79,26.79,0,0,1-5.29-2.25,3.56,3.56,0,0,1-1.27-1.2,1.47,1.47,0,0,1-.08-1.16,2.06,2.06,0,0,1,.6-.8,8.11,8.11,0,0,1,2.73-1.27,35.57,35.57,0,0,1,5.6-1.11c7.47-.94,14.95-1.28,22.42-1.73,15-.76,29.9-1.21,44.86-1.69s29.91-.91,44.85-1.54c7.48-.28,15-.6,22.42-1,3.74-.25,7.45-.51,11.19-.87A80.7,80.7,0,0,0,832.09,461.9Z" fill="#ebebeb"/><path d="M33.13,440.49A29.72,29.72,0,0,0,40,444c2.39.93,4.84,1.73,7.28,2.46,4.93,1.45,9.92,2.69,14.92,3.82,10,2.23,20.1,4.09,30.22,5.82,20.23,3.51,40.55,6.45,60.88,9.23s40.7,5.35,61.06,8c10.19,1.35,20.38,2.55,30.57,4.34a33,33,0,0,1,3.82.87,8.11,8.11,0,0,1,1.94.83,2.56,2.56,0,0,1,.48.45,1.27,1.27,0,0,1,.28.88,1.75,1.75,0,0,1-.82,1.18,14.92,14.92,0,0,1-3.72,1.54c-1.28.37-2.55.69-3.83,1-5,1.18-10.06,2.14-15.08,3.16s-10.05,2.05-15,3.37a55,55,0,0,0-7.21,2.42,11.21,11.21,0,0,0-3.1,1.89c-.84.79-1,1.78,0,2.3a14.63,14.63,0,0,0,3.43,1.28c1.27.32,2.47.58,3.72.81,2.55.47,5.1.84,7.58,1.18,5.1.64,10.19,1.14,15.29,1.59,20.44,1.72,40.95,2.72,61.45,3.76s41.06,1.88,61.56,3.15c10.19.67,20.49,1.28,30.7,2.64a51.45,51.45,0,0,1,7.58,1.45,6.94,6.94,0,0,1,1.77.82,13.42,13.42,0,0,1,1.62,1.08,8.08,8.08,0,0,1,2.45,2.93,6.05,6.05,0,0,1,.39,3.82,10.46,10.46,0,0,1-1.52,3.55,23.67,23.67,0,0,1-5.3,5.55,23.18,23.18,0,0,0,5.2-5.62,10.09,10.09,0,0,0,1.46-3.5,5.75,5.75,0,0,0-.43-3.7,7.7,7.7,0,0,0-2.42-2.86,12.93,12.93,0,0,0-1.61-1,6,6,0,0,0-1.72-.77,49.23,49.23,0,0,0-7.52-1.37c-10.2-1.21-20.45-1.76-30.69-2.37-20.49-1.18-41-2-61.51-3s-41-1.91-61.5-3.57c-5.1-.43-10.19-.91-15.29-1.55-2.55-.32-5.09-.69-7.64-1.15-1.27-.24-2.55-.49-3.82-.82a15.25,15.25,0,0,1-3.76-1.42,3.31,3.31,0,0,1-.89-.78,2.12,2.12,0,0,1-.37-1.27,3,3,0,0,1,1-2.09,12,12,0,0,1,3.44-2.13,53,53,0,0,1,7.37-2.54c5-1.37,10-2.42,15-3.46s10.08-2,15.05-3.14c1.27-.3,2.48-.61,3.69-1a14.3,14.3,0,0,0,3.38-1.35,1.34,1.34,0,0,0,.32-.31c0,.1,0-.06-.25-.2a6.67,6.67,0,0,0-1.6-.69c-1.21-.35-2.43-.64-3.67-.87-10.08-1.77-20.28-3-30.45-4.42-20.38-2.7-40.7-5.35-61-8.2s-40.65-5.87-60.88-9.44c-10.1-1.83-20.18-3.82-30.18-6.15-5-1.17-10-2.46-14.88-3.95-2.46-.77-4.89-1.59-7.27-2.55A30.15,30.15,0,0,1,33.13,440.49Z" fill="#ebebeb"/><path d="M726.43,454.24c-7.47.37-14.94.75-22.41,1.27s-14.93.93-22.38,1.52-14.91,1.21-22.32,2.05a187.18,187.18,0,0,0-22.08,3.52,33.27,33.27,0,0,0-5.25,1.64,7.79,7.79,0,0,0-2.2,1.27,2.22,2.22,0,0,0-.37.44,5.64,5.64,0,0,0-.31.53,3.53,3.53,0,0,0-.36,1.14c-.23,1.58,1,3,2.43,4.08a28,28,0,0,0,4.72,2.78c1.67.82,3.38,1.56,5.1,2.35.85.39,1.71.8,2.55,1.27a10.36,10.36,0,0,1,1.27.79,3,3,0,0,1,1.08,1.34,1.38,1.38,0,0,1-.1,1.09,2.1,2.1,0,0,1-.6.69,4.31,4.31,0,0,1-1.4.71,20.56,20.56,0,0,1-2.8.73c-1.86.36-3.72.59-5.59.79-14.93,1.46-29.91,1.66-44.87,1.67,7.48-.24,15-.5,22.42-.91s14.93-.82,22.33-1.72c1.85-.24,3.7-.49,5.51-.87a20,20,0,0,0,2.63-.71,3.47,3.47,0,0,0,1.09-.54c.31-.26.4-.45.34-.6a2.16,2.16,0,0,0-.71-.79,8,8,0,0,0-1.11-.7c-.8-.45-1.63-.84-2.55-1.28-1.68-.76-3.41-1.5-5.1-2.31a30.47,30.47,0,0,1-4.94-2.88,9.19,9.19,0,0,1-2.1-2.12,4.42,4.42,0,0,1-.8-3.07,4.66,4.66,0,0,1,.47-1.51,5.63,5.63,0,0,1,.38-.68,3.06,3.06,0,0,1,.54-.65,9,9,0,0,1,2.54-1.57,35.71,35.71,0,0,1,5.43-1.73,187.85,187.85,0,0,1,22.26-3.43c7.45-.77,14.9-1.42,22.38-1.87Q704,454.59,726.43,454.24Z" fill="#ebebeb"/><path d="M28.76,349.44c-.78,0-.85-1.55,0-1.66,3.64-.46,7.3-3.72,10.94-4.2s7.23-.88,10.46-2.55c5.43-2.73,8.8-8.18,14.41-10.79,9.85-4.59,20-2.61,29.58,1.42a33.85,33.85,0,0,0,18.12,2.67c5.59-.72,11-2.26,16.56-3.06a33.06,33.06,0,0,1,14.93.73c5,1.61,9.3,4.75,14,7,6.22,3,12.34,2.55,19,2.68,4.81.14,14.86,3.18,14.86,6.43C191.76,350.35,38.3,349.44,28.76,349.44Z" fill="#ebebeb"/><path d="M837,332.08c-6.72,0-174.52-1.17-221.85-1.17-3.31,0,.88-5.73,2.7-6.13,5.82-1.27,11.9-1.35,17.84-2a57.87,57.87,0,0,0,17-4.25c4.66-2,9.31-4.24,14.37-5,9.75-1.53,18.31,3.75,27.47,6.1a20.71,20.71,0,0,0,16.64-2.28c4.24-2.55,8.09-5.58,12.51-7.82A68.61,68.61,0,0,1,778.43,307a63.09,63.09,0,0,1,12,6.14c4.47,2.93,8.33,6.67,12.81,9.58,9.94,6.43,22.22,4.33,33.12,8C836.91,330.94,837.58,332.08,837,332.08Z" fill="#ebebeb"/><path d="M229.64,173.28c-8.91,0-158.43,1-167.83.67-.68,0-1-1-.37-1.27,5.92-2.93,12.65-2.34,18.8-4.42,3.63-1.27,5.85-3.59,8.37-6.37a17.31,17.31,0,0,1,7.78-5.1,16.55,16.55,0,0,1,8.47-.26c3,.72,5.67,2.46,8.56,3.55,7.16,2.7,14.17.15,19.3-5.16,4.23-4.38,8.39-8.52,14.14-10.88a18.74,18.74,0,0,1,15-.2c5.47,2.55,9.24,7.48,14.39,10.48,6.12,3.57,13.41,2.73,20.17,3.83s11.92,6.76,17.83,10a12.68,12.68,0,0,0,6.46,2,33.92,33.92,0,0,0,3.92-.56c2-.25,4-.19,5.34,1.51C230.29,171.52,230.23,173.28,229.64,173.28Z" fill="#ebebeb"/><path d="M589.69,234.55c-6.5,0-115.69.73-122.55.5-.49,0-.75-.74-.27-1,4.33-2.14,9.24-1.71,13.73-3.22,2.65-.89,4.27-2.63,6.1-4.6a12.77,12.77,0,0,1,5.69-3.72,11.93,11.93,0,0,1,6.19-.19,52.83,52.83,0,0,1,6.25,2.55c5.25,2,10.35.1,14.09-3.83,3.08-3.19,6.12-6.21,10.32-7.93a13.69,13.69,0,0,1,10.94-.16c4,1.81,6.75,5.47,10.51,7.65,4.46,2.61,9.8,2,14.72,2.77s8.71,4.93,13,7.33a9.18,9.18,0,0,0,4.71,1.45,25.42,25.42,0,0,0,2.87-.41,4,4,0,0,1,3.9,1.11C590.16,233.28,590.11,234.55,589.69,234.55Z" fill="#ebebeb"/><path d="M626.17,158.2H440.78c-.75,0-1-.81-.28-1.15,6.64-3.12,14.08-2.32,21-4.47,4-1.28,6.56-3.82,9.41-6.8a19.06,19.06,0,0,1,8.75-5.46,18.16,18.16,0,0,1,9.4-.1c3.35.87,6.23,2.85,9.42,4.14,7.9,3.17,15.7.47,21.51-5.3,4.79-4.76,9.51-9.26,15.94-11.74a20.86,20.86,0,0,1,16.56.11c6,2.89,10.09,8.52,15.73,12,6.69,4.1,14.82,3.32,22.27,4.67s13.67,4.57,20.17,8.33a13.81,13.81,0,0,0,7.11,2.37,42.64,42.64,0,0,0,4.35-.52c2.27-.23,4.41-.13,5.9,1.78C628.39,156.51,630.53,158.2,626.17,158.2Z" fill="#ebebeb"/><path d="M371.05,310.29c-.13.37-172.1,0-169.93,0,1,0-1.49-1.48-.52-2,5.59-2.78,11.72-2.85,17.83-3.42a27.38,27.38,0,0,0,10.41-2.54c3.25-1.7,5.27-4.64,7.57-7.37a32.32,32.32,0,0,1,29.3-11.12c12.23,1.91,21.87,11.23,34.11,12.95,7.37,1,14.32-1.83,21.52-2.83A26.31,26.31,0,0,1,337.48,297c3.82,1.93,7.46,3.54,11.85,3.82,3.37.25,6.75-.15,10.19-.17a22.61,22.61,0,0,1,14.89,5.95C374.93,307.08,376.64,310.29,371.05,310.29Z" fill="#ebebeb"/></g><g id="ace2daf1-1dd0-45b9-a3a9-6a276c75bf86" data-name="freepik--Ocean--inject-4"><path d="M38.71,417.56h778.8c32.33,0,.23,4.11-26.53,4.54s-107.76,2.64-107.5,5.48,42.83,6.15,42.83,10.42-123.92,7.64-129.43,10.12,13.34,3.25,5.1,5.84c-6.19,2-93.76,3.82-130.27,6.52-12.17.91,7.41,5.43-12.08,9.19-8.76,1.68-142.51,2.75-193.36-2.82-42-4.6-25-8.92-37.9-11-18.38-3-55.08-3.06-55.08-6.67,0-3.15,35.13-6.05,26.37-7.8-24.73-4.92-93.28-2.06-98.85-6.22-4.71-3.5,41.23-5.41,26.39-7.93-8.21-1.39-44.06-2.87-60.3-4C59.44,422.66,21.54,419.42,38.71,417.56Z" fill="#ebebeb"/><path d="M88.12,417.56H769.23c28.28,0,.22,3.83-23.2,4.23s-94.27,2.46-94,5.1,37.46,5.73,37.46,9.72-108.39,7.13-113.2,9.44,11.65,3,4.44,5.45c-5.41,1.81-82,3.57-113.92,6.08-10.65.84,6.47,5.09-10.56,8.57-7.65,1.57-124.4,1.91-169.12-2.62-46.49-4.73-30.81-8.65-36.53-9.62-16.19-2.73-53.38-3.52-53.38-6.91,0-2.93,39.33-5.64,31.65-7.26-21.66-4.6-81.53-1.92-86.44-5.79-4.11-3.28,36-5.1,23.07-7.42-7.17-1.27-38.52-2.66-52.73-3.72C106.21,422.3,73.12,419.3,88.12,417.56Z" fill="#dbdbdb"/><path d="M760.08,418.48c-10.64,1.16-21.37,1.5-32.06,2.08l-32.11,1.37q-16.06.57-32.11,1.28c-2.67.11-5.35.23-8,.39a52.66,52.66,0,0,0-7.92.93,15.19,15.19,0,0,0-1.9.51c-.56.19-1.28.59-1.14.94a3.29,3.29,0,0,0,1.48,1c.6.26,1.28.49,1.85.71,2.55.81,5.16,1.43,7.77,2a75.29,75.29,0,0,1-7.86-1.69c-.65-.19-1.29-.4-1.92-.65a8,8,0,0,1-.93-.46,1.91,1.91,0,0,1-.83-.76.75.75,0,0,1,0-.71,1.33,1.33,0,0,1,.41-.44,4.7,4.7,0,0,1,.94-.5,16.48,16.48,0,0,1,2-.61,52.75,52.75,0,0,1,8-1.12c2.68-.23,5.35-.4,8-.57,10.7-.67,21.4-1.07,32.1-1.55L728,419.61l16-.48C749.41,419,754.77,418.84,760.08,418.48Z" fill="#fff"/><path d="M385.15,463.67c-10,.14-20,0-29.95-.21s-19.95-.48-29.94-.75-19.95-.74-29.92-1.27l-7.48-.49a69.22,69.22,0,0,1-7.46-.85,44.5,44.5,0,0,1-7.29-1.85,19,19,0,0,1-3.43-1.58,4.58,4.58,0,0,1-2.35-2.8,4.43,4.43,0,0,0,2.45,2.62,18.74,18.74,0,0,0,3.44,1.42,47.6,47.6,0,0,0,7.28,1.54,70.82,70.82,0,0,0,7.41.67l7.48.3,29.92,1,29.93,1.07Z" fill="#fff"/><path d="M642,435.4c-5.25.71-10.55.92-15.83,1.27s-10.57.45-15.86.63l-31.73.82-31.72.77c-5.27.15-10.56.32-15.83.6a76.16,76.16,0,0,0-7.83.71l-.91.2a4.29,4.29,0,0,0-.63.23.23.23,0,0,0,.08-.12.51.51,0,0,0,0-.3c-.06-.15-.08-.11,0-.11a1.48,1.48,0,0,0,.31.15c.25.1.56.19.86.28,1.28.32,2.55.55,3.82.78,5.2.9,10.45,1.55,15.66,2.9q1,.27,2,.63a7.34,7.34,0,0,1,1,.47,2.32,2.32,0,0,1,1,.93,1.26,1.26,0,0,1,0,1,1.33,1.33,0,0,1-.62.62,5,5,0,0,1-1,.41c-.68.18-1.28.3-2,.42-2.65.45-5.29.67-7.93.9-10.57.82-21.14,1.28-31.72,1.6l-31.72,1.08c-5.28.23-10.57.41-15.83.8-1.28.1-2.64.22-3.94.4a13.8,13.8,0,0,0-1.92.35,6.72,6.72,0,0,0-1.74.86,2.22,2.22,0,0,0-.66,3.31,9.62,9.62,0,0,0,2.87,2.67,9.52,9.52,0,0,1-3-2.61,2.65,2.65,0,0,1-.52-1.92,2.75,2.75,0,0,1,1.13-1.67,6.87,6.87,0,0,1,1.8-.94,14.49,14.49,0,0,1,2-.4c1.27-.2,2.64-.34,3.95-.47,5.27-.48,10.56-.8,15.85-1.07l31.7-1.41c10.56-.49,21.14-.88,31.66-1.74,2.63-.24,5.26-.48,7.82-.91.64-.12,1.28-.24,1.88-.41a4.89,4.89,0,0,0,.8-.31c.1,0,.13-.08.09,0h0a1.43,1.43,0,0,0-.47-.38,8.67,8.67,0,0,0-.82-.38,17,17,0,0,0-1.83-.59c-5.1-1.27-10.34-1.89-15.55-2.84-1.27-.23-2.61-.46-3.93-.81a8.64,8.64,0,0,1-1-.32,3.15,3.15,0,0,1-.57-.31,1,1,0,0,1-.39-.47,1,1,0,0,1,0-.55,1.46,1.46,0,0,1,.22-.33,2,2,0,0,1,.65-.37l.53-.17c.35-.09.68-.16,1-.22a73.65,73.65,0,0,1,8-.7c5.29-.27,10.58-.42,15.87-.55q15.86-.39,31.73-.57l31.74-.47q7.93-.12,15.86-.34C631.42,436.06,636.75,436,642,435.4Z" fill="#fff"/><path d="M564.73,432.28,533,433.64c-10.57.52-21.19,1-31.68,2.12-1.28.15-2.55.31-3.9.53-.65.1-1.27.23-1.91.37a5.89,5.89,0,0,0-1.63.59,1.1,1.1,0,0,0-.41.47.47.47,0,0,0,.13.32,4.42,4.42,0,0,0,1.48.87,26.58,26.58,0,0,0,3.7,1.19l3.82,1c.65.17,1.28.34,1.95.57a4.56,4.56,0,0,1,1.05.49,1.12,1.12,0,0,1,.34.38.86.86,0,0,1,.07.45.68.68,0,0,1-.17.35,1.5,1.5,0,0,1-.64.44,18.14,18.14,0,0,1-4.07.62c-1.28.11-2.67.18-4,.25-10.61.46-21.21.48-31.85.32l15.9-.52c5.29-.19,10.59-.39,15.86-.75,1.27-.09,2.64-.19,3.95-.32a21.68,21.68,0,0,0,3.76-.61c.11,0,.24-.14.19-.09a.32.32,0,0,0,0,.34h0a3.6,3.6,0,0,0-.75-.34c-.6-.2-1.28-.36-1.88-.52l-3.82-1a28.66,28.66,0,0,1-3.82-1.2,5.59,5.59,0,0,1-1.9-1.17,1.77,1.77,0,0,1-.38-.63,1.27,1.27,0,0,1,0-.86,2.21,2.21,0,0,1,.82-1.06,6.33,6.33,0,0,1,2.06-.81c.66-.17,1.27-.29,2-.41,1.27-.23,2.65-.41,4-.57,5.29-.59,10.59-.91,15.89-1.2s10.6-.52,15.9-.65l15.89-.33C554.13,432.28,559.43,432.23,564.73,432.28Z" fill="#fff"/><path d="M134,419.6c5.3-.06,10.6,0,15.9,0l15.9.33c5.31.13,10.6.39,15.9.65s10.6.61,15.9,1.2c1.27.17,2.63.34,4,.57.66.12,1.27.25,2,.41a6.27,6.27,0,0,1,2.07.82,2.29,2.29,0,0,1,.82,1.05,1.4,1.4,0,0,1,0,.86,1.74,1.74,0,0,1-.4.63,5.24,5.24,0,0,1-1.9,1.16,28.25,28.25,0,0,1-3.82,1.21l-3.82,1c-.64.15-1.27.32-1.86.52a5.13,5.13,0,0,0-.76.33h0a.43.43,0,0,0,0-.35l.19.1a22.34,22.34,0,0,0,3.82.6c1.27.14,2.62.24,3.95.33,5.27.35,10.57.55,15.87.74l15.89.53c-10.6.15-21.21.14-31.85-.32-1.34-.07-2.66-.14-4-.25a18.83,18.83,0,0,1-4.08-.63,1.4,1.4,0,0,1-.64-.43.69.69,0,0,1-.16-.36.66.66,0,0,1,0-.44,1.21,1.21,0,0,1,.33-.38,4.6,4.6,0,0,1,1-.5,18.86,18.86,0,0,1,2-.56l3.82-1a29.92,29.92,0,0,0,3.69-1.19,4.28,4.28,0,0,0,1.48-.88c.15-.19.15-.24.13-.31a1.13,1.13,0,0,0-.41-.48,5.87,5.87,0,0,0-1.63-.58c-.62-.15-1.27-.27-1.9-.38-1.27-.21-2.55-.37-3.91-.53-10.5-1.15-21.09-1.59-31.68-2.12Z" fill="#fff"/></g><g id="a8c2ceb3-0f03-4bc8-8473-ff0f48bd02c5" data-name="freepik--Floor--inject-4"><polygon points="844.39 417.51 741.59 417.82 638.78 417.93 433.18 418.14 227.58 417.93 124.78 417.82 21.97 417.51 124.78 417.19 227.58 417.08 433.18 416.88 638.78 417.09 741.59 417.19 844.39 417.51" fill="#939598"/></g><g id="ba5769af-7021-4715-8803-22250e908a0f" data-name="freepik--Birds--inject-4"><path d="M520.59,323.29a30.75,30.75,0,0,0-3.53-1.79,15.13,15.13,0,0,0-3.9-1.17,3,3,0,0,0-1.27,0,1.26,1.26,0,0,0-.38.15l-.26.15-.44.32a18.24,18.24,0,0,0-1.54,1.36c-1,.95-1.83,1.94-2.69,3l1-.28a30.5,30.5,0,0,0-4-1.11,16.72,16.72,0,0,0-2.11-.29,7,7,0,0,0-1.12,0,3.21,3.21,0,0,0-.62.1,4.23,4.23,0,0,0-.62.25,7.3,7.3,0,0,0-1.7,1.43,18,18,0,0,0-1.27,1.61,24.78,24.78,0,0,0-2.12,3.49c.93-1,1.84-2,2.79-2.91a12.92,12.92,0,0,1,1.45-1.27,6.68,6.68,0,0,1,1.51-1,3.87,3.87,0,0,1,1.59,0,14.75,14.75,0,0,1,1.87.38,37.11,37.11,0,0,1,3.75,1.14l.61.2.39-.49c.81-1,1.66-2,2.55-2.91a15.46,15.46,0,0,1,1.28-1.28,2.91,2.91,0,0,1,.33-.26l.15-.12h0a1.86,1.86,0,0,1,.7-.1,19.54,19.54,0,0,1,3.71.61A23.71,23.71,0,0,1,520.59,323.29Z" fill="#939598"/><path d="M495.93,339.86a24.9,24.9,0,0,0-2.14-2.55,12.53,12.53,0,0,0-2.63-2.13,3.27,3.27,0,0,0-1-.36h-.6l-.45.12a13.19,13.19,0,0,0-1.6.56c-1,.42-2,.92-3,1.43l.86.1a24.09,24.09,0,0,0-2.71-2.12,12,12,0,0,0-1.52-.88,5.45,5.45,0,0,0-.87-.35,2.67,2.67,0,0,1-.51-.12h-.56a6.28,6.28,0,0,0-1.75.56c-.53.26-1,.54-1.51.83a21.46,21.46,0,0,0-2.72,2c1-.47,2-.94,3.06-1.35.51-.2,1-.4,1.53-.56a5,5,0,0,1,1.48-.3,2.91,2.91,0,0,1,1.27.46,12.52,12.52,0,0,1,1.28.87,26.64,26.64,0,0,1,2.54,2.06l.4.35.46-.25c.93-.51,1.9-1,2.84-1.45a12,12,0,0,1,1.43-.6,1.93,1.93,0,0,1,.34-.11H490a1.67,1.67,0,0,1,.58.16,15.42,15.42,0,0,1,2.66,1.63A27.75,27.75,0,0,1,495.93,339.86Z" fill="#939598"/><path d="M605.48,277.71a24.37,24.37,0,0,0-3-1.27,12.31,12.31,0,0,0-3.28-.75,2.56,2.56,0,0,0-1,.11,1.73,1.73,0,0,0-.31.14,1.56,1.56,0,0,0-.2.16,2.48,2.48,0,0,0-.36.28,12,12,0,0,0-1.2,1.27c-.74.83-1.4,1.69-2.06,2.55l.81-.28a23.91,23.91,0,0,0-3.36-.72,17.15,17.15,0,0,0-1.76-.12c-.31,0-.62,0-.93.07a3.89,3.89,0,0,0-.49.12,4,4,0,0,0-.51.24,6.16,6.16,0,0,0-1.28,1.27q-.53.68-1,1.41a20.86,20.86,0,0,0-1.57,3c.73-.86,1.42-1.73,2.17-2.55a13.72,13.72,0,0,1,1.12-1.17,6.28,6.28,0,0,1,1.18-.93,3.7,3.7,0,0,1,1.28-.13c.52,0,1,.12,1.56.22,1.06.19,2.13.46,3.18.74l.52.14.29-.43c.6-.87,1.28-1.72,1.91-2.55.33-.41.68-.82,1-1.17l.26-.24.12-.11h0a1.66,1.66,0,0,1,.58-.11,17.14,17.14,0,0,1,3.11.29A32.23,32.23,0,0,1,605.48,277.71Z" fill="#939598"/><path d="M394.32,299.32a35.1,35.1,0,0,0-4.06-2.78,19.16,19.16,0,0,0-4.61-2.09,4.5,4.5,0,0,0-1.55-.12,2.07,2.07,0,0,0-.49.12l-.35.16a4.46,4.46,0,0,0-.6.33,23,23,0,0,0-2.12,1.42c-1.28,1-2.55,2.09-3.82,3.21l1.27-.17a35.39,35.39,0,0,0-4.74-2,22.35,22.35,0,0,0-2.55-.7,9.39,9.39,0,0,0-1.4-.17h-.76a5.8,5.8,0,0,0-.82.21,8.59,8.59,0,0,0-2.32,1.49,22.26,22.26,0,0,0-1.87,1.77,31.7,31.7,0,0,0-3.17,3.95c1.27-1.06,2.55-2.13,3.91-3.12a18,18,0,0,1,2-1.4,8,8,0,0,1,2-1,4.74,4.74,0,0,1,2,.19,18,18,0,0,1,2.24.78,47.79,47.79,0,0,1,4.44,2l.73.35.56-.53c1.15-1.1,2.36-2.17,3.57-3.19a22.77,22.77,0,0,1,1.82-1.42l.46-.28.2-.12h.08a2.66,2.66,0,0,1,.89,0,24.77,24.77,0,0,1,4.47,1.35C391.3,298.08,392.8,298.71,394.32,299.32Z" fill="#939598"/><path d="M255.89,369.77a22.4,22.4,0,0,0-2.77-1.77,13.06,13.06,0,0,0-3.12-1.28,3,3,0,0,0-1,0,.9.9,0,0,0-.33.09l-.23.12a2.3,2.3,0,0,0-.4.23,12.24,12.24,0,0,0-1.37,1,30.54,30.54,0,0,0-2.46,2.23l.85-.15a26.17,26.17,0,0,0-3.21-1.28,12.52,12.52,0,0,0-1.71-.41,7,7,0,0,0-.93-.09h-.52a3.24,3.24,0,0,0-.53.16,5.86,5.86,0,0,0-1.52,1,15.34,15.34,0,0,0-1.27,1.28,21.48,21.48,0,0,0-2,2.7c.85-.74,1.68-1.48,2.55-2.17.43-.34.86-.69,1.27-1a5.66,5.66,0,0,1,1.27-.71,3.08,3.08,0,0,1,1.28.09,11.47,11.47,0,0,1,1.51.47,27.09,27.09,0,0,1,3,1.27l.49.23.36-.38c.74-.75,1.53-1.49,2.31-2.19a12.72,12.72,0,0,1,1.2-1l.29-.19L249,368h0a1.94,1.94,0,0,1,.59,0,15.85,15.85,0,0,1,3,.81A18.3,18.3,0,0,1,255.89,369.77Z" fill="#939598"/><path d="M282.8,365.41a36.12,36.12,0,0,0-3-3.82,19.34,19.34,0,0,0-3.82-3.35,4.37,4.37,0,0,0-1.43-.59h-.89a5.43,5.43,0,0,0-.68.13,23.59,23.59,0,0,0-2.44.74c-1.57.56-3.06,1.27-4.58,1.93l1.28.22a36,36,0,0,0-3.94-3.36,19.08,19.08,0,0,0-2.22-1.43,9.65,9.65,0,0,0-1.27-.57,4.79,4.79,0,0,0-.74-.21,5.89,5.89,0,0,0-.84,0,9.08,9.08,0,0,0-2.65.73,22.57,22.57,0,0,0-2.32,1.13,33.92,33.92,0,0,0-4.2,2.83c1.57-.61,3.11-1.27,4.67-1.81.77-.28,1.56-.54,2.34-.75a8.24,8.24,0,0,1,2.21-.36,4.46,4.46,0,0,1,1.82.77A19.35,19.35,0,0,1,262,359c1.27,1,2.48,2.12,3.65,3.23l.58.56.7-.36c1.41-.7,2.89-1.36,4.34-2a17.38,17.38,0,0,1,2.18-.82,4.84,4.84,0,0,1,.51-.14h.32a2.28,2.28,0,0,1,.84.26,23.17,23.17,0,0,1,3.88,2.62C280.29,363.32,281.53,364.38,282.8,365.41Z" fill="#939598"/><path d="M632,301.93a36.3,36.3,0,0,0-3.06-3.82,18.49,18.49,0,0,0-3.82-3.35,4.29,4.29,0,0,0-1.43-.59,2.17,2.17,0,0,0-.51,0h-.37l-.67.13c-.83.21-1.65.46-2.45.75-1.58.56-3.07,1.28-4.57,1.94l1.27.2a39,39,0,0,0-3.92-3.34,21.48,21.48,0,0,0-2.23-1.41,9.76,9.76,0,0,0-1.27-.59,5.15,5.15,0,0,0-.75-.19,5.75,5.75,0,0,0-.83,0,9.21,9.21,0,0,0-2.67.73,24.66,24.66,0,0,0-2.3,1.15,30,30,0,0,0-4.14,2.75c1.57-.63,3.11-1.28,4.67-1.81a19.3,19.3,0,0,1,2.34-.75,7.87,7.87,0,0,1,2.21-.37,4.6,4.6,0,0,1,1.82.77,15.63,15.63,0,0,1,1.93,1.41,39,39,0,0,1,3.64,3.23l.59.55.7-.34c1.41-.72,2.89-1.38,4.34-2,.71-.31,1.43-.58,2.17-.82a4.37,4.37,0,0,0,.52-.12h.32a2.28,2.28,0,0,1,.84.26,24.43,24.43,0,0,1,3.82,2.55C629.5,299.85,630.75,300.9,632,301.93Z" fill="#939598"/></g><g id="a9b8476c-0f57-460d-8931-559d045983a6" data-name="freepik--Shadow--inject-4"><ellipse cx="172.99" cy="595.82" rx="55.07" ry="6.41" fill="#ebebeb"/><ellipse cx="699.37" cy="595.82" rx="109.86" ry="10.66" fill="#ebebeb"/></g><g id="aa1134b7-bf04-48bb-9ca1-ac6eb7489247" data-name="freepik--Trees--inject-4"><path d="M777.61,214.94s-.57,53.09,17.06,110c10.19,32.77,31.51,66.8,49.34,92.62H814.34s-25.59-63.4-31.25-91.9C770.47,262.08,775.45,214,775.45,214Z" fill="#d1d3d4"/><path d="M777.61,214.94s-.57,53.09,17.06,110c10.19,32.77,31.51,66.8,49.34,92.62H814.34s-25.59-63.4-31.25-91.9C770.47,262.08,775.45,214,775.45,214Z" opacity="0.3" style="isolation:isolate"/><path d="M806.62,397.72c.09.23.18.45.26.7l4.31-.08c2.48-.06,4.95-.13,7.41-.28-2.46-.14-4.93-.22-7.41-.27Z" fill="#bcbec0"/><path d="M807.28,386.69c1.61.11,3.12.16,4.66.24l4.67.11c3.11.1,6.22.1,9.32.12h.27l-.56-.92c-3,0-6,0-9,.11l-4.67.12C810.4,386.55,808.84,386.59,807.28,386.69Z" fill="#bcbec0"/><path d="M813.07,382c1.27.07,2.47.11,3.7.17l3.7.09h.86l-.34-.58h-.52l-3.7.1C815.54,381.89,814.3,381.89,813.07,382Z" fill="#bcbec0"/><path d="M791.1,354.31a1.39,1.39,0,0,0,.14.42c1.65,0,3.28-.1,4.91-.2C794.48,354.43,792.8,354.37,791.1,354.31Z" fill="#bcbec0"/><path d="M789,347.73a2.17,2.17,0,0,0,.22.65h2.41c2.47,0,4.94-.13,7.4-.28-2.46-.14-4.93-.22-7.4-.27Z" fill="#bcbec0"/><path d="M781.64,318l.08.41c1.49,0,3-.1,4.48-.2C784.68,318.1,783.17,318,781.64,318Z" fill="#bcbec0"/><path d="M778.53,288.9c1.27.08,2.46.11,3.7.18l3.4.09-.12-.54-3.28.09C781,288.78,779.75,288.82,778.53,288.9Z" fill="#bcbec0"/><path d="M775.1,262.43a.88.88,0,0,1,0,.23l2.22-.12C776.65,262.49,775.84,262.47,775.1,262.43Z" fill="#bcbec0"/><path d="M781.35,285.33c1.18.08,2.37.12,3.55.17a.61.61,0,0,0-.06-.33C783.68,285.22,782.51,285.26,781.35,285.33Z" fill="#bcbec0"/><path d="M814.86,181,806,178.81l7.87,5.45A35.92,35.92,0,0,1,808,194.83l-8.92-4,6.28,6.89a38.72,38.72,0,0,1-3.22,2.92l-5.23-2.55,2.93,4.33a49.12,49.12,0,0,1-7.28,4.26l-4.22-4.7,2.41,5.52a76.31,76.31,0,0,1-15.54,4.78l36.66-63.69a58.41,58.41,0,0,1,3.82,14.94h-3.82l4.1,2.15c.13,1.63.2,3.33.18,5.1l-9.21-.94,8.92,5.18A43.53,43.53,0,0,1,814.86,181Z" fill="#939598"/><path d="M828.18,213.64l-3.36-4,1.75,5.53a27.65,27.65,0,0,1-6,4l-3.91-7.41.32,8.91a28.5,28.5,0,0,1-4.07,1l-2.54-5.33-.23,5.72a37.68,37.68,0,0,1-7.28-.07l-1.38-9.31-2.43,8.76c-1.22-.22-2.49-.5-3.82-.84v-6.1l-3.22,5.17a87.93,87.93,0,0,1-16.56-7.37l59.87-10A31.2,31.2,0,0,1,828.18,213.64Z" fill="#939598"/><path d="M775.52,212.31a103.61,103.61,0,0,1-13.64-17.83l6.54-3.82-8,1.27a70.47,70.47,0,0,1-3.17-6.51l6.67-4.4-8,.87a47.51,47.51,0,0,1-1.67-5.45l11.57-4.18-12.74-2a50.12,50.12,0,0,1-.22-11.93h0l15.07-3.4-14.17-2.26c.21-1,.45-2,.73-3l8.18.35-7.31-3a54.29,54.29,0,0,1,2.88-6.92l11.64,2.46-9.76-6a61.79,61.79,0,0,1,13.34-16.12Z" fill="#939598"/><path d="M754,204.07l2.55-6.48-5.2,5.09h0c-1-.55-2-1.12-3-1.72l2.7-4.5L746.79,200q-2.43-1.5-4.77-3.23l4.14-5.38-6.84,3.25a53.27,53.27,0,0,1-7.8-7.73l8.4-6.93-10.57,4a35.35,35.35,0,0,1-4-7.88l8.29-5.49-9.29,2.28a32.79,32.79,0,0,1-.82-4.7l12.45-5.53-12.49-.75a39.19,39.19,0,0,1,1-6.37l8.92-.55-8.06-2.37a60.69,60.69,0,0,1,6.37-13.36s12.6,49.68,43.82,73.12A112,112,0,0,1,754,204.07Z" fill="#939598"/><path d="M759.22,218.12,757.73,215l.53,3.23c-.89.11-1.78.19-2.63.22l-1-4.11-1.13,4.13a29.47,29.47,0,0,1-3.64-.32l.57-6.8-3.29,6.2a26.89,26.89,0,0,1-7.12-3l1.11-5.19-2.66,4.17a28.94,28.94,0,0,1-2.55-2l3.35-5.58-5.09,3.82a38,38,0,0,1-3.83-4.47l3-3.37-3.82,2.25c-.4-.59-.78-1.18-1.13-1.75l2-1.86-2.69.75a44.46,44.46,0,0,1-3.82-8.68c16.77,16.39,51.85,19.54,51.85,19.54A50.73,50.73,0,0,1,759.22,218.12Z" fill="#939598"/><path d="M805.3,237.14l-.9-2.87-.35,3a24.54,24.54,0,0,1-3.43,0l.29-5-2,4.77a23.65,23.65,0,0,1-5.1-1.27l.77-4.88-3.12,3.82a27.65,27.65,0,0,1-3-1.91l2-3.72-3.21,2.8a28.78,28.78,0,0,1-2.19-2l2.83-4.47-4.94,2c-.67-.8-1.28-1.66-2-2.55l2.39-2-3.13.94a59.39,59.39,0,0,1-5.72-11.75s21.74,18.66,40.21,22.19A27.06,27.06,0,0,1,805.3,237.14Z" fill="#939598"/><path d="M766.26,232,763,228.85l1.9,4.52a20.61,20.61,0,0,1-3.06,2.36l-2.71-2.55,1.46,3.25a16.09,16.09,0,0,1-1.63.76l-3-4.51.87,5.21a19.21,19.21,0,0,1-5.44.6l-1.66-3.82-.19,3.64c-.84-.1-1.64-.23-2.43-.39l-.57-3.7-.81,3.35a28.14,28.14,0,0,1-7.39-3.13c19.7-2.65,36.63-20.27,36.63-20.27C772.75,222.66,769.68,228.31,766.26,232Z" fill="#939598"/><path d="M784,226.24a7.36,7.36,0,1,1-5.7-8.73A7.37,7.37,0,0,1,784,226.24Z" fill="#a7a9ac"/><path d="M784,226.24a7.36,7.36,0,1,1-5.7-8.73A7.37,7.37,0,0,1,784,226.24Z" opacity="0.4" style="isolation:isolate"/><path d="M779.08,218.52a7.36,7.36,0,1,1-5.68-8.73h0A7.36,7.36,0,0,1,779.08,218.52Z" fill="#a7a9ac"/><path d="M779.08,218.52a7.36,7.36,0,1,1-5.68-8.73h0A7.36,7.36,0,0,1,779.08,218.52Z" opacity="0.3" style="isolation:isolate"/><path d="M786.57,218.74a7.36,7.36,0,1,1-5.68-8.72h0A7.38,7.38,0,0,1,786.57,218.74Z" fill="#a7a9ac"/><path d="M786.57,218.74a7.36,7.36,0,1,1-5.68-8.72h0A7.38,7.38,0,0,1,786.57,218.74Z" opacity="0.2" style="isolation:isolate"/><path d="M692.07,267.13a237,237,0,0,0,16.23,81.64c9.68,24.33,71.56,49.6,88.52,68.79H768.58s-65.92-47.07-71.34-68.21c-12-47.14-7.32-82.81-7.32-82.81Z" fill="#d1d3d4"/><path d="M692.07,267.13a237,237,0,0,0,16.23,81.64c9.68,24.33,71.56,49.6,88.52,68.79H768.58s-65.92-47.07-71.34-68.21c-12-47.14-7.32-82.81-7.32-82.81Z" opacity="0.3" style="isolation:isolate"/><path d="M749.13,402.82l.65.5h3.35c2.34,0,4.7-.1,7-.2-2.34-.12-4.7-.17-7-.22Z" fill="#bcbec0"/><path d="M754.3,394.7c1.17.07,2.35.09,3.52.15l3.53.06h4.54l-.84-.51h-3.7l-3.53.07Z" fill="#bcbec0"/><path d="M762.23,396.52l3.52.13,3,.06-.61-.38h-2.35C764.57,396.43,763.41,396.45,762.23,396.52Z" fill="#bcbec0"/><path d="M712.34,370.61l.28.29c1.41,0,2.8-.08,4.22-.14C715.35,370.68,713.83,370.65,712.34,370.61Z" fill="#bcbec0"/><path d="M707.85,365.73c.13.14.27.29.39.44h1c2.35,0,4.7-.08,7.05-.2-2.35-.1-4.7-.15-7.05-.2Z" fill="#bcbec0"/><path d="M695.89,343.68c0,.1.05.19.08.29,1.41,0,2.84-.08,4.27-.14A42.15,42.15,0,0,0,695.89,343.68Z" fill="#bcbec0"/><path d="M692.92,322c1.19.06,2.36.09,3.53.14h3.24a2.48,2.48,0,0,0-.1-.39h-3.14A24.45,24.45,0,0,1,692.92,322Z" fill="#bcbec0"/><path d="M689.68,302.39a.48.48,0,0,0,0,.17l2.1-.09Z" fill="#bcbec0"/><path d="M695.61,319.38c1.14,0,2.26.09,3.39.13v-.25Z" fill="#bcbec0"/><path d="M712.76,234.35h-7.2l7.08,2.68a28.17,28.17,0,0,1-2.44,9.22l-7.57-1.34,6.14,4.08a27.36,27.36,0,0,1-1.91,2.86l-4.51-1,3.08,2.76a38.1,38.1,0,0,1-4.76,4.66l-4.14-2.79,2.9,3.83a60.7,60.7,0,0,1-11,6.66l15.9-55.9a46.91,46.91,0,0,1,5.77,10.74l-3,.7,3.56.87c.42,1.27.8,2.54,1.12,3.82l-7.25,1,7.89,2.26A32.77,32.77,0,0,1,712.76,234.35Z" fill="#939598"/><path d="M729.28,256.86l-3.35-2.45,2.41,3.92a22.57,22.57,0,0,1-3.82,4.17l-4.42-4.94,1.95,6.77a24.9,24.9,0,0,1-2.93,1.56l-3-3.6.92,4.43a29.68,29.68,0,0,1-5.58,1.35l-2.87-6.88-.16,7.19q-1.47.09-3.06.09l-1.17-4.71-1.44,4.6a69.56,69.56,0,0,1-14.1-2.48l44-19.19A24.54,24.54,0,0,1,729.28,256.86Z" fill="#939598"/><path d="M688.63,266a81.82,81.82,0,0,1-13.9-11.05l4.27-4.23-5.87,2.55a57,57,0,0,1-3.68-4.38l4.26-4.65-6,2.2a43.75,43.75,0,0,1-2.33-3.82l8.08-5.42-10.19.93a40.69,40.69,0,0,1-2.46-9.13h0l10.9-5.49-11.3,1V222l6.37-1.27-6.17-.93a42.91,42.91,0,0,1,.87-5.86l9.41-.36-8.64-2.69a48.9,48.9,0,0,1,7.11-15Z" fill="#939598"/><path d="M670.57,263.75l.66-5.45-3,4.88h0c-.88-.23-1.76-.49-2.64-.75l1.28-4L664.3,262c-1.44-.47-2.86-1-4.28-1.56l2.14-4.93-4.56,3.82a42.07,42.07,0,0,1-7.45-4.43l5.09-6.93-7.35,5.09a28,28,0,0,1-4.61-5.29l5.3-5.79-6.79,3.62a24.58,24.58,0,0,1-1.54-3.44l8.5-6.64-9.69,1.77a31,31,0,0,1-.4-5.1l6.76-2.14-6.67-.33A47.16,47.16,0,0,1,641,218.25s19.18,35.67,47.65,47.68A88.33,88.33,0,0,1,670.57,263.75Z" fill="#939598"/><path d="M677.28,273.54l-1.73-2.09,1,2.37a20.22,20.22,0,0,1-2,.68L673,271.55l-.07,3.37a21.29,21.29,0,0,1-2.86.46l-.86-5.33-1.28,5.41a21.39,21.39,0,0,1-6-.94l-.15-4.19L660.48,274c-.8-.31-1.58-.66-2.33-1l1.5-4.92-3.2,4a30,30,0,0,1-3.76-2.7l1.65-3.16-2.54,2.45c-.42-.37-.83-.75-1.19-1.12l1.18-1.81-1.91,1.08a35.41,35.41,0,0,1-4.64-5.92c16,9.36,43.52,5.09,43.52,5.09A40.61,40.61,0,0,1,677.28,273.54Z" fill="#939598"/><path d="M716.24,279.28l-1.28-2,.31,2.35a18.17,18.17,0,0,1-2.64.65l-.72-3.82-.6,4a17.74,17.74,0,0,1-4.12,0l-.35-3.82-1.66,3.51a19.7,19.7,0,0,1-2.7-.86l.85-3.24-1.84,2.64a22.14,22.14,0,0,1-2-1.09l1.27-4-3.43,2.55c-.66-.48-1.27-1-2-1.6l1.44-2-2.21,1.27a45.35,45.35,0,0,1-6.65-7.91s20.25,10.19,35.09,9.3A21.33,21.33,0,0,1,716.24,279.28Z" fill="#939598"/><path d="M685.32,282.86,682.24,281l2.33,3.1a16.36,16.36,0,0,1-1.91,2.4l-2.55-1.44,1.76,2.22a10.55,10.55,0,0,1-1.11.89l-3.17-2.87,1.65,3.82a15,15,0,0,1-4,1.51l-2-2.55.56,2.83a17.93,17.93,0,0,1-1.93.16l-1.16-2.71v2.71a22.2,22.2,0,0,1-6.27-1c14.6-5.81,24.2-22.57,24.2-22.57C688.49,274.4,687.22,279.34,685.32,282.86Z" fill="#939598"/><path d="M697.78,275a5.83,5.83,0,1,1-6.06-5.6h0a5.82,5.82,0,0,1,6,5.6Z" fill="#a7a9ac"/><path d="M697.78,275a5.83,5.83,0,1,1-6.06-5.6h0a5.82,5.82,0,0,1,6,5.6Z" opacity="0.4" style="isolation:isolate"/><path d="M692.57,270a5.82,5.82,0,1,1-6-5.62A5.82,5.82,0,0,1,692.57,270Z" fill="#a7a9ac"/><path d="M692.57,270a5.82,5.82,0,1,1-6-5.62A5.82,5.82,0,0,1,692.57,270Z" opacity="0.3" style="isolation:isolate"/><path d="M698.34,268.77a5.82,5.82,0,1,1-6-5.62A5.83,5.83,0,0,1,698.34,268.77Z" fill="#a7a9ac"/><path d="M698.34,268.77a5.82,5.82,0,1,1-6-5.62A5.83,5.83,0,0,1,698.34,268.77Z" opacity="0.2" style="isolation:isolate"/><path d="M126.13,267.13a237,237,0,0,1-16.23,81.64c-9.67,24.33-71.56,49.6-88.53,68.79H49.61s65.93-47.07,71.34-68.21c12-47.14,7.33-82.81,7.33-82.81Z" fill="#d1d3d4"/><path d="M126.13,267.13a237,237,0,0,1-16.23,81.64c-9.67,24.33-71.56,49.6-88.53,68.79H49.61s65.93-47.07,71.34-68.21c12-47.14,7.33-82.81,7.33-82.81Z" opacity="0.3" style="isolation:isolate"/><path d="M69.07,402.82l-.65.5H65.07c-2.35,0-4.7-.1-7-.2,2.35-.12,4.7-.17,7-.22Z" fill="#bcbec0"/><path d="M63.89,394.7c-1.17.07-2.34.09-3.51.15l-3.53.06H52.3l.84-.51h3.71l3.53.07Z" fill="#bcbec0"/><path d="M56,396.52l-3.53.13-2.95.06c.2-.11.4-.26.61-.38h2.34C53.63,396.43,54.79,396.45,56,396.52Z" fill="#bcbec0"/><path d="M105.86,370.61l-.28.29c-1.42,0-2.81-.08-4.22-.14C102.86,370.68,104.37,370.65,105.86,370.61Z" fill="#bcbec0"/><path d="M110.39,365.73c-.12.14-.27.29-.38.44H109c-2.34,0-4.7-.08-7-.2,2.34-.1,4.7-.15,7-.2Z" fill="#bcbec0"/><path d="M122.3,343.68a1.53,1.53,0,0,1-.07.29c-1.42,0-2.84-.08-4.27-.14A42,42,0,0,1,122.3,343.68Z" fill="#bcbec0"/><path d="M125.27,322c-1.18.06-2.36.09-3.53.14h-3.23a1.72,1.72,0,0,1,.1-.39h3.13A24.55,24.55,0,0,0,125.27,322Z" fill="#bcbec0"/><path d="M122.58,319.38c-1.12,0-2.25.09-3.38.13a.39.39,0,0,1,.06-.25Z" fill="#bcbec0"/><path d="M105.44,234.35h7.19L105.55,237a28.44,28.44,0,0,0,2.45,9.22l7.56-1.34L109.42,249a27.45,27.45,0,0,0,1.92,2.86l4.5-1-3.08,2.76a39.38,39.38,0,0,0,4.77,4.72l4.14-2.79-2.91,3.82a60.44,60.44,0,0,0,11,6.66l-15.9-55.9a46.15,46.15,0,0,0-5.77,10.74l3,.7-3.55.87c-.42,1.27-.8,2.54-1.12,3.82l7.25,1-7.89,2.26A33.48,33.48,0,0,0,105.44,234.35Z" fill="#939598"/><path d="M88.91,256.86l3.35-2.45-2.4,3.92a22.57,22.57,0,0,0,3.82,4.17l4.42-4.94-1.95,6.77a24.9,24.9,0,0,0,2.93,1.56l3-3.6-.91,4.43a29.68,29.68,0,0,0,5.58,1.35l2.86-6.88.17,7.19q1.47.09,3.06.09l1.17-4.71,1.48,4.6a69.68,69.68,0,0,0,14.1-2.48l-44-19.19A24.77,24.77,0,0,0,88.91,256.86Z" fill="#939598"/><path d="M129.56,266a82.05,82.05,0,0,0,13.88-11l-4.26-4.26,5.86,2.55a57,57,0,0,0,3.68-4.38l-4.26-4.65,6,2.2a43.75,43.75,0,0,0,2.33-3.82l-8.08-5.43,10.19.93a40.46,40.46,0,0,0,2.46-9.12h0l-10.9-5.49,11.3.94V222l-6.37-1.27,6.18-.93a44.54,44.54,0,0,0-.88-5.86l-9.41-.36,8.64-2.69a49,49,0,0,0-7.08-15Z" fill="#939598"/><path d="M147.63,263.75,147,258.3l3,4.88h0c.87-.23,1.75-.49,2.63-.75l-1.27-4L154,262c1.44-.47,2.86-1,4.28-1.56l-2.14-4.93,4.56,3.82a42.07,42.07,0,0,0,7.45-4.43L163,248l7.35,5.09a28.44,28.44,0,0,0,4.62-5.29L169.68,242l6.68,3.53a25.8,25.8,0,0,0,1.54-3.44l-8.5-6.64,9.73,1.82a30,30,0,0,0,.41-5.09l-6.73-2.08,6.68-.33a48.3,48.3,0,0,0-2.28-11.47S158,253.94,129.55,266A88.77,88.77,0,0,0,147.63,263.75Z" fill="#939598"/><path d="M141,273.54l1.73-2.09-1,2.37c.67.26,1.33.48,2,.68l1.58-2.95.08,3.37a21.15,21.15,0,0,0,2.85.46l.87-5.33,1.27,5.41a21.28,21.28,0,0,0,6-.94l.16-4.19,1.27,3.69c.79-.31,1.57-.66,2.33-1l-1.5-4.92,3.19,4a29.3,29.3,0,0,0,3.76-2.7l-1.64-3.16,2.46,2.45c.42-.37.83-.75,1.2-1.12l-1.19-1.81,1.91,1.08a35.41,35.41,0,0,0,4.64-5.92c-16,9.36-43.52,5.09-43.52,5.09A40.44,40.44,0,0,0,141,273.54Z" fill="#939598"/><path d="M102,279.28l1.27-2-.3,2.35a18.36,18.36,0,0,0,2.63.65l.73-3.82.6,4a17.66,17.66,0,0,0,4.11,0l.36-3.82,1.66,3.51a19.7,19.7,0,0,0,2.7-.86l-.86-3.24,1.9,2.64a22.14,22.14,0,0,0,2-1.09l-1.27-4,3.42,2.55c.67-.48,1.28-1,2-1.6l-1.44-2,2.22,1.27a45.35,45.35,0,0,0,6.65-7.91s-20.26,10.19-35.1,9.3A21.15,21.15,0,0,0,102,279.28Z" fill="#939598"/><path d="M132.88,282.86,136,281l-2.33,3.1a16.36,16.36,0,0,0,1.91,2.4l2.55-1.44-1.76,2.22a10.55,10.55,0,0,0,1.11.89l3.17-2.87L139,289.15a15.11,15.11,0,0,0,4.05,1.51l2-2.55-.56,2.83a18.33,18.33,0,0,0,1.94.16l1.16-2.71v2.71a22.2,22.2,0,0,0,6.27-1c-14.6-5.81-24.21-22.57-24.21-22.57C129.7,274.4,131,279.34,132.88,282.86Z" fill="#939598"/><path d="M120.42,275a5.83,5.83,0,1,0,6-5.6h0a5.82,5.82,0,0,0-6,5.6Z" fill="#bcbec0"/><path d="M120.42,275a5.83,5.83,0,1,0,6-5.6h0a5.82,5.82,0,0,0-6,5.6Z" opacity="0.4" style="isolation:isolate"/><path d="M125.68,270a5.82,5.82,0,1,0,6-5.62A5.82,5.82,0,0,0,125.68,270Z" fill="#a7a9ac"/><path d="M125.68,270a5.82,5.82,0,1,0,6-5.62A5.82,5.82,0,0,0,125.68,270Z" opacity="0.3" style="isolation:isolate"/><path d="M119.86,268.77a5.82,5.82,0,1,0,6-5.62A5.82,5.82,0,0,0,119.86,268.77Z" fill="#d1d3d4"/><path d="M119.86,268.77a5.82,5.82,0,1,0,6-5.62A5.82,5.82,0,0,0,119.86,268.77Z" opacity="0.2" style="isolation:isolate"/></g><g id="bec619d6-4634-4167-a236-fa12580a3563" data-name="freepik--Net--inject-4"><rect x="173.42" y="214.73" width="0.96" height="24.43" transform="translate(-107.51 176.37) rotate(-42.35)" fill="#bcbec0"/><rect x="439.88" y="236.52" width="20.52" height="0.96" transform="translate(-52.5 315.38) rotate(-36.63)" fill="#bcbec0"/><rect x="449.68" y="342.27" width="0.96" height="19.68" transform="translate(-91.09 535.61) rotate(-56.76)" fill="#bcbec0"/><rect x="162.79" y="376.5" width="22.19" height="0.96" transform="translate(-207.87 213.85) rotate(-42.1)" fill="#bcbec0"/><rect x="311.56" y="118.76" width="0.96" height="259.83" transform="translate(57.59 556.01) rotate(-88.93)" fill="#c7c7c7"/><rect x="311.67" y="127.92" width="0.96" height="259.8" transform="translate(51.22 567.37) rotate(-89.43)" fill="#c7c7c7"/><rect x="182.13" y="266.41" width="259.78" height="0.96" fill="#c7c7c7"/><rect x="182.12" y="275.52" width="259.79" height="0.96" transform="translate(-2.16 2.46) rotate(-0.45)" fill="#c7c7c7"/><rect x="182.1" y="284.66" width="259.81" height="0.96" transform="translate(-4.78 5.32) rotate(-0.97)" fill="#c7c7c7"/><rect x="182.07" y="293.8" width="259.86" height="0.96" transform="translate(-7.55 8.21) rotate(-1.49)" fill="#c7c7c7"/><rect x="182.03" y="302.92" width="259.94" height="0.96" transform="translate(-10.45 11.13) rotate(-2.01)" fill="#c7c7c7"/><rect x="181.98" y="312.05" width="260.03" height="0.96" transform="translate(-13.13 13.68) rotate(-2.46)" fill="#c7c7c7"/><rect x="181.97" y="321.1" width="260.13" height="0.96" transform="translate(-16.35 16.71) rotate(-2.99)" fill="#c7c7c7"/><rect x="181.89" y="330.25" width="260.27" height="0.96" transform="translate(-19.66 19.72) rotate(-3.51)" fill="#c7c7c7"/><rect x="182.57" y="340.34" width="261.06" height="0.96" transform="translate(-23.03 22.7) rotate(-4)" fill="#c7c7c7"/><rect x="183.01" y="349.27" width="261.42" height="0.96" transform="translate(-26.89 26.13) rotate(-4.57)" fill="#c7c7c7"/><rect x="180.69" y="235.96" width="0.96" height="133.71" fill="#c7c7c7"/><rect x="190.38" y="235.94" width="0.96" height="132.59" fill="#c7c7c7"/><rect x="200.08" y="235.96" width="0.96" height="131.47" fill="#c7c7c7"/><rect x="209.76" y="235.99" width="0.96" height="130.35" fill="#c7c7c7"/><rect x="219.45" y="236.04" width="0.96" height="129.23" fill="#c7c7c7"/><rect x="229.15" y="236.12" width="0.96" height="128.1" fill="#c7c7c7"/><rect x="238.84" y="236.22" width="0.96" height="126.98" fill="#c7c7c7"/><rect x="248.53" y="236.34" width="0.96" height="125.86" fill="#c7c7c7"/><rect x="258.23" y="236.48" width="0.96" height="124.74" fill="#c7c7c7"/><rect x="267.92" y="236.64" width="0.96" height="123.62" fill="#c7c7c7"/><rect x="277.61" y="236.82" width="0.96" height="122.5" fill="#c7c7c7"/><rect x="287.3" y="237.03" width="0.96" height="121.39" fill="#c7c7c7"/><rect x="296.99" y="237.25" width="0.96" height="120.27" fill="#c7c7c7"/><rect x="306.69" y="237.5" width="0.96" height="119.15" fill="#c7c7c7"/><rect x="316.38" y="237.76" width="0.96" height="118.03" fill="#c7c7c7"/><rect x="326.08" y="238.06" width="0.96" height="116.91" fill="#c7c7c7"/><rect x="335.77" y="238.36" width="0.96" height="115.79" fill="#c7c7c7"/><rect x="345.45" y="238.69" width="0.96" height="114.66" fill="#c7c7c7"/><rect x="355.15" y="239.04" width="0.96" height="113.54" fill="#c7c7c7"/><rect x="364.84" y="239.42" width="0.96" height="112.42" fill="#c7c7c7"/><rect x="374.54" y="239.8" width="0.96" height="111.3" fill="#c7c7c7"/><rect x="384.23" y="240.22" width="0.96" height="110.18" fill="#c7c7c7"/><rect x="393.93" y="240.66" width="0.96" height="109.06" fill="#c7c7c7"/><rect x="403.62" y="241.11" width="0.96" height="107.94" fill="#c7c7c7"/><rect x="413.31" y="241.6" width="0.96" height="106.82" fill="#c7c7c7"/><rect x="423" y="242.1" width="0.96" height="105.71" fill="#c7c7c7"/><rect x="432.69" y="242.62" width="0.96" height="104.59" fill="#c7c7c7"/><rect x="442.39" y="243.15" width="0.96" height="103.47" fill="#c7c7c7"/><path d="M179.53,372.33v-139l265,7.29V349l-2.32.21Zm5.09-133.76v128.2L439.4,344.34V245.59Z" fill="#bcbec0"/><rect x="162.28" y="195.6" width="6.76" height="377.1" fill="#bcbec0"/><rect x="454.98" y="199.15" width="6.76" height="340.72" fill="#bcbec0"/></g><path d="M794,549.18s3.44-5,7.45,0c0,0,2.54,6,6.37,6.67,0,0,7.06,2.58,4.09,16.14,0,0,.21,8.82-7.77,7.58C804.11,579.57,791.3,556.71,794,549.18Z"/><path d="M467.34,390.43l1.19,1.16.66-1.21a3.2,3.2,0,0,0-.74-.13A2.87,2.87,0,0,0,467.34,390.43Z" fill="#686175" data-primary="true"/><path d="M467.34,390.43l1.19,1.16.66-1.21a3.2,3.2,0,0,0-.74-.13A2.87,2.87,0,0,0,467.34,390.43Z" opacity="0.2"/><path d="M469.19,390.38S456.6,413.21,454.5,420c0,0-1.16,2.79-5.82,5.35l-42.12,48.18S384.68,482.23,391,490c0,0-2.43,8,5.54,6.13,0,0,62.18-45.33,66.49-52.47l6.2-12.26s14.07-17.91,17.5-25.94C486.69,405.42,482,391.29,469.19,390.38Z" fill="#fed194"/><path d="M471.44,393.12a37.32,37.32,0,0,1,7.42,5.84,6,6,0,0,1,1.08,6.13c-1.74,4.5-6.08,14.43-12.6,20.92a116.29,116.29,0,0,0-5.62,10.24L434.9,465.19s21.68-13.73,28.09-21.57l6.2-12.26s12.67-16.05,17.5-25.94c0,0-5.07-14-17.5-15l1.15,1.69A3.8,3.8,0,0,0,471.44,393.12Z" fill="#fbc27c"/><path d="M488,514.06s25.57,14.8,31.38,26.17c0,0,9.24,9.12,20.61,3.28a2.67,2.67,0,0,0,1.38-1.91c.27-1.63,0-4.37-4.12-6.19,0,0-6.55-2.76-13.78-21.35,0,0-3.1-8.6-15.15-24.1C508.35,490,504,503,488,514.06Z" fill="#fed194"/><path d="M553.46,553.4s-4.82,6.8-18.94,7.48a10.65,10.65,0,0,0-7.29,2.11,31.86,31.86,0,0,1-6.48,4.27c-3.79,1.79-9.22,3.87-14.07,4,0,0-9.7.83-12.38-2.94a4,4,0,0,1-.58-3.17,6.4,6.4,0,0,1,4.28-4.7,16.66,16.66,0,0,1,5.53-.9s8.76-1.45,11.22-12c0,0,.58-7.92,4.67-7.23a18.75,18.75,0,0,0,19,3.87,4.07,4.07,0,0,0,2.81-3.35c.18-1.6-.51-3.62-4-5.34,0,0,6.19-3.66,11.37,6a10.11,10.11,0,0,1,.48,1.06Z" fill="#f48225" data-secondary="true"/><path d="M555.33,561.4c-5.81,5.26-11.51,4.65-11.51,4.65-10-4.13-15.16,2.23-15.16,2.23-8.58,7.63-15.84,7.41-15.84,7.41-18.24,2.76-18.52-7.41-18.52-7.41,2.68,3.77,12.38,2.94,12.38,2.94,4.85-.09,10.28-2.17,14.07-4a31.86,31.86,0,0,0,6.48-4.27,10.65,10.65,0,0,1,7.29-2.11c14.12-.68,18.94-7.48,18.94-7.48a5.2,5.2,0,0,1,3.32,3.31A4.69,4.69,0,0,1,555.33,561.4Z"/><path d="M741.46,540.92S713,525.73,706.05,529c0,0,1.56,19.47-3.74,25,0,0,18.15,4.16,27.79,3.13,0,0,10.33,0,23.07,5.85A46.25,46.25,0,0,0,769,567.7a6.47,6.47,0,0,0,5.45-2.2c2-2.34,4.29-6.24,2.49-10.57a7.88,7.88,0,0,0-6.73-4.69C764.39,549.81,751.89,548,741.46,540.92Z" fill="#fed194"/><path d="M773,551s3.59-6.07,21-1.77a17.41,17.41,0,0,1,2.55,4,5.6,5.6,0,0,0,1.35,1.78,18.11,18.11,0,0,0,4.51,3.11,5.48,5.48,0,0,1,2.33,1.87,17.76,17.76,0,0,1,.91,18.53,2.14,2.14,0,0,1-1.51,1.13,15.85,15.85,0,0,1-12.92-2.9,7.39,7.39,0,0,1-.87-.81c-1.22-1.26-5.8-5.44-12-4.21a12.83,12.83,0,0,1-5.65,0c-2-.5-3.94-1.6-3.68-4,0,0,6.33,1.59,8.57-9.22C777.57,558.48,778.14,553.79,773,551Z" fill="#f48225" data-secondary="true"/><path d="M589.11,457.22l18.11,12.94s5.3-9,0-13.48C607.22,456.68,599.65,454.13,589.11,457.22Z" fill="#686175" data-primary="true"/><path d="M589.11,457.22l18.11,12.94s5.3-9,0-13.48C607.22,456.68,599.65,454.13,589.11,457.22Z" opacity="0.2"/><path d="M503.18,487.89c9.25,4.84,24.89,5.1,35,4.65A54.38,54.38,0,0,0,551.68,490c13.73-4.21,29.85,9.1,29.85,9.1,20.84,19.43,57.45,38,57.45,38,16,5.63,25.91,13.24,25.91,13.24,11.73-28.24,6.47-29.29,6.47-29.29-7.88-1.69-28.72-24.22-28.72-24.22-17.74-17.46-28.44-22.25-28.44-22.25l-25.09-17.41c-6.78.89-22.29,7.14-22.29,7.14-27.91,8.59-40.65,5-45.28,2.38a4.68,4.68,0,0,1-2.3-3.67l-.59-7.46-36.82.08C452.44,453.47,459.15,481,459.15,481A47.56,47.56,0,0,1,503.18,487.89Z" fill="#f48225" data-secondary="true"/><path d="M458.07,481.11c-2.12,2.95-5.9,11.38,9.27,21.89a23.13,23.13,0,0,0,15.53,8l5.16,3.1s15.84-10.66,20.32-24.1l-4.25-1.7a7.41,7.41,0,0,1-1.58-.88c-3.51-2.61-20.58-14-42.35-7.75A4,4,0,0,0,458.07,481.11Z" fill="#686175" data-primary="true"/><path d="M664.89,550.39s-.9,9.46,16.31,7.4c0,0,13.09,3.27,17.22-4.39l.08.05a4.31,4.31,0,0,0,6.67-2.77c1.07-5.72,3.07-19-.22-24.42a2.79,2.79,0,0,0-1-1c-1.19-.69-4.18-1.69-10.12.18a1.57,1.57,0,0,1-1.56-.38,6.8,6.8,0,0,0-8-1.49,2.53,2.53,0,0,1-2.62-.24c-2.34-1.79-7.34-5-10.29-2.25,0,0,3,1.08-1.15,13.63Z" fill="#686175" data-primary="true"/><path d="M467.34,390.43s11.85-1.94,19.35,15c0,0,5.8,6,6.52,11.84,0,0-.79,18,14.27,22.7a12.6,12.6,0,0,1,8.2,8,85.4,85.4,0,0,1,3.61,16.2,2.53,2.53,0,0,0,1,1.75c2.94,2.2,13.87,7.9,41.66.64a52.7,52.7,0,0,0,8.26-2.94c7.22-3.23,24.86-10.17,37-7a135.37,135.37,0,0,0-18.12-13.56,26.85,26.85,0,0,1-2.45-1.78c-3.85-3.15-14.71-12.71-16.15-21.48a11.66,11.66,0,0,1,0-2.83,43.4,43.4,0,0,0-14.81-35.59A19.85,19.85,0,0,0,545,376.72a93.51,93.51,0,0,0-12.81-.56l-46.74-3.1S474.11,374,467.34,390.43Z" fill="#686175" data-primary="true"/><path d="M517.33,403.92s.55,6.09-15.41,13.83a201.21,201.21,0,0,0-19.1,15.47s-12.09,9.43-19.83,10.4c0,0-13.3,6.77-23.45,17.41,0,0-13.79,13.3-24.18,16.92,0,0-8.22,1.94-11.37,8.47,0,0-3.62,4.11-7.49,5.32,0,0-3.14,3.38,0,4.35,0,0-3.39,6,1.21,6.28A5.08,5.08,0,0,0,403,505s.24,2.91,9.18-1.45l7.71-3.15a10.72,10.72,0,0,0,6.06-6.18,25.89,25.89,0,0,0,1-3.48s1.45-8.46,8.22-10.64L458.4,469s11.36-2,21.27-14.07c0,0,5.95-5.89,17.17-10.35,0,0,37.42-12.52,52.08-37.28C548.92,407.31,534.75,395.63,517.33,403.92Z" fill="#fed194"/><g opacity="0.2"><path d="M486.69,405.66a10.58,10.58,0,0,1,.66-4A17.71,17.71,0,0,1,489.2,398a22.6,22.6,0,0,1,5.57-5.92c-.84,1.07-1.64,2.14-2.45,3.2s-1.58,2.14-2.28,3.26A23.59,23.59,0,0,0,486.69,405.66Z"/></g><path d="M517.32,403.94h0a135.21,135.21,0,0,1,14.18.08c6.33.4,9,1.16,10.13,3.15,0,0,1.3,1.09.59,1.95-4.05,4.91-19.16,22.2-36.93,30,0,0-25.38,8-25.62,15.81,0,0,8.87-7.09,17.17-10.35a116.89,116.89,0,0,0,20.08-9s20.67-9.56,32-28.25C548.92,407.31,535,394.57,517.32,403.94Z" fill="#fbc27c"/><g opacity="0.2"><path d="M510.73,441.68a21.77,21.77,0,0,1,9,.51,36.89,36.89,0,0,1,8.41,3.31,49.76,49.76,0,0,1,7.51,5c1.15,1,2.27,2,3.4,3s2.11,2.13,3.13,3.22c-1.18-.93-2.31-1.91-3.45-2.85s-2.35-1.84-3.55-2.72a67.5,67.5,0,0,0-7.51-4.72,45.34,45.34,0,0,0-8.15-3.46,30,30,0,0,0-4.32-1A19.36,19.36,0,0,0,510.73,441.68Z"/></g><g opacity="0.2"><path d="M570.5,419.86c-.07,1.25-.18,2.49-.23,3.74s-.15,2.49-.2,3.73c-.11,2.49-.21,5-.24,7.45s0,5,.07,7.45c.07,1.24.11,2.48.24,3.71s.26,2.48.36,3.73a45,45,0,0,1-1.37-7.39,67.36,67.36,0,0,1-.3-7.51c0-2.51.19-5,.47-7.5A66.1,66.1,0,0,1,570.5,419.86Z"/></g><path d="M528.48,371.46l3.66,4.7s-10.2,7.55-14.81,27.76c0,.06-.62-.33-.67-.37a32.9,32.9,0,0,1-7.81-8.6,15.58,15.58,0,0,1-2.17-8V385s7-3.92,13.81-14.38C520.49,370.6,522.05,376.16,528.48,371.46Z" fill="#fed194"/><path d="M544.89,342l3.45-1.39,1.21,9.67-4,1.94S545.76,345.81,544.89,342Z" fill="#686175" data-primary="true"/><path d="M548.34,340.62s6.77-9.92,20.55-3.39c0,0,5.25,2.52,11.43,14a28.22,28.22,0,0,0,8.92,10c8.2,5.53,22.78,9.14,42.28-11,0,0-12.09,33.85-43.28,28.53a34.2,34.2,0,0,1-5.32-1.81,35.48,35.48,0,0,1-17-15.3c-3.41-6-9.64-14.48-16.41-11.42Z"/><path d="M548.92,345.2a13.31,13.31,0,0,1,3.24-2.42,11.46,11.46,0,0,1,3.86-1.31,11,11,0,0,1,7.81,2c.57.38,1.07.85,1.61,1.28a7.84,7.84,0,0,1,1.39,1.55,37.82,37.82,0,0,1,2.19,3.45,79.43,79.43,0,0,1,3.59,7.29v.07a24.09,24.09,0,0,0,3.61,7.61,23.05,23.05,0,0,0,6.06,5.88,21.74,21.74,0,0,0,3.75,2c.65.3,1.33.5,2,.74s1.36.42,2.06.56a33.38,33.38,0,0,0,8.52.8,31.84,31.84,0,0,1-8.6-.44c-.71-.12-1.4-.34-2.1-.52s-1.39-.42-2.06-.71a22,22,0,0,1-3.88-2,22.64,22.64,0,0,1-6.29-6,25.7,25.7,0,0,1-2.24-3.74,20.89,20.89,0,0,1-1.53-4.11l0,.07c-1.06-2.47-2.2-4.91-3.5-7.26a34,34,0,0,0-2.13-3.4A7.62,7.62,0,0,0,565,345.2c-.51-.42-1-.89-1.53-1.27a10.6,10.6,0,0,0-7.45-2.12,11,11,0,0,0-3.81,1.14A13.84,13.84,0,0,0,548.92,345.2Z" fill="#231f20"/><path d="M582.92,367.08a30.81,30.81,0,0,0,6.57,2.91,32.37,32.37,0,0,0,7,1.41,30.9,30.9,0,0,0,7.13-.21,30.29,30.29,0,0,0,6.86-1.92,35.2,35.2,0,0,0,6.28-3.38c1-.7,2-1.38,2.86-2.16s1.81-1.56,2.69-2.37a67.39,67.39,0,0,0,9.19-11.07l-1.93,3.06-2.1,2.95c-.75.94-1.51,1.89-2.29,2.81s-1.6,1.82-2.48,2.65l-1.3,1.27c-.43.43-.92.79-1.38,1.18a36.17,36.17,0,0,1-2.88,2.22,35.49,35.49,0,0,1-6.39,3.52,29.55,29.55,0,0,1-14.31,2A30.64,30.64,0,0,1,582.92,367.08Z" fill="#231f20"/><path d="M548.92,407.31A60.53,60.53,0,0,1,540.66,418s2.08,4.63,10.2,3.64c0,0,7.91-7.8,3.23-12.43C554.09,409.18,554.05,406.74,548.92,407.31Z" opacity="0.2"/><path d="M506.68,385v2a15,15,0,0,0,1,5.55,16.59,16.59,0,0,0,2.89,4.93l10.28-19.57s3.28-1,6.4,3.63a58.52,58.52,0,0,1,4.86-5.41l-4.55-6.34-6.09-3.75Z" fill="#fbc27c"/><ellipse cx="506.68" cy="356.4" rx="32.54" ry="19.02" transform="translate(-19.86 682.75) rotate(-66.91)" fill="#fed194"/><path d="M512.32,334.33s-8.26-3-6.87-8.56a4.51,4.51,0,0,1,3.39-3.2c6.17-1.51,24.16-3.67,35.63,18.29,0,0,8,17.49-12.33,34.66l-3.66-4.06-3.7-9.06s-8.11-2.51-6.42-13.47C518.36,348.93,511.35,345.45,512.32,334.33Z"/><ellipse cx="526.44" cy="367.08" rx="7.75" ry="4.59" transform="translate(-99.46 509) rotate(-47.66)" fill="#fed194"/><path d="M552,411.05c1.64,3,2.3,7.08-4.39,9h0s-4.7.05-6.67-1.93a.2.2,0,0,0-.33.23,9,9,0,0,0,9.33,4.76c15.14-1.76,16.21-15.64,15.18-24.9a25.23,25.23,0,0,0-10-17.67c-5.33-3.88-9.57-3.75-9.57-3.75l-13.39-.59h0s-10.7,8-14.81,27.76c0,0,0,0,0,0,.86-.51,13.81-7.53,29.6,2A13.74,13.74,0,0,1,552,411.05Z" fill="#686175" data-primary="true"/><path d="M552,411.05c1.64,3,2.3,7.08-4.39,9,0,0-4.7.05-6.67-1.93a.2.2,0,0,0-.33.23,9,9,0,0,0,9.33,4.76c15.14-1.76,16.21-15.64,15.18-24.9a25.23,25.23,0,0,0-10-17.67c-5.33-3.88-9.57-3.75-9.57-3.75-2-.22-4-.39-6.19-.49-2.54-.13-4.94-.15-7.2-.1h0s-10.71,8-14.81,27.76c0,0,0,0,0,0,.86-.51,13.81-7.53,29.6,2A13.74,13.74,0,0,1,552,411.05Z" fill="#fff" opacity="0.2"/><path d="M408.33,490l-10.41,5.55-1.14.46a.82.82,0,0,1-.65,0c-.66-.28-1.77-1.23.37-4.23" fill="none" stroke="#fbc27c" stroke-miterlimit="10"/><path d="M409.36,494.74l-11.21,7.35a1.39,1.39,0,0,1-1.14.17c-1-.31-2.65-1.39-.95-5.27" fill="none" stroke="#fbc27c" stroke-miterlimit="10"/><path d="M410.69,500.33l-7.35,4.51a1.84,1.84,0,0,1-.89.26,6.27,6.27,0,0,1-3.74-1.4" fill="none" stroke="#fbc27c" stroke-miterlimit="10"/><line x1="399.96" y1="489.96" x2="401.25" y2="483.46" fill="none" stroke="#fbc27c" stroke-miterlimit="10"/><line x1="390.96" y1="489.96" x2="396.15" y2="482.84" fill="none" stroke="#fbc27c" stroke-miterlimit="10"/><path d="M392.42,447.05a38.76,38.76,0,0,1-7.08-3.93C389,432.2,395.79,428,397,427.33a24.3,24.3,0,0,1,11.62,5C406.25,433.47,397.67,438.19,392.42,447.05Z" fill="#686175" data-primary="true"/><path d="M384.72,442.66a25.1,25.1,0,0,1-6-6.24,21.34,21.34,0,0,1,5.83-7.6,24.13,24.13,0,0,1,9-1.73c.75,0,1.49,0,2.22.1C393.49,428.69,388,433.1,384.72,442.66Z" fill="#f48225" data-secondary="true"/><path d="M405.25,450.72a53.83,53.83,0,0,1-12.15-3.39c5.43-9.09,14.44-13.72,16.12-14.52a24.38,24.38,0,0,1,5.79,7.13A28.85,28.85,0,0,0,405.25,450.72Z" fill="#f48225" data-secondary="true"/><path d="M378.16,436.89c7.4,11.18,23.94,14.11,27,14.56a26.63,26.63,0,0,1,1.32,9.42,20.66,20.66,0,0,1-.36,2.91c-14.23-3.6-23.1-9-28-13a33.17,33.17,0,0,1-7.34-7.71A13,13,0,0,1,378.16,436.89Z" fill="#686175" data-primary="true"/><path d="M372.1,439.94a24.45,24.45,0,0,1,10.38-10.18,20.07,20.07,0,0,0-4.44,6.4A13.42,13.42,0,0,0,372.1,439.94Z" fill="#686175" data-primary="true"/><path d="M407.24,460.88a26.6,26.6,0,0,0-1.39-9.74,29.41,29.41,0,0,1,6.65-8.39c.86,2.65,4.6,15.83-2,26.18a24.34,24.34,0,0,1-11.59,6.26A17,17,0,0,0,407.24,460.88Z" fill="#f48225" data-secondary="true"/><path d="M370.41,443.88a34.88,34.88,0,0,0,7.2,7.46c5,4,14,9.52,28.39,13.16a15.46,15.46,0,0,1-3,6.24v0a36,36,0,0,1-12.66-.81,32,32,0,0,1-21-16.23c-.06-.74-.1-1.48-.1-2.23A24.21,24.21,0,0,1,370.41,443.88Z" fill="#f48225" data-secondary="true"/><path d="M390.17,470.61a38.61,38.61,0,0,0,9,1.05c1.39,0,2.47-.07,3.15-.14a18.26,18.26,0,0,1-5.74,4.07,24.91,24.91,0,0,1-3,.19,24.39,24.39,0,0,1-24-20.23A32.65,32.65,0,0,0,390.17,470.61Z" fill="#686175" data-primary="true"/><path d="M413.11,442.24a21.12,21.12,0,0,1,2.24-1.64,24.27,24.27,0,0,1-2.79,26C417.48,456.1,413.71,444,413.11,442.24Z" fill="#686175" data-primary="true"/><path d="M368.48,451.43a25.11,25.11,0,0,0,25.08,25.08,24.61,24.61,0,0,0,3.11-.2v0l.09,0a25.08,25.08,0,1,0-28.29-24.87Zm1.08,4.12a32.65,32.65,0,0,0,20.61,15.06,38.61,38.61,0,0,0,9,1.05c1.39,0,2.47-.07,3.15-.14a18.26,18.26,0,0,1-5.74,4.07,24.91,24.91,0,0,1-3,.19A24.39,24.39,0,0,1,369.56,455.55Zm43,11.07c4.92-10.52,1.15-22.6.55-24.38a21.12,21.12,0,0,1,2.24-1.64,24.27,24.27,0,0,1-2.79,26Zm-7.37-15.17a26.63,26.63,0,0,1,1.32,9.42,20.66,20.66,0,0,1-.36,2.91c-14.23-3.6-23.1-9-28-13a33.17,33.17,0,0,1-7.34-7.71,13,13,0,0,1,7.39-6.2C385.56,448.07,402.1,451,405.19,451.45Zm-19.85-8.33C389,432.2,395.79,428,397,427.33a24.3,24.3,0,0,1,11.62,5c-2.34,1.17-10.92,5.89-16.17,14.75A38.76,38.76,0,0,1,385.34,443.12ZM406,464.5a15.46,15.46,0,0,1-3,6.24v0a36,36,0,0,1-12.66-.81,32,32,0,0,1-21-16.23c-.06-.74-.1-1.48-.1-2.23a24.21,24.21,0,0,1,1.2-7.55,34.88,34.88,0,0,0,7.2,7.46C382.62,455.34,391.6,460.86,406,464.5Zm-33.9-24.56a24.45,24.45,0,0,1,10.38-10.18,20.07,20.07,0,0,0-4.44,6.4A13.42,13.42,0,0,0,372.1,439.94Zm12.45-11.12a24.13,24.13,0,0,1,9-1.73c.75,0,1.49,0,2.22.1-2.29,1.5-7.77,5.91-11.06,15.47a25.1,25.1,0,0,1-6-6.24A21.34,21.34,0,0,1,384.55,428.82ZM415,439.94a28.85,28.85,0,0,0-9.76,10.78,53.83,53.83,0,0,1-12.15-3.39c5.43-9.09,14.44-13.72,16.12-14.52A24.38,24.38,0,0,1,415,439.94Zm-4.55,29a24.34,24.34,0,0,1-11.59,6.26,17,17,0,0,0,8.37-14.31,26.6,26.6,0,0,0-1.39-9.74,29.41,29.41,0,0,1,6.65-8.39C413.36,445.4,417.1,458.58,410.46,468.93Z" fill="#f48225" data-secondary="true"/><path d="M368.48,451.43a25.11,25.11,0,0,0,25.08,25.08,24.61,24.61,0,0,0,3.11-.2v0l.09,0a25.08,25.08,0,1,0-28.29-24.87Zm1.08,4.12a32.65,32.65,0,0,0,20.61,15.06,38.61,38.61,0,0,0,9,1.05c1.39,0,2.47-.07,3.15-.14a18.26,18.26,0,0,1-5.74,4.07,24.91,24.91,0,0,1-3,.19A24.39,24.39,0,0,1,369.56,455.55Zm43,11.07c4.92-10.52,1.15-22.6.55-24.38a21.12,21.12,0,0,1,2.24-1.64,24.27,24.27,0,0,1-2.79,26Zm-7.37-15.17a26.63,26.63,0,0,1,1.32,9.42,20.66,20.66,0,0,1-.36,2.91c-14.23-3.6-23.1-9-28-13a33.17,33.17,0,0,1-7.34-7.71,13,13,0,0,1,7.39-6.2C385.56,448.07,402.1,451,405.19,451.45Zm-19.85-8.33C389,432.2,395.79,428,397,427.33a24.3,24.3,0,0,1,11.62,5c-2.34,1.17-10.92,5.89-16.17,14.75A38.76,38.76,0,0,1,385.34,443.12ZM406,464.5a15.46,15.46,0,0,1-3,6.24v0a36,36,0,0,1-12.66-.81,32,32,0,0,1-21-16.23c-.06-.74-.1-1.48-.1-2.23a24.21,24.21,0,0,1,1.2-7.55,34.88,34.88,0,0,0,7.2,7.46C382.62,455.34,391.6,460.86,406,464.5Zm-33.9-24.56a24.45,24.45,0,0,1,10.38-10.18,20.07,20.07,0,0,0-4.44,6.4A13.42,13.42,0,0,0,372.1,439.94Zm12.45-11.12a24.13,24.13,0,0,1,9-1.73c.75,0,1.49,0,2.22.1-2.29,1.5-7.77,5.91-11.06,15.47a25.1,25.1,0,0,1-6-6.24A21.34,21.34,0,0,1,384.55,428.82ZM415,439.94a28.85,28.85,0,0,0-9.76,10.78,53.83,53.83,0,0,1-12.15-3.39c5.43-9.09,14.44-13.72,16.12-14.52A24.38,24.38,0,0,1,415,439.94Zm-4.55,29a24.34,24.34,0,0,1-11.59,6.26,17,17,0,0,0,8.37-14.31,26.6,26.6,0,0,0-1.39-9.74,29.41,29.41,0,0,1,6.65-8.39C413.36,445.4,417.1,458.58,410.46,468.93Z" opacity="0.2"/></svg>