<svg id="b82d7823-c3b0-4aaa-bd32-f9c4bb160744" data-name="Layer 1" xmlns="http://www.w3.org/2000/svg" width="865.76" height="682.89" viewBox="0 0 865.76 682.89"><polygon points="762.86 263.39 470.34 490.24 303.25 490.24 204.87 396.76 81.92 519.79 28.51 471.15 204.87 302.76 384.7 473.06 720.9 212.7 695.29 183.92 837.25 163.1 784.65 291.48 762.86 263.39" fill="#ccc"/><polygon points="714.96 217.3 720.9 212.7 759.35 261.31 714.96 217.3" fill="#231f20" opacity="0.2"/><polygon points="200.25 401.38 159.35 353.18 204.87 396.76 200.25 401.38" fill="#231f20" opacity="0.2"/><path d="M263.6,244H620a15.39,15.39,0,0,1,15.39,15.39V495.67a7.4,7.4,0,0,1-7.4,7.4H255.62a7.4,7.4,0,0,1-7.4-7.4V259.42A15.39,15.39,0,0,1,263.6,244Z" fill="#2f2e41"/><rect x="259.29" y="256.19" width="366.09" height="234.04" fill="#fff"/><rect x="204.87" y="503.07" width="472.11" height="4.01" rx="2" fill="#2f2e41"/><path d="M209.82,507.08S237.56,514,251.93,514H638.34s25.26-2.48,33.19-6.94Z" fill="#2f2e41"/><path d="M209.82,507.08S237.56,514,251.93,514H638.34s25.26-2.48,33.19-6.94Z" fill="#231f20" opacity="0.2"/><path d="M296,218.76H587.11a14.07,14.07,0,0,1,14.07,14.07V490.24a0,0,0,0,1,0,0H282.89a0,0,0,0,1,0,0V231.83A13.07,13.07,0,0,1,296,218.76Z" fill="#f48225" data-secondary="true"/><path d="M295.77,218.76H588.3a12.88,12.88,0,0,1,12.88,12.88v0a0,0,0,0,1,0,0H282.89a0,0,0,0,1,0,0v0A12.88,12.88,0,0,1,295.77,218.76Z" fill="#231f20" opacity="0.2"/><circle cx="293.43" cy="224.99" r="2.46" fill="#2f2e41"/><circle cx="300.79" cy="224.99" r="2.46" fill="#2f2e41"/><circle cx="307.55" cy="225.2" r="2.46" fill="#2f2e41"/><rect x="282.89" y="422.48" width="318.29" height="67.76" fill="#231f20" opacity="0.2"/><rect x="326.76" y="445.85" width="17.31" height="17.31" fill="#fff"/><rect x="350.99" y="448.07" width="74.43" height="5.19" fill="#fff"/><rect x="350.99" y="455.74" width="84.05" height="5.19" fill="#fff"/><rect x="452.09" y="446.22" width="17.31" height="17.31" fill="#fff"/><rect x="476.33" y="448.44" width="74.43" height="5.19" fill="#fff"/><rect x="476.33" y="456.11" width="84.05" height="5.19" fill="#fff"/><path d="M371.85,385.75h9.06a6.43,6.43,0,0,1,6.43,6.43v21.44a0,0,0,0,1,0,0H365.42a0,0,0,0,1,0,0V392.18A6.43,6.43,0,0,1,371.85,385.75Z" fill="#231f20" opacity="0.2"/><path d="M402.31,366.43h9.06a6.43,6.43,0,0,1,6.43,6.43v40.76a0,0,0,0,1,0,0H395.88a0,0,0,0,1,0,0V372.85A6.43,6.43,0,0,1,402.31,366.43Z" fill="#231f20" opacity="0.2"/><path d="M432.65,349.71h9.06a6.43,6.43,0,0,1,6.43,6.43v57.48a0,0,0,0,1,0,0H426.23a0,0,0,0,1,0,0V356.14A6.43,6.43,0,0,1,432.65,349.71Z" fill="#231f20" opacity="0.2"/><path d="M463.25,337.45h9.06a6.43,6.43,0,0,1,6.43,6.43v69.74a0,0,0,0,1,0,0H456.82a0,0,0,0,1,0,0V343.87A6.43,6.43,0,0,1,463.25,337.45Z" fill="#231f20" opacity="0.2"/><path d="M493.71,318.13h9.06a6.43,6.43,0,0,1,6.43,6.43v89.06a0,0,0,0,1,0,0H487.28a0,0,0,0,1,0,0V324.55A6.43,6.43,0,0,1,493.71,318.13Z" fill="#231f20" opacity="0.2"/><path d="M571.08,307.83A34.15,34.15,0,1,1,544.25,245Z" fill="#686175" data-primary="true"/><path d="M570.83,245a34.28,34.28,0,0,0-25.37-.48l13.17,30.65Z" fill="#fff"/><path d="M589.46,264.35a34.14,34.14,0,0,1,2.22,12.13,33.36,33.36,0,0,1-19.06,30.64l-13-30.26Z" fill="#231f20" opacity="0.2"/><path d="M594.68,261.32c-3.31-8-12.41-17.44-20.32-21L559.6,275.83Z" fill="#2f2e41"/><path d="M483.53,304.6c-28.53,27.29-96,52.82-111.5,58.78a4.38,4.38,0,0,1-5.17-1.62h0a4.38,4.38,0,0,1,2.22-6.63c75.86-25.6,109.66-57.28,109.66-57.28L474,290.64l25.83-2.56-10.71,24Z" fill="#2f2e41"/><polygon points="377.78 321.75 294.01 321.75 294.01 250.98 295.88 250.98 295.88 319.88 377.78 319.88 377.78 321.75" fill="#686175" data-primary="true"/><polygon points="289.81 252.79 300.69 252.79 295.25 244.03 289.81 252.79" fill="#686175" data-primary="true"/><polygon points="372.08 315.37 372.08 326.26 380.85 320.81 372.08 315.37" fill="#686175" data-primary="true"/><rect x="357.35" y="250.98" width="9.61" height="64.39" fill="#686175" data-primary="true"/><rect x="343.49" y="265.53" width="9.61" height="49.84" fill="#686175" data-primary="true"/><rect x="330.27" y="271.4" width="9.61" height="43.97" fill="#686175" data-primary="true"/><rect x="315.06" y="279.41" width="9.61" height="35.97" fill="#686175" data-primary="true"/><rect x="300.69" y="288.48" width="9.61" height="26.89" fill="#686175" data-primary="true"/><rect x="300.5" y="395.02" width="40.97" height="3.21" rx="0.66" fill="#231f20" opacity="0.2"/><rect x="300.5" y="410.41" width="40.97" height="3.21" rx="0.66" fill="#231f20" opacity="0.2"/><rect x="300.5" y="402.71" width="48.32" height="3.21" rx="0.66" fill="#231f20" opacity="0.2"/></svg>