<svg id="aa7684f3-41ed-45ac-bc19-30ef3509314b" data-name="Layer 1" xmlns="http://www.w3.org/2000/svg" width="865.76" height="682.89" viewBox="0 0 865.76 682.89"><ellipse cx="116.54" cy="172.21" rx="26.28" ry="33.93" transform="translate(-58.16 59.44) rotate(-23.07)" fill="#f9b499"/><ellipse cx="89.95" cy="174.88" rx="6.83" ry="9.93" transform="translate(-34.8 22.86) rotate(-12.15)" fill="#f9b499"/><path d="M556.31,183.23V128.74h-4.84V59a43,43,0,0,0-43-43H277.35a43,43,0,0,0-43,43V608.21a43,43,0,0,0,43,43h231a43,43,0,0,0,43.09-42.91V229.69h4.93v-32.2h-4.93V183.23Z" fill="#2f2e41"/><path d="M500.84,645.36H284.9a45.58,45.58,0,0,1-45.58-45.58V67.44c0-25.16,12.91-45.56,45.58-45.56H500.84c29.95-.42,45.58,20.4,45.58,45.56V599.73a45.59,45.59,0,0,1-45.53,45.63Z" opacity="0.2"/><path d="M409.58,28.88l-.08.32c-2.53,9.41-8.34,15.57-14.78,15.57H391c-6.44,0-12.25-6.11-14.78-15.57l-.09-.32L286,28.56A37.93,37.93,0,0,0,248,66.35v.12l-.12,527.64c0,24.6,19.24,44.53,43,44.53h204c23.74,0,43-19.93,43-44.53V62.68A32.88,32.88,0,0,0,505.36,29.8Z" fill="#fff"/><path d="M355.92,33.78a4.05,4.05,0,1,0-4.07,4h0A4,4,0,0,0,355.92,33.78Z" fill="#707070"/><path d="M270.78,146.73H515a22.87,22.87,0,0,1,22.87,22.87V373.26a0,0,0,0,1,0,0H247.92a0,0,0,0,1,0,0V169.6A22.87,22.87,0,0,1,270.78,146.73Z" fill="#ccc"/><text transform="translate(312.04 81.69)" font-size="19.41" fill="#ccc" font-family="AvantGardeITCbyBT-Demi, AvantGarde Bk BT" font-weight="300">INSURANCE CLAIM</text><text transform="translate(293.32 112.62)" font-size="33.48" fill="#ccc" font-family="AvantGardeITCbyBT-Demi, AvantGarde Bk BT" font-weight="300">CALL CENTER</text><path d="M359.27,287.36h73.58A10.14,10.14,0,0,0,443,277.22V265a13.37,13.37,0,0,0-3.24-8.72l-23.09-26.89a9.88,9.88,0,0,1-2.38-6.44V208a6.76,6.76,0,0,0-6.76-6.75h0a6.75,6.75,0,0,0-6.75,6.75v7.6a5.49,5.49,0,0,1-5.49,5.49h0a5.49,5.49,0,0,1-5.49-5.49v-7.81a6.54,6.54,0,0,0-6.54-6.54h0a6.54,6.54,0,0,0-6.55,6.54v13.8a10.68,10.68,0,0,1-2.31,6.64l-23.22,29.37a8.89,8.89,0,0,0-1.93,5.49l-.1,14.08A10.14,10.14,0,0,0,359.27,287.36Z" fill="#fff"/><path d="M358.87,220.65s36.83-31.24,73.14,0c0,0-5.73,7.13-5.09,11.4h32.84S458.06,221,448,218.4c0,0-14.5-29.86-54-30.08,0,0-34.13-1.06-51.62,30.29,0,0-9.39,1.71-10.67,13.44h32.85S365.91,226.74,358.87,220.65Z" fill="#fff"/><rect x="424.57" y="232.05" width="36.9" height="4.91" rx="1.64" fill="#fff"/><rect x="329.65" y="232.05" width="36.9" height="4.91" rx="1.64" fill="#fff"/><circle cx="394.81" cy="255.83" r="17.81" fill="#ccc"/><path d="M323.38,330.18a10.13,10.13,0,0,1,.26-2.6,4.92,4.92,0,0,1,.86-1.67,5.85,5.85,0,0,1,2.22-1.82,7,7,0,0,1,3-.59,6.71,6.71,0,0,1,2.92.62,6.6,6.6,0,0,1,2.32,1.84,4.5,4.5,0,0,1,.81,1.69,10.69,10.69,0,0,1,.25,2.58v5.35a10.33,10.33,0,0,1-.26,2.61,4.94,4.94,0,0,1-.85,1.68,5.79,5.79,0,0,1-2.22,1.8,7.12,7.12,0,0,1-3,.59,6.74,6.74,0,0,1-2.92-.63,6.37,6.37,0,0,1-2.31-1.84,4.41,4.41,0,0,1-.81-1.67,10.5,10.5,0,0,1-.26-2.56Zm3.54,0v5.43a4.18,4.18,0,0,0,.67,2.61,3,3,0,0,0,4.2,0,4.36,4.36,0,0,0,.68-2.69v-5.59a6.63,6.63,0,0,0-.07-1.15,1.89,1.89,0,0,0-.23-.67,2.72,2.72,0,0,0-1-1,3,3,0,0,0-1.45-.35,2.53,2.53,0,0,0-2.08.86A4,4,0,0,0,326.92,330.15Z" fill="#fff"/><path d="M346.71,341.9h-3.4V326.52h-3.14v-2.66h6.54Z" fill="#fff"/><path d="M365.07,341.9h-11.9v-3.37l6.54-6.12a7.17,7.17,0,0,0,1.4-1.71,3.24,3.24,0,0,0,.47-1.61,2.27,2.27,0,0,0-.65-1.68,2.21,2.21,0,0,0-1.68-.67,2.08,2.08,0,0,0-1.68.71,3,3,0,0,0-.6,2v.31h-3.56v-.05a6.21,6.21,0,0,1,1.63-4.48,5.66,5.66,0,0,1,4.29-1.69,5.73,5.73,0,0,1,4.14,1.62,5.36,5.36,0,0,1,1.67,4,5.27,5.27,0,0,1-.66,2.52,9.31,9.31,0,0,1-2,2.45l-5,4.57h7.66Z" fill="#fff"/><path d="M368,336.11h3.37v.13a3,3,0,0,0,.68,2,2.29,2.29,0,0,0,1.79.77,2.54,2.54,0,0,0,2-.86,3.3,3.3,0,0,0,.76-2.24,2.58,2.58,0,0,0-.85-2.11,3.75,3.75,0,0,0-2.5-.72l-.25,0h-.26v-3H373l.24,0a2.5,2.5,0,0,0,1.65-.45,1.76,1.76,0,0,0,.53-1.41,1.78,1.78,0,0,0-.41-1.24,1.48,1.48,0,0,0-1.14-.44,1.21,1.21,0,0,0-1,.46,2.11,2.11,0,0,0-.41,1.27h-3.12a4.87,4.87,0,0,1,1.31-3.54A4.6,4.6,0,0,1,374,323.5a4.41,4.41,0,0,1,3.22,1.32,4.35,4.35,0,0,1,1.32,3.18,4.06,4.06,0,0,1-.43,1.92,4.28,4.28,0,0,1-1.35,1.45,5.07,5.07,0,0,1,2.31,1.9,5.42,5.42,0,0,1,.76,3,6,6,0,0,1-.37,2.16,6.23,6.23,0,0,1-1.15,1.88,5.7,5.7,0,0,1-1.95,1.52,6.76,6.76,0,0,1-6.83-1.15,6.14,6.14,0,0,1-1.57-4.46Z" fill="#fff"/><path d="M393.42,341.9h-3.1v-2.74H382.4v-3l7.8-12.3h3.22v12.3H395v3h-1.53Zm-3.1-5.74v-7.53l-4.79,7.53Z" fill="#fff"/><path d="M408,323.86V327h-6.19l-.56,3.1a4.53,4.53,0,0,1,1.18-.49,5.45,5.45,0,0,1,1.3-.16,5.61,5.61,0,0,1,4.24,1.86,6.32,6.32,0,0,1,1.76,4.49,6.22,6.22,0,0,1-.42,2.27,6.48,6.48,0,0,1-1.21,2,6.15,6.15,0,0,1-4.82,2.25,6.08,6.08,0,0,1-4.33-1.67,6.47,6.47,0,0,1-2-4.33h3.4a3.12,3.12,0,0,0,.95,2,2.77,2.77,0,0,0,2,.75,2.64,2.64,0,0,0,2.06-.92,3.38,3.38,0,0,0,.82-2.34,3.11,3.11,0,0,0-.83-2.26,3.2,3.2,0,0,0-3.6-.53,2.44,2.44,0,0,0-.94,1l-3-.68,1.72-9.39Z" fill="#fff"/><path d="M418.3,323.86H422L417.89,330a5.82,5.82,0,0,1,.79-.15,4,4,0,0,1,.58,0A4.85,4.85,0,0,1,423,331.6a6.31,6.31,0,0,1,1.54,4.31,6,6,0,0,1-.42,2.16A6.28,6.28,0,0,1,423,340a6.16,6.16,0,0,1-2.14,1.68,6.33,6.33,0,0,1-2.71.54,6.51,6.51,0,0,1-2.45-.47,6.48,6.48,0,0,1-3.41-3.37,5.7,5.7,0,0,1-.48-2.29,7.38,7.38,0,0,1,.52-2.69,19.67,19.67,0,0,1,2-3.6Zm-3.08,11.92a3.25,3.25,0,0,0,.87,2.29,2.72,2.72,0,0,0,2.08.94,2.8,2.8,0,0,0,2.12-.87,3.13,3.13,0,0,0,.82-2.25,3.17,3.17,0,0,0-.81-2.25,2.71,2.71,0,0,0-2.08-.87,2.86,2.86,0,0,0-2.12.89A2.93,2.93,0,0,0,415.22,335.78Z" fill="#fff"/><path d="M432,341.9h-3.61L435.1,327h-7.05v-3.17h10.33v3.34Z" fill="#fff"/><path d="M444.52,331.82a4.28,4.28,0,0,1-1.5-1.52,4.07,4.07,0,0,1-.53-2,4.46,4.46,0,0,1,1.5-3.37,5.14,5.14,0,0,1,3.63-1.4,5.33,5.33,0,0,1,3.75,1.38,4.43,4.43,0,0,1,1.51,3.41,4,4,0,0,1-.53,2,4.37,4.37,0,0,1-1.58,1.49,5.5,5.5,0,0,1,2.21,1.9,4.8,4.8,0,0,1,.73,2.68,5.6,5.6,0,0,1-1.71,4.22,6.08,6.08,0,0,1-4.4,1.64,5.77,5.77,0,0,1-4.24-1.68,5.65,5.65,0,0,1-1.7-4.18,4.74,4.74,0,0,1,.7-2.59A6.46,6.46,0,0,1,444.52,331.82Zm.66,4.73a2.57,2.57,0,0,0,.71,1.84,2.29,2.29,0,0,0,1.73.75,2.39,2.39,0,0,0,1.82-.75,2.57,2.57,0,0,0,.72-1.87,2.62,2.62,0,0,0-.69-1.91,2.5,2.5,0,0,0-1.87-.7,2.26,2.26,0,0,0-1.76.72A2.73,2.73,0,0,0,445.18,336.55Zm.82-8.16a1.76,1.76,0,0,0,.46,1.27,1.59,1.59,0,0,0,1.21.49,1.63,1.63,0,0,0,1.25-.48,1.88,1.88,0,0,0,.45-1.33,1.8,1.8,0,0,0-.46-1.29,1.69,1.69,0,0,0-2.43,0A1.87,1.87,0,0,0,446,328.39Z" fill="#fff"/><path d="M462.35,341.9h-3.68l4.09-6.15-.8.15a4,4,0,0,1-.58,0,4.81,4.81,0,0,1-3.76-1.77,6.36,6.36,0,0,1-1.54-4.33,5.91,5.91,0,0,1,.41-2.13,7.17,7.17,0,0,1,1.13-2,5.94,5.94,0,0,1,4.85-2.23,6.44,6.44,0,0,1,2.45.47,6.39,6.39,0,0,1,3.41,3.37,5.71,5.71,0,0,1,.49,2.31,7.6,7.6,0,0,1-.52,2.69,19.67,19.67,0,0,1-2,3.6ZM465.42,330a3.28,3.28,0,0,0-.87-2.3,2.73,2.73,0,0,0-2.08-.95,2.79,2.79,0,0,0-2.11.89,3.46,3.46,0,0,0,0,4.5,2.7,2.7,0,0,0,2.08.88,2.85,2.85,0,0,0,2.12-.89A2.9,2.9,0,0,0,465.42,330Z" fill="#fff"/><rect x="294.24" y="400.99" width="53.86" height="11.95" rx="4" fill="#ccc"/><rect x="353.11" y="400.99" width="57.7" height="11.95" rx="4" fill="#ccc"/><rect x="415.5" y="400.99" width="77.22" height="11.95" rx="4" fill="#ccc"/><rect x="294.24" y="421.46" width="81.7" height="11.95" rx="4" fill="#ccc"/><rect x="295.84" y="440.02" width="63.03" height="11.95" rx="4" fill="#ccc"/><rect x="364.55" y="440.02" width="63.03" height="11.95" rx="4" fill="#ccc"/><rect x="380.31" y="421.46" width="61.22" height="11.95" rx="4" fill="#ccc"/><rect x="444.94" y="421.46" width="47.78" height="11.95" rx="4" fill="#ccc"/><circle cx="377.16" cy="497.35" r="3.15" fill="#2f2e41"/><circle cx="392.92" cy="497.35" r="3.15" fill="#ccc"/><circle cx="407.77" cy="497.35" r="3.15" fill="#ccc"/><rect x="286.99" y="517.45" width="211.6" height="25.6" rx="8.57" fill="#ccc"/><rect x="287.12" y="554.14" width="211.6" height="25.6" rx="8.57" fill="#2f2e41"/><path d="M84.07,586.91l2.76,18.66S78.55,627,80.62,636.73s9.68,9.68,13.12,6.92,6.93-10.36,6.93-16.59-.69-20.74-.69-24.2a108,108,0,0,0-2.07-13.13Z" fill="#f9b499"/><path d="M89.2,635.76c-4.86-.56-7.22-5.62-8.31-9.16a29,29,0,0,0-.27,10.1c2.07,9.68,9.68,9.68,13.12,6.91,3-2.4,6.05-8.52,6.77-14.17C98.05,632.45,93.93,636.28,89.2,635.76Z" fill="#f48225" data-secondary="true"/><path d="M202.85,584.09s13.67,29.18,16.11,33.14,14.89,17.93,14,18.85-4.25,2.73-11.26,1.52-12.15-6.38-15.5-9.74-11-4.56-14.28-6.38-.92-12.17.91-15.82a15,15,0,0,0,1.84-6.06L188.57,582Z" fill="#f9b499"/><path d="M233,636.08c.52-.54-3.37-5.38-7.24-10.16a18,18,0,0,1-11,1.34c-6.39-1.84-16.73-19.16-21.88-21.6-1.84,3.67-4.27,14-.92,15.82s11,3,14.28,6.38,8.52,8.51,15.51,9.74S232.18,637,233,636.08Z" fill="#f48225" data-secondary="true"/><path d="M59.19,351.16S46.05,394.71,49.51,419s18,66.36,18.66,71.2-4.84,24.89.7,44.95,9.68,59.46,9.68,59.46l20.73-1.39,11-173.54s33.91,77.3,37.39,82.22,32.5,84.32,32.5,84.32l24.2,1.37S188.46,494.25,185,485.25s-11-24.88-11-24.88-15.2-90.57-18-100.25-14.52-35.27-14.52-35.27l-65.68,2.77Z" fill="#2f2e41"/><path d="M97.92,334.73s23.38,3.21,41.25-1.37c0,0-18.33-97.61-18.33-99.44s-44.91,6.41-44.91,6.41Z" fill="#fff" stroke="#263238" stroke-linecap="round" stroke-linejoin="round"/><path d="M120.62,199.8l-8,17.29,5.61,26.63a20.8,20.8,0,0,1-14,5.13,41,41,0,0,1-14.48-2.32l-8.88-36,19.16-28A27.94,27.94,0,0,0,120.62,199.8Z" fill="#f9b499"/><polygon points="104.05 198.37 114.63 212.82 119.06 203.19 104.05 198.37" fill="#f7a78d"/><path d="M138.11,156.77s1.59-.43,6.8-5.56,10.74-8.42-2.81-22.92-46.25-18.22-57.94-13.54-28,26.59-29.9,39.72,5.61,21.5,6.07,26.16-11.68,8.37-.46,20.56,22,11.64,33.64,9.81,15.41-17.28,15.41-17.28-7.93-.46-10.26-3.67-8.42-11.22-8-16.81,8-1.41,12.16-5.15,0-10.28,7-12.15,15.89-3.67,17.28-8.4l.71-2.34S136,152.74,138.11,156.77Z" fill="#2f2e41"/><path d="M107.53,392.31a117.92,117.92,0,0,1-29.44.46c-15-1.83-34.11-8.41-34.11-8.41l25.24-59.71S43,237.73,43,234.47c0-2.19,16.77-12,28-18.34,5.63-3.19,9.86-5.49,9.86-5.49s19.62,49.49,20.17,58.4c.37,7.13,2.55,30.46,3.87,43.06.34,3.11.62,5.5.8,6.94C106.59,326,107.53,392.31,107.53,392.31Z" fill="#f48225" data-secondary="true"/><path d="M104.85,312c-5.2-12.5-12.35-30.2-15.8-40.89C84.27,256.26,74.39,225.92,71,216c5.63-3.19,9.86-5.49,9.86-5.49s19.62,49.49,20.17,58.4C101.35,276.08,103.53,299.41,104.85,312Z" fill="#fff" opacity="0.2"/><path d="M219.68,183.91s5.88-15.14,5.88-17,2.51-25.56,2.51-25.56.86-2.74,2.57-2.74,1.69,1,1.69,2.65-.5,8.45-.5,8.45,1.94-9.42,2.42-13.29,1.21-6.28,2.91-5.31,1.93,2.18,1.93,4.58-1.21,13-1.21,13,5.5-16.18,6.05-18.33,2.16-1.92,2.9.5-2.9,12.31-2.9,14.26a23.26,23.26,0,0,1-1,5.08s4.6-6.05,6.28-8.24,3.14-3.37,3.38-.71-1.93,6.29-2.9,8-3.66,7.74-3.66,7.74l-.24,4.84,8.23-4.6s2.66,1,1.68,3.13-9.42,8.23-9.42,8.23-3.87,3.38-4.6,4.35a22.59,22.59,0,0,1-5.08,2.89l-7.49,15.71Z" fill="#f9b499"/><path d="M234.16,189s-26.18,69.17-28,70.56S154.25,254,154.25,254l-5.6,42.53,19.63,86.45s-9.83,6.54-14.5,6.54H139.3s-5.81-44.85-10.8-79.15c-2.88-19.8-5.5-36.08-6.49-38.13-2.8-5.61-9.35-55.14-9.35-55.14l3.28-5.15,5,.42,33.3,2.86,34.12,12.61,30.37-47.2Z" fill="#f48225" data-secondary="true"/><path d="M128.5,310.35c-2.88-19.79-5.5-36.07-6.49-38.12-2.8-5.61-9.35-55.14-9.35-55.14l3.28-5.15,5,.42c2.27,7.86,9.36,33.12,10.81,49.49C133.28,279.21,129.42,304.67,128.5,310.35Z" fill="#fff" opacity="0.2"/><polygon points="154.25 253.99 158.31 234.17 163.49 254.94 154.25 253.99" opacity="0.2"/><path d="M43,234.37S21.85,298.53,19.1,316.86s15.12,18.79,23.83,15.58S57.6,282,57.6,282Z" fill="#f48225" data-secondary="true"/><polygon points="44.77 270.12 56.22 336.57 104.8 331.53 92.88 265.54 44.77 270.12" fill="#2f2e41"/><path d="M40.44,313.65l.46,33s7.79-19.25,6.87-25.21S40.44,313.65,40.44,313.65Z" fill="#f48225" data-secondary="true"/><path d="M40.44,313.65l.46,33s7.79-19.25,6.87-25.21S40.44,313.65,40.44,313.65Z" opacity="0.2"/><path d="M20,314.11s-5,9.63-4.13,17.42,13.75,14.66,17,14.66a78.82,78.82,0,0,1,8.27.7v-33l-10.58-1.61" fill="#f48225" data-secondary="true"/><path d="M43.85,312.74s-.48-17-.48-19.25S54.83,283.87,57.58,282s4.58-1.83,3.66,1.38-10.54,9.16-10.54,9.16l-.45,3.21S58,288.91,62.64,288s5.5-2.29,5.5.46-6.88,6-8.71,7.33-8.25,7.33-8.25,7.33,8.25-5,13.75-5.95,6.87-.92,6.87.91-1.83,2.75-4.58,4.13-10.54,4.58-10.54,4.58l-2.75,3.67s13.29-2.75,14.66-3.67,3.67-.46.92,2.29S55.76,316,55.76,316a32.53,32.53,0,0,1-2.75,8.7c-1.83,3.21-6.87,3.67-6.87,3.67l-4.6-1.83L42,313.65Z" fill="#f9b499"/><path d="M484.47,187.67a39.6,39.6,0,0,0,2.86,9.16A113.9,113.9,0,0,0,507,226.71c7.34,8,14.88,16,21.42,20.31a15.34,15.34,0,0,0,17,0c6.92-4.61,14.92-13,22.75-21.56a141.5,141.5,0,0,0,17.68-23.88,49.06,49.06,0,0,0,5.81-16c3.33-18.58,6.12-37.15,9.57-55.72a4,4,0,0,0-2.27-4.36,311.52,311.52,0,0,1-33.31-17.73c-9.31-5.78-16.85-13.66-24.26-19.34a5.07,5.07,0,0,0-6.66.46c-17.14,17-49.23,35.56-58.16,40.64a3.92,3.92,0,0,0-1.92,4.09Z" fill="#f48225" data-secondary="true"/><path d="M494.49,184.66a32,32,0,0,0,2.34,7.46,93.08,93.08,0,0,0,16.05,24.33c6,6.56,12.17,13,17.52,16.54a12.58,12.58,0,0,0,13.87,0c5.65-3.75,12.2-10.55,18.6-17.55A114.93,114.93,0,0,0,577.33,196a40.05,40.05,0,0,0,4.76-13c2.71-15.13,5-30.25,7.82-45.38a3.28,3.28,0,0,0-1.86-3.55,253.16,253.16,0,0,1-27.24-14.44C553.2,114.9,547,108.48,541,103.85a4.17,4.17,0,0,0-5.45.37c-14,13.85-40.26,29-47.57,33.11a3.19,3.19,0,0,0-1.57,3.32Z" opacity="0.2"/><circle cx="539.64" cy="160.11" r="21.14" fill="#f48225" data-secondary="true"/><polygon points="528.78 155.5 539.64 176.13 550.55 145.19 536.93 163.06 528.78 155.5" fill="#fff"/><path d="M810.05,364.35l5.11,12.37s-1.19,11.91,0,14.34a56.07,56.07,0,0,1,3.2,8c.39,1.6,1.58,4,2.79,2.79s.8-6,.8-6l-.8-6.38,6,10.75s4,8.22,5.1,8.22,3.59-.78,2.4-2.79a33.74,33.74,0,0,1-3.57-8.22,29.21,29.21,0,0,0-2-5.58l1.58-1.59,6.81,12.36s3,6,5.1,4.39-4.78-14-5.1-15.16a31.18,31.18,0,0,0-1.21-3.18l.8-1.6a70.65,70.65,0,0,0,4.8,7.18c1.19,1.19,2.79,4.78,4,4.78s3.18-.8,2-2.79-4-6.38-4-6.38l-4.39-8,4,2a23.87,23.87,0,0,0,4.52,1.82,1.86,1.86,0,0,0,1.78-.41l.13-.12a1.92,1.92,0,0,0-.52-3.09c-1.16-.56-2.5-1.19-3.12-1.39-1.21-.39-4.37-2.79-5.58-3.19s-3.59-4.38-6.38-6.38-5.11-4-6.38-4.79a62,62,0,0,1-4.78-4.38l-4.39-4Z" fill="#f9b499"/><path d="M666.23,449s5.32,32.42,12.76,48.89,20.21,96.77,22.33,105.28,4.73,23.92,4.73,23.92a49.77,49.77,0,0,1-13.28,12.23c-8,4.78-16.49,10.11-19.67,10.64s-6.92,5.3-3.2,6.9,18.09.53,25-.52,14.89-1.08,19.14-2.13,13.29,4.25,15.42-4.78-2.66-26.59-2.66-26.59-4.25-65.93-4.25-82.41S714,494.21,714,494.21l-4.2-57.38-42,2.65Z" fill="#f9b499"/><path d="M729.5,649.49c2.12-9-2.66-26.59-2.66-26.59s-4.25-65.92-4.25-82.41a104.48,104.48,0,0,0-1.7-16.83c-10.75,3.56-25.52,2.4-34.47,1.16,6.55,29.89,13.46,72.36,15,78.41,2.13,8.51,4.78,23.92,4.78,23.92a49.81,49.81,0,0,1-13.28,12.24c-8,4.78-16.49,10.1-19.67,10.63s-6.92,5.31-3.2,6.91,18.09.52,25-.53,14.89-1.07,19.14-2.13S727.37,658.49,729.5,649.49Z" fill="#686175" data-primary="true"/><path d="M681.66,442.65S671.55,488.89,671.55,499s0,37.75,1.06,45.71S675.28,625,675.28,625s-5.33-.52-5.33,1.08v3.7a129,129,0,0,1-19.66,4.8c-12.24,2.13-20.74.53-20.74,4.26s18.08,11.68,31.37,15.41,33.5,7.43,36.68,4.25,2.65-15.41,2.65-18.61.55-10.63.55-14.89-.55-7.43.52-11.16,10.11-45.73,10.11-55.29-.54-37.22-2.13-43.6-4.79-22.85-4.79-22.85,19.68-29.77,26.06-40.41a195.17,195.17,0,0,0,11.69-23.92l-61.15,6.38Z" fill="#f9b499"/><path d="M671.62,517.23c.1,10.89.36,22.72,1,27.48,1.07,8,2.67,80.28,2.67,80.28s-5.33-.52-5.33,1.08v3.7a129,129,0,0,1-19.66,4.8c-12.24,2.13-20.74.53-20.74,4.26s18.08,11.68,31.37,15.41,33.5,7.43,36.68,4.25,2.65-15.41,2.65-18.61.55-10.63.55-14.89-.55-7.43.52-11.16,10.11-45.73,10.11-55.29c0-8.4-.41-30.76-1.6-40.39A226.83,226.83,0,0,1,671.62,517.23Z" fill="#686175" data-primary="true"/><path d="M658.79,433.6l.53,19.68s20.21,1.06,45.73,1.06S762.47,440,762.47,440l-4.25-15.42L688,401.1Z" fill="#2f2e41"/><path d="M662.84,138.92s-28.24,22.3-23.51,33.89,15.94,25.12,16.33,31.09S638.92,227,646.1,237s59.82,14.35,64.19,22.72-6.38,22.73-2.79,32.7,24.72,14.75,48.66,10,39.47-20.33,35.08-41.46-30.62-20.74-33.5-33.1.8-17.94-8.37-21.13-21.13,1.59-19.14-5.59,14.36-16.74,6.81-27.91-17.56-13.15-15.55-15.55,13.61,0,8-9.17-34.3-17.88-47.06-17.54A28.54,28.54,0,0,0,662.84,138.92Z" fill="#2f2e41"/><path d="M607,228.3l-.23-8s3.76-11.91,4.23-14.13-3.06-13.4-4-14.81-10.82-9-13.42-13.19-8.69-4.46-10.82-4-2.59,2.83-1.17,3.54a15.47,15.47,0,0,1,4,1.87c1,1,5,5.43,5.41,6.13s-8.93,12.71-8.93,16A23,23,0,0,0,585.77,213a123.17,123.17,0,0,0,8,10.36L592.59,230Z" fill="#f9b499"/><path d="M591.66,186s-6.81-5.11-8.24-2.35-4,4-2.36,5.87,8,9.88,9.88,8.71,2.59-1.41,1.71-3.76a52.24,52.24,0,0,0-3.07-5.89" fill="#f9b499"/><path d="M581.54,190.89s-4,4-3.76,5.65,6.58,8.71,9.88,8,.7-3.76,0-5.1-1.89-4-1.89-4Z" fill="#f9b499"/><path d="M578.24,198.43a5.35,5.35,0,0,0-1.42,4.71c.48,3,6.6,6.58,7.78,5.87s.48-4-.48-5.11a15,15,0,0,0-2.11-2.1Z" fill="#f9b499"/><path d="M596.83,210a22.45,22.45,0,0,1,3.06-8.5,31.91,31.91,0,0,0,4.24-9.65c0-.72-2.35-9.65-1.89-12.25s5.41-7.28,5.65-4.24a67.42,67.42,0,0,0,.94,10.13c.95,5.1,3.77,10.2,3.06,17.88s-8,13.61-8,13.61" fill="#f9b499"/><path d="M676.86,221.6s-35.08,11.91-37.43,16-25.11,39.13-25.11,39.13L607.14,226l-16.76.41s-3.18,33.48-3.18,49.44,5.19,35.49,8.37,41.46,6,5.1,10,2,36.68-29.11,36.68-29.11l7.18,39.47s3.2,49.44,4,50.63-4,58.62-4,58.62,17.15,4.39,20.42,4.39,8.37.39,8.37.39l9.56-27.11,2.4,27.51s29.5,2,51-4.79,23.53-12.75,23.53-12.75-1.6-32.7-7.18-50.64-22.73-48.24-26.32-55S728,310.17,728.43,307s4-38.67,4-38.67l37.43,39.13,37.08,62.21s8.78-3.59,10.77-4.8,4.78-6.8,4.78-6.8-15.55-38.67-21.13-48.64-14-23.53-14-23.53-30.62-50.24-31.11-51.45-4.38-10.75-8-12.35-41.06-4.39-43.46-4.39-7.57.39-8.78.39S676.86,221.6,676.86,221.6Z" fill="#686175" data-primary="true"/><path d="M672,192.1s2.4,25.52,2.79,29.11-3.59,10.36-1.6,16.35,6.38,11.91,14,6,15.14-21.13,15.14-24.31V188.9S678.46,197,672,192.1Z" fill="#f9b499"/><path d="M674.08,213.68l-.93-6.13s20.92.76,29.18-6.35C702.33,201.2,694.8,217.2,674.08,213.68Z" fill="#f7a78d"/><path d="M704.74,196.9c2.09-4.77,6.66-21.73,6.66-21.73s-17.25-11.53-27-28.82c0,0-23.06,16.4-23.06,19.51s-.8,14.5,1.07,24.82c.13.71.25,1.42.35,2.14.48,3.61,3.51,19.21,21.19,17.52C683.9,210.34,698.49,211.21,704.74,196.9Z" fill="#f9b499"/><path d="M711.4,175.17l2.11,4.06a5.47,5.47,0,0,1-.3,5.68A17.83,17.83,0,0,1,711.5,187c-2.66,2.93-4.34,2.93-4.34,2.93l3-12.23Z" fill="#f9b499"/><path d="M661.12,175.51s-5,1.6-4.42,5.38,5.29,7.47,5.29,7.47Z" fill="#f9b499"/><path d="M387.6,527.72h-2.26a2.67,2.67,0,0,0-1-.82,2.84,2.84,0,0,0-1.26-.27,2.81,2.81,0,0,0-1.08.21,2.61,2.61,0,0,0-.91.63,3,3,0,0,0-.89,2.14,3,3,0,0,0,.84,2.18,2.69,2.69,0,0,0,2,.88,3,3,0,0,0,1.25-.26,2.27,2.27,0,0,0,.9-.75h2.27a5,5,0,0,1-1.77,2.17,4.65,4.65,0,0,1-2.64.73,4.59,4.59,0,0,1-3.57-1.63,4.46,4.46,0,0,1-.92-1.52,5.25,5.25,0,0,1-.31-1.83,4.76,4.76,0,0,1,.37-1.87,5.11,5.11,0,0,1,1.11-1.61,5,5,0,0,1,1.53-1,4.7,4.7,0,0,1,1.81-.34,4.59,4.59,0,0,1,2.65.74A5.32,5.32,0,0,1,387.6,527.72Z" fill="#2f2e41"/><path d="M390.09,532.39l-.73,2h-1.92l3.67-9.46h1.6l3.61,9.46h-2l-.74-2Zm2.9-1.75-1.12-3-1.14,3Z" fill="#2f2e41"/><path d="M401.52,534.37h-4.79v-9.46h1.83v7.8h3Z" fill="#2f2e41"/><path d="M407.38,534.37h-4.8v-9.46h1.83v7.8h3Z" fill="#2f2e41"/><path d="M367.64,571.06H365.8V561.6h2.45l2.41,6.88,2.39-6.88h2.45v9.46h-1.82l.06-6.87-2.39,6.87H370l-2.39-6.87Z" fill="#ccc"/><path d="M382.18,571.06h-5.11V561.6h5.11v1.67H378.9v2.15h3.28v1.64H378.9v2.34h3.28Z" fill="#ccc"/><path d="M383.15,568.12h1.69v.13a1.4,1.4,0,0,0,.31,1,1,1,0,0,0,.83.36,1.17,1.17,0,0,0,.88-.33,1.26,1.26,0,0,0,.33-.91c0-.61-.44-1.05-1.31-1.31l-.27-.09a3.43,3.43,0,0,1-1.64-1,2.45,2.45,0,0,1-.53-1.6,3.06,3.06,0,0,1,.74-2.14,2.53,2.53,0,0,1,2-.81,2.39,2.39,0,0,1,1.83.72,3.05,3.05,0,0,1,.76,2h-1.67v-.08a1,1,0,0,0-.27-.73,1.05,1.05,0,0,0-1.44,0,1.13,1.13,0,0,0-.26.78,1,1,0,0,0,.06.36.66.66,0,0,0,.17.29,2.49,2.49,0,0,0,1.14.54l.6.18a2.91,2.91,0,0,1,1.44.94A2.57,2.57,0,0,1,389,568a3.34,3.34,0,0,1-.81,2.35,2.79,2.79,0,0,1-2.16.89,2.64,2.64,0,0,1-2-.86A3.3,3.3,0,0,1,383.15,568.12Z" fill="#ccc"/><path d="M389.52,568.12h1.69v.13a1.4,1.4,0,0,0,.31,1,1.05,1.05,0,0,0,.83.36,1.17,1.17,0,0,0,.88-.33,1.26,1.26,0,0,0,.33-.91c0-.61-.44-1.05-1.31-1.31l-.27-.09a3.39,3.39,0,0,1-1.63-1,2.4,2.4,0,0,1-.54-1.6,3.06,3.06,0,0,1,.74-2.14,2.53,2.53,0,0,1,2-.81,2.43,2.43,0,0,1,1.84.72,3.16,3.16,0,0,1,.76,2h-1.68v-.08a1,1,0,0,0-.27-.73.94.94,0,0,0-.72-.28.91.91,0,0,0-.71.29,1.09,1.09,0,0,0-.27.78,1,1,0,0,0,.06.36.66.66,0,0,0,.17.29,2.49,2.49,0,0,0,1.14.54l.6.18a2.91,2.91,0,0,1,1.44.94,2.57,2.57,0,0,1,.46,1.58,3.34,3.34,0,0,1-.81,2.35,2.79,2.79,0,0,1-2.16.89,2.64,2.64,0,0,1-2-.86A3.3,3.3,0,0,1,389.52,568.12Z" fill="#ccc"/><path d="M398.08,569.08l-.73,2h-1.92l3.67-9.46h1.6l3.61,9.46h-2l-.74-2Zm2.9-1.76-1.12-3-1.14,3Z" fill="#ccc"/><path d="M413.79,566v.16a1.1,1.1,0,0,1,0,.16,5.7,5.7,0,0,1-.11,1.13,4.14,4.14,0,0,1-.34,1,5,5,0,0,1-1.82,2,5,5,0,0,1-4.59.32,5,5,0,0,1-1.63-1.22,4.6,4.6,0,0,1-.92-1.53,5,5,0,0,1-.32-1.82,4.57,4.57,0,0,1,.38-1.87,5.3,5.3,0,0,1,1.12-1.62,4.7,4.7,0,0,1,1.57-1,5.22,5.22,0,0,1,1.9-.34,4.6,4.6,0,0,1,2.64.75,4.79,4.79,0,0,1,1.71,2.18h-2.24a2.74,2.74,0,0,0-1-.77,2.92,2.92,0,0,0-1.24-.25,2.76,2.76,0,0,0-2.06.87,3,3,0,0,0-.85,2.13,3,3,0,0,0,.86,2.15,2.83,2.83,0,0,0,2.1.87,2.78,2.78,0,0,0,1.57-.46,2.91,2.91,0,0,0,1-1.26h-3.71V566Z" fill="#ccc"/><path d="M420.06,571.06H415V561.6h5.11v1.67h-3.28v2.15h3.28v1.64h-3.28v2.34h3.28Z" fill="#ccc"/><path d="M533,535.3h0a23.36,23.36,0,0,1,23.36-23.37H569a23.36,23.36,0,0,1,23.36,23.37h-6.63a17,17,0,0,0-17.05-17H556.37a17.05,17.05,0,0,0-17,17H533Z" fill="#2f2e41"/><path d="M533,535.3h0a23.36,23.36,0,0,1,23.36-23.37H569a23.36,23.36,0,0,1,23.36,23.37h-6.63a17,17,0,0,0-17.05-17H556.37a17.05,17.05,0,0,0-17,17H533Z" opacity="0.2"/><path d="M494.17,532.46H632.91A23.56,23.56,0,0,1,656.47,556v88.5A22.43,22.43,0,0,1,634,667H494a22.43,22.43,0,0,1-22.43-22.43V555A22.56,22.56,0,0,1,494.17,532.46Z" fill="#2f2e41"/><path d="M494.17,532.46H632.91A23.56,23.56,0,0,1,656.47,556v88.5A22.43,22.43,0,0,1,634,667H494a22.43,22.43,0,0,1-22.43-22.43V555A22.56,22.56,0,0,1,494.17,532.46Z" opacity="0.2"/><path d="M493.53,532.46h140a22.92,22.92,0,0,1,22.92,22.92v31.88a0,0,0,0,1,0,0H471.61a0,0,0,0,1,0,0V554.38A21.91,21.91,0,0,1,493.53,532.46Z" opacity="0.2"/><path d="M564.74,596.57h-2.21a13.47,13.47,0,0,1-13.46-13.45V566.55h1.34v16.57a12.13,12.13,0,0,0,12.12,12.12h2.21a12.13,12.13,0,0,0,12.11-12.12V566.86h1.34v16.26A13.47,13.47,0,0,1,564.74,596.57Z" fill="#ccc"/><path d="M580.68,608.26a.67.67,0,0,1-.67-.67V594.33a16.38,16.38,0,0,0-32.76,0v13.26a.67.67,0,1,1-1.33,0V594.33a17.72,17.72,0,1,1,35.43,0v13.26A.67.67,0,0,1,580.68,608.26Z" fill="#ccc"/><rect x="547.07" y="507.63" width="31.31" height="16.91" rx="2.12" fill="#ccc"/><path d="M533,535.3h0a23.36,23.36,0,0,1,23.36-23.37H569a23.36,23.36,0,0,1,23.36,23.37h-6.63a17,17,0,0,0-17.05-17H556.37a17.05,17.05,0,0,0-17,17H533Z" fill="#2f2e41"/><path d="M533,535.3h0a23.36,23.36,0,0,1,23.36-23.37H569a23.36,23.36,0,0,1,23.36,23.37h-6.63a17,17,0,0,0-17.05-17H556.37a17.05,17.05,0,0,0-17,17H533Z" opacity="0.2"/><path d="M494.17,532.46H632.91A23.56,23.56,0,0,1,656.47,556v88.5A22.43,22.43,0,0,1,634,667H494a22.43,22.43,0,0,1-22.43-22.43V555A22.56,22.56,0,0,1,494.17,532.46Z" fill="#2f2e41"/><path d="M494.17,532.46H632.91A23.56,23.56,0,0,1,656.47,556v88.5A22.43,22.43,0,0,1,634,667H494a22.43,22.43,0,0,1-22.43-22.43V555A22.56,22.56,0,0,1,494.17,532.46Z" opacity="0.2"/><path d="M493.53,532.46h140a22.92,22.92,0,0,1,22.92,22.92v31.88a0,0,0,0,1,0,0H471.61a0,0,0,0,1,0,0V554.38A21.91,21.91,0,0,1,493.53,532.46Z" opacity="0.2"/><path d="M564.74,596.57h-2.21a13.47,13.47,0,0,1-13.46-13.45V566.55h1.34v16.57a12.13,12.13,0,0,0,12.12,12.12h2.21a12.13,12.13,0,0,0,12.11-12.12V566.86h1.34v16.26A13.47,13.47,0,0,1,564.74,596.57Z" fill="#ccc"/><path d="M580.68,608.26a.67.67,0,0,1-.67-.67V594.33a16.38,16.38,0,0,0-32.76,0v13.26a.67.67,0,1,1-1.33,0V594.33a17.72,17.72,0,1,1,35.43,0v13.26A.67.67,0,0,1,580.68,608.26Z" fill="#ccc"/><rect x="547.07" y="507.63" width="31.31" height="16.91" rx="2.12" fill="#ccc"/></svg>