<svg id="a21e8b06-4abc-4ece-9329-69a454c7651e" data-name="Layer 1" xmlns="http://www.w3.org/2000/svg" xmlns:xlink="http://www.w3.org/1999/xlink" width="865.76" height="682.89" viewBox="0 0 865.76 682.89"><defs><clipPath id="bb14f6e7-1a9d-48f3-95a8-ac242cb2cd8b"><rect x="730.98" y="200.23" width="59.89" height="14.67" fill="#aac8f9" stroke="#6259b0" stroke-miterlimit="10"/></clipPath><clipPath id="b93a190d-1e61-4ce6-abbc-e283d2813a30"><path d="M327.87,653c-3.3-2.44-6-4-16.49-9.18-.69-.33-3.19-1.93-4.09-2.49a31.46,31.46,0,0,1-6.56-5.82c-1.27-1.42-2.09-4.94-2.62-8.74,0-.23,17.79-210.41,21.58-232s-2-54.59-2-54.59L313,338.39l2.14-12.64-56.89,7.48s-15.93,24.12-19.72,44.07,2.78,81.28-4.51,107.43c-4,14.16-18.92,36-21.2,54.31s-10.52,72.58-10.52,72.58h0c-1.2,5.23-3,11.19-5.18,14.09-1.49,1.95-4.21,4.42-6,7.95-2.78,5.49-1.25,13.66.81,18.16,1,2.31.14-1.71,2.54-1,7.11,2.2,14.45,2.5,17.47-4.35a42.62,42.62,0,0,0,3.47-15.34,75.93,75.93,0,0,1,1.76-13.29l51.67-128.27,10.9-32,1,33.81s-6,19.49-6.76,31.12,8.46,97.36,8.46,97.38c.27,6.16.41,13.58-.28,17.1s-4.56,10.81-2.79,14.13,6.59,1.5,6.59,1.5l37.49.69C326,653.4,329.89,654.5,327.87,653Z" fill="#f9c7a5" stroke="#351d66" stroke-miterlimit="10"/></clipPath><clipPath id="b406b5c2-ae59-4679-a15a-eceab91f7bc4"><path d="M296.18,197.51a60.17,60.17,0,0,1,5.58,2.53c8.78,5.5,34.61,42,34.61,42s-10.15,15.44-21.23,21.79l-36-32.57Z" fill="#686175" data-primary="true" stroke="#351d66" stroke-miterlimit="10"/></clipPath><clipPath id="ffdb4b59-9c9c-43d5-8932-19cbf433e2e4"><path d="M254.55,335.51c-24.54,30.57-36,47.64-24.22,90.56,10.39,37.85,5.8,51.58-15.76,91.39,39,23,94.67,17.38,94.67,17.38,14.4-133.44,19-164.72,8.47-194.67A421.18,421.18,0,0,1,254.55,335.51Z" fill="#f48225" data-secondary="true" stroke="#351d66" stroke-miterlimit="10"/></clipPath><clipPath id="a9f6e395-8c6e-4c0a-bb3d-37144c5b0c6c"><path d="M269,192.11s-22.49-1.43-31.38,8.25,19.73,86.23,21.35,98.55-12.25,38.47-12.25,38.47S287.37,354.58,321,345c0,0-.68-88.92-2.3-97.72s-15.1-44.57-18.33-48.09S269,192.11,269,192.11Z" fill="#686175" data-primary="true" stroke="#351d66" stroke-miterlimit="10"/></clipPath><clipPath id="b2318f31-8e79-42d8-b43b-f3fd96907d6d"><path d="M276.52,162.12l-.33,1.79c-1,5.39-4.86,23.29-7.47,28.21-3.15,5.95,10.79,24.91,24.21,22.6,4-.69-3.37-17.43-3-19.2.68-3.39,1.6-8,2.54-12.77.53-2.68,1.07-5.39,1.57-7.95,1.44-7.25,2.61-13.18,2.61-13.18Z" fill="#f9c7a5" stroke="#351d66" stroke-miterlimit="10"/></clipPath><clipPath id="bb8a67c9-5ee8-4229-abfa-f118d27ab226"><path d="M248.63,194.23s-12.7,2.33-18.86,13.62c-4.06,7.46-8.4,42-7.06,67.61,8.59-1.82,25,0,33.89,0C256.26,252.47,252.94,193.46,248.63,194.23Z" fill="#686175" data-primary="true" stroke="#351d66" stroke-miterlimit="10"/></clipPath><clipPath id="f17eb34b-fb91-400f-bd05-a92fe4b48c69"><path d="M540.45,327.06s16.69,24.42,20.67,44.62S558.2,454,565.85,480.47c4.14,14.34,19.82,36.48,22.21,55s11.74,67,11.74,67l-21.19,4.09L529.36,485.42,490.73,375.89l-9.9-56.41Z" fill="#7ddcf2" stroke="#351d66" stroke-miterlimit="10"/></clipPath><clipPath id="f787b1e5-8947-4cd1-b551-6a44b5f28f7e"><path d="M498.63,239c-3.35-8.89-6.3-18-9.41-26.68-6-16.74-11-34.16-11.72-52-.55-13.44,1.42-26.72,7.41-39.23,5.15-10.77,17.9-16.88,29.52-16.9,36.92,0,41.62,48.94,65.12,67.84,5,4,10.33,7.47,15.41,11.29C586.47,205.4,563.07,236.74,498.63,239Z" fill="#f48225" data-secondary="true" stroke="#351d66" stroke-miterlimit="10"/></clipPath><clipPath id="ea0f80b0-bbbb-4823-8576-b0c342aaa9f1"><path d="M391.61,195.22c.12-2.06,9.46.1,10.68-1.53s-10.23-6.51-10-8.28c.46-3.26,12.87,4.58,13.18,3.09s-12.1-10.2-9.65-11.95,11.92,10.38,13,8.93S399,175,400.64,171.57c.89-1.83,16.59,17.8,19.37,17.75s1.53-10.89,3.95-11.43-.14,20.94.89,22.12,22,28.19,30.79,34.72c2.54-2.79,18.23-16.63,20.55-19.3,3.88,6.17,9.89,9.65,14.08,15.54-8.34,8.59-32.86,28.08-36.26,28.19-10.32.35-32.46-41.44-37.2-49s-9.24-7.59-13.16-11S391.5,197.28,391.61,195.22Z" fill="#f9c7a5" stroke="#351d66" stroke-miterlimit="10"/></clipPath><clipPath id="eed8bd06-0fec-4630-8d0d-00e72aff153d"><path d="M476.63,244.35a3.89,3.89,0,0,0,5.54.73c8.72-6.91,32.89-26.56,38.23-36.4,6.54-12.07-8.91-20.64-21.06-20.78-10.27-.11-30.23,25.7-36.16,33.69a3.89,3.89,0,0,0,0,4.63Z" fill="#686175" data-primary="true" stroke="#351d66" stroke-miterlimit="10"/></clipPath><clipPath id="b87932e7-f357-4d32-97c0-e40cc6807b1e"><path d="M525.41,185.66s21.25-1.36,29.65,7.82S536.42,275.3,534.89,287s7.79,42.76,7.79,42.76-49.91,10.07-64.18.6c0,0-1.52-84,0-92.38s16.38-45.87,19.44-49.21S525.41,185.66,525.41,185.66Z" fill="#686175" data-primary="true" stroke="#351d66" stroke-miterlimit="10"/></clipPath><clipPath id="bc6a7c1d-8343-4504-9295-2cd8be79fa94"><path d="M518.34,157.2l.3,1.7c1,5.12,4.6,22.1,7.06,26.77,3,5.64-10.19,23.64-22.87,21.44-3.78-.65,3.19-16.53,2.85-18.22-.64-3.22-1.51-7.61-2.39-12.11-.51-2.55-1-5.12-1.49-7.54-1.36-6.89-2.46-12.51-2.46-12.51Z" fill="#f9c7a5" stroke="#351d66" stroke-miterlimit="10"/></clipPath><clipPath id="bd04104a-c63d-4258-b2ba-d968ef33bc02"><path d="M511,211.12,476,238.71a17.4,17.4,0,0,1-10.61,3.72c-13.4.11-45.73.76-57.36,1-4.72-.09-11.19.09-12.61-.45a20.69,20.69,0,0,0-5.09-.81c-1.28-.07-4.05-.92-5.25-.81a25.8,25.8,0,0,0-5,1.19c-1.78.62-2.92,1.17-3,1.44s.69,1.37,2,1.25c1-.08,3.88-.33,5.23.21s1,1.42.51,2-5.24,4.06-6.11,4.66c-1.48,1-8.86,6.35-10.13,7.43s-1.81,2.5-.54,3.85,4.55-.65,4.55-.65-.54,2.27.5,3.16a3.48,3.48,0,0,0,2.82.39,2.07,2.07,0,0,0,1,2.43c1.23.69,3.05-.31,3.05-.31a2.45,2.45,0,0,0,1,1.93c1.08.88,3.12-.23,3.12-.23s15.28-11.58,17.2-12.35a17.39,17.39,0,0,1,2.4-.68c4.25-.57,52.45,4.22,69,5.9a14.7,14.7,0,0,0,10.07-2.71l43.53-31.44Z" fill="#f9c7a5" stroke="#351d66" stroke-miterlimit="10"/></clipPath><clipPath id="a537e7b4-961a-4934-b8db-a72fefb13e6e"><path d="M488.87,228.3a4.16,4.16,0,0,1,0-5.73c7.54-7.83,28.6-29.47,37.24-35.81,10.62-7.8,32-1.17,30.28,12.21-1.46,11.59-36.22,38.23-46.71,46a4.14,4.14,0,0,1-5.49-.48Z" fill="#686175" data-primary="true" stroke="#351d66" stroke-miterlimit="10"/></clipPath><clipPath id="a2fe036a-627e-4f31-a730-c4f559c8111d"><rect x="624.64" y="227.73" width="119.78" height="72.72" fill="#aac8f9" stroke="#6259b0" stroke-miterlimit="10"/></clipPath><clipPath id="b38b6a5f-4e03-4536-b8ff-c6d418da7e0c"><rect x="587.36" y="313.9" width="184.56" height="25.67" fill="#aac8f9" stroke="#6259b0" stroke-miterlimit="10"/></clipPath></defs><rect x="757.62" y="207" width="4.89" height="108" fill="#aac8f9" stroke="#6259b0" stroke-miterlimit="10"/><rect x="730.98" y="200.23" width="59.89" height="14.67" fill="#aac8f9"/><g clip-path="url(#bb14f6e7-1a9d-48f3-95a8-ac242cb2cd8b)"><rect x="779.26" y="200.23" width="11.61" height="14.67" fill="#d2e1f9"/></g><rect x="730.98" y="200.23" width="59.89" height="14.67" fill="none" stroke="#6259b0" stroke-miterlimit="10"/><rect x="396.65" y="17.68" width="281.59" height="555.77" rx="8.14" fill="#aac8f9" stroke="#6259b0" stroke-miterlimit="10"/><rect x="412.71" y="62.14" width="249.48" height="496.49" fill="#d2e1f9"/><rect x="412.71" y="62.14" width="11.12" height="496.07" fill="#2d227a"/><rect x="652.73" y="62.14" width="9.01" height="496.07" fill="#2d227a"/><circle cx="503.69" cy="40.81" r="6.04" fill="#d2e1f9"/><rect x="521.81" y="37.04" width="48.32" height="9.06" rx="3.14" fill="#d2e1f9"/><path d="M597.15,601.2s2.71,18.24,7.36,24.13c1.57,2,4.42,4.47,6.29,8,2.92,5.56,1.31,13.83-.84,18.39-1.11,2.34.27.94-2.25,1.7-7.44,2.23-15.56-.14-18.73-7.07a41.9,41.9,0,0,1-3.63-15.54c-.8-16.56-6.1-25-6.1-25Z" fill="#f9c7a5" stroke="#351d66" stroke-miterlimit="10"/><path d="M587.54,642.75c11.55,2,19.23-4.52,23.23-9.44,3.25,5.48,4.37,13.88,2.21,18.45-1.9,4-7.46,3.91-11.83,4.07a11.67,11.67,0,0,1-10.74-6.07C589.34,647.93,587.54,644.76,587.54,642.75Z" fill="#2d227a"/><path d="M327.87,653c-3.3-2.44-6-4-16.49-9.18-.69-.33-3.19-1.93-4.09-2.49a31.46,31.46,0,0,1-6.56-5.82c-1.27-1.42-2.09-4.94-2.62-8.74,0-.23,17.79-210.41,21.58-232s-2-54.59-2-54.59L313,338.39l2.14-12.64-56.89,7.48s-15.93,24.12-19.72,44.07,2.78,81.28-4.51,107.43c-4,14.16-18.92,36-21.2,54.31s-10.52,72.58-10.52,72.58h0c-1.2,5.23-3,11.19-5.18,14.09-1.49,1.95-4.21,4.42-6,7.95-2.78,5.49-1.25,13.66.81,18.16,1,2.31.14-1.71,2.54-1,7.11,2.2,14.45,2.5,17.47-4.35a42.62,42.62,0,0,0,3.47-15.34,75.93,75.93,0,0,1,1.76-13.29l51.67-128.27,10.9-32,1,33.81s-6,19.49-6.76,31.12,8.46,97.36,8.46,97.38c.27,6.16.41,13.58-.28,17.1s-4.56,10.81-2.79,14.13,6.59,1.5,6.59,1.5l37.49.69C326,653.4,329.89,654.5,327.87,653Z" fill="#f9c7a5"/><g clip-path="url(#b93a190d-1e61-4ce6-abbc-e283d2813a30)"><path d="M273.83,534.89,276.72,562s6.93-21.36,28.87-18.48v-8.66S286.53,536.05,273.83,534.89Z" fill="#f7a091"/><path d="M212.82,539s1-12.81,6.17-18.58c0,0,25.4,10.39,33.48,10.39l-5.77,13.28S236.68,530.49,212.82,539Z" fill="#f7a091"/></g><path d="M327.87,653c-3.3-2.44-6-4-16.49-9.18-.69-.33-3.19-1.93-4.09-2.49a31.46,31.46,0,0,1-6.56-5.82c-1.27-1.42-2.09-4.94-2.62-8.74,0-.23,17.79-210.41,21.58-232s-2-54.59-2-54.59L313,338.39l2.14-12.64-56.89,7.48s-15.93,24.12-19.72,44.07,2.78,81.28-4.51,107.43c-4,14.16-18.92,36-21.2,54.31s-10.52,72.58-10.52,72.58h0c-1.2,5.23-3,11.19-5.18,14.09-1.49,1.95-4.21,4.42-6,7.95-2.78,5.49-1.25,13.66.81,18.16,1,2.31.14-1.71,2.54-1,7.11,2.2,14.45,2.5,17.47-4.35a42.62,42.62,0,0,0,3.47-15.34,75.93,75.93,0,0,1,1.76-13.29l51.67-128.27,10.9-32,1,33.81s-6,19.49-6.76,31.12,8.46,97.36,8.46,97.38c.27,6.16.41,13.58-.28,17.1s-4.56,10.81-2.79,14.13,6.59,1.5,6.59,1.5l37.49.69C326,653.4,329.89,654.5,327.87,653Z" fill="none" stroke="#351d66" stroke-miterlimit="10"/><path d="M213.32,642.91c-11,2-18.35-4.46-22.17-9.31-2.8,5.5-4.17,13.7-2.11,18.22,1.82,4,7.12,3.86,11.3,4,4.41.16,7.83-2.31,10-6.17A38,38,0,0,0,213.32,642.91Z" fill="#686175" data-primary="true" stroke="#351d66" stroke-miterlimit="10"/><path d="M307.28,641.34c-12.13,3.13-21.1,1-26.11-1-1.3,3.69-3,8.31-2.1,11,1.11,3.27,2.7,4,4.1,4,11.08.29,40.59.69,49,.8a1.39,1.39,0,0,0,1.07-2.28C331.18,651.33,308.19,641.9,307.28,641.34Z" fill="#686175" data-primary="true" stroke="#351d66" stroke-miterlimit="10"/><path d="M321.75,163.36c.59-14.17-1.49-28.16-7.83-41.35-5.46-11.35-18.95-17.79-31.26-17.81-39.08,0-44,51.58-68.92,71.5-7.6,6.08-16.1,11-23.29,17.6-26.56,24.24-14.59,69.09,9.79,90.34,16.93,14.74,43.52,23.12,64.38,11.59,10.88-6,19.15-16,25-27,8.35-15.55,13.74-33.49,19.69-50.07C315.67,200.55,321,182.19,321.75,163.36Z" fill="#f48225" data-secondary="true" stroke="#351d66" stroke-miterlimit="10"/><path d="M296.18,197.51a60.17,60.17,0,0,1,5.58,2.53c8.78,5.5,34.61,42,34.61,42s-10.15,15.44-21.23,21.79l-36-32.57Z" fill="#686175" data-primary="true"/><g clip-path="url(#b406b5c2-ae59-4679-a15a-eceab91f7bc4)"><path d="M301.76,200s23.48,30.14,27.66,54.74l-7,3.71S304.73,205.18,301.76,200Z" opacity="0.2"/></g><path d="M296.18,197.51a60.17,60.17,0,0,1,5.58,2.53c8.78,5.5,34.61,42,34.61,42s-10.15,15.44-21.23,21.79l-36-32.57Z" fill="none" stroke="#351d66" stroke-miterlimit="10"/><path d="M254.55,335.51c-24.54,30.57-36,47.64-24.22,90.56,10.39,37.85,5.8,51.58-15.76,91.39,39,23,94.67,17.38,94.67,17.38,14.4-133.44,19-164.72,8.47-194.67A421.18,421.18,0,0,1,254.55,335.51Z" fill="#f48225" data-secondary="true"/><g clip-path="url(#ffdb4b59-9c9c-43d5-8932-19cbf433e2e4)"><path d="M214.57,517.46s29.37,15.81,54.75,16.36c0,0-2.37-20.69,1.38-38.24a62.07,62.07,0,0,0-11.56-50.29c-8.26-10.9-15.1-23.8-14.6-36.23a92.65,92.65,0,0,0-3.69-28.21c-2.58-9.39-2-23.43,10.81-41.85,0,0-39.35,34.51-21.33,87.07C230.33,426.07,243.65,459,214.57,517.46Z" opacity="0.2"/></g><path d="M254.55,335.51c-24.54,30.57-36,47.64-24.22,90.56,10.39,37.85,5.8,51.58-15.76,91.39,39,23,94.67,17.38,94.67,17.38,14.4-133.44,19-164.72,8.47-194.67A421.18,421.18,0,0,1,254.55,335.51Z" fill="none" stroke="#351d66" stroke-miterlimit="10"/><path d="M269,192.11s-22.49-1.43-31.38,8.25,19.73,86.23,21.35,98.55-12.25,38.47-12.25,38.47S287.37,354.58,321,345c0,0-.68-88.92-2.3-97.72s-15.1-44.57-18.33-48.09S269,192.11,269,192.11Z" fill="#686175" data-primary="true"/><g clip-path="url(#a9f6e395-8c6e-4c0a-bb3d-37144c5b0c6c)"><path d="M246.75,337.38l7.48-16.7s58-4.18,66.37-33.42L321,345S295,354.55,246.75,337.38Z" opacity="0.2"/></g><path d="M269,192.11s-22.49-1.43-31.38,8.25,19.73,86.23,21.35,98.55-12.25,38.47-12.25,38.47S287.37,354.58,321,345c0,0-.68-88.92-2.3-97.72s-15.1-44.57-18.33-48.09S269,192.11,269,192.11Z" fill="none" stroke="#351d66" stroke-miterlimit="10"/><path d="M276.52,162.12l-.33,1.79c-1,5.39-4.86,23.29-7.47,28.21-3.15,5.95,10.79,24.91,24.21,22.6,4-.69-3.37-17.43-3-19.2.68-3.39,1.6-8,2.54-12.77.53-2.68,1.07-5.39,1.57-7.95,1.44-7.25,2.61-13.18,2.61-13.18Z" fill="#f9c7a5"/><g clip-path="url(#b2318f31-8e79-42d8-b43b-f3fd96907d6d)"><path d="M276.19,163.91l.33-1.79,20.11-.5s-1.17,5.93-2.61,13.18c-.5,2.54-1,5.24-1.56,7.9a18.77,18.77,0,0,1-9.6-4.8,25.36,25.36,0,0,1-7.28-10.8C275.83,165.84,276,164.74,276.19,163.91Z" fill="#f7a091"/></g><path d="M276.52,162.12l-.33,1.79c-1,5.39-4.86,23.29-7.47,28.21-3.15,5.95,10.79,24.91,24.21,22.6,4-.69-3.37-17.43-3-19.2.68-3.39,1.6-8,2.54-12.77.53-2.68,1.07-5.39,1.57-7.95,1.44-7.25,2.61-13.18,2.61-13.18Z" fill="none" stroke="#351d66" stroke-miterlimit="10"/><path d="M290.06,116.5s-9.48-1.09-15.43,6.57-12.34,31.39,2.42,44.29,29.34-1.7,31.51-17.18S311.56,115.94,290.06,116.5Z" fill="#f9c7a5" stroke="#351d66" stroke-miterlimit="10"/><path d="M291.73,116.52s-13.28,20.08-22.34,21.12c-8.06.93-1,16.07.65,19.41a.16.16,0,0,1-.24.19c-5-4.09-40.23-34.62,1.72-51.12C281.23,102.31,291.73,116.52,291.73,116.52Z" fill="#f48225" data-secondary="true" stroke="#351d66" stroke-miterlimit="10"/><path d="M271.77,143.23c.73,4-.72,7.85-3.29,8.38s-5.26-2.47-6-6.48.75-7.68,3.31-8.2S271,139.22,271.77,143.23Z" fill="#f9c7a5" stroke="#351d66" stroke-miterlimit="10"/><rect x="308.84" y="247.59" width="114.77" height="51.49" fill="#aac8f9" stroke="#6259b0" stroke-miterlimit="10"/><path d="M423.61,288v-2.16H423c-4.57.19-6.6,2.89-8.39,5.27s-2.87,3.63-4.95,3.66-3.36-1.3-5.21-3.51-4.08-4.91-8.51-4.72c-4.2.16-6.11,2.65-7.79,4.85s-3,3.78-5.64,3.7-3.46-1.43-4.76-3.64-2.74-4.72-7.25-4.7c-3.9,0-5.7,2.45-7.29,4.6-1.72,2.33-2.94,3.74-5.31,3.74h0c-2.11,0-3-1.31-4.37-3.45s-3.09-4.93-7.64-5h-.08c-4.4,0-6.46,2.55-8.28,4.79s-3,3.57-5.19,3.49-3.48-1.81-5-3.67c-1.84-2.33-3.93-5-8.17-5.06s-6.64,2.34-8.86,4.48c-.5.49-1,1-1.49,1.4v3.11a20.43,20.43,0,0,0,4-3.25c1.91-1.84,3.72-3.59,6.13-3.59h.11c2.3.05,3.69,1.6,5.55,4,1.75,2.2,3.72,4.7,7.59,4.78,4.18.1,6.21-2.39,8-4.58s3.17-3.69,5.58-3.69h0c2.41,0,3.4,1.4,4.82,3.66s3,4.73,7.21,4.75h0c4.43,0,6.45-2.73,8.07-4.92s2.66-3.41,4.55-3.42c2.23,0,3.09,1.21,4.36,3.36s2.86,4.84,7.5,5,6.81-2.62,8.51-4.84,2.93-3.62,5.22-3.71,3.72,1.32,5.66,3.65,3.94,4.67,8,4.59,5.95-2.6,7.63-4.83c1.86-2.48,3.19-4,5.82-4.11Z" fill="#ee9d66"/><path d="M308.84,256.24c.77-.39,1.65-1,2.68-1.57,3.09-1.8,3.47,5,1.23,11.39s-1.12,9.86,1,9.94,3-2.71,4.33-6.11,3.36,2.15,5.28-1.88-4-8.75,2.72-12.37,0,8.76,6.56,8.48,2.4-2.92,3.52-7.78,8.65-.7,6.73,2.22-3.2,10.14.16,9.86,2.56-4.58,6.56-9.44,8.49,1.8,8.33,4.44,1.92,3.61,3,2.09,3.75-2.64,3.68,1.11,4.07,4.72.87,11.25,1.92,9.86,3.84,6.53-1.28-6.39,1.44-9-.48-6.6,0-12.57,4.17-7.23,6.73-5,6.56,3.47,9.12,1.25,4.48-1.67,7.05-.56,0,4.31,4.64,4.86,2.88-5.83,8.32-5.28,7.21,10.7,3.84,17.65-2.08,15.14,2.09,14.86,6.88-1.53,5.92-11.11,0-11,1.6-11.67-.48,5.69,3.2,4.72l.4-.13c1.3-.66,1.45-8.1,0-24.87H308.84C307.78,250.12,307.09,256.25,308.84,256.24Z" fill="#d2e1f9"/><path d="M423.61,247.59c0,3-25.69,5.39-57.38,5.39s-57.39-2.41-57.39-5.39,25.69-2.16,57.39-2.16S423.61,244.61,423.61,247.59Z" fill="#aac8f9" stroke="#6259b0" stroke-miterlimit="10"/><path d="M331.91,215.31v30.05c0,1.15,15.36,1.93,34.32,1.93s34.31-.51,34.31-1.93V215.31Z" fill="#aac8f9" stroke="#6259b0" stroke-miterlimit="10"/><path d="M331.91,222.28c.69,0,.46-1.22,1.36-1.26.67,0,1.47.65,1.35,1.85-.33,3.34.25,4.67,1.34,4.42s2.25-1.16,2,1.17.34,3.76,1.75,3.76,1.17-3.59,0-5.43.17-5.93,1.76-4.26.08,3.84,2.25,4.18-.58-3.51,2.59-3.18.5,5.52,2,6.69,1.75-3.26,1-5.35,1.75-4.17,3.34-2.42-1.09,10.69.83,11.35,1.84-6.59.92-9,3.09-4.51,3.92-2.26.26,5.26,1.76,5.43,2.17-1.09,1.25-3.17,2.34-4.18,4.51-1.59,3.51,2.25,4.76,1.17,3.42-2.59,4.34-.59-2.17,5.43-.92,6.68,1.6,1.67,1.09,3.85.42,3.42,1.84,3.42.25-4.34-.34-6.1,3.09-.58,2.92-3.17-3.84-5.26-1.58-6.76,1.58,3.5,3.92,3.5-.33-3.25,1.67-4.25,2.76,2.17,1.92,5.76.5,4.59,1.42,4.51.17-3.26,0-6.35,1.34-5.18,3.76-3.17-.34,5.34,1.42,6.09,2.92-3.25,1.5-5.17,1.5-4.43,3.34-2.34-2.34,11.1,1.5,11.94-.83-8.94,0-11.36a3,3,0,0,1,2.13-1.94c1.22-.38.93-2.67-.05-3.79H332C330.31,217.82,330.1,222.16,331.91,222.28Z" fill="#d2e1f9"/><ellipse cx="366.23" cy="215.31" rx="34.32" ry="3.22" fill="#aac8f9" stroke="#6259b0" stroke-miterlimit="10"/><path d="M421.85,301.69H310.6c-2.83,0-5.27-1.5-5.84-3.58L301,284.43H431.45l-3.75,13.68C427.12,300.19,424.68,301.69,421.85,301.69Z" fill="#d2e1f9"/><path d="M346,295.8c-.12-.26-23.19-.06-25-2.79-.77-1.15,1-2.3,1.27-2.81,0-.07,3.92-2.1,3.45-3.9-.23-.86-2-.23-2-.23s-11.3,4.09-12.76,5.56a14.55,14.55,0,0,0-2.16,2.7,12.26,12.26,0,0,1-1.58.39c-9.48,1.22-26.81-.82-50.38-4.52l-5.43-29.67c-5,.3-20.19,5.3-24.21,4.85.21,9.43,9.25,44.1,11.27,47.22,1.41,2.18,48.23-4.29,71.4-6.13,3.2-.26,9.52,1.57,11.94,1.59,3.6,0,13.6-2.77,15.42-4.66C338.8,301.81,347.35,298.58,346,295.8Z" fill="#f9c7a5" stroke="#351d66" stroke-miterlimit="10"/><path d="M248.63,194.23s-12.7,2.33-18.86,13.62c-4.06,7.46-8.4,42-7.06,67.61,8.59-1.82,25,0,33.89,0C256.26,252.47,252.94,193.46,248.63,194.23Z" fill="#686175" data-primary="true"/><g clip-path="url(#bb8a67c9-5ee8-4229-abfa-f118d27ab226)"><path d="M222.71,275.46l25-.26s-20-49.66-5.11-78.9c0,0-13.92,2.32-15.78,20.88C226.85,217.18,220.42,249.27,222.71,275.46Z" opacity="0.2"/></g><path d="M248.63,194.23s-12.7,2.33-18.86,13.62c-4.06,7.46-8.4,42-7.06,67.61,8.59-1.82,25,0,33.89,0C256.26,252.47,252.94,193.46,248.63,194.23Z" fill="none" stroke="#351d66" stroke-miterlimit="10"/><path d="M540.45,327.06s16.69,24.42,20.67,44.62S558.2,454,565.85,480.47c4.14,14.34,19.82,36.48,22.21,55s11.74,67,11.74,67l-21.19,4.09L529.36,485.42,490.73,375.89l-9.9-56.41Z" fill="#7ddcf2"/><g clip-path="url(#f17eb34b-fb91-400f-bd05-a92fe4b48c69)"><path d="M578.61,606.6l8.91-2s-9.58-49.8-25.24-83.12a73.54,73.54,0,0,0-8.49-13.69c-5.94-7.66-16.69-24.12-14.4-40.46a73,73,0,0,0,.72-14.84c-1.57-24.4-8.46-88.51-38-118.09l-14.62-1.54,30.79,121.63Z" fill="#69c4e1"/></g><path d="M540.45,327.06s16.69,24.42,20.67,44.62S558.2,454,565.85,480.47c4.14,14.34,19.82,36.48,22.21,55s11.74,67,11.74,67l-21.19,4.09L529.36,485.42,490.73,375.89l-9.9-56.41Z" fill="none" stroke="#351d66" stroke-miterlimit="10"/><path d="M498.63,239c-3.35-8.89-6.3-18-9.41-26.68-6-16.74-11-34.16-11.72-52-.55-13.44,1.42-26.72,7.41-39.23,5.15-10.77,17.9-16.88,29.52-16.9,36.92,0,41.62,48.94,65.12,67.84,5,4,10.33,7.47,15.41,11.29C586.47,205.4,563.07,236.74,498.63,239Z" fill="#f48225" data-secondary="true"/><g clip-path="url(#f787b1e5-8947-4cd1-b551-6a44b5f28f7e)"><path d="M551.6,130.63s-2.16,22,5.78,32a39,39,0,0,1,6.29,10.84c4.34,11.92,8.41,34.4-11.56,53.66,0,0,30.79-10.06,42.85-43.78L579.55,172S566,161.42,562.37,148.59Z" opacity="0.2"/></g><path d="M498.63,239c-3.35-8.89-6.3-18-9.41-26.68-6-16.74-11-34.16-11.72-52-.55-13.44,1.42-26.72,7.41-39.23,5.15-10.77,17.9-16.88,29.52-16.9,36.92,0,41.62,48.94,65.12,67.84,5,4,10.33,7.47,15.41,11.29C586.47,205.4,563.07,236.74,498.63,239Z" fill="none" stroke="#351d66" stroke-miterlimit="10"/><path d="M515.71,609.55s-1.67,20.56-.31,27.25c.72,3.58,4.19,10.39,2.33,13.76s-3.87,3.4-3.87,3.4l-41.62.09c-2.62.05-6.86.43-4.75-1.08,3.45-2.47,6.24-4.1,17.28-9.29.72-.34,3.34-2,4.29-2.52a33.1,33.1,0,0,0,6.88-5.9c3.45-3.74,3.75-21.85,3.75-21.85Z" fill="#f9c7a5" stroke="#351d66" stroke-miterlimit="10"/><path d="M479.21,330.14s-7.13,37.33-3.15,59.23,23.05,224.8,23.05,224.8l21.2,1.17s4.45-84.77,3.65-96.56-7.08-31.51-7.08-31.51l1.91-62a40,40,0,0,0-1.65-12.64l-24.91-83.72Z" fill="#7ddcf2" stroke="#351d66" stroke-miterlimit="10"/><path d="M489.07,641.15c12.71,3.17,22.11,1,27.36-1,1.36,3.73,3.16,8.42,2.2,11.12-1.16,3.31-2.82,4-4.29,4.09-11.62.3-42.54.7-51.4.81a1.4,1.4,0,0,1-1.12-2.31C464,651.27,488.12,641.72,489.07,641.15Z" fill="#2d227a"/><path d="M391.61,195.22c.12-2.06,9.46.1,10.68-1.53s-10.23-6.51-10-8.28c.46-3.26,12.87,4.58,13.18,3.09s-12.1-10.2-9.65-11.95,11.92,10.38,13,8.93S399,175,400.64,171.57c.89-1.83,16.59,17.8,19.37,17.75s1.53-10.89,3.95-11.43-.14,20.94.89,22.12,22,28.19,30.79,34.72c2.54-2.79,18.23-16.63,20.55-19.3,3.88,6.17,9.89,9.65,14.08,15.54-8.34,8.59-32.86,28.08-36.26,28.19-10.32.35-32.46-41.44-37.2-49s-9.24-7.59-13.16-11S391.5,197.28,391.61,195.22Z" fill="#f9c7a5"/><g clip-path="url(#ea0f80b0-bbbb-4823-8576-b0c342aaa9f1)"><path d="M458,232.37l6.47-5.72,13.18,17.9-3.73,2.24S465.48,233.11,458,232.37Z" fill="#f7a091"/></g><path d="M391.61,195.22c.12-2.06,9.46.1,10.68-1.53s-10.23-6.51-10-8.28c.46-3.26,12.87,4.58,13.18,3.09s-12.1-10.2-9.65-11.95,11.92,10.38,13,8.93S399,175,400.64,171.57c.89-1.83,16.59,17.8,19.37,17.75s1.53-10.89,3.95-11.43-.14,20.94.89,22.12,22,28.19,30.79,34.72c2.54-2.79,18.23-16.63,20.55-19.3,3.88,6.17,9.89,9.65,14.08,15.54-8.34,8.59-32.86,28.08-36.26,28.19-10.32.35-32.46-41.44-37.2-49s-9.24-7.59-13.16-11S391.5,197.28,391.61,195.22Z" fill="none" stroke="#351d66" stroke-miterlimit="10"/><path d="M476.63,244.35a3.89,3.89,0,0,0,5.54.73c8.72-6.91,32.89-26.56,38.23-36.4,6.54-12.07-8.91-20.64-21.06-20.78-10.27-.11-30.23,25.7-36.16,33.69a3.89,3.89,0,0,0,0,4.63Z" fill="#686175" data-primary="true"/><g clip-path="url(#eed8bd06-0fec-4630-8d0d-00e72aff153d)"><path d="M463.18,226.22l9.79,13.9,4.47,6.16,1.68-10.08S473,216.06,483,199.27C483,199.27,457.88,220.71,463.18,226.22Z" opacity="0.2"/></g><path d="M476.63,244.35a3.89,3.89,0,0,0,5.54.73c8.72-6.91,32.89-26.56,38.23-36.4,6.54-12.07-8.91-20.64-21.06-20.78-10.27-.11-30.23,25.7-36.16,33.69a3.89,3.89,0,0,0,0,4.63Z" fill="none" stroke="#351d66" stroke-miterlimit="10"/><path d="M525.41,185.66s21.25-1.36,29.65,7.82S536.42,275.3,534.89,287s7.79,42.76,7.79,42.76-49.91,10.07-64.18.6c0,0-1.52-84,0-92.38s16.38-45.87,19.44-49.21S525.41,185.66,525.41,185.66Z" fill="#686175" data-primary="true"/><g clip-path="url(#b87932e7-f357-4d32-97c0-e40cc6807b1e)"><path d="M478.5,330.35l.06-20.28s5.6,13.43,16.79,7.28c0,0,6.72-15.11,22.39-11.76,0,0,13,4.2,17.15-18.6,0,0-.29,17.11,7.79,42.76C542.68,329.75,494.11,341.12,478.5,330.35Z" opacity="0.2"/></g><path d="M525.41,185.66s21.25-1.36,29.65,7.82S536.42,275.3,534.89,287s7.79,42.76,7.79,42.76-49.91,10.07-64.18.6c0,0-1.52-84,0-92.38s16.38-45.87,19.44-49.21S525.41,185.66,525.41,185.66Z" fill="none" stroke="#351d66" stroke-miterlimit="10"/><path d="M518.34,157.2l.3,1.7c1,5.12,4.6,22.1,7.06,26.77,3,5.64-10.19,23.64-22.87,21.44-3.78-.65,3.19-16.53,2.85-18.22-.64-3.22-1.51-7.61-2.39-12.11-.51-2.55-1-5.12-1.49-7.54-1.36-6.89-2.46-12.51-2.46-12.51Z" fill="#f9c7a5"/><g clip-path="url(#bc6a7c1d-8343-4504-9295-2cd8be79fa94)"><path d="M518.64,158.9l-.3-1.7-19-.47s1.1,5.62,2.46,12.51c.47,2.4,1,5,1.48,7.49a17.73,17.73,0,0,0,9.07-4.56,24,24,0,0,0,6.87-10.24Z" fill="#f7a091"/></g><path d="M518.34,157.2l.3,1.7c1,5.12,4.6,22.1,7.06,26.77,3,5.64-10.19,23.64-22.87,21.44-3.78-.65,3.19-16.53,2.85-18.22-.64-3.22-1.51-7.61-2.39-12.11-.51-2.55-1-5.12-1.49-7.54-1.36-6.89-2.46-12.51-2.46-12.51Z" fill="none" stroke="#351d66" stroke-miterlimit="10"/><path d="M505.55,113.92s8.95-1,14.57,6.24,11.66,29.78-2.28,42-27.73-1.61-29.77-16.3S485.23,113.39,505.55,113.92Z" fill="#f9c7a5" stroke="#351d66" stroke-miterlimit="10"/><path d="M499.76,108.05s16.75,24.86,25.31,25.85a9,9,0,0,1,5.66,2.88,2.54,2.54,0,0,0,4.44-1.66c0-10.25-.64-24.82-6.15-27.46C512.08,99.58,499.76,108.05,499.76,108.05Z" fill="#f48225" data-secondary="true" stroke="#351d66" stroke-miterlimit="10"/><path d="M511,211.12,476,238.71a17.4,17.4,0,0,1-10.61,3.72c-13.4.11-45.73.76-57.36,1-4.72-.09-11.19.09-12.61-.45a20.69,20.69,0,0,0-5.09-.81c-1.28-.07-4.05-.92-5.25-.81a25.8,25.8,0,0,0-5,1.19c-1.78.62-2.92,1.17-3,1.44s.69,1.37,2,1.25c1-.08,3.88-.33,5.23.21s1,1.42.51,2-5.24,4.06-6.11,4.66c-1.48,1-8.86,6.35-10.13,7.43s-1.81,2.5-.54,3.85,4.55-.65,4.55-.65-.54,2.27.5,3.16a3.48,3.48,0,0,0,2.82.39,2.07,2.07,0,0,0,1,2.43c1.23.69,3.05-.31,3.05-.31a2.45,2.45,0,0,0,1,1.93c1.08.88,3.12-.23,3.12-.23s15.28-11.58,17.2-12.35a17.39,17.39,0,0,1,2.4-.68c4.25-.57,52.45,4.22,69,5.9a14.7,14.7,0,0,0,10.07-2.71l43.53-31.44Z" fill="#f9c7a5"/><g clip-path="url(#bd04104a-c63d-4258-b2ba-d968ef33bc02)"><line x1="372.66" y1="262.73" x2="380.31" y2="257.08" fill="#f7a091"/><rect x="371.73" y="259.46" width="9.51" height="0.9" transform="translate(-80.77 274.3) rotate(-36.42)" fill="#f7a091"/><line x1="376.04" y1="266.34" x2="383.68" y2="260.7" fill="#f7a091"/><rect x="375.11" y="263.07" width="9.51" height="0.9" transform="translate(-82.26 277.01) rotate(-36.42)" fill="#f7a091"/><line x1="379.94" y1="268.52" x2="387.59" y2="262.87" fill="#f7a091"/><rect x="379.01" y="265.24" width="9.51" height="0.9" transform="translate(-82.79 279.75) rotate(-36.42)" fill="#f7a091"/><path d="M488.87,228.3l-7.22,6.06a62.29,62.29,0,0,1,19.4,12.18l3.16-2Z" fill="#f7a091"/></g><path d="M511,211.12,476,238.71a17.4,17.4,0,0,1-10.61,3.72c-13.4.11-45.73.76-57.36,1-4.72-.09-11.19.09-12.61-.45a20.69,20.69,0,0,0-5.09-.81c-1.28-.07-4.05-.92-5.25-.81a25.8,25.8,0,0,0-5,1.19c-1.78.62-2.92,1.17-3,1.44s.69,1.37,2,1.25c1-.08,3.88-.33,5.23.21s1,1.42.51,2-5.24,4.06-6.11,4.66c-1.48,1-8.86,6.35-10.13,7.43s-1.81,2.5-.54,3.85,4.55-.65,4.55-.65-.54,2.27.5,3.16a3.48,3.48,0,0,0,2.82.39,2.07,2.07,0,0,0,1,2.43c1.23.69,3.05-.31,3.05-.31a2.45,2.45,0,0,0,1,1.93c1.08.88,3.12-.23,3.12-.23s15.28-11.58,17.2-12.35a17.39,17.39,0,0,1,2.4-.68c4.25-.57,52.45,4.22,69,5.9a14.7,14.7,0,0,0,10.07-2.71l43.53-31.44Z" fill="none" stroke="#351d66" stroke-miterlimit="10"/><path d="M488.87,228.3a4.16,4.16,0,0,1,0-5.73c7.54-7.83,28.6-29.47,37.24-35.81,10.62-7.8,32-1.17,30.28,12.21-1.46,11.59-36.22,38.23-46.71,46a4.14,4.14,0,0,1-5.49-.48Z" fill="#686175" data-primary="true"/><g clip-path="url(#a537e7b4-961a-4934-b8db-a72fefb13e6e)"><path d="M486.16,225.43s49.39,4.86,63.88-37.55c0,0,9.66,2.69,5.91,12.89,0,0-8.79,17.14-49.22,46.42Z" opacity="0.2"/></g><path d="M488.87,228.3a4.16,4.16,0,0,1,0-5.73c7.54-7.83,28.6-29.47,37.24-35.81,10.62-7.8,32-1.17,30.28,12.21-1.46,11.59-36.22,38.23-46.71,46a4.14,4.14,0,0,1-5.49-.48Z" fill="none" stroke="#351d66" stroke-miterlimit="10"/><path d="M531.34,141.85c-1.79,3.54-5.2,5.31-7.62,3.93s-2.91-5.37-1.11-8.92,5.21-5.31,7.62-3.93S533.14,138.3,531.34,141.85Z" fill="#f9c7a5" stroke="#351d66" stroke-miterlimit="10"/><rect x="365.02" y="362.68" width="501.98" height="250.44" fill="#d2e1f9"/><rect x="332.04" y="340.34" width="538.09" height="22.34" fill="#aac8f9" stroke="#6259b0" stroke-miterlimit="10"/><rect x="364.51" y="600.95" width="505.61" height="68.2" fill="#aac8f9" stroke="#6259b0" stroke-miterlimit="10"/><rect x="624.64" y="227.73" width="119.78" height="72.72" fill="#aac8f9"/><g clip-path="url(#a2fe036a-627e-4f31-a730-c4f559c8111d)"><rect x="732.81" y="225.89" width="11.61" height="74.56" fill="#d2e1f9"/></g><rect x="624.64" y="227.73" width="119.78" height="72.72" fill="none" stroke="#6259b0" stroke-miterlimit="10"/><rect x="587.36" y="313.9" width="184.56" height="25.67" fill="#aac8f9"/><g clip-path="url(#b38b6a5f-4e03-4536-b8ff-c6d418da7e0c)"><rect x="751.15" y="313.9" width="20.78" height="25.67" fill="#d2e1f9"/></g><rect x="587.36" y="313.9" width="184.56" height="25.67" fill="none" stroke="#6259b0" stroke-miterlimit="10"/><rect x="669.86" y="273.56" width="18.33" height="40.95" fill="#2d227a"/><ellipse cx="281.61" cy="139.15" rx="1.96" ry="3.26" fill="#351d66"/><ellipse cx="301.81" cy="138.26" rx="3.26" ry="1.96" transform="translate(152.63 434.83) rotate(-87.91)" fill="#351d66"/><path d="M293.68,140.17s7.56,9,2.08,10.86" fill="none" stroke="#351d66" stroke-miterlimit="10"/><path d="M283.24,154.66s7.34,4.91,11.92,3.58" fill="none" stroke="#351d66" stroke-miterlimit="10"/><ellipse cx="511.69" cy="133.68" rx="1.96" ry="3.26" fill="#351d66"/><ellipse cx="491.49" cy="132.8" rx="1.96" ry="3.26" transform="translate(-4.52 18.03) rotate(-2.09)" fill="#351d66"/><path d="M499.62,134.71s-7.55,9-2.07,10.85" fill="none" stroke="#351d66" stroke-miterlimit="10"/><path d="M510.06,149.19s-7.34,4.92-11.92,3.58" fill="none" stroke="#351d66" stroke-miterlimit="10"/></svg>