<svg id="e895a93f-f71f-4479-a77c-2e6aaba400a1" data-name="Layer 1" xmlns="http://www.w3.org/2000/svg" width="865.76" height="682.89" viewBox="0 0 865.76 682.89"><path d="M554,177.7c4.18-2.31,10.14-10.16,10.29-14.92a43.17,43.17,0,0,0-.28-6.12c-.57-5.21-1.71-25.86,15.22-30.92a12.66,12.66,0,0,1,4-.51c4.34.15,13.57,2,21.22,14.18a49.21,49.21,0,0,1,2.73,5.12c1.35,2.86,6.56,10.86,21.9,8.87,0,0,21.87,9.41,33.51-2.45,7.87,10,28.64,16.77,28.64,16.77A153.62,153.62,0,0,0,715.79,191C714.21,182.19,703.2,151,703.2,151c-8.54-25.65-18.52-40.52-27.05-49.14a40.54,40.54,0,0,0-28.46-11.87c-9.14-.09-17.86-.28-17.86-.28-19-.93-23.23-16.94-24.13-22.15a20.39,20.39,0,0,0-1.3-4.61c-9.34-21.61-40.91-16-40.91-16a37.58,37.58,0,0,0-31.22,24.16c-4.65,11.33-17.1,17.47-17.1,17.47-25.08,10-32,29.54-32,29.54-5.77,15.27.57,24.11,4.69,27.77a22.7,22.7,0,0,1,5.79,7.74,32.51,32.51,0,0,1,2.52,10.31,29.17,29.17,0,0,1-.3,6.73C493.26,188.49,509,196.51,509,196.51c21.56,11.71,32.18-7.75,32.18-7.75" fill="#2f2e41"/><path d="M727.43,163.94s6.72-8.3,10.63-9.59a1.35,1.35,0,0,1,1.76,1.26c0,2.57-.64,8.87-7.32,16.74,0,0-2.22,2.92-6.64-1.17C725.86,171.18,730.44,168.36,727.43,163.94Z" fill="#686175" data-primary="true"/><path d="M731.23,210.05s3.78,6.43,8.59,3.62c0,0,9.57-5.51,10.29-9.62a2,2,0,0,0-1.8-2.27c-1.81-.21-5.59-.17-11.33,2.31Z" fill="#686175" data-primary="true"/><path d="M682.5,360.28a979.12,979.12,0,0,0-96.39-47.2,384.46,384.46,0,0,1-56.86-29.61c-29.57-18.78-73.1-20.42-95.23-19.86a118.61,118.61,0,0,1-26.46-2.26c-83.15-16.76-135.44,43.3-149.36,61.87a112.22,112.22,0,0,1-20,20.78c-33,26.08-61.66,17.53-75.07,10.72a132.38,132.38,0,0,0-41.18-13.34C32.1,328.56,12.78,414.16,12.78,414.16S-24.21,555.09,229,618c0,0,143.44,46.75,363.71-8,54.48-13.53,101.81-47.73,130.86-95.77S763.36,405.41,682.5,360.28Z" fill="#e6e7e8"/><path d="M437.07,428.9c-4.09.52-4.5-3.87-4.5-3.87V325.58s.21-7.55,5.45-9.65l41.54-23.21s5.25-2.75,8.31.47" fill="#f48225" data-secondary="true"/><path d="M437.07,428.9c-4.09.52-4.5-3.87-4.5-3.87V325.58s.21-7.55,5.45-9.65l41.54-23.21s5.25-2.75,8.31.47" opacity="0.2"/><path d="M63.13,406.56s-30,28.53-18.25,56c0,0,21.4,52.23,128.39,91.25,0,0,49-62.7,6.92-91.25,0,0-34.61-26.44-45.94-41.54,0,0-12.26-17.42-48.45-17.52Z" fill="#686175" data-primary="true"/><path d="M453.87,564.71s13.54-2,2,10.36c0,0-25.89,32.66-37.84,9.56,0,0,8.78,0,8.76-10.36C426.78,574.27,436,568.7,453.87,564.71Z" fill="#686175" data-primary="true"/><path d="M449.51,461.83s11.67-7.14,5.9,8.75c0,0-11,40.2-31.05,23.65,0,0,8.76-3.89,4.11-12.73C428.47,481.5,434.59,472.54,449.51,461.83Z" fill="#686175" data-primary="true"/><path d="M244.15,448.6,297.05,431a23,23,0,0,1,16.41.71l115.29,49.94s4.26,8.7-4.39,12.61c0,0-42.08,5.74-81.61-5.61L195.3,506.47s6.73-22.29-8.48-38.34Z" fill="#2f2e41"/><path d="M244.15,448.6,297.05,431a23,23,0,0,1,16.41.71l115.29,49.94s4.26,8.7-4.39,12.61c0,0-42.08,5.74-81.61-5.61L195.3,506.47s6.73-22.29-8.48-38.34Z" opacity="0.2"/><path d="M134.25,421l3.54,4.28c3.44,5.12,23.27,21.8,23.27,21.8l12.21-2.68-32.7-27.63c-21.42-18.66-40.27-12.22-40.27-12.22S122.92,407.27,134.25,421Z" fill="#686175" data-primary="true"/><path d="M134.25,421l3.54,4.28c3.44,5.12,23.27,21.8,23.27,21.8l12.21-2.68-32.7-27.63c-21.42-18.66-40.27-12.22-40.27-12.22S122.92,407.27,134.25,421Z" opacity="0.2"/><path d="M220.36,467.59s1.79,2-10.17,2.28l-30.61,1.5a2.08,2.08,0,0,1-2.19-2.05c0-.79.12-1.32,1.5-3l40.9-1.29Z" fill="#d1d3d4"/><path d="M222.15,416.42l-3.88,52.85H223l34.62-34.6,4.05-54.29a1.81,1.81,0,0,0-1.8-1.93h0a4.16,4.16,0,0,0-2.82,1.1l-34.26,31.63Z" fill="#d1d3d4"/><path d="M221.11,469.27l4.82-57,35.15-33.29s.66.36.5,2.45l-4,53.28L223,469.27Z" fill="#ccc"/><path d="M435.76,425.57V324.79s0-6.78,6.16-8.63l39.43-22.38a7.68,7.68,0,0,1,6.52-.59,4.7,4.7,0,0,1,3.23,4.28v99.65s.42,5.46-6.5,9.86l-41.79,22.16a5.75,5.75,0,0,1-4.14.56C437.22,429.31,435.76,428.26,435.76,425.57Z" fill="#f48225" data-secondary="true"/><path d="M439.49,325.58l.83,98.51a.94.94,0,0,0,1.39.82L484,402.16s3.2-1.58,3.2-6.3V300.2s.47-3.62-2.83-2.52L441.7,321A6.94,6.94,0,0,0,439.49,325.58Z" fill="#fff"/><path d="M439.49,375.22s.21-25.62,23.94-22.78c0,0,18,2.83,23.76-23.92l.25,66.94s.36,6.49-5.58,8.3l-37.41,19.68c-.81.43-1.6.92-2.39,1.39s-2.46,1-2.1-1.95Z" fill="#f48225" data-secondary="true"/><path d="M439.49,375.22s.21-25.62,23.94-22.78c0,0,18,2.83,23.76-23.92l.25,66.94s.36,6.49-5.58,8.3l-37.41,19.68c-.81.43-1.6.92-2.39,1.39s-2.46,1-2.1-1.95Z" fill="#fff" opacity="0.6"/><path d="M737.52,440.9s6,5,6.9,8.14c0,0,1.35-7.22,3.51-9" fill="none" stroke="#000" stroke-miterlimit="10"/><path d="M547.19,202s-10.55-13.55-7.46-19.14c0,0,6.38-9.72,0-28.19h8.2s17,15.84,6.07,23c0,0,5.09,10.73,10.11,11.31,0,0,.74,4.38-2.76,4.72C561.35,193.73,551.58,195.48,547.19,202Z" fill="#f9b499"/><path d="M573.44,160.75s-4.75-6.48-1-10.17c0,0,2.08-2,3.29-1a.13.13,0,0,0,.21-.12c-.36-1.34-1.48-5-3.33-6.65a.54.54,0,0,1,.35-1c2.58,0,7.55,1.87,9.53,14.8Z" fill="#f9b499"/><path d="M571,152.88l-14.26-21.76a.74.74,0,0,1,.71-1.14l5.23.67a4.35,4.35,0,0,1,3.1,1.94L575,146.75l.91,2.74S573,148.23,571,152.88Z" fill="#ccc"/><path d="M627.93,183.32l47.62-15.81a12.15,12.15,0,0,1,12.74,2.88L737,204.09s1.24,5.75-5.75,6c0,0-39.65-2.27-54-24.25,0,0-10.23,17.14-42,21.45C635.15,207.25,636.61,196.25,627.93,183.32Z" fill="#2f2e41"/><path d="M627.93,183.32l47.62-15.81a12.15,12.15,0,0,1,12.74,2.88L737,204.09s1.24,5.75-5.75,6c0,0-39.65-2.27-54-24.25,0,0-10.23,17.14-42,21.45C635.15,207.25,636.61,196.25,627.93,183.32Z" opacity="0.2"/><path d="M479.14,224.3l9.12,15.27S468.81,248,452.6,224.3c0,0-12.37-15.76,1.82-22.26,0,0,10.33-4.69,16,8.48,0,0,9.32-4.46,24.72,4.46C495.15,215,490.89,226.12,479.14,224.3Z" fill="#ccc"/><circle cx="459.38" cy="208.8" r="2.33" opacity="0.2"/><path d="M450,205.12c-5-2-8,3.68-8,3.68s4.68-1.18,5.68,1.08" fill="#ccc"/><path d="M185.88,442a36.34,36.34,0,0,1-3.27-8.49l2.13-.59a35.24,35.24,0,0,0,3,7.93Zm-5.11-17.23c-.43-2.81-.75-5.79-1-8.86l2.2-.14c.19,3,.51,5.92.93,8.66Zm1-17.73h-2.21c0-2.86.13-5.85.33-8.87l2.2.15C181.9,401.33,181.8,404.27,181.78,407.08Zm1.12-17.45-2.18-.25c.33-2.87.75-5.82,1.23-8.78l2.17.36C183.65,383.88,183.24,386.8,182.9,389.63Zm2.8-17.29-2.16-.44c.58-2.83,1.22-5.74,1.92-8.64l2.14.51C186.91,366.65,186.27,369.53,185.7,372.34Zm4.08-17.07-2.13-.58c.77-2.79,1.59-5.65,2.46-8.49l2.1.64C191.36,349.66,190.54,352.5,189.78,355.27Zm5.1-16.8-2.09-.69c.91-2.75,1.88-5.56,2.89-8.35l2.07.74C196.75,333,195.79,335.75,194.88,338.47Zm5.93-16.53-2.05-.79c1-2.68,2.12-5.45,3.25-8.21l2,.83C202.93,316.52,201.84,319.27,200.81,321.94Zm6.63-16.28-2-.86c1.15-2.69,2.35-5.41,3.56-8.09l2,.91C209.78,300.29,208.59,303,207.44,305.66Zm7.22-16-2-.93c1.23-2.62,2.52-5.29,3.82-8l2,1C217.17,284.36,215.89,287,214.66,289.63Z" fill="#ccc"/><polygon points="200.89 272.72 239.35 236 240.82 284.25 228.23 268.1 219 267.05 200.89 272.72" fill="#ccc"/><path d="M221.4,272.33l6.75-4.18a.28.28,0,0,0,.12-.14L239,236.91a.12.12,0,0,0-.21-.11l-19.75,30.13a.25.25,0,0,0,0,.25l1.93,5A.28.28,0,0,0,221.4,272.33Z" fill="#d1d3d4"/><path d="M292.38,432.92c0-.05-1-1.31-2.61-3.65L291.6,428c1.52,2.26,2.5,3.51,2.51,3.52Z" fill="#ccc"/><path d="M364.27,440.32l-1.3-1.77c2.42-1.79,4.81-3.6,7.09-5.41l1.37,1.73C369.12,436.69,366.72,438.52,364.27,440.32Zm14.11-11.16L377,427.49c2.3-2,4.54-4,6.66-5.93l1.5,1.61C383,425.17,380.7,427.18,378.38,429.16ZM285,421.6c-1.48-2.59-2.91-5.28-4.23-8l2-1c1.3,2.66,2.7,5.3,4.16,7.85Zm106.56-4.71L390,415.35c2.1-2.15,4.14-4.35,6-6.53l1.66,1.45C395.75,412.48,393.69,414.71,391.56,416.89ZM277.07,405.37c-1.15-2.79-2.2-5.65-3.14-8.47l2.09-.7c.92,2.78,2,5.59,3.09,8.34Zm126.37-2.05L401.7,402c1.84-2.37,3.59-4.79,5.21-7.19l1.82,1.23C407.09,398.45,405.31,400.91,403.44,403.32Zm10.06-15-1.92-1.09c1.48-2.61,2.84-5.26,4.06-7.88l2,.92C416.4,383,415,385.67,413.5,388.33Zm-142.09-.12c-.74-2.94-1.37-5.92-1.86-8.85l2.17-.37c.48,2.88,1.1,5.8,1.82,8.69Zm149.64-16.32-2.08-.73a87,87,0,0,0,2.52-8.48l2.14.52A90.49,90.49,0,0,1,421.05,371.89Zm-152.63-1.51c-.22-2.74-.33-5.5-.33-8.2v-.85h2.2v.84c0,2.64.11,5.34.33,8ZM425.3,354.29l-2.18-.29a79,79,0,0,0,.68-8.81l2.2.05A80.9,80.9,0,0,1,425.3,354.29Zm-154.51-1.78-2.19-.23c.31-3,.77-6,1.37-9l2.16.44A87.92,87.92,0,0,0,270.79,352.51ZM423.5,336.36a81.9,81.9,0,0,0-1.25-8.75l2.16-.43a86.47,86.47,0,0,1,1.29,9Zm-149.18-1.17-2.11-.65c.89-2.87,1.92-5.74,3.09-8.52l2,.84C276.19,329.59,275.18,332.39,274.32,335.19ZM420.07,319a88.38,88.38,0,0,0-3-8.32l2-.85c1.18,2.8,2.22,5.67,3.1,8.52Zm-139-.18-1.94-1c1.39-2.63,2.93-5.25,4.58-7.81l1.85,1.2C284,313.72,282.48,316.29,281.11,318.86ZM290.72,304,289,302.64c1.8-2.35,3.74-4.69,5.77-7l1.64,1.46C294.39,299.37,292.49,301.67,290.72,304Zm122.52-1.26c-1.39-2.6-2.91-5.16-4.53-7.62l1.84-1.21c1.65,2.51,3.21,5.13,4.63,7.79ZM302.57,290.85l-1.44-1.67c1.49-1.28,3.93-3.29,7.1-5.63l1.31,1.78C306.42,287.62,304,289.6,302.57,290.85ZM403.48,288c-1.54-1.89-2.53-2.92-2.54-2.93-1.13-1.31-2.26-2.52-3.39-3.65l1.56-1.56c1.17,1.17,2.33,2.42,3.45,3.72h0s1,1.05,2.63,3Zm-86.6-7.65-1.19-1.86c2.59-1.64,5.22-3.18,7.81-4.58l1,1.94C322,277.17,319.42,278.68,316.88,280.3Zm74.05-4.72a54.69,54.69,0,0,0-7.42-4.67l1-2a54.18,54.18,0,0,1,7.73,4.86Zm-58.4-3.65-.88-2c2.85-1.23,5.7-2.31,8.49-3.2l.67,2.1C338.09,269.68,335.31,270.73,332.53,271.93Zm42.88-4.32a49,49,0,0,0-8.57-1.78l.26-2.19a51.52,51.52,0,0,1,8.95,1.86Zm-26.06-1-.41-2.16a63.71,63.71,0,0,1,9-1.1l.11,2.2A62.57,62.57,0,0,0,349.35,266.61Z" fill="#ccc"/><path d="M353.25,448,352,446.21q1.85-1.23,3.63-2.47l1.25,1.82C355.71,446.39,354.49,447.21,353.25,448Z" fill="#ccc"/><path d="M543.46,562.55v-2.2c2.94,0,5.89-.09,8.76-.23l.1,2.2C549.41,562.46,546.43,562.53,543.46,562.55Zm-8.85-.13c-2.9-.09-5.88-.24-8.85-.45l.16-2.19c2.94.2,5.88.35,8.76.44Zm26.54-.7-.19-2.19c2.93-.27,5.86-.61,8.7-1l.3,2.18C567.08,561.11,564.12,561.45,561.15,561.72Zm-44.2-.5c-2.87-.29-5.83-.64-8.77-1l.29-2.18c2.92.39,5.85.73,8.7,1Zm61.76-2-.41-2.16c2.88-.55,5.75-1.18,8.55-1.87l.53,2.13C584.55,558.08,581.63,558.72,578.71,559.27Zm-79.27-.37c-2.86-.46-5.79-1-8.71-1.54l.41-2.16c2.9.55,5.82,1.06,8.65,1.53Zm-17.38-3.31c-2.84-.61-5.74-1.28-8.62-2l.52-2.14c2.86.69,5.74,1.36,8.57,2Zm113.86-.6-.65-2.1c2.79-.87,5.57-1.82,8.26-2.84l.78,2.06C601.57,553.14,598.75,554.11,595.92,555Zm-131-3.56c-2.82-.75-5.68-1.55-8.51-2.37l.61-2.12c2.81.82,5.66,1.61,8.47,2.36ZM612.5,548.7l-.91-2c2.65-1.2,5.28-2.5,7.82-3.86l1,1.94C617.87,546.16,615.19,547.48,612.5,548.7Zm-164.61-2.19c-2.8-.88-5.63-1.8-8.41-2.73l.7-2.09c2.77.93,5.58,1.84,8.37,2.71Zm-16.77-5.62c-2.76-1-5.56-2-8.3-3l.78-2.06c2.73,1,5.51,2.06,8.26,3Zm197-.58L627,538.44c2.46-1.54,4.89-3.19,7.22-4.89l1.3,1.78C633.1,537.06,630.63,538.73,628.13,540.31Zm-213.55-5.67c-2.73-1.09-5.48-2.22-8.18-3.35l.85-2c2.69,1.13,5.43,2.25,8.15,3.33Zm227.89-4.79-1.42-1.69c2.21-1.85,4.39-3.81,6.49-5.84l1.53,1.59C646.94,526,644.72,528,642.47,529.85Zm-244.19-2.07c-2.73-1.21-5.44-2.44-8.06-3.66l.94-2c2.59,1.22,5.29,2.44,8,3.65Zm-16-7.49c-5-2.49-7.88-4-7.91-4.07l1.06-1.93s2.84,1.55,7.83,4Zm273-2.75-1.63-1.48c1.94-2.13,3.84-4.37,5.66-6.65l1.72,1.38C659.16,513.1,657.22,515.38,655.25,517.54Zm11.07-13.85-1.8-1.27c1.65-2.34,3.27-4.79,4.82-7.29l1.87,1.17C669.64,498.82,668,501.31,666.32,503.69Zm9.37-15.05-1.93-1.06c1.38-2.51,2.73-5.12,4-7.77l2,1C678.45,483.45,677.08,486.1,675.69,488.64Zm7.74-15.92-2-.87c1.13-2.63,2.23-5.37,3.28-8.12l2.06.78C685.69,467.29,684.58,470.06,683.43,472.72Z" fill="#ccc"/><circle cx="586.02" cy="505.09" r="22.59" fill="#ccc"/><path d="M573.86,510.84l23.29-2.95s0,.27-.13.73c-2.1,9.57-14.22,12.65-20.8,5.38A22.2,22.2,0,0,1,573.86,510.84Z" opacity="0.2"/><circle cx="575.2" cy="499.79" r="2.91" opacity="0.2"/><circle cx="592.43" cy="497.49" r="2.91" opacity="0.2"/><path d="M478.69,388.31c-18.39-5.34-9.3-14.57-9.3-14.57l-8.89-6.23a2.35,2.35,0,0,1-.54-3.32h0a2.35,2.35,0,0,1,3.07-.64c4.08,2.38,14.12,8.36,20.24,13.27Z" fill="#f9b499"/><circle cx="457.43" cy="375.72" r="1.1" fill="#fff"/><circle cx="462.06" cy="378.66" r="1.1" fill="#fff"/><circle cx="458.53" cy="371" r="1.1" fill="#fff"/><circle cx="465.3" cy="374.62" r="1.65" fill="#fff"/><path d="M309.68,509.75s-50.56,69-136.41,44.08c0,0,20.58-28.55,23.33-54.44,0,0,61.7-20.71,97.94-27.88,0,0,27.89-9.16,44.22,9.56,0,0,57.75,51,88,93.2,0,0,.8,10-8.76,10.36C418,584.63,332.78,541.61,309.68,509.75Z" fill="#2f2e41"/><path d="M87.06,397,92,412s5.42,12-16.48,13c0,0-11.77-1.18-18.6-9.66,0,0,2.15-18.13,1.31-33.2Z" fill="#f9b499"/><path d="M218.46,466.62l-39.86,3.74s-2.7-.45,0-3.73l26.88-32.8a4.34,4.34,0,0,1,3.36-1.59h12.27" fill="#ccc"/><path d="M195.3,439.6s11.64-7.31,20.86-7.36a2.11,2.11,0,0,1,2.11,2.11v0a2.16,2.16,0,0,1-1.42,2l-8.65,3.16a7.65,7.65,0,0,1,3.46,3.15l0,.06a4,4,0,0,1-2,5.54L201,451.88" fill="#f9b499"/><path d="M557.16,361.81s4.1,31.22,20.15,21.69l7.86,9.05,12.43,3.68,9-8,2.63-9.68-20.79-30.1Z" fill="#f9b499"/><path d="M687.15,454.39s41.21,23.19,59.4,27.13a11.2,11.2,0,0,0,10.51-3.33C762.19,472.71,772,460,783.34,434l-85.06,2.51s-2.95,11.3-11.13,17.9" fill="#2f2e41"/><path d="M687.15,454.39s41.21,23.19,59.4,27.13a11.2,11.2,0,0,0,10.51-3.33C762.19,472.71,772,460,783.34,434l-85.06,2.51s-2.95,11.3-11.13,17.9" opacity="0.2"/><path d="M817.43,380.44c-3,8.46-15.22,31.29-21.2,42.33A24.29,24.29,0,0,1,782,434.43c-26.56,8.17-85.79,7.79-85.79,7.79,4.91-25.22-2.45-35.82-2.45-35.82a161.83,161.83,0,0,1,74.79-3.06,6.54,6.54,0,0,0,7-3.51c4.22-8.4,13.24-25.82,17.27-29.14a58.76,58.76,0,0,0,24.55,9.75Z" fill="#2f2e41"/><path d="M694.14,406.3l-16.77-6.84a66,66,0,0,1-10-5.22C651.36,384,625.72,375,625.72,375c-19.59-6.74-20.85,10.3-20.85,10.3-11.56,0-52.51,11.55-52.51,11.55l-66.32-20c-6.52-.77-8.6,3.67-9.25,6.88a4.48,4.48,0,0,0,1.9,4.61C488,394.65,524.76,419,548.09,424c0,0,11.81,3.27,48.23-5.27,0,0,3,15.23,32.3,22.47l58.53,13.21S709.91,437,694.14,406.3Z" fill="#f48225" data-secondary="true"/><path d="M850.64,232.16c-10.64-14.11-32.59.1-32.59.1-23.65-6.68-59.64,10.8-59.64,10.8-20,12.33-33.42,9.82-33.42,9.82l-25.19.46c-41.65-4.63-63.24,27.25-63.24,27.25a41.26,41.26,0,0,1-5.65,5.28,75.3,75.3,0,0,1-21,11.59C560,315.77,552,340.59,550.84,350.14a12,12,0,0,0,2,8.51c6.06,8.28,17.86,1.47,17.86,1.47s4.12,14.68,29.18,14.68c0,0,3.81,4.66,9.11,4.51,0,0,7-6.16,21.59-.49,0,0,26.45,10.85,37.84,16.42.27.13.54.27.8.42l17.58,10.49,25.33,10.48s33.9-10.27,78.62-5.61l13,1.86a8,8,0,0,0,8.62-4.3S827,379,833.6,372.87c0,0,5.65,7.06,20.35,11.14C854,384,857.51,241.27,850.64,232.16Z" fill="#2f2e41"/><path d="M813.05,408.65c-3.25,6.39-11.51,3.89-11.51,3.89-47.19-8.58-88.75,4.16-88.75,4.16L688,406.06,662.65,392,644,383.92l-20.93-7.23a61.94,61.94,0,0,0,26.64-6.17A41.15,41.15,0,0,1,672.24,366c4.66.46,9.44,1.8,13.14,4.81a16.67,16.67,0,0,1,1.72,1.64c3,3.21,23.34,22.54,57.87,2.57a65.55,65.55,0,0,1,17-6.81c16.18-4,43.56-7.1,70.28,6.84C832.25,375,818,396.28,813.05,408.65Z" opacity="0.2"/><path d="M609.42,174.44s25.36-31.56,40.23-42.27a13.86,13.86,0,0,1,13-1.64,347.9,347.9,0,0,1,64.77,33.41,5.11,5.11,0,0,1-1.57,7.24s-41.23,8-63.26-20.23c0,0-18.8,32.86-30,40.23" fill="#2f2e41"/><path d="M609.42,174.44s25.36-31.56,40.23-42.27a13.86,13.86,0,0,1,13-1.64,347.9,347.9,0,0,1,64.77,33.41,5.11,5.11,0,0,1-1.57,7.24s-41.23,8-63.26-20.23c0,0-18.8,32.86-30,40.23" opacity="0.2"/><path d="M611.26,174.46c5.56.57,22.19,4.44,24.37,30.19a4.87,4.87,0,0,1-1,3.42c-5.45,7.16-31,35.54-79.23,13.05,0,0-10.62-2.59-9.86-13.47a16.77,16.77,0,0,1,11.83-14.77,16.11,16.11,0,0,1,4.66-.72s2.28.21,2.07-3.15c0,0,15.54,4.35,44-13.78A5,5,0,0,1,611.26,174.46Z" fill="#686175" data-primary="true"/><path d="M553.52,220.44s25.9,3.22,47.51-18.4c0,0,2.73-3,1.26-9.25,0,0-8.47-25.61-19.8-36.1l-9,4.06s8.29,22.39,9.13,29.94c0,0-5.81,0-20.53,1.47,0,0-11.21-.54-16,12.52C546,204.68,541.91,215.78,553.52,220.44Z" fill="#686175" data-primary="true"/><path d="M553.52,220.44s25.9,3.22,47.51-18.4c0,0,2.73-3,1.26-9.25,0,0-8.47-25.61-19.8-36.1l-9,4.06s8.29,22.39,9.13,29.94c0,0-5.81,0-20.53,1.47,0,0-11.21-.54-16,12.52C546,204.68,541.91,215.78,553.52,220.44Z" opacity="0.2"/><path d="M90.28,406.77,89,402.83s-14.13-1.59-23.27-10C65.72,392.81,69.47,407.28,90.28,406.77Z" fill="#f7a48b"/><ellipse cx="81" cy="376.68" rx="21.54" ry="27.37" transform="translate(-125.02 51.1) rotate(-20.19)" fill="#f9b499"/><path d="M58.39,393.14s-26.22-29.4-10-47.45a20,20,0,0,1,17.8-2.84s9.09,0,12.67-7.61a9.74,9.74,0,0,1,10.53-5.52,11.24,11.24,0,0,1,1.37.37,11.52,11.52,0,0,1,7.24,8c1.51,5.45,1.73,14.18-9.93,18.44a27.74,27.74,0,0,1-8.71,1.57c-5.87.17-18.81,1.2-17.81,7.2,0,0,1,7.87-2.85,8.7,0,0-2.74-2.9-5.33-.87A4.47,4.47,0,0,0,51.83,376c-.34,2.14,1.54,7.72,6.58,11.36Z" fill="#2f2e41"/><ellipse cx="56.99" cy="379.57" rx="4.97" ry="8.22" transform="translate(-144.48 52.87) rotate(-23.12)" fill="#f9b499"/><path d="M119.37,456.28s-30.75-16-43.34-26.12c0,0-15.72-12.56-27.38-.49a21.1,21.1,0,0,0-5.39,10.68c-1.49,7.7-2.19,22.13,11.34,28.36,1.43.65,2.85,1.29,4.24,2,9.77,5.07,48,23.73,66.28,16.09,0,0,64.2-26.75,75.84-34.93,0,0,2.52-7.87-5.66-12.28Z" fill="#686175" data-primary="true"/><path d="M119.37,456.28s-30.75-16-43.34-26.12c0,0-15.72-12.56-27.38-.49a21.1,21.1,0,0,0-5.39,10.68c-1.49,7.7-2.19,22.13,11.34,28.36,1.43.65,2.85,1.29,4.24,2,9.77,5.07,48,23.73,66.28,16.09,0,0,64.2-26.75,75.84-34.93,0,0,2.52-7.87-5.66-12.28Z" opacity="0.2"/></svg>