<svg xmlns="http://www.w3.org/2000/svg" xmlns:xlink="http://www.w3.org/1999/xlink" width="865.76" height="682.89" viewBox="0 0 865.76 682.89"><defs><clipPath id="b06b8465-fe04-48ae-a8cf-20b1002a79dc"><rect id="a9d6e9c0-daf1-48eb-b39a-fb924bfed2dd" data-name="SVGID" width="865.71" height="682.29" fill="none"/></clipPath><clipPath id="fff32273-34e9-4494-b12e-7c388d4fc608"><rect id="faf64bc3-c930-44b8-8cc1-e1288dddf654" data-name="SVGID" width="865.71" height="351.43" fill="none"/></clipPath></defs><g style="isolation:isolate"><g id="eff41751-ad2c-4810-a86b-f0fa7b86026e" data-name="Layer 1"><g clip-path="url(#b06b8465-fe04-48ae-a8cf-20b1002a79dc)"><g clip-path="url(#fff32273-34e9-4494-b12e-7c388d4fc608)"><path d="M966.66,158.42v14.69h-4.41V158.42h-3.62v14.69H922.09v10.63h-13.5v1.78h-4.5v23.64H886.47v-74h-2.73v48.92H865.22V106.34h-9.49V99.13h-2.14V98h-.87V96h-1.6V81h-1l-.56-13.14h-.45L848.52,81h-1V96h-1.6v2H845v1.11h-2.14v7.21H816.46l-15.23,23.41v18.48H792.9v17h-5c-.14.31-.27.61-.42.91v30.1h-9.67V182.84l-12.28-7.2V52.3H727.19v-45H701.45v45H683.77v83.35H667.51v-8.32h-1.16v73.86h-6.11V151.53H627.35v49.66h-5.5v76.55h-2v-4.41h-5.55V72.59H587.43V197.43h-13.5v2h-4.5v26.2h-29.2V173.11h-9.35V158.42h-3.62v14.69h-4.41V158.42h-3.61v14.69H482.69v10.63h-13.5v1.78h-4.5v23.64H447.07v-74h-2.73v48.92H425.82V113.67H372.3l-10.47,16.08v18.48H353.5v17h-5c-.15.31-.27.61-.43.91v30.1h-9.67V182.84l-12.28-7.2V52.3H287.79v-45H262.05v45H244.37v83.35H228.11v-8.32H227v73.86h-6.11V151.53H188v45.9h-11V72.59H150.09v57.63H117.34v12.21h-13.5v2h-4.5v27.14H98V127.33H96.86v8.32H80.6V36.83H11.52V175.64l-12.28,7.2v13.38h-9.67v-30.1c-.15-.3-.28-.6-.42-.91h-5v-17h-8.33V129.75l-15.23-23.41H-65.81V99.13h-2.14V98h-.87V96h-1.6v-.5L-74,95.46V96h-1.6v2h-.87v1.11h-2.14v7.21h-9.49v77.71h-18.52V135.13h-2.73v74H-127V185.52h-4.5v-1.78h-7.22V462.48H968.5V158.42Zm-117.6-63h-.48V82h.48Zm1,0h-.48V82H850Z" fill="#ccc" opacity="0.62" style="mix-blend-mode:multiply"/></g><polygon points="-15.95 351.29 877.75 351.29 877.75 685.05 -14.73 685.05 -15.95 351.29" fill="#58595b"/><path d="M879.53,584.61v-12.9s-249-82.44-213.6-134.67c0,0-14.42,20.65-.49,39.22C665.44,476.26,686.33,511.66,879.53,584.61Z" opacity="0.2"/><path d="M-17.65,585.59l-.4-12.81S191.34,501.46,213.84,450c0,0-4,10.58-8.81,19.88A34,34,0,0,1,194,482.44C173.1,496.68,101.84,542.06-17.65,585.59Z" opacity="0.2"/><polygon points="34.15 622.97 126.7 559.21 172.65 558.99 98.31 624.21 34.15 622.97" fill="#fff"/><polygon points="158.24 623.36 217.58 624.25 266.3 557.82 223.34 558.26 158.24 623.36" fill="#fff"/><polygon points="272.05 623.36 305.27 558.26 348.67 559.59 333.61 623.81 272.05 623.36" fill="#fff"/><polygon points="430.15 559.15 446.98 622.92 384.98 622.92 387.84 559.1 430.15 559.15" fill="#fff"/><polygon points="503.67 624.25 473.11 561.36 522.71 562.69 570.98 622.48 503.67 624.25" fill="#fff"/><polygon points="565.23 561.81 610.4 561.36 689.23 622.92 624.13 623.81 565.23 561.81" fill="#fff"/><polygon points="662.21 563.13 710.49 561.36 822.53 622.92 749.9 624.69 662.21 563.13" fill="#fff"/><path d="M881.14,572.25s-198.95-63.35-217.7-118.6a18.93,18.93,0,0,1,5.43-20.26c14.7-12.94,61.8-36.38,211.62-42.89Z" fill="#ccc"/><path d="M881.14,572.25s-198.95-63.35-217.7-118.6a18.93,18.93,0,0,1,5.43-20.26c14.7-12.94,61.8-36.38,211.62-42.89Z" opacity="0.2"/><path d="M880.63,410.15s-129.16,0-172.64,24.54a14.07,14.07,0,0,0-3.53,21.73c14,15.3,57.18,44.35,176.68,83Z" fill="#ccc"/><path d="M-17.69,390s172.85,9,224.24,42.6a16.27,16.27,0,0,1,3.79,23.84C194.59,475.87,144.05,515.57-18,572.78Z" fill="#ccc"/><path d="M-17.69,390s172.85,9,224.24,42.6a16.27,16.27,0,0,1,3.79,23.84C194.59,475.87,144.05,515.57-18,572.78Z" opacity="0.2"/><path d="M-18.18,410.9s152.35,7.47,177.26,25.76a6.3,6.3,0,0,1,2.51,5.84C160.2,453.36,141.71,487.45-17.65,539Z" fill="#ccc"/></g><path d="M346.34,383.9H179.07c-1.15,0-6.44-3.14-6.44-5.95v-13.7c0-1.24,2.07-3.39,2.07-4.38V340.39c0-.75,17.83-21.39,18.58-21.55s28.07-2.15,50.52-1.82,31.05,2.81,36.66,5,32.28,18.65,33.68,18.82,13,2.31,17.75,3.47,14.62,4.21,16.52,7.76,2,15.5,2,19.71-.1,6.34.43,7.2a2.38,2.38,0,0,1,0,3.05A6.22,6.22,0,0,1,346.34,383.9Z" fill="#686175" data-primary="true"/><path d="M349.71,357.31a125.34,125.34,0,0,1,.7,14.43c0,4.21-.1,6.34.43,7.2a2.38,2.38,0,0,1,0,3.05,6.22,6.22,0,0,1-4.5,1.91H179.07c-1.15,0-6.44-3.14-6.44-5.95v-13.7c0-1.24,2.07-3.39,2.07-4.38v-2.56Z" opacity="0.16"/><path d="M308.2,379.77a18.83,18.83,0,1,1,37.18,4.13H308.67A18.74,18.74,0,0,1,308.2,379.77Z" fill="#2f2e41"/><path d="M308.2,379.77a18.83,18.83,0,1,1,37.18,4.13H308.67A18.74,18.74,0,0,1,308.2,379.77Z" opacity="0.4"/><path d="M174.45,379.77a18.83,18.83,0,1,1,37.18,4.13H179.07c-.7,0-2.92-1.16-4.55-2.7C174.48,380.73,174.45,380.25,174.45,379.77Z" fill="#ccc" opacity="0.62" style="mix-blend-mode:multiply"/><path d="M174.45,379.77a18.83,18.83,0,1,1,37.18,4.13H179.07c-.7,0-2.92-1.16-4.55-2.7C174.48,380.73,174.45,380.25,174.45,379.77Z" opacity="0.4"/><circle cx="327.02" cy="379.77" r="15.85" fill="#2f2e41"/><circle cx="327.02" cy="379.77" r="10.83" transform="translate(-172.75 342.47) rotate(-45)" fill="#efefef"/><circle cx="193.28" cy="379.77" r="15.85" fill="#2f2e41"/><circle cx="193.28" cy="379.77" r="10.83" transform="translate(-211.93 247.9) rotate(-45)" fill="#efefef"/><path d="M252.73,340.61a2.15,2.15,0,0,1-2.08-2c-.12-1.14-2.35-12.68-2.68-14.71s-.28-2.79.53-2.78c17.67.56,25.37,2.61,30.54,4.59,2.76,1.05,12.34,6.64,19.81,11C301,338,301.18,342,297.47,342c-2.14,0-24.78-.71-44.74-1.41Z" fill="#f1f2f2"/><path d="M210.49,321.71c8.17-.4,18.33-.76,28.07-.76h.95c.66,0,1.05,1.12,1.05,2.31s.65,13.62.68,14.7-.55,2.22-1.58,2.18c-9-.34-15.83-.63-17.49-.78-5.63-.5-7.8-1.78-12-4.26s-7.47-4.7-7.55-6.19S206.85,321.88,210.49,321.71Z" fill="#f1f2f2"/><g opacity="0.4"><path d="M246.81,383.9h.49a23.49,23.49,0,0,1,.34-3h53.95a10.85,10.85,0,0,0-.12,2.6c0,.11,0,.24,0,.36H302v-.38c0-1.42-.06-2.77.38-2.87.93-.21,2.16-.5,3.53-7.81s1.79-20.6.33-27.67-5.44-9.77-8.33-11.68l-.85-.57a93.81,93.81,0,0,0-20.46-10.23c-6.81-2.24-17.29-3.56-31.15-3.93l-1.82,0c-.09-.66-.17-1.23-.24-1.7h-.5q.09.71.24,1.71c-10.12-.12-31,.36-35,.95-4.36.63-14.14,13.18-14.54,16.69-.29,2.58,2.45,10.7,4.44,16.62.58,1.73,1.09,3.23,1.39,4.24.77,2.52,2.71,3.79,5,5.25a20.78,20.78,0,0,1,5.12,4.25,22.9,22.9,0,0,1,4.64,10.78l.1.5c.39,1.95,1.8,2.94,4.2,2.94h28.77A21.79,21.79,0,0,0,246.81,383.9Zm.92-3.46c.21-1.13.48-2.18.7-3.11a19,19,0,0,0,.57-2.74c.17-2-1.22-19.27-2.25-30.24-.71-7.63-2.28-19.28-3.08-25.13l1.74,0c13.81.37,24.25,1.69,31,3.91a93.29,93.29,0,0,1,20.33,10.17l.86.57c2.82,1.86,6.68,4.41,8.12,11.37s1,20.29-.33,27.48c-1.32,7-2.41,7.24-3.13,7.41a.76.76,0,0,0-.45.28Zm-.51,0H218.37c-2.16,0-3.38-.83-3.72-2.54l-.09-.49a23.7,23.7,0,0,0-4.75-11,21.19,21.19,0,0,0-5.23-4.35c-2.17-1.41-4-2.62-4.75-5-.31-1-.82-2.51-1.4-4.24-1.87-5.55-4.69-13.94-4.41-16.42.37-3.32,10-15.66,14.11-16.25s25-1.06,35-1c.8,5.82,2.37,17.53,3.09,25.18,1,11,2.41,28.15,2.25,30.16a20.08,20.08,0,0,1-.56,2.66C247.72,378.17,247.45,379.27,247.22,380.44Z"/><path d="M345.45,350.79a4.81,4.81,0,0,1-1.83.47,2.17,2.17,0,0,1-.36,0c-1.27-.16-8.48-1.62-14.84-2.91-3.56-.72-6.93-1.41-8.71-1.75-3.75-.72-6-4.52-7-6.45l.77.4c1.07,2,3.18,5,6.31,5.57,1.78.34,5.15,1,8.72,1.75,6.35,1.28,13.55,2.74,14.8,2.9a3.71,3.71,0,0,0,1.94-.42,10.91,10.91,0,0,1,1.1-.39l.52.39A7.49,7.49,0,0,0,345.45,350.79Z"/></g><path d="M254,349v-1.41a.88.88,0,0,1,.87-.88h6.89a.88.88,0,0,1,.88.88V349Z" opacity="0.16"/><path d="M262.64,349v1.41a.87.87,0,0,1-.88.87h-6.89a.87.87,0,0,1-.87-.87V349Z" opacity="0.4"/><path d="M202.64,349v-1.41a.89.89,0,0,1,.88-.88h6.89a.88.88,0,0,1,.87.88V349Z" opacity="0.16"/><path d="M211.28,349v1.41a.87.87,0,0,1-.87.87h-6.89a.88.88,0,0,1-.88-.87V349Z" opacity="0.4"/><path d="M346.54,352.92a7.69,7.69,0,0,1,2.59,1.2,63.82,63.82,0,0,1,1.19,11.65,5.14,5.14,0,0,1-2.33-1.18c-1.67-1.49-4-8.27-4-9.6A2.27,2.27,0,0,1,346.54,352.92Z" fill="#fff"/><path d="M174.7,342.45h1.9a3,3,0,0,1,3,3v7.35H174.7Z" fill="#fff"/><path d="M176.6,359.54h-1.9v-6.77h4.87v3.8A3,3,0,0,1,176.6,359.54Z" fill="#2f2e41"/><path d="M191.82,321.09a3,3,0,0,1,.33,4.19l-10.87,12.79a3,3,0,0,1-4.19.33l-.56-.48c3.53-4.37,11.26-13.31,14.86-17.2Z" fill="#2f2e41"/><path d="M699.08,385.46H531.81c-1.15,0-6.44-3.14-6.44-5.94V365.81c0-1.24,2.07-3.38,2.07-4.37V342c0-.74,17.83-21.38,18.57-21.55s28.07-2.14,50.53-1.81,31,2.8,36.66,5,32.28,18.66,33.68,18.82,13,2.32,17.75,3.47,14.61,4.21,16.51,7.76,2,15.5,2,19.71-.11,6.34.43,7.21a2.37,2.37,0,0,1,0,3A6.24,6.24,0,0,1,699.08,385.46Z" fill="#ffab41"/><path d="M702.45,358.88a125.18,125.18,0,0,1,.7,14.42c0,4.21-.11,6.34.43,7.21a2.37,2.37,0,0,1,0,3,6.24,6.24,0,0,1-4.5,1.91H531.81c-1.15,0-6.44-3.14-6.44-5.94V365.81c0-1.24,2.07-3.38,2.07-4.37v-2.56Z" opacity="0.16"/><path d="M660.94,381.33a18.82,18.82,0,0,1,37.64,0,19.36,19.36,0,0,1-.46,4.13H661.41A18.74,18.74,0,0,1,660.94,381.33Z" fill="#2f2e41"/><path d="M660.94,381.33a18.82,18.82,0,0,1,37.64,0,19.36,19.36,0,0,1-.46,4.13H661.41A18.74,18.74,0,0,1,660.94,381.33Z" opacity="0.4"/><path d="M527.19,381.33a18.83,18.83,0,1,1,37.18,4.13H531.81c-.7,0-2.92-1.16-4.56-2.69C527.22,382.29,527.19,381.82,527.19,381.33Z" fill="#2f2e41"/><path d="M527.19,381.33a18.83,18.83,0,1,1,37.18,4.13H531.81c-.7,0-2.92-1.16-4.56-2.69C527.22,382.29,527.19,381.82,527.19,381.33Z" opacity="0.4"/><circle cx="679.76" cy="381.33" r="15.85" fill="#2f2e41"/><circle cx="679.76" cy="381.33" r="10.83" transform="translate(-70.55 592.35) rotate(-45)" fill="#efefef"/><circle cx="546.01" cy="381.33" r="15.85" fill="#2f2e41"/><circle cx="546.01" cy="381.33" r="10.83" transform="translate(-109.72 497.78) rotate(-45)" fill="#efefef"/><path d="M605.46,342.17a2.15,2.15,0,0,1-2.07-2c-.12-1.15-2.35-12.69-2.68-14.71s-.29-2.8.53-2.78c17.67.55,25.37,2.6,30.54,4.58,2.75,1.05,12.33,6.65,19.81,11,2.16,1.27,2.33,5.31-1.39,5.31-2.13,0-24.77-.71-44.74-1.41Z" fill="#2f2e41"/><path d="M563.22,323.27c8.18-.4,18.34-.76,28.08-.76h.94c.67,0,1.06,1.11,1.06,2.3s.65,13.62.68,14.71-.56,2.21-1.58,2.17c-9-.33-15.84-.62-17.49-.77-5.64-.51-7.8-1.79-12-4.26s-7.47-4.71-7.56-6.19S559.59,323.44,563.22,323.27Z" fill="#2f2e41"/><g opacity="0.4"><path d="M599.54,385.46h.5a23.71,23.71,0,0,1,.34-3h54a10.35,10.35,0,0,0-.12,2.6v.36h.5c0-.12,0-.26,0-.37,0-1.43-.06-2.77.39-2.88.93-.21,2.15-.49,3.53-7.81s1.79-20.6.33-27.67-5.44-9.77-8.33-11.68c-.3-.19-.59-.38-.85-.57a93.81,93.81,0,0,0-20.46-10.23c-6.81-2.23-17.29-3.56-31.15-3.93-.55,0-1.16,0-1.83,0-.09-.67-.17-1.24-.23-1.71h-.5c.06.46.14,1,.23,1.7-10.11-.12-31,.37-35,1-4.36.63-14.14,13.19-14.54,16.69-.29,2.58,2.44,10.7,4.44,16.63.58,1.73,1.08,3.22,1.39,4.23.77,2.53,2.71,3.79,4.95,5.25a21,21,0,0,1,5.13,4.25,23,23,0,0,1,4.64,10.79l.09.49c.39,1.95,1.81,2.94,4.21,2.94h28.76A25.51,25.51,0,0,0,599.54,385.46Zm.92-3.46c.22-1.12.48-2.18.71-3.1a19.33,19.33,0,0,0,.57-2.75c.16-2-1.22-19.27-2.25-30.24-.71-7.62-2.28-19.28-3.09-25.13l1.74,0c13.82.37,24.25,1.68,31,3.9a93.29,93.29,0,0,1,20.33,10.17l.86.58c2.82,1.86,6.68,4.41,8.12,11.36s1,20.3-.34,27.48c-1.31,7-2.4,7.25-3.12,7.41a.81.81,0,0,0-.45.28Zm-.5,0H571.11c-2.16,0-3.38-.83-3.72-2.53l-.1-.5a23.59,23.59,0,0,0-4.74-11,21.22,21.22,0,0,0-5.24-4.35c-2.16-1.41-4-2.63-4.74-5-.31-1-.82-2.52-1.4-4.25-1.87-5.55-4.7-13.94-4.42-16.42.38-3.31,10-15.66,14.12-16.25s25-1.06,35-.94c.81,5.82,2.38,17.53,3.1,25.18,1,11,2.41,28.14,2.25,30.15a20.5,20.5,0,0,1-.56,2.67C600.45,379.74,600.18,380.83,600,382Z"/><path d="M698.19,352.35a4.64,4.64,0,0,1-1.83.48l-.37,0c-1.27-.16-8.47-1.62-14.83-2.91-3.57-.73-6.94-1.41-8.71-1.75-3.76-.73-6.05-4.52-7-6.45l.78.4c1.06,1.95,3.17,4.95,6.31,5.56,1.78.34,5.15,1,8.72,1.75,6.35,1.29,13.54,2.75,14.8,2.9a3.66,3.66,0,0,0,1.94-.42,10.1,10.1,0,0,1,1.1-.39c.18.13.35.26.51.4A6.74,6.74,0,0,0,698.19,352.35Z"/></g><path d="M606.73,350.59v-1.41a.88.88,0,0,1,.88-.87h6.89a.87.87,0,0,1,.87.87v1.41Z" opacity="0.16"/><path d="M615.37,350.59V352a.87.87,0,0,1-.87.88h-6.89a.88.88,0,0,1-.88-.88v-1.41Z" opacity="0.4"/><path d="M555.38,350.59v-1.41a.87.87,0,0,1,.87-.87h6.9a.87.87,0,0,1,.87.87v1.41Z" opacity="0.16"/><path d="M564,350.59V352a.87.87,0,0,1-.87.88h-6.9a.87.87,0,0,1-.87-.88v-1.41Z" opacity="0.4"/><path d="M699.28,354.48a7.93,7.93,0,0,1,2.59,1.21,63.77,63.77,0,0,1,1.18,11.64,5.16,5.16,0,0,1-2.32-1.18c-1.67-1.48-4-8.26-4-9.6A2.28,2.28,0,0,1,699.28,354.48Z" fill="#fff"/><path d="M527.44,344h1.89a3,3,0,0,1,3,3v7.35h-4.87Z" fill="#fff"/><path d="M529.33,361.11h-1.89v-6.77h4.87v3.79A3,3,0,0,1,529.33,361.11Z" fill="#3f3d56"/><path d="M544.56,322.66a3,3,0,0,1,.33,4.19L534,339.63a3,3,0,0,1-4.19.33l-.56-.48c3.53-4.36,11.26-13.31,14.86-17.2Z" fill="#2f2e41"/><path d="M317,590.86s-.49,2.37.54,7l.52,3.63s4.84,2.07,17.44-1.73c0,0,18.61-2,29.49-9.08a1.59,1.59,0,0,0-.16-2.75c-1.42-.72-3.92-1.19-8.24-.18a6.63,6.63,0,0,1-2.47.11c-2.76-.41-8.69-1.77-9.62-6,0,0-6.89-.35-14.21,5.23C330.33,587.1,326.94,589.29,317,590.86Z" fill="#f48225" data-secondary="true"/><path d="M279.57,355.41l.31.74s18,7.73,22,13c0,0,2-4.3,5-5.24a15.6,15.6,0,0,1-14-9.37s-3.91.82-6.84-3.57c0,0-3.14-4.8.21-7.41,0,0-3.11,1.7-3.18,7.27A5.07,5.07,0,0,1,279.57,355.41Z" fill="#f9a991"/><path d="M279.78,512s5.22,11.49,11.28,16.51c0,0,7.14,5.13,4.59,11.49-.42,1,7.73,28.83,14.21,32.38a4.21,4.21,0,0,1,.83,4.94,5.53,5.53,0,0,0-.5,2.88c.25,2,1,5.28,3.22,6.39a6,6,0,0,1,2.5,3.35,1.06,1.06,0,0,0,1.13.93c2.45-.28,8.44-1.17,13.29-3.76,0,0,10-5.23,14.21-5.23,0,0-3-8.14-9-4.7,0,0-2.71,1.05-1.35-2.19,0,0,5.22-2.61.83-7.31L325.63,557l-5.85-21.1s-1.67-2.82-.42-5c0,0,2.3-2.3-1.56-6.48a47.31,47.31,0,0,0-3-14.83s-7-31.65-12.33-37.92l-1.77.42s-.94,13.12-14.31,31.47Z" fill="#2f2e41"/><path d="M279.78,512s5.22,11.49,11.28,16.51c0,0,7.14,5.13,4.59,11.49-.42,1,7.73,28.83,14.21,32.38a4.21,4.21,0,0,1,.83,4.94,5.53,5.53,0,0,0-.5,2.88c.25,2,1,5.28,3.22,6.39a6,6,0,0,1,2.5,3.35,1.06,1.06,0,0,0,1.13.93c2.45-.28,8.44-1.17,13.29-3.76,0,0,10-5.23,14.21-5.23,0,0-3-8.14-9-4.7,0,0-2.71,1.05-1.35-2.19,0,0,5.22-2.61.83-7.31L325.63,557l-5.85-21.1s-1.67-2.82-.42-5c0,0,2.3-2.3-1.56-6.48a47.31,47.31,0,0,0-3-14.83s-7-31.65-12.33-37.92l-1.77.42s-.94,13.12-14.31,31.47Z" opacity="0.2"/><path d="M301.08,472.3a83.61,83.61,0,0,1-14.72,31.26,18.45,18.45,0,0,0-2.63,4.76l-3.54,9.31c-10.65,30.71-28.41,47-28.41,47L248,576.76c-.92,2-4.61,3.13-7.2,3.7a2.27,2.27,0,0,0-1.68,2.82,14.83,14.83,0,0,1,.11,6l-1.88.84-24.86-5.85c-5.44-6.69,4-13.79,4-13.79-1.25-4.45,1.93-7.69,4.2-9.36a8.08,8.08,0,0,0,2.87-3.87c4.7-13.65,15.15-25.63,19.34-30.07a7.5,7.5,0,0,0,2-4.08c.56-3.81,1.79-5.86,2.86-7a4.38,4.38,0,0,0,1.2-4c-.78-3.55-.48-5.31,0-6.19a10.41,10.41,0,0,0,1.43-4.11l1-11v-1.42a8.88,8.88,0,0,0-2.25-5.33,2.15,2.15,0,0,1-.23-2.07,5.45,5.45,0,0,0-.14-3.86,11.3,11.3,0,0,1-.9-9.1Z" fill="#2f2e41"/><path d="M445.55,529.64,434.93,536a16.94,16.94,0,0,1,.53-2.88l1.3-4.71a29.36,29.36,0,0,0,.86-4.35c.4-3.43,1-9.8.38-14.37a45,45,0,0,0,7.23.66l.29,2.23,6.4-1.29S454.43,524.84,445.55,529.64Z" fill="#f9b499"/><polygon points="445.25 510.37 445.52 512.54 458.5 510.15 445.25 510.37" fill="#2f2e41"/><path d="M417.38,522.47a29.85,29.85,0,0,1-.92,8.18,113.36,113.36,0,0,0-2.29,16l-15.74,9.46s-6.26-7.31-8.55-11.19C389.88,544.89,414.21,523.64,417.38,522.47Z" fill="#f9b499"/><path d="M437.62,524a29.36,29.36,0,0,1-.86,4.35l-1.3,4.71a16.94,16.94,0,0,0-.53,2.88,17.9,17.9,0,0,0-.07,2.93c.41,7.75-1.48,21-1.48,21-.76,2.43-1,15-1,17.74a1.3,1.3,0,0,1-.44.92c-5.55,5.3-11.84,2.28-13.79,1.21a1.25,1.25,0,0,1-.64-1.08c0-5.24-1.36-14.86-2.11-19.73a33.79,33.79,0,0,0-.74-3.89,29.49,29.49,0,0,1-.48-8.42,113.36,113.36,0,0,1,2.29-16,29.85,29.85,0,0,0,.92-8.18c0-1.21,0-2.39-.07-3.45a24.51,24.51,0,0,0-1.26-6.66,12.63,12.63,0,0,1-.77-4.44l17.77.69a25.23,25.23,0,0,0,3.81.95,6.3,6.3,0,0,0,1,.09H438C438.6,514.23,438,520.6,437.62,524Z" fill="#f9b499"/><path d="M437.92,522.44s7.26-5.9,7.6-9.89l-.29-2.23a46.89,46.89,0,0,1-7.23-.66S438.44,519.41,437.92,522.44Z" fill="#f9a991"/><path d="M447.05,449.15s12.48,46.65,11.45,61c0,0-17.09,1.37-25.46-1.54,0,0-22.21-.34-27.68-1.36l-.17-1.2-5.47-.68.52-34,5.46-35.2s10.1,13.15,25.3,12.73a19.87,19.87,0,0,1,3.71.28S443.47,450.52,447.05,449.15Z" fill="#2f2e41"/><path d="M397.67,480.48l2.66-4.1L408.51,433l-8.85-48.24L390.59,389S393,471.31,397.67,480.48Z" fill="#2f2e41"/><path d="M397.67,480.48l2.66-4.1L408.51,433l-8.85-48.24L390.59,389S393,471.31,397.67,480.48Z" fill="#bcbec0"/><path d="M348.55,428.44s.6,49.94,14.48,54.89c0,0,13.1,9.15,27.41,3.86A13,13,0,0,0,398.65,475l5.22-11.09-5.22-4.13-3.14,3.7-1.77-58.8a9.43,9.43,0,0,0,.21-6.31l-.55-7.54.55-17.78s-18.81.59-27.62.93a1.4,1.4,0,0,0-1.32,1.31l-.06.58a3.57,3.57,0,0,1-1.4,2.54C360.14,381,350.73,391.57,348.55,428.44Z" fill="#ccc"/><path d="M364.32,438.21a1.54,1.54,0,0,0-1.52,1.59c.15,6.45.8,31,2.16,33.86,0,0,1.1,2.35-.31,3.76,0,0-1.82,3.32-1.62,6.13,0,0,13.55,9,27.87,3.56a12,12,0,0,0,6.77-6.63l0-.08-2.2-15.93-.69-26.42S371.22,438.09,364.32,438.21Z" fill="#bcbec0"/><path d="M348.35,433.08s-6.58,3.76-6.74,11.12l.27,23.32a12.2,12.2,0,0,0,2.56,7.34h0a12.13,12.13,0,0,0,9.86,4.69,13.27,13.27,0,0,1,4.08.38l-2.1-12.76a14.57,14.57,0,0,1-.2-3l.73-23.08a21.79,21.79,0,0,0-2.35-7.21l.23-2.07A.7.7,0,0,0,354,431l-3.68-.15a1.87,1.87,0,0,0-1.94,1.71Z" fill="#bcbec0"/><path d="M444.49,403.87s-3.08-16.57-8.2-27l-2.73,3.41s-10.34-10.52-16.37-11.63a12.27,12.27,0,0,1-6.36,9.93s-2.94.35-2.77,2.58c0,0,1.66,3-9.33,6.27,0,0,4.24,44.63,7,48.73,0,0,10.24,13.11,25.3,12.73a20.1,20.1,0,0,1,3.71.28c5.54.81,19.51,2.11,16.62-6,0,0-6.84-8.37-5.81-24.26Z" fill="#686175" data-primary="true"/><polygon points="427.43 363.58 425.29 369.29 416.37 364.05 420.89 357.87 427.43 363.58" fill="#f9a991"/><path d="M418.35,362.52s13.67,6.33,17.94,14.36l-2.73,3.41s-11.62-10.93-15.9-11.44L414.25,363Z" fill="#686175" data-primary="true"/><path d="M418.35,362.52s13.67,6.33,17.94,14.36l-2.73,3.41s-11.62-10.93-15.9-11.44L414.25,363Z" fill="#fff" opacity="0.2"/><ellipse cx="434.3" cy="343.42" rx="23.6" ry="14.74" transform="translate(-20.35 659.39) rotate(-73.13)" fill="#f9b499"/><path d="M450.47,329.55s-3.42-4.1-9.57,2.22c0,0-2.55,4.5-7.23,5.07a.8.8,0,0,0-.7,1c.69,2.72,2.13,10.9-3.47,17.31a10.63,10.63,0,0,1-4.53,3c-2.87,1-7.87,3.43-7.13,8,0,0-.18,9.57-7,12.48a3.51,3.51,0,0,0-2.62,2.12,2.59,2.59,0,0,0,0,1,3,3,0,0,1-.51,1.84,4.7,4.7,0,0,1-3,2.27l-6,1.59a6.8,6.8,0,0,0-2.83,1.53c-1.32,1.24-3,3.32-2.46,5.67a9.82,9.82,0,0,1-.62-8.09,5.26,5.26,0,0,0-.23-3.64,3.17,3.17,0,0,1,.44-3,4,4,0,0,0,.56-2.89c-.6-3.13-1.56-9.92.23-14.79a7.16,7.16,0,0,0,.4-1.75c.38-3.74,1.87-16.91,4.35-21.73,0,0,4.1-25.63,24.26-29.21,0,0,5.25-1.55,10.46,3.58a6.08,6.08,0,0,0,1.95,1.29C438.75,315.85,449.47,320.86,450.47,329.55Z" fill="#2f2e41"/><path d="M393.74,365.09s-3.21,6.42-6.88,7.11a5.71,5.71,0,0,0-3,1.62c-1.53,1.56-2.39,4.29,2.84,8.18,0,0-3-3.2-1.48-5.75a3.17,3.17,0,0,1,2.56-1.47c1.88-.12,5.7-.58,7.46-2.35Z" fill="#2f2e41"/><path d="M464.49,595.24c-1,3.42-16.92,5.81-16.92,5.81-13,1-33.67-1.54-33.67-1.54-.9-3.3.54-6.53,1.6-8.32a6.46,6.46,0,0,0,1-3.41v-7.89a1.25,1.25,0,0,1,1-1.23h0a1.15,1.15,0,0,0,.64,1.08c6.2,3.08,10.71,1,12.69-.33a4.47,4.47,0,0,0,1.54-1.8h0c3.79,1.15,4.3,3.4,4.26,4.69a7.16,7.16,0,0,0,1.15,4.52c2.77,3.9,9.22,5.85,13.06,6.68a17.84,17.84,0,0,0,5.25.35C465.52,593.17,464.49,595.24,464.49,595.24Z" fill="#686175" data-primary="true"/><path d="M465.17,602.12C459.76,606,449.73,607,449.73,607l-34.79-1.14c-4-2.19-1-6.39-1-6.39s20.68,2.56,33.67,1.54c0,0,15.89-2.39,16.92-5.81a4.1,4.1,0,0,1,2.22,2.18A4,4,0,0,1,465.17,602.12Z" fill="#2f2e41"/><path d="M395.8,585.83c4.49,4.48,1.56,7.07,1.56,7.07-10.56-7-16.81-21.25-16.81-21.25l-10.43-19.83a12.37,12.37,0,0,1,8.86-3c6.39-.91,9.39-4.57,9.39-4.57,1.7-1.17,1.51.63,1.51.63l8.55,11.19c-8.47,8.82-6.89,19.68-5.35,25A10.82,10.82,0,0,0,395.8,585.83Z" fill="#686175" data-primary="true"/><path d="M391.93,596.34c-5.41-4.21-13.08-14.92-13.08-14.92l-13.56-26.2c-.79-2.87,4.83-3.4,4.83-3.4l10.43,19.83s6.25,14.22,16.81,21.25l0,.15A3.43,3.43,0,0,1,391.93,596.34Z" fill="#2f2e41"/><polygon points="418.84 419.02 398.65 459.78 403.61 464.48 422.38 426.93 418.84 419.02" fill="#bcbec0"/><path d="M411.76,382.59s-4.2,6.87-7.62,9.45a3,3,0,0,0-1.25,2.24c-.16,3.58.64,12.25,11.7,14l-4.95-14s-1.06-8.25,2.48-12" opacity="0.1"/><path d="M439.5,407.63l42.46-27s-2.56,4.15,2,4.76l-44.07,23.32Z" fill="#d1d3d4"/><path d="M321.1,344.65c0,10.69-6.8,19.35-15.16,19.35-5.56,0-10.43-3.82-13.06-9.51a23.2,23.2,0,0,1-2.11-9.84c0-.35,0-.69,0-1,.42-10.23,7-18.34,15.15-18.34C314.3,325.29,321.1,333.94,321.1,344.65Z" fill="#f9b499"/><path d="M292.88,354.49c-1.92.43-4.52-.52-6.4-2.58-2.64-2.88-2.48-6.44-.56-8.08,1.22-1.05,3.07-1.05,4.87-.2,0,.33,0,.67,0,1A23.2,23.2,0,0,0,292.88,354.49Z" fill="#f9b499"/><path d="M278.73,355.52s-1.25,2.92-.1,4.8a3.43,3.43,0,0,0-1.88,3.14s-16.05,6-14.73,23.19c0,0-17.26,63-15.57,82.31,0,0,52.75,6.16,57.87,2.09a12.23,12.23,0,0,0,1.46-8.78l2.68-22.18a32,32,0,0,1,1.24-5.63,22.23,22.23,0,0,0,.89-9.69,7.14,7.14,0,0,1-.07-3.6,12.62,12.62,0,0,0,.69-4c-.1-4.95-.7-15.74-3.93-24.83a20.24,20.24,0,0,1-1.08-5.28c0-.61-.1-1.28-.18-2a17.74,17.74,0,0,0-4.15-9.67c-4.63-5.45-13.25-15-19.17-18l-2.82-1.3-.31-.74Z" fill="#f48225" data-secondary="true"/><path d="M262,386.65,277.08,376a5.3,5.3,0,0,1,3.63-1c3,.33,8.31,1.47,9.2,5.35l-.05,3.08a51.39,51.39,0,0,1-2.32,14.56c-1.08,3.47-2.37,7.62-3.46,11a41,41,0,0,0-1.93,11.25,18.56,18.56,0,0,1-.7,5.35s-14.51-6.8-29-3a.4.4,0,0,1-.48-.53,42.68,42.68,0,0,0,2.82-9.44s.16-7.52,2.35-9.87c0,0-.16-6.43,3-9.56Z" fill="#f48225" data-secondary="true"/><path d="M262,386.65,277.08,376a5.3,5.3,0,0,1,3.63-1c3,.33,8.31,1.47,9.2,5.35l-.05,3.08a51.39,51.39,0,0,1-2.32,14.56c-1.08,3.47-2.37,7.62-3.46,11a41,41,0,0,0-1.93,11.25,18.56,18.56,0,0,1-.7,5.35s-14.51-6.8-29-3a.4.4,0,0,1-.48-.53,42.68,42.68,0,0,0,2.82-9.44s.16-7.52,2.35-9.87c0,0-.16-6.43,3-9.56Z" fill="#fff" opacity="0.2"/><path d="M274.16,427.12s5.33.4,7.29-1.41a33.58,33.58,0,0,0-9.09-3A39.78,39.78,0,0,0,274.16,427.12Z" opacity="0.29"/><path d="M211,581.28s-4.34,2.55-4.33,11.89a1.24,1.24,0,0,0,.73,1.12l17.56,8.09a5.39,5.39,0,0,0,1.05.35c3.09.64,18.34,3.48,28.94-.84a1.77,1.77,0,0,0-.12-3.32l-.47-.13a20.6,20.6,0,0,1-7.78-3.53l-7.31-5.62-1.88.84-24.86-5.85a7.45,7.45,0,0,1-.94-1.41A8,8,0,0,1,211,581.28Z" fill="#f48225" data-secondary="true"/><path d="M206.67,592.6s-1.55,0-1.61,3.35A2.66,2.66,0,0,0,206,598c1.64,1.42,5.89,4.21,15.37,6.25a13.7,13.7,0,0,1,2.25.72c2.27,1,8.53,3.06,19.09,2.57,0,0,7.4-.08,12.22-1.87a3,3,0,0,0,1.92-3.45,9.13,9.13,0,0,0-.8-2,1.94,1.94,0,0,1-1.14,1.67s-11,4.85-29.95.49l-17.56-8.09S206.86,594.18,206.67,592.6Z" fill="#2f2e41"/><path d="M256,378.34H232.14a9,9,0,0,0-8.39,5.47,5.07,5.07,0,0,0-.39,1.71,1,1,0,0,1-.31.72c-1.57,1.3-8,7.19-8.77,16.67,0,0-4.66,15.89-3.81,23.3,0,0-7.84,46.82-3,51.48,0,0,18,11,26.48,8.05l13.13-77.53s1.48-18.22,3.18-19.28c0,0,.63-5.72,4.23-5.93C254.52,383,256.22,382.79,256,378.34Z" fill="#ccc"/><path d="M234,485.74l15.3-1.54a1.71,1.71,0,0,1-.3-2.15,5.65,5.65,0,0,0-.59-4.55,12.63,12.63,0,0,1-.55-8.39l-1.39-.15s-1-10.81,6.17-42.62a4.36,4.36,0,0,1,1.15-4.07s-2,1-1.78-.12c0,0,2.51-6,2.82-9.44,0,0-.16-6.58,2.35-9.87,0,0-.05-7.73,3.24-9.46l1.62-6.73-.08-6.22s-.9-3-5.93-2.09c0,0,.34,3.94-1.49,4.66,0,0-3.11-.37-4.23,5.93,0,0-.81.82-2,7.64l-1.26,11.36-5.87,34.86Z" fill="#bcbec0"/><path d="M257,448.05l11.54,29.37a1.13,1.13,0,0,0,1.47.63l48.7-19.84a1.13,1.13,0,0,0,.63-1.44l-10.51-28a1.11,1.11,0,0,0-1.44-.66l-49.74,18.49A1.11,1.11,0,0,0,257,448.05Z" fill="#e6e7e8"/><path d="M206.2,475.43s-1.34-.94-2.95-1.85a10,10,0,0,1-4.94-11.46,7.77,7.77,0,0,1,.33-.92,63.78,63.78,0,0,0,2.69-19.83,14.35,14.35,0,0,1,3-9.78,11,11,0,0,1,8.5-4.19s-.89,6.22.22,8.22C213.09,435.62,211.09,457.42,206.2,475.43Z" fill="#bcbec0"/><path d="M318.1,601.52l.25,2.38a1.45,1.45,0,0,0,.86,1.19c1.77.77,6.83,1.93,18.31-1.7a6.21,6.21,0,0,1,1-.22c3.55-.54,25.73-4.09,29.76-10.43,0,0,1.49-3.29-3.06-4.55,0,0,1.1,2.08-2.81,4,0,0-8.16,5-26.84,7.64C335.54,599.79,324.88,602.92,318.1,601.52Z" fill="#2f2e41"/><path d="M294.53,367.37c-8.39-8.82-14.65-11.22-14.65-11.22l25.7,11.58a1.73,1.73,0,0,1,.9,2.18c-.84,2.26-2.31,6.74-2.24,9C304.24,378.93,297.26,369.82,294.53,367.37Z" fill="#f48225" data-secondary="true"/><path d="M294.53,367.37c-8.39-8.82-14.65-11.22-14.65-11.22l25.7,11.58a1.73,1.73,0,0,1,.9,2.18c-.84,2.26-2.31,6.74-2.24,9C304.24,378.93,297.26,369.82,294.53,367.37Z" opacity="0.2"/><path d="M439.85,408.73s36.25-20.51,44.07-23.32l10.5,23.93-20.76,11.23-27,12.57a55.78,55.78,0,0,1-1.34-15.5s-5.94-1-4.56-2.56A5.58,5.58,0,0,0,439.85,408.73Z" fill="#e6e7e8"/><path d="M460.72,418s1.34-2.84,7.33-3.09a16.72,16.72,0,0,0,6-1.34s4.52-1.59,5.37.86c0,0,.49,2.93-5.25,3.78,0,0-5.25,1-3.54,2.44,0,0,.49,1.59,3.05-.12,0,0,2.08,1-.61,3.17a4.38,4.38,0,0,1-1.64,2.07,3.22,3.22,0,0,0-1.17,1.26,3.44,3.44,0,0,1-3.17,2.05s.24,1.09-4.15,1.09a14.7,14.7,0,0,0,.5-6S464.62,418.65,460.72,418Z" fill="#f9b499"/><path d="M410.38,396.38c2.75,7.95,7.19,20.5,8.46,22.65,0,0,2,5.32,4,9.23a13.2,13.2,0,0,0,3.88,4.64,8,8,0,0,1,.89.75s1.06,2.71,3.77.94c0,0,7.66,4.36,12.15,1.3,0,0,14.15.94,15.92-.71a11.89,11.89,0,0,0,4-11s1.53-6.48-3.78-6.36a35.62,35.62,0,0,1-18.25-1.32,1.07,1.07,0,0,1-.61-1.45,5,5,0,0,0-.24-5.07,6.65,6.65,0,0,1-1-2.38A23.83,23.83,0,0,0,435,397.27a3.66,3.66,0,0,1-.75-1.53,30,30,0,0,1-.63-5.61s.94-11.2-10.14-13.91c0,0-4.81-1.3-9.79,4A16,16,0,0,0,410.38,396.38Z" fill="#686175" data-primary="true"/><path d="M410.38,396.38c2.75,7.95,7.19,20.5,8.46,22.65,0,0,2,5.32,4,9.23a13.2,13.2,0,0,0,3.88,4.64,8,8,0,0,1,.89.75s1.06,2.71,3.77.94c0,0,7.66,4.36,12.15,1.3,0,0,14.15.94,15.92-.71a11.89,11.89,0,0,0,4-11s1.53-6.48-3.78-6.36a35.62,35.62,0,0,1-18.25-1.32,1.07,1.07,0,0,1-.61-1.45,5,5,0,0,0-.24-5.07,6.65,6.65,0,0,1-1-2.38A23.83,23.83,0,0,0,435,397.27a3.66,3.66,0,0,1-.75-1.53,30,30,0,0,1-.63-5.61s.94-11.2-10.14-13.91c0,0-4.81-1.3-9.79,4A16,16,0,0,0,410.38,396.38Z" fill="#fff" opacity="0.2"/><path d="M253.56,422.27a4.84,4.84,0,0,0,.15,6.26s12.07,20.37,32,30.09c0,0,.47,12.53,3.91,14.73,0,0,2,1.25,3.14-.63,0,0,3.76,1.1,4.23-1.57,0,0,3.13,1.73,4.7-1.25,0,0,4.07,0,4.23-3.61,0,0-3.13-7.67-1.1-8.46,0,0,7.68,2.51,9.87.16,0,0,4.23-3.6-18.17-5.95,0,0-21.47-18.81-24.13-29.3C272.36,422.74,264.52,420.07,253.56,422.27Z" fill="#f9b499"/><path d="M242,463.92,263.13,441s2.51,2.73,4.06,4.28L243.66,469.6Z" fill="#bcbec0"/><polygon points="236.5 469.82 241.81 463.03 244.17 471.88 233.98 485.74 236.5 469.82" fill="#ccc"/><path d="M290.79,343.63s2.78-1.56,4.25,2.85c0,0,3.83-.14,2.94-4.86,0,0-1.32-3.53,2.8-6.18,0,0,8.48-4.11,10.2-8.81h0a1.68,1.68,0,0,1,1.32,2.26,9,9,0,0,1-1.81,3.13c.31,0,7,2.43,6.82-4.16,0,0-.23-13-20.59-14.81-.46-.05-.92-.11-1.37-.2-2.9-.59-16.11-2.59-21.77,8.42-.18.35-.34.71-.49,1.08a20.46,20.46,0,0,1-2.53,4.55s-1.81,1.86-2.15,7A22.38,22.38,0,0,0,271.71,347,63.35,63.35,0,0,1,275,352.8s2.19,4.21,5.66,2.22a5.26,5.26,0,0,0,2.44-4.13c.16-2.12.75-5.3,2.85-6.83C285.92,344.06,287.69,342.23,290.79,343.63Z" fill="#2f2e41"/><polygon points="758.58 465.34 755.97 467.74 758.39 473.74 760.35 469.86 758.58 465.34" fill="#bcbec0"/><polygon points="815.33 473.93 818.17 468.43 815.55 465.4 813.86 469.82 815.33 473.93" fill="#bcbec0"/><rect x="784.71" y="247.62" width="7.07" height="204.89" fill="#bcbec0"/><path d="M811.87,467.77H764.1v-.94a5.21,5.21,0,0,1,.22-1.49h-5.74l1.77,4.52,51.57,0h1.94l1.69-4.42h-3.88a5.55,5.55,0,0,1,.2,1.43Z" fill="#e6e7e8"/><polygon points="761.19 127.7 759.5 127.73 750.7 127.9 757.16 138.55 762.67 147.63 761.19 127.7" fill="#2f2e41"/><polygon points="813.51 127.77 809.97 127.7 808.86 150.1 815.85 138.59 822.31 127.94 813.51 127.77" fill="#2f2e41"/><g opacity="0.2"><polygon points="761.19 127.7 759.5 127.73 750.7 127.9 757.16 138.55 762.67 147.63 761.19 127.7"/><polygon points="813.51 127.77 809.97 127.7 808.86 150.1 815.85 138.59 822.31 127.94 813.51 127.77"/></g><polygon points="763.83 163.1 761.59 163.14 752.79 163.31 759.25 173.96 765.39 184.06 763.83 163.1" fill="#2f2e41"/><polygon points="811.42 163.16 808.22 163.1 807.15 184.86 813.76 173.97 820.22 163.33 811.42 163.16" fill="#2f2e41"/><g opacity="0.2"><polygon points="763.83 163.1 761.59 163.14 752.79 163.31 759.25 173.96 765.39 184.06 763.83 163.1"/><polygon points="811.42 163.16 808.22 163.1 807.15 184.86 813.76 173.97 820.22 163.33 811.42 163.16"/></g><polygon points="766.46 198.49 763.68 198.54 754.88 198.72 761.35 209.36 768.11 220.5 766.46 198.49" fill="#2f2e41"/><polygon points="809.33 198.55 806.48 198.49 805.44 219.62 811.67 209.36 818.13 198.72 809.33 198.55" fill="#2f2e41"/><g opacity="0.2"><polygon points="766.46 198.49 763.68 198.54 754.88 198.72 761.35 209.36 768.11 220.5 766.46 198.49"/><polygon points="809.33 198.55 806.48 198.49 805.44 219.62 811.67 209.36 818.13 198.72 809.33 198.55"/></g><path d="M778.28,237.59v3a2.9,2.9,0,0,0,.28,1.25,3.19,3.19,0,0,0,1.78,1.64v2A2.08,2.08,0,0,0,781,247a2.2,2.2,0,0,0,1.59.66h9.86a2.18,2.18,0,0,0,2.21-2.13v-2a3.11,3.11,0,0,0,1.89-2.83v-3.29Z" fill="#2f2e41"/><path d="M808.22,163.1l.64-13L810,127.7l.37-7.55-.11.08-49.57.9.53,7.11,1.48,19.93,1.16,15.45,1.56,21L766.46,199l1.65,22,.77,10.31,36.06-1.52.5-10.18,1-21.13.67-13.63Zm-8,53a12.29,12.29,0,0,1-1.07,2.33,13.52,13.52,0,0,1-11.7,6.6,13.23,13.23,0,0,1-13.44-13,12.94,12.94,0,0,1,7.22-11.53,13.75,13.75,0,0,1,6.22-1.48,13.94,13.94,0,0,1,4.06.6,13.08,13.08,0,0,1,9.39,12.41A12.5,12.5,0,0,1,800.21,216.13Zm.85-32.75a13.75,13.75,0,0,1-1.16,2.56,14.8,14.8,0,0,1-12.8,7.21,14.47,14.47,0,0,1-14.7-14.22,14.18,14.18,0,0,1,7.9-12.6,15,15,0,0,1,6.8-1.61,15.31,15.31,0,0,1,4.43.65,14.29,14.29,0,0,1,10.27,13.56A13.67,13.67,0,0,1,801.06,183.38Zm1-34.55a15.56,15.56,0,0,1-1.29,2.81,16.28,16.28,0,0,1-14.1,8,15.94,15.94,0,0,1-16.2-15.67,15.6,15.6,0,0,1,8.7-13.89,16.49,16.49,0,0,1,7.5-1.79,16.82,16.82,0,0,1,4.89.73,15.74,15.74,0,0,1,11.31,15A15,15,0,0,1,802.1,148.83Z" fill="#2f2e41"/><path d="M791.6,129a16.82,16.82,0,0,0-4.89-.73,16.49,16.49,0,0,0-7.5,1.79,15.6,15.6,0,0,0-8.7,13.89,15.94,15.94,0,0,0,16.2,15.67,16.28,16.28,0,0,0,14.1-8,15.56,15.56,0,0,0,1.29-2.81,15,15,0,0,0,.81-4.9A15.74,15.74,0,0,0,791.6,129Zm8.23,18.93a12.92,12.92,0,0,1-1.69,3.41,13.85,13.85,0,0,1-11.43,5.91A13.54,13.54,0,0,1,773,143.93a13.17,13.17,0,0,1,5.84-10.88,14.08,14.08,0,0,1,11.84-1.87,13.36,13.36,0,0,1,9.82,12.75A12.8,12.8,0,0,1,799.83,147.91Z" fill="#2f2e41"/><path d="M791.6,129a16.82,16.82,0,0,0-4.89-.73,16.49,16.49,0,0,0-7.5,1.79,15.6,15.6,0,0,0-8.7,13.89,15.94,15.94,0,0,0,16.2,15.67,16.28,16.28,0,0,0,14.1-8,15.56,15.56,0,0,0,1.29-2.81,15,15,0,0,0,.81-4.9A15.74,15.74,0,0,0,791.6,129Zm8.23,18.93a12.92,12.92,0,0,1-1.69,3.41,13.85,13.85,0,0,1-11.43,5.91A13.54,13.54,0,0,1,773,143.93a13.17,13.17,0,0,1,5.84-10.88,14.08,14.08,0,0,1,11.84-1.87,13.36,13.36,0,0,1,9.82,12.75A12.8,12.8,0,0,1,799.83,147.91Z" opacity="0.2"/><path d="M790.64,131.18a14.08,14.08,0,0,0-11.84,1.87A13.17,13.17,0,0,0,773,143.93a13.54,13.54,0,0,0,13.75,13.3,13.85,13.85,0,0,0,11.43-5.91,13,13,0,0,0,2.32-7.39A13.36,13.36,0,0,0,790.64,131.18Z" fill="#fe4f4a"/><path d="M791.53,165.37a15.31,15.31,0,0,0-4.43-.65,15,15,0,0,0-6.8,1.61,14.18,14.18,0,0,0-7.9,12.6,14.47,14.47,0,0,0,14.7,14.22,14.8,14.8,0,0,0,12.8-7.21,14.09,14.09,0,0,0,1.9-7A14.29,14.29,0,0,0,791.53,165.37ZM799,182.55a11.88,11.88,0,0,1-1.53,3.09A12.59,12.59,0,0,1,787.1,191a12.27,12.27,0,0,1-12.47-12.07,11.91,11.91,0,0,1,5.3-9.86,12.85,12.85,0,0,1,10.74-1.7,12.13,12.13,0,0,1,8.91,11.56A11.68,11.68,0,0,1,799,182.55Z" fill="#2f2e41"/><path d="M791.53,165.37a15.31,15.31,0,0,0-4.43-.65,15,15,0,0,0-6.8,1.61,14.18,14.18,0,0,0-7.9,12.6,14.47,14.47,0,0,0,14.7,14.22,14.8,14.8,0,0,0,12.8-7.21,14.09,14.09,0,0,0,1.9-7A14.29,14.29,0,0,0,791.53,165.37ZM799,182.55a11.88,11.88,0,0,1-1.53,3.09A12.59,12.59,0,0,1,787.1,191a12.27,12.27,0,0,1-12.47-12.07,11.91,11.91,0,0,1,5.3-9.86,12.85,12.85,0,0,1,10.74-1.7,12.13,12.13,0,0,1,8.91,11.56A11.68,11.68,0,0,1,799,182.55Z" opacity="0.2"/><path d="M790.67,167.37a12.85,12.85,0,0,0-10.74,1.7,11.91,11.91,0,0,0-5.3,9.86A12.27,12.27,0,0,0,787.1,191a12.59,12.59,0,0,0,10.38-5.36,11.88,11.88,0,0,0,1.53-3.09,11.68,11.68,0,0,0,.57-3.62A12.13,12.13,0,0,0,790.67,167.37Z" fill="#f9e014"/><path d="M791.5,199.65a13.94,13.94,0,0,0-4.06-.6,13.75,13.75,0,0,0-6.22,1.48A12.94,12.94,0,0,0,774,212.06a13.23,13.23,0,0,0,13.44,13,13.52,13.52,0,0,0,11.7-6.6,12.29,12.29,0,0,0,1.07-2.33,12.5,12.5,0,0,0,.68-4.07A13.08,13.08,0,0,0,791.5,199.65Zm6.83,15.72a10.77,10.77,0,0,1-1.4,2.82,11.5,11.5,0,0,1-9.49,4.91,11.24,11.24,0,0,1-11.41-11,10.94,10.94,0,0,1,4.85-9,11.73,11.73,0,0,1,9.82-1.55,11.1,11.1,0,0,1,8.16,10.58A10.72,10.72,0,0,1,798.33,215.37Z" fill="#2f2e41"/><path d="M791.5,199.65a13.94,13.94,0,0,0-4.06-.6,13.75,13.75,0,0,0-6.22,1.48A12.94,12.94,0,0,0,774,212.06a13.23,13.23,0,0,0,13.44,13,13.52,13.52,0,0,0,11.7-6.6,12.29,12.29,0,0,0,1.07-2.33,12.5,12.5,0,0,0,.68-4.07A13.08,13.08,0,0,0,791.5,199.65Zm6.83,15.72a10.77,10.77,0,0,1-1.4,2.82,11.5,11.5,0,0,1-9.49,4.91,11.24,11.24,0,0,1-11.41-11,10.94,10.94,0,0,1,4.85-9,11.73,11.73,0,0,1,9.82-1.55,11.1,11.1,0,0,1,8.16,10.58A10.72,10.72,0,0,1,798.33,215.37Z" opacity="0.2"/><path d="M790.7,201.48a11.73,11.73,0,0,0-9.82,1.55,10.94,10.94,0,0,0-4.85,9,11.24,11.24,0,0,0,11.41,11,11.5,11.5,0,0,0,9.49-4.91,10.8,10.8,0,0,0,1.93-6.13A11.1,11.1,0,0,0,790.7,201.48Z" fill="#a3dc7e"/><polygon points="810.34 120.15 814.45 117.19 756.04 118.52 760.65 121.13 760.65 121.13 810.23 120.23 810.34 120.15" fill="#2f2e41"/><polygon points="810.34 120.15 814.45 117.19 756.04 118.52 760.65 121.13 760.65 121.13 810.23 120.23 810.34 120.15" opacity="0.2"/><polygon points="768.88 231.32 765.74 234.35 807.68 232.84 804.94 229.8 768.88 231.32" fill="#2f2e41"/><polygon points="768.88 231.32 765.74 234.35 807.68 232.84 804.94 229.8 768.88 231.32" opacity="0.2"/><polygon points="765.74 234.35 765.93 237.77 778.28 237.59 796.51 237.34 806.9 237.2 807.68 232.84 765.74 234.35" fill="#2f2e41"/><polygon points="813.56 113.91 756.85 115.17 755.84 118.52 814.35 117.19 813.56 113.91" fill="#2f2e41"/><path d="M792.57,450.07H783.4a3.07,3.07,0,0,0-2.58,1.39,2.85,2.85,0,0,0-.48,1.57v2.6h15.29V453A3,3,0,0,0,792.57,450.07Z" fill="#2f2e41"/><path d="M774.36,457.58a3.92,3.92,0,0,0-.6,2.08v1.85h-4.34a5.31,5.31,0,0,0-5.1,3.83,5.21,5.21,0,0,0-.22,1.49v.94h47.77v-.94a5.55,5.55,0,0,0-.2-1.43,5.33,5.33,0,0,0-5.12-3.89h-4.34v-1.85a4.1,4.1,0,0,0-4.17-4H777.93a4.19,4.19,0,0,0-3.57,1.95" fill="#2f2e41"/><path d="M813.65,469.82h-1.73l-51.57,0-2,3.88,56.94.19-1.47-4.11Z" fill="#d1d3d4"/><g opacity="0.2"><path d="M768.22,142.47s14.51-10.61,35.8-3.16c-5.22-9.35-6.27-13.27-19.73-13S768.22,142.47,768.22,142.47Z" fill="#2f2e41"/></g><path d="M805.87,143.61H804c0-9.28-7.82-16.83-17.43-16.83s-17.43,7.55-17.43,16.83h-1.86c0-10.31,8.65-18.69,19.29-18.69S805.87,133.3,805.87,143.61Z" fill="#fff"/><g opacity="0.2"><path d="M770.57,177.37s13.11-9.6,32.37-2.86c-4.73-8.45-5.67-12-17.84-11.76S770.57,177.37,770.57,177.37Z" fill="#2f2e41"/></g><path d="M804.6,178.4h-1.68c0-8.39-7.06-15.21-15.75-15.21S771.42,170,771.42,178.4h-1.69c0-9.32,7.82-16.9,17.44-16.9S804.6,169.08,804.6,178.4Z" fill="#fff"/><g opacity="0.2"><path d="M772,211s12.23-9,30.2-2.66c-4.41-7.89-5.29-11.19-16.64-11S772,211,772,211Z" fill="#2f2e41"/></g><path d="M803.76,212h-1.57a14.7,14.7,0,0,0-29.39,0h-1.57a16.27,16.27,0,0,1,32.53,0Z" fill="#fff"/><rect x="60.02" y="247.62" width="7.07" height="204.89" fill="#bcbec0"/><polygon points="33.89 465.34 31.28 467.74 33.69 473.74 35.65 469.86 33.89 465.34" fill="#bcbec0"/><path d="M87.17,467.77H39.41v-.94a5.59,5.59,0,0,1,.21-1.49H33.89l1.76,4.52,51.58,0h1.93l1.7-4.42H87a5.15,5.15,0,0,1,.2,1.43Z" fill="#e6e7e8"/><polygon points="36.49 127.7 34.81 127.73 26.01 127.9 32.47 138.55 37.98 147.63 36.49 127.7" fill="#2f2e41"/><polygon points="88.82 127.77 85.27 127.7 84.17 150.1 91.16 138.59 97.62 127.94 88.82 127.77" fill="#2f2e41"/><g opacity="0.2"><polygon points="36.49 127.7 34.81 127.73 26.01 127.9 32.47 138.55 37.98 147.63 36.49 127.7"/><polygon points="88.82 127.77 85.27 127.7 84.17 150.1 91.16 138.59 97.62 127.94 88.82 127.77"/></g><polygon points="39.13 163.1 36.9 163.14 28.1 163.31 34.56 173.96 40.7 184.06 39.13 163.1" fill="#2f2e41"/><polygon points="86.73 163.16 83.53 163.1 82.46 184.86 89.06 173.97 95.53 163.33 86.73 163.16" fill="#2f2e41"/><g opacity="0.2"><polygon points="39.13 163.1 36.9 163.14 28.1 163.31 34.56 173.96 40.7 184.06 39.13 163.1"/><polygon points="86.73 163.16 83.53 163.1 82.46 184.86 89.06 173.97 95.53 163.33 86.73 163.16"/></g><polygon points="41.77 198.49 38.99 198.54 30.19 198.72 36.65 209.36 43.41 220.5 41.77 198.49" fill="#2f2e41"/><polygon points="84.64 198.55 81.79 198.49 80.75 219.62 86.97 209.36 93.43 198.72 84.64 198.55" fill="#2f2e41"/><g opacity="0.2"><polygon points="41.77 198.49 38.99 198.54 30.19 198.72 36.65 209.36 43.41 220.5 41.77 198.49"/><polygon points="84.64 198.55 81.79 198.49 80.75 219.62 86.97 209.36 93.43 198.72 84.64 198.55"/></g><path d="M53.59,237.59v3a3,3,0,0,0,.27,1.25,3.21,3.21,0,0,0,1.79,1.64v2a2.07,2.07,0,0,0,.61,1.47,2.22,2.22,0,0,0,1.59.66h9.87a2.17,2.17,0,0,0,2.2-2.13v-2a3.1,3.1,0,0,0,1.9-2.83v-3.29Z" fill="#2f2e41"/><path d="M83.53,163.1l.64-13,1.1-22.4.37-7.55-.1.08-49.58.9.53,7.11L38,148.17l1.15,15.45,1.57,21L41.77,199l1.64,22,.77,10.31,36.07-1.52.5-10.18,1-21.13.67-13.63Zm-8,53a12.94,12.94,0,0,1-1.07,2.33,13.52,13.52,0,0,1-11.7,6.6,13.23,13.23,0,0,1-13.45-13,13,13,0,0,1,7.22-11.53,13.9,13.9,0,0,1,10.28-.88,13.08,13.08,0,0,1,9.4,12.41A12.5,12.5,0,0,1,75.52,216.13Zm.85-32.75a14.47,14.47,0,0,1-1.17,2.56,14.78,14.78,0,0,1-12.79,7.21,14.46,14.46,0,0,1-14.7-14.22,14.17,14.17,0,0,1,7.89-12.6,15.05,15.05,0,0,1,6.81-1.61,15.41,15.41,0,0,1,4.43.65,14.3,14.3,0,0,1,10.27,13.56A13.67,13.67,0,0,1,76.37,183.38Zm1-34.55a14.87,14.87,0,0,1-1.28,2.81,16.31,16.31,0,0,1-14.1,8,15.94,15.94,0,0,1-16.2-15.67A15.6,15.6,0,0,1,54.52,130a16.49,16.49,0,0,1,7.5-1.79,16.7,16.7,0,0,1,4.88.73,15.75,15.75,0,0,1,11.32,15A15,15,0,0,1,77.4,148.83Z" fill="#2f2e41"/><path d="M66.9,129a16.7,16.7,0,0,0-4.88-.73,16.49,16.49,0,0,0-7.5,1.79,15.6,15.6,0,0,0-8.7,13.89A15.94,15.94,0,0,0,62,159.6a16.31,16.31,0,0,0,14.1-8,14.87,14.87,0,0,0,1.28-2.81,15,15,0,0,0,.82-4.9A15.75,15.75,0,0,0,66.9,129Zm8.24,18.93a13.24,13.24,0,0,1-1.69,3.41A13.88,13.88,0,0,1,62,157.23a13.53,13.53,0,0,1-13.75-13.3,13.17,13.17,0,0,1,5.84-10.88A14,14,0,0,1,62,130.62a14.19,14.19,0,0,1,3.93.56,13.36,13.36,0,0,1,9.82,12.75A12.8,12.8,0,0,1,75.14,147.91Z" fill="#2f2e41"/><path d="M66.9,129a16.7,16.7,0,0,0-4.88-.73,16.49,16.49,0,0,0-7.5,1.79,15.6,15.6,0,0,0-8.7,13.89A15.94,15.94,0,0,0,62,159.6a16.31,16.31,0,0,0,14.1-8,14.87,14.87,0,0,0,1.28-2.81,15,15,0,0,0,.82-4.9A15.75,15.75,0,0,0,66.9,129Zm8.24,18.93a13.24,13.24,0,0,1-1.69,3.41A13.88,13.88,0,0,1,62,157.23a13.53,13.53,0,0,1-13.75-13.3,13.17,13.17,0,0,1,5.84-10.88A14,14,0,0,1,62,130.62a14.19,14.19,0,0,1,3.93.56,13.36,13.36,0,0,1,9.82,12.75A12.8,12.8,0,0,1,75.14,147.91Z" opacity="0.2"/><path d="M66,131.18a14.19,14.19,0,0,0-3.93-.56,14,14,0,0,0-7.91,2.43,13.17,13.17,0,0,0-5.84,10.88A13.53,13.53,0,0,0,62,157.23a13.88,13.88,0,0,0,11.43-5.91,13.24,13.24,0,0,0,1.69-3.41,12.8,12.8,0,0,0,.63-4A13.36,13.36,0,0,0,66,131.18Z" fill="#fe4f4a"/><path d="M66.84,165.37a15.41,15.41,0,0,0-4.43-.65,15.05,15.05,0,0,0-6.81,1.61,14.17,14.17,0,0,0-7.89,12.6,14.46,14.46,0,0,0,14.7,14.22,14.78,14.78,0,0,0,12.79-7.21,14.47,14.47,0,0,0,1.17-2.56,13.67,13.67,0,0,0,.74-4.45A14.3,14.3,0,0,0,66.84,165.37Zm7.47,17.18a11.58,11.58,0,0,1-1.53,3.09A12.59,12.59,0,0,1,62.41,191a12.28,12.28,0,0,1-12.48-12.07,11.93,11.93,0,0,1,5.3-9.86A12.87,12.87,0,0,1,66,167.37a12.13,12.13,0,0,1,8.91,11.56A11.68,11.68,0,0,1,74.31,182.55Z" fill="#2f2e41"/><path d="M66.84,165.37a15.41,15.41,0,0,0-4.43-.65,15.05,15.05,0,0,0-6.81,1.61,14.17,14.17,0,0,0-7.89,12.6,14.46,14.46,0,0,0,14.7,14.22,14.78,14.78,0,0,0,12.79-7.21,14.47,14.47,0,0,0,1.17-2.56,13.67,13.67,0,0,0,.74-4.45A14.3,14.3,0,0,0,66.84,165.37Zm7.47,17.18a11.58,11.58,0,0,1-1.53,3.09A12.59,12.59,0,0,1,62.41,191a12.28,12.28,0,0,1-12.48-12.07,11.93,11.93,0,0,1,5.3-9.86A12.87,12.87,0,0,1,66,167.37a12.13,12.13,0,0,1,8.91,11.56A11.68,11.68,0,0,1,74.31,182.55Z" opacity="0.2"/><path d="M66,167.37a12.87,12.87,0,0,0-10.75,1.7,11.93,11.93,0,0,0-5.3,9.86A12.28,12.28,0,0,0,62.41,191a12.59,12.59,0,0,0,10.37-5.36,11.87,11.87,0,0,0,2.11-6.71A12.13,12.13,0,0,0,66,167.37Z" fill="#f9e014"/><path d="M66.8,199.65a13.9,13.9,0,0,0-10.28.88,13,13,0,0,0-7.22,11.53,13.23,13.23,0,0,0,13.45,13,13.52,13.52,0,0,0,11.7-6.6,12.94,12.94,0,0,0,1.07-2.33,12.5,12.5,0,0,0,.68-4.07A13.08,13.08,0,0,0,66.8,199.65Zm6.84,15.72a11.09,11.09,0,0,1-1.4,2.82,11.52,11.52,0,0,1-9.49,4.91,11.24,11.24,0,0,1-11.41-11,10.93,10.93,0,0,1,4.84-9A11.75,11.75,0,0,1,66,201.48a11.1,11.1,0,0,1,8.15,10.58A10.71,10.71,0,0,1,73.64,215.37Z" fill="#2f2e41"/><path d="M66.8,199.65a13.9,13.9,0,0,0-10.28.88,13,13,0,0,0-7.22,11.53,13.23,13.23,0,0,0,13.45,13,13.52,13.52,0,0,0,11.7-6.6,12.94,12.94,0,0,0,1.07-2.33,12.5,12.5,0,0,0,.68-4.07A13.08,13.08,0,0,0,66.8,199.65Zm6.84,15.72a11.09,11.09,0,0,1-1.4,2.82,11.52,11.52,0,0,1-9.49,4.91,11.24,11.24,0,0,1-11.41-11,10.93,10.93,0,0,1,4.84-9A11.75,11.75,0,0,1,66,201.48a11.1,11.1,0,0,1,8.15,10.58A10.71,10.71,0,0,1,73.64,215.37Z" opacity="0.2"/><path d="M66,201.48A11.75,11.75,0,0,0,56.18,203a10.93,10.93,0,0,0-4.84,9,11.24,11.24,0,0,0,11.41,11,11.52,11.52,0,0,0,9.49-4.91,11.09,11.09,0,0,0,1.4-2.82,10.71,10.71,0,0,0,.52-3.31A11.1,11.1,0,0,0,66,201.48Z" fill="#a3dc7e"/><polygon points="85.64 120.15 89.75 117.19 31.34 118.52 35.96 121.13 35.96 121.13 85.54 120.23 85.64 120.15" fill="#2f2e41"/><polygon points="85.64 120.15 89.75 117.19 31.34 118.52 35.96 121.13 35.96 121.13 85.54 120.23 85.64 120.15" opacity="0.2"/><polygon points="44.18 231.32 41.05 234.35 82.99 232.84 80.25 229.8 44.18 231.32" fill="#2f2e41"/><polygon points="44.18 231.32 41.05 234.35 82.99 232.84 80.25 229.8 44.18 231.32" opacity="0.2"/><polygon points="41.05 234.35 41.24 237.77 53.59 237.59 71.82 237.34 82.21 237.2 82.99 232.84 41.05 234.35" fill="#2f2e41"/><polygon points="88.87 113.91 32.16 115.17 31.15 118.52 89.65 117.19 88.87 113.91" fill="#2f2e41"/><path d="M67.88,450.07H58.7a3.07,3.07,0,0,0-2.58,1.39,2.84,2.84,0,0,0-.47,1.57v2.6H70.94V453A3,3,0,0,0,67.88,450.07Z" fill="#2f2e41"/><path d="M49.67,457.58a3.92,3.92,0,0,0-.6,2.08v1.85H44.72a5.31,5.31,0,0,0-5.1,3.83,5.59,5.59,0,0,0-.21,1.49v.94H87.17v-.94a5.15,5.15,0,0,0-.2-1.43,5.31,5.31,0,0,0-5.11-3.89H77.51v-1.85a4.09,4.09,0,0,0-4.17-4H53.24a4.19,4.19,0,0,0-3.57,1.95" fill="#2f2e41"/><path d="M89,469.82H87.23l-51.58,0-2,3.88,56.94.19-1.47-4.11Z" fill="#d1d3d4"/><polygon points="90.63 473.93 93.47 468.43 90.86 465.4 89.16 469.82 90.63 473.93" fill="#bcbec0"/><g opacity="0.2"><path d="M43.53,142.47s14.5-10.61,35.8-3.16C74.1,130,73.06,126,59.6,126.29S43.53,142.47,43.53,142.47Z" fill="#2f2e41"/></g><path d="M81.18,143.61H79.32c0-9.28-7.82-16.83-17.43-16.83s-17.43,7.55-17.43,16.83H42.6c0-10.31,8.65-18.69,19.29-18.69S81.18,133.3,81.18,143.61Z" fill="#fff"/><g opacity="0.2"><path d="M45.88,177.37s13.11-9.6,32.36-2.86c-4.72-8.45-5.67-12-17.83-11.76S45.88,177.37,45.88,177.37Z" fill="#2f2e41"/></g><path d="M79.91,178.4H78.23c0-8.39-7.07-15.21-15.75-15.21S46.72,170,46.72,178.4H45c0-9.32,7.82-16.9,17.44-16.9S79.91,169.08,79.91,178.4Z" fill="#fff"/><g opacity="0.2"><path d="M47.32,211s12.23-9,30.19-2.66c-4.4-7.89-5.29-11.19-16.64-11S47.32,211,47.32,211Z" fill="#2f2e41"/></g><path d="M79.07,212H77.5a14.71,14.71,0,0,0-29.4,0H46.53a16.28,16.28,0,0,1,32.54,0Z" fill="#fff"/></g></g></svg>