<svg id="ea742aec-649f-4220-8952-5194ea796762" data-name="Layer 1" xmlns="http://www.w3.org/2000/svg" width="865.76" height="682.89" viewBox="0 0 865.76 682.89"><rect x="795.6" y="400.18" width="8" height="251.58" transform="translate(-96.58 190.02) rotate(-12.79)" fill="#f48225" data-secondary="true"/><g opacity="0.4"><rect x="795.6" y="400.18" width="8" height="251.58" transform="translate(-96.58 190.02) rotate(-12.79)"/></g><rect x="441.08" y="490.74" width="7.17" height="160.61" transform="translate(187.06 -105.31) rotate(17.06)" fill="#f48225" data-secondary="true"/><polygon points="442.92 384.75 463.12 333.47 474.88 375.37 442.92 384.75" fill="#686175" data-primary="true"/><path d="M343.29,281.25l-17-.12a4.21,4.21,0,0,0-4.14,4.29h0v3.07a4.2,4.2,0,0,1-4.1,4.29h0l-33-.23a4.2,4.2,0,0,1-4.09-4.29V285.2a4.3,4.3,0,0,0-4.1-4.29h-6l-14.82-.12A13.31,13.31,0,0,0,242.63,294v0L241.4,431.49a13.31,13.31,0,0,0,13.21,13.4h0l87.23.6a13.3,13.3,0,0,0,13.43-13.18v0l1.23-137.48a13.32,13.32,0,0,0-13.08-13.55Z" fill="#fff"/><path d="M343.29,281.25h1.43a13.37,13.37,0,0,1,11.88,14c-.12,13.9-.29,34-.49,58.83-.1,12.42-.22,26-.34,40.63q-.09,10.95-.2,22.64c0,3.88,0,7.83-.11,11.83a24,24,0,0,1-.44,6,13.43,13.43,0,0,1-2.86,5.45,13.86,13.86,0,0,1-5,3.65,14.52,14.52,0,0,1-6.18,1l-12.76-.08-26.31-.17-27.21-.19-13.95-.1c-2.34,0-4.67,0-7.05-.1a13.46,13.46,0,0,1-6.67-2.36,13.63,13.63,0,0,1-4.53-5.45,14.52,14.52,0,0,1-1.23-6.91q0-7,.13-14,.13-13.84.24-27.21c.18-17.88.33-35.12.48-51.56q.09-12.31.23-24c0-3.88.07-7.72.1-11.46v-5.63a21.67,21.67,0,0,1,.43-5.51,13.41,13.41,0,0,1,6.41-8.39,13.09,13.09,0,0,1,5-1.65c1.75-.19,3.45-.07,5.16-.09l10,.07h7.2a4.4,4.4,0,0,1,2.3.58,4.49,4.49,0,0,1,2.13,3.95v2.26a5.5,5.5,0,0,0,.23,2.17,4.08,4.08,0,0,0,3.06,2.69c1.44.14,2.87,0,4.3.1l15.75.11,13.75.12a4.15,4.15,0,0,0,4-3.74V286a5.56,5.56,0,0,1,.46-2.64,4.31,4.31,0,0,1,4-2.38h11.06l5.58.07H326.55a4.1,4.1,0,0,0-3.92,2.34,5.2,5.2,0,0,0-.45,2.58v2.86a4.3,4.3,0,0,1-4.09,3.87l-13.77-.09-15.75-.1c-1.43,0-2.86,0-4.3-.1a4.29,4.29,0,0,1-3.22-2.86,5.65,5.65,0,0,1-.24-2.24V285a4.31,4.31,0,0,0-2.05-3.77,3.9,3.9,0,0,0-2.19-.54h-7.19l-9.95-.07c-1.71-.06-3.42,0-5.13.08a13.21,13.21,0,0,0-11.17,9.87,22.34,22.34,0,0,0-.43,5.47v5.62c0,3.76-.07,7.6-.1,11.45q-.1,11.66-.22,24c-.14,16.43-.28,33.67-.44,51.56q-.13,13.4-.24,27.21,0,6.92-.13,14a14.32,14.32,0,0,0,1.19,6.8A13.3,13.3,0,0,0,247.2,442a13.1,13.1,0,0,0,6.53,2.31c2.33.11,4.69,0,7,.1l13.93.1,27.21.19,26.31.2,12.76.08a14.44,14.44,0,0,0,6.07-1,13.81,13.81,0,0,0,4.92-3.6,13.14,13.14,0,0,0,2.76-5.33,24.38,24.38,0,0,0,.43-6c0-4,.09-7.95.11-11.83q.12-11.68.22-22.64c.13-14.61.26-28.21.37-40.63.25-24.83.45-44.93.59-58.85a13.45,13.45,0,0,0-2.61-8.59,13.28,13.28,0,0,0-5.18-4.21,14.23,14.23,0,0,0-4-1.12Z" fill="#bcbec0"/><rect x="266.96" y="306.39" width="64" height="92.17" transform="translate(-54.25 650.57) rotate(-89.86)" fill="#686175" data-primary="true"/><circle cx="298.99" cy="352.32" r="13.38" fill="#fff"/><polygon points="295.69 352.33 295.7 346.3 300.92 349.32 306.13 352.34 300.9 355.35 295.67 358.34 295.69 352.33" fill="#686175" data-primary="true"/><path d="M262.78,393.89v-1a.13.13,0,0,1,.13-.13h0l.89.52.89.53a.11.11,0,0,1,0,.15.1.1,0,0,1,0,.05l-.89.51-.9.52a.12.12,0,0,1-.16,0,.13.13,0,0,1,0-.06Z" fill="#bcbec0"/><path d="M271.16,393.16h-.78a.11.11,0,0,0-.11.11v1.45a.12.12,0,0,0,.13.11h.76l1.18,1.2v-4Z" fill="#bcbec0"/><path d="M265.43,395.18h0a.2.2,0,0,1-.2-.2h0v-2.07a.21.21,0,0,1,.21-.21h0a.22.22,0,0,1,.2.21V395A.22.22,0,0,1,265.43,395.18Z" fill="#bcbec0"/><path d="M272.83,392.71v2.51a1.43,1.43,0,0,0,.87-1.26A1.33,1.33,0,0,0,272.83,392.71Z" fill="#bcbec0"/><path d="M272.83,391.75v.53a1.74,1.74,0,0,1,1.26,1.68,1.78,1.78,0,0,1-1.27,1.69v.51a2.25,2.25,0,0,0,0-4.41Z" fill="#bcbec0"/><path d="M279.29,393.16v2.42H279v-2.12h-.55v-.3Z" fill="#bcbec0"/><path d="M279.75,394a.23.23,0,0,1,.23-.23h0a.23.23,0,0,1,.23.23h0a.23.23,0,0,1-.21.24h0a.24.24,0,0,1-.24-.24Zm0,1.43a.23.23,0,0,1,.23-.23h0a.23.23,0,0,1,.23.23h0a.23.23,0,0,1-.23.24.23.23,0,0,1-.25-.23.22.22,0,0,1,0-.08Z" fill="#bcbec0"/><path d="M280.61,394.37c0-.8.41-1.24,1-1.24s1,.46,1,1.24-.43,1.25-1,1.25S280.61,395.16,280.61,394.37Zm1.63,0c0-.61-.26-.93-.64-.93s-.65.3-.65.93.26.93.65.93.64-.31.64-.93Z" fill="#bcbec0"/><path d="M283.66,393.16v2.43h-.35v-2.13h-.54v-.3Z" fill="#bcbec0"/><path d="M286,392.67h.3l-1.15,3.26h-.31Z" fill="#bcbec0"/><path d="M289.19,394.92c0,.44-.38.71-1,.71s-1-.28-1-.71a.61.61,0,0,1,.43-.59.55.55,0,0,1-.33-.53c0-.4.35-.66.88-.66s.87.26.87.66a.55.55,0,0,1-.34.53A.59.59,0,0,1,289.19,394.92Zm-.35,0c0-.27-.24-.43-.61-.43s-.62.16-.62.43.23.44.6.44.63-.18.63-.46Zm-1.14-1.09c0,.24.18.39.53.39s.53-.15.53-.39-.2-.39-.53-.39-.53.13-.53.45Z" fill="#bcbec0"/><path d="M289.5,394a.25.25,0,0,1,.23-.25.25.25,0,0,1,0,.49A.24.24,0,0,1,289.5,394Zm0,1.43a.23.23,0,1,1,.23.23A.23.23,0,0,1,289.5,395.42Z" fill="#bcbec0"/><path d="M290.29,394.39c0-.79.43-1.23,1-1.23s1,.44,1,1.24-.43,1.23-1,1.23S290.29,395.19,290.29,394.39Zm1.63,0c0-.63-.26-.95-.63-.95s-.64.32-.64.93.25.95.63.95.64-.3.64-.92Z" fill="#bcbec0"/><path d="M292.64,394.4c0-.8.43-1.24,1-1.24s1,.45,1,1.24-.43,1.25-1,1.25S292.64,395.19,292.64,394.4Zm1.63,0c0-.61-.26-.93-.64-.93s-.65.3-.65.93.26.93.65.93.61-.31.61-.93Z" fill="#bcbec0"/><path d="M254,395.18h0a.44.44,0,0,1-.4-.42v-2.13a.41.41,0,0,1,.41-.42h0a.39.39,0,0,1,.4.4v2.15a.41.41,0,0,1-.41.42Z" fill="#bcbec0"/><path d="M255.77,395.18h0a.4.4,0,0,1-.4-.41h0v-2.13a.42.42,0,0,1,.42-.42h0a.42.42,0,0,1,.4.42v2.13a.42.42,0,0,1-.42.42Z" fill="#bcbec0"/><path d="M344.54,390.25,253.68,390a.87.87,0,0,1-.87-.87h0a.87.87,0,0,1,.87-.87l90.87.21a.88.88,0,0,1,.88.88h0a.88.88,0,0,1-.88.87Z" fill="#e0e0e0"/><path d="M287.08,390.11l-33.4-.08a.87.87,0,0,1-.87-.87h0a.87.87,0,0,1,.87-.87l33.4.07a.76.76,0,0,1,.76.76v.24a.75.75,0,0,1-.75.75Z" fill="#686175" data-primary="true"/><path d="M288.73,389.25a1.7,1.7,0,0,1-1.68,1.66,1.68,1.68,0,1,1,1.68-1.68Z" fill="#686175" data-primary="true"/><path d="M343.86,33.79l-16.95-.09a4.22,4.22,0,0,0-4.13,4.3h0v3.07a4.2,4.2,0,0,1-4.12,4.29h0l-33-.16a4.19,4.19,0,0,1-4.1-4.29h0V37.84a4.28,4.28,0,0,0-4.09-4.29h-20.8a13.29,13.29,0,0,0-13.4,13.2v0l-.9,213.3a13.31,13.31,0,0,0,13.27,13.35l87.23.4a13.3,13.3,0,0,0,13.39-13.22h0l.86-213.46A13.32,13.32,0,0,0,343.86,33.79Z" fill="#fff"/><path d="M343.86,33.79h.46a12.28,12.28,0,0,1,1.35.11,12.83,12.83,0,0,1,5,1.74,13.48,13.48,0,0,1,5.56,6.44,13.85,13.85,0,0,1,1,5.4v6.27c-.07,17.75-.15,43.4-.27,75.11s-.27,69.44-.44,111.36c0,5.24,0,10.54-.07,15.91-.08,2.66.24,5.43-.58,8.08a14.68,14.68,0,0,1-1.76,3.71,14.53,14.53,0,0,1-2.86,3,13.34,13.34,0,0,1-7.72,2.87h-8.35l-17-.09-34.77-.11-17.79-.07h-9a14.08,14.08,0,0,1-8.59-2.41,13.51,13.51,0,0,1-5.26-7.28,14.09,14.09,0,0,1-.54-4.48v-4.5q0-8.94.08-17.78,0-17.69.14-34.8c.11-22.82.21-44.81.29-65.78S242.93,95.6,243,77q0-14,.12-27a27.1,27.1,0,0,1,.41-6.42A13.43,13.43,0,0,1,246.41,38a13.82,13.82,0,0,1,5-3.61,14.69,14.69,0,0,1,5.93-1h19.91a4.37,4.37,0,0,1,2.59.79,4.44,4.44,0,0,1,1.56,2.18,8,8,0,0,1,.23,2.62,21.86,21.86,0,0,0,0,2.56,4.11,4.11,0,0,0,1.05,2.22A3.86,3.86,0,0,0,284.73,45a14.2,14.2,0,0,0,2.44.12H292l17.56.1h9.55a3.85,3.85,0,0,0,1.64-.58,4.27,4.27,0,0,0,1.86-2.69,24.33,24.33,0,0,0,.14-3.19,5.36,5.36,0,0,1,.6-3,4.15,4.15,0,0,1,2.15-1.83,6.73,6.73,0,0,1,2.64-.26h8.59l7.16.07H328.1a7,7,0,0,0-2.61.26,4,4,0,0,0-2.09,1.81,5.07,5.07,0,0,0-.59,2.86,21.93,21.93,0,0,1-.1,3.24,4.26,4.26,0,0,1-1.92,2.77,4,4,0,0,1-1.67.61H287.19a14.6,14.6,0,0,1-2.47-.12,4.11,4.11,0,0,1-2.17-1.27,4.37,4.37,0,0,1-1.1-2.31,22.38,22.38,0,0,1,0-2.59,7.86,7.86,0,0,0-.21-2.56,4.32,4.32,0,0,0-1.43-2.08c-1.44-1.13-3.41-.66-5.22-.77H257.41a14.16,14.16,0,0,0-5.83,1,13.49,13.49,0,0,0-4.9,3.55,12.83,12.83,0,0,0-2.86,5.49A26.06,26.06,0,0,0,243.4,50q0,13-.1,27c-.07,18.62-.16,38.55-.24,59.52s-.18,43-.28,65.78q0,17.1-.14,34.8,0,8.84-.07,17.78v4.5a13.91,13.91,0,0,0,.53,4.4,13.28,13.28,0,0,0,5.14,7.16,13.75,13.75,0,0,0,8.46,2.35h9l17.79.08,34.78.16,17,.09h8.33a13.2,13.2,0,0,0,7.57-2.78,14.58,14.58,0,0,0,2.76-2.95,14,14,0,0,0,1.73-3.62c.8-2.6.49-5.33.58-8,0-5.37,0-10.67.07-15.91.18-41.92.35-79.66.5-111.36s.27-57.29.36-75.11c-.09-4.39.51-8.46-.92-11.64a13.38,13.38,0,0,0-5.5-6.41,12.78,12.78,0,0,0-5-1.77c-.44-.06-.89-.1-1.33-.13Z" fill="#bcbec0"/><rect x="263.75" y="202.02" width="74.79" height="51.93" fill="#686175" data-primary="true"/><path d="M188.38,86H163a6.32,6.32,0,0,0-6.18,6.44V97a6.28,6.28,0,0,1-6.15,6.43h-49.5A6.29,6.29,0,0,1,95,97h0V92.41A6.32,6.32,0,0,0,88.83,86H57.68a20,20,0,0,0-20,19.9l-.07,320.42a20,20,0,0,0,20,20l130.7.09a20.05,20.05,0,0,0,20-20l.08-320.44A20.06,20.06,0,0,0,188.38,86Z" fill="#fff"/><path d="M188.38,86h.67a13.77,13.77,0,0,1,2,.15,18.79,18.79,0,0,1,7.49,2.58,19.38,19.38,0,0,1,4.56,3.7,19.73,19.73,0,0,1,3.81,6,20.79,20.79,0,0,1,1.43,8.11v9.42c0,26.61,0,65.12.07,112.71s0,104.26,0,167.17v29.93a21.28,21.28,0,0,1-.77,6.1,19.75,19.75,0,0,1-2.55,5.63,21.78,21.78,0,0,1-4.15,4.63,20.28,20.28,0,0,1-11.55,4.47c-4.18.13-8.35,0-12.56,0H59.1a21.11,21.11,0,0,1-13-3.6A20.35,20.35,0,0,1,38.18,432a22.09,22.09,0,0,1-.84-6.76V106.17a19.67,19.67,0,0,1,.1-2.43,18.19,18.19,0,0,1,.42-2.38,20.52,20.52,0,0,1,4.2-8.47,20.27,20.27,0,0,1,16.29-7.16H88.24a6.49,6.49,0,0,1,3.94,1.11A6.69,6.69,0,0,1,94.63,90a11.06,11.06,0,0,1,.4,4v1.94a15.22,15.22,0,0,0,0,1.91,6.35,6.35,0,0,0,1.43,3.34,6.11,6.11,0,0,0,3.05,1.89,6.48,6.48,0,0,0,1.81.18h49.74a5.77,5.77,0,0,0,2.43-.86,6.24,6.24,0,0,0,2.86-4,10.91,10.91,0,0,0,.16-2.42V93.57a14.1,14.1,0,0,1,.1-2.34,6.7,6.7,0,0,1,.76-2.13,6.29,6.29,0,0,1,3.2-2.86,9.84,9.84,0,0,1,4-.43h0a9.77,9.77,0,0,0-3.91.43A6.08,6.08,0,0,0,157.54,89a6.75,6.75,0,0,0-.73,2.09,16,16,0,0,0-.1,2.29V96a12,12,0,0,1-.15,2.47,6.56,6.56,0,0,1-2.87,4.18,6.24,6.24,0,0,1-2.55.9c-.91.09-1.82,0-2.73,0H101.58a7,7,0,0,1-1.88-.19,6.28,6.28,0,0,1-3.24-2,6.77,6.77,0,0,1-1.57-3.52,15.86,15.86,0,0,1,0-1.95V94a10.74,10.74,0,0,0-.4-3.82,6.22,6.22,0,0,0-2.31-3,6,6,0,0,0-3.74-1H58.5a19.79,19.79,0,0,0-16,7.16,20,20,0,0,0-4.11,8.3c-.2.76-.26,1.54-.4,2.32a12.65,12.65,0,0,0-.1,2.39v319a21.31,21.31,0,0,0,.81,6.6,19.94,19.94,0,0,0,7.69,10.64A20.67,20.67,0,0,0,59.11,446H177c4.2,0,8.41.07,12.53,0a19.7,19.7,0,0,0,11.23-4.3,20.66,20.66,0,0,0,4-4.5,19.31,19.31,0,0,0,2.48-5.47,21,21,0,0,0,.76-6V395.83c0-62.91,0-119.58.1-167.17s.08-86.1.11-112.71v-9.42a20.53,20.53,0,0,0-1.43-8A20,20,0,0,0,203,92.55a19.28,19.28,0,0,0-4.51-3.69,18.73,18.73,0,0,0-7.45-2.62,12.44,12.44,0,0,0-2-.19Z" fill="#bcbec0"/><rect x="88.87" y="162.26" width="70.59" height="93.92" transform="translate(-85.75 332.21) rotate(-89.68)" fill="#686175" data-primary="true"/><polygon points="77.01 244.24 110.06 200.53 130.22 228.1 144.09 213.51 170.94 244.76 77.01 244.24" opacity="0.2"/><path d="M206.62,314.47c0,.21-37.55.38-83.86.38s-83.88-.17-83.88-.38,37.55-.37,83.88-.37S206.62,314.26,206.62,314.47Z" fill="#e0e0e0"/><circle cx="301.14" cy="227.89" r="10.86" fill="#fff"/><polygon points="298.47 227.89 298.47 223 302.7 225.44 306.94 227.89 302.7 230.34 298.47 232.77 298.47 227.89" fill="#686175" data-primary="true"/><rect x="272.01" y="67.88" width="55.72" height="74.14" transform="translate(193.25 404.23) rotate(-89.68)" fill="#bcbec0"/><polygon points="262.8 132.59 288.89 98.11 304.81 119.86 315.76 108.33 336.95 133.01 262.8 132.59" fill="#d1d3d4"/><path d="M310.67,94a5.85,5.85,0,1,1-5.82-5.87A5.86,5.86,0,0,1,310.67,94Z" fill="#d1d3d4"/><rect x="271" y="143.65" width="57.4" height="3.84" fill="#bcbec0"/><path d="M258.34,144.42a2.27,2.27,0,1,1-2.27-2.26h0A2.27,2.27,0,0,1,258.34,144.42Z" fill="#686175" data-primary="true"/><path d="M303.34,261a2.21,2.21,0,1,1-2.47-1.91l.27,0A2.08,2.08,0,0,1,303.34,261Z" fill="#686175" data-primary="true"/><path d="M303.34,312.08a2.21,2.21,0,1,1-2.45-1.93h.25A2.09,2.09,0,0,1,303.34,312.08Z" fill="#686175" data-primary="true"/><path d="M444.66,589.27l3,24.3s8.28,14,22.46,4.2l-3.16-22Z" fill="#fed0bc"/><path d="M407,633.77,470.82,635l.35-18.38a1.62,1.62,0,0,0-1.34-1.64,4.62,4.62,0,0,0-4.21,1.11,4.56,4.56,0,0,1-3.9,1.52c-2-.29-4.41-1.43-5.61-5.05,0,0-3.76-9.12-10.24-1.56l-16.72,14.67a10.41,10.41,0,0,1-8.59,2.48C416.36,627.44,410.2,627.64,407,633.77Z" fill="#f48225" data-secondary="true"/><path d="M407,633.77,470.82,635l.35-18.38a1.62,1.62,0,0,0-1.34-1.64,4.62,4.62,0,0,0-4.21,1.11,4.56,4.56,0,0,1-3.9,1.52c-2-.29-4.41-1.43-5.61-5.05,0,0-3.76-9.12-10.24-1.56l-16.72,14.67a10.41,10.41,0,0,1-8.59,2.48C416.36,627.44,410.2,627.64,407,633.77Z" opacity="0.2"/><rect x="404.57" y="634.38" width="69.65" height="6.56" rx="2.6" transform="translate(12.38 -8.36) rotate(1.11)" fill="#373660"/><rect x="404.57" y="634.38" width="69.65" height="6.56" rx="2.6" transform="translate(12.38 -8.36) rotate(1.11)" opacity="0.2"/><path d="M635.49,162.07a17.31,17.31,0,0,0-.36,2.23,24.86,24.86,0,0,0,20.71,27.09c5.1.87,11.18.82,15.36-2.79V170.31Z" fill="#bcbec0"/><rect x="519.82" y="494.7" width="8.89" height="154.48" transform="translate(190.82 -128.62) rotate(17.06)" fill="#f48225" data-secondary="true"/><rect x="565.07" y="498.55" width="7.93" height="148.25" fill="#f48225" data-secondary="true"/><rect x="633.45" y="498.55" width="7.93" height="148.25" transform="translate(-94.46 127.01) rotate(-10.6)" fill="#f48225" data-secondary="true"/><g opacity="0.4"><rect x="519.82" y="494.7" width="8.89" height="154.48" transform="translate(190.82 -128.62) rotate(17.06)"/><rect x="633.45" y="498.55" width="7.93" height="148.25" transform="translate(-94.46 127.01) rotate(-10.6)"/></g><rect x="496.54" y="522.58" width="242.01" height="8" transform="translate(23.99 1080.06) rotate(-83.45)" fill="#f48225" data-secondary="true"/><g opacity="0.4"><rect x="496.54" y="522.58" width="242.01" height="8" transform="translate(23.99 1080.06) rotate(-83.45)"/></g><polygon points="185.55 647.7 177.75 645.9 232.98 405.47 241.22 405.33 185.55 647.7" fill="#f48225" data-secondary="true"/><polygon points="403.99 647.13 383.83 405.33 391.92 406.03 411.96 646.47 403.99 647.13" fill="#f48225" data-secondary="true"/><g opacity="0.4"><polygon points="185.55 647.7 177.75 645.9 232.98 405.47 241.22 405.33 185.55 647.7"/><polygon points="403.99 647.13 383.83 405.33 391.92 406.03 411.96 646.47 403.99 647.13"/></g><rect x="439.39" y="477.42" width="210.62" height="27.41" fill="#f48225" data-secondary="true"/><path d="M617.55,341s50.44,8.65,59.29,12.67c0,0-11,29-29.64,24.95l-24.07-5.94Z" fill="#f48225" data-secondary="true"/><path d="M617.55,341s50.44,8.65,59.29,12.67c0,0-11,29-29.64,24.95l-24.07-5.94Z" opacity="0.2"/><rect x="571.04" y="425.16" width="105.64" height="4" transform="translate(25.74 889.66) rotate(-72.11)" fill="#f48225" data-secondary="true"/><path d="M529.83,285.3s-46.11,5.63-70.86,52.1l16.3,84.5s12.07,6.64,13.27,9.05l115.28,33.2s19.31-40.44,19.31-63.38c0,0-11-108.22-56.13-119.49Z" fill="#686175" data-primary="true"/><path d="M637,400.77s12.68-87.51-70-119.49c0,0,21.77,51.6,16.9,91.43C583.9,372.71,626.45,368.49,637,400.77Z" fill="#686175" data-primary="true"/><path d="M561.44,384.59s49.83,63.53,67.9,40a16.1,16.1,0,0,0,2.59-5.19c1.57-5.16,3.74-17-4.77-28,0,0-9.35-12.79-58.49-19.92" fill="#fed0bc"/><path d="M481.06,619.27l7.07-24.21,22.08,3.21-7.08,23.09S490.22,627.87,481.06,619.27Z" fill="#fed0bc"/><path d="M302.37,229.53l10.88,130.63a3.51,3.51,0,0,0,3.48,3.2H487.06a3.5,3.5,0,0,0,3.48-3.78L479.76,229a3.5,3.5,0,0,0-3.48-3.21H305.85A3.5,3.5,0,0,0,302.37,229.53Z" fill="#d1d3d4"/><path d="M373.87,309H412.5L401,383.88a11.61,11.61,0,0,0,8.45,12.67H373.87s-12.07-1.81-8.45-19.31Z" fill="#bcbec0"/><path d="M589.87,137.8H533a13.87,13.87,0,0,0-13.87,13.88v19A13.87,13.87,0,0,0,533,184.54h35.4l3.9,6.49a4.24,4.24,0,0,0,6.88.56l6-7.05h4.76a13.87,13.87,0,0,0,13.87-13.88v-19A13.87,13.87,0,0,0,589.87,137.8Z" fill="#686175" data-primary="true"/><path d="M732.86,373.56l-1.06-1.7c29.55-18.52,36.55-88.31,36.77-90.62-1.51-77-42.44-115-76.51-133.28-37-19.89-74.18-21.56-74.55-21.57l.08-2c.37,0,37.94,1.69,75.35,21.78,22,11.81,39.66,27.58,52.48,46.88,16,24.1,24.49,53.78,25.16,88.21v.11C770.3,284.34,763.6,354.3,732.86,373.56Z" fill="#d1d3d4"/><path d="M631.32,158.11s28.87,28.46,46.35,32.93c0,0,21.55-15.45,5.69-41.06l8.54-15-10.17-5.69-8.53,12.6S650.43,127.22,631.32,158.11Z" fill="#d1d3d4"/><circle cx="682.01" cy="139.95" r="4.49" fill="#bcbec0"/><path d="M669.07,396.55l67.74-27.16s12.93,23.68,36.65,27.16Z" fill="#bcbec0"/><path d="M529.83,275.66v9.64s5.39,10.06,20.27,3.22l16.9-7.24-2.58-32.19-2.25-8.85L550.91,242Z" fill="#fed0bc"/><path d="M529.83,280.42v-7.86l26.37-18.92S556.09,281.84,529.83,280.42Z" fill="#f4a57f"/><ellipse cx="535.09" cy="242.01" rx="22.41" ry="34.62" fill="#fed0bc"/><path d="M516.82,200.9s-11.25-.43-9.08,6.49c0,0,10.2,26,38.22,7.57a2.46,2.46,0,0,1,3.41.67,49.46,49.46,0,0,1,7.09,15.94l5,14,3,3.53s12.35-31.44-2.76-38.21a4.82,4.82,0,0,1-2.6-3.08c-.7-2.37-3.43-5.65-13.38-4.71a4.59,4.59,0,0,1-2.39-.43C537.86,200.14,515.51,190.37,516.82,200.9Z"/><ellipse cx="559.23" cy="238.33" rx="5.19" ry="8.01" fill="#fed0bc"/><path d="M583.77,371.29c-.36-3.78-.45-6.11-.64-9.87s-.33-7.52-.49-11.27c-.07-1.88-.14-3.75-.23-5.63s-.19-3.74-.26-5.61-.21-3.75-.41-5.61a35.16,35.16,0,0,0-.86-5.55,22.78,22.78,0,0,1,1.83,5.4c.43,1.85.73,3.73,1,5.61.52,3.76.75,7.54.93,11.31s.17,7.56,0,11.33A91.79,91.79,0,0,1,583.77,371.29Z" opacity="0.2"/><path d="M583.77,374.05s43-7.37,53.24,26.72c0,0,4.1,12.38-4,14.19C633,415,642,387.46,583.77,374.05Z" fill="#686175" data-primary="true"/><path d="M583.77,374.05s43-7.37,53.24,26.72c0,0,4.1,12.38-4,14.19C633,415,642,387.46,583.77,374.05Z" opacity="0.2"/><path d="M436,598.73s23.53,6.64,31.38,0L449.31,479.84H482l8.82-48.22-15.58-9.72S376.89,396,389,455.09C389,455.09,400.43,534.76,436,598.73Z" fill="#373660"/><path d="M436,598.73s23.53,6.64,31.38,0L449.31,479.84H482l8.82-48.22-15.58-9.72S376.89,396,389,455.09C389,455.09,400.43,534.76,436,598.73Z" opacity="0.2"/><path d="M479.49,601.15s17.5,11.46,32,0c0,0,30.78-99.59,32.59-123.73,0,0,44.56,7.21,57.58-9.59a10.34,10.34,0,0,0,2-7.43c-1.13-10.95-10-42.12-73.85-42.12,0,0-47.92-3.62-47.32,38.62Z" fill="#373660"/><circle cx="538.48" cy="162.07" r="6.87" fill="#fff"/><circle cx="560.94" cy="162.07" r="6.87" fill="#f48225" data-secondary="true"/><circle cx="584.36" cy="162.07" r="6.87" fill="#fff"/><path d="M440,639.34l63.83,1.23.36-18.38a1.63,1.63,0,0,0-1.34-1.64,4.65,4.65,0,0,0-4.22,1.11,4.55,4.55,0,0,1-3.89,1.52c-2-.28-4.41-1.42-5.61-5,0,0-3.77-9.12-10.24-1.56l-16.72,14.67a10.42,10.42,0,0,1-8.59,2.49C449.34,633,443.17,633.21,440,639.34Z" fill="#f48225" data-secondary="true"/><rect x="437.55" y="639.95" width="69.65" height="6.56" rx="2.6" transform="translate(12.49 -8.99) rotate(1.11)" fill="#373660"/><line x1="103.87" y1="345.08" x2="185.71" y2="345.08" fill="none" stroke="#bcbec0" stroke-miterlimit="10"/><line x1="180.24" y1="120.67" x2="189.78" y2="120.67" fill="none" stroke="#bcbec0" stroke-miterlimit="10"/><line x1="180.36" y1="124.28" x2="189.9" y2="124.28" fill="none" stroke="#bcbec0" stroke-miterlimit="10"/><line x1="180.36" y1="127.88" x2="189.9" y2="127.88" fill="none" stroke="#bcbec0" stroke-miterlimit="10"/><line x1="103.87" y1="353.52" x2="185.71" y2="353.52" fill="none" stroke="#bcbec0" stroke-miterlimit="10"/><line x1="258.78" y1="159.57" x2="340.62" y2="159.57" fill="none" stroke="#bcbec0" stroke-miterlimit="10"/><line x1="254.51" y1="63.11" x2="344.89" y2="63.11" fill="none" stroke="#bcbec0" stroke-miterlimit="10"/><line x1="258.78" y1="168" x2="340.62" y2="168" fill="none" stroke="#bcbec0" stroke-miterlimit="10"/><line x1="258.78" y1="176.54" x2="340.62" y2="176.54" fill="none" stroke="#bcbec0" stroke-miterlimit="10"/><line x1="258.78" y1="185.01" x2="340.62" y2="185.01" fill="none" stroke="#bcbec0" stroke-miterlimit="10"/><line x1="257.99" y1="406.01" x2="339.83" y2="406.01" fill="none" stroke="#bcbec0" stroke-miterlimit="10"/><line x1="257.99" y1="414.54" x2="339.83" y2="414.54" fill="none" stroke="#bcbec0" stroke-miterlimit="10"/><line x1="257.99" y1="423.02" x2="339.83" y2="423.02" fill="none" stroke="#bcbec0" stroke-miterlimit="10"/><line x1="48.98" y1="257.06" x2="183.87" y2="257.06" fill="none" stroke="#bcbec0" stroke-miterlimit="10"/><line x1="48.98" y1="265.5" x2="183.87" y2="265.5" fill="none" stroke="#bcbec0" stroke-miterlimit="10"/><rect x="103.87" y="389.63" width="45.56" height="1" fill="#686175" data-primary="true"/><line x1="103.87" y1="394.97" x2="185.71" y2="394.97" fill="none" stroke="#bcbec0" stroke-miterlimit="10"/><line x1="103.87" y1="403.41" x2="185.71" y2="403.41" fill="none" stroke="#bcbec0" stroke-miterlimit="10"/><line x1="103.87" y1="409.93" x2="153.7" y2="409.93" fill="none" stroke="#bcbec0" stroke-miterlimit="10"/><polygon points="222.04 294.21 162.17 294.21 162.17 293.21 221.04 293.21 221.04 143.92 253.81 143.92 253.81 144.92 222.04 144.92 222.04 294.21" fill="#686175" data-primary="true"/><rect x="300.64" y="261.28" width="1" height="51.06" fill="#686175" data-primary="true"/><path d="M537.18,241.51c0,1.5-.81,2.7-1.8,2.7s-1.75-1.24-1.73-2.75.81-2.67,1.8-2.67S537.2,240,537.18,241.51Z"/><path d="M520.28,241.35c0,1.48-.81,2.68-1.8,2.68s-1.75-1.24-1.73-2.72.81-2.7,1.8-2.7S520.3,239.85,520.28,241.35Z"/><path d="M525,260.47c.81,0,1.71,0,2.66,0s1.88-.17,2.78-.29c2.53-.33,4.91-.64,5.89,1.17a4.36,4.36,0,0,1-.23,3.46,7.49,7.49,0,0,1-5.06,4.28,10.81,10.81,0,0,1-2.46.37,8.51,8.51,0,0,1-6.55-2.73,5.64,5.64,0,0,1-1.71-4.23,2.08,2.08,0,0,1,1.64-1.84A11.74,11.74,0,0,1,525,260.47Z" fill="#f4a57f"/><path d="M527.69,261.21c3.58-.2,6.95-1.37,7.95.48.73,1.32-.66,6.77-7.1,7-4.5.15-7.77-3.56-7.47-6.13C521.28,260.62,524.1,261.41,527.69,261.21Z"/><path d="M535.64,261.69a1.4,1.4,0,0,1,.14.5c-4.92,3.44-11.81,3.22-13.46-.86,1.19-.25,3.13,0,5.37-.12C531.27,261,534.64,259.84,535.64,261.69Z" fill="#fff"/><path d="M519.45,254.87l0,0-.24-.23.23-.23c3.71-3.56,6.61-12.78,6.64-12.88l.59.19c-.12.37-2.85,9.08-6.55,12.9a6.83,6.83,0,0,0,3.64,1.58l0,.62A7.63,7.63,0,0,1,519.45,254.87Z" fill="#f4a57f"/><path d="M512.7,233.58a10,10,0,0,1,4.17-4.21c1.28-.66,2.61-1,3.19,0,0,0,1.13,1-7.53,4.58Z"/><path d="M543.34,234.15a9.89,9.89,0,0,0-4.42-3.94c-1.32-.59-2.66-.84-3.18.14,0,0-1.07,1,7.79,4.13Z"/><path d="M566.41,372.28c2.5,0-5.67-5-11.44-6.82-7.08-2.2-24.61-7.53-14.63,1.4C545.12,369,565.06,372.29,566.41,372.28Z" fill="#f4a57f"/><path d="M552,366.62c-7.19-1.28-17.72-2.91-23.23,1-3.19,2.37-9,9.28-.72,7.22,5.34-7,14-4,21.89-.82C552,373.38,552,366.62,552,366.62Z" fill="#fed0bc"/><path d="M551.91,368.12c-.11,2-.52,5.47-2,5.94-7.85-3.21-16.55-6.2-21.89.83-3.72.83-5.85.11-3.39-2.66C531.74,365,542.63,368.05,551.91,368.12Z" fill="#f4a57f"/><path d="M548.9,369a45.47,45.47,0,0,0-20.1.8c-3.34.72-12.15,14.23-3.38,9.75,4.65-7.23,14.39-5,22.39-3.75C549.81,374.8,548.9,369,548.9,369Z" fill="#fed0bc"/><path d="M549.09,372.15c0,1.53-.31,3.16-1.28,3.62-8-1.26-17.75-3.47-22.39,3.75a2.44,2.44,0,0,1-2.53.94C528.15,371.62,538.78,370.37,549.09,372.15Z" fill="#f4a57f"/><path d="M549.78,372.76a67.75,67.75,0,0,0-18.18,1c-3.62,1.09-12.53,10.4-3.84,8.16,5.12-5.67,13.47-3.47,21-2.47C550.71,378.51,549.78,372.76,549.78,372.76Z" fill="#fed0bc"/><path d="M549.94,377a3.11,3.11,0,0,1-1.18,2.52c-6.79-1.07-10.44-1.78-16.6-.55C537.67,375.19,544.09,376.77,549.94,377Z" fill="#f4a57f"/><path d="M549.8,377.52a2.61,2.61,0,0,1-1,2.1c-5.67-.88-8.72-1.5-13.85-.46C539.55,376.05,544.91,377.36,549.8,377.52Z" fill="#f69a6f"/><path d="M549.25,378c-22.08-6.25-29.27,17.73-14.75,5.65,5.16-.84,7.14-1.25,12.59-.22C549,382.59,549.25,378,549.25,378Z" fill="#fed0bc"/><path d="M570.1,372c-1.86-.87-14.27-5.15-21.12-6-1.21,2.22-4,15.51-1.89,17.34,10.58,1,19,1.61,19.83,1.25C575.16,380.17,572,373.8,570.1,372Z" fill="#fed0bc"/><path d="M448.81,380.79c-2.5,0,5.67-5,11.44-6.83,7.08-2.2,24.61-7.52,14.63,1.41C470.1,377.52,450.16,380.8,448.81,380.79Z" fill="#f4a57f"/><path d="M463.26,375.12c7.19-1.27,17.72-2.91,23.23,1.05,3.19,2.36,9,9.28.72,7.22-5.34-7-14-4-21.89-.83C463.19,381.89,463.26,375.12,463.26,375.12Z" fill="#fed0bc"/><path d="M463.31,376.63c.12,2,.52,5.46,2,5.93,7.85-3.21,16.56-6.2,21.89.83,3.72.83,5.85.11,3.39-2.66C483.48,373.49,472.59,376.56,463.31,376.63Z" fill="#f4a57f"/><path d="M466.33,377.47a45.42,45.42,0,0,1,20.09.8c3.35.73,12.15,14.23,3.38,9.76-4.65-7.23-14.39-5-22.39-3.76C465.41,383.3,466.33,377.47,466.33,377.47Z" fill="#fed0bc"/><path d="M466.13,380.65c0,1.54.31,3.16,1.28,3.62,8-1.26,17.76-3.47,22.39,3.76a2.44,2.44,0,0,0,2.53.93C487.07,380.13,476.44,378.88,466.13,380.65Z" fill="#f4a57f"/><path d="M465.44,381.27a67.75,67.75,0,0,1,18.18,1c3.63,1.1,12.53,10.41,3.84,8.17-5.11-5.67-13.46-3.47-21-2.47C464.51,387,465.44,381.27,465.44,381.27Z" fill="#fed0bc"/><path d="M465.28,385.47a3.11,3.11,0,0,0,1.18,2.52c6.8-1.07,10.44-1.78,16.6-.55C477.55,383.7,471.14,385.28,465.28,385.47Z" fill="#f4a57f"/><path d="M465.43,386a2.54,2.54,0,0,0,1,2.09c5.67-.88,8.72-1.5,13.85-.46C475.67,384.55,470.31,385.86,465.43,386Z" fill="#f69a6f"/><path d="M466,386.46c22.08-6.24,29.26,17.73,14.74,5.66-5.16-.85-7.14-1.25-12.59-.22C466.21,391.1,466,386.46,466,386.46Z" fill="#fed0bc"/><path d="M445.13,380.53c1.85-.86,14.26-5.15,21.11-6,1.21,2.21,4,15.51,1.89,17.34-10.57,1-19,1.61-19.83,1.25C440.06,388.67,443.25,382.3,445.13,380.53Z" fill="#fed0bc"/><rect x="425.17" y="391.12" width="128.86" height="5.43" fill="#bcbec0"/><rect x="181.65" y="396.55" width="636.42" height="9.82" fill="#f48225" data-secondary="true"/><rect x="61.76" y="331.39" width="30.49" height="30.49" fill="#686175" data-primary="true"/><rect x="61.76" y="381.03" width="30.49" height="30.49" fill="#686175" data-primary="true"/><rect x="103.87" y="339.03" width="45.56" height="1" fill="#686175" data-primary="true"/><path d="M102.17,519.11c6.15-3.17,13.4-3.58,20.23-2.45,3.67.6,7.52,1.7,10,4.51s3,7.61.1,10a9.63,9.63,0,0,1-6.3,1.6c-5.35,0-11.28-1-15.55,2.21-2.45,1.83-4.06,4.89-7,5.79a6.87,6.87,0,0,1-7.52-3.37,11.72,11.72,0,0,1-.86-8.69A13.27,13.27,0,0,1,102.17,519.11Z" fill="#f48225" data-secondary="true"/><path d="M88.08,491.91c3.76,5.36,11.07,3.59,14.47.31s4.81-8,6.12-12.57c3-10.36,6-21.22,3.77-31.77a17.66,17.66,0,0,0-4.06-8.63,9.18,9.18,0,0,0-8.73-2.91c-3.69,1-6,4.52-7.64,8a75.73,75.73,0,0,0-7.52,32.49c0,5.24.58,10.73,3.55,15" fill="#f48225" data-secondary="true"/><path d="M77.75,499.61c4.08-4.85,4.86-11.91,3-18.05A34.75,34.75,0,0,0,70.11,466.1a57.43,57.43,0,0,0-19-11.26,20.52,20.52,0,0,0-8.59-1.5,9,9,0,0,0-7.2,4.36c-2,3.83-.09,8.48,2,12.27A145.18,145.18,0,0,0,49.8,489.05c3.76,4.84,8.06,9.62,13.79,11.8s11.66,1.94,14.7-2" fill="#f48225" data-secondary="true"/><path d="M87.83,573a12,12,0,0,0,.34-2.45q.26-2.67.65-6.67a97.64,97.64,0,0,1,1.5-9.77,75,75,0,0,1,3.57-11.53,42,42,0,0,1,5.88-10.44,22.05,22.05,0,0,1,7.51-6.19,21,21,0,0,1,6.27-2,10.56,10.56,0,0,0,2.43-.35,11.33,11.33,0,0,0-2.47,0,19,19,0,0,0-6.54,1.7,22,22,0,0,0-8,6.23,42.1,42.1,0,0,0-6,10.63,70.67,70.67,0,0,0-3.52,11.73,84.45,84.45,0,0,0-1.31,9.89c-.21,2.83-.28,5.12-.31,6.71A10.21,10.21,0,0,0,87.83,573Z" fill="#373660"/><path d="M88.28,567.83a4.38,4.38,0,0,0,.07-1.14v-3.24c0-2.81,0-6.88.15-11.91.24-10,1.12-20.85,2.78-36.09,1.51-14.33,3.72-31,6-41.86.48-2.47,1-4.69,1.41-6.63s.81-3.62,1.16-5,.57-2.32.77-3.15a4.69,4.69,0,0,0,.19-1.12,6.74,6.74,0,0,0-.39,1.06c-.25.82-.55,1.85-1,3.12s-.84,3-1.32,4.94-1,4.15-1.5,6.62a372.07,372.07,0,0,0-6.26,38.84c-1.67,15.28-2.42,29.19-2.49,39.26,0,5,0,9.12.18,11.94.09,1.31.15,2.38.19,3.24A5.88,5.88,0,0,0,88.28,567.83Z" fill="#373660"/><path d="M88.35,541a19.19,19.19,0,0,0,0-3.39,90.83,90.83,0,0,0-1-9.15,119.56,119.56,0,0,0-3-13.37,110.71,110.71,0,0,0-5.58-15.81,84.49,84.49,0,0,0-16.41-25.56,42.17,42.17,0,0,0-3.86-3.58c-.59-.49-1.11-1-1.66-1.4l-1.5-1a21.35,21.35,0,0,0-2.86-1.83,97.12,97.12,0,0,1,9.34,8.33,88.32,88.32,0,0,1,16,25.46,123.58,123.58,0,0,1,5.62,15.65,126.22,126.22,0,0,1,3.18,13.23c.73,3.81,1.1,6.92,1.34,9A20.77,20.77,0,0,0,88.35,541Z" fill="#373660"/><polygon points="62.41 588.33 65.11 625.15 112.43 625.15 115.12 588.33 62.41 588.33" fill="#373660"/><rect x="57.84" y="573.8" width="62.92" height="14.51" fill="#373660"/><polygon points="57.86 623.74 57.86 627.77 60.8 627.77 119.72 627.77 119.72 623.74 57.86 623.74" fill="#373660"/><polygon points="63.71 634.85 60.8 627.77 117.46 627.77 114.08 634.85 63.71 634.85" fill="#373660"/><path d="M114.23,600.35s0,.14-.22.35a10.89,10.89,0,0,0-.71.93l-2.75,3.58-.12.15-.12-.16-6.82-9.42h.4l-6.64,9.43-.21.3-.22-.28-7.91-9.4h.45l-.44.56-7.06,8.82-.23.3-.23-.31-6.66-9.43h.38l-8.21,9.44-.15.17-.11-.17c-1.08-1.82-2-3.26-2.57-4.31l-.66-1.16a1.42,1.42,0,0,1-.2-.41,1.93,1.93,0,0,1,.28.36l.72,1.12,2.7,4.24h-.25l8.07-9.48.21-.22.18.25L81.87,605h-.45l7-9,.43-.54.23-.29.22.29,7.88,9.41h-.43l6.7-9.37.2-.27.2.27,6.63,9.48h-.24l2.85-3.45c.32-.34.57-.64.77-.88Z" fill="#fff"/><path d="M118.16,628.16c0,.16-12.89.3-28.77.3s-28.78-.14-28.78-.3,12.89-.29,28.78-.29S118.16,628,118.16,628.16Z" fill="#fff"/></svg>