<svg id="ada37ae9-0b4a-47f2-baea-278bc46d5d56" data-name="Layer 1" xmlns="http://www.w3.org/2000/svg" xmlns:xlink="http://www.w3.org/1999/xlink" width="865.76" height="682.89" viewBox="0 0 865.76 682.89"><defs><clipPath id="ebef2702-eeda-4aeb-81df-38d30ab7f6cc"><rect id="e08f1d9c-6e14-4464-89a0-d82a342d6133" data-name="SVGID" width="865.76" height="682.89" fill="none"/></clipPath></defs><g clip-path="url(#ebef2702-eeda-4aeb-81df-38d30ab7f6cc)"><rect x="745.57" y="-0.2" width="243.19" height="297.12" fill="#ccc"/><rect x="745.57" y="-0.2" width="243.14" height="27.36" fill="#231f20" opacity="0.2"/><rect x="759.93" y="44.35" width="84.1" height="77.33" fill="#fff"/><rect x="745.55" y="146.84" width="243.25" height="12.05" fill="#fff" opacity="0.2"/><rect x="760.85" y="195.04" width="87.35" height="101.98" fill="#231f20" opacity="0.2"/><rect x="-184.03" y="413.34" width="1172.62" height="270.65" fill="#58595b"/><polygon points="755.59 448.67 531.65 448.67 543.7 415.19 743.54 415.19 755.59 448.67" fill="#fff"/><polygon points="771.99 491.18 515.25 491.18 529.06 459.04 758.18 459.04 771.99 491.18" fill="#fff"/><polygon points="785.16 532.69 501.08 532.69 512.55 500.55 774.47 500.55 785.16 532.69" fill="#fff"/><polygon points="802.23 577.99 485.46 577.99 498.25 543.85 790.31 543.85 802.23 577.99" fill="#fff"/><polygon points="818.52 624.85 468.05 624.85 482.2 588.92 805.33 588.92 818.52 624.85" fill="#fff"/><polygon points="839.95 683.32 447.63 683.32 464.97 636.46 822.67 636.46 839.95 683.32" fill="#fff"/><rect x="-184.03" y="390.42" width="1172.78" height="23.1" fill="#ccc"/><rect x="-184.03" y="296.92" width="1172.78" height="93.31" fill="#ccc"/><rect x="-184.03" y="296.92" width="1172.78" height="93.31" fill="#fff" opacity="0.2"/><rect x="766.37" y="50.15" width="20.5" height="19.33" fill="#ccc"/><rect x="791.63" y="50.15" width="20.5" height="19.33" fill="#ccc"/><rect x="816.3" y="50.15" width="20.5" height="19.33" fill="#ccc"/><rect x="766.37" y="73.27" width="20.5" height="19.33" fill="#ccc"/><rect x="791.63" y="73.27" width="20.5" height="19.33" fill="#ccc"/><rect x="816.3" y="73.27" width="20.5" height="19.33" fill="#ccc"/><rect x="766.37" y="96.77" width="20.5" height="19.33" fill="#ccc"/><rect x="791.63" y="96.77" width="20.5" height="19.33" fill="#ccc"/><rect x="816.3" y="96.77" width="20.5" height="19.33" fill="#ccc"/><rect x="539.04" y="-0.89" width="206.53" height="297.81" fill="#ccc"/><rect x="539.04" y="-0.89" width="206.53" height="297.81" fill="#231f20" opacity="0.1"/><rect x="561.44" y="-1.1" width="20.75" height="33.01" fill="#fff"/><rect x="589.1" y="-1.1" width="20.75" height="33.01" fill="#fff"/><rect x="616.92" y="-1.1" width="20.75" height="33.01" fill="#fff"/><rect x="644.73" y="-1.1" width="20.75" height="33.01" fill="#fff"/><rect x="671.93" y="-1.1" width="20.75" height="33.01" fill="#fff"/><rect x="700.68" y="-0.79" width="20.75" height="33.01" fill="#fff"/><rect x="561.44" y="44.22" width="20.75" height="35.03" fill="#fff"/><rect x="589.1" y="44.22" width="20.75" height="35.03" fill="#fff"/><rect x="616.92" y="44.22" width="20.75" height="35.03" fill="#fff"/><rect x="644.73" y="44.22" width="20.75" height="35.03" fill="#fff"/><rect x="671.93" y="44.22" width="20.75" height="35.03" fill="#fff"/><rect x="700.68" y="44.54" width="20.75" height="35.03" fill="#fff"/><rect x="561.44" y="92.74" width="20.75" height="35.03" fill="#fff"/><rect x="589.1" y="92.74" width="20.75" height="35.03" fill="#fff"/><rect x="616.92" y="92.74" width="20.75" height="35.03" fill="#fff"/><rect x="644.73" y="92.74" width="20.75" height="35.03" fill="#fff"/><rect x="671.93" y="92.74" width="20.75" height="35.03" fill="#fff"/><rect x="700.68" y="93.07" width="20.75" height="35.03" fill="#fff"/><rect x="561.44" y="139.74" width="20.75" height="35.03" fill="#fff"/><rect x="589.1" y="139.74" width="20.75" height="35.03" fill="#fff"/><rect x="616.92" y="139.74" width="20.75" height="35.03" fill="#fff"/><rect x="644.73" y="139.74" width="20.75" height="35.03" fill="#fff"/><rect x="671.93" y="139.74" width="20.75" height="35.03" fill="#fff"/><rect x="700.68" y="140.07" width="20.75" height="35.03" fill="#fff"/><rect x="539.04" y="188.69" width="206.78" height="12.36" fill="#231f20" opacity="0.2"/><rect x="557.28" y="223.3" width="167.84" height="73.56" fill="#fff" opacity="0.2"/><rect x="-185.03" y="-0.89" width="724.07" height="299.15" fill="#ccc"/><rect x="265.27" y="129.16" width="20.26" height="228.04" fill="#2f2e41"/><rect x="270.5" y="112.44" width="11.11" height="19.6" fill="#2f2e41"/><rect x="-140.7" y="105.9" width="431.26" height="11.11" fill="#2f2e41"/><polygon points="-155.08 94.8 304.27 95.45 290.55 105.9 -140.7 105.9 -155.08 94.8" fill="#2f2e41"/><polygon points="-155.08 94.8 304.27 95.45 290.55 105.9 -140.7 105.9 -155.08 94.8" opacity="0.2"/><rect x="-110.65" y="135.31" width="371.14" height="158.78" fill="#2f2e41"/><rect x="-92.35" y="150.34" width="330.63" height="130.68" fill="#fff" opacity="0.2"/><rect x="26.97" y="326.49" width="7.92" height="30.8" fill="#2f2e41"/><rect x="123.71" y="326.37" width="7.92" height="30.8" fill="#2f2e41"/><rect x="214.76" y="326.71" width="7.92" height="30.8" fill="#2f2e41"/><path d="M391.11,278.92s78.11-14.08,49.5-90.37c0,0-3.18-10,3.63-23.16,0,0,32.24-49.49,1.36-75.83,0,0-43.83-49.61-113.12.26,0,0-25.32,17.13-20.81,48a52.55,52.55,0,0,0,7.7,20.44c6.23,9.88,19.63,33.9,13.11,48.76,0,0-1.63,3.73-5.27,10.78a50,50,0,0,0-5.67,20.54c-.84,17.24,7,42.33,59.48,42.33A60.39,60.39,0,0,0,391.11,278.92Z" fill="#a7a9ac"/><polygon points="378.82 357.46 382.25 237.88 339.62 191.81 381.76 229.06 385.2 119.77 388.14 184.95 439.11 151.13 387.16 193.28 393.04 357.26 378.82 357.46" fill="#bcbec0"/><rect x="-73.23" y="320.46" width="302.94" height="9.04" fill="#2f2e41"/><rect x="-73.23" y="320.46" width="302.94" height="9.04" opacity="0.2"/><polygon points="228.37 321.13 -71.22 321.8 -69.48 311.73 225.87 311.73 228.37 321.13" fill="#2f2e41"/></g><path d="M498.54,402.52l4.29,9.12,9.83-4.42a3.09,3.09,0,0,1,1.5-.25l2.1.2a2.35,2.35,0,0,0,1.2-.2l23.78-10.68s-3.73-5.48-12.65-4a11.09,11.09,0,0,0-3.12,1.07c-2.16,1.13-6.66,3.13-8.19,1.21Z" fill="#686175" data-primary="true"/><path d="M413.28,329.81l44-19.41a9.27,9.27,0,0,1,12.36,5.75L497.87,403l-20.42,9.18-23.19-71.4L409.13,361Z" fill="#2f2e41"/><path d="M411.45,355.75l44-19.55a3,3,0,0,1,4.16,1.89l22,71.92-4.19,2.12-23.19-71.4L409.13,361l.28-4.57Z" opacity="0.25"/><path d="M457.23,310.4l18.3-8.22a11.05,11.05,0,0,1,15.05,6.72l27.27,85.46-20,8.59-28.28-86.8S466.13,307.08,457.23,310.4Z" fill="#2f2e41"/><path d="M473.26,328.22l4.83-1.77a3.53,3.53,0,0,1,4.59,2.29l21.46,71.33L497.87,403Z" opacity="0.25"/><path d="M356.38,336.28s-2.18,14.41,2.73,17.2c0,0,12.84,7.71,37.65,9.21l9.54.3a5.16,5.16,0,0,0,4.84-4.42l1.2-10.36-53.43-12.54Z" fill="#bcbec0"/><path d="M349.4,443.81l-7.86-17.49a2.7,2.7,0,0,1,1.35-3.56l7.89-3.55a30.77,30.77,0,0,0,2,13.36A95.39,95.39,0,0,0,349.4,443.81Z" fill="#f48225" data-secondary="true"/><path d="M349.4,443.81l-7.86-17.49a2.7,2.7,0,0,1,1.35-3.56l7.89-3.55a30.77,30.77,0,0,0,2,13.36A95.39,95.39,0,0,0,349.4,443.81Z" opacity="0.4"/><path d="M340,427.81a.88.88,0,0,0-.45,1.15l8.16,18.52,1.32-.59.37-3.08L341.84,427Z" fill="#f48225" data-secondary="true"/><circle cx="420.75" cy="472.42" r="42.21" fill="#2f2e41"/><circle cx="420.75" cy="472.42" r="31.27" fill="#ccc"/><circle cx="603.27" cy="391.11" r="42.21" fill="#2f2e41"/><circle cx="603.27" cy="391.11" r="31.27" fill="#ccc"/><circle cx="420.75" cy="472.42" r="25.53" fill="#2f2e41"/><polygon points="510.67 289.95 494.61 297.16 492.78 293.1 508.16 286.08 510.67 289.95" fill="#2f2e41"/><ellipse cx="519.05" cy="261.34" rx="3.73" ry="17.21" transform="translate(-61.51 235.63) rotate(-24.19)" fill="#ccc"/><path d="M513.2,247.43l12.67,28.21a3.6,3.6,0,0,1-1.81,4.75l-32.17,14.45a3.24,3.24,0,0,1-4.31-1.69c-3.27-7.79-9.8-29,9.1-41.75l11.66-5.72A3.59,3.59,0,0,1,513.2,247.43Z" fill="#f48225" data-secondary="true"/><path d="M504.9,277.34l8.17-3.67a10.61,10.61,0,0,0,6.16-12.59l6.64,14.56a3.7,3.7,0,0,1-1.81,4.75l-32.17,14.45a3.28,3.28,0,0,1-4.31-1.69s-1-2.39-1.84-5.1l13.32-5.43S505.21,280.75,504.9,277.34Z" opacity="0.25"/><ellipse cx="458.79" cy="293.41" rx="4.92" ry="4.78" transform="translate(-83.9 247.94) rotate(-27.81)" fill="#2f2e41"/><path d="M469.85,296.41l1.34,2.73,10-4.48a4.21,4.21,0,0,0-.64-3.16Z" fill="#f7aa92"/><path d="M413.28,329.81,439,318.1l-4-9.54,4.77-2-18.52,2.48S419.23,320.81,413.28,329.81Z" fill="#686175" data-primary="true"/><path d="M371.71,243.18s-18.06,5-16.12,17.23c0,0-1.53,8.45,6.77,18s30.93,34.26,30.93,34.26L451,305.23s2.71.11,1.82-2.37l-2.1-10.6s-.51-1.88-4.68-.78c0,0-30.82,4.74-43.24,4.77l-15.69-21.58s15.05,20.5,25.37,15.46l13.83-5.77-7.39-27.31,13.5,30.27a3.23,3.23,0,0,0,2.14,1.82c2.69.68,9,1.78,19.34.8l4-3.71a3.61,3.61,0,0,1,1-.65l15.43-6.93a1.61,1.61,0,0,1,1.55.75l5-3.38-36.69-2.31a2.68,2.68,0,0,1-2-1L415.7,237.44a48.48,48.48,0,0,1-3.07-4.82c-1.22-2.13-4.5-5.22-12.71-2.23Z" fill="#686175" data-primary="true"/><path d="M371.71,243.18s-18.06,5-16.12,17.23c0,0-1.53,8.45,6.77,18s30.93,34.26,30.93,34.26L451,305.23s2.71.11,1.82-2.37l-2.1-10.6s-.51-1.88-4.68-.78c0,0-30.82,4.74-43.24,4.77l-15.69-21.58s15.05,20.5,25.37,15.46l13.83-5.77-7.39-27.31,13.5,30.27a3.23,3.23,0,0,0,2.14,1.82c2.69.68,9,1.78,19.34.8l4-3.71a3.61,3.61,0,0,1,1-.65l15.43-6.93a1.61,1.61,0,0,1,1.55.75l5-3.38-36.69-2.31a2.68,2.68,0,0,1-2-1L415.7,237.44a48.48,48.48,0,0,1-3.07-4.82c-1.22-2.13-4.5-5.22-12.71-2.23Z" opacity="0.25"/><path d="M373.44,226.7l2.44,7.8,19.21,7.19L394.32,230l-.69-1.36s-10.57,7-19.05-2.76Z" fill="#f9b499"/><ellipse cx="382.46" cy="201.71" rx="19.37" ry="28.19" transform="translate(-49.07 174.42) rotate(-24.19)" fill="#f9b499"/><path d="M398.27,179.54s-5.55-16.82-25.58-16.92c0,0-23.57-.21-28.88,22a37.05,37.05,0,0,0,4.67,28.23c4.1,6.54,11,13.21,22.1,13.76a4.17,4.17,0,0,0,2.31-6l-6.79-14.76a12.3,12.3,0,0,1-.39-8,10.56,10.56,0,0,1,5.83-6.28Z" fill="#686175" data-primary="true"/><path d="M370.58,226.59a2.71,2.71,0,0,0,2.86.11,4.6,4.6,0,0,0,2.52-5,7.41,7.41,0,0,0-1.1-2.62l-5.73-12.76a9.69,9.69,0,0,1-.73-6,8.12,8.12,0,0,1,4.07-5.5l24.45-11.15s2.39-.85,1.35-4.15l-26.73,12.05s-10,3.68-5.44,14.27l6.79,14.76S375.06,224.53,370.58,226.59Z" fill="#2f2e41"/><path d="M374.58,225.85s6.68,10.24,19.92,2.29l8.65-4.63s2.85-1.62-.59-7.07c0,0-1.62,7.89-8.55,11,0,0-8.66,4.25-18.18-4C375.83,223.46,376,224.47,374.58,225.85Z" fill="#2f2e41"/><polygon points="406.61 245.03 395.09 241.69 394.32 229.97 399.92 230.39 406.61 245.03" fill="#686175" data-primary="true"/><polygon points="392.65 251.52 395.09 241.69 375.88 234.5 371.71 243.18 392.65 251.52" fill="#686175" data-primary="true"/><polygon points="394.02 253.57 395.09 241.69 392.65 251.52 371.71 243.18 394.02 253.57" fill="none" stroke="#686175" stroke-miterlimit="10" stroke-width="0.25"/><path d="M361.63,277.44,373,310.13s1.33,4.06,10.67,6.69a134.59,134.59,0,0,0,23.8,3s4.27.24,4.77,1.35c0,0,4-7.44,4-11.45l-22.94,3Z" fill="#686175" data-primary="true"/><path d="M429.47,293.77,427.41,289l5.66,4.44,14-2.13s2.76-.69,3.59.94l2.16-2.27a68.4,68.4,0,0,1-18.32-.85,3.53,3.53,0,0,1-2.14-1.82l-13.5-30.27,7.39,27.31-13.83,5.77s-8.37,5.26-25.37-15.46l15.69,21.58c3.95-.15,8.16,0,12.35-.79C420.13,295,424.93,294.43,429.47,293.77Z" fill="#686175" data-primary="true"/><path d="M454.28,295.08c-1.76-4.65,5.34-6.39,5.34-6.39l3.32,7.39c-6.36,1.41-3,5.67-3,5.67l7.83-3.3-.37-.83,1.34-.54c3,1.58,4.12-1.77,4.12-1.77,2.69,1.37,4.47-2.09,4.47-2.09l.51.77,2.72-1.23a1.19,1.19,0,0,0,.6-1.57l-5.3-11.79a1.36,1.36,0,0,0-1.55-.75l-15.43,6.93a3.61,3.61,0,0,0-1,.65l-4,3.71-1.22,0-2,2.28-1.75.56s-.84,8.87,3,10.32l1.87-.67s1.68.41,1.66-.75c0,0-1-2.65,3.84-3.54C459.27,298.18,455.44,298.66,454.28,295.08Z" fill="#f9b499"/><polygon points="502.83 411.64 504.13 414.53 514.4 409.92 513.48 407.87 518.32 408.16 542.01 397.51 541.24 396.29 516.26 407.17 514.16 406.97 512.66 407.22 502.83 411.64" fill="#2f2e41"/><path d="M585.29,340.51c-7.86-9.53-19.94-8.27-19.94-8.27C550,331.47,538,317,538,317l-26.9-28.53-18,8.18,32.79,41.87s18.09,29.15,11.71,55c0,0,.24,7.59-12.2,11.52l-41.88,18.77L476,427.15l-7.55-16.81s-3.83-8,0-26.19l-9-27.46-98.9,44.64s-15.13,10.41-7.77,31.24c0,0-12.21,28.78,4.86,63.06a3.08,3.08,0,0,0,4.64,1.08l17.87-8,.21.12a3.56,3.56,0,0,0,3.24.16L460,454.48l7.33.37,8.45-3.79s2.72-1.72.92-5.74l81.63-36.51S542.68,370.72,585.29,340.51Z" fill="#f48225" data-secondary="true"/><path d="M524.59,302.71s16.47,28.61,20.1,29.46l11.57,7.95s3.76,3,11.42-.68a17.35,17.35,0,0,1,3-1.07l9.42-2.47s-5.34-4-14.73-3.66A33.31,33.31,0,0,1,546.82,325s-7-5.5-9-8.39Z" fill="#fff" opacity="0.25"/><path d="M513,429s-1.36-.62-.52-2.82l.79-2.69,23.31-11.2a26.24,26.24,0,0,0,8.35-6.19,28.43,28.43,0,0,0,5.59-9s-.6,3.25,2.84,13.86Z" fill="#f48225" data-secondary="true"/><path d="M513,429s-1.36-.62-.52-2.82l.79-2.69,23.31-11.2a26.24,26.24,0,0,0,8.35-6.19,28.43,28.43,0,0,0,5.59-9s-.38,3.17,3.05,13.78Z" opacity="0.25"/><path d="M513.31,423.53s-.32-2.19,4.37-4L528,414.81a32,32,0,0,0,17-18.06,28.08,28.08,0,0,0-.51-20.52s-10.44-29.43-18.57-37.76L493.13,296.6l1.83-1,30.67,38.44c1.32,1.66,2.73,3.24,4.18,4.79a63.25,63.25,0,0,1,11.66,18.44s8.6,18.78,9.21,23.83c0,0-1.78,11.62-.12,16,0,0-3.67,10.52-13.94,15.19Z" opacity="0.25"/><path d="M448.3,391.2a8.37,8.37,0,0,1,5.31-6.2s10.45-2.56,11.38-10l-5.57-18.31-98.9,44.64s-15.43,10.38-7.77,31.24c0,0,6.28-27.06,39.61-43.26C392.36,389.31,423.45,371.23,448.3,391.2Z" fill="#fff" opacity="0.25"/><path d="M380.12,488.68l-18.5,8.48s-2.89,1-4-1.53c0,0-25.78-47,8.75-86.49,0,0,42.68-47,81.94-17.94,0,0,20.1,12.39,32.51,47.43,0,0,3,3.65-4.15,6.69,0,0,1.89,3.48-.92,5.74l-8.45,3.79-7.33-.37L383.57,489a3.56,3.56,0,0,1-3.24-.16Z" fill="#f48225" data-secondary="true"/><path d="M380.12,488.68l-18.5,8.48s-2.89,1-4-1.53c0,0-25.78-47,8.75-86.49,0,0,42.68-47,81.94-17.94,0,0,20.1,12.39,32.51,47.43,0,0,3,3.65-4.15,6.69,0,0,1.89,3.48-.92,5.74l-8.45,3.79-7.33-.37L383.57,489a3.56,3.56,0,0,1-3.24-.16Z" opacity="0.25"/><path d="M367.31,494.22s-6.52,1.44-11-29.92c0,0-10-46.42,38.7-69.52,0,0,32.3-17.22,56.27,8.09,0,0,19.16,23,25.35,42.45a4.22,4.22,0,0,1-.92,5.74l-8.45,3.79-7.33-.37-77,34.94a9.87,9.87,0,0,1-2.82-.74Z" fill="#f48225" data-secondary="true"/><path d="M427.2,389.71c7.76,1.13,15.17,8.39,18.67,11.53a16.71,16.71,0,0,1,4.13,5.42c2.35,5.15.7,8.69-1.12,10.76a10.87,10.87,0,0,1-3.81,2.72L369.28,454a17.58,17.58,0,0,0-11.59,18s-9.64-29.1,8.59-53.77C366.28,418.22,390.21,384.34,427.2,389.71Z" fill="#fff" opacity="0.25"/><rect x="361.71" y="452.06" width="44.7" height="3.34" rx="1.18" transform="translate(-152.2 197.21) rotate(-24.19)" fill="#2f2e41"/><rect x="363.1" y="463.21" width="36.13" height="3.34" rx="1.18" transform="translate(-157.02 197) rotate(-24.19)" fill="#2f2e41"/><rect x="366.54" y="473.94" width="26.32" height="3.34" rx="1.18" transform="translate(-161.54 197.34) rotate(-24.19)" fill="#2f2e41"/><path d="M459.42,356.69,358.71,401.8A5.62,5.62,0,0,1,351.3,399l-2.06-4.48a5.63,5.63,0,0,1,2.78-7.48l102.24-46.32Z" fill="#2f2e41"/><circle cx="603.27" cy="391.11" r="25.53" fill="#2f2e41"/><path d="M496.31,273.12l-13.74-14.93a5.18,5.18,0,0,0-5.95-1.22l-4,1.81-.43-1,4-1.81a6.25,6.25,0,0,1,7.16,1.47l13.74,14.93Z" fill="#2f2e41"/><path d="M455.18,252.29l8.39,18.93,2.66-1.19a1.91,1.91,0,0,0,1-2.53l-6.92-15.4a1.91,1.91,0,0,0-2.52-1Z" fill="#2f2e41"/><path d="M463.27,249l8.4,18.93,2.66-1.2a1.91,1.91,0,0,0,1-2.52l-6.92-15.41a1.91,1.91,0,0,0-2.53-.95Z" fill="#2f2e41"/><path d="M417.68,295.27c-.16-11.26-2.83-28.74-13.83-51l2.76.79-6.69-14.64,2-.84s16.58,28.18,19.35,50.33c.09.71.18,1.42.31,2.13a78.33,78.33,0,0,1,1.05,12.64" fill="#a7a9ac"/><path d="M421.41,309a55.71,55.71,0,0,1-8.13,20.84s0-6.32-1.06-8.68a48,48,0,0,0,4-11.45" fill="#a7a9ac"/><path d="M479.16,277.5a5.92,5.92,0,0,1,5.69,2.14,6.8,6.8,0,0,1,1.25,2.78c.47,2.29.4,6.35-5.48,7.82l-4.76-10.84,2-1.4A2.84,2.84,0,0,1,479.16,277.5Z" fill="#f48225" data-secondary="true"/><path d="M479.16,277.5a5.92,5.92,0,0,1,5.69,2.14,6.8,6.8,0,0,1,1.25,2.78c.47,2.29.4,6.35-5.48,7.82l-4.76-10.84,2-1.4A2.84,2.84,0,0,1,479.16,277.5Z" opacity="0.2"/><path d="M480.89,276s8.48-6.69,14.34-8.85a5.88,5.88,0,0,1,6.44,1.68c1.89,2.15,4.25,5.76,3.1,9.43,0,0,.08,2.41-5.71,4.34l-16.38,6.9a5.94,5.94,0,0,0,3.18-7.59,6.11,6.11,0,0,0-7.44-4.22l-.13,0Z" fill="#f48225" data-secondary="true"/><path d="M476.75,281.43s4.15-2.19,5.94.33c0,0,2.89,4.13-3,6.43Z" fill="#ccc"/><path d="M477.08,282.18s1.44-.12,2.61,1.93c0,0,1.26,2.07-.24,3.41Z" fill="#2f2e41"/><path d="M485.92,286.12s14.36-6.71,15.23-7,4.2-1.77,2.48-7.33a8.36,8.36,0,0,1,1.14,6.48s.21,2.46-5.71,4.34l-16.2,6.82A6.49,6.49,0,0,0,485.92,286.12Z" opacity="0.25"/><path d="M554.57,413.37s-18.26-38.18,18.16-66.3c0,0,28.79-21.37,58.2-2.84,0,0,2,1.42-.44,5.19l-.06.08a14.27,14.27,0,0,1-5.9,4.58c-3.17,1.31-7.56,2.88-9.63,2.51,0,0-20.54-7.92-36.53,9.09,0,0-14.21,13.2-10.25,32.4,0,0,.54,3.42-1.38,5.44,0,0-1.6,5.71-5.54,7.32Z" fill="#f48225" data-secondary="true"/><path d="M554.57,413.37s-18.26-38.18,18.16-66.3c0,0,28.79-21.37,58.2-2.84,0,0,2,1.42-.44,5.19l-.06.08a14.27,14.27,0,0,1-5.9,4.58c-3.17,1.31-7.56,2.88-9.63,2.51,0,0-20.54-7.92-36.53,9.09,0,0-14.21,13.2-10.25,32.4,0,0,.54,3.42-1.38,5.44,0,0-1.6,5.71-5.54,7.32Z" fill="#fff" opacity="0.1"/><path d="M553.49,410.69a11.93,11.93,0,0,0,4.93-1.12,10.51,10.51,0,0,0,4.81-3.93,16.71,16.71,0,0,0,1.25-2.25,10.35,10.35,0,0,0,.72-5.94c-1-6.06-2.31-23.92,13-35,0,0,15.26-14.1,33.63-8.85a16.3,16.3,0,0,0,8.87.08h0l1.68-.76a16.11,16.11,0,0,0,7.29-6.54l1.23-2.11s2.29,1.64-.44,5.19h0a14.37,14.37,0,0,1-6.16,4.68c-3.08,1.23-7.22,2.66-9.43,2.49a34.8,34.8,0,0,0-37,9.47s-13.71,13.21-9.75,32a6.58,6.58,0,0,1-.13,3,7,7,0,0,1-1.25,2.47,15.23,15.23,0,0,1-1,2.47,15.44,15.44,0,0,1-1.41,2.28,7.49,7.49,0,0,1-1,1.15,7.59,7.59,0,0,1-2.13,1.42l-6.63,2.53h0C554.17,412.45,553.81,411.56,553.49,410.69Z" opacity="0.25"/><path d="M370.82,303.5S356.07,317.71,356,335c0,0,.11,2.26,3.33,3.14,0,0,16.07,6.3,31.59,8.18,1.46.18,2.9.39,4.33.7,4.5,1,15.18,3,17.14,1.16,0,0,2.38-21.38-.12-27.08,0,0-.11-1.34-7.39-1.5,0,0-28.37-.91-31.85-9.5Z" fill="#bcbec0"/><path d="M363.49,312.34s3.36,8.7,15.93,11.49l22.9,3.8s11,.28,10.75,11.59l-.73,9s.11,2.51-16.73-1.08a40.47,40.47,0,0,0-4.23-.68c-4-.44-14.78-2.1-32.1-8.28,0,0-3.17-.83-3.33-3.14C356,335,355.06,325.06,363.49,312.34Z" fill="#fff" opacity="0.25"/><path d="M478.51,411.37l4.32,9.14,9.82-4.41a3,3,0,0,1,1.51-.25l2.1.2a2.42,2.42,0,0,0,1.19-.2l23.78-10.68s-3.73-5.48-12.65-4a10.49,10.49,0,0,0-3.12,1.07c-2.15,1.12-6.73,2.91-8.26,1Z" fill="#686175" data-primary="true"/><polygon points="482.83 420.51 484.13 423.4 494.39 418.79 493.47 416.74 498.31 417.03 522 406.39 521.23 405.17 496.26 416.05 494.16 415.85 492.65 416.1 482.83 420.51" fill="#2f2e41"/><path d="M488.26,276.51l-13.74-14.93a5.21,5.21,0,0,0-5.95-1.22l-4,1.81-.43-1,4-1.8a6.22,6.22,0,0,1,7.16,1.47L489,275.79Z" fill="#2f2e41"/><path d="M218.61,515H409.08s-35.88-13.45-39.65-6.61c0,0-3.27-3.85-7.38-2.68a2.56,2.56,0,0,0-1.94,2.24c-.06.91.35,2,2.24,2.56l-11.8.24s5.19-1.89,3.77-6.37c0,0,.47-3.07-5.19-2.36,0,0,3.28-10.25-14.24-6.3a48.69,48.69,0,0,0-5.68,1.68,87,87,0,0,1-21.15,4.38s.48-6.42-9.15-6.68a23.68,23.68,0,0,0-11.51,2.75c-3.13,1.62-7.71,4.08-12.15,6.76,0,0,5.91-11.09-2.83-18.88a23.59,23.59,0,0,0-16.05-5.43s.24-5.42-11.09-5.42c0,0-7.08-.71-13.93,6.37,0,0-11.72,0-15.3,8.35A11.46,11.46,0,0,0,217.74,501c2.56,3.35,7.28,7.25,15.5,7.65,0,0,2.6,2.12-1.89,3.3C231.35,511.91,229.23,512.62,218.61,515Z" fill="#fff"/><path d="M403.17,515s-23.62-7-28.5-4.66a8.61,8.61,0,0,1-2.07.77c-1.18.23-2.76.31-3.67-.52a13.14,13.14,0,0,0-1.86-1.56c-2.16-1.36-5.92-3.18-4.72,1.43l-11.8.24s2.36-3.07,0-5.43c0,0-1.89-2.59-6.61,1.18,0,0,.32-4-3.23-5.53a6.15,6.15,0,0,0-4.35-.12c-3.3,1.09-11.62,3.63-18,4.05a16.39,16.39,0,0,1-5-.57c-1.48-.37-3.92-.34-5.76,2.88,0,0-3.78,5.19-9.44,3.54,0,0,6.37-2.83,4-6.84,0,0-.71-3.54-5.66-2.36,0,0,1.27-2.87-1.81-3.5a5.59,5.59,0,0,0-4,.78c-4.81,2.94-21.12,12.62-25.33,11.21a16.69,16.69,0,0,0,1.93-14.16,12,12,0,0,0-5.7-7.11c-2.54-1.33-6.14-2-10.39.74,0,0-2.83-9.21-18.17-4,0,0-8.85-3.72-16.13,4.64a6.76,6.76,0,0,0-1.57,5.6c.78,4.29,4.53,12.12,17.93,12.89,0,0,2.46,2.09-1.89,3.3,0,0-8.56,2.34-12.74,3.07Z" fill="#ccc"/><rect x="790.6" y="151.92" width="6.52" height="188.92" fill="#bcbec0"/><path d="M815.64,354.91h-44V354a4.71,4.71,0,0,1,.2-1.36h-5.29l1.63,4.17,47.55,0h1.79l1.56-4.08h-3.58a5.18,5.18,0,0,1,.18,1.31Z" fill="#e6e7e8"/><polygon points="768.91 41.34 767.36 41.37 759.25 41.53 765.2 51.35 770.28 59.72 768.91 41.34" fill="#2f2e41"/><polygon points="817.16 41.41 813.89 41.34 812.87 61.99 819.31 51.38 825.27 41.56 817.16 41.41" fill="#2f2e41"/><g opacity="0.2"><polygon points="768.91 41.34 767.36 41.37 759.25 41.53 765.2 51.35 770.28 59.72 768.91 41.34"/><polygon points="817.16 41.41 813.89 41.34 812.87 61.99 819.31 51.38 825.27 41.56 817.16 41.41"/></g><polygon points="771.35 73.98 769.28 74.02 761.17 74.17 767.13 83.99 772.79 93.31 771.35 73.98" fill="#2f2e41"/><polygon points="815.23 74.04 812.28 73.98 811.29 94.05 817.39 84.01 823.34 74.19 815.23 74.04" fill="#2f2e41"/><g opacity="0.2"><polygon points="771.35 73.98 769.28 74.02 761.17 74.17 767.13 83.99 772.79 93.31 771.35 73.98"/><polygon points="815.23 74.04 812.28 73.98 811.29 94.05 817.39 84.01 823.34 74.19 815.23 74.04"/></g><polygon points="773.78 106.61 771.21 106.66 763.1 106.82 769.06 116.64 775.29 126.91 773.78 106.61" fill="#2f2e41"/><polygon points="813.3 106.67 810.68 106.61 809.72 126.1 815.46 116.64 821.41 106.82 813.3 106.67" fill="#2f2e41"/><g opacity="0.2"><polygon points="773.78 106.61 771.21 106.66 763.1 106.82 769.06 116.64 775.29 126.91 773.78 106.61"/><polygon points="813.3 106.67 810.68 106.61 809.72 126.1 815.46 116.64 821.41 106.82 813.3 106.67"/></g><path d="M784.68,142.67v2.8a2.76,2.76,0,0,0,.25,1.15,2.9,2.9,0,0,0,1.64,1.51V150a1.94,1.94,0,0,0,.57,1.36,2.08,2.08,0,0,0,1.47.61h9.09a2,2,0,0,0,2-2v-1.87a2.87,2.87,0,0,0,1.74-2.61v-3Z" fill="#2f2e41"/><path d="M812.28,74l.59-12,1-20.65.34-7-.1.07-45.71.84.49,6.55,1.37,18.37,1.06,14.25,1.45,19.34,1,13.28,1.51,20.3.71,9.51,33.25-1.4.47-9.39,1-19.49.61-12.56Zm-7.38,48.9a12,12,0,0,1-1,2.15,12.47,12.47,0,0,1-10.79,6.09,12.2,12.2,0,0,1-12.4-12,12,12,0,0,1,6.66-10.63,12.78,12.78,0,0,1,9.48-.8,12,12,0,0,1,8.66,11.43A11.67,11.67,0,0,1,804.9,122.88Zm.78-30.19A12.5,12.5,0,0,1,804.6,95a13.61,13.61,0,0,1-11.79,6.65,13.34,13.34,0,0,1-13.56-13.11A13.07,13.07,0,0,1,786.53,77a13.88,13.88,0,0,1,6.28-1.49,14,14,0,0,1,4.08.61,13.17,13.17,0,0,1,9.47,12.5A12.74,12.74,0,0,1,805.68,92.69Zm1-31.86a13.75,13.75,0,0,1-1.18,2.59,15,15,0,0,1-13,7.33A14.7,14.7,0,0,1,777.51,56.3a14.38,14.38,0,0,1,8-12.8,15.25,15.25,0,0,1,6.92-1.65,15.5,15.5,0,0,1,4.5.67A14.52,14.52,0,0,1,807.39,56.3,13.94,13.94,0,0,1,806.63,60.83Z" fill="#2f2e41"/><path d="M797,42.52a15.5,15.5,0,0,0-4.5-.67,15.25,15.25,0,0,0-6.92,1.65,14.38,14.38,0,0,0-8,12.8,14.7,14.7,0,0,0,14.94,14.45,15,15,0,0,0,13-7.33,13.75,13.75,0,0,0,1.18-2.59,13.94,13.94,0,0,0,.76-4.53A14.52,14.52,0,0,0,797,42.52ZM804.54,60A12.09,12.09,0,0,1,803,63.12a12.81,12.81,0,0,1-10.54,5.45A12.47,12.47,0,0,1,779.77,56.3a12.16,12.16,0,0,1,5.38-10,13.08,13.08,0,0,1,10.92-1.72,12.33,12.33,0,0,1,9.06,11.75A11.82,11.82,0,0,1,804.54,60Z" fill="#2f2e41"/><path d="M797,42.52a15.5,15.5,0,0,0-4.5-.67,15.25,15.25,0,0,0-6.92,1.65,14.38,14.38,0,0,0-8,12.8,14.7,14.7,0,0,0,14.94,14.45,15,15,0,0,0,13-7.33,13.75,13.75,0,0,0,1.18-2.59,13.94,13.94,0,0,0,.76-4.53A14.52,14.52,0,0,0,797,42.52ZM804.54,60A12.09,12.09,0,0,1,803,63.12a12.81,12.81,0,0,1-10.54,5.45A12.47,12.47,0,0,1,779.77,56.3a12.16,12.16,0,0,1,5.38-10,13.08,13.08,0,0,1,10.92-1.72,12.33,12.33,0,0,1,9.06,11.75A11.82,11.82,0,0,1,804.54,60Z" opacity="0.2"/><path d="M796.07,44.55a13.08,13.08,0,0,0-10.92,1.72,12.16,12.16,0,0,0-5.38,10,12.47,12.47,0,0,0,12.68,12.27A12.81,12.81,0,0,0,803,63.12,12.09,12.09,0,0,0,804.54,60a11.82,11.82,0,0,0,.59-3.68A12.33,12.33,0,0,0,796.07,44.55Z" fill="#fe4f4a"/><path d="M796.89,76.08a14,14,0,0,0-4.08-.61A13.88,13.88,0,0,0,786.53,77a13.07,13.07,0,0,0-7.28,11.62,13.34,13.34,0,0,0,13.56,13.11A13.61,13.61,0,0,0,804.6,95a12.5,12.5,0,0,0,1.08-2.35,12.74,12.74,0,0,0,.68-4.11A13.17,13.17,0,0,0,796.89,76.08Zm6.89,15.84a10.67,10.67,0,0,1-1.41,2.85,11.58,11.58,0,0,1-9.56,4.94A11.33,11.33,0,0,1,781.3,88.58a11,11,0,0,1,4.89-9.1,11.75,11.75,0,0,1,6.62-2,11.89,11.89,0,0,1,3.29.47,11.18,11.18,0,0,1,8.21,10.66A10.53,10.53,0,0,1,803.78,91.92Z" fill="#2f2e41"/><path d="M796.89,76.08a14,14,0,0,0-4.08-.61A13.88,13.88,0,0,0,786.53,77a13.07,13.07,0,0,0-7.28,11.62,13.34,13.34,0,0,0,13.56,13.11A13.61,13.61,0,0,0,804.6,95a12.5,12.5,0,0,0,1.08-2.35,12.74,12.74,0,0,0,.68-4.11A13.17,13.17,0,0,0,796.89,76.08Zm6.89,15.84a10.67,10.67,0,0,1-1.41,2.85,11.58,11.58,0,0,1-9.56,4.94A11.33,11.33,0,0,1,781.3,88.58a11,11,0,0,1,4.89-9.1,11.75,11.75,0,0,1,6.62-2,11.89,11.89,0,0,1,3.29.47,11.18,11.18,0,0,1,8.21,10.66A10.53,10.53,0,0,1,803.78,91.92Z" opacity="0.2"/><path d="M796.1,77.92a11.89,11.89,0,0,0-3.29-.47,11.75,11.75,0,0,0-6.62,2,11,11,0,0,0-4.89,9.1,11.33,11.33,0,0,0,11.51,11.13,11.58,11.58,0,0,0,9.56-4.94,10.67,10.67,0,0,0,1.41-2.85,10.53,10.53,0,0,0,.53-3.34A11.18,11.18,0,0,0,796.1,77.92Z" fill="#f9e014"/><path d="M796.86,107.69a12.78,12.78,0,0,0-9.48.8,12,12,0,0,0-6.66,10.63,12.2,12.2,0,0,0,12.4,12A12.47,12.47,0,0,0,803.91,125a12,12,0,0,0,1-2.15,11.67,11.67,0,0,0,.62-3.76A12,12,0,0,0,796.86,107.69Zm6.3,14.49a9.87,9.87,0,0,1-1.29,2.6,10.6,10.6,0,0,1-8.75,4.52,10.35,10.35,0,0,1-10.52-10.18,10,10,0,0,1,4.47-8.32,10.76,10.76,0,0,1,9.06-1.43,10.23,10.23,0,0,1,7.51,9.75A10,10,0,0,1,803.16,122.18Z" fill="#2f2e41"/><path d="M796.86,107.69a12.78,12.78,0,0,0-9.48.8,12,12,0,0,0-6.66,10.63,12.2,12.2,0,0,0,12.4,12A12.47,12.47,0,0,0,803.91,125a12,12,0,0,0,1-2.15,11.67,11.67,0,0,0,.62-3.76A12,12,0,0,0,796.86,107.69Zm6.3,14.49a9.87,9.87,0,0,1-1.29,2.6,10.6,10.6,0,0,1-8.75,4.52,10.35,10.35,0,0,1-10.52-10.18,10,10,0,0,1,4.47-8.32,10.76,10.76,0,0,1,9.06-1.43,10.23,10.23,0,0,1,7.51,9.75A10,10,0,0,1,803.16,122.18Z" opacity="0.2"/><path d="M796.13,109.37a10.76,10.76,0,0,0-9.06,1.43,10,10,0,0,0-4.47,8.32,10.35,10.35,0,0,0,10.52,10.18,10.6,10.6,0,0,0,8.75-4.52,9.87,9.87,0,0,0,1.29-2.6,10,10,0,0,0,.48-3.06A10.23,10.23,0,0,0,796.13,109.37Z" fill="#a3dc7e"/><polygon points="814.23 34.38 818.02 31.66 764.16 32.88 768.42 35.28 768.42 35.28 814.13 34.45 814.23 34.38" fill="#2f2e41"/><polygon points="814.23 34.38 818.02 31.66 764.16 32.88 768.42 35.28 768.42 35.28 814.13 34.45 814.23 34.38" opacity="0.2"/><polygon points="776 136.89 773.11 139.68 811.78 138.28 809.25 135.49 776 136.89" fill="#2f2e41"/><polygon points="776 136.89 773.11 139.68 811.78 138.28 809.25 135.49 776 136.89" opacity="0.2"/><polygon points="773.11 139.68 773.29 142.83 784.68 142.67 801.48 142.44 811.06 142.3 811.78 138.28 773.11 139.68" fill="#2f2e41"/><polygon points="817.21 28.63 764.92 29.79 763.98 32.88 817.93 31.66 817.21 28.63" fill="#2f2e41"/><path d="M797.85,338.59h-8.46a2.85,2.85,0,0,0-2.38,1.27,2.72,2.72,0,0,0-.44,1.45v2.4h14.1v-2.4A2.77,2.77,0,0,0,797.85,338.59Z" fill="#2f2e41"/><path d="M781.06,345.51a3.62,3.62,0,0,0-.55,1.92v1.7h-4a4.9,4.9,0,0,0-4.7,3.54,4.71,4.71,0,0,0-.2,1.36v.88h44V354a5.18,5.18,0,0,0-.18-1.31,4.91,4.91,0,0,0-4.72-3.59h-4v-1.7a3.78,3.78,0,0,0-3.84-3.72H784.35a3.85,3.85,0,0,0-3.29,1.8" fill="#2f2e41"/><path d="M817.28,356.8h-1.59l-47.55,0-1.81,3.58,52.5.18-1.35-3.79Z" fill="#d1d3d4"/><g opacity="0.2"><path d="M775.4,55s13.37-9.79,33-2.91c-4.82-8.62-5.78-12.24-18.19-12S775.4,55,775.4,55Z" fill="#2f2e41"/></g><path d="M810.11,56H808.4c0-8.55-7.21-15.51-16.07-15.51s-16.07,7-16.07,15.51h-1.72c0-9.5,8-17.23,17.79-17.23S810.11,46.51,810.11,56Z" fill="#fff"/><g opacity="0.2"><path d="M777.57,87.14s12.09-8.85,29.84-2.63c-4.36-7.8-5.23-11.06-16.45-10.85S777.57,87.14,777.57,87.14Z" fill="#2f2e41"/></g><path d="M809,88.09h-1.56a14.53,14.53,0,0,0-29,0h-1.55a16.09,16.09,0,0,1,32.16,0Z" fill="#fff"/><g opacity="0.2"><path d="M778.89,118.17s11.28-8.25,27.85-2.46c-4.07-7.27-4.88-10.32-15.35-10.12S778.89,118.17,778.89,118.17Z" fill="#2f2e41"/></g><path d="M808.17,119.06h-1.45a13.56,13.56,0,0,0-27.1,0h-1.45a15,15,0,0,1,30,0Z" fill="#fff"/></svg>