<svg id="b49aed99-90a9-4119-8d06-9e18752416a0" data-name="Layer 1" xmlns="http://www.w3.org/2000/svg" width="865.76" height="682.89" viewBox="0 0 865.76 682.89"><path d="M461.68,365.19s-16.38-6.68-18.06-6.12-17.95,12.33-16.83,15.13,9.81,6.45,14.86,8.41,21.43-1.73,21.43-1.73Z" fill="#f9b499"/><path d="M445.86,360.47s-3.93-3.36-5.33.56-10.1,13.45-6.17,13.73,11.22-7.85,11.22-7.85" fill="#f9b499"/><path d="M428.47,376.16s-1,4.72,1.4,6.73C433.67,385.25,432.38,370.33,428.47,376.16Z" fill="#f9b499"/><path d="M432.45,377.28s-1,4.72,1.41,6.73C437.66,386.32,436.36,371.46,432.45,377.28Z" fill="#f9b499"/><path d="M436.32,379s-1,4.73,1.41,6.73C441.52,388.05,440.23,373.13,436.32,379Z" fill="#f9b499"/><path d="M440.21,381.25s-.93,3.18,1.29,4.52C445.21,387.15,443.53,377.24,440.21,381.25Z" fill="#f9b499"/><path d="M516.33,436.72s-4.46,66.55,0,93.34c5.6,36.84,17.42,71.83,18.83,89.78l25,3.57s-7.6-88-7.6-98.25,8.5-87.1,8.5-87.1Z" fill="#2f2e41"/><path d="M516.33,436.72s-4.46,66.55,0,93.34c5.6,36.84,17.42,71.83,18.83,89.78l25,3.57s-7.6-88-7.6-98.25,8.5-87.1,8.5-87.1Z" opacity="0.2"/><path d="M512.3,431.37c-3.74,23.19,18.64,145.35,22.36,170.6a34.26,34.26,0,0,1-1.34,9.81c-1,2.94-2.57,6.88-.39,9.85,3.39,1.42,25.67,4.39,33.24.56,2.92-44.32-5.3-115.84-5.57-160.46.45-5.37,6.7-11.21,8-17.86S571.33,430,571.33,430Z" fill="#2f2e41"/><polygon points="459.88 362.99 462.69 384.29 509.53 379.24 510.65 351.5 459.88 362.99" fill="#686175" data-primary="true"/><polygon points="459.88 362.99 462.69 384.29 509.53 379.24 510.65 351.5 459.88 362.99" opacity="0.2"/><path d="M551.2,264.52c5.41,2.58,9.08,7.34,11.67,12.61,0,0,19,21.88,19.45,24.11s-10.72,72.58-10.72,72.58l12.73,66.54s-20.56,11.39-36.21,12.07c-9.8-.43-43.55-1.63-43.1-12.82C501.52,401.88,489.14,253.72,551.2,264.52Z" fill="#686175" data-primary="true"/><path d="M562.87,277.13c-6.86-17.57-27-16.5-39-4.48-7.36,13.28-16.55,48.19-14.44,63C511.72,332,549,287.4,563.62,278Z" fill="#686175" data-primary="true"/><path d="M524,276.05s-2.68,7.87-2.68,8.41-.67,8-.67,8l9.55-12.91Z" fill="#686175" data-primary="true"/><path d="M524,276.05s-2.68,7.87-2.68,8.41-.67,8-.67,8l9.55-12.91Z" opacity="0.2"/><path d="M556.39,225c-.16-9.05-18.76-21.1-32-20.93-18,1-31.08,5.91-17.6,13.73,0,0-.1.27-.27.77-5.11,4.81-9.07,12.78-10.4,22.16-2.32,16.35,4.24,30.8,14.65,32.27a13.29,13.29,0,0,0,7.65-1.28l9.15,11.57,20.62-19.75-2.51-10.39S556.56,234,556.39,225Z" fill="#f9b499"/><rect x="791.43" y="375.09" width="6.74" height="6.74" fill="#fff"/><rect x="801.87" y="375.09" width="6.74" height="6.74" fill="#fff"/><rect x="273.19" y="193.71" width="185.43" height="120.19" fill="#ccc"/><rect x="273.19" y="193.71" width="185.43" height="13.13" fill="#a7a9ac"/><rect x="290.44" y="282.35" width="12.75" height="20.14" opacity="0.2"/><rect x="303.2" y="262.89" width="11.75" height="39.6" fill="#ccc"/><rect x="303.2" y="262.89" width="11.75" height="39.6" fill="#fff" opacity="0.2"/><rect x="314.95" y="275.98" width="11.75" height="26.51" opacity="0.2"/><rect x="347.79" y="262.89" width="12.75" height="39.27" opacity="0.2"/><rect x="360.54" y="275.64" width="11.75" height="26.51" fill="#fff" opacity="0.2"/><rect x="372.29" y="247.11" width="11.75" height="55.04" opacity="0.2"/><rect x="403.72" y="255.5" width="12.75" height="46.65" opacity="0.2"/><rect x="416.47" y="247.11" width="11.75" height="55.04" fill="#fff" opacity="0.2"/><rect x="428.22" y="262.89" width="11.75" height="39.27" opacity="0.2"/><rect x="177.43" y="63.67" width="152.19" height="90.8" fill="#ccc"/><path d="M196.05,99.14c.09,6.37-9.91,6.37-9.82,0C186.14,92.77,196.14,92.77,196.05,99.14Z" opacity="0.2"/><path d="M196.05,111.83c.09,6.37-9.91,6.37-9.82,0C186.14,105.46,196.14,105.46,196.05,111.83Z" opacity="0.2"/><path d="M196.05,124.53c.09,6.36-9.91,6.36-9.82,0C186.14,118.16,196.14,118.16,196.05,124.53Z" opacity="0.2"/><path d="M224,100.77H199.78a1.71,1.71,0,0,1-1.72-1.71,1.87,1.87,0,0,1,1.72-2.31H224C226.36,96.71,226.36,100.81,224,100.77Z" opacity="0.2"/><path d="M212.71,113.85H199.78a1.72,1.72,0,0,1-1.72-1.72,1.87,1.87,0,0,1,1.72-2.31h12.93C215,109.78,215,113.88,212.71,113.85Z" opacity="0.2"/><path d="M253.49,113.85H217.9a1.87,1.87,0,0,1-1.71-2.32c-1.77-3.71,36.5-.88,37.3-1.71C255.81,109.78,255.81,113.88,253.49,113.85Z" opacity="0.2"/><path d="M253.49,101.15h-24a1.87,1.87,0,0,1-1.72-2.31,1.72,1.72,0,0,1,1.72-1.72h24C255.81,97.09,255.81,101.19,253.49,101.15Z" opacity="0.2"/><path d="M233.1,126.54H199.78a1.87,1.87,0,0,1-1.72-2.31c-1.56-3.7,34.13-.89,35-1.72C235.42,122.48,235.42,126.57,233.1,126.54Z" opacity="0.2"/><path d="M253.49,126.54h-15a1.71,1.71,0,0,1-1.71-1.72,1.86,1.86,0,0,1,1.71-2.31h15C255.81,122.48,255.81,126.57,253.49,126.54Z" opacity="0.2"/><path d="M292.62,80.89a28.18,28.18,0,0,0-24,13.33l23.67,14.59Z" opacity="0.2"/><path d="M292.2,137.25c-20.23-.4-34.64-23.62-24.47-41.41L292.2,111.1Z" opacity="0.2"/><path d="M294.16,81c35.14,2.73,35,54.26-.32,56.29Z" opacity="0.2"/><path d="M510.09,104.54H404.53V43.85H510.09Z" fill="#ccc"/><polygon points="423.36 78.63 404.53 78.63 404.53 77.63 423.01 77.63 435.57 67.6 449.93 61.45 464.2 71.71 477.46 61.45 491.25 66.22 504.62 50.86 505.37 51.52 491.56 67.38 477.65 62.58 464.23 72.96 449.8 62.59 436.03 68.49 423.36 78.63" fill="#a7a9ac"/><polygon points="404.91 104.87 404.16 104.21 422.78 83.33 435.78 87.92 450.12 83.42 463.38 83.44 477.21 88.39 490.73 77.66 504.83 72.62 505.16 73.56 491.14 78.57 477.4 89.51 463.12 84.42 450.2 84.42 435.76 88.97 423.08 84.5 404.91 104.87" fill="#a7a9ac"/><path d="M451,95.45,436.29,83.57,423.52,95.11l-.67-.74,13.41-12.12L450.79,94l12.68-16.41,15,.07c6.56-2.6,19.73-8.32,26.32-11.35l.41.91c-6.63,3-19.9,8.81-26.45,11.41l-.19,0L464,78.63Z" fill="#a7a9ac"/><path d="M424.44,77.87a1.39,1.39,0,0,1-2.77,0A1.39,1.39,0,0,1,424.44,77.87Z" fill="#808285"/><path d="M437.44,68.18a1.39,1.39,0,0,1-2.77,0A1.39,1.39,0,0,1,437.44,68.18Z" fill="#808285"/><path d="M451.54,62.14a1.39,1.39,0,0,1-2.77,0A1.39,1.39,0,0,1,451.54,62.14Z" fill="#808285"/><path d="M465.47,72.21a1.38,1.38,0,0,1-2.76,0A1.38,1.38,0,0,1,465.47,72.21Z" fill="#808285"/><path d="M478.94,62a1.39,1.39,0,0,1-2.77,0A1.39,1.39,0,0,1,478.94,62Z" fill="#808285"/><path d="M492.83,66.8a1.39,1.39,0,0,1-2.77,0A1.39,1.39,0,0,1,492.83,66.8Z" fill="#808285"/><path d="M506.38,51.19a1.39,1.39,0,0,1-2.77,0A1.39,1.39,0,0,1,506.38,51.19Z" fill="#808285"/><path d="M506.38,66.8a1.39,1.39,0,0,1-2.77,0A1.39,1.39,0,0,1,506.38,66.8Z" fill="#808285"/><path d="M492.83,73.09a1.39,1.39,0,0,1-2.77,0A1.39,1.39,0,0,1,492.83,73.09Z" fill="#808285"/><path d="M480.33,77.87a1.39,1.39,0,0,1-2.77,0A1.39,1.39,0,0,1,480.33,77.87Z" fill="#808285"/><path d="M465.47,77.81a1.38,1.38,0,0,1-2.76,0A1.38,1.38,0,0,1,465.47,77.81Z" fill="#808285"/><path d="M451.5,83.92a1.39,1.39,0,0,1-2.77,0A1.39,1.39,0,0,1,451.5,83.92Z" fill="#808285"/><path d="M452.89,94.74a1.39,1.39,0,0,1-2.77,0A1.39,1.39,0,0,1,452.89,94.74Z" fill="#808285"/><path d="M437.44,88.82a1.39,1.39,0,0,1-2.77,0A1.39,1.39,0,0,1,437.44,88.82Z" fill="#808285"/><path d="M424.57,94.74a1.39,1.39,0,0,1-2.77,0A1.39,1.39,0,0,1,424.57,94.74Z" fill="#808285"/><path d="M424.32,83.92a1.39,1.39,0,0,1-2.77,0A1.39,1.39,0,0,1,424.32,83.92Z" fill="#808285"/><path d="M465.47,83.92a1.38,1.38,0,0,1-2.76,0A1.38,1.38,0,0,1,465.47,83.92Z" fill="#808285"/><path d="M478.69,89a1.39,1.39,0,0,1-2.77,0A1.39,1.39,0,0,1,478.69,89Z" fill="#808285"/><path d="M492.83,77.87a1.39,1.39,0,0,1-2.77,0A1.39,1.39,0,0,1,492.83,77.87Z" fill="#808285"/><path d="M506.38,73.09a1.39,1.39,0,0,1-2.77,0A1.39,1.39,0,0,1,506.38,73.09Z" fill="#808285"/><rect x="563.14" y="101.28" width="61.92" height="55.88" fill="#ccc"/><path d="M590.52,123.86c1.59,1.25,4.82,1.47,3.63,4.16-.66,1.64.26,2.8,2.1,2.6,2.22-.25,2.09,1.34,2.51,2.63,1.9,3.26-5,3.27-1.43,6.34,1.1.94,1.23,1.74.36,2.84-1.76,5.29-5.89-1-5.9,4.33.24,2.33-1.57,2-2.76,2.44-3.11,1.91-3.21-5.07-6.3-1.41-1.33,1.72-2.32.5-3.44-.07-3.93-1,1.18-5.86-3.65-5.61-2.3.25-2-1.49-2.49-2.7s-.51-2.19,1-2.86c4.23-2.16-2.59-3.85.26-6.48,1.43-4.88,5.53,1.37,5.9-4.31a2.32,2.32,0,0,1,1.18-1.73C586.8,121.69,586.3,128.71,590.52,123.86Zm-11,12.45c-.11,8.33,12.79,8.53,12.88.17S579.65,128,579.53,136.31Z" opacity="0.2"/><path d="M605.57,114.4c4.75,1.61.14,4,3.56,4.21,1.39-.15,1.31.83,1.57,1.64,1.19,1.86-3.1,2.22-.89,4A1.09,1.09,0,0,1,610,126c-.93,3.17-3.73-.52-3.67,2.69.15,1.46-1,1.24-1.72,1.52-1.78,1.19-2.19-3.14-3.93-.88-.83,1.08-1.44.32-2.14,0-2.34-.48.61-3.74-2.27-3.49-1.43.15-1.27-.93-1.55-1.69s-.32-1.36.64-1.78c2.58-1.19-1.57-2.55.17-4,.75-2.91,3.54.72,3.67-2.69a1.43,1.43,0,0,1,.74-1.07C603.08,113.06,603.1,117.38,605.57,114.4Zm-6.85,7.75c-.07,5.19,8,5.32,8,.11S598.79,117,598.72,122.15Z" opacity="0.2"/><path d="M609,132.15c3.69,1.16.19,3.21,2.85,3.36,1.1-.12,1,.67,1.25,1.32,1,1.48-2.48,1.77-.71,3.16.55.46.61.86.18,1.41-.7,2.5-3-.37-2.94,2.16.12,1.16-.79,1-1.38,1.21-1.42.95-1.75-2.51-3.14-.7-.66.86-1.15.25-1.71,0-1.82-.33.43-3-1.82-2.8-1.15.12-1-.74-1.24-1.35s-.25-1.09.52-1.42c2-.87-1.24-2.12.13-3.23.6-2.33,2.83.58,2.94-2.15a1.14,1.14,0,0,1,.58-.86C606.94,131.09,607.12,134.51,609,132.15Zm-5.48,6.2c-.06,4.15,6.37,4.25,6.41.08S603.6,134.19,603.54,138.35Z" opacity="0.2"/><rect x="185.73" y="560.87" width="91.2" height="7.65" fill="#2f2e41"/><rect x="185.73" y="560.87" width="91.2" height="7.65" fill="#939598"/><path d="M167.23,383c-14.93,16.11-11.35,52.21-8.92,67.91.78,31.88,16.53,47.91,27.42,49.09L170,626.23h9.49l15.08-121h68.84l17.32,114.13,7.24-1.54L269.74,490.11" fill="#939598"/><polygon points="258.14 578.58 252.97 594.59 234.78 594.59 239.15 576.08 258.14 578.58" fill="#f9b499"/><path d="M252,490.11l14,3.33c-14.88,21.68-28.27,85.2-28.27,85.2,8.3-.64,22.66,3.51,22.66,3.51s42-59.49,45.57-72.67l-12.48-24.1-10.2-9.91Z" fill="#2f2e41"/><path d="M367.2,564.6,360,555.34l15.43-9.57,5.51,8.24S373.91,565.55,367.2,564.6Z" fill="#f9b499"/><polygon points="295.06 404.67 293.46 421.21 283.25 422.22 284.84 404.57 295.06 404.67" fill="#2f2e41"/><polygon points="295.06 404.67 293.46 421.21 283.25 422.22 284.84 404.57 295.06 404.67" opacity="0.2"/><path d="M256.16,341.86c-3.79-17.66-26-16.42-37.77-18.74-9.89-2-34.28-6.87-48.39,3.55,0,0,8.29,93.16,6.38,100.29h71.48S257.43,352.08,256.16,341.86Z" fill="#f48225" data-secondary="true"/><path d="M160.11,344.42c-3.46-11.5,7-22.63,17.73-15.81,13.07,8.82,4.48,61.62,23.77,72,0,0,59.33,7,67.31,17.87H209.18c-3.19-.14-6.77,1.74-7.35,5C169.49,419.4,166.17,379.78,160.11,344.42Z" fill="#f9b499"/><path d="M378.48,546.16,360.11,558s-63.43-49-77.43-79.61c0,0-111.79,54.89-110.36-26H307.61C327.06,457.59,352.49,501.94,378.48,546.16Z" fill="#2f2e41"/><g opacity="0.2"><polygon points="355.61 554.5 375.83 541.25 375.01 540 354.39 553.51 355.61 554.5"/></g><g opacity="0.2"><path d="M358.74,550.66l1.3-.86c-.8-.77-64.59-54.43-70.5-82.64-1.94.84-81.48,38.16-109.48,6.54l-1.14,1c26.56,31.13,100.48-1.23,109.6-5.39C296.24,497.78,356.14,548.47,358.74,550.66Z"/></g><g opacity="0.2"><polygon points="263.95 576.93 264.89 575.58 239.28 571.17 239.02 572.64 263.95 576.93"/></g><g opacity="0.2"><path d="M246,572.33c18.79-78.77,32.8-82.24,37.3-85L266,484.65l-2.23,1.55,14.91,1.93c-5,3.95-19.7,19.89-34.2,83.94Z"/></g><path d="M225.36,333.89V314.42L205.82,304s-4,11.23-11.25,16.28C194.57,320.24,200,340.91,225.36,333.89Z" fill="#f9b499"/><path d="M339.38,405,355,343.72a5.31,5.31,0,0,0-5.15-6.63H259.08a5.31,5.31,0,0,0-5.14,4l-16.13,61.26A5.32,5.32,0,0,0,243,409h91.28A5.32,5.32,0,0,0,339.38,405Z" fill="#2f2e41"/><path d="M292.93,375.69c-.14,9.53,14.82,9.53,14.68,0C307.75,366.17,292.79,366.17,292.93,375.69Z" opacity="0.2"/><path d="M244,409l18.23-71.89h-3.08a5.39,5.39,0,0,0-5.22,4L237.9,402a5.59,5.59,0,0,0,5.41,7Z" opacity="0.2"/><path d="M329.55,426.85c1-3.16,1-8.37-3.25-8.4h-118c-4.07-.06-7.1,4.08-6.69,8.4" fill="#2f2e41"/><path d="M363.08,564.58l18.09-13.69L392.54,570s13.39-10,20.07-4.91l-33.05,25Z" fill="#f48225" data-secondary="true"/><rect x="376.78" y="577.12" width="41.44" height="4.69" transform="translate(-269.15 357.27) rotate(-37.12)" fill="#2f2e41"/><path d="M235.17,584.3l22.47,3.11L252.17,609s16.55,2.38,17.66,10.72l-41-5.69Z" fill="#f48225" data-secondary="true"/><rect x="246.63" y="598.45" width="4.69" height="41.44" transform="translate(-398.48 780.88) rotate(-82.12)" fill="#2f2e41"/><polygon points="395.91 628.92 395.91 441.38 401.18 441.38 400.87 628.92 395.91 628.92" fill="#ccc"/><polygon points="395.91 628.92 395.91 441.38 401.18 441.38 400.87 628.92 395.91 628.92" opacity="0.2"/><path d="M345.06,439.14V632.19H404.9l.62-193.05Zm4.34,2.24h51.78l-.31,187.54H349.4Z" fill="#ccc"/><rect x="66.79" y="439.14" width="128.01" height="193.05" fill="#ccc"/><rect x="134.92" y="439.14" width="59.88" height="193.05" opacity="0.1"/><rect x="57.15" y="426.85" width="360.99" height="25.54" fill="#ccc"/><path d="M535.11,619.84s-27.27,11.61-30.41,13.84c-5.41,7.62,44.57,4.64,42.93,4l4.91-2.67.45,3.12h13c.87-2.88,2.91-14.51-.82-18.76Z" fill="#2f2e41"/><path d="M535.11,619.84s-27.27,11.61-30.41,13.84c-5.41,7.62,44.57,4.64,42.93,4l4.91-2.67.45,3.12h13c.87-2.88,2.91-14.51-.82-18.76Z" opacity="0.2"/><path d="M501.58,380.9c-1.08,4.87-2.07,42-1.81,53.84-.24,10.1,10.33,13.4,18.75,13.15L508,382.9S503.26,374.87,501.58,380.9Z" fill="#686175" data-primary="true"/><path d="M522.37,282.92c-1,3.12-11.39,32.74-9.9,38,2.89-5.88,33.65-47.58,40.91-54.1l-4.87-1.4Z" fill="#fff"/><path d="M545,429s-3.71,9.24-4.82,12.26-.55,14.88-.41,16.13,2.35,1.51,2.35,1.51.68,9.5,1.51,9.81a14.58,14.58,0,0,0,2.62.41c.35,2.18,3.85,7.59,5.65,1.79,3,.31,4.29-2.94,5.25-5.22,4.26-1.49,4-5.39,4.68-8.51,2.68-2.45-1.63-22.87-1.23-23.83Z" fill="#f9b499"/><path d="M577.16,294.09l5.11,7.08-3.35,69.46L561,436.27l-17-4.45L549.41,380l-2.23-43.53C544.74,317,564.27,304.67,577.16,294.09Z" fill="#686175" data-primary="true"/><path d="M577.16,294.09l5.11,7.08-3.35,69.46L561,436.27l-17-4.45L549.41,380l-2.23-43.53C544.74,317,564.27,304.67,577.16,294.09Z" opacity="0.2"/><path d="M545.67,253.11S556.56,234,556.39,225s-18.76-21.1-32-20.93-25.65,5-23.14,8.55c2.53,4.82,9.85,6.35,13.76,10,0,1-4.87,6.37-3.19,8.72s9.72,5.18,9.72,5.18c-1.68,4.64,1.2,7.54,5,2.23,1.33-1.29,6.05-3.19,6.72,2.51a17.33,17.33,0,0,1-3,11.56c.88,2.13,11.12,7.92,16.14,3.08Z" fill="#2f2e41"/><polygon points="724.53 639.04 717.7 639.04 711.29 605.96 724.53 605.96 724.53 639.04" fill="#ccc"/><polygon points="641.87 605.96 641.87 636.43 647.08 636.43 653.15 605.96 641.87 605.96" fill="#ccc"/><polygon points="641.87 605.96 641.87 636.43 647.08 636.43 653.15 605.96 641.87 605.96" opacity="0.2"/><polygon points="672.79 633.73 679.62 633.73 686.03 605.96 672.79 605.96 672.79 633.73" fill="#ccc"/><polygon points="672.79 633.73 679.62 633.73 686.03 605.96 672.79 605.96 672.79 633.73" opacity="0.2"/><polygon points="724.53 639.04 717.7 639.04 711.29 605.96 724.53 605.96 724.53 639.04" opacity="0.2"/><polygon points="759.03 639.04 752.2 639.04 745.79 605.96 759.03 605.96 759.03 639.04" fill="#ccc"/><rect x="635.97" y="471.8" width="98.61" height="135.88" fill="#ccc"/><rect x="734.58" y="471.8" width="32.12" height="135.88" fill="#ccc"/><rect x="734.58" y="471.8" width="32.12" height="135.88" opacity="0.2"/><rect x="627.22" y="461.24" width="144.18" height="10.56" fill="#ccc"/><rect x="627.22" y="461.24" width="144.18" height="10.56" fill="#fff" opacity="0.2"/><rect x="738.85" y="461.24" width="32.55" height="10.56" opacity="0.2"/><rect x="641.87" y="478.49" width="82.67" height="122.7" opacity="0.2"/><rect x="645.61" y="481.74" width="75.18" height="26.04" fill="#ccc"/><rect x="645.61" y="511.79" width="75.18" height="26.04" fill="#ccc"/><rect x="645.61" y="541.84" width="75.18" height="26.04" fill="#ccc"/><rect x="645.61" y="571.89" width="75.18" height="26.04" fill="#ccc"/><path d="M685.28,496c.05,3.67-5.71,3.67-5.66,0S685.33,492.29,685.28,496Z" opacity="0.2"/><path d="M686,526.43c.05,3.67-5.71,3.67-5.66,0S686.08,522.76,686,526.43Z" opacity="0.2"/><path d="M686,556.9c.05,3.67-5.71,3.67-5.66,0S686.08,553.23,686,556.9Z" opacity="0.2"/><path d="M686,585.67c.05,3.67-5.71,3.67-5.66,0S686.08,582,686,585.67Z" opacity="0.2"/><path d="M764.71,217.12c-1.08,62.72-94.37,62.71-95.43,0C670.35,154.4,763.64,154.41,764.71,217.12Z" fill="#dedede"/><path d="M756.29,217.12c-.88,51.66-77.72,51.65-78.6,0C678.58,165.47,755.42,165.48,756.29,217.12Z" fill="#fafafa"/><path d="M719.86,217.41c0,3-4.61,3-4.57,0S719.9,214.45,719.86,217.41Z" fill="#dedede"/><path d="M717.84,217.41h-1.63c.51-.42-1.18-25.34.93-24.14a.69.69,0,0,1,.7.69Z" fill="#dedede"/><path d="M718.11,218.19l-1.47-1.56,25.55-24a1,1,0,0,1,1.5.28.89.89,0,0,1,0,1.28Z" fill="#dedede"/><rect x="680.83" y="216.91" width="7.83" height="1" fill="#dedede"/><rect x="745.63" y="216.91" width="7.83" height="1" fill="#dedede"/><rect x="716.62" y="245.39" width="1" height="7.83" fill="#dedede"/><rect x="716.75" y="180.75" width="1" height="7.83" fill="#dedede"/><path d="M748.52,200a1.18,1.18,0,0,1-2.36,0A1.18,1.18,0,0,1,748.52,200Z" fill="#dedede"/><path d="M737.11,187.53a1.19,1.19,0,0,1-2.37,0A1.19,1.19,0,0,1,737.11,187.53Z" fill="#dedede"/><path d="M701.46,186.88a1.19,1.19,0,0,1-2.37,0A1.19,1.19,0,0,1,701.46,186.88Z" fill="#dedede"/><path d="M688.93,198.53a1.19,1.19,0,0,1-2.37,0A1.19,1.19,0,0,1,688.93,198.53Z" fill="#dedede"/><path d="M699.76,246.57a1.19,1.19,0,0,1-2.37,0A1.19,1.19,0,0,1,699.76,246.57Z" fill="#dedede"/><path d="M688,234a1.19,1.19,0,0,1-2.37,0A1.19,1.19,0,0,1,688,234Z" fill="#dedede"/><path d="M735.53,247.49a1.19,1.19,0,0,1-2.37,0A1.19,1.19,0,0,1,735.53,247.49Z" fill="#dedede"/><path d="M747.73,235.84a1.19,1.19,0,0,1-2.37,0A1.19,1.19,0,0,1,747.73,235.84Z" fill="#dedede"/><polygon points="548.34 260.31 522.2 281.58 526.23 293.3 553.04 266 548.34 260.31" fill="#686175" data-primary="true"/><polygon points="548.34 260.31 522.2 281.58 526.23 293.3 553.04 266 548.34 260.31" opacity="0.2"/><path d="M679.29,380.78c-5-2.71-15-7.59-19.29-2.18,4.93,4.9,13.26,5.21,19.33,2.18" fill="#d1d3d4"/><path d="M679,380.41c-5.81-4.7-15-11.51-12.94-19.9,6.56,5.11,11.67,11.71,12.94,19.9" fill="#d1d3d4"/><path d="M679.23,380.72c-1.14-6.93-.35-15.32,5.88-19.64,2.19,7-2.22,14.57-5.83,20.41" fill="#d1d3d4"/><path d="M685.64,392.25a20.12,20.12,0,0,0-16,15.15c8.17-.7,11.12-9.75,15.93-15.09" fill="#d1d3d4"/><path d="M687,394a25.16,25.16,0,0,1,2.9-23.75c2.22,7.88,1.41,16.79-2.9,23.75" fill="#d1d3d4"/><path d="M695.49,404.12c-21.68.79-24.65,26.07.08,0" fill="#d1d3d4"/><path d="M695.22,403.58c-6.7-30.63,15.41-32.17.06-.18" fill="#d1d3d4"/><path d="M718.16,406.06c-1.52-6.35-.09-15.77,5.24-19.9,2.94,5.09-2.15,15.09-5.19,19.9" fill="#d1d3d4"/><path d="M720.19,407.43A27.84,27.84,0,0,0,743,402.75c-7.43-3.81-17.64-1.92-22.85,4.65" fill="#d1d3d4"/><path d="M721.88,403.23a26.46,26.46,0,0,1,20.75-12c-2.6,9.3-13.85,8.62-20.75,12" fill="#d1d3d4"/><path d="M718.59,382.83c2.4-7.77,4.59-16.73.23-24.21-4,7.77-4.42,16.87-.35,24.59" fill="#d1d3d4"/><path d="M732.11,376c4.68-8.53,14.27-15.34,24-16.3-3.75,9.3-13.94,16.5-24,16.3" fill="#d1d3d4"/><path d="M729.14,377.67c7,1.06,13,5.54,19.51,8.25,15.93,4.11,6.93-14.83-18.9-8.45" fill="#d1d3d4"/><path d="M725.1,382.58c27.41,21,25.07,2.71,0-.3" fill="#d1d3d4"/><path d="M720.57,353c5.93,5.32,14.51,8.7,22.41,7-1.77-6.48-16.41-9-22.45-7" fill="#d1d3d4"/><path d="M726,350.94a29.93,29.93,0,0,1,26.78-4.42c-7.08,6.8-17.85,6.72-26.82,4.44" fill="#d1d3d4"/><path d="M723.79,337.31c-.61-6.29-.21-11.24-.65-17.6-3.06-6.42-4.43,13.2.64,17.46" fill="#d1d3d4"/><path d="M723.38,338c6.37-4.53,14-11.4,13.76-19.79-10,.48-11.26,12.32-13.73,19.8" fill="#d1d3d4"/><path d="M733.59,335.17A84.09,84.09,0,0,0,759.26,320c-10.42-2.59-21,6.35-25.8,15.07" fill="#d1d3d4"/><path d="M726.19,341.45c9.69,1.48,20.08-.06,28.51-5-6.25-6.72-21.45,1.2-28.51,5" fill="#d1d3d4"/><path d="M699.16,353.14a25.2,25.2,0,0,1-.24-20.87c4.12,6.41.66,14.25.37,21.2" fill="#d1d3d4"/><path d="M686.24,346.63a29,29,0,0,0-21.63,9.21c8.39,1.19,15.75-4,22-9" fill="#d1d3d4"/><path d="M677.56,343.72c-7.66-1.19-16.9-.08-20.36,7.86,7.63.76,14.39-3.6,20.36-7.82" fill="#d1d3d4"/><path d="M690.41,343.85c-6.42-4.64-16.54-9.33-23.15-2.81,7.09,4,16.06.77,23.55,3.45" fill="#d1d3d4"/><path d="M690.43,344c-6.07-6-8.37-16.68-5.93-24.83A37.8,37.8,0,0,1,690.43,344" fill="#d1d3d4"/><path d="M707.14,327.14c3-7.46,5-18.59,14.72-19.56a30.29,30.29,0,0,1-14.61,19.68" fill="#d1d3d4"/><path d="M704.12,330.66c-3.45-5.31-8.55-12.1-15.72-10.48a21.07,21.07,0,0,0,15.72,10.48" fill="#d1d3d4"/><path d="M704.72,327.36c-2.53-6.09-5-13.37-1.48-19.57,3.34,6.3,4.41,13.11,1.65,19.67" fill="#d1d3d4"/><path d="M707.17,307.79c11.16-22.78,33.7-12,0,0" fill="#d1d3d4"/><path d="M707.24,302.68c.3-7.7,1.55-17.35,9.29-21,1.2,8.58-6.9,14.75-9.41,22.32" fill="#d1d3d4"/><path d="M707.14,305.45c-1.9-10.18-3.89-14.55-11-21.91-3.2,9.23,5.84,15.7,11.06,21.91" fill="#d1d3d4"/><path d="M706.64,440.41c-.28,3.8-.31-139.51,0-135.69C706.89,301,706.92,444.13,706.64,440.41Z" fill="#bcbec0"/><path d="M733.16,349.41c-7.35,3.53-23.28,5.62-26.58,13.9C709,354.82,726.11,352,733.16,349.41Z" fill="#bcbec0"/><path d="M741.88,328c-10.2,9.74-24.68,21.39-33.15,31.59C717.66,347.94,731.39,337.19,741.88,328Z" fill="#bcbec0"/><path d="M719.74,347.66c-.07.27,3.7-10.71,3.46-10.51A24.57,24.57,0,0,1,719.74,347.66Z" fill="#bcbec0"/><path d="M706.67,366.06c-5.27-6.7-12.36-15.5-17.58-22.22A181,181,0,0,1,706.67,366.06Z" fill="#bcbec0"/><path d="M700.85,358.58a12.84,12.84,0,0,1-3-9.17h.2c-.19.72-.23.7-.19,0h.19A21.91,21.91,0,0,0,700.85,358.58Z" fill="#bcbec0"/><path d="M693.33,349.14c-3.83-2.76-8.91-1-13.11-.12C684,347.47,690.18,345.68,693.33,349.14Z" fill="#bcbec0"/><path d="M691.55,346.84c-4.82-2.35-13.32-3-18.46-1.4A21.89,21.89,0,0,1,691.55,346.84Z" fill="#bcbec0"/><path d="M706.61,337.15a88.75,88.75,0,0,1-3.35-13.33A91.55,91.55,0,0,1,706.61,337.15Z" fill="#bcbec0"/><path d="M706.73,337.15a17.26,17.26,0,0,0-5.22-7.16A9.41,9.41,0,0,1,706.73,337.15Z" fill="#bcbec0"/><path d="M706.64,424.21c-3.58-17.72-22.84-27.39-27.83-44.33C684.31,396.17,704.3,407.3,706.64,424.21Z" fill="#bcbec0"/><path d="M730.63,397.12c-10.13,5.93-18.44,17.79-24,27.18C712.12,413.81,720.07,402.73,730.63,397.12Z" fill="#bcbec0"/><path d="M731.1,405.91c-5.62.59-12.82,2-16.52,6.38C718.18,407.15,725.19,405.88,731.1,405.91Z" fill="#bcbec0"/><path d="M715.3,411.32c-.14-.08,1.06-1.88,2-4.37s1.08-4.68,1.23-4.63A13.46,13.46,0,0,1,715.3,411.32Z" fill="#bcbec0"/><path d="M738.4,373.51a58.11,58.11,0,0,0-31.79,32.83A53.06,53.06,0,0,1,738.4,373.51Z" fill="#bcbec0"/><path d="M719.41,386.24c1.87-4.31,8-3.57,11.35-1.49C727,383.46,722.07,382.39,719.41,386.24Z" fill="#bcbec0"/><path d="M716.57,389.17a11.23,11.23,0,0,0,.94-7.94C718.9,383.47,718.29,387.41,716.57,389.17Z" fill="#bcbec0"/><path d="M724.32,446.49c.8.29-35.22.29-34.42,0C689.09,446.21,725.13,446.22,724.32,446.49Z" fill="#fafafa"/><path d="M723.78,450.7c.89.28-33.16.29-32.27,0C690.59,450.42,724.7,450.43,723.78,450.7Z" fill="#fafafa"/><path d="M202.58,310.79a63.71,63.71,0,0,0,3.24-6.83l19.54,13.3v4.5S217.32,322.67,202.58,310.79Z" fill="#f7a48b"/><path d="M195.19,250.44c-.14,9.58,14.92,9.58,14.77,0C210.1,240.85,195.05,240.85,195.19,250.44Z" fill="#f48225" data-secondary="true"/><path d="M207,285C195.6,318,231.3,331,243.68,298.33,255.12,265.34,219.42,252.38,207,285Z" fill="#f9b499"/><path d="M195.89,288.65c3.41,12.34,15.47,8.89,11.83-3.39C204.3,272.92,192.25,276.37,195.89,288.65Z" fill="#f9b499"/><path d="M197.12,279.32c4.31-4.66,9.47,2.08,10,6.3.92,5.14,6.26,3.7,6.26,3.7.09-18.89,3.59-2.94,10.48-19.76,4.21-4.44,13.42,1.11,17.24,2.73,4.11,2.85,4,18.51,4.41,18.47,21.61-26.63-33.54-58.63-50-27.39,0,0-7.44,17.7,2.77,30.14C198.3,293.51,193.93,283.15,197.12,279.32Z" fill="#2f2e41"/><path d="M210,247.39s26.08-15,2.87-18.72c0,0,7.88-19-11.22-14.24,0,0-10.66-22.88-18.57-.76,0,0-11.08-2.93-6.33,10.25-2.74.63-17.94,10-1.06,13.72,0,0-6.86,4.48-5.8,9.75a6.73,6.73,0,0,0,7.12,4.49s-5.9,7.8,1.58,9.14C184.19,262.88,204.83,249.23,210,247.39Z" fill="#2f2e41"/><path d="M520.33,274.1l-1.92-2.42s5.22-2.41,9.57-9.64A19.24,19.24,0,0,1,520.33,274.1Z" fill="#f7a48b"/><path d="M685.66,425.89c.65,11.61,4.15,23.43,9.53,35.35h23.42c5.14-11.82,8.39-23.61,9-35.35Z" fill="#bcbec0"/></svg>