<svg id="a187cb96-3674-4ae2-8a1a-e02c740cbc1c" data-name="Layer 1" xmlns="http://www.w3.org/2000/svg" width="865.76" height="682.89" viewBox="0 0 865.76 682.89"><path d="M749.2,439.23l34,9.06a15.92,15.92,0,0,1,7.91,4.95h0a15.88,15.88,0,0,1,3.18,15.13l-29.65,98.77-43.28-22.06Z" fill="#2f2e41"/><path d="M80.75,454.45,45,464a16.69,16.69,0,0,0-8.31,5.21h0a16.77,16.77,0,0,0-3.36,16L64.74,586.9l43.37-22.62Z" fill="#2f2e41"/><path d="M706.33,371.58,710.77,385s-5.2,10.92-16.7,15.22c0,0-.42-26.78.82-26.78S706.33,371.58,706.33,371.58Z" fill="#f4a58c"/><rect x="100.42" y="72.12" width="338.94" height="207.5" fill="#ccc"/><rect x="112.08" y="82.01" width="316.39" height="188.89" fill="#fff"/><path d="M183.19,129.24l-15.32-15.31,15.32-15.32,15.32,15.32Zm-13.9-15.31,13.9,13.9,13.9-13.9L183.19,100Z" fill="#ccc"/><path d="M203,170.08H163.37V152.34H203Zm-38.64-1H202V153.34H164.37Z" fill="#ccc"/><path d="M170.87,219.47H147.61V208.82h23.26Zm-22.26-1h21.26v-8.65H148.61Z" fill="#ccc"/><path d="M218.2,224.69H194.94V214H218.2Zm-22.26-1H217.2V215H195.94Z" fill="#ccc"/><path d="M260.51,232.41H237.25V221.77h23.26Zm-22.26-1h21.26v-8.64H238.25Z" fill="#ccc"/><rect x="182.69" y="128.54" width="1" height="23.96" fill="#ccc"/><rect x="182.69" y="169.82" width="1" height="16.31" fill="#ccc"/><rect x="158.74" y="219.25" width="1" height="8.31" fill="#ccc"/><polygon points="207.76 214.63 206.76 214.63 206.76 198.75 194.5 198.75 194.5 197.75 207.76 197.75 207.76 214.63" fill="#ccc"/><polygon points="159.59 209.37 158.59 209.37 158.59 197.75 171.84 197.75 171.84 198.75 159.59 198.75 159.59 209.37" fill="#ccc"/><path d="M183.19,209.74A11.8,11.8,0,1,1,195,198,11.81,11.81,0,0,1,183.19,209.74Zm0-22.59A10.8,10.8,0,1,0,194,198,10.81,10.81,0,0,0,183.19,187.15Z" fill="#ccc"/><path d="M166.06,240.51H152.41V226.86h13.65Zm-12.65-1h11.65V227.86H153.41Z" fill="#ccc"/><polygon points="237.21 227.41 221.76 227.41 221.76 219.44 218.08 219.44 218.08 218.44 222.76 218.44 222.76 226.41 237.21 226.41 237.21 227.41" fill="#ccc"/><circle cx="129.98" cy="136.69" r="8.24" fill="#ccc"/><circle cx="129.98" cy="158.67" r="8.24" fill="#ccc"/><circle cx="129.98" cy="180.65" r="8.24" fill="#ccc"/><circle cx="129.98" cy="202.63" r="8.24" fill="#ccc"/><polygon points="412.78 231.75 282.38 231.75 282.38 124.79 283.38 124.79 283.38 230.75 412.78 230.75 412.78 231.75" fill="#ccc"/><path d="M403,222.67c-34.49,0-47-33.9-50.1-45a59.86,59.86,0,0,0-5.21-12.79c-9-16.24-18.72-14-18.81-14l-.08,0h-.09c-.19,0-19.38-1.2-28.94,34.22a41.74,41.74,0,0,1-6,13.12c-2.67,3.8-7.35,7.64-11.15,7.64v-1c3.46,0,7.81-3.63,10.33-7.21a40.87,40.87,0,0,0,5.82-12.81c9.46-35,28.42-35,29.91-35,1.05-.24,10.76-1.9,19.86,14.46a61.4,61.4,0,0,1,5.3,13c3.32,11.74,17.31,49.57,57.48,43.6l.15,1A58.07,58.07,0,0,1,403,222.67Z" fill="#ccc"/><path d="M327.61,211.55c-11.8,0-18.59-11.51-18.67-11.64-8-15.93-26.4-15.2-26.59-15.19l-.05-1c.19,0,19.24-.79,27.52,15.71.07.12,8.55,14.47,22.86,10.39a22.28,22.28,0,0,0,11.1-7.57c5.53-6.79,19.85-22.06,33.39-17.27a17.18,17.18,0,0,1,7.19,5.1c3.75,4.36,16.8,18.49,27.57,17.44l.1,1a10.81,10.81,0,0,1-1.27.07c-10.63,0-22.44-12.37-27.16-17.85a16.29,16.29,0,0,0-6.76-4.81c-12.95-4.57-26.89,10.34-32.28,17a23.26,23.26,0,0,1-11.6,7.9A19.31,19.31,0,0,1,327.61,211.55Z" fill="#ccc"/><ellipse cx="305.77" cy="168.55" rx="2.94" ry="3.22" fill="#ccc"/><ellipse cx="380.08" cy="187.12" rx="2.94" ry="3.22" fill="#ccc"/><ellipse cx="329.22" cy="210.91" rx="2.94" ry="3.22" fill="#ccc"/><ellipse cx="403.89" cy="206.41" rx="2.94" ry="3.22" fill="#ccc"/><path d="M423.31,272.63l-6.79-8.09s-2.59-7.76-4.54-10.34-6.78-2.91-12.6-6.47-8.09-3.23-7.12,1,7.76,8.72,7.76,8.72-12.92-.31-13.89-.65-9.7-2.9-11.65-4.2-5.81,0-3.88,4.2,8.09,13.31,12.61,16.5,3.56,3.88,12.29,5.17,11,1,11,1l5.18,4.86Z" fill="#f9b499"/><path d="M381,271s-5.49-18.75-2.26-16.15,9.7,13.57,9.7,13.57,15.2-2.26,19.4,2.26" fill="#f9b499"/><polygon points="432.36 279.71 420.73 270.66 408.76 284.57 421.69 292.98 432.36 279.71" fill="#686175" data-primary="true"/><path d="M602.76,535.57H498s-9.47-127.42-9.81-131.74,7.66-27.28,7.66-27.28l.55-3.51,1.76-11.13-.85-2.31-.13-.34s32.93,9,34.92,9.31c.21,0,1.09.06,2.5.09h1.13c1.09,0,2.33,0,3.69,0,14.92.1,47.83,0,54.42-.05H595s2.94,23.9,3.27,27.2S602.76,535.57,602.76,535.57Z" fill="#2f2e41"/><g opacity="0.2"><path d="M550.38,431.54l-.12,0-23.61-6.65a.45.45,0,1,1,.25-.87l23.61,6.65a.47.47,0,0,1,.31.56A.46.46,0,0,1,550.38,431.54Z" fill="#fff"/></g><g opacity="0.2"><path d="M545.47,532.63a.45.45,0,0,1-.45-.43L541,429.11a.45.45,0,0,1,.43-.47.44.44,0,0,1,.47.43l4.07,103.09a.45.45,0,0,1-.43.47Z" fill="#fff"/></g><path d="M547.72,383.86c24.49-.9,35.29-2.07,47.84-10.72l-.56-4.51s-60.92.27-62.9-.06-34.92-9.32-34.92-9.32l1,2.66-1.67,10.65C504.33,376.18,525.13,384.68,547.72,383.86Z" fill="#2f2e41"/><path d="M594.4,373.14c-12.55,8.65-23.35,9.82-47.84,10.71-21.64.79-41.63-7-50.16-10.81l1.76-11.13-.85-2.31c6.11,1.66,31.88,8.67,33.63,9,.26,0,1.58.08,3.66.1h1.13c1.09,0,2.33,0,3.69,0,17.2.09,54.42-.07,54.42-.07v0Z" opacity="0.2"/><path d="M535.41,381.92h0a3.66,3.66,0,0,0,3.35,3.64l5.41.44a3.64,3.64,0,0,0,3.94-3.35l0-.36a3.65,3.65,0,0,0-3.58-3.93l-5.43-.1A3.66,3.66,0,0,0,535.41,381.92Z" fill="#fff"/><path d="M534.53,224.1S488.94,236.7,487.65,238s-7.44,38.16-7.44,38.16l-12,19.08L434,277.16s-6.8,3.23-8.41,5.17-10.65,12-7.76,15.2,43.91,32.34,50.12,36.21,8.73,4.86,11.64,1.62,17.14-22.95,17.14-22.95L496,354.09s-4.2,1.62-3.23,5.49a16.15,16.15,0,0,0,2.91,6.15h3.87s15.85,13.91,48.83,12.6,44-6.46,46.58-9.7,2.91-3.22,2.26-5.81a51.08,51.08,0,0,1-1-6.15l9.06-56.58,25.9,17.79s24.89,3.87,29.09,1,5.49-4.86,2.27-10.65-30.07-37.51-30.07-37.51-10.36-25.54-12-27.8-44.3-18.76-44.3-18.76Z" fill="#686175" data-primary="true"/><path d="M534.53,224.1S488.94,236.7,487.65,238s-7.44,38.16-7.44,38.16l-12,19.08L434,277.16s-6.8,3.23-8.41,5.17-10.65,12-7.76,15.2,43.91,32.34,50.12,36.21,8.73,4.86,11.64,1.62,17.14-22.95,17.14-22.95L496,354.09s-4.2,1.62-3.23,5.49a16.15,16.15,0,0,0,2.91,6.15h3.87s15.85,13.91,48.83,12.6,44-6.46,46.58-9.7,2.91-3.22,2.26-5.81a51.08,51.08,0,0,1-1-6.15l9.06-56.58,25.9,17.79s24.89,3.87,29.09,1,5.49-4.86,2.27-10.65-30.07-37.51-30.07-37.51-10.36-25.54-12-27.8-44.3-18.76-44.3-18.76Z" fill="#fff" opacity="0.2"/><path d="M543.93,214.08s-3.87.32-4.85,1.33-8.09,9.06-8.09,9.06,1,29.74,2.67,28.77,14.22-12.61,15.51-13.9,18.71,14.83,19.64,15.49,1.63,3.55,2.59.64,10.64-28.46,9.7-31S574,214.08,574,214.08,550.38,218.92,543.93,214.08Z" fill="#686175" data-primary="true"/><path d="M602.48,295.88l-10-5.16a18.74,18.74,0,0,0-5.18-4.86c-2.58-1.33-4.84,0-12.61-2.26s-10.65-2-9.32,1.62,9.32,3.87,9.32,3.87l3.23,2-21.7,4.21L545.15,300a1.34,1.34,0,0,0-.77,1.33h0a1.32,1.32,0,0,0,1.47,1.09l9.71-1.42,11.14-.8-18,8.21a2,2,0,0,0-1,2.08h0a2,2,0,0,0,2.25,1.59l.24-.06,17.66-4.15-11.44,8.85a1.73,1.73,0,0,0-.64,2.14h0a1.73,1.73,0,0,0,2.27.89l11.22-4.84-5.51,7.16a1.1,1.1,0,0,0,0,1.33h0a1.1,1.1,0,0,0,1.47.21c2.54-1.8,10.15-7.13,11-7.4s8.73-3.55,10-3.87,6.15-1.94,6.15-1.94L602.72,314Z" fill="#f9b499"/><path d="M612.14,297.5l-9.66-1.62-2,20.67,11,2.27S612.8,301.38,612.14,297.5Z" fill="#686175" data-primary="true"/><path d="M656.76,300.09s-43-6.47-44.62-2.59-4.52,23.28-.32,24.9S655.74,339.54,659,337s9.7-9.32,9.7-16.81S656.76,300.09,656.76,300.09Z" fill="#686175" data-primary="true"/><path d="M656.76,300.09s-43-6.47-44.62-2.59-4.52,23.28-.32,24.9S655.74,339.54,659,337s9.7-9.32,9.7-16.81S656.76,300.09,656.76,300.09Z" fill="#fff" opacity="0.2"/><g id="b633e774-aa5f-4e41-8597-f21848107ace" data-name="freepik--Table--inject-685"><polyline points="17.95 609.44 267.74 481.78 602.2 481.78 847.81 609.44" fill="#fff"/><polygon points="18.63 610.77 17.27 608.1 267.38 480.28 602.57 480.28 602.89 480.45 848.5 608.11 847.12 610.77 601.84 483.28 268.11 483.28 18.63 610.77" fill="#bcbec0"/></g><polygon points="426.74 516.97 385.18 543.55 445.83 549.68 480.57 522.43 426.74 516.97" fill="#ccc"/><polygon points="426.74 516.97 385.18 543.55 445.83 549.68 480.57 522.43 426.74 516.97" opacity="0.2"/><polygon points="460.13 526.51 415.17 557.85 474.44 563.99 513.28 533.33 460.13 526.51" fill="#ccc"/><polygon points="366.78 517.66 350.42 556.5 409.03 558.54 418.57 519.02 366.78 517.66" fill="#ccc"/><polygon points="519.93 506.02 584.25 504.17 623.49 542.23 547.71 545.5 519.93 506.02" fill="#2f2e41"/><polygon points="586.95 512.46 566.59 513.73 585.2 533.83 607.07 532.32 586.95 512.46" fill="#fff" opacity="0.5"/><polygon points="537.17 510.86 562.4 510.15 586.83 538.14 558.37 539.14 537.17 510.86" fill="#fff" opacity="0.5"/><polygon points="547.71 545.5 530.7 476.73 503.01 449.45 518.9 507.06 547.71 545.5" fill="#f48225" data-secondary="true"/><path d="M673.4,405.37s-19,7-21.84,10.05-10.75,56.16-10.75,56.16-8,2.77-8,4.86v2.07s-8.66,3.81-11.77,6.24-4.17,2.77,0,6.94,10.39,11.77,17.67,14.21,8.82,2.74,8.82,2.74l87,43.45s27.27-125.61,27.61-128.39-40.91-23.22-44.71-25.29S673.4,405.37,673.4,405.37Z" fill="#686175" data-primary="true"/><path d="M675.82,403.3s-3.81,4.15-3.46,5.89,1.33,11.44,1.33,13.86v14.6l12.14-31.54-2.09-5.9Z" fill="#686175" data-primary="true"/><path d="M675.82,403.3s-3.81,4.15-3.46,5.89,1.33,11.44,1.33,13.86v14.6l12.14-31.54-2.09-5.9Z" opacity="0.2"/><path d="M719.84,389.09l-9.1-4.08A47.74,47.74,0,0,1,681,409.54c-1.44,3.77-4.26,10.07-5.55,18.36C673.72,439,671,473,671,473S684.46,444.19,686.2,441s2.08-16.29,2.08-16.29,16.63-5.55,21.83-15.25S719.84,389.09,719.84,389.09Z" fill="#fff"/><path d="M695.4,362.41s.46-8.63,4.67-12.36,11.71.75,10.31,9-7.49,17.26-12.18,16.86" fill="#f9b499"/><path d="M679.67,414s4.84,3.13,16.28-1.73,17-12.83,17.68-16c.37-1.69-1.33-6.89-2.86-11.35C701.3,399.51,679,405.71,679,405.71Z" fill="#2f2e41"/><path d="M679.67,414s4.84,3.13,16.28-1.73,17-12.83,17.68-16c.37-1.69-1.33-6.89-2.86-11.35C701.3,399.51,679,405.71,679,405.71Z" fill="#2f2e41"/><polygon points="678.95 405.72 694.89 392.89 688.65 401.56 678.95 405.72" fill="#f4a58c"/><path d="M717.19,392.69c-6.06,8.11-21,27.47-28.89,32.1L695.93,438s20.8-18.71,24.6-27l3.82-8.31-3.09-9.26A2.32,2.32,0,0,0,717.19,392.69Z" fill="#686175" data-primary="true"/><path d="M717.19,392.69c-6.06,8.11-21,27.47-28.89,32.1L695.93,438s20.8-18.71,24.6-27l3.82-8.31-3.09-9.26A2.32,2.32,0,0,0,717.19,392.69Z" opacity="0.2"/><path d="M723.66,435.18l-6.93,60.31s-4.17,0-4.17,2.78a32.43,32.43,0,0,1-.69,5.89l-70,13.86s-25.29-3.46-27.39-2.76-7.9,6.09-10,7.82-10.55,9.58-9.17,11.66,7.29-2.92,7.29-2.92-5.12,7.35-2.35,6.66,6.31-4.57,6.31-4.57l5.41-3.34s-6.52,8.6-4.44,8.25,5.89-3.11,5.89-3.11l2.43-1.33s-4.52,4.5-2.08,5.19,7.63-4.85,7.63-4.85l4.49-2.78a12.37,12.37,0,0,0,9.72.69c5.89-1.73,10-3.46,10-3.46s83.84,7.63,89.43,5.9,11.1-2.09,12.48-5.2,13.18-104,14.56-106.08-21.84-11.08-21.84-11.08" fill="#686175" data-primary="true"/><path d="M657.4,515c2.49,2.45,5.32,7.11,5.72,15.7,5.06.43,10.86.92,16.94,1.41,3.73-12.65-3.84-19.71-4.92-20.62" fill="#686175" data-primary="true"/><path d="M657.4,515c2.49,2.45,5.32,7.11,5.72,15.7,5.06.43,10.86.92,16.94,1.41,3.73-12.65-3.84-19.71-4.92-20.62" opacity="0.2"/><path d="M657.39,515,641.86,518s-25.29-3.46-27.39-2.76-7.9,6.09-10,7.82-10.55,9.58-9.17,11.66,7.29-2.92,7.29-2.92-5.12,7.35-2.35,6.66,6.31-4.57,6.31-4.57l5.41-3.34s-6.52,8.6-4.44,8.25,5.89-3.11,5.89-3.11l2.43-1.33s-4.52,4.5-2.08,5.19,7.63-4.85,7.63-4.85l4.49-2.78a12.37,12.37,0,0,0,9.72.69c5.89-1.73,10-3.46,10-3.46s7.18.66,17.45,1.54C662.74,522.06,659.88,517.4,657.39,515Z" fill="#f9b499"/><path d="M619.78,488.35l-7.9,9.92s-24.12.82-28.18,1.83-9.31,13-9.31,15.39,2.43,2.24,3.65.62,4.85-9.12,4.85-9.12-4,11.75-4,13,2.66,0,2.66,0-.2,2.44,1.21,3,4.66-1.42,4.66-1.42.81,1.62,3.25.2,8.3-10.94,9.93-12,6.28-.2,6.28-.2-4.66,2.22-6.48,6.07-1.43,5.07-.2,4.67,5.32-4.46,7.69-5.68,8.51-.82,10.34-1.63,18.24-9.73,18.24-9.73-.21-9.11-5.68-12.76A14.6,14.6,0,0,0,619.78,488.35Z" fill="#f9b499"/><path d="M631.14,490.53a15.52,15.52,0,0,0-11.36-2.18l-5,6.29a14.17,14.17,0,0,1,13,13.31l8.69-4.14S637.25,494,631.14,490.53Z" fill="#686175" data-primary="true"/><path d="M631.14,490.53a15.52,15.52,0,0,0-11.36-2.18l-5,6.29a14.17,14.17,0,0,1,13,13.31l8.69-4.14S637.25,494,631.14,490.53Z" opacity="0.2"/><polygon points="362.69 505.18 292.74 503.23 253.75 543.27 332.38 545.61 362.69 505.18" fill="#2f2e41"/><polygon points="293.82 509.45 312.1 510.01 294.11 532.58 273.83 531.44 293.82 509.45" fill="#fff" opacity="0.5"/><polygon points="348.7 510.25 319.53 509.45 298.67 538.29 326.4 540.01 348.7 510.25" fill="#fff" opacity="0.5"/><polygon points="332.38 545.61 350.26 473.27 379.41 444.56 362.69 505.18 332.38 545.61" fill="#f48225" data-secondary="true"/><path d="M316.18,468.69s6.22,5.32,5.23,6.92-2.26.85-4.1.28-8.62-5.08-8.62-5.08S314.63,467.56,316.18,468.69Z" fill="#f9b499"/><path d="M308.69,470.81s10.74,8.05,9.61,9.18-2.26.57-5.51-.28-8.33-5.32-8.33-5.32Z" fill="#f9b499"/><path d="M304.61,476.24s6.06,5.23,5.92,5.8-.84,1.69-3.1,1.26-6.92-4-6.92-4Z" fill="#f9b499"/><path d="M278.4,479.4s17.73-16.64,18.29-16.92a133.47,133.47,0,0,1,16.53-2.26c3.39,0,12.15,6.91,11,7.62s-7.47-1-7.47-1h-3.68s-7.92,9-15.11,13.3a126.73,126.73,0,0,1-18,8Z" fill="#f9b499"/><path d="M294.33,469.13a1.4,1.4,0,1,1-.14-2.79h0l38.32-3.54a.7.7,0,0,1,.77.62.68.68,0,0,1-.6.77h0l-38.18,4.94Z" fill="#2f2e41"/><path d="M294.15,471.94s13.84-6.08,16-6.79,14.63,2,14.11,2.66-.13,1.84-2.82,2.55-8.9.27-8.9.27-7.77,7.22-11.87,10.46-7.35,5.33-11.44,5.79a46.31,46.31,0,0,1-7.63.15" fill="#f9b499"/><polygon points="268.08 481.06 278.39 479.4 280.47 493.02 269.73 495.08 268.08 481.06" fill="#f48225" data-secondary="true"/><polygon points="268.08 481.06 278.39 479.4 280.47 493.02 269.73 495.08 268.08 481.06" opacity="0.2"/><path d="M152.5,412.43s15.73,3,22.34,7.56,21.54,37,24,42.41,7.88,17.42,7.88,17.42,4.53-2.48,6.65-.42a9.31,9.31,0,0,1,2.47,4.54s49-6.65,52.28-2.89,2.47,9.91,1.65,14-.42,4.13-5.33,6.19-53.6,15.57-67.62,17.63-13.23-10.64-13.23-10.64,3.74-31.33-12.84-52-21.14-29.07-23.35-35.77S152.5,412.43,152.5,412.43Z" fill="#f48225" data-secondary="true"/><g opacity="0.2"><path d="M203.1,502.4a.47.47,0,0,1-.31-.12.44.44,0,0,1,0-.63c3.12-3.47,12.57-17.81,12.67-18a.45.45,0,0,1,.62-.12.44.44,0,0,1,.13.62c-.39.59-9.58,14.55-12.75,18.06A.44.44,0,0,1,203.1,502.4Z"/></g><g opacity="0.2"><path d="M199.56,488.63a.46.46,0,0,1-.34-.16.44.44,0,0,1,0-.63l6.72-6a.44.44,0,0,1,.63,0,.46.46,0,0,1,0,.64l-6.72,6A.46.46,0,0,1,199.56,488.63Z"/></g><path d="M167.57,426s2.19,4.42,14.63,16.91c11.58,11.57,16,25.57,13.31,41.9-2.11,13-1.92,26.62-4.63,39.46L108.11,564.2,79,435.88s24.62-15.07,40.41-20.22,27.95-4.4,33.07-3.3,8.81,2.2,8.81,2.2" fill="#f48225" data-secondary="true"/><g opacity="0.2"><path d="M180.21,512.8h0a.44.44,0,0,1-.42-.48c0-.24,1.63-24.73.41-34.51s-18.68-26.8-18.85-27a.45.45,0,0,1,.62-.65c.73.71,17.88,17.53,19.13,27.51s-.4,34.44-.41,34.68A.46.46,0,0,1,180.21,512.8Z"/></g><path d="M157.28,445.5l2.19-22.79-12.11-2.2A15.07,15.07,0,0,0,145.9,433C148.08,440.31,157.28,445.5,157.28,445.5Z" fill="#f48225" data-secondary="true"/><path d="M157.28,445.5l2.19-22.79-12.11-2.2A15.07,15.07,0,0,0,145.9,433C148.08,440.31,157.28,445.5,157.28,445.5Z" opacity="0.2"/><polygon points="159.47 422.71 169.77 437.78 158.38 436.3 159.47 422.71" fill="#f48225" data-secondary="true"/><polygon points="159.47 422.71 169.77 437.78 158.38 436.3 159.47 422.71" fill="#fff" opacity="0.4"/><polygon points="148.08 440.35 148.83 427.49 157.28 445.48 148.08 440.35" fill="#686175" data-primary="true"/><polygon points="148.08 440.35 148.83 427.49 157.28 445.48 148.08 440.35" fill="#fff" opacity="0.1"/><path d="M218.64,531.84s34.16-14.35,36.74-14.35,25.35,11,25.35,11l1.47,2.58s1.47.73.37,2.94-8.45,1.84-8.45,1.84,5.88,1.09,3.3,2.57-22,0-22,0a61.38,61.38,0,0,1-16.9,6.24C230,546.16,216.8,544,216.8,544Z" fill="#f9b499"/><polygon points="206.14 530.73 218.64 531.84 217.53 546.53 205.41 547.27 206.14 530.73" fill="#f48225" data-secondary="true"/><polygon points="206.14 530.73 218.64 531.84 217.53 546.53 205.41 547.27 206.14 530.73" opacity="0.2"/><g opacity="0.2"><path d="M105.47,542.92a.42.42,0,0,1-.28-.1.46.46,0,0,1-.07-.63c7.7-9.56,23.58-14.44,23.74-14.48a.44.44,0,0,1,.56.3.45.45,0,0,1-.3.56c-.16,0-15.77,4.85-23.3,14.18A.46.46,0,0,1,105.47,542.92Z"/></g><g opacity="0.2"><path d="M104.73,532.66a.47.47,0,0,1-.37-.19.46.46,0,0,1,.1-.63c6.63-4.78,22-7.33,22.62-7.44a.46.46,0,0,1,.51.38.43.43,0,0,1-.37.51c-.15,0-15.78,2.62-22.23,7.28A.43.43,0,0,1,104.73,532.66Z"/></g><path d="M678,546.83s9.9-2.34,9.87,4.71-2.52,17-6.2,18.83-10-1.88-10-1.88l-.08-4.24s8.19,3.77,9.8-1.87,2.2-10.84-6.09-9.42" fill="#a7a9ac"/><path d="M679.37,540.49l-3.18,37.64c0,3-7.42,5.33-16.59,5.33S643,581.07,643,578.13l-3.18-37.64Z" fill="#a7a9ac"/><ellipse cx="659.6" cy="540.49" rx="19.77" ry="6.35" fill="#fff" stroke="#939598" stroke-miterlimit="10"/><path d="M208.58,554.88s-9.6-2.36-10.15,4.78,1.07,17.13,4.56,19,10-1.91,10-1.91l.43-4.29s-8.4,3.82-9.55-1.89-1.33-11,6.8-9.53" fill="#a7a9ac"/><path d="M206.2,548.67l3.18,37.65c0,2.95,7.42,5.32,16.58,5.32s16.59-2.38,16.59-5.32l3.18-37.65Z" fill="#a7a9ac"/><path d="M245.73,548.67c0,3.51-8.85,6.35-19.77,6.35s-19.76-2.84-19.76-6.35,8.85-6.36,19.76-6.36S245.73,545.16,245.73,548.67Z" fill="#fff" stroke="#939598" stroke-miterlimit="10"/><polygon points="278.06 124.84 287.69 124.84 282.5 118.45 278.06 124.84" fill="#ccc"/><polygon points="412.85 226.41 412.85 236.04 419.23 230.85 412.85 226.41" fill="#ccc"/><ellipse cx="298.49" cy="187.84" rx="2.94" ry="3.22" fill="#ccc"/><ellipse cx="673.41" cy="371.58" rx="26.72" ry="37.19" transform="matrix(0.96, -0.27, 0.27, 0.96, -75.91, 198.16)" fill="#f9b499"/><path d="M688,354.42l2.76,2.42,1,7.63s3.48,2.43,4.51-1-.69-9.32,3.46-11.43,8-2.78,8,4.5-3.82,19.07-3.82,19.07,3.47,4.16,4.16,2.42,5.54-30.16,5.54-30.16a71.34,71.34,0,0,0-11.43-5.55C697.66,340.9,688,354.42,688,354.42Z" fill="#2f2e41"/><path d="M674.44,343.34s-8.67,3.8-9.32,8-5.55,10.74-12.83,10.74-6.59-8-10.74-8.32-11.79,1-11.79-11.44,8.67-13.16,12.14-15.6-1-2.77,4.5-9.7,10.4-4.51,15.25-4.51,3.47-6.59,12.13-7.28S685.57,307.3,687,309s8.66-.35,13.86,3.11,5.54,6.59,8.32,9.72,8,1,7.28,8-2.78,10.05-1.73,11.78,3.11,1.74,2.08,4.86-4.86,5.89-4.51,6.93-8,1.73-12.49-1.33-3.46,2.42-11.77,2.42S673.4,347.83,674.44,343.34Z" fill="#2f2e41"/><path d="M580.74,142.92c-6.79-4.85-20.7-5.49-20.7-5.49-7.42-.68-11.39,5.95-13.48,12.19-8.79,3-17.2,13.15-21,26.68-5.05,18.13.17,35.43,11.65,38.62a13.11,13.11,0,0,0,2.23.43c1.93,6.9,9.67,33.71,12.49,32,3.23-1.93,21.66-30.72,21.66-30.72l3.55-13.58s13.31-5.83,17.14-24.89S587.52,147.78,580.74,142.92Z" fill="#f9b499"/><path d="M541.87,151.91s21.62,1.7,14.51,6.22-10.35,4.86-5.49,8.1,9.05,10.34,9.05,10.34-3.56,7.11-2,8.41,3.56,1.62,4.86-.32,5.16-8.73,10.65-7.12,4.84,8.73.63,13.3a21.51,21.51,0,0,1-10,5.82s7.76,4.52,10.34,5.5a12.4,12.4,0,0,0,4.21.09c3.65-2.24,12.48-9,15.53-24,3.9-19.12-6.77-30.44-13.56-35.29s-20.69-5.5-20.69-5.5C550.24,135.53,541.87,151.91,541.87,151.91Z" fill="#2f2e41"/><polygon points="539.48 215.39 550.47 215.06 556.93 208.27 544.02 230.46 539.48 215.39" fill="#f4a58c"/><path d="M176.92,356.22c-5.76-22-22.27-36.71-36.87-32.88-13,3.4-20.06,20.27-17.47,39.39-5,17.48-8.72,39.77-6.16,49.75,4,15.8,11.76,13.23,11.76,13.23l20.2,11a46.25,46.25,0,0,1,.38-18.38,57.91,57.91,0,0,1,5.48-14.89,19,19,0,0,0,6.67-.5C175.52,399.13,182.68,378.2,176.92,356.22Z" fill="#f9b499"/><path d="M154.24,403.46l-1.92,4a39.09,39.09,0,0,1-13.08-10.26S147.58,404,154.24,403.46Z" fill="#f4a58c"/><polygon points="130.82 423.82 148.83 427.49 157.28 445.48 148.08 440.35 143.68 456.14 115.39 425.28 130.82 423.82" fill="#f48225" data-secondary="true"/><polygon points="130.82 423.82 148.83 427.49 157.28 445.48 148.08 440.35 143.68 456.14 115.39 425.28 130.82 423.82" opacity="0.2"/><path d="M172,320.94s.37,2.94-4.78,10.29-25.35,16.52-30.86,20.94S123.84,394.05,124.94,404s2.21,13.58,7.72,13.58a13.11,13.11,0,0,0,9.18-4.4S140,429.69,131.55,433s-19.1-3.31-28.29-2.57-18,8.81-22.41,12.13-6.25,6.24-15.06,1.09-5.15-12.86-5.15-12.86,7.72,4,12.12-5.51,7.72-2.57,3.68-25.28-5.14-36,8.46-61S115,311.45,115,311.45,134.5,308.82,172,320.94Z" fill="#2f2e41"/><path d="M127.88,436.31s-14.7-15.06-23.51-15.79-28.29,4.4-28.29,27.56,11.39,60.26,12.85,84.14,12.12,37.48,15.44,37.1,44.09-2.59,68.28-9.92,30.87-7.72,32.71-12.13,2.57-12.49.73-16.54-72-2.94-73.48-2.94-11.4-68.33-11.4-68.33" fill="#f48225" data-secondary="true"/></svg>