<svg xmlns="http://www.w3.org/2000/svg" width="865.76" height="682.89" viewBox="0 0 865.76 682.89"><g style="isolation:isolate"><g id="b0c7db5e-74ea-4c9f-ad9e-7e64fa6e8745" data-name="Layer 1"><path d="M388.11,250.05l13.62,12.11-6,15.77-15.52-6.68c-5.7-2.43-9.53-14.49-5.53-19.23l.2-.22A10.36,10.36,0,0,1,388.11,250.05Z" fill="#f9b499"/><path d="M290.29,238.77c-13-2.09-24-9.56-22.73-22.06s16.38-31.66,26.05-35.15,13.75-3.37,25.35.85,16.91,17.48,10.19,21.63-5.65,6.09-.59,9.53,5.59,13-4.15,17.87-13.48,2.28-13.48,2.28S303.32,240.85,290.29,238.77Z" fill="#2f2e41"/><path d="M315.28,324.14c-4.33-.15-32.13-6.52-47.33-1.3s-14.12,7.28-14.24,11,2.79,11.64,2.79,11.64,5.08,12.3,5.15,18.66-6.43,18.57-9.64,29.15S253.45,420,255.68,431s23.89,63.17,24.89,67.55,1.73,26.05,1.73,26.05-3.67,14.9-6.54,31.56-2.4,36.87-2.65,44.38-4.34,25.9-6.43,28.11-7.43,6.38-5.56,10.78,14.71,8.86,16.35,11.81,6.12,7.15,10.14,7.86,13.26,1,13.26,1,5.76.47,6.65-.36,1.46-2.25-.76-3.2-9.12-4-10.79-5.56-9.55-16.79-9.55-16.79-1.88-4.39-.61-16.19,14.32-56.41,16.8-61.54,7-19.12,7.27-27.2,4.62-17.46,4.62-17.46,10.17-28.24,10.74-45.26-3.43-35.62-3.58-39.68.09-12.43.34-18.48-1.46-15.07-1.23-22.57.64-18.77,1.46-26.24-1.13-18.24-1.13-18.24C321.3,335.58,319.61,324.28,315.28,324.14Z" fill="#f7a88f"/><path d="M257.24,385.44a21.81,21.81,0,0,1-6.57,6.12c-4.42,2.74-24.32,26.94-24.69,46.57s12.35,27.84,12.88,29.32,13,17.45,18.5,25.44,29.19,31.16,29.14,32.61-.45,4.9-.45,4.9-5.49,3.54-12,18.05-5.47,32.33-6.29,39.52-4.14,29-5.4,32.17-9.23,7.21-10.75,10.33.3,8.1,3.38,11.09,6.07,8.59,8.89,10.7,6.37,8,9.51,9.27,10.66.94,12.1.7,7.18,1.34,6.68-.94-6.24-3.95-7.28-7.18-9.78-17.67-9.41-20.83,3.21-10.58,4.9-18,28-59.42,28.34-61.15,7.93-12.44,10.13-17.86-.64-16.77-3.09-28.7S305.1,472,298.58,460.75,282.31,433,281.42,425.13s-5.05-21.74-5.05-21.74" fill="#f9b499"/><path d="M288.49,442.29c2.5-.33,5.47.49,12.41-4,12.15-7.87,21-14.95,21-17.16a62.16,62.16,0,0,0,.19-8.74s-4.52,8.12-27.56,3.68c-13.07-2.54-42-28-42-28l-13.68,16.74s25.4-1.74,37.58,13.93c3.79,4.87,4.62,8.6,5.52,10.29C282.63,430.35,286.86,439,288.49,442.29Z" fill="#fff"/><path d="M267.93,246.56c-1.57,4.56-12.43,20.68-13.36,21.22s-2.94.46-7.35,2.63-11.81,6.25-12.38,16,9.8,27.48,9.8,27.48,3.11,10.8,5.19,17.79a56.67,56.67,0,0,0,6.76,13.8c32.94,8.07,64.55-4.19,64.55-4.19l.35-2a27.81,27.81,0,0,0,5.09-5c2.41-3.1,7.07-11.9,3-21.28s-20-15.68-20.83-17.15-3.62-12.25-7.82-16.44-21.18-5.92-21.18-5.92.26-6.63,1.49-10a47.38,47.38,0,0,1,4.61-8.22S269.5,242,267.93,246.56Z" fill="#f9b499"/><path d="M259.48,260.9c7.8,2.07,17.37,2.45,21.79,2.45a49.2,49.2,0,0,1,4.56-8.1s-16.3-13.26-17.9-8.69C267,249.21,262.94,255.77,259.48,260.9Z" fill="#f7a88f"/><path d="M302,307.55a.59.59,0,0,0,.43-.17.61.61,0,0,0,0-.85,35,35,0,0,0-8.63-6.3.6.6,0,0,0-.55,1.07,33.45,33.45,0,0,1,8.33,6.08A.58.58,0,0,0,302,307.55Z" fill="#f7a88f"/><path d="M264.61,387.52c7.62,49.06,77,61.48,86.65,6.7,3.85-21.55-13.48-46.49-25.74-54.84" fill="#fff"/><path d="M344,382.4c.51-.07,1.07,1.11,1.23,2.62s-.2,2.77-.7,2.83-1.07-1.12-1.23-2.62S343.49,382.46,344,382.4Z" fill="#fff" stroke="#263238" stroke-linecap="round" stroke-linejoin="round"/><path d="M308.76,295.88l-24.24-21.7c-2.78-.42-4.76-.63-4.76-.63s19.28,19.76,23.67,26.5-8.2,11.86-18.2,8.58S267,292.44,263.8,284.53s-7.8-17.6-7.8-17.6h-.73a5.44,5.44,0,0,1-.74.85,4.74,4.74,0,0,1-1.22.41c2.15,6.14,10.84,31.52,10.54,40.63-.25,7.46-11,11.3-17,12.85.94,3.27,2,7,2.94,10.06a64.52,64.52,0,0,0,7.09,14.73c32.95,8.06,63.87-3.92,63.87-3.92h.62s2,1.19,7-.4c13-4.12,14.34-19.93,5.58-29.49C327.08,305.13,309.59,297.35,308.76,295.88Z" fill="#f48225" data-secondary="true"/><path d="M291.53,226.27a16.7,16.7,0,0,1,11.38,2.26" fill="none" stroke="#263238" stroke-linecap="round" stroke-linejoin="round"/><path d="M315.84,231.92a53.63,53.63,0,0,0,.2-20.36c-3.55-6.43-12.9-2.23-29.89,5.57s-19.29,12.31-20.74,19.79,3.28,15.59,4.91,17.73,11.73,14.41,17.15,12.7C314.81,258.72,315.84,231.92,315.84,231.92Z" fill="#f9b499"/><path d="M329.12,341.89S372.3,378,341.07,418.42a11,11,0,0,1-1.27,1.37A35.91,35.91,0,0,1,321.88,429s25.45,87.53,3.42,139.62l-8.38-3.43,8.38-51.41-8.38,53.47s-13.31,3.08-20.85-5.14c0,0-2.1-4.46-8-1.26,0,0-9.62,4.57-23.5-4.57,0,0-18,1.37-32.18-10.51,0,0-12.33-.91-23.29-17.36,0,0,3.77-102.7,39.17-135.26,0,0,18.29-20.47,8.24-47.66,0,0,28,6,43.3-.17,0,0,13.73-.7,21.25-4A10.46,10.46,0,0,0,329.12,341.89Z" fill="#f48225" data-secondary="true"/><g opacity="0.2"><path d="M285.71,350c12.83,0,20.86-7.24,21.57-19.57a.39.39,0,0,0-.37-.42h0a.39.39,0,0,0-.4.37c-.71,12.21-8.93,19.23-21.92,18.81a24.09,24.09,0,0,1-19.69-11.34.4.4,0,0,0-.67.43A24.89,24.89,0,0,0,284.54,350Z" fill="#263238"/></g><path d="M350.12,403.09a35.11,35.11,0,0,0-2.73,4.91c-1.26,2.75-.47,3.45,1.53,1.68s5.76-5.65,5.34-6.88-3.54-4-3.54-4Z" fill="#f9b499"/><path d="M350.45,399.15a35.92,35.92,0,0,0-2,5.22c-.87,2.9,0,3.47,1.74,1.45s4.92-6.38,4.35-7.54-4.06-3.48-4.06-3.48Z" fill="#f9b499"/><path d="M351.62,395.67a34.86,34.86,0,0,0-2,5.22c-.87,2.9,0,3.47,1.74,1.44s4.93-6.38,4.35-7.53-4.05-3.48-4.05-3.48Z" fill="#f9b499"/><path d="M351.81,390.75a35.88,35.88,0,0,0-2.17,5.16c-.95,2.87-.11,3.42,1.69,1.5s5.11-6.21,4.56-7.35-4-3.6-4-3.6Z" fill="#f9b499"/><path d="M351.89,385.82l1.37-.31a6.47,6.47,0,0,0,2.89,2.89c2,.91,2.44,0,1.83-1.22s-2.6-5.2-3.51-5.8-3,.31-3,.31Z" fill="#f9b499"/><path d="M248.55,271.06c-20.72-2.15-28.64,10.77-33.8,18.11s-6.46,11.53-9,16.36-17.49,40-18.44,42.61.94,5,9.63,13.9,34.42,24.51,34.42,24.51,6.13,3,8.58,4.34c6.24,3.38,13.25,1,13.25,1s9.63,6.15,11,7.35,3.24.1,2.92-.77S257,390.07,257,390.07s7.41,2.85,8.83,3.76,3.93,3.3,4.79,3.62,2.63-.79,1-2.86-9-6.65-9-6.65l6,1.36s2,1.54,3.11,2.45a3.51,3.51,0,0,0,4,.43c1.18-.84-3.06-3.86-3.89-4.76s-10-3.52-10-3.52,5.15-.35,6.38-.35a9.67,9.67,0,0,1,4.27,1.58c1.45.92,3.41,3,4.9,1.32s-2.48-3.26-5.33-4.8a16.94,16.94,0,0,0-9.46-2c-3.76.19-16.26,2.64-16.26,2.64a52.71,52.71,0,0,1-12.45-7.65c-6.21-5.11-23.37-26.78-23.37-26.78s20-27.35,20.89-28.76,11.62-19.25,11.62-19.25" fill="#f9b499"/><path d="M308.5,189.38c-1.11-4.22-6.8-9.42-6.8-9.42-9.41-10.58-34.18-5.89-44.64.24-15,8.78-20.24,27.83-26.22,43-2.23,5.81-23.75,9.65-26.74,24.19s8.62,17.84,9.38,20-6.52,7.31-5.8,23.22,21.59,16.62,26.37,23.89-2.86,10.77-2.86,10.77,11.11,5.38,17.55.59,11.83-14.64,10.61-29.74-7-18.23-5.66-20.69,12.39-7.55,15.17-15.8-1.45-19.27-1.45-19.27c5.09-1.93,10-10.89,12.65-15.47s14.18-.37,23.91-2.13,13.48-13.76,13.48-13.76" fill="#2f2e41"/><g opacity="0.2"><path d="M317.67,565.5c.13-.38,13.08-37.57,5.21-64.24l-1.53.45c7.72,26.17-5.06,62.89-5.18,63.25Z" fill="#263238"/></g><path d="M408.43,644.54c-.15.55-2.27.46-4.75-.19s-4.36-1.62-4.22-2.17,2.27-.46,4.74.2S408.57,644,408.43,644.54Z" fill="#fff" opacity="0.5" style="mix-blend-mode:soft-light"/><ellipse cx="535.81" cy="196.3" rx="28.82" ry="20.08" transform="translate(273.34 702.99) rotate(-82.74)" fill="#f9b499"/><ellipse cx="556.75" cy="200.32" rx="5.41" ry="3.66" transform="translate(195.07 668.6) rotate(-72.11)" fill="#f9b499"/><path d="M519.8,180.91s-3.29-7.65,0-12.94c0,0-1.79-23,21.87-22,0,0,18.29,5.83,28.1,12.53a16.29,16.29,0,0,1,5.52,6.51c4.29,9,12.09,33-16.09,47.3l-.24-8.48s2.82-3.72,1.14-6.84a3.17,3.17,0,0,0-5.37-.47,2.63,2.63,0,0,0-.2.33s-3.7-24.59-15.68-24.82c0,0-8.38,2-11.86-.33C527,171.73,521.91,175.88,519.8,180.91Z" fill="#2f2e41"/><path d="M532.17,224.89s-2.14,6-4.07,12.32l5.4,6,28.81-16.58-3.11-14.26-.24-8.48a4.2,4.2,0,0,1-4.55,1.32S549,225,532.17,224.89Z" fill="#f9b499"/><polygon points="532.46 234.78 530.03 230.85 531.4 227.08 538.25 230.85 560.98 220.51 562.31 226.6 542.64 237.21 538.25 230.85 532.46 234.78" fill="#2f2e41"/><path d="M530,230.85a103.93,103.93,0,0,0-5.14,39.66s11.24-27.64,27.2-38.48l-9.45,5.18-4.39-6.36-5.8,3.93Z" fill="#ccc"/><path d="M524.89,270.51,547.4,252l1.12-6.35,9.16-1.31L567,226.56s-3.58-.75-5.79.46l-9.14,5S539.18,239,524.89,270.51Z" fill="#fff"/><path d="M524.89,270.51l-7.38-19.83,3.69-4.13-3.69-3.93s5.32-10.74,12.52-11.77C530,230.85,523.49,245.15,524.89,270.51Z" fill="#fff"/><path d="M491.91,444.54h94.16l4.11-145s25.41,65,25.78,108l26.16-.75s-2.24-150.21-74.92-180.47l-9.34,17.75-9.16,1.3-1.11,6.36-22.51,18.54-7.38-19.83,3.69-4.13-3.69-3.92s4.62-9.67,12.51-11.77l-.38.07a29.5,29.5,0,0,0-23.54,26.71Z" fill="#686175" data-primary="true"/><g opacity="0.2"><rect x="441.83" y="349.29" width="158.74" height="1" transform="translate(147.34 854) rotate(-87.31)" fill="#263238"/></g><path d="M503.42,292.56s-20.94,12.85-50.49,9.23a33.57,33.57,0,0,1-9.68-2.67L395.7,277.93,403,258.88l52.42,16.32a15.35,15.35,0,0,0,13.07-1.89L512.61,246s-3.3,2.93-4,12Z" fill="#686175" data-primary="true"/><path d="M500.7,444.76l32.88,193.92h24.66s3-120.31-15.7-151.69l2.25-31.39L558.41,496l87.26,139,20.92-12.71s-25.41-105.36-78.46-134.51l-2.24-43Z" fill="#2f2e41"/><path d="M558.72,640.88V655.5a2.19,2.19,0,0,1-2.19,2.19H508.14a7.06,7.06,0,0,1,7.11-7.06h1.51a9.34,9.34,0,0,0,6.42-2.48l10.25-9.48h23.1A2.2,2.2,0,0,1,558.72,640.88Z" fill="#686175" data-primary="true"/><rect x="506.67" y="657.69" width="53.8" height="4.87" rx="1.86" transform="translate(1067.15 1320.25) rotate(180)" fill="#2f2e41"/><path d="M667.46,622.73l7.29,12.67a2.18,2.18,0,0,1-.8,3l-42,24.14h0a7,7,0,0,1,2.65-9.66l1.31-.75a9.36,9.36,0,0,0,4.33-5.35l4.15-13.33,20-11.52A2.19,2.19,0,0,1,667.46,622.73Z" fill="#686175" data-primary="true"/><rect x="628.36" y="649.52" width="53.8" height="4.87" rx="1.86" transform="translate(1548.38 890.2) rotate(150.08)" fill="#2f2e41"/><path d="M613.8,429.07,621,407.4l21.16-.6-.19,21c0,7.72-11.93,18-19.31,15.71l-.35-.12A12.9,12.9,0,0,1,613.8,429.07Z" fill="#f9b499"/><path d="M392.93,15.82H394a1.71,1.71,0,0,1,1.71,1.71V243.18a0,0,0,0,1,0,0h-4.48a0,0,0,0,1,0,0V17.54a1.71,1.71,0,0,1,1.71-1.71Z" fill="#bcbec0"/><path d="M359.83,253.09h0a3.73,3.73,0,0,1,3.74,3.73v.8a12.89,12.89,0,0,0,12.89,12.89h0a12.89,12.89,0,0,0,12.89-12.89V244.68a3.92,3.92,0,0,1,3.92-3.92h0a3.92,3.92,0,0,1,3.93,3.92V258.5a19.71,19.71,0,0,1-19.71,19.71h0a21.39,21.39,0,0,1-21.39-21.39h0A3.73,3.73,0,0,1,359.83,253.09Z" fill="#d1d3d4"/><path d="M245.12,140.62S282.49,50.57,393.46,27.78c0,0,102.21,13.47,148.34,112.84,0,0-27.65-24.66-58.67,0,0,0-30.63-25.41-59,0,0,0-28-26.9-60.9,1.87,0,0-19.81-27.65-59-1.87C304.16,140.62,279.87,116.71,245.12,140.62Z" fill="#d1d3d4"/><path d="M363.2,142.49c-24.67-27.65-59-1.87-59-1.87s26.53-98.27,89.3-112.84C393.46,27.78,362.07,90.18,363.2,142.49Z" fill="#263238" opacity="0.2"/><path d="M424.1,140.62s-7.85-91.17-30.64-112.84c0,0,59.78,16.07,89.67,112.84C483.13,140.62,454.36,115.59,424.1,140.62Z" fill="#263238" opacity="0.2"/><path d="M379.69,84.47s9.83.52,13.78-3.53c0,0,5,3.86,13.76,3.54V103s-.22,6.11-6.79,10l-7,4.63-8.1-5.46a8.91,8.91,0,0,1-1.11-.82,12.85,12.85,0,0,1-4.56-9.86Z" fill="#f48225" data-secondary="true"/><path d="M383.26,88.46s6.77.29,10.2-2.71a16.21,16.21,0,0,0,10.09,2.72l.31,13.07a9.46,9.46,0,0,1-3.16,6.75,8.87,8.87,0,0,1-1.07.85c-1.29.86-4.86,3.27-6.07,4.12L388,109.6a11.78,11.78,0,0,1-3-2.76,8.18,8.18,0,0,1-1.8-5Z" fill="#263238" opacity="0.2"/><path d="M392.82,101.91l11.62-14.2a1.2,1.2,0,0,1,1.78-.09h0a1.2,1.2,0,0,1,.08,1.59L393.56,105a1.24,1.24,0,0,1-1.73,0l-7.46-9a1.35,1.35,0,0,1,.17-1.9h0a1.35,1.35,0,0,1,1.9.17Z" fill="#fff"/></g></g></svg>