<svg id="a0c49139-1b74-4816-8525-20125b466545" data-name="Layer 1" xmlns="http://www.w3.org/2000/svg" width="865.76" height="682.89" viewBox="0 0 865.76 682.89"><path d="M278.26,547.82,277,591.35c-3.47,6.71-18.63,15.37-18.63,15.37-2.59-2.17-3.9-17.11-3.9-17.11-.88-17.15-7.54-40.07-10-47.92a39.81,39.81,0,0,0-1.74-4.55c-4-9.13-7-28.05-7.33-30.44,8,.5,33.5-7.32,39.57-9.23l.13,0,.34-.09C279.77,508,278.26,547.82,278.26,547.82Z" fill="#f9b499"/><path d="M396.39,198.68S351.32,219.74,356,231.54c0,0,1,7.3,13.2,13.06,0,0,17.27,14,35.81,7.16,0,0,18.26-9.13,22.89-21.49Z" fill="#f9b499"/><path d="M447.45,53.23c-4.95,1.18-14.16,10.44-19.59,16A44.89,44.89,0,0,0,422,76.4c-3.5,5.43-10.89,14.63-13.83,18.24-.86,1.06-1.67,2.14-2.44,3.27l-3.69,5.38c-1.95,2.79-3.46,16.18-4.36,26.51a109.1,109.1,0,0,0,.19,20.84c1.12,10.75,1.73,24.47,1.73,24.47a182.31,182.31,0,0,0-3.81,18C369.88,201.32,351,221.2,351,221.2c8.55-13.43,14.31-38.61,14.31-38.61s-.57-13.28,1.57-21.21c0,0,.61-50.06,10.07-68.37,0,0-.85-5.93,2.75-9.68a35.86,35.86,0,0,0,4.68-5.69c4.26-6.86,17-21.75,51.47-33.77,0,0,4.58-6.1,9.16-7.63,0,0,1.53-3.66-.61-6.26,0,0-4.73-2.74-1.83-5,0,0,2.14-2.75,7.48,2.44,0,0,2.44,2.75,2.13,8.24,0,0,6-.61,10.53,1.37,0,0,8.55,1.53,11.14,4.73l3.21,4.12s4.58,1.38,6.41,4.58c0,0,4.42,2.14,4.88,4.28,0,0,5.95,4.12,5,6.1,0,0-.46,3.2-4.27,1.37l-5.8-4.27s-6.26-1.83-8.09-2.9l.3.92s13,9.92,11.75,13.58c0,0-1.06,4-5,.46,0,0-5-6.11-10.07-8.55a6.69,6.69,0,0,1-3.06-2.14A21.35,21.35,0,0,1,465,56.86,14.85,14.85,0,0,0,458.49,54C454.78,53.32,449.91,52.65,447.45,53.23Z" fill="#f9b499"/><path d="M415.82,319.53c5.44,5.5,19,20.07,18.25,27.89,0,0-1.83,25-52.09,40.28,0,0-25.44,7.54-40.08-1,0,0-8.65-3.42-11.41-9A7.36,7.36,0,0,1,330,372a8.94,8.94,0,0,0,.17-4.21c-.91-5.05-2.44-16.62.1-26.53a39.39,39.39,0,0,0,1-13.33c-1-10.9-2.56-29.91-1.85-38.56a33.14,33.14,0,0,0,.11-4.46,107.26,107.26,0,0,0-2.32-17.86,30.21,30.21,0,0,0-1.3-4.22c-1.48-3.93-4.25-15.51,8.15-27.07l16.88-15s18.12-19.91,44.83-28.3c0,0-.73,5.25-.26,7.39,0,0-39.07,21.82-38.46,28.69,0,0-1.38,7,12.21,14,0,0,22.27,16.8,38.91,5.5,0,0,14-10.68,18.47-17.09,0,0,9.35,2.69,19.12-5.1l.77,1.68s-22,21.82-20,38.76c0,0-2,13.74.46,16.18,0,0,2.13,5.5,4,7.48,0,0,.75,2.44-2.45,3.51,0,0-9.3,9.15-10.68,13.12a12.09,12.09,0,0,1-2.28,8.6A3.26,3.26,0,0,0,415.82,319.53Z" fill="#686175" data-primary="true"/><path d="M455.9,235.22s-10.29-2.95-10.38-8.41c0,0,9.23-5.44,16.78-21.16L459.4,224S456.06,232.44,455.9,235.22Z" fill="#f48225" data-secondary="true"/><path d="M455.9,235.22s-10.29-2.95-10.38-8.41c0,0,9.23-5.44,16.78-21.16L459.4,224S456.06,232.44,455.9,235.22Z" opacity="0.2"/><path d="M430.86,291.63a69.3,69.3,0,0,0,10.61-7.72s7.83-7.75,12-2.43c0,0,10.23,7.87,14.66,10.16,0,0-14.13-22.11-12.68-40.92,0,0,.88-7.79,1.32-16.15,0,0-8.7-1.57-11-5.85,0,0-8.52,8-16.3,22.79,0,0-3.75,5.71-3.13,15.26,0,0-2,13.66.45,16.18,0,0,2.38,5.87,4,7.47Z" fill="#f9b499"/><path d="M441.93,283.41s-1.29,15.81-8.38,19.64a.56.56,0,0,0,.07,1,133.89,133.89,0,0,0,16.71,4.4,10.39,10.39,0,0,1,7,4.73c1.86,3,4.72,6.9,8,8.86A5.43,5.43,0,0,0,473,320a30.87,30.87,0,0,0,3-17.57A87.79,87.79,0,0,1,467.26,291s-9.28-5.9-13.55-9.56C453.71,281.48,450,276.08,441.93,283.41Z" fill="#f48225" data-secondary="true"/><path d="M494.61,306.17s32.13,20.42,72.14,17.15c0,0,21.24-1.09,33.76-4.63A43.82,43.82,0,0,1,613,317.6s8.44,0,13.34-1.63c0,0,12.25,3.54,16.34,8.44,0,0,6.26-2.45-3.54-9.8,0,0-12.8-5.18-10.07-7.63,0,0,4.9-9.52,4.08-18,0,0,1.36-22.33-4.36-23.14,0,0-4.08-1.09-2.45,9,0,0-2.17-6.26-5.17-3.27,0,0-2.18,3.54,1.09,9,0,0-.82,20.14-9.53,22.05a25.22,25.22,0,0,0-9.8,1.63s-27.49-1.63-43.28-6.53a172.64,172.64,0,0,0-18.28-4,57.53,57.53,0,0,1-19.6-6.3c-10.77-5.86-25.37-14.69-28.55-21.05,0,0,2.24,11.51,3.75,16.49a23.41,23.41,0,0,1,.94,4.38C498.43,291.69,498.68,300.17,494.61,306.17Z" fill="#f9b499"/><ellipse cx="437.99" cy="191.94" rx="41.32" ry="27.64" transform="translate(111.74 541.57) rotate(-70.65)" fill="#f9b499"/><path d="M422.52,167.26s.68,5.93-5.71,9.36c0,0-3.65,3.65-3.65,7.07,0,0-.22,3.42-2.73,5a36.22,36.22,0,0,1,.43,6.29,43.52,43.52,0,0,0,1.69,14.37,58.1,58.1,0,0,0,11.11,20.85s22.81,26,.68,48.14c0,0,19.39-18.94.23-43.12,0,0,12.09,21.45-3.88,38.1,0,0,15.06-16.65,1.37-34.67,0,0,3.36,15.61-.59,25.87a42,42,0,0,0-2.89,11.16c-.62,6.5.48,14.36,9,15.66,0,0-11.54,1.28-10.33-15.51a39.15,39.15,0,0,1,1.59-8.37c1.12-3.79,3-13.57-1.76-27.9,0,0,.27,12.26-.06,21.34a67.76,67.76,0,0,1-1.28,10.72c-.91,4.58-2.11,13.78,1.69,18.34a7.68,7.68,0,0,1,2,5c0,2.17-1,4.74-4.93,6.27,0,0,6.31-4.88,1.83-9.36,0,0-6-4.83-2.8-18.43a32.55,32.55,0,0,0,.18-15.2,38.53,38.53,0,0,0-3-8.08s1.47,17.7-1.89,28.84c0,0-4,11.75.16,15.41,0,0-5.36-3.71-.83-17.51a23.19,23.19,0,0,0,1.14-9.84,18.72,18.72,0,0,0-.84-3.79,39.92,39.92,0,0,1-2.1-8.59,192.86,192.86,0,0,1-.71-34.82,19.78,19.78,0,0,0-2.16-10.6h0s2,20.75-19.13,24.62c0,0-20.75,2-17.09,11.39,0,0-4.62-8.05,7.82-11.89a28.6,28.6,0,0,1,5.52-1c4.47-.46,16.23-2.71,18.89-13.77a13.71,13.71,0,0,0-1.94-10.35c-2-3.27-4-11,.84-28.67,0,0,8.45-49,41.41-50.56,0,0,26.28-1.13,34,22.16.67,2.05,1.41,4.08,2.28,6.06,3.59,8.19,12.58,30.81,12.58,52.05.31-.1.71,46,8.85,75.08,0,0,4.53,17-7.68,28.6a2.27,2.27,0,0,1-3,.14c-7.55-6.08-40.27-35.4-30.53-80.32,0,0,7.94-29.91,7.63-40.59,0,0-1.83-4.28.92-14.35,0,0,1.22-12.82-8.85-13.12,0,0-6.8-2.62-4.66-8.34a2.09,2.09,0,0,0-1.48-2.75c-.72-.15-1.43.1-1.8,1.32,0,0-7.32,9.46-22,8.85C426.09,163.82,423.22,162.77,422.52,167.26Z" fill="#f48225" data-secondary="true"/><path d="M487.44,195.87q1.81,7.63,4,15.17a94.74,94.74,0,0,0,5.41,14.7,49.11,49.11,0,0,1,3.35,7.11,37.51,37.51,0,0,1,1.69,7.68,21.54,21.54,0,0,1-.39,7.84,12.42,12.42,0,0,1-1.59,3.59,11.22,11.22,0,0,1-2.72,2.82,11.43,11.43,0,0,0,2.65-2.86,12.63,12.63,0,0,0,1.49-3.6,21.53,21.53,0,0,0,.33-7.76,37.48,37.48,0,0,0-1.74-7.61,49.06,49.06,0,0,0-3.39-7,95.17,95.17,0,0,1-5.31-14.79C489.77,206.08,488.52,201,487.44,195.87Z" fill="#f48225" data-secondary="true"/><path d="M520.1,516.18S508.39,538.87,494.84,535a8.57,8.57,0,0,1-.91-.28l-5.14-6.6a87.25,87.25,0,0,1-24.92-20.78s-29.1-39.37-33.51-46c0,0-17.36-31.77-47.18-39.85,0,0-44.74,29.21-69.16,34.3,0,0-42.63,7.63-47.83,18.63,0,0,9.16,15,10.09,22.58l-1.18.38-.13,0c-6.07,1.91-31.52,9.73-39.57,9.23a5.47,5.47,0,0,1-1.25-.17s-2.44-12.82-7.33-22c0,0-13.11-26.56.32-36.93,0,0,40.83-44.2,103.35-69.55,2.76,5.59,11.41,9,11.41,9,14.64,8.55,40.08,1,40.08,1,50.26-15.25,52.09-40.28,52.09-40.28s22.46,36.34,31.26,68.61c0,0,23.22,66.51,53.3,89.24a5.83,5.83,0,0,1,2.85,4.49A10.93,10.93,0,0,1,520.1,516.18Z" fill="#f48225" data-secondary="true"/><path d="M257.35,609.58l3.81,7.74,4.12,1.22s.72-5.75,4.12-6.77c0,0,8.17-2.92,5.42-11.39,0,0-.68-7.79-4.35-11.83,0,0-4-4.73,2.67-8.17a2.55,2.55,0,0,1,3,.16s5.57-1.61,8.47-.54c0,0,9-.94,14.32,3.77a7.13,7.13,0,0,1,2.32,4.54c.94,8.35,4.27,39.86,1.8,46.2,0,0-4.88,18.52-19.13,18.92,0,0-14.85.82-14-7.93,0,0,.17-3.22,4.07-5.2a1.57,1.57,0,0,0,.79-1.86,4.06,4.06,0,0,1,0-2.2,2.53,2.53,0,0,0-.36-2.19l-8.47-11.44s-12.68-1.09-12.24-8.37a2.37,2.37,0,0,1,.22-.83A9,9,0,0,1,257.35,609.58Z" fill="#686175" data-primary="true"/><path d="M257.35,609.58,256,606.33s10.83-4.84,17.34-12.82a53.19,53.19,0,0,1,1.45,6.87s3.18,7.52-5.42,11.39c0,0-3.15.66-4.12,6.77l-4.12-1.22Z" fill="#ccc"/><path d="M584.34,602.23l-21.65,7.51c-9-17.15-38-39.44-38-39.44a108.93,108.93,0,0,1-30-35.16l.09-.1c13.55,3.83,25.26-18.86,25.26-18.86a10.93,10.93,0,0,0,1.38-6c9,5.12,23.63,30.13,23.63,30.13,12,15.44,18.64,33.66,18.64,33.66C574.69,596,584.34,602.23,584.34,602.23Z" fill="#f9b499"/><path d="M566.13,618.33a16.73,16.73,0,0,0-2.43-4.71c-1.29-1.85-2.69-5,1.61-6.38,0,0,8.4-1.83,10.53-4.88,0,0,3.06-5,11.91,1.22,0,0,14.8,12.36,12,24.57a18.61,18.61,0,0,0-.3,10.84s6.25,19.07-18.47,19.68c0,0-22-1.37-22.13-5.8,0,0,1.06-7,6-18a23,23,0,0,0,1.24-16.51Z" fill="#686175" data-primary="true"/></svg>