<svg id="a457ee02-32e9-422d-82e5-7e0efeb7a637" data-name="Layer 1" xmlns="http://www.w3.org/2000/svg" width="865.76" height="682.89" viewBox="0 0 865.76 682.89"><polygon points="586.15 234.87 586.15 266.81 657.41 263.37 657.41 248.13 601.63 251.08 601.63 235.03 586.15 234.87" fill="#c8c8c8"/><polygon points="586.15 234.87 586.15 266.81 657.41 263.37 657.41 248.13 601.63 251.08 601.63 235.03 586.15 234.87" opacity="0.2"/><polygon points="0.63 603.94 865.76 490.94 865.76 459.16 0.63 517.73 0.63 603.94" fill="#58595b"/><polygon points="12.21 546.89 242.91 529.9 259.9 544.47 32.85 562.68 12.21 546.89" fill="#fff"/><polygon points="366.03 512.48 596.72 495.48 613.72 510.05 386.67 528.26 366.03 512.48" fill="#fff"/><polygon points="659.83 485.9 813.73 473.31 825.07 484.11 673.6 497.6 659.83 485.9" fill="#fff"/><path d="M227.49,471.66l.28-1.39s-5.51-4.95-7-5.49-10.21,1.91-10.63,2.74.08,4.21.26,4.8,8.17,1.23,9.5,1.18S227.49,471.66,227.49,471.66Z" fill="#f48225" data-secondary="true"/><path d="M227.77,470.27l-.28,1.39s3.58,2.23,3.71,2.37,0,.87,0,.87l3.39-.3-.43-4.9a8.59,8.59,0,0,1-1.53.82C232.15,470.64,227.77,470.27,227.77,470.27Z" fill="#f48225" data-secondary="true"/><path d="M294.68,518c1.53,13.08,8.16,28.7,19.78,27.67,1.13-.1,16.71-1.18,17.7-1.61,9.08-3.94,13.11-21.5,10.72-36.45-1.86-11.65-6.75-24.45-16.67-25.15-.67-.05-17,1.51-17.72,1.57C296.77,485.05,293,503.91,294.68,518Z" fill="#2f2e41"/><path d="M294.68,518c1.53,13.08,8.16,28.7,19.78,27.67,1.13-.1,16.71-1.18,17.7-1.61,9.08-3.94,13.11-21.5,10.72-36.45-1.86-11.65-6.75-24.45-16.67-25.15-.67-.05-17,1.51-17.72,1.57C296.77,485.05,293,503.91,294.68,518Z" opacity="0.2"/><path d="M313.32,516.33c1.53,13.08,8.16,28.7,19.77,27.67s15.28-20.09,12.63-36.66c-2-12.43-7.25-26-18.59-25C315.41,483.4,311.68,502.26,313.32,516.33Z" fill="#2f2e41"/><path d="M318.12,515.52c1.19,10.07,6.18,22.11,14.76,21.35s11.2-15.42,9.16-28.18c-1.53-9.57-5.49-20-13.87-19.28C319.5,490.18,316.84,504.69,318.12,515.52Z" fill="#ccc"/><path d="M331.11,491.35c.18,4.12.73,17.25-.16,17.32s-4.05-12.07-5.22-16.46a6.47,6.47,0,0,1,3-1A7.37,7.37,0,0,1,331.11,491.35Z" fill="#2f2e41"/><path d="M329.41,509.6c-.45.39-5.17-5.13-8.62-9.28a18.68,18.68,0,0,1,2.3-5.39C325.52,499.82,330,509.06,329.41,509.6Z" fill="#2f2e41"/><path d="M328.75,511.19c-.17.55-4.88-1.12-9.12-2.74a40.42,40.42,0,0,1,.48-5C324.15,506.61,329,510.5,328.75,511.19Z" fill="#2f2e41"/><path d="M328.48,513.07c.1.61-4.39,1.89-8.49,2.91l-.09-.72c-.16-1.31-.26-2.67-.29-4.06C323.84,511.69,328.38,512.38,328.48,513.07Z" fill="#2f2e41"/><path d="M322,524.43a41.08,41.08,0,0,1-1.54-5.5c3.81-2.2,8.29-4.61,8.69-4S325.22,520.76,322,524.43Z" fill="#2f2e41"/><path d="M327.82,533.38a15.66,15.66,0,0,1-4.18-5.3c2.17-4.6,5.91-12.23,6.63-11.83S328.59,529.44,327.82,533.38Z" fill="#2f2e41"/><path d="M336.85,533.41a6.38,6.38,0,0,1-3.7,1.61,7,7,0,0,1-1.59,0c-.17-3.44-.81-17.72.13-17.81C332.43,517.12,335.62,528.82,336.85,533.41Z" fill="#2f2e41"/><path d="M341.06,524.67a21.71,21.71,0,0,1-1.85,5.59c-2.44-4.91-6.39-13.1-5.82-13.61C333.8,516.28,337.78,520.8,341.06,524.67Z" fill="#2f2e41"/><path d="M341.77,517a42,42,0,0,1-.24,4.54c-3.53-2.79-7.17-5.85-7-6.47S338.16,515.74,341.77,517Z" fill="#2f2e41"/><path d="M341.34,510.41c.18,1.38.31,2.77.38,4.16-3.52-.42-6.81-1-6.9-1.57S337.94,511.4,341.34,510.41Z" fill="#2f2e41"/><path d="M340.93,507.79c-3.2,1.89-6.42,3.6-6.76,3.07s2.79-4.66,5.57-8.14A48.47,48.47,0,0,1,340.93,507.79Z" fill="#2f2e41"/><path d="M338.45,499.09h0c-2.1,4.49-5.06,10.55-5.7,10.18s1.13-11.33,1.93-15.93A16.57,16.57,0,0,1,338.45,499.09Z" fill="#2f2e41"/><path d="M163.19,529.65c1.53,13.08,8.16,28.7,19.78,27.67,1.13-.1,16.71-1.18,17.7-1.61,9.08-3.93,13.11-21.5,10.72-36.45-1.86-11.65-6.74-24.44-16.67-25.15-.66-.05-17,1.51-17.72,1.57C165.28,496.72,161.55,515.58,163.19,529.65Z" fill="#2f2e41"/><path d="M163.19,529.65c1.53,13.08,8.16,28.7,19.78,27.67,1.13-.1,16.71-1.18,17.7-1.61,9.08-3.93,13.11-21.5,10.72-36.45-1.86-11.65-6.74-24.44-16.67-25.15-.66-.05-17,1.51-17.72,1.57C165.28,496.72,161.55,515.58,163.19,529.65Z" opacity="0.2"/><path d="M181.83,528c1.53,13.08,8.16,28.7,19.78,27.67s15.27-20.09,12.62-36.66c-2-12.43-7.25-26-18.59-25C183.92,495.07,180.19,513.93,181.83,528Z" fill="#2f2e41"/><path d="M186.63,527.19c1.19,10.07,6.18,22.11,14.76,21.35s11.2-15.42,9.16-28.18c-1.53-9.57-5.49-20-13.87-19.27C188,501.85,185.35,516.36,186.63,527.19Z" fill="#ccc"/><path d="M199.62,503c.19,4.12.73,17.25-.16,17.33s-4.05-12.08-5.22-16.47a6.58,6.58,0,0,1,3-1A7.66,7.66,0,0,1,199.62,503Z" fill="#2f2e41"/><path d="M197.92,521.27c-.44.39-5.17-5.13-8.62-9.28a18.68,18.68,0,0,1,2.3-5.39C194,511.49,198.52,520.73,197.92,521.27Z" fill="#2f2e41"/><path d="M197.26,522.86c-.17.55-4.87-1.11-9.12-2.74a38.55,38.55,0,0,1,.49-5C192.66,518.28,197.46,522.17,197.26,522.86Z" fill="#2f2e41"/><path d="M197,524.74c.09.61-4.4,1.89-8.5,2.92l-.09-.72c-.16-1.31-.26-2.68-.29-4.07C192.35,523.36,196.89,524.05,197,524.74Z" fill="#2f2e41"/><path d="M190.56,536.1a41.12,41.12,0,0,1-1.55-5.5c3.82-2.2,8.29-4.6,8.69-4S193.73,532.43,190.56,536.1Z" fill="#2f2e41"/><path d="M196.33,545.05a15.66,15.66,0,0,1-4.18-5.3c2.17-4.6,5.91-12.23,6.63-11.83S197.1,541.11,196.33,545.05Z" fill="#2f2e41"/><path d="M205.36,545.08a6.46,6.46,0,0,1-3.7,1.62,7.62,7.62,0,0,1-1.59,0c-.17-3.44-.8-17.72.13-17.8C200.94,528.79,204.14,540.5,205.36,545.08Z" fill="#2f2e41"/><path d="M209.57,536.34a21.33,21.33,0,0,1-1.85,5.59c-2.44-4.9-6.39-13.1-5.82-13.61C202.31,528,206.29,532.48,209.57,536.34Z" fill="#2f2e41"/><path d="M210.28,528.71a42,42,0,0,1-.24,4.54c-3.53-2.79-7.17-5.85-7-6.47S206.67,527.42,210.28,528.71Z" fill="#2f2e41"/><path d="M209.85,522.08c.18,1.38.31,2.77.38,4.16-3.52-.42-6.8-1-6.9-1.57S206.45,523.07,209.85,522.08Z" fill="#2f2e41"/><path d="M209.44,519.47c-3.2,1.88-6.42,3.59-6.76,3.06s2.79-4.66,5.57-8.13A47.31,47.31,0,0,1,209.44,519.47Z" fill="#2f2e41"/><path d="M207,510.76s0,0,0,0c-2.09,4.49-5.06,10.54-5.7,10.18s1.13-11.34,1.93-15.94A16.57,16.57,0,0,1,207,510.76Z" fill="#2f2e41"/><path d="M414.3,507.36c1.52,13.08,8.16,28.7,19.77,27.67,1.14-.1,16.72-1.18,17.7-1.61,9.09-3.93,13.12-21.5,10.73-36.45-1.86-11.65-6.75-24.44-16.68-25.15-.66-.05-17,1.51-17.71,1.57C416.38,474.43,412.66,493.29,414.3,507.36Z" fill="#2f2e41"/><path d="M414.3,507.36c1.52,13.08,8.16,28.7,19.77,27.67,1.14-.1,16.72-1.18,17.7-1.61,9.09-3.93,13.12-21.5,10.73-36.45-1.86-11.65-6.75-24.44-16.68-25.15-.66-.05-17,1.51-17.71,1.57C416.38,474.43,412.66,493.29,414.3,507.36Z" opacity="0.2"/><path d="M432.94,505.71c1.52,13.08,8.16,28.7,19.77,27.67s15.27-20.09,12.63-36.66c-2-12.43-7.26-26-18.59-25C435,472.78,431.3,491.64,432.94,505.71Z" fill="#2f2e41"/><path d="M437.74,504.9c1.19,10.07,6.17,22.11,14.76,21.35s11.2-15.42,9.16-28.18c-1.53-9.57-5.49-20-13.87-19.27C439.12,479.56,436.46,494.07,437.74,504.9Z" fill="#ccc"/><path d="M450.72,480.73c.19,4.12.73,17.25-.16,17.33s-4.05-12.08-5.22-16.47a6.62,6.62,0,0,1,3-1A7.94,7.94,0,0,1,450.72,480.73Z" fill="#2f2e41"/><path d="M449,499c-.44.39-5.17-5.13-8.61-9.28a18.8,18.8,0,0,1,2.29-5.39C445.13,489.2,449.62,498.44,449,499Z" fill="#2f2e41"/><path d="M448.36,500.57c-.16.55-4.87-1.11-9.12-2.74a42.46,42.46,0,0,1,.49-5C443.77,496,448.57,499.88,448.36,500.57Z" fill="#2f2e41"/><path d="M448.1,502.45c.1.61-4.4,1.89-8.49,2.92,0-.25-.07-.48-.1-.72-.15-1.31-.25-2.68-.28-4.07C443.46,501.07,448,501.76,448.1,502.45Z" fill="#2f2e41"/><path d="M441.66,513.81a41.12,41.12,0,0,1-1.55-5.5c3.82-2.2,8.3-4.6,8.7-4S444.84,510.14,441.66,513.81Z" fill="#2f2e41"/><path d="M447.43,522.76a15.63,15.63,0,0,1-4.17-5.3c2.17-4.6,5.9-12.23,6.62-11.83S448.2,518.82,447.43,522.76Z" fill="#2f2e41"/><path d="M456.46,522.79a6.4,6.4,0,0,1-3.7,1.62,7,7,0,0,1-1.59,0c-.16-3.44-.8-17.72.14-17.8C452,506.5,455.24,518.21,456.46,522.79Z" fill="#2f2e41"/><path d="M460.68,514.05a21.92,21.92,0,0,1-1.85,5.6c-2.44-4.91-6.39-13.11-5.82-13.62C453.42,505.66,457.4,510.19,460.68,514.05Z" fill="#2f2e41"/><path d="M461.39,506.43a44.52,44.52,0,0,1-.25,4.53c-3.53-2.79-7.17-5.85-7-6.47S457.78,505.13,461.39,506.43Z" fill="#2f2e41"/><path d="M461,499.79c.19,1.38.31,2.78.38,4.16-3.51-.42-6.8-1-6.89-1.57S457.56,500.78,461,499.79Z" fill="#2f2e41"/><path d="M460.55,497.18c-3.2,1.88-6.42,3.59-6.77,3.06s2.79-4.66,5.57-8.13A45.05,45.05,0,0,1,460.55,497.18Z" fill="#2f2e41"/><path d="M458.06,488.47h0C456,493,453,499,452.36,498.66s1.14-11.34,1.94-15.94A16.7,16.7,0,0,1,458.06,488.47Z" fill="#2f2e41"/><path d="M348.15,532.93l78.3-6.95s6.12-12.29,6.36-14.16S428,473,447.16,471.29c16.7-1.48,19.26,35.83,19.26,35.83l1.77-3.31,0-5.49-1.59-3.1s.43-23.06-1-26.1S452.78,453.79,452,453.17s-12.19-1.55-13-2.17-34.65-23.81-48.95-25.64-45.13-1.55-64.79.19-64.17,11.06-67.74,12.61S223,474.39,223,474.39s-35.54,7.82-40.28,9.32-22,15.32-22.6,16.92-1.49,18.91-1.49,18.91a37.56,37.56,0,0,0-1.46,5.38c0,1,3.76,17.05,4.14,17.87s4.09,4.35,4.89,4.59S294.85,538,296.4,537.52s8.71-3.24,9.86-4.17-.74-49.08,21.23-51C346.6,480.63,348.32,517.39,348.15,532.93Z" fill="#f48225" data-secondary="true"/><path d="M241.28,541.92c-35.3,2.69-74.6,5.58-75,5.46-.8-.24-4.51-3.78-4.89-4.59s-4.13-16.86-4.13-17.87a36.83,36.83,0,0,1,1.44-5.39s.86-17.3,1.49-18.9,17.87-15.42,22.61-16.92S223,474.4,223,474.4s-31.92,10.17-33.47,11.77-12.95,16.46-14.21,18.63-.13,17.62-.48,18.94-2.71,9.57-2.89,11,1.68,6.81,2.18,7.22S238.3,542,241.28,541.92Z" opacity="0.1"/><path d="M348.15,532.93c.16-14.11-1.25-45.7-15.8-50.13,7.29.66,18.35,11.53,21.49,42.21l72.61,1Z" opacity="0.1"/><g opacity="0.6"><path d="M422.85,506.29a87.23,87.23,0,0,1,2.8-22.2,48.27,48.27,0,0,1,1.75-5.34,35.9,35.9,0,0,1,2.42-5.09,24,24,0,0,1,3.29-4.59,22.53,22.53,0,0,1,2.05-2,18.85,18.85,0,0,1,2.37-1.59,14.54,14.54,0,0,1,5.4-1.79,13.42,13.42,0,0,1,5.67.35,17.44,17.44,0,0,1,8.91,6.75,42,42,0,0,1,5.22,9.94,66.36,66.36,0,0,1,3,10.79,66.19,66.19,0,0,0-3.3-10.67,41.21,41.21,0,0,0-5.32-9.73c-2.24-2.91-5.12-5.48-8.67-6.47a12.62,12.62,0,0,0-5.4-.3,13.8,13.8,0,0,0-5.15,1.74,17.31,17.31,0,0,0-2.28,1.51,22.22,22.22,0,0,0-2,1.89,24.08,24.08,0,0,0-3.24,4.46,46,46,0,0,0-4.2,10.27,81,81,0,0,0-2.29,10.91A96.67,96.67,0,0,0,422.85,506.29Z" fill="#fff"/><path d="M304.1,516.83a88.33,88.33,0,0,1,2.67-21.7,47,47,0,0,1,3.92-10.27,30.6,30.6,0,0,1,3.07-4.59,20.54,20.54,0,0,1,4.13-3.71,16.8,16.8,0,0,1,5.14-2.13,16.43,16.43,0,0,1,5.55-.17,16.86,16.86,0,0,1,9.59,5.24,34.87,34.87,0,0,1,6.16,9.07,55,55,0,0,1,3.73,10.28,55,55,0,0,0-4-10.13,34.81,34.81,0,0,0-6.24-8.85,16.77,16.77,0,0,0-9.3-5,14.84,14.84,0,0,0-10.22,2.26,19.63,19.63,0,0,0-4,3.56,29,29,0,0,0-3,4.47,48.81,48.81,0,0,0-3.95,10.1,81.89,81.89,0,0,0-2.2,10.68A96.45,96.45,0,0,0,304.1,516.83Z" fill="#fff"/><path d="M345.06,485.89c4.87-1.88,9.72-3.82,14.6-5.67h0l27.73-5.15,27.77-5h0l8.88-4,8.9-3.93-8.82,4.11-8.84,4.06h0l-27.74,5.13-27.77,5h0C354.87,482.31,350,484.08,345.06,485.89Z" fill="#fff"/><path d="M227,474.05l-14.61,7.83-14.64,7.79.06-.07-5.05,11.91-.17-.23c14.68-1.18,29.35-2.42,44-3.52l-.1,0L253.11,486h0l21.2-8.41,21.23-8.34-21.14,8.57-21.17,8.49,0,0-16.51,11.9,0,0h-.06c-14.67,1.22-29.35,2.29-44,3.44l-.28,0,.11-.25,5.1-11.89,0-.05.05,0,14.68-7.71Z" fill="#fff"/></g><g opacity="0.3"><path d="M225.9,474.14l-30,10-3.74,1.28c-.62.21-1.23.44-1.85.67l-.43.18c-.06,0-.15.06-.2.1l-.15.16a6.5,6.5,0,0,0-.6.73c-1.54,2.12-2.91,4.38-4.33,6.59q-4.2,6.7-8.31,13.46c2.6-4.58,5.25-9.14,8-13.64,1.38-2.26,2.76-4.5,4.3-6.66a6.71,6.71,0,0,1,.65-.8l.2-.19a1.08,1.08,0,0,1,.24-.12l.47-.21c.62-.23,1.24-.48,1.87-.69l3.73-1.3q7.51-2.49,15-4.89T225.9,474.14Z"/><path d="M324.92,466.59l-9.07,3.76-9.08,3.72-18.13,7.52c-3,1.25-6.05,2.5-9,3.83a29.17,29.17,0,0,0-4.24,2.4l-4.16,2.6-8.33,5.2-8.36,5.13,8.24-5.33,8.29-5.26,4.14-2.64a28.52,28.52,0,0,1,4.26-2.45c3-1.36,6-2.63,9-3.9l18.19-7.38,9.12-3.64Z"/><path d="M353.62,522.61l9-1,9-.93,18-1.87,18-1.77,9-.94,2.24-.24,1.12-.13c.18,0,.39,0,.54-.09s.27-.22.39-.35c.9-1.2,1.68-2.5,2.46-3.78-.75,1.3-1.49,2.62-2.37,3.85-.13.13-.21.34-.42.39a4.62,4.62,0,0,1-.58.12l-1.12.16-2.24.3-9,1-18,1.92-18,1.72-9,.84Z"/><path d="M411.39,456.71c1.35,4.48,2.69,9,4,13.48v.06l-.83,11-.88,11c-.59,7.35-1.26,14.7-2,22,.46-7.36,1-14.72,1.54-22.08l.86-11,.92-11v.06C413.8,465.77,412.59,461.24,411.39,456.71Z"/><path d="M361.79,462q-.89,9.18-1.88,18.35v0q.76,9.84,1.44,19.68l.65,9.85.59,9.85-.86-9.83-.79-9.84q-.76-9.84-1.43-19.68v0Q360.59,471.17,361.79,462Z"/><path d="M428.64,450.63c.82,1.89,1.57,3.81,2.33,5.72s1.49,3.84,2.18,5.78l0,.05v.05c-.19,1.47-.37,2.95-.59,4.42s-.43,2.94-.69,4.4c.1-1.48.23-3,.38-4.44s.3-3,.47-4.43v.1c-.75-1.92-1.42-3.86-2.13-5.79S429.25,452.6,428.64,450.63Z"/><polygon points="349.85 498.69 359.08 497.16 368.33 495.7 386.81 492.78 405.32 490.01 414.57 488.63 423.84 487.32 414.61 488.86 405.37 490.32 386.88 493.24 368.37 496 359.12 497.38 349.85 498.69"/><path d="M399.9,460.47c.25.75.47,1.49.7,2.24l-.13-.08c1.44-.3,2.87-.61,4.32-.87s2.88-.54,4.33-.77l-.16.27-.63-2.06.22.12c-1.61.24-3.21.48-4.83.66,1.58-.38,3.17-.7,4.76-1l.16,0,.05.16.67,2.05.08.23-.24.05c-1.44.28-2.89.53-4.34.76s-2.9.47-4.35.68l-.11,0,0-.1C400.22,462,400,461.24,399.9,460.47Z"/><path d="M166.16,512.6c-.29,3.07-.75,6.11-1.19,9.16l-.19,1.14,0,.28,0,.14c0,.07,0,0-.06,0s.06.37.09.56c.13.77.27,1.54.38,2.32.25,1.55.47,3.1.64,4.63-.36-1.5-.66-3-1-4.47-.15-.73-.28-1.48-.41-2.23l-.11-.57a1.12,1.12,0,0,1,0-.3l0-.14,0-.29.17-1.14C165,518.65,165.5,515.61,166.16,512.6Z"/><path d="M280.54,502.45c.75,1.46,1.44,3,2.13,4.45s1.35,3,2,4.53v.07c.09,1.16.19,2.33.25,3.5s.12,2.34.15,3.52c-.18-1.16-.33-2.32-.47-3.49s-.25-2.33-.37-3.49l0,.06c-.68-1.5-1.29-3-1.93-4.54S281.09,504,280.54,502.45Z"/><path d="M157.31,525.61l9.43,7.84-.05,0,31.08-1.71c5.17-.3,10.36-.54,15.53-.87l15.5-1.41,62-5.35h0l12.32-4.16-12.27,4.31h0l-62,5.66-15.5,1.34c-5.18.32-10.36.54-15.54.81l-31.09,1.53h0l0,0Z"/></g><path d="M369.61,460.15c1.12,1,41.28-5,42.19-5.19s16.08-4.52,16.73-5.3-26.21-16.73-28.43-17.46-25.75-.19-28.85,1.4C368.82,434.84,368.33,459.05,369.61,460.15Z" fill="#2f2e41"/><path d="M372.13,458.8c1,.88,37.72-4.57,38.55-4.73s14.7-4.13,15.29-4.84-24-15.29-26-16-23.52-.17-26.36,1.28C371.41,435.69,371,457.8,372.13,458.8Z" fill="#e6e7e8"/><g opacity="0.1"><path d="M395.67,433l-24.16,18a87.51,87.51,0,0,1,1-13.6l4.83-3.59A168.07,168.07,0,0,1,395.67,433Z" fill="#fff"/><path d="M416.71,442.91l-17.19,12.8c-3.31.47-7,1-10.59,1.46L412,440C413.55,441,415.17,442,416.71,442.91Z" fill="#fff"/><path d="M424.7,448.07l-4.22,3.14c-1.05.33-2.15.67-3.23,1l6.47-4.82C424.09,447.63,424.42,447.86,424.7,448.07Z" fill="#fff"/></g><path d="M398.22,433.07c.72.05,11,20.85,10.87,21.29s1.65-.07,1.49-.17-11-20.07-10.81-21C399.87,432.74,398.22,433.07,398.22,433.07Z" fill="#2f2e41"/><path d="M225.9,474.14c1-.08,96.53-7.33,99-7.55s36.76-4.94,37.16-5.21,1.56-25.56.36-27.5c-.33-.54-46.77,1.18-52.45,1.68s-52,6.66-54.41,7.3S224.21,474.27,225.9,474.14Z" fill="#2f2e41"/><path d="M228.77,472.67c1-.07,90.7-6.89,93-7.1s35.5-4.72,35.88-5,.66-22.56-.47-24.39c-.31-.5-44.91,1.2-50.24,1.67s-48.86,6.26-51.13,6.87S227.17,472.79,228.77,472.67Z" fill="#e6e7e8"/><path d="M294.16,439.44l-42.28,31.47-19.23,1.46,40.5-30.15C280,441.29,287.76,440.26,294.16,439.44ZM323,437.1l-42.5,31.63,9.62-.73,42-31.25Zm20.13,25.63c4.1-.56,8-1.11,10.66-1.51l4.07-3c.06-1.64.12-4,.13-6.52Zm2.59-26.42-41.09,30.58,2.12-.16,41-30.48Zm-81.7,7.17h0L235.2,464.94c-1.54,1.66-2.91,3.17-4,4.4l35.18-26.18C265.57,443.26,264.79,443.38,264.05,443.48Z" fill="#fff" opacity="0.1"/><path d="M265.83,495.73c-1.21,1.45,1.88,9.52,4,9.95s15.93-2.75,17.42-3.3,16.82-6.64,18-8.19,1.38-13.41-.12-14.1-24.57,7.53-27.07,8.48S266.86,494.51,265.83,495.73Z" fill="#fff"/><path d="M159.78,509.43a37.53,37.53,0,0,0,5.63,5.1c.81.47,5.48.83,6,.48s2.86-7,2.69-8-7.27-12.19-8.32-11.86-6.56,4.45-6.76,5.62S159.08,508.32,159.78,509.43Z" fill="#fff"/><path d="M160.09,509c0,.77,2.25,3,2.53,3.24a22.15,22.15,0,0,1-2.84-2.84c-.7-1.1-1-7.51-.77-8.68s5.71-5.31,6.76-5.63c-1.12.62-5.43,4.83-5.59,5.79S160.07,508.2,160.09,509Z" fill="#dcdcdc"/><path d="M176.28,507.31c1.31-.58,28.94-3.88,34.38-4.36s41.32-2.82,43.85-2.2-1.7,15.69-3.75,17-36.31,7.09-38.68,7.3-29.64-1.21-31.35-2.14S174.12,508.28,176.28,507.31Z" fill="#2f2e41"/><path d="M254.13,509.83c-.08.31-.17.61-.26.92l-76.46,5.39c-.11-.29-.21-.59-.3-.89Z" fill="#f48225" data-secondary="true"/><path d="M182.91,540.18l72.13-6.4c1.53-.14-6.7-4.12-7.93-4.09s-57.8,5.13-59,5.23S181.6,540.3,182.91,540.18Z" fill="#2f2e41"/><path d="M164.36,538.71a83.25,83.25,0,0,0,10.12-.9c1.3-.4,3.75-7.67,3.45-8.7s-6.57-4.05-7.35-4.22-6.22,0-6.75.6S163.63,538.66,164.36,538.71Z" fill="#2f2e41"/><path d="M267.27,520.1c-.84,1.32,6.4,8.21,9,8.91s17.94-.64,18.46-.84-.1-7.9-.51-9a23.35,23.35,0,0,0-4.33-5.51c-.67-.33-14.32,2.07-16.14,2.72S267.66,519.5,267.27,520.1Z" fill="#2f2e41"/><path d="M375.52,457.23l-.52-1.32s4.56-5.85,5.94-6.64,10.39.09,10.94.83.66,4.16.6,4.77-7.83,2.65-9.15,2.83A77.61,77.61,0,0,1,375.52,457.23Z" fill="#f48225" data-secondary="true"/><path d="M375,455.91l.52,1.32s-3.12,2.83-3.23,3,.15.87.15.87l-3.39.3-.44-4.91a8.43,8.43,0,0,0,1.65.54C370.76,457.05,375,455.91,375,455.91Z" fill="#f48225" data-secondary="true"/><path d="M599.11,597.88c.53.24.58,1.29.5,3.34-.08,1.56.07,4.29-1.79,4.7s-4.51-.09-5.56-1.64a72,72,0,0,0-4.06-6c-1.65-2.08-3.46-4-4-6.8-.47-2.47.2-3.51,1.86-4.1,2.37-.8,5.73,2.68,7.49,3.32C595.1,591.24,598.56,597.63,599.11,597.88Z" fill="#686175" data-primary="true"/><path d="M599.22,596l-.2,2.52a6.16,6.16,0,0,1-6.37-.35c-.1-.25-.38-3.66-.38-3.66Z" fill="#f9b499"/><path d="M577.56,610.83s.54,2.25.78,4.2c.2,1.54.44,4.1-.18,5.22s-2.76,1.69-6,1.41c-2.09-.18-5.46,1-7.79,2s-7.22,1.23-9.63.76c-2.85-.56-5.68-2.46-6.06-3.68S549,618.33,556,616c.06,0,9.64-2.32,13.19-5.68Z" fill="#686175" data-primary="true"/><path d="M577.77,608.07s-.16,1.87-.23,2.93-1.46,2.57-4.71,2.19c-2.29-.26-3.84-1-3.61-2.88l.22-2.72Z" fill="#f9b499"/><path d="M603.52,562.68a68.28,68.28,0,0,0-1.95-13.34s1.79-11.25,3-21.94c1.38-11.56,2.39-17.49,1-34.36,0,0-35.37-5.17-37.09,8.18s-2.24,47.61-2.25,53.53.59,11.2,1.06,20.84,2.09,32,2.09,32a8.86,8.86,0,0,0,8.33.46s4.75-26.58,5-33.4a58.28,58.28,0,0,0-1.42-15s1.57-11,3-20.56,2.42-14.12,2.88-18.29l.83-.33s-.48,16.63-.49,22.56.48,11.64,1.32,22.7c.74,9.6,3.56,30,3.56,30,4.09,2.68,6.85.24,6.85.24S604,571,603.52,562.68Z" fill="#2f2e41"/><polygon points="585.04 443.99 585.75 456.33 597.37 456.39 596.88 442 585.04 443.99" fill="#f9b499"/><path d="M602.13,449.67c4.32,0,6.48.81,8.21,4.63s1.88,15,2.22,20.77.28,9.81-2.09,10.28-11.59.17-11.59.17Z" fill="#686175" data-primary="true"/><path d="M609.06,456.41c-.44-3.47-4.75-7.33-9-6.88l-2.89.33c-.63,2-6.35,3-11.69,1.44-1.65.34-7.07,1.05-8.45,1.42-4,1.07-5.77,4.81-7.09,17.44,0,0-1.28,28.71-1.75,34.41a46.65,46.65,0,0,0,25.08,4.48c11.76-1.63,13.53-6.31,13.53-6.31l-1-13.23S610,464.26,609.06,456.41Z" fill="#686175" data-primary="true"/><path d="M585.28,448.06l0,.78a17.45,17.45,0,0,0,7.12.39c3.81-.6,4.63-1.65,4.63-1.65l0-.88s1-.29,1.37,1.17c.18.59.33,1.19.45,1.79,0,0,.28,2.67-4.22,3.76a13.68,13.68,0,0,1-11-1.82l-1.75.27s1.69-3.37,2.18-4.05a1.18,1.18,0,0,1,1.13-.54Z" fill="#2f2e41"/><path d="M534.85,467.68l-.34-.2a1.62,1.62,0,0,1-.62-.7L527.76,446a.39.39,0,0,1,.24-.5h0l9.92-4.82a1.3,1.3,0,0,1,.88.2l.34.2a1.51,1.51,0,0,1,.62.7l6.13,20.84a.39.39,0,0,1-.25.5h0l-9.92,4.82A1.43,1.43,0,0,1,534.85,467.68Z" fill="#2f2e41"/><path d="M534.85,467.68l-.34-.2a1.62,1.62,0,0,1-.62-.7L527.76,446a.39.39,0,0,1,.24-.5h0l9.92-4.82a1.3,1.3,0,0,1,.88.2l.34.2a1.51,1.51,0,0,1,.62.7l6.13,20.84a.39.39,0,0,1-.25.5h0l-9.92,4.82A1.43,1.43,0,0,1,534.85,467.68Z" opacity="0.2"/><path d="M535.66,467.89a1.53,1.53,0,0,1-.81-.21l-.34-.2a1.48,1.48,0,0,1-.62-.71L527.76,446a.5.5,0,0,1,0-.32l1.34.8a.44.44,0,0,0,0,.32l6.12,20.82A.45.45,0,0,0,535.66,467.89Z" fill="#2f2e41"/><path d="M529.11,446.75l6.13,20.82a.43.43,0,0,0,.5.31l9.92-4.81a.41.41,0,0,0,.26-.51h0l-6.13-20.84a.41.41,0,0,0-.5-.29l-9.93,4.8a.4.4,0,0,0-.25.52Z" fill="#2f2e41"/><path d="M530.39,448l8.82-4.27a.36.36,0,0,1,.43.26l4.93,16.79a.34.34,0,0,1-.22.43l-8.8,4.41a.35.35,0,0,1-.43-.25h0l-5-16.9a.36.36,0,0,1,.2-.46Z" fill="#fff"/><path d="M534.06,444.45a.28.28,0,0,1,.36.14.26.26,0,0,1-.08.35l0,0a.29.29,0,0,1-.35-.2.27.27,0,0,1,.1-.31Z" fill="#263238"/><path d="M533.61,445.56c.49-.22,1.35-.66,1.82-.89a.16.16,0,0,1,.22.07.16.16,0,0,1-.07.22l-1.83.9a.17.17,0,0,1-.17-.29Z" opacity="0.2"/><path d="M533.15,445.78a.15.15,0,0,1,.2.08.15.15,0,0,1-.06.21.17.17,0,0,1-.2-.11A.16.16,0,0,1,533.15,445.78Z" opacity="0.2"/><path d="M540.54,463.84a.56.56,0,0,1,.66.4.52.52,0,0,1-.32.67h0a.55.55,0,0,1-.67-.4.53.53,0,0,1,.35-.67Z" opacity="0.2"/><path d="M536.21,448.33l1.29,1.92a.2.2,0,0,0,.21.08l1.76-.64c.18-.08.33.22.25.49l-.79,2.59a.53.53,0,0,0,0,.33l.88,2.43c.09.26,0,.58-.23.55l-1.78-.31a.19.19,0,0,0-.2.12L536.36,458c-.13.22-.36.13-.39-.16l-.3-2.79a.4.4,0,0,0-.14-.26l-1.63-1.1a.49.49,0,0,1,0-.65l1.59-1.4a.44.44,0,0,0,.12-.28l.21-2.84C535.86,448.27,536.08,448.12,536.21,448.33Z" fill="#d1d3d4"/><path d="M577,452.72c-5.33.16-7.65,1-12,8-4.76,7.56-13.85,21.21-15,22.93-1.6,2.36-2.08,6.15-.94,8.5,1.06,2.19,4.71,3.36,9.27-1.2,5.37-5.42,15.55-18.85,15.55-18.85S582.44,462,577,452.72Z" fill="#ffa8a7"/><path d="M551.14,493.86c-4-.72-12.82-14.13-15.31-18.49a29.9,29.9,0,0,0-7.75-9.14,6,6,0,0,1-1.54-1.72,4.24,4.24,0,0,1-.35-2.08,17.32,17.32,0,0,0,.11-2.79,6.92,6.92,0,0,1-.16-1.64c.08-.52.38-1,.5-1.52a9.09,9.09,0,0,0,0-2,2.48,2.48,0,0,1,.32-1.25,5.4,5.4,0,0,1,.92-.93,11.6,11.6,0,0,1,1.41-.9l1.18,3.92,1.15,3.76c.49.5,1.3,1.49,1.92.56a2,2,0,0,0,.27-.8c.15-.93.1-1.9.34-2.81a3.67,3.67,0,0,1,.79-1.59c.26-.28,1-.91,1.4-.54a.7.7,0,0,1,.19.43c.07.45-.1.86-.07,1.29s.21,1.11.28,1.65a23.88,23.88,0,0,1,.21,3.38,17.17,17.17,0,0,0,0,2.49,5.67,5.67,0,0,0,.84,2.74c1,1.57,14.39,15.94,14.39,15.94Z" fill="#f9b499"/><path d="M578.05,452.5c-3.22-.26-7.1,0-10.32,3.76s-16.35,24.19-16.35,24.19l-6.39-6.4a11.77,11.77,0,0,0-5.57,7.05,72.52,72.52,0,0,0,5.63,8.59c2.67,3.28,5.71,5.61,8.36,4.8s5.41-2.73,11.44-10.2S577.5,468,577.5,468,581.85,459.16,578.05,452.5Z" fill="#686175" data-primary="true"/><polygon points="659.13 216.19 658.64 241.01 656.43 242.24 656.43 306.86 659.38 306.61 659.38 537.33 688.12 537.33 688.12 215.7 659.13 216.19" fill="#c8c8c8"/><polygon points="697.71 218.16 688.12 215.7 688.12 537.33 698.44 534.38 697.71 218.16" fill="#c8c8c8"/><polygon points="697.71 218.16 688.12 215.7 688.12 537.33 698.44 534.38 697.71 218.16" opacity="0.2"/><polygon points="688.12 215.7 659.13 216.19 659.13 213 688.12 212.51 688.12 215.7" fill="#939598"/><polygon points="697.71 218.16 688.12 215.7 688.12 212.51 697.62 215.09 697.71 218.16" fill="#939598"/><polygon points="581.65 214.39 581.49 236.5 604.34 236.5 604.34 213.24 581.65 214.39" fill="#c8c8c8"/><path d="M581.65,222.83s9.17-6.47,22.69.65V213.24l-22.69,1.15Z" opacity="0.2"/><polygon points="537.23 143.17 539.57 215.78 628.49 212.96 623.19 139.21 537.23 143.17" fill="#ccc"/><path d="M537.36,143.17l-7.31.29-.33-2.62,21.95-3.93L642,133a.06.06,0,0,1,0,.12l-18.65,6.09Z" fill="#939598"/><path d="M628.49,213l16.88-4.63-3-75.35s-18.21,4.6-19.09,6.23S628.49,213,628.49,213Z" fill="#ccc"/><path d="M628.49,213l16.88-4.63-3-75.35s-18.21,4.6-19.09,6.23S628.49,213,628.49,213Z" opacity="0.2"/><polygon points="575.59 159.68 554.21 159.68 554.05 142.32 575.59 141.41 575.59 159.68" fill="#939598"/><polygon points="549.38 174.91 550.04 189.98 615.23 188.34 615.23 172.62 549.38 174.91" fill="#fff" opacity="0.2"/><polygon points="537.59 150.67 623.5 146.69 623.33 139.21 537.36 143.17 537.59 150.67" opacity="0.2"/><path d="M599.83,210.62V193.26l-7.86,1S594.26,212.59,599.83,210.62Z" fill="#939598"/><path d="M618.83,193.26s1,17.36,6.88,16.38l-1-18Z" fill="#939598"/><polygon points="599.83 210.62 600.29 213.89 625.73 213.06 624.73 191.62 618.83 193.26 599.83 193.26 599.83 210.62" opacity="0.2"/><path d="M603.11,210V195.55l15.72.33s.27,9.11,3.68,12.37l.26,1.39Z" fill="#fff" opacity="0.2"/><path d="M585.09,444.7l.11,2s5.16-1.5,6-3.72Z" fill="#f7a88f"/><path d="M586.42,416.81c-5.92.9-7.76,3.39-8.82,12.66-1.12,9.69-.29,12.8.9,14.18.82.92,5.65,1.36,8,.82,3.08-.65,10-2.71,13.48-7.42,4.09-5.54,5.51-13.28,1.66-16.71C596.31,415.53,588.84,416.44,586.42,416.81Z" fill="#f9b499"/><path d="M577.75,420.19a4.05,4.05,0,0,0,.31,2.61,4.18,4.18,0,0,0,3.8,2.29c-.26,0,.67,1.35.74,1.43a2.14,2.14,0,0,0,1.5.68c.14,1.31,0,2.67,1.38,3.34,0,0,1.12-3.54,4.12-2.91s3.22,4.53,1.17,6.78-3.77,1.26-3.78,1.25c.16.1.16,1.25.21,1.46a11,11,0,0,0,.7,2,9.41,9.41,0,0,0,2.57,3.36,8.05,8.05,0,0,0,3.21,1.8,13.14,13.14,0,0,0,3.52-.27,61.71,61.71,0,0,0,7.7-11.89,16.84,16.84,0,0,0,2-6.05c.1-1.73.15-3.59-.83-5.12a5.65,5.65,0,0,0-3.67-2.47,6,6,0,0,0-3-4.66,11,11,0,0,0-5.52-1.42c-1.93-.06-3.85.17-5.73.26a61.94,61.94,0,0,1-11.86-.91.61.61,0,0,0-.42,0,.64.64,0,0,0-.26.41c-.76,2.61.31,5.41,3,6.22A4,4,0,0,0,577.75,420.19Z" fill="#2f2e41"/><path d="M585.33,432.62l.33-4.07a2,2,0,1,0-.33,4.07Z" fill="#2f2e41"/></svg>