<svg id="a9577365-84dd-43c9-9c8f-332848f87e99" data-name="Layer 1" xmlns="http://www.w3.org/2000/svg" width="865.76" height="682.89" viewBox="0 0 865.76 682.89"><path d="M856.09,584.22c0,82.45-189.47,77.46-423.21,77.46s-423.21,8-423.21-77.46c0-.78,0-1.56,0-2.32,0-.14,0-.27,0-.38,0-.69.06-1.38.1-2.06.06-.93.14-1.85.23-2.77.08-.73.16-1.44.26-2.14s.18-1.22.28-1.81c0-.09,0-.17,0-.27.15-.87.32-1.72.5-2.56l.24-1c.08-.35.15-.7.25-1.05q.29-1.15.63-2.28c0-.06,0-.11.05-.17.14-.45.29-.91.43-1.33s.19-.59.31-.87c.18-.56.38-1.1.59-1.64s.47-1.2.72-1.8c.37-.84.75-1.68,1.16-2.51.27-.57.56-1.12.87-1.68.14-.28.3-.57.47-.85s.24-.43.37-.65.33-.59.5-.87c.29-.48.59-1,.89-1.42l.71-1.07a1.59,1.59,0,0,1,.15-.21c.49-.71,1-1.43,1.53-2.12.38-.51.78-1,1.17-1.49.6-.72,1.19-1.41,1.82-2.11.37-.41.76-.82,1.15-1.24s.87-.92,1.33-1.36l.06,0c.4-.39.81-.79,1.23-1.17a1.75,1.75,0,0,0,.2-.19c.54-.49,1.1-1,1.68-1.49s1.38-1.17,2.1-1.74c.29-.24.6-.48.9-.7s.6-.48.91-.7h0c.62-.46,1.25-.92,1.9-1.37s1.31-.9,2-1.36c.11-.08.23-.14.35-.22.53-.35,1.09-.7,1.64-1s1.14-.7,1.73-1.05a1.8,1.8,0,0,0,.37-.22c.7-.4,1.42-.79,2.15-1.19l.25-.14c.64-.35,1.3-.7,2-1l2.28-1.14-.48,0s-22.48-16.48-16.3-57.39c3.12-20.81,14.14-33.23,26.41-45.66C67,415,76.8,405.74,84.6,393a92.86,92.86,0,0,0,6.31-12.32c10.15-24.17-3.86-57.8-4.38-99.7a159.6,159.6,0,0,1,18-77.13,214.09,214.09,0,0,1,28.29-41.51c44.95-52.6,160-139.71,312.45-141.31,92.15-1,177.7,37.45,238.56,88.18,25.34,21.12,46.41,44.39,61.87,67.81a213.08,213.08,0,0,1,17,30.73c1.4,3.12,2.67,6.21,3.83,9.3a179.38,179.38,0,0,1,9.81,37.32,148.52,148.52,0,0,1-.62,47.25c-6.85,39.66-27,65.78-22,84.89.25,1,.51,1.89.8,2.75,3.55,11.22,8.68,13.56,15,15.43,8.33,2.47,18.66,4.14,30.07,24.33,20.72,36.65,6.61,61.09,6.61,61.09s37.24,3.11,47.64,68.67c.53,3.39,1,6.94,1.39,10.68.12,1,.21,2.09.3,3.16.19,2,.34,4.09.47,6.21l-.27,0,.12.84c0,.06,0,.14,0,.22s0,.38.06.57a4.77,4.77,0,0,1,.06.76.22.22,0,0,1,0,.08c0,.41.07.82.08,1.23S856.09,583.66,856.09,584.22Z" fill="#cce9f7"/><ellipse cx="512.17" cy="267.2" rx="7.14" ry="8.61" fill="#ff9648"/><path d="M853.81,558.78l-826-17.86a1.75,1.75,0,0,0,.2-.19c.54-.49,1.1-1,1.68-1.49s1.38-1.17,2.1-1.74c.29-.24.6-.48.9-.7s.6-.48.91-.7h0c.62-.46,1.25-.92,1.9-1.37s1.31-.9,2-1.36c.11-.08.23-.14.35-.22.53-.35,1.09-.7,1.64-1s1.14-.7,1.73-1.05a1.8,1.8,0,0,0,.37-.22c.7-.4,1.42-.79,2.15-1.19l.25-.14c.64-.35,1.3-.7,2-1l2.28-1.14-.48,0s-22.48-16.48-16.3-57.39C36.89,433.61,66.33,422.84,84.6,393a92.86,92.86,0,0,0,6.31-12.32c10.15-24.17-3.86-57.8-4.38-99.7,135.69-86.84,221.49,47.23,223.3,72.36,9.32-15.72,28.89-11.23,39.13-5.62C381.1,236,503.62,291,503.16,318c9.78-25.27,62.42-16.28,66.6,10.68,46.92-93.78,161.13-116.41,192.92-120.89a181.25,181.25,0,0,1,13.64,46.62,148.84,148.84,0,0,1-.62,47.25c-6.85,39.66-27,65.78-22,84.89.25,1,.51,1.89.8,2.75,3.55,11.22,8.68,13.56,15,15.43,8.33,2.47,18.66,4.14,30.07,24.33,20.72,36.65,6.61,61.09,6.61,61.09S843.41,493.22,853.81,558.78Z" fill="#89c592"/><path d="M856,580.78l-3.08-11.39L27.76,540.92a1.75,1.75,0,0,0,.2-.19c.54-.49,1.1-1,1.68-1.48s1.38-1.18,2.1-1.75c.29-.24.6-.47.9-.7s.6-.47.91-.69l0,0c.62-.46,1.25-.92,1.9-1.36s1.31-.9,2-1.36l.35-.23c.53-.35,1.09-.69,1.64-1s1.14-.69,1.73-1a3.6,3.6,0,0,0,.37-.22c.7-.4,1.42-.8,2.15-1.19l.25-.15c.64-.34,1.3-.69,2-1l2.28-1.14c-.32,0-.48,0-.48,0s-22.48-16.48-16.3-57.38C36.89,433.62,66.33,422.84,84.6,393c63,11.35,108.62,68.83,107.14,90.06,20-35.94,86.64-19.09,89-.57,72.21-84.23,168.17-6.73,165.37,16.85,16.1-16.26,57.41-10,69.61,7.86a20,20,0,0,1,2.13,3.93,17.28,17.28,0,0,1,.66-3.91c4.59-15.71,30.79-21.64,33.81-4,12.11-38.75,77.79-47.73,89.44-32,0-56.26,68.53-75.45,112.79-82,8.23,26,25,4.28,45,39.76,20.72,36.66,6.61,61.1,6.61,61.1S854.89,492.12,856,580.78Z" fill="#7abb81"/><path d="M856.09,584.22c0,82.46-189.47,77.47-423.21,77.47S9.67,669.64,9.67,584.22c0-.77,0-1.55,0-2.31,0-.14,0-.27,0-.38,0-.7.06-1.38.1-2.06.06-.94.14-1.86.23-2.78.08-.73.16-1.44.27-2.14s.17-1.22.27-1.8c0-.1,0-.18,0-.27.15-.87.32-1.73.5-2.57l.24-1c.08-.34.15-.69.25-1q.29-1.17.63-2.28c0-.07,0-.11.05-.18l.43-1.33c.1-.3.19-.59.31-.87.18-.56.38-1.09.59-1.63s.47-1.21.72-1.81c.37-.84.75-1.68,1.16-2.5q.4-.86.87-1.68c.14-.29.3-.57.46-.86s.25-.44.38-.65.33-.59.5-.87c.29-.48.59-.95.89-1.41l.71-1.08c.05-.06.09-.14.15-.2q.75-1.08,1.53-2.13c.38-.51.78-1,1.17-1.49.6-.71,1.19-1.41,1.82-2.11.37-.41.76-.82,1.15-1.23s.87-.92,1.33-1.36l.06,0c.4-.4.81-.79,1.23-1.18a1.75,1.75,0,0,0,.2-.19c.54-.49,1.1-1,1.68-1.48s1.38-1.18,2.1-1.75c.29-.24.6-.47.9-.7s.6-.47.91-.69l0,0c.62-.46,1.25-.92,1.9-1.36s1.31-.9,2-1.36l.35-.23c.53-.35,1.09-.69,1.64-1s1.14-.69,1.73-1a3.6,3.6,0,0,0,.37-.22c.7-.4,1.42-.8,2.15-1.19l.25-.15c.64-.34,1.3-.69,2-1l2.28-1.14c67-32.41,214-20.57,384.68-20.57,28.34,0,56,.11,82.82.43l2.79,0c176.06,2.17,312.22,13.47,334.41,62.17a28.67,28.67,0,0,1,1.29,3.21,32.67,32.67,0,0,1,1.51,6.28l.12.84c0,.06,0,.14,0,.22s0,.38.06.57a4.77,4.77,0,0,1,.06.76.25.25,0,0,1,0,.08c0,.42.07.83.08,1.24S856.09,583.67,856.09,584.22Z" fill="#ffddae"/><path d="M295.21,481.25l22.27,32.44L292.39,507l-10.68-5.62S281.06,484.06,295.21,481.25Z" fill="#fea054"/><path d="M344.9,356.11c-6.76-13.44-8.65-28.83-8.72-43.89s1.54-30.07,1.32-45.12a184.75,184.75,0,0,0-6.24-45c15.11,7.1,25,21.53,28.87,37.77s2,33.4-2.5,49.48C353.34,324.86,346.73,340.14,344.9,356.11Z" fill="#37ac92"/><path d="M333.07,356c-8.47-3.29-15.1-10.27-19.68-18.12s-7.34-16.61-10.06-25.28l-18.45-58.87C310.48,282.24,327.75,318,333.07,356Z" fill="#37ac92"/><path d="M352.6,406.06c-1-14.48,3.46-28.9,10.09-41.82s15.34-24.63,23.47-36.66A471.73,471.73,0,0,0,411,286.44c4.09,8.92,5.08,18.85,4.18,28.62a92.52,92.52,0,0,1-7.8,28.26C396.27,368.71,376.31,391.71,352.6,406.06Z" fill="#37ac92"/><path d="M345.47,491.21c-1.86-10.3,2.34-20.7,7.37-29.88a158,158,0,0,1,16.81-24.76c6.16-7.44,13-14.35,18.15-22.55a114.42,114.42,0,0,1-33.9,67.47C350.8,484.46,346.42,487,345.47,491.21Z" fill="#37ac92"/><path d="M344.75,482.35a99.19,99.19,0,0,0-30.39-67.89c-1,12.54,2.81,24.67,8.7,35.8A209.63,209.63,0,0,0,344.75,482.35Z" fill="#37ac92"/><path d="M254.85,401.41c.05.32.09.64.14,1,6.48-1.21,12.12-5.17,17-9.58s9.33-9.37,14.65-13.27a47.3,47.3,0,0,1,30.63-9c-3.54-3.38-8.5-5.17-13.37-5.71-10.5-1.15-21.13,2.72-29.62,9s-15,14.86-20.55,23.86C252.81,399.25,253.73,400,254.85,401.41Z" fill="#24967b"/><path d="M200.57,437.83c7.7-10.61,14.17-22,21.24-33.08s14.85-21.79,24.68-30.46,21.93-15.2,35-16.62,27,2.8,35.71,12.58c-7.55-4.37-17.58-3-25.57.51s-14.5,9.73-19.93,16.56-10,14.33-15.15,21.34c-6.61,8.92-14.42,17.12-23.91,22.89S211.59,439.23,200.57,437.83Z" fill="#37ac92"/><path d="M317.2,371.46c-4.53,3.69-7.78,8.74-10.24,14s-4.2,10.9-6.23,16.37c-8.34,22.51-22.19,43.58-42.13,56.92.3-22.17,8.08-44.77,20-63.45,4.37-6.84,9.52-13.32,16.1-18.08A32.46,32.46,0,0,1,317.2,371.46Z" fill="#37ac92"/><path d="M345.09,275.55c.38,26.11.44,52.21.51,78.32V510.5l-.12,78.31h-2.1l.16-78.32.3-78.31.3-78.32c.16-26.1.31-52.2.79-78.31Z" fill="#8ebf96"/><path d="M311.07,365.76a87.09,87.09,0,0,1,20.57,21.47,139.79,139.79,0,0,1,13.93,26.39l-1.49.59A139,139,0,0,0,330.8,387.8a86.51,86.51,0,0,0-20-21.68Z" fill="#8ebf96"/><path d="M344.12,437.58a160.2,160.2,0,0,1,26.28-65.23l.47.31a159.14,159.14,0,0,0-25.34,65.14Z" fill="#8ebf96"/><path d="M343.86,489.37a265.61,265.61,0,0,1,27.83-47.91,264.71,264.71,0,0,0-25.9,48.73Z" fill="#8ebf96"/><path d="M343.91,479.38a169.58,169.58,0,0,0-20.44-47.23,170.57,170.57,0,0,1,22.09,46.77Z" fill="#8ebf96"/><path d="M321.68,338.24c5.92,8.64,11.92,17.39,15.92,27.2s5.89,20.26,7.75,30.57l-1.34.24c-1.72-10.34-3.46-20.73-7.28-30.47s-9.66-18.53-15.47-27.25Z" fill="#8ebf96"/><path d="M363.42,593.31c-2.14-.95-4.76-1.89-5.32-4.16a4.37,4.37,0,0,1,1-3.66,12.24,12.24,0,0,1,3-2.4c.63-1.88-.65-4-2.44-4.85a8.24,8.24,0,0,0-5.81-.09c-1.9.57-3.69,1.48-5.58,2.05a16.58,16.58,0,0,1-8.92.17,53.67,53.67,0,0,0-5.79-1.65c-2-.28-4.27.15-5.48,1.75a5.2,5.2,0,0,0-.11,5.47,12.47,12.47,0,0,0,4,4c-.61-.42-4.84,3-5.41,3.41a29.85,29.85,0,0,0-4.7,4.7A28.53,28.53,0,0,0,316.2,610c-.44,2.07-.3,1.83,1.14,2s2.83,0,4.2,0h51.39C372.7,610.29,374.49,598.19,363.42,593.31Z" fill="#37ac92"/><path d="M375.58,613.66h-67.4a10.55,10.55,0,0,1-.33-8.57,7.29,7.29,0,0,1,3.41-3.8,6.91,6.91,0,0,1,6.68.86,13.2,13.2,0,0,1,4.24,5.53,7,7,0,0,1,3.78-5.11,6.57,6.57,0,0,1,9.13,6,29.81,29.81,0,0,1,5.14-8.94c2.25-2.5,5.72-4.19,9-3.4a9.51,9.51,0,0,1,5.56,4.41,28,28,0,0,1,2.71,6.71,5.09,5.09,0,0,1,4.73-4.65,5.42,5.42,0,0,1,5.3,4.38,4,4,0,0,1,4.05-1.52,5.2,5.2,0,0,1,3.3,2.92A10.38,10.38,0,0,1,375.58,613.66Z" fill="#ffb36f"/><path d="M300.34,619.51c0,1.38,1.28,2.44,2.58,2.9a7.35,7.35,0,0,0,6.2-.71,3.39,3.39,0,0,0,1.79-2.57,2.93,2.93,0,0,0-1.75-2.52C306.72,615.38,300.39,615.73,300.34,619.51Z" fill="#ffb36f"/><path d="M311.54,622a2.41,2.41,0,0,0,.9,2.76,2.81,2.81,0,0,0,2.88-.43,4.55,4.55,0,0,0,1.95-2.7,3,3,0,0,0-1.07-3C314,617.08,312,620.24,311.54,622Z" fill="#ffb36f"/><path d="M373.59,622.36a3.09,3.09,0,0,0,3,.37,2.79,2.79,0,0,0,1.26-2.64c-.12-2.49-3.19-5.33-5.7-3.74S371.78,621.23,373.59,622.36Z" fill="#ffb36f"/><path d="M315.08,512.78s31.22,6.24,26.15,27.6c0,0-3.47,23-19.22,24L259,566l1.6-16.28s10.41-5.61,38.17-4.54C298.79,545.18,300.39,533,315.08,512.78Z" fill="#fea054"/><path d="M315.08,512.78s-13.35,18-16.29,32.4c0,0-27.22-1.07-38.17,4.54,0,0,4.7-25.81,4.4-34.75a58.08,58.08,0,0,1,.1-5.9c.2-2.63.54-5.62,1.11-6.33L292.39,507Z" fill="#f48225" data-secondary="true"/><path d="M177.77,529.21c-12.67-1.76-7.89-21.81-4.72-31.72a92,92,0,0,0,2.84-11.33c2.8-15.1,8.13-21.9,10.94-24.55a41.67,41.67,0,0,0,7.49-9.35c.87-1.51,1.61-3,2.24-4.28a51.94,51.94,0,0,0,3.17-8.69c4.61-17,16.74-40.08,16.74-40.08-11.76,1.93-11.11-26.72-11.11-26.72-.65-6.42,2.56-6.42,2.56-6.42l16.25-1a22.07,22.07,0,0,0,9.24-2.68l.83-.46a26.89,26.89,0,0,1,18.27-2.86c8,1.59,18.6,5.4,25.76,14.46,0,0,36.13,30.37,34,46.19,0,0-.21,5.56,1.29,8.77,0,0-23.95,26.94-21.6,40.83,0,0,5.21,7.46,3.64,12.19-.22.64-10-.85-13.47,16.89,0,0,0,8.13-3.85,4.71l-29.94-22.88S271,549.53,177.77,529.21Z" fill="#686175" data-primary="true"/><path d="M574.37,574.7l-23.67,4.67a18,18,0,0,0-13.91,18.48h0l65.66,2-.6-18.95S593.64,594.23,574.37,574.7Z" fill="#686175" data-primary="true"/><path d="M574.37,574.7l-23.67,4.67a18,18,0,0,0-13.91,18.48h0l65.66,2-.6-18.95S593.64,594.23,574.37,574.7Z" opacity="0.2"/><path d="M632.25,590.38l1.16,14.91a11.62,11.62,0,0,1-6.95,11.29l-21.92,9.55a7.35,7.35,0,0,1-5.1.28L582,621a7.33,7.33,0,0,1-4.62-9.79h0a7.35,7.35,0,0,1,1.87-2.67L607.4,583s6.92.93,9.72,4.3C617.12,587.33,622.46,594.46,632.25,590.38Z" fill="#686175" data-primary="true"/><path d="M609.27,365.63s-6.8,4.22-13.94.95c0,0-11.28-1.77-18.72-6.53,0,0-3.16,82.75-2,102.53a37.79,37.79,0,0,1-.27,7.59,13.81,13.81,0,0,0,.19,5.61,22,22,0,0,1,.81,9.3c-.31,2.2-.14,4.55,1.3,6.2a5.89,5.89,0,0,1,1.55,4.61,9,9,0,0,1-.2,1,32.37,32.37,0,0,0-1.21,9c.27,12.53.74,39.07-.13,44.44l-.06.32c-.27,1.18-2,9-.83,11.61a.7.7,0,0,1-.11.78c-.72.76-2,2.78-.22,6.2,0,0-.56,5.08-3.61,5.35a.11.11,0,0,0-.09.19c1.75,1.89,17,17.76,30.18,9.63,0,0,2.6-28.55,3-39.42a22.33,22.33,0,0,1,1.18-6.53l2.21-6.51-1-61.79s-3.57-24.69,1.49-42.24c0,0,7.42-12.17,9.45-25.58a25.89,25.89,0,0,0-1.13-12.22C615.75,386.2,613.39,379,609.27,365.63Z" fill="#f48225" data-secondary="true"/><path d="M609.27,365.63s-6.8,4.22-13.94.95c0,0-11.28-1.77-18.72-6.53,0,0-3.16,82.75-2,102.53a37.79,37.79,0,0,1-.27,7.59,13.81,13.81,0,0,0,.19,5.61,22,22,0,0,1,.81,9.3c-.31,2.2-.14,4.55,1.3,6.2a5.89,5.89,0,0,1,1.55,4.61,9,9,0,0,1-.2,1,32.37,32.37,0,0,0-1.21,9c.27,12.53.74,39.07-.13,44.44l-.06.32c-.27,1.18-2,9-.83,11.61a.7.7,0,0,1-.11.78c-.72.76-2,2.78-.22,6.2,0,0-.56,5.08-3.61,5.35a.11.11,0,0,0-.09.19c1.75,1.89,17,17.76,30.18,9.63,0,0,2.6-28.55,3-39.42a22.33,22.33,0,0,1,1.18-6.53l2.21-6.51-1-61.79s-3.57-24.69,1.49-42.24c0,0,7.42-12.17,9.45-25.58a25.89,25.89,0,0,0-1.13-12.22C615.75,386.2,613.39,379,609.27,365.63Z" opacity="0.2"/><path d="M678.37,340.41s4.48,18.47-12.88,55.22c0,0-7,17.46-12,28.56a46.72,46.72,0,0,0-3.86,13,19,19,0,0,1-6.67,12s-1.52,2.28-.3,4.31a6.57,6.57,0,0,1,1,2.7c.2,2.18.11,5.62-2.27,6.68a2.15,2.15,0,0,0-.5,2.59,14.55,14.55,0,0,1,2.24,6.1c1.31,12.74,3.83,48.77-5.33,78a43.39,43.39,0,0,0-1.63,7.29c-1,7.35-2.91,22.88-2.83,31.5a3.94,3.94,0,0,1-3.11,3.88A13.74,13.74,0,0,1,616.78,588s-7.94-4.52-13.24-5.58a1.74,1.74,0,0,1,.25-3.45h.1s2.18-1.79,0-3.57c0,0-6.55-3.77-.4-8.93,0,0,4.36-2.18,3.17-8.13,0,0-2.29-11.7-.52-22.68a55.54,55.54,0,0,0,.76-9.29l-.63-52.53s-5-33.42.09-46.21c0,0,11.91-23.21,7.15-40.17l-4.24-21.79s5.11-4.62,10.47-5.4l24.55-8.12s7.56-3.32,13.23-2.3C657.52,349.81,675.39,350.53,678.37,340.41Z" fill="#f48225" data-secondary="true"/><path d="M546.52,340.55,553.44,369a7.21,7.21,0,0,1-.51,4.84c-2.19,4.49-5.94,15,2.89,20.78,0,0,.87-8.43,3.89-9.95,0,0,2.17-2.16,3.25.22,0,0,3,3,2.59,9.73,0,0,1.79-.58,2-3.6,0,0-4.68-11.56-8.2-31.27L557.47,349q-1.83-1.31-3.71-2.71C551.19,344.4,548.78,342.46,546.52,340.55Z" fill="#fea054"/><path d="M514.86,304.05s17.22,27.74,42.61,45,42,19.34,42,19.34a14,14,0,0,0,7.14-1.19,13.75,13.75,0,0,0,2.61-1.56,33.73,33.73,0,0,1,10.47-5.4c3-.92,6.08-1.9,9.2-2.89,5.33-1.7,11-3.59,15.35-5.23a36.37,36.37,0,0,1,13.23-2.3c7.35.07,18.33-1.26,20.85-9.4,0,0-3.28-18.15-6.85-21.72,0,0-30.64-48.19-83.6-62.18,0,0-21.72-15.47-51.47-8.92,0,0-21.43,5-27.23,11.45,0,0,3.49,6.11,5,9.43,0,0,2.18,5.59-1.23,8.07C513,276.54,517.44,294.33,514.86,304.05Z" fill="#686175" data-primary="true"/><path d="M529.31,282s5.77,7.26,7.57,22.14a27.48,27.48,0,0,0,.52,3c1.61,6.71,8.25,33.44,12.93,36.56-4.25-3.29-7.62-6.28-10-8.56a152.18,152.18,0,0,1-18.16-20.75c-3.13-4.18-5.56-7.76-7.2-10.26.05-.29.11-.58.16-.88.09-.49.21-1.1.28-1.54l10.46.44a2.92,2.92,0,0,0,2.94-2.38A38.86,38.86,0,0,0,529.31,282Z" opacity="0.2"/><path d="M514.47,268.63a6.33,6.33,0,0,0,3.83-2.15s6.39-5.51,9.37,5.8c0,0,4.17,18.32,1.1,27.48a3.58,3.58,0,0,1-2.94,2.38L519,302h-.5L515.3,302s2-9.45-2.33-25.42C513,276.54,515.87,275.63,514.47,268.63Z" fill="#fea054"/><path d="M519.57,302s1.09,3.07,2.63,4.37a2.1,2.1,0,0,0,2.67,0,11.66,11.66,0,0,0,3.9-6.66,3.62,3.62,0,0,1-2.94,2.38Z" fill="#fe7142"/><path d="M593.87,297.57c-.6,8,6.54,38.38,6.54,38.38-2.82.16-8.47,3.72-13.18,7a77.45,77.45,0,0,0-11.07,9.64c-11.13,11.56-16.8,7.12-16.8,7.12L557.47,349l-8.82-35.7" fill="#686175" data-primary="true"/><path d="M555.82,394.62l-13,96,3.93-4.71L557,462.3l8.53-67.68s.8-7.79-4.11-11.06C561.44,383.56,556.45,385.16,555.82,394.62Z" fill="#4d010e"/><path d="M532.22,549.85l6.34-38.93s3.41-9.58,8-7c0,0,5.12,1,1.79,16.07L544,552.55S541.32,546.16,532.22,549.85Z" fill="#4d010e"/><path d="M274,381.42s9.83-13.29,5.72-20.55a4.62,4.62,0,0,0,5.7-.68s-5.45,28.56,14.75,35.31l-6.68,6.89a12.5,12.5,0,0,1-2.29,13.84L289,418.65S284.45,394.06,274,381.42Z" fill="#fea054"/><path d="M256.72,364.27c5.35.4,15.94,2.12,21.55,9.28,0,0-.68,2.92-4.3,7.87,0,0-10-11.17-17.67-15.83A.71.71,0,0,1,256.72,364.27Z" opacity="0.2"/><path d="M241.41,467.24s-2.14-5.6-5.61-3.2c0,0-43.47,37.63-55.62,58a12.22,12.22,0,0,0-1.46,8.8,33.31,33.31,0,0,0,2.34,6.95c.92,2,1.76,4,2.49,6.12,2.16,6.08,9,19.31,28,18.9l16.82-5.34-4.25-11.69c-.56-1.53-1.19-3-1.87-4.53-1.58-3.44-4.65-12.16-.29-20.88l4.27-9.34,1.53-20.12a23.7,23.7,0,0,1,2.28-8.45l5.27-10.94S235.54,468,241.41,467.24Z" fill="#f48225" data-secondary="true"/><path d="M235.27,471.51s9.52,28.62-9.15,37.46l2-20.56a14.44,14.44,0,0,1,1.34-4.81Z" fill="#fea054"/><path d="M227.47,450.24A14.77,14.77,0,0,0,202,453.18c-5.48,12.67-15.49,39-12.15,56,5.54-6.61,10.42-11.8,14-15.45,4.82-4.93,9.15-8.94,17.63-16.77,5-4.63,9.22-8.44,12.17-11.1L235.8,464s1.6-1,2.18-.5-10.51-13.3-10.51-13.3" fill="#fff" opacity="0.2"/><path d="M269.12,490.76s8.9-25.32-28.66-23.37c0,0-5.09.73-5.19,4.12,0,0,7.93,28.05-9.17,37l.09,2.48-4.33,9.61c-.21.47-.43.93-.66,1.39-.83,1.7-3.83,9.17,1.15,19.79.65,1.39,1.23,2.8,1.76,4.24l4.22,11.41,4.24,15.72a4.77,4.77,0,0,0,1.42,2.31l4.79,4.31a2.73,2.73,0,0,0,2.88.48l13.85-5.89a3.53,3.53,0,0,0,2.08-2.46L259,566l1.6-16.28s5.26-21.44,4.5-40.65a23.24,23.24,0,0,1,1.11-6.33A79.23,79.23,0,0,1,269.12,490.76Z" fill="#fea054"/><path d="M257.31,573s12.19,1.07,7.27,12.19c0,0-.64,16,12,20.53,0,0,16,4.49,8.55,15.18L229.94,616a9.93,9.93,0,0,1-1.28-10.9s4.49-15.82,1.28-24.38c0,0-1.87-6.17,2.63-7.56a6.22,6.22,0,0,0,1.42,2.31l4.79,4.31s1.9,1.68,4.94-.51l11.79-4.9A4.84,4.84,0,0,0,257.31,573Z" fill="#686175" data-primary="true"/><path d="M228.33,557.46s-9.94-2.68-16.3,2.83a3.88,3.88,0,0,0-1.07,4.35c.73,1.87,2.06,5,4.44,9.74,0,0,5.28,9,5.1,19.37a17,17,0,0,0,.74,5.19c1.35,4.49,4.18,12.63,7.54,15.06a10.09,10.09,0,0,1-.12-8.88s4.42-14,1.28-24.38c0,0-2-5.93,2.63-7.56Z" fill="#686175" data-primary="true"/><path d="M228.33,557.46s-9.94-2.68-16.3,2.83a3.88,3.88,0,0,0-1.07,4.35c.73,1.87,2.06,5,4.44,9.74,0,0,5.28,9,5.1,19.37a17,17,0,0,0,.74,5.19c1.35,4.49,4.18,12.63,7.54,15.06a10.09,10.09,0,0,1-.12-8.88s4.42-14,1.28-24.38c0,0-2-5.93,2.63-7.56Z" opacity="0.2"/><path d="M559.36,359.75s4.35,28.25,10.2,35a12.9,12.9,0,0,1,2.53,4.18,16.79,16.79,0,0,1-.34,12.22s-6.4,17-8.24,29.95a66.63,66.63,0,0,1-4.71,16.78l-12,28s-7.38,7.75-9.33,13.1a12.75,12.75,0,0,1-.77,1.68l-.2.38a16,16,0,0,0-1.25,11.84h0a.23.23,0,0,0,.23.18h0a3.34,3.34,0,0,0,3.12-2.16c1.23-3.25,4-8.83,8-7,0,0,4.66,2.74,1.79,16.07,0,0,1.58.79,2.77-1.39l2.6-2.83A46.31,46.31,0,0,1,559,511c.77-.62,1.52-1.81,1.42-4.09l.71-15.32a24.48,24.48,0,0,1,3.18-11c7.07-12.41,24.88-44.21,28.83-56.22a67.58,67.58,0,0,0,3.57-27s-.19-41.85-5.35-57.52c0,0-11.28,7.78-18.27,15.54a8,8,0,0,1-1.22,1.11C569.75,358.15,563.32,362.38,559.36,359.75Z" fill="#fea054"/><path d="M542.31,570.75l1.72-18.2s-2.46-6.39-11.81-2.7L530,569.27l-25.64-.69a3.22,3.22,0,0,0-2.72,1.35c-2.39,3.34-7.7,12.35-4.72,22.81A23.31,23.31,0,0,0,508,606.51l14.16,8S551,610.63,559,592.71a12,12,0,0,0,1-3.87,151.5,151.5,0,0,1,2-15.34,1.85,1.85,0,0,0-1.76-2.27Z" fill="#e56b47"/><g id="bb903f60-2834-4e10-9db4-a33cbc9f7e72" data-name="GROUND-2"><ellipse cx="544.29" cy="642.95" rx="17.26" ry="5.5" fill="#ffb36f"/><ellipse cx="508.8" cy="637.45" rx="8.63" ry="3.71" fill="#ffb36f"/><path d="M374,627.54v-.31c0-8.59,7.67-15.55,17.12-15.55a18.23,18.23,0,0,1,9.65,2.69,25.4,25.4,0,0,1,39.52-19.73c2.4-14.74,17.29-26.08,35.3-26.08,19.68,0,35.64,13.55,35.64,30.27a26.22,26.22,0,0,1-.32,4,24.27,24.27,0,0,1,3.61-.27,23.68,23.68,0,0,1,21.19,13.11l-.45.11h17.79a26.05,26.05,0,0,1,50.4-3.56,26.08,26.08,0,0,1,35.16,11.11,26.55,26.55,0,0,1,1.29,2.89v1.36Z" fill="#ffb36f"/></g><path d="M292.26,461.93l24.68-14.71s41.64-1.33,44-20.81c0,0,1.07-9.88-8-8,0,0-15.75,3.73-20.82,1.6a20.14,20.14,0,0,1,9-1.12,4.13,4.13,0,0,0,1.41-.21,2.39,2.39,0,0,0,.09-4.45l-.15-.06A21.74,21.74,0,0,0,316,422.69c-1.19,1.87-2.52,3.91-3.74,5.6,0,0-15.09,10.62-21.72,10.62C290.54,438.91,292.8,447.81,292.26,461.93Z" fill="#fea054"/><path d="M265.93,436.31a7.08,7.08,0,0,1-3-5.37c-.64-9.53-4.69-44-29.78-42.17,0,0-13.3,1.4-16.66,10.44s-9,14.12-15.9,37.07c0,0,23.22,6.14,27.22,14.41,0,0,14.22,20.38,26.58,26.76a8.4,8.4,0,0,0,4.38.9c6.46-.45,25.9-2.68,33.64-13.51,0,0,2.4-24.56-4-31,0,0-5.4-7.21-8.77-.52a7.56,7.56,0,0,1-4.33,3.81A10.26,10.26,0,0,1,265.93,436.31Z" fill="#686175" data-primary="true"/><path d="M265.93,436.31a7.08,7.08,0,0,1-3-5.37c-.64-9.53-4.69-44-29.78-42.17,0,0-13.3,1.4-16.66,10.44s-9,14.12-15.9,37.07c0,0,23.22,6.14,27.22,14.41,0,0,14.22,20.38,26.58,26.76a8.4,8.4,0,0,0,4.38.9c6.46-.45,25.9-2.68,33.64-13.51,0,0,2.4-24.56-4-31,0,0-5.4-7.21-8.77-.52a7.56,7.56,0,0,1-4.33,3.81A10.26,10.26,0,0,1,265.93,436.31Z" opacity="0.2"/><polygon points="260.63 549.72 259.02 566 261.36 565.94 260.63 549.72" fill="#fe7142"/><path d="M300.14,395.5,296,399.81s-12-8.06-10.62-25.59C285.33,374.22,288.86,387.93,300.14,395.5Z" fill="#fe7142"/><path d="M285.52,358.82c-3.7,17.81,3,34.27,14.62,36.68s24.32-10.15,28-28-3-34.13-14.63-36.54S289.22,341,285.52,358.82Z" fill="#fea054"/><path d="M276.31,353.07c0,4.73,2.68,8.56,6,8.56s6-3.83,6-8.56-2.77-8.86-6.07-8.86S276.31,348.35,276.31,353.07Z" fill="#fea054"/><path d="M328.76,362s8.67-6.37,4.55-22.48a12.61,12.61,0,0,0-2.62-5.07c-2-2.38-5.51-5.74-8.84-5.74,0,0-1.29-12.6-25.84-8.4a19.22,19.22,0,0,0-10.33,4.2s-4-.34-8.36,4.34a20.17,20.17,0,0,0-5.17,13.5,53,53,0,0,0,.78,9.92,17.9,17.9,0,0,0,2.46,6.23c1.84,2.91,4.83,8.27,4.15,11.23a9,9,0,0,0,.15-8.84s-3.48-2.34-3.38-7.8c0,0,.25-7.88,5.38-8.59,0,0,7.84-.43,4.84,11.54,0,0,.57,4,3.14,2,0,0,1.57-2,2.57-7.13,0,0,10.27-1.9,11.32-11.93a3.13,3.13,0,0,1,2-2.62l3.05-1.16a3.26,3.26,0,0,1,3.63.92c3.36,3.91,11.67,13,15.93,12.79A44.07,44.07,0,0,1,328.76,362Z"/><path d="M526.23,247.58H412.87a9.35,9.35,0,0,1,1.81-4.84c6.18-8.94,26.36-13.28,29.24-5.27,1.12-9.72,21.33-13.84,26.57-7.1,15.71-29.19,47.13-7.49,40.78,10.09,4.82-1.32,8.16-.52,10.43.95A11.28,11.28,0,0,1,526.23,247.58Z" fill="#fff"/><path d="M526.23,247.58H412.87a9.35,9.35,0,0,1,1.81-4.84c19.52,1.76,82.6,6.66,107-1.33A11.28,11.28,0,0,1,526.23,247.58Z" fill="#c0e7f2"/><path d="M375.55,171.58H209.06a8,8,0,0,1,1.74-4.26c4.28-5.78,15.3-10.14,19.22-6.21.37-12.35,16.56-43.33,43.77-46,30.3-3,49.38,19.83,46.76,38.53a12.92,12.92,0,0,1,22.83,3c9.63-4.75,16.55-3.86,21.44-.9C373.05,160.71,375.55,171.58,375.55,171.58Z" fill="#fff"/><path d="M375.55,171.58H209.06a8,8,0,0,1,1.74-4.26c32.73,1.78,116,4.42,154-11.6C373.05,160.71,375.55,171.58,375.55,171.58Z" fill="#c0e7f2"/><path d="M691.81,152.66H545.16a11.43,11.43,0,0,1,1.67-4.44c5.62-8.85,22.73-11.26,28.26-3.79-1.5-21,14.21-41.52,40.4-43.77s50.88,23.2,45.64,44.89c11.54-6.06,19.4-3.85,24.26-.35A21.09,21.09,0,0,1,691.81,152.66Z" fill="#fff"/><path d="M691.81,152.66H545.16a11.43,11.43,0,0,1,1.67-4.44c23.85,1.75,107.85,7,138.56-3A21.09,21.09,0,0,1,691.81,152.66Z" fill="#c0e7f2"/><path d="M514.7,301.94l2.93.06s2.29-18.62-6.22-26Z" fill="#fe7142"/><path d="M511.41,263a11.72,11.72,0,0,0-3.75-2.83,3.82,3.82,0,0,0-5.38,3.17,12.67,12.67,0,0,0,2.33,8.53l-3.5,5.76-6.5-6c-8.67,7-15.17-1.63-15.17-1.63-5.69,13.55-20.33,14.9-20.33,14.9-19.5,1.9-6.23-31.15-6.23-31.15s7.86-18.43,23.3-15.18c0,0,4.79-6.95,13.77-1.59a20.59,20.59,0,0,1,4.69,3.94c3.86,4.3,14.55,16.51,16.77,22"/><path d="M457.75,285.22s22.46,40.17,47.16,32.73c0,0,17.61-5.61,8.06-41.41,0,0-3.45,2.44-8.36-4.71l-3.5,5.76-6.5-6s-6.88,7.1-15.17-1.63C479.44,270,475.45,283,457.75,285.22Z" fill="#fea054"/><path d="M513.35,265.76c2.42,4.57,2.19,9.46-.44,10.85s-6.65-1.25-9.07-5.82-2.24-9.39.39-10.78S510.94,261.2,513.35,265.76Z" fill="#fea054"/></svg>