<svg id="f1653f7c-e8b3-4d6a-9ae0-f82990020ab1" data-name="Layer 1" xmlns="http://www.w3.org/2000/svg" width="865.76" height="682.89" viewBox="0 0 865.76 682.89"><path d="M844.8,462.68q0,8.42-.32,16.75a420.4,420.4,0,0,1-28.87,137.92c-.65,1.67-1.32,3.33-2,5a419.24,419.24,0,0,1-19.85,41.83H69.15q-5.64-10.35-10.71-21.07-6-12.65-11.14-25.73A419.11,419.11,0,0,1,24,533.43q-2.79-16.5-4.27-33.43c0-.29-.05-.57-.07-.86q-1.55-18-1.55-36.46,0-5.52.14-11c0-.7,0-1.39.06-2.08q.45-15.09,2-29.88a420.54,420.54,0,0,1,8.08-49.94c.31-1.41.63-2.82,1-4.22,0,0,0-.05,0-.08,1.09-4.6,2.24-9.18,3.48-13.72.55-2,1.12-4,1.69-6.06q3.84-13.35,8.51-26.33,1.45-4,3-8t3.22-8.15l1-2.52h0q1.11-2.69,2.26-5.34,1.38-3.2,2.81-6.37,1.13-2.48,2.28-4.94,5.72-12.24,12.18-24c70.48-128.62,206-215.69,361.7-215.69C598,44.39,741.5,144,807,287.63q6.49,14.22,11.94,29,3.06,8.28,5.76,16.72,2.24,7,4.23,14c.31,1,.6,2.09.89,3.15l.54,2q1.59,5.92,3,11.92h0c.43,1.83.86,3.66,1.27,5.5l.45,2q.74,3.39,1.43,6.81,1.2,6,2.23,12,1.24,7.31,2.25,14.7c.52,3.89,1,7.8,1.41,11.72q2,18.29,2.34,37c0,1.64.06,3.28.07,4.93C844.8,460.31,844.8,461.49,844.8,462.68Z" fill="#97e9ff"/><path d="M842.38,417.17c-24.28,9.87-49,18.79-74,26.51h0c-22.52,6.94-45.32,12.9-68.35,17.7-4.33.9-8.65,1.76-13,2.55-74.87,14-148.49,13.63-223.22,10-21.92-1.07-43.91-2.43-66.07-3.79-3-.19-6.05-.37-9.08-.52s-6.05-.29-9.07-.42h0c-3-.13-6.05-.24-9.08-.33h0l-5.67-.17-5.69-.15-5.68-.11-5.52-.09h-.26q-5.64-.07-11.28-.11l-5.69,0q-7.41,0-14.83,0c-3,0-6.05,0-9.07.06h0l-13.7.12-12.06.14-19.84.24-12.75.14q-15.51.15-31,.13c-39.22-.12-78.35-1.48-117.17-6.71-10.76-1.46-25.3-3.42-41.81-5.56h0c-12.53-1.63-26.2-3.37-40.19-5.05,0-.7,0-1.39.06-2.08q.45-15.09,2-29.88a420.54,420.54,0,0,1,8.08-49.94c.31-1.41.63-2.82,1-4.22,0,0,0-.05,0-.08,1.09-4.6,2.24-9.18,3.48-13.72.55-2,1.12-4,1.69-6.06q3.84-13.35,8.51-26.33,1.45-4,3-8t3.22-8.15l1-2.52h0q1.11-2.69,2.26-5.34,1.38-3.2,2.81-6.37,1.13-2.48,2.28-4.94,5.72-12.24,12.18-24c6.84,6.93,13.44,13.41,19,17.63,12.35,9.34,15.62,7.57,30.56,11.12,13.75,3.27,37.64-14.91,51.57-9.66,16.23,6.12,27.46,37.06,45.41,38.23,24.7,1.6,47.7,18,71.16,30.87,27.81,15.25,52.45,28.47,84,23.77,16.8-2.5,27.21-10.21,43.88-7.77,13.36,2,28.66,8.47,42.08,12,14.15,3.68,26.24,9.93,42,9.23,14.33-.64,37.52-30.14,51.58-32.86,29.36-5.64,48.8,30,78.31,16.92,24.28-10.77,48.45-40,74.59-42.13,5.73-.47,31.09-49.45,38.1-50.16,4.12-.42,34.13,6.58,64.94,10.39q6.49,14.22,11.94,29,3.06,8.28,5.76,16.72,2.24,7,4.23,14c.31,1,.6,2.09.89,3.15l.54,2q1.59,5.92,3,11.92h0c.43,1.83.86,3.66,1.27,5.5l.45,2q.74,3.39,1.43,6.81,1.2,6,2.23,12,1.24,7.31,2.25,14.7C841.49,409.34,842,413.25,842.38,417.17Z" fill="#e6f5ff"/><path d="M537.35,438.15c-13.18,18.21-50.46,25.44-70.29,34.31l-3.25,1.44c-21.92-1.07-43.91-2.43-66.07-3.79-3-.19-6.05-.37-9.08-.52s-6.05-.29-9.07-.42h0c-3-.13-6.05-.24-9.08-.33h0l-5.67-.17-5.69-.15-5.68-.11-5.52-.09h-.26q-5.64-.07-11.28-.11l-5.69,0q-7.41,0-14.83,0c-3,0-6.05,0-9.07.06h0l-13.7.12-12.06.14-19.84.24-12.75.14q-15.51.15-31,.13c-15.27-5.15-30.69-9.55-46.46-12a811,811,0,0,0-111.14-9.51q-7.26-.14-14.54-.15a191.65,191.65,0,0,0-27,2.29q.45-15.09,2-29.88a420.54,420.54,0,0,1,8.08-49.94c.31-1.41.63-2.82,1-4.22,0,0,0-.05,0-.08,1.09-4.6,2.24-9.18,3.48-13.72.55-2,1.12-4,1.69-6.06q3.84-13.35,8.51-26.33,1.45-4,3-8t3.22-8.15l1-2.52h0q1.11-2.69,2.26-5.34c7.17,10.37,14.78,20.48,24.84,28.4a29.9,29.9,0,0,0,8.07-17.33c11.61,3.19,20.61,17.2,30.13,25.11,8.43-10.55,13.86-24.46,30.12-23.85,5.74.22,10.33,7,16.19,7.72s14-4.86,18.63-3.52c9.06,2.65,22.17,17,31,22.81,10.42,6.79,18.5,14.76,30.18,19.8,12.69,5.48,31.31-2.49,40.58,3.3,9.7,6,9.18,27.69,22,35.84,14.57,9.27,24.9-.31,40.57-.37,12.79-.05,25.65,10.24,40,11.05,12.7.72,31.81-10.36,42.49-5.84s11.25,21.18,24.8,25.17c14.32,4.23,28.53-5.76,43.44-1.45,3.25.95,6.48,2.07,9.69,3.3,8.78,3.34,17.45,7.43,26.14,10.6h0C533.39,436.87,535.36,437.55,537.35,438.15Z" fill="#b5d6e2"/><path d="M836.49,378.76c-13.29,11.82-27.71,21.6-40.15,27.6a236.64,236.64,0,0,1-50.79,17.26,390,390,0,0,1-54.77,8l-2.75.22c-22.72,1.71-45.42,2-67,2H529.79c8.51-.16,15-11.55,21.55-21.29a56.16,56.16,0,0,1,8.12-10.11c12.83-11.61,20.82-8.06,36.76-7.26,16.64.85,29.61.21,43.56-8.21,13.32-8,23.58-11.47,36.13-17.45C697.81,359,720.33,337,738,320.24c13.25-12.58,14.91-14.42,29.55-9.6,18,5.89,21.25,11.35,40.69,7.62,3.51-.67,7.06-1.2,10.62-1.61q3.06,8.28,5.76,16.72,2.24,7,4.23,14c.31,1,.6,2.09.89,3.15l.54,2q1.59,5.92,3,11.92h0c.43,1.83.86,3.66,1.27,5.5l.45,2Q835.8,375.34,836.49,378.76Z" fill="#b5d6e2"/><path d="M844.8,462.68q0,8.42-.32,16.75-.42,10.85-1.39,21.56a419.89,419.89,0,0,1-14.74,78.89q-5.51,19.13-12.74,37.47c-1,1.88-2,3.75-3,5.6H50.29q-1.5-2.78-3-5.58a418.9,418.9,0,0,1-20-66.38q-1.75-8.22-3.17-16.55c-.06-.34-.11-.67-.17-1q-2.09-12.36-3.44-24.95c-.3-2.82-.58-5.64-.83-8.48,0-.29-.05-.57-.07-.86q-.42-5-.73-10-.83-13.15-.82-26.5,0-5.52.14-11c0-.7,0-1.39.06-2.08q.45-15.09,2-29.88a420.54,420.54,0,0,1,8.08-49.94c.31-1.41.63-2.82,1-4.22,0,0,0-.05,0-.08,1.09-4.6,2.24-9.18,3.48-13.72.55-2,1.12-4,1.69-6.06q3.84-13.35,8.51-26.33,1.45-4,3-8c1.71,1.82,3.35,3.7,4.94,5.62.68.82,1.35,1.63,2,2.46l1,1.23c1,1.24,1.93,2.49,2.87,3.73s1.88,2.49,2.8,3.73L61,330.12c4.09,5.5,8,10.81,12.11,15.36l.92,1,.46.5.92.95c4.52,4.58,9.32,8.14,14.83,10l.57.18h0c.57.17,1.15.33,1.74.47h0a27.18,27.18,0,0,0,2.91.52h.18a28.33,28.33,0,0,0,5.54.07c.21,0,.41,0,.62-.06s.43,0,.65-.07c.46,0,.92-.12,1.4-.2s.93-.16,1.39-.26l.36-.07.36-.08.67-.18a7.3,7.3,0,0,0,.71-.23c.33-.1.68-.23,1-.37l.55-.23c.41-.18.85-.37,1.29-.58l.45-.21.62-.29,1.27-.65c.44-.23.89-.46,1.34-.71l1.39-.75.71-.4c.49-.27,1-.54,1.46-.83l.75-.43,1.13-.65,2.31-1.37,1.18-.69,1.58-1L126,348c2.67-1.58,5.38-3.17,8-4.62.52-.29,1-.58,1.56-.85,5.71-3.07,10.89-5.34,14.32-5.33,8.26.05,24.87,29.25,33.6,30.09a67.55,67.55,0,0,0,11.4.13c.51,0,1-.07,1.51-.12l.9-.08,2.12-.22.91-.11,2-.24,1.6-.21,2-.23.87-.1,2-.2h.12a48.19,48.19,0,0,1,10.64.13l.67.09c.88.13,1.79.29,2.72.47,1.39.3,2.84.67,4.36,1.13l.76.24c.51.16,1,.34,1.56.52s1.21.44,1.84.69l1.2.47c1.48.6,3,1.3,4.64,2.08,14.62,7.1,26,18.55,37.49,28.36l2.1,1.76c1.75,1.46,3.5,2.86,5.28,4.2.7.54,1.42,1.06,2.14,1.57s1.43,1,2.16,1.51,1.45,1,2.19,1.42l1.1.67c.74.45,1.49.88,2.24,1.29s1.51.81,2.28,1.19l1.15.55,1,.46.64.27c.62.26,1.25.51,1.88.75l1.2.43c.81.28,1.62.54,2.45.77l.93.26,1.66.4c.83.18,1.67.34,2.52.47s1.73.26,2.61.34c.21,0,.43,0,.67.06l.75.06.54,0h0c1.32.09,2.92.17,4.71.25l2.55.1,1.29.06,4.53.14,1,0h.51l1,0h.55l1,0,3.72.08,1.89,0h.54l1.07,0h.56l2.65,0h.49c8.44.12,16.59.14,21.69.05h.05l2,0h.44c.58,0,1.14,0,1.69,0l.53,0c.28,0,.56,0,.84,0l.79.07.64.07.69.09,1.35.22.76.15c.68.14,1.34.3,2,.47s1.11.31,1.67.48l.6.19.65.21c1.29.43,2.55.9,3.8,1.41.62.24,1.24.5,1.86.76l3,1.27,1.58.65a50.19,50.19,0,0,0,9.37,3c20.84,4.14,42.25,9,64.15,8.68,16.88-.29,30.47-5.62,44.71-11.61l4.87-2.05,2.8-1.18q2.12-.88,4.26-1.75t4.36-1.73a95.31,95.31,0,0,1,11.07-3.54l1.48-.37,1.68-.37c.68-.15,1.36-.29,2-.41l1-.19c1-.18,2-.34,3-.49l1-.13,1.94-.25c2.22-.26,4.42-.43,6.62-.58l3-.16,1.93-.08c1,0,1.92-.08,2.9-.1.64,0,1.29-.05,2-.06.32,0,.65,0,1,0l2-.06,3-.11,1,0,2.08-.09c1.39-.07,2.81-.14,4.27-.24l2.2-.16c.74-.05,1.49-.12,2.26-.19l2.3-.23q1.18-.12,2.37-.27c.81-.09,1.62-.2,2.44-.31l2.5-.36c2.62-.4,5.26-.76,7.89-1.11l2.63-.33c1.41-.18,2.81-.35,4.22-.51,17.57-2.13,35.18-4.1,52-12,17.25-8.15,36.88-28.71,54.87-39l1.13-.64h0l1.12-.6h0l1.12-.57c.94-.48,1.87-.91,2.79-1.31l1.1-.47h0l1.09-.42.56-.2c.72-.27,1.44-.5,2.17-.71h0l.8-.22c.41-.11.81-.21,1.21-.29l.6-.13.6-.11,1.05-.17h0c.45-.06.9-.11,1.35-.14s.83-.06,1.25-.07l2.93-.07,2.85-.05h.71l3.79-.05,3.68,0h.65l3.87,0h3.74l5.42,0,3.5,0,2.85-.06,1.4,0,1.39,0,2.21-.08,1.09-.05c1.52-.08,3-.16,4.5-.27,3-.22,5.88-.51,8.77-.91l2.8-.42c.93-.15,1.86-.32,2.79-.49,2.34-.45,4.66-1,7-1.6l1.42-.39c.94-.27,1.89-.55,2.84-.85h0c1.44-.45,2.88-.94,4.34-1.47a132.57,132.57,0,0,0,22-10.62q2.24,7,4.23,14c.31,1,.6,2.09.89,3.15l.54,2q1.59,5.92,3,11.92h0c.43,1.83.86,3.66,1.27,5.5l.45,2q.74,3.39,1.43,6.81,1.2,6,2.23,12,1.24,7.31,2.25,14.7c.52,3.89,1,7.8,1.41,11.72q2,18.29,2.34,37c0,1.64.06,3.28.07,4.93C844.8,460.31,844.8,461.49,844.8,462.68Z" fill="#395b4c"/><path d="M834.61,369.93c-6,4.49-13.18,5.95-25.73,5.89-16.25-.08-44.94-2.18-55.63,9.7,13,11.14,7.85,19.29-3.64,25.56-15.22,8.3-41.52,13.28-51.55,17.45-2.43,1-4.85,2-7.28,3.06-13.16,5.62-26.39,11.65-39.55,17.72h0c-11.08,5.12-22.1,10.26-33,15.23-.59-17.5-5.77-26.42-14.06-30.74-12-6.29-30.64-2.87-51.26-1.93a71.79,71.79,0,0,0-13.59,1.93,76.59,76.59,0,0,0-7.94,2.35h0c-21.23,7.44-38.32,22.56-60.21,30.32.92-5.56.95-11.93,3.18-16.86-48.1,9.18-92.27-11.73-139.2-13.87-24-1.1-52.65,14.13-74.57.42-15.7-9.81-33.22-30.15-45.74-44.11-1.17,6.73-1.92,13.51-5.75,18.75-17.42-12.29-51.51-41.32-72.68-40.87-9.73.19-27.84,10.41-38.1,13.57C80.58,389,77,388.38,60.19,381.13A223.31,223.31,0,0,0,28.34,369.8c.31-1.41.63-2.82,1-4.22,0,0,0-.05,0-.08,1.09-4.6,2.24-9.18,3.48-13.72.55-2,1.12-4,1.69-6.06q3.84-13.35,8.51-26.33,1.45-4,3-8c1.71,1.82,3.35,3.7,4.94,5.62.68.82,1.35,1.63,2,2.46l1,1.23c1,1.24,1.93,2.49,2.87,3.73s1.88,2.49,2.8,3.73L61,330.12c4.09,5.5,8,10.81,12.11,15.36l.92,1,.46.5.92.95c4.52,4.58,9.32,8.14,14.83,10,.19.07.38.12.57.18h0c.57.17,1.15.33,1.74.47h0a27.18,27.18,0,0,0,2.91.52h.18a28.33,28.33,0,0,0,5.54.07c.21,0,.41,0,.62-.06s.43,0,.65-.07c.46,0,.92-.12,1.4-.2s.93-.16,1.39-.26l.36-.07.36-.08.67-.18a7.3,7.3,0,0,0,.71-.23c.33-.1.68-.23,1-.37l.55-.23c.41-.17.85-.37,1.29-.58l.45-.21.62-.29,1.27-.65c.44-.23.89-.46,1.34-.71l1.39-.75.71-.4c.49-.27,1-.54,1.46-.83l.75-.43,1.13-.65,2.31-1.37,1.18-.69,1.58-1L126,348c2.67-1.58,5.38-3.17,8-4.62.52-.29,1-.58,1.56-.85,5.71-3.07,10.89-5.34,14.32-5.33,8.26.05,24.87,29.25,33.6,30.09a67.55,67.55,0,0,0,11.4.13c.51,0,1-.07,1.51-.12l.9-.08,2.12-.22.91-.11,2-.24,1.6-.21,2-.23.87-.1,2-.2h.12a48.19,48.19,0,0,1,10.64.13l.67.09c.88.12,1.79.28,2.72.47,1.39.3,2.84.67,4.36,1.13l.76.24c.51.16,1,.34,1.56.52s1.21.44,1.84.69l1.2.47c1.48.6,3,1.3,4.64,2.08,14.62,7.1,26,18.55,37.49,28.36l2.1,1.76c1.75,1.46,3.5,2.86,5.28,4.2.7.54,1.42,1.06,2.14,1.57s1.43,1,2.16,1.51,1.45,1,2.19,1.42l1.1.67c.74.45,1.49.88,2.24,1.29s1.51.8,2.28,1.19l1.15.55,1,.46.64.27c.62.26,1.25.51,1.88.75l1.2.43c.81.28,1.62.54,2.45.77l.93.26a43.76,43.76,0,0,0,6.79,1.2l.67.07.75.06.54,0h0c1.32.09,2.92.17,4.71.25l2.55.1,1.29.06,4.53.14,1,0h.51l1,0h.55l1,0,3.72.08,1.89,0h.54l1.07,0h.56l2.65,0h.49c8.44.12,16.59.14,21.69.05h.05l2,0h.46c.56,0,1.12,0,1.67,0l.53,0c.28,0,.56,0,.84,0l.79.07.64.07.69.09,1.35.22.76.15c.68.14,1.34.3,2,.47s1.11.31,1.67.48l.6.19.65.21c1.29.43,2.55.9,3.8,1.41.62.24,1.24.5,1.86.76l3,1.27,1.58.65a50.19,50.19,0,0,0,9.37,3c20.84,4.14,42.25,9,64.15,8.68,16.88-.29,30.47-5.62,44.71-11.61l4.87-2.05,2.8-1.18q2.12-.88,4.26-1.75t4.37-1.73a99.19,99.19,0,0,1,11.06-3.54l1.48-.37,1.68-.37c.68-.15,1.36-.29,2-.41l1-.19c1-.18,2-.34,3-.49l1-.13,1.94-.25c2.22-.26,4.42-.43,6.62-.58l3-.16,1.93-.08c1,0,1.92-.08,2.9-.1.64,0,1.29-.05,2-.06.32,0,.65,0,1,0l2-.06,3-.11,1,0,2.08-.09c1.39-.07,2.81-.14,4.27-.24l2.2-.16,2.26-.19,2.3-.23c.79-.09,1.58-.17,2.37-.27s1.62-.2,2.44-.31l2.5-.37c2.62-.4,5.26-.76,7.89-1.1l2.63-.33c1.41-.18,2.81-.35,4.22-.51,17.57-2.13,35.18-4.1,52-12,17.25-8.15,36.88-28.71,54.87-39l1.13-.64h0l1.12-.6h0l1.12-.57c.94-.48,1.87-.91,2.79-1.31l1.1-.47h0l1.09-.42.56-.2c.72-.27,1.44-.5,2.17-.71h0l.8-.22c.41-.11.81-.21,1.21-.29l.6-.13.6-.11,1.05-.17h0c.45-.06.9-.11,1.35-.14s.83-.06,1.25-.07l2.93-.07,2.85-.05h.71l7.47-.08h.65l3.87,0h3.74l5.42,0,3.5,0,2.85-.06,1.4,0,1.39,0,2.21-.08,1.09-.05c1.52-.08,3-.16,4.5-.27,3-.22,5.88-.51,8.77-.91.93-.12,1.86-.27,2.8-.42s1.86-.31,2.79-.49c2.34-.45,4.66-1,7-1.6l1.42-.39c.94-.27,1.89-.55,2.84-.85h0c1.44-.45,2.88-.94,4.34-1.47a132.57,132.57,0,0,0,22-10.62q2.24,7,4.23,14c.31,1,.6,2.09.89,3.15l.54,2q1.59,5.92,3,11.92h0C833.77,366.26,834.2,368.09,834.61,369.93Z" fill="#4f7f68"/><path d="M843.09,501a419.89,419.89,0,0,1-14.74,78.89q-5.51,19.13-12.74,37.47c-1,1.88-2,3.75-3,5.6H50.29q-1.5-2.78-3-5.58a418.9,418.9,0,0,1-20-66.38q-1.75-8.22-3.17-16.55c-.06-.34-.11-.67-.17-1q-2.09-12.36-3.44-24.95c-.3-2.82-.58-5.64-.83-8.48,0-.29-.05-.57-.07-.86q-.42-5-.73-10c50.35-1.69,102.19-3.59,127.45-3.59,14.7,0,78.75-.46,166.3-.12,105.08.41,244,2,372,6.91C740.87,494.54,794.93,497.34,843.09,501Z" fill="#1fbdc8"/><path d="M684.09,516c-21.4,15.14-446.73,7.62-659.92,18.46-.06-.34-.11-.67-.17-1q-2.09-12.36-3.44-24.95c123.51-.12,279.09.18,409.81,1.4q16.47.15,32.37.33c17.94.19,35.29.4,51.86.64,23.37.33,45.23.7,65.11,1.13C629,513,666.14,514.33,684.09,516Z" fill="#2bdee2"/><path d="M828.35,579.88q-5.51,19.13-12.74,37.47c-1,1.88-2,3.75-3,5.6H50.29q-1.5-2.78-3-5.58a418.9,418.9,0,0,1-20-66.38c58,3,117.54,7.58,169.44,7.52,76.29-.09,152.59,8,229.36,11.49q18.08.81,36.18,1.23c26.73.58,53.54.35,80.42-1.23C639.6,564.3,733.55,568.94,828.35,579.88Z" fill="#2bdee2"/><path d="M26.09,202.51H337.23c1.16-2.08,1.67-4.34.25-6.36-4.44-6.31-18.54,2.77-22.72,4.47.28-1.66,1-2.82,1.22-4.49-6.52-6.34-14.2-2.2-21,2.44,3.7-22.25-12.56-16.1-23.05-6.32-10.14-32.71-21.52-20.63-35.12,1.2-5.66-14.53-15.05-10.55-24.41-2.93-5.08-13.72-16.6-13.11-25.25-3.3-9.39-16.08-19.4-17.52-33.1-4.65-15.39-16.48-20.77-23.35-33.52-.42-10.85-12.33-39.26-31.81-36.29,1.72-8-2.86-42.09-15.65-31.77,8.33-5.66-.8-26.17-5.42-29.71,1.85C20.94,197.74,22.85,200.67,26.09,202.51Z" fill="#fff"/><path d="M451.77,276.75H660.34c.78-1.39,1.13-2.91.17-4.26-3-4.23-12.43,1.86-15.23,3,.19-1.11.65-1.89.82-3-4.37-4.25-9.52-1.48-14.1,1.63,2.48-14.91-8.42-10.79-15.45-4.23-6.8-21.93-14.43-13.83-23.55.8-3.79-9.74-10.08-7.07-16.36-2-3.4-9.2-11.12-8.79-16.92-2.21-6.3-10.78-13-11.75-22.19-3.12-10.31-11-13.93-15.65-22.47-.28-7.27-8.27-26.32-21.33-24.33,1.15-5.37-1.92-28.22-10.49-21.3,5.59-3.79-.54-17.53-3.64-19.91,1.23C448.32,273.56,449.6,275.52,451.77,276.75Z" fill="#fff"/><path d="M557.21,141.43H855.32c1.11-2,1.61-4.16.25-6.09-4.26-6.05-17.77,2.66-21.78,4.29.27-1.6.93-2.71,1.17-4.3-6.24-6.08-13.6-2.12-20.14,2.33,3.54-21.32-12-15.43-22.09-6.06-9.71-31.33-20.62-19.76-33.65,1.16-5.42-13.93-14.42-10.12-23.39-2.81-4.86-13.15-15.9-12.56-24.19-3.16-9-15.41-18.59-16.79-31.72-4.46-14.74-15.79-19.9-22.37-32.11-.4-10.4-11.81-37.62-30.49-34.77,1.64-7.69-2.74-40.34-15-30.45,8-5.42-.77-25.06-5.2-28.46,1.76C552.27,136.86,554.1,139.67,557.21,141.43Z" fill="#fff"/><path d="M207.71,682.38l-79.14-.52-15.86-27.75,62.87-23.22,35.69-30.59S208.67,589,260,597.47l88.93,18.69-14.16,52.11-11.9,14.16Z" fill="#d35d36"/><path d="M378.35,586.59s10.77-4.79,20.95-.6c0,0,4.58.83,9.91-3.75a39.24,39.24,0,0,1,11.41-7.11c7.27-2.78,18.7-6,31.37-5.31L445.41,592l-68.26,18.57Z" fill="#eb6a35"/><path d="M505.57,461.47s21.82,2.65,25.47,6.87c0,0-1.51,8.08-8,24.11,0,0-17.16,56.54-17.16,64.13,0,0-13.94-21.84-17.15-22.78l.62-6.26a7,7,0,0,1,1.26-3.23,2.5,2.5,0,0,0,.09-2.89S497.37,481.39,505.57,461.47Z" fill="#ef846c"/><path d="M528.69,476.7s8,1.37,8.21-1.7c0,0,.37-4-5.82-6.83A82.68,82.68,0,0,0,528.69,476.7Z" fill="#f48225" data-secondary="true"/><path d="M528.69,476.7s8,1.37,8.21-1.7c0,0,.37-4-5.82-6.83A82.68,82.68,0,0,0,528.69,476.7Z" opacity="0.2"/><path d="M487.06,425s-7.33,1.47-6.76-2.64a18.67,18.67,0,0,1,6.55-9.5A70,70,0,0,1,487.06,425Z" fill="#f48225" data-secondary="true"/><path d="M487.06,425s-7.33,1.47-6.76-2.64a18.67,18.67,0,0,1,6.55-9.5A70,70,0,0,1,487.06,425Z" opacity="0.2"/><path d="M208.29,682.58s16.77-15.57,47.9-11.38c0,0,32.33,4.19,50.9-15,0,0,22.94-4,25.12-19.71a15.57,15.57,0,0,0-.7-6.45c-.79-2.74-.84-8.89,9.1-17.54,0,0,34.13-34.13,46.11-23.95,0,0,7.87,15.73,18.25,10.66a12.45,12.45,0,0,0,4.38-3.78c4.52-6,23.21-27.57,55.22-25.75l42.7.61a23.86,23.86,0,0,0,3.78-.26c6.37-1,30.67-2.84,43.91,23.31,0,0,29.94,29.34,36.53,59.87l-1.8,29.34Z" fill="#f89a63"/><path d="M294.71,583.62l-15,70.89,1.41.17s2.83-3,4.42,1.59l5.83,1.07,17.33-69S302.67,587.86,294.71,583.62Z" fill="#f29981"/><path d="M326.3,583.71l4.48-12.47s14.69-44.79,9.26-87.62c0,0-3.56.86-30.22-1.22l-10.7,44.08-8.63,53.71S306.16,595.86,326.3,583.71Z" fill="#686175" data-primary="true"/><path d="M326.3,583.71l4.48-12.47s14.69-44.79,9.26-87.62c0,0-3.56.86-30.22-1.22l-10.7,44.08-8.63,53.71S306.16,595.86,326.3,583.71Z" opacity="0.2"/><path d="M258,410.49s-41.57,40.21-25.54,63.3c0,0,16.57,20.37,39.4,18.47l27.43-90.74-11.68-23.36Z" fill="#7a383a"/><path d="M266.73,418.91l.55,19.56s6.21,5.85,10.84,7.88l14.74-50.77Z" fill="#bbc53d"/><path d="M266.73,418.91l.55,19.56s6.21,5.85,10.84,7.88l14.74-50.77Z" opacity="0.2"/><path d="M432.37,389.24s-21.83,28.31-30.26,33.28L387,403.07s-10.55,5.77-14.05,13.4l22,23.34s7.13,8,14.48-1.29l22.48-26.37L441.88,397" fill="#f29981"/><path d="M376.58,420.36A92.55,92.55,0,0,1,387,403.07s-9.9,4-14.2,13.26Z" fill="#ef846c"/><path d="M430.43,388.16s2.49,6.35,4.87,4.84c0,0,.56-5.49-2.91-13.27A28.68,28.68,0,0,1,430.43,388.16Z" fill="#ef846c"/><polygon points="305.66 365.85 311.65 341.09 332.75 345.07 338.33 364.81 343.91 375.12 342.2 387.14 325.6 390.29 308.57 376.55 305.66 365.85" fill="#f9ad9b"/><path d="M311.65,341.09s11.85,14.14,20.05,16.05a26.37,26.37,0,0,1-1.67-9.95S317.75,344.43,311.65,341.09Z" fill="#f29981"/><path d="M267.71,384.57l-1.64-26.38s1.48-8.29,16.15-7.2c0,0-7.17,12.62.44,20.77Z" fill="#bbc53d"/><path d="M267.71,384.57l-1.64-26.38s1.48-8.29,16.15-7.2c0,0-7.17,12.62.44,20.77Z" opacity="0.2"/><path d="M479.65,187.54,481,166.43l5.67,11.75,2,2.3A82.71,82.71,0,0,0,479.65,187.54Z" fill="#bbc53d"/><path d="M479.65,187.54,481,166l5.67,12.18,2,2.3A82.71,82.71,0,0,0,479.65,187.54Z" opacity="0.2"/><path d="M590.36,334.43l5.66-2.12s-3.89-7.07-4.6-31.11l-.71-35.36-5.3-7.42S582.23,303,590.36,334.43Z" fill="#bbc53d"/><path d="M530.19,134.74h33.47a9.52,9.52,0,0,1,9.52,9.52v26L528.48,169,518.21,134.1Z" fill="#bbc53d"/><path d="M530.19,134.74h33.47a9.52,9.52,0,0,1,9.52,9.52v26L528.48,169,518.21,134.1Z" opacity="0.2"/><path d="M608.54,250.22l-24.82,8.6a.64.64,0,0,1-.8-.42l-2.59-8.68s-3.18,28.41-7.32,54.19c-1.57,9.72-3.26,19-5,26.36,0,0-8.31,52.35-21.42,45.81a6.09,6.09,0,0,1-.64-.14l-.35-.08c-.21-.05-.43-.13-.7-.18-.8-.24-1.89-.62-3.28-1.18-5.82-2.35-16.45-8-30.21-21.29,0,0,0,0-.05,0s-31-43.3-56.39-12.1c0,0-3.52,2,0-4.52,0,0,22.41-51.87,26.42-60.92a20.74,20.74,0,0,0,.51-13.59s-.43,3.89-3.26,5.67a6,6,0,0,1-3.53.87l-3.07-.05-15.3-.22a9.79,9.79,0,0,1-3.31-1.05,4.22,4.22,0,0,1-2.25-5.22s4.81-46.83,29.46-75.54c0,0,9.06-7.8,15.12-9.05l52.86-13.6s.74-.05,2,0c5.35.08,20.06,1.15,30.75,10.26a34.15,34.15,0,0,1,5.71,6.38,281.06,281.06,0,0,1,29.2,57.4S621.86,245.68,608.54,250.22Z" fill="#686175" data-primary="true"/><path d="M521,207.08s-15.83-5.55-21.17-17.15c0,0,5.05.56,12.23-5.64a77.19,77.19,0,0,0,15.29,11.28Z" fill="#686175" data-primary="true"/><path d="M521,207.08s-15.83-5.55-21.17-17.15c0,0,5.05.56,12.23-5.64a77.19,77.19,0,0,0,15.29,11.28Z" fill="#fff" opacity="0.4"/><path d="M537.79,204.33l-10.4-8.76L542,169.71s1.19-2.21-.78-2.48c0,0-3.23-2-8.72-8.84,0,0,19.07.94,19.57,12.44C552,170.83,553.79,187.83,537.79,204.33Z" fill="#686175" data-primary="true"/><path d="M537.79,204.33l-10.4-8.76L542,169.71s1.19-2.21-.78-2.48c0,0-3.23-2-8.72-8.84,0,0,19.07.94,19.57,12.44C552,170.83,553.79,187.83,537.79,204.33Z" fill="#fff" opacity="0.4"/><path d="M507.84,213.22,506.33,215s-1.76.5-4.53-13.59c0,0-.33-7.06-1.93-11.46,0,0-3.2,1.61-11.45-9.5,0,0-7.26,5.1-8.77,7.11,0,0-4.79,64.19,2.26,74.51,0,0,3.27-17.11,8.31-24.16,0,0,4.28-9.07,4.53-16.87l.25-5.29a51.84,51.84,0,0,1,6.8,4.79l7.8,7.3,6-6.55ZM495,212s1-13.34.51-18.63c0,0,2.76,16.36,5,20.14Z" fill="#bbc53d"/><path d="M481.91,262.06s-.75,6.78-6.79,6.54l-3.07-.05-.16,0s-.62-21.82,1.79-37.26l4.83-24S476.14,254,481.91,262.06Z" opacity="0.2"/><path d="M512.1,184.29a67,67,0,0,0,15.29,11.28s11.52-20.22,14.58-25.86c0,0,1.41-2.36-.71-2.59,0,0-6.58-4-14.58-17.17l-18.81,31.28Z" fill="#f9ad9b"/><path d="M512.1,184.29s5.23,5.18,9.17,7.52V171.35S515.87,181.23,512.1,184.29Z" fill="#f29981"/><path d="M473.3,145.48s-1.65,4,4.23,15.76c0,0,14.35,31,22.34,28.69,0,0,5.41.47,12.23-5.64,0,0,13.41-12.94,9.41-21.64L498,121Z" fill="#f9ad9b"/><path d="M521.55,162.65a19.12,19.12,0,0,1,.67,4.47,14.43,14.43,0,0,0,3.79-7.63S525.1,161.43,521.55,162.65Z" fill="#f29981"/><path d="M573,303.91c-1.58,9.72-3.26,19-5,26.36,0,0-8.31,52.35-21.42,45.81,0,0-.22,0-.65-.13a2.44,2.44,0,0,0-.34-.08l-.7-.19c-.8-.24-1.89-.61-3.28-1.17-5.5-2.3-15.57-7.88-30.21-21.29,1.36.29,29.06,6.11,39.1-14Z" opacity="0.2"/><path d="M480,279.06s5.45,19.36,16.64,29c0,0-9.38-11.79-12.4-25.71,0,0,10,29.34,39.32,40.54,0,0-28-10.73-41.69-60.88a20.13,20.13,0,0,1-.5,13.6Z" opacity="0.2"/><ellipse cx="530.41" cy="209.34" rx="2.57" ry="2.87" opacity="0.2"/><ellipse cx="532.22" cy="220.83" rx="2.57" ry="2.87" opacity="0.2"/><path d="M586.34,189.7s9.37,47.09,31.07,51.78c0,0,1.11,5.41-8.88,8.74l-24.79,8.6a.65.65,0,0,1-.82-.42l-2.58-8.68S589.79,226.19,586.34,189.7Z" opacity="0.2"/><path d="M428.92,390.75s7.34,7.13,6.91,11.67c0,0-.43,2.81-5-3.45,0,0-1.94-.22.43,3,0,0,4.33,5.19,2.81,7.35,0,0-.82,2.38-5.27-5.4C428.83,403.94,423.73,397.24,428.92,390.75Z" fill="#ef846c"/><path d="M455,341.1s-1.74,32.44,15.71,57c0,0,8.54,19.94,9.61,24.21,0,0,3.2-13.17,29.55-21.36,0,0,7.12-2.49,10.68,0l-12.46-52.33S479.14,311.86,455,341.1Z" fill="#f48225" data-secondary="true"/><path d="M550.07,376.74S554,431.21,536.9,475c0,0,0-9.61-31.33-13.53l9.26-22.78s13.53-21,5.7-37.74c0,0-11.4-48.06-12.46-52.33C508.07,348.62,526.58,371.76,550.07,376.74Z" fill="#f48225" data-secondary="true"/><path d="M526.58,371.76s-.65,28.58-1.64,39.83a12.41,12.41,0,0,0,.13,3.16c.79,4.66,3.36,18,8.27,27.85,0,0-8.54-12.46-11.75-21.36,0,0,3.92-7.83-1.06-20.29l-12.46-52.33s18.86,22.43,42,28.12l.36,7.48S534.41,379.59,526.58,371.76Z" opacity="0.2"/><path d="M486.85,412.81s1.62,14.11-1.76,20.86a108.67,108.67,0,0,0-12.38,50.63l-1.12,33.75a33.64,33.64,0,0,1,6.75,2.25,30.05,30.05,0,0,0,12.38,1.12s6.93-40,14.85-59.95l9.26-22.78s14.07-22.28,5.7-37.74C520.53,401,511.09,393.59,486.85,412.81Z" fill="#f29981"/><path d="M471.85,526.64a5,5,0,0,0-1.33-3.61c-1.2-1.24-2.29-3.28,1.07-5a34.4,34.4,0,0,1,6.26,2,5.78,5.78,0,0,0,1,.39c2,.51,9.46,1.45,11.82,1a2.36,2.36,0,0,1-.09,2.89s-1.29.94-1.88,9.49c0,0-12.9-1.52-15.35,4.05l.64,10.7s-1.71,5.13-4.49.64a7.06,7.06,0,0,1,1-3.2,8.07,8.07,0,0,0,1-3.89Z" fill="#d1d3d4"/><path d="M467.62,542.35a13.79,13.79,0,0,0,1.93,6.84s2.35,4.92,4.49-.64l-.64-10.7s.32-5.54,15.35-4.05c0,0,2.62-1.08,7.32,6l9.83,16.8s1.08,3.09,5.14,2.66c0,0,17.76-3.63,17.76,4.28,0,0-15.36-3.23-28.4.71a9.12,9.12,0,0,1-2.38.59l-33.82.41S464,549,467.62,542.35Z" fill="#686175" data-primary="true"/><path d="M467.62,542.35s.64-3.64,3.85-2.36c0,0,.69,1.94-.94,6a5.35,5.35,0,0,0-1,3.2A11.11,11.11,0,0,1,467.62,542.35Z" fill="#686175" data-primary="true"/><path d="M467.62,542.35s.64-3.64,3.85-2.36c0,0,.69,1.94-.94,6a5.35,5.35,0,0,0-1,3.2A11.11,11.11,0,0,1,467.62,542.35Z" opacity="0.2"/><path d="M464.2,565.23l-.22,4.52,44.56.6a11,11,0,0,0,2.07-.16,43.91,43.91,0,0,1,18.74,1,10.56,10.56,0,0,0-.55-7.68s-14.87-3.5-28.4.71c0,0-2.4.79-8,.36Z" fill="#414042"/><path d="M473.3,145.48a17.79,17.79,0,0,0,.78,7.6s9-3.52,14-20.81C488,132.27,481.13,145.35,473.3,145.48Z" fill="#f29981"/><path d="M357.91,409.71l11.64,15.7s-.54-3.26,3.39-8.94c0,0,2-5.42,14.05-13.4l-25.83-34.78a11.92,11.92,0,0,0-14.89-4.6L337.34,365s11.34,14.45.77,19.78a11.43,11.43,0,0,1-7.66.79c-5.73-1.28-17-5.56-24.79-19.76l-13,1.35s-6.22-1.89-13.53,6.23l-27.08,24.64s11.38,12.72,13.54,22.47L292.12,397S278,444.37,272,463.41a45.58,45.58,0,0,1-4.16,9.33c-1.08,1.87-2.13,4.15-2.12,6a.86.86,0,0,0,1.25.8c1.77-1,7.13-2.22,23.22,0,0,0,34.38,7,49.81,4.06,0,0-.27-21.93,6-39.8l6.77-21.93S356.83,413,357.91,409.71Z" fill="#f48225" data-secondary="true"/><path d="M363.93,493.55h4.94S362.52,439.3,355,417.22a26,26,0,0,0-3.05,7.52S361.58,460.44,363.93,493.55Z" fill="#bbc53d"/><path d="M363.93,493.55h4.94S362.52,439.3,355,417.22a26,26,0,0,0-3.05,7.52S361.58,460.44,363.93,493.55Z" opacity="0.2"/><path d="M340.45,472.18S351,486.51,343,502.24l3.76,1.65s11-19.26-5.64-38.76Z" fill="#bbc53d"/><path d="M340.45,472.18S351,486.51,343,502.24l3.76,1.65s11-19.26-5.64-38.76Z" opacity="0.2"/><path d="M378.66,422.56s-8.77,7.45-9.11,2.85c0,0-1.15-3.24,3.39-8.94Z" fill="#f48225" data-secondary="true"/><path d="M378.66,422.56s-8.77,7.45-9.11,2.85c0,0-1.15-3.24,3.39-8.94Z" opacity="0.3"/><path d="M265.59,420.54s-1.8.35-6.43-3.12l4-3.43q.48.86.93,1.86A24.32,24.32,0,0,1,265.59,420.54Z" fill="#f48225" data-secondary="true"/><path d="M265.59,420.54s-1.8.35-6.43-3.12l4-3.43q.48.86.93,1.86A24.32,24.32,0,0,1,265.59,420.54Z" opacity="0.3"/><path d="M369.55,425.41s-1.7-30-14.91-45.71c0,0,6.31,14.85,3.27,30Z" opacity="0.2"/><path d="M305.77,411a73.33,73.33,0,0,1-11.09,15.31,121.51,121.51,0,0,0-8.42,9.31c-3.14,4-7.1,9.09-9.68,12.9l3.24-10.19a52.51,52.51,0,0,1,10-12.74S302.52,417.46,305.77,411Z" opacity="0.2"/><path d="M272.87,460.08a107.26,107.26,0,0,1,26.18,1.39s33.94,6.63,42.1,3.66l-.7,7.05s-17.77,1.8-34-3.06c0,0-18.53-4.64-35.44-3Z" fill="#bbc53d"/><path d="M308.92,462.9s24.68.21,35.86-14.77c0,0-2,5.53-3.63,17,0,0-6.71,1.35-17.25.09C323.9,465.22,314.62,464.16,308.92,462.9Z" opacity="0.2"/><path d="M310.63,565.17l-11.36,34.74a16,16,0,0,0,12,6L329,574.15A95.73,95.73,0,0,1,310.63,565.17Z" fill="#f9ad9b"/><path d="M310.63,565.17s6.36,12.09,14.84,15.62l3.56-6.64A94.87,94.87,0,0,1,310.63,565.17Z" fill="#f29981"/><path d="M294.71,624.63a8.14,8.14,0,0,1-4.24-1.77l7.07-16.26s-3.44-6.67,1.73-6.69a16.18,16.18,0,0,0,12,6s3.4,2.8-1.9,4L306,618.8S293.3,615.79,294.71,624.63Z" fill="#e6e7e8"/><path d="M286.55,636.24h0s-2.62,10.14,1.45,11.37c0,0,3.35-.17,3.18,2.12,0,0,.17,3.72,4.95,5.66,0,0,20.68,5.13,23.15-6.54l-12.37-10.43Z" fill="#414042"/><path d="M279.28,657.24s-2.35-1.83,0-2.88l1.82.32s2.95-2.9,4.42,1.59l5.83,1.07-.56,1.73a16,16,0,0,0-4.19,2s-6.27-1.57-6,5.49l-2.75.13.79-6S276.27,658.15,279.28,657.24Z" fill="#e6e7e8"/><path d="M275.23,671.36s-1.31-4.06,2.61-4.71l2.75-.13s-1-7.19,6-5.49c0,0-7.32,6.14-8.89,10.33Z" fill="#f48225" data-secondary="true"/><path d="M330,347.19s-13.3-2.65-18.65-6.27a4.75,4.75,0,0,0-2.67-1.91l-.95-3.81,2.67-7.25.76-12.12s4.58,6.78,19.08,5.34c0,0-8.68.58-12.59-4.77,0,0,9.29,3,23.08.39,0,0,6,19.27.77,27C341.53,343.78,338.93,349.73,330,347.19Z" fill="#f9ad9b"/><path d="M352.27,315.47s12.19-4.83,6.51-15.26c0,0-2.58-6.62-11-5.94,0,0-4.77,1.14-7.49,3.4a13.36,13.36,0,0,1,6.06,6.07S350.91,310.71,352.27,315.47Z" fill="#f48225" data-secondary="true"/><path d="M310.47,327.9l-2.71,7.33,1,3.43a.79.79,0,0,0,.42.51c1.08.49,4.57,2.55,4.57,8.29,0,0-1.47,15.32-8.07,18.39l-13,1.35s-5.06-1.32-11,3.62c0,0-7.61-6.79.54-19.83,0,0-13.86-1.36-15.22,7.61l.71,25.44-17.09,15.47s-19.2-4.51-12.41-27.6c0,0,2.71-14.4,29.61-29.34l-13.31,5.7s5.43-5.16,19-11.41c0,0-48.09,13-44.29,39.94,0,0-6.25-12.72,11.59-26.83a59.68,59.68,0,0,1,10.07-6.31l25.61-13.05s14.13-8.15,20.65-13c0,0,12.77-8.42,16.84-11.68,0,0,11.42,1.63,18.21-3.26l8.42-5.16s4.89,3,6.25,6c0,0,6.52-1.63,8.15-4.08a14.93,14.93,0,0,1-6.79,5.71l6.79-.27s-2.45,4.61-4.62,5.43a47,47,0,0,1,3.26,32.6,70.86,70.86,0,0,1-9.24,19s-9,13.58-6.25,25.81c0,0-4.11-12.33,4.63-25.89a58.31,58.31,0,0,0,5.77-11.11,46.45,46.45,0,0,0,2.92-10.82s-10.25,18.42-10.79,24.67l-3.37.52s-7.58-4.27-7.31-17.85c0,0,20.92,7.6,10.87-30.16,0,0-15.48,3.26-22.82-.27,0,0,2.17,4.35,12.5,4.35,0,0-12,2.17-19.29-4.89l-.82,11.68" fill="#7a383a"/><path d="M792.45,621.37s1.08-5.65,25,.79c0,0,41.41,6.44,47.85,12V682H840.46l-41-10.58Z" fill="#eb6a35"/><path d="M825.92,664.39,840.46,682H865.3l.46-11.5S841.74,657.84,825.92,664.39Z" fill="#c64325"/><path d="M575.94,621.69s54.4-28.38,83.72-6.15l32.64,23.18s19.87,16.08,33.58,7.57c0,0,13.25-6.62,35,7.09l16.55,18.92v9.46H577.83Z" fill="#f89a63"/><path d="M596.48,643.37s5-6.07,26.29,2.44c0,0,62.43,19.87,98.86,20.34l5.67,15.61L593,682.24Z" fill="#eb6a35"/><path d="M545.4,583s15.51,17.46-7.57,27.94a44.78,44.78,0,0,1-14.72,3.65c-23.92,2-117,10.35-107,18.71,0,0,8.38,3.59,44.9,1.79,0,0,65.27-4.19,56.28,8.39,0,0-25.74,7.78-10.17,19.75,0,0,23.35,16.17,43.1,12.58,0,0,6-12,27-22.16l13-6.58s-12.42-32.93-35.77-53.89Z" fill="#eb6a35"/><path d="M28.31,682.43S78.16,603.7,146.7,607.66a158,158,0,0,1,36.81,9.06l22.66-16.42s7.36-17.56,51.55-2.27c0,0-44.75-9.06-44.19,7.93,0,0,6.83,22.42-35.58,45.11a78.73,78.73,0,0,1-17,6.68c-10.12,2.66-29.46,9.58-32.37,24.11Z" fill="#f89a63"/><path d="M475.41,121.08s-10.65-19.31,7.4-23.1c0,0,11.14-4.26,25.3,5.48a8.68,8.68,0,0,0,5.57,1.49c3.26-.24,8-1.1,10.1-3.9,0,0-2.17,4.51-4.33,5.59,0,0,14.26-.54,14.44,14.44,0,0-4.33-11.37-11.91-12.09,0,0,20,16.84,4.84,42.29,0,0-4.84-9.62-13.69-3.12,0,0-3.25,3.61-2.52,7.21,0,0-8.49,4-22.57-23.1,0,0-8.12,17.51-21.11,13a19.44,19.44,0,0,1-7.58-4.88s4.51,2.53,6.13,2.53c0,0-10.46-4.87-8.3-17,0,0,.18,10.64,6.68,12.63,0,0-5.05-7.22.9-14.08C464.76,124.51,468,120.36,475.41,121.08Z" fill="#7a383a"/><ellipse cx="519.1" cy="154.33" rx="8.43" ry="8.67" transform="translate(-22.45 152.72) rotate(-16.39)" fill="#f9ad9b"/><path d="M581.42,174.1c-10.68-9.1-25.4-10.17-30.74-10.25a104.44,104.44,0,0,1,6.56,10.88,12,12,0,0,1,1.17,6.48c-.42,4-1,12.27.06,18.53a4.51,4.51,0,0,1-1.17,3.87c-2.1,2.24-5.43,5.91-4.91,6.07.75.27,6.81,6.3,6.81,6.3l9.56-12.33a150.63,150.63,0,0,0,6.36,19.41,64.46,64.46,0,0,1,5.08,18.67,33.89,33.89,0,0,1,.13,8,124.14,124.14,0,0,0,6.3-32.48C587.65,199.21,586.87,186.9,581.42,174.1Zm-12.56,28.41a30.39,30.39,0,0,1-.92-17.08,102.56,102.56,0,0,0,4.15,12.92Z" fill="#bbc53d"/><path d="M295.72,318.61s-4.89-19,16.18-26c0,0,15.7-5.78,26,3.31a75.39,75.39,0,0,0-25.87,11.52q-3.62,2.59-7.41,5.21Q300.14,315.74,295.72,318.61Z" fill="#f48225" data-secondary="true"/><path d="M313.78,306.07s20-13.39,34-11.8c0,0-5,1.59-7.49,3.4l-8.64,5.43a21.28,21.28,0,0,1-12.92,3.26Z" fill="#f48225" data-secondary="true"/><path d="M313.78,306.07s20-13.39,34-11.8c0,0-5,1.59-7.49,3.4l-8.64,5.43a21.28,21.28,0,0,1-12.92,3.26Z" opacity="0.2"/><circle cx="307.35" cy="333.2" r="5.84" fill="#f9ad9b"/><path d="M350.71,428.48A127.33,127.33,0,0,0,346.38,416a5.49,5.49,0,0,0-1-1.44,7.27,7.27,0,0,1-1.86-5.38l-1.35-.27v3H320.82v-3.79l-12.72-.82s-4.56,8.92-12.05,13.87a42.83,42.83,0,0,0-17.46,20.79L292.12,397s6.77-20,.54-29.79l13-1.35s7.85,21.12,4.06,37.09l11.1.81v-2.16l21.39.54v3.25h1.62s6.6-20.31-1.25-41.15l3.69-.54s16,20.43,11.64,46c-.54,1.45-.8,2.34-1.41,3.83-1,2.5-2.4,5.48-3.46,7.77a9.78,9.78,0,0,0-.47,1.21Z" fill="#bbc53d"/><path d="M265.76,478.74s-6,30.15,25.69,43.26l21.95,12.29a4.22,4.22,0,0,1,2.17,4.17,21.23,21.23,0,0,1-1.1,4.32s-12.15,20.15-3.84,22.39c0,0,24.94,15,27.82,8l9.59-31s7-18.87-8-30.7c0,0-25.45-18.53-30.25-28.76a211.68,211.68,0,0,0-26.19-4.34A103.91,103.91,0,0,0,265.76,478.74Z" fill="#686175" data-primary="true"/><path d="M297.89,451.28l5.62-6.44a2.91,2.91,0,0,0-.67-4.39h0a3,3,0,0,0-4.1.93c-1,1.4-2.82,3.22-6.41,5.27Z" fill="#8c4826"/><path d="M280,462.37s-4.29,3.37-2.45,5.67L149.89,614.21l2.29,2.87L279,469.7s3.44,2.19,5.92-5.25A8.15,8.15,0,0,1,280,462.37Z" fill="#8c4826"/><path d="M303.51,444.84s11.4,20.38,1,30.16a3.65,3.65,0,0,1-5.37-.39c-1.26-1.61-2.43-4.63-2.7-10.24v-7.8s3.51-2.05,1.42-5.29Z" fill="none" stroke="#8c4826" stroke-miterlimit="10" stroke-width="0.25"/><path d="M252.05,398.07l-16.7,17.08s-7.18,6,.69,14.36c0,0,14.6,15.75,39.15,29.65,0,0,10,8.8,13,3.7,0,0,2.78-.69,2.78-2.54,0,0,3.94.92,3.71-3.25,0,0,4.06.11,4.62-3.1a2.56,2.56,0,0,0-1-2.34l-6-5s7.64-3.94,7.41-8.11c0,0-.23-5.33-3.47-.93a11.26,11.26,0,0,1-6.95,3.71S282,443,277.35,446c0,0-12.32-7.33-24.86-22.72L263.14,414S260,406.94,252.05,398.07Z" fill="#f9ad9b"/><path d="M252.05,398.07l8.61,18.08,2.48-2.16A69.77,69.77,0,0,0,252.05,398.07Z" fill="#f29981"/><line x1="288.16" y1="462.86" x2="277.62" y2="454.44" fill="none" stroke="#f29981" stroke-miterlimit="10" stroke-width="0.25"/><line x1="290.94" y1="460.32" x2="280.38" y2="451.76" fill="none" stroke="#f29981" stroke-miterlimit="10" stroke-width="0.25"/><line x1="294.65" y1="457.07" x2="283.53" y2="448.62" fill="none" stroke="#f29981" stroke-miterlimit="10" stroke-width="0.25"/><path d="M286.55,636.24c-.11-2.38.27-7.16,3.92-13.38,0,0,1.06,1.07,4.24,1.77,0,0-1.94-6.54,6.72-6.36l4.6.53s2.47-1.42,1.59,3.71a24.75,24.75,0,0,0,3.53,12.38l6,8.13s4.95,5.83,0,8c0,0-12.17,4.27-23.21-3.34a5.17,5.17,0,0,1-2.32-4.49v-.09a4.23,4.23,0,0,0-1.63-3.73,8.25,8.25,0,0,0-2-1.11A2.22,2.22,0,0,1,286.55,636.24Z" fill="#f48225" data-secondary="true"/><path d="M702,682.89s26.69-26.68,37.27-23.92c0,0,26.68,0,25.76-14.27,0,0,.42-10.42,27.45-23.33a7.35,7.35,0,0,1,8.14,1.19c5.6,5.16,14.62,16,7.66,27.21,0,0-10.58,18.86,3.22,18.4,0,0,6.26.78,14.45-3.78a4.15,4.15,0,0,1,4.51.28,24.36,24.36,0,0,1,10,17.76Z" fill="#f89a63"/><path d="M546.61,682.71s4.1-17.77,39.58-33.63a38.79,38.79,0,0,0,4-2l6.33-3.69a8.28,8.28,0,0,1,6.95-.66c6,2.12,16.41,7.34,13.66,17.3l-4.26,17.5s29.33-7.1,28.86,4.73Z" fill="#f89a63"/><path d="M270.56,671.07s4-.41,6.53-.82a2.83,2.83,0,0,0,1.83-1.16A46.11,46.11,0,0,1,286.6,661a15.88,15.88,0,0,1,4.19-2l.56-1.73s3.44-3.16,5.92.28l3.87,4.16a2.85,2.85,0,0,1-.74,4.45l-7.16,3.83a20.77,20.77,0,0,1-12.33,2.3Z" fill="#f68b52"/><path d="M694.35,269.52s1.11,2-2.86,4.63l-3.06,2.45.46-3.21a10.53,10.53,0,0,0,3.82-1.68A3.34,3.34,0,0,0,694.35,269.52Z" fill="#f29981"/><path d="M697,278.28s-1.68,3.36-3.82,3.67c0,0-4,.76-2.14-1.68l2.91-.77A13.82,13.82,0,0,0,697,278.28Z" fill="#f29981"/><polygon points="677.06 302.13 675.29 301.87 686.91 257.92 692.72 259.44 682.37 303.39 680.09 302.63 603.3 624.2 599.76 622.94 677.06 302.13" fill="#8c4826"/><path d="M692.47,259.79s9.17,9.68,3.54,26.4a18.59,18.59,0,0,1-4.49,7.38c-2,1.93-4.61,3.63-7.39,2.75" fill="none" stroke="#8c4826" stroke-miterlimit="10" stroke-width="0.25"/><path d="M684.9,292.46s8.06,2.89,7.81-20.75" fill="none" stroke="#8c4826" stroke-miterlimit="10" stroke-width="0.25"/><path d="M684.61,282.71s-3.05-2.9.77-4.74l9.32-3.51s2.6-.61,2.6,1.83.3,2.3-6.27,4c0,0-1.22,1.37.61,1.83,0,0,3.82-.3,3.52,1.68,0,0,1.68,2.45-4.74,2.91a3.7,3.7,0,0,1,1.84,3.36s.61,3.21-5.81,1.07c0,0-5.81-.61-3.52-4.43C682.93,286.69,680.49,283.48,684.61,282.71Z" fill="#f9ad9b"/><path d="M686,272.93a3.6,3.6,0,0,1,2.29-4s4.89-2.75,5.81-.77c0,0,1.83,2.3-1.38,3.52C692.71,271.71,687.52,275.38,686,272.93Z" fill="#f9ad9b"/><path d="M585.34,258.28a61.83,61.83,0,0,0,39.31,30.9s31.05,8.74,53,3.79c0,0,6.08-16.87,5-23.94,0,0,7.08-2.83,3.89-9.55,0,0-1.41-2.83-3.89,3.18l-4.59,4.6a30.12,30.12,0,0,0-5.66,13.79s-47.44.22-63.85-30.83Z" fill="#f9ad9b"/><path d="M468.7,296.42,439.51,363.7a48.6,48.6,0,0,1,.82,22.27,15.62,15.62,0,0,0-.09,5.94,9.73,9.73,0,0,1,.08,3.67,2.12,2.12,0,0,1-2.65,1.64c-3.06-.9-2.79-7.17-2.79-7.17.71-2.85-2.49-10.32-2.49-10.32,0,8.18-4.27,12.1-4.27,12.1-3.56,6.41.71,12.1.71,12.1,5,11,1.07,11,1.07,11-5-1.07-8.55-23.85-8.55-23.85-2.13-15.67,7.48-28.13,7.48-28.13l21.71-79.39c3.34-8.8,3.06-14.76,2.9-16.32a9.79,9.79,0,0,0,3.31,1.05l15.3.22,3.07.05a6,6,0,0,0,3.53-.87C477.18,280.52,468.7,296.42,468.7,296.42Z" fill="#f9ad9b"/><path d="M441.88,397c1.81-3.29,7.24-14.67,4.91-27.58a9.65,9.65,0,0,0-2.06-4.44l-5.22-6.24s-2.17-3.45-7.35.44c0,0-6.49-1.08-5.19,4.32,0,0-4.11-1.73-3.89,1.73,0,0-.65,2.38,4.11,1.3,0,0-4.76,3.67.64,5l4.76-.22s-1.73,5.19,6.05,8.43l2.36.75a55.3,55.3,0,0,1-1.49,8.5s1.49,4.81.7,6.81Z" fill="#f29981"/></svg>