<svg id="a1396398-0bf5-41a3-a8a7-d303c3ed585b" data-name="Layer 1" xmlns="http://www.w3.org/2000/svg" width="865.76" height="682.89" viewBox="0 0 865.76 682.89"><g id="b2ad7fe5-efbe-4e58-85d4-287594bf8cb0" data-name="freepik--background-complete--inject-18"><path d="M786.11,682.56c-3.46-40.92-5.19-81.84-6.92-122.76C775.72,445.22,789.58,332,793,218.8c3.46-72.29,1.73-145.94-6.93-218.23,13.86,120,10.39,240.06,0,361.45-10.39,107.76-6.92,214.15,1.74,320.54Z" fill="#ebebeb"/><path d="M708.19,682.56c-1.73-20.46-1.73-40.92-3.46-61.38-5.19-60-1.73-118.67-3.46-177.32,12.12-147.31,20.78-296,6.92-443.29a1619.51,1619.51,0,0,1,5.2,259.15c-5.2,102.3-15.58,204.6-12.12,306.9C703,604.81,704.73,644.36,708.19,682.56Z" fill="#ebebeb"/><path d="M630.28,682.56a1511.6,1511.6,0,0,1-8.66-197.78c1.73-38.19,1.73-77.75,5.19-115.94A2049.82,2049.82,0,0,0,637.2,116.51c-1.73-38.19-3.46-77.75-6.92-115.94a1374.37,1374.37,0,0,1,5.19,238.69C628.54,386.57,616.42,535.25,630.28,682.56Z" fill="#ebebeb"/><path d="M550.63,682.56c-3.47-38.2-5.2-77.75-6.93-115.94a2050,2050,0,0,1,10.39-252.34c3.46-38.19,3.46-77.74,5.19-115.93A1513.26,1513.26,0,0,0,550.63.57c8.65,72.29,10.39,145.94,6.92,218.23-5.19,154.13-22.51,309.63-5.19,463.76Z" fill="#ebebeb"/><path d="M472.71,682.56c-8.66-81.84-8.66-163.68-5.2-245.52,5.2-111.85,17.32-222.33,12.12-334.17-1.73-34.1-3.46-68.2-6.92-102.3,6.92,61.38,10.39,122.76,6.92,184.14,0,23.18,1.73,45,0,68.19l-5.19,81.84c-1.73,6.82-1.73,13.64-3.46,20.46-3.47,31.37-3.47,64.11-5.2,95.48C464.05,528.43,465.78,604.81,472.71,682.56Z" fill="#ebebeb"/><path d="M394.79,682.56c-8.66-70.93-10.39-140.49-8.66-211.42,1.73-27.28,1.73-54.56,3.46-81.84,3.47-38.19,6.93-77.75,8.66-115.94C405.18,182,400,92,394.79.57,400,79.68,405.18,158.79,400,239.26c-1.73,64.11-8.65,126.85-12.12,191-1.73,20.46,0,40.92,0,61.38A1408.51,1408.51,0,0,0,394.79,682.56Z" fill="#ebebeb"/><path d="M315.14,682.56c-1.73-20.46-1.73-40.92-3.46-61.38-5.2-60-1.74-118.67-3.47-177.32C320.33,296.55,329,147.88,315.14.57a1619.51,1619.51,0,0,1,5.19,259.15c-5.19,102.3-15.58,204.6-12.12,306.9C309.94,604.81,313.41,644.36,315.14,682.56Z" fill="#ebebeb"/><path d="M237.22,682.56a1511.6,1511.6,0,0,1-8.66-197.78c1.73-38.19,1.73-77.75,5.2-115.94C247.61,246.08,245.88,123.33,237.22.57c8.66,81.84,8.66,163.68,6.93,245.51-1.74,61.38-10.39,122.76-12.13,184.14-3.46,51.83-1.73,105-1.73,156.86C232,618.45,233.76,651.18,237.22,682.56Z" fill="#ebebeb"/><path d="M157.57,682.56c-3.46-77.75-8.66-154.13-5.2-231.88,3.47-81.84,12.13-163.68,13.86-245.52,0-68.19-1.73-136.39-8.66-204.59,10.39,75,10.39,150,8.66,225.05-3.47,109.12-19,218.24-15.59,327.36,1.73,34.1,1.73,68.2,6.93,102.3,0,9.54-1.73,17.73,1.73,27.28Z" fill="#ebebeb"/><path d="M79.65,682.56C71,600.72,71,518.88,72.72,437c1.74-64.11,10.39-126.85,12.12-191A1935.18,1935.18,0,0,0,79.65.57c6.93,64.11,8.66,126.85,8.66,191-1.73,31.37-1.73,64.1-3.47,95.47-3.46,51.83-8.65,105-10.38,156.86C71,524.33,74.46,603.44,79.65,682.56Z" fill="#ebebeb"/><path d="M0,619.81c26-1.36,52-1.36,77.92-2.73,76.19-4.09,150.64-1.36,225.1-2.72,187,9.54,375.74,16.36,562.74,5.45-109.44,6.82-219.32,8.19-329,4.09-129.86-4.09-259.73-12.27-389.59-9.54C98.7,615.72,48.48,618.45,0,619.81Z" fill="#ebebeb"/><path d="M0,558.43q125.23-8.5,251.07-6.82c48.48,1.37,98.7,1.37,147.18,4.1,155.84,10.91,311.68,9.54,467.51,2.72-103.89,6.82-207.78,6.82-311.67,5.46-77.92-1.36-155.84-8.18-233.76-9.55C254.53,551.61,187,553,121.21,553,81.38,554.34,39.83,555.71,0,558.43Z" fill="#ebebeb"/><path d="M0,495.69c98.7-2.73,195.66-6.82,294.36-4.09,103.89,2.73,207.78,9.55,311.67,10.91,86.58,0,173.16-1.36,259.73-6.82-95.23,8.18-190.46,8.18-285.7,6.82-138.52-2.73-277-15-415.56-12.27-43.29,1.36-86.58,1.36-129.87,5.45-12.12,0-22.51-1.36-34.63,1.37Z" fill="#ebebeb"/><path d="M0,434.31c103.89-6.82,207.78-6.82,311.68-5.45,81.38,1.36,161,8.18,242.41,9.54q155.83,4.1,311.67-4.09c-81.38,5.46-161,6.82-242.41,6.82-39.83-1.36-81.38-1.36-121.21-2.73-65.79-2.72-133.32-6.82-199.12-8.18C200.86,427.49,100.43,430.22,0,434.31Z" fill="#ebebeb"/><path d="M0,372.93c90-6.82,178.35-8.18,268.39-6.82,34.63,1.37,69.26,1.37,103.89,2.73,48.48,2.73,98.7,5.46,147.18,6.82,116,5.46,230.29,1.37,346.3-2.73-168,8.19-334.18,5.46-502.14-2.72C242.41,363.39,121.21,364.75,0,372.93Z" fill="#ebebeb"/><path d="M0,310.19c168-8.18,334.18-5.46,502.14,2.73,121.21,6.82,242.42,5.45,363.62-2.73-90,6.82-178.34,8.18-268.38,6.82-34.63-1.36-69.26-1.36-103.89-2.73-48.49-2.73-98.7-5.45-147.18-6.82C230.29,302,116,306.1,0,310.19Z" fill="#ebebeb"/><path d="M0,248.81C81.38,243.36,161,242,242.41,242c39.83,1.37,81.39,1.37,121.21,2.73,65.8,2.73,133.33,6.82,199.13,8.18,102.16,2.73,202.59,0,303-4.09-103.89,6.82-207.78,6.82-311.67,5.46-81.38-1.37-161-8.19-242.41-9.55Q155.83,240.63,0,248.81Z" fill="#ebebeb"/><path d="M0,186.07c98.7-2.73,195.66-6.82,294.36-5.46,100.43,2.73,202.59,10.92,303,12.28,90,1.36,178.34,0,268.38-6.82-95.23,8.18-190.46,8.18-285.7,6.82-135.06-2.73-270.12-15-406.91-12.28-46.75,1.37-91.77,0-138.52,4.1-12.12,1.36-22.51,0-34.63,2.72Z" fill="#ebebeb"/><path d="M0,124.69c103.89-6.82,207.78-6.82,311.68-5.46,77.91,1.37,155.83,8.19,233.75,9.55,65.8,2.73,133.33,1.37,199.13,1.37,39.82-1.37,81.38-2.73,121.2-5.46q-125.22,8.52-251.07,6.82c-48.48-1.36-98.69-1.36-147.18-4.09C311.68,116.51,155.84,117.87,0,124.69Z" fill="#ebebeb"/><path d="M0,63.31c109.44-6.82,219.33-8.18,329-4.09,129.86,4.09,259.73,12.28,389.59,9.55,48.49-1.37,98.7-4.09,147.18-5.46-26,1.37-51.94,1.37-77.91,2.73-76.19,4.09-150.65,1.36-225.1,2.73C375.74,59.22,187,52.4,0,63.31Z" fill="#ebebeb"/></g><g opacity="0.1"><rect y="0.57" width="865.76" height="681.99" fill="#f48225" data-secondary="true"/><path d="M213.84.34,181.05.57C193,39.21,202.52,100.4,111.39,150.76,41.14,189.57,0,253.2,0,253.2v59.12s28.36-90.79,102.54-139.74C184.79,118.32,266.36,66,213.84.34Z" fill="#fff"/><path d="M544.86.57,510.8.34c-103.13,45.39.09,49.29-35.5,127.62-49.83,109.64-266.17-55.4-266.17-55.4V82s226.56,177.76,276.37,68.1C521.19,71.74,441.73,46,544.86.57Z" fill="#fff"/><path d="M320.51,301.22c72.55-140.81,105.31-127.43,105.31-127.43L412.4,172s-32-10.71-125.87,133.78C247.21,366.29,114.85,404.15,0,398.7V429S247.9,442,320.51,301.22Z" fill="#fff"/><path d="M294.93,328.37l-15.77,15.77s111.59,239.76-45.4,338.42H290.9S386.13,516.6,294.93,328.37Z" fill="#fff"/><path d="M671.64,274.43c-171.87-47-376.71,53.94-376.71,53.94l-9.23,5.46s-1.63,5.1,12.69,16.37c190.87-127.89,379.43-68.84,430-37.91,85.23,52.16,137.36,128.84,137.36,128.84V408.4C848.26,383.55,813.63,313.22,671.64,274.43Z" fill="#fff"/><path d="M314,394.87s418.84-13.15,551.78,182.06v25.15s-115-186.69-558.88-189.59C309.49,405.51,314,394.87,314,394.87Z" fill="#fff"/><path d="M617.74.34H596.22s-19.62,185,269.54,278.33V253.82S606.94,194.85,617.74.34Z" fill="#fff"/><path d="M719.93,485.23l-6.73-8.93s-309.37,57.88-83.11,206.26h32.79S460.4,540.25,719.93,485.23Z" fill="#fff"/><path d="M0,542.67V527.51s265.3-56.37,289.58,126L268,673S263,499.21,0,542.67Z" fill="#fff"/></g><path d="M624.16,230.06s9-3.77,18.8-13l10.42-10.19s21-10.3,22.86-17.89l-4-13.62-40,29.81-9.62,6.42S619.29,225.34,624.16,230.06Z"/><path d="M630.71,208.83s-4.82,6-6.16,11.18a7.16,7.16,0,0,0,1.24,6l4.06,5.57s-12.89,13.94-29.12,7.15c0,0-21.13-5.66-6.88-31.79,0,0,6.1,3.61,9.71-.29l10.66-11.47S617.86,207.23,630.71,208.83Z" fill="#fed194"/><path d="M604.66,205.48l9.56-10.29s5.52,10.8,16.49,13.64C630.71,208.83,615.85,211.63,604.66,205.48Z" fill="#fbc27c"/><ellipse cx="641.78" cy="176.5" rx="35.26" ry="25.53" transform="translate(133.7 606.48) rotate(-55.62)" fill="#fed194"/><ellipse cx="666.37" cy="191.36" rx="7.61" ry="4.64" transform="translate(59.86 527.24) rotate(-45)" fill="#fed194"/><path d="M667.53,159.68s-11.25,12-3.71,27.74c0,0,3.76-3.54,7-2,0,0,3.75.88,1.16,6A24.88,24.88,0,0,0,686.92,168s2.31-32.32-32.22-37.41c0,0-7.17-1.51-21.51,9.06,0,0-7.74,8.87-11.7-6.61,0,0-1.51-13.39-10.76-15.85,0,0-8.3-2.07-8.11,2.64,0,0-.25,2,3.6,3.25a12.75,12.75,0,0,1,7.17,5.4c1.29,2.16,2.2,4.75,1.24,7.06a2.07,2.07,0,0,1-3.19.78c-1.79-1.39-5.11-4.62-11-12l-11-17.87S580,87.71,555.81,92.17a33.62,33.62,0,0,0-5.38,1.52c-3.43,1.23-8.62,3.43-10.6,6a2.51,2.51,0,0,0,2.87,3.82,10.82,10.82,0,0,0,2.35-1.3,16.38,16.38,0,0,1,5.59-2.63c3.85-.89,9.6-1.47,11,2.44,0,0-9.89-2.47-14.51,3.94-2.7,3.74-2.39,10.17.54,13.73a11.61,11.61,0,0,0,1.76,1.74s-32.52-9.31-33.65,26.07c0,0,1.6,16.21,11,16.18a.53.53,0,0,0,.45-.79c-1.77-3-6.92-14.22,10.39-22.75a17.48,17.48,0,0,0-6,19.81s1.13,3.78,3.4,2.64c0,0,1.41-.37.09-4,0,0-2.09-7.8,3.49-12.8a12.22,12.22,0,0,1,9.47-3c3.82.43,9.3,2.44,14.83,9.29,0,0-19.67-5.52-17,9.9,0,0,3,16-3.53,16.7,0,0-3.48,2-11.89-7.36,0,0-9.06-12.87-20-6.08,0,0-4.31,2-2.61,4.25,0,0,.51,1,2.73-.17a10.6,10.6,0,0,1,7.19-1.23,7.75,7.75,0,0,1,4.23,2.95s-9.15-1.95-15.76,1.69A11.33,11.33,0,0,0,501,185.17c.9,4.28,3.12,9.93,8.59,10.45,0,0,3.71.25,4.43-4.67a4.25,4.25,0,0,1,4-3.58,10,10,0,0,1,4.85,1.32,28.77,28.77,0,0,1,9.34,4.95s-3.68,22.36,4.53,25.48,9.43-1.51,9.43-1.51l5.47,4.34s-4.9,4.34-2.83,10c0,0,42.27-6.32,34.63-29l10.38,4s6,3.11,9.71-.29l10.66-11.47s-7.38-17.79,9.94-37.55c0,0,6.74,8.71,25.82,4.08Z"/><path d="M615.08,144.24s-12,6.19-10,23.37c0,0,1-17.7,19-10,0,0-16,15.3-9.94,37.55l-10.66,11.47s-3.46,3.71-9.71.29l-7.48-2.86s4.74-6.94,2.85-15.13a7.77,7.77,0,0,0-4.74-5.4c-5.4-2.16-16-5.67-20.26-2,0,0-8.93,15.81-18.21,13.06,0,0-14.09-2.06-22.69-8.93,0,0,27.84,3.6,27.67-7.56,0,0-.79-8.42,1.79-14.63a9.41,9.41,0,0,1,8.78-5.73c5,.06,13.5.67,18.3,4,0,0-1.63-10.11,3.18-12.94l-21.65-9.48S548,136.53,540,140c0,0,9.06-6.06,24.06-1.76L584,147.37A19.07,19.07,0,0,1,595.92,145l-2.07-1.56s-10.38-1.55-16.18-5.09c0,0-26.61-15-40.9-10.47,0,0-11.33.89-16.61,9.76,0,0,2.64-11.89,21.89-12.26,0,0,10.28-1.18,27.12,7,0,0,17.69,9.19,21,9.19,0,0-14.58-8.49-20.52-12.73,0,0-12.66-6.32-20.13-7.39,0,0-4.48-2.81-4.13-9.46,0,0,6.21-13.79,26.82.86,0,0,2.25,1.13,13.29,13.16C585.45,126,602.83,144.52,615.08,144.24Z" fill="#231f20"/><path d="M550.64,99.59s14.06-6.81,24.53,4.64L606.35,140l-22.83-29.27S567.77,87.23,550.64,99.59Z" fill="#231f20"/><path d="M618.25,143.83s11.19.26,14.94-4.15c0,0,5.69,15.25,37.81,11C671,150.65,638.62,167.58,618.25,143.83Z" fill="#231f20"/><path d="M643,136.1s.68,13,32.61,12C675.58,148.09,642.3,153.28,643,136.1Z" fill="#231f20"/><path d="M629.85,231.59l3.3,2.56-10,14.58a31.18,31.18,0,0,0-3,22.84s-7.93,24.35-16.42,26.23a47.86,47.86,0,0,1-11.09,3.33,31.66,31.66,0,0,0-12.38,5.1c-7.65,5.35-19.24,14.65-18.61,21.39,0,0,4,40.7-10.65,56.84a.35.35,0,0,1-.59-.28c.45-2.76.11-9.25-9.11-15-6.89-4.27-15-5.89-22.78-3.65-6.73,1.93-15.12,6.27-25.77,15.08a87.24,87.24,0,0,0-6.39,6.05l-2.26-1.51s19.94-33.67,4-54.82c0,0-6.79-12.45-20.38-7.07,0,0,21.8-19,34-20.38,0,0,21.79-3.12,28.87-17l6.07-13.65a20.2,20.2,0,0,0,1.27-12.32c-1.12-5.43-1.47-13.93,4.26-21.58l11.18-12s7,3.92,20-4.76c0,0,12.65-9.25,10.1-18.59l10.38,4s-9.11,14.13-2.44,24.81a14.76,14.76,0,0,0,4.59,4.48C601.5,239.82,614.63,245.45,629.85,231.59Z" fill="#686175" data-primary="true"/><path d="M486.38,386.68s-17.92,24.72-32.07,45.47c0,0-26.51,36.33-35,44L409,488s-1.69,2.54-6.08,9.19c0,0-12.74,17.6-24.44,29.11,0,0-15.85,16-21.13,24.34l-32.18,45.46-11.61,15.48L301.72,623.4s-4.69,2-6.11,6.72c0,0-3.67,4.68-1,5.29,0,0,1,1.43,5.5-5.49,0,0-5.7,9.16,1.83,7.94,0,0,9.57,3.66,14.26-10.59,0,0,3.46-12.63,9.16-17.92,0,0,12.92-15.3,22.73-21.34l33.21-26s31.33-22.64,47.93-54.72c0,0,30.19-16.23,63.78-48.68,0,0,57.19-50.47,58-74.11,0,0,1.61-16.8-21.8-19.93C529.22,364.53,512.24,360.45,486.38,386.68Z" fill="#fed194"/><path d="M384.77,471.31s10.48-37.93,35.38-86.05c0,0,21.23-47.55,47.55-62,0,0,12.46-5.95,20.38,7.07,0,0,16.7,16.51-4,54.82,0,0-15.85,21.89-32,38.59l-38.2,58.53L409,488s-48.82,59.15-63.82,72.17l-32.27,33.68a23.88,23.88,0,0,0-5.09,7.08s-9.06,14.43-11.61,20.09c0,0-2.83,6.51-6.79,8.5,0,0-3,3.25-3.68,0,0,0-.57-1.28,3.68-5.38,0,0-7.78,6.79-7.78.42,0,0-3.83-8.91,4.67-14.86,0,0,13.86-8.35,17-13.73l27.08-48.73s10-21.69,21.32-39.62a99.28,99.28,0,0,1,12.83-15.28Z" fill="#fed194"/><path d="M620.17,271.57s12.57-.1,16.09,7.77c0,0,6,8.49,12.23,23.21,0,0,9.11,20.09,11.81,22.58,0,0,.41,8.29,16.16,27.14,0,0,14.92,16,29.63,29.22l15.12,17.82s1.66,15.95,5,21.34c0,0,7.57,12.59,9,11.31,0,0,2.12-.28-2.13-8.06,0,0,4.53,7.64,7.79,7.36,0,0,5.8-.15,3.82-2.55,0,0-5.8-11-5.8-14,0,0,4.53,4.67,6.93,3.54,0,0,1.84-.43-3-3.12a12.59,12.59,0,0,1-4.81-6.79s-5.38-7.36-10.76-10.9c0,0-14.06-32.64-25-53.21,0,0-6-16-23.4-28.49,0,0-19.63-65.63-33.68-74.39l-12-7.19-10,14.58S617,257.52,620.17,271.57Z" fill="#fed194"/><path d="M553.32,226.33s6.52,4.55,20-4.76c0,0,12.76-9.38,10.1-18.59,0,0-5-10-24.3-11.62,0,0-42.74-.67-60.54.64a15,15,0,0,1-8.73-2,56.41,56.41,0,0,0-22.2-7.43,291.53,291.53,0,0,0-42.07-3.12l-21.76-.82a10.86,10.86,0,0,1-5.56-1.72c-3.23-2.11-9.61-5.48-16.79-5a1.36,1.36,0,0,1-.92-.24c-1.45-1-6.35-4.44-6.68-3.39,0,0-1,1.63,3.91,4.75a.49.49,0,0,1-.2.9,46.4,46.4,0,0,1-11.18.08,2.51,2.51,0,0,0-2.83,2.9c.36,2,1.75,4.14,6,4.48l4.53.66s1,1.61-2.73,1.23c0,0-7.27-1.32-6.32.66,0,0-.76,1.42,8.3,2.55,0,0,14.52,3.31,25.75-2.17a20.36,20.36,0,0,1,7.84,1.22s26.79,9.91,38.87,16.51c0,0,28.73,13.68,43.4,11.47a16.71,16.71,0,0,1,4.79,0,373.91,373.91,0,0,0,39.86,3S551.2,217.14,553.32,226.33Z" fill="#fed194"/><path d="M86.67,392.3c.51.42,1,.82,1.59,1.25.79.61,1.58,1.25,2.39,1.85.59.44,1.26.85,1.81,1.26s1.5,1.07,2.28,1.59,1.35.86,2,1.25,1.42.9,2.13,1.33,1.54.87,2.3,1.31l2,1.08c.87.46,1.75.9,2.64,1.34l1.65.81c1,.49,2,.93,3.06,1.38l1,.44h0a102,102,0,0,0,78.84,0h0l1-.44c1-.45,2.05-.89,3.06-1.38l1.67-.81c.87-.44,1.76-.88,2.63-1.34l1.94-1.08c.78-.44,1.55-.86,2.3-1.31s1.43-.89,2.15-1.33,1.36-.85,2-1.25,1.51-1.06,2.27-1.58,1.25-.84,1.81-1.25c.8-.61,1.59-1.26,2.38-1.86.54-.41,1.08-.81,1.59-1.25.89-.73,1.74-1.48,2.61-2.23.41-.38.84-.72,1.25-1.09,1.25-1.15,2.51-2.33,3.76-3.56s2.41-2.5,3.55-3.76c.37-.42.72-.85,1.1-1.25.75-.86,1.5-1.72,2.23-2.61.42-.51.82-1.05,1.25-1.59.63-.79,1.25-1.58,1.84-2.38.45-.6.85-1.25,1.26-1.81s1.07-1.51,1.59-2.27.86-1.37,1.25-2,.91-1.42,1.34-2.15.88-1.52,1.31-2.3.73-1.25,1.08-1.94c.47-.87.9-1.76,1.34-2.63l.82-1.67c.49-1,.92-2,1.36-3.06.15-.32.32-.65.45-1h0a101.88,101.88,0,0,0,0-78.84h0c-.13-.34-.3-.66-.44-1-.45-1-.88-2-1.37-3.06-.27-.55-.54-1.1-.82-1.65-.44-.89-.87-1.77-1.34-2.64-.35-.65-.71-1.26-1.08-1.94s-.86-1.55-1.31-2.31-.89-1.43-1.33-2.13-.85-1.38-1.25-2-1-1.52-1.58-2.27-.84-1.25-1.25-1.82c-.59-.81-1.26-1.59-1.84-2.38-.42-.53-.82-1.07-1.26-1.6-.71-.88-1.46-1.73-2.2-2.58-.38-.43-.73-.86-1.12-1.25-1.14-1.26-2.31-2.51-3.54-3.76s-2.51-2.41-3.76-3.55c-.43-.38-.86-.74-1.25-1.11-.86-.75-1.71-1.49-2.58-2.21-.53-.43-1.07-.84-1.59-1.25-.81-.62-1.58-1.25-2.39-1.84-.6-.45-1.25-.86-1.82-1.25s-1.49-1.07-2.26-1.58-1.36-.87-2-1.25-1.41-.91-2.13-1.34-1.53-.88-2.31-1.26L198.73,224c-.86-.47-1.75-.91-2.64-1.35l-1.66-.81c-1-.48-2-.93-3.05-1.36l-1-.44h0a101.88,101.88,0,0,0-78.84,0h0l-1,.44c-1,.43-2,.88-3,1.36l-1.72.69c-.88.44-1.75.86-2.63,1.33-.65.35-1.25.72-1.94,1.09s-1.54.85-2.31,1.25-1.43.89-2.14,1.34-1.37.85-2,1.25-1.53,1.06-2.28,1.59-1.25.84-1.8,1.26c-.82.59-1.61,1.25-2.41,1.85-.52.41-1.06.82-1.58,1.25-.89.72-1.75,1.48-2.62,2.25-.41.36-.83.7-1.25,1.07q-1.87,1.71-3.76,3.55c-1.25,1.23-2.4,2.5-3.54,3.76-.38.41-.73.84-1.09,1.25-.75.86-1.52,1.73-2.23,2.61-.43.51-.83,1.05-1.25,1.57-.63.81-1.26,1.6-1.86,2.41-.44.59-.85,1.25-1.25,1.8s-1.08,1.51-1.59,2.28-.87,1.36-1.25,2-.91,1.43-1.35,2.15-.87,1.52-1.25,2.3-.74,1.25-1.09,1.94c-.46.88-.9,1.76-1.33,2.63-.27.57-.56,1.12-.82,1.68-.48,1-.93,2-1.37,3.05-.15.32-.3.65-.44,1h0a102,102,0,0,0,0,78.83h0c.14.33.29.65.44,1,.44,1,.89,2,1.37,3,.26.55.55,1.1.81,1.66.44.88.88,1.77,1.34,2.63.35.65.73,1.26,1.08,1.94s.86,1.56,1.25,2.31.89,1.43,1.34,2.13.84,1.38,1.26,2.05,1,1.52,1.57,2.27.84,1.25,1.26,1.82c.59.8,1.25,1.59,1.84,2.38.42.54.81,1.08,1.25,1.59.72.89,1.47,1.74,2.23,2.6l1.09,1.26q1.71,1.88,3.55,3.76c1.22,1.25,2.5,2.4,3.75,3.55.42.38.84.72,1.26,1.09C84.93,390.82,85.76,391.57,86.67,392.3Zm9.53-88.62.19-1c.13-.63.26-1.25.42-1.86l.22-.94c.15-.6.31-1.2.49-1.8.09-.3.17-.6.27-.9.16-.49.31-1,.48-1.47.1-.3.2-.6.31-.9.19-.52.38-1,.59-1.55.09-.25.19-.5.29-.75.3-.74.61-1.48,1-2.21.09-.19.19-.36.28-.55.26-.56.53-1.12.83-1.69l.41-.77c.26-.5.54-1,.83-1.47.13-.25.27-.5.42-.74.35-.58.7-1.14,1.07-1.71l.3-.43c.46-.69.94-1.38,1.44-2.06l.42-.56c.37-.5.76-1,1.14-1.48l.56-.68a17.33,17.33,0,0,1,1.25-1.38l.54-.6c.57-.64,1.16-1.25,1.78-1.89h0c.61-.61,1.25-1.25,1.89-1.78.19-.19.4-.36.6-.54l1.38-1.19.67-.55,1.49-1.15.54-.41c.69-.5,1.38-1,2.08-1.44l.38-.26,1.76-1.1.69-.4c.52-.3,1-.59,1.57-.86.22-.13.45-.25.69-.37.61-.32,1.25-.62,1.85-.92l.38-.18c.76-.35,1.53-.69,2.29-1l.54-.21,1.79-.67L133,261l1.6-.61.71-.21c.73-.22,1.49-.42,2.25-.61h.11c.78-.19,1.57-.35,2.36-.51l.84-.15a55.32,55.32,0,0,1,20,0l.85.15c.79.16,1.57.32,2.35.51h.12c.75.19,1.5.39,2.24.6l.72.23c.56.16,1.13.35,1.69.54l.74.26,1.78.66.54.22c.77.31,1.54.65,2.29,1l.37.17c.63.3,1.26.61,1.86.93l.7.36c.51.28,1,.57,1.55.87l.69.4q.9.54,1.77,1.11l.37.24c.71.47,1.4.94,2.08,1.44l.54.42,1.51,1.15.66.55c.48.39.93.79,1.39,1.19l.6.54c.64.58,1.25,1.18,1.88,1.79s1.25,1.25,1.8,1.89l.53.59,1.25,1.39.56.68,1.15,1.49.41.54c.5.69,1,1.38,1.45,2.08.08.12.15.25.24.37.38.59.74,1.18,1.1,1.77l.41.69c.3.51.58,1,.86,1.55l.38.7c.31.62.62,1.26.91,1.86l.19.37c.35.77.67,1.53,1,2.3l.21.53c.24.59.46,1.19.68,1.8.09.23.16.48.25.72.19.57.37,1.14.55,1.71a2.91,2.91,0,0,0,.21.7c.22.75.43,1.5.6,2.25v.12c.19.77.35,1.56.52,2.35l.15.84a55.77,55.77,0,0,1,0,20l-.15.86c-.17.77-.33,1.56-.52,2.34v.11c-.17.77-.38,1.52-.6,2.27-.07.22-.15.46-.21.69-.18.57-.36,1.14-.55,1.7-.09.24-.16.49-.25.73-.21.6-.44,1.2-.68,1.8l-.21.53c-.32.78-.64,1.54-1,2.29l-.19.38c-.29.62-.6,1.25-.91,1.86l-.38.69c-.28.53-.56,1-.86,1.56l-.41.69c-.36.6-.72,1.19-1.1,1.76-.09.13-.16.25-.24.38-.46.7-1,1.39-1.45,2.08l-.41.54c-.38.51-.77,1-1.15,1.5l-.56.66-1.25,1.39L192,351c-.58.63-1.17,1.25-1.8,1.87s-1.25,1.26-1.88,1.81l-.6.52c-.46.42-.91.81-1.39,1.26-.21.18-.44.37-.68.55-.49.39-1,.77-1.47,1.15l-.56.41c-.68.51-1.37,1-2.06,1.44l-.43.28c-.56.36-1.14.73-1.7,1.07l-.75.43c-.49.28-1,.56-1.48.82l-.77.41-1.69.84-.55.26c-.73.34-1.46.66-2.2,1l-.74.29c-.52.2-1,.4-1.56.57l-.91.33-1.47.46-.9.28-1.8.49-.94.23-1.86.41-1,.18a55.71,55.71,0,0,1-20.11,0,2.61,2.61,0,0,1-.61-.11,49.68,49.68,0,0,1-4.85-1.18l-.54-.16c-.63-.18-1.25-.38-1.88-.6l-.6-.21c-.66-.24-1.25-.48-2-.74l-.38-.15c-.79-.33-1.57-.67-2.35-1l-.24-.11c-.67-.32-1.34-.64-2-1l-.63-.34q-.83-.44-1.62-.9l-.64-.38c-.62-.36-1.26-.75-1.83-1.14l-.33-.2c-.7-.48-1.4-1-2.09-1.47l-.53-.38-1.5-1.18-.66-.54c-.48-.39-.94-.81-1.39-1.25l-.61-.53c-.63-.58-1.25-1.18-1.89-1.79a24.24,24.24,0,0,1-1.79-1.89l-.52-.59c-.42-.46-.81-.93-1.26-1.39l-.55-.68c-.4-.49-.79-1-1.16-1.5l-.4-.53c-.51-.69-1-1.39-1.46-2.09l-.21-.31-1.14-1.84-.38-.64c-.31-.54-.61-1.08-.9-1.63l-.34-.63c-.34-.66-.67-1.33-1-2l-.11-.23c-.36-.77-.7-1.56-1-2.35a.9.9,0,0,0-.17-.39c-.25-.65-.5-1.25-.74-2a2,2,0,0,0-.2-.6c-.21-.63-.42-1.25-.61-1.88a2.28,2.28,0,0,0-.16-.53c-.47-1.6-.87-3.21-1.18-4.84l-.11-.63a56,56,0,0,1,0-20.09Z" fill="#f48225" data-secondary="true" opacity="0.13"/><g id="f6469117-156c-45d0-8881-6375acd1f0cf" data-name="freepik--swim-ring--inject-18"><path d="M83.25,191a118.56,118.56,0,1,0,167.67,0h0A118.56,118.56,0,0,0,83.25,191ZM212.92,320.69a64.89,64.89,0,1,1,0-91.77h0A64.89,64.89,0,0,1,212.92,320.69Z" fill="#f48225" data-secondary="true"/><g opacity="0.5"><path d="M212.92,320.69a64.56,64.56,0,0,1-35.27,18.14l35.4,45.27a118.83,118.83,0,0,0,63.28-63.29l-45.25-35.4A64.72,64.72,0,0,1,212.92,320.69Z" fill="#fff"/><path d="M57.74,228.8,103,264.2a64.91,64.91,0,0,1,53.4-53.42L121,165.51A118.82,118.82,0,0,0,57.74,228.8Z" fill="#fff"/><path d="M57.74,320.81A118.82,118.82,0,0,0,121,384.1l35.39-45.26A64.92,64.92,0,0,1,103,285.41Z" fill="#fff"/><path d="M213.05,165.51l-35.4,45.27a64.94,64.94,0,0,1,53.43,53.42l45.26-35.4a118.8,118.8,0,0,0-63.28-63.29Z" fill="#fff"/></g><path d="M106.46,214.23a85.67,85.67,0,1,0,121.16,0,85.67,85.67,0,0,0-121.16,0ZM213,320.71a64.89,64.89,0,1,1,0-91.77h0a64.89,64.89,0,0,1,0,91.74Z" fill="#fff" opacity="0.1" style="isolation:isolate"/></g></svg>