<svg id="f5a9c4c4-0961-498f-8b27-f03b68f93532" data-name="Layer 1" xmlns="http://www.w3.org/2000/svg" width="865.76" height="682.89" viewBox="0 0 865.76 682.89"><path d="M641.78,519l-11.44-32.08-5.12,1.82,11,30.91a17.94,17.94,0,1,1-33.79,12.06l-11-30.92-5.12,1.83,11.45,32.08a23.38,23.38,0,0,0,29.87,14.17h0A23.37,23.37,0,0,0,641.78,519Z" fill="#686175" data-primary="true"/><rect x="589.15" y="487.59" width="35.88" height="7.35" transform="translate(-129.75 232.48) rotate(-19.63)" fill="#686175" data-primary="true"/><path d="M755,129.9s22.17-4.09,39.67,110.85c0,0,22.75,119,5.25,122.52Z" fill="#2f2e41"/><rect x="109.63" y="219.12" width="267.48" height="191.34" transform="translate(-19.63 16.21) rotate(-3.67)" fill="#fff" stroke="#2f2e41" stroke-miterlimit="10"/><rect x="127.57" y="240.03" width="223.4" height="21.29" transform="translate(-15.54 15.81) rotate(-3.67)" fill="#f48225" data-secondary="true"/><rect x="128.9" y="260.71" width="223.4" height="21.29" transform="translate(-16.86 15.94) rotate(-3.67)" fill="#f48225" data-secondary="true"/><rect x="128.9" y="260.71" width="223.4" height="21.29" transform="translate(-16.86 15.94) rotate(-3.67)" opacity="0.2"/><rect x="130.28" y="282.36" width="223.4" height="21.29" transform="translate(-18.24 16.07) rotate(-3.67)" fill="#f48225" data-secondary="true"/><rect x="130.28" y="282.36" width="223.4" height="21.29" transform="translate(-18.24 16.07) rotate(-3.67)" fill="#fff" opacity="0.2"/><rect x="131.68" y="304.18" width="223.4" height="21.29" transform="translate(-19.63 16.21) rotate(-3.67)" fill="#f48225" data-secondary="true"/><rect x="133.04" y="325.34" width="223.4" height="21.29" transform="translate(-20.98 16.34) rotate(-3.67)" fill="#f48225" data-secondary="true"/><rect x="133.04" y="325.34" width="223.4" height="21.29" transform="translate(-20.98 16.34) rotate(-3.67)" opacity="0.2"/><rect x="134.42" y="346.83" width="223.4" height="21.29" transform="translate(-22.35 16.47) rotate(-3.67)" fill="#f48225" data-secondary="true"/><rect x="134.42" y="346.83" width="223.4" height="21.29" transform="translate(-22.35 16.47) rotate(-3.67)" fill="#fff" opacity="0.2"/><rect x="135.77" y="368" width="223.4" height="21.29" transform="translate(-23.7 16.6) rotate(-3.67)" fill="#f48225" data-secondary="true"/><rect x="174.01" y="244.9" width="1.17" height="149.94" transform="translate(-20.09 11.82) rotate(-3.67)" fill="#fff"/><rect x="220.63" y="241.24" width="1.17" height="149.94" transform="translate(-19.77 14.79) rotate(-3.67)" fill="#fff"/><rect x="267.28" y="238.25" width="1.17" height="149.94" transform="translate(-19.48 17.77) rotate(-3.67)" fill="#fff"/><rect x="313.94" y="235.26" width="1.17" height="149.94" transform="translate(-19.19 20.75) rotate(-3.67)" fill="#fff"/><rect x="277.93" y="161.32" width="195.59" height="262.75" transform="translate(13.75 -16.85) rotate(2.62)" fill="#fff" stroke="#2f2e41" stroke-miterlimit="10"/><polygon points="427.04 290.99 296.72 286.97 301.25 178.18 302.42 178.23 297.94 285.83 427.08 289.82 427.04 290.99" fill="#2f2e41"/><polygon points="297.82 286.71 296.83 286.09 318.18 252.04 331.19 260.05 353.32 222.83 365.39 235.4 386.38 206.41 407.56 224.06 454.28 192.25 454.94 193.21 407.49 225.52 386.59 208.11 365.51 237.22 353.54 224.75 331.59 261.66 318.55 253.64 297.82 286.71" fill="#2f2e41"/><circle cx="458.62" cy="189.89" r="6.01" fill="#f48225" data-secondary="true"/><circle cx="407.52" cy="224.96" r="6.01" fill="#2f2e41"/><circle cx="386.49" cy="207.26" r="6.01" fill="#f48225" data-secondary="true"/><circle cx="364.45" cy="236.81" r="6.01" fill="#2f2e41"/><circle cx="353.43" cy="224.79" r="6.01" fill="#2f2e41"/><circle cx="330.89" cy="261.35" r="6.01" fill="#f48225" data-secondary="true"/><circle cx="318.86" cy="252.34" r="6.01" fill="#2f2e41"/><ellipse cx="379.72" cy="356.78" rx="40.32" ry="41.32" fill="#2f2e41"/><polygon points="59.22 357.36 89.29 548.48 228.93 525.55 197.84 334.94 59.22 357.36" fill="#ccc"/><rect x="69.14" y="348.76" width="5.01" height="11.52" rx="2.14" transform="matrix(0.99, -0.15, 0.15, 0.99, -53.58, 15.2)" fill="#ccc"/><rect x="80.46" y="347" width="5.01" height="11.52" rx="2.14" transform="translate(-53.18 16.92) rotate(-8.83)" fill="#ccc"/><rect x="91.79" y="345.25" width="5.01" height="11.52" rx="2.14" transform="translate(-52.77 18.64) rotate(-8.83)" fill="#ccc"/><rect x="103.11" y="343.5" width="5.01" height="11.52" rx="2.14" transform="matrix(0.99, -0.15, 0.15, 0.99, -52.37, 20.36)" fill="#ccc"/><rect x="114.44" y="341.75" width="5.01" height="11.52" rx="2.14" transform="matrix(0.99, -0.15, 0.15, 0.99, -51.97, 22.07)" fill="#ccc"/><rect x="125.77" y="340" width="5.01" height="11.52" rx="2.14" transform="translate(-51.56 23.79) rotate(-8.83)" fill="#ccc"/><rect x="137.09" y="338.24" width="5.01" height="11.52" rx="2.14" transform="translate(-51.16 25.51) rotate(-8.83)" fill="#ccc"/><rect x="148.42" y="336.49" width="5.01" height="11.52" rx="2.14" transform="translate(-50.76 27.23) rotate(-8.83)" fill="#ccc"/><rect x="159.75" y="334.74" width="5.01" height="11.52" rx="2.14" transform="translate(-50.35 28.95) rotate(-8.83)" fill="#ccc"/><rect x="171.07" y="332.99" width="5.01" height="11.52" rx="2.14" transform="translate(-49.95 30.66) rotate(-8.83)" fill="#ccc"/><rect x="182.4" y="331.24" width="5.01" height="11.52" rx="2.14" transform="translate(-49.55 32.38) rotate(-8.83)" fill="#ccc"/><g opacity="0.2"><rect x="69.14" y="348.76" width="5.01" height="11.52" rx="2.14" transform="translate(-53.58 15.2) rotate(-8.83)"/><rect x="80.46" y="347" width="5.01" height="11.52" rx="2.14" transform="translate(-53.18 16.92) rotate(-8.83)"/><rect x="91.79" y="345.25" width="5.01" height="11.52" rx="2.14" transform="translate(-52.77 18.64) rotate(-8.83)"/><rect x="103.11" y="343.5" width="5.01" height="11.52" rx="2.14" transform="translate(-52.37 20.36) rotate(-8.83)"/><rect x="114.44" y="341.75" width="5.01" height="11.52" rx="2.14" transform="translate(-51.97 22.07) rotate(-8.83)"/><rect x="125.77" y="340" width="5.01" height="11.52" rx="2.14" transform="translate(-51.56 23.79) rotate(-8.83)"/><rect x="137.09" y="338.24" width="5.01" height="11.52" rx="2.14" transform="translate(-51.16 25.51) rotate(-8.83)"/><rect x="148.42" y="336.49" width="5.01" height="11.52" rx="2.14" transform="translate(-50.76 27.23) rotate(-8.83)"/><rect x="159.75" y="334.74" width="5.01" height="11.52" rx="2.14" transform="translate(-50.35 28.95) rotate(-8.83)"/><rect x="171.07" y="332.99" width="5.01" height="11.52" rx="2.14" transform="translate(-49.95 30.67) rotate(-8.83)"/><rect x="182.4" y="331.24" width="5.01" height="11.52" rx="2.14" transform="translate(-49.55 32.38) rotate(-8.83)"/></g><g opacity="0.2"><rect x="72.51" y="370.13" width="117.7" height="1.17" transform="translate(-57.28 25.61) rotate(-9.15)"/></g><g opacity="0.2"><rect x="75.13" y="381.82" width="118.14" height="1.17" transform="translate(-60.93 27.2) rotate(-9.44)"/></g><g opacity="0.2"><rect x="77.13" y="393.51" width="118.14" height="1.17" transform="translate(-62.82 27.69) rotate(-9.44)"/></g><g opacity="0.2"><rect x="78.47" y="405.2" width="118.14" height="1.17" transform="translate(-64.72 28.07) rotate(-9.44)"/></g><g opacity="0.2"><rect x="80.8" y="416.89" width="118.14" height="1.17" transform="translate(-66.6 28.61) rotate(-9.44)"/></g><g opacity="0.2"><rect x="82.81" y="429.24" width="118.14" height="1.17" transform="translate(-68.6 29.11) rotate(-9.44)"/></g><g opacity="0.2"><rect x="83.7" y="441.26" width="117.7" height="1.17" transform="matrix(0.99, -0.16, 0.16, 0.99, -68.45, 28.29)"/></g><g opacity="0.2"><rect x="86.31" y="452.95" width="118.14" height="1.17" transform="translate(-72.45 30) rotate(-9.44)"/></g><g opacity="0.2"><rect x="88.32" y="464.64" width="118.14" height="1.17" transform="translate(-74.34 30.49) rotate(-9.44)"/></g><g opacity="0.2"><rect x="89.65" y="476.33" width="118.14" height="1.17" transform="translate(-76.24 30.87) rotate(-9.44)"/></g><g opacity="0.2"><rect x="91.99" y="488.01" width="118.14" height="1.17" transform="translate(-78.12 31.41) rotate(-9.44)"/></g><g opacity="0.2"><rect x="94" y="500.37" width="118.14" height="1.17" transform="translate(-80.12 31.91) rotate(-9.44)"/></g><g opacity="0.2"><rect x="96" y="512.39" width="118.14" height="1.17" transform="translate(-82.07 32.4) rotate(-9.44)"/></g><g opacity="0.2"><rect x="98" y="524.75" width="118.14" height="1.17" transform="translate(-84.07 32.89) rotate(-9.44)"/></g><rect x="248.07" y="382.9" width="102.39" height="183.23" rx="13.77" transform="matrix(0.99, -0.13, 0.13, 0.99, -60.72, 44.24)" fill="#2f2e41"/><rect x="257.59" y="394" width="80.04" height="138.02" rx="6.85" transform="translate(-59.2 43.92) rotate(-7.68)" fill="#fff"/><circle cx="310.02" cy="548.44" r="7.79" opacity="0.2"/><path id="edb5f9eb-41fa-49e0-b521-f394f9de988e" data-name="twitter" d="M313.44,417.14a11.74,11.74,0,0,1-3.69,4.79c.06.23.1.45.14.66a25.36,25.36,0,0,1-9.11,22.3A25.44,25.44,0,0,1,286,449.21a17.43,17.43,0,0,1-9.41-2.56,17,17,0,0,0,11.7-4.74,8.36,8.36,0,0,1-8.25-4.87,5.58,5.58,0,0,0,1.73-.09,18.34,18.34,0,0,0,1.91-.47,9.09,9.09,0,0,1-5.95-3.7,9.39,9.39,0,0,1-1.35-3.95,7.8,7.8,0,0,0,3.77.72A9.45,9.45,0,0,1,276,424.1a10.77,10.77,0,0,1,.44-5.37,27.81,27.81,0,0,0,10.13,6.07,19.55,19.55,0,0,0,7.53.77,9.88,9.88,0,0,1,.34-6.35,8.56,8.56,0,0,1,4.7-4.23,7.52,7.52,0,0,1,7.77,1.55,13.56,13.56,0,0,0,5-2.49,7.93,7.93,0,0,1-3.12,5,22.47,22.47,0,0,0,4.64-1.95Z" fill="#2f2e41"/><path d="M419.29,348.75a42.46,42.46,0,0,1,.76,8c0,22.82-18.06,41.32-40.33,41.32s-40.32-18.5-40.32-41.32,18.06-41.33,40.32-41.33a39.3,39.3,0,0,1,11.84,1.81l-11.84,39.52Z" opacity="0.2"/><path d="M440,267.59S421.29,316,455.71,346.35c0,0,78.18-25.09,175-20.42,0,0,78.76,3.5,132.43,49,0,0-39-203.16-44.34-244.45,0,0-37.33,82.85-176.19,119C542.64,249.5,495.38,265.25,440,267.59Z" fill="#686175" data-primary="true"/><rect x="738.86" y="111.08" width="43.83" height="277.24" rx="18.75" transform="translate(-32.49 140.79) rotate(-10.35)" fill="#686175" data-primary="true"/><rect x="738.86" y="111.08" width="43.83" height="277.24" rx="18.75" transform="translate(-32.49 140.79) rotate(-10.35)" opacity="0.2"/><path d="M534.75,252l15.7,76.31s43.74-4.68,65.12-3l-19-94.17S560.8,245.16,534.75,252Z" opacity="0.2"/><path d="M621.91,515.56l-12.52,6.26c-30,11-41.08-11.52-41.08-11.52L496.19,335.49a723.39,723.39,0,0,1,77.63-9.86l29.72,69.46c-2,16.7,9,21,9,21l0,.12c-4.06,13.24,7,20.35,7,20.35-4.34,15.7,9.05,20.27,9.05,20.27l9.52,23.94a11.73,11.73,0,0,1,.53,1.93c0,.17.07.36.09.54C641,496.5,633.91,509.56,621.91,515.56Z" fill="#686175" data-primary="true"/><path d="M614.56,365l.17.07a5,5,0,0,1-.1,9.17l-28.78,12.47c-10.69,4-9.69-6-9.69-6V351.68c-.33-12.35,3.34-11.68,3.34-11.68s4.34-2.34,8.35,4.34C587.85,344.34,599.87,360.37,614.56,365Z" fill="#686175" data-primary="true"/><path d="M581.41,388.13a5.48,5.48,0,0,1-3.44-1.05c-2.65-2-2.26-6.21-2.24-6.39v-29c-.21-7.72,1.16-10.55,2.34-11.57a2.26,2.26,0,0,1,1.36-.56c.78-.33,5-1.76,8.81,4.56.09.12,12.08,15.93,26.47,20.51l.17.07a5.31,5.31,0,0,1,3.24,4.94,5.44,5.44,0,0,1-3.31,5.06L586,387.15A13.46,13.46,0,0,1,581.41,388.13Zm-2-47.7a1.25,1.25,0,0,0-.82.39c-.83.76-2.19,3.18-2,10.85v29.07c0,.08-.35,3.91,1.91,5.64,1.53,1.18,4,1.17,7.18,0l28.76-12.46a4.55,4.55,0,0,0,2.78-4.25,4.42,4.42,0,0,0-2.67-4.12h0l-.13-.05c-14.66-4.66-26.81-20.7-26.93-20.86-3.75-6.25-7.63-4.3-7.79-4.22l-.14.07-.15,0h0Z" fill="#fff"/><path d="M612.09,415.91l-23.57,8.32c-5.75,2.14-11.66-.19-13.66-6a10.82,10.82,0,0,1-.6-3.56,10.93,10.93,0,0,1,6.84-10.12l22.44-9.49C602,411.63,612.09,415.91,612.09,415.91Z" opacity="0.2"/><path d="M619.24,436.34l-22.16,8c-9.9,2.37-12.74-2.88-12.74-2.88a12.76,12.76,0,0,1-2.14-6.11,11.2,11.2,0,0,1,7.64-11.08l22.69-8C608.47,429,619.24,436.34,619.24,436.34Z" opacity="0.2"/><path d="M628.59,456.87l-22.83,8.23c-9.9,2.37-13.41-3.38-13.41-3.38a12.76,12.76,0,0,1-2.14-6.11,11.2,11.2,0,0,1,7.65-11.08l21.68-7.93C615.25,452.33,628.59,456.87,628.59,456.87Z" opacity="0.2"/></svg>