<svg id="bad03c1e-9d08-4939-b131-c577d3c46ce8" data-name="Layer 1" xmlns="http://www.w3.org/2000/svg" xmlns:xlink="http://www.w3.org/1999/xlink" width="865.76" height="682.89" viewBox="0 0 865.76 682.89"><defs><clipPath id="bb43dbbb-db2a-4772-b989-8e3d8e524df8"><path id="af1ed0ce-59b7-44d0-9055-c53275b41c30" data-name="SVGID" d="M297.33,299.18s-13.39,21.43,3.24,30.64c0,0,16.64,7.78,38.94,15.57a56.63,56.63,0,0,1,11,4.78,19.17,19.17,0,0,0,4.21,1.89,29.72,29.72,0,0,0,9.17,1.32,15,15,0,0,0,3.25-.52c1-.23,2.93-.16,6,2.44,0,0,5.66,4.25,10.26,1.42,0,0,5.31,3.53,6-3.19,0,0,5.66,2.83,4.6-3.54h.08a3,3,0,0,0,2.23-4.86c-2-2.55-6.22-7.22-10.8-8.24,0,0-6-3.53-20.53-3.53,0,0-13.79-.3-20.4-4.77-1.62-1.09-3.26-2.16-5-3.1-5.35-2.94-15.35-8.63-17.86-11.51,0,0,.34-8.92-11.42-11.81C310.33,302.17,305.11,301.3,297.33,299.18Z" fill="#fccdc3"/></clipPath></defs><rect x="615.29" y="142.49" width="37.94" height="28.64" fill="#fc87b1"/><g opacity="0.2"><path d="M652.77,153c0,.31-8.3.56-18.53.56s-18.54-.25-18.54-.56,8.3-.56,18.54-.56S652.77,152.71,652.77,153Z"/></g><rect x="628.25" y="158.04" width="24.52" height="7.39" fill="#fff"/><rect x="660.41" y="142.49" width="37.94" height="28.64" fill="#fc87b1"/><g opacity="0.2"><path d="M697.89,153c0,.31-8.3.56-18.53.56s-18.54-.25-18.54-.56,8.3-.56,18.54-.56S697.89,152.71,697.89,153Z"/></g><rect x="673.37" y="158.04" width="24.52" height="7.39" fill="#fff"/><rect x="707.84" y="142.49" width="37.94" height="28.64" fill="#fc87b1"/><g opacity="0.2"><path d="M745.33,153c0,.31-8.3.56-18.54.56s-18.54-.25-18.54-.56,8.3-.56,18.54-.56S745.33,152.71,745.33,153Z"/></g><rect x="720.81" y="158.04" width="24.52" height="7.39" fill="#fff"/><rect x="755.96" y="142.49" width="37.94" height="28.64" fill="#fc87b1"/><g opacity="0.2"><path d="M793.44,153c0,.31-8.3.56-18.53.56s-18.54-.25-18.54-.56,8.3-.56,18.54-.56S793.44,152.71,793.44,153Z"/></g><rect x="768.92" y="158.04" width="24.52" height="7.39" fill="#fff"/><polygon points="266.38 16.12 375.03 16.12 375.03 157.54 267.11 156.99 266.38 16.12" fill="#e1e1e1"/><rect x="260.12" y="16.12" width="108.02" height="140.34" transform="translate(628.27 172.57) rotate(180)" fill="#fff"/><path d="M368.68,15.58V157H259.59V15.58Zm-1.07,140.34V16.65H260.66V155.92Z" fill="#e1e1e1"/><rect x="271.22" y="31.32" width="82.7" height="109.94" fill="#fff"/><path d="M271.22,31.32s0,.18,0,.53,0,.88,0,1.55c0,1.37,0,3.38,0,6,0,5.23,0,12.87.07,22.54,0,19.34.07,46.79.13,79.33l-.26-.26,82.7,0h0l-.28.28c0-40.94,0-78.89.05-109.94l.23.23-60.06-.12-16.72-.06-4.4,0-1.53,0,1.48,0,4.36,0,16.67-.06,60.2-.12h.23v.23c0,31.05,0,69,0,109.94v.28h-.29l-82.7,0H271v-.25c0-32.61.1-60.12.13-79.49,0-9.65,0-17.27.06-22.49,0-2.59,0-4.58,0-5.94,0-.66,0-1.16,0-1.52S271.22,31.32,271.22,31.32Z" fill="#e1e1e1"/><path d="M259.87,156.46a13.91,13.91,0,0,1,1.46-2.38c1-1.42,2.32-3.37,3.87-5.48s3-4,4.14-5.29a13.35,13.35,0,0,1,1.88-2.05,13.78,13.78,0,0,1-1.57,2.29l-4,5.38-4,5.38A14.23,14.23,0,0,1,259.87,156.46Z" fill="#e1e1e1"/><path d="M260.12,16.12a79.77,79.77,0,0,1,5.78,7.43,79.07,79.07,0,0,1,5.32,7.77,80.17,80.17,0,0,1-5.77-7.44A79.58,79.58,0,0,1,260.12,16.12Z" fill="#e1e1e1"/><line x1="368.15" y1="16.12" x2="353.93" y2="31.88" fill="#fff"/><path d="M353.93,31.88a96.59,96.59,0,0,1,6.9-8.07,98.82,98.82,0,0,1,7.32-7.69,103.56,103.56,0,0,1-6.91,8.06A101.33,101.33,0,0,1,353.93,31.88Z" fill="#e1e1e1"/><path d="M368.15,156.46a93,93,0,0,1-7-7.34,90.3,90.3,0,0,1-6.58-7.71,94.08,94.08,0,0,1,7,7.34A92.08,92.08,0,0,1,368.15,156.46Z" fill="#e1e1e1"/><path d="M307.84,51.83c1.71.88,3.35.29,5.06-.08,4.38-.94,7.65.07,11.55,3.23,2.9-.08,5.66-.8,8,1.33.23.21.65.19,1,.3.54.18,1.08.38,1.63.58,0,.09-.06.18-.08.26L333.36,57l-.18.31c.23.16.45.45.7.49,4.17.66,5.77,3.42,4.13,7.28.57.72,1.56,1.33,1,2.66-.15-1-.39-1.79-1.65-2a5.85,5.85,0,0,1,1.37,5.73c-.63,2.15-2.18,3.3-4.33,4l1.28.42a1.55,1.55,0,0,1,0,.21l-2-.38a52.54,52.54,0,0,0-.52,6c.16,6.9-2.82,11.23-9.71,13.79a3.56,3.56,0,0,0-2.69,3.78,11.86,11.86,0,0,0,2.5,7.13c1.14,1.66,2.49,3.16,3.86,4.87a40.72,40.72,0,0,0-20.39,11.59,54.36,54.36,0,0,0,2.11-7.06,23.31,23.31,0,0,0-2.07-13.7c-1.19-2.6-3.26-3.58-6.11-3.25-1.36.16-2.72.39-4.09.48-2.2.14-3.74-.76-4.08-2.39a5.35,5.35,0,0,1,.12-1.9,2.74,2.74,0,0,0-.66-2.77c-.81-.78-.33-1.66.34-2.54-1.47-.44-1.4-1.44-1-2.57a1.49,1.49,0,0,0-.82-2.05c-1.79-1-1.9-2.22-.5-3.72,1.25-1.33,2.4-2.76,3.57-4.13l-2.08-1.55.18-.25a2.17,2.17,0,0,0,.63.31,2.39,2.39,0,0,0,1.1,0c.12,0,.12-.57.07-.86a20.49,20.49,0,0,1,1.48-12.16,1.29,1.29,0,0,0,.12-.89c-1.85-4.68.08-6.33,2.77-8.48A11.49,11.49,0,0,1,307.59,51h-2.48l0,.17,2.79.66-2.87-.2a7.8,7.8,0,0,0-5.33,1.41c3.21-1.27,6.28-.52,9.61-.47Z" fill="#ececec"/><path d="M307.06,392.46s4.6-26.19-8.14-103c0,0-10.25-57.09,10.89-74.51a19.12,19.12,0,0,1,2.72-1.8c9.85-5.54,64.85-35.22,116.76-4.78,0,0,26.61,11.81,19.81,55.1L433.32,390.39Z" fill="#cbc6f4"/><path d="M430.11,204.52c-64.06-29.37-118.21,3.54-118.21,3.54-30.08,12.74-17,81.76-17,81.76,13.8,93.79,7.43,107.24,7.43,107.24l136.27-4.24C437.44,372,451.7,270.71,451.7,270.71,461.26,209.83,430.11,204.52,430.11,204.52Zm17.77,58.65L432.24,386.45l-124.23,6s4.6-26.19-8.14-103c0,0-10.26-57.09,10.89-74.51a19,19,0,0,1,2.71-1.8c9.85-5.54,64.38-33.42,116.29-3C429.76,210.19,454.68,219.89,447.88,263.17Z" fill="#dad4f9"/><path d="M396.62,244.85H367.21a90.67,90.67,0,0,0,0-33.24h29.41a91,91,0,0,0,0,33.24Z" fill="#fccdc3"/><path d="M368.25,218.74s.38,4.63.42,5.63c0,0,20.64,2.09,26.92-5.63Z" fill="#fc9189"/><path d="M431,182.1c-1.71,5.05-5.82,8.22-9.19,7.08s-4.72-6.15-3-11.21a12.21,12.21,0,0,1,4.21-6,7.93,7.93,0,0,1,.82-.51,6,6,0,0,1,1.33-.55,4.59,4.59,0,0,1,2.84,0,5.25,5.25,0,0,1,3.09,3.22A11.87,11.87,0,0,1,431,182.1Z" fill="#fccdc3"/><path d="M342.75,189c-3.3,1.31-7.58-1.63-9.56-6.59-1.37-3.46-1.27-7,.05-9.24a4.57,4.57,0,0,1,5.6-2.17l.31.1h0a7.82,7.82,0,0,1,2.37,1.41,12.88,12.88,0,0,1,3.61,5.13C347.13,182.6,346.06,187.69,342.75,189Z" fill="#fccdc3"/><ellipse cx="366.44" cy="646.3" rx="65.7" ry="21.01" fill="#cbc6f4"/><path d="M330.46,611.92s-7.18-.38-11.76,9.55c0,0-6.12,13-9.55,16,0,0-7.64,10.31,9.55,16,0,0,61.54,20.39,104.3-4.53a5,5,0,0,0,1.71-1.63c1.28-2,2.69-6.5-3.65-12.56,0,0-7.63-8-10.69-16.42,0,0-3.44-6.11-9.17-6.5Z" fill="#dad4f9"/><path d="M333.59,568.76S335,594,331.35,607.42a24.72,24.72,0,0,0-.89,4.5c-.37,4.35.06,12.09,7.33,14.52,0,0,41.26,11.08,60-1.91,0,0,6.5-3.06,3.06-15.28,0,0-5.35-30.18-2.29-40.87C398.53,568.38,364.15,574.49,333.59,568.76Z" fill="#cbc6f4"/><ellipse cx="364.34" cy="564.37" rx="43.74" ry="8.59" fill="#dad4f9"/><path d="M411.13,547H321a365.7,365.7,0,0,0,3.44-38.58A363,363,0,0,0,321,444.24h90.14a289.3,289.3,0,0,0,0,102.75Z" fill="#dad4f9"/><path d="M406.93,543.17H325.19a367.53,367.53,0,0,0,3.12-37,368.62,368.62,0,0,0-3.12-61.55h81.74a293.46,293.46,0,0,0,0,98.55Z" fill="#cbc6f4"/><ellipse cx="363.1" cy="546.42" rx="52.9" ry="21.96" fill="#f48225" data-secondary="true"/><path d="M302.65,436.6H431.38a0,0,0,0,1,0,0v6.87a5.36,5.36,0,0,1-5.36,5.36H308a5.36,5.36,0,0,1-5.36-5.36V436.6A0,0,0,0,1,302.65,436.6Z" fill="#cbc6f4"/><path d="M304.26,398.8H429.81a0,0,0,0,1,0,0v9.42a0,0,0,0,1,0,0H304.26a4.71,4.71,0,0,1-4.71-4.71v0A4.71,4.71,0,0,1,304.26,398.8Z" fill="#c2c0f2"/><path d="M299.83,317.73c-8.11.81-14.32,5.63-18.76,10.86A46.14,46.14,0,0,0,270.6,355c-2.83,37.23,23.55,55.26,23.55,55.26,1.9-3.79,7.26-4.42,7.26-4.42-1.89-3.79-.29-5.5-.29-5.5-28.06-51.59,3.13-68.37,3.13-68.37Z" fill="#cbc6f4"/><path d="M436.52,336s11.05,4.74,9.79,32.83c0,0-3.09,19.8-7.7,23.95l-.82,14.88,1.26,1.58s2,.2,2.26,1.6c0,0,28.65-16.3,22.92-62.9,0,0-.77-15.28-14.9-22.15Z" fill="#cbc6f4"/><path d="M296.63,405.66H437.86a5.36,5.36,0,0,1,5.36,5.36v23.66a5.36,5.36,0,0,1-5.36,5.36H296.63a4.29,4.29,0,0,1-4.29-4.29V409.94A4.29,4.29,0,0,1,296.63,405.66Z" fill="#dad4f9"/><path d="M364.15,533.62s0,8.78,9.55,9.17c0,0,25.21,5,21.77-7.64Z" fill="#21224f"/><path d="M329.1,530.74s-3.15,9.75,14,11.66c0,0,21.39.77,21-8.78Z" fill="#21224f"/><ellipse cx="376.25" cy="34.46" rx="21.65" ry="10.87" fill="#cbc6f4"/><ellipse cx="376.25" cy="35.03" rx="14.01" ry="7.03" fill="#dad4f9"/><path d="M462.4,107.81a4.26,4.26,0,0,1,0,.51,63,63,0,0,1-5.17,24.59c-67-19.43-138.15-7.19-163.92-1.52a63.26,63.26,0,0,1-4.57-23.58v-.07c.06-40.61,38.92-73.53,86.85-73.53S462.4,67.17,462.4,107.81Z" fill="#cbc6f4"/><path d="M284.43,132.71s12.62,16,99.2,12.44c0,0,59.05,6.44,86.06-9.76l-3-12.14L319.46,111Z" fill="#cbc6f4"/><ellipse cx="381.93" cy="172.93" rx="43.1" ry="48.3" fill="#fccdc3"/><path d="M431.06,174.1a5.25,5.25,0,0,0-3.09-3.22,5.15,5.15,0,0,0-4.17.54c1.24-3.73,2.52-12.88-9.67-22,0,0-17.83-17.33-55.48-6.43,0,0-19.47,5.36-19.47,28.14h0a4.89,4.89,0,0,0-3.55-.05,4.76,4.76,0,0,0-2.36,2.12s-21.92-11.52,1.9-52.43a14.69,14.69,0,0,1,3.4-4c9.19-7.56,46.23-33.16,87,5.88C425.52,122.66,451.7,157.23,431.06,174.1Z" fill="#f48225" data-secondary="true"/><path d="M422.21,409.86l-19.48,39s-32.47,50.8-12.61,73.72c0,0-6,9.83-20.1,2.19,0,0-7.4-2.57-6.63-14.41,0,0,8-57.3,19.86-81.36,0,0,11.08-17.57,14.13-32.09a48.15,48.15,0,0,1,10.2,5.46,50.53,50.53,0,0,0,8.17,5.26A23.28,23.28,0,0,0,422.21,409.86Z" fill="#fccdc3"/><path d="M419.15,415.21,402,403.75s-22.92,37.81-32.47,72.57c0,0,3.82-31.32,18.33-55.77a84.78,84.78,0,0,0,9.55-23.68s7,2.89,10.2,5.46c0,0,8.9,6.38,14.63,7.53Z" fill="#fc9189"/><path d="M338.94,508.41s-16.42,23.3-6.88,27.12c0,0,9.94,5.73,26.74,1.91,0,0,11.08,0,4.2-25.21Z" fill="#686175" data-primary="true"/><path d="M363,512.23s3.86,14.87.8,21.36c0,0,3,8.81,21.74,6.9,0,0,18.72,2.3,4.58-18,0,0-6.49,9.55-20.62,1.53C369.5,524.07,363,521,363,512.23Z" fill="#686175" data-primary="true"/><path d="M469.69,135.39q-5.62-2-11.29-3.59c-67-19.43-138.14-7.18-163.92-1.51v0c-6.45,1.4-10.05,2.4-10.05,2.4,0-3.06,2.17-25,2.17-25l3.32-1.09c89.05-28.84,156.58-6.25,173.65.59,2.75,1.11,4.19,1.8,4.19,1.8Z" fill="#dad4f9"/><path d="M352.31,412.53s-1.53,65.7-8,77.93c0,0-15.28,33.61,3.44,34.37,0,0,13,5.35,15.27-12.6,0,0,7.65-59.08,24.83-91.68,0,0,7.26-14.13,9.55-23.68L384,384.27S349.64,401.46,352.31,412.53Z" fill="#fccdc3"/><path d="M361.48,231.1s2.29-8,10.69-1.15c0,0,10.7,5.73,22.54,1.15,0,0,5.35-5.35,9.17,3.82,0,0,7.25,3.81,12.6,3.43,0,0,24.39-5.45,31.4,24.82a142.7,142.7,0,0,0,7,22.64L458.3,294a6,6,0,0,1-2.48,5.5c-7.65,5.49-35.09,18.86-33.23,27.88,0,0,3.44,12.61,10.7,22.92,0,0,10.69,22.92,6.11,40.11,0,0-.38,17.57.38,23.3,0,0-6.44,2.9-25.25-7a47.24,47.24,0,0,1-7.21-4.62c-5.19-4.09-20.71-13.24-43.17.91,0,0-23.68,22.54-31.32,16,0,0-5.35,1.14-20.63-17.19,0,0-3.44-3.06-11.08-1.53,0,0,.39-7.26,12.61-10.31,0,0,5-1.15,5.35-13.37,0,0-1.53-21,13.75-44.31L321.75,314s.77-10.31-15.28-12.6c0,0-18.71-2.68-11.46-8,0,0,6.88-2.68,11.08-13.37l10.7-27.12s4.58-18.34,28.26-18C345.05,234.92,360.33,235.68,361.48,231.1Z" fill="#686175" data-primary="true"/><path d="M378.09,334.77s-6.73-8.14,1.77-5.31c0,0,2.83,1.77,11.32,1.06a8.67,8.67,0,0,1,5.68.72,7,7,0,0,0,4,.88A37.31,37.31,0,0,0,410.89,330a9.81,9.81,0,0,0,1.17-.58c4.25-2.48,28.77-22.47,43.76-30,0,0,2-.64,2.48-5.5h0c0,.11,5.07,29.13-2.7,31.95,0,0-36.1,21.24-62.3,26.9Z" fill="#fccdc3"/><path id="edd52c5b-8ee0-4d10-8118-619b39c5aed2" data-name="SVGID" d="M297.33,299.18s-13.39,21.43,3.24,30.64c0,0,16.64,7.78,38.94,15.57a56.63,56.63,0,0,1,11,4.78,19.17,19.17,0,0,0,4.21,1.89,29.72,29.72,0,0,0,9.17,1.32,15,15,0,0,0,3.25-.52c1-.23,2.93-.16,6,2.44,0,0,5.66,4.25,10.26,1.42,0,0,5.31,3.53,6-3.19,0,0,5.66,2.83,4.6-3.54h.08a3,3,0,0,0,2.23-4.86c-2-2.55-6.22-7.22-10.8-8.24,0,0-6-3.53-20.53-3.53,0,0-13.79-.3-20.4-4.77-1.62-1.09-3.26-2.16-5-3.1-5.35-2.94-15.35-8.63-17.86-11.51,0,0,.34-8.92-11.42-11.81C310.33,302.17,305.11,301.3,297.33,299.18Z" fill="#fccdc3"/><g clip-path="url(#bb43dbbb-db2a-4772-b989-8e3d8e524df8)"><path d="M383,356.8s-2.33-4.33-10.06-7.27" fill="none" stroke="#fc9189" stroke-miterlimit="10"/><path d="M377.91,346.43a63.09,63.09,0,0,1,11.5,7.1" fill="none" stroke="#fc9189" stroke-miterlimit="10"/><path d="M381.93,342.1S390,344.88,394,350" fill="none" stroke="#fc9189" stroke-miterlimit="10"/></g><ellipse cx="364.13" cy="173.01" rx="3.45" ry="5.56"/><ellipse cx="400.15" cy="173.01" rx="3.45" ry="5.56"/><path d="M381.52,178.93l-1.63,8c-.27,1.3.4,2.6,1.33,2.6h4.49c1.05,0,1.72-1.61,1.24-3l-2.86-8C383.52,177,381.88,177.19,381.52,178.93Z" fill="#fc9189"/><path d="M375,201.79s8.48,9,18.7,0" fill="none" stroke="#fc9189" stroke-linecap="round" stroke-linejoin="round"/><ellipse cx="400.15" cy="173.01" rx="0.32" ry="0.68" fill="#fff"/><ellipse cx="364.13" cy="173.01" rx="0.32" ry="0.68" fill="#fff"/><path d="M356.21,167.45s2.09-4.31,6.11-5.38a10.33,10.33,0,0,1,7.72.68,1.34,1.34,0,0,1,.6,1.64h0a1.33,1.33,0,0,1-1.82.75C366.56,164.09,361.6,162.74,356.21,167.45Z"/><path d="M407.74,166.32s-2.1-4.31-6.12-5.38a10.27,10.27,0,0,0-7.72.69,1.32,1.32,0,0,0-.6,1.63h0a1.33,1.33,0,0,0,1.82.75C397.38,163,402.34,161.62,407.74,166.32Z"/><path d="M425.13,170.87a6,6,0,0,0-1.33.55,7.93,7.93,0,0,0-.82.51c-2.11-28-39.34-28.69-39.34-28.69-45.29-1.07-42.71,25.37-42.09,29.28a7.82,7.82,0,0,0-2.37-1.41h0l-.31-.1c.34-35.63,42.5-32,42.5-32,25.24-.11,34.1,10.52,36.71,13.58.46.54.92,1.08,1.42,1.59C424.56,159.4,425.16,167.2,425.13,170.87Z" fill="#f48225" data-secondary="true"/><path d="M425.13,170.87a6,6,0,0,0-1.33.55,7.93,7.93,0,0,0-.82.51c-2.11-28-39.34-28.69-39.34-28.69-45.29-1.07-42.71,25.37-42.09,29.28a7.82,7.82,0,0,0-2.37-1.41h0l-.31-.1c.34-35.63,42.5-32,42.5-32,25.24-.11,34.1,10.52,36.71,13.58.46.54.92,1.08,1.42,1.59C424.56,159.4,425.16,167.2,425.13,170.87Z" opacity="0.2"/><path d="M336.54,177a.46.46,0,0,1,.36.5c-.36,3.73,1.67,4.75,1.76,4.79a.46.46,0,0,1-.39.84c-.11-.05-2.72-1.31-2.29-5.72a.47.47,0,0,1,.51-.42Z" fill="#fc9189"/><path d="M338.77,179.29a.45.45,0,0,1,.18.82,2.61,2.61,0,0,1-2.56.18.45.45,0,0,1-.23-.61.46.46,0,0,1,.61-.23,1.7,1.7,0,0,0,1.63-.08A.42.42,0,0,1,338.77,179.29Z" fill="#fc9189"/><path d="M426.16,175.48a.47.47,0,0,0-.37.5c.37,3.73-1.67,4.75-1.76,4.79a.49.49,0,0,0-.22.62.46.46,0,0,0,.61.22c.12-.05,2.73-1.31,2.29-5.72a.47.47,0,0,0-.5-.42Z" fill="#fc9189"/><path d="M423.92,177.82a.44.44,0,0,0-.27.17.46.46,0,0,0,.09.65,2.61,2.61,0,0,0,2.57.18.47.47,0,0,0,.23-.61.46.46,0,0,0-.61-.23,1.73,1.73,0,0,1-1.64-.08A.42.42,0,0,0,423.92,177.82Z" fill="#fc9189"/><rect x="626.83" y="236.94" width="17.24" height="14.01" rx="1.95" fill="#fc87b1"/><polygon points="639.32 236.94 631.91 236.94 633.48 221.45 637.04 221.44 639.32 236.94" fill="#1a2e35"/><rect x="605.57" y="236.94" width="17.24" height="14.01" rx="1.95" fill="#e1e1e1"/><polygon points="618.06 236.94 610.65 236.94 612.22 221.45 615.78 221.44 618.06 236.94" fill="#1a2e35"/><rect x="671.88" y="236.94" width="17.24" height="14.01" rx="1.95" fill="#fc87b1"/><polygon points="684.37 236.94 676.96 236.94 678.52 221.45 682.09 221.44 684.37 236.94" fill="#1a2e35"/><rect x="650.62" y="236.94" width="17.24" height="14.01" rx="1.95" fill="#e1e1e1"/><polygon points="663.11 236.94 655.7 236.94 657.26 221.45 660.83 221.44 663.11 236.94" fill="#1a2e35"/><rect x="715.82" y="236.94" width="17.24" height="14.01" rx="1.95" fill="#fc87b1"/><polygon points="728.31 236.94 720.9 236.94 722.46 221.45 726.02 221.44 728.31 236.94" fill="#1a2e35"/><rect x="694.56" y="236.94" width="17.24" height="14.01" rx="1.95" fill="#e1e1e1"/><polygon points="707.05 236.94 699.64 236.94 701.2 221.45 704.76 221.44 707.05 236.94" fill="#1a2e35"/><rect x="760.87" y="236.94" width="17.24" height="14.01" rx="1.95" fill="#fc87b1"/><polygon points="773.36 236.94 765.95 236.94 767.51 221.45 771.07 221.44 773.36 236.94" fill="#1a2e35"/><rect x="739.6" y="236.94" width="17.24" height="14.01" rx="1.95" fill="#e1e1e1"/><polygon points="752.1 236.94 744.69 236.94 746.25 221.45 749.81 221.44 752.1 236.94" fill="#1a2e35"/><rect x="785.41" y="236.94" width="17.24" height="14.01" rx="1.95" fill="#e1e1e1"/><polygon points="797.9 236.94 790.5 236.94 792.06 221.45 795.62 221.44 797.9 236.94" fill="#1a2e35"/><rect x="580.32" y="91.04" width="242.7" height="15.02" fill="#dad4f9"/><path d="M635.18,37V21.1a1.91,1.91,0,0,1,1.91-1.9h.71a1.9,1.9,0,0,1,1.9,1.9v.75h11.83v4H639.85V37Z" fill="#dad4f9"/><rect x="621.87" y="40.25" width="31.3" height="50.61" rx="2.29" fill="#cbc6f4"/><path d="M631.23,33.83h13.29a1.05,1.05,0,0,1,1.05,1.05v5.37a0,0,0,0,1,0,0h-15.4a0,0,0,0,1,0,0V34.89A1.05,1.05,0,0,1,631.23,33.83Z" fill="#cbc6f4"/><rect x="639.61" y="48.14" width="13.56" height="33.49" fill="#fafafa"/><path d="M645.58,40.08c0,.27-3.54.49-7.9.49s-7.89-.22-7.89-.49,3.54-.49,7.89-.49S645.58,39.81,645.58,40.08Z" fill="#dad4f9"/><path d="M623.79,73.54c-.27,0-.49-6.6-.49-14.75s.22-14.75.49-14.75.49,6.61.49,14.75S624.06,73.54,623.79,73.54Z" fill="#fafafa"/><path d="M678.11,37V21.1a1.9,1.9,0,0,1,1.9-1.9h.71a1.9,1.9,0,0,1,1.9,1.9v.75h11.83v4H682.78V37Z" fill="#dad4f9"/><rect x="664.79" y="40.25" width="31.3" height="50.61" rx="2.29" fill="#cbc6f4"/><path d="M674.15,33.83h13.29a1.05,1.05,0,0,1,1.05,1.05v5.37a0,0,0,0,1,0,0H673.1a0,0,0,0,1,0,0V34.89A1.05,1.05,0,0,1,674.15,33.83Z" fill="#cbc6f4"/><rect x="682.53" y="48.14" width="13.56" height="33.49" fill="#fafafa"/><path d="M688.5,40.08c0,.27-3.54.49-7.89.49s-7.9-.22-7.9-.49,3.54-.49,7.9-.49S688.5,39.81,688.5,40.08Z" fill="#dad4f9"/><path d="M666.71,73.54c-.27,0-.49-6.6-.49-14.75s.22-14.75.49-14.75.5,6.61.5,14.75S667,73.54,666.71,73.54Z" fill="#fafafa"/><path d="M720.56,37V21.1a1.9,1.9,0,0,1,1.9-1.9h.71a1.9,1.9,0,0,1,1.9,1.9v.75h11.84v4H725.23V37Z" fill="#dad4f9"/><rect x="707.24" y="40.25" width="31.3" height="50.61" rx="2.29" fill="#cbc6f4"/><path d="M716.61,33.83H729.9a1.05,1.05,0,0,1,1.05,1.05v5.37a0,0,0,0,1,0,0h-15.4a0,0,0,0,1,0,0V34.89A1.05,1.05,0,0,1,716.61,33.83Z" fill="#cbc6f4"/><rect x="724.98" y="48.14" width="13.56" height="33.49" fill="#fafafa"/><path d="M731,40.08c0,.27-3.53.49-7.89.49s-7.89-.22-7.89-.49,3.53-.49,7.89-.49S731,39.81,731,40.08Z" fill="#dad4f9"/><path d="M709.17,73.54c-.27,0-.49-6.6-.49-14.75S708.9,44,709.17,44s.49,6.61.49,14.75S709.44,73.54,709.17,73.54Z" fill="#fafafa"/><path d="M763.48,37V21.1a1.9,1.9,0,0,1,1.9-1.9h.71a1.9,1.9,0,0,1,1.9,1.9v.75h11.84v4H768.15V37Z" fill="#dad4f9"/><rect x="750.16" y="40.25" width="31.3" height="50.61" rx="2.29" fill="#cbc6f4"/><path d="M759.53,33.83h13.29a1.05,1.05,0,0,1,1.05,1.05v5.37a0,0,0,0,1,0,0h-15.4a0,0,0,0,1,0,0V34.89A1.05,1.05,0,0,1,759.53,33.83Z" fill="#cbc6f4"/><rect x="767.9" y="48.14" width="13.56" height="33.49" fill="#fafafa"/><path d="M773.87,40.08c0,.27-3.53.49-7.89.49s-7.89-.22-7.89-.49,3.53-.49,7.89-.49S773.87,39.81,773.87,40.08Z" fill="#dad4f9"/><path d="M752.09,73.54c-.27,0-.49-6.6-.49-14.75s.22-14.75.49-14.75.49,6.61.49,14.75S752.36,73.54,752.09,73.54Z" fill="#fafafa"/><rect x="579.69" y="171.13" width="242.7" height="15.02" fill="#dad4f9"/><rect x="579.69" y="250.48" width="242.7" height="15.02" fill="#dad4f9"/><rect x="43.02" y="17.4" width="142.8" height="319.35" fill="#dad4f9"/><rect x="57.38" y="32.28" width="114.06" height="289.04" fill="#f5f5f5"/><path d="M186.35,336.22a1.28,1.28,0,0,1-.29-.23l-.79-.74-3-2.9-11-10.85.18.08-57,.11-57-.11.19-.09L46.94,332.74l-2.89,3-.76.77a1.49,1.49,0,0,1-.27.24s.06-.1.22-.29l.71-.81c.67-.75,1.6-1.79,2.79-3.1l10.46-11.4.07-.08h.11l57-.12,57,.12h.1l.08.07,10.85,11,2.9,3,.73.78A1.62,1.62,0,0,1,186.35,336.22Z" fill="#cbc6f4"/><path d="M42.75,17.38s.1.07.28.23l.79.74,3,2.9,11,10.85L57.65,32l57-.11,57,.11-.18.09,10.62-11.25,2.89-3,.76-.77c.18-.17.27-.25.28-.24a1.39,1.39,0,0,1-.22.29l-.71.82c-.68.74-1.61,1.78-2.79,3.09L171.9,32.45l-.07.08h-.12l-57,.11-57-.12h-.11l-.07-.07-10.85-11-2.9-3c-.3-.32-.54-.58-.74-.78A1.28,1.28,0,0,1,42.75,17.38Z" fill="#cbc6f4"/><path d="M90.87,204.33c-.17-.11,12.07-18.29,27.34-40.59s27.78-40.29,28-40.17-12.06,18.29-27.34,40.6S91,204.45,90.87,204.33Z" fill="#e6e7e8"/><path d="M98,166.88c-.17-.12,6.55-9.91,15-21.87s15.45-21.56,15.62-21.44-6.55,9.91-15,21.87S98.21,167,98,166.88Z" fill="#e6e7e8"/><path d="M113.35,195.88c-.17-.12,5.87-8.64,13.49-19s13.93-18.71,14.09-18.58-5.87,8.63-13.49,19S113.52,196,113.35,195.88Z" fill="#e6e7e8"/><path d="M171.45,321.32s0-.49,0-1.43,0-2.34,0-4.16c0-3.68,0-9.09,0-16.11,0-14-.06-34.48-.1-60.15,0-51.31-.1-123.52-.17-207.19l.36.36H57.38l.38-.37c0,113.58-.09,216.18-.12,289l-.26-.26,83.49.14,22.66.07,5.89,0,2,0-2,0-5.85,0-22.59.06-83.65.14h-.26v-.26c0-72.86-.07-175.46-.11-289v-.37h114.8v.36c-.07,83.77-.13,156.06-.17,207.43,0,25.64-.08,46.06-.1,60.08,0,7,0,12.37,0,16,0,1.81,0,3.19,0,4.13S171.45,321.32,171.45,321.32Z" fill="#cbc6f4"/><rect x="507.79" y="430.64" width="115.14" height="206.58" fill="#dad4f9"/><path d="M612.18,494.09s0-.33,0-.95,0-1.54,0-2.7c0-2.4-.05-5.86-.09-10.29,0-8.92-.1-21.71-.17-37.44l.33.33-93.63.11.44-.44v6.76q0,3.38,0,6.69v13.1c0,8.6,0,16.91,0,24.83l-.41-.41,67.23.2,19.39.11,5.19.05,1.35,0a2.61,2.61,0,0,1,.47,0,1.75,1.75,0,0,1-.42,0l-1.31,0-5.1.05-19.29.11-67.51.2h-.42v-.41c0-7.92,0-16.23,0-24.83V442.71l.44-.44,93.63.1h.34v.34c-.08,15.81-.14,28.68-.18,37.64,0,4.4-.07,7.84-.09,10.22q0,1.69,0,2.64C612.2,493.8,612.18,494.09,612.18,494.09Z" fill="#cbc6f4"/><polygon points="547.4 442.86 552.17 447.62 578.41 447.62 583.33 442.86 547.4 442.86" fill="#cbc6f4"/><path d="M612.18,554s0-.33,0-1,0-1.55,0-2.7c0-2.4-.05-5.86-.09-10.29,0-8.92-.1-21.72-.17-37.44l.33.33-93.63.11.44-.44h0v6.75q0,3.38,0,6.69v13.1c0,8.6,0,16.91,0,24.83l-.41-.41,67.23.2,19.39.11,5.19.05,1.35,0,.47,0a1.75,1.75,0,0,1-.42,0l-1.31,0-5.1.05-19.29.11-67.51.2h-.42V554c0-7.92,0-16.23,0-24.83V502.63h0c-.1.09.83-.84.44-.45l93.63.11h.34v.34c-.08,15.81-.14,28.68-.18,37.64,0,4.4-.07,7.84-.09,10.22q0,1.69,0,2.64C612.2,553.71,612.18,554,612.18,554Z" fill="#cbc6f4"/><polygon points="547.4 502.76 552.17 507.53 578.41 507.53 583.33 502.76 547.4 502.76" fill="#cbc6f4"/><path d="M612.18,613.91s0-.33,0-.95,0-1.55,0-2.7c0-2.4-.05-5.86-.09-10.29,0-8.92-.1-21.72-.17-37.45l.33.34-93.63.1c-.4.4.53-.53.44-.43h0v6.75q0,3.38,0,6.69v13.1c0,8.6,0,16.91,0,24.83l-.41-.41,67.23.2,19.39.11,5.19.05,1.35,0,.47,0a3,3,0,0,1-.42,0l-1.31,0-5.1,0-19.29.11-67.51.2h-.42v-.41c0-7.92,0-16.23,0-24.83V562.54h0c-.1.09.83-.84.44-.45l93.63.11h.34v.33c-.08,15.82-.14,28.69-.18,37.65,0,4.4-.07,7.84-.09,10.22q0,1.7,0,2.64C612.2,613.62,612.18,613.91,612.18,613.91Z" fill="#cbc6f4"/><polygon points="547.4 562.67 552.17 567.44 578.41 567.44 583.33 562.67 547.4 562.67" fill="#cbc6f4"/><path d="M533.12,648a10.79,10.79,0,1,1-10.78-10.79A10.78,10.78,0,0,1,533.12,648Z" fill="#cbc6f4"/><circle cx="611.14" cy="648.01" r="10.78" fill="#cbc6f4"/><rect x="518.55" y="385.68" width="18.66" height="44.96" fill="#fc87b1"/><rect x="518.55" y="365.95" width="18.66" height="22.73" fill="#e1e1e1"/><rect x="547.4" y="408.16" width="29.78" height="22.48" fill="#fc87b1"/><g opacity="0.2"><path d="M576.83,416.43c0,.24-6.52.44-14.55.44s-14.56-.2-14.56-.44,6.52-.44,14.56-.44S576.83,416.19,576.83,416.43Z"/></g><rect x="557.58" y="420.37" width="19.25" height="5.8" fill="#fff"/><path d="M45.27,420.32c5.17,2.25,17.8,1.95,17.82,1.95s-2.71-8.25-3-8.75c-2.77-5.81-11.54-15.37-18.66-14.41a8.52,8.52,0,0,0-7,9.79,8.79,8.79,0,0,0,.19.89C35.81,414.71,40.87,418.39,45.27,420.32Z" fill="#e6dffe"/><path d="M49.65,456.87c5.34.8,16.63-2.47,17.52-2.74A150.61,150.61,0,0,0,74,473c1.56,3.58,3.24,7.17,5,10.73-1-1.51-2-2.87-2.13-3-4.2-5-15.17-11.77-21.8-9A8.5,8.5,0,0,0,50.8,483a9.33,9.33,0,0,0,.43.83c2.47,4.45,8.31,6.64,13.05,7.41s14.49-1.88,17.06-2.47l2,4.08c3.26,6.5,6.55,12.95,9.59,19.4,1.06,2.27,2,4.55,3,6.82-.91-1.33-1.7-2.47-1.85-2.62-4.2-4.94-15.18-11.76-21.8-8.94a8.49,8.49,0,0,0-4.21,11.26,6.4,6.4,0,0,0,.43.82c2.47,4.45,8.3,6.65,13.07,7.42s13.55-1.63,16.56-2.47c.94,2.34,1.88,4.72,2.67,7,.52,1.61,1.12,3.11,1.54,4.75l1.33,4.79c.74,3.07,1.51,6.23,2.15,9.24.47,2.11.87,4.11,1.29,6.13-1-2.27-3.17-6.67-3.39-7-3.41-5.47-13.22-13.95-20.19-12.19a8.53,8.53,0,0,0-5.86,10.54,7.72,7.72,0,0,0,.29.85c1.76,4.77,7.2,7.84,11.79,9.25,4.95,1.53,16.24.12,17.65,0,.67,3.34,1.29,6.6,1.83,9.69.27,1.63.52,3.16.79,4.69h4.45l-1.06-5.48c-.67-3.39-1.43-7-2.28-10.73a87.17,87.17,0,0,0,9.89-4.62c3.68,4,13.13,8.65,14.34,9.24-1.29,3.17-2.47,6.23-3.81,9.1l-1.11,2.47h4.67l.37-.84c1.31-3.21,2.65-6.65,4-10.21,1.35.3,12.35,2.47,17.59,1.38,4.68-1.06,10.34-3.7,12.36-8.35a8.51,8.51,0,0,0-3.83-11.4c-.28-.13-.57-.26-.86-.37-6.83-2.29-17.31,5.47-21.06,10.63-.23.3-2.3,3.88-3.56,6.18.54-1.46,1.09-2.86,1.63-4.37,1.09-3,2.08-6,3.16-9.17.47-1.58,1-3.17,1.44-4.77s.84-3.32,1.28-4.95c.92-3.88,1.68-7.88,2.35-11.91,2.6.94,11.89,4.18,16.68,3.83s10.81-2.1,13.57-6.35a8.52,8.52,0,0,0-2.09-11.88c-.25-.17-.51-.33-.77-.48C171,506,159.54,512.09,155,516.72c-.27.27-3.19,3.88-4.75,5.9.4-2.47.79-4.94,1.09-7.41.89-7.15,1.56-14.39,2.27-21.63.2-2.22.45-4.42.7-6.62.91.34,11.86,4.42,17.3,4.05,4.79-.35,10.8-2.1,13.57-6.35a8.51,8.51,0,0,0-2.05-11.85,7,7,0,0,0-.82-.51c-6.4-3.29-17.87,2.79-22.42,7.41-.34.35-4.5,5.57-5.51,7,.52-4.94,1.09-9.71,1.83-14.46a152.18,152.18,0,0,1,4.13-19c.44.18,11.86,4.48,17.3,4.08,4.79-.32,10.8-2.08,13.57-6.35a8.53,8.53,0,0,0-2.1-11.88,8.36,8.36,0,0,0-.77-.48c-6.4-3.31-17.87,2.77-22.42,7.41-.37.35-4.94,6-5.58,7a3.8,3.8,0,0,1,.29-1.11,110.31,110.31,0,0,1,7.42-18c1.65-3.19,3.38-6.15,5.14-9,2.05,1,11.44,5.59,16.44,5.78s11-.89,14.18-4.82a8.5,8.5,0,0,0-.74-12c-.24-.2-.48-.4-.74-.58-6-4-18.07.79-23.08,4.8-.28.22-2.8,2.74-4.63,4.62.82-1.28,1.63-2.62,2.48-3.83,3-4.52,6.05-8.48,8.77-12,1.56-2,3-3.71,4.4-5.34,2.47,0,12.7-.37,17.15-2.47s9.32-5.86,10.36-10.82a8.51,8.51,0,0,0-6.2-10.31,9.32,9.32,0,0,0-.92-.17c-7.14-.77-15.64,9-18.27,14.83-.22.51-2.84,8.84-2.71,8.84H190c-1.36,1.54-2.79,3.22-4.32,4.95-2.8,3.46-5.94,7.41-9,11.84a154,154,0,0,0-9.37,14.95,112.31,112.31,0,0,0-8,18v.23c0-2.1,0-8-.12-8.46-.82-6.37-6.18-18.19-13.25-19.5a8.54,8.54,0,0,0-9.89,8c-.42,5.07,3.24,10.13,6.82,13.32,4.06,3.61,15.25,7.1,16.14,7.42a148.77,148.77,0,0,0-4.72,19.52c-.69,3.86-1.26,7.77-1.8,11.67v-3.66c-.84-6.37-6.18-18.21-13.25-19.52a8.53,8.53,0,0,0-9.79,7c-.05.32-.08.64-.1,1-.39,4.95,3.27,10.14,6.85,13.35s13.12,6.4,15.65,7.22c-.18,1.48-.4,3-.57,4.5-.87,7.22-1.68,14.43-2.72,21.48-.37,2.47-.82,4.94-1.26,7.41V519c-.84-6.37-6.18-18.21-13.25-19.52a8.53,8.53,0,0,0-9.79,7c0,.32-.08.64-.1,1-.42,5.06,3.24,10.13,6.82,13.34s12.21,6.08,15.2,7.07c-.51,2.47-1,5-1.65,7.42-.47,1.6-.79,3.19-1.36,4.79s-1,3.17-1.53,4.75c-1.07,3-2.18,6-3.29,8.9-.77,2-1.56,3.9-2.32,5.8.39-2.47,1.06-7.41,1.06-7.71a33,33,0,0,0-4.43-16.09,11.87,11.87,0,0,0-.12-1.88,8.5,8.5,0,0,0-10.4-7.24c-7,1.86-11.37,14.07-11.7,20.49,0,.37.23,4.5.42,7.12-.34-1.53-.66-3-1.06-4.55-.72-3.06-1.53-6.13-2.47-9.41-.49-1.56-1-3.14-1.46-4.75s-1.11-3.24-1.68-4.94c-1.36-3.76-2.94-7.42-4.62-11.25,2.69-.64,12.23-3.07,16-6s7.86-7.71,7.81-12.78a8.52,8.52,0,0,0-8.3-8.74,8.75,8.75,0,0,0-.89,0c-7.15.79-13.38,12.19-14.66,18.46,0,.4-.5,4.95-.69,7.57-1-2.23-2-4.48-3.14-6.7-3.19-6.45-6.63-12.88-10-19.28-1-2-2-4-3.09-5.91,1-.22,12.36-2.87,16.64-6.15,3.8-2.92,7.86-7.71,7.81-12.78a8.5,8.5,0,0,0-8.25-8.75c-.32,0-.63,0-1,0-7.14.79-13.37,12.19-14.65,18.47,0,.47-.7,7.14-.77,8.82-2.25-4.32-4.47-8.67-6.48-13.05a151.06,151.06,0,0,1-7-18.14c.45,0,12.36-2.8,16.74-6.16,3.8-2.94,7.86-7.71,7.81-12.8a8.48,8.48,0,0,0-8.22-8.73,8,8,0,0,0-1,0c-7.14.77-13.37,12.16-14.65,18.46,0,.5-.75,7.64-.77,8.95a5,5,0,0,0-.37-1.09,110.28,110.28,0,0,1-3.66-19.15c-.39-3.56-.57-7-.67-10.36,2.25-.27,12.61-1.66,16.89-4.25s8.65-6.8,9.17-11.84a8.52,8.52,0,0,0-7.26-9.59,7.28,7.28,0,0,0-.93-.07c-7.19,0-14.63,10.62-16.61,16.73,0,.35-.81,3.83-1.31,6.4v-4.52c0-5.46.35-10.43.7-14.83.22-2.47.47-4.77.71-6.87,2.08-1.44,10.41-7.42,13-11.52s4.55-10,2.7-14.83a8.56,8.56,0,0,0-10.94-5.16,8,8,0,0,0-.8.34c-6.38,3.31-8.06,16.19-7,22.51A89.36,89.36,0,0,0,65,395h.12c-.27,2-.54,4.2-.81,6.6-.42,4.4-.89,9.39-1,14.83A148.55,148.55,0,0,0,63.66,434a112.64,112.64,0,0,0,3.27,19.47.89.89,0,0,1,0,.23c-1.12-1.78-4.45-6.65-4.75-7C58,441.8,47,435,40.36,437.77a8.52,8.52,0,0,0-4.18,11.31,6.8,6.8,0,0,0,.42.8C39,454,44.9,456.21,49.65,456.87Z" fill="#e6dffe"/><path d="M173.06,423.09s2.3-8.41,2.47-8.95c.89-6.35-1.16-19.18-7.63-22.25a8.53,8.53,0,0,0-11.27,4.3c-.13.28-.23.56-.33.84-1.73,4.77.47,10.63,3.09,14.66C162.36,416.36,173,423.09,173.06,423.09Z" fill="#e6dffe"/><path d="M77,567.93h93.75v50.5a42,42,0,0,1-42,42h-9.61a42,42,0,0,1-42-42h0v-50.5Z" fill="#fff"/><path d="M128.64,661.73H119a43.34,43.34,0,0,1-43.27-43.3V566.69h96.19v51.74A43.32,43.32,0,0,1,128.64,661.73ZM78.2,569.16v49.27A40.87,40.87,0,0,0,119,659.26h9.64a40.88,40.88,0,0,0,40.81-40.83V569.16Z" fill="#e6dffe"/><path d="M170.69,615.06V603.67c-7.42,5.86-17.13,4.55-24.2,0-12.88-8.11-27.86-1.75-28.5-1.48a4.94,4.94,0,1,0,3.81,9.12l.12,0c.13,0,10.93-4.5,19.28.79a33.67,33.67,0,0,0,17.87,5.39A29,29,0,0,0,170.69,615.06Z" fill="#e6dffe"/><path d="M77,613.56a73.39,73.39,0,0,0,20.69-6.85c16.41-7.91,45-19.2,51.44-6.23a4.94,4.94,0,1,0,8.84-4.42c-7.83-15.67-29.66-15.1-64.56,1.73A65.41,65.41,0,0,1,77,603.52Z" fill="#e6dffe"/><circle cx="89.25" cy="590.57" r="3.49" fill="#e6dffe"/><path d="M112.75,583.62a3.49,3.49,0,1,1-3.48-3.48h0a3.46,3.46,0,0,1,3.46,3.46Z" fill="#e6dffe"/><path d="M136.28,578.38a3.49,3.49,0,1,1-3.48-3.48,3.48,3.48,0,0,1,3.48,3.48Z" fill="#e6dffe"/><path d="M159.34,581.42a3.49,3.49,0,1,1-3.51-3.46h0A3.48,3.48,0,0,1,159.34,581.42Z" fill="#e6dffe"/><circle cx="127.14" cy="618.01" r="3.49" fill="#e6dffe"/><path d="M148,625a3.49,3.49,0,1,1-3.48-3.48A3.48,3.48,0,0,1,148,625Z" fill="#e6dffe"/><path d="M165.45,625a3.49,3.49,0,1,1-3.49-3.48,3.49,3.49,0,0,1,3.49,3.48Z" fill="#e6dffe"/></svg>