<svg id="ac87a590-6205-438d-9702-bb67863f257d" data-name="Layer 1" xmlns="http://www.w3.org/2000/svg" width="865.76" height="682.89" viewBox="0 0 865.76 682.89"><path d="M192.05,149.57S332.37,130.68,424.11,16c0,0,87.7,118.73,229.36,133.57,0,0,86.35,362.92-230.71,473.56C422.76,623.13,125.94,543.5,192.05,149.57Z" fill="#ccc"/><path d="M235.23,180.6s121.2-18.88,188.1-112c0,0,70.94,95.79,191,112,0,0,66.11,303.65-189.56,390.63C424.79,571.23,182.45,523.08,235.23,180.6Z" opacity="0.2"/><path d="M642.05,372.69s2.88-21.6-3.71-40.84a2.91,2.91,0,0,0-3.61-1.87c-2.52.79-5.2,4.45-1.46,18.37l2,6.14,2.26,1.95a4.86,4.86,0,0,1,1.56,2.63Z" fill="#f9b499"/><path d="M615.78,578.57l2.68-3.7A2.16,2.16,0,0,1,620,574c3.26-.23,13.71-.61,18.5,3.8a42.73,42.73,0,0,0,22.59,8.2s26.86,1.87,31.41,8.36c0,0,4.28,5.72,5.65,7.36,0,0-4.37-3.93-19-8.1,0,0-15.08-3.42-25.76-4.59a45.58,45.58,0,0,1-16.51-4.16S624.21,579.56,615.78,578.57Z" fill="#3f3d56"/><path d="M619.87,627s12.78-4.14,15.25-3.68c0,0-.46-14.54-9.75-19.8l-8.66-6.81s-6-4.55-10.66-3L604.64,596a73.93,73.93,0,0,0,15.23,31Z" fill="#f9b499"/><path d="M512.5,456.34s2.8-2.89.9-10.32c0,0-3.61-11.75-2.52-22,0,0,32.64,32.34,56.94,25.84,0,0-12.38-28.49-1.4-38.21,0,0-23.52-26.91-51.18-39.44a23.78,23.78,0,0,1-4.89-3l-.12-.1a21.37,21.37,0,0,0-9-4.1l-58.7-11.74L432.2,380l-21.47,12.56s-17.45-3.64-14-20.25c0,0-24.68,3.45-40.26,11.6a36.22,36.22,0,0,1-12.2,10.23s31,21,36.91,37.61c0,0,1.6,7.55,1.39,11.61,0,0,.44,14,6.27,24.13L510.1,490s6.1-15.43,8.09-20.32a24.8,24.8,0,0,0-5-6.92,4.8,4.8,0,0,1-.72-6.37l.08-.1" fill="#686175" data-primary="true"/><path d="M398.62,360.19s1.32,8.76-1.93,12.5c0,0-5.3,14.74,14,20.24l21.47-12.56,10.34-26.69-9.7-25s2.37,28.84-14.48,35.08C418.36,363.74,410.06,367.39,398.62,360.19Z" fill="#f9b499"/><path d="M205.62,626.05s-9.46-1.42-11.88-11a16.28,16.28,0,0,1,3.11-13.9c4.62-5.94,14.71-12.7,35.29-4.78,0,0-27.23-1.56-31.9,15.8C200.24,612.13,198.23,621.2,205.62,626.05Z" fill="#2f2e41"/><path d="M269.27,625.46s-6.34-12.23-2.24-22.13a24.06,24.06,0,0,0,11.76-2.17l11.93,18.74A57.22,57.22,0,0,1,269.27,625.46Z" fill="#f9b499"/><path d="M242.41,531.75c-3.68-.45-8.3.21-13.44,3.66,0,0-23.52-1.09-24.76,16.55,0,0-7.43,20.12,12.69,30.95l26,14.54S263,600.86,267,603.33c0,0,9.9.31,11.76-2.17l-5.57-6.8s32.18-9.6,41.46-16.09c0,0-49.5-18.71-61.25-39.5A15,15,0,0,0,242.41,531.75Z" fill="#2f2e41"/><path d="M296.12,627.78l-22.9-33.42s49-13.33,92.52-49.52c0,0,6.54-5.41,14.88-6,0,0,15.45-4.68,21.64,9.77,0,0,10.19,18.4-2.61,35a33.93,33.93,0,0,1-10.82,9.06C375.73,599.82,331.54,622.57,296.12,627.78Z" fill="#2f2e41"/><path d="M314.68,578.27s-51.52-16.41-63.51-42.86c0,0,27.15,20.88,71,10.21,0,0-.48,2.54,5.51,1.49l17.9-2.66s9.62,1,16.28-2.55c2.07-.49,14.77-3.74,17.4-3s-10.21,2.41-15.09,8.44C364.19,547.33,332.48,572.39,314.68,578.27Z" fill="#2f2e41"/><path d="M314.68,578.27s-51.52-16.41-63.51-42.86c0,0,27.15,20.88,71,10.21,0,0-.48,2.54,5.51,1.49l17.9-2.66s9.62,1,16.28-2.55c2.07-.49,14.77-3.74,17.4-3s-10.21,2.41-15.09,8.44C364.19,547.33,332.48,572.39,314.68,578.27Z" opacity="0.2"/><path d="M388.8,467.87c-5.34-10.21-6.27-24.14-6.27-24.14a18.73,18.73,0,0,0,.05-4.69,32.6,32.6,0,0,0-1.79-7.86l-.1-.28A47.34,47.34,0,0,0,366,410a251.69,251.69,0,0,0-21.76-15.51s-16.47-10.89-30.7-12.78c-10.15-1.35-36.69,4.79-51.1,8.42a29.27,29.27,0,0,0-17.16,12.06l-.14.21s-18.18,26.32-24.67,27c0,0,9.63,24.55,12.41,39.86a25.72,25.72,0,0,1,14.08-11,2.42,2.42,0,0,1,3,1.73c1.43,5.59,4.35,21,.72,44.08,0,0-4.65,21.12.46,31.34,0,0,25.76,20.88,71,10.21,0,0-.23,2.32,3.25,1.86,0,0,17.87-3,21.81-2.33,0,0,9.75.24,14.63-3.25,0,0,12.06-3,17.4-3,0,0,7,.93,9.52-7.43Z" fill="#f48225" data-secondary="true"/><path d="M220.07,475.37l-14.28-40.74a3.26,3.26,0,0,1,1.64-4l8.37-4.09a3.26,3.26,0,0,1,4.39,1.57c3.08,6.71,10.26,23.73,13.14,42.12a2.54,2.54,0,0,1-1.43,2.7l-8.37,3.9A2.53,2.53,0,0,1,220.07,475.37Z" fill="#f48225" data-secondary="true"/><path d="M220.07,475.37l-14.28-40.74a3.26,3.26,0,0,1,1.64-4l8.37-4.09a3.26,3.26,0,0,1,4.39,1.57c3.08,6.71,10.26,23.73,13.14,42.12a2.54,2.54,0,0,1-1.43,2.7l-8.37,3.9A2.53,2.53,0,0,1,220.07,475.37Z" opacity="0.2"/><path d="M198.64,447.06l9.42-5.95,11.42,32.57-32,6.8a69.69,69.69,0,0,1-17.64-33.73s-5-33.73-12.07-38.06c0,0-11.45-9.29-14.54-15.17,0,0-.62-4.95,2.47-7.11a20.47,20.47,0,0,1,1.22-7.33,6.25,6.25,0,0,1,5.82-3.81h.85a10,10,0,0,1,6.74,2.6l.54.49,4.85-3.53a3.09,3.09,0,0,1,3.81.13h0s-13,10.21-1.86,12.37l.62-3.4,13-9a11.26,11.26,0,0,1-2,5.37,31.2,31.2,0,0,0-4.46,11,44.12,44.12,0,0,0,.22,17.33S189.67,440.25,198.64,447.06Z" fill="#f9b499"/><path d="M199.88,615.94s-2.17-25.14,43-18.49c0,0,19.81,3,24.14,5.88,0,0-4.26,7.51,2.24,22.13,0,0-46.46,4.8-62.37,1a7.58,7.58,0,0,1-4.73-3.45C201,621.06,199.64,618.25,199.88,615.94Z" fill="#f48225" data-secondary="true"/><path d="M478.62,633.18c-4.51,6.62-10,14.29-13.4,18.91a18,18,0,0,1-8.46,6.38c-21.49,7.72-29.95-2.21-29.95-2.21l-7-7.46c-6.16-3.7-4.11-17.27-4.11-17.27l-18.5,15.21c-31.66,20.15-40.7,2.06-40.7,2.06-18.5-29.6,33-83.18,33-83.18s41.19,6.77,55.42,18.83c0,0,10,5.59,16.71,5.27l12.69-9.29s-8,8.67-2.78,18.26c0,0,5.73,13.92,3.86,29.71a4.36,4.36,0,0,0,2.49,4.46Z" fill="#f48225" data-secondary="true"/><path d="M437.3,591.34l23.17,8.27a15.09,15.09,0,0,1,8.24,6.9,17.45,17.45,0,0,1,1.46,11.89,14.7,14.7,0,0,1-2.66,5.72c-3.3,4.51-7.93,22.46-7.93,22.46-2.08,10.2-5.78,12.87-5.79,12.87h0a19.87,19.87,0,0,0,11.44-7.36l13.39-18.91h0l-.68-.32a4.54,4.54,0,0,1-2.64-4.5c1.48-18.16-3.72-29.67-3.72-29.67-5.4-11.41,2.72-18.21,2.78-18.26h0l-12.69,9.29h0c-7.19,1.39-18.29-6.51-18.29-6.51-16-11.6-53.84-17.59-53.84-17.59h0l-3.76,4.14h0s28.08,9,28.78,22.28c0,0,1.39,16.71-6.5,29,0,0-7.67,12.72,1.14,12.2a10.55,10.55,0,0,0,8.86-6.2,67.15,67.15,0,0,0,6.18-29.27,7.21,7.21,0,0,1,6.1-7.35A14.3,14.3,0,0,1,437.3,591.34Z" fill="#fff" opacity="0.1"/><path d="M405.16,497.5c-21.86,2.47-27.35-13.62-27.35-13.62s7.85-7.11,13.67-22.9c0,0,3.79-8.32,11.48-8.51a52.14,52.14,0,0,0,7.18-.59c5.52-.91,14.18-2.6,18.42-4.82,0,0,3,6.95,14.42,8.06l1.17.12c2.41.28,12.8,1,20.08-7.1l28.54,11.14s10.22,1.63,12.3,16c0,0,3,12.3,6.27,16.71,0,0,7.2,9.05-5.34,9.74,0,0-13.46-1.16-18.56,4.18,0,0-1.86,20.19.69,24.6,0,0-1.86,37.45,0,47.74,0,0,9.29,48.12,3,54.85,0,0-.69,5-12.53.06l-1.53-.71a3.37,3.37,0,0,1-1.95-3.26c.27-5,.6-17-2-25.87,0,0-6.76-12.51-1.15-20.44a.3.3,0,0,0-.42-.42l-9.89,7.24s-6.75,2.1-18.63-5.79c0,0-21.43-14.08-53.5-18.31,0,0,6.92-7.61,8.54-34Z" fill="#686175" data-primary="true"/><path d="M405.16,497.5c-21.86,2.47-27.35-13.62-27.35-13.62s7.85-7.11,13.67-22.9c0,0,3.79-8.32,11.48-8.51a52.14,52.14,0,0,0,7.18-.59c5.52-.91,14.18-2.6,18.42-4.82,0,0,3,6.95,14.42,8.06l1.17.12c2.41.28,12.8,1,20.08-7.1l28.54,11.14s10.22,1.63,12.3,16c0,0,3,12.3,6.27,16.71,0,0,7.2,9.05-5.34,9.74,0,0-13.46-1.16-18.56,4.18,0,0-1.86,20.19.69,24.6,0,0-1.86,37.45,0,47.74,0,0,9.29,48.12,3,54.85,0,0-.69,5-12.53.06l-1.53-.71a3.37,3.37,0,0,1-1.95-3.26c.27-5,.6-17-2-25.87,0,0-6.76-12.51-1.15-20.44a.3.3,0,0,0-.42-.42l-9.89,7.24s-6.75,2.1-18.63-5.79c0,0-21.43-14.08-53.5-18.31,0,0,6.92-7.61,8.54-34Z" fill="#fff" opacity="0.2"/><path d="M448,542.13l.28,26.29a5.14,5.14,0,0,1-5,5.2l-26.17.64a5.15,5.15,0,0,1-5.21-4.39l-4.78-32.24,1.24-3.7L445.6,535l2,5.31A5.22,5.22,0,0,1,448,542.13Z" fill="#2f2e41"/><path d="M431.81,440.77l-3.25,6.29s3.33,8.16,15.59,8.72c0,0,13.81,1,20.08-7.64,0,0-4.92-2.7-3.28-14.35C461,433.79,449.33,450.09,431.81,440.77Z" fill="#f9b499"/><path d="M510.1,490s15.31-40,21.5-49.25c0,0,16.1-16.61,36.22-6.91,0,0,7.33,13,14.3,28a164.17,164.17,0,0,1,13.44,44.38c3.68,24,10.14,67.48,10.47,79.39,0,0,1.39,9.05-1.39,10.44,0,0-1.86-7.43-.93-10.44,0,0-25-10.09-27.68.65a9.37,9.37,0,0,1-1.47,3.34c-2,2.7-6.69,7-17.5,9.47l-4.18-1.63S557.53,570,555,564.19c0,0-7,10.67-14.39,13.92,0,0-42.87-15.82-53.23-23,0,0,18.19-1.61,24.45-12.29,0,0,.47-11.6-5.8-41.08a12.13,12.13,0,0,0,4.53-.8,4.44,4.44,0,0,0,2.39-5.48A23.41,23.41,0,0,0,510.1,490Z" fill="#2f2e41"/><path d="M493.28,623.82s72.37,5.81,98.13-1.15L577.05,584s-25.31-1.69-36.47-5.93c0,0-38-14-53.23-23,0,0-.38,16.68.78,23.15C488.13,578.27,494,611.52,493.28,623.82Z" fill="#2f2e41"/><path d="M493.28,623.82s72.37,5.81,98.13-1.15L577.05,584s-25.31-1.69-36.47-5.93c0,0-38-14-53.23-23,0,0-.38,16.68.78,23.15C488.13,578.27,494,611.52,493.28,623.82Z" opacity="0.2"/><path d="M553.81,620.81,557.06,599s15.9-2.87,19-12.81c0,0,1.57-7,11.94-4.77,0,0,9.71,1.33,15.74,4.12a35.25,35.25,0,0,0,4.8,19.8s20.27,37.76,20.11,40.39c0,0-9.9-3.56-19-2,0,0-23.52,3.25-33.73-2.32C575.86,641.39,571.06,640.62,553.81,620.81Z" fill="#686175" data-primary="true"/><path d="M551.72,637.06l2.09-16.25,12.88,13.66s9.63,9.6,22.34,10h12.5a7.16,7.16,0,0,0,1.46-.15c3-.63,15.36-2.85,25.63,1.42a30.75,30.75,0,0,1-.29,8.84,4.74,4.74,0,0,1-4.13,3.61c-7.18.75-32.39,2.27-45.4-11.22,0,0-3.4-3.4-10.21-4.17C568.59,642.79,552.34,641.24,551.72,637.06Z" fill="#3f3d56"/><path d="M557.06,599l-3.25,21.81,12.88,13.66a38.7,38.7,0,0,0,31.14,10s-30.28-16.18-35.1-47.07Z" fill="#fff" opacity="0.1"/><path d="M634.19,626.1l.93-2.81s-.77-14.85-9.75-19.8l-6.23-4.9s-8.72-6.6-13.09-4.88l.33-3.1,9.4-12a39.45,39.45,0,0,1,15.94,3.87s11.29,6.35,23,6.66c0,0,29.81,3.2,42.31,11.74a8.86,8.86,0,0,1,3,3.49c1.76,3.7,4.93,11.92,2.51,19.42,0,0-.93,6.81-13.31,3.87C689.27,627.62,639.76,621.48,634.19,626.1Z" fill="#686175" data-primary="true"/><path d="M612.06,583.33s14.86,23.1,41.16,26c0,0,42.67,4.18,50.19,9.9,0,0,1.49,12.69-14.14,8.35,0,0-49.35-7.33-55.54-.65,0,0,4.58-14.37-8.36-23.48,0,0-13.11-11.84-19.32-9.78l.33-3.1Z" fill="#fff" opacity="0.1"/><polygon points="642.05 353.68 593.5 370.93 375.34 227.66 149.51 398.24 145.8 394.99 379.98 194.7 642.05 353.68" fill="#2f2e41"/><polygon points="375.03 212.96 379.98 194.7 376.63 228.51 375.34 227.66 271.92 305.77 375.03 212.96" opacity="0.2"/><polygon points="145.8 394.99 166.91 385.11 149.51 398.24 145.8 394.99" opacity="0.2"/><path d="M584.22,451s4.42,0,15-16.75a126.13,126.13,0,0,0,9.55-18.52c3.84-9.19,12.22-26.39,23.79-34.2l9.53-8.85-2.93-13.46a5.36,5.36,0,0,0-1.72-2.9l-11.53-10s-5.4,5.53,3.32,14.68c0,0,1.67,6.24-.41,9.56,0,0-23.36,4.61-27,16.54a39.75,39.75,0,0,1-2.64,6.77c-3.3,6.38-9.7,18.42-14.52,25.57a32,32,0,0,0-5.28,13.58C578.63,438.64,579.23,445.41,584.22,451Z" fill="#f4a790"/><path d="M566.06,412a7.08,7.08,0,0,0,2.71,2.32,2.45,2.45,0,0,0,2.49-.2c4.75-3.36,24.48-18.22,29.92-36.42,0,0,5.26-19.81-8.36-37.44,0,0,6.64-4.34,9.35,1.23,0,0,6.12,2.17,6.74,7.74l1.67,6.81s10.23,1.61,15,0l3.65,5a11.66,11.66,0,0,1-.41,9.56s-20.87,4.26-26.77,17.24c0,0-3.1,9.35-19.93,36.17,0,0-7.7,14.88,2.14,27a24.42,24.42,0,0,1-5.65,3.35l-10.75-20.57-5.38-2S558.85,418.54,566.06,412Z" fill="#f9b499"/><path d="M624.83,348.06l-6.63-4.7s-4.62,8,6.38,10.32C624.58,353.68,623.79,349.75,624.83,348.06Z" fill="#f9b499"/><path d="M302.21,401.44A47.4,47.4,0,0,0,310.76,433c.25.36.48.72.72,1.09.41.66,1.66,1.91,4.69.54a10,10,0,0,0,2.44-1.59c3.91-3.36,20.66-18,24.75-25.8a8,8,0,0,0,.87-3.7v-9.08s-11.36,4.67-19.48-.26c0,0-6.35-2.47-11.22-12.52a67.73,67.73,0,0,1-6.41,8.53A18.47,18.47,0,0,0,302.21,401.44Z" fill="#f9b499"/><path d="M312.36,383.4l2-3s12.79,15.11,29.89,14.11v3.73S323,405.79,312.36,383.4Z" fill="#f4a790"/><ellipse cx="338.04" cy="357.5" rx="39.58" ry="28.18" transform="translate(-74.68 625.34) rotate(-79.59)" fill="#f9b499"/><path d="M398.88,364.1v-6.6l34-28.84,3.43,8.84a44.15,44.15,0,0,1-.2,9.79c-2.05,15.68-18.49,25.47-33,19.17A23.11,23.11,0,0,1,398.88,364.1Z" fill="#f4a790"/><ellipse cx="402.22" cy="319.46" rx="28.02" ry="47.12" transform="matrix(0.94, -0.34, 0.34, 0.94, -85.09, 157.08)" fill="#f9b499"/><ellipse cx="433.88" cy="317.83" rx="6.44" ry="10.83" fill="#f9b499"/><path d="M371.5,309s21.07-2.82,40.69-19.95c0,0,7.49,5,8.2,10,0,0,3.5,12,7.81,13.66,0,0,2.31-8.05,8.07-4.93,0,0,0-3.68-1.67-5.54,0,0-3.74-8.67-6.39-15.35a25.52,25.52,0,0,0-8.67-11.29c-3.64-2.63-8.13-4.28-12-1,0,0-7.74-8.36-28.32-.93,0,0-17.32,5.73-14.85,20.89,0,0-3.56,2.47,1.24,8.51,0,0,2.77,15.35,8.43,20.2A52.82,52.82,0,0,1,371.5,309Z" fill="#2f2e41"/><path d="M430.83,442.67l1.24-2.6L461,433.79a46.52,46.52,0,0,0-.33,4.93S446.12,450.28,430.83,442.67Z" fill="#f4a790"/><ellipse cx="469.99" cy="418.23" rx="7.62" ry="4.33" transform="translate(-115.77 647.77) rotate(-63.06)" fill="#f9b499"/><ellipse cx="442.54" cy="408.26" rx="26.45" ry="35.57" fill="#f9b499"/><path d="M409.45,396.15s4.68,3.85,3.72,9.52h2.92l1-7.06s6.33,3.87,10.15,1a1.87,1.87,0,0,1,1.31-.37c3.08.33,14.64.52,18-14.73,0,0,1.16,21.58,18.33,17.64,0,0,4.83,4.53,3.87,10.55,0,0,2.62-2.27,4.66-1.31,0,0,2.81,1.43,1.21,6.8,0,0,2.17-1.75,2.95-8a4.21,4.21,0,0,1,.4-1.35l3.74-7.47s1.56-15.48-4.59-22.77c-.38-.45-.73-.93-1.09-1.41-3.37-4.51-18.66-23-35.75-13.43a20.47,20.47,0,0,0-11.17,1.51c-7.46,3.41-11,11.29-16.52,23.28C411.19,391.72,410.13,394.37,409.45,396.15Z" fill="#2f2e41"/><path d="M408,397.21s-7.41-.82-10.51,5.83c0,0-12.53,7-4.79,25.76,0,0,7.27,12.07.77,16.56,0,0,10.83,3.55,10.37-15.17,0,0-1.94-23.21,6.92-23.13,0,0-1.55-.33-2.3-3.86A17.09,17.09,0,0,1,408,397.21Z" fill="#2f2e41"/><path d="M480.66,411.13s3.49,8.05-1,15.08c0,0-15,25.22,2.93,24.4,0,0,3,7,10.23,1.83,0,0-8-.15-6.93-6.75a8.69,8.69,0,0,1,1.56-3.67c1.93-2.7,7-10.45,7.51-18.65a17.79,17.79,0,0,0-7.52-15.68,10.84,10.84,0,0,0-2.78-1.45S484.25,409.11,480.66,411.13Z" fill="#2f2e41"/><rect x="405.86" y="395.56" width="7.47" height="12.13" rx="3.29" transform="translate(-90.32 120.28) rotate(-15.07)" fill="#2f2e41"/><rect x="478.19" y="400.17" width="7.47" height="12.13" rx="3.29" transform="translate(339.24 -207.7) rotate(36.79)" fill="#2f2e41"/><path d="M387,494.31l.1,23.66a96.67,96.67,0,0,1-.87,12.37c-.5,3.94.51,11.36,10.88,20.74a12.79,12.79,0,0,1,3.25,4.58l5.52,13.27,12.27,3.33a1.73,1.73,0,0,0,2.17-1.66h0a1.73,1.73,0,0,0-1.27-1.66l-5.3-1.46,6.39-2.77a2.27,2.27,0,0,0,1.09-3.16h0a2.27,2.27,0,0,0-2.08-1.18l-6.33.26,8.45-2.8A2.87,2.87,0,0,0,423,554h0a2.87,2.87,0,0,0-3-1.67l-6.2.92,6.61-3.35a2.38,2.38,0,0,0,.92-3.42h0a2.38,2.38,0,0,0-2.81-.94l-8.74,3.17a15.87,15.87,0,0,1-.93-13.25l-3.6-37.91S395,498.64,387,494.31Z" fill="#f9b499"/><path d="M388.89,495.24s11.51-5.5,13.29-16c0,0,0-4.81,2.46-6.45a10.55,10.55,0,0,0,.34,1.64,7.73,7.73,0,0,0,4.53,5,4,4,0,0,1,2.28,2.76s6.77-5.38,11.4-3.16a55.75,55.75,0,0,0,6.65,2,10.11,10.11,0,0,1,6.69,4.7c0,.05.05.09.07.13a23.47,23.47,0,0,0,10,9.48c2.81,1.34,5.85,2.18,8.34,1.39a15.22,15.22,0,0,1,3.77-.77c3.1-.16,8.3-.2,11.2,1.07h0a3.57,3.57,0,0,1,2,2.72,30.2,30.2,0,0,0,.65,3.1,5.4,5.4,0,0,0,9.58,1.83,23.88,23.88,0,0,0,4.42-12.49l.8,13.81s-2.49,13,.69,24.6c0,0-8.75,8.54-25.53,8.59,0,0-2.11-4.18-8.35-5.34,0,0,10.15-2.48,10.21-10.23a5.91,5.91,0,0,1-4.8-3.64s8.43,0,10.31-10.65a105.35,105.35,0,0,0,0-10.69s-5.17,4.69-9,3.43c0,0-6.24-.82-9.52.51l-.8-1.61a11.92,11.92,0,0,1-10.77-.93,10.84,10.84,0,0,1-4.51-5.92,30.9,30.9,0,0,1-.84-6.26s-.82-7.68-14.09-7c0,0,2.71,5.16-1.67,8.95,0,0-4.64-5.7-14.85-4.46,0,0,3,6.05-.83,7.93,0,0-4.73,2-5.94,4.14A34.45,34.45,0,0,1,388.89,495.24Z" opacity="0.05"/><path d="M462.6,539.12s17.64-.46,25.53-8.59c0,0-3.58-5-.69-24.6,0,0,4.17-5.1,18.56-4.18,0,0,6.73,29.71,5.8,41.08,0,0-6.95,13.46-33.18,12.54l-16,0s-7.52,7.57-12.91,11.24a10.18,10.18,0,0,1-6.58,1.74l-8.57-.71a1.87,1.87,0,0,1-.93-3.38,6.65,6.65,0,0,1,3.69-1,13.63,13.63,0,0,0-8.87-2.06,1.39,1.39,0,0,1-1.56-1.11c-.28-1.47,0-3.82,3.94-5.19,0,0-8.42-.69-6.53-4.41,0,0,.26-2.32,12.79.47,0,0-11.83-4.41-7.66-7,0,0,.2-2,10.15.48a8.41,8.41,0,0,0,5.22-.4l6.91-2.86H448l1.32-1.94c.87-1.29,1.75-2.57,2.63-3.86a2.37,2.37,0,0,1,2.32-1.63A11.83,11.83,0,0,1,462.6,539.12Z" fill="#f9b499"/><path d="M418.81,489.74a7.82,7.82,0,0,0,1.67-8.95s13.06-2,14.27,8c0,0,1.86,9.18,5.26,11.19,0,0-18.49-6.07-18.37,11a9.22,9.22,0,0,0-3.69,2.73s-.48-4.6,1.31-7.38C419.26,506.39,424.84,498.15,418.81,489.74Z" fill="#bcbec0"/><path d="M451.49,502.51s5-2,9.52-.51a5.74,5.74,0,0,0,3.92-.36c1.82-.66,4.19-1.77,4.89-4.45h0s4.06,22.78-10.16,22.72h0s-6.72-8.17-14.7-4.45h0s-.42-3,4-6.91h0s2.63-.81,2.54-6Z" fill="#bcbec0"/><path d="M421.64,511s-1.59-16.17,16.52-11.68c0,0,8.51,3.4,12.53,1.54,0,0,2.89,3.84-1.21,7.68a19.93,19.93,0,0,0-2.53,2.75,9.74,9.74,0,0,0-2,4.13s-3.91,0-7.06,5.56l-1.35-1.75a18.86,18.86,0,0,0-1-10,7,7,0,0,1-6,1.7A14.27,14.27,0,0,0,421.64,511Z" fill="#d1d3d4"/><path d="M404.64,515.46s-13.55-4-8.46-16.25a9.83,9.83,0,0,1,6.18-5.69l.08,0a3,3,0,0,0,1.66-1.17c.77-1.17,1.52-3.43-.14-7.05,0,0,14.87-2.21,17.38,9.84a15.89,15.89,0,0,1-1.77,10.9c-1,1.86-2.06,4.43-1.22,7,0,0-3.16,4.13-3,6.94C415.38,519.91,410.63,515.46,404.64,515.46Z" fill="#d1d3d4"/><path d="M412.24,509.77a11.28,11.28,0,0,1-3.54-4.25,12,12,0,0,1-1-3c-.05-.27-.08-.54-.11-.81l-.05-.41c0-.14,0-.28,0-.41l0-.83c0-.27,0-.55.06-.82,0-.56.11-1.06.16-1.59s.1-1.06.13-1.59c.08-1.06.11-2.12.12-3.18a23.87,23.87,0,0,0-.16-3.17,9.31,9.31,0,0,0-.74-3,8.79,8.79,0,0,1,.93,2.95,24.69,24.69,0,0,1,.28,3.21,52.64,52.64,0,0,1-.33,6.43c0,.26-.05.52-.06.78v.78c0,.13,0,.26,0,.39l0,.38c0,.26.06.52.1.77a13.1,13.1,0,0,0,.88,2.89,13,13,0,0,0,1.45,2.46A12.61,12.61,0,0,0,412.24,509.77Z" opacity="0.2"/><path d="M439.38,506.63a6.68,6.68,0,0,1,2.28-2.14,4.93,4.93,0,0,1,3-.65,8,8,0,0,0,1.47,0,6.47,6.47,0,0,0,1.44-.3,4.12,4.12,0,0,0,1.32-.67,2.21,2.21,0,0,0,.82-1.25,2.23,2.23,0,0,1-.67,1.44,4.41,4.41,0,0,1-1.34.85,6.57,6.57,0,0,1-1.52.41,8.13,8.13,0,0,1-1.56,0,5,5,0,0,0-1.45.05,5.45,5.45,0,0,0-1.4.45,6.74,6.74,0,0,0-1.28.78A7.93,7.93,0,0,0,439.38,506.63Z" opacity="0.2"/><path d="M396.65,509.77l21.38.92a5.53,5.53,0,0,0,.18,1.8s-2.9,3.63-3,7.25c0,0-4.7-4.62-10.55-4.28C404.64,515.46,399.09,513.82,396.65,509.77Z" fill="#fff" opacity="0.1"/><path d="M422.19,507c.29-.1,7.76-2.73,13.83-.46h0s6.5,1.25,7.14-.11c0,0,0,0,0,0,0,.71.43,4.45,2.92,6.08a0,0,0,0,1,0,0,9.44,9.44,0,0,0-1.17,2.89l-.48.12c-.3,0-3.81.36-6.31,5.22a2.61,2.61,0,0,1-.27.22l-.66-2s0,0,0,0a23.13,23.13,0,0,0-1.72-9.73,2.68,2.68,0,0,1,.23-.17c-.27.22-3.14,2.49-6,1.69,0,0-4.48-1.27-8.21.22,0,0,.08-.32.08-.33a21.81,21.81,0,0,1,.27-3.59S422.19,507,422.19,507Z" fill="#fff" opacity="0.1"/><path d="M432.2,537s1.16,6.27,15.78,4.19l3.95-5.8a3.14,3.14,0,0,1,3.24-1.89s9.29-2.64,9.29-10a6,6,0,0,1-4.8-3.64s-6.72-8.17-14.7-4.45c0,0-4.06-.17-7.06,5.56C437.9,521,444.66,530.58,432.2,537Z" fill="#d1d3d4"/><path d="M439.67,528.06a16.35,16.35,0,0,0,2.68.47,12.73,12.73,0,0,0,2.69,0,10.32,10.32,0,0,0,2.58-.61,8.65,8.65,0,0,0,2.28-1.32l0,0a7.24,7.24,0,0,1,4-2,7.44,7.44,0,0,1,2.21,0,9.37,9.37,0,0,1,1.08.21c.36.09.7.23,1,.35-.36-.07-.71-.16-1.06-.22a9.59,9.59,0,0,0-3.2.06,7.61,7.61,0,0,0-2,.74,6.71,6.71,0,0,0-1.68,1.22l0,0h0a8.55,8.55,0,0,1-2.43,1.4,9.56,9.56,0,0,1-2.74.57,14.12,14.12,0,0,1-2.76-.16A12.64,12.64,0,0,1,439.67,528.06Z" opacity="0.2"/><path d="M437.9,521s2-3.49,3.68-4.37c0,0,7.87,5,5.35,11.51a13,13,0,0,0-.61,2.19c-.51,2.6-1.18,7.95.66,11,0,0-12.79,2.06-14.78-4.45,0,0,5.52-2.16,7.26-7.07C439.46,529.82,441.17,525.73,437.9,521Z" fill="#fff" opacity="0.2"/><path d="M435.52,509.26s-3.4,2.16-6,1.7c0,0-13.28-4.35-14.3,8.78,0,0,7.52,7.17,4,15.67a15,15,0,0,0,14.6.92s10.48-5.88,3.65-16a3.14,3.14,0,0,1-.5-2.27C437.18,516.76,437.15,514.13,435.52,509.26Z" fill="#d1d3d4"/><path d="M425.85,524.54a9.75,9.75,0,0,0,1.94-.53,8.26,8.26,0,0,0,1.76-.94,5.56,5.56,0,0,0,1.34-1.48,5.22,5.22,0,0,0,.63-1.93v0a17.92,17.92,0,0,1,.26-2.54,14.88,14.88,0,0,1,.62-2.47,9.12,9.12,0,0,1,1.15-2.24,4.43,4.43,0,0,1,1.87-1.5,4.82,4.82,0,0,0-1.67,1.66,8.34,8.34,0,0,0-1,2.22,15.27,15.27,0,0,0-.54,2.41,20.64,20.64,0,0,0-.24,2.47v0h0a5.42,5.42,0,0,1-.74,2.12,5.16,5.16,0,0,1-1.51,1.54,7.27,7.27,0,0,1-1.89.85A7.94,7.94,0,0,1,425.85,524.54Z" opacity="0.2"/><path d="M415.19,519.74a14.66,14.66,0,0,1,.61-3.32,12.57,12.57,0,0,1,1.41-2.83,24.9,24.9,0,0,1,5.7,6.43,21.85,21.85,0,0,1,2.56,17.69s-4-.62-6.25-2.3C419.22,535.41,423.56,528.06,415.19,519.74Z" fill="#fff" opacity="0.2"/><path d="M415.19,537a8.21,8.21,0,0,0-6.64-.35,6,6,0,0,0-2.79,2.8c-.79,1.59-3.16,4.88-8.89,3.93,0,0,6.78-4.91-.65-11.25,0,0-6.54-7.42,1.52-14.36a7.71,7.71,0,0,1,1.9-1.2l.12-.05a14,14,0,0,1,15.62,3.36c3.22,3.39,7.36,9.49,3.61,15.91A3,3,0,0,1,415.19,537Z" fill="#d1d3d4"/><path d="M402.07,539.68a11.29,11.29,0,0,0,2.21-2.42,9.54,9.54,0,0,0,1.36-2.93,9,9,0,0,0,.23-3.19,18,18,0,0,1,0-3.36,14.9,14.9,0,0,1,.71-3.28,9.37,9.37,0,0,1,1.59-3,7,7,0,0,1,2.68-2,8.14,8.14,0,0,1,3.26-.61,7.59,7.59,0,0,0-5.61,2.89,11.92,11.92,0,0,0-2.09,6.05,17.63,17.63,0,0,0-.07,3.25,8.25,8.25,0,0,1-.33,3.35A9.83,9.83,0,0,1,402.07,539.68Z" opacity="0.2"/><path d="M347.6,328.8s9.32-4.46,11.35,14.2c0,0-3.65,27.57,10.14,30.81,0,0-3.65-10.2,2-22.74,0,0,6.48-17.81-4.46-32,0,0-13-21.08-15.41-8.51,0,0-6.86-8-7.17-2.14,0,0-13-10.52-22.28,1.55,0,0-24.23,8.14-19.7,37.18l-.42,1.63s-7.42.18-8.19,18.28c0,0,.46,13.31-7.89,21.51,0,0,16.4-7.49,27.93-6.84a42.39,42.39,0,0,1-3.19-9.71s7.87-1.91,17-31.87a50.59,50.59,0,0,1,2.75-7.14C333.8,325.33,341.88,312.06,347.6,328.8Z" fill="#2f2e41"/><ellipse cx="308" cy="353.68" rx="5.47" ry="9.53" transform="translate(-120.78 163.68) rotate(-25.05)" fill="#f9b499"/></svg>