<svg id="ebb0fbba-9c63-4b1c-8b69-cd62d2075d37" data-name="Layer 1" xmlns="http://www.w3.org/2000/svg" width="865.76" height="682.89" viewBox="0 0 865.76 682.89"><path d="M395.33,476.69s9.05-7.74,14-18a17.72,17.72,0,0,1-1.56,21A24.45,24.45,0,0,1,395.33,476.69Z" fill="#ccc"/><path d="M380.29,466.64l10.79,8.69s3.09,1.49,4.25,1.36a48.15,48.15,0,0,0,13.91-17.46,16,16,0,0,1-.64-8.75l-7-5.28A63.28,63.28,0,0,1,380.29,466.64Z" fill="#f9b499"/><path d="M442.08,503.9l0,0a2.16,2.16,0,0,1,1,2.67c-3.44,8.91-19.59,48.12-36,45,0,0,4.23-1.93,8.17-12.49,0,0-1-5.66,6.72-13.94L425.64,505A21.92,21.92,0,0,1,430,491.36a18.26,18.26,0,0,0,3.64-8.85c.07-.63.13-1.3.16-2,0,0-2.25-7.15,4-15.38l4.33-11.05s.71-4.35,5-1.61c0,0,3.81-3.05,6.87.46,0,0,1.06-2,2.9,1.22,0,0,4.12-2.44,5.18,0,0,0,0,.15.05.42a31.92,31.92,0,0,1-1.4,12.69c-2.23,7-7.29,21.18-12.86,26a9.17,9.17,0,0,0-2.47,3.22Z" fill="#f48225" data-secondary="true"/><path d="M566.6,669.2s10.14,2.95,12.19.64c0,0,7.79.93,5.87-3.05a15.06,15.06,0,0,1-4.71.1Z" fill="#ccc"/><path d="M618,586.81s3.88,9,6.79,10.59c0,0-7.87,8.2-17.09,9.87,0,0-8.48,1.9-13.16-.38l-2.9-6.17S599.41,599.76,618,586.81Z" fill="#f9b499"/><path d="M594.49,606.89s-1.5-.1,0,2.28l5.82,3.42,5.44,2.4a17.93,17.93,0,0,0,12-1.78,10.74,10.74,0,0,0,4.54-4.06l3.75-8.71s1.32-3.8-1.26-3C624.74,597.4,610,611.92,594.49,606.89Z" fill="#ccc"/><path d="M588.93,600.77a16.72,16.72,0,0,0,1.51,5.62s2.4,6.07-.63,10.12c0,0-11.77,11.64-14.18,16.83,0,0-5.57,5.19-6.2,6.84a45,45,0,0,0-10.33,5.34,16.37,16.37,0,0,0-5.36,20h0s9.62,2.91,20.75-3.92c0,0,6.2-5.07,13.54-4.56,0,0,7.6-.51,14.31-7.85,0,0,6.83-8.73,13.66-8.22,0,0,6.33.12,9.88-1.65,0,0,11.13-10,14.93-11.28,0,0,6.28-3.51,6.83-7.07l-2.12-.71a1.16,1.16,0,0,1-.79-1.25l0-.17a2.64,2.64,0,0,0-1.35-2.65l-1-.55a7.39,7.39,0,0,1-3.08-3.18,28.72,28.72,0,0,0-2.16-3.77,2.61,2.61,0,0,0-2.28-1.64s-.76-3.67-2.91-4c0,0-.13-3.42-2.66-3.92,0,0,1.65-4.31-2.27-3.17,0,0-2.51-.92-3.27.73a2.05,2.05,0,0,0,1,.79,1.27,1.27,0,0,1,1,.08c.32.21.55.7.45,1.74a7.35,7.35,0,0,1-.53,1.94c-1.07,2.55-4.86,11.07-8.19,11.93a19,19,0,0,1-3.56,1.38,16.88,16.88,0,0,1-11.39-.88l-1.16-.52a15.44,15.44,0,0,1-2.09-1.1c-1.09-.67-2.84-1.74-4-2.38a2.62,2.62,0,0,1-1.33-1.75c-.11-.5,0-1,.52-1l-2.9-6.17S590.32,600.77,588.93,600.77Z" fill="#686175" data-primary="true"/><path d="M377.8,259.55a69.11,69.11,0,0,0,5.11,9.88,18.85,18.85,0,0,1,2.78,6.5c.74,3.29,1.93,7.46,3.27,7.62a61.61,61.61,0,0,1,19.67-7.25s21.2-4.74,22.17-4.74a16.51,16.51,0,0,0,5.3-1.67s8.65-4.05,17.43-4.19a12.36,12.36,0,0,0,0-1.92,49.6,49.6,0,0,1,.24-7.61,40.4,40.4,0,0,0,.14-7.76s-5.72,4.6-22.17,8a167.5,167.5,0,0,1-27.4,2.69S390.9,261.5,377.8,259.55Z" fill="#f9b499"/><path d="M370.57,125.65l2.2,1.36a5.42,5.42,0,0,1,2.46,3.44,15.28,15.28,0,0,0,1.86,5s-.2,2.57.84,3.5c0,0-7.43,8.36-7.77,11.37,0,0-4.72,16.36-4.84,17.41,0,0-5.73,23.21,3.56,25.77,0,0,10.35,4.52,24.51-15.21a129,129,0,0,0,12.37-24.54l4.67-11.9s7.08-12.18,7.43-14.27a4,4,0,0,1,1.11-1.93l4.11-5a6.21,6.21,0,0,0-2.44-.69,13.84,13.84,0,0,1-6.85-1.34s-11.31.44-13.11-14.33c0,0-3.16-17.09-11.26-21.59,0,0,.35,11.38-7.31,14.07C382.11,96.71,382.2,117,370.57,125.65Z" fill="#f9b499"/><path d="M373.64,140.79A37.69,37.69,0,0,0,344.33,161s-6.44,7.66-9.92,21.76c0,0-4,9.57-9.23,15.67,0,0-14.1,18.8-15.32,22.8,0,0-3.83,6.27-5.05,6.62,0,0-8.12-5.51-22.05-18.28a58,58,0,0,1-9.51-10.1s-4.76-5.8-8.94-12.18c0,0-5.69-8.48-8-12.65a5.7,5.7,0,0,1-.69-5.34s1.27-1.4-.24-7l-1.74-11.83-.81-2.21s-1.09-10.91-.52-15.31a1.33,1.33,0,0,0-.88-1.44c-1.22-.4-3.22-.54-4.52,2.13a11.32,11.32,0,0,0-1.39,8.35s.58,8.48-1.28,7.66c0,0-2.67-2.32-3.94-3.36a47.27,47.27,0,0,0-5-5.69l-5.34-7s-9.29-13.23-13.93-12.42a2.13,2.13,0,0,0-1.86,2.32s-2.9-5.57-6-3c0,0-2.44,2.09,1.39,7l-.58.58s-2.9-2.09-3.95,1c0,0-1,2,1.75,5.11l4.29,7.54s-4.41-2.9-4.64,1c0,0-.58,1.62,3.48,7.54l6.73,10.68s1.74,6.26,5.11,8.47c0,0,5.8,8.24,13.11,12.53,0,0,3.25,2.21,6.62,7.9,0,0,2.2,1.85,5,7.42l8.93,14.86s13.93,22.4,20.2,27.5c0,0,13.46,17,16.36,19.39,0,0,3.95,4.29,4.53,5.57a6.38,6.38,0,0,0,8.12,1.39s5.23-2,7-3.83c0,0,4.06-3.13,5.22-4.76l10-10.1s18-17.29,24.37-26.69c0,0-1.86-10.33,2.9-25.53,0,0-4.06-5.34-.35-16.13,0,0,3.6-12.19,8-18.46a3.32,3.32,0,0,0,.87-.91,3.43,3.43,0,0,0,.53-1.76s1.27-4.06,3.13-5.57a21.91,21.91,0,0,1,1.7-4.5A22.43,22.43,0,0,1,373.64,140.79Z" fill="#f9b499"/><path d="M389,283.55s-1.85.64-.15,2.48c0,0,1.84,3.68,2.26,12,0,0,.85,8.49,4,13.15l3.11,8.91s3.12-7.35,20.51-14.7c0,0,17.4-9.63,34.36-12.08a28.52,28.52,0,0,1,15.51,2.07c3.38,1.48,7.21,3.13,8.53,3.64l3.11-4.38s-3.94-3.11-7.31-5.63a10.17,10.17,0,0,1-3.53-4.86,31.12,31.12,0,0,0-8.9-13.72,2.17,2.17,0,0,0-3,.18l-.56.59a1.06,1.06,0,0,1-1.71-.23,7.35,7.35,0,0,1-.48-1.23,6.66,6.66,0,0,1-.19-1.83,4.16,4.16,0,0,0-1-2.23,50.45,50.45,0,0,0-19.89,5.2l-6.93,1.56S399.58,276.27,389,283.55Z" fill="#f48225" data-secondary="true"/><path d="M477.05,299l3.11-4.38,8.14,9.65s20.2,22.46,16.37,48.4a4.68,4.68,0,0,1-.53,3.83,3.16,3.16,0,0,1-.52,4.18s.87,4.87-.35,6.79c0,0,1.92,3.48.18,5,0,0,2.26,1.92.52,3.49,0,0,2.09.34,1.39,3.3a3.47,3.47,0,0,1,1.74,3.14s15.44,26.4,18.69,33.83l11.84,26s13.92,20,15.78,25.53c0,0,3,5.34,6.73,8.35l12.07,13.7s19,20.89,25.07,41.78c0,0,7.43,26.93,12.07,33.66,0,0,1.16,3.71,1.63,5.1,0,0,2.32,3.25,2.32,5.34,0,0,1.85,2.67,1.85,4.18,0,0,1.63,1.74,1.63,3.25l1.69,2.44a.72.72,0,0,1-.17,1c-3.09,2.23-18,12.75-26.71,14.09,0,0-3.71,1.4-3.83-1.74a2.35,2.35,0,0,1-.11-3s1.16-1.16-.58-2c0,0-1.51.24-.93-2.09a1.57,1.57,0,0,0-1.16-1.85s-1.05.11-.81-2.44c0,0-2.44-2.32-2-3.25,0,0-27.39-42.59-31.91-50.08,0,0-10.45-15.49-16.89-27a24.3,24.3,0,0,0-8.88-7.49,100.62,100.62,0,0,1-16.36-15.67S493.35,463.25,485,458c0,0-39.69-39.52-48.91-66.33Z" fill="#f48225" data-secondary="true"/><path d="M477.05,299l3.11-4.38,8.14,9.65s20.2,22.46,16.37,48.4a4.68,4.68,0,0,1-.53,3.83,3.16,3.16,0,0,1-.52,4.18s.87,4.87-.35,6.79c0,0,1.92,3.48.18,5,0,0,2.26,1.92.52,3.49,0,0,2.09.34,1.39,3.3a3.47,3.47,0,0,1,1.74,3.14s15.44,26.4,18.69,33.83l11.84,26s13.92,20,15.78,25.53c0,0,3,5.34,6.73,8.35l12.07,13.7s19,20.89,25.07,41.78c0,0,7.43,26.93,12.07,33.66,0,0,1.16,3.71,1.63,5.1,0,0,2.32,3.25,2.32,5.34,0,0,1.85,2.67,1.85,4.18,0,0,1.63,1.74,1.63,3.25l1.69,2.44a.72.72,0,0,1-.17,1c-3.09,2.23-18,12.75-26.71,14.09,0,0-3.71,1.4-3.83-1.74a2.35,2.35,0,0,1-.11-3s1.16-1.16-.58-2c0,0-1.51.24-.93-2.09a1.57,1.57,0,0,0-1.16-1.85s-1.05.11-.81-2.44c0,0-2.44-2.32-2-3.25,0,0-27.39-42.59-31.91-50.08,0,0-10.45-15.49-16.89-27a24.3,24.3,0,0,0-8.88-7.49,100.62,100.62,0,0,1-16.36-15.67S493.35,463.25,485,458c0,0-39.69-39.52-48.91-66.33Z" opacity="0.3"/><path d="M553.74,665.49s2,4.61,12.86,3.71L580,666.89s7.18,1.67,14.62-5.52c0,0,5.21-5.32,11.33-3a3.48,3.48,0,0,0,2.56,0,9.05,9.05,0,0,0,2.54-1.62s7.06-3.46,11.16-3.85c0,0,6.8-5.13,10.14-6l7.57-1.67s3.21.26,8.09-5.9c0,0,3.2-3.46,5.77-3.72,0,0,4.91-1.54,5.23-5a3.27,3.27,0,0,0-.56-2.07c-1-1.55-3.31-4.91-4.8-4.51,0,0-2.42-6.56-6-3.09,0,0-.37,3-7,6.83a42.34,42.34,0,0,0-14.92,11.16s-1.42,1.91-10.14,1.91c0,0-4.7-1.22-12.27,6.86,0,0-6.28,8-15.71,9.31a15.7,15.7,0,0,0-13.15,4.56S564.61,667.94,553.74,665.49Z" fill="#f48225" data-secondary="true"/><path d="M390.71,475.54c-.93.59-3.14,2.23-.82,3.51a1,1,0,0,1,.46.6,7.17,7.17,0,0,0,4.37,4.67,1,1,0,0,1,.63.9c0,2.53.07,11.07,2.88,13.9a1,1,0,0,1,.32.73c-.07,2.74-.35,17.63,2.19,24.83a1,1,0,0,1,0,.41c-.29,2.58-3,27.56,6.08,26.57a1.17,1.17,0,0,0,.4-.13c1-.57,5.5-3.55,7.93-12.25a1.15,1.15,0,0,0,0-.26c0-.89.26-6.51,6.56-13.62a1,1,0,0,0,.22-.46l3.62-19.81a.74.74,0,0,0,0-.21A23,23,0,0,1,432,489.08a1.33,1.33,0,0,0,.14-.19,18.83,18.83,0,0,0,1.7-8.38s-2.07-7.63,3.94-15.29a1.18,1.18,0,0,0,.11-.19c.32-.72,2.39-5.32,3.54-8.47a1,1,0,0,0-1.51-1.08l-.05,0a1,1,0,0,1-1.44-.19c-.76-1.22-2.51-2.61-6.32-.78a1,1,0,0,1-.71.06c-1.21-.37-5.28-1.52-8.24-1.2a.78.78,0,0,1-.4,0,13.92,13.92,0,0,0-4.21-.75,1,1,0,0,1-.68-.25,7.12,7.12,0,0,0-5.39-1.73.91.91,0,0,1-.84-.37c-.4-.55-1.28-1.26-2.81,0a.93.93,0,0,0-.29.46,11.52,11.52,0,0,0,.69,8.41.57.57,0,0,0,.08.13c.56.76,6.31,9.14-1.35,19.88a1,1,0,0,1-1,.37l-15.43-4.11A1,1,0,0,0,390.71,475.54Z" fill="#686175" data-primary="true"/><path d="M477.05,299s10.85,6.7,16,22.69a50,50,0,0,1-4.64,40.53A32.4,32.4,0,0,1,480,372.1s14.17-11.1,11.1-39C491.09,333.14,490.88,320.68,477.05,299Z" opacity="0.16"/><path d="M369.31,124.74l3.46,2.27s16.53-10.94,8.76-32.3C381.53,94.71,374.54,123.61,369.31,124.74Z" fill="#f9a991"/><ellipse cx="354.33" cy="89.05" rx="27.1" ry="40.99" transform="translate(-10.95 82.02) rotate(-13.01)" fill="#f9b499"/><path d="M379.66,29.66l-2.88-1.37c-2,.76-5.25-1.66-5.25-1.66a3.6,3.6,0,0,1-2-.68c-1.44,1-5,2-7.31,2.65a16.57,16.57,0,0,1-3.05.57c-12.12.93-21.78,13.74-21.78,13.74-12.13,11.42-6,17.84-6,17.84s6.26,8,16.36,5.06c0,0,4.17,6.85,11.25,8.13,0,0,.7,14.16,15,14.5,0,0,10.32-10.32,15.43-5.8,0,0,4.78,1.56,9.87,17a48.21,48.21,0,0,1,1.64,6.73c.7,3.92,3.29,11.81,12.86,12.16a9.92,9.92,0,0,0,1.25.55,9.71,9.71,0,0,0,1.54.44Q403,76.4,389.42,33.26c-1.57-2.26-9.76-3.6-9.76-3.6h0" fill="#f48225" data-secondary="true"/><path d="M429.11,120.13a9,9,0,0,1,4.65,1.74,52.33,52.33,0,0,1,10.79,4.18s-3.14-10.68-8.47-17.41c0,0-9-11.75-9.47-18a19.79,19.79,0,0,0-.35-2.77c-.8-3.78-3-12.75-6.21-17.36a4.47,4.47,0,0,1-.84-2.51,39.74,39.74,0,0,0-2.83-14.37,8.25,8.25,0,0,1-.47-1.43c-.82-3.58-5.18-20.26-16.82-28.49a3.28,3.28,0,0,1-.94-1c-1.49-2.47-8-12-18.65-10,0,0-6.79,1-7.49,9.22a13.37,13.37,0,0,0,4.93,2,5.43,5.43,0,0,1,2,1h.64s1.16-2.78,3.36-1.33c0,0,2.67,2.73,5.63,11.6,0,0,6.06,25.7,10.68,37.24.93,2.3,1.73,4.65,2.43,7,3.06,10.41,11.47,36.8,14.92,40.12a10.25,10.25,0,0,0,4.06.35,6.45,6.45,0,0,1,2.73,1.07,2,2,0,0,0,1.8.14C426.25,120.52,427.92,119.57,429.11,120.13Z" fill="#f48225" data-secondary="true"/><path d="M429.11,120.13a9,9,0,0,1,4.65,1.74,52.33,52.33,0,0,1,10.79,4.18s-3.14-10.68-8.47-17.41c0,0-9-11.75-9.47-18a19.79,19.79,0,0,0-.35-2.77c-.8-3.78-3-12.75-6.21-17.36a4.47,4.47,0,0,1-.84-2.51,39.74,39.74,0,0,0-2.83-14.37,8.25,8.25,0,0,1-.47-1.43c-.82-3.58-5.18-20.26-16.82-28.49a3.28,3.28,0,0,1-.94-1c-1.49-2.47-8-12-18.65-10,0,0-6.79,1-7.49,9.22a13.37,13.37,0,0,0,4.93,2,5.43,5.43,0,0,1,2,1h.64s1.16-2.78,3.36-1.33c0,0,2.67,2.73,5.63,11.6,0,0,6.06,25.7,10.68,37.24.93,2.3,1.73,4.65,2.43,7,3.06,10.41,11.47,36.8,14.92,40.12a10.25,10.25,0,0,0,4.06.35,6.45,6.45,0,0,1,2.73,1.07,2,2,0,0,0,1.8.14C426.25,120.52,427.92,119.57,429.11,120.13Z" opacity="0.2"/><ellipse cx="381.46" cy="83.46" rx="7.97" ry="13.44" fill="#f9b499"/><path d="M433.76,121.87a43.65,43.65,0,0,1,14,4.94,27.72,27.72,0,0,0,9.39,3c3.41.46,8.9,2,16.86,6.66,0,0,19.5,9.4,33.77,17.76,0,0,34.82,17.41,42.13,22.63a9.56,9.56,0,0,1,8.7,8l19.15,31.68s17,30.28,19.39,39.57l3,6.41s4,8,6.57,14.58c0,0,3.68,5.28,3.68,8.17a57.32,57.32,0,0,1,1.44,8.81,41.4,41.4,0,0,1-.16,10.09l-.32,5.28a19.72,19.72,0,0,1,.14,5s.34,9.4-1.31,9.92c0,0-4.09,1.57-4-3.13a64.91,64.91,0,0,0-.18-6.71,30.68,30.68,0,0,1-1,4.79s-.52,13.06-3.3,12.88c0,0-3.31,1.14-3.83-1.74,0,0,.69,7.14-4.27,5.75,0,0-2.17-.18-2.09-4.35,0,0-5.48,2.43-6-3.31a21.56,21.56,0,0,1-.61-7.14s-1.13-7.66-.61-11.84c0,0-3.66,6.36-6.62,4.09,0,0-1.22-1.65-.61-5.22,0,0,1.14-5.92.44-9.23,0,0-1.48-4.44.87-8.09,0,0,3.13-7.75,4.53-9.58a11,11,0,0,0,.43-5.31,84.82,84.82,0,0,0-6.18-13s-9.81-18.69-14.1-23.68L559,233.46s-19-25.59-20.19-29.6c0,0-3.14-6.79-7-7,0,0-22.8-6.61-39.86-14.27,0,0-18.28-7-24-8.19,0,0-4.12,12.89-4,15.09,0,0-.9,10.51-1.84,12.28,0,0-1.53,6.75-21,7,0,0-11.58.53-22.49-22.21,0,0-3.86-6.81-2.7-12.84,0,0,1.16-16.25,3.25-23.21l3.49-12.94s.19-3.33,1.48-4.6l2.89-5.14S430.74,121.17,433.76,121.87Z" fill="#f9b499"/><path d="M424.12,112.12s2,7,2.9,7.78a7,7,0,0,1,2.09.23,1.65,1.65,0,0,1,1,.11S426.1,113.86,424.12,112.12Z" fill="#f48225" data-secondary="true"/><path d="M426.1,103.24s2.72,14.74,7.66,18.63a10.62,10.62,0,0,1,3,.23,67.43,67.43,0,0,0-4.84-8.49c-.53-.76-1-1.55-1.47-2.35C429.2,109.06,426.92,105,426.1,103.24Z" fill="#f48225" data-secondary="true"/><path d="M433.76,121.87s-2.36-.9-5.47,4.24L424.1,133s-1.62,3-1.48,4.6l-4.33,16.08s-4.05,22.44-1.49,28.26c0,0,7.25,18.8,18.88,25.11a15.26,15.26,0,0,0,7.79,1.77c5.2-.18,15.88-1.25,18.62-7,0,0,1.35,8.92-1.63,16.89a15.56,15.56,0,0,1-2.83,9.33s-1.36,1.76-1.9,7c0,0-1.48,9.46-1.08,11.08,0,0,.54,2-2.3,3.38,0,0-15.68,9.06-46.9,10.28,0,0-17,2.16-28.79,0l-.21-1.36A39.73,39.73,0,0,1,372.71,247l-1.83-5.22s-17.44,2.58-19.87-21.68c0,0-1.4-10.67,3-24.83,0,0-4.17-5.46,0-17.41,0,0,3-10.56,7.66-17.18l1.4-2.67s1.62-4.76,3.13-5.57c0,0,1.51-7.54,7.43-11.6,0,0,.81-1.74,2-2.09l.7-1s-1.12-2.18.78-2.28a5.37,5.37,0,0,0,.84,3.5s-2.78,3.11-5.11,6.33a18.57,18.57,0,0,0-2.86,5.86c-.2.67-.41,1.43-.62,2.2,0,0-5.34,20.78-5.34,24.49,0,0-2,13.93,4.88,15.67,0,0,10,4.29,25.42-18.57,0,0,8-11.26,10.79-20.2l5.34-12.88s5.92-9.86,7.43-14.27c0,0-.35-1.28,1.5-2.67l3.72-4.3s.74,1.49,3.54-.41a1.7,1.7,0,0,1,1-.28C429,120,432.21,120.24,433.76,121.87Z" fill="#686175" data-primary="true"/><path d="M398.14,320.11c-1.7,3-.48,3.12-.48,3.12l-16.13,4.41-3,.46-29.36,5.34s-31.45,7.08-53.39,15.44c0,0-20.37,4.18-21.93,20.19,0,0-8.36,19.15,13.23,35.17l12.18,8.7s15.67,13.23,28.55,20.89c0,0,16.89,11.84,26.47,16.19,0,0,14.89,8.34,18.92,12.21a31.09,31.09,0,0,0,2.5,2.23c1.31,1,3,2.37,3.82,3,0,0,14.8-5.57,22.46-23l-3-2.78s.17-1.74-2.09-1.57l-24.38-24.89s-11.31-16.72-25.24-24.55c0,0,44.57,7.66,78,2.09,0,0,63-2.09,65.81-46,0,0,5.34-19.25-14-47.75l-14.42-6.22s-13.88-4.25-44,12.59C418.65,305.41,403,311.54,398.14,320.11Z" fill="#f48225" data-secondary="true"/><path d="M305.62,387.59s37.88,1.4,66.91,27.62c0,0-10.07-15.34-25.24-24.55C347.29,390.66,322.08,384.24,305.62,387.59Z" opacity="0.16"/><path d="M369.21,26.47a36.39,36.39,0,0,0,10.93,3.27s3.23-3.32,1-6.5c0,0-9.5-8.71-12.65,1.59A1.39,1.39,0,0,0,369.21,26.47Z" fill="#686175" data-primary="true"/></svg>