<svg id="af042fb3-fe84-43c3-a0b5-47a52ffd7136" data-name="Layer 1" xmlns="http://www.w3.org/2000/svg" width="865.76" height="682.89" viewBox="0 0 865.76 682.89"><polyline points="387.14 208.95 472.19 208.95 488.93 196.38 468.85 172.34 442.07 190.94" fill="#f48225" data-secondary="true"/><rect x="126.9" y="208.95" width="520.47" height="383.5" fill="#ccc"/><rect x="126.9" y="208.95" width="520.47" height="38.05" fill="#2f2e41"/><rect x="126.9" y="208.95" width="520.47" height="38.05" fill="#808285"/><path d="M299.41,209s1.06-18.86-5.49-53.57l2.78-23.84,85.55-9.21S393.7,173,387.14,209Z" fill="#f48225" data-secondary="true"/><path d="M710,537.84l13,2.37,3.61,18.19a.31.31,0,0,0,.62,0l.23-40.24-15.11-4.41Z" fill="#f9b499"/><rect x="153.34" y="259.55" width="467.6" height="182.4" opacity="0.06"/><rect x="153.34" y="473.53" width="467.6" height="77.19" opacity="0.06"/><circle cx="148.5" cy="227.98" r="4.29" fill="#ccc"/><circle cx="165.96" cy="227.98" r="4.29" fill="#ccc"/><circle cx="184.26" cy="227.98" r="4.29" fill="#ccc"/><rect x="402.74" y="279.63" width="78.23" height="78.23" opacity="0.1"/><g opacity="0.1"><rect x="369.27" y="392.06" width="78.65" height="4.39"/></g><g opacity="0.1"><rect x="369.27" y="406.08" width="78.65" height="4.39"/></g><g opacity="0.1"><rect x="369.27" y="418.63" width="78.65" height="4.39"/></g><g opacity="0.1"><rect x="342.5" y="496.64" width="78.65" height="4.39"/></g><g opacity="0.1"><rect x="342.5" y="510.66" width="78.65" height="4.39"/></g><g opacity="0.1"><rect x="342.5" y="523.21" width="78.65" height="4.39"/></g><g opacity="0.1"><rect x="469.67" y="497.38" width="78.65" height="4.39"/></g><g opacity="0.1"><rect x="469.67" y="511.39" width="78.65" height="4.39"/></g><g opacity="0.1"><rect x="469.67" y="523.94" width="78.65" height="4.39"/></g><ellipse cx="616.35" cy="219.47" rx="20.99" ry="29" fill="#f9b499"/><path d="M531.6,311.32l-20.24-20.23a13.79,13.79,0,0,1-3.89-11.68l2-14.07a.89.89,0,0,1,1.7-.2L519.05,285l5-3.45L518.24,270a3.66,3.66,0,0,1,1.79-4.32h0a3.67,3.67,0,0,1,5,1.55l15.49,32.53Z" fill="#f9b499"/><path d="M582.12,285.28,574,277.12s-11.27-9.82-13-19.2a2,2,0,0,1,.63-1.89h0a2,2,0,0,1,2.95.4l6.92,10.65s2.26-12.47-12.86-20.17a2.43,2.43,0,0,1-1-3.51h0a2.41,2.41,0,0,1,2.66-1c5.12,1.41,20.13,6.72,24,21.23l11.06,14.43Z" fill="#f9b499"/><path d="M706.05,557l10.67-44.88L650.83,477.3v-69l-61.19-2.21s-24.91,100.72,9,106.06Z" fill="#2f2e41"/><path d="M617.83,617.84v13.21l-24,2.87c-.35.13,1.31,6,1.69,6l44.16-1.79,2.3-22.27Z" fill="#f9b499"/><path d="M213.39,312l-50.5,345.45a4.44,4.44,0,0,0,3.47,5h0a4.45,4.45,0,0,0,5.31-3.69L223.4,313.44a5.05,5.05,0,0,0-3.17-5.46h0A5.06,5.06,0,0,0,213.39,312Z" fill="#808285"/><path d="M327.85,312l-50.5,345.45a4.44,4.44,0,0,0,3.47,5h0a4.45,4.45,0,0,0,5.31-3.69l51.73-345.27a5.05,5.05,0,0,0-3.17-5.46h0A5.06,5.06,0,0,0,327.85,312Z" fill="#808285"/><path d="M291.42,592.45H185.52a5.28,5.28,0,0,1-5.28-5.27h0a5.28,5.28,0,0,1,5.28-5.27H293Z" fill="#808285"/><path d="M299.37,541l-107.56,1.41a5.28,5.28,0,0,1-5.29-5.27h0a5.28,5.28,0,0,1,5.29-5.27l109.1-1.41Z" fill="#808285"/><path d="M303.83,490.33H199.9a5.28,5.28,0,0,1-5.29-5.27h0a5.28,5.28,0,0,1,5.29-5.27H305.38Z" fill="#808285"/><path d="M311.16,439.63H207.28a5.27,5.27,0,0,1-5.28-5.27h0a5.27,5.27,0,0,1,5.28-5.27H312.7Z" fill="#808285"/><path d="M319.18,387.24H214.81a5.27,5.27,0,0,1-5.28-5.28h0a5.27,5.27,0,0,1,5.28-5.27H320.72Z" fill="#808285"/><path d="M324.21,336.3H221.09A5.28,5.28,0,0,1,215.8,331h0a5.28,5.28,0,0,1,5.29-5.27H325.75Z" fill="#808285"/><path d="M257.37,278.81l20.2,26.7a11.85,11.85,0,0,0,16.18,2.61l230-158.77a13.77,13.77,0,0,0,3.45-19.27l-16.55-23.57a13.79,13.79,0,0,0-19.08-3.44L260.12,261.88A11.86,11.86,0,0,0,257.37,278.81Z" fill="#d1d3d4"/><circle cx="293.92" cy="274.27" r="15.15" fill="#fff"/><rect x="291.25" y="190.84" width="207.54" height="4.39" transform="translate(-40.31 254.61) rotate(-34.09)" fill="#fff"/><rect x="305.89" y="207.79" width="200.86" height="4.39" transform="translate(-47.29 268.52) rotate(-34.68)" fill="#fff"/><path d="M302.34,223.69l3.4-1.7a24.58,24.58,0,0,1,16.9-1.86l15.14,3.78a13.14,13.14,0,0,0,16.31-12.75h0a13.08,13.08,0,0,0-8.61-12.34c-8.41-3-25.32-3-42.31,6.61Z" fill="#f9b499"/><path d="M484,190.47s23.47-8,21.64-30a8.13,8.13,0,0,0-11.75-6.63h0a8.12,8.12,0,0,0-4.43,8l1,10.5-13.69,9.46Z" fill="#f9b499"/><path d="M350.66,86.77l1.47,20.92-3.77,14.64-22.45-13.6-5.57-.28s5.08-15.7,3.76-24.75h12.13Z" fill="#f9b499"/><polygon points="573.96 289.67 594.04 271.79 610.98 283.4 589.02 307.56 573.96 289.67" fill="#686175" data-primary="true"/><polygon points="610.98 244.81 628.36 241.36 630.44 259.55 615.5 266.77 610.98 244.81" fill="#f9b499"/><polygon points="603.76 265.2 610.98 283.4 649.58 266.45 642.99 247 603.76 265.2" fill="#686175" data-primary="true"/><polygon points="603.76 265.2 610.98 283.4 649.58 266.45 642.99 247 603.76 265.2" opacity="0.2"/><polygon points="573.96 289.67 594.04 271.79 610.98 283.4 589.02 307.56 573.96 289.67" opacity="0.2"/><path d="M645.5,262.06c5.39-.42,8.87,7.73,12.1,13.49a71.81,71.81,0,0,1,8.92,35.14v90.05a7.53,7.53,0,0,1-7.53,7.53H595a7.53,7.53,0,0,1-7.35-9.17l9.24-41.24s-11,4.92-20.08-2.92l-49.89-42.05L545.4,288.1l36.4,21.34S609.41,264.89,645.5,262.06Z" fill="#686175" data-primary="true"/><path d="M614.75,205.9l-21-1.88S605,178,622.9,185.5c0,0,33.89-6.9,36.09,19.14,0,0-6.59,38.6,7.53,42.36,0,0-13.18,9.41-55.54,4.71,0,0,14.26-11.3,10-30.12,0,0-4.31-22.91,2.59-28.87C623.53,192.72,617.88,192.41,614.75,205.9Z" fill="#2f2e41"/><polygon points="602.2 619.13 594.66 408.27 658.68 408.27 647.06 615.36 602.2 619.13" fill="#2f2e41"/><polygon points="602.2 619.13 594.66 408.27 658.68 408.27 647.06 615.36 602.2 619.13" opacity="0.2"/><path d="M305.69,152.87c-46.44,45.18.42,50.62.42,50.62l-1.66,36.43S246.7,242.4,244.19,201c0,0-14.17-37.64,54.66-89.44a17.85,17.85,0,0,1,7.66-3.33l13.3-2.33a14.42,14.42,0,0,1,11.45,2.9l17.1,13.55,3.77-14.64A11.28,11.28,0,0,1,363,104.76s37.91,15.09,54.21,49.35L388.94,173.5,383.5,153" fill="#f48225" data-secondary="true"/><path d="M640.37,631.47v12.21a3.26,3.26,0,0,1-3.26,3.27H580.56a4.62,4.62,0,0,1-4.62-4.62h0a7.61,7.61,0,0,1,.12-1.09A12.15,12.15,0,0,1,588,631.32l29.86-.27S629.11,638.06,640.37,631.47Z" fill="#686175" data-primary="true"/><path d="M723.81,517.08,736,518.42a3.26,3.26,0,0,1,2.89,3.61l-6.23,56.2a4.63,4.63,0,0,1-5.1,4.08h0a7.21,7.21,0,0,1-1.07-.24,12.15,12.15,0,0,1-8.55-12.93l3-29.71S729.13,529,723.81,517.08Z" fill="#686175" data-primary="true"/><path d="M350.23,88.41l1,6.61s-15.15,8-23-7C328.22,88,343.27,94,350.23,88.41Z" fill="#f7a48b"/><ellipse cx="341.57" cy="62.19" rx="24.38" ry="30.85" fill="#f9b499"/><path d="M337.81,21.88s-33.2-7.24-31.5,33.63c0,0,3.5,47.27-18.31,61.2a2.75,2.75,0,0,0-.66,4h0l13.32-10.34s1.73-1.41,5.85-2.14l16.36-2.87S327,96,322.42,72.76l.21-16.53s10.25-9.62,10-20.29c0,0,13.6,12.55,31.59,11.51a21.12,21.12,0,0,0-6.9-21.34s16.31,4.6,9.62,29.7v6.07s12.55-21.54-3.35-36.19C363.63,25.69,353.41,17,337.81,21.88Z" fill="#2f2e41"/><ellipse cx="320.34" cy="64.92" rx="6.59" ry="8.05" fill="#f9b499"/></svg>