<svg id="bb5925c1-6198-4ad2-9f98-48d114184dce" data-name="Layer 1" xmlns="http://www.w3.org/2000/svg" xmlns:xlink="http://www.w3.org/1999/xlink" width="865.76" height="682.89" viewBox="0 0 865.76 682.89"><defs><clipPath id="fd9460f7-35b2-4300-b110-50728eb1ee81"><path id="e7c49991-ec04-442c-bf85-cd8847c3d00b" data-name="SVGID" d="M1624,121.6c-57.8-52.09-148.14-79.82-233.61-86.64-25-2-50.21-2.79-75.37-2.53-248.15,2.1-320.82,86.95-304.92,127.81s60.64,66-3.91,122.56S868.84,424.18,905.81,509s190.07,150.85,411.83,140.37,365.62-11.52,411.82-90-54.77-132.46-69-199.8c-8.79-41.75,13.79-83.84,15.43-125.46C1677.68,189.07,1657.22,151.55,1624,121.6Z" fill="none"/></clipPath></defs><path d="M43.53,506.39s-105.77,81.42,115,104.16c0,0,278.77,32.21,589.48-13.06C792.43,591,825.9,553,825.89,508.08q0-1.43,0-2.88l-73.45-23.07Z" fill="#97e9ff"/><path d="M767.05,499a350.13,350.13,0,0,0,11.22-88.17c0-193-156.5-349.55-349.55-349.55S79.18,217.73,79.18,410.78A349.67,349.67,0,0,0,90.4,499Z" fill="#a9fdff"/><path d="M793.05,297.23v180.3H64.39V331.61l45.51,1.21-.08,51.35h4.49l.35-4.87s4.15-.42,4.57-.42,18,2.78,18,2.78l.52-55.9,12.78.42L158,329.1l.78,56.32,3,.69,13.21.7.09-31-2.85-1.39.09-18.77,4.49-2.23.34-7.23,2.93-1.11V300.6s-1.38-.42,7.09-.42,24.09,5.42,24.09,5.42l.26,26,.09,4.44,12.86.84V294.76a75.16,75.16,0,0,1,11.4-2.51c4.49-.41,5.53-.13,5.53-.13l3.11,2.08.78,109.71,3.8,1.11-.43-98.58,5-.7.26-2.5,11.4-.28,2.24,2.36.78-4.86,13-1.32,8.5,4.72.74,3.83.13,21.83.86.34.13-1.52,1.38-.42.26-11.05,6.78-2.09,8.55,1.25,0,13.07,4.45,10.5,5.78-.28.61-5,19.26-1-.09-35.46s4.41-3.47,5.57-3.82a9.63,9.63,0,0,1,1.3-.35l4.53,1.05.43,25.3,9.37.7.82,49.78,5.53.14L366.69,246l6.91-13.21s-.13-40,.08-40.19.7-.06.7-.06l.56,30.45,5.48-.21s0-30.52.18-30.66a2.54,2.54,0,0,1,.77-.21l.91,41.37,6.13,12.24,1,61.45,1.9-15,18.13,12,.87,9.17,2.24.56.35-65.63,16.75-2.5,9.33,5,1.38,120.14,11.74.83.69,15.58,7.6,1.39-.35-38.94h6.57l.26-21.27,7.17-6.26H500.5v-10h9.16l1.2,35,4.84.28V327.5l20.12-.55-.09,10.29,7.09-.84V312.21l2.11-2.5.26-4.73.82-.35v-3.82l3.63-6.54,3.62,5.42.61,9.74,5.78-.15L559.48,299l6-8.49,8.29-1.1,10.62.55,4.83,10.29V342.8l5.36.83,3.8,7.23,13.47-2.22.69-64.24,4.66-1,.61-2.5,7.77.14.09,3.75,2.93-.41.18-3.06,6.9-.7.52,2.78,7.69-.27s-.84-72.93-1.26-117.35h41.61c.11,7.61.19,13.27.24,13.4A7.27,7.27,0,0,1,685,181c0,.76.26,130.7.26,130.7l.08,9.46,1.39,60.62h7.94l4.84-5.84,7.42-.83-.34-59.24,8-2.5h21.59l2.24,64.52,14.86.56-2.35-82.07Z" fill="#60ccc9" fill-rule="evenodd"/><path d="M180,218.82H320.18c-.41-6.57-9.6-9.37-19.44-3.33,7.11-9.73-6.74-13.66-13.2-6.3,2.22-17.35-14.14-6.83-20.23-3.59,2.14-18.71-22.58-17.35-25.14-.27-5.13-8.94-23.35-14.34-21.66,1.48-3.57-3.42-8.71-8.4-14-8.18-7,.28-12.19,5.82-7.07,11.33-4.79-4.38-17.66-7.73-21.8-1C175.35,212.7,177.15,216.28,180,218.82Z" fill="#fff"/><path d="M447.06,228.43H629c-.54-8.53-12.46-12.16-25.23-4.32,9.22-12.63-8.76-17.73-17.14-8.18,2.89-22.52-18.35-8.85-26.26-4.66,2.79-24.29-29.31-22.52-32.62-.35-6.66-11.59-30.31-18.61-28.12,1.93-4.63-4.44-11.3-10.91-18.2-10.63-9.07.37-15.82,7.56-9.18,14.72-6.21-5.69-22.92-10.05-28.29-1.26C441,220.49,443.38,225.14,447.06,228.43Z" fill="#fff"/><path d="M404.58,131.72H505.32c-.3-4.73-6.9-6.74-14-2.4,5.11-7-4.85-9.81-9.49-4.52,1.6-12.47-10.16-4.91-14.54-2.59,1.55-13.44-16.22-12.46-18.06-.19-3.69-6.42-16.78-10.3-15.56,1.07-2.57-2.46-6.26-6-10.08-5.89-5,.21-8.76,4.19-5.08,8.15-3.44-3.14-12.69-5.56-15.67-.7C401.24,127.32,402.54,129.89,404.58,131.72Z" fill="#fff"/><path d="M380,288.34H279.27c.29-4.73,6.89-6.73,14-2.39-5.1-7,4.85-9.82,9.49-4.53-1.6-12.47,10.16-4.91,14.54-2.58-1.54-13.45,16.22-12.47,18.06-.19,3.69-6.43,16.78-10.31,15.56,1.06,2.57-2.46,6.26-6,10.09-5.88,5,.2,8.75,4.18,5.07,8.14,3.44-3.14,12.7-5.56,15.67-.69C383.34,283.94,382.05,286.51,380,288.34Z" fill="#fff"/><polygon points="754.75 330.6 758.26 360.74 756.94 363.8 754.75 330.6" fill="#49382c"/><polygon points="770.53 463.91 758.87 463.91 759.42 429.18 736.07 380.3 733.33 349.93 738.82 378.5 761.87 413.49 758.26 372.92 775.07 321.51 761.34 378.5 769.49 427.26 780.56 403.29 771.23 376.94 784.52 397.92 798.14 378.5 800.89 355.52 800.89 378.5 769.61 441.79 770.53 463.91" fill="#49382c"/><path d="M714.52,338.85c-1.36,5.71-2.66,10.84.53,16.43,4.07,7.13,8.23,5.79,14.08,3.46.89,11,16.26,27.62,26.37,14.53,3.81,3.84,13.87,4.28,18.79,2.63,3.94-1.32,13.43-10.18,8-14.11,6.7.12,13.68-2.47,17.11-8.54a9.36,9.36,0,0,0,1.53-5.88c-.5-3.75-4.29-6.06-7.19-9.77,5.06-1.47,10.59-4.21,11.34-10.08.79-6.22-3.53-11.88-10.16-11.48,9.71-9.4-8.91-16.44-15.49-15.73l.93-.77c3.35-1.42,8.78-8.33,7.73-12.32-1.56-6-9.84-4.87-12.82-.86,1.2-3.44-1.89-9-5.3-10.63-4.92-2.32-6.89,1.18-9.4,5-6.56-14.38-25.13-8.47-22.5,6.91-9.14-7.42-18.53,3.21-12.94,12.18a13.33,13.33,0,0,0,1.2,1.63c-13.66-7.37-29.18,10.3-15,19C696.39,322.21,702.41,345.65,714.52,338.85Z" fill="#a2c130"/><path d="M774.73,338.18a11.22,11.22,0,0,1,1-3.5A14.72,14.72,0,0,1,774.73,338.18Z" fill="#778c1e"/><path d="M714.52,338.85c-1.36,5.71-2.66,10.84.53,16.43,4.07,7.13,8.23,5.79,14.08,3.46.89,11,16.26,27.62,26.37,14.53,3.81,3.84,13.87,4.28,18.79,2.63,3.94-1.32,13.43-10.18,8-14.11,6.7.12,13.68-2.47,17.11-8.54a9.36,9.36,0,0,0,1.53-5.88,15.76,15.76,0,0,1-13.8,5.12c-7.07-.71-13.16-7.33-12.41-14.31-4.3,10-18,2.62-15.72-9-3.84,12.8-19.58,20.14-26.44,5.37-6.14-13.24.56-21.72,8.77-30.77-5.37,1.45-11.26-.37-16.2-3.88a13.33,13.33,0,0,0,1.2,1.63c-13.66-7.37-29.18,10.3-15,19C696.39,322.21,702.41,345.65,714.52,338.85Z" fill="#6d7c19"/><path d="M780.9,372.68c-5.21,4.42-4.14,17-.11,22.27,3.42,4.49,13.24,6.5,14.62,1.09-.89,20.42,31.09,10.75,25.86.69,4,3.57,14.35,2.87,18.26.52a6.44,6.44,0,0,0,3-7.89,7.82,7.82,0,0,0-7.67-5.27c12.37-.61,16-18.18,4.28-18.73h1c3.2-2.36,9.73-6.11,6.69-11.57-2.43-4.33-9.45-3.43-13-1.25,5.31-9.23-4.84-16.35-11.73-7.65-2.09-6-3.29-15.37-12.26-14.14-9.24,1.26-9.41,12-9.33,19.22-2-4.67-4.93-11-9.93-12.45a8.56,8.56,0,0,0-5.25.26c-6.81,2.34-10.52,13.14-6.13,18.84C768.63,344.65,760.55,380,780.9,372.68Z" fill="#a2c130"/><path d="M780.9,372.68c-5.21,4.42-4.14,17-.11,22.27,3.42,4.49,13.24,6.5,14.62,1.09-.89,20.42,31.09,10.75,25.86.69,4,3.57,14.35,2.87,18.26.52a6.44,6.44,0,0,0,3-7.89c-6.22,2.75-14,2.67-15.09-4C827,390,820.93,397,815.8,394.63c-5.71-2.58-3.76-10.37,1-12.61-12.2,1.57-11-15.43-4.32-21.08-11.2,2.38-19.19-2.43-21.46-14a47.53,47.53,0,0,1-.47-9.38,8.56,8.56,0,0,0-5.25.26c-6.81,2.34-10.52,13.14-6.13,18.84C768.63,344.65,760.55,380,780.9,372.68Z" fill="#7b911d"/><path d="M740.2,375.25c-4.08,3.46-3.23,13.29-.08,17.43,2.68,3.52,10.36,5.09,11.44.85-.69,16,24.34,8.42,20.25.55,3.14,2.79,11.23,2.24,14.29.4a5,5,0,0,0,2.31-6.17,6.13,6.13,0,0,0-6-4.13c9.68-.48,12.51-14.23,3.35-14.66h.78c2.51-1.85,7.62-4.78,5.23-9.06-1.89-3.39-7.39-2.68-10.15-1,4.16-7.24-3.78-12.81-9.18-6-1.63-4.68-2.58-12-9.6-11.07-7.23,1-7.36,9.4-7.3,15.05-1.58-3.65-3.86-8.61-7.77-9.74a6.67,6.67,0,0,0-4.11.19c-5.34,1.84-8.24,10.3-4.8,14.75C730.6,353.3,724.27,380.94,740.2,375.25Z" fill="#a2c130"/><path d="M740.2,375.25c-4.08,3.46-3.23,13.29-.08,17.43,2.68,3.52,10.36,5.09,11.44.85-.69,16,24.34,8.42,20.25.55,3.14,2.79,11.23,2.24,14.29.4a5,5,0,0,0,2.31-6.17c-4.87,2.15-11,2.08-11.81-3.15-.29,3.61-5.06,9.09-9.07,7.27-4.48-2-2.95-8.11.79-9.87-9.55,1.23-8.63-12.08-3.39-16.5-8.76,1.86-15-1.9-16.79-11a37.35,37.35,0,0,1-.37-7.34,6.67,6.67,0,0,0-4.11.19c-5.34,1.84-8.24,10.3-4.8,14.75C730.6,353.3,724.27,380.94,740.2,375.25Z" fill="#7b911d"/><path d="M696,393.67c-.38,6.17,8.5,13.33,14.49,14,5.07.58,12.53-4.58,9.86-8.87,12.79,13.36,26.5-13.59,16.65-16.47,4.83-.39,10.85-7.58,11.77-11.61a5.83,5.83,0,0,0-3.31-6.86,7.08,7.08,0,0,0-8.25,1.71c7.34-8.47-1.88-21.83-9.56-14.53l.63-.65c.45-3.57,2.1-10.18-3.38-11.61-4.35-1.13-8.15,4-8.93,7.7-2.72-9.26-13.72-7.09-12.35,2.87-5.22-2.39-12.1-7.47-16.92-.84-5,6.82,2,13.66,6.72,18.13-4.31-1.6-10.28-3.67-14.35-1.31a7.77,7.77,0,0,0-3.12,3.59c-2.73,5.92,2,15.11,8.47,15.81C670,384.13,688,411.52,696,393.67Z" fill="#a2c130"/><path d="M696,393.67c-.38,6.17,8.5,13.33,14.49,14,5.07.58,12.53-4.58,9.86-8.87,12.79,13.36,26.5-13.59,16.65-16.47,4.83-.39,10.85-7.58,11.77-11.61a5.83,5.83,0,0,0-3.31-6.86c-2.1,5.78-7,10.81-12.08,7.33,2.79,3.14,3.54,11.5-1.18,13.4-5.27,2.12-9.13-4-7.61-8.55-6.62,8.95-17-2.46-16.48-10.38-5.45,8.81-13.6,11-22.61,5.24a43.22,43.22,0,0,1-6.43-5.57,7.77,7.77,0,0,0-3.12,3.59c-2.73,5.92,2,15.11,8.47,15.81C670,384.13,688,411.52,696,393.67Z" fill="#7b911d"/><path d="M401.58,471.49c.93-11.73,12-11.11,21.1-7.56-3-16.23,19-13.5,21.58-3.59-1.43-14.17,14.13-25.58,25.83-21.95,14.17,4.4,17.19,16.7,19.41,29.08,2.49-7.25,10-9.21,15.51-3.85-3.73-16.56,12.92-9.38,19.83-6-2.67-12.76,10.49-10.3,15.67-2.87-2.06-17.54,16.24-12.25,21-1.17,3.7-27.77,28.72-22.24,27.91,4.34,6-8.21,18-24.71,29.15-20.23,11.76,4.72,12.16,22.88,8.07,31.76,14.71-20.51,28-8.42,20.91,5.11,22.73-19.7,27.56,22.85,7.58,22.91L417.43,495C413.94,486.43,400.68,482.89,401.58,471.49Z" fill="#827d29"/><path d="M572.67,475.49c1.1-11.71,12.13-10.93,21.21-7.25C591.14,452,613.1,455,615.51,465c-1.22-14.19,14.5-25.37,26.15-21.57,14.1,4.6,16.94,17,19,29.36,2.59-7.22,10.17-9.06,15.57-3.63-3.49-16.61,13-9.19,19.91-5.68-2.49-12.8,10.64-10.15,15.71-2.64-1.81-17.57,16.42-12,21.07-.87,4.09-27.71,29-21.82,27.84,4.76,6.08-8.13,18.36-24.45,29.44-19.81,11.69,4.89,11.82,23.05,7.61,31.88,15-20.3,28.16-8,20.83,5.41,23-19.37,27.22,23.25,7.24,23l-237.68-5.94C584.81,490.62,571.6,486.88,572.67,475.49Z" fill="#afae3a"/><path d="M467.81,472.68c-.92-11.74-12-11.11-21.1-7.57,3-16.22-19-13.49-21.58-3.58C426.56,447.36,411,436,399.3,439.58c-14.16,4.4-17.19,16.7-19.41,29.08-2.49-7.25-10-9.21-15.51-3.85,3.73-16.56-12.92-9.38-19.83-6,2.68-12.77-10.49-10.3-15.67-2.87,2.06-17.55-16.24-12.25-21.05-1.17-3.69-27.77-28.72-22.25-27.91,4.34-6-8.21-18-24.71-29.14-20.23-11.76,4.72-12.16,22.88-8.08,31.76-14.71-20.51-28-8.42-20.91,5.11-22.73-19.7-27.56,22.85-7.58,22.91L452,496.21C455.45,487.62,468.72,484.07,467.81,472.68Z" fill="#949132"/><path d="M296.72,476.68c-1.1-11.71-12.13-10.93-21.21-7.25,2.75-16.27-19.21-13.21-21.62-3.27,1.22-14.19-14.5-25.37-26.15-21.57-14.1,4.6-17,17-19,29.36-2.59-7.22-10.17-9.06-15.56-3.63,3.48-16.61-13.06-9.19-19.92-5.68,2.49-12.8-10.64-10.15-15.71-2.64,1.81-17.57-16.41-12-21.07-.87-4.09-27.71-29-21.82-27.84,4.76-6.08-8.13-18.36-24.45-29.43-19.81C67.53,451,67.39,469.13,71.6,478c-15-20.3-28.16-8-20.83,5.4-23-19.36-27.22,23.26-7.24,23l237.69-5.94C284.58,491.8,297.79,488.07,296.72,476.68Z" fill="#afae3a"/><polygon points="133.33 357.46 130.03 385.8 131.26 388.68 133.33 357.46" fill="#49382c"/><polygon points="118.49 482.79 129.45 482.79 128.93 450.14 150.89 404.19 153.47 375.63 148.31 402.5 126.64 435.39 130.03 397.25 114.22 348.92 127.13 402.5 119.47 448.34 109.06 425.8 117.84 401.02 105.34 420.75 92.53 402.5 89.95 380.89 89.95 402.5 119.36 461.99 118.49 482.79" fill="#49382c"/><path d="M171.15,365.22c1.28,5.36,2.5,10.19-.5,15.45-3.83,6.7-7.73,5.44-13.23,3.24-.84,10.38-15.29,26-24.79,13.67-3.59,3.61-13,4-17.67,2.47-3.71-1.24-12.63-9.57-7.54-13.26-6.29.11-12.85-2.32-16.08-8a8.85,8.85,0,0,1-1.44-5.54c.48-3.51,4-5.69,6.76-9.18-4.75-1.37-10-4-10.66-9.47-.74-5.85,3.32-11.17,9.56-10.8-9.14-8.83,8.37-15.46,14.56-14.78l-.88-.73c-3.15-1.34-8.25-7.83-7.27-11.58,1.47-5.63,9.25-4.58,12-.81-1.12-3.23,1.78-8.48,5-10,4.62-2.19,6.47,1.1,8.84,4.74,6.17-13.51,23.62-8,21.15,6.5,8.59-7,17.42,3,12.17,11.45A13.08,13.08,0,0,1,160,330.1c12.84-6.92,27.43,9.69,14.1,17.9C188.19,349.58,182.54,371.61,171.15,365.22Z" fill="#a2c130"/><path d="M114.54,364.59a10.42,10.42,0,0,0-.92-3.29A14.17,14.17,0,0,0,114.54,364.59Z" fill="#778c1e"/><path d="M171.15,365.22c1.28,5.36,2.5,10.19-.5,15.45-3.83,6.7-7.73,5.44-13.23,3.24-.84,10.38-15.29,26-24.79,13.67-3.59,3.61-13,4-17.67,2.47-3.71-1.24-12.63-9.57-7.54-13.26-6.29.11-12.85-2.32-16.08-8a8.85,8.85,0,0,1-1.44-5.54,14.81,14.81,0,0,0,13,4.82c6.65-.67,12.38-6.89,11.67-13.45,4,9.41,16.94,2.46,14.78-8.49,3.61,12,18.41,18.93,24.86,5,5.77-12.45-.53-20.42-8.24-28.93,5.05,1.36,10.58-.35,15.23-3.65A13.08,13.08,0,0,1,160,330.1c12.84-6.92,27.43,9.69,14.1,17.9C188.19,349.58,182.54,371.61,171.15,365.22Z" fill="#6d7c19"/><path d="M108.75,397c4.9,4.16,3.88,16,.1,20.94-3.22,4.23-12.45,6.11-13.75,1,.84,19.2-29.23,10.12-24.31.66-3.77,3.35-13.49,2.69-17.17.48a6,6,0,0,1-2.77-7.41,7.36,7.36,0,0,1,7.21-5c-11.63-.58-15-17.09-4-17.61h-.94c-3-2.22-9.15-5.74-6.28-10.87,2.28-4.07,8.88-3.23,12.19-1.18-5-8.68,4.55-15.37,11-7.19,2-5.63,3.1-14.45,11.52-13.3,8.69,1.19,8.85,11.29,8.78,18.07,1.9-4.38,4.63-10.34,9.33-11.7a8,8,0,0,1,4.93.24c6.41,2.2,9.9,12.36,5.77,17.71C120.27,370.67,127.88,403.86,108.75,397Z" fill="#a2c130"/><path d="M108.75,397c4.9,4.16,3.88,16,.1,20.94-3.22,4.23-12.45,6.11-13.75,1,.84,19.2-29.23,10.12-24.31.66-3.77,3.35-13.49,2.69-17.17.48a6,6,0,0,1-2.77-7.41c5.84,2.58,13.16,2.51,14.18-3.79.35,4.35,6.08,10.92,10.9,8.74,5.37-2.43,3.54-9.74-1-11.85C86.45,407.28,85.35,391.3,79,386c10.53,2.24,18-2.29,20.18-13.2a45.62,45.62,0,0,0,.44-8.82,8,8,0,0,1,4.93.24c6.41,2.2,9.9,12.36,5.77,17.71C120.27,370.67,127.88,403.86,108.75,397Z" fill="#7b911d"/><path d="M147,399.44c3.84,3.25,3.05,12.49.08,16.39-2.51,3.31-9.74,4.78-10.76.8.66,15-22.88,7.92-19,.51-3,2.62-10.56,2.11-13.44.38a4.74,4.74,0,0,1-2.17-5.81,5.76,5.76,0,0,1,5.65-3.87c-9.11-.46-11.77-13.38-3.16-13.79h-.73c-2.36-1.74-7.16-4.49-4.92-8.51,1.78-3.19,7-2.53,9.54-.92-3.9-6.8,3.56-12,8.64-5.63,1.53-4.41,2.42-11.31,9-10.41,6.8.93,6.92,8.83,6.87,14.15,1.48-3.44,3.63-8.1,7.3-9.16a6.24,6.24,0,0,1,3.86.18c5,1.73,7.75,9.68,4.52,13.87C156,378.81,162,404.79,147,399.44Z" fill="#a2c130"/><path d="M147,399.44c3.84,3.25,3.05,12.49.08,16.39-2.51,3.31-9.74,4.78-10.76.8.66,15-22.88,7.92-19,.51-3,2.62-10.56,2.11-13.44.38a4.74,4.74,0,0,1-2.17-5.81c4.58,2,10.3,2,11.1-3,.27,3.4,4.76,8.55,8.54,6.84,4.2-1.9,2.77-7.62-.75-9.28,9,1.16,8.12-11.35,3.18-15.51,8.24,1.75,14.12-1.79,15.79-10.33a34.78,34.78,0,0,0,.35-6.9,6.24,6.24,0,0,1,3.86.18c5,1.73,7.75,9.68,4.52,13.87C156,378.81,162,404.79,147,399.44Z" fill="#7b911d"/><path d="M188.54,416.76c.35,5.8-8,12.53-13.63,13.17-4.77.55-11.78-4.31-9.27-8.34-12,12.56-24.91-12.77-15.65-15.48-4.55-.37-10.21-7.13-11.07-10.92a5.48,5.48,0,0,1,3.12-6.45,6.64,6.64,0,0,1,7.75,1.61c-6.9-8,1.76-20.52,9-13.66l-.59-.61c-.43-3.36-2-9.58,3.17-10.92,4.09-1.06,7.67,3.79,8.4,7.24,2.55-8.7,12.9-6.66,11.61,2.7,4.91-2.24,11.38-7,15.9-.79,4.67,6.41-1.84,12.84-6.31,17,4-1.5,9.66-3.44,13.49-1.22a7.2,7.2,0,0,1,2.93,3.37c2.57,5.57-1.88,14.2-8,14.86C213,407.79,196,433.54,188.54,416.76Z" fill="#a2c130"/><path d="M188.54,416.76c.35,5.8-8,12.53-13.63,13.17-4.77.55-11.78-4.31-9.27-8.34-12,12.56-24.91-12.77-15.65-15.48-4.55-.37-10.21-7.13-11.07-10.92a5.48,5.48,0,0,1,3.12-6.45c2,5.43,6.6,10.17,11.35,6.9-2.62,2.94-3.33,10.8,1.11,12.59,4.95,2,8.59-3.79,7.16-8,6.22,8.42,16-2.31,15.49-9.75,5.13,8.28,12.79,10.35,21.25,4.92a40.87,40.87,0,0,0,6-5.23,7.2,7.2,0,0,1,2.93,3.37c2.57,5.57-1.88,14.2-8,14.86C213,407.79,196,433.54,188.54,416.76Z" fill="#7b911d"/><polygon points="274.88 327.6 270.77 362.86 272.31 366.45 274.88 327.6" fill="#49382c"/><polygon points="256.41 483.56 270.05 483.56 269.4 442.92 296.73 385.74 299.94 350.21 293.51 383.64 266.55 424.57 270.77 377.11 251.1 316.96 267.17 383.64 257.63 440.69 244.67 412.64 255.6 381.81 240.05 406.36 224.11 383.64 220.9 356.76 220.9 383.64 257.49 457.67 256.41 483.56" fill="#49382c"/><path d="M321.94,337.26c1.59,6.67,3.11,12.67-.63,19.22-4.76,8.34-9.61,6.76-16.46,4-1,12.9-19,32.31-30.85,17-4.46,4.5-16.23,5-22,3.07-4.61-1.54-15.71-11.91-9.37-16.5-7.84.14-16-2.89-20-10-1.57-2.78-2-5-1.78-6.89.58-4.38,5-7.08,8.41-11.42-5.92-1.72-12.39-4.93-13.26-11.79-.93-7.28,4.12-13.9,11.88-13.44-11.37-11,10.43-19.23,18.12-18.4l-1.09-.9c-3.92-1.66-10.27-9.74-9.05-14.41,1.83-7,11.52-5.7,15-1-1.4-4,2.22-10.54,6.21-12.43,5.75-2.72,8.05,1.37,11,5.9,7.67-16.82,29.39-9.9,26.31,8.08,10.7-8.68,21.69,3.77,15.15,14.25a15.11,15.11,0,0,1-1.41,1.91c16-8.61,34.13,12.05,17.55,22.28C343.15,317.79,336.11,345.2,321.94,337.26Z" fill="#a2c130"/><path d="M251.5,336.47a13,13,0,0,0-1.15-4.09A17.6,17.6,0,0,0,251.5,336.47Z" fill="#778c1e"/><path d="M321.94,337.26c1.59,6.67,3.11,12.67-.63,19.22-4.76,8.34-9.61,6.76-16.46,4-1,12.9-19,32.31-30.85,17-4.46,4.5-16.23,5-22,3.07-4.61-1.54-15.71-11.91-9.37-16.5-7.84.14-16-2.89-20-10-1.57-2.78-2-5-1.78-6.89a18.4,18.4,0,0,0,16.14,6c8.27-.82,15.4-8.57,14.52-16.73,5,11.7,21.07,3.06,18.38-10.57,4.5,15,22.92,23.56,30.94,6.28,7.19-15.48-.66-25.4-10.26-36,6.29,1.71,13.17-.42,19-4.54a15.11,15.11,0,0,1-1.41,1.91c16-8.61,34.13,12.05,17.55,22.28C343.15,317.79,336.11,345.2,321.94,337.26Z" fill="#6d7c19"/><path d="M244.29,376.83c6.09,5.17,4.84,19.86.12,26.05-4,5.26-15.49,7.61-17.1,1.27,1,23.9-36.38,12.59-30.26.82-4.69,4.17-16.78,3.35-21.36.6a7.53,7.53,0,0,1-3.45-9.23,9.16,9.16,0,0,1,9-6.16c-14.47-.72-18.7-21.27-5-21.91H175c-3.74-2.77-11.38-7.15-7.82-13.54,2.84-5.06,11-4,15.17-1.46-6.21-10.81,5.66-19.13,13.73-8.95,2.44-7,3.85-18,14.34-16.55,10.81,1.48,11,14.05,10.92,22.49,2.36-5.46,5.77-12.87,11.61-14.56a9.94,9.94,0,0,1,6.14.3c8,2.74,12.31,15.37,7.18,22C258.63,344,268.09,385.34,244.29,376.83Z" fill="#a2c130"/><path d="M244.29,376.83c6.09,5.17,4.84,19.86.12,26.05-4,5.26-15.49,7.61-17.1,1.27,1,23.9-36.38,12.59-30.26.82-4.69,4.17-16.78,3.35-21.36.6a7.53,7.53,0,0,1-3.45-9.23c7.27,3.22,16.38,3.13,17.65-4.71.43,5.41,7.56,13.59,13.56,10.88,6.69-3,4.4-12.13-1.18-14.75,14.28,1.83,12.9-18.06,5.06-24.67,13.09,2.79,22.44-2.84,25.09-16.42a55.08,55.08,0,0,0,.56-11,9.94,9.94,0,0,1,6.14.3c8,2.74,12.31,15.37,7.18,22C258.63,344,268.09,385.34,244.29,376.83Z" fill="#7b911d"/><path d="M291.89,379.83c4.78,4.05,3.79,15.55.1,20.4-3.13,4.11-12.12,5.95-13.39,1,.82,18.71-28.47,9.86-23.68.64-3.67,3.26-13.14,2.63-16.73.48a5.9,5.9,0,0,1-2.7-7.23,7.18,7.18,0,0,1,7-4.83c-11.33-.56-14.64-16.65-3.92-17.15h-.92c-2.93-2.17-8.91-5.59-6.12-10.59,2.22-4,8.65-3.15,11.88-1.15-4.87-8.46,4.42-15,10.74-7,1.91-5.48,3-14.07,11.22-12.95,8.46,1.16,8.62,11,8.55,17.61,1.85-4.28,4.52-10.08,9.09-11.4a7.81,7.81,0,0,1,4.81.23c6.24,2.14,9.63,12,5.62,17.25C303.12,354.16,310.53,386.5,291.89,379.83Z" fill="#a2c130"/><path d="M291.89,379.83c4.78,4.05,3.79,15.55.1,20.4-3.13,4.11-12.12,5.95-13.39,1,.82,18.71-28.47,9.86-23.68.64-3.67,3.26-13.14,2.63-16.73.48a5.9,5.9,0,0,1-2.7-7.23c5.7,2.51,12.82,2.44,13.82-3.69.34,4.24,5.92,10.64,10.62,8.51,5.23-2.36,3.44-9.49-.93-11.54,11.18,1.43,10.1-14.14,4-19.31,10.25,2.18,17.57-2.22,19.65-12.85a43.5,43.5,0,0,0,.43-8.59,7.81,7.81,0,0,1,4.81.23c6.24,2.14,9.63,12,5.62,17.25C303.12,354.16,310.53,386.5,291.89,379.83Z" fill="#7b911d"/><path d="M343.57,401.38c.44,7.22-9.95,15.6-16.95,16.4-5.94.67-14.66-5.36-11.54-10.38-15,15.63-31-15.9-19.47-19.27-5.66-.45-12.7-8.87-13.77-13.58a6.82,6.82,0,0,1,3.87-8,8.29,8.29,0,0,1,9.65,2c-8.59-9.91,2.19-25.54,11.18-17l-.73-.77c-.54-4.18-2.46-11.91,3.95-13.58,5.09-1.32,9.54,4.71,10.45,9,3.18-10.82,16.05-8.28,14.45,3.37,6.1-2.79,14.16-8.74,19.79-1,5.8,8-2.29,16-7.86,21.21,5-1.87,12-4.29,16.78-1.52a9,9,0,0,1,3.65,4.19c3.2,6.93-2.34,17.68-9.91,18.49C374,390.23,352.92,422.27,343.57,401.38Z" fill="#a2c130"/><path d="M343.57,401.38c.44,7.22-9.95,15.6-16.95,16.4-5.94.67-14.66-5.36-11.54-10.38-15,15.63-31-15.9-19.47-19.27-5.66-.45-12.7-8.87-13.77-13.58a6.82,6.82,0,0,1,3.87-8c2.46,6.76,8.22,12.66,14.13,8.58-3.26,3.67-4.14,13.45,1.38,15.67,6.17,2.48,10.69-4.71,8.91-10,7.73,10.47,19.87-2.88,19.28-12.14,6.37,10.31,15.91,12.89,26.44,6.12a49.74,49.74,0,0,0,7.52-6.5,9,9,0,0,1,3.65,4.19c3.2,6.93-2.34,17.68-9.91,18.49C374,390.23,352.92,422.27,343.57,401.38Z" fill="#7b911d"/><polygon points="643.12 353.66 646.84 385.59 645.45 388.84 643.12 353.66" fill="#49382c"/><polygon points="659.84 494.9 647.49 494.9 648.08 458.1 623.34 406.32 620.43 374.14 626.25 404.42 650.66 441.48 646.84 398.5 664.65 344.03 650.11 404.42 658.74 456.07 670.47 430.67 660.58 402.75 674.66 424.99 689.1 404.42 692 380.07 692 404.42 658.87 471.46 659.84 494.9" fill="#49382c"/><path d="M600.5,362.41c-1.44,6-2.82,11.47.57,17.4,4.31,7.56,8.71,6.13,14.91,3.66.94,11.69,17.23,29.27,27.94,15.4,4,4.07,14.7,4.53,19.91,2.78,4.17-1.4,14.23-10.78,8.49-14.94,7.09.13,14.49-2.62,18.12-9,1.43-2.52,1.85-4.52,1.62-6.24-.53-4-4.54-6.41-7.62-10.35,5.36-1.55,11.22-4.45,12-10.67.84-6.59-3.73-12.59-10.76-12.17,10.29-10-9.44-17.42-16.41-16.66l1-.82c3.54-1.5,9.3-8.82,8.19-13.05-1.66-6.35-10.43-5.16-13.58-.91,1.27-3.65-2-9.55-5.62-11.26-5.21-2.46-7.3,1.24-10,5.35-6.95-15.24-26.62-9-23.83,7.31-9.69-7.86-19.64,3.41-13.72,12.91a14.07,14.07,0,0,0,1.27,1.72C598.55,315,582.11,333.74,597.13,343,581.29,344.78,587.67,369.6,600.5,362.41Z" fill="#a2c130"/><path d="M664.29,361.69a12,12,0,0,1,1-3.7A15.32,15.32,0,0,1,664.29,361.69Z" fill="#778c1e"/><path d="M600.5,362.41c-1.44,6-2.82,11.47.57,17.4,4.31,7.56,8.71,6.13,14.91,3.66.94,11.69,17.23,29.27,27.94,15.4,4,4.07,14.7,4.53,19.91,2.78,4.17-1.4,14.23-10.78,8.49-14.94,7.09.13,14.49-2.62,18.12-9,1.43-2.52,1.85-4.52,1.62-6.24a16.68,16.68,0,0,1-14.62,5.43c-7.49-.75-13.94-7.77-13.15-15.16-4.55,10.6-19.08,2.77-16.65-9.56-4.07,13.56-20.75,21.33-28,5.68-6.51-14,.59-23,9.29-32.6-5.7,1.54-11.93-.39-17.17-4.11a14.07,14.07,0,0,0,1.27,1.72C598.55,315,582.11,333.74,597.13,343,581.29,344.78,587.67,369.6,600.5,362.41Z" fill="#6d7c19"/><path d="M670.82,398.24c-5.52,4.69-4.38,18-.11,23.6,3.62,4.76,14,6.89,15.49,1.15-.94,21.64,32.94,11.4,27.4.74,4.25,3.77,15.2,3,19.35.55a6.82,6.82,0,0,0,3.12-8.36,8.3,8.3,0,0,0-8.13-5.59c13.12-.65,16.94-19.26,4.54-19.84h1.06c3.39-2.51,10.31-6.47,7.08-12.26-2.56-4.59-10-3.63-13.74-1.32,5.63-9.79-5.12-17.33-12.43-8.11-2.21-6.34-3.48-16.28-13-15-9.79,1.33-10,12.72-9.89,20.36-2.14-4.94-5.22-11.65-10.52-13.18a9.07,9.07,0,0,0-5.55.26c-7.23,2.49-11.15,13.93-6.51,20C657.83,368.54,649.27,406,670.82,398.24Z" fill="#a2c130"/><path d="M670.82,398.24c-5.52,4.69-4.38,18-.11,23.6,3.62,4.76,14,6.89,15.49,1.15-.94,21.64,32.94,11.4,27.4.74,4.25,3.77,15.2,3,19.35.55a6.82,6.82,0,0,0,3.12-8.36c-6.59,2.91-14.83,2.82-16-4.27-.39,4.9-6.85,12.31-12.28,9.85-6.06-2.74-4-11,1.06-13.36-12.92,1.66-11.67-16.35-4.57-22.33-11.86,2.52-20.33-2.58-22.73-14.87a50.24,50.24,0,0,1-.51-9.94,9.07,9.07,0,0,0-5.55.26c-7.23,2.49-11.15,13.93-6.51,20C657.83,368.54,649.27,406,670.82,398.24Z" fill="#7b911d"/><path d="M627.71,401c-4.32,3.66-3.43,14.07-.09,18.47,2.84,3.72,11,5.39,12.13.9-.74,16.93,25.78,8.92,21.45.57,3.32,3,11.9,2.38,15.14.43a5.33,5.33,0,0,0,2.45-6.54,6.49,6.49,0,0,0-6.36-4.37c10.26-.51,13.25-15.08,3.55-15.53h.83c2.65-2,8.07-5.07,5.54-9.6-2-3.59-7.83-2.84-10.75-1,4.4-7.66-4-13.56-9.74-6.34-1.73-5-2.73-12.75-10.16-11.73-7.66,1-7.8,9.95-7.74,15.94-1.67-3.87-4.09-9.13-8.23-10.32a7.07,7.07,0,0,0-4.35.21c-5.66,1.94-8.73,10.9-5.09,15.62C617.54,377.72,610.84,407,627.71,401Z" fill="#a2c130"/><path d="M627.71,401c-4.32,3.66-3.43,14.07-.09,18.47,2.84,3.72,11,5.39,12.13.9-.74,16.93,25.78,8.92,21.45.57,3.32,3,11.9,2.38,15.14.43a5.33,5.33,0,0,0,2.45-6.54c-5.16,2.28-11.61,2.21-12.51-3.34-.31,3.83-5.37,9.63-9.62,7.71-4.74-2.14-3.12-8.6.84-10.46-10.12,1.3-9.15-12.8-3.59-17.48-9.28,2-15.91-2-17.79-11.64a39,39,0,0,1-.39-7.78,7.07,7.07,0,0,0-4.35.21c-5.66,1.94-8.73,10.9-5.09,15.62C617.54,377.72,610.84,407,627.71,401Z" fill="#7b911d"/><path d="M580.91,420.48c-.4,6.54,9,14.12,15.35,14.85,5.38.61,13.28-4.86,10.45-9.4,13.55,14.16,28.07-14.4,17.64-17.45,5.12-.41,11.5-8,12.47-12.3a6.18,6.18,0,0,0-3.51-7.27,7.5,7.5,0,0,0-8.74,1.81c7.78-9-2-23.13-10.12-15.39l.66-.69c.48-3.78,2.22-10.79-3.58-12.3-4.6-1.2-8.64,4.26-9.47,8.15-2.87-9.8-14.53-7.5-13.08,3.05-5.52-2.53-12.82-7.92-17.92-.9-5.25,7.23,2.07,14.48,7.12,19.21-4.57-1.69-10.89-3.88-15.2-1.38a8.2,8.2,0,0,0-3.31,3.8c-2.9,6.28,2.13,16,9,16.75C553.37,410.38,572.45,439.4,580.91,420.48Z" fill="#a2c130"/><path d="M580.91,420.48c-.4,6.54,9,14.12,15.35,14.85,5.38.61,13.28-4.86,10.45-9.4,13.55,14.16,28.07-14.4,17.64-17.45,5.12-.41,11.5-8,12.47-12.3a6.18,6.18,0,0,0-3.51-7.27c-2.23,6.12-7.44,11.46-12.8,7.77,3,3.32,3.76,12.18-1.25,14.19-5.58,2.25-9.67-4.27-8.06-9.06-7,9.49-18-2.6-17.46-11-5.78,9.33-14.41,11.67-24,5.55a45.56,45.56,0,0,1-6.81-5.9,8.2,8.2,0,0,0-3.31,3.8c-2.9,6.28,2.13,16,9,16.75C553.37,410.38,572.45,439.4,580.91,420.48Z" fill="#7b911d"/><polygon points="505.26 358.95 508.49 386.68 507.28 389.5 505.26 358.95" fill="#49382c"/><polygon points="519.78 481.62 509.05 481.62 509.56 449.65 488.07 404.68 485.55 376.73 490.6 403.03 511.81 435.22 508.49 397.89 523.96 350.59 511.32 403.03 518.82 447.9 529.01 425.83 520.42 401.59 532.65 420.9 545.19 403.03 547.71 381.89 547.71 403.03 518.93 461.26 519.78 481.62" fill="#49382c"/><path d="M468.24,366.55c-1.25,5.24-2.45,10,.49,15.11,3.75,6.57,7.57,5.33,12.95,3.18.82,10.15,15,25.42,24.27,13.37,3.5,3.54,12.76,3.94,17.29,2.42,3.62-1.21,12.36-9.37,7.37-13,6.17.11,12.59-2.27,15.74-7.85a8.67,8.67,0,0,0,1.41-5.42c-.46-3.45-3.94-5.57-6.62-9,4.66-1.35,9.75-3.87,10.44-9.27.73-5.72-3.25-10.93-9.35-10.57,8.94-8.64-8.2-15.13-14.25-14.47l.85-.71c3.08-1.31,8.08-7.66,7.12-11.34-1.44-5.51-9.06-4.48-11.8-.79,1.1-3.16-1.74-8.29-4.88-9.78-4.52-2.13-6.33,1.08-8.65,4.65-6-13.23-23.12-7.79-20.7,6.35-8.41-6.82-17.05,3-11.91,11.21a11.58,11.58,0,0,0,1.11,1.5c-12.57-6.77-26.85,9.48-13.8,17.52C451.56,351.23,457.09,372.8,468.24,366.55Z" fill="#a2c130"/><path d="M523.65,365.93a10,10,0,0,1,.9-3.22A13.71,13.71,0,0,1,523.65,365.93Z" fill="#778c1e"/><path d="M468.24,366.55c-1.25,5.24-2.45,10,.49,15.11,3.75,6.57,7.57,5.33,12.95,3.18.82,10.15,15,25.42,24.27,13.37,3.5,3.54,12.76,3.94,17.29,2.42,3.62-1.21,12.36-9.37,7.37-13,6.17.11,12.59-2.27,15.74-7.85a8.67,8.67,0,0,0,1.41-5.42,14.5,14.5,0,0,1-12.7,4.71c-6.5-.65-12.11-6.74-11.41-13.16-4,9.2-16.58,2.4-14.47-8.31-3.53,11.78-18,18.53-24.33,4.94-5.65-12.18.52-20,8.07-28.32-4.94,1.34-10.36-.33-14.91-3.57a11.58,11.58,0,0,0,1.11,1.5c-12.57-6.77-26.85,9.48-13.8,17.52C451.56,351.23,457.09,372.8,468.24,366.55Z" fill="#6d7c19"/><path d="M529.32,397.67c-4.8,4.07-3.81,15.62-.1,20.5,3.15,4.13,12.18,6,13.45,1-.82,18.79,28.61,9.9,23.8.64,3.69,3.28,13.2,2.64,16.8.48A5.94,5.94,0,0,0,586,413a7.22,7.22,0,0,0-7.06-4.85c11.38-.57,14.71-16.73,3.94-17.23h.92c2.94-2.18,9-5.62,6.15-10.65-2.23-4-8.69-3.15-11.94-1.15,4.89-8.5-4.44-15-10.79-7-1.92-5.51-3-14.14-11.28-13-8.5,1.16-8.65,11-8.59,17.68-1.85-4.29-4.53-10.12-9.13-11.45a7.87,7.87,0,0,0-4.83.23c-6.27,2.16-9.68,12.1-5.64,17.34C518,371.88,510.59,404.37,529.32,397.67Z" fill="#a2c130"/><path d="M529.32,397.67c-4.8,4.07-3.81,15.62-.1,20.5,3.15,4.13,12.18,6,13.45,1-.82,18.79,28.61,9.9,23.8.64,3.69,3.28,13.2,2.64,16.8.48A5.94,5.94,0,0,0,586,413c-5.73,2.53-12.89,2.46-13.89-3.7-.33,4.25-5.94,10.68-10.66,8.55-5.26-2.38-3.47-9.54.92-11.6-11.22,1.44-10.14-14.2-4-19.4-10.3,2.19-17.66-2.24-19.74-12.92a43.63,43.63,0,0,1-.44-8.63,7.87,7.87,0,0,0-4.83.23c-6.27,2.16-9.68,12.1-5.64,17.34C518,371.88,510.59,404.37,529.32,397.67Z" fill="#7b911d"/><path d="M491.87,400c-3.75,3.19-3,12.23-.07,16.05,2.46,3.23,9.53,4.68,10.53.78-.64,14.71,22.39,7.75,18.63.5,2.88,2.57,10.33,2.07,13.15.37a4.62,4.62,0,0,0,2.12-5.68,5.63,5.63,0,0,0-5.52-3.8c8.91-.44,11.51-13.09,3.08-13.49h.72c2.31-1.7,7-4.4,4.82-8.33-1.75-3.12-6.81-2.47-9.34-.9,3.82-6.65-3.49-11.78-8.45-5.51-1.51-4.31-2.38-11.07-8.83-10.19-6.66.91-6.78,8.65-6.73,13.85-1.45-3.36-3.55-7.93-7.15-9a6.18,6.18,0,0,0-3.77.18c-4.91,1.69-7.58,9.47-4.42,13.57C483,379.84,477.22,405.27,491.87,400Z" fill="#a2c130"/><path d="M491.87,400c-3.75,3.19-3,12.23-.07,16.05,2.46,3.23,9.53,4.68,10.53.78-.64,14.71,22.39,7.75,18.63.5,2.88,2.57,10.33,2.07,13.15.37a4.62,4.62,0,0,0,2.12-5.68c-4.48,2-10.08,1.92-10.86-2.9-.27,3.33-4.66,8.36-8.35,6.7-4.12-1.87-2.72-7.47.72-9.09-8.79,1.13-7.94-11.11-3.11-15.18-8.06,1.72-13.82-1.75-15.45-10.11a34.14,34.14,0,0,1-.35-6.76,6.18,6.18,0,0,0-3.77.18c-4.91,1.69-7.58,9.47-4.42,13.57C483,379.84,477.22,405.27,491.87,400Z" fill="#7b911d"/><path d="M451.23,417c-.35,5.67,7.82,12.26,13.33,12.89,4.67.53,11.53-4.22,9.07-8.17C485.4,434,498,409.21,489,406.56c4.45-.36,10-7,10.83-10.68a5.37,5.37,0,0,0-3-6.32,6.52,6.52,0,0,0-7.59,1.58c6.75-7.8-1.73-20.09-8.8-13.37l.58-.6c.42-3.29,1.93-9.37-3.11-10.68-4-1-7.5,3.7-8.22,7.08-2.5-8.52-12.62-6.52-11.36,2.64-4.8-2.19-11.14-6.87-15.57-.77-4.56,6.28,1.8,12.57,6.19,16.68-4-1.47-9.46-3.37-13.21-1.2a7.16,7.16,0,0,0-2.87,3.3c-2.51,5.45,1.85,13.9,7.8,14.55C427.31,408.21,443.88,433.41,451.23,417Z" fill="#a2c130"/><path d="M451.23,417c-.35,5.67,7.82,12.26,13.33,12.89,4.67.53,11.53-4.22,9.07-8.17C485.4,434,498,409.21,489,406.56c4.45-.36,10-7,10.83-10.68a5.37,5.37,0,0,0-3-6.32c-1.94,5.32-6.46,10-11.12,6.75,2.57,2.89,3.26,10.58-1.08,12.33-4.85,1.95-8.41-3.71-7-7.87-6.08,8.24-15.63-2.26-15.16-9.55-5,8.11-12.52,10.14-20.8,4.82a39.93,39.93,0,0,1-5.92-5.12,7.16,7.16,0,0,0-2.87,3.3c-2.51,5.45,1.85,13.9,7.8,14.55C427.31,408.21,443.88,433.41,451.23,417Z" fill="#7b911d"/><polygon points="385.84 385.47 388.71 410.07 387.63 412.58 385.84 385.47" fill="#49382c"/><polygon points="398.72 494.28 389.21 494.28 389.66 465.93 370.6 426.04 368.36 401.25 372.84 424.58 391.65 453.13 388.71 420.01 402.43 378.06 391.22 424.58 397.87 464.37 406.91 444.8 399.29 423.3 410.14 440.43 421.26 424.58 423.5 405.82 423.5 424.58 397.97 476.23 398.72 494.28" fill="#49382c"/><path d="M353,392.21c-1.12,4.66-2.17,8.85.43,13.41,3.32,5.82,6.71,4.72,11.49,2.82.73,9,13.27,22.55,21.52,11.86,3.11,3.14,11.33,3.5,15.34,2.15,3.22-1.08,11-8.31,6.54-11.51,5.47.09,11.16-2,14-7a7.66,7.66,0,0,0,1.24-4.81c-.41-3.06-3.5-4.94-5.87-8,4.13-1.2,8.65-3.44,9.26-8.23.64-5.07-2.88-9.69-8.3-9.37,7.94-7.67-7.27-13.42-12.63-12.84l.75-.63c2.74-1.16,7.17-6.79,6.32-10.05-1.28-4.89-8-4-10.47-.71,1-2.8-1.54-7.35-4.33-8.67-4-1.9-5.62,1-7.67,4.12-5.36-11.73-20.51-6.91-18.36,5.64-7.46-6.06-15.13,2.63-10.57,9.94a11.62,11.62,0,0,0,1,1.33c-11.15-6-23.81,8.41-12.24,15.54C338.21,378.63,343.12,397.76,353,392.21Z" fill="#a2c130"/><path d="M402.15,391.67a9,9,0,0,1,.8-2.86A12.16,12.16,0,0,1,402.15,391.67Z" fill="#778c1e"/><path d="M353,392.21c-1.12,4.66-2.17,8.85.43,13.41,3.32,5.82,6.71,4.72,11.49,2.82.73,9,13.27,22.55,21.52,11.86,3.11,3.14,11.33,3.5,15.34,2.15,3.22-1.08,11-8.31,6.54-11.51,5.47.09,11.16-2,14-7a7.66,7.66,0,0,0,1.24-4.81,12.82,12.82,0,0,1-11.26,4.18c-5.77-.58-10.74-6-10.13-11.68-3.51,8.17-14.7,2.14-12.83-7.37-3.13,10.45-16,16.44-21.58,4.38-5-10.8.46-17.72,7.16-25.11-4.39,1.19-9.19-.3-13.23-3.17a11.62,11.62,0,0,0,1,1.33c-11.15-6-23.81,8.41-12.24,15.54C338.21,378.63,343.12,397.76,353,392.21Z" fill="#6d7c19"/><path d="M407.18,419.82c-4.25,3.61-3.37,13.86-.08,18.18,2.79,3.67,10.8,5.31,11.93.89-.73,16.66,25.38,8.78,21.11.56,3.27,2.91,11.71,2.35,14.9.43a5.27,5.27,0,0,0,2.41-6.44,6.39,6.39,0,0,0-6.26-4.3c10.1-.51,13.05-14.84,3.49-15.29h.82c2.61-1.93,7.94-5,5.45-9.44-2-3.54-7.7-2.8-10.58-1,4.33-7.54-3.94-13.35-9.58-6.25-1.7-4.89-2.68-12.54-10-11.54-7.54,1-7.68,9.79-7.62,15.68-1.64-3.8-4-9-8.1-10.15a6.92,6.92,0,0,0-4.28.2c-5.56,1.92-8.59,10.73-5,15.38C397.18,396.94,390.57,425.76,407.18,419.82Z" fill="#a2c130"/><path d="M407.18,419.82c-4.25,3.61-3.37,13.86-.08,18.18,2.79,3.67,10.8,5.31,11.93.89-.73,16.66,25.38,8.78,21.11.56,3.27,2.91,11.71,2.35,14.9.43a5.27,5.27,0,0,0,2.41-6.44c-5.08,2.24-11.43,2.18-12.32-3.29-.29,3.77-5.27,9.48-9.46,7.59-4.66-2.11-3.07-8.46.83-10.29-10,1.28-9-12.6-3.53-17.21-9.14,1.95-15.66-2-17.51-11.46a38.52,38.52,0,0,1-.39-7.65,6.92,6.92,0,0,0-4.28.2c-5.56,1.92-8.59,10.73-5,15.38C397.18,396.94,390.57,425.76,407.18,419.82Z" fill="#7b911d"/><path d="M374,421.92c-3.33,2.82-2.64,10.84-.07,14.23,2.19,2.87,8.46,4.15,9.34.69-.57,13.05,19.87,6.88,16.53.45,2.56,2.27,9.16,1.83,11.66.33a4.13,4.13,0,0,0,1.89-5,5,5,0,0,0-4.9-3.37c7.9-.39,10.21-11.62,2.73-12h.64c2-1.51,6.22-3.9,4.27-7.39-1.55-2.77-6-2.19-8.28-.8,3.39-5.9-3.09-10.45-7.5-4.89-1.33-3.82-2.1-9.82-7.83-9-5.9.8-6,7.67-6,12.28-1.29-3-3.15-7-6.35-8a5.35,5.35,0,0,0-3.35.16c-4.35,1.49-6.72,8.4-3.92,12C366.13,404,361,426.57,374,421.92Z" fill="#a2c130"/><path d="M374,421.92c-3.33,2.82-2.64,10.84-.07,14.23,2.19,2.87,8.46,4.15,9.34.69-.57,13.05,19.87,6.88,16.53.45,2.56,2.27,9.16,1.83,11.66.33a4.13,4.13,0,0,0,1.89-5c-4,1.75-8.95,1.7-9.64-2.58-.24,3-4.13,7.42-7.41,5.94-3.65-1.65-2.4-6.62.65-8.05-7.8,1-7.05-9.86-2.77-13.47-7.15,1.52-12.25-1.56-13.7-9a30.18,30.18,0,0,1-.31-6,5.35,5.35,0,0,0-3.35.16c-4.35,1.49-6.72,8.4-3.92,12C366.13,404,361,426.57,374,421.92Z" fill="#7b911d"/><path d="M337.91,437c-.3,5,6.94,10.88,11.83,11.44,4.14.47,10.23-3.74,8.05-7.24,10.44,10.91,21.63-11.09,13.59-13.44,3.94-.32,8.86-6.19,9.6-9.48a4.74,4.74,0,0,0-2.7-5.6,5.78,5.78,0,0,0-6.73,1.4c6-6.92-1.53-17.82-7.8-11.86l.51-.53c.37-2.92,1.71-8.31-2.76-9.48-3.54-.92-6.65,3.29-7.29,6.28-2.21-7.55-11.19-5.78-10.08,2.35-4.25-2-9.88-6.1-13.8-.69-4.05,5.57,1.59,11.15,5.48,14.8-3.52-1.31-8.39-3-11.71-1.06a6.35,6.35,0,0,0-2.55,2.92c-2.23,4.84,1.64,12.33,6.92,12.9C316.7,429.17,331.4,451.52,337.91,437Z" fill="#a2c130"/><path d="M337.91,437c-.3,5,6.94,10.88,11.83,11.44,4.14.47,10.23-3.74,8.05-7.24,10.44,10.91,21.63-11.09,13.59-13.44,3.94-.32,8.86-6.19,9.6-9.48a4.74,4.74,0,0,0-2.7-5.6c-1.71,4.72-5.73,8.83-9.85,6,2.27,2.56,2.89,9.38-1,10.93-4.3,1.73-7.45-3.29-6.21-7-5.4,7.31-13.87-2-13.46-8.47-4.44,7.19-11.09,9-18.44,4.28a36,36,0,0,1-5.25-4.54,6.35,6.35,0,0,0-2.55,2.92c-2.23,4.84,1.64,12.33,6.92,12.9C316.7,429.17,331.4,451.52,337.91,437Z" fill="#7b911d"/><ellipse cx="399.7" cy="590.77" rx="62.15" ry="9.06" fill="#1fbdc8"/><ellipse cx="386.5" cy="588.14" rx="30.53" ry="4.26" fill="#2bdee2"/><ellipse cx="437.6" cy="533.94" rx="329.08" ry="41.61" fill="#1fbdc8"/><ellipse cx="432.68" cy="533.76" rx="281.05" ry="29.69" fill="#2bdee2"/><ellipse cx="432.68" cy="531.29" rx="253.81" ry="24.59" fill="#97e9ff"/><path d="M244.75,441.47s-1.16-5.5,4.93-11.59A110.61,110.61,0,0,0,291.62,426l13.48-1.93s2.12,1.55,5.79.19c0,0,3.84-1,5.49,1.7a4.74,4.74,0,0,0,3.84,2.24s.19-4.89-3-7.7c0,0,39.34,2.39,53.85,7.9,0,0,21.36,3,17.92,24.55C389,453,346,463.79,244.75,441.47Z" fill="#f48225" data-secondary="true"/><path d="M244.75,441.47s-1.16-5.5,4.93-11.59A110.61,110.61,0,0,0,291.62,426l13.48-1.93s2.12,1.55,5.79.19c0,0,3.84-1,5.49,1.7a4.74,4.74,0,0,0,3.84,2.24s.19-4.89-3-7.7c0,0,39.34,2.39,53.85,7.9,0,0,21.36,3,17.92,24.55C389,453,346,463.79,244.75,441.47Z" fill="#fff" opacity="0.2"/><path d="M244.73,441.47s-1.12-5.78,4.92-11.58c0,0,21.13,2.76,42-3.86l13.47-1.92a7.27,7.27,0,0,0,5.8.18l6.3-3.76s23.65-.27,23.93,14.72c0,0-.55,8.25-1.93,11.13l7.56-3a52,52,0,0,1-12,11.55S299.75,453.89,244.73,441.47Z" opacity="0.2"/><path d="M261.66,335.28l-18.16,1.1s-14.85,1.92-16.5,24.47c0,0-4.13,28.88-2.2,39.33L239.37,426s-2,13.67,5.47,13.67c0,0,.67-5.14,8.1-13.12l52.16-11,6.36-.7s1.91-.13-.29-8.38c-.4,0-4.64-15.74,0-27.69a5.42,5.42,0,0,1,3.77-3.45L329,372.13l25.3-2.75S353.5,355.63,359,349c0,0-54.45-13.48-75.35-12.65Z" fill="#686175" data-primary="true"/><path d="M263.15,312.41s4.78,15.37-1.49,22.87a4.25,4.25,0,0,0-1,2.46c-.22,3.25,1.08,10.22,15.91,11.07,0,0,15.86-.22,17.87-10.49,0,0,.45-1.34-7.59-.67,0,0-4.47.22-4.47-7.37L265,311.92Z" fill="#f9ad9b"/><path d="M247.35,393.3s6.6,0,10.45,2.48c0,0,5.22-18.15,4.95-34.38,0,0,2.75,5,1.1,22.28,0,0,.82,10.17,9.9,13.2l23.92,9.9s11,4.67,9.08-6.88c0,0-3-15.94,1.15-27.07a22,22,0,0,0,1.23-9.85,61.34,61.34,0,0,0-1.56-8.73l20.35,3.3,1.93,3.58s.27,7.42-.83,11l-14.09,3.23s-9.83.89-4.06,31.14c0,0,2.56,7.46.28,8.25,0,0-13.72,1.67-17.11,3L263.85,415S247.07,414.2,247.35,393.3Z" opacity="0.2"/><path d="M354.32,369.38s8-5.91,24.2.55a135.11,135.11,0,0,1,42.08,37.12,16.3,16.3,0,0,1,4.4,11.83s-.83-14-39.6-27.78c0,0-6.88,36.85,7.15,41.8l44.55,12.38s-25.35,6.34-49.8,8.16c0,0,5.36-16.32-12.26-24,0,0-20.72-6.45-57.84-8.92,0,0-3-4.95-12.1-4.95l6-.83s2,.21-.28-8.25c0,0-5.33-16.08.29-27.69,0,0,1.23-3.51,3.77-3.45L329,372.13Z" fill="#f48225" data-secondary="true"/><path d="M329.85,361.13a54.59,54.59,0,0,1-.83,11s-4.12,4.4,3.58,7.15l14.3,6.32s6.05,2.75,8.8-5c0,0,7.42-11.55-1.38-11.27,0,0-6.6,1.1-8.52-9.9l-10.18-3.85Z" fill="#f9ad9b"/><path d="M359,349s30.25,7.42,50.05,38.5c0,0,6.39,3.69,7.22,13.86l-6.53-7.12a3.34,3.34,0,0,1-2.36,3.33,1.1,1.1,0,0,1-1.31-.76,10.45,10.45,0,0,1-.32-3.26l-.55-3.85s-7.29-8.1-26.15-19.48a6.77,6.77,0,0,0-1.21-.59c-3-1.1-15.14-5.07-23.52-.28C354.32,369.38,352.88,356.75,359,349Z" fill="#f9ad9b"/><path d="M230,418.37s-21.06-9.59-30.92-5.33l6.76,26.53,53.83,10.52L243.56,413Z" fill="#cf8046"/><path d="M424.83,417.65a2.77,2.77,0,0,1-.4,2.81c-2.76,3.42-12.37,10.72-32.71-6.26l-26.16-21.32a6.84,6.84,0,0,0-7.27-.87,27.2,27.2,0,0,1-3.36,1.37,3.41,3.41,0,0,1-4.43-2.81c-.4-3.25,1.13-7.79,12.63-8a12.6,12.6,0,0,1,5.41,1.09l16.86,7.46S418.18,401.45,424.83,417.65Z" fill="#f9ad9b"/><path d="M569.37,536.85a6.2,6.2,0,0,1-1.51.68c-8.5,2.77-32.58-2-32.58-2-15.13-3.58-26.41,1.37-26.41,1.37C497.6,541.53,483,538,483,538a78.87,78.87,0,0,0-26.13,3.58c-21.45,4.68-31.35-3-31.35-3-19-5.78-39.33-.28-39.33-.28-20.9,4.4-27.22,1.37-27.22,1.37-12.1-2.2-23.93,3.3-23.93,3.3-10.72,6.33-32.17-3.85-32.17-3.85-9.08-3.57-25.58-1.92-25.58-1.92a46.06,46.06,0,0,1-23-6.67,17.17,17.17,0,0,0-5.33-2.11,116.69,116.69,0,0,0-21-2.21,28.43,28.43,0,0,0-5,.38c-7.07,1.14-10.07-.94-10.07-.94a145.86,145.86,0,0,1-10.65-18.12,165.29,165.29,0,0,1-10.46-26.83c-1.46-4.92-2.64-9.7-3.59-14.23-1.45-6.91-2.38-13.26-3-18.77,0-.4-.08-.8-.12-1.19a141.83,141.83,0,0,1-.83-19.57c37.07,26.94,132.85,36.83,132.85,36.83,73.43,7,118-8.25,118-8.25l89.93-19.38,5.82,10.5.53.95,11.86,21.39L550.55,482l7.55,13.62Z" fill="#cf8046"/><ellipse cx="385.26" cy="587.18" rx="13.61" ry="2.48" fill="#97e9ff"/><path d="M329.85,361.13a59.25,59.25,0,0,1-.83,11s6.46,2.72,11.77-6.34a1,1,0,0,1,1.22-.47,24,24,0,0,0,6.48,1.2,30.3,30.3,0,0,1-2.69-7Z" fill="#f29981"/><path d="M331.35,421.93s-4.61-11.38-2.56-18.82c0,0,10.78,27.45,32.08,9,0,0,17.44,4.36,21.55-5.39L384,408s-2.07,20.85,8.59,24.92l28.36,7.67s-15.14-3.6-19,11.29l-14.62,1.58s4.6-19.87-16.25-25C371.05,428.43,340.07,421.42,331.35,421.93Z" opacity="0.2"/><path d="M309.15,387.69s7.33-12.8,23.45-8.41c0,0-7.39-2-3.58-7.15l-14.09,3.23S309.86,374.66,309.15,387.69Z" opacity="0.2"/><path d="M354.32,369.38s12.54-1.72,3.88,6.09C358.2,375.47,360.61,368.94,354.32,369.38Z" opacity="0.2"/><path d="M377.22,380.17a25.42,25.42,0,0,1,2.56,2.31,28.27,28.27,0,0,1,2.28,2.6A25.25,25.25,0,0,1,384,388a17.42,17.42,0,0,1,1.41,3.15c-.29-.5-.52-1-.83-1.5s-.59-1-.9-1.46c-.64-.94-1.29-1.87-2-2.77s-1.43-1.78-2.17-2.64c-.37-.44-.75-.87-1.13-1.29S377.6,380.6,377.22,380.17Z" opacity="0.2"/><path d="M286.83,337.65s-3.31-.69-4.47-7.37c0,0-9.82.6-11.61-3.25C270.75,327,275.82,339.46,286.83,337.65Z" fill="#f29981"/><ellipse cx="279.46" cy="310.62" rx="14.74" ry="21.89" fill="#f9ad9b"/><path d="M259.35,307.72s-7.14-11.84,5.59-17.2c0,0,7.81-12.51,23-3.8,0,0,4.47,3.57,6.48,1.79,0,0,3.13-2.68,3.13,2.45,0,0,2.9,10.28-4,14.52,0,0-.23-6.92-12.73-7.59,0,0-11.37-.86-11.83,9.62a3.81,3.81,0,0,1-.65,2c-.5.74-1.28,1.22-2.27-.25Z" fill="#7a383a"/><ellipse cx="262.81" cy="308.83" rx="2.79" ry="3.8" transform="translate(-130.64 210.64) rotate(-35.59)" fill="#f9ad9b"/><ellipse cx="319.64" cy="349.8" rx="3.85" ry="5.21" transform="translate(-103.08 135.7) rotate(-20.72)" fill="#f9ad9b"/><path d="M347.59,340.45c3.87,9.14,1.16,19-6,22.08s-16.69-1.82-20.56-11-.67-19.08,6.54-22.13S343.72,331.32,347.59,340.45Z" fill="#f9ad9b"/><path d="M342.69,333.49s2.13.46,4.88-1.68c0,0,7.78,12.05,1.83,18.46C349.4,350.27,349.71,339.44,342.69,333.49Z" fill="#7a383a"/><ellipse cx="305.77" cy="326.09" rx="10.07" ry="10.15" fill="#7a383a"/><path d="M349.1,328a5.85,5.85,0,0,1-1.64,3.8c-1.39,1.38-3.95,2.37-8.68,1.33a1.5,1.5,0,0,0-1.21.27c-1.21.89-4.28,2.78-7,1.62a1.53,1.53,0,0,0-2,.89c-.55,1.54-1.9,3.75-5.2,6.08a1.24,1.24,0,0,0-.22.18L319,346.36a1.52,1.52,0,0,0-.3,1.65c.88,2.11,3.5,7.73,10.94,13.43h0s-27.53,1.89-27.1-13.83a1.64,1.64,0,0,0,0-.38c-.17-.67-.65-3.4,1-7.59a1.6,1.6,0,0,0,.08-.94,10.36,10.36,0,0,1-.28-2.23,11.33,11.33,0,0,1,4.95-9.48c.58-.4,1.26-.85,2-1.32a1.15,1.15,0,0,1,.25-.12,3.35,3.35,0,0,0,2.17-2.28,2.8,2.8,0,0,1,2.61-2.26,15.5,15.5,0,0,1,3.61.22,1.5,1.5,0,0,0,1.57-.77c.53-1,2-2.27,6.14-.73l.18,0c.82.19,6.92,1.48,9-1.4,0,0,2.75-3.43,5.67-.68a6,6,0,0,1,1.88,4.69,1.54,1.54,0,0,0,1.37,1.55C346.68,324.15,349.57,325,349.1,328Z" fill="#7a383a"/><path d="M347.46,331.8c-1.45,1.44-4.19,2.47-9.35,1.18,0,0-4,3.51-7.54,2a1.56,1.56,0,0,0-2.08.91c-.56,1.55-1.94,3.79-5.31,6.13l-4.24,4.39a1.31,1.31,0,0,0-.27,1.41c.81,2,3.38,7.73,11,13.57-4.57-3.05-12.76-5.07-12.76-5.07-8.09-2.74-3.67-12.81-3.67-12.81.31-1.22,2.6-1.37,2.6-1.37a14.87,14.87,0,0,0,10.37-7.94c6.25-10.83-5.95-12.78-5.95-12.78,5.94-.57,9.95,5,11.35,7.37a5,5,0,0,0,2.06,1.93,7.23,7.23,0,0,0,7.19-.48C341.28,331.27,346.62,331.73,347.46,331.8Z" opacity="0.2"/><path d="M693.4,434.83l-8.25,49.09S674,534.65,648.85,533c0,0-23.1-2.47-30.53,2.48,0,0-7.83,6.6-31.35,1.24,0,0-9.07-2.89-16.5,0,0,0-4.53,5.77-19.8-13.2,0,0-14.43-16.92-18.15-44.55l-7.42-42.9,6.19-4.95,161.29-.42Z" fill="#cf8046"/><path d="M693.4,434.83l-1.18,7-.16,1-3.27,19.46-2.25,13.38-1.39,8.28s-.9,4.13-2.78,10c-4.72,14.69-15.54,40.26-33.52,39.08,0,0-23.1-2.47-30.52,2.48,0,0-7.84,6.6-31.35,1.23,0,0-9.08-2.88-16.51,0,0,0-4.53,5.78-19.79-13.2,0,0-8.09-9.47-13.71-25.82a96.93,96.93,0,0,1-4-15.83c-.16-.95-.31-1.92-.44-2.9l-1.64-9.48-3.78-21.83-.16-1-1.84-10.62,6.19-5,161.28-.41Z" opacity="0.2"/><path d="M437.1,445.28l87.43-18.12.57,8.91-92.53,20.75c-99.47,26.63-213.24-12.08-213.24-12.08-36.63-11.17-38.18-20.8-38.18-20.8-5.28-10.24,7.14-17.38,7.14-17.38-1.33-6.46-.1-10.36,1.05-12.41a5.63,5.63,0,0,1,3.76-2.83,5,5,0,0,1,2.41.09,5.27,5.27,0,0,1,3.66,4.13l5.53,28.9a9.13,9.13,0,0,0,6,6.91C233.65,439.4,336.23,469.77,437.1,445.28Z" fill="#8c4826"/><path d="M694.67,434.66,522.55,436a4.43,4.43,0,0,1-4.46-4.43h0a4.42,4.42,0,0,1,4.4-4.43L694.61,426a4.33,4.33,0,0,1,4.36,4.33h0A4.34,4.34,0,0,1,694.67,434.66Z" fill="#8c4826"/><path d="M692.22,441.83l-.16,1-160.61,4.72-4.35.13-1.08,0c-69.37,26.1-141.25,30.49-142,30.53-13.35.75-25.93,1.09-37.75,1.09-55.41,0-94.19-7.4-118.33-14.31-23.15-6.62-36.87-13.87-42.68-17.36,0-.4-.08-.8-.12-1.19,5.32,3.27,19.13,10.79,43.14,17.65,29.21,8.35,79.94,17.42,155.68,13.16.72,0,72.51-4.43,141.77-30.5a.37.37,0,0,1,.15,0l1,0,4-.12Z" fill="#8c4826"/><path d="M688.79,462.26l-2.25,13.38c-18.95,1.4-85.81,6.06-136,6.34-6.15,0-12.06,0-17.59-.12h-.44s-160.95,65.87-340.66-1.22c-1.46-4.92-2.64-9.7-3.59-14.23,24.94,13,143.61,65,342.6,3.08h0l12.43-.57Z" fill="#8c4826"/><path d="M567.86,537.53c-8.5,2.77-32.58-2-32.58-2-15.13-3.58-26.41,1.37-26.41,1.37C497.6,541.53,483,538,483,538a78.87,78.87,0,0,0-26.13,3.58c-21.45,4.68-31.35-3-31.35-3-19-5.78-39.33-.28-39.33-.28-20.9,4.4-27.22,1.37-27.22,1.37-12.1-2.2-23.93,3.3-23.93,3.3-10.72,6.33-32.17-3.85-32.17-3.85-9.08-3.57-25.58-1.92-25.58-1.92a46.06,46.06,0,0,1-23-6.67,17.17,17.17,0,0,0-5.33-2.11,116.69,116.69,0,0,0-21-2.21,28.43,28.43,0,0,0-5,.38c-7.07,1.14-10.07-.94-10.07-.94a145.86,145.86,0,0,1-10.65-18.12c28.35,7.48,204.19,49.92,334.65-9.77,5.62,16.35,13.71,25.82,13.71,25.82C559.79,534.84,565.07,537.35,567.86,537.53Z" fill="#8c4826"/><path d="M682.37,493.92c-4.72,14.69-15.54,40.26-33.52,39.08,0,0-23.1-2.47-30.52,2.48,0,0-7.84,6.6-31.35,1.23,0,0-9.08-2.88-16.51,0,0,0-4.53,5.78-19.79-13.2,0,0-8.09-9.47-13.71-25.82l.36-.16S640.1,500,682.37,493.92Z" fill="#8c4826"/><path d="M306.88,424l72.7,161.79s.83,3.78,6.5,3.26c0,0,4.85,0,2.48-4.43L314.72,422.73l-10.45-2.48Z" fill="#8c4826"/><path d="M306.88,424l72.7,161.79s.83,3.78,6.5,3.26c0,0,4.85,0,2.48-4.43L314.72,422.73l-10.45-2.48Z" opacity="0.2"/><path d="M325,443.26c-10.59-2.28-15.78,11.22-15.78,11.22l6.95.52c.31-2,1.71-6.76,7.79-6.33,0,0,6.35.24,7.86,7.5l5.23.39C337.21,443.47,325,443.26,325,443.26Z" fill="#8c4826"/><path d="M224.8,400.18s1.65,26.12,19.25,28.87c0,0,21.45,4.68,47.57-3l13.48-1.93c2.37,1.31,4.28.65,5.79.19a5.16,5.16,0,0,1,5.49,1.7c2.23,2.72,3.84,2.24,3.84,2.24,0-15.86-18.86-12.92-26-11.2a10.74,10.74,0,0,1-3.79.22L263.85,415c-18.7-3-16.5-21.73-16.5-21.73S234.7,392.2,224.8,400.18Z" fill="#f9ad9b"/><path d="M302.87,337.52c-1.46-3.11-3.35-10.07,5.14-15.54a2.94,2.94,0,0,0,1.34-2.61v-.23a4.84,4.84,0,0,0-1.25-3.07,6.12,6.12,0,0,0-2-1.48.35.35,0,0,1,.05-.67c1.55-.38,4.66-.48,7.75,3.24a.35.35,0,0,0,.52,0c.82-.84,3.43-3.23,6.19-3.29a.36.36,0,0,1,.27.61c-1.27,1.22-4,4.1-3,5.2a.39.39,0,0,0,.1.08l.43.22a4.83,4.83,0,0,1,1.3.95l.5.51s-5.76-1.65-7.45,1.72a.42.42,0,0,0,0,.15c0,.31-.17,1.6-2.26,2.24l-.06,0c-.15.09-.85.52-1.78,1.15a11.64,11.64,0,0,0-5.16,10c0,.19,0,.38,0,.57A.36.36,0,0,1,302.87,337.52Z" fill="#f48225" data-secondary="true"/><path d="M302.87,337.52c-1.46-3.11-3.35-10.07,5.14-15.54a2.94,2.94,0,0,0,1.34-2.61v-.23a4.84,4.84,0,0,0-1.25-3.07,6.12,6.12,0,0,0-2-1.48.35.35,0,0,1,.05-.67c1.55-.38,4.66-.48,7.75,3.24a.35.35,0,0,0,.52,0c.82-.84,3.43-3.23,6.19-3.29a.36.36,0,0,1,.27.61c-1.27,1.22-4,4.1-3,5.2a.39.39,0,0,0,.1.08l.43.22a4.83,4.83,0,0,1,1.3.95l.5.51s-5.76-1.65-7.45,1.72a.42.42,0,0,0,0,.15c0,.31-.17,1.6-2.26,2.24l-.06,0c-.15.09-.85.52-1.78,1.15a11.64,11.64,0,0,0-5.16,10c0,.19,0,.38,0,.57A.36.36,0,0,1,302.87,337.52Z" opacity="0.2"/><g clip-path="url(#fd9460f7-35b2-4300-b110-50728eb1ee81)"><rect x="844.33" y="-12.18" width="1104.13" height="706.64" fill="#9ef6f7"/><path d="M1593.28-12.18h355.18V99.22C1870.7,81.87,1770.34,77.65,1736.35,206s-155.68,220.83-320.59,163.23c-142.17-49.65-285.79,69.35-383,99.35s-155.88,1.86-188.38-5.18V361.19c68.25-2,133.45-37.93,172.37-105.5,47.72-82.84,155.55-93.81,286.83-101.55S1443.76,115.5,1508.9,43.73c24.89-27.43,55.75-44.85,84.38-55.91Zm-748.95,0V231.43C926,23.85,1328.21,158,1408.43-12.18h-168.7c-32.64,19.85-70.22,35.46-110.66,39-92.54,8.2-182.86-21.15-227.81-39ZM1948.46,161.17c-26.73-10.36-72.73-21.07-112.74,5.12-89.8,58.78-31.93,205.69-249,234.07,209-1.3,181.15-165.74,263.34-212.54,29.33-16.7,71.88-3,98.38,15V161.17ZM1492.9-12.18c-39.26,51.61-63.08,126.42-202.62,136,167,11.26,162.81-85.86,250-136Z" fill="#aefbfc" fill-rule="evenodd"/></g></svg>