<svg id="e8bece2e-e495-45e2-aa7b-9e061639f7d0" data-name="Layer 1" xmlns="http://www.w3.org/2000/svg" width="865.76" height="682.89" viewBox="0 0 865.76 682.89"><ellipse cx="235.6" cy="356.26" rx="48.05" ry="12.18" fill="#ccc"/><ellipse cx="235.6" cy="356.26" rx="48.05" ry="12.18" opacity="0.2"/><path d="M283.9,356.26V368.7a5.41,5.41,0,0,1-3,4.89,103.36,103.36,0,0,1-90.25,0,5.41,5.41,0,0,1-3-4.89V356.26c0,6.71,21.5,12.18,48,12.18s48-5.47,48-12.18Z" fill="#ccc"/><path d="M266,340.34c0,4.06-13.49,7.36-30.17,7.36s-30.17-3.3-30.17-7.36,13.53-7.4,30.17-7.4S266,336.24,266,340.34Z" fill="#ccc"/><path d="M266,340.34c0,4.06-13.49,7.36-30.17,7.36s-30.17-3.3-30.17-7.36,13.53-7.4,30.17-7.4S266,336.24,266,340.34Z" opacity="0.2"/><path d="M266.24,352.23a5,5,0,0,1-3.26,4.83,77,77,0,0,1-54,0,5.07,5.07,0,0,1-3.27-4.79V340.34c0,4.06,13.53,7.36,30.17,7.36S266,344.4,266,340.34Q266.14,346.27,266.24,352.23Z" fill="#ccc"/><path d="M228.86,163h13.74a1.68,1.68,0,0,1,1.68,1.68V339.27a4,4,0,0,1-4,4h-9a4,4,0,0,1-4-4V164.7A1.68,1.68,0,0,1,228.86,163Z" fill="#ccc"/><ellipse cx="139.44" cy="454.93" rx="48.05" ry="12.18" fill="#ccc"/><ellipse cx="139.44" cy="454.93" rx="48.05" ry="12.18" opacity="0.2"/><path d="M187.74,454.93v12.44a5.43,5.43,0,0,1-3,4.9,103.38,103.38,0,0,1-90.26,0,5.42,5.42,0,0,1-3-4.9V454.93c0,6.71,21.51,12.19,48.05,12.19s48.05-5.48,48.05-12.19Z" fill="#ccc"/><path d="M169.86,439c0,4.06-13.49,7.36-30.17,7.36s-30.17-3.3-30.17-7.36,13.53-7.4,30.17-7.4S169.86,434.92,169.86,439Z" fill="#ccc"/><path d="M169.86,439c0,4.06-13.49,7.36-30.17,7.36s-30.17-3.3-30.17-7.36,13.53-7.4,30.17-7.4S169.86,434.92,169.86,439Z" opacity="0.2"/><path d="M170.08,450.91a5,5,0,0,1-3.26,4.82,76.9,76.9,0,0,1-54,0,5.07,5.07,0,0,1-3.27-4.78V439c0,4.06,13.53,7.36,30.17,7.36s30.17-3.3,30.17-7.36C169.94,443,170,446.92,170.08,450.91Z" fill="#ccc"/><path d="M132.7,261.7h13.74a1.68,1.68,0,0,1,1.68,1.68V437.94a4,4,0,0,1-4,4h-9a4,4,0,0,1-4-4V263.38a1.68,1.68,0,0,1,1.68-1.68Z" fill="#ccc"/><path d="M223,137.09l-.15-33.46a8,8,0,0,1,8-8h22v5.31L272.44,89.6,253.26,78.05v5.77h-35a8,8,0,0,0-8,8v45.61Z" fill="#a7a9ac"/><path d="M295,89.72a62.1,62.1,0,1,0-41,77.66A62.1,62.1,0,0,0,295,89.72Zm-59,65a47.13,47.13,0,1,1,47.13-47.13A47.13,47.13,0,0,1,236,154.75Z" fill="#bcbec0"/><path d="M198.9,190a62.1,62.1,0,1,0-41,77.66A62.09,62.09,0,0,0,198.9,190Zm-59-29.22a46.89,46.89,0,0,1,30.8,11.51L140,196.14l-25.61-27.9A46.9,46.9,0,0,1,139.89,160.74Zm-36.62,17.48,24.83,27.21L97.82,229a47,47,0,0,1,5.45-50.81ZM139.89,255a47,47,0,0,1-33.14-13.62l31.57-24.74L166.08,247A46.89,46.89,0,0,1,139.89,255Zm37.29-18.38-26.93-29.34,30.05-23.55a46.88,46.88,0,0,1-3.12,52.89Z" fill="#bcbec0"/><polygon points="265.5 599.12 260.35 637.58 239.54 635.21 244.63 596.66 265.5 599.12" fill="#686175" data-primary="true"/><polygon points="260.69 634.93 239.89 632.49 239.54 635.21 260.35 637.58 260.69 634.93" fill="#2f2e41"/><g opacity="0.3"><polygon points="263.58 614.67 262.97 618.08 242.05 616.17 242.5 612.75 263.58 614.67"/></g><polygon points="332.14 601.69 329.76 640.43 308.84 639.57 311.13 600.75 332.14 601.69" fill="#686175" data-primary="true"/><polygon points="329.93 637.76 309 636.82 308.84 639.57 329.76 640.43 329.93 637.76" fill="#2f2e41"/><g opacity="0.3"><polygon points="331.33 617.35 330.96 620.79 309.97 620.39 310.18 616.95 331.33 617.35"/></g><path d="M253.86,420.8c-.6,0-2.5,25.55-2,34s1,73.91,1,73.91-4.43,3-4.43,6.92S240.46,612,240.46,612l23.88,4s21.75-78.86,22.24-89.76,15.87-85.82,15.87-85.82,5,70.93,5,81.85-.21,94.88-.21,94.88,17.69,2.5,26.19.47c0,0,7.25-63.12,7.25-84V499.92s8.44-39.23,12.4-59,0-38.75,0-38.75l-71.42-9.36Z" fill="#2f2e41"/><path d="M389.92,239.08a23,23,0,0,1,2.23-9.88c2.41-4.81,9.62-12.87,9.62-12.87s10-7.73,11-7.22,1.37,1.72,0,2.92-6.7,7.39-6.7,7.39,2.24.85,2.24,2.4a4.06,4.06,0,0,1-.52,2.31s2.06,1,2.57,2.2a6.21,6.21,0,0,1,.52,2.24,1.75,1.75,0,0,1,1.37,1.71,9.26,9.26,0,0,1-.17,2.92s-3.77,4.3-5.32,4.81l-3.61,1.15-1.35,1.8v5Z" fill="#f9b499"/><path d="M237.49,277.21s-36,63.54-36.15,73.51c-.27,17.72,50.06,32,50.06,32l7.09-20.23-25.66-17.77,18.67-40.51Z" fill="#686175" data-primary="true"/><path d="M237.49,277.21a33,33,0,0,1,16.16-6.66c9.8-1.15,27.31-1.49,27.31-1.49s47.52-10.38,51.08-8.31,8.32,14.84,9.23,20.76-4,62.48-4,62.48,21.25,65.76,19.78,67.89c-.73,1-26.4,10-52.32,12l-1.45-19.23-3.05,17.9c-24.1,1.8-51.46,2.69-51.46,2.69s18.77-65.2,18.18-67S235,283.56,237.49,277.21Z" fill="#686175" data-primary="true"/><path d="M332.06,260.73s17.47,9.87,19.53,9.64,4.12-3.67,6.87-.93l15.34-2.74,15.35-27.89a49.34,49.34,0,0,1,15.34,9.39s-8.48,29.08-13.74,33.46-25.5,19.45-53.75,19.68l-3.46-23.17Z" fill="#686175" data-primary="true"/><path d="M251.82,381.52s.72,2.6,4.86-.32c0,0,5.77-1.15,8.74-4s3.47-4.62,5.54-4.74,8.08-1,8.2-.94,1.64-3.4-.24-4-10.22.18-10.22.18l-2.43.15-.42-3.33.47-3s-5.09,1.95-5,3.34c0,0-3.63-1.06-4.11,1.35Z" fill="#f9b499"/><path d="M234.41,344.7c0,.17-2.72.71-5.93,1.93s-5.63,2.6-5.76,2.45a23.87,23.87,0,0,1,11.69-4.38Z" fill="#263238"/><g opacity="0.3"><path d="M248.14,311.76c-3.9-1.6-7.38-6.31-8.18-10.45s.86-8.41,1.44-12.59a183.59,183.59,0,0,0,6.74,23.08"/></g><g opacity="0.3"><path d="M320.58,253.74l-55.37,85.37c13.52,6.79,30.57,10.17,43.35,2.07,3.54,4.36,11.13,2.78,14.58-1.67S327,329,327,323.36C327.26,300.05,323.89,276.89,320.58,253.74Z"/></g><path d="M298.3,193.29c-5.95-1-12.09,1.6-16.52,5.69s-7.4,9.51-9.78,15.06c-4.61,10.8-7.33,22.32-10,33.76-4,16.87-7.89,33.83-8.94,51.12s4.12,27.49,11.54,43.13L291,338.39v-5l3.56,5,10.24-1.58s3.06-26.77,3.06-26.69,4.88,25.5,4.88,25.5l8.54-.8c8.48-33.63-1.15-55.77,3.7-90.11,1.16-8.17,3-16.3,2.95-24.55s-2.17-16.88-7.86-22.84-15.51-8.43-22.5-4" fill="#2f2e41"/><path d="M304.77,336.81a1.64,1.64,0,0,1-.1-.38,7.49,7.49,0,0,0-.22-1.16l-.78-4.39c-.65-3.82-1.55-9.36-2.31-16.23A179.66,179.66,0,0,1,300,290.34,137.72,137.72,0,0,1,301.1,276a119.89,119.89,0,0,1,3.11-15.14c2.91-10.19,7-19.46,9-28.39a56.51,56.51,0,0,0,1.57-12.82,36.23,36.23,0,0,0-1.68-11.08,30.65,30.65,0,0,0-4.21-8.23,24.92,24.92,0,0,0-4.87-5,23.42,23.42,0,0,0-3.76-2.31l-1-.47a1.7,1.7,0,0,1-.35-.19l.37.13,1.09.43a21.34,21.34,0,0,1,3.84,2.3,25.2,25.2,0,0,1,5,5,29.93,29.93,0,0,1,4.35,8.3,35.57,35.57,0,0,1,1.78,11.21,56.93,56.93,0,0,1-1.52,12.94c-2,9-6,18.3-8.92,28.43a120.82,120.82,0,0,0-3.11,15.06,139,139,0,0,0-1.15,14.28,186.87,186.87,0,0,0,1.15,24.23c.77,6.92,1.6,12.41,2.17,16.24.29,1.89.51,3.37.67,4.41.07.48.13.86.16,1.15A2,2,0,0,1,304.77,336.81Z" opacity="0.2"/><path d="M267.69,319.29a.86.86,0,0,1,0-.32,9.14,9.14,0,0,0-.12-.93l-.38-3.64c-.08-.79-.16-1.67-.25-2.63s-.13-2-.2-3.12c-.12-2.25-.32-4.81-.33-7.65,0-1.42,0-2.91-.09-4.46s.06-3.15.09-4.82c0-3.33.26-6.92.48-10.64a207.71,207.71,0,0,1,9.21-47.86q1.72-5.35,3.46-10.06c.6-1.56,1.15-3.08,1.72-4.51l1.73-4.11c1.06-2.63,2.2-4.93,3.13-6.92.49-1,.93-2,1.35-2.84l1.16-2.31c.73-1.37,1.29-2.45,1.71-3.23l.45-.83c.1-.2.15-.29.17-.28a1.34,1.34,0,0,1-.12.3c-.1.22-.24.51-.4.87-.39.78-.92,1.88-1.6,3.28-.35.71-.74,1.5-1.16,2.3s-.83,1.83-1.29,2.85c-.91,2.06-2,4.36-3.06,7-.54,1.3-1.09,2.67-1.68,4.1s-1.16,3-1.69,4.51c-1.21,3.11-2.3,6.5-3.46,10.05a213.94,213.94,0,0,0-9.18,47.71c-.23,3.72-.51,7.28-.54,10.6,0,1.66-.12,3.28-.11,4.81s0,3,0,4.44c0,2.84.17,5.39.25,7.64,0,1.15.09,2.17.13,3.14s.15,1.82.21,2.62c.12,1.54.21,2.77.27,3.64V319A1.43,1.43,0,0,1,267.69,319.29Z" opacity="0.2"/><path d="M282.27,339.6a.74.74,0,0,0-.12-.31,7.52,7.52,0,0,1-.3-1c-.27-.88-.64-2.1-1.15-3.66-.23-.79-.5-1.68-.79-2.65s-.5-2-.79-3.2c-.52-2.3-1.27-4.89-1.75-7.82-.27-1.46-.56-3-.86-4.61s-.47-3.28-.73-5-.54-3.46-.65-5.38-.33-3.76-.49-5.76a184.92,184.92,0,0,1,.19-25.57,199.93,199.93,0,0,1,3.82-25.29q.68-2.87,1.3-5.59c.41-1.83.95-3.55,1.4-5.23.87-3.39,1.89-6.48,2.79-9.32s1.84-5.34,2.62-7.58,1.53-4.12,2.15-5.65l1.45-3.55.39-.91a1.77,1.77,0,0,1,.15-.31,1.89,1.89,0,0,1-.09.34l-.34.93-1.34,3.58c-.56,1.52-1.32,3.46-2.06,5.68s-1.7,4.75-2.53,7.61-1.86,5.93-2.71,9.31c-.44,1.68-1,3.46-1.36,5.22l-1.28,5.6a206,206,0,0,0-3.76,25.21,188.41,188.41,0,0,0-.25,25.48c.17,1.95.32,3.85.47,5.71s.43,3.62.63,5.37.38,3.4.69,5,.56,3.12.81,4.62c.46,2.93,1.15,5.52,1.66,7.83.28,1.15.49,2.22.75,3.2s.51,1.85.74,2.66l1,3.68c.1.4.18.72.25,1A2.22,2.22,0,0,1,282.27,339.6Z" opacity="0.2"/><path d="M319.32,323.36a2.26,2.26,0,0,1-.13-.33l-.48-1-.76-1.63c-.28-.65-.59-1.42-.93-2.3a81.7,81.7,0,0,1-4.42-15,85,85,0,0,1,.79-36.61c1.1-4.61,2.55-9.32,4-14.12s2.9-9.49,3.92-14.1a69.39,69.39,0,0,0,1.81-13.46,43.8,43.8,0,0,0-1.24-12.18,31.87,31.87,0,0,0-4.31-9.74,27.15,27.15,0,0,0-11.53-10,23.53,23.53,0,0,0-4-1.29l-1.08-.21a1.5,1.5,0,0,1-.36-.11H301l1.15.16a23.25,23.25,0,0,1,4.09,1.16,26.81,26.81,0,0,1,11.8,10,31.54,31.54,0,0,1,4.43,9.84,43.7,43.7,0,0,1,1.33,12.32A70.69,70.69,0,0,1,322,238.33c-1,4.61-2.45,9.34-3.92,14.15s-2.92,9.49-4,14.08A85.83,85.83,0,0,0,311.86,280a87.33,87.33,0,0,0,5.43,37.91c.34.85.64,1.61.89,2.31l.72,1.65.41,1A1.34,1.34,0,0,1,319.32,323.36Z" opacity="0.2"/><ellipse cx="653.41" cy="356.15" rx="48.05" ry="12.18" fill="#ccc"/><ellipse cx="653.41" cy="356.15" rx="48.05" ry="12.18" opacity="0.2"/><path d="M701.71,356.15v12.43a5.43,5.43,0,0,1-3,4.9,103.38,103.38,0,0,1-90.26,0,5.42,5.42,0,0,1-3-4.9V356.15c0,6.7,21.51,12.18,48,12.18s48.05-5.48,48.05-12.18Z" fill="#ccc"/><path d="M683.84,340.23c0,4.06-13.49,7.36-30.17,7.36s-30.18-3.3-30.18-7.36,13.53-7.4,30.18-7.4S683.84,336.13,683.84,340.23Z" fill="#ccc"/><path d="M683.84,340.23c0,4.06-13.49,7.36-30.17,7.36s-30.18-3.3-30.18-7.36,13.53-7.4,30.18-7.4S683.84,336.13,683.84,340.23Z" opacity="0.2"/><path d="M684.05,352.12a5,5,0,0,1-3.26,4.82,76.9,76.9,0,0,1-54,0,5.06,5.06,0,0,1-3.27-4.78V340.23c0,4.06,13.53,7.36,30.18,7.36s30.17-3.3,30.17-7.36C683.91,344.18,684,348.13,684.05,352.12Z" fill="#ccc"/><path d="M646.67,162.91h13.74a1.68,1.68,0,0,1,1.68,1.68V339.16a4,4,0,0,1-4,4h-9a4,4,0,0,1-4-4V164.59a1.68,1.68,0,0,1,1.68-1.68Z" fill="#ccc"/><ellipse cx="490.11" cy="356.15" rx="48.05" ry="12.18" fill="#ccc"/><ellipse cx="490.11" cy="356.15" rx="48.05" ry="12.18" opacity="0.2"/><path d="M538.42,356.15v12.43a5.42,5.42,0,0,1-3,4.9,103.39,103.39,0,0,1-90.26,0,5.43,5.43,0,0,1-3-4.9V356.15c0,6.7,21.5,12.18,48,12.18s48-5.48,48-12.18Z" fill="#ccc"/><path d="M520.54,340.23c0,4.06-13.49,7.36-30.17,7.36s-30.17-3.3-30.17-7.36,13.52-7.4,30.17-7.4S520.54,336.13,520.54,340.23Z" fill="#ccc"/><path d="M520.54,340.23c0,4.06-13.49,7.36-30.17,7.36s-30.17-3.3-30.17-7.36,13.52-7.4,30.17-7.4S520.54,336.13,520.54,340.23Z" opacity="0.2"/><path d="M520.76,352.12a5,5,0,0,1-3.27,4.82,76.9,76.9,0,0,1-54,0,5.06,5.06,0,0,1-3.26-4.78V340.23c0,4.06,13.52,7.36,30.17,7.36s30.17-3.3,30.17-7.36C520.61,344.18,520.68,348.13,520.76,352.12Z" fill="#ccc"/><path d="M483.38,162.91h13.74a1.68,1.68,0,0,1,1.68,1.68V339.16a4,4,0,0,1-4,4h-9a4,4,0,0,1-4-4V164.59A1.68,1.68,0,0,1,483.38,162.91Z" fill="#ccc"/><path d="M605.41,216.66h-31.6v68.76h14.34l.32-23.77h16.94a22.49,22.49,0,0,0,22.49-22.49h0A22.49,22.49,0,0,0,605.41,216.66Zm7.7,21.64a9.88,9.88,0,0,1-9.88,10H588.15V228.46l15.12.06a9.89,9.89,0,0,1,9.84,9.78Z" fill="#a7a9ac"/><path d="M723.42,142.77,668.9,43.92a18.57,18.57,0,0,0-9.76-8.68,16.22,16.22,0,0,0-14,1.53A18.45,18.45,0,0,0,638.38,44l-53.92,99.29a20.83,20.83,0,0,0-2.63,8.78,16.76,16.76,0,0,0,6,14.13,21.33,21.33,0,0,0,14,4.87l105.75-.44a19.28,19.28,0,0,0,10.68-3c5.85-3.91,7.45-9.76,7.68-14.34A19.81,19.81,0,0,0,723.42,142.77Zm-14.57,17H598.31a5.5,5.5,0,0,1-4.82-8.13L649.2,49.57a5.5,5.5,0,0,1,9.67,0l54.82,102.11A5.5,5.5,0,0,1,708.85,159.81Z" fill="#bcbec0"/><rect x="646.55" y="72.86" width="14.99" height="52.75" rx="2.07" fill="#a7a9ac"/><circle cx="654.05" cy="134.55" r="5.83" fill="#a7a9ac"/><polygon points="415.13 75.01 457.77 31.58 518.41 31.58 561.84 74.62 561.84 136.04 518.8 179.08 458.56 179.08 414.74 136.43 415.13 75.01" fill="#bcbec0"/><path d="M517.41,175.05H460.3l-41.54-40.31.37-58.06,40.42-41.05H517l41.17,40.68v58.06l-.32.31Zm-56.25-2.12h55.37l39.56-39.44V77.19L516.17,37.75H460.44l-39.19,39.8-.36,56.3Z" fill="#fff"/><path d="M439.77,127.22q-3-3.33-3-10.75v-4.84h9.72v6.16q0,3.67,2.36,3.68a2,2,0,0,0,1.84-.78,4.84,4.84,0,0,0,.52-2.61,11.67,11.67,0,0,0-.58-4,8.69,8.69,0,0,0-1.46-2.65c-.6-.71-1.66-1.81-3.2-3.3l-4.25-4.26q-5-4.83-5-10.7,0-6.33,2.9-9.64c1.94-2.2,4.77-3.31,8.49-3.31q6.68,0,9.61,3.54t2.93,11.08H450.64l-.05-3.4a2.17,2.17,0,0,0-.55-1.55,2,2,0,0,0-1.53-.58,2.18,2.18,0,0,0-1.72.64,2.47,2.47,0,0,0-.58,1.72q0,2.42,2.76,5l5.76,5.52a32.35,32.35,0,0,1,3.33,3.71,14.43,14.43,0,0,1,2.13,4.14,17.69,17.69,0,0,1,.81,5.67q0,7.31-2.68,11.07t-8.83,3.77C445,130.56,441.76,129.45,439.77,127.22Z" fill="#a7a9ac"/><path d="M469.68,130.1V90.18h-5.86v-9.5h21.63v9.5h-5.87V130.1Z" fill="#a7a9ac"/><path d="M492.06,126.91q-3.1-3.66-3.11-10.27V93.11q0-6.39,3.11-9.64t9.09-3.25q6,0,9.09,3.25t3.11,9.64v23.53q0,6.67-3.11,10.3t-9.09,3.62Q495.17,130.56,492.06,126.91Zm10.87-6.59a8.9,8.9,0,0,0,.46-3.22V92.94a6.66,6.66,0,0,0-.43-2.62,1.71,1.71,0,0,0-1.75-1q-2.47,0-2.48,3.74v24.11a7.88,7.88,0,0,0,.52,3.22,1.91,1.91,0,0,0,1.9,1.09A1.74,1.74,0,0,0,502.93,120.32Z" fill="#a7a9ac"/><path d="M518.47,80.68h13q5.93,0,8.46,3.83t2.53,11.19q0,7.36-2.24,11.1c-1.5,2.5-4.18,3.74-8.06,3.74h-4V130.1h-9.72Zm10.29,20.94a4.22,4.22,0,0,0,2.62-.66,3.1,3.1,0,0,0,1.09-1.9,17.68,17.68,0,0,0,.26-3.53A10.72,10.72,0,0,0,532,91a2.78,2.78,0,0,0-2.76-1.38h-1.09v12Z" fill="#a7a9ac"/><ellipse cx="593.84" cy="495.13" rx="48.05" ry="12.18" fill="#ccc"/><ellipse cx="593.84" cy="495.13" rx="48.05" ry="12.18" opacity="0.2"/><path d="M642.14,495.13v12.44a5.43,5.43,0,0,1-3,4.89,103.38,103.38,0,0,1-90.26,0,5.42,5.42,0,0,1-3.05-4.89V495.13c0,6.71,21.51,12.18,48.05,12.18s48-5.47,48-12.18Z" fill="#ccc"/><path d="M624.26,479.21c0,4.06-13.49,7.36-30.17,7.36s-30.17-3.3-30.17-7.36,13.53-7.4,30.17-7.4S624.26,475.11,624.26,479.21Z" fill="#ccc"/><path d="M624.26,479.21c0,4.06-13.49,7.36-30.17,7.36s-30.17-3.3-30.17-7.36,13.53-7.4,30.17-7.4S624.26,475.11,624.26,479.21Z" opacity="0.2"/><path d="M624.48,491.1a5,5,0,0,1-3.26,4.82,76.9,76.9,0,0,1-54,0,5.06,5.06,0,0,1-3.27-4.78V479.21c0,4.06,13.53,7.36,30.17,7.36s30.17-3.3,30.17-7.36C624.34,483.16,624.41,487.11,624.48,491.1Z" fill="#ccc"/><path d="M587.1,301.89h13.74a1.68,1.68,0,0,1,1.68,1.68V478.14a4,4,0,0,1-4,4h-9a4,4,0,0,1-4-4V303.57a1.68,1.68,0,0,1,1.68-1.68Z" fill="#ccc"/><path d="M593.94,184.8A62.11,62.11,0,1,0,656,246.91,62.11,62.11,0,0,0,593.94,184.8Zm0,13.66a48.25,48.25,0,0,1,33.4,13.4L550.57,268.4a48.36,48.36,0,0,1,43.37-69.94Zm0,96.9a48.26,48.26,0,0,1-35.55-15.62L636,222.92a48.4,48.4,0,0,1-42.06,72.44Z" fill="#bcbec0"/><path d="M363,527.63S357.42,559,357,586.38s.19,43.15,2.34,46.69,6.13,4.45,12.35,5,27.31,1,32.1-.72,4.21-8,4.59-12.63,0-16.17,0-16.17,14.16.79,15.57,1,7.42.26,7.42.26,2,3.33,4.93,4.14,11.1,1.1,14.3,1a13.91,13.91,0,0,0,9.43-4.35l9.9.57s1.44,2,3.21,2.16a68.38,68.38,0,0,0,8,.24c1.11-.2,8.38-5.36,12.78-5.75,3.43-.29,28.54-.42,39.48-.46s36,.17,39.47.46c4.41.39,11.68,5.55,12.78,5.75a68.54,68.54,0,0,0,8-.24c1.77-.15,3.2-2.16,3.2-2.16l9.91-.57a13.89,13.89,0,0,0,9.42,4.35c3.21.1,11.39-.19,14.31-1s4.92-4.14,4.92-4.14,6,0,7.42-.26,15.57-1,15.57-1-.38,11.58,0,16.17-.19,10.91,4.59,12.63,25.89,1.24,32.11.72,10.19-1.44,12.34-5,2.73-19.33,2.34-46.69-5.93-58.75-5.93-58.75L686.61,586.5s-68.12-.39-70.23-.77-59.13,1.34-59.13,1.34l-23.83,2.3v0l-23.83-2.3s-57-1.72-59.13-1.34-70.23.77-70.23.77Z" fill="#2f2e41" fill-rule="evenodd"/><circle cx="617.08" cy="601.87" r="12.41" transform="translate(-56.3 63.74) rotate(-5.65)" fill="#ccc"/><circle cx="617.31" cy="602.29" r="10.75" fill="#a7a9ac"/><circle cx="617.31" cy="602.29" r="10.11" fill="#ccc"/><circle cx="617.31" cy="602.29" r="9.47" fill="#a7a9ac"/><path d="M628.06,609.46s19.28-.81,24.16-1.24,6.21-.43,6.21-.43l-.86-4.5-4.35-.24s0,1.63-1.48,1.44a1.91,1.91,0,0,1-1.77-1.3s-11.77-1.81-13.83-1.05-2.63.72-1.53,2.82.86,3-.62,3-5.17.09-5.17.09Z" fill-rule="evenodd" opacity="0.2"/><path d="M707.9,605.58S708,600,704.41,600s-6.85-.62-9.72-3.88-5.69-9.52-6.6-11.77S684,570.66,684,572.62c0,11,3.39,21.68,8.13,31.53,2.54,5.26,5.74,9,8.13,9.19s4.55,0,5.55.33a5.73,5.73,0,0,1,2.11,1.63l0-8.81a29.79,29.79,0,0,1-7.56-.57c-2.87-.81-5.07-3.78-5.07-3.78s3.78,2.63,6.51,3.16a28.64,28.64,0,0,0,6.17.28Zm-1.68,9.14c1.34.34,1.82,2.54,1.82,3.59v7.75s-.57-1-2.49-.86-6.5.19-8.7-1.1-5.84-5.65-7.8-11.05-3.49-10.72-3.49-10.72,2,10.62,4.11,15.45,7.08,8.66,10.33,8.52a38.12,38.12,0,0,1,6.32,0c1.24.19,1.43,1.53,1.48,2.87a5.68,5.68,0,0,1-1.53,3.68c-.62.48-6.51.44-9.23,0s-7.23-5-8.95-9-2.92-7.66-2.92-7.66.82,7.75,3.3,10.86,4.84,5.79,7.47,6.56a42.73,42.73,0,0,0,7.36,1s-7.65.72-11.48.19-6.55-5.55-6.55-5.55,1.29,3.88,2.82,4.93,1.82,1.2,1.82,1.2-10.14,0-12.3-.05.1-.33,2.11-2.15,3-6.17,3-6.17-4,6.26-6.56,7.55c-2.13,1.07-6.54,1.19-8.37,1.09h0s-4.5.06-5.46-.51-2.15-2.44-1-2.82a32.22,32.22,0,0,1,5.55-.37h0c1.54-.3,7-.94,8.71-2.65a27.39,27.39,0,0,0,6.12-9.76,26.36,26.36,0,0,0,1.1-7.17s-1.15,7.94-4.83,11.86-5.31,5.6-8.8,6.22c-1.92.34-2.93.57-3.47.59h0s-3.28.22-3.95.18a2.15,2.15,0,0,0-1.34.57s-.72-4,0-4.35,6.34-.91,6.34-.91c1.86-.46,4.69-1,5.62-1.34,1.18-.44-5.31.92-6.84.9h0c-1.25.11-5.41.68-5.41.68s-.24-2.68,1.06-3.26a12.88,12.88,0,0,1,3.9-.57c0-.09,0-.14,0-.14s6.79-1.06,9.66-3.64,5-5.84,6.51-11.63a40.21,40.21,0,0,0,1.2-10.9s-2.64,15-7,19.9a15.76,15.76,0,0,1-10.52,5.21,28.83,28.83,0,0,0-3.45.34,2,2,0,0,0-1.43,1l.28-7.94H665c.34-.09,3.35.67,5.89-1.24s.33-.24-1.77.14a13.41,13.41,0,0,1-2.52.29h0c-1.86.18-6.57-.1-6.57-.1s0-1.15,0-2,.53-1.67,2-2a29.59,29.59,0,0,1,4.06-.33,9.71,9.71,0,0,0,3.35-.86,13.09,13.09,0,0,0,6.89-6.37,57.86,57.86,0,0,0,4.83-13.58,86,86,0,0,0,1.29-11.34s-3.25,15.59-6.89,22c-3.2,5.6-5.62,7.42-7.56,8h0a26.09,26.09,0,0,1-5.64.59,3.23,3.23,0,0,0-2.2,1.15l.29-7.94a33.5,33.5,0,0,0,4.73-.58l.06,0a51.82,51.82,0,0,0,6.45-3c2.92-1.68-5.65,2.06-6.17,2.1-1.68.82-5.22.67-5.22.67s0-3.35,0-4.4,1-2,3.06-2.58,4.54-.2,6.31-1.17a16,16,0,0,0,4.55-3.9c3-3.93,6.32-15.89,6.32-15.89l3,3.06s1.06,16.56,4.79,24.5,6.41,13.11,10.24,13.78a43.42,43.42,0,0,0,7.6.57ZM660.63,584a28.25,28.25,0,0,0,6.17-.29c2.73-.52,6.51-3.15,6.51-3.15s-2.2,3-5.07,3.78a29.79,29.79,0,0,1-7.56.57l0,8.8a5.64,5.64,0,0,1,2.11-1.62c1-.29,3.15-.1,5.54-.34s5.6-3.92,8.14-9.18,7-18.9,7-18.9-3.06,5.79-3.06,3.82,1-7,.1-4.73-3.73,8.51-6.61,11.77-6.12,3.87-9.71,3.87-3.49,5.6-3.49,5.6Zm47.27,17.51s-.86-2.3-4.31-2.68a10,10,0,0,1-8.23-5c-2.29-3.54-6-10.34-7.56-15.89s10.82.86,14.64,2.68,5.07,3.64,5.07,8.42a10.33,10.33,0,0,0-2.44-1.24,57.74,57.74,0,0,0-7.43-.62,41,41,0,0,0,5.26.9c2.65.34,4.42,1.61,4.66,2.35s.34,11.05.34,11.05Zm-.34-17.8c-1.24-3.54-6.41-7.36-7.27-9.76s-.38-5.74-.57-11.57,1.48-17.08,2.15-17.18,3.92,1,4.07,1.39.71,15.4.71,15.4L703,558.21a1.17,1.17,0,0,0,.57,1.21c.77.57,2.73,2.72,3,4a42.41,42.41,0,0,1,.38,5s-3.25-2.87-3.59-3-.09,1-.09,1,3.25,2.39,3.82,4.11S707.56,583.67,707.56,583.67Z" fill-rule="evenodd" opacity="0.2"/><path d="M533.42,601.81c-7.95,0-63.68.05-64.12.19s-.53,5.45-.33,5.93,2,3.83,3.2,4.11a53.43,53.43,0,0,0,8.47.53c.72-.19,7.94-5.31,12.15-5.36,3.62,0,32.61-.61,40.63-.77,8,.16,37,.73,40.62.77,4.21,0,11.44,5.17,12.15,5.36a53.36,53.36,0,0,0,8.47-.53c1.2-.28,3-3.63,3.21-4.11s.14-5.79-.34-5.93-56.17-.19-64.11-.19Zm54.9,3.2A2.4,2.4,0,1,1,586,607.4a2.36,2.36,0,0,1,2.32-2.39Zm-109.81,0a2.4,2.4,0,1,1-2.32,2.39A2.36,2.36,0,0,1,478.51,605Z" fill-rule="evenodd" opacity="0.2"/><path d="M469.46,610.61s-50-2-54.84-2.39-6.22-.43-6.22-.43l.86-4.5,4.35-.24s-.05,1.63,1.49,1.44a1.91,1.91,0,0,0,1.77-1.3s11.76-1.81,13.82-1.05,2.63.72,1.53,2.82-.86,3,.62,3,35.85,1.24,35.85,1.24Z" fill-rule="evenodd" opacity="0.2"/><path d="M358.93,605.58s-.09-5.59,3.5-5.59,6.84-.62,9.71-3.88,5.69-9.52,6.6-11.77,4.12-13.68,4.12-11.72c0,11-3.39,21.68-8.14,31.53-2.53,5.26-5.74,9-8.13,9.19s-4.55,0-5.55.33a5.73,5.73,0,0,0-2.11,1.63l.05-8.81a29.79,29.79,0,0,0,7.56-.57c2.87-.81,5.07-3.78,5.07-3.78s-3.78,2.63-6.5,3.16a28.73,28.73,0,0,1-6.18.28Zm1.68,9.14c-1.34.34-1.82,2.54-1.82,3.59v7.75s.58-1,2.49-.86,6.51.19,8.71-1.1,5.83-5.65,7.79-11.05,3.5-10.72,3.5-10.72-2,10.62-4.12,15.45-7.08,8.66-10.33,8.52a38.14,38.14,0,0,0-6.32,0c-1.24.19-1.43,1.53-1.48,2.87a5.68,5.68,0,0,0,1.53,3.68c.62.48,6.51.44,9.23,0s7.23-5,8.95-9,2.92-7.66,2.92-7.66-.81,7.75-3.3,10.86-4.83,5.79-7.46,6.56a42.92,42.92,0,0,1-7.37,1s7.65.72,11.48.19,6.55-5.55,6.55-5.55-1.29,3.88-2.82,4.93-1.82,1.2-1.82,1.2,10.15,0,12.3-.05-.1-.33-2.11-2.15-3-6.17-3-6.17,4,6.26,6.55,7.55c2.13,1.07,6.54,1.19,8.37,1.09h0s4.5.06,5.46-.51,2.15-2.44,1-2.82A32.22,32.22,0,0,0,400,632h0c-1.53-.3-7-.94-8.7-2.65s-5-5.93-6.13-9.76a26.36,26.36,0,0,1-1.1-7.17s1.15,7.94,4.83,11.86,5.31,5.6,8.81,6.22c1.91.34,2.92.57,3.46.59h0s3.28.22,4,.18a2.15,2.15,0,0,1,1.34.57s.72-4,0-4.35-6.34-.91-6.34-.91c-1.85-.46-4.69-1-5.62-1.34-1.18-.44,5.31.92,6.84.9h0c1.25.11,5.41.68,5.41.68s.24-2.68-1.05-3.26a13,13,0,0,0-3.91-.57c0-.09,0-.14,0-.14s-6.79-1.06-9.66-3.64-5-5.84-6.51-11.63a40,40,0,0,1-1.19-10.9s2.63,15,7,19.9a15.77,15.77,0,0,0,10.53,5.21,28.72,28.72,0,0,1,3.44.34,2,2,0,0,1,1.44,1l-.29-7.94H401.8c-.33-.09-3.35.67-5.88-1.24s-.34-.24,1.77.14a13.25,13.25,0,0,0,2.51.29h0c1.86.18,6.58-.1,6.58-.1s0-1.15,0-2-.53-1.67-2-2a29.81,29.81,0,0,0-4.07-.33,9.71,9.71,0,0,1-3.35-.86,13.13,13.13,0,0,1-6.89-6.37,57.86,57.86,0,0,1-4.83-13.58,86,86,0,0,1-1.29-11.34s3.25,15.59,6.89,22c3.2,5.6,5.62,7.42,7.56,8h0a26.16,26.16,0,0,0,5.64.59,3.23,3.23,0,0,1,2.2,1.15l-.28-7.94a33.79,33.79,0,0,1-4.74-.58l-.06,0a52.53,52.53,0,0,1-6.45-3c-2.92-1.68,5.65,2.06,6.17,2.1,1.68.82,5.22.67,5.22.67s.05-3.35,0-4.4-1-2-3.06-2.58-4.54-.2-6.31-1.17a16,16,0,0,1-4.55-3.9c-3-3.93-6.32-15.89-6.32-15.89l-3,3.06s-1.05,16.56-4.79,24.5-6.41,13.11-10.23,13.78a43.56,43.56,0,0,1-7.61.57ZM406.2,584a28.25,28.25,0,0,1-6.17-.29c-2.73-.52-6.51-3.15-6.51-3.15s2.2,3,5.08,3.78a29.72,29.72,0,0,0,7.55.57l.05,8.8a5.66,5.66,0,0,0-2.1-1.62c-1-.29-3.16-.1-5.55-.34s-5.6-3.92-8.14-9.18-7-18.9-7-18.9,3.06,5.79,3.06,3.82-1-7-.09-4.73,3.73,8.51,6.6,11.77,6.12,3.87,9.71,3.87,3.49,5.6,3.49,5.6Zm-47.27,17.51s.87-2.3,4.31-2.68a9.94,9.94,0,0,0,8.23-5c2.3-3.54,6-10.34,7.56-15.89s-10.81.86-14.64,2.68-5.07,3.64-5.07,8.42a10.33,10.33,0,0,1,2.44-1.24,57.74,57.74,0,0,1,7.44-.62,41.78,41.78,0,0,1-5.27.9c-2.65.34-4.42,1.61-4.66,2.35s-.34,11.05-.34,11.05Zm.34-17.8c1.24-3.54,6.41-7.36,7.27-9.76s.38-5.74.58-11.57-1.49-17.08-2.16-17.18-3.92,1-4.06,1.39-.72,15.4-.72,15.4l3.68-3.74a1.17,1.17,0,0,1-.57,1.21c-.77.57-2.73,2.72-3,4a44.74,44.74,0,0,0-.38,5s3.25-2.87,3.59-3,.1,1,.1,1-3.26,2.39-3.83,4.11S359.27,583.67,359.27,583.67Z" fill-rule="evenodd" opacity="0.2"/><path d="M702.26,462.14a12.07,12.07,0,0,0-7.36-11,19.67,19.67,0,0,0-4.49-1.11c-1.95-.3-3.92-.51-5.88-.69-3-.26-6-.44-8.93-.58l-3.12-.13,1.29,2.84c.4.88.8,1.77,1.19,2.66a63.45,63.45,0,0,0,4.78,8.66c2.72,4.25,5.81,8.41,8.2,12.84l.6,1.1,1.25-.1c2.87-.24,6.54-1.09,8.62-3.21C701.4,470.4,702.41,466.33,702.26,462.14Z" fill="#f48225" data-secondary="true" fill-rule="evenodd"/><path d="M676.46,452.81c.08.2.17.39.25.58,2.92,6.65,7.81,12.82,11.43,18.78l2.29-.19c3.88-.33,6.88-1.86,7.48-6,.66-4.63-.61-9.5-5.44-11.29a19.88,19.88,0,0,0-3.23-.83c-1.25-.23-2.52-.39-3.79-.52-2.81-.29-5.69-.43-8.52-.48Z" fill-rule="evenodd"/><path d="M676.91,453.84c2.78,6.12,7.17,11.83,10.63,17.36l2.81-.24c3.39-.29,6-1.48,6.55-5.17s-.14-8.46-4.78-10.19C688.11,454.12,679.26,453.88,676.91,453.84Z" fill="#2f2e41" fill-rule="evenodd"/><path d="M681,461.24c.36.57.73,1.14,1.1,1.7a90.62,90.62,0,0,1,8.19-7.86,37.66,37.66,0,0,0-4.14-.68c-1.6,2-3.4,4.28-5.15,6.84Zm1.52,2.34c2.43-2.37,6-5.94,8.63-8.29.34.1.67.2,1,.31a7.2,7.2,0,0,1,3.11,2.19,74.56,74.56,0,0,0-12,6.88C683,464.3,682.75,463.94,682.52,463.58Z" fill="#fff" fill-rule="evenodd" opacity="0.2"/><path d="M688.42,472.63c.34.57.66,1.14,1,1.7,1.06-.1,4.75-.55,6.88-2.08,2.51-1.79,3.47-5.64,3.75-7.65s-.91,3.66-1.72,4.11-.36-1.86-1-.12-2.2,2.75-4.66,3.38A31.23,31.23,0,0,1,688.42,472.63Z" fill-rule="evenodd" opacity="0.2"/><path d="M686.3,469.27c.42.64.84,1.29,1.24,1.93l1.67-.14a60.24,60.24,0,0,1,7.32-10.84,5.71,5.71,0,0,0-.21-.58A106.14,106.14,0,0,0,686.3,469.27Z" fill="#fff" fill-rule="evenodd" opacity="0.2"/><path d="M391.24,448.79c-3,.14-6,.32-8.93.58-2,.18-3.94.39-5.88.69a19.54,19.54,0,0,0-4.49,1.11,12,12,0,0,0-7.36,11c-.15,4.19.85,8.26,3.84,11.31,2.08,2.12,5.76,3,8.62,3.21l1.25.1.6-1.1c2.39-4.43,5.48-8.59,8.2-12.84a62.4,62.4,0,0,0,4.78-8.66c.39-.89.79-1.78,1.19-2.66l1.3-2.84Z" fill="#f48225" data-secondary="true" fill-rule="evenodd"/><path d="M390.38,452.81c-.09.2-.17.39-.26.58-2.92,6.65-7.81,12.82-11.43,18.78L376.4,472c-3.88-.33-6.88-1.86-7.48-6-.66-4.63.61-9.5,5.44-11.29a19.88,19.88,0,0,1,3.23-.83c1.25-.23,2.52-.39,3.79-.52,2.82-.29,5.69-.43,8.52-.48Z" fill-rule="evenodd"/><path d="M389.92,453.84c-2.77,6.12-7.17,11.83-10.63,17.36l-2.8-.24c-3.4-.29-6-1.48-6.56-5.17s.15-8.46,4.79-10.19C378.72,454.12,387.57,453.88,389.92,453.84Z" fill="#2f2e41" fill-rule="evenodd"/><path d="M385.83,461.24c-.36.57-.73,1.14-1.1,1.7a91.76,91.76,0,0,0-8.18-7.86,37.08,37.08,0,0,1,4.13-.68c1.6,2,3.4,4.28,5.15,6.84Zm-1.51,2.34c-2.44-2.37-6-5.94-8.63-8.29-.35.1-.68.2-1,.31a7.17,7.17,0,0,0-3.12,2.19,74.53,74.53,0,0,1,12,6.88Z" fill="#fff" fill-rule="evenodd" opacity="0.2"/><path d="M378.42,472.63c-.34.57-.67,1.14-1,1.7-1.06-.1-4.74-.55-6.88-2.08-2.51-1.79-3.46-5.64-3.75-7.65s.91,3.66,1.72,4.11.36-1.86,1-.12,2.2,2.75,4.66,3.38A31.36,31.36,0,0,0,378.42,472.63Z" fill-rule="evenodd" opacity="0.2"/><path d="M380.53,469.27c-.42.64-.84,1.29-1.24,1.93l-1.66-.14a60.75,60.75,0,0,0-7.33-10.84c.06-.2.14-.39.21-.58A103.77,103.77,0,0,1,380.53,469.27Z" fill="#fff" fill-rule="evenodd" opacity="0.2"/><path d="M450.19,398.13c-.35-.49-.81-1.35-1-1.72a10.72,10.72,0,0,0-1.81-2.5c-1.93-1.79-3.14-1.68-5.58-1.08-2.76.68-5.56,1.27-8.33,1.91q-2.6.6-5.19,1.23c-1.07.26-2.28.53-3.32.89l-.41.14-5.22,5.13,0,0c-1.45,1.64-2.85,3.38-4.2,5.09-3.33,4.23-6.48,8.62-9.41,13.13q-1.42,2.16-2.77,4.38a231.37,231.37,0,0,0-14.51,27.85,60.81,60.81,0,0,1-4.5,8.14c-1.94,3-4,6-5.92,9a45.05,45.05,0,0,0-4.66,9.05c-.64,1.85-1.17,3.76-1.67,5.66q-.86,3.35-1.59,6.72-1.18,5.4-2.19,10.85c-.23,1.26-.46,2.53-.67,3.8a18.91,18.91,0,0,0-.29,2,3.39,3.39,0,0,1-.75,1.82,18.66,18.66,0,0,0-1.09,2.51c-.5,1.29-1,2.59-1.41,3.89-.38,1.11-.75,2.22-1.08,3.35a22.55,22.55,0,0,0-.68,2.66,55.71,55.71,0,0,0-.55,5.91c-.25,4.45-.4,8.93-.57,13.38a173.64,173.64,0,0,0,.37,18.25c.28,4.26.72,8.47,1.12,12.72a25.92,25.92,0,0,0,1.53,6.79c.13.35.29.74.47,1.12a5.16,5.16,0,0,0-.6,1.34,12.74,12.74,0,0,0,.31,4.06c.35,2,.75,4,1.16,5.95.35,1.71.7,3.41,1.06,5.12.23,1.12.48,2.25.68,3.38.52,2.89,1.18,5.59,4.36,6.52a16.71,16.71,0,0,0,2.81.5,22.07,22.07,0,0,0,4.22.09c1.68-.24,2-1.34,2.74-2.56.53-.85,3.33-1,4.18-1.06,2.55-.08,5.16,0,7.71,0h14.26l14.7,0h5.1c.81,0,1.66,0,2.47,0,1.7-.09,3.45-1.4,4.75-2.42,1.66-1.31,3.24-2.71,4.93-4,3.46-2.65,6-4.59,10.54-4.68,1.59,0,3.2,0,4.79,0l9.66,0,27.37.16,42,.29h0l42-.29,27.38-.16,9.65,0c1.59,0,3.2,0,4.79,0,4.57.09,7.08,2,10.55,4.68,1.68,1.29,3.26,2.69,4.93,4,1.29,1,3,2.33,4.74,2.42.81,0,1.66,0,2.47,0H645l14.7,0H674c2.56,0,5.17,0,7.72,0,.84,0,3.64.21,4.17,1.06.76,1.22,1.07,2.32,2.74,2.56a22.05,22.05,0,0,0,4.22-.09,16.71,16.71,0,0,0,2.81-.5c3.18-.93,3.85-3.63,4.36-6.52.2-1.13.45-2.26.68-3.38.36-1.71.72-3.41,1.07-5.12.4-2,.81-4,1.15-5.95a12.74,12.74,0,0,0,.31-4.06,5.16,5.16,0,0,0-.6-1.34c.18-.38.34-.77.47-1.12a25.14,25.14,0,0,0,1.53-6.79c.41-4.25.84-8.46,1.13-12.72a173.64,173.64,0,0,0,.36-18.25c-.16-4.45-.31-8.93-.57-13.38A53.2,53.2,0,0,0,705,522a22.55,22.55,0,0,0-.68-2.66c-.33-1.13-.7-2.24-1.08-3.35-.44-1.3-.91-2.6-1.41-3.89a18.61,18.61,0,0,0-1.08-2.51,3.24,3.24,0,0,1-.75-1.82c-.05-.63-.19-1.33-.3-2-.21-1.27-.44-2.54-.67-3.8-.67-3.63-1.39-7.25-2.19-10.85-.49-2.25-1-4.49-1.59-6.72-.49-1.9-1-3.81-1.67-5.66a45,45,0,0,0-4.65-9.05c-1.92-3-4-6-5.92-9a59.77,59.77,0,0,1-4.51-8.14A231.37,231.37,0,0,0,664,424.77q-1.35-2.22-2.76-4.38c-2.94-4.51-6.09-8.9-9.42-13.13-1.35-1.71-2.75-3.45-4.2-5.09l0,0L642.31,397l-.4-.14c-1-.36-2.26-.63-3.33-.89q-2.6-.63-5.19-1.23c-2.77-.64-5.57-1.23-8.32-1.91-2.45-.6-3.65-.71-5.58,1.08a10.48,10.48,0,0,0-1.82,2.5c-.22.37-.68,1.23-1,1.72l-.68,0c-.8,0-1.61,0-2.41-.07-2.23-.09-4.47-.2-6.7-.31s-4.62-.25-6.93-.39c-.86-.06-1.8-.09-2.69-.16,0-.61.06-1.46.06-1.82,0-2.11-.46-3.57-2.5-4.66-1.6-.85-5.83-1-7.64-1.05-5.87-.28-11.78-.37-17.65-.51-12-.29-24.06-.37-36.08-.38h0c-12,0-24.06.09-36.07.38-5.88.14-11.78.23-17.65.51-1.82.09-6.05.2-7.65,1.05-2,1.09-2.5,2.55-2.5,4.66,0,.36.08,1.21.07,1.82-.9.07-1.83.1-2.7.16-2.31.14-4.62.26-6.93.39s-4.46.22-6.7.31c-.8,0-1.61.06-2.41.07Z" fill="#2f2e41" fill-rule="evenodd"/><path d="M533.42,590.94c-4.07,0-78.8-.57-83.83-.48s-8,2.3-11.67,5.07-6.7,5.93-8.62,6-41,0-44.2.05-5,.81-5.74,2-.72,1.58-1.39,1.67a22.69,22.69,0,0,1-6.22-.52c-2-.58-2.49-2.06-3-5s-3.59-16.46-3.26-17.65a2.3,2.3,0,0,1,1.1-1.53s-1.91-2.87-2.44-8.42-2-18-1.48-30.72.67-16.5,1.1-19a76.31,76.31,0,0,1,4-11.77,4.67,4.67,0,0,0,1-2.63c.1-1.24,3.45-20.28,6.32-28.51s10.91-16.65,15-26a230.82,230.82,0,0,1,17.13-32,167.54,167.54,0,0,1,13.44-18l4.86-4.78c2-.69,14.62-3.48,16.67-4s2.58-.53,3.83.62,2.49,4.45,3.4,4.69,20.09-.86,21.24-1,.76-2.59.76-3.64-.05-2.15,1.49-3,8.56-.95,24.44-1.34c14.05-.33,32.06-.37,36-.38s22,.05,36,.38c15.88.39,22.92.53,24.45,1.34s1.48,1.92,1.48,3-.38,3.49.77,3.64,20.33,1.24,21.24,1,2.15-3.54,3.39-4.69,1.68-1.15,3.83-.62,14.69,3.29,16.67,4l4.86,4.78a167.54,167.54,0,0,1,13.44,18,229.76,229.76,0,0,1,17.13,32c4.12,9.38,12.15,17.8,15,26s6.22,27.27,6.32,28.51a4.67,4.67,0,0,0,1,2.63,76.31,76.31,0,0,1,4,11.77c.43,2.54.62,6.32,1.1,19s-.95,25.17-1.48,30.72-2.44,8.42-2.44,8.42a2.3,2.3,0,0,1,1.1,1.53c.33,1.19-2.73,14.69-3.25,17.65s-1.06,4.45-3,5a22.69,22.69,0,0,1-6.22.52c-.67-.09-.67-.52-1.38-1.67s-2.54-1.87-5.75-2-42.29,0-44.2-.05-5-3.26-8.61-6-6.51-5-11.68-5.07S537.48,590.91,533.42,590.94Z" fill="#f48225" data-secondary="true" fill-rule="evenodd"/><path d="M703.64,528.6c0-.4,0-.77-.07-1.12-1.51.19-4.51.56-5,.56l.19-.1-.1,1.2Z" fill-rule="evenodd"/><path d="M363.2,528.6c0-.4,0-.77.06-1.12,1.51.19,4.51.56,5,.56l-.19-.1.1,1.2Z" fill-rule="evenodd"/><path d="M533.42,588.39c-12.07,0-133.95.12-145-1.15-11.68-1.34,37.7-3.06,82.48-3.63,29.5-.38,51.19-.35,62.56-.28s33.06-.1,62.56.28c44.78.57,94.15,2.29,82.48,3.63C667.36,588.51,545.48,588.4,533.42,588.39Z" fill="#2f2e41" fill-rule="evenodd"/><path d="M366.46,580.3a20.67,20.67,0,0,1-2.32-8.21c-.52-5.55-2-18-1.48-30.72.6-7.11,4.24-8.52,4.95-11.3s1.06-19.57.19-18-4.08,10.53-4.08,10.53a1.57,1.57,0,0,0,0-.23,76.31,76.31,0,0,1,4-11.77,4.67,4.67,0,0,0,1-2.63c.06-.68,1.07-6.62,2.45-13.23a207.25,207.25,0,0,0-2.56,30.49c-.1,4.59-.1,5.93-1.92,9.09s-2.77,5.17.58,6.22,21.62,1.63,51.09,1.43c26.89-.17,102-.34,115-.37s88.1.2,115,.37c29.47.2,47.75-.38,51.1-1.43s2.39-3.06.57-6.22-1.82-4.5-1.91-9.09a209.09,209.09,0,0,0-2.57-30.49c1.38,6.61,2.4,12.55,2.45,13.23a4.67,4.67,0,0,0,1,2.63,76.31,76.31,0,0,1,4,11.77c0,.08,0,.16,0,.23s-3.22-9-4.08-10.53-.53,15.27.19,18,4.35,4.19,4.95,11.3c.48,12.73-.95,25.17-1.48,30.72a20.67,20.67,0,0,1-2.32,8.21c-2.88-.94-8.85-2-21.24-2.44-22-.71-131.82.58-145.71.75-13.9-.17-123.67-1.46-145.71-.75-12.4.41-18.37,1.5-21.25,2.44Zm167-34.5c-11.31.15-40.41.49-83.71.49-56.65,0-72.91-.77-76.93-.86s-6.6,9.28-6.89,6.7-1.15-11-1.15-11-.57,12.44,1,19.33,5.17,12.06,9.76,12.44c4.28.36,139.79-.12,158-.19s153.67.55,158,.19c4.6-.38,8.23-5.55,9.76-12.44s1-19.33,1-19.33-.86,8.42-1.15,11-2.87-6.8-6.89-6.7-20.28.86-76.93.86C573.82,546.29,544.72,546,533.42,545.8Z" fill="#f48225" data-secondary="true" fill-rule="evenodd"/><path d="M366.46,580.3a20.67,20.67,0,0,1-2.32-8.21c-.52-5.55-2-18-1.48-30.72.6-7.11,4.24-8.52,4.95-11.3s1.06-19.57.19-18-4.08,10.53-4.08,10.53a1.57,1.57,0,0,0,0-.23,76.31,76.31,0,0,1,4-11.77,4.67,4.67,0,0,0,1-2.63c.06-.68,1.07-6.62,2.45-13.23a207.25,207.25,0,0,0-2.56,30.49c-.1,4.59-.1,5.93-1.92,9.09s-2.77,5.17.58,6.22,21.62,1.63,51.09,1.43c26.89-.17,102-.34,115-.37s88.1.2,115,.37c29.47.2,47.75-.38,51.1-1.43s2.39-3.06.57-6.22-1.82-4.5-1.91-9.09a209.09,209.09,0,0,0-2.57-30.49c1.38,6.61,2.4,12.55,2.45,13.23a4.67,4.67,0,0,0,1,2.63,76.31,76.31,0,0,1,4,11.77c0,.08,0,.16,0,.23s-3.22-9-4.08-10.53-.53,15.27.19,18,4.35,4.19,4.95,11.3c.48,12.73-.95,25.17-1.48,30.72a20.67,20.67,0,0,1-2.32,8.21c-2.88-.94-8.85-2-21.24-2.44-22-.71-131.82.58-145.71.75-13.9-.17-123.67-1.46-145.71-.75-12.4.41-18.37,1.5-21.25,2.44Zm167-34.5c-11.31.15-40.41.49-83.71.49-56.65,0-72.91-.77-76.93-.86s-6.6,9.28-6.89,6.7-1.15-11-1.15-11-.57,12.44,1,19.33,5.17,12.06,9.76,12.44c4.28.36,139.79-.12,158-.19s153.67.55,158,.19c4.6-.38,8.23-5.55,9.76-12.44s1-19.33,1-19.33-.86,8.42-1.15,11-2.87-6.8-6.89-6.7-20.28.86-76.93.86C573.82,546.29,544.72,546,533.42,545.8Z" fill-rule="evenodd" opacity="0.2"/><path d="M533.42,480.35c-18,0-44.88-.06-51.25.13-9.76.29-10.33,1.63-10.81,4.4s.19,22.58,2,27.18,3.54,4.69,14.16,5.83c9.35,1,38.94,1,45.89,1s36.53,0,45.88-1c10.63-1.14,12.35-1.24,14.17-5.83s2.48-24.4,2-27.18-1.05-4.11-10.81-4.4c-6.36-.19-33.29-.17-51.24-.13Zm0,40c-7.72,0-31.22-.06-43.5-.77-14.83-.86-16-1.34-18.18-6.41s-3.73-22.59-3.64-27.85,2.78-6.79,8.52-7.56c5.23-.69,49-.76,56.8-.76s51.56.07,56.79.76c5.74.77,8.42,2.3,8.52,7.56s-1.44,22.77-3.64,27.85-3.35,5.55-18.18,6.41C564.63,520.33,541.14,520.39,533.42,520.39Z" fill="#2f2e41" fill-rule="evenodd"/><path d="M363.19,528.66c0-.35,0-.69.06-1l2.91.29.75.08c1.45.17,2.84.33,3.1-.17.42-.83.7-8.66.7-8.68l1,1.47s-.25,6.64-.78,7.68-2.31.92-4.11.71l-.75-.08Z" fill="#2f2e41" fill-rule="evenodd"/><path d="M703.64,528.66c0-.35,0-.69-.06-1l-2.91.29-.75.08c-1.45.17-2.84.33-3.09-.17-.43-.83-.7-8.66-.7-8.68l-1,1.47s.24,6.64.77,7.68,2.31.92,4.12.71l.74-.08Z" fill="#2f2e41" fill-rule="evenodd"/><path d="M533.42,540.17c15,.06,143.57.54,155.27,0,12.44-.57,11.49-1.43,11.3-3.34s-2-5.84-9.29-5.75-12.24.87-71.57.67c-45.84-.14-74.88-.29-85.71-.35s-39.88.21-85.72.35c-59.32.2-64.3-.57-71.57-.67s-9.09,3.83-9.28,5.75-1.15,2.77,11.29,3.34C389.85,540.71,518.37,540.23,533.42,540.17Z" fill="#fff" fill-rule="evenodd" opacity="0.2"/><path d="M426.25,400.45c.25-.09.55-.16.79-.23l1.93-.49q2.65-.64,5.33-1.26c2.79-.64,5.6-1.24,8.38-1.92a7.87,7.87,0,0,1,1.51-.28,3.45,3.45,0,0,1,.56.45,8.76,8.76,0,0,1,1.11,1.62c.72,1.23,1.62,3.12,3.1,3.51a7,7,0,0,0,1.65.1l2.49-.07c2.36-.09,4.72-.21,7.08-.33s4.66-.25,7-.4c1.21-.07,2.56-.11,3.75-.26a2.61,2.61,0,0,0,1.18-.44c1.69-1.18,1.27-3.37,1.27-5.09,0-.65-.14-.95.45-1.27,1-.42,5.19-.58,6.28-.63,5.76-.26,11.56-.35,17.33-.49,12-.29,24-.37,36-.38s24,.09,36,.38c5.77.14,11.57.23,17.33.49,1.1.05,5.33.21,6.28.63.59.32.46.62.46,1.27,0,1.72-.43,3.91,1.27,5.09a2.57,2.57,0,0,0,1.17.44c1.2.15,2.54.19,3.75.26q3.5.23,7,.4c2.36.12,4.72.24,7.08.33l2.49.07a7,7,0,0,0,1.65-.1c1.48-.39,2.38-2.28,3.1-3.51a8.76,8.76,0,0,1,1.11-1.62,3.45,3.45,0,0,1,.56-.45,7.83,7.83,0,0,1,1.52.28c2.77.68,5.58,1.28,8.37,1.92q2.67.61,5.33,1.26l1.93.49c.24.07.54.14.8.23.53.39,1.16,1,1.64,1.44l3.18,2.89c1.11,1,2.22,2,3.36,3a10.21,10.21,0,0,0,2.69,1.84,2.6,2.6,0,0,0,2.11-.21c1.45-.84,1.55-2.72,1.36-4.21a9.43,9.43,0,0,0-.18-1c-.36-1.6-2.13-4.18-3.09-5.51a62.48,62.48,0,0,0-7.2-8.3c-2.67-2.61-8.8-8.59-12.73-9a4.88,4.88,0,0,0-3.4,1c-.25.18-.86.71-1.14.87l-.8-.06-2.07-.21c-2.43-.25-4.85-.51-7.28-.75-9-.89-18-1.6-27-2.18-7.18-.47-14.38-.71-21.57-.9-11.68-.29-23.38-.39-35.06-.37s-23.39.08-35.07.37c-7.18.19-14.39.43-21.57.9-9,.58-18,1.29-27,2.18-2.43.24-4.85.5-7.28.75l-2.07.21-.79.06c-.29-.16-.9-.69-1.15-.87a4.87,4.87,0,0,0-3.39-1c-3.94.37-10.06,6.35-12.74,9a63.22,63.22,0,0,0-7.2,8.3c-.95,1.33-2.73,3.91-3.09,5.51a9.43,9.43,0,0,0-.18,1c-.18,1.49-.09,3.37,1.37,4.21a2.57,2.57,0,0,0,2.1.21,9.9,9.9,0,0,0,2.69-1.84c1.14-1,2.26-2,3.36-3l3.18-2.89C425.08,401.46,425.71,400.84,426.25,400.45Z" fill="#2f2e41" fill-rule="evenodd"/><path d="M533.42,390.67c-4,0-22,.05-36,.38-15.88.39-22.91.53-24.44,1.34s-1.49,1.92-1.49,3,.39,3.49-.76,3.64-20.34,1.24-21.24,1-2.16-3.54-3.4-4.69-1.68-1.15-3.83-.62-16,3.59-16.89,4.07-9.28,8.61-10.52,9-1.2-1.72-.86-3.2,3.82-7.09,9.76-12.87,9.52-8.23,11.57-8.42,2.87,1.81,4.21,1.86,13.69-1.67,37.42-3.2c18.37-1.19,45.29-1.28,56.51-1.27s38.13.08,56.51,1.27c23.73,1.53,36.07,3.25,37.41,3.2s2.15-2.06,4.21-1.86,5.64,2.63,11.58,8.42,9.42,11.38,9.76,12.87.38,3.58-.87,3.2-9.66-8.51-10.52-9-14.74-3.54-16.89-4.07-2.58-.53-3.83.62-2.48,4.45-3.39,4.69-20.1-.86-21.24-1-.77-2.59-.77-3.64,0-2.15-1.48-3-8.57-.95-24.45-1.34C555.4,390.72,537.4,390.68,533.42,390.67Z" fill="#f48225" data-secondary="true" fill-rule="evenodd"/><path d="M533.42,390.67c-4,0-22,.05-36,.38-15.88.39-22.91.53-24.44,1.34s-1.49,1.92-1.49,3,.39,3.49-.76,3.64-20.34,1.24-21.24,1-2.16-3.54-3.4-4.69-1.68-1.15-3.83-.62-16,3.59-16.89,4.07-9.28,8.61-10.52,9h0a113.42,113.42,0,0,1,7.68-10.14c4.26-4.88,11-10.05,13.93-11.2s2.1,2.06,3.2,1.82,16.6-2,38.61-3.3c19.54-1.19,48.88-1.25,55.22-1.24s35.67.05,55.21,1.24c22,1.34,37.51,3.06,38.61,3.3s.24-3,3.21-1.82,9.66,6.32,13.92,11.2a113.42,113.42,0,0,1,7.68,10.14h0c-1.24-.38-9.66-8.51-10.52-9s-14.74-3.54-16.89-4.07-2.58-.53-3.83.62-2.48,4.45-3.39,4.69-20.1-.86-21.24-1-.77-2.59-.77-3.64,0-2.15-1.48-3-8.57-.95-24.45-1.34c-14.05-.33-32.05-.37-36-.38Zm60-.7c3.16,1.53,2.77,3.87,2.63,5.69s-.29,2.63,1,2.92,19.13,1.19,20.09.86,1.24-2.87,3.06-4.59,3.06-1.44,4.83-1.82-7.7-1.58-31.62-3.06Zm-119.91,0c-23.92,1.48-33.39,2.67-31.62,3.06s3,.09,4.83,1.82,2.11,4.25,3.06,4.59,18.8-.58,20.1-.86,1.14-1.1,1-2.92S470.31,391.5,473.46,390Z" fill-rule="evenodd" opacity="0.2"/><path d="M657.78,458.22c1.85-.07,3.73-.16,5.56-.38a14.71,14.71,0,0,0,3.29-.69c.36-.14.71-.28,1.06-.44a.64.64,0,0,1,.57,0,27.73,27.73,0,0,1,3.06,1.94,45.09,45.09,0,0,1,5,4.08,55.16,55.16,0,0,1,4.06,4.31c1.31,1.54,2.56,3.14,3.74,4.78,1,1.4,2,2.85,2.88,4.34a46.34,46.34,0,0,1,3.39,6.89,58.67,58.67,0,0,1,2.91,10.59c.6,3.23,1.06,6.5,1.47,9.76s.8,6.8,1.09,10.21c.1,1.25.2,2.52.26,3.77,0,.45,0,.89,0,1.33a8.92,8.92,0,0,1,0,.9,3.08,3.08,0,0,1-1.27,2.52,7,7,0,0,1-2.56.6l-1.38,0c-1.51.05-3,.08-4.51.11q-6.57.12-13.14.19t-13.29.14l-4.49,0h-1.94a2,2,0,0,1-2-1.46,1,1,0,0,1,0-.43c0-.19,0-.39.06-.59,0-.47.1-.95.14-1.42.16-1.62.32-3.23.47-4.84q.69-7.17,1.36-14.34.63-6.53,1.23-13.06c.24-2.57.49-5.14.7-7.71.58-6.86,1.12-13.74,1.67-20.61A.63.63,0,0,1,657.78,458.22Z" fill="#2f2e41" fill-rule="evenodd"/><path d="M657.8,458.86c-.26,3.26-1.33,16.59-1.66,20.61-.38,4.59-3.88,41.43-4,42s.52,1.1,1.39,1.15,38-.29,39.32-.57,2.35-.24,2.58-2.49-1.19-17.08-2.82-25.79-4-13.49-6.22-17.27a68.36,68.36,0,0,0-10.57-13.3,39.85,39.85,0,0,0-7.89-5.91c-.33.15-.7.3-1.1.46C665.21,458.36,662.36,458.7,657.8,458.86Z" fill="#2f2e41" fill-rule="evenodd"/><path d="M695.35,520.26a4.29,4.29,0,0,0,.11-.7c.24-2.25-1.19-17.08-2.82-25.79s-4-13.49-6.22-17.27a68.36,68.36,0,0,0-10.57-13.3,44.56,44.56,0,0,0-5.16-4.2,62.32,62.32,0,0,1-10.41,1.34c-.77,0-1.63.67-1.7,2.13s-.65,13.71-1.27,22.94-3.68,34.21-3.68,35.16,1.19,1.06,1.91,1.06,28.32-.15,33.25-.34C692.29,521.16,694.29,520.78,695.35,520.26Z" fill-rule="evenodd" opacity="0.2"/><path d="M409.05,458.22c-1.85-.07-3.73-.16-5.56-.38a14.71,14.71,0,0,1-3.29-.69c-.36-.14-.71-.28-1.06-.44a.64.64,0,0,0-.57,0,29.74,29.74,0,0,0-3.06,1.94,44.07,44.07,0,0,0-5,4.08,53.45,53.45,0,0,0-4.07,4.31c-1.31,1.54-2.56,3.14-3.74,4.78-1,1.4-2,2.85-2.88,4.34a46.34,46.34,0,0,0-3.39,6.89,60.36,60.36,0,0,0-2.91,10.59c-.6,3.23-1.06,6.5-1.47,9.76s-.8,6.8-1.08,10.21c-.11,1.25-.2,2.52-.26,3.77,0,.45,0,.89-.05,1.33a8.92,8.92,0,0,0,0,.9,3.13,3.13,0,0,0,1.27,2.52,6,6,0,0,0,1.82.53,6.17,6.17,0,0,0,.74.07l1.39,0c1.5.05,3,.08,4.5.11q6.57.12,13.14.19t13.29.14l4.49,0h1.94a2,2,0,0,0,2-1.46,1,1,0,0,0,0-.43l-.06-.59c-.05-.47-.09-.95-.14-1.42-.16-1.62-.31-3.23-.47-4.84q-.69-7.17-1.36-14.34L412,487.12c-.24-2.57-.49-5.14-.7-7.71-.57-6.86-1.11-13.74-1.66-20.61A.64.64,0,0,0,409.05,458.22Z" fill="#2f2e41" fill-rule="evenodd"/><path d="M409,458.86c.26,3.26,1.33,16.59,1.66,20.61.39,4.59,3.88,41.43,4,42s-.52,1.1-1.38,1.15-38-.29-39.33-.57-2.34-.24-2.58-2.49,1.19-17.08,2.82-25.79,4-13.49,6.22-17.27A68.36,68.36,0,0,1,391,463.2a39.85,39.85,0,0,1,7.89-5.91c.33.15.7.3,1.11.46C401.63,458.36,404.47,458.7,409,458.86Z" fill-rule="evenodd" opacity="0.2"/><path d="M446.34,395.62c-4.21.49-8.47,1.07-12.62,1.89-1.45.29-2.92.61-4.33,1a11.74,11.74,0,0,0-2.77,1.12,28.2,28.2,0,0,0-5.52,4.83,83.25,83.25,0,0,0-5.67,6.91q-2.46,3.3-4.7,6.77c-1.23,1.88-2.42,3.81-3.51,5.78-2,3.57-3.84,7.22-5.59,10.9-1.15,2.41-2.25,4.86-3.25,7.34a50,50,0,0,0-2.17,6.31,25.47,25.47,0,0,0-.85,4.66,5.17,5.17,0,0,0,.7,3.2,7,7,0,0,0,3.56,2.34,18,18,0,0,0,4.43.87c2.41.24,4.86.32,7.28.37,3.62.07,7.25.06,10.87,0,5,0,10.07-.1,15.11-.16,6.43-.08,12.86-.12,19.29-.17q12.73-.09,25.47-.14,25.68-.13,51.35-.22,25.67.09,51.34.22,12.74.06,25.47.14c6.43.05,12.87.09,19.3.17,5,.06,10.07.13,15.1.16,3.62,0,7.25,0,10.87,0,2.42-.05,4.88-.13,7.28-.37a17.93,17.93,0,0,0,4.43-.87,7,7,0,0,0,3.56-2.34,5.17,5.17,0,0,0,.7-3.2,25.47,25.47,0,0,0-.85-4.66,48.44,48.44,0,0,0-2.17-6.31c-1-2.48-2.1-4.93-3.25-7.34-1.74-3.68-3.61-7.33-5.59-10.9-1.09-2-2.28-3.9-3.5-5.78q-2.25-3.46-4.7-6.77a85.43,85.43,0,0,0-5.68-6.91,28.43,28.43,0,0,0-5.51-4.83,12.1,12.1,0,0,0-2.77-1.12c-1.42-.42-2.89-.74-4.34-1-4.15-.82-8.41-1.4-12.62-1.89-1.14,1.34-2.27,4.16-3.1,4.38s-20.1-.86-21.24-1-.77-2.59-.77-3.64a3.63,3.63,0,0,0-.35-2q-14.35-.91-28.75-1.27-16.42-.45-32.86-.29-16.44-.15-32.87.29-14.39.38-28.75,1.27a3.63,3.63,0,0,0-.35,2c0,1.05.39,3.49-.76,3.64s-20.34,1.24-21.24,1S447.48,397,446.34,395.62Z" fill="#2f2e41" fill-rule="evenodd"/><path d="M447,396.57c.9,1.41,1.75,3.25,2.43,3.43.9.24,20.09-.86,21.24-1s.76-2.59.76-3.64c0-.3,0-.61,0-.92,17.71-1.13,39.24-1.8,61.94-1.58,22.69-.22,44.22.45,61.93,1.58,0,.31,0,.62,0,.92,0,1.05-.38,3.49.77,3.64s20.33,1.24,21.24,1c.67-.18,1.52-2,2.42-3.43,10.6,1.23,17.71,2.63,19.87,4,6.22,3.82,15.36,17.27,19,23.92s9.33,18,10.91,24.3,1,7.56-2.77,9-14.07,1.34-37.32,1.05c-22.23-.28-90.19-.51-96.12-.53s-73.9.25-96.13.53c-23.25.29-33.49.38-37.31-1.05s-4.36-2.73-2.78-9,7.23-17.65,10.91-24.3,12.82-20.1,19-23.92C429.31,399.2,436.42,397.8,447,396.57Z" fill="#e6e7e8" fill-rule="evenodd"/><path d="M533.41,397.38c-17.08.07-34.17.43-51.24,1.18-8.93.4-17.89.86-26.81,1.61-5.65.48-11.4,1.05-17,2.07a43.85,43.85,0,0,0-9.83,2.73,15,15,0,0,0-5.27,3.69,34,34,0,0,0-2.09,2.69c-.92,1.29-1.8,2.61-2.66,3.94-2.15,3.31-4.19,6.71-6.14,10.14-2.16,3.8-4.27,7.72-6.06,11.71-.84,1.86-2.66,6-2.34,8.05.59,3.71,4.95,5.61,8.11,6.59a50.51,50.51,0,0,0,8.33,1.73c3.66.49,7.36.74,11,.87,2.65.09,5.32.11,8,.12,4,0,8,0,12,0q15.29,0,30.59-.22,25.71-.27,51.41-.65,25.7.38,51.4.65,15.3.15,30.6.22c4,0,8,0,12,0,2.66,0,5.33,0,8-.12,3.68-.13,7.39-.38,11-.87a50.3,50.3,0,0,0,8.33-1.73c3.16-1,7.53-2.88,8.11-6.59.32-2.06-1.5-6.19-2.34-8.05-1.79-4-3.9-7.91-6.06-11.71-2-3.43-4-6.83-6.14-10.14-.86-1.33-1.74-2.65-2.66-3.94a31.75,31.75,0,0,0-2.09-2.69,15,15,0,0,0-5.27-3.69,43.85,43.85,0,0,0-9.83-2.73c-5.57-1-11.33-1.59-17-2.07-8.91-.75-17.87-1.21-26.81-1.61-17.07-.75-34.16-1.11-51.24-1.18h0Z" fill="#2f2e41" fill-rule="evenodd"/><path d="M533.42,452.62c-12.26.18-86.91,1.26-101.91.74-16.37-.58-25.74-3.45-26.51-8.33s14.45-30.52,19-35.69,14.74-7.84,58.18-9.76c19-.84,37-1.12,51.2-1.18s32.15.34,51.19,1.18c43.45,1.92,53.59,4.59,58.18,9.76s19.81,30.81,19,35.69-10.14,7.75-26.5,8.33C620.32,453.88,545.67,452.8,533.42,452.62Z" fill="#e6e7e8" fill-rule="evenodd" opacity="0.53"/><path d="M533.42,452.62c-4.77.07-19,.27-35.45.47-.64-2.52-2.38-7.54-6.38-9.78-5.45-3.06-26.31-1.72-33.68-1.24-6.74.43-10.75,8.08-11.83,11.43-6.5,0-11.66,0-14.57-.14l-1.67-.07c2.36-6.38,9.77-26.25,12.09-30.65,2.78-5.26,3.93-8.61,8-10.52a23.48,23.48,0,0,1,7.85-2.11s4.3,3,8.71,3,54.15-3.45,56.74-3.83a10.18,10.18,0,0,0,4.4-1.82l1.82.86s-.29,2.3.28,2.49,2.68.67,2.68.67l-.19,5.36s-12.63-1-15.88,1.24-2.68,8.9.57,9.57c2,.42,10.48.62,16.47.7,6-.08,14.42-.28,16.46-.7,3.25-.67,3.83-7.37.58-9.57s-15.89-1.24-15.89-1.24l-.19-5.36s2.11-.48,2.68-.67.29-2.49.29-2.49l1.82-.86a10.1,10.1,0,0,0,4.4,1.82c2.58.38,52.34,3.83,56.74,3.83s8.7-3,8.7-3a23.43,23.43,0,0,1,7.85,2.11c4.11,1.91,5.26,5.26,8,10.52,2.32,4.4,9.73,24.27,12.09,30.65l-1.66.07c-2.91.1-8.07.14-14.58.14-1.07-3.35-5.09-11-11.83-11.43-7.37-.48-28.23-1.82-33.68,1.24-4,2.24-5.73,7.26-6.38,9.78C552.4,452.89,538.18,452.69,533.42,452.62Z" fill="#f1f2f2" fill-rule="evenodd" opacity="0.52"/></svg>