<svg id="fa381ac6-3247-4435-842a-c9242a0f02a8" data-name="Layer 1" xmlns="http://www.w3.org/2000/svg" width="865.76" height="682.89" viewBox="0 0 865.76 682.89"><path d="M289.26,607.11l2.51-19.77-30.84-.58-.88,16.8S280.31,614.32,289.26,607.11Z" fill="#f9b499"/><path d="M289.5,632.44l4.09-36-37-.09-3.79,49.36,0,7.65,67.54.16,0-7.65C316.75,632.65,289.5,632.44,289.5,632.44Z" fill="#686175" data-primary="true"/><line x1="289.5" y1="632.44" x2="285.6" y2="639.98" fill="none" stroke="#000" stroke-miterlimit="10" opacity="0.2"/><line x1="295.29" y1="633.01" x2="291.56" y2="640" fill="none" stroke="#000" stroke-miterlimit="10" opacity="0.2"/><path d="M300.87,633.63s-2.87,5.59-3.22,6.38" fill="none" stroke="#000" stroke-miterlimit="10" opacity="0.2"/><path d="M291.79,29.37H561a8.24,8.24,0,0,1,8.24,8.24V184.86a0,0,0,0,1,0,0H283.55a0,0,0,0,1,0,0V37.62a8.24,8.24,0,0,1,8.24-8.24Z" fill="#2f2e41"/><path d="M283.55,184.86H569.29a0,0,0,0,1,0,0v34.21a4.53,4.53,0,0,1-4.53,4.53H288.08a4.53,4.53,0,0,1-4.53-4.53V184.86A0,0,0,0,1,283.55,184.86Z" fill="#ccc"/><path d="M283.55,184.86H569.29a0,0,0,0,1,0,0v34.21a4.53,4.53,0,0,1-4.53,4.53H288.08a4.53,4.53,0,0,1-4.53-4.53V184.86A0,0,0,0,1,283.55,184.86Z" fill="#2f2e41"/><path d="M283.55,184.86H569.29a0,0,0,0,1,0,0v34.21a4.53,4.53,0,0,1-4.53,4.53H288.08a4.53,4.53,0,0,1-4.53-4.53V184.86A0,0,0,0,1,283.55,184.86Z" opacity="0.2"/><rect x="115.55" y="560.12" width="114.68" height="9.9" fill="#e6e7e8"/><rect x="115.55" y="560.12" width="114.68" height="9.9" fill="#e6e7e8"/><path d="M120.66,313.66S77.35,326.6,81.59,393.48l2.83,61.22s1.72,22.64,34.11,29L96.32,646.25h10l21-159h87.94l21.67,159h8.75l-22.25-170" fill="#e6e7e8"/><rect x="624.57" y="561.12" width="113.36" height="9.5" fill="#e6e7e8"/><path d="M760.35,342.93c18.56,20,14.11,64.9,11.09,84.41-.86,5.56-1.55,11.15-2.14,16.74-4.14,39.16-31.94,44.27-31.94,44.27l19.55,156.86H745.12L726.37,494.76H640.81L619.29,636.6l-9-1.91L633,476" fill="#e6e7e8"/><polygon points="647.93 583.13 654.36 603.02 676.97 603.02 671.54 580.02 647.93 583.13" fill="#f9b499"/><path d="M655.6,473.17l-17.33,4.13c18.49,26.95,35.13,105.89,35.13,105.89-10.31-.79-28.16,4.37-28.16,4.37S593,513.62,588.59,497.24l15.51-29.95L616.79,455Z" fill="#2f2e41"/><path d="M655.6,473.17l-17.33,4.13c18.49,26.95,35.13,105.89,35.13,105.89-10.31-.79-28.16,4.37-28.16,4.37S593,513.62,588.59,497.24l15.51-29.95L616.79,455Z" fill="#231f20" opacity="0.2"/><path d="M512.38,565.74l9-11.5-19.19-11.9-6.84,10.24S504.05,566.93,512.38,565.74Z" fill="#f9b499"/><path d="M381.19,594.5l-6.64-18.79L346.74,589l6.75,15.4S376.43,605,381.19,594.5Z" fill="#f9b499"/><path d="M304.68,426.29C327.35,450.5,378.36,579,378.36,579l-34.57,15.31s-44.45-79.35-57.08-99.75l-24.33-68.25Z" fill="#2f2e41"/><path d="M304.68,426.29C327.35,450.5,378.36,579,378.36,579l-34.57,15.31s-44.45-79.35-57.08-99.75l-24.33-68.25Z" opacity="0.2"/><polygon points="602.04 366.98 604.04 387.53 616.73 388.79 614.74 366.84 602.04 366.98" fill="#2f2e41"/><polygon points="602.04 366.98 604.04 387.53 616.73 388.79 614.74 366.84 602.04 366.98" opacity="0.2"/><path d="M253.24,316.48s6.08,28.62,26.6,37l-42.86,4c-8.49-3.7-15.93-16-15.93-16V330Z" fill="#f9b499"/><path d="M253.24,316.48s6.08,28.62,26.6,37l-42.86,4c-8.49-3.7-15.93-16-15.93-16V330Z" opacity="0.05"/><polygon points="210.03 226.17 210.03 239.6 200.51 244.88 183.59 224.79 187.88 196.73 210.03 226.17" fill="#f9b499"/><path d="M168.78,234.31s-37-6.91-40.48,32.15a41.71,41.71,0,0,1-1.66,8.72c-4.57,14.62-18.5,63.87-17.62,118.3H219.55l4.76-61.34,38.07-18.48-20-46.48a42.09,42.09,0,0,0-18.74-20.8,33.6,33.6,0,0,0-10.85-3.61Z" fill="#686175" data-primary="true"/><path d="M174.84,245.59l-6.06-11.28s6.87-14.28,14.81-9.52L200,240.32s-17.59,2.69-23.26,5.86A1.41,1.41,0,0,1,174.84,245.59Z" fill="#686175" data-primary="true"/><path d="M174.84,245.59l-6.06-11.28s6.87-14.28,14.81-9.52L200,240.32s-17.59,2.69-23.26,5.86A1.41,1.41,0,0,1,174.84,245.59Z" fill="#fff" opacity="0.2"/><path d="M200,240.32l8.45,9.22a3.43,3.43,0,0,0,3.7.92l11.42-4.08s-.35-16.26-13.57-11.08v4.3Z" fill="#686175" data-primary="true"/><path d="M200,240.32l8.45,9.22a3.43,3.43,0,0,0,3.7.92l11.42-4.08s-.35-16.26-13.57-11.08v4.3Z" fill="#fff" opacity="0.2"/><g opacity="0.2"><path d="M119.75,393.63c0-.27-4.37-28.23,8.45-104.53l1.83.31c-12.75,75.9-8.5,103.65-8.46,103.92Z"/></g><g opacity="0.2"><path d="M182.51,394.36c-24.62-7.94-40.79-32.91-40.95-33.17l1.56-1c.16.24,16,24.67,40,32.4Z"/></g><rect x="63.81" y="393.48" width="746.42" height="17.19" fill="#ccc"/><rect x="63.81" y="393.48" width="746.42" height="17.19" opacity="0.2"/><path d="M138.57,319.19s12.52,79.43,84.91,69.91c0,0-.32-5.65,3.68-5.64h0l52.68,0,6.87-29c-10-3.57-49.73,3-49.73,3-64,5.82-62.6-43.86-62.6-43.86" fill="#f9b499"/><path d="M279.84,384l19.56-79.85H421.55l-20.09,89.37h-178l.59-7.2a3.08,3.08,0,0,1,3.09-2.82Z" fill="#f48225" data-secondary="true"/><path d="M308.92,304.11l-22.21,89.37H223.48l.59-7.2s.23-2.85,4.73-2.8h51l19.56-79.37Z" opacity="0.2"/><circle cx="357.27" cy="350.94" r="8.17" opacity="0.2"/><polygon points="349.11 386.08 352.28 372.33 400.28 372.33 396.7 386.08 349.11 386.08" opacity="0.2"/><rect x="293.52" y="38.18" width="265.21" height="136.71" fill="#fff"/><rect x="273.57" y="44.63" width="163.7" height="118.52" fill="#ccc"/><rect x="273.57" y="44.63" width="163.7" height="13.5" fill="#bcbec0"/><circle cx="355.92" cy="104.18" r="16.14" fill="#fff"/><polygon points="351.61 110.93 351.61 96.26 363.93 104.18 351.61 110.93" fill="#bcbec0"/><rect x="416.66" y="49.36" width="3.37" height="3.37" fill="#020202" opacity="0.2"/><rect x="423.6" y="49.36" width="3.37" height="3.37" fill="#020202" opacity="0.2"/><rect x="430.54" y="49.36" width="3.37" height="3.37" fill="#020202" opacity="0.2"/><path d="M432.23,148.09H279.17a.93.93,0,1,1,0-1.85H432.23a.93.93,0,0,1,0,1.85Z" fill="#fff"/><path d="M326.37,148.09h-47.2a.93.93,0,1,1,0-1.85h47.2a.93.93,0,0,1,0,1.85Z" fill="#bcbec0"/><polygon points="479.19 47.2 479.19 71.89 504.74 71.89 514.62 81.41 514.62 71.89 514.62 67.66 514.62 47.2 479.19 47.2" fill="#ccc"/><rect x="302.77" y="166.09" width="95.52" height="89.9" fill="#bcbec0"/><path d="M309.21,232l-.59-1.75c.52-.18,52.29-17.72,72.5-48.81l1.55,1C362.11,214.09,309.74,231.84,309.21,232Z" fill="#fff"/><polygon points="387.44 184.86 377.93 178.65 387.44 174.89 387.44 184.86" fill="#fff"/><rect x="382.69" y="203.64" width="6.87" height="43.36" fill="#fff"/><rect x="374.58" y="208.66" width="6.87" height="38.34" fill="#fff"/><rect x="366.47" y="212.16" width="6.87" height="34.89" fill="#fff"/><rect x="358.36" y="215.54" width="6.87" height="31.51" fill="#fff"/><rect x="350.25" y="219.11" width="6.87" height="27.94" fill="#fff"/><rect x="342.14" y="222.87" width="6.87" height="24.18" fill="#fff"/><rect x="334.03" y="226.84" width="6.87" height="20.21" fill="#fff"/><rect x="325.93" y="229.61" width="6.87" height="17.44" fill="#fff"/><rect x="317.82" y="233.08" width="6.87" height="13.97" fill="#fff"/><rect x="309.71" y="236.16" width="6.87" height="10.89" fill="#fff"/><circle cx="426.31" cy="204.2" r="7.97" fill="#ccc"/><text transform="translate(542.92 311.47) rotate(-17.83)" font-size="30.64" fill="#fff" font-family="MyriadPro-Regular, Myriad Pro">#</text><path d="M650.4,288.91c2.17-17.42,27.16-21.18,37.55-22a78.53,78.53,0,0,0,9.39-1.31c12.29-2.53,42.61-8.53,60.14,4.41,0,0-9.91,114.6-7.53,123.46H661.11S648.81,301.6,650.4,288.91Z" fill="#f48225" data-secondary="true"/><path d="M769.78,292.08a29.46,29.46,0,0,0,.1-11c-2-9.71-13.49-14.26-21.81-8.87l-.34.22a18.91,18.91,0,0,0-8.05,14.49c-1.18,17.72-5.87,67.8-21.48,75,0,0-73.75,8.72-83.67,22.21h74.26c3,0,5.5.75,7.46,3a5.8,5.8,0,0,1,1.68,3.24s34-4.23,41.93-44.49Z" fill="#f9b499"/><rect x="63.81" y="401.15" width="746.42" height="1.85" fill="#ccc"/><path d="M87.61,410.67H770.35a0,0,0,0,1,0,0v7.18a8.44,8.44,0,0,1-8.44,8.44H96.05a8.44,8.44,0,0,1-8.44-8.44v-7.18A0,0,0,0,1,87.61,410.67Z" fill="#ccc"/><path d="M266.2,426.29c29.53,0,30,71.08,30,71.08v96.92l-36.84-2.84c-10.2-35.7-11.9-119.58-11.9-119.58-95.78,22.1-128.91-22.16-128.91-22.16L124,426.29Z" fill="#2f2e41"/><path d="M498.36,542.83l22.84,14.68s78.83-60.89,96.23-98.95c0,0,139,68.23,137.17-32.27H586.44a16.89,16.89,0,0,0-12.79,5.85C560.86,447,526.74,488.66,498.36,542.83Z" fill="#2f2e41"/><g opacity="0.2"><polygon points="526.79 553.19 501.65 536.72 502.67 535.18 528.3 551.97 526.79 553.19"/></g><g opacity="0.2"><path d="M522.89,548.43l-1.6-1.07c.79-.67,79.19-67,87.35-101.61l.27-1.11,1,.49c1,.47,101.5,47,135,7.64l1.4,1.2c-33,38.7-124.88-1.52-136.22-6.7C600.57,482.7,526.13,545.7,522.89,548.43Z"/></g><g opacity="0.2"><polygon points="640.71 581.08 639.54 579.4 671.38 573.92 671.69 575.74 640.71 581.08"/></g><g opacity="0.2"><path d="M663,575.36C641.74,481.3,619.7,471.11,619.48,471l-2.81-1.28,21.45-3.35,2.77,1.94-18.53,2.39c6.2,4.91,24.5,24.73,42.51,104.34Z"/></g><path d="M168.78,234.31c.48,12.41,1.34,25.49,2.69,39.16,1.52,15.35,3.5,29.86,5.77,43.46-10.05-2.09-41.78,6.31-41.78,6.31s-11.8-31.68-8.31-49.87c0,0,.87-4.35,1.15-6.91C128.3,266.46,128.71,229.46,168.78,234.31Z" fill="#686175" data-primary="true"/><path d="M168.78,234.31c.48,12.41,1.34,25.49,2.69,39.16,1.52,15.35,3.5,29.86,5.77,43.46-10.05-2.09-41.78,6.31-41.78,6.31s-11.8-31.68-8.31-49.87c0,0,.87-4.35,1.15-6.91C128.3,266.46,128.71,229.46,168.78,234.31Z" opacity="0.2"/><path d="M224.31,332.14l-.71-85.76a43.93,43.93,0,0,1,18.74,20.8l20,46.48Z" opacity="0.2"/><path d="M688.68,279V254.8l24.28-13s5,14,14,20.24C726.94,262,720.22,287.72,688.68,279Z" fill="#f9b499"/><ellipse cx="717.96" cy="220.66" rx="12.26" ry="7.65" transform="translate(308 850.02) rotate(-74)" fill="#f9b499"/><polygon points="548.23 372.33 525.44 282.97 651.86 282.97 675.38 372.33 548.23 372.33" fill="#2f2e41"/><circle cx="595.57" cy="330.95" r="9.12" opacity="0.2"/><polygon points="665.52 372.33 642.86 282.97 651.86 282.97 675.38 372.33 665.52 372.33" opacity="0.2"/><path d="M559.18,393.48l-.74-3.49a4.88,4.88,0,0,1,4.77-5.89H709.88a8.32,8.32,0,0,1,8.32,8.32v1.06" fill="#2f2e41"/><rect x="96.32" y="503.48" width="670.29" height="11.47" fill="#ccc"/><rect x="96.32" y="503.48" width="670.29" height="11.47" opacity="0.2"/><polygon points="53.5 646.25 72.54 646.25 124.02 426.29 105.76 426.29 53.5 646.25" fill="#ccc"/><polygon points="793.19 647.32 737.93 421.68 760.3 421.68 812.26 647.32 793.19 647.32" fill="#ccc"/><path d="M426.38,615.18C417.22,605,392.77,617,392.77,617l-12.5-34L347.2,599.54,366,645.35l3.42,6.85L429.8,622Z" fill="#686175" data-primary="true"/><line x1="392.77" y1="617.04" x2="392.67" y2="625.52" fill="none" stroke="#000" stroke-miterlimit="10" opacity="0.2"/><line x1="398.21" y1="614.94" x2="398.01" y2="622.86" fill="none" stroke="#000" stroke-miterlimit="10" opacity="0.2"/><path d="M403.47,613s-.06,6.28,0,7.15" fill="none" stroke="#000" stroke-miterlimit="10" opacity="0.2"/><path d="M495,548.71l-14.14,23.75s-16.64-12.46-24.94-6.1L452.42,571,493.5,602.1l3.52-4.66,20.48-31.72Z" fill="#f48225" data-secondary="true"/><path d="M684.43,627.15l-7.94-36.92-27.93,3.87,6.8,26.79s-20.58,3-22,13.32l.8,5.78,51-7.06Z" fill="#f48225" data-secondary="true"/><path d="M688.8,262.36l-.29-5.14s17.72,3.43,24-12.86C712.51,244.36,715.94,261.22,688.8,262.36Z" fill="#f7a48b"/><path d="M712.23,189.08a75.42,75.42,0,0,1,7.84-3.92,44.32,44.32,0,0,1,8.35-2.73,19.71,19.71,0,0,1,4.41-.45,8.68,8.68,0,0,1,4.34,1.13,6.1,6.1,0,0,1,2.61,3.67,13.23,13.23,0,0,1,.28,4.47v.09a106.34,106.34,0,0,0-4,14.14A75.23,75.23,0,0,0,734.31,220c0,4.87.49,9.85,2.52,14.3a18.35,18.35,0,0,0,4.24,5.9,17.93,17.93,0,0,0,6.3,3.69,18.09,18.09,0,0,1-6.46-3.51,17.83,17.83,0,0,1-4.46-5.9A33.35,33.35,0,0,1,733.66,220a75.71,75.71,0,0,1,1.68-14.71,100.78,100.78,0,0,1,4.06-14.23l0,.09a12.53,12.53,0,0,0-.23-4.24,5.57,5.57,0,0,0-2.31-3.32,8.09,8.09,0,0,0-4-1.1,18.89,18.89,0,0,0-4.3.36,48.22,48.22,0,0,0-8.34,2.52A75,75,0,0,0,712.23,189.08Z" fill="#2f2e41"/><path d="M760.2,220.89a46.73,46.73,0,0,0,4.07-18c.21-20.73-7-33.13-7-33.13-21-43.28-50.57-14.57-50.57-14.57a22.25,22.25,0,0,0-4.18,4.73c-11.23,13,2.89,17.13,2.89,17.13l.78-.7a11.5,11.5,0,0,0,.93.7c6.86.43,13.72,7.28,13.72,7.28,19-16.24,24.22-2.56,25.53,9.72a51.91,51.91,0,0,1-2,19.89c-6.07,21,6.79,28.44,14.16,30.94a1.92,1.92,0,0,0,2.36-2.66A27.22,27.22,0,0,1,760.2,220.89Z" fill="#2f2e41"/><circle cx="713.56" cy="181.7" r="9.18" fill="#f48225" data-secondary="true"/><ellipse cx="688.68" cy="226.54" rx="24.22" ry="32.98" transform="translate(-35.97 248.54) rotate(-19.95)" fill="#f9b499"/><path d="M723.77,211.17c-3.31-4-7.09-1.28-9.58,1.48a12.69,12.69,0,0,0-2.87,6.35c-1.14,6.39-7.78,4.6-7.78,4.6l-.69-11.18a1.78,1.78,0,0,0-1.63-1.65c-6.08-.65-9.54-8.51-10.71-11.72a2.69,2.69,0,0,0-2.11-1.75c-6.71-1.13-14.55,2.68-19.31,5.13-2.18,1.12-2.57,3.69-3.08,5.9a138.78,138.78,0,0,0-2.4,17.06s-21.54-29.09,17.59-45.52c0,0,31.46-15.5,44.55,11.47,0,0,9.25,22-3.44,37.47C722.31,228.81,727.74,215.93,723.77,211.17Z" fill="#2f2e41"/><path d="M209.94,231.08l.29-4.43a59.89,59.89,0,0,1-17.43-18.86S191.37,224.65,209.94,231.08Z" fill="#f7a48b"/><ellipse cx="214.85" cy="197.31" rx="23.78" ry="31.22" fill="#f9b499"/><path d="M193.43,192.23c1.63,5.81.21,11.29-3.18,12.24s-7.44-3-9.07-8.81-.21-11.3,3.18-12.24C188.44,182.29,191.81,186.41,193.43,192.23Z" fill="#f9b499"/><path d="M238.63,195.34c37.57-5.71,16-29.25,7.92-24.33-.59.36-.76-1.12-.41-1.72,11-18.71-22.36-14.83-22.36-14.83-1.59-10.05-19-7.41-19-7.41-20.1-7.93-19.57,13.75-19.57,13.75-19,4.76-3.81,25.56-3.81,25.56s8.42-10.75,12.73,9.87h4.83l-.93-19a2,2,0,0,1,2.4-2c3.57.76,10,1.76,13.34-.09,0,0,7.93-6.87,12.16.53,0,0,4.37,6.88,9.66,6.35C235.55,182,238.63,190.06,238.63,195.34Z" fill="#2f2e41"/></svg>