<svg xmlns="http://www.w3.org/2000/svg" xmlns:xlink="http://www.w3.org/1999/xlink" width="865.76" height="682.89" viewBox="0 0 865.76 682.89"><defs><linearGradient id="f400acaf-3c4b-4af9-bdf1-32af7eb14511" x1="507" y1="-12.19" x2="362.63" y2="614.89" gradientUnits="userSpaceOnUse"><stop offset="0" stop-color="#f6ecea"/><stop offset="1" stop-color="#ddd7e2"/></linearGradient><linearGradient id="ba9df777-830a-41cb-85b1-ec49b7c47fb5" x1="430.08" y1="684.25" x2="425.81" y2="576.8" gradientUnits="userSpaceOnUse"><stop offset="0.14" stop-color="#f6ecea"/><stop offset="0.62" stop-color="#eae2e6"/><stop offset="1" stop-color="#ddd7e2"/></linearGradient><linearGradient id="f6a6a636-7a7c-470c-a44c-f76500408acc" x1="311.41" y1="873.64" x2="302.11" y2="723.35" gradientTransform="translate(1.86 -161.27) rotate(-0.07)" xlink:href="#f400acaf-3c4b-4af9-bdf1-32af7eb14511"/><linearGradient id="e4b17a2c-50ad-42e5-a735-4c6a41534582" x1="612.39" y1="723.74" x2="598.52" y2="499.49" xlink:href="#f400acaf-3c4b-4af9-bdf1-32af7eb14511"/><linearGradient id="a0358016-70be-4995-abad-ccd698e5ec98" x1="-1020.58" y1="4333.94" x2="-1020.98" y2="4281.78" gradientTransform="translate(1550.76 -4166.74) scale(0.88 1)" xlink:href="#f400acaf-3c4b-4af9-bdf1-32af7eb14511"/><clipPath id="a44c136e-2b5e-4cd8-ae82-c0a8f241804c"><path id="b4f5b0ad-37f4-460a-b8e2-7af5023cccae" data-name="SVGID" d="M184.16,296.29s21.64-9.93,31.08-45.24c0,0,4.07-18.72,2.61-47.53,0,0-2.6-29.11,23.23-36.89,0,0,24.13-7,31.69,14.68,0,0,6.27,16.68,8.55,21.89,0,0,25.71,20.51,14,41.66,0,0-7.49,10.42-18.88,12.05,0,0-11.4,37.1-24.74,51.43Z" fill="#686175" data-primary="true"/></clipPath></defs><g style="isolation:isolate"><g id="f2295eda-cdb2-4ef0-bebc-bff5bcccafb4" data-name="Layer 1"><path d="M660.76,190.66c-1.89-10.6-7.26-21-16.35-27-17.43-11.55-41.12-3.87-59.77,5.78.34-7.11,3.68-13.29,5.74-20.12s.85-15.9-5.9-18.56c-4.86-1.9-10.39.44-14.54,3.56s-7.75,7.09-12.55,9.15c22.73-26.31,39.65-56.25,55.42-87,3.5-6.83,6.86-13.9,7.85-21.47s-.71-15.83-6.2-21.25c-8.69-8.59-23.22-7.29-35-3.53a118.14,118.14,0,0,0-54.23,36.26c-2.35,2.8-5.89,5-9.57,4.71a7.89,7.89,0,0,1-7-7.17c-.23-5,4.28-10.64.91-14.37-9.18-10.15-27.9-6.4-40.32-.31S446.51,44.79,436,53.69,414.32,71.27,401.1,75.4c-4.87,1.52-10.32,2.35-14.94.24s-7.56-8.14-4.81-12.35c-2.38-4.54-8-3.39-12.66-1s-7.86,6.65-11.63,10.19a24,24,0,0,1-6.33,4.42c3.12-11,7.5-26.13,10.35-36.23,1.11-4,2-8.79-1-11.65-2.35-2.23-6.08-2.16-9.32-1.66-16.78,2.61-31.55,12.88-42.5,25.59-7.4,8.6-13.26,18.3-18.49,28.35a9.64,9.64,0,0,0,8.88,14.06l.79,0c-30.8,39.75-63.05,80.85-78.19,128.46-2.13,6.71-3.94,13.93-2,20.69s8.83,12.64,15.84,11.11c6.58-1.46,11.45-8.72,18.13-7.89,6.94.86,9.31,10.55,5.61,16.36s-10.77,8.53-17.35,10.88c-6.67,9.31-3.8,23.85,6,29.95C232,320.46,219.2,339,212,359.58c-5.61,16-8,34.83,1.57,48.88,4.85,7.1,12.34,12.3,16.49,19.8,4.64,8.38,4.47,18.68,1.68,27.82s-7.93,17.38-13,25.52c-5.47,8.71-4.81,20.3-5.89,30.46S214.73,534,224,538.74c7.78,4,17.37,1.69,25.42-1.8a94.27,94.27,0,0,0,34.15-25.24c13.54.77,23,11.19,26.13,24.09s2.67,26.7,8.06,38.85c3.91,8.79,12.13,16.81,21.92,16.43,6.67-.26,12.51-4.29,17.7-8.41a203.45,203.45,0,0,0,35.3-36c8.13,6.77,12.09,17,18.69,25.2,8.08,10,23.58,11.93,35.8,7.38s21.64-14.24,29.62-24.38c11,17,34.45,22.46,54.46,17.5s36.6-18.63,50.37-33.69c34.9-38.16,56.17-88,59.32-139.11.67-10.8.11-22.78-7.47-30.64-9.16-9.5-24.46-9.05-37.78-7.91,33.3-39.37,55.15-87.91,63.9-138.27C661.39,212.15,662.64,201.25,660.76,190.66ZM299,405.49a321.38,321.38,0,0,0-37.87,56.9c-2.48,4.74-6.82,10.44-11.95,8.68-2.93-1-4.51-4.27-4.46-7.3s1.37-5.9,2.66-8.66c3.81-8.08,7.39-16.79,11.19-24.87-2.2,3.76-8.78,1.9-10.41-2.12s0-8.53,1.61-12.56q6.17-15.24,12.68-30.34l1.42.38c2.81-1.93,4.46-5.07,5.77-8.18s2.41-6.36,4.54-9,5.59-4.56,8.93-3.82,4.11,5.4,2.08,8.11a24.6,24.6,0,0,0,17.19,4C304.21,386.25,305.23,398,299,405.49ZM414.73,188l-14.4,20.4c-4.79,6.79-9.66,13.66-16,19.07s-14.53,9.3-22.95,9-18.14-4.56-20.37-12.51c1.75-4.41,3.52-9,2.94-13.73s-4.38-9.36-9.21-9.24c-3.61.09-6.6,2.67-9.12,5.21a131,131,0,0,0-14.25,17c-3.09,4.4-6.75,9.49-12.19,9.77-4.36.21-8.35-3.12-9.69-7.17s-.43-8.58,1.54-12.38a48.94,48.94,0,0,1,6.92-10.69c2.13-2.36,4.35-4.9,4.89-8s-.85-6.54-4.06-6.73c-1.75,2.65-3.65,5.43-6.55,6.8s-7.09.66-8.28-2.27c-1-2.39.36-5,1.67-7.28q5.57-9.41,11.57-18.56l-.43-1A202.93,202.93,0,0,1,330,122.91c3-2.92,6.21-5.84,10.2-7.19s9-.72,11.58,2.54,2.09,7.84,1,11.81A54.24,54.24,0,0,1,343,149.5c-1.23,1.54-2.62,3.3-2.32,5.23s4.27,3,4.92,1.18c1.94-1.54,4-3.1,6.46-3.57s5.37.5,6.26,2.78,1,4.56,2.36,6.48a51.59,51.59,0,0,1,23.81-20.92c5.22-2.26,11.2-3.66,16.63-1.94s10.72,7.57,9.24,13a9.73,9.73,0,0,0-.41,14.13c.7-.22.87-.21.25-.59l12.11.15C422.68,173.24,419.29,181.51,414.73,188ZM606.79,410.5c1.84,12.67-3.34,25.22-8.41,37l-17.89,41.68c-3.27,7.62-6.76,15.54-13.22,20.86s-16.85,7.05-23.16,1.58c-3.62,5.71-8.47,12.28-13.94,16.35s-13.11,6-19.3,3.14c-4.73-2.21-7.86-6.89-9.33-11.82S500,509.19,500,504.05c8.33-11.4,13.54-22.89,19.12-35.8-5.83-11.68-7.37-23.83-3.38-36.26a52.46,52.46,0,0,1,24.63-29.58c1.56-8.25,7.37-14,15.24-17.33A27.2,27.2,0,0,1,580.21,387l.09,1C593.15,385.62,605,397.82,606.79,410.5Zm-3.28-203.13c-2.43,3.85-5.43,7.54-6.38,12,2.57-.14,2.32,4.1,2.72,6.58s-.45,5-1.33,7.34C588,261.72,572,289.74,546,306.17c-5.91,3.74-14.42,6.56-19.35,1.67-4.14-4.12-2.78-11.08.06-16.16s6.94-9.75,7.7-15.48c-6.31,5-19.45,7.36-25.53,2.08s-8.4-13.92-7.24-21.8,5.44-15.08,10.73-21.14,11.63-11.15,17.74-16.42a348.06,348.06,0,0,0,26.39-25.27c1.36-1.43,4.22-2.33,4.74-.45s-.06,3.9.27,5.83a6.8,6.8,0,0,0,6,5.45,6.92,6.92,0,0,0,6.89-4.35l-.14,3.24c3.9-5.7,8.12-11.67,14.5-14.49s15.49-.82,17.66,5.68C607.89,198.86,605.94,203.52,603.51,207.37Z" fill="url(#f400acaf-3c4b-4af9-bdf1-32af7eb14511)" style="mix-blend-mode:multiply"/><path d="M677.65,605c.07,4-4,7.93-11.33,11.51-18.08,8.82-56.15,15.65-101.86,17.76-6.48.29-13.12.49-19.87.59l-3.55,0c-2.06,1.87-6.49,1.8-8.76,1.76-2.66,0-4.19-.38-5.67.51-2.29,1.36-1.86,5.1.79,5.21,5.07.19,10.29.44,14.88,2.61s8.41,6.81,8.05,11.9-4.2,8.35-8.26,11.64l-18.53,1.33L376.4,675.51c-3.89.15-7.61.15-11.51,0-4.3-.15-6.91-4.38-7.41-8.27s.82-8.38,5.88-8.92c3.28-.34,6.77-1.22,6.95-4.53s-2.39-6.28-5.42-7.62-6.43-1.36-9.73-1.38c-30.63-.16-58.44-.5-90.35,1.28-11.84.67-24.5,1.45-36.33.63a17.9,17.9,0,0,1-7.59-1.75c-2.29-1.28-4.08-3.79-3.74-6.4.31-2.41,2.29-4.26,4.42-5.4s4.49-1.79,6.56-3c4.72-2.81,15.75-5.92,6.15-12a34.23,34.23,0,0,0-5-.7h0l-.62,0h-.07c-.58,0-1.17-.05-1.74-.05a192.53,192.53,0,0,1-27.36-2.69c-2.15-.4-4.19-.83-6.1-1.29-10.48-2.55-16.92-6.15-17.26-10.43-.41-5,7.55-9.92,20.75-13.89h0a161.61,161.61,0,0,1,17.74-4.14A271.28,271.28,0,0,1,248.78,581c4.51-.24,8.91-.36,13.2-.4,5.75,0,11.28.08,16.51.36,6,.32,11.7.85,16.83,1.57A105.44,105.44,0,0,1,311.45,586a163,163,0,0,0,37.67-6.19c-2.07-4.09,2.06-10,6.56-9.3q43.9-4.22,88.07-4.53c6.27,0,12.92.07,18.21,3.43s8.58,10.24,4.72,15.2q5.7-.54,11.44-1A563.39,563.39,0,0,1,543.78,579C617.5,577.94,677.44,589.56,677.65,605Z" fill="url(#ba9df777-830a-41cb-85b1-ec49b7c47fb5)"/><ellipse cx="310.76" cy="654.46" rx="40.4" ry="6.15" transform="translate(-18.99 9.36) rotate(-1.67)" fill="url(#f6a6a636-7a7c-470c-a44c-f76500408acc)"/><ellipse cx="607.46" cy="644.06" rx="52.67" ry="9.38" fill="url(#e4b17a2c-50ad-42e5-a735-4c6a41534582)"/><ellipse cx="555.79" cy="590.19" rx="37.36" ry="5.08" fill="#fff"/><ellipse cx="346.41" cy="619.2" rx="41.82" ry="5.02" fill="#fff"/><path d="M462.27,643.82c1.23.43,1.9.9,1.9,1.37,0,2.5-18.09,4.51-40.4,4.51s-40.39-2-40.39-4.51c0-1.86,10-3.45,24.38-4.14-2-.65-3.14-1.35-3.14-2.09,0-3,18.09-5.37,40.39-5.37s40.4,2.41,40.4,5.37C485.41,641.11,475.94,643,462.27,643.82Z" fill="#fff"/><ellipse cx="650.15" cy="50.04" rx="36.15" ry="9.67" transform="translate(222.25 542.08) rotate(-53.39)" fill="url(#a0358016-70be-4995-abad-ccd698e5ec98)" style="mix-blend-mode:multiply"/><path d="M567.14,132s6.9,23.37,6.9,28.35c0,0,9.57-19.53,24.13-14.55l-23.75-34.86Z" fill="#fccdc3"/><path d="M569.31,139.55l-1.45-5.11s3.43-2.69,5.5-11.51C573.36,122.93,575.05,133.33,569.31,139.55Z" fill="#fc9189"/><path d="M271.84,179.76S301.17,201.9,333.73,240c0,0,1.62,1.3,7.81-1.95,0,0,15.3-10.74,48.17-10.09l36.84-3.63a25.68,25.68,0,0,0,4.67-.9,23.53,23.53,0,0,1,5.9-.92,19.89,19.89,0,0,0,8.56-2.24l13-6.64s4.23-3.58,11.07.33l11.71,5.53s.65,4.89-11.71-1c0,0-1.47.32,0,2.28l9.11,2.6s.33,2.93-7.81.16l-8.63-1.79s-9.6,13.35-20.34,7A34.37,34.37,0,0,0,432,230.38s-57,24.9-94.07,36c0,0-14.65,5.86-44.92-22.46Z" fill="#fccdc3"/><path d="M315.64,436.26h5.69s-19.51,29.66-17.48,97.52c0,0,2.85,74-6.5,77.2l-3.65,2s5.28,7.32,4.47,30.48c0,0,.56,4.51,8.86,5.32,0,0,4.56-19,4.4-36,0,0-.82-7.65,3.74-19.7l21.15-53.5a144.71,144.71,0,0,0,9.8-63.17l-4.5-65.2-30.76,17.57Z" fill="#fccdc3"/><path d="M193.92,454s19.53,84.47,7.81,195.3h10.74s1-142.08,19.05-193.84Z" fill="#926ef6"/><path d="M178.53,642.87h68.37a17.53,17.53,0,0,1,17.53,17.53V662a0,0,0,0,1,0,0H161a0,0,0,0,1,0,0V660.4A17.53,17.53,0,0,1,178.53,642.87Z" fill="#e6dffe"/><path d="M184.16,296.29s-32.23,13.19-26.86,46.88c0,0,37.6,93.25,145.5,78.6,2.44-.48,34.67-43,34.67-43s-39.55-31.25-94.24-41.5a99.7,99.7,0,0,0,8.47-29Z" fill="#21224f"/><path d="M333.07,426.17l-20,5.37-10.26-9.77,34.67-43s41,12.2,40,49.8c0,0-6.84,123.53-4.89,167.47,0,0-1.46,5.86,2.93,13.67,0,0,7.81,18.07,7.81,32.72a3.54,3.54,0,0,0,2.45,3.9s-10.91,3.91-12.54-5.21c0,0-6-17.41-13.67-23.6,0,0,5.37-4.23,3.91-8.46,0,0-22.62-61.84-31.74-102.86C331.77,506.24,319.08,462.63,333.07,426.17Z" fill="#fccdc3"/><path d="M279.2,653.25l1.39.35,8.8-21.42s3.8,8.37.92,19.87a5.14,5.14,0,0,0,2,5.43c4.24,3,12.67,7.85,22.64,7.45a1.2,1.2,0,0,0,1.17-1.12c.17-2.5-.35-9-9.1-15,0,0-7.52-.78-8.86-5.32,0,0,1.64-18.77-4.47-30.48,0,0-9.27,2.27-9.27,8.58,0,0-1.45,20.5-5.94,30.14A1.09,1.09,0,0,0,279.2,653.25Z" fill="#686175" data-primary="true"/><path d="M135,281.06s-9.47-2.52-10.73,10.1c0,0-52.37,130,65,167.84,0,0,34.71,11.36,89.61-4.41,0,0,52.49-8.4,32.71-28.42,0,0-13.67-18.56-67.87-22.95,0,0-28.74-3.48-35.22-27.73a91.59,91.59,0,0,0-4.49-13.1C194.8,341.41,168.64,288.78,135,281.06Z" fill="#e6dffe"/><rect x="426.88" y="310.8" width="16.59" height="333.54" fill="#5f2e9b"/><path d="M409.19,639.78h52A15.19,15.19,0,0,1,476.35,655v1.41a0,0,0,0,1,0,0H394a0,0,0,0,1,0,0V655A15.19,15.19,0,0,1,409.19,639.78Z" fill="#926ef6"/><path d="M653.79,454.27s23.75,131,17.62,198.43l10.73.77s-10-158.6,9.19-206.1Z" fill="#926ef6"/><path d="M642.21,649.64h68.37a17.53,17.53,0,0,1,17.53,17.53v1.62a0,0,0,0,1,0,0H624.68a0,0,0,0,1,0,0v-1.62A17.53,17.53,0,0,1,642.21,649.64Z" fill="#e6dffe"/><path d="M495.49,598.82l1,39.33a17.53,17.53,0,0,0,13.27,2l1.48-40.32Z" fill="#ffcfb6"/><path d="M514.71,636.53s8.46,9.44,5.21,20.51c0,0-33.71,6.49-58.92-1.92a2.76,2.76,0,0,1-1.61-3.92,2.67,2.67,0,0,1,2.26-1.32s27.34-8.47,27-13c0,0,1-5.54,7.16-.33A17.71,17.71,0,0,0,514.71,636.53Z" fill="#f48225" data-secondary="true"/><path d="M459.37,653.78s-1,2.61,0,4.23c0,0,29.43,8.89,59.43,2a1.9,1.9,0,0,0,1.12-3h0l-2.61.65S479.56,663.55,459.37,653.78Z" fill="#21224f"/><path d="M565.22,578.24,584,623.83s10.72-5.75,8.42-16.48l-1.36-.39a2.33,2.33,0,0,1-1.64-1.7l-8.49-35.45Z" fill="#ffcfb6"/><path d="M613.58,606.91s-6.1-5.62-21.73-1.22l.57,1.66s2.76,9.71-8.42,16.48c0,0-4.35,3.59.77,6.51,0,0,2.69,2.2,2.45,11,0,0-4.15,23.19,3.66,22.22C590.88,663.55,603.08,657,613.58,606.91Z" fill="#f48225" data-secondary="true"/><path d="M590.88,663.55s1,2.93,3.66,1c0,0,12.67-11.95,21.92-55.73a1.84,1.84,0,0,0-2.81-1.93l-.07,0S604.79,652.32,590.88,663.55Z" fill="#21224f"/><path d="M487.13,428.22s-11.31,67.84,5.41,178l20.64.5S524,528,535.8,516.71Z" fill="#21224f"/><path d="M487.13,428.22s-11.31,67.84,5.41,178l20.64.5S524,528,535.8,516.71Z" opacity="0.2"/><path d="M607.75,297.44l12.69,28.74a4.25,4.25,0,0,1-2.45,5.73c-24.75,8.82-147.2,54.23-138.77,85.92.12.46.28.89.44,1.33,2.53,6.76,24,63.58,43.81,97.4l36.77,67.81,24.52-11.49s-9.19-42.14-12.64-75.47c0,0-3.06-51-28-66.65,0,0,126.41,34.09,152.84-12.65,0,0,15-26.7,15-60.91a94.67,94.67,0,0,0-37.7-75.47c-5.25-4-10.35-6.74-14.06-6.5Z" fill="#21224f"/><path d="M741.13,288.78s0-12.26-19.92,0c0,0-32.17,23-52.86,91.17,0,0-.77,20.69-38.31,26.82,0,0-70.48,13.79-50.56,39.84,0,0,98.83,44.43,143.27-7.67C722.75,438.94,776.38,394.51,741.13,288.78Z" fill="#e6dffe"/><line x1="487.91" y1="200.8" x2="480.99" y2="209.23" fill="none" stroke="#21224f" stroke-miterlimit="10"/><polyline points="482.94 210.1 483.8 205.77 479.48 207.5" fill="none" stroke="#21224f" stroke-miterlimit="10"/><path d="M522.78,202.1s-2.81-3.46-10.17-1.73c0,0-1.51,1.29-8.21-4.11l-6.33-.3a2.46,2.46,0,0,1-2.28-3h0a2.46,2.46,0,0,1,2.07-1.87l18.21-2.37,9.09,5-2.28,8.07Z" fill="#fc9189"/><path d="M485.8,200.07l3.11,2.83a1.1,1.1,0,0,0,1.52-.05l8.35-8.57a3,3,0,0,0-.09-4.28h0a3,3,0,0,0-4.14,0l-8.77,8.45A1.09,1.09,0,0,0,485.8,200.07Z" fill="#686175" data-primary="true"/><path d="M491.54,178.31h0a1.21,1.21,0,0,0,1.18,1.1l8.59.16a3.88,3.88,0,0,1,2.92,1.43l1.68,2.07,9.3-.65-8-4.7a6.59,6.59,0,0,0-3.39-.9l-11.14.17A1.21,1.21,0,0,0,491.54,178.31Z" fill="#fc9189"/><path d="M593.06,269.56s-7.57,6.92-12.11,0c0,0-27-27.68-37.85-51.68,0,0-9.73-19.24-13.84-14.49,0,0-1.91,3-5.49-.27a6.86,6.86,0,0,1-2.2-5.49c.13-2.7-.31-6.64-4-6.78,0,0-2.6-.86-8,1.73l-1.51.61a1.08,1.08,0,0,1-1.15-.24h0a1.06,1.06,0,0,1,.05-1.55l1.53-1.35a1.26,1.26,0,0,0-.19-2h0a1.25,1.25,0,0,0-1.34,0l-6.07,4a1.07,1.07,0,0,1-1.57-.45h0a1.09,1.09,0,0,1,.34-1.3l4.54-3.34a1.11,1.11,0,0,0-.47-2h0l-7.84,5.55a1.23,1.23,0,0,1-1.73-.32h0a1.23,1.23,0,0,1,.24-1.62c2.82-2.32,12.26-9.29,20.79-6.2,0,0,8.26,4.13,13.65,9a14.84,14.84,0,0,0,3.4,2.27,32.92,32.92,0,0,1,8.68,6.08l49.95,47.35Z" fill="#fccdc3"/><path d="M568.65,57.79S579,30.92,602.94,44.93A41.28,41.28,0,0,1,623.12,81c-.1,11.2,1.41,25.51,8.75,33a1.72,1.72,0,0,1-1.66,2.86c-12-3-31.46-11.72-28-37,0,0-4.09-30.27-21.28-16.36C580.92,63.52,576,65.16,568.65,57.79Z" fill="#1d0031"/><circle cx="573.56" cy="63.52" r="7.36" fill="#f48225" data-secondary="true"/><ellipse cx="547.22" cy="106.89" rx="25.86" ry="36.91" transform="translate(-6.96 168.24) rotate(-17.37)" fill="#fccdc3"/><path d="M585.14,253.77s-4.21-8.81-7.66-14.55c0,0-29.49,7.66-18.38-43.67,0,0,13.79-46.74,28.73-51.34,0,0,35.24-10.72,49.41,42.52,0,0,6.9,29.12,7.66,41,0,0,4.6,31.42,15.33,47.51,0,0-22.6,26.43-52.48,22.21Z" fill="#f48225" data-secondary="true"/><path d="M520,99.78s-5-29.5,31.41-38.31c0,0,35.25-8,46.74,35.62,0,0,8,26.05,8,39.84,0,0-3.83,4.22-19.53,5.75,0,0-9.2-11.11-9.2-20.3,0,0-1.91,7.28,6.52,20.68l-3.45.39s-7.28-13.79-10.35-37.16a60.85,60.85,0,0,0-11-5.72,45.5,45.5,0,0,0-28.34-1.51A28.35,28.35,0,0,1,520,99.78Z" fill="#1d0031"/><ellipse cx="565.22" cy="102.07" rx="4.98" ry="7.28" transform="translate(24.69 296.29) rotate(-30)" fill="#fccdc3"/><path d="M249.63,140.75s2.44,17.33-8.55,25.88c0,0,15.63-2.2,22.22,2.44,0,0-2.69-12.45.24-20.75l-12.2-20.26S244.75,141.73,249.63,140.75Z" fill="#fccdc3"/><path id="b47e9598-66f2-4ef3-91b2-e3ac7e798865" data-name="SVGID" d="M184.16,296.29s21.64-9.93,31.08-45.24c0,0,4.07-18.72,2.61-47.53,0,0-2.6-29.11,23.23-36.89,0,0,24.13-7,31.69,14.68,0,0,6.27,16.68,8.55,21.89,0,0,25.71,20.51,14,41.66,0,0-7.49,10.42-18.88,12.05,0,0-11.4,37.1-24.74,51.43Z" fill="#686175" data-primary="true"/><g clip-path="url(#a44c136e-2b5e-4cd8-ae82-c0a8f241804c)"><path d="M184.16,296.29s21.28-9,31.08-45.24c0,0,.83,33.32,19.26,32.94,0,0,23.45,2.65,39.53-19.86,0,0-11.29,33.23-22.33,44.21C251.7,308.34,231,315.28,184.16,296.29Z" opacity="0.2"/></g><path d="M459.73,224.77c-6.5-6.71,3.58-1.34,3.58-1.34-3.58-5.37,3.36-.67,3.36-.67a12.48,12.48,0,0,0,6.2,4.42,4.81,4.81,0,0,0,5.37-2.22c5.39-9.18,13.05-4.66,13.05-4.66l15.45,10.52c10.3,8.06,18.35,9,18.35,9,13.21,1.79,26.2,7.84,26.2,7.84,5.37-32.69,24.85-82.38,24.85-82.38,7.16-23.29,23.5-17.91,23.5-17.91,20.6,6.26,10.52,29.1,10.52,29.1-12.53,51-44.77,99.4-44.77,99.4-2.24,3.35-4.48,3.13-4.48,3.13-33.35-4.25-71.19-45.45-71.19-45.45-4-4.7-9.17-.89-9.17-.89-5.38,2.46-25.75.45-25.75.45a55.1,55.1,0,0,0-7.39-4.7l-.67-.37c-2.57-1.55-.45-2.32-.45-2.32s9,4.32,12.7,3.24c0,0-10.38-4.54-8-6.49Z" fill="#fccdc3"/><rect x="319.81" y="289.55" width="248.31" height="26.83" fill="#926ef6"/><path d="M359.6,617.56s-9,4.39-5.36,12.52c0,0,6.1,23.57,5.28,30.07H362s-1.22-24.38.41-23.57,6.47,10.51,7.86,19.36a3.62,3.62,0,0,0,2.59,2.92c5.13,1.48,17.67,4.22,26.52-1.15,0,0,2.18-5.2-13.53-11.34,0,0-7.19.37-8.41-11.42C377.4,635,374.31,614.4,359.6,617.56Z" fill="#686175" data-primary="true"/><path d="M263.23,149.46a10.77,10.77,0,0,0-.75,3.75s-10.38-8.47-9-17.08C253.47,136.13,258.43,147.18,263.23,149.46Z" fill="#fc9189"/><ellipse cx="274.03" cy="121.53" rx="23.1" ry="33.44" fill="#fccdc3"/><path d="M260.61,115.36s20-12.21,35.89-1.46c0,0,5.13-4,2.17-16.29a27.75,27.75,0,0,0-10.45-15.75c-10.58-7.86-31.86-17.51-58.66,2.53,0,0-13.34,8.79-20.83,35.15,0,0-1.63,5.86-10.41,7.82,0,0-13.68,2-10.75,16.6,0,0,.33,3.25,4.24,11.72,0,0,5.2,11.71-9.77,19.2,0,0-20.83,5.86-13.35,19.53l7.17,14.32s6.43,8.76-.16,16.42a10.46,10.46,0,0,0-.15,13.43c.3.36.61.71,1,1.08,0,0,11.05,13.31,23.89,21.62a6.5,6.5,0,0,0,8.83-1.74l6-8.49a193.17,193.17,0,0,0,2.61-47.53s-3.33-27.57,23.23-36.89c0,0,10.38-6.63,8.55-25.88,0,0-4.73.7,1.71-12.69C251.34,128.06,254.56,117.36,260.61,115.36Z" fill="#1d0031"/><path d="M258.05,111.49s17.68-20.37,35.45-21.82a5.49,5.49,0,0,1,4.69,2c2.55,3.14,6.22,9,1.19,11.82a6.19,6.19,0,0,1-4.43.58c-3.76-.85-13.57-2-26.45,4.2,0,0-5.88,2.83-8.06,5.33a.21.21,0,0,1-.36-.06C259.79,112.89,259.67,112.38,258.05,111.49Z" fill="#686175" data-primary="true"/><ellipse cx="256.37" cy="118.82" rx="7.57" ry="4.73" transform="translate(112.72 362.15) rotate(-84.31)" fill="#fccdc3"/><path d="M260.52,172.48a16.65,16.65,0,0,0-25.8,11.78c-.76,6,.24,14.42,5.52,25.81,0,0,36.52,73.69,55.65,91.57a4.71,4.71,0,0,0,5.87.45c8.49-5.78,34.64-26.72,75-87,0,0,26.3-1.19,36.06-7.37,0,0-.65-1.63-8.46.65,0,0,9.11-4.89,3.91-4.56l-9.12,2.6s9.44-5.86-7.49-.32c0,0-9.76,0-6.18-3.91,0,0,5.21-3.58,2.28-5.86a29.17,29.17,0,0,1-9.44,4.89s-8.13,2.61-8.76,7.29a10.06,10.06,0,0,1-.63,2.54,26,26,0,0,1-7.21,9.37s-10.09,9.44-28.32,21.81c0,0-17.9,10.42-30.6,26,0,0-17.9-73.56-41.66-95.37C261.14,172.93,260.92,172.76,260.52,172.48Z" fill="#fccdc3"/><rect x="486.45" y="261.17" width="11.68" height="6.27" fill="#686175" data-primary="true"/><path d="M479.63,264.85h25.3a0,0,0,0,1,0,0v13.07a11.58,11.58,0,0,1-11.58,11.58h-2.15a11.58,11.58,0,0,1-11.58-11.58V264.85A0,0,0,0,1,479.63,264.85Z" fill="#686175" data-primary="true"/><path d="M282.43,134.29l-1.78,5.05c-.29.81,0,1.72.5,1.81l2.57.42c.6.09,1.16-.89,1-1.81l-.8-5.46C283.79,133.2,282.82,133.19,282.43,134.29Z" fill="#fc9189"/><path d="M289.78,125a6.46,6.46,0,0,1,4.5-1.57,6,6,0,0,1,4,2.07.79.79,0,0,1,0,1h0a.78.78,0,0,1-1.15,0C296.13,125.5,293.74,123.68,289.78,125Z"/><path d="M283.53,123.45a6.45,6.45,0,0,0-2.81-3.85,6,6,0,0,0-4.49-.59.79.79,0,0,0-.55.86h0a.79.79,0,0,0,.95.66C278.05,120.22,281.05,120.08,283.53,123.45Z"/><ellipse cx="277.97" cy="125.13" rx="3.08" ry="1.75" transform="translate(57.33 335.47) rotate(-67.86)"/><ellipse cx="292.38" cy="129.44" rx="3.08" ry="1.75" transform="translate(62.31 351.5) rotate(-67.86)"/><path d="M271.84,143.72s2.45,5.82,9.8,3.1" fill="none" stroke="#fc9189" stroke-linecap="round" stroke-linejoin="round"/><path d="M255.92,115.08a.55.55,0,0,1,.28.66c-1.42,4.13.61,5.84.7,5.91a.54.54,0,0,1-.67.85c-.11-.09-2.73-2.22-1.05-7.11a.53.53,0,0,1,.68-.33Z" fill="#fc9189"/><path d="M257.83,118.33a.55.55,0,0,1,.26.28.52.52,0,0,1-.29.7,3,3,0,0,1-3-.49.53.53,0,0,1-.1-.75.54.54,0,0,1,.76-.1,2,2,0,0,0,1.87.35A.58.58,0,0,1,257.83,118.33Z" fill="#fc9189"/><path d="M567,105.45a.53.53,0,0,1-.53-.48c-.5-4.33-3.08-5-3.19-5a.54.54,0,0,1,.24-1c.14,0,3.43.82,4,6a.55.55,0,0,1-.48.6Z" fill="#fc9189"/><path d="M563.9,103.34a.54.54,0,0,1-.36-.14.54.54,0,0,1,0-.76,3.05,3.05,0,0,1,2.88-.83.54.54,0,1,1-.24,1,2,2,0,0,0-1.84.5A.52.52,0,0,1,563.9,103.34Z" fill="#fc9189"/><ellipse cx="277.36" cy="126.24" rx="0.58" ry="0.31" transform="translate(55.91 335.59) rotate(-67.86)" fill="#fff"/><ellipse cx="291.84" cy="130.77" rx="0.58" ry="0.31" transform="translate(60.74 351.82) rotate(-67.86)" fill="#fff"/><path d="M528.91,129.28l2.5,4.72c.41.77,1.24,1.2,1.67.87l2-1.62c.48-.37.14-1.45-.63-2l-4.56-3.11C529,127.54,528.36,128.25,528.91,129.28Z" fill="#fc9189"/><path d="M525.16,113.86a6.44,6.44,0,0,1,1.89-4.38,6,6,0,0,1,4.25-1.56.79.79,0,0,1,.73.72h0a.78.78,0,0,1-.78.85C529.8,109.5,526.84,110,525.16,113.86Z"/><ellipse cx="529.05" cy="117.55" rx="1.75" ry="3.08" transform="translate(0.41 236.92) rotate(-25.25)"/><path d="M539.06,138s5.94,2.13,8.91-5.12" fill="none" stroke="#fc9189" stroke-linecap="round" stroke-linejoin="round"/><ellipse cx="529.66" cy="118.85" rx="0.31" ry="0.58" transform="translate(-0.09 237.31) rotate(-25.25)" fill="#fff"/><path d="M601.58,285.53l6.17,11.91S621.78,301,640,291a75.13,75.13,0,0,0,20.2-15.73,85.83,85.83,0,0,1-9.5-21.91s-3.28,29.14-19.83,20.36c0,0-13.92-6.95-14-19.49a9.1,9.1,0,0,0-9.91-9L582,247.38Z" opacity="0.2"/></g></g></svg>