<svg id="e9f37e8e-f7cf-47ba-b06f-29684b61cbf2" data-name="Layer 1" xmlns="http://www.w3.org/2000/svg" width="865.76" height="682.89" viewBox="0 0 865.76 682.89"><path d="M723.43,264.53a6.38,6.38,0,0,0-2,4.19,15.46,15.46,0,0,1-6.2,10.89,14.41,14.41,0,0,1-7.07,2.93l-48.86,6.33S635.58,294.63,628,276c0,0-5.64-15.35-11.31-17.94a5.1,5.1,0,0,1-3-4.58c-.07-9.61.33-32.31,5.32-45.82.1-.29.2-.57.29-.86a17.78,17.78,0,0,0,.66-7.87l-1.55-11a41.71,41.71,0,0,0-.62-7.7,29.25,29.25,0,0,1,0-9.15,7.94,7.94,0,0,0,0-2.23c-.17-1.38-.47-4-.72-7.39-.77-10.52-1.09-28.59,4.07-41.19,0,0,1.21,1.28,6.3-1.47,0,0,1.38,4.09,9,2.7a11.24,11.24,0,0,1,4-.19,19.17,19.17,0,0,0,5-.79s11-.49,35.82-15.82a16.14,16.14,0,0,0,1.87-1.45c1.5-1.26,7.48-4.93,20.49,2.46,0,0,19.62,17.7,23.94,31.59,0,0,5.66,5.5,1.33,29.66l-1.67,62.13s.45,8.93-.61,14.51a6.57,6.57,0,0,0,.94,4.73C729.47,251.36,731.33,257.37,723.43,264.53Z" fill="#f48225" data-secondary="true"/><path d="M664,67.4s6.77-4.14,8.66,2c0,0,4.19,21.8-14.63,39.37,0,0-14.53,14-28,11.59,0,0-1.57-.15-4.62-4Z" fill="#2f2e41"/><path d="M664,67.4s6.77-4.14,8.66,2c0,0,4.19,21.8-14.63,39.37,0,0-14.53,14-28,11.59,0,0-1.57-.15-4.62-4Z" opacity="0.2"/><path d="M675.33,68.73a10.45,10.45,0,0,1,5.31,4.88s1.56,2.76,7.61,4.18c0,0,6.55,1.07,9.19,11.52l2.33,6.83A21.34,21.34,0,0,0,702,100.8c.89,1.38,1.88,3.34,1.63,4.92,0,0-13.68-8.49-20.88-2.08,0,0-22.55,17.09-37.26,17.13,0,0,16.2-5.54,25.12-21.18C670.64,99.59,680.84,82.54,675.33,68.73Z" fill="#f48225" data-secondary="true"/><path d="M614.64,36.38a45.27,45.27,0,0,0-12.32,27,30.74,30.74,0,0,0,.61,9,8.65,8.65,0,0,1,.07,2.77,42.08,42.08,0,0,0-.09,9.25c.91,8.58,3.48,23.36,10.48,29.86,0,0-.8,5.69,6.31,3.26,0,0,.66-.21.78,1.4,0,0-.1,4,7-.07,0,0,7.76,2,19.69-7.15a35.51,35.51,0,0,0,5.64-7.13l9-18.59a59.82,59.82,0,0,0,3.46-21.43c0-.28,0-.57,0-.85,0-2.88-.4-23.88-18.46-31.83a30.94,30.94,0,0,0-15.33-2.36C626.22,30,619,31.55,614.64,36.38Z" fill="#2f2e41"/><path d="M665.27,64.51s8.32-2.46,10,3.83c.15.54.33,1.08.53,1.61,1,2.55,3.12,10.91-2.64,24.48,0,0-5.68,15.7-19.59,22.54a43.07,43.07,0,0,1-8.06,3.8,12.9,12.9,0,0,1-5,.55,13.54,13.54,0,0,0-4,.19,13.53,13.53,0,0,1-3.29.34c-2.07-.07-4.75-.64-5.69-3a15.09,15.09,0,0,0,6.24,1.19,16.39,16.39,0,0,0,9.23-3,78,78,0,0,1,8.32-5.29s14.21-7.46,18.78-26.28c0,0,3.41-9.71.86-15.5A3.11,3.11,0,0,0,667.87,68a5.66,5.66,0,0,0-2.65.92Z" fill="#f48225" data-secondary="true"/><path d="M665.27,64.51s8.32-2.46,10,3.83c.15.54.33,1.08.53,1.61,1,2.55,3.12,10.91-2.64,24.48,0,0-5.68,15.7-19.59,22.54a43.07,43.07,0,0,1-8.06,3.8,12.9,12.9,0,0,1-5,.55,13.54,13.54,0,0,0-4,.19,13.53,13.53,0,0,1-3.29.34c-2.07-.07-4.75-.64-5.69-3a15.09,15.09,0,0,0,6.24,1.19,16.39,16.39,0,0,0,9.23-3,78,78,0,0,1,8.32-5.29s14.21-7.46,18.78-26.28c0,0,3.41-9.71.86-15.5A3.11,3.11,0,0,0,667.87,68a5.66,5.66,0,0,0-2.65.92Z" fill="#fff" opacity="0.2"/><path d="M619.34,206.77l-35.5,8.79a8.07,8.07,0,0,1-2.41.12,6.74,6.74,0,0,0-3.72.85,2.56,2.56,0,0,1-3.29-.36,2.89,2.89,0,0,0-2.38-.87l-1.31.14a5.79,5.79,0,0,0-2.78,1.14,1.73,1.73,0,0,1-1.85.17c-1.78-.83-4.1.65-4.1.65a4.35,4.35,0,0,1-4.16.34,87.7,87.7,0,0,0-3-21.76c-.14-1.93,7-2.67,7-2.67,3.3-1.32,4.68.83,4.68.83,1.23-1.22,3.4-.72,3.4-.72,2.42-4.2,5.29-2.17,5.29-2.17a1.42,1.42,0,0,0,.95.69,1.52,1.52,0,0,0,1.52-.67c2-2.81,5.2-2.85,7.28-2.51a6.43,6.43,0,0,0,4-.61c3.79-2,10-4.68,10-4.68,2.91-2.46,3.66-.64,3.66-.64.79-1.65,3.59-1.82,3.59-1.82a1.94,1.94,0,0,1,2.26-.77c1.21-3.55,5.22-2.92,5.22-2.92a7.27,7.27,0,0,1,.25-3.26c-4.19-1,0-4.91,0-4.91l3.13-7.69h0c.25,3.4.55,6,.72,7.39a7.94,7.94,0,0,1,0,2.23,29.25,29.25,0,0,0,0,9.15,41.71,41.71,0,0,1,.62,7.7l1.55,11A17.78,17.78,0,0,1,619.34,206.77Z" fill="#f48225" data-secondary="true"/><path d="M619.34,206.77l-35.5,8.79a8.07,8.07,0,0,1-2.41.12,6.74,6.74,0,0,0-3.72.85,2.56,2.56,0,0,1-3.29-.36,2.89,2.89,0,0,0-2.38-.87l-1.31.14a5.79,5.79,0,0,0-2.78,1.14,1.73,1.73,0,0,1-1.85.17c-1.78-.83-4.1.65-4.1.65a4.35,4.35,0,0,1-4.16.34,87.7,87.7,0,0,0-3-21.76c-.14-1.93,7-2.67,7-2.67,3.3-1.32,4.68.83,4.68.83,1.23-1.22,3.4-.72,3.4-.72,2.42-4.2,5.29-2.17,5.29-2.17a1.42,1.42,0,0,0,.95.69,1.52,1.52,0,0,0,1.52-.67c2-2.81,5.2-2.85,7.28-2.51a6.43,6.43,0,0,0,4-.61c3.79-2,10-4.68,10-4.68,2.91-2.46,3.66-.64,3.66-.64.79-1.65,3.59-1.82,3.59-1.82a1.94,1.94,0,0,1,2.26-.77c1.21-3.55,5.22-2.92,5.22-2.92a7.27,7.27,0,0,1,.25-3.26c-4.19-1,0-4.91,0-4.91l3.13-7.69h0c.25,3.4.55,6,.72,7.39a7.94,7.94,0,0,1,0,2.23,29.25,29.25,0,0,0,0,9.15,41.71,41.71,0,0,1,.62,7.7l1.55,11A17.78,17.78,0,0,1,619.34,206.77Z" opacity="0.2"/><path d="M682,129.67a16,16,0,0,0-3.06,4.43,58.22,58.22,0,0,1-3.37,6.52c-1.66,2.75-3.43,6.58-3.07,10a21.63,21.63,0,0,1,.15,2.27c0,3,.6,11.41,5.8,21.69a9.78,9.78,0,0,1,.63,1.66c.49,1.83,1.56,5.89,1.86,7.89a11.25,11.25,0,0,0,.5,2.06l0,.08a19.89,19.89,0,0,1,1.1,7.13c-.09,3.27.28,7.9,2.92,9.6.51.35-3.08.78-6.32,2a10.5,10.5,0,0,1-4.52.58,3.67,3.67,0,0,0-2.69,1.1,3.28,3.28,0,0,1-2,.79h0a7.61,7.61,0,0,1-3.73-.77c-.77-.39-2-.56-3.66.54a5.18,5.18,0,0,1-3.5.84c-2-.26-5.12-.44-6.82.48a1.56,1.56,0,0,1-2.17-.79s.06-3.69-4.41-2.77a4.56,4.56,0,0,0-1.8.95,6.72,6.72,0,0,1-4.36,1.85,11,11,0,0,1-4.43-.82s7.48,13.21-.39,27.61c0,0,.73.81,2.27.16a4.19,4.19,0,0,1,5.16,1.48c.1.16.21.34.31.52,0,0,.54,2.13,3.37,1.72a2,2,0,0,1,1.81.63h0a2.13,2.13,0,0,1,.49,1c.31,1.73,2,6.85,10.86,5.48l47.25-4.66a35.9,35.9,0,0,1,6.22-.09c4.24.32,13.55-.56,15.84-13.95a12.29,12.29,0,0,0,.87-6.19,31.81,31.81,0,0,1-.54-5.84l.34-47.86s4.61-21.46-1.33-29.66c0,0-8.2-11.66-21.81-14.85A24.92,24.92,0,0,0,682,129.67Z" fill="#f48225" data-secondary="true"/><path d="M682,129.67a16,16,0,0,0-3.06,4.43,58.22,58.22,0,0,1-3.37,6.52c-1.66,2.75-3.43,6.58-3.07,10a21.63,21.63,0,0,1,.15,2.27c0,3,.6,11.41,5.8,21.69a9.78,9.78,0,0,1,.63,1.66c.49,1.83,1.56,5.89,1.86,7.89a11.25,11.25,0,0,0,.5,2.06l0,.08a19.89,19.89,0,0,1,1.1,7.13c-.09,3.27.28,7.9,2.92,9.6.51.35-3.08.78-6.32,2a10.5,10.5,0,0,1-4.52.58,3.67,3.67,0,0,0-2.69,1.1,3.28,3.28,0,0,1-2,.79h0a7.61,7.61,0,0,1-3.73-.77c-.77-.39-2-.56-3.66.54a5.18,5.18,0,0,1-3.5.84c-2-.26-5.12-.44-6.82.48a1.56,1.56,0,0,1-2.17-.79s.06-3.69-4.41-2.77a4.56,4.56,0,0,0-1.8.95,6.72,6.72,0,0,1-4.36,1.85,11,11,0,0,1-4.43-.82s7.48,13.21-.39,27.61c0,0,.73.81,2.27.16a4.19,4.19,0,0,1,5.16,1.48c.1.16.21.34.31.52,0,0,.54,2.13,3.37,1.72a2,2,0,0,1,1.81.63h0a2.13,2.13,0,0,1,.49,1c.31,1.73,2,6.85,10.86,5.48l47.25-4.66a35.9,35.9,0,0,1,6.22-.09c4.24.32,13.55-.56,15.84-13.95a12.29,12.29,0,0,0,.87-6.19,31.81,31.81,0,0,1-.54-5.84l.34-47.86s4.61-21.46-1.33-29.66c0,0-8.2-11.66-21.81-14.85A24.92,24.92,0,0,0,682,129.67Z" opacity="0.2"/><path d="M599.72,201.29a22.41,22.41,0,0,1-10.17,4.87l-4.94,1.8a4.93,4.93,0,0,0-2.83,2.62c-.65,1.44-1.22,3.42-.53,5.12a4.51,4.51,0,0,0,3.55,3.06s-2.45,6.87,3.35,7.48c0,0-1,3.44.84,5.31,0,0,1.79,2.78,3.78,2.07,0,0,1.51,6.82,6.34,6.3,0,0,2.23.67,5.53-1,0,0,9.19.89,14.73-4.18,0,0,1.55-1.41,4.43.2a25.82,25.82,0,0,0,10.88-.42,29.56,29.56,0,0,0,.39-27.61s-2.74-4-4.87-1.33c0,0-8.25.45-11.08-1.13,0,0-11.38-3.17-13.7-4.59,0,0-5-3.27-9.18-1.63l-7,1.21s-3.71-.11-5.36,2.43a8.38,8.38,0,0,1-1.26,1.47c-1.46,1.39-4.3,3.77-6.77,4.05-.07.24-2.25.23-1.59,2.14a3,3,0,0,0,1.72,1.75c1.56.62,4.81,1.41,9.79.09l.27-.07" fill="#2f2e41"/><path d="M599.72,201.29a22.41,22.41,0,0,1-10.17,4.87l-4.94,1.8a4.93,4.93,0,0,0-2.83,2.62c-.65,1.44-1.22,3.42-.53,5.12a4.51,4.51,0,0,0,3.55,3.06s-2.45,6.87,3.35,7.48c0,0-1,3.44.84,5.31,0,0,1.79,2.78,3.78,2.07,0,0,1.51,6.82,6.34,6.3,0,0,2.23.67,5.53-1,0,0,9.19.89,14.73-4.18,0,0,1.55-1.41,4.43.2a25.82,25.82,0,0,0,10.88-.42,29.56,29.56,0,0,0,.39-27.61s-2.74-4-4.87-1.33c0,0-8.25.45-11.08-1.13,0,0-11.38-3.17-13.7-4.59,0,0-5-3.27-9.18-1.63l-7,1.21s-3.71-.11-5.36,2.43a8.38,8.38,0,0,1-1.26,1.47c-1.46,1.39-4.3,3.77-6.77,4.05-.07.24-2.25.23-1.59,2.14a3,3,0,0,0,1.72,1.75c1.56.62,4.81,1.41,9.79.09l.27-.07" opacity="0.2"/><path d="M533.2,198.26s-10.78-7.94-6.55-14.2c0,0,1.85-1,5.09,2.39a13.48,13.48,0,0,0,6.28,3.66c5,1.34,13.18,3.72,16.79,5.87a82.75,82.75,0,0,1,3,21.76s-10.77,5.68-17.15,7.92a27.52,27.52,0,0,0-7,3.69c-4.68,3.39-12.69,8.24-16.38,5,0,0-.75-1.4,2.34-2.71,0,0,8.76-6.43,10.19-8.47,0,0-.17-1-3.57.93,0,0-17.72,9.27-18.86,4.45,0,0-2.5-3.81,7.63-7,0,0,4.46-1.13,6.37-2.79,0,0-1.86.1-6.86,2.39,0,0-10.9,6.08-12.29,1.71,0,0-2.54-3.06,3.33-5.29l17.63-7.16a53.7,53.7,0,0,0-11.72,2.77s-8.34,4-9.71.11c0,0-2-4.12,12.49-8.95L519,203a20.47,20.47,0,0,1,2.3-.49C523.78,202.14,530.15,200.9,533.2,198.26Z" fill="#2f2e41"/><path d="M533.2,198.26s-10.78-7.94-6.55-14.2c0,0,1.85-1,5.09,2.39a13.48,13.48,0,0,0,6.28,3.66c5,1.34,13.18,3.72,16.79,5.87a82.75,82.75,0,0,1,3,21.76s-10.77,5.68-17.15,7.92a27.52,27.52,0,0,0-7,3.69c-4.68,3.39-12.69,8.24-16.38,5,0,0-.75-1.4,2.34-2.71,0,0,8.76-6.43,10.19-8.47,0,0-.17-1-3.57.93,0,0-17.72,9.27-18.86,4.45,0,0-2.5-3.81,7.63-7,0,0,4.46-1.13,6.37-2.79,0,0-1.86.1-6.86,2.39,0,0-10.9,6.08-12.29,1.71,0,0-2.54-3.06,3.33-5.29l17.63-7.16a53.7,53.7,0,0,0-11.72,2.77s-8.34,4-9.71.11c0,0-2-4.12,12.49-8.95L519,203a20.47,20.47,0,0,1,2.3-.49C523.78,202.14,530.15,200.9,533.2,198.26Z" opacity="0.2"/><path d="M551.25,111.39c-5.94,8-1.12,16.68.58,19.28.46.7.9,1.41,1.31,2.14l40.57,72c-1.14,1-4.16,1.35-4.16,1.35l-2.15.74L546.58,133c-10.05-13.69-.36-25.86-.36-25.86,10.35-13.6-.59-22-.59-22-5.42-5.11-21.5.51-21.5.51l-14.44,4a3.85,3.85,0,0,1-3.1-.47l-.09-.05a.35.35,0,0,1,.07-.63l1-.35a1.54,1.54,0,0,1,1.16-1.47L521.27,82l10-4.26s11.83-3.94,19.69,4.1c0,0,8.94,9.7,4.43,21.89A36.18,36.18,0,0,1,551.25,111.39Z" fill="#2f2e41"/><path d="M605.22,239l19.88,36.08s4.16,10.57,13.67,9.85a13.25,13.25,0,0,0,3.11-.65L663.45,277s-1.64-2.32-6-.75a30.4,30.4,0,0,1-4,1.12l-10.94,2.34a10.79,10.79,0,0,1-6.88-.73,9.4,9.4,0,0,1-4.62-4.56l-19.4-36.06A19.85,19.85,0,0,1,605.22,239Z" fill="#2f2e41"/><path d="M616,75.43c3.79-1.53,16.9-6.39,21.15-2.1a2,2,0,0,1,.57,1.63,6.51,6.51,0,0,1-3.9,5.34,8.49,8.49,0,0,1-3.76.68c-3.09-.1-11.32-.71-14.39-4.11A.9.9,0,0,1,616,75.43Z" fill="#fff"/><path d="M612.56,75.57c-1.83,1.85-7.9,7.53-7.91.94a9.68,9.68,0,0,1,.14-1.32,5.64,5.64,0,0,0-.66-3.35,2.21,2.21,0,0,1-.09-1.73c.3-.73,1-1.36,2.62-.29,0,0,4.26,2.22,6,4.53A.94.94,0,0,1,612.56,75.57Z" fill="#fff"/><path d="M612,91.93s-3,.89-2.64,6.35a8.52,8.52,0,0,0,1.41,4.29,4.24,4.24,0,0,0,4,2.2,4.8,4.8,0,0,0,1.89-.73,5.78,5.78,0,0,0,1.41-8.31A8.68,8.68,0,0,0,612,91.93Z" fill="#fff"/><path d="M866.43,497.77c-47.5,24.63-138.68,49.31-182.08,78-78.23,51.78,142.89,98.27,182,106" fill="#d1d3d4"/><path d="M866.4,236.75c-126.87-1.72-272.94,20-346.7,35.79C452,287.05,385.38,304.37,337.54,310.9c-88.46,13.94-71.62,25.64-3.37,38.42,98.72,18.48,305,39.22,455.92,72.27,34.22,7.5,59.42,14.93,76.31,22" fill="#d1d3d4"/><path d="M-1.6,511.64c360.27-26.11,354.14-50.56,354.14-50.56,21.88-30-297.17-85.13-246.12-116.73,33.49-20.74,231.12-33.45,231.12-33.45,47.84-6.53,114.81-22,182.16-38.36C413.62,263.85,205,254.73-1.51,251.34" fill="#bcbec0"/><path d="M866.34,681.78c-39.07-7.7-260.22-54.19-182-106,43.4-28.73,135.44-53.58,182.55-78.37l-.5-53.87c-16.89-7.05-42.09-14.48-76.31-22C534.85,365.68,121.13,345,337.54,310.9c0,0-197.63,12.71-231.12,33.45-51.05,31.6,268,86.74,246.12,116.73,0,0,6.13,24.45-354.14,50.56v171.2l867.93,0Z" fill="#58595b"/><path d="M317.3,682.89a267.11,267.11,0,0,1-34.76-12.68,90.07,90.07,0,0,1-15.91-9.14,35.14,35.14,0,0,1-6.57-6.26,15.62,15.62,0,0,1-3.52-8.14,14,14,0,0,1,2.21-8.55,29.86,29.86,0,0,1,6-6.82,81,81,0,0,1,15.37-10,300.41,300.41,0,0,1,34-14.58C337.3,598.21,361,591,384.8,584.1s47.74-13.33,71.72-19.63c47.94-12.63,96.14-24.38,144.13-36.75,24-6.19,48-12.48,71.71-19.37,11.86-3.47,23.68-7.07,35.27-11.14,5.79-2,11.54-4.21,17.06-6.71a71.59,71.59,0,0,0,7.94-4.12,25.07,25.07,0,0,0,3.42-2.49,5.31,5.31,0,0,0,1.86-2.69,1.43,1.43,0,0,0-.28-1,4.38,4.38,0,0,0-1.18-1.1,16.91,16.91,0,0,0-3.73-1.74,62.47,62.47,0,0,0-8.75-2.14c-6-1.07-12.21-1.64-18.39-2.44q-18.54-2.28-37-4.86-37-5.16-73.78-11.34c-49-8.25-97.91-17.57-146.36-28.47q-36.35-8.18-72.35-17.54c-24-6.32-47.84-13.08-71.35-20.82C293,385.79,281.33,381.64,269.9,377s-22.72-9.7-33-16.38a56.87,56.87,0,0,1-7.23-5.56,19.71,19.71,0,0,1-5.31-7.22,8.13,8.13,0,0,1-.38-4.42,8.92,8.92,0,0,1,2.07-4,23.06,23.06,0,0,1,7.5-5.22,86.9,86.9,0,0,1,17.69-5.6c6.06-1.35,12.2-2.36,18.36-3.21-6.15.92-12.27,2-18.31,3.4a86.66,86.66,0,0,0-17.54,5.77,22.3,22.3,0,0,0-7.27,5.18,8.27,8.27,0,0,0-1.91,3.76,7.55,7.55,0,0,0,.41,4.12,19.17,19.17,0,0,0,5.22,6.92,57.36,57.36,0,0,0,7.2,5.41c10.25,6.5,21.6,11.37,33,15.92s23.11,8.53,34.87,12.31c23.51,7.58,47.37,14.19,71.37,20.35s48.15,11.78,72.38,17.08q72.73,15.79,146.29,28,36.76,6.08,73.71,11.17,18.48,2.54,37,4.78c6.15.79,12.35,1.33,18.6,2.44a62.11,62.11,0,0,1,9.3,2.28,19.64,19.64,0,0,1,4.57,2.18,7.69,7.69,0,0,1,2.06,2,4.49,4.49,0,0,1,.77,3.1,8,8,0,0,1-2.88,4.59,27.7,27.7,0,0,1-3.91,2.86,76.07,76.07,0,0,1-8.36,4.32c-5.68,2.56-11.5,4.73-17.35,6.79-11.72,4.09-23.58,7.68-35.49,11.13-23.83,6.87-47.83,13.12-71.85,19.27L457.23,566.85c-24,6.16-48,12.48-71.78,19.2s-47.52,13.83-70.72,22.17a304.44,304.44,0,0,0-34,14.17,80.66,80.66,0,0,0-15.27,9.69,28.84,28.84,0,0,0-5.85,6.51,13,13,0,0,0-2.19,8,14.82,14.82,0,0,0,3.25,7.78,34.26,34.26,0,0,0,6.36,6.19,88.91,88.91,0,0,0,15.67,9.27A266.31,266.31,0,0,0,317.3,682.89Z" fill="#ccc"/><path d="M673.5,303a2.46,2.46,0,0,1-2.87,0,3.07,3.07,0,0,1-3.16.59c-1.65-.79-.39-2.28-.39-2.28s-1.73.1-1.46-1.29c.33-1.71,2.89-1,2.89-1a1.66,1.66,0,0,1,1.8-2.07c2.24,0,1.81,1.61,1.81,1.61s2.53-1,3.07.53-1.41,1.7-1.41,1.7A1.44,1.44,0,0,1,673.5,303Z" fill="#bcbec0"/><path d="M649,295.74a2,2,0,0,1-2.29-.21,2.47,2.47,0,0,1-2.56.3c-1.26-.73-.15-1.85-.15-1.85s-1.39,0-1.09-1.1c.37-1.35,2.38-.65,2.38-.65a1.35,1.35,0,0,1,1.57-1.56c1.78.14,1.33,1.39,1.33,1.39s2.08-.68,2.41.61-1.23,1.26-1.23,1.26A1.17,1.17,0,0,1,649,295.74Z" fill="#bcbec0"/><path d="M681.25,288.54a1.94,1.94,0,0,1-2.12-.89,2.52,2.52,0,0,1-2.56-.49c-.94-1.07.48-1.81.48-1.81s-1.32-.43-.66-1.38c.81-1.17,2.49.09,2.49.09a1.4,1.4,0,0,1,2-1c1.66.66.81,1.73.81,1.73s2.22,0,2.11,1.31-1.62.82-1.62.82A1.2,1.2,0,0,1,681.25,288.54Z" fill="#bcbec0"/><path d="M635.63,303.14a2.19,2.19,0,0,1-2.53.4,2.7,2.7,0,0,1-2.68,1c-1.56-.44-.72-1.95-.72-1.95s-1.5.35-1.5-.91c0-1.56,2.36-1.35,2.36-1.35a1.46,1.46,0,0,1,1.23-2.1c2-.34,1.85,1.15,1.85,1.15s2.05-1.31,2.79,0-.95,1.7-.95,1.7A1.31,1.31,0,0,1,635.63,303.14Z" fill="#bcbec0"/><path d="M609.25,306.79a1.83,1.83,0,0,1-2.12-.24,2.25,2.25,0,0,1-2.36.21c-1.15-.7-.1-1.7-.1-1.7s-1.28-.06-1-1.06c.37-1.23,2.19-.54,2.19-.54a1.25,1.25,0,0,1,1.5-1.39c1.65.16,1.2,1.31,1.2,1.31s1.93-.57,2.21.62-1.18,1.14-1.18,1.14A1.08,1.08,0,0,1,609.25,306.79Z" fill="#bcbec0"/><path d="M696.33,292.16a1.78,1.78,0,0,1-2-.73,2.3,2.3,0,0,1-2.36-.36c-.92-.94.37-1.66.37-1.66s-1.24-.36-.67-1.25c.69-1.1,2.29,0,2.29,0a1.27,1.27,0,0,1,1.81-1c1.56.55.81,1.55.81,1.55s2-.1,2,1.12-1.43.82-1.43.82A1.09,1.09,0,0,1,696.33,292.16Z" fill="#bcbec0"/><path d="M711.65,345.61a1.83,1.83,0,0,1-2.09-.46,2.29,2.29,0,0,1-2.39,0c-1-.81.11-1.7.11-1.7s-1.28-.19-.84-1.15c.52-1.2,2.28-.32,2.28-.32a1.25,1.25,0,0,1,1.65-1.22c1.62.33,1,1.43,1,1.43s2-.37,2.14.85-1.31,1-1.31,1A1.08,1.08,0,0,1,711.65,345.61Z" fill="#bcbec0"/><path d="M714.81,320.11a1.47,1.47,0,0,1-1.68-.38,1.83,1.83,0,0,1-1.93,0c-.85-.66.08-1.37.08-1.37s-1-.16-.68-.93c.42-1,1.84-.27,1.84-.27a1,1,0,0,1,1.34-1c1.3.28.83,1.16.83,1.16s1.62-.3,1.73.69-1.06.82-1.06.82A.87.87,0,0,1,714.81,320.11Z" fill="#bcbec0"/><path d="M341.91,605.81c0,20.71-4,45.92-9.54,57.46-6.18,13-11.84,3.91-11.84-21.77s5.66-53.54,11.84-61.28C337.88,573.34,341.91,585.09,341.91,605.81Z" fill="#2f2e41"/><path d="M373.2,605.81c0,20.71-3.53,45.92-8.35,57.46-5.42,13-10.37,3.91-10.37-21.77s4.95-53.54,10.37-61.28C369.67,573.34,373.2,585.09,373.2,605.81Z" fill="#2f2e41"/><rect x="327.04" y="602.52" width="33" height="66.6" fill="#2f2e41"/><path d="M589.46,605.81c0,20.71,4,45.92,9.55,57.46,6.18,13,11.82,3.91,11.82-21.77S605.19,588,599,580.22C593.48,573.34,589.46,585.09,589.46,605.81Z" fill="#2f2e41"/><path d="M558.16,605.81c0,20.71,3.53,45.92,8.35,57.46,5.44,13,10.37,3.91,10.37-21.77S572,588,566.51,580.22C561.69,573.34,558.16,585.09,558.16,605.81Z" fill="#2f2e41"/><rect x="571.35" y="602.52" width="32.99" height="66.6" transform="translate(1175.68 1271.65) rotate(180)" fill="#2f2e41"/><path d="M364.06,482.63H337c-9.68,0-27.42-21.76,0-21.76h27Z" fill="#686175" data-primary="true"/><path d="M364.06,482.63H337c-9.68,0-27.42-21.76,0-21.76h27Z" opacity="0.4"/><path d="M351.7,478.6H336.14c-5.57,0-15.77-12.52,0-12.52h19.35Z" fill="#e6e7e8"/><path d="M352.81,474.94l2.68-8.86H336.14c-5.38,0-7.7,1.46-8.24,3.39Z" fill="#fff" opacity="0.2"/><path d="M567,482.63h27c9.68,0,27.44-21.76,0-21.76H567Z" fill="#686175" data-primary="true"/><path d="M567,482.63h27c9.68,0,27.44-21.76,0-21.76H567Z" opacity="0.4"/><path d="M579.38,478.6h15.55c5.56,0,15.78-12.52,0-12.52H575.56Z" fill="#e6e7e8"/><path d="M594.93,466.08H575.56l.82,2.66,25.39,5.57C604.49,470.68,604.52,466.08,594.93,466.08Z" fill="#fff" opacity="0.2"/><path d="M564.56,439.48c-10.57-12.9-19-21.85-27.43-24-14.49-3.7-33.92-5.9-71.55-5.9s-57.05,2.2-71.53,5.9c-8.47,2.17-16.88,11.12-27.47,24Z" fill="#686175" data-primary="true"/><path d="M564.56,439.48c-10.57-12.9-19-21.85-27.43-24-14.49-3.7-33.92-5.9-71.55-5.9s-57.05,2.2-71.53,5.9c-8.47,2.17-16.88,11.12-27.47,24Z" fill="#fff" opacity="0.2"/><path d="M611,542.58c0-12.38-3.74-35.85-8.78-38s-6-.48-18.11-23.25-15.59-47.52-31.69-51.55-39.55-6.51-86.69-6.51-70.6,2.48-86.7,6.51-19.67,28.78-31.72,51.55-13,21.06-18.1,23.25-8.74,25.65-8.74,38-11,21.79-11,31.27.57,31.79,8.77,47.92,18.65,12.81,147.47,12.81,139.22,3.31,147.46-12.81,8.75-38.43,8.75-47.92S611,555,611,542.58Z" fill="#686175" data-primary="true"/><path d="M588.76,489.86c0,12.4-246.14,12.4-246.14,0-7.12,12.59-8.88,12.88-12.44,14.28,95,19.66,185.51,20.18,271,0C597.62,502.74,595.88,502.45,588.76,489.86Z" fill="#fff" opacity="0.2"/><path d="M551.9,535.07c-.16,1.32-.27,2.65-.39,3.95-2.38,25.15-4,41.75-86,41.75s-83.63-16.6-86-41.75c-.13-1.3-.27-2.63-.39-3.95l-3.09.51c.13,1.33.25,2.64.37,3.91,2.48,26.29,4.29,45.28,89.1,45.28s86.57-19,89.06-45.28c.14-1.27.24-2.58.39-3.91Z" opacity="0.2"/><path d="M329.28,527.38c-3.37-2.89-2.73-4.42-2.73-9.8S325.61,506,332.47,506s17.24,1.66,24.74,3.32,13.88,9.25,17.71,16,4.63,10.09,4.47,12,0,5.66-3.19,4.29S339.79,536.51,329.28,527.38Z" fill="#2f2e41"/><path d="M601.18,527.38c3.36-2.89,2.72-4.42,2.72-9.8S604.85,506,598,506s-17.24,1.66-24.74,3.32-13.88,9.25-17.7,16-4.65,10.09-4.48,12,0,5.66,3.19,4.29S590.65,536.51,601.18,527.38Z" fill="#2f2e41"/><rect x="405.18" y="592.08" width="120.99" height="31.77" rx="0.56" fill="#686175" data-primary="true"/><path d="M598.05,635.37c-3.93-10.86-10.25-23.49-26.07-26.25s-106.29-2.78-106.29-2.78-90.5,0-106.29,2.78-22.16,15.39-26.09,26.25,8.07,8.48,132.38,8.48S602,646.23,598.05,635.37Z" fill="#686175" data-primary="true"/><g opacity="0.2"><rect x="405.18" y="592.08" width="120.99" height="31.77" rx="0.56"/><path d="M598.05,635.37c-3.93-10.86-10.25-23.49-26.07-26.25s-106.29-2.78-106.29-2.78-90.5,0-106.29,2.78-22.16,15.39-26.09,26.25,8.07,8.48,132.38,8.48S602,646.23,598.05,635.37Z"/></g><path d="M562,445.23c-6.4-10.48-5.73-14.24-96.35-14.24s-88.56,4.47-96.36,14.24c-8.28,10.36-20.83,45.92-18,48.34,5.3,4.6,22.71,8.18,42.41,10.88a533.69,533.69,0,0,0,143.94,0c19.7-2.7,37.11-6.28,42.43-10.88C582.86,491.15,569,456.54,562,445.23Z" fill="#686175" data-primary="true"/><path d="M562,445.23c-6.4-10.48-5.73-14.24-96.35-14.24s-88.56,4.47-96.36,14.24c-8.28,10.36-20.83,45.92-18,48.34,5.3,4.6,22.71,8.18,42.41,10.88a533.69,533.69,0,0,0,143.94,0c19.7-2.7,37.11-6.28,42.43-10.88C582.86,491.15,569,456.54,562,445.23Z" opacity="0.4"/><path d="M557.9,447.17c-6.13-9.62-5.48-13.08-92.21-13.08s-84.76,4.1-92.23,13.08c-7.9,9.5-19.92,42.14-17.25,44.38,5.1,4.22,21.77,7.52,40.59,10,14.15,1.84,28.39,3,42.65,3.76v-4.46a4.06,4.06,0,0,1,4.07-4.06h44.32a4.06,4.06,0,0,1,4.08,4.06v4.46c14.25-.71,28.49-1.92,42.63-3.76,18.84-2.47,35.52-5.77,40.59-10C577.83,489.31,564.49,457.57,557.9,447.17Z" fill="#e6e7e8"/><path d="M557.9,447.17c-6.13-9.62-5.48-13.08-92.21-13.08s-84.76,4.1-92.23,13.08l201.68,44.38C577.83,489.31,564.49,457.57,557.9,447.17Z" fill="#fff" opacity="0.2"/><path d="M486.51,506H444.83a2.38,2.38,0,0,1-2.38-2.39v-2a2.37,2.37,0,0,1,2.38-2.37l41.68,0a2.39,2.39,0,0,1,2.37,2.39v2A2.38,2.38,0,0,1,486.51,506Z" fill="#686175" data-primary="true"/><path d="M385.35,617.34H373.41c-18.38,0-20.83,10.56-23.35,17-1.53,3.91,0,4.52,4.08,4.52H381.4c8.78,0,9.36-4.68,9.36-11.11S391.19,617.34,385.35,617.34Z" fill="#686175" data-primary="true"/><path d="M546,617.34h11.91c18.41,0,20.87,10.56,23.38,17,1.51,3.91,0,4.52-4.1,4.52H550c-8.8,0-9.36-4.68-9.36-11.11S540.19,617.34,546,617.34Z" fill="#686175" data-primary="true"/><rect x="413.33" y="597.52" width="104.71" height="23.63" transform="translate(931.36 1218.67) rotate(180)" fill="#fff"/><rect x="442.45" y="565.19" width="46.44" height="6.83" rx="0.16" opacity="0.4"/><path d="M338.71,623.69s3.57-6.69,8.58-9.57c0,0-27.91-5.93-27.91-3S338.71,623.69,338.71,623.69Z" fill="#2f2e41"/><path d="M592.49,623.69s-3.58-6.69-8.58-9.57c0,0,27.9-5.93,27.9-3S592.49,623.69,592.49,623.69Z" fill="#2f2e41"/><g opacity="0.2"><path d="M368.82,524.62a11.54,11.54,0,1,1-11.55-11.54A11.54,11.54,0,0,1,368.82,524.62Z" fill="#fff"/><path d="M344.93,517a7.69,7.69,0,1,1-7.69-7.67A7.68,7.68,0,0,1,344.93,517Z" fill="#fff"/><path d="M561.66,524.62a11.55,11.55,0,1,0,11.54-11.54A11.54,11.54,0,0,0,561.66,524.62Z" fill="#fff"/><path d="M585.56,517a7.68,7.68,0,1,0,7.67-7.67A7.66,7.66,0,0,0,585.56,517Z" fill="#fff"/></g><rect x="60.47" y="328.02" width="113.76" height="53.36" fill="#fff"/><polygon points="60.46 508.82 51.52 509.47 51.48 316.72 60.45 316.72 60.46 508.82" fill="#2f2e41"/><path d="M76.18,345.1v20H73.75v-20Zm-1.09,0H84v2.28H75.09Zm0,8h8.65v2.28H75.09Z" fill="#686175" data-primary="true"/><path d="M90.45,345.1v20H88v-20Zm-1.09,0h4.09a7.92,7.92,0,0,1,3.47.73,5.93,5.93,0,0,1,2.42,2.06,6.12,6.12,0,0,1,0,6.39,6,6,0,0,1-2.42,2.08,8.07,8.07,0,0,1-3.47.73H89.36V355h4.09a5.44,5.44,0,0,0,2.27-.46,3.59,3.59,0,0,0,1.54-1.31,4.23,4.23,0,0,0,0-4.17,3.59,3.59,0,0,0-1.54-1.31,5.29,5.29,0,0,0-2.27-.46H89.36Zm4.94,10.13,7.14,9.85h-3l-6.85-9.85Z" fill="#686175" data-primary="true"/><path d="M107.78,357.54l-.23.52-3,7h-2.71l9.28-21,9.27,21h-2.71l-2.91-6.85-.23-.57-3.42-8.05Zm-1-.74h8.85l.85,2.29H105.92Z" fill="#686175" data-primary="true"/><path d="M125.13,345.1v13.41a4.8,4.8,0,0,0,1.12,3.32,4.86,4.86,0,0,0,6.51,0,4.84,4.84,0,0,0,1.11-3.32V345.1h2.43v13.41a7.58,7.58,0,0,1-.48,2.74,6,6,0,0,1-1.37,2.17,6.28,6.28,0,0,1-2.15,1.43,7.8,7.8,0,0,1-5.6,0,6.38,6.38,0,0,1-2.15-1.43,6,6,0,0,1-1.37-2.17,7.58,7.58,0,0,1-.47-2.74V345.1Z" fill="#686175" data-primary="true"/><path d="M143.15,345.1v20h-2.43v-20Zm-1.09,20v-2.43h4.65a8.75,8.75,0,0,0,3.09-.52,6.92,6.92,0,0,0,2.4-1.52,6.7,6.7,0,0,0,1.54-2.38,9.4,9.4,0,0,0,0-6.28,6.55,6.55,0,0,0-3.94-3.9,8.75,8.75,0,0,0-3.09-.53h-4.65V345.1h4.65a10.49,10.49,0,0,1,5.17,1.25,9.23,9.23,0,0,1,3.54,3.5,11.29,11.29,0,0,1,0,10.48,9.13,9.13,0,0,1-3.54,3.49,10.39,10.39,0,0,1-5.17,1.26Z" fill="#686175" data-primary="true"/></svg>