<svg id="b1fb568d-ecff-454d-8709-f05b370ecddb" data-name="Layer 1" xmlns="http://www.w3.org/2000/svg" xmlns:xlink="http://www.w3.org/1999/xlink" width="865.76" height="682.89" viewBox="0 0 865.76 682.89"><defs><clipPath id="a384e7d3-362c-47ad-af46-7c03e763df97"><path id="bcb53e5e-5e03-4349-9f5e-c92d2b35e30f" data-name="SVGID" d="M360.76,544.48c-39.59,2.75-105.36,1.83-105.36,1.83-34-2.48-40.34-13.68-35-26.42,8.25-19.62,44.5-42.9,51.11-43.45,10.9-.88,22.37,3.45,22.37,3.45l7.08-1.49c-2.18-5.88,20.23-19,30.47-13.32s31.39-2.1,37.77,1.88a15,15,0,0,1,4.28,4.17,25.53,25.53,0,0,1,3.74,8.9h.08a22.71,22.71,0,0,1,4.91-.76c3.51-.19,8.19.35,11.85,3.54a33.26,33.26,0,0,1,2.67,2.64c6.61,7.22,15.11,20.86,17.07,28.81C416.05,523.31,400.33,541.73,360.76,544.48Z" fill="none"/></clipPath><clipPath id="a6c55cb7-7d16-4b11-8f4a-105186cc14bd"><path id="a03386a4-8ebe-4691-bb6e-fb621914fc0c" data-name="SVGID" d="M15.15,483.63s-.62,28.09,45.9,48.81,173,30.78,196-42.2l-71.64-20.58H89.29l-21.15,9.61Z" fill="none"/></clipPath><clipPath id="a92b7d77-09a6-4f01-9261-b3798c144440"><path id="e99d9f60-0d40-4cba-817e-40fb03d69f7a" data-name="SVGID" d="M197.08,490v4.67a3.08,3.08,0,0,1-.09.75,3.18,3.18,0,0,1-3,2.38h-111a3.19,3.19,0,0,1-3.08-2.4,3.14,3.14,0,0,1-.09-.75V490Z" fill="none"/></clipPath></defs><ellipse cx="109.2" cy="303.33" rx="4.45" ry="7.77" transform="translate(-99.37 57.5) rotate(-20.51)" fill="#f9b499"/><ellipse cx="162.2" cy="303.33" rx="7.77" ry="4.45" transform="translate(-178.73 348.95) rotate(-69.49)" fill="#f9b499"/><g id="f778c123-2c07-45dc-ba96-ab568044a43d" data-name="freepik--background-complete--inject-194"><rect x="657.72" y="312.21" width="99.44" height="67.03" transform="translate(-59.23 166.26) rotate(-12.87)" fill="#f5f5f5"/><path d="M749,302.66a6.53,6.53,0,0,1-.7,1.09l-2.19,3L738,317.63l-27,35.76-.22.29-.33-.16-.8-.38L668.79,333.3l-12.34-6.1-3.27-1.7a7.23,7.23,0,0,1-1.15-.65,6.76,6.76,0,0,1,1.22.49l3.41,1.55,12.47,5.8,41,19.62.8.39-.55.13c10.62-13.89,20.2-26.43,27.25-35.59,3.46-4.47,6.28-8.1,8.31-10.71l2.29-2.88A7.23,7.23,0,0,1,749,302.66Z" fill="#e0e0e0"/><path d="M667,390.16c-.22-.12,5-10.74,11.71-23.72S691,343,691.17,343.12s-5,10.74-11.71,23.73S667.15,390.27,667,390.16Z" fill="#e0e0e0"/><path d="M723.2,334.94c.16-.19,9.39,7.06,20.63,16.18s20.21,16.69,20,16.89-9.39-7.05-20.63-16.19S723,335.14,723.2,334.94Z" fill="#e0e0e0"/><rect x="320.96" y="120.84" width="39.52" height="58.63" transform="translate(117.77 448.37) rotate(-77)" fill="#f5f5f5"/><path d="M373.83,138a5.45,5.45,0,0,1-.66.39l-1.9,1-7.09,3.69-23.52,12-.19.1-.14-.17-.33-.41-16.56-21-5-6.42-1.33-1.75a3.47,3.47,0,0,1-.44-.64,4.53,4.53,0,0,1,.51.57l1.42,1.7,5.1,6.3,16.69,21,.33.4-.33-.07L364,142.79l7.16-3.54,2-.94A3.56,3.56,0,0,1,373.83,138Z" fill="#e0e0e0"/><path d="M307.8,163.33c-.08-.12,5.46-4.36,12.32-9.57s12.55-9.27,12.64-9.15-5.45,4.36-12.32,9.57S307.89,163.45,307.8,163.33Z" fill="#e0e0e0"/><path d="M351.87,148.51c.13-.06,3.17,6.16,6.78,13.89s6.42,14.06,6.29,14.18-3.16-6.16-6.77-13.89S351.73,148.57,351.87,148.51Z" fill="#e0e0e0"/><rect x="641.21" y="141.69" width="45.43" height="30.62" transform="translate(-8.06 274.83) rotate(-23.25)" fill="#f5f5f5"/><path d="M679,134.26a4.38,4.38,0,0,1-.23.54l-.72,1.51c-.67,1.36-1.6,3.28-2.74,5.56l-9.19,18.3-.08.15h-.16l-.39-.1-20-5.56-6.06-1.86-1.63-.49-.57-.2a2.94,2.94,0,0,1,.59.12l1.66.42,6.08,1.6,20,5.45.39.11-.23.11c3.62-7.12,6.9-13.55,9.29-18.24,1.19-2.29,2.18-4.17,2.86-5.45l.78-1.49A3,3,0,0,1,679,134.26Z" fill="#e0e0e0"/><path d="M649.37,180.28c-.11,0,1.38-5.24,3.27-11.63s3.64-11.49,3.75-11.49-1.37,5.23-3.27,11.62S649.5,180.32,649.37,180.28Z" fill="#e0e0e0"/><path d="M670.11,150.84c0-.11,4.81,2.38,10.61,5.57s10.45,5.83,10.4,5.93-4.8-2.39-10.6-5.57S670.05,150.93,670.11,150.84Z" fill="#e0e0e0"/></g><rect x="261.26" y="231.62" width="419.21" height="277.22" rx="15.88" fill="#bcbec0"/><path d="M244.88,490.94H699.07v4.86a19.41,19.41,0,0,1-19.41,19.4H264.28a19.4,19.4,0,0,1-19.4-19.4v-4.86Z" fill="#bcbec0"/><rect x="272.51" y="242.63" width="395.53" height="234.1" fill="#ccc"/><polygon points="429.55 490.94 435.18 499.92 514.49 499.92 519.72 490.94 429.55 490.94" fill="#ccc"/><rect x="280.67" y="250.56" width="380.05" height="225.44" rx="3.57" fill="#fff"/><path d="M311.84,259.27a3,3,0,1,1-3-3h0a3,3,0,0,1,3,3Z" fill="#ccc"/><path d="M293.43,259.27a3,3,0,1,1-3.05-3h0a3,3,0,0,1,3,3Z" fill="#ccc"/><path d="M302.27,259.27a3,3,0,1,1-3.06-3h0a3,3,0,0,1,3,3Z" fill="#ccc"/><polygon points="402.36 349.02 556.99 347.58 561.51 452.69 401.4 451.54 402.36 349.02" fill="#f48225" data-secondary="true"/><path d="M402.36,349l73-59.36a8.4,8.4,0,0,1,10.62,0l71,57.91" fill="#f48225" data-secondary="true"/><path d="M401.4,451.52c-.19-.18,12.16-13.72,27.58-30.24s28.1-29.72,28.29-29.57S445.12,405.43,429.68,422,401.6,451.72,401.4,451.52Z" opacity="0.2"/><path d="M561.51,452.69c-.2.18-12.27-13.09-27-29.51s-26.47-30-26.28-30.16,12.28,13.08,27,29.52S561.71,452.51,561.51,452.69Z" opacity="0.2"/><g opacity="0.5"><polyline points="556.99 347.58 479.47 409.76 402.36 349.02"/></g><polygon points="410.17 354.75 409.82 306.45 545.21 304.58 546.84 355.38 479.46 408.95 410.17 354.75" fill="#fafafa"/><path d="M523.87,328.94c0,.15-20.72.44-46.25.65s-46.25.25-46.25.1,20.71-.45,46.25-.67S523.87,328.77,523.87,328.94Z" fill="#ccc"/><path d="M523.89,342.57c0,.16-20.72.46-46.24.67s-46.25.25-46.25.09,20.72-.45,46.25-.66S523.89,342.42,523.89,342.57Z" fill="#ccc"/><path d="M523.92,358.3c0,.16-20.71.45-46.24.66s-46.24.25-46.24.09,20.71-.45,46.24-.66S523.92,358.14,523.92,358.3Z" fill="#ccc"/><path d="M524,374c0,.16-19.74.44-44.11.64s-44.12.24-44.12.08,19.74-.45,44.12-.65S524,373.86,524,374Z" fill="#ccc"/><path d="M506.68,387.85a2,2,0,0,1-.54.07l-1.56.06-5.71.14-18.88.35c-7.37.13-14.05.18-18.88.18h-7.27a2.42,2.42,0,0,1-.54-.06,1.63,1.63,0,0,1,.54-.06l1.55-.07,5.72-.14L480,388c7.37-.14,14-.18,18.88-.18h7.28A3.29,3.29,0,0,1,506.68,387.85Z" fill="#ccc"/><path d="M489.24,401.15a82.38,82.38,0,0,1-9.81.31,86.74,86.74,0,0,1-9.81-.26,169,169,0,0,1,19.62-.05Z" fill="#ccc"/><path d="M509,293.54a6.55,6.55,0,0,1-.12,2.68,6.73,6.73,0,0,1-.68,2.6A12.5,12.5,0,0,1,509,293.54Z" fill="#a7a9ac"/><path d="M511.1,283a6.43,6.43,0,0,1-.3,2.68,6.59,6.59,0,0,1-.86,2.55,6.54,6.54,0,0,1,.31-2.67A6.41,6.41,0,0,1,511.1,283Z" fill="#a7a9ac"/><path d="M514,272.72a12.56,12.56,0,0,1-1.56,5.14,6.69,6.69,0,0,1,.51-2.65A6.53,6.53,0,0,1,514,272.72Z" fill="#a7a9ac"/><path d="M517.75,262.67a12.86,12.86,0,0,1-2,5,6.61,6.61,0,0,1,.73-2.56A6.43,6.43,0,0,1,517.75,262.67Z" fill="#a7a9ac"/><path d="M522.39,253a12.88,12.88,0,0,1-2.44,4.77,6.63,6.63,0,0,1,1-2.51C521.6,254,522.25,253,522.39,253Z" fill="#a7a9ac"/><path d="M528,243.89a6.58,6.58,0,0,1-1.26,2.38c-.78,1.25-1.53,2.19-1.66,2.11a6.28,6.28,0,0,1,1.18-2.42C527.09,244.73,527.87,243.8,528,243.89Z" fill="#a7a9ac"/><path d="M534.6,235.45a6.76,6.76,0,0,1-1.49,2.24c-1,1.09-1.81,2-1.94,1.88s.55-1.09,1.5-2.24S534.48,235.35,534.6,235.45Z" fill="#a7a9ac"/><path d="M542.15,227.85c.11.12-.68,1-1.75,2.05s-2,1.74-2.18,1.63.67-1,1.75-2S542.05,227.73,542.15,227.85Z" fill="#a7a9ac"/><path d="M550.59,221.24c.08.13-.81.95-2,1.82a6.55,6.55,0,0,1-2.32,1.36c-.1-.12.8-.94,2-1.81A6.47,6.47,0,0,1,550.59,221.24Z" fill="#a7a9ac"/><path d="M559.83,215.82a12.7,12.7,0,0,1-4.72,2.56c-.07-.15.92-.82,2.18-1.53A6.56,6.56,0,0,1,559.83,215.82Z" fill="#a7a9ac"/><path d="M569.75,211.79a6.82,6.82,0,0,1-2.42,1.18,6.56,6.56,0,0,1-2.61.64,6.74,6.74,0,0,1,2.42-1.18A6.2,6.2,0,0,1,569.75,211.79Z" fill="#a7a9ac"/><path d="M580.18,209.36a6.92,6.92,0,0,1-2.59.72,6.52,6.52,0,0,1-2.67.27A10.71,10.71,0,0,1,580.18,209.36Z" fill="#a7a9ac"/><path d="M590.87,208.77a6.72,6.72,0,0,1-2.67.31,6.56,6.56,0,0,1-2.68-.25,6.55,6.55,0,0,1,2.67-.32A6.24,6.24,0,0,1,590.87,208.77Z" fill="#a7a9ac"/><path d="M601.53,210a12.88,12.88,0,0,1-5.3-.86,13.1,13.1,0,0,1,5.3.86Z" fill="#a7a9ac"/><path d="M611.77,213.09a12.6,12.6,0,0,1-5.07-1.77,7,7,0,0,1,2.63.61A6.33,6.33,0,0,1,611.77,213.09Z" fill="#a7a9ac"/><path d="M621.31,218a6.73,6.73,0,0,1-2.46-1.09,6.56,6.56,0,0,1-2.18-1.58,6.63,6.63,0,0,1,2.46,1.09C620.42,217.12,621.4,217.82,621.31,218Z" fill="#a7a9ac"/><path d="M629.7,224.58a6.87,6.87,0,0,1-2.18-1.56c-1.09-1-1.91-1.85-1.82-2s1.09.56,2.18,1.55S629.81,224.47,629.7,224.58Z" fill="#a7a9ac"/><path d="M635,230.68c-.13.09-.6-.31-1.09-.9s-.73-1.15-.61-1.25.59.3,1.09.9S635.13,230.59,635,230.68Z" fill="#a7a9ac"/><path d="M685.42,295.89a6.77,6.77,0,0,1-2.59-.89c-1.37-.64-2.43-1.27-2.35-1.41a7.25,7.25,0,0,1,2.59.89A7,7,0,0,1,685.42,295.89Z" fill="#ccc"/><path d="M695.71,299.5a13.39,13.39,0,0,1-5.21-1.59A13.12,13.12,0,0,1,695.71,299.5Z" fill="#a7a9ac"/><path d="M706.47,301.67a12.84,12.84,0,0,1-5.42-.58,7,7,0,0,1,2.74,0A6.9,6.9,0,0,1,706.47,301.67Z" fill="#a7a9ac"/><path d="M717.35,301.33a6.71,6.71,0,0,1-2.69.48,6.54,6.54,0,0,1-2.75-.08,7.33,7.33,0,0,1,2.7-.49A6.66,6.66,0,0,1,717.35,301.33Z" fill="#a7a9ac"/><path d="M728.05,299.33a7,7,0,0,1-2.58.91,6.67,6.67,0,0,1-2.74.27,6.9,6.9,0,0,1,2.62-.81A6.55,6.55,0,0,1,728.05,299.33Z" fill="#a7a9ac"/><path d="M747.21,289.23c.1.12-.75,1-2,1.93a6,6,0,0,1-2.39,1.35c-.09-.13.85-.9,2-1.8A7.55,7.55,0,0,1,747.21,289.23Z" fill="#a7a9ac"/><path d="M754.62,281.27a6,6,0,0,1-1.45,2.35c-1,1.16-1.9,2-2,1.86s.63-1.09,1.58-2.18S754.49,281.18,754.62,281.27Z" fill="#ccc"/><path d="M759.73,271.63a5.88,5.88,0,0,1-.76,2.65,6.09,6.09,0,0,1-1.46,2.34,19.73,19.73,0,0,1,2.22-5Z" fill="#ccc"/><path d="M761.8,261a5.82,5.82,0,0,1,.12,2.75,5.66,5.66,0,0,1-.68,2.67,8.56,8.56,0,0,1,.11-2.72A8.27,8.27,0,0,1,761.8,261Z" fill="#ccc"/><path d="M760.17,250.27a5.81,5.81,0,0,1,1,2.57,5.63,5.63,0,0,1,.23,2.73,8.07,8.07,0,0,1-.78-2.6A8.29,8.29,0,0,1,760.17,250.27Z" fill="#ccc"/><path d="M755.43,240.5c.12-.1,1,.84,1.71,2.18a5.61,5.61,0,0,1,1,2.54c-.15.07-.78-1-1.52-2.26A8.44,8.44,0,0,1,755.43,240.5Z" fill="#ccc"/><path d="M747.86,232.71a5.69,5.69,0,0,1,2.33,1.49c1.15,1,1.9,2,1.79,2.08a8.21,8.21,0,0,1-2.18-1.66C748.71,233.65,747.78,232.84,747.86,232.71Z" fill="#ccc"/><path d="M738,228.29a5.4,5.4,0,0,1,2.72.44,5.58,5.58,0,0,1,2.45,1.26,8.58,8.58,0,0,1-2.62-.72A9.17,9.17,0,0,1,738,228.29Z" fill="#ccc"/><path d="M727.17,228.47a5.25,5.25,0,0,1,2.64-.79,5.49,5.49,0,0,1,2.76.08,28.65,28.65,0,0,1-5.45.71Z" fill="#ccc"/><path d="M717.77,233.73c-.12-.1.64-1.09,1.87-2a5.13,5.13,0,0,1,2.46-1.26c.08.16-1,.82-2.18,1.72S717.89,233.84,717.77,233.73Z" fill="#ccc"/><path d="M713.46,243.52a5,5,0,0,1,.16-2.76,4.89,4.89,0,0,1,1.14-2.52,11.06,11.06,0,0,1-.6,2.65A10.43,10.43,0,0,1,713.46,243.52Z" fill="#ccc"/><path d="M715.58,254.08a5.38,5.38,0,0,1-1.32-2.42,5.12,5.12,0,0,1-.45-2.73,10.15,10.15,0,0,1,1,2.55A9.41,9.41,0,0,1,715.58,254.08Z" fill="#ccc"/><path d="M722.71,262.19a5.46,5.46,0,0,1-2.34-1.46c-1.16-1-1.87-2-1.75-2.12s1,.71,2.12,1.7S722.8,262.06,722.71,262.19Z" fill="#ccc"/><path d="M732.61,266.63a5.81,5.81,0,0,1-2.7-.51,5.61,5.61,0,0,1-2.46-1.26,8.57,8.57,0,0,1,2.63.72A8,8,0,0,1,732.61,266.63Z" fill="#ccc"/><path d="M743.43,267.65a9.9,9.9,0,0,1-5.45-.12,8.86,8.86,0,0,1,2.72-.13A8.1,8.1,0,0,1,743.43,267.65Z" fill="#ccc"/><path d="M754.17,265.67a10.19,10.19,0,0,1-5.28,1.35,7.63,7.63,0,0,1,2.58-.86A8.31,8.31,0,0,1,754.17,265.67Z" fill="#ccc"/><path d="M764,261.15a7,7,0,0,1-2.28,1.52,6.88,6.88,0,0,1-2.54,1,13,13,0,0,1,4.82-2.55Z" fill="#ccc"/><path d="M772.7,254.65c.11.12-.75,1-1.92,2a7,7,0,0,1-2.29,1.51c-.1-.13.78-1,1.93-1.95A7.26,7.26,0,0,1,772.7,254.65Z" fill="#ccc"/><path d="M780.17,246.68c.12.1-.58,1.09-1.56,2.25s-1.88,2-2,1.89a7.47,7.47,0,0,1,1.55-2.26C779.14,247.4,780,246.56,780.17,246.68Z" fill="#ccc"/><path d="M786.15,237.59a6.7,6.7,0,0,1-1.15,2.48c-.79,1.3-1.52,2.28-1.65,2.18a6.72,6.72,0,0,1,1.16-2.48C785.28,238.49,786,237.51,786.15,237.59Z" fill="#ccc"/><path d="M790.58,227.62a7.23,7.23,0,0,1-.73,2.65,6.11,6.11,0,0,1-1.29,2.42,8.09,8.09,0,0,1,.75-2.63A7,7,0,0,1,790.58,227.62Z" fill="#ccc"/><path d="M793.62,217.12a6.6,6.6,0,0,1-.4,2.71,6.85,6.85,0,0,1-1,2.57A13.11,13.11,0,0,1,793.62,217.12Z" fill="#ccc"/><path d="M795.53,206.44a6.61,6.61,0,0,1-.13,2.73,6.76,6.76,0,0,1-.69,2.65,6.61,6.61,0,0,1,.13-2.73A7,7,0,0,1,795.53,206.44Z" fill="#ccc"/><path d="M796.53,195.58a13,13,0,0,1-.4,5.45,7.07,7.07,0,0,1-.08-2.75A6.94,6.94,0,0,1,796.53,195.58Z" fill="#ccc"/><path d="M796.88,184.69a6.42,6.42,0,0,1,.23,2.72,6.49,6.49,0,0,1-.34,2.73,7.24,7.24,0,0,1-.23-2.74A6.91,6.91,0,0,1,796.88,184.69Z" fill="#ccc"/><path d="M796.8,173.79a6.6,6.6,0,0,1,.33,2.72,6.46,6.46,0,0,1-.25,2.73,7,7,0,0,1-.33-2.73A7.13,7.13,0,0,1,796.8,173.79Z" fill="#263238"/><path d="M796.68,167.08c.16,0,.3.27.31.62s-.11.62-.27.63-.3-.27-.3-.62S796.49,167.08,796.68,167.08Z" fill="#263238"/><rect x="748.92" y="138.59" width="74.54" height="50.25" transform="translate(-13.08 85.87) rotate(-6.2)" fill="#ccc"/><path d="M820.83,135.35a4.94,4.94,0,0,1-.62.75l-1.86,2-7,7.39-23.21,24.22L788,170l-.24-.15-.56-.36-28.65-18.33-8.73-5.62L747.47,144a7.64,7.64,0,0,1-.79-.58,4.54,4.54,0,0,1,.87.46l2.4,1.45,8.72,5.45,28.79,18.16.57.36h-.43L811,145.17l7.12-7.24,2-1.94A5.49,5.49,0,0,1,820.83,135.35Z" opacity="0.2"/><path d="M752.15,193.31c-.15-.1,4.68-7.55,10.78-16.64s11.2-16.35,11.35-16.26-4.67,7.55-10.78,16.64S752.3,193.42,752.15,193.31Z" opacity="0.2"/><path d="M798.86,157.16c.15-.13,6.39,6.07,14,13.85s13.59,14.17,13.46,14.31-6.37-6.06-13.95-13.85S798.71,157.24,798.86,157.16Z" opacity="0.2"/><path d="M482.12,286.19c.15,0,.38.55.51,1.3s.1,1.36-.05,1.39-.38-.56-.51-1.31S482,286.21,482.12,286.19Z" fill="#a7a9ac"/><path d="M480.38,275.55a6.58,6.58,0,0,1,.7,2.61,6.71,6.71,0,0,1,.16,2.71,13,13,0,0,1-.86-5.32Z" fill="#a7a9ac"/><path d="M478.82,264.88a6.54,6.54,0,0,1,.65,2.63,6.69,6.69,0,0,1,.1,2.71,6.34,6.34,0,0,1-.65-2.63A6.69,6.69,0,0,1,478.82,264.88Z" fill="#a7a9ac"/><path d="M477.6,254.19a6.92,6.92,0,0,1,.56,2.65,6.15,6.15,0,0,1,0,2.7,6.65,6.65,0,0,1-.55-2.65A6.47,6.47,0,0,1,477.6,254.19Z" fill="#a7a9ac"/><path d="M476.84,243.42a12.86,12.86,0,0,1,.31,5.38A13,13,0,0,1,476.84,243.42Z" fill="#a7a9ac"/><path d="M476.73,232.64a13.17,13.17,0,0,1,0,5.45,6.49,6.49,0,0,1-.27-2.7A6.75,6.75,0,0,1,476.73,232.64Z" fill="#a7a9ac"/><path d="M477.41,221.89a6.87,6.87,0,0,1,.06,2.71,6.74,6.74,0,0,1-.51,2.66,6.47,6.47,0,0,1-.06-2.7A6.58,6.58,0,0,1,477.41,221.89Z" fill="#a7a9ac"/><path d="M479,211.23a6.36,6.36,0,0,1-.18,2.71,6.56,6.56,0,0,1-.75,2.6,13.23,13.23,0,0,1,.93-5.31Z" fill="#a7a9ac"/><path d="M481.78,200.82a13.33,13.33,0,0,1-1.53,5.17,6.46,6.46,0,0,1,.49-2.67A6.34,6.34,0,0,1,481.78,200.82Z" fill="#a7a9ac"/><path d="M485.81,190.83a13.11,13.11,0,0,1-2.17,4.93,12.8,12.8,0,0,1,2.18-4.93Z" fill="#a7a9ac"/><path d="M491.06,181.43a6.78,6.78,0,0,1-1.14,2.45,8.2,8.2,0,0,1-1.64,2.18,6.75,6.75,0,0,1,1.16-2.45C490.2,182.31,490.93,181.34,491.06,181.43Z" fill="#a7a9ac"/><path d="M497.53,172.8c.12.11-.54,1.09-1.47,2.28s-1.78,2-1.91,1.92a6.82,6.82,0,0,1,1.47-2.28C496.56,173.57,497.42,172.71,497.53,172.8Z" fill="#263238"/><path d="M505.19,165.23c.1.13-.71,1-1.8,2s-2.07,1.71-2.18,1.6.7-1,1.8-2S505.09,165.11,505.19,165.23Z" fill="#263238"/><path d="M514,159c.08.15-.87.9-2.13,1.69a6.49,6.49,0,0,1-2.42,1.21c-.08-.12.86-.88,2.12-1.69A6.93,6.93,0,0,1,514,159Z" fill="#263238"/><path d="M523.81,154.62a6.51,6.51,0,0,1-2.41,1.24,6.61,6.61,0,0,1-2.6.72,6.59,6.59,0,0,1,2.41-1.24A6.52,6.52,0,0,1,523.81,154.62Z" fill="#263238"/><path d="M531.68,152.68c0,.15-.54.39-1.27.53s-1.37.13-1.4,0,.55-.39,1.29-.53S531.66,152.53,531.68,152.68Z" fill="#263238"/><rect x="474.32" y="111.31" width="54.63" height="81.05" transform="translate(179.1 564.95) rotate(-68.86)" fill="#f48225" data-secondary="true"/><path d="M549.29,141.69a5,5,0,0,1-1,.4l-2.82,1-10.42,3.66-34.53,11.86-.29.1-.15-.26-.37-.63-18.53-32-5.55-9.75-1.48-2.67a5,5,0,0,1-.47-1,6.44,6.44,0,0,1,.59.88l1.61,2.61,5.69,9.6c4.84,8.22,11.45,19.49,18.74,31.91l.37.64-.44-.17,34.65-11.66,10.49-3.44,2.87-.9A4.84,4.84,0,0,1,549.29,141.69Z" opacity="0.2"/><path d="M454,163.41c-.1-.18,8.29-5,18.73-10.69s19-10.22,19.08-10.05-8.28,5-18.73,10.7S454.09,163.58,454,163.41Z" opacity="0.2"/><path d="M517.18,151.71c.2-.06,3.13,9,6.54,20.33s6,20.5,5.86,20.55-3.13-9-6.54-20.33S517,151.81,517.18,151.71Z" opacity="0.2"/><path d="M259.67,540.53s-7,9.93.25,13.27,71.66-4.37,101.8-4.65,46.59-11.66,45.95-15.11-8-10-8-10l-5.13,6s5.45,1.63,5.3,4.16-20.11,10.76-45.22,7.3-78.62,7.28-82.86,6.8-.18-10-.18-10Z" fill="#f48225" data-secondary="true"/><path d="M259.67,540.53s-7,9.93.25,13.27,71.66-4.37,101.8-4.65,46.59-11.66,45.95-15.11-8-10-8-10l-5.13,6s5.45,1.63,5.3,4.16-20.11,10.76-45.22,7.3-78.62,7.28-82.86,6.8-.18-10-.18-10Z" opacity="0.2" style="isolation:isolate"/><path d="M360.76,544.48c-39.59,2.75-105.36,1.83-105.36,1.83-34-2.48-40.34-13.68-35-26.42,8.25-19.62,44.5-42.9,51.11-43.45,10.9-.88,22.37,3.45,22.37,3.45l7.08-1.49c-2.18-5.88,20.23-19,30.47-13.32s31.39-2.1,37.77,1.88a15,15,0,0,1,4.28,4.17,25.53,25.53,0,0,1,3.74,8.9h.08a22.71,22.71,0,0,1,4.91-.76c3.51-.19,8.19.35,11.85,3.54a33.26,33.26,0,0,1,2.67,2.64c6.61,7.22,15.11,20.86,17.07,28.81C416.05,523.31,400.33,541.73,360.76,544.48Z" fill="#f48225" data-secondary="true"/><g clip-path="url(#a384e7d3-362c-47ad-af46-7c03e763df97)"><path d="M326.82,471.27c-1.93-3.4,22.43-1.79,25,0s2.59,7.39,5.4,5.87c2.23-1.2,10.74-5.81,16.2-6a25.53,25.53,0,0,1,3.74,8.9s-33.53,9.47-35.69,7,6-4.62,8.63-10.14-7.77-4-9.91-4S328.75,474.64,326.82,471.27Z" opacity="0.2" style="isolation:isolate"/><path d="M360.76,544.48c-39.59,2.75-105.36,1.83-105.36,1.83-34-2.48-40.34-13.68-35-26.42,1.31,1,3.55,1.48,7.24.77,12.11-2.33,19-3,26.77,4.36s16.62,11.8,20.72,10.36c0,0,.56-16.2,16.35-27.83s19.5-8.33,22.65-11.42,5-8.72-4-11.9-13.45-4.36-13.45-4.36,10-.78,18.6,3.09,16.16,13.09,12.5,15.17,5.39,5.79,11.65,4.8c5.53-.9,23.91-1,27.6-1.15-3.27.7-17.9,5.27-17.9,8.78,0,0,4.51,7.41,4.48,15.79s9.81,9.46,14.07,6.32,5.16-7.45,3.55-15.65-6.13-8.81-12-7.53c0,0,7.55-4.55,9.93-3s9,.87,10.34,8-3.27,12.94-1.09,14.88,14.67-.22,16.82-4.36.73-27.88-1.35-28.35-12.49,2.69-12.79,2.78a8.44,8.44,0,0,1,6.38-5.45c3.84-.67,8.57-4.45,9.32-8.57,6.61,7.22,15.11,20.86,17.08,28.82C416.05,523.31,400.33,541.73,360.76,544.48Z" opacity="0.2" style="isolation:isolate"/></g><path d="M273.23,493l-.44-5a1.13,1.13,0,0,1,.89-1.21l11.58-2.53a1.1,1.1,0,0,1,1.34.77.83.83,0,0,1,0,.22l.47,4.69a1.15,1.15,0,0,1-.86,1.22L274.63,494a1.12,1.12,0,0,1-1.4-1Z" opacity="0.2" style="isolation:isolate"/><polygon points="277.44 487.5 283.7 488.58 282.3 489.41 275.61 488.45 277.44 487.5" fill="#fff" opacity="0.2" style="isolation:isolate"/><path d="M281.11,547c-15,0-25.46-.15-25.72-.15-19.1-1.39-31-5.68-35.33-12.74-2.46-4-2.53-8.85-.21-14.43,8.26-19.62,44.51-43.2,51.57-43.78,10.21-.83,21.05,2.92,22.46,3.42l6.38-1.34c-.25-1.79,1.1-4,3.87-6.42,6.4-5.52,19.88-11.16,27.52-6.95,5.44,3,14.25,2.09,22,1.29,6.82-.7,12.72-1.31,15.77.6a15.39,15.39,0,0,1,4.44,4.33,25.74,25.74,0,0,1,3.7,8.55,23.78,23.78,0,0,1,4.55-.66c3.45-.19,8.37.31,12.24,3.68a38.09,38.09,0,0,1,2.71,2.68c6.5,7.1,15.16,20.78,17.2,29.05.76,3-.31,6.68-3,10.4-3,4.19-15.65,18.07-50.48,20.5h0C337.17,546.67,303.92,547,281.11,547Zm-6.64-70.13c-1,0-2,0-3,.12-6.92.57-42.52,23.78-50.65,43.11-2.18,5.24-2.14,9.76.13,13.44,4.16,6.74,15.74,10.86,34.45,12.22.62,0,66.17.9,105.28-1.82,34.36-2.39,46.71-16,49.68-20.05,2.5-3.46,3.51-6.83,2.84-9.49-1.95-7.89-10.56-21.6-16.95-28.58a35.84,35.84,0,0,0-2.63-2.6c-3.59-3.13-8.21-3.57-11.46-3.41a23,23,0,0,0-4.8.75.66.66,0,0,1-.76-.42,24.49,24.49,0,0,0-3.66-8.7,14.18,14.18,0,0,0-4.11-4c-2.74-1.71-8.73-1.09-15.08-.44-7.93.82-16.93,1.75-22.67-1.42-6.93-3.82-20,1.39-26.28,6.82-2.68,2.31-3.92,4.43-3.4,5.83a.55.55,0,0,1,0,.45.52.52,0,0,1-.36.27L294,480.42a.51.51,0,0,1-.3,0A62.47,62.47,0,0,0,274.47,476.87Zm86.29,67.62h0Z" fill="#f48225" data-secondary="true"/><path d="M290.7,545.09c-3.35,0-9.25-.54-12.95-4a10.52,10.52,0,0,1-3.22-8.45C275,518.8,298,498.2,307.79,497.61c5.4-.33,9.46-4,9.72-7,.22-2.55-2-4.52-6.35-5.55-12.37-2.94-17.44-4.63-17.49-4.64l.34-1c.05,0,5.09,1.69,17.4,4.62,6.87,1.64,7.32,5.23,7.19,6.7-.35,3.94-5.36,7.68-10.74,8-8.36.51-31.8,20.1-32.24,34a9.5,9.5,0,0,0,2.87,7.61c4.92,4.56,14.52,3.58,14.61,3.57l.12,1.08A21.91,21.91,0,0,1,290.7,545.09Z" fill="#f48225" data-secondary="true"/><path d="M342.24,487.55c-4.95,0-9.49-.69-12.67-2.56-11.37-6.69-28.44-6.06-28.61-6.05a.54.54,0,0,1-.57-.52.55.55,0,0,1,.52-.57c.18,0,17.57-.66,29.21,6.2,11.31,6.66,42-2.69,42.27-2.78a.54.54,0,0,1,.32,1C371.78,482.59,355.52,487.55,342.24,487.55Z" fill="#f48225" data-secondary="true"/><path d="M353.13,541a.51.51,0,0,1-.39-.16.53.53,0,0,1-.16-.43c0-.23,2.1-22.62-2.91-29.48a.55.55,0,0,1,.12-.76.55.55,0,0,1,.77.12c4.81,6.59,3.49,25.69,3.17,29.56,4.76-.48,34.2-3.7,42.66-10.59,5-4.06,4.74-13.36,2.84-20.71-1.8-7-4.74-11.48-6.54-11.81-2.28-.4-7.81,1.77-14.22,4.29-7.47,2.93-16.76,6.58-24.86,7.71a.56.56,0,0,1-.61-.47.55.55,0,0,1,.46-.61c8-1.11,17.2-4.73,24.61-7.64,6.84-2.69,12.25-4.81,14.81-4.35,3,.54,5.94,6.91,7.41,12.6,2,7.68,2.18,17.45-3.21,21.84-9.43,7.67-42.5,10.77-43.91,10.89Z" fill="#f48225" data-secondary="true"/><path d="M362.29,537.88c-1.05,0-1.76-.06-1.87-.07a.54.54,0,0,1-.49-.59.55.55,0,0,1,.59-.5c.1,0,9.2.81,11.55-3.62s-1.63-18-3.88-22.27c-1.59-3-9.39-.83-12.27.26a.55.55,0,0,1-.7-.32.54.54,0,0,1,.32-.7c.46-.17,11.26-4.22,13.61.25,2.08,3.95,6.64,18.09,3.88,23.29C371,537.37,365.3,537.88,362.29,537.88Z" fill="#f48225" data-secondary="true"/><path d="M345.81,483.57a.51.51,0,0,1-.29-.08.54.54,0,0,1-.17-.75,71.45,71.45,0,0,1,4.34-6.18c.39-.53.81-1.26.56-1.75-.78-1.52-6.76-1.41-11.56-1.32l-1.94,0h-.23c-7.83,0-21-5.51-21.55-5.74a.56.56,0,0,1-.29-.72.56.56,0,0,1,.72-.29c.13.06,13.51,5.66,21.12,5.66h.21l1.94,0c6.15-.11,11.46-.22,12.55,1.92.41.79.18,1.77-.67,2.9a72.7,72.7,0,0,0-4.28,6.1A.54.54,0,0,1,345.81,483.57Z" fill="#f48225" data-secondary="true"/><path d="M294.66,535.9c-7.34,0-14.87-.71-19.77-2.71a.55.55,0,0,1-.3-.71.55.55,0,0,1,.71-.3c10.5,4.29,33.32,2.52,39.75.65,6.1-1.77,15-.53,17.46-.12V522.24c-.75-.48-4.75-2.36-18.94-.22-16.76,2.53-32.42-2.88-32.58-2.94a.54.54,0,0,1,.36-1c.16.05,15.57,5.37,32,2.88,16.63-2.51,19.76.33,20.06.67a.54.54,0,0,1,.14.36v11.38a.52.52,0,0,1-.2.42.52.52,0,0,1-.45.12c-.1,0-10.85-2-17.59,0C311.82,534.91,303.36,535.9,294.66,535.9Z" fill="#f48225" data-secondary="true"/><path d="M297.15,528.55h-.57c-14.19,0-19.89-1.58-20.13-1.65a.55.55,0,0,1,.3-1c.05,0,5.83,1.57,19.84,1.61s27.47-1.17,27.61-1.18a.55.55,0,0,1,.59.49.56.56,0,0,1-.5.6C324.16,527.38,311.09,528.55,297.15,528.55Z" fill="#f48225" data-secondary="true"/><path d="M290.27,481.45a13.14,13.14,0,0,1,7.63-3.09c4.2,0,7.44,1.3,7,1.55s-7.1,1.56-8.35,3.06Z" fill="#f48225" data-secondary="true"/><g opacity="0.4"><path d="M281.11,547c-15,0-25.46-.15-25.72-.15-19.1-1.39-31-5.68-35.33-12.74-2.46-4-2.53-8.85-.21-14.43,8.26-19.62,44.51-43.2,51.57-43.78,10.21-.83,21.05,2.92,22.46,3.42l6.38-1.34c-.25-1.79,1.1-4,3.87-6.42,6.4-5.52,19.88-11.16,27.52-6.95,5.44,3,14.25,2.09,22,1.29,6.82-.7,12.72-1.31,15.77.6a15.39,15.39,0,0,1,4.44,4.33,25.74,25.74,0,0,1,3.7,8.55,23.78,23.78,0,0,1,4.55-.66c3.45-.19,8.37.31,12.24,3.68a38.09,38.09,0,0,1,2.71,2.68c6.5,7.1,15.16,20.78,17.2,29.05.76,3-.31,6.68-3,10.4-3,4.19-15.65,18.07-50.48,20.5h0C337.17,546.67,303.92,547,281.11,547Zm-6.64-70.13c-1,0-2,0-3,.12-6.92.57-42.52,23.78-50.65,43.11-2.18,5.24-2.14,9.76.13,13.44,4.16,6.74,15.74,10.86,34.45,12.22.62,0,66.17.9,105.28-1.82,34.36-2.39,46.71-16,49.68-20.05,2.5-3.46,3.51-6.83,2.84-9.49-1.95-7.89-10.56-21.6-16.95-28.58a35.84,35.84,0,0,0-2.63-2.6c-3.59-3.13-8.21-3.57-11.46-3.41a23,23,0,0,0-4.8.75.66.66,0,0,1-.76-.42,24.49,24.49,0,0,0-3.66-8.7,14.18,14.18,0,0,0-4.11-4c-2.74-1.71-8.73-1.09-15.08-.44-7.93.82-16.93,1.75-22.67-1.42-6.93-3.82-20,1.39-26.28,6.82-2.68,2.31-3.92,4.43-3.4,5.83a.55.55,0,0,1,0,.45.52.52,0,0,1-.36.27L294,480.42a.51.51,0,0,1-.3,0A62.47,62.47,0,0,0,274.47,476.87Zm86.29,67.62h0Z" fill="#fff"/><path d="M290.7,545.09c-3.35,0-9.25-.54-12.95-4a10.52,10.52,0,0,1-3.22-8.45C275,518.8,298,498.2,307.79,497.61c5.4-.33,9.46-4,9.72-7,.22-2.55-2-4.52-6.35-5.55-12.37-2.94-17.44-4.63-17.49-4.64l.34-1c.05,0,5.09,1.69,17.4,4.62,6.87,1.64,7.32,5.23,7.19,6.7-.35,3.94-5.36,7.68-10.74,8-8.36.51-31.8,20.1-32.24,34a9.5,9.5,0,0,0,2.87,7.61c4.92,4.56,14.52,3.58,14.61,3.57l.12,1.08A21.91,21.91,0,0,1,290.7,545.09Z" fill="#fff"/><path d="M342.24,487.55c-4.95,0-9.49-.69-12.67-2.56-11.37-6.69-28.44-6.06-28.61-6.05a.54.54,0,0,1-.57-.52.55.55,0,0,1,.52-.57c.18,0,17.57-.66,29.21,6.2,11.31,6.66,42-2.69,42.27-2.78a.54.54,0,0,1,.32,1C371.78,482.59,355.52,487.55,342.24,487.55Z" fill="#fff"/><path d="M353.13,541a.51.51,0,0,1-.39-.16.53.53,0,0,1-.16-.43c0-.23,2.1-22.62-2.91-29.48a.55.55,0,0,1,.12-.76.55.55,0,0,1,.77.12c4.81,6.59,3.49,25.69,3.17,29.56,4.76-.48,34.2-3.7,42.66-10.59,5-4.06,4.74-13.36,2.84-20.71-1.8-7-4.74-11.48-6.54-11.81-2.28-.4-7.81,1.77-14.22,4.29-7.47,2.93-16.76,6.58-24.86,7.71a.56.56,0,0,1-.61-.47.55.55,0,0,1,.46-.61c8-1.11,17.2-4.73,24.61-7.64,6.84-2.69,12.25-4.81,14.81-4.35,3,.54,5.94,6.91,7.41,12.6,2,7.68,2.18,17.45-3.21,21.84-9.43,7.67-42.5,10.77-43.91,10.89Z" fill="#fff"/><path d="M362.29,537.88c-1.05,0-1.76-.06-1.87-.07a.54.54,0,0,1-.49-.59.55.55,0,0,1,.59-.5c.1,0,9.2.81,11.55-3.62s-1.63-18-3.88-22.27c-1.59-3-9.39-.83-12.27.26a.55.55,0,0,1-.7-.32.54.54,0,0,1,.32-.7c.46-.17,11.26-4.22,13.61.25,2.08,3.95,6.64,18.09,3.88,23.29C371,537.37,365.3,537.88,362.29,537.88Z" fill="#fff"/><path d="M345.81,483.57a.51.51,0,0,1-.29-.08.54.54,0,0,1-.17-.75,71.45,71.45,0,0,1,4.34-6.18c.39-.53.81-1.26.56-1.75-.78-1.52-6.76-1.41-11.56-1.32l-1.94,0h-.23c-7.83,0-21-5.51-21.55-5.74a.56.56,0,0,1-.29-.72.56.56,0,0,1,.72-.29c.13.06,13.51,5.66,21.12,5.66h.21l1.94,0c6.15-.11,11.46-.22,12.55,1.92.41.79.18,1.77-.67,2.9a72.7,72.7,0,0,0-4.28,6.1A.54.54,0,0,1,345.81,483.57Z" fill="#fff"/><path d="M294.66,535.9c-7.34,0-14.87-.71-19.77-2.71a.55.55,0,0,1-.3-.71.55.55,0,0,1,.71-.3c10.5,4.29,33.32,2.52,39.75.65,6.1-1.77,15-.53,17.46-.12V522.24c-.75-.48-4.75-2.36-18.94-.22-16.76,2.53-32.42-2.88-32.58-2.94a.54.54,0,0,1,.36-1c.16.05,15.57,5.37,32,2.88,16.63-2.51,19.76.33,20.06.67a.54.54,0,0,1,.14.36v11.38a.52.52,0,0,1-.2.42.52.52,0,0,1-.45.12c-.1,0-10.85-2-17.59,0C311.82,534.91,303.36,535.9,294.66,535.9Z" fill="#fff"/><path d="M297.15,528.55h-.57c-14.19,0-19.89-1.58-20.13-1.65a.55.55,0,0,1,.3-1c.05,0,5.83,1.57,19.84,1.61s27.47-1.17,27.61-1.18a.55.55,0,0,1,.59.49.56.56,0,0,1-.5.6C324.16,527.38,311.09,528.55,297.15,528.55Z" fill="#fff"/><path d="M290.27,481.45a13.14,13.14,0,0,1,7.63-3.09c4.2,0,7.44,1.3,7,1.55s-7.1,1.56-8.35,3.06Z" fill="#fff"/></g><path d="M228.06,534.06s-13.58,4.44-6.25,9.62,17.26,4.1,25.33-1.09l.87-4.85a32.64,32.64,0,0,0-9.16,2.81c-4.21,2.18-14,0-13.38-1.2a2.94,2.94,0,0,1,2.38-1.19Z" fill="#f48225" data-secondary="true"/><path d="M269.92,546c1,5.45,38.9-2.4,69.68-7.83s58,.86,60.26-4,7.81-.14,7.81-.14A25.45,25.45,0,0,1,395,546c-9,3.7-51.43,2.84-75.23,7.71s-66,12-63-6.54Z" fill="#f48225" data-secondary="true"/><path d="M15.15,483.63s-.62,28.09,45.9,48.81,173,30.78,196-42.2l-71.64-20.58H89.29l-21.15,9.61Z" fill="#92e3a9"/><g clip-path="url(#a6c55cb7-7d16-4b11-8f4a-105186cc14bd)"><path d="M15.15,483.63s-.62,28.09,45.9,48.81,173,30.78,196-42.2l-71.64-20.58H89.29l-21.15,9.61Z" opacity="0.2" style="isolation:isolate"/></g><path d="M15.15,483.63s-.62,28.09,45.9,48.81,173,30.78,196-42.2l-71.64-20.58H89.29l-21.15,9.61Z" fill="#2f2e41"/><path d="M69.76,360.27c-8.43,7.53-37.7,92.67-33.91,102S89.27,480,89.27,480s-4.91-96.13-5.16-97.73S69.76,360.27,69.76,360.27Z" fill="#686175" data-primary="true"/><path d="M201.23,360.27c8.44,7.53,37.7,92.67,33.92,102S181.73,480,181.73,480s4.91-96.13,5.16-97.73S201.23,360.27,201.23,360.27Z" fill="#686175" data-primary="true"/><path d="M69.76,360.27s19.48-22,65.53-23.31c37-1.09,62.32,17.28,65.94,23.31s-16.46,86.39-16.46,86.39L196,489.92s-60.28,20.08-114.11,0l7.23-45.68S70.17,371.52,69.76,360.27Z" fill="#686175" data-primary="true"/><path d="M159,344.13s-10.36,10.2-22.9,10.2-24.51-11.81-24.51-11.81,6.47-3.22,8.2-9.66a9.71,9.71,0,0,0,.26-1.19c.47-2.82-.28-7.63-1.37-12.37-1.71-7.47-4.25-14.95-4.25-14.95h40.5s-1.92,9.34-3.18,18c-.23,1.58-.45,3.13-.62,4.6s-.33,3-.41,4.36C150.18,340.39,159,344.13,159,344.13Z" fill="#f9b499"/><path d="M197.08,490v4.67a3.08,3.08,0,0,1-.09.75,3.18,3.18,0,0,1-3,2.38h-111a3.19,3.19,0,0,1-3.08-2.4,3.14,3.14,0,0,1-.09-.75V490Z" fill="#686175" data-primary="true"/><g clip-path="url(#a92b7d77-09a6-4f01-9261-b3798c144440)"><path d="M197.08,490v4.67a3.08,3.08,0,0,1-.09.75H79.86a3.08,3.08,0,0,1-.09-.75V490Z" opacity="0.2" style="isolation:isolate"/></g><path d="M196,493.11H80.86a2.29,2.29,0,0,1-2.33-1.8l-10-80.67a2.19,2.19,0,0,1,1.87-2.46l.31,0H206.14a2.19,2.19,0,0,1,2.2,2.16c0,.11,0,.21,0,.32l-10,80.67A2.27,2.27,0,0,1,196,493.11Z" fill="#686175" data-primary="true"/><path d="M81.6,491.61l-9.81-77.33a1.59,1.59,0,0,1,1.42-1.75H204a1.6,1.6,0,0,1,1.57,1.63v.13l-9.82,77.33" fill="#fff" opacity="0.2" style="isolation:isolate"/><polygon points="139.73 457.67 127.91 457.67 141.64 443.28 135.26 454.7 139.73 457.67" fill="#231f20" opacity="0.2"/><polygon points="135.1 465.21 149.69 451.14 138.13 451.14 142.28 454.19 135.1 465.21" fill="#231f20" opacity="0.2"/><path d="M234.14,539l3.49,4s3.27,7.44-5.77,16.54-32.47,10.9-41.58,9.32l-5.75.78L165,565.4s-9.9-4.85-5.85-13.34S234.14,539,234.14,539Z" fill="#686175" data-primary="true"/><path d="M234.14,539l3.49,4s3.27,7.44-5.77,16.54-32.47,10.9-41.58,9.32l-5.75.78L165,565.4s-9.9-4.85-5.85-13.34S234.14,539,234.14,539Z" opacity="0.2"/><path d="M228.14,558.12c-7.55,7.89-31.76,9.46-41.86,7.16-2.76-.64-12.8-1-20.28-3.68-4-1.43-7.33-3.53-8.33-6.71-2.9-9.09,22.65-26.37,22.65-26.37s16.3,3.14,19.68,4a64.69,64.69,0,0,0,12,1.66c7.76.34,13-.7,18.68,1.74C237.1,538.65,237.19,548.68,228.14,558.12Z" fill="#686175" data-primary="true"/><path d="M182.25,524.35c-2.43,16.47-27.83,34.37-27.83,34.37s-7-6.59-9.35-6.32-12-.41-12-.41S56.58,523.36,47.4,523.2c-5.73-.08-22.26-5.11-30.44-18.15-4.86-7.74-6.77-18.31-1.74-32.35,8.29-23.14,49.14-6.09,89.19,16,13.3,7.36,25.08,13.26,34.64,17.75,15.86,7.47,25.51,11.07,25.51,11.07l5.3-1.9Z" fill="#2f2e41"/><path d="M182.25,524.35c-2.43,16.47-27.83,34.37-27.83,34.37s-7-6.59-9.35-6.32-12-.41-12-.41S56.58,523.36,47.4,523.2c-5.73-.08-22.26-5.11-30.44-18.15,9.61.71,26,2.31,33.8,5.23,0,0-8.72,2.18-6.32,4.28s37.41,6.21,49.73,3.11c11.15-2.81,33.39-10.38,44.9-11.19,15.86,7.47,25.51,11.07,25.51,11.07l5.3-1.9Z" opacity="0.2" style="isolation:isolate"/><g opacity="0.2" style="isolation:isolate"><path d="M117.26,508.57a.54.54,0,0,1-.1-1.08c2.89-.53,5.37-1.09,7.61-1.71a.54.54,0,0,1,.67.37.56.56,0,0,1-.38.68c-2.26.63-4.78,1.2-7.7,1.73Z"/></g><g opacity="0.2" style="isolation:isolate"><path d="M82,511.47c-9.11,0-18.9-.49-29.64-1.45a.55.55,0,0,1-.47-.59.55.55,0,0,1,.56-.5c23.5,2.12,42.46,1.92,59.66-.63a.52.52,0,0,1,.57.47.53.53,0,0,1-.43.61A205.81,205.81,0,0,1,82,511.47Z"/></g><path d="M40.48,540.55l-3.52,4s-3.27,7.43,5.76,16.54S75.18,572,84.3,570.38l5.75.77,19.54-4.2s9.94-4.83,5.87-13.33S40.48,540.55,40.48,540.55Z" fill="#686175" data-primary="true"/><path d="M40.48,540.55l-3.52,4s-3.27,7.43,5.76,16.54S75.18,572,84.3,570.38l5.75.77,19.54-4.2s9.94-4.83,5.87-13.33S40.48,540.55,40.48,540.55Z" opacity="0.2"/><path d="M94.3,530.05S78,533.19,74.62,534c-15.15,3.57-22.45-.1-30.62,3.41-6.47,2.78-6.54,12.81,2.48,22.25,7.55,7.88,31.75,9.45,41.86,7.15,4.24-1,25.73-1.34,28.62-10.4S94.3,530.05,94.3,530.05Z" fill="#686175" data-primary="true"/><path d="M257.81,472.55c-8.34-23.13-49.15-6-89.15,16.19-35.37,19.63-60.11,28.93-60.11,28.93l-5.29-1.88-12.39,8.72c2.46,16.46,27.91,34.31,27.91,34.31s7-6.62,9.34-6.34,12-.44,12-.44,76.49-28.77,85.61-28.93S271.36,510.22,257.81,472.55Z" fill="#2f2e41"/><g opacity="0.2"><path d="M153.47,532.78h0c-2.19,0-4.44-.1-6.68-.26a.54.54,0,0,1-.5-.58.53.53,0,0,1,.58-.5c2.22.15,4.44.23,6.6.25a.54.54,0,0,1,.55.54A.55.55,0,0,1,153.47,532.78Z"/></g><g opacity="0.2"><path d="M140.77,531.9h-.07c-10.21-1.4-24.14-4.94-32.54-13.86a.54.54,0,0,1,.79-.75c8.19,8.69,21.86,12.15,31.89,13.53a.54.54,0,0,1-.07,1.08Z"/></g><path d="M151.76,322.27c-.23,1.59-.45,3.13-.61,4.61-4.08,4.17-10.9,9.92-17.44,10.11-4.79.14-9.82-1.91-13.89-4.16a12,12,0,0,0,.26-1.19c.47-2.82-.29-7.63-1.38-12.37Z" fill="#f4a58c"/><path d="M181.63,402.38H93.11a6,6,0,0,1-6-6v-3.75a6,6,0,0,1,6-6h88.52a6,6,0,0,1,6,6v3.75A6,6,0,0,1,181.63,402.38ZM93.11,388.17a4.5,4.5,0,0,0-4.5,4.49v3.75a4.5,4.5,0,0,0,4.5,4.49h88.52a4.49,4.49,0,0,0,4.49-4.49v-3.75a4.49,4.49,0,0,0-4.49-4.49Z" fill="#686175" data-primary="true"/><path d="M127.11,391.32a1.33,1.33,0,0,0,1.48-1.09h.91v8.59h-1.34v-6.54h-1.09Z" fill="#686175" data-primary="true"/><path d="M131,392.3a2.05,2.05,0,0,1,4.1,0h0v4.47a2.05,2.05,0,0,1-4.1,0h0Zm1.36,4.56c0,.61.26.84.69.84s.7-.23.7-.84v-4.65c0-.61-.27-.84-.7-.84s-.69.23-.69.84Z" fill="#686175" data-primary="true"/><path d="M135.89,392.3a2.05,2.05,0,0,1,4.1,0h0v4.47a2.05,2.05,0,0,1-4.1,0h0Zm1.34,4.56c0,.61.27.84.71.84s.69-.23.69-.84v-4.65c0-.61-.27-.84-.69-.84s-.71.23-.71.84Z" fill="#686175" data-primary="true"/><path d="M140.78,391.55a1.3,1.3,0,1,1,2.6,0v2.82a1.3,1.3,0,0,1-2.6,0Zm.86,2.89c0,.38.15.54.44.54s.45-.16.45-.54v-2.95c0-.38-.18-.54-.45-.54s-.44.16-.44.54Zm3.83-4.2h.79l-3.39,8.59h-.79ZM145,394.7a1.31,1.31,0,0,1,2.61-.24,1,1,0,0,1,0,.24v2.8a1.31,1.31,0,0,1-2.61.24v-3Zm.86,2.88c0,.38.17.54.45.54s.44-.16.44-.54v-2.95c0-.38-.17-.54-.44-.54s-.45.16-.45.54Z" fill="#686175" data-primary="true"/><path d="M335.53,262.25s-3.91,2.75-3.78,3.13,7.82,3.27,14.78-.52" fill="#fff" stroke="#263238" stroke-linecap="round" stroke-linejoin="round"/><path d="M240.09,426.86a1.09,1.09,0,0,1-.35-2.12c1.27-.43,2.63-.92,4-1.48a1.09,1.09,0,1,1,.8,2c-1.46.57-2.86,1.08-4.15,1.51A1.12,1.12,0,0,1,240.09,426.86Z" fill="#a7a9ac"/><path d="M335.09,311.57a1.11,1.11,0,0,1-.49-.12,1.09,1.09,0,0,1-.48-1.46c1.2-2.4,1.84-3.87,1.85-3.88a1.08,1.08,0,0,1,1.43-.57A1.09,1.09,0,0,1,338,307c0,.06-.67,1.53-1.9,4A1.1,1.1,0,0,1,335.09,311.57Z" fill="#a7a9ac"/><path d="M249.15,423.28a1.09,1.09,0,0,1-.45-2.08c2.57-1.15,5.15-2.42,7.67-3.77a1.1,1.1,0,0,1,1.48.45,1.09,1.09,0,0,1-.45,1.47c-2.56,1.38-5.19,2.67-7.81,3.84A1.12,1.12,0,0,1,249.15,423.28Zm12.43-6.45a1.09,1.09,0,0,1-.56-2c2.47-1.46,4.89-3,7.18-4.62a1.09,1.09,0,0,1,1.25,1.79c-2.34,1.63-4.8,3.21-7.32,4.71A1.08,1.08,0,0,1,261.58,416.83ZM273.17,409a1.09,1.09,0,0,1-.67-2c2.28-1.77,4.48-3.62,6.51-5.49a1.09,1.09,0,1,1,1.48,1.6c-2.08,1.92-4.32,3.81-6.66,5.62A1.09,1.09,0,0,1,273.17,409Zm10.44-9.31a1.09,1.09,0,0,1-.79-1.85,80.32,80.32,0,0,0,5.58-6.4,1.09,1.09,0,0,1,1.72,1.34,81,81,0,0,1-5.73,6.58A1.08,1.08,0,0,1,283.61,399.66Zm8.81-10.85a1.14,1.14,0,0,1-.61-.18,1.09,1.09,0,0,1-.3-1.51,68.21,68.21,0,0,0,4.27-7.32,1.09,1.09,0,0,1,2,1,70.63,70.63,0,0,1-4.4,7.56A1.1,1.1,0,0,1,292.42,388.81Zm6.52-12.35a1,1,0,0,1-.4-.08,1.08,1.08,0,0,1-.61-1.41,58.3,58.3,0,0,0,2.53-8.06,1.1,1.1,0,0,1,1.31-.81,1.08,1.08,0,0,1,.81,1.31,59.9,59.9,0,0,1-2.62,8.36A1.09,1.09,0,0,1,298.94,376.46ZM270.52,367h0a39.3,39.3,0,0,1-8.72-1.43,1.09,1.09,0,0,1,.58-2.1,37.49,37.49,0,0,0,8.25,1.35,1.09,1.09,0,0,1-.06,2.18Zm5.37-.12a1.09,1.09,0,0,1-.1-2.18A38.93,38.93,0,0,0,284,363a1.09,1.09,0,0,1,.66,2.08,40.67,40.67,0,0,1-8.63,1.79Zm-18.83-3.28a1.12,1.12,0,0,1-.53-.13,21,21,0,0,1-6.8-5.9A1.1,1.1,0,0,1,250,356a1.08,1.08,0,0,1,1.52.22,18.78,18.78,0,0,0,6.11,5.29A1.09,1.09,0,0,1,258,363,1.06,1.06,0,0,1,257.06,363.58Zm32.26-.41a1.09,1.09,0,0,1-.46-2.09,53.24,53.24,0,0,0,7.38-4.1,1.09,1.09,0,0,1,1.2,1.82,57.08,57.08,0,0,1-7.67,4.27A1,1,0,0,1,289.32,363.17Zm13.19-.2h-.15a1.1,1.1,0,0,1-.93-1.23,57.84,57.84,0,0,0,.53-6.19l-.08.06a1.09,1.09,0,1,1-1.34-1.72,80.25,80.25,0,0,0,6.4-5.58,1.09,1.09,0,1,1,1.52,1.57q-2.13,2-4.28,3.86a61.77,61.77,0,0,1-.59,8.3A1.1,1.1,0,0,1,302.51,363ZM248,353.3a1.09,1.09,0,0,1-1-.68,26.66,26.66,0,0,1-1.88-8.74,1.09,1.09,0,1,1,2.18-.11,24.82,24.82,0,0,0,1.72,8,1.09,1.09,0,0,1-.6,1.42A1.19,1.19,0,0,1,248,353.3ZM302.83,349a1.09,1.09,0,0,1-1.08-1c-.18-1.95-.45-4-.81-5.95-.15-.83-.31-1.63-.48-2.41a1.09,1.09,0,1,1,2.12-.48c.19.81.35,1.65.51,2.5.37,2.06.65,4.13.83,6.15a1.09,1.09,0,0,1-1,1.18Zm8.65-2.69a1.07,1.07,0,0,1-.75-.29,1.09,1.09,0,0,1-.05-1.54c1.87-2,3.74-4.18,5.58-6.47a1.09,1.09,0,0,1,1.7,1.37c-1.87,2.33-3.78,4.54-5.69,6.59A1.06,1.06,0,0,1,311.48,346.32Zm-65.11-6.78h-.13a1.08,1.08,0,0,1-1-1.21,35.53,35.53,0,0,1,2.14-8.6,1.09,1.09,0,0,1,1.41-.63,1.1,1.1,0,0,1,.63,1.41,33.7,33.7,0,0,0-2,8.08A1.1,1.1,0,0,1,246.37,339.54Zm74-4a1.08,1.08,0,0,1-.87-1.73c1.65-2.24,3.29-4.61,4.89-7a1.09,1.09,0,1,1,1.82,1.2c-1.62,2.46-3.28,4.86-5,7.13A1.08,1.08,0,0,1,320.39,335.52Zm-20.29-.21a1.09,1.09,0,0,1-1-.75,40.57,40.57,0,0,0-3.39-7.65,1.09,1.09,0,0,1,1.88-1.1,42.53,42.53,0,0,1,3.58,8.07,1.09,1.09,0,0,1-.7,1.38A1.27,1.27,0,0,1,300.1,335.31Zm-49.34-9a1,1,0,0,1-.54-.15,1.09,1.09,0,0,1-.41-1.49,32.58,32.58,0,0,1,5.43-7,1.09,1.09,0,0,1,1.54,0,1.1,1.1,0,0,1,0,1.55,29.91,29.91,0,0,0-5.06,6.56A1.08,1.08,0,0,1,250.76,326.34Zm77.44-2.45a1.17,1.17,0,0,1-.57-.16,1.09,1.09,0,0,1-.36-1.5c1.48-2.43,2.92-4.93,4.28-7.43a1.09,1.09,0,0,1,1.92,1c-1.38,2.54-2.84,5.07-4.34,7.52A1.09,1.09,0,0,1,328.2,323.89Zm-34.66-.84a1.09,1.09,0,0,1-.83-.39,26,26,0,0,0-6.19-5.43,1.09,1.09,0,0,1,1.15-1.85,28.08,28.08,0,0,1,6.71,5.88,1.1,1.1,0,0,1-.84,1.79Zm-33.25-6.73a1.08,1.08,0,0,1-1-.58,1.1,1.1,0,0,1,.45-1.48,27.1,27.1,0,0,1,8.53-2.7,1.09,1.09,0,1,1,.32,2.16,24.64,24.64,0,0,0-7.83,2.47A1,1,0,0,1,260.29,316.32Zm22-1.28a1.26,1.26,0,0,1-.38-.06,26.28,26.28,0,0,0-8.09-1.55,1.09,1.09,0,0,1,.08-2.18,28.25,28.25,0,0,1,8.76,1.68,1.09,1.09,0,0,1-.37,2.11Z" fill="#a7a9ac"/><rect x="317.97" y="259.83" width="62.78" height="42.32" transform="translate(-12.85 16.77) rotate(-2.7)" fill="#ccc"/><path d="M379.94,258.88a4.4,4.4,0,0,1-.56.58l-1.68,1.62-6.22,5.86-20.77,19.21-.17.15-.19-.13-.45-.33L326.72,269l-7-5.17-1.88-1.43a3.54,3.54,0,0,1-.63-.53,6.33,6.33,0,0,1,.7.44l1.95,1.33,7.09,5,23.26,16.74.46.33h-.36l20.87-19.08,6.35-5.72,1.75-1.51A3.81,3.81,0,0,1,379.94,258.88Z" opacity="0.2"/><path d="M319.22,304.1c-.12-.1,4.32-6.11,9.93-13.44s10.24-13.18,10.36-13.09-4.31,6.12-9.91,13.44S319.35,304.19,319.22,304.1Z" opacity="0.2"/><path d="M360.34,276.06c.12-.1,5.05,5.43,11,12.36s10.7,12.62,10.56,12.73-5.05-5.43-11-12.36S360.22,276.17,360.34,276.06Z" opacity="0.2"/><ellipse cx="136.27" cy="300.78" rx="25.94" ry="34.14" fill="#f9b499"/><path d="M151.26,270.8a49,49,0,0,1-29.83,0s-5.22-.3-7.28,2.33,0,10.72.54,14-4.53,5.58-3.85,13.92l-.68,3.15s-5.63-14.32-4.26-25.87S113.46,263,113.46,263s3.33-10,22.8-9.9c21,.08,23.1,11.44,23.1,11.44s13.08,9.82,2.53,40.79l-1.09-4.22a17.4,17.4,0,0,0-2.66-11.73c-1.83-2.67,1.09-10.72.41-14.84S151.26,270.8,151.26,270.8Z" fill="#2f2e41"/><path d="M150.41,274.49a39.4,39.4,0,0,0,4.53,12.05c3.27,5.22,7.13,5.75,8.23,12.12,0,0,10.05-16.94,1.55-31.81,0,0-2.67-16.88-28.88-16.88s-38.34,18.26-28.16,46.3a15.17,15.17,0,0,0,9-12.34A15,15,0,0,1,114,294.76s13.49-2,17-13.25c0,0-1.36,7.48-5.86,10.65,0,0,5.09,6.43,10.9-3.62S145.38,272.47,150.41,274.49Z" fill="#2f2e41"/><path d="M743.48,462.2c-5.78-3.1-17.19-8.69-22.1-2.49,5.64,5.6,15.19,6,22.14,2.49" fill="#d1d3d4"/><path d="M743.1,461.78c-6.64-5.39-17.2-13.19-14.81-22.79,7.51,5.84,13.36,13.41,14.81,22.79" fill="#d1d3d4"/><path d="M743.4,462.13c-1.3-7.93-.4-17.54,6.74-22.49,2.51,8-2.54,16.68-6.69,23.37" fill="#d1d3d4"/><path d="M750.74,475.33c-8.78,1.32-16.4,8.7-18.33,17.35,9.35-.8,12.73-11.17,18.24-17.28" fill="#d1d3d4"/><path d="M752.33,477.38a28.78,28.78,0,0,1,3.31-27.19c2.55,9,1.61,19.22-3.31,27.19" fill="#d1d3d4"/><path d="M762,488.92c-24.83.91-28.22,29.85.09,0" fill="#d1d3d4"/><path d="M761.72,488.3c-7.67-35.07,17.64-36.84.06-.2" fill="#d1d3d4"/><path d="M788,491.14c-1.74-7.27-.11-18.05,6-22.78,3.37,5.83-2.47,17.27-6,22.78" fill="#d1d3d4"/><path d="M790.3,492.72a31.93,31.93,0,0,0,26.17-5.37c-8.5-4.36-20.2-2.19-26.17,5.33" fill="#d1d3d4"/><path d="M792.24,487.9c4.93-8,14.36-13.25,23.76-13.73-3,10.64-15.86,9.86-23.76,13.78" fill="#d1d3d4"/><path d="M788.47,464.54c2.74-8.89,5.25-19.15.26-27.71-4.59,8.89-5.05,19.31-.39,28.15" fill="#d1d3d4"/><path d="M804,456.72c5.36-9.76,16.34-17.57,27.43-18.66-4.29,10.65-16,18.9-27.43,18.66" fill="#d1d3d4"/><path d="M800.56,458.64c8,1.21,14.85,6.34,22.34,9.44,18.23,4.71,7.93-17-21.65-9.68" fill="#d1d3d4"/><path d="M795.92,464.26c31.39,24,28.71,3.1,0-.34" fill="#d1d3d4"/><path d="M790.74,430.36c6.79,6.09,16.62,9.95,25.65,8-2-7.41-18.79-10.31-25.69-8" fill="#d1d3d4"/><path d="M796.9,428A34.27,34.27,0,0,1,827.56,423c-8.11,7.78-20.44,7.69-30.71,5.08" fill="#d1d3d4"/><path d="M794.43,412.43c-.71-7.21-.25-12.88-.75-20.15-3.51-7.36-5.08,15.1.74,20" fill="#d1d3d4"/><path d="M794,413.19c7.29-5.19,16-13.05,15.75-22.66-11.48.55-12.89,14.11-15.72,22.67" fill="#d1d3d4"/><path d="M805.64,410A96.27,96.27,0,0,0,835,392.63c-11.93-3-24.11,7.27-29.55,17.25" fill="#d1d3d4"/><path d="M797.18,417.17c11.09,1.69,23-.07,32.64-5.77-7.16-7.7-24.56,1.37-32.64,5.77" fill="#d1d3d4"/><path d="M766.22,430.55c-3.7-7.51-3.46-16.19-.27-23.9,4.72,7.34.75,16.32.42,24.27" fill="#d1d3d4"/><path d="M751.42,423.09a33.25,33.25,0,0,0-24.76,10.55c9.61,1.36,18-4.6,25.18-10.29" fill="#d1d3d4"/><path d="M741.49,419.77c-8.76-1.37-19.35-.1-23.31,9,8.73.87,16.48-4.12,23.31-8.95" fill="#d1d3d4"/><path d="M756.21,419.92c-7.36-5.32-18.94-10.7-26.51-3.22,8.12,4.6,18.38.88,27,3.95" fill="#d1d3d4"/><path d="M756.23,420.13c-7-6.83-9.59-19.1-6.79-28.43a43.3,43.3,0,0,1,6.79,28.43" fill="#d1d3d4"/><path d="M775.36,400.77c3.46-8.54,5.73-21.28,16.86-22.39a34.72,34.72,0,0,1-16.73,22.53" fill="#d1d3d4"/><path d="M771.9,404.81c-3.94-6.09-9.79-13.85-18-12a24.15,24.15,0,0,0,18,12" fill="#d1d3d4"/><path d="M772.59,401c-2.9-7-5.67-15.31-1.69-22.41,3.82,7.22,5,15,1.89,22.53" fill="#d1d3d4"/><path d="M775.39,378.62c12.79-26.09,38.59-13.74,0,0" fill="#d1d3d4"/><path d="M775.47,372.77c.35-8.81,1.78-19.86,10.64-24,1.37,9.83-7.9,16.9-10.77,25.56" fill="#d1d3d4"/><path d="M775.36,375.94c-2.18-11.66-4.45-16.66-12.61-25.08-3.66,10.57,6.69,18,12.67,25.08" fill="#d1d3d4"/><path d="M774.79,530.47c-.32,4.36-.36-159.74,0-155.37C775.07,370.82,775.11,534.73,774.79,530.47Z" fill="#bcbec0"/><path d="M805.15,426.28c-8.42,4-26.65,6.44-30.43,15.91C777.52,432.47,797.08,429.18,805.15,426.28Z" fill="#bcbec0"/><path d="M815.14,401.81c-11.68,11.15-28.26,24.49-38,36.17C787.4,424.6,803.13,412.28,815.14,401.81Z" fill="#bcbec0"/><path d="M789.79,424.28c-.08.31,4.23-12.26,4-12A28.21,28.21,0,0,1,789.79,424.28Z" fill="#bcbec0"/><path d="M774.82,445.34c-6-7.67-14.15-17.74-20.13-25.44A207.34,207.34,0,0,1,774.82,445.34Z" fill="#bcbec0"/><path d="M768.15,436.78a14.73,14.73,0,0,1-3.43-10.5H765c-.22.82-.26.8-.22,0H765A25.17,25.17,0,0,0,768.15,436.78Z" fill="#bcbec0"/><path d="M759.55,426c-4.39-3.16-10.2-1.11-15-.14C748.88,424.05,755.94,422,759.55,426Z" fill="#bcbec0"/><path d="M757.51,423.33c-5.52-2.68-15.25-3.45-21.14-1.6A25.08,25.08,0,0,1,757.51,423.33Z" fill="#bcbec0"/><path d="M774.75,412.24A102.65,102.65,0,0,1,770.91,397,103.9,103.9,0,0,1,774.75,412.24Z" fill="#bcbec0"/><path d="M774.89,412.24a19.77,19.77,0,0,0-6-8.2C772.13,405.37,774.37,408.86,774.89,412.24Z" fill="#bcbec0"/><path d="M774.79,511.93c-4.1-20.29-26.16-31.37-31.87-50.76C749.22,479.82,772.11,492.57,774.79,511.93Z" fill="#bcbec0"/><path d="M802.25,480.91c-11.59,6.78-21.11,20.37-27.42,31.12C781.06,500,790.17,487.33,802.25,480.91Z" fill="#bcbec0"/><path d="M802.79,491c-6.43.67-14.67,2.28-18.92,7.31C788,492.39,796,490.94,802.79,491Z" fill="#bcbec0"/><path d="M784.7,497.16c-.16-.08,1.21-2.14,2.28-5s1.23-5.36,1.4-5.3A15.4,15.4,0,0,1,784.7,497.16Z" fill="#bcbec0"/><path d="M811.15,453.87a66.55,66.55,0,0,0-36.4,37.6A60.82,60.82,0,0,1,811.15,453.87Z" fill="#bcbec0"/><path d="M789.41,468.45c2.14-4.94,9.17-4.09,13-1.7C798.1,465.27,792.45,464,789.41,468.45Z" fill="#bcbec0"/><path d="M786.16,471.8a12.86,12.86,0,0,0,1.07-9.09C788.83,465.28,788.13,469.79,786.16,471.8Z" fill="#bcbec0"/><path d="M795,537.44c.92.33-40.32.33-39.41,0C754.7,537.12,796,537.13,795,537.44Z" fill="#fafafa"/><path d="M750.76,513.85c.75,13.3,4.76,26.83,10.91,40.47H788.5c5.88-13.53,9.6-27,10.27-40.47Z" fill="#bcbec0"/></svg>