<svg id="b0255dac-4982-47f3-ba35-cf7dc23fe5a5" data-name="Layer 1" xmlns="http://www.w3.org/2000/svg" width="865.76" height="682.89" viewBox="0 0 865.76 682.89"><path d="M856.09,584.22c0,82.45-189.47,77.46-423.21,77.46s-423.21,8-423.21-77.46c0-.78,0-1.56,0-2.32,0-.14,0-.27,0-.38,0-.69.06-1.38.1-2.06.06-.93.14-1.85.23-2.77.08-.73.16-1.44.26-2.14s.18-1.22.28-1.81c0-.09,0-.17,0-.27.15-.87.32-1.72.5-2.56l.24-1c.08-.35.15-.7.25-1.05q.29-1.15.63-2.28c0-.06,0-.11.05-.17.14-.45.29-.91.43-1.33s.19-.59.31-.87c.18-.56.38-1.1.59-1.64s.47-1.2.72-1.8c.37-.84.75-1.68,1.16-2.51.27-.57.56-1.12.87-1.68.14-.28.3-.57.47-.85s.24-.43.37-.65.33-.59.5-.87c.29-.48.59-1,.89-1.42l.71-1.07a1.59,1.59,0,0,1,.15-.21c.49-.71,1-1.43,1.53-2.12.38-.51.78-1,1.17-1.49.6-.72,1.19-1.41,1.82-2.11.37-.41.76-.82,1.15-1.24s.87-.92,1.33-1.36l.06,0c.4-.39.81-.79,1.23-1.17a1.75,1.75,0,0,0,.2-.19c.54-.49,1.1-1,1.68-1.49s1.38-1.17,2.1-1.74c.29-.24.6-.48.9-.7s.6-.48.91-.7h0c.62-.46,1.25-.92,1.9-1.37s1.31-.9,2-1.36c.11-.08.23-.14.35-.22.53-.35,1.09-.7,1.64-1s1.14-.7,1.73-1.05a1.8,1.8,0,0,0,.37-.22c.7-.4,1.42-.79,2.15-1.19l.25-.14c.64-.35,1.3-.7,2-1l2.28-1.14-.48,0s-22.48-16.48-16.3-57.39c3.12-20.81,14.14-33.23,26.41-45.66C67,415,76.8,405.74,84.6,393a92.86,92.86,0,0,0,6.31-12.32c10.15-24.17-3.86-57.8-4.38-99.7a159.6,159.6,0,0,1,18-77.13,214.09,214.09,0,0,1,28.29-41.51c44.95-52.6,160-139.71,312.45-141.31,92.15-1,177.7,37.45,238.56,88.18,25.34,21.12,46.41,44.39,61.87,67.81a213.08,213.08,0,0,1,17,30.73c1.4,3.12,2.67,6.21,3.83,9.3a179.38,179.38,0,0,1,9.81,37.32,148.52,148.52,0,0,1-.62,47.25c-6.85,39.66-27,65.78-22,84.89.25,1,.51,1.89.8,2.75,3.55,11.22,8.68,13.56,15,15.43,8.33,2.47,18.66,4.14,30.07,24.33,20.72,36.65,6.61,61.09,6.61,61.09s37.24,3.11,47.64,68.67c.53,3.39,1,6.94,1.39,10.68.12,1,.21,2.09.3,3.16.19,2,.34,4.09.47,6.21l-.27,0,.12.84c0,.06,0,.14,0,.22s0,.38.06.57a4.77,4.77,0,0,1,.06.76.22.22,0,0,1,0,.08c0,.41.07.82.08,1.23S856.09,583.66,856.09,584.22Z" fill="#cce9f7"/><path d="M853.81,558.78l-826-17.86a1.75,1.75,0,0,0,.2-.19c.54-.49,1.1-1,1.68-1.49s1.38-1.17,2.1-1.74c.29-.24.6-.48.9-.7s.6-.48.91-.7h0c.62-.46,1.25-.92,1.9-1.37s1.31-.9,2-1.36c.11-.08.23-.14.35-.22.53-.35,1.09-.7,1.64-1s1.14-.7,1.73-1.05a1.8,1.8,0,0,0,.37-.22c.7-.4,1.42-.79,2.15-1.19l.25-.14c.64-.35,1.3-.7,2-1l2.28-1.14-.48,0s-22.48-16.48-16.3-57.39C36.89,433.61,66.33,422.84,84.6,393a92.86,92.86,0,0,0,6.31-12.32c10.15-24.17-3.86-57.8-4.38-99.7,135.69-86.84,221.49,47.23,223.3,72.36,9.32-15.72,28.89-11.23,39.13-5.62C381.1,236,503.62,291,503.16,318c9.78-25.27,62.42-16.28,66.6,10.68,46.92-93.78,161.13-116.41,192.92-120.89a181.25,181.25,0,0,1,13.64,46.62,148.84,148.84,0,0,1-.62,47.25c-6.85,39.66-27,65.78-22,84.89.25,1,.51,1.89.8,2.75,3.55,11.22,8.68,13.56,15,15.43,8.33,2.47,18.66,4.14,30.07,24.33,20.72,36.65,6.61,61.09,6.61,61.09S843.41,493.22,853.81,558.78Z" fill="#89c592"/><path d="M856,580.78l-3.08-11.39L27.76,540.92a1.75,1.75,0,0,0,.2-.19c.54-.49,1.1-1,1.68-1.48s1.38-1.18,2.1-1.75c.29-.24.6-.47.9-.7s.6-.47.91-.69l0,0c.62-.46,1.25-.92,1.9-1.36s1.31-.9,2-1.36l.35-.23c.53-.35,1.09-.69,1.64-1s1.14-.69,1.73-1a3.6,3.6,0,0,0,.37-.22c.7-.4,1.42-.8,2.15-1.19l.25-.15c.64-.34,1.3-.69,2-1l2.28-1.14c-.32,0-.48,0-.48,0s-22.48-16.48-16.3-57.38C36.89,433.62,66.33,422.84,84.6,393c63,11.35,108.62,68.83,107.14,90.06,20-35.94,86.64-19.09,89-.57,72.21-84.23,168.17-6.73,165.37,16.85,16.1-16.26,57.41-10,69.61,7.86a20,20,0,0,1,2.13,3.93,17.28,17.28,0,0,1,.66-3.91c4.59-15.71,30.79-21.64,33.81-4,12.11-38.75,77.79-47.73,89.44-32,0-56.26,68.53-75.45,112.79-82,8.23,26,25,4.28,45,39.76,20.72,36.66,6.61,61.1,6.61,61.1S854.89,492.12,856,580.78Z" fill="#7abb81"/><path d="M856.09,584.22c0,82.46-189.47,77.47-423.21,77.47S9.67,669.64,9.67,584.22c0-.77,0-1.55,0-2.31,0-.14,0-.27,0-.38,0-.7.06-1.38.1-2.06.06-.94.14-1.86.23-2.78.08-.73.16-1.44.27-2.14s.17-1.22.27-1.8c0-.1,0-.18,0-.27.15-.87.32-1.73.5-2.57l.24-1c.08-.34.15-.69.25-1q.29-1.17.63-2.28c0-.07,0-.11.05-.18l.43-1.33c.1-.3.19-.59.31-.87.18-.56.38-1.09.59-1.63s.47-1.21.72-1.81c.37-.84.75-1.68,1.16-2.5q.4-.86.87-1.68c.14-.29.3-.57.46-.86s.25-.44.38-.65.33-.59.5-.87c.29-.48.59-.95.89-1.41l.71-1.08c.05-.06.09-.14.15-.2q.75-1.08,1.53-2.13c.38-.51.78-1,1.17-1.49.6-.71,1.19-1.41,1.82-2.11.37-.41.76-.82,1.15-1.23s.87-.92,1.33-1.36l.06,0c.4-.4.81-.79,1.23-1.18a1.75,1.75,0,0,0,.2-.19c.54-.49,1.1-1,1.68-1.48s1.38-1.18,2.1-1.75c.29-.24.6-.47.9-.7s.6-.47.91-.69l0,0c.62-.46,1.25-.92,1.9-1.36s1.31-.9,2-1.36l.35-.23c.53-.35,1.09-.69,1.64-1s1.14-.69,1.73-1a3.6,3.6,0,0,0,.37-.22c.7-.4,1.42-.8,2.15-1.19l.25-.15c.64-.34,1.3-.69,2-1l2.28-1.14c67-32.41,214-20.57,384.68-20.57,28.34,0,56,.11,82.82.43l2.79,0c176.06,2.17,312.22,13.47,334.41,62.17a28.67,28.67,0,0,1,1.29,3.21,32.67,32.67,0,0,1,1.51,6.28l.12.84c0,.06,0,.14,0,.22s0,.38.06.57a4.77,4.77,0,0,1,.06.76.25.25,0,0,1,0,.08c0,.42.07.83.08,1.24S856.09,583.67,856.09,584.22Z" fill="#ffddae"/><path d="M526.23,247.58H412.87a9.35,9.35,0,0,1,1.81-4.84c6.18-8.94,26.36-13.28,29.24-5.27,1.12-9.72,21.33-13.84,26.57-7.1,15.71-29.19,47.13-7.49,40.78,10.09,4.82-1.32,8.16-.52,10.43.95A11.28,11.28,0,0,1,526.23,247.58Z" fill="#fff"/><path d="M526.23,247.58H412.87a9.35,9.35,0,0,1,1.81-4.84c19.52,1.76,82.6,6.66,107-1.33A11.28,11.28,0,0,1,526.23,247.58Z" fill="#c0e7f2"/><path d="M375.55,171.58H209.06a8,8,0,0,1,1.74-4.26c4.28-5.78,15.3-10.14,19.22-6.21.37-12.35,16.56-43.33,43.77-46,30.3-3,49.38,19.83,46.76,38.53a12.92,12.92,0,0,1,22.83,3c9.63-4.75,16.55-3.86,21.44-.9C373.05,160.71,375.55,171.58,375.55,171.58Z" fill="#fff"/><path d="M375.55,171.58H209.06a8,8,0,0,1,1.74-4.26c32.73,1.78,116,4.42,154-11.6C373.05,160.71,375.55,171.58,375.55,171.58Z" fill="#c0e7f2"/><path d="M691.81,152.66H545.16a11.43,11.43,0,0,1,1.67-4.44c5.62-8.85,22.73-11.26,28.26-3.79-1.5-21,14.21-41.52,40.4-43.77s50.88,23.2,45.64,44.89c11.54-6.06,19.4-3.85,24.26-.35A21.09,21.09,0,0,1,691.81,152.66Z" fill="#fff"/><path d="M691.81,152.66H545.16a11.43,11.43,0,0,1,1.67-4.44c23.85,1.75,107.85,7,138.56-3A21.09,21.09,0,0,1,691.81,152.66Z" fill="#c0e7f2"/><path d="M570,600.12a1.22,1.22,0,0,1-1.22-1.22V229.41a1.22,1.22,0,0,1,2.44,0V598.9A1.22,1.22,0,0,1,570,600.12Z" fill="#86bc8d"/><path d="M360.69,359l34.18-15.8s18-14.5,29.86-9.86c0,0,25.75,3.6,32.44,6.18l-45.82,31.41s-9.31-2.89-21.63,7.21l-12.8,9.22Z" fill="#fea054"/><path d="M414.18,365s-3-36,22.86-25.63C437,339.35,418.41,356.44,414.18,365Z" fill="#fe7142"/><path d="M406.8,404.28s-15-24.77,18.61-49.32c0,0,31.26-31.66,47.26-3.4Z" fill="#98270c"/><path d="M308.25,288.92s10.75,10.4,16.44,17.41c0,0,1.2-21.16,15.95-29.82,0,0-9.07.16-16.16-9.23C324.48,267.28,325.57,279.29,308.25,288.92Z" fill="#fea054"/><g id="fc31f79f-30c2-4794-a625-7d74fbb6710b" data-name="GROUND"><path d="M420.06,601.69v-.38a18.77,18.77,0,0,1,18.65-18.89,18.38,18.38,0,0,1,10.5,3.28c.78-16.28,12.84-29.21,27.63-29.21a25.63,25.63,0,0,1,15.41,5.23c2.61-17.9,18.82-31.67,38.42-31.67,21.42,0,38.8,16.47,38.8,36.78a35.23,35.23,0,0,1-.33,4.81,23.51,23.51,0,0,1,3.93-.33c10.1,0,18.85,6.48,23.07,15.93l-.49.13H615c2.35-14.83,14-26.1,27.92-26.1,12.57,0,23.23,9.13,27,21.78A26,26,0,0,1,683,579.48a26.66,26.66,0,0,1,18.73,7.89,32.07,32.07,0,0,1,7.84,12.69v1.65Z" fill="#ffb36f"/></g><path d="M570,357.77a1.22,1.22,0,0,1-1.22-1.22V340.14a75.42,75.42,0,0,1,5.65-28.71l40.42-98.64a1.22,1.22,0,0,1,2.26.93l-40.42,98.63a73,73,0,0,0-5.47,27.79v16.41A1.22,1.22,0,0,1,570,357.77Z" fill="#86bc8d"/><path d="M597.22,260.13a1.22,1.22,0,0,1-.53-2.32l28.51-13.64a1.22,1.22,0,0,1,1,2.2L597.74,260A1.17,1.17,0,0,1,597.22,260.13Z" fill="#86bc8d"/><path d="M570.32,329.31a1.22,1.22,0,0,1-1.22-1.22v-17a40.74,40.74,0,0,0-3.76-17L550.52,262.1a1.22,1.22,0,0,1,2.21-1L567.55,293a43.19,43.19,0,0,1,4,18.07v17A1.22,1.22,0,0,1,570.32,329.31Z" fill="#86bc8d"/><path d="M569.85,457.79a1.22,1.22,0,0,1-1.21-1.22v-25.2a83.53,83.53,0,0,0-8.13-35.83l-49.38-103.3a1.22,1.22,0,1,1,2.2-1.05l49.38,103.3a86.07,86.07,0,0,1,8.36,36.88v25.2A1.22,1.22,0,0,1,569.85,457.79Z" fill="#86bc8d"/><path d="M570.16,516.16a1.22,1.22,0,0,1-1.22-1.22V491.57a73.1,73.1,0,0,1,11.74-39.78l76.69-119.32a1.22,1.22,0,0,1,2,1.32L582.73,453.11a70.65,70.65,0,0,0-11.35,38.46v23.37A1.22,1.22,0,0,1,570.16,516.16Z" fill="#86bc8d"/><path d="M611,225.34s-8.71-30.18,24.14-42.38C635.13,183,643.66,212.75,611,225.34Z" fill="#24967b"/><path d="M518.94,338.84s-22.35.82-28.65-23.16C490.29,315.68,514.07,312.84,518.94,338.84Z" fill="#24967b"/><path d="M644.33,366.79s12.27-20.11,43.91-12.45C688.24,354.34,673.07,377.4,644.33,366.79Z" fill="#24967b"/><path d="M565.44,289s-17.3,14.18-34.68-6.26C530.76,282.74,552.92,272.92,565.44,289Z" fill="#24967b"/><path d="M521.06,308.85s-16.55-17.88-.29-45.59C520.77,263.28,540.68,281.35,521.06,308.85Z" fill="#24967b"/><path d="M607.83,413.56s9.91-24.47,48.81-21.79C656.64,391.77,642.82,418.9,607.83,413.56Z" fill="#24967b"/><path d="M582.73,222.94c0,8.2-5.54,14.85-12.36,14.85S558,231.14,558,222.94s12.36-41,12.36-41S582.73,214.73,582.73,222.94Z" fill="#37ac92"/><path d="M559.06,277.62s-28.62-8.17-19.45-42.67C539.61,235,567.16,251.73,559.06,277.62Z" fill="#37ac92"/><path d="M518.94,308s-23-10.23-21.82-42.33C497.12,265.7,523.2,274.5,518.94,308Z" fill="#37ac92"/><path d="M548.2,341.08s-15.24-17.27-3.46-40.84C544.74,300.24,560.59,320.35,548.2,341.08Z" fill="#37ac92"/><path d="M609.32,385.2s-16.81-31.73,11.26-53.79C620.6,331.41,634.26,361,609.32,385.2Z" fill="#37ac92"/><path d="M646.3,352.6s-3.43-35.13,24.46-46.38C670.76,306.23,678.44,335.9,646.3,352.6Z" fill="#37ac92"/><path d="M607.83,413.56s18.65-17.93,57-4.89C664.88,408.67,641.55,428.1,607.83,413.56Z" fill="#37ac92"/><path d="M615.41,250.2s5.87-22.39,33.77-16C649.18,234.21,640.55,255.86,615.41,250.2Z" fill="#37ac92"/><path d="M611.08,224.69s5.86-22.39,33.76-16C644.86,208.7,636.21,230.35,611.08,224.69Z" fill="#37ac92"/><circle cx="636.28" cy="587.81" r="4.6" opacity="0.2"/><circle cx="515.15" cy="558.67" r="6.29" opacity="0.2"/><ellipse cx="346.2" cy="233.93" rx="43.06" ry="28.71" transform="translate(48.67 527.28) rotate(-78.64)" fill="#fea054"/><path d="M316.28,241.33l10-14.92s1.67,2,11.38-1.57c0,0,26.93-13.94,35-15.23,0,0,7.17,17.2-1.29,40.16,0,0-9.06,26.3-30.76,26.74,0,0-13.53,6.26-15.95,29.82,0,0,16.49,22.32,26.44,36.88,0,0,24.76-9,22.58-37.87a24.5,24.5,0,0,1,4.85-18s12.14-13.83,3.89-37.62c0,0-5.59-10.2-3.64-30.1,0,0,1.21-24.52-25-35.68,0,0-38.1-17.48-65.53,19.66,0,0-15,26.7-26.22,35.68,0,0-24,20.63-22.09,41.51,0,0,.49,14.56-2.18,25.48,0,0-5.34,18,1.7,25.49l68.77-42.88s16.28-8.33,16.23-21.64c0,0,2.62-16.07-7.68-25.86"/><path d="M207.92,460.69s4.86-70.63,31.56-128.89c0,0,29.29-77.83,68.77-42.88,0,0,26.22,19.42,72.5,105.51l-49.84,41.1-1.3-2.27-14.88,36.57S247.25,466.76,207.92,460.69Z" fill="#686175" data-primary="true"/><polygon points="294.34 374.86 319.37 458.44 329.61 433.26 294.34 374.86" opacity="0.2"/><path d="M340.64,276.51a19.46,19.46,0,0,0-7.1,6.26s-6.82-4.28-9.06-15.49C324.48,267.28,330.26,276,340.64,276.51Z" fill="#fe7142"/><path d="M314.73,469.83c94,34,134.48,54,151.12,63.7a54.8,54.8,0,0,1,21.3,22.13c15.4,29.79-10.54,46.27-10.54,46.27H219c-2.86-12.66-.42-49.41-.42-49.41-43.68-40.42-5.3-91-5.3-91Z" fill="#f48225" data-secondary="true"/><g opacity="0.2"><polygon points="221.78 560.06 220.64 560.03 220.88 551.63 408.81 551.63 408.81 552.76 221.98 552.76 221.78 560.06"/></g><path d="M213.31,461.48s-7.62,11-10.41,19.6l111.83-11.25Z" opacity="0.2"/><path d="M217.64,580.76c-15.49,0-17.8,21.17-17.8,21.17H133.25c-10.87.1-12.91-4.86-12.91-4.86l28.88-13.93s54.49-28.19,69-24.12Z" fill="#686175" data-primary="true"/><path d="M120.34,597.07s-7.13-4.08-2.72-10.54c0,0,40.77-23.1,82.22-38,0,0,12.36-4.75,18.41,10.53,0,0-1.45-4-37.62,9.55Z"/><path d="M199.84,601.93H219a147.11,147.11,0,0,1-1.39-21.17S202.91,579.12,199.84,601.93Z" fill="#fea054"/><path d="M210.51,601.93l5.67-21.2,1.46,0s-.3,12.64,1.39,21.17Z" fill="#fe7142"/><path d="M335,432.17s28.36,48.83,83.58,60.57l31.13,9.4s14.46,3.1,19.65,9.29a37.1,37.1,0,0,0,4,4.17c4.84,4.28,14.77,11.8,24.74,11.8,0,0,26.09,3.28,23.18-4.81,0,0,20.39-1,11.65-9.06,0,0,7.12-1,6.15-5.18,0,0,.19-3.24-6.47-3.24,0,0,4-1.54,2.62-4.08a3.15,3.15,0,0,0-3.11-1.59c-6.82.68-35.5,2.78-40-8.89,0,0,27.23,4.2,28.84-6.48,0,0,2.92-4.53-17.47-5.82a155.21,155.21,0,0,1-46.61-10s-31.39-13.92-47.9-25.9c0,0-16.52-9.28-32.53-44.29Z" fill="#fea054"/><path d="M502.82,505.8s14.69,4.51,29.72-.69" fill="none" stroke="#fe7142" stroke-miterlimit="10"/><path d="M498,513.78s20.47,4.69,34.83-.25" fill="none" stroke="#fe7142" stroke-miterlimit="10"/><path d="M495.32,520s15.21,2.26,25.89,2.59" fill="none" stroke="#fe7142" stroke-miterlimit="10"/><path d="M335,432.17a145.52,145.52,0,0,0,9.9,13.7L376.37,398Z" fill="#fe7142"/><path d="M406.8,404.28l65.87-52.72L511.26,398l-30.12,26.49,46.12,11.29,18.35-6.59-9.41,29.21L524,448l-69.17-4.7-4.36,3.55a5.68,5.68,0,0,1-7.91-.72Z" fill="#98270c"/><path d="M415,397.71s-8.2-15.07,13.85-29.11c0,0,24.15-25.14,36.81-11.43Z" fill="#fff"/><polygon points="425.41 426.11 484.91 375.4 511.26 398.04 472.67 351.56 406.8 404.28 425.41 426.11" opacity="0.2"/><ellipse cx="319.37" cy="230.66" rx="10.84" ry="7.51" transform="translate(20.06 486.82) rotate(-76.4)" fill="#fea054"/><path d="M418.61,359.9s-5,1.78-3.23,4.43c0,0,11.32,16.83,16.83,7.12,0,0,6.79,1.83,8.41-4.27,0,0,6.47-1.67,5.5-7.28,0,0,5.7-4.31.1-12.08,0,0-16-19.58-18.87-4.61,0,0-8.41-1.54-6.79,7.85C420.56,351.06,413.44,351.92,418.61,359.9Z" fill="#fea054"/><line x1="418.61" y1="359.9" x2="432.21" y2="371.45" fill="none" stroke="#fe7142" stroke-miterlimit="10"/><line x1="440.62" y1="367.18" x2="420.56" y2="351.06" fill="none" stroke="#fe7142" stroke-miterlimit="10"/><line x1="446.12" y1="359.9" x2="427.35" y2="343.21" fill="none" stroke="#fe7142" stroke-miterlimit="10"/></svg>