<svg id="af9a8f40-89e8-4a88-8744-e1ee2d3bd859" data-name="Layer 1" xmlns="http://www.w3.org/2000/svg" xmlns:xlink="http://www.w3.org/1999/xlink" width="865.76" height="682.89" viewBox="0 0 865.76 682.89"><defs><clipPath id="b099b591-958c-480a-87c3-abdb1b32076f"><path id="aedb29e2-ff94-4127-8d8a-a4602764b51b" data-name="SVGID" d="M536.16,235l-77.09-32.49-10.55-12.38a24.31,24.31,0,0,0-9.6-6.84c-5.44-2.14-13.22-5-16.25-5-4.88,0,1.83,6.73,5.48,7.95q3.64,1.44,7.16,3.2a6.64,6.64,0,0,1,3.66,5.15h0A5.61,5.61,0,0,1,433.4,201h-7.63c-2.44,0-1.22,3.65-1.22,3.65l15.29,3.65s4.27,3.05,6.12,3.05,9.57,4.15,9.57,4.15L530.06,267a14.89,14.89,0,0,0,13.06,1.51l23.3-8.31,18.65-56.9Z" fill="#f9c7a5" stroke="#351d66" stroke-miterlimit="10"/></clipPath><clipPath id="a83201d0-2a51-4630-9352-ef17cd0c6ee3"><path id="b1c123c8-527b-4628-a732-3bea6cbdef16" data-name="SVGID" d="M585.07,203.3l-43.4,28.09a12.43,12.43,0,0,1-11.56,1L505.36,222l-7.65,22.24L530,267a14.87,14.87,0,0,0,13.06,1.52l23.36-8.28Z" fill="#f48225" data-secondary="true" stroke="#351d66" stroke-miterlimit="10"/></clipPath><clipPath id="fe7e132c-4b7e-4a8e-ac7e-7e9ee726f628"><path id="e5900aad-b38c-4bda-8c99-f5ca6d5be29f" data-name="SVGID" d="M569,311.24s-23.47,108.88-24.81,133S541.53,577.94,541.53,584v19.38l21.39,8s10-57.54,12-75.58,3.35-38.11,6-47.5,8-47.49,10-55.47,5.28-33.37,3.66-79.09S574.63,300,569,311.24Z" fill="#686175" data-primary="true" stroke="#351d66" stroke-miterlimit="10"/></clipPath><clipPath id="ec4c27b5-b419-4fa8-8d0a-e25719dc1744"><path id="fc154084-fe20-46fb-83f5-fb4be062e96e" data-name="SVGID" d="M595.34,213.94S584,233.06,584,245.32,579.65,295,579.65,295s-33.83,27.4-45.34,35.27A148,148,0,0,0,517,343.72h-.2l-19.65,5.48s-16.44,14.61-15.29,18.26,7.3-.6,7.3-.6,19.59-3.07,25.69-6.12a25.49,25.49,0,0,0,5.93-3.77,27.41,27.41,0,0,1,7.38-4.59c14.11-5.78,55.55-22.72,61.51-24.52q2.25-.76,4.46-1.63a23.43,23.43,0,0,0,14.46-17.08c3.39-16.43,9.49-45.9,12-57.55a92.78,92.78,0,0,0,.18-37.79" fill="#f9c7a5" stroke="#351d66" stroke-miterlimit="10"/></clipPath><clipPath id="b5ace0f6-d435-4211-bc98-6b9b8fd2de89"><path id="a9598ecc-78b1-4774-9ced-8eb90addc68b" data-name="SVGID" d="M620.84,214c2.83,13.93,3.14,22.48-.18,37.79-2.69,12.37-9.41,44.86-12.63,60.46a17.86,17.86,0,0,1-10.55,12.82c-2.55,1.09-5.14,2.09-7.77,3-2.08.64-8.56,3.14-16.69,6.38L553.13,316c8-6.25,16.22-12.83,21.36-16.94a15.92,15.92,0,0,0,5.89-10.73c1.23-11.3,3.58-34,3.58-43.05,0-8,4-20.66,6.83-28.52a19.51,19.51,0,0,1,13.42-12.55C610.08,202.77,616.93,203.84,620.84,214Z" fill="#f48225" data-secondary="true" stroke="#351d66" stroke-miterlimit="10"/></clipPath></defs><rect x="170.53" y="44.59" width="276.88" height="552.71" rx="12.39" fill="#aac8f9" stroke="#6259b0" stroke-miterlimit="10"/><rect x="186.5" y="114.88" width="244.41" height="417.46" fill="#d2e1f9"/><rect x="423.12" y="114.88" width="7.86" height="417.23" fill="#351d66"/><path id="e22eb991-3c37-4078-8481-8b08e80dee07" data-name="SVGID" d="M536.16,235l-77.09-32.49-10.55-12.38a24.31,24.31,0,0,0-9.6-6.84c-5.44-2.14-13.22-5-16.25-5-4.88,0,1.83,6.73,5.48,7.95q3.64,1.44,7.16,3.2a6.64,6.64,0,0,1,3.66,5.15h0A5.61,5.61,0,0,1,433.4,201h-7.63c-2.44,0-1.22,3.65-1.22,3.65l15.29,3.65s4.27,3.05,6.12,3.05,9.57,4.15,9.57,4.15L530.06,267a14.89,14.89,0,0,0,13.06,1.51l23.3-8.31,18.65-56.9Z" fill="#f9c7a5"/><g clip-path="url(#b099b591-958c-480a-87c3-abdb1b32076f)"><path d="M497.71,244.27l-6.55-4.58s11.4-4.27,4.27-22.08l9.93,4.42Z" fill="#f7a091"/></g><path id="bbf2c333-a314-4cc6-a7b3-44311567b06f" data-name="SVGID" d="M536.16,235l-77.09-32.49-10.55-12.38a24.31,24.31,0,0,0-9.6-6.84c-5.44-2.14-13.22-5-16.25-5-4.88,0,1.83,6.73,5.48,7.95q3.64,1.44,7.16,3.2a6.64,6.64,0,0,1,3.66,5.15h0A5.61,5.61,0,0,1,433.4,201h-7.63c-2.44,0-1.22,3.65-1.22,3.65l15.29,3.65s4.27,3.05,6.12,3.05,9.57,4.15,9.57,4.15L530.06,267a14.89,14.89,0,0,0,13.06,1.51l23.3-8.31,18.65-56.9Z" fill="none" stroke="#351d66" stroke-miterlimit="10"/><path id="b5ee7f52-519b-426f-bc70-28214e3563a8" data-name="SVGID" d="M585.07,203.3l-43.4,28.09a12.43,12.43,0,0,1-11.56,1L505.36,222l-7.65,22.24L530,267a14.87,14.87,0,0,0,13.06,1.52l23.36-8.28Z" fill="#f48225" data-secondary="true"/><g clip-path="url(#a83201d0-2a51-4630-9352-ef17cd0c6ee3)"><path d="M546.91,266.94l13.89-4.8,2.14-21.91a112.44,112.44,0,0,1,16-33.13l-23,15S562.94,244.5,546.91,266.94Z" opacity="0.2"/></g><path id="b9409bf5-5d1c-4ce8-b150-b9a504a17a45" data-name="SVGID" d="M585.07,203.3l-43.4,28.09a12.43,12.43,0,0,1-11.56,1L505.36,222l-7.65,22.24L530,267a14.87,14.87,0,0,0,13.06,1.52l23.36-8.28Z" fill="none" stroke="#351d66" stroke-miterlimit="10"/><path d="M626.43,610S605,626.07,599,629.4s-7.31,8.69-2,8.69,48.81,1.34,54.8-2.66-2.67-23.4-2.67-23.4S633.11,610,626.43,610Z" fill="#f48225" data-secondary="true" stroke="#351d66" stroke-miterlimit="10"/><path d="M651.82,635.43c1.72-1.14,2.21-3.53,2.08-6.34A262.16,262.16,0,0,1,595,632.74c-2.16,2.74-1.7,5.37,2,5.37C602.35,638,645.81,639.43,651.82,635.43Z" fill="#251860"/><path id="b1664331-dd00-4476-a0d1-18bf8cbcb22c" data-name="SVGID" d="M569,311.24s-23.47,108.88-24.81,133S541.53,577.94,541.53,584v19.38l21.39,8s10-57.54,12-75.58,3.35-38.11,6-47.5,8-47.49,10-55.47,5.28-33.37,3.66-79.09S574.63,300,569,311.24Z" fill="#686175" data-primary="true"/><g clip-path="url(#fe7e132c-4b7e-4a8e-ac7e-7e9ee726f628)"><polygon points="563.34 609.63 554.57 606.96 564.54 336.23 580.96 488.27 563.34 609.63" opacity="0.2"/></g><path id="e0d7f528-38dc-4add-941a-9043ea1855e4" data-name="SVGID" d="M569,311.24s-23.47,108.88-24.81,133S541.53,577.94,541.53,584v19.38l21.39,8s10-57.54,12-75.58,3.35-38.11,6-47.5,8-47.49,10-55.47,5.28-33.37,3.66-79.09S574.63,300,569,311.24Z" fill="none" stroke="#351d66" stroke-miterlimit="10"/><path d="M565,302.42s.79,36.09,1.59,71.38A572.07,572.07,0,0,0,578.3,476.27C585,508.37,611.05,578,613.72,589.4s12,23.3,12,23.3,14.62,1.34,23.4-.67c0,0-8.69-46.84-10-72.25s-17.39-61.5-20.73-70.19c-2.58-6.71,5.25-44.85,9-61.89a65.81,65.81,0,0,1,4.78-14.14c5.19-11,15.09-35,11.48-51.85a72.75,72.75,0,0,0-18.45-35.29S577,312.9,565,302.42Z" fill="#686175" data-primary="true" stroke="#351d66" stroke-miterlimit="10"/><path d="M620.4,183.48s-8-6-25.39,6.69-30.72,39.05-32.49,52.37c-1.83,14.06-2,50-2,58s-.64,13,9,16.18,54.8-1.28,61.13-4.49-4-14.07-2.7-28.77,11.45-41.3,10.78-62.11S623.05,186.15,620.4,183.48Z" fill="#f48225" data-secondary="true" stroke="#351d66" stroke-miterlimit="10"/><path d="M578.38,125.79A54.61,54.61,0,0,0,576.6,157a53.66,53.66,0,0,0,3.79,10.53c.16.34.32.67.47,1,2.73,5.32,12.15.79,14.16.13s-.66,19.38-.66,21.39,20.1-.68,22.73-.68,1.33-24,4-31.42,11.38-16.71.67-32.75S593,95.72,587,107.08c0,0-6.38,11.72-8.46,18.31Z" fill="#f9c7a5" stroke="#351d66" stroke-miterlimit="10"/><path d="M607.76,180s-17.33,6.23-20.09,10.39-4.86,11.11-.69,11.11,22.17-12.13,27-13.19S614,173.73,607.76,180Z" fill="#f48225" data-secondary="true" stroke="#351d66" stroke-miterlimit="10"/><path d="M587.65,107.28a60.35,60.35,0,0,0,10.7,24.78c8.68,11.37,17.37,8.7,15.37,18.05S597,172.83,603,187.56s19.38,17.37,22.05,23.38,8.69,8,2,32.09-16.72,43.46-8,66.18,31.42,28.75,48.8,20.73,6.69-33.42,10.69-48.8,38.78-27.4,26.74-70.2-40.18-54.14-47.49-68.85-6-39.43-21.39-49.46-32.77-1.34-38.78,0-9.35-8.7-21.39-4-17.59,27.79,3.8,32.47C580.08,121,583.85,112,587.65,107.28Z" fill="#686175" data-primary="true" stroke="#351d66" stroke-miterlimit="10"/><g opacity="0.2"><path d="M659.91,304.61a12.81,12.81,0,0,1-6.9-2.1c-8-5.07-13.12-18.27-12.61-32.84.37-10.78,6.11-20.36,12.18-30.5,6.67-11.14,13.57-22.67,13.57-36.54,0-23.38-13.29-40.1-41.84-52.63a45.49,45.49,0,0,1-14.92-10.28l.72-.7a44.5,44.5,0,0,0,14.6,10.07c29,12.71,42.44,29.72,42.44,53.54,0,14.15-7,25.79-13.71,37.06-6,10-11.68,19.5-12,30-.5,14.23,4.38,27.07,12.14,32a11.62,11.62,0,0,0,12.11.45c8.92-4.65,7.89-12,7.36-14.2-.8-3.27-3-5.94-4.79-5.94v-1c2.35,0,4.83,2.88,5.76,6.71.58,2.33,1.7,10.33-7.86,15.31A13.31,13.31,0,0,1,659.91,304.61Z"/></g><g opacity="0.2"><path d="M601.43,128a41.35,41.35,0,0,1-4-13.63l1-.11a40.15,40.15,0,0,0,3.86,13.3Z"/></g><g opacity="0.2"><path d="M661.48,304.21a10,10,0,0,1-6-2.12c-5-3.71-8.83-12.59-6.5-22.39,1.64-6.83,8.24-13,15.24-19.62,10.2-9.59,21.77-20.46,22.21-36.46.32-10.78-2.23-22.59-7.59-35.1l.92-.39c5.41,12.64,8,24.59,7.67,35.52-.46,16.42-12.18,27.44-22.53,37.16-6.88,6.47-13.38,12.58-14.94,19.13-2.23,9.37,1.39,17.83,6.12,21.35a8.32,8.32,0,0,0,9.58.75l.5.86A9.3,9.3,0,0,1,661.48,304.21Z"/></g><g opacity="0.2"><path d="M633.57,223.78l-1-.29a51,51,0,0,0-.78-31.69,156.92,156.92,0,0,0-7.5-16.43c-3.36-6.6-5.79-11.37-5.79-16.62h1c0,5,2.38,9.69,5.68,16.17a158,158,0,0,1,7.55,16.53A52,52,0,0,1,633.57,223.78Z"/></g><g opacity="0.2"><path d="M577.59,112.5c-5.16-.93-7.64-4.83-7.35-8,.25-2.84,2.56-4.68,5.87-4.68a14.34,14.34,0,0,1,12,7.23l-.86.5a13.33,13.33,0,0,0-11.13-6.73c-3.33,0-4.69,2-4.86,3.77-.24,2.75,2,6.12,6.53,7Z"/></g><path id="a8bf4b48-29c7-4c40-9fa4-549bddc0af5b" data-name="SVGID" d="M595.34,213.94S584,233.06,584,245.32,579.65,295,579.65,295s-33.83,27.4-45.34,35.27A148,148,0,0,0,517,343.72h-.2l-19.65,5.48s-16.44,14.61-15.29,18.26,7.3-.6,7.3-.6,19.59-3.07,25.69-6.12a25.49,25.49,0,0,0,5.93-3.77,27.41,27.41,0,0,1,7.38-4.59c14.11-5.78,55.55-22.72,61.51-24.52q2.25-.76,4.46-1.63a23.43,23.43,0,0,0,14.46-17.08c3.39-16.43,9.49-45.9,12-57.55a92.78,92.78,0,0,0,.18-37.79" fill="#f9c7a5"/><g clip-path="url(#ec4c27b5-b419-4fa8-8d0a-e25719dc1744)"><polygon points="553.13 316.04 542.63 324.12 566.68 336.94 573.02 334.44 553.13 316.04" fill="#f7a091"/></g><path id="a882e4fa-99fd-481e-8d86-f3bf41bd4165" data-name="SVGID" d="M595.34,213.94S584,233.06,584,245.32,579.65,295,579.65,295s-33.83,27.4-45.34,35.27A148,148,0,0,0,517,343.72h-.2l-19.65,5.48s-16.44,14.61-15.29,18.26,7.3-.6,7.3-.6,19.59-3.07,25.69-6.12a25.49,25.49,0,0,0,5.93-3.77,27.41,27.41,0,0,1,7.38-4.59c14.11-5.78,55.55-22.72,61.51-24.52q2.25-.76,4.46-1.63a23.43,23.43,0,0,0,14.46-17.08c3.39-16.43,9.49-45.9,12-57.55a92.78,92.78,0,0,0,.18-37.79" fill="none" stroke="#351d66" stroke-miterlimit="10"/><path id="e147cb3a-f00c-4a77-9aef-fd2a4dc01ca5" data-name="SVGID" d="M620.84,214c2.83,13.93,3.14,22.48-.18,37.79-2.69,12.37-9.41,44.86-12.63,60.46a17.86,17.86,0,0,1-10.55,12.82c-2.55,1.09-5.14,2.09-7.77,3-2.08.64-8.56,3.14-16.69,6.38L553.13,316c8-6.25,16.22-12.83,21.36-16.94a15.92,15.92,0,0,0,5.89-10.73c1.23-11.3,3.58-34,3.58-43.05,0-8,4-20.66,6.83-28.52a19.51,19.51,0,0,1,13.42-12.55C610.08,202.77,616.93,203.84,620.84,214Z" fill="#f48225" data-secondary="true"/><g clip-path="url(#b5ace0f6-d435-4211-bc98-6b9b8fd2de89)"><path d="M584,245.32s16.23-40.26,36.88-31.31c0,0-4.75-13.41-16.63-9.76,0,0-13.22.18-17.23,25.29C587,229.54,583.88,239.45,584,245.32Z" opacity="0.2"/></g><path id="bbf9e803-ed58-4738-9307-b709da7b57af" data-name="SVGID" d="M620.84,214c2.83,13.93,3.14,22.48-.18,37.79-2.69,12.37-9.41,44.86-12.63,60.46a17.86,17.86,0,0,1-10.55,12.82c-2.55,1.09-5.14,2.09-7.77,3-2.08.64-8.56,3.14-16.69,6.38L553.13,316c8-6.25,16.22-12.83,21.36-16.94a15.92,15.92,0,0,0,5.89-10.73c1.23-11.3,3.58-34,3.58-43.05,0-8,4-20.66,6.83-28.52a19.51,19.51,0,0,1,13.42-12.55C610.08,202.77,616.93,203.84,620.84,214Z" fill="none" stroke="#351d66" stroke-miterlimit="10"/><path d="M541.89,601.7s-28.07,9.38-34.7,11.37-12.7,3.34-6.69,10,35.44,7.31,44.11,7.31,14.71,4.68,16.72-.68,2-20.09,2-20.09Z" fill="#f48225" data-secondary="true" stroke="#351d66" stroke-miterlimit="10"/><path d="M562.09,626.55c-7.47-.24-21.59-.94-38.35-3.09-13.5-1.83-21.29-4.18-25.58-6.06-.62,1.33-.11,3.12,2.23,5.69,6,6.69,35.44,7.31,44.11,7.31s14.71,4.68,16.72-.68A18.37,18.37,0,0,0,562.09,626.55Z" fill="#251860"/><path d="M206.57,101.43h48.62a0,0,0,0,1,0,0v44.09a19.5,19.5,0,0,1-19.5,19.5h-9.62a19.5,19.5,0,0,1-19.5-19.5V101.43a0,0,0,0,1,0,0Z" fill="#d54b4b" stroke="#351d66" stroke-miterlimit="10"/><path d="M255.19,101.43h48.62a0,0,0,0,1,0,0v44.09a19.5,19.5,0,0,1-19.5,19.5h-9.62a19.5,19.5,0,0,1-19.5-19.5V101.43A0,0,0,0,1,255.19,101.43Z" fill="#f98181" stroke="#351d66" stroke-miterlimit="10"/><path d="M303.81,101.43h48.62a0,0,0,0,1,0,0v44.09a19.5,19.5,0,0,1-19.5,19.5h-9.62a19.5,19.5,0,0,1-19.5-19.5V101.43A0,0,0,0,1,303.81,101.43Z" fill="#d54b4b" stroke="#351d66" stroke-miterlimit="10"/><path d="M352.26,101.43h48.62a0,0,0,0,1,0,0v44.09a19.5,19.5,0,0,1-19.5,19.5h-9.62a19.5,19.5,0,0,1-19.5-19.5V101.43A0,0,0,0,1,352.26,101.43Z" fill="#f98181" stroke="#351d66" stroke-miterlimit="10"/><path d="M400.89,101.43h48.62a0,0,0,0,1,0,0v44.09A19.5,19.5,0,0,1,430,165h-9.62a19.5,19.5,0,0,1-19.5-19.5V101.43a0,0,0,0,1,0,0Z" fill="#d54b4b" stroke="#351d66" stroke-miterlimit="10"/><path d="M160.22,100.68l35.12-11.54L423,88.61l25,12.09a.38.38,0,0,1-.17.73H160.34A.38.38,0,0,1,160.22,100.68Z" fill="#f98181" stroke="#351d66" stroke-miterlimit="10"/><circle cx="276.56" cy="69.91" r="6.41" fill="#d2e1f9"/><rect x="293.13" y="65.63" width="47.56" height="9.62" rx="3.86" fill="#d2e1f9"/><rect x="186.5" y="114.88" width="7.78" height="417.23" fill="#351d66"/><rect x="203.89" y="259.06" width="209.99" height="13.36" rx="5.36" fill="#fff"/><rect x="204.43" y="381.42" width="209.99" height="13.36" rx="5.36" fill="#fff"/><rect x="203.63" y="477.34" width="209.99" height="13.36" rx="5.36" fill="#fff"/><rect x="324.3" y="228.43" width="33.48" height="30.64" fill="#f98181" stroke="#351d66" stroke-miterlimit="10"/><rect x="321.45" y="234.13" width="38.47" height="19.95" rx="3" fill="#d54b4b" stroke="#351d66" stroke-miterlimit="10"/><rect x="321.09" y="221.3" width="39.54" height="7.12" rx="2.86" fill="#351d66"/><path d="M230.25,327.81l62,34.56s-8,16.83-27.45,18.39C249.07,382,234,373.2,228.18,358.53,225.07,350.67,224.27,340.35,230.25,327.81Z" fill="#d54b4b" stroke="#351d66" stroke-miterlimit="10"/><path d="M239,332.8s-8.4,19.37,4.93,31.93a23.82,23.82,0,0,0,11.62,5.91c7.43,1.5,20,1.43,28.16-12.9Z" fill="#f98181" stroke="#351d66" stroke-miterlimit="10"/><circle cx="249.31" cy="352.57" r="1.96" fill="#351d66"/><circle cx="258.22" cy="350.43" r="1.96" fill="#351d66"/><circle cx="261.6" cy="360.41" r="1.96" fill="#351d66"/><rect x="229.19" y="401.55" width="37.05" height="12.82" fill="#351d66"/><path d="M229.19,414.37l-3.79,3a13.64,13.64,0,0,0-5.12,10.66v48.3H257v-54.5l5.7-7.13Z" fill="#686175" data-primary="true" stroke="#351d66" stroke-miterlimit="10"/><path d="M274,419.61l-7.73-5.24-3.56.36-5.7,7.13v54.5h21l.32-48.5A9.87,9.87,0,0,0,274,419.61Z" fill="#686175" data-primary="true" stroke="#351d66" stroke-miterlimit="10"/><path d="M309.07,427.33s-7.57,33.25,11.74,43.4a17.64,17.64,0,0,0,6.15,1.83c6.53.74,22.56,1,36.88-10.85l-2-5.1S332,467.1,315.93,428.27Z" fill="#f48225" data-secondary="true" stroke="#351d66" stroke-miterlimit="10"/><polygon points="309.07 427.33 309.07 420.96 316.1 421.5 315.93 428.27 309.07 427.33" fill="#351d66"/><path d="M361.83,456.61l10.75-8.6a4.39,4.39,0,0,1,6.36.95h0a4.38,4.38,0,0,1-1.75,6.42l-13.35,6.33Z" fill="#351d66"/><path d="M157.94,101.43h48.62a0,0,0,0,1,0,0v44.09a19.5,19.5,0,0,1-19.5,19.5h-9.62a19.5,19.5,0,0,1-19.5-19.5V101.43a0,0,0,0,1,0,0Z" fill="#f98181" stroke="#351d66" stroke-miterlimit="10"/><circle cx="250.53" cy="191.94" r="70.44" fill="#f48225" data-secondary="true" stroke="#351d66" stroke-miterlimit="10"/><circle cx="250.53" cy="191.94" r="57.55" fill="#fff" opacity="0.2"/><circle cx="279.64" cy="190.95" r="14.56" fill="#7ddcf2" stroke="#351d66" stroke-miterlimit="10"/><circle cx="278.49" cy="190.37" r="8.85" fill="#69c4e1"/><path d="M217.11,169h58.81a0,0,0,0,1,0,0V205.6a15.32,15.32,0,0,1-15.32,15.32H232.44a15.32,15.32,0,0,1-15.32-15.32V169A0,0,0,0,1,217.11,169Z" fill="#7ddcf2" stroke="#351d66" stroke-miterlimit="10"/><ellipse cx="246.52" cy="168.96" rx="29.41" ry="4" fill="#fff" stroke="#351d66" stroke-miterlimit="10"/><path d="M296.16,432.54s-5.7,37.76,23.15,44.53c0,0,30.64,6.77,44.88-15.67l-2.49-4.28s-44.17,12.11-60.56-24.93Z" fill="#f48225" data-secondary="true" stroke="#351d66" stroke-miterlimit="10"/><polygon points="296.16 432.54 296.16 427.2 300.96 427.2 301.14 432.19 296.16 432.54" fill="#351d66"/><ellipse cx="584.77" cy="131.38" rx="2.62" ry="4.37" fill="#351d66"/><path d="M578,160.59c3.13-.23,6.63-2,9.84-7.08" fill="none" stroke="#351d66" stroke-miterlimit="10"/><path d="M575.79,136.34s-7.3,12.29-.53,13.54" fill="none" stroke="#351d66" stroke-miterlimit="10"/></svg>