<svg id="b4619cea-4a09-4441-aedb-a8ae3e8fb3db" data-name="Layer 1" xmlns="http://www.w3.org/2000/svg" width="865.76" height="682.89" viewBox="0 0 865.76 682.89"><g id="b5753c93-8dc3-455b-9577-efdb1ddd97c4" data-name="freepik--background-complete--inject-94"><path d="M52.18,278.48l5.77,1.2,8.92,20.15-2.39,11.49s8.81,2.41,10.87-12.87,2.42-11.2,2.42-11.2,18.94,3.93,20.85,2.53c1.38-1,5.91-19.68,8.14-29.78a11.3,11.3,0,0,0-5.52-12.74,8,8,0,0,0-2-.69c-4.7-1-29.53-2.17-29.53-2.17l-9.94-2Z" fill="#ebebeb"/><polygon points="35.03 278.23 46.77 239.56 56.63 241.61 48.6 280.24 35.03 278.23" fill="#ebebeb"/><polygon points="770.98 539.61 779.43 556.72 798.31 559.46 784.65 572.78 787.87 591.59 770.98 582.71 754.11 591.59 757.32 572.78 743.65 559.46 762.54 556.72 770.98 539.61" fill="#e0e0e0"/><polygon points="840.03 294.92 845.62 306.24 858.1 308.05 849.07 316.85 851.19 329.3 840.03 323.43 828.87 329.3 830.99 316.85 821.98 308.05 834.46 306.24 840.03 294.92" fill="#f5f5f5"/><path d="M760.59,129l-5.56.91-14.88-15-1.79-11.1s-8.68.87-5.32,15.24,1.68,10.85,1.68,10.85-18.25,3-19.51,4.84c-.91,1.34,1.51,19.55,2.91,29.41a10.77,10.77,0,0,0,9.29,9.49,7.22,7.22,0,0,0,2,0c4.55-.74,27.21-8.21,27.21-8.21l9.61-1.55Z" fill="#ebebeb"/><polygon points="776.02 123.38 778.76 161.97 769.23 163.5 763.21 126.24 776.02 123.38" fill="#ebebeb"/><rect x="207.5" y="44.07" width="15.69" height="78.08" transform="translate(-0.45 1.17) rotate(-0.31)" fill="#e0e0e0"/><rect x="71.47" y="44.34" width="40.64" height="43.12" transform="matrix(1, -0.01, 0.01, 1, -0.36, 0.5)" fill="#ebebeb"/><rect x="111.92" y="44.12" width="40.64" height="43.12" transform="matrix(1, -0.01, 0.01, 1, -0.35, 0.72)" fill="#f5f5f5"/><path d="M71.41,56.4c27,.22,54.08,0,81.07-.37a.45.45,0,0,0,.44-.44.44.44,0,0,0-.44-.43q-40.51-.24-81.09.49a.38.38,0,1,0,0,.75h0Z" fill="#e0e0e0"/><rect x="46.1" y="86.82" width="73.83" height="35.12" transform="translate(-0.56 0.45) rotate(-0.31)" fill="#ebebeb"/><rect x="119.59" y="86.42" width="73.83" height="35.12" transform="translate(-0.56 0.85) rotate(-0.31)" fill="#f5f5f5"/><path d="M46.05,96.84c49,.55,98.28,0,147.33-.73a.43.43,0,0,0,.43-.43.44.44,0,0,0-.43-.44h0C144.31,95,95.09,95,46.05,96.09a.38.38,0,0,0,0,.75Z" fill="#e0e0e0"/><rect x="18.45" y="122.2" width="286.07" height="12.58" fill="#e0e0e0"/><rect x="65.27" y="128.24" width="11.62" height="42.94" fill="#e0e0e0"/><rect x="238.62" y="128.24" width="11.62" height="42.94" fill="#e0e0e0"/><rect x="222.9" y="14.94" width="15.69" height="107.4" transform="translate(-0.37 1.25) rotate(-0.31)" fill="#ebebeb"/><rect x="238.66" y="34.96" width="24.39" height="87.04" transform="translate(-0.42 1.36) rotate(-0.31)" fill="#f5f5f5"/><path d="M262.66,51.71a88.6,88.6,0,0,1-12.19.42,88.75,88.75,0,0,1-12.2-.42A174.15,174.15,0,0,1,262.66,51.71Z" fill="#e0e0e0"/><path d="M262.66,48a87.06,87.06,0,0,1-12.19.44,87.21,87.21,0,0,1-12.2-.44A180.47,180.47,0,0,1,262.66,48Z" fill="#e0e0e0"/><path d="M262.66,108.89a180.47,180.47,0,0,1-24.39,0A171.16,171.16,0,0,1,262.66,108.89Z" fill="#e0e0e0"/><path d="M262.66,105.23a180.47,180.47,0,0,1-24.39,0A177.26,177.26,0,0,1,262.66,105.23Z" fill="#e0e0e0"/><path d="M250.87,97.21c-.24,0-.44-8.78-.44-19.68s.2-19.69.44-19.69.41,8.78.41,19.69S251.08,97.21,250.87,97.21Z" fill="#e0e0e0"/><rect x="262.91" y="56.32" width="26.54" height="65.7" fill="#ebebeb"/><path d="M234.74,33.29a4.53,4.53,0,1,1-4.55-4.51h0a4.51,4.51,0,0,1,4.53,4.49Z" fill="#e0e0e0"/><rect x="228.83" y="45.69" width="2.8" height="63.89" fill="#e0e0e0"/><polygon points="798.3 344.05 803.89 355.37 816.37 357.18 807.34 365.98 809.48 378.43 798.3 372.56 787.14 378.43 789.28 365.98 780.25 357.18 792.73 355.37 798.3 344.05" fill="#ebebeb"/></g><path d="M156.94,483.38s152-16.5,176,0l-75.07,52.11Z" fill="#f48225" data-secondary="true"/><path d="M194.1,480.43s12.5,4.73,16.85,11.05c0,0,3.42,2.71,16,6,0,0,14.22,14,39.84,9.62a58.65,58.65,0,0,0,19.56-7.32c10.18-5.94,32-17.77,42.89-16.68l-71.31,52.4-90.6-49.22V483.9l14,1.45S189.48,482.12,194.1,480.43Z" opacity="0.2"/><path d="M269.75,527.16l57.72-44.42,39.12-23.63,4.26-12s54.36-24.51,65.57,14.91c0,0,3.33,56.75-18.74,82.49l-46.83-5.69L283.7,581.9s-10.08,2.72-9.69-9.29Z" fill="#f48225" data-secondary="true"/><path d="M274,523.9l-4.25,3.26,4.36,48.09s-1.07,8.2,9.59,6.65l18.71-9.25s-20.19,8.75-25.75-6.88a18.6,18.6,0,0,1-1-5.38Z" opacity="0.2"/><path d="M146.45,459.5S101.89,459,98,502.72c0,0-3.48,28.56,24.22,46.31l95.16,13.28,28.19-15.88,12.32-22.53-90.6-40-5.81-9.3s-4.17-.79-8.45-6.2A63.74,63.74,0,0,1,146.45,459.5Z" fill="#f48225" data-secondary="true"/><path d="M112.17,540.88s6-12.92,26.82-5.1c0,0,70.91,20.65,77.45,10.1a13.43,13.43,0,0,1,2.2-2.87c3.75-3.48,13.71-11.83,32.58-22.06l6.67,2.95-12.32,22.53-28.19,15.88L122.22,549A31.36,31.36,0,0,1,112.17,540.88Z" opacity="0.2"/><path d="M236.4,545.83,216.1,560S203,585.58,211.16,599c0,0,32.86-5.14,42.29-10.85,0,0-7.37-9.07-11.09-34.45C242.36,553.65,242.18,548.77,236.4,545.83Z" fill="#ffad95"/><path d="M233.81,594.54s-20.45.74-20.07-11.68a8.73,8.73,0,0,1,.16-1.35c.58-3.09,3-16.37,2.2-21.49,0,0-13.07,23-4.94,38.93Z" fill="#e37961"/><path d="M231,549.62s14.66,20.85,15.44,41.48a24.79,24.79,0,0,0,7-3s-8.37-11.48-11.09-34.45c0,0-.18-4.88-6-7.82Z" fill="#e37961"/><path d="M292.22,590.81,307,594.59a39.11,39.11,0,0,0,7.76-28.06L283.7,581.9Z" fill="#ffad95"/><path d="M370.85,538.81s20.19-13.22,29.17-18a2.41,2.41,0,0,1,3.5,2.58,81.13,81.13,0,0,1-2.36,9.07S396.9,530.38,370.85,538.81Z" opacity="0.2"/><path d="M307,594.59,382.28,599s24.34-5.3,27.13-36.64c0,0,5-17.6-12.38-30,0,0-17,2-26.18,6.49l-56.06,27.72S317.78,580.64,307,594.59Z" fill="#686175" data-primary="true"/><path d="M382.28,599H401A18.85,18.85,0,0,0,413.71,594c8.15-7.48,19.66-24.12,10.19-54.29a6.63,6.63,0,0,0-3.86-4.17c-3.87-1.54-11.55-3.75-23-3.26,0,0,18.11,11,12,33.28C409,565.6,406.68,592,382.28,599Z" fill="#123a53"/><path d="M108.09,600.92H96.47A11.06,11.06,0,0,1,88,597.06c-4.58-5.38-11-15.52-4.12-24.67,0,0,11.22-22.12,31.06-30.44a33.66,33.66,0,0,1,27.34.7l16.45,7.71Z" fill="#123a53"/><path d="M242.36,553.65a9.05,9.05,0,0,0-3.94-6.33c-4.29-2.91-10.2-8.36-2.37-12.67l25.18-12.4s5.81-3.73,8.52,4.91l4.36,48.09s.76,8,9.59,6.65c0,0,17.81-3.87,8.52,8.91,0,0-17.42,19.76-28.66,9.3C263.56,600.11,247.06,589,242.36,553.65Z" fill="#f48225" data-secondary="true"/><path d="M242.36,553.65a9.05,9.05,0,0,0-3.94-6.33c-4.29-2.91-10.2-8.36-2.37-12.67l25.18-12.4s5.81-3.73,8.52,4.91l4.36,48.09s.76,8,9.59,6.65c0,0,17.81-3.87,8.52,8.91,0,0-17.42,19.76-28.66,9.3C263.56,600.11,247.06,589,242.36,553.65Z" opacity="0.4"/><path d="M107.06,600.92s-11.39-3.88-5.92-20.36c0,0,9.59-30.85,33.06-29.86,0,0,14.46-5.17,27.28.75,0,0,46.22,10.29,54.62,8.57,0,0-13.3,24.26-4.64,40.9Z" fill="#686175" data-primary="true"/><path d="M102.58,576.73s40.28,19.48,106.81,2.75c0,0-3.63,9.81,2.07,21.44H107.06S94,597,102.58,576.73Z" opacity="0.2"/><path d="M420.05,464.14c-29.06,1.56-35.25-12-35.25-12-15.11-16.66-13.95-43.39-13.95-43.39-8.9,6.2,0,38.35,0,38.35l-4.26,12-39.12,23.63c-21.31-6.59-64.89,11.33-64.89,11.33-31.66,13.65-56.36-5.81-56.36-5.81-5.22-4.07-15.1-2.91-15.1-2.91-6.69,1.45-9.88,0-9.88,0l-14-1.45-5.81-9.3a141.69,141.69,0,0,1,1.21-37.81,139.74,139.74,0,0,1,4.6-19.13c-3.12-2.05-9.59-4.73-17.87-5a25,25,0,0,0-25.69,21.92,20.26,20.26,0,0,0,0,5.11c-14.34-10.07-5-70.5-5-70.5,1.16-16.66,30.6-59.63,30.6-59.63l90,30.07c94,15,151-48.38,151-48.38,6.53,8.91,8.52,36.88,8.52,36.88,6.59,9.69,10.67,26.38,10.67,26.38l30.78,79.37C444.84,464.14,420.05,464.14,420.05,464.14Z" fill="#686175" data-primary="true"/><path d="M370.85,408.75s-11.07-51.4-4.88-69.07c0,0-7.68,6.88-5.68,64.45,0,0,.52,54.23-17,57.85L177,435.64l-9.67-18-5.81,56.94,5.81,9.3,14,1.45s3,1.46,9.88,0c0,0,10.17-1.41,15.62,3.29S237,506,262.58,494.07c0,0,44.65-18.6,64.89-11.33l39.12-23.63,4.26-12S362.62,415.24,370.85,408.75Z" fill="#fff" opacity="0.2"/><path d="M123.72,439.74s39.5,11.33,43.57-22.08c0,0-17.16-11.81-33.67,0C133.62,417.66,121.68,425.79,123.72,439.74Z" fill="#686175" data-primary="true"/><path d="M123.72,439.74s39.5,11.33,43.57-22.08c0,0-17.16-11.81-33.67,0C133.62,417.66,121.68,425.79,123.72,439.74Z" opacity="0.2"/><path d="M390.22,291.3s-56.93,63.37-151,48.38l-90-30.07,11.82-20.13A56.36,56.36,0,0,1,175.49,273c4.23-3.22,9.29-6.07,14.46-6.72,0,0,119.65,8.42,128.68,0,0,0-2.78-5.52,10-3.58C328.63,262.72,377.43,265.27,390.22,291.3Z" fill="#686175" data-primary="true"/><path d="M390.22,291.3s-56.93,63.37-151,48.38l-90-30.07,11.82-20.13A56.36,56.36,0,0,1,175.49,273c4.23-3.22,9.29-6.07,14.46-6.72,0,0,119.65,8.42,128.68,0,0,0-2.78-5.52,10-3.58C328.63,262.72,377.43,265.27,390.22,291.3Z" opacity="0.2"/><ellipse cx="258.21" cy="195.1" rx="43.92" ry="59.28" transform="translate(-50.03 96.5) rotate(-19.34)" fill="#ffad95"/><path d="M238.54,156.66c3,5.22-4.17,11.11-7.53,13.5a22.56,22.56,0,0,0-6.72,7.3,24.21,24.21,0,0,0-3.1,10.3" fill="none" stroke="#123a53" stroke-miterlimit="10"/><path d="M254.21,146.7s10.57,3.07,20.46,22.37c0,0,12.95,19.69,32,12.46" fill="none" stroke="#123a53" stroke-miterlimit="10"/><path d="M194.65,178.86s.46-27.41,21-43c0,0,16-12.94,25.5-1.9" fill="none" stroke="#123a53" stroke-miterlimit="10"/><path d="M217.91,229.55s-.79,7-16.62,20.48c0,0-23.16,13.51-23.93,39.37,0,0-3.86,44-22.39,39.38,0,0,18.53,33.58,47.48,5,0,0,3.47,4.49-3.09,11.51,0,0,30.88,27.47,50.57-12.29,0,0,13.89-16.21-3.86-35.9,0,0-11.92-11.79-6.34-21.53a8.22,8.22,0,0,1,2.68-2.79c3.14-2,11.21-7.61,11.8-12V250.73s-15.85-4.86-28.14-22.68C226.07,228.05,223.59,231.63,217.91,229.55Z" fill="#123a53"/><path d="M182.53,345.1s22.14-16.14,14.78-36.29c0,0-8.52-16.65,4.26-31,0,0,15.71-13.17,15.8-24.4,0,0,.47,16.66-6.5,27.5a36.1,36.1,0,0,0,0,25.18s14.25,32-9.53,36.75c0,0,3.14-3.05,1.11-9.05C202.45,333.8,194.47,343.42,182.53,345.1Z" opacity="0.2"/><path d="M217.38,231.26a31.39,31.39,0,0,1,8.6,31.26s-5.46,12.21,4.24,21.79c0,0,27.64,34.63,15.91,55.37l3.8-6.66s13.61-17.85-3.86-35.9c0,0-12.68-12-6.15-21.93a8.08,8.08,0,0,1,2.46-2.34c3.23-2,11.83-7.71,11.83-12V250.73s-14.18-2.84-28.14-22.68c0,0-1.41,3.39-8.16,1.5Z" opacity="0.2"/><path d="M291.68,241.82s1.11,30.71,26.95,24.48c0,0-5.29,50.75-45.46,49.82,0,0-11.74-.79-18.89-4.84,0,0-2.54-9.25-8.21-14.16,0,0-12.64-12.36-6.18-21.94a7.86,7.86,0,0,1,2.5-2.3c3-1.82,10.7-6.88,11.82-12V250.73S274.86,259.47,291.68,241.82Z" fill="#ffad95"/><path d="M292.84,249.25s-7.18,15.34-29.42,8.08c0,0-2.64,12.55-12.33,15.85,0,0-11.13,4.46-11.84,14,0,0-4.46-9.3,3.14-14.28,0,0,10.76-5.89,11.82-12V250.73s21,8.83,37.47-8.91C291.68,241.82,292.34,247.44,292.84,249.25Z" fill="#e37961"/><path d="M312.74,267.12s-1.56,29.16-16.75,42.49c0,0,18.84-12.1,22.64-43.31A51.12,51.12,0,0,1,312.74,267.12Z" fill="#e37961"/><path d="M167.09,417.51s-7.16-8.91,0-42.22" fill="none" stroke="#000" stroke-miterlimit="10" opacity="0.2"/><path d="M383.18,411.26s-8.27,23.61,7,31.14c0,0,19.91,7.81,35.15,1.51,0,0,16.73-6.59,15.4-15.1s-2.08-8.26-4.6-12.78l-.44,5.64a15.06,15.06,0,0,1-6.1,11c-1.28.93-2.59,1.94-3.73,2.91a23.91,23.91,0,0,1-9.23,4.92c-6.61,1.8-16.54,3.49-21.18-.83,0,0-4.29-3.44-4.28-8.12a17.19,17.19,0,0,0-1.68-7.87,28.24,28.24,0,0,0-3.67-5.63,7.8,7.8,0,0,1-1.67-3Z" fill="#686175" data-primary="true"/><path d="M383.18,411.26s-8.27,23.61,7,31.14c0,0,19.91,7.81,35.15,1.51,0,0,16.73-6.59,15.4-15.1s-2.08-8.26-4.6-12.78l-.44,5.64a15.06,15.06,0,0,1-6.1,11c-1.28.93-2.59,1.94-3.73,2.91a23.91,23.91,0,0,1-9.23,4.92c-6.61,1.8-16.54,3.49-21.18-.83,0,0-4.29-3.44-4.28-8.12a17.19,17.19,0,0,0-1.68-7.87,28.24,28.24,0,0,0-3.67-5.63,7.8,7.8,0,0,1-1.67-3Z" opacity="0.2"/><path d="M383.18,411.26,422.66,318s8.43-20.33,8.72-41.83c0,0-.29-23.39-7.85-34.36,0,0-9.87-14.16-4.94-15.32,0,0,8.14-3.78,18,11.33,0,0,5.52,7,7.84,1.74,0,0,2.91-.29,3.78-16,0,0-.58-41.54,3.48-42.7,0,0,11.33-10.17,7.85,27.89l.66,22.37s17.93,12.78,18.8,22.37c0,0,8.14,16-19.46,37.78,0,0-21.2,85.53-23.39,124.73,0,0,1,11-6.54,16.61l-6.14,4.72s-16.54,9.35-28,2.28a11.93,11.93,0,0,1-4.44-10.83s-.88-6.58-5.09-10.88a7.38,7.38,0,0,1-1.84-3.22Z" fill="#ffad95"/><path d="M385.86,404.92l-2.68,6.34s.53,4.3,2.13,6.11a16.54,16.54,0,0,1,1.7,2.13c1.48,2.37,3.92,7,3.41,11.16,0,0,.92,10.62,10.47,11.62,0,0,8.86,3.12,22-4.23,0,0,15.64-8.25,13.31-22,0,0-7,11.91-17.17,17.6-7.26,4.05-16.5,2.88-22-3.33a15.52,15.52,0,0,1-4-9S389.3,408.88,385.86,404.92Z" fill="#e37961"/><polygon points="346.98 469.19 171.24 473.06 169.04 352.58 349.16 347.94 346.98 469.19" fill="#f48225" data-secondary="true"/><polygon points="346.98 469.19 171.24 473.06 169.04 352.58 349.16 347.94 346.98 469.19" fill="#fff" opacity="0.65"/><polygon points="347 473.06 171.24 477.7 171.24 473.06 346.98 469.19 347 473.06" fill="#123a53"/><polygon points="235.16 350.88 170.84 450.82 171.24 473.06 216.1 472.07 292.23 349.41 235.16 350.88" fill="#fff" opacity="0.26"/><polygon points="263.15 471.03 341.01 348.15 349.16 347.94 347 431.32 323.01 469.71 263.15 471.03" fill="#fff" opacity="0.26"/><path d="M429.38,229.49s7.6,16.16,13.83,19.76c0,0,5.58,2.3,4.27,9.19,0,0-2.4,15.54,12.13,16.72,0,0,5.71,2.63,13.12-6.56,0,0,4.55,2.64,5.2,1,0,0,6.37-12.25-.59-21,0,0-3.71-8.95-17.12-17.41l-12.48-1.66s-.71,8.18-3.29,10.08c0,0-2.55,4.88-7.84-1.74C436.61,237.83,433.26,231.89,429.38,229.49Z" fill="#e37961"/><path d="M460.22,231.15s-18.15,25.38-7.05,34.67c0,0,3.46,6.19,7.05,6.39,0,0,4.77,2.62,9.4-2a12.91,12.91,0,0,0,3.09-5.35c1.09-3.57,4.45-11,7.14-11.51C479.85,253.32,479.85,244.15,460.22,231.15Z" fill="#ffad95"/><path d="M453.17,265.82s5.81-19.95,16.85-25" fill="none" stroke="#e37961" stroke-miterlimit="10"/><path d="M460.22,272.21s5.92-20.53,15.22-23.44" fill="none" stroke="#e37961" stroke-miterlimit="10"/><path d="M207.67,212s-9.9,5-12.94-24.74c0,0-1.91-18.28,12.94-35.79,0,0,14.85-27.79,33.5-17.51,0,0,11.65-10.28,22.28-8.08a42.15,42.15,0,0,0,4.18.63c6.23.6,22.42,3.4,27.6,16.21,0,0,2.29,3,5.33,16.37,0,0,2.95,16.05,12.8,17.46a.5.5,0,0,1,.08,1c-6,2-22.37,5.45-33.06-12,0,0-13.7-20.94-33.12-14.85,0,0-16.37,11-20.93,14.85a15.93,15.93,0,0,0-1.13,1.22,21.76,21.76,0,0,0-4.33,19.72C223.39,195.94,226.84,216.41,207.67,212Z" fill="#123a53"/><path d="M237.46,132.37s7.44,14.8,2.82,23.09l7-4.77s3.48-1.94,11.73-.64c0,0,12,1.12,22.71,17.48,0,0,4.23,7,11.93,9.84,0,0-7.57-5.83-14.2-19.24,0,0-10.44-22.91-26.39-12.26a1.16,1.16,0,0,1-1.59-.32c-1.76-2.59-6.37-9.93-5.73-14.94l-4.55,3.33Z" opacity="0.2"/><path d="M207.67,212c-6.1,2.14-8.77-6.24-8.77-6.24s6.35,8.78,10.27,1.37a11.19,11.19,0,0,0,1.13-6.71c-1-7.58-2.71-30.53,10.89-39.36,0,0-8.63,17.82-4.9,41.83,0,0,1.56,7.83,5.34,4.11C221.63,207,218.61,215.09,207.67,212Z" opacity="0.2"/><ellipse cx="217.37" cy="219.18" rx="8.09" ry="12.54" transform="translate(-88.72 179.16) rotate(-37.79)" fill="#ffad95"/><path d="M125.82,427.18l11.55,14.4s11.33,28.66,24.11,33l18.31,5.81s4.32.55,4.89-4.38a.44.44,0,0,1,.58-.37c1.79.57,7.49,2.12,8.47-1.06,0,0,1.27-2.54-2.38-6a.86.86,0,0,1,0-1.3c1.36-1.08,3.73-3.57,2.24-7.11a7,7,0,0,0-2.42-2.94c-4.46-3.24-21.37-15.85-21.87-21.9l.58-4.35s-14.82-9.91-20.49-18.32C149.42,412.71,134.32,410.84,125.82,427.18Z" fill="#ffad95"/><path d="M160,459.5a84.67,84.67,0,0,0,22.57,15.39" fill="none" stroke="#e37961" stroke-miterlimit="10"/><path d="M163.91,450.82s5.13,8.68,23.43,16.38" fill="none" stroke="#e37961" stroke-miterlimit="10"/><path d="M447.74,229.49l12.48,1.66-.46-15.73S458.91,225.41,447.74,229.49Z" fill="#e37961"/><circle cx="257.89" cy="409.48" r="12.52" fill="#f48225" data-secondary="true"/><rect x="383.18" y="79.73" width="270.68" height="118.07" rx="14.6" fill="#a98c5d" opacity="0.56"/><rect x="389.27" y="86.58" width="258.51" height="104.36" rx="13.25" fill="#fff" opacity="0.56"/><rect x="406.08" y="106.3" width="202.98" height="8.23" fill="#7a6640"/><rect x="406.08" y="121.43" width="121.61" height="8.23" fill="#7a6640"/><polygon points="419.88 148.46 424.58 157.97 435.08 159.5 427.48 166.9 429.27 177.36 419.88 172.42 410.49 177.36 412.29 166.9 404.69 159.5 415.19 157.97 419.88 148.46" fill="#f48225" data-secondary="true"/><polygon points="463.38 148.46 468.07 157.97 478.57 159.5 470.98 166.9 472.77 177.36 463.38 172.42 453.99 177.36 455.78 166.9 448.19 159.5 458.68 157.97 463.38 148.46" fill="#f48225" data-secondary="true"/><polygon points="506.88 148.46 511.57 157.97 522.07 159.5 514.47 166.9 516.26 177.36 506.88 172.42 497.48 177.36 499.28 166.9 491.68 159.5 502.18 157.97 506.88 148.46" fill="#f48225" data-secondary="true"/><polygon points="550.37 148.46 555.07 157.97 565.56 159.5 557.97 166.9 559.76 177.36 550.37 172.42 540.98 177.36 542.77 166.9 535.18 159.5 545.68 157.97 550.37 148.46" fill="#f48225" data-secondary="true"/><polygon points="593.87 148.46 598.56 157.97 609.06 159.5 601.46 166.9 603.26 177.36 593.87 172.42 584.48 177.36 586.27 166.9 578.67 159.5 589.17 157.97 593.87 148.46" fill="#f48225" data-secondary="true"/><rect x="507.57" y="240.23" width="270.68" height="118.07" rx="14.6" fill="#a98c5d" opacity="0.56"/><rect x="513.65" y="247.08" width="258.51" height="104.36" rx="13.25" fill="#fff" opacity="0.56"/><rect x="530.47" y="304.45" width="202.98" height="8.23" fill="#7a6640"/><rect x="530.47" y="319.58" width="121.61" height="8.23" fill="#7a6640"/><circle cx="543.68" cy="278.98" r="16" fill="#f48225" data-secondary="true"/><path d="M548.71,275.66a5,5,0,1,0-7,4.64l-1.69,7h7.31l-1.7-7A5,5,0,0,0,548.71,275.66Z" fill="#fff" opacity="0.56"/><path d="M584,285l-3.3-5.72h-1.79V285h-2.35V270.71h5a6.19,6.19,0,0,1,2.79.57,4,4,0,0,1,1.71,1.55,4.41,4.41,0,0,1-.25,4.7,4.08,4.08,0,0,1-2.5,1.56l3.54,5.93Zm-5.09-7.6h2.6a2.69,2.69,0,0,0,2-.66,2.36,2.36,0,0,0,.67-1.77,2.29,2.29,0,0,0-.66-1.74,2.78,2.78,0,0,0-2-.63h-2.6Z" fill="#f48225" data-secondary="true"/><path d="M591.89,272.6v4.2h4.94v1.92h-4.94v4.39h5.56V285h-7.91V270.69h7.91v1.91Z" fill="#f48225" data-secondary="true"/><path d="M612.67,270.71,607.29,285h-2.72l-5.39-14.31h2.51l4.24,11.9,4.27-11.9Z" fill="#f48225" data-secondary="true"/><path d="M617,270.71V285h-2.35V270.71Z" fill="#f48225" data-secondary="true"/><path d="M622.41,272.6v4.2h4.94v1.92h-4.94v4.39H628V285h-7.91V270.69H628v1.91Z" fill="#f48225" data-secondary="true"/><path d="M649.49,270.71,645.25,285h-2.66l-3-10.83L636.39,285l-2.63,0-4.06-14.33h2.49l3,11.65,3.21-11.65H641l3,11.59,3-11.59Z" fill="#f48225" data-secondary="true"/><rect x="514.16" y="407.58" width="270.68" height="118.07" rx="14.6" fill="#a98c5d" opacity="0.56"/><rect x="520.25" y="414.43" width="258.51" height="104.36" rx="13.25" fill="#fff" opacity="0.56"/><rect x="537.06" y="473.1" width="202.98" height="8.23" fill="#7a6640"/><rect x="537.06" y="456.19" width="202.98" height="8.23" fill="#7a6640"/><rect x="537.06" y="436.76" width="202.98" height="8.23" fill="#7a6640"/><rect x="537.06" y="488.23" width="121.61" height="8.23" fill="#7a6640"/></svg>