<svg id="a7284a31-5d27-4961-90dd-aff4784691ac" data-name="Layer 1" xmlns="http://www.w3.org/2000/svg" width="865.76" height="682.89" viewBox="0 0 865.76 682.89"><path d="M202.2,623.9s-.33-19.63,3.55-16.69l23.85-6.08s4.62-7.63,6.39-2c0,0,8.09,15.52,17.47,18.75,0,0,14.38,2.11,13.74,8.41,0,0-12,1.46-47.37-2.26Z" fill="#686175" data-primary="true"/><path d="M204.78,594.56s1,10,1,12.65a15.31,15.31,0,0,0,14.61,4.63s9.24-2.19,9.24-10.71L223.76,588A58.37,58.37,0,0,1,204.78,594.56Z" fill="#ffad95"/><path d="M94.32,599.07l-.19,11.28s12.72,7.41,16.59-5.81c0,0-1.14-6.38,6.15-5.24l-1.72-5.82S107,598,94.32,599.07Z" fill="#ffad95"/><ellipse cx="250.58" cy="298.43" rx="11.41" ry="10.35" fill="#123a53"/><path d="M241.55,309.86s5.56,3.58,9.06,2.4a3.27,3.27,0,0,0,2.13-2.5,23.35,23.35,0,0,0,.21-8.53.81.81,0,0,0-1.25-.45c-1,.68-2.34,2.21-2.09,5.41,0,0-.27,3.62-3.94,1.22C245.67,307.41,243.24,309.62,241.55,309.86Z" fill="#ffad95"/><path d="M248.94,312.52s12.52.3,12.52-8.81a.39.39,0,0,0-.68-.28c-1.41,1.59-4.64,4.72-8.08,5.15C252.7,308.58,253.19,311.78,248.94,312.52Z" fill="#ffad95"/><path d="M171.74,262.12s8.61-.74,11.92-2.32l4.1,34.95c.11,1,.17,1.92.21,2.89a17.05,17.05,0,0,0,1.46,6.26,39.91,39.91,0,0,1,1.78,4.54c3.8,12.14,18,59.2,18.63,83.89,0,0,1.32,19.88,4.64,28.49a56.33,56.33,0,0,1,1,20.88s-4,50.69,9.94,146.11c0,0-11.93,5.63-23.52,7.29,0,0-33.47-79.85-30.82-119.28,0,0,1.33-14.25,3-27.83,0,0,.33-9.94-3.32-18.55l-16.56-38.77a390.64,390.64,0,0,0,11.26-66.26s6-7.29,5.3-35.45Z" fill="#f48225" data-secondary="true"/><path d="M171.74,262.12s8.61-.74,11.92-2.32l4.1,34.95c.11,1,.17,1.92.21,2.89a17.05,17.05,0,0,0,1.46,6.26,39.91,39.91,0,0,1,1.78,4.54c3.8,12.14,18,59.2,18.63,83.89,0,0,1.32,19.88,4.64,28.49a56.33,56.33,0,0,1,1,20.88s-4,50.69,9.94,146.11c0,0-11.93,5.63-23.52,7.29,0,0-33.47-79.85-30.82-119.28,0,0,1.33-14.25,3-27.83,0,0,.33-9.94-3.32-18.55l-16.56-38.77a390.64,390.64,0,0,0,11.26-66.26s6-7.29,5.3-35.45Z" opacity="0.2"/><path d="M211.67,585.74s-25.4-51.29-18.56-124.55" fill="none" stroke="#fff" stroke-miterlimit="10"/><path d="M186.42,283.53l36.76,17.34s12.25,9.54,18.61,9.1c0,0,7.48-1.3,7-10,0,0-.68-6.93-3.18-3,0,0-.3,4.14-1.91,6.13a2.22,2.22,0,0,1-3.84-1c-.66-2.94-1.68-8.08,4.66-12.5a38.72,38.72,0,0,0-11.58.14,6.84,6.84,0,0,1-5.36-1.19l-40.86-30.17-3.32,1.51Z" fill="#ffad95"/><path d="M169.84,105.33A115.75,115.75,0,0,0,177.1,120a31.42,31.42,0,0,1,4.58,11.89c1.27,8.17-.07,20-13.84,29.71a10,10,0,0,1-9.19,2.48l-11.18-11.68s-2.19-11,.25-19.63Z" fill="#123a53"/><path d="M125.6,111.62S123.12,132,121.38,138c0,0-1.5,4.92,15.65,16.85,0,0,8.91,5.37,13.14,5.48,1.38,0,2.65-1.43,1.9-2.58l-4.6-5.34s-1.49-15.65.25-19.63L133.8,114.85Z" fill="#ffad95"/><path d="M121.38,138s-4.23.25-10.94,4.23c0,0-10.89,80,3.27,119.48,0,0,63.82,5.26,73.27-3.44l.74-47.71s1.49-20.87-13.17-30.07l-27.08-28.08s6.82,7.22,2.17,7.71c0,0-4.41.74-18.32-10.19C131.32,149.89,121.87,143.43,121.38,138Z" fill="#686175" data-primary="true"/><path d="M113.92,260.47s-21,93-13.34,131.5c0,0,4.82,30.34-2.41,43.35,0,0-23.12,42.39-16.86,87.19,0,0,2.41,41.91,11.56,76.59,0,0,16.83-.69,23.29-6.16,0,0-5.72-60.46,14.16-131L135,450s7.62-16.57,9.28-23.86c0,0,18.88-57.31,21.2-101.71,0,0,5.3-7.29,5.3-26.51l.93-35.44S162.7,264.25,113.92,260.47Z" fill="#f48225" data-secondary="true"/><path d="M202.2,623.9a11.18,11.18,0,0,0-.79,5.15,2.47,2.47,0,0,0,2.46,2.12h61.6a2.92,2.92,0,0,0,2.94-2.53,2.36,2.36,0,0,0-1.21-2.32s-7.44,1.3-47.37-2.26Z" fill="#123a53"/><path d="M88.62,623.68s2.73-8.2,1.59-13c0,0-.22-8,3.88-1.14,0,0,12.3,8.21,16.63-5,0,0-1.14-6.61,6.15-5.24,0,0,4.56-1.14,6.61,4.1,0,0,5.93,11.62,12.76,14.58,0,0,9.12,1.83,9.34,9.12,0,0-24.58,1.09-37.19-2.48a8.43,8.43,0,0,0-1.94-.3Z" fill="#686175" data-primary="true"/><path d="M88.62,623.68s-1.6,3.87,0,7.29l53.55.23s3.19,1.59,3.41-4.1c0,0-24.38,2-38.05-3Z" fill="#123a53"/><ellipse cx="179.44" cy="195.59" rx="13.25" ry="12.4" fill="#f48225" data-secondary="true"/><path d="M113.49,386s1,17.09-1,27.84" fill="none" stroke="#fff" stroke-miterlimit="10"/><path d="M101.77,589.16s-22.47-64-7.33-113.81c0,0,12.21-39.07,15.63-52.26" fill="none" stroke="#fff" stroke-miterlimit="10"/><path d="M164.29,347.87S199,423.09,192.13,456.3" fill="none" stroke="#fff" stroke-miterlimit="10"/><path d="M168,100.45s9,10.24,13,16.89c7.9,13.11,13.12,38.45-15.95,44.91" fill="none" stroke="#123a53" stroke-miterlimit="10"/><path d="M121.43,69s7.36-18.43,30.66-18.38a27.5,27.5,0,0,1,5.11.51c6.21,1.21,21.46,5.19,17.48,14.75" fill="none" stroke="#123a53" stroke-miterlimit="10"/><path d="M147.72,132.74a38.56,38.56,0,0,0-.78,10.26s-15.23-16-12.88-29.55Z" fill="#e37961"/><ellipse cx="151.24" cy="105.33" rx="18.6" ry="27.91" fill="#ffad95"/><path d="M110.44,142.19s10.32-18.45,1.8-35.29a18.59,18.59,0,0,1-1.62-4.76c-1.21-6.07-2.33-19.18,8.11-26.88,0,0,2.31-19.88,24.18-16.23,0,0,17.89-10.94,32.8,7,0,0,11.6,15.24-6.29,33.8,0,0-2.1-21.24-17.08-20.43-7.33.4-13.14,6.27-14.16,13.54a42.32,42.32,0,0,0-.24,8.88s1.93,4.19-1.69,3.88l-10.65,6c-.33,3.75-.79,7.71-1.42,11.85-.79,5.18-1.75,10-2.8,14.49C121.38,138,118.56,137.71,110.44,142.19Z" fill="#123a53"/><ellipse cx="130.4" cy="107.57" rx="6.16" ry="8.24" transform="translate(-27.04 46.02) rotate(-18.17)" fill="#ffad95"/><path d="M83.16,250.49s-3.69-1.48-3.69,2.95c0,0-13.28,88.9-11.8,113.61a23.94,23.94,0,0,0,5,7,19.28,19.28,0,0,1,1.85,3.12A6.64,6.64,0,0,0,79.44,381C92.52,383.2,132,389.5,146,387.44l.49-2.73s6.22,2.48,7.95-14.41c0,0,3.48-17.89,5.47-59.39l1.24-53.67S140.51,256,134.79,251c0,0-.24-86.72-12.17-98.89,0,0-15.33-21.14-21.79-5.73,0,0,6.74-6.68,13.34,4,0,0,6.63,4.61,7,58.59l-.33,40.8s-8.45-1-10.44,8.45c0,0-3.72,6.46-9.94.25,0,0-5.22-6-8-6.21l1-8-10.19-9.44Z" fill="#00aeef"/><path d="M81.91,195c2.62-10.4,12.51-47,22.81-52,0,0,10.06-1.68,13.7,20.69,0,0,3.63,23.2,2.79,45.29,0,0-16-.78-37.38-10A3.36,3.36,0,0,1,81.91,195Z" fill="#686175" data-primary="true"/><path d="M81.91,195c2.62-10.4,12.51-47,22.81-52,0,0,10.06-1.68,13.7,20.69,0,0,3.63,23.2,2.79,45.29,0,0-16-.78-37.38-10A3.36,3.36,0,0,1,81.91,195Z" opacity="0.2"/><path d="M85.44,199.36s-9.65,41.09,4.67,51c0,0,7.47,1.87,27.7-5.29,0,0,31.13-11.52,47.63-22.1,0,0,11.2-7.78,24-10.59,0,0,4.37,0,4.37-3.15l.66-9.2s.5-6.46-3.23-2.48L189,200.65a7,7,0,0,1-4.72,2.81l-7.16.94a8,8,0,0,1-5.58-1.32L169.86,202a5.78,5.78,0,0,1-2.36-6.14c.06-.27.14-.55.23-.84a4.44,4.44,0,0,1,.25-.66c.55-1.2,2.52-5.81,1.81-8.32a1.08,1.08,0,0,0-1.82-.41l-2.91,3a6.07,6.07,0,0,0-1.55,3l-1.28,6.1a7.4,7.4,0,0,1-1.32,2.91,74.15,74.15,0,0,0-6.4,9.87,8.56,8.56,0,0,1-3.79,3.69c-6.95,3.48-25.93,12.16-41.28,11.64a1.5,1.5,0,0,1-1.35-2L113.42,208S102.69,206.84,85.44,199.36Z" fill="#ffad95"/><path d="M89.82,232.88l1.25-1.11a26.21,26.21,0,0,1,17.38-6.59h0" fill="none" stroke="#e37961" stroke-miterlimit="10"/><path d="M84.31,195s11.46,7.27,34.39,10.34" fill="none" stroke="#000" stroke-miterlimit="10" opacity="0.2"/><path d="M96.89,157a50.07,50.07,0,0,0,1.68,31.87" fill="none" stroke="#000" stroke-miterlimit="10" opacity="0.2"/><path d="M102.48,179.62s2.8,9.79,9,15.66" fill="none" stroke="#000" stroke-miterlimit="10" opacity="0.2"/><ellipse cx="100.47" cy="324.41" rx="29.71" ry="17.51" transform="translate(-231.03 398.18) rotate(-85.34)" fill="#fff"/><path d="M83.23,264.12S80.7,279,91,282.25" fill="none" stroke="#000" stroke-miterlimit="10" opacity="0.2"/><path d="M85.75,265.5s6,13.08,17.44,4.13" fill="none" stroke="#000" stroke-miterlimit="10" opacity="0.2"/><path d="M138.52,263.44s.92,13.76,12.16,22.94" fill="none" stroke="#000" stroke-miterlimit="10" opacity="0.2"/><path d="M136.69,273.53s1.83,17.21,15.37,34.65" fill="none" stroke="#000" stroke-miterlimit="10" opacity="0.2"/><path d="M82.61,253.51a16.71,16.71,0,0,1,14.25,5.63s8.51,10.37,16-.09a16.33,16.33,0,0,1,15.45-7,25.07,25.07,0,0,1,8.09,2.65,32.54,32.54,0,0,0,7.08,2.61c3.21.78,7.52,1.75,10.89,2.24a5,5,0,0,1,4.31,5.13c-.57,18.78-3.08,86.78-10.47,116" fill="none" stroke="#000" stroke-miterlimit="10" opacity="0.2"/><path d="M79.3,376.76s17.23,6.62,64.94,7.62" fill="none" stroke="#000" stroke-miterlimit="10" opacity="0.2"/><path d="M193.27,196.83l-.5,7.1a5.14,5.14,0,0,1-3.42,4.5l-4.23,1.49" fill="none" stroke="#e37961" stroke-miterlimit="10"/><rect x="288.98" y="357.37" width="509.24" height="52.7" fill="#86d6f4"/><rect x="288.98" y="214.59" width="509.24" height="52.7" fill="#86d6f4"/><rect x="288.98" y="280.29" width="509.24" height="33.45" fill="#f08459"/><rect x="288.98" y="267.29" width="509.24" height="46.45" fill="#aee1f4"/><rect x="288.98" y="112.11" width="509.24" height="46.45" fill="#aee1f4"/><rect x="288.98" y="534.47" width="509.24" height="30.47" fill="#aee1f4"/><rect x="288.98" y="410.08" width="509.24" height="60.06" fill="#aee1f4"/><rect x="288.98" y="93.09" width="23.86" height="515.58" fill="#aee1f4"/><rect x="774.35" y="93.09" width="23.86" height="539.14" fill="#aee1f4"/><path d="M656.79,341.33c1.08-8.62-5.51-7.46-4.34-10.57,2.19-3,5.8,2.66,6.16,4.77a12.32,12.32,0,0,1-.15,6.21A.86.86,0,0,1,656.79,341.33Z" fill="#508c6a"/><path d="M679.49,326.07s-2.34,7.7-8.71,11.77-14.34,3-14.34,3,2.35-7.71,8.71-11.78S679.49,326.07,679.49,326.07Z" fill="#508c6a"/><path d="M674.63,365.62c-1-2.3-7.86-11.28-8.11-18.62-.33-9.72-17.26-8.82-16.56.88.55,7.53-5.31,16.92-6,19.19-2.51,7.89-4.41,22.45,16.11,21.72h0l.4,0h.4C681.16,387.31,677.94,373.24,674.63,365.62Z" fill="#508c6a"/><path d="M663.51,386.72c0,.43-1,.93-2.26,1.09s-2.41,0-2.47-.48,1-.92,2.26-1.09S663.45,386.28,663.51,386.72Z" fill="#508c6a"/><path d="M693.86,341.33c1.08-8.62-5.51-7.46-4.34-10.57,2.19-3,5.8,2.66,6.16,4.77a12.32,12.32,0,0,1-.15,6.21A.86.86,0,0,1,693.86,341.33Z" fill="#508c6a"/><path d="M716.56,326.07s-2.34,7.7-8.71,11.77-14.34,3-14.34,3,2.35-7.71,8.71-11.78S716.56,326.07,716.56,326.07Z" fill="#508c6a"/><path d="M711.7,365.62c-1-2.3-7.86-11.28-8.11-18.62-.33-9.72-17.26-8.82-16.56.88.55,7.53-5.31,16.92-6,19.19-2.51,7.89-4.41,22.45,16.11,21.72h0l.4,0h.4C718.23,387.31,715,373.24,711.7,365.62Z" fill="#508c6a"/><path d="M700.57,386.72c.06.43-1,.93-2.26,1.09s-2.4,0-2.46-.48.95-.92,2.26-1.09S700.52,386.28,700.57,386.72Z" fill="#508c6a"/><path d="M729.72,341.33c1.08-8.62-5.51-7.46-4.33-10.57,2.19-3,5.8,2.66,6.16,4.77a12.44,12.44,0,0,1-.16,6.21A.86.86,0,0,1,729.72,341.33Z" fill="#508c6a"/><path d="M752.42,326.07s-2.34,7.7-8.7,11.77-14.34,3-14.34,3,2.34-7.71,8.7-11.78S752.42,326.07,752.42,326.07Z" fill="#508c6a"/><path d="M747.56,365.62c-1-2.3-7.86-11.28-8.11-18.62-.33-9.72-17.26-8.82-16.56.88.55,7.53-5.3,16.92-6,19.19-2.51,7.89-4.41,22.45,16.11,21.72h0l.4,0h.4C754.09,387.31,750.87,373.24,747.56,365.62Z" fill="#508c6a"/><path d="M736.44,386.72c0,.43-1,.93-2.26,1.09s-2.41,0-2.47-.48,1-.92,2.26-1.09S736.38,386.28,736.44,386.72Z" fill="#508c6a"/><path d="M640.36,358.62c-2-8.47,4.7-8,3.21-11-2.49-2.78-5.49,3.25-5.63,5.39a12.44,12.44,0,0,0,.81,6.16A.86.86,0,0,0,640.36,358.62Z" fill="#000644"/><path d="M616.19,345.81s3.14,7.41,9.89,10.8,14.57,1.46,14.57,1.46-3.13-7.42-9.88-10.81S616.19,345.81,616.19,345.81Z" fill="#56a176"/><path d="M625.16,384.63c.75-2.39,6.64-12,6.12-19.37-.69-9.69,16.25-10.56,16.56-.85.24,7.56,7,16.28,8,18.46,3.32,7.59,6.73,21.86-13.75,23.28h0l-.4,0-.4,0h0C620.93,406.88,622.67,392.56,625.16,384.63Z" fill="#75c775"/><path d="M638.43,404.46c0,.44,1,.82,2.36.85s2.39-.3,2.4-.73-1.05-.83-2.36-.86S638.44,404,638.43,404.46Z" fill="#000644"/><path d="M711.19,358.69c1.07-8.62-5.51-7.46-4.34-10.57,2.19-3,5.8,2.66,6.16,4.77a12.44,12.44,0,0,1-.15,6.21A.86.86,0,0,1,711.19,358.69Z" fill="#000644"/><path d="M727,336.16s.87,8-3.38,14.25-12,8.36-12,8.36-.87-8,3.39-14.25S727,336.16,727,336.16Z" fill="#56a176"/><path d="M729,383c-1-2.31-7.87-11.28-8.11-18.63-.33-9.71-17.26-8.81-16.56.88.55,7.54-5.31,16.93-6,19.2-2.51,7.89-4.41,22.45,16.11,21.72h0l.4,0,.4,0h0C735.56,404.66,732.34,390.6,729,383Z" fill="#75c775"/><path d="M717.9,404.08c.06.43-.95.92-2.26,1.09s-2.41,0-2.46-.48,1-.92,2.26-1.09S717.85,403.64,717.9,404.08Z" fill="#000644"/><path d="M673.41,358.69c1.08-8.62-5.5-7.46-4.33-10.57,2.19-3,5.8,2.66,6.16,4.77a12.55,12.55,0,0,1-.15,6.21A.87.87,0,0,1,673.41,358.69Z" fill="#000644"/><path d="M696.11,343.43s-2.34,7.7-8.7,11.77-14.34,3-14.34,3,2.34-7.7,8.7-11.77S696.11,343.43,696.11,343.43Z" fill="#56a176"/><path d="M691.25,383c-1-2.31-7.86-11.28-8.11-18.63-.33-9.71-17.26-8.81-16.55.88.54,7.54-5.31,16.93-6,19.2-2.52,7.89-4.42,22.45,16.1,21.72h0l.4,0,.4,0h0C697.78,404.66,694.56,390.6,691.25,383Z" fill="#75c775"/><path d="M680.13,404.08c.06.43-1,.92-2.26,1.09s-2.41,0-2.47-.48,1-.92,2.26-1.09S680.07,403.64,680.13,404.08Z" fill="#000644"/><path d="M752.07,359.9c-1.4-8.57,5.22-7.66,3.93-10.72-2.3-2.94-5.69,2.88-6,5a12.45,12.45,0,0,0,.39,6.21A.86.86,0,0,0,752.07,359.9Z" fill="#000644"/><path d="M728.81,345.51s2.63,7.61,9.14,11.44,14.45,2.42,14.45,2.42-2.64-7.61-9.15-11.43S728.81,345.51,728.81,345.51Z" fill="#56a176"/><path d="M735.17,384.85c.91-2.34,7.43-11.57,7.39-18.92,0-9.72,16.92-9.46,16.58.25-.26,7.56,6,16.71,6.76,19,2.81,7.79,5.25,22.26-15.28,22.31h-.8C729.46,406.77,732.15,392.59,735.17,384.85Z" fill="#75c775"/><path d="M747.08,405.51c0,.44,1,.89,2.3,1s2.4-.13,2.44-.57-1-.89-2.3-1S747.12,405.08,747.08,405.51Z" fill="#000644"/><path d="M517.65,394.05c-3.09,7-13.47,9.28-23.17,5s-15.07-13.43-12-20.46,13.47-9.28,23.18-5S520.75,387,517.65,394.05Z" fill="#f5e34c"/><path d="M522.11,396a4.59,4.59,0,1,1-2.35-6.05A4.59,4.59,0,0,1,522.11,396Z" fill="#f5e34c"/><path d="M486.7,380.45a4.59,4.59,0,1,1-2.35-6.05A4.59,4.59,0,0,1,486.7,380.45Z" fill="#f5e34c"/><path d="M498.92,365.1c2.18,7.37,12.18,10.92,22.36,7.92s16.65-11.4,14.48-18.78-12.18-10.91-22.35-7.92S496.75,357.73,498.92,365.1Z" fill="#f5e34c"/><path d="M494.25,366.48a4.59,4.59,0,1,0,3.11-5.7A4.59,4.59,0,0,0,494.25,366.48Z" fill="#f5e34c"/><path d="M531.36,355.54a4.59,4.59,0,1,0,3.1-5.7A4.6,4.6,0,0,0,531.36,355.54Z" fill="#f5e34c"/><path d="M540.62,365.1C542.79,372.47,552.8,376,563,373s16.66-11.4,14.49-18.78-12.18-10.91-22.36-7.92S538.45,357.73,540.62,365.1Z" fill="#f5e34c"/><path d="M536,366.48a4.59,4.59,0,1,0,3.1-5.7A4.58,4.58,0,0,0,536,366.48Z" fill="#f5e34c"/><path d="M573.05,355.54a4.59,4.59,0,1,0,3.11-5.7A4.6,4.6,0,0,0,573.05,355.54Z" fill="#f5e34c"/><path d="M558.23,394.05c-3.09,7-13.47,9.28-23.17,5s-15.07-13.43-12-20.46,13.47-9.28,23.18-5S561.33,387,558.23,394.05Z" fill="#f5e34c"/><path d="M562.69,396a4.59,4.59,0,1,1-2.35-6.05A4.59,4.59,0,0,1,562.69,396Z" fill="#f5e34c"/><path d="M527.28,380.45a4.59,4.59,0,1,1-2.35-6.05A4.59,4.59,0,0,1,527.28,380.45Z" fill="#f5e34c"/><path d="M559,339c-1.67,7.51-11.41,11.73-21.76,9.43s-17.4-10.24-15.73-17.74,11.4-11.73,21.76-9.43S560.62,331.46,559,339Z" fill="#f5e34c"/><path d="M563.71,340a4.59,4.59,0,1,1-3.48-5.48A4.6,4.6,0,0,1,563.71,340Z" fill="#f5e34c"/><path d="M526,331.64a4.59,4.59,0,1,1-3.49-5.47A4.59,4.59,0,0,1,526,331.64Z" fill="#f5e34c"/><path d="M597.86,394.05c-3.09,7-13.47,9.28-23.18,5s-15.07-13.43-12-20.46,13.47-9.28,23.17-5S601,387,597.86,394.05Z" fill="#f5e34c"/><path d="M602.32,396A4.59,4.59,0,1,1,600,390,4.59,4.59,0,0,1,602.32,396Z" fill="#f5e34c"/><path d="M566.91,380.45a4.59,4.59,0,1,1-2.36-6.05A4.59,4.59,0,0,1,566.91,380.45Z" fill="#f5e34c"/><path d="M362.32,346a7.43,7.43,0,0,0-5.1,1.7,5,5,0,0,1,.15-1.6,18.82,18.82,0,0,1,2.56-7c1.49-1.72-1.47-3.81-2.59-1.82a19.7,19.7,0,0,0-1.87,5.32,10.47,10.47,0,0,0-2-4.68c-3.34-4.27-10.22-4.47-10.22-4.47s-1.47,6.72,1.87,11a9.65,9.65,0,0,0,2.42,2.15c-4.47,2.07-7.76,8.92-7.76,17.05,0,9.77,4.75,17.69,10.61,17.69a7.5,7.5,0,0,0,4.95-2,7.25,7.25,0,0,0,4.37,2c5.84.42,11.15-7.14,11.86-16.88S368.17,346.37,362.32,346Z" fill="#452b52"/><path d="M396.9,346a7.47,7.47,0,0,0-5.11,1.7,5.62,5.62,0,0,1,.15-1.6,19,19,0,0,1,2.57-7c1.49-1.72-1.48-3.81-2.59-1.82a19.37,19.37,0,0,0-1.87,5.32,10.49,10.49,0,0,0-2-4.68c-3.33-4.27-10.21-4.47-10.21-4.47s-1.47,6.72,1.87,11a9.48,9.48,0,0,0,2.42,2.15c-4.48,2.07-7.77,8.92-7.77,17.05,0,9.77,4.75,17.69,10.61,17.69a7.48,7.48,0,0,0,4.95-2,7.3,7.3,0,0,0,4.38,2c5.84.42,11.15-7.14,11.86-16.88S402.74,346.37,396.9,346Z" fill="#452b52"/><path d="M431.14,346a7.47,7.47,0,0,0-5.11,1.7,5.28,5.28,0,0,1,.15-1.6,18.84,18.84,0,0,1,2.57-7c1.49-1.72-1.48-3.81-2.59-1.82a19.37,19.37,0,0,0-1.87,5.32,10.49,10.49,0,0,0-2-4.68c-3.34-4.27-10.22-4.47-10.22-4.47s-1.46,6.72,1.88,11a9.31,9.31,0,0,0,2.42,2.15c-4.48,2.07-7.77,8.92-7.77,17.05,0,9.77,4.75,17.69,10.61,17.69a7.48,7.48,0,0,0,4.95-2,7.3,7.3,0,0,0,4.38,2c5.84.42,11.15-7.14,11.86-16.88S437,346.37,431.14,346Z" fill="#452b52"/><path d="M344.85,363.9a19.06,19.06,0,0,0-2.57,7c-.42,1.13.4,3.46-1.32,3.58-2-.43-.73-5.11-.66-6.68a20,20,0,0,1,2-5.73C343.37,360.1,346.34,362.18,344.85,363.9Z" fill="#000644"/><path d="M338.44,362.73c3.33,4.27,1.87,11,1.87,11s-6.88-.2-10.22-4.47-1.87-11-1.87-11S335.1,358.45,338.44,362.73Z" fill="#56a176"/><path d="M347.24,370.8a8.07,8.07,0,0,0-6.23,2.68,7.88,7.88,0,0,0-5.66-2.73c-5.86,0-10.6,7.93-10.6,17.7s4.74,17.69,10.6,17.69a7.48,7.48,0,0,0,4.95-2,7.3,7.3,0,0,0,4.38,2c5.84.42,11.15-7.14,11.86-16.88S353.08,371.22,347.24,370.8Z" fill="#5f466e"/><path d="M379.48,363.9a18.89,18.89,0,0,0-2.57,7c-.42,1.13.4,3.46-1.32,3.58-2-.43-.74-5.11-.66-6.68a20,20,0,0,1,2-5.73C378,360.1,381,362.18,379.48,363.9Z" fill="#000644"/><path d="M373.06,362.73c3.34,4.27,1.88,11,1.88,11s-6.88-.2-10.22-4.47-1.88-11-1.88-11S369.72,358.45,373.06,362.73Z" fill="#56a176"/><path d="M381.87,370.8a8.07,8.07,0,0,0-6.23,2.68,7.88,7.88,0,0,0-5.66-2.73c-5.86,0-10.61,7.93-10.61,17.7s4.75,17.69,10.61,17.69a7.48,7.48,0,0,0,4.95-2,7.3,7.3,0,0,0,4.38,2c5.84.42,11.15-7.14,11.86-16.88S387.71,371.22,381.87,370.8Z" fill="#5f466e"/><path d="M414.05,363.9a18.87,18.87,0,0,0-2.56,7c-.42,1.13.4,3.46-1.32,3.58-2-.43-.74-5.11-.66-6.68a20,20,0,0,1,1.95-5.73C412.58,360.1,415.55,362.18,414.05,363.9Z" fill="#000644"/><path d="M407.64,362.73c3.34,4.27,1.87,11,1.87,11s-6.88-.2-10.22-4.47-1.87-11-1.87-11S404.3,358.45,407.64,362.73Z" fill="#56a176"/><path d="M416.44,370.8a8.07,8.07,0,0,0-6.23,2.68,7.84,7.84,0,0,0-5.65-2.73c-5.86,0-10.61,7.93-10.61,17.7s4.75,17.69,10.61,17.69a7.48,7.48,0,0,0,4.95-2,7.25,7.25,0,0,0,4.37,2c5.85.42,11.16-7.14,11.86-16.88S422.29,371.22,416.44,370.8Z" fill="#5f466e"/><path d="M448.29,363.9a18.87,18.87,0,0,0-2.56,7c-.43,1.13.4,3.46-1.32,3.58-2-.43-.74-5.11-.66-6.68a20,20,0,0,1,1.95-5.73C446.82,360.1,449.78,362.18,448.29,363.9Z" fill="#000644"/><path d="M441.88,362.73c3.34,4.27,1.87,11,1.87,11s-6.88-.2-10.22-4.47-1.87-11-1.87-11S438.54,358.45,441.88,362.73Z" fill="#56a176"/><path d="M450.68,370.8a8.07,8.07,0,0,0-6.23,2.68,7.84,7.84,0,0,0-5.65-2.73c-5.86,0-10.61,7.93-10.61,17.7s4.75,17.69,10.61,17.69a7.5,7.5,0,0,0,4.95-2,7.25,7.25,0,0,0,4.37,2c5.84.42,11.15-7.14,11.86-16.88S456.53,371.22,450.68,370.8Z" fill="#5f466e"/><path d="M403.32,203.35a17,17,0,0,1-8.2,14.26,22.63,22.63,0,0,1-21.16,0,17,17,0,0,1-8.27-14.31c0-8.95,8.81-14.81,18.81-14.81S403.32,194.4,403.32,203.35Z" fill="#f48225" data-secondary="true"/><path d="M385.87,190.11A11.47,11.47,0,0,1,372,184.92a11.48,11.48,0,0,1,13.84,5.19Z" fill="#508c6a"/><path d="M397.37,186.21a11.48,11.48,0,0,1-14.26,3.9,11.48,11.48,0,0,1,14.26-3.9Z" fill="#508c6a"/><path d="M423.71,222.37a17,17,0,0,1-8.2,14.26,22.67,22.67,0,0,1-21.16,0,17,17,0,0,1-8.27-14.3c0-9,8.81-14.81,18.81-14.81S423.71,213.42,423.71,222.37Z" fill="#f48225" data-secondary="true"/><path d="M423.71,222.37a17,17,0,0,1-8.2,14.26,22.67,22.67,0,0,1-21.16,0,17,17,0,0,1-8.27-14.3c0-9,8.81-14.81,18.81-14.81S423.71,213.42,423.71,222.37Z" opacity="0.2"/><path d="M406.26,209.12a11.48,11.48,0,0,1-13.84-5.18,11.49,11.49,0,0,1,13.84,5.18Z" fill="#508c6a"/><path d="M417.76,205.22a11.5,11.5,0,0,1-14.26,3.91,11.5,11.5,0,0,1,14.26-3.91Z" fill="#508c6a"/><path d="M380.2,222.37a17,17,0,0,1-8.2,14.26,22.67,22.67,0,0,1-21.16,0,17,17,0,0,1-8.27-14.3c0-9,8.81-14.81,18.81-14.81S380.2,213.42,380.2,222.37Z" fill="#f48225" data-secondary="true"/><path d="M380.2,222.37a17,17,0,0,1-8.2,14.26,22.67,22.67,0,0,1-21.16,0,17,17,0,0,1-8.27-14.3c0-9,8.81-14.81,18.81-14.81S380.2,213.42,380.2,222.37Z" opacity="0.2"/><path d="M362.75,209.12a11.48,11.48,0,0,1-13.84-5.18,11.49,11.49,0,0,1,13.84,5.18Z" fill="#508c6a"/><path d="M374.25,205.22A11.5,11.5,0,0,1,360,209.13a11.5,11.5,0,0,1,14.26-3.91Z" fill="#508c6a"/><path d="M361.38,247.44a17,17,0,0,1-8.19,14.26,22.69,22.69,0,0,1-21.17,0,17,17,0,0,1-8.27-14.3c0-8.95,8.81-14.81,18.82-14.81S361.38,238.49,361.38,247.44Z" fill="#f48225" data-secondary="true"/><path d="M343.93,234.19A11.49,11.49,0,0,1,330.09,229a11.49,11.49,0,0,1,13.84,5.18Z" fill="#508c6a"/><path d="M355.43,230.29a11.5,11.5,0,0,1-14.26,3.91,11.5,11.5,0,0,1,14.26-3.91Z" fill="#508c6a"/><path d="M402,247.44a17,17,0,0,1-8.2,14.26,22.69,22.69,0,0,1-21.17,0,17,17,0,0,1-8.27-14.3c0-8.95,8.81-14.81,18.82-14.81S402,238.49,402,247.44Z" fill="#f48225" data-secondary="true"/><path d="M384.5,234.19A11.49,11.49,0,0,1,370.66,229a11.48,11.48,0,0,1,13.84,5.18Z" fill="#508c6a"/><path d="M396,230.29a11.49,11.49,0,0,1-14.25,3.91A11.49,11.49,0,0,1,396,230.29Z" fill="#508c6a"/><path d="M442.53,247.44a17,17,0,0,1-8.2,14.26,22.69,22.69,0,0,1-21.17,0,17,17,0,0,1-8.27-14.3c0-8.95,8.81-14.81,18.82-14.81S442.53,238.49,442.53,247.44Z" fill="#f48225" data-secondary="true"/><path d="M425.94,234.19A11.49,11.49,0,0,1,412.1,229a11.48,11.48,0,0,1,13.84,5.18Z" fill="#508c6a"/><path d="M437.44,230.29a11.49,11.49,0,0,1-14.25,3.91,11.49,11.49,0,0,1,14.25-3.91Z" fill="#508c6a"/><path d="M550.51,196.75c-5.52-6.87-19,3.89-24.73,7-9.82,5.39-19.65,10.76-29.58,15.95-2.74,1.43-5.85,2.58-8.44,4.25-4.95,3.18-4.71,8.93.85,11.1,5,1.94,12.3.56,17.41-.32a63.77,63.77,0,0,0,23.86-9C534.31,222.85,556.85,204.66,550.51,196.75Z" fill="#508c6a"/><path d="M579.34,197c-5.52-6.87-19,3.89-24.73,7C544.79,209.45,535,214.82,525,220c-2.74,1.43-5.85,2.58-8.45,4.25-4.94,3.18-4.7,8.93.86,11.1,5,1.94,12.3.56,17.41-.32a63.77,63.77,0,0,0,23.86-9C563.14,223.13,585.68,204.94,579.34,197Z" fill="#508c6a"/><path d="M608,201c-5.52-6.87-19,3.88-24.73,7-9.81,5.39-19.65,10.76-29.58,15.94-2.74,1.43-5.85,2.59-8.44,4.26-5,3.18-4.71,8.92.85,11.09,5,1.95,12.3.57,17.41-.31a63.94,63.94,0,0,0,23.86-9C591.77,227,614.31,208.85,608,201Z" fill="#508c6a"/><path d="M540.08,217.81c-5.51-6.87-19,3.89-24.72,7-9.82,5.39-19.66,10.75-29.59,15.94-2.74,1.43-5.85,2.58-8.44,4.25-4.95,3.18-4.71,8.93.86,11.1,5,1.94,12.3.57,17.4-.32a63.77,63.77,0,0,0,23.86-9C523.88,243.91,546.42,225.72,540.08,217.81Z" fill="#75c775"/><path d="M486.66,243.76l-1.44-2.17a1.2,1.2,0,0,1,.34-1.65h0a1.19,1.19,0,0,1,1.65.34l1.43,2.17a1.18,1.18,0,0,1-.33,1.64h0A1.18,1.18,0,0,1,486.66,243.76Z" fill="#56a176"/><path d="M497.75,247.43l-1.43-2.16a1.2,1.2,0,0,1,.33-1.65h0a1.2,1.2,0,0,1,1.65.33l1.44,2.17a1.19,1.19,0,0,1-.34,1.65h0A1.2,1.2,0,0,1,497.75,247.43Z" fill="#56a176"/><path d="M509.13,236.49l-1.43-2.16a1.18,1.18,0,0,1,.33-1.65h0a1.2,1.2,0,0,1,1.65.33l1.44,2.17a1.19,1.19,0,0,1-.34,1.65h0A1.19,1.19,0,0,1,509.13,236.49Z" fill="#56a176"/><path d="M524.77,241.49l-1.43-2.17a1.18,1.18,0,0,1,.33-1.65h0a1.19,1.19,0,0,1,1.65.34l1.44,2.16a1.19,1.19,0,0,1-.34,1.65h0A1.2,1.2,0,0,1,524.77,241.49Z" fill="#56a176"/><path d="M523.26,223.28l-1.44-2.16a1.19,1.19,0,0,1,.34-1.65h0a1.19,1.19,0,0,1,1.65.33l1.43,2.17a1.19,1.19,0,0,1-.33,1.65h0A1.19,1.19,0,0,1,523.26,223.28Z" fill="#56a176"/><path d="M484.75,257.15,483.32,255a1.18,1.18,0,0,1,.33-1.65h0a1.18,1.18,0,0,1,1.65.33l1.43,2.17a1.18,1.18,0,0,1-.33,1.65h0A1.19,1.19,0,0,1,484.75,257.15Z" fill="#56a176"/><path d="M475.57,251.88a6.85,6.85,0,0,1-8.62.54,6.85,6.85,0,0,1,8.62-.54Z" fill="#f5e34c"/><path d="M475.57,251.88a6.82,6.82,0,0,1-7.74,3.82,6.82,6.82,0,0,1,7.74-3.82Z" fill="#f5e34c"/><path d="M475.57,251.88a6.64,6.64,0,0,1-.85,3.37,5.88,5.88,0,0,1-2.71,2.21,5.88,5.88,0,0,1,.71-3.42A5.68,5.68,0,0,1,475.57,251.88Z" fill="#f5e34c"/><path d="M573.39,220c-5.52-6.86-19,3.89-24.73,7C538.84,232.4,529,237.77,519.08,243c-2.74,1.43-5.85,2.59-8.44,4.26-4.95,3.18-4.71,8.92.85,11.09,5,1.95,12.3.57,17.41-.31a63.94,63.94,0,0,0,23.86-9C557.19,246.07,579.73,227.88,573.39,220Z" fill="#56a176"/><path d="M520,245.92l-1.44-2.16a1.19,1.19,0,0,1,.34-1.65h0a1.19,1.19,0,0,1,1.64.33l1.44,2.17a1.19,1.19,0,0,1-.34,1.65h0A1.18,1.18,0,0,1,520,245.92Z" fill="#75c775"/><path d="M531.06,249.6l-1.43-2.17a1.18,1.18,0,0,1,.33-1.65h0a1.19,1.19,0,0,1,1.65.34l1.44,2.16a1.19,1.19,0,0,1-.34,1.65h0A1.2,1.2,0,0,1,531.06,249.6Z" fill="#75c775"/><path d="M542.44,238.66,541,236.49a1.18,1.18,0,0,1,.33-1.65h0a1.19,1.19,0,0,1,1.65.34l1.43,2.16a1.18,1.18,0,0,1-.33,1.65h0A1.18,1.18,0,0,1,542.44,238.66Z" fill="#75c775"/><path d="M558.08,243.65l-1.44-2.17a1.18,1.18,0,0,1,.34-1.64h0a1.18,1.18,0,0,1,1.65.33l1.43,2.17a1.18,1.18,0,0,1-.33,1.65h0A1.19,1.19,0,0,1,558.08,243.65Z" fill="#75c775"/><path d="M556.57,225.45l-1.44-2.17a1.19,1.19,0,0,1,.34-1.65h0a1.18,1.18,0,0,1,1.64.34l1.44,2.16a1.19,1.19,0,0,1-.34,1.65h0A1.19,1.19,0,0,1,556.57,225.45Z" fill="#75c775"/><path d="M518.06,259.32l-1.44-2.17a1.19,1.19,0,0,1,.34-1.65h0a1.19,1.19,0,0,1,1.65.34L520,258a1.19,1.19,0,0,1-.33,1.65h0A1.2,1.2,0,0,1,518.06,259.32Z" fill="#75c775"/><path d="M508.88,254a6.83,6.83,0,0,1-8.62.55,6.83,6.83,0,0,1,8.62-.55Z" fill="#f5e34c"/><path d="M508.88,254a7.85,7.85,0,0,1-3.19,3.29,7.75,7.75,0,0,1-4.55.54,6.84,6.84,0,0,1,7.74-3.83Z" fill="#f5e34c"/><path d="M508.88,254a6.68,6.68,0,0,1-.85,3.38,6,6,0,0,1-2.71,2.21,6,6,0,0,1,.7-3.43A5.8,5.8,0,0,1,508.88,254Z" fill="#f5e34c"/><path d="M609.42,220.17c-5.51-6.87-19,3.89-24.72,7-9.82,5.39-19.66,10.76-29.58,16-2.74,1.43-5.85,2.58-8.45,4.25-4.95,3.18-4.71,8.93.86,11.1,5,1.94,12.3.56,17.4-.32a63.82,63.82,0,0,0,23.87-9C593.22,246.27,615.77,228.08,609.42,220.17Z" fill="#75c775"/><path d="M556,246.12,554.57,244a1.18,1.18,0,0,1,.33-1.65h0a1.19,1.19,0,0,1,1.65.34L558,244.8a1.18,1.18,0,0,1-.33,1.65h0A1.2,1.2,0,0,1,556,246.12Z" fill="#56a176"/><path d="M567.1,249.79l-1.44-2.17A1.18,1.18,0,0,1,566,246h0a1.17,1.17,0,0,1,1.64.33l1.44,2.17a1.2,1.2,0,0,1-.33,1.65h0A1.19,1.19,0,0,1,567.1,249.79Z" fill="#56a176"/><path d="M578.48,238.85,577,236.69a1.2,1.2,0,0,1,.33-1.65h0a1.18,1.18,0,0,1,1.65.33l1.44,2.17a1.19,1.19,0,0,1-.34,1.65h0A1.18,1.18,0,0,1,578.48,238.85Z" fill="#56a176"/><path d="M594.11,243.84l-1.43-2.16A1.2,1.2,0,0,1,593,240h0a1.2,1.2,0,0,1,1.65.33l1.44,2.17a1.19,1.19,0,0,1-.34,1.65h0A1.2,1.2,0,0,1,594.11,243.84Z" fill="#56a176"/><path d="M592.6,225.64l-1.43-2.17a1.17,1.17,0,0,1,.33-1.64h0a1.18,1.18,0,0,1,1.65.33l1.43,2.17a1.17,1.17,0,0,1-.33,1.64h0A1.18,1.18,0,0,1,592.6,225.64Z" fill="#56a176"/><path d="M554.09,259.51l-1.43-2.17a1.19,1.19,0,0,1,.33-1.64h0a1.18,1.18,0,0,1,1.65.33l1.44,2.17a1.18,1.18,0,0,1-.34,1.64h0A1.18,1.18,0,0,1,554.09,259.51Z" fill="#56a176"/><path d="M544.91,254.23a6.83,6.83,0,0,1-8.62.55,7.88,7.88,0,0,1,4.22-1.81A7.78,7.78,0,0,1,544.91,254.23Z" fill="#f5e34c"/><path d="M544.91,254.23a6.84,6.84,0,0,1-7.74,3.83,6.84,6.84,0,0,1,7.74-3.83Z" fill="#f5e34c"/><path d="M544.91,254.23a6.67,6.67,0,0,1-.85,3.38,5.88,5.88,0,0,1-2.71,2.21,6,6,0,0,1,.71-3.42A5.73,5.73,0,0,1,544.91,254.23Z" fill="#f5e34c"/><path d="M711.46,184.38c-7.08-.53-10,3.85-11.15,6.47a6,6,0,0,0-1.65.4c-3.18,1.3-4.52,5.37-4.52,5.37a11.47,11.47,0,0,0,3.15,1c-2.56,3-7.71,6.28-18.36,9.09C658.7,212,653.69,220.61,657.73,229c4.79,10,13,13,22.83,9.36a67.06,67.06,0,0,0,35.55-30.92,14,14,0,0,0,2.89.71,13,13,0,0,0-.06-6.44C722.44,195.6,723.47,185.29,711.46,184.38Z" fill="#452b52"/><path d="M679,182.31c-7.08-.53-10,3.84-11.16,6.46a6,6,0,0,0-1.64.41c-3.18,1.3-4.52,5.37-4.52,5.37a11.88,11.88,0,0,0,3.15,1c-2.56,3-7.71,6.27-18.36,9.08-20.23,5.34-25.24,13.92-21.2,22.34,4.79,10,13,13,22.83,9.37a67.06,67.06,0,0,0,35.55-30.92,14,14,0,0,0,2.89.71,13,13,0,0,0-.06-6.44C690,193.52,691.05,183.22,679,182.31Z" fill="#452b52"/><path d="M754.07,182.31c-7.08-.53-10,3.84-11.15,6.46a6.14,6.14,0,0,0-1.65.41c-3.17,1.3-4.51,5.37-4.51,5.37a11.73,11.73,0,0,0,3.14,1c-2.55,3-7.7,6.27-18.35,9.08C701.31,210,696.31,218.54,700.34,227c4.79,10,13,13,22.83,9.37a67,67,0,0,0,35.55-30.92,14,14,0,0,0,2.9.71,13,13,0,0,0-.07-6.44C765.06,193.52,766.09,183.22,754.07,182.31Z" fill="#452b52"/><path d="M676.54,226.38a67,67,0,0,1-44.09,33.36c-10.27,2.28-18-1.82-21.36-12.36-2.87-8.89,3.24-16.72,24-19.28,17.35-2.14,21.13-7.29,22.45-11C657.55,217.05,680.92,209.22,676.54,226.38Z" fill="#5f466e"/><path d="M657.55,217.05a10.68,10.68,0,0,1,12.79-6.68c12.06,2.57,9.25,13.06,4.77,18.6C672.27,228.72,657.55,217.05,657.55,217.05Z" fill="#56a176"/><path d="M674.76,226.56c1.85,3.68-.15,8.42-.15,8.42s-5-1.23-6.84-4.91.16-8.42.16-8.42S672.92,222.88,674.76,226.56Z" fill="#56a176"/><path d="M666.37,225.42c-2.8,3-7.88,2.7-7.88,2.7s-.54-5.06,2.26-8,7.88-2.69,7.88-2.69S669.17,222.46,666.37,225.42Z" fill="#56a176"/><path d="M658.36,221.76c-3.32.86-6.83-1.59-6.83-1.59s1.88-3.86,5.2-4.72,6.83,1.6,6.83,1.6S661.69,220.9,658.36,221.76Z" fill="#56a176"/><path d="M724.55,225.49a67,67,0,0,1-44.09,33.35c-10.26,2.29-18-1.81-21.36-12.35-2.86-8.89,3.25-16.72,24-19.29,17.34-2.14,21.13-7.29,22.44-11C705.56,216.15,728.94,208.32,724.55,225.49Z" fill="#5f466e"/><path d="M705.56,216.15a10.68,10.68,0,0,1,12.79-6.68c12.06,2.58,9.26,13.07,4.77,18.61C720.28,227.82,705.56,216.15,705.56,216.15Z" fill="#56a176"/><path d="M722.78,225.67c1.84,3.67-.16,8.41-.16,8.41s-5-1.23-6.83-4.91.15-8.41.15-8.41S720.93,222,722.78,225.67Z" fill="#56a176"/><path d="M714.39,224.52c-2.8,3-7.88,2.7-7.88,2.7s-.55-5.06,2.25-8,7.88-2.69,7.88-2.69S717.18,221.57,714.39,224.52Z" fill="#56a176"/><path d="M706.38,220.87c-3.32.86-6.83-1.6-6.83-1.6s1.87-3.86,5.19-4.72,6.83,1.6,6.83,1.6S709.7,220,706.38,220.87Z" fill="#56a176"/><path d="M765.93,225.26a67,67,0,0,1-44.09,33.36c-10.27,2.29-18-1.81-21.36-12.35-2.87-8.89,3.24-16.73,24-19.29,17.35-2.14,21.13-7.29,22.45-11C746.94,215.93,770.31,208.1,765.93,225.26Z" fill="#5f466e"/><path d="M746.94,215.93a10.68,10.68,0,0,1,12.79-6.68c12.06,2.57,9.25,13.07,4.77,18.61C761.66,227.6,746.94,215.93,746.94,215.93Z" fill="#56a176"/><path d="M764.16,225.44c1.84,3.68-.16,8.42-.16,8.42s-5-1.23-6.84-4.91.16-8.41.16-8.41S762.31,221.77,764.16,225.44Z" fill="#56a176"/><path d="M755.76,224.3c-2.8,3-7.88,2.7-7.88,2.7s-.54-5.06,2.26-8,7.88-2.69,7.88-2.69S758.56,221.35,755.76,224.3Z" fill="#56a176"/><path d="M747.75,220.65c-3.32.86-6.83-1.6-6.83-1.6s1.88-3.86,5.2-4.72,6.83,1.6,6.83,1.6S751.08,219.79,747.75,220.65Z" fill="#56a176"/><path d="M370.3,466.43c9.71,13.18,1.29,35.87-18.81,50.68s-44.27,16.11-54,2.92-1.29-35.87,18.81-50.67S360.59,453.24,370.3,466.43Z" fill="#4e916b"/><path d="M332.9,558.26a24.91,24.91,0,0,1-3.53,2.91,25.9,25.9,0,0,1-3.64,2,32,32,0,0,1-14.49,2.69,43.07,43.07,0,0,1-4.32-.35c-12.39-1.64-26.12-8.62-37.6-20.2-11.09-11.18-17.87-24.42-19.7-36.49a41.33,41.33,0,0,1-.45-4.36,35.27,35.27,0,0,1,1.12-11.28,28.11,28.11,0,0,1,1.84-4.84A24.65,24.65,0,0,1,262.2,477.7,26.66,26.66,0,0,1,266,476c6.23-2.32,13.63-2.53,21.37-.77,1.65.38,3.33.85,5,1.41h0a72.55,72.55,0,0,1,28.19,18,75.14,75.14,0,0,1,15.6,22.64,61.14,61.14,0,0,1,2.24,6h0c3,9.51,3.19,18.75.27,26.25a25.49,25.49,0,0,1-1.79,3.72A24.5,24.5,0,0,1,332.9,558.26Z" fill="#56a176"/><path d="M311.24,565.9a43.07,43.07,0,0,1-4.32-.35l-2.45-9.78-19.56-6-1.48-15.31-17-8.38L261,511.85l-11.37-3a41.33,41.33,0,0,1-.45-4.36l14.91,3.92,5.58,14.72,17.64,8.68,1.43,14.86,19.16,5.84Z" fill="#75c775"/><path d="M329.37,561.17a25.9,25.9,0,0,1-3.64,2l-5.23-15-15.69-9.83L303,527.51l-17.2-7.29-15.21-20-17.72-2.77-2.6-4.2a28.11,28.11,0,0,1,1.84-4.84l3.26,5.28,17.49,2.72,15.55,20.49,18.28,7.74,1.85,11.25,15.34,9.61Z" fill="#75c775"/><path d="M336.84,553.16l-4.07-1.65-6.36-21.9L313.1,524l-14.29-14.41-10.49-2.93-6.88-14.39L264.66,485l-2.46-7.29A26.66,26.66,0,0,1,266,476l2,6,16.52,7.15,6.73,14.09L301,505.9l14.48,14.61,14.38,6.08,6.33,21.86,2.48,1A25.49,25.49,0,0,1,336.84,553.16Z" fill="#75c775"/><path d="M338.36,523.18,316.68,511,312,498.17l-17.72-6.81-.34-.78c-2-4.44-4.87-11-6.6-15.4,1.65.38,3.33.85,5,1.41h0c1.39,3.32,3.22,7.53,5,11.54L315.2,495,320,508.2l16.1,9A61.14,61.14,0,0,1,338.36,523.18Z" fill="#75c775"/><path d="M440.54,496.72a24.13,24.13,0,0,1,1.27,4.44,25.56,25.56,0,0,1,.43,4.2,32.3,32.3,0,0,1-3.34,14.52,42.68,42.68,0,0,1-2.07,3.87c-6.52,10.84-18.52,20.76-33.89,26.75-14.84,5.78-29.85,6.73-41.79,3.57q-2.19-.59-4.23-1.35a35.49,35.49,0,0,1-10-5.58,28.33,28.33,0,0,1-3.76-3.66,25.28,25.28,0,0,1-6-17.83c.35-6.72,3.14-13.66,7.89-20.13q1.53-2.08,3.32-4.08h0a73.13,73.13,0,0,1,28.05-18.9,75.76,75.76,0,0,1,27.29-5.35,58.91,58.91,0,0,1,6.43.32h0c10,1.05,18.69,4.6,24.47,10.33a25.37,25.37,0,0,1,2.72,3.16A24.67,24.67,0,0,1,440.54,496.72Z" fill="#56a176"/><path d="M438.9,519.88a42.68,42.68,0,0,1-2.07,3.87l-10.06-1.67-13.42,15.75-14.8-4.8-14.63,12.42-15.41-.73-7.36,9.35q-2.19-.59-4.23-1.35l9.65-12.25,15.91.75,15.15-12.86L412,533l13.14-15.42Z" fill="#75c775"/><path d="M441.81,501.16a25.56,25.56,0,0,1,.43,4.2l-16-1.2-15.44,10.59L400,512l-13.69,13-24.71,6-9.71,15.33-4.94.72a28.33,28.33,0,0,1-3.76-3.66l6.22-.9L359,527.45l25.27-6.17,14.55-13.83L410,510.26l15.09-10.35Z" fill="#75c775"/><path d="M437.39,491l-3.17,3.12-22.87-2.94-10.6,10.09-19.12,7.45-6.95,8.55-16.11.58-13.5,12.64-7.76-.66a25.31,25.31,0,0,1-.1-4.18l6.37.54,13.28-12.44,15.79-.57,6.45-7.94,19.38-7.55,11.44-10.88,22.83,2.93,1.92-1.9A25.37,25.37,0,0,1,437.39,491Z" fill="#75c775"/><path d="M410.2,477.51l-20,15.22-13.83-.83-13.46,13.69h-.86c-4.92,0-12.19.07-16.95-.08q1.53-2.08,3.32-4.08h0c3.64,0,8.27.05,12.72,0l13.58-13.81,14.18.85,14.86-11.3A58.91,58.91,0,0,1,410.2,477.51Z" fill="#75c775"/><rect x="263.98" y="549.87" width="154.48" height="43.14" fill="#4e916b"/><rect x="249.61" y="542.76" width="15.77" height="89.47" fill="#a98c5d"/><rect x="383.55" y="542.76" width="15.77" height="89.47" fill="#a98c5d"/><rect x="418.46" y="542.76" width="15.77" height="89.47" fill="#a98c5d"/><rect x="281.95" y="613.75" width="15.77" height="18.48" fill="#a98c5d"/><rect x="242.22" y="593.01" width="164.83" height="23.5" fill="#7a6640"/><rect x="242.22" y="560.71" width="164.83" height="23.5" fill="#7a6640"/><rect x="242.22" y="528.41" width="164.83" height="23.5" fill="#7a6640"/><rect x="407.05" y="593.01" width="31.85" height="23.5" transform="translate(845.95 1209.51) rotate(180)" fill="#a98c5d"/><rect x="407.05" y="560.71" width="31.85" height="23.5" transform="translate(845.95 1144.92) rotate(180)" fill="#a98c5d"/><rect x="407.05" y="528.41" width="31.85" height="23.5" transform="translate(845.95 1080.32) rotate(180)" fill="#a98c5d"/><path d="M543.34,521.59a25.1,25.1,0,1,1-25.1-25.1A25.1,25.1,0,0,1,543.34,521.59Z" fill="#f48225" data-secondary="true"/><path d="M501.38,520a14.51,14.51,0,1,1-14.51-14.51A14.51,14.51,0,0,1,501.38,520Z" fill="#f48225" data-secondary="true"/><circle cx="552.49" cy="520.32" r="34.25" fill="#f48225" data-secondary="true"/><path d="M604.72,519.46a21.11,21.11,0,1,1-21.11-21.11A21.11,21.11,0,0,1,604.72,519.46Z" fill="#f48225" data-secondary="true"/><path d="M629.72,512a21.11,21.11,0,1,1-21.11-21.11A21.11,21.11,0,0,1,629.72,512Z" fill="#f48225" data-secondary="true"/><path d="M650.83,528.69a21.11,21.11,0,1,1-21.11-21.11A21.11,21.11,0,0,1,650.83,528.69Z" fill="#f48225" data-secondary="true"/><rect x="485.47" y="549.87" width="157.23" height="43.14" fill="#f48225" data-secondary="true"/><g opacity="0.2"><path d="M543.34,521.59a25.1,25.1,0,1,1-25.1-25.1A25.1,25.1,0,0,1,543.34,521.59Z"/><path d="M501.38,520a14.51,14.51,0,1,1-14.51-14.51A14.51,14.51,0,0,1,501.38,520Z"/><circle cx="552.49" cy="520.32" r="34.25"/><path d="M604.72,519.46a21.11,21.11,0,1,1-21.11-21.11A21.11,21.11,0,0,1,604.72,519.46Z"/><path d="M629.72,512a21.11,21.11,0,1,1-21.11-21.11A21.11,21.11,0,0,1,629.72,512Z"/><path d="M650.83,528.69a21.11,21.11,0,1,1-21.11-21.11A21.11,21.11,0,0,1,650.83,528.69Z"/><rect x="485.47" y="549.87" width="157.23" height="43.14"/></g><path d="M493.85,504.09c3.18,2.5,3.28,7.69,3.28,7.69s-5.06,1.13-8.24-1.37-3.28-7.68-3.28-7.68S490.67,501.6,493.85,504.09Z" fill="#56a176"/><path d="M498.06,512.57c.12,1-4.71-4.47-1.88-11.33a1.63,1.63,0,0,1,1.45-1h.09a1.65,1.65,0,0,1,1.5,2.43C498.28,504.46,497.43,507.56,498.06,512.57Z" fill="#000644"/><path d="M504.26,506.65c-5.83.76-6.69,5.23-6.69,5.23a8.76,8.76,0,0,0-8,.77c-9.76,6.07,4.73,23.8,12.21,21.13a8.17,8.17,0,0,0,3.35-2.17,8.29,8.29,0,0,0,4-.63C516.44,528,515.66,505.17,504.26,506.65Z" fill="#f48225" data-secondary="true"/><path d="M540,499c.2,4-3.65,7.51-3.65,7.51s-4.17-3.08-4.37-7.12,3.66-7.51,3.66-7.51S539.84,495,540,499Z" fill="#56a176"/><path d="M536.39,507.76c-.65.73.29-6.49,7.33-8.84a1.62,1.62,0,0,1,1.7.43l.06.07a1.64,1.64,0,0,1-.84,2.73C542.66,502.62,539.76,504,536.39,507.76Z" fill="#000644"/><path d="M544.93,508.57c-4.4-3.91-8.34-1.62-8.34-1.62a8.76,8.76,0,0,0-5.82-5.53c-11-3.39-14.87,19.17-8,23.07a8.19,8.19,0,0,0,3.85,1.1,8.26,8.26,0,0,0,3.07,2.58C536.82,531.73,553.51,516.2,544.93,508.57Z" fill="#f48225" data-secondary="true"/><path d="M617,495.6c3.47,2.07,4.23,7.2,4.23,7.2s-4.87,1.77-8.34-.3-4.24-7.2-4.24-7.2S613.49,493.53,617,495.6Z" fill="#56a176"/><path d="M622.22,503.46c.24,1-5.25-3.83-3.32-11a1.64,1.64,0,0,1,1.31-1.18l.09,0a1.65,1.65,0,0,1,1.8,2.22C621.4,495.4,621,498.58,622.22,503.46Z" fill="#000644"/><path d="M627.61,496.8c-5.69,1.5-6,6.05-6,6.05a8.75,8.75,0,0,0-7.83,1.79c-8.9,7.27,7.75,23,14.82,19.38a8.15,8.15,0,0,0,3.05-2.59,8.13,8.13,0,0,0,3.84-1.13C642.42,516.37,638.72,493.87,627.61,496.8Z" fill="#f48225" data-secondary="true"/><path d="M560.15,503.61c-.19,4,3.66,7.51,3.66,7.51S568,508,568.17,504s-3.65-7.51-3.65-7.51S560.35,499.57,560.15,503.61Z" fill="#56a176"/><path d="M563.8,512.34c.65.73-.29-6.49-7.33-8.85a1.64,1.64,0,0,0-1.7.44l-.07.07a1.65,1.65,0,0,0,.85,2.73C557.53,507.2,560.43,508.58,563.8,512.34Z" fill="#000644"/><path d="M555.26,513.14c4.39-3.9,8.34-1.61,8.34-1.61a8.73,8.73,0,0,1,5.82-5.53c11-3.39,14.87,19.17,8,23.06a8.23,8.23,0,0,1-3.84,1.11,8.26,8.26,0,0,1-3.07,2.58C563.37,536.31,546.68,520.78,555.26,513.14Z" fill="#f48225" data-secondary="true"/><path d="M603.49,507.26c-3.16,2.52-3.21,7.71-3.21,7.71s5.06,1.09,8.22-1.44,3.22-7.71,3.22-7.71S606.65,504.73,603.49,507.26Z" fill="#56a176"/><path d="M599.36,515.77c-.12,1,4.67-4.51,1.78-11.35a1.67,1.67,0,0,0-1.46-1h-.09a1.64,1.64,0,0,0-1.48,2.44C599.06,507.66,599.94,510.75,599.36,515.77Z" fill="#000644"/><path d="M593.1,509.9c5.84.71,6.73,5.18,6.73,5.18a8.75,8.75,0,0,1,8,.7c9.81,6-4.54,23.84-12,21.23a8.21,8.21,0,0,1-3.38-2.15,8.18,8.18,0,0,1-4-.6C581.1,531.31,581.7,508.51,593.1,509.9Z" fill="#f48225" data-secondary="true"/><rect x="471.1" y="542.76" width="15.77" height="89.47" fill="#a98c5d"/><rect x="600.73" y="542.76" width="15.77" height="89.47" fill="#a98c5d"/><rect x="637.26" y="542.76" width="15.77" height="89.47" fill="#a98c5d"/><rect x="505.98" y="613.75" width="15.77" height="18.48" fill="#a98c5d"/><rect x="463.71" y="593.01" width="158.51" height="23.5" fill="#7a6640"/><rect x="463.71" y="560.71" width="158.51" height="23.5" fill="#7a6640"/><rect x="463.71" y="528.41" width="158.51" height="23.5" fill="#7a6640"/><rect x="622.22" y="593.01" width="36.32" height="23.5" transform="translate(1280.76 1209.51) rotate(180)" fill="#a98c5d"/><rect x="622.22" y="560.71" width="36.32" height="23.5" transform="translate(1280.76 1144.92) rotate(180)" fill="#a98c5d"/><rect x="622.22" y="528.41" width="36.32" height="23.5" transform="translate(1280.76 1080.32) rotate(180)" fill="#a98c5d"/></svg>