<svg id="a35dfcb7-8e31-4ffa-8873-4137e720e9dc" data-name="Layer 1" xmlns="http://www.w3.org/2000/svg" width="865.76" height="682.89" viewBox="0 0 865.76 682.89"><rect x="70.63" y="52.99" width="149.82" height="39.06" fill="#ccc"/><rect x="244" y="52.99" width="125.21" height="39.06" fill="#ccc"/><rect x="696.68" y="52.99" width="98.45" height="39.06" fill="#ccc"/><rect x="70.63" y="143.69" width="124.14" height="39.06" fill="#ccc"/><rect x="119.86" y="231.89" width="150.89" height="39.06" fill="#ccc"/><rect x="293.76" y="231.89" width="501.37" height="39.06" fill="#ccc"/><rect x="169.62" y="320.09" width="625.51" height="39.06" fill="#ccc"/><rect x="70.63" y="231.89" width="29.96" height="39.06" fill="#ccc"/><rect x="70.63" y="320.09" width="74.91" height="39.06" fill="#ccc"/><rect x="645.31" y="413.19" width="149.82" height="39.06" fill="#ccc"/><rect x="244" y="413.19" width="374.56" height="39.06" fill="#ccc"/><rect x="70.63" y="502.01" width="400.24" height="39.06" fill="#ccc"/><rect x="496.56" y="502.01" width="172.3" height="39.06" fill="#ccc"/><polyline points="70.63 629.9 70.63 590.84 169.62 590.84 169.62 629.9" fill="#ccc"/><polyline points="194.5 629.9 194.5 590.84 370.28 590.84 370.28 629.9" fill="#ccc"/><polyline points="394.49 629.9 394.49 590.84 795.13 590.84 795.13 629.9" fill="#ccc"/><rect x="696.68" y="502.01" width="98.45" height="39.06" fill="#ccc"/><rect x="70.63" y="413.19" width="149.82" height="39.06" fill="#ccc"/><rect x="220.46" y="143.69" width="250.42" height="39.06" fill="#ccc"/><rect x="495.49" y="143.69" width="123.07" height="39.06" fill="#ccc"/><rect x="645.31" y="143.69" width="149.82" height="39.06" fill="#ccc"/><rect x="393.82" y="52.99" width="275.03" height="39.06" fill="#ccc"/><path d="M585.68,524.88,493.6,424.31a121.43,121.43,0,1,0-11.7,12.55L573.65,536a8.18,8.18,0,0,0,12-11.08ZM399.22,454.44a106.31,106.31,0,1,1,106.3-106.31A106.31,106.31,0,0,1,399.22,454.44Z" fill="#686175" data-primary="true"/><rect x="324.31" y="321.74" width="141.26" height="42.81" fill="#f48225" data-secondary="true"/></svg>