<svg id="b6fdc574-ac3a-4977-80d0-fc46aa995396" data-name="Layer 1" xmlns="http://www.w3.org/2000/svg" width="865.76" height="682.89" viewBox="0 0 865.76 682.89"><rect x="218.84" y="286.4" width="364.06" height="211.07" fill="#ccc"/><rect x="582.91" y="333.79" width="244.08" height="163.67" fill="#ccc"/><rect x="582.91" y="333.79" width="244.08" height="163.67" opacity="0.2"/><rect x="582.91" y="344.8" width="243.25" height="0.83" fill="#ccc"/><rect x="613.31" y="369.16" width="182.12" height="128.3" fill="#ccc"/><g opacity="0.2"><rect x="613.31" y="381.34" width="182.12" height="0.83"/></g><g opacity="0.2"><rect x="613.31" y="394.43" width="182.12" height="0.83"/></g><g opacity="0.2"><rect x="613.31" y="406.01" width="182.12" height="0.83"/></g><g opacity="0.2"><rect x="613.31" y="419.1" width="182.12" height="0.83"/></g><g opacity="0.2"><rect x="613.31" y="429.17" width="182.12" height="0.83"/></g><g opacity="0.2"><rect x="613.31" y="442.26" width="182.12" height="0.83"/></g><g opacity="0.2"><rect x="613.31" y="453.84" width="182.12" height="0.83"/></g><g opacity="0.2"><rect x="613.31" y="466.93" width="182.12" height="0.83"/></g><g opacity="0.2"><rect x="613.31" y="479.19" width="182.12" height="0.83"/></g><rect x="103.26" y="333.79" width="115.59" height="163.67" fill="#ccc"/><rect x="103.26" y="333.79" width="115.59" height="163.67" opacity="0.2"/><polygon points="200.41 286.4 601.34 286.4 552.49 171.19 221.7 171.19 200.41 286.4" fill="#ccc"/><polygon points="200.41 286.4 601.34 286.4 552.49 171.19 221.7 171.19 200.41 286.4" opacity="0.2"/><rect x="553.89" y="167.61" width="0.83" height="122.36" transform="translate(-44.67 200.11) rotate(-19.69)" fill="#ccc"/><rect x="530.67" y="168.65" width="0.83" height="120.29" transform="translate(-43.36 162.37) rotate(-16.71)" fill="#ccc"/><rect x="508.17" y="169.68" width="0.83" height="118.23" transform="translate(-38.37 119.98) rotate(-12.97)" fill="#ccc"/><rect x="482.34" y="170.12" width="0.83" height="117.34" transform="translate(-34.65 95.78) rotate(-10.94)" fill="#ccc"/><g opacity="0.2"><rect x="218.84" y="299.55" width="364.06" height="0.83"/></g><rect x="338.95" y="364.17" width="123.67" height="115.14" opacity="0.2"/><rect x="338.95" y="388.87" width="123.67" height="0.83" fill="#ccc"/><rect x="364.6" y="364.17" width="0.83" height="115.14" fill="#ccc"/><rect x="388.76" y="364.17" width="0.83" height="115.14" fill="#ccc"/><rect x="412.45" y="364.17" width="0.83" height="115.14" fill="#ccc"/><rect x="437.57" y="364.17" width="0.83" height="115.14" fill="#ccc"/><rect x="510.48" y="365" width="37.91" height="72.97" opacity="0.2"/><rect x="510.48" y="388.87" width="37.91" height="0.83" fill="#ccc"/><rect x="510.48" y="412.56" width="37.91" height="0.83" fill="#ccc"/><rect x="529.01" y="365" width="0.83" height="72.97" fill="#ccc"/><rect x="253.78" y="365" width="37.91" height="72.97" opacity="0.2"/><rect x="253.78" y="388.87" width="37.91" height="0.83" fill="#ccc"/><rect x="253.78" y="412.56" width="37.91" height="0.83" fill="#ccc"/><rect x="272.32" y="365" width="0.83" height="72.97" fill="#ccc"/><rect x="459.66" y="170.58" width="0.83" height="116.41" transform="matrix(0.99, -0.14, 0.14, 0.99, -28.07, 68.38)" fill="#ccc"/><rect x="438.34" y="249.94" width="0.83" height="36.5" transform="translate(-17.26 30.52) rotate(-3.91)" fill="#ccc"/><rect x="413.52" y="249.93" width="0.83" height="36.51" transform="translate(-18.08 30.23) rotate(-4.09)" fill="#ccc"/><rect x="386.87" y="249.98" width="0.83" height="36.42" fill="#ccc"/><rect x="344.1" y="267.77" width="36.5" height="0.83" transform="translate(70.03 611.36) rotate(-86.08)" fill="#ccc"/><rect x="283.88" y="228.38" width="116.41" height="0.83" transform="translate(66.84 534.75) rotate(-81.8)" fill="#ccc"/><rect x="260.1" y="228.38" width="117.43" height="0.83" transform="translate(32.71 497.37) rotate(-78.85)" fill="#ccc"/><rect x="235.67" y="228.38" width="118.67" height="0.83" transform="translate(2.04 460.19) rotate(-76.1)" fill="#ccc"/><polygon points="584.74 247.24 795.81 247.24 844.04 333.8 582.91 333.8 582.91 286.4 601.34 286.4 584.74 247.24" fill="#ccc"/><polygon points="584.74 247.24 795.81 247.24 844.04 333.8 582.91 333.8 582.91 286.4 601.34 286.4 584.74 247.24" fill="#fff" opacity="0.1"/><g opacity="0.2"><rect x="795.01" y="240.36" width="0.83" height="100.31" transform="translate(-37.76 441.85) rotate(-30.36)"/></g><g opacity="0.2"><rect x="771.35" y="241.19" width="0.83" height="98.65" transform="translate(-44.76 405.87) rotate(-28.67)"/></g><g opacity="0.2"><rect x="748.53" y="240.78" width="0.83" height="99.47" transform="translate(-45.92 406.75) rotate(-29.52)"/></g><g opacity="0.2"><rect x="725.65" y="240.77" width="0.83" height="99.49" transform="translate(-48.86 395.66) rotate(-29.53)"/></g><g opacity="0.2"><rect x="701.13" y="240.77" width="0.83" height="99.49" transform="translate(-52.05 383.57) rotate(-29.53)"/></g><g opacity="0.2"><rect x="679.09" y="240.77" width="0.83" height="99.49" transform="translate(-54.91 372.71) rotate(-29.53)"/></g><g opacity="0.2"><rect x="656.48" y="240.77" width="0.83" height="99.49" transform="translate(-57.85 361.56) rotate(-29.53)"/></g><g opacity="0.2"><rect x="631.96" y="240.77" width="0.83" height="99.49" transform="translate(-61.04 349.47) rotate(-29.53)"/></g><g opacity="0.2"><rect x="609.66" y="240.77" width="0.83" height="99.49" transform="translate(-63.93 338.48) rotate(-29.53)"/></g><g opacity="0.2"><rect x="596.34" y="282.86" width="0.83" height="54.48" transform="translate(-75.32 334.46) rotate(-29.53)"/></g><polygon points="86.11 333.8 134.49 247.24 207.14 249.98 200.41 286.4 218.84 286.4 218.84 333.8 86.11 333.8" fill="#ccc"/><polygon points="86.11 333.8 134.49 247.24 207.14 249.98 200.41 286.4 218.84 286.4 218.84 333.8 86.11 333.8" fill="#fff" opacity="0.1"/><g opacity="0.2"><rect x="84.85" y="290.54" width="98.2" height="0.83" transform="translate(-185.37 265.77) rotate(-60.77)"/></g><g opacity="0.2"><rect x="107.89" y="290.96" width="97.24" height="0.83" transform="translate(-174.19 285.58) rotate(-60.76)"/></g><g opacity="0.2"><rect x="131.59" y="291.27" width="96.11" height="0.83" transform="translate(-162.59 306.84) rotate(-60.91)"/></g><g opacity="0.2"><rect x="165.73" y="309.63" width="54.11" height="0.83" transform="translate(-171.88 327.76) rotate(-60.91)"/></g><g opacity="0.2"><rect x="194.6" y="319.01" width="32.63" height="0.83" transform="translate(-170.76 348.42) rotate(-60.91)"/></g><path d="M141.75,135.79l77.09-25,78.41,25v62a123,123,0,0,1-13,55.46c-10.7,21.23-30,46.43-64.76,64.12,0,0-50.33-23.06-71.33-80a106.46,106.46,0,0,1-6.42-36.86Z" fill="#f48225" data-secondary="true"/><path d="M219.5,117.13l-72.21,23v59.6a102.25,102.25,0,0,0,6.85,37c8.51,22,26.84,54.13,64.7,73.39,0,0,46.49-18.7,66-76.42A101.64,101.64,0,0,0,290.13,201V140.48Z" fill="#fff"/><circle cx="220.02" cy="206.86" r="46.43" fill="#f48225" data-secondary="true"/><path d="M214.81,228.79a1.67,1.67,0,0,1-1.16-.47l-25.59-25.13a1.66,1.66,0,0,1,2.33-2.37l24.41,24L253,186.27a1.66,1.66,0,0,1,2.36,2.33L216,228.3A1.63,1.63,0,0,1,214.81,228.79Z" fill="#fff"/><rect x="21.72" y="449.1" width="67.32" height="1.66" fill="#ccc"/><rect x="21.72" y="469.71" width="67.32" height="1.66" fill="#ccc"/><rect x="21.72" y="491.51" width="67.32" height="1.66" fill="#ccc"/><polygon points="66.5 497.46 52.29 497.46 52.29 444.96 59.4 437.97 66.5 445.43 66.5 497.46" fill="#ccc"/><polygon points="48.63 496.96 34.42 496.96 34.42 444.46 41.53 437.47 48.63 444.93 48.63 496.96" fill="#ccc"/><polygon points="48.63 496.96 34.42 496.96 34.42 444.46 41.53 437.47 48.63 444.93 48.63 496.96" opacity="0.2"/><polygon points="103.26 497.46 89.04 497.46 89.04 444.96 96.15 437.97 103.26 445.43 103.26 497.46" fill="#ccc"/><rect x="103.26" y="344.8" width="115.45" height="0.83" fill="#ccc"/><rect x="130.35" y="369.55" width="59.75" height="127.91" fill="#ccc"/><path d="M596,542.54s-5,8.34-7.33,11.63-11.87,8.54-12.38,10.6,2,3,5.56,3a97.17,97.17,0,0,0,16.93-1.7,82.42,82.42,0,0,0,16.92-5.57c2.78-1.51.2-14.24.2-14.24S601.3,547.09,596,542.54Z" fill="#686175" data-primary="true"/><path d="M553.3,536.2S543,547.06,539.66,549.58s-9.61,3.55-8.84,7.12,3.78,3.79,8.54,3.79,18.69-3.28,21.22-3.28,11.12.76,13.14-1.26.26-15.66.26-15.66Z" fill="#686175" data-primary="true"/><path d="M566.82,245.09s-30.25,12.81-30.61,15.3,2.49,44.84,2.14,55.16.71,32.39,1.78,35.95,7.66,4.67,19.57,6.76,39.15,0,46.27-3.2,9.61-4.28,9.61-8.19,3.91-79.36,3.91-83.28-19.57-13.88-23.13-15.66S576,244,566.82,245.09Z" fill="#686175" data-primary="true"/><path d="M570.71,239.39s-6.05,4.63-7.83,7.12-6,20.29-6,20.29l17.09-9.61,6.4.71,12.81,11s7.48-15.3,7.83-19.22S589.6,238.41,585.33,238A45,45,0,0,0,570.71,239.39Z" fill="#686175" data-primary="true"/><path d="M570.71,239.39s-6.05,4.63-7.83,7.12-6,20.29-6,20.29l17.09-9.61,6.4.71,12.81,11s7.48-15.3,7.83-19.22S589.6,238.41,585.33,238A45,45,0,0,0,570.71,239.39Z" fill="#fff" opacity="0.2"/><path d="M530.13,380s-.71,16,1.78,21.35,9.61,6.41,9.61,6.41l-.32-25.27Z" fill="#f9b499"/><polygon points="530.49 376.05 529.78 383.88 541.88 384.59 542.24 376.76 530.49 376.05" fill="#686175" data-primary="true"/><polygon points="530.49 376.05 529.78 383.88 541.88 384.59 542.24 376.76 530.49 376.05" opacity="0.2"/><path d="M536.18,260.39s-1.77,9.25-3.55,22.78-1.78,65.84-1.78,67.61-5.7,23.49-2.85,25.63,6.76,2.13,10.32,2.13,6.41-.35,6.76-2.84S544,270.35,543.3,264.3,536.18,260.39,536.18,260.39Z" fill="#686175" data-primary="true"/><path d="M541.88,349.72s.35,68,.71,71.89,8.9,81.85,8.9,81.85l1.07,11s-2.85,4.63-2.14,7.83,1.07,14.95,1.07,14.95a26.75,26.75,0,0,1,10,1.42c4.63,1.78,13.88,2.49,13.88,2.49s.36-9.6.71-13.52-.35-10.68-.35-14.24,2.52-100,2.52-100,9.25,72.25,11,81.14,2.85,17.8,2.85,17.8l1.06,3.56-3.2,5,3.92,24.57s-.36-1.42,5,1.42,17.08.71,17.08.71,2.49-13.89,2.85-15.31,3.2-23.14,1.78-27-4.63-10.32-4.63-12.81S614.86,460,614.86,460s2.85-73,2.5-82.21-1.81-31-1.81-31-25.27,5.69-41.29,6.76S541.88,349.72,541.88,349.72Z" fill="#2f2e41"/><g opacity="0.2"><path d="M578.18,413.83a.4.4,0,0,1-.41-.38l-1.77-23-7.38-8.08a.41.41,0,0,1,0-.58.4.4,0,0,1,.58,0l7.48,8.19a.37.37,0,0,1,.1.25l1.78,23.13a.4.4,0,0,1-.38.44Z"/></g><path d="M614.92,258.86s9.91,5.44,11.33,7.22,5.7,42.35,8.54,53.39-3.91,56.23-3.56,57.65-6.05,5-13.16,2.85-7.83-1.43-7.48-3.92.72-43.77.72-45.55S606,287.08,606,287.08" fill="#686175" data-primary="true"/><path d="M555.35,193.2s-8.6,24.71,3.18,49.45c1.63,3.42,10,.71,10,.71l5,24.2,19.2-26.66.36-9.61s2.13-10.66,3.91-13.86,7.83-12.82,5.7-22.05-14.58-18.51-27.75-18.51-21.68,7.46-21.68,10.66a9.72,9.72,0,0,0,2.14,5.7" fill="#f9b499"/><path d="M588.77,225.58s2.52,1.26,5,2.25a52.93,52.93,0,0,1,3.16-10.43c1.78-3.2,7.83-12.81,5.7-22.05s-14.58-18.51-27.75-18.51-21.68,7.46-21.68,10.66a9.72,9.72,0,0,0,2.14,5.7s.69.71,5,.71,14.24-3.2,14.58,1.05-5.32,8.19-2.85,10a33.56,33.56,0,0,0,6,3.2s-2.14,7.82.71,8.17,3.92-.35,4.63-3.2,2.13-7.46,7.12-3.19,1.78,12.44.71,13.51A25.41,25.41,0,0,1,588.77,225.58Z" fill="#2f2e41"/><path d="M624.77,267.15s-9.62,4.88-11.39,12.51c-1.62,7.12-3.24,1.3-1,52.85.34,7.87,4.27,17.39,7.81,12.58s4.51-10.53,4.51-21.07-.61-34.6,0-42.7S627.78,267.76,624.77,267.15Z" fill="#f9b499"/><path d="M625.5,467.27l9.17,78.44-7,15s-8.07,5.86-4.76,6.23a56.25,56.25,0,0,0,11.38-.37c2.94-.37,5.87-4.76,6.61-5.86s.73,6.23.73,6.23h2.93s1.09-7.33,0-11-1.43-13.18-1.43-13.18l5.13-68.9Z" fill="#f9b499"/><path d="M643.69,550.91c-2.39,2.93-7.63,9.16-10.12,10.56a5,5,0,0,1-5.87-.74s-8.07,5.86-4.76,6.23a56.25,56.25,0,0,0,11.38-.37c2.94-.37,5.87-4.76,6.61-5.86s.73,6.23.73,6.23h2.93s1.09-7.33,0-11A31.08,31.08,0,0,1,643.69,550.91Z" fill="#f48225" data-secondary="true"/><path d="M650.05,470.21l5.87,81.37s-5.87,16.48-5.5,17.95,1.84,2.56,5.5.37,6.59-2.21,7.7-9.17a74.4,74.4,0,0,0,1.1-9.52l9.52-84Z" fill="#f9b499"/><path d="M663.42,560.73a6.73,6.73,0,0,1,.13-.9c-2,2-4.77,4.27-7.12,3.83-4-.72-2.93-3.3-2.93-3.3l-.76-.19c-1.42,4.27-2.73,8.63-2.54,9.36.37,1.42,1.83,2.56,5.49.37S662.33,567.69,663.42,560.73Z" fill="#f48225" data-secondary="true"/><path d="M613.34,369.16s-3.6,12-1.76,35.82,5.86,63,5.86,63,18.69,5.56,32.61,5.56,35.59-4.77,35.59-4.77,5-60.38,1.11-79.52-5.51-22-5.51-22l-63.39-5.49Z" fill="#2f2e41"/><path d="M613.34,369.16s-3.6,12-1.76,35.82,5.86,63,5.86,63,18.69,5.56,32.61,5.56,35.59-4.77,35.59-4.77,5-60.38,1.11-79.52-5.51-22-5.51-22l-63.39-5.49Z" opacity="0.2"/><path d="M637.71,257.19,636.8,262l-12,5.15s-5.69,17.15-5.69,30.69,3.26,37.91,3.26,40.63-9,30.69-9,30.69,9.33,9,31,10a77.13,77.13,0,0,0,38.44-9s-10.24-27.05-11.13-32.5,1.21-22.86,1.21-22.86,3.6-40.63,1.79-44.23-18.35-8.13-19.54-9.32-.22-16.33-.22-16.33Z" fill="#f48225" data-secondary="true"/><path d="M661.93,263.86a42.55,42.55,0,0,1-6.77-2.72c-1.21-1.21-.21-16.32-.21-16.32l-17.24,12.37L636.8,262l-5.92,2.53a21.54,21.54,0,0,0,2.56,12c4.27,7.81,7.52,11.73,11.13,7.81C647.18,281.54,656.59,270.28,661.93,263.86Z" fill="#f9b499"/><path d="M613.64,324.62a73.86,73.86,0,0,0,2.09,27.53c4.94,18.58,9.64,35.06,9.64,35.06s1.21,7.82,1.51,12.33,1.79,4.51,3.6,3,6.92-7.23,6.92-9-6.56-10-6.56-10.89-9.38-52-9.38-52" fill="#f9b499"/><path d="M669,267.45s-7.22,16.26-7.22,28.29,2.1,18.05,2.1,18.05l-2.41,22.87L644,386.3s-10,4.27-11.73,5.7-6.62,10.83-6.92,12.34a11.12,11.12,0,0,0,.6,4.2s.3.91,3.31,1.51a2.74,2.74,0,0,0,3.47-1.72,3,3,0,0,0,.14-1c0-.91,4.27-4.51,4.27-4.51a14.74,14.74,0,0,0,5.69-3.56,38.89,38.89,0,0,0,5.7-6.9s27-51.52,27.64-54.54,4.51-19.22,4.51-19.22,6.92-25,3.62-38.22S669,267.45,669,267.45Z" fill="#f9b499"/><path d="M636.8,262l.51-2.37,13.5-11.31a4.72,4.72,0,0,0,2.1,2.64S652.14,262,636.8,262Z" fill="#f4a58c"/><path d="M629.28,219.41s-5.12,2.2-11.23-4.65,2.69-12.45,10.75-18.07,17.35-4.4,28.59-1.95,16.61,20.52,20.76,28.34,7.34,19.79-2.93,26.87-20.77,3.18-23.7-.24,2.69-10.5,1.22-15.66-13-15.88-16.85-16.85A7,7,0,0,0,629.28,219.41Z" fill="#2f2e41"/><rect x="142.1" y="379.14" width="40.21" height="67.91" opacity="0.2"/><rect x="142.1" y="401.33" width="40.21" height="0.83" fill="#ccc"/><rect x="142.1" y="423.38" width="40.21" height="0.83" fill="#ccc"/><rect x="161.79" y="379.14" width="0.83" height="67.91" fill="#ccc"/><polygon points="312.77 205.79 325.21 221.07 400.88 160.43 477.31 221.07 488.68 205.91 400.88 135.79 312.77 205.79" fill="#ccc"/><polygon points="325.69 249.98 325.69 221.07 400.88 160.43 477.31 221.07 477.31 249.98 325.69 249.98" fill="#ccc"/><polygon points="325.69 249.98 325.69 221.07 400.88 160.43 477.31 221.07 477.31 249.98 325.69 249.98" opacity="0.42"/><circle cx="401.26" cy="212.78" r="13.98" fill="#ccc"/><polygon points="415.24 212.37 401.68 212.37 401.68 199.05 400.85 199.05 400.85 212.37 387.28 212.37 387.28 213.2 400.85 213.2 400.85 226.76 401.68 226.76 401.68 213.2 415.24 213.2 415.24 212.37" opacity="0.42"/><polygon points="84.75 497.46 70.53 497.46 70.53 444.96 77.64 437.97 84.75 445.43 84.75 497.46" fill="#ccc"/><polygon points="84.75 497.46 70.53 497.46 70.53 444.96 77.64 437.97 84.75 445.43 84.75 497.46" opacity="0.2"/><ellipse cx="639.02" cy="234.03" rx="18.23" ry="26" fill="#f9b499"/><ellipse cx="658.61" cy="233.77" rx="3.32" ry="5.94" fill="#f9b499"/><path d="M623.94,219.11,638.21,211l18.53,17.84a10.65,10.65,0,0,0,7.61,1.5l-11.44-25.72-8.76-2.23-25.38,10.37Z" fill="#2f2e41"/></svg>