<svg xmlns="http://www.w3.org/2000/svg" width="865.76" height="682.89" viewBox="0 0 865.76 682.89"><path d="M80.1,30.9H640.88a14.27,14.27,0,0,1,14.27,14.27h0V652H65.83V45.17A14.27,14.27,0,0,1,80.1,30.9Z" fill="#e6e6e6"/><path d="M79.48,30.9h562a13.67,13.67,0,0,1,13.66,13.66v69.92H65.83V44.56A13.66,13.66,0,0,1,79.48,30.9Z" fill="#ccc" style="isolation:isolate"/><path d="M140.53,146.19H122.77v5.27h12.6c-.63,7.39-6.78,10.55-12.58,10.55a14.08,14.08,0,0,1,0-28.16,13.67,13.67,0,0,1,9.5,3.81l3.69-3.83a18.76,18.76,0,0,0-13.37-5.27,19.37,19.37,0,1,0-.55,38.74h.83c10.36,0,18-7.1,18-17.61a15.75,15.75,0,0,0-.32-3.49Z" fill="#8dcb64"/><path d="M155.09,142.37a12.45,12.45,0,1,0,12.49,12.49C167.58,146.62,161.08,142.37,155.09,142.37Zm.07,4.89c3.58,0,7,2.9,7,7.57a7.18,7.18,0,0,1-6.82,7.54h-.18c-4,0-7.1-3.18-7.1-7.59a7.18,7.18,0,0,1,6.82-7.52h.28Z" fill="#8dcb64"/><path d="M182.3,142.37a12.45,12.45,0,1,0,12.5,12.49C194.8,146.62,188.3,142.37,182.3,142.37Zm.08,4.89c3.58,0,7,2.9,7,7.57a7.18,7.18,0,0,1-6.82,7.54h-.18c-4,0-7.11-3.18-7.11-7.59a7.19,7.19,0,0,1,6.84-7.52h.27Z" fill="#8dcb64"/><path d="M209,142.38c-6.69,0-11.95,5.86-11.95,12.44a12.27,12.27,0,0,0,11.83,12.46,8.19,8.19,0,0,0,6.83-3v2.45c0,4.3-2.61,6.87-6.54,6.87a6.9,6.9,0,0,1-6.37-4.43l-4.79,2c1.7,3.59,5.12,7.33,11.2,7.33,6.65,0,11.72-4.19,11.72-13V143.13h-5.22v2.11a8.8,8.8,0,0,0-6.71-2.86Zm.48,4.88c3.28,0,6.65,2.8,6.65,7.59s-3.36,7.54-6.72,7.54c-3.57,0-6.89-2.9-6.89-7.5,0-4.77,3.45-7.63,7-7.63Z" fill="#8dcb64"/><path d="M244.14,142.35c-6.31,0-11.61,5-11.61,12.44A12,12,0,0,0,244,167.27h.71a12.62,12.62,0,0,0,10.43-5.47l-4.3-2.86a7,7,0,0,1-6.1,3.43,6.4,6.4,0,0,1-6.11-3.78l16.7-6.92-.87-2a11.25,11.25,0,0,0-10.35-7.3Zm.21,4.79A5,5,0,0,1,249,149.8l-11.15,4.66c-.48-3.61,2.94-7.32,6.54-7.32Z" fill="#8dcb64"/><path d="M224.57,166.54h5.48V129.85h-5.48Z" fill="#8dcb64"/><rect x="276.06" y="142.38" width="332.66" height="20.01" fill="#8dcb64"/><g style="isolation:isolate"><polygon points="278.06 237.38 274.06 237.38 274.06 229.38 282.06 229.38 282.06 233.38 278.06 233.38 278.06 237.38" fill="#ccc"/></g><g style="isolation:isolate"><path d="M278.06,276.66h-4v-9.82h4Zm0-19.64h-4V247.2h4Z" fill="#ccc"/></g><g style="isolation:isolate"><polygon points="282.06 294.5 274.06 294.5 274.06 286.5 278.06 286.5 278.06 290.5 282.06 290.5 282.06 294.5" fill="#ccc"/></g><g style="isolation:isolate"><path d="M594.32,294.5h-12v-4h12Zm-24,0h-12v-4h12Zm-24,0h-12v-4h12Zm-24,0h-12v-4h12Zm-24,0h-12v-4h12Zm-24,0h-12v-4h12Zm-24,0h-12v-4h12Zm-24,0h-12v-4h12Zm-24,0h-12v-4h12Zm-24,0h-12v-4h12Zm-24,0h-12v-4h12Zm-24,0h-12v-4h12Zm-24,0h-12v-4h12Z" fill="#ccc"/></g><g style="isolation:isolate"><polygon points="614.22 294.5 606.22 294.5 606.22 290.5 610.22 290.5 610.22 286.5 614.22 286.5 614.22 294.5" fill="#ccc"/></g><g style="isolation:isolate"><path d="M614.21,276.67h-4v-9.82h4Zm0-19.64h-4v-9.82h4Z" fill="#ccc"/></g><g style="isolation:isolate"><polygon points="614.22 237.38 610.22 237.38 610.22 233.38 606.22 233.38 606.22 229.38 614.22 229.38 614.22 237.38" fill="#ccc"/></g><g style="isolation:isolate"><path d="M594.21,233.38h-12v-4h12Zm-24,0h-12v-4h12Zm-24,0h-12v-4h12Zm-24,0h-12v-4h12Zm-24,0h-12v-4h12Zm-24,0h-12v-4h12Zm-24,0h-12v-4h12Zm-24,0h-12v-4h12Zm-24,0H390v-4h12Zm-24,0H366v-4h12Zm-24,0H342v-4h12Zm-24,0H318v-4h12Zm-24,0H294v-4h12Z" fill="#ccc"/></g><rect x="276.06" y="364.55" width="181.66" height="10.27" fill="#ccc"/><rect x="276.06" y="385.66" width="135.19" height="10.27" fill="#ccc"/><rect x="276.06" y="323.93" width="225.43" height="24.83" fill="#ccc"/><rect x="276.06" y="476.1" width="181.66" height="10.27" fill="#ccc"/><rect x="276.06" y="497.22" width="95.61" height="10.27" fill="#ccc"/><rect x="381.43" y="497.22" width="150.03" height="10.27" fill="#ccc"/><rect x="276.06" y="435.48" width="225.43" height="24.83" fill="#ccc"/><rect x="275.65" y="583.79" width="145.79" height="10.27" fill="#ccc"/><rect x="275.65" y="604.9" width="192.09" height="10.27" fill="#ccc"/><rect x="548.46" y="583.79" width="65.93" height="10.27" fill="#ccc"/><rect x="430.36" y="583.79" width="106.74" height="10.27" fill="#ccc"/><rect x="275.65" y="543.16" width="285.05" height="24.83" fill="#ccc"/><polygon points="575.54 323.93 575.54 277.14 586.89 277.14 568.12 246.22 549.35 277.14 560.7 277.14 560.7 323.93 333.69 323.93 333.69 487.2 799.94 487.2 799.94 323.93 575.54 323.93" fill="#686175" data-primary="true"/><rect x="345.04" y="337.02" width="445.29" height="139.7" fill="#f1f2f2"/><rect x="389.57" y="369.33" width="354.49" height="21.83" fill="#686175" data-primary="true"/><rect x="389.57" y="410.57" width="181.66" height="10.27" fill="#ccc" style="isolation:isolate"/><rect x="389.57" y="431.69" width="135.19" height="10.27" fill="#ccc" style="isolation:isolate"/><rect x="534.45" y="431.69" width="82.54" height="10.27" fill="#ccc" style="isolation:isolate"/><rect x="580.39" y="410.57" width="82.54" height="10.27" fill="#ccc" style="isolation:isolate"/><rect x="674.04" y="410.57" width="70.02" height="10.27" fill="#ccc" style="isolation:isolate"/></svg>