<svg id="fa8888de-acf5-43dd-bf32-8712c084d7fa" data-name="Layer 1" xmlns="http://www.w3.org/2000/svg" xmlns:xlink="http://www.w3.org/1999/xlink" width="865.76" height="682.89" viewBox="0 0 865.76 682.89"><defs><clipPath id="ab08de9f-a61f-449d-b834-4a3e55145ddf"><path d="M117.07,427.15c-33.54-12.39-64.86-33.76-78.61-63.29-11.41-24.51-9.59-52.19-.82-76.95,21.35-60.3,85.24-106.2,157.27-113,57,3.9,109.65-22.75,153.72-53.21s84.72-66.17,136.49-85.66C563,5.75,660.76,19.64,727.33,68.94s99,131.45,81.29,204.46-84.4,133.74-166.7,152.52c-69.42,15.84-143.7,3.4-215.94,4.82C322,432.77,214.1,463,117.07,427.15Z" fill="#a9fdff"/></clipPath><clipPath id="ef261702-181d-4d0a-ae8f-bd1efb44f48b"><path id="fe6bd32d-8fbb-4263-ae5b-e524f0509d96" data-name="SVGID" d="M-10.59,180.22c1-6.1,7.43-10.81,15.21-10.81,8.06,0,14.68,5.06,15.3,11.48a5.42,5.42,0,0,1,4.43,3.72,6.65,6.65,0,0,1,2.16-.35,6.82,6.82,0,0,1,3.57,1,10.88,10.88,0,0,1,7.23-2.72A10.78,10.78,0,0,1,47.62,190a11.42,11.42,0,0,1,3.58-.56c5.5,0,10,3.79,10.75,8.7,4,.35,7,2.76,7,5.67a4.18,4.18,0,0,1-.3,1.57h.09a2.77,2.77,0,0,1,2.95,2.56,2.2,2.2,0,0,1-.29,1.1c12.75,1.07,28.42,2,30.09,2.22,2.85.34-212.14-.45-212.14-.45s13.4-.86,21.19-1.8c5.58-.67,4.11-1.57,4.55-2.68.61-1.52,3-2.65,5.87-2.65a10.06,10.06,0,0,1,2.65.34c.22-3.29,4.32-5.92,9.34-5.92a12.43,12.43,0,0,1,6,1.46c.38-2.71,3-4.87,6.35-5.18a10.3,10.3,0,0,1,10.25-8.05A10.78,10.78,0,0,1-39,187.73c1.51-3.41,5.6-5.86,10.39-5.86a12.87,12.87,0,0,1,6.83,1.89,9,9,0,0,1,7.74-4.2A9.34,9.34,0,0,1-10.59,180.22Z" fill="#eff2ff" clip-rule="evenodd"/></clipPath><clipPath id="bbac5c83-5b82-44c8-a204-3b0bfb8e6d5e"><path id="aed1d07a-055e-4b50-93d3-a196638fffef" data-name="SVGID" d="M582.57,161c2.43-14.86,18.12-26.35,37.08-26.35,19.65,0,35.79,12.33,37.29,28,5.35.94,9.58,4.51,10.8,9.07a16.62,16.62,0,0,1,5.27-.84,16.44,16.44,0,0,1,8.69,2.44,26.59,26.59,0,0,1,17.63-6.64,26.28,26.28,0,0,1,25.15,18.15,28.13,28.13,0,0,1,8.72-1.37c13.4,0,24.48,9.25,26.2,21.23,9.64.83,17.12,6.71,17.12,13.82a10.39,10.39,0,0,1-.74,3.82H776c4,0,7.2,2.8,7.2,6.24a5.47,5.47,0,0,1-.71,2.7c31.08,2.59,69.27,4.9,73.34,5.4,6.94.84-517.11-1.1-517.11-1.1s32.66-2.09,51.66-4.38c13.58-1.65,10-3.82,11.09-6.52,1.47-3.71,7.32-6.49,14.3-6.49a24.33,24.33,0,0,1,6.46.85c.53-8,10.53-14.43,22.77-14.43a30.39,30.39,0,0,1,14.69,3.55c.91-6.61,7.35-11.87,15.46-12.63,2.22-11.17,12.57-19.63,25-19.63a26.36,26.36,0,0,1,13.11,3.45C516.91,171,526.87,165,538.57,165a31.25,31.25,0,0,1,16.64,4.61,22,22,0,0,1,18.86-10.24A22.92,22.92,0,0,1,582.57,161Z" fill="#eff2ff" clip-rule="evenodd"/></clipPath><clipPath id="aa9a2536-ee6d-49b3-91f0-10537e6acaa4"><path id="b577b58d-7cf0-4671-aeac-b6356a037440" data-name="SVGID" d="M563.4,203.26c15.61-17.15,21.17-23.51,24.74-22.8,10,2,35.46,32.32,39.16,27.66s35.84-31.88,48.46-44.94c9.44-9.78,26.3-25.2,39.15-35.9,14.5-12.07,24.63-18.75,26.93-16.34,9.76,10.27,3.82,410.27,3.82,410.27S173.91,477.53,193.9,460.07,444.3,263.84,449.2,259.3c2.81-2.61,9.73,5,18.08,12.24.8.69,5.25-1.7,6.05-1,5.37,4.6,8.29,11.56,11.75,12.55,2.8.8,12.35-8.35,24.6-21.49.75-1.27,1.54-2.62,2.35-4,4.5-7.74,24.48-31.68,25.56-33.66s4.58-7.87,4.58-7.87c1.36-2.29,4.9-1,6-.82,2.07.35,4.19-4.71,5.59-7C558.17,200.82,560.12,203.08,563.4,203.26Z" fill="none" clip-rule="evenodd"/></clipPath><clipPath id="b08701a8-7ae6-49f2-80c2-675acb1ca29d"><path id="a8e8d29b-585f-4b08-9f50-f63217954c0a" data-name="SVGID" d="M246.85,446.8c16.4-5.61,209.69-139.71,222.56-127.58,8.78,8.28,24.25,16.67,35.17,15.51,15.82-10.85,42.33-41.53,48.53-36.65C564.62,307.14,740.22,530,724.75,517.63c-9-7.13-509.62,15.48-509.62,15.48S230.45,452.41,246.85,446.8Z" fill="none" clip-rule="evenodd"/></clipPath><clipPath id="b7654caa-55b0-43e8-b023-81f92024addf"><path id="f14015ba-d9e8-4ee7-bc5d-98268cadb7d7" data-name="SVGID" d="M-147.54,121.6C-205.35,69.51-295.69,41.78-381.16,35c-25-2-50.21-2.79-75.37-2.53-248.15,2.1-320.82,86.95-304.92,127.81s60.65,66-3.91,122.56S-902.69,424.18-865.71,509s190.06,150.85,411.82,140.37,365.62-11.52,411.83-90-54.78-132.46-69-199.8c-8.78-41.75,13.79-83.84,15.43-125.46C-93.85,189.07-114.31,151.55-147.54,121.6Z" fill="none"/></clipPath><clipPath id="e2c36f33-a24d-4771-af0f-ed6e6bb1d945"><path id="b5b49f51-a06b-438d-9d6c-bd3436d40a73" data-name="SVGID" d="M796.88,104.49a17.76,17.76,0,0,1,14.19-6.71c8.34,0,15.3,5.32,16.8,12.33,7.75,1.36,13.59,7.23,13.59,14.25a12.86,12.86,0,0,1-.21,2.33,15.87,15.87,0,0,1,5.86,12.21,16.5,16.5,0,0,1-11.48,15.38c0,.33,0,.67,0,1,0,8.39-7.79,15.21-17.4,15.21A18.86,18.86,0,0,1,807,166.88a20.3,20.3,0,0,1-15.58-1.38,23.36,23.36,0,0,1-14.68,5,22.77,22.77,0,0,1-16.84-7c-3.26,2.65-8.32,4.35-14,4.35a24.48,24.48,0,0,1-11.41-2.65,17.85,17.85,0,0,1-9.67,2.65c-7.49,0-13.6-4-13.94-9-18.44-.27-36-.44-42.07-.76-.07,0,32.77-4.82,35.87-7.41a2.39,2.39,0,0,0,.23-.22,7.3,7.3,0,0,1-.79-3.3c0-4.78,4.67-8.67,10.43-8.67a11.64,11.64,0,0,1,7.08,2.31c2.08-2.5,5.91-4.18,10.28-4.18a15.35,15.35,0,0,1,6.87,1.55c.2-6.48,6.42-11.68,14.05-11.68a17.31,17.31,0,0,1,2.72.22,9.29,9.29,0,0,1-.12-1.5c0-6.29,5.87-11.41,13.09-11.41a15,15,0,0,1,4.38.66,13,13,0,0,1,2.93-6.13,9.92,9.92,0,0,1,4.37-3.54,18.16,18.16,0,0,1,16.68-.24Z" fill="#eff2ff" clip-rule="evenodd"/></clipPath></defs><path d="M117.07,427.15c-33.54-12.39-64.86-33.76-78.61-63.29-11.41-24.51-9.59-52.19-.82-76.95,21.35-60.3,85.24-106.2,157.27-113,57,3.9,109.65-22.75,153.72-53.21s84.72-66.17,136.49-85.66C563,5.75,660.76,19.64,727.33,68.94s99,131.45,81.29,204.46-84.4,133.74-166.7,152.52c-69.42,15.84-143.7,3.4-215.94,4.82C322,432.77,214.1,463,117.07,427.15Z" fill="#a9fdff"/><g clip-path="url(#ab08de9f-a61f-449d-b834-4a3e55145ddf)"><path d="M24.7,129.83c89.75,8.27,173.35,35.67,259.22,56s180.3,33.46,266,12.88c42.41-10.18,81.61-28.39,126.13-31.69,41.6-3.09,82.73,7.29,121.12,19.07s76.62,25.3,118.11,29.07,88.11-4.35,112.57-28.43q-7.63-60.46-15.28-120.94c-125.27,33.71-261,67.91-390.27,43-23-4.42-46.18-10.74-69.89-9-44.51,3.26-74.48,32.66-111.67,50.31-47.07,22.33-111,25.41-161.91,7.78-45.26-15.68-82.69-46.69-133-48.06C115,109,85.55,119.9,54.7,120.22c-25.27.27-49.54-6.55-74.58-9-27.88-2.74-56.3.11-82.92,6.28-24.69,5.72-60.43,15.23-78.82,28.8-21,15.49,27,2.08,34.71-.44,24.66-8.11,51.19-13.19,78.06-15.87A492.22,492.22,0,0,1,24.7,129.83Z" fill="#d6e4f6" fill-rule="evenodd" opacity="0.35"/><path d="M30.38,192.93c57.34,3.21,112.11,17.44,167.76,27.77S313.45,237.41,368.23,225c27.59-6.27,53.29-17.17,82-20.06,45.16-4.54,88.74,11.33,130,25.16S668.82,256.3,711.53,245c25-6.65,44.64-20.62,67.76-30.13,53-21.82,119.36-18.35,179.1-8.57s118.58,25.27,179.89,25.47c-91.14-5.5-184.54-10.87-272.72,6.36C801.73,250.55,740,274.85,674,271.26c-46.7-2.53-90.12-19-136.76-22-58.8-3.76-116.06,14.11-175,16.71-67.92,3-133.87-14.27-198.93-28.42S27.69,212.26-37,227.17c-16.36,3.77-32.12,9.17-49.14,11-12.93,1.36-41.7,1.42-35.09-11.9,4.78-9.62,31-17.65,42.94-21.48C-44.57,193.94-6.28,190.88,30.38,192.93Z" fill="#d6e4f6" fill-rule="evenodd" opacity="0.35"/><path d="M-35.49,41.65C15.87,57,65.17,76.26,118.68,87.31S232.29,100.43,281.58,82C313,70.21,339.37,50.5,374.2,45.66c60.55-8.4,121.45,31.42,180.34,18.39,20-4.42,36.38-14.43,55.24-20.8C672.86,21.93,746,44.41,815.16,51.58,896.25,60,981.59,45.68,1048.8,12.4,997.09,42.74,923.4,45.18,856.88,38.93S724.24,19.21,657.36,23.06C595.12,26.64,532.78,45.13,472,34.82c-31.53-5.35-61.75-18.38-93.94-15.59-24.34,2.11-45.08,13-67.33,20.28C231.23,65.65,136.29,45.07,60.86,13.39,10-8-45.54-35.43-102.71-24.79c-15.61,2.91-93.82,36-66.27,43.58,9,2.47,24.3.8,34.21,1.8,11.39,1.16,22.66,2.85,33.79,4.9A620.61,620.61,0,0,1-35.49,41.65Z" fill="#d6e4f6" fill-rule="evenodd" opacity="0.35"/><path d="M-10.59,180.22c1-6.1,7.43-10.81,15.21-10.81,8.06,0,14.68,5.06,15.3,11.48a5.42,5.42,0,0,1,4.43,3.72,6.65,6.65,0,0,1,2.16-.35,6.82,6.82,0,0,1,3.57,1,10.88,10.88,0,0,1,7.23-2.72A10.78,10.78,0,0,1,47.62,190a11.42,11.42,0,0,1,3.58-.56c5.5,0,10,3.79,10.75,8.7,4,.35,7,2.76,7,5.67a4.18,4.18,0,0,1-.3,1.57h.09a2.77,2.77,0,0,1,2.95,2.56,2.2,2.2,0,0,1-.29,1.1c12.75,1.07,28.42,2,30.09,2.22,2.85.34-212.14-.45-212.14-.45s13.4-.86,21.19-1.8c5.58-.67,4.11-1.57,4.55-2.68.61-1.52,3-2.65,5.87-2.65a10.06,10.06,0,0,1,2.65.34c.22-3.29,4.32-5.92,9.34-5.92a12.43,12.43,0,0,1,6,1.46c.38-2.71,3-4.87,6.35-5.18a10.3,10.3,0,0,1,10.25-8.05A10.78,10.78,0,0,1-39,187.73c1.51-3.41,5.6-5.86,10.39-5.86a12.87,12.87,0,0,1,6.83,1.89,9,9,0,0,1,7.74-4.2A9.34,9.34,0,0,1-10.59,180.22Z" fill="#eff2ff" fill-rule="evenodd"/><path id="b84fd8a4-fb31-45f3-b4d3-38c5eb88478b" data-name="SVGID" d="M-10.59,180.22c1-6.1,7.43-10.81,15.21-10.81,8.06,0,14.68,5.06,15.3,11.48a5.42,5.42,0,0,1,4.43,3.72,6.65,6.65,0,0,1,2.16-.35,6.82,6.82,0,0,1,3.57,1,10.88,10.88,0,0,1,7.23-2.72A10.78,10.78,0,0,1,47.62,190a11.42,11.42,0,0,1,3.58-.56c5.5,0,10,3.79,10.75,8.7,4,.35,7,2.76,7,5.67a4.18,4.18,0,0,1-.3,1.57h.09a2.77,2.77,0,0,1,2.95,2.56,2.2,2.2,0,0,1-.29,1.1c12.75,1.07,28.42,2,30.09,2.22,2.85.34-212.14-.45-212.14-.45s13.4-.86,21.19-1.8c5.58-.67,4.11-1.57,4.55-2.68.61-1.52,3-2.65,5.87-2.65a10.06,10.06,0,0,1,2.65.34c.22-3.29,4.32-5.92,9.34-5.92a12.43,12.43,0,0,1,6,1.46c.38-2.71,3-4.87,6.35-5.18a10.3,10.3,0,0,1,10.25-8.05A10.78,10.78,0,0,1-39,187.73c1.51-3.41,5.6-5.86,10.39-5.86a12.87,12.87,0,0,1,6.83,1.89,9,9,0,0,1,7.74-4.2A9.34,9.34,0,0,1-10.59,180.22Z" fill="#eff2ff" fill-rule="evenodd"/><g clip-path="url(#ef261702-181d-4d0a-ae8f-bd1efb44f48b)"><path d="M-38.73,206.44c-.29,1-1.66,1.75-2.55,2.05a10.56,10.56,0,0,1-8.32-.85c-.81-.48-2.17-2.2-3.2-2s-1.83,1.45-2.58,2.07A8.34,8.34,0,0,1-60,209.61a9.89,9.89,0,0,1-6.17-1.68c-.75-.48-1.91-1.89-2.84-1.92-.58,0-1.15.81-1.49,1.18a5.65,5.65,0,0,1-2.6,1.72,11.75,11.75,0,0,1-6-.57,15,15,0,0,0-2-.72c-.92-.13-1.65,1.08-2.55,1.29a6.69,6.69,0,0,1-7.08-3.63c-1.85-3.74,2.11-6.42,4.75-8.42a28,28,0,0,1,13-5.07c3.49-.54,7.08-.34,10.22-2.16,10.41-4.62,17.41-13.41,27.69-18.37,14.37-6.94,30.11-7.21,45.7-6.1,10.17.73,20.24,2,29.46,6.65a45.12,45.12,0,0,1,13.76,10.95c3.35,4,5.74,10.09,10.1,13.16a4.75,4.75,0,0,1,1.42,2.54,6.36,6.36,0,0,1-2.62,7.18,7.42,7.42,0,0,1-5.78,1.07c-1.11-.27-2.38-1.2-3.56-1s-1.91,1.2-2.8,1.74a13.15,13.15,0,0,1-6.23,2.1,19.3,19.3,0,0,1-9.61-2.65A13.48,13.48,0,0,1,32,205c-.36-.33-.87-1-1.41-1-1.06,0-2.49,2-3.33,2.59a13.59,13.59,0,0,1-6.18,1.87,20.5,20.5,0,0,1-10.34-1.93,28.19,28.19,0,0,1-3.09-1.71c-.48-.31-1.13-1-1.75-1-1.2,0-2.5,2.16-3.24,2.89a8.53,8.53,0,0,1-5.22,2.44c-2.62.29-5.1-.33-7.68-.57-3.25-.29-6.33.15-9.38-1.35a12.57,12.57,0,0,1-3.56-2.89c-.43-.47-1.06-1.61-1.72-1.79-.43-.12-.57,1.06-.62,1.28-.34,1.32-.75,2.86-2,3.61-3.22,1.93-8.06.63-11.08-1.11" fill="#eff2ff" fill-rule="evenodd"/></g><path d="M25.8,191.14a11.63,11.63,0,0,0,8.79,12.47,11.67,11.67,0,0,0,13.62-5.89,9.91,9.91,0,0,1-.28,1.4c-1.6,6-8,9.44-14.3,7.75S23.51,199,25.11,193A11.47,11.47,0,0,1,25.8,191.14Z" fill="#eff2ff" fill-rule="evenodd"/><path d="M-6.62,205.9a9.44,9.44,0,0,0,12-3,9.5,9.5,0,0,0-.48-12.06,9.42,9.42,0,0,1,1,.62A9.37,9.37,0,0,1,7.6,204.57a9.37,9.37,0,0,1-13,2.4A8.27,8.27,0,0,1-6.62,205.9Z" fill="#eff2ff" fill-rule="evenodd"/><path d="M582.57,161c2.43-14.86,18.12-26.35,37.08-26.35,19.65,0,35.79,12.33,37.29,28,5.35.94,9.58,4.51,10.8,9.07a16.62,16.62,0,0,1,5.27-.84,16.44,16.44,0,0,1,8.69,2.44,26.59,26.59,0,0,1,17.63-6.64,26.28,26.28,0,0,1,25.15,18.15,28.13,28.13,0,0,1,8.72-1.37c13.4,0,24.48,9.25,26.2,21.23,9.64.83,17.12,6.71,17.12,13.82a10.39,10.39,0,0,1-.74,3.82H776c4,0,7.2,2.8,7.2,6.24a5.47,5.47,0,0,1-.71,2.7c31.08,2.59,69.27,4.9,73.34,5.4,6.94.84-517.11-1.1-517.11-1.1s32.66-2.09,51.66-4.38c13.58-1.65,10-3.82,11.09-6.52,1.47-3.71,7.32-6.49,14.3-6.49a24.33,24.33,0,0,1,6.46.85c.53-8,10.53-14.43,22.77-14.43a30.39,30.39,0,0,1,14.69,3.55c.91-6.61,7.35-11.87,15.46-12.63,2.22-11.17,12.57-19.63,25-19.63a26.36,26.36,0,0,1,13.11,3.45C516.91,171,526.87,165,538.57,165a31.25,31.25,0,0,1,16.64,4.61,22,22,0,0,1,18.86-10.24A22.92,22.92,0,0,1,582.57,161Z" fill="#eff2ff" fill-rule="evenodd"/><path id="f043bc27-c7c2-4733-bb83-4b445c2478d9" data-name="SVGID" d="M582.57,161c2.43-14.86,18.12-26.35,37.08-26.35,19.65,0,35.79,12.33,37.29,28,5.35.94,9.58,4.51,10.8,9.07a16.62,16.62,0,0,1,5.27-.84,16.44,16.44,0,0,1,8.69,2.44,26.59,26.59,0,0,1,17.63-6.64,26.28,26.28,0,0,1,25.15,18.15,28.13,28.13,0,0,1,8.72-1.37c13.4,0,24.48,9.25,26.2,21.23,9.64.83,17.12,6.71,17.12,13.82a10.39,10.39,0,0,1-.74,3.82H776c4,0,7.2,2.8,7.2,6.24a5.47,5.47,0,0,1-.71,2.7c31.08,2.59,69.27,4.9,73.34,5.4,6.94.84-517.11-1.1-517.11-1.1s32.66-2.09,51.66-4.38c13.58-1.65,10-3.82,11.09-6.52,1.47-3.71,7.32-6.49,14.3-6.49a24.33,24.33,0,0,1,6.46.85c.53-8,10.53-14.43,22.77-14.43a30.39,30.39,0,0,1,14.69,3.55c.91-6.61,7.35-11.87,15.46-12.63,2.22-11.17,12.57-19.63,25-19.63a26.36,26.36,0,0,1,13.11,3.45C516.91,171,526.87,165,538.57,165a31.25,31.25,0,0,1,16.64,4.61,22,22,0,0,1,18.86-10.24A22.92,22.92,0,0,1,582.57,161Z" fill="#eff2ff" fill-rule="evenodd"/><g clip-path="url(#bbac5c83-5b82-44c8-a204-3b0bfb8e6d5e)"><path d="M514,224.89c-.7,2.46-4,4.27-6.22,5a25.74,25.74,0,0,1-20.27-2.09c-2-1.15-5.29-5.35-7.81-5s-4.44,3.54-6.27,5a20.28,20.28,0,0,1-11.29,4.72,24.09,24.09,0,0,1-15-4.09c-1.83-1.16-4.66-4.61-6.94-4.66-1.4,0-2.79,2-3.61,2.86a13.63,13.63,0,0,1-6.36,4.19c-4.65,1.14-10.16,0-14.64-1.37-1.64-.52-3.26-1.5-5-1.76-2.26-.33-4,2.64-6.23,3.13-6.87,1.55-14.23-2.77-17.24-8.83-4.52-9.12,5.14-15.65,11.57-20.52,9.48-7.19,20.1-10.55,31.75-12.37,8.49-1.32,17.25-.82,24.9-5.27,25.37-11.27,42.44-32.68,67.49-44.77,35-16.92,73.41-17.59,111.4-14.88C659,126,683.55,129.05,706,140.48a109.85,109.85,0,0,1,33.56,26.68c8.17,9.78,14,24.59,24.6,32.07,1.81,1.21,3,4.28,3.46,6.22,1.79,6.92-.38,13.46-6.36,17.49a18.11,18.11,0,0,1-14.09,2.61c-2.73-.66-5.81-2.94-8.7-2.37-2.59.51-4.64,2.92-6.82,4.24-4.56,2.75-9.79,5-15.17,5.11-8,.24-16.52-2.55-23.43-6.45a33.86,33.86,0,0,1-6.62-4.62c-.87-.81-2.11-2.41-3.44-2.41-2.57,0-6,5-8.1,6.33-4.39,2.83-9.92,4.14-15.06,4.55a50.13,50.13,0,0,1-25.23-4.71,66.91,66.91,0,0,1-7.51-4.15c-1.17-.76-2.77-2.37-4.27-2.4-2.92,0-6.11,5.27-7.89,7.06a21,21,0,0,1-12.75,5.94c-6.37.71-12.43-.82-18.71-1.39-7.91-.72-15.42.35-22.86-3.31a30.13,30.13,0,0,1-8.69-7c-1-1.14-2.58-3.93-4.17-4.37-1.07-.29-1.4,2.61-1.53,3.14-.83,3.21-1.81,7-4.85,8.79-7.84,4.7-19.65,1.54-27-2.7" fill="#eff2ff" fill-rule="evenodd"/></g><path d="M671.29,187.59c-1.74,13.43,7.27,26.61,21.42,30.4,13.68,3.66,27.57-2.66,33.2-14.36a25.71,25.71,0,0,1-.68,3.41c-3.89,14.54-19.52,23-34.87,18.89s-24.65-19.26-20.76-33.8A25.67,25.67,0,0,1,671.29,187.59Z" fill="#eff2ff" fill-rule="evenodd"/><path d="M539.87,190.87c-1.74,13.43,7.27,26.6,21.43,30.4,13.67,3.66,27.57-2.66,33.19-14.36a27.38,27.38,0,0,1-.67,3.41c-3.9,14.54-19.53,23-34.88,18.89s-24.65-19.26-20.75-33.8A25.64,25.64,0,0,1,539.87,190.87Z" fill="#eff2ff" fill-rule="evenodd"/><path d="M592.26,223.58c9.68,5.24,22.31,2.26,29.33-7.37,6.78-9.31,6-21.7-1.19-29.39a19.53,19.53,0,0,1,2.39,1.51c9.9,7.2,11.75,21.54,4.14,32s-21.82,13.07-31.72,5.86A20.48,20.48,0,0,1,592.26,223.58Z" fill="#eff2ff" fill-rule="evenodd"/><path d="M476,201.28c.09,11,8.81,20.63,20.64,22.11,11.42,1.44,21.92-5.19,25.15-15.25a22.22,22.22,0,0,1-.16,2.82c-1.53,12.15-13.18,20.71-26,19.1s-22-12.79-20.47-24.94A22.05,22.05,0,0,1,476,201.28Z" fill="#eff2ff" fill-rule="evenodd"/><g opacity="0.92"><path d="M563.4,203.26c15.61-17.15,21.17-23.51,24.74-22.8,10,2,35.46,32.32,39.16,27.66s35.84-31.88,48.46-44.94c9.44-9.78,26.3-25.2,39.15-35.9,14.5-12.07,24.63-18.75,26.93-16.34,9.76,10.27,3.82,410.27,3.82,410.27S173.91,477.53,193.9,460.07,444.3,263.84,449.2,259.3c2.81-2.61,9.73,5,18.08,12.24.8.69,5.25-1.7,6.05-1,5.37,4.6,8.29,11.56,11.75,12.55,2.8.8,12.35-8.35,24.6-21.49.75-1.27,1.54-2.62,2.35-4,4.5-7.74,24.48-31.68,25.56-33.66s4.58-7.87,4.58-7.87c1.36-2.29,4.9-1,6-.82,2.07.35,4.19-4.71,5.59-7C558.17,200.82,560.12,203.08,563.4,203.26Z" fill="#5799c9" fill-rule="evenodd"/><g clip-path="url(#aa9a2536-ee6d-49b3-91f0-10537e6acaa4)"><polygon points="666.45 146.6 741.84 110.94 665.55 206.63 680.72 209.07 614.1 297.56 603.89 323.49 603.89 334.35 554.74 376.94 582.77 323.49 595.3 285.89 581.1 271.27 613.68 232.84 626.92 208.44 666.45 146.6" fill="#4e89b5" fill-rule="evenodd"/><polygon points="505.93 234.87 583.61 177.2 588.12 180.46 543.81 244.86 552.16 244.86 536.5 262.37 526.4 278.04 510.39 301.7 495.07 318.5 443.21 366.45 474.54 304.49 475.58 289.17 450.13 258.82 493.29 263.11 505.93 234.87" fill="#4e89b5" fill-rule="evenodd"/><path d="M582.5,165.74l20.21,24.51L570,239.94l14.78,4-8.35,12.38-25.2,75.93-89.55,17.16s12.63-41.25,20.57-44.87S520.68,264,525.5,258s10.34-40.74,13.8-47.88S582.5,165.74,582.5,165.74Z" fill="#57a3da" fill-rule="evenodd"/><path d="M689,114.44c6.69,0,52.85-3.89,52.85-3.89l-38.21,80s2.09,14.64,5,21.33-7.95,21-11.71,32-20.91,65.5-23,71.94-71.22,76.29-71.22,76.29L566,355.5s22.21-23.14,27.23-36.11,6.27-56.3,20.49-61.82,34.59-26.43,34.59-26.43-1.81-11.29,0-19.24S689,150.19,689,150.19s-.52-2.75-1.12-6.73C686.31,133.1,684.16,114.44,689,114.44Z" fill="#57a3da" fill-rule="evenodd"/><path d="M362.39,307.08c11.43-7.85,87.75-48.26,87.75-48.26s-13.86,30.78-18.86,33.63-14.63,11.07-14.63,11.07l8.56,12.36S416.29,326,410.58,331s-74.24,65.67-74.24,65.67-44.26-14.12-43.19-19.73S351,314.94,362.39,307.08Z" fill="#57a3da" fill-rule="evenodd"/></g><path d="M246.85,446.8c16.4-5.61,209.69-139.71,222.56-127.58,8.78,8.28,24.25,16.67,35.17,15.51,15.82-10.85,42.33-41.53,48.53-36.65C564.62,307.14,740.22,530,724.75,517.63c-9-7.13-509.62,15.48-509.62,15.48S230.45,452.41,246.85,446.8Z" fill="#4782af" fill-rule="evenodd"/><g clip-path="url(#b08701a8-7ae6-49f2-80c2-675acb1ca29d)"><polygon points="492.33 332.99 504.58 334.73 505.58 392.21 505.58 407.13 501.91 421.63 487.86 441.47 458.87 468.24 489.65 426.75 491.65 415.33 486.97 404.45 498.57 380.14 476.93 388.84 496.78 359.62 491.39 346.67 472.79 339.25 466.89 318.44 492.33 332.99" fill="#40769e" fill-rule="evenodd"/><path d="M334.87,376.94c8.56-.33,91.37-51.73,99.46-53.15s32.83-7.91,32.83-7.91L434.8,363.29l10.47,3.8-3.33,9.85,1.43,19.73-22.84,44.66-54.25,69S358.66,415.63,352.47,408,326.3,377.27,334.87,376.94Z" fill="#4d8cbb" fill-rule="evenodd"/><path d="M590.8,315.88c-7.7-7.32-30.89-26.81-36.06-22.28s-11.07,22.66-7.9,28.56,8.61,15.52-2.26,27.25-23.12,38.46-23.12,38.46l23.12-10.93s-26.29,47.19-35.36,57.62-19.94,25.83-24.47,39-15.86,56.66-10.43,51.67,98.36-45.77,105.61-44.87,53-34,49.85-40.79S598.51,323.2,590.8,315.88Z" fill="#4d8cbb" fill-rule="evenodd"/></g></g><path d="M127.94,271.18c15.07-24.52,17.58-42.07,17.81-41.75,6.3,26.72,17.62,43.13,29.59,60l-7.18-3.21,13,18.76-10.33-8.24,9.08,15.73-8.2-5.41,27.09,54.05-6-3,4.33,8.41-4.56-2.93s19.36,29.6,17.57,27.61-15.41-14.12-15.41-14.12l28.74,61.58L218,435.38l6,8.75s13.34,21.13,10.44,18.82c-1.69-1.35-8-6.73-12.95-11,2.85,8,4.51,12.71,4.51,12.71l-27.22-1.55-29-3.72-10.55.4-46.59.74s-5.21,1.13-9.62,2.29-6.37-10.47-6.37-10.47S85,457,79.67,460.54,81.18,449,81.18,449a69.41,69.41,0,0,0-11.32,8.71c-5,4.89,3.19-9.8,3.19-9.8s-6.81-.95-18,7c-5.33,3.78-2.61.15,5.13-11.51l-13.47,9.67s12.4-21.38,11.3-21.23,15.09-20.27,17.15-23.6-8.7,4.87-9.45,5.79,8.1-12.87,10.13-15.6S97.67,362.2,97.67,362.2s-2.47,1.34-5,3,5.54-12,6.79-15.68-7,5.7-10.45,8.78,1.67-3.15,12.15-18.15,23-39.94,23-39.94a22.68,22.68,0,0,0-6,4.15c-2,2.27,4.6-13,5.63-17.11s-7.76,6.51-10,9.24S119.29,285.26,127.94,271.18Z" fill="#9ab52a" fill-rule="evenodd"/><path d="M222.6,281.87c15.07-24.52,17.58-42.07,17.81-41.75,6.29,26.72,17.62,43.13,29.59,60l-7.18-3.21,13,18.76-10.32-8.24,9.08,15.73-8.2-5.41,27.09,54-6.05-3,4.33,8.41-4.56-2.93s19.36,29.6,17.57,27.61-15.41-14.12-15.41-14.12l28.74,61.58-5.48-3.25,6,8.75S332,476,329.07,473.64c-1.69-1.35-8-6.73-12.95-11,2.85,8,4.5,12.71,4.5,12.71l-27.22-1.55-29-3.72-10.56.4-46.58.74s-5.21,1.13-9.62,2.29-6.37-10.47-6.37-10.47-11.65,4.62-16.95,8.16,1.5-11.53,1.5-11.53a69.56,69.56,0,0,0-11.31,8.71c-5,4.89,3.19-9.8,3.19-9.8s-6.82-.95-18,7c-5.32,3.78-2.6.15,5.13-11.51l-13.46,9.67s12.4-21.38,11.3-21.23,15.09-20.27,17.15-23.6-8.7,4.87-9.46,5.79,8.11-12.87,10.14-15.6,21.82-36.21,21.82-36.21-2.47,1.34-5,3,5.54-12,6.79-15.68-7,5.7-10.45,8.78,1.66-3.15,12.15-18.15,23-39.94,23-39.94a22.66,22.66,0,0,0-6,4.15c-2,2.27,4.61-13,5.64-17.11s-7.77,6.51-10,9.24S214,296,222.6,281.87Z" fill="#9ab52a" fill-rule="evenodd"/><path d="M151.7,445.54l-30.61,11.61L141.58,417a42.67,42.67,0,0,0-6.38,4.77c-2,2.06,5.5-9.48,6.69-12.15s-7.56,7.08-7.56,7.08l23.54-58.45s-6.12,7.51-7.69,9,11-21,11.91-22.5-2,1.62-3.79,3.1,4.75-10.52,4.75-10.52l-7.48,9c-2.49,3,26-63.44,26-63.44l-7.51,6.84,10.81-24-3.76,3.45c-1.43,1.31,7.21-12,7.78-13.35s-4.45,3.67-7,6.17,20.37-38.55,21.16-39.95c.06-.1.09,0,.1.24l10.32,28-3.69-3.73,9.57,34.61-5.65-5.69s10.61,28.93,9.95,28.11-3.2-4.26-3.2-4.26S224.68,311,224,310.08s-2.74-3.41-2.74-3.41S240.22,356.24,239,354.1s-8.32-9.72-8.32-9.72l8,16.42-3.4-2.1S250.7,405.43,250.22,404s-10-15.92-9.62-14.39,4.24,10.55,3.15,9.57a5.83,5.83,0,0,0-2.21-1.25s7.57,18.91,15.09,34.35c.08.16-7.36-5.39-7.36-5.39l3.75,11s8.07,18.31,5,16.14-16.2-4.73-16.2-4.73l-39.76-1.8Z" fill="#a2c130" fill-rule="evenodd"/><path d="M43,246.47s0,0,.05.09L56.62,273l-4-3.67,6,11.83L54,276.9l12.05,34-4.35-4.09,9.13,18-3-3.11,1.8,6.12-2.28-2.55,9.12,16.25-3.6-3.8L75,343.39l2.1,7.13-3.66-5.33,10.85,24.05-3.92-5.69,16,35.71-5.73-4.32,3.7,8.32L89.87,399l19.07,37.11-5-4.82,3.54,11.42L101,436.42l9.42,25-2.35-.1c1.59,5.94,2.3,9.22,1.87,9a2.15,2.15,0,0,0-.46-.14l.1.14-.46-.22C96.5,467.72-47,458.92-47,458.92l-4.34-.25,22.25-42.19L-37.4,422-30,406.43l-3.41,1.29,12.11-14-6.24,2.95,6.84-10.23-7.19,4,21-34.82-3.65,1.57,4.8-6.95-5,3.36,6.29-6.85-1.12-.05,1.93-4.41L-8.85,348l25.38-39.46-4,1.87,3.84-5.77L12,307.82l6.84-10.21-2.92,2.62,10-17.79-3.17,3.47L31,267.86l-2.26.75,14.12-22,.08-.15A.05.05,0,0,1,43,246.47Z" fill="#9ab52a" fill-rule="evenodd"/><path d="M36.1,455.37,5.49,467,26,426.86a43,43,0,0,0-6.38,4.78c-2,2.06,5.5-9.48,6.69-12.15s-7.56,7.07-7.56,7.07l23.54-58.45s-6.12,7.52-7.69,9,11-21,11.91-22.5-2,1.63-3.79,3.11,4.75-10.52,4.75-10.52-5,6-7.48,9,26-63.44,26-63.44l-7.51,6.83,10.81-24L65.53,279c-1.43,1.31,7.21-12,7.78-13.35s-4.45,3.67-7,6.18,20.37-38.56,21.16-40c.06-.09.09,0,.1.25l10.32,28-3.69-3.73L103.8,291l-5.65-5.7s10.61,28.94,9.95,28.12-3.2-4.27-3.2-4.27,4.18,11.61,3.53,10.73-2.74-3.41-2.74-3.41,18.93,49.57,17.66,47.42-8.32-9.71-8.32-9.71l8,16.41-3.4-2.1s15.43,46.74,15,45.32-10-15.91-9.62-14.38,4.24,10.55,3.15,9.57a5.77,5.77,0,0,0-2.21-1.26s7.57,18.91,15.09,34.35c.08.16-7.36-5.38-7.36-5.38l3.75,11s8.07,18.32,5,16.14-16.2-4.73-16.2-4.73l-39.76-1.8Z" fill="#a2c130" fill-rule="evenodd"/><path d="M-16,248.86s0,0,0,.09l13.6,26.45-4-3.67,6,11.83-4.67-4.28L7,313.26l-4.35-4.09,9.13,18-2.95-3.11,1.8,6.12-2.28-2.56,9.12,16.26-3.6-3.8L16,345.78l2.1,7.13-3.65-5.34L25.3,371.63l-3.93-5.7,16,35.72-5.74-4.32,3.71,8.31-4.55-4.22,19.08,37.11-5-4.82,3.54,11.42L42,438.81l9.43,25-2.35-.09c1.58,5.94,2.3,9.22,1.87,9a2.9,2.9,0,0,0-.47-.15l.1.15-.46-.22C37.47,470.11-106,461.31-106,461.31l-4.35-.26,22.25-42.18-8.31,5.5,7.37-15.55-3.42,1.28,12.11-14L-86.6,399l6.84-10.23-7.2,4L-66,358l-3.64,1.57,4.8-7-5,3.37,6.3-6.85-1.13,0,1.94-4.41-5.12,5.74,25.38-39.46-4,1.87L-42.7,307l-4.36,3.2L-40.22,300l-2.93,2.62,10-17.79-3.16,3.47L-28,270.25l-2.27.75,14.13-22,.07-.15S-16.07,248.86-16,248.86Z" fill="#a2c130" fill-rule="evenodd"/><path d="M209.58,343.55c10.25-16.68,12-28.62,12.11-28.41,4.28,18.18,12,29.35,20.13,40.8l-4.88-2.18,8.85,12.76-7-5.61,6.17,10.71-5.57-3.68,18.43,36.77-4.12-2,2.95,5.72-3.1-2s13.16,20.15,12,18.79-10.49-9.6-10.49-9.6l19.56,41.88-3.73-2.2,4.08,5.95S284,475.58,282,474c-1.15-.92-5.44-4.58-8.81-7.46,1.94,5.46,3.06,8.64,3.06,8.64l-18.52-1.05L238,471.61l-7.18.27-31.7.51s-3.54.76-6.54,1.55-4.33-7.12-4.33-7.12-7.92,3.14-11.53,5.55,1-7.84,1-7.84a46.89,46.89,0,0,0-7.69,5.92c-3.38,3.33,2.16-6.67,2.16-6.67s-4.63-.64-12.24,4.75c-3.62,2.57-1.77.1,3.49-7.83l-9.16,6.58s8.44-14.55,7.69-14.44,10.27-13.79,11.66-16.06-5.91,3.31-6.43,3.94,5.52-8.76,6.9-10.62S189,405.47,189,405.47s-1.68.91-3.36,2,3.76-8.16,4.61-10.67-4.78,3.88-7.11,6,1.14-2.14,8.27-12.34S207,363.31,207,363.31a15.16,15.16,0,0,0-4,2.82c-1.38,1.54,3.13-8.84,3.83-11.64s-5.28,4.42-6.81,6.28S203.69,353.13,209.58,343.55Z" fill="#6d7c19" fill-rule="evenodd"/><path d="M6,318.71c11.13-18.11,13-31.06,13.15-30.83,4.65,19.73,13,31.85,21.84,44.28l-5.3-2.37,9.61,13.85-7.62-6.08,6.7,11.61-6.05-4,20,39.9-4.46-2.21,3.19,6.21-3.36-2.16s14.29,21.85,13,20.38-11.38-10.42-11.38-10.42l21.22,45.46-4-2.39,4.43,6.46s9.85,15.6,7.71,13.89c-1.25-1-5.9-5-9.56-8.1l3.32,9.39-20.09-1.15L36.87,457.7l-7.8.29-34.39.55s-3.85.83-7.11,1.69-4.7-7.73-4.7-7.73-8.6,3.41-12.51,6,1.11-8.51,1.11-8.51a50.74,50.74,0,0,0-8.35,6.43c-3.67,3.61,2.35-7.24,2.35-7.24s-5-.7-13.29,5.15c-3.93,2.79-1.92.11,3.79-8.5L-54,453s9.15-15.8,8.34-15.68,11.14-15,12.66-17.43-6.42,3.59-7,4.28,6-9.51,7.49-11.52,16.11-26.74,16.11-26.74-1.83,1-3.66,2.22,4.09-8.85,5-11.57-5.2,4.21-7.72,6.48,1.23-2.33,9-13.4,17-29.49,17-29.49a16.83,16.83,0,0,0-4.39,3.06c-1.5,1.68,3.4-9.59,4.16-12.63s-5.74,4.8-7.4,6.82S-.39,329.1,6,318.71Z" fill="#6d7c19" fill-rule="evenodd"/><path d="M70.87,469.12l-31.06,9.93,20.6-34.82a42.42,42.42,0,0,0-6.47,4.12c-2,1.78,5.54-8.23,6.73-10.55S53,443.92,53,443.92l23.58-50.77s-6.18,6.51-7.76,7.79,11-18.21,12-19.53-2,1.41-3.83,2.69S81.74,375,81.74,375l-7.54,7.8c-2.52,2.61,26.07-55.1,26.07-55.1l-7.6,5.91,10.85-20.88-3.81,3c-1.44,1.13,7.27-10.41,7.84-11.58s-4.51,3.17-7,5.34S121,276,121.77,274.75c.06-.08.08,0,.1.22l10.66,24.47-3.77-3.27,9.93,30.21-5.78-5s11,25.27,10.29,24.56-3.27-3.74-3.27-3.74,4.32,10.14,3.64,9.36-2.8-3-2.8-3S160.31,391.87,159,390s-8.51-8.51-8.51-8.51l8.27,14.35L155.3,394s16,40.81,15.47,39.57S160.46,419.63,160.9,421s4.38,9.22,3.26,8.36a6.3,6.3,0,0,0-2.25-1.11s7.81,16.52,15.55,30c.08.14-7.52-4.73-7.52-4.73l3.88,9.59s8.31,16,5.18,14.09S162.51,473,162.51,473l-40.44-1.81Z" fill="#6d7c19" fill-rule="evenodd"/></g><g clip-path="url(#b7654caa-55b0-43e8-b023-81f92024addf)"><rect x="-927.2" y="-12.18" width="1104.13" height="706.64" fill="#9ef6f7"/><path d="M-178.25-12.18H176.93V99.22C99.17,81.87-1.19,77.65-35.18,206S-190.86,426.86-355.77,369.26c-142.16-49.65-285.78,69.35-383.05,99.35s-155.88,1.86-188.38-5.18V361.19c68.25-2,133.45-37.93,172.38-105.5C-707.1,172.85-599.28,161.88-468,154.14S-327.77,115.5-262.63,43.73c24.9-27.43,55.75-44.85,84.38-55.91Zm-748.95,0V231.43C-845.49,23.85-443.32,158-363.1-12.18H-531.8c-32.64,19.85-70.22,35.46-110.66,39-92.54,8.2-182.86-21.15-227.81-39ZM176.93,161.17c-26.73-10.36-72.72-21.07-112.73,5.12-89.81,58.78-31.94,205.69-249,234.07,209-1.3,181.14-165.74,263.33-212.54,29.33-16.7,71.88-3,98.38,15V161.17ZM-278.63-12.18c-39.26,51.61-63.08,126.42-202.61,136,167,11.26,162.81-85.86,250-136Z" fill="#aefbfc" fill-rule="evenodd"/><path d="M65.15,394.44H155c-25.56-8-24.54,0-44.38-5.66-7.27-2.08-13.07-5-18.37-1.74C78.48,394.44,70.29,388.09,65.15,394.44Z" fill="#fff" fill-rule="evenodd"/><path d="M146.07,76H21.48c35.43-11.14,34,0,61.53-7.86,10.08-2.87,18.12-7,25.48-2.4C127.59,76,139,67.22,146.07,76Z" fill="#fff" fill-rule="evenodd"/><path d="M176.93,498.8V600c-16-1.29-31.74,3.23-118.8,0s-95.77-2.65-207-7.09-219.26-71.58-153.28-72.29S-211.43,502-196.6,500.73s23.22-9.67,29.67-11.61,49.65-7.74,78.67-21.28,52.24-40,56.75-42.56,10.32,3.87,16.77-1.29,20-23.86,23.86-10.32,38.05,60.62,62.55,67.71,41.27,3.23,54.82,11S176.93,498.8,176.93,498.8Z" fill="#76e6e8" fill-rule="evenodd"/><path d="M176.93,498.8v33.68c-16-1.36-40.55-5-50-14.66C112.3,503,83.12,499.44,81,497.18s-24-3.54-45.28-29.34S7.4,411.16,7.4,411.16l-1-1.81c1.12.66,2.05,2,2.71,4.32,3.87,13.54,38.05,60.62,62.55,67.71s41.27,3.23,54.82,11,50.44,6.45,50.44,6.45ZM-78.91,514.91s-5.16,5.16-17.41,7.42-11.28,5.48-15.15,8.71-28.38,14.51-28.38,14.51h16.28s9.84-6.45,14.67-11.45,5.81-8.06,12.9-9,14.67-5.64,17.09-10.16Zm72.23-48.68C-8.62,483.64,3,502,6.54,505.89s3.87,18.38,7.74,25.15S24.6,554.58,24.6,554.58s20.63,1,18.7-2.58-23.86-21.61-24.83-29-3.87-13.22-12.9-24.19S-6.68,466.23-6.68,466.23Z" fill="#5bdcde" fill-rule="evenodd"/><path d="M99.11-12.18h77.82V36.54C143,28.36,78.89,19.78,20,50.35-65,94.52-88.17,180.64-99.21,212.66s-32,112.62-145.75,127c29.13-10,96.06-17.66,125.87-130.28S-42.9,46.64,10.09,17.23C30.83,5.72,63.75-4.94,99.11-12.18Z" fill="#9ef6f7" fill-rule="evenodd"/><path d="M291.79,587.8C149.86,587.54-8.13,568.25-147.46,532,91,572.31,238.61,565.88,291.79,561.14Z" fill="#47b8cf" fill-rule="evenodd"/><path d="M291.79,708.17H-456.38C-606.73,619.64-774.83,449.52-707,184.51c27.18-85.58,131.52-85.6,206.47-106l36.44,28.3c-266.4,300.53,320.5,480.19,755.93,481V708.17ZM-158.13,521.89C-207,500.29-257.87,466.79-278.7,413c-6.79-17.55-30.38-12.45-17,12.52S-240.76,497.07-158.13,521.89Z" fill="#57ced9" fill-rule="evenodd"/><path d="M291.79,703.76C97,693.07-83.34,645.67-83.34,645.67c156.87,19.14,280.27,25.08,375.13,24.49v33.6Zm-486.39,4.41c-80.84-23.29-134.65-43.57-134.65-43.57,82.95,19,156.63,33.11,221.71,43.57Z" fill="#47b8cf" fill-rule="evenodd"/><path d="M-523.86,388.3s87.93,116,277.49,183.33,471.11,70.62,471.11,70.62S-250,631.25-523.86,388.3Z" fill="#47b8cf" fill-rule="evenodd"/><path d="M222.67,708.17s-65.22,0-117.1-16.52S44.64,644,20.83,646.9,2.74,671.65,2.74,671.65s-36.17,8.57-67.59-4.76-50.46-40.94-66.64-27.61,18.67,38.83,18.67,38.83-16.77,18,12.74,30.06Z" fill="#d6fcff" fill-rule="evenodd"/><path d="M222.67,708.17s-65.22,0-117.1-16.52S44.64,644,20.83,646.9A24.44,24.44,0,0,0,9.18,651c.23-.06,18.47-4.62,42.59,27.07,7.39,9.7,21.38,20.19,37.27,30.09ZM2.74,671.65c6.67,9.28,14.05,12.62,14.05,12.62s-69.5,11.42-103.3-18.57-45-26.42-45-26.42c16.18-13.33,35.22,14.28,66.64,27.61S2.74,671.65,2.74,671.65Z" fill="#fff" fill-rule="evenodd"/><path d="M-32.71,592.29C65,618.82,177.6,624.2,278.49,618.07c0,0-114.52-2.79-140.83-10.2s-46.82-11.76-58-8.92S48,601.32,30.19,593C-36.87,561.5-51.92,585.06-32.71,592.29Z" fill="#9ef6f7" fill-rule="evenodd"/></g><path d="M489.74,290,479.57,307.1s-7.15,2.58-16.89,5.75c-13.86,4.55-32.95,10.34-44.15,11.74a3.35,3.35,0,0,1-3.39-1.7l-5.1-9.27-6.3-11.44,9.46-20.51,33.54,17.56Z" fill="#f9ad9b"/><path d="M462.68,312.85c-13.86,4.55-32.95,10.34-44.15,11.74a3.35,3.35,0,0,1-3.39-1.7l-5.1-9.27c5.06,1.88,21.38,6,52.36-3.71Z" fill="#f29981"/><path d="M523.25,226.76s4.6-44.64,8.53-62.36l-3.93-12.48,19.69-44.64,68.27-11.16L644.7,71.18l70.24,30.2s42,149,43.33,180.52c0,0-7.88,28.89-12.48,56.46,0,0-45.95,238.3-46.61,260.62l-333.48.66L451,420.42l15.75-69.59,2.63-31.51L497,261.55Z" fill="#d35d36"/><polygon points="466.79 350.83 479.92 428.95 503.56 472.94 533.1 433.55 533.75 375.78 615.81 96.12 547.54 107.28 554.76 154.55 531.78 164.4 544.91 218.23 523.25 226.76 496.99 261.55 469.42 319.32 466.79 350.83" fill="#f89a63"/><polygon points="588.84 415.31 579.51 272.16 643.82 103.08 644.7 71.18 714.94 101.38 741.33 195.4 653.16 305.36 677.01 413.24 588.84 415.31" fill="#f89a63"/><polygon points="554.76 154.55 547.54 107.28 527.85 151.92 531.78 164.4 554.76 154.55" fill="#eb6a35"/><path d="M459.25,549.55s-1.54,2.67,3.88,13.93c0,0,2.14,10.7,11.32,7.64a12.89,12.89,0,0,0,6.79-5.66c2.34-3.84,7.24-10.6,14.59-14.61,0,0,12.89-6.44,11.77-15.43a6,6,0,0,0-6.47-5.5c-1.77.19-3.91,1.09-6.27,3.45a18.17,18.17,0,0,1-11.33,2.26,17.07,17.07,0,0,1-5.83-1.94Z" fill="#f48225" data-secondary="true"/><path d="M480.75,544.57c-3.22,6-12.22,8.82-15.81,9.73a4.86,4.86,0,0,1-4.2-.78c-2.94-2.32-1.84-7.08-1.74-7.48v0c-3.54-5.75-12.82-33.17-12.82-33.17a42.83,42.83,0,0,1-5.92-12.77c-6.3-21-3.37-50-3.37-50a2.09,2.09,0,0,0,0-.25,14,14,0,0,0-8-12.46c-8.54-4-17.61-13.38-17.61-13.38-15-8.41-35.82-26.2-35.82-26.2A96.52,96.52,0,0,0,405,362.37q5.44,5.26,10.34,10.16c26.09,26,40.6,43.32,47.15,51.41a7.48,7.48,0,0,1,1.61,3.9c1.82,18.86,1.55,39,1.55,39-.89,9.73,6.19,53.07,6.19,53.07a30.59,30.59,0,0,0,6.23,14.13c.51.66,1,1.24,1.46,1.72A7.76,7.76,0,0,1,480.75,544.57Z" fill="#f9ad9b"/><path d="M440.27,500.08c-6.3-21-3.37-50-3.37-50a2.09,2.09,0,0,0,0-.25,14,14,0,0,0-8-12.46c-8.54-4-17.61-13.38-17.61-13.38-15-8.41-35.82-26.2-35.82-26.2A96.52,96.52,0,0,0,405,362.37q5.44,5.26,10.34,10.16c-1,1.15-25,29.24,27.78,64.54C443.12,437.07,435.34,474.67,440.27,500.08Z" fill="#f29981"/><path d="M434.66,185.71s2.44,6,0,8l-19.46,2L398.83,195l-5.52-2.65.89-5.75,1.76-2.43s1.58-4.09,4.54-1.4a7,7,0,0,0,3.12,1.9,9,9,0,0,0,4.29.17l-.05,0a8.36,8.36,0,0,1-1.1-.66l-.07-.06a6.58,6.58,0,0,1-3-5.67s2-12.95.89-21.45c0,0,11,3,21.45,1.55,0,0,.36.48.93,1.31,2.15,3.21,7.28,11.56,6,17.23C433,177.05,440.18,183.71,434.66,185.71Z" fill="#f9ad9b"/><path d="M385.4,201.4a2.56,2.56,0,0,1-3.17-.45c-3.85-4.07-15.69-18.62-6-34.92,0,0,4-16.59,27-18.8,0,0,4.64-1.54,11.94,1.33,0,0,5.53,0,7.74-2.87,0,0-1.11,6-3.54,6.41a6.93,6.93,0,0,0,6.41-6.64s4,6.64,2.44,11.94h0a5.17,5.17,0,0,1-5.44,4.1A55.56,55.56,0,0,1,404.59,157s1.81,5-.52,19.33a8.4,8.4,0,0,0,3.69,8.45l.14.08a9.14,9.14,0,0,1-2.14.37,8.19,8.19,0,0,1-5.54-1.92c-1-.81-2.64-1.41-4.26.89l-1.77,2.43,4.55,8.81S389.1,199.2,385.4,201.4Z" fill="#7a383a"/><path d="M434.87,338.29s-1.61,7.51,5.47,13.41c0,0,10.9,12.38,18-2.07a38.53,38.53,0,0,1,6.13-11.76,76.29,76.29,0,0,0,5.32-7.57c4.92-8.06,14.15-23.5,17.7-31.66a3.87,3.87,0,0,0-3.63-5.4c-2.91.08-7.16,2-12.84,8.93,0,0-10.61,11.07-18.43,11.14L437.68,306S440.6,334,434.87,338.29Z" fill="#f48225" data-secondary="true"/><path d="M406.79,292.34v-1.21c.29,0,29.73-.44,55.76-30.81L500,220c1-1.05,2-2.23,3.13-3.62,2.65-3.27,13.51-13,23.15-13.74l.09,1.21c-8.73.67-19.35,9.66-22.3,13.29-1.15,1.41-2.19,2.62-3.18,3.69l-37.4,40.34C437.06,291.92,407.09,292.34,406.79,292.34Z" fill="#686175" data-primary="true"/><polygon points="333.37 379.99 338.27 370.94 345.81 379.64 339.76 384.48 333.37 379.99" fill="#f48225" data-secondary="true"/><ellipse cx="391.32" cy="185.71" rx="4.86" ry="7.52" transform="translate(-33.65 269.48) rotate(-36.54)" fill="#f29981"/><path d="M434.66,185.71s2.44,6,0,8l-19.46,2L398.83,195l-5.52-2.65.89-5.75,1.76-2.43s1.58-4.09,4.54-1.4a7,7,0,0,0,3.12,1.9,9,9,0,0,0,4.29.17c3.17,4.61,8.9,5.24,8.9,5.24,12.19,1.52,13-9.5,13-9.5,2.12-9.15-2.92-20.76-2.92-20.76H427c2.15,3.21,7.28,11.56,6,17.23C433,177.05,440.18,183.71,434.66,185.71Z" fill="#f29981"/><path d="M532,164.25l-.68,8.85-.64,8.41C526,185.15,516,184.16,516,184.16c-4.32-.66-9.3,2-9.3,2l-24.39,13.19-.15.08a78.82,78.82,0,0,1-31.44,9.22,20.13,20.13,0,0,0-4.61.84l-19.34,5.86c-7,3.65-5.31,6.63-5.31,6.63-7.3.66-11.28,7.3-20.24,13.6s-26.52,23.89-26.52,23.89l-18.25,21.21-3.9,3.39L327,296.77l4.25-11.45c13.27-45.1,36.33-67.43,36.33-67.43s9.16-13.36,17.76-16.48c0,0,9-11.2,30.48-9.5a9.46,9.46,0,0,1,3.3.89l.06,0a13.28,13.28,0,0,0,7,1.16c.95-.11,2.07-.28,3.38-.53l6.52-1.52a11.38,11.38,0,0,0,5.68-3.2c2.69-2.86,8.72-7.52,20.22-8.84l41-4.54a14,14,0,0,0,2.8-.61l7.58-2.53,9.63-3.29a9.89,9.89,0,0,0,4.07-2.56A6.53,6.53,0,0,1,532,164.25Z" fill="#f9ad9b"/><path d="M337.06,268.76l-10,28s25.59-11.76,31.35-17.46l39.16-39.16s15.3-14,24.12-15l-.26-4.41s-17.38-2.6-29.31,9.59C392.09,230.29,353.75,264.54,337.06,268.76Z" fill="#f29981"/><path d="M452.58,313.31c-7.1-.9-7.1,13.24-7.1,13.24-1.33,13.07-10.61,11.74-10.61,11.74l.07-2.83a4.44,4.44,0,0,0-.75-2.64,24.74,24.74,0,0,1-1.52-2.79,110.78,110.78,0,0,1-4.95-13.63,32.83,32.83,0,0,0-3.16-7.12c-.24-.38-.48-.77-.7-1.16-7.18-12-10.66-26.45-10.66-26.45-18.5,40.36-23,46.18-23.95,47-.2.17-.26.13-.26.13l-32.5-48.12c19.75-23.36,21.72-24.7,21.72-24.7a253.23,253.23,0,0,1,23.07-20.4,89.36,89.36,0,0,0,8.6-7.12c6.91-6.65,11.62-6.47,11.62-6.47,18.63-2.54,21.36,18.33,21.72,25.89a33.31,33.31,0,0,0,.69,5.16,151,151,0,0,1,2,18c.83,13.07.91,26.63.91,26.63a23.2,23.2,0,0,0,1.78,9.62,19.26,19.26,0,0,0,1.23,2.45A15.79,15.79,0,0,0,452.58,313.31Z" fill="#f9ad9b"/><path d="M531.27,173.1l-.64,8.41C526,185.15,516,184.16,516,184.16c-4.32-.66-9.3,2-9.3,2l-24.39,13.19c1.92-1.21,22.54-14.13,25.26-18.2,0,0,1.43-2.29,6.87-.86,0,0,14-1.14,16.58-7.14Z" fill="#f29981"/><path d="M424.56,309.28c-.24-.38-.48-.77-.7-1.16-7.18-12-10.66-26.45-10.66-26.45-18.5,40.36-23,46.18-23.95,47a165.06,165.06,0,0,1-8.08-15.18s26.89-34.56,32.66-64.34C413.43,251.68,411,272.2,424.56,309.28Z" fill="#f29981"/><path d="M401.31,352.33c-11.94,29.19-33.06,39.25-33.06,39.25l-.29-.26c-2.19-1.83-6.5-3.94-10.8-5.77a81.65,81.65,0,0,1-39.41-35.67,105.67,105.67,0,0,1-5.67-11.82c-7.29-29.52,14.79-42.63,27.84-47.68.88-.34,1.71-.65,2.49-.92a36,36,0,0,0,12.54-7.4l1.54-1.39s26.63,47.31,30.66,51.61l2.23,2.05a26.94,26.94,0,0,1,5,6.23Z" fill="#686175" data-primary="true"/><path d="M387.15,332.28s-6.35-7.68-20.56-30.51L356,281.2l7-8.29s6.55,17.81,13.54,27.84l15.21,24.72-4.54,6.81Z" fill="#f48225" data-secondary="true"/><path d="M387.89,374.57s-12.2,13.75-19.93,16.75c-2.19-1.83-6.5-3.94-10.8-5.77a81.65,81.65,0,0,1-39.41-35.67,105.67,105.67,0,0,1-5.67-11.82c-7.29-29.52,14.79-42.63,27.84-47.68-1.61,6.37-10.44,32.73-1.13,47.19,2.19,3.4,7.65,6.81,11.56,7.85,4.77,1.28,12.14,1.72,21.63-2.31C372,343.11,365.76,372.49,387.89,374.57Z" opacity="0.2"/><path d="M387.36,332.3a50.25,50.25,0,0,1-10.82,9.2,40.55,40.55,0,0,1-13.2,5.48,28.44,28.44,0,0,1-7.19.5,24,24,0,0,1-7.07-1.38,30.42,30.42,0,0,1-11.83-7.81,40.06,40.06,0,0,0,5.75,4.09,27.68,27.68,0,0,0,20.1,3.42,42.13,42.13,0,0,0,13-5.1,55.1,55.1,0,0,0,5.86-3.89A56.81,56.81,0,0,0,387.36,332.3Z" fill="#686175" data-primary="true"/><path d="M387.36,332.3a50.25,50.25,0,0,1-10.82,9.2,40.55,40.55,0,0,1-13.2,5.48,28.44,28.44,0,0,1-7.19.5,24,24,0,0,1-7.07-1.38,30.42,30.42,0,0,1-11.83-7.81,40.06,40.06,0,0,0,5.75,4.09,27.68,27.68,0,0,0,20.1,3.42,42.13,42.13,0,0,0,13-5.1,55.1,55.1,0,0,0,5.86-3.89A56.81,56.81,0,0,0,387.36,332.3Z" opacity="0.2"/><path d="M318.58,358.3c.73,6.73-7.69-3.21-7.69-3.21s-9.55-54.74,41.69-71C352.58,284.07,313.79,314.24,318.58,358.3Z" fill="#f48225" data-secondary="true"/><path d="M368.13,391.27l7.52,6.53s20.59-11.84,31.72-35.07a2.72,2.72,0,0,0-.29-2.81l-5.89-7.9S391.13,378.45,368.13,391.27Z" fill="#f48225" data-secondary="true"/><path d="M449.82,309.69,446,312.44c-8.38-10.81-3.38-31.31-.13-41.45.83,13.07.91,26.63.91,26.63a23.2,23.2,0,0,0,1.78,9.62A19.26,19.26,0,0,0,449.82,309.69Z" fill="#f29981"/><path d="M452.58,313.31c-7.1-.9-7.1,13.24-7.1,13.24-1.33,13.07-10.61,11.74-10.61,11.74l.07-2.83a4.44,4.44,0,0,0-.75-2.64,24.74,24.74,0,0,1-1.52-2.79,72,72,0,0,0,15.92-22.79C449.12,308.57,449.94,310.17,452.58,313.31Z" fill="#686175" data-primary="true"/><path d="M480.75,544.57c-3.22,6-12.22,8.82-15.81,9.73a4.86,4.86,0,0,1-4.2-.78c-2.94-2.32-1.84-7.08-1.74-7.48v0s8.33,2,17.37-6.78a7.44,7.44,0,0,0,1.61-5.1l.08-.08c.51.66,1,1.24,1.46,1.72A7.76,7.76,0,0,1,480.75,544.57Z" fill="#686175" data-primary="true"/><path d="M326.24,372.67,340.38,383a3.48,3.48,0,0,1,1.26,3.86c-.94,2.9-2.72,7.7-4.95,10.25a3.14,3.14,0,0,1-3.17.95c-3.84-1-13.59-3.66-16.83-6.23Z" fill="#f48225" data-secondary="true"/><path d="M326.24,372.67,340.38,383a3.48,3.48,0,0,1,1.26,3.86c-.94,2.9-2.72,7.7-4.95,10.25a3.14,3.14,0,0,1-3.17.95c-3.84-1-13.59-3.66-16.83-6.23Z" opacity="0.2"/><path d="M306.13,364.05s-7.86,14.73-3.71,19.4l14.27,8.41a2.82,2.82,0,0,0,3.76-.85,32.5,32.5,0,0,0,5.79-18.34l-11.37-9.62Z" fill="#f48225" data-secondary="true"/><path d="M306.13,364.05l20.11,8.62s-4.91-11.95-8.52-17.2a5,5,0,0,0-8.13-.17C308.35,357,307.13,359.72,306.13,364.05Z" fill="#686175" data-primary="true"/><polygon points="569.13 437.09 624.11 432.94 600.25 474.44 604.4 598.91 480.96 598.91 496.52 528.38 569.13 437.09" fill="#f89a63"/><polygon points="380.35 598.91 431.17 568.83 428.06 468.21 365.7 599.63 380.35 598.91" fill="#f89a63"/><polygon points="569.13 437.09 588.84 415.31 677.01 413.24 624.11 432.94 569.13 437.09" fill="#eb6a35"/><path d="M472.43,659.71,461.15,386.46c-.27-1.5-.52-3.13-.73-4.76a98.27,98.27,0,0,1,10.78-58.05L525,220.54l1.08.56L472.27,324.21a97.11,97.11,0,0,0-10.65,57.34c.2,1.61.45,3.21.73,4.78l11.29,273.33Z" fill="#686175" data-primary="true"/><path d="M523.25,226.76l21.66-8.53L531.78,164.4q-2.16,11.91-4,24.55C525.84,202,524.37,214.64,523.25,226.76Z" fill="#eb6a35"/><path d="M796.88,104.49a17.76,17.76,0,0,1,14.19-6.71c8.34,0,15.3,5.32,16.8,12.33,7.75,1.36,13.59,7.23,13.59,14.25a12.86,12.86,0,0,1-.21,2.33,15.87,15.87,0,0,1,5.86,12.21,16.5,16.5,0,0,1-11.48,15.38c0,.33,0,.67,0,1,0,8.39-7.79,15.21-17.4,15.21A18.86,18.86,0,0,1,807,166.88a20.3,20.3,0,0,1-15.58-1.38,23.36,23.36,0,0,1-14.68,5,22.77,22.77,0,0,1-16.84-7c-3.26,2.65-8.32,4.35-14,4.35a24.48,24.48,0,0,1-11.41-2.65,17.85,17.85,0,0,1-9.67,2.65c-7.49,0-13.6-4-13.94-9-18.44-.27-36-.44-42.07-.76-.07,0,32.77-4.82,35.87-7.41a2.39,2.39,0,0,0,.23-.22,7.3,7.3,0,0,1-.79-3.3c0-4.78,4.67-8.67,10.43-8.67a11.64,11.64,0,0,1,7.08,2.31c2.08-2.5,5.91-4.18,10.28-4.18a15.35,15.35,0,0,1,6.87,1.55c.2-6.48,6.42-11.68,14.05-11.68a17.31,17.31,0,0,1,2.72.22,9.29,9.29,0,0,1-.12-1.5c0-6.29,5.87-11.41,13.09-11.41a15,15,0,0,1,4.38.66,13,13,0,0,1,2.93-6.13,9.92,9.92,0,0,1,4.37-3.54,18.16,18.16,0,0,1,16.68-.24Z" fill="#eff2ff" fill-rule="evenodd"/><path id="ad1b7c04-d6f7-43f9-beea-3f34b1be107c" data-name="SVGID" d="M796.88,104.49a17.76,17.76,0,0,1,14.19-6.71c8.34,0,15.3,5.32,16.8,12.33,7.75,1.36,13.59,7.23,13.59,14.25a12.86,12.86,0,0,1-.21,2.33,15.87,15.87,0,0,1,5.86,12.21,16.5,16.5,0,0,1-11.48,15.38c0,.33,0,.67,0,1,0,8.39-7.79,15.21-17.4,15.21A18.86,18.86,0,0,1,807,166.88a20.3,20.3,0,0,1-15.58-1.38,23.36,23.36,0,0,1-14.68,5,22.77,22.77,0,0,1-16.84-7c-3.26,2.65-8.32,4.35-14,4.35a24.48,24.48,0,0,1-11.41-2.65,17.85,17.85,0,0,1-9.67,2.65c-7.49,0-13.6-4-13.94-9-18.44-.27-36-.44-42.07-.76-.07,0,32.77-4.82,35.87-7.41a2.39,2.39,0,0,0,.23-.22,7.3,7.3,0,0,1-.79-3.3c0-4.78,4.67-8.67,10.43-8.67a11.64,11.64,0,0,1,7.08,2.31c2.08-2.5,5.91-4.18,10.28-4.18a15.35,15.35,0,0,1,6.87,1.55c.2-6.48,6.42-11.68,14.05-11.68a17.31,17.31,0,0,1,2.72.22,9.29,9.29,0,0,1-.12-1.5c0-6.29,5.87-11.41,13.09-11.41a15,15,0,0,1,4.38.66,13,13,0,0,1,2.93-6.13,9.92,9.92,0,0,1,4.37-3.54,18.16,18.16,0,0,1,16.68-.24Z" fill="#eff2ff" fill-rule="evenodd"/><g clip-path="url(#e2c36f33-a24d-4771-af0f-ed6e6bb1d945)"><path d="M795.27,97.54a17.76,17.76,0,0,1,14.19-6.71c8.35,0,15.3,5.31,16.81,12.33,7.75,1.35,13.59,7.22,13.59,14.25a11.93,11.93,0,0,1-.22,2.32A15.89,15.89,0,0,1,845.5,132c0,7.05-4.78,13.06-11.48,15.37,0,.34,0,.67,0,1,0,8.39-7.8,15.21-17.4,15.21a18.81,18.81,0,0,1-11.26-3.62,20.3,20.3,0,0,1-15.58-1.38,23.35,23.35,0,0,1-14.69,5,22.79,22.79,0,0,1-16.84-7c-3.25,2.65-8.31,4.35-14,4.35a24.41,24.41,0,0,1-11.42-2.65,17.8,17.8,0,0,1-9.67,2.65c-7.48,0-9.8-2.26-10.14-7.29-17.17,2.27-41.2,5.41-47.23,5.09-.07,0,34.14-12.41,37.24-15l.23-.21a7.37,7.37,0,0,1-.79-3.31c0-4.78,4.67-8.66,10.42-8.66a11.58,11.58,0,0,1,7.09,2.31c2.08-2.51,5.9-4.19,10.28-4.19a15.3,15.3,0,0,1,6.86,1.55c.2-6.47,6.42-11.68,14.06-11.68a16.07,16.07,0,0,1,2.71.23,10.84,10.84,0,0,1-.11-1.51c0-6.29,5.86-11.4,13.08-11.4a14.92,14.92,0,0,1,4.38.65,13,13,0,0,1,2.93-6.12,9.82,9.82,0,0,1,4.38-3.54,18.14,18.14,0,0,1,16.67-.24Z" fill="#eff2ff" fill-rule="evenodd"/></g><path d="M820.24,152.89c2.28-3.41,1.28-8.56-2.47-12s-8.64-3.94-11.85-1.67a6.32,6.32,0,0,1,.65-.82c3.06-3.35,8.86-3,12.94.7s4.9,9.49,1.83,12.83A6.32,6.32,0,0,1,820.24,152.89Z" fill="#eff2ff" fill-rule="evenodd"/><path d="M738.09,152.7a12.78,12.78,0,0,0,22.57-11.11,13.11,13.11,0,0,1,.82,1.35,12.73,12.73,0,0,1-22.56,11.79A12.2,12.2,0,0,1,738.09,152.7Z" fill="#eff2ff" fill-rule="evenodd"/><path d="M718,144.48c-3.81,1.28-6.2,4.8-5.44,8.26s4.17,5.51,8,5.26a9.73,9.73,0,0,1-1,.28c-4.37,1-8.6-1.31-9.42-5.06s2.06-7.58,6.44-8.54A10.1,10.1,0,0,1,718,144.48Z" fill="#eff2ff" fill-rule="evenodd"/><path d="M787.21,149.92c-.63,4.27,2.47,8.66,7.38,10.15,4.74,1.44,9.58-.32,11.57-4a8.42,8.42,0,0,1-.25,1.08c-1.38,4.59-6.83,7-12.16,5.39s-8.52-6.64-7.13-11.23A7.45,7.45,0,0,1,787.21,149.92Z" fill="#eff2ff" fill-rule="evenodd"/><path d="M805.51,123.83a11,11,0,0,0-19.21-10.17,9.83,9.83,0,0,1,.52-1.26,11,11,0,0,1,19.68,9.81A10.16,10.16,0,0,1,805.51,123.83Z" fill="#eff2ff" fill-rule="evenodd"/><circle cx="242.73" cy="166.86" r="66.12" fill="#ffcc4c"/><path d="M213.35,217.47H342.89l-18.82-7.29S321.65,196,315.31,196s-10.63,8.75-10.63,8.75.19-29.38-16-29.38-19.76,28.75-19.76,28.75-3.91-14.38-12.67-14.38-12.12,18.34-12.12,18.34Z" fill="#fff"/></svg>