<svg id="b3ae208a-67c5-4c84-b174-9e419ae3908c" data-name="Layer 1" xmlns="http://www.w3.org/2000/svg" xmlns:xlink="http://www.w3.org/1999/xlink" width="865.76" height="682.89" viewBox="0 0 865.76 682.89"><defs><clipPath id="b2a3d9b3-8021-4981-a6eb-a8851426250b"><rect id="bc1ebb7e-6e7b-4b48-a481-ed65d4ffed8a" data-name="SVGID" y="3" width="864.72" height="681" fill="none"/></clipPath></defs><g clip-path="url(#b2a3d9b3-8021-4981-a6eb-a8851426250b)"><path d="M-102.88,66.48H-47v73.24H7.64v26.63h25.3v-16H62.23v-29.3H76.88V69.15h97.21V82.46H191.4v67.92h21.3v12h20v-20h24V95.78h7V74.37h8.59v5.29h10.58v-8.6h17.2v20.5h7.27l16.2-16.2,22.15,17.52V72.39h43.64v36.36h27.77V167.6H427V137.18h17.19V65.7h88.75V85.39h10.57v25.27c0,.88,74.65,0,74.65,0v44.67h29.68V136.52h57.52V74.37h62.15v42.32h10.58V103.46h34.39v36.37h31.73V104.78h35V75.69h9.25V53.87h17.86V324H-100.2Z" fill="#ccc" opacity="0.63"/><polygon points="-17.03 684.39 302.53 321.94 905.95 321.94 905.95 684.5 -17.03 684.39" fill="#58595b"/><polygon points="-17.03 684.39 -43.98 684.13 299.44 321.71 302.53 321.94 -17.03 684.39" fill="#ccc"/><polygon points="-17.03 684.39 -43.98 684.13 299.44 321.71 302.53 321.94 -17.03 684.39" fill="#fff" opacity="0.2"/><polygon points="37.13 321.35 -100.4 410.39 -100.4 684.57 -43.98 684.13 299.44 321.71 37.13 321.35" fill="#ccc"/><polygon points="-100.4 396.95 29.19 322.23 37.13 321.35 -100.4 410.39 -100.4 396.95" fill="#ccc"/><polygon points="-100.4 396.95 29.19 322.23 37.13 321.35 -100.4 410.39 -100.4 396.95" opacity="0.2"/><polygon points="29.19 322.23 -99.96 321.79 -100.4 396.95 29.19 322.23" fill="#ccc"/><polygon points="24.77 684.44 312.85 321.57 302.53 321.94 -17.03 684.39 24.77 684.44" opacity="0.2"/><path d="M104.46,358.71s69.19-12.47,43.85-80c0,0-2.82-8.85,3.22-20.51,0,0,28.56-43.85,1.2-67.18,0,0-38.82-43.94-100.2.24,0,0-22.43,15.17-18.43,42.48a46.55,46.55,0,0,0,6.82,18.1c5.52,8.75,17.39,30,11.61,43.2,0,0-1.44,3.29-4.67,9.54a44.28,44.28,0,0,0-5,18.19C42.1,338,49,360.22,95.52,360.22A53.4,53.4,0,0,0,104.46,358.71Z" fill="#d1d3d4"/><polygon points="93.58 428.28 96.62 322.35 58.85 281.55 96.19 314.54 99.22 217.73 101.83 275.47 146.98 245.51 100.96 282.85 106.17 428.1 93.58 428.28" fill="#a7a9ac"/></g><path d="M390.87,409.53l23,.31a4.71,4.71,0,0,0,4.76-4.32H643.37a4.59,4.59,0,0,0,4.59,4.59h21.71V397.74l-280.95-2.09Z" fill="#2f2e41"/><path d="M390.87,409.53l23,.31a4.71,4.71,0,0,0,4.76-4.32H643.37a4.59,4.59,0,0,0,4.59,4.59h21.71V397.74l-280.95-2.09Z" opacity="0.2"/><path d="M666.79,357.54h51.79a0,0,0,0,1,0,0v68.31a8.92,8.92,0,0,1-8.92,8.92h-34a8.92,8.92,0,0,1-8.92-8.92V357.54A0,0,0,0,1,666.79,357.54Z" fill="#2f2e41"/><path d="M342.53,356.76h51.79a0,0,0,0,1,0,0v68.83a8.4,8.4,0,0,1-8.4,8.4h-35a8.4,8.4,0,0,1-8.4-8.4V356.76A0,0,0,0,1,342.53,356.76Z" fill="#2f2e41"/><path d="M426.93,145.46s117-10.52,191.64-1.44a37.83,37.83,0,0,0,4,.28c3.57,0,11.77.46,15.33,3.2,0,0,49.35,57.87,54.67,97.28,0,0,28.05,36.21,25.92,58.22l1.42,41.89s-2.13,27.69-8.52,45.44c0,0-1.78,7.1-10.65,7.81l-79.6,2-102.59.52L456,400.1l-87.41-2.88-3.92.26s-13.09,2.09-14.92-8.11c0,0-7.59-21.2-7.33-34.81l-.26-51s-.26-15.18,10.21-33.24c0,0,8.37-14.66,11.77-19.37a35.32,35.32,0,0,0,5.76-13.34s1.57-11,11.52-27.48C381.4,210.1,413.06,148.07,426.93,145.46Z" fill="#686175" data-primary="true"/><path d="M688.05,229.13h4.3V213.79s-.54-4.3,4.31-4.57c0,0,20.44-4.31,30.94,7.53a14.09,14.09,0,0,1,5.11,12.11s-.65,3.23-5.2,5.94a17.36,17.36,0,0,1-7.46,2.34l-28.86,2.4A47.19,47.19,0,0,0,688.05,229.13Z" fill="#686175" data-primary="true"/><path d="M692.35,229.13,731,227.76s-.91,9-17.53,8.64L690.93,238s-1.71-5.9-2.88-8.84Z" opacity="0.1"/><path d="M711.8,317.32s1,35.76-4.95,53.63a4.18,4.18,0,0,1-2.49,2.59c-6.81,2.56-32.59,10.95-72.73,8.67,0,0,17.16-16.89,25.21-28.16,0,0,5.09-8,11.52-12.6C668.36,341.45,688.21,322.68,711.8,317.32Z" opacity="0.4"/><path d="M372.34,229.63H368V214.3s.54-4.31-4.3-4.58c0,0-20.45-4.3-30.94,7.54a14.07,14.07,0,0,0-5.11,12.1s.64,3.23,5.19,5.94a17.6,17.6,0,0,0,7.47,2.35l29,2.47A79.38,79.38,0,0,1,372.34,229.63Z" fill="#686175" data-primary="true"/><path d="M368,229.63l-38.62-1.37s.92,9,17.54,8.64l22.5,1.57a86.4,86.4,0,0,1,2.56-8.82Z" opacity="0.1"/><path d="M432.81,164a308.45,308.45,0,0,0-35.74,66.14L385.19,230s19-45.81,39.78-75.9c0,0,48.44-4,66.08-3.75h58.71l25.36.55L635.48,154s22.65,30.31,39.86,75.36l-11.45.12s-18.47-44.38-35-65c0,0-61.75-4.69-109.71-3.59C519.17,160.81,455.62,162.17,432.81,164Z" opacity="0.2"/><path d="M669.41,307.67a37.09,37.09,0,0,1-23.08-1c-.57-.3-1.28-.61-2.05-.92a39.12,39.12,0,0,0-18.15-2.43c-19.73,2-52.25,11.15-52.25,11.15-42.94,13.07-84.68.34-84.68.34l-45.64-10.86a45.77,45.77,0,0,0-28,2.05,33.1,33.1,0,0,1-14.68,2.57c-16.57-.85-37.41-8.86-37.41-8.86-6.45-1.7-6.11-10.35-6.11-10.35l-15.21,14.19.28,12.28s42.65,7.61,73.62,51.65a95.21,95.21,0,0,0,15.89,17.65c7.24,6.21,16.88,12.95,26.36,14.91H604.94s20.31-4.55,54.19-49a60.53,60.53,0,0,1,7.25-7.93c8.73-8,28.48-23.61,52.49-27.08l-.4-13-14.13-13.34S702.19,301,690.8,302Z" opacity="0.2"/><path d="M408.55,308.21c13.29,40.31,35.6,56.75,43.22,61.38,1.44.87,2.84,1.81,4.25,2.76,9.19,6.18,34.51,7.33,34.51,7.33,30.62,2.36,70.47.76,70.47.76l24-2.11c19.8-1.92,33-15.66,33-15.66,19-12.36,34.28-54.3,34.28-54.3l1.81.28C649.89,327.23,632.9,354,632.9,354c-26.43,37.95-63,33.17-63,33.17-36.51,3.92-95.11-2.17-95.11-2.17-53.77-8.79-67.51-76.54-67.51-76.54Z" opacity="0.2"/><path d="M415.34,325.9s204.93,7.41,229.38-.28c0,0-11.17,26.31-26.74,37.05,0,0-13.8,14.25-33,15.66l-24,2.11-34.68.67-35.79-1.43S466.75,379,456,372.35C456,372.35,432.64,361.06,415.34,325.9Z" fill="#2f2e41"/><path d="M636.84,331.4l-2.92,5.83S561.19,343.05,512,341l-84-3.66-3.93-5.5s65.95,5,111.75,3.93C535.8,335.72,556.77,337.28,636.84,331.4Z" opacity="0.2"/><path d="M431.38,343.57l4.19,6s59.93,9.16,189.74-.26l3.92-5.5S501.32,351.16,431.38,343.57Z" opacity="0.2"/><path d="M619,356.65l-5.76,5.5c-41.61,5.76-165.16.1-165.16.1l-5.79-5.8S560.4,361.89,619,356.65Z" opacity="0.2"/><path d="M459.12,369.48H601.75a54,54,0,0,1-27,7.06l-95.26-.78S468,375.24,459.12,369.48Z" opacity="0.2"/><path d="M374.7,234.49S372.61,249.36,364,259a40,40,0,0,0-6.66,30.33s-1,8,6.11,10.35c0,0,20.27,8.45,38.82,8.68a34.76,34.76,0,0,0,14-2.78,42,42,0,0,1,27.3-1.66l22.94,5.41,22.7,5.45s27.11,9.15,66.75,3.94l11.47-2.61,23.47-6.26s25.82-5.74,38.34-6.78c0,0,9.5.09,15,2.65a36.12,36.12,0,0,0,25.13,1.94L690.8,302a15.53,15.53,0,0,0,13.54-12.36s1.3-20.74-9.39-33c0,0-7.82-9.65-9.91-21.91,0,0-5.22,14.87-24.77,23.21,0,0-24.26,11.22-38.86,21.39a48.3,48.3,0,0,1-16.69,4.43s-72.76,7-144.74,0a41.89,41.89,0,0,1-21.65-4.69s-23.06-16-36.24-20.84a48.39,48.39,0,0,1-12.59-6.95C384.25,247.27,378,241.39,374.7,234.49Z" fill="#fff" opacity="0.2"/><path d="M371.1,256.3c-3.66,3.63-13.39,15.41-9.78,35.05,0,0,1.47,4.08,8.33,6.21S394,304.09,394,304.09s13.89,2,25.49-2.94c0,0,18.94-5.06,19.92-13.4,0,0,1.31-3.43-13.06-11.27,0,0-38.22-21.59-51.46-21.72A5.32,5.32,0,0,0,371.1,256.3Z" opacity="0.3"/><path d="M383.54,260s-9-4.82-12.91,2.45c0,0-8.09,8.7-6.69,24.82,0,0,.49,6.87,11.59,10.3l15.69,3.92s14,2.61,27.76-2.62c0,0,16.5-5.06,16.83-10.45,0,0,1.8-5.88-18.3-14.38Z" fill="#fff"/><path d="M383.54,260s-15.36,18.94-8,37.57c0,0-10.48-2.84-11.59-10.3,0,0-2.29-13.88,7-25.31C371,262,373.25,255.57,383.54,260Z" fill="#2f2e41"/><circle cx="390.89" cy="280.44" r="10.78" fill="#ccc"/><circle cx="412.94" cy="285.34" r="7.51" fill="#ccc"/><path d="M690.36,256.4c3.66,3.63,13.38,15.41,9.78,35.05,0,0-1.47,4.08-8.33,6.21s-24.34,6.53-24.34,6.53-13.89,2-25.49-2.94c0,0-19-5.06-19.93-13.39,0,0-1.3-3.43,13.07-11.27,0,0,38.22-21.6,51.45-21.73A5.32,5.32,0,0,1,690.36,256.4Z" opacity="0.3"/><path d="M677.92,260.09s9.39-4.39,12.91,2.45a36.9,36.9,0,0,1,6.69,24.83s-.49,6.86-11.6,10.29l-15.68,3.92s-14,2.61-27.77-2.62c0,0-16.49-5.06-16.82-10.45,0,0-1.8-5.88,18.29-14.37Z" fill="#fff"/><path d="M677.92,260.09s15.36,19,8,37.57c0,0,9.81-2,11.6-10.29,0,0,2.29-13.89-7-25.32C690.5,262.05,688.21,255.68,677.92,260.09Z" fill="#2f2e41"/><circle cx="670.57" cy="280.54" r="10.78" fill="#ccc"/><circle cx="648.52" cy="285.44" r="7.51" fill="#ccc"/><g opacity="0.3"><path d="M431.28,274.37l-.63-.38c1-.07,104.18-7.28,200.08-.6l-.72.46C534.15,267.18,432.29,274.29,431.28,274.37Z"/></g><path d="M642.6,232.64c-8.94,3-36.58,30.88-36.58,30.88-35.49-5.69-150.9-.27-150.9-.27-16-17.88-36.31-32-36.31-32s94.13-1.14,112.7-.06C531.51,231.22,610.55,231.37,642.6,232.64Z" fill="#fff" opacity="0.09"/><path d="M428.37,381.65c-44.52,1.24-66.15-6-71.49-8.16a4,4,0,0,1-2.08-1.93c-7.24-14.72-5.49-54-5.49-54s28.12,8.55,48.83,29.05c0,0,9.89,9.38,16.28,18.45C414.42,365.05,421.83,376.2,428.37,381.65Z" opacity="0.4"/><path d="M358.27,328.37s-2.78,27.82,10.82,34.61c0,0,13.08,7.83,37.19,7.63C406.28,370.61,387.94,338.05,358.27,328.37Z" fill="#ccc"/><path d="M362.67,330s-2.65,21.87,7.76,29.39c0,0,12.05,8.55,34.41,9l1.44,2.27s-24.62.82-39.46-9.17c0,0-10.51-5.56-8.55-33.07Z" opacity="0.3"/><path d="M702.8,328.61s2.78,27.81-10.82,34.61c0,0-13.08,7.83-37.19,7.63C654.79,370.85,673.13,338.29,702.8,328.61Z" fill="#ccc"/><path d="M698.41,330.23s2.64,21.87-7.77,29.39c0,0-12,8.55-34.41,9l-1.44,2.27s24.62.82,39.46-9.17c0,0,10.51-5.57,8.55-33.07Z" opacity="0.3"/><path d="M630.46,296.51l-33.61,4.8c-12.57.23-45,10.74-45,10.74-24.46,7.32-54.86-3-54.86-3C469.06,298.79,429.74,297,429.74,297c10.26-4.18,9.66-9.21,9.66-9.21s69.66,9.9,182.65.11C622.05,287.86,622.23,292.85,630.46,296.51Z" fill="#2f2e41"/><path d="M618.33,292.6c-75.33,7.34-175.94.26-175.94.26v2s33.12,3.29,44.24,7.58c0,0,31.6,14.66,75.58,2.53,0,0,47.27-10.36,55.87-11.37Z" opacity="0.2"/><ellipse cx="530.24" cy="302.98" rx="10.74" ry="5.43" fill="#fff"/><path d="M491.92,213.89h-11.2V205A12.41,12.41,0,0,0,488,192.84l-1-13.14a12.38,12.38,0,0,0-12.35-11.48H456.5a12.37,12.37,0,0,0-12.32,11.19l-1.27,13.14a12.39,12.39,0,0,0,7.85,12.74v8.6H437.4c-7.94,0-14.33,7.35-14.33,15.29l83.22-1.2A14.12,14.12,0,0,0,491.92,213.89Zm-37.87-7.83a11.51,11.51,0,0,0,1.18.06h20.39a13.38,13.38,0,0,0,1.8-.13v7.9H454.05Z" opacity="0.2"/><path d="M627.66,209.7h-15V205a12.39,12.39,0,0,0,7.25-12.19l-1-13.14a12.38,12.38,0,0,0-12.35-11.48H588.42a12.38,12.38,0,0,0-12.33,11.19l-1.27,13.14a12.39,12.39,0,0,0,7.85,12.74v4.41H570.11c-8.38,0-15.18,8.15-15.18,18.21l.14.2L643,229.33l-.16-1.42C642.84,217.85,636.05,209.7,627.66,209.7ZM586,206.06a11.31,11.31,0,0,0,1.17.06h20.39a13.38,13.38,0,0,0,1.8-.13v3.71H586Z" opacity="0.2"/><path d="M551.67,183.41l-1.54-10.18a1,1,0,0,0-1-.83l-16.58-.2v-2.92a3.33,3.33,0,1,0-3.82.08c0,.86,0,1.94,0,2.8l-16.69-.2a1,1,0,0,0-1,.84l-1.55,10.62a1,1,0,0,0,1,1.12H550.7A1,1,0,0,0,551.67,183.41Z" opacity="0.2"/><path d="M559.33,228.18a34.34,34.34,0,0,1,7.22-12.72c3.27-3.81,9.85-6.48,15.43-8.18a60.53,60.53,0,0,1,19.75-2.56c9.52.33,23,2.46,28.45,11.3.23.38.45.75.7,1.11,1.29,1.94,5.8,8.42,5.68,11.91Z" fill="#f48225" data-secondary="true"/><path d="M615.47,228.75c-4.58-5-15.16-4.78-15.16-4.78-12.95,0-19.49,4.58-19.49,4.58l-12.43-.13s17.79-12.83,33.1-10.47c0,0,17.41,1.31,25,11.12Z" fill="#2f2e41"/><path d="M583.17,228.68l-4.83-7.3a2,2,0,0,0-3.06-.43,1.85,1.85,0,0,0-.48,1.84s-3.53-.39-3.27,2.88c0,0-3.27-.52-3.14,2.75Z" fill="#f9b499"/><path d="M613.15,228.75l4.68-7a2,2,0,0,1,3.07-.43,1.87,1.87,0,0,1,.48,1.84s3.53-.39,3.27,2.88c0,0,3.53-.35,3.39,2.92Z" fill="#f9b499"/><ellipse cx="598.09" cy="183.53" rx="15.57" ry="20.02" fill="#f9b499"/><ellipse cx="614.48" cy="185.58" rx="3.88" ry="2.52" transform="translate(218.12 690.48) rotate(-68.67)" fill="#f9b499"/><ellipse cx="582.03" cy="185.32" rx="2.52" ry="3.88" transform="matrix(0.98, -0.17, 0.17, 0.98, -23.26, 103.34)" fill="#f9b499"/><path d="M580.56,181.57s-6.42-18.71,9.68-25.25c0,0,12.56-4.06,20.94,2.35,0,0,11.92,7.07,4.72,23.29,0,0-1.58-.65-2.24.53a32,32,0,0,0-3.79-12.3s-11.52,5.1-22.51-.92c0,0-4.19,3.27-4.71,12.82C582.65,182.09,582.39,181.18,580.56,181.57Z" fill="#2f2e41"/><path d="M591.42,198.19h13.87a0,0,0,0,1,0,0v10.18a5.91,5.91,0,0,1-5.91,5.91h-2a5.91,5.91,0,0,1-5.91-5.91V198.19A0,0,0,0,1,591.42,198.19Z" fill="#f9b499"/><path d="M557,228.63s58.79-24.19,88.09-42.56l1.06,2.39s-52.73,31.43-83.62,39.95Z" fill="#2f2e41"/><path d="M252.22,247.56a15.23,15.23,0,0,1,6.53,10.1s3.36,11.9-1.81,17c0,0-2.39,6.78-3.27,8.39,0,0-.15,4.45-1.34,6.31a42.33,42.33,0,0,1-5.07,12l-5.54,9.32-2.69,5.8s-2.28,7.45-5.7,9.83c0,0-5.49,6-8.07,7.66a92.43,92.43,0,0,1-5.91,11l-3.2,5.07s-1.45,4.35-3.73,5.07c0,0-14.67-12.12-24.44-14.76,0,0-2.9-3-6.46-3,0,0-11.74-2.91-18.21-1.85L179,308.91s14-26.52,15.18-36.55l23.47-27.68,1.66-1.17s7.52-8.13,17.19.13c0,0,5.88,3.46,8,13.76,0,0,2.23,11.54,2.43,14.75l1.71,14.6a3.94,3.94,0,0,0,2.09,2.59s1.95.51,2.62-4.92a54.08,54.08,0,0,0,.36-6.11l.06-8.08-2-8.43a17.12,17.12,0,0,0-1.58-5.5,2.24,2.24,0,0,1-.24-1.44l.65-4.77a1.65,1.65,0,0,1,.34-.75A8.49,8.49,0,0,0,252.22,247.56Z" fill="#f48225" data-secondary="true"/><path d="M258,241l-5.66,6.35a11.05,11.05,0,0,1-1.45,2,1.47,1.47,0,0,0-.34.75l-.65,4.77a2.47,2.47,0,0,0,.24,1.44,15,15,0,0,1,1.58,5.5s2.07,7,2,9.45c0,0,0,4.56-.14,7.66,0,0,.2,10.47-2.93,10.43a.31.31,0,0,1-.19-.06,4.78,4.78,0,0,1-1.72-1.93,3.47,3.47,0,0,1-.24-1l-2-17.48s-1.24-7.25-1.79-9.81c0,0-1.24-10.62-8.21-15.46,0,0-8.08-8.42-17.19-.13l-1.66,1.17-5.17,1.24s7.24-7.18,13-8.42a4.4,4.4,0,0,1,1.38-1.79s-1.79-1.45.21-3.38a8.44,8.44,0,0,0,4.62-2.14s3.11-2.56,4.08-8.42a53.91,53.91,0,0,0,.69-6.08,12.42,12.42,0,0,0,7.23,11.11S248.07,238,258,241Z" fill="#f9b499"/><path d="M198.69,249.16s8.21-2.08,8.16-1.93a14.31,14.31,0,0,0,.62-5.09,2,2,0,0,1,.71-1.85c1.22-1,3-3.16,1.5-6.91,0,0-.32-.62.62-1.25a7.64,7.64,0,0,0,1-8.86,2,2,0,0,1-.13-1.69,5.4,5.4,0,0,0,.12-4,3.38,3.38,0,0,1,.74-1.55s-3.85-17.83,2.21-26.57a2.66,2.66,0,0,0-.9-1.45,1.31,1.31,0,0,1,.32-1.52,10.44,10.44,0,0,0,.93-3.32s.31-3,1.21-3.31c-.62-.26-.48-1.23-.48-1.23.2-1.58,3.55-5.87,3.55-5.87,1.07-1.53,2.23-.7,2.36-.6-.22-.3-5.26-6.74-11.2-1.48,0,0-8,8.65-7.15,14.72a1.28,1.28,0,0,1-.33,1c-1.11,1.22-3.7,5-.69,11.12a1.26,1.26,0,0,1,0,1.12,9.85,9.85,0,0,0,1.19,10.91,1.61,1.61,0,0,1,.33,1.34c-.31,1.57-.83,5.25.24,8a1.68,1.68,0,0,1-.11,1.48l-.6,1a1.65,1.65,0,0,1-.49.53,6.13,6.13,0,0,0-2.32,8,1.63,1.63,0,0,1-.28,1.84c-1.17,1.21-2.83,3.87-.49,8a2,2,0,0,1,.42,1.66S196.68,246.06,198.69,249.16Z" fill="#2f2e41"/><path d="M272.51,269.37a40.69,40.69,0,0,0-18-20s9.25,15.18,2.41,25.29c0,0-2.28,6.56-3,7.8l8.24,8.87s7.15,7.35,12.64,11L285,310.35s6.63,4.66,8.9,6.63c0,0,2.39,2.58,8,1.55L315,316.1l15.07-3.1c.65-.13,1.3-.29,1.94-.48l24.81-7.2a9.43,9.43,0,0,1,3-.37c3.83.15,14.17.06,19.33-4.8a6.45,6.45,0,0,1,2.34-1.38c3.61-1.26,12.46-4.58,12.46-7,0,0,.52-3.21-4.24-.94l-9.42,3.83s-.67-1.29,1.24-2.17c0,0,8.08-4.09,10.46-6.06,0,0,7.81-3,6-5.95,0,0-.67-3.05-7.56,2.38L380.86,288l-.11-.72s8.54-5.59,10.61-7.51c0,0,8.18-3.52,5.39-5.75,0,0-1.19-2.89-7.61,2.59,0,0-4.61,2.28-5.59,3.68l-5.39,3.21s-1-.31-.51-1.14a28.77,28.77,0,0,0,4.45-3.57,28.38,28.38,0,0,0,3.47-3.11s7.09-3.42,5.28-5.59c0,0-.94-3.21-7.3,2.38,0,0-5.66,3.44-8.33,5.59a9.74,9.74,0,0,1-1.63,1.07,23,23,0,0,0-2.66,1.54,3,3,0,0,1-1.6.53,11,11,0,0,0-3,.5,1.19,1.19,0,0,1-1.29-.33c-.34-.41-.46-1.16.42-2.53,0,0,6.62-8.48,1.58-12a1.61,1.61,0,0,0-1.22-.3,1.11,1.11,0,0,0-.93,1.08,5.46,5.46,0,0,1-.18,1.06,41.37,41.37,0,0,1-3.35,8.07,5.29,5.29,0,0,1-.55.7l-1.22,1.29A9,9,0,0,0,358,281.2l-3.78,8a3.8,3.8,0,0,1-1.61,1.73l-.39.21a3.13,3.13,0,0,1-.6.24c-2,.63-13.44,4.1-21.25,4.29,0,0-19.16-.41-25.58.72,0,0-3.72.73-6-1.13l-3.31-2.39S284.06,282.23,281.37,280C281.37,280,273.87,273.7,272.51,269.37Z" fill="#f9b499"/><path d="M146.32,384.89c-.26,5,.93,5.8.93,5.8l2.9,8.64a3.3,3.3,0,0,0,1.14,2.74c1.39,1,.93,4.14.93,4.14-.83.94.22,2.18.22,2.18-1.93,10.35-.64,26.76-.64,26.76a4.24,4.24,0,0,0-.05,2.43l.47,4.51c2.64-3,16.72-2.95,16.72-2.95a47.91,47.91,0,0,1,19.56,5.59l.42-3.93a3.79,3.79,0,0,0,.41-2.8c2.8-4.87,5.28-31,5.28-31,9,4.48,21.6,6.42,21.6,6.42,1.66-.28,4.14,1.52,4.14,1.52l3.48,2.17a.53.53,0,0,0,.68-.12l1.92-2.4c2.14-3,14.23-14.51,14.23-14.51a42.3,42.3,0,0,0,9.81-14.16,14.11,14.11,0,0,1,.66-1.42c.45-.89.11-1,.11-1l-3.9-1.76a1.88,1.88,0,0,0-2.07-.86A174.79,174.79,0,0,0,213.79,369a5.82,5.82,0,0,1-3.2-1.63c-.55-.93-1.59.07-1.59.07l-.45-.48,1-1.17a1.26,1.26,0,0,0-.22-1.9,2.34,2.34,0,0,0-.92-.42.48.48,0,0,1-.31-.72l4.07-5.8c1.17-1.24.21-1.82.21-1.82S198.66,343.54,188,340.31c-3.68-3.53-6.47-3-6.47-3-11.59-3.31-18.21-1.85-18.21-1.85l-.69-.24c-1.13.42-4.66,8.08-4.66,8.08l-8.28,10.46C137.88,373.09,146.32,384.89,146.32,384.89Z" fill="#2f2e41"/><path d="M251.24,383.47l20.12,9.94s3,.42,10.28,5.87c0,0,7.39,4,6,11.25a30.92,30.92,0,0,1-2.49,7.63,15.43,15.43,0,0,0-.88,2c-.76,2.18-2.44,6.74-3.81,8.61a15.11,15.11,0,0,0-1.13,1.73,95,95,0,0,0-4.53,9s-5,11.8-7.32,15c0,0-7.25,14.07-9.42,17.63,0,0-13.77,23.83-14.08,33.11,0,0-15.79,4.65-22.6-6.19,0,0,4.64-7.73,5.42-11.45l4.18-11.3,2.73-8.18a86.63,86.63,0,0,0,2.9-11.07c1.19-6.28,5-19.42,17.27-34.76,0,0-9-6-16.09-6.8l-11.37-1s3.64-4.35,7.68-8.23a112.44,112.44,0,0,0,11.54-12,42.76,42.76,0,0,0,5.48-9.85S251.57,383.77,251.24,383.47Z" fill="#f9b499"/><path d="M253.89,422.42c.62.46,3.06-2.74,8.55-2.63,0,0-8.42-7.08-17.18-7.39a5.64,5.64,0,0,0-3.82,1.22c-.88.73-1.4,1.72,0,2.76C241.47,416.38,248.85,418.69,253.89,422.42Z" fill="#f4a790"/><path d="M221.39,499.18s-.6-1.19-1.15.1a25.23,25.23,0,0,0-1.66,3.47s3.57,1.45,2.17,6.47c0,0-.88,4.61,3.52,5.85,0,0,6.37,1.4,11.8-1,0,0-1-4,7.92-8.67C244,505.37,227.93,509.9,221.39,499.18Z" fill="#ccc"/><path d="M202.79,520.51c3.63,3.21,22.15,14.29,22.15,14.29s12.84,7.55,14.91,9.1,10.05,5.18,10.05,5.18c13.2,4.4,19.22,4.83,21.65,4.69a3.44,3.44,0,0,0,2.27-1,3.49,3.49,0,0,0,.58-.84c1.12-2.37,0-5.46,0-5.46-.14-2-12.6-8.73-12.6-8.73a10.31,10.31,0,0,1-2.48-3.53,8.64,8.64,0,0,0,2.17-2.94,1.19,1.19,0,0,0-.21-1.17l-4.19-5c-.93-1.19-2.38.94-2.38.94-.36-.47-1.3,0-1.3,0,.27-1.34-1.5-3.93-1.5-3.93a3.68,3.68,0,0,0,1.59-1.65.74.74,0,0,0-.08-.84l-4-4.81a1.62,1.62,0,0,0-.53-.6.79.79,0,0,1-.37-.57l-.06-.35a.21.21,0,0,1,.08-.21,1.37,1.37,0,0,0,.58-1.12v-.08l-.31-6.38a.51.51,0,0,0-.36-.48,1.21,1.21,0,0,1-.71-.64c-.28-.62-1.15-1.41-3.77,1.05,0,0-8.11,3.95-7.9,8.66a20.35,20.35,0,0,1-11.81,1c-4.5-1.33-3.52-5.85-3.52-5.85,1.5-4.9-2.17-6.47-2.17-6.47a3,3,0,0,0-1.82-.78,17.31,17.31,0,0,0-4.74,3.26,7.46,7.46,0,0,1-1.83,1.33,10.78,10.78,0,0,0-4.88,4.73,4.4,4.4,0,0,1-.39.66C201.2,517.24,202.79,520.51,202.79,520.51Z" fill="#f48225" data-secondary="true"/><path d="M198.4,525.19c2,3,6.81,6.12,6.81,6.12l36.63,18.28c26.81,12.59,31.6,3.94,32,3.14a3.44,3.44,0,0,1-2.27,1c-2.43.14-8.45-.29-21.65-4.69,0,0-8-3.62-10.05-5.18s-14.91-9.1-14.91-9.1-18.52-11.08-22.15-14.29c-.62-.62-3.27,2.35-4.32,3.58A.92.92,0,0,0,198.4,525.19Z" fill="#2f2e41"/><path d="M116.19,562c6.91,3.71,16.82,3.2,16.82,3.2,3.81-.72,4.22.2,4.22.2,2-2.17,3.31-2.06,3.31-2.06,0-4.23,5.05-13,5.05-13,4.54-8.46,12.18-22.59,12.18-22.59,4.74-6.61,16.81-34.15,16.81-34.15,1.44-4.13,3.1-5.57,3.1-5.57,3.19-3.61,6.81-12.17,6.81-12.17a13,13,0,0,0,2.16-12.49c-.41-5.67,1.85-18.65,1.85-18.65a47.91,47.91,0,0,0-19.56-5.59s-14.08-.05-16.72,2.95c3.23,7.19,3,26.35,3,26.35.1,5.46-1.45,6.7-1.45,6.7-1.44,2.17-5.47,9.8-5.47,9.8L140,500.52c-3,4.74-4.64,12.89-4.64,12.89a99,99,0,0,1-3.92,11.87l-9.08,23.83C120.94,554.89,116.19,562,116.19,562Z" fill="#f9b499"/><path d="M101.16,586.73a4.48,4.48,0,0,0,.74,1.21,94.6,94.6,0,0,0,22.92,8.54l13.8,5.75s2.24,1.51,7.67,2.63c0,0,1.28,1.12,6.22,1,0,0,11.67,1.82,18.43-1.21,0,0,3.46-.82,3.11-5.12,0-.19,0-.4-.08-.61,0,0-.48-3.73-3.59-4.07,0,0-7.24-1.54-10.53-2.06a3,3,0,0,1-1.82-1c-.12-.14-.25-.27-.38-.4a1.06,1.06,0,0,1-.26-1.08c.31-.9.68-2.56-.29-3.7,0,0-2.86-4-5.28-4.79a2.33,2.33,0,0,0-1.1.42L148.85,579s1.45-1.79,0-2.55c0,0-3.24-4-5-4.49l-.7.28-.1-.66s.64-10.79-2.55-8.23a5.48,5.48,0,0,0-3.31,2.06s-1.72,4.17-1.72,6.88a11.67,11.67,0,0,0-6.09,1.66,15.59,15.59,0,0,1-3.11,1.29c-2.66.76-7.37,1.58-11.12-.53a2.58,2.58,0,0,1-1.19-1.48,9.45,9.45,0,0,1-.36-2.53s.48-4-2.64-4.71a6.47,6.47,0,0,0-3.74,3.64,2.77,2.77,0,0,1-1,1.33c-1.19.8-3.45,3-4.65,8.52C101.58,579.48,99.87,583.69,101.16,586.73Z" fill="#f48225" data-secondary="true"/><path d="M98.69,594a7.39,7.39,0,0,0,3.12,1.86l31.34,8.61a10,10,0,0,1,2,.81c3.75,2,19.13,9.12,35.85,2.16a5,5,0,0,0,2.49-2.2,8.14,8.14,0,0,0,.58-5.73h-.06c.35,4.3-3.11,5.12-3.11,5.12-6.76,3-18.43,1.21-18.43,1.21-4.94.16-6.22-1-6.22-1-5.43-1.12-7.67-2.63-7.67-2.63l-13.8-5.75a94.6,94.6,0,0,1-22.92-8.54,4.48,4.48,0,0,1-.74-1.21h-.06l-2.64,4A2.65,2.65,0,0,0,98.69,594Z" fill="#2f2e41"/><path d="M116.19,562s-.27-.66-1,.64c0,0-1.63,3.92-2.55,4.11a4.77,4.77,0,0,1,1,3.94s-.29,3.07,1.55,4c0,0,5.39,3.42,14.23-.76a15.1,15.1,0,0,1,6.09-1.66,28.22,28.22,0,0,1,1.72-6.88s-.66-1.11-4.22-.2C133,565.21,123.57,565.74,116.19,562Z" fill="#ccc"/><path d="M186.09,273.1,180,283.32a1.37,1.37,0,0,0,.88,2h0a.55.55,0,0,1,.35.83l-9.29,15.28a1,1,0,0,0,.78,1.45l.51,0a1.14,1.14,0,0,1,1.06,1.43,10.2,10.2,0,0,1-1.76,3.6,4.36,4.36,0,0,0-.92,2.39c-.2,2.95-1.05,9.76-4.7,13.86a8.23,8.23,0,0,0,4.76-6.79l.19,3.64,3.21-5.49s-.16-2.85.36-3.52c0,0,1.14-.62,1.08,1.24,0,0,16.65-29.55,17.7-40.94Z" fill="#2f2e41"/><path d="M258,241s-9.09-2-14.3-14.15c0,0,.13,9.22,11.18,17.5Z" fill="#f4a790"/><ellipse cx="261.64" cy="210.02" rx="21.33" ry="31.72" fill="#f9b499"/><ellipse cx="244.53" cy="217.19" rx="7.71" ry="10.39" transform="translate(-64.06 108.83) rotate(-22.26)" fill="#f9b499"/><path d="M251.63,224.17s2.82-6.32-1-11.84c0,0-3.57-6.75-10-4.76,0,0-4.64,1.31-4.22,8.35,0,0,.55,15.87-10.22,16.56,0,0-11.18.83-14.63-17,0,0-3.82-20.16,4.11-27.65a2.89,2.89,0,0,0,.8-1.33,15.73,15.73,0,0,1,1.2-3.08,3.35,3.35,0,0,1-.62-3l8.46-7,8.79-1.95c23.23-3.71,33,7.9,33,7.9s-5.66-1.26-4.68,4c0,0,7.61,9-3.9,16.2,0,0-5.86,1.75-2.54,10.54,0,0,7,12.1-4.49,14" fill="#2f2e41"/><path d="M215.84,179.87a.88.88,0,0,0,.5,0l.67.53a2.82,2.82,0,0,0,.62,3s4.89-7.3,8.16-9.77a1.29,1.29,0,0,0,.51-1.27,1.17,1.17,0,0,0-.34-.62,1,1,0,0,0-1.19,0,1.25,1.25,0,0,0-2-.05s-1-.35-1.48.49h0c-.13-.1-1.29-.93-2.36.6,0,0-3.35,4.29-3.55,5.87C215.36,178.64,215.22,179.61,215.84,179.87Z" fill="#f48225" data-secondary="true"/><path d="M107.86,269.87c5.13.06,17.27,1.51,20.47,1.91.52.06,1,.15,1.54.25a83.51,83.51,0,0,0,19.88,1.29,9.15,9.15,0,0,1,3.31.14c5.94,1.73,13.53.69,13.53.69a67.44,67.44,0,0,1,10.28-.55,37.69,37.69,0,0,0,5.87-.21l9.53-.76,14-.79a12.94,12.94,0,0,0,8.12,8,8.7,8.7,0,0,0,3.32.38c9.42-.76,22.83-12.4,22.83-12.4,5.17-5.8,1.34-15.63,1.34-15.63-2-6.83-12.21-8.7-12.21-8.7l-4.35.73c-2.9-.62-7.7.48-7.7.48s-19.71,4.43-25,6.35a78,78,0,0,1-14.49,2.28,118.57,118.57,0,0,0-16.43,3.1,59.05,59.05,0,0,0-15.63-1.65,288.58,288.58,0,0,0-33.49,1.08,124.07,124.07,0,0,1-13.89.16c-4.14-.42-5.78,1.21-5.78,1.21L88,258c-2.24.88-8.11.25-8.11.25l-8.37.13a20.06,20.06,0,0,1-4,.06c-3.68-.31-16.35-2.06-16.35-2.06A1.47,1.47,0,0,0,50,258.08c.75,1.78,4.17,2.37,5.83,2.55a5.23,5.23,0,0,1,1.49.4,38.43,38.43,0,0,0,5.1,1.47.14.14,0,0,1,0,.27l-12,.87a21.87,21.87,0,0,0-5.74-.25,1.82,1.82,0,0,0-1.12,2.25c.89,1.65,4.52,1.77,6.52,1.7a9.28,9.28,0,0,1,2.23.22,33.26,33.26,0,0,0,4.82.43.1.1,0,0,1,0,.19l-9,2a9.57,9.57,0,0,1-2.67.14,1.42,1.42,0,0,0-1.63,1,2.34,2.34,0,0,0,.94,2.24c2.18,1.44,6.8.07,6.8.07a2.16,2.16,0,0,0-.09,1.27,2.61,2.61,0,0,0,1.11,1.65c1.58,1,4.19.66,5.39.41a3.39,3.39,0,0,1,1.23,0,12.9,12.9,0,0,0,4,0,3.39,3.39,0,0,1,.64,0,12.59,12.59,0,0,0,4-.94,6.81,6.81,0,0,1,3.38-.31,9.07,9.07,0,0,0,3.24-.09,1.86,1.86,0,0,1,.78,0,6.1,6.1,0,0,0,1.76.16,1.35,1.35,0,0,1,1,.3,5.09,5.09,0,0,0,2.48,1.06,1.44,1.44,0,0,1,.57.29.52.52,0,0,1-.13.89,5.21,5.21,0,0,0-.91.49,4.22,4.22,0,0,0-.93,6.19l0,0a2.52,2.52,0,0,0,2.19,1,1.78,1.78,0,0,0,1.57-1.25,2.2,2.2,0,0,1,.45-.77,15.32,15.32,0,0,0,1.16-1.61,1.66,1.66,0,0,1,.77-.64A12.74,12.74,0,0,0,87.91,280,33.91,33.91,0,0,0,92.19,276a2.07,2.07,0,0,0,.46-.36,5.91,5.91,0,0,0,1.29-1.91c0-.1.09-.2.14-.3A3.53,3.53,0,0,1,95.71,272c1.21-.55,2.69-1.36,2.69-1.36,2.83-.76,9.73-.76,9.73-.76Z" fill="#f9b499"/><path d="M206.31,271.84l29,.14s-10.7,7.93-17.39,8.21C218,280.19,210.12,281.16,206.31,271.84Z" fill="#f4a790"/></svg>