<svg id="f882936c-7e26-49a0-8109-464566a94247" data-name="Layer 1" xmlns="http://www.w3.org/2000/svg" width="865.76" height="682.89" viewBox="0 0 865.76 682.89"><path d="M499.54,391.62l-6.25,80.06c-4.37,11.12-9.54,32.77-9.54,32.77-2.78,18.87-19.86,52.64-19.86,52.64-5.76,11.72-13.06,38.13-13.06,38.13l-4.47.06a6.9,6.9,0,0,0-4.95.89c-1.36.76-3.36,1.66-4.75,2.26a11.61,11.61,0,0,1-5.1,1c-4.24-.17-5.74-2.57-6.13-3.38-.11-.24-.22-.47-.35-.7a18.47,18.47,0,0,1-1.17-16,8.73,8.73,0,0,1,.95-1.68,6,6,0,0,0,1.1-2.87,10.11,10.11,0,0,1,.58-2.5c4.85-13.28,8.64-38.52,9.49-44.48a5,5,0,0,0-.16-2.11,17.08,17.08,0,0,1-.41-4.25,3.06,3.06,0,0,0-.21-1.16,14.31,14.31,0,0,1-.64-2.57c0-.12,0-.23,0-.34a51.59,51.59,0,0,1,5.52-25.17l9.72-23.33,2.37-7.82c2.08-4.55.2-10.79.2-10.79-1.09-4.06-.3-16.82-.3-16.82.5-7.72.6-21.13.6-21.13h0c.11-.18,7.27-11.6,14.22-13.67,0,0,9.23-5.37,10.13-9.54a6.4,6.4,0,0,0,4.17-.15s1,5.81,4.47,6.71Z" fill="#f9b499"/><path d="M591.21,170.07l-.39,3.51c-.27,4.24-6.66,8.43-6.66,8.43-11.32,10.58-26.22,3.28-26.22,3.28-2.53-1.64-13-5.22-13-5.22-16.68-4.62-25-18.32-25-18.32-2.38-.45-8.19-7.75-8.19-7.75a10.39,10.39,0,0,0-9.24,7.3,118.59,118.59,0,0,1-3.42,39.63c2.38,6.41,1.93,10.28,1.93,10.28,2.39,6.56,1.94,17.58,1.94,17.58-.3,9.39,4.12,23.79,4.12,23.79-4.67-.1-15.69,2.68-15.69,2.68-6.06,1-19.17,6.35-19.17,6.35a13.13,13.13,0,0,0-4,1.2c-13.31-3.48-21.66-1.69-21.66-1.69l-12.21,2a52.7,52.7,0,0,0-17.91,4.77c-3.18.4-5.63,4.84-5.63,4.84a5,5,0,0,1-.37-1,27.56,27.56,0,0,0-3.54-8.59c-4-6-8.8-16.46-8.8-16.46-2.19-2.78-6-10.13-6-10.13-3.58-6.56-13.24-29-13.24-29-.4-1.11-.82-2.27-1.22-3.41a38.46,38.46,0,0,0-9.17-14.4L366,187.22c-1.79-.59-4.08-3.07-4.08-3.07-1-.93-2.68-1.15-4.38-1.08a12.79,12.79,0,0,0-7.29,2.86,18.24,18.24,0,0,1-3.67,2.18c-13.11,8.94-31.69,4.58-31.69,4.58s-13.11-.8-13.51-.7a10.25,10.25,0,0,1-4.27-.1c-14-3-20.26-15.19-20.26-15.19-3.38-8.84,2.28-14.41,2.28-14.41,3.67-2.78,10.33-15,10.33-15a79.1,79.1,0,0,1,23-25.63l13.71-11.62,2.38-1.19s14.6,5.36,14.7,5.86.4,6.45.4,6.45L331,146.3c-.8,2.09,3,.7,3,.7,20.07-14.2,26.72-12,26.72-12,2.68-2,11-2.73,11-2.73,3.83-4.75,32.86-27.18,32.86-27.18,0-1.19,2-4.09,2-4.09l3.39-13.28a6.31,6.31,0,0,0,5.31,1.79,5.1,5.1,0,0,0,2-.82c3.14,19.58,14.18,34,27.32,34,9.78,0,18.4-8,23.46-20.2l15.65,3c1.19,1,4.72,1.89,4.72,1.89L497,109a22.16,22.16,0,0,0,4.86.54,11.88,11.88,0,0,0,1.58-.13C509.18,108.65,517,113,517,113c11.63,5,19.84,16.31,20,16.49l-2.31-4.6.79-1c2.12-1.85-.36-7-.36-7l3-2.25a4.05,4.05,0,0,0,5,1.57c3.91-1.89,8.64-7.45,8.64-7.45l12.38,15c10,9.8,21.29,33.24,21.29,33.24l4.73,7.55C592.28,167.82,591.21,170.07,591.21,170.07Z" fill="#f9b499"/><path d="M537,129.52s8.89,29.81,15.84,36.45c0,0-13.43-7.75-20.54-26.39,0,0-25.6-31-65.9-33.5,0,0,.89-2.21,1.62-3.57l15.65,3a20,20,0,0,0,5.22,2l9,1.69a37.16,37.16,0,0,0,3.74.43,7.65,7.65,0,0,0,1.85-.12,12.73,12.73,0,0,1,6.28.68,51.89,51.89,0,0,1,18.58,10.23S534.6,125.84,537,129.52Z" fill="#f7a48b"/><path d="M510.72,329.05l-11.18,62.57-13.85,4c-3.43-.9-4.47,4.37-4.47,4.37a26.58,26.58,0,0,1-4.92,1.56c-.89,4.17-9.38-2.95-9.38-2.95-6.95,2.07-14.11,13.49-14.22,13.67h0l1.83-31.79c-.76-4.72.61-6.09.61-6.09l.91-8.67c-.76-4.56.91-10.49.91-10.49-3,1.52-7.58-2.36-8.39-3.08,6.5.89,14.86.58,25.34-2.37a34.45,34.45,0,0,0,6.42-2.54C487.4,343.62,505.7,334,510.72,329.05Z" fill="#f48225" data-secondary="true"/><path d="M453.46,655.67l-1-2c-.44-1.14-1.39-.2-1.39-.2l-3.47,2.29c-1.29.49-1.59,3-1.59,3-.7,4.27-8.74,2.08-8.74,2.08-6-1.09-10.93-6.85-10.93-6.85-6.95-6.85-6.65-13.31-6.65-13.31l-1.58-14.22c-1.65-9.18-9.05-23-9.05-23l-2.74-7.54c-1.78-6.72.41-9.05.41-9.05a6.52,6.52,0,0,1,3-2.7,44,44,0,0,1,7.72-3.19,5.22,5.22,0,0,1,1.92-4.11c-1.23-5.21,2.88-3.71,2.88-3.71a3.47,3.47,0,0,1,4.32-.8,10.11,10.11,0,0,0-.58,2.5,6,6,0,0,1-1.1,2.87,8.73,8.73,0,0,0-.95,1.68,18.47,18.47,0,0,0,1.17,16c.13.23.24.46.35.7.39.81,1.89,3.21,6.13,3.38a11.61,11.61,0,0,0,5.1-1c1.39-.6,3.39-1.5,4.75-2.26a6.9,6.9,0,0,1,4.95-.89l4.47-.06c3.8-2.31,3.85.95,3.85.95-5.93,15.45-6.88,37.66-6.88,37.66-1,3.51,2.58,4.36,2.58,4.36a5.87,5.87,0,0,1,2.88,6c-.24.86.12,1.2.28,1.3a2.15,2.15,0,0,1,.24.18,3.62,3.62,0,0,1,1.13,3.11,2.82,2.82,0,0,1-.16.71,2.94,2.94,0,0,0,.2,2.25,4.71,4.71,0,0,1,.42,1.42A2.36,2.36,0,0,1,453.46,655.67Z" fill="#686175" data-primary="true"/><path d="M453.85,658.9l-7.05,3.37a21.8,21.8,0,0,1-6.45,1.39c-25.83.2-26.81-26-26.81-26-1-9.38-7.56-19.54-7.56-19.54-4.72-4.24-9.2-17.85-9.2-17.85a11.46,11.46,0,0,1,2.54-12.89c3.1-5.1,9.16-3.68,10.38-3.33a6.52,6.52,0,0,0-3,2.7s-2.19,2.33-.41,9.05l2.74,7.54s7.4,13.85,9.05,23l1.58,14.22s-.3,6.46,6.65,13.31c0,0,5,5.76,10.93,6.85,0,0,8,2.19,8.74-2.08,0,0,.3-2.49,1.59-3l3.47-2.29s.95-.94,1.39.2l1,2a2.36,2.36,0,0,0,1.91-2.55l.07.12A4.21,4.21,0,0,1,453.85,658.9Z" fill="#f48225" data-secondary="true"/><path d="M480.21,73s-14.24-6.37-1.5-21.6c0,0,16.23-15.86,29.34-15.73a4,4,0,0,1,4,0s11.25-1,22,23.37a19.27,19.27,0,0,0,1.68,3c3,4.37,11.29,17.64,6.63,22.31l1.12,1.37a1.9,1.9,0,0,1,3.25,0l9.08,15.28a20.63,20.63,0,0,0,2.72,3.6h0a.88.88,0,0,1-.12,1.31l-13.21,9.74a5.15,5.15,0,0,1-7-.82l-.12-.16-3,2.25s3.09,4.77-.43,8l-2,1.8-3.75-5h0a1.57,1.57,0,0,1-2.32-.37l-9.46-14.79A5.89,5.89,0,0,0,513.4,104c-5.52-1.23-19.17-4.41-24.58-7C488.82,97,460.73,84,480.21,73Z" fill="#f48225" data-secondary="true"/><path d="M540.56,83.33l-8.93,5.54A1.9,1.9,0,0,0,531,91.4l.34.61a1.13,1.13,0,0,1-.38,1.5l-2.09,1.35a1.18,1.18,0,0,1-1.76-.6c-1-2.78-3.67-8.69-9.61-10.26a4,4,0,0,0-2.65.2c-1.18.52-2.71,1.48-2.62,3,0,.68.1,1.36.1,2l.05,5.59s.13,5,5.36,4.47a2.5,2.5,0,0,1,1.93.59h0a.89.89,0,0,1,0,1.36l-1.23,1s-1.59.61-1-.85a.49.49,0,0,0-.35-.67h0a2,2,0,0,0-1.51.21,2.47,2.47,0,0,1-2.79,0,3,3,0,0,1-.67-.72,2.22,2.22,0,0,0-1.68-.9c-1.5-.07-4.63-.68-10.36-3.58,0,0-13.64-6.72-16.16-9.83,0,0-7-5.83-3.67-12.88,0,0,12.81,3.67,19.53-9.17,0,0,7.91-22.71,17.68-15.79,0,0,6,1.27,12.22,14.68A19.46,19.46,0,0,0,531.56,66l5.16,7a9.68,9.68,0,0,1,2.4,5.6S539.37,82.8,540.56,83.33Z" fill="#686175" data-primary="true"/><path d="M487,73.37a18.78,18.78,0,0,0,11,4l.26-2.17a12.15,12.15,0,0,1-9.69-2.11Z" opacity="0.2"/><path d="M522.3,99.64l3.37-2.7s-1.58-2.67-2.42-4.5a9.3,9.3,0,0,0-1.19-2c-.33-.43-.73-1-1.08-1.51a3.36,3.36,0,0,0-1.52-1.27,10.22,10.22,0,0,1-1.12-.54,3.84,3.84,0,0,0-1.91-.47,7.54,7.54,0,0,1-.91,0,1.42,1.42,0,0,0-1.59,1.11.8.8,0,0,0,0,.44,7.27,7.27,0,0,1,.19,3,9.32,9.32,0,0,1-.06,1.8,2.59,2.59,0,0,0,.22,1.5,4.52,4.52,0,0,1,.39,1.3,1.85,1.85,0,0,0,1.38,1.58A25.13,25.13,0,0,1,522.3,99.64Z" fill="#f9b499"/><path d="M326.23,110.05s-7.32-5.35-3.43-6a2.06,2.06,0,0,1,.68-2.14s-2.91-2-.38-4.38l9.72-16.44s-3.3-5.74,4-13c0,0,23.25-34.34,50.49-23.74,0,0,18,4.58,16.1,25.24,0,0-2.28,13-7.15,14.8,0,0-9.14,3.08-12.81-2.29l-3.08,2.59-2.68.59s-2,5.76-4.57,3.68c0,0-1,.69-1,1.39,0,0,.95.74-.69,1.93A14.29,14.29,0,0,1,370.13,96s.84,1.64-2.09,2.93a4.63,4.63,0,0,1-3.42.94,5.29,5.29,0,0,1-4,.9l-7,7.54a4.17,4.17,0,0,0-2.28,2.54l-4.62,6.3s-.6,3.13-2.14,3.58c0,0-.1,3.77-2.58,3.77l1.74-3.33Z" fill="#f48225" data-secondary="true"/><path d="M350.32,87.85s-2.24,1.78.19,2.16l7.4,4.21s3.37-.28,3.37,2.34c0,0-2.34,3.09.75,2.44,0,0,5.52-.47,7.11-4.59l1.22-4.59,1.75.47,0,0a2.26,2.26,0,0,1,2-.91c.67,0,1.61-.32,2.6-2.07a5.43,5.43,0,0,1,3.53-2.65h.08L383.44,82l-.05-.06a2.78,2.78,0,0,1,1.38-4.23,8.34,8.34,0,0,0,5.25-6,9.19,9.19,0,0,0-1-7.53,7,7,0,0,0-7.29-3.31s-8.24.74-15.73,10.3Z" fill="#686175" data-primary="true"/><path d="M385.25,61.63s.47,12.18-7,13.11c0,0,1.59-11.14-.85-12.64l-2.52,1.13s3.84,5.05,1.59,14.89a5.19,5.19,0,0,0,0,.79,2,2,0,0,0,3.68.92C382.58,76.19,388,67,385.25,61.63Z" opacity="0.2"/><path d="M408.81,92.47l1.64-7.6,9.24,1.2s8.44,30.44,25.92,36C445.61,122.07,423,128.43,408.81,92.47Z" fill="#f7a48b"/><path d="M472.74,77.3A66.36,66.36,0,0,1,468,102.51c-5.06,12.18-13.68,20.2-23.46,20.2-13.14,0-24.18-14.46-27.32-34-.09-.58-.18-1.17-.25-1.76a71.47,71.47,0,0,1-.64-9.61,73.33,73.33,0,0,1,.57-9.12c2.62-20.71,14-36.29,27.64-36.29C460.11,31.89,472.74,52.22,472.74,77.3Z" fill="#f9b499"/><path d="M417.22,88.67a5.1,5.1,0,0,1-2,.82,6.31,6.31,0,0,1-5.31-1.79A15.47,15.47,0,0,1,405.43,79c-1.21-6.58,1.21-12.54,5.42-13.32,2.11-.39,4.27.6,6,2.52a73.33,73.33,0,0,0-.57,9.12,71.47,71.47,0,0,0,.64,9.61s0,.08,0,.12,0,.22,0,.32v.08c0,.18,0,.37.08.55v0C417.15,88.22,417.19,88.45,417.22,88.67Z" fill="#f9b499"/><path d="M405.89,70.23s-5.41-8.44-.39-24.15c0,0-1.59-9.76,9.5-13.59,0,0,4.88-4.49,9.5-5.15,0,0,9.24-8.31,21-4.75,0,0,4.75-.66,7,2.64,0,0,5.27,2.91,6.59,5.68,0,0,13.43,1.36,11.12,7.05a4,4,0,0,0,1.16,4.69,7,7,0,0,0,3.1,1.34,2.41,2.41,0,0,1,1.76,1.33,1.75,1.75,0,0,1-.25,2s1.85,1.32.53,2.51c0,0,3.17,2.11-1.32,3.43,0,0-2.24,2.64-6.6-.13,0,0-2.5-2.64-5.93,0,0,0-4,2.86-11.59-.16a13,13,0,0,0-9.41-.11,25.7,25.7,0,0,0-8.37,5.52,14,14,0,0,0-4,7.14l-.4,1.79a21.62,21.62,0,0,1-2.33,6.07c-1.41,2.48-3.2,6.08-2.79,7.72,0,0-2.53-8.46-6.81-12.87,0,0-3.75-4.68-8.37-1.51A7.3,7.3,0,0,0,405.89,70.23Z" fill="#f48225" data-secondary="true"/><path d="M513.4,496.17a6.1,6.1,0,0,1-1.39-.23A6.1,6.1,0,0,0,513.4,496.17Z" fill="none" stroke="#ea1c24" stroke-miterlimit="10"/><path d="M457,355.26s-6.17,2.4-9.15-5.95c0,0,36.55-5.76,57-19.07C504.81,330.24,493,351.7,457,355.26Z" opacity="0.2"/><path d="M500,291.21c-.15,25,10.73,37.84,10.73,37.84-5,4.9-23.32,14.57-30.4,18.22a34.45,34.45,0,0,1-6.42,2.54c-10.48,2.95-18.84,3.26-25.34,2.37-13.2-1.83-18.74-8.68-18.74-8.68-22.05-18.92-23.39-50.45-23.39-50.45-2.49-5.23,1.05-10.56,2.28-12.17a1.71,1.71,0,0,0,.35-1.06,5.51,5.51,0,0,1,.81-2.66,10.26,10.26,0,0,0,1-2.61,1.71,1.71,0,0,1,.06-.22,2.84,2.84,0,0,0-.1-1.62c2.78-4.81,5.63-4.84,5.63-4.84a50.1,50.1,0,0,1,17.91-4.77l12.21-2c9.34-1.79,21.66,1.69,21.66,1.69,1.09-.9,4-1.2,4-1.2a116.5,116.5,0,0,1,34.86-9,23.94,23.94,0,0,1,4.07-.1,5.22,5.22,0,0,1,5.12.15l3.82-.45C497.61,260.67,500,291.21,500,291.21Z" fill="#f48225" data-secondary="true"/><path d="M520.1,252.18l36.79-.5s25-.42,26.48,27.1c0,0,.42,10.22-2.09,14.81,0,0-2.92,12.72-6.67,15.85,0,0-11.47,14.8-14.59,25,0,0-12.52,26.9-17.1,31.48,0,0-18.14,23.36-20.44,56.72,0,0-1.93,7-1.93,7.45a11.44,11.44,0,0,1-4.07.55,56.23,56.23,0,0,0-11.52.89s-4.85.73-8-2.25c0,0-5.73-4.23-5.36-14.93a15.42,15.42,0,0,1,1-4.93c.8-2.13,2-5.61,2-7.95l1.26-8.94,3.18-15.36,5.66-34.93s-1.69-14.4,1.59-20.56c0,0-9.79-14.7-5.47-43.9C500.83,277.8,504.16,257.54,520.1,252.18Z" fill="#f9b499"/><path d="M542.6,293.15a52.59,52.59,0,0,1-9.24,3.28s-20,2.43-27.06,25.27c0,0-2.29-3.67-4.82-14.55A59.28,59.28,0,0,1,542.6,293.15Z" fill="#f7a48b"/><path d="M527.92,427.05s-.07,2.58-3.12,4.7c0,0-1.12,3.44-.59,5,0,0-6.49,11.46-5.3,28.29,0,0,2.53,14.3,4,16.54a11.52,11.52,0,0,1-.59,8.34s-.65,2.05-4.09,3.51l0,0a5.83,5.83,0,0,1-4.51,2.68h-.32a6.1,6.1,0,0,1-1.39-.23l-.12,0s-11.65-1.69-21.78-20.56c0,0-3-4.37-3.78-7.84,0,0-4.27-14.9-5.16-20.56,0,0-1.69-9.94-4.37-15L474,424l-2.59-8.12a8,8,0,0,1-.3-1.37c-.46-3.74-1.81-20.17,10.1-18.65l4.46-.21s8.06-4.95,10.18-3.1l-1.26,8.94a30.51,30.51,0,0,1-2,7.95,13.42,13.42,0,0,0-1,4.93S490.77,424,497,429.3c0,0,2.09,2.72,8,2.25,0,0,3.76-1.06,11.78-.86a13,13,0,0,0,3.82-.58l1.93-7.45v-.51S529,422.08,527.92,427.05Z" fill="#686175" data-primary="true"/><path d="M521.09,493.33c-5,6.42-15.89,2.73-15.89,2.73-26.81-9.68-28.88-42.85-28.88-42.85a127,127,0,0,0-10.84-23.87c-7.42-12.87-6.16-20.92-6.16-20.92.42-12.95,10.78-16,10.78-16,6.9-.61,9.85,1.91,10.78,3a2.91,2.91,0,0,1,.35.48c-11.91-1.52-10.56,14.91-10.1,18.65a8,8,0,0,0,.3,1.37L474,424,476.8,432c2.68,5.06,4.37,15,4.37,15,.89,5.66,5.16,20.56,5.16,20.56.8,3.47,3.78,7.84,3.78,7.84,10.13,18.87,21.78,20.56,21.78,20.56l.12,0a6.1,6.1,0,0,0,1.39.23h.32a5.7,5.7,0,0,0,4.51-2.68l0,0a6.67,6.67,0,0,0,4.3-4C523.61,490.42,521.09,493.33,521.09,493.33Z" fill="#f48225" data-secondary="true"/><path d="M521.09,493.33c-5,6.42-15.89,2.73-15.89,2.73-26.81-9.68-28.88-42.85-28.88-42.85a127,127,0,0,0-10.84-23.87c-7.42-12.87-6.16-20.92-6.16-20.92.42-12.95,10.78-16,10.78-16,6.9-.61,9.85,1.91,10.78,3a2.91,2.91,0,0,1,.35.48c-11.91-1.52-10.56,14.91-10.1,18.65a8,8,0,0,0,.3,1.37L474,424,476.8,432c2.68,5.06,4.37,15,4.37,15,.89,5.66,5.16,20.56,5.16,20.56.8,3.47,3.78,7.84,3.78,7.84,10.13,18.87,21.78,20.56,21.78,20.56l.12,0a6.1,6.1,0,0,0,1.39.23h.32a5.7,5.7,0,0,0,4.51-2.68l0,0a6.67,6.67,0,0,0,4.3-4C523.61,490.42,521.09,493.33,521.09,493.33Z" opacity="0.2"/><path d="M455.87,186.07c1.88,5,3.64,10.12,5.32,15.22s3.32,10.23,4.81,15.39,2.92,10.35,4.17,15.59a146.58,146.58,0,0,1,3,15.87l-.49-.4a45,45,0,0,0,9.4-1.89,24.16,24.16,0,0,0,8.45-4.34,10.79,10.79,0,0,0,4.06-8.24,19.64,19.64,0,0,0-2.68-9.17,19.25,19.25,0,0,1,3.06,9.17,10.19,10.19,0,0,1-1,4.81,12.34,12.34,0,0,1-3,3.9,24.65,24.65,0,0,1-8.61,4.67,45.94,45.94,0,0,1-9.59,2l-.43,0-.05-.45c-.69-5.3-1.88-10.53-3.08-15.76s-2.6-10.4-4.05-15.57-2.93-10.33-4.51-15.46S457.51,191.19,455.87,186.07Z" fill="#f7a48b"/><path d="M485.74,181.68a15.44,15.44,0,0,1,1.74,10.1,16.29,16.29,0,0,1-1.77,4.95,16.77,16.77,0,0,1-3.29,4.13,15.94,15.94,0,0,1-4.5,2.79,43.67,43.67,0,0,1-5,1.45c-3.35.85-6.69,1.73-10,2.54l.13,0a74.56,74.56,0,0,1-8,3.87,69,69,0,0,1-8.38,2.87,56.45,56.45,0,0,1-8.72,1.61,37.78,37.78,0,0,1-8.83-.27,40.89,40.89,0,0,0,8.78-.18,61.12,61.12,0,0,0,8.57-1.85q4.19-1.3,8.24-3a71.45,71.45,0,0,0,7.84-3.89l.07,0,.07,0c3.34-.87,6.7-1.67,10.05-2.5a44.58,44.58,0,0,0,4.93-1.37,16.44,16.44,0,0,0,4.29-2.58,16,16,0,0,0,3.25-3.85,15.7,15.7,0,0,0,2.06-9.8A16.79,16.79,0,0,0,485.74,181.68Z" fill="#f7a48b"/><path d="M483.38,199.37l2.17,1c.73.32,1.41.72,2.12,1.08s1.36.83,2,1.24,1.31.91,1.91,1.43a14.18,14.18,0,0,1,3.2,3.57,7.29,7.29,0,0,1,1.22,4.72l0-.2a9.78,9.78,0,0,1,1,4.75,8.76,8.76,0,0,1-1.7,4.58,12.1,12.1,0,0,1-8.23,4.83,13,13,0,0,1-4.86-.27,19.51,19.51,0,0,0-4.59-.39,44.33,44.33,0,0,0-9.23,1.35l.15-.08a37.28,37.28,0,0,1-5.12,2.84,49.51,49.51,0,0,1-5.41,2.15,27.32,27.32,0,0,1-11.52,1.57,13.28,13.28,0,0,1-5.55-1.88,11.54,11.54,0,0,1-3.94-4.3,17.78,17.78,0,0,1-1.82-5.51,23,23,0,0,1-.36-2.87c-.07-1-.06-1.93-.09-2.89.07,1,.11,1.92.22,2.88s.22,1.91.46,2.83a17.35,17.35,0,0,0,2,5.34,11.19,11.19,0,0,0,3.86,4,12.57,12.57,0,0,0,5.32,1.67,21.36,21.36,0,0,0,5.64-.28,36.33,36.33,0,0,0,5.52-1.41,47.68,47.68,0,0,0,5.29-2.16,35,35,0,0,0,5-2.78l.08,0,.08,0a40.88,40.88,0,0,1,9.47-1.39,20.7,20.7,0,0,1,4.82.44,12.17,12.17,0,0,0,4.53.3,11.36,11.36,0,0,0,7.69-4.43,8,8,0,0,0,1.64-4.14,9.18,9.18,0,0,0-.83-4.45l0-.08,0-.12a6.84,6.84,0,0,0-1.05-4.31,14.52,14.52,0,0,0-3-3.55c-.57-.54-1.22-1-1.83-1.48s-1.3-.89-2-1.29-1.36-.8-2.07-1.16Z" fill="#f7a48b"/><path d="M472.75,248.2a34.56,34.56,0,0,1-3.67,1.52,39.69,39.69,0,0,1-11.7,2.31,26.61,26.61,0,0,1-8-.91,19.21,19.21,0,0,1-7.09-3.83l.05,0a5.76,5.76,0,0,1-1.48-1.7,8.9,8.9,0,0,1-.87-2,14,14,0,0,1-.6-4.2c0-.71.06-1.4.08-2.1s.19-1.39.32-2.07.28-1.37.46-2l.59-2-.4,2c-.13.68-.2,1.37-.31,2a26.81,26.81,0,0,0-.14,4.1,13.16,13.16,0,0,0,.74,4,10.18,10.18,0,0,0,.86,1.79,5.32,5.32,0,0,0,1.23,1.41l0,0h0a18.94,18.94,0,0,0,3.2,2.13,21,21,0,0,0,3.59,1.42,25.77,25.77,0,0,0,7.68,1,43.59,43.59,0,0,0,7.79-.85A53.21,53.21,0,0,0,472.75,248.2Z" fill="#f7a48b"/></svg>